<svg xmlns="http://www.w3.org/2000/svg" width="109" height="109" viewBox="0 0 109 109" id="3047"><g fill="none" stroke="#666" stroke-width="9" stroke-linecap="round" stroke-linejoin="round"><g><path d="M44.63,30.47c4.74,1.79,6.92,2.41,10.84,2.53c11.71,0.35,3.21,1.51-0.32,4.13" /><path d="M37.78,56.18c1.47,0.98,3.52,1.37,5.77,0.49c2.57-1.01,13.29-6.16,16.61-7.72c3.32-1.56,6.5,0.03,3.42,3.62c-9.58,11.13-21.31,24.62-30.89,34.68c-2.55,2.68-0.45,2.77,1.17,1.08c10.55-11.04,14.17-15.73,18.47-15.73c5.57,0,2.74,13.09,5.28,17.49c2.54,4.4,14.95,2.93,20.42,1.66" /></g></g><g fill="none" stroke="#000" stroke-width="5" stroke-linecap="round" stroke-linejoin="round"><path d="M44.63,30.47c4.74,1.79,6.92,2.41,10.84,2.53c11.71,0.35,3.21,1.51-0.32,4.13" stroke-dasharray="24.532" stroke-dashoffset="24.532"><animate attributeName="stroke-dashoffset" values="24.532;24.532;0" dur="0.245s" fill="freeze" begin="0s;3047.click" /></path><path d="M37.78,56.18c1.47,0.98,3.52,1.37,5.77,0.49c2.57-1.01,13.29-6.16,16.61-7.72c3.32-1.56,6.5,0.03,3.42,3.62c-9.58,11.13-21.31,24.62-30.89,34.68c-2.55,2.68-0.45,2.77,1.17,1.08c10.55-11.04,14.17-15.73,18.47-15.73c5.57,0,2.74,13.09,5.28,17.49c2.54,4.4,14.95,2.93,20.42,1.66" stroke-dasharray="150.004" stroke-dashoffset="150.004"><animate attributeName="stroke-dashoffset" values="150.004" fill="freeze" begin="3047.click" /><animate attributeName="stroke-dashoffset" values="150.004;150.004;0" keyTimes="0;0.178;1" dur="1.373s" fill="freeze" begin="0s;3047.click" /></path></g></svg>