<svg xmlns="http://www.w3.org/2000/svg" width="109" height="109" viewBox="0 0 109 109" id="3049"><g fill="none" stroke="#666" stroke-width="9" stroke-linecap="round" stroke-linejoin="round"><g><path d="M31.09,49.46c1.09,0.81,2.88,1.92,4.77,1.71c1.89-0.2,15.59-4.14,16.78-4.64c1.19-0.5,3.18-1.01,4.67-1.61" /><path d="M46.14,34.12c1.42,1.38,2.35,3.54,1.98,5.95c-1.99,13.01-2.43,36.74-1.54,47.11c0.6,6.96-0.51,8.43-5.66,5.75c-4.07-2.12-10.92-6.46-10.92-9.99c0-6.05,19.36-19.07,35.55-19.07c13.7,0,19.86,6.66,19.86,13.92c0,6.66-7.45,15.23-21.25,16.95" /><path d="M70.92,38.97c4.27,2.12,6.97,4.8,8.44,6.66c3.57,4.5,0.3,3.63-0.89,4.04" /></g></g><g fill="none" stroke="#000" stroke-width="5" stroke-linecap="round" stroke-linejoin="round"><g><path d="M31.09,49.46c1.09,0.81,2.88,1.92,4.77,1.71c1.89-0.2,15.59-4.14,16.78-4.64c1.19-0.5,3.18-1.01,4.67-1.61" stroke-dasharray="27.55" stroke-dashoffset="27.55"><animate id="0" attributeName="stroke-dashoffset" values="27.55;0" dur="0.28s" fill="freeze" begin="0s;3049.click" /></path><path d="M46.14,34.12c1.42,1.38,2.35,3.54,1.98,5.95c-1.99,13.01-2.43,36.74-1.54,47.11c0.6,6.96-0.51,8.43-5.66,5.75c-4.07-2.12-10.92-6.46-10.92-9.99c0-6.05,19.36-19.07,35.55-19.07c13.7,0,19.86,6.66,19.86,13.92c0,6.66-7.45,15.23-21.25,16.95" stroke-dasharray="179.88" stroke-dashoffset="179.88"><animate attributeName="stroke-dashoffset" values="179.88" fill="freeze" begin="3049.click" /><animate id="1" attributeName="stroke-dashoffset" values="179.88;0" dur="1.35s" fill="freeze" begin="0.end" /></path><path d="M70.92,38.97c4.27,2.12,6.97,4.8,8.44,6.66c3.57,4.5,0.3,3.63-0.89,4.04" stroke-dasharray="17.24" stroke-dashoffset="17.24"><animate attributeName="stroke-dashoffset" values="17.24" fill="freeze" begin="3049.click" /><animate id="2" attributeName="stroke-dashoffset" values="17.24;0" dur="0.17s" fill="freeze" begin="1.end" /></path></g></g></svg>