<svg xmlns="http://www.w3.org/2000/svg" width="109" height="109" viewBox="0 0 109 109" id="304d"><g fill="none" stroke="#666" stroke-width="9" stroke-linecap="round" stroke-linejoin="round"><g><path d="M30.5,30.25c1.88,0.75,4.64,1.06,5.88,0.88c6.75-1,22.25-4.5,26.5-6c2.17-0.76,3.5-1.25,4.88-2.12" /><path d="M36.25,48.7c2.01,0.85,4.97,1.2,6.29,0.99c7.23-1.13,23.82-5.09,28.37-6.79c2.32-0.86,3.75-1.41,5.22-2.4" /><path d="M42,14.12c1.5,0.88,3.13,2.94,4,5.12c5.5,13.76,16,29.26,26.37,40.76c7.64,8.47,9.12,9.38-6,3.88" /><path d="M33.75,83.25c10.62,9.75,27.25,8.62,38.12,5" /></g></g><g fill="none" stroke="#000" stroke-width="5" stroke-linecap="round" stroke-linejoin="round"><path d="M30.5,30.25c1.88,0.75,4.64,1.06,5.88,0.88c6.75-1,22.25-4.5,26.5-6c2.17-0.76,3.5-1.25,4.88-2.12" stroke-dasharray="38.516" stroke-dashoffset="38.516"><animate attributeName="stroke-dashoffset" values="38.516;38.516;0" dur="0.385s" fill="freeze" begin="0s;304d.click" /></path><path d="M36.25,48.7c2.01,0.85,4.97,1.2,6.29,0.99c7.23-1.13,23.82-5.09,28.37-6.79c2.32-0.86,3.75-1.41,5.22-2.4" stroke-dasharray="41.379" stroke-dashoffset="41.379"><animate attributeName="stroke-dashoffset" values="41.379" fill="freeze" begin="304d.click" /><animate attributeName="stroke-dashoffset" values="41.379;41.379;0" keyTimes="0;0.482;1" dur="0.799s" fill="freeze" begin="0s;304d.click" /></path><path d="M42,14.12c1.5,0.88,3.13,2.94,4,5.12c5.5,13.76,16,29.26,26.37,40.76c7.64,8.47,9.12,9.38-6,3.88" stroke-dasharray="76.745" stroke-dashoffset="76.745"><animate attributeName="stroke-dashoffset" values="76.745" fill="freeze" begin="304d.click" /><animate attributeName="stroke-dashoffset" values="76.745;76.745;0" keyTimes="0;0.581;1" dur="1.376s" fill="freeze" begin="0s;304d.click" /></path><path d="M33.75,83.25c10.62,9.75,27.25,8.62,38.12,5" stroke-dasharray="40.235" stroke-dashoffset="40.235"><animate attributeName="stroke-dashoffset" values="40.235" fill="freeze" begin="304d.click" /><animate attributeName="stroke-dashoffset" values="40.235;40.235;0" keyTimes="0;0.774;1" dur="1.778s" fill="freeze" begin="0s;304d.click" /></path></g></svg>