<svg xmlns="http://www.w3.org/2000/svg" viewBox="0 0 109 109" id="3050"><g fill="none" stroke="#666" stroke-width="6" stroke-linecap="round" stroke-linejoin="round"><g><path d="M60.66,15c0.5,2.12,0.75,5-1,7.38c-6.97,9.46-14.29,19.09-18.62,24.5c-4,5-3.79,7.03-0.88,11c5.5,7.5,12.75,18.75,17.62,27.25c1.48,2.59,2.75,4.75,4.5,8.62" /><path d="M73.54,30c2.75,1.75,6,5.38,7.75,8.5" /><path d="M79.91,25.12c3.06,1.57,6.68,4.82,8.62,7.62" /></g></g><g fill="none" stroke="#000" stroke-width="3" stroke-linecap="round" stroke-linejoin="round"><path d="M60.66,15c0.5,2.12,0.75,5-1,7.38c-6.97,9.46-14.29,19.09-18.62,24.5c-4,5-3.79,7.03-0.88,11c5.5,7.5,12.75,18.75,17.62,27.25c1.48,2.59,2.75,4.75,4.5,8.62" stroke-dasharray="93.049" stroke-dashoffset="93.049"><animate attributeName="stroke-dashoffset" values="93.049;93.049;0" dur="0.7s" fill="freeze" begin="0s;3050.click" /></path><path d="M73.54,30c2.75,1.75,6,5.38,7.75,8.5" stroke-dasharray="11.599" stroke-dashoffset="11.599"><animate attributeName="stroke-dashoffset" values="11.599" fill="freeze" begin="3050.click" /><animate attributeName="stroke-dashoffset" values="11.599;11.599;0" keyTimes="0;0.858;1" dur="0.816s" fill="freeze" begin="0s;3050.click" /></path><path d="M79.91,25.12c3.06,1.57,6.68,4.82,8.62,7.62" stroke-dasharray="11.601" stroke-dashoffset="11.601"><animate attributeName="stroke-dashoffset" values="11.601" fill="freeze" begin="3050.click" /><animate attributeName="stroke-dashoffset" values="11.601;11.601;0" keyTimes="0;0.876;1" dur="0.932s" fill="freeze" begin="0s;3050.click" /></path></g></svg>