<svg xmlns="http://www.w3.org/2000/svg" width="109" height="109" viewBox="0 0 109 109" id="3058"><g fill="none" stroke="#666" stroke-width="6" stroke-linecap="round" stroke-linejoin="round"><g><path d="M39.12,17.25c1.25,3.12,0.93,6.74,0.38,10.25c-2.12,13.5-3,26.5-3,39.12c0,27.38,19.88,30.12,45.5,17.25" /><path d="M64.24,27c2.75,1.75,6,5.38,7.75,8.5" /><path d="M70.62,22.12c3.06,1.57,6.68,4.82,8.62,7.62" /></g></g><g fill="none" stroke="#000" stroke-width="3" stroke-linecap="round" stroke-linejoin="round"><path d="M39.12,17.25c1.25,3.12,0.93,6.74,0.38,10.25c-2.12,13.5-3,26.5-3,39.12c0,27.38,19.88,30.12,45.5,17.25" stroke-dasharray="112.631" stroke-dashoffset="112.631"><animate attributeName="stroke-dashoffset" values="112.631;112.631;0" dur="0.847s" fill="freeze" begin="0s;3058.click" /></path><path d="M64.24,27c2.75,1.75,6,5.38,7.75,8.5" stroke-dasharray="11.599" stroke-dashoffset="11.599"><animate attributeName="stroke-dashoffset" values="11.599" fill="freeze" begin="3058.click" /><animate attributeName="stroke-dashoffset" values="11.599;11.599;0" keyTimes="0;0.88;1" dur="0.963s" fill="freeze" begin="0s;3058.click" /></path><path d="M70.62,22.12c3.06,1.57,6.68,4.82,8.62,7.62" stroke-dasharray="11.601" stroke-dashoffset="11.601"><animate attributeName="stroke-dashoffset" values="11.601" fill="freeze" begin="3058.click" /><animate attributeName="stroke-dashoffset" values="11.601;11.601;0" keyTimes="0;0.892;1" dur="1.079s" fill="freeze" begin="0s;3058.click" /></path></g></svg>