<svg xmlns="http://www.w3.org/2000/svg" width="109" height="109" viewBox="0 0 109 109" id="305e"><g fill="none" stroke="#666" stroke-width="9" stroke-linecap="round" stroke-linejoin="round"><g><path d="M38.4,22c1.88,1.25,4.98,1.05,7.5,0.38c6.5-1.75,13.25-3.75,19.38-5.38c4.63-1.23,7.18,2.06,3.62,5.25c-12.12,10.87-31.14,24.4-40,30.25c-6.25,4.12-5.88,5.75,1.38,3.88c17.08-4.42,35.96-8.68,50.12-10.38c9.38-1.12,9.62,0.12,0.5,1.38c-15.82,2.17-34.38,14.25-34.38,26.5c0,12.88,11.62,20.38,31.5,16.62" /><path d="M81.78,26.75c2.75,1.75,6,5.38,7.75,8.5" /><path d="M88.15,21.88c3.06,1.57,6.68,4.82,8.62,7.62" /></g></g><g fill="none" stroke="#000" stroke-width="5" stroke-linecap="round" stroke-linejoin="round"><g><path d="M38.4,22c1.88,1.25,4.98,1.05,7.5,0.38c6.5-1.75,13.25-3.75,19.38-5.38c4.63-1.23,7.18,2.06,3.62,5.25c-12.12,10.87-31.14,24.4-40,30.25c-6.25,4.12-5.88,5.75,1.38,3.88c17.08-4.42,35.96-8.68,50.12-10.38c9.38-1.12,9.62,0.12,0.5,1.38c-15.82,2.17-34.38,14.25-34.38,26.5c0,12.88,11.62,20.38,31.5,16.62" stroke-dasharray="253.6" stroke-dashoffset="253.6"><animate id="0" attributeName="stroke-dashoffset" values="253.6;0" dur="1.91s" fill="freeze" begin="0s;305e.click" /></path><path d="M81.78,26.75c2.75,1.75,6,5.38,7.75,8.5" stroke-dasharray="11.6" stroke-dashoffset="11.6"><animate attributeName="stroke-dashoffset" values="11.6" fill="freeze" begin="305e.click" /><animate id="1" attributeName="stroke-dashoffset" values="11.6;0" dur="0.12s" fill="freeze" begin="0.end" /></path><path d="M88.15,21.88c3.06,1.57,6.68,4.82,8.62,7.62" stroke-dasharray="11.6" stroke-dashoffset="11.6"><animate attributeName="stroke-dashoffset" values="11.6" fill="freeze" begin="305e.click" /><animate id="2" attributeName="stroke-dashoffset" values="11.6;0" dur="0.12s" fill="freeze" begin="1.end" /></path></g></g></svg>