<svg xmlns="http://www.w3.org/2000/svg" width="109" height="109" viewBox="0 0 109 109" id="3065"><g fill="none" stroke="#666" stroke-width="9" stroke-linecap="round" stroke-linejoin="round"><g><path d="M14,44.75c1.88,1.62,4.68,2.09,8.12,0.62c17.88-7.62,30-11.12,44.88-10.88c12.56,0.21,22.98,7.17,22.87,19.17c-0.18,18.77-24.75,28.71-45.01,32.08" /><path d="M81,18c2.75,1.75,6,5.38,7.75,8.5" /><path d="M87.38,13.12c3.06,1.57,6.68,4.82,8.62,7.62" /></g></g><g fill="none" stroke="#000" stroke-width="5" stroke-linecap="round" stroke-linejoin="round"><g><path d="M14,44.75c1.88,1.62,4.68,2.09,8.12,0.62c17.88-7.62,30-11.12,44.88-10.88c12.56,0.21,22.98,7.17,22.87,19.17c-0.18,18.77-24.75,28.71-45.01,32.08" stroke-dasharray="148.19" stroke-dashoffset="148.19"><animate id="0" attributeName="stroke-dashoffset" values="148.19;0" dur="1.11s" fill="freeze" begin="0s;3065.click" /></path><path d="M81,18c2.75,1.75,6,5.38,7.75,8.5" stroke-dasharray="11.6" stroke-dashoffset="11.6"><animate attributeName="stroke-dashoffset" values="11.6" fill="freeze" begin="3065.click" /><animate id="1" attributeName="stroke-dashoffset" values="11.6;0" dur="0.12s" fill="freeze" begin="0.end" /></path><path d="M87.38,13.12c3.06,1.57,6.68,4.82,8.62,7.62" stroke-dasharray="11.6" stroke-dashoffset="11.6"><animate attributeName="stroke-dashoffset" values="11.6" fill="freeze" begin="3065.click" /><animate id="2" attributeName="stroke-dashoffset" values="11.6;0" dur="0.12s" fill="freeze" begin="1.end" /></path></g></g></svg>