<svg xmlns="http://www.w3.org/2000/svg" width="109" height="109" viewBox="0 0 109 109" id="306b"><g fill="none" stroke="#666" stroke-width="9" stroke-linecap="round" stroke-linejoin="round"><g><path d="M24.53,22.75c1.25,1.5,1.62,3.75,1.12,6.38c-3,15.88-9,32.5-7.38,47.62c2.02,18.84,4.5,5.75,8.5-3.5" /><path d="M53.2,30.64c0.96,0.79,2.44,1.58,5.1,1.35c6.98-0.61,15.01-3.3,22.04-3.36c13.19-0.11,1.5,3.75-8.39,7.35" /><path d="M52.53,68c1.76,12.92,11.92,16.01,24.23,14.93c5.08-0.45,8.9-0.8,14.27-2.06" /></g></g><g fill="none" stroke="#000" stroke-width="5" stroke-linecap="round" stroke-linejoin="round"><g><path d="M24.53,22.75c1.25,1.5,1.62,3.75,1.12,6.38c-3,15.88-9,32.5-7.38,47.62c2.02,18.84,4.5,5.75,8.5-3.5" stroke-dasharray="79.93" stroke-dashoffset="79.93"><animate id="0" attributeName="stroke-dashoffset" values="79.93;0" dur="0.6s" fill="freeze" begin="0s;306b.click" /></path><path d="M53.2,30.64c0.96,0.79,2.44,1.58,5.1,1.35c6.98-0.61,15.01-3.3,22.04-3.36c13.19-0.11,1.5,3.75-8.39,7.35" stroke-dasharray="49.76" stroke-dashoffset="49.76"><animate attributeName="stroke-dashoffset" values="49.76" fill="freeze" begin="306b.click" /><animate id="1" attributeName="stroke-dashoffset" values="49.76;0" dur="0.5s" fill="freeze" begin="0.end" /></path><path d="M52.53,68c1.76,12.92,11.92,16.01,24.23,14.93c5.08-0.45,8.9-0.8,14.27-2.06" stroke-dasharray="46.62" stroke-dashoffset="46.62"><animate attributeName="stroke-dashoffset" values="46.62" fill="freeze" begin="306b.click" /><animate id="2" attributeName="stroke-dashoffset" values="46.62;0" dur="0.47s" fill="freeze" begin="1.end" /></path></g></g></svg>