<svg xmlns="http://www.w3.org/2000/svg" width="109" height="109" viewBox="0 0 109 109" id="306d"><g fill="none" stroke="#666" stroke-width="9" stroke-linecap="round" stroke-linejoin="round"><g><path d="M33.29,14.5c1.62,1.62,2.1,3.21,1.88,5.88c-1.03,11.93-2.06,31.66-2.53,53.12c-0.1,4.62-0.18,9.31-0.22,14" /><path d="M17.16,37.88c1.62,0.88,3.25,1.38,5.62,0.75c2.14-0.56,7.8-2.31,12.37-4.03c6.26-2.35,6.88-1.47,3.12,3.63c-5.56,7.53-13.02,17.38-18.48,26.77c-5.6,9.62-3.45,8.3,2,3c19.12-18.62,38.5-39.12,54.12-39.12c11.38,0,12.88,11.25,12.88,32.5c0,28.62-30.18,24.88-30.18,16.26c0-9.63,18.73-7.82,28.06-1.88c2.75,1.75,5.88,4.88,7.5,6.75" /></g></g><g fill="none" stroke="#000" stroke-width="5" stroke-linecap="round" stroke-linejoin="round"><g><path d="M33.29,14.5c1.62,1.62,2.1,3.21,1.88,5.88c-1.03,11.93-2.06,31.66-2.53,53.12c-0.1,4.62-0.18,9.31-0.22,14" stroke-dasharray="73.609" stroke-dashoffset="73.609"><animate attributeName="stroke-dashoffset" values="73.609;73.609;0" dur="0.553s" fill="freeze" begin="0s;306d.click" /></path><path d="M17.16,37.88c1.62,0.88,3.25,1.38,5.62,0.75c2.14-0.56,7.8-2.31,12.37-4.03c6.26-2.35,6.88-1.47,3.12,3.63c-5.56,7.53-13.02,17.38-18.48,26.77c-5.6,9.62-3.45,8.3,2,3c19.12-18.62,38.5-39.12,54.12-39.12c11.38,0,12.88,11.25,12.88,32.5c0,28.62-30.18,24.88-30.18,16.26c0-9.63,18.73-7.82,28.06-1.88c2.75,1.75,5.88,4.88,7.5,6.75" stroke-dasharray="273.699" stroke-dashoffset="273.699"><animate attributeName="stroke-dashoffset" values="273.699" fill="freeze" begin="306d.click" /><animate attributeName="stroke-dashoffset" values="273.699;273.699;0" keyTimes="0;0.212;1" dur="2.611s" fill="freeze" begin="0s;306d.click" /></path></g></g></svg>