<svg xmlns="http://www.w3.org/2000/svg" width="109" height="109" viewBox="0 0 109 109" id="306f"><g fill="none" stroke="#666" stroke-width="9" stroke-linecap="round" stroke-linejoin="round"><g><path d="M24.51,18c1.25,1.5,2.15,4,1.62,6.62c-3.5,17.62-6.98,36.4-4,54.88c2.5,15.5,1.12,2,5.62-6.25" /><path d="M49.64,37.89c2.41,1.57,4.85,2.16,7.8,1.71c9.36-1.43,17.46-2.94,23.4-4.57c3.12-0.86,5.96-1.29,7.8-1.29" /><path d="M69.77,16.5c2.25,2.12,2.88,4.12,2.88,6.5c0,2.38,1.5,38.62,1.5,48c0,22.5-30.62,19.62-30.62,10.5c0-9.75,23.88-5.62,29.5-2.88c5.62,2.74,11.98,8.26,13.36,9.38" /></g></g><g fill="none" stroke="#000" stroke-width="5" stroke-linecap="round" stroke-linejoin="round"><g><path d="M24.51,18c1.25,1.5,2.15,4,1.62,6.62c-3.5,17.62-6.98,36.4-4,54.88c2.5,15.5,1.12,2,5.62-6.25" stroke-dasharray="83.755" stroke-dashoffset="83.755"><animate attributeName="stroke-dashoffset" values="83.755;83.755;0" dur="0.63s" fill="freeze" begin="0s;306f.click" /></path><path d="M49.64,37.89c2.41,1.57,4.85,2.16,7.8,1.71c9.36-1.43,17.46-2.94,23.4-4.57c3.12-0.86,5.96-1.29,7.8-1.29" stroke-dasharray="39.965" stroke-dashoffset="39.965"><animate attributeName="stroke-dashoffset" values="39.965" fill="freeze" begin="306f.click" /><animate attributeName="stroke-dashoffset" values="39.965;39.965;0" keyTimes="0;0.612;1" dur="1.03s" fill="freeze" begin="0s;306f.click" /></path><path d="M69.77,16.5c2.25,2.12,2.88,4.12,2.88,6.5c0,2.38,1.5,38.62,1.5,48c0,22.5-30.62,19.62-30.62,10.5c0-9.75,23.88-5.62,29.5-2.88c5.62,2.74,11.98,8.26,13.36,9.38" stroke-dasharray="148.379" stroke-dashoffset="148.379"><animate attributeName="stroke-dashoffset" values="148.379" fill="freeze" begin="306f.click" /><animate attributeName="stroke-dashoffset" values="148.379;148.379;0" keyTimes="0;0.48;1" dur="2.146s" fill="freeze" begin="0s;306f.click" /></path></g></g></svg>