<svg xmlns="http://www.w3.org/2000/svg" width="109" height="109" viewBox="0 0 109 109" id="3077"><g fill="none" stroke="#666" stroke-width="9" stroke-linecap="round" stroke-linejoin="round"><g><path d="M42.13,15.62c3.62,3.38,7.5,5.38,12.74,6.13c9.59,1.37,3.5,3.38-1.88,6.12" /><path d="M43.13,46.88c1.88,4.62,7.5,9.41,14.25,17.5c10.62,12.74,0.49,30-19.13,21.62" /><path d="M16.5,73.88c0.75,4,1.88,8.12,5,10.12c1.16,0.74,0.12-3.38,13.25-9.12" /><path d="M79.63,61.88c5.5,3.38,10.28,7.49,11.38,8.88c6.75,8.5-0.25,4.62-4.62,7.12" /><path d="M80.87,26.62c-9.62,0-9.25-14.25,0-14.25c9.76,0.01,9.5,14.25,0,14.25" /></g></g><g fill="none" stroke="#000" stroke-width="5" stroke-linecap="round" stroke-linejoin="round"><g><path d="M42.13,15.62c3.62,3.38,7.5,5.38,12.74,6.13c9.59,1.37,3.5,3.38-1.88,6.12" stroke-dasharray="28.27" stroke-dashoffset="28.27"><animate id="0" attributeName="stroke-dashoffset" values="28.27;0" dur="0.28s" fill="freeze" begin="0s;3077.click" /></path><path d="M43.13,46.88c1.88,4.62,7.5,9.41,14.25,17.5c10.62,12.74,0.49,30-19.13,21.62" stroke-dasharray="65.76" stroke-dashoffset="65.76"><animate attributeName="stroke-dashoffset" values="65.76" fill="freeze" begin="3077.click" /><animate id="1" attributeName="stroke-dashoffset" values="65.76;0" dur="0.49s" fill="freeze" begin="0.end" /></path><path d="M16.5,73.88c0.75,4,1.88,8.12,5,10.12c1.16,0.74,0.12-3.38,13.25-9.12" stroke-dasharray="28.03" stroke-dashoffset="28.03"><animate attributeName="stroke-dashoffset" values="28.03" fill="freeze" begin="3077.click" /><animate id="2" attributeName="stroke-dashoffset" values="28.03;0" dur="0.28s" fill="freeze" begin="1.end" /></path><path d="M79.63,61.88c5.5,3.38,10.28,7.49,11.38,8.88c6.75,8.5-0.25,4.62-4.62,7.12" stroke-dasharray="28.27" stroke-dashoffset="28.27"><animate attributeName="stroke-dashoffset" values="28.27" fill="freeze" begin="3077.click" /><animate id="3" attributeName="stroke-dashoffset" values="28.27;0" dur="0.28s" fill="freeze" begin="2.end" /></path><path d="M80.87,26.62c-9.62,0-9.25-14.25,0-14.25c9.76,0.01,9.5,14.25,0,14.25" stroke-dasharray="45.27" stroke-dashoffset="45.27"><animate attributeName="stroke-dashoffset" values="45.27" fill="freeze" begin="3077.click" /><animate id="4" attributeName="stroke-dashoffset" values="45.27;0" dur="0.45s" fill="freeze" begin="3.end" /></path></g></g></svg>