<svg xmlns="http://www.w3.org/2000/svg" width="109" height="109" viewBox="0 0 109 109" id="3079"><g fill="none" stroke="#666" stroke-width="9" stroke-linecap="round" stroke-linejoin="round"><g><path d="M15,48.75c2.25,1.62,5,1.38,7.62-1c3.89-3.52,6.12-5.75,10.62-9.88c5.88-5.37,8.49-4.75,13.14-0.87c12.12,10.12,30.38,25.12,33.38,27.38c3,2.26,12.37,10.37,13.87,11.62" /><path d="M66.76,26.75c2.75,1.75,6,5.38,7.75,8.5" /><path d="M73.13,21.88c3.06,1.57,6.68,4.82,8.62,7.62" /></g></g><g fill="none" stroke="#000" stroke-width="5" stroke-linecap="round" stroke-linejoin="round"><g><path d="M15,48.75c2.25,1.62,5,1.38,7.62-1c3.89-3.52,6.12-5.75,10.62-9.88c5.88-5.37,8.49-4.75,13.14-0.87c12.12,10.12,30.38,25.12,33.38,27.38c3,2.26,12.37,10.37,13.87,11.62" stroke-dasharray="99.349" stroke-dashoffset="99.349"><animate attributeName="stroke-dashoffset" values="99.349;99.349;0" dur="0.747s" fill="freeze" begin="0s;3079.click" /></path><path d="M66.76,26.75c2.75,1.75,6,5.38,7.75,8.5" stroke-dasharray="11.599" stroke-dashoffset="11.599"><animate attributeName="stroke-dashoffset" values="11.599" fill="freeze" begin="3079.click" /><animate attributeName="stroke-dashoffset" values="11.599;11.599;0" keyTimes="0;0.866;1" dur="0.863s" fill="freeze" begin="0s;3079.click" /></path><path d="M73.13,21.88c3.06,1.57,6.68,4.82,8.62,7.62" stroke-dasharray="11.601" stroke-dashoffset="11.601"><animate attributeName="stroke-dashoffset" values="11.601" fill="freeze" begin="3079.click" /><animate attributeName="stroke-dashoffset" values="11.601;11.601;0" keyTimes="0;0.882;1" dur="0.979s" fill="freeze" begin="0s;3079.click" /></path></g></g></svg>