<svg xmlns="http://www.w3.org/2000/svg" width="109" height="109" viewBox="0 0 109 109" id="307a"><g fill="none" stroke="#666" stroke-width="6" stroke-linecap="round" stroke-linejoin="round"><g><path d="M15,48.75c2.25,1.62,4.67,1.96,7-0.38c3.62-3.62,7.46-6.54,11.25-10.5c5.5-5.75,8.48-4.75,13.12-0.88c12.12,10.12,30.38,25.12,33.38,27.38c3,2.26,12.38,10.38,13.88,11.63" /><path d="M73.63,36.75c-9.62,0-9.25-14.25,0-14.25c9.75,0,9.5,14.25,0,14.25" /></g></g><g fill="none" stroke="#000" stroke-width="3" stroke-linecap="round" stroke-linejoin="round"><path d="M15,48.75c2.25,1.62,4.67,1.96,7-0.38c3.62-3.62,7.46-6.54,11.25-10.5c5.5-5.75,8.48-4.75,13.12-0.88c12.12,10.12,30.38,25.12,33.38,27.38c3,2.26,12.38,10.38,13.88,11.63" stroke-dasharray="99.793" stroke-dashoffset="99.793"><animate attributeName="stroke-dashoffset" values="99.793;99.793;0" dur="0.75s" fill="freeze" begin="0s;307a.click" /></path><path d="M73.63,36.75c-9.62,0-9.25-14.25,0-14.25c9.75,0,9.5,14.25,0,14.25" stroke-dasharray="45.269" stroke-dashoffset="45.269"><animate attributeName="stroke-dashoffset" values="45.269" fill="freeze" begin="307a.click" /><animate attributeName="stroke-dashoffset" values="45.269;45.269;0" keyTimes="0;0.623;1" dur="1.203s" fill="freeze" begin="0s;307a.click" /></path></g></svg>