<svg xmlns="http://www.w3.org/2000/svg" width="109" height="109" viewBox="0 0 109 109" id="308c"><g fill="none" stroke="#666" stroke-width="9" stroke-linecap="round" stroke-linejoin="round"><g><path d="M34.48,13c1.5,1.38,2.83,3.74,2.5,6.38c-0.5,4-2.75,44.5-2.75,52.88c0,8.38,0.12,16.62,0.12,19.5" /><path d="M16.98,40.75c2.12,1.38,3.74,1.46,7.5,0c4.5-1.75,6.55-2.66,13-5.5c4.25-1.88,4.4,0.24,2.5,3.5c-5.25,9-10.5,16.75-18.88,27.62c-7.55,9.81-6.93,12.85,3.25,3.12c14-13.38,20.34-19.76,33.88-32.5c6.38-6,19.39-12.09,18.14,0.88c-1.02,10.63-1.89,22.13-2.29,30.75c-1.02,21.71,11.53,18,20.15,8.63" /></g></g><g fill="none" stroke="#000" stroke-width="5" stroke-linecap="round" stroke-linejoin="round"><path d="M34.48,13c1.5,1.38,2.83,3.74,2.5,6.38c-0.5,4-2.75,44.5-2.75,52.88c0,8.38,0.12,16.62,0.12,19.5" stroke-dasharray="79.57" stroke-dashoffset="79.57"><animate attributeName="stroke-dashoffset" values="79.57;79.57;0" dur="0.598s" fill="freeze" begin="0s;308c.click" /></path><path d="M16.98,40.75c2.12,1.38,3.74,1.46,7.5,0c4.5-1.75,6.55-2.66,13-5.5c4.25-1.88,4.4,0.24,2.5,3.5c-5.25,9-10.5,16.75-18.88,27.62c-7.55,9.81-6.93,12.85,3.25,3.12c14-13.38,20.34-19.76,33.88-32.5c6.38-6,19.39-12.09,18.14,0.88c-1.02,10.63-1.89,22.13-2.29,30.75c-1.02,21.71,11.53,18,20.15,8.63" stroke-dasharray="222.496" stroke-dashoffset="222.496"><animate attributeName="stroke-dashoffset" values="222.496" fill="freeze" begin="308c.click" /><animate attributeName="stroke-dashoffset" values="222.496;222.496;0" keyTimes="0;0.263;1" dur="2.271s" fill="freeze" begin="0s;308c.click" /></path></g></svg>