<svg xmlns="http://www.w3.org/2000/svg" width="109" height="109" viewBox="0 0 109 109" id="3093"><g fill="none" stroke="#666" stroke-width="9" stroke-linecap="round" stroke-linejoin="round"><g><path d="M56.35,16.5c0.75,1.75,1.13,5.83-0.38,8.25c-7,11.25-27.22,43.47-33.88,54.37c-9,14.75-7.62,16.25,1.5,1.25c17.86-29.36,32-23.76,32-6.75c0,25,19,26.5,34.25-5" /></g></g><g fill="none" stroke="#000" stroke-width="5" stroke-linecap="round" stroke-linejoin="round"><path d="M56.35,16.5c0.75,1.75,1.13,5.83-0.38,8.25c-7,11.25-27.22,43.47-33.88,54.37c-9,14.75-7.62,16.25,1.5,1.25c17.86-29.36,32-23.76,32-6.75c0,25,19,26.5,34.25-5" stroke-dasharray="208.357" stroke-dashoffset="208.357"><animate attributeName="stroke-dashoffset" values="208.357;208.357;0" dur="1.567s" fill="freeze" begin="0s;3093.click" /></path></g></svg>