<svg xmlns="http://www.w3.org/2000/svg" width="109" height="109" viewBox="0 0 109 109" id="30ad"><g fill="none" stroke="#666" stroke-width="9" stroke-linecap="round" stroke-linejoin="round"><g><path d="M27,40.5c1.75,0.62,4.77,1.09,7.25,0.38c11.75-3.38,30.62-8.13,37.5-9.88c2.62-0.67,6.75-1.12,9-1" /><path d="M19.5,65.8c2.28,0.84,6.24,1.18,9.46,0.17c17.79-5.59,32.67-9.09,49.17-12.99c3.43-0.81,8.81-1.52,11.74-1.35" /><path d="M48.87,16.75c2.5,1.75,3.43,3.24,3.88,6.12c2.12,13.62,6.38,45.38,8.25,59.25c0.4,3,1,8.38,1.38,11.12" /></g></g><g fill="none" stroke="#000" stroke-width="5" stroke-linecap="round" stroke-linejoin="round"><g><path d="M27,40.5c1.75,0.62,4.77,1.09,7.25,0.38c11.75-3.38,30.62-8.13,37.5-9.88c2.62-0.67,6.75-1.12,9-1" stroke-dasharray="55.224" stroke-dashoffset="55.224"><animate attributeName="stroke-dashoffset" values="55.224;55.224;0" dur="0.552s" fill="freeze" begin="0s;30ad.click" /></path><path d="M19.5,65.8c2.28,0.84,6.24,1.18,9.46,0.17c17.79-5.59,32.67-9.09,49.17-12.99c3.43-0.81,8.81-1.52,11.74-1.35" stroke-dasharray="72.324" stroke-dashoffset="72.324"><animate attributeName="stroke-dashoffset" values="72.324" fill="freeze" begin="30ad.click" /><animate attributeName="stroke-dashoffset" values="72.324;72.324;0" keyTimes="0;0.504;1" dur="1.096s" fill="freeze" begin="0s;30ad.click" /></path><path d="M48.87,16.75c2.5,1.75,3.43,3.24,3.88,6.12c2.12,13.62,6.38,45.38,8.25,59.25c0.4,3,1,8.38,1.38,11.12" stroke-dasharray="78.536" stroke-dashoffset="78.536"><animate attributeName="stroke-dashoffset" values="78.536" fill="freeze" begin="30ad.click" /><animate attributeName="stroke-dashoffset" values="78.536;78.536;0" keyTimes="0;0.65;1" dur="1.686s" fill="freeze" begin="0s;30ad.click" /></path></g></g></svg>