<svg xmlns="http://www.w3.org/2000/svg" width="109" height="109" viewBox="0 0 109 109" id="30af"><g fill="none" stroke="#666" stroke-width="9" stroke-linecap="round" stroke-linejoin="round"><g><path d="M50,19.62c0.38,1.5,0.34,3.48-0.5,5.12c-4.12,8.12-7.88,15.5-16.12,24.12" /><path d="M51.25,28.62c2.62,0.25,5.67-0.39,7.62-0.88c6-1.5,9.75-2.38,15.12-3.88c5.79-1.62,7.53-0.42,5.12,4.88c-10.36,22.88-26.24,44.14-48.61,60.51" /></g></g><g fill="none" stroke="#000" stroke-width="5" stroke-linecap="round" stroke-linejoin="round"><g><path d="M50,19.62c0.38,1.5,0.34,3.48-0.5,5.12c-4.12,8.12-7.88,15.5-16.12,24.12" stroke-dasharray="34.39" stroke-dashoffset="34.39"><animate id="0" attributeName="stroke-dashoffset" values="34.39;0" dur="0.34s" fill="freeze" begin="0s;30af.click" /></path><path d="M51.25,28.62c2.62,0.25,5.67-0.39,7.62-0.88c6-1.5,9.75-2.38,15.12-3.88c5.79-1.62,7.53-0.42,5.12,4.88c-10.36,22.88-26.24,44.14-48.61,60.51" stroke-dasharray="112.98" stroke-dashoffset="112.98"><animate attributeName="stroke-dashoffset" values="112.98" fill="freeze" begin="30af.click" /><animate id="1" attributeName="stroke-dashoffset" values="112.98;0" dur="0.85s" fill="freeze" begin="0.end" /></path></g></g></svg>