<svg xmlns="http://www.w3.org/2000/svg" width="109" height="109" viewBox="0 0 109 109" id="30b2"><g fill="none" stroke="#666" stroke-width="9" stroke-linecap="round" stroke-linejoin="round"><g><path d="M40.96,17.88c0.44,1.9,0.39,4.42-0.59,6.5c-4.82,10.31-9.21,19.67-18.87,30.62" /><path d="M37.88,37.62c2.12,0.88,4.15,1.04,6.62,0.5c12.62-2.75,25.5-4.88,35.75-6.5c3.61-0.57,6.25-0.75,9.25-0.5" /><path d="M64.46,38.88c0.44,1.9,0.5,4.27-0.08,6.5c-3.63,13.75-9.25,31.25-24.63,43.87" /><path d="M83.62,13.94c2.95,1.81,6.43,5.57,8.3,8.81" /><path d="M90.12,9.12c3.02,1.63,6.58,5,8.5,7.9" /></g></g><g fill="none" stroke="#000" stroke-width="5" stroke-linecap="round" stroke-linejoin="round"><g><path d="M40.96,17.88c0.44,1.9,0.39,4.42-0.59,6.5c-4.82,10.31-9.21,19.67-18.87,30.62" stroke-dasharray="42.76" stroke-dashoffset="42.76"><animate attributeName="stroke-dashoffset" values="42.76;42.76;0" dur="0.428s" fill="freeze" begin="0s;30b2.click" /></path><path d="M37.88,37.62c2.12,0.88,4.15,1.04,6.62,0.5c12.62-2.75,25.5-4.88,35.75-6.5c3.61-0.57,6.25-0.75,9.25-0.5" stroke-dasharray="52.383" stroke-dashoffset="52.383"><animate attributeName="stroke-dashoffset" values="52.383" fill="freeze" begin="30b2.click" /><animate attributeName="stroke-dashoffset" values="52.383;52.383;0" keyTimes="0;0.45;1" dur="0.952s" fill="freeze" begin="0s;30b2.click" /></path><path d="M64.46,38.88c0.44,1.9,0.5,4.27-0.08,6.5c-3.63,13.75-9.25,31.25-24.63,43.87" stroke-dasharray="57.777" stroke-dashoffset="57.777"><animate attributeName="stroke-dashoffset" values="57.777" fill="freeze" begin="30b2.click" /><animate attributeName="stroke-dashoffset" values="57.777;57.777;0" keyTimes="0;0.622;1" dur="1.53s" fill="freeze" begin="0s;30b2.click" /></path><path d="M83.62,13.94c2.95,1.81,6.43,5.57,8.3,8.81" stroke-dasharray="12.207" stroke-dashoffset="12.207"><animate attributeName="stroke-dashoffset" values="12.207" fill="freeze" begin="30b2.click" /><animate attributeName="stroke-dashoffset" values="12.207;12.207;0" keyTimes="0;0.926;1" dur="1.652s" fill="freeze" begin="0s;30b2.click" /></path><path d="M90.12,9.12c3.02,1.63,6.58,5,8.5,7.9" stroke-dasharray="11.701" stroke-dashoffset="11.701"><animate attributeName="stroke-dashoffset" values="11.701" fill="freeze" begin="30b2.click" /><animate attributeName="stroke-dashoffset" values="11.701;11.701;0" keyTimes="0;0.934;1" dur="1.769s" fill="freeze" begin="0s;30b2.click" /></path></g></g></svg>