<svg xmlns="http://www.w3.org/2000/svg" width="109" height="109" viewBox="0 0 109 109" id="30b9"><g fill="none" stroke="#666" stroke-width="9" stroke-linecap="round" stroke-linejoin="round"><g><path d="M30.13,29.38c1.75,1.5,4.15,1.98,6.62,1.38c13.25-3.25,24.25-5.62,31.25-7.38c7-1.76,8.64,1.16,6.5,5.75c-11.24,24.12-28.37,45.87-53.5,57.25" /><path d="M61,57.25c11,7.38,21,17,28,28.62" /></g></g><g fill="none" stroke="#000" stroke-width="5" stroke-linecap="round" stroke-linejoin="round"><g><path d="M30.13,29.38c1.75,1.5,4.15,1.98,6.62,1.38c13.25-3.25,24.25-5.62,31.25-7.38c7-1.76,8.64,1.16,6.5,5.75c-11.24,24.12-28.37,45.87-53.5,57.25" stroke-dasharray="131.74" stroke-dashoffset="131.74"><animate id="0" attributeName="stroke-dashoffset" values="131.74;0" dur="0.99s" fill="freeze" begin="0s;30b9.click" /></path><path d="M61,57.25c11,7.38,21,17,28,28.62" stroke-dasharray="40.36" stroke-dashoffset="40.36"><animate attributeName="stroke-dashoffset" values="40.36" fill="freeze" begin="30b9.click" /><animate id="1" attributeName="stroke-dashoffset" values="40.36;0" dur="0.4s" fill="freeze" begin="0.end" /></path></g></g></svg>