<svg xmlns="http://www.w3.org/2000/svg" width="109" height="109" viewBox="0 0 109 109" id="30bf"><g fill="none" stroke="#666" stroke-width="9" stroke-linecap="round" stroke-linejoin="round"><g><path d="M48.83,19.75c0.43,1.72,0.39,4-0.58,5.89c-4.77,9.34-9.1,17.82-18.63,27.73" /><path d="M49.75,30.38c2.75,0.5,5,0,7.62-0.62c6.02-1.43,10.5-2.62,15.88-4.12c5.79-1.62,8.22,0.31,5.88,5.62c-10.88,24.62-22.13,43.99-50.13,59.99" /><path d="M43.38,45.62c6.75,3.5,10.62,7.88,14.75,15.25" /></g></g><g fill="none" stroke="#000" stroke-width="5" stroke-linecap="round" stroke-linejoin="round"><g><path d="M48.83,19.75c0.43,1.72,0.39,4-0.58,5.89c-4.77,9.34-9.1,17.82-18.63,27.73" stroke-dasharray="39.6" stroke-dashoffset="39.6"><animate id="0" attributeName="stroke-dashoffset" values="39.6;0" dur="0.4s" fill="freeze" begin="0s;30bf.click" /></path><path d="M49.75,30.38c2.75,0.5,5,0,7.62-0.62c6.02-1.43,10.5-2.62,15.88-4.12c5.79-1.62,8.22,0.31,5.88,5.62c-10.88,24.62-22.13,43.99-50.13,59.99" stroke-dasharray="115.89" stroke-dashoffset="115.89"><animate attributeName="stroke-dashoffset" values="115.89" fill="freeze" begin="30bf.click" /><animate id="1" attributeName="stroke-dashoffset" values="115.89;0" dur="0.87s" fill="freeze" begin="0.end" /></path><path d="M43.38,45.62c6.75,3.5,10.62,7.88,14.75,15.25" stroke-dasharray="21.57" stroke-dashoffset="21.57"><animate attributeName="stroke-dashoffset" values="21.57" fill="freeze" begin="30bf.click" /><animate id="2" attributeName="stroke-dashoffset" values="21.57;0" dur="0.22s" fill="freeze" begin="1.end" /></path></g></g></svg>