<svg xmlns="http://www.w3.org/2000/svg" width="109" height="109" viewBox="0 0 109 109" id="30c1"><g fill="none" stroke="#666" stroke-width="9" stroke-linecap="round" stroke-linejoin="round"><g><path d="M69.76,15.25c-0.38,2.62-2.01,4.37-3.88,5.38c-7.88,4.25-18.62,9.75-35.5,13.25" /><path d="M18.5,51.5c2.88,0.88,4.39,1.65,7.88,1.25c22-2.5,36.38-4.25,56.12-4.88c4.88-0.15,7.88,0.51,10.88,1.51" /><path d="M54.88,30.75c0.88,0.75,1.75,2.49,1.75,4.75c0,6.03,0.03,11.25,0.03,18.27c0,14.98-5.03,29.48-16.53,39.23" /></g></g><g fill="none" stroke="#000" stroke-width="5" stroke-linecap="round" stroke-linejoin="round"><g><path d="M69.76,15.25c-0.38,2.62-2.01,4.37-3.88,5.38c-7.88,4.25-18.62,9.75-35.5,13.25" stroke-dasharray="44.936" stroke-dashoffset="44.936"><animate attributeName="stroke-dashoffset" values="44.936;44.936;0" dur="0.449s" fill="freeze" begin="0s;30c1.click" /></path><path d="M18.5,51.5c2.88,0.88,4.39,1.65,7.88,1.25c22-2.5,36.38-4.25,56.12-4.88c4.88-0.15,7.88,0.51,10.88,1.51" stroke-dasharray="75.466" stroke-dashoffset="75.466"><animate attributeName="stroke-dashoffset" values="75.466" fill="freeze" begin="30c1.click" /><animate attributeName="stroke-dashoffset" values="75.466;75.466;0" keyTimes="0;0.442;1" dur="1.016s" fill="freeze" begin="0s;30c1.click" /></path><path d="M54.88,30.75c0.88,0.75,1.75,2.49,1.75,4.75c0,6.03,0.03,11.25,0.03,18.27c0,14.98-5.03,29.48-16.53,39.23" stroke-dasharray="67.436" stroke-dashoffset="67.436"><animate attributeName="stroke-dashoffset" values="67.436" fill="freeze" begin="30c1.click" /><animate attributeName="stroke-dashoffset" values="67.436;67.436;0" keyTimes="0;0.667;1" dur="1.523s" fill="freeze" begin="0s;30c1.click" /></path></g></g></svg>