<svg xmlns="http://www.w3.org/2000/svg" width="109" height="109" viewBox="0 0 109 109" id="30d4"><g fill="none" stroke="#666" stroke-width="9" stroke-linecap="round" stroke-linejoin="round"><g><path d="M35.38,44.5c1.75,1.38,4.51,2.19,6.88,1.88c10.24-1.38,17.24-2.88,24.24-4.26c3.01-0.59,7.12-1,9.38-0.88" /><path d="M31,17.62c1.38,1.26,1.88,3.38,1.88,6.13c0,2.75-0.88,44-0.88,47.25c0,9.75,4,14.62,13.75,14.62c6,0,16.38,0.12,21.38,0c5-0.12,9.5-0.62,13.5-1.5" /><path d="M83,32.88c-9.62,0-9.25-14.25,0-14.25c9.76-0.01,9.5,14.25,0,14.25" /></g></g><g fill="none" stroke="#000" stroke-width="5" stroke-linecap="round" stroke-linejoin="round"><path d="M35.38,44.5c1.75,1.38,4.51,2.19,6.88,1.88c10.24-1.38,17.24-2.88,24.24-4.26c3.01-0.59,7.12-1,9.38-0.88" stroke-dasharray="41.361" stroke-dashoffset="41.361"><animate attributeName="stroke-dashoffset" values="41.361;41.361;0" dur="0.414s" fill="freeze" begin="0s;30d4.click" /></path><path d="M31,17.62c1.38,1.26,1.88,3.38,1.88,6.13c0,2.75-0.88,44-0.88,47.25c0,9.75,4,14.62,13.75,14.62c6,0,16.38,0.12,21.38,0c5-0.12,9.5-0.62,13.5-1.5" stroke-dasharray="112.017" stroke-dashoffset="112.017"><animate attributeName="stroke-dashoffset" values="112.017" fill="freeze" begin="30d4.click" /><animate attributeName="stroke-dashoffset" values="112.017;112.017;0" keyTimes="0;0.33;1" dur="1.256s" fill="freeze" begin="0s;30d4.click" /></path><path d="M83,32.88c-9.62,0-9.25-14.25,0-14.25c9.76-0.01,9.5,14.25,0,14.25" stroke-dasharray="45.277" stroke-dashoffset="45.277"><animate attributeName="stroke-dashoffset" values="45.277" fill="freeze" begin="30d4.click" /><animate attributeName="stroke-dashoffset" values="45.277;45.277;0" keyTimes="0;0.735;1" dur="1.709s" fill="freeze" begin="0s;30d4.click" /></path></g></svg>