<svg xmlns="http://www.w3.org/2000/svg" width="109" height="109" viewBox="0 0 109 109" id="30d9"><g fill="none" stroke="#666" stroke-width="9" stroke-linecap="round" stroke-linejoin="round"><g><path d="M15.5,49c2.75,1.5,5.33,0.62,6.88-0.88c4-3.88,9.38-8.5,11.88-11c3.12-3.12,7.23-5.08,11.87-1.12c11.13,9.5,26.25,22.5,36.87,31.12c4.23,3.43,7.62,6.62,11.12,9.25" /><path d="M66.88,27c2.75,1.75,6,5.38,7.75,8.5" /><path d="M73.26,22.12c3.06,1.57,6.68,4.82,8.62,7.62" /></g></g><g fill="none" stroke="#000" stroke-width="5" stroke-linecap="round" stroke-linejoin="round"><g><path d="M15.5,49c2.75,1.5,5.33,0.62,6.88-0.88c4-3.88,9.38-8.5,11.88-11c3.12-3.12,7.23-5.08,11.87-1.12c11.13,9.5,26.25,22.5,36.87,31.12c4.23,3.43,7.62,6.62,11.12,9.25" stroke-dasharray="99.79" stroke-dashoffset="99.79"><animate id="0" attributeName="stroke-dashoffset" values="99.79;0" dur="0.75s" fill="freeze" begin="0s;30d9.click" /></path><path d="M66.88,27c2.75,1.75,6,5.38,7.75,8.5" stroke-dasharray="11.6" stroke-dashoffset="11.6"><animate attributeName="stroke-dashoffset" values="11.6" fill="freeze" begin="30d9.click" /><animate id="1" attributeName="stroke-dashoffset" values="11.6;0" dur="0.12s" fill="freeze" begin="0.end" /></path><path d="M73.26,22.12c3.06,1.57,6.68,4.82,8.62,7.62" stroke-dasharray="11.6" stroke-dashoffset="11.6"><animate attributeName="stroke-dashoffset" values="11.6" fill="freeze" begin="30d9.click" /><animate id="2" attributeName="stroke-dashoffset" values="11.6;0" dur="0.12s" fill="freeze" begin="1.end" /></path></g></g></svg>