<svg xmlns="http://www.w3.org/2000/svg" width="109" height="109" viewBox="0 0 109 109" id="30da"><g fill="none" stroke="#666" stroke-width="9" stroke-linecap="round" stroke-linejoin="round"><g><path d="M15.5,49.25c2.75,1.5,5.33,0.62,6.88-0.88c4-3.88,9.12-8.75,11.62-11.25c3.12-3.12,7.23-5.08,11.87-1.12c11.13,9.5,26.25,22,36.87,30.62c4.23,3.43,7.62,6.62,11.12,9.25" /><path d="M72.74,36.12c-9.62,0-9.25-14.25,0-14.25c9.76,0.01,9.5,14.25,0,14.25" /></g></g><g fill="none" stroke="#000" stroke-width="5" stroke-linecap="round" stroke-linejoin="round"><g><path d="M15.5,49.25c2.75,1.5,5.33,0.62,6.88-0.88c4-3.88,9.12-8.75,11.62-11.25c3.12-3.12,7.23-5.08,11.87-1.12c11.13,9.5,26.25,22,36.87,30.62c4.23,3.43,7.62,6.62,11.12,9.25" stroke-dasharray="99.45" stroke-dashoffset="99.45"><animate id="0" attributeName="stroke-dashoffset" values="99.45;0" dur="0.75s" fill="freeze" begin="0s;30da.click" /></path><path d="M72.74,36.12c-9.62,0-9.25-14.25,0-14.25c9.76,0.01,9.5,14.25,0,14.25" stroke-dasharray="45.27" stroke-dashoffset="45.27"><animate attributeName="stroke-dashoffset" values="45.27" fill="freeze" begin="30da.click" /><animate id="1" attributeName="stroke-dashoffset" values="45.27;0" dur="0.45s" fill="freeze" begin="0.end" /></path></g></g></svg>