<svg xmlns="http://www.w3.org/2000/svg" width="109" height="109" viewBox="0 0 109 109" id="30dc"><g fill="none" stroke="#666" stroke-width="9" stroke-linecap="round" stroke-linejoin="round"><g><path d="M22.63,40.38c2.62,1,4.75,1.71,9.12,1.25c17.75-1.88,29.25-2.75,45.38-3.88c3.74-0.26,7.38-0.12,11.12,0.62" /><path d="M53.75,17.12c1.38,1.88,1.38,4.5,1.38,7.38c0,2.88-0.12,46.62-0.12,51.88c0,23.12-6.25,11.25-9.75,9.62" /><path d="M27.38,59.38c0.5,9.25-1.38,16.62-6.38,21.88" /><path d="M73.51,53c10.87,9.62,15.5,17.62,16.62,24.88" /><path d="M72.63,17.5c2.75,1.75,6,5.38,7.75,8.5" /><path d="M79.01,12.62c3.06,1.57,6.68,4.82,8.62,7.62" /></g></g><g fill="none" stroke="#000" stroke-width="5" stroke-linecap="round" stroke-linejoin="round"><g><path d="M22.63,40.38c2.62,1,4.75,1.71,9.12,1.25c17.75-1.88,29.25-2.75,45.38-3.88c3.74-0.26,7.38-0.12,11.12,0.62" stroke-dasharray="66.04" stroke-dashoffset="66.04"><animate id="0" attributeName="stroke-dashoffset" values="66.04;0" dur="0.5s" fill="freeze" begin="0s;30dc.click" /></path><path d="M53.75,17.12c1.38,1.88,1.38,4.5,1.38,7.38c0,2.88-0.12,46.62-0.12,51.88c0,23.12-6.25,11.25-9.75,9.62" stroke-dasharray="82.77" stroke-dashoffset="82.77"><animate attributeName="stroke-dashoffset" values="82.77" fill="freeze" begin="30dc.click" /><animate id="1" attributeName="stroke-dashoffset" values="82.77;0" dur="0.62s" fill="freeze" begin="0.end" /></path><path d="M27.38,59.38c0.5,9.25-1.38,16.62-6.38,21.88" stroke-dasharray="23.46" stroke-dashoffset="23.46"><animate attributeName="stroke-dashoffset" values="23.46" fill="freeze" begin="30dc.click" /><animate id="2" attributeName="stroke-dashoffset" values="23.46;0" dur="0.23s" fill="freeze" begin="1.end" /></path><path d="M73.51,53c10.87,9.62,15.5,17.62,16.62,24.88" stroke-dasharray="30.51" stroke-dashoffset="30.51"><animate attributeName="stroke-dashoffset" values="30.51" fill="freeze" begin="30dc.click" /><animate id="3" attributeName="stroke-dashoffset" values="30.51;0" dur="0.31s" fill="freeze" begin="2.end" /></path><path d="M72.63,17.5c2.75,1.75,6,5.38,7.75,8.5" stroke-dasharray="11.6" stroke-dashoffset="11.6"><animate attributeName="stroke-dashoffset" values="11.6" fill="freeze" begin="30dc.click" /><animate id="4" attributeName="stroke-dashoffset" values="11.6;0" dur="0.12s" fill="freeze" begin="3.end" /></path><path d="M79.01,12.62c3.06,1.57,6.68,4.82,8.62,7.62" stroke-dasharray="11.6" stroke-dashoffset="11.6"><animate attributeName="stroke-dashoffset" values="11.6" fill="freeze" begin="30dc.click" /><animate id="5" attributeName="stroke-dashoffset" values="11.6;0" dur="0.12s" fill="freeze" begin="4.end" /></path></g></g></svg>