<svg xmlns="http://www.w3.org/2000/svg" width="109" height="109" viewBox="0 0 109 109" id="30e3"><g fill="none" stroke="#666" stroke-width="9" stroke-linecap="round" stroke-linejoin="round"><g><path d="M25,56.25c1.67,1.28,4.84,1.85,7.96,1.08c14.85-3.64,26.27-6.16,38.45-9.34c17.31-4.52,1.18,11.21-2.16,15.73" /><path d="M41.1,35.5c1.3,1.1,2,2.1,2.5,4.1c0.5,2,9.4,41.62,9.9,43.72c0.5,2.1,1.7,7.2,2.4,9.8" /></g></g><g fill="none" stroke="#000" stroke-width="5" stroke-linecap="round" stroke-linejoin="round"><g><path d="M25,56.25c1.67,1.28,4.84,1.85,7.96,1.08c14.85-3.64,26.27-6.16,38.45-9.34c17.31-4.52,1.18,11.21-2.16,15.73" stroke-dasharray="74.763" stroke-dashoffset="74.763"><animate attributeName="stroke-dashoffset" values="74.763;74.763;0" dur="0.562s" fill="freeze" begin="0s;30e3.click" /></path><path d="M41.1,35.5c1.3,1.1,2,2.1,2.5,4.1c0.5,2,9.4,41.62,9.9,43.72c0.5,2.1,1.7,7.2,2.4,9.8" stroke-dasharray="59.818" stroke-dashoffset="59.818"><animate attributeName="stroke-dashoffset" values="59.818" fill="freeze" begin="30e3.click" /><animate attributeName="stroke-dashoffset" values="59.818;59.818;0" keyTimes="0;0.484;1" dur="1.16s" fill="freeze" begin="0s;30e3.click" /></path></g></g></svg>