<svg xmlns="http://www.w3.org/2000/svg" width="109" height="109" viewBox="0 0 109 109" id="30eb"><g fill="none" stroke="#666" stroke-width="6" stroke-linecap="round" stroke-linejoin="round"><g><path d="M34.38,31.88c1.12,1.5,1.72,3,1.62,4.88c-1.12,22.88-8.88,40.62-17.5,49.5" /><path d="M56.51,19.62c1.5,1.25,2.38,3.12,2.38,5.38c0,2.26-0.12,47.62-0.12,51.62c0,10.5,0.52,10.21,9.38,2.75c9.5-8,16.5-14.62,26.38-25.62" /></g></g><g fill="none" stroke="#000" stroke-width="3" stroke-linecap="round" stroke-linejoin="round"><path d="M34.38,31.88c1.12,1.5,1.72,3,1.62,4.88c-1.12,22.88-8.88,40.62-17.5,49.5" stroke-dasharray="58.785" stroke-dashoffset="58.785"><animate attributeName="stroke-dashoffset" values="58.785;58.785;0" dur="0.588s" fill="freeze" begin="0s;30eb.click" /></path><path d="M56.51,19.62c1.5,1.25,2.38,3.12,2.38,5.38c0,2.26-0.12,47.62-0.12,51.62c0,10.5,0.52,10.21,9.38,2.75c9.5-8,16.5-14.62,26.38-25.62" stroke-dasharray="112.853" stroke-dashoffset="112.853"><animate attributeName="stroke-dashoffset" values="112.853" fill="freeze" begin="30eb.click" /><animate attributeName="stroke-dashoffset" values="112.853;112.853;0" keyTimes="0;0.409;1" dur="1.437s" fill="freeze" begin="0s;30eb.click" /></path></g></svg>