<svg xmlns="http://www.w3.org/2000/svg" width="109" height="109" viewBox="0 0 109 109" id="30f8"><g fill="none" stroke="#666" stroke-width="9" stroke-linecap="round" stroke-linejoin="round"><g><path d="M28.12,35c3,1.25,5.87,1.17,8.75,0.88c14.88-1.5,25.25-2.5,40.25-4c3.73-0.37,6.88,0,8.88,0.38" /><path d="M38.62,38.88c1,1.38,1.22,2.75,1.12,4.38c-0.5,8.25-1.12,15.12-1.5,20" /><path d="M18,65.25c2.5,0.88,5.25,1.03,8.62,0.5c23-3.62,38.88-5.12,57.25-5.5c4.76-0.1,8.75,0.5,12,1.62" /><path d="M60.12,14.38c2,1.62,2.75,3.5,2.75,6.12c0,2.62,0,56,0,59.38c0,3.38,0,10.62,0,13.88" /><path d="M84.24,13.25c2.75,1.75,6,5.38,7.75,8.5" /><path d="M90.62,8.38c3.06,1.57,6.68,4.82,8.62,7.62" /></g></g><g fill="none" stroke="#000" stroke-width="5" stroke-linecap="round" stroke-linejoin="round"><g><path d="M28.12,35c3,1.25,5.87,1.17,8.75,0.88c14.88-1.5,25.25-2.5,40.25-4c3.73-0.37,6.88,0,8.88,0.38" stroke-dasharray="58.26" stroke-dashoffset="58.26"><animate id="0" attributeName="stroke-dashoffset" values="58.26;0" dur="0.58s" fill="freeze" begin="0s;30f8.click" /></path><path d="M38.62,38.88c1,1.38,1.22,2.75,1.12,4.38c-0.5,8.25-1.12,15.12-1.5,20" stroke-dasharray="24.68" stroke-dashoffset="24.68"><animate attributeName="stroke-dashoffset" values="24.68" fill="freeze" begin="30f8.click" /><animate id="1" attributeName="stroke-dashoffset" values="24.68;0" dur="0.25s" fill="freeze" begin="0.end" /></path><path d="M18,65.25c2.5,0.88,5.25,1.03,8.62,0.5c23-3.62,38.88-5.12,57.25-5.5c4.76-0.1,8.75,0.5,12,1.62" stroke-dasharray="78.46" stroke-dashoffset="78.46"><animate attributeName="stroke-dashoffset" values="78.46" fill="freeze" begin="30f8.click" /><animate id="2" attributeName="stroke-dashoffset" values="78.46;0" dur="0.59s" fill="freeze" begin="1.end" /></path><path d="M60.12,14.38c2,1.62,2.75,3.5,2.75,6.12c0,2.62,0,56,0,59.38c0,3.38,0,10.62,0,13.88" stroke-dasharray="80.23" stroke-dashoffset="80.23"><animate attributeName="stroke-dashoffset" values="80.23" fill="freeze" begin="30f8.click" /><animate id="3" attributeName="stroke-dashoffset" values="80.23;0" dur="0.6s" fill="freeze" begin="2.end" /></path><path d="M84.24,13.25c2.75,1.75,6,5.38,7.75,8.5" stroke-dasharray="11.6" stroke-dashoffset="11.6"><animate attributeName="stroke-dashoffset" values="11.6" fill="freeze" begin="30f8.click" /><animate id="4" attributeName="stroke-dashoffset" values="11.6;0" dur="0.12s" fill="freeze" begin="3.end" /></path><path d="M90.62,8.38c3.06,1.57,6.68,4.82,8.62,7.62" stroke-dasharray="11.6" stroke-dashoffset="11.6"><animate attributeName="stroke-dashoffset" values="11.6" fill="freeze" begin="30f8.click" /><animate id="5" attributeName="stroke-dashoffset" values="11.6;0" dur="0.12s" fill="freeze" begin="4.end" /></path></g></g></svg>