<svg xmlns="http://www.w3.org/2000/svg" width="109" height="109" viewBox="0 0 109 109" id="4e1e"><g fill="none" stroke="#666" stroke-width="9" stroke-linecap="round" stroke-linejoin="round"><g><g><g><path d="M30.54,19.18c2.46,1.15,5.67,1.53,8.34,1.19c9.87-1.25,23.37-3.75,30.15-4.62c2.2-0.28,4.11,1.88,2.05,3.94C67,23.75,57.35,32.02,51.57,36.3" /><g><path d="M48.53,37.14C57,43.5,60.75,63.75,53.66,78.75c-3.42,7.24-5.53,0.75-7-1.96" /></g></g><g p5:partial xmlns:p5="http://kanjivg.tagaini.net"><path d="M21.5,53c1.5,0.25,3.2,0.32,4.75,0c3-0.62,8.59-2.75,11.09-3.75s4.5,1.25,3.75,3.5C39.34,58,29.38,74.5,19.5,81" /><path d="M79.26,40.5c-0.14,1-0.47,1.92-1.1,2.62c-3.41,3.76-6.03,6.01-11.91,9.63" /><path d="M55.75,46.75c6.74,8.16,17.48,17.94,25.33,25.19C84,74.62,86,75.88,89,77.25" /></g></g><g><path d="M15.25,92.14c3.53,1.17,7.6,1,11.23,0.71c15.62-1.26,40.03-2.49,55.64-2.85c4.24-0.1,8.47,0.03,12.62,0.86" /></g></g></g><g fill="none" stroke="#000" stroke-width="5" stroke-linecap="round" stroke-linejoin="round"><path d="M30.54,19.18c2.46,1.15,5.67,1.53,8.34,1.19c9.87-1.25,23.37-3.75,30.15-4.62c2.2-0.28,4.11,1.88,2.05,3.94C67,23.75,57.35,32.02,51.57,36.3" stroke-dasharray="70.823" stroke-dashoffset="70.823"><animate attributeName="stroke-dashoffset" values="70.823;70.823;0" dur="0.533s" fill="freeze" begin="0s;4e1e.click" /></path><path d="M48.53,37.14C57,43.5,60.75,63.75,53.66,78.75c-3.42,7.24-5.53,0.75-7-1.96" stroke-dasharray="56.067" stroke-dashoffset="56.067"><animate attributeName="stroke-dashoffset" values="56.067" fill="freeze" begin="4e1e.click" /><animate attributeName="stroke-dashoffset" values="56.067;56.067;0" keyTimes="0;0.487;1" dur="1.094s" fill="freeze" begin="0s;4e1e.click" /></path><path d="M21.5,53c1.5,0.25,3.2,0.32,4.75,0c3-0.62,8.59-2.75,11.09-3.75s4.5,1.25,3.75,3.5C39.34,58,29.38,74.5,19.5,81" stroke-dasharray="58.992" stroke-dashoffset="58.992"><animate attributeName="stroke-dashoffset" values="58.992" fill="freeze" begin="4e1e.click" /><animate attributeName="stroke-dashoffset" values="58.992;58.992;0" keyTimes="0;0.65;1" dur="1.684s" fill="freeze" begin="0s;4e1e.click" /></path><path d="M79.26,40.5c-0.14,1-0.47,1.92-1.1,2.62c-3.41,3.76-6.03,6.01-11.91,9.63" stroke-dasharray="18.266" stroke-dashoffset="18.266"><animate attributeName="stroke-dashoffset" values="18.266" fill="freeze" begin="4e1e.click" /><animate attributeName="stroke-dashoffset" values="18.266;18.266;0" keyTimes="0;0.902;1" dur="1.867s" fill="freeze" begin="0s;4e1e.click" /></path><path d="M55.75,46.75c6.74,8.16,17.48,17.94,25.33,25.19C84,74.62,86,75.88,89,77.25" stroke-dasharray="45.333" stroke-dashoffset="45.333"><animate attributeName="stroke-dashoffset" values="45.333" fill="freeze" begin="4e1e.click" /><animate attributeName="stroke-dashoffset" values="45.333;45.333;0" keyTimes="0;0.805;1" dur="2.32s" fill="freeze" begin="0s;4e1e.click" /></path><path d="M15.25,92.14c3.53,1.17,7.6,1,11.23,0.71c15.62-1.26,40.03-2.49,55.64-2.85c4.24-0.1,8.47,0.03,12.62,0.86" stroke-dasharray="79.723" stroke-dashoffset="79.723"><animate attributeName="stroke-dashoffset" values="79.723" fill="freeze" begin="4e1e.click" /><animate attributeName="stroke-dashoffset" values="79.723;79.723;0" keyTimes="0;0.795;1" dur="2.919s" fill="freeze" begin="0s;4e1e.click" /></path></g></svg>