<svg xmlns="http://www.w3.org/2000/svg" viewBox="0 0 109 109" id="4e2d"><g fill="none" stroke="#666" stroke-width="6" stroke-linecap="round" stroke-linejoin="round"><g><g><path d="M19.89,36.87c1,1,1.74,2.25,2.01,3.65c1.13,5.71,2.58,13.06,4.17,22.97c0.27,1.68,0.55,4.43,0.83,6.26" /><path d="M23.33,39.51C37.12,37.62,70.88,34,84,33.24c4.38-0.25,6,1.14,5.12,4.42c-1.53,5.7-5.61,20.18-6.12,22.09" /><path d="M27.74,64.84C40.12,63.62,61.86,62.2,79,60.77c2.36-0.2,5.75-0.27,7.25-0.27" /></g><g><path d="M52.5,11.5c1.44,1.44,2.25,3.5,2.25,5.06c0,0.9,0.06,56.6-0.15,76.69c-0.03,3.3-0.07,5.6-0.1,6.5" /></g></g></g><g fill="none" stroke="#000" stroke-width="3" stroke-linecap="round" stroke-linejoin="round"><path d="M19.89,36.87c1,1,1.74,2.25,2.01,3.65c1.13,5.71,2.58,13.06,4.17,22.97c0.27,1.68,0.55,4.43,0.83,6.26" stroke-dasharray="33.892" stroke-dashoffset="33.892"><animate attributeName="stroke-dashoffset" values="33.892;33.892;0" dur="0.339s" fill="freeze" begin="0s;4e2d.click" /></path><path d="M23.33,39.51C37.12,37.62,70.88,34,84,33.24c4.38-0.25,6,1.14,5.12,4.42c-1.53,5.7-5.61,20.18-6.12,22.09" stroke-dasharray="92.436" stroke-dashoffset="92.436"><animate attributeName="stroke-dashoffset" values="92.436" fill="freeze" begin="4e2d.click" /><animate attributeName="stroke-dashoffset" values="92.436;92.436;0" keyTimes="0;0.328;1" dur="1.034s" fill="freeze" begin="0s;4e2d.click" /></path><path d="M27.74,64.84C40.12,63.62,61.86,62.2,79,60.77c2.36-0.2,5.75-0.27,7.25-0.27" stroke-dasharray="58.68" stroke-dashoffset="58.68"><animate attributeName="stroke-dashoffset" values="58.68" fill="freeze" begin="4e2d.click" /><animate attributeName="stroke-dashoffset" values="58.68;58.68;0" keyTimes="0;0.638;1" dur="1.621s" fill="freeze" begin="0s;4e2d.click" /></path><path d="M52.5,11.5c1.44,1.44,2.25,3.5,2.25,5.06c0,0.9,0.06,56.6-0.15,76.69c-0.03,3.3-0.07,5.6-0.1,6.5" stroke-dasharray="88.859" stroke-dashoffset="88.859"><animate attributeName="stroke-dashoffset" values="88.859" fill="freeze" begin="4e2d.click" /><animate attributeName="stroke-dashoffset" values="88.859;88.859;0" keyTimes="0;0.708;1" dur="2.289s" fill="freeze" begin="0s;4e2d.click" /></path></g></svg>