<svg xmlns="http://www.w3.org/2000/svg" viewBox="0 0 109 109" id="4e3b"><g fill="none" stroke="#666" stroke-width="6" stroke-linecap="round" stroke-linejoin="round"><g><g><g><path d="M42.5,14.38c4.89,1.83,12.09,6.99,13.31,9.84" /></g></g><g p4:partial xmlns:p4="http://kanjivg.tagaini.net"><g><path d="M25,39.36c2.59,0.85,5.96,0.5,8.63,0.17c12.89-1.59,25.99-4.01,39.63-4.75c2.53-0.14,5.01-0.11,7.5,0.43" /></g><path d="M52.75,39.83c1.27,1.27,1.75,2.83,1.75,3.75c0,6.41,0.25,38.3,0.25,45.17" /><path d="M27.75,64.82c2,0.43,4.84,0.43,6.88,0.16c11.12-1.48,25.35-3.34,36.62-4.26c2.68-0.22,5.88-0.34,8.13,0.14" /><path d="M15.5,92.76c2.69,0.62,6.06,0.7,8.22,0.5c17.03-1.51,42.29-5.39,60.96-5.3c3.48,0.02,6.58,0.24,8.33,0.69" /></g></g></g><g fill="none" stroke="#000" stroke-width="3" stroke-linecap="round" stroke-linejoin="round"><path d="M42.5,14.38c4.89,1.83,12.09,6.99,13.31,9.84" stroke-dasharray="16.798" stroke-dashoffset="16.798"><animate attributeName="stroke-dashoffset" values="16.798;16.798;0" dur="0.168s" fill="freeze" begin="0s;4e3b.click" /></path><path d="M25,39.36c2.59,0.85,5.96,0.5,8.63,0.17c12.89-1.59,25.99-4.01,39.63-4.75c2.53-0.14,5.01-0.11,7.5,0.43" stroke-dasharray="56.161" stroke-dashoffset="56.161"><animate attributeName="stroke-dashoffset" values="56.161" fill="freeze" begin="4e3b.click" /><animate attributeName="stroke-dashoffset" values="56.161;56.161;0" keyTimes="0;0.23;1" dur="0.73s" fill="freeze" begin="0s;4e3b.click" /></path><path d="M52.75,39.83c1.27,1.27,1.75,2.83,1.75,3.75c0,6.41,0.25,38.3,0.25,45.17" stroke-dasharray="49.405" stroke-dashoffset="49.405"><animate attributeName="stroke-dashoffset" values="49.405" fill="freeze" begin="4e3b.click" /><animate attributeName="stroke-dashoffset" values="49.405;49.405;0" keyTimes="0;0.596;1" dur="1.224s" fill="freeze" begin="0s;4e3b.click" /></path><path d="M27.75,64.82c2,0.43,4.84,0.43,6.88,0.16c11.12-1.48,25.35-3.34,36.62-4.26c2.68-0.22,5.88-0.34,8.13,0.14" stroke-dasharray="51.938" stroke-dashoffset="51.938"><animate attributeName="stroke-dashoffset" values="51.938" fill="freeze" begin="4e3b.click" /><animate attributeName="stroke-dashoffset" values="51.938;51.938;0" keyTimes="0;0.702;1" dur="1.743s" fill="freeze" begin="0s;4e3b.click" /></path><path d="M15.5,92.76c2.69,0.62,6.06,0.7,8.22,0.5c17.03-1.51,42.29-5.39,60.96-5.3c3.48,0.02,6.58,0.24,8.33,0.69" stroke-dasharray="77.86" stroke-dashoffset="77.86"><animate attributeName="stroke-dashoffset" values="77.86" fill="freeze" begin="4e3b.click" /><animate attributeName="stroke-dashoffset" values="77.86;77.86;0" keyTimes="0;0.749;1" dur="2.328s" fill="freeze" begin="0s;4e3b.click" /></path></g></svg>