<svg xmlns="http://www.w3.org/2000/svg" viewBox="0 0 109 109" id="4e3c"><g fill="none" stroke="#666" stroke-width="6" stroke-linecap="round" stroke-linejoin="round"><g><g><g><path d="M24.5,37.4c1.02,0.37,2.89,0.47,3.9,0.37c10.6-1.02,45.1-4.27,55.53-4.76c1.7-0.08,2.72,0.18,3.57,0.36" /></g><g><g><g><path d="M16.25,63.7c1.52,0.54,4.3,0.58,5.82,0.54C33,64,72.76,59.92,87.69,59.01C92,58.75,93.75,59,95.5,59.54" /></g></g><g><path d="M38.98,19.25c0.76,0.97,1.27,1.94,1.52,2.91c0.25,0.97,0.25,30.53,0.25,32.71c0,21.56-7.85,36.1-19.5,42.88" /></g><g><path d="M67.37,11.75c1.09,0.5,1.74,2.25,1.96,3.25c0.22,1,0,78.75-0.22,85" /></g></g></g><g><path d="M50,43.5c3,1.76,7.75,7.26,8.5,10" /></g></g></g><g fill="none" stroke="#000" stroke-width="3" stroke-linecap="round" stroke-linejoin="round"><path d="M24.5,37.4c1.02,0.37,2.89,0.47,3.9,0.37c10.6-1.02,45.1-4.27,55.53-4.76c1.7-0.08,2.72,0.18,3.57,0.36" stroke-dasharray="63.279" stroke-dashoffset="63.279"><animate attributeName="stroke-dashoffset" values="63.279;63.279;0" dur="0.476s" fill="freeze" begin="0s;4e3c.click" /></path><path d="M16.25,63.7c1.52,0.54,4.3,0.58,5.82,0.54C33,64,72.76,59.92,87.69,59.01C92,58.75,93.75,59,95.5,59.54" stroke-dasharray="79.578" stroke-dashoffset="79.578"><animate attributeName="stroke-dashoffset" values="79.578" fill="freeze" begin="4e3c.click" /><animate attributeName="stroke-dashoffset" values="79.578;79.578;0" keyTimes="0;0.443;1" dur="1.074s" fill="freeze" begin="0s;4e3c.click" /></path><path d="M38.98,19.25c0.76,0.97,1.27,1.94,1.52,2.91c0.25,0.97,0.25,30.53,0.25,32.71c0,21.56-7.85,36.1-19.5,42.88" stroke-dasharray="85.349" stroke-dashoffset="85.349"><animate attributeName="stroke-dashoffset" values="85.349" fill="freeze" begin="4e3c.click" /><animate attributeName="stroke-dashoffset" values="85.349;85.349;0" keyTimes="0;0.626;1" dur="1.716s" fill="freeze" begin="0s;4e3c.click" /></path><path d="M67.37,11.75c1.09,0.5,1.74,2.25,1.96,3.25c0.22,1,0,78.75-0.22,85" stroke-dasharray="88.912" stroke-dashoffset="88.912"><animate attributeName="stroke-dashoffset" values="88.912" fill="freeze" begin="4e3c.click" /><animate attributeName="stroke-dashoffset" values="88.912;88.912;0" keyTimes="0;0.719;1" dur="2.385s" fill="freeze" begin="0s;4e3c.click" /></path><path d="M50,43.5c3,1.76,7.75,7.26,8.5,10" stroke-dasharray="13.309" stroke-dashoffset="13.309"><animate attributeName="stroke-dashoffset" values="13.309" fill="freeze" begin="4e3c.click" /><animate attributeName="stroke-dashoffset" values="13.309;13.309;0" keyTimes="0;0.9;1" dur="2.651s" fill="freeze" begin="0s;4e3c.click" /></path></g></svg>