<svg xmlns="http://www.w3.org/2000/svg" width="109" height="109" viewBox="0 0 109 109" id="4e43"><g fill="none" stroke="#666" stroke-width="9" stroke-linecap="round" stroke-linejoin="round"><g><g><path d="M48.15,24.18c0.6,1.32,0.75,3.4,0.3,5.55C45.14,45.7,37.25,68.75,13.14,85.9" /></g><path d="M29.75,21c3.21,1.38,6.92,0.67,10.25,0.34c12.1-1.19,26.2-2.61,37.61-4.12c4.03-0.54,6.86,0.6,4.79,4.85C66.25,55.25,60.88,49.75,87.76,44.8c4.26-0.78,4.9,1.32,3.77,4.96C88.08,60.95,82.68,77,74.85,87.2c-4.01,5.23-9.32,8.85-13.35,1.8" /></g></g><g fill="none" stroke="#000" stroke-width="5" stroke-linecap="round" stroke-linejoin="round"><g><g><path d="M48.15,24.18c0.6,1.32,0.75,3.4,0.3,5.55C45.14,45.7,37.25,68.75,13.14,85.9" stroke-dasharray="73.67" stroke-dashoffset="73.67"><animate id="0" attributeName="stroke-dashoffset" values="73.67;0" dur="0.55s" fill="freeze" begin="0s;4e43.click" /></path></g><path d="M29.75,21c3.21,1.38,6.92,0.67,10.25,0.34c12.1-1.19,26.2-2.61,37.61-4.12c4.03-0.54,6.86,0.6,4.79,4.85C66.25,55.25,60.88,49.75,87.76,44.8c4.26-0.78,4.9,1.32,3.77,4.96C88.08,60.95,82.68,77,74.85,87.2c-4.01,5.23-9.32,8.85-13.35,1.8" stroke-dasharray="173.12" stroke-dashoffset="173.12"><animate attributeName="stroke-dashoffset" values="173.12" fill="freeze" begin="4e43.click" /><animate id="1" attributeName="stroke-dashoffset" values="173.12;0" dur="1.3s" fill="freeze" begin="0.end" /></path></g></g></svg>