<svg xmlns="http://www.w3.org/2000/svg" width="109" height="109" viewBox="0 0 109 109" id="4e7e"><g fill="none" stroke="#666" stroke-width="9" stroke-linecap="round" stroke-linejoin="round"><g><g><g><path d="M13.77,28.16c1.98,0.22,3.25,0.14,4.75-0.05c6.93-0.88,17.27-2.67,23.1-3.29c1.54-0.16,3.09-0.29,4.62,0.04" /><path d="M29.87,13.38c0.81,0.81,1.06,1.99,1.06,3.23c0,3.14-0.06,10.76-0.06,22.01" /></g><g><g><path d="M14.08,41.56c0.68,0.68,1.05,1.69,1.43,3.25c0.3,1.21,1.41,9.29,2.41,15.83c0.24,1.57,0.48,3.06,0.69,4.34" /><path d="M16.08,42.31c6.23-1.27,19.69-3.79,25.9-4.45c4.53-0.49,4.96,1.36,4.3,5.4c-0.54,3.29-1.45,9.03-2.23,13.5c-0.29,1.64-0.59,3.18-0.91,4.48" /><path d="M18.53,52.12C26,51,37.75,48.88,44.31,48.47" /><path d="M19.91,61.93c8.34-1.18,15.84-2.68,22.92-3.06" /></g><g><path d="M10.92,77.63c1.96,0.69,4.21,0.29,6.21,0.02c7.48-1,18.52-3.32,25.62-3.78c1.86-0.12,4-0.39,5.83-0.01" /><path d="M30.49,63.35c0.77,0.77,1.18,1.9,1.18,3.35c0,0.59,0,16.08-0.05,25.3c-0.01,2.73-0.03,4.92-0.04,6" /></g></g></g><g><g><path d="M66.75,14.5c0.25,1-0.04,2.41-0.33,3.23C63.25,27,59.25,35.38,51.5,45.5" /><path d="M63,34.07c1.12,0.05,2.33-0.06,3.3-0.14c4.88-0.38,9.55-2.13,16.12-3.46c1.9-0.38,3.42-0.44,5.33-0.13" /></g><g><path d="M53.75,55.59c2.12,0.53,3.99,0.44,5.53,0.04c4.61-1.2,12.12-3.17,13.54-3.63c1.93-0.62,2.9,0.85,1.57,2.45C66.25,64.25,61,73,59.67,81.88c-1.32,8.86,1.08,12.9,19.33,12.9c14.5,0,17.09-1.03,17.09-7.6" /></g></g></g></g><g fill="none" stroke="#000" stroke-width="5" stroke-linecap="round" stroke-linejoin="round"><g><g><g><path d="M13.77,28.16c1.98,0.22,3.25,0.14,4.75-0.05c6.93-0.88,17.27-2.67,23.1-3.29c1.54-0.16,3.09-0.29,4.62,0.04" stroke-dasharray="32.74" stroke-dashoffset="32.74"><animate id="0" attributeName="stroke-dashoffset" values="32.74;0" dur="0.33s" fill="freeze" begin="0s;4e7e.click" /></path><path d="M29.87,13.38c0.81,0.81,1.06,1.99,1.06,3.23c0,3.14-0.06,10.76-0.06,22.01" stroke-dasharray="25.5" stroke-dashoffset="25.5"><animate attributeName="stroke-dashoffset" values="25.5" fill="freeze" begin="4e7e.click" /><animate id="1" attributeName="stroke-dashoffset" values="25.5;0" dur="0.26s" fill="freeze" begin="0.end" /></path></g><g><g><path d="M14.08,41.56c0.68,0.68,1.05,1.69,1.43,3.25c0.3,1.21,1.41,9.29,2.41,15.83c0.24,1.57,0.48,3.06,0.69,4.34" stroke-dasharray="24" stroke-dashoffset="24"><animate attributeName="stroke-dashoffset" values="24" fill="freeze" begin="4e7e.click" /><animate id="2" attributeName="stroke-dashoffset" values="24;0" dur="0.24s" fill="freeze" begin="1.end" /></path><path d="M16.08,42.31c6.23-1.27,19.69-3.79,25.9-4.45c4.53-0.49,4.96,1.36,4.3,5.4c-0.54,3.29-1.45,9.03-2.23,13.5c-0.29,1.64-0.59,3.18-0.91,4.48" stroke-dasharray="53.46" stroke-dashoffset="53.46"><animate attributeName="stroke-dashoffset" values="53.46" fill="freeze" begin="4e7e.click" /><animate id="3" attributeName="stroke-dashoffset" values="53.46;0" dur="0.53s" fill="freeze" begin="2.end" /></path><path d="M18.53,52.12C26,51,37.75,48.88,44.31,48.47" stroke-dasharray="26.04" stroke-dashoffset="26.04"><animate attributeName="stroke-dashoffset" values="26.04" fill="freeze" begin="4e7e.click" /><animate id="4" attributeName="stroke-dashoffset" values="26.04;0" dur="0.26s" fill="freeze" begin="3.end" /></path><path d="M19.91,61.93c8.34-1.18,15.84-2.68,22.92-3.06" stroke-dasharray="23.13" stroke-dashoffset="23.13"><animate attributeName="stroke-dashoffset" values="23.13" fill="freeze" begin="4e7e.click" /><animate id="5" attributeName="stroke-dashoffset" values="23.13;0" dur="0.23s" fill="freeze" begin="4.end" /></path></g><g><path d="M10.92,77.63c1.96,0.69,4.21,0.29,6.21,0.02c7.48-1,18.52-3.32,25.62-3.78c1.86-0.12,4-0.39,5.83-0.01" stroke-dasharray="38.03" stroke-dashoffset="38.03"><animate attributeName="stroke-dashoffset" values="38.03" fill="freeze" begin="4e7e.click" /><animate id="6" attributeName="stroke-dashoffset" values="38.03;0" dur="0.38s" fill="freeze" begin="5.end" /></path><path d="M30.49,63.35c0.77,0.77,1.18,1.9,1.18,3.35c0,0.59,0,16.08-0.05,25.3c-0.01,2.73-0.03,4.92-0.04,6" stroke-dasharray="34.95" stroke-dashoffset="34.95"><animate attributeName="stroke-dashoffset" values="34.95" fill="freeze" begin="4e7e.click" /><animate id="7" attributeName="stroke-dashoffset" values="34.95;0" dur="0.35s" fill="freeze" begin="6.end" /></path></g></g></g><g><g><path d="M66.75,14.5c0.25,1-0.04,2.41-0.33,3.23C63.25,27,59.25,35.38,51.5,45.5" stroke-dasharray="34.96" stroke-dashoffset="34.96"><animate attributeName="stroke-dashoffset" values="34.96" fill="freeze" begin="4e7e.click" /><animate id="8" attributeName="stroke-dashoffset" values="34.96;0" dur="0.35s" fill="freeze" begin="7.end" /></path><path d="M63,34.07c1.12,0.05,2.33-0.06,3.3-0.14c4.88-0.38,9.55-2.13,16.12-3.46c1.9-0.38,3.42-0.44,5.33-0.13" stroke-dasharray="25.17" stroke-dashoffset="25.17"><animate attributeName="stroke-dashoffset" values="25.17" fill="freeze" begin="4e7e.click" /><animate id="9" attributeName="stroke-dashoffset" values="25.17;0" dur="0.25s" fill="freeze" begin="8.end" /></path></g><g><path d="M53.75,55.59c2.12,0.53,3.99,0.44,5.53,0.04c4.61-1.2,12.12-3.17,13.54-3.63c1.93-0.62,2.9,0.85,1.57,2.45C66.25,64.25,61,73,59.67,81.88c-1.32,8.86,1.08,12.9,19.33,12.9c14.5,0,17.09-1.03,17.09-7.6" stroke-dasharray="105.32" stroke-dashoffset="105.32"><animate attributeName="stroke-dashoffset" values="105.32" fill="freeze" begin="4e7e.click" /><animate id="10" attributeName="stroke-dashoffset" values="105.32;0" dur="0.79s" fill="freeze" begin="9.end" /></path></g></g></g></g></svg>