<svg xmlns="http://www.w3.org/2000/svg" width="109" height="109" viewBox="0 0 109 109" id="4e95"><g fill="none" stroke="#666" stroke-width="6" stroke-linecap="round" stroke-linejoin="round"><g><g><path d="M23.5,36.9c2.13,0.77,4.95,0.45,7.14,0.16c10.59-1.37,37.06-3.96,49.24-4.82c2.63-0.19,4.81-0.18,7.38,0.38" /></g><g><g><g><path d="M14.25,62.95c3.44,1.23,7.55,0.89,11.12,0.49c12.88-1.44,42.51-4.32,61.11-5.17c3.37-0.15,6.23,0.06,9.52,0.77" /></g></g><g><path d="M40,16.5c0.75,1,0.98,2.47,1,3.5c1.12,55.5-2.38,62-19.25,78.25" /></g><g><path d="M66.62,11.25c0.88,0.88,1.21,2.25,1.21,3.5c0,0.73-0.06,54.49-0.07,77.38c0,3.92,0,6.94,0,8.62" /></g></g></g></g><g fill="none" stroke="#000" stroke-width="3" stroke-linecap="round" stroke-linejoin="round"><path d="M23.5,36.9c2.13,0.77,4.95,0.45,7.14,0.16c10.59-1.37,37.06-3.96,49.24-4.82c2.63-0.19,4.81-0.18,7.38,0.38" stroke-dasharray="64.106" stroke-dashoffset="64.106"><animate attributeName="stroke-dashoffset" values="64.106;64.106;0" dur="0.482s" fill="freeze" begin="0s;4e95.click" /></path><path d="M14.25,62.95c3.44,1.23,7.55,0.89,11.12,0.49c12.88-1.44,42.51-4.32,61.11-5.17c3.37-0.15,6.23,0.06,9.52,0.77" stroke-dasharray="82.145" stroke-dashoffset="82.145"><animate attributeName="stroke-dashoffset" values="82.145" fill="freeze" begin="4e95.click" /><animate attributeName="stroke-dashoffset" values="82.145;82.145;0" keyTimes="0;0.438;1" dur="1.1s" fill="freeze" begin="0s;4e95.click" /></path><path d="M40,16.5c0.75,1,0.98,2.47,1,3.5c1.12,55.5-2.38,62-19.25,78.25" stroke-dasharray="87.601" stroke-dashoffset="87.601"><animate attributeName="stroke-dashoffset" values="87.601" fill="freeze" begin="4e95.click" /><animate attributeName="stroke-dashoffset" values="87.601;87.601;0" keyTimes="0;0.625;1" dur="1.759s" fill="freeze" begin="0s;4e95.click" /></path><path d="M66.62,11.25c0.88,0.88,1.21,2.25,1.21,3.5c0,0.73-0.06,54.49-0.07,77.38c0,3.92,0,6.94,0,8.62" stroke-dasharray="89.798" stroke-dashoffset="89.798"><animate attributeName="stroke-dashoffset" values="89.798" fill="freeze" begin="4e95.click" /><animate attributeName="stroke-dashoffset" values="89.798;89.798;0" keyTimes="0;0.723;1" dur="2.434s" fill="freeze" begin="0s;4e95.click" /></path></g></svg>