<svg xmlns="http://www.w3.org/2000/svg" width="109" height="109" viewBox="0 0 109 109" id="4e99"><g fill="none" stroke="#666" stroke-width="9" stroke-linecap="round" stroke-linejoin="round"><g><g><g><g><path d="M21.5,19.66c1.35,0.29,3.81,0.35,5.15,0.29c12.98-0.54,48.11-3.37,60.89-3.37c2.24,0,3.59,0.14,4.71,0.29" /></g></g></g><g><path d="M44.5,22.25c1,1.5,1.02,4.39,0.5,6.75c-2.5,11.25-12.75,39.5-15.88,48.1" /><path d="M42.75,39.08c8.42-1.26,26.53-2.8,29.44-3.07c3.51-0.32,4.09,1.93,3.29,4.17c-2.97,8.3-5.67,22.4-11.61,51.32" /></g><g><path d="M47.5,50.5c4.24,1.76,10.94,7.25,12,10" /></g><g><path d="M42.5,68.5c4.41,1.76,11.39,7.25,12.5,10" /></g><g><g><g><path d="M13.75,93.25c1.57,0.56,4.44,0.61,6.01,0.56c16.59-0.52,53.82-3.05,70.26-2.27c2.61,0.12,4.18,0.27,5.48,0.55" /></g></g></g></g></g><g fill="none" stroke="#000" stroke-width="5" stroke-linecap="round" stroke-linejoin="round"><g><g><g><g><path d="M21.5,19.66c1.35,0.29,3.81,0.35,5.15,0.29c12.98-0.54,48.11-3.37,60.89-3.37c2.24,0,3.59,0.14,4.71,0.29" stroke-dasharray="70.881" stroke-dashoffset="70.881"><animate attributeName="stroke-dashoffset" values="70.881;70.881;0" dur="0.533s" fill="freeze" begin="0s;4e99.click" /></path></g></g></g><g><path d="M44.5,22.25c1,1.5,1.02,4.39,0.5,6.75c-2.5,11.25-12.75,39.5-15.88,48.1" stroke-dasharray="57.595" stroke-dashoffset="57.595"><animate attributeName="stroke-dashoffset" values="57.595" fill="freeze" begin="4e99.click" /><animate attributeName="stroke-dashoffset" values="57.595;57.595;0" keyTimes="0;0.481;1" dur="1.109s" fill="freeze" begin="0s;4e99.click" /></path><path d="M42.75,39.08c8.42-1.26,26.53-2.8,29.44-3.07c3.51-0.32,4.09,1.93,3.29,4.17c-2.97,8.3-5.67,22.4-11.61,51.32" stroke-dasharray="89.033" stroke-dashoffset="89.033"><animate attributeName="stroke-dashoffset" values="89.033" fill="freeze" begin="4e99.click" /><animate attributeName="stroke-dashoffset" values="89.033;89.033;0" keyTimes="0;0.624;1" dur="1.778s" fill="freeze" begin="0s;4e99.click" /></path></g><g><path d="M47.5,50.5c4.24,1.76,10.94,7.25,12,10" stroke-dasharray="15.846" stroke-dashoffset="15.846"><animate attributeName="stroke-dashoffset" values="15.846" fill="freeze" begin="4e99.click" /><animate attributeName="stroke-dashoffset" values="15.846;15.846;0" keyTimes="0;0.918;1" dur="1.936s" fill="freeze" begin="0s;4e99.click" /></path></g><g><path d="M42.5,68.5c4.41,1.76,11.39,7.25,12.5,10" stroke-dasharray="16.235" stroke-dashoffset="16.235"><animate attributeName="stroke-dashoffset" values="16.235" fill="freeze" begin="4e99.click" /><animate attributeName="stroke-dashoffset" values="16.235;16.235;0" keyTimes="0;0.923;1" dur="2.098s" fill="freeze" begin="0s;4e99.click" /></path></g><g><g><g><path d="M13.75,93.25c1.57,0.56,4.44,0.61,6.01,0.56c16.59-0.52,53.82-3.05,70.26-2.27c2.61,0.12,4.18,0.27,5.48,0.55" stroke-dasharray="81.891" stroke-dashoffset="81.891"><animate attributeName="stroke-dashoffset" values="81.891" fill="freeze" begin="4e99.click" /><animate attributeName="stroke-dashoffset" values="81.891;81.891;0" keyTimes="0;0.773;1" dur="2.714s" fill="freeze" begin="0s;4e99.click" /></path></g></g></g></g></g></svg>