<svg xmlns="http://www.w3.org/2000/svg" width="109" height="109" viewBox="0 0 109 109" id="4ea6"><g fill="none" stroke="#666" stroke-width="9" stroke-linecap="round" stroke-linejoin="round"><g><g><path d="M53.36,12.25c1.38,1.38,1.48,2.75,1.48,4.66c0,4.45-0.09,11.09-0.09,15.21" /><path d="M18.75,35.36c3.24,0.96,6.91,0.65,10.23,0.28c15.9-1.76,41.72-4.05,55.9-4.74c3.38-0.17,7.88-0.27,10.88,0.76" /></g><g><g><path d="M45.17,37.53c1.08,1.08,1.19,2.63,1.19,4.64C46.36,60.55,42.5,86,26.31,97" /></g><g><path d="M64.52,35.33c0.98,0.92,1.76,1.99,1.76,5.02c0,17.65-0.01,44.16-0.01,49.12c0,10.39-5.71,1.75-7.21,0.5" /></g><path d="M30.01,52.89c0.09,1.28,0.09,2.61-0.47,3.82c-2.8,6.11-7.85,14.36-14.74,21.51" /><path d="M78.77,54.33c4.87,3.73,12.58,15.33,13.79,21.13" /></g></g></g><g fill="none" stroke="#000" stroke-width="5" stroke-linecap="round" stroke-linejoin="round"><g><g><path d="M53.36,12.25c1.38,1.38,1.48,2.75,1.48,4.66c0,4.45-0.09,11.09-0.09,15.21" stroke-dasharray="20.26" stroke-dashoffset="20.26"><animate id="0" attributeName="stroke-dashoffset" values="20.26;0" dur="0.2s" fill="freeze" begin="0s;4ea6.click" /></path><path d="M18.75,35.36c3.24,0.96,6.91,0.65,10.23,0.28c15.9-1.76,41.72-4.05,55.9-4.74c3.38-0.17,7.88-0.27,10.88,0.76" stroke-dasharray="77.37" stroke-dashoffset="77.37"><animate attributeName="stroke-dashoffset" values="77.37" fill="freeze" begin="4ea6.click" /><animate id="1" attributeName="stroke-dashoffset" values="77.37;0" dur="0.58s" fill="freeze" begin="0.end" /></path></g><g><g><path d="M45.17,37.53c1.08,1.08,1.19,2.63,1.19,4.64C46.36,60.55,42.5,86,26.31,97" stroke-dasharray="65.49" stroke-dashoffset="65.49"><animate attributeName="stroke-dashoffset" values="65.49" fill="freeze" begin="4ea6.click" /><animate id="2" attributeName="stroke-dashoffset" values="65.49;0" dur="0.49s" fill="freeze" begin="1.end" /></path></g><g><path d="M64.52,35.33c0.98,0.92,1.76,1.99,1.76,5.02c0,17.65-0.01,44.16-0.01,49.12c0,10.39-5.71,1.75-7.21,0.5" stroke-dasharray="67.65" stroke-dashoffset="67.65"><animate attributeName="stroke-dashoffset" values="67.65" fill="freeze" begin="4ea6.click" /><animate id="3" attributeName="stroke-dashoffset" values="67.65;0" dur="0.51s" fill="freeze" begin="2.end" /></path></g><path d="M30.01,52.89c0.09,1.28,0.09,2.61-0.47,3.82c-2.8,6.11-7.85,14.36-14.74,21.51" stroke-dasharray="30.08" stroke-dashoffset="30.08"><animate attributeName="stroke-dashoffset" values="30.08" fill="freeze" begin="4ea6.click" /><animate id="4" attributeName="stroke-dashoffset" values="30.08;0" dur="0.3s" fill="freeze" begin="3.end" /></path><path d="M78.77,54.33c4.87,3.73,12.58,15.33,13.79,21.13" stroke-dasharray="25.54" stroke-dashoffset="25.54"><animate attributeName="stroke-dashoffset" values="25.54" fill="freeze" begin="4ea6.click" /><animate id="5" attributeName="stroke-dashoffset" values="25.54;0" dur="0.26s" fill="freeze" begin="4.end" /></path></g></g></g></svg>