<svg xmlns="http://www.w3.org/2000/svg" width="109" height="109" viewBox="0 0 109 109" id="4ead"><g fill="none" stroke="#666" stroke-width="6" stroke-linecap="round" stroke-linejoin="round"><g><g p4:partial xmlns:p4="http://kanjivg.tagaini.net"><g><path d="M52.79,9.61c1.13,1.13,1.34,2.32,1.34,3.27c0,3.49,0.09,4.25,0.09,7.31" /><path d="M22,23.83c2.62,0.67,5.28,0.72,8.13,0.4c11.13-1.23,35.9-3.83,48.5-4.39c2.66-0.12,5.09-0.2,7.62,0.75" /></g></g><g><g p5:partial xmlns:p5="http://kanjivg.tagaini.net"><g><path d="M35.64,33.39c0.82,0.51,1.52,1.25,1.59,2.24c0.82,2.52,1.95,6.15,2.67,9.4c0.21,0.95,0.41,1.87,0.61,2.72" /><path d="M37.56,34.13c6.53-0.88,21.98-3.2,29.69-4.19c3.62-0.46,5.6-0.24,4.46,3.99c-0.58,2.14-1.3,4.11-2.54,8.02" /><path d="M40.97,45.69c5.75-0.77,18.06-2.32,25.78-3.18c1.71-0.19,3.22-0.35,4.42-0.45" /></g></g><g><path d="M22.29,55.69c-0.11,3.81-2.82,13.79-3.79,16.06" /><path d="M23.22,57.75C34,57,67.48,51.96,85.19,51.5c9.56-0.25,4.06,5.75-0.69,9.5" /></g><g p5:phon="丁" xmlns:p5="http://kanjivg.tagaini.net"><g><path d="M29.27,70.84c2.15,0.84,5.32,0.46,7.53,0.21c9.47-1.07,24.6-3.02,35.21-3.79c2.58-0.19,5.18-0.24,7.73,0.36" /></g><g><path d="M55.01,70.79c0.85,0.85,1.08,1.96,1.08,3.44c0,9.74-0.09,17.33-0.09,20.64c0,9.3-5.88,1.12-7.36-0.75" /></g></g></g></g></g><g fill="none" stroke="#000" stroke-width="3" stroke-linecap="round" stroke-linejoin="round"><path d="M52.79,9.61c1.13,1.13,1.34,2.32,1.34,3.27c0,3.49,0.09,4.25,0.09,7.31" stroke-dasharray="10.947" stroke-dashoffset="10.947"><animate attributeName="stroke-dashoffset" values="10.947;10.947;0" dur="0.109s" fill="freeze" begin="0s;4ead.click" /></path><path d="M22,23.83c2.62,0.67,5.28,0.72,8.13,0.4c11.13-1.23,35.9-3.83,48.5-4.39c2.66-0.12,5.09-0.2,7.62,0.75" stroke-dasharray="64.607" stroke-dashoffset="64.607"><animate attributeName="stroke-dashoffset" values="64.607" fill="freeze" begin="4ead.click" /><animate attributeName="stroke-dashoffset" values="64.607;64.607;0" keyTimes="0;0.183;1" dur="0.595s" fill="freeze" begin="0s;4ead.click" /></path><path d="M35.64,33.39c0.82,0.51,1.52,1.25,1.59,2.24c0.82,2.52,1.95,6.15,2.67,9.4c0.21,0.95,0.41,1.87,0.61,2.72" stroke-dasharray="15.419" stroke-dashoffset="15.419"><animate attributeName="stroke-dashoffset" values="15.419" fill="freeze" begin="4ead.click" /><animate attributeName="stroke-dashoffset" values="15.419;15.419;0" keyTimes="0;0.794;1" dur="0.749s" fill="freeze" begin="0s;4ead.click" /></path><path d="M37.56,34.13c6.53-0.88,21.98-3.2,29.69-4.19c3.62-0.46,5.6-0.24,4.46,3.99c-0.58,2.14-1.3,4.11-2.54,8.02" stroke-dasharray="46.525" stroke-dashoffset="46.525"><animate attributeName="stroke-dashoffset" values="46.525" fill="freeze" begin="4ead.click" /><animate attributeName="stroke-dashoffset" values="46.525;46.525;0" keyTimes="0;0.617;1" dur="1.214s" fill="freeze" begin="0s;4ead.click" /></path><path d="M40.97,45.69c5.75-0.77,18.06-2.32,25.78-3.18c1.71-0.19,3.22-0.35,4.42-0.45" stroke-dasharray="30.42" stroke-dashoffset="30.42"><animate attributeName="stroke-dashoffset" values="30.42" fill="freeze" begin="4ead.click" /><animate attributeName="stroke-dashoffset" values="30.42;30.42;0" keyTimes="0;0.8;1" dur="1.518s" fill="freeze" begin="0s;4ead.click" /></path><path d="M22.29,55.69c-0.11,3.81-2.82,13.79-3.79,16.06" stroke-dasharray="16.544" stroke-dashoffset="16.544"><animate attributeName="stroke-dashoffset" values="16.544" fill="freeze" begin="4ead.click" /><animate attributeName="stroke-dashoffset" values="16.544;16.544;0" keyTimes="0;0.902;1" dur="1.683s" fill="freeze" begin="0s;4ead.click" /></path><path d="M23.22,57.75C34,57,67.48,51.96,85.19,51.5c9.56-0.25,4.06,5.75-0.69,9.5" stroke-dasharray="78.235" stroke-dashoffset="78.235"><animate attributeName="stroke-dashoffset" values="78.235" fill="freeze" begin="4ead.click" /><animate attributeName="stroke-dashoffset" values="78.235;78.235;0" keyTimes="0;0.741;1" dur="2.271s" fill="freeze" begin="0s;4ead.click" /></path><path d="M29.27,70.84c2.15,0.84,5.32,0.46,7.53,0.21c9.47-1.07,24.6-3.02,35.21-3.79c2.58-0.19,5.18-0.24,7.73,0.36" stroke-dasharray="50.788" stroke-dashoffset="50.788"><animate attributeName="stroke-dashoffset" values="50.788" fill="freeze" begin="4ead.click" /><animate attributeName="stroke-dashoffset" values="50.788;50.788;0" keyTimes="0;0.817;1" dur="2.779s" fill="freeze" begin="0s;4ead.click" /></path><path d="M55.01,70.79c0.85,0.85,1.08,1.96,1.08,3.44c0,9.74-0.09,17.33-0.09,20.64c0,9.3-5.88,1.12-7.36-0.75" stroke-dasharray="37.252" stroke-dashoffset="37.252"><animate attributeName="stroke-dashoffset" values="37.252" fill="freeze" begin="4ead.click" /><animate attributeName="stroke-dashoffset" values="37.252;37.252;0" keyTimes="0;0.882;1" dur="3.152s" fill="freeze" begin="0s;4ead.click" /></path></g></svg>