<svg xmlns="http://www.w3.org/2000/svg" width="109" height="109" viewBox="0 0 109 109" id="4ecf"><g fill="none" stroke="#666" stroke-width="9" stroke-linecap="round" stroke-linejoin="round"><g><g><path d="M36.51,16.75c0.24,1.62-0.06,3.24-0.79,5.09c-4.65,11.79-11.3,24.86-21.97,39.2" /><path d="M28.28,41.75c1.05,1.05,1.51,2.12,1.51,3.98c0,12.28-0.03,30.57-0.04,42.52c0,2.67,0,5.04,0,7" /></g><g p4:phon="厶/弗" xmlns:p4="http://kanjivg.tagaini.net"><path d="M67.45,23.14c0.59,1.16,0.44,2.75-0.02,4.22C62.62,42.5,54.75,63.62,47.5,78.16c-2.19,4.38-0.97,4.87,2.67,3.69c9.95-3.22,24.45-7.6,39.01-12.04" /><path d="M78.38,52.62c6.15,5.24,15.9,21.55,17.43,29.7" /></g></g></g><g fill="none" stroke="#000" stroke-width="5" stroke-linecap="round" stroke-linejoin="round"><g><g><path d="M36.51,16.75c0.24,1.62-0.06,3.24-0.79,5.09c-4.65,11.79-11.3,24.86-21.97,39.2" stroke-dasharray="50.28" stroke-dashoffset="50.28"><animate id="0" attributeName="stroke-dashoffset" values="50.28;0" dur="0.5s" fill="freeze" begin="0s;4ecf.click" /></path><path d="M28.28,41.75c1.05,1.05,1.51,2.12,1.51,3.98c0,12.28-0.03,30.57-0.04,42.52c0,2.67,0,5.04,0,7" stroke-dasharray="53.91" stroke-dashoffset="53.91"><animate attributeName="stroke-dashoffset" values="53.91" fill="freeze" begin="4ecf.click" /><animate id="1" attributeName="stroke-dashoffset" values="53.91;0" dur="0.54s" fill="freeze" begin="0.end" /></path></g><g p4:phon="厶/弗" xmlns:p4="http://kanjivg.tagaini.net"><path d="M67.45,23.14c0.59,1.16,0.44,2.75-0.02,4.22C62.62,42.5,54.75,63.62,47.5,78.16c-2.19,4.38-0.97,4.87,2.67,3.69c9.95-3.22,24.45-7.6,39.01-12.04" stroke-dasharray="107.62" stroke-dashoffset="107.62"><animate attributeName="stroke-dashoffset" values="107.62" fill="freeze" begin="4ecf.click" /><animate id="2" attributeName="stroke-dashoffset" values="107.62;0" dur="0.81s" fill="freeze" begin="1.end" /></path><path d="M78.38,52.62c6.15,5.24,15.9,21.55,17.43,29.7" stroke-dasharray="34.81" stroke-dashoffset="34.81"><animate attributeName="stroke-dashoffset" values="34.81" fill="freeze" begin="4ecf.click" /><animate id="3" attributeName="stroke-dashoffset" values="34.81;0" dur="0.35s" fill="freeze" begin="2.end" /></path></g></g></g></svg>