<svg xmlns="http://www.w3.org/2000/svg" viewBox="0 0 109 109" id="4ecf"><g fill="none" stroke="#666" stroke-width="6" stroke-linecap="round" stroke-linejoin="round"><g><g><path d="M36.51,16.75c0.24,1.62-0.06,3.24-0.79,5.09c-4.65,11.79-11.3,24.86-21.97,39.2" /><path d="M28.28,41.75c1.05,1.05,1.51,2.12,1.51,3.98c0,12.28-0.03,30.57-0.04,42.52c0,2.67,0,5.04,0,7" /></g><g p4:phon="厶/弗" xmlns:p4="http://kanjivg.tagaini.net"><path d="M67.45,23.14c0.59,1.16,0.44,2.75-0.02,4.22C62.62,42.5,54.75,63.62,47.5,78.16c-2.19,4.38-0.97,4.87,2.67,3.69c9.95-3.22,24.45-7.6,39.01-12.04" /><path d="M78.38,52.62c6.15,5.24,15.9,21.55,17.43,29.7" /></g></g></g><g fill="none" stroke="#000" stroke-width="3" stroke-linecap="round" stroke-linejoin="round"><path d="M36.51,16.75c0.24,1.62-0.06,3.24-0.79,5.09c-4.65,11.79-11.3,24.86-21.97,39.2" stroke-dasharray="50.285" stroke-dashoffset="50.285"><animate attributeName="stroke-dashoffset" values="50.285;50.285;0" dur="0.503s" fill="freeze" begin="0s;4ecf.click" /></path><path d="M28.28,41.75c1.05,1.05,1.51,2.12,1.51,3.98c0,12.28-0.03,30.57-0.04,42.52c0,2.67,0,5.04,0,7" stroke-dasharray="53.912" stroke-dashoffset="53.912"><animate attributeName="stroke-dashoffset" values="53.912" fill="freeze" begin="4ecf.click" /><animate attributeName="stroke-dashoffset" values="53.912;53.912;0" keyTimes="0;0.483;1" dur="1.042s" fill="freeze" begin="0s;4ecf.click" /></path><path d="M67.45,23.14c0.59,1.16,0.44,2.75-0.02,4.22C62.62,42.5,54.75,63.62,47.5,78.16c-2.19,4.38-0.97,4.87,2.67,3.69c9.95-3.22,24.45-7.6,39.01-12.04" stroke-dasharray="107.622" stroke-dashoffset="107.622"><animate attributeName="stroke-dashoffset" values="107.622" fill="freeze" begin="4ecf.click" /><animate attributeName="stroke-dashoffset" values="107.622;107.622;0" keyTimes="0;0.563;1" dur="1.851s" fill="freeze" begin="0s;4ecf.click" /></path><path d="M78.38,52.62c6.15,5.24,15.9,21.55,17.43,29.7" stroke-dasharray="34.814" stroke-dashoffset="34.814"><animate attributeName="stroke-dashoffset" values="34.814" fill="freeze" begin="4ecf.click" /><animate attributeName="stroke-dashoffset" values="34.814;34.814;0" keyTimes="0;0.842;1" dur="2.199s" fill="freeze" begin="0s;4ecf.click" /></path></g></svg>