<svg xmlns="http://www.w3.org/2000/svg" width="109" height="109" viewBox="0 0 109 109" id="4ed9"><g fill="none" stroke="#666" stroke-width="9" stroke-linecap="round" stroke-linejoin="round"><g><g><path d="M32.75,18.14c0.13,1.18,0.09,2.45-0.37,3.87c-3.13,9.73-9.75,24.23-20.07,37.7" /><path d="M25.28,42.75c1.11,1.11,1.51,2.62,1.51,4.73c0,9.94,0,26.52,0,38.52c0,3.7-0.04,6.8-0.04,8.87" /></g><g p4:phon="山" xmlns:p4="http://kanjivg.tagaini.net"><path d="M65.99,17.75c1.38,1.38,1.76,3,1.76,4.99c0,0.96,0,54.88,0,61.43" /><path d="M43.99,60.21c0.96,0.96,1.32,2.42,1.26,4.19C45,71.75,44.75,79.12,44,85.78c-0.24,2.16,0.63,3.41,2.5,2.97c9.88-2.37,34.25-5.62,46.75-6.15" /><path d="M92.24,52.38c1.13,1.13,1.51,2.74,1.51,4.49c0,5.54,0,13.5-0.38,24.88c-0.09,2.63-0.12,6.37-0.37,10.21" /></g></g></g><g fill="none" stroke="#000" stroke-width="5" stroke-linecap="round" stroke-linejoin="round"><g><g><path d="M32.75,18.14c0.13,1.18,0.09,2.45-0.37,3.87c-3.13,9.73-9.75,24.23-20.07,37.7" stroke-dasharray="46.82" stroke-dashoffset="46.82"><animate id="0" attributeName="stroke-dashoffset" values="46.82;0" dur="0.47s" fill="freeze" begin="0s;4ed9.click" /></path><path d="M25.28,42.75c1.11,1.11,1.51,2.62,1.51,4.73c0,9.94,0,26.52,0,38.52c0,3.7-0.04,6.8-0.04,8.87" stroke-dasharray="52.49" stroke-dashoffset="52.49"><animate attributeName="stroke-dashoffset" values="52.49" fill="freeze" begin="4ed9.click" /><animate id="1" attributeName="stroke-dashoffset" values="52.49;0" dur="0.52s" fill="freeze" begin="0.end" /></path></g><g p4:phon="山" xmlns:p4="http://kanjivg.tagaini.net"><path d="M65.99,17.75c1.38,1.38,1.76,3,1.76,4.99c0,0.96,0,54.88,0,61.43" stroke-dasharray="66.88" stroke-dashoffset="66.88"><animate attributeName="stroke-dashoffset" values="66.88" fill="freeze" begin="4ed9.click" /><animate id="2" attributeName="stroke-dashoffset" values="66.88;0" dur="0.5s" fill="freeze" begin="1.end" /></path><path d="M43.99,60.21c0.96,0.96,1.32,2.42,1.26,4.19C45,71.75,44.75,79.12,44,85.78c-0.24,2.16,0.63,3.41,2.5,2.97c9.88-2.37,34.25-5.62,46.75-6.15" stroke-dasharray="77.91" stroke-dashoffset="77.91"><animate attributeName="stroke-dashoffset" values="77.91" fill="freeze" begin="4ed9.click" /><animate id="3" attributeName="stroke-dashoffset" values="77.91;0" dur="0.59s" fill="freeze" begin="2.end" /></path><path d="M92.24,52.38c1.13,1.13,1.51,2.74,1.51,4.49c0,5.54,0,13.5-0.38,24.88c-0.09,2.63-0.12,6.37-0.37,10.21" stroke-dasharray="39.97" stroke-dashoffset="39.97"><animate attributeName="stroke-dashoffset" values="39.97" fill="freeze" begin="4ed9.click" /><animate id="4" attributeName="stroke-dashoffset" values="39.97;0" dur="0.4s" fill="freeze" begin="3.end" /></path></g></g></g></svg>