<svg xmlns="http://www.w3.org/2000/svg" width="109" height="109" viewBox="0 0 109 109" id="4ee4"><g fill="none" stroke="#666" stroke-width="9" stroke-linecap="round" stroke-linejoin="round"><g><g><path d="M49.62,13.25c0.11,0.94,0.38,2.48-0.22,3.77c-4.15,8.86-15.15,25.23-36.65,37.08" /><path d="M50.54,16.55c6.13,4.35,24.99,20.22,33.98,27.33c3.22,2.54,5.6,4.12,9.73,5.37" /></g><g><g><path d="M47.27,45.33c3.54,1.52,9.16,6.26,10.04,8.63" /></g><g><path d="M29.08,65.79c1.35,0.83,4.19,1.22,5.72,1.01c3.03-0.41,35.42-5.69,38.62-6.1s4,1.47,1.71,3.66c-5.38,5.13-21.87,19.81-23.89,21.47" /><path d="M41.59,81.4c6.16,3.22,13.66,8.47,17.12,15.6" /></g></g></g></g><g fill="none" stroke="#000" stroke-width="5" stroke-linecap="round" stroke-linejoin="round"><g><g><path d="M49.62,13.25c0.11,0.94,0.38,2.48-0.22,3.77c-4.15,8.86-15.15,25.23-36.65,37.08" stroke-dasharray="56.775" stroke-dashoffset="56.775"><animate attributeName="stroke-dashoffset" values="56.775;56.775;0" dur="0.568s" fill="freeze" begin="0s;4ee4.click" /></path><path d="M50.54,16.55c6.13,4.35,24.99,20.22,33.98,27.33c3.22,2.54,5.6,4.12,9.73,5.37" stroke-dasharray="54.805" stroke-dashoffset="54.805"><animate attributeName="stroke-dashoffset" values="54.805" fill="freeze" begin="4ee4.click" /><animate attributeName="stroke-dashoffset" values="54.805;54.805;0" keyTimes="0;0.509;1" dur="1.116s" fill="freeze" begin="0s;4ee4.click" /></path></g><g><g><path d="M47.27,45.33c3.54,1.52,9.16,6.26,10.04,8.63" stroke-dasharray="13.432" stroke-dashoffset="13.432"><animate attributeName="stroke-dashoffset" values="13.432" fill="freeze" begin="4ee4.click" /><animate attributeName="stroke-dashoffset" values="13.432;13.432;0" keyTimes="0;0.893;1" dur="1.25s" fill="freeze" begin="0s;4ee4.click" /></path></g><g><path d="M29.08,65.79c1.35,0.83,4.19,1.22,5.72,1.01c3.03-0.41,35.42-5.69,38.62-6.1s4,1.47,1.71,3.66c-5.38,5.13-21.87,19.81-23.89,21.47" stroke-dasharray="83.577" stroke-dashoffset="83.577"><animate attributeName="stroke-dashoffset" values="83.577" fill="freeze" begin="4ee4.click" /><animate attributeName="stroke-dashoffset" values="83.577;83.577;0" keyTimes="0;0.666;1" dur="1.878s" fill="freeze" begin="0s;4ee4.click" /></path><path d="M41.59,81.4c6.16,3.22,13.66,8.47,17.12,15.6" stroke-dasharray="23.539" stroke-dashoffset="23.539"><animate attributeName="stroke-dashoffset" values="23.539" fill="freeze" begin="4ee4.click" /><animate attributeName="stroke-dashoffset" values="23.539;23.539;0" keyTimes="0;0.889;1" dur="2.113s" fill="freeze" begin="0s;4ee4.click" /></path></g></g></g></g></svg>