<svg xmlns="http://www.w3.org/2000/svg" width="109" height="109" viewBox="0 0 109 109" id="4ee5"><g fill="none" stroke="#666" stroke-width="9" stroke-linecap="round" stroke-linejoin="round"><g><g p4:phon="3+6+1" xmlns:p4="http://kanjivg.tagaini.net"><path d="M20.87,27.5c1.09,0.5,2.28,1.72,2.46,3.25C25,45.12,27,61.75,28.25,70.5" /><path d="M15.37,77.52c2.25,1.32,3.9,0.34,6.32-1.32c1.61-1.11,14.59-10.49,21.43-15.82" /><g><path d="M43.62,23.12c4.3,4.16,11.11,17.12,12.18,23.59" /></g></g><g><path d="M83.76,21.3c0.74,1.58,0.87,3.04,0.3,5.25C79.75,43.12,69.5,67.88,46.14,86.4" /><path d="M71.52,61.33c8.04,4.26,20.78,17.51,22.79,24.13" /></g></g></g><g fill="none" stroke="#000" stroke-width="5" stroke-linecap="round" stroke-linejoin="round"><g><g p4:phon="3+6+1" xmlns:p4="http://kanjivg.tagaini.net"><path d="M20.87,27.5c1.09,0.5,2.28,1.72,2.46,3.25C25,45.12,27,61.75,28.25,70.5" stroke-dasharray="44.3" stroke-dashoffset="44.3"><animate id="0" attributeName="stroke-dashoffset" values="44.3;0" dur="0.44s" fill="freeze" begin="0s;4ee5.click" /></path><path d="M15.37,77.52c2.25,1.32,3.9,0.34,6.32-1.32c1.61-1.11,14.59-10.49,21.43-15.82" stroke-dasharray="33.56" stroke-dashoffset="33.56"><animate attributeName="stroke-dashoffset" values="33.56" fill="freeze" begin="4ee5.click" /><animate id="1" attributeName="stroke-dashoffset" values="33.56;0" dur="0.34s" fill="freeze" begin="0.end" /></path><g><path d="M43.62,23.12c4.3,4.16,11.11,17.12,12.18,23.59" stroke-dasharray="26.8" stroke-dashoffset="26.8"><animate attributeName="stroke-dashoffset" values="26.8" fill="freeze" begin="4ee5.click" /><animate id="2" attributeName="stroke-dashoffset" values="26.8;0" dur="0.27s" fill="freeze" begin="1.end" /></path></g></g><g><path d="M83.76,21.3c0.74,1.58,0.87,3.04,0.3,5.25C79.75,43.12,69.5,67.88,46.14,86.4" stroke-dasharray="77.48" stroke-dashoffset="77.48"><animate attributeName="stroke-dashoffset" values="77.48" fill="freeze" begin="4ee5.click" /><animate id="3" attributeName="stroke-dashoffset" values="77.48;0" dur="0.58s" fill="freeze" begin="2.end" /></path><path d="M71.52,61.33c8.04,4.26,20.78,17.51,22.79,24.13" stroke-dasharray="33.67" stroke-dashoffset="33.67"><animate attributeName="stroke-dashoffset" values="33.67" fill="freeze" begin="4ee5.click" /><animate id="4" attributeName="stroke-dashoffset" values="33.67;0" dur="0.34s" fill="freeze" begin="3.end" /></path></g></g></g></svg>