<svg xmlns="http://www.w3.org/2000/svg" width="109" height="109" viewBox="0 0 109 109" id="4f1a"><g fill="none" stroke="#666" stroke-width="9" stroke-linecap="round" stroke-linejoin="round"><g><g><path d="M52.25,14c0.25,2.28-0.52,3.59-1.8,5.62c-5.76,9.14-17.9,27-39.2,39.88" /><path d="M54.5,19.25c6.73,7.3,24.09,24.81,32.95,31.91c2.73,2.18,5.61,3.8,9.05,4.59" /></g><g><g><path d="M37.36,50.16c1.64,0.34,4.04,0.36,4.98,0.25c6.79-0.79,14.29-1.91,19.66-2.4c1.56-0.14,3.25-0.39,4.66,0" /><path d="M23,65.98c2.12,0.52,4.25,0.64,7.01,0.3c13.77-1.71,30.99-3.66,46.35-3.74c3.04-0.02,4.87,0.14,6.4,0.29" /></g><g><path d="M47.16,66.38c0.62,1.65-0.03,2.93-0.92,4.28c-5.17,7.8-8.02,11.38-14.99,18.84c-2.11,2.25-1.5,4.18,2,3.75c7.35-0.91,28.19-5.83,40.16-7.95" /><path d="M66.62,77.39c4.52,3.23,11,12.73,13.06,18.82" /></g></g></g></g><g fill="none" stroke="#000" stroke-width="5" stroke-linecap="round" stroke-linejoin="round"><path d="M52.25,14c0.25,2.28-0.52,3.59-1.8,5.62c-5.76,9.14-17.9,27-39.2,39.88" stroke-dasharray="62.491" stroke-dashoffset="62.491"><animate attributeName="stroke-dashoffset" values="62.491;62.491;0" dur="0.47s" fill="freeze" begin="0s;4f1a.click" /></path><path d="M54.5,19.25c6.73,7.3,24.09,24.81,32.95,31.91c2.73,2.18,5.61,3.8,9.05,4.59" stroke-dasharray="56.133" stroke-dashoffset="56.133"><animate attributeName="stroke-dashoffset" values="56.133" fill="freeze" begin="4f1a.click" /><animate attributeName="stroke-dashoffset" values="56.133;56.133;0" keyTimes="0;0.456;1" dur="1.031s" fill="freeze" begin="0s;4f1a.click" /></path><path d="M37.36,50.16c1.64,0.34,4.04,0.36,4.98,0.25c6.79-0.79,14.29-1.91,19.66-2.4c1.56-0.14,3.25-0.39,4.66,0" stroke-dasharray="29.495" stroke-dashoffset="29.495"><animate attributeName="stroke-dashoffset" values="29.495" fill="freeze" begin="4f1a.click" /><animate attributeName="stroke-dashoffset" values="29.495;29.495;0" keyTimes="0;0.778;1" dur="1.326s" fill="freeze" begin="0s;4f1a.click" /></path><path d="M23,65.98c2.12,0.52,4.25,0.64,7.01,0.3c13.77-1.71,30.99-3.66,46.35-3.74c3.04-0.02,4.87,0.14,6.4,0.29" stroke-dasharray="59.996" stroke-dashoffset="59.996"><animate attributeName="stroke-dashoffset" values="59.996" fill="freeze" begin="4f1a.click" /><animate attributeName="stroke-dashoffset" values="59.996;59.996;0" keyTimes="0;0.688;1" dur="1.926s" fill="freeze" begin="0s;4f1a.click" /></path><path d="M47.16,66.38c0.62,1.65-0.03,2.93-0.92,4.28c-5.17,7.8-8.02,11.38-14.99,18.84c-2.11,2.25-1.5,4.18,2,3.75c7.35-0.91,28.19-5.83,40.16-7.95" stroke-dasharray="76.315" stroke-dashoffset="76.315"><animate attributeName="stroke-dashoffset" values="76.315" fill="freeze" begin="4f1a.click" /><animate attributeName="stroke-dashoffset" values="76.315;76.315;0" keyTimes="0;0.77;1" dur="2.5s" fill="freeze" begin="0s;4f1a.click" /></path><path d="M66.62,77.39c4.52,3.23,11,12.73,13.06,18.82" stroke-dasharray="23.153" stroke-dashoffset="23.153"><animate attributeName="stroke-dashoffset" values="23.153" fill="freeze" begin="4f1a.click" /><animate attributeName="stroke-dashoffset" values="23.153;23.153;0" keyTimes="0;0.915;1" dur="2.732s" fill="freeze" begin="0s;4f1a.click" /></path></g></svg>