<svg xmlns="http://www.w3.org/2000/svg" width="109" height="109" viewBox="0 0 109 109" id="4f38"><g fill="none" stroke="#666" stroke-width="9" stroke-linecap="round" stroke-linejoin="round"><g><g><path d="M34.24,15.89c0.13,1.14,0.24,2.56-0.12,3.96c-2.26,8.83-11.27,25.9-21.81,37.87" /><path d="M28.24,39.25c1.07,1.07,1.09,2.45,1.09,3.85c0,12.73-0.06,33.71-0.07,47.9c0,2.14,0,4.12,0,5.88" /></g><g p4:phon="申" xmlns:p4="http://kanjivg.tagaini.net"><g p4:partial><path d="M42.27,33.43c1.09,1.09,1.48,1.93,1.66,3.59c1.07,10.36,1.63,18.16,2.49,28.22c0.2,2.29,0.37,4.46,0.52,6.43" /><path d="M44.62,35.13c14.51-2.38,33.19-4.53,42.14-5.14c3.48-0.24,4.99,1.6,4.61,4.81c-0.69,5.73-1.83,17.54-3.24,26.52c-0.36,2.28-0.7,4.41-1.01,6.26" /><path d="M46.39,50.68c10.11-1.43,28.36-3.55,42.72-4.26" /><path d="M47.56,67.25c12.81-1.38,23.19-2.63,38.77-3.4" /></g><g><path d="M65.52,13.25c1.12,1.12,1.35,2.38,1.35,4.58c0,9.02-0.08,52.9-0.11,71.8c-0.01,4.51-0.01,7.61-0.01,8.5" /></g></g></g></g><g fill="none" stroke="#000" stroke-width="5" stroke-linecap="round" stroke-linejoin="round"><g><g><path d="M34.24,15.89c0.13,1.14,0.24,2.56-0.12,3.96c-2.26,8.83-11.27,25.9-21.81,37.87" stroke-dasharray="47.98" stroke-dashoffset="47.98"><animate id="0" attributeName="stroke-dashoffset" values="47.98;0" dur="0.48s" fill="freeze" begin="0s;4f38.click" /></path><path d="M28.24,39.25c1.07,1.07,1.09,2.45,1.09,3.85c0,12.73-0.06,33.71-0.07,47.9c0,2.14,0,4.12,0,5.88" stroke-dasharray="57.9" stroke-dashoffset="57.9"><animate attributeName="stroke-dashoffset" values="57.9" fill="freeze" begin="4f38.click" /><animate id="1" attributeName="stroke-dashoffset" values="57.9;0" dur="0.58s" fill="freeze" begin="0.end" /></path></g><g p4:phon="申" xmlns:p4="http://kanjivg.tagaini.net"><g p4:partial><path d="M42.27,33.43c1.09,1.09,1.48,1.93,1.66,3.59c1.07,10.36,1.63,18.16,2.49,28.22c0.2,2.29,0.37,4.46,0.52,6.43" stroke-dasharray="38.84" stroke-dashoffset="38.84"><animate attributeName="stroke-dashoffset" values="38.84" fill="freeze" begin="4f38.click" /><animate id="2" attributeName="stroke-dashoffset" values="38.84;0" dur="0.39s" fill="freeze" begin="1.end" /></path><path d="M44.62,35.13c14.51-2.38,33.19-4.53,42.14-5.14c3.48-0.24,4.99,1.6,4.61,4.81c-0.69,5.73-1.83,17.54-3.24,26.52c-0.36,2.28-0.7,4.41-1.01,6.26" stroke-dasharray="83.49" stroke-dashoffset="83.49"><animate attributeName="stroke-dashoffset" values="83.49" fill="freeze" begin="4f38.click" /><animate id="3" attributeName="stroke-dashoffset" values="83.49;0" dur="0.63s" fill="freeze" begin="2.end" /></path><path d="M46.39,50.68c10.11-1.43,28.36-3.55,42.72-4.26" stroke-dasharray="42.94" stroke-dashoffset="42.94"><animate attributeName="stroke-dashoffset" values="42.94" fill="freeze" begin="4f38.click" /><animate id="4" attributeName="stroke-dashoffset" values="42.94;0" dur="0.43s" fill="freeze" begin="3.end" /></path><path d="M47.56,67.25c12.81-1.38,23.19-2.63,38.77-3.4" stroke-dasharray="38.93" stroke-dashoffset="38.93"><animate attributeName="stroke-dashoffset" values="38.93" fill="freeze" begin="4f38.click" /><animate id="5" attributeName="stroke-dashoffset" values="38.93;0" dur="0.39s" fill="freeze" begin="4.end" /></path></g><g><path d="M65.52,13.25c1.12,1.12,1.35,2.38,1.35,4.58c0,9.02-0.08,52.9-0.11,71.8c-0.01,4.51-0.01,7.61-0.01,8.5" stroke-dasharray="85.22" stroke-dashoffset="85.22"><animate attributeName="stroke-dashoffset" values="85.22" fill="freeze" begin="4f38.click" /><animate id="6" attributeName="stroke-dashoffset" values="85.22;0" dur="0.64s" fill="freeze" begin="5.end" /></path></g></g></g></g></svg>