<svg xmlns="http://www.w3.org/2000/svg" width="109" height="109" viewBox="0 0 109 109" id="4f46"><g fill="none" stroke="#666" stroke-width="6" stroke-linecap="round" stroke-linejoin="round"><g><g><path d="M33.24,16.14c0.14,1.18,0.24,2.4-0.12,3.85c-2.29,9.15-11.39,26.83-22.06,39.22" /><path d="M26.28,40.75c0.98,0.98,1.26,2.5,1.26,4.48c0,10.24-0.03,29-0.04,41.02c0,3.27,0,6,0,7.88" /></g><g><g><path d="M49.23,23.92c0.93,0.93,1.16,2.18,1.16,3.67c0,0.67,0,32.04,0,39.16c0,1.88,0,3.62,0,6.06" /><path d="M51.35,25.86c6.19-0.71,22.9-2.38,28.66-2.93c3.33-0.32,5.69,0.44,5.69,4.21c0,6.12,0.08,28.5-0.03,39.43c-0.03,3.49-0.05,5.82-0.05,6.07" /><path d="M51.43,47.22C61,46.5,77,45.12,84.68,44.86" /><path d="M51.35,70.01c8.9-0.64,23.15-2.14,33.2-2.49" /></g><g><path d="M40.13,89.54c2.87,0.71,5.78,0.77,8.25,0.54c11.49-1.09,30.42-2.54,41.5-2.8c2.33-0.06,4.98,0.09,7.25,0.66" /></g></g></g></g><g fill="none" stroke="#000" stroke-width="3" stroke-linecap="round" stroke-linejoin="round"><path d="M33.24,16.14c0.14,1.18,0.24,2.4-0.12,3.85c-2.29,9.15-11.39,26.83-22.06,39.22" stroke-dasharray="49.172" stroke-dashoffset="49.172"><animate attributeName="stroke-dashoffset" values="49.172;49.172;0" dur="0.492s" fill="freeze" begin="0s;4f46.click" /></path><path d="M26.28,40.75c0.98,0.98,1.26,2.5,1.26,4.48c0,10.24-0.03,29-0.04,41.02c0,3.27,0,6,0,7.88" stroke-dasharray="53.677" stroke-dashoffset="53.677"><animate attributeName="stroke-dashoffset" values="53.677" fill="freeze" begin="4f46.click" /><animate attributeName="stroke-dashoffset" values="53.677;53.677;0" keyTimes="0;0.478;1" dur="1.029s" fill="freeze" begin="0s;4f46.click" /></path><path d="M49.23,23.92c0.93,0.93,1.16,2.18,1.16,3.67c0,0.67,0,32.04,0,39.16c0,1.88,0,3.62,0,6.06" stroke-dasharray="49.178" stroke-dashoffset="49.178"><animate attributeName="stroke-dashoffset" values="49.178" fill="freeze" begin="4f46.click" /><animate attributeName="stroke-dashoffset" values="49.178;49.178;0" keyTimes="0;0.677;1" dur="1.521s" fill="freeze" begin="0s;4f46.click" /></path><path d="M51.35,25.86c6.19-0.71,22.9-2.38,28.66-2.93c3.33-0.32,5.69,0.44,5.69,4.21c0,6.12,0.08,28.5-0.03,39.43c-0.03,3.49-0.05,5.82-0.05,6.07" stroke-dasharray="82.678" stroke-dashoffset="82.678"><animate attributeName="stroke-dashoffset" values="82.678" fill="freeze" begin="4f46.click" /><animate attributeName="stroke-dashoffset" values="82.678;82.678;0" keyTimes="0;0.71;1" dur="2.143s" fill="freeze" begin="0s;4f46.click" /></path><path d="M51.43,47.22C61,46.5,77,45.12,84.68,44.86" stroke-dasharray="33.337" stroke-dashoffset="33.337"><animate attributeName="stroke-dashoffset" values="33.337" fill="freeze" begin="4f46.click" /><animate attributeName="stroke-dashoffset" values="33.337;33.337;0" keyTimes="0;0.866;1" dur="2.476s" fill="freeze" begin="0s;4f46.click" /></path><path d="M51.35,70.01c8.9-0.64,23.15-2.14,33.2-2.49" stroke-dasharray="33.297" stroke-dashoffset="33.297"><animate attributeName="stroke-dashoffset" values="33.297" fill="freeze" begin="4f46.click" /><animate attributeName="stroke-dashoffset" values="33.297;33.297;0" keyTimes="0;0.881;1" dur="2.809s" fill="freeze" begin="0s;4f46.click" /></path><path d="M40.13,89.54c2.87,0.71,5.78,0.77,8.25,0.54c11.49-1.09,30.42-2.54,41.5-2.8c2.33-0.06,4.98,0.09,7.25,0.66" stroke-dasharray="57.209" stroke-dashoffset="57.209"><animate attributeName="stroke-dashoffset" values="57.209" fill="freeze" begin="4f46.click" /><animate attributeName="stroke-dashoffset" values="57.209;57.209;0" keyTimes="0;0.831;1" dur="3.381s" fill="freeze" begin="0s;4f46.click" /></path></g></svg>