<svg xmlns="http://www.w3.org/2000/svg" viewBox="0 0 109 109" id="4f4d"><g fill="none" stroke="#666" stroke-width="6" stroke-linecap="round" stroke-linejoin="round"><g><g><path d="M32.26,17.5c0.22,2-0.06,4.37-0.76,6.08C27.06,34.5,21.43,45,11.25,58.29" /><path d="M25.28,42c0.8,0.8,1.5,2.21,1.5,3.38c-0.03,10.87-0.2,31.49-0.26,42.75C26.51,90.6,26.5,92.63,26.5,94" /></g><g><g><path d="M63,15.5c1,0.75,1.5,2,1.5,3.75s0,13.25,0,18" /><path d="M39.84,39.56c2.66,0.44,5.29,0.12,7.78-0.16c9.14-1.04,27.43-3.47,36.27-4.19c2.2-0.18,4.36-0.32,6.54,0.1" /></g><g><path d="M48.38,47.12c2.94,7.74,5.76,21.01,7.25,30.25" /><path d="M79.6,41.16c0.72,1.22,0.8,1.84,0.72,2.84c-0.57,6.9-5.89,28.84-7.32,34.12" /><path d="M35,85.59c3.12,0.78,6.6,0.56,9.77,0.21c12.67-1.39,31.58-3.01,44.74-3.78c2.71-0.16,5.56,0.16,8.24,0.64" /></g></g></g></g><g fill="none" stroke="#000" stroke-width="3" stroke-linecap="round" stroke-linejoin="round"><path d="M32.26,17.5c0.22,2-0.06,4.37-0.76,6.08C27.06,34.5,21.43,45,11.25,58.29" stroke-dasharray="46.501" stroke-dashoffset="46.501"><animate attributeName="stroke-dashoffset" values="46.501;46.501;0" dur="0.465s" fill="freeze" begin="0s;4f4d.click" /></path><path d="M25.28,42c0.8,0.8,1.5,2.21,1.5,3.38c-0.03,10.87-0.2,31.49-0.26,42.75C26.51,90.6,26.5,92.63,26.5,94" stroke-dasharray="52.402" stroke-dashoffset="52.402"><animate attributeName="stroke-dashoffset" values="52.402" fill="freeze" begin="4f4d.click" /><animate attributeName="stroke-dashoffset" values="52.402;52.402;0" keyTimes="0;0.47;1" dur="0.989s" fill="freeze" begin="0s;4f4d.click" /></path><path d="M63,15.5c1,0.75,1.5,2,1.5,3.75s0,13.25,0,18" stroke-dasharray="22.195" stroke-dashoffset="22.195"><animate attributeName="stroke-dashoffset" values="22.195" fill="freeze" begin="4f4d.click" /><animate attributeName="stroke-dashoffset" values="22.195;22.195;0" keyTimes="0;0.817;1" dur="1.211s" fill="freeze" begin="0s;4f4d.click" /></path><path d="M39.84,39.56c2.66,0.44,5.29,0.12,7.78-0.16c9.14-1.04,27.43-3.47,36.27-4.19c2.2-0.18,4.36-0.32,6.54,0.1" stroke-dasharray="50.885" stroke-dashoffset="50.885"><animate attributeName="stroke-dashoffset" values="50.885" fill="freeze" begin="4f4d.click" /><animate attributeName="stroke-dashoffset" values="50.885;50.885;0" keyTimes="0;0.704;1" dur="1.72s" fill="freeze" begin="0s;4f4d.click" /></path><path d="M48.38,47.12c2.94,7.74,5.76,21.01,7.25,30.25" stroke-dasharray="31.149" stroke-dashoffset="31.149"><animate attributeName="stroke-dashoffset" values="31.149" fill="freeze" begin="4f4d.click" /><animate attributeName="stroke-dashoffset" values="31.149;31.149;0" keyTimes="0;0.847;1" dur="2.031s" fill="freeze" begin="0s;4f4d.click" /></path><path d="M79.6,41.16c0.72,1.22,0.8,1.84,0.72,2.84c-0.57,6.9-5.89,28.84-7.32,34.12" stroke-dasharray="37.911" stroke-dashoffset="37.911"><animate attributeName="stroke-dashoffset" values="37.911" fill="freeze" begin="4f4d.click" /><animate attributeName="stroke-dashoffset" values="37.911;37.911;0" keyTimes="0;0.843;1" dur="2.41s" fill="freeze" begin="0s;4f4d.click" /></path><path d="M35,85.59c3.12,0.78,6.6,0.56,9.77,0.21c12.67-1.39,31.58-3.01,44.74-3.78c2.71-0.16,5.56,0.16,8.24,0.64" stroke-dasharray="63.012" stroke-dashoffset="63.012"><animate attributeName="stroke-dashoffset" values="63.012" fill="freeze" begin="4f4d.click" /><animate attributeName="stroke-dashoffset" values="63.012;63.012;0" keyTimes="0;0.836;1" dur="2.884s" fill="freeze" begin="0s;4f4d.click" /></path></g></svg>