<svg xmlns="http://www.w3.org/2000/svg" width="109" height="109" viewBox="0 0 109 109" id="4f4f"><g fill="none" stroke="#666" stroke-width="9" stroke-linecap="round" stroke-linejoin="round"><g><g><path d="M30.88,19.88c0.2,2.01-0.06,4.65-0.72,6.38c-4.2,11-8.54,20.32-18.16,33.71" /><path d="M26.03,41c0.72,0.75,1.25,1.94,1.25,3.23c0,11.62-0.19,33.52-0.26,45.4c-0.02,2.58-0.02,4.7-0.02,6.12" /></g><g p4:phon="主" xmlns:p4="http://kanjivg.tagaini.net"><g><path d="M55.25,15.88c5.64,3.21,9.5,6.62,12.56,11.66" /></g><g p4:partial><path d="M43,41.32c1.75,0.31,3.75,0.22,5.87,0.03c11-0.97,23.69-2.1,36.3-2.56c1.72-0.06,3.28,0.09,4.7,0.46" /><path d="M64.25,42.59c1,1.07,1.5,2.41,1.5,3.96c0,5.98,0.5,35.17,0.25,41.15" /><path d="M45.25,63.69c1.03,0.53,4.42,0.34,5.47,0.23c12.58-1.32,17.02-1.73,31.14-2.61c1.28-0.08,4.1-0.22,6.02,0.25" /><path d="M35.5,90.36c2.36,0.52,5.24,0.51,7.94,0.25c13.02-1.23,35.55-2.61,47.17-2.65c2.83-0.01,6.23,0.45,7.64,0.88" /></g></g></g></g><g fill="none" stroke="#000" stroke-width="5" stroke-linecap="round" stroke-linejoin="round"><g><g><path d="M30.88,19.88c0.2,2.01-0.06,4.65-0.72,6.38c-4.2,11-8.54,20.32-18.16,33.71" stroke-dasharray="44.886" stroke-dashoffset="44.886"><animate attributeName="stroke-dashoffset" values="44.886;44.886;0" dur="0.449s" fill="freeze" begin="0s;4f4f.click" /></path><path d="M26.03,41c0.72,0.75,1.25,1.94,1.25,3.23c0,11.62-0.19,33.52-0.26,45.4c-0.02,2.58-0.02,4.7-0.02,6.12" stroke-dasharray="55.067" stroke-dashoffset="55.067"><animate attributeName="stroke-dashoffset" values="55.067" fill="freeze" begin="4f4f.click" /><animate attributeName="stroke-dashoffset" values="55.067;55.067;0" keyTimes="0;0.449;1" dur="1s" fill="freeze" begin="0s;4f4f.click" /></path></g><g p4:phon="主" xmlns:p4="http://kanjivg.tagaini.net"><g><path d="M55.25,15.88c5.64,3.21,9.5,6.62,12.56,11.66" stroke-dasharray="17.344" stroke-dashoffset="17.344"><animate attributeName="stroke-dashoffset" values="17.344" fill="freeze" begin="4f4f.click" /><animate attributeName="stroke-dashoffset" values="17.344;17.344;0" keyTimes="0;0.853;1" dur="1.173s" fill="freeze" begin="0s;4f4f.click" /></path></g><g p4:partial><path d="M43,41.32c1.75,0.31,3.75,0.22,5.87,0.03c11-0.97,23.69-2.1,36.3-2.56c1.72-0.06,3.28,0.09,4.7,0.46" stroke-dasharray="47.021" stroke-dashoffset="47.021"><animate attributeName="stroke-dashoffset" values="47.021" fill="freeze" begin="4f4f.click" /><animate attributeName="stroke-dashoffset" values="47.021;47.021;0" keyTimes="0;0.714;1" dur="1.643s" fill="freeze" begin="0s;4f4f.click" /></path><path d="M64.25,42.59c1,1.07,1.5,2.41,1.5,3.96c0,5.98,0.5,35.17,0.25,41.15" stroke-dasharray="45.494" stroke-dashoffset="45.494"><animate attributeName="stroke-dashoffset" values="45.494" fill="freeze" begin="4f4f.click" /><animate attributeName="stroke-dashoffset" values="45.494;45.494;0" keyTimes="0;0.783;1" dur="2.098s" fill="freeze" begin="0s;4f4f.click" /></path><path d="M45.25,63.69c1.03,0.53,4.42,0.34,5.47,0.23c12.58-1.32,17.02-1.73,31.14-2.61c1.28-0.08,4.1-0.22,6.02,0.25" stroke-dasharray="42.814" stroke-dashoffset="42.814"><animate attributeName="stroke-dashoffset" values="42.814" fill="freeze" begin="4f4f.click" /><animate attributeName="stroke-dashoffset" values="42.814;42.814;0" keyTimes="0;0.831;1" dur="2.526s" fill="freeze" begin="0s;4f4f.click" /></path><path d="M35.5,90.36c2.36,0.52,5.24,0.51,7.94,0.25c13.02-1.23,35.55-2.61,47.17-2.65c2.83-0.01,6.23,0.45,7.64,0.88" stroke-dasharray="62.941" stroke-dashoffset="62.941"><animate attributeName="stroke-dashoffset" values="62.941" fill="freeze" begin="4f4f.click" /><animate attributeName="stroke-dashoffset" values="62.941;62.941;0" keyTimes="0;0.842;1" dur="2.999s" fill="freeze" begin="0s;4f4f.click" /></path></g></g></g></g></svg>