<svg xmlns="http://www.w3.org/2000/svg" width="109" height="109" viewBox="0 0 109 109" id="4f6f"><g fill="none" stroke="#666" stroke-width="6" stroke-linecap="round" stroke-linejoin="round"><g><g><path d="M32.5,16.39c0.13,1.11,0.22,2.5-0.11,3.86c-2.11,8.62-10.26,25.28-20.08,36.96" /><path d="M27.5,38c0.64,0.66,0.81,2.12,0.81,3.48c0,14.02-0.31,43.23-0.31,52.65" /></g><g><path d="M47.65,13.83c3.83,2.19,9.9,8.98,10.86,12.38" /><path d="M82.25,11.14c0.03,0.35,0.06,0.9-0.05,1.4c-0.65,2.96-4.39,9.45-9.5,13.42" /><path d="M44.57,33.74c1.14,0.61,3.2,0.71,4.36,0.61C59,33.5,76.5,31,86.13,30.06c1.89-0.19,3.03,0.29,3.98,0.59" /><path d="M45.28,50.19c1.13,0.6,3.17,0.66,4.32,0.6c10.15-0.54,21.6-1.98,35.48-3.35c1.87-0.18,2.92-0.19,4.45,0.3" /><path d="M38.5,68.7c1.42,0.54,4.01,0.67,5.44,0.54c11.16-0.99,34.32-3.49,49.96-4.23c2.36-0.11,2.2-0.01,4.35,0.24" /><path d="M65.26,33.25c0.95,0.5,1.52,2.25,1.71,3.25c0.19,1,0,55.25-0.19,61.5" /></g></g></g><g fill="none" stroke="#000" stroke-width="3" stroke-linecap="round" stroke-linejoin="round"><path d="M32.5,16.39c0.13,1.11,0.22,2.5-0.11,3.86c-2.11,8.62-10.26,25.28-20.08,36.96" stroke-dasharray="46.219" stroke-dashoffset="46.219"><animate attributeName="stroke-dashoffset" values="46.219;46.219;0" dur="0.462s" fill="freeze" begin="0s;4f6f.click" /></path><path d="M27.5,38c0.64,0.66,0.81,2.12,0.81,3.48c0,14.02-0.31,43.23-0.31,52.65" stroke-dasharray="56.298" stroke-dashoffset="56.298"><animate attributeName="stroke-dashoffset" values="56.298" fill="freeze" begin="4f6f.click" /><animate attributeName="stroke-dashoffset" values="56.298;56.298;0" keyTimes="0;0.451;1" dur="1.025s" fill="freeze" begin="0s;4f6f.click" /></path><path d="M47.65,13.83c3.83,2.19,9.9,8.98,10.86,12.38" stroke-dasharray="16.702" stroke-dashoffset="16.702"><animate attributeName="stroke-dashoffset" values="16.702" fill="freeze" begin="4f6f.click" /><animate attributeName="stroke-dashoffset" values="16.702;16.702;0" keyTimes="0;0.86;1" dur="1.192s" fill="freeze" begin="0s;4f6f.click" /></path><path d="M82.25,11.14c0.03,0.35,0.06,0.9-0.05,1.4c-0.65,2.96-4.39,9.45-9.5,13.42" stroke-dasharray="18.085" stroke-dashoffset="18.085"><animate attributeName="stroke-dashoffset" values="18.085" fill="freeze" begin="4f6f.click" /><animate attributeName="stroke-dashoffset" values="18.085;18.085;0" keyTimes="0;0.868;1" dur="1.373s" fill="freeze" begin="0s;4f6f.click" /></path><path d="M44.57,33.74c1.14,0.61,3.2,0.71,4.36,0.61C59,33.5,76.5,31,86.13,30.06c1.89-0.19,3.03,0.29,3.98,0.59" stroke-dasharray="45.961" stroke-dashoffset="45.961"><animate attributeName="stroke-dashoffset" values="45.961" fill="freeze" begin="4f6f.click" /><animate attributeName="stroke-dashoffset" values="45.961;45.961;0" keyTimes="0;0.749;1" dur="1.833s" fill="freeze" begin="0s;4f6f.click" /></path><path d="M45.28,50.19c1.13,0.6,3.17,0.66,4.32,0.6c10.15-0.54,21.6-1.98,35.48-3.35c1.87-0.18,2.92-0.19,4.45,0.3" stroke-dasharray="44.545" stroke-dashoffset="44.545"><animate attributeName="stroke-dashoffset" values="44.545" fill="freeze" begin="4f6f.click" /><animate attributeName="stroke-dashoffset" values="44.545;44.545;0" keyTimes="0;0.805;1" dur="2.278s" fill="freeze" begin="0s;4f6f.click" /></path><path d="M38.5,68.7c1.42,0.54,4.01,0.67,5.44,0.54c11.16-0.99,34.32-3.49,49.96-4.23c2.36-0.11,2.2-0.01,4.35,0.24" stroke-dasharray="60.012" stroke-dashoffset="60.012"><animate attributeName="stroke-dashoffset" values="60.012" fill="freeze" begin="4f6f.click" /><animate attributeName="stroke-dashoffset" values="60.012;60.012;0" keyTimes="0;0.835;1" dur="2.729s" fill="freeze" begin="0s;4f6f.click" /></path><path d="M65.26,33.25c0.95,0.5,1.52,2.25,1.71,3.25c0.19,1,0,55.25-0.19,61.5" stroke-dasharray="65.273" stroke-dashoffset="65.273"><animate attributeName="stroke-dashoffset" values="65.273" fill="freeze" begin="4f6f.click" /><animate attributeName="stroke-dashoffset" values="65.273;65.273;0" keyTimes="0;0.848;1" dur="3.22s" fill="freeze" begin="0s;4f6f.click" /></path></g></svg>