<svg xmlns="http://www.w3.org/2000/svg" width="109" height="109" viewBox="0 0 109 109" id="4f7c"><g fill="none" stroke="#666" stroke-width="9" stroke-linecap="round" stroke-linejoin="round"><g><g><path d="M33.25,18.39c0.13,1.23-0.03,2.78-0.36,4.29C30.75,32.25,22,50.75,12.06,63.72" /><path d="M27.53,41.5c0.59,0.61,0.76,1.97,0.76,3.23c0,9.55-0.02,28.43-0.03,41.27c0,4.67-0.01,8.54-0.01,10.88" /></g><g><g><path d="M63.28,12.25c1.23,1.23,1.44,2.5,1.44,4.12c0,4.74-0.1,6.32-0.1,10" /><path d="M42.45,29.46c3.36,0.78,6.62,0.36,10.03-0.16c8.73-1.31,21.67-3.04,30.01-3.88c3.35-0.4,6.72-0.32,10.09,0.23" /></g><g><path d="M54.9,36.26c-0.03,1.49-0.42,2.65-1.22,3.99c-3.56,6-8.07,11.51-13.76,16.33" /><path d="M76.25,33.03c6.41,4.51,11.7,9.71,14.9,15.18" /><path d="M78.55,44.44c0.2,1.19,0.19,2.38-0.66,4.43C69.75,68.38,57,84.38,38.17,95.71" /><path d="M53.3,52.47c7.95,11.78,14.58,21.91,27.92,34.2c3.46,3.19,7.03,6.16,11.11,8.48" /></g></g></g></g><g fill="none" stroke="#000" stroke-width="5" stroke-linecap="round" stroke-linejoin="round"><g><g><path d="M33.25,18.39c0.13,1.23-0.03,2.78-0.36,4.29C30.75,32.25,22,50.75,12.06,63.72" stroke-dasharray="50.61" stroke-dashoffset="50.61"><animate id="0" attributeName="stroke-dashoffset" values="50.61;0" dur="0.51s" fill="freeze" begin="0s;4f7c.click" /></path><path d="M27.53,41.5c0.59,0.61,0.76,1.97,0.76,3.23c0,9.55-0.02,28.43-0.03,41.27c0,4.67-0.01,8.54-0.01,10.88" stroke-dasharray="55.53" stroke-dashoffset="55.53"><animate attributeName="stroke-dashoffset" values="55.53" fill="freeze" begin="4f7c.click" /><animate id="1" attributeName="stroke-dashoffset" values="55.53;0" dur="0.56s" fill="freeze" begin="0.end" /></path></g><g><g><path d="M63.28,12.25c1.23,1.23,1.44,2.5,1.44,4.12c0,4.74-0.1,6.32-0.1,10" stroke-dasharray="14.5" stroke-dashoffset="14.5"><animate attributeName="stroke-dashoffset" values="14.5" fill="freeze" begin="4f7c.click" /><animate id="2" attributeName="stroke-dashoffset" values="14.5;0" dur="0.14s" fill="freeze" begin="1.end" /></path><path d="M42.45,29.46c3.36,0.78,6.62,0.36,10.03-0.16c8.73-1.31,21.67-3.04,30.01-3.88c3.35-0.4,6.72-0.32,10.09,0.23" stroke-dasharray="50.48" stroke-dashoffset="50.48"><animate attributeName="stroke-dashoffset" values="50.48" fill="freeze" begin="4f7c.click" /><animate id="3" attributeName="stroke-dashoffset" values="50.48;0" dur="0.5s" fill="freeze" begin="2.end" /></path></g><g><path d="M54.9,36.26c-0.03,1.49-0.42,2.65-1.22,3.99c-3.56,6-8.07,11.51-13.76,16.33" stroke-dasharray="25.68" stroke-dashoffset="25.68"><animate attributeName="stroke-dashoffset" values="25.68" fill="freeze" begin="4f7c.click" /><animate id="4" attributeName="stroke-dashoffset" values="25.68;0" dur="0.26s" fill="freeze" begin="3.end" /></path><path d="M76.25,33.03c6.41,4.51,11.7,9.71,14.9,15.18" stroke-dasharray="21.43" stroke-dashoffset="21.43"><animate attributeName="stroke-dashoffset" values="21.43" fill="freeze" begin="4f7c.click" /><animate id="5" attributeName="stroke-dashoffset" values="21.43;0" dur="0.21s" fill="freeze" begin="4.end" /></path><path d="M78.55,44.44c0.2,1.19,0.19,2.38-0.66,4.43C69.75,68.38,57,84.38,38.17,95.71" stroke-dasharray="67.05" stroke-dashoffset="67.05"><animate attributeName="stroke-dashoffset" values="67.05" fill="freeze" begin="4f7c.click" /><animate id="6" attributeName="stroke-dashoffset" values="67.05;0" dur="0.5s" fill="freeze" begin="5.end" /></path><path d="M53.3,52.47c7.95,11.78,14.58,21.91,27.92,34.2c3.46,3.19,7.03,6.16,11.11,8.48" stroke-dasharray="58.28" stroke-dashoffset="58.28"><animate attributeName="stroke-dashoffset" values="58.28" fill="freeze" begin="4f7c.click" /><animate id="7" attributeName="stroke-dashoffset" values="58.28;0" dur="0.58s" fill="freeze" begin="6.end" /></path></g></g></g></g></svg>