<svg xmlns="http://www.w3.org/2000/svg" width="109" height="109" viewBox="0 0 109 109" id="4fc3"><g fill="none" stroke="#666" stroke-width="9" stroke-linecap="round" stroke-linejoin="round"><g><g><path d="M31.74,17.89c0.14,1.09,0.24,2.45-0.12,3.79C29.33,30.14,20.48,46.5,9.81,57.97" /><path d="M24.53,40c1.05,1.05,1.51,2.25,1.51,3.98c0,10.61-0.03,30.57-0.04,42.52c0,2.72,0,5,0,6.62" /></g><g p4:phon="足" xmlns:p4="http://kanjivg.tagaini.net"><g><path d="M43.95,22.02c0.6,0.46,1.34,1.71,1.49,2.31c1.32,5.3,2.02,8.63,3.33,14.42c0.36,1.59,0.75,3.25,1.17,4.99" /><path d="M45.63,22.77c9.52-1.49,25.48-3.9,33.87-4.8c3.73-0.4,6.19,0.7,5.29,4.85c-0.91,4.2-1.91,8.07-3.52,13.85" /><path d="M50.44,41.49c8.56-0.99,18.65-2.14,28.33-3.37c1.53-0.19,2.99-0.37,4.36-0.53" /></g><path d="M64.13,42.35c1.01,1.01,1.23,2.27,1.23,3.96c0,6.34-0.11,26.69-0.11,33.19" /><path d="M66.7,57.02C67.76,57.02,75.88,56,83.02,55.17C84.42,55.01,85.72,54.91,86.81,54.91" /><path d="M49.98,56.2c0.08,0.85,0.22,2.23-0.17,3.44c-3.62,11.14-8.68,23.48-15.47,30.01" /><path d="M46.44,70.83c3.07,0.16,15.81,9.79,34.31,17.09c3.37,1.33,5.99,1.96,10.15,2.83" /></g></g></g><g fill="none" stroke="#000" stroke-width="5" stroke-linecap="round" stroke-linejoin="round"><g><g><path d="M31.74,17.89c0.14,1.09,0.24,2.45-0.12,3.79C29.33,30.14,20.48,46.5,9.81,57.97" stroke-dasharray="46.46" stroke-dashoffset="46.46"><animate id="0" attributeName="stroke-dashoffset" values="46.46;0" dur="0.46s" fill="freeze" begin="0s;4fc3.click" /></path><path d="M24.53,40c1.05,1.05,1.51,2.25,1.51,3.98c0,10.61-0.03,30.57-0.04,42.52c0,2.72,0,5,0,6.62" stroke-dasharray="53.52" stroke-dashoffset="53.52"><animate attributeName="stroke-dashoffset" values="53.52" fill="freeze" begin="4fc3.click" /><animate id="1" attributeName="stroke-dashoffset" values="53.52;0" dur="0.54s" fill="freeze" begin="0.end" /></path></g><g p4:phon="足" xmlns:p4="http://kanjivg.tagaini.net"><g><path d="M43.95,22.02c0.6,0.46,1.34,1.71,1.49,2.31c1.32,5.3,2.02,8.63,3.33,14.42c0.36,1.59,0.75,3.25,1.17,4.99" stroke-dasharray="22.71" stroke-dashoffset="22.71"><animate attributeName="stroke-dashoffset" values="22.71" fill="freeze" begin="4fc3.click" /><animate id="2" attributeName="stroke-dashoffset" values="22.71;0" dur="0.23s" fill="freeze" begin="1.end" /></path><path d="M45.63,22.77c9.52-1.49,25.48-3.9,33.87-4.8c3.73-0.4,6.19,0.7,5.29,4.85c-0.91,4.2-1.91,8.07-3.52,13.85" stroke-dasharray="57.52" stroke-dashoffset="57.52"><animate attributeName="stroke-dashoffset" values="57.52" fill="freeze" begin="4fc3.click" /><animate id="3" attributeName="stroke-dashoffset" values="57.52;0" dur="0.58s" fill="freeze" begin="2.end" /></path><path d="M50.44,41.49c8.56-0.99,18.65-2.14,28.33-3.37c1.53-0.19,2.99-0.37,4.36-0.53" stroke-dasharray="32.92" stroke-dashoffset="32.92"><animate attributeName="stroke-dashoffset" values="32.92" fill="freeze" begin="4fc3.click" /><animate id="4" attributeName="stroke-dashoffset" values="32.92;0" dur="0.33s" fill="freeze" begin="3.end" /></path></g><path d="M64.13,42.35c1.01,1.01,1.23,2.27,1.23,3.96c0,6.34-0.11,26.69-0.11,33.19" stroke-dasharray="37.46" stroke-dashoffset="37.46"><animate attributeName="stroke-dashoffset" values="37.46" fill="freeze" begin="4fc3.click" /><animate id="5" attributeName="stroke-dashoffset" values="37.46;0" dur="0.37s" fill="freeze" begin="4.end" /></path><path d="M66.7,57.02C67.76,57.02,75.88,56,83.02,55.17C84.42,55.01,85.72,54.91,86.81,54.91" stroke-dasharray="20.23" stroke-dashoffset="20.23"><animate attributeName="stroke-dashoffset" values="20.23" fill="freeze" begin="4fc3.click" /><animate id="6" attributeName="stroke-dashoffset" values="20.23;0" dur="0.2s" fill="freeze" begin="5.end" /></path><path d="M49.98,56.2c0.08,0.85,0.22,2.23-0.17,3.44c-3.62,11.14-8.68,23.48-15.47,30.01" stroke-dasharray="37.53" stroke-dashoffset="37.53"><animate attributeName="stroke-dashoffset" values="37.53" fill="freeze" begin="4fc3.click" /><animate id="7" attributeName="stroke-dashoffset" values="37.53;0" dur="0.38s" fill="freeze" begin="6.end" /></path><path d="M46.44,70.83c3.07,0.16,15.81,9.79,34.31,17.09c3.37,1.33,5.99,1.96,10.15,2.83" stroke-dasharray="48.95" stroke-dashoffset="48.95"><animate attributeName="stroke-dashoffset" values="48.95" fill="freeze" begin="4fc3.click" /><animate id="8" attributeName="stroke-dashoffset" values="48.95;0" dur="0.49s" fill="freeze" begin="7.end" /></path></g></g></g></svg>