<svg xmlns="http://www.w3.org/2000/svg" viewBox="0 0 109 109" id="4fd4"><g fill="none" stroke="#666" stroke-width="6" stroke-linecap="round" stroke-linejoin="round"><g><g><path d="M32,16.89c0.13,1.19,0.23,2.68-0.12,4.15c-2.16,9.25-10.51,27.14-20.57,39.68" /><path d="M26.49,41.5c0.66,0.68,0.84,2.19,0.84,3.58c0,14.46-0.32,40.08-0.32,49.79" /></g><g><g><path d="M50.69,15.87c0.5,1.14,1.23,1.99,1.23,3.51c0,1.52-0.16,45.85,0,47.37" /><path d="M52.75,17.41c2.82-0.19,24.82-3.69,27.39-3.92c2.14-0.19,3.83,1.06,3.65,2.47c-0.23,1.78-1,47.82-1,48.96" /><path d="M52.7,31.88c4.03,0,24.41-2.58,28.93-2.58" /><path d="M52.93,47.45c8.18-0.54,21.11-2.28,28.37-2.28" /><path d="M53.66,64.97c6.59-0.22,21.11-2.28,28.37-2.28" /></g><g><path d="M61,67.75c0.06,0.65,0.12,1.69-0.12,2.62C59.45,75.91,51.23,88.06,40,95.5" /><path d="M71.86,65.97c0.43,1.1,0.77,2.4,0.8,4.11c0.07,4.55-0.33,11.1-0.33,16.43c0,5.75,2.42,7.62,11.92,7.62s12-1.62,12-8.46" /></g></g></g></g><g fill="none" stroke="#000" stroke-width="3" stroke-linecap="round" stroke-linejoin="round"><path d="M32,16.89c0.13,1.19,0.23,2.68-0.12,4.15c-2.16,9.25-10.51,27.14-20.57,39.68" stroke-dasharray="49.144" stroke-dashoffset="49.144"><animate attributeName="stroke-dashoffset" values="49.144;49.144;0" dur="0.491s" fill="freeze" begin="0s;4fd4.click" /></path><path d="M26.49,41.5c0.66,0.68,0.84,2.19,0.84,3.58c0,14.46-0.32,40.08-0.32,49.79" stroke-dasharray="53.544" stroke-dashoffset="53.544"><animate attributeName="stroke-dashoffset" values="53.544" fill="freeze" begin="4fd4.click" /><animate attributeName="stroke-dashoffset" values="53.544;53.544;0" keyTimes="0;0.479;1" dur="1.026s" fill="freeze" begin="0s;4fd4.click" /></path><path d="M50.69,15.87c0.5,1.14,1.23,1.99,1.23,3.51c0,1.52-0.16,45.85,0,47.37" stroke-dasharray="51.134" stroke-dashoffset="51.134"><animate attributeName="stroke-dashoffset" values="51.134" fill="freeze" begin="4fd4.click" /><animate attributeName="stroke-dashoffset" values="51.134;51.134;0" keyTimes="0;0.668;1" dur="1.537s" fill="freeze" begin="0s;4fd4.click" /></path><path d="M52.75,17.41c2.82-0.19,24.82-3.69,27.39-3.92c2.14-0.19,3.83,1.06,3.65,2.47c-0.23,1.78-1,47.82-1,48.96" stroke-dasharray="81.645" stroke-dashoffset="81.645"><animate attributeName="stroke-dashoffset" values="81.645" fill="freeze" begin="4fd4.click" /><animate attributeName="stroke-dashoffset" values="81.645;81.645;0" keyTimes="0;0.715;1" dur="2.151s" fill="freeze" begin="0s;4fd4.click" /></path><path d="M52.7,31.88c4.03,0,24.41-2.58,28.93-2.58" stroke-dasharray="29.052" stroke-dashoffset="29.052"><animate attributeName="stroke-dashoffset" values="29.052" fill="freeze" begin="4fd4.click" /><animate attributeName="stroke-dashoffset" values="29.052;29.052;0" keyTimes="0;0.881;1" dur="2.442s" fill="freeze" begin="0s;4fd4.click" /></path><path d="M52.93,47.45c8.18-0.54,21.11-2.28,28.37-2.28" stroke-dasharray="28.47" stroke-dashoffset="28.47"><animate attributeName="stroke-dashoffset" values="28.47" fill="freeze" begin="4fd4.click" /><animate attributeName="stroke-dashoffset" values="28.47;28.47;0" keyTimes="0;0.895;1" dur="2.727s" fill="freeze" begin="0s;4fd4.click" /></path><path d="M53.66,64.97c6.59-0.22,21.11-2.28,28.37-2.28" stroke-dasharray="28.47" stroke-dashoffset="28.47"><animate attributeName="stroke-dashoffset" values="28.47" fill="freeze" begin="4fd4.click" /><animate attributeName="stroke-dashoffset" values="28.47;28.47;0" keyTimes="0;0.905;1" dur="3.012s" fill="freeze" begin="0s;4fd4.click" /></path><path d="M61,67.75c0.06,0.65,0.12,1.69-0.12,2.62C59.45,75.91,51.23,88.06,40,95.5" stroke-dasharray="35.82" stroke-dashoffset="35.82"><animate attributeName="stroke-dashoffset" values="35.82" fill="freeze" begin="4fd4.click" /><animate attributeName="stroke-dashoffset" values="35.82;35.82;0" keyTimes="0;0.894;1" dur="3.37s" fill="freeze" begin="0s;4fd4.click" /></path><path d="M71.86,65.97c0.43,1.1,0.77,2.4,0.8,4.11c0.07,4.55-0.33,11.1-0.33,16.43c0,5.75,2.42,7.62,11.92,7.62s12-1.62,12-8.46" stroke-dasharray="54.523" stroke-dashoffset="54.523"><animate attributeName="stroke-dashoffset" values="54.523" fill="freeze" begin="4fd4.click" /><animate attributeName="stroke-dashoffset" values="54.523;54.523;0" keyTimes="0;0.861;1" dur="3.915s" fill="freeze" begin="0s;4fd4.click" /></path></g></svg>