<svg xmlns="http://www.w3.org/2000/svg" width="109" height="109" viewBox="0 0 109 109" id="4fe3"><g fill="none" stroke="#666" stroke-width="9" stroke-linecap="round" stroke-linejoin="round"><g><g><path d="M32.99,12.89c0.14,1.13,0.24,2.55-0.13,3.93c-2.34,8.78-11.39,25.75-22.3,37.64" /><path d="M25.48,39c0.67,0.7,0.86,2.24,0.86,3.68c0,14.83-0.33,45.73-0.33,55.7" /></g><g><g><path d="M46.5,15.1c0.38,0.47,0.77,0.86,0.94,1.45c1.32,4.66,2.4,15.03,3.3,23.41" /><path d="M48.87,16.71C59.5,15,74.24,13.68,79.04,13.02c1.76-0.24,2.81,2.43,2.56,3.85c-1.04,5.87-2.23,10.93-4.46,19.4" /><path d="M51.61,38.88c5.64-0.75,21.63-2.13,28.79-2.88" /></g><g><path d="M45.96,50.65c0.83,0.29,2.36,0.31,3.19,0.29c9.35-0.19,22.35-2.44,32.37-3.15c1.38-0.1,2.22,0.14,2.91,0.28" /><g><path d="M37.53,69.12c0.87,0.22,3.1,0.41,4.04,0.31c8.75-0.94,37.96-3.01,47.42-3.2c1.2-0.02,3.38,0.03,5.59,0.46" /><path d="M62.91,53.12c0.52,0.64,1,2.21,0.98,3.45C63.7,78.13,53.99,89.5,38,96.12" /><path d="M64.84,67.55C71.21,74.21,85,89.89,91.35,94.34c2.16,1.51,2.92,1.74,3.9,1.88" /></g></g></g></g></g><g fill="none" stroke="#000" stroke-width="5" stroke-linecap="round" stroke-linejoin="round"><g><g><path d="M32.99,12.89c0.14,1.13,0.24,2.55-0.13,3.93c-2.34,8.78-11.39,25.75-22.3,37.64" stroke-dasharray="48.02" stroke-dashoffset="48.02"><animate id="0" attributeName="stroke-dashoffset" values="48.02;0" dur="0.48s" fill="freeze" begin="0s;4fe3.click" /></path><path d="M25.48,39c0.67,0.7,0.86,2.24,0.86,3.68c0,14.83-0.33,45.73-0.33,55.7" stroke-dasharray="59.56" stroke-dashoffset="59.56"><animate attributeName="stroke-dashoffset" values="59.56" fill="freeze" begin="4fe3.click" /><animate id="1" attributeName="stroke-dashoffset" values="59.56;0" dur="0.6s" fill="freeze" begin="0.end" /></path></g><g><g><path d="M46.5,15.1c0.38,0.47,0.77,0.86,0.94,1.45c1.32,4.66,2.4,15.03,3.3,23.41" stroke-dasharray="25.4" stroke-dashoffset="25.4"><animate attributeName="stroke-dashoffset" values="25.4" fill="freeze" begin="4fe3.click" /><animate id="2" attributeName="stroke-dashoffset" values="25.4;0" dur="0.25s" fill="freeze" begin="1.end" /></path><path d="M48.87,16.71C59.5,15,74.24,13.68,79.04,13.02c1.76-0.24,2.81,2.43,2.56,3.85c-1.04,5.87-2.23,10.93-4.46,19.4" stroke-dasharray="55.53" stroke-dashoffset="55.53"><animate attributeName="stroke-dashoffset" values="55.53" fill="freeze" begin="4fe3.click" /><animate id="3" attributeName="stroke-dashoffset" values="55.53;0" dur="0.56s" fill="freeze" begin="2.end" /></path><path d="M51.61,38.88c5.64-0.75,21.63-2.13,28.79-2.88" stroke-dasharray="28.93" stroke-dashoffset="28.93"><animate attributeName="stroke-dashoffset" values="28.93" fill="freeze" begin="4fe3.click" /><animate id="4" attributeName="stroke-dashoffset" values="28.93;0" dur="0.29s" fill="freeze" begin="3.end" /></path></g><g><path d="M45.96,50.65c0.83,0.29,2.36,0.31,3.19,0.29c9.35-0.19,22.35-2.44,32.37-3.15c1.38-0.1,2.22,0.14,2.91,0.28" stroke-dasharray="38.69" stroke-dashoffset="38.69"><animate attributeName="stroke-dashoffset" values="38.69" fill="freeze" begin="4fe3.click" /><animate id="5" attributeName="stroke-dashoffset" values="38.69;0" dur="0.39s" fill="freeze" begin="4.end" /></path><g><path d="M37.53,69.12c0.87,0.22,3.1,0.41,4.04,0.31c8.75-0.94,37.96-3.01,47.42-3.2c1.2-0.02,3.38,0.03,5.59,0.46" stroke-dasharray="57.22" stroke-dashoffset="57.22"><animate attributeName="stroke-dashoffset" values="57.22" fill="freeze" begin="4fe3.click" /><animate id="6" attributeName="stroke-dashoffset" values="57.22;0" dur="0.57s" fill="freeze" begin="5.end" /></path><path d="M62.91,53.12c0.52,0.64,1,2.21,0.98,3.45C63.7,78.13,53.99,89.5,38,96.12" stroke-dasharray="54.31" stroke-dashoffset="54.31"><animate attributeName="stroke-dashoffset" values="54.31" fill="freeze" begin="4fe3.click" /><animate id="7" attributeName="stroke-dashoffset" values="54.31;0" dur="0.54s" fill="freeze" begin="6.end" /></path><path d="M64.84,67.55C71.21,74.21,85,89.89,91.35,94.34c2.16,1.51,2.92,1.74,3.9,1.88" stroke-dasharray="42.11" stroke-dashoffset="42.11"><animate attributeName="stroke-dashoffset" values="42.11" fill="freeze" begin="4fe3.click" /><animate id="8" attributeName="stroke-dashoffset" values="42.11;0" dur="0.42s" fill="freeze" begin="7.end" /></path></g></g></g></g></g></svg>