<svg xmlns="http://www.w3.org/2000/svg" width="109" height="109" viewBox="0 0 109 109" id="4fe5"><g fill="none" stroke="#666" stroke-width="9" stroke-linecap="round" stroke-linejoin="round"><g><g><path d="M32.99,14.89c0.14,1.18,0.24,2.67-0.12,4.12c-2.34,9.2-11.39,26.98-22.3,39.45" /><path d="M25.99,41c0.66,0.68,0.84,2.19,0.84,3.58c0,14.46-0.32,40.08-0.32,49.79" /></g><g><path d="M43.19,25.87c0.95,0.38,2.7,0.51,3.64,0.38c13.85-1.88,23.43-2.88,36.9-3.88c1.58-0.12,2.54,0.18,3.33,0.37" /><path d="M39.84,37.78c0.74,0.5,1.69,2.39,1.83,3.05c1.01,4.81,2.22,18.17,3.63,27.28" /><path d="M41.2,39.36c11.3-1.15,35.96-4.58,43.66-4.76c3.19-0.07,3.84,1.57,3.71,3.36c-0.47,6.17-2.12,16.28-4.65,26.4" /><path d="M43.36,52.12c8.52-0.25,29.39-2.87,43.36-3.25" /><path d="M45.36,66.12c9.9-1,25.16-2.5,38.05-2.5" /><path d="M37.25,80.41c1.36,0.77,3.82,0.9,5.19,0.77C54.5,80,73.78,77.87,89.76,77.37c2.26-0.07,3.61,0.37,4.74,0.75" /><path d="M62.95,11c0.7,0.6,1.31,2.5,1.31,5.16c0,7.59-0.23,70.09-0.23,82.59" /></g></g></g><g fill="none" stroke="#000" stroke-width="5" stroke-linecap="round" stroke-linejoin="round"><g><g><path d="M32.99,14.89c0.14,1.18,0.24,2.67-0.12,4.12c-2.34,9.2-11.39,26.98-22.3,39.45" stroke-dasharray="49.77" stroke-dashoffset="49.77"><animate id="0" attributeName="stroke-dashoffset" values="49.77;0" dur="0.5s" fill="freeze" begin="0s;4fe5.click" /></path><path d="M25.99,41c0.66,0.68,0.84,2.19,0.84,3.58c0,14.46-0.32,40.08-0.32,49.79" stroke-dasharray="53.54" stroke-dashoffset="53.54"><animate attributeName="stroke-dashoffset" values="53.54" fill="freeze" begin="4fe5.click" /><animate id="1" attributeName="stroke-dashoffset" values="53.54;0" dur="0.54s" fill="freeze" begin="0.end" /></path></g><g><path d="M43.19,25.87c0.95,0.38,2.7,0.51,3.64,0.38c13.85-1.88,23.43-2.88,36.9-3.88c1.58-0.12,2.54,0.18,3.33,0.37" stroke-dasharray="44.17" stroke-dashoffset="44.17"><animate attributeName="stroke-dashoffset" values="44.17" fill="freeze" begin="4fe5.click" /><animate id="2" attributeName="stroke-dashoffset" values="44.17;0" dur="0.44s" fill="freeze" begin="1.end" /></path><path d="M39.84,37.78c0.74,0.5,1.69,2.39,1.83,3.05c1.01,4.81,2.22,18.17,3.63,27.28" stroke-dasharray="31.13" stroke-dashoffset="31.13"><animate attributeName="stroke-dashoffset" values="31.13" fill="freeze" begin="4fe5.click" /><animate id="3" attributeName="stroke-dashoffset" values="31.13;0" dur="0.31s" fill="freeze" begin="2.end" /></path><path d="M41.2,39.36c11.3-1.15,35.96-4.58,43.66-4.76c3.19-0.07,3.84,1.57,3.71,3.36c-0.47,6.17-2.12,16.28-4.65,26.4" stroke-dasharray="76.64" stroke-dashoffset="76.64"><animate attributeName="stroke-dashoffset" values="76.64" fill="freeze" begin="4fe5.click" /><animate id="4" attributeName="stroke-dashoffset" values="76.64;0" dur="0.58s" fill="freeze" begin="3.end" /></path><path d="M43.36,52.12c8.52-0.25,29.39-2.87,43.36-3.25" stroke-dasharray="43.49" stroke-dashoffset="43.49"><animate attributeName="stroke-dashoffset" values="43.49" fill="freeze" begin="4fe5.click" /><animate id="5" attributeName="stroke-dashoffset" values="43.49;0" dur="0.43s" fill="freeze" begin="4.end" /></path><path d="M45.36,66.12c9.9-1,25.16-2.5,38.05-2.5" stroke-dasharray="38.15" stroke-dashoffset="38.15"><animate attributeName="stroke-dashoffset" values="38.15" fill="freeze" begin="4fe5.click" /><animate id="6" attributeName="stroke-dashoffset" values="38.15;0" dur="0.38s" fill="freeze" begin="5.end" /></path><path d="M37.25,80.41c1.36,0.77,3.82,0.9,5.19,0.77C54.5,80,73.78,77.87,89.76,77.37c2.26-0.07,3.61,0.37,4.74,0.75" stroke-dasharray="57.62" stroke-dashoffset="57.62"><animate attributeName="stroke-dashoffset" values="57.62" fill="freeze" begin="4fe5.click" /><animate id="7" attributeName="stroke-dashoffset" values="57.62;0" dur="0.58s" fill="freeze" begin="6.end" /></path><path d="M62.95,11c0.7,0.6,1.31,2.5,1.31,5.16c0,7.59-0.23,70.09-0.23,82.59" stroke-dasharray="88.03" stroke-dashoffset="88.03"><animate attributeName="stroke-dashoffset" values="88.03" fill="freeze" begin="4fe5.click" /><animate id="8" attributeName="stroke-dashoffset" values="88.03;0" dur="0.66s" fill="freeze" begin="7.end" /></path></g></g></g></svg>