<svg xmlns="http://www.w3.org/2000/svg" width="109" height="109" viewBox="0 0 109 109" id="4ff5"><g fill="none" stroke="#666" stroke-width="9" stroke-linecap="round" stroke-linejoin="round"><g><g><path d="M31.76,17.5c0.21,2.01-0.06,3.15-0.75,4.87c-4.39,10.99-10.45,22.8-20.51,36.17" /><path d="M23.28,43c0.73,0.73,1.26,1.97,1.26,3.23c0,10.06-0.03,30.12-0.04,42.02c0,2.91,0,5.33,0,7" /></g><g p4:phon="шби" xmlns:p4="http://kanjivg.tagaini.net"><g><g><path d="M42.99,26.15c1.76,0.35,3.65,0.31,4.99,0.09c7.17-1.21,20.46-3.09,28.65-3.99c1.79-0.2,3.43-0.37,5.19,0.12" /></g><path d="M59.46,13c0.83,0.83,1.55,2.25,1.55,3.75c0,1.01,0.22,24.38,0.22,32" /><g><path d="M44.02,39.14c1.61,0.49,3.68,0.33,5.34,0.02C55.5,38,68.09,36.22,74.38,35.4c1.66-0.22,3-0.27,4.74-0.14" /></g></g><g p4:partial><g p4:partial><path d="M34.34,51.95c2.56,1.16,6.36,0.58,9.04,0.23c10.6-1.39,31.63-4.52,43.61-5.62c2.75-0.25,5.33-0.5,8.03,0.23" /></g><g><path d="M57.29,52.89c0.08,0.75-0.24,1.87-0.91,2.76c-6.08,8.11-12.63,14.48-26.57,23.82" /><path d="M49.63,67c0.75,0.75,1.29,1.62,1.29,3c0,11.82-0.01,19.94-0.01,21.94s0.56,2.7,2.88,0.89c2.96-2.32,9.46-7.82,13.96-11.34" /><path d="M81.39,54.89c0,0.98-0.47,1.68-0.8,2.08c-2.21,2.65-4.71,4.78-9.96,9.03" /><path d="M59.93,61.75c2.71,0.58,19.4,15.52,26.73,21.6c1.96,1.62,4.34,3.4,6.84,4.4" /></g></g></g></g></g><g fill="none" stroke="#000" stroke-width="5" stroke-linecap="round" stroke-linejoin="round"><path d="M31.76,17.5c0.21,2.01-0.06,3.15-0.75,4.87c-4.39,10.99-10.45,22.8-20.51,36.17" stroke-dasharray="46.699" stroke-dashoffset="46.699"><animate attributeName="stroke-dashoffset" values="46.699;46.699;0" dur="0.467s" fill="freeze" begin="0s;4ff5.click" /></path><path d="M23.28,43c0.73,0.73,1.26,1.97,1.26,3.23c0,10.06-0.03,30.12-0.04,42.02c0,2.91,0,5.33,0,7" stroke-dasharray="52.572" stroke-dashoffset="52.572"><animate attributeName="stroke-dashoffset" values="52.572" fill="freeze" begin="4ff5.click" /><animate attributeName="stroke-dashoffset" values="52.572;52.572;0" keyTimes="0;0.47;1" dur="0.993s" fill="freeze" begin="0s;4ff5.click" /></path><path d="M42.99,26.15c1.76,0.35,3.65,0.31,4.99,0.09c7.17-1.21,20.46-3.09,28.65-3.99c1.79-0.2,3.43-0.37,5.19,0.12" stroke-dasharray="39.173" stroke-dashoffset="39.173"><animate attributeName="stroke-dashoffset" values="39.173" fill="freeze" begin="4ff5.click" /><animate attributeName="stroke-dashoffset" values="39.173;39.173;0" keyTimes="0;0.717;1" dur="1.385s" fill="freeze" begin="0s;4ff5.click" /></path><path d="M59.46,13c0.83,0.83,1.55,2.25,1.55,3.75c0,1.01,0.22,24.38,0.22,32" stroke-dasharray="36.158" stroke-dashoffset="36.158"><animate attributeName="stroke-dashoffset" values="36.158" fill="freeze" begin="4ff5.click" /><animate attributeName="stroke-dashoffset" values="36.158;36.158;0" keyTimes="0;0.793;1" dur="1.747s" fill="freeze" begin="0s;4ff5.click" /></path><path d="M44.02,39.14c1.61,0.49,3.68,0.33,5.34,0.02C55.5,38,68.09,36.22,74.38,35.4c1.66-0.22,3-0.27,4.74-0.14" stroke-dasharray="35.443" stroke-dashoffset="35.443"><animate attributeName="stroke-dashoffset" values="35.443" fill="freeze" begin="4ff5.click" /><animate attributeName="stroke-dashoffset" values="35.443;35.443;0" keyTimes="0;0.832;1" dur="2.101s" fill="freeze" begin="0s;4ff5.click" /></path><path d="M34.34,51.95c2.56,1.16,6.36,0.58,9.04,0.23c10.6-1.39,31.63-4.52,43.61-5.62c2.75-0.25,5.33-0.5,8.03,0.23" stroke-dasharray="61.209" stroke-dashoffset="61.209"><animate attributeName="stroke-dashoffset" values="61.209" fill="freeze" begin="4ff5.click" /><animate attributeName="stroke-dashoffset" values="61.209;61.209;0" keyTimes="0;0.82;1" dur="2.561s" fill="freeze" begin="0s;4ff5.click" /></path><path d="M57.29,52.89c0.08,0.75-0.24,1.87-0.91,2.76c-6.08,8.11-12.63,14.48-26.57,23.82" stroke-dasharray="38.845" stroke-dashoffset="38.845"><animate attributeName="stroke-dashoffset" values="38.845" fill="freeze" begin="4ff5.click" /><animate attributeName="stroke-dashoffset" values="38.845;38.845;0" keyTimes="0;0.868;1" dur="2.949s" fill="freeze" begin="0s;4ff5.click" /></path><path d="M49.63,67c0.75,0.75,1.29,1.62,1.29,3c0,11.82-0.01,19.94-0.01,21.94s0.56,2.7,2.88,0.89c2.96-2.32,9.46-7.82,13.96-11.34" stroke-dasharray="47.946" stroke-dashoffset="47.946"><animate attributeName="stroke-dashoffset" values="47.946" fill="freeze" begin="4ff5.click" /><animate attributeName="stroke-dashoffset" values="47.946;47.946;0" keyTimes="0;0.86;1" dur="3.428s" fill="freeze" begin="0s;4ff5.click" /></path><path d="M81.39,54.89c0,0.98-0.47,1.68-0.8,2.08c-2.21,2.65-4.71,4.78-9.96,9.03" stroke-dasharray="15.742" stroke-dashoffset="15.742"><animate attributeName="stroke-dashoffset" values="15.742" fill="freeze" begin="4ff5.click" /><animate attributeName="stroke-dashoffset" values="15.742;15.742;0" keyTimes="0;0.956;1" dur="3.585s" fill="freeze" begin="0s;4ff5.click" /></path><path d="M59.93,61.75c2.71,0.58,19.4,15.52,26.73,21.6c1.96,1.62,4.34,3.4,6.84,4.4" stroke-dasharray="42.59" stroke-dashoffset="42.59"><animate attributeName="stroke-dashoffset" values="42.59" fill="freeze" begin="4ff5.click" /><animate attributeName="stroke-dashoffset" values="42.59;42.59;0" keyTimes="0;0.894;1" dur="4.011s" fill="freeze" begin="0s;4ff5.click" /></path></g></svg>