<svg xmlns="http://www.w3.org/2000/svg" width="109" height="109" viewBox="0 0 109 109" id="4ff6"><g fill="none" stroke="#666" stroke-width="9" stroke-linecap="round" stroke-linejoin="round"><g><g><path d="M30.5,17.89c0.12,1.14,0.21,2.58-0.11,3.98c-2.06,8.88-10,26.05-19.58,38.09" /><path d="M23.49,45c0.66,0.68,0.84,2.19,0.84,3.58c0,14.46-0.32,38.08-0.32,47.79" /></g><g><g><g><g><path d="M45.33,13.88c0.66,0.43,2.07,3.18,2.2,4.04c0.13,0.85-0.09,24.15-0.22,29.47" /><path d="M47.92,31.27c1.76,0,4.97-0.93,10.1-1.64c1.84-0.25,2.64-0.23,3.74-0.18" /></g><g><path d="M30.41,49.05c2.15,0.72,3.19,0.72,5,0.6c6.8-0.45,17.46-3.01,25.76-3.71c1.04-0.09,3.15-0.33,4.27,0.07" /></g></g><g><path d="M47.21,50.53c0.07,0.41,1.07,2.12,1.07,4.71c0,13.52-0.22,29.57-0.22,33.8c0,9.59-6.14,1.28-7.42,0.21" /><path d="M38.82,62.79c0.03,0.51,0.05,1.31-0.05,2.04c-0.63,4.31-4.25,13.76-9.2,19.55" /><path d="M56.28,61.61c2.25,2.78,5.82,11.42,6.38,15.75" /></g></g><g><path d="M67.51,29.51c1.39,0.46,1.52,0.93,4.35,0.46c3.76-0.63,15.52-3.61,17.49-4.07c2.22-0.52,4.37,1.44,3.67,3.95c-8.17,29.62-14.77,46.91-33.75,64.91" /><path d="M67.66,37.54C70,44.5,83.69,75.85,92.71,88.44c1.64,2.29,3.91,4.89,5.44,5.65" /></g></g></g></g><g fill="none" stroke="#000" stroke-width="5" stroke-linecap="round" stroke-linejoin="round"><g><g><path d="M30.5,17.89c0.12,1.14,0.21,2.58-0.11,3.98c-2.06,8.88-10,26.05-19.58,38.09" stroke-dasharray="47.09" stroke-dashoffset="47.09"><animate id="0" attributeName="stroke-dashoffset" values="47.09;0" dur="0.47s" fill="freeze" begin="0s;4ff6.click" /></path><path d="M23.49,45c0.66,0.68,0.84,2.19,0.84,3.58c0,14.46-0.32,38.08-0.32,47.79" stroke-dasharray="51.54" stroke-dashoffset="51.54"><animate attributeName="stroke-dashoffset" values="51.54" fill="freeze" begin="4ff6.click" /><animate id="1" attributeName="stroke-dashoffset" values="51.54;0" dur="0.52s" fill="freeze" begin="0.end" /></path></g><g><g><g><g><path d="M45.33,13.88c0.66,0.43,2.07,3.18,2.2,4.04c0.13,0.85-0.09,24.15-0.22,29.47" stroke-dasharray="34.12" stroke-dashoffset="34.12"><animate attributeName="stroke-dashoffset" values="34.12" fill="freeze" begin="4ff6.click" /><animate id="2" attributeName="stroke-dashoffset" values="34.12;0" dur="0.34s" fill="freeze" begin="1.end" /></path><path d="M47.92,31.27c1.76,0,4.97-0.93,10.1-1.64c1.84-0.25,2.64-0.23,3.74-0.18" stroke-dasharray="13.99" stroke-dashoffset="13.99"><animate attributeName="stroke-dashoffset" values="13.99" fill="freeze" begin="4ff6.click" /><animate id="3" attributeName="stroke-dashoffset" values="13.99;0" dur="0.14s" fill="freeze" begin="2.end" /></path></g><g><path d="M30.41,49.05c2.15,0.72,3.19,0.72,5,0.6c6.8-0.45,17.46-3.01,25.76-3.71c1.04-0.09,3.15-0.33,4.27,0.07" stroke-dasharray="35.41" stroke-dashoffset="35.41"><animate attributeName="stroke-dashoffset" values="35.41" fill="freeze" begin="4ff6.click" /><animate id="4" attributeName="stroke-dashoffset" values="35.41;0" dur="0.35s" fill="freeze" begin="3.end" /></path></g></g><g><path d="M47.21,50.53c0.07,0.41,1.07,2.12,1.07,4.71c0,13.52-0.22,29.57-0.22,33.8c0,9.59-6.14,1.28-7.42,0.21" stroke-dasharray="51.27" stroke-dashoffset="51.27"><animate attributeName="stroke-dashoffset" values="51.27" fill="freeze" begin="4ff6.click" /><animate id="5" attributeName="stroke-dashoffset" values="51.27;0" dur="0.51s" fill="freeze" begin="4.end" /></path><path d="M38.82,62.79c0.03,0.51,0.05,1.31-0.05,2.04c-0.63,4.31-4.25,13.76-9.2,19.55" stroke-dasharray="23.86" stroke-dashoffset="23.86"><animate attributeName="stroke-dashoffset" values="23.86" fill="freeze" begin="4ff6.click" /><animate id="6" attributeName="stroke-dashoffset" values="23.86;0" dur="0.24s" fill="freeze" begin="5.end" /></path><path d="M56.28,61.61c2.25,2.78,5.82,11.42,6.38,15.75" stroke-dasharray="17.11" stroke-dashoffset="17.11"><animate attributeName="stroke-dashoffset" values="17.11" fill="freeze" begin="4ff6.click" /><animate id="7" attributeName="stroke-dashoffset" values="17.11;0" dur="0.17s" fill="freeze" begin="6.end" /></path></g></g><g><path d="M67.51,29.51c1.39,0.46,1.52,0.93,4.35,0.46c3.76-0.63,15.52-3.61,17.49-4.07c2.22-0.52,4.37,1.44,3.67,3.95c-8.17,29.62-14.77,46.91-33.75,64.91" stroke-dasharray="103.24" stroke-dashoffset="103.24"><animate attributeName="stroke-dashoffset" values="103.24" fill="freeze" begin="4ff6.click" /><animate id="8" attributeName="stroke-dashoffset" values="103.24;0" dur="0.78s" fill="freeze" begin="7.end" /></path><path d="M67.66,37.54C70,44.5,83.69,75.85,92.71,88.44c1.64,2.29,3.91,4.89,5.44,5.65" stroke-dasharray="64.73" stroke-dashoffset="64.73"><animate attributeName="stroke-dashoffset" values="64.73" fill="freeze" begin="4ff6.click" /><animate id="9" attributeName="stroke-dashoffset" values="64.73;0" dur="0.49s" fill="freeze" begin="8.end" /></path></g></g></g></g></svg>