<svg xmlns="http://www.w3.org/2000/svg" width="109" height="109" viewBox="0 0 109 109" id="4ff8"><g fill="none" stroke="#666" stroke-width="9" stroke-linecap="round" stroke-linejoin="round"><g><g><path d="M31.49,13.39c0.13,1.18,0.23,2.67-0.12,4.12c-2.24,9.2-11.12,26.23-21.56,39.45" /><path d="M23.28,39.25c1.05,1.05,1.26,2.25,1.26,3.98c0,10.73,0.05,35.88-0.02,49.02c-0.01,2.8-0.02,5.09-0.02,6.62" /></g><g p4:phon="奉" xmlns:p4="http://kanjivg.tagaini.net"><g><g><g><path d="M42.9,23.93c1.85,0.32,4.4,0.08,6.1-0.03c9.16-0.58,17.33-1.91,26.25-2.47c1.96-0.12,3.87-0.29,5.79,0.21" /></g><g><g><path d="M43.37,35.17c2.13,0.71,4.36,0.34,6.14,0.16c5.92-0.59,13.11-1.33,21.74-2.11c1.96-0.18,4.17-0.24,6.08,0.32" /></g><g p4:part="1"><g><path d="M33,48.23c2.22,0.95,4.95,0.54,7.27,0.36C54,47.5,68.5,45.88,84.25,45.09c2.89-0.14,5.87-0.5,8.7,0.23" /></g></g></g></g><g p4:part="2"><g><path d="M60.3,9.75c0.58,1.12,0.61,2.01,0.3,4.11C58.29,29.89,48.75,59.25,31,71" /><path d="M64.87,40.5c2,0.75,20.23,19.64,25.03,23.35C91.53,65.1,93,66.12,95,67" /></g></g></g><g><path d="M47.03,67.23c1.33,0.61,3.94,0.49,5.35,0.4c5.61-0.37,15.53-1.59,20.99-2.06c1.66-0.14,3.35-0.36,4.99,0.09" /><path d="M38.9,81.58c2.35,0.67,5.08,0.62,7.24,0.44c8.5-0.68,24.65-2.6,32.86-2.89c2.32-0.08,4.88-0.19,7.15,0.43" /><g><path d="M60.25,54.83c1.21,1.21,1.31,2.29,1.31,4.27c0,11.1,0.12,26.4,0.03,34.65c-0.03,2.57-0.05,4.57-0.05,5.75" /></g></g></g></g></g><g fill="none" stroke="#000" stroke-width="5" stroke-linecap="round" stroke-linejoin="round"><g><g><path d="M31.49,13.39c0.13,1.18,0.23,2.67-0.12,4.12c-2.24,9.2-11.12,26.23-21.56,39.45" stroke-dasharray="49.35" stroke-dashoffset="49.35"><animate id="0" attributeName="stroke-dashoffset" values="49.35;0" dur="0.49s" fill="freeze" begin="0s;4ff8.click" /></path><path d="M23.28,39.25c1.05,1.05,1.26,2.25,1.26,3.98c0,10.73,0.05,35.88-0.02,49.02c-0.01,2.8-0.02,5.09-0.02,6.62" stroke-dasharray="59.94" stroke-dashoffset="59.94"><animate attributeName="stroke-dashoffset" values="59.94" fill="freeze" begin="4ff8.click" /><animate id="1" attributeName="stroke-dashoffset" values="59.94;0" dur="0.6s" fill="freeze" begin="0.end" /></path></g><g p4:phon="奉" xmlns:p4="http://kanjivg.tagaini.net"><g><g><g><path d="M42.9,23.93c1.85,0.32,4.4,0.08,6.1-0.03c9.16-0.58,17.33-1.91,26.25-2.47c1.96-0.12,3.87-0.29,5.79,0.21" stroke-dasharray="38.3" stroke-dashoffset="38.3"><animate attributeName="stroke-dashoffset" values="38.3" fill="freeze" begin="4ff8.click" /><animate id="2" attributeName="stroke-dashoffset" values="38.3;0" dur="0.38s" fill="freeze" begin="1.end" /></path></g><g><g><path d="M43.37,35.17c2.13,0.71,4.36,0.34,6.14,0.16c5.92-0.59,13.11-1.33,21.74-2.11c1.96-0.18,4.17-0.24,6.08,0.32" stroke-dasharray="34.16" stroke-dashoffset="34.16"><animate attributeName="stroke-dashoffset" values="34.16" fill="freeze" begin="4ff8.click" /><animate id="3" attributeName="stroke-dashoffset" values="34.16;0" dur="0.34s" fill="freeze" begin="2.end" /></path></g><g p4:part="1"><g><path d="M33,48.23c2.22,0.95,4.95,0.54,7.27,0.36C54,47.5,68.5,45.88,84.25,45.09c2.89-0.14,5.87-0.5,8.7,0.23" stroke-dasharray="60.22" stroke-dashoffset="60.22"><animate attributeName="stroke-dashoffset" values="60.22" fill="freeze" begin="4ff8.click" /><animate id="4" attributeName="stroke-dashoffset" values="60.22;0" dur="0.45s" fill="freeze" begin="3.end" /></path></g></g></g></g><g p4:part="2"><g><path d="M60.3,9.75c0.58,1.12,0.61,2.01,0.3,4.11C58.29,29.89,48.75,59.25,31,71" stroke-dasharray="70.15" stroke-dashoffset="70.15"><animate attributeName="stroke-dashoffset" values="70.15" fill="freeze" begin="4ff8.click" /><animate id="5" attributeName="stroke-dashoffset" values="70.15;0" dur="0.53s" fill="freeze" begin="4.end" /></path><path d="M64.87,40.5c2,0.75,20.23,19.64,25.03,23.35C91.53,65.1,93,66.12,95,67" stroke-dasharray="40.27" stroke-dashoffset="40.27"><animate attributeName="stroke-dashoffset" values="40.27" fill="freeze" begin="4ff8.click" /><animate id="6" attributeName="stroke-dashoffset" values="40.27;0" dur="0.4s" fill="freeze" begin="5.end" /></path></g></g></g><g><path d="M47.03,67.23c1.33,0.61,3.94,0.49,5.35,0.4c5.61-0.37,15.53-1.59,20.99-2.06c1.66-0.14,3.35-0.36,4.99,0.09" stroke-dasharray="31.52" stroke-dashoffset="31.52"><animate attributeName="stroke-dashoffset" values="31.52" fill="freeze" begin="4ff8.click" /><animate id="7" attributeName="stroke-dashoffset" values="31.52;0" dur="0.32s" fill="freeze" begin="6.end" /></path><path d="M38.9,81.58c2.35,0.67,5.08,0.62,7.24,0.44c8.5-0.68,24.65-2.6,32.86-2.89c2.32-0.08,4.88-0.19,7.15,0.43" stroke-dasharray="47.47" stroke-dashoffset="47.47"><animate attributeName="stroke-dashoffset" values="47.47" fill="freeze" begin="4ff8.click" /><animate id="8" attributeName="stroke-dashoffset" values="47.47;0" dur="0.47s" fill="freeze" begin="7.end" /></path><g><path d="M60.25,54.83c1.21,1.21,1.31,2.29,1.31,4.27c0,11.1,0.12,26.4,0.03,34.65c-0.03,2.57-0.05,4.57-0.05,5.75" stroke-dasharray="45.02" stroke-dashoffset="45.02"><animate attributeName="stroke-dashoffset" values="45.02" fill="freeze" begin="4ff8.click" /><animate id="9" attributeName="stroke-dashoffset" values="45.02;0" dur="0.45s" fill="freeze" begin="8.end" /></path></g></g></g></g></g></svg>