<svg xmlns="http://www.w3.org/2000/svg" width="109" height="109" viewBox="0 0 109 109" id="5006"><g fill="none" stroke="#666" stroke-width="9" stroke-linecap="round" stroke-linejoin="round"><g><g><path d="M30,15.39c0.12,1.15,0.21,2.59-0.11,4.01c-2,8.93-9.75,26.21-19.09,38.32" /><path d="M23.94,39c0.74,0.76,0.95,2.46,0.95,4.04c0,16.29-0.36,41.89-0.36,52.84" /></g><g><path d="M41.47,21.93c1.39,0.44,2.32,0.7,3.7,0.65c6.23-0.2,24.87-3.2,37.83-3.94c1.85-0.11,3.25-0.13,5.33,0.31" /><g><path d="M37.75,42.27c0.14,0.69,0.97,3.78,1.11,5.18c1.06,10.25,1.31,39.96,1.31,44.57" /><path d="M39.06,45.71c9.87-0.96,45.96-5.76,52.17-6.5c2.01-0.24,3.7,0.97,3.63,3.61c-0.35,13.43-2.35,33.93-5.61,46.35c-1.81,6.9-4.63,4.82-7.25,0" /></g><path d="M63.94,23.34c1.01,1.2,1.81,2.65,1.81,4.33c0,0.96-0.6,60.52-0.6,63.17" /><g><path d="M52.43,58.88c-1.44,3.85-5.18,9.31-8.17,11.49" /><path d="M46.8,52.4c0.51,0,0.97,0.42,1.22,0.72c4.07,5.08,8.69,10.3,12.46,13.89c0.43,0.41,0.83,0.55,1.28,0.67" /></g><g><path d="M78.62,56.3c-1.41,3.5-5.06,8.45-7.99,10.43" /><path d="M74.09,50.73c0.49,0,0.97,0.37,1.16,0.69c2.88,4.71,7.23,9.95,11.89,13.24c0.47,0.33,0.8,0.53,1.23,0.64" /></g></g></g></g><g fill="none" stroke="#000" stroke-width="5" stroke-linecap="round" stroke-linejoin="round"><g><g><path d="M30,15.39c0.12,1.15,0.21,2.59-0.11,4.01c-2,8.93-9.75,26.21-19.09,38.32" stroke-dasharray="47.09" stroke-dashoffset="47.09"><animate id="0" attributeName="stroke-dashoffset" values="47.09;0" dur="0.47s" fill="freeze" begin="0s;5006.click" /></path><path d="M23.94,39c0.74,0.76,0.95,2.46,0.95,4.04c0,16.29-0.36,41.89-0.36,52.84" stroke-dasharray="57.08" stroke-dashoffset="57.08"><animate attributeName="stroke-dashoffset" values="57.08" fill="freeze" begin="5006.click" /><animate id="1" attributeName="stroke-dashoffset" values="57.08;0" dur="0.57s" fill="freeze" begin="0.end" /></path></g><g><path d="M41.47,21.93c1.39,0.44,2.32,0.7,3.7,0.65c6.23-0.2,24.87-3.2,37.83-3.94c1.85-0.11,3.25-0.13,5.33,0.31" stroke-dasharray="47.18" stroke-dashoffset="47.18"><animate attributeName="stroke-dashoffset" values="47.18" fill="freeze" begin="5006.click" /><animate id="2" attributeName="stroke-dashoffset" values="47.18;0" dur="0.47s" fill="freeze" begin="1.end" /></path><g><path d="M37.75,42.27c0.14,0.69,0.97,3.78,1.11,5.18c1.06,10.25,1.31,39.96,1.31,44.57" stroke-dasharray="49.9" stroke-dashoffset="49.9"><animate attributeName="stroke-dashoffset" values="49.9" fill="freeze" begin="5006.click" /><animate id="3" attributeName="stroke-dashoffset" values="49.9;0" dur="0.5s" fill="freeze" begin="2.end" /></path><path d="M39.06,45.71c9.87-0.96,45.96-5.76,52.17-6.5c2.01-0.24,3.7,0.97,3.63,3.61c-0.35,13.43-2.35,33.93-5.61,46.35c-1.81,6.9-4.63,4.82-7.25,0" stroke-dasharray="117.33" stroke-dashoffset="117.33"><animate attributeName="stroke-dashoffset" values="117.33" fill="freeze" begin="5006.click" /><animate id="4" attributeName="stroke-dashoffset" values="117.33;0" dur="0.88s" fill="freeze" begin="3.end" /></path></g><path d="M63.94,23.34c1.01,1.2,1.81,2.65,1.81,4.33c0,0.96-0.6,60.52-0.6,63.17" stroke-dasharray="67.97" stroke-dashoffset="67.97"><animate attributeName="stroke-dashoffset" values="67.97" fill="freeze" begin="5006.click" /><animate id="5" attributeName="stroke-dashoffset" values="67.97;0" dur="0.51s" fill="freeze" begin="4.end" /></path><g><path d="M52.43,58.88c-1.44,3.85-5.18,9.31-8.17,11.49" stroke-dasharray="14.24" stroke-dashoffset="14.24"><animate attributeName="stroke-dashoffset" values="14.24" fill="freeze" begin="5006.click" /><animate id="6" attributeName="stroke-dashoffset" values="14.24;0" dur="0.14s" fill="freeze" begin="5.end" /></path><path d="M46.8,52.4c0.51,0,0.97,0.42,1.22,0.72c4.07,5.08,8.69,10.3,12.46,13.89c0.43,0.41,0.83,0.55,1.28,0.67" stroke-dasharray="21.6" stroke-dashoffset="21.6"><animate attributeName="stroke-dashoffset" values="21.6" fill="freeze" begin="5006.click" /><animate id="7" attributeName="stroke-dashoffset" values="21.6;0" dur="0.22s" fill="freeze" begin="6.end" /></path></g><g><path d="M78.62,56.3c-1.41,3.5-5.06,8.45-7.99,10.43" stroke-dasharray="13.28" stroke-dashoffset="13.28"><animate attributeName="stroke-dashoffset" values="13.28" fill="freeze" begin="5006.click" /><animate id="8" attributeName="stroke-dashoffset" values="13.28;0" dur="0.13s" fill="freeze" begin="7.end" /></path><path d="M74.09,50.73c0.49,0,0.97,0.37,1.16,0.69c2.88,4.71,7.23,9.95,11.89,13.24c0.47,0.33,0.8,0.53,1.23,0.64" stroke-dasharray="20.71" stroke-dashoffset="20.71"><animate attributeName="stroke-dashoffset" values="20.71" fill="freeze" begin="5006.click" /><animate id="9" attributeName="stroke-dashoffset" values="20.71;0" dur="0.21s" fill="freeze" begin="8.end" /></path></g></g></g></g></svg>