<svg xmlns="http://www.w3.org/2000/svg" width="109" height="109" viewBox="0 0 109 109" id="500d"><g fill="none" stroke="#666" stroke-width="9" stroke-linecap="round" stroke-linejoin="round"><g><g><path d="M33.13,15.75c0.2,1.99-0.06,3.58-0.7,5.29c-4.1,10.86-9.29,21.56-18.68,34.78" /><path d="M26.11,39.92c0.99,0.99,1.5,2.51,1.49,4.08c-0.03,11.48-0.17,33.19-0.21,44.75c-0.01,2.14-0.01,3.94-0.01,5.25" /></g><g p4:phon="倍right" xmlns:p4="http://kanjivg.tagaini.net"><g><g><path d="M61.75,13.75c0.94,0.94,1.75,2.25,1.75,4s0,6.25,0,11" /><path d="M43.75,30.45c1.51,0.33,3.28,0.49,4.78,0.33c9.72-1.03,23.35-3.03,33.06-3.77c2.51-0.19,4.02,0.16,5.28,0.32" /></g><g><path d="M51.25,37.38c4.04,4.8,5.88,9.71,6.25,12.88" /><path d="M78.36,33.25c0.39,0.88,0.39,1.62,0.16,2.46c-0.95,3.46-4.69,12.32-6.02,15.04" /><path d="M38.25,56.8c2,0.39,4.35,0.39,6.32,0.14c16.3-2.07,28.68-3.69,44.19-4.25c3.32-0.12,5.32,0.19,6.99,0.38" /></g></g><g><path d="M49.5,69.14c0.68,0.68,0.88,1.36,1.04,2.46c0.75,5.06,1.63,12.11,2.51,18.64c0.15,1.13,0.3,2.22,0.45,3.25" /><path d="M51.63,70.53c7.59-1.1,18.75-2.53,28-3.26c4.66-0.37,5.62,1.73,4.87,4.38c-1.28,4.47-2.5,10.63-3.83,15.9" /><path d="M54.2,90.83c5.05-0.5,17.23-1.46,25.93-2.02c1.3-0.08,2.5-0.15,3.58-0.2" /></g></g></g></g><g fill="none" stroke="#000" stroke-width="5" stroke-linecap="round" stroke-linejoin="round"><path d="M33.13,15.75c0.2,1.99-0.06,3.58-0.7,5.29c-4.1,10.86-9.29,21.56-18.68,34.78" stroke-dasharray="44.986" stroke-dashoffset="44.986"><animate attributeName="stroke-dashoffset" values="44.986;44.986;0" dur="0.45s" fill="freeze" begin="0s;500d.click" /></path><path d="M26.11,39.92c0.99,0.99,1.5,2.51,1.49,4.08c-0.03,11.48-0.17,33.19-0.21,44.75c-0.01,2.14-0.01,3.94-0.01,5.25" stroke-dasharray="54.457" stroke-dashoffset="54.457"><animate attributeName="stroke-dashoffset" values="54.457" fill="freeze" begin="500d.click" /><animate attributeName="stroke-dashoffset" values="54.457;54.457;0" keyTimes="0;0.452;1" dur="0.995s" fill="freeze" begin="0s;500d.click" /></path><path d="M61.75,13.75c0.94,0.94,1.75,2.25,1.75,4s0,6.25,0,11" stroke-dasharray="15.487" stroke-dashoffset="15.487"><animate attributeName="stroke-dashoffset" values="15.487" fill="freeze" begin="500d.click" /><animate attributeName="stroke-dashoffset" values="15.487;15.487;0" keyTimes="0;0.865;1" dur="1.15s" fill="freeze" begin="0s;500d.click" /></path><path d="M43.75,30.45c1.51,0.33,3.28,0.49,4.78,0.33c9.72-1.03,23.35-3.03,33.06-3.77c2.51-0.19,4.02,0.16,5.28,0.32" stroke-dasharray="43.392" stroke-dashoffset="43.392"><animate attributeName="stroke-dashoffset" values="43.392" fill="freeze" begin="500d.click" /><animate attributeName="stroke-dashoffset" values="43.392;43.392;0" keyTimes="0;0.726;1" dur="1.584s" fill="freeze" begin="0s;500d.click" /></path><path d="M51.25,37.38c4.04,4.8,5.88,9.71,6.25,12.88" stroke-dasharray="14.501" stroke-dashoffset="14.501"><animate attributeName="stroke-dashoffset" values="14.501" fill="freeze" begin="500d.click" /><animate attributeName="stroke-dashoffset" values="14.501;14.501;0" keyTimes="0;0.916;1" dur="1.729s" fill="freeze" begin="0s;500d.click" /></path><path d="M78.36,33.25c0.39,0.88,0.39,1.62,0.16,2.46c-0.95,3.46-4.69,12.32-6.02,15.04" stroke-dasharray="18.733" stroke-dashoffset="18.733"><animate attributeName="stroke-dashoffset" values="18.733" fill="freeze" begin="500d.click" /><animate attributeName="stroke-dashoffset" values="18.733;18.733;0" keyTimes="0;0.902;1" dur="1.916s" fill="freeze" begin="0s;500d.click" /></path><path d="M38.25,56.8c2,0.39,4.35,0.39,6.32,0.14c16.3-2.07,28.68-3.69,44.19-4.25c3.32-0.12,5.32,0.19,6.99,0.38" stroke-dasharray="57.768" stroke-dashoffset="57.768"><animate attributeName="stroke-dashoffset" values="57.768" fill="freeze" begin="500d.click" /><animate attributeName="stroke-dashoffset" values="57.768;57.768;0" keyTimes="0;0.768;1" dur="2.494s" fill="freeze" begin="0s;500d.click" /></path><path d="M49.5,69.14c0.68,0.68,0.88,1.36,1.04,2.46c0.75,5.06,1.63,12.11,2.51,18.64c0.15,1.13,0.3,2.22,0.45,3.25" stroke-dasharray="24.817" stroke-dashoffset="24.817"><animate attributeName="stroke-dashoffset" values="24.817" fill="freeze" begin="500d.click" /><animate attributeName="stroke-dashoffset" values="24.817;24.817;0" keyTimes="0;0.91;1" dur="2.742s" fill="freeze" begin="0s;500d.click" /></path><path d="M51.63,70.53c7.59-1.1,18.75-2.53,28-3.26c4.66-0.37,5.62,1.73,4.87,4.38c-1.28,4.47-2.5,10.63-3.83,15.9" stroke-dasharray="52.789" stroke-dashoffset="52.789"><animate attributeName="stroke-dashoffset" values="52.789" fill="freeze" begin="500d.click" /><animate attributeName="stroke-dashoffset" values="52.789;52.789;0" keyTimes="0;0.839;1" dur="3.27s" fill="freeze" begin="0s;500d.click" /></path><path d="M54.2,90.83c5.05-0.5,17.23-1.46,25.93-2.02c1.3-0.08,2.5-0.15,3.58-0.2" stroke-dasharray="29.596" stroke-dashoffset="29.596"><animate attributeName="stroke-dashoffset" values="29.596" fill="freeze" begin="500d.click" /><animate attributeName="stroke-dashoffset" values="29.596;29.596;0" keyTimes="0;0.917;1" dur="3.566s" fill="freeze" begin="0s;500d.click" /></path></g></svg>