<svg xmlns="http://www.w3.org/2000/svg" width="109" height="109" viewBox="0 0 109 109" id="5011"><g fill="none" stroke="#666" stroke-width="9" stroke-linecap="round" stroke-linejoin="round"><g><g><path d="M31.5,17.39c0.13,1.12,0.22,2.53-0.11,3.91C29.25,30.03,21,46.89,11.06,58.72" /><path d="M24.49,43.5c0.66,0.68,0.84,2.19,0.84,3.58c0,14.46-0.32,37.58-0.32,47.29" /></g><g><g><path d="M39.39,18.89c0.55,0.43,1.83,1.86,1.83,4.08c0,0.87-0.07,65.99-0.18,71.36" /><path d="M41.37,19.87c1.83-0.11,14.48-2.38,16.15-2.51c1.39-0.11,2.11,1,2.18,1.88c0.1,1.35-2.16,24.52-2.16,25.18" /><path d="M41.69,32.74c4.5-0.65,12.49-1.83,16.82-2.53" /><path d="M41.87,47.07c5.88-0.82,11.81-1.73,17.2-2.31" /></g><g><path d="M69.03,17.17c0.31,0.59,1.1,1.84,1.13,2.63c0.09,1.95,1.39,25.32,1.5,26.11" /><path d="M70.18,18.23c1.78-0.1,18.33-2.62,19.95-2.74c1.35-0.1,2.13,1.07,2.12,1.66c-0.35,18.04-0.36,58.1-0.35,71.18c0,10.7-6.14,3.51-9.07-0.09" /><path d="M71,30.09c2.41,0,17.38-1.85,20.11-1.85" /><path d="M72.18,43.83c3.56,0,15.1-1.65,19.71-1.65" /></g></g></g></g><g fill="none" stroke="#000" stroke-width="5" stroke-linecap="round" stroke-linejoin="round"><g><g><path d="M31.5,17.39c0.13,1.12,0.22,2.53-0.11,3.91C29.25,30.03,21,46.89,11.06,58.72" stroke-dasharray="46.79" stroke-dashoffset="46.79"><animate id="0" attributeName="stroke-dashoffset" values="46.79;0" dur="0.47s" fill="freeze" begin="0s;5011.click" /></path><path d="M24.49,43.5c0.66,0.68,0.84,2.19,0.84,3.58c0,14.46-0.32,37.58-0.32,47.29" stroke-dasharray="51.04" stroke-dashoffset="51.04"><animate attributeName="stroke-dashoffset" values="51.04" fill="freeze" begin="5011.click" /><animate id="1" attributeName="stroke-dashoffset" values="51.04;0" dur="0.51s" fill="freeze" begin="0.end" /></path></g><g><g><path d="M39.39,18.89c0.55,0.43,1.83,1.86,1.83,4.08c0,0.87-0.07,65.99-0.18,71.36" stroke-dasharray="75.97" stroke-dashoffset="75.97"><animate attributeName="stroke-dashoffset" values="75.97" fill="freeze" begin="5011.click" /><animate id="2" attributeName="stroke-dashoffset" values="75.97;0" dur="0.57s" fill="freeze" begin="1.end" /></path><path d="M41.37,19.87c1.83-0.11,14.48-2.38,16.15-2.51c1.39-0.11,2.11,1,2.18,1.88c0.1,1.35-2.16,24.52-2.16,25.18" stroke-dasharray="44.83" stroke-dashoffset="44.83"><animate attributeName="stroke-dashoffset" values="44.83" fill="freeze" begin="5011.click" /><animate id="3" attributeName="stroke-dashoffset" values="44.83;0" dur="0.45s" fill="freeze" begin="2.end" /></path><path d="M41.69,32.74c4.5-0.65,12.49-1.83,16.82-2.53" stroke-dasharray="17.01" stroke-dashoffset="17.01"><animate attributeName="stroke-dashoffset" values="17.01" fill="freeze" begin="5011.click" /><animate id="4" attributeName="stroke-dashoffset" values="17.01;0" dur="0.17s" fill="freeze" begin="3.end" /></path><path d="M41.87,47.07c5.88-0.82,11.81-1.73,17.2-2.31" stroke-dasharray="17.36" stroke-dashoffset="17.36"><animate attributeName="stroke-dashoffset" values="17.36" fill="freeze" begin="5011.click" /><animate id="5" attributeName="stroke-dashoffset" values="17.36;0" dur="0.17s" fill="freeze" begin="4.end" /></path></g><g><path d="M69.03,17.17c0.31,0.59,1.1,1.84,1.13,2.63c0.09,1.95,1.39,25.32,1.5,26.11" stroke-dasharray="29.04" stroke-dashoffset="29.04"><animate attributeName="stroke-dashoffset" values="29.04" fill="freeze" begin="5011.click" /><animate id="6" attributeName="stroke-dashoffset" values="29.04;0" dur="0.29s" fill="freeze" begin="5.end" /></path><path d="M70.18,18.23c1.78-0.1,18.33-2.62,19.95-2.74c1.35-0.1,2.13,1.07,2.12,1.66c-0.35,18.04-0.36,58.1-0.35,71.18c0,10.7-6.14,3.51-9.07-0.09" stroke-dasharray="110.02" stroke-dashoffset="110.02"><animate attributeName="stroke-dashoffset" values="110.02" fill="freeze" begin="5011.click" /><animate id="7" attributeName="stroke-dashoffset" values="110.02;0" dur="0.83s" fill="freeze" begin="6.end" /></path><path d="M71,30.09c2.41,0,17.38-1.85,20.11-1.85" stroke-dasharray="20.2" stroke-dashoffset="20.2"><animate attributeName="stroke-dashoffset" values="20.2" fill="freeze" begin="5011.click" /><animate id="8" attributeName="stroke-dashoffset" values="20.2;0" dur="0.2s" fill="freeze" begin="7.end" /></path><path d="M72.18,43.83c3.56,0,15.1-1.65,19.71-1.65" stroke-dasharray="19.79" stroke-dashoffset="19.79"><animate attributeName="stroke-dashoffset" values="19.79" fill="freeze" begin="5011.click" /><animate id="9" attributeName="stroke-dashoffset" values="19.79;0" dur="0.2s" fill="freeze" begin="8.end" /></path></g></g></g></g></svg>