<svg xmlns="http://www.w3.org/2000/svg" width="109" height="109" viewBox="0 0 109 109" id="5019"><g fill="none" stroke="#666" stroke-width="9" stroke-linecap="round" stroke-linejoin="round"><g><g><path d="M29.5,16c0.38,1.53,0.2,2.79-0.43,4.59c-4.02,11.46-9.36,23.5-18.56,37.45" /><path d="M22.28,42c0.98,0.98,1.5,2.45,1.5,4c0,10.93-0.02,31.8-0.03,43.13c0,2.64,0,4.77,0,6.12" /></g><g p4:phon="矦V" xmlns:p4="http://kanjivg.tagaini.net"><g><path d="M35.52,32.37c1,1,1.76,2.51,1.76,5.02c0,11.05,0,29.84,0,40.24c0,2.89,0,5.13,0,6.38" /></g><path d="M50.5,17.25c1,0.5,2.99,0.65,5,0.5C62,17.25,75.25,15.25,78,15s4.25,0.75,3.25,3.5C80.68,20.08,79,26.38,78.5,30" /><path d="M44,33.94c2.07,0.31,4.47,0.44,6.05,0.29C61.5,33.12,78,30.88,89.23,30.19c2.62-0.16,4.21-0.24,5.52,0.03" /><g><path d="M56.36,39.97c0.03,0.51,0.07,1.31-0.06,2.04c-0.75,4.3-5.49,14.87-10.21,18.79" /><g><path d="M57.23,49.11c1.14,0.02,2.7-0.05,3.64-0.17c4.37-0.56,13.05-1.88,19.5-2.88c1.74-0.27,3.71-0.43,5.47-0.07" /><g><path d="M45.13,66.83c2.87,0.54,5.59,0.22,8.01-0.02c10.47-1.03,24.48-3.09,33.25-3.75c2.79-0.21,5.33-0.48,8.08,0.07" /><path d="M68.89,50.84c0.48,1.04,0.65,2.15,0.38,3.51C65.75,71.62,59,87.25,43.75,95.46" /><path d="M67.88,65.88c8.28,9.37,13.99,16.36,20.7,22.3c2.08,1.84,3.92,3.45,6.55,4.32" /></g></g></g></g></g></g><g fill="none" stroke="#000" stroke-width="5" stroke-linecap="round" stroke-linejoin="round"><path d="M29.5,16c0.38,1.53,0.2,2.79-0.43,4.59c-4.02,11.46-9.36,23.5-18.56,37.45" stroke-dasharray="46.595" stroke-dashoffset="46.595"><animate attributeName="stroke-dashoffset" values="46.595;46.595;0" dur="0.466s" fill="freeze" begin="0s;5019.click" /></path><path d="M22.28,42c0.98,0.98,1.5,2.45,1.5,4c0,10.93-0.02,31.8-0.03,43.13c0,2.64,0,4.77,0,6.12" stroke-dasharray="53.633" stroke-dashoffset="53.633"><animate attributeName="stroke-dashoffset" values="53.633" fill="freeze" begin="5019.click" /><animate attributeName="stroke-dashoffset" values="53.633;53.633;0" keyTimes="0;0.465;1" dur="1.002s" fill="freeze" begin="0s;5019.click" /></path><path d="M35.52,32.37c1,1,1.76,2.51,1.76,5.02c0,11.05,0,29.84,0,40.24c0,2.89,0,5.13,0,6.38" stroke-dasharray="52.087" stroke-dashoffset="52.087"><animate attributeName="stroke-dashoffset" values="52.087" fill="freeze" begin="5019.click" /><animate attributeName="stroke-dashoffset" values="52.087;52.087;0" keyTimes="0;0.658;1" dur="1.523s" fill="freeze" begin="0s;5019.click" /></path><path d="M50.5,17.25c1,0.5,2.99,0.65,5,0.5C62,17.25,75.25,15.25,78,15s4.25,0.75,3.25,3.5C80.68,20.08,79,26.38,78.5,30" stroke-dasharray="45.817" stroke-dashoffset="45.817"><animate attributeName="stroke-dashoffset" values="45.817" fill="freeze" begin="5019.click" /><animate attributeName="stroke-dashoffset" values="45.817;45.817;0" keyTimes="0;0.769;1" dur="1.981s" fill="freeze" begin="0s;5019.click" /></path><path d="M44,33.94c2.07,0.31,4.47,0.44,6.05,0.29C61.5,33.12,78,30.88,89.23,30.19c2.62-0.16,4.21-0.24,5.52,0.03" stroke-dasharray="50.996" stroke-dashoffset="50.996"><animate attributeName="stroke-dashoffset" values="50.996" fill="freeze" begin="5019.click" /><animate attributeName="stroke-dashoffset" values="50.996;50.996;0" keyTimes="0;0.795;1" dur="2.491s" fill="freeze" begin="0s;5019.click" /></path><path d="M56.36,39.97c0.03,0.51,0.07,1.31-0.06,2.04c-0.75,4.3-5.49,14.87-10.21,18.79" stroke-dasharray="23.706" stroke-dashoffset="23.706"><animate attributeName="stroke-dashoffset" values="23.706" fill="freeze" begin="5019.click" /><animate attributeName="stroke-dashoffset" values="23.706;23.706;0" keyTimes="0;0.913;1" dur="2.728s" fill="freeze" begin="0s;5019.click" /></path><path d="M57.23,49.11c1.14,0.02,2.7-0.05,3.64-0.17c4.37-0.56,13.05-1.88,19.5-2.88c1.74-0.27,3.71-0.43,5.47-0.07" stroke-dasharray="28.858" stroke-dashoffset="28.858"><animate attributeName="stroke-dashoffset" values="28.858" fill="freeze" begin="5019.click" /><animate attributeName="stroke-dashoffset" values="28.858;28.858;0" keyTimes="0;0.904;1" dur="3.017s" fill="freeze" begin="0s;5019.click" /></path><path d="M45.13,66.83c2.87,0.54,5.59,0.22,8.01-0.02c10.47-1.03,24.48-3.09,33.25-3.75c2.79-0.21,5.33-0.48,8.08,0.07" stroke-dasharray="49.614" stroke-dashoffset="49.614"><animate attributeName="stroke-dashoffset" values="49.614" fill="freeze" begin="5019.click" /><animate attributeName="stroke-dashoffset" values="49.614;49.614;0" keyTimes="0;0.859;1" dur="3.513s" fill="freeze" begin="0s;5019.click" /></path><path d="M68.89,50.84c0.48,1.04,0.65,2.15,0.38,3.51C65.75,71.62,59,87.25,43.75,95.46" stroke-dasharray="53.666" stroke-dashoffset="53.666"><animate attributeName="stroke-dashoffset" values="53.666" fill="freeze" begin="5019.click" /><animate attributeName="stroke-dashoffset" values="53.666;53.666;0" keyTimes="0;0.867;1" dur="4.05s" fill="freeze" begin="0s;5019.click" /></path><path d="M67.88,65.88c8.28,9.37,13.99,16.36,20.7,22.3c2.08,1.84,3.92,3.45,6.55,4.32" stroke-dasharray="38.356" stroke-dashoffset="38.356"><animate attributeName="stroke-dashoffset" values="38.356" fill="freeze" begin="5019.click" /><animate attributeName="stroke-dashoffset" values="38.356;38.356;0" keyTimes="0;0.913;1" dur="4.434s" fill="freeze" begin="0s;5019.click" /></path></g></svg>