<svg xmlns="http://www.w3.org/2000/svg" width="109" height="109" viewBox="0 0 109 109" id="501f"><g fill="none" stroke="#666" stroke-width="6" stroke-linecap="round" stroke-linejoin="round"><g><g><path d="M32.88,18c0.23,2.28-0.06,3.73-0.79,5.69C27.46,36.16,22.5,48,11,63.04" /><path d="M25.03,44.5c0.86,0.86,1.5,2.33,1.49,3.75c-0.04,10.52-0.2,30.15-0.26,41.25c-0.01,2.48-0.02,4.54-0.02,6" /></g><g p4:phon="昔" xmlns:p4="http://kanjivg.tagaini.net"><g><g><g><path d="M44.65,34.14c2.22,0.36,4.67,0.19,6.73-0.05c7.78-0.9,24.06-2.84,31.49-3.32c1.85-0.12,3.95-0.26,5.76,0.25" /></g><g><path d="M54.33,20.25c0.96,0.96,1.42,2.38,1.69,4c0.17,1,0.85,15,1.51,26" /></g><g><path d="M76.88,14.25c0.81,0.81,1.31,2.24,1.19,3.25c-0.33,2.75-1.95,17.88-3.24,30.75" /></g></g><path d="M37.25,52.7c3,0.55,5.72,0.32,8.48,0.02c13.17-1.46,25.84-3.07,41.65-4.03c2.83-0.17,5.49-0.31,8.24,0.11" /></g><g><path d="M51.43,61.83c0.75,0.75,1.21,1.89,1.21,2.95c0,0.82-0.01,18.86-0.01,27.1c0,2.36,0,3.92,0,4.04" /><path d="M53.29,63.16c1.86-0.11,17.41-2.36,23.46-3.15c3.42-0.44,4.82,0.25,4.7,3.74c-0.16,4.48,0,16.22-0.02,25.75c0,1.82-0.01,3.55,0,5.14" /><path d="M53.68,77.24c7.2-0.62,19.32-1.99,26.71-2.64" /><path d="M53.79,92.78c6.05-0.57,19.04-1.89,26.58-2.37" /></g></g></g></g><g fill="none" stroke="#000" stroke-width="3" stroke-linecap="round" stroke-linejoin="round"><path d="M32.88,18c0.23,2.28-0.06,3.73-0.79,5.69C27.46,36.16,22.5,48,11,63.04" stroke-dasharray="50.648" stroke-dashoffset="50.648"><animate attributeName="stroke-dashoffset" values="50.648;50.648;0" dur="0.506s" fill="freeze" begin="0s;501f.click" /></path><path d="M25.03,44.5c0.86,0.86,1.5,2.33,1.49,3.75c-0.04,10.52-0.2,30.15-0.26,41.25c-0.01,2.48-0.02,4.54-0.02,6" stroke-dasharray="51.385" stroke-dashoffset="51.385"><animate attributeName="stroke-dashoffset" values="51.385" fill="freeze" begin="501f.click" /><animate attributeName="stroke-dashoffset" values="51.385;51.385;0" keyTimes="0;0.496;1" dur="1.02s" fill="freeze" begin="0s;501f.click" /></path><path d="M44.65,34.14c2.22,0.36,4.67,0.19,6.73-0.05c7.78-0.9,24.06-2.84,31.49-3.32c1.85-0.12,3.95-0.26,5.76,0.25" stroke-dasharray="44.213" stroke-dashoffset="44.213"><animate attributeName="stroke-dashoffset" values="44.213" fill="freeze" begin="501f.click" /><animate attributeName="stroke-dashoffset" values="44.213;44.213;0" keyTimes="0;0.698;1" dur="1.462s" fill="freeze" begin="0s;501f.click" /></path><path d="M54.33,20.25c0.96,0.96,1.42,2.38,1.69,4c0.17,1,0.85,15,1.51,26" stroke-dasharray="30.458" stroke-dashoffset="30.458"><animate attributeName="stroke-dashoffset" values="30.458" fill="freeze" begin="501f.click" /><animate attributeName="stroke-dashoffset" values="30.458;30.458;0" keyTimes="0;0.827;1" dur="1.767s" fill="freeze" begin="0s;501f.click" /></path><path d="M76.88,14.25c0.81,0.81,1.31,2.24,1.19,3.25c-0.33,2.75-1.95,17.88-3.24,30.75" stroke-dasharray="34.483" stroke-dashoffset="34.483"><animate attributeName="stroke-dashoffset" values="34.483" fill="freeze" begin="501f.click" /><animate attributeName="stroke-dashoffset" values="34.483;34.483;0" keyTimes="0;0.837;1" dur="2.112s" fill="freeze" begin="0s;501f.click" /></path><path d="M37.25,52.7c3,0.55,5.72,0.32,8.48,0.02c13.17-1.46,25.84-3.07,41.65-4.03c2.83-0.17,5.49-0.31,8.24,0.11" stroke-dasharray="58.621" stroke-dashoffset="58.621"><animate attributeName="stroke-dashoffset" values="58.621" fill="freeze" begin="501f.click" /><animate attributeName="stroke-dashoffset" values="58.621;58.621;0" keyTimes="0;0.783;1" dur="2.698s" fill="freeze" begin="0s;501f.click" /></path><path d="M51.43,61.83c0.75,0.75,1.21,1.89,1.21,2.95c0,0.82-0.01,18.86-0.01,27.1c0,2.36,0,3.92,0,4.04" stroke-dasharray="34.408" stroke-dashoffset="34.408"><animate attributeName="stroke-dashoffset" values="34.408" fill="freeze" begin="501f.click" /><animate attributeName="stroke-dashoffset" values="34.408;34.408;0" keyTimes="0;0.887;1" dur="3.042s" fill="freeze" begin="0s;501f.click" /></path><path d="M53.29,63.16c1.86-0.11,17.41-2.36,23.46-3.15c3.42-0.44,4.82,0.25,4.7,3.74c-0.16,4.48,0,16.22-0.02,25.75c0,1.82-0.01,3.55,0,5.14" stroke-dasharray="61.983" stroke-dashoffset="61.983"><animate attributeName="stroke-dashoffset" values="61.983" fill="freeze" begin="501f.click" /><animate attributeName="stroke-dashoffset" values="61.983;61.983;0" keyTimes="0;0.867;1" dur="3.508s" fill="freeze" begin="0s;501f.click" /></path><path d="M53.68,77.24c7.2-0.62,19.32-1.99,26.71-2.64" stroke-dasharray="26.841" stroke-dashoffset="26.841"><animate attributeName="stroke-dashoffset" values="26.841" fill="freeze" begin="501f.click" /><animate attributeName="stroke-dashoffset" values="26.841;26.841;0" keyTimes="0;0.929;1" dur="3.776s" fill="freeze" begin="0s;501f.click" /></path><path d="M53.79,92.78c6.05-0.57,19.04-1.89,26.58-2.37" stroke-dasharray="26.687" stroke-dashoffset="26.687"><animate attributeName="stroke-dashoffset" values="26.687" fill="freeze" begin="501f.click" /><animate attributeName="stroke-dashoffset" values="26.687;26.687;0" keyTimes="0;0.934;1" dur="4.043s" fill="freeze" begin="0s;501f.click" /></path></g></svg>