<svg xmlns="http://www.w3.org/2000/svg" width="109" height="109" viewBox="0 0 109 109" id="5023"><g fill="none" stroke="#666" stroke-width="9" stroke-linecap="round" stroke-linejoin="round"><g><g><path d="M27.77,15.14c0.11,1.04,0.05,2.13-0.34,3.38c-2.55,7.98-9.12,22.98-17.37,33.95" /><path d="M21.53,38.5c0.59,0.61,0.76,1.97,0.76,3.23c0,10.48-0.03,32.69-0.04,45.52c0,3.11,0,5.67,0,7.38" /></g><g p4:phon="放" xmlns:p4="http://kanjivg.tagaini.net"><g><g><path d="M47.79,13c1.23,1.23,1.68,2.71,1.68,3.91c0,3.09-0.1,8.02-0.1,11.96" /><path d="M31.36,32.87c2.06,0.18,3.61,0.38,5.65-0.08c7.56-1.7,14.82-3.02,20.88-4.11c1.83-0.33,3.49-0.68,5.4-0.06" /></g><g><path d="M45.97,45.25c3.16,0.62,8.03,1.5,9.84,2.06c2.68,0.83,3.53,3.1,3.27,5.62c-0.82,8.12-6.64,26.61-10.43,31.76c-3.98,5.42-6.3,0.25-7.43-0.54" /><path d="M46.71,34.25c0.54,1.25,0.53,2.36,0.16,3.75c-2.99,11.25-7.24,25.38-16.61,38.5" /></g></g><g><g><path d="M73.46,14.64c0.03,0.71,0.18,1.86-0.06,2.84c-1.55,6.23-5.04,18.27-10.41,26.89" /><path d="M70.67,35.07c1.46,0.18,3.31,0.04,4.34-0.13c5.14-0.85,12.11-2.94,17-4.21c1.31-0.34,2.98-0.73,4.75-0.3" /></g><g><g><path d="M86.14,38.13c0.45,1.32,0.69,2.27,0.23,4.68c-4.26,21.95-12.99,39.44-28,48.69" /></g><path d="M65.88,50.28c3.25,1.22,14.25,21.97,22.57,34.11c1.58,2.31,3.59,4.59,5.8,6.32" /></g></g></g></g></g><g fill="none" stroke="#000" stroke-width="5" stroke-linecap="round" stroke-linejoin="round"><path d="M27.77,15.14c0.11,1.04,0.05,2.13-0.34,3.38c-2.55,7.98-9.12,22.98-17.37,33.95" stroke-dasharray="41.705" stroke-dashoffset="41.705"><animate attributeName="stroke-dashoffset" values="41.705;41.705;0" dur="0.417s" fill="freeze" begin="0s;5023.click" /></path><path d="M21.53,38.5c0.59,0.61,0.76,1.97,0.76,3.23c0,10.48-0.03,32.69-0.04,45.52c0,3.11,0,5.67,0,7.38" stroke-dasharray="56.286" stroke-dashoffset="56.286"><animate attributeName="stroke-dashoffset" values="56.286" fill="freeze" begin="5023.click" /><animate attributeName="stroke-dashoffset" values="56.286;56.286;0" keyTimes="0;0.426;1" dur="0.98s" fill="freeze" begin="0s;5023.click" /></path><path d="M47.79,13c1.23,1.23,1.68,2.71,1.68,3.91c0,3.09-0.1,8.02-0.1,11.96" stroke-dasharray="16.328" stroke-dashoffset="16.328"><animate attributeName="stroke-dashoffset" values="16.328" fill="freeze" begin="5023.click" /><animate attributeName="stroke-dashoffset" values="16.328;16.328;0" keyTimes="0;0.857;1" dur="1.143s" fill="freeze" begin="0s;5023.click" /></path><path d="M31.36,32.87c2.06,0.18,3.61,0.38,5.65-0.08c7.56-1.7,14.82-3.02,20.88-4.11c1.83-0.33,3.49-0.68,5.4-0.06" stroke-dasharray="32.428" stroke-dashoffset="32.428"><animate attributeName="stroke-dashoffset" values="32.428" fill="freeze" begin="5023.click" /><animate attributeName="stroke-dashoffset" values="32.428;32.428;0" keyTimes="0;0.779;1" dur="1.467s" fill="freeze" begin="0s;5023.click" /></path><path d="M45.97,45.25c3.16,0.62,8.03,1.5,9.84,2.06c2.68,0.83,3.53,3.1,3.27,5.62c-0.82,8.12-6.64,26.61-10.43,31.76c-3.98,5.42-6.3,0.25-7.43-0.54" stroke-dasharray="60.316" stroke-dashoffset="60.316"><animate attributeName="stroke-dashoffset" values="60.316" fill="freeze" begin="5023.click" /><animate attributeName="stroke-dashoffset" values="60.316;60.316;0" keyTimes="0;0.764;1" dur="1.921s" fill="freeze" begin="0s;5023.click" /></path><path d="M46.71,34.25c0.54,1.25,0.53,2.36,0.16,3.75c-2.99,11.25-7.24,25.38-16.61,38.5" stroke-dasharray="46.01" stroke-dashoffset="46.01"><animate attributeName="stroke-dashoffset" values="46.01" fill="freeze" begin="5023.click" /><animate attributeName="stroke-dashoffset" values="46.01;46.01;0" keyTimes="0;0.807;1" dur="2.381s" fill="freeze" begin="0s;5023.click" /></path><path d="M73.46,14.64c0.03,0.71,0.18,1.86-0.06,2.84c-1.55,6.23-5.04,18.27-10.41,26.89" stroke-dasharray="31.794" stroke-dashoffset="31.794"><animate attributeName="stroke-dashoffset" values="31.794" fill="freeze" begin="5023.click" /><animate attributeName="stroke-dashoffset" values="31.794;31.794;0" keyTimes="0;0.882;1" dur="2.699s" fill="freeze" begin="0s;5023.click" /></path><path d="M70.67,35.07c1.46,0.18,3.31,0.04,4.34-0.13c5.14-0.85,12.11-2.94,17-4.21c1.31-0.34,2.98-0.73,4.75-0.3" stroke-dasharray="26.687" stroke-dashoffset="26.687"><animate attributeName="stroke-dashoffset" values="26.687" fill="freeze" begin="5023.click" /><animate attributeName="stroke-dashoffset" values="26.687;26.687;0" keyTimes="0;0.91;1" dur="2.966s" fill="freeze" begin="0s;5023.click" /></path><path d="M86.14,38.13c0.45,1.32,0.69,2.27,0.23,4.68c-4.26,21.95-12.99,39.44-28,48.69" stroke-dasharray="62.568" stroke-dashoffset="62.568"><animate attributeName="stroke-dashoffset" values="62.568" fill="freeze" begin="5023.click" /><animate attributeName="stroke-dashoffset" values="62.568;62.568;0" keyTimes="0;0.863;1" dur="3.436s" fill="freeze" begin="0s;5023.click" /></path><path d="M65.88,50.28c3.25,1.22,14.25,21.97,22.57,34.11c1.58,2.31,3.59,4.59,5.8,6.32" stroke-dasharray="49.637" stroke-dashoffset="49.637"><animate attributeName="stroke-dashoffset" values="49.637" fill="freeze" begin="5023.click" /><animate attributeName="stroke-dashoffset" values="49.637;49.637;0" keyTimes="0;0.874;1" dur="3.932s" fill="freeze" begin="0s;5023.click" /></path></g></svg>