<svg xmlns="http://www.w3.org/2000/svg" width="109" height="109" viewBox="0 0 109 109" id="5039"><g fill="none" stroke="#666" stroke-width="9" stroke-linecap="round" stroke-linejoin="round"><g><g><path d="M34.5,16.75c0.23,2.11-0.06,3.62-0.82,5.43C28.88,33.7,21.62,47.62,11,60.04" /><path d="M25.03,42.75c0.86,0.86,1.26,2.22,1.26,3.48c0,10.3,0.02,27.9,0.02,41.77c0,3.19-0.06,5.87-0.06,7.75" /></g><g p4:partial p4:phon="倹right/僉V" xmlns:p4="http://kanjivg.tagaini.net"><g><path d="M60.85,13.25c0.28,1-0.1,2.26-0.66,3.41c-3.24,6.73-11.44,20.07-25.99,32.69" /><path d="M62,17.25c4.02,3.81,15.48,14.98,22.83,21.33c1.96,1.7,5.92,4.67,8.47,5.97" /></g><g><g><path d="M48.78,42.59c2.1,0.28,4.18,0.02,5.7-0.22c4.27-0.68,10.94-2.45,16.78-3.16c1.32-0.16,3.49-0.33,5,0.03" /></g><g><path d="M43.18,54.18c0.76,0.76,1.32,1.69,1.58,2.77c1.2,5.07,1.17,6.58,1.83,10.82c0.24,1.54,0.5,3.21,0.8,5.16" /><path d="M45.16,55.81c9.63-1.23,25.15-3.42,32.2-4.19c3.51-0.39,5.65,0.44,4.53,4.28c-1.03,3.56-2.11,6.93-3.37,10.87" /><path d="M47.83,70.76c5.4-0.44,19.87-2.25,29.19-3.07c1.91-0.17,3.63-0.3,5.03-0.39" /></g><g><path d="M62.29,44.07c0.88,0.88,1.06,2.29,1.11,4.15C64,71.12,61,84.38,38.25,96.25" /><path d="M64.5,70.53c4,4.22,13.01,12.75,20.55,18.91c2.86,2.33,4.95,3.81,7.57,5.19" /></g></g></g></g></g><g fill="none" stroke="#000" stroke-width="5" stroke-linecap="round" stroke-linejoin="round"><g><g><path d="M34.5,16.75c0.23,2.11-0.06,3.62-0.82,5.43C28.88,33.7,21.62,47.62,11,60.04" stroke-dasharray="49.873" stroke-dashoffset="49.873"><animate attributeName="stroke-dashoffset" values="49.873;49.873;0" dur="0.499s" fill="freeze" begin="0s;5039.click" /></path><path d="M25.03,42.75c0.86,0.86,1.26,2.22,1.26,3.48c0,10.3,0.02,27.9,0.02,41.77c0,3.19-0.06,5.87-0.06,7.75" stroke-dasharray="53.314" stroke-dashoffset="53.314"><animate attributeName="stroke-dashoffset" values="53.314" fill="freeze" begin="5039.click" /><animate attributeName="stroke-dashoffset" values="53.314;53.314;0" keyTimes="0;0.484;1" dur="1.032s" fill="freeze" begin="0s;5039.click" /></path></g><g p4:partial p4:phon="倹right/僉V" xmlns:p4="http://kanjivg.tagaini.net"><g><path d="M60.85,13.25c0.28,1-0.1,2.26-0.66,3.41c-3.24,6.73-11.44,20.07-25.99,32.69" stroke-dasharray="45.571" stroke-dashoffset="45.571"><animate attributeName="stroke-dashoffset" values="45.571" fill="freeze" begin="5039.click" /><animate attributeName="stroke-dashoffset" values="45.571;45.571;0" keyTimes="0;0.694;1" dur="1.488s" fill="freeze" begin="0s;5039.click" /></path><path d="M62,17.25c4.02,3.81,15.48,14.98,22.83,21.33c1.96,1.7,5.92,4.67,8.47,5.97" stroke-dasharray="41.628" stroke-dashoffset="41.628"><animate attributeName="stroke-dashoffset" values="41.628" fill="freeze" begin="5039.click" /><animate attributeName="stroke-dashoffset" values="41.628;41.628;0" keyTimes="0;0.782;1" dur="1.904s" fill="freeze" begin="0s;5039.click" /></path></g><g><g><path d="M48.78,42.59c2.1,0.28,4.18,0.02,5.7-0.22c4.27-0.68,10.94-2.45,16.78-3.16c1.32-0.16,3.49-0.33,5,0.03" stroke-dasharray="27.828" stroke-dashoffset="27.828"><animate attributeName="stroke-dashoffset" values="27.828" fill="freeze" begin="5039.click" /><animate attributeName="stroke-dashoffset" values="27.828;27.828;0" keyTimes="0;0.873;1" dur="2.182s" fill="freeze" begin="0s;5039.click" /></path></g><g><path d="M43.18,54.18c0.76,0.76,1.32,1.69,1.58,2.77c1.2,5.07,1.17,6.58,1.83,10.82c0.24,1.54,0.5,3.21,0.8,5.16" stroke-dasharray="19.432" stroke-dashoffset="19.432"><animate attributeName="stroke-dashoffset" values="19.432" fill="freeze" begin="5039.click" /><animate attributeName="stroke-dashoffset" values="19.432;19.432;0" keyTimes="0;0.918;1" dur="2.376s" fill="freeze" begin="0s;5039.click" /></path><path d="M45.16,55.81c9.63-1.23,25.15-3.42,32.2-4.19c3.51-0.39,5.65,0.44,4.53,4.28c-1.03,3.56-2.11,6.93-3.37,10.87" stroke-dasharray="51.991" stroke-dashoffset="51.991"><animate attributeName="stroke-dashoffset" values="51.991" fill="freeze" begin="5039.click" /><animate attributeName="stroke-dashoffset" values="51.991;51.991;0" keyTimes="0;0.82;1" dur="2.896s" fill="freeze" begin="0s;5039.click" /></path><path d="M47.83,70.76c5.4-0.44,19.87-2.25,29.19-3.07c1.91-0.17,3.63-0.3,5.03-0.39" stroke-dasharray="34.398" stroke-dashoffset="34.398"><animate attributeName="stroke-dashoffset" values="34.398" fill="freeze" begin="5039.click" /><animate attributeName="stroke-dashoffset" values="34.398;34.398;0" keyTimes="0;0.894;1" dur="3.24s" fill="freeze" begin="0s;5039.click" /></path></g><g><path d="M62.29,44.07c0.88,0.88,1.06,2.29,1.11,4.15C64,71.12,61,84.38,38.25,96.25" stroke-dasharray="62.778" stroke-dashoffset="62.778"><animate attributeName="stroke-dashoffset" values="62.778" fill="freeze" begin="5039.click" /><animate attributeName="stroke-dashoffset" values="62.778;62.778;0" keyTimes="0;0.873;1" dur="3.712s" fill="freeze" begin="0s;5039.click" /></path><path d="M64.5,70.53c4,4.22,13.01,12.75,20.55,18.91c2.86,2.33,4.95,3.81,7.57,5.19" stroke-dasharray="37.136" stroke-dashoffset="37.136"><animate attributeName="stroke-dashoffset" values="37.136" fill="freeze" begin="5039.click" /><animate attributeName="stroke-dashoffset" values="37.136;37.136;0" keyTimes="0;0.909;1" dur="4.083s" fill="freeze" begin="0s;5039.click" /></path></g></g></g></g></g></svg>