<svg xmlns="http://www.w3.org/2000/svg" width="109" height="109" viewBox="0 0 109 109" id="5050"><g fill="none" stroke="#666" stroke-width="9" stroke-linecap="round" stroke-linejoin="round"><g><g><path d="M32.44,17.5c0.13,1.23,0.22,2.78-0.11,4.29C30.19,31.36,21.94,49.86,12,62.82" /><path d="M26.48,42.61c0.59,0.61,0.76,1.97,0.76,3.23c0,13.02-0.29,40.15-0.29,48.9" /></g><g><g><g><g><path d="M64.54,10.22c0.66,0.59,0.99,0.59,0.99,1.97s0,3.61,0,7.36" /><path d="M41.54,22.86c1.16,0.42,2.5,0.46,3.67,0.42c11.27-0.47,24.45-3.85,40.83-4.27c1.93-0.05,3.09,0.2,4.06,0.41" /></g><g><path d="M76.07,22.79c0.18,1.21-0.65,2.93-1,3.31C70.5,31,61.25,38.5,53.67,42.13" /><path d="M56.47,29.65C70,33.11,77.37,36.82,78.6,39.1" /></g></g><g p6:part="1" xmlns:p6="http://kanjivg.tagaini.net"><path d="M39.2,47.86c0.97,0.3,5.33,0.43,6.29,0.3c13.6-1.86,28.66-2.87,42.5-4.43c1.6-0.18,4.19,0.14,5,0.29" /></g></g><g p5:part="2" xmlns:p5="http://kanjivg.tagaini.net"><path d="M44.5,48.76c0.32,0.35,0.59,2.85,0.6,3.96c0.17,16.65-4.12,33.91-9.83,39.45" /></g><g><g><path d="M78.17,48.4c0.06,0.41,0.13,1.06-0.12,1.65c-1.44,3.47-9.72,11.09-21.04,15.75" /></g><g><path d="M82.89,62.03c0.07,0.46,0.27,1.27-0.15,1.87c-2.49,3.6-13.77,13.3-25.87,17.9" /></g><g><path d="M88.51,77.14c0.1,0.49,0.36,1.37-0.2,1.98C84.25,83.5,71.5,91.5,52.17,98" /></g></g></g></g></g><g fill="none" stroke="#000" stroke-width="5" stroke-linecap="round" stroke-linejoin="round"><g><g><path d="M32.44,17.5c0.13,1.23,0.22,2.78-0.11,4.29C30.19,31.36,21.94,49.86,12,62.82" stroke-dasharray="50.37" stroke-dashoffset="50.37"><animate id="0" attributeName="stroke-dashoffset" values="50.37;0" dur="0.5s" fill="freeze" begin="0s;5050.click" /></path><path d="M26.48,42.61c0.59,0.61,0.76,1.97,0.76,3.23c0,13.02-0.29,40.15-0.29,48.9" stroke-dasharray="52.29" stroke-dashoffset="52.29"><animate attributeName="stroke-dashoffset" values="52.29" fill="freeze" begin="5050.click" /><animate id="1" attributeName="stroke-dashoffset" values="52.29;0" dur="0.52s" fill="freeze" begin="0.end" /></path></g><g><g><g><g><path d="M64.54,10.22c0.66,0.59,0.99,0.59,0.99,1.97s0,3.61,0,7.36" stroke-dasharray="9.7" stroke-dashoffset="9.7"><animate attributeName="stroke-dashoffset" values="9.7" fill="freeze" begin="5050.click" /><animate id="2" attributeName="stroke-dashoffset" values="9.7;0" dur="0.1s" fill="freeze" begin="1.end" /></path><path d="M41.54,22.86c1.16,0.42,2.5,0.46,3.67,0.42c11.27-0.47,24.45-3.85,40.83-4.27c1.93-0.05,3.09,0.2,4.06,0.41" stroke-dasharray="48.89" stroke-dashoffset="48.89"><animate attributeName="stroke-dashoffset" values="48.89" fill="freeze" begin="5050.click" /><animate id="3" attributeName="stroke-dashoffset" values="48.89;0" dur="0.49s" fill="freeze" begin="2.end" /></path></g><g><path d="M76.07,22.79c0.18,1.21-0.65,2.93-1,3.31C70.5,31,61.25,38.5,53.67,42.13" stroke-dasharray="30.39" stroke-dashoffset="30.39"><animate attributeName="stroke-dashoffset" values="30.39" fill="freeze" begin="5050.click" /><animate id="4" attributeName="stroke-dashoffset" values="30.39;0" dur="0.3s" fill="freeze" begin="3.end" /></path><path d="M56.47,29.65C70,33.11,77.37,36.82,78.6,39.1" stroke-dasharray="24.36" stroke-dashoffset="24.36"><animate attributeName="stroke-dashoffset" values="24.36" fill="freeze" begin="5050.click" /><animate id="5" attributeName="stroke-dashoffset" values="24.36;0" dur="0.24s" fill="freeze" begin="4.end" /></path></g></g><g p6:part="1" xmlns:p6="http://kanjivg.tagaini.net"><path d="M39.2,47.86c0.97,0.3,5.33,0.43,6.29,0.3c13.6-1.86,28.66-2.87,42.5-4.43c1.6-0.18,4.19,0.14,5,0.29" stroke-dasharray="54.07" stroke-dashoffset="54.07"><animate attributeName="stroke-dashoffset" values="54.07" fill="freeze" begin="5050.click" /><animate id="6" attributeName="stroke-dashoffset" values="54.07;0" dur="0.54s" fill="freeze" begin="5.end" /></path></g></g><g p5:part="2" xmlns:p5="http://kanjivg.tagaini.net"><path d="M44.5,48.76c0.32,0.35,0.59,2.85,0.6,3.96c0.17,16.65-4.12,33.91-9.83,39.45" stroke-dasharray="45.43" stroke-dashoffset="45.43"><animate attributeName="stroke-dashoffset" values="45.43" fill="freeze" begin="5050.click" /><animate id="7" attributeName="stroke-dashoffset" values="45.43;0" dur="0.45s" fill="freeze" begin="6.end" /></path></g><g><g><path d="M78.17,48.4c0.06,0.41,0.13,1.06-0.12,1.65c-1.44,3.47-9.72,11.09-21.04,15.75" stroke-dasharray="28.37" stroke-dashoffset="28.37"><animate attributeName="stroke-dashoffset" values="28.37" fill="freeze" begin="5050.click" /><animate id="8" attributeName="stroke-dashoffset" values="28.37;0" dur="0.28s" fill="freeze" begin="7.end" /></path></g><g><path d="M82.89,62.03c0.07,0.46,0.27,1.27-0.15,1.87c-2.49,3.6-13.77,13.3-25.87,17.9" stroke-dasharray="33.68" stroke-dashoffset="33.68"><animate attributeName="stroke-dashoffset" values="33.68" fill="freeze" begin="5050.click" /><animate id="9" attributeName="stroke-dashoffset" values="33.68;0" dur="0.34s" fill="freeze" begin="8.end" /></path></g><g><path d="M88.51,77.14c0.1,0.49,0.36,1.37-0.2,1.98C84.25,83.5,71.5,91.5,52.17,98" stroke-dasharray="43.14" stroke-dashoffset="43.14"><animate attributeName="stroke-dashoffset" values="43.14" fill="freeze" begin="5050.click" /><animate id="10" attributeName="stroke-dashoffset" values="43.14;0" dur="0.43s" fill="freeze" begin="9.end" /></path></g></g></g></g></g></svg>