<svg xmlns="http://www.w3.org/2000/svg" width="109" height="109" viewBox="0 0 109 109" id="5076"><g fill="none" stroke="#666" stroke-width="9" stroke-linecap="round" stroke-linejoin="round"><g><g><path d="M29.52,15c0.2,1.98-0.06,3.56-0.69,5.25C24.75,31.04,19.34,42.16,10,55.29" /><path d="M23.45,37.25c0.96,0.96,1.4,2.35,1.4,3.86c0,14.3,0.07,35,0.09,47.64c0.01,2.96,0.01,5.51,0.01,7.5" /></g><g p4:phon="禺" xmlns:p4="http://kanjivg.tagaini.net"><g><g p4:part="1"><path d="M43.42,18.93c0.89,0.89,1.68,1.92,1.95,3.15c1.09,5.05,2.71,13.7,3.69,19.38c0.49,2.8,0.82,4.88,0.87,5.44" /><path d="M45.02,20.12c16.06-2.68,29.71-4.1,38.54-4.65c2.78-0.17,4.28,0.97,4.05,3.95c-0.31,4.03-1.62,11.34-3,19.12c-0.28,1.57-0.56,3.15-0.83,4.74" /><path d="M48.45,32.2c14.05-1.82,31.67-3.82,37.4-4.06" /><path d="M50.83,44.24c10.38-1.19,20.92-2.74,32.29-3.37" /></g></g><g><g><path d="M38.38,55.34c1.2,1.2,1.71,2.58,1.91,3.81c1.11,6.71,2.26,20.24,3.12,29.34c0.27,2.91,0.52,5.37,0.72,7.01" /><path d="M40.99,58.23c7.39-0.96,45.01-4.86,49.42-5.31c3.18-0.32,5.17,1.76,5.06,3.88c-0.27,5.13-3.36,27.11-5.67,33.67c-2.3,6.52-3.17,5-5.92-0.06" /></g><g p4:part="2"><path d="M64.27,19.48c0.81,0.81,1.4,1.75,1.4,3.3c-0.01,6.8-0.04,49.88-0.04,51.97" /></g><path d="M51.79,78.2c1.21,1.18,2.57,0.88,3.86,0.45c3.63-1.21,14.98-5.15,23.63-7.95" /><path d="M75.5,64c3.17,2.49,8.18,10.24,8.97,14.12" /></g></g></g></g><g fill="none" stroke="#000" stroke-width="5" stroke-linecap="round" stroke-linejoin="round"><g><g><path d="M29.52,15c0.2,1.98-0.06,3.56-0.69,5.25C24.75,31.04,19.34,42.16,10,55.29" stroke-dasharray="45.24" stroke-dashoffset="45.24"><animate id="0" attributeName="stroke-dashoffset" values="45.24;0" dur="0.45s" fill="freeze" begin="0s;5076.click" /></path><path d="M23.45,37.25c0.96,0.96,1.4,2.35,1.4,3.86c0,14.3,0.07,35,0.09,47.64c0.01,2.96,0.01,5.51,0.01,7.5" stroke-dasharray="59.35" stroke-dashoffset="59.35"><animate attributeName="stroke-dashoffset" values="59.35" fill="freeze" begin="5076.click" /><animate id="1" attributeName="stroke-dashoffset" values="59.35;0" dur="0.59s" fill="freeze" begin="0.end" /></path></g><g p4:phon="禺" xmlns:p4="http://kanjivg.tagaini.net"><g><g p4:part="1"><path d="M43.42,18.93c0.89,0.89,1.68,1.92,1.95,3.15c1.09,5.05,2.71,13.7,3.69,19.38c0.49,2.8,0.82,4.88,0.87,5.44" stroke-dasharray="29" stroke-dashoffset="29"><animate attributeName="stroke-dashoffset" values="29" fill="freeze" begin="5076.click" /><animate id="2" attributeName="stroke-dashoffset" values="29;0" dur="0.29s" fill="freeze" begin="1.end" /></path><path d="M45.02,20.12c16.06-2.68,29.71-4.1,38.54-4.65c2.78-0.17,4.28,0.97,4.05,3.95c-0.31,4.03-1.62,11.34-3,19.12c-0.28,1.57-0.56,3.15-0.83,4.74" stroke-dasharray="69.75" stroke-dashoffset="69.75"><animate attributeName="stroke-dashoffset" values="69.75" fill="freeze" begin="5076.click" /><animate id="3" attributeName="stroke-dashoffset" values="69.75;0" dur="0.52s" fill="freeze" begin="2.end" /></path><path d="M48.45,32.2c14.05-1.82,31.67-3.82,37.4-4.06" stroke-dasharray="37.63" stroke-dashoffset="37.63"><animate attributeName="stroke-dashoffset" values="37.63" fill="freeze" begin="5076.click" /><animate id="4" attributeName="stroke-dashoffset" values="37.63;0" dur="0.38s" fill="freeze" begin="3.end" /></path><path d="M50.83,44.24c10.38-1.19,20.92-2.74,32.29-3.37" stroke-dasharray="32.47" stroke-dashoffset="32.47"><animate attributeName="stroke-dashoffset" values="32.47" fill="freeze" begin="5076.click" /><animate id="5" attributeName="stroke-dashoffset" values="32.47;0" dur="0.32s" fill="freeze" begin="4.end" /></path></g></g><g><g><path d="M38.38,55.34c1.2,1.2,1.71,2.58,1.91,3.81c1.11,6.71,2.26,20.24,3.12,29.34c0.27,2.91,0.52,5.37,0.72,7.01" stroke-dasharray="40.89" stroke-dashoffset="40.89"><animate attributeName="stroke-dashoffset" values="40.89" fill="freeze" begin="5076.click" /><animate id="6" attributeName="stroke-dashoffset" values="40.89;0" dur="0.41s" fill="freeze" begin="5.end" /></path><path d="M40.99,58.23c7.39-0.96,45.01-4.86,49.42-5.31c3.18-0.32,5.17,1.76,5.06,3.88c-0.27,5.13-3.36,27.11-5.67,33.67c-2.3,6.52-3.17,5-5.92-0.06" stroke-dasharray="102.04" stroke-dashoffset="102.04"><animate attributeName="stroke-dashoffset" values="102.04" fill="freeze" begin="5076.click" /><animate id="7" attributeName="stroke-dashoffset" values="102.04;0" dur="0.77s" fill="freeze" begin="6.end" /></path></g><g p4:part="2"><path d="M64.27,19.48c0.81,0.81,1.4,1.75,1.4,3.3c-0.01,6.8-0.04,49.88-0.04,51.97" stroke-dasharray="55.66" stroke-dashoffset="55.66"><animate attributeName="stroke-dashoffset" values="55.66" fill="freeze" begin="5076.click" /><animate id="8" attributeName="stroke-dashoffset" values="55.66;0" dur="0.56s" fill="freeze" begin="7.end" /></path></g><path d="M51.79,78.2c1.21,1.18,2.57,0.88,3.86,0.45c3.63-1.21,14.98-5.15,23.63-7.95" stroke-dasharray="29.06" stroke-dashoffset="29.06"><animate attributeName="stroke-dashoffset" values="29.06" fill="freeze" begin="5076.click" /><animate id="9" attributeName="stroke-dashoffset" values="29.06;0" dur="0.29s" fill="freeze" begin="8.end" /></path><path d="M75.5,64c3.17,2.49,8.18,10.24,8.97,14.12" stroke-dasharray="16.93" stroke-dashoffset="16.93"><animate attributeName="stroke-dashoffset" values="16.93" fill="freeze" begin="5076.click" /><animate id="10" attributeName="stroke-dashoffset" values="16.93;0" dur="0.17s" fill="freeze" begin="9.end" /></path></g></g></g></g></svg>