<svg xmlns="http://www.w3.org/2000/svg" width="109" height="109" viewBox="0 0 109 109" id="508d"><g fill="none" stroke="#666" stroke-width="9" stroke-linecap="round" stroke-linejoin="round"><g><g><path d="M33.74,16.89c0.13,1.2,0.09,2.49-0.37,3.94C30.5,30,21.48,48.04,11.06,60.72" /><path d="M25.01,44.25c1.06,1.06,1.31,2.25,1.31,3.96c0,11.1-0.04,30.71-0.06,43.29c0,3.24-0.01,5.96-0.01,7.88" /></g><g p4:phon="旁" xmlns:p4="http://kanjivg.tagaini.net"><g><g p4:partial><g><path d="M64.45,10.5c1.15,1.15,1.4,2.45,1.4,3.99c0,2.44,0,3.89,0,7.38" /><path d="M46.23,24.3c2.15,0.45,4.22,0.23,6.16,0.05c7.28-0.68,21.93-2.33,29.63-2.83c1.91-0.12,3.78-0.23,5.66,0.19" /></g><g><path d="M53.02,30.58c2.75,2.83,4.5,6.24,4.75,8.11" /><path d="M79.79,25.34c0.08,1.04-0.17,1.79-0.51,2.59c-1.5,3.45-2.9,5.95-4.65,8.45" /></g></g><g><path d="M42.52,39.98c-0.14,3.3-3.56,11.91-4.77,13.88" /><path d="M42.86,42.79c7.25-0.89,33.25-4.61,47.37-4.98c8.63-0.23,3.03,4.45-0.75,8.1" /></g></g><g><g><path d="M65.31,46.62c0.97,0.97,1.06,2.13,1.06,3.79c0,1.59-0.09,3.72-0.09,5.35" /><path d="M41.3,58.88c3.07,0.62,5.52,0.62,8.44,0.2c10.78-1.57,26.49-3.39,36.14-4.1c2.55-0.19,5.12-0.1,7.64,0.81" /></g><g><path d="M62.82,67.25c4.68,1.13,15.66,3.13,19.7,3.62c2.1,0.25,2.9,2.17,1.96,4.22C81.62,81.25,77,89.71,71.93,94.37c-3.32,3.06-5.05,0.88-6.1-0.65" /><path d="M64.21,60.2c0.16,1.18-0.13,2.05-0.65,3.09C60,70.5,52.38,82.5,37.34,92.28" /></g></g></g></g></g><g fill="none" stroke="#000" stroke-width="5" stroke-linecap="round" stroke-linejoin="round"><path d="M33.74,16.89c0.13,1.2,0.09,2.49-0.37,3.94C30.5,30,21.48,48.04,11.06,60.72" stroke-dasharray="49.906" stroke-dashoffset="49.906"><animate attributeName="stroke-dashoffset" values="49.906;49.906;0" dur="0.499s" fill="freeze" begin="0s;508d.click" /></path><path d="M25.01,44.25c1.06,1.06,1.31,2.25,1.31,3.96c0,11.1-0.04,30.71-0.06,43.29c0,3.24-0.01,5.96-0.01,7.88" stroke-dasharray="55.47" stroke-dashoffset="55.47"><animate attributeName="stroke-dashoffset" values="55.47" fill="freeze" begin="508d.click" /><animate attributeName="stroke-dashoffset" values="55.47;55.47;0" keyTimes="0;0.473;1" dur="1.054s" fill="freeze" begin="0s;508d.click" /></path><path d="M64.45,10.5c1.15,1.15,1.4,2.45,1.4,3.99c0,2.44,0,3.89,0,7.38" stroke-dasharray="11.737" stroke-dashoffset="11.737"><animate attributeName="stroke-dashoffset" values="11.737" fill="freeze" begin="508d.click" /><animate attributeName="stroke-dashoffset" values="11.737;11.737;0" keyTimes="0;0.9;1" dur="1.171s" fill="freeze" begin="0s;508d.click" /></path><path d="M46.23,24.3c2.15,0.45,4.22,0.23,6.16,0.05c7.28-0.68,21.93-2.33,29.63-2.83c1.91-0.12,3.78-0.23,5.66,0.19" stroke-dasharray="41.637" stroke-dashoffset="41.637"><animate attributeName="stroke-dashoffset" values="41.637" fill="freeze" begin="508d.click" /><animate attributeName="stroke-dashoffset" values="41.637;41.637;0" keyTimes="0;0.738;1" dur="1.587s" fill="freeze" begin="0s;508d.click" /></path><path d="M53.02,30.58c2.75,2.83,4.5,6.24,4.75,8.11" stroke-dasharray="9.521" stroke-dashoffset="9.521"><animate attributeName="stroke-dashoffset" values="9.521" fill="freeze" begin="508d.click" /><animate attributeName="stroke-dashoffset" values="9.521;9.521;0" keyTimes="0;0.944;1" dur="1.682s" fill="freeze" begin="0s;508d.click" /></path><path d="M79.79,25.34c0.08,1.04-0.17,1.79-0.51,2.59c-1.5,3.45-2.9,5.95-4.65,8.45" stroke-dasharray="12.333" stroke-dashoffset="12.333"><animate attributeName="stroke-dashoffset" values="12.333" fill="freeze" begin="508d.click" /><animate attributeName="stroke-dashoffset" values="12.333;12.333;0" keyTimes="0;0.932;1" dur="1.805s" fill="freeze" begin="0s;508d.click" /></path><path d="M42.52,39.98c-0.14,3.3-3.56,11.91-4.77,13.88" stroke-dasharray="14.747" stroke-dashoffset="14.747"><animate attributeName="stroke-dashoffset" values="14.747" fill="freeze" begin="508d.click" /><animate attributeName="stroke-dashoffset" values="14.747;14.747;0" keyTimes="0;0.925;1" dur="1.952s" fill="freeze" begin="0s;508d.click" /></path><path d="M42.86,42.79c7.25-0.89,33.25-4.61,47.37-4.98c8.63-0.23,3.03,4.45-0.75,8.1" stroke-dasharray="61.456" stroke-dashoffset="61.456"><animate attributeName="stroke-dashoffset" values="61.456" fill="freeze" begin="508d.click" /><animate attributeName="stroke-dashoffset" values="61.456;61.456;0" keyTimes="0;0.809;1" dur="2.414s" fill="freeze" begin="0s;508d.click" /></path><path d="M65.31,46.62c0.97,0.97,1.06,2.13,1.06,3.79c0,1.59-0.09,3.72-0.09,5.35" stroke-dasharray="9.407" stroke-dashoffset="9.407"><animate attributeName="stroke-dashoffset" values="9.407" fill="freeze" begin="508d.click" /><animate attributeName="stroke-dashoffset" values="9.407;9.407;0" keyTimes="0;0.963;1" dur="2.508s" fill="freeze" begin="0s;508d.click" /></path><path d="M41.3,58.88c3.07,0.62,5.52,0.62,8.44,0.2c10.78-1.57,26.49-3.39,36.14-4.1c2.55-0.19,5.12-0.1,7.64,0.81" stroke-dasharray="52.609" stroke-dashoffset="52.609"><animate attributeName="stroke-dashoffset" values="52.609" fill="freeze" begin="508d.click" /><animate attributeName="stroke-dashoffset" values="52.609;52.609;0" keyTimes="0;0.827;1" dur="3.034s" fill="freeze" begin="0s;508d.click" /></path><path d="M62.82,67.25c4.68,1.13,15.66,3.13,19.7,3.62c2.1,0.25,2.9,2.17,1.96,4.22C81.62,81.25,77,89.71,71.93,94.37c-3.32,3.06-5.05,0.88-6.1-0.65" stroke-dasharray="56.143" stroke-dashoffset="56.143"><animate attributeName="stroke-dashoffset" values="56.143" fill="freeze" begin="508d.click" /><animate attributeName="stroke-dashoffset" values="56.143;56.143;0" keyTimes="0;0.844;1" dur="3.595s" fill="freeze" begin="0s;508d.click" /></path><path d="M64.21,60.2c0.16,1.18-0.13,2.05-0.65,3.09C60,70.5,52.38,82.5,37.34,92.28" stroke-dasharray="42.771" stroke-dashoffset="42.771"><animate attributeName="stroke-dashoffset" values="42.771" fill="freeze" begin="508d.click" /><animate attributeName="stroke-dashoffset" values="42.771;42.771;0" keyTimes="0;0.894;1" dur="4.023s" fill="freeze" begin="0s;508d.click" /></path></g></svg>