<svg xmlns="http://www.w3.org/2000/svg" width="109" height="109" viewBox="0 0 109 109" id="508d"><g fill="none" stroke="#666" stroke-width="9" stroke-linecap="round" stroke-linejoin="round"><g><g><path d="M33.74,16.89c0.13,1.2,0.09,2.49-0.37,3.94C30.5,30,21.48,48.04,11.06,60.72" /><path d="M25.01,44.25c1.06,1.06,1.31,2.25,1.31,3.96c0,11.1-0.04,30.71-0.06,43.29c0,3.24-0.01,5.96-0.01,7.88" /></g><g p4:phon="旁" xmlns:p4="http://kanjivg.tagaini.net"><g><g p4:partial><g><path d="M64.45,10.5c1.15,1.15,1.4,2.45,1.4,3.99c0,2.44,0,3.89,0,7.38" /><path d="M46.23,24.3c2.15,0.45,4.22,0.23,6.16,0.05c7.28-0.68,21.93-2.33,29.63-2.83c1.91-0.12,3.78-0.23,5.66,0.19" /></g><g><path d="M53.02,30.58c2.75,2.83,4.5,6.24,4.75,8.11" /><path d="M79.79,25.34c0.08,1.04-0.17,1.79-0.51,2.59c-1.5,3.45-2.9,5.95-4.65,8.45" /></g></g><g><path d="M42.52,39.98c-0.14,3.3-3.56,11.91-4.77,13.88" /><path d="M42.86,42.79c7.25-0.89,33.25-4.61,47.37-4.98c8.63-0.23,3.03,4.45-0.75,8.1" /></g></g><g><g><path d="M65.31,46.62c0.97,0.97,1.06,2.13,1.06,3.79c0,1.59-0.09,3.72-0.09,5.35" /><path d="M41.3,58.88c3.07,0.62,5.52,0.62,8.44,0.2c10.78-1.57,26.49-3.39,36.14-4.1c2.55-0.19,5.12-0.1,7.64,0.81" /></g><g><path d="M62.82,67.25c4.68,1.13,15.66,3.13,19.7,3.62c2.1,0.25,2.9,2.17,1.96,4.22C81.62,81.25,77,89.71,71.93,94.37c-3.32,3.06-5.05,0.88-6.1-0.65" /><path d="M64.21,60.2c0.16,1.18-0.13,2.05-0.65,3.09C60,70.5,52.38,82.5,37.34,92.28" /></g></g></g></g></g><g fill="none" stroke="#000" stroke-width="5" stroke-linecap="round" stroke-linejoin="round"><g><g><path d="M33.74,16.89c0.13,1.2,0.09,2.49-0.37,3.94C30.5,30,21.48,48.04,11.06,60.72" stroke-dasharray="49.9" stroke-dashoffset="49.9"><animate id="0" attributeName="stroke-dashoffset" values="49.9;0" dur="0.5s" fill="freeze" begin="0s;508d.click" /></path><path d="M25.01,44.25c1.06,1.06,1.31,2.25,1.31,3.96c0,11.1-0.04,30.71-0.06,43.29c0,3.24-0.01,5.96-0.01,7.88" stroke-dasharray="55.47" stroke-dashoffset="55.47"><animate attributeName="stroke-dashoffset" values="55.47" fill="freeze" begin="508d.click" /><animate id="1" attributeName="stroke-dashoffset" values="55.47;0" dur="0.55s" fill="freeze" begin="0.end" /></path></g><g p4:phon="旁" xmlns:p4="http://kanjivg.tagaini.net"><g><g p4:partial><g><path d="M64.45,10.5c1.15,1.15,1.4,2.45,1.4,3.99c0,2.44,0,3.89,0,7.38" stroke-dasharray="11.74" stroke-dashoffset="11.74"><animate attributeName="stroke-dashoffset" values="11.74" fill="freeze" begin="508d.click" /><animate id="2" attributeName="stroke-dashoffset" values="11.74;0" dur="0.12s" fill="freeze" begin="1.end" /></path><path d="M46.23,24.3c2.15,0.45,4.22,0.23,6.16,0.05c7.28-0.68,21.93-2.33,29.63-2.83c1.91-0.12,3.78-0.23,5.66,0.19" stroke-dasharray="41.64" stroke-dashoffset="41.64"><animate attributeName="stroke-dashoffset" values="41.64" fill="freeze" begin="508d.click" /><animate id="3" attributeName="stroke-dashoffset" values="41.64;0" dur="0.42s" fill="freeze" begin="2.end" /></path></g><g><path d="M53.02,30.58c2.75,2.83,4.5,6.24,4.75,8.11" stroke-dasharray="9.52" stroke-dashoffset="9.52"><animate attributeName="stroke-dashoffset" values="9.52" fill="freeze" begin="508d.click" /><animate id="4" attributeName="stroke-dashoffset" values="9.52;0" dur="0.1s" fill="freeze" begin="3.end" /></path><path d="M79.79,25.34c0.08,1.04-0.17,1.79-0.51,2.59c-1.5,3.45-2.9,5.95-4.65,8.45" stroke-dasharray="12.33" stroke-dashoffset="12.33"><animate attributeName="stroke-dashoffset" values="12.33" fill="freeze" begin="508d.click" /><animate id="5" attributeName="stroke-dashoffset" values="12.33;0" dur="0.12s" fill="freeze" begin="4.end" /></path></g></g><g><path d="M42.52,39.98c-0.14,3.3-3.56,11.91-4.77,13.88" stroke-dasharray="14.75" stroke-dashoffset="14.75"><animate attributeName="stroke-dashoffset" values="14.75" fill="freeze" begin="508d.click" /><animate id="6" attributeName="stroke-dashoffset" values="14.75;0" dur="0.15s" fill="freeze" begin="5.end" /></path><path d="M42.86,42.79c7.25-0.89,33.25-4.61,47.37-4.98c8.63-0.23,3.03,4.45-0.75,8.1" stroke-dasharray="61.45" stroke-dashoffset="61.45"><animate attributeName="stroke-dashoffset" values="61.45" fill="freeze" begin="508d.click" /><animate id="7" attributeName="stroke-dashoffset" values="61.45;0" dur="0.46s" fill="freeze" begin="6.end" /></path></g></g><g><g><path d="M65.31,46.62c0.97,0.97,1.06,2.13,1.06,3.79c0,1.59-0.09,3.72-0.09,5.35" stroke-dasharray="9.41" stroke-dashoffset="9.41"><animate attributeName="stroke-dashoffset" values="9.41" fill="freeze" begin="508d.click" /><animate id="8" attributeName="stroke-dashoffset" values="9.41;0" dur="0.09s" fill="freeze" begin="7.end" /></path><path d="M41.3,58.88c3.07,0.62,5.52,0.62,8.44,0.2c10.78-1.57,26.49-3.39,36.14-4.1c2.55-0.19,5.12-0.1,7.64,0.81" stroke-dasharray="52.61" stroke-dashoffset="52.61"><animate attributeName="stroke-dashoffset" values="52.61" fill="freeze" begin="508d.click" /><animate id="9" attributeName="stroke-dashoffset" values="52.61;0" dur="0.53s" fill="freeze" begin="8.end" /></path></g><g><path d="M62.82,67.25c4.68,1.13,15.66,3.13,19.7,3.62c2.1,0.25,2.9,2.17,1.96,4.22C81.62,81.25,77,89.71,71.93,94.37c-3.32,3.06-5.05,0.88-6.1-0.65" stroke-dasharray="56.14" stroke-dashoffset="56.14"><animate attributeName="stroke-dashoffset" values="56.14" fill="freeze" begin="508d.click" /><animate id="10" attributeName="stroke-dashoffset" values="56.14;0" dur="0.56s" fill="freeze" begin="9.end" /></path><path d="M64.21,60.2c0.16,1.18-0.13,2.05-0.65,3.09C60,70.5,52.38,82.5,37.34,92.28" stroke-dasharray="42.77" stroke-dashoffset="42.77"><animate attributeName="stroke-dashoffset" values="42.77" fill="freeze" begin="508d.click" /><animate id="11" attributeName="stroke-dashoffset" values="42.77;0" dur="0.43s" fill="freeze" begin="10.end" /></path></g></g></g></g></g></svg>