<svg xmlns="http://www.w3.org/2000/svg" width="109" height="109" viewBox="0 0 109 109" id="50cd"><g fill="none" stroke="#666" stroke-width="9" stroke-linecap="round" stroke-linejoin="round"><g><g><path d="M29.5,17c0.25,1.35,0.25,2.7-0.24,4C24.7,32.98,18.88,47.23,9,60.29" /><path d="M21.78,43.5c0.73,0.73,1,1.97,1,3.12c0,10.4-0.02,29.95-0.03,41c0,2.58,0,4.69,0,6.12" /></g><g p4:phon="動" xmlns:p4="http://kanjivg.tagaini.net"><g><g p4:part="1"><g><path d="M58.89,13.26c-0.02,1.11-0.41,1.84-1.27,2.72c-2.51,2.56-10.37,6.88-21.52,10.78" /></g><g p4:part="1"><path d="M30.22,35.31c1.51,0.19,3.54,0.23,4.81,0.1c10.52-1.04,20.28-2.42,30.05-3.23c2.08-0.17,3.35,0.14,4.39,0.35" /></g></g><g><path d="M34.12,45.15c0.87,0.87,1.27,1.88,1.43,2.72c0.83,3.78,1.62,9.21,2.17,14.51c0.11,1.06,0.21,2.12,0.3,3.16" /><path d="M36.13,46.05c7.57-1.21,19.25-2.43,25.82-3.06c2.1-0.2,3.67,0.98,3.38,2.91c-0.49,3.24-1.45,8.35-2.72,13.87c-0.24,1.04-0.49,2.09-0.75,3.15" /><path d="M38.26,54.64c5.24-0.64,20.12-2.26,24.57-2.4" /><path d="M39.38,64.09c6.12-0.84,13-1.59,21.48-2.21" /><g p4:part="2"><g p4:part="2"><path d="M49.19,24.41c0.76,0.76,1.03,2.09,1.03,3.29c0,0.88-0.14,48.42-0.14,54.39" /></g></g><path d="M34.94,73.71c1.03,0.34,2.98,0.35,4.06,0.2c8-1.16,15.88-2.54,20.26-3.25c1.17-0.19,2.45-0.42,3.64-0.2" /><path d="M32.42,88.36c1.08,0.89,2.71,1.01,4.56,0.28c9.7-3.83,12.81-5.14,23.93-9.61" /></g></g><g><path d="M72.34,44.06c1.41,0.32,2.64,0.43,3.49,0.33c5.57-0.69,13.03-2.52,17.2-3.34c3.24-0.63,4.39,0.73,4.23,3.99c-0.36,7.5-6.56,38.02-10.38,43.1c-2.93,3.89-3.46,2.15-6.54-0.61" /><path d="M81.76,21.18c0.99,1.32,1.26,2.91,1.19,5.37c-0.58,19.58-6.7,49.2-24.88,67.54" /></g></g></g></g><g fill="none" stroke="#000" stroke-width="5" stroke-linecap="round" stroke-linejoin="round"><g><g><path d="M29.5,17c0.25,1.35,0.25,2.7-0.24,4C24.7,32.98,18.88,47.23,9,60.29" stroke-dasharray="48.42" stroke-dashoffset="48.42"><animate id="0" attributeName="stroke-dashoffset" values="48.42;0" dur="0.48s" fill="freeze" begin="0s;50cd.click" /></path><path d="M21.78,43.5c0.73,0.73,1,1.97,1,3.12c0,10.4-0.02,29.95-0.03,41c0,2.58,0,4.69,0,6.12" stroke-dasharray="50.48" stroke-dashoffset="50.48"><animate attributeName="stroke-dashoffset" values="50.48" fill="freeze" begin="50cd.click" /><animate id="1" attributeName="stroke-dashoffset" values="50.48;0" dur="0.5s" fill="freeze" begin="0.end" /></path></g><g p4:phon="動" xmlns:p4="http://kanjivg.tagaini.net"><g><g p4:part="1"><g><path d="M58.89,13.26c-0.02,1.11-0.41,1.84-1.27,2.72c-2.51,2.56-10.37,6.88-21.52,10.78" stroke-dasharray="27.29" stroke-dashoffset="27.29"><animate attributeName="stroke-dashoffset" values="27.29" fill="freeze" begin="50cd.click" /><animate id="2" attributeName="stroke-dashoffset" values="27.29;0" dur="0.27s" fill="freeze" begin="1.end" /></path></g><g p4:part="1"><path d="M30.22,35.31c1.51,0.19,3.54,0.23,4.81,0.1c10.52-1.04,20.28-2.42,30.05-3.23c2.08-0.17,3.35,0.14,4.39,0.35" stroke-dasharray="39.47" stroke-dashoffset="39.47"><animate attributeName="stroke-dashoffset" values="39.47" fill="freeze" begin="50cd.click" /><animate id="3" attributeName="stroke-dashoffset" values="39.47;0" dur="0.39s" fill="freeze" begin="2.end" /></path></g></g><g><path d="M34.12,45.15c0.87,0.87,1.27,1.88,1.43,2.72c0.83,3.78,1.62,9.21,2.17,14.51c0.11,1.06,0.21,2.12,0.3,3.16" stroke-dasharray="20.97" stroke-dashoffset="20.97"><animate attributeName="stroke-dashoffset" values="20.97" fill="freeze" begin="50cd.click" /><animate id="4" attributeName="stroke-dashoffset" values="20.97;0" dur="0.21s" fill="freeze" begin="3.end" /></path><path d="M36.13,46.05c7.57-1.21,19.25-2.43,25.82-3.06c2.1-0.2,3.67,0.98,3.38,2.91c-0.49,3.24-1.45,8.35-2.72,13.87c-0.24,1.04-0.49,2.09-0.75,3.15" stroke-dasharray="48.62" stroke-dashoffset="48.62"><animate attributeName="stroke-dashoffset" values="48.62" fill="freeze" begin="50cd.click" /><animate id="5" attributeName="stroke-dashoffset" values="48.62;0" dur="0.49s" fill="freeze" begin="4.end" /></path><path d="M38.26,54.64c5.24-0.64,20.12-2.26,24.57-2.4" stroke-dasharray="24.69" stroke-dashoffset="24.69"><animate attributeName="stroke-dashoffset" values="24.69" fill="freeze" begin="50cd.click" /><animate id="6" attributeName="stroke-dashoffset" values="24.69;0" dur="0.25s" fill="freeze" begin="5.end" /></path><path d="M39.38,64.09c6.12-0.84,13-1.59,21.48-2.21" stroke-dasharray="21.6" stroke-dashoffset="21.6"><animate attributeName="stroke-dashoffset" values="21.6" fill="freeze" begin="50cd.click" /><animate id="7" attributeName="stroke-dashoffset" values="21.6;0" dur="0.22s" fill="freeze" begin="6.end" /></path><g p4:part="2"><g p4:part="2"><path d="M49.19,24.41c0.76,0.76,1.03,2.09,1.03,3.29c0,0.88-0.14,48.42-0.14,54.39" stroke-dasharray="57.92" stroke-dashoffset="57.92"><animate attributeName="stroke-dashoffset" values="57.92" fill="freeze" begin="50cd.click" /><animate id="8" attributeName="stroke-dashoffset" values="57.92;0" dur="0.58s" fill="freeze" begin="7.end" /></path></g></g><path d="M34.94,73.71c1.03,0.34,2.98,0.35,4.06,0.2c8-1.16,15.88-2.54,20.26-3.25c1.17-0.19,2.45-0.42,3.64-0.2" stroke-dasharray="28.27" stroke-dashoffset="28.27"><animate attributeName="stroke-dashoffset" values="28.27" fill="freeze" begin="50cd.click" /><animate id="9" attributeName="stroke-dashoffset" values="28.27;0" dur="0.28s" fill="freeze" begin="8.end" /></path><path d="M32.42,88.36c1.08,0.89,2.71,1.01,4.56,0.28c9.7-3.83,12.81-5.14,23.93-9.61" stroke-dasharray="30.58" stroke-dashoffset="30.58"><animate attributeName="stroke-dashoffset" values="30.58" fill="freeze" begin="50cd.click" /><animate id="10" attributeName="stroke-dashoffset" values="30.58;0" dur="0.31s" fill="freeze" begin="9.end" /></path></g></g><g><path d="M72.34,44.06c1.41,0.32,2.64,0.43,3.49,0.33c5.57-0.69,13.03-2.52,17.2-3.34c3.24-0.63,4.39,0.73,4.23,3.99c-0.36,7.5-6.56,38.02-10.38,43.1c-2.93,3.89-3.46,2.15-6.54-0.61" stroke-dasharray="81.31" stroke-dashoffset="81.31"><animate attributeName="stroke-dashoffset" values="81.31" fill="freeze" begin="50cd.click" /><animate id="11" attributeName="stroke-dashoffset" values="81.31;0" dur="0.61s" fill="freeze" begin="10.end" /></path><path d="M81.76,21.18c0.99,1.32,1.26,2.91,1.19,5.37c-0.58,19.58-6.7,49.2-24.88,67.54" stroke-dasharray="79.17" stroke-dashoffset="79.17"><animate attributeName="stroke-dashoffset" values="79.17" fill="freeze" begin="50cd.click" /><animate id="12" attributeName="stroke-dashoffset" values="79.17;0" dur="0.6s" fill="freeze" begin="11.end" /></path></g></g></g></g></svg>