<svg xmlns="http://www.w3.org/2000/svg" width="109" height="109" viewBox="0 0 109 109" id="50f9"><g fill="none" stroke="#666" stroke-width="9" stroke-linecap="round" stroke-linejoin="round"><g><g><path d="M32.44,17c0.13,1.16,0.23,2.62-0.12,4.05c-2.19,9.04-10.64,26.52-20.82,38.77" /><path d="M27.46,40.11c0.62,0.64,0.79,2.05,0.79,3.37c0,13.58-0.3,41.88-0.3,51.01" /></g><g><g><path d="M43.89,16.39c0.84,0.44,2.38,0.5,3.23,0.44c7.75-0.59,30.02-3.33,36.48-3.36c1.4-0.01,2.24,0.21,2.95,0.42" /><path d="M38.75,28.92c0.35,0.29,0.71,0.53,0.86,0.9c1.21,2.88,2.23,9.47,3.06,14.64" /><path d="M40.92,29.91c8.55-1.21,43.92-5.04,48.33-5.45c1.61-0.15,2.58,1.5,2.35,2.38c-0.96,3.63-1.19,8.13-3.24,13.36" /><path d="M54.81,19.66c0.93,0.46,1.55,2.04,1.67,2.97c0.36,2.74,0.77,11.12,1.07,18.45" /><path d="M73.04,16.88c0.93,0.46,1.21,2.48,0.97,4.57c-0.64,5.48-0.75,10.56-1.49,17.62" /><path d="M43.02,42.56c5.18-0.46,39.53-3.72,46.1-4.18" /></g><g><g><path d="M48.67,50.51c0.53,0.78,1.31,2.35,1.31,3.39c0,1.05,0.02,23.34,0.11,29.87" /><path d="M50.86,51.42c3-0.13,25.9-3.27,28.63-3.43c2.28-0.13,3.5,1.72,3.5,2.7c0,2.39-0.67,28.98-0.67,29.77" /><path d="M50.04,61.5c7.21-0.75,27.4-3.12,32.21-3.12" /><path d="M50.28,71.41c8.47-0.58,23.02-2.75,32-2.86" /><path d="M50.39,81.72c8.48-0.43,23.66-2.57,31.39-2.57" /></g><g><path d="M57.18,84.96c0.48,0.99-0.36,1.95-1.31,2.67c-2.86,2.17-10.39,6.8-16.12,9.37" /><path d="M75.18,83.91C81.62,87.08,89.24,92.83,91,95.6" /></g></g></g></g></g><g fill="none" stroke="#000" stroke-width="5" stroke-linecap="round" stroke-linejoin="round"><g><g><path d="M32.44,17c0.13,1.16,0.23,2.62-0.12,4.05c-2.19,9.04-10.64,26.52-20.82,38.77" stroke-dasharray="48.363" stroke-dashoffset="48.363"><animate attributeName="stroke-dashoffset" values="48.363;48.363;0" dur="0.484s" fill="freeze" begin="0s;50f9.click" /></path><path d="M27.46,40.11c0.62,0.64,0.79,2.05,0.79,3.37c0,13.58-0.3,41.88-0.3,51.01" stroke-dasharray="54.544" stroke-dashoffset="54.544"><animate attributeName="stroke-dashoffset" values="54.544" fill="freeze" begin="50f9.click" /><animate attributeName="stroke-dashoffset" values="54.544;54.544;0" keyTimes="0;0.47;1" dur="1.029s" fill="freeze" begin="0s;50f9.click" /></path></g><g><g><path d="M43.89,16.39c0.84,0.44,2.38,0.5,3.23,0.44c7.75-0.59,30.02-3.33,36.48-3.36c1.4-0.01,2.24,0.21,2.95,0.42" stroke-dasharray="42.926" stroke-dashoffset="42.926"><animate attributeName="stroke-dashoffset" values="42.926" fill="freeze" begin="50f9.click" /><animate attributeName="stroke-dashoffset" values="42.926;42.926;0" keyTimes="0;0.706;1" dur="1.458s" fill="freeze" begin="0s;50f9.click" /></path><path d="M38.75,28.92c0.35,0.29,0.71,0.53,0.86,0.9c1.21,2.88,2.23,9.47,3.06,14.64" stroke-dasharray="16.24" stroke-dashoffset="16.24"><animate attributeName="stroke-dashoffset" values="16.24" fill="freeze" begin="50f9.click" /><animate attributeName="stroke-dashoffset" values="16.24;16.24;0" keyTimes="0;0.9;1" dur="1.62s" fill="freeze" begin="0s;50f9.click" /></path><path d="M40.92,29.91c8.55-1.21,43.92-5.04,48.33-5.45c1.61-0.15,2.58,1.5,2.35,2.38c-0.96,3.63-1.19,8.13-3.24,13.36" stroke-dasharray="66.229" stroke-dashoffset="66.229"><animate attributeName="stroke-dashoffset" values="66.229" fill="freeze" begin="50f9.click" /><animate attributeName="stroke-dashoffset" values="66.229;66.229;0" keyTimes="0;0.765;1" dur="2.118s" fill="freeze" begin="0s;50f9.click" /></path><path d="M54.81,19.66c0.93,0.46,1.55,2.04,1.67,2.97c0.36,2.74,0.77,11.12,1.07,18.45" stroke-dasharray="22" stroke-dashoffset="22"><animate attributeName="stroke-dashoffset" values="22" fill="freeze" begin="50f9.click" /><animate attributeName="stroke-dashoffset" values="22;22;0" keyTimes="0;0.906;1" dur="2.338s" fill="freeze" begin="0s;50f9.click" /></path><path d="M73.04,16.88c0.93,0.46,1.21,2.48,0.97,4.57c-0.64,5.48-0.75,10.56-1.49,17.62" stroke-dasharray="22.568" stroke-dashoffset="22.568"><animate attributeName="stroke-dashoffset" values="22.568" fill="freeze" begin="50f9.click" /><animate attributeName="stroke-dashoffset" values="22.568;22.568;0" keyTimes="0;0.912;1" dur="2.564s" fill="freeze" begin="0s;50f9.click" /></path><path d="M43.02,42.56c5.18-0.46,39.53-3.72,46.1-4.18" stroke-dasharray="46.29" stroke-dashoffset="46.29"><animate attributeName="stroke-dashoffset" values="46.29" fill="freeze" begin="50f9.click" /><animate attributeName="stroke-dashoffset" values="46.29;46.29;0" keyTimes="0;0.847;1" dur="3.027s" fill="freeze" begin="0s;50f9.click" /></path></g><g><g><path d="M48.67,50.51c0.53,0.78,1.31,2.35,1.31,3.39c0,1.05,0.02,23.34,0.11,29.87" stroke-dasharray="33.546" stroke-dashoffset="33.546"><animate attributeName="stroke-dashoffset" values="33.546" fill="freeze" begin="50f9.click" /><animate attributeName="stroke-dashoffset" values="33.546;33.546;0" keyTimes="0;0.9;1" dur="3.362s" fill="freeze" begin="0s;50f9.click" /></path><path d="M50.86,51.42c3-0.13,25.9-3.27,28.63-3.43c2.28-0.13,3.5,1.72,3.5,2.7c0,2.39-0.67,28.98-0.67,29.77" stroke-dasharray="63.492" stroke-dashoffset="63.492"><animate attributeName="stroke-dashoffset" values="63.492" fill="freeze" begin="50f9.click" /><animate attributeName="stroke-dashoffset" values="63.492;63.492;0" keyTimes="0;0.876;1" dur="3.839s" fill="freeze" begin="0s;50f9.click" /></path><path d="M50.04,61.5c7.21-0.75,27.4-3.12,32.21-3.12" stroke-dasharray="32.368" stroke-dashoffset="32.368"><animate attributeName="stroke-dashoffset" values="32.368" fill="freeze" begin="50f9.click" /><animate attributeName="stroke-dashoffset" values="32.368;32.368;0" keyTimes="0;0.922;1" dur="4.163s" fill="freeze" begin="0s;50f9.click" /></path><path d="M50.28,71.41c8.47-0.58,23.02-2.75,32-2.86" stroke-dasharray="32.137" stroke-dashoffset="32.137"><animate attributeName="stroke-dashoffset" values="32.137" fill="freeze" begin="50f9.click" /><animate attributeName="stroke-dashoffset" values="32.137;32.137;0" keyTimes="0;0.928;1" dur="4.484s" fill="freeze" begin="0s;50f9.click" /></path><path d="M50.39,81.72c8.48-0.43,23.66-2.57,31.39-2.57" stroke-dasharray="31.504" stroke-dashoffset="31.504"><animate attributeName="stroke-dashoffset" values="31.504" fill="freeze" begin="50f9.click" /><animate attributeName="stroke-dashoffset" values="31.504;31.504;0" keyTimes="0;0.934;1" dur="4.799s" fill="freeze" begin="0s;50f9.click" /></path></g><g><path d="M57.18,84.96c0.48,0.99-0.36,1.95-1.31,2.67c-2.86,2.17-10.39,6.8-16.12,9.37" stroke-dasharray="21.906" stroke-dashoffset="21.906"><animate attributeName="stroke-dashoffset" values="21.906" fill="freeze" begin="50f9.click" /><animate attributeName="stroke-dashoffset" values="21.906;21.906;0" keyTimes="0;0.956;1" dur="5.018s" fill="freeze" begin="0s;50f9.click" /></path><path d="M75.18,83.91C81.62,87.08,89.24,92.83,91,95.6" stroke-dasharray="19.808" stroke-dashoffset="19.808"><animate attributeName="stroke-dashoffset" values="19.808" fill="freeze" begin="50f9.click" /><animate attributeName="stroke-dashoffset" values="19.808;19.808;0" keyTimes="0;0.962;1" dur="5.216s" fill="freeze" begin="0s;50f9.click" /></path></g></g></g></g></g></svg>