<svg xmlns="http://www.w3.org/2000/svg" width="109" height="109" viewBox="0 0 109 109" id="5100"><g fill="none" stroke="#666" stroke-width="9" stroke-linecap="round" stroke-linejoin="round"><g><g><path d="M31.25,19.62c0.24,1.88-0.05,2.96-0.73,4.56c-4.34,10.24-9.27,19.94-19.27,30.56" /><path d="M24.03,41.25c0.92,0.92,1.26,2.22,1.26,3.48c0,10.9-0.03,32.68-0.04,44.77c0,2.9,0,5.25,0,6.75" /></g><g p4:phon="義" xmlns:p4="http://kanjivg.tagaini.net"><g><path d="M47.25,15.5c2.44,1.22,6.3,5.01,6.91,6.91" /><path d="M75.19,11.14c0.11,0.72-0.05,1.62-0.38,2.26c-2.06,3.85-3.79,6.02-7.33,10.2" /><path d="M44.01,28.95c1.44,0.6,3.76,0.19,5.24-0.06c6.14-1.03,20.06-3.39,26.75-4.01c1.65-0.15,3.41-0.36,5.04,0.05" /><path d="M61.07,28.4c0.83,0.83,1.09,1.85,1.09,2.99c0,0.63-0.04,8.99-0.04,13.49" /><path d="M43.52,38.79c1.6,0.33,3.49,0.25,4.84,0.05c5.92-0.89,19.9-3.09,26.77-3.74c1.65-0.16,3.41-0.36,5.04,0.05" /><path d="M37.52,48.74c2.21,0.81,5.21,0.29,7.47-0.05c8.58-1.3,27.65-4.06,38-5.15c2.47-0.26,4.87-0.34,7.31,0.2" /></g><g><g><path d="M55.25,50.75c0.16,0.98-0.44,1.82-1.14,2.6c-2.26,2.5-5.89,4.92-13.66,8.82" /></g><g p4:part="1"><g p4:part="1"><path d="M35.29,68.79c3.21,0.58,5.93,0.35,8.6-0.24c10.99-2.42,28.11-6.3,39.73-7.51c3.25-0.34,6.12-0.68,9.34-0.01" /></g></g><g><path d="M52.35,59.19c0.67,0.67,1.04,1.81,1.04,3.05c0,8.72,0.04,26.82,0.04,29.78c0,7.6-4.56,1.85-5.83,0.18" /></g><path d="M35.75,84.67c1.04,1.04,2.16,0.99,3.94-0.16c2.93-1.89,13.18-8.64,18.96-12.41" /><g p4:part="2"><path d="M65.93,50.45c1.12,1.06,1.59,2.37,1.99,4.63c3.46,19.68,9.83,29.68,21.96,39.18c6.1,4.78,7.62,3.25,5.79-4.7" /><g><path d="M85.5,67.77c0,0.86-0.27,1.61-0.63,2.31c-3.37,6.55-10.34,12.85-23.12,18.68" /></g><g p4:part="2"><g><path d="M77.5,49.25c1.98,1.14,5.14,3.76,6.07,5.72" /></g></g></g></g></g></g></g><g fill="none" stroke="#000" stroke-width="5" stroke-linecap="round" stroke-linejoin="round"><g><g><path d="M31.25,19.62c0.24,1.88-0.05,2.96-0.73,4.56c-4.34,10.24-9.27,19.94-19.27,30.56" stroke-dasharray="41.03" stroke-dashoffset="41.03"><animate id="0" attributeName="stroke-dashoffset" values="41.03;0" dur="0.41s" fill="freeze" begin="0s;5100.click" /></path><path d="M24.03,41.25c0.92,0.92,1.26,2.22,1.26,3.48c0,10.9-0.03,32.68-0.04,44.77c0,2.9,0,5.25,0,6.75" stroke-dasharray="55.32" stroke-dashoffset="55.32"><animate attributeName="stroke-dashoffset" values="55.32" fill="freeze" begin="5100.click" /><animate id="1" attributeName="stroke-dashoffset" values="55.32;0" dur="0.55s" fill="freeze" begin="0.end" /></path></g><g p4:phon="義" xmlns:p4="http://kanjivg.tagaini.net"><g><path d="M47.25,15.5c2.44,1.22,6.3,5.01,6.91,6.91" stroke-dasharray="9.91" stroke-dashoffset="9.91"><animate attributeName="stroke-dashoffset" values="9.91" fill="freeze" begin="5100.click" /><animate id="2" attributeName="stroke-dashoffset" values="9.91;0" dur="0.1s" fill="freeze" begin="1.end" /></path><path d="M75.19,11.14c0.11,0.72-0.05,1.62-0.38,2.26c-2.06,3.85-3.79,6.02-7.33,10.2" stroke-dasharray="14.92" stroke-dashoffset="14.92"><animate attributeName="stroke-dashoffset" values="14.92" fill="freeze" begin="5100.click" /><animate id="3" attributeName="stroke-dashoffset" values="14.92;0" dur="0.15s" fill="freeze" begin="2.end" /></path><path d="M44.01,28.95c1.44,0.6,3.76,0.19,5.24-0.06c6.14-1.03,20.06-3.39,26.75-4.01c1.65-0.15,3.41-0.36,5.04,0.05" stroke-dasharray="37.42" stroke-dashoffset="37.42"><animate attributeName="stroke-dashoffset" values="37.42" fill="freeze" begin="5100.click" /><animate id="4" attributeName="stroke-dashoffset" values="37.42;0" dur="0.37s" fill="freeze" begin="3.end" /></path><path d="M61.07,28.4c0.83,0.83,1.09,1.85,1.09,2.99c0,0.63-0.04,8.99-0.04,13.49" stroke-dasharray="16.76" stroke-dashoffset="16.76"><animate attributeName="stroke-dashoffset" values="16.76" fill="freeze" begin="5100.click" /><animate id="5" attributeName="stroke-dashoffset" values="16.76;0" dur="0.17s" fill="freeze" begin="4.end" /></path><path d="M43.52,38.79c1.6,0.33,3.49,0.25,4.84,0.05c5.92-0.89,19.9-3.09,26.77-3.74c1.65-0.16,3.41-0.36,5.04,0.05" stroke-dasharray="36.96" stroke-dashoffset="36.96"><animate attributeName="stroke-dashoffset" values="36.96" fill="freeze" begin="5100.click" /><animate id="6" attributeName="stroke-dashoffset" values="36.96;0" dur="0.37s" fill="freeze" begin="5.end" /></path><path d="M37.52,48.74c2.21,0.81,5.21,0.29,7.47-0.05c8.58-1.3,27.65-4.06,38-5.15c2.47-0.26,4.87-0.34,7.31,0.2" stroke-dasharray="53.24" stroke-dashoffset="53.24"><animate attributeName="stroke-dashoffset" values="53.24" fill="freeze" begin="5100.click" /><animate id="7" attributeName="stroke-dashoffset" values="53.24;0" dur="0.53s" fill="freeze" begin="6.end" /></path></g><g><g><path d="M55.25,50.75c0.16,0.98-0.44,1.82-1.14,2.6c-2.26,2.5-5.89,4.92-13.66,8.82" stroke-dasharray="19.28" stroke-dashoffset="19.28"><animate attributeName="stroke-dashoffset" values="19.28" fill="freeze" begin="5100.click" /><animate id="8" attributeName="stroke-dashoffset" values="19.28;0" dur="0.19s" fill="freeze" begin="7.end" /></path></g><g p4:part="1"><g p4:part="1"><path d="M35.29,68.79c3.21,0.58,5.93,0.35,8.6-0.24c10.99-2.42,28.11-6.3,39.73-7.51c3.25-0.34,6.12-0.68,9.34-0.01" stroke-dasharray="58.5" stroke-dashoffset="58.5"><animate attributeName="stroke-dashoffset" values="58.5" fill="freeze" begin="5100.click" /><animate id="9" attributeName="stroke-dashoffset" values="58.5;0" dur="0.58s" fill="freeze" begin="8.end" /></path></g></g><g><path d="M52.35,59.19c0.67,0.67,1.04,1.81,1.04,3.05c0,8.72,0.04,26.82,0.04,29.78c0,7.6-4.56,1.85-5.83,0.18" stroke-dasharray="43.38" stroke-dashoffset="43.38"><animate attributeName="stroke-dashoffset" values="43.38" fill="freeze" begin="5100.click" /><animate id="10" attributeName="stroke-dashoffset" values="43.38;0" dur="0.43s" fill="freeze" begin="9.end" /></path></g><path d="M35.75,84.67c1.04,1.04,2.16,0.99,3.94-0.16c2.93-1.89,13.18-8.64,18.96-12.41" stroke-dasharray="27.02" stroke-dashoffset="27.02"><animate attributeName="stroke-dashoffset" values="27.02" fill="freeze" begin="5100.click" /><animate id="11" attributeName="stroke-dashoffset" values="27.02;0" dur="0.27s" fill="freeze" begin="10.end" /></path><g p4:part="2"><path d="M65.93,50.45c1.12,1.06,1.59,2.37,1.99,4.63c3.46,19.68,9.83,29.68,21.96,39.18c6.1,4.78,7.62,3.25,5.79-4.7" stroke-dasharray="65.34" stroke-dashoffset="65.34"><animate attributeName="stroke-dashoffset" values="65.34" fill="freeze" begin="5100.click" /><animate id="12" attributeName="stroke-dashoffset" values="65.34;0" dur="0.49s" fill="freeze" begin="11.end" /></path><g><path d="M85.5,67.77c0,0.86-0.27,1.61-0.63,2.31c-3.37,6.55-10.34,12.85-23.12,18.68" stroke-dasharray="32.68" stroke-dashoffset="32.68"><animate attributeName="stroke-dashoffset" values="32.68" fill="freeze" begin="5100.click" /><animate id="13" attributeName="stroke-dashoffset" values="32.68;0" dur="0.33s" fill="freeze" begin="12.end" /></path></g><g p4:part="2"><g><path d="M77.5,49.25c1.98,1.14,5.14,3.76,6.07,5.72" stroke-dasharray="8.43" stroke-dashoffset="8.43"><animate attributeName="stroke-dashoffset" values="8.43" fill="freeze" begin="5100.click" /><animate id="14" attributeName="stroke-dashoffset" values="8.43;0" dur="0.08s" fill="freeze" begin="13.end" /></path></g></g></g></g></g></g></g></svg>