<svg xmlns="http://www.w3.org/2000/svg" width="109" height="109" viewBox="0 0 109 109" id="5118"><g fill="none" stroke="#666" stroke-width="9" stroke-linecap="round" stroke-linejoin="round"><g><g><path d="M30.01,15.39c0.12,1.25,0.2,2.81-0.1,4.34c-1.95,9.67-9.5,28.38-18.59,41.49" /><path d="M26.49,38c0.66,0.68,0.84,2.19,0.84,3.58c0,14.46-0.32,44.58-0.32,54.29" /></g><g><g><g p6:partial xmlns:p6="http://kanjivg.tagaini.net"><g><path d="M43.92,22.73c2.08,0.22,2.67,0.57,4.59,0.43c8.76-0.65,24.26-3.25,32.6-3.68c2.71-0.14,4.56,1.05,4.17,3.23c-0.62,3.45-1.12,8.91-2.58,18.61" /><path d="M38.88,33.99c1.64,0.56,2.93,0.82,4.74,0.56c15.88-2.26,35.22-4.3,47.82-5.15c2.01-0.13,3.65,0.57,4.56,0.85" /><path d="M43.76,45.36c1.04,0.21,2.92,0.33,4.17,0.21c11.47-1.08,21.89-2.17,32.31-3.25c1.66-0.17,2.71,0,3.96,0.22" /></g><g><path d="M62.83,11.25c0.91,0.43,1.63,1.91,1.63,2.8c0,4.77-0.18,34.38-0.18,40.98" /></g><path d="M38.82,56.82c1.27,0.47,3.59,0.61,4.85,0.47c14.84-1.74,34.69-4.15,46.21-4.54c2.11-0.07,3.38,0.22,4.43,0.46" /></g><g><path d="M42.34,64.54c0,3.87-5.22,9.59-6.59,10.69" /><path d="M54.36,63.18c2.1,1.58,4.09,5.94,4.62,8.41" /><path d="M69,61.22c2.51,1.44,6.49,5.91,7.12,8.15" /><path d="M85.42,60.21c3.24,1.96,8.36,8.05,9.17,11.1" /></g></g><g><path d="M43.32,77.28c0.51,0.48,1.16,1.5,1.27,1.91c0.85,3.25,1.06,9.84,1.64,15.68" /><path d="M44.87,78.69c9.1-0.67,37.44-3.77,40.75-3.69c1.43,0.04,2.32,0.73,2.08,1.94c-0.45,2.31-1.45,9.56-2.64,15.68" /><path d="M58.03,79.37c0.21,0.31,0.52,1.4,0.52,1.8c0,4.88,0.08,6.34,0.14,12.59" /><path d="M71.44,77.94c0.39,0.37,0.71,1,0.69,1.48C72,84,71.5,87.5,70.94,92.92" /><path d="M35.82,95.44c1.16,0.54,3.29,0.62,4.44,0.54c12.07-0.9,32.65-3.05,54.86-3.19c1.93-0.01,3.09,0.25,4.06,0.52" /></g></g></g></g><g fill="none" stroke="#000" stroke-width="5" stroke-linecap="round" stroke-linejoin="round"><g><g><path d="M30.01,15.39c0.12,1.25,0.2,2.81-0.1,4.34c-1.95,9.67-9.5,28.38-18.59,41.49" stroke-dasharray="50.05" stroke-dashoffset="50.05"><animate id="0" attributeName="stroke-dashoffset" values="50.05;0" dur="0.5s" fill="freeze" begin="0s;5118.click" /></path><path d="M26.49,38c0.66,0.68,0.84,2.19,0.84,3.58c0,14.46-0.32,44.58-0.32,54.29" stroke-dasharray="58.04" stroke-dashoffset="58.04"><animate attributeName="stroke-dashoffset" values="58.04" fill="freeze" begin="5118.click" /><animate id="1" attributeName="stroke-dashoffset" values="58.04;0" dur="0.58s" fill="freeze" begin="0.end" /></path></g><g><g><g p6:partial xmlns:p6="http://kanjivg.tagaini.net"><g><path d="M43.92,22.73c2.08,0.22,2.67,0.57,4.59,0.43c8.76-0.65,24.26-3.25,32.6-3.68c2.71-0.14,4.56,1.05,4.17,3.23c-0.62,3.45-1.12,8.91-2.58,18.61" stroke-dasharray="62.43" stroke-dashoffset="62.43"><animate attributeName="stroke-dashoffset" values="62.43" fill="freeze" begin="5118.click" /><animate id="2" attributeName="stroke-dashoffset" values="62.43;0" dur="0.47s" fill="freeze" begin="1.end" /></path><path d="M38.88,33.99c1.64,0.56,2.93,0.82,4.74,0.56c15.88-2.26,35.22-4.3,47.82-5.15c2.01-0.13,3.65,0.57,4.56,0.85" stroke-dasharray="57.6" stroke-dashoffset="57.6"><animate attributeName="stroke-dashoffset" values="57.6" fill="freeze" begin="5118.click" /><animate id="3" attributeName="stroke-dashoffset" values="57.6;0" dur="0.58s" fill="freeze" begin="2.end" /></path><path d="M43.76,45.36c1.04,0.21,2.92,0.33,4.17,0.21c11.47-1.08,21.89-2.17,32.31-3.25c1.66-0.17,2.71,0,3.96,0.22" stroke-dasharray="40.64" stroke-dashoffset="40.64"><animate attributeName="stroke-dashoffset" values="40.64" fill="freeze" begin="5118.click" /><animate id="4" attributeName="stroke-dashoffset" values="40.64;0" dur="0.41s" fill="freeze" begin="3.end" /></path></g><g><path d="M62.83,11.25c0.91,0.43,1.63,1.91,1.63,2.8c0,4.77-0.18,34.38-0.18,40.98" stroke-dasharray="44.35" stroke-dashoffset="44.35"><animate attributeName="stroke-dashoffset" values="44.35" fill="freeze" begin="5118.click" /><animate id="5" attributeName="stroke-dashoffset" values="44.35;0" dur="0.44s" fill="freeze" begin="4.end" /></path></g><path d="M38.82,56.82c1.27,0.47,3.59,0.61,4.85,0.47c14.84-1.74,34.69-4.15,46.21-4.54c2.11-0.07,3.38,0.22,4.43,0.46" stroke-dasharray="55.82" stroke-dashoffset="55.82"><animate attributeName="stroke-dashoffset" values="55.82" fill="freeze" begin="5118.click" /><animate id="6" attributeName="stroke-dashoffset" values="55.82;0" dur="0.56s" fill="freeze" begin="5.end" /></path></g><g><path d="M42.34,64.54c0,3.87-5.22,9.59-6.59,10.69" stroke-dasharray="12.82" stroke-dashoffset="12.82"><animate attributeName="stroke-dashoffset" values="12.82" fill="freeze" begin="5118.click" /><animate id="7" attributeName="stroke-dashoffset" values="12.82;0" dur="0.13s" fill="freeze" begin="6.end" /></path><path d="M54.36,63.18c2.1,1.58,4.09,5.94,4.62,8.41" stroke-dasharray="9.74" stroke-dashoffset="9.74"><animate attributeName="stroke-dashoffset" values="9.74" fill="freeze" begin="5118.click" /><animate id="8" attributeName="stroke-dashoffset" values="9.74;0" dur="0.1s" fill="freeze" begin="7.end" /></path><path d="M69,61.22c2.51,1.44,6.49,5.91,7.12,8.15" stroke-dasharray="10.97" stroke-dashoffset="10.97"><animate attributeName="stroke-dashoffset" values="10.97" fill="freeze" begin="5118.click" /><animate id="9" attributeName="stroke-dashoffset" values="10.97;0" dur="0.11s" fill="freeze" begin="8.end" /></path><path d="M85.42,60.21c3.24,1.96,8.36,8.05,9.17,11.1" stroke-dasharray="14.6" stroke-dashoffset="14.6"><animate attributeName="stroke-dashoffset" values="14.6" fill="freeze" begin="5118.click" /><animate id="10" attributeName="stroke-dashoffset" values="14.6;0" dur="0.15s" fill="freeze" begin="9.end" /></path></g></g><g><path d="M43.32,77.28c0.51,0.48,1.16,1.5,1.27,1.91c0.85,3.25,1.06,9.84,1.64,15.68" stroke-dasharray="18.09" stroke-dashoffset="18.09"><animate attributeName="stroke-dashoffset" values="18.09" fill="freeze" begin="5118.click" /><animate id="11" attributeName="stroke-dashoffset" values="18.09;0" dur="0.18s" fill="freeze" begin="10.end" /></path><path d="M44.87,78.69c9.1-0.67,37.44-3.77,40.75-3.69c1.43,0.04,2.32,0.73,2.08,1.94c-0.45,2.31-1.45,9.56-2.64,15.68" stroke-dasharray="60.15" stroke-dashoffset="60.15"><animate attributeName="stroke-dashoffset" values="60.15" fill="freeze" begin="5118.click" /><animate id="12" attributeName="stroke-dashoffset" values="60.15;0" dur="0.45s" fill="freeze" begin="11.end" /></path><path d="M58.03,79.37c0.21,0.31,0.52,1.4,0.52,1.8c0,4.88,0.08,6.34,0.14,12.59" stroke-dasharray="14.48" stroke-dashoffset="14.48"><animate attributeName="stroke-dashoffset" values="14.48" fill="freeze" begin="5118.click" /><animate id="13" attributeName="stroke-dashoffset" values="14.48;0" dur="0.14s" fill="freeze" begin="12.end" /></path><path d="M71.44,77.94c0.39,0.37,0.71,1,0.69,1.48C72,84,71.5,87.5,70.94,92.92" stroke-dasharray="15.23" stroke-dashoffset="15.23"><animate attributeName="stroke-dashoffset" values="15.23" fill="freeze" begin="5118.click" /><animate id="14" attributeName="stroke-dashoffset" values="15.23;0" dur="0.15s" fill="freeze" begin="13.end" /></path><path d="M35.82,95.44c1.16,0.54,3.29,0.62,4.44,0.54c12.07-0.9,32.65-3.05,54.86-3.19c1.93-0.01,3.09,0.25,4.06,0.52" stroke-dasharray="63.58" stroke-dashoffset="63.58"><animate attributeName="stroke-dashoffset" values="63.58" fill="freeze" begin="5118.click" /><animate id="15" attributeName="stroke-dashoffset" values="63.58;0" dur="0.48s" fill="freeze" begin="14.end" /></path></g></g></g></g></svg>