<svg xmlns="http://www.w3.org/2000/svg" width="109" height="109" viewBox="0 0 109 109" id="5132"><g fill="none" stroke="#666" stroke-width="9" stroke-linecap="round" stroke-linejoin="round"><g><g><path d="M28.5,16.39c0.12,1.16,0.21,2.61-0.11,4.03c-2.03,8.99-9.88,26.36-19.34,38.55" /><path d="M22.03,43c0.59,0.61,0.76,1.97,0.76,3.23c0,13.02-0.29,44.15-0.29,52.9" /></g><g><g><path d="M39.04,17.5c2.42,1.46,6.25,5.98,6.86,8.25" /><path d="M30.62,35.58c0.56,0.23,2.67,0.27,3.23,0.23c6.86-0.42,12.97-2.17,17.96-2.37c0.93-0.04,2.32,0.11,2.78,0.23" /><path d="M34.6,49.06c0.34,0.12,2.39,0.13,2.73,0.12c3.49-0.14,6.97-1.43,10.49-2.05c0.55-0.1,2.9,0.06,3.17,0.12" /><path d="M34.8,61.33c0.3,0.12,2.13,0.13,2.44,0.12c3.12-0.13,9.09-2.11,12.17-2.09c0.5,0,2.58,0.06,2.83,0.11" /><g><path d="M32.97,74.32c0.31,0.35,0.66,1.11,0.76,1.57c0.87,4.03,2.09,12.44,2.97,18.36" /><path d="M34.09,76.23c5.67-0.85,11.97-2.49,17.2-3.36c1.31-0.21,2.1,0.99,1.92,1.98c-0.78,4.07-1.57,7.36-2.96,14.14" /><path d="M36.94,92.2c4.23-0.52,9.61-0.93,15.42-1.73" /></g></g><g><g p6:partial xmlns:p6="http://kanjivg.tagaini.net"><g><path d="M61.45,30.23c0.44,0.31,1.25,0.35,1.7,0.31c6.8-0.54,12.78-2.89,17.74-3.11c0.74-0.03,1.18,0.15,1.55,0.3" /><path d="M70.41,11.37c0.07,0.28,0.95,1.46,1.01,3.23c0.32,8.53,0.17,26.07,0.17,28.97" /><path d="M57,44.81c0.86,0.38,2.17,0.65,2.96,0.57c6.04-0.63,30.36-4.31,35.34-4.49c1.29-0.04,2.06,0.27,2.7,0.56" /></g><path d="M91.53,21.27c0.1,0.98,0.03,2.78-0.69,3.94c-9.25,14.94-17.83,25.62-34.72,39.43" /></g><path d="M78,48.75c2.05,1.23,5.3,5.05,5.81,6.97" /><g><path d="M67.55,58.92c0.29,0.82,0.59,1.23,0.59,2.33c0,1.09-0.1,32.66,0,33.75" /><path d="M68.63,60.56c1.66-0.14,18.42-2.79,19.93-2.96c1.26-0.14,2.07,1.56,1.97,2.39c-0.2,1.69-0.39,32.61-0.39,33.46" /><path d="M68.92,75.37c2.24,0,18-1.95,20.54-1.95" /><path d="M68.82,91.93c4.57-0.59,14.94-1.18,20.63-1.7" /></g></g></g></g></g><g fill="none" stroke="#000" stroke-width="5" stroke-linecap="round" stroke-linejoin="round"><g><g><path d="M28.5,16.39c0.12,1.16,0.21,2.61-0.11,4.03c-2.03,8.99-9.88,26.36-19.34,38.55" stroke-dasharray="47.44" stroke-dashoffset="47.44"><animate id="0" attributeName="stroke-dashoffset" values="47.44;0" dur="0.47s" fill="freeze" begin="0s;5132.click" /></path><path d="M22.03,43c0.59,0.61,0.76,1.97,0.76,3.23c0,13.02-0.29,44.15-0.29,52.9" stroke-dasharray="56.29" stroke-dashoffset="56.29"><animate attributeName="stroke-dashoffset" values="56.29" fill="freeze" begin="5132.click" /><animate id="1" attributeName="stroke-dashoffset" values="56.29;0" dur="0.56s" fill="freeze" begin="0.end" /></path></g><g><g><path d="M39.04,17.5c2.42,1.46,6.25,5.98,6.86,8.25" stroke-dasharray="10.88" stroke-dashoffset="10.88"><animate attributeName="stroke-dashoffset" values="10.88" fill="freeze" begin="5132.click" /><animate id="2" attributeName="stroke-dashoffset" values="10.88;0" dur="0.11s" fill="freeze" begin="1.end" /></path><path d="M30.62,35.58c0.56,0.23,2.67,0.27,3.23,0.23c6.86-0.42,12.97-2.17,17.96-2.37c0.93-0.04,2.32,0.11,2.78,0.23" stroke-dasharray="24.17" stroke-dashoffset="24.17"><animate attributeName="stroke-dashoffset" values="24.17" fill="freeze" begin="5132.click" /><animate id="3" attributeName="stroke-dashoffset" values="24.17;0" dur="0.24s" fill="freeze" begin="2.end" /></path><path d="M34.6,49.06c0.34,0.12,2.39,0.13,2.73,0.12c3.49-0.14,6.97-1.43,10.49-2.05c0.55-0.1,2.9,0.06,3.17,0.12" stroke-dasharray="16.62" stroke-dashoffset="16.62"><animate attributeName="stroke-dashoffset" values="16.62" fill="freeze" begin="5132.click" /><animate id="4" attributeName="stroke-dashoffset" values="16.62;0" dur="0.17s" fill="freeze" begin="3.end" /></path><path d="M34.8,61.33c0.3,0.12,2.13,0.13,2.44,0.12c3.12-0.13,9.09-2.11,12.17-2.09c0.5,0,2.58,0.06,2.83,0.11" stroke-dasharray="17.65" stroke-dashoffset="17.65"><animate attributeName="stroke-dashoffset" values="17.65" fill="freeze" begin="5132.click" /><animate id="5" attributeName="stroke-dashoffset" values="17.65;0" dur="0.18s" fill="freeze" begin="4.end" /></path><g><path d="M32.97,74.32c0.31,0.35,0.66,1.11,0.76,1.57c0.87,4.03,2.09,12.44,2.97,18.36" stroke-dasharray="20.36" stroke-dashoffset="20.36"><animate attributeName="stroke-dashoffset" values="20.36" fill="freeze" begin="5132.click" /><animate id="6" attributeName="stroke-dashoffset" values="20.36;0" dur="0.2s" fill="freeze" begin="5.end" /></path><path d="M34.09,76.23c5.67-0.85,11.97-2.49,17.2-3.36c1.31-0.21,2.1,0.99,1.92,1.98c-0.78,4.07-1.57,7.36-2.96,14.14" stroke-dasharray="35.21" stroke-dashoffset="35.21"><animate attributeName="stroke-dashoffset" values="35.21" fill="freeze" begin="5132.click" /><animate id="7" attributeName="stroke-dashoffset" values="35.21;0" dur="0.35s" fill="freeze" begin="6.end" /></path><path d="M36.94,92.2c4.23-0.52,9.61-0.93,15.42-1.73" stroke-dasharray="15.52" stroke-dashoffset="15.52"><animate attributeName="stroke-dashoffset" values="15.52" fill="freeze" begin="5132.click" /><animate id="8" attributeName="stroke-dashoffset" values="15.52;0" dur="0.16s" fill="freeze" begin="7.end" /></path></g></g><g><g p6:partial xmlns:p6="http://kanjivg.tagaini.net"><g><path d="M61.45,30.23c0.44,0.31,1.25,0.35,1.7,0.31c6.8-0.54,12.78-2.89,17.74-3.11c0.74-0.03,1.18,0.15,1.55,0.3" stroke-dasharray="21.38" stroke-dashoffset="21.38"><animate attributeName="stroke-dashoffset" values="21.38" fill="freeze" begin="5132.click" /><animate id="9" attributeName="stroke-dashoffset" values="21.38;0" dur="0.21s" fill="freeze" begin="8.end" /></path><path d="M70.41,11.37c0.07,0.28,0.95,1.46,1.01,3.23c0.32,8.53,0.17,26.07,0.17,28.97" stroke-dasharray="32.39" stroke-dashoffset="32.39"><animate attributeName="stroke-dashoffset" values="32.39" fill="freeze" begin="5132.click" /><animate id="10" attributeName="stroke-dashoffset" values="32.39;0" dur="0.32s" fill="freeze" begin="9.end" /></path><path d="M57,44.81c0.86,0.38,2.17,0.65,2.96,0.57c6.04-0.63,30.36-4.31,35.34-4.49c1.29-0.04,2.06,0.27,2.7,0.56" stroke-dasharray="41.45" stroke-dashoffset="41.45"><animate attributeName="stroke-dashoffset" values="41.45" fill="freeze" begin="5132.click" /><animate id="11" attributeName="stroke-dashoffset" values="41.45;0" dur="0.41s" fill="freeze" begin="10.end" /></path></g><path d="M91.53,21.27c0.1,0.98,0.03,2.78-0.69,3.94c-9.25,14.94-17.83,25.62-34.72,39.43" stroke-dasharray="56.89" stroke-dashoffset="56.89"><animate attributeName="stroke-dashoffset" values="56.89" fill="freeze" begin="5132.click" /><animate id="12" attributeName="stroke-dashoffset" values="56.89;0" dur="0.57s" fill="freeze" begin="11.end" /></path></g><path d="M78,48.75c2.05,1.23,5.3,5.05,5.81,6.97" stroke-dasharray="9.2" stroke-dashoffset="9.2"><animate attributeName="stroke-dashoffset" values="9.2" fill="freeze" begin="5132.click" /><animate id="13" attributeName="stroke-dashoffset" values="9.2;0" dur="0.09s" fill="freeze" begin="12.end" /></path><g><path d="M67.55,58.92c0.29,0.82,0.59,1.23,0.59,2.33c0,1.09-0.1,32.66,0,33.75" stroke-dasharray="36.17" stroke-dashoffset="36.17"><animate attributeName="stroke-dashoffset" values="36.17" fill="freeze" begin="5132.click" /><animate id="14" attributeName="stroke-dashoffset" values="36.17;0" dur="0.36s" fill="freeze" begin="13.end" /></path><path d="M68.63,60.56c1.66-0.14,18.42-2.79,19.93-2.96c1.26-0.14,2.07,1.56,1.97,2.39c-0.2,1.69-0.39,32.61-0.39,33.46" stroke-dasharray="57.07" stroke-dashoffset="57.07"><animate attributeName="stroke-dashoffset" values="57.07" fill="freeze" begin="5132.click" /><animate id="15" attributeName="stroke-dashoffset" values="57.07;0" dur="0.57s" fill="freeze" begin="14.end" /></path><path d="M68.92,75.37c2.24,0,18-1.95,20.54-1.95" stroke-dasharray="20.64" stroke-dashoffset="20.64"><animate attributeName="stroke-dashoffset" values="20.64" fill="freeze" begin="5132.click" /><animate id="16" attributeName="stroke-dashoffset" values="20.64;0" dur="0.21s" fill="freeze" begin="15.end" /></path><path d="M68.82,91.93c4.57-0.59,14.94-1.18,20.63-1.7" stroke-dasharray="20.7" stroke-dashoffset="20.7"><animate attributeName="stroke-dashoffset" values="20.7" fill="freeze" begin="5132.click" /><animate id="17" attributeName="stroke-dashoffset" values="20.7;0" dur="0.21s" fill="freeze" begin="16.end" /></path></g></g></g></g></g></svg>