<svg xmlns="http://www.w3.org/2000/svg" width="109" height="109" viewBox="0 0 109 109" id="5140"><g fill="none" stroke="#666" stroke-width="6" stroke-linecap="round" stroke-linejoin="round"><g><g><path d="M16.38,24.98c1.4,0.54,3.96,0.63,5.36,0.54c14.54-0.91,42.27-6.02,64-6.23c2.33-0.02,4.23,0.26,5.39,0.53" /></g><g><g><path d="M42.75,26.5c1,1,0.97,3.9,0.87,6.08c-0.87,19.17-9.48,47.83-22.12,59.17" /></g><path d="M62.49,23.37c0.67,1.19,1.23,2.59,1.23,4.43c0,16.68,0.14,34.7,0.14,52.2c0,9.01,0.39,13.33,14.22,13.33c13.43,0,16.73-0.31,17.32-9.42" /></g></g></g><g fill="none" stroke="#000" stroke-width="3" stroke-linecap="round" stroke-linejoin="round"><path d="M16.38,24.98c1.4,0.54,3.96,0.63,5.36,0.54c14.54-0.91,42.27-6.02,64-6.23c2.33-0.02,4.23,0.26,5.39,0.53" stroke-dasharray="75.18" stroke-dashoffset="75.18"><animate attributeName="stroke-dashoffset" values="75.18;75.18;0" dur="0.565s" fill="freeze" begin="0s;5140.click" /></path><path d="M42.75,26.5c1,1,0.97,3.9,0.87,6.08c-0.87,19.17-9.48,47.83-22.12,59.17" stroke-dasharray="70.678" stroke-dashoffset="70.678"><animate attributeName="stroke-dashoffset" values="70.678" fill="freeze" begin="5140.click" /><animate attributeName="stroke-dashoffset" values="70.678;70.678;0" keyTimes="0;0.516;1" dur="1.096s" fill="freeze" begin="0s;5140.click" /></path><path d="M62.49,23.37c0.67,1.19,1.23,2.59,1.23,4.43c0,16.68,0.14,34.7,0.14,52.2c0,9.01,0.39,13.33,14.22,13.33c13.43,0,16.73-0.31,17.32-9.42" stroke-dasharray="103.501" stroke-dashoffset="103.501"><animate attributeName="stroke-dashoffset" values="103.501" fill="freeze" begin="5140.click" /><animate attributeName="stroke-dashoffset" values="103.501;103.501;0" keyTimes="0;0.585;1" dur="1.874s" fill="freeze" begin="0s;5140.click" /></path></g></svg>