<svg xmlns="http://www.w3.org/2000/svg" width="109" height="109" viewBox="0 0 109 109" id="514c"><g fill="none" stroke="#666" stroke-width="6" stroke-linecap="round" stroke-linejoin="round"><g><g><g><path d="M41.74,16.71c0.07,0.58,0.15,1.5-0.14,2.33c-1.7,4.93-9.05,13.5-22.11,22.35" /></g><g><path d="M58.75,13c3.32,0.24,27.66,18.82,31.59,21.26c1.63,1.01,3.03,1.45,4.66,1.74" /></g></g><g><g><path d="M33.56,39.24c0.45,0.64,0.98,1.08,1.13,1.58c1.12,3.62,2.49,13.12,4.07,20" /><path d="M34.82,40.7c8.01-1.24,32.13-3.85,37.84-4.71c1.95-0.29,3.75,1.5,3.37,3.31c-0.94,4.59-3.25,10.74-4.53,16.67" /><path d="M39.62,59.19c5.92-0.38,25.71-2.6,33.88-3.23" /></g><g><g><path d="M45.22,64.46c0.08,0.74,0.16,1.92-0.15,2.98C43.24,73.74,33.44,88.46,18.32,96" /></g><path d="M59.1,60.75c0.72,0.66,1.13,1.82,1.17,3.64c0.1,5-0.34,12.76-0.34,18.96c0,10.6,1.54,11.7,14.92,11.7c7.25,0,14.86-1.11,15.81-1.81c2.51-1.84,1.7-3.72,1.91-7.18" /></g></g></g></g><g fill="none" stroke="#000" stroke-width="3" stroke-linecap="round" stroke-linejoin="round"><path d="M41.74,16.71c0.07,0.58,0.15,1.5-0.14,2.33c-1.7,4.93-9.05,13.5-22.11,22.35" stroke-dasharray="34.178" stroke-dashoffset="34.178"><animate attributeName="stroke-dashoffset" values="34.178;34.178;0" dur="0.342s" fill="freeze" begin="0s;514c.click" /></path><path d="M58.75,13c3.32,0.24,27.66,18.82,31.59,21.26c1.63,1.01,3.03,1.45,4.66,1.74" stroke-dasharray="43.163" stroke-dashoffset="43.163"><animate attributeName="stroke-dashoffset" values="43.163" fill="freeze" begin="514c.click" /><animate attributeName="stroke-dashoffset" values="43.163;43.163;0" keyTimes="0;0.442;1" dur="0.774s" fill="freeze" begin="0s;514c.click" /></path><path d="M33.56,39.24c0.45,0.64,0.98,1.08,1.13,1.58c1.12,3.62,2.49,13.12,4.07,20" stroke-dasharray="22.369" stroke-dashoffset="22.369"><animate attributeName="stroke-dashoffset" values="22.369" fill="freeze" begin="514c.click" /><animate attributeName="stroke-dashoffset" values="22.369;22.369;0" keyTimes="0;0.776;1" dur="0.998s" fill="freeze" begin="0s;514c.click" /></path><path d="M34.82,40.7c8.01-1.24,32.13-3.85,37.84-4.71c1.95-0.29,3.75,1.5,3.37,3.31c-0.94,4.59-3.25,10.74-4.53,16.67" stroke-dasharray="60.899" stroke-dashoffset="60.899"><animate attributeName="stroke-dashoffset" values="60.899" fill="freeze" begin="514c.click" /><animate attributeName="stroke-dashoffset" values="60.899;60.899;0" keyTimes="0;0.685;1" dur="1.456s" fill="freeze" begin="0s;514c.click" /></path><path d="M39.62,59.19c5.92-0.38,25.71-2.6,33.88-3.23" stroke-dasharray="34.036" stroke-dashoffset="34.036"><animate attributeName="stroke-dashoffset" values="34.036" fill="freeze" begin="514c.click" /><animate attributeName="stroke-dashoffset" values="34.036;34.036;0" keyTimes="0;0.811;1" dur="1.796s" fill="freeze" begin="0s;514c.click" /></path><path d="M45.22,64.46c0.08,0.74,0.16,1.92-0.15,2.98C43.24,73.74,33.44,88.46,18.32,96" stroke-dasharray="42.97" stroke-dashoffset="42.97"><animate attributeName="stroke-dashoffset" values="42.97" fill="freeze" begin="514c.click" /><animate attributeName="stroke-dashoffset" values="42.97;42.97;0" keyTimes="0;0.807;1" dur="2.226s" fill="freeze" begin="0s;514c.click" /></path><path d="M59.1,60.75c0.72,0.66,1.13,1.82,1.17,3.64c0.1,5-0.34,12.76-0.34,18.96c0,10.6,1.54,11.7,14.92,11.7c7.25,0,14.86-1.11,15.81-1.81c2.51-1.84,1.7-3.72,1.91-7.18" stroke-dasharray="69.945" stroke-dashoffset="69.945"><animate attributeName="stroke-dashoffset" values="69.945" fill="freeze" begin="514c.click" /><animate attributeName="stroke-dashoffset" values="69.945;69.945;0" keyTimes="0;0.809;1" dur="2.752s" fill="freeze" begin="0s;514c.click" /></path></g></svg>