<svg xmlns="http://www.w3.org/2000/svg" width="109" height="109" viewBox="0 0 109 109" id="5154"><g fill="none" stroke="#666" stroke-width="9" stroke-linecap="round" stroke-linejoin="round"><g><g><g><g><path d="M46.38,12.15c0.06,0.47,0.13,1.22-0.12,1.9c-1.47,4-9.93,12.79-21.51,18.17" /><path d="M48.33,15.7c2.69,0,14.69-1.77,17.52-2.04c2.43-0.23,3.19,2.44,2.17,3.57C63.75,21.98,57.75,28,51,35.6" /></g><g><path d="M27.5,37.6c0.5,0.47,1.02,0.86,1.24,1.45c1.75,4.66,2.31,10.32,3.51,18.69" /><path d="M30.64,39.21c12.36-1.96,40.17-5.53,46.55-6.19c2.33-0.24,3.73,2.43,3.4,3.85c-1.38,5.87-2.84,8.13-6.92,16.4" /><path d="M33.25,55.75c5-0.5,35.75-4.25,41.25-4.5" /></g><g><g><path d="M51.97,39.5c0.09,1.33,0.2,3.45-0.19,5.36c-2.27,11.31-12.02,40.07-32.12,52.31" /></g><g><path d="M55.49,59.37c0.74,1.19,1.33,2.59,1.38,4.43c0.2,8.19-0.53,14.14-0.53,19.7c0,13,8.9,12.03,17.67,12.03c9.25,0,15.34-1.68,16.64-2.62c2.75-2,2-3,2.25-6.5" /></g></g></g></g><g><path d="M70.5,64c3.35,1.94,8.66,7.98,9.5,11" /></g></g></g><g fill="none" stroke="#000" stroke-width="5" stroke-linecap="round" stroke-linejoin="round"><g><g><g><g><path d="M46.38,12.15c0.06,0.47,0.13,1.22-0.12,1.9c-1.47,4-9.93,12.79-21.51,18.17" stroke-dasharray="30.538" stroke-dashoffset="30.538"><animate attributeName="stroke-dashoffset" values="30.538;30.538;0" dur="0.305s" fill="freeze" begin="0s;5154.click" /></path><path d="M48.33,15.7c2.69,0,14.69-1.77,17.52-2.04c2.43-0.23,3.19,2.44,2.17,3.57C63.75,21.98,57.75,28,51,35.6" stroke-dasharray="48.011" stroke-dashoffset="48.011"><animate attributeName="stroke-dashoffset" values="48.011" fill="freeze" begin="5154.click" /><animate attributeName="stroke-dashoffset" values="48.011;48.011;0" keyTimes="0;0.389;1" dur="0.785s" fill="freeze" begin="0s;5154.click" /></path></g><g><path d="M27.5,37.6c0.5,0.47,1.02,0.86,1.24,1.45c1.75,4.66,2.31,10.32,3.51,18.69" stroke-dasharray="20.981" stroke-dashoffset="20.981"><animate attributeName="stroke-dashoffset" values="20.981" fill="freeze" begin="5154.click" /><animate attributeName="stroke-dashoffset" values="20.981;20.981;0" keyTimes="0;0.789;1" dur="0.995s" fill="freeze" begin="0s;5154.click" /></path><path d="M30.64,39.21c12.36-1.96,40.17-5.53,46.55-6.19c2.33-0.24,3.73,2.43,3.4,3.85c-1.38,5.87-2.84,8.13-6.92,16.4" stroke-dasharray="70.674" stroke-dashoffset="70.674"><animate attributeName="stroke-dashoffset" values="70.674" fill="freeze" begin="5154.click" /><animate attributeName="stroke-dashoffset" values="70.674;70.674;0" keyTimes="0;0.652;1" dur="1.526s" fill="freeze" begin="0s;5154.click" /></path><path d="M33.25,55.75c5-0.5,35.75-4.25,41.25-4.5" stroke-dasharray="41.498" stroke-dashoffset="41.498"><animate attributeName="stroke-dashoffset" values="41.498" fill="freeze" begin="5154.click" /><animate attributeName="stroke-dashoffset" values="41.498;41.498;0" keyTimes="0;0.786;1" dur="1.941s" fill="freeze" begin="0s;5154.click" /></path></g><g><g><path d="M51.97,39.5c0.09,1.33,0.2,3.45-0.19,5.36c-2.27,11.31-12.02,40.07-32.12,52.31" stroke-dasharray="68.272" stroke-dashoffset="68.272"><animate attributeName="stroke-dashoffset" values="68.272" fill="freeze" begin="5154.click" /><animate attributeName="stroke-dashoffset" values="68.272;68.272;0" keyTimes="0;0.791;1" dur="2.454s" fill="freeze" begin="0s;5154.click" /></path></g><g><path d="M55.49,59.37c0.74,1.19,1.33,2.59,1.38,4.43c0.2,8.19-0.53,14.14-0.53,19.7c0,13,8.9,12.03,17.67,12.03c9.25,0,15.34-1.68,16.64-2.62c2.75-2,2-3,2.25-6.5" stroke-dasharray="73.995" stroke-dashoffset="73.995"><animate attributeName="stroke-dashoffset" values="73.995" fill="freeze" begin="5154.click" /><animate attributeName="stroke-dashoffset" values="73.995;73.995;0" keyTimes="0;0.815;1" dur="3.01s" fill="freeze" begin="0s;5154.click" /></path></g></g></g></g><g><path d="M70.5,64c3.35,1.94,8.66,7.98,9.5,11" stroke-dasharray="14.74" stroke-dashoffset="14.74"><animate attributeName="stroke-dashoffset" values="14.74" fill="freeze" begin="5154.click" /><animate attributeName="stroke-dashoffset" values="14.74;14.74;0" keyTimes="0;0.953;1" dur="3.157s" fill="freeze" begin="0s;5154.click" /></path></g></g></g></svg>