<svg xmlns="http://www.w3.org/2000/svg" width="109" height="109" viewBox="0 0 109 109" id="515c"><g fill="none" stroke="#666" stroke-width="9" stroke-linecap="round" stroke-linejoin="round"><g><g><g><g><path d="M53.67,11.75c0.35,0.52,0.48,1.18,0.32,1.6c-1.16,3.14-4.79,9.04-8.69,12.62" /></g><g><path d="M43.11,24.83c0.36,0.75,0.65,1.62,0.73,2.61c0.17,2.3,1.74,22.4,1.89,27.3" /><path d="M44.55,25.59c2.05-0.12,19.07-1.89,20.93-2.1c1.18-0.14,1.66,0.82,1.66,2.39c0,2.68-2.06,19.89-2.44,28.11" /><path d="M46.02,38.63c6.98-0.88,13.1-1.26,19.37-1.83" /><path d="M45.93,53.34c5.13-0.4,13.36-1.35,18.83-1.54" /></g></g><path d="M35.73,19.25c0.53,0.41,0.22,1.43-0.02,1.76c-1.73,2.48-7.11,6.63-12.91,9.45" /><path d="M20.53,30.38c0.88,0.52,1.27,2.73,1.27,3.79c-0.04,5.08-0.29,9.08-0.5,16.83c-0.1,3.81,0.14,4.56,2.25,3.87c3.46-1.13,6.79-1.92,13.26-2.97c0.94-0.15,1.44-0.15,2.63,0.22" /><path d="M72.3,23.09c2.11,0.39,4.22,0.35,6.32-0.11c3.85-0.54,7.13-1.23,10.4-2c2.44-0.58,3.7,0.4,3.37,2.4c-0.76,4.63-3.14,19.75-3.89,25.5" /><path d="M70.25,51.55c1.62,0.18,3.25,0.19,4.87,0.03c3.79-0.26,9.92-1.17,14.79-1.69" /></g><g><g><g><path d="M46.99,62c0.19,1.35,0.11,2.65-0.34,3.88C43.5,74.5,35.5,87.5,20.67,95.92" /></g><g><path d="M60.49,59.62c1.13,1.13,1.1,2.34,1.1,4.18c0,8.45-0.02,14.14-0.02,19.7c0,10.33,1.23,11.28,18.57,11.28c15.54,0,16.52-1.94,17.01-8.87" /></g></g></g></g></g><g fill="none" stroke="#000" stroke-width="5" stroke-linecap="round" stroke-linejoin="round"><path d="M53.67,11.75c0.35,0.52,0.48,1.18,0.32,1.6c-1.16,3.14-4.79,9.04-8.69,12.62" stroke-dasharray="17.118" stroke-dashoffset="17.118"><animate attributeName="stroke-dashoffset" values="17.118;17.118;0" dur="0.171s" fill="freeze" begin="0s;515c.click" /></path><path d="M43.11,24.83c0.36,0.75,0.65,1.62,0.73,2.61c0.17,2.3,1.74,22.4,1.89,27.3" stroke-dasharray="30.093" stroke-dashoffset="30.093"><animate attributeName="stroke-dashoffset" values="30.093" fill="freeze" begin="515c.click" /><animate attributeName="stroke-dashoffset" values="30.093;30.093;0" keyTimes="0;0.362;1" dur="0.472s" fill="freeze" begin="0s;515c.click" /></path><path d="M44.55,25.59c2.05-0.12,19.07-1.89,20.93-2.1c1.18-0.14,1.66,0.82,1.66,2.39c0,2.68-2.06,19.89-2.44,28.11" stroke-dasharray="52.629" stroke-dashoffset="52.629"><animate attributeName="stroke-dashoffset" values="52.629" fill="freeze" begin="515c.click" /><animate attributeName="stroke-dashoffset" values="52.629;52.629;0" keyTimes="0;0.473;1" dur="0.998s" fill="freeze" begin="0s;515c.click" /></path><path d="M46.02,38.63c6.98-0.88,13.1-1.26,19.37-1.83" stroke-dasharray="19.459" stroke-dashoffset="19.459"><animate attributeName="stroke-dashoffset" values="19.459" fill="freeze" begin="515c.click" /><animate attributeName="stroke-dashoffset" values="19.459;19.459;0" keyTimes="0;0.837;1" dur="1.193s" fill="freeze" begin="0s;515c.click" /></path><path d="M45.93,53.34c5.13-0.4,13.36-1.35,18.83-1.54" stroke-dasharray="18.896" stroke-dashoffset="18.896"><animate attributeName="stroke-dashoffset" values="18.896" fill="freeze" begin="515c.click" /><animate attributeName="stroke-dashoffset" values="18.896;18.896;0" keyTimes="0;0.863;1" dur="1.382s" fill="freeze" begin="0s;515c.click" /></path><path d="M35.73,19.25c0.53,0.41,0.22,1.43-0.02,1.76c-1.73,2.48-7.11,6.63-12.91,9.45" stroke-dasharray="18.024" stroke-dashoffset="18.024"><animate attributeName="stroke-dashoffset" values="18.024" fill="freeze" begin="515c.click" /><animate attributeName="stroke-dashoffset" values="18.024;18.024;0" keyTimes="0;0.885;1" dur="1.562s" fill="freeze" begin="0s;515c.click" /></path><path d="M20.53,30.38c0.88,0.52,1.27,2.73,1.27,3.79c-0.04,5.08-0.29,9.08-0.5,16.83c-0.1,3.81,0.14,4.56,2.25,3.87c3.46-1.13,6.79-1.92,13.26-2.97c0.94-0.15,1.44-0.15,2.63,0.22" stroke-dasharray="43.056" stroke-dashoffset="43.056"><animate attributeName="stroke-dashoffset" values="43.056" fill="freeze" begin="515c.click" /><animate attributeName="stroke-dashoffset" values="43.056;43.056;0" keyTimes="0;0.784;1" dur="1.993s" fill="freeze" begin="0s;515c.click" /></path><path d="M72.3,23.09c2.11,0.39,4.22,0.35,6.32-0.11c3.85-0.54,7.13-1.23,10.4-2c2.44-0.58,3.7,0.4,3.37,2.4c-0.76,4.63-3.14,19.75-3.89,25.5" stroke-dasharray="47.958" stroke-dashoffset="47.958"><animate attributeName="stroke-dashoffset" values="47.958" fill="freeze" begin="515c.click" /><animate attributeName="stroke-dashoffset" values="47.958;47.958;0" keyTimes="0;0.806;1" dur="2.473s" fill="freeze" begin="0s;515c.click" /></path><path d="M70.25,51.55c1.62,0.18,3.25,0.19,4.87,0.03c3.79-0.26,9.92-1.17,14.79-1.69" stroke-dasharray="19.767" stroke-dashoffset="19.767"><animate attributeName="stroke-dashoffset" values="19.767" fill="freeze" begin="515c.click" /><animate attributeName="stroke-dashoffset" values="19.767;19.767;0" keyTimes="0;0.926;1" dur="2.671s" fill="freeze" begin="0s;515c.click" /></path><path d="M46.99,62c0.19,1.35,0.11,2.65-0.34,3.88C43.5,74.5,35.5,87.5,20.67,95.92" stroke-dasharray="44.442" stroke-dashoffset="44.442"><animate attributeName="stroke-dashoffset" values="44.442" fill="freeze" begin="515c.click" /><animate attributeName="stroke-dashoffset" values="44.442;44.442;0" keyTimes="0;0.857;1" dur="3.115s" fill="freeze" begin="0s;515c.click" /></path><path d="M60.49,59.62c1.13,1.13,1.1,2.34,1.1,4.18c0,8.45-0.02,14.14-0.02,19.7c0,10.33,1.23,11.28,18.57,11.28c15.54,0,16.52-1.94,17.01-8.87" stroke-dasharray="72.913" stroke-dashoffset="72.913"><animate attributeName="stroke-dashoffset" values="72.913" fill="freeze" begin="515c.click" /><animate attributeName="stroke-dashoffset" values="72.913;72.913;0" keyTimes="0;0.85;1" dur="3.663s" fill="freeze" begin="0s;515c.click" /></path></g></svg>