<svg xmlns="http://www.w3.org/2000/svg" viewBox="0 0 109 109" id="5168"><g fill="none" stroke="#666" stroke-width="6" stroke-linecap="round" stroke-linejoin="round"><g><g><path d="M51,12c0.1,1.1-0.11,2.9-0.71,4.42C46.54,25.91,34.42,46.29,13.88,59" /><path d="M51.25,17.13c6.01,5.71,24.37,23.52,33.03,31.21c3.08,2.73,4.85,3.78,9.22,5.5" /></g><g p4:partial xmlns:p4="http://kanjivg.tagaini.net"><path d="M32.17,53.79c1.95,0.59,4.65,0.47,6.45,0.26c6.04-0.71,17.52-2.14,26.01-2.69c2.11-0.13,4.5-0.12,6.32,0.33" /><path d="M50.91,54.99c0.92,0.92,1.4,2.3,1.4,3.2c0,6.3-0.02,24.06-0.02,31.65" /><path d="M33.45,71.93c1.84,0.57,3.93,0.31,5.81,0.12c8.21-0.8,16.37-1.4,24.75-2.14c2.07-0.18,4.23-0.46,6.27,0.12" /><path d="M20.48,92.76c1.91,0.49,4.89,0.79,8.3,0.5c13.59-1.14,33.47-2.89,50.39-3.45c2.86-0.09,6.3,0.23,7.73,0.68" /></g></g></g><g fill="none" stroke="#000" stroke-width="3" stroke-linecap="round" stroke-linejoin="round"><path d="M51,12c0.1,1.1-0.11,2.9-0.71,4.42C46.54,25.91,34.42,46.29,13.88,59" stroke-dasharray="61.37" stroke-dashoffset="61.37"><animate attributeName="stroke-dashoffset" values="61.37;61.37;0" dur="0.461s" fill="freeze" begin="0s;5168.click" /></path><path d="M51.25,17.13c6.01,5.71,24.37,23.52,33.03,31.21c3.08,2.73,4.85,3.78,9.22,5.5" stroke-dasharray="56.257" stroke-dashoffset="56.257"><animate attributeName="stroke-dashoffset" values="56.257" fill="freeze" begin="5168.click" /><animate attributeName="stroke-dashoffset" values="56.257;56.257;0" keyTimes="0;0.45;1" dur="1.024s" fill="freeze" begin="0s;5168.click" /></path><path d="M32.17,53.79c1.95,0.59,4.65,0.47,6.45,0.26c6.04-0.71,17.52-2.14,26.01-2.69c2.11-0.13,4.5-0.12,6.32,0.33" stroke-dasharray="38.999" stroke-dashoffset="38.999"><animate attributeName="stroke-dashoffset" values="38.999" fill="freeze" begin="5168.click" /><animate attributeName="stroke-dashoffset" values="38.999;38.999;0" keyTimes="0;0.724;1" dur="1.414s" fill="freeze" begin="0s;5168.click" /></path><path d="M50.91,54.99c0.92,0.92,1.4,2.3,1.4,3.2c0,6.3-0.02,24.06-0.02,31.65" stroke-dasharray="35.222" stroke-dashoffset="35.222"><animate attributeName="stroke-dashoffset" values="35.222" fill="freeze" begin="5168.click" /><animate attributeName="stroke-dashoffset" values="35.222;35.222;0" keyTimes="0;0.801;1" dur="1.766s" fill="freeze" begin="0s;5168.click" /></path><path d="M33.45,71.93c1.84,0.57,3.93,0.31,5.81,0.12c8.21-0.8,16.37-1.4,24.75-2.14c2.07-0.18,4.23-0.46,6.27,0.12" stroke-dasharray="37.005" stroke-dashoffset="37.005"><animate attributeName="stroke-dashoffset" values="37.005" fill="freeze" begin="5168.click" /><animate attributeName="stroke-dashoffset" values="37.005;37.005;0" keyTimes="0;0.827;1" dur="2.136s" fill="freeze" begin="0s;5168.click" /></path><path d="M20.48,92.76c1.91,0.49,4.89,0.79,8.3,0.5c13.59-1.14,33.47-2.89,50.39-3.45c2.86-0.09,6.3,0.23,7.73,0.68" stroke-dasharray="66.649" stroke-dashoffset="66.649"><animate attributeName="stroke-dashoffset" values="66.649" fill="freeze" begin="5168.click" /><animate attributeName="stroke-dashoffset" values="66.649;66.649;0" keyTimes="0;0.81;1" dur="2.637s" fill="freeze" begin="0s;5168.click" /></path></g></svg>