<svg xmlns="http://www.w3.org/2000/svg" width="109" height="109" viewBox="0 0 109 109" id="5173"><g fill="none" stroke="#666" stroke-width="9" stroke-linecap="round" stroke-linejoin="round"><g><path d="M 35.910208,17.62 c 3.69,2.55 9.54,10.48 10.47,14.44" /><path d="M 69.280208,14.64 c 0.05,0.58 0.22,1.54 -0.1,2.34 -1.65,4.14 -5.03,9.39 -10.9,16.52" /><g><path d="M 37.320208,39.34 c 1.96,0.29 3.96,0.31 5.58,0.13 6.28,-0.69 17.97,-2.39 24.4,-3.01 1.98,-0.19 3.88,-0.35 5.84,0.13" /><g><path d="M 30.270208,61.73 c 3.26,0.77 5.78,0.8 8.64,0.46 12.12,-1.44 26.11,-2.7 35.12,-3.35 3.02,-0.22 6.01,-0.07 8.98,0.64" /><path d="M 51.710208,42.12 c 0.6,0.76 0.77,2.38 0.7,3.84 -1.43,27.29 -11.79,41.04 -29.43,47.41" /><path d="M 51.980208,61.89 c 5.79,5.58 15.85,16.6 23.41,23.76 3.14,2.97 6.01,4.84 8.49,6.14" /></g></g></g></g><g fill="none" stroke="#000" stroke-width="5" stroke-linecap="round" stroke-linejoin="round"><g><path d="M 35.910208,17.62 c 3.69,2.55 9.54,10.48 10.47,14.44" stroke-dasharray="18.07" stroke-dashoffset="18.07"><animate id="0" attributeName="stroke-dashoffset" values="18.07;0" dur="0.18s" fill="freeze" begin="0s;5173.click" /></path><path d="M 69.280208,14.64 c 0.05,0.58 0.22,1.54 -0.1,2.34 -1.65,4.14 -5.03,9.39 -10.9,16.52" stroke-dasharray="22.23" stroke-dashoffset="22.23"><animate attributeName="stroke-dashoffset" values="22.23" fill="freeze" begin="5173.click" /><animate id="1" attributeName="stroke-dashoffset" values="22.23;0" dur="0.22s" fill="freeze" begin="0.end" /></path><g><path d="M 37.320208,39.34 c 1.96,0.29 3.96,0.31 5.58,0.13 6.28,-0.69 17.97,-2.39 24.4,-3.01 1.98,-0.19 3.88,-0.35 5.84,0.13" stroke-dasharray="36.05" stroke-dashoffset="36.05"><animate attributeName="stroke-dashoffset" values="36.05" fill="freeze" begin="5173.click" /><animate id="2" attributeName="stroke-dashoffset" values="36.05;0" dur="0.36s" fill="freeze" begin="1.end" /></path><g><path d="M 30.270208,61.73 c 3.26,0.77 5.78,0.8 8.64,0.46 12.12,-1.44 26.11,-2.7 35.12,-3.35 3.02,-0.22 6.01,-0.07 8.98,0.64" stroke-dasharray="53.02" stroke-dashoffset="53.02"><animate attributeName="stroke-dashoffset" values="53.02" fill="freeze" begin="5173.click" /><animate id="3" attributeName="stroke-dashoffset" values="53.02;0" dur="0.53s" fill="freeze" begin="2.end" /></path><path d="M 51.710208,42.12 c 0.6,0.76 0.77,2.38 0.7,3.84 -1.43,27.29 -11.79,41.04 -29.43,47.41" stroke-dasharray="63.69" stroke-dashoffset="63.69"><animate attributeName="stroke-dashoffset" values="63.69" fill="freeze" begin="5173.click" /><animate id="4" attributeName="stroke-dashoffset" values="63.69;0" dur="0.48s" fill="freeze" begin="3.end" /></path><path d="M 51.980208,61.89 c 5.79,5.58 15.85,16.6 23.41,23.76 3.14,2.97 6.01,4.84 8.49,6.14" stroke-dasharray="43.87" stroke-dashoffset="43.87"><animate attributeName="stroke-dashoffset" values="43.87" fill="freeze" begin="5173.click" /><animate id="5" attributeName="stroke-dashoffset" values="43.87;0" dur="0.44s" fill="freeze" begin="4.end" /></path></g></g></g></g></svg>