<svg xmlns="http://www.w3.org/2000/svg" width="109" height="109" viewBox="0 0 109 109" id="5175"><g fill="none" stroke="#666" stroke-width="6" stroke-linecap="round" stroke-linejoin="round"><g><g><g><g><path d="M63.53,13c-0.03,1-0.73,2.17-1.42,2.86c-6.96,7.1-13.96,11.56-27.87,18.68" /></g><path d="M33.18,34.33c1.06,1.06,1.62,2.26,1.77,4.07c0.55,6.7,1.65,21.04,2.3,27.54" /><path d="M36.53,41.82c9.72-1.17,28.09-4.32,39.51-6.15c1.75-0.28,4.85-0.44,5.96-0.25" /><path d="M67.87,41.47c0.63,1.03,0.81,2.14,0.57,3.32c-0.7,3.46-1.95,8.21-3.95,16.88" /></g><g><path d="M14.75,67.5c2.48,0.72,7.04,1,9.5,0.72c17.37-1.98,35.35-3.97,60.95-5.44c4.12-0.24,7.55-0.16,10.67,0.63" /></g></g><g><g><path d="M42.66,76.5c0.07,0.51,0.04,1.48-0.39,2.06C36.91,85.79,28.98,92.42,15,98.25" /></g><g><path d="M67.25,76.5c7.88,4.25,19.38,14,22.56,20.22" /></g></g></g></g><g fill="none" stroke="#000" stroke-width="3" stroke-linecap="round" stroke-linejoin="round"><path d="M63.53,13c-0.03,1-0.73,2.17-1.42,2.86c-6.96,7.1-13.96,11.56-27.87,18.68" stroke-dasharray="36.976" stroke-dashoffset="36.976"><animate attributeName="stroke-dashoffset" values="36.976;36.976;0" dur="0.37s" fill="freeze" begin="0s;5175.click" /></path><path d="M33.18,34.33c1.06,1.06,1.62,2.26,1.77,4.07c0.55,6.7,1.65,21.04,2.3,27.54" stroke-dasharray="32.18" stroke-dashoffset="32.18"><animate attributeName="stroke-dashoffset" values="32.18" fill="freeze" begin="5175.click" /><animate attributeName="stroke-dashoffset" values="32.18;32.18;0" keyTimes="0;0.535;1" dur="0.692s" fill="freeze" begin="0s;5175.click" /></path><path d="M36.53,41.82c9.72-1.17,28.09-4.32,39.51-6.15c1.75-0.28,4.85-0.44,5.96-0.25" stroke-dasharray="45.969" stroke-dashoffset="45.969"><animate attributeName="stroke-dashoffset" values="45.969" fill="freeze" begin="5175.click" /><animate attributeName="stroke-dashoffset" values="45.969;45.969;0" keyTimes="0;0.601;1" dur="1.152s" fill="freeze" begin="0s;5175.click" /></path><path d="M67.87,41.47c0.63,1.03,0.81,2.14,0.57,3.32c-0.7,3.46-1.95,8.21-3.95,16.88" stroke-dasharray="20.791" stroke-dashoffset="20.791"><animate attributeName="stroke-dashoffset" values="20.791" fill="freeze" begin="5175.click" /><animate attributeName="stroke-dashoffset" values="20.791;20.791;0" keyTimes="0;0.847;1" dur="1.36s" fill="freeze" begin="0s;5175.click" /></path><path d="M14.75,67.5c2.48,0.72,7.04,1,9.5,0.72c17.37-1.98,35.35-3.97,60.95-5.44c4.12-0.24,7.55-0.16,10.67,0.63" stroke-dasharray="81.504" stroke-dashoffset="81.504"><animate attributeName="stroke-dashoffset" values="81.504" fill="freeze" begin="5175.click" /><animate attributeName="stroke-dashoffset" values="81.504;81.504;0" keyTimes="0;0.689;1" dur="1.973s" fill="freeze" begin="0s;5175.click" /></path><path d="M42.66,76.5c0.07,0.51,0.04,1.48-0.39,2.06C36.91,85.79,28.98,92.42,15,98.25" stroke-dasharray="36.204" stroke-dashoffset="36.204"><animate attributeName="stroke-dashoffset" values="36.204" fill="freeze" begin="5175.click" /><animate attributeName="stroke-dashoffset" values="36.204;36.204;0" keyTimes="0;0.845;1" dur="2.335s" fill="freeze" begin="0s;5175.click" /></path><path d="M67.25,76.5c7.88,4.25,19.38,14,22.56,20.22" stroke-dasharray="30.594" stroke-dashoffset="30.594"><animate attributeName="stroke-dashoffset" values="30.594" fill="freeze" begin="5175.click" /><animate attributeName="stroke-dashoffset" values="30.594;30.594;0" keyTimes="0;0.884;1" dur="2.641s" fill="freeze" begin="0s;5175.click" /></path></g></svg>