<svg xmlns="http://www.w3.org/2000/svg" viewBox="0 0 109 109" id="5192"><g fill="none" stroke="#666" stroke-width="6" stroke-linecap="round" stroke-linejoin="round"><g><g p4:phon="日" xmlns:p4="http://kanjivg.tagaini.net"><path d="M24.49,15.12c0.87,0.93,1.54,2.37,1.75,3.6c1.26,7.16,2.01,12.41,3.23,20.75c0.24,1.66,0.41,3.27,0.61,4.74" /><path d="M26.74,17.25C43.38,15.62,64,14,79.28,13.29c3.35-0.16,5.31,1.02,4.74,4.35c-0.74,4.29-2.21,12-3.64,18.64c-0.4,1.85-0.79,3.62-1.16,5.21" /><path d="M29.02,28.98c4.85-0.46,45.48-3.11,52.23-3.07" /><path d="M31.1,41.92c13.4-0.92,31.4-2.05,47.36-2.71" /></g><g><path d="M32.06,51.84c1.12,1.12,1.21,2.56,1.21,3.94c0,1.04,0.02,24.59,0.03,36.22c0,3.82,0.01,6.4,0.01,6.57" /><path d="M34.05,53.18c3.93-0.17,34.74-2.44,38.32-2.65c2.98-0.17,5.08,0.97,5.08,4.25c0,4.38,0.03,22.35-0.05,36c-0.01,1.84-0.02,3.59-0.02,5.22" /><path d="M34.6,66.51c9.65-0.89,35.37-2.95,41.67-2.95" /><path d="M34.42,80.21c11.2-0.96,29.33-2.46,41.64-2.82" /><path d="M34.37,95.23c10.13-0.73,30.63-2.1,41.75-2.3" /></g></g></g><g fill="none" stroke="#000" stroke-width="3" stroke-linecap="round" stroke-linejoin="round"><path d="M24.49,15.12c0.87,0.93,1.54,2.37,1.75,3.6c1.26,7.16,2.01,12.41,3.23,20.75c0.24,1.66,0.41,3.27,0.61,4.74" stroke-dasharray="29.834" stroke-dashoffset="29.834"><animate attributeName="stroke-dashoffset" values="29.834;29.834;0" dur="0.298s" fill="freeze" begin="0s;5192.click" /></path><path d="M26.74,17.25C43.38,15.62,64,14,79.28,13.29c3.35-0.16,5.31,1.02,4.74,4.35c-0.74,4.29-2.21,12-3.64,18.64c-0.4,1.85-0.79,3.62-1.16,5.21" stroke-dasharray="84.828" stroke-dashoffset="84.828"><animate attributeName="stroke-dashoffset" values="84.828" fill="freeze" begin="5192.click" /><animate attributeName="stroke-dashoffset" values="84.828;84.828;0" keyTimes="0;0.318;1" dur="0.936s" fill="freeze" begin="0s;5192.click" /></path><path d="M29.02,28.98c4.85-0.46,45.48-3.11,52.23-3.07" stroke-dasharray="52.326" stroke-dashoffset="52.326"><animate attributeName="stroke-dashoffset" values="52.326" fill="freeze" begin="5192.click" /><animate attributeName="stroke-dashoffset" values="52.326;52.326;0" keyTimes="0;0.642;1" dur="1.459s" fill="freeze" begin="0s;5192.click" /></path><path d="M31.1,41.92c13.4-0.92,31.4-2.05,47.36-2.71" stroke-dasharray="47.44" stroke-dashoffset="47.44"><animate attributeName="stroke-dashoffset" values="47.44" fill="freeze" begin="5192.click" /><animate attributeName="stroke-dashoffset" values="47.44;47.44;0" keyTimes="0;0.755;1" dur="1.933s" fill="freeze" begin="0s;5192.click" /></path><path d="M32.06,51.84c1.12,1.12,1.21,2.56,1.21,3.94c0,1.04,0.02,24.59,0.03,36.22c0,3.82,0.01,6.4,0.01,6.57" stroke-dasharray="47.035" stroke-dashoffset="47.035"><animate attributeName="stroke-dashoffset" values="47.035" fill="freeze" begin="5192.click" /><animate attributeName="stroke-dashoffset" values="47.035;47.035;0" keyTimes="0;0.804;1" dur="2.403s" fill="freeze" begin="0s;5192.click" /></path><path d="M34.05,53.18c3.93-0.17,34.74-2.44,38.32-2.65c2.98-0.17,5.08,0.97,5.08,4.25c0,4.38,0.03,22.35-0.05,36c-0.01,1.84-0.02,3.59-0.02,5.22" stroke-dasharray="87.307" stroke-dashoffset="87.307"><animate attributeName="stroke-dashoffset" values="87.307" fill="freeze" begin="5192.click" /><animate attributeName="stroke-dashoffset" values="87.307;87.307;0" keyTimes="0;0.786;1" dur="3.059s" fill="freeze" begin="0s;5192.click" /></path><path d="M34.6,66.51c9.65-0.89,35.37-2.95,41.67-2.95" stroke-dasharray="41.781" stroke-dashoffset="41.781"><animate attributeName="stroke-dashoffset" values="41.781" fill="freeze" begin="5192.click" /><animate attributeName="stroke-dashoffset" values="41.781;41.781;0" keyTimes="0;0.88;1" dur="3.477s" fill="freeze" begin="0s;5192.click" /></path><path d="M34.42,80.21c11.2-0.96,29.33-2.46,41.64-2.82" stroke-dasharray="41.741" stroke-dashoffset="41.741"><animate attributeName="stroke-dashoffset" values="41.741" fill="freeze" begin="5192.click" /><animate attributeName="stroke-dashoffset" values="41.741;41.741;0" keyTimes="0;0.893;1" dur="3.894s" fill="freeze" begin="0s;5192.click" /></path><path d="M34.37,95.23c10.13-0.73,30.63-2.1,41.75-2.3" stroke-dasharray="41.818" stroke-dashoffset="41.818"><animate attributeName="stroke-dashoffset" values="41.818" fill="freeze" begin="5192.click" /><animate attributeName="stroke-dashoffset" values="41.818;41.818;0" keyTimes="0;0.903;1" dur="4.312s" fill="freeze" begin="0s;5192.click" /></path></g></svg>