<svg xmlns="http://www.w3.org/2000/svg" width="109" height="109" viewBox="0 0 109 109" id="5193"><g fill="none" stroke="#666" stroke-width="9" stroke-linecap="round" stroke-linejoin="round"><g><g p4:part="1" xmlns:p4="http://kanjivg.tagaini.net"><g><path d="M24.25,21.7c1.14,0.33,3.25,0.48,4.37,0.33c4.62-0.64,41.38-4.28,52.64-4.77c1.9-0.08,3.04,0.16,3.99,0.32" /></g><path d="M37.31,12.88c0.76,0.41,2.36,3.08,2.51,3.9C39.98,17.61,41,32.75,42,43.25" /><path d="M65.31,9.38c1.44,0.62,2.6,3.35,2.51,4.25C67.5,17,66.5,33.75,65.75,41.25" /><g p4:part="2"><g><path d="M26.25,33.2c1.14,0.33,3.25,0.48,4.37,0.33c4.62-0.64,37.38-4.28,48.64-4.77c1.9-0.08,3.04,0.16,3.99,0.32" /></g><g p4:part="1"><g><path d="M16.25,45.7c1.52,0.54,4.31,0.7,5.82,0.54c9.68-0.99,50.43-5.24,67.61-5.73c2.53-0.07,4.05,0.26,5.31,0.53" /></g></g></g></g><g p4:part="2" xmlns:p4="http://kanjivg.tagaini.net"><g><g><path d="M33.87,53.41c0.45,0.78,0.74,2.02,0.6,3.42S34.61,96.67,34.61,99" /><path d="M34.46,54.96c5.65-0.62,36.67-3.89,37.78-4.11c2.38-0.47,3.89,2.09,3.87,2.87c-0.12,4.78-0.45,38.52-0.45,42.1c0,5.75-4.46,2.12-6.42,0.93" /></g><g><path d="M52.66,43.87c0.1,0.21,1.49,1.07,1.49,2.39c0,8.46,0.12,19.62,0.12,30.82" /><path d="M34.66,66.42c11.05-0.74,28.75-3.3,40.72-3.89" /><path d="M18.9,79.63c1.61,0.4,4.59,0.59,6.19,0.4C39.75,78.25,73.75,75,88.7,73.74c2.68-0.23,4.31,0.19,5.65,0.39" /></g></g></g></g></g><g fill="none" stroke="#000" stroke-width="5" stroke-linecap="round" stroke-linejoin="round"><g><g p4:part="1" xmlns:p4="http://kanjivg.tagaini.net"><g><path d="M24.25,21.7c1.14,0.33,3.25,0.48,4.37,0.33c4.62-0.64,41.38-4.28,52.64-4.77c1.9-0.08,3.04,0.16,3.99,0.32" stroke-dasharray="61.28" stroke-dashoffset="61.28"><animate id="0" attributeName="stroke-dashoffset" values="61.28;0" dur="0.46s" fill="freeze" begin="0s;5193.click" /></path></g><path d="M37.31,12.88c0.76,0.41,2.36,3.08,2.51,3.9C39.98,17.61,41,32.75,42,43.25" stroke-dasharray="31.26" stroke-dashoffset="31.26"><animate attributeName="stroke-dashoffset" values="31.26" fill="freeze" begin="5193.click" /><animate id="1" attributeName="stroke-dashoffset" values="31.26;0" dur="0.31s" fill="freeze" begin="0.end" /></path><path d="M65.31,9.38c1.44,0.62,2.6,3.35,2.51,4.25C67.5,17,66.5,33.75,65.75,41.25" stroke-dasharray="32.83" stroke-dashoffset="32.83"><animate attributeName="stroke-dashoffset" values="32.83" fill="freeze" begin="5193.click" /><animate id="2" attributeName="stroke-dashoffset" values="32.83;0" dur="0.33s" fill="freeze" begin="1.end" /></path><g p4:part="2"><g><path d="M26.25,33.2c1.14,0.33,3.25,0.48,4.37,0.33c4.62-0.64,37.38-4.28,48.64-4.77c1.9-0.08,3.04,0.16,3.99,0.32" stroke-dasharray="57.3" stroke-dashoffset="57.3"><animate attributeName="stroke-dashoffset" values="57.3" fill="freeze" begin="5193.click" /><animate id="3" attributeName="stroke-dashoffset" values="57.3;0" dur="0.57s" fill="freeze" begin="2.end" /></path></g><g p4:part="1"><g><path d="M16.25,45.7c1.52,0.54,4.31,0.7,5.82,0.54c9.68-0.99,50.43-5.24,67.61-5.73c2.53-0.07,4.05,0.26,5.31,0.53" stroke-dasharray="79.09" stroke-dashoffset="79.09"><animate attributeName="stroke-dashoffset" values="79.09" fill="freeze" begin="5193.click" /><animate id="4" attributeName="stroke-dashoffset" values="79.09;0" dur="0.59s" fill="freeze" begin="3.end" /></path></g></g></g></g><g p4:part="2" xmlns:p4="http://kanjivg.tagaini.net"><g><g><path d="M33.87,53.41c0.45,0.78,0.74,2.02,0.6,3.42S34.61,96.67,34.61,99" stroke-dasharray="45.7" stroke-dashoffset="45.7"><animate attributeName="stroke-dashoffset" values="45.7" fill="freeze" begin="5193.click" /><animate id="5" attributeName="stroke-dashoffset" values="45.7;0" dur="0.46s" fill="freeze" begin="4.end" /></path><path d="M34.46,54.96c5.65-0.62,36.67-3.89,37.78-4.11c2.38-0.47,3.89,2.09,3.87,2.87c-0.12,4.78-0.45,38.52-0.45,42.1c0,5.75-4.46,2.12-6.42,0.93" stroke-dasharray="94.71" stroke-dashoffset="94.71"><animate attributeName="stroke-dashoffset" values="94.71" fill="freeze" begin="5193.click" /><animate id="6" attributeName="stroke-dashoffset" values="94.71;0" dur="0.71s" fill="freeze" begin="5.end" /></path></g><g><path d="M52.66,43.87c0.1,0.21,1.49,1.07,1.49,2.39c0,8.46,0.12,19.62,0.12,30.82" stroke-dasharray="33.73" stroke-dashoffset="33.73"><animate attributeName="stroke-dashoffset" values="33.73" fill="freeze" begin="5193.click" /><animate id="7" attributeName="stroke-dashoffset" values="33.73;0" dur="0.34s" fill="freeze" begin="6.end" /></path><path d="M34.66,66.42c11.05-0.74,28.75-3.3,40.72-3.89" stroke-dasharray="40.91" stroke-dashoffset="40.91"><animate attributeName="stroke-dashoffset" values="40.91" fill="freeze" begin="5193.click" /><animate id="8" attributeName="stroke-dashoffset" values="40.91;0" dur="0.41s" fill="freeze" begin="7.end" /></path><path d="M18.9,79.63c1.61,0.4,4.59,0.59,6.19,0.4C39.75,78.25,73.75,75,88.7,73.74c2.68-0.23,4.31,0.19,5.65,0.39" stroke-dasharray="75.83" stroke-dashoffset="75.83"><animate attributeName="stroke-dashoffset" values="75.83" fill="freeze" begin="5193.click" /><animate id="9" attributeName="stroke-dashoffset" values="75.83;0" dur="0.57s" fill="freeze" begin="8.end" /></path></g></g></g></g></g></svg>