<svg xmlns="http://www.w3.org/2000/svg" width="109" height="109" viewBox="0 0 109 109" id="51a8"><g fill="none" stroke="#666" stroke-width="9" stroke-linecap="round" stroke-linejoin="round"><g><g><path d="M21.91,15.13c0,3.48-3.03,13.05-4.41,15.37" /><path d="M22.74,17.76c9.51-0.88,56.24-3.59,63.95-3.93c12.05-0.52,2.55,6.39-0.45,8.28" /></g><g><g><path d="M30.29,31.07c1.2,0.33,3.39,0.42,4.59,0.33c7.62-0.58,28.82-3.42,37.69-3.52c1.99-0.02,3.19,0.16,4.19,0.33" /></g><g><path d="M34.33,42.01c0.39,0.29,0.79,0.53,0.96,0.9c1.35,2.88,2.96,10.83,3.88,16" /><path d="M36.75,43.47c9.52-1.21,29.31-3.26,34.22-3.67c1.8-0.15,2.88,1.5,2.62,2.38c-1.07,3.63-2.28,6.75-4.56,11.98" /><path d="M39.56,57c5.77-0.46,25.7-1.93,33.02-2.39" /></g><g><path d="M26.51,67.43c0.38,0.55,0.39,0.91,0.59,1.58c1.69,5.53,3.22,18.82,4.22,28.99" /><path d="M28.3,70.09c17.59-1.79,39.76-3.33,49.8-3.87c3.69-0.2,5.15,0.52,4.87,3.38c-0.54,5.45-3.55,16.31-5.5,26.94" /><path d="M51.61,68.57c1.44,0.43,2.55,1.24,2.55,2.71c-0.01,6.79,0.24,21.03,0.24,23.22" /><path d="M30.7,82.43c4.38-0.27,46.13-3.25,49.75-3.25" /><path d="M32.02,96.15c15.82-1.08,29.17-1.77,45.56-2.75" /></g></g></g></g><g fill="none" stroke="#000" stroke-width="5" stroke-linecap="round" stroke-linejoin="round"><g><g><path d="M21.91,15.13c0,3.48-3.03,13.05-4.41,15.37" stroke-dasharray="16.07" stroke-dashoffset="16.07"><animate id="0" attributeName="stroke-dashoffset" values="16.07;0" dur="0.16s" fill="freeze" begin="0s;51a8.click" /></path><path d="M22.74,17.76c9.51-0.88,56.24-3.59,63.95-3.93c12.05-0.52,2.55,6.39-0.45,8.28" stroke-dasharray="80.15" stroke-dashoffset="80.15"><animate attributeName="stroke-dashoffset" values="80.15" fill="freeze" begin="51a8.click" /><animate id="1" attributeName="stroke-dashoffset" values="80.15;0" dur="0.6s" fill="freeze" begin="0.end" /></path></g><g><g><path d="M30.29,31.07c1.2,0.33,3.39,0.42,4.59,0.33c7.62-0.58,28.82-3.42,37.69-3.52c1.99-0.02,3.19,0.16,4.19,0.33" stroke-dasharray="46.69" stroke-dashoffset="46.69"><animate attributeName="stroke-dashoffset" values="46.69" fill="freeze" begin="51a8.click" /><animate id="2" attributeName="stroke-dashoffset" values="46.69;0" dur="0.47s" fill="freeze" begin="1.end" /></path></g><g><path d="M34.33,42.01c0.39,0.29,0.79,0.53,0.96,0.9c1.35,2.88,2.96,10.83,3.88,16" stroke-dasharray="17.82" stroke-dashoffset="17.82"><animate attributeName="stroke-dashoffset" values="17.82" fill="freeze" begin="51a8.click" /><animate id="3" attributeName="stroke-dashoffset" values="17.82;0" dur="0.18s" fill="freeze" begin="2.end" /></path><path d="M36.75,43.47c9.52-1.21,29.31-3.26,34.22-3.67c1.8-0.15,2.88,1.5,2.62,2.38c-1.07,3.63-2.28,6.75-4.56,11.98" stroke-dasharray="51.29" stroke-dashoffset="51.29"><animate attributeName="stroke-dashoffset" values="51.29" fill="freeze" begin="51a8.click" /><animate id="4" attributeName="stroke-dashoffset" values="51.29;0" dur="0.51s" fill="freeze" begin="3.end" /></path><path d="M39.56,57c5.77-0.46,25.7-1.93,33.02-2.39" stroke-dasharray="33.11" stroke-dashoffset="33.11"><animate attributeName="stroke-dashoffset" values="33.11" fill="freeze" begin="51a8.click" /><animate id="5" attributeName="stroke-dashoffset" values="33.11;0" dur="0.33s" fill="freeze" begin="4.end" /></path></g><g><path d="M26.51,67.43c0.38,0.55,0.39,0.91,0.59,1.58c1.69,5.53,3.22,18.82,4.22,28.99" stroke-dasharray="31.02" stroke-dashoffset="31.02"><animate attributeName="stroke-dashoffset" values="31.02" fill="freeze" begin="51a8.click" /><animate id="6" attributeName="stroke-dashoffset" values="31.02;0" dur="0.31s" fill="freeze" begin="5.end" /></path><path d="M28.3,70.09c17.59-1.79,39.76-3.33,49.8-3.87c3.69-0.2,5.15,0.52,4.87,3.38c-0.54,5.45-3.55,16.31-5.5,26.94" stroke-dasharray="84.64" stroke-dashoffset="84.64"><animate attributeName="stroke-dashoffset" values="84.64" fill="freeze" begin="51a8.click" /><animate id="7" attributeName="stroke-dashoffset" values="84.64;0" dur="0.64s" fill="freeze" begin="6.end" /></path><path d="M51.61,68.57c1.44,0.43,2.55,1.24,2.55,2.71c-0.01,6.79,0.24,21.03,0.24,23.22" stroke-dasharray="27.25" stroke-dashoffset="27.25"><animate attributeName="stroke-dashoffset" values="27.25" fill="freeze" begin="51a8.click" /><animate id="8" attributeName="stroke-dashoffset" values="27.25;0" dur="0.27s" fill="freeze" begin="7.end" /></path><path d="M30.7,82.43c4.38-0.27,46.13-3.25,49.75-3.25" stroke-dasharray="49.86" stroke-dashoffset="49.86"><animate attributeName="stroke-dashoffset" values="49.86" fill="freeze" begin="51a8.click" /><animate id="9" attributeName="stroke-dashoffset" values="49.86;0" dur="0.5s" fill="freeze" begin="8.end" /></path><path d="M32.02,96.15c15.82-1.08,29.17-1.77,45.56-2.75" stroke-dasharray="45.64" stroke-dashoffset="45.64"><animate attributeName="stroke-dashoffset" values="45.64" fill="freeze" begin="51a8.click" /><animate id="10" attributeName="stroke-dashoffset" values="45.64;0" dur="0.46s" fill="freeze" begin="9.end" /></path></g></g></g></g></svg>