<svg xmlns="http://www.w3.org/2000/svg" width="109" height="109" viewBox="0 0 109 109" id="51b4"><g fill="none" stroke="#666" stroke-width="6" stroke-linecap="round" stroke-linejoin="round"><g><g><g><path d="M16.29,20.5c3.99,1.93,10.3,7.92,11.29,10.91" /></g><g><path d="M11.23,79.92c2.02,0.7,3.64,0.11,4.63-1.75c1.64-3.05,6.89-13.55,11.66-23.26" /></g></g><g><path d="M37.97,18.44c3.03,0.81,5.91,0.67,8.54,0.42c8.81-0.83,22.92-2.85,32.87-3.5c2.6-0.17,5.16-0.36,7.7,0.3" /><path d="M48.17,23.53c0.46,1.22,0.53,2.36,0.18,4.34c-1.23,7-2.73,13.37-4.09,19.12" /><path d="M35.25,47.5c3.38,0.96,6.7,0.99,10.13,0.54c13.5-1.79,30-3.17,40.36-3.72c3.78-0.2,6.48-0.13,10.08,0.79" /><g><path d="M72.01,19.13c1.18,1.18,1.39,2.37,1.39,4.66c0,14.94,0.02,62.48,0.02,67.57c0,10.17-6.56,1.79-7.92,0.5" /></g><g><path d="M70.54,46.48c0,1.02-0.33,2.08-0.78,3.01C65.18,58.93,50.7,75.16,31,85.75" /></g></g></g></g><g fill="none" stroke="#000" stroke-width="3" stroke-linecap="round" stroke-linejoin="round"><path d="M16.29,20.5c3.99,1.93,10.3,7.92,11.29,10.91" stroke-dasharray="15.93" stroke-dashoffset="15.93"><animate attributeName="stroke-dashoffset" values="15.93;15.93;0" dur="0.159s" fill="freeze" begin="0s;51b4.click" /></path><path d="M11.23,79.92c2.02,0.7,3.64,0.11,4.63-1.75c1.64-3.05,6.89-13.55,11.66-23.26" stroke-dasharray="31.502" stroke-dashoffset="31.502"><animate attributeName="stroke-dashoffset" values="31.502" fill="freeze" begin="51b4.click" /><animate attributeName="stroke-dashoffset" values="31.502;31.502;0" keyTimes="0;0.335;1" dur="0.474s" fill="freeze" begin="0s;51b4.click" /></path><path d="M37.97,18.44c3.03,0.81,5.91,0.67,8.54,0.42c8.81-0.83,22.92-2.85,32.87-3.5c2.6-0.17,5.16-0.36,7.7,0.3" stroke-dasharray="49.4" stroke-dashoffset="49.4"><animate attributeName="stroke-dashoffset" values="49.4" fill="freeze" begin="51b4.click" /><animate attributeName="stroke-dashoffset" values="49.4;49.4;0" keyTimes="0;0.49;1" dur="0.968s" fill="freeze" begin="0s;51b4.click" /></path><path d="M48.17,23.53c0.46,1.22,0.53,2.36,0.18,4.34c-1.23,7-2.73,13.37-4.09,19.12" stroke-dasharray="23.96" stroke-dashoffset="23.96"><animate attributeName="stroke-dashoffset" values="23.96" fill="freeze" begin="51b4.click" /><animate attributeName="stroke-dashoffset" values="23.96;23.96;0" keyTimes="0;0.801;1" dur="1.208s" fill="freeze" begin="0s;51b4.click" /></path><path d="M35.25,47.5c3.38,0.96,6.7,0.99,10.13,0.54c13.5-1.79,30-3.17,40.36-3.72c3.78-0.2,6.48-0.13,10.08,0.79" stroke-dasharray="60.915" stroke-dashoffset="60.915"><animate attributeName="stroke-dashoffset" values="60.915" fill="freeze" begin="51b4.click" /><animate attributeName="stroke-dashoffset" values="60.915;60.915;0" keyTimes="0;0.725;1" dur="1.666s" fill="freeze" begin="0s;51b4.click" /></path><path d="M72.01,19.13c1.18,1.18,1.39,2.37,1.39,4.66c0,14.94,0.02,62.48,0.02,67.57c0,10.17-6.56,1.79-7.92,0.5" stroke-dasharray="86.006" stroke-dashoffset="86.006"><animate attributeName="stroke-dashoffset" values="86.006" fill="freeze" begin="51b4.click" /><animate attributeName="stroke-dashoffset" values="86.006;86.006;0" keyTimes="0;0.72;1" dur="2.313s" fill="freeze" begin="0s;51b4.click" /></path><path d="M70.54,46.48c0,1.02-0.33,2.08-0.78,3.01C65.18,58.93,50.7,75.16,31,85.75" stroke-dasharray="56.899" stroke-dashoffset="56.899"><animate attributeName="stroke-dashoffset" values="56.899" fill="freeze" begin="51b4.click" /><animate attributeName="stroke-dashoffset" values="56.899;56.899;0" keyTimes="0;0.803;1" dur="2.882s" fill="freeze" begin="0s;51b4.click" /></path></g></svg>