<svg xmlns="http://www.w3.org/2000/svg" width="109" height="109" viewBox="0 0 109 109" id="51b7"><g fill="none" stroke="#666" stroke-width="9" stroke-linecap="round" stroke-linejoin="round"><g><g><g><path d="M13.88,24.62c3.99,1.97,10.31,8.11,11.31,11.18" /></g><g><path d="M12.6,84.79c1.46,0.67,3,0.19,3.94-1.07c1.21-1.62,8.56-14.38,13.21-22.6" /></g></g><g p4:phon="令" xmlns:p4="http://kanjivg.tagaini.net"><g><path d="M61.04,12.25c0.08,0.98,0.12,2.59-0.4,3.93C56.5,26.88,48,41.5,34.5,54.35" /><path d="M60.85,16.24c5.4,5.39,20.25,21.5,27.55,28.74c2.1,2.08,4.13,4.02,6.85,5.24" /></g><g><g><path d="M57.56,41.08c3.57,2.18,9.79,8.98,10.69,12.38" /></g><g><path d="M40.71,62.54c1.54,0.71,4.08,0.96,5.48,0.76c5.68-0.8,32.59-4.94,35.52-5.35c2.93-0.41,3.8,1.62,1.81,3.91C76.12,70.38,70,77.5,63.8,84.58" /><path d="M53.12,77.4c5.38,3.22,14.38,11.22,17.63,18.1" /></g></g></g></g></g><g fill="none" stroke="#000" stroke-width="5" stroke-linecap="round" stroke-linejoin="round"><g><g><g><path d="M13.88,24.62c3.99,1.97,10.31,8.11,11.31,11.18" stroke-dasharray="16.135" stroke-dashoffset="16.135"><animate attributeName="stroke-dashoffset" values="16.135;16.135;0" dur="0.161s" fill="freeze" begin="0s;51b7.click" /></path></g><g><path d="M12.6,84.79c1.46,0.67,3,0.19,3.94-1.07c1.21-1.62,8.56-14.38,13.21-22.6" stroke-dasharray="30.617" stroke-dashoffset="30.617"><animate attributeName="stroke-dashoffset" values="30.617" fill="freeze" begin="51b7.click" /><animate attributeName="stroke-dashoffset" values="30.617;30.617;0" keyTimes="0;0.345;1" dur="0.467s" fill="freeze" begin="0s;51b7.click" /></path></g></g><g p4:phon="令" xmlns:p4="http://kanjivg.tagaini.net"><g><path d="M61.04,12.25c0.08,0.98,0.12,2.59-0.4,3.93C56.5,26.88,48,41.5,34.5,54.35" stroke-dasharray="50.6" stroke-dashoffset="50.6"><animate attributeName="stroke-dashoffset" values="50.6" fill="freeze" begin="51b7.click" /><animate attributeName="stroke-dashoffset" values="50.6;50.6;0" keyTimes="0;0.48;1" dur="0.973s" fill="freeze" begin="0s;51b7.click" /></path><path d="M60.85,16.24c5.4,5.39,20.25,21.5,27.55,28.74c2.1,2.08,4.13,4.02,6.85,5.24" stroke-dasharray="48.489" stroke-dashoffset="48.489"><animate attributeName="stroke-dashoffset" values="48.489" fill="freeze" begin="51b7.click" /><animate attributeName="stroke-dashoffset" values="48.489;48.489;0" keyTimes="0;0.667;1" dur="1.458s" fill="freeze" begin="0s;51b7.click" /></path></g><g><g><path d="M57.56,41.08c3.57,2.18,9.79,8.98,10.69,12.38" stroke-dasharray="16.574" stroke-dashoffset="16.574"><animate attributeName="stroke-dashoffset" values="16.574" fill="freeze" begin="51b7.click" /><animate attributeName="stroke-dashoffset" values="16.574;16.574;0" keyTimes="0;0.898;1" dur="1.624s" fill="freeze" begin="0s;51b7.click" /></path></g><g><path d="M40.71,62.54c1.54,0.71,4.08,0.96,5.48,0.76c5.68-0.8,32.59-4.94,35.52-5.35c2.93-0.41,3.8,1.62,1.81,3.91C76.12,70.38,70,77.5,63.8,84.58" stroke-dasharray="77.987" stroke-dashoffset="77.987"><animate attributeName="stroke-dashoffset" values="77.987" fill="freeze" begin="51b7.click" /><animate attributeName="stroke-dashoffset" values="77.987;77.987;0" keyTimes="0;0.735;1" dur="2.21s" fill="freeze" begin="0s;51b7.click" /></path><path d="M53.12,77.4c5.38,3.22,14.38,11.22,17.63,18.1" stroke-dasharray="25.541" stroke-dashoffset="25.541"><animate attributeName="stroke-dashoffset" values="25.541" fill="freeze" begin="51b7.click" /><animate attributeName="stroke-dashoffset" values="25.541;25.541;0" keyTimes="0;0.897;1" dur="2.465s" fill="freeze" begin="0s;51b7.click" /></path></g></g></g></g></g></svg>