<svg xmlns="http://www.w3.org/2000/svg" width="109" height="109" viewBox="0 0 109 109" id="51bd"><g fill="none" stroke="#666" stroke-width="9" stroke-linecap="round" stroke-linejoin="round"><g><g><g><path d="M16.29,19.25c3.99,2.19,10.3,9,11.29,12.41" /></g><g><path d="M11.98,83.17c1.77,1.08,3.94,0.23,5.13-1.5C18.27,79.99,23.5,69,27.77,59.67" /></g></g><g><g><g><path d="M33.99,23.73c0.94,0.52,2.65,0.63,3.6,0.52C43.75,23.5,57,21,63.23,20.26c1.55-0.18,2.5,0.25,3.28,0.51" /></g><g><path d="M49.93,25.65c0.18,0.6,0.73,2.41,0.34,3.54c-2.52,7.31-9.02,22.56-16.94,31.36" /><path d="M47.62,42.03c0.26,0.04,3.26-0.36,3.95-0.63c2.94-1.15,4.63-1.6,8.72-2.29c2.41-0.41,4.36,1.01,3.72,3.33c-4.25,15.32-16.25,37.82-33.75,49.82" /><path d="M40.8,55.34c3.56,1.84,9.19,7.58,10.08,10.45" /></g></g><g><path d="M73.89,26.37c0.63,0.63,1.43,1.49,1.51,4.52c0.34,14.55-0.22,34.16-0.22,39.12" /><path d="M90.26,15.33c0.63,0.92,1.43,2.49,1.51,5.52c0.34,14.55-0.22,60.16-0.22,65.12c0,11.53-5.3,3.53-7.47,0.75" /></g></g></g></g><g fill="none" stroke="#000" stroke-width="5" stroke-linecap="round" stroke-linejoin="round"><g><g><g><path d="M16.29,19.25c3.99,2.19,10.3,9,11.29,12.41" stroke-dasharray="17.02" stroke-dashoffset="17.02"><animate attributeName="stroke-dashoffset" values="17.02;17.02;0" dur="0.17s" fill="freeze" begin="0s;51bd.click" /></path></g><g><path d="M11.98,83.17c1.77,1.08,3.94,0.23,5.13-1.5C18.27,79.99,23.5,69,27.77,59.67" stroke-dasharray="30.358" stroke-dashoffset="30.358"><animate attributeName="stroke-dashoffset" values="30.358" fill="freeze" begin="51bd.click" /><animate attributeName="stroke-dashoffset" values="30.358;30.358;0" keyTimes="0;0.359;1" dur="0.474s" fill="freeze" begin="0s;51bd.click" /></path></g></g><g><g><g><path d="M33.99,23.73c0.94,0.52,2.65,0.63,3.6,0.52C43.75,23.5,57,21,63.23,20.26c1.55-0.18,2.5,0.25,3.28,0.51" stroke-dasharray="32.989" stroke-dashoffset="32.989"><animate attributeName="stroke-dashoffset" values="32.989" fill="freeze" begin="51bd.click" /><animate attributeName="stroke-dashoffset" values="32.989;32.989;0" keyTimes="0;0.59;1" dur="0.804s" fill="freeze" begin="0s;51bd.click" /></path></g><g><path d="M49.93,25.65c0.18,0.6,0.73,2.41,0.34,3.54c-2.52,7.31-9.02,22.56-16.94,31.36" stroke-dasharray="39.445" stroke-dashoffset="39.445"><animate attributeName="stroke-dashoffset" values="39.445" fill="freeze" begin="51bd.click" /><animate attributeName="stroke-dashoffset" values="39.445;39.445;0" keyTimes="0;0.671;1" dur="1.198s" fill="freeze" begin="0s;51bd.click" /></path><path d="M47.62,42.03c0.26,0.04,3.26-0.36,3.95-0.63c2.94-1.15,4.63-1.6,8.72-2.29c2.41-0.41,4.36,1.01,3.72,3.33c-4.25,15.32-16.25,37.82-33.75,49.82" stroke-dasharray="80.422" stroke-dashoffset="80.422"><animate attributeName="stroke-dashoffset" values="80.422" fill="freeze" begin="51bd.click" /><animate attributeName="stroke-dashoffset" values="80.422;80.422;0" keyTimes="0;0.664;1" dur="1.803s" fill="freeze" begin="0s;51bd.click" /></path><path d="M40.8,55.34c3.56,1.84,9.19,7.58,10.08,10.45" stroke-dasharray="14.731" stroke-dashoffset="14.731"><animate attributeName="stroke-dashoffset" values="14.731" fill="freeze" begin="51bd.click" /><animate attributeName="stroke-dashoffset" values="14.731;14.731;0" keyTimes="0;0.925;1" dur="1.95s" fill="freeze" begin="0s;51bd.click" /></path></g></g><g><path d="M73.89,26.37c0.63,0.63,1.43,1.49,1.51,4.52c0.34,14.55-0.22,34.16-0.22,39.12" stroke-dasharray="44.027" stroke-dashoffset="44.027"><animate attributeName="stroke-dashoffset" values="44.027" fill="freeze" begin="51bd.click" /><animate attributeName="stroke-dashoffset" values="44.027;44.027;0" keyTimes="0;0.816;1" dur="2.39s" fill="freeze" begin="0s;51bd.click" /></path><path d="M90.26,15.33c0.63,0.92,1.43,2.49,1.51,5.52c0.34,14.55-0.22,60.16-0.22,65.12c0,11.53-5.3,3.53-7.47,0.75" stroke-dasharray="85.585" stroke-dashoffset="85.585"><animate attributeName="stroke-dashoffset" values="85.585" fill="freeze" begin="51bd.click" /><animate attributeName="stroke-dashoffset" values="85.585;85.585;0" keyTimes="0;0.788;1" dur="3.033s" fill="freeze" begin="0s;51bd.click" /></path></g></g></g></g></svg>