<svg xmlns="http://www.w3.org/2000/svg" width="109" height="109" viewBox="0 0 109 109" id="51c4"><g fill="none" stroke="#666" stroke-width="9" stroke-linecap="round" stroke-linejoin="round"><g><g><g><path d="M14.54,22c4.08,1.66,9.46,5.88,11.04,9.16" /></g><g><path d="M13.23,83.67c2.27-0.17,3.59-1.05,4.38-3C19.5,76,22.25,67.5,26.77,55.17" /></g></g><g><g><path d="M36.75,22.64c2.9,0.47,5.77,0.22,8.63-0.25c8.02-1.06,21.72-2.82,29.73-3.36c2.81-0.31,5.61-0.23,8.39,0.24" /><g><path d="M41.39,32.62c2.56,1,5.1,0.95,7.74,0.59c8.36-1.15,18.84-2.85,27.61-3.61c2.96-0.25,5.11,0.24,4.28,3.83c-1.52,6.57-2.08,9.67-3.47,18.37" /><path d="M29.64,44.63c3.29,0.53,6.58,0.32,9.88-0.13c15.62-1.71,33.61-4,47.86-5.08c3.11-0.24,6.17-0.29,9.23,0.41" /><path d="M39.68,54.75c2.32,0.48,4.64,0.55,6.95,0.23c8.06-0.81,18.9-2.12,26.14-2.63c2.31-0.22,4.62-0.24,6.93-0.04" /></g><path d="M58.87,10.25c0.94,0.94,1.46,2.38,1.46,3.5c0,1.02,0,33-0.22,39.25" /></g><g><path d="M58.46,56.87c0,1.26-0.1,2.23-0.75,3.43c-2.08,3.83-5.73,11.95-12.46,18.88c-2.5,2.58-2.25,2.54,0.75,2.78c10.29,0.83,20.27,4.43,28.44,11.62c2.15,1.89,4.18,4.27,6.06,6.63" /><path d="M74.62,64.49c0,1.38,0.02,2.91-0.51,4.1C69.25,79.5,58.5,92.12,31.5,99" /><path d="M29.38,69.06c3.77,0.42,7.51,0.24,11.27-0.17c11.16-1.2,30.97-3.42,46.73-3.72c2.98-0.16,5.94,0.07,8.88,0.69" /></g></g></g></g><g fill="none" stroke="#000" stroke-width="5" stroke-linecap="round" stroke-linejoin="round"><g><g><g><path d="M14.54,22c4.08,1.66,9.46,5.88,11.04,9.16" stroke-dasharray="14.58" stroke-dashoffset="14.58"><animate id="0" attributeName="stroke-dashoffset" values="14.58;0" dur="0.15s" fill="freeze" begin="0s;51c4.click" /></path></g><g><path d="M13.23,83.67c2.27-0.17,3.59-1.05,4.38-3C19.5,76,22.25,67.5,26.77,55.17" stroke-dasharray="32.75" stroke-dashoffset="32.75"><animate attributeName="stroke-dashoffset" values="32.75" fill="freeze" begin="51c4.click" /><animate id="1" attributeName="stroke-dashoffset" values="32.75;0" dur="0.33s" fill="freeze" begin="0.end" /></path></g></g><g><g><path d="M36.75,22.64c2.9,0.47,5.77,0.22,8.63-0.25c8.02-1.06,21.72-2.82,29.73-3.36c2.81-0.31,5.61-0.23,8.39,0.24" stroke-dasharray="47.02" stroke-dashoffset="47.02"><animate attributeName="stroke-dashoffset" values="47.02" fill="freeze" begin="51c4.click" /><animate id="2" attributeName="stroke-dashoffset" values="47.02;0" dur="0.47s" fill="freeze" begin="1.end" /></path><g><path d="M41.39,32.62c2.56,1,5.1,0.95,7.74,0.59c8.36-1.15,18.84-2.85,27.61-3.61c2.96-0.25,5.11,0.24,4.28,3.83c-1.52,6.57-2.08,9.67-3.47,18.37" stroke-dasharray="61.72" stroke-dashoffset="61.72"><animate attributeName="stroke-dashoffset" values="61.72" fill="freeze" begin="51c4.click" /><animate id="3" attributeName="stroke-dashoffset" values="61.72;0" dur="0.46s" fill="freeze" begin="2.end" /></path><path d="M29.64,44.63c3.29,0.53,6.58,0.32,9.88-0.13c15.62-1.71,33.61-4,47.86-5.08c3.11-0.24,6.17-0.29,9.23,0.41" stroke-dasharray="67.32" stroke-dashoffset="67.32"><animate attributeName="stroke-dashoffset" values="67.32" fill="freeze" begin="51c4.click" /><animate id="4" attributeName="stroke-dashoffset" values="67.32;0" dur="0.51s" fill="freeze" begin="3.end" /></path><path d="M39.68,54.75c2.32,0.48,4.64,0.55,6.95,0.23c8.06-0.81,18.9-2.12,26.14-2.63c2.31-0.22,4.62-0.24,6.93-0.04" stroke-dasharray="40.2" stroke-dashoffset="40.2"><animate attributeName="stroke-dashoffset" values="40.2" fill="freeze" begin="51c4.click" /><animate id="5" attributeName="stroke-dashoffset" values="40.2;0" dur="0.4s" fill="freeze" begin="4.end" /></path></g><path d="M58.87,10.25c0.94,0.94,1.46,2.38,1.46,3.5c0,1.02,0,33-0.22,39.25" stroke-dasharray="43.13" stroke-dashoffset="43.13"><animate attributeName="stroke-dashoffset" values="43.13" fill="freeze" begin="51c4.click" /><animate id="6" attributeName="stroke-dashoffset" values="43.13;0" dur="0.43s" fill="freeze" begin="5.end" /></path></g><g><path d="M58.46,56.87c0,1.26-0.1,2.23-0.75,3.43c-2.08,3.83-5.73,11.95-12.46,18.88c-2.5,2.58-2.25,2.54,0.75,2.78c10.29,0.83,20.27,4.43,28.44,11.62c2.15,1.89,4.18,4.27,6.06,6.63" stroke-dasharray="71.97" stroke-dashoffset="71.97"><animate attributeName="stroke-dashoffset" values="71.97" fill="freeze" begin="51c4.click" /><animate id="7" attributeName="stroke-dashoffset" values="71.97;0" dur="0.54s" fill="freeze" begin="6.end" /></path><path d="M74.62,64.49c0,1.38,0.02,2.91-0.51,4.1C69.25,79.5,58.5,92.12,31.5,99" stroke-dasharray="58.41" stroke-dashoffset="58.41"><animate attributeName="stroke-dashoffset" values="58.41" fill="freeze" begin="51c4.click" /><animate id="8" attributeName="stroke-dashoffset" values="58.41;0" dur="0.58s" fill="freeze" begin="7.end" /></path><path d="M29.38,69.06c3.77,0.42,7.51,0.24,11.27-0.17c11.16-1.2,30.97-3.42,46.73-3.72c2.98-0.16,5.94,0.07,8.88,0.69" stroke-dasharray="67.12" stroke-dashoffset="67.12"><animate attributeName="stroke-dashoffset" values="67.12" fill="freeze" begin="51c4.click" /><animate id="9" attributeName="stroke-dashoffset" values="67.12;0" dur="0.5s" fill="freeze" begin="8.end" /></path></g></g></g></g></svg>