<svg xmlns="http://www.w3.org/2000/svg" width="109" height="109" viewBox="0 0 109 109" id="51c6"><g fill="none" stroke="#666" stroke-width="9" stroke-linecap="round" stroke-linejoin="round"><g><g><g><path d="M17.75,26.75c3.88,1.54,10.03,6.35,11,8.75" /></g><g><path d="M13.36,86.29c1.39,0.34,2.64-0.25,3.49-1.53c2.97-4.5,5.95-10.01,8.65-15.76" /></g></g><g p4:phon="隹/準T" xmlns:p4="http://kanjivg.tagaini.net"><g><path d="M55.77,15c0.24,1.78-0.07,3.1-0.82,4.63c-4.8,9.65-10.98,17.71-22,29.48" /><path d="M48.25,37.25c1.25,1.25,1.68,2.75,1.68,4.98c0,7.3,0.03,33.17,0.05,46.4c0,4.48,0.01,7.51,0.01,7.88" /></g><path d="M78.18,16.75c0.06,0.93,0.03,1.66-0.22,2.44c-1.58,5.06-2.71,8.93-5.58,15.68" /><path d="M50.76,39.35c7.09-0.93,26.89-3.05,36.78-4.28c2.43-0.3,4.2-0.53,4.95-0.66" /><path d="M71.42,38.74c0.86,0.86,1.27,2.01,1.27,3.62c0,6.77,0.04,41.89,0.04,46.83" /><path d="M51.19,55.55c8.19-0.8,23.4-2.58,32.58-3.62c2.72-0.31,4.73-0.55,5.55-0.67" /><path d="M51.18,71.83c7.07-0.65,25.65-2.1,35.1-2.77c2.3-0.16,3.99-0.3,4.73-0.38" /><path d="M51.18,91.37c9.82-0.49,30.43-1.75,41.59-2.55c2.65-0.19,4.55-0.35,5.28-0.47" /></g></g></g><g fill="none" stroke="#000" stroke-width="5" stroke-linecap="round" stroke-linejoin="round"><path d="M17.75,26.75c3.88,1.54,10.03,6.35,11,8.75" stroke-dasharray="14.255" stroke-dashoffset="14.255"><animate attributeName="stroke-dashoffset" values="14.255;14.255;0" dur="0.143s" fill="freeze" begin="0s;51c6.click" /></path><path d="M13.36,86.29c1.39,0.34,2.64-0.25,3.49-1.53c2.97-4.5,5.95-10.01,8.65-15.76" stroke-dasharray="22.077" stroke-dashoffset="22.077"><animate attributeName="stroke-dashoffset" values="22.077" fill="freeze" begin="51c6.click" /><animate attributeName="stroke-dashoffset" values="22.077;22.077;0" keyTimes="0;0.393;1" dur="0.364s" fill="freeze" begin="0s;51c6.click" /></path><path d="M55.77,15c0.24,1.78-0.07,3.1-0.82,4.63c-4.8,9.65-10.98,17.71-22,29.48" stroke-dasharray="41.707" stroke-dashoffset="41.707"><animate attributeName="stroke-dashoffset" values="41.707" fill="freeze" begin="51c6.click" /><animate attributeName="stroke-dashoffset" values="41.707;41.707;0" keyTimes="0;0.466;1" dur="0.781s" fill="freeze" begin="0s;51c6.click" /></path><path d="M48.25,37.25c1.25,1.25,1.68,2.75,1.68,4.98c0,7.3,0.03,33.17,0.05,46.4c0,4.48,0.01,7.51,0.01,7.88" stroke-dasharray="59.692" stroke-dashoffset="59.692"><animate attributeName="stroke-dashoffset" values="59.692" fill="freeze" begin="51c6.click" /><animate attributeName="stroke-dashoffset" values="59.692;59.692;0" keyTimes="0;0.567;1" dur="1.378s" fill="freeze" begin="0s;51c6.click" /></path><path d="M78.18,16.75c0.06,0.93,0.03,1.66-0.22,2.44c-1.58,5.06-2.71,8.93-5.58,15.68" stroke-dasharray="19.119" stroke-dashoffset="19.119"><animate attributeName="stroke-dashoffset" values="19.119" fill="freeze" begin="51c6.click" /><animate attributeName="stroke-dashoffset" values="19.119;19.119;0" keyTimes="0;0.878;1" dur="1.569s" fill="freeze" begin="0s;51c6.click" /></path><path d="M50.76,39.35c7.09-0.93,26.89-3.05,36.78-4.28c2.43-0.3,4.2-0.53,4.95-0.66" stroke-dasharray="42.024" stroke-dashoffset="42.024"><animate attributeName="stroke-dashoffset" values="42.024" fill="freeze" begin="51c6.click" /><animate attributeName="stroke-dashoffset" values="42.024;42.024;0" keyTimes="0;0.789;1" dur="1.989s" fill="freeze" begin="0s;51c6.click" /></path><path d="M71.42,38.74c0.86,0.86,1.27,2.01,1.27,3.62c0,6.77,0.04,41.89,0.04,46.83" stroke-dasharray="50.775" stroke-dashoffset="50.775"><animate attributeName="stroke-dashoffset" values="50.775" fill="freeze" begin="51c6.click" /><animate attributeName="stroke-dashoffset" values="50.775;50.775;0" keyTimes="0;0.797;1" dur="2.497s" fill="freeze" begin="0s;51c6.click" /></path><path d="M51.19,55.55c8.19-0.8,23.4-2.58,32.58-3.62c2.72-0.31,4.73-0.55,5.55-0.67" stroke-dasharray="38.372" stroke-dashoffset="38.372"><animate attributeName="stroke-dashoffset" values="38.372" fill="freeze" begin="51c6.click" /><animate attributeName="stroke-dashoffset" values="38.372;38.372;0" keyTimes="0;0.867;1" dur="2.881s" fill="freeze" begin="0s;51c6.click" /></path><path d="M51.18,71.83c7.07-0.65,25.65-2.1,35.1-2.77c2.3-0.16,3.99-0.3,4.73-0.38" stroke-dasharray="39.956" stroke-dashoffset="39.956"><animate attributeName="stroke-dashoffset" values="39.956" fill="freeze" begin="51c6.click" /><animate attributeName="stroke-dashoffset" values="39.956;39.956;0" keyTimes="0;0.878;1" dur="3.281s" fill="freeze" begin="0s;51c6.click" /></path><path d="M51.18,91.37c9.82-0.49,30.43-1.75,41.59-2.55c2.65-0.19,4.55-0.35,5.28-0.47" stroke-dasharray="46.971" stroke-dashoffset="46.971"><animate attributeName="stroke-dashoffset" values="46.971" fill="freeze" begin="51c6.click" /><animate attributeName="stroke-dashoffset" values="46.971;46.971;0" keyTimes="0;0.875;1" dur="3.751s" fill="freeze" begin="0s;51c6.click" /></path></g></svg>