<svg xmlns="http://www.w3.org/2000/svg" width="109" height="109" viewBox="0 0 109 109" id="5207"><g fill="none" stroke="#666" stroke-width="9" stroke-linecap="round" stroke-linejoin="round"><g><g p4:phon="七" xmlns:p4="http://kanjivg.tagaini.net"><g><path d="M11.5,43.98c1.05,0.3,2.98,0.42,4.01,0.3c7.74-0.91,15.49-3.54,22.67-5.54c1.66-0.46,3.45-0.65,4.32-0.5" /></g><path d="M26.75,18.25c1,1,1.67,2.53,1.73,4.5c0.2,7.02-0.48,34.49-0.48,40C28,69.5,29,71,37.75,71c5.5,0,8.75-0.88,11.75-2" /></g><g><path d="M52.75,29.75c2.39,1.02,5.02,0.94,7.48,0.57C70.75,28.75,83.75,26.5,91.5,25c4.45-0.86,6.62,0.88,6.25,5.5C96.68,43.74,92,73,85.5,86c-5.2,10.4-9.88,2.5-12.25,0" /><path d="M68.25,36.62c0.45,1.33,0.35,3.15,0.11,4.91c-2.15,15.67-10,32.82-25.11,45.97" /></g></g></g><g fill="none" stroke="#000" stroke-width="5" stroke-linecap="round" stroke-linejoin="round"><g><g p4:phon="七" xmlns:p4="http://kanjivg.tagaini.net"><g><path d="M11.5,43.98c1.05,0.3,2.98,0.42,4.01,0.3c7.74-0.91,15.49-3.54,22.67-5.54c1.66-0.46,3.45-0.65,4.32-0.5" stroke-dasharray="31.779" stroke-dashoffset="31.779"><animate attributeName="stroke-dashoffset" values="31.779;31.779;0" dur="0.318s" fill="freeze" begin="0s;5207.click" /></path></g><path d="M26.75,18.25c1,1,1.67,2.53,1.73,4.5c0.2,7.02-0.48,34.49-0.48,40C28,69.5,29,71,37.75,71c5.5,0,8.75-0.88,11.75-2" stroke-dasharray="72.445" stroke-dashoffset="72.445"><animate attributeName="stroke-dashoffset" values="72.445" fill="freeze" begin="5207.click" /><animate attributeName="stroke-dashoffset" values="72.445;72.445;0" keyTimes="0;0.368;1" dur="0.863s" fill="freeze" begin="0s;5207.click" /></path></g><g><path d="M52.75,29.75c2.39,1.02,5.02,0.94,7.48,0.57C70.75,28.75,83.75,26.5,91.5,25c4.45-0.86,6.62,0.88,6.25,5.5C96.68,43.74,92,73,85.5,86c-5.2,10.4-9.88,2.5-12.25,0" stroke-dasharray="123.459" stroke-dashoffset="123.459"><animate attributeName="stroke-dashoffset" values="123.459" fill="freeze" begin="5207.click" /><animate attributeName="stroke-dashoffset" values="123.459;123.459;0" keyTimes="0;0.482;1" dur="1.791s" fill="freeze" begin="0s;5207.click" /></path><path d="M68.25,36.62c0.45,1.33,0.35,3.15,0.11,4.91c-2.15,15.67-10,32.82-25.11,45.97" stroke-dasharray="58.467" stroke-dashoffset="58.467"><animate attributeName="stroke-dashoffset" values="58.467" fill="freeze" begin="5207.click" /><animate attributeName="stroke-dashoffset" values="58.467;58.467;0" keyTimes="0;0.754;1" dur="2.376s" fill="freeze" begin="0s;5207.click" /></path></g></g></g></svg>