<svg xmlns="http://www.w3.org/2000/svg" width="109" height="109" viewBox="0 0 109 109" id="5211"><g fill="none" stroke="#666" stroke-width="9" stroke-linecap="round" stroke-linejoin="round"><g><g p4:partial p4:phon="井" xmlns:p4="http://kanjivg.tagaini.net"><g><path d="M15.75,23.39c1.97,0.8,4.94,0.48,6.98,0.23c7.31-0.91,21.32-2.67,28.78-3.29c2.18-0.18,4.34-0.34,6.49,0.19" /><g><path d="M11.75,50.64c2.16,0.88,5.4,0.42,7.65,0.13c8.6-1.12,26.45-3.44,35.35-4.32c2.4-0.24,5.14-0.26,7.5,0.32" /><path d="M28.22,25.82c1.23,1.23,1.4,2.69,1.44,4.5c0.84,40.93-2.53,51.8-14.91,62.93" /></g></g><g p4:partial><g p4:partial><path d="M46.25,23.13c0.75,0.75,1.16,2.74,1.16,4.24c0,6.5-0.02,41.77-0.03,57.13c0,3.8,0,6.38,0,7" /></g></g></g><g><path d="M71.02,26.33c0.98,0.92,1.76,2.67,1.76,5.02c0,10.52,0.06,22.4,0.06,30.65c0,3.5-0.08,6.24-0.08,7.75" /><path d="M90.77,15.83c1.2,1.2,1.76,2.67,1.76,5.02c0,14.56-0.01,62.41-0.01,67.37c0,8.12-5.52,5.41-9.96,0.75" /></g></g></g><g fill="none" stroke="#000" stroke-width="5" stroke-linecap="round" stroke-linejoin="round"><g><g p4:partial p4:phon="井" xmlns:p4="http://kanjivg.tagaini.net"><g><path d="M15.75,23.39c1.97,0.8,4.94,0.48,6.98,0.23c7.31-0.91,21.32-2.67,28.78-3.29c2.18-0.18,4.34-0.34,6.49,0.19" stroke-dasharray="42.54" stroke-dashoffset="42.54"><animate id="0" attributeName="stroke-dashoffset" values="42.54;0" dur="0.43s" fill="freeze" begin="0s;5211.click" /></path><g><path d="M11.75,50.64c2.16,0.88,5.4,0.42,7.65,0.13c8.6-1.12,26.45-3.44,35.35-4.32c2.4-0.24,5.14-0.26,7.5,0.32" stroke-dasharray="50.89" stroke-dashoffset="50.89"><animate attributeName="stroke-dashoffset" values="50.89" fill="freeze" begin="5211.click" /><animate id="1" attributeName="stroke-dashoffset" values="50.89;0" dur="0.51s" fill="freeze" begin="0.end" /></path><path d="M28.22,25.82c1.23,1.23,1.4,2.69,1.44,4.5c0.84,40.93-2.53,51.8-14.91,62.93" stroke-dasharray="71.88" stroke-dashoffset="71.88"><animate attributeName="stroke-dashoffset" values="71.88" fill="freeze" begin="5211.click" /><animate id="2" attributeName="stroke-dashoffset" values="71.88;0" dur="0.54s" fill="freeze" begin="1.end" /></path></g></g><g p4:partial><g p4:partial><path d="M46.25,23.13c0.75,0.75,1.16,2.74,1.16,4.24c0,6.5-0.02,41.77-0.03,57.13c0,3.8,0,6.38,0,7" stroke-dasharray="68.61" stroke-dashoffset="68.61"><animate attributeName="stroke-dashoffset" values="68.61" fill="freeze" begin="5211.click" /><animate id="3" attributeName="stroke-dashoffset" values="68.61;0" dur="0.52s" fill="freeze" begin="2.end" /></path></g></g></g><g><path d="M71.02,26.33c0.98,0.92,1.76,2.67,1.76,5.02c0,10.52,0.06,22.4,0.06,30.65c0,3.5-0.08,6.24-0.08,7.75" stroke-dasharray="43.86" stroke-dashoffset="43.86"><animate attributeName="stroke-dashoffset" values="43.86" fill="freeze" begin="5211.click" /><animate id="4" attributeName="stroke-dashoffset" values="43.86;0" dur="0.44s" fill="freeze" begin="3.end" /></path><path d="M90.77,15.83c1.2,1.2,1.76,2.67,1.76,5.02c0,14.56-0.01,62.41-0.01,67.37c0,8.12-5.52,5.41-9.96,0.75" stroke-dasharray="88.03" stroke-dashoffset="88.03"><animate attributeName="stroke-dashoffset" values="88.03" fill="freeze" begin="5211.click" /><animate id="5" attributeName="stroke-dashoffset" values="88.03;0" dur="0.66s" fill="freeze" begin="4.end" /></path></g></g></g></svg>