<svg xmlns="http://www.w3.org/2000/svg" width="109" height="109" viewBox="0 0 109 109" id="5214"><g fill="none" stroke="#666" stroke-width="9" stroke-linecap="round" stroke-linejoin="round"><g><g><path d="M17.05,32.07c1.41,0.72,3.06,1.45,5.17,1.21c2.12-0.24,25.95-4.36,28.78-4.36c1.74,0,3.49,1.08,2.74,3.83c-1.2,4.4-2.25,12.5-2.75,18" /><g><path d="M12.12,55.03c0.91,0.42,3.25,0.7,4.24,0.59c12.13-1.37,28.87-4.01,40.04-4.94c2.09-0.17,4.09-0.17,5.87,0.39" /><g><path d="M34.91,15.25c0.59,1,1.61,2.08,1.7,4.17C38,50.5,34.25,78.5,15.5,93.25" /><path d="M38.56,60.96c6.29,4.27,14.04,14.4,17.55,21.67" /></g></g></g><g><path d="M70.27,24.33c0.98,0.92,1.67,1.99,1.76,5.02C72.42,43.91,72,61.04,72,66" /><path d="M88.77,13.33c0.98,0.92,1.67,1.99,1.76,5.02c0.4,14.55-0.26,65.16-0.26,70.12c0,13.14-7.21,1.5-8.71,0.25" /></g></g></g><g fill="none" stroke="#000" stroke-width="5" stroke-linecap="round" stroke-linejoin="round"><g><g><path d="M17.05,32.07c1.41,0.72,3.06,1.45,5.17,1.21c2.12-0.24,25.95-4.36,28.78-4.36c1.74,0,3.49,1.08,2.74,3.83c-1.2,4.4-2.25,12.5-2.75,18" stroke-dasharray="58.39" stroke-dashoffset="58.39"><animate id="0" attributeName="stroke-dashoffset" values="58.39;0" dur="0.58s" fill="freeze" begin="0s;5214.click" /></path><g><path d="M12.12,55.03c0.91,0.42,3.25,0.7,4.24,0.59c12.13-1.37,28.87-4.01,40.04-4.94c2.09-0.17,4.09-0.17,5.87,0.39" stroke-dasharray="50.58" stroke-dashoffset="50.58"><animate attributeName="stroke-dashoffset" values="50.58" fill="freeze" begin="5214.click" /><animate id="1" attributeName="stroke-dashoffset" values="50.58;0" dur="0.51s" fill="freeze" begin="0.end" /></path><g><path d="M34.91,15.25c0.59,1,1.61,2.08,1.7,4.17C38,50.5,34.25,78.5,15.5,93.25" stroke-dasharray="84.27" stroke-dashoffset="84.27"><animate attributeName="stroke-dashoffset" values="84.27" fill="freeze" begin="5214.click" /><animate id="2" attributeName="stroke-dashoffset" values="84.27;0" dur="0.63s" fill="freeze" begin="1.end" /></path><path d="M38.56,60.96c6.29,4.27,14.04,14.4,17.55,21.67" stroke-dasharray="28.12" stroke-dashoffset="28.12"><animate attributeName="stroke-dashoffset" values="28.12" fill="freeze" begin="5214.click" /><animate id="3" attributeName="stroke-dashoffset" values="28.12;0" dur="0.28s" fill="freeze" begin="2.end" /></path></g></g></g><g><path d="M70.27,24.33c0.98,0.92,1.67,1.99,1.76,5.02C72.42,43.91,72,61.04,72,66" stroke-dasharray="42.14" stroke-dashoffset="42.14"><animate attributeName="stroke-dashoffset" values="42.14" fill="freeze" begin="5214.click" /><animate id="4" attributeName="stroke-dashoffset" values="42.14;0" dur="0.42s" fill="freeze" begin="3.end" /></path><path d="M88.77,13.33c0.98,0.92,1.67,1.99,1.76,5.02c0.4,14.55-0.26,65.16-0.26,70.12c0,13.14-7.21,1.5-8.71,0.25" stroke-dasharray="91.74" stroke-dashoffset="91.74"><animate attributeName="stroke-dashoffset" values="91.74" fill="freeze" begin="5214.click" /><animate id="5" attributeName="stroke-dashoffset" values="91.74;0" dur="0.69s" fill="freeze" begin="4.end" /></path></g></g></g></svg>