<svg xmlns="http://www.w3.org/2000/svg" width="109" height="109" viewBox="0 0 109 109" id="5224"><g fill="none" stroke="#666" stroke-width="9" stroke-linecap="round" stroke-linejoin="round"><g><g p4:phon="半" xmlns:p4="http://kanjivg.tagaini.net"><path d="M18.79,24.46c2.54,2.29,6.56,9.44,7.19,13.01" /><path d="M56.78,18.75c0.11,1.25-0.1,2.26-0.67,3.37c-1.8,3.44-4.6,8.39-8.95,12.88" /><g p4:part="1"><path d="M18.58,48.83c1.64,0.73,4.09,0.3,5.78-0.01c7.08-1.29,18.54-3.55,25.63-4.32c1.65-0.18,3.63-0.12,5.23,0.31" /></g><g><g p4:part="2"><path d="M13.75,67.59c1.99,0.78,4.77,0.6,6.85,0.27c8.67-1.39,25.05-4.45,32.92-5.45c2.19-0.28,4.59-0.38,6.73,0.12" /></g><path d="M36.62,14c1,1,1.71,2.88,1.71,4c0,5.25,0.04,54.43,0.04,73.5c0,4.52,0,7.35-0.01,7.5" /></g></g><g><path d="M69.02,25.83c0.98,0.92,1.76,2.67,1.76,5.02c0,12.4,0.04,23.65,0.04,31.65c0,2.66-0.06,4.75-0.06,6" /><path d="M90.27,11.58c0.98,0.92,1.76,2.67,1.76,4.52c0,20.15-0.01,65.65-0.01,73.37c0,12.53-7.21,1.5-8.71,0.25" /></g></g></g><g fill="none" stroke="#000" stroke-width="5" stroke-linecap="round" stroke-linejoin="round"><g><g p4:phon="半" xmlns:p4="http://kanjivg.tagaini.net"><path d="M18.79,24.46c2.54,2.29,6.56,9.44,7.19,13.01" stroke-dasharray="15.02" stroke-dashoffset="15.02"><animate id="0" attributeName="stroke-dashoffset" values="15.02;0" dur="0.15s" fill="freeze" begin="0s;5224.click" /></path><path d="M56.78,18.75c0.11,1.25-0.1,2.26-0.67,3.37c-1.8,3.44-4.6,8.39-8.95,12.88" stroke-dasharray="19.23" stroke-dashoffset="19.23"><animate attributeName="stroke-dashoffset" values="19.23" fill="freeze" begin="5224.click" /><animate id="1" attributeName="stroke-dashoffset" values="19.23;0" dur="0.19s" fill="freeze" begin="0.end" /></path><g p4:part="1"><path d="M18.58,48.83c1.64,0.73,4.09,0.3,5.78-0.01c7.08-1.29,18.54-3.55,25.63-4.32c1.65-0.18,3.63-0.12,5.23,0.31" stroke-dasharray="37.12" stroke-dashoffset="37.12"><animate attributeName="stroke-dashoffset" values="37.12" fill="freeze" begin="5224.click" /><animate id="2" attributeName="stroke-dashoffset" values="37.12;0" dur="0.37s" fill="freeze" begin="1.end" /></path></g><g><g p4:part="2"><path d="M13.75,67.59c1.99,0.78,4.77,0.6,6.85,0.27c8.67-1.39,25.05-4.45,32.92-5.45c2.19-0.28,4.59-0.38,6.73,0.12" stroke-dasharray="47.06" stroke-dashoffset="47.06"><animate attributeName="stroke-dashoffset" values="47.06" fill="freeze" begin="5224.click" /><animate id="3" attributeName="stroke-dashoffset" values="47.06;0" dur="0.47s" fill="freeze" begin="2.end" /></path></g><path d="M36.62,14c1,1,1.71,2.88,1.71,4c0,5.25,0.04,54.43,0.04,73.5c0,4.52,0,7.35-0.01,7.5" stroke-dasharray="85.44" stroke-dashoffset="85.44"><animate attributeName="stroke-dashoffset" values="85.44" fill="freeze" begin="5224.click" /><animate id="4" attributeName="stroke-dashoffset" values="85.44;0" dur="0.64s" fill="freeze" begin="3.end" /></path></g></g><g><path d="M69.02,25.83c0.98,0.92,1.76,2.67,1.76,5.02c0,12.4,0.04,23.65,0.04,31.65c0,2.66-0.06,4.75-0.06,6" stroke-dasharray="43.11" stroke-dashoffset="43.11"><animate attributeName="stroke-dashoffset" values="43.11" fill="freeze" begin="5224.click" /><animate id="5" attributeName="stroke-dashoffset" values="43.11;0" dur="0.43s" fill="freeze" begin="4.end" /></path><path d="M90.27,11.58c0.98,0.92,1.76,2.67,1.76,4.52c0,20.15-0.01,65.65-0.01,73.37c0,12.53-7.21,1.5-8.71,0.25" stroke-dasharray="94.04" stroke-dashoffset="94.04"><animate attributeName="stroke-dashoffset" values="94.04" fill="freeze" begin="5224.click" /><animate id="6" attributeName="stroke-dashoffset" values="94.04;0" dur="0.71s" fill="freeze" begin="5.end" /></path></g></g></g></svg>