<svg xmlns="http://www.w3.org/2000/svg" width="109" height="109" viewBox="0 0 109 109" id="525b"><g fill="none" stroke="#666" stroke-width="9" stroke-linecap="round" stroke-linejoin="round"><g><g p4:phon="岡" xmlns:p4="http://kanjivg.tagaini.net"><g><g><path d="M15.89,23.97c1.01,1.01,1.17,2.36,1.17,4.38c0,3.78-0.04,40.35-0.05,55.65c0,4-0.01,6.54-0.01,6.68" /></g><path d="M18.05,25.7c5.47-0.89,32.32-5.45,35.06-5.65c2.74-0.2,4.45,0.83,4.45,4.11c0,2.45-0.07,57.57-0.07,62.71c0,10.25-4.82,2.27-7.66-0.11" /></g><path d="M26.25,29.38c1.79,1.7,4.62,6.98,5.07,9.62" /><path d="M46.2,25.44c0.02,0.34,0.04,0.88-0.03,1.37c-0.41,2.89-2.67,7.44-5.67,13.11" /><path d="M22.63,44.14c1.73,0.45,4.09,0.66,5.88,0.39c4.57-0.69,13.62-2.08,18.85-2.73c1.24-0.15,3.26-0.55,4.5-0.29" /><g><path d="M37.09,46.25c0.64,0.64,1.02,1.5,1.02,2.63c0,4.49-0.1,18.24-0.1,23.37" /><path d="M26.89,55.85c0.69,0.69,1.11,1.77,1.11,3.32c0,3.17-0.46,6.85-1.17,14.39c-0.21,2.19,0.17,2.81,2.11,2.22c4.49-1.37,15.77-4.09,19.62-4.29" /><path d="M48.66,53.54c0.77,0.77,0.86,2.09,0.79,3.65c-0.21,4.44-0.19,7.6-0.46,12.82c-0.08,1.55-0.17,3.14-0.3,4.74" /></g></g><g><path d="M74.02,25.83c0.98,0.92,1.51,2.29,1.51,4.52c0,10.77,0.14,23.9,0.04,31.65c-0.04,2.65-0.06,4.74-0.06,6" /><path d="M90.27,16.83c0.98,0.92,1.76,2.79,1.76,5.02c0,14.56-0.01,59.66-0.01,64.62c0,13.14-6.21,3.5-7.71,2.25" /></g></g></g><g fill="none" stroke="#000" stroke-width="5" stroke-linecap="round" stroke-linejoin="round"><g><g p4:phon="岡" xmlns:p4="http://kanjivg.tagaini.net"><g><g><path d="M15.89,23.97c1.01,1.01,1.17,2.36,1.17,4.38c0,3.78-0.04,40.35-0.05,55.65c0,4-0.01,6.54-0.01,6.68" stroke-dasharray="66.99" stroke-dashoffset="66.99"><animate id="0" attributeName="stroke-dashoffset" values="66.99;0" dur="0.5s" fill="freeze" begin="0s;525b.click" /></path></g><path d="M18.05,25.7c5.47-0.89,32.32-5.45,35.06-5.65c2.74-0.2,4.45,0.83,4.45,4.11c0,2.45-0.07,57.57-0.07,62.71c0,10.25-4.82,2.27-7.66-0.11" stroke-dasharray="119.17" stroke-dashoffset="119.17"><animate attributeName="stroke-dashoffset" values="119.17" fill="freeze" begin="525b.click" /><animate id="1" attributeName="stroke-dashoffset" values="119.17;0" dur="0.9s" fill="freeze" begin="0.end" /></path></g><path d="M26.25,29.38c1.79,1.7,4.62,6.98,5.07,9.62" stroke-dasharray="10.98" stroke-dashoffset="10.98"><animate attributeName="stroke-dashoffset" values="10.98" fill="freeze" begin="525b.click" /><animate id="2" attributeName="stroke-dashoffset" values="10.98;0" dur="0.11s" fill="freeze" begin="1.end" /></path><path d="M46.2,25.44c0.02,0.34,0.04,0.88-0.03,1.37c-0.41,2.89-2.67,7.44-5.67,13.11" stroke-dasharray="15.71" stroke-dashoffset="15.71"><animate attributeName="stroke-dashoffset" values="15.71" fill="freeze" begin="525b.click" /><animate id="3" attributeName="stroke-dashoffset" values="15.71;0" dur="0.16s" fill="freeze" begin="2.end" /></path><path d="M22.63,44.14c1.73,0.45,4.09,0.66,5.88,0.39c4.57-0.69,13.62-2.08,18.85-2.73c1.24-0.15,3.26-0.55,4.5-0.29" stroke-dasharray="29.5" stroke-dashoffset="29.5"><animate attributeName="stroke-dashoffset" values="29.5" fill="freeze" begin="525b.click" /><animate id="4" attributeName="stroke-dashoffset" values="29.5;0" dur="0.3s" fill="freeze" begin="3.end" /></path><g><path d="M37.09,46.25c0.64,0.64,1.02,1.5,1.02,2.63c0,4.49-0.1,18.24-0.1,23.37" stroke-dasharray="26.27" stroke-dashoffset="26.27"><animate attributeName="stroke-dashoffset" values="26.27" fill="freeze" begin="525b.click" /><animate id="5" attributeName="stroke-dashoffset" values="26.27;0" dur="0.26s" fill="freeze" begin="4.end" /></path><path d="M26.89,55.85c0.69,0.69,1.11,1.77,1.11,3.32c0,3.17-0.46,6.85-1.17,14.39c-0.21,2.19,0.17,2.81,2.11,2.22c4.49-1.37,15.77-4.09,19.62-4.29" stroke-dasharray="42.32" stroke-dashoffset="42.32"><animate attributeName="stroke-dashoffset" values="42.32" fill="freeze" begin="525b.click" /><animate id="6" attributeName="stroke-dashoffset" values="42.32;0" dur="0.42s" fill="freeze" begin="5.end" /></path><path d="M48.66,53.54c0.77,0.77,0.86,2.09,0.79,3.65c-0.21,4.44-0.19,7.6-0.46,12.82c-0.08,1.55-0.17,3.14-0.3,4.74" stroke-dasharray="21.42" stroke-dashoffset="21.42"><animate attributeName="stroke-dashoffset" values="21.42" fill="freeze" begin="525b.click" /><animate id="7" attributeName="stroke-dashoffset" values="21.42;0" dur="0.21s" fill="freeze" begin="6.end" /></path></g></g><g><path d="M74.02,25.83c0.98,0.92,1.51,2.29,1.51,4.52c0,10.77,0.14,23.9,0.04,31.65c-0.04,2.65-0.06,4.74-0.06,6" stroke-dasharray="42.56" stroke-dashoffset="42.56"><animate attributeName="stroke-dashoffset" values="42.56" fill="freeze" begin="525b.click" /><animate id="8" attributeName="stroke-dashoffset" values="42.56;0" dur="0.43s" fill="freeze" begin="7.end" /></path><path d="M90.27,16.83c0.98,0.92,1.76,2.79,1.76,5.02c0,14.56-0.01,59.66-0.01,64.62c0,13.14-6.21,3.5-7.71,2.25" stroke-dasharray="85.1" stroke-dashoffset="85.1"><animate attributeName="stroke-dashoffset" values="85.1" fill="freeze" begin="525b.click" /><animate id="9" attributeName="stroke-dashoffset" values="85.1;0" dur="0.64s" fill="freeze" begin="8.end" /></path></g></g></g></svg>