<svg xmlns="http://www.w3.org/2000/svg" viewBox="0 0 109 109" id="5263"><g fill="none" stroke="#666" stroke-width="6" stroke-linecap="round" stroke-linejoin="round"><g><g p4:partial p4:phon="僉V" xmlns:p4="http://kanjivg.tagaini.net"><g><path d="M40.85,16c0.28,1-0.1,2.51-0.66,3.66c-3.24,6.73-12.19,20.32-26.74,32.94" /><path d="M43,22.12c5.32,2.16,11.29,6.92,14.3,10.86" /></g><g><g><path d="M28.53,42.84c0.37,0.24,2.59,0.41,3.58,0.31c4.26-0.41,10.39-1.53,16.96-2.67c0.99-0.17,2.33-0.24,2.95,0" /></g><g><path d="M23,56.24c0.75,0.75,1.06,1.65,1.22,2.34c1.03,4.54,1.35,6.01,2.23,9.87c0.3,1.31,0.59,2.7,0.85,4.23" /><path d="M24.7,56.92c8.53-1.01,22.25-2.69,28.69-3.32c3.05-0.3,4.36,0.78,3.76,3.82c-0.74,3.72-1.12,4.91-2.25,8.15" /><path d="M27.44,69.65c4.93-0.37,16.43-1.85,24.31-2.4c1.42-0.1,2.72-0.19,3.84-0.25" /></g><g><path d="M40.11,45.57c0.66,0.66,1.04,1.98,1.04,3.8c0,24.28-3.27,35.38-22.4,46.13" /><path d="M42.62,73.12C48.87,78.33,55.36,85.38,58,91.75" /></g></g></g><g><path d="M69.52,33.08c1.08,1.08,1.51,2.54,1.51,4.77c0,9.6,0.17,17.92,0.08,23.9C71.05,64.84,71,67.31,71,69" /><path d="M89.52,15.83c1.14,1.14,1.51,2.67,1.51,4.77c0,14.56-0.01,64.41-0.01,69.37c0,13.14-7.21,1.5-8.71,0.25" /></g></g></g><g fill="none" stroke="#000" stroke-width="3" stroke-linecap="round" stroke-linejoin="round"><path d="M40.85,16c0.28,1-0.1,2.51-0.66,3.66c-3.24,6.73-12.19,20.32-26.74,32.94" stroke-dasharray="46.464" stroke-dashoffset="46.464"><animate attributeName="stroke-dashoffset" values="46.464;46.464;0" dur="0.465s" fill="freeze" begin="0s;5263.click" /></path><path d="M43,22.12c5.32,2.16,11.29,6.92,14.3,10.86" stroke-dasharray="18.132" stroke-dashoffset="18.132"><animate attributeName="stroke-dashoffset" values="18.132" fill="freeze" begin="5263.click" /><animate attributeName="stroke-dashoffset" values="18.132;18.132;0" keyTimes="0;0.72;1" dur="0.646s" fill="freeze" begin="0s;5263.click" /></path><path d="M28.53,42.84c0.37,0.24,2.59,0.41,3.58,0.31c4.26-0.41,10.39-1.53,16.96-2.67c0.99-0.17,2.33-0.24,2.95,0" stroke-dasharray="23.764" stroke-dashoffset="23.764"><animate attributeName="stroke-dashoffset" values="23.764" fill="freeze" begin="5263.click" /><animate attributeName="stroke-dashoffset" values="23.764;23.764;0" keyTimes="0;0.731;1" dur="0.884s" fill="freeze" begin="0s;5263.click" /></path><path d="M23,56.24c0.75,0.75,1.06,1.65,1.22,2.34c1.03,4.54,1.35,6.01,2.23,9.87c0.3,1.31,0.59,2.7,0.85,4.23" stroke-dasharray="17.11" stroke-dashoffset="17.11"><animate attributeName="stroke-dashoffset" values="17.11" fill="freeze" begin="5263.click" /><animate attributeName="stroke-dashoffset" values="17.11;17.11;0" keyTimes="0;0.838;1" dur="1.055s" fill="freeze" begin="0s;5263.click" /></path><path d="M24.7,56.92c8.53-1.01,22.25-2.69,28.69-3.32c3.05-0.3,4.36,0.78,3.76,3.82c-0.74,3.72-1.12,4.91-2.25,8.15" stroke-dasharray="44.102" stroke-dashoffset="44.102"><animate attributeName="stroke-dashoffset" values="44.102" fill="freeze" begin="5263.click" /><animate attributeName="stroke-dashoffset" values="44.102;44.102;0" keyTimes="0;0.705;1" dur="1.496s" fill="freeze" begin="0s;5263.click" /></path><path d="M27.44,69.65c4.93-0.37,16.43-1.85,24.31-2.4c1.42-0.1,2.72-0.19,3.84-0.25" stroke-dasharray="28.279" stroke-dashoffset="28.279"><animate attributeName="stroke-dashoffset" values="28.279" fill="freeze" begin="5263.click" /><animate attributeName="stroke-dashoffset" values="28.279;28.279;0" keyTimes="0;0.841;1" dur="1.779s" fill="freeze" begin="0s;5263.click" /></path><path d="M40.11,45.57c0.66,0.66,1.04,1.98,1.04,3.8c0,24.28-3.27,35.38-22.4,46.13" stroke-dasharray="58.849" stroke-dashoffset="58.849"><animate attributeName="stroke-dashoffset" values="58.849" fill="freeze" begin="5263.click" /><animate attributeName="stroke-dashoffset" values="58.849;58.849;0" keyTimes="0;0.752;1" dur="2.367s" fill="freeze" begin="0s;5263.click" /></path><path d="M42.62,73.12C48.87,78.33,55.36,85.38,58,91.75" stroke-dasharray="24.364" stroke-dashoffset="24.364"><animate attributeName="stroke-dashoffset" values="24.364" fill="freeze" begin="5263.click" /><animate attributeName="stroke-dashoffset" values="24.364;24.364;0" keyTimes="0;0.907;1" dur="2.611s" fill="freeze" begin="0s;5263.click" /></path><path d="M69.52,33.08c1.08,1.08,1.51,2.54,1.51,4.77c0,9.6,0.17,17.92,0.08,23.9C71.05,64.84,71,67.31,71,69" stroke-dasharray="36.296" stroke-dashoffset="36.296"><animate attributeName="stroke-dashoffset" values="36.296" fill="freeze" begin="5263.click" /><animate attributeName="stroke-dashoffset" values="36.296;36.296;0" keyTimes="0;0.878;1" dur="2.974s" fill="freeze" begin="0s;5263.click" /></path><path d="M89.52,15.83c1.14,1.14,1.51,2.67,1.51,4.77c0,14.56-0.01,64.41-0.01,69.37c0,13.14-7.21,1.5-8.71,0.25" stroke-dasharray="90.648" stroke-dashoffset="90.648"><animate attributeName="stroke-dashoffset" values="90.648" fill="freeze" begin="5263.click" /><animate attributeName="stroke-dashoffset" values="90.648;90.648;0" keyTimes="0;0.813;1" dur="3.656s" fill="freeze" begin="0s;5263.click" /></path></g></svg>