<svg xmlns="http://www.w3.org/2000/svg" width="109" height="109" viewBox="0 0 109 109" id="5271"><g fill="none" stroke="#666" stroke-width="9" stroke-linecap="round" stroke-linejoin="round"><g><g p4:partial xmlns:p4="http://kanjivg.tagaini.net"><g><path d="M34.6,14c0.08,0.8,0.31,2.1-0.16,3.22C31.25,25,24,38.25,8.21,49.1" /><path d="M35.78,20.05c6.05,2.43,13.59,8.26,17.03,12.69" /></g><g><g><path d="M22.78,39.84c0.37,0.24,2.59,0.41,3.58,0.31c4.26-0.41,10.14-1.77,17.46-2.42c1-0.09,2.33-0.24,2.95,0" /></g><g><path d="M16.5,53.16c0.39,0.29,0.88,0.5,0.95,0.9c1.1,6.13,2.52,10.2,3.53,16.63" /><path d="M18.42,54.15c9.47-1.21,27.69-3.33,32.57-3.74c1.79-0.15,2.86,1.5,2.6,2.38c-1.06,3.63-1.86,10.27-3.16,14.31" /><path d="M21.37,67.71c5.74-0.46,22.48-2.36,29.76-2.83" /></g><g><path d="M34.43,42.82c0.06,1.29,0.72,3.32,0.72,5.2c0,25-3.66,37.33-20.9,47.23" /><path d="M35,72.53c6.09,4.05,12.42,9.53,15,14.47" /></g></g></g><g><g><path d="M56.07,25.4c1.24,0.83,2.78,0.57,3.88,0.45c7.87-0.85,20.03-3.24,24.92-4.09c3.18-0.55,4.35,1.66,4.42,5.55C89.5,40,87.5,74.25,81.84,89.22c-3.22,8.52-5.48,5.81-7.85,0.26" /><g><g><path d="M70.26,27.33c0.05,1.47,0.07,3.79-0.1,5.91c-1.73,20.7-6.42,41.69-17.66,60.12" /></g></g></g><g><path d="M56.68,38c1.38,0,2.2,0.57,2.83,1.4c7.41,9.69,25.88,36.54,34.73,44.05c2.16,1.83,3.58,3.17,5.51,3.8" /></g></g></g></g><g fill="none" stroke="#000" stroke-width="5" stroke-linecap="round" stroke-linejoin="round"><g><g p4:partial xmlns:p4="http://kanjivg.tagaini.net"><g><path d="M34.6,14c0.08,0.8,0.31,2.1-0.16,3.22C31.25,25,24,38.25,8.21,49.1" stroke-dasharray="45.129" stroke-dashoffset="45.129"><animate attributeName="stroke-dashoffset" values="45.129;45.129;0" dur="0.451s" fill="freeze" begin="0s;5271.click" /></path><path d="M35.78,20.05c6.05,2.43,13.59,8.26,17.03,12.69" stroke-dasharray="21.428" stroke-dashoffset="21.428"><animate attributeName="stroke-dashoffset" values="21.428" fill="freeze" begin="5271.click" /><animate attributeName="stroke-dashoffset" values="21.428;21.428;0" keyTimes="0;0.678;1" dur="0.665s" fill="freeze" begin="0s;5271.click" /></path></g><g><g><path d="M22.78,39.84c0.37,0.24,2.59,0.41,3.58,0.31c4.26-0.41,10.14-1.77,17.46-2.42c1-0.09,2.33-0.24,2.95,0" stroke-dasharray="24.216" stroke-dashoffset="24.216"><animate attributeName="stroke-dashoffset" values="24.216" fill="freeze" begin="5271.click" /><animate attributeName="stroke-dashoffset" values="24.216;24.216;0" keyTimes="0;0.733;1" dur="0.907s" fill="freeze" begin="0s;5271.click" /></path></g><g><path d="M16.5,53.16c0.39,0.29,0.88,0.5,0.95,0.9c1.1,6.13,2.52,10.2,3.53,16.63" stroke-dasharray="18.349" stroke-dashoffset="18.349"><animate attributeName="stroke-dashoffset" values="18.349" fill="freeze" begin="5271.click" /><animate attributeName="stroke-dashoffset" values="18.349;18.349;0" keyTimes="0;0.832;1" dur="1.09s" fill="freeze" begin="0s;5271.click" /></path><path d="M18.42,54.15c9.47-1.21,27.69-3.33,32.57-3.74c1.79-0.15,2.86,1.5,2.6,2.38c-1.06,3.63-1.86,10.27-3.16,14.31" stroke-dasharray="51.48" stroke-dashoffset="51.48"><animate attributeName="stroke-dashoffset" values="51.48" fill="freeze" begin="5271.click" /><animate attributeName="stroke-dashoffset" values="51.48;51.48;0" keyTimes="0;0.679;1" dur="1.605s" fill="freeze" begin="0s;5271.click" /></path><path d="M21.37,67.71c5.74-0.46,22.48-2.36,29.76-2.83" stroke-dasharray="29.896" stroke-dashoffset="29.896"><animate attributeName="stroke-dashoffset" values="29.896" fill="freeze" begin="5271.click" /><animate attributeName="stroke-dashoffset" values="29.896;29.896;0" keyTimes="0;0.843;1" dur="1.904s" fill="freeze" begin="0s;5271.click" /></path></g><g><path d="M34.43,42.82c0.06,1.29,0.72,3.32,0.72,5.2c0,25-3.66,37.33-20.9,47.23" stroke-dasharray="60.145" stroke-dashoffset="60.145"><animate attributeName="stroke-dashoffset" values="60.145" fill="freeze" begin="5271.click" /><animate attributeName="stroke-dashoffset" values="60.145;60.145;0" keyTimes="0;0.808;1" dur="2.356s" fill="freeze" begin="0s;5271.click" /></path><path d="M35,72.53c6.09,4.05,12.42,9.53,15,14.47" stroke-dasharray="21.027" stroke-dashoffset="21.027"><animate attributeName="stroke-dashoffset" values="21.027" fill="freeze" begin="5271.click" /><animate attributeName="stroke-dashoffset" values="21.027;21.027;0" keyTimes="0;0.918;1" dur="2.566s" fill="freeze" begin="0s;5271.click" /></path></g></g></g><g><g><path d="M56.07,25.4c1.24,0.83,2.78,0.57,3.88,0.45c7.87-0.85,20.03-3.24,24.92-4.09c3.18-0.55,4.35,1.66,4.42,5.55C89.5,40,87.5,74.25,81.84,89.22c-3.22,8.52-5.48,5.81-7.85,0.26" stroke-dasharray="114.012" stroke-dashoffset="114.012"><animate attributeName="stroke-dashoffset" values="114.012" fill="freeze" begin="5271.click" /><animate attributeName="stroke-dashoffset" values="114.012;114.012;0" keyTimes="0;0.75;1" dur="3.423s" fill="freeze" begin="0s;5271.click" /></path><g><g><path d="M70.26,27.33c0.05,1.47,0.07,3.79-0.1,5.91c-1.73,20.7-6.42,41.69-17.66,60.12" stroke-dasharray="69.15" stroke-dashoffset="69.15"><animate attributeName="stroke-dashoffset" values="69.15" fill="freeze" begin="5271.click" /><animate attributeName="stroke-dashoffset" values="69.15;69.15;0" keyTimes="0;0.868;1" dur="3.943s" fill="freeze" begin="0s;5271.click" /></path></g></g></g><g><path d="M56.68,38c1.38,0,2.2,0.57,2.83,1.4c7.41,9.69,25.88,36.54,34.73,44.05c2.16,1.83,3.58,3.17,5.51,3.8" stroke-dasharray="66.196" stroke-dashoffset="66.196"><animate attributeName="stroke-dashoffset" values="66.196" fill="freeze" begin="5271.click" /><animate attributeName="stroke-dashoffset" values="66.196;66.196;0" keyTimes="0;0.888;1" dur="4.441s" fill="freeze" begin="0s;5271.click" /></path></g></g></g></g></svg>