<svg xmlns="http://www.w3.org/2000/svg" viewBox="0 0 109 109" id="52aa"><g fill="none" stroke="#666" stroke-width="6" stroke-linecap="round" stroke-linejoin="round"><g><g p4:phon="奴" xmlns:p4="http://kanjivg.tagaini.net"><g><path d="M32.93,10.94c0.38,0.87,0.56,2.04,0.36,3.22c-0.97,5.8-5,21.17-9.23,27.66c-0.87,1.33,0.37,2.04,0.86,2.18c4.79,1.4,8.66,2.65,12.36,4.96c1.93,1.2,3.8,2.69,5.74,4.63" /><path d="M45.12,21.92c0.07,0.9,0.37,2.56,0.09,3.83c-2.25,10.24-9.2,24.72-25.12,31.1" /><path d="M12.29,32.61c0.58,0.76,1.89,0.85,3.33,0.56c7-1.42,21.63-4.92,33.65-7.89" /></g><g><path d="M56.49,17.94c1.26,0.26,2.67,0.39,5.18,0.01c2.52-0.39,19.02-3.55,20.75-3.94c2.15-0.48,4.4,1.09,3.45,3.02c-5.75,11.6-14.5,25.1-29.18,32.02" /><path d="M57.52,27.64c3.31,0.54,19.46,15.14,30.97,21.13c1.79,0.93,3.1,1.55,4.77,1.86" /></g></g><g><path d="M30.69,66.37c1.96,0.69,4.8,0.58,6.81,0.31c10.1-1.37,30.09-3.66,34.31-4.05c3.06-0.28,4.1,1.29,3.74,3.23c-1.67,8.9-6.92,21.77-13.19,28.4c-2.98,3.15-4.98,2.25-7.91-0.42" /><path d="M53.82,53.68c0.56,0.95,0.6,2.28,0.32,3.72C52,68.75,42,88,23.86,95.41" /></g></g></g><g fill="none" stroke="#000" stroke-width="3" stroke-linecap="round" stroke-linejoin="round"><path d="M32.93,10.94c0.38,0.87,0.56,2.04,0.36,3.22c-0.97,5.8-5,21.17-9.23,27.66c-0.87,1.33,0.37,2.04,0.86,2.18c4.79,1.4,8.66,2.65,12.36,4.96c1.93,1.2,3.8,2.69,5.74,4.63" stroke-dasharray="56.133" stroke-dashoffset="56.133"><animate attributeName="stroke-dashoffset" values="56.133;56.133;0" dur="0.561s" fill="freeze" begin="0s;52aa.click" /></path><path d="M45.12,21.92c0.07,0.9,0.37,2.56,0.09,3.83c-2.25,10.24-9.2,24.72-25.12,31.1" stroke-dasharray="45.464" stroke-dashoffset="45.464"><animate attributeName="stroke-dashoffset" values="45.464" fill="freeze" begin="52aa.click" /><animate attributeName="stroke-dashoffset" values="45.464;45.464;0" keyTimes="0;0.552;1" dur="1.016s" fill="freeze" begin="0s;52aa.click" /></path><path d="M12.29,32.61c0.58,0.76,1.89,0.85,3.33,0.56c7-1.42,21.63-4.92,33.65-7.89" stroke-dasharray="38.107" stroke-dashoffset="38.107"><animate attributeName="stroke-dashoffset" values="38.107" fill="freeze" begin="52aa.click" /><animate attributeName="stroke-dashoffset" values="38.107;38.107;0" keyTimes="0;0.727;1" dur="1.397s" fill="freeze" begin="0s;52aa.click" /></path><path d="M56.49,17.94c1.26,0.26,2.67,0.39,5.18,0.01c2.52-0.39,19.02-3.55,20.75-3.94c2.15-0.48,4.4,1.09,3.45,3.02c-5.75,11.6-14.5,25.1-29.18,32.02" stroke-dasharray="76.25" stroke-dashoffset="76.25"><animate attributeName="stroke-dashoffset" values="76.25" fill="freeze" begin="52aa.click" /><animate attributeName="stroke-dashoffset" values="76.25;76.25;0" keyTimes="0;0.709;1" dur="1.97s" fill="freeze" begin="0s;52aa.click" /></path><path d="M57.52,27.64c3.31,0.54,19.46,15.14,30.97,21.13c1.79,0.93,3.1,1.55,4.77,1.86" stroke-dasharray="42.708" stroke-dashoffset="42.708"><animate attributeName="stroke-dashoffset" values="42.708" fill="freeze" begin="52aa.click" /><animate attributeName="stroke-dashoffset" values="42.708;42.708;0" keyTimes="0;0.822;1" dur="2.397s" fill="freeze" begin="0s;52aa.click" /></path><path d="M30.69,66.37c1.96,0.69,4.8,0.58,6.81,0.31c10.1-1.37,30.09-3.66,34.31-4.05c3.06-0.28,4.1,1.29,3.74,3.23c-1.67,8.9-6.92,21.77-13.19,28.4c-2.98,3.15-4.98,2.25-7.91-0.42" stroke-dasharray="88.335" stroke-dashoffset="88.335"><animate attributeName="stroke-dashoffset" values="88.335" fill="freeze" begin="52aa.click" /><animate attributeName="stroke-dashoffset" values="88.335;88.335;0" keyTimes="0;0.783;1" dur="3.061s" fill="freeze" begin="0s;52aa.click" /></path><path d="M53.82,53.68c0.56,0.95,0.6,2.28,0.32,3.72C52,68.75,42,88,23.86,95.41" stroke-dasharray="54.237" stroke-dashoffset="54.237"><animate attributeName="stroke-dashoffset" values="54.237" fill="freeze" begin="52aa.click" /><animate attributeName="stroke-dashoffset" values="54.237;54.237;0" keyTimes="0;0.85;1" dur="3.603s" fill="freeze" begin="0s;52aa.click" /></path></g></svg>