<svg xmlns="http://www.w3.org/2000/svg" width="109" height="109" viewBox="0 0 109 109" id="52ab"><g fill="none" stroke="#666" stroke-width="9" stroke-linecap="round" stroke-linejoin="round"><g><g><g><path d="M18.33,38.59c2.69,0.56,5.31,0.16,8.07-0.3c6.35-1.05,12.97-2.3,19.6-3.03c2.26-0.25,4.43-0.52,6.62-0.04" /><path d="M34.8,15.5c0.97,0.97,1.13,2,1.13,3.02c0,7.98,0.09,35.81,0.09,38.53" /><path d="M13.25,59.5c2.75,0.37,5.5,0.3,8.24-0.19c9.26-1.36,19.74-2.75,27.9-3.43c3.03-0.31,6.07-0.28,9.11,0.1" /></g><g><path d="M35.47,61.63c0,1.24-0.36,2.68-0.71,3.28c-4.88,8.47-7.87,13.36-13.24,20.35c-2.29,2.98-1.05,4.12,2.26,3.1c6.98-2.15,13.9-4.73,23.72-7.86" /><path d="M44.28,70.35c2.9,2.81,7.5,11.54,8.22,15.9" /></g></g><g><path d="M60.1,42.17c3.02,0.78,5.95,0.73,8.78-0.14c6.92-1.9,13.92-4.35,18.95-5.61c3.8-0.96,5.91,1.58,5.77,5.24c-0.28,7.13-3.76,28.44-8.56,41.41c-4.42,11.94-7.03,11.7-10.3,5.4" /><path d="M74.85,16.93c0.68,1.38,0.97,2.17,0.87,3.58c-2.47,36.25-8.47,56.75-20.33,71.4" /></g></g></g><g fill="none" stroke="#000" stroke-width="5" stroke-linecap="round" stroke-linejoin="round"><path d="M18.33,38.59c2.69,0.56,5.31,0.16,8.07-0.3c6.35-1.05,12.97-2.3,19.6-3.03c2.26-0.25,4.43-0.52,6.62-0.04" stroke-dasharray="34.615" stroke-dashoffset="34.615"><animate attributeName="stroke-dashoffset" values="34.615;34.615;0" dur="0.346s" fill="freeze" begin="0s;52ab.click" /></path><path d="M34.8,15.5c0.97,0.97,1.13,2,1.13,3.02c0,7.98,0.09,35.81,0.09,38.53" stroke-dasharray="41.854" stroke-dashoffset="41.854"><animate attributeName="stroke-dashoffset" values="41.854" fill="freeze" begin="52ab.click" /><animate attributeName="stroke-dashoffset" values="41.854;41.854;0" keyTimes="0;0.452;1" dur="0.765s" fill="freeze" begin="0s;52ab.click" /></path><path d="M13.25,59.5c2.75,0.37,5.5,0.3,8.24-0.19c9.26-1.36,19.74-2.75,27.9-3.43c3.03-0.31,6.07-0.28,9.11,0.1" stroke-dasharray="45.521" stroke-dashoffset="45.521"><animate attributeName="stroke-dashoffset" values="45.521" fill="freeze" begin="52ab.click" /><animate attributeName="stroke-dashoffset" values="45.521;45.521;0" keyTimes="0;0.627;1" dur="1.22s" fill="freeze" begin="0s;52ab.click" /></path><path d="M35.47,61.63c0,1.24-0.36,2.68-0.71,3.28c-4.88,8.47-7.87,13.36-13.24,20.35c-2.29,2.98-1.05,4.12,2.26,3.1c6.98-2.15,13.9-4.73,23.72-7.86" stroke-dasharray="59.457" stroke-dashoffset="59.457"><animate attributeName="stroke-dashoffset" values="59.457" fill="freeze" begin="52ab.click" /><animate attributeName="stroke-dashoffset" values="59.457;59.457;0" keyTimes="0;0.672;1" dur="1.815s" fill="freeze" begin="0s;52ab.click" /></path><path d="M44.28,70.35c2.9,2.81,7.5,11.54,8.22,15.9" stroke-dasharray="18.071" stroke-dashoffset="18.071"><animate attributeName="stroke-dashoffset" values="18.071" fill="freeze" begin="52ab.click" /><animate attributeName="stroke-dashoffset" values="18.071;18.071;0" keyTimes="0;0.909;1" dur="1.996s" fill="freeze" begin="0s;52ab.click" /></path><path d="M60.1,42.17c3.02,0.78,5.95,0.73,8.78-0.14c6.92-1.9,13.92-4.35,18.95-5.61c3.8-0.96,5.91,1.58,5.77,5.24c-0.28,7.13-3.76,28.44-8.56,41.41c-4.42,11.94-7.03,11.7-10.3,5.4" stroke-dasharray="98.512" stroke-dashoffset="98.512"><animate attributeName="stroke-dashoffset" values="98.512" fill="freeze" begin="52ab.click" /><animate attributeName="stroke-dashoffset" values="98.512;98.512;0" keyTimes="0;0.729;1" dur="2.737s" fill="freeze" begin="0s;52ab.click" /></path><path d="M74.85,16.93c0.68,1.38,0.97,2.17,0.87,3.58c-2.47,36.25-8.47,56.75-20.33,71.4" stroke-dasharray="79.144" stroke-dashoffset="79.144"><animate attributeName="stroke-dashoffset" values="79.144" fill="freeze" begin="52ab.click" /><animate attributeName="stroke-dashoffset" values="79.144;79.144;0" keyTimes="0;0.821;1" dur="3.332s" fill="freeze" begin="0s;52ab.click" /></path></g></svg>