<svg xmlns="http://www.w3.org/2000/svg" width="109" height="109" viewBox="0 0 109 109" id="52b5"><g fill="none" stroke="#666" stroke-width="9" stroke-linecap="round" stroke-linejoin="round"><g><g><path d="M39.92,17.48c0.05,0.42,0.29,1.19-0.1,1.69C36,24,31,29.5,21.72,35.3" /><path d="M71.68,16.42c6.16,2.67,15.92,10.98,17.46,15.13" /><g><g><path d="M34.76,32.39c1.32,0.38,3.74,0.49,5.05,0.38c8.4-0.66,20.58-3.52,30.36-3.88c2.19-0.08,3.52,0.18,4.62,0.37" /></g><g><path d="M19.83,49.64c1.32,0.38,3.74,0.49,5.05,0.38c8.4-0.66,56.78-5.33,64.91-4.88c2.19,0.12,3.52,0.18,4.61,0.37" /></g></g><g><path d="M54.14,12.42c0.36,1.08,0.64,2.89,0.06,4.96c-5.86,20.96-15.53,40.29-37.34,57.04" /><path d="M60.64,35.98c4.54,5.79,24.1,24.72,29.12,28.96c1.7,1.44,3.88,2.06,5.58,2.47" /></g></g><g><path d="M33.91,68.01c1.19,0.35,2.69,0.31,3.73,0.19c8.5-0.96,30.25-3.53,34.96-3.88c3.06-0.23,3.92,1.04,3.75,2.66C75.9,71.25,71.88,84.68,67,92c-2.67,4-4.33,4-7.33,0" /><path d="M53.46,54.93c0.08,0.83,0.21,2.14-0.17,3.32c-2.8,8.77-9.54,31-29.09,38.29" /></g></g></g><g fill="none" stroke="#000" stroke-width="5" stroke-linecap="round" stroke-linejoin="round"><g><g><path d="M39.92,17.48c0.05,0.42,0.29,1.19-0.1,1.69C36,24,31,29.5,21.72,35.3" stroke-dasharray="26.12" stroke-dashoffset="26.12"><animate id="0" attributeName="stroke-dashoffset" values="26.12;0" dur="0.26s" fill="freeze" begin="0s;52b5.click" /></path><path d="M71.68,16.42c6.16,2.67,15.92,10.98,17.46,15.13" stroke-dasharray="23.44" stroke-dashoffset="23.44"><animate attributeName="stroke-dashoffset" values="23.44" fill="freeze" begin="52b5.click" /><animate id="1" attributeName="stroke-dashoffset" values="23.44;0" dur="0.23s" fill="freeze" begin="0.end" /></path><g><g><path d="M34.76,32.39c1.32,0.38,3.74,0.49,5.05,0.38c8.4-0.66,20.58-3.52,30.36-3.88c2.19-0.08,3.52,0.18,4.62,0.37" stroke-dasharray="40.35" stroke-dashoffset="40.35"><animate attributeName="stroke-dashoffset" values="40.35" fill="freeze" begin="52b5.click" /><animate id="2" attributeName="stroke-dashoffset" values="40.35;0" dur="0.4s" fill="freeze" begin="1.end" /></path></g><g><path d="M19.83,49.64c1.32,0.38,3.74,0.49,5.05,0.38c8.4-0.66,56.78-5.33,64.91-4.88c2.19,0.12,3.52,0.18,4.61,0.37" stroke-dasharray="74.82" stroke-dashoffset="74.82"><animate attributeName="stroke-dashoffset" values="74.82" fill="freeze" begin="52b5.click" /><animate id="3" attributeName="stroke-dashoffset" values="74.82;0" dur="0.56s" fill="freeze" begin="2.end" /></path></g></g><g><path d="M54.14,12.42c0.36,1.08,0.64,2.89,0.06,4.96c-5.86,20.96-15.53,40.29-37.34,57.04" stroke-dasharray="74.53" stroke-dashoffset="74.53"><animate attributeName="stroke-dashoffset" values="74.53" fill="freeze" begin="52b5.click" /><animate id="4" attributeName="stroke-dashoffset" values="74.53;0" dur="0.56s" fill="freeze" begin="3.end" /></path><path d="M60.64,35.98c4.54,5.79,24.1,24.72,29.12,28.96c1.7,1.44,3.88,2.06,5.58,2.47" stroke-dasharray="47.25" stroke-dashoffset="47.25"><animate attributeName="stroke-dashoffset" values="47.25" fill="freeze" begin="52b5.click" /><animate id="5" attributeName="stroke-dashoffset" values="47.25;0" dur="0.47s" fill="freeze" begin="4.end" /></path></g></g><g><path d="M33.91,68.01c1.19,0.35,2.69,0.31,3.73,0.19c8.5-0.96,30.25-3.53,34.96-3.88c3.06-0.23,3.92,1.04,3.75,2.66C75.9,71.25,71.88,84.68,67,92c-2.67,4-4.33,4-7.33,0" stroke-dasharray="81.05" stroke-dashoffset="81.05"><animate attributeName="stroke-dashoffset" values="81.05" fill="freeze" begin="52b5.click" /><animate id="6" attributeName="stroke-dashoffset" values="81.05;0" dur="0.61s" fill="freeze" begin="5.end" /></path><path d="M53.46,54.93c0.08,0.83,0.21,2.14-0.17,3.32c-2.8,8.77-9.54,31-29.09,38.29" stroke-dasharray="53.24" stroke-dashoffset="53.24"><animate attributeName="stroke-dashoffset" values="53.24" fill="freeze" begin="52b5.click" /><animate id="7" attributeName="stroke-dashoffset" values="53.24;0" dur="0.53s" fill="freeze" begin="6.end" /></path></g></g></g></svg>