<svg xmlns="http://www.w3.org/2000/svg" width="109" height="109" viewBox="0 0 109 109" id="52d8"><g fill="none" stroke="#666" stroke-width="9" stroke-linecap="round" stroke-linejoin="round"><g><g p4:phon="甚" xmlns:p4="http://kanjivg.tagaini.net"><g><g p4:part="1"><g><path d="M14.03,29.66c2.6,0.59,4.66,0.28,6.74-0.02c7.48-1.07,20.34-3.13,29.99-4.19c2.47-0.27,4.83-0.68,7.25,0.02" /><path d="M24,17c0.94,0.94,1.15,2.25,1.15,3.62S25.16,59.75,25.16,65" /></g><path d="M45.31,13.78c0.83,0.83,0.94,1.97,0.94,3.47s0.09,39.38,0.09,44.96" /></g><path d="M26.19,40.37c2.5-0.4,17.13-2.13,18.89-2.13" /><g p4:part="2"><path d="M26.19,53.05c4.44-0.55,14.44-2.3,19-2.58" /></g></g><g><g p4:part="1"><path d="M10,67.05c2.29,0.95,5.56,0.46,7.9,0.09c10.34-1.63,24.9-3.56,34.84-4.56c2.71-0.27,5.33-0.62,8.01,0.05" /></g><g><g><g><path d="M33,68.25c0.26,0.29,0.41,1.29,0.26,1.86c-1.38,5.02-4,9.64-8.5,14.64" /></g><g><path d="M41.21,66.53c0.88,0.88,1.05,1.97,1.05,3.51c0,0.95-0.13,2.28-0.13,5.06c0,6.02,1.52,6.64,6.63,6.64s5.52-0.79,6.24-1.62" /></g></g></g><g p4:part="2"><path d="M18.31,69.14c1.15,1.15,1.26,2.24,1.26,4.18c0,2.8-0.08,4.06-0.08,11.18S20.88,93,37.35,93c10.53,0,14.78-0.76,16.7-1.77" /></g></g></g><g><path d="M59.22,43.89c2.03,0.61,4.92,0.7,6.51,0.45c10.41-1.62,21.59-4.1,25.84-4.84c3.55-0.62,4.53,0.58,4.41,3.81c-0.44,11.87-4.24,34-8.79,46.75c-3.06,8.57-6.56,5.19-9.64,1.77" /><path d="M77.42,17.68c0.83,1.07,0.98,2.58,0.9,4.4c-0.95,20.8-3.95,54.3-19.46,73.33" /></g></g></g><g fill="none" stroke="#000" stroke-width="5" stroke-linecap="round" stroke-linejoin="round"><g><g p4:phon="甚" xmlns:p4="http://kanjivg.tagaini.net"><g><g p4:part="1"><g><path d="M14.03,29.66c2.6,0.59,4.66,0.28,6.74-0.02c7.48-1.07,20.34-3.13,29.99-4.19c2.47-0.27,4.83-0.68,7.25,0.02" stroke-dasharray="44.37" stroke-dashoffset="44.37"><animate id="0" attributeName="stroke-dashoffset" values="44.37;0" dur="0.44s" fill="freeze" begin="0s;52d8.click" /></path><path d="M24,17c0.94,0.94,1.15,2.25,1.15,3.62S25.16,59.75,25.16,65" stroke-dasharray="48.28" stroke-dashoffset="48.28"><animate attributeName="stroke-dashoffset" values="48.28" fill="freeze" begin="52d8.click" /><animate id="1" attributeName="stroke-dashoffset" values="48.28;0" dur="0.48s" fill="freeze" begin="0.end" /></path></g><path d="M45.31,13.78c0.83,0.83,0.94,1.97,0.94,3.47s0.09,39.38,0.09,44.96" stroke-dasharray="48.66" stroke-dashoffset="48.66"><animate attributeName="stroke-dashoffset" values="48.66" fill="freeze" begin="52d8.click" /><animate id="2" attributeName="stroke-dashoffset" values="48.66;0" dur="0.49s" fill="freeze" begin="1.end" /></path></g><path d="M26.19,40.37c2.5-0.4,17.13-2.13,18.89-2.13" stroke-dasharray="19.01" stroke-dashoffset="19.01"><animate attributeName="stroke-dashoffset" values="19.01" fill="freeze" begin="52d8.click" /><animate id="3" attributeName="stroke-dashoffset" values="19.01;0" dur="0.19s" fill="freeze" begin="2.end" /></path><g p4:part="2"><path d="M26.19,53.05c4.44-0.55,14.44-2.3,19-2.58" stroke-dasharray="19.18" stroke-dashoffset="19.18"><animate attributeName="stroke-dashoffset" values="19.18" fill="freeze" begin="52d8.click" /><animate id="4" attributeName="stroke-dashoffset" values="19.18;0" dur="0.19s" fill="freeze" begin="3.end" /></path></g></g><g><g p4:part="1"><path d="M10,67.05c2.29,0.95,5.56,0.46,7.9,0.09c10.34-1.63,24.9-3.56,34.84-4.56c2.71-0.27,5.33-0.62,8.01,0.05" stroke-dasharray="51.19" stroke-dashoffset="51.19"><animate attributeName="stroke-dashoffset" values="51.19" fill="freeze" begin="52d8.click" /><animate id="5" attributeName="stroke-dashoffset" values="51.19;0" dur="0.51s" fill="freeze" begin="4.end" /></path></g><g><g><g><path d="M33,68.25c0.26,0.29,0.41,1.29,0.26,1.86c-1.38,5.02-4,9.64-8.5,14.64" stroke-dasharray="19.01" stroke-dashoffset="19.01"><animate attributeName="stroke-dashoffset" values="19.01" fill="freeze" begin="52d8.click" /><animate id="6" attributeName="stroke-dashoffset" values="19.01;0" dur="0.19s" fill="freeze" begin="5.end" /></path></g><g><path d="M41.21,66.53c0.88,0.88,1.05,1.97,1.05,3.51c0,0.95-0.13,2.28-0.13,5.06c0,6.02,1.52,6.64,6.63,6.64s5.52-0.79,6.24-1.62" stroke-dasharray="26.88" stroke-dashoffset="26.88"><animate attributeName="stroke-dashoffset" values="26.88" fill="freeze" begin="52d8.click" /><animate id="7" attributeName="stroke-dashoffset" values="26.88;0" dur="0.27s" fill="freeze" begin="6.end" /></path></g></g></g><g p4:part="2"><path d="M18.31,69.14c1.15,1.15,1.26,2.24,1.26,4.18c0,2.8-0.08,4.06-0.08,11.18S20.88,93,37.35,93c10.53,0,14.78-0.76,16.7-1.77" stroke-dasharray="55.8" stroke-dashoffset="55.8"><animate attributeName="stroke-dashoffset" values="55.8" fill="freeze" begin="52d8.click" /><animate id="8" attributeName="stroke-dashoffset" values="55.8;0" dur="0.56s" fill="freeze" begin="7.end" /></path></g></g></g><g><path d="M59.22,43.89c2.03,0.61,4.92,0.7,6.51,0.45c10.41-1.62,21.59-4.1,25.84-4.84c3.55-0.62,4.53,0.58,4.41,3.81c-0.44,11.87-4.24,34-8.79,46.75c-3.06,8.57-6.56,5.19-9.64,1.77" stroke-dasharray="101.75" stroke-dashoffset="101.75"><animate attributeName="stroke-dashoffset" values="101.75" fill="freeze" begin="52d8.click" /><animate id="9" attributeName="stroke-dashoffset" values="101.75;0" dur="0.77s" fill="freeze" begin="8.end" /></path><path d="M77.42,17.68c0.83,1.07,0.98,2.58,0.9,4.4c-0.95,20.8-3.95,54.3-19.46,73.33" stroke-dasharray="81.63" stroke-dashoffset="81.63"><animate attributeName="stroke-dashoffset" values="81.63" fill="freeze" begin="52d8.click" /><animate id="10" attributeName="stroke-dashoffset" values="81.63;0" dur="0.61s" fill="freeze" begin="9.end" /></path></g></g></g></svg>