<svg xmlns="http://www.w3.org/2000/svg" width="109" height="109" viewBox="0 0 109 109" id="52e6"><g fill="none" stroke="#666" stroke-width="9" stroke-linecap="round" stroke-linejoin="round"><g><g><g><g><path d="M23.09,12.66c0.62,0.26,0.13,2.07-0.1,2.68c-1.51,3.95-2.74,6.41-6.44,11.11c-0.64,0.81-0.37,0.7,0,0.89c4.61,2.3,5.58,5.51,8,10.19" /><path d="M37.3,12.66c0.62,0.26,0.13,2.07-0.11,2.68c-1.51,3.95-3.45,6.57-7.44,10.11c-0.77,0.68-0.37,0.7,0,0.89c4.61,2.3,7.5,6.16,9.05,10.19" /><path d="M50.74,12.16c0.62,0.26,0.07,2.05-0.1,2.68c-0.89,3.16-3.14,6.41-6.44,9.63c-0.74,0.72-0.34,0.66,0,0.89c3.56,2.39,6.56,5.64,8,9.67" /></g></g><g><g p6:part="1" xmlns:p6="http://kanjivg.tagaini.net"><g><path d="M17.38,42.18c0.47,0.51,1.14,1.13,1.14,1.82c0,0.69,3.21,19.02,3.21,19.37c0,0.35,0.08,0.35,0.17,1.04" /><path d="M18.61,43.32c1.41-0.09,29.96-3.08,31.25-3.08c1.69,0.01,2.39,2.01,2.31,2.52C52,43.8,49.25,58.5,47.97,62.52" /><path d="M19.82,53.04c1.9,0,27.62-2.56,29.77-2.56" /><path d="M22.47,62.81c3.88-0.37,20.4-1.72,25.23-2.03" /></g></g><g><path d="M10.71,72.57c0.5,0.17,1.82,0.46,3.15,0.52c3.65,0.17,28.94-3.34,39.55-3.68c1.33-0.04,1.66,0.17,2.49,0.35" /><g p7:part="2" xmlns:p7="http://kanjivg.tagaini.net"><path d="M33.94,44.6c0.77,0.39,1.23,1.77,1.38,2.55c0.15,0.78,0,45.69-0.15,50.59" /></g><path d="M34.97,71.94c-4.26,6.94-15.35,16.76-24.22,20.69" /><path d="M37.82,76.24c4.83,1.61,11.6,6.44,13.87,10.12" /></g></g></g><g><path d="M58.41,36.97c1.07,0.68,2.4,0.44,3.36,0.36c7.73-0.58,23.93-3.34,28.21-3.59c4.27-0.24,4.6,2.04,4.37,5.19C93.25,53.75,88,77.25,80.3,91.53c-3.55,6.59-6.23,0.31-7.34-0.68" /><path d="M77.43,14.18c0.82,1.08,1.18,2.12,0.86,4.69c-2.38,18.97-8.79,58.39-25.9,74.79" /></g></g></g><g fill="none" stroke="#000" stroke-width="5" stroke-linecap="round" stroke-linejoin="round"><g><g><g><g><path d="M23.09,12.66c0.62,0.26,0.13,2.07-0.1,2.68c-1.51,3.95-2.74,6.41-6.44,11.11c-0.64,0.81-0.37,0.7,0,0.89c4.61,2.3,5.58,5.51,8,10.19" stroke-dasharray="30.24" stroke-dashoffset="30.24"><animate id="0" attributeName="stroke-dashoffset" values="30.24;0" dur="0.3s" fill="freeze" begin="0s;52e6.click" /></path><path d="M37.3,12.66c0.62,0.26,0.13,2.07-0.11,2.68c-1.51,3.95-3.45,6.57-7.44,10.11c-0.77,0.68-0.37,0.7,0,0.89c4.61,2.3,7.5,6.16,9.05,10.19" stroke-dasharray="30.79" stroke-dashoffset="30.79"><animate attributeName="stroke-dashoffset" values="30.79" fill="freeze" begin="52e6.click" /><animate id="1" attributeName="stroke-dashoffset" values="30.79;0" dur="0.31s" fill="freeze" begin="0.end" /></path><path d="M50.74,12.16c0.62,0.26,0.07,2.05-0.1,2.68c-0.89,3.16-3.14,6.41-6.44,9.63c-0.74,0.72-0.34,0.66,0,0.89c3.56,2.39,6.56,5.64,8,9.67" stroke-dasharray="28.57" stroke-dashoffset="28.57"><animate attributeName="stroke-dashoffset" values="28.57" fill="freeze" begin="52e6.click" /><animate id="2" attributeName="stroke-dashoffset" values="28.57;0" dur="0.29s" fill="freeze" begin="1.end" /></path></g></g><g><g p6:part="1" xmlns:p6="http://kanjivg.tagaini.net"><g><path d="M17.38,42.18c0.47,0.51,1.14,1.13,1.14,1.82c0,0.69,3.21,19.02,3.21,19.37c0,0.35,0.08,0.35,0.17,1.04" stroke-dasharray="22.89" stroke-dashoffset="22.89"><animate attributeName="stroke-dashoffset" values="22.89" fill="freeze" begin="52e6.click" /><animate id="3" attributeName="stroke-dashoffset" values="22.89;0" dur="0.23s" fill="freeze" begin="2.end" /></path><path d="M18.61,43.32c1.41-0.09,29.96-3.08,31.25-3.08c1.69,0.01,2.39,2.01,2.31,2.52C52,43.8,49.25,58.5,47.97,62.52" stroke-dasharray="55.37" stroke-dashoffset="55.37"><animate attributeName="stroke-dashoffset" values="55.37" fill="freeze" begin="52e6.click" /><animate id="4" attributeName="stroke-dashoffset" values="55.37;0" dur="0.55s" fill="freeze" begin="3.end" /></path><path d="M19.82,53.04c1.9,0,27.62-2.56,29.77-2.56" stroke-dasharray="29.88" stroke-dashoffset="29.88"><animate attributeName="stroke-dashoffset" values="29.88" fill="freeze" begin="52e6.click" /><animate id="5" attributeName="stroke-dashoffset" values="29.88;0" dur="0.3s" fill="freeze" begin="4.end" /></path><path d="M22.47,62.81c3.88-0.37,20.4-1.72,25.23-2.03" stroke-dasharray="25.31" stroke-dashoffset="25.31"><animate attributeName="stroke-dashoffset" values="25.31" fill="freeze" begin="52e6.click" /><animate id="6" attributeName="stroke-dashoffset" values="25.31;0" dur="0.25s" fill="freeze" begin="5.end" /></path></g></g><g><path d="M10.71,72.57c0.5,0.17,1.82,0.46,3.15,0.52c3.65,0.17,28.94-3.34,39.55-3.68c1.33-0.04,1.66,0.17,2.49,0.35" stroke-dasharray="45.46" stroke-dashoffset="45.46"><animate attributeName="stroke-dashoffset" values="45.46" fill="freeze" begin="52e6.click" /><animate id="7" attributeName="stroke-dashoffset" values="45.46;0" dur="0.45s" fill="freeze" begin="6.end" /></path><g p7:part="2" xmlns:p7="http://kanjivg.tagaini.net"><path d="M33.94,44.6c0.77,0.39,1.23,1.77,1.38,2.55c0.15,0.78,0,45.69-0.15,50.59" stroke-dasharray="53.57" stroke-dashoffset="53.57"><animate attributeName="stroke-dashoffset" values="53.57" fill="freeze" begin="52e6.click" /><animate id="8" attributeName="stroke-dashoffset" values="53.57;0" dur="0.54s" fill="freeze" begin="7.end" /></path></g><path d="M34.97,71.94c-4.26,6.94-15.35,16.76-24.22,20.69" stroke-dasharray="32.21" stroke-dashoffset="32.21"><animate attributeName="stroke-dashoffset" values="32.21" fill="freeze" begin="52e6.click" /><animate id="9" attributeName="stroke-dashoffset" values="32.21;0" dur="0.32s" fill="freeze" begin="8.end" /></path><path d="M37.82,76.24c4.83,1.61,11.6,6.44,13.87,10.12" stroke-dasharray="17.41" stroke-dashoffset="17.41"><animate attributeName="stroke-dashoffset" values="17.41" fill="freeze" begin="52e6.click" /><animate id="10" attributeName="stroke-dashoffset" values="17.41;0" dur="0.17s" fill="freeze" begin="9.end" /></path></g></g></g><g><path d="M58.41,36.97c1.07,0.68,2.4,0.44,3.36,0.36c7.73-0.58,23.93-3.34,28.21-3.59c4.27-0.24,4.6,2.04,4.37,5.19C93.25,53.75,88,77.25,80.3,91.53c-3.55,6.59-6.23,0.31-7.34-0.68" stroke-dasharray="105.18" stroke-dashoffset="105.18"><animate attributeName="stroke-dashoffset" values="105.18" fill="freeze" begin="52e6.click" /><animate id="11" attributeName="stroke-dashoffset" values="105.18;0" dur="0.79s" fill="freeze" begin="10.end" /></path><path d="M77.43,14.18c0.82,1.08,1.18,2.12,0.86,4.69c-2.38,18.97-8.79,58.39-25.9,74.79" stroke-dasharray="85.31" stroke-dashoffset="85.31"><animate attributeName="stroke-dashoffset" values="85.31" fill="freeze" begin="52e6.click" /><animate id="12" attributeName="stroke-dashoffset" values="85.31;0" dur="0.64s" fill="freeze" begin="11.end" /></path></g></g></g></svg>