<svg xmlns="http://www.w3.org/2000/svg" width="109" height="109" viewBox="0 0 109 109" id="5316"><g fill="none" stroke="#666" stroke-width="9" stroke-linecap="round" stroke-linejoin="round"><g><g><path d="M37.25,20.25c0.24,1.93-0.07,4.46-0.83,6.12c-4.89,10.56-11.58,20.95-22.79,33.79" /><path d="M29.03,44.25c0.97,1.38,1.26,2.98,1.26,4.25c0,12.12,0.1,28.67-0.17,40C30.05,91.52,30,94.11,30,96" /></g><g><path d="M89.25,29.25c0,1.66-0.79,2.93-2.25,4.5c-4.62,4.98-15.38,12.5-25.5,15.98" /><path d="M56.75,15.25c1.25,1,1.75,2.65,1.75,4.21c0,3.66,0.07,36.46,0.07,54.49c0,19.3,1.18,19.87,18.93,19.87c16.25,0,17.75-1.7,17.75-11.57" /></g></g></g><g fill="none" stroke="#000" stroke-width="5" stroke-linecap="round" stroke-linejoin="round"><g><g><path d="M37.25,20.25c0.24,1.93-0.07,4.46-0.83,6.12c-4.89,10.56-11.58,20.95-22.79,33.79" stroke-dasharray="47.14" stroke-dashoffset="47.14"><animate id="0" attributeName="stroke-dashoffset" values="47.14;0" dur="0.47s" fill="freeze" begin="0s;5316.click" /></path><path d="M29.03,44.25c0.97,1.38,1.26,2.98,1.26,4.25c0,12.12,0.1,28.67-0.17,40C30.05,91.52,30,94.11,30,96" stroke-dasharray="52" stroke-dashoffset="52"><animate attributeName="stroke-dashoffset" values="52" fill="freeze" begin="5316.click" /><animate id="1" attributeName="stroke-dashoffset" values="52;0" dur="0.52s" fill="freeze" begin="0.end" /></path></g><g><path d="M89.25,29.25c0,1.66-0.79,2.93-2.25,4.5c-4.62,4.98-15.38,12.5-25.5,15.98" stroke-dasharray="35.49" stroke-dashoffset="35.49"><animate attributeName="stroke-dashoffset" values="35.49" fill="freeze" begin="5316.click" /><animate id="2" attributeName="stroke-dashoffset" values="35.49;0" dur="0.35s" fill="freeze" begin="1.end" /></path><path d="M56.75,15.25c1.25,1,1.75,2.65,1.75,4.21c0,3.66,0.07,36.46,0.07,54.49c0,19.3,1.18,19.87,18.93,19.87c16.25,0,17.75-1.7,17.75-11.57" stroke-dasharray="119.24" stroke-dashoffset="119.24"><animate attributeName="stroke-dashoffset" values="119.24" fill="freeze" begin="5316.click" /><animate id="3" attributeName="stroke-dashoffset" values="119.24;0" dur="0.9s" fill="freeze" begin="2.end" /></path></g></g></g></svg>