<svg xmlns="http://www.w3.org/2000/svg" width="109" height="109" viewBox="0 0 109 109" id="5317"><g fill="none" stroke="#666" stroke-width="9" stroke-linecap="round" stroke-linejoin="round"><g><g><path d="M13.25,48.75c2.61,0.5,3.52,0.51,6.12,0.25c3.76-0.38,14.13-3.38,17.63-3.75" /><path d="M37.25,21.5c1.19,1.19,2,3.25,2,4.75c0,1,0.25,48,0.25,50.75" /><path d="M12.75,88.75c1.88,1.12,4.29,0.87,6.5-0.25C32.5,81.75,36.5,80,43.5,76.25" /></g><g><path d="M90.25,33c-0.25,1.75-1.13,3.26-2.19,4.07C82.12,41.62,73.75,46.5,65,49.75" /><path d="M60.37,19.5c1.38,1.5,1.91,3.25,1.91,5.3c0,1.12-0.28,33.71-0.28,47.7c0,14,2,15.75,17.25,15.75c15.5,0,16.5-1.5,16.5-12.49" /></g></g></g><g fill="none" stroke="#000" stroke-width="5" stroke-linecap="round" stroke-linejoin="round"><g><g><path d="M13.25,48.75c2.61,0.5,3.52,0.51,6.12,0.25c3.76-0.38,14.13-3.38,17.63-3.75" stroke-dasharray="24.19" stroke-dashoffset="24.19"><animate id="0" attributeName="stroke-dashoffset" values="24.19;0" dur="0.24s" fill="freeze" begin="0s;5317.click" /></path><path d="M37.25,21.5c1.19,1.19,2,3.25,2,4.75c0,1,0.25,48,0.25,50.75" stroke-dasharray="56.02" stroke-dashoffset="56.02"><animate attributeName="stroke-dashoffset" values="56.02" fill="freeze" begin="5317.click" /><animate id="1" attributeName="stroke-dashoffset" values="56.02;0" dur="0.56s" fill="freeze" begin="0.end" /></path><path d="M12.75,88.75c1.88,1.12,4.29,0.87,6.5-0.25C32.5,81.75,36.5,80,43.5,76.25" stroke-dasharray="33.96" stroke-dashoffset="33.96"><animate attributeName="stroke-dashoffset" values="33.96" fill="freeze" begin="5317.click" /><animate id="2" attributeName="stroke-dashoffset" values="33.96;0" dur="0.34s" fill="freeze" begin="1.end" /></path></g><g><path d="M90.25,33c-0.25,1.75-1.13,3.26-2.19,4.07C82.12,41.62,73.75,46.5,65,49.75" stroke-dasharray="31.14" stroke-dashoffset="31.14"><animate attributeName="stroke-dashoffset" values="31.14" fill="freeze" begin="5317.click" /><animate id="3" attributeName="stroke-dashoffset" values="31.14;0" dur="0.31s" fill="freeze" begin="2.end" /></path><path d="M60.37,19.5c1.38,1.5,1.91,3.25,1.91,5.3c0,1.12-0.28,33.71-0.28,47.7c0,14,2,15.75,17.25,15.75c15.5,0,16.5-1.5,16.5-12.49" stroke-dasharray="107.57" stroke-dashoffset="107.57"><animate attributeName="stroke-dashoffset" values="107.57" fill="freeze" begin="5317.click" /><animate id="4" attributeName="stroke-dashoffset" values="107.57;0" dur="0.81s" fill="freeze" begin="3.end" /></path></g></g></g></svg>