<svg xmlns="http://www.w3.org/2000/svg" width="109" height="109" viewBox="0 0 109 109" id="5319"><g fill="none" stroke="#666" stroke-width="9" stroke-linecap="round" stroke-linejoin="round"><g><g><g><path d="M19.27,16.54c0.78,0.78,1.04,1.72,1.24,2.77c0.32,1.69,1.52,9.5,2.44,15.55c0.47,3.12,0.87,5.78,1.04,6.89" /><path d="M21.12,18.89c3.01-0.33,16.74-2.35,22.51-2.93c3.19-0.32,4.95,1.28,4.56,4.42c-0.38,3.06-1.05,8.13-1.6,12.38c-0.51,3.92-0.93,7.12-0.93,7.38" /><path d="M23.15,29.48c6.47-0.73,16.6-2.35,22.97-2.69" /><path d="M24.84,40.16c6.78-0.66,12.78-1.39,19.95-1.78" /></g><g><path d="M11.75,50.2c2.83,0.59,5.67,0.48,8.53,0.11c9.97-1.31,17.6-1.93,25.97-2.78c3.03-0.31,5.99-0.67,9-0.23" /><g><path d="M34.5,50.5c0.88,0.88,1,1.75,1,3.25c0,2.5,0,18.12,0,24.75" /><path d="M37.12,64.88c4.44-0.52,7.5-1.12,11.38-1.49c1.77-0.17,2.85-0.07,3.74,0.12" /></g><g><path d="M22.74,58.89c0.24,1.11,0.56,2.19,0.46,3.41C22.5,71,18.62,85,10.81,94.47" /><path d="M22.38,75.25c9.72,2.98,37.67,13.24,53.6,17.11C80.94,93.49,85.95,94.37,91,95" /></g></g></g><g><path d="M91.88,27.97c-0.25,1.28-0.85,2.28-1.78,3.14C86,34.88,80,40,68.62,45" /><path d="M64.53,19.28c0.97,0.97,1.09,2.12,1.09,3.6c0,1.17,0,38.88,0,42.5c0,9.96,2.79,11.66,14.96,11.66c11.67,0,12.91-1.46,13.67-11.31" /></g></g></g><g fill="none" stroke="#000" stroke-width="5" stroke-linecap="round" stroke-linejoin="round"><g><g><g><path d="M19.27,16.54c0.78,0.78,1.04,1.72,1.24,2.77c0.32,1.69,1.52,9.5,2.44,15.55c0.47,3.12,0.87,5.78,1.04,6.89" stroke-dasharray="25.795" stroke-dashoffset="25.795"><animate attributeName="stroke-dashoffset" values="25.795;25.795;0" dur="0.258s" fill="freeze" begin="0s;5319.click" /></path><path d="M21.12,18.89c3.01-0.33,16.74-2.35,22.51-2.93c3.19-0.32,4.95,1.28,4.56,4.42c-0.38,3.06-1.05,8.13-1.6,12.38c-0.51,3.92-0.93,7.12-0.93,7.38" stroke-dasharray="50.246" stroke-dashoffset="50.246"><animate attributeName="stroke-dashoffset" values="50.246" fill="freeze" begin="5319.click" /><animate attributeName="stroke-dashoffset" values="50.246;50.246;0" keyTimes="0;0.339;1" dur="0.76s" fill="freeze" begin="0s;5319.click" /></path><path d="M23.15,29.48c6.47-0.73,16.6-2.35,22.97-2.69" stroke-dasharray="23.132" stroke-dashoffset="23.132"><animate attributeName="stroke-dashoffset" values="23.132" fill="freeze" begin="5319.click" /><animate attributeName="stroke-dashoffset" values="23.132;23.132;0" keyTimes="0;0.767;1" dur="0.991s" fill="freeze" begin="0s;5319.click" /></path><path d="M24.84,40.16c6.78-0.66,12.78-1.39,19.95-1.78" stroke-dasharray="20.032" stroke-dashoffset="20.032"><animate attributeName="stroke-dashoffset" values="20.032" fill="freeze" begin="5319.click" /><animate attributeName="stroke-dashoffset" values="20.032;20.032;0" keyTimes="0;0.832;1" dur="1.191s" fill="freeze" begin="0s;5319.click" /></path></g><g><path d="M11.75,50.2c2.83,0.59,5.67,0.48,8.53,0.11c9.97-1.31,17.6-1.93,25.97-2.78c3.03-0.31,5.99-0.67,9-0.23" stroke-dasharray="43.721" stroke-dashoffset="43.721"><animate attributeName="stroke-dashoffset" values="43.721" fill="freeze" begin="5319.click" /><animate attributeName="stroke-dashoffset" values="43.721;43.721;0" keyTimes="0;0.732;1" dur="1.628s" fill="freeze" begin="0s;5319.click" /></path><g><path d="M34.5,50.5c0.88,0.88,1,1.75,1,3.25c0,2.5,0,18.12,0,24.75" stroke-dasharray="28.263" stroke-dashoffset="28.263"><animate attributeName="stroke-dashoffset" values="28.263" fill="freeze" begin="5319.click" /><animate attributeName="stroke-dashoffset" values="28.263;28.263;0" keyTimes="0;0.852;1" dur="1.911s" fill="freeze" begin="0s;5319.click" /></path><path d="M37.12,64.88c4.44-0.52,7.5-1.12,11.38-1.49c1.77-0.17,2.85-0.07,3.74,0.12" stroke-dasharray="15.236" stroke-dashoffset="15.236"><animate attributeName="stroke-dashoffset" values="15.236" fill="freeze" begin="5319.click" /><animate attributeName="stroke-dashoffset" values="15.236;15.236;0" keyTimes="0;0.926;1" dur="2.063s" fill="freeze" begin="0s;5319.click" /></path></g><g><path d="M22.74,58.89c0.24,1.11,0.56,2.19,0.46,3.41C22.5,71,18.62,85,10.81,94.47" stroke-dasharray="38.396" stroke-dashoffset="38.396"><animate attributeName="stroke-dashoffset" values="38.396" fill="freeze" begin="5319.click" /><animate attributeName="stroke-dashoffset" values="38.396;38.396;0" keyTimes="0;0.843;1" dur="2.447s" fill="freeze" begin="0s;5319.click" /></path><path d="M22.38,75.25c9.72,2.98,37.67,13.24,53.6,17.11C80.94,93.49,85.95,94.37,91,95" stroke-dasharray="71.536" stroke-dashoffset="71.536"><animate attributeName="stroke-dashoffset" values="71.536" fill="freeze" begin="5319.click" /><animate attributeName="stroke-dashoffset" values="71.536;71.536;0" keyTimes="0;0.82;1" dur="2.985s" fill="freeze" begin="0s;5319.click" /></path></g></g></g><g><path d="M91.88,27.97c-0.25,1.28-0.85,2.28-1.78,3.14C86,34.88,80,40,68.62,45" stroke-dasharray="29.385" stroke-dashoffset="29.385"><animate attributeName="stroke-dashoffset" values="29.385" fill="freeze" begin="5319.click" /><animate attributeName="stroke-dashoffset" values="29.385;29.385;0" keyTimes="0;0.91;1" dur="3.279s" fill="freeze" begin="0s;5319.click" /></path><path d="M64.53,19.28c0.97,0.97,1.09,2.12,1.09,3.6c0,1.17,0,38.88,0,42.5c0,9.96,2.79,11.66,14.96,11.66c11.67,0,12.91-1.46,13.67-11.31" stroke-dasharray="90.436" stroke-dashoffset="90.436"><animate attributeName="stroke-dashoffset" values="90.436" fill="freeze" begin="5319.click" /><animate attributeName="stroke-dashoffset" values="90.436;90.436;0" keyTimes="0;0.828;1" dur="3.959s" fill="freeze" begin="0s;5319.click" /></path></g></g></g></svg>