<svg xmlns="http://www.w3.org/2000/svg" width="109" height="109" viewBox="0 0 109 109" id="5323"><g fill="none" stroke="#666" stroke-width="9" stroke-linecap="round" stroke-linejoin="round"><g><g><path d="M15.88,16.04c1.55,0.51,4.39,0.6,5.94,0.51c16.13-0.86,42.65-4.01,60.32-4.01c2.58,0,4.13,0.25,5.42,0.5" /></g><g><g p5:partial xmlns:p5="http://kanjivg.tagaini.net"><path d="M31.2,28.84c0.33,0.55,0.88,1.75,1.04,2.43c1.65,6.91,3.35,18.81,4.21,29.07" /><path d="M33.28,30.87c12.67-1.27,32.76-3.85,41.48-4.4c3.2-0.2,5.13,0.98,5.01,3.29c-0.27,5.5-2.92,24.02-4.19,27.41" /><path d="M35.89,44.39c3.81-0.27,39.17-3.46,42.31-3.46" /><path d="M37.57,58.74c11.03-1.25,26.09-2.44,38.15-2.97" /></g><g><path d="M53.61,29.3c0.89,0.49,1.44,1.77,1.44,3.31c-0.03,7.82,0.3,49.06,0.3,51.61" /></g></g><g><path d="M19.83,16.96c0,3.8,0,70.71,0,74.27c0,3.02,1.02,4.04,2.81,3.8c16.61-2.28,48.61-4.53,61.2-4.56c3.32-0.01,6.12,0.24,8.17,0.71" /></g></g></g><g fill="none" stroke="#000" stroke-width="5" stroke-linecap="round" stroke-linejoin="round"><g><g><path d="M15.88,16.04c1.55,0.51,4.39,0.6,5.94,0.51c16.13-0.86,42.65-4.01,60.32-4.01c2.58,0,4.13,0.25,5.42,0.5" stroke-dasharray="71.907" stroke-dashoffset="71.907"><animate attributeName="stroke-dashoffset" values="71.907;71.907;0" dur="0.541s" fill="freeze" begin="0s;5323.click" /></path></g><g><g p5:partial xmlns:p5="http://kanjivg.tagaini.net"><path d="M31.2,28.84c0.33,0.55,0.88,1.75,1.04,2.43c1.65,6.91,3.35,18.81,4.21,29.07" stroke-dasharray="32.046" stroke-dashoffset="32.046"><animate attributeName="stroke-dashoffset" values="32.046" fill="freeze" begin="5323.click" /><animate attributeName="stroke-dashoffset" values="32.046;32.046;0" keyTimes="0;0.628;1" dur="0.861s" fill="freeze" begin="0s;5323.click" /></path><path d="M33.28,30.87c12.67-1.27,32.76-3.85,41.48-4.4c3.2-0.2,5.13,0.98,5.01,3.29c-0.27,5.5-2.92,24.02-4.19,27.41" stroke-dasharray="76.381" stroke-dashoffset="76.381"><animate attributeName="stroke-dashoffset" values="76.381" fill="freeze" begin="5323.click" /><animate attributeName="stroke-dashoffset" values="76.381;76.381;0" keyTimes="0;0.6;1" dur="1.435s" fill="freeze" begin="0s;5323.click" /></path><path d="M35.89,44.39c3.81-0.27,39.17-3.46,42.31-3.46" stroke-dasharray="42.454" stroke-dashoffset="42.454"><animate attributeName="stroke-dashoffset" values="42.454" fill="freeze" begin="5323.click" /><animate attributeName="stroke-dashoffset" values="42.454;42.454;0" keyTimes="0;0.772;1" dur="1.86s" fill="freeze" begin="0s;5323.click" /></path><path d="M37.57,58.74c11.03-1.25,26.09-2.44,38.15-2.97" stroke-dasharray="38.273" stroke-dashoffset="38.273"><animate attributeName="stroke-dashoffset" values="38.273" fill="freeze" begin="5323.click" /><animate attributeName="stroke-dashoffset" values="38.273;38.273;0" keyTimes="0;0.829;1" dur="2.243s" fill="freeze" begin="0s;5323.click" /></path></g><g><path d="M53.61,29.3c0.89,0.49,1.44,1.77,1.44,3.31c-0.03,7.82,0.3,49.06,0.3,51.61" stroke-dasharray="55.384" stroke-dashoffset="55.384"><animate attributeName="stroke-dashoffset" values="55.384" fill="freeze" begin="5323.click" /><animate attributeName="stroke-dashoffset" values="55.384;55.384;0" keyTimes="0;0.802;1" dur="2.797s" fill="freeze" begin="0s;5323.click" /></path></g></g><g><path d="M19.83,16.96c0,3.8,0,70.71,0,74.27c0,3.02,1.02,4.04,2.81,3.8c16.61-2.28,48.61-4.53,61.2-4.56c3.32-0.01,6.12,0.24,8.17,0.71" stroke-dasharray="149.442" stroke-dashoffset="149.442"><animate attributeName="stroke-dashoffset" values="149.442" fill="freeze" begin="5323.click" /><animate attributeName="stroke-dashoffset" values="149.442;149.442;0" keyTimes="0;0.713;1" dur="3.921s" fill="freeze" begin="0s;5323.click" /></path></g></g></g></svg>