<svg xmlns="http://www.w3.org/2000/svg" width="109" height="109" viewBox="0 0 109 109" id="5323"><g fill="none" stroke="#666" stroke-width="9" stroke-linecap="round" stroke-linejoin="round"><g><g p4:part="1" xmlns:p4="http://kanjivg.tagaini.net"><path d="M15.88,16.04c1.55,0.51,4.39,0.6,5.94,0.51c16.13-0.86,42.65-4.01,60.32-4.01c2.58,0,4.13,0.25,5.42,0.5" /></g><g><g p5:partial xmlns:p5="http://kanjivg.tagaini.net"><path d="M31.2,28.84c0.33,0.55,0.88,1.75,1.04,2.43c1.65,6.91,3.35,18.81,4.21,29.07" /><path d="M33.28,30.87c12.67-1.27,32.76-3.85,41.48-4.4c3.2-0.2,5.13,0.98,5.01,3.29c-0.27,5.5-2.92,24.02-4.19,27.41" /><path d="M35.89,44.39c3.81-0.27,39.17-3.46,42.31-3.46" /><path d="M37.57,58.74c11.03-1.25,26.09-2.44,38.15-2.97" /></g><g><path d="M53.61,29.3c0.89,0.49,1.44,1.77,1.44,3.31c-0.03,7.82,0.3,49.06,0.3,51.61" /></g></g><g p4:part="2" xmlns:p4="http://kanjivg.tagaini.net"><path d="M19.83,16.96c0,3.8,0,70.71,0,74.27c0,3.02,1.02,4.04,2.81,3.8c16.61-2.28,48.61-4.53,61.2-4.56c3.32-0.01,6.12,0.24,8.17,0.71" /></g></g></g><g fill="none" stroke="#000" stroke-width="5" stroke-linecap="round" stroke-linejoin="round"><g><g p4:part="1" xmlns:p4="http://kanjivg.tagaini.net"><path d="M15.88,16.04c1.55,0.51,4.39,0.6,5.94,0.51c16.13-0.86,42.65-4.01,60.32-4.01c2.58,0,4.13,0.25,5.42,0.5" stroke-dasharray="71.91" stroke-dashoffset="71.91"><animate id="0" attributeName="stroke-dashoffset" values="71.91;0" dur="0.54s" fill="freeze" begin="0s;5323.click" /></path></g><g><g p5:partial xmlns:p5="http://kanjivg.tagaini.net"><path d="M31.2,28.84c0.33,0.55,0.88,1.75,1.04,2.43c1.65,6.91,3.35,18.81,4.21,29.07" stroke-dasharray="32.05" stroke-dashoffset="32.05"><animate attributeName="stroke-dashoffset" values="32.05" fill="freeze" begin="5323.click" /><animate id="1" attributeName="stroke-dashoffset" values="32.05;0" dur="0.32s" fill="freeze" begin="0.end" /></path><path d="M33.28,30.87c12.67-1.27,32.76-3.85,41.48-4.4c3.2-0.2,5.13,0.98,5.01,3.29c-0.27,5.5-2.92,24.02-4.19,27.41" stroke-dasharray="76.38" stroke-dashoffset="76.38"><animate attributeName="stroke-dashoffset" values="76.38" fill="freeze" begin="5323.click" /><animate id="2" attributeName="stroke-dashoffset" values="76.38;0" dur="0.57s" fill="freeze" begin="1.end" /></path><path d="M35.89,44.39c3.81-0.27,39.17-3.46,42.31-3.46" stroke-dasharray="42.45" stroke-dashoffset="42.45"><animate attributeName="stroke-dashoffset" values="42.45" fill="freeze" begin="5323.click" /><animate id="3" attributeName="stroke-dashoffset" values="42.45;0" dur="0.42s" fill="freeze" begin="2.end" /></path><path d="M37.57,58.74c11.03-1.25,26.09-2.44,38.15-2.97" stroke-dasharray="38.27" stroke-dashoffset="38.27"><animate attributeName="stroke-dashoffset" values="38.27" fill="freeze" begin="5323.click" /><animate id="4" attributeName="stroke-dashoffset" values="38.27;0" dur="0.38s" fill="freeze" begin="3.end" /></path></g><g><path d="M53.61,29.3c0.89,0.49,1.44,1.77,1.44,3.31c-0.03,7.82,0.3,49.06,0.3,51.61" stroke-dasharray="55.38" stroke-dashoffset="55.38"><animate attributeName="stroke-dashoffset" values="55.38" fill="freeze" begin="5323.click" /><animate id="5" attributeName="stroke-dashoffset" values="55.38;0" dur="0.55s" fill="freeze" begin="4.end" /></path></g></g><g p4:part="2" xmlns:p4="http://kanjivg.tagaini.net"><path d="M19.83,16.96c0,3.8,0,70.71,0,74.27c0,3.02,1.02,4.04,2.81,3.8c16.61-2.28,48.61-4.53,61.2-4.56c3.32-0.01,6.12,0.24,8.17,0.71" stroke-dasharray="149.44" stroke-dashoffset="149.44"><animate attributeName="stroke-dashoffset" values="149.44" fill="freeze" begin="5323.click" /><animate id="6" attributeName="stroke-dashoffset" values="149.44;0" dur="1.12s" fill="freeze" begin="5.end" /></path></g></g></g></svg>