<svg xmlns="http://www.w3.org/2000/svg" width="109" height="109" viewBox="0 0 109 109" id="533b"><g fill="none" stroke="#666" stroke-width="9" stroke-linecap="round" stroke-linejoin="round"><g><g><path d="M 17.88,20.29 c 1.91,0.51 5.41,0.64 7.31,0.51 17.69,-1.18 38.69,-3.05 58.21,-3.51 3.18,-0.08 5.08,0.25 6.67,0.5" /></g><g><path d="M 48.05,26.75 c 0.04,0.48 0.07,1.24 -0.07,1.93 -0.85,4.08 -6.22,14.11 -11.57,17.82" /><g><path d="M 47.12,38.02 c 1.17,0.28 3.33,0.41 4.48,0.28 6.77,-0.8 13.54,-1.92 21.98,-3.32 1.9,-0.32 3.64,-0.32 4.61,-0.18" /><g><path d="M 32.39,56.74 c 2.47,0.48 5.17,0.4 7.67,0.17 10.06,-0.92 26.6,-2.98 38.22,-3.8 2.76,-0.19 5.72,-0.24 8.33,0.07" /><path d="M 57.92,40.43 c 0.58,1.07 0.81,2.39 0.81,3.53 C 58.75,61.25 52.25,74 36.06,81.18" /><path d="M 61.03,60.17 C 66.83499,67.883722 79.23773,77.927914 87.25,81" /></g></g></g><g><path d="M 21.83,21.46 c 0.67,1.54 1,3.26 1,5.79 0,14.77 -0.33,47 -1.5,60.48 -0.26,3 1.01,3.97 2.81,3.8 16.11,-1.53 44.49,-2.91 60.2,-2.56 3.32,0.07 6.12,0.24 8.17,0.71" /></g></g></g><g fill="none" stroke="#000" stroke-width="5" stroke-linecap="round" stroke-linejoin="round"><path d="M 17.88,20.29 c 1.91,0.51 5.41,0.64 7.31,0.51 17.69,-1.18 38.69,-3.05 58.21,-3.51 3.18,-0.08 5.08,0.25 6.67,0.5" stroke-dasharray="72.374" stroke-dashoffset="72.374"><animate attributeName="stroke-dashoffset" values="72.374;72.374;0" dur="0.544s" fill="freeze" begin="0s;533b.click" /></path><path d="M 48.05,26.75 c 0.04,0.48 0.07,1.24 -0.07,1.93 -0.85,4.08 -6.22,14.11 -11.57,17.82" stroke-dasharray="23.506" stroke-dashoffset="23.506"><animate attributeName="stroke-dashoffset" values="23.506" fill="freeze" begin="533b.click" /><animate attributeName="stroke-dashoffset" values="23.506;23.506;0" keyTimes="0;0.698;1" dur="0.779s" fill="freeze" begin="0s;533b.click" /></path><path d="M 47.12,38.02 c 1.17,0.28 3.33,0.41 4.48,0.28 6.77,-0.8 13.54,-1.92 21.98,-3.32 1.9,-0.32 3.64,-0.32 4.61,-0.18" stroke-dasharray="31.366" stroke-dashoffset="31.366"><animate attributeName="stroke-dashoffset" values="31.366" fill="freeze" begin="533b.click" /><animate attributeName="stroke-dashoffset" values="31.366;31.366;0" keyTimes="0;0.713;1" dur="1.093s" fill="freeze" begin="0s;533b.click" /></path><path d="M 32.39,56.74 c 2.47,0.48 5.17,0.4 7.67,0.17 10.06,-0.92 26.6,-2.98 38.22,-3.8 2.76,-0.19 5.72,-0.24 8.33,0.07" stroke-dasharray="54.45" stroke-dashoffset="54.45"><animate attributeName="stroke-dashoffset" values="54.45" fill="freeze" begin="533b.click" /><animate attributeName="stroke-dashoffset" values="54.45;54.45;0" keyTimes="0;0.667;1" dur="1.638s" fill="freeze" begin="0s;533b.click" /></path><path d="M 57.92,40.43 c 0.58,1.07 0.81,2.39 0.81,3.53 C 58.75,61.25 52.25,74 36.06,81.18" stroke-dasharray="50.198" stroke-dashoffset="50.198"><animate attributeName="stroke-dashoffset" values="50.198" fill="freeze" begin="533b.click" /><animate attributeName="stroke-dashoffset" values="50.198;50.198;0" keyTimes="0;0.765;1" dur="2.14s" fill="freeze" begin="0s;533b.click" /></path><path d="M 61.03,60.17 C 66.83499,67.883722 79.23773,77.927914 87.25,81" stroke-dasharray="33.796" stroke-dashoffset="33.796"><animate attributeName="stroke-dashoffset" values="33.796" fill="freeze" begin="533b.click" /><animate attributeName="stroke-dashoffset" values="33.796;33.796;0" keyTimes="0;0.864;1" dur="2.478s" fill="freeze" begin="0s;533b.click" /></path><path d="M 21.83,21.46 c 0.67,1.54 1,3.26 1,5.79 0,14.77 -0.33,47 -1.5,60.48 -0.26,3 1.01,3.97 2.81,3.8 16.11,-1.53 44.49,-2.91 60.2,-2.56 3.32,0.07 6.12,0.24 8.17,0.71" stroke-dasharray="140.541" stroke-dashoffset="140.541"><animate attributeName="stroke-dashoffset" values="140.541" fill="freeze" begin="533b.click" /><animate attributeName="stroke-dashoffset" values="140.541;140.541;0" keyTimes="0;0.701;1" dur="3.535s" fill="freeze" begin="0s;533b.click" /></path></g></svg>