<svg xmlns="http://www.w3.org/2000/svg" width="109" height="109" viewBox="0 0 109 109" id="5341"><g fill="none" stroke="#666" stroke-width="9" stroke-linecap="round" stroke-linejoin="round"><g><path d="M11.88,50.98c3.18,0.89,6.62,0.61,9.87,0.35c19.92-1.58,45.23-4.76,63.38-5.82c3.85-0.23,7.23-0.07,11,0.56" /><path d="M52.22,11.63c1.4,1.4,2.2,3.96,2.2,6.26c0,1.13-0.03,51.22-0.19,73.41c-0.03,3.96-0.06,6.83-0.08,8.08" /></g></g><g fill="none" stroke="#000" stroke-width="5" stroke-linecap="round" stroke-linejoin="round"><path d="M11.88,50.98c3.18,0.89,6.62,0.61,9.87,0.35c19.92-1.58,45.23-4.76,63.38-5.82c3.85-0.23,7.23-0.07,11,0.56" stroke-dasharray="84.621" stroke-dashoffset="84.621"><animate attributeName="stroke-dashoffset" values="84.621;84.621;0" dur="0.636s" fill="freeze" begin="0s;5341.click" /></path><path d="M52.22,11.63c1.4,1.4,2.2,3.96,2.2,6.26c0,1.13-0.03,51.22-0.19,73.41c-0.03,3.96-0.06,6.83-0.08,8.08" stroke-dasharray="88.28" stroke-dashoffset="88.28"><animate attributeName="stroke-dashoffset" values="88.28" fill="freeze" begin="5341.click" /><animate attributeName="stroke-dashoffset" values="88.28;88.28;0" keyTimes="0;0.489;1" dur="1.3s" fill="freeze" begin="0s;5341.click" /></path></g></svg>