<svg xmlns="http://www.w3.org/2000/svg" width="109" height="109" viewBox="0 0 109 109" id="5343"><g fill="none" stroke="#666" stroke-width="9" stroke-linecap="round" stroke-linejoin="round"><g><g><path d="M70.38,10.17c-0.13,1.58-0.83,2.64-2.17,3.67c-5.71,4.41-21.46,11.91-41.57,16.82" /></g><g><path d="M12.13,50.83c3.36,0.94,7.21,0.75,10.63,0.49c17.76-1.34,37.63-4.16,66.24-4.94c3.08-0.08,6.08-0.14,9.13,0.38" /><path d="M54.56,25.25c1.03,1.03,2.01,3,2.01,5.18c0,0.9-0.07,46.38-0.19,63.58c-0.02,2.93-0.04,5.04-0.06,5.99" /></g></g></g><g fill="none" stroke="#000" stroke-width="5" stroke-linecap="round" stroke-linejoin="round"><path d="M70.38,10.17c-0.13,1.58-0.83,2.64-2.17,3.67c-5.71,4.41-21.46,11.91-41.57,16.82" stroke-dasharray="49.484" stroke-dashoffset="49.484"><animate attributeName="stroke-dashoffset" values="49.484;49.484;0" dur="0.495s" fill="freeze" begin="0s;5343.click" /></path><path d="M12.13,50.83c3.36,0.94,7.21,0.75,10.63,0.49c17.76-1.34,37.63-4.16,66.24-4.94c3.08-0.08,6.08-0.14,9.13,0.38" stroke-dasharray="86.289" stroke-dashoffset="86.289"><animate attributeName="stroke-dashoffset" values="86.289" fill="freeze" begin="5343.click" /><animate attributeName="stroke-dashoffset" values="86.289;86.289;0" keyTimes="0;0.433;1" dur="1.144s" fill="freeze" begin="0s;5343.click" /></path><path d="M54.56,25.25c1.03,1.03,2.01,3,2.01,5.18c0,0.9-0.07,46.38-0.19,63.58c-0.02,2.93-0.04,5.04-0.06,5.99" stroke-dasharray="75.259" stroke-dashoffset="75.259"><animate attributeName="stroke-dashoffset" values="75.259" fill="freeze" begin="5343.click" /><animate attributeName="stroke-dashoffset" values="75.259;75.259;0" keyTimes="0;0.669;1" dur="1.71s" fill="freeze" begin="0s;5343.click" /></path></g></svg>