<svg xmlns="http://www.w3.org/2000/svg" width="109" height="109" viewBox="0 0 109 109" id="5358"><g fill="none" stroke="#666" stroke-width="6" stroke-linecap="round" stroke-linejoin="round"><g><g><g><path d="M27.62,14.5C31.86,18.35,36.4,25.08,37,27" /></g><path d="M49.5,11.5c1.78,2.24,6.04,8.11,6.75,11.75" /><path d="M78.25,11.38c0.31,1.17,0.04,2.02-0.72,3.29c-1.6,2.64-5.07,6.81-8.27,9.84" /></g><g><g p5:partial xmlns:p5="http://kanjivg.tagaini.net"><path d="M27.84,34.42c0.74,0.74,1.62,1.83,1.81,2.99c1.11,7.07,2.33,14.25,3.58,22.59c0.27,1.79,0.54,3.63,0.81,5.53" /><path d="M30,35.64c12.75-1.67,34.38-3.91,44.27-4.89c4.19-0.41,7.11,1.25,6.41,5.01c-1.16,6.21-2.86,13.91-4.67,20.03c-0.48,1.63-0.97,3.14-1.46,4.48" /><path d="M32.57,48.36c8.93-1.23,39.31-4.11,45.02-4.19" /><path d="M34.66,61.04C46.38,60,61,58.62,74.38,57.71" /></g><g><path d="M12.25,76.95c2.54,0.54,7.24,0.78,9.76,0.54c19.5-1.87,43.7-3.62,66.71-4.48c4.23-0.16,6.79,0.26,8.91,0.53" /></g><g><g><path d="M52.99,35.86c0.89,0.89,1.59,2.19,1.6,3.48c0.04,5.51-0.01,38.66-0.03,53.79c0,2.88,0,5.11,0,6.39" /></g></g></g></g></g><g fill="none" stroke="#000" stroke-width="3" stroke-linecap="round" stroke-linejoin="round"><path d="M27.62,14.5C31.86,18.35,36.4,25.08,37,27" stroke-dasharray="15.718" stroke-dashoffset="15.718"><animate attributeName="stroke-dashoffset" values="15.718;15.718;0" dur="0.157s" fill="freeze" begin="0s;5358.click" /></path><path d="M49.5,11.5c1.78,2.24,6.04,8.11,6.75,11.75" stroke-dasharray="13.643" stroke-dashoffset="13.643"><animate attributeName="stroke-dashoffset" values="13.643" fill="freeze" begin="5358.click" /><animate attributeName="stroke-dashoffset" values="13.643;13.643;0" keyTimes="0;0.536;1" dur="0.293s" fill="freeze" begin="0s;5358.click" /></path><path d="M78.25,11.38c0.31,1.17,0.04,2.02-0.72,3.29c-1.6,2.64-5.07,6.81-8.27,9.84" stroke-dasharray="16.364" stroke-dashoffset="16.364"><animate attributeName="stroke-dashoffset" values="16.364" fill="freeze" begin="5358.click" /><animate attributeName="stroke-dashoffset" values="16.364;16.364;0" keyTimes="0;0.641;1" dur="0.457s" fill="freeze" begin="0s;5358.click" /></path><path d="M27.84,34.42c0.74,0.74,1.62,1.83,1.81,2.99c1.11,7.07,2.33,14.25,3.58,22.59c0.27,1.79,0.54,3.63,0.81,5.53" stroke-dasharray="32.011" stroke-dashoffset="32.011"><animate attributeName="stroke-dashoffset" values="32.011" fill="freeze" begin="5358.click" /><animate attributeName="stroke-dashoffset" values="32.011;32.011;0" keyTimes="0;0.588;1" dur="0.777s" fill="freeze" begin="0s;5358.click" /></path><path d="M30,35.64c12.75-1.67,34.38-3.91,44.27-4.89c4.19-0.41,7.11,1.25,6.41,5.01c-1.16,6.21-2.86,13.91-4.67,20.03c-0.48,1.63-0.97,3.14-1.46,4.48" stroke-dasharray="79.619" stroke-dashoffset="79.619"><animate attributeName="stroke-dashoffset" values="79.619" fill="freeze" begin="5358.click" /><animate attributeName="stroke-dashoffset" values="79.619;79.619;0" keyTimes="0;0.565;1" dur="1.376s" fill="freeze" begin="0s;5358.click" /></path><path d="M32.57,48.36c8.93-1.23,39.31-4.11,45.02-4.19" stroke-dasharray="45.224" stroke-dashoffset="45.224"><animate attributeName="stroke-dashoffset" values="45.224" fill="freeze" begin="5358.click" /><animate attributeName="stroke-dashoffset" values="45.224;45.224;0" keyTimes="0;0.753;1" dur="1.828s" fill="freeze" begin="0s;5358.click" /></path><path d="M34.66,61.04C46.38,60,61,58.62,74.38,57.71" stroke-dasharray="39.861" stroke-dashoffset="39.861"><animate attributeName="stroke-dashoffset" values="39.861" fill="freeze" begin="5358.click" /><animate attributeName="stroke-dashoffset" values="39.861;39.861;0" keyTimes="0;0.821;1" dur="2.227s" fill="freeze" begin="0s;5358.click" /></path><path d="M12.25,76.95c2.54,0.54,7.24,0.78,9.76,0.54c19.5-1.87,43.7-3.62,66.71-4.48c4.23-0.16,6.79,0.26,8.91,0.53" stroke-dasharray="85.61" stroke-dashoffset="85.61"><animate attributeName="stroke-dashoffset" values="85.61" fill="freeze" begin="5358.click" /><animate attributeName="stroke-dashoffset" values="85.61;85.61;0" keyTimes="0;0.776;1" dur="2.871s" fill="freeze" begin="0s;5358.click" /></path><path d="M52.99,35.86c0.89,0.89,1.59,2.19,1.6,3.48c0.04,5.51-0.01,38.66-0.03,53.79c0,2.88,0,5.11,0,6.39" stroke-dasharray="64.104" stroke-dashoffset="64.104"><animate attributeName="stroke-dashoffset" values="64.104" fill="freeze" begin="5358.click" /><animate attributeName="stroke-dashoffset" values="64.104;64.104;0" keyTimes="0;0.856;1" dur="3.353s" fill="freeze" begin="0s;5358.click" /></path></g></svg>