<svg xmlns="http://www.w3.org/2000/svg" width="109" height="109" viewBox="0 0 109 109" id="5360"><g fill="none" stroke="#666" stroke-width="9" stroke-linecap="round" stroke-linejoin="round"><g><g><path d="M53.06,13.88c1.34,1.34,1.76,2.74,1.76,4.5c0,0.91,0,34.24,0,41.75" /><path d="M56.25,34.75C65.25,34,74.5,32,75.75,32s3.5,0,4.5,0.25" /></g><g><path d="M28.88,62.25c1.21,1.11,1.82,2.2,2.16,3.82c1.84,8.68,2.71,14.43,4.22,22.88c0.34,1.92,0.57,3.77,0.82,5.46" /><path d="M31.37,63.88c13.12-1.77,33.75-3.62,45.75-4.41c3.34-0.22,5.66,1.66,4.87,5.16c-1.51,6.62-3.57,13.72-5.58,22.07" /><path d="M37.13,90.81c6.62-0.7,22.77-1.73,34.38-2.66c2.84-0.23,5.4-0.44,7.46-0.61" /></g></g></g><g fill="none" stroke="#000" stroke-width="5" stroke-linecap="round" stroke-linejoin="round"><g><g><path d="M53.06,13.88c1.34,1.34,1.76,2.74,1.76,4.5c0,0.91,0,34.24,0,41.75" stroke-dasharray="46.73" stroke-dashoffset="46.73"><animate id="0" attributeName="stroke-dashoffset" values="46.73;0" dur="0.47s" fill="freeze" begin="0s;5360.click" /></path><path d="M56.25,34.75C65.25,34,74.5,32,75.75,32s3.5,0,4.5,0.25" stroke-dasharray="24.21" stroke-dashoffset="24.21"><animate attributeName="stroke-dashoffset" values="24.21" fill="freeze" begin="5360.click" /><animate id="1" attributeName="stroke-dashoffset" values="24.21;0" dur="0.24s" fill="freeze" begin="0.end" /></path></g><g><path d="M28.88,62.25c1.21,1.11,1.82,2.2,2.16,3.82c1.84,8.68,2.71,14.43,4.22,22.88c0.34,1.92,0.57,3.77,0.82,5.46" stroke-dasharray="33.26" stroke-dashoffset="33.26"><animate attributeName="stroke-dashoffset" values="33.26" fill="freeze" begin="5360.click" /><animate id="2" attributeName="stroke-dashoffset" values="33.26;0" dur="0.33s" fill="freeze" begin="1.end" /></path><path d="M31.37,63.88c13.12-1.77,33.75-3.62,45.75-4.41c3.34-0.22,5.66,1.66,4.87,5.16c-1.51,6.62-3.57,13.72-5.58,22.07" stroke-dasharray="77.28" stroke-dashoffset="77.28"><animate attributeName="stroke-dashoffset" values="77.28" fill="freeze" begin="5360.click" /><animate id="3" attributeName="stroke-dashoffset" values="77.28;0" dur="0.58s" fill="freeze" begin="2.end" /></path><path d="M37.13,90.81c6.62-0.7,22.77-1.73,34.38-2.66c2.84-0.23,5.4-0.44,7.46-0.61" stroke-dasharray="41.97" stroke-dashoffset="41.97"><animate attributeName="stroke-dashoffset" values="41.97" fill="freeze" begin="5360.click" /><animate id="4" attributeName="stroke-dashoffset" values="41.97;0" dur="0.42s" fill="freeze" begin="3.end" /></path></g></g></g></svg>