<svg xmlns="http://www.w3.org/2000/svg" width="109" height="109" viewBox="0 0 109 109" id="5373"><g fill="none" stroke="#666" stroke-width="9" stroke-linecap="round" stroke-linejoin="round"><g><g p4:partial xmlns:p4="http://kanjivg.tagaini.net"><path d="M16.01,17.26c1.49,0.87,2.82,1.2,5.29,0.87c5.54-0.74,15.21-1.97,19.6-2.5c2.89-0.35,4.54,0.87,4.54,3.25c0,5.11-0.63,15.26-1.35,22.65c-0.15,1.5-0.29,2.9-0.42,4.13" /><path d="M18.7,31.98c5.43-0.58,19.95-2.13,25.17-2.59" /><path d="M18.66,46.34c8.22-1.22,16.72-2.22,23.96-2.91" /><path d="M16.51,18.01c0.93,0.93,1.21,1.87,1.21,3.54c0,1.19,0,50.53,0,53.44c0,4.02,1.58,4.31,4.53,2.27C25.2,75.21,39,66.75,44.75,64" /><path d="M39.06,55.52C42.18,58,47.37,66.06,48.8,72.5" /></g><g><g><path d="M61,23.01c1.84,1.22,3.12,0.96,5.13,0.68c7.31-1,19.18-2.61,20.75-2.73c4.19-0.32,5.88,1.22,5.45,5.43c-0.65,6.4-3.22,23.17-5.05,29.45c-3.03,10.41-8.21,0.82-8.86,0.49" /><path d="M62.37,24c0.88,0.88,1.21,2,1.21,3.75c0,0.66,0.04,53.88,0.04,60c0,2.38,0,7.75-0.01,8" /></g></g></g></g><g fill="none" stroke="#000" stroke-width="5" stroke-linecap="round" stroke-linejoin="round"><path d="M16.01,17.26c1.49,0.87,2.82,1.2,5.29,0.87c5.54-0.74,15.21-1.97,19.6-2.5c2.89-0.35,4.54,0.87,4.54,3.25c0,5.11-0.63,15.26-1.35,22.65c-0.15,1.5-0.29,2.9-0.42,4.13" stroke-dasharray="58.595" stroke-dashoffset="58.595"><animate attributeName="stroke-dashoffset" values="58.595;58.595;0" dur="0.586s" fill="freeze" begin="0s;5373.click" /></path><path d="M18.7,31.98c5.43-0.58,19.95-2.13,25.17-2.59" stroke-dasharray="25.304" stroke-dashoffset="25.304"><animate attributeName="stroke-dashoffset" values="25.304" fill="freeze" begin="5373.click" /><animate attributeName="stroke-dashoffset" values="25.304;25.304;0" keyTimes="0;0.698;1" dur="0.839s" fill="freeze" begin="0s;5373.click" /></path><path d="M18.66,46.34c8.22-1.22,16.72-2.22,23.96-2.91" stroke-dasharray="24.14" stroke-dashoffset="24.14"><animate attributeName="stroke-dashoffset" values="24.14" fill="freeze" begin="5373.click" /><animate attributeName="stroke-dashoffset" values="24.14;24.14;0" keyTimes="0;0.777;1" dur="1.08s" fill="freeze" begin="0s;5373.click" /></path><path d="M16.51,18.01c0.93,0.93,1.21,1.87,1.21,3.54c0,1.19,0,50.53,0,53.44c0,4.02,1.58,4.31,4.53,2.27C25.2,75.21,39,66.75,44.75,64" stroke-dasharray="90.902" stroke-dashoffset="90.902"><animate attributeName="stroke-dashoffset" values="90.902" fill="freeze" begin="5373.click" /><animate attributeName="stroke-dashoffset" values="90.902;90.902;0" keyTimes="0;0.613;1" dur="1.763s" fill="freeze" begin="0s;5373.click" /></path><path d="M39.06,55.52C42.18,58,47.37,66.06,48.8,72.5" stroke-dasharray="19.828" stroke-dashoffset="19.828"><animate attributeName="stroke-dashoffset" values="19.828" fill="freeze" begin="5373.click" /><animate attributeName="stroke-dashoffset" values="19.828;19.828;0" keyTimes="0;0.899;1" dur="1.961s" fill="freeze" begin="0s;5373.click" /></path><path d="M61,23.01c1.84,1.22,3.12,0.96,5.13,0.68c7.31-1,19.18-2.61,20.75-2.73c4.19-0.32,5.88,1.22,5.45,5.43c-0.65,6.4-3.22,23.17-5.05,29.45c-3.03,10.41-8.21,0.82-8.86,0.49" stroke-dasharray="78.987" stroke-dashoffset="78.987"><animate attributeName="stroke-dashoffset" values="78.987" fill="freeze" begin="5373.click" /><animate attributeName="stroke-dashoffset" values="78.987;78.987;0" keyTimes="0;0.768;1" dur="2.555s" fill="freeze" begin="0s;5373.click" /></path><path d="M62.37,24c0.88,0.88,1.21,2,1.21,3.75c0,0.66,0.04,53.88,0.04,60c0,2.38,0,7.75-0.01,8" stroke-dasharray="72.055" stroke-dashoffset="72.055"><animate attributeName="stroke-dashoffset" values="72.055" fill="freeze" begin="5373.click" /><animate attributeName="stroke-dashoffset" values="72.055;72.055;0" keyTimes="0;0.825;1" dur="3.097s" fill="freeze" begin="0s;5373.click" /></path></g></svg>