<svg xmlns="http://www.w3.org/2000/svg" viewBox="0 0 109 109" id="539f"><g fill="none" stroke="#666" stroke-width="6" stroke-linecap="round" stroke-linejoin="round"><g><g><path d="M25.02,17.86c2.57,0.56,6.76,0.54,9.31,0.31C48.75,16.88,65.5,15,79.88,14.29c4.27-0.21,6.85,0.02,9,0.3" /><path d="M27.75,18.98c0.5,1.02,0.69,2.02,0.65,3.46C27.75,43,25.5,67.5,10.75,83" /></g><g><g><path d="M60.15,18.88c0.24,0.93,0.2,1.82-0.13,2.68c-0.76,2.36-2.56,5.94-4.27,8.2" /></g><g><path d="M38.25,33.25c0.81,0.81,1.63,2.15,1.75,3c0.38,2.62,1.94,13.11,3.04,20.5c0.33,2.2,0.59,3.99,0.7,4.96" /><path d="M40.53,34.54c11.97-1.66,32.85-4.41,39.45-4.96c3.89-0.33,5.14,1.92,4.52,4.92c-0.78,3.75-1.97,11.27-4.39,19.34c-0.46,1.53-0.96,3.09-1.5,4.65" /><path d="M42.82,46.52c11.18-1.65,33.05-3.97,38.85-4.33" /><path d="M44.54,58.7c11.46-1.33,23.21-2.2,33.98-2.95" /></g></g><g><path d="M60.27,59.98c1,1,1.66,2.52,1.66,4.05c0,7.39-0.19,24.98-0.19,27.5c0,7.72-5.62,1.72-7.84-0.62" /><path d="M42.39,70.85c0.14,1.13-0.24,2.37-0.92,3.3c-2.72,3.8-7.23,9.6-17.48,16.35" /><path d="M79.75,72c4.45,2.98,11.01,12.25,12.12,16.88" /></g></g></g><g fill="none" stroke="#000" stroke-width="3" stroke-linecap="round" stroke-linejoin="round"><path d="M25.02,17.86c2.57,0.56,6.76,0.54,9.31,0.31C48.75,16.88,65.5,15,79.88,14.29c4.27-0.21,6.85,0.02,9,0.3" stroke-dasharray="64.081" stroke-dashoffset="64.081"><animate attributeName="stroke-dashoffset" values="64.081;64.081;0" dur="0.482s" fill="freeze" begin="0s;539f.click" /></path><path d="M27.75,18.98c0.5,1.02,0.69,2.02,0.65,3.46C27.75,43,25.5,67.5,10.75,83" stroke-dasharray="68.063" stroke-dashoffset="68.063"><animate attributeName="stroke-dashoffset" values="68.063" fill="freeze" begin="539f.click" /><animate attributeName="stroke-dashoffset" values="68.063;68.063;0" keyTimes="0;0.485;1" dur="0.994s" fill="freeze" begin="0s;539f.click" /></path><path d="M60.15,18.88c0.24,0.93,0.2,1.82-0.13,2.68c-0.76,2.36-2.56,5.94-4.27,8.2" stroke-dasharray="12.009" stroke-dashoffset="12.009"><animate attributeName="stroke-dashoffset" values="12.009" fill="freeze" begin="539f.click" /><animate attributeName="stroke-dashoffset" values="12.009;12.009;0" keyTimes="0;0.892;1" dur="1.114s" fill="freeze" begin="0s;539f.click" /></path><path d="M38.25,33.25c0.81,0.81,1.63,2.15,1.75,3c0.38,2.62,1.94,13.11,3.04,20.5c0.33,2.2,0.59,3.99,0.7,4.96" stroke-dasharray="29.252" stroke-dashoffset="29.252"><animate attributeName="stroke-dashoffset" values="29.252" fill="freeze" begin="539f.click" /><animate attributeName="stroke-dashoffset" values="29.252;29.252;0" keyTimes="0;0.792;1" dur="1.407s" fill="freeze" begin="0s;539f.click" /></path><path d="M40.53,34.54c11.97-1.66,32.85-4.41,39.45-4.96c3.89-0.33,5.14,1.92,4.52,4.92c-0.78,3.75-1.97,11.27-4.39,19.34c-0.46,1.53-0.96,3.09-1.5,4.65" stroke-dasharray="72.672" stroke-dashoffset="72.672"><animate attributeName="stroke-dashoffset" values="72.672" fill="freeze" begin="539f.click" /><animate attributeName="stroke-dashoffset" values="72.672;72.672;0" keyTimes="0;0.72;1" dur="1.953s" fill="freeze" begin="0s;539f.click" /></path><path d="M42.82,46.52c11.18-1.65,33.05-3.97,38.85-4.33" stroke-dasharray="39.097" stroke-dashoffset="39.097"><animate attributeName="stroke-dashoffset" values="39.097" fill="freeze" begin="539f.click" /><animate attributeName="stroke-dashoffset" values="39.097;39.097;0" keyTimes="0;0.833;1" dur="2.344s" fill="freeze" begin="0s;539f.click" /></path><path d="M44.54,58.7c11.46-1.33,23.21-2.2,33.98-2.95" stroke-dasharray="34.112" stroke-dashoffset="34.112"><animate attributeName="stroke-dashoffset" values="34.112" fill="freeze" begin="539f.click" /><animate attributeName="stroke-dashoffset" values="34.112;34.112;0" keyTimes="0;0.873;1" dur="2.685s" fill="freeze" begin="0s;539f.click" /></path><path d="M60.27,59.98c1,1,1.66,2.52,1.66,4.05c0,7.39-0.19,24.98-0.19,27.5c0,7.72-5.62,1.72-7.84-0.62" stroke-dasharray="44.296" stroke-dashoffset="44.296"><animate attributeName="stroke-dashoffset" values="44.296" fill="freeze" begin="539f.click" /><animate attributeName="stroke-dashoffset" values="44.296;44.296;0" keyTimes="0;0.858;1" dur="3.128s" fill="freeze" begin="0s;539f.click" /></path><path d="M42.39,70.85c0.14,1.13-0.24,2.37-0.92,3.3c-2.72,3.8-7.23,9.6-17.48,16.35" stroke-dasharray="27.588" stroke-dashoffset="27.588"><animate attributeName="stroke-dashoffset" values="27.588" fill="freeze" begin="539f.click" /><animate attributeName="stroke-dashoffset" values="27.588;27.588;0" keyTimes="0;0.919;1" dur="3.404s" fill="freeze" begin="0s;539f.click" /></path><path d="M79.75,72c4.45,2.98,11.01,12.25,12.12,16.88" stroke-dasharray="21.062" stroke-dashoffset="21.062"><animate attributeName="stroke-dashoffset" values="21.062" fill="freeze" begin="539f.click" /><animate attributeName="stroke-dashoffset" values="21.062;21.062;0" keyTimes="0;0.942;1" dur="3.615s" fill="freeze" begin="0s;539f.click" /></path></g></svg>