<svg xmlns="http://www.w3.org/2000/svg" width="109" height="109" viewBox="0 0 109 109" id="53b6"><g fill="none" stroke="#666" stroke-width="9" stroke-linecap="round" stroke-linejoin="round"><g><g><path d="M53.25,19.25c0.75,1.25,1.19,2.88,0.75,4.5C48.5,44,37.01,66.29,26.75,80.5C23.5,85,23.5,86,28.25,85c9.98-2.1,37.5-8,52.5-10.25" /><path d="M69.02,58.58c7.25,5.27,18.73,21.68,20.54,29.88" /></g></g></g><g fill="none" stroke="#000" stroke-width="5" stroke-linecap="round" stroke-linejoin="round"><g><g><path d="M53.25,19.25c0.75,1.25,1.19,2.88,0.75,4.5C48.5,44,37.01,66.29,26.75,80.5C23.5,85,23.5,86,28.25,85c9.98-2.1,37.5-8,52.5-10.25" stroke-dasharray="130.38" stroke-dashoffset="130.38"><animate id="0" attributeName="stroke-dashoffset" values="130.38;0" dur="0.98s" fill="freeze" begin="0s;53b6.click" /></path><path d="M69.02,58.58c7.25,5.27,18.73,21.68,20.54,29.88" stroke-dasharray="36.71" stroke-dashoffset="36.71"><animate attributeName="stroke-dashoffset" values="36.71" fill="freeze" begin="53b6.click" /><animate id="1" attributeName="stroke-dashoffset" values="36.71;0" dur="0.37s" fill="freeze" begin="0.end" /></path></g></g></g></svg>