<svg xmlns="http://www.w3.org/2000/svg" width="109" height="109" viewBox="0 0 109 109" id="53e2"><g fill="none" stroke="#666" stroke-width="9" stroke-linecap="round" stroke-linejoin="round"><g><g><path d="M47.12,11.5c1.06,1.06,1.21,2.38,1.21,3.5c0,1.02-0.08,8.5-0.08,15" /><path d="M62.12,10c1,1,1.26,2.48,1.21,3.5c-0.2,4.12-0.33,6.5-1.08,14.75" /><g><path d="M27.27,16.83c2.84,1.66,7.33,6.81,8.04,9.38" /></g><path d="M79.94,14.39c0.05,0.79-0.04,1.57-0.27,2.33c-1.54,3.15-2.42,5.78-5.01,9.99" /><path d="M15.25,32.14c4.21,0.77,8.38,0.2,12.65-0.19c14.73-1.33,38.98-2.83,55.48-3.76c4.41-0.25,8.77-0.3,13.12,0.4" /><g p5:partial xmlns:p5="http://kanjivg.tagaini.net"><path d="M41.52,34.58c2.04,1.44,5.03,4.4,5.54,6.63" /><path d="M67.44,31.89c0.05,0.56-0.04,1.1-0.27,1.62c-1.04,1.99-2.35,3.96-5.04,6.86" /><path d="M29.25,44.99c2.88,0.41,5.74,0.19,8.65-0.08c8.35-0.78,22.35-2.03,31.48-2.39c2.81-0.11,5.59-0.19,8.38,0.16" /><path d="M53.18,44.51c0.84,0.84,1.12,1.99,1.12,3.15c0,1,0.02,8.59,0.02,11.84" /><path d="M26,53.73c3.21,0.42,6.4,0.28,9.62-0.05c10.25-1.05,25.43-2.24,35.26-2.68c2.87-0.45,5.74-0.47,8.61-0.06" /></g></g><g><g><path d="M17.25,62.28c4.33,0.56,8.64,0.43,13,0.04c16-1.44,29.25-2.19,46.01-3.14c3.92-0.32,7.84-0.24,11.74,0.25" /><path d="M29.31,63.67c0.76,0.76,0.89,1.71,0.89,2.82c0,0.77-0.14,21.37-0.14,24.15" /><path d="M31.42,70.48C35,70,42,69.38,45.56,69.16" /><path d="M31.14,79.17C37.82,78.5,40.62,78,45.9,77.5" /><path d="M19.5,93.55c0.75,0.95,2.27,0.81,3.07,0.49c8.68-3.42,18.56-7.05,24.19-9.25" /><path d="M45.75,63.23c0.76,0.76,0.98,1.82,0.98,2.59c0,0.77,0.14,26.34,0.14,32.68" /></g><g><path d="M56.91,67.89c1.89,0.39,3.75,0.38,5.59-0.01c3.56-0.62,12.16-2.01,15.01-2.56c2.4-0.47,3.38,0.93,2.28,3.02C73.31,80.59,64.88,88,52.15,94.35" /><path d="M53.49,72.78c4.66,0.19,17.76,11.34,30.64,18.69c3.01,1.82,6.21,3.19,9.62,4.09" /></g></g></g></g><g fill="none" stroke="#000" stroke-width="5" stroke-linecap="round" stroke-linejoin="round"><g><g><path d="M47.12,11.5c1.06,1.06,1.21,2.38,1.21,3.5c0,1.02-0.08,8.5-0.08,15" stroke-dasharray="18.81" stroke-dashoffset="18.81"><animate id="0" attributeName="stroke-dashoffset" values="18.81;0" dur="0.19s" fill="freeze" begin="0s;53e2.click" /></path><path d="M62.12,10c1,1,1.26,2.48,1.21,3.5c-0.2,4.12-0.33,6.5-1.08,14.75" stroke-dasharray="18.6" stroke-dashoffset="18.6"><animate attributeName="stroke-dashoffset" values="18.6" fill="freeze" begin="53e2.click" /><animate id="1" attributeName="stroke-dashoffset" values="18.6;0" dur="0.19s" fill="freeze" begin="0.end" /></path><g><path d="M27.27,16.83c2.84,1.66,7.33,6.81,8.04,9.38" stroke-dasharray="12.53" stroke-dashoffset="12.53"><animate attributeName="stroke-dashoffset" values="12.53" fill="freeze" begin="53e2.click" /><animate id="2" attributeName="stroke-dashoffset" values="12.53;0" dur="0.13s" fill="freeze" begin="1.end" /></path></g><path d="M79.94,14.39c0.05,0.79-0.04,1.57-0.27,2.33c-1.54,3.15-2.42,5.78-5.01,9.99" stroke-dasharray="13.54" stroke-dashoffset="13.54"><animate attributeName="stroke-dashoffset" values="13.54" fill="freeze" begin="53e2.click" /><animate id="3" attributeName="stroke-dashoffset" values="13.54;0" dur="0.14s" fill="freeze" begin="2.end" /></path><path d="M15.25,32.14c4.21,0.77,8.38,0.2,12.65-0.19c14.73-1.33,38.98-2.83,55.48-3.76c4.41-0.25,8.77-0.3,13.12,0.4" stroke-dasharray="81.46" stroke-dashoffset="81.46"><animate attributeName="stroke-dashoffset" values="81.46" fill="freeze" begin="53e2.click" /><animate id="4" attributeName="stroke-dashoffset" values="81.46;0" dur="0.61s" fill="freeze" begin="3.end" /></path><g p5:partial xmlns:p5="http://kanjivg.tagaini.net"><path d="M41.52,34.58c2.04,1.44,5.03,4.4,5.54,6.63" stroke-dasharray="8.78" stroke-dashoffset="8.78"><animate attributeName="stroke-dashoffset" values="8.78" fill="freeze" begin="53e2.click" /><animate id="5" attributeName="stroke-dashoffset" values="8.78;0" dur="0.09s" fill="freeze" begin="4.end" /></path><path d="M67.44,31.89c0.05,0.56-0.04,1.1-0.27,1.62c-1.04,1.99-2.35,3.96-5.04,6.86" stroke-dasharray="10.2" stroke-dashoffset="10.2"><animate attributeName="stroke-dashoffset" values="10.2" fill="freeze" begin="53e2.click" /><animate id="6" attributeName="stroke-dashoffset" values="10.2;0" dur="0.1s" fill="freeze" begin="5.end" /></path><path d="M29.25,44.99c2.88,0.41,5.74,0.19,8.65-0.08c8.35-0.78,22.35-2.03,31.48-2.39c2.81-0.11,5.59-0.19,8.38,0.16" stroke-dasharray="48.64" stroke-dashoffset="48.64"><animate attributeName="stroke-dashoffset" values="48.64" fill="freeze" begin="53e2.click" /><animate id="7" attributeName="stroke-dashoffset" values="48.64;0" dur="0.49s" fill="freeze" begin="6.end" /></path><path d="M53.18,44.51c0.84,0.84,1.12,1.99,1.12,3.15c0,1,0.02,8.59,0.02,11.84" stroke-dasharray="15.27" stroke-dashoffset="15.27"><animate attributeName="stroke-dashoffset" values="15.27" fill="freeze" begin="53e2.click" /><animate id="8" attributeName="stroke-dashoffset" values="15.27;0" dur="0.15s" fill="freeze" begin="7.end" /></path><path d="M26,53.73c3.21,0.42,6.4,0.28,9.62-0.05c10.25-1.05,25.43-2.24,35.26-2.68c2.87-0.45,5.74-0.47,8.61-0.06" stroke-dasharray="53.65" stroke-dashoffset="53.65"><animate attributeName="stroke-dashoffset" values="53.65" fill="freeze" begin="53e2.click" /><animate id="9" attributeName="stroke-dashoffset" values="53.65;0" dur="0.54s" fill="freeze" begin="8.end" /></path></g></g><g><g><path d="M17.25,62.28c4.33,0.56,8.64,0.43,13,0.04c16-1.44,29.25-2.19,46.01-3.14c3.92-0.32,7.84-0.24,11.74,0.25" stroke-dasharray="70.91" stroke-dashoffset="70.91"><animate attributeName="stroke-dashoffset" values="70.91" fill="freeze" begin="53e2.click" /><animate id="10" attributeName="stroke-dashoffset" values="70.91;0" dur="0.53s" fill="freeze" begin="9.end" /></path><path d="M29.31,63.67c0.76,0.76,0.89,1.71,0.89,2.82c0,0.77-0.14,21.37-0.14,24.15" stroke-dasharray="27.19" stroke-dashoffset="27.19"><animate attributeName="stroke-dashoffset" values="27.19" fill="freeze" begin="53e2.click" /><animate id="11" attributeName="stroke-dashoffset" values="27.19;0" dur="0.27s" fill="freeze" begin="10.end" /></path><path d="M31.42,70.48C35,70,42,69.38,45.56,69.16" stroke-dasharray="14.2" stroke-dashoffset="14.2"><animate attributeName="stroke-dashoffset" values="14.2" fill="freeze" begin="53e2.click" /><animate id="12" attributeName="stroke-dashoffset" values="14.2;0" dur="0.14s" fill="freeze" begin="11.end" /></path><path d="M31.14,79.17C37.82,78.5,40.62,78,45.9,77.5" stroke-dasharray="14.85" stroke-dashoffset="14.85"><animate attributeName="stroke-dashoffset" values="14.85" fill="freeze" begin="53e2.click" /><animate id="13" attributeName="stroke-dashoffset" values="14.85;0" dur="0.15s" fill="freeze" begin="12.end" /></path><path d="M19.5,93.55c0.75,0.95,2.27,0.81,3.07,0.49c8.68-3.42,18.56-7.05,24.19-9.25" stroke-dasharray="29.21" stroke-dashoffset="29.21"><animate attributeName="stroke-dashoffset" values="29.21" fill="freeze" begin="53e2.click" /><animate id="14" attributeName="stroke-dashoffset" values="29.21;0" dur="0.29s" fill="freeze" begin="13.end" /></path><path d="M45.75,63.23c0.76,0.76,0.98,1.82,0.98,2.59c0,0.77,0.14,26.34,0.14,32.68" stroke-dasharray="35.52" stroke-dashoffset="35.52"><animate attributeName="stroke-dashoffset" values="35.52" fill="freeze" begin="53e2.click" /><animate id="15" attributeName="stroke-dashoffset" values="35.52;0" dur="0.36s" fill="freeze" begin="14.end" /></path></g><g><path d="M56.91,67.89c1.89,0.39,3.75,0.38,5.59-0.01c3.56-0.62,12.16-2.01,15.01-2.56c2.4-0.47,3.38,0.93,2.28,3.02C73.31,80.59,64.88,88,52.15,94.35" stroke-dasharray="64.77" stroke-dashoffset="64.77"><animate attributeName="stroke-dashoffset" values="64.77" fill="freeze" begin="53e2.click" /><animate id="16" attributeName="stroke-dashoffset" values="64.77;0" dur="0.49s" fill="freeze" begin="15.end" /></path><path d="M53.49,72.78c4.66,0.19,17.76,11.34,30.64,18.69c3.01,1.82,6.21,3.19,9.62,4.09" stroke-dasharray="46.52" stroke-dashoffset="46.52"><animate attributeName="stroke-dashoffset" values="46.52" fill="freeze" begin="53e2.click" /><animate id="17" attributeName="stroke-dashoffset" values="46.52;0" dur="0.47s" fill="freeze" begin="16.end" /></path></g></g></g></g></svg>