<svg xmlns="http://www.w3.org/2000/svg" width="109" height="109" viewBox="0 0 109 109" id="53ec"><g fill="none" stroke="#666" stroke-width="9" stroke-linecap="round" stroke-linejoin="round"><g><g p4:phon="刀" xmlns:p4="http://kanjivg.tagaini.net"><path d="M29.54,19.67c2.65,1.34,6.17,0.71,8.95,0.44c12.65-1.2,31.96-3.5,38.25-3.9c4.48-0.28,6,2.03,5.25,6.03c-1.2,6.38-6.25,19.5-13.69,28.24c-6.02,7.08-9.46-0.74-10.45-1.72" /><path d="M52.21,21.89c0.08,0.81,0.26,2.12-0.17,3.26C47.62,37,39.88,47.88,23.17,57.85" /></g><g><path d="M27.89,64.17c0.97,0.75,1.52,1.99,1.65,3.2c1.18,4.73,2.17,14.58,2.98,22.13c0.24,2.27,0.48,4.34,0.72,6" /><path d="M30.87,66.47c12.38-1.34,33.18-2.86,42.09-3.44c2.95-0.19,7.04,0.72,5.53,5.27c-1.67,5.05-3.79,13.8-5.6,20.94" /><path d="M33.96,91.89c7.49-0.26,23.55-0.85,35.99-1.25c2.03-0.06,3.99-0.12,5.81-0.17" /></g></g></g><g fill="none" stroke="#000" stroke-width="5" stroke-linecap="round" stroke-linejoin="round"><g><g p4:phon="刀" xmlns:p4="http://kanjivg.tagaini.net"><path d="M29.54,19.67c2.65,1.34,6.17,0.71,8.95,0.44c12.65-1.2,31.96-3.5,38.25-3.9c4.48-0.28,6,2.03,5.25,6.03c-1.2,6.38-6.25,19.5-13.69,28.24c-6.02,7.08-9.46-0.74-10.45-1.72" stroke-dasharray="102.42" stroke-dashoffset="102.42"><animate id="0" attributeName="stroke-dashoffset" values="102.42;0" dur="0.77s" fill="freeze" begin="0s;53ec.click" /></path><path d="M52.21,21.89c0.08,0.81,0.26,2.12-0.17,3.26C47.62,37,39.88,47.88,23.17,57.85" stroke-dasharray="47.84" stroke-dashoffset="47.84"><animate attributeName="stroke-dashoffset" values="47.84" fill="freeze" begin="53ec.click" /><animate id="1" attributeName="stroke-dashoffset" values="47.84;0" dur="0.48s" fill="freeze" begin="0.end" /></path></g><g><path d="M27.89,64.17c0.97,0.75,1.52,1.99,1.65,3.2c1.18,4.73,2.17,14.58,2.98,22.13c0.24,2.27,0.48,4.34,0.72,6" stroke-dasharray="32.08" stroke-dashoffset="32.08"><animate attributeName="stroke-dashoffset" values="32.08" fill="freeze" begin="53ec.click" /><animate id="2" attributeName="stroke-dashoffset" values="32.08;0" dur="0.32s" fill="freeze" begin="1.end" /></path><path d="M30.87,66.47c12.38-1.34,33.18-2.86,42.09-3.44c2.95-0.19,7.04,0.72,5.53,5.27c-1.67,5.05-3.79,13.8-5.6,20.94" stroke-dasharray="73.45" stroke-dashoffset="73.45"><animate attributeName="stroke-dashoffset" values="73.45" fill="freeze" begin="53ec.click" /><animate id="3" attributeName="stroke-dashoffset" values="73.45;0" dur="0.55s" fill="freeze" begin="2.end" /></path><path d="M33.96,91.89c7.49-0.26,23.55-0.85,35.99-1.25c2.03-0.06,3.99-0.12,5.81-0.17" stroke-dasharray="41.82" stroke-dashoffset="41.82"><animate attributeName="stroke-dashoffset" values="41.82" fill="freeze" begin="53ec.click" /><animate id="4" attributeName="stroke-dashoffset" values="41.82;0" dur="0.42s" fill="freeze" begin="3.end" /></path></g></g></g></svg>