<svg xmlns="http://www.w3.org/2000/svg" width="109" height="109" viewBox="0 0 109 109" id="53ef"><g fill="none" stroke="#666" stroke-width="9" stroke-linecap="round" stroke-linejoin="round"><g><g p4:part="1" xmlns:p4="http://kanjivg.tagaini.net"><g><path d="M13.88,21.98C18,22.75,21.74,22.34,25.39,22c13.57-1.26,43.04-4.34,58.11-5.52c3.93-0.31,7.74-0.5,11.63,0.33" /></g></g><g><path d="M25,42.14c0.87,0.87,1.5,1.99,1.79,3.21c0.74,3.14,1.96,9.62,2.94,15.63c0.28,1.74,0.55,3.45,0.77,5.02" /><path d="M27.38,44.28c7.5-1.77,16.49-3.18,21.87-4.27c3.75-0.76,5.13,1.05,4.31,4.53c-1.01,4.33-1.94,8.21-3.4,14.01" /><path d="M31.2,61.83c5.62-0.7,11.39-1.52,17.83-2.29c1.21-0.14,2.43-0.29,3.69-0.43" /></g><g p4:part="2" xmlns:p4="http://kanjivg.tagaini.net"><g><path d="M75.46,20.33c1.04,1.04,2.01,2.67,2.01,4.77c0,14.56-0.01,60.44-0.01,65.4c0,10.62-7.96,1.25-9.46,0" /></g></g></g></g><g fill="none" stroke="#000" stroke-width="5" stroke-linecap="round" stroke-linejoin="round"><g><g p4:part="1" xmlns:p4="http://kanjivg.tagaini.net"><g><path d="M13.88,21.98C18,22.75,21.74,22.34,25.39,22c13.57-1.26,43.04-4.34,58.11-5.52c3.93-0.31,7.74-0.5,11.63,0.33" stroke-dasharray="81.6" stroke-dashoffset="81.6"><animate id="0" attributeName="stroke-dashoffset" values="81.6;0" dur="0.61s" fill="freeze" begin="0s;53ef.click" /></path></g></g><g><path d="M25,42.14c0.87,0.87,1.5,1.99,1.79,3.21c0.74,3.14,1.96,9.62,2.94,15.63c0.28,1.74,0.55,3.45,0.77,5.02" stroke-dasharray="24.71" stroke-dashoffset="24.71"><animate attributeName="stroke-dashoffset" values="24.71" fill="freeze" begin="53ef.click" /><animate id="1" attributeName="stroke-dashoffset" values="24.71;0" dur="0.25s" fill="freeze" begin="0.end" /></path><path d="M27.38,44.28c7.5-1.77,16.49-3.18,21.87-4.27c3.75-0.76,5.13,1.05,4.31,4.53c-1.01,4.33-1.94,8.21-3.4,14.01" stroke-dasharray="44.84" stroke-dashoffset="44.84"><animate attributeName="stroke-dashoffset" values="44.84" fill="freeze" begin="53ef.click" /><animate id="2" attributeName="stroke-dashoffset" values="44.84;0" dur="0.45s" fill="freeze" begin="1.end" /></path><path d="M31.2,61.83c5.62-0.7,11.39-1.52,17.83-2.29c1.21-0.14,2.43-0.29,3.69-0.43" stroke-dasharray="21.69" stroke-dashoffset="21.69"><animate attributeName="stroke-dashoffset" values="21.69" fill="freeze" begin="53ef.click" /><animate id="3" attributeName="stroke-dashoffset" values="21.69;0" dur="0.22s" fill="freeze" begin="2.end" /></path></g><g p4:part="2" xmlns:p4="http://kanjivg.tagaini.net"><g><path d="M75.46,20.33c1.04,1.04,2.01,2.67,2.01,4.77c0,14.56-0.01,60.44-0.01,65.4c0,10.62-7.96,1.25-9.46,0" stroke-dasharray="85.7" stroke-dashoffset="85.7"><animate attributeName="stroke-dashoffset" values="85.7" fill="freeze" begin="53ef.click" /><animate id="4" attributeName="stroke-dashoffset" values="85.7;0" dur="0.64s" fill="freeze" begin="3.end" /></path></g></g></g></g></svg>