<svg xmlns="http://www.w3.org/2000/svg" width="109" height="109" viewBox="0 0 109 109" id="540c"><g fill="none" stroke="#666" stroke-width="9" stroke-linecap="round" stroke-linejoin="round"><g><g><path d="M21.67,16.73c1.08,1.27,1.69,3.02,1.69,5.32c0,4.15-0.19,49.87-0.25,67.2c-0.01,3.37-0.02,5.63-0.02,6.25" /><path d="M24.04,19.17c15.63-1.45,57.69-4.83,59.24-5c3.88-0.42,5.19,1.58,5.19,4.37c0,2.54-0.26,65.26-0.26,71.1c0,12.6-5.08,4.85-7.96,2.05" /></g><g><path d="M37.38,33.92c1.35,0.38,3.82,0.54,5.16,0.38c6.96-0.8,18.96-2.05,25.62-2.63c2.23-0.2,3.59,0.18,4.71,0.37" /></g><g><path d="M38.83,48.39c0.82,0.55,1.53,1.56,1.76,2.49c1.15,4.62,2.13,10.46,3.01,16.32c0.27,1.8,0.52,2.78,0.76,4.3" /><path d="M41.44,49.72c9.31-1.22,20.85-2.46,26.25-3.06c2.2-0.24,3.53,1.44,3.21,2.87c-1.09,4.92-2.33,9.95-3.83,16.33" /><path d="M45.09,69.33c5.52-0.48,12.6-1.51,20.15-2.26c1.19-0.12,2.51-0.07,3.84-0.1" /></g></g></g><g fill="none" stroke="#000" stroke-width="5" stroke-linecap="round" stroke-linejoin="round"><g><g><path d="M21.67,16.73c1.08,1.27,1.69,3.02,1.69,5.32c0,4.15-0.19,49.87-0.25,67.2c-0.01,3.37-0.02,5.63-0.02,6.25" stroke-dasharray="79.15" stroke-dashoffset="79.15"><animate id="0" attributeName="stroke-dashoffset" values="79.15;0" dur="0.6s" fill="freeze" begin="0s;540c.click" /></path><path d="M24.04,19.17c15.63-1.45,57.69-4.83,59.24-5c3.88-0.42,5.19,1.58,5.19,4.37c0,2.54-0.26,65.26-0.26,71.1c0,12.6-5.08,4.85-7.96,2.05" stroke-dasharray="154.13" stroke-dashoffset="154.13"><animate attributeName="stroke-dashoffset" values="154.13" fill="freeze" begin="540c.click" /><animate id="1" attributeName="stroke-dashoffset" values="154.13;0" dur="1.16s" fill="freeze" begin="0.end" /></path></g><g><path d="M37.38,33.92c1.35,0.38,3.82,0.54,5.16,0.38c6.96-0.8,18.96-2.05,25.62-2.63c2.23-0.2,3.59,0.18,4.71,0.37" stroke-dasharray="35.7" stroke-dashoffset="35.7"><animate attributeName="stroke-dashoffset" values="35.7" fill="freeze" begin="540c.click" /><animate id="2" attributeName="stroke-dashoffset" values="35.7;0" dur="0.36s" fill="freeze" begin="1.end" /></path></g><g><path d="M38.83,48.39c0.82,0.55,1.53,1.56,1.76,2.49c1.15,4.62,2.13,10.46,3.01,16.32c0.27,1.8,0.52,2.78,0.76,4.3" stroke-dasharray="24.08" stroke-dashoffset="24.08"><animate attributeName="stroke-dashoffset" values="24.08" fill="freeze" begin="540c.click" /><animate id="3" attributeName="stroke-dashoffset" values="24.08;0" dur="0.24s" fill="freeze" begin="2.end" /></path><path d="M41.44,49.72c9.31-1.22,20.85-2.46,26.25-3.06c2.2-0.24,3.53,1.44,3.21,2.87c-1.09,4.92-2.33,9.95-3.83,16.33" stroke-dasharray="48.23" stroke-dashoffset="48.23"><animate attributeName="stroke-dashoffset" values="48.23" fill="freeze" begin="540c.click" /><animate id="4" attributeName="stroke-dashoffset" values="48.23;0" dur="0.48s" fill="freeze" begin="3.end" /></path><path d="M45.09,69.33c5.52-0.48,12.6-1.51,20.15-2.26c1.19-0.12,2.51-0.07,3.84-0.1" stroke-dasharray="24.12" stroke-dashoffset="24.12"><animate attributeName="stroke-dashoffset" values="24.12" fill="freeze" begin="540c.click" /><animate id="5" attributeName="stroke-dashoffset" values="24.12;0" dur="0.24s" fill="freeze" begin="4.end" /></path></g></g></g></svg>