<svg xmlns="http://www.w3.org/2000/svg" width="109" height="109" viewBox="0 0 109 109" id="540d"><g fill="none" stroke="#666" stroke-width="9" stroke-linecap="round" stroke-linejoin="round"><g><g><path d="M54.2,12.64c0.3,1.61-0.07,2.99-0.69,4.24c-3.49,7.13-13.28,19.29-25.96,27.54" /><path d="M53.25,24.16c0.88,0.47,1.95,0.5,3.28,0.37c4.37-0.43,11.99-2.47,17.81-4.1c4.18-1.17,5.46,1.02,4.41,3.51C72.25,39.38,43.88,69.62,16,77.5" /><path d="M43.62,40.88c3.62,2,8,6,9.68,9.58" /></g><g><path d="M42,67.81c0.91,0.91,1.62,2.19,1.83,3.33c0.5,2.82,2.15,14.38,3.05,20.86c0.3,2.12,0.52,3.7,0.59,4.25" /><path d="M44.53,69.52c10.82-1.38,32.39-4.4,38.01-4.53c2.76-0.06,4.08,1.63,3.25,4.64c-1.13,4.06-3.52,14.04-4.64,20.36" /><path d="M47.99,93.99c7.26-0.61,19.65-1.61,29.54-2.37c2.19-0.17,4.24-0.28,6.04-0.31" /></g></g></g><g fill="none" stroke="#000" stroke-width="5" stroke-linecap="round" stroke-linejoin="round"><g><g><path d="M54.2,12.64c0.3,1.61-0.07,2.99-0.69,4.24c-3.49,7.13-13.28,19.29-25.96,27.54" stroke-dasharray="42.59" stroke-dashoffset="42.59"><animate id="0" attributeName="stroke-dashoffset" values="42.59;0" dur="0.43s" fill="freeze" begin="0s;540d.click" /></path><path d="M53.25,24.16c0.88,0.47,1.95,0.5,3.28,0.37c4.37-0.43,11.99-2.47,17.81-4.1c4.18-1.17,5.46,1.02,4.41,3.51C72.25,39.38,43.88,69.62,16,77.5" stroke-dasharray="113.79" stroke-dashoffset="113.79"><animate attributeName="stroke-dashoffset" values="113.79" fill="freeze" begin="540d.click" /><animate id="1" attributeName="stroke-dashoffset" values="113.79;0" dur="0.86s" fill="freeze" begin="0.end" /></path><path d="M43.62,40.88c3.62,2,8,6,9.68,9.58" stroke-dasharray="13.8" stroke-dashoffset="13.8"><animate attributeName="stroke-dashoffset" values="13.8" fill="freeze" begin="540d.click" /><animate id="2" attributeName="stroke-dashoffset" values="13.8;0" dur="0.14s" fill="freeze" begin="1.end" /></path></g><g><path d="M42,67.81c0.91,0.91,1.62,2.19,1.83,3.33c0.5,2.82,2.15,14.38,3.05,20.86c0.3,2.12,0.52,3.7,0.59,4.25" stroke-dasharray="29.23" stroke-dashoffset="29.23"><animate attributeName="stroke-dashoffset" values="29.23" fill="freeze" begin="540d.click" /><animate id="3" attributeName="stroke-dashoffset" values="29.23;0" dur="0.29s" fill="freeze" begin="2.end" /></path><path d="M44.53,69.52c10.82-1.38,32.39-4.4,38.01-4.53c2.76-0.06,4.08,1.63,3.25,4.64c-1.13,4.06-3.52,14.04-4.64,20.36" stroke-dasharray="66.1" stroke-dashoffset="66.1"><animate attributeName="stroke-dashoffset" values="66.1" fill="freeze" begin="540d.click" /><animate id="4" attributeName="stroke-dashoffset" values="66.1;0" dur="0.5s" fill="freeze" begin="3.end" /></path><path d="M47.99,93.99c7.26-0.61,19.65-1.61,29.54-2.37c2.19-0.17,4.24-0.28,6.04-0.31" stroke-dasharray="35.68" stroke-dashoffset="35.68"><animate attributeName="stroke-dashoffset" values="35.68" fill="freeze" begin="540d.click" /><animate id="5" attributeName="stroke-dashoffset" values="35.68;0" dur="0.36s" fill="freeze" begin="4.end" /></path></g></g></g></svg>