<svg xmlns="http://www.w3.org/2000/svg" width="109" height="109" viewBox="0 0 109 109" id="542d"><g fill="none" stroke="#666" stroke-width="9" stroke-linecap="round" stroke-linejoin="round"><g><g><path d="M10.25,32.79c0.37,0.51,0.76,0.94,0.92,1.58c1.29,5.07,3.34,19.04,4.23,28.13" /><path d="M12.58,35.22C22,33,28.62,32.16,32.99,31.49c1.6-0.24,2.56,1.44,2.33,2.87c-0.95,5.92-2.55,13.07-3.96,21.25" /><path d="M15.57,58.55c5.14-0.75,10.83-1.05,17.89-2.21" /></g><g><g><path d="M63.93,11.75c0.91,0.61,2.4,2.96,2.4,4.16c0,4.45-0.29,8.38-0.12,12.15" /><path d="M41.52,29.89c1.37,0.36,4.53,0.89,5.87,0.72c11.83-1.52,28.89-3.97,42.66-4.36c2.28-0.07,3.44,0.06,5.13,0.92" /></g><g><g><path d="M52.94,41.5c0.46,0.89,1.02,3,1.08,4.68c0.12,3.6,0.12,4.41,0.06,11.12C53.91,74.7,46,89,36.25,94" /></g><path d="M54.37,44c4.55-1,13.33-1.99,17.88-3.25c3.62-1,4.75,2.01,4.49,4.55c-0.99,9.95-0.96,31.14-0.96,36.7c0,10.5,3.46,12.03,11.79,12.03c6.92,0,10.31,0.47,10.31-9.62" /></g></g></g></g><g fill="none" stroke="#000" stroke-width="5" stroke-linecap="round" stroke-linejoin="round"><g><g><path d="M10.25,32.79c0.37,0.51,0.76,0.94,0.92,1.58c1.29,5.07,3.34,19.04,4.23,28.13" stroke-dasharray="30.3" stroke-dashoffset="30.3"><animate id="0" attributeName="stroke-dashoffset" values="30.3;0" dur="0.3s" fill="freeze" begin="0s;542d.click" /></path><path d="M12.58,35.22C22,33,28.62,32.16,32.99,31.49c1.6-0.24,2.56,1.44,2.33,2.87c-0.95,5.92-2.55,13.07-3.96,21.25" stroke-dasharray="46.67" stroke-dashoffset="46.67"><animate attributeName="stroke-dashoffset" values="46.67" fill="freeze" begin="542d.click" /><animate id="1" attributeName="stroke-dashoffset" values="46.67;0" dur="0.47s" fill="freeze" begin="0.end" /></path><path d="M15.57,58.55c5.14-0.75,10.83-1.05,17.89-2.21" stroke-dasharray="18.03" stroke-dashoffset="18.03"><animate attributeName="stroke-dashoffset" values="18.03" fill="freeze" begin="542d.click" /><animate id="2" attributeName="stroke-dashoffset" values="18.03;0" dur="0.18s" fill="freeze" begin="1.end" /></path></g><g><g><path d="M63.93,11.75c0.91,0.61,2.4,2.96,2.4,4.16c0,4.45-0.29,8.38-0.12,12.15" stroke-dasharray="17.06" stroke-dashoffset="17.06"><animate attributeName="stroke-dashoffset" values="17.06" fill="freeze" begin="542d.click" /><animate id="3" attributeName="stroke-dashoffset" values="17.06;0" dur="0.17s" fill="freeze" begin="2.end" /></path><path d="M41.52,29.89c1.37,0.36,4.53,0.89,5.87,0.72c11.83-1.52,28.89-3.97,42.66-4.36c2.28-0.07,3.44,0.06,5.13,0.92" stroke-dasharray="54.12" stroke-dashoffset="54.12"><animate attributeName="stroke-dashoffset" values="54.12" fill="freeze" begin="542d.click" /><animate id="4" attributeName="stroke-dashoffset" values="54.12;0" dur="0.54s" fill="freeze" begin="3.end" /></path></g><g><g><path d="M52.94,41.5c0.46,0.89,1.02,3,1.08,4.68c0.12,3.6,0.12,4.41,0.06,11.12C53.91,74.7,46,89,36.25,94" stroke-dasharray="58.61" stroke-dashoffset="58.61"><animate attributeName="stroke-dashoffset" values="58.61" fill="freeze" begin="542d.click" /><animate id="5" attributeName="stroke-dashoffset" values="58.61;0" dur="0.59s" fill="freeze" begin="4.end" /></path></g><path d="M54.37,44c4.55-1,13.33-1.99,17.88-3.25c3.62-1,4.75,2.01,4.49,4.55c-0.99,9.95-0.96,31.14-0.96,36.7c0,10.5,3.46,12.03,11.79,12.03c6.92,0,10.31,0.47,10.31-9.62" stroke-dasharray="100.07" stroke-dashoffset="100.07"><animate attributeName="stroke-dashoffset" values="100.07" fill="freeze" begin="542d.click" /><animate id="6" attributeName="stroke-dashoffset" values="100.07;0" dur="0.75s" fill="freeze" begin="5.end" /></path></g></g></g></g></svg>