<svg xmlns="http://www.w3.org/2000/svg" width="109" height="109" viewBox="0 0 109 109" id="5439"><g fill="none" stroke="#666" stroke-width="9" stroke-linecap="round" stroke-linejoin="round"><g><g><path d="M13,30.89c0.79,0.93,1.22,2.01,1.26,3.24c0.49,6.63,0.96,12.07,1.42,19.13c0.11,1.76,0.24,3.45,0.4,4.99" /><path d="M14.79,31.89c6.83-1.4,13.68-2.8,18.2-3.57c3.62-0.61,4.62,0.53,4.04,4.19c-0.87,5.53-1.91,12.12-3.12,20.06" /><path d="M17,55.79c4.16-0.59,8.96-1.27,14.76-2.19c1.25-0.2,2.49-0.34,3.73-0.34" /></g><g><g><path d="M58.14,15.25c0.11,1.12,0,2.18-0.33,3.34C55.62,26.38,50.75,39.25,43.17,50" /><path d="M55.52,34.74c0.95,0.36,3.24,0.38,4.69,0.11c5.91-1.1,20.04-3.52,23.39-3.79c6.89-0.56-0.48,7.44-4.64,11.44" /></g><g><path d="M57.87,48.25c0.63,1.12,0.49,2.97,0.09,4.46C54.75,64.75,48.5,82.5,29.5,93" /><path d="M57.23,59C63.62,65.69,74,78,83.42,87.07c2.73,2.63,6.08,4.93,9.33,6.43" /></g></g></g></g><g fill="none" stroke="#000" stroke-width="5" stroke-linecap="round" stroke-linejoin="round"><g><g><path d="M13,30.89c0.79,0.93,1.22,2.01,1.26,3.24c0.49,6.63,0.96,12.07,1.42,19.13c0.11,1.76,0.24,3.45,0.4,4.99" stroke-dasharray="27.73" stroke-dashoffset="27.73"><animate id="0" attributeName="stroke-dashoffset" values="27.73;0" dur="0.28s" fill="freeze" begin="0s;5439.click" /></path><path d="M14.79,31.89c6.83-1.4,13.68-2.8,18.2-3.57c3.62-0.61,4.62,0.53,4.04,4.19c-0.87,5.53-1.91,12.12-3.12,20.06" stroke-dasharray="46.46" stroke-dashoffset="46.46"><animate attributeName="stroke-dashoffset" values="46.46" fill="freeze" begin="5439.click" /><animate id="1" attributeName="stroke-dashoffset" values="46.46;0" dur="0.46s" fill="freeze" begin="0.end" /></path><path d="M17,55.79c4.16-0.59,8.96-1.27,14.76-2.19c1.25-0.2,2.49-0.34,3.73-0.34" stroke-dasharray="18.67" stroke-dashoffset="18.67"><animate attributeName="stroke-dashoffset" values="18.67" fill="freeze" begin="5439.click" /><animate id="2" attributeName="stroke-dashoffset" values="18.67;0" dur="0.19s" fill="freeze" begin="1.end" /></path></g><g><g><path d="M58.14,15.25c0.11,1.12,0,2.18-0.33,3.34C55.62,26.38,50.75,39.25,43.17,50" stroke-dasharray="38.18" stroke-dashoffset="38.18"><animate attributeName="stroke-dashoffset" values="38.18" fill="freeze" begin="5439.click" /><animate id="3" attributeName="stroke-dashoffset" values="38.18;0" dur="0.38s" fill="freeze" begin="2.end" /></path><path d="M55.52,34.74c0.95,0.36,3.24,0.38,4.69,0.11c5.91-1.1,20.04-3.52,23.39-3.79c6.89-0.56-0.48,7.44-4.64,11.44" stroke-dasharray="44.72" stroke-dashoffset="44.72"><animate attributeName="stroke-dashoffset" values="44.72" fill="freeze" begin="5439.click" /><animate id="4" attributeName="stroke-dashoffset" values="44.72;0" dur="0.45s" fill="freeze" begin="3.end" /></path></g><g><path d="M57.87,48.25c0.63,1.12,0.49,2.97,0.09,4.46C54.75,64.75,48.5,82.5,29.5,93" stroke-dasharray="55.39" stroke-dashoffset="55.39"><animate attributeName="stroke-dashoffset" values="55.39" fill="freeze" begin="5439.click" /><animate id="5" attributeName="stroke-dashoffset" values="55.39;0" dur="0.55s" fill="freeze" begin="4.end" /></path><path d="M57.23,59C63.62,65.69,74,78,83.42,87.07c2.73,2.63,6.08,4.93,9.33,6.43" stroke-dasharray="49.78" stroke-dashoffset="49.78"><animate attributeName="stroke-dashoffset" values="49.78" fill="freeze" begin="5439.click" /><animate id="6" attributeName="stroke-dashoffset" values="49.78;0" dur="0.5s" fill="freeze" begin="5.end" /></path></g></g></g></g></svg>