<svg xmlns="http://www.w3.org/2000/svg" width="109" height="109" viewBox="0 0 109 109" id="5470"><g fill="none" stroke="#666" stroke-width="9" stroke-linecap="round" stroke-linejoin="round"><g><g><g><g><path d="M34.32,13.23c1.01,0.35,1.62,1.56,1.82,2.25c0.2,0.69-0.07,27.91-0.07,35.35" /><path d="M36.65,31.49c4.5-0.52,10.82-2.06,15.24-2.58c1.1-0.13,1.38-0.17,2.06,0" /></g><path d="M17.45,27.51c1.01,0.35,1.82,2.04,1.82,2.75c0,3.81-0.74,18.49-0.74,24.11c0,1.38,0.48,2.4,2.47,1.88c6.75-1.75,18.25-5.75,30.5-10" /></g><g><path d="M88.04,16.19c0.2,0.33,0.32,1.3-0.18,1.81c-3.25,3.3-14.41,12.4-24.92,15.78" /><path d="M60.46,12.5c1.09,1.03,1.16,1.71,1.53,3.08c0.36,1.37,0.11,21.54,0.11,30.88c0,9.34,8.87,7.84,16.43,7.84c14.86,0,15.11-2.6,15.11-9.15" /></g></g><g><path d="M31,67.35c0.47,0.52,0.95,0.96,1.16,1.61c1.63,5.18,3.09,18.47,4.2,27.78" /><path d="M32.56,69.37c14.94-1.87,32.54-3.69,40.18-4.37c2.79-0.25,4.46,1.48,4.06,2.94c-1.65,6.05-3.08,13.87-5.54,22.24" /><path d="M36.42,93.7c8.96-0.77,25.32-2.1,37.63-3.28" /></g></g></g><g fill="none" stroke="#000" stroke-width="5" stroke-linecap="round" stroke-linejoin="round"><g><g><g><g><path d="M34.32,13.23c1.01,0.35,1.62,1.56,1.82,2.25c0.2,0.69-0.07,27.91-0.07,35.35" stroke-dasharray="38.35" stroke-dashoffset="38.35"><animate id="0" attributeName="stroke-dashoffset" values="38.35;0" dur="0.38s" fill="freeze" begin="0s;5470.click" /></path><path d="M36.65,31.49c4.5-0.52,10.82-2.06,15.24-2.58c1.1-0.13,1.38-0.17,2.06,0" stroke-dasharray="17.54" stroke-dashoffset="17.54"><animate attributeName="stroke-dashoffset" values="17.54" fill="freeze" begin="5470.click" /><animate id="1" attributeName="stroke-dashoffset" values="17.54;0" dur="0.18s" fill="freeze" begin="0.end" /></path></g><path d="M17.45,27.51c1.01,0.35,1.82,2.04,1.82,2.75c0,3.81-0.74,18.49-0.74,24.11c0,1.38,0.48,2.4,2.47,1.88c6.75-1.75,18.25-5.75,30.5-10" stroke-dasharray="63.52" stroke-dashoffset="63.52"><animate attributeName="stroke-dashoffset" values="63.52" fill="freeze" begin="5470.click" /><animate id="2" attributeName="stroke-dashoffset" values="63.52;0" dur="0.48s" fill="freeze" begin="1.end" /></path></g><g><path d="M88.04,16.19c0.2,0.33,0.32,1.3-0.18,1.81c-3.25,3.3-14.41,12.4-24.92,15.78" stroke-dasharray="31.63" stroke-dashoffset="31.63"><animate attributeName="stroke-dashoffset" values="31.63" fill="freeze" begin="5470.click" /><animate id="3" attributeName="stroke-dashoffset" values="31.63;0" dur="0.32s" fill="freeze" begin="2.end" /></path><path d="M60.46,12.5c1.09,1.03,1.16,1.71,1.53,3.08c0.36,1.37,0.11,21.54,0.11,30.88c0,9.34,8.87,7.84,16.43,7.84c14.86,0,15.11-2.6,15.11-9.15" stroke-dasharray="76.61" stroke-dashoffset="76.61"><animate attributeName="stroke-dashoffset" values="76.61" fill="freeze" begin="5470.click" /><animate id="4" attributeName="stroke-dashoffset" values="76.61;0" dur="0.58s" fill="freeze" begin="3.end" /></path></g></g><g><path d="M31,67.35c0.47,0.52,0.95,0.96,1.16,1.61c1.63,5.18,3.09,18.47,4.2,27.78" stroke-dasharray="30.12" stroke-dashoffset="30.12"><animate attributeName="stroke-dashoffset" values="30.12" fill="freeze" begin="5470.click" /><animate id="5" attributeName="stroke-dashoffset" values="30.12;0" dur="0.3s" fill="freeze" begin="4.end" /></path><path d="M32.56,69.37c14.94-1.87,32.54-3.69,40.18-4.37c2.79-0.25,4.46,1.48,4.06,2.94c-1.65,6.05-3.08,13.87-5.54,22.24" stroke-dasharray="69.16" stroke-dashoffset="69.16"><animate attributeName="stroke-dashoffset" values="69.16" fill="freeze" begin="5470.click" /><animate id="6" attributeName="stroke-dashoffset" values="69.16;0" dur="0.52s" fill="freeze" begin="5.end" /></path><path d="M36.42,93.7c8.96-0.77,25.32-2.1,37.63-3.28" stroke-dasharray="37.77" stroke-dashoffset="37.77"><animate attributeName="stroke-dashoffset" values="37.77" fill="freeze" begin="5470.click" /><animate id="7" attributeName="stroke-dashoffset" values="37.77;0" dur="0.38s" fill="freeze" begin="6.end" /></path></g></g></g></svg>