<svg xmlns="http://www.w3.org/2000/svg" width="109" height="109" viewBox="0 0 109 109" id="5475"><g fill="none" stroke="#666" stroke-width="9" stroke-linecap="round" stroke-linejoin="round"><g><g><path d="M9.75,34.62c0.37,0.46,0.76,0.85,0.92,1.43c1.29,4.58,3.34,17.23,4.23,25.46" /><path d="M12.08,35.82c9.42-2.01,15.55-3.22,19.92-3.83c1.6-0.22,2.56,1.3,2.33,2.6c-0.95,5.35-2.05,13.13-3.46,20.53" /><path d="M15.07,58.29c5.14-0.68,11.33-1.45,18.39-2.5" /></g><g><g p5:part="1" xmlns:p5="http://kanjivg.tagaini.net"><g><path d="M38.72,22.13c1.61,0.51,4.55,0.6,6.16,0.51C55.4,22,81.62,18.96,94.92,18.29c2.67-0.13,4.28,0.24,5.62,0.5" /></g></g><g><path d="M45.83,41.07c0.33,0.37,1.18,2.18,1.32,2.64c1.16,3.66,3.54,16.26,4.33,22.83" /><path d="M47.9,43.05c6.85-1.55,15.64-3.52,19.55-4c1.43-0.18,2.2,1.03,2.08,2.08C69,45.75,67.5,54,66.94,60.98" /><path d="M51.64,63.33c4.59-0.54,10.92-0.98,17.23-1.82" /></g><g p5:part="2" xmlns:p5="http://kanjivg.tagaini.net"><g><path d="M86.31,21.59c0.07,0.48,1.41,2.5,1.48,5.54c0.34,14.6-0.22,57.89-0.22,62.86c0,8.53-5.57,4.51-10.36,0.25" /></g></g></g></g></g><g fill="none" stroke="#000" stroke-width="5" stroke-linecap="round" stroke-linejoin="round"><g><g><path d="M9.75,34.62c0.37,0.46,0.76,0.85,0.92,1.43c1.29,4.58,3.34,17.23,4.23,25.46" stroke-dasharray="27.54" stroke-dashoffset="27.54"><animate id="0" attributeName="stroke-dashoffset" values="27.54;0" dur="0.28s" fill="freeze" begin="0s;5475.click" /></path><path d="M12.08,35.82c9.42-2.01,15.55-3.22,19.92-3.83c1.6-0.22,2.56,1.3,2.33,2.6c-0.95,5.35-2.05,13.13-3.46,20.53" stroke-dasharray="45.18" stroke-dashoffset="45.18"><animate attributeName="stroke-dashoffset" values="45.18" fill="freeze" begin="5475.click" /><animate id="1" attributeName="stroke-dashoffset" values="45.18;0" dur="0.45s" fill="freeze" begin="0.end" /></path><path d="M15.07,58.29c5.14-0.68,11.33-1.45,18.39-2.5" stroke-dasharray="18.56" stroke-dashoffset="18.56"><animate attributeName="stroke-dashoffset" values="18.56" fill="freeze" begin="5475.click" /><animate id="2" attributeName="stroke-dashoffset" values="18.56;0" dur="0.19s" fill="freeze" begin="1.end" /></path></g><g><g p5:part="1" xmlns:p5="http://kanjivg.tagaini.net"><g><path d="M38.72,22.13c1.61,0.51,4.55,0.6,6.16,0.51C55.4,22,81.62,18.96,94.92,18.29c2.67-0.13,4.28,0.24,5.62,0.5" stroke-dasharray="62.1" stroke-dashoffset="62.1"><animate attributeName="stroke-dashoffset" values="62.1" fill="freeze" begin="5475.click" /><animate id="3" attributeName="stroke-dashoffset" values="62.1;0" dur="0.47s" fill="freeze" begin="2.end" /></path></g></g><g><path d="M45.83,41.07c0.33,0.37,1.18,2.18,1.32,2.64c1.16,3.66,3.54,16.26,4.33,22.83" stroke-dasharray="26.21" stroke-dashoffset="26.21"><animate attributeName="stroke-dashoffset" values="26.21" fill="freeze" begin="5475.click" /><animate id="4" attributeName="stroke-dashoffset" values="26.21;0" dur="0.26s" fill="freeze" begin="3.end" /></path><path d="M47.9,43.05c6.85-1.55,15.64-3.52,19.55-4c1.43-0.18,2.2,1.03,2.08,2.08C69,45.75,67.5,54,66.94,60.98" stroke-dasharray="43.39" stroke-dashoffset="43.39"><animate attributeName="stroke-dashoffset" values="43.39" fill="freeze" begin="5475.click" /><animate id="5" attributeName="stroke-dashoffset" values="43.39;0" dur="0.43s" fill="freeze" begin="4.end" /></path><path d="M51.64,63.33c4.59-0.54,10.92-0.98,17.23-1.82" stroke-dasharray="17.33" stroke-dashoffset="17.33"><animate attributeName="stroke-dashoffset" values="17.33" fill="freeze" begin="5475.click" /><animate id="6" attributeName="stroke-dashoffset" values="17.33;0" dur="0.17s" fill="freeze" begin="5.end" /></path></g><g p5:part="2" xmlns:p5="http://kanjivg.tagaini.net"><g><path d="M86.31,21.59c0.07,0.48,1.41,2.5,1.48,5.54c0.34,14.6-0.22,57.89-0.22,62.86c0,8.53-5.57,4.51-10.36,0.25" stroke-dasharray="84.21" stroke-dashoffset="84.21"><animate attributeName="stroke-dashoffset" values="84.21" fill="freeze" begin="5475.click" /><animate id="7" attributeName="stroke-dashoffset" values="84.21;0" dur="0.63s" fill="freeze" begin="6.end" /></path></g></g></g></g></g></svg>