<svg xmlns="http://www.w3.org/2000/svg" width="109" height="109" viewBox="0 0 109 109" id="5477"><g fill="none" stroke="#666" stroke-width="9" stroke-linecap="round" stroke-linejoin="round"><g><g><path d="M10.75,34.79c0.37,0.51,0.76,0.94,0.92,1.58C12.96,41.43,15.01,52.9,15.9,62" /><path d="M12.58,35.72c7.92-1.22,16.05-2.56,20.42-3.23c1.6-0.24,2.56,1.44,2.33,2.87c-0.95,5.92-2.55,11.57-3.96,19.75" /><path d="M16.07,58.05c5.14-0.75,10.83-1.05,17.89-2.21" /></g><g><g p5:partial xmlns:p5="http://kanjivg.tagaini.net"><path d="M44.79,17.08c0.34,0.72,1.41,2.29,1.58,3.18c1.71,9.05,4.49,25.96,5.39,39.41" /><path d="M46.95,18.74c13.15-1.66,34.99-4.05,44.03-4.76c3.32-0.26,5.32,1.28,5.2,4.31c-0.28,7.21-4.53,33.95-5.84,38.38" /><path d="M49.16,37.47c3.95-0.35,41.64-3.54,44.9-3.54" /><path d="M51.39,56.26c11.44-1.64,27.09-2.69,39.6-3.39" /></g><g><path d="M69.43,18.41c0.97,0.61,1.58,2.23,1.57,4.16c-0.03,9.83,0.33,73.69,0.33,76.89" /></g></g></g></g><g fill="none" stroke="#000" stroke-width="5" stroke-linecap="round" stroke-linejoin="round"><g><g><path d="M10.75,34.79c0.37,0.51,0.76,0.94,0.92,1.58C12.96,41.43,15.01,52.9,15.9,62" stroke-dasharray="27.84" stroke-dashoffset="27.84"><animate id="0" attributeName="stroke-dashoffset" values="27.84;0" dur="0.28s" fill="freeze" begin="0s;5477.click" /></path><path d="M12.58,35.72c7.92-1.22,16.05-2.56,20.42-3.23c1.6-0.24,2.56,1.44,2.33,2.87c-0.95,5.92-2.55,11.57-3.96,19.75" stroke-dasharray="45.12" stroke-dashoffset="45.12"><animate attributeName="stroke-dashoffset" values="45.12" fill="freeze" begin="5477.click" /><animate id="1" attributeName="stroke-dashoffset" values="45.12;0" dur="0.45s" fill="freeze" begin="0.end" /></path><path d="M16.07,58.05c5.14-0.75,10.83-1.05,17.89-2.21" stroke-dasharray="18.03" stroke-dashoffset="18.03"><animate attributeName="stroke-dashoffset" values="18.03" fill="freeze" begin="5477.click" /><animate id="2" attributeName="stroke-dashoffset" values="18.03;0" dur="0.18s" fill="freeze" begin="1.end" /></path></g><g><g p5:partial xmlns:p5="http://kanjivg.tagaini.net"><path d="M44.79,17.08c0.34,0.72,1.41,2.29,1.58,3.18c1.71,9.05,4.49,25.96,5.39,39.41" stroke-dasharray="43.36" stroke-dashoffset="43.36"><animate attributeName="stroke-dashoffset" values="43.36" fill="freeze" begin="5477.click" /><animate id="3" attributeName="stroke-dashoffset" values="43.36;0" dur="0.43s" fill="freeze" begin="2.end" /></path><path d="M46.95,18.74c13.15-1.66,34.99-4.05,44.03-4.76c3.32-0.26,5.32,1.28,5.2,4.31c-0.28,7.21-4.53,33.95-5.84,38.38" stroke-dasharray="91.01" stroke-dashoffset="91.01"><animate attributeName="stroke-dashoffset" values="91.01" fill="freeze" begin="5477.click" /><animate id="4" attributeName="stroke-dashoffset" values="91.01;0" dur="0.68s" fill="freeze" begin="3.end" /></path><path d="M49.16,37.47c3.95-0.35,41.64-3.54,44.9-3.54" stroke-dasharray="45.04" stroke-dashoffset="45.04"><animate attributeName="stroke-dashoffset" values="45.04" fill="freeze" begin="5477.click" /><animate id="5" attributeName="stroke-dashoffset" values="45.04;0" dur="0.45s" fill="freeze" begin="4.end" /></path><path d="M51.39,56.26c11.44-1.64,27.09-2.69,39.6-3.39" stroke-dasharray="39.76" stroke-dashoffset="39.76"><animate attributeName="stroke-dashoffset" values="39.76" fill="freeze" begin="5477.click" /><animate id="6" attributeName="stroke-dashoffset" values="39.76;0" dur="0.4s" fill="freeze" begin="5.end" /></path></g><g><path d="M69.43,18.41c0.97,0.61,1.58,2.23,1.57,4.16c-0.03,9.83,0.33,73.69,0.33,76.89" stroke-dasharray="81.51" stroke-dashoffset="81.51"><animate attributeName="stroke-dashoffset" values="81.51" fill="freeze" begin="5477.click" /><animate id="7" attributeName="stroke-dashoffset" values="81.51;0" dur="0.61s" fill="freeze" begin="6.end" /></path></g></g></g></g></svg>