<svg xmlns="http://www.w3.org/2000/svg" width="109" height="109" viewBox="0 0 109 109" id="5484"><g fill="none" stroke="#666" stroke-width="6" stroke-linecap="round" stroke-linejoin="round"><g><g><path d="M9.75,34.15c0.37,0.47,0.76,0.86,0.92,1.45c1.29,4.66,3.84,17.53,4.73,25.9" /><path d="M12.08,35.89c7.17-1.39,16.05-2.78,20.42-3.39c1.6-0.22,2.56,1.33,2.33,2.64c-0.95,5.45-2.05,12.37-3.46,19.9" /><path d="M15.57,57.75c5.14-0.69,11.33-0.97,18.39-2.03" /></g><g><g><path d="M66.26,11.88c0.57,0.46,1.9,2.87,1.9,4.38c0,0.93,0.25,67.62,0.13,73.39" /><path d="M47.94,34.99c0.5,0.39,1.07,3.31,0.99,4.1c-0.33,3.51-0.68,9.91-1.38,14.87c-0.25,1.77,0.81,1.74,2.03,1.48c10.18-2.19,30.18-4.19,41.22-4.65" /><path d="M92.12,28.64c0.58,0.46,0.8,4.09,0.71,5.02c-0.57,5.67-1.09,12.84-2.23,18.88" /></g><g><path d="M47.09,70.7c0.5,0.4,1.07,3.39,0.99,4.2c-0.33,3.59-2.54,9.03-3.88,16.33c-0.33,1.8,0.76,2.47,1.99,2.2c13.56-2.93,36.66-6.25,46-6.02" /><path d="M92.73,65.93c0.58,0.46,1.6,4.09,1.47,5.01c-0.98,6.77-1.02,13.36-2.23,20.83" /></g></g></g></g><g fill="none" stroke="#000" stroke-width="3" stroke-linecap="round" stroke-linejoin="round"><path d="M9.75,34.15c0.37,0.47,0.76,0.86,0.92,1.45c1.29,4.66,3.84,17.53,4.73,25.9" stroke-dasharray="28.079" stroke-dashoffset="28.079"><animate attributeName="stroke-dashoffset" values="28.079;28.079;0" dur="0.281s" fill="freeze" begin="0s;5484.click" /></path><path d="M12.08,35.89c7.17-1.39,16.05-2.78,20.42-3.39c1.6-0.22,2.56,1.33,2.33,2.64c-0.95,5.45-2.05,12.37-3.46,19.9" stroke-dasharray="45.006" stroke-dashoffset="45.006"><animate attributeName="stroke-dashoffset" values="45.006" fill="freeze" begin="5484.click" /><animate attributeName="stroke-dashoffset" values="45.006;45.006;0" keyTimes="0;0.384;1" dur="0.731s" fill="freeze" begin="0s;5484.click" /></path><path d="M15.57,57.75c5.14-0.69,11.33-0.97,18.39-2.03" stroke-dasharray="18.505" stroke-dashoffset="18.505"><animate attributeName="stroke-dashoffset" values="18.505" fill="freeze" begin="5484.click" /><animate attributeName="stroke-dashoffset" values="18.505;18.505;0" keyTimes="0;0.798;1" dur="0.916s" fill="freeze" begin="0s;5484.click" /></path><path d="M66.26,11.88c0.57,0.46,1.9,2.87,1.9,4.38c0,0.93,0.25,67.62,0.13,73.39" stroke-dasharray="78.249" stroke-dashoffset="78.249"><animate attributeName="stroke-dashoffset" values="78.249" fill="freeze" begin="5484.click" /><animate attributeName="stroke-dashoffset" values="78.249;78.249;0" keyTimes="0;0.609;1" dur="1.504s" fill="freeze" begin="0s;5484.click" /></path><path d="M47.94,34.99c0.5,0.39,1.07,3.31,0.99,4.1c-0.33,3.51-0.68,9.91-1.38,14.87c-0.25,1.77,0.81,1.74,2.03,1.48c10.18-2.19,30.18-4.19,41.22-4.65" stroke-dasharray="64.005" stroke-dashoffset="64.005"><animate attributeName="stroke-dashoffset" values="64.005" fill="freeze" begin="5484.click" /><animate attributeName="stroke-dashoffset" values="64.005;64.005;0" keyTimes="0;0.758;1" dur="1.985s" fill="freeze" begin="0s;5484.click" /></path><path d="M92.12,28.64c0.58,0.46,0.8,4.09,0.71,5.02c-0.57,5.67-1.09,12.84-2.23,18.88" stroke-dasharray="24.153" stroke-dashoffset="24.153"><animate attributeName="stroke-dashoffset" values="24.153" fill="freeze" begin="5484.click" /><animate attributeName="stroke-dashoffset" values="24.153;24.153;0" keyTimes="0;0.891;1" dur="2.227s" fill="freeze" begin="0s;5484.click" /></path><path d="M47.09,70.7c0.5,0.4,1.07,3.39,0.99,4.2c-0.33,3.59-2.54,9.03-3.88,16.33c-0.33,1.8,0.76,2.47,1.99,2.2c13.56-2.93,36.66-6.25,46-6.02" stroke-dasharray="71.306" stroke-dashoffset="71.306"><animate attributeName="stroke-dashoffset" values="71.306" fill="freeze" begin="5484.click" /><animate attributeName="stroke-dashoffset" values="71.306;71.306;0" keyTimes="0;0.806;1" dur="2.763s" fill="freeze" begin="0s;5484.click" /></path><path d="M92.73,65.93c0.58,0.46,1.6,4.09,1.47,5.01c-0.98,6.77-1.02,13.36-2.23,20.83" stroke-dasharray="26.243" stroke-dashoffset="26.243"><animate attributeName="stroke-dashoffset" values="26.243" fill="freeze" begin="5484.click" /><animate attributeName="stroke-dashoffset" values="26.243;26.243;0" keyTimes="0;0.913;1" dur="3.025s" fill="freeze" begin="0s;5484.click" /></path></g></svg>