<svg xmlns="http://www.w3.org/2000/svg" width="109" height="109" viewBox="0 0 109 109" id="5492"><g fill="none" stroke="#666" stroke-width="9" stroke-linecap="round" stroke-linejoin="round"><g><g><g><path d="M21.25,15.64c0.39,0.39,0.79,0.72,0.96,1.21c1.35,3.9,2.97,12.65,3.89,19.65" /><path d="M23.68,17.78c8.57-1.53,17.66-2.78,22.22-3.29c1.67-0.19,2.67,1.11,2.43,2.21c-0.99,4.55-2.14,8.55-3.61,14.85" /><path d="M26.28,34.58C31.64,34,39.02,33,46.38,32.11" /></g><g><path d="M58.25,14.14c0.42,0.39,0.85,0.72,1.04,1.21c1.46,3.9,2.21,12.15,3.21,19.15" /><path d="M60.38,15.28C70.75,13.75,79,13,83.94,12.49c1.8-0.19,2.89,1.11,2.63,2.21c-1.07,4.55-2.32,9.55-3.91,15.85" /><path d="M62.7,32.08c5.8-0.58,12.55-0.83,21.77-1.47" /></g></g><g><g><path d="M38.83,46c0.92,1.25,1.28,1.56,1.28,4.06c0,22.77-2.62,37.69-22.62,47.69" /></g><path d="M40.5,48c3.75-0.75,20-2.75,23-3.5s6.25,0.75,5.5,4.5s-0.5,35-0.5,37.75c0,5,1.75,8.25,13.25,8.25c13.75,0,14-2,14-9.75" /></g></g></g><g fill="none" stroke="#000" stroke-width="5" stroke-linecap="round" stroke-linejoin="round"><path d="M21.25,15.64c0.39,0.39,0.79,0.72,0.96,1.21c1.35,3.9,2.97,12.65,3.89,19.65" stroke-dasharray="21.615" stroke-dashoffset="21.615"><animate attributeName="stroke-dashoffset" values="21.615;21.615;0" dur="0.216s" fill="freeze" begin="0s;5492.click" /></path><path d="M23.68,17.78c8.57-1.53,17.66-2.78,22.22-3.29c1.67-0.19,2.67,1.11,2.43,2.21c-0.99,4.55-2.14,8.55-3.61,14.85" stroke-dasharray="41.586" stroke-dashoffset="41.586"><animate attributeName="stroke-dashoffset" values="41.586" fill="freeze" begin="5492.click" /><animate attributeName="stroke-dashoffset" values="41.586;41.586;0" keyTimes="0;0.342;1" dur="0.632s" fill="freeze" begin="0s;5492.click" /></path><path d="M26.28,34.58C31.64,34,39.02,33,46.38,32.11" stroke-dasharray="20.252" stroke-dashoffset="20.252"><animate attributeName="stroke-dashoffset" values="20.252" fill="freeze" begin="5492.click" /><animate attributeName="stroke-dashoffset" values="20.252;20.252;0" keyTimes="0;0.757;1" dur="0.835s" fill="freeze" begin="0s;5492.click" /></path><path d="M58.25,14.14c0.42,0.39,0.85,0.72,1.04,1.21c1.46,3.9,2.21,12.15,3.21,19.15" stroke-dasharray="21.057" stroke-dashoffset="21.057"><animate attributeName="stroke-dashoffset" values="21.057" fill="freeze" begin="5492.click" /><animate attributeName="stroke-dashoffset" values="21.057;21.057;0" keyTimes="0;0.798;1" dur="1.046s" fill="freeze" begin="0s;5492.click" /></path><path d="M60.38,15.28C70.75,13.75,79,13,83.94,12.49c1.8-0.19,2.89,1.11,2.63,2.21c-1.07,4.55-2.32,9.55-3.91,15.85" stroke-dasharray="44.059" stroke-dashoffset="44.059"><animate attributeName="stroke-dashoffset" values="44.059" fill="freeze" begin="5492.click" /><animate attributeName="stroke-dashoffset" values="44.059;44.059;0" keyTimes="0;0.703;1" dur="1.487s" fill="freeze" begin="0s;5492.click" /></path><path d="M62.7,32.08c5.8-0.58,12.55-0.83,21.77-1.47" stroke-dasharray="21.822" stroke-dashoffset="21.822"><animate attributeName="stroke-dashoffset" values="21.822" fill="freeze" begin="5492.click" /><animate attributeName="stroke-dashoffset" values="21.822;21.822;0" keyTimes="0;0.872;1" dur="1.705s" fill="freeze" begin="0s;5492.click" /></path><path d="M38.83,46c0.92,1.25,1.28,1.56,1.28,4.06c0,22.77-2.62,37.69-22.62,47.69" stroke-dasharray="60.863" stroke-dashoffset="60.863"><animate attributeName="stroke-dashoffset" values="60.863" fill="freeze" begin="5492.click" /><animate attributeName="stroke-dashoffset" values="60.863;60.863;0" keyTimes="0;0.788;1" dur="2.163s" fill="freeze" begin="0s;5492.click" /></path><path d="M40.5,48c3.75-0.75,20-2.75,23-3.5s6.25,0.75,5.5,4.5s-0.5,35-0.5,37.75c0,5,1.75,8.25,13.25,8.25c13.75,0,14-2,14-9.75" stroke-dasharray="108.579" stroke-dashoffset="108.579"><animate attributeName="stroke-dashoffset" values="108.579" fill="freeze" begin="5492.click" /><animate attributeName="stroke-dashoffset" values="108.579;108.579;0" keyTimes="0;0.726;1" dur="2.979s" fill="freeze" begin="0s;5492.click" /></path></g></svg>