<svg xmlns="http://www.w3.org/2000/svg" width="109" height="109" viewBox="0 0 109 109" id="54a5"><g fill="none" stroke="#666" stroke-width="9" stroke-linecap="round" stroke-linejoin="round"><g><g><path d="M10.75,32.79c0.37,0.51,0.76,0.94,0.92,1.58C12.96,39.43,15.01,52.9,15.9,62" /><path d="M13.08,35.22c9.42-2.22,17.05-3.06,21.42-3.73c1.6-0.24,2.56,1.44,2.33,2.87c-0.95,5.92-3.05,13.07-4.46,21.25" /><path d="M16.07,58.55c5.14-0.75,11.33-1.05,18.39-2.21" /></g><g><path d="M42.75,20.16c0.98,0.4,2.76,0.44,3.74,0.4c11.38-0.55,27.82-4.27,44.16-4.76c1.62-0.05,2.6,0.19,3.41,0.39" /><g><path d="M61.71,22.15c0.46,0.55,0.63,2.29,0.28,2.94C57.92,32.56,53.5,36,47,43.07c-1.99,2.17-1.94,3.89,0.97,3.2c6.79-1.6,27.69-5.87,38.39-8.51" /><path d="M77.31,28.66c5.31,3.24,13.72,13.31,15.05,18.35" /></g><g><path d="M45.71,69.4c0.76,0.33,2.16,0.4,2.92,0.33c7.84-0.8,32.91-3.68,40.04-3.68c1.27,0,2.03,0.15,2.66,0.32" /><path d="M65.61,49.56c0.09,0.25,1.4,1.29,1.37,2.87c-0.15,9.02,0.43,35.77,0.43,38.34" /><path d="M38.88,92.83c1.18,0.46,3.34,0.52,4.52,0.46c15.11-0.79,29.55-3.77,52.11-3.89c1.96-0.01,3.14,0.22,4.12,0.45" /></g></g></g></g><g fill="none" stroke="#000" stroke-width="5" stroke-linecap="round" stroke-linejoin="round"><g><g><path d="M10.75,32.79c0.37,0.51,0.76,0.94,0.92,1.58C12.96,39.43,15.01,52.9,15.9,62" stroke-dasharray="29.81" stroke-dashoffset="29.81"><animate id="0" attributeName="stroke-dashoffset" values="29.81;0" dur="0.3s" fill="freeze" begin="0s;54a5.click" /></path><path d="M13.08,35.22c9.42-2.22,17.05-3.06,21.42-3.73c1.6-0.24,2.56,1.44,2.33,2.87c-0.95,5.92-3.05,13.07-4.46,21.25" stroke-dasharray="47.77" stroke-dashoffset="47.77"><animate attributeName="stroke-dashoffset" values="47.77" fill="freeze" begin="54a5.click" /><animate id="1" attributeName="stroke-dashoffset" values="47.77;0" dur="0.48s" fill="freeze" begin="0.end" /></path><path d="M16.07,58.55c5.14-0.75,11.33-1.05,18.39-2.21" stroke-dasharray="18.53" stroke-dashoffset="18.53"><animate attributeName="stroke-dashoffset" values="18.53" fill="freeze" begin="54a5.click" /><animate id="2" attributeName="stroke-dashoffset" values="18.53;0" dur="0.19s" fill="freeze" begin="1.end" /></path></g><g><path d="M42.75,20.16c0.98,0.4,2.76,0.44,3.74,0.4c11.38-0.55,27.82-4.27,44.16-4.76c1.62-0.05,2.6,0.19,3.41,0.39" stroke-dasharray="51.67" stroke-dashoffset="51.67"><animate attributeName="stroke-dashoffset" values="51.67" fill="freeze" begin="54a5.click" /><animate id="3" attributeName="stroke-dashoffset" values="51.67;0" dur="0.52s" fill="freeze" begin="2.end" /></path><g><path d="M61.71,22.15c0.46,0.55,0.63,2.29,0.28,2.94C57.92,32.56,53.5,36,47,43.07c-1.99,2.17-1.94,3.89,0.97,3.2c6.79-1.6,27.69-5.87,38.39-8.51" stroke-dasharray="71.59" stroke-dashoffset="71.59"><animate attributeName="stroke-dashoffset" values="71.59" fill="freeze" begin="54a5.click" /><animate id="4" attributeName="stroke-dashoffset" values="71.59;0" dur="0.54s" fill="freeze" begin="3.end" /></path><path d="M77.31,28.66c5.31,3.24,13.72,13.31,15.05,18.35" stroke-dasharray="24.06" stroke-dashoffset="24.06"><animate attributeName="stroke-dashoffset" values="24.06" fill="freeze" begin="54a5.click" /><animate id="5" attributeName="stroke-dashoffset" values="24.06;0" dur="0.24s" fill="freeze" begin="4.end" /></path></g><g><path d="M45.71,69.4c0.76,0.33,2.16,0.4,2.92,0.33c7.84-0.8,32.91-3.68,40.04-3.68c1.27,0,2.03,0.15,2.66,0.32" stroke-dasharray="45.87" stroke-dashoffset="45.87"><animate attributeName="stroke-dashoffset" values="45.87" fill="freeze" begin="54a5.click" /><animate id="6" attributeName="stroke-dashoffset" values="45.87;0" dur="0.46s" fill="freeze" begin="5.end" /></path><path d="M65.61,49.56c0.09,0.25,1.4,1.29,1.37,2.87c-0.15,9.02,0.43,35.77,0.43,38.34" stroke-dasharray="41.6" stroke-dashoffset="41.6"><animate attributeName="stroke-dashoffset" values="41.6" fill="freeze" begin="54a5.click" /><animate id="7" attributeName="stroke-dashoffset" values="41.6;0" dur="0.42s" fill="freeze" begin="6.end" /></path><path d="M38.88,92.83c1.18,0.46,3.34,0.52,4.52,0.46c15.11-0.79,29.55-3.77,52.11-3.89c1.96-0.01,3.14,0.22,4.12,0.45" stroke-dasharray="61" stroke-dashoffset="61"><animate attributeName="stroke-dashoffset" values="61" fill="freeze" begin="54a5.click" /><animate id="8" attributeName="stroke-dashoffset" values="61;0" dur="0.46s" fill="freeze" begin="7.end" /></path></g></g></g></g></svg>