<svg xmlns="http://www.w3.org/2000/svg" width="109" height="109" viewBox="0 0 109 109" id="54bc"><g fill="none" stroke="#666" stroke-width="9" stroke-linecap="round" stroke-linejoin="round"><g><path d="M31.75,15.75c0.75,1.25,1.29,2.75,1.5,5C34,29,35.25,40,36,50.25" /><path d="M33.25,17.75c9.5-1,38.75-3.97,43-4.5c2-0.25,3.99,0.79,3.5,3c-1,4.5-3,24.5-4,31.5" /><path d="M54.37,29.25c1.09,0.5,1.74,2.25,1.96,3.25c0.22,1,0.14,10.25-0.08,16.5" /><path d="M56.5,30.25C60,30,72,28.25,77,27.75" /><g><path d="M20.25,50.25c0.75,1.25,1.66,3.26,2,5.5c0.5,3.25,3.5,34.75,4.5,40.25" /><path d="M22.25,52.75c9.5-1,62.63-5.65,64.5-6c4-0.75,5.85,1.76,6,3C93.25,54,87.56,84.47,86,90c-2.75,9.75-4.25,4.75-7.25,1.5" /></g><g><path d="M40.25,61.64c0.42,0.39,0.85,0.72,1.04,1.21C42.75,66.75,44,76.5,45,83.5" /><path d="M42.38,63.78C52,62,63.5,60.5,68.44,59.99c1.8-0.19,2.89,1.11,2.63,2.21c-1.07,4.55-2.32,9.05-3.91,15.35" /><path d="M45.2,80.58C51,80,61,79,68.96,78.11" /></g></g></g><g fill="none" stroke="#000" stroke-width="5" stroke-linecap="round" stroke-linejoin="round"><g><path d="M31.75,15.75c0.75,1.25,1.29,2.75,1.5,5C34,29,35.25,40,36,50.25" stroke-dasharray="34.9" stroke-dashoffset="34.9"><animate id="0" attributeName="stroke-dashoffset" values="34.9;0" dur="0.35s" fill="freeze" begin="0s;54bc.click" /></path><path d="M33.25,17.75c9.5-1,38.75-3.97,43-4.5c2-0.25,3.99,0.79,3.5,3c-1,4.5-3,24.5-4,31.5" stroke-dasharray="80.52" stroke-dashoffset="80.52"><animate attributeName="stroke-dashoffset" values="80.52" fill="freeze" begin="54bc.click" /><animate id="1" attributeName="stroke-dashoffset" values="80.52;0" dur="0.61s" fill="freeze" begin="0.end" /></path><path d="M54.37,29.25c1.09,0.5,1.74,2.25,1.96,3.25c0.22,1,0.14,10.25-0.08,16.5" stroke-dasharray="20.42" stroke-dashoffset="20.42"><animate attributeName="stroke-dashoffset" values="20.42" fill="freeze" begin="54bc.click" /><animate id="2" attributeName="stroke-dashoffset" values="20.42;0" dur="0.2s" fill="freeze" begin="1.end" /></path><path d="M56.5,30.25C60,30,72,28.25,77,27.75" stroke-dasharray="20.65" stroke-dashoffset="20.65"><animate attributeName="stroke-dashoffset" values="20.65" fill="freeze" begin="54bc.click" /><animate id="3" attributeName="stroke-dashoffset" values="20.65;0" dur="0.21s" fill="freeze" begin="2.end" /></path><g><path d="M20.25,50.25c0.75,1.25,1.66,3.26,2,5.5c0.5,3.25,3.5,34.75,4.5,40.25" stroke-dasharray="46.39" stroke-dashoffset="46.39"><animate attributeName="stroke-dashoffset" values="46.39" fill="freeze" begin="54bc.click" /><animate id="4" attributeName="stroke-dashoffset" values="46.39;0" dur="0.46s" fill="freeze" begin="3.end" /></path><path d="M22.25,52.75c9.5-1,62.63-5.65,64.5-6c4-0.75,5.85,1.76,6,3C93.25,54,87.56,84.47,86,90c-2.75,9.75-4.25,4.75-7.25,1.5" stroke-dasharray="125.87" stroke-dashoffset="125.87"><animate attributeName="stroke-dashoffset" values="125.87" fill="freeze" begin="54bc.click" /><animate id="5" attributeName="stroke-dashoffset" values="125.87;0" dur="0.95s" fill="freeze" begin="4.end" /></path></g><g><path d="M40.25,61.64c0.42,0.39,0.85,0.72,1.04,1.21C42.75,66.75,44,76.5,45,83.5" stroke-dasharray="22.62" stroke-dashoffset="22.62"><animate attributeName="stroke-dashoffset" values="22.62" fill="freeze" begin="54bc.click" /><animate id="6" attributeName="stroke-dashoffset" values="22.62;0" dur="0.23s" fill="freeze" begin="5.end" /></path><path d="M42.38,63.78C52,62,63.5,60.5,68.44,59.99c1.8-0.19,2.89,1.11,2.63,2.21c-1.07,4.55-2.32,9.05-3.91,15.35" stroke-dasharray="46.19" stroke-dashoffset="46.19"><animate attributeName="stroke-dashoffset" values="46.19" fill="freeze" begin="54bc.click" /><animate id="7" attributeName="stroke-dashoffset" values="46.19;0" dur="0.46s" fill="freeze" begin="6.end" /></path><path d="M45.2,80.58C51,80,61,79,68.96,78.11" stroke-dasharray="23.89" stroke-dashoffset="23.89"><animate attributeName="stroke-dashoffset" values="23.89" fill="freeze" begin="54bc.click" /><animate id="8" attributeName="stroke-dashoffset" values="23.89;0" dur="0.24s" fill="freeze" begin="7.end" /></path></g></g></g></svg>