<svg xmlns="http://www.w3.org/2000/svg" width="109" height="109" viewBox="0 0 109 109" id="54bd"><g fill="none" stroke="#666" stroke-width="9" stroke-linecap="round" stroke-linejoin="round"><g><g><path d="M10.88,31.02c0.67,1.06,1.02,1.95,1.18,3.22c0.92,7.21,1.96,17.4,2.74,26.14c0.13,1.42,0.25,2.79,0.36,4.12" /><path d="M13.08,33.01c7.09-1.1,12.83-2,17.08-2.71c3.14-0.52,4.46,0.69,4.04,3.83c-0.88,6.59-1.82,14.99-2.84,25.04" /><path d="M16.32,61.74c4.82-0.59,7.78-0.82,12.8-1.24c1.29-0.11,2.71-0.23,4.34-0.37" /></g><g><g p5:part="1" xmlns:p5="http://kanjivg.tagaini.net"><path d="M44.5,18.74c0.88,0.88,1.06,2.25,1.07,3.96c0.07,8.32,0.05,43.24,0.04,60.55c0,5.49-0.01,9.21-0.01,9.75" /><path d="M46.47,20.58c11.69-1.35,32.97-3.42,43.15-3.78c3.68-0.13,4.88,0.44,4.88,4.39c0,12.56,0,44.39,0,63.8c0,2.89,0,5.51,0,7.75" /></g><g><path d="M53.5,44.97c1.58,0.48,3.65,0.35,5.24,0.11c7.5-1.09,14.75-1.96,22.63-2.56c1.68-0.13,3.12-0.16,4.77,0.26" /><path d="M68.76,25.64c0.8,0.8,0.92,2.67,0.92,4.12c0,24.61-5.47,41.01-16.39,50.26" /><path d="M70.38,56.25c5.49,4.42,12.41,12.38,15.74,21" /></g><g p5:part="2" xmlns:p5="http://kanjivg.tagaini.net"><path d="M46.77,89.56C58.62,89,80.56,87.67,93.39,87.3" /></g></g></g></g><g fill="none" stroke="#000" stroke-width="5" stroke-linecap="round" stroke-linejoin="round"><g><g><path d="M10.88,31.02c0.67,1.06,1.02,1.95,1.18,3.22c0.92,7.21,1.96,17.4,2.74,26.14c0.13,1.42,0.25,2.79,0.36,4.12" stroke-dasharray="33.88" stroke-dashoffset="33.88"><animate id="0" attributeName="stroke-dashoffset" values="33.88;0" dur="0.34s" fill="freeze" begin="0s;54bd.click" /></path><path d="M13.08,33.01c7.09-1.1,12.83-2,17.08-2.71c3.14-0.52,4.46,0.69,4.04,3.83c-0.88,6.59-1.82,14.99-2.84,25.04" stroke-dasharray="49.5" stroke-dashoffset="49.5"><animate attributeName="stroke-dashoffset" values="49.5" fill="freeze" begin="54bd.click" /><animate id="1" attributeName="stroke-dashoffset" values="49.5;0" dur="0.5s" fill="freeze" begin="0.end" /></path><path d="M16.32,61.74c4.82-0.59,7.78-0.82,12.8-1.24c1.29-0.11,2.71-0.23,4.34-0.37" stroke-dasharray="17.22" stroke-dashoffset="17.22"><animate attributeName="stroke-dashoffset" values="17.22" fill="freeze" begin="54bd.click" /><animate id="2" attributeName="stroke-dashoffset" values="17.22;0" dur="0.17s" fill="freeze" begin="1.end" /></path></g><g><g p5:part="1" xmlns:p5="http://kanjivg.tagaini.net"><path d="M44.5,18.74c0.88,0.88,1.06,2.25,1.07,3.96c0.07,8.32,0.05,43.24,0.04,60.55c0,5.49-0.01,9.21-0.01,9.75" stroke-dasharray="74.51" stroke-dashoffset="74.51"><animate attributeName="stroke-dashoffset" values="74.51" fill="freeze" begin="54bd.click" /><animate id="3" attributeName="stroke-dashoffset" values="74.51;0" dur="0.56s" fill="freeze" begin="2.end" /></path><path d="M46.47,20.58c11.69-1.35,32.97-3.42,43.15-3.78c3.68-0.13,4.88,0.44,4.88,4.39c0,12.56,0,44.39,0,63.8c0,2.89,0,5.51,0,7.75" stroke-dasharray="122.82" stroke-dashoffset="122.82"><animate attributeName="stroke-dashoffset" values="122.82" fill="freeze" begin="54bd.click" /><animate id="4" attributeName="stroke-dashoffset" values="122.82;0" dur="0.92s" fill="freeze" begin="3.end" /></path></g><g><path d="M53.5,44.97c1.58,0.48,3.65,0.35,5.24,0.11c7.5-1.09,14.75-1.96,22.63-2.56c1.68-0.13,3.12-0.16,4.77,0.26" stroke-dasharray="32.86" stroke-dashoffset="32.86"><animate attributeName="stroke-dashoffset" values="32.86" fill="freeze" begin="54bd.click" /><animate id="5" attributeName="stroke-dashoffset" values="32.86;0" dur="0.33s" fill="freeze" begin="4.end" /></path><path d="M68.76,25.64c0.8,0.8,0.92,2.67,0.92,4.12c0,24.61-5.47,41.01-16.39,50.26" stroke-dasharray="58.84" stroke-dashoffset="58.84"><animate attributeName="stroke-dashoffset" values="58.84" fill="freeze" begin="54bd.click" /><animate id="6" attributeName="stroke-dashoffset" values="58.84;0" dur="0.59s" fill="freeze" begin="5.end" /></path><path d="M70.38,56.25c5.49,4.42,12.41,12.38,15.74,21" stroke-dasharray="26.51" stroke-dashoffset="26.51"><animate attributeName="stroke-dashoffset" values="26.51" fill="freeze" begin="54bd.click" /><animate id="7" attributeName="stroke-dashoffset" values="26.51;0" dur="0.27s" fill="freeze" begin="6.end" /></path></g><g p5:part="2" xmlns:p5="http://kanjivg.tagaini.net"><path d="M46.77,89.56C58.62,89,80.56,87.67,93.39,87.3" stroke-dasharray="46.68" stroke-dashoffset="46.68"><animate attributeName="stroke-dashoffset" values="46.68" fill="freeze" begin="54bd.click" /><animate id="8" attributeName="stroke-dashoffset" values="46.68;0" dur="0.47s" fill="freeze" begin="7.end" /></path></g></g></g></g></svg>