<svg xmlns="http://www.w3.org/2000/svg" width="109" height="109" viewBox="0 0 109 109" id="54be"><g fill="none" stroke="#666" stroke-width="6" stroke-linecap="round" stroke-linejoin="round"><g><g><path d="M11.25,33.29c0.37,0.51,0.76,0.94,0.92,1.58c1.29,5.07,2.84,18.54,3.73,27.63" /><path d="M12.08,35.22c9.42-2.22,17.05-3.56,21.42-4.23c1.6-0.24,2.56,1.44,2.33,2.87c-0.95,5.92-2.55,13.57-3.96,21.75" /><path d="M16.07,58.55c5.14-0.75,10.33-1.05,17.39-2.21" /></g><g><g p5:partial xmlns:p5="http://kanjivg.tagaini.net"><g><path d="M49.4,31.93c0.69,0.3,1.96,0.34,2.66,0.3c7.88-0.49,18.12-2.23,24.77-2.9c1.15-0.11,1.85,0.14,2.43,0.29" /><path d="M63.92,11.37c0.11,0.27,1.48,1.4,1.59,3.1c0.51,8.18,0.27,29.5,0.27,32.29" /><path d="M40.58,49.68c1.41,0.63,3.98,0.8,5.39,0.63c13.03-1.56,29.28-4.47,47.11-5.58c2.34-0.15,3.75,0.3,4.92,0.62" /></g><path d="M87.57,20.67c0.15,1.39-0.14,3.47-1.25,5.12C72.1,47,57.55,63.18,33.93,79.43" /></g><g><path d="M88.52,58.02c0.3,0.51,0.55,2.06-0.28,2.77c-5.8,4.99-15.52,11.57-23.7,14.47" /><path d="M59.48,56.06c0.7,0.77,1.99,2.25,1.99,3.3c0,7.4,0.23,27.06,0.23,30.25c0,8.22,9.42,6.93,17.43,6.93c6.22,0,10.9-0.43,13.24-2.73c2.34-2.3,2.06-4.97,2.29-7.27" /></g></g></g></g><g fill="none" stroke="#000" stroke-width="3" stroke-linecap="round" stroke-linejoin="round"><path d="M11.25,33.29c0.37,0.51,0.76,0.94,0.92,1.58c1.29,5.07,2.84,18.54,3.73,27.63" stroke-dasharray="29.739" stroke-dashoffset="29.739"><animate attributeName="stroke-dashoffset" values="29.739;29.739;0" dur="0.297s" fill="freeze" begin="0s;54be.click" /></path><path d="M12.08,35.22c9.42-2.22,17.05-3.56,21.42-4.23c1.6-0.24,2.56,1.44,2.33,2.87c-0.95,5.92-2.55,13.57-3.96,21.75" stroke-dasharray="48.249" stroke-dashoffset="48.249"><animate attributeName="stroke-dashoffset" values="48.249" fill="freeze" begin="54be.click" /><animate attributeName="stroke-dashoffset" values="48.249;48.249;0" keyTimes="0;0.381;1" dur="0.779s" fill="freeze" begin="0s;54be.click" /></path><path d="M16.07,58.55c5.14-0.75,10.33-1.05,17.39-2.21" stroke-dasharray="17.533" stroke-dashoffset="17.533"><animate attributeName="stroke-dashoffset" values="17.533" fill="freeze" begin="54be.click" /><animate attributeName="stroke-dashoffset" values="17.533;17.533;0" keyTimes="0;0.817;1" dur="0.954s" fill="freeze" begin="0s;54be.click" /></path><path d="M49.4,31.93c0.69,0.3,1.96,0.34,2.66,0.3c7.88-0.49,18.12-2.23,24.77-2.9c1.15-0.11,1.85,0.14,2.43,0.29" stroke-dasharray="30.104" stroke-dashoffset="30.104"><animate attributeName="stroke-dashoffset" values="30.104" fill="freeze" begin="54be.click" /><animate attributeName="stroke-dashoffset" values="30.104;30.104;0" keyTimes="0;0.76;1" dur="1.255s" fill="freeze" begin="0s;54be.click" /></path><path d="M63.92,11.37c0.11,0.27,1.48,1.4,1.59,3.1c0.51,8.18,0.27,29.5,0.27,32.29" stroke-dasharray="35.847" stroke-dashoffset="35.847"><animate attributeName="stroke-dashoffset" values="35.847" fill="freeze" begin="54be.click" /><animate attributeName="stroke-dashoffset" values="35.847;35.847;0" keyTimes="0;0.778;1" dur="1.613s" fill="freeze" begin="0s;54be.click" /></path><path d="M40.58,49.68c1.41,0.63,3.98,0.8,5.39,0.63c13.03-1.56,29.28-4.47,47.11-5.58c2.34-0.15,3.75,0.3,4.92,0.62" stroke-dasharray="57.915" stroke-dashoffset="57.915"><animate attributeName="stroke-dashoffset" values="57.915" fill="freeze" begin="54be.click" /><animate attributeName="stroke-dashoffset" values="57.915;57.915;0" keyTimes="0;0.736;1" dur="2.192s" fill="freeze" begin="0s;54be.click" /></path><path d="M87.57,20.67c0.15,1.39-0.14,3.47-1.25,5.12C72.1,47,57.55,63.18,33.93,79.43" stroke-dasharray="80.855" stroke-dashoffset="80.855"><animate attributeName="stroke-dashoffset" values="80.855" fill="freeze" begin="54be.click" /><animate attributeName="stroke-dashoffset" values="80.855;80.855;0" keyTimes="0;0.783;1" dur="2.8s" fill="freeze" begin="0s;54be.click" /></path><path d="M88.52,58.02c0.3,0.51,0.55,2.06-0.28,2.77c-5.8,4.99-15.52,11.57-23.7,14.47" stroke-dasharray="30.869" stroke-dashoffset="30.869"><animate attributeName="stroke-dashoffset" values="30.869" fill="freeze" begin="54be.click" /><animate attributeName="stroke-dashoffset" values="30.869;30.869;0" keyTimes="0;0.901;1" dur="3.109s" fill="freeze" begin="0s;54be.click" /></path><path d="M59.48,56.06c0.7,0.77,1.99,2.25,1.99,3.3c0,7.4,0.23,27.06,0.23,30.25c0,8.22,9.42,6.93,17.43,6.93c6.22,0,10.9-0.43,13.24-2.73c2.34-2.3,2.06-4.97,2.29-7.27" stroke-dasharray="77.161" stroke-dashoffset="77.161"><animate attributeName="stroke-dashoffset" values="77.161" fill="freeze" begin="54be.click" /><animate attributeName="stroke-dashoffset" values="77.161;77.161;0" keyTimes="0;0.843;1" dur="3.689s" fill="freeze" begin="0s;54be.click" /></path></g></svg>