<svg xmlns="http://www.w3.org/2000/svg" viewBox="0 0 109 109" id="54c0"><g fill="none" stroke="#666" stroke-width="6" stroke-linecap="round" stroke-linejoin="round"><g><g p4:phon="衣1" xmlns:p4="http://kanjivg.tagaini.net"><g><path d="M52.75,10.1c1.14,1.14,1.81,2.53,1.81,4.18c0,4.21-0.06,5.09-0.06,7.72" /><path d="M18.25,25.04c3.5,0.71,5.92,0.75,9.11,0.39c13.77-1.55,40.1-3.75,54.65-4.35c2.83-0.12,6.3-0.22,9,0.78" /></g></g><g><g><path d="M32,36.16c0.79,0.79,1.43,1.73,1.88,3.05c0.99,2.91,2.13,7.41,3.02,11.45c0.38,1.74,0.72,3.4,0.98,4.81" /><path d="M33.94,37.23c9.63-1.19,27.67-3.14,34.94-3.81c2.79-0.26,5.42,0.3,4.34,3.61c-1.02,3.11-1.68,4.42-3.44,10.28" /><path d="M38.56,52.15c5.32-0.41,19.03-2.37,28.44-3.39c1.93-0.21,3.64-0.37,5.02-0.46" /></g><g p5:phon="衣2" xmlns:p5="http://kanjivg.tagaini.net"><path d="M45.99,54.14c0.12,1.15-0.17,2.17-0.68,3.19c-3.2,6.4-11.29,18.18-27,26.64" /><path d="M38.5,71.74c0.69,0.69,1,1.76,1,3c0,11.82-0.07,16.89-0.07,19.94c0,2,0.82,2.95,2.93,1.14c1.75-1.5,14.39-11.31,17.1-13.09" /><path d="M78.54,50.89c-0.04,0.98-0.29,1.86-0.78,2.5c-3.07,4.01-7.22,7.65-16.45,14.33" /><path d="M51.25,62.75c3.39,0,7.82,5.07,29.71,24.17c2.67,2.33,5.42,4.2,9.29,6.08" /></g></g></g></g><g fill="none" stroke="#000" stroke-width="3" stroke-linecap="round" stroke-linejoin="round"><path d="M52.75,10.1c1.14,1.14,1.81,2.53,1.81,4.18c0,4.21-0.06,5.09-0.06,7.72" stroke-dasharray="12.402" stroke-dashoffset="12.402"><animate attributeName="stroke-dashoffset" values="12.402;12.402;0" dur="0.124s" fill="freeze" begin="0s;54c0.click" /></path><path d="M18.25,25.04c3.5,0.71,5.92,0.75,9.11,0.39c13.77-1.55,40.1-3.75,54.65-4.35c2.83-0.12,6.3-0.22,9,0.78" stroke-dasharray="73.086" stroke-dashoffset="73.086"><animate attributeName="stroke-dashoffset" values="73.086" fill="freeze" begin="54c0.click" /><animate attributeName="stroke-dashoffset" values="73.086;73.086;0" keyTimes="0;0.184;1" dur="0.674s" fill="freeze" begin="0s;54c0.click" /></path><path d="M32,36.16c0.79,0.79,1.43,1.73,1.88,3.05c0.99,2.91,2.13,7.41,3.02,11.45c0.38,1.74,0.72,3.4,0.98,4.81" stroke-dasharray="20.373" stroke-dashoffset="20.373"><animate attributeName="stroke-dashoffset" values="20.373" fill="freeze" begin="54c0.click" /><animate attributeName="stroke-dashoffset" values="20.373;20.373;0" keyTimes="0;0.768;1" dur="0.878s" fill="freeze" begin="0s;54c0.click" /></path><path d="M33.94,37.23c9.63-1.19,27.67-3.14,34.94-3.81c2.79-0.26,5.42,0.3,4.34,3.61c-1.02,3.11-1.68,4.42-3.44,10.28" stroke-dasharray="53.218" stroke-dashoffset="53.218"><animate attributeName="stroke-dashoffset" values="53.218" fill="freeze" begin="54c0.click" /><animate attributeName="stroke-dashoffset" values="53.218;53.218;0" keyTimes="0;0.623;1" dur="1.41s" fill="freeze" begin="0s;54c0.click" /></path><path d="M38.56,52.15c5.32-0.41,19.03-2.37,28.44-3.39c1.93-0.21,3.64-0.37,5.02-0.46" stroke-dasharray="33.685" stroke-dashoffset="33.685"><animate attributeName="stroke-dashoffset" values="33.685" fill="freeze" begin="54c0.click" /><animate attributeName="stroke-dashoffset" values="33.685;33.685;0" keyTimes="0;0.807;1" dur="1.747s" fill="freeze" begin="0s;54c0.click" /></path><path d="M45.99,54.14c0.12,1.15-0.17,2.17-0.68,3.19c-3.2,6.4-11.29,18.18-27,26.64" stroke-dasharray="41.808" stroke-dashoffset="41.808"><animate attributeName="stroke-dashoffset" values="41.808" fill="freeze" begin="54c0.click" /><animate attributeName="stroke-dashoffset" values="41.808;41.808;0" keyTimes="0;0.807;1" dur="2.165s" fill="freeze" begin="0s;54c0.click" /></path><path d="M38.5,71.74c0.69,0.69,1,1.76,1,3c0,11.82-0.07,16.89-0.07,19.94c0,2,0.82,2.95,2.93,1.14c1.75-1.5,14.39-11.31,17.1-13.09" stroke-dasharray="49.471" stroke-dashoffset="49.471"><animate attributeName="stroke-dashoffset" values="49.471" fill="freeze" begin="54c0.click" /><animate attributeName="stroke-dashoffset" values="49.471;49.471;0" keyTimes="0;0.814;1" dur="2.66s" fill="freeze" begin="0s;54c0.click" /></path><path d="M78.54,50.89c-0.04,0.98-0.29,1.86-0.78,2.5c-3.07,4.01-7.22,7.65-16.45,14.33" stroke-dasharray="24.552" stroke-dashoffset="24.552"><animate attributeName="stroke-dashoffset" values="24.552" fill="freeze" begin="54c0.click" /><animate attributeName="stroke-dashoffset" values="24.552;24.552;0" keyTimes="0;0.915;1" dur="2.906s" fill="freeze" begin="0s;54c0.click" /></path><path d="M51.25,62.75c3.39,0,7.82,5.07,29.71,24.17c2.67,2.33,5.42,4.2,9.29,6.08" stroke-dasharray="49.687" stroke-dashoffset="49.687"><animate attributeName="stroke-dashoffset" values="49.687" fill="freeze" begin="54c0.click" /><animate attributeName="stroke-dashoffset" values="49.687;49.687;0" keyTimes="0;0.854;1" dur="3.403s" fill="freeze" begin="0s;54c0.click" /></path></g></svg>