<svg xmlns="http://www.w3.org/2000/svg" width="109" height="109" viewBox="0 0 109 109" id="54e2"><g fill="none" stroke="#666" stroke-width="9" stroke-linecap="round" stroke-linejoin="round"><g><g><path d="M10.25,34.45c0.34,0.47,0.69,0.86,0.84,1.45c1.19,4.65,3.11,17.46,3.92,25.8" /><path d="M12.38,36.18c8.64-2.04,15.3-3.27,19.31-3.88c1.47-0.22,2.35,1.32,2.14,2.63c-0.87,5.43-2.38,13.32-3.67,20.82" /><path d="M15.17,57.95c4.71-0.69,10.39-0.96,16.86-2.03" /></g><g><g p5:partial xmlns:p5="http://kanjivg.tagaini.net"><path d="M44.01,17.14c1,0.42,4.26,0.07,5.29,0.03c10.3-0.41,25.69-3.02,37.05-3.46c1.55-0.06,2.96,0.08,4.23,0.44" /><path d="M66.08,16.9c0.81,1.38,0.81,2.21,0.81,3.32c0,7.74-0.01,12.26-0.01,24.67" /><path d="M45.36,32.38c0.82,0.55,3.52,0.33,4.36,0.24c8.73-0.97,23.35-1.91,33.61-2.9c1.02-0.1,3.27-0.22,4.8,0.26" /><path d="M38.34,48.8c0.65,0.31,4.01,0.62,5.11,0.51c9.8-1.06,33.09-3.4,49.48-4.15c1.76-0.08,3.88,0.51,4.76,0.99" /></g><g><g p6:part="1" xmlns:p6="http://kanjivg.tagaini.net"><path d="M36.38,69.62c1.29,0.52,3.66,0.61,4.95,0.52c13.42-0.88,36.49-3.64,53.54-4.08c2.15-0.06,3.44,0.25,4.52,0.51" /></g><g><path d="M55.55,54.17c0.62,1.01,1.31,2.06,1.25,3.54c-0.55,13.8-2.05,28.8-18.42,40.4" /></g><g p6:part="2" xmlns:p6="http://kanjivg.tagaini.net"><path d="M78.22,50.98c0.8,0.96,1.38,2.17,1.38,4.1c0,6.51,0,36.88-0.15,42.92" /></g></g></g></g></g><g fill="none" stroke="#000" stroke-width="5" stroke-linecap="round" stroke-linejoin="round"><g><g><path d="M10.25,34.45c0.34,0.47,0.69,0.86,0.84,1.45c1.19,4.65,3.11,17.46,3.92,25.8" stroke-dasharray="27.8" stroke-dashoffset="27.8"><animate id="0" attributeName="stroke-dashoffset" values="27.8;0" dur="0.28s" fill="freeze" begin="0s;54e2.click" /></path><path d="M12.38,36.18c8.64-2.04,15.3-3.27,19.31-3.88c1.47-0.22,2.35,1.32,2.14,2.63c-0.87,5.43-2.38,13.32-3.67,20.82" stroke-dasharray="44.79" stroke-dashoffset="44.79"><animate attributeName="stroke-dashoffset" values="44.79" fill="freeze" begin="54e2.click" /><animate id="1" attributeName="stroke-dashoffset" values="44.79;0" dur="0.45s" fill="freeze" begin="0.end" /></path><path d="M15.17,57.95c4.71-0.69,10.39-0.96,16.86-2.03" stroke-dasharray="16.98" stroke-dashoffset="16.98"><animate attributeName="stroke-dashoffset" values="16.98" fill="freeze" begin="54e2.click" /><animate id="2" attributeName="stroke-dashoffset" values="16.98;0" dur="0.17s" fill="freeze" begin="1.end" /></path></g><g><g p5:partial xmlns:p5="http://kanjivg.tagaini.net"><path d="M44.01,17.14c1,0.42,4.26,0.07,5.29,0.03c10.3-0.41,25.69-3.02,37.05-3.46c1.55-0.06,2.96,0.08,4.23,0.44" stroke-dasharray="46.81" stroke-dashoffset="46.81"><animate attributeName="stroke-dashoffset" values="46.81" fill="freeze" begin="54e2.click" /><animate id="3" attributeName="stroke-dashoffset" values="46.81;0" dur="0.47s" fill="freeze" begin="2.end" /></path><path d="M66.08,16.9c0.81,1.38,0.81,2.21,0.81,3.32c0,7.74-0.01,12.26-0.01,24.67" stroke-dasharray="28.14" stroke-dashoffset="28.14"><animate attributeName="stroke-dashoffset" values="28.14" fill="freeze" begin="54e2.click" /><animate id="4" attributeName="stroke-dashoffset" values="28.14;0" dur="0.28s" fill="freeze" begin="3.end" /></path><path d="M45.36,32.38c0.82,0.55,3.52,0.33,4.36,0.24c8.73-0.97,23.35-1.91,33.61-2.9c1.02-0.1,3.27-0.22,4.8,0.26" stroke-dasharray="42.99" stroke-dashoffset="42.99"><animate attributeName="stroke-dashoffset" values="42.99" fill="freeze" begin="54e2.click" /><animate id="5" attributeName="stroke-dashoffset" values="42.99;0" dur="0.43s" fill="freeze" begin="4.end" /></path><path d="M38.34,48.8c0.65,0.31,4.01,0.62,5.11,0.51c9.8-1.06,33.09-3.4,49.48-4.15c1.76-0.08,3.88,0.51,4.76,0.99" stroke-dasharray="59.72" stroke-dashoffset="59.72"><animate attributeName="stroke-dashoffset" values="59.72" fill="freeze" begin="54e2.click" /><animate id="6" attributeName="stroke-dashoffset" values="59.72;0" dur="0.6s" fill="freeze" begin="5.end" /></path></g><g><g p6:part="1" xmlns:p6="http://kanjivg.tagaini.net"><path d="M36.38,69.62c1.29,0.52,3.66,0.61,4.95,0.52c13.42-0.88,36.49-3.64,53.54-4.08c2.15-0.06,3.44,0.25,4.52,0.51" stroke-dasharray="63.28" stroke-dashoffset="63.28"><animate attributeName="stroke-dashoffset" values="63.28" fill="freeze" begin="54e2.click" /><animate id="7" attributeName="stroke-dashoffset" values="63.28;0" dur="0.48s" fill="freeze" begin="6.end" /></path></g><g><path d="M55.55,54.17c0.62,1.01,1.31,2.06,1.25,3.54c-0.55,13.8-2.05,28.8-18.42,40.4" stroke-dasharray="50.18" stroke-dashoffset="50.18"><animate attributeName="stroke-dashoffset" values="50.18" fill="freeze" begin="54e2.click" /><animate id="8" attributeName="stroke-dashoffset" values="50.18;0" dur="0.5s" fill="freeze" begin="7.end" /></path></g><g p6:part="2" xmlns:p6="http://kanjivg.tagaini.net"><path d="M78.22,50.98c0.8,0.96,1.38,2.17,1.38,4.1c0,6.51,0,36.88-0.15,42.92" stroke-dasharray="47.34" stroke-dashoffset="47.34"><animate attributeName="stroke-dashoffset" values="47.34" fill="freeze" begin="54e2.click" /><animate id="9" attributeName="stroke-dashoffset" values="47.34;0" dur="0.47s" fill="freeze" begin="8.end" /></path></g></g></g></g></g></svg>