<svg xmlns="http://www.w3.org/2000/svg" viewBox="0 0 109 109" id="5507"><g fill="none" stroke="#666" stroke-width="6" stroke-linecap="round" stroke-linejoin="round"><g><g p4:phon="辰" xmlns:p4="http://kanjivg.tagaini.net"><g><path d="M28.24,16.95c2.99,1.02,6.47,0.51,9.52,0.16c11.62-1.36,26.97-2.77,35.13-3.52c2.97-0.28,5.69-0.41,8.62,0.19" /><path d="M29.9,17.73c0.94,0.94,1.19,2.23,1.17,4.31C30.88,38.62,27.5,57.5,15.75,72.3" /></g><path d="M39.92,27.6c2.2,0.4,4.7,0.16,6.73-0.14c6.37-0.94,15.62-2.02,21.74-2.61c2.19-0.21,4.13-0.35,6.29,0.15" /><path d="M34.31,38.43c2.57,0.69,4.66,0.47,7.07,0.21c8.63-0.91,27.16-3.04,35.25-3.62c2.54-0.18,5.35-0.39,7.85,0.19" /><path d="M39.17,40.15c1.09,1.09,1.33,2.73,1.33,4.3c0,6.05,0.07,18.56,0.07,20.38c0,2.54,0.93,2.92,3.33,1.49c2.08-1.24,7.23-4.57,14.14-8.57" /><path d="M74.88,40.89c0,0.86-0.33,1.38-0.82,1.78c-1.18,1.56-4.07,3.95-7.45,5.92" /><path d="M51.45,43.27C55,43.35,71.52,56.48,80.95,63.09c2.89,2.03,5.63,3.42,8.81,4.91" /></g><g><path d="M35.68,74.33c0.94,0.94,1.34,2.11,1.6,3.51c0.97,5.16,2.04,10.53,2.85,16.37c0.23,1.63,0.43,3.2,0.62,4.62" /><path d="M37.97,75.89c9.33-0.91,26.5-2.69,33.66-3.23c3.84-0.29,5.05,1.21,4.23,4.83c-1.05,4.64-1.74,7.88-3.97,15.73" /><path d="M41.66,96.34c5.06-0.29,18.46-1.46,27.35-1.91c1.73-0.09,3.26-0.16,4.51-0.2" /></g></g></g><g fill="none" stroke="#000" stroke-width="3" stroke-linecap="round" stroke-linejoin="round"><path d="M28.24,16.95c2.99,1.02,6.47,0.51,9.52,0.16c11.62-1.36,26.97-2.77,35.13-3.52c2.97-0.28,5.69-0.41,8.62,0.19" stroke-dasharray="53.568" stroke-dashoffset="53.568"><animate attributeName="stroke-dashoffset" values="53.568;53.568;0" dur="0.536s" fill="freeze" begin="0s;5507.click" /></path><path d="M29.9,17.73c0.94,0.94,1.19,2.23,1.17,4.31C30.88,38.62,27.5,57.5,15.75,72.3" stroke-dasharray="58.11" stroke-dashoffset="58.11"><animate attributeName="stroke-dashoffset" values="58.11" fill="freeze" begin="5507.click" /><animate attributeName="stroke-dashoffset" values="58.11;58.11;0" keyTimes="0;0.48;1" dur="1.117s" fill="freeze" begin="0s;5507.click" /></path><path d="M39.92,27.6c2.2,0.4,4.7,0.16,6.73-0.14c6.37-0.94,15.62-2.02,21.74-2.61c2.19-0.21,4.13-0.35,6.29,0.15" stroke-dasharray="34.982" stroke-dashoffset="34.982"><animate attributeName="stroke-dashoffset" values="34.982" fill="freeze" begin="5507.click" /><animate attributeName="stroke-dashoffset" values="34.982;34.982;0" keyTimes="0;0.761;1" dur="1.467s" fill="freeze" begin="0s;5507.click" /></path><path d="M34.31,38.43c2.57,0.69,4.66,0.47,7.07,0.21c8.63-0.91,27.16-3.04,35.25-3.62c2.54-0.18,5.35-0.39,7.85,0.19" stroke-dasharray="50.441" stroke-dashoffset="50.441"><animate attributeName="stroke-dashoffset" values="50.441" fill="freeze" begin="5507.click" /><animate attributeName="stroke-dashoffset" values="50.441;50.441;0" keyTimes="0;0.744;1" dur="1.971s" fill="freeze" begin="0s;5507.click" /></path><path d="M39.17,40.15c1.09,1.09,1.33,2.73,1.33,4.3c0,6.05,0.07,18.56,0.07,20.38c0,2.54,0.93,2.92,3.33,1.49c2.08-1.24,7.23-4.57,14.14-8.57" stroke-dasharray="46.775" stroke-dashoffset="46.775"><animate attributeName="stroke-dashoffset" values="46.775" fill="freeze" begin="5507.click" /><animate attributeName="stroke-dashoffset" values="46.775;46.775;0" keyTimes="0;0.808;1" dur="2.439s" fill="freeze" begin="0s;5507.click" /></path><path d="M74.88,40.89c0,0.86-0.33,1.38-0.82,1.78c-1.18,1.56-4.07,3.95-7.45,5.92" stroke-dasharray="11.599" stroke-dashoffset="11.599"><animate attributeName="stroke-dashoffset" values="11.599" fill="freeze" begin="5507.click" /><animate attributeName="stroke-dashoffset" values="11.599;11.599;0" keyTimes="0;0.955;1" dur="2.555s" fill="freeze" begin="0s;5507.click" /></path><path d="M51.45,43.27C55,43.35,71.52,56.48,80.95,63.09c2.89,2.03,5.63,3.42,8.81,4.91" stroke-dasharray="45.764" stroke-dashoffset="45.764"><animate attributeName="stroke-dashoffset" values="45.764" fill="freeze" begin="5507.click" /><animate attributeName="stroke-dashoffset" values="45.764;45.764;0" keyTimes="0;0.848;1" dur="3.013s" fill="freeze" begin="0s;5507.click" /></path><path d="M35.68,74.33c0.94,0.94,1.34,2.11,1.6,3.51c0.97,5.16,2.04,10.53,2.85,16.37c0.23,1.63,0.43,3.2,0.62,4.62" stroke-dasharray="25.202" stroke-dashoffset="25.202"><animate attributeName="stroke-dashoffset" values="25.202" fill="freeze" begin="5507.click" /><animate attributeName="stroke-dashoffset" values="25.202;25.202;0" keyTimes="0;0.923;1" dur="3.265s" fill="freeze" begin="0s;5507.click" /></path><path d="M37.97,75.89c9.33-0.91,26.5-2.69,33.66-3.23c3.84-0.29,5.05,1.21,4.23,4.83c-1.05,4.64-1.74,7.88-3.97,15.73" stroke-dasharray="58.2" stroke-dashoffset="58.2"><animate attributeName="stroke-dashoffset" values="58.2" fill="freeze" begin="5507.click" /><animate attributeName="stroke-dashoffset" values="58.2;58.2;0" keyTimes="0;0.849;1" dur="3.847s" fill="freeze" begin="0s;5507.click" /></path><path d="M41.66,96.34c5.06-0.29,18.46-1.46,27.35-1.91c1.73-0.09,3.26-0.16,4.51-0.2" stroke-dasharray="31.933" stroke-dashoffset="31.933"><animate attributeName="stroke-dashoffset" values="31.933" fill="freeze" begin="5507.click" /><animate attributeName="stroke-dashoffset" values="31.933;31.933;0" keyTimes="0;0.923;1" dur="4.166s" fill="freeze" begin="0s;5507.click" /></path></g></svg>