<svg xmlns="http://www.w3.org/2000/svg" width="109" height="109" viewBox="0 0 109 109" id="552f"><g fill="none" stroke="#666" stroke-width="9" stroke-linecap="round" stroke-linejoin="round"><g><g><path d="M13.39,37.93c0.91,1.25,0.98,1.92,1.26,3.55c0.8,4.75,1.89,11.95,2.79,18.53c0.31,2.28,0.6,4.48,0.85,6.49" /><path d="M15.71,40.39c6.35-1.16,12.31-2.09,18.18-3.23c2.92-0.56,4.11,0.64,3.61,3.6c-0.88,5.34-1.71,8.55-3.29,17.91" /><path d="M18.8,61.9c4.26-0.47,8.83-1.22,14.23-1.86c1.33-0.16,2.71-0.33,4.14-0.5" /></g><g p4:phon="隹" xmlns:p4="http://kanjivg.tagaini.net"><g><path d="M60.46,13.5c0.19,1.94-0.3,3.23-0.92,4.89c-3.9,10.59-8.85,20.05-17.8,32.94" /><path d="M52.72,39.8c1.12,1.12,1.43,2.46,1.43,3.94c0,8.19-0.02,32.39,0,45.64c0.01,4.99,0.05,6.75,0.05,8.88" /></g><path d="M77.86,21.75c0.07,0.85,0.04,1.99-0.24,2.7c-1.88,4.8-2.66,6.75-5.85,12.42" /><path d="M54.97,41.54c5.23-0.78,19.44-2.84,28.67-4.09c2.49-0.34,5.02-0.58,7.49-1.05" /><path d="M71.63,42.27c0.93,0.93,1.14,2.11,1.14,3.51c0,7.55,0.07,30.35,0.07,42.49" /><path d="M55.2,57.11c4.91-0.64,17.64-2.29,25.7-3.36c2.23-0.3,4.47-0.56,6.69-0.93" /><path d="M55.11,72.2c5.26-0.55,17.99-2.54,26.17-3.78c2.18-0.33,4.35-0.67,6.53-0.96" /><path d="M55.11,90.55c6.59-0.6,22.62-2.12,32.41-3.05c2.31-0.22,4.7-0.3,6.99-0.74" /></g></g></g><g fill="none" stroke="#000" stroke-width="5" stroke-linecap="round" stroke-linejoin="round"><g><g><path d="M13.39,37.93c0.91,1.25,0.98,1.92,1.26,3.55c0.8,4.75,1.89,11.95,2.79,18.53c0.31,2.28,0.6,4.48,0.85,6.49" stroke-dasharray="29.1" stroke-dashoffset="29.1"><animate id="0" attributeName="stroke-dashoffset" values="29.1;0" dur="0.29s" fill="freeze" begin="0s;552f.click" /></path><path d="M15.71,40.39c6.35-1.16,12.31-2.09,18.18-3.23c2.92-0.56,4.11,0.64,3.61,3.6c-0.88,5.34-1.71,8.55-3.29,17.91" stroke-dasharray="43.21" stroke-dashoffset="43.21"><animate attributeName="stroke-dashoffset" values="43.21" fill="freeze" begin="552f.click" /><animate id="1" attributeName="stroke-dashoffset" values="43.21;0" dur="0.43s" fill="freeze" begin="0.end" /></path><path d="M18.8,61.9c4.26-0.47,8.83-1.22,14.23-1.86c1.33-0.16,2.71-0.33,4.14-0.5" stroke-dasharray="18.52" stroke-dashoffset="18.52"><animate attributeName="stroke-dashoffset" values="18.52" fill="freeze" begin="552f.click" /><animate id="2" attributeName="stroke-dashoffset" values="18.52;0" dur="0.19s" fill="freeze" begin="1.end" /></path></g><g p4:phon="隹" xmlns:p4="http://kanjivg.tagaini.net"><g><path d="M60.46,13.5c0.19,1.94-0.3,3.23-0.92,4.89c-3.9,10.59-8.85,20.05-17.8,32.94" stroke-dasharray="42.58" stroke-dashoffset="42.58"><animate attributeName="stroke-dashoffset" values="42.58" fill="freeze" begin="552f.click" /><animate id="3" attributeName="stroke-dashoffset" values="42.58;0" dur="0.43s" fill="freeze" begin="2.end" /></path><path d="M52.72,39.8c1.12,1.12,1.43,2.46,1.43,3.94c0,8.19-0.02,32.39,0,45.64c0.01,4.99,0.05,6.75,0.05,8.88" stroke-dasharray="58.83" stroke-dashoffset="58.83"><animate attributeName="stroke-dashoffset" values="58.83" fill="freeze" begin="552f.click" /><animate id="4" attributeName="stroke-dashoffset" values="58.83;0" dur="0.59s" fill="freeze" begin="3.end" /></path></g><path d="M77.86,21.75c0.07,0.85,0.04,1.99-0.24,2.7c-1.88,4.8-2.66,6.75-5.85,12.42" stroke-dasharray="16.48" stroke-dashoffset="16.48"><animate attributeName="stroke-dashoffset" values="16.48" fill="freeze" begin="552f.click" /><animate id="5" attributeName="stroke-dashoffset" values="16.48;0" dur="0.16s" fill="freeze" begin="4.end" /></path><path d="M54.97,41.54c5.23-0.78,19.44-2.84,28.67-4.09c2.49-0.34,5.02-0.58,7.49-1.05" stroke-dasharray="36.52" stroke-dashoffset="36.52"><animate attributeName="stroke-dashoffset" values="36.52" fill="freeze" begin="552f.click" /><animate id="6" attributeName="stroke-dashoffset" values="36.52;0" dur="0.37s" fill="freeze" begin="5.end" /></path><path d="M71.63,42.27c0.93,0.93,1.14,2.11,1.14,3.51c0,7.55,0.07,30.35,0.07,42.49" stroke-dasharray="46.29" stroke-dashoffset="46.29"><animate attributeName="stroke-dashoffset" values="46.29" fill="freeze" begin="552f.click" /><animate id="7" attributeName="stroke-dashoffset" values="46.29;0" dur="0.46s" fill="freeze" begin="6.end" /></path><path d="M55.2,57.11c4.91-0.64,17.64-2.29,25.7-3.36c2.23-0.3,4.47-0.56,6.69-0.93" stroke-dasharray="32.67" stroke-dashoffset="32.67"><animate attributeName="stroke-dashoffset" values="32.67" fill="freeze" begin="552f.click" /><animate id="8" attributeName="stroke-dashoffset" values="32.67;0" dur="0.33s" fill="freeze" begin="7.end" /></path><path d="M55.11,72.2c5.26-0.55,17.99-2.54,26.17-3.78c2.18-0.33,4.35-0.67,6.53-0.96" stroke-dasharray="33.04" stroke-dashoffset="33.04"><animate attributeName="stroke-dashoffset" values="33.04" fill="freeze" begin="552f.click" /><animate id="9" attributeName="stroke-dashoffset" values="33.04;0" dur="0.33s" fill="freeze" begin="8.end" /></path><path d="M55.11,90.55c6.59-0.6,22.62-2.12,32.41-3.05c2.31-0.22,4.7-0.3,6.99-0.74" stroke-dasharray="39.59" stroke-dashoffset="39.59"><animate attributeName="stroke-dashoffset" values="39.59" fill="freeze" begin="552f.click" /><animate id="10" attributeName="stroke-dashoffset" values="39.59;0" dur="0.4s" fill="freeze" begin="9.end" /></path></g></g></g></svg>