<svg xmlns="http://www.w3.org/2000/svg" width="109" height="109" viewBox="0 0 109 109" id="5533"><g fill="none" stroke="#666" stroke-width="9" stroke-linecap="round" stroke-linejoin="round"><g><g><path d="M11,34.57c0.35,0.45,1.22,1.83,1.37,2.39c1.23,4.46,2.7,16.77,3.54,24.79" /><path d="M12.21,36.22c8.94-1.96,15.77-3.14,19.91-3.73c1.52-0.21,2.43,1.27,2.21,2.53c-0.9,5.21-1.95,13.27-3.28,20.48" /><path d="M16.07,58.09c4.87-0.66,10.75-1.43,17.43-2.45" /></g><g><g><path d="M43.43,18.24c0.86,0.31,3.34,0.36,4.2,0.31c9.94-0.59,22.5-2.2,36.24-4.01c1.42-0.19,3.2,0.15,3.91,0.3" /><path d="M43.2,31.35c1.05,0.39,2.64,1.09,4.7,0.81c10.72-1.46,31.26-3.79,37.97-4.49c1.82-0.19,3.65,1.3,2.96,4.17c-1.21,5.08-1.62,6.86-2.49,9.71" /><path d="M46.61,46.93c7.14-1.18,30.64-3.68,41.77-4.52" /><path d="M45.97,32.75c0.04,1.41,0.3,3.62,0.31,5.65c0.13,25.56-2.53,41.6-15.07,54.1" /></g><g><path d="M49.84,63.29c0.75,0.4,2.75,0.86,4.34,0.69c10.76-1.19,23.78-3.56,33.44-4.13c1.66-0.1,3-0.05,4.5,0.26" /><path d="M67.04,47.96c0.39,0.69,0.59,1.49,0.58,2.99c-0.19,25.91-9.56,39.58-24.97,47.54" /><path d="M67.6,62.81c5.54,9.66,17.85,25.9,25.25,31c2.15,1.48,2.76,1.95,3.69,2.12" /></g></g></g></g><g fill="none" stroke="#000" stroke-width="5" stroke-linecap="round" stroke-linejoin="round"><g><g><path d="M11,34.57c0.35,0.45,1.22,1.83,1.37,2.39c1.23,4.46,2.7,16.77,3.54,24.79" stroke-dasharray="27.82" stroke-dashoffset="27.82"><animate id="0" attributeName="stroke-dashoffset" values="27.82;0" dur="0.28s" fill="freeze" begin="0s;5533.click" /></path><path d="M12.21,36.22c8.94-1.96,15.77-3.14,19.91-3.73c1.52-0.21,2.43,1.27,2.21,2.53c-0.9,5.21-1.95,13.27-3.28,20.48" stroke-dasharray="44.92" stroke-dashoffset="44.92"><animate attributeName="stroke-dashoffset" values="44.92" fill="freeze" begin="5533.click" /><animate id="1" attributeName="stroke-dashoffset" values="44.92;0" dur="0.45s" fill="freeze" begin="0.end" /></path><path d="M16.07,58.09c4.87-0.66,10.75-1.43,17.43-2.45" stroke-dasharray="17.6" stroke-dashoffset="17.6"><animate attributeName="stroke-dashoffset" values="17.6" fill="freeze" begin="5533.click" /><animate id="2" attributeName="stroke-dashoffset" values="17.6;0" dur="0.18s" fill="freeze" begin="1.end" /></path></g><g><g><path d="M43.43,18.24c0.86,0.31,3.34,0.36,4.2,0.31c9.94-0.59,22.5-2.2,36.24-4.01c1.42-0.19,3.2,0.15,3.91,0.3" stroke-dasharray="44.63" stroke-dashoffset="44.63"><animate attributeName="stroke-dashoffset" values="44.63" fill="freeze" begin="5533.click" /><animate id="3" attributeName="stroke-dashoffset" values="44.63;0" dur="0.45s" fill="freeze" begin="2.end" /></path><path d="M43.2,31.35c1.05,0.39,2.64,1.09,4.7,0.81c10.72-1.46,31.26-3.79,37.97-4.49c1.82-0.19,3.65,1.3,2.96,4.17c-1.21,5.08-1.62,6.86-2.49,9.71" stroke-dasharray="59.19" stroke-dashoffset="59.19"><animate attributeName="stroke-dashoffset" values="59.19" fill="freeze" begin="5533.click" /><animate id="4" attributeName="stroke-dashoffset" values="59.19;0" dur="0.59s" fill="freeze" begin="3.end" /></path><path d="M46.61,46.93c7.14-1.18,30.64-3.68,41.77-4.52" stroke-dasharray="42.02" stroke-dashoffset="42.02"><animate attributeName="stroke-dashoffset" values="42.02" fill="freeze" begin="5533.click" /><animate id="5" attributeName="stroke-dashoffset" values="42.02;0" dur="0.42s" fill="freeze" begin="4.end" /></path><path d="M45.97,32.75c0.04,1.41,0.3,3.62,0.31,5.65c0.13,25.56-2.53,41.6-15.07,54.1" stroke-dasharray="63.47" stroke-dashoffset="63.47"><animate attributeName="stroke-dashoffset" values="63.47" fill="freeze" begin="5533.click" /><animate id="6" attributeName="stroke-dashoffset" values="63.47;0" dur="0.48s" fill="freeze" begin="5.end" /></path></g><g><path d="M49.84,63.29c0.75,0.4,2.75,0.86,4.34,0.69c10.76-1.19,23.78-3.56,33.44-4.13c1.66-0.1,3-0.05,4.5,0.26" stroke-dasharray="42.66" stroke-dashoffset="42.66"><animate attributeName="stroke-dashoffset" values="42.66" fill="freeze" begin="5533.click" /><animate id="7" attributeName="stroke-dashoffset" values="42.66;0" dur="0.43s" fill="freeze" begin="6.end" /></path><path d="M67.04,47.96c0.39,0.69,0.59,1.49,0.58,2.99c-0.19,25.91-9.56,39.58-24.97,47.54" stroke-dasharray="59.96" stroke-dashoffset="59.96"><animate attributeName="stroke-dashoffset" values="59.96" fill="freeze" begin="5533.click" /><animate id="8" attributeName="stroke-dashoffset" values="59.96;0" dur="0.6s" fill="freeze" begin="7.end" /></path><path d="M67.6,62.81c5.54,9.66,17.85,25.9,25.25,31c2.15,1.48,2.76,1.95,3.69,2.12" stroke-dasharray="44.47" stroke-dashoffset="44.47"><animate attributeName="stroke-dashoffset" values="44.47" fill="freeze" begin="5533.click" /><animate id="9" attributeName="stroke-dashoffset" values="44.47;0" dur="0.44s" fill="freeze" begin="8.end" /></path></g></g></g></g></svg>