<svg xmlns="http://www.w3.org/2000/svg" viewBox="0 0 109 109" id="5533"><g fill="none" stroke="#666" stroke-width="6" stroke-linecap="round" stroke-linejoin="round"><g><g><path d="M11,34.57c0.35,0.45,1.22,1.83,1.37,2.39c1.23,4.46,2.7,16.77,3.54,24.79" /><path d="M12.21,36.22c8.94-1.96,15.77-3.14,19.91-3.73c1.52-0.21,2.43,1.27,2.21,2.53c-0.9,5.21-1.95,13.27-3.28,20.48" /><path d="M16.07,58.09c4.87-0.66,10.75-1.43,17.43-2.45" /></g><g><g><path d="M43.43,18.24c0.86,0.31,3.34,0.36,4.2,0.31c9.94-0.59,22.5-2.2,36.24-4.01c1.42-0.19,3.2,0.15,3.91,0.3" /><path d="M43.2,31.35c1.05,0.39,2.64,1.09,4.7,0.81c10.72-1.46,31.26-3.79,37.97-4.49c1.82-0.19,3.65,1.3,2.96,4.17c-1.21,5.08-1.62,6.86-2.49,9.71" /><path d="M46.61,46.93c7.14-1.18,30.64-3.68,41.77-4.52" /><path d="M45.97,32.75c0.04,1.41,0.3,3.62,0.31,5.65c0.13,25.56-2.53,41.6-15.07,54.1" /></g><g><path d="M49.84,63.29c0.75,0.4,2.75,0.86,4.34,0.69c10.76-1.19,23.78-3.56,33.44-4.13c1.66-0.1,3-0.05,4.5,0.26" /><path d="M67.04,47.96c0.39,0.69,0.59,1.49,0.58,2.99c-0.19,25.91-9.56,39.58-24.97,47.54" /><path d="M67.6,62.81c5.54,9.66,17.85,25.9,25.25,31c2.15,1.48,2.76,1.95,3.69,2.12" /></g></g></g></g><g fill="none" stroke="#000" stroke-width="3" stroke-linecap="round" stroke-linejoin="round"><path d="M11,34.57c0.35,0.45,1.22,1.83,1.37,2.39c1.23,4.46,2.7,16.77,3.54,24.79" stroke-dasharray="27.822" stroke-dashoffset="27.822"><animate attributeName="stroke-dashoffset" values="27.822;27.822;0" dur="0.278s" fill="freeze" begin="0s;5533.click" /></path><path d="M12.21,36.22c8.94-1.96,15.77-3.14,19.91-3.73c1.52-0.21,2.43,1.27,2.21,2.53c-0.9,5.21-1.95,13.27-3.28,20.48" stroke-dasharray="44.92" stroke-dashoffset="44.92"><animate attributeName="stroke-dashoffset" values="44.92" fill="freeze" begin="5533.click" /><animate attributeName="stroke-dashoffset" values="44.92;44.92;0" keyTimes="0;0.382;1" dur="0.727s" fill="freeze" begin="0s;5533.click" /></path><path d="M16.07,58.09c4.87-0.66,10.75-1.43,17.43-2.45" stroke-dasharray="17.603" stroke-dashoffset="17.603"><animate attributeName="stroke-dashoffset" values="17.603" fill="freeze" begin="5533.click" /><animate attributeName="stroke-dashoffset" values="17.603;17.603;0" keyTimes="0;0.805;1" dur="0.903s" fill="freeze" begin="0s;5533.click" /></path><path d="M43.43,18.24c0.86,0.31,3.34,0.36,4.2,0.31c9.94-0.59,22.5-2.2,36.24-4.01c1.42-0.19,3.2,0.15,3.91,0.3" stroke-dasharray="44.634" stroke-dashoffset="44.634"><animate attributeName="stroke-dashoffset" values="44.634" fill="freeze" begin="5533.click" /><animate attributeName="stroke-dashoffset" values="44.634;44.634;0" keyTimes="0;0.669;1" dur="1.349s" fill="freeze" begin="0s;5533.click" /></path><path d="M43.2,31.35c1.05,0.39,2.64,1.09,4.7,0.81c10.72-1.46,31.26-3.79,37.97-4.49c1.82-0.19,3.65,1.3,2.96,4.17c-1.21,5.08-1.62,6.86-2.49,9.71" stroke-dasharray="59.196" stroke-dashoffset="59.196"><animate attributeName="stroke-dashoffset" values="59.196" fill="freeze" begin="5533.click" /><animate attributeName="stroke-dashoffset" values="59.196;59.196;0" keyTimes="0;0.695;1" dur="1.941s" fill="freeze" begin="0s;5533.click" /></path><path d="M46.61,46.93c7.14-1.18,30.64-3.68,41.77-4.52" stroke-dasharray="42.021" stroke-dashoffset="42.021"><animate attributeName="stroke-dashoffset" values="42.021" fill="freeze" begin="5533.click" /><animate attributeName="stroke-dashoffset" values="42.021;42.021;0" keyTimes="0;0.822;1" dur="2.361s" fill="freeze" begin="0s;5533.click" /></path><path d="M45.97,32.75c0.04,1.41,0.3,3.62,0.31,5.65c0.13,25.56-2.53,41.6-15.07,54.1" stroke-dasharray="63.473" stroke-dashoffset="63.473"><animate attributeName="stroke-dashoffset" values="63.473" fill="freeze" begin="5533.click" /><animate attributeName="stroke-dashoffset" values="63.473;63.473;0" keyTimes="0;0.832;1" dur="2.838s" fill="freeze" begin="0s;5533.click" /></path><path d="M49.84,63.29c0.75,0.4,2.75,0.86,4.34,0.69c10.76-1.19,23.78-3.56,33.44-4.13c1.66-0.1,3-0.05,4.5,0.26" stroke-dasharray="42.664" stroke-dashoffset="42.664"><animate attributeName="stroke-dashoffset" values="42.664" fill="freeze" begin="5533.click" /><animate attributeName="stroke-dashoffset" values="42.664;42.664;0" keyTimes="0;0.869;1" dur="3.265s" fill="freeze" begin="0s;5533.click" /></path><path d="M67.04,47.96c0.39,0.69,0.59,1.49,0.58,2.99c-0.19,25.91-9.56,39.58-24.97,47.54" stroke-dasharray="59.96" stroke-dashoffset="59.96"><animate attributeName="stroke-dashoffset" values="59.96" fill="freeze" begin="5533.click" /><animate attributeName="stroke-dashoffset" values="59.96;59.96;0" keyTimes="0;0.845;1" dur="3.865s" fill="freeze" begin="0s;5533.click" /></path><path d="M67.6,62.81c5.54,9.66,17.85,25.9,25.25,31c2.15,1.48,2.76,1.95,3.69,2.12" stroke-dasharray="44.473" stroke-dashoffset="44.473"><animate attributeName="stroke-dashoffset" values="44.473" fill="freeze" begin="5533.click" /><animate attributeName="stroke-dashoffset" values="44.473;44.473;0" keyTimes="0;0.897;1" dur="4.31s" fill="freeze" begin="0s;5533.click" /></path></g></svg>