<svg xmlns="http://www.w3.org/2000/svg" width="109" height="109" viewBox="0 0 109 109" id="55aa"><g fill="none" stroke="#666" stroke-width="9" stroke-linecap="round" stroke-linejoin="round"><g><g><g><path d="M26.92,25.06c2.64,0.94,6.39,0.37,9.1,0.08c11.23-1.21,26.61-3.26,35.62-3.89c2.49-0.18,4.99-0.37,7.45,0.16" /><g><path d="M52.14,11.38c0.99,0.99,1.66,2.24,1.66,3.78c0,0.8-0.05,34.58-0.05,40.96" /></g></g><g><path d="M23.89,37.89c0.86,0.61,1.46,1.71,1.76,2.81c0.86,3.17,1.61,5.3,2.27,7.77c0.28,1.03,0.41,2.07,0.6,3.03" /><path d="M25.8,38.66c5.65-0.89,10.12-1.65,14.59-2.26c2.54-0.35,4.7-0.6,3.75,2.52c-0.65,2.13-1.31,3.45-2.48,7.72" /><path d="M29.5,48.88c4.5-0.4,6.71-0.9,10.48-1.31c0.98-0.11,2.04-0.21,3.25-0.3" /></g><g><path d="M61.64,34.14c0.71,0.52,0.99,1.24,1.4,2.38c0.76,2.12,1.47,4.89,2.08,7.96c0.22,1.13,0.44,2.24,0.65,3.27" /><path d="M63.3,34.66c6.02-0.91,10.42-1.55,14.97-2.08c2.2-0.25,4.24-0.43,3.46,2.32c-0.67,2.39-1.35,4.28-2.57,8.73" /><path d="M66.4,45.67c4.45-0.53,7.39-0.89,11.12-1.31c0.97-0.11,2.02-0.22,3.21-0.35" /></g></g><g p4:partial xmlns:p4="http://kanjivg.tagaini.net"><g p4:partial><path d="M13.75,60.61C17.38,61,20.86,61,24.63,60.52c15.75-1.99,41.24-4.8,57.13-5.59c3.8-0.19,8.74-0.18,12.25,0.98" /></g><g><path d="M33.05,62.75c0.5,0.54,1.05,3.06,1.05,4c0,5.75-0.09,21.94-0.09,23.94s0.96,2.75,2.82,1.64C41.75,89.38,51.89,83,54,81.5" /><path d="M73.88,62.89c0,0.86-0.36,1.82-1.11,2.5c-2.85,2.62-4.41,3.84-9.85,8.07" /><path d="M45.88,68.25c3.91,0,21.86,12.84,32.38,19.56c3.74,2.38,6.62,4.44,10.99,5.69" /></g></g></g></g><g fill="none" stroke="#000" stroke-width="5" stroke-linecap="round" stroke-linejoin="round"><g><g><g><path d="M26.92,25.06c2.64,0.94,6.39,0.37,9.1,0.08c11.23-1.21,26.61-3.26,35.62-3.89c2.49-0.18,4.99-0.37,7.45,0.16" stroke-dasharray="52.49" stroke-dashoffset="52.49"><animate id="0" attributeName="stroke-dashoffset" values="52.49;0" dur="0.52s" fill="freeze" begin="0s;55aa.click" /></path><g><path d="M52.14,11.38c0.99,0.99,1.66,2.24,1.66,3.78c0,0.8-0.05,34.58-0.05,40.96" stroke-dasharray="45.2" stroke-dashoffset="45.2"><animate attributeName="stroke-dashoffset" values="45.2" fill="freeze" begin="55aa.click" /><animate id="1" attributeName="stroke-dashoffset" values="45.2;0" dur="0.45s" fill="freeze" begin="0.end" /></path></g></g><g><path d="M23.89,37.89c0.86,0.61,1.46,1.71,1.76,2.81c0.86,3.17,1.61,5.3,2.27,7.77c0.28,1.03,0.41,2.07,0.6,3.03" stroke-dasharray="14.56" stroke-dashoffset="14.56"><animate attributeName="stroke-dashoffset" values="14.56" fill="freeze" begin="55aa.click" /><animate id="2" attributeName="stroke-dashoffset" values="14.56;0" dur="0.15s" fill="freeze" begin="1.end" /></path><path d="M25.8,38.66c5.65-0.89,10.12-1.65,14.59-2.26c2.54-0.35,4.7-0.6,3.75,2.52c-0.65,2.13-1.31,3.45-2.48,7.72" stroke-dasharray="29.01" stroke-dashoffset="29.01"><animate attributeName="stroke-dashoffset" values="29.01" fill="freeze" begin="55aa.click" /><animate id="3" attributeName="stroke-dashoffset" values="29.01;0" dur="0.29s" fill="freeze" begin="2.end" /></path><path d="M29.5,48.88c4.5-0.4,6.71-0.9,10.48-1.31c0.98-0.11,2.04-0.21,3.25-0.3" stroke-dasharray="13.83" stroke-dashoffset="13.83"><animate attributeName="stroke-dashoffset" values="13.83" fill="freeze" begin="55aa.click" /><animate id="4" attributeName="stroke-dashoffset" values="13.83;0" dur="0.14s" fill="freeze" begin="3.end" /></path></g><g><path d="M61.64,34.14c0.71,0.52,0.99,1.24,1.4,2.38c0.76,2.12,1.47,4.89,2.08,7.96c0.22,1.13,0.44,2.24,0.65,3.27" stroke-dasharray="14.38" stroke-dashoffset="14.38"><animate attributeName="stroke-dashoffset" values="14.38" fill="freeze" begin="55aa.click" /><animate id="5" attributeName="stroke-dashoffset" values="14.38;0" dur="0.14s" fill="freeze" begin="4.end" /></path><path d="M63.3,34.66c6.02-0.91,10.42-1.55,14.97-2.08c2.2-0.25,4.24-0.43,3.46,2.32c-0.67,2.39-1.35,4.28-2.57,8.73" stroke-dasharray="29.72" stroke-dashoffset="29.72"><animate attributeName="stroke-dashoffset" values="29.72" fill="freeze" begin="55aa.click" /><animate id="6" attributeName="stroke-dashoffset" values="29.72;0" dur="0.3s" fill="freeze" begin="5.end" /></path><path d="M66.4,45.67c4.45-0.53,7.39-0.89,11.12-1.31c0.97-0.11,2.02-0.22,3.21-0.35" stroke-dasharray="14.43" stroke-dashoffset="14.43"><animate attributeName="stroke-dashoffset" values="14.43" fill="freeze" begin="55aa.click" /><animate id="7" attributeName="stroke-dashoffset" values="14.43;0" dur="0.14s" fill="freeze" begin="6.end" /></path></g></g><g p4:partial xmlns:p4="http://kanjivg.tagaini.net"><g p4:partial><path d="M13.75,60.61C17.38,61,20.86,61,24.63,60.52c15.75-1.99,41.24-4.8,57.13-5.59c3.8-0.19,8.74-0.18,12.25,0.98" stroke-dasharray="80.67" stroke-dashoffset="80.67"><animate attributeName="stroke-dashoffset" values="80.67" fill="freeze" begin="55aa.click" /><animate id="8" attributeName="stroke-dashoffset" values="80.67;0" dur="0.61s" fill="freeze" begin="7.end" /></path></g><g><path d="M33.05,62.75c0.5,0.54,1.05,3.06,1.05,4c0,5.75-0.09,21.94-0.09,23.94s0.96,2.75,2.82,1.64C41.75,89.38,51.89,83,54,81.5" stroke-dasharray="52.86" stroke-dashoffset="52.86"><animate attributeName="stroke-dashoffset" values="52.86" fill="freeze" begin="55aa.click" /><animate id="9" attributeName="stroke-dashoffset" values="52.86;0" dur="0.53s" fill="freeze" begin="8.end" /></path><path d="M73.88,62.89c0,0.86-0.36,1.82-1.11,2.5c-2.85,2.62-4.41,3.84-9.85,8.07" stroke-dasharray="15.55" stroke-dashoffset="15.55"><animate attributeName="stroke-dashoffset" values="15.55" fill="freeze" begin="55aa.click" /><animate id="10" attributeName="stroke-dashoffset" values="15.55;0" dur="0.16s" fill="freeze" begin="9.end" /></path><path d="M45.88,68.25c3.91,0,21.86,12.84,32.38,19.56c3.74,2.38,6.62,4.44,10.99,5.69" stroke-dasharray="50.39" stroke-dashoffset="50.39"><animate attributeName="stroke-dashoffset" values="50.39" fill="freeze" begin="55aa.click" /><animate id="11" attributeName="stroke-dashoffset" values="50.39;0" dur="0.5s" fill="freeze" begin="10.end" /></path></g></g></g></g></svg>