<svg xmlns="http://www.w3.org/2000/svg" width="109" height="109" viewBox="0 0 109 109" id="55ac"><g fill="none" stroke="#666" stroke-width="6" stroke-linecap="round" stroke-linejoin="round"><g><g><g><g><path d="M68.95,8.98c-0.57,1.52-1.88,2.55-2.73,3.06c-5.93,3.55-19.23,8.07-36.91,9.79" /></g><g><path d="M18.62,32.46c3.6,0.91,7.67,0.36,11.26-0.11c14.16-1.85,34.45-4.44,48.11-5.04c3.88-0.17,7.65-0.17,11.5,0.37" /><path d="M50.41,21.69C50.25,22.88,49.73,24,49,24.88C38.12,38,30.25,46,14,55.34" /><path d="M61.5,29.48c5.91,4.12,16.96,12.53,24.56,17.04c2.4,1.42,4.19,2.61,7.44,3.73" /></g></g><g><path d="M36.75,41.07c0.59,0.59,1,1.43,1.32,2.42c0.84,2.57,1.27,6.18,1.92,9.27c0.27,1.27,0.52,2.47,0.76,3.5" /><path d="M38.6,42.16c8.22-1.07,18.98-2.25,24.02-2.99c2.1-0.31,4.88,0.15,4.08,2.8c-0.78,2.57-1.44,5.52-2.05,7.89" /><path d="M41.5,54c6.38-0.62,13.01-1.54,20.39-2.32c1.52-0.16,2.99-0.18,4.36-0.18" /></g></g><g><g><path d="M24.75,61.39c1.04,1.03,1.08,2.18,1.13,3.49c0.24,6.57,1.09,19.21,1.45,27.88c0.13,3.07,0.22,5.28,0.22,5.75" /><path d="M26.7,63.88c10.93-1.13,46.18-4.63,52.83-5.23c3.74-0.34,5.84,1.44,5.47,5.85c-0.25,3-2.25,18.5-5,29.5c-1.58,6.33-4.12,4.38-7.75,0" /></g><g><path d="M39.75,72.57c0.88,0.56,1.19,1.43,1.54,3.04c0.57,2.64,1.03,5.47,1.69,8.59c0.27,1.29,0.53,2.51,0.77,3.55" /><path d="M41.6,73.66c8.53-1.41,15.75-2.36,20.15-3.16c2.75-0.5,3.8,0.94,3.25,3c-1.12,4.25-1.5,5-2.86,9.12" /><path d="M44,86c4.1-0.66,10.8-1.37,16.26-2.14c1.44-0.2,2.74-0.36,3.99-0.36" /></g></g></g></g><g fill="none" stroke="#000" stroke-width="3" stroke-linecap="round" stroke-linejoin="round"><path d="M68.95,8.98c-0.57,1.52-1.88,2.55-2.73,3.06c-5.93,3.55-19.23,8.07-36.91,9.79" stroke-dasharray="42.608" stroke-dashoffset="42.608"><animate attributeName="stroke-dashoffset" values="42.608;42.608;0" dur="0.426s" fill="freeze" begin="0s;55ac.click" /></path><path d="M18.62,32.46c3.6,0.91,7.67,0.36,11.26-0.11c14.16-1.85,34.45-4.44,48.11-5.04c3.88-0.17,7.65-0.17,11.5,0.37" stroke-dasharray="71.24" stroke-dashoffset="71.24"><animate attributeName="stroke-dashoffset" values="71.24" fill="freeze" begin="55ac.click" /><animate attributeName="stroke-dashoffset" values="71.24;71.24;0" keyTimes="0;0.443;1" dur="0.962s" fill="freeze" begin="0s;55ac.click" /></path><path d="M50.41,21.69C50.25,22.88,49.73,24,49,24.88C38.12,38,30.25,46,14,55.34" stroke-dasharray="50.245" stroke-dashoffset="50.245"><animate attributeName="stroke-dashoffset" values="50.245" fill="freeze" begin="55ac.click" /><animate attributeName="stroke-dashoffset" values="50.245;50.245;0" keyTimes="0;0.657;1" dur="1.464s" fill="freeze" begin="0s;55ac.click" /></path><path d="M61.5,29.48c5.91,4.12,16.96,12.53,24.56,17.04c2.4,1.42,4.19,2.61,7.44,3.73" stroke-dasharray="38.244" stroke-dashoffset="38.244"><animate attributeName="stroke-dashoffset" values="38.244" fill="freeze" begin="55ac.click" /><animate attributeName="stroke-dashoffset" values="38.244;38.244;0" keyTimes="0;0.793;1" dur="1.846s" fill="freeze" begin="0s;55ac.click" /></path><path d="M36.75,41.07c0.59,0.59,1,1.43,1.32,2.42c0.84,2.57,1.27,6.18,1.92,9.27c0.27,1.27,0.52,2.47,0.76,3.5" stroke-dasharray="15.837" stroke-dashoffset="15.837"><animate attributeName="stroke-dashoffset" values="15.837" fill="freeze" begin="55ac.click" /><animate attributeName="stroke-dashoffset" values="15.837;15.837;0" keyTimes="0;0.921;1" dur="2.004s" fill="freeze" begin="0s;55ac.click" /></path><path d="M38.6,42.16c8.22-1.07,18.98-2.25,24.02-2.99c2.1-0.31,4.88,0.15,4.08,2.8c-0.78,2.57-1.44,5.52-2.05,7.89" stroke-dasharray="38.519" stroke-dashoffset="38.519"><animate attributeName="stroke-dashoffset" values="38.519" fill="freeze" begin="55ac.click" /><animate attributeName="stroke-dashoffset" values="38.519;38.519;0" keyTimes="0;0.839;1" dur="2.389s" fill="freeze" begin="0s;55ac.click" /></path><path d="M41.5,54c6.38-0.62,13.01-1.54,20.39-2.32c1.52-0.16,2.99-0.18,4.36-0.18" stroke-dasharray="24.889" stroke-dashoffset="24.889"><animate attributeName="stroke-dashoffset" values="24.889" fill="freeze" begin="55ac.click" /><animate attributeName="stroke-dashoffset" values="24.889;24.889;0" keyTimes="0;0.906;1" dur="2.638s" fill="freeze" begin="0s;55ac.click" /></path><path d="M24.75,61.39c1.04,1.03,1.08,2.18,1.13,3.49c0.24,6.57,1.09,19.21,1.45,27.88c0.13,3.07,0.22,5.28,0.22,5.75" stroke-dasharray="37.45" stroke-dashoffset="37.45"><animate attributeName="stroke-dashoffset" values="37.45" fill="freeze" begin="55ac.click" /><animate attributeName="stroke-dashoffset" values="37.45;37.45;0" keyTimes="0;0.876;1" dur="3.012s" fill="freeze" begin="0s;55ac.click" /></path><path d="M26.7,63.88c10.93-1.13,46.18-4.63,52.83-5.23c3.74-0.34,5.84,1.44,5.47,5.85c-0.25,3-2.25,18.5-5,29.5c-1.58,6.33-4.12,4.38-7.75,0" stroke-dasharray="104.423" stroke-dashoffset="104.423"><animate attributeName="stroke-dashoffset" values="104.423" fill="freeze" begin="55ac.click" /><animate attributeName="stroke-dashoffset" values="104.423;104.423;0" keyTimes="0;0.793;1" dur="3.797s" fill="freeze" begin="0s;55ac.click" /></path><path d="M39.75,72.57c0.88,0.56,1.19,1.43,1.54,3.04c0.57,2.64,1.03,5.47,1.69,8.59c0.27,1.29,0.53,2.51,0.77,3.55" stroke-dasharray="15.897" stroke-dashoffset="15.897"><animate attributeName="stroke-dashoffset" values="15.897" fill="freeze" begin="55ac.click" /><animate attributeName="stroke-dashoffset" values="15.897;15.897;0" keyTimes="0;0.96;1" dur="3.956s" fill="freeze" begin="0s;55ac.click" /></path><path d="M41.6,73.66c8.53-1.41,15.75-2.36,20.15-3.16c2.75-0.5,3.8,0.94,3.25,3c-1.12,4.25-1.5,5-2.86,9.12" stroke-dasharray="35.594" stroke-dashoffset="35.594"><animate attributeName="stroke-dashoffset" values="35.594" fill="freeze" begin="55ac.click" /><animate attributeName="stroke-dashoffset" values="35.594;35.594;0" keyTimes="0;0.917;1" dur="4.312s" fill="freeze" begin="0s;55ac.click" /></path><path d="M44,86c4.1-0.66,10.8-1.37,16.26-2.14c1.44-0.2,2.74-0.36,3.99-0.36" stroke-dasharray="20.411" stroke-dashoffset="20.411"><animate attributeName="stroke-dashoffset" values="20.411" fill="freeze" begin="55ac.click" /><animate attributeName="stroke-dashoffset" values="20.411;20.411;0" keyTimes="0;0.955;1" dur="4.516s" fill="freeze" begin="0s;55ac.click" /></path></g></svg>