<svg xmlns="http://www.w3.org/2000/svg" viewBox="0 0 109 109" id="55bb"><g fill="none" stroke="#666" stroke-width="6" stroke-linecap="round" stroke-linejoin="round"><g><g><path d="M9.75,34.07c0.34,0.47,0.69,0.86,0.83,1.46c1.18,4.68,3.58,17.57,4.39,25.97" /><path d="M11.36,35.74c7.14-0.99,16.38-2.64,20.35-3.25c1.45-0.22,2.32,1.33,2.12,2.65c-0.86,5.46-1.87,12.06-3.14,19.61" /><path d="M15.13,57.9c4.66-0.69,10.6-1.39,17-2.46" /></g><g><g><path d="M65.21,11.25c0.07,0.84,0.37,2.27-0.15,3.38C61,23.5,52.75,36.75,39.5,47" /><path d="M65.05,15.36c4.18,4.82,22.2,20.54,26.82,24.06c1.56,1.2,3.57,1.71,5.14,2.05" /></g><g><g><path d="M53.53,40.39c0.52,0.26,1.47,0.28,1.99,0.26C59,40.5,73.75,38,77,38.51c0.86,0.13,1.38,0.12,1.82,0.25" /></g><g><path d="M46.81,52.73c0.85,0.85,1.1,1.89,1.1,3.3c0,0.71-0.04,21.35-0.04,32.22c0,3.81,0.02,5.83,0,6.38" /><path d="M48.52,54.36c0.99-0.11,8.18-1.85,11.38-2.49c2.81-0.57,3.52,0.56,3.46,3.26c-0.11,4.76,0,23.9,0,33.49c0,9.53-4.32,2.46-5.34,1.26" /><path d="M49.03,64.7c3.52-0.49,9.64-1.4,13.21-1.85" /><path d="M48.83,75.28c3.91-0.28,8.46-1.03,13.13-1.32" /></g><g><path d="M76.48,52.96c0.78,0.78,1.25,1.76,1.25,3.68c0,1.91-0.01,12.31-0.01,18.74c0,2.77,0,4.05,0,4.35" /><path d="M89.72,48.13c0.95,0.95,1.25,2.12,1.25,4.18c0,9.22-0.1,34.43-0.1,37.57c0,7.75-5.13,0.95-6.2,0.16" /></g></g></g></g></g><g fill="none" stroke="#000" stroke-width="3" stroke-linecap="round" stroke-linejoin="round"><path d="M9.75,34.07c0.34,0.47,0.69,0.86,0.83,1.46c1.18,4.68,3.58,17.57,4.39,25.97" stroke-dasharray="28.049" stroke-dashoffset="28.049"><animate attributeName="stroke-dashoffset" values="28.049;28.049;0" dur="0.28s" fill="freeze" begin="0s;55bb.click" /></path><path d="M11.36,35.74c7.14-0.99,16.38-2.64,20.35-3.25c1.45-0.22,2.32,1.33,2.12,2.65c-0.86,5.46-1.87,12.06-3.14,19.61" stroke-dasharray="44.41" stroke-dashoffset="44.41"><animate attributeName="stroke-dashoffset" values="44.41" fill="freeze" begin="55bb.click" /><animate attributeName="stroke-dashoffset" values="44.41;44.41;0" keyTimes="0;0.387;1" dur="0.724s" fill="freeze" begin="0s;55bb.click" /></path><path d="M15.13,57.9c4.66-0.69,10.6-1.39,17-2.46" stroke-dasharray="17.179" stroke-dashoffset="17.179"><animate attributeName="stroke-dashoffset" values="17.179" fill="freeze" begin="55bb.click" /><animate attributeName="stroke-dashoffset" values="17.179;17.179;0" keyTimes="0;0.808;1" dur="0.896s" fill="freeze" begin="0s;55bb.click" /></path><path d="M65.21,11.25c0.07,0.84,0.37,2.27-0.15,3.38C61,23.5,52.75,36.75,39.5,47" stroke-dasharray="45.058" stroke-dashoffset="45.058"><animate attributeName="stroke-dashoffset" values="45.058" fill="freeze" begin="55bb.click" /><animate attributeName="stroke-dashoffset" values="45.058;45.058;0" keyTimes="0;0.665;1" dur="1.347s" fill="freeze" begin="0s;55bb.click" /></path><path d="M65.05,15.36c4.18,4.82,22.2,20.54,26.82,24.06c1.56,1.2,3.57,1.71,5.14,2.05" stroke-dasharray="41.634" stroke-dashoffset="41.634"><animate attributeName="stroke-dashoffset" values="41.634" fill="freeze" begin="55bb.click" /><animate attributeName="stroke-dashoffset" values="41.634;41.634;0" keyTimes="0;0.764;1" dur="1.763s" fill="freeze" begin="0s;55bb.click" /></path><path d="M53.53,40.39c0.52,0.26,1.47,0.28,1.99,0.26C59,40.5,73.75,38,77,38.51c0.86,0.13,1.38,0.12,1.82,0.25" stroke-dasharray="25.475" stroke-dashoffset="25.475"><animate attributeName="stroke-dashoffset" values="25.475" fill="freeze" begin="55bb.click" /><animate attributeName="stroke-dashoffset" values="25.475;25.475;0" keyTimes="0;0.874;1" dur="2.018s" fill="freeze" begin="0s;55bb.click" /></path><path d="M46.81,52.73c0.85,0.85,1.1,1.89,1.1,3.3c0,0.71-0.04,21.35-0.04,32.22c0,3.81,0.02,5.83,0,6.38" stroke-dasharray="42.182" stroke-dashoffset="42.182"><animate attributeName="stroke-dashoffset" values="42.182" fill="freeze" begin="55bb.click" /><animate attributeName="stroke-dashoffset" values="42.182;42.182;0" keyTimes="0;0.827;1" dur="2.44s" fill="freeze" begin="0s;55bb.click" /></path><path d="M48.52,54.36c0.99-0.11,8.18-1.85,11.38-2.49c2.81-0.57,3.52,0.56,3.46,3.26c-0.11,4.76,0,23.9,0,33.49c0,9.53-4.32,2.46-5.34,1.26" stroke-dasharray="62.018" stroke-dashoffset="62.018"><animate attributeName="stroke-dashoffset" values="62.018" fill="freeze" begin="55bb.click" /><animate attributeName="stroke-dashoffset" values="62.018;62.018;0" keyTimes="0;0.84;1" dur="2.906s" fill="freeze" begin="0s;55bb.click" /></path><path d="M49.03,64.7c3.52-0.49,9.64-1.4,13.21-1.85" stroke-dasharray="13.34" stroke-dashoffset="13.34"><animate attributeName="stroke-dashoffset" values="13.34" fill="freeze" begin="55bb.click" /><animate attributeName="stroke-dashoffset" values="13.34;13.34;0" keyTimes="0;0.916;1" dur="3.173s" fill="freeze" begin="0s;55bb.click" /></path><path d="M48.83,75.28c3.91-0.28,8.46-1.03,13.13-1.32" stroke-dasharray="13.199" stroke-dashoffset="13.199"><animate attributeName="stroke-dashoffset" values="13.199" fill="freeze" begin="55bb.click" /><animate attributeName="stroke-dashoffset" values="13.199;13.199;0" keyTimes="0;0.923;1" dur="3.437s" fill="freeze" begin="0s;55bb.click" /></path><path d="M76.48,52.96c0.78,0.78,1.25,1.76,1.25,3.68c0,1.91-0.01,12.31-0.01,18.74c0,2.77,0,4.05,0,4.35" stroke-dasharray="27.093" stroke-dashoffset="27.093"><animate attributeName="stroke-dashoffset" values="27.093" fill="freeze" begin="55bb.click" /><animate attributeName="stroke-dashoffset" values="27.093;27.093;0" keyTimes="0;0.927;1" dur="3.708s" fill="freeze" begin="0s;55bb.click" /></path><path d="M89.72,48.13c0.95,0.95,1.25,2.12,1.25,4.18c0,9.22-0.1,34.43-0.1,37.57c0,7.75-5.13,0.95-6.2,0.16" stroke-dasharray="52.376" stroke-dashoffset="52.376"><animate attributeName="stroke-dashoffset" values="52.376" fill="freeze" begin="55bb.click" /><animate attributeName="stroke-dashoffset" values="52.376;52.376;0" keyTimes="0;0.876;1" dur="4.232s" fill="freeze" begin="0s;55bb.click" /></path></g></svg>