<svg xmlns="http://www.w3.org/2000/svg" viewBox="0 0 109 109" id="55c4"><g fill="none" stroke="#666" stroke-width="6" stroke-linecap="round" stroke-linejoin="round"><g><g><path d="M12.75,34.06c0.35,0.45,0.72,0.82,0.87,1.38c1.23,4.42,3.7,18.12,4.54,26.06" /><path d="M14.96,36.18c8.94-1.94,15.27-3.11,19.41-3.69c1.52-0.21,2.43,1.26,2.21,2.51c-0.9,5.17-2.45,12.65-3.78,19.8" /><path d="M17.82,57.86c4.87-0.66,10.75-1.42,17.43-2.43" /></g><g><g><path d="M40.93,16.13c1.09,0.23,3.07,0.24,4.16,0.23c9.45-0.08,22.69-2.64,43.46-2.7c1.81-0.01,2.89,0.11,3.8,0.23" /><g><path d="M64.56,15.19c0.24,0.11,0.54,1.75,0.44,2.11c-0.79,2.93-2.26,5.52-4.64,8.24" /><g><path d="M48.11,26.85c0.55,0.63,1.35,2.09,1.35,2.94c0,0.84,1.82,24.45,2,25.29" /><path d="M48.87,28.09c3.1-0.11,28.78-3.24,31.61-3.37c2.36-0.11,4.01,0.82,4.01,3.34c0,1.03-1,15.19-1.49,26.38" /><path d="M50.82,36.27c6.12-0.14,28.44-2.63,33.41-2.63" /><path d="M51.07,44.79c8.22-0.35,24.31-2.55,32.29-2.55" /><path d="M51.87,53.96c6.88-0.71,22.85-2.73,30.82-2.73" /></g></g></g><g><path d="M57.72,56.08c0.06,0.59,0.13,1.53-0.12,2.38c-1.51,5-10.18,15.98-22.05,22.7" /><path d="M57.68,64.87c0.38,0.03,2.17,0,3.26-0.08c3.6-0.26,11.05-1.74,16.2-2.55c3.53-0.56,3.61,1.62,2.7,3.14C74.9,73.66,55.2,91.84,33.46,97.75" /><path d="M52.43,69.36c5.55,4.7,29.17,21.54,36.65,25.83c2.23,1.28,4.04,1.9,6.21,2.29" /></g></g></g></g><g fill="none" stroke="#000" stroke-width="3" stroke-linecap="round" stroke-linejoin="round"><path d="M12.75,34.06c0.35,0.45,0.72,0.82,0.87,1.38c1.23,4.42,3.7,18.12,4.54,26.06" stroke-dasharray="28.115" stroke-dashoffset="28.115"><animate attributeName="stroke-dashoffset" values="28.115;28.115;0" dur="0.281s" fill="freeze" begin="0s;55c4.click" /></path><path d="M14.96,36.18c8.94-1.94,15.27-3.11,19.41-3.69c1.52-0.21,2.43,1.26,2.21,2.51c-0.9,5.17-2.45,12.65-3.78,19.8" stroke-dasharray="43.821" stroke-dashoffset="43.821"><animate attributeName="stroke-dashoffset" values="43.821" fill="freeze" begin="55c4.click" /><animate attributeName="stroke-dashoffset" values="43.821;43.821;0" keyTimes="0;0.391;1" dur="0.719s" fill="freeze" begin="0s;55c4.click" /></path><path d="M17.82,57.86c4.87-0.66,10.75-1.42,17.43-2.43" stroke-dasharray="17.6" stroke-dashoffset="17.6"><animate attributeName="stroke-dashoffset" values="17.6" fill="freeze" begin="55c4.click" /><animate attributeName="stroke-dashoffset" values="17.6;17.6;0" keyTimes="0;0.803;1" dur="0.895s" fill="freeze" begin="0s;55c4.click" /></path><path d="M40.93,16.13c1.09,0.23,3.07,0.24,4.16,0.23c9.45-0.08,22.69-2.64,43.46-2.7c1.81-0.01,2.89,0.11,3.8,0.23" stroke-dasharray="51.546" stroke-dashoffset="51.546"><animate attributeName="stroke-dashoffset" values="51.546" fill="freeze" begin="55c4.click" /><animate attributeName="stroke-dashoffset" values="51.546;51.546;0" keyTimes="0;0.635;1" dur="1.41s" fill="freeze" begin="0s;55c4.click" /></path><path d="M64.56,15.19c0.24,0.11,0.54,1.75,0.44,2.11c-0.79,2.93-2.26,5.52-4.64,8.24" stroke-dasharray="11.74" stroke-dashoffset="11.74"><animate attributeName="stroke-dashoffset" values="11.74" fill="freeze" begin="55c4.click" /><animate attributeName="stroke-dashoffset" values="11.74;11.74;0" keyTimes="0;0.923;1" dur="1.527s" fill="freeze" begin="0s;55c4.click" /></path><path d="M48.11,26.85c0.55,0.63,1.35,2.09,1.35,2.94c0,0.84,1.82,24.45,2,25.29" stroke-dasharray="28.653" stroke-dashoffset="28.653"><animate attributeName="stroke-dashoffset" values="28.653" fill="freeze" begin="55c4.click" /><animate attributeName="stroke-dashoffset" values="28.653;28.653;0" keyTimes="0;0.842;1" dur="1.814s" fill="freeze" begin="0s;55c4.click" /></path><path d="M48.87,28.09c3.1-0.11,28.78-3.24,31.61-3.37c2.36-0.11,4.01,0.82,4.01,3.34c0,1.03-1,15.19-1.49,26.38" stroke-dasharray="64.238" stroke-dashoffset="64.238"><animate attributeName="stroke-dashoffset" values="64.238" fill="freeze" begin="55c4.click" /><animate attributeName="stroke-dashoffset" values="64.238;64.238;0" keyTimes="0;0.79;1" dur="2.297s" fill="freeze" begin="0s;55c4.click" /></path><path d="M50.82,36.27c6.12-0.14,28.44-2.63,33.41-2.63" stroke-dasharray="33.519" stroke-dashoffset="33.519"><animate attributeName="stroke-dashoffset" values="33.519" fill="freeze" begin="55c4.click" /><animate attributeName="stroke-dashoffset" values="33.519;33.519;0" keyTimes="0;0.873;1" dur="2.632s" fill="freeze" begin="0s;55c4.click" /></path><path d="M51.07,44.79c8.22-0.35,24.31-2.55,32.29-2.55" stroke-dasharray="32.4" stroke-dashoffset="32.4"><animate attributeName="stroke-dashoffset" values="32.4" fill="freeze" begin="55c4.click" /><animate attributeName="stroke-dashoffset" values="32.4;32.4;0" keyTimes="0;0.89;1" dur="2.956s" fill="freeze" begin="0s;55c4.click" /></path><path d="M51.87,53.96c6.88-0.71,22.85-2.73,30.82-2.73" stroke-dasharray="30.953" stroke-dashoffset="30.953"><animate attributeName="stroke-dashoffset" values="30.953" fill="freeze" begin="55c4.click" /><animate attributeName="stroke-dashoffset" values="30.953;30.953;0" keyTimes="0;0.905;1" dur="3.266s" fill="freeze" begin="0s;55c4.click" /></path><path d="M57.72,56.08c0.06,0.59,0.13,1.53-0.12,2.38c-1.51,5-10.18,15.98-22.05,22.7" stroke-dasharray="34.563" stroke-dashoffset="34.563"><animate attributeName="stroke-dashoffset" values="34.563" fill="freeze" begin="55c4.click" /><animate attributeName="stroke-dashoffset" values="34.563;34.563;0" keyTimes="0;0.904;1" dur="3.612s" fill="freeze" begin="0s;55c4.click" /></path><path d="M57.68,64.87c0.38,0.03,2.17,0,3.26-0.08c3.6-0.26,11.05-1.74,16.2-2.55c3.53-0.56,3.61,1.62,2.7,3.14C74.9,73.66,55.2,91.84,33.46,97.75" stroke-dasharray="83.01" stroke-dashoffset="83.01"><animate attributeName="stroke-dashoffset" values="83.01" fill="freeze" begin="55c4.click" /><animate attributeName="stroke-dashoffset" values="83.01;83.01;0" keyTimes="0;0.853;1" dur="4.236s" fill="freeze" begin="0s;55c4.click" /></path><path d="M52.43,69.36c5.55,4.7,29.17,21.54,36.65,25.83c2.23,1.28,4.04,1.9,6.21,2.29" stroke-dasharray="51.517" stroke-dashoffset="51.517"><animate attributeName="stroke-dashoffset" values="51.517" fill="freeze" begin="55c4.click" /><animate attributeName="stroke-dashoffset" values="51.517;51.517;0" keyTimes="0;0.892;1" dur="4.751s" fill="freeze" begin="0s;55c4.click" /></path></g></svg>