<svg xmlns="http://www.w3.org/2000/svg" width="109" height="109" viewBox="0 0 109 109" id="5606"><g fill="none" stroke="#666" stroke-width="9" stroke-linecap="round" stroke-linejoin="round"><g><g><path d="M11.89,34.65c0.8,0.72,1.23,1.6,1.42,2.96c0.82,5.76,2.26,15.41,3.26,22.67c0.26,1.92,0.5,3.55,0.68,4.72" /><path d="M14.06,36.12c5.89-0.81,12.9-1.69,18.6-2.52c3.17-0.46,3.97,0.41,3.44,3.49c-0.86,5.07-2.23,13.9-3.43,21.12" /><path d="M17.75,60.62c3.89-0.36,8.1-0.93,13.07-1.49c1.16-0.13,2.35-0.26,3.6-0.39" /></g><g><g><path d="M40.57,24.06c2.06,0.44,4.37,0.35,6.43,0.11c10.2-1.16,27.23-3.37,37.75-3.91c2.47-0.13,5.01-0.33,7.43,0.29" /><path d="M53.25,13.5c0.74,0.82,1.24,1.93,1.38,2.72c1.28,7.39,1.65,12.46,2.01,15.15" /><path d="M75.39,10.75c0.38,1.08,0.54,2.11,0.21,3.46c-1.2,4.87-2.22,10.04-3.56,16.15" /></g><g><path d="M44.5,38.05c0.73,0.73,1.08,1.5,1.25,2.45c0.89,2.68,1.5,6.75,2.14,10.73c0.2,1.24,0.4,2.5,0.61,3.72" /><path d="M46.63,39.23c7.88-1.17,26.91-3.37,34.87-4.22c2.67-0.29,5.02,0.05,3.95,3.84c-0.99,3.49-1.88,6.34-3.29,10.96" /><path d="M49.7,53.37c4.79-0.4,19.95-1.74,29.57-2.61c2.03-0.18,3.81-0.35,5.19-0.47" /></g><g><path d="M45.46,62.93c2.66,0.69,4.87,0.42,7.05,0.17c7.48-0.87,19.37-2.1,27.62-2.88c2.08-0.2,4.29-0.26,6.34,0.27" /><g><path d="M39.59,75.29c2.57,0.62,5.2,0.28,7.79,0.04c10.37-0.96,30.02-2.98,38.74-3.5c2.33-0.14,4.88-0.21,7.2,0.37" /><path d="M64.08,38.92c0.75,0.75,0.94,1.83,0.94,3.24c0,39.91-6.49,47.97-28.77,55.33" /><path d="M64.5,74.37c6.7,6.03,14.62,13.1,21.27,17.66c2.44,1.68,5.73,3.59,8.73,4.68" /></g></g></g></g></g><g fill="none" stroke="#000" stroke-width="5" stroke-linecap="round" stroke-linejoin="round"><g><g><path d="M11.89,34.65c0.8,0.72,1.23,1.6,1.42,2.96c0.82,5.76,2.26,15.41,3.26,22.67c0.26,1.92,0.5,3.55,0.68,4.72" stroke-dasharray="31.03" stroke-dashoffset="31.03"><animate id="0" attributeName="stroke-dashoffset" values="31.03;0" dur="0.31s" fill="freeze" begin="0s;5606.click" /></path><path d="M14.06,36.12c5.89-0.81,12.9-1.69,18.6-2.52c3.17-0.46,3.97,0.41,3.44,3.49c-0.86,5.07-2.23,13.9-3.43,21.12" stroke-dasharray="46.61" stroke-dashoffset="46.61"><animate attributeName="stroke-dashoffset" values="46.61" fill="freeze" begin="5606.click" /><animate id="1" attributeName="stroke-dashoffset" values="46.61;0" dur="0.47s" fill="freeze" begin="0.end" /></path><path d="M17.75,60.62c3.89-0.36,8.1-0.93,13.07-1.49c1.16-0.13,2.35-0.26,3.6-0.39" stroke-dasharray="16.78" stroke-dashoffset="16.78"><animate attributeName="stroke-dashoffset" values="16.78" fill="freeze" begin="5606.click" /><animate id="2" attributeName="stroke-dashoffset" values="16.78;0" dur="0.17s" fill="freeze" begin="1.end" /></path></g><g><g><path d="M40.57,24.06c2.06,0.44,4.37,0.35,6.43,0.11c10.2-1.16,27.23-3.37,37.75-3.91c2.47-0.13,5.01-0.33,7.43,0.29" stroke-dasharray="51.88" stroke-dashoffset="51.88"><animate attributeName="stroke-dashoffset" values="51.88" fill="freeze" begin="5606.click" /><animate id="3" attributeName="stroke-dashoffset" values="51.88;0" dur="0.52s" fill="freeze" begin="2.end" /></path><path d="M53.25,13.5c0.74,0.82,1.24,1.93,1.38,2.72c1.28,7.39,1.65,12.46,2.01,15.15" stroke-dasharray="18.37" stroke-dashoffset="18.37"><animate attributeName="stroke-dashoffset" values="18.37" fill="freeze" begin="5606.click" /><animate id="4" attributeName="stroke-dashoffset" values="18.37;0" dur="0.18s" fill="freeze" begin="3.end" /></path><path d="M75.39,10.75c0.38,1.08,0.54,2.11,0.21,3.46c-1.2,4.87-2.22,10.04-3.56,16.15" stroke-dasharray="20.06" stroke-dashoffset="20.06"><animate attributeName="stroke-dashoffset" values="20.06" fill="freeze" begin="5606.click" /><animate id="5" attributeName="stroke-dashoffset" values="20.06;0" dur="0.2s" fill="freeze" begin="4.end" /></path></g><g><path d="M44.5,38.05c0.73,0.73,1.08,1.5,1.25,2.45c0.89,2.68,1.5,6.75,2.14,10.73c0.2,1.24,0.4,2.5,0.61,3.72" stroke-dasharray="17.52" stroke-dashoffset="17.52"><animate attributeName="stroke-dashoffset" values="17.52" fill="freeze" begin="5606.click" /><animate id="6" attributeName="stroke-dashoffset" values="17.52;0" dur="0.18s" fill="freeze" begin="5.end" /></path><path d="M46.63,39.23c7.88-1.17,26.91-3.37,34.87-4.22c2.67-0.29,5.02,0.05,3.95,3.84c-0.99,3.49-1.88,6.34-3.29,10.96" stroke-dasharray="53.78" stroke-dashoffset="53.78"><animate attributeName="stroke-dashoffset" values="53.78" fill="freeze" begin="5606.click" /><animate id="7" attributeName="stroke-dashoffset" values="53.78;0" dur="0.54s" fill="freeze" begin="6.end" /></path><path d="M49.7,53.37c4.79-0.4,19.95-1.74,29.57-2.61c2.03-0.18,3.81-0.35,5.19-0.47" stroke-dasharray="34.9" stroke-dashoffset="34.9"><animate attributeName="stroke-dashoffset" values="34.9" fill="freeze" begin="5606.click" /><animate id="8" attributeName="stroke-dashoffset" values="34.9;0" dur="0.35s" fill="freeze" begin="7.end" /></path></g><g><path d="M45.46,62.93c2.66,0.69,4.87,0.42,7.05,0.17c7.48-0.87,19.37-2.1,27.62-2.88c2.08-0.2,4.29-0.26,6.34,0.27" stroke-dasharray="41.25" stroke-dashoffset="41.25"><animate attributeName="stroke-dashoffset" values="41.25" fill="freeze" begin="5606.click" /><animate id="9" attributeName="stroke-dashoffset" values="41.25;0" dur="0.41s" fill="freeze" begin="8.end" /></path><g><path d="M39.59,75.29c2.57,0.62,5.2,0.28,7.79,0.04c10.37-0.96,30.02-2.98,38.74-3.5c2.33-0.14,4.88-0.21,7.2,0.37" stroke-dasharray="53.97" stroke-dashoffset="53.97"><animate attributeName="stroke-dashoffset" values="53.97" fill="freeze" begin="5606.click" /><animate id="10" attributeName="stroke-dashoffset" values="53.97;0" dur="0.54s" fill="freeze" begin="9.end" /></path><path d="M64.08,38.92c0.75,0.75,0.94,1.83,0.94,3.24c0,39.91-6.49,47.97-28.77,55.33" stroke-dasharray="72.39" stroke-dashoffset="72.39"><animate attributeName="stroke-dashoffset" values="72.39" fill="freeze" begin="5606.click" /><animate id="11" attributeName="stroke-dashoffset" values="72.39;0" dur="0.54s" fill="freeze" begin="10.end" /></path><path d="M64.5,74.37c6.7,6.03,14.62,13.1,21.27,17.66c2.44,1.68,5.73,3.59,8.73,4.68" stroke-dasharray="37.59" stroke-dashoffset="37.59"><animate attributeName="stroke-dashoffset" values="37.59" fill="freeze" begin="5606.click" /><animate id="12" attributeName="stroke-dashoffset" values="37.59;0" dur="0.38s" fill="freeze" begin="11.end" /></path></g></g></g></g></g></svg>