<svg xmlns="http://www.w3.org/2000/svg" width="109" height="109" viewBox="0 0 109 109" id="5617"><g fill="none" stroke="#666" stroke-width="9" stroke-linecap="round" stroke-linejoin="round"><g><g><g><path d="M52.96,9.37c0.9,0.9,1.26,1.63,1.26,2.99c0,3.64-0.01,8.32-0.01,11.01" /><path d="M32.02,12.08c2.84,1.66,7.08,6.56,7.79,9.13" /><path d="M75.26,10.25c0.08,0.8-0.01,1.6-0.45,2.27c-1.68,2.6-3.61,4.81-7.81,9.23" /></g><g><g><path d="M21.32,25.13c-0.15,3.7-3.03,12.36-4.32,14.56" /><path d="M21.75,28.12c21.12-2.88,40.5-4.75,63.54-5.82c10.95-0.51,4.21,5.19-0.65,7.95" /></g><g><path d="M37.64,32.38c0.74,0.74,0.81,0.99,0.98,1.72c0.5,2.17,0.86,3.58,1.21,4.98c0.26,1.04,0.5,2.08,0.8,3.42" /><path d="M39.35,33.32c4.57-0.47,21.29-2.07,28.03-2.76c2.34-0.24,4.42,0.67,3.37,3.32c-0.63,1.6-1.04,2.06-2.13,4.69" /><path d="M41.44,41.21c5.19-0.57,15.45-1.15,23.31-1.56c2.06-0.11,3.95-0.2,5.55-0.28" /></g></g></g><g><g><path d="M75.18,44.59c-0.5,1.24-1.47,1.97-2.65,2.5c-8.28,3.67-20.17,5.22-36.21,7.15" /><path d="M31.75,45.07c0.92,0.92,1,2,1,3.43c0,1.38,0.05,2.25,0.05,4.94c0,7.37,2.95,8.54,26.99,8.54c24.82,0,26.03-2.61,26.03-7.37" /></g><g><path d="M38.05,70.98c0.86,0.86,0.92,2.15,0.92,2.98c0,0.53-0.02,10.98-0.04,18.41c-0.01,4.05-0.02,7.21-0.02,7.35" /><path d="M39.49,72.56c7-0.61,24.06-1.87,29.53-2.28c3.61-0.27,4.43,1.1,4.43,4.34c0,4.16-0.02,11.71-0.04,17.13c-0.01,3.54-0.02,6.18-0.02,6.38" /><path d="M39.95,84.52c13.55-0.77,22.18-1.52,32.2-1.97" /><path d="M39.78,96.56C51,96,61.5,95.5,72.13,95.29" /></g></g></g></g><g fill="none" stroke="#000" stroke-width="5" stroke-linecap="round" stroke-linejoin="round"><g><g><g><path d="M52.96,9.37c0.9,0.9,1.26,1.63,1.26,2.99c0,3.64-0.01,8.32-0.01,11.01" stroke-dasharray="14.36" stroke-dashoffset="14.36"><animate id="0" attributeName="stroke-dashoffset" values="14.36;0" dur="0.14s" fill="freeze" begin="0s;5617.click" /></path><path d="M32.02,12.08c2.84,1.66,7.08,6.56,7.79,9.13" stroke-dasharray="12.18" stroke-dashoffset="12.18"><animate attributeName="stroke-dashoffset" values="12.18" fill="freeze" begin="5617.click" /><animate id="1" attributeName="stroke-dashoffset" values="12.18;0" dur="0.12s" fill="freeze" begin="0.end" /></path><path d="M75.26,10.25c0.08,0.8-0.01,1.6-0.45,2.27c-1.68,2.6-3.61,4.81-7.81,9.23" stroke-dasharray="14.47" stroke-dashoffset="14.47"><animate attributeName="stroke-dashoffset" values="14.47" fill="freeze" begin="5617.click" /><animate id="2" attributeName="stroke-dashoffset" values="14.47;0" dur="0.14s" fill="freeze" begin="1.end" /></path></g><g><g><path d="M21.32,25.13c-0.15,3.7-3.03,12.36-4.32,14.56" stroke-dasharray="15.26" stroke-dashoffset="15.26"><animate attributeName="stroke-dashoffset" values="15.26" fill="freeze" begin="5617.click" /><animate id="3" attributeName="stroke-dashoffset" values="15.26;0" dur="0.15s" fill="freeze" begin="2.end" /></path><path d="M21.75,28.12c21.12-2.88,40.5-4.75,63.54-5.82c10.95-0.51,4.21,5.19-0.65,7.95" stroke-dasharray="79.77" stroke-dashoffset="79.77"><animate attributeName="stroke-dashoffset" values="79.77" fill="freeze" begin="5617.click" /><animate id="4" attributeName="stroke-dashoffset" values="79.77;0" dur="0.6s" fill="freeze" begin="3.end" /></path></g><g><path d="M37.64,32.38c0.74,0.74,0.81,0.99,0.98,1.72c0.5,2.17,0.86,3.58,1.21,4.98c0.26,1.04,0.5,2.08,0.8,3.42" stroke-dasharray="10.66" stroke-dashoffset="10.66"><animate attributeName="stroke-dashoffset" values="10.66" fill="freeze" begin="5617.click" /><animate id="5" attributeName="stroke-dashoffset" values="10.66;0" dur="0.11s" fill="freeze" begin="4.end" /></path><path d="M39.35,33.32c4.57-0.47,21.29-2.07,28.03-2.76c2.34-0.24,4.42,0.67,3.37,3.32c-0.63,1.6-1.04,2.06-2.13,4.69" stroke-dasharray="39.4" stroke-dashoffset="39.4"><animate attributeName="stroke-dashoffset" values="39.4" fill="freeze" begin="5617.click" /><animate id="6" attributeName="stroke-dashoffset" values="39.4;0" dur="0.39s" fill="freeze" begin="5.end" /></path><path d="M41.44,41.21c5.19-0.57,15.45-1.15,23.31-1.56c2.06-0.11,3.95-0.2,5.55-0.28" stroke-dasharray="28.92" stroke-dashoffset="28.92"><animate attributeName="stroke-dashoffset" values="28.92" fill="freeze" begin="5617.click" /><animate id="7" attributeName="stroke-dashoffset" values="28.92;0" dur="0.29s" fill="freeze" begin="6.end" /></path></g></g></g><g><g><path d="M75.18,44.59c-0.5,1.24-1.47,1.97-2.65,2.5c-8.28,3.67-20.17,5.22-36.21,7.15" stroke-dasharray="40.77" stroke-dashoffset="40.77"><animate attributeName="stroke-dashoffset" values="40.77" fill="freeze" begin="5617.click" /><animate id="8" attributeName="stroke-dashoffset" values="40.77;0" dur="0.41s" fill="freeze" begin="7.end" /></path><path d="M31.75,45.07c0.92,0.92,1,2,1,3.43c0,1.38,0.05,2.25,0.05,4.94c0,7.37,2.95,8.54,26.99,8.54c24.82,0,26.03-2.61,26.03-7.37" stroke-dasharray="70.11" stroke-dashoffset="70.11"><animate attributeName="stroke-dashoffset" values="70.11" fill="freeze" begin="5617.click" /><animate id="9" attributeName="stroke-dashoffset" values="70.11;0" dur="0.53s" fill="freeze" begin="8.end" /></path></g><g><path d="M38.05,70.98c0.86,0.86,0.92,2.15,0.92,2.98c0,0.53-0.02,10.98-0.04,18.41c-0.01,4.05-0.02,7.21-0.02,7.35" stroke-dasharray="28.96" stroke-dashoffset="28.96"><animate attributeName="stroke-dashoffset" values="28.96" fill="freeze" begin="5617.click" /><animate id="10" attributeName="stroke-dashoffset" values="28.96;0" dur="0.29s" fill="freeze" begin="9.end" /></path><path d="M39.49,72.56c7-0.61,24.06-1.87,29.53-2.28c3.61-0.27,4.43,1.1,4.43,4.34c0,4.16-0.02,11.71-0.04,17.13c-0.01,3.54-0.02,6.18-0.02,6.38" stroke-dasharray="60.59" stroke-dashoffset="60.59"><animate attributeName="stroke-dashoffset" values="60.59" fill="freeze" begin="5617.click" /><animate id="11" attributeName="stroke-dashoffset" values="60.59;0" dur="0.46s" fill="freeze" begin="10.end" /></path><path d="M39.95,84.52c13.55-0.77,22.18-1.52,32.2-1.97" stroke-dasharray="32.26" stroke-dashoffset="32.26"><animate attributeName="stroke-dashoffset" values="32.26" fill="freeze" begin="5617.click" /><animate id="12" attributeName="stroke-dashoffset" values="32.26;0" dur="0.32s" fill="freeze" begin="11.end" /></path><path d="M39.78,96.56C51,96,61.5,95.5,72.13,95.29" stroke-dasharray="32.38" stroke-dashoffset="32.38"><animate attributeName="stroke-dashoffset" values="32.38" fill="freeze" begin="5617.click" /><animate id="13" attributeName="stroke-dashoffset" values="32.38;0" dur="0.32s" fill="freeze" begin="12.end" /></path></g></g></g></g></svg>