<svg xmlns="http://www.w3.org/2000/svg" viewBox="0 0 109 109" id="565b"><g fill="none" stroke="#666" stroke-width="6" stroke-linecap="round" stroke-linejoin="round"><g><g><path d="M11.75,31.79c0.61,0.6,1,1.59,1.12,2.96c0.56,6.16,1.7,14.35,2.48,22.26c0.19,1.89,0.37,3.73,0.54,5.49" /><path d="M13.5,33.12c8.63-1.57,12.24-1.91,16.15-2.44c1.9-0.26,3.98,0.74,3.59,3.2c-0.93,5.95-2.01,15.03-3.38,22.97" /><path d="M16.82,59.55c4.69-0.43,7.67-0.83,11.05-1.17c0.98-0.1,1.99-0.19,3.09-0.28" /></g><g><g><g><path d="M66.42,10.75c0.73,0.73,1.14,1.91,1.14,2.79c0,4.46-0.06,13.96-0.06,19.71" /><path d="M68.71,22.62c4.41-0.56,10.42-1.45,15.41-1.96c1.46-0.2,2.92-0.26,4.4-0.19" /></g><path d="M51.37,17.73c0.89,0.89,1.31,1.78,1.39,2.79c0.24,3.11,0.49,6.61,0.84,13.8" /><path d="M39.85,36.36c2.15,0.39,5.28,0.45,8.02,0.09c11.75-1.57,28.38-2.94,40.63-3.86c2.74-0.21,5.45-0.35,8.15,0.27" /></g><g><g><path d="M51.26,47.23c2.89,1.93,7.26,7.38,7.98,10.39" /><path d="M83.42,43.68c0,1.32-0.41,2.56-1.14,3.67c-2.66,4.02-4.16,5.65-6.78,8.62" /><path d="M48.2,62.53c1.66,0.34,3.35,0.5,5.05,0.48c6.45-0.46,21.69-1.88,28.99-2.36c1.77-0.1,3.55-0.14,5.33-0.12" /><path d="M66.86,40.75c0.84,1.01,1.18,2.13,1.02,3.38c0,6.13,0.06,25.37,0.1,36.75c0.01,3.69,0.02,6.56,0.02,7.88" /><path d="M67.02,63.07c0,1.55-0.48,2.68-1.51,4.51c-4.03,7.11-10.64,15.17-16.83,18.88" /><path d="M71.88,69.23c3.34,1.98,8.69,6.92,11.58,13.17" /></g><g><path d="M41.97,45.88c0.95,0.95,1.09,2.62,1.09,4.25c0,0.78-0.02,32.1-0.06,41.74c-0.02,3.68,0.87,4.5,4.62,4.17c14.5-1.29,31.74-2.57,43.71-3.04" /><path d="M92.28,42.63c0.92,0.92,1.06,2.49,1.06,3.5c0,9.29-0.25,23.25-0.76,40.62c-0.09,2.95-0.18,5.99-0.28,9.13" /></g></g></g></g></g><g fill="none" stroke="#000" stroke-width="3" stroke-linecap="round" stroke-linejoin="round"><path d="M11.75,31.79c0.61,0.6,1,1.59,1.12,2.96c0.56,6.16,1.7,14.35,2.48,22.26c0.19,1.89,0.37,3.73,0.54,5.49" stroke-dasharray="31.145" stroke-dashoffset="31.145"><animate attributeName="stroke-dashoffset" values="31.145;31.145;0" dur="0.311s" fill="freeze" begin="0s;565b.click" /></path><path d="M13.5,33.12c8.63-1.57,12.24-1.91,16.15-2.44c1.9-0.26,3.98,0.74,3.59,3.2c-0.93,5.95-2.01,15.03-3.38,22.97" stroke-dasharray="45.275" stroke-dashoffset="45.275"><animate attributeName="stroke-dashoffset" values="45.275" fill="freeze" begin="565b.click" /><animate attributeName="stroke-dashoffset" values="45.275;45.275;0" keyTimes="0;0.407;1" dur="0.764s" fill="freeze" begin="0s;565b.click" /></path><path d="M16.82,59.55c4.69-0.43,7.67-0.83,11.05-1.17c0.98-0.1,1.99-0.19,3.09-0.28" stroke-dasharray="14.216" stroke-dashoffset="14.216"><animate attributeName="stroke-dashoffset" values="14.216" fill="freeze" begin="565b.click" /><animate attributeName="stroke-dashoffset" values="14.216;14.216;0" keyTimes="0;0.843;1" dur="0.906s" fill="freeze" begin="0s;565b.click" /></path><path d="M66.42,10.75c0.73,0.73,1.14,1.91,1.14,2.79c0,4.46-0.06,13.96-0.06,19.71" stroke-dasharray="22.794" stroke-dashoffset="22.794"><animate attributeName="stroke-dashoffset" values="22.794" fill="freeze" begin="565b.click" /><animate attributeName="stroke-dashoffset" values="22.794;22.794;0" keyTimes="0;0.799;1" dur="1.134s" fill="freeze" begin="0s;565b.click" /></path><path d="M68.71,22.62c4.41-0.56,10.42-1.45,15.41-1.96c1.46-0.2,2.92-0.26,4.4-0.19" stroke-dasharray="19.946" stroke-dashoffset="19.946"><animate attributeName="stroke-dashoffset" values="19.946" fill="freeze" begin="565b.click" /><animate attributeName="stroke-dashoffset" values="19.946;19.946;0" keyTimes="0;0.851;1" dur="1.333s" fill="freeze" begin="0s;565b.click" /></path><path d="M51.37,17.73c0.89,0.89,1.31,1.78,1.39,2.79c0.24,3.11,0.49,6.61,0.84,13.8" stroke-dasharray="17.015" stroke-dashoffset="17.015"><animate attributeName="stroke-dashoffset" values="17.015" fill="freeze" begin="565b.click" /><animate attributeName="stroke-dashoffset" values="17.015;17.015;0" keyTimes="0;0.887;1" dur="1.503s" fill="freeze" begin="0s;565b.click" /></path><path d="M39.85,36.36c2.15,0.39,5.28,0.45,8.02,0.09c11.75-1.57,28.38-2.94,40.63-3.86c2.74-0.21,5.45-0.35,8.15,0.27" stroke-dasharray="57.055" stroke-dashoffset="57.055"><animate attributeName="stroke-dashoffset" values="57.055" fill="freeze" begin="565b.click" /><animate attributeName="stroke-dashoffset" values="57.055;57.055;0" keyTimes="0;0.725;1" dur="2.074s" fill="freeze" begin="0s;565b.click" /></path><path d="M51.26,47.23c2.89,1.93,7.26,7.38,7.98,10.39" stroke-dasharray="13.287" stroke-dashoffset="13.287"><animate attributeName="stroke-dashoffset" values="13.287" fill="freeze" begin="565b.click" /><animate attributeName="stroke-dashoffset" values="13.287;13.287;0" keyTimes="0;0.94;1" dur="2.207s" fill="freeze" begin="0s;565b.click" /></path><path d="M83.42,43.68c0,1.32-0.41,2.56-1.14,3.67c-2.66,4.02-4.16,5.65-6.78,8.62" stroke-dasharray="14.879" stroke-dashoffset="14.879"><animate attributeName="stroke-dashoffset" values="14.879" fill="freeze" begin="565b.click" /><animate attributeName="stroke-dashoffset" values="14.879;14.879;0" keyTimes="0;0.937;1" dur="2.356s" fill="freeze" begin="0s;565b.click" /></path><path d="M48.2,62.53c1.66,0.34,3.35,0.5,5.05,0.48c6.45-0.46,21.69-1.88,28.99-2.36c1.77-0.1,3.55-0.14,5.33-0.12" stroke-dasharray="39.502" stroke-dashoffset="39.502"><animate attributeName="stroke-dashoffset" values="39.502" fill="freeze" begin="565b.click" /><animate attributeName="stroke-dashoffset" values="39.502;39.502;0" keyTimes="0;0.856;1" dur="2.751s" fill="freeze" begin="0s;565b.click" /></path><path d="M66.86,40.75c0.84,1.01,1.18,2.13,1.02,3.38c0,6.13,0.06,25.37,0.1,36.75c0.01,3.69,0.02,6.56,0.02,7.88" stroke-dasharray="48.271" stroke-dashoffset="48.271"><animate attributeName="stroke-dashoffset" values="48.271" fill="freeze" begin="565b.click" /><animate attributeName="stroke-dashoffset" values="48.271;48.271;0" keyTimes="0;0.851;1" dur="3.234s" fill="freeze" begin="0s;565b.click" /></path><path d="M67.02,63.07c0,1.55-0.48,2.68-1.51,4.51c-4.03,7.11-10.64,15.17-16.83,18.88" stroke-dasharray="30.346" stroke-dashoffset="30.346"><animate attributeName="stroke-dashoffset" values="30.346" fill="freeze" begin="565b.click" /><animate attributeName="stroke-dashoffset" values="30.346;30.346;0" keyTimes="0;0.914;1" dur="3.537s" fill="freeze" begin="0s;565b.click" /></path><path d="M71.88,69.23c3.34,1.98,8.69,6.92,11.58,13.17" stroke-dasharray="17.765" stroke-dashoffset="17.765"><animate attributeName="stroke-dashoffset" values="17.765" fill="freeze" begin="565b.click" /><animate attributeName="stroke-dashoffset" values="17.765;17.765;0" keyTimes="0;0.952;1" dur="3.715s" fill="freeze" begin="0s;565b.click" /></path><path d="M41.97,45.88c0.95,0.95,1.09,2.62,1.09,4.25c0,0.78-0.02,32.1-0.06,41.74c-0.02,3.68,0.87,4.5,4.62,4.17c14.5-1.29,31.74-2.57,43.71-3.04" stroke-dasharray="97.728" stroke-dashoffset="97.728"><animate attributeName="stroke-dashoffset" values="97.728" fill="freeze" begin="565b.click" /><animate attributeName="stroke-dashoffset" values="97.728;97.728;0" keyTimes="0;0.835;1" dur="4.45s" fill="freeze" begin="0s;565b.click" /></path><path d="M92.28,42.63c0.92,0.92,1.06,2.49,1.06,3.5c0,9.29-0.25,23.25-0.76,40.62c-0.09,2.95-0.18,5.99-0.28,9.13" stroke-dasharray="53.512" stroke-dashoffset="53.512"><animate attributeName="stroke-dashoffset" values="53.512" fill="freeze" begin="565b.click" /><animate attributeName="stroke-dashoffset" values="53.512;53.512;0" keyTimes="0;0.893;1" dur="4.985s" fill="freeze" begin="0s;565b.click" /></path></g></svg>