<svg xmlns="http://www.w3.org/2000/svg" width="109" height="109" viewBox="0 0 109 109" id="568a"><g fill="none" stroke="#666" stroke-width="9" stroke-linecap="round" stroke-linejoin="round"><g><g><path d="M11.25,34.06c0.35,0.45,0.72,0.82,0.87,1.38c1.23,4.42,3.7,18.12,4.54,26.06" /><path d="M13.46,36.18c8.94-1.94,15.77-3.11,19.91-3.69c1.52-0.21,2.43,1.26,2.21,2.51c-0.9,5.17-2.45,12.65-3.78,19.8" /><path d="M16.32,57.86c4.87-0.66,11.25-1.42,17.93-2.43" /></g><g><g><path d="M63.48,9.42c0.26,0.08,0.26,1.94,0.09,2.18c-1.08,1.59-3.07,4.89-5.23,8.35" /><g><path d="M49.75,21.26c0.43,0.54,1.06,0.95,1.06,1.67c0,0.72,2.67,18.88,2.67,19.24c0,0.36,0.14,1.12,0.29,1.84" /><path d="M51.52,21.48c2.43-0.09,24.88-2.68,27.09-2.79c1.85-0.09,3.14,1.22,3.15,3.04c0,0.87-1.22,10.01-2.17,19.8" /><path d="M51.93,27.96c4.79-0.12,25.14-1.61,29.03-1.61" /><path d="M52.63,35.24c6.44-0.3,21.3-2.05,27.55-2.05" /><path d="M53.86,42.6C60,42.25,72.9,40.3,79.15,40.3" /></g></g><g><g><path d="M42.99,48.65c0.34,0.3,0.84,1.51,1.03,1.89c1.5,3.13,2.87,11.03,3.76,16.86" /><path d="M45.08,50.08c11.88-0.77,31.25-3.09,40.12-3.74c3.26-0.24,4.55,1.41,4.05,4.41c-0.53,3.17-2,9.5-3.27,14.5" /><path d="M65.9,49.14c-0.16,1.86-0.3,14.19-0.29,15.74" /><path d="M47.22,57.66c3.87-0.3,36.87-2.52,40.07-2.64" /><path d="M48.4,66.55C59,66,73,64.5,86.08,64.24" /></g><g><g p7:part="1" xmlns:p7="http://kanjivg.tagaini.net"><path d="M34.38,75.57c1.26,0.46,3.57,0.53,4.84,0.46c13.13-0.76,39.08-3.6,55.75-3.98c2.1-0.05,3.36,0.22,4.42,0.45" /></g><g><path d="M55.65,75.25c0.85,0.85,0.81,1.62,0.81,2.47c0,4.31-4.96,17.53-16.46,22.28" /></g><g p7:part="2" xmlns:p7="http://kanjivg.tagaini.net"><path d="M75.63,73.91c0.82,0.38,1.31,1.69,1.47,2.44c0.16,0.75,0,18.97-0.16,23.66" /></g></g></g></g></g></g><g fill="none" stroke="#000" stroke-width="5" stroke-linecap="round" stroke-linejoin="round"><g><g><path d="M11.25,34.06c0.35,0.45,0.72,0.82,0.87,1.38c1.23,4.42,3.7,18.12,4.54,26.06" stroke-dasharray="28.11" stroke-dashoffset="28.11"><animate id="0" attributeName="stroke-dashoffset" values="28.11;0" dur="0.28s" fill="freeze" begin="0s;568a.click" /></path><path d="M13.46,36.18c8.94-1.94,15.77-3.11,19.91-3.69c1.52-0.21,2.43,1.26,2.21,2.51c-0.9,5.17-2.45,12.65-3.78,19.8" stroke-dasharray="44.31" stroke-dashoffset="44.31"><animate attributeName="stroke-dashoffset" values="44.31" fill="freeze" begin="568a.click" /><animate id="1" attributeName="stroke-dashoffset" values="44.31;0" dur="0.44s" fill="freeze" begin="0.end" /></path><path d="M16.32,57.86c4.87-0.66,11.25-1.42,17.93-2.43" stroke-dasharray="18.09" stroke-dashoffset="18.09"><animate attributeName="stroke-dashoffset" values="18.09" fill="freeze" begin="568a.click" /><animate id="2" attributeName="stroke-dashoffset" values="18.09;0" dur="0.18s" fill="freeze" begin="1.end" /></path></g><g><g><path d="M63.48,9.42c0.26,0.08,0.26,1.94,0.09,2.18c-1.08,1.59-3.07,4.89-5.23,8.35" stroke-dasharray="12.09" stroke-dashoffset="12.09"><animate attributeName="stroke-dashoffset" values="12.09" fill="freeze" begin="568a.click" /><animate id="3" attributeName="stroke-dashoffset" values="12.09;0" dur="0.12s" fill="freeze" begin="2.end" /></path><g><path d="M49.75,21.26c0.43,0.54,1.06,0.95,1.06,1.67c0,0.72,2.67,18.88,2.67,19.24c0,0.36,0.14,1.12,0.29,1.84" stroke-dasharray="23.32" stroke-dashoffset="23.32"><animate attributeName="stroke-dashoffset" values="23.32" fill="freeze" begin="568a.click" /><animate id="4" attributeName="stroke-dashoffset" values="23.32;0" dur="0.23s" fill="freeze" begin="3.end" /></path><path d="M51.52,21.48c2.43-0.09,24.88-2.68,27.09-2.79c1.85-0.09,3.14,1.22,3.15,3.04c0,0.87-1.22,10.01-2.17,19.8" stroke-dasharray="52.1" stroke-dashoffset="52.1"><animate attributeName="stroke-dashoffset" values="52.1" fill="freeze" begin="568a.click" /><animate id="5" attributeName="stroke-dashoffset" values="52.1;0" dur="0.52s" fill="freeze" begin="4.end" /></path><path d="M51.93,27.96c4.79-0.12,25.14-1.61,29.03-1.61" stroke-dasharray="29.08" stroke-dashoffset="29.08"><animate attributeName="stroke-dashoffset" values="29.08" fill="freeze" begin="568a.click" /><animate id="6" attributeName="stroke-dashoffset" values="29.08;0" dur="0.29s" fill="freeze" begin="5.end" /></path><path d="M52.63,35.24c6.44-0.3,21.3-2.05,27.55-2.05" stroke-dasharray="27.63" stroke-dashoffset="27.63"><animate attributeName="stroke-dashoffset" values="27.63" fill="freeze" begin="568a.click" /><animate id="7" attributeName="stroke-dashoffset" values="27.63;0" dur="0.28s" fill="freeze" begin="6.end" /></path><path d="M53.86,42.6C60,42.25,72.9,40.3,79.15,40.3" stroke-dasharray="25.4" stroke-dashoffset="25.4"><animate attributeName="stroke-dashoffset" values="25.4" fill="freeze" begin="568a.click" /><animate id="8" attributeName="stroke-dashoffset" values="25.4;0" dur="0.25s" fill="freeze" begin="7.end" /></path></g></g><g><g><path d="M42.99,48.65c0.34,0.3,0.84,1.51,1.03,1.89c1.5,3.13,2.87,11.03,3.76,16.86" stroke-dasharray="19.47" stroke-dashoffset="19.47"><animate attributeName="stroke-dashoffset" values="19.47" fill="freeze" begin="568a.click" /><animate id="9" attributeName="stroke-dashoffset" values="19.47;0" dur="0.19s" fill="freeze" begin="8.end" /></path><path d="M45.08,50.08c11.88-0.77,31.25-3.09,40.12-3.74c3.26-0.24,4.55,1.41,4.05,4.41c-0.53,3.17-2,9.5-3.27,14.5" stroke-dasharray="62.46" stroke-dashoffset="62.46"><animate attributeName="stroke-dashoffset" values="62.46" fill="freeze" begin="568a.click" /><animate id="10" attributeName="stroke-dashoffset" values="62.46;0" dur="0.47s" fill="freeze" begin="9.end" /></path><path d="M65.9,49.14c-0.16,1.86-0.3,14.19-0.29,15.74" stroke-dasharray="15.74" stroke-dashoffset="15.74"><animate attributeName="stroke-dashoffset" values="15.74" fill="freeze" begin="568a.click" /><animate id="11" attributeName="stroke-dashoffset" values="15.74;0" dur="0.16s" fill="freeze" begin="10.end" /></path><path d="M47.22,57.66c3.87-0.3,36.87-2.52,40.07-2.64" stroke-dasharray="40.16" stroke-dashoffset="40.16"><animate attributeName="stroke-dashoffset" values="40.16" fill="freeze" begin="568a.click" /><animate id="12" attributeName="stroke-dashoffset" values="40.16;0" dur="0.4s" fill="freeze" begin="11.end" /></path><path d="M48.4,66.55C59,66,73,64.5,86.08,64.24" stroke-dasharray="37.75" stroke-dashoffset="37.75"><animate attributeName="stroke-dashoffset" values="37.75" fill="freeze" begin="568a.click" /><animate id="13" attributeName="stroke-dashoffset" values="37.75;0" dur="0.38s" fill="freeze" begin="12.end" /></path></g><g><g p7:part="1" xmlns:p7="http://kanjivg.tagaini.net"><path d="M34.38,75.57c1.26,0.46,3.57,0.53,4.84,0.46c13.13-0.76,39.08-3.6,55.75-3.98c2.1-0.05,3.36,0.22,4.42,0.45" stroke-dasharray="65.24" stroke-dashoffset="65.24"><animate attributeName="stroke-dashoffset" values="65.24" fill="freeze" begin="568a.click" /><animate id="14" attributeName="stroke-dashoffset" values="65.24;0" dur="0.49s" fill="freeze" begin="13.end" /></path></g><g><path d="M55.65,75.25c0.85,0.85,0.81,1.62,0.81,2.47c0,4.31-4.96,17.53-16.46,22.28" stroke-dasharray="31.63" stroke-dashoffset="31.63"><animate attributeName="stroke-dashoffset" values="31.63" fill="freeze" begin="568a.click" /><animate id="15" attributeName="stroke-dashoffset" values="31.63;0" dur="0.32s" fill="freeze" begin="14.end" /></path></g><g p7:part="2" xmlns:p7="http://kanjivg.tagaini.net"><path d="M75.63,73.91c0.82,0.38,1.31,1.69,1.47,2.44c0.16,0.75,0,18.97-0.16,23.66" stroke-dasharray="26.6" stroke-dashoffset="26.6"><animate attributeName="stroke-dashoffset" values="26.6" fill="freeze" begin="568a.click" /><animate id="16" attributeName="stroke-dashoffset" values="26.6;0" dur="0.27s" fill="freeze" begin="15.end" /></path></g></g></g></g></g></g></svg>