<svg xmlns="http://www.w3.org/2000/svg" width="109" height="109" viewBox="0 0 109 109" id="56a5"><g fill="none" stroke="#666" stroke-width="9" stroke-linecap="round" stroke-linejoin="round"><g><g><path d="M9.25,34.53c0.34,0.44,0.69,0.8,0.83,1.35c1.18,4.35,3.04,17.81,3.85,25.62" /><path d="M11.36,36.62c8.56-1.91,14.63-3.06,18.6-3.63c1.45-0.21,2.32,1.24,2.12,2.46c-0.86,5.08-2.84,12.44-4.12,19.46" /><path d="M13.61,57.93c4.67-0.65,10.3-1.39,16.7-2.39" /></g><g><g><g><path d="M38.48,22.94c1.17,0.54,2.53,0.65,3.7,0.54c10.74-0.99,36.52-3.6,48.9-3.67c1.95-0.01,3.12,0.26,4.09,0.53" /><path d="M53.25,12.29c1.58,1.48,2.17,1.91,2.26,2.83c0.68,7.72,1.13,16.25,1.58,19.34" /></g><path d="M76.5,10.5c0.5,0.75,0.92,1.85,0.71,3.16c-1.19,7.67-1.72,10.51-3.02,17.73" /><path d="M56.99,32.69c2.48-0.26,17.66-1.3,18.79-1.3" /></g><g><g><path d="M58.23,43.65c0.26,0.41,0.52,0.75,0.63,1.26c0.89,4.05,1.96,15.23,2.57,22.51" /><path d="M59.38,45.3c5.62-1.14,11.67-2.31,14.69-2.84c1.1-0.2,1.76,1.15,1.61,2.3c-0.65,4.73-1.41,12.14-2.39,18.68" /><path d="M61.56,65.5c3.54-0.6,8.42-0.55,13.29-1.47" /></g><g><g><path d="M35.97,51.71c0.99,0.28,1.24,0.42,2.23,0.42c0.99,0,9.34-1.74,10.21-1.74" /><path d="M47.25,35.31c0.74,0.85,1.36,1.83,1.36,2.4c0,0.56,0.12,26.2,0.12,27.75" /><path d="M33.58,71.75c1.78,1.75,3.14,1.85,4.45,0.97c7.86-5.26,10.38-6.82,14.53-9.74" /></g><g><path d="M97.1,38.78c0.1,0.2,0.15,0.76-0.1,1.09c-2.32,3.17-8.06,7.82-13.09,9.49" /><path d="M81.78,35.43c0.36,0.49,1.35,1.95,1.35,2.94c0,0.66,0.12,23.82,0.12,25.84c0,5.15,4.73,4.67,8.57,4.67c5.68,0,7.95-0.62,7.95-6.63" /></g></g><g><path d="M42.72,81.06c0,5.86-6.1,14.52-7.69,16.19" /><path d="M55.32,79.09c2.15,3.26,4.2,12.21,4.73,17.28" /><path d="M73.04,78.31c2.4,2.96,6.19,12.17,6.79,16.77" /><path d="M88.42,77.08c4.02,3.28,10.39,13.48,11.39,18.58" /></g></g></g></g></g><g fill="none" stroke="#000" stroke-width="5" stroke-linecap="round" stroke-linejoin="round"><g><g><path d="M9.25,34.53c0.34,0.44,0.69,0.8,0.83,1.35c1.18,4.35,3.04,17.81,3.85,25.62" stroke-dasharray="27.52" stroke-dashoffset="27.52"><animate id="0" attributeName="stroke-dashoffset" values="27.52;0" dur="0.28s" fill="freeze" begin="0s;56a5.click" /></path><path d="M11.36,36.62c8.56-1.91,14.63-3.06,18.6-3.63c1.45-0.21,2.32,1.24,2.12,2.46c-0.86,5.08-2.84,12.44-4.12,19.46" stroke-dasharray="42.63" stroke-dashoffset="42.63"><animate attributeName="stroke-dashoffset" values="42.63" fill="freeze" begin="56a5.click" /><animate id="1" attributeName="stroke-dashoffset" values="42.63;0" dur="0.43s" fill="freeze" begin="0.end" /></path><path d="M13.61,57.93c4.67-0.65,10.3-1.39,16.7-2.39" stroke-dasharray="16.87" stroke-dashoffset="16.87"><animate attributeName="stroke-dashoffset" values="16.87" fill="freeze" begin="56a5.click" /><animate id="2" attributeName="stroke-dashoffset" values="16.87;0" dur="0.17s" fill="freeze" begin="1.end" /></path></g><g><g><g><path d="M38.48,22.94c1.17,0.54,2.53,0.65,3.7,0.54c10.74-0.99,36.52-3.6,48.9-3.67c1.95-0.01,3.12,0.26,4.09,0.53" stroke-dasharray="56.97" stroke-dashoffset="56.97"><animate attributeName="stroke-dashoffset" values="56.97" fill="freeze" begin="56a5.click" /><animate id="3" attributeName="stroke-dashoffset" values="56.97;0" dur="0.57s" fill="freeze" begin="2.end" /></path><path d="M53.25,12.29c1.58,1.48,2.17,1.91,2.26,2.83c0.68,7.72,1.13,16.25,1.58,19.34" stroke-dasharray="23.11" stroke-dashoffset="23.11"><animate attributeName="stroke-dashoffset" values="23.11" fill="freeze" begin="56a5.click" /><animate id="4" attributeName="stroke-dashoffset" values="23.11;0" dur="0.23s" fill="freeze" begin="3.end" /></path></g><path d="M76.5,10.5c0.5,0.75,0.92,1.85,0.71,3.16c-1.19,7.67-1.72,10.51-3.02,17.73" stroke-dasharray="21.3" stroke-dashoffset="21.3"><animate attributeName="stroke-dashoffset" values="21.3" fill="freeze" begin="56a5.click" /><animate id="5" attributeName="stroke-dashoffset" values="21.3;0" dur="0.21s" fill="freeze" begin="4.end" /></path><path d="M56.99,32.69c2.48-0.26,17.66-1.3,18.79-1.3" stroke-dasharray="18.84" stroke-dashoffset="18.84"><animate attributeName="stroke-dashoffset" values="18.84" fill="freeze" begin="56a5.click" /><animate id="6" attributeName="stroke-dashoffset" values="18.84;0" dur="0.19s" fill="freeze" begin="5.end" /></path></g><g><g><path d="M58.23,43.65c0.26,0.41,0.52,0.75,0.63,1.26c0.89,4.05,1.96,15.23,2.57,22.51" stroke-dasharray="24.08" stroke-dashoffset="24.08"><animate attributeName="stroke-dashoffset" values="24.08" fill="freeze" begin="56a5.click" /><animate id="7" attributeName="stroke-dashoffset" values="24.08;0" dur="0.24s" fill="freeze" begin="6.end" /></path><path d="M59.38,45.3c5.62-1.14,11.67-2.31,14.69-2.84c1.1-0.2,1.76,1.15,1.61,2.3c-0.65,4.73-1.41,12.14-2.39,18.68" stroke-dasharray="37.04" stroke-dashoffset="37.04"><animate attributeName="stroke-dashoffset" values="37.04" fill="freeze" begin="56a5.click" /><animate id="8" attributeName="stroke-dashoffset" values="37.04;0" dur="0.37s" fill="freeze" begin="7.end" /></path><path d="M61.56,65.5c3.54-0.6,8.42-0.55,13.29-1.47" stroke-dasharray="13.38" stroke-dashoffset="13.38"><animate attributeName="stroke-dashoffset" values="13.38" fill="freeze" begin="56a5.click" /><animate id="9" attributeName="stroke-dashoffset" values="13.38;0" dur="0.13s" fill="freeze" begin="8.end" /></path></g><g><g><path d="M35.97,51.71c0.99,0.28,1.24,0.42,2.23,0.42c0.99,0,9.34-1.74,10.21-1.74" stroke-dasharray="12.64" stroke-dashoffset="12.64"><animate attributeName="stroke-dashoffset" values="12.64" fill="freeze" begin="56a5.click" /><animate id="10" attributeName="stroke-dashoffset" values="12.64;0" dur="0.13s" fill="freeze" begin="9.end" /></path><path d="M47.25,35.31c0.74,0.85,1.36,1.83,1.36,2.4c0,0.56,0.12,26.2,0.12,27.75" stroke-dasharray="30.55" stroke-dashoffset="30.55"><animate attributeName="stroke-dashoffset" values="30.55" fill="freeze" begin="56a5.click" /><animate id="11" attributeName="stroke-dashoffset" values="30.55;0" dur="0.31s" fill="freeze" begin="10.end" /></path><path d="M33.58,71.75c1.78,1.75,3.14,1.85,4.45,0.97c7.86-5.26,10.38-6.82,14.53-9.74" stroke-dasharray="22.52" stroke-dashoffset="22.52"><animate attributeName="stroke-dashoffset" values="22.52" fill="freeze" begin="56a5.click" /><animate id="12" attributeName="stroke-dashoffset" values="22.52;0" dur="0.23s" fill="freeze" begin="11.end" /></path></g><g><path d="M97.1,38.78c0.1,0.2,0.15,0.76-0.1,1.09c-2.32,3.17-8.06,7.82-13.09,9.49" stroke-dasharray="17.5" stroke-dashoffset="17.5"><animate attributeName="stroke-dashoffset" values="17.5" fill="freeze" begin="56a5.click" /><animate id="13" attributeName="stroke-dashoffset" values="17.5;0" dur="0.18s" fill="freeze" begin="12.end" /></path><path d="M81.78,35.43c0.36,0.49,1.35,1.95,1.35,2.94c0,0.66,0.12,23.82,0.12,25.84c0,5.15,4.73,4.67,8.57,4.67c5.68,0,7.95-0.62,7.95-6.63" stroke-dasharray="52.83" stroke-dashoffset="52.83"><animate attributeName="stroke-dashoffset" values="52.83" fill="freeze" begin="56a5.click" /><animate id="14" attributeName="stroke-dashoffset" values="52.83;0" dur="0.53s" fill="freeze" begin="13.end" /></path></g></g><g><path d="M42.72,81.06c0,5.86-6.1,14.52-7.69,16.19" stroke-dasharray="18.2" stroke-dashoffset="18.2"><animate attributeName="stroke-dashoffset" values="18.2" fill="freeze" begin="56a5.click" /><animate id="15" attributeName="stroke-dashoffset" values="18.2;0" dur="0.18s" fill="freeze" begin="14.end" /></path><path d="M55.32,79.09c2.15,3.26,4.2,12.21,4.73,17.28" stroke-dasharray="18.02" stroke-dashoffset="18.02"><animate attributeName="stroke-dashoffset" values="18.02" fill="freeze" begin="56a5.click" /><animate id="16" attributeName="stroke-dashoffset" values="18.02;0" dur="0.18s" fill="freeze" begin="15.end" /></path><path d="M73.04,78.31c2.4,2.96,6.19,12.17,6.79,16.77" stroke-dasharray="18.22" stroke-dashoffset="18.22"><animate attributeName="stroke-dashoffset" values="18.22" fill="freeze" begin="56a5.click" /><animate id="17" attributeName="stroke-dashoffset" values="18.22;0" dur="0.18s" fill="freeze" begin="16.end" /></path><path d="M88.42,77.08c4.02,3.28,10.39,13.48,11.39,18.58" stroke-dasharray="22.04" stroke-dashoffset="22.04"><animate attributeName="stroke-dashoffset" values="22.04" fill="freeze" begin="56a5.click" /><animate id="18" attributeName="stroke-dashoffset" values="22.04;0" dur="0.22s" fill="freeze" begin="17.end" /></path></g></g></g></g></g></svg>