<svg xmlns="http://www.w3.org/2000/svg" width="109" height="109" viewBox="0 0 109 109" id="56d3"><g fill="none" stroke="#666" stroke-width="9" stroke-linecap="round" stroke-linejoin="round"><g><g><path d="M9.75,35.09c0.33,0.48,0.66,0.87,0.8,1.47c1.13,4.71,2.47,16.72,3.24,25.19" /><path d="M11.27,36.29c7.48-1.54,14.73-3.18,18.53-3.8c1.39-0.23,2.23,1.34,2.03,2.67c-0.82,5.51-2.29,12.16-3.51,19.78" /><path d="M13.95,58.11c4.47-0.7,10.63-1.41,16.76-2.49" /></g><g><g><g><g><g><g><path d="M55.69,12.5c0.04,0.23,0.17,0.61-0.09,0.91c-1.67,1.94-6.63,6.05-15.57,8.37" /></g><g><g><path d="M59.53,19.83c0.05,0.24,0.19,0.65-0.1,0.96c-1.97,2.1-8.15,6.88-18.09,9.2" /></g><g><path d="M62.52,27.42c0.07,0.3,0.14,0.78-0.13,1.22c-1.56,2.56-10.52,8.17-22.78,11.61" /></g></g></g></g><path d="M47.37,12.25c1.09,0.5,1.69,2.26,1.96,3.25C50,18,51.75,32,53,40" /></g><g><path d="M71.32,15.5c0.61,0.32,1.38,0.28,1.91,0.17c4.34-0.9,16.47-3.3,18.88-3.63c1.57-0.22,2,0.97,1.91,2.48c-0.23,3.99-4.71,20.27-7.13,22.98c-2.26,2.53-3.54,0.15-4.17-0.32" /><path d="M77.71,18.18c0.03,0.44,0.06,1.13-0.05,1.75c-0.87,4.63-3.56,12.02-9.27,16.79" /></g></g><g><g><g><path d="M66.25,39.25c0.9,0.34,1.61,1.53,1.61,2.24c0,3.62,0.24,9.82,0.24,13.26" /><path d="M68.74,47.34c5.86-0.52,12.22-1.38,18.38-1.72c1.43-0.08,1.79-0.17,2.69,0" /></g><path d="M50.22,44.07c0.9,0.34,1.43,1.55,1.61,2.24c0.18,0.69,0,5.34-0.18,9.64" /><path d="M36.75,56.3c0.68,0.17,2.48,0.58,4.28,0.52c9.71-0.34,42.05-3.1,51.25-3.1c1.8,0,4.94,0.34,5.97,0.52" /></g><g><g><g><path d="M60.54,58.02c0.17,0.14-0.09,1.44-0.22,1.75c-1.47,3.39-5.28,8.94-10.71,12.12" /><path d="M58.89,64.89c2.81,0.98,6.41,3.58,7.78,6.05" /></g><g><path d="M80.08,57.67c0.15,0.13-0.07,1.33-0.19,1.62c-1.22,3.14-4.38,8.27-8.89,11.22" /><path d="M78.42,64.54c2.81,0.98,6.41,3.58,7.78,6.05" /></g></g><path d="M45.27,75.76c2.91,0,43.63-2.24,46.33-2.24" /><g><g><path d="M60.54,78.69c0.17,0.14-0.09,1.44-0.22,1.75c-1.47,3.39-5.28,8.94-10.71,12.12" /><path d="M58.89,85.21c2.51,0.84,5.72,3.07,6.95,5.19" /></g><g><path d="M78.83,77.31c0.15,0.14-0.08,1.45-0.19,1.77c-1.25,3.43-4.48,9.05-9.09,12.28" /><path d="M77.8,84.01c3.04,1.12,6.92,4.09,8.4,6.91" /></g></g><g><path d="M43.03,61.21c0.63,0.31,1.82,1.29,1.67,2.93c-0.06,0.62-0.35,30.06-0.42,31c-0.06,0.94,0.54,1.73,1.79,1.65c13.52-0.88,32.85-1.57,45.52-1.91" /><path d="M91.22,58.11c0.39,0.31,1.23,2.31,1.31,2.93c0.08,0.62-0.17,21.95-0.13,36.34" /></g></g></g></g></g></g><g fill="none" stroke="#000" stroke-width="5" stroke-linecap="round" stroke-linejoin="round"><path d="M9.75,35.09c0.33,0.48,0.66,0.87,0.8,1.47c1.13,4.71,2.47,16.72,3.24,25.19" stroke-dasharray="27.097" stroke-dashoffset="27.097"><animate attributeName="stroke-dashoffset" values="27.097;27.097;0" dur="0.271s" fill="freeze" begin="0s;56d3.click" /></path><path d="M11.27,36.29c7.48-1.54,14.73-3.18,18.53-3.8c1.39-0.23,2.23,1.34,2.03,2.67c-0.82,5.51-2.29,12.16-3.51,19.78" stroke-dasharray="42.902" stroke-dashoffset="42.902"><animate attributeName="stroke-dashoffset" values="42.902" fill="freeze" begin="56d3.click" /><animate attributeName="stroke-dashoffset" values="42.902;42.902;0" keyTimes="0;0.387;1" dur="0.7s" fill="freeze" begin="0s;56d3.click" /></path><path d="M13.95,58.11c4.47-0.7,10.63-1.41,16.76-2.49" stroke-dasharray="16.946" stroke-dashoffset="16.946"><animate attributeName="stroke-dashoffset" values="16.946" fill="freeze" begin="56d3.click" /><animate attributeName="stroke-dashoffset" values="16.946;16.946;0" keyTimes="0;0.806;1" dur="0.869s" fill="freeze" begin="0s;56d3.click" /></path><path d="M55.69,12.5c0.04,0.23,0.17,0.61-0.09,0.91c-1.67,1.94-6.63,6.05-15.57,8.37" stroke-dasharray="18.861" stroke-dashoffset="18.861"><animate attributeName="stroke-dashoffset" values="18.861" fill="freeze" begin="56d3.click" /><animate attributeName="stroke-dashoffset" values="18.861;18.861;0" keyTimes="0;0.821;1" dur="1.058s" fill="freeze" begin="0s;56d3.click" /></path><path d="M59.53,19.83c0.05,0.24,0.19,0.65-0.1,0.96c-1.97,2.1-8.15,6.88-18.09,9.2" stroke-dasharray="21.551" stroke-dashoffset="21.551"><animate attributeName="stroke-dashoffset" values="21.551" fill="freeze" begin="56d3.click" /><animate attributeName="stroke-dashoffset" values="21.551;21.551;0" keyTimes="0;0.83;1" dur="1.274s" fill="freeze" begin="0s;56d3.click" /></path><path d="M62.52,27.42c0.07,0.3,0.14,0.78-0.13,1.22c-1.56,2.56-10.52,8.17-22.78,11.61" stroke-dasharray="27.13" stroke-dashoffset="27.13"><animate attributeName="stroke-dashoffset" values="27.13" fill="freeze" begin="56d3.click" /><animate attributeName="stroke-dashoffset" values="27.13;27.13;0" keyTimes="0;0.825;1" dur="1.545s" fill="freeze" begin="0s;56d3.click" /></path><path d="M47.37,12.25c1.09,0.5,1.69,2.26,1.96,3.25C50,18,51.75,32,53,40" stroke-dasharray="28.678" stroke-dashoffset="28.678"><animate attributeName="stroke-dashoffset" values="28.678" fill="freeze" begin="56d3.click" /><animate attributeName="stroke-dashoffset" values="28.678;28.678;0" keyTimes="0;0.843;1" dur="1.832s" fill="freeze" begin="0s;56d3.click" /></path><path d="M71.32,15.5c0.61,0.32,1.38,0.28,1.91,0.17c4.34-0.9,16.47-3.3,18.88-3.63c1.57-0.22,2,0.97,1.91,2.48c-0.23,3.99-4.71,20.27-7.13,22.98c-2.26,2.53-3.54,0.15-4.17-0.32" stroke-dasharray="54.185" stroke-dashoffset="54.185"><animate attributeName="stroke-dashoffset" values="54.185" fill="freeze" begin="56d3.click" /><animate attributeName="stroke-dashoffset" values="54.185;54.185;0" keyTimes="0;0.772;1" dur="2.374s" fill="freeze" begin="0s;56d3.click" /></path><path d="M77.71,18.18c0.03,0.44,0.06,1.13-0.05,1.75c-0.87,4.63-3.56,12.02-9.27,16.79" stroke-dasharray="21.293" stroke-dashoffset="21.293"><animate attributeName="stroke-dashoffset" values="21.293" fill="freeze" begin="56d3.click" /><animate attributeName="stroke-dashoffset" values="21.293;21.293;0" keyTimes="0;0.918;1" dur="2.587s" fill="freeze" begin="0s;56d3.click" /></path><path d="M66.25,39.25c0.9,0.34,1.61,1.53,1.61,2.24c0,3.62,0.24,9.82,0.24,13.26" stroke-dasharray="16.153" stroke-dashoffset="16.153"><animate attributeName="stroke-dashoffset" values="16.153" fill="freeze" begin="56d3.click" /><animate attributeName="stroke-dashoffset" values="16.153;16.153;0" keyTimes="0;0.941;1" dur="2.749s" fill="freeze" begin="0s;56d3.click" /></path><path d="M68.74,47.34c5.86-0.52,12.22-1.38,18.38-1.72c1.43-0.08,1.79-0.17,2.69,0" stroke-dasharray="21.162" stroke-dashoffset="21.162"><animate attributeName="stroke-dashoffset" values="21.162" fill="freeze" begin="56d3.click" /><animate attributeName="stroke-dashoffset" values="21.162;21.162;0" keyTimes="0;0.928;1" dur="2.961s" fill="freeze" begin="0s;56d3.click" /></path><path d="M50.22,44.07c0.9,0.34,1.43,1.55,1.61,2.24c0.18,0.69,0,5.34-0.18,9.64" stroke-dasharray="12.502" stroke-dashoffset="12.502"><animate attributeName="stroke-dashoffset" values="12.502" fill="freeze" begin="56d3.click" /><animate attributeName="stroke-dashoffset" values="12.502;12.502;0" keyTimes="0;0.959;1" dur="3.086s" fill="freeze" begin="0s;56d3.click" /></path><path d="M36.75,56.3c0.68,0.17,2.48,0.58,4.28,0.52c9.71-0.34,42.05-3.1,51.25-3.1c1.8,0,4.94,0.34,5.97,0.52" stroke-dasharray="61.671" stroke-dashoffset="61.671"><animate attributeName="stroke-dashoffset" values="61.671" fill="freeze" begin="56d3.click" /><animate attributeName="stroke-dashoffset" values="61.671;61.671;0" keyTimes="0;0.869;1" dur="3.55s" fill="freeze" begin="0s;56d3.click" /></path><path d="M60.54,58.02c0.17,0.14-0.09,1.44-0.22,1.75c-1.47,3.39-5.28,8.94-10.71,12.12" stroke-dasharray="18.205" stroke-dashoffset="18.205"><animate attributeName="stroke-dashoffset" values="18.205" fill="freeze" begin="56d3.click" /><animate attributeName="stroke-dashoffset" values="18.205;18.205;0" keyTimes="0;0.951;1" dur="3.732s" fill="freeze" begin="0s;56d3.click" /></path><path d="M58.89,64.89c2.81,0.98,6.41,3.58,7.78,6.05" stroke-dasharray="10.029" stroke-dashoffset="10.029"><animate attributeName="stroke-dashoffset" values="10.029" fill="freeze" begin="56d3.click" /><animate attributeName="stroke-dashoffset" values="10.029;10.029;0" keyTimes="0;0.974;1" dur="3.832s" fill="freeze" begin="0s;56d3.click" /></path><path d="M80.08,57.67c0.15,0.13-0.07,1.33-0.19,1.62c-1.22,3.14-4.38,8.27-8.89,11.22" stroke-dasharray="16.175" stroke-dashoffset="16.175"><animate attributeName="stroke-dashoffset" values="16.175" fill="freeze" begin="56d3.click" /><animate attributeName="stroke-dashoffset" values="16.175;16.175;0" keyTimes="0;0.959;1" dur="3.994s" fill="freeze" begin="0s;56d3.click" /></path><path d="M78.42,64.54c2.81,0.98,6.41,3.58,7.78,6.05" stroke-dasharray="10.029" stroke-dashoffset="10.029"><animate attributeName="stroke-dashoffset" values="10.029" fill="freeze" begin="56d3.click" /><animate attributeName="stroke-dashoffset" values="10.029;10.029;0" keyTimes="0;0.976;1" dur="4.094s" fill="freeze" begin="0s;56d3.click" /></path><path d="M45.27,75.76c2.91,0,43.63-2.24,46.33-2.24" stroke-dasharray="46.386" stroke-dashoffset="46.386"><animate attributeName="stroke-dashoffset" values="46.386" fill="freeze" begin="56d3.click" /><animate attributeName="stroke-dashoffset" values="46.386;46.386;0" keyTimes="0;0.898;1" dur="4.558s" fill="freeze" begin="0s;56d3.click" /></path><path d="M60.54,78.69c0.17,0.14-0.09,1.44-0.22,1.75c-1.47,3.39-5.28,8.94-10.71,12.12" stroke-dasharray="18.205" stroke-dashoffset="18.205"><animate attributeName="stroke-dashoffset" values="18.205" fill="freeze" begin="56d3.click" /><animate attributeName="stroke-dashoffset" values="18.205;18.205;0" keyTimes="0;0.962;1" dur="4.74s" fill="freeze" begin="0s;56d3.click" /></path><path d="M58.89,85.21c2.51,0.84,5.72,3.07,6.95,5.19" stroke-dasharray="8.823" stroke-dashoffset="8.823"><animate attributeName="stroke-dashoffset" values="8.823" fill="freeze" begin="56d3.click" /><animate attributeName="stroke-dashoffset" values="8.823;8.823;0" keyTimes="0;0.982;1" dur="4.828s" fill="freeze" begin="0s;56d3.click" /></path><path d="M78.83,77.31c0.15,0.14-0.08,1.45-0.19,1.77c-1.25,3.43-4.48,9.05-9.09,12.28" stroke-dasharray="17.289" stroke-dashoffset="17.289"><animate attributeName="stroke-dashoffset" values="17.289" fill="freeze" begin="56d3.click" /><animate attributeName="stroke-dashoffset" values="17.289;17.289;0" keyTimes="0;0.965;1" dur="5.001s" fill="freeze" begin="0s;56d3.click" /></path><path d="M77.8,84.01c3.04,1.12,6.92,4.09,8.4,6.91" stroke-dasharray="11.073" stroke-dashoffset="11.073"><animate attributeName="stroke-dashoffset" values="11.073" fill="freeze" begin="56d3.click" /><animate attributeName="stroke-dashoffset" values="11.073;11.073;0" keyTimes="0;0.978;1" dur="5.112s" fill="freeze" begin="0s;56d3.click" /></path><path d="M43.03,61.21c0.63,0.31,1.82,1.29,1.67,2.93c-0.06,0.62-0.35,30.06-0.42,31c-0.06,0.94,0.54,1.73,1.79,1.65c13.52-0.88,32.85-1.57,45.52-1.91" stroke-dasharray="82.963" stroke-dashoffset="82.963"><animate attributeName="stroke-dashoffset" values="82.963" fill="freeze" begin="56d3.click" /><animate attributeName="stroke-dashoffset" values="82.963;82.963;0" keyTimes="0;0.891;1" dur="5.736s" fill="freeze" begin="0s;56d3.click" /></path><path d="M91.22,58.11c0.39,0.31,1.23,2.31,1.31,2.93c0.08,0.62-0.17,21.95-0.13,36.34" stroke-dasharray="39.578" stroke-dashoffset="39.578"><animate attributeName="stroke-dashoffset" values="39.578" fill="freeze" begin="56d3.click" /><animate attributeName="stroke-dashoffset" values="39.578;39.578;0" keyTimes="0;0.935;1" dur="6.132s" fill="freeze" begin="0s;56d3.click" /></path></g></svg>