<svg xmlns="http://www.w3.org/2000/svg" width="109" height="109" viewBox="0 0 109 109" id="56db"><g fill="none" stroke="#666" stroke-width="9" stroke-linecap="round" stroke-linejoin="round"><g><g p4:part="1" xmlns:p4="http://kanjivg.tagaini.net"><path d="M14.5,31.48c1.51,1.51,2.25,3.27,2.53,5.2c1.14,7.9,2.61,25.18,4.39,40.83c0.29,2.55,0.34,3.81,0.64,6.24" /><path d="M17.85,34.04c21.65-1.92,51.52-3.92,67.82-4.3c4.85-0.11,6.31,2.62,6.04,5.38c-0.9,9.02-4.17,28.29-6.41,39.62c-0.49,2.49-0.94,4.6-1.3,6.13" /></g><g><g><path d="M40.5,36c0.08,0.64,0.12,1.65-0.16,2.57c-2.22,7.3-5.1,14.55-13.35,22.68" /></g><path d="M59.75,34.25c0.8,1.05,1.44,2.29,1.49,3.92c0.11,3.62,0.05,7.05,0.05,9.89c0,6.94,0.71,7.54,9.47,7.54c4.99,0,8.86-0.72,10.25-1.72" /></g><g p4:part="2" xmlns:p4="http://kanjivg.tagaini.net"><path d="M22.73,79.32c13.77-0.57,43.64-1.8,61.18-2.08" /></g></g></g><g fill="none" stroke="#000" stroke-width="5" stroke-linecap="round" stroke-linejoin="round"><g><g p4:part="1" xmlns:p4="http://kanjivg.tagaini.net"><path d="M14.5,31.48c1.51,1.51,2.25,3.27,2.53,5.2c1.14,7.9,2.61,25.18,4.39,40.83c0.29,2.55,0.34,3.81,0.64,6.24" stroke-dasharray="53.23" stroke-dashoffset="53.23"><animate id="0" attributeName="stroke-dashoffset" values="53.23;0" dur="0.53s" fill="freeze" begin="0s;56db.click" /></path><path d="M17.85,34.04c21.65-1.92,51.52-3.92,67.82-4.3c4.85-0.11,6.31,2.62,6.04,5.38c-0.9,9.02-4.17,28.29-6.41,39.62c-0.49,2.49-0.94,4.6-1.3,6.13" stroke-dasharray="123.78" stroke-dashoffset="123.78"><animate attributeName="stroke-dashoffset" values="123.78" fill="freeze" begin="56db.click" /><animate id="1" attributeName="stroke-dashoffset" values="123.78;0" dur="0.93s" fill="freeze" begin="0.end" /></path></g><g><g><path d="M40.5,36c0.08,0.64,0.12,1.65-0.16,2.57c-2.22,7.3-5.1,14.55-13.35,22.68" stroke-dasharray="29.23" stroke-dashoffset="29.23"><animate attributeName="stroke-dashoffset" values="29.23" fill="freeze" begin="56db.click" /><animate id="2" attributeName="stroke-dashoffset" values="29.23;0" dur="0.29s" fill="freeze" begin="1.end" /></path></g><path d="M59.75,34.25c0.8,1.05,1.44,2.29,1.49,3.92c0.11,3.62,0.05,7.05,0.05,9.89c0,6.94,0.71,7.54,9.47,7.54c4.99,0,8.86-0.72,10.25-1.72" stroke-dasharray="39.62" stroke-dashoffset="39.62"><animate attributeName="stroke-dashoffset" values="39.62" fill="freeze" begin="56db.click" /><animate id="3" attributeName="stroke-dashoffset" values="39.62;0" dur="0.4s" fill="freeze" begin="2.end" /></path></g><g p4:part="2" xmlns:p4="http://kanjivg.tagaini.net"><path d="M22.73,79.32c13.77-0.57,43.64-1.8,61.18-2.08" stroke-dasharray="61.22" stroke-dashoffset="61.22"><animate attributeName="stroke-dashoffset" values="61.22" fill="freeze" begin="56db.click" /><animate id="4" attributeName="stroke-dashoffset" values="61.22;0" dur="0.46s" fill="freeze" begin="3.end" /></path></g></g></g></svg>