<svg xmlns="http://www.w3.org/2000/svg" width="109" height="109" viewBox="0 0 109 109" id="56f2"><g fill="none" stroke="#666" stroke-width="9" stroke-linecap="round" stroke-linejoin="round"><g><g><path d="M18.75,19.07c1.03,1.03,1.86,2.76,1.86,4.66c0,17.53-0.05,43.77-0.06,69.15c0,1.8,0,3.59,0,5.38" /><path d="M21.48,21.4c18.9-1.9,46.27-4.9,62.77-4.9c2.42,0,4.25,1.25,4.25,3.5c0,16.23,0,47.53,0,69.75c0,1.91,0,3.74,0,5.5" /></g><g p4:phon="韋" xmlns:p4="http://kanjivg.tagaini.net"><g><path d="M32.99,43.3c1.88,0.45,3.69,0.42,5.26,0.21c6.95-0.93,23.4-2.77,31.87-3.42c1.9-0.15,3.78-0.36,5.66,0.04" /></g><g><g><g><path d="M29.04,61.7c2.33,0.67,4.31,0.52,6.59,0.22c7.61-0.99,26.02-3.02,38.12-3.86c2.04-0.14,3.94-0.21,5.96,0.22" /></g></g><g><path d="M43.23,29.83c0.66,0.66,1.25,1.92,1.3,3.04c1.6,35-1.02,44-10.25,52.59" /></g><g><path d="M61.79,25.75c0.98,0.98,1.62,2.62,1.62,4.21c0,2.43-0.12,37.44-0.14,50.41c0,1.93-0.01,3.36-0.01,4.12" /></g></g></g><g><path d="M21.75,94.01c14.88-0.76,47-2.39,65.75-3.01" /></g></g></g><g fill="none" stroke="#000" stroke-width="5" stroke-linecap="round" stroke-linejoin="round"><g><g><path d="M18.75,19.07c1.03,1.03,1.86,2.76,1.86,4.66c0,17.53-0.05,43.77-0.06,69.15c0,1.8,0,3.59,0,5.38" stroke-dasharray="79.672" stroke-dashoffset="79.672"><animate attributeName="stroke-dashoffset" values="79.672;79.672;0" dur="0.599s" fill="freeze" begin="0s;56f2.click" /></path><path d="M21.48,21.4c18.9-1.9,46.27-4.9,62.77-4.9c2.42,0,4.25,1.25,4.25,3.5c0,16.23,0,47.53,0,69.75c0,1.91,0,3.74,0,5.5" stroke-dasharray="144.429" stroke-dashoffset="144.429"><animate attributeName="stroke-dashoffset" values="144.429" fill="freeze" begin="56f2.click" /><animate attributeName="stroke-dashoffset" values="144.429;144.429;0" keyTimes="0;0.355;1" dur="1.685s" fill="freeze" begin="0s;56f2.click" /></path></g><g p4:phon="韋" xmlns:p4="http://kanjivg.tagaini.net"><g><path d="M32.99,43.3c1.88,0.45,3.69,0.42,5.26,0.21c6.95-0.93,23.4-2.77,31.87-3.42c1.9-0.15,3.78-0.36,5.66,0.04" stroke-dasharray="43.033" stroke-dashoffset="43.033"><animate attributeName="stroke-dashoffset" values="43.033" fill="freeze" begin="56f2.click" /><animate attributeName="stroke-dashoffset" values="43.033;43.033;0" keyTimes="0;0.797;1" dur="2.115s" fill="freeze" begin="0s;56f2.click" /></path></g><g><g><g><path d="M29.04,61.7c2.33,0.67,4.31,0.52,6.59,0.22c7.61-0.99,26.02-3.02,38.12-3.86c2.04-0.14,3.94-0.21,5.96,0.22" stroke-dasharray="50.952" stroke-dashoffset="50.952"><animate attributeName="stroke-dashoffset" values="50.952" fill="freeze" begin="56f2.click" /><animate attributeName="stroke-dashoffset" values="50.952;50.952;0" keyTimes="0;0.806;1" dur="2.625s" fill="freeze" begin="0s;56f2.click" /></path></g></g><g><path d="M43.23,29.83c0.66,0.66,1.25,1.92,1.3,3.04c1.6,35-1.02,44-10.25,52.59" stroke-dasharray="58.811" stroke-dashoffset="58.811"><animate attributeName="stroke-dashoffset" values="58.811" fill="freeze" begin="56f2.click" /><animate attributeName="stroke-dashoffset" values="58.811;58.811;0" keyTimes="0;0.817;1" dur="3.213s" fill="freeze" begin="0s;56f2.click" /></path></g><g><path d="M61.79,25.75c0.98,0.98,1.62,2.62,1.62,4.21c0,2.43-0.12,37.44-0.14,50.41c0,1.93-0.01,3.36-0.01,4.12" stroke-dasharray="59.151" stroke-dashoffset="59.151"><animate attributeName="stroke-dashoffset" values="59.151" fill="freeze" begin="56f2.click" /><animate attributeName="stroke-dashoffset" values="59.151;59.151;0" keyTimes="0;0.844;1" dur="3.805s" fill="freeze" begin="0s;56f2.click" /></path></g></g></g><g><path d="M21.75,94.01c14.88-0.76,47-2.39,65.75-3.01" stroke-dasharray="65.821" stroke-dashoffset="65.821"><animate attributeName="stroke-dashoffset" values="65.821" fill="freeze" begin="56f2.click" /><animate attributeName="stroke-dashoffset" values="65.821;65.821;0" keyTimes="0;0.885;1" dur="4.3s" fill="freeze" begin="0s;56f2.click" /></path></g></g></g></svg>