<svg xmlns="http://www.w3.org/2000/svg" width="109" height="109" viewBox="0 0 109 109" id="56fa"><g fill="none" stroke="#666" stroke-width="9" stroke-linecap="round" stroke-linejoin="round"><g><g p4:part="1" xmlns:p4="http://kanjivg.tagaini.net"><path d="M20,17.53c0.86,0.86,1.61,2.63,1.61,4.44c0,12.55-0.24,47.29-0.3,66.16c-0.01,2.41-0.01,4.56-0.01,6.38" /><path d="M22.23,20.24c19.27-1.87,50.9-4.12,63.27-4.74c2.75-0.14,4.75,2.37,4.75,5.23c0,13.3,0,43.27,0,64.52c0,3.35,0,5.5,0,8.38" /></g><g p4:phon="古" xmlns:p4="http://kanjivg.tagaini.net"><g><path d="M29.75,39.56c2.5,0.44,4.44,0.3,6.77,0.04c8.12-0.89,24.77-3.16,34.6-3.53c2.31-0.09,4.71-0.18,7,0.2" /><path d="M53.11,23.49c0.89,0.89,1.42,2.26,1.42,3.6c0,12.64,0.09,22.41,0.09,28.35" /></g><g><path d="M37.79,56.65c0.63,1.45,0.88,2.42,1.1,3.96c0.55,3.7,1.23,9.52,1.91,14.64c0.16,1.22,0.32,2.41,0.48,3.51" /><path d="M39.23,58.96c8.64-1.33,22.4-3.59,27.83-3.71c2.25-0.04,3.18,0.75,2.76,2.89c-0.83,4.17-1.93,9.51-3.15,15.06" /><path d="M42.21,76.4c6.54-0.54,15.81-1.55,23.29-2.11c1.57-0.12,3.05-0.21,4.42-0.28" /></g></g><g p4:part="2" xmlns:p4="http://kanjivg.tagaini.net"><path d="M22.75,90.66c14.38-0.54,48.46-2.25,66.5-2.64" /></g></g></g><g fill="none" stroke="#000" stroke-width="5" stroke-linecap="round" stroke-linejoin="round"><g><g p4:part="1" xmlns:p4="http://kanjivg.tagaini.net"><path d="M20,17.53c0.86,0.86,1.61,2.63,1.61,4.44c0,12.55-0.24,47.29-0.3,66.16c-0.01,2.41-0.01,4.56-0.01,6.38" stroke-dasharray="77.37" stroke-dashoffset="77.37"><animate id="0" attributeName="stroke-dashoffset" values="77.37;0" dur="0.58s" fill="freeze" begin="0s;56fa.click" /></path><path d="M22.23,20.24c19.27-1.87,50.9-4.12,63.27-4.74c2.75-0.14,4.75,2.37,4.75,5.23c0,13.3,0,43.27,0,64.52c0,3.35,0,5.5,0,8.38" stroke-dasharray="144.26" stroke-dashoffset="144.26"><animate attributeName="stroke-dashoffset" values="144.26" fill="freeze" begin="56fa.click" /><animate id="1" attributeName="stroke-dashoffset" values="144.26;0" dur="1.08s" fill="freeze" begin="0.end" /></path></g><g p4:phon="古" xmlns:p4="http://kanjivg.tagaini.net"><g><path d="M29.75,39.56c2.5,0.44,4.44,0.3,6.77,0.04c8.12-0.89,24.77-3.16,34.6-3.53c2.31-0.09,4.71-0.18,7,0.2" stroke-dasharray="48.6" stroke-dashoffset="48.6"><animate attributeName="stroke-dashoffset" values="48.6" fill="freeze" begin="56fa.click" /><animate id="2" attributeName="stroke-dashoffset" values="48.6;0" dur="0.49s" fill="freeze" begin="1.end" /></path><path d="M53.11,23.49c0.89,0.89,1.42,2.26,1.42,3.6c0,12.64,0.09,22.41,0.09,28.35" stroke-dasharray="32.32" stroke-dashoffset="32.32"><animate attributeName="stroke-dashoffset" values="32.32" fill="freeze" begin="56fa.click" /><animate id="3" attributeName="stroke-dashoffset" values="32.32;0" dur="0.32s" fill="freeze" begin="2.end" /></path></g><g><path d="M37.79,56.65c0.63,1.45,0.88,2.42,1.1,3.96c0.55,3.7,1.23,9.52,1.91,14.64c0.16,1.22,0.32,2.41,0.48,3.51" stroke-dasharray="22.43" stroke-dashoffset="22.43"><animate attributeName="stroke-dashoffset" values="22.43" fill="freeze" begin="56fa.click" /><animate id="4" attributeName="stroke-dashoffset" values="22.43;0" dur="0.22s" fill="freeze" begin="3.end" /></path><path d="M39.23,58.96c8.64-1.33,22.4-3.59,27.83-3.71c2.25-0.04,3.18,0.75,2.76,2.89c-0.83,4.17-1.93,9.51-3.15,15.06" stroke-dasharray="48.39" stroke-dashoffset="48.39"><animate attributeName="stroke-dashoffset" values="48.39" fill="freeze" begin="56fa.click" /><animate id="5" attributeName="stroke-dashoffset" values="48.39;0" dur="0.48s" fill="freeze" begin="4.end" /></path><path d="M42.21,76.4c6.54-0.54,15.81-1.55,23.29-2.11c1.57-0.12,3.05-0.21,4.42-0.28" stroke-dasharray="27.81" stroke-dashoffset="27.81"><animate attributeName="stroke-dashoffset" values="27.81" fill="freeze" begin="56fa.click" /><animate id="6" attributeName="stroke-dashoffset" values="27.81;0" dur="0.28s" fill="freeze" begin="5.end" /></path></g></g><g p4:part="2" xmlns:p4="http://kanjivg.tagaini.net"><path d="M22.75,90.66c14.38-0.54,48.46-2.25,66.5-2.64" stroke-dasharray="66.55" stroke-dashoffset="66.55"><animate attributeName="stroke-dashoffset" values="66.55" fill="freeze" begin="56fa.click" /><animate id="7" attributeName="stroke-dashoffset" values="66.55;0" dur="0.5s" fill="freeze" begin="6.end" /></path></g></g></g></svg>