<svg xmlns="http://www.w3.org/2000/svg" width="109" height="109" viewBox="0 0 109 109" id="56fd"><g fill="none" stroke="#666" stroke-width="9" stroke-linecap="round" stroke-linejoin="round"><g><g><path d="M19,16.82c1.09,1.09,1.61,2.51,1.61,4.41c0,14.65-0.22,44.9-0.22,71.53c0,1.95-0.06,3.86-0.09,5.75" /><path d="M21.52,18.67C41.38,16.75,74.03,13.5,85,13.5c3.38,0,5,1.85,5,5.25c0,15.36-0.04,47.89-0.08,70.62c0,1.68,0,3.31,0,4.88" /></g><g p4:phon="或V" xmlns:p4="http://kanjivg.tagaini.net"><g p4:partial><path d="M35.12,33.88c1.32,0.28,4.2,0.44,5.51,0.28c10.47-1.29,20.62-2.54,28.62-3.13c2.02-0.15,3.88-0.19,5.56,0.04" /><path d="M52.8,34.89c0.96,0.97,1.47,2.48,1.47,3.81c0,3.99-0.13,24.74-0.09,33.55" /><path d="M37.58,52.16c1.79,0.22,3.41,0.14,5.36-0.08c7.56-0.83,17.56-1.99,25.38-2.8c1.25-0.13,4.02-0.15,5.89,0.17" /><path d="M31.08,75.14c1.54,0.36,3.85,0.28,5.19,0.16c9.98-0.92,25.85-2.67,37.03-3.54c2.15-0.17,5.04-0.18,6.12,0.13" /></g><g><path d="M67.75,56.62c3,1.75,6.12,5.12,8,8.38" /></g></g><g><path d="M21.5,93.01c14.25-0.51,48.38-1.89,67-2.51" /></g></g></g><g fill="none" stroke="#000" stroke-width="5" stroke-linecap="round" stroke-linejoin="round"><g><g><path d="M19,16.82c1.09,1.09,1.61,2.51,1.61,4.41c0,14.65-0.22,44.9-0.22,71.53c0,1.95-0.06,3.86-0.09,5.75" stroke-dasharray="82.109" stroke-dashoffset="82.109"><animate attributeName="stroke-dashoffset" values="82.109;82.109;0" dur="0.617s" fill="freeze" begin="0s;56fd.click" /></path><path d="M21.52,18.67C41.38,16.75,74.03,13.5,85,13.5c3.38,0,5,1.85,5,5.25c0,15.36-0.04,47.89-0.08,70.62c0,1.68,0,3.31,0,4.88" stroke-dasharray="147.512" stroke-dashoffset="147.512"><animate attributeName="stroke-dashoffset" values="147.512" fill="freeze" begin="56fd.click" /><animate attributeName="stroke-dashoffset" values="147.512;147.512;0" keyTimes="0;0.357;1" dur="1.726s" fill="freeze" begin="0s;56fd.click" /></path></g><g p4:phon="或V" xmlns:p4="http://kanjivg.tagaini.net"><g p4:partial><path d="M35.12,33.88c1.32,0.28,4.2,0.44,5.51,0.28c10.47-1.29,20.62-2.54,28.62-3.13c2.02-0.15,3.88-0.19,5.56,0.04" stroke-dasharray="39.897" stroke-dashoffset="39.897"><animate attributeName="stroke-dashoffset" values="39.897" fill="freeze" begin="56fd.click" /><animate attributeName="stroke-dashoffset" values="39.897;39.897;0" keyTimes="0;0.812;1" dur="2.125s" fill="freeze" begin="0s;56fd.click" /></path><path d="M52.8,34.89c0.96,0.97,1.47,2.48,1.47,3.81c0,3.99-0.13,24.74-0.09,33.55" stroke-dasharray="37.733" stroke-dashoffset="37.733"><animate attributeName="stroke-dashoffset" values="37.733" fill="freeze" begin="56fd.click" /><animate attributeName="stroke-dashoffset" values="37.733;37.733;0" keyTimes="0;0.849;1" dur="2.502s" fill="freeze" begin="0s;56fd.click" /></path><path d="M37.58,52.16c1.79,0.22,3.41,0.14,5.36-0.08c7.56-0.83,17.56-1.99,25.38-2.8c1.25-0.13,4.02-0.15,5.89,0.17" stroke-dasharray="36.815" stroke-dashoffset="36.815"><animate attributeName="stroke-dashoffset" values="36.815" fill="freeze" begin="56fd.click" /><animate attributeName="stroke-dashoffset" values="36.815;36.815;0" keyTimes="0;0.872;1" dur="2.87s" fill="freeze" begin="0s;56fd.click" /></path><path d="M31.08,75.14c1.54,0.36,3.85,0.28,5.19,0.16c9.98-0.92,25.85-2.67,37.03-3.54c2.15-0.17,5.04-0.18,6.12,0.13" stroke-dasharray="48.551" stroke-dashoffset="48.551"><animate attributeName="stroke-dashoffset" values="48.551" fill="freeze" begin="56fd.click" /><animate attributeName="stroke-dashoffset" values="48.551;48.551;0" keyTimes="0;0.855;1" dur="3.356s" fill="freeze" begin="0s;56fd.click" /></path></g><g><path d="M67.75,56.62c3,1.75,6.12,5.12,8,8.38" stroke-dasharray="11.701" stroke-dashoffset="11.701"><animate attributeName="stroke-dashoffset" values="11.701" fill="freeze" begin="56fd.click" /><animate attributeName="stroke-dashoffset" values="11.701;11.701;0" keyTimes="0;0.966;1" dur="3.473s" fill="freeze" begin="0s;56fd.click" /></path></g></g><g><path d="M21.5,93.01c14.25-0.51,48.38-1.89,67-2.51" stroke-dasharray="67.048" stroke-dashoffset="67.048"><animate attributeName="stroke-dashoffset" values="67.048" fill="freeze" begin="56fd.click" /><animate attributeName="stroke-dashoffset" values="67.048;67.048;0" keyTimes="0;0.873;1" dur="3.977s" fill="freeze" begin="0s;56fd.click" /></path></g></g></g></svg>