<svg xmlns="http://www.w3.org/2000/svg" width="109" height="109" viewBox="0 0 109 109" id="5723"><g fill="none" stroke="#666" stroke-width="6" stroke-linecap="round" stroke-linejoin="round"><g><g><path d="M23.468618,18.016316C25.61825,18.353763,28.401108,18.343218,32.700372,17.826502C36.516386,17.373057,59.295823,14.209492,66.494591,12.986246C71.760357,12.089903,75.959639,12.944065,73.276764,16.856342C58.529287,38.379134,40.732332,50.347957,16.136539,59.596114" /><path d="M25.551595,27.412106C31.850518,28.055364,58.096028,40.61472,81.475362,51.254846C86.974421,53.764608,91.223694,55.504569,96.639434,56.432549" /></g><g><path d="M22.902048,73.220537C27.267968,73.969248,30.667387,73.557984,34.150124,73.315444C50.713957,72.15547,59.19584,71.079858,76.00963,70.668594C79.325729,70.584233,82.55851,70.499871,85.807954,70.974406" /><path d="M50.464,55.504569C51.997071,56.47473,52.980236,57.898334,52.9969,59.87029C53.096883,71.997292,52.813598,87.625306,52.813598,90.831053" /><path d="M9.5709956,92.919006C12.853767,93.657172,18.902733,93.846986,22.185504,93.657172C44.215069,92.423381,70.710537,91.432131,87.840939,91.474311C93.323335,91.484857,96.606107,91.822304,99.355636,92.201931" /></g></g></g><g fill="none" stroke="#000" stroke-width="3" stroke-linecap="round" stroke-linejoin="round"><path d="M23.468618,18.016316C25.61825,18.353763,28.401108,18.343218,32.700372,17.826502C36.516386,17.373057,59.295823,14.209492,66.494591,12.986246C71.760357,12.089903,75.959639,12.944065,73.276764,16.856342C58.529287,38.379134,40.732332,50.347957,16.136539,59.596114" stroke-dasharray="126.95" stroke-dashoffset="126.95"><animate attributeName="stroke-dashoffset" values="126.95;126.95;0" dur="0.955s" fill="freeze" begin="0s;5723.click" /></path><path d="M25.551595,27.412106C31.850518,28.055364,58.096028,40.61472,81.475362,51.254846C86.974421,53.764608,91.223694,55.504569,96.639434,56.432549" stroke-dasharray="76.946" stroke-dashoffset="76.946"><animate attributeName="stroke-dashoffset" values="76.946" fill="freeze" begin="5723.click" /><animate attributeName="stroke-dashoffset" values="76.946;76.946;0" keyTimes="0;0.623;1" dur="1.534s" fill="freeze" begin="0s;5723.click" /></path><path d="M22.902048,73.220537C27.267968,73.969248,30.667387,73.557984,34.150124,73.315444C50.713957,72.15547,59.19584,71.079858,76.00963,70.668594C79.325729,70.584233,82.55851,70.499871,85.807954,70.974406" stroke-dasharray="63.049" stroke-dashoffset="63.049"><animate attributeName="stroke-dashoffset" values="63.049" fill="freeze" begin="5723.click" /><animate attributeName="stroke-dashoffset" values="63.049;63.049;0" keyTimes="0;0.764;1" dur="2.008s" fill="freeze" begin="0s;5723.click" /></path><path d="M50.464,55.504569C51.997071,56.47473,52.980236,57.898334,52.9969,59.87029C53.096883,71.997292,52.813598,87.625306,52.813598,90.831053" stroke-dasharray="36.246" stroke-dashoffset="36.246"><animate attributeName="stroke-dashoffset" values="36.246" fill="freeze" begin="5723.click" /><animate attributeName="stroke-dashoffset" values="36.246;36.246;0" keyTimes="0;0.847;1" dur="2.37s" fill="freeze" begin="0s;5723.click" /></path><path d="M9.5709956,92.919006C12.853767,93.657172,18.902733,93.846986,22.185504,93.657172C44.215069,92.423381,70.710537,91.432131,87.840939,91.474311C93.323335,91.484857,96.606107,91.822304,99.355636,92.201931" stroke-dasharray="89.912" stroke-dashoffset="89.912"><animate attributeName="stroke-dashoffset" values="89.912" fill="freeze" begin="5723.click" /><animate attributeName="stroke-dashoffset" values="89.912;89.912;0" keyTimes="0;0.778;1" dur="3.046s" fill="freeze" begin="0s;5723.click" /></path></g></svg>