<svg xmlns="http://www.w3.org/2000/svg" width="109" height="109" viewBox="0 0 109 109" id="5766"><g fill="none" stroke="#666" stroke-width="9" stroke-linecap="round" stroke-linejoin="round"><g><g><path d="M12.25,44.89c0.76,0.38,2.24,0.42,3,0.36c6.5-0.5,18.65-2.39,24-3c1.25-0.14,2.62-0.18,3.25,0.01" /><path d="M27.37,19.75c1.09,0.5,1.74,2.25,1.96,3.25c0.22,1,0,43.25-0.22,49.5" /><path d="M13,82c2,0.5,3.75,0.25,5.12-0.68c7.45-5.02,14.51-10.59,21.63-16.08" /></g><g><g><path d="M51.56,23.66c0.5,1.11,1.01,1.67,1.01,3.16c0,1.49-0.17,44.84,0,46.33" /><path d="M52.92,24.85c2.86-0.19,26.08-2.38,28.68-2.6c2.17-0.19,3.56,2.06,3.39,3.16c-0.34,2.23-0.17,44.89-0.17,46" /><path d="M52.92,46.89c3.86,0,27.36-2.36,31.73-2.36" /><path d="M52.42,70.1c8.83-0.85,24.08-2.1,32.4-2.49" /></g><g><path d="M39.55,88.59c1.16,0.46,3.3,0.49,4.46,0.46c10.28-0.23,38.58-2.56,50.61-2.54c1.94,0,3.1,0.22,4.07,0.45" /></g></g></g></g><g fill="none" stroke="#000" stroke-width="5" stroke-linecap="round" stroke-linejoin="round"><g><g><path d="M12.25,44.89c0.76,0.38,2.24,0.42,3,0.36c6.5-0.5,18.65-2.39,24-3c1.25-0.14,2.62-0.18,3.25,0.01" stroke-dasharray="30.5" stroke-dashoffset="30.5"><animate id="0" attributeName="stroke-dashoffset" values="30.5;0" dur="0.3s" fill="freeze" begin="0s;5766.click" /></path><path d="M27.37,19.75c1.09,0.5,1.74,2.25,1.96,3.25c0.22,1,0,43.25-0.22,49.5" stroke-dasharray="53.41" stroke-dashoffset="53.41"><animate attributeName="stroke-dashoffset" values="53.41" fill="freeze" begin="5766.click" /><animate id="1" attributeName="stroke-dashoffset" values="53.41;0" dur="0.53s" fill="freeze" begin="0.end" /></path><path d="M13,82c2,0.5,3.75,0.25,5.12-0.68c7.45-5.02,14.51-10.59,21.63-16.08" stroke-dasharray="32.28" stroke-dashoffset="32.28"><animate attributeName="stroke-dashoffset" values="32.28" fill="freeze" begin="5766.click" /><animate id="2" attributeName="stroke-dashoffset" values="32.28;0" dur="0.32s" fill="freeze" begin="1.end" /></path></g><g><g><path d="M51.56,23.66c0.5,1.11,1.01,1.67,1.01,3.16c0,1.49-0.17,44.84,0,46.33" stroke-dasharray="49.69" stroke-dashoffset="49.69"><animate attributeName="stroke-dashoffset" values="49.69" fill="freeze" begin="5766.click" /><animate id="3" attributeName="stroke-dashoffset" values="49.69;0" dur="0.5s" fill="freeze" begin="2.end" /></path><path d="M52.92,24.85c2.86-0.19,26.08-2.38,28.68-2.6c2.17-0.19,3.56,2.06,3.39,3.16c-0.34,2.23-0.17,44.89-0.17,46" stroke-dasharray="79.99" stroke-dashoffset="79.99"><animate attributeName="stroke-dashoffset" values="79.99" fill="freeze" begin="5766.click" /><animate id="4" attributeName="stroke-dashoffset" values="79.99;0" dur="0.6s" fill="freeze" begin="3.end" /></path><path d="M52.92,46.89c3.86,0,27.36-2.36,31.73-2.36" stroke-dasharray="31.82" stroke-dashoffset="31.82"><animate attributeName="stroke-dashoffset" values="31.82" fill="freeze" begin="5766.click" /><animate id="5" attributeName="stroke-dashoffset" values="31.82;0" dur="0.32s" fill="freeze" begin="4.end" /></path><path d="M52.42,70.1c8.83-0.85,24.08-2.1,32.4-2.49" stroke-dasharray="32.5" stroke-dashoffset="32.5"><animate attributeName="stroke-dashoffset" values="32.5" fill="freeze" begin="5766.click" /><animate id="6" attributeName="stroke-dashoffset" values="32.5;0" dur="0.32s" fill="freeze" begin="5.end" /></path></g><g><path d="M39.55,88.59c1.16,0.46,3.3,0.49,4.46,0.46c10.28-0.23,38.58-2.56,50.61-2.54c1.94,0,3.1,0.22,4.07,0.45" stroke-dasharray="59.29" stroke-dashoffset="59.29"><animate attributeName="stroke-dashoffset" values="59.29" fill="freeze" begin="5766.click" /><animate id="7" attributeName="stroke-dashoffset" values="59.29;0" dur="0.59s" fill="freeze" begin="6.end" /></path></g></g></g></g></svg>