<svg xmlns="http://www.w3.org/2000/svg" width="109" height="109" viewBox="0 0 109 109" id="578b"><g fill="none" stroke="#666" stroke-width="9" stroke-linecap="round" stroke-linejoin="round"><g><g p4:phon="刑" xmlns:p4="http://kanjivg.tagaini.net"><g p4:partial><g><path d="M17.54,22.38c1.11,0.38,3.15,0.44,4.27,0.38c8.24-0.43,18.19-1.89,26.67-2.98c1.84-0.24,2.97-0.07,3.9,0.12" /><g><path d="M12.61,39.56c1.9,0.52,3.99,0.44,5.91,0.23c7.52-0.84,24.67-3.51,33.12-4.47c2.11-0.24,4.1-0.43,6.21-0.08" /><path d="M28.06,25.73c0.62,1.04,0.94,2.29,0.99,3.39C30,49.5,26.5,59.38,17.58,65.46" /></g></g><g p4:partial><g p4:partial><path d="M41.84,23.81c0.74,0.74,1.3,2.19,1.3,3.49c0,2.66-0.08,18.19-0.12,27.07c-0.01,2.2-0.01,4-0.01,5.08" /></g></g></g><g><path d="M66.4,20.05c0.91,0.81,1.62,2.2,1.62,4.44c0,4.77-0.01,14.36-0.02,20.63c0,1.63,0,3.07,0,4.2" /><path d="M86.56,13.58c0.93,0.93,1.62,2.29,1.62,3.87c0,9.05,0.02,34.57,0.02,37.65c0,8.77-4.08,2.34-6.44-0.35" /></g></g><g><path d="M33.13,70.42c2.37,0.46,4.68,0.29,6.87,0.06c10.41-1.06,21.21-2.06,30.25-2.64c2.18-0.14,4.24-0.31,6.38,0.2" /><path d="M52.67,53.62c0.98,0.98,2.02,2.77,2.02,4.64c0,11-0.11,25.75-0.11,30.11" /><path d="M17.38,90.48c3.33,1.19,7.09,1.13,10.5,0.83c14.22-1.27,39.81-2.83,56.25-3.19c3.27-0.07,6.53,0.01,9.75,0.7" /></g></g></g><g fill="none" stroke="#000" stroke-width="5" stroke-linecap="round" stroke-linejoin="round"><g><g p4:phon="刑" xmlns:p4="http://kanjivg.tagaini.net"><g p4:partial><g><path d="M17.54,22.38c1.11,0.38,3.15,0.44,4.27,0.38c8.24-0.43,18.19-1.89,26.67-2.98c1.84-0.24,2.97-0.07,3.9,0.12" stroke-dasharray="35.07" stroke-dashoffset="35.07"><animate id="0" attributeName="stroke-dashoffset" values="35.07;0" dur="0.35s" fill="freeze" begin="0s;578b.click" /></path><g><path d="M12.61,39.56c1.9,0.52,3.99,0.44,5.91,0.23c7.52-0.84,24.67-3.51,33.12-4.47c2.11-0.24,4.1-0.43,6.21-0.08" stroke-dasharray="45.6" stroke-dashoffset="45.6"><animate attributeName="stroke-dashoffset" values="45.6" fill="freeze" begin="578b.click" /><animate id="1" attributeName="stroke-dashoffset" values="45.6;0" dur="0.46s" fill="freeze" begin="0.end" /></path><path d="M28.06,25.73c0.62,1.04,0.94,2.29,0.99,3.39C30,49.5,26.5,59.38,17.58,65.46" stroke-dasharray="43.53" stroke-dashoffset="43.53"><animate attributeName="stroke-dashoffset" values="43.53" fill="freeze" begin="578b.click" /><animate id="2" attributeName="stroke-dashoffset" values="43.53;0" dur="0.44s" fill="freeze" begin="1.end" /></path></g></g><g p4:partial><g p4:partial><path d="M41.84,23.81c0.74,0.74,1.3,2.19,1.3,3.49c0,2.66-0.08,18.19-0.12,27.07c-0.01,2.2-0.01,4-0.01,5.08" stroke-dasharray="35.96" stroke-dashoffset="35.96"><animate attributeName="stroke-dashoffset" values="35.96" fill="freeze" begin="578b.click" /><animate id="3" attributeName="stroke-dashoffset" values="35.96;0" dur="0.36s" fill="freeze" begin="2.end" /></path></g></g></g><g><path d="M66.4,20.05c0.91,0.81,1.62,2.2,1.62,4.44c0,4.77-0.01,14.36-0.02,20.63c0,1.63,0,3.07,0,4.2" stroke-dasharray="29.7" stroke-dashoffset="29.7"><animate attributeName="stroke-dashoffset" values="29.7" fill="freeze" begin="578b.click" /><animate id="4" attributeName="stroke-dashoffset" values="29.7;0" dur="0.3s" fill="freeze" begin="3.end" /></path><path d="M86.56,13.58c0.93,0.93,1.62,2.29,1.62,3.87c0,9.05,0.02,34.57,0.02,37.65c0,8.77-4.08,2.34-6.44-0.35" stroke-dasharray="54.05" stroke-dashoffset="54.05"><animate attributeName="stroke-dashoffset" values="54.05" fill="freeze" begin="578b.click" /><animate id="5" attributeName="stroke-dashoffset" values="54.05;0" dur="0.54s" fill="freeze" begin="4.end" /></path></g></g><g><path d="M33.13,70.42c2.37,0.46,4.68,0.29,6.87,0.06c10.41-1.06,21.21-2.06,30.25-2.64c2.18-0.14,4.24-0.31,6.38,0.2" stroke-dasharray="43.67" stroke-dashoffset="43.67"><animate attributeName="stroke-dashoffset" values="43.67" fill="freeze" begin="578b.click" /><animate id="6" attributeName="stroke-dashoffset" values="43.67;0" dur="0.44s" fill="freeze" begin="5.end" /></path><path d="M52.67,53.62c0.98,0.98,2.02,2.77,2.02,4.64c0,11-0.11,25.75-0.11,30.11" stroke-dasharray="35.29" stroke-dashoffset="35.29"><animate attributeName="stroke-dashoffset" values="35.29" fill="freeze" begin="578b.click" /><animate id="7" attributeName="stroke-dashoffset" values="35.29;0" dur="0.35s" fill="freeze" begin="6.end" /></path><path d="M17.38,90.48c3.33,1.19,7.09,1.13,10.5,0.83c14.22-1.27,39.81-2.83,56.25-3.19c3.27-0.07,6.53,0.01,9.75,0.7" stroke-dasharray="76.76" stroke-dashoffset="76.76"><animate attributeName="stroke-dashoffset" values="76.76" fill="freeze" begin="578b.click" /><animate id="8" attributeName="stroke-dashoffset" values="76.76;0" dur="0.58s" fill="freeze" begin="7.end" /></path></g></g></g></svg>