<svg xmlns="http://www.w3.org/2000/svg" width="109" height="109" viewBox="0 0 109 109" id="57a2"><g fill="none" stroke="#666" stroke-width="9" stroke-linecap="round" stroke-linejoin="round"><g><g><path d="M11.5,47.39c2.07,0.42,4.16,0.49,6.26,0.22c5.85-0.86,14.46-2.79,18.62-3.59c1.61-0.31,3.23-0.48,4.87-0.51" /><path d="M27.37,16.5c1.19,1.19,1.21,2.5,1.21,3.75c0,1.02,0.03,48.5,0.03,55.25" /><path d="M13,83.75c1.12,0.87,2.35,0.84,4.2-0.29c6.92-4.22,14.17-8.84,21.3-13.72" /></g><g><g><g><g><path d="M81.99,13.64c-0.18,1.08-0.62,2.04-1.3,2.88c-5.18,4.6-11.47,8.4-25.06,14.1" /></g><path d="M51.64,30.75c0.99,0.99,1.13,2.36,1.09,3.33c-1.35,29.42-6.1,45.3-19.98,56.67" /></g><path d="M55.18,47.65c2.57,0.35,4.63-0.12,7.18-0.4c7.41-0.81,18.16-3.25,25.04-4.28c2.3-0.34,5.58-1.27,7.86-0.6" /></g><g><path d="M55.19,68.35c1.08,1.11,1.35,2.43,1.56,3.92c0.83,5.85,1.54,11.24,2.17,16.47c0.27,2.26,0.53,4.49,0.78,6.72" /><path d="M57.07,70.26c8.37-1.07,19.43-2.39,28.21-3.09c3.07-0.25,6.24,0.17,5.33,3.95c-1.99,8.25-2.43,10.53-4.49,19.38" /><path d="M60.62,93.5c5.35-0.48,14.63-1.1,22-1.59c2.28-0.15,4.37-0.29,6.11-0.41" /></g></g></g></g><g fill="none" stroke="#000" stroke-width="5" stroke-linecap="round" stroke-linejoin="round"><g><g><path d="M11.5,47.39c2.07,0.42,4.16,0.49,6.26,0.22c5.85-0.86,14.46-2.79,18.62-3.59c1.61-0.31,3.23-0.48,4.87-0.51" stroke-dasharray="30.16" stroke-dashoffset="30.16"><animate id="0" attributeName="stroke-dashoffset" values="30.16;0" dur="0.3s" fill="freeze" begin="0s;57a2.click" /></path><path d="M27.37,16.5c1.19,1.19,1.21,2.5,1.21,3.75c0,1.02,0.03,48.5,0.03,55.25" stroke-dasharray="59.32" stroke-dashoffset="59.32"><animate attributeName="stroke-dashoffset" values="59.32" fill="freeze" begin="57a2.click" /><animate id="1" attributeName="stroke-dashoffset" values="59.32;0" dur="0.59s" fill="freeze" begin="0.end" /></path><path d="M13,83.75c1.12,0.87,2.35,0.84,4.2-0.29c6.92-4.22,14.17-8.84,21.3-13.72" stroke-dasharray="29.87" stroke-dashoffset="29.87"><animate attributeName="stroke-dashoffset" values="29.87" fill="freeze" begin="57a2.click" /><animate id="2" attributeName="stroke-dashoffset" values="29.87;0" dur="0.3s" fill="freeze" begin="1.end" /></path></g><g><g><g><g><path d="M81.99,13.64c-0.18,1.08-0.62,2.04-1.3,2.88c-5.18,4.6-11.47,8.4-25.06,14.1" stroke-dasharray="32.08" stroke-dashoffset="32.08"><animate attributeName="stroke-dashoffset" values="32.08" fill="freeze" begin="57a2.click" /><animate id="3" attributeName="stroke-dashoffset" values="32.08;0" dur="0.32s" fill="freeze" begin="2.end" /></path></g><path d="M51.64,30.75c0.99,0.99,1.13,2.36,1.09,3.33c-1.35,29.42-6.1,45.3-19.98,56.67" stroke-dasharray="65.68" stroke-dashoffset="65.68"><animate attributeName="stroke-dashoffset" values="65.68" fill="freeze" begin="57a2.click" /><animate id="4" attributeName="stroke-dashoffset" values="65.68;0" dur="0.49s" fill="freeze" begin="3.end" /></path></g><path d="M55.18,47.65c2.57,0.35,4.63-0.12,7.18-0.4c7.41-0.81,18.16-3.25,25.04-4.28c2.3-0.34,5.58-1.27,7.86-0.6" stroke-dasharray="40.57" stroke-dashoffset="40.57"><animate attributeName="stroke-dashoffset" values="40.57" fill="freeze" begin="57a2.click" /><animate id="5" attributeName="stroke-dashoffset" values="40.57;0" dur="0.41s" fill="freeze" begin="4.end" /></path></g><g><path d="M55.19,68.35c1.08,1.11,1.35,2.43,1.56,3.92c0.83,5.85,1.54,11.24,2.17,16.47c0.27,2.26,0.53,4.49,0.78,6.72" stroke-dasharray="27.68" stroke-dashoffset="27.68"><animate attributeName="stroke-dashoffset" values="27.68" fill="freeze" begin="57a2.click" /><animate id="6" attributeName="stroke-dashoffset" values="27.68;0" dur="0.28s" fill="freeze" begin="5.end" /></path><path d="M57.07,70.26c8.37-1.07,19.43-2.39,28.21-3.09c3.07-0.25,6.24,0.17,5.33,3.95c-1.99,8.25-2.43,10.53-4.49,19.38" stroke-dasharray="56.52" stroke-dashoffset="56.52"><animate attributeName="stroke-dashoffset" values="56.52" fill="freeze" begin="57a2.click" /><animate id="7" attributeName="stroke-dashoffset" values="56.52;0" dur="0.57s" fill="freeze" begin="6.end" /></path><path d="M60.62,93.5c5.35-0.48,14.63-1.1,22-1.59c2.28-0.15,4.37-0.29,6.11-0.41" stroke-dasharray="28.18" stroke-dashoffset="28.18"><animate attributeName="stroke-dashoffset" values="28.18" fill="freeze" begin="57a2.click" /><animate id="8" attributeName="stroke-dashoffset" values="28.18;0" dur="0.28s" fill="freeze" begin="7.end" /></path></g></g></g></g></svg>