<svg xmlns="http://www.w3.org/2000/svg" width="109" height="109" viewBox="0 0 109 109" id="57d3"><g fill="none" stroke="#666" stroke-width="9" stroke-linecap="round" stroke-linejoin="round"><g><g><path d="M11.5,43.14c0.76,0.38,2.24,0.43,3,0.36c5.75-0.5,16.15-2.39,21.5-3c1.25-0.14,2.62-0.18,3.25,0.01" /><path d="M25.3,15c1.16,0.53,2.09,2.37,2.09,3.47c0,7.73,0.03,41.32,0.03,52.78" /><path d="M12.5,80.11c0.68,1.14,2.05,1.75,4.1,0.25c5.7-4.19,15.95-11.67,21.65-15.85" /></g><g><g><path d="M77.28,11.5c0.08,0.45-0.19,1.81-0.66,2.33c-5.87,6.41-14.06,11.8-29.37,16.97" /><path d="M49.77,35.58c3.1,1.57,8.02,6.45,8.79,8.88" /><path d="M65.52,27.33c3.1,1.57,8.02,6.45,8.79,8.88" /><path d="M91.02,25.5c0.11,0.65-0.24,2.58-0.85,3.32c-7.58,9.15-18.15,16.84-37.92,24.22" /></g><g><path d="M45.38,65.35c1.22,0.61,3.44,0.74,4.66,0.61c13.21-1.46,29.47-4.16,44.33-5.09c2.02-0.12,3.24,0.29,4.26,0.59" /><path d="M82.58,44.83c0.05,0.29,1.28,2.02,1.28,3.88c0,12.5-0.16,40.95-0.16,43.99c0,7.37-4.69,1.09-6.05,0.15" /><path d="M57.63,73.9c2.93,1.68,7.57,6.91,8.3,9.53" /></g></g></g></g><g fill="none" stroke="#000" stroke-width="5" stroke-linecap="round" stroke-linejoin="round"><g><g><path d="M11.5,43.14c0.76,0.38,2.24,0.43,3,0.36c5.75-0.5,16.15-2.39,21.5-3c1.25-0.14,2.62-0.18,3.25,0.01" stroke-dasharray="28.03" stroke-dashoffset="28.03"><animate id="0" attributeName="stroke-dashoffset" values="28.03;0" dur="0.28s" fill="freeze" begin="0s;57d3.click" /></path><path d="M25.3,15c1.16,0.53,2.09,2.37,2.09,3.47c0,7.73,0.03,41.32,0.03,52.78" stroke-dasharray="57" stroke-dashoffset="57"><animate attributeName="stroke-dashoffset" values="57" fill="freeze" begin="57d3.click" /><animate id="1" attributeName="stroke-dashoffset" values="57;0" dur="0.57s" fill="freeze" begin="0.end" /></path><path d="M12.5,80.11c0.68,1.14,2.05,1.75,4.1,0.25c5.7-4.19,15.95-11.67,21.65-15.85" stroke-dasharray="31.57" stroke-dashoffset="31.57"><animate attributeName="stroke-dashoffset" values="31.57" fill="freeze" begin="57d3.click" /><animate id="2" attributeName="stroke-dashoffset" values="31.57;0" dur="0.32s" fill="freeze" begin="1.end" /></path></g><g><g><path d="M77.28,11.5c0.08,0.45-0.19,1.81-0.66,2.33c-5.87,6.41-14.06,11.8-29.37,16.97" stroke-dasharray="36.76" stroke-dashoffset="36.76"><animate attributeName="stroke-dashoffset" values="36.76" fill="freeze" begin="57d3.click" /><animate id="3" attributeName="stroke-dashoffset" values="36.76;0" dur="0.37s" fill="freeze" begin="2.end" /></path><path d="M49.77,35.58c3.1,1.57,8.02,6.45,8.79,8.88" stroke-dasharray="12.68" stroke-dashoffset="12.68"><animate attributeName="stroke-dashoffset" values="12.68" fill="freeze" begin="57d3.click" /><animate id="4" attributeName="stroke-dashoffset" values="12.68;0" dur="0.13s" fill="freeze" begin="3.end" /></path><path d="M65.52,27.33c3.1,1.57,8.02,6.45,8.79,8.88" stroke-dasharray="12.68" stroke-dashoffset="12.68"><animate attributeName="stroke-dashoffset" values="12.68" fill="freeze" begin="57d3.click" /><animate id="5" attributeName="stroke-dashoffset" values="12.68;0" dur="0.13s" fill="freeze" begin="4.end" /></path><path d="M91.02,25.5c0.11,0.65-0.24,2.58-0.85,3.32c-7.58,9.15-18.15,16.84-37.92,24.22" stroke-dasharray="49.02" stroke-dashoffset="49.02"><animate attributeName="stroke-dashoffset" values="49.02" fill="freeze" begin="57d3.click" /><animate id="6" attributeName="stroke-dashoffset" values="49.02;0" dur="0.49s" fill="freeze" begin="5.end" /></path></g><g><path d="M45.38,65.35c1.22,0.61,3.44,0.74,4.66,0.61c13.21-1.46,29.47-4.16,44.33-5.09c2.02-0.12,3.24,0.29,4.26,0.59" stroke-dasharray="53.7" stroke-dashoffset="53.7"><animate attributeName="stroke-dashoffset" values="53.7" fill="freeze" begin="57d3.click" /><animate id="7" attributeName="stroke-dashoffset" values="53.7;0" dur="0.54s" fill="freeze" begin="6.end" /></path><path d="M82.58,44.83c0.05,0.29,1.28,2.02,1.28,3.88c0,12.5-0.16,40.95-0.16,43.99c0,7.37-4.69,1.09-6.05,0.15" stroke-dasharray="58.12" stroke-dashoffset="58.12"><animate attributeName="stroke-dashoffset" values="58.12" fill="freeze" begin="57d3.click" /><animate id="8" attributeName="stroke-dashoffset" values="58.12;0" dur="0.58s" fill="freeze" begin="7.end" /></path><path d="M57.63,73.9c2.93,1.68,7.57,6.91,8.3,9.53" stroke-dasharray="12.82" stroke-dashoffset="12.82"><animate attributeName="stroke-dashoffset" values="12.82" fill="freeze" begin="57d3.click" /><animate id="9" attributeName="stroke-dashoffset" values="12.82;0" dur="0.13s" fill="freeze" begin="8.end" /></path></g></g></g></g></svg>