<svg xmlns="http://www.w3.org/2000/svg" width="109" height="109" viewBox="0 0 109 109" id="57d4"><g fill="none" stroke="#666" stroke-width="9" stroke-linecap="round" stroke-linejoin="round"><g><g><path d="M11,44.14c0.76,0.38,2.24,0.46,3,0.36c4.82-0.66,16.65-2.39,22-3c1.25-0.14,2.62-0.18,3.25,0.01" /><path d="M24.87,15c1.09,0.5,1.96,2.23,1.96,3.25c0,7.25,0.03,41.75,0.03,52.5" /><path d="M11.5,76.79c0.75,0.96,2.25,1.46,4.5,0.21c6.25-3.5,17.5-9.75,23.75-13.25" /></g><g><path d="M46.25,29.45c1.02,0.48,2.88,0.56,3.9,0.48c8.35-0.67,24.85-3.17,36.29-3.59c1.69-0.06,2.71,0.23,3.56,0.46" /><g><path d="M47.91,42.36c0.55,0.73,0.91,1.47,1.09,2.2c0.18,0.74-0.22,45.94-0.2,52.56" /><path d="M49.1,44.3c6.14-0.31,37.63-3.81,39.26-4.01c2.92-0.37,4.01,2.39,3.65,3.49c-0.04,2.48-0.12,29.89-0.12,46.69c0,11.98-6,1.79-7.29,1.07" /><path d="M49.6,57.86c8.13-0.64,34.15-3.11,41.63-3.33" /><path d="M49.27,72.79c5.83-0.55,35.21-2.79,41.96-3.16" /><path d="M67.2,12.3c1.29,0.59,2.06,2.67,2.32,3.85c0.26,1.19,0,72.57-0.26,79.98" /></g><g><path d="M81,12.25c4.69,1.74,11.33,6.54,12.5,9.25" /></g></g></g></g><g fill="none" stroke="#000" stroke-width="5" stroke-linecap="round" stroke-linejoin="round"><g><g><path d="M11,44.14c0.76,0.38,2.24,0.46,3,0.36c4.82-0.66,16.65-2.39,22-3c1.25-0.14,2.62-0.18,3.25,0.01" stroke-dasharray="28.523" stroke-dashoffset="28.523"><animate attributeName="stroke-dashoffset" values="28.523;28.523;0" dur="0.285s" fill="freeze" begin="0s;57d4.click" /></path><path d="M24.87,15c1.09,0.5,1.96,2.23,1.96,3.25c0,7.25,0.03,41.75,0.03,52.5" stroke-dasharray="56.451" stroke-dashoffset="56.451"><animate attributeName="stroke-dashoffset" values="56.451" fill="freeze" begin="57d4.click" /><animate attributeName="stroke-dashoffset" values="56.451;56.451;0" keyTimes="0;0.335;1" dur="0.85s" fill="freeze" begin="0s;57d4.click" /></path><path d="M11.5,76.79c0.75,0.96,2.25,1.46,4.5,0.21c6.25-3.5,17.5-9.75,23.75-13.25" stroke-dasharray="32.129" stroke-dashoffset="32.129"><animate attributeName="stroke-dashoffset" values="32.129" fill="freeze" begin="57d4.click" /><animate attributeName="stroke-dashoffset" values="32.129;32.129;0" keyTimes="0;0.726;1" dur="1.171s" fill="freeze" begin="0s;57d4.click" /></path></g><g><path d="M46.25,29.45c1.02,0.48,2.88,0.56,3.9,0.48c8.35-0.67,24.85-3.17,36.29-3.59c1.69-0.06,2.71,0.23,3.56,0.46" stroke-dasharray="44.045" stroke-dashoffset="44.045"><animate attributeName="stroke-dashoffset" values="44.045" fill="freeze" begin="57d4.click" /><animate attributeName="stroke-dashoffset" values="44.045;44.045;0" keyTimes="0;0.727;1" dur="1.611s" fill="freeze" begin="0s;57d4.click" /></path><g><path d="M47.91,42.36c0.55,0.73,0.91,1.47,1.09,2.2c0.18,0.74-0.22,45.94-0.2,52.56" stroke-dasharray="55.035" stroke-dashoffset="55.035"><animate attributeName="stroke-dashoffset" values="55.035" fill="freeze" begin="57d4.click" /><animate attributeName="stroke-dashoffset" values="55.035;55.035;0" keyTimes="0;0.745;1" dur="2.161s" fill="freeze" begin="0s;57d4.click" /></path><path d="M49.1,44.3c6.14-0.31,37.63-3.81,39.26-4.01c2.92-0.37,4.01,2.39,3.65,3.49c-0.04,2.48-0.12,29.89-0.12,46.69c0,11.98-6,1.79-7.29,1.07" stroke-dasharray="105.935" stroke-dashoffset="105.935"><animate attributeName="stroke-dashoffset" values="105.935" fill="freeze" begin="57d4.click" /><animate attributeName="stroke-dashoffset" values="105.935;105.935;0" keyTimes="0;0.731;1" dur="2.958s" fill="freeze" begin="0s;57d4.click" /></path><path d="M49.6,57.86c8.13-0.64,34.15-3.11,41.63-3.33" stroke-dasharray="41.767" stroke-dashoffset="41.767"><animate attributeName="stroke-dashoffset" values="41.767" fill="freeze" begin="57d4.click" /><animate attributeName="stroke-dashoffset" values="41.767;41.767;0" keyTimes="0;0.876;1" dur="3.376s" fill="freeze" begin="0s;57d4.click" /></path><path d="M49.27,72.79c5.83-0.55,35.21-2.79,41.96-3.16" stroke-dasharray="42.081" stroke-dashoffset="42.081"><animate attributeName="stroke-dashoffset" values="42.081" fill="freeze" begin="57d4.click" /><animate attributeName="stroke-dashoffset" values="42.081;42.081;0" keyTimes="0;0.889;1" dur="3.797s" fill="freeze" begin="0s;57d4.click" /></path><path d="M67.2,12.3c1.29,0.59,2.06,2.67,2.32,3.85c0.26,1.19,0,72.57-0.26,79.98" stroke-dasharray="84.613" stroke-dashoffset="84.613"><animate attributeName="stroke-dashoffset" values="84.613" fill="freeze" begin="57d4.click" /><animate attributeName="stroke-dashoffset" values="84.613;84.613;0" keyTimes="0;0.857;1" dur="4.433s" fill="freeze" begin="0s;57d4.click" /></path></g><g><path d="M81,12.25c4.69,1.74,11.33,6.54,12.5,9.25" stroke-dasharray="15.788" stroke-dashoffset="15.788"><animate attributeName="stroke-dashoffset" values="15.788" fill="freeze" begin="57d4.click" /><animate attributeName="stroke-dashoffset" values="15.788;15.788;0" keyTimes="0;0.966;1" dur="4.591s" fill="freeze" begin="0s;57d4.click" /></path></g></g></g></g></svg>