<svg xmlns="http://www.w3.org/2000/svg" width="109" height="109" viewBox="0 0 109 109" id="5806"><g fill="none" stroke="#666" stroke-width="9" stroke-linecap="round" stroke-linejoin="round"><g><g><path d="M14.25,45.39c0.76,0.38,2.24,0.46,3,0.36c4.82-0.66,18.15-3.39,23.5-4c1.25-0.14,2.62-0.18,3.25,0.01" /><path d="M28.37,19.25c1.09,0.5,1.74,2.25,1.96,3.25c0.22,1,0,43.25-0.22,49.5" /><path d="M15.5,78.54c0.75,0.96,2.25,1.46,4.5,0.21c6.25-3.5,12.75-6.75,19-10.25" /></g><g><g><path d="M62.12,13.5c0.19,1.69-0.05,3.91-0.65,5.36C57.64,28.1,52.78,35.93,44,47.18" /><path d="M55.19,36.65c0.63,0.88,1.11,2.8,1.15,4.16c0.37,12.12-0.51,46.63-0.2,52.94" /></g><path d="M78.69,16.5c0.07,0.92-0.02,2.12-0.24,2.9c-1.44,5-3.26,8.87-6.56,14.96" /><path d="M56.16,37.41c8.84-1.16,33.59-3.96,36.72-4.59" /><path d="M73.98,37.33c0.35,0.45,0.63,1.06,0.63,1.83c0,7.86,0.04,35-0.17,47.38" /><path d="M57.14,53.82c6.89-0.94,29.5-3.69,32.45-4.21" /><path d="M56.3,69.29c7.27-0.8,31.15-2.91,34.27-3.35" /><path d="M56.3,89.18c7.3-1.14,36.06-3.32,39.2-3.95" /></g></g></g><g fill="none" stroke="#000" stroke-width="5" stroke-linecap="round" stroke-linejoin="round"><g><g><path d="M14.25,45.39c0.76,0.38,2.24,0.46,3,0.36c4.82-0.66,18.15-3.39,23.5-4c1.25-0.14,2.62-0.18,3.25,0.01" stroke-dasharray="30.16" stroke-dashoffset="30.16"><animate id="0" attributeName="stroke-dashoffset" values="30.16;0" dur="0.3s" fill="freeze" begin="0s;5806.click" /></path><path d="M28.37,19.25c1.09,0.5,1.74,2.25,1.96,3.25c0.22,1,0,43.25-0.22,49.5" stroke-dasharray="53.41" stroke-dashoffset="53.41"><animate attributeName="stroke-dashoffset" values="53.41" fill="freeze" begin="5806.click" /><animate id="1" attributeName="stroke-dashoffset" values="53.41;0" dur="0.53s" fill="freeze" begin="0.end" /></path><path d="M15.5,78.54c0.75,0.96,2.25,1.46,4.5,0.21c6.25-3.5,12.75-6.75,19-10.25" stroke-dasharray="26.52" stroke-dashoffset="26.52"><animate attributeName="stroke-dashoffset" values="26.52" fill="freeze" begin="5806.click" /><animate id="2" attributeName="stroke-dashoffset" values="26.52;0" dur="0.27s" fill="freeze" begin="1.end" /></path></g><g><g><path d="M62.12,13.5c0.19,1.69-0.05,3.91-0.65,5.36C57.64,28.1,52.78,35.93,44,47.18" stroke-dasharray="38.83" stroke-dashoffset="38.83"><animate attributeName="stroke-dashoffset" values="38.83" fill="freeze" begin="5806.click" /><animate id="3" attributeName="stroke-dashoffset" values="38.83;0" dur="0.39s" fill="freeze" begin="2.end" /></path><path d="M55.19,36.65c0.63,0.88,1.11,2.8,1.15,4.16c0.37,12.12-0.51,46.63-0.2,52.94" stroke-dasharray="57.31" stroke-dashoffset="57.31"><animate attributeName="stroke-dashoffset" values="57.31" fill="freeze" begin="5806.click" /><animate id="4" attributeName="stroke-dashoffset" values="57.31;0" dur="0.57s" fill="freeze" begin="3.end" /></path></g><path d="M78.69,16.5c0.07,0.92-0.02,2.12-0.24,2.9c-1.44,5-3.26,8.87-6.56,14.96" stroke-dasharray="19.29" stroke-dashoffset="19.29"><animate attributeName="stroke-dashoffset" values="19.29" fill="freeze" begin="5806.click" /><animate id="5" attributeName="stroke-dashoffset" values="19.29;0" dur="0.19s" fill="freeze" begin="4.end" /></path><path d="M56.16,37.41c8.84-1.16,33.59-3.96,36.72-4.59" stroke-dasharray="37.01" stroke-dashoffset="37.01"><animate attributeName="stroke-dashoffset" values="37.01" fill="freeze" begin="5806.click" /><animate id="6" attributeName="stroke-dashoffset" values="37.01;0" dur="0.37s" fill="freeze" begin="5.end" /></path><path d="M73.98,37.33c0.35,0.45,0.63,1.06,0.63,1.83c0,7.86,0.04,35-0.17,47.38" stroke-dasharray="49.35" stroke-dashoffset="49.35"><animate attributeName="stroke-dashoffset" values="49.35" fill="freeze" begin="5806.click" /><animate id="7" attributeName="stroke-dashoffset" values="49.35;0" dur="0.49s" fill="freeze" begin="6.end" /></path><path d="M57.14,53.82c6.89-0.94,29.5-3.69,32.45-4.21" stroke-dasharray="32.72" stroke-dashoffset="32.72"><animate attributeName="stroke-dashoffset" values="32.72" fill="freeze" begin="5806.click" /><animate id="8" attributeName="stroke-dashoffset" values="32.72;0" dur="0.33s" fill="freeze" begin="7.end" /></path><path d="M56.3,69.29c7.27-0.8,31.15-2.91,34.27-3.35" stroke-dasharray="34.43" stroke-dashoffset="34.43"><animate attributeName="stroke-dashoffset" values="34.43" fill="freeze" begin="5806.click" /><animate id="9" attributeName="stroke-dashoffset" values="34.43;0" dur="0.34s" fill="freeze" begin="8.end" /></path><path d="M56.3,89.18c7.3-1.14,36.06-3.32,39.2-3.95" stroke-dasharray="39.4" stroke-dashoffset="39.4"><animate attributeName="stroke-dashoffset" values="39.4" fill="freeze" begin="5806.click" /><animate id="10" attributeName="stroke-dashoffset" values="39.4;0" dur="0.39s" fill="freeze" begin="9.end" /></path></g></g></g></svg>