<svg xmlns="http://www.w3.org/2000/svg" width="109" height="109" viewBox="0 0 109 109" id="581d"><g fill="none" stroke="#666" stroke-width="6" stroke-linecap="round" stroke-linejoin="round"><g><g><path d="M11.5,43.14c0.76,0.38,2.24,0.46,3,0.36c4.82-0.66,17.15-2.39,22.5-3c1.25-0.14,2.62-0.18,3.25,0.01" /><path d="M24.87,17c1.09,0.5,1.96,2.23,1.96,3.25c0,7.25,0.03,38.75,0.03,49.5" /><path d="M11.5,76.79c0.75,0.96,2.33,1.6,4.5,0.21c7.75-5,16.5-11.5,22.75-15.75" /></g><g><path d="M51.86,17.64c0.55,1.21,1.47,3.17,1.62,5.34c0.55,7.95,1.46,18.56,2.01,28.44" /><path d="M52.98,19.59c6.95-0.96,28.84-3.33,31.95-3.84c1.46-0.24,2.92,0.76,2.56,2.89c-0.73,4.34-2.19,23.62-2.92,30.36" /><path d="M68.38,31.17c0.8,0.48,1.27,2.17,1.43,3.13c0.16,0.96,0.1,9.88-0.06,15.91" /><path d="M69.44,32.63c2.56-0.24,12.88-1.43,16.54-1.91" /><g><path d="M45.02,50.89c0.55,1.2,1.21,3.14,1.46,5.3c0.37,3.13,2.77,28.81,3.29,36.71" /><path d="M46.48,53.3c6.95-0.96,44.75-3.92,46.12-4.26c2.93-0.72,4.28,1.7,4.39,2.89c0.37,4.1-3.79,32.46-4.94,37.8c-2.01,9.4-5.2,4.58-7.39,1.45" /></g><g><path d="M60.12,62.93c0.28,0.33,0.57,0.6,0.69,1.01c0.97,3.24,2.3,10.83,2.97,16.65" /><path d="M61.53,64.21c6.72-1.21,11.89-1.97,16.9-2.62c1.83-0.24,2.93,1.4,2.67,2.8c-1.09,5.77-1.54,5.54-2.6,10.77" /><path d="M63.91,77.16c3.85-0.48,10.99-0.79,16.28-1.53" /></g></g></g></g><g fill="none" stroke="#000" stroke-width="3" stroke-linecap="round" stroke-linejoin="round"><path d="M11.5,43.14c0.76,0.38,2.24,0.46,3,0.36c4.82-0.66,17.15-2.39,22.5-3c1.25-0.14,2.62-0.18,3.25,0.01" stroke-dasharray="29.019" stroke-dashoffset="29.019"><animate attributeName="stroke-dashoffset" values="29.019;29.019;0" dur="0.29s" fill="freeze" begin="0s;581d.click" /></path><path d="M24.87,17c1.09,0.5,1.96,2.23,1.96,3.25c0,7.25,0.03,38.75,0.03,49.5" stroke-dasharray="53.451" stroke-dashoffset="53.451"><animate attributeName="stroke-dashoffset" values="53.451" fill="freeze" begin="581d.click" /><animate attributeName="stroke-dashoffset" values="53.451;53.451;0" keyTimes="0;0.352;1" dur="0.825s" fill="freeze" begin="0s;581d.click" /></path><path d="M11.5,76.79c0.75,0.96,2.33,1.6,4.5,0.21c7.75-5,16.5-11.5,22.75-15.75" stroke-dasharray="32.653" stroke-dashoffset="32.653"><animate attributeName="stroke-dashoffset" values="32.653" fill="freeze" begin="581d.click" /><animate attributeName="stroke-dashoffset" values="32.653;32.653;0" keyTimes="0;0.716;1" dur="1.152s" fill="freeze" begin="0s;581d.click" /></path><path d="M51.86,17.64c0.55,1.21,1.47,3.17,1.62,5.34c0.55,7.95,1.46,18.56,2.01,28.44" stroke-dasharray="34.125" stroke-dashoffset="34.125"><animate attributeName="stroke-dashoffset" values="34.125" fill="freeze" begin="581d.click" /><animate attributeName="stroke-dashoffset" values="34.125;34.125;0" keyTimes="0;0.772;1" dur="1.493s" fill="freeze" begin="0s;581d.click" /></path><path d="M52.98,19.59c6.95-0.96,28.84-3.33,31.95-3.84c1.46-0.24,2.92,0.76,2.56,2.89c-0.73,4.34-2.19,23.62-2.92,30.36" stroke-dasharray="67.309" stroke-dashoffset="67.309"><animate attributeName="stroke-dashoffset" values="67.309" fill="freeze" begin="581d.click" /><animate attributeName="stroke-dashoffset" values="67.309;67.309;0" keyTimes="0;0.747;1" dur="1.999s" fill="freeze" begin="0s;581d.click" /></path><path d="M68.38,31.17c0.8,0.48,1.27,2.17,1.43,3.13c0.16,0.96,0.1,9.88-0.06,15.91" stroke-dasharray="19.436" stroke-dashoffset="19.436"><animate attributeName="stroke-dashoffset" values="19.436" fill="freeze" begin="581d.click" /><animate attributeName="stroke-dashoffset" values="19.436;19.436;0" keyTimes="0;0.912;1" dur="2.193s" fill="freeze" begin="0s;581d.click" /></path><path d="M69.44,32.63c2.56-0.24,12.88-1.43,16.54-1.91" stroke-dasharray="16.651" stroke-dashoffset="16.651"><animate attributeName="stroke-dashoffset" values="16.651" fill="freeze" begin="581d.click" /><animate attributeName="stroke-dashoffset" values="16.651;16.651;0" keyTimes="0;0.929;1" dur="2.36s" fill="freeze" begin="0s;581d.click" /></path><path d="M45.02,50.89c0.55,1.2,1.21,3.14,1.46,5.3c0.37,3.13,2.77,28.81,3.29,36.71" stroke-dasharray="42.378" stroke-dashoffset="42.378"><animate attributeName="stroke-dashoffset" values="42.378" fill="freeze" begin="581d.click" /><animate attributeName="stroke-dashoffset" values="42.378;42.378;0" keyTimes="0;0.848;1" dur="2.784s" fill="freeze" begin="0s;581d.click" /></path><path d="M46.48,53.3c6.95-0.96,44.75-3.92,46.12-4.26c2.93-0.72,4.28,1.7,4.39,2.89c0.37,4.1-3.79,32.46-4.94,37.8c-2.01,9.4-5.2,4.58-7.39,1.45" stroke-dasharray="103.21" stroke-dashoffset="103.21"><animate attributeName="stroke-dashoffset" values="103.21" fill="freeze" begin="581d.click" /><animate attributeName="stroke-dashoffset" values="103.21;103.21;0" keyTimes="0;0.782;1" dur="3.56s" fill="freeze" begin="0s;581d.click" /></path><path d="M60.12,62.93c0.28,0.33,0.57,0.6,0.69,1.01c0.97,3.24,2.3,10.83,2.97,16.65" stroke-dasharray="18.162" stroke-dashoffset="18.162"><animate attributeName="stroke-dashoffset" values="18.162" fill="freeze" begin="581d.click" /><animate attributeName="stroke-dashoffset" values="18.162;18.162;0" keyTimes="0;0.951;1" dur="3.742s" fill="freeze" begin="0s;581d.click" /></path><path d="M61.53,64.21c6.72-1.21,11.89-1.97,16.9-2.62c1.83-0.24,2.93,1.4,2.67,2.8c-1.09,5.77-1.54,5.54-2.6,10.77" stroke-dasharray="32.707" stroke-dashoffset="32.707"><animate attributeName="stroke-dashoffset" values="32.707" fill="freeze" begin="581d.click" /><animate attributeName="stroke-dashoffset" values="32.707;32.707;0" keyTimes="0;0.92;1" dur="4.069s" fill="freeze" begin="0s;581d.click" /></path><path d="M63.91,77.16c3.85-0.48,10.99-0.79,16.28-1.53" stroke-dasharray="16.355" stroke-dashoffset="16.355"><animate attributeName="stroke-dashoffset" values="16.355" fill="freeze" begin="581d.click" /><animate attributeName="stroke-dashoffset" values="16.355;16.355;0" keyTimes="0;0.961;1" dur="4.233s" fill="freeze" begin="0s;581d.click" /></path></g></svg>