<svg xmlns="http://www.w3.org/2000/svg" viewBox="0 0 109 109" id="5835"><g fill="none" stroke="#666" stroke-width="6" stroke-linecap="round" stroke-linejoin="round"><g><g><path d="M11.75,43.39c0.76,0.38,2.24,0.4,3,0.36c5.5-0.25,16.15-1.89,21.5-2.5c1.25-0.14,2.62-0.18,3.25,0.01" /><path d="M25.37,14.75c1.09,0.5,1.74,2.25,1.96,3.25c0.22,1,0,48.75-0.22,55" /><path d="M13,79.68c0.82,1.32,2.47,2.03,4.93,0.29c6.85-4.85,13.97-9.36,20.82-14.21" /></g><g><g p5:partial xmlns:p5="http://kanjivg.tagaini.net"><g><path d="M49.71,30.83c0.62,0.14,1.75,0.16,2.38,0.14c7.05-0.22,20.08-1.28,27.03-1.38c1.04-0.01,1.66,0.07,2.17,0.13" /><path d="M65.8,13.37c0.09,0.28,1.24,1.48,1.33,3.27c0.42,8.63,0.23,27.85,0.23,30.79" /><path d="M42.5,49.57c1.31,0.45,3.33,0.84,4.52,0.67c6.56-0.94,39.87-4.25,47.49-4.46c1.96-0.05,3.14,0.32,4.12,0.65" /></g><path d="M89.69,23.82c0.14,1.22,0.26,2.95-0.78,4.39C75.48,46.74,62.31,59.97,37.8,77.1" /></g><path d="M75.5,52c2.05,1.23,5.3,5.05,5.81,6.97" /><g><path d="M60.42,61.66c0.34,0.86,0.68,1.29,0.68,2.44c0,1.15-0.23,31.6-0.23,32.18" /><path d="M61.17,64.3c1.92-0.14,22.85-1.99,24.6-2.16c1.46-0.14,2.4,1.59,2.29,2.44c-0.23,1.72-0.34,17.32-0.34,29.97" /><path d="M61.5,77.86c2.6,0,23.36-1.08,26.3-1.08" /><path d="M60.89,93.27C67.25,93,79,92.5,87.8,91.97" /></g></g></g></g><g fill="none" stroke="#000" stroke-width="3" stroke-linecap="round" stroke-linejoin="round"><path d="M11.75,43.39c0.76,0.38,2.24,0.4,3,0.36c5.5-0.25,16.15-1.89,21.5-2.5c1.25-0.14,2.62-0.18,3.25,0.01" stroke-dasharray="27.962" stroke-dashoffset="27.962"><animate attributeName="stroke-dashoffset" values="27.962;27.962;0" dur="0.28s" fill="freeze" begin="0s;5835.click" /></path><path d="M25.37,14.75c1.09,0.5,1.74,2.25,1.96,3.25c0.22,1,0,48.75-0.22,55" stroke-dasharray="58.913" stroke-dashoffset="58.913"><animate attributeName="stroke-dashoffset" values="58.913" fill="freeze" begin="5835.click" /><animate attributeName="stroke-dashoffset" values="58.913;58.913;0" keyTimes="0;0.322;1" dur="0.869s" fill="freeze" begin="0s;5835.click" /></path><path d="M13,79.68c0.82,1.32,2.47,2.03,4.93,0.29c6.85-4.85,13.97-9.36,20.82-14.21" stroke-dasharray="30.858" stroke-dashoffset="30.858"><animate attributeName="stroke-dashoffset" values="30.858" fill="freeze" begin="5835.click" /><animate attributeName="stroke-dashoffset" values="30.858;30.858;0" keyTimes="0;0.738;1" dur="1.178s" fill="freeze" begin="0s;5835.click" /></path><path d="M49.71,30.83c0.62,0.14,1.75,0.16,2.38,0.14c7.05-0.22,20.08-1.28,27.03-1.38c1.04-0.01,1.66,0.07,2.17,0.13" stroke-dasharray="31.632" stroke-dashoffset="31.632"><animate attributeName="stroke-dashoffset" values="31.632" fill="freeze" begin="5835.click" /><animate attributeName="stroke-dashoffset" values="31.632;31.632;0" keyTimes="0;0.788;1" dur="1.494s" fill="freeze" begin="0s;5835.click" /></path><path d="M65.8,13.37c0.09,0.28,1.24,1.48,1.33,3.27c0.42,8.63,0.23,27.85,0.23,30.79" stroke-dasharray="34.374" stroke-dashoffset="34.374"><animate attributeName="stroke-dashoffset" values="34.374" fill="freeze" begin="5835.click" /><animate attributeName="stroke-dashoffset" values="34.374;34.374;0" keyTimes="0;0.813;1" dur="1.838s" fill="freeze" begin="0s;5835.click" /></path><path d="M42.5,49.57c1.31,0.45,3.33,0.84,4.52,0.67c6.56-0.94,39.87-4.25,47.49-4.46c1.96-0.05,3.14,0.32,4.12,0.65" stroke-dasharray="56.506" stroke-dashoffset="56.506"><animate attributeName="stroke-dashoffset" values="56.506" fill="freeze" begin="5835.click" /><animate attributeName="stroke-dashoffset" values="56.506;56.506;0" keyTimes="0;0.765;1" dur="2.403s" fill="freeze" begin="0s;5835.click" /></path><path d="M89.69,23.82c0.14,1.22,0.26,2.95-0.78,4.39C75.48,46.74,62.31,59.97,37.8,77.1" stroke-dasharray="75.684" stroke-dashoffset="75.684"><animate attributeName="stroke-dashoffset" values="75.684" fill="freeze" begin="5835.click" /><animate attributeName="stroke-dashoffset" values="75.684;75.684;0" keyTimes="0;0.809;1" dur="2.972s" fill="freeze" begin="0s;5835.click" /></path><path d="M75.5,52c2.05,1.23,5.3,5.05,5.81,6.97" stroke-dasharray="9.202" stroke-dashoffset="9.202"><animate attributeName="stroke-dashoffset" values="9.202" fill="freeze" begin="5835.click" /><animate attributeName="stroke-dashoffset" values="9.202;9.202;0" keyTimes="0;0.97;1" dur="3.064s" fill="freeze" begin="0s;5835.click" /></path><path d="M60.42,61.66c0.34,0.86,0.68,1.29,0.68,2.44c0,1.15-0.23,31.6-0.23,32.18" stroke-dasharray="34.74" stroke-dashoffset="34.74"><animate attributeName="stroke-dashoffset" values="34.74" fill="freeze" begin="5835.click" /><animate attributeName="stroke-dashoffset" values="34.74;34.74;0" keyTimes="0;0.898;1" dur="3.411s" fill="freeze" begin="0s;5835.click" /></path><path d="M61.17,64.3c1.92-0.14,22.85-1.99,24.6-2.16c1.46-0.14,2.4,1.59,2.29,2.44c-0.23,1.72-0.34,17.32-0.34,29.97" stroke-dasharray="58.412" stroke-dashoffset="58.412"><animate attributeName="stroke-dashoffset" values="58.412" fill="freeze" begin="5835.click" /><animate attributeName="stroke-dashoffset" values="58.412;58.412;0" keyTimes="0;0.854;1" dur="3.995s" fill="freeze" begin="0s;5835.click" /></path><path d="M61.5,77.86c2.6,0,23.36-1.08,26.3-1.08" stroke-dasharray="26.324" stroke-dashoffset="26.324"><animate attributeName="stroke-dashoffset" values="26.324" fill="freeze" begin="5835.click" /><animate attributeName="stroke-dashoffset" values="26.324;26.324;0" keyTimes="0;0.938;1" dur="4.258s" fill="freeze" begin="0s;5835.click" /></path><path d="M60.89,93.27C67.25,93,79,92.5,87.8,91.97" stroke-dasharray="26.943" stroke-dashoffset="26.943"><animate attributeName="stroke-dashoffset" values="26.943" fill="freeze" begin="5835.click" /><animate attributeName="stroke-dashoffset" values="26.943;26.943;0" keyTimes="0;0.941;1" dur="4.527s" fill="freeze" begin="0s;5835.click" /></path></g></svg>