<svg xmlns="http://www.w3.org/2000/svg" width="109" height="109" viewBox="0 0 109 109" id="5835"><g fill="none" stroke="#666" stroke-width="9" stroke-linecap="round" stroke-linejoin="round"><g><g><path d="M11.75,43.39c0.76,0.38,2.24,0.4,3,0.36c5.5-0.25,16.15-1.89,21.5-2.5c1.25-0.14,2.62-0.18,3.25,0.01" /><path d="M25.37,14.75c1.09,0.5,1.74,2.25,1.96,3.25c0.22,1,0,48.75-0.22,55" /><path d="M13,79.68c0.82,1.32,2.47,2.03,4.93,0.29c6.85-4.85,13.97-9.36,20.82-14.21" /></g><g><g p5:partial xmlns:p5="http://kanjivg.tagaini.net"><g><path d="M49.71,30.83c0.62,0.14,1.75,0.16,2.38,0.14c7.05-0.22,20.08-1.28,27.03-1.38c1.04-0.01,1.66,0.07,2.17,0.13" /><path d="M65.8,13.37c0.09,0.28,1.24,1.48,1.33,3.27c0.42,8.63,0.23,27.85,0.23,30.79" /><path d="M42.5,49.57c1.31,0.45,3.33,0.84,4.52,0.67c6.56-0.94,39.87-4.25,47.49-4.46c1.96-0.05,3.14,0.32,4.12,0.65" /></g><path d="M89.69,23.82c0.14,1.22,0.26,2.95-0.78,4.39C75.48,46.74,62.31,59.97,37.8,77.1" /></g><path d="M75.5,52c2.05,1.23,5.3,5.05,5.81,6.97" /><g><path d="M60.42,61.66c0.34,0.86,0.68,1.29,0.68,2.44c0,1.15-0.23,31.6-0.23,32.18" /><path d="M61.17,64.3c1.92-0.14,22.85-1.99,24.6-2.16c1.46-0.14,2.4,1.59,2.29,2.44c-0.23,1.72-0.34,17.32-0.34,29.97" /><path d="M61.5,77.86c2.6,0,23.36-1.08,26.3-1.08" /><path d="M60.89,93.27C67.25,93,79,92.5,87.8,91.97" /></g></g></g></g><g fill="none" stroke="#000" stroke-width="5" stroke-linecap="round" stroke-linejoin="round"><g><g><path d="M11.75,43.39c0.76,0.38,2.24,0.4,3,0.36c5.5-0.25,16.15-1.89,21.5-2.5c1.25-0.14,2.62-0.18,3.25,0.01" stroke-dasharray="27.96" stroke-dashoffset="27.96"><animate id="0" attributeName="stroke-dashoffset" values="27.96;0" dur="0.28s" fill="freeze" begin="0s;5835.click" /></path><path d="M25.37,14.75c1.09,0.5,1.74,2.25,1.96,3.25c0.22,1,0,48.75-0.22,55" stroke-dasharray="58.91" stroke-dashoffset="58.91"><animate attributeName="stroke-dashoffset" values="58.91" fill="freeze" begin="5835.click" /><animate id="1" attributeName="stroke-dashoffset" values="58.91;0" dur="0.59s" fill="freeze" begin="0.end" /></path><path d="M13,79.68c0.82,1.32,2.47,2.03,4.93,0.29c6.85-4.85,13.97-9.36,20.82-14.21" stroke-dasharray="30.86" stroke-dashoffset="30.86"><animate attributeName="stroke-dashoffset" values="30.86" fill="freeze" begin="5835.click" /><animate id="2" attributeName="stroke-dashoffset" values="30.86;0" dur="0.31s" fill="freeze" begin="1.end" /></path></g><g><g p5:partial xmlns:p5="http://kanjivg.tagaini.net"><g><path d="M49.71,30.83c0.62,0.14,1.75,0.16,2.38,0.14c7.05-0.22,20.08-1.28,27.03-1.38c1.04-0.01,1.66,0.07,2.17,0.13" stroke-dasharray="31.63" stroke-dashoffset="31.63"><animate attributeName="stroke-dashoffset" values="31.63" fill="freeze" begin="5835.click" /><animate id="3" attributeName="stroke-dashoffset" values="31.63;0" dur="0.32s" fill="freeze" begin="2.end" /></path><path d="M65.8,13.37c0.09,0.28,1.24,1.48,1.33,3.27c0.42,8.63,0.23,27.85,0.23,30.79" stroke-dasharray="34.37" stroke-dashoffset="34.37"><animate attributeName="stroke-dashoffset" values="34.37" fill="freeze" begin="5835.click" /><animate id="4" attributeName="stroke-dashoffset" values="34.37;0" dur="0.34s" fill="freeze" begin="3.end" /></path><path d="M42.5,49.57c1.31,0.45,3.33,0.84,4.52,0.67c6.56-0.94,39.87-4.25,47.49-4.46c1.96-0.05,3.14,0.32,4.12,0.65" stroke-dasharray="56.5" stroke-dashoffset="56.5"><animate attributeName="stroke-dashoffset" values="56.5" fill="freeze" begin="5835.click" /><animate id="5" attributeName="stroke-dashoffset" values="56.5;0" dur="0.56s" fill="freeze" begin="4.end" /></path></g><path d="M89.69,23.82c0.14,1.22,0.26,2.95-0.78,4.39C75.48,46.74,62.31,59.97,37.8,77.1" stroke-dasharray="75.68" stroke-dashoffset="75.68"><animate attributeName="stroke-dashoffset" values="75.68" fill="freeze" begin="5835.click" /><animate id="6" attributeName="stroke-dashoffset" values="75.68;0" dur="0.57s" fill="freeze" begin="5.end" /></path></g><path d="M75.5,52c2.05,1.23,5.3,5.05,5.81,6.97" stroke-dasharray="9.2" stroke-dashoffset="9.2"><animate attributeName="stroke-dashoffset" values="9.2" fill="freeze" begin="5835.click" /><animate id="7" attributeName="stroke-dashoffset" values="9.2;0" dur="0.09s" fill="freeze" begin="6.end" /></path><g><path d="M60.42,61.66c0.34,0.86,0.68,1.29,0.68,2.44c0,1.15-0.23,31.6-0.23,32.18" stroke-dasharray="34.74" stroke-dashoffset="34.74"><animate attributeName="stroke-dashoffset" values="34.74" fill="freeze" begin="5835.click" /><animate id="8" attributeName="stroke-dashoffset" values="34.74;0" dur="0.35s" fill="freeze" begin="7.end" /></path><path d="M61.17,64.3c1.92-0.14,22.85-1.99,24.6-2.16c1.46-0.14,2.4,1.59,2.29,2.44c-0.23,1.72-0.34,17.32-0.34,29.97" stroke-dasharray="58.41" stroke-dashoffset="58.41"><animate attributeName="stroke-dashoffset" values="58.41" fill="freeze" begin="5835.click" /><animate id="9" attributeName="stroke-dashoffset" values="58.41;0" dur="0.58s" fill="freeze" begin="8.end" /></path><path d="M61.5,77.86c2.6,0,23.36-1.08,26.3-1.08" stroke-dasharray="26.32" stroke-dashoffset="26.32"><animate attributeName="stroke-dashoffset" values="26.32" fill="freeze" begin="5835.click" /><animate id="10" attributeName="stroke-dashoffset" values="26.32;0" dur="0.26s" fill="freeze" begin="9.end" /></path><path d="M60.89,93.27C67.25,93,79,92.5,87.8,91.97" stroke-dasharray="26.94" stroke-dashoffset="26.94"><animate attributeName="stroke-dashoffset" values="26.94" fill="freeze" begin="5835.click" /><animate id="11" attributeName="stroke-dashoffset" values="26.94;0" dur="0.27s" fill="freeze" begin="10.end" /></path></g></g></g></g></svg>