<svg xmlns="http://www.w3.org/2000/svg" width="109" height="109" viewBox="0 0 109 109" id="5859"><g fill="none" stroke="#666" stroke-width="9" stroke-linecap="round" stroke-linejoin="round"><g><g><path d="M12.25,46.39c0.76,0.38,2.24,0.46,3,0.36c4.82-0.66,15.65-2.89,21-3.5c1.25-0.14,2.62-0.18,3.25,0.01" /><path d="M24.87,18.25c1.09,0.5,1.74,2.25,1.96,3.25c0.22,1,0,43.75-0.22,50" /><path d="M11.5,78.33c0.8,1.17,2.4,1.8,4.79,0.25C22.94,74.28,29.85,70.3,36.5,66" /></g><g><g><g><path d="M66.87,10.73c0.65,0.46,1.72,2.26,1.72,3.18c0,3.41-0.21,6.5-0.08,9.38" /><path d="M43.89,25.77c0.96,0.08,3.16,0.53,4.09,0.42c7.56-0.88,33.73-4.52,43.99-4.74c1.59-0.04,2.39,0.04,3.58,0.54" /></g><g><path d="M53.3,34.72c0.38,0.26,0.76,0.48,0.93,0.82c1.31,2.62,1.99,9.36,2.88,14.07" /><path d="M55.65,36.5c7.71-1.37,21.9-3.38,26.32-3.73c1.61-0.13,2.58,1.57,2.35,2.31c-0.96,3.06-2.38,6.13-3.8,10.36" /><path d="M57.29,47.81c5.19-0.39,17.72-1.38,24.84-1.98" /></g></g><g><g><path d="M45.75,59.19c0.5,1.15,1.2,2.52,1.36,4.59c0.37,4.82,1.89,25.47,1.95,34.74" /><path d="M47.08,60.94c6.85-0.46,42.89-4.19,44.15-4.47c3.12-0.69,5,0.92,4.33,7.12c-0.92,8.52-2.18,24.39-4.31,31.07c-1.91,5.97-5.75,0.59-7.73-2" /></g><g><path d="M57.71,68.93c0.32,0.27,0.65,0.5,0.79,0.84c1.12,2.71,2.46,10.69,3.22,15.56" /><path d="M59.72,70.77c6.59-1.41,13.29-2.33,17.05-2.84c1.53-0.2,3,1.12,2.86,2.42c-0.37,3.26-1.27,6.11-2.49,10.49" /><path d="M61.88,83.46c4.44-0.4,11.55-1.1,17.64-1.72" /></g></g></g></g></g><g fill="none" stroke="#000" stroke-width="5" stroke-linecap="round" stroke-linejoin="round"><g><g><path d="M12.25,46.39c0.76,0.38,2.24,0.46,3,0.36c4.82-0.66,15.65-2.89,21-3.5c1.25-0.14,2.62-0.18,3.25,0.01" stroke-dasharray="27.61" stroke-dashoffset="27.61"><animate id="0" attributeName="stroke-dashoffset" values="27.61;0" dur="0.28s" fill="freeze" begin="0s;5859.click" /></path><path d="M24.87,18.25c1.09,0.5,1.74,2.25,1.96,3.25c0.22,1,0,43.75-0.22,50" stroke-dasharray="53.91" stroke-dashoffset="53.91"><animate attributeName="stroke-dashoffset" values="53.91" fill="freeze" begin="5859.click" /><animate id="1" attributeName="stroke-dashoffset" values="53.91;0" dur="0.54s" fill="freeze" begin="0.end" /></path><path d="M11.5,78.33c0.8,1.17,2.4,1.8,4.79,0.25C22.94,74.28,29.85,70.3,36.5,66" stroke-dasharray="29.19" stroke-dashoffset="29.19"><animate attributeName="stroke-dashoffset" values="29.19" fill="freeze" begin="5859.click" /><animate id="2" attributeName="stroke-dashoffset" values="29.19;0" dur="0.29s" fill="freeze" begin="1.end" /></path></g><g><g><g><path d="M66.87,10.73c0.65,0.46,1.72,2.26,1.72,3.18c0,3.41-0.21,6.5-0.08,9.38" stroke-dasharray="13.07" stroke-dashoffset="13.07"><animate attributeName="stroke-dashoffset" values="13.07" fill="freeze" begin="5859.click" /><animate id="3" attributeName="stroke-dashoffset" values="13.07;0" dur="0.13s" fill="freeze" begin="2.end" /></path><path d="M43.89,25.77c0.96,0.08,3.16,0.53,4.09,0.42c7.56-0.88,33.73-4.52,43.99-4.74c1.59-0.04,2.39,0.04,3.58,0.54" stroke-dasharray="52.03" stroke-dashoffset="52.03"><animate attributeName="stroke-dashoffset" values="52.03" fill="freeze" begin="5859.click" /><animate id="4" attributeName="stroke-dashoffset" values="52.03;0" dur="0.52s" fill="freeze" begin="3.end" /></path></g><g><path d="M53.3,34.72c0.38,0.26,0.76,0.48,0.93,0.82c1.31,2.62,1.99,9.36,2.88,14.07" stroke-dasharray="15.65" stroke-dashoffset="15.65"><animate attributeName="stroke-dashoffset" values="15.65" fill="freeze" begin="5859.click" /><animate id="5" attributeName="stroke-dashoffset" values="15.65;0" dur="0.16s" fill="freeze" begin="4.end" /></path><path d="M55.65,36.5c7.71-1.37,21.9-3.38,26.32-3.73c1.61-0.13,2.58,1.57,2.35,2.31c-0.96,3.06-2.38,6.13-3.8,10.36" stroke-dasharray="41.36" stroke-dashoffset="41.36"><animate attributeName="stroke-dashoffset" values="41.36" fill="freeze" begin="5859.click" /><animate id="6" attributeName="stroke-dashoffset" values="41.36;0" dur="0.41s" fill="freeze" begin="5.end" /></path><path d="M57.29,47.81c5.19-0.39,17.72-1.38,24.84-1.98" stroke-dasharray="24.92" stroke-dashoffset="24.92"><animate attributeName="stroke-dashoffset" values="24.92" fill="freeze" begin="5859.click" /><animate id="7" attributeName="stroke-dashoffset" values="24.92;0" dur="0.25s" fill="freeze" begin="6.end" /></path></g></g><g><g><path d="M45.75,59.19c0.5,1.15,1.2,2.52,1.36,4.59c0.37,4.82,1.89,25.47,1.95,34.74" stroke-dasharray="39.62" stroke-dashoffset="39.62"><animate attributeName="stroke-dashoffset" values="39.62" fill="freeze" begin="5859.click" /><animate id="8" attributeName="stroke-dashoffset" values="39.62;0" dur="0.4s" fill="freeze" begin="7.end" /></path><path d="M47.08,60.94c6.85-0.46,42.89-4.19,44.15-4.47c3.12-0.69,5,0.92,4.33,7.12c-0.92,8.52-2.18,24.39-4.31,31.07c-1.91,5.97-5.75,0.59-7.73-2" stroke-dasharray="97.23" stroke-dashoffset="97.23"><animate attributeName="stroke-dashoffset" values="97.23" fill="freeze" begin="5859.click" /><animate id="9" attributeName="stroke-dashoffset" values="97.23;0" dur="0.73s" fill="freeze" begin="8.end" /></path></g><g><path d="M57.71,68.93c0.32,0.27,0.65,0.5,0.79,0.84c1.12,2.71,2.46,10.69,3.22,15.56" stroke-dasharray="17.08" stroke-dashoffset="17.08"><animate attributeName="stroke-dashoffset" values="17.08" fill="freeze" begin="5859.click" /><animate id="10" attributeName="stroke-dashoffset" values="17.08;0" dur="0.17s" fill="freeze" begin="9.end" /></path><path d="M59.72,70.77c6.59-1.41,13.29-2.33,17.05-2.84c1.53-0.2,3,1.12,2.86,2.42c-0.37,3.26-1.27,6.11-2.49,10.49" stroke-dasharray="32.33" stroke-dashoffset="32.33"><animate attributeName="stroke-dashoffset" values="32.33" fill="freeze" begin="5859.click" /><animate id="11" attributeName="stroke-dashoffset" values="32.33;0" dur="0.32s" fill="freeze" begin="10.end" /></path><path d="M61.88,83.46c4.44-0.4,11.55-1.1,17.64-1.72" stroke-dasharray="17.72" stroke-dashoffset="17.72"><animate attributeName="stroke-dashoffset" values="17.72" fill="freeze" begin="5859.click" /><animate id="12" attributeName="stroke-dashoffset" values="17.72;0" dur="0.18s" fill="freeze" begin="11.end" /></path></g></g></g></g></g></svg>