<svg xmlns="http://www.w3.org/2000/svg" width="109" height="109" viewBox="0 0 109 109" id="585a"><g fill="none" stroke="#666" stroke-width="9" stroke-linecap="round" stroke-linejoin="round"><g><g><path d="M10,43.14c1.57,0.79,4.27,0.43,5.89,0.06c4.73-1.08,11.4-3.38,16.11-4.2c1.24-0.22,1.62-0.18,2.25,0.01" /><path d="M23.12,21c1,1,1.21,2.48,1.21,3.5c0,7.25,0.03,37.5,0.03,48.25" /><path d="M13.25,79.91c1.12,0.34,2.25,0.22,3.54-0.76C21.85,75.31,30.83,68,35.75,64" /></g><g p4:partial p4:phon="冢V" xmlns:p4="http://kanjivg.tagaini.net"><g><path d="M42.41,18.63c0,3.88-1.14,14.53-1.66,17.12" /><path d="M43.49,19.74c14.01-2.36,33.73-4.88,41.45-5.15c9.55-0.34,4.3,4.91,0.55,8.28" /></g><g><path d="M49.69,33.52c1.76,0.31,3.59-0.08,5.31-0.38c4.54-0.78,13.03-2.32,18.51-3.43c1.66-0.34,3.33-0.74,5.02-0.32" /><path d="M62.04,35.16c-0.04,0.97-0.56,1.99-1.07,2.66c-3.78,5-10.96,12.18-23.25,18.59" /><path d="M55.46,46.02c8.79,6.23,19.29,26.6,10.53,47.33c-3.21,7.6-8.4,0.92-9.49,0.05" /><path d="M59.58,52.41c0.07,0.55-0.12,1.55-0.65,2.2C54.12,60.5,46.62,67.12,33.2,74.92" /><path d="M65.24,62.3c0.09,0.68-0.02,1.67-0.69,2.48c-5.3,6.47-15.05,17.09-33.1,25.9" /><path d="M83.85,39.34c0.11,0.97-0.04,1.67-0.56,2.44c-2.96,4.41-8.54,10.34-14.04,14.47" /><path d="M66.29,57.64c3.66,3.55,17.34,17.88,24.04,24.38c1.98,1.93,4.03,3.97,6.6,5.1" /></g></g></g></g><g fill="none" stroke="#000" stroke-width="5" stroke-linecap="round" stroke-linejoin="round"><g><g><path d="M10,43.14c1.57,0.79,4.27,0.43,5.89,0.06c4.73-1.08,11.4-3.38,16.11-4.2c1.24-0.22,1.62-0.18,2.25,0.01" stroke-dasharray="24.92" stroke-dashoffset="24.92"><animate attributeName="stroke-dashoffset" values="24.92;24.92;0" dur="0.249s" fill="freeze" begin="0s;585a.click" /></path><path d="M23.12,21c1,1,1.21,2.48,1.21,3.5c0,7.25,0.03,37.5,0.03,48.25" stroke-dasharray="52.05" stroke-dashoffset="52.05"><animate attributeName="stroke-dashoffset" values="52.05" fill="freeze" begin="585a.click" /><animate attributeName="stroke-dashoffset" values="52.05;52.05;0" keyTimes="0;0.323;1" dur="0.77s" fill="freeze" begin="0s;585a.click" /></path><path d="M13.25,79.91c1.12,0.34,2.25,0.22,3.54-0.76C21.85,75.31,30.83,68,35.75,64" stroke-dasharray="28.049" stroke-dashoffset="28.049"><animate attributeName="stroke-dashoffset" values="28.049" fill="freeze" begin="585a.click" /><animate attributeName="stroke-dashoffset" values="28.049;28.049;0" keyTimes="0;0.733;1" dur="1.05s" fill="freeze" begin="0s;585a.click" /></path></g><g p4:partial p4:phon="冢V" xmlns:p4="http://kanjivg.tagaini.net"><g><path d="M42.41,18.63c0,3.88-1.14,14.53-1.66,17.12" stroke-dasharray="17.213" stroke-dashoffset="17.213"><animate attributeName="stroke-dashoffset" values="17.213" fill="freeze" begin="585a.click" /><animate attributeName="stroke-dashoffset" values="17.213;17.213;0" keyTimes="0;0.859;1" dur="1.222s" fill="freeze" begin="0s;585a.click" /></path><path d="M43.49,19.74c14.01-2.36,33.73-4.88,41.45-5.15c9.55-0.34,4.3,4.91,0.55,8.28" stroke-dasharray="56.234" stroke-dashoffset="56.234"><animate attributeName="stroke-dashoffset" values="56.234" fill="freeze" begin="585a.click" /><animate attributeName="stroke-dashoffset" values="56.234;56.234;0" keyTimes="0;0.685;1" dur="1.784s" fill="freeze" begin="0s;585a.click" /></path></g><g><path d="M49.69,33.52c1.76,0.31,3.59-0.08,5.31-0.38c4.54-0.78,13.03-2.32,18.51-3.43c1.66-0.34,3.33-0.74,5.02-0.32" stroke-dasharray="29.256" stroke-dashoffset="29.256"><animate attributeName="stroke-dashoffset" values="29.256" fill="freeze" begin="585a.click" /><animate attributeName="stroke-dashoffset" values="29.256;29.256;0" keyTimes="0;0.859;1" dur="2.077s" fill="freeze" begin="0s;585a.click" /></path><path d="M62.04,35.16c-0.04,0.97-0.56,1.99-1.07,2.66c-3.78,5-10.96,12.18-23.25,18.59" stroke-dasharray="32.911" stroke-dashoffset="32.911"><animate attributeName="stroke-dashoffset" values="32.911" fill="freeze" begin="585a.click" /><animate attributeName="stroke-dashoffset" values="32.911;32.911;0" keyTimes="0;0.863;1" dur="2.406s" fill="freeze" begin="0s;585a.click" /></path><path d="M55.46,46.02c8.79,6.23,19.29,26.6,10.53,47.33c-3.21,7.6-8.4,0.92-9.49,0.05" stroke-dasharray="64.243" stroke-dashoffset="64.243"><animate attributeName="stroke-dashoffset" values="64.243" fill="freeze" begin="585a.click" /><animate attributeName="stroke-dashoffset" values="64.243;64.243;0" keyTimes="0;0.833;1" dur="2.889s" fill="freeze" begin="0s;585a.click" /></path><path d="M59.58,52.41c0.07,0.55-0.12,1.55-0.65,2.2C54.12,60.5,46.62,67.12,33.2,74.92" stroke-dasharray="35.3" stroke-dashoffset="35.3"><animate attributeName="stroke-dashoffset" values="35.3" fill="freeze" begin="585a.click" /><animate attributeName="stroke-dashoffset" values="35.3;35.3;0" keyTimes="0;0.891;1" dur="3.242s" fill="freeze" begin="0s;585a.click" /></path><path d="M65.24,62.3c0.09,0.68-0.02,1.67-0.69,2.48c-5.3,6.47-15.05,17.09-33.1,25.9" stroke-dasharray="45.019" stroke-dashoffset="45.019"><animate attributeName="stroke-dashoffset" values="45.019" fill="freeze" begin="585a.click" /><animate attributeName="stroke-dashoffset" values="45.019;45.019;0" keyTimes="0;0.878;1" dur="3.692s" fill="freeze" begin="0s;585a.click" /></path><path d="M83.85,39.34c0.11,0.97-0.04,1.67-0.56,2.44c-2.96,4.41-8.54,10.34-14.04,14.47" stroke-dasharray="22.808" stroke-dashoffset="22.808"><animate attributeName="stroke-dashoffset" values="22.808" fill="freeze" begin="585a.click" /><animate attributeName="stroke-dashoffset" values="22.808;22.808;0" keyTimes="0;0.942;1" dur="3.92s" fill="freeze" begin="0s;585a.click" /></path><path d="M66.29,57.64c3.66,3.55,17.34,17.88,24.04,24.38c1.98,1.93,4.03,3.97,6.6,5.1" stroke-dasharray="42.63" stroke-dashoffset="42.63"><animate attributeName="stroke-dashoffset" values="42.63" fill="freeze" begin="585a.click" /><animate attributeName="stroke-dashoffset" values="42.63;42.63;0" keyTimes="0;0.902;1" dur="4.346s" fill="freeze" begin="0s;585a.click" /></path></g></g></g></g></svg>