<svg xmlns="http://www.w3.org/2000/svg" width="109" height="109" viewBox="0 0 109 109" id="585a"><g fill="none" stroke="#666" stroke-width="9" stroke-linecap="round" stroke-linejoin="round"><g><g><path d="M10,43.14c1.57,0.79,4.27,0.43,5.89,0.06c4.73-1.08,11.4-3.38,16.11-4.2c1.24-0.22,1.62-0.18,2.25,0.01" /><path d="M23.12,21c1,1,1.21,2.48,1.21,3.5c0,7.25,0.03,37.5,0.03,48.25" /><path d="M13.25,79.91c1.12,0.34,2.25,0.22,3.54-0.76C21.85,75.31,30.83,68,35.75,64" /></g><g p4:partial p4:phon="冢V" xmlns:p4="http://kanjivg.tagaini.net"><g><path d="M42.41,18.63c0,3.88-1.14,14.53-1.66,17.12" /><path d="M43.49,19.74c14.01-2.36,33.73-4.88,41.45-5.15c9.55-0.34,4.3,4.91,0.55,8.28" /></g><g><path d="M49.69,33.52c1.76,0.31,3.59-0.08,5.31-0.38c4.54-0.78,13.03-2.32,18.51-3.43c1.66-0.34,3.33-0.74,5.02-0.32" /><path d="M62.04,35.16c-0.04,0.97-0.56,1.99-1.07,2.66c-3.78,5-10.96,12.18-23.25,18.59" /><path d="M55.46,46.02c8.79,6.23,19.29,26.6,10.53,47.33c-3.21,7.6-8.4,0.92-9.49,0.05" /><path d="M59.58,52.41c0.07,0.55-0.12,1.55-0.65,2.2C54.12,60.5,46.62,67.12,33.2,74.92" /><path d="M65.24,62.3c0.09,0.68-0.02,1.67-0.69,2.48c-5.3,6.47-15.05,17.09-33.1,25.9" /><path d="M83.85,39.34c0.11,0.97-0.04,1.67-0.56,2.44c-2.96,4.41-8.54,10.34-14.04,14.47" /><path d="M66.29,57.64c3.66,3.55,17.34,17.88,24.04,24.38c1.98,1.93,4.03,3.97,6.6,5.1" /></g></g></g></g><g fill="none" stroke="#000" stroke-width="5" stroke-linecap="round" stroke-linejoin="round"><g><g><path d="M10,43.14c1.57,0.79,4.27,0.43,5.89,0.06c4.73-1.08,11.4-3.38,16.11-4.2c1.24-0.22,1.62-0.18,2.25,0.01" stroke-dasharray="24.92" stroke-dashoffset="24.92"><animate id="0" attributeName="stroke-dashoffset" values="24.92;0" dur="0.25s" fill="freeze" begin="0s;585a.click" /></path><path d="M23.12,21c1,1,1.21,2.48,1.21,3.5c0,7.25,0.03,37.5,0.03,48.25" stroke-dasharray="52.05" stroke-dashoffset="52.05"><animate attributeName="stroke-dashoffset" values="52.05" fill="freeze" begin="585a.click" /><animate id="1" attributeName="stroke-dashoffset" values="52.05;0" dur="0.52s" fill="freeze" begin="0.end" /></path><path d="M13.25,79.91c1.12,0.34,2.25,0.22,3.54-0.76C21.85,75.31,30.83,68,35.75,64" stroke-dasharray="28.05" stroke-dashoffset="28.05"><animate attributeName="stroke-dashoffset" values="28.05" fill="freeze" begin="585a.click" /><animate id="2" attributeName="stroke-dashoffset" values="28.05;0" dur="0.28s" fill="freeze" begin="1.end" /></path></g><g p4:partial p4:phon="冢V" xmlns:p4="http://kanjivg.tagaini.net"><g><path d="M42.41,18.63c0,3.88-1.14,14.53-1.66,17.12" stroke-dasharray="17.21" stroke-dashoffset="17.21"><animate attributeName="stroke-dashoffset" values="17.21" fill="freeze" begin="585a.click" /><animate id="3" attributeName="stroke-dashoffset" values="17.21;0" dur="0.17s" fill="freeze" begin="2.end" /></path><path d="M43.49,19.74c14.01-2.36,33.73-4.88,41.45-5.15c9.55-0.34,4.3,4.91,0.55,8.28" stroke-dasharray="56.23" stroke-dashoffset="56.23"><animate attributeName="stroke-dashoffset" values="56.23" fill="freeze" begin="585a.click" /><animate id="4" attributeName="stroke-dashoffset" values="56.23;0" dur="0.56s" fill="freeze" begin="3.end" /></path></g><g><path d="M49.69,33.52c1.76,0.31,3.59-0.08,5.31-0.38c4.54-0.78,13.03-2.32,18.51-3.43c1.66-0.34,3.33-0.74,5.02-0.32" stroke-dasharray="29.26" stroke-dashoffset="29.26"><animate attributeName="stroke-dashoffset" values="29.26" fill="freeze" begin="585a.click" /><animate id="5" attributeName="stroke-dashoffset" values="29.26;0" dur="0.29s" fill="freeze" begin="4.end" /></path><path d="M62.04,35.16c-0.04,0.97-0.56,1.99-1.07,2.66c-3.78,5-10.96,12.18-23.25,18.59" stroke-dasharray="32.91" stroke-dashoffset="32.91"><animate attributeName="stroke-dashoffset" values="32.91" fill="freeze" begin="585a.click" /><animate id="6" attributeName="stroke-dashoffset" values="32.91;0" dur="0.33s" fill="freeze" begin="5.end" /></path><path d="M55.46,46.02c8.79,6.23,19.29,26.6,10.53,47.33c-3.21,7.6-8.4,0.92-9.49,0.05" stroke-dasharray="64.24" stroke-dashoffset="64.24"><animate attributeName="stroke-dashoffset" values="64.24" fill="freeze" begin="585a.click" /><animate id="7" attributeName="stroke-dashoffset" values="64.24;0" dur="0.48s" fill="freeze" begin="6.end" /></path><path d="M59.58,52.41c0.07,0.55-0.12,1.55-0.65,2.2C54.12,60.5,46.62,67.12,33.2,74.92" stroke-dasharray="35.3" stroke-dashoffset="35.3"><animate attributeName="stroke-dashoffset" values="35.3" fill="freeze" begin="585a.click" /><animate id="8" attributeName="stroke-dashoffset" values="35.3;0" dur="0.35s" fill="freeze" begin="7.end" /></path><path d="M65.24,62.3c0.09,0.68-0.02,1.67-0.69,2.48c-5.3,6.47-15.05,17.09-33.1,25.9" stroke-dasharray="45.02" stroke-dashoffset="45.02"><animate attributeName="stroke-dashoffset" values="45.02" fill="freeze" begin="585a.click" /><animate id="9" attributeName="stroke-dashoffset" values="45.02;0" dur="0.45s" fill="freeze" begin="8.end" /></path><path d="M83.85,39.34c0.11,0.97-0.04,1.67-0.56,2.44c-2.96,4.41-8.54,10.34-14.04,14.47" stroke-dasharray="22.81" stroke-dashoffset="22.81"><animate attributeName="stroke-dashoffset" values="22.81" fill="freeze" begin="585a.click" /><animate id="10" attributeName="stroke-dashoffset" values="22.81;0" dur="0.23s" fill="freeze" begin="9.end" /></path><path d="M66.29,57.64c3.66,3.55,17.34,17.88,24.04,24.38c1.98,1.93,4.03,3.97,6.6,5.1" stroke-dasharray="42.63" stroke-dashoffset="42.63"><animate attributeName="stroke-dashoffset" values="42.63" fill="freeze" begin="585a.click" /><animate id="11" attributeName="stroke-dashoffset" values="42.63;0" dur="0.43s" fill="freeze" begin="10.end" /></path></g></g></g></g></svg>