<svg xmlns="http://www.w3.org/2000/svg" width="109" height="109" viewBox="0 0 109 109" id="5869"><g fill="none" stroke="#666" stroke-width="9" stroke-linecap="round" stroke-linejoin="round"><g><g><path d="M11.78,46.69c1.47,0.31,2.02,0.17,3.52,0.06c7.08-0.5,14.7-2.5,19.9-3.25c1.48-0.21,2.43-0.38,3.3-0.25" /><path d="M24.87,22.75c0.75,0.75,1.46,2.23,1.46,3.25c0,3.38,0.03,36.5,0.03,44.5" /><path d="M12.95,77.5c1.66,0.66,3.26,0.62,5.06-0.5c1.64-1.02,12.77-8.58,19.74-13.5" /></g><g p4:phon="監V" xmlns:p4="http://kanjivg.tagaini.net"><path d="M53.51,15.14c0.04,0.62,0.09,1.6-0.08,2.48c-0.81,4.17-4.7,12.3-10.3,19" /><path d="M53.5,27.39c1.12,0.36,2.42,0.26,3.35,0.13c6.4-0.9,16.53-2.65,26.61-4.63c1.54-0.3,2.5-0.07,3.29,0.12" /><g><path d="M51,38.91c0.77,0.58,1.37,1.86,1.32,2.83c0.63,3.56,0.83,6.55,1.41,10.89c0.13,0.98,0.27,2.01,0.42,3.09" /><path d="M53.32,40.23c7.56-1.21,21.59-2.78,26.93-3.35c2.4-0.26,3.81,0.94,3.12,3.39c-0.93,3.33-2.13,5.35-3.92,10.54" /><path d="M54.98,53.65c4.08-0.41,14.85-1.23,22.02-1.78c1.52-0.12,2.88-0.22,3.98-0.31" /></g><g><path d="M44.67,66.09c1.18,1.18,1.83,2.29,2.11,3.69c1.26,6.17,1.96,11.72,2.92,19.32" /><path d="M47.13,67.8c8.95-1.19,31.96-3.63,38.38-4.46c3.61-0.47,4.77,1.11,4.04,4.68c-0.85,4.14-2.58,13.93-3.66,18.53" /><path d="M59.36,68.87c0.7,0.7,1.21,1.58,1.3,2.33c0.84,6.93,1.09,9.81,1.5,16.64" /><path d="M74.23,66.97c0.64,0.78,0.58,1.99,0.5,2.79c-0.88,8.62-1.43,12.1-2.15,17.28" /><path d="M36.37,90.37c2.17,0.51,6.16,0.72,8.32,0.51c15.56-1.51,34.69-3.26,47.1-3.23c3.62,0.01,5.66,0.22,7.59,0.75" /></g></g></g></g><g fill="none" stroke="#000" stroke-width="5" stroke-linecap="round" stroke-linejoin="round"><g><g><path d="M11.78,46.69c1.47,0.31,2.02,0.17,3.52,0.06c7.08-0.5,14.7-2.5,19.9-3.25c1.48-0.21,2.43-0.38,3.3-0.25" stroke-dasharray="27.03" stroke-dashoffset="27.03"><animate id="0" attributeName="stroke-dashoffset" values="27.03;0" dur="0.27s" fill="freeze" begin="0s;5869.click" /></path><path d="M24.87,22.75c0.75,0.75,1.46,2.23,1.46,3.25c0,3.38,0.03,36.5,0.03,44.5" stroke-dasharray="48.13" stroke-dashoffset="48.13"><animate attributeName="stroke-dashoffset" values="48.13" fill="freeze" begin="5869.click" /><animate id="1" attributeName="stroke-dashoffset" values="48.13;0" dur="0.48s" fill="freeze" begin="0.end" /></path><path d="M12.95,77.5c1.66,0.66,3.26,0.62,5.06-0.5c1.64-1.02,12.77-8.58,19.74-13.5" stroke-dasharray="29.22" stroke-dashoffset="29.22"><animate attributeName="stroke-dashoffset" values="29.22" fill="freeze" begin="5869.click" /><animate id="2" attributeName="stroke-dashoffset" values="29.22;0" dur="0.29s" fill="freeze" begin="1.end" /></path></g><g p4:phon="監V" xmlns:p4="http://kanjivg.tagaini.net"><path d="M53.51,15.14c0.04,0.62,0.09,1.6-0.08,2.48c-0.81,4.17-4.7,12.3-10.3,19" stroke-dasharray="24.27" stroke-dashoffset="24.27"><animate attributeName="stroke-dashoffset" values="24.27" fill="freeze" begin="5869.click" /><animate id="3" attributeName="stroke-dashoffset" values="24.27;0" dur="0.24s" fill="freeze" begin="2.end" /></path><path d="M53.5,27.39c1.12,0.36,2.42,0.26,3.35,0.13c6.4-0.9,16.53-2.65,26.61-4.63c1.54-0.3,2.5-0.07,3.29,0.12" stroke-dasharray="33.72" stroke-dashoffset="33.72"><animate attributeName="stroke-dashoffset" values="33.72" fill="freeze" begin="5869.click" /><animate id="4" attributeName="stroke-dashoffset" values="33.72;0" dur="0.34s" fill="freeze" begin="3.end" /></path><g><path d="M51,38.91c0.77,0.58,1.37,1.86,1.32,2.83c0.63,3.56,0.83,6.55,1.41,10.89c0.13,0.98,0.27,2.01,0.42,3.09" stroke-dasharray="17.33" stroke-dashoffset="17.33"><animate attributeName="stroke-dashoffset" values="17.33" fill="freeze" begin="5869.click" /><animate id="5" attributeName="stroke-dashoffset" values="17.33;0" dur="0.17s" fill="freeze" begin="4.end" /></path><path d="M53.32,40.23c7.56-1.21,21.59-2.78,26.93-3.35c2.4-0.26,3.81,0.94,3.12,3.39c-0.93,3.33-2.13,5.35-3.92,10.54" stroke-dasharray="44.16" stroke-dashoffset="44.16"><animate attributeName="stroke-dashoffset" values="44.16" fill="freeze" begin="5869.click" /><animate id="6" attributeName="stroke-dashoffset" values="44.16;0" dur="0.44s" fill="freeze" begin="5.end" /></path><path d="M54.98,53.65c4.08-0.41,14.85-1.23,22.02-1.78c1.52-0.12,2.88-0.22,3.98-0.31" stroke-dasharray="26.08" stroke-dashoffset="26.08"><animate attributeName="stroke-dashoffset" values="26.08" fill="freeze" begin="5869.click" /><animate id="7" attributeName="stroke-dashoffset" values="26.08;0" dur="0.26s" fill="freeze" begin="6.end" /></path></g><g><path d="M44.67,66.09c1.18,1.18,1.83,2.29,2.11,3.69c1.26,6.17,1.96,11.72,2.92,19.32" stroke-dasharray="23.86" stroke-dashoffset="23.86"><animate attributeName="stroke-dashoffset" values="23.86" fill="freeze" begin="5869.click" /><animate id="8" attributeName="stroke-dashoffset" values="23.86;0" dur="0.24s" fill="freeze" begin="7.end" /></path><path d="M47.13,67.8c8.95-1.19,31.96-3.63,38.38-4.46c3.61-0.47,4.77,1.11,4.04,4.68c-0.85,4.14-2.58,13.93-3.66,18.53" stroke-dasharray="65.43" stroke-dashoffset="65.43"><animate attributeName="stroke-dashoffset" values="65.43" fill="freeze" begin="5869.click" /><animate id="9" attributeName="stroke-dashoffset" values="65.43;0" dur="0.49s" fill="freeze" begin="8.end" /></path><path d="M59.36,68.87c0.7,0.7,1.21,1.58,1.3,2.33c0.84,6.93,1.09,9.81,1.5,16.64" stroke-dasharray="19.42" stroke-dashoffset="19.42"><animate attributeName="stroke-dashoffset" values="19.42" fill="freeze" begin="5869.click" /><animate id="10" attributeName="stroke-dashoffset" values="19.42;0" dur="0.19s" fill="freeze" begin="9.end" /></path><path d="M74.23,66.97c0.64,0.78,0.58,1.99,0.5,2.79c-0.88,8.62-1.43,12.1-2.15,17.28" stroke-dasharray="20.32" stroke-dashoffset="20.32"><animate attributeName="stroke-dashoffset" values="20.32" fill="freeze" begin="5869.click" /><animate id="11" attributeName="stroke-dashoffset" values="20.32;0" dur="0.2s" fill="freeze" begin="10.end" /></path><path d="M36.37,90.37c2.17,0.51,6.16,0.72,8.32,0.51c15.56-1.51,34.69-3.26,47.1-3.23c3.62,0.01,5.66,0.22,7.59,0.75" stroke-dasharray="63.24" stroke-dashoffset="63.24"><animate attributeName="stroke-dashoffset" values="63.24" fill="freeze" begin="5869.click" /><animate id="12" attributeName="stroke-dashoffset" values="63.24;0" dur="0.48s" fill="freeze" begin="11.end" /></path></g></g></g></g></svg>