<svg xmlns="http://www.w3.org/2000/svg" width="109" height="109" viewBox="0 0 109 109" id="5870"><g fill="none" stroke="#666" stroke-width="9" stroke-linecap="round" stroke-linejoin="round"><g><g><g><path d="M22.44,12.15c3.35,1.34,8.65,5.5,9.49,7.59" /><path d="M16.18,29.73c3.8,0.91,9.83,3.74,10.78,5.16" /><path d="M16.5,64.37c1.34,0.87,2.95,0.91,3.79-0.17c2.45-3.14,6.91-10.98,9.14-14.99" /></g><g><g><g><path d="M54.12,10.5c0.04,0.44,0.14,1.14-0.08,1.76c-1.3,3.79-8.4,12.21-13.9,16.87" /></g><path d="M51.37,19.71c1.01,0.22,3.96,0.36,4.95,0.22c5.67-0.76,17.24-2.51,28-3.68c1.65-0.18,3.77,0.11,4.61,0.22" /></g><g><path d="M52.36,28.07c0.88,0.57,2.08,2.97,1.59,4.42c-2.45,7.26-5.78,18.9-8.29,22.17c-1.47,1.92-0.42,2.88,1.26,2.88c13.47,0,29.83,0.46,42.6,6.62" /><path d="M54.82,31.43c0.93-0.1,2.71-0.21,3.52-0.27c8.37-0.69,19.43-3.29,24.08-3.29c2.36,0,2.99,1.11,2.83,2.47c-1.18,10-4.5,28.15-9.55,36.39c-1.88,3.05-5.24-0.42-6.18-1.13" /><path d="M63.69,34.9c1.76,0.77,4.55,3.15,4.99,4.34" /><path d="M61.44,48.65c2.29,0.99,5.92,4.05,6.49,5.59" /><path d="M37.14,45.87c1.23,0.32,3.49,0.9,4.73,0.82C53.5,46,73.75,43,93.06,42.51c2.06-0.05,3.29,0.15,4.32,0.31" /></g></g></g><g><path d="M27.63,79.45c1.12,0.3,3.17,0.34,4.29,0.3c8.95-0.25,36.58-3.48,47.05-3.48c1.86,0,2.98,0.14,3.91,0.3" /><path d="M52.42,65.62c0.12,0.23,1.31,1.71,1.27,3.19c-0.19,8.45,0.06,23.28,0.06,25.7" /><path d="M17.88,96.36c1.52,0.43,4.31,0.52,5.82,0.43c13.55-0.79,45.05-3.54,64.11-3.15c2.53,0.05,4.05,0.2,5.31,0.42" /></g></g></g><g fill="none" stroke="#000" stroke-width="5" stroke-linecap="round" stroke-linejoin="round"><g><g><g><path d="M22.44,12.15c3.35,1.34,8.65,5.5,9.49,7.59" stroke-dasharray="12.32" stroke-dashoffset="12.32"><animate id="0" attributeName="stroke-dashoffset" values="12.32;0" dur="0.12s" fill="freeze" begin="0s;5870.click" /></path><path d="M16.18,29.73c3.8,0.91,9.83,3.74,10.78,5.16" stroke-dasharray="12.07" stroke-dashoffset="12.07"><animate attributeName="stroke-dashoffset" values="12.07" fill="freeze" begin="5870.click" /><animate id="1" attributeName="stroke-dashoffset" values="12.07;0" dur="0.12s" fill="freeze" begin="0.end" /></path><path d="M16.5,64.37c1.34,0.87,2.95,0.91,3.79-0.17c2.45-3.14,6.91-10.98,9.14-14.99" stroke-dasharray="21.74" stroke-dashoffset="21.74"><animate attributeName="stroke-dashoffset" values="21.74" fill="freeze" begin="5870.click" /><animate id="2" attributeName="stroke-dashoffset" values="21.74;0" dur="0.22s" fill="freeze" begin="1.end" /></path></g><g><g><g><path d="M54.12,10.5c0.04,0.44,0.14,1.14-0.08,1.76c-1.3,3.79-8.4,12.21-13.9,16.87" stroke-dasharray="23.78" stroke-dashoffset="23.78"><animate attributeName="stroke-dashoffset" values="23.78" fill="freeze" begin="5870.click" /><animate id="3" attributeName="stroke-dashoffset" values="23.78;0" dur="0.24s" fill="freeze" begin="2.end" /></path></g><path d="M51.37,19.71c1.01,0.22,3.96,0.36,4.95,0.22c5.67-0.76,17.24-2.51,28-3.68c1.65-0.18,3.77,0.11,4.61,0.22" stroke-dasharray="37.83" stroke-dashoffset="37.83"><animate attributeName="stroke-dashoffset" values="37.83" fill="freeze" begin="5870.click" /><animate id="4" attributeName="stroke-dashoffset" values="37.83;0" dur="0.38s" fill="freeze" begin="3.end" /></path></g><g><path d="M52.36,28.07c0.88,0.57,2.08,2.97,1.59,4.42c-2.45,7.26-5.78,18.9-8.29,22.17c-1.47,1.92-0.42,2.88,1.26,2.88c13.47,0,29.83,0.46,42.6,6.62" stroke-dasharray="76.52" stroke-dashoffset="76.52"><animate attributeName="stroke-dashoffset" values="76.52" fill="freeze" begin="5870.click" /><animate id="5" attributeName="stroke-dashoffset" values="76.52;0" dur="0.58s" fill="freeze" begin="4.end" /></path><path d="M54.82,31.43c0.93-0.1,2.71-0.21,3.52-0.27c8.37-0.69,19.43-3.29,24.08-3.29c2.36,0,2.99,1.11,2.83,2.47c-1.18,10-4.5,28.15-9.55,36.39c-1.88,3.05-5.24-0.42-6.18-1.13" stroke-dasharray="77.44" stroke-dashoffset="77.44"><animate attributeName="stroke-dashoffset" values="77.44" fill="freeze" begin="5870.click" /><animate id="6" attributeName="stroke-dashoffset" values="77.44;0" dur="0.58s" fill="freeze" begin="5.end" /></path><path d="M63.69,34.9c1.76,0.77,4.55,3.15,4.99,4.34" stroke-dasharray="6.71" stroke-dashoffset="6.71"><animate attributeName="stroke-dashoffset" values="6.71" fill="freeze" begin="5870.click" /><animate id="7" attributeName="stroke-dashoffset" values="6.71;0" dur="0.07s" fill="freeze" begin="6.end" /></path><path d="M61.44,48.65c2.29,0.99,5.92,4.05,6.49,5.59" stroke-dasharray="8.69" stroke-dashoffset="8.69"><animate attributeName="stroke-dashoffset" values="8.69" fill="freeze" begin="5870.click" /><animate id="8" attributeName="stroke-dashoffset" values="8.69;0" dur="0.09s" fill="freeze" begin="7.end" /></path><path d="M37.14,45.87c1.23,0.32,3.49,0.9,4.73,0.82C53.5,46,73.75,43,93.06,42.51c2.06-0.05,3.29,0.15,4.32,0.31" stroke-dasharray="60.53" stroke-dashoffset="60.53"><animate attributeName="stroke-dashoffset" values="60.53" fill="freeze" begin="5870.click" /><animate id="9" attributeName="stroke-dashoffset" values="60.53;0" dur="0.46s" fill="freeze" begin="8.end" /></path></g></g></g><g><path d="M27.63,79.45c1.12,0.3,3.17,0.34,4.29,0.3c8.95-0.25,36.58-3.48,47.05-3.48c1.86,0,2.98,0.14,3.91,0.3" stroke-dasharray="55.43" stroke-dashoffset="55.43"><animate attributeName="stroke-dashoffset" values="55.43" fill="freeze" begin="5870.click" /><animate id="10" attributeName="stroke-dashoffset" values="55.43;0" dur="0.55s" fill="freeze" begin="9.end" /></path><path d="M52.42,65.62c0.12,0.23,1.31,1.71,1.27,3.19c-0.19,8.45,0.06,23.28,0.06,25.7" stroke-dasharray="29.19" stroke-dashoffset="29.19"><animate attributeName="stroke-dashoffset" values="29.19" fill="freeze" begin="5870.click" /><animate id="11" attributeName="stroke-dashoffset" values="29.19;0" dur="0.29s" fill="freeze" begin="10.end" /></path><path d="M17.88,96.36c1.52,0.43,4.31,0.52,5.82,0.43c13.55-0.79,45.05-3.54,64.11-3.15c2.53,0.05,4.05,0.2,5.31,0.42" stroke-dasharray="75.39" stroke-dashoffset="75.39"><animate attributeName="stroke-dashoffset" values="75.39" fill="freeze" begin="5870.click" /><animate id="12" attributeName="stroke-dashoffset" values="75.39;0" dur="0.57s" fill="freeze" begin="11.end" /></path></g></g></g></svg>