<svg xmlns="http://www.w3.org/2000/svg" width="109" height="109" viewBox="0 0 109 109" id="58ab"><g fill="none" stroke="#666" stroke-width="9" stroke-linecap="round" stroke-linejoin="round"><g><g><path d="M12,44.14c0.76,0.38,2.24,0.42,3,0.36c6.75-0.5,16.65-2.89,22-3.5c1.25-0.14,2.62-0.18,3.25,0.01" /><path d="M25.37,17c1.09,0.5,1.96,2.23,1.96,3.25c0,7.25,0.03,40.75,0.03,51.5" /><path d="M12.5,76.9c0.77,0.85,2.31,1.31,4.62,0.18c6.42-3.12,17.96-8.71,24.38-11.83" /></g><g><g><g><g><path d="M54.14,14.9c0.04,0.36,0.08,0.93-0.08,1.44c-1,3.04-6.76,9.7-14.63,13.78" /></g><g><path d="M67.75,11.5c4.97,0.83,20.36,13.71,24.24,15.95c1.32,0.76,2.44,1.08,3.76,1.3" /></g></g><g><g p7:part="1" xmlns:p7="http://kanjivg.tagaini.net"><path d="M49.26,26.88c0.9,0.48,2.55,0.59,3.47,0.48c8.02-0.97,18.54-2.11,23.51-2.37c1.5-0.08,2.41,0.23,3.16,0.47" /><path d="M46.33,36.58c0.49,0.71,0.68,2.42,0.68,3.36s0.03,23.87,0.03,24.14" /><path d="M48.87,38.05c2.79-0.12,29.63-3.82,32-3.91c1.98-0.07,3.01,1.17,3.01,2.73c0,0.87-0.8,18.29-0.79,24.34" /><path d="M57.34,29.39c0.32,0.72,0.82,1.34,0.74,2.11c-0.76,7.5-1.08,14-7.85,17.24" /><path d="M67.77,28.29c0.43,0.68,0.77,1.49,0.79,2.54c0.08,3.35-0.19,5.35-0.23,9.48c-0.03,3.59,1.2,4.03,5.27,4.03c2.58,0,5.14-0.45,5.43-0.85" /></g><g><path d="M47.49,54.04c3.53,0,31.28-2.21,35.26-2.21" /></g><g p7:part="2" xmlns:p7="http://kanjivg.tagaini.net"><path d="M48.06,61.54c7.18-0.3,25.95-1.81,34.89-2.07" /></g></g></g><g><path d="M36.38,74.62c1.27,0.78,3.57,0.88,4.86,0.78c15.84-1.2,36.24-2.9,51.71-4.09c2.11-0.16,3.38,0.37,4.43,0.76" /><path d="M74.88,63.99c0.05,0.38,1.24,1.96,1.24,4.35c0,8.32,0.22,21.45,0.22,25.35c0,9.48-5.43,1.41-6.73,0.2" /><path d="M50.11,79.98c2.24,1.55,5.78,6.39,6.34,8.81" /></g></g></g></g><g fill="none" stroke="#000" stroke-width="5" stroke-linecap="round" stroke-linejoin="round"><g><g><path d="M12,44.14c0.76,0.38,2.24,0.42,3,0.36c6.75-0.5,16.65-2.89,22-3.5c1.25-0.14,2.62-0.18,3.25,0.01" stroke-dasharray="28.6" stroke-dashoffset="28.6"><animate id="0" attributeName="stroke-dashoffset" values="28.6;0" dur="0.29s" fill="freeze" begin="0s;58ab.click" /></path><path d="M25.37,17c1.09,0.5,1.96,2.23,1.96,3.25c0,7.25,0.03,40.75,0.03,51.5" stroke-dasharray="55.45" stroke-dashoffset="55.45"><animate attributeName="stroke-dashoffset" values="55.45" fill="freeze" begin="58ab.click" /><animate id="1" attributeName="stroke-dashoffset" values="55.45;0" dur="0.55s" fill="freeze" begin="0.end" /></path><path d="M12.5,76.9c0.77,0.85,2.31,1.31,4.62,0.18c6.42-3.12,17.96-8.71,24.38-11.83" stroke-dasharray="32.06" stroke-dashoffset="32.06"><animate attributeName="stroke-dashoffset" values="32.06" fill="freeze" begin="58ab.click" /><animate id="2" attributeName="stroke-dashoffset" values="32.06;0" dur="0.32s" fill="freeze" begin="1.end" /></path></g><g><g><g><g><path d="M54.14,14.9c0.04,0.36,0.08,0.93-0.08,1.44c-1,3.04-6.76,9.7-14.63,13.78" stroke-dasharray="21.88" stroke-dashoffset="21.88"><animate attributeName="stroke-dashoffset" values="21.88" fill="freeze" begin="58ab.click" /><animate id="3" attributeName="stroke-dashoffset" values="21.88;0" dur="0.22s" fill="freeze" begin="2.end" /></path></g><g><path d="M67.75,11.5c4.97,0.83,20.36,13.71,24.24,15.95c1.32,0.76,2.44,1.08,3.76,1.3" stroke-dasharray="33.13" stroke-dashoffset="33.13"><animate attributeName="stroke-dashoffset" values="33.13" fill="freeze" begin="58ab.click" /><animate id="4" attributeName="stroke-dashoffset" values="33.13;0" dur="0.33s" fill="freeze" begin="3.end" /></path></g></g><g><g p7:part="1" xmlns:p7="http://kanjivg.tagaini.net"><path d="M49.26,26.88c0.9,0.48,2.55,0.59,3.47,0.48c8.02-0.97,18.54-2.11,23.51-2.37c1.5-0.08,2.41,0.23,3.16,0.47" stroke-dasharray="30.39" stroke-dashoffset="30.39"><animate attributeName="stroke-dashoffset" values="30.39" fill="freeze" begin="58ab.click" /><animate id="5" attributeName="stroke-dashoffset" values="30.39;0" dur="0.3s" fill="freeze" begin="4.end" /></path><path d="M46.33,36.58c0.49,0.71,0.68,2.42,0.68,3.36s0.03,23.87,0.03,24.14" stroke-dasharray="27.6" stroke-dashoffset="27.6"><animate attributeName="stroke-dashoffset" values="27.6" fill="freeze" begin="58ab.click" /><animate id="6" attributeName="stroke-dashoffset" values="27.6;0" dur="0.28s" fill="freeze" begin="5.end" /></path><path d="M48.87,38.05c2.79-0.12,29.63-3.82,32-3.91c1.98-0.07,3.01,1.17,3.01,2.73c0,0.87-0.8,18.29-0.79,24.34" stroke-dasharray="61.21" stroke-dashoffset="61.21"><animate attributeName="stroke-dashoffset" values="61.21" fill="freeze" begin="58ab.click" /><animate id="7" attributeName="stroke-dashoffset" values="61.21;0" dur="0.46s" fill="freeze" begin="6.end" /></path><path d="M57.34,29.39c0.32,0.72,0.82,1.34,0.74,2.11c-0.76,7.5-1.08,14-7.85,17.24" stroke-dasharray="22.28" stroke-dashoffset="22.28"><animate attributeName="stroke-dashoffset" values="22.28" fill="freeze" begin="58ab.click" /><animate id="8" attributeName="stroke-dashoffset" values="22.28;0" dur="0.22s" fill="freeze" begin="7.end" /></path><path d="M67.77,28.29c0.43,0.68,0.77,1.49,0.79,2.54c0.08,3.35-0.19,5.35-0.23,9.48c-0.03,3.59,1.2,4.03,5.27,4.03c2.58,0,5.14-0.45,5.43-0.85" stroke-dasharray="25.7" stroke-dashoffset="25.7"><animate attributeName="stroke-dashoffset" values="25.7" fill="freeze" begin="58ab.click" /><animate id="9" attributeName="stroke-dashoffset" values="25.7;0" dur="0.26s" fill="freeze" begin="8.end" /></path></g><g><path d="M47.49,54.04c3.53,0,31.28-2.21,35.26-2.21" stroke-dasharray="35.33" stroke-dashoffset="35.33"><animate attributeName="stroke-dashoffset" values="35.33" fill="freeze" begin="58ab.click" /><animate id="10" attributeName="stroke-dashoffset" values="35.33;0" dur="0.35s" fill="freeze" begin="9.end" /></path></g><g p7:part="2" xmlns:p7="http://kanjivg.tagaini.net"><path d="M48.06,61.54c7.18-0.3,25.95-1.81,34.89-2.07" stroke-dasharray="34.95" stroke-dashoffset="34.95"><animate attributeName="stroke-dashoffset" values="34.95" fill="freeze" begin="58ab.click" /><animate id="11" attributeName="stroke-dashoffset" values="34.95;0" dur="0.35s" fill="freeze" begin="10.end" /></path></g></g></g><g><path d="M36.38,74.62c1.27,0.78,3.57,0.88,4.86,0.78c15.84-1.2,36.24-2.9,51.71-4.09c2.11-0.16,3.38,0.37,4.43,0.76" stroke-dasharray="61.4" stroke-dashoffset="61.4"><animate attributeName="stroke-dashoffset" values="61.4" fill="freeze" begin="58ab.click" /><animate id="12" attributeName="stroke-dashoffset" values="61.4;0" dur="0.46s" fill="freeze" begin="11.end" /></path><path d="M74.88,63.99c0.05,0.38,1.24,1.96,1.24,4.35c0,8.32,0.22,21.45,0.22,25.35c0,9.48-5.43,1.41-6.73,0.2" stroke-dasharray="42" stroke-dashoffset="42"><animate attributeName="stroke-dashoffset" values="42" fill="freeze" begin="58ab.click" /><animate id="13" attributeName="stroke-dashoffset" values="42;0" dur="0.42s" fill="freeze" begin="12.end" /></path><path d="M50.11,79.98c2.24,1.55,5.78,6.39,6.34,8.81" stroke-dasharray="10.99" stroke-dashoffset="10.99"><animate attributeName="stroke-dashoffset" values="10.99" fill="freeze" begin="58ab.click" /><animate id="14" attributeName="stroke-dashoffset" values="10.99;0" dur="0.11s" fill="freeze" begin="13.end" /></path></g></g></g></g></svg>