<svg xmlns="http://www.w3.org/2000/svg" width="109" height="109" viewBox="0 0 109 109" id="58b8"><g fill="none" stroke="#666" stroke-width="9" stroke-linecap="round" stroke-linejoin="round"><g><g><path d="M12.5,40.89c0.76,0.38,2.24,0.46,3,0.36c4.82-0.66,14.65-1.89,20-2.5c1.25-0.14,2.62-0.18,3.25,0.01" /><path d="M24.87,13.75c1.09,0.5,1.96,2.23,1.96,3.25c0,7.25,0.03,40.25,0.03,51" /><path d="M12.5,75.76c0.7,0.99,2.11,1.52,4.22,0.21c5.86-3.62,16.42-10.1,22.28-13.72" /></g><g><g><path d="M40.97,21.94c0.99,0.31,2.14,0.37,3.13,0.31c9.08-0.56,35.76-3.48,46.22-3.52c1.64-0.01,2.63,0.15,3.45,0.3" /><path d="M53.1,12.68c1.32,1.07,1.75,1.4,1.89,2.06c1.32,6.17,1.46,12.02,1.83,14.26" /><path d="M78.18,10.25c0.32,0.88,0.57,1.5,0.38,2.62C77.5,19,77.25,21,75.77,27.88" /></g><g><g p6:partial xmlns:p6="http://kanjivg.tagaini.net"><g><path d="M49.04,39.17c0.57,0.23,1.62,0.27,2.19,0.23c6.49-0.38,18.49-2.17,24.89-2.33c0.95-0.02,1.52,0.11,2,0.23" /><path d="M64.27,28.87c0.08,0.2,1.1,1.04,1.18,2.3c0.38,6.06,0.21,18.88,0.21,20.94" /><path d="M40.69,54.06c1.16,0.38,2.94,0.62,4,0.57c7.81-0.37,40.55-4.3,47.29-4.47c1.74-0.04,2.78,0.27,3.65,0.56" /></g><path d="M85.29,32.88c0.14,1.04,0.26,2.49-0.73,3.71c-12.71,15.8-24.71,27.55-47.9,42.16" /></g><path d="M75.1,54.98c2.55,1.02,6.6,4.21,7.24,5.8" /><g><path d="M58.7,66.73c0.3,0.73,0.6,1.1,0.6,2.07c0,0.97-0.2,28.49-0.2,28.97" /><path d="M59.8,68.55c1.7-0.12,23.25-2.11,24.79-2.26c1.29-0.12,2.12,1.35,2.02,2.07c-0.2,1.46-0.3,17.65-0.3,28.37" /><path d="M59.62,80.97c5.24,0,23.79-1.84,26.39-1.84" /><path d="M59.52,94.8c6.31,0,19.35-1.08,26.49-1.1" /></g></g></g></g></g><g fill="none" stroke="#000" stroke-width="5" stroke-linecap="round" stroke-linejoin="round"><g><g><path d="M12.5,40.89c0.76,0.38,2.24,0.46,3,0.36c4.82-0.66,14.65-1.89,20-2.5c1.25-0.14,2.62-0.18,3.25,0.01" stroke-dasharray="26.47" stroke-dashoffset="26.47"><animate id="0" attributeName="stroke-dashoffset" values="26.47;0" dur="0.26s" fill="freeze" begin="0s;58b8.click" /></path><path d="M24.87,13.75c1.09,0.5,1.96,2.23,1.96,3.25c0,7.25,0.03,40.25,0.03,51" stroke-dasharray="54.95" stroke-dashoffset="54.95"><animate attributeName="stroke-dashoffset" values="54.95" fill="freeze" begin="58b8.click" /><animate id="1" attributeName="stroke-dashoffset" values="54.95;0" dur="0.55s" fill="freeze" begin="0.end" /></path><path d="M12.5,75.76c0.7,0.99,2.11,1.52,4.22,0.21c5.86-3.62,16.42-10.1,22.28-13.72" stroke-dasharray="30.87" stroke-dashoffset="30.87"><animate attributeName="stroke-dashoffset" values="30.87" fill="freeze" begin="58b8.click" /><animate id="2" attributeName="stroke-dashoffset" values="30.87;0" dur="0.31s" fill="freeze" begin="1.end" /></path></g><g><g><path d="M40.97,21.94c0.99,0.31,2.14,0.37,3.13,0.31c9.08-0.56,35.76-3.48,46.22-3.52c1.64-0.01,2.63,0.15,3.45,0.3" stroke-dasharray="52.99" stroke-dashoffset="52.99"><animate attributeName="stroke-dashoffset" values="52.99" fill="freeze" begin="58b8.click" /><animate id="3" attributeName="stroke-dashoffset" values="52.99;0" dur="0.53s" fill="freeze" begin="2.end" /></path><path d="M53.1,12.68c1.32,1.07,1.75,1.4,1.89,2.06c1.32,6.17,1.46,12.02,1.83,14.26" stroke-dasharray="17.24" stroke-dashoffset="17.24"><animate attributeName="stroke-dashoffset" values="17.24" fill="freeze" begin="58b8.click" /><animate id="4" attributeName="stroke-dashoffset" values="17.24;0" dur="0.17s" fill="freeze" begin="3.end" /></path><path d="M78.18,10.25c0.32,0.88,0.57,1.5,0.38,2.62C77.5,19,77.25,21,75.77,27.88" stroke-dasharray="17.96" stroke-dashoffset="17.96"><animate attributeName="stroke-dashoffset" values="17.96" fill="freeze" begin="58b8.click" /><animate id="5" attributeName="stroke-dashoffset" values="17.96;0" dur="0.18s" fill="freeze" begin="4.end" /></path></g><g><g p6:partial xmlns:p6="http://kanjivg.tagaini.net"><g><path d="M49.04,39.17c0.57,0.23,1.62,0.27,2.19,0.23c6.49-0.38,18.49-2.17,24.89-2.33c0.95-0.02,1.52,0.11,2,0.23" stroke-dasharray="29.24" stroke-dashoffset="29.24"><animate attributeName="stroke-dashoffset" values="29.24" fill="freeze" begin="58b8.click" /><animate id="6" attributeName="stroke-dashoffset" values="29.24;0" dur="0.29s" fill="freeze" begin="5.end" /></path><path d="M64.27,28.87c0.08,0.2,1.1,1.04,1.18,2.3c0.38,6.06,0.21,18.88,0.21,20.94" stroke-dasharray="23.58" stroke-dashoffset="23.58"><animate attributeName="stroke-dashoffset" values="23.58" fill="freeze" begin="58b8.click" /><animate id="7" attributeName="stroke-dashoffset" values="23.58;0" dur="0.24s" fill="freeze" begin="6.end" /></path><path d="M40.69,54.06c1.16,0.38,2.94,0.62,4,0.57c7.81-0.37,40.55-4.3,47.29-4.47c1.74-0.04,2.78,0.27,3.65,0.56" stroke-dasharray="55.28" stroke-dashoffset="55.28"><animate attributeName="stroke-dashoffset" values="55.28" fill="freeze" begin="58b8.click" /><animate id="8" attributeName="stroke-dashoffset" values="55.28;0" dur="0.55s" fill="freeze" begin="7.end" /></path></g><path d="M85.29,32.88c0.14,1.04,0.26,2.49-0.73,3.71c-12.71,15.8-24.71,27.55-47.9,42.16" stroke-dasharray="68.06" stroke-dashoffset="68.06"><animate attributeName="stroke-dashoffset" values="68.06" fill="freeze" begin="58b8.click" /><animate id="9" attributeName="stroke-dashoffset" values="68.06;0" dur="0.51s" fill="freeze" begin="8.end" /></path></g><path d="M75.1,54.98c2.55,1.02,6.6,4.21,7.24,5.8" stroke-dasharray="9.41" stroke-dashoffset="9.41"><animate attributeName="stroke-dashoffset" values="9.41" fill="freeze" begin="58b8.click" /><animate id="10" attributeName="stroke-dashoffset" values="9.41;0" dur="0.09s" fill="freeze" begin="9.end" /></path><g><path d="M58.7,66.73c0.3,0.73,0.6,1.1,0.6,2.07c0,0.97-0.2,28.49-0.2,28.97" stroke-dasharray="31.15" stroke-dashoffset="31.15"><animate attributeName="stroke-dashoffset" values="31.15" fill="freeze" begin="58b8.click" /><animate id="11" attributeName="stroke-dashoffset" values="31.15;0" dur="0.31s" fill="freeze" begin="10.end" /></path><path d="M59.8,68.55c1.7-0.12,23.25-2.11,24.79-2.26c1.29-0.12,2.12,1.35,2.02,2.07c-0.2,1.46-0.3,17.65-0.3,28.37" stroke-dasharray="56.5" stroke-dashoffset="56.5"><animate attributeName="stroke-dashoffset" values="56.5" fill="freeze" begin="58b8.click" /><animate id="12" attributeName="stroke-dashoffset" values="56.5;0" dur="0.56s" fill="freeze" begin="11.end" /></path><path d="M59.62,80.97c5.24,0,23.79-1.84,26.39-1.84" stroke-dasharray="26.46" stroke-dashoffset="26.46"><animate attributeName="stroke-dashoffset" values="26.46" fill="freeze" begin="58b8.click" /><animate id="13" attributeName="stroke-dashoffset" values="26.46;0" dur="0.26s" fill="freeze" begin="12.end" /></path><path d="M59.52,94.8c6.31,0,19.35-1.08,26.49-1.1" stroke-dasharray="26.52" stroke-dashoffset="26.52"><animate attributeName="stroke-dashoffset" values="26.52" fill="freeze" begin="58b8.click" /><animate id="14" attributeName="stroke-dashoffset" values="26.52;0" dur="0.27s" fill="freeze" begin="13.end" /></path></g></g></g></g></g></svg>