<svg xmlns="http://www.w3.org/2000/svg" width="109" height="109" viewBox="0 0 109 109" id="58b8"><g fill="none" stroke="#666" stroke-width="9" stroke-linecap="round" stroke-linejoin="round"><g><g><path d="M12.5,40.89c0.76,0.38,2.24,0.46,3,0.36c4.82-0.66,14.65-1.89,20-2.5c1.25-0.14,2.62-0.18,3.25,0.01" /><path d="M24.87,13.75c1.09,0.5,1.96,2.23,1.96,3.25c0,7.25,0.03,40.25,0.03,51" /><path d="M12.5,75.76c0.7,0.99,2.11,1.52,4.22,0.21c5.86-3.62,16.42-10.1,22.28-13.72" /></g><g><g><path d="M40.97,21.94c0.99,0.31,2.14,0.37,3.13,0.31c9.08-0.56,35.76-3.48,46.22-3.52c1.64-0.01,2.63,0.15,3.45,0.3" /><path d="M53.1,12.68c1.32,1.07,1.75,1.4,1.89,2.06c1.32,6.17,1.46,12.02,1.83,14.26" /><path d="M78.18,10.25c0.32,0.88,0.57,1.5,0.38,2.62C77.5,19,77.25,21,75.77,27.88" /></g><g><g p6:partial xmlns:p6="http://kanjivg.tagaini.net"><g><path d="M49.04,39.17c0.57,0.23,1.62,0.27,2.19,0.23c6.49-0.38,18.49-2.17,24.89-2.33c0.95-0.02,1.52,0.11,2,0.23" /><path d="M64.27,28.87c0.08,0.2,1.1,1.04,1.18,2.3c0.38,6.06,0.21,18.88,0.21,20.94" /><path d="M40.69,54.06c1.16,0.38,2.94,0.62,4,0.57c7.81-0.37,40.55-4.3,47.29-4.47c1.74-0.04,2.78,0.27,3.65,0.56" /></g><path d="M85.29,32.88c0.14,1.04,0.26,2.49-0.73,3.71c-12.71,15.8-24.71,27.55-47.9,42.16" /></g><path d="M75.1,54.98c2.55,1.02,6.6,4.21,7.24,5.8" /><g><path d="M58.7,66.73c0.3,0.73,0.6,1.1,0.6,2.07c0,0.97-0.2,28.49-0.2,28.97" /><path d="M59.8,68.55c1.7-0.12,23.25-2.11,24.79-2.26c1.29-0.12,2.12,1.35,2.02,2.07c-0.2,1.46-0.3,17.65-0.3,28.37" /><path d="M59.62,80.97c5.24,0,23.79-1.84,26.39-1.84" /><path d="M59.52,94.8c6.31,0,19.35-1.08,26.49-1.1" /></g></g></g></g></g><g fill="none" stroke="#000" stroke-width="5" stroke-linecap="round" stroke-linejoin="round"><path d="M12.5,40.89c0.76,0.38,2.24,0.46,3,0.36c4.82-0.66,14.65-1.89,20-2.5c1.25-0.14,2.62-0.18,3.25,0.01" stroke-dasharray="26.475" stroke-dashoffset="26.475"><animate attributeName="stroke-dashoffset" values="26.475;26.475;0" dur="0.265s" fill="freeze" begin="0s;58b8.click" /></path><path d="M24.87,13.75c1.09,0.5,1.96,2.23,1.96,3.25c0,7.25,0.03,40.25,0.03,51" stroke-dasharray="54.951" stroke-dashoffset="54.951"><animate attributeName="stroke-dashoffset" values="54.951" fill="freeze" begin="58b8.click" /><animate attributeName="stroke-dashoffset" values="54.951;54.951;0" keyTimes="0;0.325;1" dur="0.815s" fill="freeze" begin="0s;58b8.click" /></path><path d="M12.5,75.76c0.7,0.99,2.11,1.52,4.22,0.21c5.86-3.62,16.42-10.1,22.28-13.72" stroke-dasharray="30.875" stroke-dashoffset="30.875"><animate attributeName="stroke-dashoffset" values="30.875" fill="freeze" begin="58b8.click" /><animate attributeName="stroke-dashoffset" values="30.875;30.875;0" keyTimes="0;0.725;1" dur="1.124s" fill="freeze" begin="0s;58b8.click" /></path><path d="M40.97,21.94c0.99,0.31,2.14,0.37,3.13,0.31c9.08-0.56,35.76-3.48,46.22-3.52c1.64-0.01,2.63,0.15,3.45,0.3" stroke-dasharray="52.994" stroke-dashoffset="52.994"><animate attributeName="stroke-dashoffset" values="52.994" fill="freeze" begin="58b8.click" /><animate attributeName="stroke-dashoffset" values="52.994;52.994;0" keyTimes="0;0.68;1" dur="1.654s" fill="freeze" begin="0s;58b8.click" /></path><path d="M53.1,12.68c1.32,1.07,1.75,1.4,1.89,2.06c1.32,6.17,1.46,12.02,1.83,14.26" stroke-dasharray="17.238" stroke-dashoffset="17.238"><animate attributeName="stroke-dashoffset" values="17.238" fill="freeze" begin="58b8.click" /><animate attributeName="stroke-dashoffset" values="17.238;17.238;0" keyTimes="0;0.906;1" dur="1.826s" fill="freeze" begin="0s;58b8.click" /></path><path d="M78.18,10.25c0.32,0.88,0.57,1.5,0.38,2.62C77.5,19,77.25,21,75.77,27.88" stroke-dasharray="17.958" stroke-dashoffset="17.958"><animate attributeName="stroke-dashoffset" values="17.958" fill="freeze" begin="58b8.click" /><animate attributeName="stroke-dashoffset" values="17.958;17.958;0" keyTimes="0;0.91;1" dur="2.006s" fill="freeze" begin="0s;58b8.click" /></path><path d="M49.04,39.17c0.57,0.23,1.62,0.27,2.19,0.23c6.49-0.38,18.49-2.17,24.89-2.33c0.95-0.02,1.52,0.11,2,0.23" stroke-dasharray="29.241" stroke-dashoffset="29.241"><animate attributeName="stroke-dashoffset" values="29.241" fill="freeze" begin="58b8.click" /><animate attributeName="stroke-dashoffset" values="29.241;29.241;0" keyTimes="0;0.873;1" dur="2.298s" fill="freeze" begin="0s;58b8.click" /></path><path d="M64.27,28.87c0.08,0.2,1.1,1.04,1.18,2.3c0.38,6.06,0.21,18.88,0.21,20.94" stroke-dasharray="23.58" stroke-dashoffset="23.58"><animate attributeName="stroke-dashoffset" values="23.58" fill="freeze" begin="58b8.click" /><animate attributeName="stroke-dashoffset" values="23.58;23.58;0" keyTimes="0;0.907;1" dur="2.534s" fill="freeze" begin="0s;58b8.click" /></path><path d="M40.69,54.06c1.16,0.38,2.94,0.62,4,0.57c7.81-0.37,40.55-4.3,47.29-4.47c1.74-0.04,2.78,0.27,3.65,0.56" stroke-dasharray="55.278" stroke-dashoffset="55.278"><animate attributeName="stroke-dashoffset" values="55.278" fill="freeze" begin="58b8.click" /><animate attributeName="stroke-dashoffset" values="55.278;55.278;0" keyTimes="0;0.821;1" dur="3.087s" fill="freeze" begin="0s;58b8.click" /></path><path d="M85.29,32.88c0.14,1.04,0.26,2.49-0.73,3.71c-12.71,15.8-24.71,27.55-47.9,42.16" stroke-dasharray="68.059" stroke-dashoffset="68.059"><animate attributeName="stroke-dashoffset" values="68.059" fill="freeze" begin="58b8.click" /><animate attributeName="stroke-dashoffset" values="68.059;68.059;0" keyTimes="0;0.858;1" dur="3.599s" fill="freeze" begin="0s;58b8.click" /></path><path d="M75.1,54.98c2.55,1.02,6.6,4.21,7.24,5.8" stroke-dasharray="9.408" stroke-dashoffset="9.408"><animate attributeName="stroke-dashoffset" values="9.408" fill="freeze" begin="58b8.click" /><animate attributeName="stroke-dashoffset" values="9.408;9.408;0" keyTimes="0;0.975;1" dur="3.693s" fill="freeze" begin="0s;58b8.click" /></path><path d="M58.7,66.73c0.3,0.73,0.6,1.1,0.6,2.07c0,0.97-0.2,28.49-0.2,28.97" stroke-dasharray="31.15" stroke-dashoffset="31.15"><animate attributeName="stroke-dashoffset" values="31.15" fill="freeze" begin="58b8.click" /><animate attributeName="stroke-dashoffset" values="31.15;31.15;0" keyTimes="0;0.922;1" dur="4.004s" fill="freeze" begin="0s;58b8.click" /></path><path d="M59.8,68.55c1.7-0.12,23.25-2.11,24.79-2.26c1.29-0.12,2.12,1.35,2.02,2.07c-0.2,1.46-0.3,17.65-0.3,28.37" stroke-dasharray="56.503" stroke-dashoffset="56.503"><animate attributeName="stroke-dashoffset" values="56.503" fill="freeze" begin="58b8.click" /><animate attributeName="stroke-dashoffset" values="56.503;56.503;0" keyTimes="0;0.876;1" dur="4.569s" fill="freeze" begin="0s;58b8.click" /></path><path d="M59.62,80.97c5.24,0,23.79-1.84,26.39-1.84" stroke-dasharray="26.459" stroke-dashoffset="26.459"><animate attributeName="stroke-dashoffset" values="26.459" fill="freeze" begin="58b8.click" /><animate attributeName="stroke-dashoffset" values="26.459;26.459;0" keyTimes="0;0.945;1" dur="4.834s" fill="freeze" begin="0s;58b8.click" /></path><path d="M59.52,94.8c6.31,0,19.35-1.08,26.49-1.1" stroke-dasharray="26.517" stroke-dashoffset="26.517"><animate attributeName="stroke-dashoffset" values="26.517" fill="freeze" begin="58b8.click" /><animate attributeName="stroke-dashoffset" values="26.517;26.517;0" keyTimes="0;0.948;1" dur="5.099s" fill="freeze" begin="0s;58b8.click" /></path></g></svg>