<svg xmlns="http://www.w3.org/2000/svg" width="109" height="109" viewBox="0 0 109 109" id="58cc"><g fill="none" stroke="#666" stroke-width="9" stroke-linecap="round" stroke-linejoin="round"><g><g><path d="M11.75,43.64c1.38,0.7,4.53,0.49,6.01,0.25C23.28,43.01,28.12,42,34,40.75c1.23-0.26,2.62-0.43,3.25-0.24" /><path d="M25.87,21c0.88,0.88,1.21,2.12,1.21,3.5c0,7.25,0.03,29.75,0.03,40.5" /><path d="M12,74.86c1.12,0.77,2.88,0.77,4.24-0.25c5.35-3.99,14.31-11.42,19.51-15.6" /></g><g p4:phon="襄V" xmlns:p4="http://kanjivg.tagaini.net"><g><g><g><path d="M63.39,13.25c1.05,1.05,1.35,2.12,1.35,3.59c0,1.16-0.09,3.78-0.09,4.93" /><path d="M40.37,25.1c2.57,0.51,5.3,0.41,7.89,0.07c9.42-1.21,25.76-3.67,35.24-4.4c2.04-0.16,4.12-0.14,6.38,0.25" /></g></g><g><g><g><path d="M54.52,27.64c0.04,0.25,0.07,0.64-0.07,1c-0.79,1.94-5.03,6.02-10.95,8.86" /></g></g><g><path d="M74.77,27.33c4.34,1.35,10.96,5.29,12.04,7.38" /></g></g></g><g><g><path d="M47.25,43.02c1.63,0.66,4.52,0.48,6.27,0.27c6.75-0.85,16.44-2.5,24.35-3.53c1.19-0.16,2.44-0.4,3.63-0.11" /></g></g><path d="M55.87,38c1,1,1.21,2.62,1.21,4c0,1.02,0.42,10.75,0.78,20.25" /><path d="M72.62,34c0.88,1,1.17,2.48,0.96,4c-1.33,9.5-1.83,14.25-2.83,22.75" /><g><g><path d="M47.25,53.27c1.89,0.77,4.32,0.55,6.27,0.34c6.54-0.71,17.29-2.41,23.85-3.11c1.36-0.15,2.79-0.43,4.12-0.1" /></g><g><path d="M39,64.64c2.1,0.85,4.96,0.32,7.11,0.12c9.55-0.89,30.31-3.79,39.26-4.48c2.34-0.18,4.82-0.34,7.12,0.22" /></g></g><g><path d="M58.28,65.64c0.06,0.55,0.11,1.52-0.37,2.2c-4.03,5.66-9.2,11.24-20.9,18.77" /><path d="M53.59,77.45c0.67,0.75,0.66,1.32,0.66,2.3c-0.01,7.15-0.12,11.62-0.12,12.88c0,1.31,0.88,1.61,1.94,0.68c4.19-3.68,9.5-9.04,10.82-10.02" /><path d="M79.64,63.94c0.07,0.74,0.04,1.52-0.39,2.13c-2.13,3.06-2.79,3.55-6.98,7.5" /><path d="M61.12,69.25C63.88,70,77.89,80.58,86.15,86.09c2.66,1.78,4.85,2.66,7.91,3.58" /></g></g></g></g><g fill="none" stroke="#000" stroke-width="5" stroke-linecap="round" stroke-linejoin="round"><g><g><path d="M11.75,43.64c1.38,0.7,4.53,0.49,6.01,0.25C23.28,43.01,28.12,42,34,40.75c1.23-0.26,2.62-0.43,3.25-0.24" stroke-dasharray="25.908" stroke-dashoffset="25.908"><animate attributeName="stroke-dashoffset" values="25.908;25.908;0" dur="0.259s" fill="freeze" begin="0s;58cc.click" /></path><path d="M25.87,21c0.88,0.88,1.21,2.12,1.21,3.5c0,7.25,0.03,29.75,0.03,40.5" stroke-dasharray="44.304" stroke-dashoffset="44.304"><animate attributeName="stroke-dashoffset" values="44.304" fill="freeze" begin="58cc.click" /><animate attributeName="stroke-dashoffset" values="44.304;44.304;0" keyTimes="0;0.369;1" dur="0.702s" fill="freeze" begin="0s;58cc.click" /></path><path d="M12,74.86c1.12,0.77,2.88,0.77,4.24-0.25c5.35-3.99,14.31-11.42,19.51-15.6" stroke-dasharray="29.506" stroke-dashoffset="29.506"><animate attributeName="stroke-dashoffset" values="29.506" fill="freeze" begin="58cc.click" /><animate attributeName="stroke-dashoffset" values="29.506;29.506;0" keyTimes="0;0.704;1" dur="0.997s" fill="freeze" begin="0s;58cc.click" /></path></g><g p4:phon="襄V" xmlns:p4="http://kanjivg.tagaini.net"><g><g><g><path d="M63.39,13.25c1.05,1.05,1.35,2.12,1.35,3.59c0,1.16-0.09,3.78-0.09,4.93" stroke-dasharray="8.887" stroke-dashoffset="8.887"><animate attributeName="stroke-dashoffset" values="8.887" fill="freeze" begin="58cc.click" /><animate attributeName="stroke-dashoffset" values="8.887;8.887;0" keyTimes="0;0.918;1" dur="1.086s" fill="freeze" begin="0s;58cc.click" /></path><path d="M40.37,25.1c2.57,0.51,5.3,0.41,7.89,0.07c9.42-1.21,25.76-3.67,35.24-4.4c2.04-0.16,4.12-0.14,6.38,0.25" stroke-dasharray="49.846" stroke-dashoffset="49.846"><animate attributeName="stroke-dashoffset" values="49.846" fill="freeze" begin="58cc.click" /><animate attributeName="stroke-dashoffset" values="49.846;49.846;0" keyTimes="0;0.686;1" dur="1.584s" fill="freeze" begin="0s;58cc.click" /></path></g></g><g><g><g><path d="M54.52,27.64c0.04,0.25,0.07,0.64-0.07,1c-0.79,1.94-5.03,6.02-10.95,8.86" stroke-dasharray="15.298" stroke-dashoffset="15.298"><animate attributeName="stroke-dashoffset" values="15.298" fill="freeze" begin="58cc.click" /><animate attributeName="stroke-dashoffset" values="15.298;15.298;0" keyTimes="0;0.912;1" dur="1.737s" fill="freeze" begin="0s;58cc.click" /></path></g></g><g><path d="M74.77,27.33c4.34,1.35,10.96,5.29,12.04,7.38" stroke-dasharray="14.302" stroke-dashoffset="14.302"><animate attributeName="stroke-dashoffset" values="14.302" fill="freeze" begin="58cc.click" /><animate attributeName="stroke-dashoffset" values="14.302;14.302;0" keyTimes="0;0.924;1" dur="1.88s" fill="freeze" begin="0s;58cc.click" /></path></g></g></g><g><g><path d="M47.25,43.02c1.63,0.66,4.52,0.48,6.27,0.27c6.75-0.85,16.44-2.5,24.35-3.53c1.19-0.16,2.44-0.4,3.63-0.11" stroke-dasharray="34.59" stroke-dashoffset="34.59"><animate attributeName="stroke-dashoffset" values="34.59" fill="freeze" begin="58cc.click" /><animate attributeName="stroke-dashoffset" values="34.59;34.59;0" keyTimes="0;0.845;1" dur="2.226s" fill="freeze" begin="0s;58cc.click" /></path></g></g><path d="M55.87,38c1,1,1.21,2.62,1.21,4c0,1.02,0.42,10.75,0.78,20.25" stroke-dasharray="24.552" stroke-dashoffset="24.552"><animate attributeName="stroke-dashoffset" values="24.552" fill="freeze" begin="58cc.click" /><animate attributeName="stroke-dashoffset" values="24.552;24.552;0" keyTimes="0;0.9;1" dur="2.472s" fill="freeze" begin="0s;58cc.click" /></path><path d="M72.62,34c0.88,1,1.17,2.48,0.96,4c-1.33,9.5-1.83,14.25-2.83,22.75" stroke-dasharray="27.168" stroke-dashoffset="27.168"><animate attributeName="stroke-dashoffset" values="27.168" fill="freeze" begin="58cc.click" /><animate attributeName="stroke-dashoffset" values="27.168;27.168;0" keyTimes="0;0.901;1" dur="2.744s" fill="freeze" begin="0s;58cc.click" /></path><g><g><path d="M47.25,53.27c1.89,0.77,4.32,0.55,6.27,0.34c6.54-0.71,17.29-2.41,23.85-3.11c1.36-0.15,2.79-0.43,4.12-0.1" stroke-dasharray="34.542" stroke-dashoffset="34.542"><animate attributeName="stroke-dashoffset" values="34.542" fill="freeze" begin="58cc.click" /><animate attributeName="stroke-dashoffset" values="34.542;34.542;0" keyTimes="0;0.888;1" dur="3.089s" fill="freeze" begin="0s;58cc.click" /></path></g><g><path d="M39,64.64c2.1,0.85,4.96,0.32,7.11,0.12c9.55-0.89,30.31-3.79,39.26-4.48c2.34-0.18,4.82-0.34,7.12,0.22" stroke-dasharray="53.854" stroke-dashoffset="53.854"><animate attributeName="stroke-dashoffset" values="53.854" fill="freeze" begin="58cc.click" /><animate attributeName="stroke-dashoffset" values="53.854;53.854;0" keyTimes="0;0.851;1" dur="3.628s" fill="freeze" begin="0s;58cc.click" /></path></g></g><g><path d="M58.28,65.64c0.06,0.55,0.11,1.52-0.37,2.2c-4.03,5.66-9.2,11.24-20.9,18.77" stroke-dasharray="30.558" stroke-dashoffset="30.558"><animate attributeName="stroke-dashoffset" values="30.558" fill="freeze" begin="58cc.click" /><animate attributeName="stroke-dashoffset" values="30.558;30.558;0" keyTimes="0;0.922;1" dur="3.934s" fill="freeze" begin="0s;58cc.click" /></path><path d="M53.59,77.45c0.67,0.75,0.66,1.32,0.66,2.3c-0.01,7.15-0.12,11.62-0.12,12.88c0,1.31,0.88,1.61,1.94,0.68c4.19-3.68,9.5-9.04,10.82-10.02" stroke-dasharray="33.018" stroke-dashoffset="33.018"><animate attributeName="stroke-dashoffset" values="33.018" fill="freeze" begin="58cc.click" /><animate attributeName="stroke-dashoffset" values="33.018;33.018;0" keyTimes="0;0.923;1" dur="4.264s" fill="freeze" begin="0s;58cc.click" /></path><path d="M79.64,63.94c0.07,0.74,0.04,1.52-0.39,2.13c-2.13,3.06-2.79,3.55-6.98,7.5" stroke-dasharray="12.487" stroke-dashoffset="12.487"><animate attributeName="stroke-dashoffset" values="12.487" fill="freeze" begin="58cc.click" /><animate attributeName="stroke-dashoffset" values="12.487;12.487;0" keyTimes="0;0.972;1" dur="4.389s" fill="freeze" begin="0s;58cc.click" /></path><path d="M61.12,69.25C63.88,70,77.89,80.58,86.15,86.09c2.66,1.78,4.85,2.66,7.91,3.58" stroke-dasharray="38.92" stroke-dashoffset="38.92"><animate attributeName="stroke-dashoffset" values="38.92" fill="freeze" begin="58cc.click" /><animate attributeName="stroke-dashoffset" values="38.92;38.92;0" keyTimes="0;0.919;1" dur="4.778s" fill="freeze" begin="0s;58cc.click" /></path></g></g></g></g></svg>