<svg xmlns="http://www.w3.org/2000/svg" width="109" height="109" viewBox="0 0 109 109" id="58d7"><g fill="none" stroke="#666" stroke-width="9" stroke-linecap="round" stroke-linejoin="round"><g><g><path d="M10,45.14c0.76,0.38,2.24,0.46,3,0.36c4.82-0.66,16.65-2.89,22-3.5c1.25-0.14,2.62-0.18,3.25,0.01" /><path d="M23.37,18.5c1.09,0.5,1.96,2.23,1.96,3.25c0,7.25,0.03,38.75,0.03,49.5" /><path d="M11.5,77.79c0.72,0.96,2.15,1.46,4.3,0.21c5.97-3.5,16.73-9.75,22.7-13.25" /></g><g><g><g p6:partial xmlns:p6="http://kanjivg.tagaini.net"><g><path d="M44.92,22.23c2.08,0.22,2.67,0.57,4.59,0.43c8.76-0.65,23.76-2.75,32.1-3.18c2.71-0.14,4.56,1.05,4.17,3.23c-0.62,3.45-1.12,6.41-2.58,16.11" /><path d="M37.88,32.65c1.93,0.43,3.44,0.63,5.58,0.43c18.66-1.72,33.89-4.28,48.69-4.92c2.37-0.1,4.29,0.43,5.36,0.65" /><path d="M46.26,42.36c1.04,0.21,3.42,0.33,4.67,0.21c11.93-1.12,20.32-2.21,30.31-3.25c1.66-0.17,2.71,0,3.96,0.22" /></g><g><path d="M64.33,11.25c0.91,0.43,1.63,1.91,1.63,2.8c0,4.77-0.18,30.38-0.18,36.98" /></g><path d="M41.32,52.82c1.27,0.47,3.59,0.56,4.85,0.47c14.33-1.04,31.19-3.15,42.71-3.54c2.11-0.07,3.38,0.22,4.43,0.46" /></g><g><path d="M46.34,59.54c0,4.78-5.62,11.83-7.09,13.19" /><path d="M54.36,58.68c2.55,1.96,4.98,7.36,5.62,10.41" /><path d="M70.25,57.72c2.42,1.79,6.26,7.36,6.87,10.15" /><path d="M86.42,57.71c3.41,2.05,8.81,8.41,9.67,11.6" /></g></g><g><path d="M45.74,75.43c0.49,0.54,1.12,1.12,1.23,1.58c0.83,3.64,1.5,12.69,2.07,19.23" /><path d="M47.72,77.01c8.79-0.75,36.16-3.11,39.35-3.01c1.38,0.04,2.34,0.81,2.51,2.17C89.71,77.09,88,86,86.5,93.73" /><path d="M60.44,77.21c0.2,0.35,0.5,1.57,0.5,2.02c0,5.46,0.56,8.78,0.61,15.77" /><path d="M73.87,75.61c0.38,0.41,0.67,1.12,0.67,1.66c0,5.68-0.19,9.26-0.19,16.78" /><path d="M37.07,96.37c1.12,0.6,3.17,0.7,4.29,0.6c11.65-1,33.95-2.41,55.4-2.57c1.87-0.01,2.99,0.29,3.92,0.58" /></g></g></g></g><g fill="none" stroke="#000" stroke-width="5" stroke-linecap="round" stroke-linejoin="round"><g><g><path d="M10,45.14c0.76,0.38,2.24,0.46,3,0.36c4.82-0.66,16.65-2.89,22-3.5c1.25-0.14,2.62-0.18,3.25,0.01" stroke-dasharray="28.597" stroke-dashoffset="28.597"><animate attributeName="stroke-dashoffset" values="28.597;28.597;0" dur="0.286s" fill="freeze" begin="0s;58d7.click" /></path><path d="M23.37,18.5c1.09,0.5,1.96,2.23,1.96,3.25c0,7.25,0.03,38.75,0.03,49.5" stroke-dasharray="53.451" stroke-dashoffset="53.451"><animate attributeName="stroke-dashoffset" values="53.451" fill="freeze" begin="58d7.click" /><animate attributeName="stroke-dashoffset" values="53.451;53.451;0" keyTimes="0;0.348;1" dur="0.821s" fill="freeze" begin="0s;58d7.click" /></path><path d="M11.5,77.79c0.72,0.96,2.15,1.46,4.3,0.21c5.97-3.5,16.73-9.75,22.7-13.25" stroke-dasharray="31.033" stroke-dashoffset="31.033"><animate attributeName="stroke-dashoffset" values="31.033" fill="freeze" begin="58d7.click" /><animate attributeName="stroke-dashoffset" values="31.033;31.033;0" keyTimes="0;0.726;1" dur="1.131s" fill="freeze" begin="0s;58d7.click" /></path></g><g><g><g p6:partial xmlns:p6="http://kanjivg.tagaini.net"><g><path d="M44.92,22.23c2.08,0.22,2.67,0.57,4.59,0.43c8.76-0.65,23.76-2.75,32.1-3.18c2.71-0.14,4.56,1.05,4.17,3.23c-0.62,3.45-1.12,6.41-2.58,16.11" stroke-dasharray="59.403" stroke-dashoffset="59.403"><animate attributeName="stroke-dashoffset" values="59.403" fill="freeze" begin="58d7.click" /><animate attributeName="stroke-dashoffset" values="59.403;59.403;0" keyTimes="0;0.656;1" dur="1.725s" fill="freeze" begin="0s;58d7.click" /></path><path d="M37.88,32.65c1.93,0.43,3.44,0.63,5.58,0.43c18.66-1.72,33.89-4.28,48.69-4.92c2.37-0.1,4.29,0.43,5.36,0.65" stroke-dasharray="59.988" stroke-dashoffset="59.988"><animate attributeName="stroke-dashoffset" values="59.988" fill="freeze" begin="58d7.click" /><animate attributeName="stroke-dashoffset" values="59.988;59.988;0" keyTimes="0;0.742;1" dur="2.325s" fill="freeze" begin="0s;58d7.click" /></path><path d="M46.26,42.36c1.04,0.21,3.42,0.33,4.67,0.21c11.93-1.12,20.32-2.21,30.31-3.25c1.66-0.17,2.71,0,3.96,0.22" stroke-dasharray="39.152" stroke-dashoffset="39.152"><animate attributeName="stroke-dashoffset" values="39.152" fill="freeze" begin="58d7.click" /><animate attributeName="stroke-dashoffset" values="39.152;39.152;0" keyTimes="0;0.856;1" dur="2.717s" fill="freeze" begin="0s;58d7.click" /></path></g><g><path d="M64.33,11.25c0.91,0.43,1.63,1.91,1.63,2.8c0,4.77-0.18,30.38-0.18,36.98" stroke-dasharray="40.351" stroke-dashoffset="40.351"><animate attributeName="stroke-dashoffset" values="40.351" fill="freeze" begin="58d7.click" /><animate attributeName="stroke-dashoffset" values="40.351;40.351;0" keyTimes="0;0.871;1" dur="3.121s" fill="freeze" begin="0s;58d7.click" /></path></g><path d="M41.32,52.82c1.27,0.47,3.59,0.56,4.85,0.47c14.33-1.04,31.19-3.15,42.71-3.54c2.11-0.07,3.38,0.22,4.43,0.46" stroke-dasharray="52.231" stroke-dashoffset="52.231"><animate attributeName="stroke-dashoffset" values="52.231" fill="freeze" begin="58d7.click" /><animate attributeName="stroke-dashoffset" values="52.231;52.231;0" keyTimes="0;0.857;1" dur="3.643s" fill="freeze" begin="0s;58d7.click" /></path></g><g><path d="M46.34,59.54c0,4.78-5.62,11.83-7.09,13.19" stroke-dasharray="15.248" stroke-dashoffset="15.248"><animate attributeName="stroke-dashoffset" values="15.248" fill="freeze" begin="58d7.click" /><animate attributeName="stroke-dashoffset" values="15.248;15.248;0" keyTimes="0;0.96;1" dur="3.795s" fill="freeze" begin="0s;58d7.click" /></path><path d="M54.36,58.68c2.55,1.96,4.98,7.36,5.62,10.41" stroke-dasharray="12.004" stroke-dashoffset="12.004"><animate attributeName="stroke-dashoffset" values="12.004" fill="freeze" begin="58d7.click" /><animate attributeName="stroke-dashoffset" values="12.004;12.004;0" keyTimes="0;0.969;1" dur="3.915s" fill="freeze" begin="0s;58d7.click" /></path><path d="M70.25,57.72c2.42,1.79,6.26,7.36,6.87,10.15" stroke-dasharray="12.408" stroke-dashoffset="12.408"><animate attributeName="stroke-dashoffset" values="12.408" fill="freeze" begin="58d7.click" /><animate attributeName="stroke-dashoffset" values="12.408;12.408;0" keyTimes="0;0.969;1" dur="4.039s" fill="freeze" begin="0s;58d7.click" /></path><path d="M86.42,57.71c3.41,2.05,8.81,8.41,9.67,11.6" stroke-dasharray="15.312" stroke-dashoffset="15.312"><animate attributeName="stroke-dashoffset" values="15.312" fill="freeze" begin="58d7.click" /><animate attributeName="stroke-dashoffset" values="15.312;15.312;0" keyTimes="0;0.964;1" dur="4.192s" fill="freeze" begin="0s;58d7.click" /></path></g></g><g><path d="M45.74,75.43c0.49,0.54,1.12,1.12,1.23,1.58c0.83,3.64,1.5,12.69,2.07,19.23" stroke-dasharray="21.37" stroke-dashoffset="21.37"><animate attributeName="stroke-dashoffset" values="21.37" fill="freeze" begin="58d7.click" /><animate attributeName="stroke-dashoffset" values="21.37;21.37;0" keyTimes="0;0.951;1" dur="4.406s" fill="freeze" begin="0s;58d7.click" /></path><path d="M47.72,77.01c8.79-0.75,36.16-3.11,39.35-3.01c1.38,0.04,2.34,0.81,2.51,2.17C89.71,77.09,88,86,86.5,93.73" stroke-dasharray="60.964" stroke-dashoffset="60.964"><animate attributeName="stroke-dashoffset" values="60.964" fill="freeze" begin="58d7.click" /><animate attributeName="stroke-dashoffset" values="60.964;60.964;0" keyTimes="0;0.906;1" dur="4.864s" fill="freeze" begin="0s;58d7.click" /></path><path d="M60.44,77.21c0.2,0.35,0.5,1.57,0.5,2.02c0,5.46,0.56,8.78,0.61,15.77" stroke-dasharray="17.877" stroke-dashoffset="17.877"><animate attributeName="stroke-dashoffset" values="17.877" fill="freeze" begin="58d7.click" /><animate attributeName="stroke-dashoffset" values="17.877;17.877;0" keyTimes="0;0.965;1" dur="5.043s" fill="freeze" begin="0s;58d7.click" /></path><path d="M73.87,75.61c0.38,0.41,0.67,1.12,0.67,1.66c0,5.68-0.19,9.26-0.19,16.78" stroke-dasharray="18.608" stroke-dashoffset="18.608"><animate attributeName="stroke-dashoffset" values="18.608" fill="freeze" begin="58d7.click" /><animate attributeName="stroke-dashoffset" values="18.608;18.608;0" keyTimes="0;0.964;1" dur="5.229s" fill="freeze" begin="0s;58d7.click" /></path><path d="M37.07,96.37c1.12,0.6,3.17,0.7,4.29,0.6c11.65-1,33.95-2.41,55.4-2.57c1.87-0.01,2.99,0.29,3.92,0.58" stroke-dasharray="63.832" stroke-dashoffset="63.832"><animate attributeName="stroke-dashoffset" values="63.832" fill="freeze" begin="58d7.click" /><animate attributeName="stroke-dashoffset" values="63.832;63.832;0" keyTimes="0;0.916;1" dur="5.709s" fill="freeze" begin="0s;58d7.click" /></path></g></g></g></g></svg>