<svg xmlns="http://www.w3.org/2000/svg" width="109" height="109" viewBox="0 0 109 109" id="58d7"><g fill="none" stroke="#666" stroke-width="9" stroke-linecap="round" stroke-linejoin="round"><g><g><path d="M10,45.14c0.76,0.38,2.24,0.46,3,0.36c4.82-0.66,16.65-2.89,22-3.5c1.25-0.14,2.62-0.18,3.25,0.01" /><path d="M23.37,18.5c1.09,0.5,1.96,2.23,1.96,3.25c0,7.25,0.03,38.75,0.03,49.5" /><path d="M11.5,77.79c0.72,0.96,2.15,1.46,4.3,0.21c5.97-3.5,16.73-9.75,22.7-13.25" /></g><g><g><g p6:partial xmlns:p6="http://kanjivg.tagaini.net"><g><path d="M44.92,22.23c2.08,0.22,2.67,0.57,4.59,0.43c8.76-0.65,23.76-2.75,32.1-3.18c2.71-0.14,4.56,1.05,4.17,3.23c-0.62,3.45-1.12,6.41-2.58,16.11" /><path d="M37.88,32.65c1.93,0.43,3.44,0.63,5.58,0.43c18.66-1.72,33.89-4.28,48.69-4.92c2.37-0.1,4.29,0.43,5.36,0.65" /><path d="M46.26,42.36c1.04,0.21,3.42,0.33,4.67,0.21c11.93-1.12,20.32-2.21,30.31-3.25c1.66-0.17,2.71,0,3.96,0.22" /></g><g><path d="M64.33,11.25c0.91,0.43,1.63,1.91,1.63,2.8c0,4.77-0.18,30.38-0.18,36.98" /></g><path d="M41.32,52.82c1.27,0.47,3.59,0.56,4.85,0.47c14.33-1.04,31.19-3.15,42.71-3.54c2.11-0.07,3.38,0.22,4.43,0.46" /></g><g><path d="M46.34,59.54c0,4.78-5.62,11.83-7.09,13.19" /><path d="M54.36,58.68c2.55,1.96,4.98,7.36,5.62,10.41" /><path d="M70.25,57.72c2.42,1.79,6.26,7.36,6.87,10.15" /><path d="M86.42,57.71c3.41,2.05,8.81,8.41,9.67,11.6" /></g></g><g><path d="M45.74,75.43c0.49,0.54,1.12,1.12,1.23,1.58c0.83,3.64,1.5,12.69,2.07,19.23" /><path d="M47.72,77.01c8.79-0.75,36.16-3.11,39.35-3.01c1.38,0.04,2.34,0.81,2.51,2.17C89.71,77.09,88,86,86.5,93.73" /><path d="M60.44,77.21c0.2,0.35,0.5,1.57,0.5,2.02c0,5.46,0.56,8.78,0.61,15.77" /><path d="M73.87,75.61c0.38,0.41,0.67,1.12,0.67,1.66c0,5.68-0.19,9.26-0.19,16.78" /><path d="M37.07,96.37c1.12,0.6,3.17,0.7,4.29,0.6c11.65-1,33.95-2.41,55.4-2.57c1.87-0.01,2.99,0.29,3.92,0.58" /></g></g></g></g><g fill="none" stroke="#000" stroke-width="5" stroke-linecap="round" stroke-linejoin="round"><g><g><path d="M10,45.14c0.76,0.38,2.24,0.46,3,0.36c4.82-0.66,16.65-2.89,22-3.5c1.25-0.14,2.62-0.18,3.25,0.01" stroke-dasharray="28.6" stroke-dashoffset="28.6"><animate id="0" attributeName="stroke-dashoffset" values="28.6;0" dur="0.29s" fill="freeze" begin="0s;58d7.click" /></path><path d="M23.37,18.5c1.09,0.5,1.96,2.23,1.96,3.25c0,7.25,0.03,38.75,0.03,49.5" stroke-dasharray="53.45" stroke-dashoffset="53.45"><animate attributeName="stroke-dashoffset" values="53.45" fill="freeze" begin="58d7.click" /><animate id="1" attributeName="stroke-dashoffset" values="53.45;0" dur="0.53s" fill="freeze" begin="0.end" /></path><path d="M11.5,77.79c0.72,0.96,2.15,1.46,4.3,0.21c5.97-3.5,16.73-9.75,22.7-13.25" stroke-dasharray="31.03" stroke-dashoffset="31.03"><animate attributeName="stroke-dashoffset" values="31.03" fill="freeze" begin="58d7.click" /><animate id="2" attributeName="stroke-dashoffset" values="31.03;0" dur="0.31s" fill="freeze" begin="1.end" /></path></g><g><g><g p6:partial xmlns:p6="http://kanjivg.tagaini.net"><g><path d="M44.92,22.23c2.08,0.22,2.67,0.57,4.59,0.43c8.76-0.65,23.76-2.75,32.1-3.18c2.71-0.14,4.56,1.05,4.17,3.23c-0.62,3.45-1.12,6.41-2.58,16.11" stroke-dasharray="59.4" stroke-dashoffset="59.4"><animate attributeName="stroke-dashoffset" values="59.4" fill="freeze" begin="58d7.click" /><animate id="3" attributeName="stroke-dashoffset" values="59.4;0" dur="0.59s" fill="freeze" begin="2.end" /></path><path d="M37.88,32.65c1.93,0.43,3.44,0.63,5.58,0.43c18.66-1.72,33.89-4.28,48.69-4.92c2.37-0.1,4.29,0.43,5.36,0.65" stroke-dasharray="59.99" stroke-dashoffset="59.99"><animate attributeName="stroke-dashoffset" values="59.99" fill="freeze" begin="58d7.click" /><animate id="4" attributeName="stroke-dashoffset" values="59.99;0" dur="0.6s" fill="freeze" begin="3.end" /></path><path d="M46.26,42.36c1.04,0.21,3.42,0.33,4.67,0.21c11.93-1.12,20.32-2.21,30.31-3.25c1.66-0.17,2.71,0,3.96,0.22" stroke-dasharray="39.15" stroke-dashoffset="39.15"><animate attributeName="stroke-dashoffset" values="39.15" fill="freeze" begin="58d7.click" /><animate id="5" attributeName="stroke-dashoffset" values="39.15;0" dur="0.39s" fill="freeze" begin="4.end" /></path></g><g><path d="M64.33,11.25c0.91,0.43,1.63,1.91,1.63,2.8c0,4.77-0.18,30.38-0.18,36.98" stroke-dasharray="40.35" stroke-dashoffset="40.35"><animate attributeName="stroke-dashoffset" values="40.35" fill="freeze" begin="58d7.click" /><animate id="6" attributeName="stroke-dashoffset" values="40.35;0" dur="0.4s" fill="freeze" begin="5.end" /></path></g><path d="M41.32,52.82c1.27,0.47,3.59,0.56,4.85,0.47c14.33-1.04,31.19-3.15,42.71-3.54c2.11-0.07,3.38,0.22,4.43,0.46" stroke-dasharray="52.23" stroke-dashoffset="52.23"><animate attributeName="stroke-dashoffset" values="52.23" fill="freeze" begin="58d7.click" /><animate id="7" attributeName="stroke-dashoffset" values="52.23;0" dur="0.52s" fill="freeze" begin="6.end" /></path></g><g><path d="M46.34,59.54c0,4.78-5.62,11.83-7.09,13.19" stroke-dasharray="15.25" stroke-dashoffset="15.25"><animate attributeName="stroke-dashoffset" values="15.25" fill="freeze" begin="58d7.click" /><animate id="8" attributeName="stroke-dashoffset" values="15.25;0" dur="0.15s" fill="freeze" begin="7.end" /></path><path d="M54.36,58.68c2.55,1.96,4.98,7.36,5.62,10.41" stroke-dasharray="12" stroke-dashoffset="12"><animate attributeName="stroke-dashoffset" values="12" fill="freeze" begin="58d7.click" /><animate id="9" attributeName="stroke-dashoffset" values="12;0" dur="0.12s" fill="freeze" begin="8.end" /></path><path d="M70.25,57.72c2.42,1.79,6.26,7.36,6.87,10.15" stroke-dasharray="12.41" stroke-dashoffset="12.41"><animate attributeName="stroke-dashoffset" values="12.41" fill="freeze" begin="58d7.click" /><animate id="10" attributeName="stroke-dashoffset" values="12.41;0" dur="0.12s" fill="freeze" begin="9.end" /></path><path d="M86.42,57.71c3.41,2.05,8.81,8.41,9.67,11.6" stroke-dasharray="15.31" stroke-dashoffset="15.31"><animate attributeName="stroke-dashoffset" values="15.31" fill="freeze" begin="58d7.click" /><animate id="11" attributeName="stroke-dashoffset" values="15.31;0" dur="0.15s" fill="freeze" begin="10.end" /></path></g></g><g><path d="M45.74,75.43c0.49,0.54,1.12,1.12,1.23,1.58c0.83,3.64,1.5,12.69,2.07,19.23" stroke-dasharray="21.37" stroke-dashoffset="21.37"><animate attributeName="stroke-dashoffset" values="21.37" fill="freeze" begin="58d7.click" /><animate id="12" attributeName="stroke-dashoffset" values="21.37;0" dur="0.21s" fill="freeze" begin="11.end" /></path><path d="M47.72,77.01c8.79-0.75,36.16-3.11,39.35-3.01c1.38,0.04,2.34,0.81,2.51,2.17C89.71,77.09,88,86,86.5,93.73" stroke-dasharray="60.96" stroke-dashoffset="60.96"><animate attributeName="stroke-dashoffset" values="60.96" fill="freeze" begin="58d7.click" /><animate id="13" attributeName="stroke-dashoffset" values="60.96;0" dur="0.46s" fill="freeze" begin="12.end" /></path><path d="M60.44,77.21c0.2,0.35,0.5,1.57,0.5,2.02c0,5.46,0.56,8.78,0.61,15.77" stroke-dasharray="17.88" stroke-dashoffset="17.88"><animate attributeName="stroke-dashoffset" values="17.88" fill="freeze" begin="58d7.click" /><animate id="14" attributeName="stroke-dashoffset" values="17.88;0" dur="0.18s" fill="freeze" begin="13.end" /></path><path d="M73.87,75.61c0.38,0.41,0.67,1.12,0.67,1.66c0,5.68-0.19,9.26-0.19,16.78" stroke-dasharray="18.61" stroke-dashoffset="18.61"><animate attributeName="stroke-dashoffset" values="18.61" fill="freeze" begin="58d7.click" /><animate id="15" attributeName="stroke-dashoffset" values="18.61;0" dur="0.19s" fill="freeze" begin="14.end" /></path><path d="M37.07,96.37c1.12,0.6,3.17,0.7,4.29,0.6c11.65-1,33.95-2.41,55.4-2.57c1.87-0.01,2.99,0.29,3.92,0.58" stroke-dasharray="63.83" stroke-dashoffset="63.83"><animate attributeName="stroke-dashoffset" values="63.83" fill="freeze" begin="58d7.click" /><animate id="16" attributeName="stroke-dashoffset" values="63.83;0" dur="0.48s" fill="freeze" begin="15.end" /></path></g></g></g></g></svg>