<svg xmlns="http://www.w3.org/2000/svg" viewBox="0 0 109 109" id="58e4"><g fill="none" stroke="#666" stroke-width="6" stroke-linecap="round" stroke-linejoin="round"><g><g><path d="M10.5,41.84c0.69,0.4,2.05,0.47,2.75,0.38c5.75-0.72,16.62-3.04,21.52-3.68c1.15-0.15,2.4-0.19,2.98,0.01" /><path d="M23.37,13.5c1.09,0.5,1.96,2.23,1.96,3.25c0,7.25,0.03,42.25,0.03,53" /><path d="M11.5,75.28c0.71,0.97,2.13,1.49,4.26,0.21c5.92-3.56,16.57-9.92,22.49-13.49" /></g><g><g><g><path d="M63.55,10c0.58,0.39,1.54,1.74,1.54,2.64c0,1.48-0.08,4.76-0.08,6.38" /><path d="M39.28,21.36c0.98,0.11,3.2,0.73,4.15,0.61c10.57-1.29,34.19-4.47,44.6-4.8c1.61-0.05,2.43,0.05,3.63,0.78" /></g></g><g><path d="M45.1,29.41c0.25,0.22,0.53,0.39,0.61,0.68c0.82,2.9,1.48,7.72,2.07,11.66" /><path d="M46.64,30.9c5.08-1.14,10.76-2.38,13.67-2.67c1.06-0.11,1.7,0.62,1.55,1.24c-0.63,2.56-0.87,4.57-1.8,8.11" /><path d="M47.9,39.82c3.41-0.33,8.53-1.42,13.22-1.92" /></g><g><path d="M68,26.64c0.25,0.21,0.51,0.39,0.62,0.66c0.87,2.11,1.49,7.92,2.08,11.7" /><path d="M69.56,28.07c5.11-1.1,12.98-2.31,15.91-2.59c1.07-0.1,1.71,0.6,1.56,1.19c-0.63,2.46-1.79,4.88-2.73,8.29" /><path d="M70.82,37.15c3.44-0.31,10.65-1.4,15.38-1.89" /></g><g><g><path d="M46.7,49.69c0.73,0.27,2.83,0.32,3.56,0.27c6.64-0.51,24.77-2.97,31.91-3.56c1.21-0.1,1.94,0.13,2.55,0.26" /></g></g><path d="M55.52,43.44c1.11,0.46,1.62,2.5,1.62,3.46c0,3.1,0.8,12.1,0.8,19.51" /><path d="M72.25,42.25c0.9,0.91,0.83,2,0.73,3.42c-0.39,5.58,0.42,11.83-0.12,18.96" /><g><g><path d="M45.82,57.55c0.84,0.36,3.27,0.44,4.12,0.36c7.68-0.7,24.13-2.52,32.38-3.33c1.4-0.14,2.24,0.17,2.95,0.35" /></g><g><path d="M38.98,68.17c1.23,0.35,3.48,0.49,4.71,0.35c11.24-1.27,35.24-4.77,46.51-4.95c2.04-0.03,3.28,0.17,4.3,0.34" /></g></g><g><path d="M60.29,67.64c0.08,0.48,0.3,1.28-0.15,1.93c-2.9,4.19-12.32,12.84-26.83,19.46" /><path d="M52.69,80.15c0.36,0.29,0.76,1.58,0.76,2.08c-0.02,6.4-0.25,13.93-0.25,15.02c0,1.08,0.9,1.7,2.04,0.89s9.6-8.39,12.04-10.23" /><path d="M81.28,68.2c0.02,0.24-0.25,1.67-0.39,1.98c-0.87,1.99-3.08,4.34-7.52,8.31" /><path d="M63.83,72.41c1.28,0.7,3.34,2.66,3.69,2.95c5.25,4.38,18,15.55,21.54,18.12c1.33,0.97,2.48,1.39,3.81,1.67" /></g></g></g></g><g fill="none" stroke="#000" stroke-width="3" stroke-linecap="round" stroke-linejoin="round"><path d="M10.5,41.84c0.69,0.4,2.05,0.47,2.75,0.38c5.75-0.72,16.62-3.04,21.52-3.68c1.15-0.15,2.4-0.19,2.98,0.01" stroke-dasharray="27.646" stroke-dashoffset="27.646"><animate attributeName="stroke-dashoffset" values="27.646;27.646;0" dur="0.276s" fill="freeze" begin="0s;58e4.click" /></path><path d="M23.37,13.5c1.09,0.5,1.96,2.23,1.96,3.25c0,7.25,0.03,42.25,0.03,53" stroke-dasharray="56.951" stroke-dashoffset="56.951"><animate attributeName="stroke-dashoffset" values="56.951" fill="freeze" begin="58e4.click" /><animate attributeName="stroke-dashoffset" values="56.951;56.951;0" keyTimes="0;0.326;1" dur="0.846s" fill="freeze" begin="0s;58e4.click" /></path><path d="M11.5,75.28c0.71,0.97,2.13,1.49,4.26,0.21c5.92-3.56,16.57-9.92,22.49-13.49" stroke-dasharray="30.953" stroke-dashoffset="30.953"><animate attributeName="stroke-dashoffset" values="30.953" fill="freeze" begin="58e4.click" /><animate attributeName="stroke-dashoffset" values="30.953;30.953;0" keyTimes="0;0.732;1" dur="1.156s" fill="freeze" begin="0s;58e4.click" /></path><path d="M63.55,10c0.58,0.39,1.54,1.74,1.54,2.64c0,1.48-0.08,4.76-0.08,6.38" stroke-dasharray="9.518" stroke-dashoffset="9.518"><animate attributeName="stroke-dashoffset" values="9.518" fill="freeze" begin="58e4.click" /><animate attributeName="stroke-dashoffset" values="9.518;9.518;0" keyTimes="0;0.859;1" dur="1.346s" fill="freeze" begin="0s;58e4.click" /></path><path d="M39.28,21.36c0.98,0.11,3.2,0.73,4.15,0.61c10.57-1.29,34.19-4.47,44.6-4.8c1.61-0.05,2.43,0.05,3.63,0.78" stroke-dasharray="52.856" stroke-dashoffset="52.856"><animate attributeName="stroke-dashoffset" values="52.856" fill="freeze" begin="58e4.click" /><animate attributeName="stroke-dashoffset" values="52.856;52.856;0" keyTimes="0;0.718;1" dur="1.875s" fill="freeze" begin="0s;58e4.click" /></path><path d="M45.1,29.41c0.25,0.22,0.53,0.39,0.61,0.68c0.82,2.9,1.48,7.72,2.07,11.66" stroke-dasharray="12.778" stroke-dashoffset="12.778"><animate attributeName="stroke-dashoffset" values="12.778" fill="freeze" begin="58e4.click" /><animate attributeName="stroke-dashoffset" values="12.778;12.778;0" keyTimes="0;0.88;1" dur="2.131s" fill="freeze" begin="0s;58e4.click" /></path><path d="M46.64,30.9c5.08-1.14,10.76-2.38,13.67-2.67c1.06-0.11,1.7,0.62,1.55,1.24c-0.63,2.56-0.87,4.57-1.8,8.11" stroke-dasharray="24.556" stroke-dashoffset="24.556"><animate attributeName="stroke-dashoffset" values="24.556" fill="freeze" begin="58e4.click" /><animate attributeName="stroke-dashoffset" values="24.556;24.556;0" keyTimes="0;0.897;1" dur="2.377s" fill="freeze" begin="0s;58e4.click" /></path><path d="M47.9,39.82c3.41-0.33,8.53-1.42,13.22-1.92" stroke-dasharray="13.362" stroke-dashoffset="13.362"><animate attributeName="stroke-dashoffset" values="13.362" fill="freeze" begin="58e4.click" /><animate attributeName="stroke-dashoffset" values="13.362;13.362;0" keyTimes="0;0.899;1" dur="2.644s" fill="freeze" begin="0s;58e4.click" /></path><path d="M68,26.64c0.25,0.21,0.51,0.39,0.62,0.66c0.87,2.11,1.49,7.92,2.08,11.7" stroke-dasharray="12.817" stroke-dashoffset="12.817"><animate attributeName="stroke-dashoffset" values="12.817" fill="freeze" begin="58e4.click" /><animate attributeName="stroke-dashoffset" values="12.817;12.817;0" keyTimes="0;0.912;1" dur="2.9s" fill="freeze" begin="0s;58e4.click" /></path><path d="M69.56,28.07c5.11-1.1,12.98-2.31,15.91-2.59c1.07-0.1,1.71,0.6,1.56,1.19c-0.63,2.46-1.79,4.88-2.73,8.29" stroke-dasharray="27.136" stroke-dashoffset="27.136"><animate attributeName="stroke-dashoffset" values="27.136" fill="freeze" begin="58e4.click" /><animate attributeName="stroke-dashoffset" values="27.136;27.136;0" keyTimes="0;0.915;1" dur="3.171s" fill="freeze" begin="0s;58e4.click" /></path><path d="M70.82,37.15c3.44-0.31,10.65-1.4,15.38-1.89" stroke-dasharray="15.497" stroke-dashoffset="15.497"><animate attributeName="stroke-dashoffset" values="15.497" fill="freeze" begin="58e4.click" /><animate attributeName="stroke-dashoffset" values="15.497;15.497;0" keyTimes="0;0.953;1" dur="3.326s" fill="freeze" begin="0s;58e4.click" /></path><path d="M46.7,49.69c0.73,0.27,2.83,0.32,3.56,0.27c6.64-0.51,24.77-2.97,31.91-3.56c1.21-0.1,1.94,0.13,2.55,0.26" stroke-dasharray="38.271" stroke-dashoffset="38.271"><animate attributeName="stroke-dashoffset" values="38.271" fill="freeze" begin="58e4.click" /><animate attributeName="stroke-dashoffset" values="38.271;38.271;0" keyTimes="0;0.897;1" dur="3.709s" fill="freeze" begin="0s;58e4.click" /></path><path d="M55.52,43.44c1.11,0.46,1.62,2.5,1.62,3.46c0,3.1,0.8,12.1,0.8,19.51" stroke-dasharray="23.519" stroke-dashoffset="23.519"><animate attributeName="stroke-dashoffset" values="23.519" fill="freeze" begin="58e4.click" /><animate attributeName="stroke-dashoffset" values="23.519;23.519;0" keyTimes="0;0.94;1" dur="3.944s" fill="freeze" begin="0s;58e4.click" /></path><path d="M72.25,42.25c0.9,0.91,0.83,2,0.73,3.42c-0.39,5.58,0.42,11.83-0.12,18.96" stroke-dasharray="22.596" stroke-dashoffset="22.596"><animate attributeName="stroke-dashoffset" values="22.596" fill="freeze" begin="58e4.click" /><animate attributeName="stroke-dashoffset" values="22.596;22.596;0" keyTimes="0;0.946;1" dur="4.17s" fill="freeze" begin="0s;58e4.click" /></path><path d="M45.82,57.55c0.84,0.36,3.27,0.44,4.12,0.36c7.68-0.7,24.13-2.52,32.38-3.33c1.4-0.14,2.24,0.17,2.95,0.35" stroke-dasharray="39.702" stroke-dashoffset="39.702"><animate attributeName="stroke-dashoffset" values="39.702" fill="freeze" begin="58e4.click" /><animate attributeName="stroke-dashoffset" values="39.702;39.702;0" keyTimes="0;0.913;1" dur="4.567s" fill="freeze" begin="0s;58e4.click" /></path><path d="M38.98,68.17c1.23,0.35,3.48,0.49,4.71,0.35c11.24-1.27,35.24-4.77,46.51-4.95c2.04-0.03,3.28,0.17,4.3,0.34" stroke-dasharray="55.854" stroke-dashoffset="55.854"><animate attributeName="stroke-dashoffset" values="55.854" fill="freeze" begin="58e4.click" /><animate attributeName="stroke-dashoffset" values="55.854;55.854;0" keyTimes="0;0.891;1" dur="5.126s" fill="freeze" begin="0s;58e4.click" /></path><path d="M60.29,67.64c0.08,0.48,0.3,1.28-0.15,1.93c-2.9,4.19-12.32,12.84-26.83,19.46" stroke-dasharray="35.437" stroke-dashoffset="35.437"><animate attributeName="stroke-dashoffset" values="35.437" fill="freeze" begin="58e4.click" /><animate attributeName="stroke-dashoffset" values="35.437;35.437;0" keyTimes="0;0.935;1" dur="5.48s" fill="freeze" begin="0s;58e4.click" /></path><path d="M52.69,80.15c0.36,0.29,0.76,1.58,0.76,2.08c-0.02,6.4-0.25,13.93-0.25,15.02c0,1.08,0.9,1.7,2.04,0.89s9.6-8.39,12.04-10.23" stroke-dasharray="35.987" stroke-dashoffset="35.987"><animate attributeName="stroke-dashoffset" values="35.987" fill="freeze" begin="58e4.click" /><animate attributeName="stroke-dashoffset" values="35.987;35.987;0" keyTimes="0;0.938;1" dur="5.84s" fill="freeze" begin="0s;58e4.click" /></path><path d="M81.28,68.2c0.02,0.24-0.25,1.67-0.39,1.98c-0.87,1.99-3.08,4.34-7.52,8.31" stroke-dasharray="13.299" stroke-dashoffset="13.299"><animate attributeName="stroke-dashoffset" values="13.299" fill="freeze" begin="58e4.click" /><animate attributeName="stroke-dashoffset" values="13.299;13.299;0" keyTimes="0;0.956;1" dur="6.106s" fill="freeze" begin="0s;58e4.click" /></path><path d="M63.83,72.41c1.28,0.7,3.34,2.66,3.69,2.95c5.25,4.38,18,15.55,21.54,18.12c1.33,0.97,2.48,1.39,3.81,1.67" stroke-dasharray="37.079" stroke-dashoffset="37.079"><animate attributeName="stroke-dashoffset" values="37.079" fill="freeze" begin="58e4.click" /><animate attributeName="stroke-dashoffset" values="37.079;37.079;0" keyTimes="0;0.943;1" dur="6.477s" fill="freeze" begin="0s;58e4.click" /></path></g></svg>