<svg xmlns="http://www.w3.org/2000/svg" width="109" height="109" viewBox="0 0 109 109" id="590f"><g fill="none" stroke="#666" stroke-width="6" stroke-linecap="round" stroke-linejoin="round"><g><g><g><path d="M19.75,17.56c2.06,0.37,5.85,0.54,7.9,0.37c16.1-1.31,35.23-3.18,51.51-3.76c3.43-0.12,5.5,0.18,7.21,0.36" /></g><g><path d="M51.24,18.88c0.26,1,0.13,2-0.12,2.58C50,24.04,49,25.66,46.25,28" /><g><path d="M35.25,29.57c0.96,0.96,1.46,1.8,1.46,2.98c0,0.6-0.1,13.36-0.09,21.19c0,3.31,0.03,5.75,0.09,6" /><path d="M37.77,31.62c7.99-1.02,29.58-3.88,31.4-3.95c2.55-0.11,4.33,0.83,4.34,3.39c0,0.9,0.01,12.2,0.01,21.69c0,1.49,0,2.95,0,4.32" /><path d="M37.89,39.64c7.86-0.76,28.11-2.76,34.79-3.17" /><path d="M37.91,47.78c10.21-1.03,25.21-2.41,34.37-3.1" /><path d="M38.23,57.09c9.27-0.84,25.52-2.59,33.82-3.02" /></g></g></g><g><path d="M47.01,59.25c0.24,1.5-0.01,2.75-1,4.14c-3.62,5.1-12.51,15.11-24.34,20.55" /><path d="M48.22,66.14c1.28,0.24,2.26,0.12,3.37-0.08c4.42-0.81,6.75-1.76,12.31-2.58c3.81-0.57,3.9,1.65,2.92,3.18C61.47,75.07,40.75,92.5,17.25,98.5" /><path d="M40.75,73.72c5.25-0.22,31,16.91,41.72,20.99c2.58,0.98,4.57,1.66,7.03,1.99" /></g></g></g><g fill="none" stroke="#000" stroke-width="3" stroke-linecap="round" stroke-linejoin="round"><path d="M19.75,17.56c2.06,0.37,5.85,0.54,7.9,0.37c16.1-1.31,35.23-3.18,51.51-3.76c3.43-0.12,5.5,0.18,7.21,0.36" stroke-dasharray="66.804" stroke-dashoffset="66.804"><animate attributeName="stroke-dashoffset" values="66.804;66.804;0" dur="0.502s" fill="freeze" begin="0s;590f.click" /></path><path d="M51.24,18.88c0.26,1,0.13,2-0.12,2.58C50,24.04,49,25.66,46.25,28" stroke-dasharray="10.871" stroke-dashoffset="10.871"><animate attributeName="stroke-dashoffset" values="10.871" fill="freeze" begin="590f.click" /><animate attributeName="stroke-dashoffset" values="10.871;10.871;0" keyTimes="0;0.822;1" dur="0.611s" fill="freeze" begin="0s;590f.click" /></path><path d="M35.25,29.57c0.96,0.96,1.46,1.8,1.46,2.98c0,0.6-0.1,13.36-0.09,21.19c0,3.31,0.03,5.75,0.09,6" stroke-dasharray="30.612" stroke-dashoffset="30.612"><animate attributeName="stroke-dashoffset" values="30.612" fill="freeze" begin="590f.click" /><animate attributeName="stroke-dashoffset" values="30.612;30.612;0" keyTimes="0;0.666;1" dur="0.917s" fill="freeze" begin="0s;590f.click" /></path><path d="M37.77,31.62c7.99-1.02,29.58-3.88,31.4-3.95c2.55-0.11,4.33,0.83,4.34,3.39c0,0.9,0.01,12.2,0.01,21.69c0,1.49,0,2.95,0,4.32" stroke-dasharray="63.997" stroke-dashoffset="63.997"><animate attributeName="stroke-dashoffset" values="63.997" fill="freeze" begin="590f.click" /><animate attributeName="stroke-dashoffset" values="63.997;63.997;0" keyTimes="0;0.656;1" dur="1.398s" fill="freeze" begin="0s;590f.click" /></path><path d="M37.89,39.64c7.86-0.76,28.11-2.76,34.79-3.17" stroke-dasharray="34.936" stroke-dashoffset="34.936"><animate attributeName="stroke-dashoffset" values="34.936" fill="freeze" begin="590f.click" /><animate attributeName="stroke-dashoffset" values="34.936;34.936;0" keyTimes="0;0.8;1" dur="1.747s" fill="freeze" begin="0s;590f.click" /></path><path d="M37.91,47.78c10.21-1.03,25.21-2.41,34.37-3.1" stroke-dasharray="34.511" stroke-dashoffset="34.511"><animate attributeName="stroke-dashoffset" values="34.511" fill="freeze" begin="590f.click" /><animate attributeName="stroke-dashoffset" values="34.511;34.511;0" keyTimes="0;0.835;1" dur="2.092s" fill="freeze" begin="0s;590f.click" /></path><path d="M38.23,57.09c9.27-0.84,25.52-2.59,33.82-3.02" stroke-dasharray="33.958" stroke-dashoffset="33.958"><animate attributeName="stroke-dashoffset" values="33.958" fill="freeze" begin="590f.click" /><animate attributeName="stroke-dashoffset" values="33.958;33.958;0" keyTimes="0;0.86;1" dur="2.432s" fill="freeze" begin="0s;590f.click" /></path><path d="M47.01,59.25c0.24,1.5-0.01,2.75-1,4.14c-3.62,5.1-12.51,15.11-24.34,20.55" stroke-dasharray="36.567" stroke-dashoffset="36.567"><animate attributeName="stroke-dashoffset" values="36.567" fill="freeze" begin="590f.click" /><animate attributeName="stroke-dashoffset" values="36.567;36.567;0" keyTimes="0;0.869;1" dur="2.798s" fill="freeze" begin="0s;590f.click" /></path><path d="M48.22,66.14c1.28,0.24,2.26,0.12,3.37-0.08c4.42-0.81,6.75-1.76,12.31-2.58c3.81-0.57,3.9,1.65,2.92,3.18C61.47,75.07,40.75,92.5,17.25,98.5" stroke-dasharray="81.956" stroke-dashoffset="81.956"><animate attributeName="stroke-dashoffset" values="81.956" fill="freeze" begin="590f.click" /><animate attributeName="stroke-dashoffset" values="81.956;81.956;0" keyTimes="0;0.82;1" dur="3.414s" fill="freeze" begin="0s;590f.click" /></path><path d="M40.75,73.72c5.25-0.22,31,16.91,41.72,20.99c2.58,0.98,4.57,1.66,7.03,1.99" stroke-dasharray="54.163" stroke-dashoffset="54.163"><animate attributeName="stroke-dashoffset" values="54.163" fill="freeze" begin="590f.click" /><animate attributeName="stroke-dashoffset" values="54.163;54.163;0" keyTimes="0;0.863;1" dur="3.956s" fill="freeze" begin="0s;590f.click" /></path></g></svg>