<svg xmlns="http://www.w3.org/2000/svg" width="109" height="109" viewBox="0 0 109 109" id="5955"><g fill="none" stroke="#666" stroke-width="9" stroke-linecap="round" stroke-linejoin="round"><g><g><g><path d="M51.78,11.25c0.89,0.34,2.35,2.17,2.35,2.86c0,2.52-0.28,6.72-0.12,8.86" /><path d="M20.27,24.71c1.29,0.06,4.25,0.42,5.51,0.33c10.17-0.69,46.76-3.25,59.67-3.43c2.13-0.03,3.22,0.03,4.81,0.42" /></g><g><g><path d="M46.91,25.98c0.55,0.91,0.97,1.64,0.83,2.77C46.5,38.75,43.5,52,35.83,57.5" /></g><g><path d="M62.26,24.81c0.78,0.52,1.38,2.12,1.38,3.84c0,9.99-0.2,19.21-0.2,22.02c0,5.88-2.45,3.83-6.37,0.14" /></g><path d="M35.01,32.4c0.05,0.43,0.3,1.14-0.1,1.71c-3.03,4.43-8.69,10.86-17.11,16.37" /><path d="M72.33,33.09c5.84,2.75,15.09,11.3,16.55,15.58" /></g></g><g><path d="M18.8,68.38c1.29,0.41,4.72,0.88,7.45,0.7c18.48-1.21,42.75-3.63,59.34-4.21c2.85-0.1,5.15-0.05,7.72,0.27" /><path d="M52.35,55.12c0.58,0.63,0.89,1.36,0.87,2.73c-0.28,23.66-13.47,37.4-37.38,43.4" /><path d="M53.29,66.55c7.71,7.27,25.7,25.78,33.4,30.64c2.62,1.65,3.53,1.9,4.72,2.06" /></g></g></g><g fill="none" stroke="#000" stroke-width="5" stroke-linecap="round" stroke-linejoin="round"><path d="M51.78,11.25c0.89,0.34,2.35,2.17,2.35,2.86c0,2.52-0.28,6.72-0.12,8.86" stroke-dasharray="12.67" stroke-dashoffset="12.67"><animate attributeName="stroke-dashoffset" values="12.67;12.67;0" dur="0.127s" fill="freeze" begin="0s;5955.click" /></path><path d="M20.27,24.71c1.29,0.06,4.25,0.42,5.51,0.33c10.17-0.69,46.76-3.25,59.67-3.43c2.13-0.03,3.22,0.03,4.81,0.42" stroke-dasharray="70.141" stroke-dashoffset="70.141"><animate attributeName="stroke-dashoffset" values="70.141" fill="freeze" begin="5955.click" /><animate attributeName="stroke-dashoffset" values="70.141;70.141;0" keyTimes="0;0.194;1" dur="0.654s" fill="freeze" begin="0s;5955.click" /></path><path d="M46.91,25.98c0.55,0.91,0.97,1.64,0.83,2.77C46.5,38.75,43.5,52,35.83,57.5" stroke-dasharray="34.868" stroke-dashoffset="34.868"><animate attributeName="stroke-dashoffset" values="34.868" fill="freeze" begin="5955.click" /><animate attributeName="stroke-dashoffset" values="34.868;34.868;0" keyTimes="0;0.652;1" dur="1.003s" fill="freeze" begin="0s;5955.click" /></path><path d="M62.26,24.81c0.78,0.52,1.38,2.12,1.38,3.84c0,9.99-0.2,19.21-0.2,22.02c0,5.88-2.45,3.83-6.37,0.14" stroke-dasharray="36.748" stroke-dashoffset="36.748"><animate attributeName="stroke-dashoffset" values="36.748" fill="freeze" begin="5955.click" /><animate attributeName="stroke-dashoffset" values="36.748;36.748;0" keyTimes="0;0.732;1" dur="1.37s" fill="freeze" begin="0s;5955.click" /></path><path d="M35.01,32.4c0.05,0.43,0.3,1.14-0.1,1.71c-3.03,4.43-8.69,10.86-17.11,16.37" stroke-dasharray="25.588" stroke-dashoffset="25.588"><animate attributeName="stroke-dashoffset" values="25.588" fill="freeze" begin="5955.click" /><animate attributeName="stroke-dashoffset" values="25.588;25.588;0" keyTimes="0;0.843;1" dur="1.626s" fill="freeze" begin="0s;5955.click" /></path><path d="M72.33,33.09c5.84,2.75,15.09,11.3,16.55,15.58" stroke-dasharray="23.062" stroke-dashoffset="23.062"><animate attributeName="stroke-dashoffset" values="23.062" fill="freeze" begin="5955.click" /><animate attributeName="stroke-dashoffset" values="23.062;23.062;0" keyTimes="0;0.876;1" dur="1.857s" fill="freeze" begin="0s;5955.click" /></path><path d="M18.8,68.38c1.29,0.41,4.72,0.88,7.45,0.7c18.48-1.21,42.75-3.63,59.34-4.21c2.85-0.1,5.15-0.05,7.72,0.27" stroke-dasharray="74.739" stroke-dashoffset="74.739"><animate attributeName="stroke-dashoffset" values="74.739" fill="freeze" begin="5955.click" /><animate attributeName="stroke-dashoffset" values="74.739;74.739;0" keyTimes="0;0.768;1" dur="2.419s" fill="freeze" begin="0s;5955.click" /></path><path d="M52.35,55.12c0.58,0.63,0.89,1.36,0.87,2.73c-0.28,23.66-13.47,37.4-37.38,43.4" stroke-dasharray="65.484" stroke-dashoffset="65.484"><animate attributeName="stroke-dashoffset" values="65.484" fill="freeze" begin="5955.click" /><animate attributeName="stroke-dashoffset" values="65.484;65.484;0" keyTimes="0;0.831;1" dur="2.911s" fill="freeze" begin="0s;5955.click" /></path><path d="M53.29,66.55c7.71,7.27,25.7,25.78,33.4,30.64c2.62,1.65,3.53,1.9,4.72,2.06" stroke-dasharray="50.568" stroke-dashoffset="50.568"><animate attributeName="stroke-dashoffset" values="50.568" fill="freeze" begin="5955.click" /><animate attributeName="stroke-dashoffset" values="50.568;50.568;0" keyTimes="0;0.852;1" dur="3.417s" fill="freeze" begin="0s;5955.click" /></path></g></svg>