<svg xmlns="http://www.w3.org/2000/svg" viewBox="0 0 109 109" id="5958"><g fill="none" stroke="#666" stroke-width="6" stroke-linecap="round" stroke-linejoin="round"><g><g><g><path d="M38.84,10.72c0.75,0.86,1.24,2.33,1.24,3.33c0,9.68-0.02,45.27-0.02,48.57" /><path d="M20.76,15.06c0.86,0.4,1.19,1.37,1.27,2.7c0.11,1.99-0.47,8.89-0.73,10.97c-0.09,0.66,0.17,1.8,1.44,1.55c4.43-0.89,12.52-2.03,17.02-2.02" /><path d="M14.75,42.03c1.46,0.1,1.76,0.4,3.46,0.33c7.28-0.3,16.61-2.41,21.69-2.57" /><path d="M26.22,42.81c0.03,0.47-0.06,1.21-0.06,1.89c0,5.79-1.76,12.23-10.22,18.08" /></g><g><path d="M46.5,29.32c0.93,0.22,2.81,0.43,4.73,0.28c9.49-0.74,28.82-2.94,40.07-3.18c1.45-0.03,2.79,0.13,3.51,0.27" /><path d="M67.22,10.25c0.13,0.32,1.93,1.65,1.93,3.68c0,7.07,0.11,26.57,0.11,32.98" /><path d="M51.17,48.17c0.79,0.18,2.25,0.23,3.04,0.18c9.84-0.52,24.53-1.54,33.33-1.78c1.32-0.04,2.12,0.09,2.78,0.18" /></g></g><g><path d="M19.3,70.55c1.26,0.38,4.64,0.83,7.32,0.67c18.15-1.15,41.98-3.44,58.28-3.99c2.8-0.1,5.05-0.05,7.58,0.25" /><path d="M54.61,55.5c0.56,0.61,0.86,1.31,0.84,2.63c-0.28,22.81-13.81,34.85-36.08,41.86" /><path d="M53.62,70.88c7.44,6.08,24.79,21.58,32.21,25.65c2.53,1.38,3.41,1.59,4.55,1.72" /></g></g></g><g fill="none" stroke="#000" stroke-width="3" stroke-linecap="round" stroke-linejoin="round"><path d="M38.84,10.72c0.75,0.86,1.24,2.33,1.24,3.33c0,9.68-0.02,45.27-0.02,48.57" stroke-dasharray="52.187" stroke-dashoffset="52.187"><animate attributeName="stroke-dashoffset" values="52.187;52.187;0" dur="0.522s" fill="freeze" begin="0s;5958.click" /></path><path d="M20.76,15.06c0.86,0.4,1.19,1.37,1.27,2.7c0.11,1.99-0.47,8.89-0.73,10.97c-0.09,0.66,0.17,1.8,1.44,1.55c4.43-0.89,12.52-2.03,17.02-2.02" stroke-dasharray="33.853" stroke-dashoffset="33.853"><animate attributeName="stroke-dashoffset" values="33.853" fill="freeze" begin="5958.click" /><animate attributeName="stroke-dashoffset" values="33.853;33.853;0" keyTimes="0;0.606;1" dur="0.861s" fill="freeze" begin="0s;5958.click" /></path><path d="M14.75,42.03c1.46,0.1,1.76,0.4,3.46,0.33c7.28-0.3,16.61-2.41,21.69-2.57" stroke-dasharray="25.337" stroke-dashoffset="25.337"><animate attributeName="stroke-dashoffset" values="25.337" fill="freeze" begin="5958.click" /><animate attributeName="stroke-dashoffset" values="25.337;25.337;0" keyTimes="0;0.773;1" dur="1.114s" fill="freeze" begin="0s;5958.click" /></path><path d="M26.22,42.81c0.03,0.47-0.06,1.21-0.06,1.89c0,5.79-1.76,12.23-10.22,18.08" stroke-dasharray="23.612" stroke-dashoffset="23.612"><animate attributeName="stroke-dashoffset" values="23.612" fill="freeze" begin="5958.click" /><animate attributeName="stroke-dashoffset" values="23.612;23.612;0" keyTimes="0;0.825;1" dur="1.35s" fill="freeze" begin="0s;5958.click" /></path><path d="M46.5,29.32c0.93,0.22,2.81,0.43,4.73,0.28c9.49-0.74,28.82-2.94,40.07-3.18c1.45-0.03,2.79,0.13,3.51,0.27" stroke-dasharray="48.484" stroke-dashoffset="48.484"><animate attributeName="stroke-dashoffset" values="48.484" fill="freeze" begin="5958.click" /><animate attributeName="stroke-dashoffset" values="48.484;48.484;0" keyTimes="0;0.736;1" dur="1.835s" fill="freeze" begin="0s;5958.click" /></path><path d="M67.22,10.25c0.13,0.32,1.93,1.65,1.93,3.68c0,7.07,0.11,26.57,0.11,32.98" stroke-dasharray="37.245" stroke-dashoffset="37.245"><animate attributeName="stroke-dashoffset" values="37.245" fill="freeze" begin="5958.click" /><animate attributeName="stroke-dashoffset" values="37.245;37.245;0" keyTimes="0;0.831;1" dur="2.207s" fill="freeze" begin="0s;5958.click" /></path><path d="M51.17,48.17c0.79,0.18,2.25,0.23,3.04,0.18c9.84-0.52,24.53-1.54,33.33-1.78c1.32-0.04,2.12,0.09,2.78,0.18" stroke-dasharray="39.222" stroke-dashoffset="39.222"><animate attributeName="stroke-dashoffset" values="39.222" fill="freeze" begin="5958.click" /><animate attributeName="stroke-dashoffset" values="39.222;39.222;0" keyTimes="0;0.849;1" dur="2.599s" fill="freeze" begin="0s;5958.click" /></path><path d="M19.3,70.55c1.26,0.38,4.64,0.83,7.32,0.67c18.15-1.15,41.98-3.44,58.28-3.99c2.8-0.1,5.05-0.05,7.58,0.25" stroke-dasharray="73.389" stroke-dashoffset="73.389"><animate attributeName="stroke-dashoffset" values="73.389" fill="freeze" begin="5958.click" /><animate attributeName="stroke-dashoffset" values="73.389;73.389;0" keyTimes="0;0.825;1" dur="3.151s" fill="freeze" begin="0s;5958.click" /></path><path d="M54.61,55.5c0.56,0.61,0.86,1.31,0.84,2.63c-0.28,22.81-13.81,34.85-36.08,41.86" stroke-dasharray="62.722" stroke-dashoffset="62.722"><animate attributeName="stroke-dashoffset" values="62.722" fill="freeze" begin="5958.click" /><animate attributeName="stroke-dashoffset" values="62.722;62.722;0" keyTimes="0;0.87;1" dur="3.623s" fill="freeze" begin="0s;5958.click" /></path><path d="M53.62,70.88c7.44,6.08,24.79,21.58,32.21,25.65c2.53,1.38,3.41,1.59,4.55,1.72" stroke-dasharray="46.115" stroke-dashoffset="46.115"><animate attributeName="stroke-dashoffset" values="46.115" fill="freeze" begin="5958.click" /><animate attributeName="stroke-dashoffset" values="46.115;46.115;0" keyTimes="0;0.887;1" dur="4.084s" fill="freeze" begin="0s;5958.click" /></path></g></svg>