<svg xmlns="http://www.w3.org/2000/svg" viewBox="0 0 109 109" id="5962"><g fill="none" stroke="#666" stroke-width="6" stroke-linecap="round" stroke-linejoin="round"><g><g><path d="M21.38,23.37c1.12,0.32,4.12,0.7,6.51,0.56c16.15-0.97,40.36-3.4,54.86-3.86c2.49-0.08,4.5,0.46,6.75,0.71" /><path d="M53.52,9.75c0.23,1,0.35,2.26-0.02,3.39C49.5,25.25,27,44.25,12,50.74" /><path d="M56.75,22.31c7.74,4.82,25.79,17.1,33.51,20.33C92.89,43.73,93.8,43.9,95,44" /></g><g><g p5:partial xmlns:p5="http://kanjivg.tagaini.net"><g><path d="M33.21,44.58c0.63,0.22,1.78,0.25,2.42,0.22c7.17-0.35,19.93-2.52,27-2.67c1.05-0.02,1.68,0.1,2.21,0.21" /><path d="M50.48,31.37c0.09,0.19,1.21,0.96,1.3,2.14c0.42,5.64,0.23,19.23,0.23,21.15" /><path d="M18.87,57.44c1.61,0.36,4.07,0.66,5.52,0.53c8.02-0.74,50.4-4.94,59.7-5.1c2.4-0.04,3.84,0.25,5.04,0.52" /></g><path d="M72.12,38.83c0.16,0.94,0.21,2.15-0.84,3.35C57.75,57.75,44,70,15.92,80.26" /></g><path d="M61.8,57.77c2.92,1.13,7.54,4.67,8.27,6.43" /><g><path d="M45.72,69.4c0.33,0.72,0.67,1.08,0.67,2.04c0,0.96-0.22,28.1-0.22,28.58" /><path d="M46.94,71.19c1.88-0.12,27.18-2.08,28.9-2.23c1.43-0.12,2.35,1.33,2.24,2.04c-0.22,1.44-0.34,17.42-0.33,27.99" /><path d="M46.74,83.95c5.79,0,27.78-2.33,30.65-2.33" /><path d="M46.62,97.09c6.97,0,22.88-2.06,30.76-2.09" /></g></g></g></g><g fill="none" stroke="#000" stroke-width="3" stroke-linecap="round" stroke-linejoin="round"><path d="M21.38,23.37c1.12,0.32,4.12,0.7,6.51,0.56c16.15-0.97,40.36-3.4,54.86-3.86c2.49-0.08,4.5,0.46,6.75,0.71" stroke-dasharray="68.352" stroke-dashoffset="68.352"><animate attributeName="stroke-dashoffset" values="68.352;68.352;0" dur="0.514s" fill="freeze" begin="0s;5962.click" /></path><path d="M53.52,9.75c0.23,1,0.35,2.26-0.02,3.39C49.5,25.25,27,44.25,12,50.74" stroke-dasharray="60.462" stroke-dashoffset="60.462"><animate attributeName="stroke-dashoffset" values="60.462" fill="freeze" begin="5962.click" /><animate attributeName="stroke-dashoffset" values="60.462;60.462;0" keyTimes="0;0.53;1" dur="0.969s" fill="freeze" begin="0s;5962.click" /></path><path d="M56.75,22.31c7.74,4.82,25.79,17.1,33.51,20.33C92.89,43.73,93.8,43.9,95,44" stroke-dasharray="44.181" stroke-dashoffset="44.181"><animate attributeName="stroke-dashoffset" values="44.181" fill="freeze" begin="5962.click" /><animate attributeName="stroke-dashoffset" values="44.181;44.181;0" keyTimes="0;0.687;1" dur="1.411s" fill="freeze" begin="0s;5962.click" /></path><path d="M33.21,44.58c0.63,0.22,1.78,0.25,2.42,0.22c7.17-0.35,19.93-2.52,27-2.67c1.05-0.02,1.68,0.1,2.21,0.21" stroke-dasharray="31.807" stroke-dashoffset="31.807"><animate attributeName="stroke-dashoffset" values="31.807" fill="freeze" begin="5962.click" /><animate attributeName="stroke-dashoffset" values="31.807;31.807;0" keyTimes="0;0.816;1" dur="1.729s" fill="freeze" begin="0s;5962.click" /></path><path d="M50.48,31.37c0.09,0.19,1.21,0.96,1.3,2.14c0.42,5.64,0.23,19.23,0.23,21.15" stroke-dasharray="23.719" stroke-dashoffset="23.719"><animate attributeName="stroke-dashoffset" values="23.719" fill="freeze" begin="5962.click" /><animate attributeName="stroke-dashoffset" values="23.719;23.719;0" keyTimes="0;0.879;1" dur="1.966s" fill="freeze" begin="0s;5962.click" /></path><path d="M18.87,57.44c1.61,0.36,4.07,0.66,5.52,0.53c8.02-0.74,50.4-4.94,59.7-5.1c2.4-0.04,3.84,0.25,5.04,0.52" stroke-dasharray="70.567" stroke-dashoffset="70.567"><animate attributeName="stroke-dashoffset" values="70.567" fill="freeze" begin="5962.click" /><animate attributeName="stroke-dashoffset" values="70.567;70.567;0" keyTimes="0;0.787;1" dur="2.497s" fill="freeze" begin="0s;5962.click" /></path><path d="M72.12,38.83c0.16,0.94,0.21,2.15-0.84,3.35C57.75,57.75,44,70,15.92,80.26" stroke-dasharray="71.644" stroke-dashoffset="71.644"><animate attributeName="stroke-dashoffset" values="71.644" fill="freeze" begin="5962.click" /><animate attributeName="stroke-dashoffset" values="71.644;71.644;0" keyTimes="0;0.822;1" dur="3.036s" fill="freeze" begin="0s;5962.click" /></path><path d="M61.8,57.77c2.92,1.13,7.54,4.67,8.27,6.43" stroke-dasharray="10.623" stroke-dashoffset="10.623"><animate attributeName="stroke-dashoffset" values="10.623" fill="freeze" begin="5962.click" /><animate attributeName="stroke-dashoffset" values="10.623;10.623;0" keyTimes="0;0.966;1" dur="3.142s" fill="freeze" begin="0s;5962.click" /></path><path d="M45.72,69.4c0.33,0.72,0.67,1.08,0.67,2.04c0,0.96-0.22,28.1-0.22,28.58" stroke-dasharray="30.757" stroke-dashoffset="30.757"><animate attributeName="stroke-dashoffset" values="30.757" fill="freeze" begin="5962.click" /><animate attributeName="stroke-dashoffset" values="30.757;30.757;0" keyTimes="0;0.911;1" dur="3.45s" fill="freeze" begin="0s;5962.click" /></path><path d="M46.94,71.19c1.88-0.12,27.18-2.08,28.9-2.23c1.43-0.12,2.35,1.33,2.24,2.04c-0.22,1.44-0.34,17.42-0.33,27.99" stroke-dasharray="60.368" stroke-dashoffset="60.368"><animate attributeName="stroke-dashoffset" values="60.368" fill="freeze" begin="5962.click" /><animate attributeName="stroke-dashoffset" values="60.368;60.368;0" keyTimes="0;0.884;1" dur="3.904s" fill="freeze" begin="0s;5962.click" /></path><path d="M46.74,83.95c5.79,0,27.78-2.33,30.65-2.33" stroke-dasharray="30.744" stroke-dashoffset="30.744"><animate attributeName="stroke-dashoffset" values="30.744" fill="freeze" begin="5962.click" /><animate attributeName="stroke-dashoffset" values="30.744;30.744;0" keyTimes="0;0.927;1" dur="4.211s" fill="freeze" begin="0s;5962.click" /></path><path d="M46.62,97.09c6.97,0,22.88-2.06,30.76-2.09" stroke-dasharray="30.84" stroke-dashoffset="30.84"><animate attributeName="stroke-dashoffset" values="30.84" fill="freeze" begin="5962.click" /><animate attributeName="stroke-dashoffset" values="30.84;30.84;0" keyTimes="0;0.932;1" dur="4.519s" fill="freeze" begin="0s;5962.click" /></path></g></svg>