<svg xmlns="http://www.w3.org/2000/svg" width="109" height="109" viewBox="0 0 109 109" id="597d"><g fill="none" stroke="#666" stroke-width="6" stroke-linecap="round" stroke-linejoin="round"><g><g><path d="M29.33,14.12c0.79,1.38,1.04,3.35,0.85,5.06c-0.94,8.36-4.83,32.78-8.96,42.56c-0.85,2.01,0.39,2.79,0.85,2.97c5.7,2.28,11.04,5.41,15.17,9.43c2.52,2.46,4.59,5.26,6.02,8.4" /><path d="M41.12,35.88c0.5,1.4,0.71,2.83,0.35,4.75c-3.22,17.12-10.1,38.5-24.72,50.12" /><path d="M9.75,47.46c0.75,0.99,1.88,1.17,3.01,0.99c2.15-0.34,22.82-5.19,33.86-7.59" /></g><g><path d="M52.68,20.3c1.69,0.45,3.74,0.51,5.21,0.34c4.48-0.52,17.48-3.27,23.34-4.89c1.62-0.45,3.4,0.98,1.82,3.14C80.5,22.38,76.25,28.25,70,35" /><path d="M67.57,36.74c9.05,8.89,10.3,31.39,6.43,49.14c-1.67,7.64-6.12,7.75-10.09,2.55" /><path d="M46.03,52.68c1.46,0.61,5.04,0.84,7.65,0.42c12.32-1.98,26.07-4.36,37.44-4.33c2.64,0.01,4.97,0.2,6.73,0.81" /></g></g></g><g fill="none" stroke="#000" stroke-width="3" stroke-linecap="round" stroke-linejoin="round"><path d="M29.33,14.12c0.79,1.38,1.04,3.35,0.85,5.06c-0.94,8.36-4.83,32.78-8.96,42.56c-0.85,2.01,0.39,2.79,0.85,2.97c5.7,2.28,11.04,5.41,15.17,9.43c2.52,2.46,4.59,5.26,6.02,8.4" stroke-dasharray="80.649" stroke-dashoffset="80.649"><animate attributeName="stroke-dashoffset" values="80.649;80.649;0" dur="0.606s" fill="freeze" begin="0s;597d.click" /></path><path d="M41.12,35.88c0.5,1.4,0.71,2.83,0.35,4.75c-3.22,17.12-10.1,38.5-24.72,50.12" stroke-dasharray="61.849" stroke-dashoffset="61.849"><animate attributeName="stroke-dashoffset" values="61.849" fill="freeze" begin="597d.click" /><animate attributeName="stroke-dashoffset" values="61.849;61.849;0" keyTimes="0;0.566;1" dur="1.071s" fill="freeze" begin="0s;597d.click" /></path><path d="M9.75,47.46c0.75,0.99,1.88,1.17,3.01,0.99c2.15-0.34,22.82-5.19,33.86-7.59" stroke-dasharray="38.045" stroke-dashoffset="38.045"><animate attributeName="stroke-dashoffset" values="38.045" fill="freeze" begin="597d.click" /><animate attributeName="stroke-dashoffset" values="38.045;38.045;0" keyTimes="0;0.738;1" dur="1.451s" fill="freeze" begin="0s;597d.click" /></path><path d="M52.68,20.3c1.69,0.45,3.74,0.51,5.21,0.34c4.48-0.52,17.48-3.27,23.34-4.89c1.62-0.45,3.4,0.98,1.82,3.14C80.5,22.38,76.25,28.25,70,35" stroke-dasharray="54.936" stroke-dashoffset="54.936"><animate attributeName="stroke-dashoffset" values="54.936" fill="freeze" begin="597d.click" /><animate attributeName="stroke-dashoffset" values="54.936;54.936;0" keyTimes="0;0.726;1" dur="2s" fill="freeze" begin="0s;597d.click" /></path><path d="M67.57,36.74c9.05,8.89,10.3,31.39,6.43,49.14c-1.67,7.64-6.12,7.75-10.09,2.55" stroke-dasharray="66.22" stroke-dashoffset="66.22"><animate attributeName="stroke-dashoffset" values="66.22" fill="freeze" begin="597d.click" /><animate attributeName="stroke-dashoffset" values="66.22;66.22;0" keyTimes="0;0.801;1" dur="2.498s" fill="freeze" begin="0s;597d.click" /></path><path d="M46.03,52.68c1.46,0.61,5.04,0.84,7.65,0.42c12.32-1.98,26.07-4.36,37.44-4.33c2.64,0.01,4.97,0.2,6.73,0.81" stroke-dasharray="52.265" stroke-dashoffset="52.265"><animate attributeName="stroke-dashoffset" values="52.265" fill="freeze" begin="597d.click" /><animate attributeName="stroke-dashoffset" values="52.265;52.265;0" keyTimes="0;0.827;1" dur="3.021s" fill="freeze" begin="0s;597d.click" /></path></g></svg>