<svg xmlns="http://www.w3.org/2000/svg" width="109" height="109" viewBox="0 0 109 109" id="5993"><g fill="none" stroke="#666" stroke-width="9" stroke-linecap="round" stroke-linejoin="round"><g><g><path d="M28.98,23.37c0.39,1.07,0.59,2.32,0.39,3.86c-0.94,7.29-7.03,28.06-11.35,37.58c-0.98,2.16-1.02,3.4,1.35,4.12c8.31,2.53,16.34,8.62,21.39,16.15" /><path d="M40.25,41.98c0.5,1.27,0.43,2.6,0.08,4.22C37.38,60,29.12,79,12,88.5" /><path d="M10.25,52.34c0.75,0.97,2.04,1.66,4,1.18c9.38-2.27,19.5-4.65,30.25-7.43" /></g><g><g><path d="M43.1,33.35c2.91,0.59,5.78,0.44,8.67-0.12c8.23-1.6,18.35-2.85,28.2-4.14c2.97-0.39,5.53-0.34,8.87,0.05" /><path d="M62.84,12.59c1.22,1.22,1.49,2.66,1.49,4.11c0,0.93,0.03,26.68,0.03,32.99" /></g><g><path d="M47.98,52.2c1.58,0.39,3.02,0.73,6.17,0.14c3.15-0.59,19.4-3.41,21.57-4c2.17-0.59,4.28,1.59,3.3,3.68C71.12,69,60.25,84.5,39.09,94.57" /><path d="M46.94,56.93C52.25,58,68.21,75.97,83.39,86.85c3.72,2.84,7.75,5.15,12.08,6.92" /></g></g></g></g><g fill="none" stroke="#000" stroke-width="5" stroke-linecap="round" stroke-linejoin="round"><path d="M28.98,23.37c0.39,1.07,0.59,2.32,0.39,3.86c-0.94,7.29-7.03,28.06-11.35,37.58c-0.98,2.16-1.02,3.4,1.35,4.12c8.31,2.53,16.34,8.62,21.39,16.15" stroke-dasharray="75.84" stroke-dashoffset="75.84"><animate attributeName="stroke-dashoffset" values="75.84;75.84;0" dur="0.57s" fill="freeze" begin="0s;5993.click" /></path><path d="M40.25,41.98c0.5,1.27,0.43,2.6,0.08,4.22C37.38,60,29.12,79,12,88.5" stroke-dasharray="56.729" stroke-dashoffset="56.729"><animate attributeName="stroke-dashoffset" values="56.729" fill="freeze" begin="5993.click" /><animate attributeName="stroke-dashoffset" values="56.729;56.729;0" keyTimes="0;0.501;1" dur="1.137s" fill="freeze" begin="0s;5993.click" /></path><path d="M10.25,52.34c0.75,0.97,2.04,1.66,4,1.18c9.38-2.27,19.5-4.65,30.25-7.43" stroke-dasharray="35.584" stroke-dashoffset="35.584"><animate attributeName="stroke-dashoffset" values="35.584" fill="freeze" begin="5993.click" /><animate attributeName="stroke-dashoffset" values="35.584;35.584;0" keyTimes="0;0.762;1" dur="1.493s" fill="freeze" begin="0s;5993.click" /></path><path d="M43.1,33.35c2.91,0.59,5.78,0.44,8.67-0.12c8.23-1.6,18.35-2.85,28.2-4.14c2.97-0.39,5.53-0.34,8.87,0.05" stroke-dasharray="46.131" stroke-dashoffset="46.131"><animate attributeName="stroke-dashoffset" values="46.131" fill="freeze" begin="5993.click" /><animate attributeName="stroke-dashoffset" values="46.131;46.131;0" keyTimes="0;0.764;1" dur="1.954s" fill="freeze" begin="0s;5993.click" /></path><path d="M62.84,12.59c1.22,1.22,1.49,2.66,1.49,4.11c0,0.93,0.03,26.68,0.03,32.99" stroke-dasharray="37.49" stroke-dashoffset="37.49"><animate attributeName="stroke-dashoffset" values="37.49" fill="freeze" begin="5993.click" /><animate attributeName="stroke-dashoffset" values="37.49;37.49;0" keyTimes="0;0.839;1" dur="2.329s" fill="freeze" begin="0s;5993.click" /></path><path d="M47.98,52.2c1.58,0.39,3.02,0.73,6.17,0.14c3.15-0.59,19.4-3.41,21.57-4c2.17-0.59,4.28,1.59,3.3,3.68C71.12,69,60.25,84.5,39.09,94.57" stroke-dasharray="94.008" stroke-dashoffset="94.008"><animate attributeName="stroke-dashoffset" values="94.008" fill="freeze" begin="5993.click" /><animate attributeName="stroke-dashoffset" values="94.008;94.008;0" keyTimes="0;0.767;1" dur="3.036s" fill="freeze" begin="0s;5993.click" /></path><path d="M46.94,56.93C52.25,58,68.21,75.97,83.39,86.85c3.72,2.84,7.75,5.15,12.08,6.92" stroke-dasharray="61.259" stroke-dashoffset="61.259"><animate attributeName="stroke-dashoffset" values="61.259" fill="freeze" begin="5993.click" /><animate attributeName="stroke-dashoffset" values="61.259;61.259;0" keyTimes="0;0.868;1" dur="3.497s" fill="freeze" begin="0s;5993.click" /></path></g></svg>