<svg xmlns="http://www.w3.org/2000/svg" width="109" height="109" viewBox="0 0 109 109" id="599b"><g fill="none" stroke="#666" stroke-width="9" stroke-linecap="round" stroke-linejoin="round"><g><g><path d="M53.01,8.88c0.56,0.33,1.75,2.48,1.86,3.15c0.11,0.66-0.07,15.08-0.18,19.23" /><path d="M27.43,19.75c0.56,0.33,1.12,1.73,1.12,2.41c0,2.59-0.8,6.84-2.09,10.76c-0.48,1.45,0.83,2.59,2.11,2.28c4.93-1.2,47.83-5.92,52.85-6.05" /><path d="M82.52,15.12c0.56,0.39,1.21,2.87,1.12,3.64c-0.56,4.71-1.14,10.11-2.04,14.69" /></g><g><g><path d="M19.04,48.76c1.99,0.25,5.22,0.6,6.7,0.5C43.86,48,71.36,44.49,86.75,44.5c2.48,0,3.97,0.24,5.21,0.49" /></g><g><path d="M49.55,50.37c0.49,1.19,0.15,2.7-0.24,4.18c-1.92,7.28-5.72,14.01-11.84,22.37c-1.33,1.82-0.27,2.18,0.73,2.19c14.2,0.2,36.96,10.16,44.31,19.52" /><path d="M68.75,56.38c0.12,1.03,0.21,3.55-0.25,5.05c-3.67,12.12-14.25,29.31-40.49,38.33" /><path d="M17.94,66.77c2.33,0.68,4.81,1.14,5.93,1.04C47.41,65.67,66,63.5,87.61,61.99c1.86-0.13,5.07,0.42,6.58,1.19" /></g></g></g></g><g fill="none" stroke="#000" stroke-width="5" stroke-linecap="round" stroke-linejoin="round"><g><g><path d="M53.01,8.88c0.56,0.33,1.75,2.48,1.86,3.15c0.11,0.66-0.07,15.08-0.18,19.23" stroke-dasharray="22.93" stroke-dashoffset="22.93"><animate id="0" attributeName="stroke-dashoffset" values="22.93;0" dur="0.23s" fill="freeze" begin="0s;599b.click" /></path><path d="M27.43,19.75c0.56,0.33,1.12,1.73,1.12,2.41c0,2.59-0.8,6.84-2.09,10.76c-0.48,1.45,0.83,2.59,2.11,2.28c4.93-1.2,47.83-5.92,52.85-6.05" stroke-dasharray="70.74" stroke-dashoffset="70.74"><animate attributeName="stroke-dashoffset" values="70.74" fill="freeze" begin="599b.click" /><animate id="1" attributeName="stroke-dashoffset" values="70.74;0" dur="0.53s" fill="freeze" begin="0.end" /></path><path d="M82.52,15.12c0.56,0.39,1.21,2.87,1.12,3.64c-0.56,4.71-1.14,10.11-2.04,14.69" stroke-dasharray="18.71" stroke-dashoffset="18.71"><animate attributeName="stroke-dashoffset" values="18.71" fill="freeze" begin="599b.click" /><animate id="2" attributeName="stroke-dashoffset" values="18.71;0" dur="0.19s" fill="freeze" begin="1.end" /></path></g><g><g><path d="M19.04,48.76c1.99,0.25,5.22,0.6,6.7,0.5C43.86,48,71.36,44.49,86.75,44.5c2.48,0,3.97,0.24,5.21,0.49" stroke-dasharray="73.18" stroke-dashoffset="73.18"><animate attributeName="stroke-dashoffset" values="73.18" fill="freeze" begin="599b.click" /><animate id="3" attributeName="stroke-dashoffset" values="73.18;0" dur="0.55s" fill="freeze" begin="2.end" /></path></g><g><path d="M49.55,50.37c0.49,1.19,0.15,2.7-0.24,4.18c-1.92,7.28-5.72,14.01-11.84,22.37c-1.33,1.82-0.27,2.18,0.73,2.19c14.2,0.2,36.96,10.16,44.31,19.52" stroke-dasharray="82.52" stroke-dashoffset="82.52"><animate attributeName="stroke-dashoffset" values="82.52" fill="freeze" begin="599b.click" /><animate id="4" attributeName="stroke-dashoffset" values="82.52;0" dur="0.62s" fill="freeze" begin="3.end" /></path><path d="M68.75,56.38c0.12,1.03,0.21,3.55-0.25,5.05c-3.67,12.12-14.25,29.31-40.49,38.33" stroke-dasharray="63.01" stroke-dashoffset="63.01"><animate attributeName="stroke-dashoffset" values="63.01" fill="freeze" begin="599b.click" /><animate id="5" attributeName="stroke-dashoffset" values="63.01;0" dur="0.47s" fill="freeze" begin="4.end" /></path><path d="M17.94,66.77c2.33,0.68,4.81,1.14,5.93,1.04C47.41,65.67,66,63.5,87.61,61.99c1.86-0.13,5.07,0.42,6.58,1.19" stroke-dasharray="76.79" stroke-dashoffset="76.79"><animate attributeName="stroke-dashoffset" values="76.79" fill="freeze" begin="599b.click" /><animate id="6" attributeName="stroke-dashoffset" values="76.79;0" dur="0.58s" fill="freeze" begin="5.end" /></path></g></g></g></g></svg>