<svg xmlns="http://www.w3.org/2000/svg" width="109" height="109" viewBox="0 0 109 109" id="59b2"><g fill="none" stroke="#666" stroke-width="9" stroke-linecap="round" stroke-linejoin="round"><g><g><path d="M28.98,16.87c0.39,1.04,1.08,2.74,0.89,4.24c-0.98,7.39-6.82,34.16-11.13,42.79c-0.89,1.77,0.4,2.46,0.89,2.63c9.38,3.22,19.13,9.22,22.63,18.25" /><path d="M41.75,36.89c0.75,1.36,0.64,2.84,0.34,4.68C39.68,56.41,32.23,78.96,15,90" /><path d="M10,46.72c0.75,0.94,1.75,1.62,3.75,1.39c2.15-0.24,21-4.36,31.75-6.73" /></g><g><g><path d="M55.06,17.83c0.52,1.32,1.04,1.98,1.04,3.75c0,1.76-0.35,50.29-0.35,51.17c0,0.88,0.17,0.88,0.35,2.65" /><path d="M56.97,19.83c2.94-0.22,25.33-2.82,28.02-3.09c2.23-0.22,3.67,2.44,3.5,3.75c-0.35,2.65-0.52,30.43-0.51,49.83c0,2-0.18,2.87-0.18,4.19" /><path d="M56.46,45.41c3.98,0,26.65-2.21,31.16-2.21" /><path d="M55.94,73.56c9.11-1.01,23.28-2.5,31.85-2.95" /></g><g><path d="M45.3,90.09c1.71,1.11,4.84,1.22,6.55,1.11C63,90.5,82.5,88.5,95.47,88.35c2.85-0.03,4.55,0.53,5.98,1.09" /></g></g></g></g><g fill="none" stroke="#000" stroke-width="5" stroke-linecap="round" stroke-linejoin="round"><g><g><path d="M28.98,16.87c0.39,1.04,1.08,2.74,0.89,4.24c-0.98,7.39-6.82,34.16-11.13,42.79c-0.89,1.77,0.4,2.46,0.89,2.63c9.38,3.22,19.13,9.22,22.63,18.25" stroke-dasharray="81.89" stroke-dashoffset="81.89"><animate id="0" attributeName="stroke-dashoffset" values="81.89;0" dur="0.62s" fill="freeze" begin="0s;59b2.click" /></path><path d="M41.75,36.89c0.75,1.36,0.64,2.84,0.34,4.68C39.68,56.41,32.23,78.96,15,90" stroke-dasharray="61.85" stroke-dashoffset="61.85"><animate attributeName="stroke-dashoffset" values="61.85" fill="freeze" begin="59b2.click" /><animate id="1" attributeName="stroke-dashoffset" values="61.85;0" dur="0.47s" fill="freeze" begin="0.end" /></path><path d="M10,46.72c0.75,0.94,1.75,1.62,3.75,1.39c2.15-0.24,21-4.36,31.75-6.73" stroke-dasharray="36.67" stroke-dashoffset="36.67"><animate attributeName="stroke-dashoffset" values="36.67" fill="freeze" begin="59b2.click" /><animate id="2" attributeName="stroke-dashoffset" values="36.67;0" dur="0.37s" fill="freeze" begin="1.end" /></path></g><g><g><path d="M55.06,17.83c0.52,1.32,1.04,1.98,1.04,3.75c0,1.76-0.35,50.29-0.35,51.17c0,0.88,0.17,0.88,0.35,2.65" stroke-dasharray="57.78" stroke-dashoffset="57.78"><animate attributeName="stroke-dashoffset" values="57.78" fill="freeze" begin="59b2.click" /><animate id="3" attributeName="stroke-dashoffset" values="57.78;0" dur="0.58s" fill="freeze" begin="2.end" /></path><path d="M56.97,19.83c2.94-0.22,25.33-2.82,28.02-3.09c2.23-0.22,3.67,2.44,3.5,3.75c-0.35,2.65-0.52,30.43-0.51,49.83c0,2-0.18,2.87-0.18,4.19" stroke-dasharray="87.96" stroke-dashoffset="87.96"><animate attributeName="stroke-dashoffset" values="87.96" fill="freeze" begin="59b2.click" /><animate id="4" attributeName="stroke-dashoffset" values="87.96;0" dur="0.66s" fill="freeze" begin="3.end" /></path><path d="M56.46,45.41c3.98,0,26.65-2.21,31.16-2.21" stroke-dasharray="31.24" stroke-dashoffset="31.24"><animate attributeName="stroke-dashoffset" values="31.24" fill="freeze" begin="59b2.click" /><animate id="5" attributeName="stroke-dashoffset" values="31.24;0" dur="0.31s" fill="freeze" begin="4.end" /></path><path d="M55.94,73.56c9.11-1.01,23.28-2.5,31.85-2.95" stroke-dasharray="31.99" stroke-dashoffset="31.99"><animate attributeName="stroke-dashoffset" values="31.99" fill="freeze" begin="59b2.click" /><animate id="6" attributeName="stroke-dashoffset" values="31.99;0" dur="0.32s" fill="freeze" begin="5.end" /></path></g><g><path d="M45.3,90.09c1.71,1.11,4.84,1.22,6.55,1.11C63,90.5,82.5,88.5,95.47,88.35c2.85-0.03,4.55,0.53,5.98,1.09" stroke-dasharray="56.58" stroke-dashoffset="56.58"><animate attributeName="stroke-dashoffset" values="56.58" fill="freeze" begin="59b2.click" /><animate id="7" attributeName="stroke-dashoffset" values="56.58;0" dur="0.57s" fill="freeze" begin="6.end" /></path></g></g></g></g></svg>