<svg xmlns="http://www.w3.org/2000/svg" width="109" height="109" viewBox="0 0 109 109" id="59e5"><g fill="none" stroke="#666" stroke-width="9" stroke-linecap="round" stroke-linejoin="round"><g><g><path d="M26.84,20.37c0.91,0.91,1.31,2.48,1.09,4.09c-0.98,7.2-5.52,25.65-9.49,34.99c-0.8,1.89-1.26,3.35,0.93,4.2c5.16,1.98,11.08,5.92,15.63,11.48c1.58,1.93,3,4.07,4.17,6.38" /><path d="M38.16,37.44c0.44,1.24,0.61,3.44,0.32,5.18C36.15,56.75,28.7,77.98,12.05,88.5" /><path d="M10.25,49.16c1.46,1.36,3,1.27,4.62,0.73c5.35-1.16,21.45-5.21,28.63-7.3" /></g><g><g p5:partial xmlns:p5="http://kanjivg.tagaini.net"><g><path d="M50.5,33.2c2.78,0.63,4.27,0.52,6.76,0.26c6.46-0.66,11.92-1.8,17.7-2.5c1.48-0.29,2.95-0.25,4.42,0.13" /><path d="M63.92,11.62c0.92,0.92,1.27,2.26,1.27,3.64C65.19,25.38,65,42.96,65,46" /><path d="M43.75,48.03c2.64,0.7,5.28,0.86,7.93,0.53c10.3-1.28,20.79-2.18,37.78-3.34c2.82-0.36,5.62-0.2,8.41,0.49" /></g><path d="M88.44,22.23c0.13,1.17-0.3,3.06-1.26,4.45c-12.32,17.81-24.17,30.9-44.62,44.54" /></g><g><path d="M87.68,58.39c0,0.99-0.69,2.57-1.54,3.29C80.17,66.7,71.8,72.08,63.38,75" /><path d="M58.85,56.75c1.01,1.01,1.31,2.69,1.19,4.21c0,6.25-0.08,24.49-0.08,27.5c0,8.97,3.54,8.07,15.94,8.07c17.09,0,17.88-2.28,17.88-11.42" /></g></g></g></g><g fill="none" stroke="#000" stroke-width="5" stroke-linecap="round" stroke-linejoin="round"><g><g><path d="M26.84,20.37c0.91,0.91,1.31,2.48,1.09,4.09c-0.98,7.2-5.52,25.65-9.49,34.99c-0.8,1.89-1.26,3.35,0.93,4.2c5.16,1.98,11.08,5.92,15.63,11.48c1.58,1.93,3,4.07,4.17,6.38" stroke-dasharray="73.01" stroke-dashoffset="73.01"><animate id="0" attributeName="stroke-dashoffset" values="73.01;0" dur="0.55s" fill="freeze" begin="0s;59e5.click" /></path><path d="M38.16,37.44c0.44,1.24,0.61,3.44,0.32,5.18C36.15,56.75,28.7,77.98,12.05,88.5" stroke-dasharray="59.69" stroke-dashoffset="59.69"><animate attributeName="stroke-dashoffset" values="59.69" fill="freeze" begin="59e5.click" /><animate id="1" attributeName="stroke-dashoffset" values="59.69;0" dur="0.6s" fill="freeze" begin="0.end" /></path><path d="M10.25,49.16c1.46,1.36,3,1.27,4.62,0.73c5.35-1.16,21.45-5.21,28.63-7.3" stroke-dasharray="34.5" stroke-dashoffset="34.5"><animate attributeName="stroke-dashoffset" values="34.5" fill="freeze" begin="59e5.click" /><animate id="2" attributeName="stroke-dashoffset" values="34.5;0" dur="0.34s" fill="freeze" begin="1.end" /></path></g><g><g p5:partial xmlns:p5="http://kanjivg.tagaini.net"><g><path d="M50.5,33.2c2.78,0.63,4.27,0.52,6.76,0.26c6.46-0.66,11.92-1.8,17.7-2.5c1.48-0.29,2.95-0.25,4.42,0.13" stroke-dasharray="29.14" stroke-dashoffset="29.14"><animate attributeName="stroke-dashoffset" values="29.14" fill="freeze" begin="59e5.click" /><animate id="3" attributeName="stroke-dashoffset" values="29.14;0" dur="0.29s" fill="freeze" begin="2.end" /></path><path d="M63.92,11.62c0.92,0.92,1.27,2.26,1.27,3.64C65.19,25.38,65,42.96,65,46" stroke-dasharray="34.7" stroke-dashoffset="34.7"><animate attributeName="stroke-dashoffset" values="34.7" fill="freeze" begin="59e5.click" /><animate id="4" attributeName="stroke-dashoffset" values="34.7;0" dur="0.35s" fill="freeze" begin="3.end" /></path><path d="M43.75,48.03c2.64,0.7,5.28,0.86,7.93,0.53c10.3-1.28,20.79-2.18,37.78-3.34c2.82-0.36,5.62-0.2,8.41,0.49" stroke-dasharray="54.4" stroke-dashoffset="54.4"><animate attributeName="stroke-dashoffset" values="54.4" fill="freeze" begin="59e5.click" /><animate id="5" attributeName="stroke-dashoffset" values="54.4;0" dur="0.54s" fill="freeze" begin="4.end" /></path></g><path d="M88.44,22.23c0.13,1.17-0.3,3.06-1.26,4.45c-12.32,17.81-24.17,30.9-44.62,44.54" stroke-dasharray="68.19" stroke-dashoffset="68.19"><animate attributeName="stroke-dashoffset" values="68.19" fill="freeze" begin="59e5.click" /><animate id="6" attributeName="stroke-dashoffset" values="68.19;0" dur="0.51s" fill="freeze" begin="5.end" /></path></g><g><path d="M87.68,58.39c0,0.99-0.69,2.57-1.54,3.29C80.17,66.7,71.8,72.08,63.38,75" stroke-dasharray="30.23" stroke-dashoffset="30.23"><animate attributeName="stroke-dashoffset" values="30.23" fill="freeze" begin="59e5.click" /><animate id="7" attributeName="stroke-dashoffset" values="30.23;0" dur="0.3s" fill="freeze" begin="6.end" /></path><path d="M58.85,56.75c1.01,1.01,1.31,2.69,1.19,4.21c0,6.25-0.08,24.49-0.08,27.5c0,8.97,3.54,8.07,15.94,8.07c17.09,0,17.88-2.28,17.88-11.42" stroke-dasharray="79" stroke-dashoffset="79"><animate attributeName="stroke-dashoffset" values="79" fill="freeze" begin="59e5.click" /><animate id="8" attributeName="stroke-dashoffset" values="79;0" dur="0.59s" fill="freeze" begin="7.end" /></path></g></g></g></g></svg>