<svg xmlns="http://www.w3.org/2000/svg" width="109" height="109" viewBox="0 0 109 109" id="5a09"><g fill="none" stroke="#666" stroke-width="6" stroke-linecap="round" stroke-linejoin="round"><g><g><path d="M28.48,17.37c0.39,1.04,1.08,2.74,0.89,4.24C28.38,29,22.05,54.77,17.73,63.4c-0.89,1.77,0.4,2.46,0.89,2.63C28,69.25,36.5,76.66,41.75,84.28" /><path d="M40.75,37.39c0.08,1.27,0.14,4.34-0.16,6.18C38.18,58.41,31.23,79.46,14,90.5" /><path d="M9.5,46.92c0.77,0.81,1.8,1.4,3.86,1.2c2.22-0.21,21.97-4.18,31.14-6.24" /></g><g><g><g p6:partial xmlns:p6="http://kanjivg.tagaini.net"><path d="M49.56,22.83c0.51,0.62,0.91,1.27,1.03,1.81c0.98,4.47,2.84,14.1,3.42,22.32" /><path d="M51.28,24.04c9.17-1.12,31.52-3.19,37.32-3.63c2.13-0.16,2.93,1.13,2.81,2.33c-0.43,4.38-1.71,14.74-3.05,21.96" /></g><g><path d="M68.71,10.11c1.22,0.97,1.94,2.38,1.95,3.65C70.7,26.4,70.88,41.4,70.88,44.7" /></g><g p6:partial xmlns:p6="http://kanjivg.tagaini.net"><path d="M52.66,34.02c2.53-0.22,35.66-3.01,37.75-3.01" /><path d="M54.41,45.85c6.4-0.32,26.3-2.22,34.03-2.34" /></g></g><g><path d="M44.54,55.69c1.37,0.26,3.88,0.29,5.24,0.26c10.59-0.23,31.42-2.64,46.63-3c2.28-0.05,3.65,0.12,4.79,0.26" /><path d="M63.45,57.02c0.31,0.59,0.48,1.34,0.06,2.18c-1.17,2.34-4.54,8.17-6.1,10.52c-0.88,1.33-0.28,2.56,1.84,2.18c3.86-0.69,18.34-2.7,23.11-3.56c4.63-0.83,4.6,1.67,4.03,4.82c-1.21,6.67-5.37,14.8-9.79,20.69c-3.86,5.15-6.11,1.65-7.93-1.21" /></g></g></g></g><g fill="none" stroke="#000" stroke-width="3" stroke-linecap="round" stroke-linejoin="round"><path d="M28.48,17.37c0.39,1.04,1.08,2.74,0.89,4.24C28.38,29,22.05,54.77,17.73,63.4c-0.89,1.77,0.4,2.46,0.89,2.63C28,69.25,36.5,76.66,41.75,84.28" stroke-dasharray="81.012" stroke-dashoffset="81.012"><animate attributeName="stroke-dashoffset" values="81.012;81.012;0" dur="0.609s" fill="freeze" begin="0s;5a09.click" /></path><path d="M40.75,37.39c0.08,1.27,0.14,4.34-0.16,6.18C38.18,58.41,31.23,79.46,14,90.5" stroke-dasharray="61.718" stroke-dashoffset="61.718"><animate attributeName="stroke-dashoffset" values="61.718" fill="freeze" begin="5a09.click" /><animate attributeName="stroke-dashoffset" values="61.718;61.718;0" keyTimes="0;0.568;1" dur="1.073s" fill="freeze" begin="0s;5a09.click" /></path><path d="M9.5,46.92c0.77,0.81,1.8,1.4,3.86,1.2c2.22-0.21,21.97-4.18,31.14-6.24" stroke-dasharray="35.971" stroke-dashoffset="35.971"><animate attributeName="stroke-dashoffset" values="35.971" fill="freeze" begin="5a09.click" /><animate attributeName="stroke-dashoffset" values="35.971;35.971;0" keyTimes="0;0.749;1" dur="1.433s" fill="freeze" begin="0s;5a09.click" /></path><path d="M49.56,22.83c0.51,0.62,0.91,1.27,1.03,1.81c0.98,4.47,2.84,14.1,3.42,22.32" stroke-dasharray="24.698" stroke-dashoffset="24.698"><animate attributeName="stroke-dashoffset" values="24.698" fill="freeze" begin="5a09.click" /><animate attributeName="stroke-dashoffset" values="24.698;24.698;0" keyTimes="0;0.853;1" dur="1.68s" fill="freeze" begin="0s;5a09.click" /></path><path d="M51.28,24.04c9.17-1.12,31.52-3.19,37.32-3.63c2.13-0.16,2.93,1.13,2.81,2.33c-0.43,4.38-1.71,14.74-3.05,21.96" stroke-dasharray="63.917" stroke-dashoffset="63.917"><animate attributeName="stroke-dashoffset" values="63.917" fill="freeze" begin="5a09.click" /><animate attributeName="stroke-dashoffset" values="63.917;63.917;0" keyTimes="0;0.777;1" dur="2.161s" fill="freeze" begin="0s;5a09.click" /></path><path d="M68.71,10.11c1.22,0.97,1.94,2.38,1.95,3.65C70.7,26.4,70.88,41.4,70.88,44.7" stroke-dasharray="35.213" stroke-dashoffset="35.213"><animate attributeName="stroke-dashoffset" values="35.213" fill="freeze" begin="5a09.click" /><animate attributeName="stroke-dashoffset" values="35.213;35.213;0" keyTimes="0;0.86;1" dur="2.513s" fill="freeze" begin="0s;5a09.click" /></path><path d="M52.66,34.02c2.53-0.22,35.66-3.01,37.75-3.01" stroke-dasharray="37.872" stroke-dashoffset="37.872"><animate attributeName="stroke-dashoffset" values="37.872" fill="freeze" begin="5a09.click" /><animate attributeName="stroke-dashoffset" values="37.872;37.872;0" keyTimes="0;0.869;1" dur="2.892s" fill="freeze" begin="0s;5a09.click" /></path><path d="M54.41,45.85c6.4-0.32,26.3-2.22,34.03-2.34" stroke-dasharray="34.115" stroke-dashoffset="34.115"><animate attributeName="stroke-dashoffset" values="34.115" fill="freeze" begin="5a09.click" /><animate attributeName="stroke-dashoffset" values="34.115;34.115;0" keyTimes="0;0.895;1" dur="3.233s" fill="freeze" begin="0s;5a09.click" /></path><path d="M44.54,55.69c1.37,0.26,3.88,0.29,5.24,0.26c10.59-0.23,31.42-2.64,46.63-3c2.28-0.05,3.65,0.12,4.79,0.26" stroke-dasharray="56.789" stroke-dashoffset="56.789"><animate attributeName="stroke-dashoffset" values="56.789" fill="freeze" begin="5a09.click" /><animate attributeName="stroke-dashoffset" values="56.789;56.789;0" keyTimes="0;0.851;1" dur="3.801s" fill="freeze" begin="0s;5a09.click" /></path><path d="M63.45,57.02c0.31,0.59,0.48,1.34,0.06,2.18c-1.17,2.34-4.54,8.17-6.1,10.52c-0.88,1.33-0.28,2.56,1.84,2.18c3.86-0.69,18.34-2.7,23.11-3.56c4.63-0.83,4.6,1.67,4.03,4.82c-1.21,6.67-5.37,14.8-9.79,20.69c-3.86,5.15-6.11,1.65-7.93-1.21" stroke-dasharray="83.91" stroke-dashoffset="83.91"><animate attributeName="stroke-dashoffset" values="83.91" fill="freeze" begin="5a09.click" /><animate attributeName="stroke-dashoffset" values="83.91;83.91;0" keyTimes="0;0.858;1" dur="4.432s" fill="freeze" begin="0s;5a09.click" /></path></g></svg>