<svg xmlns="http://www.w3.org/2000/svg" width="109" height="109" viewBox="0 0 109 109" id="5a49"><g fill="none" stroke="#666" stroke-width="6" stroke-linecap="round" stroke-linejoin="round"><g><g><path d="M24.98,17.37c0.39,1.04,1.08,2.74,0.89,4.24C24.88,29,19.05,55.76,14.73,64.4c-0.89,1.77,0.4,2.46,0.89,2.63c9.38,3.22,17.63,9.22,22.13,17.75" /><path d="M36.75,36.89c0.08,1.27,0.14,4.34-0.16,6.18C34.18,57.91,27.23,78.96,10,90" /><path d="M7,46.72c0.75,0.94,1.75,1.62,3.75,1.39c2.15-0.24,21.34-4.35,30.25-6.73" /></g><g><g><path d="M67.83,13c0.87,0.33,2.12,1.98,2.1,2.95c-0.06,3.05-0.06,8.75-0.07,11.52" /><g><path d="M48.58,25.74c0,3.51-2.35,13.16-3.42,15.5" /><path d="M48.69,30.6c6.3-0.77,37.38-4.67,42.5-4.82c9.81-0.28,0.35,6.59-1.64,8.24" /></g></g><g><g><path d="M53.91,39.92c0.15,0.46,0.56,1.85,0.29,2.74c-1.81,6.07-7.25,15.82-14.55,24.28" /><path d="M53.81,50.2c0.22,0.04,1.17,0,1.81-0.12c2.09-0.39,5.28-1.37,7.92-1.56c2.19-0.16,2.75,0.98,2.11,3.19C62,64.25,51.75,81.25,38.5,92.5" /><path d="M47.09,60.6c2.5,1.66,6.45,6.85,7.08,9.43" /></g><g><path d="M70.49,47.57c0.52,0.1,2.05,0.47,3.1,0.36c4.16-0.43,11.89-1.22,13.29-1.56c2.1-0.5,3.47,0.88,3.38,2.88c-0.14,3.4-1.98,13.54-4.3,19.07c-2.22,5.3-3.47,2.56-4.7,0.28" /><path d="M72.14,48.42c0.6,1.45,0.62,3.16,0.62,5.4c0,13.34-0.28,18.59-0.28,25.38c0,13.63,2.79,14.05,13.27,14.05c11.95,0,12.64-1.15,12.64-11.12" /></g></g></g></g></g><g fill="none" stroke="#000" stroke-width="3" stroke-linecap="round" stroke-linejoin="round"><path d="M24.98,17.37c0.39,1.04,1.08,2.74,0.89,4.24C24.88,29,19.05,55.76,14.73,64.4c-0.89,1.77,0.4,2.46,0.89,2.63c9.38,3.22,17.63,9.22,22.13,17.75" stroke-dasharray="80.972" stroke-dashoffset="80.972"><animate attributeName="stroke-dashoffset" values="80.972;80.972;0" dur="0.609s" fill="freeze" begin="0s;5a49.click" /></path><path d="M36.75,36.89c0.08,1.27,0.14,4.34-0.16,6.18C34.18,57.91,27.23,78.96,10,90" stroke-dasharray="61.718" stroke-dashoffset="61.718"><animate attributeName="stroke-dashoffset" values="61.718" fill="freeze" begin="5a49.click" /><animate attributeName="stroke-dashoffset" values="61.718;61.718;0" keyTimes="0;0.568;1" dur="1.073s" fill="freeze" begin="0s;5a49.click" /></path><path d="M7,46.72c0.75,0.94,1.75,1.62,3.75,1.39c2.15-0.24,21.34-4.35,30.25-6.73" stroke-dasharray="35.208" stroke-dashoffset="35.208"><animate attributeName="stroke-dashoffset" values="35.208" fill="freeze" begin="5a49.click" /><animate attributeName="stroke-dashoffset" values="35.208;35.208;0" keyTimes="0;0.753;1" dur="1.425s" fill="freeze" begin="0s;5a49.click" /></path><path d="M67.83,13c0.87,0.33,2.12,1.98,2.1,2.95c-0.06,3.05-0.06,8.75-0.07,11.52" stroke-dasharray="15.284" stroke-dashoffset="15.284"><animate attributeName="stroke-dashoffset" values="15.284" fill="freeze" begin="5a49.click" /><animate attributeName="stroke-dashoffset" values="15.284;15.284;0" keyTimes="0;0.903;1" dur="1.578s" fill="freeze" begin="0s;5a49.click" /></path><path d="M48.58,25.74c0,3.51-2.35,13.16-3.42,15.5" stroke-dasharray="15.924" stroke-dashoffset="15.924"><animate attributeName="stroke-dashoffset" values="15.924" fill="freeze" begin="5a49.click" /><animate attributeName="stroke-dashoffset" values="15.924;15.924;0" keyTimes="0;0.908;1" dur="1.737s" fill="freeze" begin="0s;5a49.click" /></path><path d="M48.69,30.6c6.3-0.77,37.38-4.67,42.5-4.82c9.81-0.28,0.35,6.59-1.64,8.24" stroke-dasharray="57.026" stroke-dashoffset="57.026"><animate attributeName="stroke-dashoffset" values="57.026" fill="freeze" begin="5a49.click" /><animate attributeName="stroke-dashoffset" values="57.026;57.026;0" keyTimes="0;0.753;1" dur="2.307s" fill="freeze" begin="0s;5a49.click" /></path><path d="M53.91,39.92c0.15,0.46,0.56,1.85,0.29,2.74c-1.81,6.07-7.25,15.82-14.55,24.28" stroke-dasharray="31.269" stroke-dashoffset="31.269"><animate attributeName="stroke-dashoffset" values="31.269" fill="freeze" begin="5a49.click" /><animate attributeName="stroke-dashoffset" values="31.269;31.269;0" keyTimes="0;0.881;1" dur="2.62s" fill="freeze" begin="0s;5a49.click" /></path><path d="M53.81,50.2c0.22,0.04,1.17,0,1.81-0.12c2.09-0.39,5.28-1.37,7.92-1.56c2.19-0.16,2.75,0.98,2.11,3.19C62,64.25,51.75,81.25,38.5,92.5" stroke-dasharray="64.401" stroke-dashoffset="64.401"><animate attributeName="stroke-dashoffset" values="64.401" fill="freeze" begin="5a49.click" /><animate attributeName="stroke-dashoffset" values="64.401;64.401;0" keyTimes="0;0.844;1" dur="3.104s" fill="freeze" begin="0s;5a49.click" /></path><path d="M47.09,60.6c2.5,1.66,6.45,6.85,7.08,9.43" stroke-dasharray="11.948" stroke-dashoffset="11.948"><animate attributeName="stroke-dashoffset" values="11.948" fill="freeze" begin="5a49.click" /><animate attributeName="stroke-dashoffset" values="11.948;11.948;0" keyTimes="0;0.963;1" dur="3.223s" fill="freeze" begin="0s;5a49.click" /></path><path d="M70.49,47.57c0.52,0.1,2.05,0.47,3.1,0.36c4.16-0.43,11.89-1.22,13.29-1.56c2.1-0.5,3.47,0.88,3.38,2.88c-0.14,3.4-1.98,13.54-4.3,19.07c-2.22,5.3-3.47,2.56-4.7,0.28" stroke-dasharray="49.197" stroke-dashoffset="49.197"><animate attributeName="stroke-dashoffset" values="49.197" fill="freeze" begin="5a49.click" /><animate attributeName="stroke-dashoffset" values="49.197;49.197;0" keyTimes="0;0.868;1" dur="3.715s" fill="freeze" begin="0s;5a49.click" /></path><path d="M72.14,48.42c0.6,1.45,0.62,3.16,0.62,5.4c0,13.34-0.28,18.59-0.28,25.38c0,13.63,2.79,14.05,13.27,14.05c11.95,0,12.64-1.15,12.64-11.12" stroke-dasharray="75.441" stroke-dashoffset="75.441"><animate attributeName="stroke-dashoffset" values="75.441" fill="freeze" begin="5a49.click" /><animate attributeName="stroke-dashoffset" values="75.441;75.441;0" keyTimes="0;0.868;1" dur="4.282s" fill="freeze" begin="0s;5a49.click" /></path></g></svg>