<svg xmlns="http://www.w3.org/2000/svg" width="109" height="109" viewBox="0 0 109 109" id="5acc"><g fill="none" stroke="#666" stroke-width="6" stroke-linecap="round" stroke-linejoin="round"><g><g><path d="M28.25,19.87c0.37,0.97,0.53,2.55,0.34,3.95c-0.93,6.88-5.72,25.56-10.56,34.62c-0.87,1.63-0.65,2.52,0.84,2.95c6.5,1.86,11,5.36,14.85,9.63c1.8,2,3.22,4.38,4.86,6.73" /><path d="M37.12,36.53c0.08,1.18,0.13,3.05-0.15,4.76C34.68,55.11,29.75,73.25,12.74,86" /><path d="M12.25,45.18c0.5,1.07,1.46,1.52,3.31,1.05c2.82-0.72,16.25-3.8,24.69-6.02" /></g><g p4:phon="兼" xmlns:p4="http://kanjivg.tagaini.net"><g><g><path d="M50.12,15.12c2.67,2.08,6.9,8.55,7.56,11.79" /></g><g><path d="M78.11,11.89c0.07,0.78-0.41,1.57-0.74,2.27c-1.5,3.21-3.55,6.34-8.02,11.67" /></g></g><g><path d="M45.87,30.18c2.51,0.44,5.08,0.19,7.14-0.05c7.17-0.83,21.33-2.27,29.74-3.12c2.19-0.22,4.63-0.29,6.77,0.25" /><g><path d="M48.13,42.38c2.05,0.34,4.02,0.41,6.12,0.14c8.58-1.12,18.59-2.45,26.37-3.09c2.57-0.21,4.09,0.84,3.6,3.7c-1,5.86-1.7,7.14-3.04,17.22" /><path d="M42.25,53.1c2.6,0.34,5.03,0.39,7.62,0.07c13.51-1.67,25.44-2.96,35.88-3.63c2.7-0.17,5.1-0.21,7.75,0.41" /><path d="M47.52,63.82c2.03,0.29,3.78,0.42,5.84,0.27c8.93-0.67,15.87-1.76,24.25-2.64c1.79-0.19,3.44-0.24,5.23-0.02" /></g><g><path d="M57.64,31.23c0.81,0.81,1.15,1.77,1.15,3.17c0,2.9,0.04,40.25,0.06,56.47c0,3.92,0.01,6.57,0.01,7.12" /></g><g><path d="M69.11,29.81c0.85,0.85,1.15,2.17,1.15,3.17c0,4.13,0.04,39.52,0.06,56.77c0,4.89,0.01,7.17,0.01,8.28" /></g><path d="M57.38,65.33c0,1.8-0.89,3.58-1.99,5.5c-4.54,7.93-11.89,15.83-18.01,19.86" /><path d="M71.41,64.4c2.84,3.6,8.84,11.23,15.38,17.56c2.18,2.11,4.02,4.15,6.41,5.98" /></g></g></g></g><g fill="none" stroke="#000" stroke-width="3" stroke-linecap="round" stroke-linejoin="round"><path d="M28.25,19.87c0.37,0.97,0.53,2.55,0.34,3.95c-0.93,6.88-5.72,25.56-10.56,34.62c-0.87,1.63-0.65,2.52,0.84,2.95c6.5,1.86,11,5.36,14.85,9.63c1.8,2,3.22,4.38,4.86,6.73" stroke-dasharray="70.333" stroke-dashoffset="70.333"><animate attributeName="stroke-dashoffset" values="70.333;70.333;0" dur="0.529s" fill="freeze" begin="0s;5acc.click" /></path><path d="M37.12,36.53c0.08,1.18,0.13,3.05-0.15,4.76C34.68,55.11,29.75,73.25,12.74,86" stroke-dasharray="56.995" stroke-dashoffset="56.995"><animate attributeName="stroke-dashoffset" values="56.995" fill="freeze" begin="5acc.click" /><animate attributeName="stroke-dashoffset" values="56.995;56.995;0" keyTimes="0;0.481;1" dur="1.099s" fill="freeze" begin="0s;5acc.click" /></path><path d="M12.25,45.18c0.5,1.07,1.46,1.52,3.31,1.05c2.82-0.72,16.25-3.8,24.69-6.02" stroke-dasharray="29.245" stroke-dashoffset="29.245"><animate attributeName="stroke-dashoffset" values="29.245" fill="freeze" begin="5acc.click" /><animate attributeName="stroke-dashoffset" values="29.245;29.245;0" keyTimes="0;0.79;1" dur="1.391s" fill="freeze" begin="0s;5acc.click" /></path><path d="M50.12,15.12c2.67,2.08,6.9,8.55,7.56,11.79" stroke-dasharray="14.173" stroke-dashoffset="14.173"><animate attributeName="stroke-dashoffset" values="14.173" fill="freeze" begin="5acc.click" /><animate attributeName="stroke-dashoffset" values="14.173;14.173;0" keyTimes="0;0.907;1" dur="1.533s" fill="freeze" begin="0s;5acc.click" /></path><path d="M78.11,11.89c0.07,0.78-0.41,1.57-0.74,2.27c-1.5,3.21-3.55,6.34-8.02,11.67" stroke-dasharray="16.621" stroke-dashoffset="16.621"><animate attributeName="stroke-dashoffset" values="16.621" fill="freeze" begin="5acc.click" /><animate attributeName="stroke-dashoffset" values="16.621;16.621;0" keyTimes="0;0.902;1" dur="1.699s" fill="freeze" begin="0s;5acc.click" /></path><path d="M45.87,30.18c2.51,0.44,5.08,0.19,7.14-0.05c7.17-0.83,21.33-2.27,29.74-3.12c2.19-0.22,4.63-0.29,6.77,0.25" stroke-dasharray="43.879" stroke-dashoffset="43.879"><animate attributeName="stroke-dashoffset" values="43.879" fill="freeze" begin="5acc.click" /><animate attributeName="stroke-dashoffset" values="43.879;43.879;0" keyTimes="0;0.795;1" dur="2.138s" fill="freeze" begin="0s;5acc.click" /></path><path d="M48.13,42.38c2.05,0.34,4.02,0.41,6.12,0.14c8.58-1.12,18.59-2.45,26.37-3.09c2.57-0.21,4.09,0.84,3.6,3.7c-1,5.86-1.7,7.14-3.04,17.22" stroke-dasharray="56.509" stroke-dashoffset="56.509"><animate attributeName="stroke-dashoffset" values="56.509" fill="freeze" begin="5acc.click" /><animate attributeName="stroke-dashoffset" values="56.509;56.509;0" keyTimes="0;0.791;1" dur="2.703s" fill="freeze" begin="0s;5acc.click" /></path><path d="M42.25,53.1c2.6,0.34,5.03,0.39,7.62,0.07c13.51-1.67,25.44-2.96,35.88-3.63c2.7-0.17,5.1-0.21,7.75,0.41" stroke-dasharray="51.502" stroke-dashoffset="51.502"><animate attributeName="stroke-dashoffset" values="51.502" fill="freeze" begin="5acc.click" /><animate attributeName="stroke-dashoffset" values="51.502;51.502;0" keyTimes="0;0.84;1" dur="3.218s" fill="freeze" begin="0s;5acc.click" /></path><path d="M47.52,63.82c2.03,0.29,3.78,0.42,5.84,0.27c8.93-0.67,15.87-1.76,24.25-2.64c1.79-0.19,3.44-0.24,5.23-0.02" stroke-dasharray="35.497" stroke-dashoffset="35.497"><animate attributeName="stroke-dashoffset" values="35.497" fill="freeze" begin="5acc.click" /><animate attributeName="stroke-dashoffset" values="35.497;35.497;0" keyTimes="0;0.901;1" dur="3.573s" fill="freeze" begin="0s;5acc.click" /></path><path d="M57.64,31.23c0.81,0.81,1.15,1.77,1.15,3.17c0,2.9,0.04,40.25,0.06,56.47c0,3.92,0.01,6.57,0.01,7.12" stroke-dasharray="67.063" stroke-dashoffset="67.063"><animate attributeName="stroke-dashoffset" values="67.063" fill="freeze" begin="5acc.click" /><animate attributeName="stroke-dashoffset" values="67.063;67.063;0" keyTimes="0;0.876;1" dur="4.077s" fill="freeze" begin="0s;5acc.click" /></path><path d="M69.11,29.81c0.85,0.85,1.15,2.17,1.15,3.17c0,4.13,0.04,39.52,0.06,56.77c0,4.89,0.01,7.17,0.01,8.28" stroke-dasharray="68.506" stroke-dashoffset="68.506"><animate attributeName="stroke-dashoffset" values="68.506" fill="freeze" begin="5acc.click" /><animate attributeName="stroke-dashoffset" values="68.506;68.506;0" keyTimes="0;0.888;1" dur="4.592s" fill="freeze" begin="0s;5acc.click" /></path><path d="M57.38,65.33c0,1.8-0.89,3.58-1.99,5.5c-4.54,7.93-11.89,15.83-18.01,19.86" stroke-dasharray="32.936" stroke-dashoffset="32.936"><animate attributeName="stroke-dashoffset" values="32.936" fill="freeze" begin="5acc.click" /><animate attributeName="stroke-dashoffset" values="32.936;32.936;0" keyTimes="0;0.933;1" dur="4.921s" fill="freeze" begin="0s;5acc.click" /></path><path d="M71.41,64.4c2.84,3.6,8.84,11.23,15.38,17.56c2.18,2.11,4.02,4.15,6.41,5.98" stroke-dasharray="32.135" stroke-dashoffset="32.135"><animate attributeName="stroke-dashoffset" values="32.135" fill="freeze" begin="5acc.click" /><animate attributeName="stroke-dashoffset" values="32.135;32.135;0" keyTimes="0;0.939;1" dur="5.242s" fill="freeze" begin="0s;5acc.click" /></path></g></svg>