<svg xmlns="http://www.w3.org/2000/svg" width="109" height="109" viewBox="0 0 109 109" id="5ae1"><g fill="none" stroke="#666" stroke-width="9" stroke-linecap="round" stroke-linejoin="round"><g><g><path d="M29.87,18.37c0.38,1.24,0.57,3.03,0.38,4.83c-0.97,8.84-7.49,31.45-11.77,41.79c-0.88,2.12-1.06,2.64,0.38,3.14c6.4,2.24,11.27,4.62,16.86,9.41c2.45,2.1,4.38,4.98,6.28,8.2" /><path d="M41.5,38.3c0.75,1.33,0.89,3.22,0.58,5.11C39.63,58.7,33.12,80.38,14.75,93" /><path d="M10.75,50.92c0.5,1.08,1.53,1.59,3.5,1.15c11.88-2.69,17-4.19,31-7.5" /></g><g p4:phon="啇" xmlns:p4="http://kanjivg.tagaini.net"><g><path d="M69.5,12.75c1.12,0.79,1.43,2.04,1.43,3.89s0,3.33,0,8.35" /><path d="M47.8,27.56c2.58,0.69,5.58,0.32,8.2,0.02c10.5-1.21,21.13-2.58,31.13-3.46c2.71-0.24,5.36-0.33,8.07,0.11" /></g><path d="M58.11,30.96c3.54,4.14,5.15,8.38,5.47,11.1" /><path d="M82.58,28.1c0.6,0.43,0.68,0.64,0.6,1c-0.48,2.42-4.96,10.11-6.17,11.96" /><g><path d="M50.51,44.71c1.14,1.14,1.35,2.42,1.35,3.82c0,0.89-0.06,27.16-0.08,40.22c-0.01,4.25-0.02,7.1-0.02,7.22" /><path d="M52.6,46.33c4.91-0.56,28.04-2.8,35.04-3.55c4.2-0.45,5.7,0.31,5.7,4.46c0,9.25-0.05,41.7-0.05,44.97c0,6.01-4.1,2.22-6.34-0.03" /></g><g><g><path d="M57.99,57.73c1.67,0.54,3.3,0.23,5,0.02c4.86-0.6,13.5-2.02,18.65-2.32c1.19-0.07,2.9-0.3,4.07-0.07" /><path d="M70.25,47.63c1.37,1.37,1.46,2.37,1.46,4.11c0,6.47-0.09,10.46-0.09,14.38" /></g><g><path d="M60.62,67.83c1.14,0.63,1.4,1.36,1.62,2.54c0.38,1.99,1.03,5.42,1.58,8.62c0.29,1.69,0.55,3.31,0.73,4.62" /><path d="M62.72,68.74c4.1-0.4,12.43-1.89,16.65-2.32c2.37-0.24,3.79-0.13,3.33,2.46c-0.47,2.64-1.43,6.81-2.05,9.78" /><path d="M64.99,81.37c4.01-0.49,9.64-1.13,14.28-1.62c1.08-0.11,2.09-0.2,2.97-0.25" /></g></g></g></g></g><g fill="none" stroke="#000" stroke-width="5" stroke-linecap="round" stroke-linejoin="round"><g><g><path d="M29.87,18.37c0.38,1.24,0.57,3.03,0.38,4.83c-0.97,8.84-7.49,31.45-11.77,41.79c-0.88,2.12-1.06,2.64,0.38,3.14c6.4,2.24,11.27,4.62,16.86,9.41c2.45,2.1,4.38,4.98,6.28,8.2" stroke-dasharray="82.01" stroke-dashoffset="82.01"><animate id="0" attributeName="stroke-dashoffset" values="82.01;0" dur="0.62s" fill="freeze" begin="0s;5ae1.click" /></path><path d="M41.5,38.3c0.75,1.33,0.89,3.22,0.58,5.11C39.63,58.7,33.12,80.38,14.75,93" stroke-dasharray="63.46" stroke-dashoffset="63.46"><animate attributeName="stroke-dashoffset" values="63.46" fill="freeze" begin="5ae1.click" /><animate id="1" attributeName="stroke-dashoffset" values="63.46;0" dur="0.48s" fill="freeze" begin="0.end" /></path><path d="M10.75,50.92c0.5,1.08,1.53,1.59,3.5,1.15c11.88-2.69,17-4.19,31-7.5" stroke-dasharray="35.93" stroke-dashoffset="35.93"><animate attributeName="stroke-dashoffset" values="35.93" fill="freeze" begin="5ae1.click" /><animate id="2" attributeName="stroke-dashoffset" values="35.93;0" dur="0.36s" fill="freeze" begin="1.end" /></path></g><g p4:phon="啇" xmlns:p4="http://kanjivg.tagaini.net"><g><path d="M69.5,12.75c1.12,0.79,1.43,2.04,1.43,3.89s0,3.33,0,8.35" stroke-dasharray="12.67" stroke-dashoffset="12.67"><animate attributeName="stroke-dashoffset" values="12.67" fill="freeze" begin="5ae1.click" /><animate id="3" attributeName="stroke-dashoffset" values="12.67;0" dur="0.13s" fill="freeze" begin="2.end" /></path><path d="M47.8,27.56c2.58,0.69,5.58,0.32,8.2,0.02c10.5-1.21,21.13-2.58,31.13-3.46c2.71-0.24,5.36-0.33,8.07,0.11" stroke-dasharray="47.66" stroke-dashoffset="47.66"><animate attributeName="stroke-dashoffset" values="47.66" fill="freeze" begin="5ae1.click" /><animate id="4" attributeName="stroke-dashoffset" values="47.66;0" dur="0.48s" fill="freeze" begin="3.end" /></path></g><path d="M58.11,30.96c3.54,4.14,5.15,8.38,5.47,11.1" stroke-dasharray="12.54" stroke-dashoffset="12.54"><animate attributeName="stroke-dashoffset" values="12.54" fill="freeze" begin="5ae1.click" /><animate id="5" attributeName="stroke-dashoffset" values="12.54;0" dur="0.13s" fill="freeze" begin="4.end" /></path><path d="M82.58,28.1c0.6,0.43,0.68,0.64,0.6,1c-0.48,2.42-4.96,10.11-6.17,11.96" stroke-dasharray="14.75" stroke-dashoffset="14.75"><animate attributeName="stroke-dashoffset" values="14.75" fill="freeze" begin="5ae1.click" /><animate id="6" attributeName="stroke-dashoffset" values="14.75;0" dur="0.15s" fill="freeze" begin="5.end" /></path><g><path d="M50.51,44.71c1.14,1.14,1.35,2.42,1.35,3.82c0,0.89-0.06,27.16-0.08,40.22c-0.01,4.25-0.02,7.1-0.02,7.22" stroke-dasharray="51.61" stroke-dashoffset="51.61"><animate attributeName="stroke-dashoffset" values="51.61" fill="freeze" begin="5ae1.click" /><animate id="7" attributeName="stroke-dashoffset" values="51.61;0" dur="0.52s" fill="freeze" begin="6.end" /></path><path d="M52.6,46.33c4.91-0.56,28.04-2.8,35.04-3.55c4.2-0.45,5.7,0.31,5.7,4.46c0,9.25-0.05,41.7-0.05,44.97c0,6.01-4.1,2.22-6.34-0.03" stroke-dasharray="98.93" stroke-dashoffset="98.93"><animate attributeName="stroke-dashoffset" values="98.93" fill="freeze" begin="5ae1.click" /><animate id="8" attributeName="stroke-dashoffset" values="98.93;0" dur="0.74s" fill="freeze" begin="7.end" /></path></g><g><g><path d="M57.99,57.73c1.67,0.54,3.3,0.23,5,0.02c4.86-0.6,13.5-2.02,18.65-2.32c1.19-0.07,2.9-0.3,4.07-0.07" stroke-dasharray="27.93" stroke-dashoffset="27.93"><animate attributeName="stroke-dashoffset" values="27.93" fill="freeze" begin="5ae1.click" /><animate id="9" attributeName="stroke-dashoffset" values="27.93;0" dur="0.28s" fill="freeze" begin="8.end" /></path><path d="M70.25,47.63c1.37,1.37,1.46,2.37,1.46,4.11c0,6.47-0.09,10.46-0.09,14.38" stroke-dasharray="18.9" stroke-dashoffset="18.9"><animate attributeName="stroke-dashoffset" values="18.9" fill="freeze" begin="5ae1.click" /><animate id="10" attributeName="stroke-dashoffset" values="18.9;0" dur="0.19s" fill="freeze" begin="9.end" /></path></g><g><path d="M60.62,67.83c1.14,0.63,1.4,1.36,1.62,2.54c0.38,1.99,1.03,5.42,1.58,8.62c0.29,1.69,0.55,3.31,0.73,4.62" stroke-dasharray="16.59" stroke-dashoffset="16.59"><animate attributeName="stroke-dashoffset" values="16.59" fill="freeze" begin="5ae1.click" /><animate id="11" attributeName="stroke-dashoffset" values="16.59;0" dur="0.17s" fill="freeze" begin="10.end" /></path><path d="M62.72,68.74c4.1-0.4,12.43-1.89,16.65-2.32c2.37-0.24,3.79-0.13,3.33,2.46c-0.47,2.64-1.43,6.81-2.05,9.78" stroke-dasharray="32.12" stroke-dashoffset="32.12"><animate attributeName="stroke-dashoffset" values="32.12" fill="freeze" begin="5ae1.click" /><animate id="12" attributeName="stroke-dashoffset" values="32.12;0" dur="0.32s" fill="freeze" begin="11.end" /></path><path d="M64.99,81.37c4.01-0.49,9.64-1.13,14.28-1.62c1.08-0.11,2.09-0.2,2.97-0.25" stroke-dasharray="17.35" stroke-dashoffset="17.35"><animate attributeName="stroke-dashoffset" values="17.35" fill="freeze" begin="5ae1.click" /><animate id="13" attributeName="stroke-dashoffset" values="17.35;0" dur="0.17s" fill="freeze" begin="12.end" /></path></g></g></g></g></g></svg>