<svg xmlns="http://www.w3.org/2000/svg" width="109" height="109" viewBox="0 0 109 109" id="5ae6"><g fill="none" stroke="#666" stroke-width="9" stroke-linecap="round" stroke-linejoin="round"><g><g><path d="M25.98,16.87c0.39,1.04,1.08,2.74,0.89,4.24c-0.98,7.39-6.31,34.15-10.63,42.79c-0.89,1.77,0.4,2.46,0.89,2.63c9.38,3.22,16.63,9.72,21.13,17.75" /><path d="M37.75,36.89c0.08,1.27,0.14,4.34-0.16,6.18C35.18,57.91,28.23,78.96,11,90" /><path d="M7.5,46.72c0.75,0.94,1.75,1.62,3.75,1.39c2.15-0.24,19-3.61,30.25-5.73" /></g><g><g><g><path d="M68.29,10.12c0.09,0.26,1.26,1.38,1.35,3.06c0.43,8.07,0.26,13.86,0.26,16.61" /><path d="M51.9,15.66c2.49,1.69,6.44,6.96,7.07,9.59" /><path d="M88.05,13.44c0.02,0.27,0.04,0.71-0.04,1.1c-0.48,2.32-3.21,7.4-6.96,10.51" /></g><g><g><path d="M49.43,28.23c-0.12,3.58-2.17,11.99-3.18,14.12" /><path d="M48.63,32.73c6.46-1.14,31.22-4.11,44.2-4.92c8.93-0.56,0.71,6.7-0.51,7.93" /></g><g p7:part="1" xmlns:p7="http://kanjivg.tagaini.net"><g><path d="M55.51,41.13c0.21,0.2,0.46,0.36,0.53,0.62c0.61,2.32,1.78,11.88,2.39,15.28" /><path d="M56.85,42.49c3.96-0.49,23.38-2.77,27.03-3.27c0.92-0.12,1.99,0.6,1.6,2.02c-0.64,2.31-2.34,8-3.42,11.13" /><path d="M58.88,54.87c5.12-0.67,19.57-1.85,24.88-2.22" /></g></g></g></g><g p5:part="2" xmlns:p5="http://kanjivg.tagaini.net"><g><path d="M50.59,65.1c0.34,1.09,1.18,2.76,1.28,3.5c0.1,0.74,0.33,16.4,0.22,21.01" /><path d="M51.82,67.7c3-0.25,35.86-3.67,38.1-3.69c1.58-0.01,3.53,1.59,3.6,3.19c0.19,4.34-0.39,13.84-1.13,17.49c-1.14,5.67-4.94,1.28-6.2-0.67" /><path d="M69.41,56.37c0.43,0.31,1.42,2.34,1.42,2.97c0,7.19-0.05,36.73-0.14,40.65" /></g></g></g></g></g><g fill="none" stroke="#000" stroke-width="5" stroke-linecap="round" stroke-linejoin="round"><g><g><path d="M25.98,16.87c0.39,1.04,1.08,2.74,0.89,4.24c-0.98,7.39-6.31,34.15-10.63,42.79c-0.89,1.77,0.4,2.46,0.89,2.63c9.38,3.22,16.63,9.72,21.13,17.75" stroke-dasharray="80.02" stroke-dashoffset="80.02"><animate id="0" attributeName="stroke-dashoffset" values="80.02;0" dur="0.6s" fill="freeze" begin="0s;5ae6.click" /></path><path d="M37.75,36.89c0.08,1.27,0.14,4.34-0.16,6.18C35.18,57.91,28.23,78.96,11,90" stroke-dasharray="61.72" stroke-dashoffset="61.72"><animate attributeName="stroke-dashoffset" values="61.72" fill="freeze" begin="5ae6.click" /><animate id="1" attributeName="stroke-dashoffset" values="61.72;0" dur="0.46s" fill="freeze" begin="0.end" /></path><path d="M7.5,46.72c0.75,0.94,1.75,1.62,3.75,1.39c2.15-0.24,19-3.61,30.25-5.73" stroke-dasharray="35" stroke-dashoffset="35"><animate attributeName="stroke-dashoffset" values="35" fill="freeze" begin="5ae6.click" /><animate id="2" attributeName="stroke-dashoffset" values="35;0" dur="0.35s" fill="freeze" begin="1.end" /></path></g><g><g><g><path d="M68.29,10.12c0.09,0.26,1.26,1.38,1.35,3.06c0.43,8.07,0.26,13.86,0.26,16.61" stroke-dasharray="20.01" stroke-dashoffset="20.01"><animate attributeName="stroke-dashoffset" values="20.01" fill="freeze" begin="5ae6.click" /><animate id="3" attributeName="stroke-dashoffset" values="20.01;0" dur="0.2s" fill="freeze" begin="2.end" /></path><path d="M51.9,15.66c2.49,1.69,6.44,6.96,7.07,9.59" stroke-dasharray="12.07" stroke-dashoffset="12.07"><animate attributeName="stroke-dashoffset" values="12.07" fill="freeze" begin="5ae6.click" /><animate id="4" attributeName="stroke-dashoffset" values="12.07;0" dur="0.12s" fill="freeze" begin="3.end" /></path><path d="M88.05,13.44c0.02,0.27,0.04,0.71-0.04,1.1c-0.48,2.32-3.21,7.4-6.96,10.51" stroke-dasharray="13.88" stroke-dashoffset="13.88"><animate attributeName="stroke-dashoffset" values="13.88" fill="freeze" begin="5ae6.click" /><animate id="5" attributeName="stroke-dashoffset" values="13.88;0" dur="0.14s" fill="freeze" begin="4.end" /></path></g><g><g><path d="M49.43,28.23c-0.12,3.58-2.17,11.99-3.18,14.12" stroke-dasharray="14.52" stroke-dashoffset="14.52"><animate attributeName="stroke-dashoffset" values="14.52" fill="freeze" begin="5ae6.click" /><animate id="6" attributeName="stroke-dashoffset" values="14.52;0" dur="0.15s" fill="freeze" begin="5.end" /></path><path d="M48.63,32.73c6.46-1.14,31.22-4.11,44.2-4.92c8.93-0.56,0.71,6.7-0.51,7.93" stroke-dasharray="57.38" stroke-dashoffset="57.38"><animate attributeName="stroke-dashoffset" values="57.38" fill="freeze" begin="5ae6.click" /><animate id="7" attributeName="stroke-dashoffset" values="57.38;0" dur="0.57s" fill="freeze" begin="6.end" /></path></g><g p7:part="1" xmlns:p7="http://kanjivg.tagaini.net"><g><path d="M55.51,41.13c0.21,0.2,0.46,0.36,0.53,0.62c0.61,2.32,1.78,11.88,2.39,15.28" stroke-dasharray="16.3" stroke-dashoffset="16.3"><animate attributeName="stroke-dashoffset" values="16.3" fill="freeze" begin="5ae6.click" /><animate id="8" attributeName="stroke-dashoffset" values="16.3;0" dur="0.16s" fill="freeze" begin="7.end" /></path><path d="M56.85,42.49c3.96-0.49,23.38-2.77,27.03-3.27c0.92-0.12,1.99,0.6,1.6,2.02c-0.64,2.31-2.34,8-3.42,11.13" stroke-dasharray="41.98" stroke-dashoffset="41.98"><animate attributeName="stroke-dashoffset" values="41.98" fill="freeze" begin="5ae6.click" /><animate id="9" attributeName="stroke-dashoffset" values="41.98;0" dur="0.42s" fill="freeze" begin="8.end" /></path><path d="M58.88,54.87c5.12-0.67,19.57-1.85,24.88-2.22" stroke-dasharray="24.98" stroke-dashoffset="24.98"><animate attributeName="stroke-dashoffset" values="24.98" fill="freeze" begin="5ae6.click" /><animate id="10" attributeName="stroke-dashoffset" values="24.98;0" dur="0.25s" fill="freeze" begin="9.end" /></path></g></g></g></g><g p5:part="2" xmlns:p5="http://kanjivg.tagaini.net"><g><path d="M50.59,65.1c0.34,1.09,1.18,2.76,1.28,3.5c0.1,0.74,0.33,16.4,0.22,21.01" stroke-dasharray="24.74" stroke-dashoffset="24.74"><animate attributeName="stroke-dashoffset" values="24.74" fill="freeze" begin="5ae6.click" /><animate id="11" attributeName="stroke-dashoffset" values="24.74;0" dur="0.25s" fill="freeze" begin="10.end" /></path><path d="M51.82,67.7c3-0.25,35.86-3.67,38.1-3.69c1.58-0.01,3.53,1.59,3.6,3.19c0.19,4.34-0.39,13.84-1.13,17.49c-1.14,5.67-4.94,1.28-6.2-0.67" stroke-dasharray="70.36" stroke-dashoffset="70.36"><animate attributeName="stroke-dashoffset" values="70.36" fill="freeze" begin="5ae6.click" /><animate id="12" attributeName="stroke-dashoffset" values="70.36;0" dur="0.53s" fill="freeze" begin="11.end" /></path><path d="M69.41,56.37c0.43,0.31,1.42,2.34,1.42,2.97c0,7.19-0.05,36.73-0.14,40.65" stroke-dasharray="43.98" stroke-dashoffset="43.98"><animate attributeName="stroke-dashoffset" values="43.98" fill="freeze" begin="5ae6.click" /><animate id="13" attributeName="stroke-dashoffset" values="43.98;0" dur="0.44s" fill="freeze" begin="12.end" /></path></g></g></g></g></g></svg>