<svg xmlns="http://www.w3.org/2000/svg" viewBox="0 0 109 109" id="5b2a"><g fill="none" stroke="#666" stroke-width="6" stroke-linecap="round" stroke-linejoin="round"><g><g><path d="M27.98,16.87c0.39,1.04,1.08,2.74,0.89,4.24c-0.98,7.39-7.31,34.65-11.63,43.29c-0.89,1.77,0.4,2.46,0.89,2.63c9.38,3.22,17.38,9.12,22.63,16.75" /><path d="M38.76,36.64c0.08,1.28,0.13,4.4-0.15,6.27C36.33,57.96,29.76,79.3,13.5,90.5" /><path d="M9.5,46.72c0.75,0.94,1.75,1.62,3.75,1.39c2.15-0.24,21.34-4.35,30.25-6.73" /></g><g><g><g><path d="M69.15,11.05c0.87,0.34,2.11,2.02,2.09,3c-0.06,3.1-0.06,5.13-0.07,7.96" /><g><path d="M50.24,21.89c0,2.77-2.39,11.31-3.3,13.16" /><path d="M50.56,24.7c6.28-0.79,37.81-3.6,42.9-3.9c7.97-0.47,1.69,5.2-0.3,6.89" /></g></g><path d="M56.58,30.81c0.73,0.35,2.05,0.39,2.78,0.35c4.94-0.25,18.3-2.31,22.32-2.65c1.2-0.1,1.93,0.17,2.54,0.35" /><g p6:partial xmlns:p6="http://kanjivg.tagaini.net"><g p6:partial><path d="M70.36,31.71c0.05,0.23,0.69,1.22,0.74,2.72c0.24,7.16-0.15,6.53-0.15,8.97c0,6.92-4.24,1.24-5.12,0.62" /><path d="M56.45,37.04c0.03,0.26,0.11,0.68-0.06,1.04c-1.18,2.58-6.16,7.55-10.21,9.93" /></g><g><path d="M84.92,34.8c0.1,0.55,0.01,1.95-0.62,2.65C78.61,43.72,64.75,52.5,46.5,58.28" /></g></g></g><g><g><path d="M58.05,54.4c0.8,1.03,1.21,1.76,1.21,3.44c0,3.81-0.36,15.43-0.36,26.46" /><path d="M60.09,54.81c2.79-0.21,24.06-2.35,26.61-2.6c2.12-0.21,3.25,1.16,3.25,2.73c0,3.84-0.62,26.78-0.62,28.05" /><path d="M59.32,63.42c5.22-0.32,25.46-1.76,29.93-1.76" /><path d="M59.55,72.59c7.87-0.61,21.39-1.86,29.74-1.98" /><path d="M59.19,82.38c7.88-0.46,22.92-2.17,30.1-2.17" /></g><g><path d="M66.34,85.34c0.38,0.92-0.25,2.17-1,2.84c-2.27,2.02-8.77,6.49-13.31,8.88" /><path d="M79.25,86.86c6.48,3.14,14.14,8.83,15.91,11.58" /></g></g></g></g></g><g fill="none" stroke="#000" stroke-width="3" stroke-linecap="round" stroke-linejoin="round"><path d="M27.98,16.87c0.39,1.04,1.08,2.74,0.89,4.24c-0.98,7.39-7.31,34.65-11.63,43.29c-0.89,1.77,0.4,2.46,0.89,2.63c9.38,3.22,17.38,9.12,22.63,16.75" stroke-dasharray="81.159" stroke-dashoffset="81.159"><animate attributeName="stroke-dashoffset" values="81.159;81.159;0" dur="0.61s" fill="freeze" begin="0s;5b2a.click" /></path><path d="M38.76,36.64c0.08,1.28,0.13,4.4-0.15,6.27C36.33,57.96,29.76,79.3,13.5,90.5" stroke-dasharray="61.562" stroke-dashoffset="61.562"><animate attributeName="stroke-dashoffset" values="61.562" fill="freeze" begin="5b2a.click" /><animate attributeName="stroke-dashoffset" values="61.562;61.562;0" keyTimes="0;0.568;1" dur="1.073s" fill="freeze" begin="0s;5b2a.click" /></path><path d="M9.5,46.72c0.75,0.94,1.75,1.62,3.75,1.39c2.15-0.24,21.34-4.35,30.25-6.73" stroke-dasharray="35.208" stroke-dashoffset="35.208"><animate attributeName="stroke-dashoffset" values="35.208" fill="freeze" begin="5b2a.click" /><animate attributeName="stroke-dashoffset" values="35.208;35.208;0" keyTimes="0;0.753;1" dur="1.425s" fill="freeze" begin="0s;5b2a.click" /></path><path d="M69.15,11.05c0.87,0.34,2.11,2.02,2.09,3c-0.06,3.1-0.06,5.13-0.07,7.96" stroke-dasharray="11.758" stroke-dashoffset="11.758"><animate attributeName="stroke-dashoffset" values="11.758" fill="freeze" begin="5b2a.click" /><animate attributeName="stroke-dashoffset" values="11.758;11.758;0" keyTimes="0;0.924;1" dur="1.543s" fill="freeze" begin="0s;5b2a.click" /></path><path d="M50.24,21.89c0,2.77-2.39,11.31-3.3,13.16" stroke-dasharray="13.613" stroke-dashoffset="13.613"><animate attributeName="stroke-dashoffset" values="13.613" fill="freeze" begin="5b2a.click" /><animate attributeName="stroke-dashoffset" values="13.613;13.613;0" keyTimes="0;0.919;1" dur="1.679s" fill="freeze" begin="0s;5b2a.click" /></path><path d="M50.56,24.7c6.28-0.79,37.81-3.6,42.9-3.9c7.97-0.47,1.69,5.2-0.3,6.89" stroke-dasharray="54.758" stroke-dashoffset="54.758"><animate attributeName="stroke-dashoffset" values="54.758" fill="freeze" begin="5b2a.click" /><animate attributeName="stroke-dashoffset" values="54.758;54.758;0" keyTimes="0;0.754;1" dur="2.227s" fill="freeze" begin="0s;5b2a.click" /></path><path d="M56.58,30.81c0.73,0.35,2.05,0.39,2.78,0.35c4.94-0.25,18.3-2.31,22.32-2.65c1.2-0.1,1.93,0.17,2.54,0.35" stroke-dasharray="27.89" stroke-dashoffset="27.89"><animate attributeName="stroke-dashoffset" values="27.89" fill="freeze" begin="5b2a.click" /><animate attributeName="stroke-dashoffset" values="27.89;27.89;0" keyTimes="0;0.889;1" dur="2.506s" fill="freeze" begin="0s;5b2a.click" /></path><path d="M70.36,31.71c0.05,0.23,0.69,1.22,0.74,2.72c0.24,7.16-0.15,6.53-0.15,8.97c0,6.92-4.24,1.24-5.12,0.62" stroke-dasharray="20.588" stroke-dashoffset="20.588"><animate attributeName="stroke-dashoffset" values="20.588" fill="freeze" begin="5b2a.click" /><animate attributeName="stroke-dashoffset" values="20.588;20.588;0" keyTimes="0;0.924;1" dur="2.712s" fill="freeze" begin="0s;5b2a.click" /></path><path d="M56.45,37.04c0.03,0.26,0.11,0.68-0.06,1.04c-1.18,2.58-6.16,7.55-10.21,9.93" stroke-dasharray="15.438" stroke-dashoffset="15.438"><animate attributeName="stroke-dashoffset" values="15.438" fill="freeze" begin="5b2a.click" /><animate attributeName="stroke-dashoffset" values="15.438;15.438;0" keyTimes="0;0.946;1" dur="2.866s" fill="freeze" begin="0s;5b2a.click" /></path><path d="M84.92,34.8c0.1,0.55,0.01,1.95-0.62,2.65C78.61,43.72,64.75,52.5,46.5,58.28" stroke-dasharray="46.349" stroke-dashoffset="46.349"><animate attributeName="stroke-dashoffset" values="46.349" fill="freeze" begin="5b2a.click" /><animate attributeName="stroke-dashoffset" values="46.349;46.349;0" keyTimes="0;0.861;1" dur="3.329s" fill="freeze" begin="0s;5b2a.click" /></path><path d="M58.05,54.4c0.8,1.03,1.21,1.76,1.21,3.44c0,3.81-0.36,15.43-0.36,26.46" stroke-dasharray="30.201" stroke-dashoffset="30.201"><animate attributeName="stroke-dashoffset" values="30.201" fill="freeze" begin="5b2a.click" /><animate attributeName="stroke-dashoffset" values="30.201;30.201;0" keyTimes="0;0.917;1" dur="3.631s" fill="freeze" begin="0s;5b2a.click" /></path><path d="M60.09,54.81c2.79-0.21,24.06-2.35,26.61-2.6c2.12-0.21,3.25,1.16,3.25,2.73c0,3.84-0.62,26.78-0.62,28.05" stroke-dasharray="59.652" stroke-dashoffset="59.652"><animate attributeName="stroke-dashoffset" values="59.652" fill="freeze" begin="5b2a.click" /><animate attributeName="stroke-dashoffset" values="59.652;59.652;0" keyTimes="0;0.859;1" dur="4.228s" fill="freeze" begin="0s;5b2a.click" /></path><path d="M59.32,63.42c5.22-0.32,25.46-1.76,29.93-1.76" stroke-dasharray="29.985" stroke-dashoffset="29.985"><animate attributeName="stroke-dashoffset" values="29.985" fill="freeze" begin="5b2a.click" /><animate attributeName="stroke-dashoffset" values="29.985;29.985;0" keyTimes="0;0.934;1" dur="4.528s" fill="freeze" begin="0s;5b2a.click" /></path><path d="M59.55,72.59c7.87-0.61,21.39-1.86,29.74-1.98" stroke-dasharray="29.811" stroke-dashoffset="29.811"><animate attributeName="stroke-dashoffset" values="29.811" fill="freeze" begin="5b2a.click" /><animate attributeName="stroke-dashoffset" values="29.811;29.811;0" keyTimes="0;0.938;1" dur="4.826s" fill="freeze" begin="0s;5b2a.click" /></path><path d="M59.19,82.38c7.88-0.46,22.92-2.17,30.1-2.17" stroke-dasharray="30.185" stroke-dashoffset="30.185"><animate attributeName="stroke-dashoffset" values="30.185" fill="freeze" begin="5b2a.click" /><animate attributeName="stroke-dashoffset" values="30.185;30.185;0" keyTimes="0;0.941;1" dur="5.128s" fill="freeze" begin="0s;5b2a.click" /></path><path d="M66.34,85.34c0.38,0.92-0.25,2.17-1,2.84c-2.27,2.02-8.77,6.49-13.31,8.88" stroke-dasharray="19.209" stroke-dashoffset="19.209"><animate attributeName="stroke-dashoffset" values="19.209" fill="freeze" begin="5b2a.click" /><animate attributeName="stroke-dashoffset" values="19.209;19.209;0" keyTimes="0;0.964;1" dur="5.32s" fill="freeze" begin="0s;5b2a.click" /></path><path d="M79.25,86.86c6.48,3.14,14.14,8.83,15.91,11.58" stroke-dasharray="19.815" stroke-dashoffset="19.815"><animate attributeName="stroke-dashoffset" values="19.815" fill="freeze" begin="5b2a.click" /><animate attributeName="stroke-dashoffset" values="19.815;19.815;0" keyTimes="0;0.964;1" dur="5.518s" fill="freeze" begin="0s;5b2a.click" /></path></g></svg>