<svg xmlns="http://www.w3.org/2000/svg" width="109" height="109" viewBox="0 0 109 109" id="5b3e"><g fill="none" stroke="#666" stroke-width="9" stroke-linecap="round" stroke-linejoin="round"><g><g><path d="M24.76,16.37c0.34,0.99,0.96,2.61,0.78,4.04c-0.87,7.02-7.53,32.48-11.35,40.7c-0.78,1.69,0.35,2.34,0.78,2.5c8.3,3.06,15.38,8.68,20.02,15.93" /><path d="M34.75,35.89c0.08,1.24,0.13,4.26-0.16,6.06C32.28,56.52,25.59,77.16,9,88" /><path d="M8,44.32c0.66,0.87,1.54,1.5,3.31,1.29c1.9-0.23,18.83-4.02,26.69-6.24" /></g><g><g><g p6:part="1" xmlns:p6="http://kanjivg.tagaini.net"><path d="M39.68,28.75c0.58,0.36,2.61,0.46,3.19,0.41c4.89-0.48,16.45-3.03,21.69-3.36c0.97-0.06,2.51,0.17,3,0.35" /></g><g><path d="M41.83,39.4c0.2,0.34,0.4,0.62,0.49,1.04c0.69,3.33,1.9,10.95,2.38,16.93" /><path d="M43.07,41.22c5.97-1.44,19.74-3.2,22.08-3.53c1.46-0.21,2.6,1.56,2.49,2.59c-0.57,5.24-1.78,8.45-2.59,12.4" /><path d="M44.79,55.41c7.17-0.83,16.11-2.14,21.49-2.77" /></g><g p6:part="2" xmlns:p6="http://kanjivg.tagaini.net"><path d="M52.89,13c0.97,0.48,1.55,2.18,1.74,3.15s-0.19,70.6-0.19,79.39" /><path d="M53.89,55.02C50.57,65.37,41.93,80,35.02,85.86" /><path d="M57.2,61.88c4.42,2.27,7.98,6.74,10.2,11.27" /></g></g><g><g><path d="M69.75,18.75c1.25,0.5,2.75,0.75,4.75,0.62c4.01-0.26,21.07-3.19,23.27-3.41c1.43-0.14,1.83,0.65,1.75,1.65c-0.21,2.65-3.81,12.98-6.03,14.78c-2.07,1.68-3.5,0.86-4.32-0.72" /><path d="M81.48,20.68c0.03,0.35,0.07,0.91-0.06,1.42c-0.92,3.74-3.75,9.71-9.79,13.56" /></g><g><g><path d="M73.69,40.71c0.35,0.97,0.85,1.7,0.85,2.96s-0.23,34.65-0.23,35.28c0,0.63,0.12,0.64,0.23,1.91" /><path d="M75.12,42.48c1.96-0.05,18.15-2.43,19.94-2.52c1.49-0.07,1.78,1.19,1.78,3.02c0,1.51-0.44,35.84-0.44,36.78" /><path d="M75.09,53.6C78.5,53.1,92.15,52,96.35,51.9" /><path d="M74.99,64.57c7.06-0.28,15.77-0.95,21.12-1.09" /><path d="M74.74,78.56c5.8-0.37,15.42-1.36,21.12-1.5" /></g><g><path d="M80.09,81.84c0.32,1.18,0.25,1.78-0.3,2.73c-1.8,3.09-6.59,7.72-11.54,10.86" /><path d="M90.38,83.23c3.55,3.03,8.03,9.74,9,12.28" /></g></g></g></g></g></g><g fill="none" stroke="#000" stroke-width="5" stroke-linecap="round" stroke-linejoin="round"><g><g><path d="M24.76,16.37c0.34,0.99,0.96,2.61,0.78,4.04c-0.87,7.02-7.53,32.48-11.35,40.7c-0.78,1.69,0.35,2.34,0.78,2.5c8.3,3.06,15.38,8.68,20.02,15.93" stroke-dasharray="75.51" stroke-dashoffset="75.51"><animate id="0" attributeName="stroke-dashoffset" values="75.51;0" dur="0.57s" fill="freeze" begin="0s;5b3e.click" /></path><path d="M34.75,35.89c0.08,1.24,0.13,4.26-0.16,6.06C32.28,56.52,25.59,77.16,9,88" stroke-dasharray="60.28" stroke-dashoffset="60.28"><animate attributeName="stroke-dashoffset" values="60.28" fill="freeze" begin="5b3e.click" /><animate id="1" attributeName="stroke-dashoffset" values="60.28;0" dur="0.45s" fill="freeze" begin="0.end" /></path><path d="M8,44.32c0.66,0.87,1.54,1.5,3.31,1.29c1.9-0.23,18.83-4.02,26.69-6.24" stroke-dasharray="31.17" stroke-dashoffset="31.17"><animate attributeName="stroke-dashoffset" values="31.17" fill="freeze" begin="5b3e.click" /><animate id="2" attributeName="stroke-dashoffset" values="31.17;0" dur="0.31s" fill="freeze" begin="1.end" /></path></g><g><g><g p6:part="1" xmlns:p6="http://kanjivg.tagaini.net"><path d="M39.68,28.75c0.58,0.36,2.61,0.46,3.19,0.41c4.89-0.48,16.45-3.03,21.69-3.36c0.97-0.06,2.51,0.17,3,0.35" stroke-dasharray="28.23" stroke-dashoffset="28.23"><animate attributeName="stroke-dashoffset" values="28.23" fill="freeze" begin="5b3e.click" /><animate id="3" attributeName="stroke-dashoffset" values="28.23;0" dur="0.28s" fill="freeze" begin="2.end" /></path></g><g><path d="M41.83,39.4c0.2,0.34,0.4,0.62,0.49,1.04c0.69,3.33,1.9,10.95,2.38,16.93" stroke-dasharray="18.26" stroke-dashoffset="18.26"><animate attributeName="stroke-dashoffset" values="18.26" fill="freeze" begin="5b3e.click" /><animate id="4" attributeName="stroke-dashoffset" values="18.26;0" dur="0.18s" fill="freeze" begin="3.end" /></path><path d="M43.07,41.22c5.97-1.44,19.74-3.2,22.08-3.53c1.46-0.21,2.6,1.56,2.49,2.59c-0.57,5.24-1.78,8.45-2.59,12.4" stroke-dasharray="39.07" stroke-dashoffset="39.07"><animate attributeName="stroke-dashoffset" values="39.07" fill="freeze" begin="5b3e.click" /><animate id="5" attributeName="stroke-dashoffset" values="39.07;0" dur="0.39s" fill="freeze" begin="4.end" /></path><path d="M44.79,55.41c7.17-0.83,16.11-2.14,21.49-2.77" stroke-dasharray="21.67" stroke-dashoffset="21.67"><animate attributeName="stroke-dashoffset" values="21.67" fill="freeze" begin="5b3e.click" /><animate id="6" attributeName="stroke-dashoffset" values="21.67;0" dur="0.22s" fill="freeze" begin="5.end" /></path></g><g p6:part="2" xmlns:p6="http://kanjivg.tagaini.net"><path d="M52.89,13c0.97,0.48,1.55,2.18,1.74,3.15s-0.19,70.6-0.19,79.39" stroke-dasharray="83.09" stroke-dashoffset="83.09"><animate attributeName="stroke-dashoffset" values="83.09" fill="freeze" begin="5b3e.click" /><animate id="7" attributeName="stroke-dashoffset" values="83.09;0" dur="0.62s" fill="freeze" begin="6.end" /></path><path d="M53.89,55.02C50.57,65.37,41.93,80,35.02,85.86" stroke-dasharray="36.49" stroke-dashoffset="36.49"><animate attributeName="stroke-dashoffset" values="36.49" fill="freeze" begin="5b3e.click" /><animate id="8" attributeName="stroke-dashoffset" values="36.49;0" dur="0.36s" fill="freeze" begin="7.end" /></path><path d="M57.2,61.88c4.42,2.27,7.98,6.74,10.2,11.27" stroke-dasharray="15.45" stroke-dashoffset="15.45"><animate attributeName="stroke-dashoffset" values="15.45" fill="freeze" begin="5b3e.click" /><animate id="9" attributeName="stroke-dashoffset" values="15.45;0" dur="0.15s" fill="freeze" begin="8.end" /></path></g></g><g><g><path d="M69.75,18.75c1.25,0.5,2.75,0.75,4.75,0.62c4.01-0.26,21.07-3.19,23.27-3.41c1.43-0.14,1.83,0.65,1.75,1.65c-0.21,2.65-3.81,12.98-6.03,14.78c-2.07,1.68-3.5,0.86-4.32-0.72" stroke-dasharray="52.61" stroke-dashoffset="52.61"><animate attributeName="stroke-dashoffset" values="52.61" fill="freeze" begin="5b3e.click" /><animate id="10" attributeName="stroke-dashoffset" values="52.61;0" dur="0.53s" fill="freeze" begin="9.end" /></path><path d="M81.48,20.68c0.03,0.35,0.07,0.91-0.06,1.42c-0.92,3.74-3.75,9.71-9.79,13.56" stroke-dasharray="18.54" stroke-dashoffset="18.54"><animate attributeName="stroke-dashoffset" values="18.54" fill="freeze" begin="5b3e.click" /><animate id="11" attributeName="stroke-dashoffset" values="18.54;0" dur="0.19s" fill="freeze" begin="10.end" /></path></g><g><g><path d="M73.69,40.71c0.35,0.97,0.85,1.7,0.85,2.96s-0.23,34.65-0.23,35.28c0,0.63,0.12,0.64,0.23,1.91" stroke-dasharray="40.31" stroke-dashoffset="40.31"><animate attributeName="stroke-dashoffset" values="40.31" fill="freeze" begin="5b3e.click" /><animate id="12" attributeName="stroke-dashoffset" values="40.31;0" dur="0.4s" fill="freeze" begin="11.end" /></path><path d="M75.12,42.48c1.96-0.05,18.15-2.43,19.94-2.52c1.49-0.07,1.78,1.19,1.78,3.02c0,1.51-0.44,35.84-0.44,36.78" stroke-dasharray="60.92" stroke-dashoffset="60.92"><animate attributeName="stroke-dashoffset" values="60.92" fill="freeze" begin="5b3e.click" /><animate id="13" attributeName="stroke-dashoffset" values="60.92;0" dur="0.46s" fill="freeze" begin="12.end" /></path><path d="M75.09,53.6C78.5,53.1,92.15,52,96.35,51.9" stroke-dasharray="21.33" stroke-dashoffset="21.33"><animate attributeName="stroke-dashoffset" values="21.33" fill="freeze" begin="5b3e.click" /><animate id="14" attributeName="stroke-dashoffset" values="21.33;0" dur="0.21s" fill="freeze" begin="13.end" /></path><path d="M74.99,64.57c7.06-0.28,15.77-0.95,21.12-1.09" stroke-dasharray="21.15" stroke-dashoffset="21.15"><animate attributeName="stroke-dashoffset" values="21.15" fill="freeze" begin="5b3e.click" /><animate id="15" attributeName="stroke-dashoffset" values="21.15;0" dur="0.21s" fill="freeze" begin="14.end" /></path><path d="M74.74,78.56c5.8-0.37,15.42-1.36,21.12-1.5" stroke-dasharray="21.18" stroke-dashoffset="21.18"><animate attributeName="stroke-dashoffset" values="21.18" fill="freeze" begin="5b3e.click" /><animate id="16" attributeName="stroke-dashoffset" values="21.18;0" dur="0.21s" fill="freeze" begin="15.end" /></path></g><g><path d="M80.09,81.84c0.32,1.18,0.25,1.78-0.3,2.73c-1.8,3.09-6.59,7.72-11.54,10.86" stroke-dasharray="18.81" stroke-dashoffset="18.81"><animate attributeName="stroke-dashoffset" values="18.81" fill="freeze" begin="5b3e.click" /><animate id="17" attributeName="stroke-dashoffset" values="18.81;0" dur="0.19s" fill="freeze" begin="16.end" /></path><path d="M90.38,83.23c3.55,3.03,8.03,9.74,9,12.28" stroke-dasharray="15.32" stroke-dashoffset="15.32"><animate attributeName="stroke-dashoffset" values="15.32" fill="freeze" begin="5b3e.click" /><animate id="18" attributeName="stroke-dashoffset" values="15.32;0" dur="0.15s" fill="freeze" begin="17.end" /></path></g></g></g></g></g></g></svg>