<svg xmlns="http://www.w3.org/2000/svg" width="109" height="109" viewBox="0 0 109 109" id="5b64"><g fill="none" stroke="#666" stroke-width="6" stroke-linecap="round" stroke-linejoin="round"><g><g><path d="M11.29,27.74c2.13,0.74,3.98,0.91,6.12,0.38c6.1-1.5,15.64-3.98,18.72-4.62c1.61-0.33,3.28,0.86,1.78,2.91C36,29,30.5,35.5,24.81,42.61" /><path d="M24.02,43.24c6.88,2.84,10.48,23.8,4.97,41.99c-2.97,9.79-8.21,2.06-9.46,1.26" /><path d="M10.5,61.33c1.34,0.97,2.54,1.09,4.73,0.09C26,56.5,31.5,53.5,40.25,49.4" /></g><g p4:phon="瓜" xmlns:p4="http://kanjivg.tagaini.net"><g><path d="M79.05,16.5c0,0.88-0.3,1.62-1.07,2.29c-6.41,5.53-12.86,9.84-27.83,15.4" /></g><path d="M46.11,34.13c0.82,0.82,1.05,2,1.09,3.46C47.75,58,47.62,79.75,34.06,92.72" /><g><path d="M62.22,32.43c0.99,0.99,1.4,2.57,1.4,4.31c0,6.12-0.11,32.32-0.11,42.26" /><path d="M50.43,83.51c0.72,0.58,2.13,1.23,3.62,0.57c8.7-3.84,11.7-5.09,20.19-8.78" /><path d="M72.26,69.14c2.37,2.54,6.11,10.43,6.71,14.37" /></g><path d="M76.18,28.08c1.64,0.38,6.48,35.09,14.38,53.76c1.57,3.71,3.31,6.53,6.19,9.8" /></g></g></g><g fill="none" stroke="#000" stroke-width="3" stroke-linecap="round" stroke-linejoin="round"><path d="M11.29,27.74c2.13,0.74,3.98,0.91,6.12,0.38c6.1-1.5,15.64-3.98,18.72-4.62c1.61-0.33,3.28,0.86,1.78,2.91C36,29,30.5,35.5,24.81,42.61" stroke-dasharray="51.135" stroke-dashoffset="51.135"><animate attributeName="stroke-dashoffset" values="51.135;51.135;0" dur="0.511s" fill="freeze" begin="0s;5b64.click" /></path><path d="M24.02,43.24c6.88,2.84,10.48,23.8,4.97,41.99c-2.97,9.79-8.21,2.06-9.46,1.26" stroke-dasharray="57.94" stroke-dashoffset="57.94"><animate attributeName="stroke-dashoffset" values="57.94" fill="freeze" begin="5b64.click" /><animate attributeName="stroke-dashoffset" values="57.94;57.94;0" keyTimes="0;0.469;1" dur="1.09s" fill="freeze" begin="0s;5b64.click" /></path><path d="M10.5,61.33c1.34,0.97,2.54,1.09,4.73,0.09C26,56.5,31.5,53.5,40.25,49.4" stroke-dasharray="32.782" stroke-dashoffset="32.782"><animate attributeName="stroke-dashoffset" values="32.782" fill="freeze" begin="5b64.click" /><animate attributeName="stroke-dashoffset" values="32.782;32.782;0" keyTimes="0;0.769;1" dur="1.418s" fill="freeze" begin="0s;5b64.click" /></path><path d="M79.05,16.5c0,0.88-0.3,1.62-1.07,2.29c-6.41,5.53-12.86,9.84-27.83,15.4" stroke-dasharray="34.621" stroke-dashoffset="34.621"><animate attributeName="stroke-dashoffset" values="34.621" fill="freeze" begin="5b64.click" /><animate attributeName="stroke-dashoffset" values="34.621;34.621;0" keyTimes="0;0.804;1" dur="1.764s" fill="freeze" begin="0s;5b64.click" /></path><path d="M46.11,34.13c0.82,0.82,1.05,2,1.09,3.46C47.75,58,47.62,79.75,34.06,92.72" stroke-dasharray="62.106" stroke-dashoffset="62.106"><animate attributeName="stroke-dashoffset" values="62.106" fill="freeze" begin="5b64.click" /><animate attributeName="stroke-dashoffset" values="62.106;62.106;0" keyTimes="0;0.791;1" dur="2.231s" fill="freeze" begin="0s;5b64.click" /></path><path d="M62.22,32.43c0.99,0.99,1.4,2.57,1.4,4.31c0,6.12-0.11,32.32-0.11,42.26" stroke-dasharray="46.908" stroke-dashoffset="46.908"><animate attributeName="stroke-dashoffset" values="46.908" fill="freeze" begin="5b64.click" /><animate attributeName="stroke-dashoffset" values="46.908;46.908;0" keyTimes="0;0.826;1" dur="2.7s" fill="freeze" begin="0s;5b64.click" /></path><path d="M50.43,83.51c0.72,0.58,2.13,1.23,3.62,0.57c8.7-3.84,11.7-5.09,20.19-8.78" stroke-dasharray="25.873" stroke-dashoffset="25.873"><animate attributeName="stroke-dashoffset" values="25.873" fill="freeze" begin="5b64.click" /><animate attributeName="stroke-dashoffset" values="25.873;25.873;0" keyTimes="0;0.912;1" dur="2.959s" fill="freeze" begin="0s;5b64.click" /></path><path d="M72.26,69.14c2.37,2.54,6.11,10.43,6.71,14.37" stroke-dasharray="15.993" stroke-dashoffset="15.993"><animate attributeName="stroke-dashoffset" values="15.993" fill="freeze" begin="5b64.click" /><animate attributeName="stroke-dashoffset" values="15.993;15.993;0" keyTimes="0;0.949;1" dur="3.119s" fill="freeze" begin="0s;5b64.click" /></path><path d="M76.18,28.08c1.64,0.38,6.48,35.09,14.38,53.76c1.57,3.71,3.31,6.53,6.19,9.8" stroke-dasharray="67.427" stroke-dashoffset="67.427"><animate attributeName="stroke-dashoffset" values="67.427" fill="freeze" begin="5b64.click" /><animate attributeName="stroke-dashoffset" values="67.427;67.427;0" keyTimes="0;0.86;1" dur="3.626s" fill="freeze" begin="0s;5b64.click" /></path></g></svg>