<svg xmlns="http://www.w3.org/2000/svg" width="109" height="109" viewBox="0 0 109 109" id="5b99"><g fill="none" stroke="#666" stroke-width="9" stroke-linecap="round" stroke-linejoin="round"><g><g><path d="M52.8,12.86c1.36,1.36,1.53,3.2,1.53,4.39c0,2.25-0.08,5.15-0.08,9" /><g><path d="M20.12,26.38c0,4.76-2.15,17.84-3.12,21.02" /><path d="M20.72,31.87C41,29.12,62.5,25.75,84.96,24.88c11.53-0.44,2.44,6.67-0.43,8.71" /></g></g><g p4:phon="由" xmlns:p4="http://kanjivg.tagaini.net"><g p4:partial><path d="M24.95,56.95c0.86,0.86,1.47,2.12,1.62,2.97c1.43,7.95,2.56,17.82,3.85,30.06c0.21,1.96,0.32,3.89,0.47,5.76" /><path d="M27.57,59.25c16.18-2,36.81-4.12,49.1-4.81c3.85-0.22,5.46,1.19,5.1,4.1c-0.64,5.29-2.02,16.22-3.96,27.72c-0.46,2.73-0.94,4.25-1.56,7.05" /></g><g><path d="M52.22,36.82c0.85,0.85,1.4,2.44,1.41,3.62c0.03,11.64,0,45.77,0,48.81" /></g><g p4:partial><path d="M30,75.42c14.75-1.67,38.37-3.67,48.94-4.1" /><path d="M31.88,92.2c14.12-1.2,30-2.57,44.24-2.99" /></g></g></g></g><g fill="none" stroke="#000" stroke-width="5" stroke-linecap="round" stroke-linejoin="round"><path d="M52.8,12.86c1.36,1.36,1.53,3.2,1.53,4.39c0,2.25-0.08,5.15-0.08,9" stroke-dasharray="13.778" stroke-dashoffset="13.778"><animate attributeName="stroke-dashoffset" values="13.778;13.778;0" dur="0.138s" fill="freeze" begin="0s;5b99.click" /></path><path d="M20.12,26.38c0,4.76-2.15,17.84-3.12,21.02" stroke-dasharray="21.283" stroke-dashoffset="21.283"><animate attributeName="stroke-dashoffset" values="21.283" fill="freeze" begin="5b99.click" /><animate attributeName="stroke-dashoffset" values="21.283;21.283;0" keyTimes="0;0.393;1" dur="0.351s" fill="freeze" begin="0s;5b99.click" /></path><path d="M20.72,31.87C41,29.12,62.5,25.75,84.96,24.88c11.53-0.44,2.44,6.67-0.43,8.71" stroke-dasharray="80.562" stroke-dashoffset="80.562"><animate attributeName="stroke-dashoffset" values="80.562" fill="freeze" begin="5b99.click" /><animate attributeName="stroke-dashoffset" values="80.562;80.562;0" keyTimes="0;0.367;1" dur="0.957s" fill="freeze" begin="0s;5b99.click" /></path><path d="M24.95,56.95c0.86,0.86,1.47,2.12,1.62,2.97c1.43,7.95,2.56,17.82,3.85,30.06c0.21,1.96,0.32,3.89,0.47,5.76" stroke-dasharray="39.52" stroke-dashoffset="39.52"><animate attributeName="stroke-dashoffset" values="39.52" fill="freeze" begin="5b99.click" /><animate attributeName="stroke-dashoffset" values="39.52;39.52;0" keyTimes="0;0.708;1" dur="1.352s" fill="freeze" begin="0s;5b99.click" /></path><path d="M27.57,59.25c16.18-2,36.81-4.12,49.1-4.81c3.85-0.22,5.46,1.19,5.1,4.1c-0.64,5.29-2.02,16.22-3.96,27.72c-0.46,2.73-0.94,4.25-1.56,7.05" stroke-dasharray="92.406" stroke-dashoffset="92.406"><animate attributeName="stroke-dashoffset" values="92.406" fill="freeze" begin="5b99.click" /><animate attributeName="stroke-dashoffset" values="92.406;92.406;0" keyTimes="0;0.66;1" dur="2.047s" fill="freeze" begin="0s;5b99.click" /></path><path d="M52.22,36.82c0.85,0.85,1.4,2.44,1.41,3.62c0.03,11.64,0,45.77,0,48.81" stroke-dasharray="52.778" stroke-dashoffset="52.778"><animate attributeName="stroke-dashoffset" values="52.778" fill="freeze" begin="5b99.click" /><animate attributeName="stroke-dashoffset" values="52.778;52.778;0" keyTimes="0;0.795;1" dur="2.575s" fill="freeze" begin="0s;5b99.click" /></path><path d="M30,75.42c14.75-1.67,38.37-3.67,48.94-4.1" stroke-dasharray="49.119" stroke-dashoffset="49.119"><animate attributeName="stroke-dashoffset" values="49.119" fill="freeze" begin="5b99.click" /><animate attributeName="stroke-dashoffset" values="49.119;49.119;0" keyTimes="0;0.84;1" dur="3.066s" fill="freeze" begin="0s;5b99.click" /></path><path d="M31.88,92.2c14.12-1.2,30-2.57,44.24-2.99" stroke-dasharray="44.348" stroke-dashoffset="44.348"><animate attributeName="stroke-dashoffset" values="44.348" fill="freeze" begin="5b99.click" /><animate attributeName="stroke-dashoffset" values="44.348;44.348;0" keyTimes="0;0.874;1" dur="3.509s" fill="freeze" begin="0s;5b99.click" /></path></g></svg>