<svg xmlns="http://www.w3.org/2000/svg" width="109" height="109" viewBox="0 0 109 109" id="5b9d"><g fill="none" stroke="#666" stroke-width="9" stroke-linecap="round" stroke-linejoin="round"><g><g><path d="M52.36,12.61c1.08,1.08,1.72,2.64,1.72,4.29c0,3.66-0.08,5.65-0.08,8.98" /><g><path d="M22,26.12c0,4.14-4.3,15.51-6.25,18.27" /><path d="M22.35,30.52c14.9-1.52,43.02-5.4,63.71-6.1c11.31-0.38,1.9,7.47-0.92,9.45" /></g></g><g><g p5:partial xmlns:p5="http://kanjivg.tagaini.net"><path d="M32.85,46.92c2.9,0.45,5.64,0.24,7.79-0.07c5.54-0.8,15.69-2.51,27.61-3.61c2.32-0.21,4.63-0.58,6.91,0.11" /><path d="M53.21,48.01c1.2,1.2,1.51,2.61,1.51,5.1c0,7.4-0.09,25.09-0.09,36.51" /><path d="M31.88,67.31c1.81,0.93,5.54,0.44,7.47,0.16c5.91-0.84,16.53-2.48,28.9-3.36c2.39-0.17,4.99-0.53,7.36,0.04" /><path d="M21.25,92.34c2.59,0.76,5.94,0.62,8.59,0.39c12.85-1.15,36.83-3.09,48.54-3.74c3.36-0.19,7.41-0.28,10.63,0.82" /></g><g><path d="M71.54,72.05c3.85,2.06,7.15,6.45,7.97,9.03" /></g></g></g></g><g fill="none" stroke="#000" stroke-width="5" stroke-linecap="round" stroke-linejoin="round"><path d="M52.36,12.61c1.08,1.08,1.72,2.64,1.72,4.29c0,3.66-0.08,5.65-0.08,8.98" stroke-dasharray="13.723" stroke-dashoffset="13.723"><animate attributeName="stroke-dashoffset" values="13.723;13.723;0" dur="0.137s" fill="freeze" begin="0s;5b9d.click" /></path><path d="M22,26.12c0,4.14-4.3,15.51-6.25,18.27" stroke-dasharray="19.44" stroke-dashoffset="19.44"><animate attributeName="stroke-dashoffset" values="19.44" fill="freeze" begin="5b9d.click" /><animate attributeName="stroke-dashoffset" values="19.44;19.44;0" keyTimes="0;0.414;1" dur="0.331s" fill="freeze" begin="0s;5b9d.click" /></path><path d="M22.35,30.52c14.9-1.52,43.02-5.4,63.71-6.1c11.31-0.38,1.9,7.47-0.92,9.45" stroke-dasharray="80.387" stroke-dashoffset="80.387"><animate attributeName="stroke-dashoffset" values="80.387" fill="freeze" begin="5b9d.click" /><animate attributeName="stroke-dashoffset" values="80.387;80.387;0" keyTimes="0;0.354;1" dur="0.935s" fill="freeze" begin="0s;5b9d.click" /></path><path d="M32.85,46.92c2.9,0.45,5.64,0.24,7.79-0.07c5.54-0.8,15.69-2.51,27.61-3.61c2.32-0.21,4.63-0.58,6.91,0.11" stroke-dasharray="42.63" stroke-dashoffset="42.63"><animate attributeName="stroke-dashoffset" values="42.63" fill="freeze" begin="5b9d.click" /><animate attributeName="stroke-dashoffset" values="42.63;42.63;0" keyTimes="0;0.687;1" dur="1.361s" fill="freeze" begin="0s;5b9d.click" /></path><path d="M53.21,48.01c1.2,1.2,1.51,2.61,1.51,5.1c0,7.4-0.09,25.09-0.09,36.51" stroke-dasharray="41.99" stroke-dashoffset="41.99"><animate attributeName="stroke-dashoffset" values="41.99" fill="freeze" begin="5b9d.click" /><animate attributeName="stroke-dashoffset" values="41.99;41.99;0" keyTimes="0;0.764;1" dur="1.781s" fill="freeze" begin="0s;5b9d.click" /></path><path d="M31.88,67.31c1.81,0.93,5.54,0.44,7.47,0.16c5.91-0.84,16.53-2.48,28.9-3.36c2.39-0.17,4.99-0.53,7.36,0.04" stroke-dasharray="44.06" stroke-dashoffset="44.06"><animate attributeName="stroke-dashoffset" values="44.06" fill="freeze" begin="5b9d.click" /><animate attributeName="stroke-dashoffset" values="44.06;44.06;0" keyTimes="0;0.802;1" dur="2.222s" fill="freeze" begin="0s;5b9d.click" /></path><path d="M21.25,92.34c2.59,0.76,5.94,0.62,8.59,0.39c12.85-1.15,36.83-3.09,48.54-3.74c3.36-0.19,7.41-0.28,10.63,0.82" stroke-dasharray="68.057" stroke-dashoffset="68.057"><animate attributeName="stroke-dashoffset" values="68.057" fill="freeze" begin="5b9d.click" /><animate attributeName="stroke-dashoffset" values="68.057;68.057;0" keyTimes="0;0.813;1" dur="2.734s" fill="freeze" begin="0s;5b9d.click" /></path><path d="M71.54,72.05c3.85,2.06,7.15,6.45,7.97,9.03" stroke-dasharray="12.275" stroke-dashoffset="12.275"><animate attributeName="stroke-dashoffset" values="12.275" fill="freeze" begin="5b9d.click" /><animate attributeName="stroke-dashoffset" values="12.275;12.275;0" keyTimes="0;0.957;1" dur="2.857s" fill="freeze" begin="0s;5b9d.click" /></path></g></svg>