<svg xmlns="http://www.w3.org/2000/svg" width="109" height="109" viewBox="0 0 109 109" id="5bae"><g fill="none" stroke="#666" stroke-width="9" stroke-linecap="round" stroke-linejoin="round"><g><g><path d="M52.53,11.25c1.05,1.04,1.46,2.38,1.46,3.75c0,3.16-0.07,4.3-0.08,7.18" /><g><path d="M27.12,24c0,3.17-3.15,11.89-4.58,14" /><path d="M27.79,26.24c15.71-2.12,46.42-5.42,52.43-5.55c9.16-0.2,4.66,5.05,0.15,8.53" /></g></g><g><g><path d="M34.14,39.64c0.79,0.8,1.34,2.06,1.58,2.95c0.9,3.35,1.7,7.67,2.38,11.87c0.11,0.68,0.66,4.22,0.81,5.26" /><path d="M36.52,41.32c8.52-1.31,24.56-2.98,30.99-3.64c2.96-0.3,4.69,0.73,3.9,3.86c-0.94,3.79-1.91,7.16-3.94,12.78" /><path d="M39.03,57.95c3.45-0.33,16.73-1.7,24.83-2.42c3.48-0.31,6.01-0.49,6.38-0.42" /></g><g><g><path d="M52.37,59.5c0.38,1.04,0.25,1.96-0.26,3.14c-0.52,1.19-4.34,6.79-5.36,8.36" /></g><g><path d="M32.05,72.73c0.97,0.88,1.62,1.69,1.91,3.01c1.03,4.73,2.06,10.75,2.96,16.53c0.06,0.41,0.52,3.39,0.67,4.44" /><path d="M34.95,74.66c10.49-1.62,29.57-3.7,37.08-4.47c3.4-0.35,5.56,1.17,4.44,4.6c-1.83,5.58-2.58,8.33-5.12,16.04" /><path d="M38.55,94.45c5.64-0.55,20.24-2.07,30.15-2.97c1.65-0.15,3.83-0.16,5.78-0.25" /></g></g></g></g></g><g fill="none" stroke="#000" stroke-width="5" stroke-linecap="round" stroke-linejoin="round"><g><g><path d="M52.53,11.25c1.05,1.04,1.46,2.38,1.46,3.75c0,3.16-0.07,4.3-0.08,7.18" stroke-dasharray="11.32" stroke-dashoffset="11.32"><animate id="0" attributeName="stroke-dashoffset" values="11.32;0" dur="0.11s" fill="freeze" begin="0s;5bae.click" /></path><g><path d="M27.12,24c0,3.17-3.15,11.89-4.58,14" stroke-dasharray="14.82" stroke-dashoffset="14.82"><animate attributeName="stroke-dashoffset" values="14.82" fill="freeze" begin="5bae.click" /><animate id="1" attributeName="stroke-dashoffset" values="14.82;0" dur="0.15s" fill="freeze" begin="0.end" /></path><path d="M27.79,26.24c15.71-2.12,46.42-5.42,52.43-5.55c9.16-0.2,4.66,5.05,0.15,8.53" stroke-dasharray="67.47" stroke-dashoffset="67.47"><animate attributeName="stroke-dashoffset" values="67.47" fill="freeze" begin="5bae.click" /><animate id="2" attributeName="stroke-dashoffset" values="67.47;0" dur="0.51s" fill="freeze" begin="1.end" /></path></g></g><g><g><path d="M34.14,39.64c0.79,0.8,1.34,2.06,1.58,2.95c0.9,3.35,1.7,7.67,2.38,11.87c0.11,0.68,0.66,4.22,0.81,5.26" stroke-dasharray="20.81" stroke-dashoffset="20.81"><animate attributeName="stroke-dashoffset" values="20.81" fill="freeze" begin="5bae.click" /><animate id="3" attributeName="stroke-dashoffset" values="20.81;0" dur="0.21s" fill="freeze" begin="2.end" /></path><path d="M36.52,41.32c8.52-1.31,24.56-2.98,30.99-3.64c2.96-0.3,4.69,0.73,3.9,3.86c-0.94,3.79-1.91,7.16-3.94,12.78" stroke-dasharray="51.53" stroke-dashoffset="51.53"><animate attributeName="stroke-dashoffset" values="51.53" fill="freeze" begin="5bae.click" /><animate id="4" attributeName="stroke-dashoffset" values="51.53;0" dur="0.52s" fill="freeze" begin="3.end" /></path><path d="M39.03,57.95c3.45-0.33,16.73-1.7,24.83-2.42c3.48-0.31,6.01-0.49,6.38-0.42" stroke-dasharray="31.34" stroke-dashoffset="31.34"><animate attributeName="stroke-dashoffset" values="31.34" fill="freeze" begin="5bae.click" /><animate id="5" attributeName="stroke-dashoffset" values="31.34;0" dur="0.31s" fill="freeze" begin="4.end" /></path></g><g><g><path d="M52.37,59.5c0.38,1.04,0.25,1.96-0.26,3.14c-0.52,1.19-4.34,6.79-5.36,8.36" stroke-dasharray="13.17" stroke-dashoffset="13.17"><animate attributeName="stroke-dashoffset" values="13.17" fill="freeze" begin="5bae.click" /><animate id="6" attributeName="stroke-dashoffset" values="13.17;0" dur="0.13s" fill="freeze" begin="5.end" /></path></g><g><path d="M32.05,72.73c0.97,0.88,1.62,1.69,1.91,3.01c1.03,4.73,2.06,10.75,2.96,16.53c0.06,0.41,0.52,3.39,0.67,4.44" stroke-dasharray="24.92" stroke-dashoffset="24.92"><animate attributeName="stroke-dashoffset" values="24.92" fill="freeze" begin="5bae.click" /><animate id="7" attributeName="stroke-dashoffset" values="24.92;0" dur="0.25s" fill="freeze" begin="6.end" /></path><path d="M34.95,74.66c10.49-1.62,29.57-3.7,37.08-4.47c3.4-0.35,5.56,1.17,4.44,4.6c-1.83,5.58-2.58,8.33-5.12,16.04" stroke-dasharray="62.3" stroke-dashoffset="62.3"><animate attributeName="stroke-dashoffset" values="62.3" fill="freeze" begin="5bae.click" /><animate id="8" attributeName="stroke-dashoffset" values="62.3;0" dur="0.47s" fill="freeze" begin="7.end" /></path><path d="M38.55,94.45c5.64-0.55,20.24-2.07,30.15-2.97c1.65-0.15,3.83-0.16,5.78-0.25" stroke-dasharray="36.08" stroke-dashoffset="36.08"><animate attributeName="stroke-dashoffset" values="36.08" fill="freeze" begin="5bae.click" /><animate id="9" attributeName="stroke-dashoffset" values="36.08;0" dur="0.36s" fill="freeze" begin="8.end" /></path></g></g></g></g></g></svg>