<svg xmlns="http://www.w3.org/2000/svg" width="109" height="109" viewBox="0 0 109 109" id="5bb0"><g fill="none" stroke="#666" stroke-width="9" stroke-linecap="round" stroke-linejoin="round"><g><g><path d="M53.67,8.25c1.42,1.42,1.67,2.75,1.67,4.73c0,3.6-0.08,5.5-0.08,8.77" /><g><path d="M22.38,22.75c0,4.13-3.11,15.5-4.52,18.25" /><path d="M23.36,25.84C41.5,24,64.88,21.5,84.55,20.57c11.69-0.55,2.36,7.11-0.42,9.06" /></g></g><g><g><g><path d="M53.31,29.75c0.95,0.72,1.43,1.97,1.43,3.64c0,0.74,0,3.36,0,5.5" /><path d="M29.66,41.73c2.44,0.69,5.35,0.28,7.84,0.01c9.72-1.07,26.27-2.82,35.76-3.34c2.72-0.15,5.12,0.19,7.8,0.64" /></g><g><path d="M40.01,45.35c3.59,4.63,5.22,9.36,5.55,12.41" /><path d="M68.89,42.34c0.36,0.91,0.24,1.98-0.27,3.21c-1.12,2.7-5.46,10.29-6.92,12.54" /><path d="M17.6,62.07c3.21,0.86,6.79,0.61,10.03,0.27c17.61-1.84,38.74-3.47,55.62-4.05c3.58-0.12,7.09-0.01,10.64,0.57" /></g></g><g><path d="M24.89,78.45c3.48,0.68,6.51,0.56,9.61,0.17c13.87-1.74,28.41-2.3,41.51-3.24c3.24-0.23,6.67-0.33,9.85,0.35" /><path d="M53.39,62.38c0.99,0.99,1.18,2.37,1.18,4.46c0,6.98,0.02,18.81,0.03,27.65c0,2.75,0,5.13,0,6.88" /></g></g></g></g><g fill="none" stroke="#000" stroke-width="5" stroke-linecap="round" stroke-linejoin="round"><g><g><path d="M53.67,8.25c1.42,1.42,1.67,2.75,1.67,4.73c0,3.6-0.08,5.5-0.08,8.77" stroke-dasharray="13.95" stroke-dashoffset="13.95"><animate id="0" attributeName="stroke-dashoffset" values="13.95;0" dur="0.14s" fill="freeze" begin="0s;5bb0.click" /></path><g><path d="M22.38,22.75c0,4.13-3.11,15.5-4.52,18.25" stroke-dasharray="18.87" stroke-dashoffset="18.87"><animate attributeName="stroke-dashoffset" values="18.87" fill="freeze" begin="5bb0.click" /><animate id="1" attributeName="stroke-dashoffset" values="18.87;0" dur="0.19s" fill="freeze" begin="0.end" /></path><path d="M23.36,25.84C41.5,24,64.88,21.5,84.55,20.57c11.69-0.55,2.36,7.11-0.42,9.06" stroke-dasharray="77.69" stroke-dashoffset="77.69"><animate attributeName="stroke-dashoffset" values="77.69" fill="freeze" begin="5bb0.click" /><animate id="2" attributeName="stroke-dashoffset" values="77.69;0" dur="0.58s" fill="freeze" begin="1.end" /></path></g></g><g><g><g><path d="M53.31,29.75c0.95,0.72,1.43,1.97,1.43,3.64c0,0.74,0,3.36,0,5.5" stroke-dasharray="9.56" stroke-dashoffset="9.56"><animate attributeName="stroke-dashoffset" values="9.56" fill="freeze" begin="5bb0.click" /><animate id="3" attributeName="stroke-dashoffset" values="9.56;0" dur="0.1s" fill="freeze" begin="2.end" /></path><path d="M29.66,41.73c2.44,0.69,5.35,0.28,7.84,0.01c9.72-1.07,26.27-2.82,35.76-3.34c2.72-0.15,5.12,0.19,7.8,0.64" stroke-dasharray="51.65" stroke-dashoffset="51.65"><animate attributeName="stroke-dashoffset" values="51.65" fill="freeze" begin="5bb0.click" /><animate id="4" attributeName="stroke-dashoffset" values="51.65;0" dur="0.52s" fill="freeze" begin="3.end" /></path></g><g><path d="M40.01,45.35c3.59,4.63,5.22,9.36,5.55,12.41" stroke-dasharray="13.75" stroke-dashoffset="13.75"><animate attributeName="stroke-dashoffset" values="13.75" fill="freeze" begin="5bb0.click" /><animate id="5" attributeName="stroke-dashoffset" values="13.75;0" dur="0.14s" fill="freeze" begin="4.end" /></path><path d="M68.89,42.34c0.36,0.91,0.24,1.98-0.27,3.21c-1.12,2.7-5.46,10.29-6.92,12.54" stroke-dasharray="17.64" stroke-dashoffset="17.64"><animate attributeName="stroke-dashoffset" values="17.64" fill="freeze" begin="5bb0.click" /><animate id="6" attributeName="stroke-dashoffset" values="17.64;0" dur="0.18s" fill="freeze" begin="5.end" /></path><path d="M17.6,62.07c3.21,0.86,6.79,0.61,10.03,0.27c17.61-1.84,38.74-3.47,55.62-4.05c3.58-0.12,7.09-0.01,10.64,0.57" stroke-dasharray="76.54" stroke-dashoffset="76.54"><animate attributeName="stroke-dashoffset" values="76.54" fill="freeze" begin="5bb0.click" /><animate id="7" attributeName="stroke-dashoffset" values="76.54;0" dur="0.58s" fill="freeze" begin="6.end" /></path></g></g><g><path d="M24.89,78.45c3.48,0.68,6.51,0.56,9.61,0.17c13.87-1.74,28.41-2.3,41.51-3.24c3.24-0.23,6.67-0.33,9.85,0.35" stroke-dasharray="61.19" stroke-dashoffset="61.19"><animate attributeName="stroke-dashoffset" values="61.19" fill="freeze" begin="5bb0.click" /><animate id="8" attributeName="stroke-dashoffset" values="61.19;0" dur="0.46s" fill="freeze" begin="7.end" /></path><path d="M53.39,62.38c0.99,0.99,1.18,2.37,1.18,4.46c0,6.98,0.02,18.81,0.03,27.65c0,2.75,0,5.13,0,6.88" stroke-dasharray="39.27" stroke-dashoffset="39.27"><animate attributeName="stroke-dashoffset" values="39.27" fill="freeze" begin="5bb0.click" /><animate id="9" attributeName="stroke-dashoffset" values="39.27;0" dur="0.39s" fill="freeze" begin="8.end" /></path></g></g></g></g></svg>