<svg xmlns="http://www.w3.org/2000/svg" viewBox="0 0 109 109" id="5bb4"><g fill="none" stroke="#666" stroke-width="6" stroke-linecap="round" stroke-linejoin="round"><g><g><path d="M52.8,11.54c0.89,0.89,1.19,1.83,1.19,3.41c0,3.01-0.07,5.14-0.08,7.88" /><g><path d="M26.62,24.09c0,3.48-2.64,13.05-3.83,15.37" /><path d="M27.57,26.45c11.3-1.58,35.43-4.58,54.28-5.7c9.71-0.58,2.78,5.37-0.36,7.98" /></g></g><g p4:phon="妟" xmlns:p4="http://kanjivg.tagaini.net"><g><path d="M36.75,34.16c0.8,0.8,1.12,2.13,1.12,2.92c0.31,4.25,1.63,13.1,2.29,18.91c0.15,1.27,0.27,2.39,0.37,3.29" /><path d="M38.59,35.51c9.41-1.26,21.03-2.76,28.03-3.39c2.44-0.22,4.3,0.9,3.96,3.5c-0.64,4.84-1.54,11.54-2.39,16.64c-0.25,1.5-0.49,2.86-0.73,3.99" /><path d="M40.05,46.39c8.45-1.01,20.95-2.64,28.28-2.86" /><path d="M41.42,57.31c7.46-0.81,18.62-2.1,25.15-2.42" /></g><g><path d="M48.21,59.75c0.42,1,0.4,1.83,0,2.98C44.75,69.38,42.43,73.16,37,79.12c-1.38,1.51-1.12,2.38,0.75,2.4c8.76,0.08,21.49,3.57,32.68,8.89c5.36,2.55,9.39,5.74,11.82,8.84" /><path d="M67.88,64.43c0.38,1.45,0.22,2.89-0.25,4.11c-3.8,9.87-15.75,24.34-42.37,30.97" /><path d="M15.63,70.18c2.11,0.77,5.18,0.51,7.36,0.31c12.62-1.15,44.93-4.09,63.26-4.45c2.82-0.06,6.12-0.28,8.75,0.96" /></g></g></g></g><g fill="none" stroke="#000" stroke-width="3" stroke-linecap="round" stroke-linejoin="round"><path d="M52.8,11.54c0.89,0.89,1.19,1.83,1.19,3.41c0,3.01-0.07,5.14-0.08,7.88" stroke-dasharray="11.606" stroke-dashoffset="11.606"><animate attributeName="stroke-dashoffset" values="11.606;11.606;0" dur="0.232s" fill="freeze" begin="0s;5bb4.click" /></path><path d="M26.62,24.09c0,3.48-2.64,13.05-3.83,15.37" stroke-dasharray="15.903" stroke-dashoffset="15.903"><animate attributeName="stroke-dashoffset" values="15.903" fill="freeze" begin="5bb4.click" /><animate attributeName="stroke-dashoffset" values="15.903;15.903;0" keyTimes="0;0.593;1" dur="0.391s" fill="freeze" begin="0s;5bb4.click" /></path><path d="M27.57,26.45c11.3-1.58,35.43-4.58,54.28-5.7c9.71-0.58,2.78,5.37-0.36,7.98" stroke-dasharray="68.817" stroke-dashoffset="68.817"><animate attributeName="stroke-dashoffset" values="68.817" fill="freeze" begin="5bb4.click" /><animate attributeName="stroke-dashoffset" values="68.817;68.817;0" keyTimes="0;0.431;1" dur="0.908s" fill="freeze" begin="0s;5bb4.click" /></path><path d="M36.75,34.16c0.8,0.8,1.12,2.13,1.12,2.92c0.31,4.25,1.63,13.1,2.29,18.91c0.15,1.27,0.27,2.39,0.37,3.29" stroke-dasharray="25.559" stroke-dashoffset="25.559"><animate attributeName="stroke-dashoffset" values="25.559" fill="freeze" begin="5bb4.click" /><animate attributeName="stroke-dashoffset" values="25.559;25.559;0" keyTimes="0;0.78;1" dur="1.164s" fill="freeze" begin="0s;5bb4.click" /></path><path d="M38.59,35.51c9.41-1.26,21.03-2.76,28.03-3.39c2.44-0.22,4.3,0.9,3.96,3.5c-0.64,4.84-1.54,11.54-2.39,16.64c-0.25,1.5-0.49,2.86-0.73,3.99" stroke-dasharray="55.384" stroke-dashoffset="55.384"><animate attributeName="stroke-dashoffset" values="55.384" fill="freeze" begin="5bb4.click" /><animate attributeName="stroke-dashoffset" values="55.384;55.384;0" keyTimes="0;0.678;1" dur="1.718s" fill="freeze" begin="0s;5bb4.click" /></path><path d="M40.05,46.39c8.45-1.01,20.95-2.64,28.28-2.86" stroke-dasharray="28.433" stroke-dashoffset="28.433"><animate attributeName="stroke-dashoffset" values="28.433" fill="freeze" begin="5bb4.click" /><animate attributeName="stroke-dashoffset" values="28.433;28.433;0" keyTimes="0;0.858;1" dur="2.002s" fill="freeze" begin="0s;5bb4.click" /></path><path d="M41.42,57.31c7.46-0.81,18.62-2.1,25.15-2.42" stroke-dasharray="25.27" stroke-dashoffset="25.27"><animate attributeName="stroke-dashoffset" values="25.27" fill="freeze" begin="5bb4.click" /><animate attributeName="stroke-dashoffset" values="25.27;25.27;0" keyTimes="0;0.888;1" dur="2.255s" fill="freeze" begin="0s;5bb4.click" /></path><path d="M48.21,59.75c0.42,1,0.4,1.83,0,2.98C44.75,69.38,42.43,73.16,37,79.12c-1.38,1.51-1.12,2.38,0.75,2.4c8.76,0.08,21.49,3.57,32.68,8.89c5.36,2.55,9.39,5.74,11.82,8.84" stroke-dasharray="75.82" stroke-dashoffset="75.82"><animate attributeName="stroke-dashoffset" values="75.82" fill="freeze" begin="5bb4.click" /><animate attributeName="stroke-dashoffset" values="75.82;75.82;0" keyTimes="0;0.798;1" dur="2.825s" fill="freeze" begin="0s;5bb4.click" /></path><path d="M67.88,64.43c0.38,1.45,0.22,2.89-0.25,4.11c-3.8,9.87-15.75,24.34-42.37,30.97" stroke-dasharray="58.61" stroke-dashoffset="58.61"><animate attributeName="stroke-dashoffset" values="58.61" fill="freeze" begin="5bb4.click" /><animate attributeName="stroke-dashoffset" values="58.61;58.61;0" keyTimes="0;0.828;1" dur="3.411s" fill="freeze" begin="0s;5bb4.click" /></path><path d="M15.63,70.18c2.11,0.77,5.18,0.51,7.36,0.31c12.62-1.15,44.93-4.09,63.26-4.45c2.82-0.06,6.12-0.28,8.75,0.96" stroke-dasharray="79.735" stroke-dashoffset="79.735"><animate attributeName="stroke-dashoffset" values="79.735" fill="freeze" begin="5bb4.click" /><animate attributeName="stroke-dashoffset" values="79.735;79.735;0" keyTimes="0;0.85;1" dur="4.011s" fill="freeze" begin="0s;5bb4.click" /></path></g></svg>