<svg xmlns="http://www.w3.org/2000/svg" width="109" height="109" viewBox="0 0 109 109" id="5bc5"><g fill="none" stroke="#666" stroke-width="9" stroke-linecap="round" stroke-linejoin="round"><g><g><path d="M52,12c1.25,1.25,1.34,2.5,1.34,4.24c0,1.64-0.09,4.01-0.09,6.51" /><g><path d="M21.17,24.19c0,4.03-1.3,14.18-2.88,17.81" /><path d="M21.82,27.19c13.68-1.94,38.42-4.74,63.41-5.9C91.25,21,87,27,82.83,30.87" /></g></g><g><path d="M35,39.14c2.5,0.49,4.72,0.45,6.88,0.17c6.75-0.85,17.24-1.94,23.74-2.64c1.82-0.2,4.09-0.35,5.88,0.09" /><g><g p6:part="1" p6:partial xmlns:p6="http://kanjivg.tagaini.net"><path d="M30.07,52.7c0.74,0.74,1.12,1.68,1.29,2.81c1.14,7.25,2.26,14.37,3.7,23.25" /><path d="M32.01,53.66c12.74-1.54,33.96-3.07,42.07-3.53c3.56-0.2,4.37,1.81,3.8,4.75c-1.26,6.5-1.98,10.31-3.54,15.76c-0.52,1.82-1.12,3.63-1.84,5.43" /></g><g><path d="M52.74,41.32c0.91,0.91,1.03,2.05,1.03,3.56c0,7.97-0.02,27.29-0.02,29.37" /></g><g p6:part="2" p6:partial xmlns:p6="http://kanjivg.tagaini.net"><path d="M34.31,64.73C39.88,64,65.12,62,75.36,61.6" /><path d="M35.88,76.75c10.37-0.88,24-2,35.97-2.45" /></g></g><g><g><path d="M40.5,84.39c0,1.11-0.16,1.92-0.89,2.66c-2.98,3.07-9.48,7.07-19.05,11.66" /></g><g><path d="M66.27,83.08C73,86.75,80.5,92.75,83.81,98.22" /></g></g></g></g></g><g fill="none" stroke="#000" stroke-width="5" stroke-linecap="round" stroke-linejoin="round"><g><g><path d="M52,12c1.25,1.25,1.34,2.5,1.34,4.24c0,1.64-0.09,4.01-0.09,6.51" stroke-dasharray="11.1" stroke-dashoffset="11.1"><animate id="0" attributeName="stroke-dashoffset" values="11.1;0" dur="0.11s" fill="freeze" begin="0s;5bc5.click" /></path><g><path d="M21.17,24.19c0,4.03-1.3,14.18-2.88,17.81" stroke-dasharray="18.11" stroke-dashoffset="18.11"><animate attributeName="stroke-dashoffset" values="18.11" fill="freeze" begin="5bc5.click" /><animate id="1" attributeName="stroke-dashoffset" values="18.11;0" dur="0.18s" fill="freeze" begin="0.end" /></path><path d="M21.82,27.19c13.68-1.94,38.42-4.74,63.41-5.9C91.25,21,87,27,82.83,30.87" stroke-dasharray="77.35" stroke-dashoffset="77.35"><animate attributeName="stroke-dashoffset" values="77.35" fill="freeze" begin="5bc5.click" /><animate id="2" attributeName="stroke-dashoffset" values="77.35;0" dur="0.58s" fill="freeze" begin="1.end" /></path></g></g><g><path d="M35,39.14c2.5,0.49,4.72,0.45,6.88,0.17c6.75-0.85,17.24-1.94,23.74-2.64c1.82-0.2,4.09-0.35,5.88,0.09" stroke-dasharray="36.71" stroke-dashoffset="36.71"><animate attributeName="stroke-dashoffset" values="36.71" fill="freeze" begin="5bc5.click" /><animate id="3" attributeName="stroke-dashoffset" values="36.71;0" dur="0.37s" fill="freeze" begin="2.end" /></path><g><g p6:part="1" p6:partial xmlns:p6="http://kanjivg.tagaini.net"><path d="M30.07,52.7c0.74,0.74,1.12,1.68,1.29,2.81c1.14,7.25,2.26,14.37,3.7,23.25" stroke-dasharray="26.69" stroke-dashoffset="26.69"><animate attributeName="stroke-dashoffset" values="26.69" fill="freeze" begin="5bc5.click" /><animate id="4" attributeName="stroke-dashoffset" values="26.69;0" dur="0.27s" fill="freeze" begin="3.end" /></path><path d="M32.01,53.66c12.74-1.54,33.96-3.07,42.07-3.53c3.56-0.2,4.37,1.81,3.8,4.75c-1.26,6.5-1.98,10.31-3.54,15.76c-0.52,1.82-1.12,3.63-1.84,5.43" stroke-dasharray="71.6" stroke-dashoffset="71.6"><animate attributeName="stroke-dashoffset" values="71.6" fill="freeze" begin="5bc5.click" /><animate id="5" attributeName="stroke-dashoffset" values="71.6;0" dur="0.54s" fill="freeze" begin="4.end" /></path></g><g><path d="M52.74,41.32c0.91,0.91,1.03,2.05,1.03,3.56c0,7.97-0.02,27.29-0.02,29.37" stroke-dasharray="33.19" stroke-dashoffset="33.19"><animate attributeName="stroke-dashoffset" values="33.19" fill="freeze" begin="5bc5.click" /><animate id="6" attributeName="stroke-dashoffset" values="33.19;0" dur="0.33s" fill="freeze" begin="5.end" /></path></g><g p6:part="2" p6:partial xmlns:p6="http://kanjivg.tagaini.net"><path d="M34.31,64.73C39.88,64,65.12,62,75.36,61.6" stroke-dasharray="41.17" stroke-dashoffset="41.17"><animate attributeName="stroke-dashoffset" values="41.17" fill="freeze" begin="5bc5.click" /><animate id="7" attributeName="stroke-dashoffset" values="41.17;0" dur="0.41s" fill="freeze" begin="6.end" /></path><path d="M35.88,76.75c10.37-0.88,24-2,35.97-2.45" stroke-dasharray="36.06" stroke-dashoffset="36.06"><animate attributeName="stroke-dashoffset" values="36.06" fill="freeze" begin="5bc5.click" /><animate id="8" attributeName="stroke-dashoffset" values="36.06;0" dur="0.36s" fill="freeze" begin="7.end" /></path></g></g><g><g><path d="M40.5,84.39c0,1.11-0.16,1.92-0.89,2.66c-2.98,3.07-9.48,7.07-19.05,11.66" stroke-dasharray="25.31" stroke-dashoffset="25.31"><animate attributeName="stroke-dashoffset" values="25.31" fill="freeze" begin="5bc5.click" /><animate id="9" attributeName="stroke-dashoffset" values="25.31;0" dur="0.25s" fill="freeze" begin="8.end" /></path></g><g><path d="M66.27,83.08C73,86.75,80.5,92.75,83.81,98.22" stroke-dasharray="23.39" stroke-dashoffset="23.39"><animate attributeName="stroke-dashoffset" values="23.39" fill="freeze" begin="5bc5.click" /><animate id="10" attributeName="stroke-dashoffset" values="23.39;0" dur="0.23s" fill="freeze" begin="9.end" /></path></g></g></g></g></g></svg>