<svg xmlns="http://www.w3.org/2000/svg" width="109" height="109" viewBox="0 0 109 109" id="5bc5"><g fill="none" stroke="#666" stroke-width="9" stroke-linecap="round" stroke-linejoin="round"><g><g><path d="M52,12c1.25,1.25,1.34,2.5,1.34,4.24c0,1.64-0.09,4.01-0.09,6.51" /><g><path d="M21.17,24.19c0,4.03-1.3,14.18-2.88,17.81" /><path d="M21.82,27.19c13.68-1.94,38.42-4.74,63.41-5.9C91.25,21,87,27,82.83,30.87" /></g></g><g><path d="M35,39.14c2.5,0.49,4.72,0.45,6.88,0.17c6.75-0.85,17.24-1.94,23.74-2.64c1.82-0.2,4.09-0.35,5.88,0.09" /><g><g p6:partial xmlns:p6="http://kanjivg.tagaini.net"><path d="M30.07,52.7c0.74,0.74,1.12,1.68,1.29,2.81c1.14,7.25,2.26,14.37,3.7,23.25" /><path d="M32.01,53.66c12.74-1.54,33.96-3.07,42.07-3.53c3.56-0.2,4.37,1.81,3.8,4.75c-1.26,6.5-1.98,10.31-3.54,15.76c-0.52,1.82-1.12,3.63-1.84,5.43" /></g><g><path d="M52.74,41.32c0.91,0.91,1.03,2.05,1.03,3.56c0,7.97-0.02,27.29-0.02,29.37" /></g><g p6:partial xmlns:p6="http://kanjivg.tagaini.net"><path d="M34.31,64.73C39.88,64,65.12,62,75.36,61.6" /><path d="M35.88,76.75c10.37-0.88,24-2,35.97-2.45" /></g></g><g><g><path d="M40.5,84.39c0,1.11-0.16,1.92-0.89,2.66c-2.98,3.07-9.48,7.07-19.05,11.66" /></g><g><path d="M66.27,83.08C73,86.75,80.5,92.75,83.81,98.22" /></g></g></g></g></g><g fill="none" stroke="#000" stroke-width="5" stroke-linecap="round" stroke-linejoin="round"><g><g><path d="M52,12c1.25,1.25,1.34,2.5,1.34,4.24c0,1.64-0.09,4.01-0.09,6.51" stroke-dasharray="11.105" stroke-dashoffset="11.105"><animate attributeName="stroke-dashoffset" values="11.105;11.105;0" dur="0.111s" fill="freeze" begin="0s;5bc5.click" /></path><g><path d="M21.17,24.19c0,4.03-1.3,14.18-2.88,17.81" stroke-dasharray="18.109" stroke-dashoffset="18.109"><animate attributeName="stroke-dashoffset" values="18.109" fill="freeze" begin="5bc5.click" /><animate attributeName="stroke-dashoffset" values="18.109;18.109;0" keyTimes="0;0.38;1" dur="0.292s" fill="freeze" begin="0s;5bc5.click" /></path><path d="M21.82,27.19c13.68-1.94,38.42-4.74,63.41-5.9C91.25,21,87,27,82.83,30.87" stroke-dasharray="77.348" stroke-dashoffset="77.348"><animate attributeName="stroke-dashoffset" values="77.348" fill="freeze" begin="5bc5.click" /><animate attributeName="stroke-dashoffset" values="77.348;77.348;0" keyTimes="0;0.334;1" dur="0.874s" fill="freeze" begin="0s;5bc5.click" /></path></g></g><g><path d="M35,39.14c2.5,0.49,4.72,0.45,6.88,0.17c6.75-0.85,17.24-1.94,23.74-2.64c1.82-0.2,4.09-0.35,5.88,0.09" stroke-dasharray="36.71" stroke-dashoffset="36.71"><animate attributeName="stroke-dashoffset" values="36.71" fill="freeze" begin="5bc5.click" /><animate attributeName="stroke-dashoffset" values="36.71;36.71;0" keyTimes="0;0.704;1" dur="1.241s" fill="freeze" begin="0s;5bc5.click" /></path><g><g p6:partial xmlns:p6="http://kanjivg.tagaini.net"><path d="M30.07,52.7c0.74,0.74,1.12,1.68,1.29,2.81c1.14,7.25,2.26,14.37,3.7,23.25" stroke-dasharray="26.691" stroke-dashoffset="26.691"><animate attributeName="stroke-dashoffset" values="26.691" fill="freeze" begin="5bc5.click" /><animate attributeName="stroke-dashoffset" values="26.691;26.691;0" keyTimes="0;0.823;1" dur="1.508s" fill="freeze" begin="0s;5bc5.click" /></path><path d="M32.01,53.66c12.74-1.54,33.96-3.07,42.07-3.53c3.56-0.2,4.37,1.81,3.8,4.75c-1.26,6.5-1.98,10.31-3.54,15.76c-0.52,1.82-1.12,3.63-1.84,5.43" stroke-dasharray="71.601" stroke-dashoffset="71.601"><animate attributeName="stroke-dashoffset" values="71.601" fill="freeze" begin="5bc5.click" /><animate attributeName="stroke-dashoffset" values="71.601;71.601;0" keyTimes="0;0.737;1" dur="2.046s" fill="freeze" begin="0s;5bc5.click" /></path></g><g><path d="M52.74,41.32c0.91,0.91,1.03,2.05,1.03,3.56c0,7.97-0.02,27.29-0.02,29.37" stroke-dasharray="33.187" stroke-dashoffset="33.187"><animate attributeName="stroke-dashoffset" values="33.187" fill="freeze" begin="5bc5.click" /><animate attributeName="stroke-dashoffset" values="33.187;33.187;0" keyTimes="0;0.86;1" dur="2.378s" fill="freeze" begin="0s;5bc5.click" /></path></g><g p6:partial xmlns:p6="http://kanjivg.tagaini.net"><path d="M34.31,64.73C39.88,64,65.12,62,75.36,61.6" stroke-dasharray="41.176" stroke-dashoffset="41.176"><animate attributeName="stroke-dashoffset" values="41.176" fill="freeze" begin="5bc5.click" /><animate attributeName="stroke-dashoffset" values="41.176;41.176;0" keyTimes="0;0.852;1" dur="2.79s" fill="freeze" begin="0s;5bc5.click" /></path><path d="M35.88,76.75c10.37-0.88,24-2,35.97-2.45" stroke-dasharray="36.058" stroke-dashoffset="36.058"><animate attributeName="stroke-dashoffset" values="36.058" fill="freeze" begin="5bc5.click" /><animate attributeName="stroke-dashoffset" values="36.058;36.058;0" keyTimes="0;0.885;1" dur="3.151s" fill="freeze" begin="0s;5bc5.click" /></path></g></g><g><g><path d="M40.5,84.39c0,1.11-0.16,1.92-0.89,2.66c-2.98,3.07-9.48,7.07-19.05,11.66" stroke-dasharray="25.313" stroke-dashoffset="25.313"><animate attributeName="stroke-dashoffset" values="25.313" fill="freeze" begin="5bc5.click" /><animate attributeName="stroke-dashoffset" values="25.313;25.313;0" keyTimes="0;0.926;1" dur="3.404s" fill="freeze" begin="0s;5bc5.click" /></path></g><g><path d="M66.27,83.08C73,86.75,80.5,92.75,83.81,98.22" stroke-dasharray="23.394" stroke-dashoffset="23.394"><animate attributeName="stroke-dashoffset" values="23.394" fill="freeze" begin="5bc5.click" /><animate attributeName="stroke-dashoffset" values="23.394;23.394;0" keyTimes="0;0.936;1" dur="3.638s" fill="freeze" begin="0s;5bc5.click" /></path></g></g></g></g></g></svg>