<svg xmlns="http://www.w3.org/2000/svg" width="109" height="109" viewBox="0 0 109 109" id="5bdd"><g fill="none" stroke="#666" stroke-width="9" stroke-linecap="round" stroke-linejoin="round"><g><g><path d="M50.68,11.25c1.11,0.36,2.7,2.14,2.67,3.19c-0.08,3.29-0.08,4.9-0.09,7.9" /><g><path d="M25.17,24.14c0,3.36-2.71,12.62-3.95,14.86" /><path d="M26.48,25.7c8.04-0.83,49.41-5.33,55.92-5.64c10.19-0.5,2.16,6.05-0.38,7.84" /></g></g><g p4:phon="しょうへん+けいがしら+冖+又" xmlns:p4="http://kanjivg.tagaini.net"><g><path d="M33.62,34.5c0.81,0.81,1.21,2.25,1.21,4c0,0.66,0.04,37.12,0.04,53.12c0,4.31,0,7.13-0.01,7.38" /><path d="M19,47.75c3,1.81,7.75,7.44,8.5,10.25" /><path d="M16.25,80.05c1.38,0.58,2.78,0.19,4.02-0.76c3.6-2.8,7.21-6.22,10.48-9.78" /></g><g><g><path d="M50.33,33.82c1.61,0.76,3.58,0.57,5.29,0.41c4.97-0.48,19.25-2.2,20.21-2.38c1.13-0.2,2.41,0.59,2.27,2.02c-0.42,4.46-0.93,9.84-1.35,13.93c-0.22,2.14-0.42,3.93-0.56,5.04" /><path d="M51.59,42.69c1.13,0.62,3.42,0.66,4.65,0.55c7.37-0.66,12.12-1.11,20.8-2.04" /><path d="M51.27,52.46c1.48,0.66,3.36,0.67,4.86,0.53c7.12-0.67,10.75-1.27,19.35-2.2" /></g><g><g><path d="M45.62,60.25c-0.1,3.36-1.58,10.33-2.43,12.33" /><path d="M46.4,62.63c13.1-2.01,25.35-3.63,37.41-4.4c10.73-0.68,1.55,5.99,0.55,6.94" /></g><g><path d="M51.73,72.19c1.13,0.19,1.28,0.49,3.54,0.19c1.99-0.26,13.64-2.61,17.49-3.31c2.46-0.45,4.05,0.73,2.67,3.22C68.69,84.43,57.22,93.35,44.82,98" /><path d="M50.44,76.6c3.34,0.46,18.87,11.27,31.44,17.52c3,1.49,5.25,2.63,8.52,3.43" /></g></g></g></g></g></g><g fill="none" stroke="#000" stroke-width="5" stroke-linecap="round" stroke-linejoin="round"><g><g><path d="M50.68,11.25c1.11,0.36,2.7,2.14,2.67,3.19c-0.08,3.29-0.08,4.9-0.09,7.9" stroke-dasharray="12.24" stroke-dashoffset="12.24"><animate id="0" attributeName="stroke-dashoffset" values="12.24;0" dur="0.12s" fill="freeze" begin="0s;5bdd.click" /></path><g><path d="M25.17,24.14c0,3.36-2.71,12.62-3.95,14.86" stroke-dasharray="15.44" stroke-dashoffset="15.44"><animate attributeName="stroke-dashoffset" values="15.44" fill="freeze" begin="5bdd.click" /><animate id="1" attributeName="stroke-dashoffset" values="15.44;0" dur="0.15s" fill="freeze" begin="0.end" /></path><path d="M26.48,25.7c8.04-0.83,49.41-5.33,55.92-5.64c10.19-0.5,2.16,6.05-0.38,7.84" stroke-dasharray="70.4" stroke-dashoffset="70.4"><animate attributeName="stroke-dashoffset" values="70.4" fill="freeze" begin="5bdd.click" /><animate id="2" attributeName="stroke-dashoffset" values="70.4;0" dur="0.53s" fill="freeze" begin="1.end" /></path></g></g><g p4:phon="しょうへん+けいがしら+冖+又" xmlns:p4="http://kanjivg.tagaini.net"><g><path d="M33.62,34.5c0.81,0.81,1.21,2.25,1.21,4c0,0.66,0.04,37.12,0.04,53.12c0,4.31,0,7.13-0.01,7.38" stroke-dasharray="64.78" stroke-dashoffset="64.78"><animate attributeName="stroke-dashoffset" values="64.78" fill="freeze" begin="5bdd.click" /><animate id="3" attributeName="stroke-dashoffset" values="64.78;0" dur="0.49s" fill="freeze" begin="2.end" /></path><path d="M19,47.75c3,1.81,7.75,7.44,8.5,10.25" stroke-dasharray="13.5" stroke-dashoffset="13.5"><animate attributeName="stroke-dashoffset" values="13.5" fill="freeze" begin="5bdd.click" /><animate id="4" attributeName="stroke-dashoffset" values="13.5;0" dur="0.14s" fill="freeze" begin="3.end" /></path><path d="M16.25,80.05c1.38,0.58,2.78,0.19,4.02-0.76c3.6-2.8,7.21-6.22,10.48-9.78" stroke-dasharray="18.65" stroke-dashoffset="18.65"><animate attributeName="stroke-dashoffset" values="18.65" fill="freeze" begin="5bdd.click" /><animate id="5" attributeName="stroke-dashoffset" values="18.65;0" dur="0.19s" fill="freeze" begin="4.end" /></path></g><g><g><path d="M50.33,33.82c1.61,0.76,3.58,0.57,5.29,0.41c4.97-0.48,19.25-2.2,20.21-2.38c1.13-0.2,2.41,0.59,2.27,2.02c-0.42,4.46-0.93,9.84-1.35,13.93c-0.22,2.14-0.42,3.93-0.56,5.04" stroke-dasharray="48.33" stroke-dashoffset="48.33"><animate attributeName="stroke-dashoffset" values="48.33" fill="freeze" begin="5bdd.click" /><animate id="6" attributeName="stroke-dashoffset" values="48.33;0" dur="0.48s" fill="freeze" begin="5.end" /></path><path d="M51.59,42.69c1.13,0.62,3.42,0.66,4.65,0.55c7.37-0.66,12.12-1.11,20.8-2.04" stroke-dasharray="25.63" stroke-dashoffset="25.63"><animate attributeName="stroke-dashoffset" values="25.63" fill="freeze" begin="5bdd.click" /><animate id="7" attributeName="stroke-dashoffset" values="25.63;0" dur="0.26s" fill="freeze" begin="6.end" /></path><path d="M51.27,52.46c1.48,0.66,3.36,0.67,4.86,0.53c7.12-0.67,10.75-1.27,19.35-2.2" stroke-dasharray="24.42" stroke-dashoffset="24.42"><animate attributeName="stroke-dashoffset" values="24.42" fill="freeze" begin="5bdd.click" /><animate id="8" attributeName="stroke-dashoffset" values="24.42;0" dur="0.24s" fill="freeze" begin="7.end" /></path></g><g><g><path d="M45.62,60.25c-0.1,3.36-1.58,10.33-2.43,12.33" stroke-dasharray="12.6" stroke-dashoffset="12.6"><animate attributeName="stroke-dashoffset" values="12.6" fill="freeze" begin="5bdd.click" /><animate id="9" attributeName="stroke-dashoffset" values="12.6;0" dur="0.13s" fill="freeze" begin="8.end" /></path><path d="M46.4,62.63c13.1-2.01,25.35-3.63,37.41-4.4c10.73-0.68,1.55,5.99,0.55,6.94" stroke-dasharray="50.81" stroke-dashoffset="50.81"><animate attributeName="stroke-dashoffset" values="50.81" fill="freeze" begin="5bdd.click" /><animate id="10" attributeName="stroke-dashoffset" values="50.81;0" dur="0.51s" fill="freeze" begin="9.end" /></path></g><g><path d="M51.73,72.19c1.13,0.19,1.28,0.49,3.54,0.19c1.99-0.26,13.64-2.61,17.49-3.31c2.46-0.45,4.05,0.73,2.67,3.22C68.69,84.43,57.22,93.35,44.82,98" stroke-dasharray="68.02" stroke-dashoffset="68.02"><animate attributeName="stroke-dashoffset" values="68.02" fill="freeze" begin="5bdd.click" /><animate id="11" attributeName="stroke-dashoffset" values="68.02;0" dur="0.51s" fill="freeze" begin="10.end" /></path><path d="M50.44,76.6c3.34,0.46,18.87,11.27,31.44,17.52c3,1.49,5.25,2.63,8.52,3.43" stroke-dasharray="45.25" stroke-dashoffset="45.25"><animate attributeName="stroke-dashoffset" values="45.25" fill="freeze" begin="5bdd.click" /><animate id="12" attributeName="stroke-dashoffset" values="45.25;0" dur="0.45s" fill="freeze" begin="11.end" /></path></g></g></g></g></g></g></svg>