<svg xmlns="http://www.w3.org/2000/svg" viewBox="0 0 109 109" id="5be8"><g fill="none" stroke="#666" stroke-width="6" stroke-linecap="round" stroke-linejoin="round"><g><g><g><path d="M51.71,9.25c0.89,0.36,2.16,1.3,2.14,2.35c-0.07,3.3-0.07,5.68-0.07,8.68" /><g><path d="M21.52,21.27c0,3.45-3.35,13.89-4.44,16.19" /><path d="M21.62,23.49c1.27,0.06,57.27-5.21,63.69-5.21c13.43,0,1.23,8.01-0.37,8.58" /></g></g><g><g><path d="M29.41,34.52c1.08,0.31,3.08,0.43,4.15,0.31c9.94-1.08,29.06-3.57,39.36-3.57c1.8,0,2.89,0.15,3.79,0.3" /></g></g><path d="M40.84,27.97c0.81,0.37,2.08,0.97,2.17,3.06c0.24,5.48,0.93,17.04,1.28,21.52" /><path d="M62.13,24.75c0.81,0.38,1.74,2.8,1.61,3.56c-0.8,4.6-1.41,13.61-2.47,22.19" /><g><g><path d="M29.41,43.72c1.08,0.31,3.08,0.44,4.15,0.31C42,43,62.63,40.46,72.92,40.46c1.8,0,2.89,0.15,3.79,0.3" /></g><g><path d="M18.78,54.24c1.45,0.33,4.13,0.4,5.57,0.33c11.14-0.57,48.07-5.28,61.9-5.28c2.42,0,3.88,0.16,5.09,0.32" /></g></g><g><path d="M41.06,55.67c-0.31,0.58-0.03,1.54-0.74,2.35C32.75,66.75,21.5,75.75,11.25,79.5" /><path d="M62.24,51.41c9.27,7.67,18.9,16.95,25.67,20.63c2.62,1.43,3.56,2.19,6.09,2.65" /></g></g><g><path d="M33.47,70.74c1.12,0.37,2.4,0.48,3.68,0.37c6.57-0.6,23.12-2.18,33.05-2.88c1.28-0.09,2.08,0.06,3.36,0.32" /><path d="M53.15,57.75c0.8,0.32,1.44,1.92,1.44,2.58c0,6.73,0,35.16-0.16,39.17" /><path d="M53.47,70.19c-5.65,7.44-20.8,18.8-32.56,23.01" /><path d="M54.23,70.28c4.09,2.97,23.35,17.85,27.8,20.77c1.51,0.99,2.8,1.41,4.31,1.7" /></g></g></g><g fill="none" stroke="#000" stroke-width="3" stroke-linecap="round" stroke-linejoin="round"><path d="M51.71,9.25c0.89,0.36,2.16,1.3,2.14,2.35c-0.07,3.3-0.07,5.68-0.07,8.68" stroke-dasharray="12.028" stroke-dashoffset="12.028"><animate attributeName="stroke-dashoffset" values="12.028;12.028;0" dur="0.12s" fill="freeze" begin="0s;5be8.click" /></path><path d="M21.52,21.27c0,3.45-3.35,13.89-4.44,16.19" stroke-dasharray="16.844" stroke-dashoffset="16.844"><animate attributeName="stroke-dashoffset" values="16.844" fill="freeze" begin="5be8.click" /><animate attributeName="stroke-dashoffset" values="16.844;16.844;0" keyTimes="0;0.417;1" dur="0.288s" fill="freeze" begin="0s;5be8.click" /></path><path d="M21.62,23.49c1.27,0.06,57.27-5.21,63.69-5.21c13.43,0,1.23,8.01-0.37,8.58" stroke-dasharray="80.532" stroke-dashoffset="80.532"><animate attributeName="stroke-dashoffset" values="80.532" fill="freeze" begin="5be8.click" /><animate attributeName="stroke-dashoffset" values="80.532;80.532;0" keyTimes="0;0.322;1" dur="0.894s" fill="freeze" begin="0s;5be8.click" /></path><path d="M29.41,34.52c1.08,0.31,3.08,0.43,4.15,0.31c9.94-1.08,29.06-3.57,39.36-3.57c1.8,0,2.89,0.15,3.79,0.3" stroke-dasharray="47.525" stroke-dashoffset="47.525"><animate attributeName="stroke-dashoffset" values="47.525" fill="freeze" begin="5be8.click" /><animate attributeName="stroke-dashoffset" values="47.525;47.525;0" keyTimes="0;0.653;1" dur="1.369s" fill="freeze" begin="0s;5be8.click" /></path><path d="M40.84,27.97c0.81,0.37,2.08,0.97,2.17,3.06c0.24,5.48,0.93,17.04,1.28,21.52" stroke-dasharray="25.564" stroke-dashoffset="25.564"><animate attributeName="stroke-dashoffset" values="25.564" fill="freeze" begin="5be8.click" /><animate attributeName="stroke-dashoffset" values="25.564;25.564;0" keyTimes="0;0.842;1" dur="1.625s" fill="freeze" begin="0s;5be8.click" /></path><path d="M62.13,24.75c0.81,0.38,1.74,2.8,1.61,3.56c-0.8,4.6-1.41,13.61-2.47,22.19" stroke-dasharray="26.362" stroke-dashoffset="26.362"><animate attributeName="stroke-dashoffset" values="26.362" fill="freeze" begin="5be8.click" /><animate attributeName="stroke-dashoffset" values="26.362;26.362;0" keyTimes="0;0.86;1" dur="1.889s" fill="freeze" begin="0s;5be8.click" /></path><path d="M29.41,43.72c1.08,0.31,3.08,0.44,4.15,0.31C42,43,62.63,40.46,72.92,40.46c1.8,0,2.89,0.15,3.79,0.3" stroke-dasharray="47.528" stroke-dashoffset="47.528"><animate attributeName="stroke-dashoffset" values="47.528" fill="freeze" begin="5be8.click" /><animate attributeName="stroke-dashoffset" values="47.528;47.528;0" keyTimes="0;0.799;1" dur="2.364s" fill="freeze" begin="0s;5be8.click" /></path><path d="M18.78,54.24c1.45,0.33,4.13,0.4,5.57,0.33c11.14-0.57,48.07-5.28,61.9-5.28c2.42,0,3.88,0.16,5.09,0.32" stroke-dasharray="72.836" stroke-dashoffset="72.836"><animate attributeName="stroke-dashoffset" values="72.836" fill="freeze" begin="5be8.click" /><animate attributeName="stroke-dashoffset" values="72.836;72.836;0" keyTimes="0;0.812;1" dur="2.912s" fill="freeze" begin="0s;5be8.click" /></path><path d="M41.06,55.67c-0.31,0.58-0.03,1.54-0.74,2.35C32.75,66.75,21.5,75.75,11.25,79.5" stroke-dasharray="38.987" stroke-dashoffset="38.987"><animate attributeName="stroke-dashoffset" values="38.987" fill="freeze" begin="5be8.click" /><animate attributeName="stroke-dashoffset" values="38.987;38.987;0" keyTimes="0;0.882;1" dur="3.302s" fill="freeze" begin="0s;5be8.click" /></path><path d="M62.24,51.41c9.27,7.67,18.9,16.95,25.67,20.63c2.62,1.43,3.56,2.19,6.09,2.65" stroke-dasharray="39.661" stroke-dashoffset="39.661"><animate attributeName="stroke-dashoffset" values="39.661" fill="freeze" begin="5be8.click" /><animate attributeName="stroke-dashoffset" values="39.661;39.661;0" keyTimes="0;0.893;1" dur="3.699s" fill="freeze" begin="0s;5be8.click" /></path><path d="M33.47,70.74c1.12,0.37,2.4,0.48,3.68,0.37c6.57-0.6,23.12-2.18,33.05-2.88c1.28-0.09,2.08,0.06,3.36,0.32" stroke-dasharray="40.289" stroke-dashoffset="40.289"><animate attributeName="stroke-dashoffset" values="40.289" fill="freeze" begin="5be8.click" /><animate attributeName="stroke-dashoffset" values="40.289;40.289;0" keyTimes="0;0.902;1" dur="4.102s" fill="freeze" begin="0s;5be8.click" /></path><path d="M53.15,57.75c0.8,0.32,1.44,1.92,1.44,2.58c0,6.73,0,35.16-0.16,39.17" stroke-dasharray="42.238" stroke-dashoffset="42.238"><animate attributeName="stroke-dashoffset" values="42.238" fill="freeze" begin="5be8.click" /><animate attributeName="stroke-dashoffset" values="42.238;42.238;0" keyTimes="0;0.907;1" dur="4.524s" fill="freeze" begin="0s;5be8.click" /></path><path d="M53.47,70.19c-5.65,7.44-20.8,18.8-32.56,23.01" stroke-dasharray="40.262" stroke-dashoffset="40.262"><animate attributeName="stroke-dashoffset" values="40.262" fill="freeze" begin="5be8.click" /><animate attributeName="stroke-dashoffset" values="40.262;40.262;0" keyTimes="0;0.918;1" dur="4.927s" fill="freeze" begin="0s;5be8.click" /></path><path d="M54.23,70.28c4.09,2.97,23.35,17.85,27.8,20.77c1.51,0.99,2.8,1.41,4.31,1.7" stroke-dasharray="39.372" stroke-dashoffset="39.372"><animate attributeName="stroke-dashoffset" values="39.372" fill="freeze" begin="5be8.click" /><animate attributeName="stroke-dashoffset" values="39.372;39.372;0" keyTimes="0;0.926;1" dur="5.321s" fill="freeze" begin="0s;5be8.click" /></path></g></svg>