<svg xmlns="http://www.w3.org/2000/svg" viewBox="0 0 109 109" id="5bf0"><g fill="none" stroke="#666" stroke-width="6" stroke-linecap="round" stroke-linejoin="round"><g><g><path d="M51.82,9.31c0.93,0.3,2.25,1.78,2.22,2.65c-0.07,2.74-0.07,6.51-0.07,9.01" /><g><path d="M22.07,20.08c0,3.25-2.63,12.19-3.82,14.36" /><path d="M21.7,23.88c8.69-0.9,58.03-4.72,65.09-4.8c7.96-0.08,1.46,6.17-0.57,7.71" /></g></g><g><g><path d="M28.5,31.69c0.21,0.23,0.43,0.82,0.53,1.1c0.74,2.26,2.56,7.69,3.07,11.75" /><path d="M30.3,32.42c6.31-0.91,43.12-3.64,45.63-3.93c0.92-0.11,2.16,0.76,1.92,2.03c-0.51,2.65-1.78,6.7-3.14,10.49" /><path d="M44.28,31.15c0.04,0.44,0.62,0.86,0.76,1.99c0.36,2.79,0.93,6.85,1.03,8.05" /><path d="M60.34,30.21c-0.04,0.64,0.35,1.54,0.25,2.56c-0.28,2.89-1.19,6.68-1.41,7.79" /><path d="M32.77,42.91C38,42,71,39.59,75.05,39.07" /></g><path d="M17.75,51.77c1.92,0.42,5.43,0.59,7.34,0.42C38.5,51,74.72,46.86,86.54,47.35c3.18,0.13,5.11,0.2,6.71,0.41" /><g><path d="M34.25,57.66c0.3,0.22,0.61,0.4,0.74,0.68c1.05,2.17,2.3,7.76,3.02,11.66" /><path d="M35.13,58.71c7.4-0.91,30.88-2.81,34.69-3.12c1.4-0.11,2.24,1.13,2.04,1.79c-0.83,2.73-1.53,4.39-3.3,8.33" /><path d="M38.31,68.65c5.68-0.74,25.38-2.15,32.64-3.01" /></g><path d="M48.4,68.83c0.09,0.49,0.34,1.31-0.17,1.98C44.9,75.1,33.75,84,17.36,89.7" /><path d="M38.79,82.57c0.39,0.29,0.81,1.08,0.81,1.58c-0.03,6.4-0.06,9.35-0.26,13.72c-0.09,1.84,0.91,1.84,2.91,0.72c2-1.12,16-10.04,18.25-11.38" /><path d="M79.23,69.93c0.03,0.24,0.34,1.16,0.15,1.47c-1.21,1.98-4.98,4.81-11.13,8.75" /><path d="M51.92,70.29c1.73,0.84,4.49,3.22,4.97,3.57c7.06,5.29,24.21,18.8,28.98,21.92c1.79,1.18,3.33,1.68,5.13,2.01" /></g></g></g><g fill="none" stroke="#000" stroke-width="3" stroke-linecap="round" stroke-linejoin="round"><path d="M51.82,9.31c0.93,0.3,2.25,1.78,2.22,2.65c-0.07,2.74-0.07,6.51-0.07,9.01" stroke-dasharray="12.619" stroke-dashoffset="12.619"><animate attributeName="stroke-dashoffset" values="12.619;12.619;0" dur="0.252s" fill="freeze" begin="0s;5bf0.click" /></path><path d="M22.07,20.08c0,3.25-2.63,12.19-3.82,14.36" stroke-dasharray="14.926" stroke-dashoffset="14.926"><animate attributeName="stroke-dashoffset" values="14.926" fill="freeze" begin="5bf0.click" /><animate attributeName="stroke-dashoffset" values="14.926;14.926;0" keyTimes="0;0.457;1" dur="0.551s" fill="freeze" begin="0s;5bf0.click" /></path><path d="M21.7,23.88c8.69-0.9,58.03-4.72,65.09-4.8c7.96-0.08,1.46,6.17-0.57,7.71" stroke-dasharray="77.546" stroke-dashoffset="77.546"><animate attributeName="stroke-dashoffset" values="77.546" fill="freeze" begin="5bf0.click" /><animate attributeName="stroke-dashoffset" values="77.546;77.546;0" keyTimes="0;0.486;1" dur="1.134s" fill="freeze" begin="0s;5bf0.click" /></path><path d="M28.5,31.69c0.21,0.23,0.43,0.82,0.53,1.1c0.74,2.26,2.56,7.69,3.07,11.75" stroke-dasharray="13.389" stroke-dashoffset="13.389"><animate attributeName="stroke-dashoffset" values="13.389" fill="freeze" begin="5bf0.click" /><animate attributeName="stroke-dashoffset" values="13.389;13.389;0" keyTimes="0;0.809;1" dur="1.402s" fill="freeze" begin="0s;5bf0.click" /></path><path d="M30.3,32.42c6.31-0.91,43.12-3.64,45.63-3.93c0.92-0.11,2.16,0.76,1.92,2.03c-0.51,2.65-1.78,6.7-3.14,10.49" stroke-dasharray="59.981" stroke-dashoffset="59.981"><animate attributeName="stroke-dashoffset" values="59.981" fill="freeze" begin="5bf0.click" /><animate attributeName="stroke-dashoffset" values="59.981;59.981;0" keyTimes="0;0.7;1" dur="2.002s" fill="freeze" begin="0s;5bf0.click" /></path><path d="M44.28,31.15c0.04,0.44,0.62,0.86,0.76,1.99c0.36,2.79,0.93,6.85,1.03,8.05" stroke-dasharray="10.265" stroke-dashoffset="10.265"><animate attributeName="stroke-dashoffset" values="10.265" fill="freeze" begin="5bf0.click" /><animate attributeName="stroke-dashoffset" values="10.265;10.265;0" keyTimes="0;0.907;1" dur="2.207s" fill="freeze" begin="0s;5bf0.click" /></path><path d="M60.34,30.21c-0.04,0.64,0.35,1.54,0.25,2.56c-0.28,2.89-1.19,6.68-1.41,7.79" stroke-dasharray="10.503" stroke-dashoffset="10.503"><animate attributeName="stroke-dashoffset" values="10.503" fill="freeze" begin="5bf0.click" /><animate attributeName="stroke-dashoffset" values="10.503;10.503;0" keyTimes="0;0.913;1" dur="2.417s" fill="freeze" begin="0s;5bf0.click" /></path><path d="M32.77,42.91C38,42,71,39.59,75.05,39.07" stroke-dasharray="42.459" stroke-dashoffset="42.459"><animate attributeName="stroke-dashoffset" values="42.459" fill="freeze" begin="5bf0.click" /><animate attributeName="stroke-dashoffset" values="42.459;42.459;0" keyTimes="0;0.85;1" dur="2.842s" fill="freeze" begin="0s;5bf0.click" /></path><path d="M17.75,51.77c1.92,0.42,5.43,0.59,7.34,0.42C38.5,51,74.72,46.86,86.54,47.35c3.18,0.13,5.11,0.2,6.71,0.41" stroke-dasharray="75.763" stroke-dashoffset="75.763"><animate attributeName="stroke-dashoffset" values="75.763" fill="freeze" begin="5bf0.click" /><animate attributeName="stroke-dashoffset" values="75.763;75.763;0" keyTimes="0;0.833;1" dur="3.412s" fill="freeze" begin="0s;5bf0.click" /></path><path d="M34.25,57.66c0.3,0.22,0.61,0.4,0.74,0.68c1.05,2.17,2.3,7.76,3.02,11.66" stroke-dasharray="13.084" stroke-dashoffset="13.084"><animate attributeName="stroke-dashoffset" values="13.084" fill="freeze" begin="5bf0.click" /><animate attributeName="stroke-dashoffset" values="13.084;13.084;0" keyTimes="0;0.929;1" dur="3.674s" fill="freeze" begin="0s;5bf0.click" /></path><path d="M35.13,58.71c7.4-0.91,30.88-2.81,34.69-3.12c1.4-0.11,2.24,1.13,2.04,1.79c-0.83,2.73-1.53,4.39-3.3,8.33" stroke-dasharray="46.898" stroke-dashoffset="46.898"><animate attributeName="stroke-dashoffset" values="46.898" fill="freeze" begin="5bf0.click" /><animate attributeName="stroke-dashoffset" values="46.898;46.898;0" keyTimes="0;0.887;1" dur="4.143s" fill="freeze" begin="0s;5bf0.click" /></path><path d="M38.31,68.65c5.68-0.74,25.38-2.15,32.64-3.01" stroke-dasharray="32.781" stroke-dashoffset="32.781"><animate attributeName="stroke-dashoffset" values="32.781" fill="freeze" begin="5bf0.click" /><animate attributeName="stroke-dashoffset" values="32.781;32.781;0" keyTimes="0;0.927;1" dur="4.471s" fill="freeze" begin="0s;5bf0.click" /></path><path d="M48.4,68.83c0.09,0.49,0.34,1.31-0.17,1.98C44.9,75.1,33.75,84,17.36,89.7" stroke-dasharray="38.618" stroke-dashoffset="38.618"><animate attributeName="stroke-dashoffset" values="38.618" fill="freeze" begin="5bf0.click" /><animate attributeName="stroke-dashoffset" values="38.618;38.618;0" keyTimes="0;0.921;1" dur="4.857s" fill="freeze" begin="0s;5bf0.click" /></path><path d="M38.79,82.57c0.39,0.29,0.81,1.08,0.81,1.58c-0.03,6.4-0.06,9.35-0.26,13.72c-0.09,1.84,0.91,1.84,2.91,0.72c2-1.12,16-10.04,18.25-11.38" stroke-dasharray="41.229" stroke-dashoffset="41.229"><animate attributeName="stroke-dashoffset" values="41.229" fill="freeze" begin="5bf0.click" /><animate attributeName="stroke-dashoffset" values="41.229;41.229;0" keyTimes="0;0.922;1" dur="5.269s" fill="freeze" begin="0s;5bf0.click" /></path><path d="M79.23,69.93c0.03,0.24,0.34,1.16,0.15,1.47c-1.21,1.98-4.98,4.81-11.13,8.75" stroke-dasharray="15.735" stroke-dashoffset="15.735"><animate attributeName="stroke-dashoffset" values="15.735" fill="freeze" begin="5bf0.click" /><animate attributeName="stroke-dashoffset" values="15.735;15.735;0" keyTimes="0;0.971;1" dur="5.426s" fill="freeze" begin="0s;5bf0.click" /></path><path d="M51.92,70.29c1.73,0.84,4.49,3.22,4.97,3.57c7.06,5.29,24.21,18.8,28.98,21.92c1.79,1.18,3.33,1.68,5.13,2.01" stroke-dasharray="48.022" stroke-dashoffset="48.022"><animate attributeName="stroke-dashoffset" values="48.022" fill="freeze" begin="5bf0.click" /><animate attributeName="stroke-dashoffset" values="48.022;48.022;0" keyTimes="0;0.919;1" dur="5.906s" fill="freeze" begin="0s;5bf0.click" /></path></g></svg>