<svg xmlns="http://www.w3.org/2000/svg" width="109" height="109" viewBox="0 0 109 109" id="5bf3"><g fill="none" stroke="#666" stroke-width="9" stroke-linecap="round" stroke-linejoin="round"><g><g><path d="M52.08,9.78c0.82,0.27,1.98,1.57,1.96,2.34c-0.06,2.42-0.06,4.53-0.06,6.74" /><g><path d="M20.47,19.78c0,3.61-3.42,13.54-4.97,15.94" /><path d="M21.47,21.59c9.09-0.95,57.61-4.33,64.99-4.69c11.53-0.56,2.44,6.85-0.43,8.87" /></g></g><g><g><g p6:partial xmlns:p6="http://kanjivg.tagaini.net"><path d="M24.09,30.13c0.49,0.18,3.16,0.22,3.66,0.17c2.31-0.24,11.72-1.53,17.28-1.79c0.76-0.04,2.16-0.13,2.79,0.02" /><path d="M34.52,30.06c0.73,0.32,1.24,0.99,1.24,1.24c0,2.12,0.43,11.92,0.29,13.33" /><path d="M23.8,38.43c0.46,0.14,3.71,0.17,4.17,0.13c2.71-0.19,9.69-2.29,13.43-2.5c0.58-0.03,2.68-0.06,3.54,0.07" /><path d="M18.84,48.27c0.57,0.1,2.81,0.9,3.67,0.7c5.51-1.28,13.38-3.14,21.77-5.34" /></g><g><g><g><path d="M58.41,22.89c0.02,0.25,0.08,0.65-0.03,1c-0.67,2.12-2.78,6.76-6.01,9.6" /></g><path d="M56.51,28.89c1.02,0.05,1.79,0,2.43-0.03c8.41-0.4,15.84-2.31,20.17-2.53c1.05-0.05,1.69,0.1,2.22,0.21" /></g><g><path d="M66.29,30.54c0.06,0.14,0.83,0.75,0.88,1.67c0.28,4.4-0.18,11.54-0.18,13.04c0,5.26-3.24,1.26-4.64,0.08" /><path d="M58.91,34.99c0.02,0.26,0.04,0.67-0.04,1.04c-0.51,2.19-3.47,7-7.51,9.94" /><path d="M73.93,36.22c3.63,1.72,9.38,7.07,10.29,9.75" /></g></g></g><g><g><path d="M32.75,53.93c0.68,0.7,1.68,2.73,1.68,3.66c0,0.94,0.32,23.51-0.5,27.43" /><path d="M35.57,55.74c3.87-0.12,33.89-3.26,37.42-3.26c1.76,0,2.51,1.65,2.51,2.52c0,2.14-0.87,28.08-0.87,28.79" /><path d="M34.51,64.13c7.24-0.27,34.32-2.9,40.53-2.9" /><path d="M34.82,73.51C45.75,73,63.5,70.95,75.08,70.85" /><path d="M34.32,83.19c10.93-0.38,30.3-1.9,40.26-1.9" /></g><g><path d="M39.95,88.23c0.53,0.95,0.1,1.87-0.94,2.56c-3.16,2.08-11.95,6.51-18.26,8.97" /><path d="M63.75,86.72c8.66,3.5,18.89,9.84,21.25,12.9" /></g></g></g></g></g><g fill="none" stroke="#000" stroke-width="5" stroke-linecap="round" stroke-linejoin="round"><g><g><path d="M52.08,9.78c0.82,0.27,1.98,1.57,1.96,2.34c-0.06,2.42-0.06,4.53-0.06,6.74" stroke-dasharray="9.92" stroke-dashoffset="9.92"><animate id="0" attributeName="stroke-dashoffset" values="9.92;0" dur="0.1s" fill="freeze" begin="0s;5bf3.click" /></path><g><path d="M20.47,19.78c0,3.61-3.42,13.54-4.97,15.94" stroke-dasharray="16.79" stroke-dashoffset="16.79"><animate attributeName="stroke-dashoffset" values="16.79" fill="freeze" begin="5bf3.click" /><animate id="1" attributeName="stroke-dashoffset" values="16.79;0" dur="0.17s" fill="freeze" begin="0.end" /></path><path d="M21.47,21.59c9.09-0.95,57.61-4.33,64.99-4.69c11.53-0.56,2.44,6.85-0.43,8.87" stroke-dasharray="81.22" stroke-dashoffset="81.22"><animate attributeName="stroke-dashoffset" values="81.22" fill="freeze" begin="5bf3.click" /><animate id="2" attributeName="stroke-dashoffset" values="81.22;0" dur="0.61s" fill="freeze" begin="1.end" /></path></g></g><g><g><g p6:partial xmlns:p6="http://kanjivg.tagaini.net"><path d="M24.09,30.13c0.49,0.18,3.16,0.22,3.66,0.17c2.31-0.24,11.72-1.53,17.28-1.79c0.76-0.04,2.16-0.13,2.79,0.02" stroke-dasharray="23.84" stroke-dashoffset="23.84"><animate attributeName="stroke-dashoffset" values="23.84" fill="freeze" begin="5bf3.click" /><animate id="3" attributeName="stroke-dashoffset" values="23.84;0" dur="0.24s" fill="freeze" begin="2.end" /></path><path d="M34.52,30.06c0.73,0.32,1.24,0.99,1.24,1.24c0,2.12,0.43,11.92,0.29,13.33" stroke-dasharray="15.14" stroke-dashoffset="15.14"><animate attributeName="stroke-dashoffset" values="15.14" fill="freeze" begin="5bf3.click" /><animate id="4" attributeName="stroke-dashoffset" values="15.14;0" dur="0.15s" fill="freeze" begin="3.end" /></path><path d="M23.8,38.43c0.46,0.14,3.71,0.17,4.17,0.13c2.71-0.19,9.69-2.29,13.43-2.5c0.58-0.03,2.68-0.06,3.54,0.07" stroke-dasharray="21.39" stroke-dashoffset="21.39"><animate attributeName="stroke-dashoffset" values="21.39" fill="freeze" begin="5bf3.click" /><animate id="5" attributeName="stroke-dashoffset" values="21.39;0" dur="0.21s" fill="freeze" begin="4.end" /></path><path d="M18.84,48.27c0.57,0.1,2.81,0.9,3.67,0.7c5.51-1.28,13.38-3.14,21.77-5.34" stroke-dasharray="26.18" stroke-dashoffset="26.18"><animate attributeName="stroke-dashoffset" values="26.18" fill="freeze" begin="5bf3.click" /><animate id="6" attributeName="stroke-dashoffset" values="26.18;0" dur="0.26s" fill="freeze" begin="5.end" /></path></g><g><g><g><path d="M58.41,22.89c0.02,0.25,0.08,0.65-0.03,1c-0.67,2.12-2.78,6.76-6.01,9.6" stroke-dasharray="12.45" stroke-dashoffset="12.45"><animate attributeName="stroke-dashoffset" values="12.45" fill="freeze" begin="5bf3.click" /><animate id="7" attributeName="stroke-dashoffset" values="12.45;0" dur="0.12s" fill="freeze" begin="6.end" /></path></g><path d="M56.51,28.89c1.02,0.05,1.79,0,2.43-0.03c8.41-0.4,15.84-2.31,20.17-2.53c1.05-0.05,1.69,0.1,2.22,0.21" stroke-dasharray="25.01" stroke-dashoffset="25.01"><animate attributeName="stroke-dashoffset" values="25.01" fill="freeze" begin="5bf3.click" /><animate id="8" attributeName="stroke-dashoffset" values="25.01;0" dur="0.25s" fill="freeze" begin="7.end" /></path></g><g><path d="M66.29,30.54c0.06,0.14,0.83,0.75,0.88,1.67c0.28,4.4-0.18,11.54-0.18,13.04c0,5.26-3.24,1.26-4.64,0.08" stroke-dasharray="22.56" stroke-dashoffset="22.56"><animate attributeName="stroke-dashoffset" values="22.56" fill="freeze" begin="5bf3.click" /><animate id="9" attributeName="stroke-dashoffset" values="22.56;0" dur="0.23s" fill="freeze" begin="8.end" /></path><path d="M58.91,34.99c0.02,0.26,0.04,0.67-0.04,1.04c-0.51,2.19-3.47,7-7.51,9.94" stroke-dasharray="13.69" stroke-dashoffset="13.69"><animate attributeName="stroke-dashoffset" values="13.69" fill="freeze" begin="5bf3.click" /><animate id="10" attributeName="stroke-dashoffset" values="13.69;0" dur="0.14s" fill="freeze" begin="9.end" /></path><path d="M73.93,36.22c3.63,1.72,9.38,7.07,10.29,9.75" stroke-dasharray="14.38" stroke-dashoffset="14.38"><animate attributeName="stroke-dashoffset" values="14.38" fill="freeze" begin="5bf3.click" /><animate id="11" attributeName="stroke-dashoffset" values="14.38;0" dur="0.14s" fill="freeze" begin="10.end" /></path></g></g></g><g><g><path d="M32.75,53.93c0.68,0.7,1.68,2.73,1.68,3.66c0,0.94,0.32,23.51-0.5,27.43" stroke-dasharray="31.53" stroke-dashoffset="31.53"><animate attributeName="stroke-dashoffset" values="31.53" fill="freeze" begin="5bf3.click" /><animate id="12" attributeName="stroke-dashoffset" values="31.53;0" dur="0.32s" fill="freeze" begin="11.end" /></path><path d="M35.57,55.74c3.87-0.12,33.89-3.26,37.42-3.26c1.76,0,2.51,1.65,2.51,2.52c0,2.14-0.87,28.08-0.87,28.79" stroke-dasharray="70.3" stroke-dashoffset="70.3"><animate attributeName="stroke-dashoffset" values="70.3" fill="freeze" begin="5bf3.click" /><animate id="13" attributeName="stroke-dashoffset" values="70.3;0" dur="0.53s" fill="freeze" begin="12.end" /></path><path d="M34.51,64.13c7.24-0.27,34.32-2.9,40.53-2.9" stroke-dasharray="40.64" stroke-dashoffset="40.64"><animate attributeName="stroke-dashoffset" values="40.64" fill="freeze" begin="5bf3.click" /><animate id="14" attributeName="stroke-dashoffset" values="40.64;0" dur="0.41s" fill="freeze" begin="13.end" /></path><path d="M34.82,73.51C45.75,73,63.5,70.95,75.08,70.85" stroke-dasharray="40.35" stroke-dashoffset="40.35"><animate attributeName="stroke-dashoffset" values="40.35" fill="freeze" begin="5bf3.click" /><animate id="15" attributeName="stroke-dashoffset" values="40.35;0" dur="0.4s" fill="freeze" begin="14.end" /></path><path d="M34.32,83.19c10.93-0.38,30.3-1.9,40.26-1.9" stroke-dasharray="40.31" stroke-dashoffset="40.31"><animate attributeName="stroke-dashoffset" values="40.31" fill="freeze" begin="5bf3.click" /><animate id="16" attributeName="stroke-dashoffset" values="40.31;0" dur="0.4s" fill="freeze" begin="15.end" /></path></g><g><path d="M39.95,88.23c0.53,0.95,0.1,1.87-0.94,2.56c-3.16,2.08-11.95,6.51-18.26,8.97" stroke-dasharray="23.41" stroke-dashoffset="23.41"><animate attributeName="stroke-dashoffset" values="23.41" fill="freeze" begin="5bf3.click" /><animate id="17" attributeName="stroke-dashoffset" values="23.41;0" dur="0.23s" fill="freeze" begin="16.end" /></path><path d="M63.75,86.72c8.66,3.5,18.89,9.84,21.25,12.9" stroke-dasharray="25.01" stroke-dashoffset="25.01"><animate attributeName="stroke-dashoffset" values="25.01" fill="freeze" begin="5bf3.click" /><animate id="18" attributeName="stroke-dashoffset" values="25.01;0" dur="0.25s" fill="freeze" begin="17.end" /></path></g></g></g></g></g></svg>