<svg xmlns="http://www.w3.org/2000/svg" width="109" height="109" viewBox="0 0 109 109" id="5c02"><g fill="none" stroke="#666" stroke-width="9" stroke-linecap="round" stroke-linejoin="round"><g><g p4:phon="2+由" xmlns:p4="http://kanjivg.tagaini.net"><path d="M22.75,21.79c2.62,0.59,5.85,0.36,8.37,0.05C46,20,66.09,17.76,77.25,17.2c2.86-0.15,5.95-0.27,8.75,0.41" /><g><g p4:part="1" p4:partial><path d="M27.63,33.11c0.94,0.94,1.82,2,2.08,3.32c1.41,7.2,2.39,11.9,3.72,20.05c0.25,1.5,0.49,3.05,0.72,4.65" /><path d="M29.83,34.3c14.67-2.55,33.59-4.51,43.79-5.62c4.62-0.5,6.83,0.22,6.12,5.32c-0.62,4.39-2.02,10.63-3.58,17.54c-0.32,1.42-0.65,2.85-0.98,4.29" /></g><g p4:part="2" p4:partial><path d="M32.69,45.89c9.44-1.64,27.06-4.01,44.68-5.46" /><path d="M35.05,57.91c11.95-1.53,26.91-3.37,39.47-4.24" /></g><g><path d="M52.29,10.5c0.79,0.79,1.44,2.28,1.44,3.78c0.04,14.8-0.02,36.15-0.02,40.01" /></g></g></g><g><path d="M15.88,72.92c3.5,1.2,7.59,0.97,10.75,0.58c18-2.25,40.78-3.61,57.38-4.8c3.69-0.26,8.37-0.32,11.12,0.37" /><path d="M68.04,59.58c1,1,1.43,2.79,1.43,4.77c0,6.65,0.01,23.66,0.01,28.62c0,12.03-7.07,1.78-9.13,0.25" /><path d="M38.69,79.62c3.46,1.72,8.93,7.07,9.79,9.75" /></g></g></g><g fill="none" stroke="#000" stroke-width="5" stroke-linecap="round" stroke-linejoin="round"><g><g p4:phon="2+由" xmlns:p4="http://kanjivg.tagaini.net"><path d="M22.75,21.79c2.62,0.59,5.85,0.36,8.37,0.05C46,20,66.09,17.76,77.25,17.2c2.86-0.15,5.95-0.27,8.75,0.41" stroke-dasharray="63.57" stroke-dashoffset="63.57"><animate id="0" attributeName="stroke-dashoffset" values="63.57;0" dur="0.48s" fill="freeze" begin="0s;5c02.click" /></path><g><g p4:part="1" p4:partial><path d="M27.63,33.11c0.94,0.94,1.82,2,2.08,3.32c1.41,7.2,2.39,11.9,3.72,20.05c0.25,1.5,0.49,3.05,0.72,4.65" stroke-dasharray="29.08" stroke-dashoffset="29.08"><animate attributeName="stroke-dashoffset" values="29.08" fill="freeze" begin="5c02.click" /><animate id="1" attributeName="stroke-dashoffset" values="29.08;0" dur="0.29s" fill="freeze" begin="0.end" /></path><path d="M29.83,34.3c14.67-2.55,33.59-4.51,43.79-5.62c4.62-0.5,6.83,0.22,6.12,5.32c-0.62,4.39-2.02,10.63-3.58,17.54c-0.32,1.42-0.65,2.85-0.98,4.29" stroke-dasharray="76.78" stroke-dashoffset="76.78"><animate attributeName="stroke-dashoffset" values="76.78" fill="freeze" begin="5c02.click" /><animate id="2" attributeName="stroke-dashoffset" values="76.78;0" dur="0.58s" fill="freeze" begin="1.end" /></path></g><g p4:part="2" p4:partial><path d="M32.69,45.89c9.44-1.64,27.06-4.01,44.68-5.46" stroke-dasharray="45.02" stroke-dashoffset="45.02"><animate attributeName="stroke-dashoffset" values="45.02" fill="freeze" begin="5c02.click" /><animate id="3" attributeName="stroke-dashoffset" values="45.02;0" dur="0.45s" fill="freeze" begin="2.end" /></path><path d="M35.05,57.91c11.95-1.53,26.91-3.37,39.47-4.24" stroke-dasharray="39.7" stroke-dashoffset="39.7"><animate attributeName="stroke-dashoffset" values="39.7" fill="freeze" begin="5c02.click" /><animate id="4" attributeName="stroke-dashoffset" values="39.7;0" dur="0.4s" fill="freeze" begin="3.end" /></path></g><g><path d="M52.29,10.5c0.79,0.79,1.44,2.28,1.44,3.78c0.04,14.8-0.02,36.15-0.02,40.01" stroke-dasharray="44.15" stroke-dashoffset="44.15"><animate attributeName="stroke-dashoffset" values="44.15" fill="freeze" begin="5c02.click" /><animate id="5" attributeName="stroke-dashoffset" values="44.15;0" dur="0.44s" fill="freeze" begin="4.end" /></path></g></g></g><g><path d="M15.88,72.92c3.5,1.2,7.59,0.97,10.75,0.58c18-2.25,40.78-3.61,57.38-4.8c3.69-0.26,8.37-0.32,11.12,0.37" stroke-dasharray="79.61" stroke-dashoffset="79.61"><animate attributeName="stroke-dashoffset" values="79.61" fill="freeze" begin="5c02.click" /><animate id="6" attributeName="stroke-dashoffset" values="79.61;0" dur="0.6s" fill="freeze" begin="5.end" /></path><path d="M68.04,59.58c1,1,1.43,2.79,1.43,4.77c0,6.65,0.01,23.66,0.01,28.62c0,12.03-7.07,1.78-9.13,0.25" stroke-dasharray="49.48" stroke-dashoffset="49.48"><animate attributeName="stroke-dashoffset" values="49.48" fill="freeze" begin="5c02.click" /><animate id="7" attributeName="stroke-dashoffset" values="49.48;0" dur="0.49s" fill="freeze" begin="6.end" /></path><path d="M38.69,79.62c3.46,1.72,8.93,7.07,9.79,9.75" stroke-dasharray="14.02" stroke-dashoffset="14.02"><animate attributeName="stroke-dashoffset" values="14.02" fill="freeze" begin="5c02.click" /><animate id="8" attributeName="stroke-dashoffset" values="14.02;0" dur="0.14s" fill="freeze" begin="7.end" /></path></g></g></g></svg>