<svg xmlns="http://www.w3.org/2000/svg" width="109" height="109" viewBox="0 0 109 109" id="5c0d"><g fill="none" stroke="#666" stroke-width="6" stroke-linecap="round" stroke-linejoin="round"><g><g><path d="M30.8,15c1,1.36,1.7,2.67,1.7,3.76c0,3.35,0.1,12.74,0.1,17.77" /><path d="M41.8,13c1,1.59,1.2,2.54,1.2,3.81c0,1.27,0.1,12.44,0.1,18.21" /><path d="M17.02,21.95c2.84,1.83,7.33,7.53,8.04,10.38" /><path d="M56.53,17.76c0.02,0.24,0.04,0.63-0.04,0.98c-0.51,2.06-3.43,6.58-7.43,9.35" /><path d="M12.75,38.02c1.02,0.37,2.89,0.46,3.9,0.37c9.6-0.89,30.86-3.77,39.53-4.26c1.7-0.1,2.72,0.18,3.57,0.36" /><path d="M26.02,42.95c1.78,1.48,4.6,6.08,5.04,8.38" /><path d="M47.29,38.26c0.02,0.28,0.03,0.73-0.03,1.14c-0.39,2.41-2.63,7.69-5.7,10.93" /><g p5:partial xmlns:p5="http://kanjivg.tagaini.net"><path d="M17.25,57.02c1.02,0.37,2.89,0.42,3.9,0.37c8.1-0.39,23.1-3.14,30.53-4.26c1.68-0.25,2.72,0.18,3.57,0.36" /><path d="M35.37,57.5c1.09,0.5,1.96,2.23,1.96,3.25c0,7.25,0.03,12.75,0.03,23.5" /><path d="M19.25,71.28c0.87,0.49,2.45,0.53,3.33,0.49C28.25,71.5,42,68.5,49.96,66.98c1.42-0.27,1.82-0.27,2.54-0.02" /><path d="M17.5,90.43c0.94,0.82,2,1.82,4.65,0.68c7.72-3.33,22.99-8.86,30.85-11.86" /></g></g><g><path d="M59,40.47c0.92,0.52,2.61,0.66,3.53,0.52c10.22-1.46,19.98-3.42,31.24-4.22c1.53-0.11,2.46,0.25,3.23,0.51" /><path d="M82.64,13.33c0.09,0.48,1.26,2.49,1.26,5.52c0,20.4-0.26,65.16-0.26,70.12c0,12.03-5.64,4.03-7.71,1.25" /><path d="M62.83,53.62c3.09,2.21,7.98,9.07,8.75,12.5" /></g></g></g><g fill="none" stroke="#000" stroke-width="3" stroke-linecap="round" stroke-linejoin="round"><path d="M30.8,15c1,1.36,1.7,2.67,1.7,3.76c0,3.35,0.1,12.74,0.1,17.77" stroke-dasharray="21.96" stroke-dashoffset="21.96"><animate attributeName="stroke-dashoffset" values="21.96;21.96;0" dur="0.22s" fill="freeze" begin="0s;5c0d.click" /></path><path d="M41.8,13c1,1.59,1.2,2.54,1.2,3.81c0,1.27,0.1,12.44,0.1,18.21" stroke-dasharray="22.272" stroke-dashoffset="22.272"><animate attributeName="stroke-dashoffset" values="22.272" fill="freeze" begin="5c0d.click" /><animate attributeName="stroke-dashoffset" values="22.272;22.272;0" keyTimes="0;0.497;1" dur="0.443s" fill="freeze" begin="0s;5c0d.click" /></path><path d="M17.02,21.95c2.84,1.83,7.33,7.53,8.04,10.38" stroke-dasharray="13.307" stroke-dashoffset="13.307"><animate attributeName="stroke-dashoffset" values="13.307" fill="freeze" begin="5c0d.click" /><animate attributeName="stroke-dashoffset" values="13.307;13.307;0" keyTimes="0;0.769;1" dur="0.576s" fill="freeze" begin="0s;5c0d.click" /></path><path d="M56.53,17.76c0.02,0.24,0.04,0.63-0.04,0.98c-0.51,2.06-3.43,6.58-7.43,9.35" stroke-dasharray="13.111" stroke-dashoffset="13.111"><animate attributeName="stroke-dashoffset" values="13.111" fill="freeze" begin="5c0d.click" /><animate attributeName="stroke-dashoffset" values="13.111;13.111;0" keyTimes="0;0.815;1" dur="0.707s" fill="freeze" begin="0s;5c0d.click" /></path><path d="M12.75,38.02c1.02,0.37,2.89,0.46,3.9,0.37c9.6-0.89,30.86-3.77,39.53-4.26c1.7-0.1,2.72,0.18,3.57,0.36" stroke-dasharray="47.306" stroke-dashoffset="47.306"><animate attributeName="stroke-dashoffset" values="47.306" fill="freeze" begin="5c0d.click" /><animate attributeName="stroke-dashoffset" values="47.306;47.306;0" keyTimes="0;0.599;1" dur="1.18s" fill="freeze" begin="0s;5c0d.click" /></path><path d="M26.02,42.95c1.78,1.48,4.6,6.08,5.04,8.38" stroke-dasharray="9.89" stroke-dashoffset="9.89"><animate attributeName="stroke-dashoffset" values="9.89" fill="freeze" begin="5c0d.click" /><animate attributeName="stroke-dashoffset" values="9.89;9.89;0" keyTimes="0;0.923;1" dur="1.279s" fill="freeze" begin="0s;5c0d.click" /></path><path d="M47.29,38.26c0.02,0.28,0.03,0.73-0.03,1.14c-0.39,2.41-2.63,7.69-5.7,10.93" stroke-dasharray="13.604" stroke-dashoffset="13.604"><animate attributeName="stroke-dashoffset" values="13.604" fill="freeze" begin="5c0d.click" /><animate attributeName="stroke-dashoffset" values="13.604;13.604;0" keyTimes="0;0.904;1" dur="1.415s" fill="freeze" begin="0s;5c0d.click" /></path><path d="M17.25,57.02c1.02,0.37,2.89,0.42,3.9,0.37c8.1-0.39,23.1-3.14,30.53-4.26c1.68-0.25,2.72,0.18,3.57,0.36" stroke-dasharray="38.394" stroke-dashoffset="38.394"><animate attributeName="stroke-dashoffset" values="38.394" fill="freeze" begin="5c0d.click" /><animate attributeName="stroke-dashoffset" values="38.394;38.394;0" keyTimes="0;0.787;1" dur="1.799s" fill="freeze" begin="0s;5c0d.click" /></path><path d="M35.37,57.5c1.09,0.5,1.96,2.23,1.96,3.25c0,7.25,0.03,12.75,0.03,23.5" stroke-dasharray="27.451" stroke-dashoffset="27.451"><animate attributeName="stroke-dashoffset" values="27.451" fill="freeze" begin="5c0d.click" /><animate attributeName="stroke-dashoffset" values="27.451;27.451;0" keyTimes="0;0.867;1" dur="2.074s" fill="freeze" begin="0s;5c0d.click" /></path><path d="M19.25,71.28c0.87,0.49,2.45,0.53,3.33,0.49C28.25,71.5,42,68.5,49.96,66.98c1.42-0.27,1.82-0.27,2.54-0.02" stroke-dasharray="33.791" stroke-dashoffset="33.791"><animate attributeName="stroke-dashoffset" values="33.791" fill="freeze" begin="5c0d.click" /><animate attributeName="stroke-dashoffset" values="33.791;33.791;0" keyTimes="0;0.86;1" dur="2.412s" fill="freeze" begin="0s;5c0d.click" /></path><path d="M17.5,90.43c0.94,0.82,2,1.82,4.65,0.68c7.72-3.33,22.99-8.86,30.85-11.86" stroke-dasharray="38.124" stroke-dashoffset="38.124"><animate attributeName="stroke-dashoffset" values="38.124" fill="freeze" begin="5c0d.click" /><animate attributeName="stroke-dashoffset" values="38.124;38.124;0" keyTimes="0;0.864;1" dur="2.793s" fill="freeze" begin="0s;5c0d.click" /></path><path d="M59,40.47c0.92,0.52,2.61,0.66,3.53,0.52c10.22-1.46,19.98-3.42,31.24-4.22c1.53-0.11,2.46,0.25,3.23,0.51" stroke-dasharray="38.45" stroke-dashoffset="38.45"><animate attributeName="stroke-dashoffset" values="38.45" fill="freeze" begin="5c0d.click" /><animate attributeName="stroke-dashoffset" values="38.45;38.45;0" keyTimes="0;0.879;1" dur="3.178s" fill="freeze" begin="0s;5c0d.click" /></path><path d="M82.64,13.33c0.09,0.48,1.26,2.49,1.26,5.52c0,20.4-0.26,65.16-0.26,70.12c0,12.03-5.64,4.03-7.71,1.25" stroke-dasharray="90.933" stroke-dashoffset="90.933"><animate attributeName="stroke-dashoffset" values="90.933" fill="freeze" begin="5c0d.click" /><animate attributeName="stroke-dashoffset" values="90.933;90.933;0" keyTimes="0;0.823;1" dur="3.862s" fill="freeze" begin="0s;5c0d.click" /></path><path d="M62.83,53.62c3.09,2.21,7.98,9.07,8.75,12.5" stroke-dasharray="15.452" stroke-dashoffset="15.452"><animate attributeName="stroke-dashoffset" values="15.452" fill="freeze" begin="5c0d.click" /><animate attributeName="stroke-dashoffset" values="15.452;15.452;0" keyTimes="0;0.961;1" dur="4.017s" fill="freeze" begin="0s;5c0d.click" /></path></g></svg>