<svg xmlns="http://www.w3.org/2000/svg" width="109" height="109" viewBox="0 0 109 109" id="5c39"><g fill="none" stroke="#666" stroke-width="9" stroke-linecap="round" stroke-linejoin="round"><g><g><g p5:part="1" xmlns:p5="http://kanjivg.tagaini.net"><path d="M27.49,17.75c3.58,1.25,3.78,1.16,6.14,1C47.95,17.75,67,15,78.08,14.5c3.32-0.15,4.12,1.75,3.61,4.25c-1.34,6.54-2.55,22.75-4.34,34" /><path d="M16.75,38.5c2.3,0.25,4.1,0.73,6.65,0.5c22.24-2,49.82-5,67.46-5.75c2.82-0.12,5.11,0.5,6.39,0.75" /></g><path d="M26.78,57.5c1.28,0.25,3.59,0.89,5.11,0.75C45.95,57,62.27,55,75.05,54.5c2.04-0.08,3.32,0,4.86,0.25" /></g><g p4:part="2" xmlns:p4="http://kanjivg.tagaini.net"><g><path d="M52.25,19.5c1,1.25,1.51,2.75,1.52,4C53.84,29.36,54.03,39.91,54,43c-0.25,23.5-9.75,44.25-30.25,53.75" /></g></g></g></g><g fill="none" stroke="#000" stroke-width="5" stroke-linecap="round" stroke-linejoin="round"><g><g><g p5:part="1" xmlns:p5="http://kanjivg.tagaini.net"><path d="M27.49,17.75c3.58,1.25,3.78,1.16,6.14,1C47.95,17.75,67,15,78.08,14.5c3.32-0.15,4.12,1.75,3.61,4.25c-1.34,6.54-2.55,22.75-4.34,34" stroke-dasharray="92.05" stroke-dashoffset="92.05"><animate id="0" attributeName="stroke-dashoffset" values="92.05;0" dur="0.69s" fill="freeze" begin="0s;5c39.click" /></path><path d="M16.75,38.5c2.3,0.25,4.1,0.73,6.65,0.5c22.24-2,49.82-5,67.46-5.75c2.82-0.12,5.11,0.5,6.39,0.75" stroke-dasharray="80.85" stroke-dashoffset="80.85"><animate attributeName="stroke-dashoffset" values="80.85" fill="freeze" begin="5c39.click" /><animate id="1" attributeName="stroke-dashoffset" values="80.85;0" dur="0.61s" fill="freeze" begin="0.end" /></path></g><path d="M26.78,57.5c1.28,0.25,3.59,0.89,5.11,0.75C45.95,57,62.27,55,75.05,54.5c2.04-0.08,3.32,0,4.86,0.25" stroke-dasharray="53.39" stroke-dashoffset="53.39"><animate attributeName="stroke-dashoffset" values="53.39" fill="freeze" begin="5c39.click" /><animate id="2" attributeName="stroke-dashoffset" values="53.39;0" dur="0.53s" fill="freeze" begin="1.end" /></path></g><g p4:part="2" xmlns:p4="http://kanjivg.tagaini.net"><g><path d="M52.25,19.5c1,1.25,1.51,2.75,1.52,4C53.84,29.36,54.03,39.91,54,43c-0.25,23.5-9.75,44.25-30.25,53.75" stroke-dasharray="89.1" stroke-dashoffset="89.1"><animate attributeName="stroke-dashoffset" values="89.1" fill="freeze" begin="5c39.click" /><animate id="3" attributeName="stroke-dashoffset" values="89.1;0" dur="0.67s" fill="freeze" begin="2.end" /></path></g></g></g></g></svg>