<svg xmlns="http://www.w3.org/2000/svg" width="109" height="109" viewBox="0 0 109 109" id="5c3c"><g fill="none" stroke="#666" stroke-width="9" stroke-linecap="round" stroke-linejoin="round"><g><g><path d="M25.78,17.81c1.72,0.94,5.13,1.15,6.97,0.94c9.87-1.14,35.89-3.71,43.65-4.45C79.5,14,81.58,15.54,81,18c-1.5,6.37-2.62,9.87-4.36,15.69" /><path d="M32.19,38.93c4.12-0.22,29.43-2.78,41.33-3.83c2.55-0.23,4.47-0.38,5.39-0.43" /><path d="M30.12,19.68c1.1,1.1,1.24,2.57,1.21,4.08C31.02,46.41,29,71.12,13.75,92.25" /></g><g><path d="M81.77,52.23c-0.27,1.02-0.82,1.59-1.49,1.95c-5.66,3.07-15.03,7.32-29.91,11.32" /><path d="M45.37,47.61c0.82,0.82,1.08,2.02,1.08,3.73c0,1.47-0.07,25.67-0.07,30.16c0,10.59,1.62,11.65,23.57,11.65c20.31,0,21.56-1.15,21.56-12.8" /></g></g></g><g fill="none" stroke="#000" stroke-width="5" stroke-linecap="round" stroke-linejoin="round"><path d="M25.78,17.81c1.72,0.94,5.13,1.15,6.97,0.94c9.87-1.14,35.89-3.71,43.65-4.45C79.5,14,81.58,15.54,81,18c-1.5,6.37-2.62,9.87-4.36,15.69" stroke-dasharray="74.35" stroke-dashoffset="74.35"><animate attributeName="stroke-dashoffset" values="74.35;74.35;0" dur="0.559s" fill="freeze" begin="0s;5c3c.click" /></path><path d="M32.19,38.93c4.12-0.22,29.43-2.78,41.33-3.83c2.55-0.23,4.47-0.38,5.39-0.43" stroke-dasharray="46.916" stroke-dashoffset="46.916"><animate attributeName="stroke-dashoffset" values="46.916" fill="freeze" begin="5c3c.click" /><animate attributeName="stroke-dashoffset" values="46.916;46.916;0" keyTimes="0;0.544;1" dur="1.028s" fill="freeze" begin="0s;5c3c.click" /></path><path d="M30.12,19.68c1.1,1.1,1.24,2.57,1.21,4.08C31.02,46.41,29,71.12,13.75,92.25" stroke-dasharray="76.298" stroke-dashoffset="76.298"><animate attributeName="stroke-dashoffset" values="76.298" fill="freeze" begin="5c3c.click" /><animate attributeName="stroke-dashoffset" values="76.298;76.298;0" keyTimes="0;0.642;1" dur="1.602s" fill="freeze" begin="0s;5c3c.click" /></path><path d="M81.77,52.23c-0.27,1.02-0.82,1.59-1.49,1.95c-5.66,3.07-15.03,7.32-29.91,11.32" stroke-dasharray="34.583" stroke-dashoffset="34.583"><animate attributeName="stroke-dashoffset" values="34.583" fill="freeze" begin="5c3c.click" /><animate attributeName="stroke-dashoffset" values="34.583;34.583;0" keyTimes="0;0.822;1" dur="1.948s" fill="freeze" begin="0s;5c3c.click" /></path><path d="M45.37,47.61c0.82,0.82,1.08,2.02,1.08,3.73c0,1.47-0.07,25.67-0.07,30.16c0,10.59,1.62,11.65,23.57,11.65c20.31,0,21.56-1.15,21.56-12.8" stroke-dasharray="95.876" stroke-dashoffset="95.876"><animate attributeName="stroke-dashoffset" values="95.876" fill="freeze" begin="5c3c.click" /><animate attributeName="stroke-dashoffset" values="95.876;95.876;0" keyTimes="0;0.73;1" dur="2.669s" fill="freeze" begin="0s;5c3c.click" /></path></g></svg>