<svg xmlns="http://www.w3.org/2000/svg" width="109" height="109" viewBox="0 0 109 109" id="5c40"><g fill="none" stroke="#666" stroke-width="9" stroke-linecap="round" stroke-linejoin="round"><g><g><path d="M30.06,17.38c1.68,0.53,3.95,0.61,5.74,0.45c10.45-0.95,38.05-4.25,41.94-4.51c2.75-0.19,4.38,1.19,3.5,3.69c-1.78,5.08-2.75,7.75-4.28,12.53" /><path d="M33.28,35.03c4.14-0.39,30.13-3.15,41.72-4.23c1.94-0.18,3.48-0.31,4.44-0.38" /></g><g><g><g><g><path d="M32.44,18.71c0.79,1.31,1.11,2.69,0.95,4.14c-0.91,29.09-6.78,51.44-17.89,64.41" /></g></g><path d="M33.73,48.65c2.56,0.5,5.1,0.07,7.64-0.28c12.3-1.67,28.72-3.87,43.62-5.63c7.02-0.83,7.84,2.76,7.5,6.25c-1.2,12.31-5.25,30.62-10,42.75c-3.97,10.13-9.04,2.82-12-0.75" /></g><g><path d="M38,63.47c0.64,0.53,1.01,1.21,1.13,2.03c0.84,2.88,1.7,8.06,2.35,12.49c0.16,1.08,0.31,2.12,0.44,3.07" /><path d="M39.96,64.5c7.69-1.26,21.72-3.08,25.68-3.58c2.36-0.3,3.36,1.2,2.87,3.22c-0.92,3.76-1.38,5.48-3.18,11.71" /><path d="M42.23,79.32c3.85-0.4,14.39-1.68,21.28-2.38c1.45-0.15,2.74-0.27,3.77-0.36" /></g></g></g></g><g fill="none" stroke="#000" stroke-width="5" stroke-linecap="round" stroke-linejoin="round"><g><g><path d="M30.06,17.38c1.68,0.53,3.95,0.61,5.74,0.45c10.45-0.95,38.05-4.25,41.94-4.51c2.75-0.19,4.38,1.19,3.5,3.69c-1.78,5.08-2.75,7.75-4.28,12.53" stroke-dasharray="67.582" stroke-dashoffset="67.582"><animate attributeName="stroke-dashoffset" values="67.582;67.582;0" dur="0.508s" fill="freeze" begin="0s;5c40.click" /></path><path d="M33.28,35.03c4.14-0.39,30.13-3.15,41.72-4.23c1.94-0.18,3.48-0.31,4.44-0.38" stroke-dasharray="46.391" stroke-dashoffset="46.391"><animate attributeName="stroke-dashoffset" values="46.391" fill="freeze" begin="5c40.click" /><animate attributeName="stroke-dashoffset" values="46.391;46.391;0" keyTimes="0;0.523;1" dur="0.972s" fill="freeze" begin="0s;5c40.click" /></path></g><g><g><g><g><path d="M32.44,18.71c0.79,1.31,1.11,2.69,0.95,4.14c-0.91,29.09-6.78,51.44-17.89,64.41" stroke-dasharray="72.35" stroke-dashoffset="72.35"><animate attributeName="stroke-dashoffset" values="72.35" fill="freeze" begin="5c40.click" /><animate attributeName="stroke-dashoffset" values="72.35;72.35;0" keyTimes="0;0.641;1" dur="1.516s" fill="freeze" begin="0s;5c40.click" /></path></g></g><path d="M33.73,48.65c2.56,0.5,5.1,0.07,7.64-0.28c12.3-1.67,28.72-3.87,43.62-5.63c7.02-0.83,7.84,2.76,7.5,6.25c-1.2,12.31-5.25,30.62-10,42.75c-3.97,10.13-9.04,2.82-12-0.75" stroke-dasharray="124.651" stroke-dashoffset="124.651"><animate attributeName="stroke-dashoffset" values="124.651" fill="freeze" begin="5c40.click" /><animate attributeName="stroke-dashoffset" values="124.651;124.651;0" keyTimes="0;0.618;1" dur="2.453s" fill="freeze" begin="0s;5c40.click" /></path></g><g><path d="M38,63.47c0.64,0.53,1.01,1.21,1.13,2.03c0.84,2.88,1.7,8.06,2.35,12.49c0.16,1.08,0.31,2.12,0.44,3.07" stroke-dasharray="18.198" stroke-dashoffset="18.198"><animate attributeName="stroke-dashoffset" values="18.198" fill="freeze" begin="5c40.click" /><animate attributeName="stroke-dashoffset" values="18.198;18.198;0" keyTimes="0;0.931;1" dur="2.635s" fill="freeze" begin="0s;5c40.click" /></path><path d="M39.96,64.5c7.69-1.26,21.72-3.08,25.68-3.58c2.36-0.3,3.36,1.2,2.87,3.22c-0.92,3.76-1.38,5.48-3.18,11.71" stroke-dasharray="43.392" stroke-dashoffset="43.392"><animate attributeName="stroke-dashoffset" values="43.392" fill="freeze" begin="5c40.click" /><animate attributeName="stroke-dashoffset" values="43.392;43.392;0" keyTimes="0;0.859;1" dur="3.069s" fill="freeze" begin="0s;5c40.click" /></path><path d="M42.23,79.32c3.85-0.4,14.39-1.68,21.28-2.38c1.45-0.15,2.74-0.27,3.77-0.36" stroke-dasharray="25.201" stroke-dashoffset="25.201"><animate attributeName="stroke-dashoffset" values="25.201" fill="freeze" begin="5c40.click" /><animate attributeName="stroke-dashoffset" values="25.201;25.201;0" keyTimes="0;0.924;1" dur="3.321s" fill="freeze" begin="0s;5c40.click" /></path></g></g></g></g></svg>