<svg xmlns="http://www.w3.org/2000/svg" width="109" height="109" viewBox="0 0 109 109" id="5c4a"><g fill="none" stroke="#666" stroke-width="9" stroke-linecap="round" stroke-linejoin="round"><g><g><path d="M25.5,17.49c1.74,0.65,3.12,0.99,4.97,0.85c9.11-0.66,41.11-3.9,49.65-4.66c3.2-0.28,5.17,0.75,4.44,4.32c-0.76,3.72-1.93,9.24-3.42,15.1" /><path d="M29.5,38.5c4.67-0.2,31.9-2.96,46.75-4.17c3.45-0.28,5.37-0.46,8-0.33" /><path d="M28.25,18.25c1.12,1.12,1.26,3.1,1.22,4.25c-0.85,28.25-5.1,47.5-18.22,62.75" /></g><g p4:phon="由" xmlns:p4="http://kanjivg.tagaini.net"><g p4:part="1" p4:partial><path d="M34.42,58.01c0.97,0.97,1.68,2.15,1.84,3.01c1.24,6.72,2.24,16.85,3.6,28.47c0.29,2.48,0.64,4.69,0.82,7.05" /><path d="M37.21,60.33C53.62,58.5,73,56.38,84.94,55.68c3.13-0.18,5.63,1.3,5.26,4.57c-0.69,6.13-2.38,18.45-4.36,27.55c-0.42,1.94-0.86,3.72-1.3,5.23" /></g><g><path d="M59.74,42.32c0.91,0.91,1.51,2.55,1.51,4.18c0,15.25-0.02,41.45-0.02,45.44" /></g><g p4:part="2" p4:partial><path d="M39.57,75.8c9.81-1.05,34.68-3.43,48-3.91" /><path d="M41.64,93.94c11.99-0.94,29.17-2.6,42.52-2.78" /></g></g></g></g><g fill="none" stroke="#000" stroke-width="5" stroke-linecap="round" stroke-linejoin="round"><g><g><path d="M25.5,17.49c1.74,0.65,3.12,0.99,4.97,0.85c9.11-0.66,41.11-3.9,49.65-4.66c3.2-0.28,5.17,0.75,4.44,4.32c-0.76,3.72-1.93,9.24-3.42,15.1" stroke-dasharray="78.17" stroke-dashoffset="78.17"><animate id="0" attributeName="stroke-dashoffset" values="78.17;0" dur="0.59s" fill="freeze" begin="0s;5c4a.click" /></path><path d="M29.5,38.5c4.67-0.2,31.9-2.96,46.75-4.17c3.45-0.28,5.37-0.46,8-0.33" stroke-dasharray="54.95" stroke-dashoffset="54.95"><animate attributeName="stroke-dashoffset" values="54.95" fill="freeze" begin="5c4a.click" /><animate id="1" attributeName="stroke-dashoffset" values="54.95;0" dur="0.55s" fill="freeze" begin="0.end" /></path><path d="M28.25,18.25c1.12,1.12,1.26,3.1,1.22,4.25c-0.85,28.25-5.1,47.5-18.22,62.75" stroke-dasharray="71.25" stroke-dashoffset="71.25"><animate attributeName="stroke-dashoffset" values="71.25" fill="freeze" begin="5c4a.click" /><animate id="2" attributeName="stroke-dashoffset" values="71.25;0" dur="0.54s" fill="freeze" begin="1.end" /></path></g><g p4:phon="由" xmlns:p4="http://kanjivg.tagaini.net"><g p4:part="1" p4:partial><path d="M34.42,58.01c0.97,0.97,1.68,2.15,1.84,3.01c1.24,6.72,2.24,16.85,3.6,28.47c0.29,2.48,0.64,4.69,0.82,7.05" stroke-dasharray="39.37" stroke-dashoffset="39.37"><animate attributeName="stroke-dashoffset" values="39.37" fill="freeze" begin="5c4a.click" /><animate id="3" attributeName="stroke-dashoffset" values="39.37;0" dur="0.39s" fill="freeze" begin="2.end" /></path><path d="M37.21,60.33C53.62,58.5,73,56.38,84.94,55.68c3.13-0.18,5.63,1.3,5.26,4.57c-0.69,6.13-2.38,18.45-4.36,27.55c-0.42,1.94-0.86,3.72-1.3,5.23" stroke-dasharray="89.4" stroke-dashoffset="89.4"><animate attributeName="stroke-dashoffset" values="89.4" fill="freeze" begin="5c4a.click" /><animate id="4" attributeName="stroke-dashoffset" values="89.4;0" dur="0.67s" fill="freeze" begin="3.end" /></path></g><g><path d="M59.74,42.32c0.91,0.91,1.51,2.55,1.51,4.18c0,15.25-0.02,41.45-0.02,45.44" stroke-dasharray="49.99" stroke-dashoffset="49.99"><animate attributeName="stroke-dashoffset" values="49.99" fill="freeze" begin="5c4a.click" /><animate id="5" attributeName="stroke-dashoffset" values="49.99;0" dur="0.5s" fill="freeze" begin="4.end" /></path></g><g p4:part="2" p4:partial><path d="M39.57,75.8c9.81-1.05,34.68-3.43,48-3.91" stroke-dasharray="48.17" stroke-dashoffset="48.17"><animate attributeName="stroke-dashoffset" values="48.17" fill="freeze" begin="5c4a.click" /><animate id="6" attributeName="stroke-dashoffset" values="48.17;0" dur="0.48s" fill="freeze" begin="5.end" /></path><path d="M41.64,93.94c11.99-0.94,29.17-2.6,42.52-2.78" stroke-dasharray="42.62" stroke-dashoffset="42.62"><animate attributeName="stroke-dashoffset" values="42.62" fill="freeze" begin="5c4a.click" /><animate id="7" attributeName="stroke-dashoffset" values="42.62;0" dur="0.43s" fill="freeze" begin="6.end" /></path></g></g></g></g></svg>