<svg xmlns="http://www.w3.org/2000/svg" viewBox="0 0 109 109" id="5c4d"><g fill="none" stroke="#666" stroke-width="6" stroke-linecap="round" stroke-linejoin="round"><g><g><path d="M26.43,18.4c3.28,0.65,6.56,0.85,9.82,0.43c13.38-1.71,29.88-2.96,41.5-3.96c4.16-0.36,5.77,1.02,5.01,3.75c-1.12,4.01-1.62,5.76-3.12,10.69" /><path d="M31.9,34.17c10.05-0.85,28.78-2.38,40.48-3.25c4.43-0.33,7.85-0.56,9.42-0.63" /><path d="M30.25,19.75c1,1,1.04,2.25,1.01,3.5C30.62,51.12,26.5,72.5,13,88.5" /></g><g><g><g><path d="M35.87,45.06c3.69,0.48,7.36,0.44,11-0.13c10.39-1.23,22.47-2.6,30.51-3.14c2.77-0.19,5.4-0.47,8.04,0.23" /></g><g><path d="M47.81,49.43c0,1.07-0.34,1.98-0.64,2.8C45.25,57.5,39.88,66.5,30.24,74.1" /><path d="M47.35,59.73c0.53,0.27,1.16,0.34,2.25,0.16c3.78-0.64,5.19-1.22,7.09-1.95c3.04-1.16,4.21,0.42,2.92,3.23c-5.48,11.96-16.86,26.46-31.36,33.59" /><path d="M40.12,69.52c2.4,1.44,4.7,5.42,5.3,7.66" /></g></g><g><path d="M87.77,54.29c0,1.09-0.46,2.13-1.12,2.94c-3.27,4.02-6.41,6.89-14.52,11.4" /><path d="M67.52,46.52c0.85,0.85,1.28,2.35,1.28,4.22c0,1-0.05,32.54-0.05,35.63c0,7.08,2.38,8.65,13.99,8.65c9.74,0,11.52-1.05,12.24-9.64" /></g></g></g></g><g fill="none" stroke="#000" stroke-width="3" stroke-linecap="round" stroke-linejoin="round"><path d="M26.43,18.4c3.28,0.65,6.56,0.85,9.82,0.43c13.38-1.71,29.88-2.96,41.5-3.96c4.16-0.36,5.77,1.02,5.01,3.75c-1.12,4.01-1.62,5.76-3.12,10.69" stroke-dasharray="70.516" stroke-dashoffset="70.516"><animate attributeName="stroke-dashoffset" values="70.516;70.516;0" dur="0.53s" fill="freeze" begin="0s;5c4d.click" /></path><path d="M31.9,34.17c10.05-0.85,28.78-2.38,40.48-3.25c4.43-0.33,7.85-0.56,9.42-0.63" stroke-dasharray="50.053" stroke-dashoffset="50.053"><animate attributeName="stroke-dashoffset" values="50.053" fill="freeze" begin="5c4d.click" /><animate attributeName="stroke-dashoffset" values="50.053;50.053;0" keyTimes="0;0.514;1" dur="1.031s" fill="freeze" begin="0s;5c4d.click" /></path><path d="M30.25,19.75c1,1,1.04,2.25,1.01,3.5C30.62,51.12,26.5,72.5,13,88.5" stroke-dasharray="72.879" stroke-dashoffset="72.879"><animate attributeName="stroke-dashoffset" values="72.879" fill="freeze" begin="5c4d.click" /><animate attributeName="stroke-dashoffset" values="72.879;72.879;0" keyTimes="0;0.653;1" dur="1.579s" fill="freeze" begin="0s;5c4d.click" /></path><path d="M35.87,45.06c3.69,0.48,7.36,0.44,11-0.13c10.39-1.23,22.47-2.6,30.51-3.14c2.77-0.19,5.4-0.47,8.04,0.23" stroke-dasharray="49.797" stroke-dashoffset="49.797"><animate attributeName="stroke-dashoffset" values="49.797" fill="freeze" begin="5c4d.click" /><animate attributeName="stroke-dashoffset" values="49.797;49.797;0" keyTimes="0;0.76;1" dur="2.077s" fill="freeze" begin="0s;5c4d.click" /></path><path d="M47.81,49.43c0,1.07-0.34,1.98-0.64,2.8C45.25,57.5,39.88,66.5,30.24,74.1" stroke-dasharray="30.862" stroke-dashoffset="30.862"><animate attributeName="stroke-dashoffset" values="30.862" fill="freeze" begin="5c4d.click" /><animate attributeName="stroke-dashoffset" values="30.862;30.862;0" keyTimes="0;0.87;1" dur="2.386s" fill="freeze" begin="0s;5c4d.click" /></path><path d="M47.35,59.73c0.53,0.27,1.16,0.34,2.25,0.16c3.78-0.64,5.19-1.22,7.09-1.95c3.04-1.16,4.21,0.42,2.92,3.23c-5.48,11.96-16.86,26.46-31.36,33.59" stroke-dasharray="62.987" stroke-dashoffset="62.987"><animate attributeName="stroke-dashoffset" values="62.987" fill="freeze" begin="5c4d.click" /><animate attributeName="stroke-dashoffset" values="62.987;62.987;0" keyTimes="0;0.834;1" dur="2.86s" fill="freeze" begin="0s;5c4d.click" /></path><path d="M40.12,69.52c2.4,1.44,4.7,5.42,5.3,7.66" stroke-dasharray="9.483" stroke-dashoffset="9.483"><animate attributeName="stroke-dashoffset" values="9.483" fill="freeze" begin="5c4d.click" /><animate attributeName="stroke-dashoffset" values="9.483;9.483;0" keyTimes="0;0.968;1" dur="2.955s" fill="freeze" begin="0s;5c4d.click" /></path><path d="M87.77,54.29c0,1.09-0.46,2.13-1.12,2.94c-3.27,4.02-6.41,6.89-14.52,11.4" stroke-dasharray="21.803" stroke-dashoffset="21.803"><animate attributeName="stroke-dashoffset" values="21.803" fill="freeze" begin="5c4d.click" /><animate attributeName="stroke-dashoffset" values="21.803;21.803;0" keyTimes="0;0.931;1" dur="3.173s" fill="freeze" begin="0s;5c4d.click" /></path><path d="M67.52,46.52c0.85,0.85,1.28,2.35,1.28,4.22c0,1-0.05,32.54-0.05,35.63c0,7.08,2.38,8.65,13.99,8.65c9.74,0,11.52-1.05,12.24-9.64" stroke-dasharray="78.094" stroke-dashoffset="78.094"><animate attributeName="stroke-dashoffset" values="78.094" fill="freeze" begin="5c4d.click" /><animate attributeName="stroke-dashoffset" values="78.094;78.094;0" keyTimes="0;0.844;1" dur="3.76s" fill="freeze" begin="0s;5c4d.click" /></path></g></svg>