<svg xmlns="http://www.w3.org/2000/svg" width="109" height="109" viewBox="0 0 109 109" id="5c60"><g fill="none" stroke="#666" stroke-width="9" stroke-linecap="round" stroke-linejoin="round"><g><g><path d="M26.68,15.15c1.91,0.73,4.13,0.88,6.16,0.73C43.8,15.07,72,12.25,76.37,11.65c2.88-0.4,3.63,1.1,3.13,3.97c-0.63,3.61-2,7.13-2.87,11.44" /><path d="M28.9,30.17c10.85-0.67,43.17-3.13,48.91-3.37" /><path d="M29.08,15.83c0,3.89-0.26,15.19-0.66,18.81c-2.29,20.56-3.96,36.85-15.18,51.61" /></g><g><g p5:partial xmlns:p5="http://kanjivg.tagaini.net"><g><path d="M38.3,45.01c0.61,0.25,1.73,0.28,2.35,0.25c6.96-0.4,18.8-2.29,25.66-2.46c1.02-0.03,1.63,0.12,2.14,0.24" /><path d="M53.59,33.87c0.09,0.22,1.28,1.15,1.37,2.56c0.44,6.74,0.24,17.02,0.24,19.32" /><path d="M31.5,57.97c1.35,0.35,3.43,0.65,4.64,0.52c6.75-0.73,43.67-4.88,51.5-5.04c2.02-0.04,3.23,0.25,4.24,0.51" /></g><path d="M77.16,35.35c0.09,1.15,0.72,2.31-0.26,3.48C64.22,53.9,51.8,64.67,28.68,78.61" /></g><path d="M62.3,59.57c2.74,1.1,7.06,4.53,7.75,6.25" /><g><path d="M46.52,71.36c0.35,0.68,0.65,1.01,0.7,1.91c0.28,4.73,1.88,24.58,2,25.48" /><path d="M47.3,72.48c1.98-0.11,26.95-3.72,28.75-3.86c1.5-0.11,2.46,1.25,2.35,1.91c-0.24,1.35-2.46,25.82-2.46,26.49" /><path d="M48.15,83.63c2.67,0,25.95-2.41,28.97-2.41" /><path d="M49.53,96.73c5.44-0.48,19.8-2.27,26.58-2.69" /></g></g></g></g><g fill="none" stroke="#000" stroke-width="5" stroke-linecap="round" stroke-linejoin="round"><g><g><path d="M26.68,15.15c1.91,0.73,4.13,0.88,6.16,0.73C43.8,15.07,72,12.25,76.37,11.65c2.88-0.4,3.63,1.1,3.13,3.97c-0.63,3.61-2,7.13-2.87,11.44" stroke-dasharray="68.18" stroke-dashoffset="68.18"><animate id="0" attributeName="stroke-dashoffset" values="68.18;0" dur="0.51s" fill="freeze" begin="0s;5c60.click" /></path><path d="M28.9,30.17c10.85-0.67,43.17-3.13,48.91-3.37" stroke-dasharray="49.03" stroke-dashoffset="49.03"><animate attributeName="stroke-dashoffset" values="49.03" fill="freeze" begin="5c60.click" /><animate id="1" attributeName="stroke-dashoffset" values="49.03;0" dur="0.49s" fill="freeze" begin="0.end" /></path><path d="M29.08,15.83c0,3.89-0.26,15.19-0.66,18.81c-2.29,20.56-3.96,36.85-15.18,51.61" stroke-dasharray="73.38" stroke-dashoffset="73.38"><animate attributeName="stroke-dashoffset" values="73.38" fill="freeze" begin="5c60.click" /><animate id="2" attributeName="stroke-dashoffset" values="73.38;0" dur="0.55s" fill="freeze" begin="1.end" /></path></g><g><g p5:partial xmlns:p5="http://kanjivg.tagaini.net"><g><path d="M38.3,45.01c0.61,0.25,1.73,0.28,2.35,0.25c6.96-0.4,18.8-2.29,25.66-2.46c1.02-0.03,1.63,0.12,2.14,0.24" stroke-dasharray="30.32" stroke-dashoffset="30.32"><animate attributeName="stroke-dashoffset" values="30.32" fill="freeze" begin="5c60.click" /><animate id="3" attributeName="stroke-dashoffset" values="30.32;0" dur="0.3s" fill="freeze" begin="2.end" /></path><path d="M53.59,33.87c0.09,0.22,1.28,1.15,1.37,2.56c0.44,6.74,0.24,17.02,0.24,19.32" stroke-dasharray="22.29" stroke-dashoffset="22.29"><animate attributeName="stroke-dashoffset" values="22.29" fill="freeze" begin="5c60.click" /><animate id="4" attributeName="stroke-dashoffset" values="22.29;0" dur="0.22s" fill="freeze" begin="3.end" /></path><path d="M31.5,57.97c1.35,0.35,3.43,0.65,4.64,0.52c6.75-0.73,43.67-4.88,51.5-5.04c2.02-0.04,3.23,0.25,4.24,0.51" stroke-dasharray="60.73" stroke-dashoffset="60.73"><animate attributeName="stroke-dashoffset" values="60.73" fill="freeze" begin="5c60.click" /><animate id="5" attributeName="stroke-dashoffset" values="60.73;0" dur="0.46s" fill="freeze" begin="4.end" /></path></g><path d="M77.16,35.35c0.09,1.15,0.72,2.31-0.26,3.48C64.22,53.9,51.8,64.67,28.68,78.61" stroke-dasharray="66.47" stroke-dashoffset="66.47"><animate attributeName="stroke-dashoffset" values="66.47" fill="freeze" begin="5c60.click" /><animate id="6" attributeName="stroke-dashoffset" values="66.47;0" dur="0.5s" fill="freeze" begin="5.end" /></path></g><path d="M62.3,59.57c2.74,1.1,7.06,4.53,7.75,6.25" stroke-dasharray="10.1" stroke-dashoffset="10.1"><animate attributeName="stroke-dashoffset" values="10.1" fill="freeze" begin="5c60.click" /><animate id="7" attributeName="stroke-dashoffset" values="10.1;0" dur="0.1s" fill="freeze" begin="6.end" /></path><g><path d="M46.52,71.36c0.35,0.68,0.65,1.01,0.7,1.91c0.28,4.73,1.88,24.58,2,25.48" stroke-dasharray="27.62" stroke-dashoffset="27.62"><animate attributeName="stroke-dashoffset" values="27.62" fill="freeze" begin="5c60.click" /><animate id="8" attributeName="stroke-dashoffset" values="27.62;0" dur="0.28s" fill="freeze" begin="7.end" /></path><path d="M47.3,72.48c1.98-0.11,26.95-3.72,28.75-3.86c1.5-0.11,2.46,1.25,2.35,1.91c-0.24,1.35-2.46,25.82-2.46,26.49" stroke-dasharray="58.99" stroke-dashoffset="58.99"><animate attributeName="stroke-dashoffset" values="58.99" fill="freeze" begin="5c60.click" /><animate id="9" attributeName="stroke-dashoffset" values="58.99;0" dur="0.59s" fill="freeze" begin="8.end" /></path><path d="M48.15,83.63c2.67,0,25.95-2.41,28.97-2.41" stroke-dasharray="29.07" stroke-dashoffset="29.07"><animate attributeName="stroke-dashoffset" values="29.07" fill="freeze" begin="5c60.click" /><animate id="10" attributeName="stroke-dashoffset" values="29.07;0" dur="0.29s" fill="freeze" begin="9.end" /></path><path d="M49.53,96.73c5.44-0.48,19.8-2.27,26.58-2.69" stroke-dasharray="26.72" stroke-dashoffset="26.72"><animate attributeName="stroke-dashoffset" values="26.72" fill="freeze" begin="5c60.click" /><animate id="11" attributeName="stroke-dashoffset" values="26.72;0" dur="0.27s" fill="freeze" begin="10.end" /></path></g></g></g></g></svg>