<svg xmlns="http://www.w3.org/2000/svg" width="109" height="109" viewBox="0 0 109 109" id="5cac"><g fill="none" stroke="#666" stroke-width="9" stroke-linecap="round" stroke-linejoin="round"><g><g><path d="M26.2,18.75c1.09,1.09,1.26,2.5,1.26,4.17c0,7.55,0,41.33,0,51.9" /><path d="M14.29,46.26c0.91,0.91,1.08,2.24,1.08,3.63c0,5.53,0,16.86-0.95,26.36c-0.18,1.82,0.19,2.22,1.82,1.81c9.26-2.31,17.01-3.81,23.51-5.11" /><path d="M40.22,43.16c1,1,1.08,2.34,1.08,3.76c0,3.82-0.33,16.82-0.33,23.32c0,2.06-0.09,4.08-0.09,5.99" /></g><g p4:phon="甲" xmlns:p4="http://kanjivg.tagaini.net"><g p4:partial><path d="M48.15,18.01c1.05,1.05,1.43,2.23,1.5,3.11c0.72,9.13,1.89,19.83,2.78,31.37c0.19,2.43,0.36,4.57,0.5,6.85" /><path d="M50.15,20.1c11.14-1.49,27.66-3.71,36.98-4.65c4.57-0.46,7.41,0.23,7.12,5.42c-0.34,6.09-1.13,18.38-1.97,28.13c-0.32,3.65-0.65,5.24-0.98,7.67" /><path d="M52.41,38.41c7.96-1.16,29.46-3.66,39.66-4.18" /><path d="M53.77,56.51c12.11-1.63,25.55-2.62,37.14-3.29" /></g><g><path d="M70.08,20.28c1.07,1.07,1.45,2.34,1.45,4.07c0,7.77-0.06,50.55,0.02,68.16c0.02,4.12,0.03,6.87,0.03,7.46" /></g></g></g></g><g fill="none" stroke="#000" stroke-width="5" stroke-linecap="round" stroke-linejoin="round"><path d="M26.2,18.75c1.09,1.09,1.26,2.5,1.26,4.17c0,7.55,0,41.33,0,51.9" stroke-dasharray="56.384" stroke-dashoffset="56.384"><animate attributeName="stroke-dashoffset" values="56.384;56.384;0" dur="0.564s" fill="freeze" begin="0s;5cac.click" /></path><path d="M14.29,46.26c0.91,0.91,1.08,2.24,1.08,3.63c0,5.53,0,16.86-0.95,26.36c-0.18,1.82,0.19,2.22,1.82,1.81c9.26-2.31,17.01-3.81,23.51-5.11" stroke-dasharray="57.802" stroke-dashoffset="57.802"><animate attributeName="stroke-dashoffset" values="57.802" fill="freeze" begin="5cac.click" /><animate attributeName="stroke-dashoffset" values="57.802;57.802;0" keyTimes="0;0.494;1" dur="1.142s" fill="freeze" begin="0s;5cac.click" /></path><path d="M40.22,43.16c1,1,1.08,2.34,1.08,3.76c0,3.82-0.33,16.82-0.33,23.32c0,2.06-0.09,4.08-0.09,5.99" stroke-dasharray="33.341" stroke-dashoffset="33.341"><animate attributeName="stroke-dashoffset" values="33.341" fill="freeze" begin="5cac.click" /><animate attributeName="stroke-dashoffset" values="33.341;33.341;0" keyTimes="0;0.774;1" dur="1.475s" fill="freeze" begin="0s;5cac.click" /></path><path d="M48.15,18.01c1.05,1.05,1.43,2.23,1.5,3.11c0.72,9.13,1.89,19.83,2.78,31.37c0.19,2.43,0.36,4.57,0.5,6.85" stroke-dasharray="41.888" stroke-dashoffset="41.888"><animate attributeName="stroke-dashoffset" values="41.888" fill="freeze" begin="5cac.click" /><animate attributeName="stroke-dashoffset" values="41.888;41.888;0" keyTimes="0;0.779;1" dur="1.894s" fill="freeze" begin="0s;5cac.click" /></path><path d="M50.15,20.1c11.14-1.49,27.66-3.71,36.98-4.65c4.57-0.46,7.41,0.23,7.12,5.42c-0.34,6.09-1.13,18.38-1.97,28.13c-0.32,3.65-0.65,5.24-0.98,7.67" stroke-dasharray="84.114" stroke-dashoffset="84.114"><animate attributeName="stroke-dashoffset" values="84.114" fill="freeze" begin="5cac.click" /><animate attributeName="stroke-dashoffset" values="84.114;84.114;0" keyTimes="0;0.75;1" dur="2.526s" fill="freeze" begin="0s;5cac.click" /></path><path d="M52.41,38.41c7.96-1.16,29.46-3.66,39.66-4.18" stroke-dasharray="39.889" stroke-dashoffset="39.889"><animate attributeName="stroke-dashoffset" values="39.889" fill="freeze" begin="5cac.click" /><animate attributeName="stroke-dashoffset" values="39.889;39.889;0" keyTimes="0;0.864;1" dur="2.925s" fill="freeze" begin="0s;5cac.click" /></path><path d="M53.77,56.51c12.11-1.63,25.55-2.62,37.14-3.29" stroke-dasharray="37.295" stroke-dashoffset="37.295"><animate attributeName="stroke-dashoffset" values="37.295" fill="freeze" begin="5cac.click" /><animate attributeName="stroke-dashoffset" values="37.295;37.295;0" keyTimes="0;0.887;1" dur="3.298s" fill="freeze" begin="0s;5cac.click" /></path><path d="M70.08,20.28c1.07,1.07,1.45,2.34,1.45,4.07c0,7.77-0.06,50.55,0.02,68.16c0.02,4.12,0.03,6.87,0.03,7.46" stroke-dasharray="80.069" stroke-dashoffset="80.069"><animate attributeName="stroke-dashoffset" values="80.069" fill="freeze" begin="5cac.click" /><animate attributeName="stroke-dashoffset" values="80.069;80.069;0" keyTimes="0;0.846;1" dur="3.9s" fill="freeze" begin="0s;5cac.click" /></path></g></svg>