<svg xmlns="http://www.w3.org/2000/svg" width="109" height="109" viewBox="0 0 109 109" id="5cb3"><g fill="none" stroke="#666" stroke-width="9" stroke-linecap="round" stroke-linejoin="round"><g><g><g><g><path d="M59,10.85c-0.12,1.27-0.85,2.36-1.57,3.08c-6.27,6.3-13.93,11.44-25.18,16.82" /></g><path d="M29.25,31.36c1.07,1.07,1.95,2.47,2.2,3.82c1.54,8.32,3.52,21.17,4.16,26.06" /><path d="M35.78,38.37c2.09,0.13,3.48,0.14,5.69-0.13c10.47-1.29,23.27-3.61,33.19-5.58c2.65-0.53,4.87-0.83,7.58-0.48" /><path d="M67.63,38.35c0.95,0.95,1.07,2.29,0.8,4.22c-0.81,5.68-0.93,7.55-2.17,15.68" /></g><g><path d="M13.5,63.23c3.41,1.16,7.22,0.83,10.74,0.43C37.47,62.14,63.5,58.5,81.99,58c4.04-0.11,8.08-0.06,12.01,0.74" /></g></g><g><path d="M52.94,63.44c1.18,1.18,1.62,2.81,1.62,4.45c0,4.73,0.04,15.23,0.04,22.49" /><path d="M25.9,76.38c0.86,0.86,1.1,2.12,1.03,3.08c-0.29,4.05-0.39,5.65-0.96,13.13c-0.22,2.91,0.17,3.05,1.77,2.76c13.88-2.48,38.63-5.98,54.3-6.28" /><path d="M84.59,70.75c1.08,1.08,0.91,2.62,0.76,3.59c-0.56,3.75-1.16,7.7-2.08,12.87c-0.4,2.25-0.84,4.73-1.3,7.52" /></g></g></g><g fill="none" stroke="#000" stroke-width="5" stroke-linecap="round" stroke-linejoin="round"><path d="M59,10.85c-0.12,1.27-0.85,2.36-1.57,3.08c-6.27,6.3-13.93,11.44-25.18,16.82" stroke-dasharray="33.961" stroke-dashoffset="33.961"><animate attributeName="stroke-dashoffset" values="33.961;33.961;0" dur="0.34s" fill="freeze" begin="0s;5cb3.click" /></path><path d="M29.25,31.36c1.07,1.07,1.95,2.47,2.2,3.82c1.54,8.32,3.52,21.17,4.16,26.06" stroke-dasharray="30.864" stroke-dashoffset="30.864"><animate attributeName="stroke-dashoffset" values="30.864" fill="freeze" begin="5cb3.click" /><animate attributeName="stroke-dashoffset" values="30.864;30.864;0" keyTimes="0;0.524;1" dur="0.649s" fill="freeze" begin="0s;5cb3.click" /></path><path d="M35.78,38.37c2.09,0.13,3.48,0.14,5.69-0.13c10.47-1.29,23.27-3.61,33.19-5.58c2.65-0.53,4.87-0.83,7.58-0.48" stroke-dasharray="46.998" stroke-dashoffset="46.998"><animate attributeName="stroke-dashoffset" values="46.998" fill="freeze" begin="5cb3.click" /><animate attributeName="stroke-dashoffset" values="46.998;46.998;0" keyTimes="0;0.58;1" dur="1.119s" fill="freeze" begin="0s;5cb3.click" /></path><path d="M67.63,38.35c0.95,0.95,1.07,2.29,0.8,4.22c-0.81,5.68-0.93,7.55-2.17,15.68" stroke-dasharray="20.294" stroke-dashoffset="20.294"><animate attributeName="stroke-dashoffset" values="20.294" fill="freeze" begin="5cb3.click" /><animate attributeName="stroke-dashoffset" values="20.294;20.294;0" keyTimes="0;0.846;1" dur="1.322s" fill="freeze" begin="0s;5cb3.click" /></path><path d="M13.5,63.23c3.41,1.16,7.22,0.83,10.74,0.43C37.47,62.14,63.5,58.5,81.99,58c4.04-0.11,8.08-0.06,12.01,0.74" stroke-dasharray="80.946" stroke-dashoffset="80.946"><animate attributeName="stroke-dashoffset" values="80.946" fill="freeze" begin="5cb3.click" /><animate attributeName="stroke-dashoffset" values="80.946;80.946;0" keyTimes="0;0.685;1" dur="1.931s" fill="freeze" begin="0s;5cb3.click" /></path><path d="M52.94,63.44c1.18,1.18,1.62,2.81,1.62,4.45c0,4.73,0.04,15.23,0.04,22.49" stroke-dasharray="27.353" stroke-dashoffset="27.353"><animate attributeName="stroke-dashoffset" values="27.353" fill="freeze" begin="5cb3.click" /><animate attributeName="stroke-dashoffset" values="27.353;27.353;0" keyTimes="0;0.876;1" dur="2.205s" fill="freeze" begin="0s;5cb3.click" /></path><path d="M25.9,76.38c0.86,0.86,1.1,2.12,1.03,3.08c-0.29,4.05-0.39,5.65-0.96,13.13c-0.22,2.91,0.17,3.05,1.77,2.76c13.88-2.48,38.63-5.98,54.3-6.28" stroke-dasharray="75.505" stroke-dashoffset="75.505"><animate attributeName="stroke-dashoffset" values="75.505" fill="freeze" begin="5cb3.click" /><animate attributeName="stroke-dashoffset" values="75.505;75.505;0" keyTimes="0;0.795;1" dur="2.773s" fill="freeze" begin="0s;5cb3.click" /></path><path d="M84.59,70.75c1.08,1.08,0.91,2.62,0.76,3.59c-0.56,3.75-1.16,7.7-2.08,12.87c-0.4,2.25-0.84,4.73-1.3,7.52" stroke-dasharray="24.491" stroke-dashoffset="24.491"><animate attributeName="stroke-dashoffset" values="24.491" fill="freeze" begin="5cb3.click" /><animate attributeName="stroke-dashoffset" values="24.491;24.491;0" keyTimes="0;0.919;1" dur="3.018s" fill="freeze" begin="0s;5cb3.click" /></path></g></svg>