<svg xmlns="http://www.w3.org/2000/svg" width="109" height="109" viewBox="0 0 109 109" id="5cb6"><g fill="none" stroke="#666" stroke-width="9" stroke-linecap="round" stroke-linejoin="round"><g><g><path d="M25.7,16.75c0.61,0.36,2.01,2.69,2.01,3.42c0,7.55,0.25,42.97,0.25,52.65" /><path d="M12.79,43.01c0.67,0.4,1.39,2.07,1.33,2.88c-0.37,5.52,0.13,20.56-1.2,28.86c-0.29,1.8,0.19,2.22,1.82,1.81C24,74.25,30.75,72.75,42,70.45" /><path d="M42.22,38.66c0.67,0.4,1.33,2.96,1.33,3.76c0,6.21-1.05,22.82-1.92,32.81" /></g><g><g><path d="M72.89,12.5c0.52,0.8,0.7,1.82,0.47,2.48c-1.7,4.85-6.98,13.96-12.67,19.49" /></g><g><path d="M55.3,34.84c0.62,1.53,1.25,4.08,1.25,6.11c0,2.04,1.25,43.83,1.25,56.04" /><path d="M56.93,36.84c3.53-0.25,32.18-3.3,35.39-3.73c2.04-0.28,2.87,0.89,2.87,3.38c0,5.49-1.09,41.49-1.75,58.3" /><path d="M57.41,64.02c7.4-0.77,31.5-3.18,36.9-3.18" /><path d="M58.65,93.01c8.86-0.82,25.14-2.27,34.58-2.65" /></g></g></g></g><g fill="none" stroke="#000" stroke-width="5" stroke-linecap="round" stroke-linejoin="round"><g><g><path d="M25.7,16.75c0.61,0.36,2.01,2.69,2.01,3.42c0,7.55,0.25,42.97,0.25,52.65" stroke-dasharray="56.682" stroke-dashoffset="56.682"><animate attributeName="stroke-dashoffset" values="56.682;56.682;0" dur="0.567s" fill="freeze" begin="0s;5cb6.click" /></path><path d="M12.79,43.01c0.67,0.4,1.39,2.07,1.33,2.88c-0.37,5.52,0.13,20.56-1.2,28.86c-0.29,1.8,0.19,2.22,1.82,1.81C24,74.25,30.75,72.75,42,70.45" stroke-dasharray="63.612" stroke-dashoffset="63.612"><animate attributeName="stroke-dashoffset" values="63.612" fill="freeze" begin="5cb6.click" /><animate attributeName="stroke-dashoffset" values="63.612;63.612;0" keyTimes="0;0.543;1" dur="1.045s" fill="freeze" begin="0s;5cb6.click" /></path><path d="M42.22,38.66c0.67,0.4,1.33,2.96,1.33,3.76c0,6.21-1.05,22.82-1.92,32.81" stroke-dasharray="36.937" stroke-dashoffset="36.937"><animate attributeName="stroke-dashoffset" values="36.937" fill="freeze" begin="5cb6.click" /><animate attributeName="stroke-dashoffset" values="36.937;36.937;0" keyTimes="0;0.739;1" dur="1.414s" fill="freeze" begin="0s;5cb6.click" /></path></g><g><g><path d="M72.89,12.5c0.52,0.8,0.7,1.82,0.47,2.48c-1.7,4.85-6.98,13.96-12.67,19.49" stroke-dasharray="26.004" stroke-dashoffset="26.004"><animate attributeName="stroke-dashoffset" values="26.004" fill="freeze" begin="5cb6.click" /><animate attributeName="stroke-dashoffset" values="26.004;26.004;0" keyTimes="0;0.845;1" dur="1.674s" fill="freeze" begin="0s;5cb6.click" /></path></g><g><path d="M55.3,34.84c0.62,1.53,1.25,4.08,1.25,6.11c0,2.04,1.25,43.83,1.25,56.04" stroke-dasharray="62.324" stroke-dashoffset="62.324"><animate attributeName="stroke-dashoffset" values="62.324" fill="freeze" begin="5cb6.click" /><animate attributeName="stroke-dashoffset" values="62.324;62.324;0" keyTimes="0;0.781;1" dur="2.143s" fill="freeze" begin="0s;5cb6.click" /></path><path d="M56.93,36.84c3.53-0.25,32.18-3.3,35.39-3.73c2.04-0.28,2.87,0.89,2.87,3.38c0,5.49-1.09,41.49-1.75,58.3" stroke-dasharray="99.183" stroke-dashoffset="99.183"><animate attributeName="stroke-dashoffset" values="99.183" fill="freeze" begin="5cb6.click" /><animate attributeName="stroke-dashoffset" values="99.183;99.183;0" keyTimes="0;0.742;1" dur="2.889s" fill="freeze" begin="0s;5cb6.click" /></path><path d="M57.41,64.02c7.4-0.77,31.5-3.18,36.9-3.18" stroke-dasharray="37.044" stroke-dashoffset="37.044"><animate attributeName="stroke-dashoffset" values="37.044" fill="freeze" begin="5cb6.click" /><animate attributeName="stroke-dashoffset" values="37.044;37.044;0" keyTimes="0;0.886;1" dur="3.259s" fill="freeze" begin="0s;5cb6.click" /></path><path d="M58.65,93.01c8.86-0.82,25.14-2.27,34.58-2.65" stroke-dasharray="34.685" stroke-dashoffset="34.685"><animate attributeName="stroke-dashoffset" values="34.685" fill="freeze" begin="5cb6.click" /><animate attributeName="stroke-dashoffset" values="34.685;34.685;0" keyTimes="0;0.904;1" dur="3.606s" fill="freeze" begin="0s;5cb6.click" /></path></g></g></g></g></svg>