<svg xmlns="http://www.w3.org/2000/svg" viewBox="0 0 109 109" id="5ce8"><g fill="none" stroke="#666" stroke-width="6" stroke-linecap="round" stroke-linejoin="round"><g><g><path d="M23,23.75c0.81,0.81,1.04,2.25,1.04,3.6c0,6.85-0.02,31.99-0.02,40.78" /><path d="M12.54,43.49c0.61,0.61,0.69,1.88,0.69,2.61c0,4.98-0.08,13.81-0.62,21.77c-0.27,3.96,0.64,4.59,2.86,3.81c8.41-2.94,9.91-3.44,19.46-6.71" /><path d="M34.62,38.91c0.8,0.8,1.19,1.97,1.19,3.41c0,3.9-0.03,12.4-0.04,20.18c-0.01,3.47-0.01,6.79-0.01,9.5" /></g><g><g><path d="M63.05,16.71c-0.05,1.17-0.6,1.98-1.24,2.67c-3.56,3.87-7.81,7.49-18.22,13.11" /></g><g><g><path d="M42.72,44.51c2.77,1.1,6.84,0.36,9.66-0.1c8.11-1.33,21.73-3.97,33.12-4.9c2.99-0.25,6.67-0.36,9.59,0.33" /></g></g><g><path d="M56.19,29.04c1.14,1.14,1.3,2.59,1.3,4.58c0,14.73-0.19,50.23-0.21,55.24c-0.04,9.39-5.03,2.89-7.1,0.75" /></g><path d="M42.23,71.45c1.9,1.43,3.7,0.97,5.46-0.51c1.69-1.43,13.52-10.21,17.87-14.45" /><g><path d="M71.8,11.5c1.1,1.84,1.47,3.08,1.54,7.04C73.89,51,79,82.25,91.91,94.67c4.09,3.93,3.71,0.79,3.16-7.34" /><g><path d="M89.83,49.08c-0.05,1.41-0.37,2.73-0.97,3.97c-3.98,7.08-10.6,17.58-23.44,30.25" /></g><g><g><path d="M83.05,18.82c2.7,2.27,7.01,7.47,8.27,11.36" /></g></g></g></g></g></g><g fill="none" stroke="#000" stroke-width="3" stroke-linecap="round" stroke-linejoin="round"><path d="M23,23.75c0.81,0.81,1.04,2.25,1.04,3.6c0,6.85-0.02,31.99-0.02,40.78" stroke-dasharray="44.619" stroke-dashoffset="44.619"><animate attributeName="stroke-dashoffset" values="44.619;44.619;0" dur="0.446s" fill="freeze" begin="0s;5ce8.click" /></path><path d="M12.54,43.49c0.61,0.61,0.69,1.88,0.69,2.61c0,4.98-0.08,13.81-0.62,21.77c-0.27,3.96,0.64,4.59,2.86,3.81c8.41-2.94,9.91-3.44,19.46-6.71" stroke-dasharray="51.44" stroke-dashoffset="51.44"><animate attributeName="stroke-dashoffset" values="51.44" fill="freeze" begin="5ce8.click" /><animate attributeName="stroke-dashoffset" values="51.44;51.44;0" keyTimes="0;0.465;1" dur="0.96s" fill="freeze" begin="0s;5ce8.click" /></path><path d="M34.62,38.91c0.8,0.8,1.19,1.97,1.19,3.41c0,3.9-0.03,12.4-0.04,20.18c-0.01,3.47-0.01,6.79-0.01,9.5" stroke-dasharray="33.389" stroke-dashoffset="33.389"><animate attributeName="stroke-dashoffset" values="33.389" fill="freeze" begin="5ce8.click" /><animate attributeName="stroke-dashoffset" values="33.389;33.389;0" keyTimes="0;0.742;1" dur="1.294s" fill="freeze" begin="0s;5ce8.click" /></path><path d="M63.05,16.71c-0.05,1.17-0.6,1.98-1.24,2.67c-3.56,3.87-7.81,7.49-18.22,13.11" stroke-dasharray="25.573" stroke-dashoffset="25.573"><animate attributeName="stroke-dashoffset" values="25.573" fill="freeze" begin="5ce8.click" /><animate attributeName="stroke-dashoffset" values="25.573;25.573;0" keyTimes="0;0.835;1" dur="1.55s" fill="freeze" begin="0s;5ce8.click" /></path><path d="M42.72,44.51c2.77,1.1,6.84,0.36,9.66-0.1c8.11-1.33,21.73-3.97,33.12-4.9c2.99-0.25,6.67-0.36,9.59,0.33" stroke-dasharray="52.896" stroke-dashoffset="52.896"><animate attributeName="stroke-dashoffset" values="52.896" fill="freeze" begin="5ce8.click" /><animate attributeName="stroke-dashoffset" values="52.896;52.896;0" keyTimes="0;0.746;1" dur="2.079s" fill="freeze" begin="0s;5ce8.click" /></path><path d="M56.19,29.04c1.14,1.14,1.3,2.59,1.3,4.58c0,14.73-0.19,50.23-0.21,55.24c-0.04,9.39-5.03,2.89-7.1,0.75" stroke-dasharray="72.717" stroke-dashoffset="72.717"><animate attributeName="stroke-dashoffset" values="72.717" fill="freeze" begin="5ce8.click" /><animate attributeName="stroke-dashoffset" values="72.717;72.717;0" keyTimes="0;0.792;1" dur="2.626s" fill="freeze" begin="0s;5ce8.click" /></path><path d="M42.23,71.45c1.9,1.43,3.7,0.97,5.46-0.51c1.69-1.43,13.52-10.21,17.87-14.45" stroke-dasharray="29.012" stroke-dashoffset="29.012"><animate attributeName="stroke-dashoffset" values="29.012" fill="freeze" begin="5ce8.click" /><animate attributeName="stroke-dashoffset" values="29.012;29.012;0" keyTimes="0;0.901;1" dur="2.916s" fill="freeze" begin="0s;5ce8.click" /></path><path d="M71.8,11.5c1.1,1.84,1.47,3.08,1.54,7.04C73.89,51,79,82.25,91.91,94.67c4.09,3.93,3.71,0.79,3.16-7.34" stroke-dasharray="99.775" stroke-dashoffset="99.775"><animate attributeName="stroke-dashoffset" values="99.775" fill="freeze" begin="5ce8.click" /><animate attributeName="stroke-dashoffset" values="99.775;99.775;0" keyTimes="0;0.795;1" dur="3.666s" fill="freeze" begin="0s;5ce8.click" /></path><path d="M89.83,49.08c-0.05,1.41-0.37,2.73-0.97,3.97c-3.98,7.08-10.6,17.58-23.44,30.25" stroke-dasharray="42.518" stroke-dashoffset="42.518"><animate attributeName="stroke-dashoffset" values="42.518" fill="freeze" begin="5ce8.click" /><animate attributeName="stroke-dashoffset" values="42.518;42.518;0" keyTimes="0;0.896;1" dur="4.091s" fill="freeze" begin="0s;5ce8.click" /></path><path d="M83.05,18.82c2.7,2.27,7.01,7.47,8.27,11.36" stroke-dasharray="14.185" stroke-dashoffset="14.185"><animate attributeName="stroke-dashoffset" values="14.185" fill="freeze" begin="5ce8.click" /><animate attributeName="stroke-dashoffset" values="14.185;14.185;0" keyTimes="0;0.935;1" dur="4.375s" fill="freeze" begin="0s;5ce8.click" /></path></g></svg>