<svg xmlns="http://www.w3.org/2000/svg" width="109" height="109" viewBox="0 0 109 109" id="5cea"><g fill="none" stroke="#666" stroke-width="9" stroke-linecap="round" stroke-linejoin="round"><g><g><path d="M22.92,21c0.54,0.32,1.79,2.39,1.79,3.04c0,6.7,0.23,35,0.23,43.61" /><path d="M12.79,43.89c0.59,0.35,1.23,1.84,1.18,2.56c-0.33,4.9-0.33,14.65-1.51,22.03c-0.26,1.6,0.17,1.97,1.62,1.61c8.22-2.05,11-2.49,20.99-4.54" /><path d="M35.82,40.02c0.59,0.35,1.18,2.63,1.18,3.34c0,5.51-1.82,16.61-1.82,25.54" /></g><g><g><path d="M57.23,17.48c0.03,0.45,0.07,1.16-0.06,1.8C56.4,23.07,51.97,31.4,45.9,36.5" /><path d="M76.83,16.83C82.35,20.69,89.09,28.05,90.98,32" /></g><g><path d="M68.62,30.25c0.07,0.76,0.32,2.05-0.14,3.07c-3.86,8.62-12.63,21.01-24.32,29.43" /><path d="M68.21,33.83c6.93,7.63,19.82,18.52,26.16,22.57c1.57,1,3.39,1.66,4.88,1.99" /><g><path d="M51.59,66.91c0.41,0.47,0.82,0.86,1,1.45c1.41,4.65,3.1,16.99,4.06,25.34" /><path d="M53.5,69.36c11.09-2.15,24.09-3.22,30.89-4.15c2.32-0.32,3.74,2.13,3.38,3.52c-1.69,6.65-2.95,12.61-4.51,20.77" /><path d="M56.74,91.84c8.93-0.64,17.61-1.59,29.25-2.34" /></g></g></g></g></g><g fill="none" stroke="#000" stroke-width="5" stroke-linecap="round" stroke-linejoin="round"><g><g><path d="M22.92,21c0.54,0.32,1.79,2.39,1.79,3.04c0,6.7,0.23,35,0.23,43.61" stroke-dasharray="47.196" stroke-dashoffset="47.196"><animate attributeName="stroke-dashoffset" values="47.196;47.196;0" dur="0.472s" fill="freeze" begin="0s;5cea.click" /></path><path d="M12.79,43.89c0.59,0.35,1.23,1.84,1.18,2.56c-0.33,4.9-0.33,14.65-1.51,22.03c-0.26,1.6,0.17,1.97,1.62,1.61c8.22-2.05,11-2.49,20.99-4.54" stroke-dasharray="49.587" stroke-dashoffset="49.587"><animate attributeName="stroke-dashoffset" values="49.587" fill="freeze" begin="5cea.click" /><animate attributeName="stroke-dashoffset" values="49.587;49.587;0" keyTimes="0;0.488;1" dur="0.968s" fill="freeze" begin="0s;5cea.click" /></path><path d="M35.82,40.02c0.59,0.35,1.18,2.63,1.18,3.34c0,5.51-1.82,16.61-1.82,25.54" stroke-dasharray="29.225" stroke-dashoffset="29.225"><animate attributeName="stroke-dashoffset" values="29.225" fill="freeze" begin="5cea.click" /><animate attributeName="stroke-dashoffset" values="29.225;29.225;0" keyTimes="0;0.768;1" dur="1.26s" fill="freeze" begin="0s;5cea.click" /></path></g><g><g><path d="M57.23,17.48c0.03,0.45,0.07,1.16-0.06,1.8C56.4,23.07,51.97,31.4,45.9,36.5" stroke-dasharray="22.666" stroke-dashoffset="22.666"><animate attributeName="stroke-dashoffset" values="22.666" fill="freeze" begin="5cea.click" /><animate attributeName="stroke-dashoffset" values="22.666;22.666;0" keyTimes="0;0.847;1" dur="1.487s" fill="freeze" begin="0s;5cea.click" /></path><path d="M76.83,16.83C82.35,20.69,89.09,28.05,90.98,32" stroke-dasharray="20.895" stroke-dashoffset="20.895"><animate attributeName="stroke-dashoffset" values="20.895" fill="freeze" begin="5cea.click" /><animate attributeName="stroke-dashoffset" values="20.895;20.895;0" keyTimes="0;0.877;1" dur="1.696s" fill="freeze" begin="0s;5cea.click" /></path></g><g><path d="M68.62,30.25c0.07,0.76,0.32,2.05-0.14,3.07c-3.86,8.62-12.63,21.01-24.32,29.43" stroke-dasharray="41.681" stroke-dashoffset="41.681"><animate attributeName="stroke-dashoffset" values="41.681" fill="freeze" begin="5cea.click" /><animate attributeName="stroke-dashoffset" values="41.681;41.681;0" keyTimes="0;0.803;1" dur="2.113s" fill="freeze" begin="0s;5cea.click" /></path><path d="M68.21,33.83c6.93,7.63,19.82,18.52,26.16,22.57c1.57,1,3.39,1.66,4.88,1.99" stroke-dasharray="39.913" stroke-dashoffset="39.913"><animate attributeName="stroke-dashoffset" values="39.913" fill="freeze" begin="5cea.click" /><animate attributeName="stroke-dashoffset" values="39.913;39.913;0" keyTimes="0;0.841;1" dur="2.512s" fill="freeze" begin="0s;5cea.click" /></path><g><path d="M51.59,66.91c0.41,0.47,0.82,0.86,1,1.45c1.41,4.65,3.1,16.99,4.06,25.34" stroke-dasharray="27.461" stroke-dashoffset="27.461"><animate attributeName="stroke-dashoffset" values="27.461" fill="freeze" begin="5cea.click" /><animate attributeName="stroke-dashoffset" values="27.461;27.461;0" keyTimes="0;0.901;1" dur="2.787s" fill="freeze" begin="0s;5cea.click" /></path><path d="M53.5,69.36c11.09-2.15,24.09-3.22,30.89-4.15c2.32-0.32,3.74,2.13,3.38,3.52c-1.69,6.65-2.95,12.61-4.51,20.77" stroke-dasharray="58.072" stroke-dashoffset="58.072"><animate attributeName="stroke-dashoffset" values="58.072" fill="freeze" begin="5cea.click" /><animate attributeName="stroke-dashoffset" values="58.072;58.072;0" keyTimes="0;0.827;1" dur="3.368s" fill="freeze" begin="0s;5cea.click" /></path><path d="M56.74,91.84c8.93-0.64,17.61-1.59,29.25-2.34" stroke-dasharray="29.345" stroke-dashoffset="29.345"><animate attributeName="stroke-dashoffset" values="29.345" fill="freeze" begin="5cea.click" /><animate attributeName="stroke-dashoffset" values="29.345;29.345;0" keyTimes="0;0.92;1" dur="3.661s" fill="freeze" begin="0s;5cea.click" /></path></g></g></g></g></g></svg>