<svg xmlns="http://www.w3.org/2000/svg" width="109" height="109" viewBox="0 0 109 109" id="5cf6"><g fill="none" stroke="#666" stroke-width="9" stroke-linecap="round" stroke-linejoin="round"><g><g p4:partial p4:phon="鳥" xmlns:p4="http://kanjivg.tagaini.net"><g><path d="M52.96,9.68c0.1,0.69-0.01,1.33-0.32,1.94c-1.24,2.86-4.42,6.01-9.65,10.95" /></g><path d="M34.63,23.65c0.8,0.8,1.32,2.1,1.32,3.81c0,6.57-0.17,25.1-0.21,37.3c-0.01,2.04-0.01,3.92-0.01,5.53" /><path d="M36.77,26.05c7.48-1.55,23.86-4.43,31.67-5.25c2.88-0.3,4.68,1.63,4.1,4.49c-0.56,2.76-2.21,10.46-3.75,17.07c-0.27,1.15-0.54,2.27-1.04,3.83" /><path d="M36.86,36.33c11.14-1.7,24.77-3.45,33.12-3.9" /><path d="M36.99,47.73c9.14-1.36,22.89-2.98,30.23-3.47" /><path d="M37.03,58.56c11.22-1.31,35.09-4.06,42.22-5.08c2.24-0.32,5.25-0.36,7.13-0.35" /><path d="M36.73,69.99c15.77-2.24,35.41-4.4,49.02-5.69c5.75-0.55,7.12,0.95,6,5.78c-2.23,9.56-6.25,18.11-10,24.15c-3.75,6.02-6.25,3.4-9.5,0.25" /></g><g><path d="M45.9,71.5c0.86,0.86,1.4,1.88,1.4,3.05c0,2.7-0.16,6.7-0.16,11.09" /><path d="M26.57,77.43c0.81,0.81,1.14,2.31,1,2.89c-0.82,3.31-1.44,5.93-2.05,8.3c-0.34,1.31,0.53,2.29,1.74,1.97c8.38-2.21,30.5-5.84,40.2-5.94" /><path d="M69.68,71.56c0.75,0.75,0.85,1.96,0.75,2.55c-0.68,3.85-1.24,6.07-2.24,11.15c-0.17,0.89-0.36,1.85-0.57,2.92" /></g></g></g><g fill="none" stroke="#000" stroke-width="5" stroke-linecap="round" stroke-linejoin="round"><path d="M52.96,9.68c0.1,0.69-0.01,1.33-0.32,1.94c-1.24,2.86-4.42,6.01-9.65,10.95" stroke-dasharray="16.675" stroke-dashoffset="16.675"><animate attributeName="stroke-dashoffset" values="16.675;16.675;0" dur="0.167s" fill="freeze" begin="0s;5cf6.click" /></path><path d="M34.63,23.65c0.8,0.8,1.32,2.1,1.32,3.81c0,6.57-0.17,25.1-0.21,37.3c-0.01,2.04-0.01,3.92-0.01,5.53" stroke-dasharray="46.968" stroke-dashoffset="46.968"><animate attributeName="stroke-dashoffset" values="46.968" fill="freeze" begin="5cf6.click" /><animate attributeName="stroke-dashoffset" values="46.968;46.968;0" keyTimes="0;0.262;1" dur="0.637s" fill="freeze" begin="0s;5cf6.click" /></path><path d="M36.77,26.05c7.48-1.55,23.86-4.43,31.67-5.25c2.88-0.3,4.68,1.63,4.1,4.49c-0.56,2.76-2.21,10.46-3.75,17.07c-0.27,1.15-0.54,2.27-1.04,3.83" stroke-dasharray="60.851" stroke-dashoffset="60.851"><animate attributeName="stroke-dashoffset" values="60.851" fill="freeze" begin="5cf6.click" /><animate attributeName="stroke-dashoffset" values="60.851;60.851;0" keyTimes="0;0.582;1" dur="1.095s" fill="freeze" begin="0s;5cf6.click" /></path><path d="M36.86,36.33c11.14-1.7,24.77-3.45,33.12-3.9" stroke-dasharray="33.36" stroke-dashoffset="33.36"><animate attributeName="stroke-dashoffset" values="33.36" fill="freeze" begin="5cf6.click" /><animate attributeName="stroke-dashoffset" values="33.36;33.36;0" keyTimes="0;0.766;1" dur="1.429s" fill="freeze" begin="0s;5cf6.click" /></path><path d="M36.99,47.73c9.14-1.36,22.89-2.98,30.23-3.47" stroke-dasharray="30.435" stroke-dashoffset="30.435"><animate attributeName="stroke-dashoffset" values="30.435" fill="freeze" begin="5cf6.click" /><animate attributeName="stroke-dashoffset" values="30.435;30.435;0" keyTimes="0;0.825;1" dur="1.733s" fill="freeze" begin="0s;5cf6.click" /></path><path d="M37.03,58.56c11.22-1.31,35.09-4.06,42.22-5.08c2.24-0.32,5.25-0.36,7.13-0.35" stroke-dasharray="49.67" stroke-dashoffset="49.67"><animate attributeName="stroke-dashoffset" values="49.67" fill="freeze" begin="5cf6.click" /><animate attributeName="stroke-dashoffset" values="49.67;49.67;0" keyTimes="0;0.777;1" dur="2.23s" fill="freeze" begin="0s;5cf6.click" /></path><path d="M36.73,69.99c15.77-2.24,35.41-4.4,49.02-5.69c5.75-0.55,7.12,0.95,6,5.78c-2.23,9.56-6.25,18.11-10,24.15c-3.75,6.02-6.25,3.4-9.5,0.25" stroke-dasharray="98.729" stroke-dashoffset="98.729"><animate attributeName="stroke-dashoffset" values="98.729" fill="freeze" begin="5cf6.click" /><animate attributeName="stroke-dashoffset" values="98.729;98.729;0" keyTimes="0;0.75;1" dur="2.972s" fill="freeze" begin="0s;5cf6.click" /></path><path d="M45.9,71.5c0.86,0.86,1.4,1.88,1.4,3.05c0,2.7-0.16,6.7-0.16,11.09" stroke-dasharray="14.54" stroke-dashoffset="14.54"><animate attributeName="stroke-dashoffset" values="14.54" fill="freeze" begin="5cf6.click" /><animate attributeName="stroke-dashoffset" values="14.54;14.54;0" keyTimes="0;0.953;1" dur="3.117s" fill="freeze" begin="0s;5cf6.click" /></path><path d="M26.57,77.43c0.81,0.81,1.14,2.31,1,2.89c-0.82,3.31-1.44,5.93-2.05,8.3c-0.34,1.31,0.53,2.29,1.74,1.97c8.38-2.21,30.5-5.84,40.2-5.94" stroke-dasharray="55.664" stroke-dashoffset="55.664"><animate attributeName="stroke-dashoffset" values="55.664" fill="freeze" begin="5cf6.click" /><animate attributeName="stroke-dashoffset" values="55.664;55.664;0" keyTimes="0;0.848;1" dur="3.674s" fill="freeze" begin="0s;5cf6.click" /></path><path d="M69.68,71.56c0.75,0.75,0.85,1.96,0.75,2.55c-0.68,3.85-1.24,6.07-2.24,11.15c-0.17,0.89-0.36,1.85-0.57,2.92" stroke-dasharray="17.097" stroke-dashoffset="17.097"><animate attributeName="stroke-dashoffset" values="17.097" fill="freeze" begin="5cf6.click" /><animate attributeName="stroke-dashoffset" values="17.097;17.097;0" keyTimes="0;0.956;1" dur="3.845s" fill="freeze" begin="0s;5cf6.click" /></path></g></svg>