<svg xmlns="http://www.w3.org/2000/svg" width="109" height="109" viewBox="0 0 109 109" id="5d22"><g fill="none" stroke="#666" stroke-width="9" stroke-linecap="round" stroke-linejoin="round"><g><g><path d="M23.7,23.25c0.61,0.36,2.01,2.69,2.01,3.42c0,7.55,0.25,32.97,0.25,42.65" /><path d="M12.29,44.51c0.67,0.4,1.39,2.07,1.33,2.88c-0.37,5.52-0.37,15.06-1.7,23.36c-0.29,1.8,0.19,2.22,1.82,1.81C20.9,70.77,31,67.75,38.5,66.45" /><path d="M38.22,40.16c0.67,0.4,1.33,2.96,1.33,3.76c0,6.21-0.92,17.26-0.92,27.31" /></g><g><g><path d="M83.97,11.64c0.04,1.24-0.78,2.46-1.3,2.79c-2.77,1.79-13.08,5.85-29.62,9.02" /><path d="M52.45,29.59c0.02,0.34,0.05,0.88-0.05,1.37c-0.56,2.89-3.77,9.24-8.18,13.13" /><path d="M65.03,27.11c1.93,1.52,4.99,6.25,5.48,8.61" /><path d="M83.88,24.77c3.79,1.86,9.8,7.64,10.75,10.53" /></g><g><g><path d="M52.32,42.92c1.43,0.24,2.65,0.63,4.3,0.48c10.04-0.95,20.89-2.36,30.39-3.07c2.33-0.17,2.87,1.67,2.51,4.05c-0.94,6.23-2.43,16.28-3.15,23.89" /><path d="M48,56.98c1.73,0.24,3.09,0.69,5.01,0.48c16.75-1.9,27.89-3.28,41.18-4c2.12-0.11,3.85,0.48,4.81,0.71" /><path d="M51.97,70.51c0.9,0.15,2.51,0.51,3.58,0.44c9.86-0.73,22.33-2.31,31.29-2.6c1.43-0.05,2.33,0,3.41,0.14" /></g><g><path d="M68.87,44.95c0.48,0.87,1.37,2.86,1.42,5.77c0.23,13.95-0.14,36.7-0.14,41.45c0,10.05-6.96,1.19-7.59,0.29" /></g></g></g></g></g><g fill="none" stroke="#000" stroke-width="5" stroke-linecap="round" stroke-linejoin="round"><path d="M23.7,23.25c0.61,0.36,2.01,2.69,2.01,3.42c0,7.55,0.25,32.97,0.25,42.65" stroke-dasharray="46.682" stroke-dashoffset="46.682"><animate attributeName="stroke-dashoffset" values="46.682;46.682;0" dur="0.467s" fill="freeze" begin="0s;5d22.click" /></path><path d="M12.29,44.51c0.67,0.4,1.39,2.07,1.33,2.88c-0.37,5.52-0.37,15.06-1.7,23.36c-0.29,1.8,0.19,2.22,1.82,1.81C20.9,70.77,31,67.75,38.5,66.45" stroke-dasharray="55.713" stroke-dashoffset="55.713"><animate attributeName="stroke-dashoffset" values="55.713" fill="freeze" begin="5d22.click" /><animate attributeName="stroke-dashoffset" values="55.713;55.713;0" keyTimes="0;0.456;1" dur="1.024s" fill="freeze" begin="0s;5d22.click" /></path><path d="M38.22,40.16c0.67,0.4,1.33,2.96,1.33,3.76c0,6.21-0.92,17.26-0.92,27.31" stroke-dasharray="31.393" stroke-dashoffset="31.393"><animate attributeName="stroke-dashoffset" values="31.393" fill="freeze" begin="5d22.click" /><animate attributeName="stroke-dashoffset" values="31.393;31.393;0" keyTimes="0;0.765;1" dur="1.338s" fill="freeze" begin="0s;5d22.click" /></path><path d="M83.97,11.64c0.04,1.24-0.78,2.46-1.3,2.79c-2.77,1.79-13.08,5.85-29.62,9.02" stroke-dasharray="34.255" stroke-dashoffset="34.255"><animate attributeName="stroke-dashoffset" values="34.255" fill="freeze" begin="5d22.click" /><animate attributeName="stroke-dashoffset" values="34.255;34.255;0" keyTimes="0;0.796;1" dur="1.681s" fill="freeze" begin="0s;5d22.click" /></path><path d="M52.45,29.59c0.02,0.34,0.05,0.88-0.05,1.37c-0.56,2.89-3.77,9.24-8.18,13.13" stroke-dasharray="17.046" stroke-dashoffset="17.046"><animate attributeName="stroke-dashoffset" values="17.046" fill="freeze" begin="5d22.click" /><animate attributeName="stroke-dashoffset" values="17.046;17.046;0" keyTimes="0;0.908;1" dur="1.851s" fill="freeze" begin="0s;5d22.click" /></path><path d="M65.03,27.11c1.93,1.52,4.99,6.25,5.48,8.61" stroke-dasharray="10.325" stroke-dashoffset="10.325"><animate attributeName="stroke-dashoffset" values="10.325" fill="freeze" begin="5d22.click" /><animate attributeName="stroke-dashoffset" values="10.325;10.325;0" keyTimes="0;0.947;1" dur="1.954s" fill="freeze" begin="0s;5d22.click" /></path><path d="M83.88,24.77c3.79,1.86,9.8,7.64,10.75,10.53" stroke-dasharray="15.267" stroke-dashoffset="15.267"><animate attributeName="stroke-dashoffset" values="15.267" fill="freeze" begin="5d22.click" /><animate attributeName="stroke-dashoffset" values="15.267;15.267;0" keyTimes="0;0.927;1" dur="2.107s" fill="freeze" begin="0s;5d22.click" /></path><path d="M52.32,42.92c1.43,0.24,2.65,0.63,4.3,0.48c10.04-0.95,20.89-2.36,30.39-3.07c2.33-0.17,2.87,1.67,2.51,4.05c-0.94,6.23-2.43,16.28-3.15,23.89" stroke-dasharray="64.698" stroke-dashoffset="64.698"><animate attributeName="stroke-dashoffset" values="64.698" fill="freeze" begin="5d22.click" /><animate attributeName="stroke-dashoffset" values="64.698;64.698;0" keyTimes="0;0.813;1" dur="2.593s" fill="freeze" begin="0s;5d22.click" /></path><path d="M48,56.98c1.73,0.24,3.09,0.69,5.01,0.48c16.75-1.9,27.89-3.28,41.18-4c2.12-0.11,3.85,0.48,4.81,0.71" stroke-dasharray="51.319" stroke-dashoffset="51.319"><animate attributeName="stroke-dashoffset" values="51.319" fill="freeze" begin="5d22.click" /><animate attributeName="stroke-dashoffset" values="51.319;51.319;0" keyTimes="0;0.835;1" dur="3.106s" fill="freeze" begin="0s;5d22.click" /></path><path d="M51.97,70.51c0.9,0.15,2.51,0.51,3.58,0.44c9.86-0.73,22.33-2.31,31.29-2.6c1.43-0.05,2.33,0,3.41,0.14" stroke-dasharray="38.435" stroke-dashoffset="38.435"><animate attributeName="stroke-dashoffset" values="38.435" fill="freeze" begin="5d22.click" /><animate attributeName="stroke-dashoffset" values="38.435;38.435;0" keyTimes="0;0.89;1" dur="3.49s" fill="freeze" begin="0s;5d22.click" /></path><path d="M68.87,44.95c0.48,0.87,1.37,2.86,1.42,5.77c0.23,13.95-0.14,36.7-0.14,41.45c0,10.05-6.96,1.19-7.59,0.29" stroke-dasharray="60.44" stroke-dashoffset="60.44"><animate attributeName="stroke-dashoffset" values="60.44" fill="freeze" begin="5d22.click" /><animate attributeName="stroke-dashoffset" values="60.44;60.44;0" keyTimes="0;0.885;1" dur="3.944s" fill="freeze" begin="0s;5d22.click" /></path></g></svg>