<svg xmlns="http://www.w3.org/2000/svg" width="109" height="109" viewBox="0 0 109 109" id="5d4b"><g fill="none" stroke="#666" stroke-width="9" stroke-linecap="round" stroke-linejoin="round"><g><g><path d="M25.34,21.27c0.56,0.32,1.87,2.38,1.87,3.02c0,6.67,0.24,36.3,0.24,44.85" /><path d="M14.76,45.52c0.62,0.35,1.29,1.83,1.24,2.54c-0.35,4.88,0.15,14.56-1.08,21.89c-0.27,1.59,0.18,1.96,1.69,1.6c8.59-2.04,12.03-2.48,22.47-4.51" /><path d="M38.82,41.18c0.62,0.35,1.24,2.61,1.24,3.32c0,5.48-0.85,17.01-0.85,25.88" /></g><g><path d="M46.73,16.71c1.68,0.74,3.68,1.4,5.46,1.25c9.62-0.83,34.2-3.52,38.06-3.81C92.16,14,93,15.98,93,18.2c0,3.74-1.05,6.91-2.52,14.82" /><path d="M70.19,16.2c0.49,0.3,0.78,1.35,0.88,1.95c0.1,0.6,0,13.36-0.1,17.11" /><path d="M51.75,37.24c4.83-0.25,36.4-3.7,41.44-3.95" /><path d="M50.96,18.45c0,4.36,0.34,16.08,0.29,20.17C50.96,60.96,47.77,78.4,35,93.11" /><g><path d="M59.33,46.73c0.48,1.08,1.18,1.89,1.18,3.33c0,1.44-0.32,44.33-0.32,45.05" /><path d="M60.7,48.13c2.72-0.18,24.6-2.8,27.08-3.02c2.07-0.18,3.72,0.64,3.53,3.34c-0.12,1.71-0.99,29.76-0.98,45.61" /><path d="M60.76,61.76c5.37-0.25,24.86-2.29,29.23-2.29" /><path d="M61.49,76.8c7.22-0.6,19.66-1.75,28.19-2.66" /><path d="M60.76,92.95c6.2-0.32,22.14-2.11,29.15-2.11" /></g></g></g></g><g fill="none" stroke="#000" stroke-width="5" stroke-linecap="round" stroke-linejoin="round"><path d="M25.34,21.27c0.56,0.32,1.87,2.38,1.87,3.02c0,6.67,0.24,36.3,0.24,44.85" stroke-dasharray="48.462" stroke-dashoffset="48.462"><animate attributeName="stroke-dashoffset" values="48.462;48.462;0" dur="0.485s" fill="freeze" begin="0s;5d4b.click" /></path><path d="M14.76,45.52c0.62,0.35,1.29,1.83,1.24,2.54c-0.35,4.88,0.15,14.56-1.08,21.89c-0.27,1.59,0.18,1.96,1.69,1.6c8.59-2.04,12.03-2.48,22.47-4.51" stroke-dasharray="50.94" stroke-dashoffset="50.94"><animate attributeName="stroke-dashoffset" values="50.94" fill="freeze" begin="5d4b.click" /><animate attributeName="stroke-dashoffset" values="50.94;50.94;0" keyTimes="0;0.488;1" dur="0.994s" fill="freeze" begin="0s;5d4b.click" /></path><path d="M38.82,41.18c0.62,0.35,1.24,2.61,1.24,3.32c0,5.48-0.85,17.01-0.85,25.88" stroke-dasharray="29.513" stroke-dashoffset="29.513"><animate attributeName="stroke-dashoffset" values="29.513" fill="freeze" begin="5d4b.click" /><animate attributeName="stroke-dashoffset" values="29.513;29.513;0" keyTimes="0;0.771;1" dur="1.289s" fill="freeze" begin="0s;5d4b.click" /></path><path d="M46.73,16.71c1.68,0.74,3.68,1.4,5.46,1.25c9.62-0.83,34.2-3.52,38.06-3.81C92.16,14,93,15.98,93,18.2c0,3.74-1.05,6.91-2.52,14.82" stroke-dasharray="64.506" stroke-dashoffset="64.506"><animate attributeName="stroke-dashoffset" values="64.506" fill="freeze" begin="5d4b.click" /><animate attributeName="stroke-dashoffset" values="64.506;64.506;0" keyTimes="0;0.727;1" dur="1.774s" fill="freeze" begin="0s;5d4b.click" /></path><path d="M70.19,16.2c0.49,0.3,0.78,1.35,0.88,1.95c0.1,0.6,0,13.36-0.1,17.11" stroke-dasharray="19.301" stroke-dashoffset="19.301"><animate attributeName="stroke-dashoffset" values="19.301" fill="freeze" begin="5d4b.click" /><animate attributeName="stroke-dashoffset" values="19.301;19.301;0" keyTimes="0;0.902;1" dur="1.967s" fill="freeze" begin="0s;5d4b.click" /></path><path d="M51.75,37.24c4.83-0.25,36.4-3.7,41.44-3.95" stroke-dasharray="41.63" stroke-dashoffset="41.63"><animate attributeName="stroke-dashoffset" values="41.63" fill="freeze" begin="5d4b.click" /><animate attributeName="stroke-dashoffset" values="41.63;41.63;0" keyTimes="0;0.825;1" dur="2.383s" fill="freeze" begin="0s;5d4b.click" /></path><path d="M50.96,18.45c0,4.36,0.34,16.08,0.29,20.17C50.96,60.96,47.77,78.4,35,93.11" stroke-dasharray="78.342" stroke-dashoffset="78.342"><animate attributeName="stroke-dashoffset" values="78.342" fill="freeze" begin="5d4b.click" /><animate attributeName="stroke-dashoffset" values="78.342;78.342;0" keyTimes="0;0.802;1" dur="2.972s" fill="freeze" begin="0s;5d4b.click" /></path><path d="M59.33,46.73c0.48,1.08,1.18,1.89,1.18,3.33c0,1.44-0.32,44.33-0.32,45.05" stroke-dasharray="48.627" stroke-dashoffset="48.627"><animate attributeName="stroke-dashoffset" values="48.627" fill="freeze" begin="5d4b.click" /><animate attributeName="stroke-dashoffset" values="48.627;48.627;0" keyTimes="0;0.859;1" dur="3.458s" fill="freeze" begin="0s;5d4b.click" /></path><path d="M60.7,48.13c2.72-0.18,24.6-2.8,27.08-3.02c2.07-0.18,3.72,0.64,3.53,3.34c-0.12,1.71-0.99,29.76-0.98,45.61" stroke-dasharray="78.635" stroke-dashoffset="78.635"><animate attributeName="stroke-dashoffset" values="78.635" fill="freeze" begin="5d4b.click" /><animate attributeName="stroke-dashoffset" values="78.635;78.635;0" keyTimes="0;0.854;1" dur="4.049s" fill="freeze" begin="0s;5d4b.click" /></path><path d="M60.76,61.76c5.37-0.25,24.86-2.29,29.23-2.29" stroke-dasharray="29.324" stroke-dashoffset="29.324"><animate attributeName="stroke-dashoffset" values="29.324" fill="freeze" begin="5d4b.click" /><animate attributeName="stroke-dashoffset" values="29.324;29.324;0" keyTimes="0;0.933;1" dur="4.342s" fill="freeze" begin="0s;5d4b.click" /></path><path d="M61.49,76.8c7.22-0.6,19.66-1.75,28.19-2.66" stroke-dasharray="28.317" stroke-dashoffset="28.317"><animate attributeName="stroke-dashoffset" values="28.317" fill="freeze" begin="5d4b.click" /><animate attributeName="stroke-dashoffset" values="28.317;28.317;0" keyTimes="0;0.939;1" dur="4.625s" fill="freeze" begin="0s;5d4b.click" /></path><path d="M60.76,92.95c6.2-0.32,22.14-2.11,29.15-2.11" stroke-dasharray="29.233" stroke-dashoffset="29.233"><animate attributeName="stroke-dashoffset" values="29.233" fill="freeze" begin="5d4b.click" /><animate attributeName="stroke-dashoffset" values="29.233;29.233;0" keyTimes="0;0.941;1" dur="4.917s" fill="freeze" begin="0s;5d4b.click" /></path></g></svg>