<svg xmlns="http://www.w3.org/2000/svg" width="109" height="109" viewBox="0 0 109 109" id="5d6f"><g fill="none" stroke="#666" stroke-width="9" stroke-linecap="round" stroke-linejoin="round"><g><g><path d="M22.84,25.77c0.94,0.94,1.12,2.11,1.12,3.58c0,6.8-0.01,31.01-0.01,39.74" /><path d="M11.76,45.98c0.75,0.75,0.83,2.01,0.74,3.09c-0.45,5.53-0.91,12.26-1.62,20.3c-0.28,3.17,0,4.38,2.96,3.58c6.48-1.75,12.04-3.2,20.24-4.5" /><path d="M36.32,43.31c0.56,1.19,0.56,2.44,0.49,3.64c-0.26,4.32-0.75,11.73-1.33,19.43c-0.17,2.24-0.35,4.51-0.53,6.73" /></g><g><g><path d="M50.62,11.88c2.85,2.06,7.36,8.47,8.07,11.67" /><path d="M78.93,10.52c0.07,1.05-0.04,2.1-0.57,3.02c-1.73,2.96-2.83,4.98-6.61,8.91" /><path d="M44.92,28.07c2.46,0.55,5.35,0.41,7.33,0.17c8.4-1.01,24-2.79,31.88-3.18c1.91-0.09,3.97-0.26,5.81,0.35" /><path d="M64.46,28.66c0.75,0.75,1.06,1.84,1.06,3.32c0,3.9,0.08,14.28,0.08,20.32" /><path d="M47.14,40.79c1.85,0.71,4.37,0.19,6.26,0.01c6.42-0.61,17.18-2.12,24.49-2.54c1.99-0.12,4.05-0.32,6.01,0.13" /><path d="M42.27,54.35c3.6,0.65,6.02,0.62,8.59,0.41c9.15-0.75,27.38-2.36,37.89-2.92c2.51-0.13,4.99-0.37,7.43,0.34" /></g><g><path d="M54.14,57.59c0.07,0.86-0.19,2.08-0.64,3.21c-2.98,7.5-9.75,21.45-22.41,31.43" /></g><g><path d="M53.61,69.41c2.23,0.46,4.9,0.05,6.39-0.12c6.17-0.7,15.75-1.91,22.11-2.32c1.88-0.12,4.64-0.34,6.26,0.1" /><path d="M68.04,69.38c0.79,0.79,0.91,1.74,0.91,3.02c0,5.84-0.08,16.84-0.08,21.47" /><path d="M43.07,95.68c2.7,0.73,5.3,0.67,8.06,0.47c13.6-0.99,24.64-1.92,36.63-2.17c3.04-0.06,6,0.14,8.57,1.08" /></g></g></g></g><g fill="none" stroke="#000" stroke-width="5" stroke-linecap="round" stroke-linejoin="round"><g><g><path d="M22.84,25.77c0.94,0.94,1.12,2.11,1.12,3.58c0,6.8-0.01,31.01-0.01,39.74" stroke-dasharray="43.6" stroke-dashoffset="43.6"><animate id="0" attributeName="stroke-dashoffset" values="43.6;0" dur="0.44s" fill="freeze" begin="0s;5d6f.click" /></path><path d="M11.76,45.98c0.75,0.75,0.83,2.01,0.74,3.09c-0.45,5.53-0.91,12.26-1.62,20.3c-0.28,3.17,0,4.38,2.96,3.58c6.48-1.75,12.04-3.2,20.24-4.5" stroke-dasharray="50.62" stroke-dashoffset="50.62"><animate attributeName="stroke-dashoffset" values="50.62" fill="freeze" begin="5d6f.click" /><animate id="1" attributeName="stroke-dashoffset" values="50.62;0" dur="0.51s" fill="freeze" begin="0.end" /></path><path d="M36.32,43.31c0.56,1.19,0.56,2.44,0.49,3.64c-0.26,4.32-0.75,11.73-1.33,19.43c-0.17,2.24-0.35,4.51-0.53,6.73" stroke-dasharray="29.94" stroke-dashoffset="29.94"><animate attributeName="stroke-dashoffset" values="29.94" fill="freeze" begin="5d6f.click" /><animate id="2" attributeName="stroke-dashoffset" values="29.94;0" dur="0.3s" fill="freeze" begin="1.end" /></path></g><g><g><path d="M50.62,11.88c2.85,2.06,7.36,8.47,8.07,11.67" stroke-dasharray="14.37" stroke-dashoffset="14.37"><animate attributeName="stroke-dashoffset" values="14.37" fill="freeze" begin="5d6f.click" /><animate id="3" attributeName="stroke-dashoffset" values="14.37;0" dur="0.14s" fill="freeze" begin="2.end" /></path><path d="M78.93,10.52c0.07,1.05-0.04,2.1-0.57,3.02c-1.73,2.96-2.83,4.98-6.61,8.91" stroke-dasharray="14.25" stroke-dashoffset="14.25"><animate attributeName="stroke-dashoffset" values="14.25" fill="freeze" begin="5d6f.click" /><animate id="4" attributeName="stroke-dashoffset" values="14.25;0" dur="0.14s" fill="freeze" begin="3.end" /></path><path d="M44.92,28.07c2.46,0.55,5.35,0.41,7.33,0.17c8.4-1.01,24-2.79,31.88-3.18c1.91-0.09,3.97-0.26,5.81,0.35" stroke-dasharray="45.26" stroke-dashoffset="45.26"><animate attributeName="stroke-dashoffset" values="45.26" fill="freeze" begin="5d6f.click" /><animate id="5" attributeName="stroke-dashoffset" values="45.26;0" dur="0.45s" fill="freeze" begin="4.end" /></path><path d="M64.46,28.66c0.75,0.75,1.06,1.84,1.06,3.32c0,3.9,0.08,14.28,0.08,20.32" stroke-dasharray="23.9" stroke-dashoffset="23.9"><animate attributeName="stroke-dashoffset" values="23.9" fill="freeze" begin="5d6f.click" /><animate id="6" attributeName="stroke-dashoffset" values="23.9;0" dur="0.24s" fill="freeze" begin="5.end" /></path><path d="M47.14,40.79c1.85,0.71,4.37,0.19,6.26,0.01c6.42-0.61,17.18-2.12,24.49-2.54c1.99-0.12,4.05-0.32,6.01,0.13" stroke-dasharray="36.98" stroke-dashoffset="36.98"><animate attributeName="stroke-dashoffset" values="36.98" fill="freeze" begin="5d6f.click" /><animate id="7" attributeName="stroke-dashoffset" values="36.98;0" dur="0.37s" fill="freeze" begin="6.end" /></path><path d="M42.27,54.35c3.6,0.65,6.02,0.62,8.59,0.41c9.15-0.75,27.38-2.36,37.89-2.92c2.51-0.13,4.99-0.37,7.43,0.34" stroke-dasharray="54.11" stroke-dashoffset="54.11"><animate attributeName="stroke-dashoffset" values="54.11" fill="freeze" begin="5d6f.click" /><animate id="8" attributeName="stroke-dashoffset" values="54.11;0" dur="0.54s" fill="freeze" begin="7.end" /></path></g><g><path d="M54.14,57.59c0.07,0.86-0.19,2.08-0.64,3.21c-2.98,7.5-9.75,21.45-22.41,31.43" stroke-dasharray="42.34" stroke-dashoffset="42.34"><animate attributeName="stroke-dashoffset" values="42.34" fill="freeze" begin="5d6f.click" /><animate id="9" attributeName="stroke-dashoffset" values="42.34;0" dur="0.42s" fill="freeze" begin="8.end" /></path></g><g><path d="M53.61,69.41c2.23,0.46,4.9,0.05,6.39-0.12c6.17-0.7,15.75-1.91,22.11-2.32c1.88-0.12,4.64-0.34,6.26,0.1" stroke-dasharray="34.94" stroke-dashoffset="34.94"><animate attributeName="stroke-dashoffset" values="34.94" fill="freeze" begin="5d6f.click" /><animate id="10" attributeName="stroke-dashoffset" values="34.94;0" dur="0.35s" fill="freeze" begin="9.end" /></path><path d="M68.04,69.38c0.79,0.79,0.91,1.74,0.91,3.02c0,5.84-0.08,16.84-0.08,21.47" stroke-dasharray="24.72" stroke-dashoffset="24.72"><animate attributeName="stroke-dashoffset" values="24.72" fill="freeze" begin="5d6f.click" /><animate id="11" attributeName="stroke-dashoffset" values="24.72;0" dur="0.25s" fill="freeze" begin="10.end" /></path><path d="M43.07,95.68c2.7,0.73,5.3,0.67,8.06,0.47c13.6-0.99,24.64-1.92,36.63-2.17c3.04-0.06,6,0.14,8.57,1.08" stroke-dasharray="53.5" stroke-dashoffset="53.5"><animate attributeName="stroke-dashoffset" values="53.5" fill="freeze" begin="5d6f.click" /><animate id="12" attributeName="stroke-dashoffset" values="53.5;0" dur="0.54s" fill="freeze" begin="11.end" /></path></g></g></g></g></svg>