<svg xmlns="http://www.w3.org/2000/svg" width="109" height="109" viewBox="0 0 109 109" id="5d8c"><g fill="none" stroke="#666" stroke-width="9" stroke-linecap="round" stroke-linejoin="round"><g><g><path d="M52.01,9.38c0.56,0.33,1.75,2.48,1.86,3.15c0.11,0.66-0.07,9.58-0.18,13.73" /><path d="M26.43,16.75c0.56,0.33,1.12,1.73,1.12,2.41c0,2.59-0.8,3.84-2.09,7.76c-0.48,1.45,0.81,2.5,2.11,2.28c17.18-2.95,48.83-4.42,53.85-4.55" /><path d="M82.02,11.62c0.56,0.33,1.21,2.48,1.12,3.15c-0.56,4.07-1.14,8.73-2.04,12.69" /></g><g><path d="M49.74,30.93c0.02,0.23,0.03,0.59-0.03,0.92c-0.38,1.93-2.53,6.18-5.47,8.78" /><path d="M33.17,40.35c0.58,0.9,1.24,2.76,1.24,3.32c0,5.66,0.05,27.4-0.21,36.31" /><path d="M34.43,42.95c1.68-0.09,33.7-3.73,35.34-3.73c2.42,0,3.61,1.55,3.39,3.07c-0.13,0.93-2.28,10.64-3.84,17.82" /><path d="M35.2,51.79c2.06,0,33.86-3.42,36.19-3.42" /><path d="M35.1,61.13c4.2-0.33,29.47-2.98,34.7-3.26" /><path d="M35.33,70.62c15.09-2.03,39.95-4.56,45.46-5.16c1.92-0.21,5.19-0.45,6.16-0.3" /><path d="M34.22,80.15c11.29-1.78,41.72-4.31,47.98-4.96c4.07-0.43,5.8,2.03,4.93,4.9c-1.87,6.15-4.12,11.65-6.59,15.82C77.55,100.93,75.75,98,73.5,96" /><g><path d="M24.3,85.25c-0.55,4.5-2.05,9.63-4.3,12.5" /><path d="M36.51,85.26c2.84,1.73,5.54,6.51,6.25,9.21" /><path d="M53.53,84.42c1.84,1.2,4.74,4.95,5.2,6.82" /><path d="M66.97,81.36c2.06,0.96,5.32,3.96,5.83,5.46" /></g></g></g></g><g fill="none" stroke="#000" stroke-width="5" stroke-linecap="round" stroke-linejoin="round"><g><g><path d="M52.01,9.38c0.56,0.33,1.75,2.48,1.86,3.15c0.11,0.66-0.07,9.58-0.18,13.73" stroke-dasharray="17.43" stroke-dashoffset="17.43"><animate id="0" attributeName="stroke-dashoffset" values="17.43;0" dur="0.17s" fill="freeze" begin="0s;5d8c.click" /></path><path d="M26.43,16.75c0.56,0.33,1.12,1.73,1.12,2.41c0,2.59-0.8,3.84-2.09,7.76c-0.48,1.45,0.81,2.5,2.11,2.28c17.18-2.95,48.83-4.42,53.85-4.55" stroke-dasharray="68.66" stroke-dashoffset="68.66"><animate attributeName="stroke-dashoffset" values="68.66" fill="freeze" begin="5d8c.click" /><animate id="1" attributeName="stroke-dashoffset" values="68.66;0" dur="0.52s" fill="freeze" begin="0.end" /></path><path d="M82.02,11.62c0.56,0.33,1.21,2.48,1.12,3.15c-0.56,4.07-1.14,8.73-2.04,12.69" stroke-dasharray="16.28" stroke-dashoffset="16.28"><animate attributeName="stroke-dashoffset" values="16.28" fill="freeze" begin="5d8c.click" /><animate id="2" attributeName="stroke-dashoffset" values="16.28;0" dur="0.16s" fill="freeze" begin="1.end" /></path></g><g><path d="M49.74,30.93c0.02,0.23,0.03,0.59-0.03,0.92c-0.38,1.93-2.53,6.18-5.47,8.78" stroke-dasharray="11.4" stroke-dashoffset="11.4"><animate attributeName="stroke-dashoffset" values="11.4" fill="freeze" begin="5d8c.click" /><animate id="3" attributeName="stroke-dashoffset" values="11.4;0" dur="0.11s" fill="freeze" begin="2.end" /></path><path d="M33.17,40.35c0.58,0.9,1.24,2.76,1.24,3.32c0,5.66,0.05,27.4-0.21,36.31" stroke-dasharray="39.88" stroke-dashoffset="39.88"><animate attributeName="stroke-dashoffset" values="39.88" fill="freeze" begin="5d8c.click" /><animate id="4" attributeName="stroke-dashoffset" values="39.88;0" dur="0.4s" fill="freeze" begin="3.end" /></path><path d="M34.43,42.95c1.68-0.09,33.7-3.73,35.34-3.73c2.42,0,3.61,1.55,3.39,3.07c-0.13,0.93-2.28,10.64-3.84,17.82" stroke-dasharray="59" stroke-dashoffset="59"><animate attributeName="stroke-dashoffset" values="59" fill="freeze" begin="5d8c.click" /><animate id="5" attributeName="stroke-dashoffset" values="59;0" dur="0.59s" fill="freeze" begin="4.end" /></path><path d="M35.2,51.79c2.06,0,33.86-3.42,36.19-3.42" stroke-dasharray="36.35" stroke-dashoffset="36.35"><animate attributeName="stroke-dashoffset" values="36.35" fill="freeze" begin="5d8c.click" /><animate id="6" attributeName="stroke-dashoffset" values="36.35;0" dur="0.36s" fill="freeze" begin="5.end" /></path><path d="M35.1,61.13c4.2-0.33,29.47-2.98,34.7-3.26" stroke-dasharray="34.85" stroke-dashoffset="34.85"><animate attributeName="stroke-dashoffset" values="34.85" fill="freeze" begin="5d8c.click" /><animate id="7" attributeName="stroke-dashoffset" values="34.85;0" dur="0.35s" fill="freeze" begin="6.end" /></path><path d="M35.33,70.62c15.09-2.03,39.95-4.56,45.46-5.16c1.92-0.21,5.19-0.45,6.16-0.3" stroke-dasharray="51.93" stroke-dashoffset="51.93"><animate attributeName="stroke-dashoffset" values="51.93" fill="freeze" begin="5d8c.click" /><animate id="8" attributeName="stroke-dashoffset" values="51.93;0" dur="0.52s" fill="freeze" begin="7.end" /></path><path d="M34.22,80.15c11.29-1.78,41.72-4.31,47.98-4.96c4.07-0.43,5.8,2.03,4.93,4.9c-1.87,6.15-4.12,11.65-6.59,15.82C77.55,100.93,75.75,98,73.5,96" stroke-dasharray="83.19" stroke-dashoffset="83.19"><animate attributeName="stroke-dashoffset" values="83.19" fill="freeze" begin="5d8c.click" /><animate id="9" attributeName="stroke-dashoffset" values="83.19;0" dur="0.63s" fill="freeze" begin="8.end" /></path><g><path d="M24.3,85.25c-0.55,4.5-2.05,9.63-4.3,12.5" stroke-dasharray="13.36" stroke-dashoffset="13.36"><animate attributeName="stroke-dashoffset" values="13.36" fill="freeze" begin="5d8c.click" /><animate id="10" attributeName="stroke-dashoffset" values="13.36;0" dur="0.13s" fill="freeze" begin="9.end" /></path><path d="M36.51,85.26c2.84,1.73,5.54,6.51,6.25,9.21" stroke-dasharray="11.33" stroke-dashoffset="11.33"><animate attributeName="stroke-dashoffset" values="11.33" fill="freeze" begin="5d8c.click" /><animate id="11" attributeName="stroke-dashoffset" values="11.33;0" dur="0.11s" fill="freeze" begin="10.end" /></path><path d="M53.53,84.42c1.84,1.2,4.74,4.95,5.2,6.82" stroke-dasharray="8.69" stroke-dashoffset="8.69"><animate attributeName="stroke-dashoffset" values="8.69" fill="freeze" begin="5d8c.click" /><animate id="12" attributeName="stroke-dashoffset" values="8.69;0" dur="0.09s" fill="freeze" begin="11.end" /></path><path d="M66.97,81.36c2.06,0.96,5.32,3.96,5.83,5.46" stroke-dasharray="8.11" stroke-dashoffset="8.11"><animate attributeName="stroke-dashoffset" values="8.11" fill="freeze" begin="5d8c.click" /><animate id="13" attributeName="stroke-dashoffset" values="8.11;0" dur="0.08s" fill="freeze" begin="12.end" /></path></g></g></g></g></svg>