<svg xmlns="http://www.w3.org/2000/svg" width="109" height="109" viewBox="0 0 109 109" id="5dcc"><g fill="none" stroke="#666" stroke-width="9" stroke-linecap="round" stroke-linejoin="round"><g><g><path d="M52.51,9.5c0.93,0.93,1.37,1.88,1.37,2.99c0,0.59,0.09,4.88,0.09,9.28" /><path d="M33.02,14.08C33.5,15,33.5,16,33.25,17.18c-0.55,2.54-1,3.82-1.61,6.58c-0.43,1.94,0.72,2.57,2.36,2.23c11.67-2.37,27.88-4.49,41.85-5.18" /><path d="M77.94,10.87c0.56,1,0.56,1.88,0.46,2.99c-0.17,1.99-0.64,3.5-1.09,5.4c-0.35,1.49-0.7,2.92-0.94,4.24" /></g><g><g><path d="M30.42,31.33c3,2.61,6.22,7.18,6.65,8.49" /><path d="M51.25,28.34c1.42,1.56,4.81,5.65,5.38,8.18" /><path d="M75.38,28.75c0.14,1.16-0.04,2.18-0.67,3.28c-1.78,3.13-2.91,4.76-5.09,7.85" /></g><g><path d="M22.03,45.51c3.09,0.49,5.53,0.23,8.22-0.07c12.81-1.47,32.55-3.75,46.88-4.63c3.07-0.19,5.69-0.61,8.74,0.04" /><path d="M24.29,46.43c0.76,0.76,0.67,2.01,0.67,3.55c0,9.99-1.71,28.77-12.9,41.74" /></g><g><g><path d="M32.51,53.12c1.07,0.29,2.3,0.1,3.35-0.08c2.86-0.5,7.33-1.68,10.66-2.24c1.24-0.21,2.41-0.35,3.66-0.15" /><path d="M41.03,52.49c0.79,0.79,0.89,1.68,0.89,2.89c0,1.84-0.05,3.69-0.05,5.36" /><g><path d="M27.7,63.16c1.62,0.4,3.56,0.37,5.19,0.15c4.86-0.68,11.25-2.03,16.88-3.43c1.5-0.38,2.98-0.64,4.5-0.42" /><path d="M33.03,65.42c0.62,1,0.85,2.08,0.85,3.33c0,4-0.01,15.75-0.01,20.12" /><path d="M35.03,71.38c5.24-0.91,9.94-1.78,13.6-2.27" /><path d="M35.04,80.09c3.96-0.72,9.21-1.97,13.85-2.7" /><path d="M25.74,91.53c1.01,0.72,2.37,0.75,3.16,0.45c8.09-3.11,14.37-5.81,20.7-7.95" /><path d="M48.76,62.56c1.03,1.03,1.11,2.3,1.11,3.69c0,4.56,0,17.59-0.08,26c-0.03,2.99-0.04,5.39-0.04,6.62" /></g></g><g><g><path d="M64.65,48.35c0.06,1.36-0.07,2.35-0.45,3.68c-1.46,5.14-4.02,13.34-8.13,19.53" /><path d="M64.35,61.39c1.27,0.23,2.33,0.07,3.14-0.13c4.26-1.02,7.97-2.16,11.92-3.44c1.29-0.42,3.3-1.14,4.71-0.72" /></g><g><g><path d="M78.06,62.45c0.35,0.84,0.24,1.74-0.33,3.21c-5.26,13.71-11.21,21-21.6,29.88" /></g><path d="M60.9,69.14c4.75,3.87,13.6,13.23,22.82,21.15c2.58,2.21,4.65,3.62,7.78,4.89" /></g></g></g></g></g></g><g fill="none" stroke="#000" stroke-width="5" stroke-linecap="round" stroke-linejoin="round"><g><g><path d="M52.51,9.5c0.93,0.93,1.37,1.88,1.37,2.99c0,0.59,0.09,4.88,0.09,9.28" stroke-dasharray="12.66" stroke-dashoffset="12.66"><animate id="0" attributeName="stroke-dashoffset" values="12.66;0" dur="0.13s" fill="freeze" begin="0s;5dcc.click" /></path><path d="M33.02,14.08C33.5,15,33.5,16,33.25,17.18c-0.55,2.54-1,3.82-1.61,6.58c-0.43,1.94,0.72,2.57,2.36,2.23c11.67-2.37,27.88-4.49,41.85-5.18" stroke-dasharray="56.31" stroke-dashoffset="56.31"><animate attributeName="stroke-dashoffset" values="56.31" fill="freeze" begin="5dcc.click" /><animate id="1" attributeName="stroke-dashoffset" values="56.31;0" dur="0.56s" fill="freeze" begin="0.end" /></path><path d="M77.94,10.87c0.56,1,0.56,1.88,0.46,2.99c-0.17,1.99-0.64,3.5-1.09,5.4c-0.35,1.49-0.7,2.92-0.94,4.24" stroke-dasharray="12.94" stroke-dashoffset="12.94"><animate attributeName="stroke-dashoffset" values="12.94" fill="freeze" begin="5dcc.click" /><animate id="2" attributeName="stroke-dashoffset" values="12.94;0" dur="0.13s" fill="freeze" begin="1.end" /></path></g><g><g><path d="M30.42,31.33c3,2.61,6.22,7.18,6.65,8.49" stroke-dasharray="10.85" stroke-dashoffset="10.85"><animate attributeName="stroke-dashoffset" values="10.85" fill="freeze" begin="5dcc.click" /><animate id="3" attributeName="stroke-dashoffset" values="10.85;0" dur="0.11s" fill="freeze" begin="2.end" /></path><path d="M51.25,28.34c1.42,1.56,4.81,5.65,5.38,8.18" stroke-dasharray="9.87" stroke-dashoffset="9.87"><animate attributeName="stroke-dashoffset" values="9.87" fill="freeze" begin="5dcc.click" /><animate id="4" attributeName="stroke-dashoffset" values="9.87;0" dur="0.1s" fill="freeze" begin="3.end" /></path><path d="M75.38,28.75c0.14,1.16-0.04,2.18-0.67,3.28c-1.78,3.13-2.91,4.76-5.09,7.85" stroke-dasharray="12.77" stroke-dashoffset="12.77"><animate attributeName="stroke-dashoffset" values="12.77" fill="freeze" begin="5dcc.click" /><animate id="5" attributeName="stroke-dashoffset" values="12.77;0" dur="0.13s" fill="freeze" begin="4.end" /></path></g><g><path d="M22.03,45.51c3.09,0.49,5.53,0.23,8.22-0.07c12.81-1.47,32.55-3.75,46.88-4.63c3.07-0.19,5.69-0.61,8.74,0.04" stroke-dasharray="64.14" stroke-dashoffset="64.14"><animate attributeName="stroke-dashoffset" values="64.14" fill="freeze" begin="5dcc.click" /><animate id="6" attributeName="stroke-dashoffset" values="64.14;0" dur="0.48s" fill="freeze" begin="5.end" /></path><path d="M24.29,46.43c0.76,0.76,0.67,2.01,0.67,3.55c0,9.99-1.71,28.77-12.9,41.74" stroke-dasharray="48.29" stroke-dashoffset="48.29"><animate attributeName="stroke-dashoffset" values="48.29" fill="freeze" begin="5dcc.click" /><animate id="7" attributeName="stroke-dashoffset" values="48.29;0" dur="0.48s" fill="freeze" begin="6.end" /></path></g><g><g><path d="M32.51,53.12c1.07,0.29,2.3,0.1,3.35-0.08c2.86-0.5,7.33-1.68,10.66-2.24c1.24-0.21,2.41-0.35,3.66-0.15" stroke-dasharray="17.95" stroke-dashoffset="17.95"><animate attributeName="stroke-dashoffset" values="17.95" fill="freeze" begin="5dcc.click" /><animate id="8" attributeName="stroke-dashoffset" values="17.95;0" dur="0.18s" fill="freeze" begin="7.end" /></path><path d="M41.03,52.49c0.79,0.79,0.89,1.68,0.89,2.89c0,1.84-0.05,3.69-0.05,5.36" stroke-dasharray="8.48" stroke-dashoffset="8.48"><animate attributeName="stroke-dashoffset" values="8.48" fill="freeze" begin="5dcc.click" /><animate id="9" attributeName="stroke-dashoffset" values="8.48;0" dur="0.08s" fill="freeze" begin="8.end" /></path><g><path d="M27.7,63.16c1.62,0.4,3.56,0.37,5.19,0.15c4.86-0.68,11.25-2.03,16.88-3.43c1.5-0.38,2.98-0.64,4.5-0.42" stroke-dasharray="27" stroke-dashoffset="27"><animate attributeName="stroke-dashoffset" values="27" fill="freeze" begin="5dcc.click" /><animate id="10" attributeName="stroke-dashoffset" values="27;0" dur="0.27s" fill="freeze" begin="9.end" /></path><path d="M33.03,65.42c0.62,1,0.85,2.08,0.85,3.33c0,4-0.01,15.75-0.01,20.12" stroke-dasharray="23.6" stroke-dashoffset="23.6"><animate attributeName="stroke-dashoffset" values="23.6" fill="freeze" begin="5dcc.click" /><animate id="11" attributeName="stroke-dashoffset" values="23.6;0" dur="0.24s" fill="freeze" begin="10.end" /></path><path d="M35.03,71.38c5.24-0.91,9.94-1.78,13.6-2.27" stroke-dasharray="13.79" stroke-dashoffset="13.79"><animate attributeName="stroke-dashoffset" values="13.79" fill="freeze" begin="5dcc.click" /><animate id="12" attributeName="stroke-dashoffset" values="13.79;0" dur="0.14s" fill="freeze" begin="11.end" /></path><path d="M35.04,80.09c3.96-0.72,9.21-1.97,13.85-2.7" stroke-dasharray="14.11" stroke-dashoffset="14.11"><animate attributeName="stroke-dashoffset" values="14.11" fill="freeze" begin="5dcc.click" /><animate id="13" attributeName="stroke-dashoffset" values="14.11;0" dur="0.14s" fill="freeze" begin="12.end" /></path><path d="M25.74,91.53c1.01,0.72,2.37,0.75,3.16,0.45c8.09-3.11,14.37-5.81,20.7-7.95" stroke-dasharray="25.48" stroke-dashoffset="25.48"><animate attributeName="stroke-dashoffset" values="25.48" fill="freeze" begin="5dcc.click" /><animate id="14" attributeName="stroke-dashoffset" values="25.48;0" dur="0.25s" fill="freeze" begin="13.end" /></path><path d="M48.76,62.56c1.03,1.03,1.11,2.3,1.11,3.69c0,4.56,0,17.59-0.08,26c-0.03,2.99-0.04,5.39-0.04,6.62" stroke-dasharray="36.59" stroke-dashoffset="36.59"><animate attributeName="stroke-dashoffset" values="36.59" fill="freeze" begin="5dcc.click" /><animate id="15" attributeName="stroke-dashoffset" values="36.59;0" dur="0.37s" fill="freeze" begin="14.end" /></path></g></g><g><g><path d="M64.65,48.35c0.06,1.36-0.07,2.35-0.45,3.68c-1.46,5.14-4.02,13.34-8.13,19.53" stroke-dasharray="24.96" stroke-dashoffset="24.96"><animate attributeName="stroke-dashoffset" values="24.96" fill="freeze" begin="5dcc.click" /><animate id="16" attributeName="stroke-dashoffset" values="24.96;0" dur="0.25s" fill="freeze" begin="15.end" /></path><path d="M64.35,61.39c1.27,0.23,2.33,0.07,3.14-0.13c4.26-1.02,7.97-2.16,11.92-3.44c1.29-0.42,3.3-1.14,4.71-0.72" stroke-dasharray="20.41" stroke-dashoffset="20.41"><animate attributeName="stroke-dashoffset" values="20.41" fill="freeze" begin="5dcc.click" /><animate id="17" attributeName="stroke-dashoffset" values="20.41;0" dur="0.2s" fill="freeze" begin="16.end" /></path></g><g><g><path d="M78.06,62.45c0.35,0.84,0.24,1.74-0.33,3.21c-5.26,13.71-11.21,21-21.6,29.88" stroke-dasharray="40.65" stroke-dashoffset="40.65"><animate attributeName="stroke-dashoffset" values="40.65" fill="freeze" begin="5dcc.click" /><animate id="18" attributeName="stroke-dashoffset" values="40.65;0" dur="0.41s" fill="freeze" begin="17.end" /></path></g><path d="M60.9,69.14c4.75,3.87,13.6,13.23,22.82,21.15c2.58,2.21,4.65,3.62,7.78,4.89" stroke-dasharray="40.36" stroke-dashoffset="40.36"><animate attributeName="stroke-dashoffset" values="40.36" fill="freeze" begin="5dcc.click" /><animate id="19" attributeName="stroke-dashoffset" values="40.36;0" dur="0.4s" fill="freeze" begin="18.end" /></path></g></g></g></g></g></g></svg>