<svg xmlns="http://www.w3.org/2000/svg" viewBox="0 0 109 109" id="5ddd"><g fill="none" stroke="#666" stroke-width="6" stroke-linecap="round" stroke-linejoin="round"><g><path d="M27.22,25.68c0.91,1.57,1.18,3.45,1.19,5.37C28.5,43.5,28.5,69,17.39,84.15" /><path d="M53.75,23.63c0.94,0.94,1.41,2.37,1.41,3.9c0,0.58-0.01,28.48-0.08,41.71c-0.02,3.31-0.04,5.74-0.06,6.63" /><path d="M85.56,15.63c1.09,1.09,1.76,2.62,1.76,4.25c0,0.74,0.23,46.86,0.09,66.12c-0.03,4.31-0.06,7.61-0.09,8.63" /></g></g><g fill="none" stroke="#000" stroke-width="3" stroke-linecap="round" stroke-linejoin="round"><path d="M27.22,25.68c0.91,1.57,1.18,3.45,1.19,5.37C28.5,43.5,28.5,69,17.39,84.15" stroke-dasharray="60.672" stroke-dashoffset="60.672"><animate attributeName="stroke-dashoffset" values="60.672;60.672;0" dur="0.456s" fill="freeze" begin="0s;5ddd.click" /></path><path d="M53.75,23.63c0.94,0.94,1.41,2.37,1.41,3.9c0,0.58-0.01,28.48-0.08,41.71c-0.02,3.31-0.04,5.74-0.06,6.63" stroke-dasharray="52.595" stroke-dashoffset="52.595"><animate attributeName="stroke-dashoffset" values="52.595" fill="freeze" begin="5ddd.click" /><animate attributeName="stroke-dashoffset" values="52.595;52.595;0" keyTimes="0;0.464;1" dur="0.982s" fill="freeze" begin="0s;5ddd.click" /></path><path d="M85.56,15.63c1.09,1.09,1.76,2.62,1.76,4.25c0,0.74,0.23,46.86,0.09,66.12c-0.03,4.31-0.06,7.61-0.09,8.63" stroke-dasharray="79.471" stroke-dashoffset="79.471"><animate attributeName="stroke-dashoffset" values="79.471" fill="freeze" begin="5ddd.click" /><animate attributeName="stroke-dashoffset" values="79.471;79.471;0" keyTimes="0;0.622;1" dur="1.58s" fill="freeze" begin="0s;5ddd.click" /></path></g></svg>