<svg xmlns="http://www.w3.org/2000/svg" width="109" height="109" viewBox="0 0 109 109" id="5de7"><g fill="none" stroke="#666" stroke-width="9" stroke-linecap="round" stroke-linejoin="round"><g><g><path d="M13.5,31.39c1.42,0.66,3.84,0.59,5.38,0.45c6.37-0.57,16.64-2.54,22.12-3.22c1.41-0.18,3.1-0.49,4.5-0.1" /><path d="M28.99,33.25c1.07,1.07,1.37,2.62,1.37,4.56c0,13.68-0.12,17.53-0.12,26.32" /><path d="M12.5,70.46c1,0.91,2.46,1.2,4.92,0.17c6.83-2.88,21.38-9.01,28.21-11.88" /></g><g p4:phon="丂" xmlns:p4="http://kanjivg.tagaini.net"><path d="M49.04,20.47c2.58,0.53,5.51,0.29,7.96,0c9.25-1.09,22.82-2.53,32.01-3.16c2.33-0.16,4.63-0.13,6.94,0.33" /><path d="M70.56,21.87c0.5,0.96,0.29,2.43-0.4,3.81c-1.91,3.82-6.91,13.07-9.45,16.89c-1.44,2.17-0.46,4.17,3,3.55C70,45,76.75,43,84.59,41.95c4.05-0.54,5.06,0.28,4.13,5.42C86.75,58.25,80,79.75,73.01,89.51c-4.69,6.56-7.39,0.87-9.04-1.66" /></g></g></g><g fill="none" stroke="#000" stroke-width="5" stroke-linecap="round" stroke-linejoin="round"><g><g><path d="M13.5,31.39c1.42,0.66,3.84,0.59,5.38,0.45c6.37-0.57,16.64-2.54,22.12-3.22c1.41-0.18,3.1-0.49,4.5-0.1" stroke-dasharray="32.34" stroke-dashoffset="32.34"><animate attributeName="stroke-dashoffset" values="32.34;32.34;0" dur="0.323s" fill="freeze" begin="0s;5de7.click" /></path><path d="M28.99,33.25c1.07,1.07,1.37,2.62,1.37,4.56c0,13.68-0.12,17.53-0.12,26.32" stroke-dasharray="31.212" stroke-dashoffset="31.212"><animate attributeName="stroke-dashoffset" values="31.212" fill="freeze" begin="5de7.click" /><animate attributeName="stroke-dashoffset" values="31.212;31.212;0" keyTimes="0;0.509;1" dur="0.635s" fill="freeze" begin="0s;5de7.click" /></path><path d="M12.5,70.46c1,0.91,2.46,1.2,4.92,0.17c6.83-2.88,21.38-9.01,28.21-11.88" stroke-dasharray="35.832" stroke-dashoffset="35.832"><animate attributeName="stroke-dashoffset" values="35.832" fill="freeze" begin="5de7.click" /><animate attributeName="stroke-dashoffset" values="35.832;35.832;0" keyTimes="0;0.639;1" dur="0.993s" fill="freeze" begin="0s;5de7.click" /></path></g><g p4:phon="丂" xmlns:p4="http://kanjivg.tagaini.net"><path d="M49.04,20.47c2.58,0.53,5.51,0.29,7.96,0c9.25-1.09,22.82-2.53,32.01-3.16c2.33-0.16,4.63-0.13,6.94,0.33" stroke-dasharray="47.132" stroke-dashoffset="47.132"><animate attributeName="stroke-dashoffset" values="47.132" fill="freeze" begin="5de7.click" /><animate attributeName="stroke-dashoffset" values="47.132;47.132;0" keyTimes="0;0.678;1" dur="1.464s" fill="freeze" begin="0s;5de7.click" /></path><path d="M70.56,21.87c0.5,0.96,0.29,2.43-0.4,3.81c-1.91,3.82-6.91,13.07-9.45,16.89c-1.44,2.17-0.46,4.17,3,3.55C70,45,76.75,43,84.59,41.95c4.05-0.54,5.06,0.28,4.13,5.42C86.75,58.25,80,79.75,73.01,89.51c-4.69,6.56-7.39,0.87-9.04-1.66" stroke-dasharray="117.965" stroke-dashoffset="117.965"><animate attributeName="stroke-dashoffset" values="117.965" fill="freeze" begin="5de7.click" /><animate attributeName="stroke-dashoffset" values="117.965;117.965;0" keyTimes="0;0.623;1" dur="2.351s" fill="freeze" begin="0s;5de7.click" /></path></g></g></g></svg>