<svg xmlns="http://www.w3.org/2000/svg" width="109" height="109" viewBox="0 0 109 109" id="5df1"><g fill="none" stroke="#666" stroke-width="9" stroke-linecap="round" stroke-linejoin="round"><g><path d="M27.75,19.89c2.38,0.99,5.17,1.14,8.67,0.68c7.1-0.93,38.3-3.9,40.47-4.08c2.86-0.23,5.11,1.52,4.09,5.1c-0.3,1.07-2.48,9.17-4.48,19.42" /><path d="M23.25,45.5c2,1.25,4.54,1.56,7,1.5c10.88-0.25,28.07-2.72,41.88-4.33c1.99-0.23,4.87-0.54,7.62-0.67" /><path d="M25.24,47.12c1.07,1.07,1.6,2.38,1.6,4.03c0,7.6-0.1,14.71-0.1,21.6c0,19,1.26,20,34.26,20c30.38,0,31.75-1.88,31.75-12.5" /></g></g><g fill="none" stroke="#000" stroke-width="5" stroke-linecap="round" stroke-linejoin="round"><g><path d="M27.75,19.89c2.38,0.99,5.17,1.14,8.67,0.68c7.1-0.93,38.3-3.9,40.47-4.08c2.86-0.23,5.11,1.52,4.09,5.1c-0.3,1.07-2.48,9.17-4.48,19.42" stroke-dasharray="77.42" stroke-dashoffset="77.42"><animate id="0" attributeName="stroke-dashoffset" values="77.42;0" dur="0.58s" fill="freeze" begin="0s;5df1.click" /></path><path d="M23.25,45.5c2,1.25,4.54,1.56,7,1.5c10.88-0.25,28.07-2.72,41.88-4.33c1.99-0.23,4.87-0.54,7.62-0.67" stroke-dasharray="57.03" stroke-dashoffset="57.03"><animate attributeName="stroke-dashoffset" values="57.03" fill="freeze" begin="5df1.click" /><animate id="1" attributeName="stroke-dashoffset" values="57.03;0" dur="0.57s" fill="freeze" begin="0.end" /></path><path d="M25.24,47.12c1.07,1.07,1.6,2.38,1.6,4.03c0,7.6-0.1,14.71-0.1,21.6c0,19,1.26,20,34.26,20c30.38,0,31.75-1.88,31.75-12.5" stroke-dasharray="114.1" stroke-dashoffset="114.1"><animate attributeName="stroke-dashoffset" values="114.1" fill="freeze" begin="5df1.click" /><animate id="2" attributeName="stroke-dashoffset" values="114.1;0" dur="0.86s" fill="freeze" begin="1.end" /></path></g></g></svg>