<svg xmlns="http://www.w3.org/2000/svg" width="109" height="109" viewBox="0 0 109 109" id="5df2"><g fill="none" stroke="#666" stroke-width="9" stroke-linecap="round" stroke-linejoin="round"><g><g><path d="M25.75,19.89c2.38,1.39,4.42,1.39,7.92,0.93c7.1-0.93,38.05-4.15,40.22-4.33c2.86-0.23,5.11,1.52,4.09,5.1c-0.3,1.07-2.73,12.42-4.73,22.67" /><path d="M30.25,48.75c5.25-0.5,30-2.5,45.5-4.5" /><path d="M28.74,34.87c1.16,1.69,1.67,3.68,1.65,6.28c-0.04,7.6-0.28,23.71-0.28,30.6C30.11,93.25,33.1,92,61.94,92C93.06,92,91,85.5,91,76.75" /></g></g></g><g fill="none" stroke="#000" stroke-width="5" stroke-linecap="round" stroke-linejoin="round"><g><g><path d="M25.75,19.89c2.38,1.39,4.42,1.39,7.92,0.93c7.1-0.93,38.05-4.15,40.22-4.33c2.86-0.23,5.11,1.52,4.09,5.1c-0.3,1.07-2.73,12.42-4.73,22.67" stroke-dasharray="79.778" stroke-dashoffset="79.778"><animate attributeName="stroke-dashoffset" values="79.778;79.778;0" dur="0.6s" fill="freeze" begin="0s;5df2.click" /></path><path d="M30.25,48.75c5.25-0.5,30-2.5,45.5-4.5" stroke-dasharray="45.726" stroke-dashoffset="45.726"><animate attributeName="stroke-dashoffset" values="45.726" fill="freeze" begin="5df2.click" /><animate attributeName="stroke-dashoffset" values="45.726;45.726;0" keyTimes="0;0.568;1" dur="1.057s" fill="freeze" begin="0s;5df2.click" /></path><path d="M28.74,34.87c1.16,1.69,1.67,3.68,1.65,6.28c-0.04,7.6-0.28,23.71-0.28,30.6C30.11,93.25,33.1,92,61.94,92C93.06,92,91,85.5,91,76.75" stroke-dasharray="122.691" stroke-dashoffset="122.691"><animate attributeName="stroke-dashoffset" values="122.691" fill="freeze" begin="5df2.click" /><animate attributeName="stroke-dashoffset" values="122.691;122.691;0" keyTimes="0;0.534;1" dur="1.979s" fill="freeze" begin="0s;5df2.click" /></path></g></g></g></svg>