<svg xmlns="http://www.w3.org/2000/svg" width="109" height="109" viewBox="0 0 109 109" id="5df4"><g fill="none" stroke="#666" stroke-width="9" stroke-linecap="round" stroke-linejoin="round"><g><g><path d="M26.5,23.62c2.1,0.95,4.3,0.39,6.47,0.08c14.07-2.03,32.29-4.05,41.9-4.86c4.24-0.36,7.77,1.41,6.23,6.74c-1.78,6.14-3.48,12.8-6.55,22.47" /><path d="M53.06,24.13c0.94,1.49,0.89,2.87,0.76,4.25C53.25,34.88,52.75,40.88,52,46.5" /></g><g><path d="M31,49.75c5.25-0.5,31.12-3,43-3.5" /><g><path d="M28.13,24.5c0.87,0.87,1.29,1.94,1.29,4.03c0,9.72-0.05,35.32-0.05,41.6c0,21,0.5,21.67,31.36,21.67c31.14,0,32.39-5.79,32.26-15.39" /></g></g></g></g><g fill="none" stroke="#000" stroke-width="5" stroke-linecap="round" stroke-linejoin="round"><path d="M26.5,23.62c2.1,0.95,4.3,0.39,6.47,0.08c14.07-2.03,32.29-4.05,41.9-4.86c4.24-0.36,7.77,1.41,6.23,6.74c-1.78,6.14-3.48,12.8-6.55,22.47" stroke-dasharray="83.648" stroke-dashoffset="83.648"><animate attributeName="stroke-dashoffset" values="83.648;83.648;0" dur="0.629s" fill="freeze" begin="0s;5df4.click" /></path><path d="M53.06,24.13c0.94,1.49,0.89,2.87,0.76,4.25C53.25,34.88,52.75,40.88,52,46.5" stroke-dasharray="22.624" stroke-dashoffset="22.624"><animate attributeName="stroke-dashoffset" values="22.624" fill="freeze" begin="5df4.click" /><animate attributeName="stroke-dashoffset" values="22.624;22.624;0" keyTimes="0;0.736;1" dur="0.855s" fill="freeze" begin="0s;5df4.click" /></path><path d="M31,49.75c5.25-0.5,31.12-3,43-3.5" stroke-dasharray="43.147" stroke-dashoffset="43.147"><animate attributeName="stroke-dashoffset" values="43.147" fill="freeze" begin="5df4.click" /><animate attributeName="stroke-dashoffset" values="43.147;43.147;0" keyTimes="0;0.665;1" dur="1.286s" fill="freeze" begin="0s;5df4.click" /></path><path d="M28.13,24.5c0.87,0.87,1.29,1.94,1.29,4.03c0,9.72-0.05,35.32-0.05,41.6c0,21,0.5,21.67,31.36,21.67c31.14,0,32.39-5.79,32.26-15.39" stroke-dasharray="134.758" stroke-dashoffset="134.758"><animate attributeName="stroke-dashoffset" values="134.758" fill="freeze" begin="5df4.click" /><animate attributeName="stroke-dashoffset" values="134.758;134.758;0" keyTimes="0;0.559;1" dur="2.299s" fill="freeze" begin="0s;5df4.click" /></path></g></svg>