<svg xmlns="http://www.w3.org/2000/svg" width="109" height="109" viewBox="0 0 109 109" id="5e0b"><g fill="none" stroke="#666" stroke-width="9" stroke-linecap="round" stroke-linejoin="round"><g><g><path d="M68,10.5c0.1,0.32,0.21,0.82-0.2,1.28c-2.46,2.7-20.55,10.97-38.05,12.94" /><path d="M23.25,21.61C24.5,21.98,25,24.34,25,25.45s-0.25,24.66-0.25,26.38c0,2.92,0.41,3.07,3.5,1.48c4.5-2.31,15-7.56,18.75-9.55" /><path d="M25.02,34.83c13.48-0.5,43.82-4.57,60.98-6.94c2.14-0.3,3.46,0.21,4.53,0.43" /><path d="M54.5,21.87c0.37,0.7,1.11,1.38,1.46,2.41C60,36.25,69.5,49.25,90.8,52.42c8.1,1.2,5.48-3.66,5.48-5.08" /></g><g><path d="M23.81,62.7c0.66,0.28,2.06,2.13,2.19,2.7c0.13,0.57,2,21.59,2.78,26.93" /><path d="M26.09,64.3c4.14-0.2,52.28-4.19,55.37-4.31c3.63-0.14,4.42,2.51,4.29,3.81c-0.66,6.54-2.68,17.54-4.8,23.95c-1.53,4.61-4.2,2.5-7.2-0.95" /><path d="M52.75,49.88c0.66,0.29,2.06,2.13,2.19,2.7c0.13,0.57-0.09,45.23-0.22,48.8" /></g></g></g><g fill="none" stroke="#000" stroke-width="5" stroke-linecap="round" stroke-linejoin="round"><path d="M68,10.5c0.1,0.32,0.21,0.82-0.2,1.28c-2.46,2.7-20.55,10.97-38.05,12.94" stroke-dasharray="41.914" stroke-dashoffset="41.914"><animate attributeName="stroke-dashoffset" values="41.914;41.914;0" dur="0.419s" fill="freeze" begin="0s;5e0b.click" /></path><path d="M23.25,21.61C24.5,21.98,25,24.34,25,25.45s-0.25,24.66-0.25,26.38c0,2.92,0.41,3.07,3.5,1.48c4.5-2.31,15-7.56,18.75-9.55" stroke-dasharray="57.604" stroke-dashoffset="57.604"><animate attributeName="stroke-dashoffset" values="57.604" fill="freeze" begin="5e0b.click" /><animate attributeName="stroke-dashoffset" values="57.604;57.604;0" keyTimes="0;0.421;1" dur="0.995s" fill="freeze" begin="0s;5e0b.click" /></path><path d="M25.02,34.83c13.48-0.5,43.82-4.57,60.98-6.94c2.14-0.3,3.46,0.21,4.53,0.43" stroke-dasharray="65.977" stroke-dashoffset="65.977"><animate attributeName="stroke-dashoffset" values="65.977" fill="freeze" begin="5e0b.click" /><animate attributeName="stroke-dashoffset" values="65.977;65.977;0" keyTimes="0;0.667;1" dur="1.491s" fill="freeze" begin="0s;5e0b.click" /></path><path d="M54.5,21.87c0.37,0.7,1.11,1.38,1.46,2.41C60,36.25,69.5,49.25,90.8,52.42c8.1,1.2,5.48-3.66,5.48-5.08" stroke-dasharray="60.264" stroke-dashoffset="60.264"><animate attributeName="stroke-dashoffset" values="60.264" fill="freeze" begin="5e0b.click" /><animate attributeName="stroke-dashoffset" values="60.264;60.264;0" keyTimes="0;0.767;1" dur="1.944s" fill="freeze" begin="0s;5e0b.click" /></path><path d="M23.81,62.7c0.66,0.28,2.06,2.13,2.19,2.7c0.13,0.57,2,21.59,2.78,26.93" stroke-dasharray="30.602" stroke-dashoffset="30.602"><animate attributeName="stroke-dashoffset" values="30.602" fill="freeze" begin="5e0b.click" /><animate attributeName="stroke-dashoffset" values="30.602;30.602;0" keyTimes="0;0.864;1" dur="2.25s" fill="freeze" begin="0s;5e0b.click" /></path><path d="M26.09,64.3c4.14-0.2,52.28-4.19,55.37-4.31c3.63-0.14,4.42,2.51,4.29,3.81c-0.66,6.54-2.68,17.54-4.8,23.95c-1.53,4.61-4.2,2.5-7.2-0.95" stroke-dasharray="96.54" stroke-dashoffset="96.54"><animate attributeName="stroke-dashoffset" values="96.54" fill="freeze" begin="5e0b.click" /><animate attributeName="stroke-dashoffset" values="96.54;96.54;0" keyTimes="0;0.756;1" dur="2.976s" fill="freeze" begin="0s;5e0b.click" /></path><path d="M52.75,49.88c0.66,0.29,2.06,2.13,2.19,2.7c0.13,0.57-0.09,45.23-0.22,48.8" stroke-dasharray="52.328" stroke-dashoffset="52.328"><animate attributeName="stroke-dashoffset" values="52.328" fill="freeze" begin="5e0b.click" /><animate attributeName="stroke-dashoffset" values="52.328;52.328;0" keyTimes="0;0.851;1" dur="3.499s" fill="freeze" begin="0s;5e0b.click" /></path></g></svg>