<svg xmlns="http://www.w3.org/2000/svg" width="109" height="109" viewBox="0 0 109 109" id="5e0c"><g fill="none" stroke="#666" stroke-width="6" stroke-linecap="round" stroke-linejoin="round"><g><g><g><path d="M67.18,8.43c0.07,1.07-0.18,2.43-1.16,3.52C57,22,44.5,27.25,24,33" /></g><path d="M36.75,15.25c16,0.5,32,5.5,42,13.5" /></g><g><path d="M52.88,27.75c0.11,1.02,0.35,2.66-0.23,4.09c-4.4,10.91-15.52,26.78-40.01,39.18" /><path d="M13.75,43.32c1.89,0.54,5.36,0.66,7.25,0.54c17.35-1.11,47.17-5.49,68.88-5.98c3.15-0.07,5.04,0.26,6.62,0.53" /><g><path d="M34.25,60c0.94,0.94,1.34,2.09,1.34,3.21c0,5.35,0.04,16.35,0.06,23.29c0,1.86,0.01,3.42,0.01,4.51" /><path d="M36.34,60.84c3.48-0.24,39.04-4.38,41.63-4.53c3.05-0.17,4.35,0.81,4.35,4.53c0,10.42,0.06,14.54-0.78,22.66c-0.67,6.55-4.88,0.31-6.04-0.88" /><path d="M56.49,46.25c0.94,0.94,1.59,2.62,1.59,4.21c0,3.65-0.12,30.52-0.16,43.79c-0.01,3.24-0.02,5.67-0.02,6.75" /></g></g></g></g><g fill="none" stroke="#000" stroke-width="3" stroke-linecap="round" stroke-linejoin="round"><path d="M67.18,8.43c0.07,1.07-0.18,2.43-1.16,3.52C57,22,44.5,27.25,24,33" stroke-dasharray="51.465" stroke-dashoffset="51.465"><animate attributeName="stroke-dashoffset" values="51.465;51.465;0" dur="0.515s" fill="freeze" begin="0s;5e0c.click" /></path><path d="M36.75,15.25c16,0.5,32,5.5,42,13.5" stroke-dasharray="44.819" stroke-dashoffset="44.819"><animate attributeName="stroke-dashoffset" values="44.819" fill="freeze" begin="5e0c.click" /><animate attributeName="stroke-dashoffset" values="44.819;44.819;0" keyTimes="0;0.535;1" dur="0.963s" fill="freeze" begin="0s;5e0c.click" /></path><path d="M52.88,27.75c0.11,1.02,0.35,2.66-0.23,4.09c-4.4,10.91-15.52,26.78-40.01,39.18" stroke-dasharray="61.321" stroke-dashoffset="61.321"><animate attributeName="stroke-dashoffset" values="61.321" fill="freeze" begin="5e0c.click" /><animate attributeName="stroke-dashoffset" values="61.321;61.321;0" keyTimes="0;0.676;1" dur="1.424s" fill="freeze" begin="0s;5e0c.click" /></path><path d="M13.75,43.32c1.89,0.54,5.36,0.66,7.25,0.54c17.35-1.11,47.17-5.49,68.88-5.98c3.15-0.07,5.04,0.26,6.62,0.53" stroke-dasharray="83.105" stroke-dashoffset="83.105"><animate attributeName="stroke-dashoffset" values="83.105" fill="freeze" begin="5e0c.click" /><animate attributeName="stroke-dashoffset" values="83.105;83.105;0" keyTimes="0;0.695;1" dur="2.049s" fill="freeze" begin="0s;5e0c.click" /></path><path d="M34.25,60c0.94,0.94,1.34,2.09,1.34,3.21c0,5.35,0.04,16.35,0.06,23.29c0,1.86,0.01,3.42,0.01,4.51" stroke-dasharray="31.373" stroke-dashoffset="31.373"><animate attributeName="stroke-dashoffset" values="31.373" fill="freeze" begin="5e0c.click" /><animate attributeName="stroke-dashoffset" values="31.373;31.373;0" keyTimes="0;0.867;1" dur="2.363s" fill="freeze" begin="0s;5e0c.click" /></path><path d="M36.34,60.84c3.48-0.24,39.04-4.38,41.63-4.53c3.05-0.17,4.35,0.81,4.35,4.53c0,10.42,0.06,14.54-0.78,22.66c-0.67,6.55-4.88,0.31-6.04-0.88" stroke-dasharray="81.675" stroke-dashoffset="81.675"><animate attributeName="stroke-dashoffset" values="81.675" fill="freeze" begin="5e0c.click" /><animate attributeName="stroke-dashoffset" values="81.675;81.675;0" keyTimes="0;0.794;1" dur="2.977s" fill="freeze" begin="0s;5e0c.click" /></path><path d="M56.49,46.25c0.94,0.94,1.59,2.62,1.59,4.21c0,3.65-0.12,30.52-0.16,43.79c-0.01,3.24-0.02,5.67-0.02,6.75" stroke-dasharray="55.147" stroke-dashoffset="55.147"><animate attributeName="stroke-dashoffset" values="55.147" fill="freeze" begin="5e0c.click" /><animate attributeName="stroke-dashoffset" values="55.147;55.147;0" keyTimes="0;0.844;1" dur="3.528s" fill="freeze" begin="0s;5e0c.click" /></path></g></svg>