<svg xmlns="http://www.w3.org/2000/svg" width="109" height="109" viewBox="0 0 109 109" id="5e2f"><g fill="none" stroke="#666" stroke-width="6" stroke-linecap="round" stroke-linejoin="round"><g><g><g><g><g><g><path d="M12.25,27.95c4.25,0.93,8.04,0.63,11.77,0.17c15.23-1.87,43.1-4.25,61.23-4.96c3.59-0.14,6.62,0.09,10,0.63" /></g></g><g><g><g><path d="M33,14c1,1,1.67,2.5,1.61,3.5c-0.2,3.31-0.6,13.03-0.84,20c-0.04,1.18-0.08,2.27-0.11,3.25" /></g></g></g><g><g><g><path d="M53.45,10.5c0.96,0.96,1.38,2.48,1.36,3.5c-0.07,4.25-0.19,14.88-0.21,23" /></g></g></g></g><g><path d="M74.65,12.5c0.86,0.86,1.44,2.48,1.36,3.5c-0.27,3.5-1.64,11.38-2.46,19.25" /></g></g><g><path d="M33.85,39.88c9.78-1.01,26.65-3.01,36.04-3.63c2.04-0.13,3.74-0.13,5.19,0.38" /></g></g><g><g><path d="M17.75,50.62c-0.15,3.93-3.73,16.28-5,18.62" /><path d="M18.4,52.34c3.84-0.45,49.59-6.35,68.62-6.35c14.24,0,1.12,7.48-0.56,8.81" /></g><g><path d="M30.71,62.14c0.66,0.61,1.19,1.99,1.19,3.03c0,2.09,0.03,10.83,0.05,17.2c0,1.88,0.01,3.55,0.01,4.78" /><path d="M32.43,64.79c5.07-0.92,39.64-4.98,42.37-5.13c3.22-0.18,3.88,3.04,3.8,4.63c-0.46,8.48-0.6,11.46-2,18.01c-0.86,4-4.22,2.82-6.62-0.41" /><path d="M52.1,50.88c1.01,1.01,1.44,2.37,1.44,3.53c0,0.57,0.04,25.2,0.05,38.08c0,3.1,0.01,5.52,0.01,6.76" /></g></g></g></g><g fill="none" stroke="#000" stroke-width="3" stroke-linecap="round" stroke-linejoin="round"><path d="M12.25,27.95c4.25,0.93,8.04,0.63,11.77,0.17c15.23-1.87,43.1-4.25,61.23-4.96c3.59-0.14,6.62,0.09,10,0.63" stroke-dasharray="83.315" stroke-dashoffset="83.315"><animate attributeName="stroke-dashoffset" values="83.315;83.315;0" dur="0.626s" fill="freeze" begin="0s;5e2f.click" /></path><path d="M33,14c1,1,1.67,2.5,1.61,3.5c-0.2,3.31-0.6,13.03-0.84,20c-0.04,1.18-0.08,2.27-0.11,3.25" stroke-dasharray="27.218" stroke-dashoffset="27.218"><animate attributeName="stroke-dashoffset" values="27.218" fill="freeze" begin="5e2f.click" /><animate attributeName="stroke-dashoffset" values="27.218;27.218;0" keyTimes="0;0.697;1" dur="0.898s" fill="freeze" begin="0s;5e2f.click" /></path><path d="M53.45,10.5c0.96,0.96,1.38,2.48,1.36,3.5c-0.07,4.25-0.19,14.88-0.21,23" stroke-dasharray="26.848" stroke-dashoffset="26.848"><animate attributeName="stroke-dashoffset" values="26.848" fill="freeze" begin="5e2f.click" /><animate attributeName="stroke-dashoffset" values="26.848;26.848;0" keyTimes="0;0.77;1" dur="1.166s" fill="freeze" begin="0s;5e2f.click" /></path><path d="M74.65,12.5c0.86,0.86,1.44,2.48,1.36,3.5c-0.27,3.5-1.64,11.38-2.46,19.25" stroke-dasharray="23.257" stroke-dashoffset="23.257"><animate attributeName="stroke-dashoffset" values="23.257" fill="freeze" begin="5e2f.click" /><animate attributeName="stroke-dashoffset" values="23.257;23.257;0" keyTimes="0;0.833;1" dur="1.399s" fill="freeze" begin="0s;5e2f.click" /></path><path d="M33.85,39.88c9.78-1.01,26.65-3.01,36.04-3.63c2.04-0.13,3.74-0.13,5.19,0.38" stroke-dasharray="41.464" stroke-dashoffset="41.464"><animate attributeName="stroke-dashoffset" values="41.464" fill="freeze" begin="5e2f.click" /><animate attributeName="stroke-dashoffset" values="41.464;41.464;0" keyTimes="0;0.771;1" dur="1.814s" fill="freeze" begin="0s;5e2f.click" /></path><path d="M17.75,50.62c-0.15,3.93-3.73,16.28-5,18.62" stroke-dasharray="19.338" stroke-dashoffset="19.338"><animate attributeName="stroke-dashoffset" values="19.338" fill="freeze" begin="5e2f.click" /><animate attributeName="stroke-dashoffset" values="19.338;19.338;0" keyTimes="0;0.904;1" dur="2.007s" fill="freeze" begin="0s;5e2f.click" /></path><path d="M18.4,52.34c3.84-0.45,49.59-6.35,68.62-6.35c14.24,0,1.12,7.48-0.56,8.81" stroke-dasharray="86.359" stroke-dashoffset="86.359"><animate attributeName="stroke-dashoffset" values="86.359" fill="freeze" begin="5e2f.click" /><animate attributeName="stroke-dashoffset" values="86.359;86.359;0" keyTimes="0;0.756;1" dur="2.656s" fill="freeze" begin="0s;5e2f.click" /></path><path d="M30.71,62.14c0.66,0.61,1.19,1.99,1.19,3.03c0,2.09,0.03,10.83,0.05,17.2c0,1.88,0.01,3.55,0.01,4.78" stroke-dasharray="25.309" stroke-dashoffset="25.309"><animate attributeName="stroke-dashoffset" values="25.309" fill="freeze" begin="5e2f.click" /><animate attributeName="stroke-dashoffset" values="25.309;25.309;0" keyTimes="0;0.913;1" dur="2.909s" fill="freeze" begin="0s;5e2f.click" /></path><path d="M32.43,64.79c5.07-0.92,39.64-4.98,42.37-5.13c3.22-0.18,3.88,3.04,3.8,4.63c-0.46,8.48-0.6,11.46-2,18.01c-0.86,4-4.22,2.82-6.62-0.41" stroke-dasharray="76.803" stroke-dashoffset="76.803"><animate attributeName="stroke-dashoffset" values="76.803" fill="freeze" begin="5e2f.click" /><animate attributeName="stroke-dashoffset" values="76.803;76.803;0" keyTimes="0;0.834;1" dur="3.486s" fill="freeze" begin="0s;5e2f.click" /></path><path d="M52.1,50.88c1.01,1.01,1.44,2.37,1.44,3.53c0,0.57,0.04,25.2,0.05,38.08c0,3.1,0.01,5.52,0.01,6.76" stroke-dasharray="48.751" stroke-dashoffset="48.751"><animate attributeName="stroke-dashoffset" values="48.751" fill="freeze" begin="5e2f.click" /><animate attributeName="stroke-dashoffset" values="48.751;48.751;0" keyTimes="0;0.877;1" dur="3.974s" fill="freeze" begin="0s;5e2f.click" /></path></g></svg>