<svg xmlns="http://www.w3.org/2000/svg" width="109" height="109" viewBox="0 0 109 109" id="5e38"><g fill="none" stroke="#666" stroke-width="9" stroke-linecap="round" stroke-linejoin="round"><g><g p4:phon="尚" xmlns:p4="http://kanjivg.tagaini.net"><g><path d="M52.96,8.12c0.9,0.9,1.51,2.47,1.51,3.99c0,7.77-0.01,13.07-0.01,15.76" /><path d="M31.38,14.88c3.33,1.69,8.6,6.96,9.43,9.59" /><path d="M73.26,11.25c0.08,0.9-0.39,1.99-0.92,2.75c-1.32,2.39-4.4,5.81-8.59,8.88" /></g><g><g><path d="M21.95,30.38c-0.18,4.2-3.21,14.05-4.7,16.56" /><path d="M22.99,32.68c11.01-1.8,46.21-5.71,62.8-6.62c10.21-0.56,0.65,7.69-0.9,8.95" /></g><g p4:part="1"><g><path d="M36.14,41.13c0.75,0.52,1.4,1.78,1.61,2.72c1,4.4,1.54,7.14,2.18,10.87c0.26,1.54,0.5,2.88,0.7,3.78" /><path d="M38.1,42.57c4.63-0.47,22.22-2.74,28.8-3.53c3.07-0.37,4.12,0.42,3.09,3.5c-1.01,3.01-2.72,8.01-3.87,10.77" /><path d="M40.94,55.96c5.19-0.57,15.05-1.47,22.3-2.01c1.91-0.14,3.63-0.26,5.05-0.34" /></g></g></g></g><g p4:part="2" xmlns:p4="http://kanjivg.tagaini.net"><g><path d="M29.06,68.13c0.97,0.97,1.56,2.5,1.88,4.36c0.1,0.58,0.29,8.75,0.32,14.76c0.01,1.95,0,3.67-0.03,4.84" /><path d="M31.27,70.28c5.48-0.53,36.73-4.03,44.27-4.58c3.36-0.25,3.88,2.93,3.97,4.58c0.25,4.47,0,12.97-0.94,16.73c-1.46,5.84-5.04,0.81-6.66-1.21" /><path d="M53,57.02c0.93,0.93,1.31,2.73,1.31,4.57c0,5.73-0.11,19.29-0.11,33.16c0,3.05-0.04,5.33-0.07,6.24" /></g></g></g></g><g fill="none" stroke="#000" stroke-width="5" stroke-linecap="round" stroke-linejoin="round"><g><g p4:phon="尚" xmlns:p4="http://kanjivg.tagaini.net"><g><path d="M52.96,8.12c0.9,0.9,1.51,2.47,1.51,3.99c0,7.77-0.01,13.07-0.01,15.76" stroke-dasharray="20.13" stroke-dashoffset="20.13"><animate id="0" attributeName="stroke-dashoffset" values="20.13;0" dur="0.2s" fill="freeze" begin="0s;5e38.click" /></path><path d="M31.38,14.88c3.33,1.69,8.6,6.96,9.43,9.59" stroke-dasharray="13.65" stroke-dashoffset="13.65"><animate attributeName="stroke-dashoffset" values="13.65" fill="freeze" begin="5e38.click" /><animate id="1" attributeName="stroke-dashoffset" values="13.65;0" dur="0.14s" fill="freeze" begin="0.end" /></path><path d="M73.26,11.25c0.08,0.9-0.39,1.99-0.92,2.75c-1.32,2.39-4.4,5.81-8.59,8.88" stroke-dasharray="15.39" stroke-dashoffset="15.39"><animate attributeName="stroke-dashoffset" values="15.39" fill="freeze" begin="5e38.click" /><animate id="2" attributeName="stroke-dashoffset" values="15.39;0" dur="0.15s" fill="freeze" begin="1.end" /></path></g><g><g><path d="M21.95,30.38c-0.18,4.2-3.21,14.05-4.7,16.56" stroke-dasharray="17.29" stroke-dashoffset="17.29"><animate attributeName="stroke-dashoffset" values="17.29" fill="freeze" begin="5e38.click" /><animate id="3" attributeName="stroke-dashoffset" values="17.29;0" dur="0.17s" fill="freeze" begin="2.end" /></path><path d="M22.99,32.68c11.01-1.8,46.21-5.71,62.8-6.62c10.21-0.56,0.65,7.69-0.9,8.95" stroke-dasharray="77.93" stroke-dashoffset="77.93"><animate attributeName="stroke-dashoffset" values="77.93" fill="freeze" begin="5e38.click" /><animate id="4" attributeName="stroke-dashoffset" values="77.93;0" dur="0.59s" fill="freeze" begin="3.end" /></path></g><g p4:part="1"><g><path d="M36.14,41.13c0.75,0.52,1.4,1.78,1.61,2.72c1,4.4,1.54,7.14,2.18,10.87c0.26,1.54,0.5,2.88,0.7,3.78" stroke-dasharray="18.15" stroke-dashoffset="18.15"><animate attributeName="stroke-dashoffset" values="18.15" fill="freeze" begin="5e38.click" /><animate id="5" attributeName="stroke-dashoffset" values="18.15;0" dur="0.18s" fill="freeze" begin="4.end" /></path><path d="M38.1,42.57c4.63-0.47,22.22-2.74,28.8-3.53c3.07-0.37,4.12,0.42,3.09,3.5c-1.01,3.01-2.72,8.01-3.87,10.77" stroke-dasharray="46.86" stroke-dashoffset="46.86"><animate attributeName="stroke-dashoffset" values="46.86" fill="freeze" begin="5e38.click" /><animate id="6" attributeName="stroke-dashoffset" values="46.86;0" dur="0.47s" fill="freeze" begin="5.end" /></path><path d="M40.94,55.96c5.19-0.57,15.05-1.47,22.3-2.01c1.91-0.14,3.63-0.26,5.05-0.34" stroke-dasharray="27.45" stroke-dashoffset="27.45"><animate attributeName="stroke-dashoffset" values="27.45" fill="freeze" begin="5e38.click" /><animate id="7" attributeName="stroke-dashoffset" values="27.45;0" dur="0.27s" fill="freeze" begin="6.end" /></path></g></g></g></g><g p4:part="2" xmlns:p4="http://kanjivg.tagaini.net"><g><path d="M29.06,68.13c0.97,0.97,1.56,2.5,1.88,4.36c0.1,0.58,0.29,8.75,0.32,14.76c0.01,1.95,0,3.67-0.03,4.84" stroke-dasharray="24.43" stroke-dashoffset="24.43"><animate attributeName="stroke-dashoffset" values="24.43" fill="freeze" begin="5e38.click" /><animate id="8" attributeName="stroke-dashoffset" values="24.43;0" dur="0.24s" fill="freeze" begin="7.end" /></path><path d="M31.27,70.28c5.48-0.53,36.73-4.03,44.27-4.58c3.36-0.25,3.88,2.93,3.97,4.58c0.25,4.47,0,12.97-0.94,16.73c-1.46,5.84-5.04,0.81-6.66-1.21" stroke-dasharray="78.11" stroke-dashoffset="78.11"><animate attributeName="stroke-dashoffset" values="78.11" fill="freeze" begin="5e38.click" /><animate id="9" attributeName="stroke-dashoffset" values="78.11;0" dur="0.59s" fill="freeze" begin="8.end" /></path><path d="M53,57.02c0.93,0.93,1.31,2.73,1.31,4.57c0,5.73-0.11,19.29-0.11,33.16c0,3.05-0.04,5.33-0.07,6.24" stroke-dasharray="44.26" stroke-dashoffset="44.26"><animate attributeName="stroke-dashoffset" values="44.26" fill="freeze" begin="5e38.click" /><animate id="10" attributeName="stroke-dashoffset" values="44.26;0" dur="0.44s" fill="freeze" begin="9.end" /></path></g></g></g></g></svg>