<svg xmlns="http://www.w3.org/2000/svg" width="109" height="109" viewBox="0 0 109 109" id="5e38"><g fill="none" stroke="#666" stroke-width="9" stroke-linecap="round" stroke-linejoin="round"><g><g p4:phon="尚" xmlns:p4="http://kanjivg.tagaini.net"><g><path d="M52.96,8.12c0.9,0.9,1.51,2.47,1.51,3.99c0,7.77-0.01,13.07-0.01,15.76" /><path d="M31.38,14.88c3.33,1.69,8.6,6.96,9.43,9.59" /><path d="M73.26,11.25c0.08,0.9-0.39,1.99-0.92,2.75c-1.32,2.39-4.4,5.81-8.59,8.88" /></g><g><g><path d="M21.95,30.38c-0.18,4.2-3.21,14.05-4.7,16.56" /><path d="M22.99,32.68c11.01-1.8,46.21-5.71,62.8-6.62c10.21-0.56,0.65,7.69-0.9,8.95" /></g><g><g><path d="M36.14,41.13c0.75,0.52,1.4,1.78,1.61,2.72c1,4.4,1.54,7.14,2.18,10.87c0.26,1.54,0.5,2.88,0.7,3.78" /><path d="M38.1,42.57c4.63-0.47,22.22-2.74,28.8-3.53c3.07-0.37,4.12,0.42,3.09,3.5c-1.01,3.01-2.72,8.01-3.87,10.77" /><path d="M40.94,55.96c5.19-0.57,15.05-1.47,22.3-2.01c1.91-0.14,3.63-0.26,5.05-0.34" /></g></g></g></g><g><g><path d="M29.06,68.13c0.97,0.97,1.56,2.5,1.88,4.36c0.1,0.58,0.29,8.75,0.32,14.76c0.01,1.95,0,3.67-0.03,4.84" /><path d="M31.27,70.28c5.48-0.53,36.73-4.03,44.27-4.58c3.36-0.25,3.88,2.93,3.97,4.58c0.25,4.47,0,12.97-0.94,16.73c-1.46,5.84-5.04,0.81-6.66-1.21" /><path d="M53,57.02c0.93,0.93,1.31,2.73,1.31,4.57c0,5.73-0.11,19.29-0.11,33.16c0,3.05-0.04,5.33-0.07,6.24" /></g></g></g></g><g fill="none" stroke="#000" stroke-width="5" stroke-linecap="round" stroke-linejoin="round"><path d="M52.96,8.12c0.9,0.9,1.51,2.47,1.51,3.99c0,7.77-0.01,13.07-0.01,15.76" stroke-dasharray="20.128" stroke-dashoffset="20.128"><animate attributeName="stroke-dashoffset" values="20.128;20.128;0" dur="0.201s" fill="freeze" begin="0s;5e38.click" /></path><path d="M31.38,14.88c3.33,1.69,8.6,6.96,9.43,9.59" stroke-dasharray="13.646" stroke-dashoffset="13.646"><animate attributeName="stroke-dashoffset" values="13.646" fill="freeze" begin="5e38.click" /><animate attributeName="stroke-dashoffset" values="13.646;13.646;0" keyTimes="0;0.596;1" dur="0.337s" fill="freeze" begin="0s;5e38.click" /></path><path d="M73.26,11.25c0.08,0.9-0.39,1.99-0.92,2.75c-1.32,2.39-4.4,5.81-8.59,8.88" stroke-dasharray="15.39" stroke-dashoffset="15.39"><animate attributeName="stroke-dashoffset" values="15.39" fill="freeze" begin="5e38.click" /><animate attributeName="stroke-dashoffset" values="15.39;15.39;0" keyTimes="0;0.686;1" dur="0.491s" fill="freeze" begin="0s;5e38.click" /></path><path d="M21.95,30.38c-0.18,4.2-3.21,14.05-4.7,16.56" stroke-dasharray="17.294" stroke-dashoffset="17.294"><animate attributeName="stroke-dashoffset" values="17.294" fill="freeze" begin="5e38.click" /><animate attributeName="stroke-dashoffset" values="17.294;17.294;0" keyTimes="0;0.739;1" dur="0.664s" fill="freeze" begin="0s;5e38.click" /></path><path d="M22.99,32.68c11.01-1.8,46.21-5.71,62.8-6.62c10.21-0.56,0.65,7.69-0.9,8.95" stroke-dasharray="77.934" stroke-dashoffset="77.934"><animate attributeName="stroke-dashoffset" values="77.934" fill="freeze" begin="5e38.click" /><animate attributeName="stroke-dashoffset" values="77.934;77.934;0" keyTimes="0;0.531;1" dur="1.25s" fill="freeze" begin="0s;5e38.click" /></path><path d="M36.14,41.13c0.75,0.52,1.4,1.78,1.61,2.72c1,4.4,1.54,7.14,2.18,10.87c0.26,1.54,0.5,2.88,0.7,3.78" stroke-dasharray="18.153" stroke-dashoffset="18.153"><animate attributeName="stroke-dashoffset" values="18.153" fill="freeze" begin="5e38.click" /><animate attributeName="stroke-dashoffset" values="18.153;18.153;0" keyTimes="0;0.873;1" dur="1.432s" fill="freeze" begin="0s;5e38.click" /></path><path d="M38.1,42.57c4.63-0.47,22.22-2.74,28.8-3.53c3.07-0.37,4.12,0.42,3.09,3.5c-1.01,3.01-2.72,8.01-3.87,10.77" stroke-dasharray="46.863" stroke-dashoffset="46.863"><animate attributeName="stroke-dashoffset" values="46.863" fill="freeze" begin="5e38.click" /><animate attributeName="stroke-dashoffset" values="46.863;46.863;0" keyTimes="0;0.753;1" dur="1.901s" fill="freeze" begin="0s;5e38.click" /></path><path d="M40.94,55.96c5.19-0.57,15.05-1.47,22.3-2.01c1.91-0.14,3.63-0.26,5.05-0.34" stroke-dasharray="27.454" stroke-dashoffset="27.454"><animate attributeName="stroke-dashoffset" values="27.454" fill="freeze" begin="5e38.click" /><animate attributeName="stroke-dashoffset" values="27.454;27.454;0" keyTimes="0;0.874;1" dur="2.176s" fill="freeze" begin="0s;5e38.click" /></path><path d="M29.06,68.13c0.97,0.97,1.56,2.5,1.88,4.36c0.1,0.58,0.29,8.75,0.32,14.76c0.01,1.95,0,3.67-0.03,4.84" stroke-dasharray="24.427" stroke-dashoffset="24.427"><animate attributeName="stroke-dashoffset" values="24.427" fill="freeze" begin="5e38.click" /><animate attributeName="stroke-dashoffset" values="24.427;24.427;0" keyTimes="0;0.899;1" dur="2.42s" fill="freeze" begin="0s;5e38.click" /></path><path d="M31.27,70.28c5.48-0.53,36.73-4.03,44.27-4.58c3.36-0.25,3.88,2.93,3.97,4.58c0.25,4.47,0,12.97-0.94,16.73c-1.46,5.84-5.04,0.81-6.66-1.21" stroke-dasharray="78.114" stroke-dashoffset="78.114"><animate attributeName="stroke-dashoffset" values="78.114" fill="freeze" begin="5e38.click" /><animate attributeName="stroke-dashoffset" values="78.114;78.114;0" keyTimes="0;0.805;1" dur="3.007s" fill="freeze" begin="0s;5e38.click" /></path><path d="M53,57.02c0.93,0.93,1.31,2.73,1.31,4.57c0,5.73-0.11,19.29-0.11,33.16c0,3.05-0.04,5.33-0.07,6.24" stroke-dasharray="44.265" stroke-dashoffset="44.265"><animate attributeName="stroke-dashoffset" values="44.265" fill="freeze" begin="5e38.click" /><animate attributeName="stroke-dashoffset" values="44.265;44.265;0" keyTimes="0;0.872;1" dur="3.45s" fill="freeze" begin="0s;5e38.click" /></path></g></svg>