<svg xmlns="http://www.w3.org/2000/svg" width="109" height="109" viewBox="0 0 109 109" id="5e44"><g fill="none" stroke="#666" stroke-width="9" stroke-linecap="round" stroke-linejoin="round"><g><g><path d="M12.74,35.16c0.37,0.44,1.15,3.26,1.22,4.13c0.3,3.45,1.68,32.46,1.6,37.89" /><path d="M13.86,37.42c2.12-0.3,22.08-4.06,23.67-4.24c1.86-0.22,3.03,1.52,3.06,3.48c0.14,9.91-1.01,24.03-2.1,33.7c-0.78,6.95-4.66,1.59-5.55-0.81" /><path d="M24.5,12.63c0.61,0.42,1.89,3.18,2.01,4.03c0.12,0.85-0.08,74.16-0.2,79.47" /></g><g><g><path d="M49.76,16.77c1.31,0.57,3.85,1.07,5.24,0.96c7.5-0.63,30.8-3.08,33.81-3.31c1.49-0.11,2.14,0.4,2.14,2.1c0,1.85-1.14,5.7-2.46,12.69" /><path d="M54.01,32.92c3.76-0.19,32.65-3.31,36.57-3.5" /><path d="M53.65,17.71c0,3.95-0.33,12.64-0.49,16.34C52.39,52.5,49.86,72.85,40.2,90.1" /></g><g><path d="M55.91,43.1c0.69,0.3,1.95,0.32,2.64,0.3c9.11-0.35,22.01-3.15,32.27-3.84c1.15-0.08,1.83,0.14,2.41,0.29" /><path d="M68.2,45.41c0.4,0.41,0,2.26-0.26,2.76c-1.94,3.58-4.99,7.58-9.2,11.05c-1.76,1.45-1.17,2.99,1.34,2.48c5.85-1.19,17.13-4.38,26.36-6.34" /><path d="M80.47,49.02c3.63,2.4,9.37,9.88,10.28,13.61" /><g><path d="M55.16,77.02c0.78,0.29,2.2,0.35,2.97,0.29c6.75-0.52,23.87-2.73,31.13-2.73c1.29,0,2.07,0.13,2.71,0.28" /><path d="M72.04,64.78c0.08,0.17,1.1,2.45,1.08,3.52C73,74.37,73,89.6,73,91.33" /><path d="M48.25,92.23c1.03,0.34,2.92,0.32,3.94,0.34c9.06,0.18,21.84-2.21,41.54-2.3c1.72-0.01,2.74,0.16,3.6,0.33" /></g></g></g></g></g><g fill="none" stroke="#000" stroke-width="5" stroke-linecap="round" stroke-linejoin="round"><g><g><path d="M12.74,35.16c0.37,0.44,1.15,3.26,1.22,4.13c0.3,3.45,1.68,32.46,1.6,37.89" stroke-dasharray="42.255" stroke-dashoffset="42.255"><animate attributeName="stroke-dashoffset" values="42.255;42.255;0" dur="0.423s" fill="freeze" begin="0s;5e44.click" /></path><path d="M13.86,37.42c2.12-0.3,22.08-4.06,23.67-4.24c1.86-0.22,3.03,1.52,3.06,3.48c0.14,9.91-1.01,24.03-2.1,33.7c-0.78,6.95-4.66,1.59-5.55-0.81" stroke-dasharray="73.156" stroke-dashoffset="73.156"><animate attributeName="stroke-dashoffset" values="73.156" fill="freeze" begin="5e44.click" /><animate attributeName="stroke-dashoffset" values="73.156;73.156;0" keyTimes="0;0.435;1" dur="0.973s" fill="freeze" begin="0s;5e44.click" /></path><path d="M24.5,12.63c0.61,0.42,1.89,3.18,2.01,4.03c0.12,0.85-0.08,74.16-0.2,79.47" stroke-dasharray="84.02" stroke-dashoffset="84.02"><animate attributeName="stroke-dashoffset" values="84.02" fill="freeze" begin="5e44.click" /><animate attributeName="stroke-dashoffset" values="84.02;84.02;0" keyTimes="0;0.606;1" dur="1.605s" fill="freeze" begin="0s;5e44.click" /></path></g><g><g><path d="M49.76,16.77c1.31,0.57,3.85,1.07,5.24,0.96c7.5-0.63,30.8-3.08,33.81-3.31c1.49-0.11,2.14,0.4,2.14,2.1c0,1.85-1.14,5.7-2.46,12.69" stroke-dasharray="55.844" stroke-dashoffset="55.844"><animate attributeName="stroke-dashoffset" values="55.844" fill="freeze" begin="5e44.click" /><animate attributeName="stroke-dashoffset" values="55.844;55.844;0" keyTimes="0;0.742;1" dur="2.163s" fill="freeze" begin="0s;5e44.click" /></path><path d="M54.01,32.92c3.76-0.19,32.65-3.31,36.57-3.5" stroke-dasharray="36.739" stroke-dashoffset="36.739"><animate attributeName="stroke-dashoffset" values="36.739" fill="freeze" begin="5e44.click" /><animate attributeName="stroke-dashoffset" values="36.739;36.739;0" keyTimes="0;0.855;1" dur="2.53s" fill="freeze" begin="0s;5e44.click" /></path><path d="M53.65,17.71c0,3.95-0.33,12.64-0.49,16.34C52.39,52.5,49.86,72.85,40.2,90.1" stroke-dasharray="74.415" stroke-dashoffset="74.415"><animate attributeName="stroke-dashoffset" values="74.415" fill="freeze" begin="5e44.click" /><animate attributeName="stroke-dashoffset" values="74.415;74.415;0" keyTimes="0;0.819;1" dur="3.09s" fill="freeze" begin="0s;5e44.click" /></path></g><g><path d="M55.91,43.1c0.69,0.3,1.95,0.32,2.64,0.3c9.11-0.35,22.01-3.15,32.27-3.84c1.15-0.08,1.83,0.14,2.41,0.29" stroke-dasharray="37.626" stroke-dashoffset="37.626"><animate attributeName="stroke-dashoffset" values="37.626" fill="freeze" begin="5e44.click" /><animate attributeName="stroke-dashoffset" values="37.626;37.626;0" keyTimes="0;0.892;1" dur="3.466s" fill="freeze" begin="0s;5e44.click" /></path><path d="M68.2,45.41c0.4,0.41,0,2.26-0.26,2.76c-1.94,3.58-4.99,7.58-9.2,11.05c-1.76,1.45-1.17,2.99,1.34,2.48c5.85-1.19,17.13-4.38,26.36-6.34" stroke-dasharray="49.255" stroke-dashoffset="49.255"><animate attributeName="stroke-dashoffset" values="49.255" fill="freeze" begin="5e44.click" /><animate attributeName="stroke-dashoffset" values="49.255;49.255;0" keyTimes="0;0.875;1" dur="3.959s" fill="freeze" begin="0s;5e44.click" /></path><path d="M80.47,49.02c3.63,2.4,9.37,9.88,10.28,13.61" stroke-dasharray="17.283" stroke-dashoffset="17.283"><animate attributeName="stroke-dashoffset" values="17.283" fill="freeze" begin="5e44.click" /><animate attributeName="stroke-dashoffset" values="17.283;17.283;0" keyTimes="0;0.958;1" dur="4.132s" fill="freeze" begin="0s;5e44.click" /></path><g><path d="M55.16,77.02c0.78,0.29,2.2,0.35,2.97,0.29c6.75-0.52,23.87-2.73,31.13-2.73c1.29,0,2.07,0.13,2.71,0.28" stroke-dasharray="36.991" stroke-dashoffset="36.991"><animate attributeName="stroke-dashoffset" values="36.991" fill="freeze" begin="5e44.click" /><animate attributeName="stroke-dashoffset" values="36.991;36.991;0" keyTimes="0;0.918;1" dur="4.502s" fill="freeze" begin="0s;5e44.click" /></path><path d="M72.04,64.78c0.08,0.17,1.1,2.45,1.08,3.52C73,74.37,73,89.6,73,91.33" stroke-dasharray="26.734" stroke-dashoffset="26.734"><animate attributeName="stroke-dashoffset" values="26.734" fill="freeze" begin="5e44.click" /><animate attributeName="stroke-dashoffset" values="26.734;26.734;0" keyTimes="0;0.944;1" dur="4.769s" fill="freeze" begin="0s;5e44.click" /></path><path d="M48.25,92.23c1.03,0.34,2.92,0.32,3.94,0.34c9.06,0.18,21.84-2.21,41.54-2.3c1.72-0.01,2.74,0.16,3.6,0.33" stroke-dasharray="49.21" stroke-dashoffset="49.21"><animate attributeName="stroke-dashoffset" values="49.21" fill="freeze" begin="5e44.click" /><animate attributeName="stroke-dashoffset" values="49.21;49.21;0" keyTimes="0;0.906;1" dur="5.261s" fill="freeze" begin="0s;5e44.click" /></path></g></g></g></g></g></svg>