<svg xmlns="http://www.w3.org/2000/svg" viewBox="0 0 109 109" id="5e84"><g fill="none" stroke="#666" stroke-width="6" stroke-linecap="round" stroke-linejoin="round"><g><g><path d="M58.81,13.38c1.09,1.09,1.26,2.37,1.26,3.9c0,0.79-0.07,5.46-0.07,10.21" /><g><path d="M28.63,30.48c2.92,1.15,6.59,0.47,9.62,0.23c12.9-1.03,29.32-3.1,44.63-3.59c2.86-0.09,5.7-0.21,8.5,0.45" /><path d="M30.48,32c0.95,0.95,0.73,2.49,0.63,4.45c-0.74,14.17-3.24,37.05-20.06,53.52" /></g></g><g><path d="M41.71,62.81c1.98,0.77,5.02,0.68,7.04,0.51c9.7-0.82,22.04-2.14,31.24-2.56c1.78-0.08,3.86,0.07,5.58,0.47" /><path d="M60.67,38.37c1.11,1.1,1.27,2.27,1.27,4.14c0,12-0.07,29.63-0.07,45.5" /><path d="M30.15,90.06c2.96,1.05,6.52,0.83,9.6,0.59c13.74-1.05,31.97-2.2,44.88-2.84c3.38-0.17,6.68,0,9.98,0.71" /></g></g></g><g fill="none" stroke="#000" stroke-width="3" stroke-linecap="round" stroke-linejoin="round"><path d="M58.81,13.38c1.09,1.09,1.26,2.37,1.26,3.9c0,0.79-0.07,5.46-0.07,10.21" stroke-dasharray="14.434" stroke-dashoffset="14.434"><animate attributeName="stroke-dashoffset" values="14.434;14.434;0" dur="0.289s" fill="freeze" begin="0s;5e84.click" /></path><path d="M28.63,30.48c2.92,1.15,6.59,0.47,9.62,0.23c12.9-1.03,29.32-3.1,44.63-3.59c2.86-0.09,5.7-0.21,8.5,0.45" stroke-dasharray="63.035" stroke-dashoffset="63.035"><animate attributeName="stroke-dashoffset" values="63.035" fill="freeze" begin="5e84.click" /><animate attributeName="stroke-dashoffset" values="63.035;63.035;0" keyTimes="0;0.379;1" dur="0.763s" fill="freeze" begin="0s;5e84.click" /></path><path d="M30.48,32c0.95,0.95,0.73,2.49,0.63,4.45c-0.74,14.17-3.24,37.05-20.06,53.52" stroke-dasharray="63.205" stroke-dashoffset="63.205"><animate attributeName="stroke-dashoffset" values="63.205" fill="freeze" begin="5e84.click" /><animate attributeName="stroke-dashoffset" values="63.205;63.205;0" keyTimes="0;0.616;1" dur="1.238s" fill="freeze" begin="0s;5e84.click" /></path><path d="M41.71,62.81c1.98,0.77,5.02,0.68,7.04,0.51c9.7-0.82,22.04-2.14,31.24-2.56c1.78-0.08,3.86,0.07,5.58,0.47" stroke-dasharray="44.075" stroke-dashoffset="44.075"><animate attributeName="stroke-dashoffset" values="44.075" fill="freeze" begin="5e84.click" /><animate attributeName="stroke-dashoffset" values="44.075;44.075;0" keyTimes="0;0.737;1" dur="1.679s" fill="freeze" begin="0s;5e84.click" /></path><path d="M60.67,38.37c1.11,1.1,1.27,2.27,1.27,4.14c0,12-0.07,29.63-0.07,45.5" stroke-dasharray="49.971" stroke-dashoffset="49.971"><animate attributeName="stroke-dashoffset" values="49.971" fill="freeze" begin="5e84.click" /><animate attributeName="stroke-dashoffset" values="49.971;49.971;0" keyTimes="0;0.771;1" dur="2.179s" fill="freeze" begin="0s;5e84.click" /></path><path d="M30.15,90.06c2.96,1.05,6.52,0.83,9.6,0.59c13.74-1.05,31.97-2.2,44.88-2.84c3.38-0.17,6.68,0,9.98,0.71" stroke-dasharray="64.695" stroke-dashoffset="64.695"><animate attributeName="stroke-dashoffset" values="64.695" fill="freeze" begin="5e84.click" /><animate attributeName="stroke-dashoffset" values="64.695;64.695;0" keyTimes="0;0.818;1" dur="2.665s" fill="freeze" begin="0s;5e84.click" /></path></g></svg>