<svg xmlns="http://www.w3.org/2000/svg" width="109" height="109" viewBox="0 0 109 109" id="5ed3"><g fill="none" stroke="#666" stroke-width="9" stroke-linecap="round" stroke-linejoin="round"><g><g><path d="M55.31,12.63c0.97,0.97,1.51,2.24,1.51,3.65c0,0.79-0.07,3.09-0.07,6.46" /><g><path d="M24.38,25.48c3.07,0.59,6.39,0.6,9.49,0.33c16.25-1.43,32.51-3.15,46.88-4.03c3.22-0.4,6.43-0.3,9.63,0.3" /><path d="M25.99,26.25c1.07,1.07,1.23,2.99,1.15,5.21c-0.89,24.91-4.51,43.91-17.58,58.5" /></g></g><g><g><g><path d="M48.21,30.25c1.02,1.02,1.12,2.12,1.12,2.99c0,2.93-0.09,3.51-0.09,5.3" /><path d="M32.3,40.57c1.95,0.58,3.94,0.7,5.96,0.37c5.6-0.57,14.83-1.67,20.86-2.18c1.8-0.01,3.6,0.01,5.4,0.06" /></g><g><g><path d="M37.71,47.78c0.75,0.75,1.09,1.6,1.26,2.48c0.44,2.29,0.67,3.46,0.92,4.63c0.19,0.93,0.4,1.86,0.72,3.34" /><path d="M38.89,48.42c5.09-0.7,13.87-2.12,17.75-2.57c1.82-0.21,2.72,0.81,2.3,2.55c-0.43,1.83-1.07,3.86-1.61,5.56" /><path d="M41.38,57.12c2.56-0.22,8.58-1.15,13.25-1.72c1.55-0.19,2.95-0.34,4.02-0.41" /></g><g><path d="M35.67,65.15c2.08,0.6,3.41,0.39,5.71,0.14c5.06-0.76,13.86-2.17,16.76-2.62c1.25-0.19,1.92,0.86,0.66,1.8c-1.52,1.14-6.54,4.23-10.95,7.71" /><path d="M48.07,72.41c3.21,2.95,7.59,12.65,3.57,21.29c-2.38,5.11-5.64,1.05-7.67-1.07" /><path d="M30.88,83.09c0.64,1.12,2.8,0.59,3.89,0.18c6.41-2.4,16.43-5.75,26.07-9.25" /></g></g></g><g><path d="M68.35,33.4c1.75,0.75,4.02,0.73,5.24,0.52c4.73-0.84,7.54-1.16,12.86-2.31c2.81-0.61,3.92,1.82,2.71,3.99c-1.21,2.17-7.35,12.19-9.47,15.29" /><path d="M79.05,50.87c17.7,10.38,13.28,44.76,1.92,31.27" /><path d="M70.1,34.15c1.07,1.07,1.49,2.23,1.49,3.65c0,2.96-0.1,35.19-0.15,51.95c-0.01,4.46-0.02,7.83-0.02,9.25" /></g></g></g></g><g fill="none" stroke="#000" stroke-width="5" stroke-linecap="round" stroke-linejoin="round"><g><g><path d="M55.31,12.63c0.97,0.97,1.51,2.24,1.51,3.65c0,0.79-0.07,3.09-0.07,6.46" stroke-dasharray="10.52" stroke-dashoffset="10.52"><animate id="0" attributeName="stroke-dashoffset" values="10.52;0" dur="0.11s" fill="freeze" begin="0s;5ed3.click" /></path><g><path d="M24.38,25.48c3.07,0.59,6.39,0.6,9.49,0.33c16.25-1.43,32.51-3.15,46.88-4.03c3.22-0.4,6.43-0.3,9.63,0.3" stroke-dasharray="66.25" stroke-dashoffset="66.25"><animate attributeName="stroke-dashoffset" values="66.25" fill="freeze" begin="5ed3.click" /><animate id="1" attributeName="stroke-dashoffset" values="66.25;0" dur="0.5s" fill="freeze" begin="0.end" /></path><path d="M25.99,26.25c1.07,1.07,1.23,2.99,1.15,5.21c-0.89,24.91-4.51,43.91-17.58,58.5" stroke-dasharray="67.89" stroke-dashoffset="67.89"><animate attributeName="stroke-dashoffset" values="67.89" fill="freeze" begin="5ed3.click" /><animate id="2" attributeName="stroke-dashoffset" values="67.89;0" dur="0.51s" fill="freeze" begin="1.end" /></path></g></g><g><g><g><path d="M48.21,30.25c1.02,1.02,1.12,2.12,1.12,2.99c0,2.93-0.09,3.51-0.09,5.3" stroke-dasharray="8.59" stroke-dashoffset="8.59"><animate attributeName="stroke-dashoffset" values="8.59" fill="freeze" begin="5ed3.click" /><animate id="3" attributeName="stroke-dashoffset" values="8.59;0" dur="0.09s" fill="freeze" begin="2.end" /></path><path d="M32.3,40.57c1.95,0.58,3.94,0.7,5.96,0.37c5.6-0.57,14.83-1.67,20.86-2.18c1.8-0.01,3.6,0.01,5.4,0.06" stroke-dasharray="32.4" stroke-dashoffset="32.4"><animate attributeName="stroke-dashoffset" values="32.4" fill="freeze" begin="5ed3.click" /><animate id="4" attributeName="stroke-dashoffset" values="32.4;0" dur="0.32s" fill="freeze" begin="3.end" /></path></g><g><g><path d="M37.71,47.78c0.75,0.75,1.09,1.6,1.26,2.48c0.44,2.29,0.67,3.46,0.92,4.63c0.19,0.93,0.4,1.86,0.72,3.34" stroke-dasharray="10.96" stroke-dashoffset="10.96"><animate attributeName="stroke-dashoffset" values="10.96" fill="freeze" begin="5ed3.click" /><animate id="5" attributeName="stroke-dashoffset" values="10.96;0" dur="0.11s" fill="freeze" begin="4.end" /></path><path d="M38.89,48.42c5.09-0.7,13.87-2.12,17.75-2.57c1.82-0.21,2.72,0.81,2.3,2.55c-0.43,1.83-1.07,3.86-1.61,5.56" stroke-dasharray="27.98" stroke-dashoffset="27.98"><animate attributeName="stroke-dashoffset" values="27.98" fill="freeze" begin="5ed3.click" /><animate id="6" attributeName="stroke-dashoffset" values="27.98;0" dur="0.28s" fill="freeze" begin="5.end" /></path><path d="M41.38,57.12c2.56-0.22,8.58-1.15,13.25-1.72c1.55-0.19,2.95-0.34,4.02-0.41" stroke-dasharray="17.4" stroke-dashoffset="17.4"><animate attributeName="stroke-dashoffset" values="17.4" fill="freeze" begin="5ed3.click" /><animate id="7" attributeName="stroke-dashoffset" values="17.4;0" dur="0.17s" fill="freeze" begin="6.end" /></path></g><g><path d="M35.67,65.15c2.08,0.6,3.41,0.39,5.71,0.14c5.06-0.76,13.86-2.17,16.76-2.62c1.25-0.19,1.92,0.86,0.66,1.8c-1.52,1.14-6.54,4.23-10.95,7.71" stroke-dasharray="39.15" stroke-dashoffset="39.15"><animate attributeName="stroke-dashoffset" values="39.15" fill="freeze" begin="5ed3.click" /><animate id="8" attributeName="stroke-dashoffset" values="39.15;0" dur="0.39s" fill="freeze" begin="7.end" /></path><path d="M48.07,72.41c3.21,2.95,7.59,12.65,3.57,21.29c-2.38,5.11-5.64,1.05-7.67-1.07" stroke-dasharray="32.93" stroke-dashoffset="32.93"><animate attributeName="stroke-dashoffset" values="32.93" fill="freeze" begin="5ed3.click" /><animate id="9" attributeName="stroke-dashoffset" values="32.93;0" dur="0.33s" fill="freeze" begin="8.end" /></path><path d="M30.88,83.09c0.64,1.12,2.8,0.59,3.89,0.18c6.41-2.4,16.43-5.75,26.07-9.25" stroke-dasharray="31.84" stroke-dashoffset="31.84"><animate attributeName="stroke-dashoffset" values="31.84" fill="freeze" begin="5ed3.click" /><animate id="10" attributeName="stroke-dashoffset" values="31.84;0" dur="0.32s" fill="freeze" begin="9.end" /></path></g></g></g><g><path d="M68.35,33.4c1.75,0.75,4.02,0.73,5.24,0.52c4.73-0.84,7.54-1.16,12.86-2.31c2.81-0.61,3.92,1.82,2.71,3.99c-1.21,2.17-7.35,12.19-9.47,15.29" stroke-dasharray="42.8" stroke-dashoffset="42.8"><animate attributeName="stroke-dashoffset" values="42.8" fill="freeze" begin="5ed3.click" /><animate id="11" attributeName="stroke-dashoffset" values="42.8;0" dur="0.43s" fill="freeze" begin="10.end" /></path><path d="M79.05,50.87c17.7,10.38,13.28,44.76,1.92,31.27" stroke-dasharray="46.5" stroke-dashoffset="46.5"><animate attributeName="stroke-dashoffset" values="46.5" fill="freeze" begin="5ed3.click" /><animate id="12" attributeName="stroke-dashoffset" values="46.5;0" dur="0.46s" fill="freeze" begin="11.end" /></path><path d="M70.1,34.15c1.07,1.07,1.49,2.23,1.49,3.65c0,2.96-0.1,35.19-0.15,51.95c-0.01,4.46-0.02,7.83-0.02,9.25" stroke-dasharray="65.26" stroke-dashoffset="65.26"><animate attributeName="stroke-dashoffset" values="65.26" fill="freeze" begin="5ed3.click" /><animate id="13" attributeName="stroke-dashoffset" values="65.26;0" dur="0.49s" fill="freeze" begin="12.end" /></path></g></g></g></g></svg>