<svg xmlns="http://www.w3.org/2000/svg" width="109" height="109" viewBox="0 0 109 109" id="5ef3"><g fill="none" stroke="#666" stroke-width="9" stroke-linecap="round" stroke-linejoin="round"><g><g><path d="M51.46,10.88c0.67,0.34,2.09,2.55,2.23,3.23c0.14,0.68,0.07,4.12-0.07,8.38" /><g><path d="M19.63,24.48c1.52,0.54,4.3,0.63,5.82,0.54c15.8-0.91,38.3-4.02,58.11-4.23c2.53-0.03,4.05,0.26,5.31,0.53" /><path d="M24.5,25.25c0.04,1.56,0.09,4.02-0.08,6.26c-1.02,13.2-3.33,45.23-14.35,59.46" /></g></g><g><g><g><path d="M27.55,34.95c0.62,0.34,1.76,0.38,2.39,0.34c4.94-0.32,11.26-2.61,18.59-3.2c1.04-0.08,2.16,0.16,2.68,0.33" /><path d="M32.39,36.42c0.2,0.94,0.81,1.86,0.81,2.97c0,1.11-0.1,19.09-0.1,23.07" /><path d="M33.48,44.23c3.94-0.6,7.41-0.79,12.57-1.46" /><path d="M33.69,52.59c4.76-0.96,6.66-0.96,12.47-1.64" /><path d="M27.95,63.37c0.51,0.22,2.42,0.74,2.86,0.61c3.44-0.98,12.67-3.5,15.3-4.5" /><path d="M45.65,35.17c0.63,1,0.7,1.17,0.7,2.27c0,1.24,0.1,50.48,0.1,59.57" /></g><g p6:partial xmlns:p6="http://kanjivg.tagaini.net"><path d="M26.33,71.05c0.28,0.15,1.82,0.18,2.11,0.14c1.33-0.2,7.25-1.34,10.45-1.56c0.44-0.03,1.25-0.11,1.61,0.02" /><path d="M33.16,72.23c0.39,0.32,0.67,1,0.67,1.26c0,2.15,0.23,13.6,0.16,15.03" /><path d="M26.79,80.32c0.25,0.15,2.02,0.17,2.27,0.13c1.47-0.19,6.99-1.81,9.02-2.02c0.31-0.03,1.46-0.06,1.92,0.07" /><path d="M25.04,92.29c0.33,0.11,1.66,0.96,2.17,0.75c3.26-1.38,7.91-3.37,12.87-5.75" /></g></g><g><g><path d="M56.16,35.16c0.72,0.25,2.05,0.31,2.77,0.25c9.18-0.82,19.11-3.18,25.44-3.28c1.2-0.02,1.93,0.12,2.53,0.24" /><path d="M68.07,26.88c0.33,0.26,1.03,1.91,1.09,2.42c0.07,0.51-0.04,10.94-0.11,14.13" /></g><g><path d="M55.49,44.69c0.16,0.26,0.33,0.47,0.4,0.8c0.56,2.57,2.37,9.24,2.75,13.86" /><path d="M56.5,45.57c3.57-1.01,27.69-4.11,29.58-4.45c0.69-0.12,1.63,0.87,1.45,2.31c-0.39,3.02-1.72,8.62-2.75,12.93" /><path d="M65.91,44.14c0.11,1.71,0.87,10.07,0.98,11.99" /><path d="M75.79,43.07c-0.11,2.78-0.66,10.07-0.87,11.78" /><path d="M59.16,57.52c2.23-0.38,22.82-2.76,25.88-3.34" /></g><path d="M56.05,66.59c0.91,0.11,2.7,0.73,4.3,0.48c6.91-1.11,20.08-3.47,25.04-3.97c1.4-0.14,2.7,0.18,3.4,0.37" /><g><path d="M57.34,81.01c0.22,1.56-2.17,8.46-3.9,11.07" /><path d="M61.75,75.35c4.09,10.17,8.65,18.62,22.15,19.7c6.38,0.51,6.82-2.79,1.48-7.56" /><path d="M71.93,74.65c1.16,3.66,3.75,6.38,4.92,2.51" /><path d="M86.48,71.75c3.61,2.06,6.32,3.94,9.25,10.32" /></g></g></g></g></g><g fill="none" stroke="#000" stroke-width="5" stroke-linecap="round" stroke-linejoin="round"><path d="M51.46,10.88c0.67,0.34,2.09,2.55,2.23,3.23c0.14,0.68,0.07,4.12-0.07,8.38" stroke-dasharray="12.361" stroke-dashoffset="12.361"><animate attributeName="stroke-dashoffset" values="12.361;12.361;0" dur="0.124s" fill="freeze" begin="0s;5ef3.click" /></path><path d="M19.63,24.48c1.52,0.54,4.3,0.63,5.82,0.54c15.8-0.91,38.3-4.02,58.11-4.23c2.53-0.03,4.05,0.26,5.31,0.53" stroke-dasharray="69.502" stroke-dashoffset="69.502"><animate attributeName="stroke-dashoffset" values="69.502" fill="freeze" begin="5ef3.click" /><animate attributeName="stroke-dashoffset" values="69.502;69.502;0" keyTimes="0;0.192;1" dur="0.647s" fill="freeze" begin="0s;5ef3.click" /></path><path d="M24.5,25.25c0.04,1.56,0.09,4.02-0.08,6.26c-1.02,13.2-3.33,45.23-14.35,59.46" stroke-dasharray="68.133" stroke-dashoffset="68.133"><animate attributeName="stroke-dashoffset" values="68.133" fill="freeze" begin="5ef3.click" /><animate attributeName="stroke-dashoffset" values="68.133;68.133;0" keyTimes="0;0.558;1" dur="1.159s" fill="freeze" begin="0s;5ef3.click" /></path><path d="M27.55,34.95c0.62,0.34,1.76,0.38,2.39,0.34c4.94-0.32,11.26-2.61,18.59-3.2c1.04-0.08,2.16,0.16,2.68,0.33" stroke-dasharray="24.036" stroke-dashoffset="24.036"><animate attributeName="stroke-dashoffset" values="24.036" fill="freeze" begin="5ef3.click" /><animate attributeName="stroke-dashoffset" values="24.036;24.036;0" keyTimes="0;0.828;1" dur="1.399s" fill="freeze" begin="0s;5ef3.click" /></path><path d="M32.39,36.42c0.2,0.94,0.81,1.86,0.81,2.97c0,1.11-0.1,19.09-0.1,23.07" stroke-dasharray="26.165" stroke-dashoffset="26.165"><animate attributeName="stroke-dashoffset" values="26.165" fill="freeze" begin="5ef3.click" /><animate attributeName="stroke-dashoffset" values="26.165;26.165;0" keyTimes="0;0.842;1" dur="1.661s" fill="freeze" begin="0s;5ef3.click" /></path><path d="M33.48,44.23c3.94-0.6,7.41-0.79,12.57-1.46" stroke-dasharray="12.656" stroke-dashoffset="12.656"><animate attributeName="stroke-dashoffset" values="12.656" fill="freeze" begin="5ef3.click" /><animate attributeName="stroke-dashoffset" values="12.656;12.656;0" keyTimes="0;0.929;1" dur="1.788s" fill="freeze" begin="0s;5ef3.click" /></path><path d="M33.69,52.59c4.76-0.96,6.66-0.96,12.47-1.64" stroke-dasharray="12.584" stroke-dashoffset="12.584"><animate attributeName="stroke-dashoffset" values="12.584" fill="freeze" begin="5ef3.click" /><animate attributeName="stroke-dashoffset" values="12.584;12.584;0" keyTimes="0;0.934;1" dur="1.914s" fill="freeze" begin="0s;5ef3.click" /></path><path d="M27.95,63.37c0.51,0.22,2.42,0.74,2.86,0.61c3.44-0.98,12.67-3.5,15.3-4.5" stroke-dasharray="18.896" stroke-dashoffset="18.896"><animate attributeName="stroke-dashoffset" values="18.896" fill="freeze" begin="5ef3.click" /><animate attributeName="stroke-dashoffset" values="18.896;18.896;0" keyTimes="0;0.91;1" dur="2.103s" fill="freeze" begin="0s;5ef3.click" /></path><path d="M45.65,35.17c0.63,1,0.7,1.17,0.7,2.27c0,1.24,0.1,50.48,0.1,59.57" stroke-dasharray="62.001" stroke-dashoffset="62.001"><animate attributeName="stroke-dashoffset" values="62.001" fill="freeze" begin="5ef3.click" /><animate attributeName="stroke-dashoffset" values="62.001;62.001;0" keyTimes="0;0.819;1" dur="2.569s" fill="freeze" begin="0s;5ef3.click" /></path><path d="M26.33,71.05c0.28,0.15,1.82,0.18,2.11,0.14c1.33-0.2,7.25-1.34,10.45-1.56c0.44-0.03,1.25-0.11,1.61,0.02" stroke-dasharray="14.313" stroke-dashoffset="14.313"><animate attributeName="stroke-dashoffset" values="14.313" fill="freeze" begin="5ef3.click" /><animate attributeName="stroke-dashoffset" values="14.313;14.313;0" keyTimes="0;0.947;1" dur="2.712s" fill="freeze" begin="0s;5ef3.click" /></path><path d="M33.16,72.23c0.39,0.32,0.67,1,0.67,1.26c0,2.15,0.23,13.6,0.16,15.03" stroke-dasharray="16.489" stroke-dashoffset="16.489"><animate attributeName="stroke-dashoffset" values="16.489" fill="freeze" begin="5ef3.click" /><animate attributeName="stroke-dashoffset" values="16.489;16.489;0" keyTimes="0;0.943;1" dur="2.877s" fill="freeze" begin="0s;5ef3.click" /></path><path d="M26.79,80.32c0.25,0.15,2.02,0.17,2.27,0.13c1.47-0.19,6.99-1.81,9.02-2.02c0.31-0.03,1.46-0.06,1.92,0.07" stroke-dasharray="13.46" stroke-dashoffset="13.46"><animate attributeName="stroke-dashoffset" values="13.46" fill="freeze" begin="5ef3.click" /><animate attributeName="stroke-dashoffset" values="13.46;13.46;0" keyTimes="0;0.955;1" dur="3.012s" fill="freeze" begin="0s;5ef3.click" /></path><path d="M25.04,92.29c0.33,0.11,1.66,0.96,2.17,0.75c3.26-1.38,7.91-3.37,12.87-5.75" stroke-dasharray="16.436" stroke-dashoffset="16.436"><animate attributeName="stroke-dashoffset" values="16.436" fill="freeze" begin="5ef3.click" /><animate attributeName="stroke-dashoffset" values="16.436;16.436;0" keyTimes="0;0.948;1" dur="3.176s" fill="freeze" begin="0s;5ef3.click" /></path><path d="M56.16,35.16c0.72,0.25,2.05,0.31,2.77,0.25c9.18-0.82,19.11-3.18,25.44-3.28c1.2-0.02,1.93,0.12,2.53,0.24" stroke-dasharray="31.008" stroke-dashoffset="31.008"><animate attributeName="stroke-dashoffset" values="31.008" fill="freeze" begin="5ef3.click" /><animate attributeName="stroke-dashoffset" values="31.008;31.008;0" keyTimes="0;0.911;1" dur="3.486s" fill="freeze" begin="0s;5ef3.click" /></path><path d="M68.07,26.88c0.33,0.26,1.03,1.91,1.09,2.42c0.07,0.51-0.04,10.94-0.11,14.13" stroke-dasharray="16.81" stroke-dashoffset="16.81"><animate attributeName="stroke-dashoffset" values="16.81" fill="freeze" begin="5ef3.click" /><animate attributeName="stroke-dashoffset" values="16.81;16.81;0" keyTimes="0;0.954;1" dur="3.654s" fill="freeze" begin="0s;5ef3.click" /></path><path d="M55.49,44.69c0.16,0.26,0.33,0.47,0.4,0.8c0.56,2.57,2.37,9.24,2.75,13.86" stroke-dasharray="15.044" stroke-dashoffset="15.044"><animate attributeName="stroke-dashoffset" values="15.044" fill="freeze" begin="5ef3.click" /><animate attributeName="stroke-dashoffset" values="15.044;15.044;0" keyTimes="0;0.961;1" dur="3.804s" fill="freeze" begin="0s;5ef3.click" /></path><path d="M56.5,45.57c3.57-1.01,27.69-4.11,29.58-4.45c0.69-0.12,1.63,0.87,1.45,2.31c-0.39,3.02-1.72,8.62-2.75,12.93" stroke-dasharray="46.228" stroke-dashoffset="46.228"><animate attributeName="stroke-dashoffset" values="46.228" fill="freeze" begin="5ef3.click" /><animate attributeName="stroke-dashoffset" values="46.228;46.228;0" keyTimes="0;0.892;1" dur="4.266s" fill="freeze" begin="0s;5ef3.click" /></path><path d="M65.91,44.14c0.11,1.71,0.87,10.07,0.98,11.99" stroke-dasharray="12.031" stroke-dashoffset="12.031"><animate attributeName="stroke-dashoffset" values="12.031" fill="freeze" begin="5ef3.click" /><animate attributeName="stroke-dashoffset" values="12.031;12.031;0" keyTimes="0;0.973;1" dur="4.386s" fill="freeze" begin="0s;5ef3.click" /></path><path d="M75.79,43.07c-0.11,2.78-0.66,10.07-0.87,11.78" stroke-dasharray="11.814" stroke-dashoffset="11.814"><animate attributeName="stroke-dashoffset" values="11.814" fill="freeze" begin="5ef3.click" /><animate attributeName="stroke-dashoffset" values="11.814;11.814;0" keyTimes="0;0.974;1" dur="4.504s" fill="freeze" begin="0s;5ef3.click" /></path><path d="M59.16,57.52c2.23-0.38,22.82-2.76,25.88-3.34" stroke-dasharray="26.097" stroke-dashoffset="26.097"><animate attributeName="stroke-dashoffset" values="26.097" fill="freeze" begin="5ef3.click" /><animate attributeName="stroke-dashoffset" values="26.097;26.097;0" keyTimes="0;0.945;1" dur="4.765s" fill="freeze" begin="0s;5ef3.click" /></path><path d="M56.05,66.59c0.91,0.11,2.7,0.73,4.3,0.48c6.91-1.11,20.08-3.47,25.04-3.97c1.4-0.14,2.7,0.18,3.4,0.37" stroke-dasharray="33.146" stroke-dashoffset="33.146"><animate attributeName="stroke-dashoffset" values="33.146" fill="freeze" begin="5ef3.click" /><animate attributeName="stroke-dashoffset" values="33.146;33.146;0" keyTimes="0;0.935;1" dur="5.096s" fill="freeze" begin="0s;5ef3.click" /></path><path d="M57.34,81.01c0.22,1.56-2.17,8.46-3.9,11.07" stroke-dasharray="11.831" stroke-dashoffset="11.831"><animate attributeName="stroke-dashoffset" values="11.831" fill="freeze" begin="5ef3.click" /><animate attributeName="stroke-dashoffset" values="11.831;11.831;0" keyTimes="0;0.977;1" dur="5.214s" fill="freeze" begin="0s;5ef3.click" /></path><path d="M61.75,75.35c4.09,10.17,8.65,18.62,22.15,19.7c6.38,0.51,6.82-2.79,1.48-7.56" stroke-dasharray="44.665" stroke-dashoffset="44.665"><animate attributeName="stroke-dashoffset" values="44.665" fill="freeze" begin="5ef3.click" /><animate attributeName="stroke-dashoffset" values="44.665;44.665;0" keyTimes="0;0.921;1" dur="5.661s" fill="freeze" begin="0s;5ef3.click" /></path><path d="M71.93,74.65c1.16,3.66,3.75,6.38,4.92,2.51" stroke-dasharray="8.408" stroke-dashoffset="8.408"><animate attributeName="stroke-dashoffset" values="8.408" fill="freeze" begin="5ef3.click" /><animate attributeName="stroke-dashoffset" values="8.408;8.408;0" keyTimes="0;0.985;1" dur="5.745s" fill="freeze" begin="0s;5ef3.click" /></path><path d="M86.48,71.75c3.61,2.06,6.32,3.94,9.25,10.32" stroke-dasharray="14.158" stroke-dashoffset="14.158"><animate attributeName="stroke-dashoffset" values="14.158" fill="freeze" begin="5ef3.click" /><animate attributeName="stroke-dashoffset" values="14.158;14.158;0" keyTimes="0;0.976;1" dur="5.887s" fill="freeze" begin="0s;5ef3.click" /></path></g></svg>