<svg xmlns="http://www.w3.org/2000/svg" width="109" height="109" viewBox="0 0 109 109" id="5ef8"><g fill="none" stroke="#666" stroke-width="9" stroke-linecap="round" stroke-linejoin="round"><g><g><g p5:partial xmlns:p5="http://kanjivg.tagaini.net"><path d="M48.73,33.24c0.35,1.1,0.62,2.24,0.7,3.19c0.67,7.89,1.95,24.9,2.35,39.42" /><path d="M50.08,35.58c12.4-1.94,28.75-3.3,36.59-4.06c2.88-0.28,3.96,1.96,3.8,4.04c-0.58,7.61-1.31,25.07-3.12,37.59" /></g><g><path d="M66,14c1.07,1,1.7,2.46,1.71,3.78c0.04,13.06,0.2,50.77,0.2,54.18" /></g><g p5:partial xmlns:p5="http://kanjivg.tagaini.net"><path d="M50.94,52.89c3.42-0.38,35.35-2.98,38.17-2.98" /><path d="M54.31,72.91c8.66-0.55,20.69-2.12,31.13-2.33" /></g></g><g><path d="M12.11,27.86c1.33,0.65,3.45,1.08,5.31,0.65c1.86-0.43,12.78-2.21,16.44-3.3c2.38-0.71,2.52,1.15,1.19,2.22s-9.31,14.82-12.83,21.25" /><path d="M22.96,49.75c6.04-2.25,8.37-3.42,11.1-3.94c2.94-0.56,3.94,0.44,3.19,3.44C33.34,64.89,27.5,83.75,12,93.1" /><path d="M13.27,63.44c6.01-0.21,35.48,23.81,65.85,30.63c3.24,0.73,7.11,1.32,10.13,1.68" /></g></g></g><g fill="none" stroke="#000" stroke-width="5" stroke-linecap="round" stroke-linejoin="round"><g><g><g p5:partial xmlns:p5="http://kanjivg.tagaini.net"><path d="M48.73,33.24c0.35,1.1,0.62,2.24,0.7,3.19c0.67,7.89,1.95,24.9,2.35,39.42" stroke-dasharray="42.768" stroke-dashoffset="42.768"><animate attributeName="stroke-dashoffset" values="42.768;42.768;0" dur="0.428s" fill="freeze" begin="0s;5ef8.click" /></path><path d="M50.08,35.58c12.4-1.94,28.75-3.3,36.59-4.06c2.88-0.28,3.96,1.96,3.8,4.04c-0.58,7.61-1.31,25.07-3.12,37.59" stroke-dasharray="81.016" stroke-dashoffset="81.016"><animate attributeName="stroke-dashoffset" values="81.016" fill="freeze" begin="5ef8.click" /><animate attributeName="stroke-dashoffset" values="81.016;81.016;0" keyTimes="0;0.413;1" dur="1.037s" fill="freeze" begin="0s;5ef8.click" /></path></g><g><path d="M66,14c1.07,1,1.7,2.46,1.71,3.78c0.04,13.06,0.2,50.77,0.2,54.18" stroke-dasharray="58.44" stroke-dashoffset="58.44"><animate attributeName="stroke-dashoffset" values="58.44" fill="freeze" begin="5ef8.click" /><animate attributeName="stroke-dashoffset" values="58.44;58.44;0" keyTimes="0;0.64;1" dur="1.621s" fill="freeze" begin="0s;5ef8.click" /></path></g><g p5:partial xmlns:p5="http://kanjivg.tagaini.net"><path d="M50.94,52.89c3.42-0.38,35.35-2.98,38.17-2.98" stroke-dasharray="38.289" stroke-dashoffset="38.289"><animate attributeName="stroke-dashoffset" values="38.289" fill="freeze" begin="5ef8.click" /><animate attributeName="stroke-dashoffset" values="38.289;38.289;0" keyTimes="0;0.809;1" dur="2.004s" fill="freeze" begin="0s;5ef8.click" /></path><path d="M54.31,72.91c8.66-0.55,20.69-2.12,31.13-2.33" stroke-dasharray="31.224" stroke-dashoffset="31.224"><animate attributeName="stroke-dashoffset" values="31.224" fill="freeze" begin="5ef8.click" /><animate attributeName="stroke-dashoffset" values="31.224;31.224;0" keyTimes="0;0.865;1" dur="2.316s" fill="freeze" begin="0s;5ef8.click" /></path></g></g><g><path d="M12.11,27.86c1.33,0.65,3.45,1.08,5.31,0.65c1.86-0.43,12.78-2.21,16.44-3.3c2.38-0.71,2.52,1.15,1.19,2.22s-9.31,14.82-12.83,21.25" stroke-dasharray="51.374" stroke-dashoffset="51.374"><animate attributeName="stroke-dashoffset" values="51.374" fill="freeze" begin="5ef8.click" /><animate attributeName="stroke-dashoffset" values="51.374;51.374;0" keyTimes="0;0.818;1" dur="2.83s" fill="freeze" begin="0s;5ef8.click" /></path><path d="M22.96,49.75c6.04-2.25,8.37-3.42,11.1-3.94c2.94-0.56,3.94,0.44,3.19,3.44C33.34,64.89,27.5,83.75,12,93.1" stroke-dasharray="70.067" stroke-dashoffset="70.067"><animate attributeName="stroke-dashoffset" values="70.067" fill="freeze" begin="5ef8.click" /><animate attributeName="stroke-dashoffset" values="70.067;70.067;0" keyTimes="0;0.843;1" dur="3.357s" fill="freeze" begin="0s;5ef8.click" /></path><path d="M13.27,63.44c6.01-0.21,35.48,23.81,65.85,30.63c3.24,0.73,7.11,1.32,10.13,1.68" stroke-dasharray="83.244" stroke-dashoffset="83.244"><animate attributeName="stroke-dashoffset" values="83.244" fill="freeze" begin="5ef8.click" /><animate attributeName="stroke-dashoffset" values="83.244;83.244;0" keyTimes="0;0.843;1" dur="3.983s" fill="freeze" begin="0s;5ef8.click" /></path></g></g></g></svg>