<svg xmlns="http://www.w3.org/2000/svg" width="109" height="109" viewBox="0 0 109 109" id="5ef8"><g fill="none" stroke="#666" stroke-width="9" stroke-linecap="round" stroke-linejoin="round"><g><g><g p5:part="1" p5:partial xmlns:p5="http://kanjivg.tagaini.net"><path d="M48.73,33.24c0.35,1.1,0.62,2.24,0.7,3.19c0.67,7.89,1.95,24.9,2.35,39.42" /><path d="M50.08,35.58c12.4-1.94,28.75-3.3,36.59-4.06c2.88-0.28,3.96,1.96,3.8,4.04c-0.58,7.61-1.31,25.07-3.12,37.59" /></g><g><path d="M66,14c1.07,1,1.7,2.46,1.71,3.78c0.04,13.06,0.2,50.77,0.2,54.18" /></g><g p5:part="2" p5:partial xmlns:p5="http://kanjivg.tagaini.net"><path d="M50.94,52.89c3.42-0.38,35.35-2.98,38.17-2.98" /><path d="M54.31,72.91c8.66-0.55,20.69-2.12,31.13-2.33" /></g></g><g><path d="M12.11,27.86c1.33,0.65,3.45,1.08,5.31,0.65c1.86-0.43,12.78-2.21,16.44-3.3c2.38-0.71,2.52,1.15,1.19,2.22s-9.31,14.82-12.83,21.25" /><path d="M22.96,49.75c6.04-2.25,8.37-3.42,11.1-3.94c2.94-0.56,3.94,0.44,3.19,3.44C33.34,64.89,27.5,83.75,12,93.1" /><path d="M13.27,63.44c6.01-0.21,35.48,23.81,65.85,30.63c3.24,0.73,7.11,1.32,10.13,1.68" /></g></g></g><g fill="none" stroke="#000" stroke-width="5" stroke-linecap="round" stroke-linejoin="round"><g><g><g p5:part="1" p5:partial xmlns:p5="http://kanjivg.tagaini.net"><path d="M48.73,33.24c0.35,1.1,0.62,2.24,0.7,3.19c0.67,7.89,1.95,24.9,2.35,39.42" stroke-dasharray="42.77" stroke-dashoffset="42.77"><animate id="0" attributeName="stroke-dashoffset" values="42.77;0" dur="0.43s" fill="freeze" begin="0s;5ef8.click" /></path><path d="M50.08,35.58c12.4-1.94,28.75-3.3,36.59-4.06c2.88-0.28,3.96,1.96,3.8,4.04c-0.58,7.61-1.31,25.07-3.12,37.59" stroke-dasharray="81.02" stroke-dashoffset="81.02"><animate attributeName="stroke-dashoffset" values="81.02" fill="freeze" begin="5ef8.click" /><animate id="1" attributeName="stroke-dashoffset" values="81.02;0" dur="0.61s" fill="freeze" begin="0.end" /></path></g><g><path d="M66,14c1.07,1,1.7,2.46,1.71,3.78c0.04,13.06,0.2,50.77,0.2,54.18" stroke-dasharray="58.44" stroke-dashoffset="58.44"><animate attributeName="stroke-dashoffset" values="58.44" fill="freeze" begin="5ef8.click" /><animate id="2" attributeName="stroke-dashoffset" values="58.44;0" dur="0.58s" fill="freeze" begin="1.end" /></path></g><g p5:part="2" p5:partial xmlns:p5="http://kanjivg.tagaini.net"><path d="M50.94,52.89c3.42-0.38,35.35-2.98,38.17-2.98" stroke-dasharray="38.29" stroke-dashoffset="38.29"><animate attributeName="stroke-dashoffset" values="38.29" fill="freeze" begin="5ef8.click" /><animate id="3" attributeName="stroke-dashoffset" values="38.29;0" dur="0.38s" fill="freeze" begin="2.end" /></path><path d="M54.31,72.91c8.66-0.55,20.69-2.12,31.13-2.33" stroke-dasharray="31.22" stroke-dashoffset="31.22"><animate attributeName="stroke-dashoffset" values="31.22" fill="freeze" begin="5ef8.click" /><animate id="4" attributeName="stroke-dashoffset" values="31.22;0" dur="0.31s" fill="freeze" begin="3.end" /></path></g></g><g><path d="M12.11,27.86c1.33,0.65,3.45,1.08,5.31,0.65c1.86-0.43,12.78-2.21,16.44-3.3c2.38-0.71,2.52,1.15,1.19,2.22s-9.31,14.82-12.83,21.25" stroke-dasharray="51.37" stroke-dashoffset="51.37"><animate attributeName="stroke-dashoffset" values="51.37" fill="freeze" begin="5ef8.click" /><animate id="5" attributeName="stroke-dashoffset" values="51.37;0" dur="0.51s" fill="freeze" begin="4.end" /></path><path d="M22.96,49.75c6.04-2.25,8.37-3.42,11.1-3.94c2.94-0.56,3.94,0.44,3.19,3.44C33.34,64.89,27.5,83.75,12,93.1" stroke-dasharray="70.07" stroke-dashoffset="70.07"><animate attributeName="stroke-dashoffset" values="70.07" fill="freeze" begin="5ef8.click" /><animate id="6" attributeName="stroke-dashoffset" values="70.07;0" dur="0.53s" fill="freeze" begin="5.end" /></path><path d="M13.27,63.44c6.01-0.21,35.48,23.81,65.85,30.63c3.24,0.73,7.11,1.32,10.13,1.68" stroke-dasharray="83.24" stroke-dashoffset="83.24"><animate attributeName="stroke-dashoffset" values="83.24" fill="freeze" begin="5ef8.click" /><animate id="7" attributeName="stroke-dashoffset" values="83.24;0" dur="0.63s" fill="freeze" begin="6.end" /></path></g></g></g></svg>