<svg xmlns="http://www.w3.org/2000/svg" width="109" height="109" viewBox="0 0 109 109" id="5efa"><g fill="none" stroke="#666" stroke-width="9" stroke-linecap="round" stroke-linejoin="round"><g><g><g><path d="M49.33,22.26c1.8,0.22,3.42,0.47,5.06,0.25c8.36-1.13,21.38-2.57,28.57-3c2.33-0.14,4.03,1.33,3.59,3.5c-0.93,4.62-2.05,10.24-3.37,16.71" /><path d="M41.75,34.44c2.14,0.22,3.81,0.21,6.18,0c14.82-1.31,30.32-3.81,44.13-4.92c2.61-0.21,4.75-0.07,5.94,0.15" /><path d="M49.43,44.53c1.11,0.22,3.11,0.35,4.43,0.22c8.77-0.87,19.15-2.24,27.91-3.5c1.75-0.25,2.88-0.25,4.21-0.03" /></g><path d="M49.78,56.38c1.97,0.25,3.79,0.17,5.13,0.08c10.67-0.71,16.51-1.84,28.64-2.8c2.22-0.18,3.57-0.09,4.68,0.07" /><path d="M44.69,69.29c1.6,0.47,4.54,0.37,6.14,0.22c12.05-1.14,25.63-2.76,37.55-3.54c2.66-0.17,4.56-0.03,5.89,0.21" /><g><path d="M66.7,10.75c0.96,0.96,1.66,2.38,1.66,3.57c0,2.82-0.11,46.71-0.15,63.31c-0.01,2.84-0.01,4.88-0.01,5.78" /></g></g><g><path d="M13.92,30.59c1.71,0.79,3.25,0.69,4.77,0.39c3.68-0.73,10.02-3.31,13.33-4.78c1.86-0.82,3.44,0.53,2.31,2.46C31.5,33.5,27.5,42,23.83,51.25" /><path d="M24,52c4.08-1.48,7.38-2.38,9.79-2.85c2.29-0.45,4.41,0.72,3.76,3.52c-3.93,17.09-8.43,30.21-24.06,40.45" /><path d="M13.05,64.69c5.42-0.17,34.87,21.46,63.9,29.23c4.93,1.32,9.86,2.24,14.65,2.58" /></g></g></g><g fill="none" stroke="#000" stroke-width="5" stroke-linecap="round" stroke-linejoin="round"><g><g><g><path d="M49.33,22.26c1.8,0.22,3.42,0.47,5.06,0.25c8.36-1.13,21.38-2.57,28.57-3c2.33-0.14,4.03,1.33,3.59,3.5c-0.93,4.62-2.05,10.24-3.37,16.71" stroke-dasharray="56.76" stroke-dashoffset="56.76"><animate id="0" attributeName="stroke-dashoffset" values="56.76;0" dur="0.57s" fill="freeze" begin="0s;5efa.click" /></path><path d="M41.75,34.44c2.14,0.22,3.81,0.21,6.18,0c14.82-1.31,30.32-3.81,44.13-4.92c2.61-0.21,4.75-0.07,5.94,0.15" stroke-dasharray="56.55" stroke-dashoffset="56.55"><animate attributeName="stroke-dashoffset" values="56.55" fill="freeze" begin="5efa.click" /><animate id="1" attributeName="stroke-dashoffset" values="56.55;0" dur="0.57s" fill="freeze" begin="0.end" /></path><path d="M49.43,44.53c1.11,0.22,3.11,0.35,4.43,0.22c8.77-0.87,19.15-2.24,27.91-3.5c1.75-0.25,2.88-0.25,4.21-0.03" stroke-dasharray="36.81" stroke-dashoffset="36.81"><animate attributeName="stroke-dashoffset" values="36.81" fill="freeze" begin="5efa.click" /><animate id="2" attributeName="stroke-dashoffset" values="36.81;0" dur="0.37s" fill="freeze" begin="1.end" /></path></g><path d="M49.78,56.38c1.97,0.25,3.79,0.17,5.13,0.08c10.67-0.71,16.51-1.84,28.64-2.8c2.22-0.18,3.57-0.09,4.68,0.07" stroke-dasharray="38.61" stroke-dashoffset="38.61"><animate attributeName="stroke-dashoffset" values="38.61" fill="freeze" begin="5efa.click" /><animate id="3" attributeName="stroke-dashoffset" values="38.61;0" dur="0.39s" fill="freeze" begin="2.end" /></path><path d="M44.69,69.29c1.6,0.47,4.54,0.37,6.14,0.22c12.05-1.14,25.63-2.76,37.55-3.54c2.66-0.17,4.56-0.03,5.89,0.21" stroke-dasharray="49.8" stroke-dashoffset="49.8"><animate attributeName="stroke-dashoffset" values="49.8" fill="freeze" begin="5efa.click" /><animate id="4" attributeName="stroke-dashoffset" values="49.8;0" dur="0.5s" fill="freeze" begin="3.end" /></path><g><path d="M66.7,10.75c0.96,0.96,1.66,2.38,1.66,3.57c0,2.82-0.11,46.71-0.15,63.31c-0.01,2.84-0.01,4.88-0.01,5.78" stroke-dasharray="73.12" stroke-dashoffset="73.12"><animate attributeName="stroke-dashoffset" values="73.12" fill="freeze" begin="5efa.click" /><animate id="5" attributeName="stroke-dashoffset" values="73.12;0" dur="0.55s" fill="freeze" begin="4.end" /></path></g></g><g><path d="M13.92,30.59c1.71,0.79,3.25,0.69,4.77,0.39c3.68-0.73,10.02-3.31,13.33-4.78c1.86-0.82,3.44,0.53,2.31,2.46C31.5,33.5,27.5,42,23.83,51.25" stroke-dasharray="48.86" stroke-dashoffset="48.86"><animate attributeName="stroke-dashoffset" values="48.86" fill="freeze" begin="5efa.click" /><animate id="6" attributeName="stroke-dashoffset" values="48.86;0" dur="0.49s" fill="freeze" begin="5.end" /></path><path d="M24,52c4.08-1.48,7.38-2.38,9.79-2.85c2.29-0.45,4.41,0.72,3.76,3.52c-3.93,17.09-8.43,30.21-24.06,40.45" stroke-dasharray="65.08" stroke-dashoffset="65.08"><animate attributeName="stroke-dashoffset" values="65.08" fill="freeze" begin="5efa.click" /><animate id="7" attributeName="stroke-dashoffset" values="65.08;0" dur="0.49s" fill="freeze" begin="6.end" /></path><path d="M13.05,64.69c5.42-0.17,34.87,21.46,63.9,29.23c4.93,1.32,9.86,2.24,14.65,2.58" stroke-dasharray="85.39" stroke-dashoffset="85.39"><animate attributeName="stroke-dashoffset" values="85.39" fill="freeze" begin="5efa.click" /><animate id="8" attributeName="stroke-dashoffset" values="85.39;0" dur="0.64s" fill="freeze" begin="7.end" /></path></g></g></g></svg>