<svg xmlns="http://www.w3.org/2000/svg" width="109" height="109" viewBox="0 0 109 109" id="5efc"><g fill="none" stroke="#666" stroke-width="6" stroke-linecap="round" stroke-linejoin="round"><g><g><path d="M44.45,18.7c0.73,0.34,3.29,0.37,4.02,0.34c9.67-0.4,28.53-2.65,40.07-2.84c1.22-0.02,2.36,0.16,2.96,0.33" /><path d="M45.19,34.93c0.63,0.69,1.43,2.93,1.54,3.85c0.85,6.62,1.19,19.97,1.19,34.64" /><path d="M47.24,37.38c10.12-1.29,34.54-3.99,41.44-4.19c2.86-0.08,4.14,2.3,3.79,5.46c-0.85,7.67-2.01,22.17-4.72,33.61" /><path d="M61.27,21.14c0.42,1.01,0.8,3.24,0.72,4.65c-0.74,12.66-2.14,28.95-10.81,33.79" /><path d="M72.8,20.01c0.69,0.96,1.28,2.1,1.28,3.59c0,13-0.33,19.87-0.33,23.8c0,5.05,0.77,6.52,5.98,6.52c4.41,0,7.31-1.02,7.56-1.32" /><path d="M47.97,71.14c8.49-0.46,30-1.42,40.32-1.62" /></g><g><path d="M12.33,26.9c1.38,0.66,3.58,1.09,5.5,0.66c1.93-0.44,10.2-2.28,14.01-3.34c1.66-0.46,2.79,0.79,1.8,2.25c-1.89,2.79-11.63,18.35-15.49,23.6" /><path d="M17.83,50.93c5.23-0.87,9.17-2.68,13.09-3.81c4.3-1.24,6.58-0.19,5.78,3.71C34.5,61.5,26.75,83.25,12,91.59" /><path d="M13.08,61.45c1.04-0.04,3.3,0.15,5.8,1.77C34.75,73.5,54.75,86.75,76.42,92.97C79.77,93.93,85.25,95,90,95.25" /></g></g></g><g fill="none" stroke="#000" stroke-width="3" stroke-linecap="round" stroke-linejoin="round"><path d="M44.45,18.7c0.73,0.34,3.29,0.37,4.02,0.34c9.67-0.4,28.53-2.65,40.07-2.84c1.22-0.02,2.36,0.16,2.96,0.33" stroke-dasharray="47.217" stroke-dashoffset="47.217"><animate attributeName="stroke-dashoffset" values="47.217;47.217;0" dur="0.472s" fill="freeze" begin="0s;5efc.click" /></path><path d="M45.19,34.93c0.63,0.69,1.43,2.93,1.54,3.85c0.85,6.62,1.19,19.97,1.19,34.64" stroke-dasharray="38.859" stroke-dashoffset="38.859"><animate attributeName="stroke-dashoffset" values="38.859" fill="freeze" begin="5efc.click" /><animate attributeName="stroke-dashoffset" values="38.859;38.859;0" keyTimes="0;0.548;1" dur="0.861s" fill="freeze" begin="0s;5efc.click" /></path><path d="M47.24,37.38c10.12-1.29,34.54-3.99,41.44-4.19c2.86-0.08,4.14,2.3,3.79,5.46c-0.85,7.67-2.01,22.17-4.72,33.61" stroke-dasharray="83.323" stroke-dashoffset="83.323"><animate attributeName="stroke-dashoffset" values="83.323" fill="freeze" begin="5efc.click" /><animate attributeName="stroke-dashoffset" values="83.323;83.323;0" keyTimes="0;0.579;1" dur="1.487s" fill="freeze" begin="0s;5efc.click" /></path><path d="M61.27,21.14c0.42,1.01,0.8,3.24,0.72,4.65c-0.74,12.66-2.14,28.95-10.81,33.79" stroke-dasharray="41.476" stroke-dashoffset="41.476"><animate attributeName="stroke-dashoffset" values="41.476" fill="freeze" begin="5efc.click" /><animate attributeName="stroke-dashoffset" values="41.476;41.476;0" keyTimes="0;0.782;1" dur="1.902s" fill="freeze" begin="0s;5efc.click" /></path><path d="M72.8,20.01c0.69,0.96,1.28,2.1,1.28,3.59c0,13-0.33,19.87-0.33,23.8c0,5.05,0.77,6.52,5.98,6.52c4.41,0,7.31-1.02,7.56-1.32" stroke-dasharray="46.07" stroke-dashoffset="46.07"><animate attributeName="stroke-dashoffset" values="46.07" fill="freeze" begin="5efc.click" /><animate attributeName="stroke-dashoffset" values="46.07;46.07;0" keyTimes="0;0.805;1" dur="2.363s" fill="freeze" begin="0s;5efc.click" /></path><path d="M47.97,71.14c8.49-0.46,30-1.42,40.32-1.62" stroke-dasharray="40.355" stroke-dashoffset="40.355"><animate attributeName="stroke-dashoffset" values="40.355" fill="freeze" begin="5efc.click" /><animate attributeName="stroke-dashoffset" values="40.355;40.355;0" keyTimes="0;0.854;1" dur="2.767s" fill="freeze" begin="0s;5efc.click" /></path><path d="M12.33,26.9c1.38,0.66,3.58,1.09,5.5,0.66c1.93-0.44,10.2-2.28,14.01-3.34c1.66-0.46,2.79,0.79,1.8,2.25c-1.89,2.79-11.63,18.35-15.49,23.6" stroke-dasharray="52.303" stroke-dashoffset="52.303"><animate attributeName="stroke-dashoffset" values="52.303" fill="freeze" begin="5efc.click" /><animate attributeName="stroke-dashoffset" values="52.303;52.303;0" keyTimes="0;0.841;1" dur="3.29s" fill="freeze" begin="0s;5efc.click" /></path><path d="M17.83,50.93c5.23-0.87,9.17-2.68,13.09-3.81c4.3-1.24,6.58-0.19,5.78,3.71C34.5,61.5,26.75,83.25,12,91.59" stroke-dasharray="71.674" stroke-dashoffset="71.674"><animate attributeName="stroke-dashoffset" values="71.674" fill="freeze" begin="5efc.click" /><animate attributeName="stroke-dashoffset" values="71.674;71.674;0" keyTimes="0;0.859;1" dur="3.829s" fill="freeze" begin="0s;5efc.click" /></path><path d="M13.08,61.45c1.04-0.04,3.3,0.15,5.8,1.77C34.75,73.5,54.75,86.75,76.42,92.97C79.77,93.93,85.25,95,90,95.25" stroke-dasharray="84.977" stroke-dashoffset="84.977"><animate attributeName="stroke-dashoffset" values="84.977" fill="freeze" begin="5efc.click" /><animate attributeName="stroke-dashoffset" values="84.977;84.977;0" keyTimes="0;0.857;1" dur="4.468s" fill="freeze" begin="0s;5efc.click" /></path></g></svg>