<svg xmlns="http://www.w3.org/2000/svg" width="109" height="109" viewBox="0 0 109 109" id="5f04"><g fill="none" stroke="#666" stroke-width="9" stroke-linecap="round" stroke-linejoin="round"><g><g p4:partial xmlns:p4="http://kanjivg.tagaini.net"><path d="M25,17.76c1.12,0.44,4.76,0.12,5.89,0.03c12.37-1.04,35.73-3.13,48.39-3.58c1.73-0.06,3.29,0.09,4.72,0.45" /><path d="M52.78,17c1.15,1.43,1.15,2.29,1.15,3.44c0,8.02-0.01,12.7-0.01,25.56" /><path d="M29.75,32c0.94,0.57,4.04,0.35,5,0.25c10-1,26.75-2.5,38.5-3.52c1.17-0.1,3.75-0.23,5.5,0.27" /><path d="M16.25,48.49c0.92,0.32,5.7,0.17,7.25,0.01c21.75-2.25,42-3,65.25-3.78c2.5-0.08,5.5,0.53,6.75,1.03" /></g><g><g p5:part="1" xmlns:p5="http://kanjivg.tagaini.net"><path d="M14.88,67.48c1.52,0.54,4.3,0.63,5.82,0.54c15.8-0.91,50.05-3.77,70.11-4.23c2.53-0.06,4.05,0.26,5.31,0.53" /></g><g><path d="M40.88,52.5c0.77,1.03,1.56,2.11,1.56,3.62c0,16.63-0.44,32.63-22.94,41.38" /></g><g p5:part="2" xmlns:p5="http://kanjivg.tagaini.net"><path d="M67.87,50.75c1.13,1,1.96,2.25,1.96,4.25c0,6.75,0,39.25-0.22,45.5" /></g></g></g></g><g fill="none" stroke="#000" stroke-width="5" stroke-linecap="round" stroke-linejoin="round"><g><g p4:partial xmlns:p4="http://kanjivg.tagaini.net"><path d="M25,17.76c1.12,0.44,4.76,0.12,5.89,0.03c12.37-1.04,35.73-3.13,48.39-3.58c1.73-0.06,3.29,0.09,4.72,0.45" stroke-dasharray="59.2" stroke-dashoffset="59.2"><animate id="0" attributeName="stroke-dashoffset" values="59.2;0" dur="0.59s" fill="freeze" begin="0s;5f04.click" /></path><path d="M52.78,17c1.15,1.43,1.15,2.29,1.15,3.44c0,8.02-0.01,12.7-0.01,25.56" stroke-dasharray="29.29" stroke-dashoffset="29.29"><animate attributeName="stroke-dashoffset" values="29.29" fill="freeze" begin="5f04.click" /><animate id="1" attributeName="stroke-dashoffset" values="29.29;0" dur="0.29s" fill="freeze" begin="0.end" /></path><path d="M29.75,32c0.94,0.57,4.04,0.35,5,0.25c10-1,26.75-2.5,38.5-3.52c1.17-0.1,3.75-0.23,5.5,0.27" stroke-dasharray="49.25" stroke-dashoffset="49.25"><animate attributeName="stroke-dashoffset" values="49.25" fill="freeze" begin="5f04.click" /><animate id="2" attributeName="stroke-dashoffset" values="49.25;0" dur="0.49s" fill="freeze" begin="1.end" /></path><path d="M16.25,48.49c0.92,0.32,5.7,0.17,7.25,0.01c21.75-2.25,42-3,65.25-3.78c2.5-0.08,5.5,0.53,6.75,1.03" stroke-dasharray="79.51" stroke-dashoffset="79.51"><animate attributeName="stroke-dashoffset" values="79.51" fill="freeze" begin="5f04.click" /><animate id="3" attributeName="stroke-dashoffset" values="79.51;0" dur="0.6s" fill="freeze" begin="2.end" /></path></g><g><g p5:part="1" xmlns:p5="http://kanjivg.tagaini.net"><path d="M14.88,67.48c1.52,0.54,4.3,0.63,5.82,0.54c15.8-0.91,50.05-3.77,70.11-4.23c2.53-0.06,4.05,0.26,5.31,0.53" stroke-dasharray="81.47" stroke-dashoffset="81.47"><animate attributeName="stroke-dashoffset" values="81.47" fill="freeze" begin="5f04.click" /><animate id="4" attributeName="stroke-dashoffset" values="81.47;0" dur="0.61s" fill="freeze" begin="3.end" /></path></g><g><path d="M40.88,52.5c0.77,1.03,1.56,2.11,1.56,3.62c0,16.63-0.44,32.63-22.94,41.38" stroke-dasharray="55.48" stroke-dashoffset="55.48"><animate attributeName="stroke-dashoffset" values="55.48" fill="freeze" begin="5f04.click" /><animate id="5" attributeName="stroke-dashoffset" values="55.48;0" dur="0.55s" fill="freeze" begin="4.end" /></path></g><g p5:part="2" xmlns:p5="http://kanjivg.tagaini.net"><path d="M67.87,50.75c1.13,1,1.96,2.25,1.96,4.25c0,6.75,0,39.25-0.22,45.5" stroke-dasharray="50.34" stroke-dashoffset="50.34"><animate attributeName="stroke-dashoffset" values="50.34" fill="freeze" begin="5f04.click" /><animate id="6" attributeName="stroke-dashoffset" values="50.34;0" dur="0.5s" fill="freeze" begin="5.end" /></path></g></g></g></g></svg>