<svg xmlns="http://www.w3.org/2000/svg" width="109" height="109" viewBox="0 0 109 109" id="5f29"><g fill="none" stroke="#666" stroke-width="9" stroke-linecap="round" stroke-linejoin="round"><g><g><g><path d="M32.43,9.94c0.38,0.79,1.06,2.09,0.86,3.17c-0.97,5.3-6.75,15.32-10.98,21.25c-0.87,1.21,0.36,1.92,0.86,1.99c7.08,0.91,15.83,5.91,21.1,11.79" /><path d="M44.36,21.23c0.08,0.82,0.13,2.82-0.18,3.99C41.69,34.64,34,46.5,16.84,53.6" /><path d="M12.25,26.29c0.83,1.42,1.53,2.17,3.73,1.78c4.77-0.83,22.02-4.83,34.79-7.05" /></g><g><path d="M57.99,17.06c1.26,0.23,1.42,0.59,3.93,0.23c2.52-0.35,19.77-3.47,21.5-3.83c1.73-0.35,3.3,1.01,2.7,2.3C81.25,26.24,69,39.16,54.69,44.23" /><path d="M57.27,22.45c5.98,0,19.9,17.09,31.67,23.84c1.83,1.05,3.17,1.75,4.87,2.1" /></g></g><g><path d="M34.12,52.59c1.63,0.81,3.15,1.05,5.22,0.9c2.07-0.15,32.34-3.55,36.51-3.55c1.64,0,2.89,1.31,2.05,3.27c-0.44,1.03-1.75,3.45-2.74,5.49c-0.54,1.11-0.98,2.1-1.15,2.72" /><path d="M34.75,64.75c2.99,0,34.12-3,36.26-3c2.14,0,4.28,0,5.99,0" /><path d="M33.43,62.42c0.82,1.08,0.62,2.48,0.24,3.67c-0.68,2.16-3.03,7.52-3.37,8.16c-0.8,1.5-0.33,3.5,2.82,2.8c2.38-0.53,37.61-3.97,44.25-4.5c3.88-0.31,5.13,1.94,4.04,5.08c-1.99,5.74-7.02,15.16-12.49,19.81c-3.92,3.34-9.17-1.7-11.17-4.26" /></g></g></g><g fill="none" stroke="#000" stroke-width="5" stroke-linecap="round" stroke-linejoin="round"><g><g><g><path d="M32.43,9.94c0.38,0.79,1.06,2.09,0.86,3.17c-0.97,5.3-6.75,15.32-10.98,21.25c-0.87,1.21,0.36,1.92,0.86,1.99c7.08,0.91,15.83,5.91,21.1,11.79" stroke-dasharray="54.66" stroke-dashoffset="54.66"><animate id="0" attributeName="stroke-dashoffset" values="54.66;0" dur="0.55s" fill="freeze" begin="0s;5f29.click" /></path><path d="M44.36,21.23c0.08,0.82,0.13,2.82-0.18,3.99C41.69,34.64,34,46.5,16.84,53.6" stroke-dasharray="44.85" stroke-dashoffset="44.85"><animate attributeName="stroke-dashoffset" values="44.85" fill="freeze" begin="5f29.click" /><animate id="1" attributeName="stroke-dashoffset" values="44.85;0" dur="0.45s" fill="freeze" begin="0.end" /></path><path d="M12.25,26.29c0.83,1.42,1.53,2.17,3.73,1.78c4.77-0.83,22.02-4.83,34.79-7.05" stroke-dasharray="40.03" stroke-dashoffset="40.03"><animate attributeName="stroke-dashoffset" values="40.03" fill="freeze" begin="5f29.click" /><animate id="2" attributeName="stroke-dashoffset" values="40.03;0" dur="0.4s" fill="freeze" begin="1.end" /></path></g><g><path d="M57.99,17.06c1.26,0.23,1.42,0.59,3.93,0.23c2.52-0.35,19.77-3.47,21.5-3.83c1.73-0.35,3.3,1.01,2.7,2.3C81.25,26.24,69,39.16,54.69,44.23" stroke-dasharray="73.55" stroke-dashoffset="73.55"><animate attributeName="stroke-dashoffset" values="73.55" fill="freeze" begin="5f29.click" /><animate id="3" attributeName="stroke-dashoffset" values="73.55;0" dur="0.55s" fill="freeze" begin="2.end" /></path><path d="M57.27,22.45c5.98,0,19.9,17.09,31.67,23.84c1.83,1.05,3.17,1.75,4.87,2.1" stroke-dasharray="45.26" stroke-dashoffset="45.26"><animate attributeName="stroke-dashoffset" values="45.26" fill="freeze" begin="5f29.click" /><animate id="4" attributeName="stroke-dashoffset" values="45.26;0" dur="0.45s" fill="freeze" begin="3.end" /></path></g></g><g><path d="M34.12,52.59c1.63,0.81,3.15,1.05,5.22,0.9c2.07-0.15,32.34-3.55,36.51-3.55c1.64,0,2.89,1.31,2.05,3.27c-0.44,1.03-1.75,3.45-2.74,5.49c-0.54,1.11-0.98,2.1-1.15,2.72" stroke-dasharray="55.87" stroke-dashoffset="55.87"><animate attributeName="stroke-dashoffset" values="55.87" fill="freeze" begin="5f29.click" /><animate id="5" attributeName="stroke-dashoffset" values="55.87;0" dur="0.56s" fill="freeze" begin="4.end" /></path><path d="M34.75,64.75c2.99,0,34.12-3,36.26-3c2.14,0,4.28,0,5.99,0" stroke-dasharray="42.38" stroke-dashoffset="42.38"><animate attributeName="stroke-dashoffset" values="42.38" fill="freeze" begin="5f29.click" /><animate id="6" attributeName="stroke-dashoffset" values="42.38;0" dur="0.42s" fill="freeze" begin="5.end" /></path><path d="M33.43,62.42c0.82,1.08,0.62,2.48,0.24,3.67c-0.68,2.16-3.03,7.52-3.37,8.16c-0.8,1.5-0.33,3.5,2.82,2.8c2.38-0.53,37.61-3.97,44.25-4.5c3.88-0.31,5.13,1.94,4.04,5.08c-1.99,5.74-7.02,15.16-12.49,19.81c-3.92,3.34-9.17-1.7-11.17-4.26" stroke-dasharray="107.82" stroke-dashoffset="107.82"><animate attributeName="stroke-dashoffset" values="107.82" fill="freeze" begin="5f29.click" /><animate id="7" attributeName="stroke-dashoffset" values="107.82;0" dur="0.81s" fill="freeze" begin="6.end" /></path></g></g></g></svg>