<svg xmlns="http://www.w3.org/2000/svg" width="109" height="109" viewBox="0 0 109 109" id="5f38"><g fill="none" stroke="#666" stroke-width="9" stroke-linecap="round" stroke-linejoin="round"><g><g><path d="M14,20.09c0.75,0.91,3.01,1.26,4.19,1.04c2.06-0.38,12.06-2.63,15.77-2.79c2.51-0.1,3.2,1.34,2.24,3.39c-0.68,1.46-1.83,6.21-2.66,9.89c-0.33,1.47-0.62,2.77-0.8,3.62" /><path d="M18.25,37.75c1.75,0,12-2,13.25-2s2.5-0.5,3.5-0.5" /><path d="M16.63,36.68c0.55,0.96,0.96,2.56,0.61,4.08C16.83,42.5,15.35,52.53,15,53.44c-1,2.56-0.43,4.12,2.75,3.06c3-1,8.8-2.42,12.96-3.19c3.04-0.56,3.54,1.44,3.29,4.44c-0.74,8.91-3.47,27.2-7.25,33.5c-3.75,6.25-6.36-0.31-7.19-2.17" /></g><g><g><path d="M45.44,20.69c0.55,0.93,1.07,1.84,1.09,2.79C47.75,76.5,43.75,82.5,34.51,92" /><path d="M46.13,22.05c2.19-0.23,12.83-2.77,14.45-3.06c1.42-0.25,2.92,1.02,2.92,2.48c0,7.9-0.05,45.53-0.05,62.86c0,12.08-4.88,4.18-6.7,2.09" /><path d="M47.13,41.94c3.1-0.46,11.9-2.13,16.1-2.36" /><path d="M46.72,58.71c5.84-0.7,9.62-1.93,16.37-2.39" /></g><g><path d="M75.24,17.71c0.53,0.95,1.04,1.88,1.05,2.85c0.96,50.7-2.04,61.2-8.23,69.95" /><path d="M76.99,20.08c2.11-0.24,13.37-2.82,14.94-3.08c2.81-0.47,2.81,2.06,2.81,3.56c0,8.06-0.53,47.93-0.53,65.62c0,9.57-5.16,2.69-6.92,0.56" /><path d="M77.35,38.81c2.99-0.47,12.12-1.66,16.17-1.9" /><path d="M76.47,57.15c5.62-0.71,10.9-1.45,17.4-1.92" /></g></g></g></g><g fill="none" stroke="#000" stroke-width="5" stroke-linecap="round" stroke-linejoin="round"><g><g><path d="M14,20.09c0.75,0.91,3.01,1.26,4.19,1.04c2.06-0.38,12.06-2.63,15.77-2.79c2.51-0.1,3.2,1.34,2.24,3.39c-0.68,1.46-1.83,6.21-2.66,9.89c-0.33,1.47-0.62,2.77-0.8,3.62" stroke-dasharray="39.76" stroke-dashoffset="39.76"><animate id="0" attributeName="stroke-dashoffset" values="39.76;0" dur="0.4s" fill="freeze" begin="0s;5f38.click" /></path><path d="M18.25,37.75c1.75,0,12-2,13.25-2s2.5-0.5,3.5-0.5" stroke-dasharray="16.95" stroke-dashoffset="16.95"><animate attributeName="stroke-dashoffset" values="16.95" fill="freeze" begin="5f38.click" /><animate id="1" attributeName="stroke-dashoffset" values="16.95;0" dur="0.17s" fill="freeze" begin="0.end" /></path><path d="M16.63,36.68c0.55,0.96,0.96,2.56,0.61,4.08C16.83,42.5,15.35,52.53,15,53.44c-1,2.56-0.43,4.12,2.75,3.06c3-1,8.8-2.42,12.96-3.19c3.04-0.56,3.54,1.44,3.29,4.44c-0.74,8.91-3.47,27.2-7.25,33.5c-3.75,6.25-6.36-0.31-7.19-2.17" stroke-dasharray="88.76" stroke-dashoffset="88.76"><animate attributeName="stroke-dashoffset" values="88.76" fill="freeze" begin="5f38.click" /><animate id="2" attributeName="stroke-dashoffset" values="88.76;0" dur="0.67s" fill="freeze" begin="1.end" /></path></g><g><g><path d="M45.44,20.69c0.55,0.93,1.07,1.84,1.09,2.79C47.75,76.5,43.75,82.5,34.51,92" stroke-dasharray="74.61" stroke-dashoffset="74.61"><animate attributeName="stroke-dashoffset" values="74.61" fill="freeze" begin="5f38.click" /><animate id="3" attributeName="stroke-dashoffset" values="74.61;0" dur="0.56s" fill="freeze" begin="2.end" /></path><path d="M46.13,22.05c2.19-0.23,12.83-2.77,14.45-3.06c1.42-0.25,2.92,1.02,2.92,2.48c0,7.9-0.05,45.53-0.05,62.86c0,12.08-4.88,4.18-6.7,2.09" stroke-dasharray="95.94" stroke-dashoffset="95.94"><animate attributeName="stroke-dashoffset" values="95.94" fill="freeze" begin="5f38.click" /><animate id="4" attributeName="stroke-dashoffset" values="95.94;0" dur="0.72s" fill="freeze" begin="3.end" /></path><path d="M47.13,41.94c3.1-0.46,11.9-2.13,16.1-2.36" stroke-dasharray="16.28" stroke-dashoffset="16.28"><animate attributeName="stroke-dashoffset" values="16.28" fill="freeze" begin="5f38.click" /><animate id="5" attributeName="stroke-dashoffset" values="16.28;0" dur="0.16s" fill="freeze" begin="4.end" /></path><path d="M46.72,58.71c5.84-0.7,9.62-1.93,16.37-2.39" stroke-dasharray="16.55" stroke-dashoffset="16.55"><animate attributeName="stroke-dashoffset" values="16.55" fill="freeze" begin="5f38.click" /><animate id="6" attributeName="stroke-dashoffset" values="16.55;0" dur="0.17s" fill="freeze" begin="5.end" /></path></g><g><path d="M75.24,17.71c0.53,0.95,1.04,1.88,1.05,2.85c0.96,50.7-2.04,61.2-8.23,69.95" stroke-dasharray="74.47" stroke-dashoffset="74.47"><animate attributeName="stroke-dashoffset" values="74.47" fill="freeze" begin="5f38.click" /><animate id="7" attributeName="stroke-dashoffset" values="74.47;0" dur="0.56s" fill="freeze" begin="6.end" /></path><path d="M76.99,20.08c2.11-0.24,13.37-2.82,14.94-3.08c2.81-0.47,2.81,2.06,2.81,3.56c0,8.06-0.53,47.93-0.53,65.62c0,9.57-5.16,2.69-6.92,0.56" stroke-dasharray="98.95" stroke-dashoffset="98.95"><animate attributeName="stroke-dashoffset" values="98.95" fill="freeze" begin="5f38.click" /><animate id="8" attributeName="stroke-dashoffset" values="98.95;0" dur="0.74s" fill="freeze" begin="7.end" /></path><path d="M77.35,38.81c2.99-0.47,12.12-1.66,16.17-1.9" stroke-dasharray="16.28" stroke-dashoffset="16.28"><animate attributeName="stroke-dashoffset" values="16.28" fill="freeze" begin="5f38.click" /><animate id="9" attributeName="stroke-dashoffset" values="16.28;0" dur="0.16s" fill="freeze" begin="8.end" /></path><path d="M76.47,57.15c5.62-0.71,10.9-1.45,17.4-1.92" stroke-dasharray="17.51" stroke-dashoffset="17.51"><animate attributeName="stroke-dashoffset" values="17.51" fill="freeze" begin="5f38.click" /><animate id="10" attributeName="stroke-dashoffset" values="17.51;0" dur="0.18s" fill="freeze" begin="9.end" /></path></g></g></g></g></svg>