<svg xmlns="http://www.w3.org/2000/svg" width="109" height="109" viewBox="0 0 109 109" id="5f3e"><g fill="none" stroke="#666" stroke-width="9" stroke-linecap="round" stroke-linejoin="round"><g><g><path d="M17.25,22.14c1.63,0.86,3.05,0.81,4.87,0.44c3.8-0.76,8-1.98,12.14-3.05c2.93-0.76,4.71-0.35,3.77,2.98c-1.17,4.17-3.64,13.82-3.75,14.58" /><path d="M17.75,40c0.52,0,1.52,0.41,2.75,0.28c3.91-0.42,9-1.41,11.39-1.78c1.54-0.24,3.11-0.5,4.36-0.5" /><path d="M18.89,40.74c0.51,0.96,0.68,2.07,0.35,3.6c-0.28,1.31-1.87,6.91-3.23,10.7c-0.53,1.46-0.38,3.08,1.83,2.66c3.37-0.65,9.61-2,14.55-2.89c4.3-0.78,5.36,0.61,4.83,4.81c-1.12,8.96-3.07,22.25-6.48,29.31c-2.64,5.48-4.61,4.23-7.31-0.11" /></g><g p4:phon="単" xmlns:p4="http://kanjivg.tagaini.net"><g><path d="M47.4,19.78c2.48,3.19,5.13,8.76,5.49,10.36" /><path d="M61.95,14.94c2.68,3.06,5.07,7.71,5.67,11.16" /><path d="M87.39,12.5c0.36,1,0.12,2.11-0.42,3.32c-1.6,3.56-4.22,8.06-6.6,11.53" /></g><g p4:part="1"><g p4:partial><path d="M47.52,37.77c0.92,0.92,1.55,2.22,1.68,2.75c0.85,3.6,2.71,12.37,3.72,17.85c0.38,2.09,0.65,3.6,0.68,3.96" /><path d="M49.29,38.5c9.82-1.88,26.57-4.25,33.73-5.08c3.26-0.38,5.67-0.05,5.21,3.75c-0.51,4.18-2.84,13.25-3.95,18.05c-0.4,1.75-0.71,3.03-0.82,3.48" /><path d="M52.33,48.81c6.67-1.18,30.79-4.09,33.32-4.21" /><path d="M54.07,59.89c10.3-1.39,18.55-2.64,28.95-3.27" /></g><g><path d="M44.04,74.84c2.71,0.53,5.42,0.54,8.09,0.1c10.87-1.81,24.91-3.44,38-4.58c2.62-0.23,4.98-0.04,7.57,0.47" /></g><g p4:part="2"><g><path d="M67.13,38.01c0.8,0.8,1.08,1.96,1.09,3.05c0.02,3.44-0.04,35.32-0.07,49.94c-0.01,4.36-0.01,7.18-0.01,7.26" /></g></g></g></g></g></g><g fill="none" stroke="#000" stroke-width="5" stroke-linecap="round" stroke-linejoin="round"><g><g><path d="M17.25,22.14c1.63,0.86,3.05,0.81,4.87,0.44c3.8-0.76,8-1.98,12.14-3.05c2.93-0.76,4.71-0.35,3.77,2.98c-1.17,4.17-3.64,13.82-3.75,14.58" stroke-dasharray="39.27" stroke-dashoffset="39.27"><animate id="0" attributeName="stroke-dashoffset" values="39.27;0" dur="0.39s" fill="freeze" begin="0s;5f3e.click" /></path><path d="M17.75,40c0.52,0,1.52,0.41,2.75,0.28c3.91-0.42,9-1.41,11.39-1.78c1.54-0.24,3.11-0.5,4.36-0.5" stroke-dasharray="18.7" stroke-dashoffset="18.7"><animate attributeName="stroke-dashoffset" values="18.7" fill="freeze" begin="5f3e.click" /><animate id="1" attributeName="stroke-dashoffset" values="18.7;0" dur="0.19s" fill="freeze" begin="0.end" /></path><path d="M18.89,40.74c0.51,0.96,0.68,2.07,0.35,3.6c-0.28,1.31-1.87,6.91-3.23,10.7c-0.53,1.46-0.38,3.08,1.83,2.66c3.37-0.65,9.61-2,14.55-2.89c4.3-0.78,5.36,0.61,4.83,4.81c-1.12,8.96-3.07,22.25-6.48,29.31c-2.64,5.48-4.61,4.23-7.31-0.11" stroke-dasharray="83.83" stroke-dashoffset="83.83"><animate attributeName="stroke-dashoffset" values="83.83" fill="freeze" begin="5f3e.click" /><animate id="2" attributeName="stroke-dashoffset" values="83.83;0" dur="0.63s" fill="freeze" begin="1.end" /></path></g><g p4:phon="単" xmlns:p4="http://kanjivg.tagaini.net"><g><path d="M47.4,19.78c2.48,3.19,5.13,8.76,5.49,10.36" stroke-dasharray="11.77" stroke-dashoffset="11.77"><animate attributeName="stroke-dashoffset" values="11.77" fill="freeze" begin="5f3e.click" /><animate id="3" attributeName="stroke-dashoffset" values="11.77;0" dur="0.12s" fill="freeze" begin="2.end" /></path><path d="M61.95,14.94c2.68,3.06,5.07,7.71,5.67,11.16" stroke-dasharray="12.65" stroke-dashoffset="12.65"><animate attributeName="stroke-dashoffset" values="12.65" fill="freeze" begin="5f3e.click" /><animate id="4" attributeName="stroke-dashoffset" values="12.65;0" dur="0.13s" fill="freeze" begin="3.end" /></path><path d="M87.39,12.5c0.36,1,0.12,2.11-0.42,3.32c-1.6,3.56-4.22,8.06-6.6,11.53" stroke-dasharray="16.73" stroke-dashoffset="16.73"><animate attributeName="stroke-dashoffset" values="16.73" fill="freeze" begin="5f3e.click" /><animate id="5" attributeName="stroke-dashoffset" values="16.73;0" dur="0.17s" fill="freeze" begin="4.end" /></path></g><g p4:part="1"><g p4:partial><path d="M47.52,37.77c0.92,0.92,1.55,2.22,1.68,2.75c0.85,3.6,2.71,12.37,3.72,17.85c0.38,2.09,0.65,3.6,0.68,3.96" stroke-dasharray="25.5" stroke-dashoffset="25.5"><animate attributeName="stroke-dashoffset" values="25.5" fill="freeze" begin="5f3e.click" /><animate id="6" attributeName="stroke-dashoffset" values="25.5;0" dur="0.26s" fill="freeze" begin="5.end" /></path><path d="M49.29,38.5c9.82-1.88,26.57-4.25,33.73-5.08c3.26-0.38,5.67-0.05,5.21,3.75c-0.51,4.18-2.84,13.25-3.95,18.05c-0.4,1.75-0.71,3.03-0.82,3.48" stroke-dasharray="64.14" stroke-dashoffset="64.14"><animate attributeName="stroke-dashoffset" values="64.14" fill="freeze" begin="5f3e.click" /><animate id="7" attributeName="stroke-dashoffset" values="64.14;0" dur="0.48s" fill="freeze" begin="6.end" /></path><path d="M52.33,48.81c6.67-1.18,30.79-4.09,33.32-4.21" stroke-dasharray="33.59" stroke-dashoffset="33.59"><animate attributeName="stroke-dashoffset" values="33.59" fill="freeze" begin="5f3e.click" /><animate id="8" attributeName="stroke-dashoffset" values="33.59;0" dur="0.34s" fill="freeze" begin="7.end" /></path><path d="M54.07,59.89c10.3-1.39,18.55-2.64,28.95-3.27" stroke-dasharray="29.14" stroke-dashoffset="29.14"><animate attributeName="stroke-dashoffset" values="29.14" fill="freeze" begin="5f3e.click" /><animate id="9" attributeName="stroke-dashoffset" values="29.14;0" dur="0.29s" fill="freeze" begin="8.end" /></path></g><g><path d="M44.04,74.84c2.71,0.53,5.42,0.54,8.09,0.1c10.87-1.81,24.91-3.44,38-4.58c2.62-0.23,4.98-0.04,7.57,0.47" stroke-dasharray="54.03" stroke-dashoffset="54.03"><animate attributeName="stroke-dashoffset" values="54.03" fill="freeze" begin="5f3e.click" /><animate id="10" attributeName="stroke-dashoffset" values="54.03;0" dur="0.54s" fill="freeze" begin="9.end" /></path></g><g p4:part="2"><g><path d="M67.13,38.01c0.8,0.8,1.08,1.96,1.09,3.05c0.02,3.44-0.04,35.32-0.07,49.94c-0.01,4.36-0.01,7.18-0.01,7.26" stroke-dasharray="60.52" stroke-dashoffset="60.52"><animate attributeName="stroke-dashoffset" values="60.52" fill="freeze" begin="5f3e.click" /><animate id="11" attributeName="stroke-dashoffset" values="60.52;0" dur="0.46s" fill="freeze" begin="10.end" /></path></g></g></g></g></g></g></svg>