<svg xmlns="http://www.w3.org/2000/svg" viewBox="0 0 109 109" id="5f48"><g fill="none" stroke="#666" stroke-width="6" stroke-linecap="round" stroke-linejoin="round"><g><g><path d="M14,19.09c0.72,1.38,2.51,1.8,3.69,1.54c0.96-0.2,14.08-3.33,16.77-3.79c2.04-0.35,3.7,1.34,2.74,3.39c-0.7,1.5-2.42,7.52-3.54,11.81c-0.41,1.57-0.74,2.91-0.92,3.71" /><path d="M17.75,38.75c1.75,0,14.5-3,15.75-3s2.5-0.5,3.5-0.5" /><path d="M17.13,37.18c0.55,0.96,0.46,4.56,0.11,6.08c-0.41,1.74-1.38,8.77-1.74,9.68c-1,2.56-0.25,4.56,2.75,3.06c1.21-0.6,11.75-2.75,15.96-3.19c2.99-0.31,2,5.21,1.79,6.94c-1.09,8.88-4.97,27.2-8.75,33.5c-3.75,6.25-6.36-0.31-7.19-2.17" /></g><g><g><g><path d="M44.5,15.58c0.28,0.29,0.6,0.52,0.7,0.9c0.68,2.86,1.85,7.41,2.68,11.74c0.15,0.76,0.28,1.51,0.4,2.25" /><path d="M46.27,17.65c0.86-0.12,1.7-0.26,2.53-0.41c4.18-0.78,7.98-1.94,12-2.54c1.21-0.18,1.94,0.83,1.76,1.65c-0.59,2.78-0.88,3.98-1.66,7.43c-0.17,0.76-0.37,1.63-0.6,2.65" /><path d="M48.87,29.16c3.37-0.37,6.62-1.34,10.9-2.02c0.67-0.11,1.36-0.21,2.08-0.3" /></g><g><path d="M69.29,14.15c0.25,0.29,1,1.38,1.08,1.77c0.58,2.7,1.19,5.68,1.78,9.3c0.15,0.93,0.3,1.9,0.45,2.92" /><path d="M70.6,15.41c0.81-0.11,1.63-0.22,2.45-0.33c5.21-0.73,10.41-1.58,14.15-2.21c1.08-0.18,1.74,0.84,1.59,1.67c-0.49,2.59-1.3,5.06-2.04,7.71c-0.24,0.86-0.47,1.74-0.68,2.64" /><path d="M72.41,26.87c3.84-0.23,7.72-1.06,12.84-1.4c1.02-0.07,2.09-0.12,3.23-0.13" /></g></g><g><g><g p7:partial xmlns:p7="http://kanjivg.tagaini.net"><path d="M47.48,38.51c0.27,0.47,0.78,1.29,0.93,1.88c1.1,4.27,2.45,13.54,3.29,21.82c0.11,1.07,0.21,2.12,0.3,3.15" /><path d="M49.25,40.33c0.94-0.15,1.95-0.31,3.01-0.47c10.5-1.62,25.96-3.92,32.41-4.67c2.61-0.3,4.18,0.65,4.1,2.68c-0.14,3.68-1.82,14.72-3.02,20.92c-0.37,1.94-0.7,2.5-0.92,3.38" /><path d="M50.82,51.13c3.1-0.39,32.18-4.63,36.49-4.36" /><path d="M52.37,63.04C63,61.75,75.6,60.2,85.41,59.26" /></g></g><g><path d="M40.44,75.88c1.2,0.51,3.41,0.6,4.62,0.51c6.69-0.46,31.02-4.27,46.04-4.97c2.01-0.09,3.21,0.25,4.22,0.5" /></g><g><g><path d="M66.89,39.49c0.53,0.36,0.86,1.36,0.87,2.58c0.03,5.01,0.11,36.86,0.15,49.93c0.01,3.09,0.02,5.13,0.02,5.51" /></g></g></g></g></g></g><g fill="none" stroke="#000" stroke-width="3" stroke-linecap="round" stroke-linejoin="round"><path d="M14,19.09c0.72,1.38,2.51,1.8,3.69,1.54c0.96-0.2,14.08-3.33,16.77-3.79c2.04-0.35,3.7,1.34,2.74,3.39c-0.7,1.5-2.42,7.52-3.54,11.81c-0.41,1.57-0.74,2.91-0.92,3.71" stroke-dasharray="43.127" stroke-dashoffset="43.127"><animate attributeName="stroke-dashoffset" values="43.127;43.127;0" dur="0.431s" fill="freeze" begin="0s;5f48.click" /></path><path d="M17.75,38.75c1.75,0,14.5-3,15.75-3s2.5-0.5,3.5-0.5" stroke-dasharray="19.584" stroke-dashoffset="19.584"><animate attributeName="stroke-dashoffset" values="19.584" fill="freeze" begin="5f48.click" /><animate attributeName="stroke-dashoffset" values="19.584;19.584;0" keyTimes="0;0.687;1" dur="0.627s" fill="freeze" begin="0s;5f48.click" /></path><path d="M17.13,37.18c0.55,0.96,0.46,4.56,0.11,6.08c-0.41,1.74-1.38,8.77-1.74,9.68c-1,2.56-0.25,4.56,2.75,3.06c1.21-0.6,11.75-2.75,15.96-3.19c2.99-0.31,2,5.21,1.79,6.94c-1.09,8.88-4.97,27.2-8.75,33.5c-3.75,6.25-6.36-0.31-7.19-2.17" stroke-dasharray="92.376" stroke-dashoffset="92.376"><animate attributeName="stroke-dashoffset" values="92.376" fill="freeze" begin="5f48.click" /><animate attributeName="stroke-dashoffset" values="92.376;92.376;0" keyTimes="0;0.474;1" dur="1.322s" fill="freeze" begin="0s;5f48.click" /></path><path d="M44.5,15.58c0.28,0.29,0.6,0.52,0.7,0.9c0.68,2.86,1.85,7.41,2.68,11.74c0.15,0.76,0.28,1.51,0.4,2.25" stroke-dasharray="15.485" stroke-dashoffset="15.485"><animate attributeName="stroke-dashoffset" values="15.485" fill="freeze" begin="5f48.click" /><animate attributeName="stroke-dashoffset" values="15.485;15.485;0" keyTimes="0;0.895;1" dur="1.477s" fill="freeze" begin="0s;5f48.click" /></path><path d="M46.27,17.65c0.86-0.12,1.7-0.26,2.53-0.41c4.18-0.78,7.98-1.94,12-2.54c1.21-0.18,1.94,0.83,1.76,1.65c-0.59,2.78-0.88,3.98-1.66,7.43c-0.17,0.76-0.37,1.63-0.6,2.65" stroke-dasharray="27.997" stroke-dashoffset="27.997"><animate attributeName="stroke-dashoffset" values="27.997" fill="freeze" begin="5f48.click" /><animate attributeName="stroke-dashoffset" values="27.997;27.997;0" keyTimes="0;0.841;1" dur="1.757s" fill="freeze" begin="0s;5f48.click" /></path><path d="M48.87,29.16c3.37-0.37,6.62-1.34,10.9-2.02c0.67-0.11,1.36-0.21,2.08-0.3" stroke-dasharray="13.192" stroke-dashoffset="13.192"><animate attributeName="stroke-dashoffset" values="13.192" fill="freeze" begin="5f48.click" /><animate attributeName="stroke-dashoffset" values="13.192;13.192;0" keyTimes="0;0.93;1" dur="1.889s" fill="freeze" begin="0s;5f48.click" /></path><path d="M69.29,14.15c0.25,0.29,1,1.38,1.08,1.77c0.58,2.7,1.19,5.68,1.78,9.3c0.15,0.93,0.3,1.9,0.45,2.92" stroke-dasharray="14.509" stroke-dashoffset="14.509"><animate attributeName="stroke-dashoffset" values="14.509" fill="freeze" begin="5f48.click" /><animate attributeName="stroke-dashoffset" values="14.509;14.509;0" keyTimes="0;0.929;1" dur="2.034s" fill="freeze" begin="0s;5f48.click" /></path><path d="M70.6,15.41c0.81-0.11,1.63-0.22,2.45-0.33c5.21-0.73,10.41-1.58,14.15-2.21c1.08-0.18,1.74,0.84,1.59,1.67c-0.49,2.59-1.3,5.06-2.04,7.71c-0.24,0.86-0.47,1.74-0.68,2.64" stroke-dasharray="30.2" stroke-dashoffset="30.2"><animate attributeName="stroke-dashoffset" values="30.2" fill="freeze" begin="5f48.click" /><animate attributeName="stroke-dashoffset" values="30.2;30.2;0" keyTimes="0;0.871;1" dur="2.336s" fill="freeze" begin="0s;5f48.click" /></path><path d="M72.41,26.87c3.84-0.23,7.72-1.06,12.84-1.4c1.02-0.07,2.09-0.12,3.23-0.13" stroke-dasharray="16.153" stroke-dashoffset="16.153"><animate attributeName="stroke-dashoffset" values="16.153" fill="freeze" begin="5f48.click" /><animate attributeName="stroke-dashoffset" values="16.153;16.153;0" keyTimes="0;0.935;1" dur="2.498s" fill="freeze" begin="0s;5f48.click" /></path><path d="M47.48,38.51c0.27,0.47,0.78,1.29,0.93,1.88c1.1,4.27,2.45,13.54,3.29,21.82c0.11,1.07,0.21,2.12,0.3,3.15" stroke-dasharray="27.349" stroke-dashoffset="27.349"><animate attributeName="stroke-dashoffset" values="27.349" fill="freeze" begin="5f48.click" /><animate attributeName="stroke-dashoffset" values="27.349;27.349;0" keyTimes="0;0.901;1" dur="2.771s" fill="freeze" begin="0s;5f48.click" /></path><path d="M49.25,40.33c0.94-0.15,1.95-0.31,3.01-0.47c10.5-1.62,25.96-3.92,32.41-4.67c2.61-0.3,4.18,0.65,4.1,2.68c-0.14,3.68-1.82,14.72-3.02,20.92c-0.37,1.94-0.7,2.5-0.92,3.38" stroke-dasharray="66.17" stroke-dashoffset="66.17"><animate attributeName="stroke-dashoffset" values="66.17" fill="freeze" begin="5f48.click" /><animate attributeName="stroke-dashoffset" values="66.17;66.17;0" keyTimes="0;0.848;1" dur="3.269s" fill="freeze" begin="0s;5f48.click" /></path><path d="M50.82,51.13c3.1-0.39,32.18-4.63,36.49-4.36" stroke-dasharray="36.766" stroke-dashoffset="36.766"><animate attributeName="stroke-dashoffset" values="36.766" fill="freeze" begin="5f48.click" /><animate attributeName="stroke-dashoffset" values="36.766;36.766;0" keyTimes="0;0.899;1" dur="3.637s" fill="freeze" begin="0s;5f48.click" /></path><path d="M52.37,63.04C63,61.75,75.6,60.2,85.41,59.26" stroke-dasharray="33.257" stroke-dashoffset="33.257"><animate attributeName="stroke-dashoffset" values="33.257" fill="freeze" begin="5f48.click" /><animate attributeName="stroke-dashoffset" values="33.257;33.257;0" keyTimes="0;0.916;1" dur="3.97s" fill="freeze" begin="0s;5f48.click" /></path><path d="M40.44,75.88c1.2,0.51,3.41,0.6,4.62,0.51c6.69-0.46,31.02-4.27,46.04-4.97c2.01-0.09,3.21,0.25,4.22,0.5" stroke-dasharray="55.268" stroke-dashoffset="55.268"><animate attributeName="stroke-dashoffset" values="55.268" fill="freeze" begin="5f48.click" /><animate attributeName="stroke-dashoffset" values="55.268;55.268;0" keyTimes="0;0.878;1" dur="4.523s" fill="freeze" begin="0s;5f48.click" /></path><path d="M66.89,39.49c0.53,0.36,0.86,1.36,0.87,2.58c0.03,5.01,0.11,36.86,0.15,49.93c0.01,3.09,0.02,5.13,0.02,5.51" stroke-dasharray="58.252" stroke-dashoffset="58.252"><animate attributeName="stroke-dashoffset" values="58.252" fill="freeze" begin="5f48.click" /><animate attributeName="stroke-dashoffset" values="58.252;58.252;0" keyTimes="0;0.886;1" dur="5.106s" fill="freeze" begin="0s;5f48.click" /></path></g></svg>