<svg xmlns="http://www.w3.org/2000/svg" width="109" height="109" viewBox="0 0 109 109" id="5f61"><g fill="none" stroke="#666" stroke-width="9" stroke-linecap="round" stroke-linejoin="round"><g><g><path d="M66.25,14.5c0.1,0.67,0.37,1.83-0.21,2.71C62.25,23,51,35.25,30.72,42.16" /></g><g><path d="M74.96,36.36c0.12,0.71,0.42,1.95-0.23,2.87c-4.47,6.27-18.47,20.52-41.03,27.44" /></g><g><path d="M81.75,59c0.15,0.91,0.31,2.33-0.29,3.63C77.93,70.25,57.62,87,29.82,97.25" /></g></g></g><g fill="none" stroke="#000" stroke-width="5" stroke-linecap="round" stroke-linejoin="round"><g><g><path d="M66.25,14.5c0.1,0.67,0.37,1.83-0.21,2.71C62.25,23,51,35.25,30.72,42.16" stroke-dasharray="46.738" stroke-dashoffset="46.738"><animate attributeName="stroke-dashoffset" values="46.738;46.738;0" dur="0.467s" fill="freeze" begin="0s;5f61.click" /></path></g><g><path d="M74.96,36.36c0.12,0.71,0.42,1.95-0.23,2.87c-4.47,6.27-18.47,20.52-41.03,27.44" stroke-dasharray="53.088" stroke-dashoffset="53.088"><animate attributeName="stroke-dashoffset" values="53.088" fill="freeze" begin="5f61.click" /><animate attributeName="stroke-dashoffset" values="53.088;53.088;0" keyTimes="0;0.468;1" dur="0.998s" fill="freeze" begin="0s;5f61.click" /></path></g><g><path d="M81.75,59c0.15,0.91,0.31,2.33-0.29,3.63C77.93,70.25,57.62,87,29.82,97.25" stroke-dasharray="66.787" stroke-dashoffset="66.787"><animate attributeName="stroke-dashoffset" values="66.787" fill="freeze" begin="5f61.click" /><animate attributeName="stroke-dashoffset" values="66.787;66.787;0" keyTimes="0;0.665;1" dur="1.5s" fill="freeze" begin="0s;5f61.click" /></path></g></g></g></svg>