<svg xmlns="http://www.w3.org/2000/svg" width="109" height="109" viewBox="0 0 109 109" id="5f62"><g fill="none" stroke="#666" stroke-width="9" stroke-linecap="round" stroke-linejoin="round"><g><g p4:partial p4:phon="幵" xmlns:p4="http://kanjivg.tagaini.net"><g><path d="M19.63,23.42c1.2,0.38,3.39,0.46,4.59,0.38c4.66-0.3,16.61-2.55,25.33-3.88c1.96-0.3,3.83-0.32,4.83-0.13" /><g><path d="M10.88,51.92c1.82,0.38,4.24,0.39,6.04,0.13c13.24-1.92,31.41-5.55,39.38-6.3c3.01-0.28,4.85-0.07,6.36,0.12" /><path d="M28.52,36.64c0.98,0.98,1.19,2.31,1.19,4.02C29.71,57,30.38,74.5,19,88" /></g></g><g p4:partial><g p4:partial><path d="M45.87,27.25c1,1,1.46,2.38,1.46,3.5c0,0.87-0.12,43.25-0.12,58.26c0,2.92-0.06,5.04-0.1,5.99" /></g></g></g><g><g><path d="M85.5,17.5c0.13,1.15-0.23,2.18-0.89,3.13C81.25,25.46,76,31.75,67.38,36.75" /></g><g><path d="M90.51,41.5c0.15,1.2-0.03,2.02-0.64,3.07C86.63,50.11,78.28,57.44,66.88,64" /></g><g><path d="M96.8,64.71c0.2,1.4-0.39,2.9-1.21,4.04c-4.76,6.62-15.5,17.3-31.85,24.38" /></g></g></g></g><g fill="none" stroke="#000" stroke-width="5" stroke-linecap="round" stroke-linejoin="round"><g><g p4:partial p4:phon="幵" xmlns:p4="http://kanjivg.tagaini.net"><g><path d="M19.63,23.42c1.2,0.38,3.39,0.46,4.59,0.38c4.66-0.3,16.61-2.55,25.33-3.88c1.96-0.3,3.83-0.32,4.83-0.13" stroke-dasharray="35.11" stroke-dashoffset="35.11"><animate id="0" attributeName="stroke-dashoffset" values="35.11;0" dur="0.35s" fill="freeze" begin="0s;5f62.click" /></path><g><path d="M10.88,51.92c1.82,0.38,4.24,0.39,6.04,0.13c13.24-1.92,31.41-5.55,39.38-6.3c3.01-0.28,4.85-0.07,6.36,0.12" stroke-dasharray="52.33" stroke-dashoffset="52.33"><animate attributeName="stroke-dashoffset" values="52.33" fill="freeze" begin="5f62.click" /><animate id="1" attributeName="stroke-dashoffset" values="52.33;0" dur="0.52s" fill="freeze" begin="0.end" /></path><path d="M28.52,36.64c0.98,0.98,1.19,2.31,1.19,4.02C29.71,57,30.38,74.5,19,88" stroke-dasharray="53.99" stroke-dashoffset="53.99"><animate attributeName="stroke-dashoffset" values="53.99" fill="freeze" begin="5f62.click" /><animate id="2" attributeName="stroke-dashoffset" values="53.99;0" dur="0.54s" fill="freeze" begin="1.end" /></path></g></g><g p4:partial><g p4:partial><path d="M45.87,27.25c1,1,1.46,2.38,1.46,3.5c0,0.87-0.12,43.25-0.12,58.26c0,2.92-0.06,5.04-0.1,5.99" stroke-dasharray="68.14" stroke-dashoffset="68.14"><animate attributeName="stroke-dashoffset" values="68.14" fill="freeze" begin="5f62.click" /><animate id="3" attributeName="stroke-dashoffset" values="68.14;0" dur="0.51s" fill="freeze" begin="2.end" /></path></g></g></g><g><g><path d="M85.5,17.5c0.13,1.15-0.23,2.18-0.89,3.13C81.25,25.46,76,31.75,67.38,36.75" stroke-dasharray="27.12" stroke-dashoffset="27.12"><animate attributeName="stroke-dashoffset" values="27.12" fill="freeze" begin="5f62.click" /><animate id="4" attributeName="stroke-dashoffset" values="27.12;0" dur="0.27s" fill="freeze" begin="3.end" /></path></g><g><path d="M90.51,41.5c0.15,1.2-0.03,2.02-0.64,3.07C86.63,50.11,78.28,57.44,66.88,64" stroke-dasharray="33.58" stroke-dashoffset="33.58"><animate attributeName="stroke-dashoffset" values="33.58" fill="freeze" begin="5f62.click" /><animate id="5" attributeName="stroke-dashoffset" values="33.58;0" dur="0.34s" fill="freeze" begin="4.end" /></path></g><g><path d="M96.8,64.71c0.2,1.4-0.39,2.9-1.21,4.04c-4.76,6.62-15.5,17.3-31.85,24.38" stroke-dasharray="44.87" stroke-dashoffset="44.87"><animate attributeName="stroke-dashoffset" values="44.87" fill="freeze" begin="5f62.click" /><animate id="6" attributeName="stroke-dashoffset" values="44.87;0" dur="0.45s" fill="freeze" begin="5.end" /></path></g></g></g></g></svg>