<svg xmlns="http://www.w3.org/2000/svg" width="109" height="109" viewBox="0 0 109 109" id="5f73"><g fill="none" stroke="#666" stroke-width="9" stroke-linecap="round" stroke-linejoin="round"><g><path d="M64,13c0.08,0.63,0.41,1.76-0.17,2.53C59.75,21,49,30.5,34,39.75" /><g><path d="M69,31.75c0.11,0.91,0.54,2.53-0.22,3.64C63.4,43.26,49.25,56.94,29.5,70.25" /><path d="M53.85,54.5c0.48,0.25,0.77,1.15,0.86,1.66c0.1,0.51,0,39.15-0.1,42.34" /></g></g></g><g fill="none" stroke="#000" stroke-width="5" stroke-linecap="round" stroke-linejoin="round"><g><path d="M64,13c0.08,0.63,0.41,1.76-0.17,2.53C59.75,21,49,30.5,34,39.75" stroke-dasharray="41.2" stroke-dashoffset="41.2"><animate id="0" attributeName="stroke-dashoffset" values="41.2;0" dur="0.41s" fill="freeze" begin="0s;5f73.click" /></path><g><path d="M69,31.75c0.11,0.91,0.54,2.53-0.22,3.64C63.4,43.26,49.25,56.94,29.5,70.25" stroke-dasharray="56.49" stroke-dashoffset="56.49"><animate attributeName="stroke-dashoffset" values="56.49" fill="freeze" begin="5f73.click" /><animate id="1" attributeName="stroke-dashoffset" values="56.49;0" dur="0.56s" fill="freeze" begin="0.end" /></path><path d="M53.85,54.5c0.48,0.25,0.77,1.15,0.86,1.66c0.1,0.51,0,39.15-0.1,42.34" stroke-dasharray="44.26" stroke-dashoffset="44.26"><animate attributeName="stroke-dashoffset" values="44.26" fill="freeze" begin="5f73.click" /><animate id="2" attributeName="stroke-dashoffset" values="44.26;0" dur="0.44s" fill="freeze" begin="1.end" /></path></g></g></g></svg>