<svg xmlns="http://www.w3.org/2000/svg" width="109" height="109" viewBox="0 0 109 109" id="5f79"><g fill="none" stroke="#666" stroke-width="9" stroke-linecap="round" stroke-linejoin="round"><g><g><path d="M31.35,14.5c0.12,1.15,0,1.71-0.63,2.69C27.87,21.55,21.25,29.38,14.38,34" /><g><path d="M34.62,34.25c0.13,1.55,0.03,2.63-0.62,4.06C30.5,46,23.5,55.25,12.5,65.25" /><path d="M27.08,53c0.83,0.83,1.59,2.25,1.59,4.16c0,3.36-0.04,23.53-0.06,34.47c0,2.77-0.01,4.96-0.01,6.12" /></g></g><g><g><g><path d="M51.58,16.25c0.83,0.83,1.21,2.32,1.19,3.49c-0.15,12.01-3.21,23.9-10.43,29.27" /></g><path d="M54.01,18.07c5.49-0.82,11.69-2.14,16.23-3.51c2.52-0.76,4.63,0.32,3.7,3.26c-1.23,3.85-1.74,9.31-1.74,13.32c0,6.73,2.17,9.07,9.61,9.07c8.32,0,9.86-1.34,9.86-9.04" /></g><g><path d="M49.07,53.83c1.48,0.37,3.43,0.42,5.12,0.12c2.96-0.54,17.69-3.92,19.7-4.55c2.86-0.89,4.74,0.73,3.27,3.78C67.74,72.76,55,86.75,39,95.01" /><path d="M47.48,63.25c8.58,0.47,22.08,17.31,37.83,26.65c2.92,1.73,6.12,3.63,9.49,4.27" /></g></g></g></g><g fill="none" stroke="#000" stroke-width="5" stroke-linecap="round" stroke-linejoin="round"><path d="M31.35,14.5c0.12,1.15,0,1.71-0.63,2.69C27.87,21.55,21.25,29.38,14.38,34" stroke-dasharray="26.407" stroke-dashoffset="26.407"><animate attributeName="stroke-dashoffset" values="26.407;26.407;0" dur="0.264s" fill="freeze" begin="0s;5f79.click" /></path><path d="M34.62,34.25c0.13,1.55,0.03,2.63-0.62,4.06C30.5,46,23.5,55.25,12.5,65.25" stroke-dasharray="38.849" stroke-dashoffset="38.849"><animate attributeName="stroke-dashoffset" values="38.849" fill="freeze" begin="5f79.click" /><animate attributeName="stroke-dashoffset" values="38.849;38.849;0" keyTimes="0;0.405;1" dur="0.652s" fill="freeze" begin="0s;5f79.click" /></path><path d="M27.08,53c0.83,0.83,1.59,2.25,1.59,4.16c0,3.36-0.04,23.53-0.06,34.47c0,2.77-0.01,4.96-0.01,6.12" stroke-dasharray="45.159" stroke-dashoffset="45.159"><animate attributeName="stroke-dashoffset" values="45.159" fill="freeze" begin="5f79.click" /><animate attributeName="stroke-dashoffset" values="45.159;45.159;0" keyTimes="0;0.591;1" dur="1.104s" fill="freeze" begin="0s;5f79.click" /></path><path d="M51.58,16.25c0.83,0.83,1.21,2.32,1.19,3.49c-0.15,12.01-3.21,23.9-10.43,29.27" stroke-dasharray="35.855" stroke-dashoffset="35.855"><animate attributeName="stroke-dashoffset" values="35.855" fill="freeze" begin="5f79.click" /><animate attributeName="stroke-dashoffset" values="35.855;35.855;0" keyTimes="0;0.755;1" dur="1.463s" fill="freeze" begin="0s;5f79.click" /></path><path d="M54.01,18.07c5.49-0.82,11.69-2.14,16.23-3.51c2.52-0.76,4.63,0.32,3.7,3.26c-1.23,3.85-1.74,9.31-1.74,13.32c0,6.73,2.17,9.07,9.61,9.07c8.32,0,9.86-1.34,9.86-9.04" stroke-dasharray="68.45" stroke-dashoffset="68.45"><animate attributeName="stroke-dashoffset" values="68.45" fill="freeze" begin="5f79.click" /><animate attributeName="stroke-dashoffset" values="68.45;68.45;0" keyTimes="0;0.74;1" dur="1.978s" fill="freeze" begin="0s;5f79.click" /></path><path d="M49.07,53.83c1.48,0.37,3.43,0.42,5.12,0.12c2.96-0.54,17.69-3.92,19.7-4.55c2.86-0.89,4.74,0.73,3.27,3.78C67.74,72.76,55,86.75,39,95.01" stroke-dasharray="90.058" stroke-dashoffset="90.058"><animate attributeName="stroke-dashoffset" values="90.058" fill="freeze" begin="5f79.click" /><animate attributeName="stroke-dashoffset" values="90.058;90.058;0" keyTimes="0;0.745;1" dur="2.655s" fill="freeze" begin="0s;5f79.click" /></path><path d="M47.48,63.25c8.58,0.47,22.08,17.31,37.83,26.65c2.92,1.73,6.12,3.63,9.49,4.27" stroke-dasharray="57.092" stroke-dashoffset="57.092"><animate attributeName="stroke-dashoffset" values="57.092" fill="freeze" begin="5f79.click" /><animate attributeName="stroke-dashoffset" values="57.092;57.092;0" keyTimes="0;0.823;1" dur="3.226s" fill="freeze" begin="0s;5f79.click" /></path></g></svg>