<svg xmlns="http://www.w3.org/2000/svg" width="109" height="109" viewBox="0 0 109 109" id="5f85"><g fill="none" stroke="#666" stroke-width="9" stroke-linecap="round" stroke-linejoin="round"><g><g><path d="M35.33,15.25c0.15,1.08-0.22,1.8-0.92,2.65c-3.3,4-9.9,10.35-18.79,15.35" /><g><path d="M35.84,32.75c0.07,0.75-0.17,2.1-0.64,3.03c-3.32,6.54-11.54,17.41-23.7,28.47" /><path d="M25.97,52c1.01,1.01,1.41,2.5,1.41,3.88c0,5.46,0,27.73-0.05,37.12c-0.01,2.05-0.02,3.49-0.03,4" /></g></g><g p4:phon="寺" xmlns:p4="http://kanjivg.tagaini.net"><g><path d="M48.11,27.78c2.02,0.35,3.66,0.24,5.4,0.02c6.01-0.75,17.57-2.51,25.74-2.93c1.72-0.09,3.42-0.18,5.11,0.21" /><path d="M64.35,11.87c1.14,1.14,1.51,2.32,1.51,4c0,8.76-0.06,22.88-0.06,25.35" /><path d="M39.63,44.1c2.87,0.65,5.83,0.36,8.61,0.05c15.05-1.65,30.01-3.28,42.26-4.08c2.44-0.16,4.98-0.33,7.38,0.15" /></g><g><path d="M40.03,60.99c2.22,0.51,4.77,0.43,6.99,0.25c10.69-0.9,30.7-3.37,41.36-4.03c2.47-0.15,4.91-0.3,7.34,0.29" /><path d="M76.25,47.5c1,1.25,1.91,3,1.91,4.9c0,12.98-0.13,36.67-0.13,40.77c0,7.31-4.78,3.71-8.05-0.04" /><path d="M54.03,70.38c2.91,1.83,7.51,7.53,8.24,10.38" /></g></g></g></g><g fill="none" stroke="#000" stroke-width="5" stroke-linecap="round" stroke-linejoin="round"><g><g><path d="M35.33,15.25c0.15,1.08-0.22,1.8-0.92,2.65c-3.3,4-9.9,10.35-18.79,15.35" stroke-dasharray="27.29" stroke-dashoffset="27.29"><animate id="0" attributeName="stroke-dashoffset" values="27.29;0" dur="0.27s" fill="freeze" begin="0s;5f85.click" /></path><g><path d="M35.84,32.75c0.07,0.75-0.17,2.1-0.64,3.03c-3.32,6.54-11.54,17.41-23.7,28.47" stroke-dasharray="40.34" stroke-dashoffset="40.34"><animate attributeName="stroke-dashoffset" values="40.34" fill="freeze" begin="5f85.click" /><animate id="1" attributeName="stroke-dashoffset" values="40.34;0" dur="0.4s" fill="freeze" begin="0.end" /></path><path d="M25.97,52c1.01,1.01,1.41,2.5,1.41,3.88c0,5.46,0,27.73-0.05,37.12c-0.01,2.05-0.02,3.49-0.03,4" stroke-dasharray="45.35" stroke-dashoffset="45.35"><animate attributeName="stroke-dashoffset" values="45.35" fill="freeze" begin="5f85.click" /><animate id="2" attributeName="stroke-dashoffset" values="45.35;0" dur="0.45s" fill="freeze" begin="1.end" /></path></g></g><g p4:phon="寺" xmlns:p4="http://kanjivg.tagaini.net"><g><path d="M48.11,27.78c2.02,0.35,3.66,0.24,5.4,0.02c6.01-0.75,17.57-2.51,25.74-2.93c1.72-0.09,3.42-0.18,5.11,0.21" stroke-dasharray="36.47" stroke-dashoffset="36.47"><animate attributeName="stroke-dashoffset" values="36.47" fill="freeze" begin="5f85.click" /><animate id="3" attributeName="stroke-dashoffset" values="36.47;0" dur="0.36s" fill="freeze" begin="2.end" /></path><path d="M64.35,11.87c1.14,1.14,1.51,2.32,1.51,4c0,8.76-0.06,22.88-0.06,25.35" stroke-dasharray="29.76" stroke-dashoffset="29.76"><animate attributeName="stroke-dashoffset" values="29.76" fill="freeze" begin="5f85.click" /><animate id="4" attributeName="stroke-dashoffset" values="29.76;0" dur="0.3s" fill="freeze" begin="3.end" /></path><path d="M39.63,44.1c2.87,0.65,5.83,0.36,8.61,0.05c15.05-1.65,30.01-3.28,42.26-4.08c2.44-0.16,4.98-0.33,7.38,0.15" stroke-dasharray="58.52" stroke-dashoffset="58.52"><animate attributeName="stroke-dashoffset" values="58.52" fill="freeze" begin="5f85.click" /><animate id="5" attributeName="stroke-dashoffset" values="58.52;0" dur="0.59s" fill="freeze" begin="4.end" /></path></g><g><path d="M40.03,60.99c2.22,0.51,4.77,0.43,6.99,0.25c10.69-0.9,30.7-3.37,41.36-4.03c2.47-0.15,4.91-0.3,7.34,0.29" stroke-dasharray="55.95" stroke-dashoffset="55.95"><animate attributeName="stroke-dashoffset" values="55.95" fill="freeze" begin="5f85.click" /><animate id="6" attributeName="stroke-dashoffset" values="55.95;0" dur="0.56s" fill="freeze" begin="5.end" /></path><path d="M76.25,47.5c1,1.25,1.91,3,1.91,4.9c0,12.98-0.13,36.67-0.13,40.77c0,7.31-4.78,3.71-8.05-0.04" stroke-dasharray="58.87" stroke-dashoffset="58.87"><animate attributeName="stroke-dashoffset" values="58.87" fill="freeze" begin="5f85.click" /><animate id="7" attributeName="stroke-dashoffset" values="58.87;0" dur="0.59s" fill="freeze" begin="6.end" /></path><path d="M54.03,70.38c2.91,1.83,7.51,7.53,8.24,10.38" stroke-dasharray="13.43" stroke-dashoffset="13.43"><animate attributeName="stroke-dashoffset" values="13.43" fill="freeze" begin="5f85.click" /><animate id="8" attributeName="stroke-dashoffset" values="13.43;0" dur="0.13s" fill="freeze" begin="7.end" /></path></g></g></g></g></svg>