<svg xmlns="http://www.w3.org/2000/svg" width="109" height="109" viewBox="0 0 109 109" id="5f90"><g fill="none" stroke="#666" stroke-width="6" stroke-linecap="round" stroke-linejoin="round"><g><g><path d="M30.83,17c0.06,0.44-0.21,1.73-0.62,2.27C27.36,23.11,20.12,30.75,11.12,36" /><g><path d="M33.6,35.5c0.07,0.71-0.18,1.97-0.63,2.84C29.78,44.47,21.62,56.5,10.25,66" /><path d="M23.22,54.5c0.95,0.95,1.4,2.12,1.4,3.16c0,4.22-0.02,26.09-0.02,32.59c0,3.72-0.03,6.47-0.05,7.25" /></g></g><g p4:phon="余" xmlns:p4="http://kanjivg.tagaini.net"><g><path d="M60.54,13c0.1,0.9-0.15,2.14-0.7,3.38C56,25.25,48.75,39.5,33.71,51.32" /><path d="M61.04,16.99c3.61,4.41,17.88,17.85,25.61,24.86c2.45,2.22,5.25,4.35,8.13,5.96" /></g><g><path d="M48,46.97c1.44,0.59,3.89,0.67,5.4,0.53c5.61-0.51,13.88-1.69,19.1-2.17c1.68-0.15,3.35-0.43,5,0.02" /><path d="M41.48,62.96c2.39,0.79,5.35,0.99,7.4,0.81c8.29-0.75,22.23-2.27,29.75-2.77c1.98-0.13,4.12-0.19,6.08,0.23" /><g><path d="M61.79,48.8c1.14,1.14,1.46,2.57,1.46,4.55c0,18.93,0,31.51,0,36.27c0,10.8-5.96,1.92-7.4,0.72" /><path d="M49.97,72.75c0.12,1.05-0.06,2.07-0.62,2.99c-2.26,3.73-6.49,8.56-13.97,13.77" /><path d="M74,74.12c4.93,2.66,12.73,10.94,13.96,15.08" /></g></g></g></g></g><g fill="none" stroke="#000" stroke-width="3" stroke-linecap="round" stroke-linejoin="round"><path d="M30.83,17c0.06,0.44-0.21,1.73-0.62,2.27C27.36,23.11,20.12,30.75,11.12,36" stroke-dasharray="27.916" stroke-dashoffset="27.916"><animate attributeName="stroke-dashoffset" values="27.916;27.916;0" dur="0.279s" fill="freeze" begin="0s;5f90.click" /></path><path d="M33.6,35.5c0.07,0.71-0.18,1.97-0.63,2.84C29.78,44.47,21.62,56.5,10.25,66" stroke-dasharray="38.934" stroke-dashoffset="38.934"><animate attributeName="stroke-dashoffset" values="38.934" fill="freeze" begin="5f90.click" /><animate attributeName="stroke-dashoffset" values="38.934;38.934;0" keyTimes="0;0.418;1" dur="0.668s" fill="freeze" begin="0s;5f90.click" /></path><path d="M23.22,54.5c0.95,0.95,1.4,2.12,1.4,3.16c0,4.22-0.02,26.09-0.02,32.59c0,3.72-0.03,6.47-0.05,7.25" stroke-dasharray="43.386" stroke-dashoffset="43.386"><animate attributeName="stroke-dashoffset" values="43.386" fill="freeze" begin="5f90.click" /><animate attributeName="stroke-dashoffset" values="43.386;43.386;0" keyTimes="0;0.606;1" dur="1.102s" fill="freeze" begin="0s;5f90.click" /></path><path d="M60.54,13c0.1,0.9-0.15,2.14-0.7,3.38C56,25.25,48.75,39.5,33.71,51.32" stroke-dasharray="47.59" stroke-dashoffset="47.59"><animate attributeName="stroke-dashoffset" values="47.59" fill="freeze" begin="5f90.click" /><animate attributeName="stroke-dashoffset" values="47.59;47.59;0" keyTimes="0;0.698;1" dur="1.578s" fill="freeze" begin="0s;5f90.click" /></path><path d="M61.04,16.99c3.61,4.41,17.88,17.85,25.61,24.86c2.45,2.22,5.25,4.35,8.13,5.96" stroke-dasharray="45.809" stroke-dashoffset="45.809"><animate attributeName="stroke-dashoffset" values="45.809" fill="freeze" begin="5f90.click" /><animate attributeName="stroke-dashoffset" values="45.809;45.809;0" keyTimes="0;0.775;1" dur="2.036s" fill="freeze" begin="0s;5f90.click" /></path><path d="M48,46.97c1.44,0.59,3.89,0.67,5.4,0.53c5.61-0.51,13.88-1.69,19.1-2.17c1.68-0.15,3.35-0.43,5,0.02" stroke-dasharray="29.722" stroke-dashoffset="29.722"><animate attributeName="stroke-dashoffset" values="29.722" fill="freeze" begin="5f90.click" /><animate attributeName="stroke-dashoffset" values="29.722;29.722;0" keyTimes="0;0.873;1" dur="2.333s" fill="freeze" begin="0s;5f90.click" /></path><path d="M41.48,62.96c2.39,0.79,5.35,0.99,7.4,0.81c8.29-0.75,22.23-2.27,29.75-2.77c1.98-0.13,4.12-0.19,6.08,0.23" stroke-dasharray="43.474" stroke-dashoffset="43.474"><animate attributeName="stroke-dashoffset" values="43.474" fill="freeze" begin="5f90.click" /><animate attributeName="stroke-dashoffset" values="43.474;43.474;0" keyTimes="0;0.843;1" dur="2.768s" fill="freeze" begin="0s;5f90.click" /></path><path d="M61.79,48.8c1.14,1.14,1.46,2.57,1.46,4.55c0,18.93,0,31.51,0,36.27c0,10.8-5.96,1.92-7.4,0.72" stroke-dasharray="54.576" stroke-dashoffset="54.576"><animate attributeName="stroke-dashoffset" values="54.576" fill="freeze" begin="5f90.click" /><animate attributeName="stroke-dashoffset" values="54.576;54.576;0" keyTimes="0;0.835;1" dur="3.314s" fill="freeze" begin="0s;5f90.click" /></path><path d="M49.97,72.75c0.12,1.05-0.06,2.07-0.62,2.99c-2.26,3.73-6.49,8.56-13.97,13.77" stroke-dasharray="22.864" stroke-dashoffset="22.864"><animate attributeName="stroke-dashoffset" values="22.864" fill="freeze" begin="5f90.click" /><animate attributeName="stroke-dashoffset" values="22.864;22.864;0" keyTimes="0;0.935;1" dur="3.543s" fill="freeze" begin="0s;5f90.click" /></path><path d="M74,74.12c4.93,2.66,12.73,10.94,13.96,15.08" stroke-dasharray="20.847" stroke-dashoffset="20.847"><animate attributeName="stroke-dashoffset" values="20.847" fill="freeze" begin="5f90.click" /><animate attributeName="stroke-dashoffset" values="20.847;20.847;0" keyTimes="0;0.945;1" dur="3.751s" fill="freeze" begin="0s;5f90.click" /></path></g></svg>