<svg xmlns="http://www.w3.org/2000/svg" width="109" height="109" viewBox="0 0 109 109" id="5f91"><g fill="none" stroke="#666" stroke-width="9" stroke-linecap="round" stroke-linejoin="round"><g><g><path d="M35.08,16.25c0.06,0.44,0.28,1.21-0.11,1.75c-2.75,3.78-11.03,12.9-19.1,16.75" /><g><path d="M37.34,33.75c0.07,0.68,0.34,1.9-0.14,2.74c-3.35,5.93-12.6,17.8-24.45,26.26" /><path d="M28.22,52.5c0.36,0.25,1.07,1.65,1.15,2.16c0.07,0.51,0,37.15-0.07,40.34" /></g></g><g><g><path d="M44.5,20.28c1.56,0.19,3.09,0.45,4.25,0.39c8.5-0.42,22.84-3.59,34.91-3.58c1.95,0,3.11,0.19,4.09,0.38" /></g><g><path d="M50.98,27.32c0.27,0.93,0.36,1.57-0.02,2.34c-2.21,4.59-4.11,8.9-8.46,13.79c-0.84,0.94-0.4,0.93,0,1.22C47,48,50.25,51.5,53.45,57.25" /><path d="M66.3,25.12c0.45,0.88,0.4,2.61-0.02,3.34c-2.23,3.92-3.5,7.6-7.69,12.18c-0.46,0.5-0.25,1.03,0.16,1.32c5,3.54,7.38,6.46,9.96,13.38" /><path d="M82.06,23.52c0.44,0.73,0.37,2.1-0.02,2.84c-2.04,3.89-3.79,6.89-7.66,11.69c-0.42,0.53-0.21,0.99,0.16,1.32c4.96,4.38,8.88,7.05,11.46,13.97" /></g><g><path d="M47.31,65.43c0.69,0.27,2.95,0.36,3.65,0.28c3.26-0.37,27.37-2.98,32.84-3.26c1.07-0.05,2.04,0.05,2.92,0.28" /><path d="M63.86,65.81c1.65,1.48,1.65,2.36,1.65,3.54c0,8.27-0.05,6.3-0.05,20.48" /><path d="M38.5,91.61c0.78,0.26,3.56,0.53,4.87,0.41c14.19-1.26,33.75-3.79,46.66-4.18c2.12-0.06,4.66,0.43,5.72,0.83" /></g></g></g></g><g fill="none" stroke="#000" stroke-width="5" stroke-linecap="round" stroke-linejoin="round"><g><g><path d="M35.08,16.25c0.06,0.44,0.28,1.21-0.11,1.75c-2.75,3.78-11.03,12.9-19.1,16.75" stroke-dasharray="27.41" stroke-dashoffset="27.41"><animate id="0" attributeName="stroke-dashoffset" values="27.41;0" dur="0.27s" fill="freeze" begin="0s;5f91.click" /></path><g><path d="M37.34,33.75c0.07,0.68,0.34,1.9-0.14,2.74c-3.35,5.93-12.6,17.8-24.45,26.26" stroke-dasharray="38.9" stroke-dashoffset="38.9"><animate attributeName="stroke-dashoffset" values="38.9" fill="freeze" begin="5f91.click" /><animate id="1" attributeName="stroke-dashoffset" values="38.9;0" dur="0.39s" fill="freeze" begin="0.end" /></path><path d="M28.22,52.5c0.36,0.25,1.07,1.65,1.15,2.16c0.07,0.51,0,37.15-0.07,40.34" stroke-dasharray="42.81" stroke-dashoffset="42.81"><animate attributeName="stroke-dashoffset" values="42.81" fill="freeze" begin="5f91.click" /><animate id="2" attributeName="stroke-dashoffset" values="42.81;0" dur="0.43s" fill="freeze" begin="1.end" /></path></g></g><g><g><path d="M44.5,20.28c1.56,0.19,3.09,0.45,4.25,0.39c8.5-0.42,22.84-3.59,34.91-3.58c1.95,0,3.11,0.19,4.09,0.38" stroke-dasharray="43.51" stroke-dashoffset="43.51"><animate attributeName="stroke-dashoffset" values="43.51" fill="freeze" begin="5f91.click" /><animate id="3" attributeName="stroke-dashoffset" values="43.51;0" dur="0.44s" fill="freeze" begin="2.end" /></path></g><g><path d="M50.98,27.32c0.27,0.93,0.36,1.57-0.02,2.34c-2.21,4.59-4.11,8.9-8.46,13.79c-0.84,0.94-0.4,0.93,0,1.22C47,48,50.25,51.5,53.45,57.25" stroke-dasharray="37.08" stroke-dashoffset="37.08"><animate attributeName="stroke-dashoffset" values="37.08" fill="freeze" begin="5f91.click" /><animate id="4" attributeName="stroke-dashoffset" values="37.08;0" dur="0.37s" fill="freeze" begin="3.end" /></path><path d="M66.3,25.12c0.45,0.88,0.4,2.61-0.02,3.34c-2.23,3.92-3.5,7.6-7.69,12.18c-0.46,0.5-0.25,1.03,0.16,1.32c5,3.54,7.38,6.46,9.96,13.38" stroke-dasharray="36.44" stroke-dashoffset="36.44"><animate attributeName="stroke-dashoffset" values="36.44" fill="freeze" begin="5f91.click" /><animate id="5" attributeName="stroke-dashoffset" values="36.44;0" dur="0.36s" fill="freeze" begin="4.end" /></path><path d="M82.06,23.52c0.44,0.73,0.37,2.1-0.02,2.84c-2.04,3.89-3.79,6.89-7.66,11.69c-0.42,0.53-0.21,0.99,0.16,1.32c4.96,4.38,8.88,7.05,11.46,13.97" stroke-dasharray="36.76" stroke-dashoffset="36.76"><animate attributeName="stroke-dashoffset" values="36.76" fill="freeze" begin="5f91.click" /><animate id="6" attributeName="stroke-dashoffset" values="36.76;0" dur="0.37s" fill="freeze" begin="5.end" /></path></g><g><path d="M47.31,65.43c0.69,0.27,2.95,0.36,3.65,0.28c3.26-0.37,27.37-2.98,32.84-3.26c1.07-0.05,2.04,0.05,2.92,0.28" stroke-dasharray="39.62" stroke-dashoffset="39.62"><animate attributeName="stroke-dashoffset" values="39.62" fill="freeze" begin="5f91.click" /><animate id="7" attributeName="stroke-dashoffset" values="39.62;0" dur="0.4s" fill="freeze" begin="6.end" /></path><path d="M63.86,65.81c1.65,1.48,1.65,2.36,1.65,3.54c0,8.27-0.05,6.3-0.05,20.48" stroke-dasharray="24.56" stroke-dashoffset="24.56"><animate attributeName="stroke-dashoffset" values="24.56" fill="freeze" begin="5f91.click" /><animate id="8" attributeName="stroke-dashoffset" values="24.56;0" dur="0.25s" fill="freeze" begin="7.end" /></path><path d="M38.5,91.61c0.78,0.26,3.56,0.53,4.87,0.41c14.19-1.26,33.75-3.79,46.66-4.18c2.12-0.06,4.66,0.43,5.72,0.83" stroke-dasharray="57.56" stroke-dashoffset="57.56"><animate attributeName="stroke-dashoffset" values="57.56" fill="freeze" begin="5f91.click" /><animate id="9" attributeName="stroke-dashoffset" values="57.56;0" dur="0.58s" fill="freeze" begin="8.end" /></path></g></g></g></g></svg>