<svg xmlns="http://www.w3.org/2000/svg" width="109" height="109" viewBox="0 0 109 109" id="5f9e"><g fill="none" stroke="#666" stroke-width="9" stroke-linecap="round" stroke-linejoin="round"><g><g><path d="M35.08,16.75c0.06,0.51,0.27,1.41-0.11,2.03c-2.71,4.4-10.89,14.99-18.86,19.47" /><g><path d="M39.34,32.75c0.07,0.68,0.34,1.9-0.14,2.74c-3.38,5.93-12.73,17.8-24.7,26.26" /><path d="M28.72,53c0.36,0.25,1.07,1.65,1.15,2.16c0.07,0.51,0,37.15-0.07,40.34" /></g></g><g><g><g><path d="M57.61,16.99c0,0.6,0.03,1.08-0.08,1.8c-0.58,3.75-6.07,16.28-10.77,21.83" /><path d="M56.05,31.21c2.88,1.58,6.57,5.8,7.98,9.79" /></g><g><path d="M82.85,17.49c0,0.6,0.03,1.08-0.09,1.8c-0.62,3.75-6.51,16.28-11.55,21.83" /><path d="M80.36,29.46c4.17,1.99,9.5,7.27,11.54,12.29" /></g></g><g><path d="M65.86,47c0.39,0.46,1.31,2.48,1.31,3.4c0,6.25,0.36,26.41,0.28,32.13" /><path d="M67.53,62.2C68.51,62.2,75.4,60.74,81.43,59.54C82.71,59.29,83.91,59.27,84.92,59.27" /><path d="M51.37,60.81c0.07,0.78,0.52,1.99,0.35,3.13C50.25,73.75,49,82.25,38.5,91.71" /><path d="M49.83,74.47c10.81,3.83,29.35,15.34,36.4,17.32c2.24,0.63,4.11,1.21,6.27,1.46" /></g></g></g></g><g fill="none" stroke="#000" stroke-width="5" stroke-linecap="round" stroke-linejoin="round"><path d="M35.08,16.75c0.06,0.51,0.27,1.41-0.11,2.03c-2.71,4.4-10.89,14.99-18.86,19.47" stroke-dasharray="29.404" stroke-dashoffset="29.404"><animate attributeName="stroke-dashoffset" values="29.404;29.404;0" dur="0.294s" fill="freeze" begin="0s;5f9e.click" /></path><path d="M39.34,32.75c0.07,0.68,0.34,1.9-0.14,2.74c-3.38,5.93-12.73,17.8-24.7,26.26" stroke-dasharray="39.077" stroke-dashoffset="39.077"><animate attributeName="stroke-dashoffset" values="39.077" fill="freeze" begin="5f9e.click" /><animate attributeName="stroke-dashoffset" values="39.077;39.077;0" keyTimes="0;0.429;1" dur="0.685s" fill="freeze" begin="0s;5f9e.click" /></path><path d="M28.72,53c0.36,0.25,1.07,1.65,1.15,2.16c0.07,0.51,0,37.15-0.07,40.34" stroke-dasharray="42.815" stroke-dashoffset="42.815"><animate attributeName="stroke-dashoffset" values="42.815" fill="freeze" begin="5f9e.click" /><animate attributeName="stroke-dashoffset" values="42.815;42.815;0" keyTimes="0;0.615;1" dur="1.113s" fill="freeze" begin="0s;5f9e.click" /></path><path d="M57.61,16.99c0,0.6,0.03,1.08-0.08,1.8c-0.58,3.75-6.07,16.28-10.77,21.83" stroke-dasharray="26.302" stroke-dashoffset="26.302"><animate attributeName="stroke-dashoffset" values="26.302" fill="freeze" begin="5f9e.click" /><animate attributeName="stroke-dashoffset" values="26.302;26.302;0" keyTimes="0;0.809;1" dur="1.376s" fill="freeze" begin="0s;5f9e.click" /></path><path d="M56.05,31.21c2.88,1.58,6.57,5.8,7.98,9.79" stroke-dasharray="12.855" stroke-dashoffset="12.855"><animate attributeName="stroke-dashoffset" values="12.855" fill="freeze" begin="5f9e.click" /><animate attributeName="stroke-dashoffset" values="12.855;12.855;0" keyTimes="0;0.914;1" dur="1.505s" fill="freeze" begin="0s;5f9e.click" /></path><path d="M82.85,17.49c0,0.6,0.03,1.08-0.09,1.8c-0.62,3.75-6.51,16.28-11.55,21.83" stroke-dasharray="26.674" stroke-dashoffset="26.674"><animate attributeName="stroke-dashoffset" values="26.674" fill="freeze" begin="5f9e.click" /><animate attributeName="stroke-dashoffset" values="26.674;26.674;0" keyTimes="0;0.849;1" dur="1.772s" fill="freeze" begin="0s;5f9e.click" /></path><path d="M80.36,29.46c4.17,1.99,9.5,7.27,11.54,12.29" stroke-dasharray="17.169" stroke-dashoffset="17.169"><animate attributeName="stroke-dashoffset" values="17.169" fill="freeze" begin="5f9e.click" /><animate attributeName="stroke-dashoffset" values="17.169;17.169;0" keyTimes="0;0.912;1" dur="1.944s" fill="freeze" begin="0s;5f9e.click" /></path><path d="M65.86,47c0.39,0.46,1.31,2.48,1.31,3.4c0,6.25,0.36,26.41,0.28,32.13" stroke-dasharray="35.812" stroke-dashoffset="35.812"><animate attributeName="stroke-dashoffset" values="35.812" fill="freeze" begin="5f9e.click" /><animate attributeName="stroke-dashoffset" values="35.812;35.812;0" keyTimes="0;0.844;1" dur="2.302s" fill="freeze" begin="0s;5f9e.click" /></path><path d="M67.53,62.2C68.51,62.2,75.4,60.74,81.43,59.54C82.71,59.29,83.91,59.27,84.92,59.27" stroke-dasharray="17.663" stroke-dashoffset="17.663"><animate attributeName="stroke-dashoffset" values="17.663" fill="freeze" begin="5f9e.click" /><animate attributeName="stroke-dashoffset" values="17.663;17.663;0" keyTimes="0;0.929;1" dur="2.479s" fill="freeze" begin="0s;5f9e.click" /></path><path d="M51.37,60.81c0.07,0.78,0.52,1.99,0.35,3.13C50.25,73.75,49,82.25,38.5,91.71" stroke-dasharray="34.742" stroke-dashoffset="34.742"><animate attributeName="stroke-dashoffset" values="34.742" fill="freeze" begin="5f9e.click" /><animate attributeName="stroke-dashoffset" values="34.742;34.742;0" keyTimes="0;0.877;1" dur="2.826s" fill="freeze" begin="0s;5f9e.click" /></path><path d="M49.83,74.47c10.81,3.83,29.35,15.34,36.4,17.32c2.24,0.63,4.11,1.21,6.27,1.46" stroke-dasharray="46.796" stroke-dashoffset="46.796"><animate attributeName="stroke-dashoffset" values="46.796" fill="freeze" begin="5f9e.click" /><animate attributeName="stroke-dashoffset" values="46.796;46.796;0" keyTimes="0;0.858;1" dur="3.294s" fill="freeze" begin="0s;5f9e.click" /></path></g></svg>