<svg xmlns="http://www.w3.org/2000/svg" width="109" height="109" viewBox="0 0 109 109" id="5fa1"><g fill="none" stroke="#666" stroke-width="9" stroke-linecap="round" stroke-linejoin="round"><g><g><path d="M24.86,17.5c0.09,0.76-0.43,1.63-0.83,2.23c-2.39,3.67-8.48,10.1-14.66,13.52" /><g><path d="M25.14,37.5c0,1-0.29,1.92-0.59,2.66c-2.1,5.21-7.64,14.65-15.05,22.09" /><path d="M21.72,49c0.7,0.7,0.9,1.88,0.9,2.91c0,0.41,0.02,24.24-0.03,35.84c-0.01,3.1-0.03,5.33-0.04,6" /></g></g><g><g><g><g><path d="M44.14,13.47c0.03,0.56-0.1,1.62-0.32,2.25c-2.32,6.66-6.32,13.41-12.7,21.51" /><g p8:part="1" xmlns:p8="http://kanjivg.tagaini.net"><path d="M41.57,26.68c1.18,0.2,2.2,0.08,3.08-0.05c4.23-0.63,7.73-1.25,11.47-2.29c1.08-0.3,3.26-0.46,4.64-0.31" /></g></g><g p7:part="1" xmlns:p7="http://kanjivg.tagaini.net"><g p7:part="2"><g><path d="M33.25,42.68c1.84,0.85,5.15,0.38,7.01,0.01c5.69-1.12,15.11-3.31,21.25-4.83c1.13-0.28,2.6-0.5,3.77-0.17" /><g p7:part="1"><g p7:part="1"><path d="M49.58,28.16c0.94,0.94,1.13,1.96,1.13,3.3c0,0.96-0.08,31.26-0.08,39.03" /></g></g></g></g></g></g><g p6:part="2" xmlns:p6="http://kanjivg.tagaini.net"><g p6:part="2"><g p6:part="2"><path d="M51.92,52.84c4.2-0.59,6.7-1.34,10.53-1.85c1.45-0.19,2.56-0.23,3.47,0" /></g></g><path d="M36.34,54.76c1.01,1.01,1.62,1.73,1.63,3.05c0.03,3.69,0.36,11.57,0.4,17.81" /><path d="M34.46,76.79c0.54,0.71,1.29,1.21,2.6,0.66c6.19-2.58,20.57-9.21,27.53-12.2" /></g></g><g><path d="M71.22,26.9c1.66,0.73,3.67,0.68,5.12,0.48c1.45-0.2,14.64-3.01,16.45-3.21s4.71-0.41,4.71,3.89c0,6.7-2,25.2-4.86,35.05c-2.56,8.81-6.88,1.02-7.43,0.61" /><path d="M72.47,28.05c0.87,0.87,1.29,1.84,1.3,3.45c0.08,9.95,0.03,38.68,0.01,55.75c0,3.49-0.01,6.42-0.01,8.5" /></g></g></g></g><g fill="none" stroke="#000" stroke-width="5" stroke-linecap="round" stroke-linejoin="round"><g><g><path d="M24.86,17.5c0.09,0.76-0.43,1.63-0.83,2.23c-2.39,3.67-8.48,10.1-14.66,13.52" stroke-dasharray="22.52" stroke-dashoffset="22.52"><animate id="0" attributeName="stroke-dashoffset" values="22.52;0" dur="0.23s" fill="freeze" begin="0s;5fa1.click" /></path><g><path d="M25.14,37.5c0,1-0.29,1.92-0.59,2.66c-2.1,5.21-7.64,14.65-15.05,22.09" stroke-dasharray="29.62" stroke-dashoffset="29.62"><animate attributeName="stroke-dashoffset" values="29.62" fill="freeze" begin="5fa1.click" /><animate id="1" attributeName="stroke-dashoffset" values="29.62;0" dur="0.3s" fill="freeze" begin="0.end" /></path><path d="M21.72,49c0.7,0.7,0.9,1.88,0.9,2.91c0,0.41,0.02,24.24-0.03,35.84c-0.01,3.1-0.03,5.33-0.04,6" stroke-dasharray="44.96" stroke-dashoffset="44.96"><animate attributeName="stroke-dashoffset" values="44.96" fill="freeze" begin="5fa1.click" /><animate id="2" attributeName="stroke-dashoffset" values="44.96;0" dur="0.45s" fill="freeze" begin="1.end" /></path></g></g><g><g><g><g><path d="M44.14,13.47c0.03,0.56-0.1,1.62-0.32,2.25c-2.32,6.66-6.32,13.41-12.7,21.51" stroke-dasharray="27.38" stroke-dashoffset="27.38"><animate attributeName="stroke-dashoffset" values="27.38" fill="freeze" begin="5fa1.click" /><animate id="3" attributeName="stroke-dashoffset" values="27.38;0" dur="0.27s" fill="freeze" begin="2.end" /></path><g p8:part="1" xmlns:p8="http://kanjivg.tagaini.net"><path d="M41.57,26.68c1.18,0.2,2.2,0.08,3.08-0.05c4.23-0.63,7.73-1.25,11.47-2.29c1.08-0.3,3.26-0.46,4.64-0.31" stroke-dasharray="19.47" stroke-dashoffset="19.47"><animate attributeName="stroke-dashoffset" values="19.47" fill="freeze" begin="5fa1.click" /><animate id="4" attributeName="stroke-dashoffset" values="19.47;0" dur="0.19s" fill="freeze" begin="3.end" /></path></g></g><g p7:part="1" xmlns:p7="http://kanjivg.tagaini.net"><g p7:part="2"><g><path d="M33.25,42.68c1.84,0.85,5.15,0.38,7.01,0.01c5.69-1.12,15.11-3.31,21.25-4.83c1.13-0.28,2.6-0.5,3.77-0.17" stroke-dasharray="32.71" stroke-dashoffset="32.71"><animate attributeName="stroke-dashoffset" values="32.71" fill="freeze" begin="5fa1.click" /><animate id="5" attributeName="stroke-dashoffset" values="32.71;0" dur="0.33s" fill="freeze" begin="4.end" /></path><g p7:part="1"><g p7:part="1"><path d="M49.58,28.16c0.94,0.94,1.13,1.96,1.13,3.3c0,0.96-0.08,31.26-0.08,39.03" stroke-dasharray="42.63" stroke-dashoffset="42.63"><animate attributeName="stroke-dashoffset" values="42.63" fill="freeze" begin="5fa1.click" /><animate id="6" attributeName="stroke-dashoffset" values="42.63;0" dur="0.43s" fill="freeze" begin="5.end" /></path></g></g></g></g></g></g><g p6:part="2" xmlns:p6="http://kanjivg.tagaini.net"><g p6:part="2"><g p6:part="2"><path d="M51.92,52.84c4.2-0.59,6.7-1.34,10.53-1.85c1.45-0.19,2.56-0.23,3.47,0" stroke-dasharray="14.18" stroke-dashoffset="14.18"><animate attributeName="stroke-dashoffset" values="14.18" fill="freeze" begin="5fa1.click" /><animate id="7" attributeName="stroke-dashoffset" values="14.18;0" dur="0.14s" fill="freeze" begin="6.end" /></path></g></g><path d="M36.34,54.76c1.01,1.01,1.62,1.73,1.63,3.05c0.03,3.69,0.36,11.57,0.4,17.81" stroke-dasharray="21.38" stroke-dashoffset="21.38"><animate attributeName="stroke-dashoffset" values="21.38" fill="freeze" begin="5fa1.click" /><animate id="8" attributeName="stroke-dashoffset" values="21.38;0" dur="0.21s" fill="freeze" begin="7.end" /></path><path d="M34.46,76.79c0.54,0.71,1.29,1.21,2.6,0.66c6.19-2.58,20.57-9.21,27.53-12.2" stroke-dasharray="33.06" stroke-dashoffset="33.06"><animate attributeName="stroke-dashoffset" values="33.06" fill="freeze" begin="5fa1.click" /><animate id="9" attributeName="stroke-dashoffset" values="33.06;0" dur="0.33s" fill="freeze" begin="8.end" /></path></g></g><g><path d="M71.22,26.9c1.66,0.73,3.67,0.68,5.12,0.48c1.45-0.2,14.64-3.01,16.45-3.21s4.71-0.41,4.71,3.89c0,6.7-2,25.2-4.86,35.05c-2.56,8.81-6.88,1.02-7.43,0.61" stroke-dasharray="76.06" stroke-dashoffset="76.06"><animate attributeName="stroke-dashoffset" values="76.06" fill="freeze" begin="5fa1.click" /><animate id="10" attributeName="stroke-dashoffset" values="76.06;0" dur="0.57s" fill="freeze" begin="9.end" /></path><path d="M72.47,28.05c0.87,0.87,1.29,1.84,1.3,3.45c0.08,9.95,0.03,38.68,0.01,55.75c0,3.49-0.01,6.42-0.01,8.5" stroke-dasharray="68.05" stroke-dashoffset="68.05"><animate attributeName="stroke-dashoffset" values="68.05" fill="freeze" begin="5fa1.click" /><animate id="11" attributeName="stroke-dashoffset" values="68.05;0" dur="0.51s" fill="freeze" begin="10.end" /></path></g></g></g></g></svg>