<svg xmlns="http://www.w3.org/2000/svg" viewBox="0 0 109 109" id="5fb4"><g fill="none" stroke="#666" stroke-width="6" stroke-linecap="round" stroke-linejoin="round"><g><g><path d="M26.86,18.75c0.08,0.81-0.21,1.52-0.61,2.2c-2.38,3.97-8.58,12.4-14.63,16.05" /><g><path d="M28.62,36c0.09,1.06-0.19,2-0.67,2.92c-2.7,5.13-9.07,14.54-17.45,21.33" /><path d="M21.97,52c0.83,0.83,0.9,1.88,0.9,2.91c0,0.4,0.02,20.16-0.02,31.34c-0.01,3.33-0.03,5.77-0.05,6.5" /></g></g><g><g><g><path d="M47.82,17.25c0.84,0.84,1.04,1.88,1.04,3.27c0,3.23-0.11,13.28-0.11,17.86" /><path d="M36.56,28.84c0.8,0.8,1.18,1.92,1.07,2.56c-0.26,1.6-0.89,5.35-1.28,8.08c-0.28,1.97,0.64,2.6,2.41,2.24c6.54-1.38,14.09-3.03,21.17-4.33" /><path d="M62,23.26c0.54,0.32,1.16,2.38,1.08,3.02c-0.34,2.49-0.89,5.56-1.47,8.5c-0.33,1.66-0.67,3.28-0.99,4.73" /></g><g p6:partial xmlns:p6="http://kanjivg.tagaini.net"><path d="M33.44,53.35c2.06,0.52,3.94,0.16,5.44-0.04c4.83-0.63,11.63-1.84,16.53-2.74c1.11-0.2,2.97-0.7,4.03-0.35" /><path d="M47.5,53.5c0.75,0.75,0.97,1.94,0.97,2.9c0,6.77-0.01,12.82-0.01,23.67" /><path d="M33.81,67.41c0.92,0.56,3.69,0.3,4.69,0.1c5.62-1.14,12.12-2.51,17.74-3.52c1.29-0.23,2.38-0.49,3.81-0.35" /><path d="M33.24,86.66c0.89,0.71,1.89,0.84,3.17,0.26c9.73-4.38,16.34-7.42,24.95-11.86" /></g></g><g><g><path d="M76.52,17.89c0.03,0.76-0.08,1.75-0.32,2.82C74.46,28.43,70.75,40,64.76,50.82" /><path d="M73.95,38.84c1.06,0.29,2.02,0.06,2.59-0.04c4.21-0.72,10.68-2.19,14.88-3.54c1.15-0.37,2.21-0.64,3.38-0.41" /></g><g><g><path d="M84.85,40.77c0.44,1.23,0.57,2.14-0.03,4.36C79.75,64,70.88,80.75,56.82,91.5" /></g><path d="M64.89,55.53c2.87,0.4,14.76,18.22,23.97,27.86c2.29,2.4,4.51,5.36,7.87,6.99" /></g></g></g></g></g><g fill="none" stroke="#000" stroke-width="3" stroke-linecap="round" stroke-linejoin="round"><path d="M26.86,18.75c0.08,0.81-0.21,1.52-0.61,2.2c-2.38,3.97-8.58,12.4-14.63,16.05" stroke-dasharray="24.211" stroke-dashoffset="24.211"><animate attributeName="stroke-dashoffset" values="24.211;24.211;0" dur="0.242s" fill="freeze" begin="0s;5fb4.click" /></path><path d="M28.62,36c0.09,1.06-0.19,2-0.67,2.92c-2.7,5.13-9.07,14.54-17.45,21.33" stroke-dasharray="30.762" stroke-dashoffset="30.762"><animate attributeName="stroke-dashoffset" values="30.762" fill="freeze" begin="5fb4.click" /><animate attributeName="stroke-dashoffset" values="30.762;30.762;0" keyTimes="0;0.44;1" dur="0.55s" fill="freeze" begin="0s;5fb4.click" /></path><path d="M21.97,52c0.83,0.83,0.9,1.88,0.9,2.91c0,0.4,0.02,20.16-0.02,31.34c-0.01,3.33-0.03,5.77-0.05,6.5" stroke-dasharray="40.978" stroke-dashoffset="40.978"><animate attributeName="stroke-dashoffset" values="40.978" fill="freeze" begin="5fb4.click" /><animate attributeName="stroke-dashoffset" values="40.978;40.978;0" keyTimes="0;0.573;1" dur="0.96s" fill="freeze" begin="0s;5fb4.click" /></path><path d="M47.82,17.25c0.84,0.84,1.04,1.88,1.04,3.27c0,3.23-0.11,13.28-0.11,17.86" stroke-dasharray="21.394" stroke-dashoffset="21.394"><animate attributeName="stroke-dashoffset" values="21.394" fill="freeze" begin="5fb4.click" /><animate attributeName="stroke-dashoffset" values="21.394;21.394;0" keyTimes="0;0.818;1" dur="1.174s" fill="freeze" begin="0s;5fb4.click" /></path><path d="M36.56,28.84c0.8,0.8,1.18,1.92,1.07,2.56c-0.26,1.6-0.89,5.35-1.28,8.08c-0.28,1.97,0.64,2.6,2.41,2.24c6.54-1.38,14.09-3.03,21.17-4.33" stroke-dasharray="36.837" stroke-dashoffset="36.837"><animate attributeName="stroke-dashoffset" values="36.837" fill="freeze" begin="5fb4.click" /><animate attributeName="stroke-dashoffset" values="36.837;36.837;0" keyTimes="0;0.761;1" dur="1.542s" fill="freeze" begin="0s;5fb4.click" /></path><path d="M62,23.26c0.54,0.32,1.16,2.38,1.08,3.02c-0.34,2.49-0.89,5.56-1.47,8.5c-0.33,1.66-0.67,3.28-0.99,4.73" stroke-dasharray="16.742" stroke-dashoffset="16.742"><animate attributeName="stroke-dashoffset" values="16.742" fill="freeze" begin="5fb4.click" /><animate attributeName="stroke-dashoffset" values="16.742;16.742;0" keyTimes="0;0.902;1" dur="1.709s" fill="freeze" begin="0s;5fb4.click" /></path><path d="M33.44,53.35c2.06,0.52,3.94,0.16,5.44-0.04c4.83-0.63,11.63-1.84,16.53-2.74c1.11-0.2,2.97-0.7,4.03-0.35" stroke-dasharray="26.32" stroke-dashoffset="26.32"><animate attributeName="stroke-dashoffset" values="26.32" fill="freeze" begin="5fb4.click" /><animate attributeName="stroke-dashoffset" values="26.32;26.32;0" keyTimes="0;0.867;1" dur="1.972s" fill="freeze" begin="0s;5fb4.click" /></path><path d="M47.5,53.5c0.75,0.75,0.97,1.94,0.97,2.9c0,6.77-0.01,12.82-0.01,23.67" stroke-dasharray="26.806" stroke-dashoffset="26.806"><animate attributeName="stroke-dashoffset" values="26.806" fill="freeze" begin="5fb4.click" /><animate attributeName="stroke-dashoffset" values="26.806;26.806;0" keyTimes="0;0.88;1" dur="2.24s" fill="freeze" begin="0s;5fb4.click" /></path><path d="M33.81,67.41c0.92,0.56,3.69,0.3,4.69,0.1c5.62-1.14,12.12-2.51,17.74-3.52c1.29-0.23,2.38-0.49,3.81-0.35" stroke-dasharray="26.681" stroke-dashoffset="26.681"><animate attributeName="stroke-dashoffset" values="26.681" fill="freeze" begin="5fb4.click" /><animate attributeName="stroke-dashoffset" values="26.681;26.681;0" keyTimes="0;0.893;1" dur="2.507s" fill="freeze" begin="0s;5fb4.click" /></path><path d="M33.24,86.66c0.89,0.71,1.89,0.84,3.17,0.26c9.73-4.38,16.34-7.42,24.95-11.86" stroke-dasharray="31.005" stroke-dashoffset="31.005"><animate attributeName="stroke-dashoffset" values="31.005" fill="freeze" begin="5fb4.click" /><animate attributeName="stroke-dashoffset" values="31.005;31.005;0" keyTimes="0;0.89;1" dur="2.817s" fill="freeze" begin="0s;5fb4.click" /></path><path d="M76.52,17.89c0.03,0.76-0.08,1.75-0.32,2.82C74.46,28.43,70.75,40,64.76,50.82" stroke-dasharray="35.157" stroke-dashoffset="35.157"><animate attributeName="stroke-dashoffset" values="35.157" fill="freeze" begin="5fb4.click" /><animate attributeName="stroke-dashoffset" values="35.157;35.157;0" keyTimes="0;0.889;1" dur="3.169s" fill="freeze" begin="0s;5fb4.click" /></path><path d="M73.95,38.84c1.06,0.29,2.02,0.06,2.59-0.04c4.21-0.72,10.68-2.19,14.88-3.54c1.15-0.37,2.21-0.64,3.38-0.41" stroke-dasharray="21.367" stroke-dashoffset="21.367"><animate attributeName="stroke-dashoffset" values="21.367" fill="freeze" begin="5fb4.click" /><animate attributeName="stroke-dashoffset" values="21.367;21.367;0" keyTimes="0;0.937;1" dur="3.383s" fill="freeze" begin="0s;5fb4.click" /></path><path d="M84.85,40.77c0.44,1.23,0.57,2.14-0.03,4.36C79.75,64,70.88,80.75,56.82,91.5" stroke-dasharray="59.6" stroke-dashoffset="59.6"><animate attributeName="stroke-dashoffset" values="59.6" fill="freeze" begin="5fb4.click" /><animate attributeName="stroke-dashoffset" values="59.6;59.6;0" keyTimes="0;0.85;1" dur="3.979s" fill="freeze" begin="0s;5fb4.click" /></path><path d="M64.89,55.53c2.87,0.4,14.76,18.22,23.97,27.86c2.29,2.4,4.51,5.36,7.87,6.99" stroke-dasharray="47.474" stroke-dashoffset="47.474"><animate attributeName="stroke-dashoffset" values="47.474" fill="freeze" begin="5fb4.click" /><animate attributeName="stroke-dashoffset" values="47.474;47.474;0" keyTimes="0;0.893;1" dur="4.454s" fill="freeze" begin="0s;5fb4.click" /></path></g></svg>