<svg xmlns="http://www.w3.org/2000/svg" width="109" height="109" viewBox="0 0 109 109" id="600f"><g fill="none" stroke="#666" stroke-width="9" stroke-linecap="round" stroke-linejoin="round"><g><g><path d="M16.72,34.5c0.02,4.44-1.94,14.55-3.69,18" /><path d="M30.77,29.33c2.04,2.32,5.28,9.53,5.79,13.13" /><path d="M22.87,13.25c1.09,0.5,1.74,2.25,1.96,3.25c0.22,1,0,73.75-0.22,80" /></g><g><path d="M43.21,32.72c0.93,1.09,1.39,1.97,1.62,3.28c0.23,1.31,2.16,19.03,2.39,20.56" /><path d="M45.36,34.77c3.15-0.44,32.45-3.59,36.71-4.25c4.27-0.66,5.01,0.88,4.64,2.87c-0.37,1.99-2.78,17.44-3.15,19.86" /><g><path d="M35.77,56.92c0.93,0.4,3.31,0.66,4.33,0.56c14.02-1.35,28.73-3.05,51.27-4.58c1.29-0.09,3.12,0.16,6,0.85" /><path d="M63.55,12.5c0,2.05,0.65,2.5,0.67,5c0.55,52.33-1.48,64.25-28.55,79" /><path d="M64.35,56.19C70.9,67.22,82.44,83,90.9,90.89c2.46,2.29,3,2.89,4.01,3.12" /></g></g></g></g><g fill="none" stroke="#000" stroke-width="5" stroke-linecap="round" stroke-linejoin="round"><g><g><path d="M16.72,34.5c0.02,4.44-1.94,14.55-3.69,18" stroke-dasharray="18.46" stroke-dashoffset="18.46"><animate id="0" attributeName="stroke-dashoffset" values="18.46;0" dur="0.18s" fill="freeze" begin="0s;600f.click" /></path><path d="M30.77,29.33c2.04,2.32,5.28,9.53,5.79,13.13" stroke-dasharray="14.46" stroke-dashoffset="14.46"><animate attributeName="stroke-dashoffset" values="14.46" fill="freeze" begin="600f.click" /><animate id="1" attributeName="stroke-dashoffset" values="14.46;0" dur="0.14s" fill="freeze" begin="0.end" /></path><path d="M22.87,13.25c1.09,0.5,1.74,2.25,1.96,3.25c0.22,1,0,73.75-0.22,80" stroke-dasharray="83.91" stroke-dashoffset="83.91"><animate attributeName="stroke-dashoffset" values="83.91" fill="freeze" begin="600f.click" /><animate id="2" attributeName="stroke-dashoffset" values="83.91;0" dur="0.63s" fill="freeze" begin="1.end" /></path></g><g><path d="M43.21,32.72c0.93,1.09,1.39,1.97,1.62,3.28c0.23,1.31,2.16,19.03,2.39,20.56" stroke-dasharray="24.41" stroke-dashoffset="24.41"><animate attributeName="stroke-dashoffset" values="24.41" fill="freeze" begin="600f.click" /><animate id="3" attributeName="stroke-dashoffset" values="24.41;0" dur="0.24s" fill="freeze" begin="2.end" /></path><path d="M45.36,34.77c3.15-0.44,32.45-3.59,36.71-4.25c4.27-0.66,5.01,0.88,4.64,2.87c-0.37,1.99-2.78,17.44-3.15,19.86" stroke-dasharray="63.88" stroke-dashoffset="63.88"><animate attributeName="stroke-dashoffset" values="63.88" fill="freeze" begin="600f.click" /><animate id="4" attributeName="stroke-dashoffset" values="63.88;0" dur="0.48s" fill="freeze" begin="3.end" /></path><g><path d="M35.77,56.92c0.93,0.4,3.31,0.66,4.33,0.56c14.02-1.35,28.73-3.05,51.27-4.58c1.29-0.09,3.12,0.16,6,0.85" stroke-dasharray="61.95" stroke-dashoffset="61.95"><animate attributeName="stroke-dashoffset" values="61.95" fill="freeze" begin="600f.click" /><animate id="5" attributeName="stroke-dashoffset" values="61.95;0" dur="0.47s" fill="freeze" begin="4.end" /></path><path d="M63.55,12.5c0,2.05,0.65,2.5,0.67,5c0.55,52.33-1.48,64.25-28.55,79" stroke-dasharray="95.37" stroke-dashoffset="95.37"><animate attributeName="stroke-dashoffset" values="95.37" fill="freeze" begin="600f.click" /><animate id="6" attributeName="stroke-dashoffset" values="95.37;0" dur="0.72s" fill="freeze" begin="5.end" /></path><path d="M64.35,56.19C70.9,67.22,82.44,83,90.9,90.89c2.46,2.29,3,2.89,4.01,3.12" stroke-dasharray="48.93" stroke-dashoffset="48.93"><animate attributeName="stroke-dashoffset" values="48.93" fill="freeze" begin="600f.click" /><animate id="7" attributeName="stroke-dashoffset" values="48.93;0" dur="0.49s" fill="freeze" begin="6.end" /></path></g></g></g></g></svg>