<svg xmlns="http://www.w3.org/2000/svg" viewBox="0 0 109 109" id="6010"><g fill="none" stroke="#666" stroke-width="6" stroke-linecap="round" stroke-linejoin="round"><g><g><path d="M18.22,34.5c0,5.97-4.11,14.79-5.19,16.5" /><path d="M31.02,27.58c2.66,1.57,6.88,6.44,7.54,8.88" /><path d="M25.37,12.25c1.09,0.5,1.74,2.25,1.96,3.25c0.22,1,0,76.25-0.22,82.5" /></g><g><g><g><path d="M57.21,11.85c0.05,0.78,0.21,2.04-0.1,3.13C55,22.5,48.25,34.75,39.71,44.92" /></g><path d="M53.65,29.35c0.91,0.69,2.19,0.91,3.65,0.46c1.46-0.46,27.28-2.79,30.9-3.4c2.74-0.46,5.34,1.59,5.33,4.8C93.5,44,89.5,75.25,84.32,92.38c-1.73,5.7-5.82,3.38-8.84-1.14" /></g><g><path d="M48.86,48.22c0.29,0.37,0.58,0.68,0.7,1.15c0.99,3.7,1.86,17.98,2.53,24.61" /><path d="M49.96,50.38c6.54-1.13,15.14-2.65,19.12-3.2c1.45-0.2,2.41,0.96,2.12,2.86c-0.77,4.94-1.58,11.17-2.72,19.15" /><path d="M51.92,71.49c4.67-0.62,13.38-1.3,19.79-2.26" /></g></g></g></g><g fill="none" stroke="#000" stroke-width="3" stroke-linecap="round" stroke-linejoin="round"><path d="M18.22,34.5c0,5.97-4.11,14.79-5.19,16.5" stroke-dasharray="17.443" stroke-dashoffset="17.443"><animate attributeName="stroke-dashoffset" values="17.443;17.443;0" dur="0.174s" fill="freeze" begin="0s;6010.click" /></path><path d="M31.02,27.58c2.66,1.57,6.88,6.44,7.54,8.88" stroke-dasharray="11.814" stroke-dashoffset="11.814"><animate attributeName="stroke-dashoffset" values="11.814" fill="freeze" begin="6010.click" /><animate attributeName="stroke-dashoffset" values="11.814;11.814;0" keyTimes="0;0.596;1" dur="0.292s" fill="freeze" begin="0s;6010.click" /></path><path d="M25.37,12.25c1.09,0.5,1.74,2.25,1.96,3.25c0.22,1,0,76.25-0.22,82.5" stroke-dasharray="86.412" stroke-dashoffset="86.412"><animate attributeName="stroke-dashoffset" values="86.412" fill="freeze" begin="6010.click" /><animate attributeName="stroke-dashoffset" values="86.412;86.412;0" keyTimes="0;0.31;1" dur="0.942s" fill="freeze" begin="0s;6010.click" /></path><path d="M57.21,11.85c0.05,0.78,0.21,2.04-0.1,3.13C55,22.5,48.25,34.75,39.71,44.92" stroke-dasharray="37.986" stroke-dashoffset="37.986"><animate attributeName="stroke-dashoffset" values="37.986" fill="freeze" begin="6010.click" /><animate attributeName="stroke-dashoffset" values="37.986;37.986;0" keyTimes="0;0.713;1" dur="1.322s" fill="freeze" begin="0s;6010.click" /></path><path d="M53.65,29.35c0.91,0.69,2.19,0.91,3.65,0.46c1.46-0.46,27.28-2.79,30.9-3.4c2.74-0.46,5.34,1.59,5.33,4.8C93.5,44,89.5,75.25,84.32,92.38c-1.73,5.7-5.82,3.38-8.84-1.14" stroke-dasharray="117.582" stroke-dashoffset="117.582"><animate attributeName="stroke-dashoffset" values="117.582" fill="freeze" begin="6010.click" /><animate attributeName="stroke-dashoffset" values="117.582;117.582;0" keyTimes="0;0.599;1" dur="2.206s" fill="freeze" begin="0s;6010.click" /></path><path d="M48.86,48.22c0.29,0.37,0.58,0.68,0.7,1.15c0.99,3.7,1.86,17.98,2.53,24.61" stroke-dasharray="26.112" stroke-dashoffset="26.112"><animate attributeName="stroke-dashoffset" values="26.112" fill="freeze" begin="6010.click" /><animate attributeName="stroke-dashoffset" values="26.112;26.112;0" keyTimes="0;0.894;1" dur="2.467s" fill="freeze" begin="0s;6010.click" /></path><path d="M49.96,50.38c6.54-1.13,15.14-2.65,19.12-3.2c1.45-0.2,2.41,0.96,2.12,2.86c-0.77,4.94-1.58,11.17-2.72,19.15" stroke-dasharray="42.967" stroke-dashoffset="42.967"><animate attributeName="stroke-dashoffset" values="42.967" fill="freeze" begin="6010.click" /><animate attributeName="stroke-dashoffset" values="42.967;42.967;0" keyTimes="0;0.852;1" dur="2.897s" fill="freeze" begin="0s;6010.click" /></path><path d="M51.92,71.49c4.67-0.62,13.38-1.3,19.79-2.26" stroke-dasharray="19.921" stroke-dashoffset="19.921"><animate attributeName="stroke-dashoffset" values="19.921" fill="freeze" begin="6010.click" /><animate attributeName="stroke-dashoffset" values="19.921;19.921;0" keyTimes="0;0.936;1" dur="3.096s" fill="freeze" begin="0s;6010.click" /></path></g></svg>