<svg xmlns="http://www.w3.org/2000/svg" width="109" height="109" viewBox="0 0 109 109" id="6012"><g fill="none" stroke="#666" stroke-width="9" stroke-linecap="round" stroke-linejoin="round"><g><g p4:phon="奴" xmlns:p4="http://kanjivg.tagaini.net"><g><path d="M34.12,13.62c0.38,0.86,0.57,2.26,0.38,3.5c-0.97,6.08-4.99,21.12-9.27,28.24c-0.88,1.46,0.38,2.07,0.88,2.16c5.29,1.05,12.02,3.75,17.25,6.99c1.74,1.08,4.15,3,5.65,4.97" /><path d="M46.01,25.04c0.36,0.96,0.36,2.33,0.11,3.64C44.12,39.22,38.5,55.38,23.5,63" /><path d="M13,37.57c0.78,1.19,1.88,1.21,3.9,0.69c7.97-2.02,20.22-4.89,31.85-8.1" /></g><g><path d="M57.14,22.19c2.12,0.46,3.84,0.2,5.99-0.15c5.49-0.89,17.83-3.35,19.1-3.65c2.4-0.57,3.73,1.22,2.52,3.97C78.6,36.28,68.5,49.61,55.78,55.43" /><path d="M57.22,30.62c2.97,0.55,16.34,13.94,27.38,21.55c2.32,1.6,5.28,3.33,7.88,4.42" /></g></g><g><path d="M20.4,75.32c0.28,2.5-2.81,13.51-5.07,17.67" /><path d="M32,70.25c7,13.25,16.75,23.5,41.78,23.68c11.47,0.08,12.22-2.43,4.15-9.44" /><path d="M54.41,69.25c2.34,4.12,5.22,9.38,6.88,3.21" /><path d="M83.38,69.23c4.62,2.39,7.74,4.89,11.85,10.36" /></g></g></g><g fill="none" stroke="#000" stroke-width="5" stroke-linecap="round" stroke-linejoin="round"><path d="M34.12,13.62c0.38,0.86,0.57,2.26,0.38,3.5c-0.97,6.08-4.99,21.12-9.27,28.24c-0.88,1.46,0.38,2.07,0.88,2.16c5.29,1.05,12.02,3.75,17.25,6.99c1.74,1.08,4.15,3,5.65,4.97" stroke-dasharray="62.504" stroke-dashoffset="62.504"><animate attributeName="stroke-dashoffset" values="62.504;62.504;0" dur="0.47s" fill="freeze" begin="0s;6012.click" /></path><path d="M46.01,25.04c0.36,0.96,0.36,2.33,0.11,3.64C44.12,39.22,38.5,55.38,23.5,63" stroke-dasharray="46.27" stroke-dashoffset="46.27"><animate attributeName="stroke-dashoffset" values="46.27" fill="freeze" begin="6012.click" /><animate attributeName="stroke-dashoffset" values="46.27;46.27;0" keyTimes="0;0.504;1" dur="0.933s" fill="freeze" begin="0s;6012.click" /></path><path d="M13,37.57c0.78,1.19,1.88,1.21,3.9,0.69c7.97-2.02,20.22-4.89,31.85-8.1" stroke-dasharray="37.158" stroke-dashoffset="37.158"><animate attributeName="stroke-dashoffset" values="37.158" fill="freeze" begin="6012.click" /><animate attributeName="stroke-dashoffset" values="37.158;37.158;0" keyTimes="0;0.715;1" dur="1.305s" fill="freeze" begin="0s;6012.click" /></path><path d="M57.14,22.19c2.12,0.46,3.84,0.2,5.99-0.15c5.49-0.89,17.83-3.35,19.1-3.65c2.4-0.57,3.73,1.22,2.52,3.97C78.6,36.28,68.5,49.61,55.78,55.43" stroke-dasharray="76.634" stroke-dashoffset="76.634"><animate attributeName="stroke-dashoffset" values="76.634" fill="freeze" begin="6012.click" /><animate attributeName="stroke-dashoffset" values="76.634;76.634;0" keyTimes="0;0.694;1" dur="1.881s" fill="freeze" begin="0s;6012.click" /></path><path d="M57.22,30.62c2.97,0.55,16.34,13.94,27.38,21.55c2.32,1.6,5.28,3.33,7.88,4.42" stroke-dasharray="43.96" stroke-dashoffset="43.96"><animate attributeName="stroke-dashoffset" values="43.96" fill="freeze" begin="6012.click" /><animate attributeName="stroke-dashoffset" values="43.96;43.96;0" keyTimes="0;0.81;1" dur="2.321s" fill="freeze" begin="0s;6012.click" /></path><path d="M20.4,75.32c0.28,2.5-2.81,13.51-5.07,17.67" stroke-dasharray="18.488" stroke-dashoffset="18.488"><animate attributeName="stroke-dashoffset" values="18.488" fill="freeze" begin="6012.click" /><animate attributeName="stroke-dashoffset" values="18.488;18.488;0" keyTimes="0;0.926;1" dur="2.506s" fill="freeze" begin="0s;6012.click" /></path><path d="M32,70.25c7,13.25,16.75,23.5,41.78,23.68c11.47,0.08,12.22-2.43,4.15-9.44" stroke-dasharray="70.48" stroke-dashoffset="70.48"><animate attributeName="stroke-dashoffset" values="70.48" fill="freeze" begin="6012.click" /><animate attributeName="stroke-dashoffset" values="70.48;70.48;0" keyTimes="0;0.825;1" dur="3.036s" fill="freeze" begin="0s;6012.click" /></path><path d="M54.41,69.25c2.34,4.12,5.22,9.38,6.88,3.21" stroke-dasharray="11.655" stroke-dashoffset="11.655"><animate attributeName="stroke-dashoffset" values="11.655" fill="freeze" begin="6012.click" /><animate attributeName="stroke-dashoffset" values="11.655;11.655;0" keyTimes="0;0.963;1" dur="3.153s" fill="freeze" begin="0s;6012.click" /></path><path d="M83.38,69.23c4.62,2.39,7.74,4.89,11.85,10.36" stroke-dasharray="15.902" stroke-dashoffset="15.902"><animate attributeName="stroke-dashoffset" values="15.902" fill="freeze" begin="6012.click" /><animate attributeName="stroke-dashoffset" values="15.902;15.902;0" keyTimes="0;0.952;1" dur="3.312s" fill="freeze" begin="0s;6012.click" /></path></g></svg>