<svg xmlns="http://www.w3.org/2000/svg" width="109" height="109" viewBox="0 0 109 109" id="6046"><g fill="none" stroke="#666" stroke-width="9" stroke-linecap="round" stroke-linejoin="round"><g><g><path d="M17.47,34.75c0.02,4.01-1.81,13.13-3.44,16.25" /><path d="M28.77,30.33c2.93,2.23,7.56,9.17,8.29,12.63" /><path d="M23.37,14.25c1.09,0.5,1.74,2.25,1.96,3.25c0.22,1,0,71.75-0.22,78" /></g><g><g><g><path d="M40.41,22.22c0.98,0.28,2.78,0.33,3.77,0.28c9.49-0.5,34.66-4.16,44-4.16c1.64,0,2.62,0.13,3.44,0.27" /></g></g><g><path d="M55.22,24.65c0.73,1.41,0.75,4.12,0.37,6.33c-1.83,10.56-9.82,35.07-12.1,43.14" /><path d="M53.45,39.94c6.16-1.18,22.39-3.13,24.52-3.38c2.57-0.3,2.99,1.81,2.4,3.91c-2.17,7.79-4.65,22.52-8.99,49.67" /></g><g><path d="M57.92,48.66c3.27,1.48,8.45,6.08,9.27,8.39" /></g><g><path d="M54.76,67.06c3.22,1.66,8.33,6.81,9.14,9.38" /></g><g><g><g><path d="M33.75,92.1c1.2,0.69,3.41,0.75,4.61,0.69C51.1,92.15,79.67,89.03,92.29,90c2,0.15,3.21,0.33,4.21,0.67" /></g></g></g></g></g></g><g fill="none" stroke="#000" stroke-width="5" stroke-linecap="round" stroke-linejoin="round"><g><g><path d="M17.47,34.75c0.02,4.01-1.81,13.13-3.44,16.25" stroke-dasharray="16.698" stroke-dashoffset="16.698"><animate attributeName="stroke-dashoffset" values="16.698;16.698;0" dur="0.167s" fill="freeze" begin="0s;6046.click" /></path><path d="M28.77,30.33c2.93,2.23,7.56,9.17,8.29,12.63" stroke-dasharray="15.291" stroke-dashoffset="15.291"><animate attributeName="stroke-dashoffset" values="15.291" fill="freeze" begin="6046.click" /><animate attributeName="stroke-dashoffset" values="15.291;15.291;0" keyTimes="0;0.522;1" dur="0.32s" fill="freeze" begin="0s;6046.click" /></path><path d="M23.37,14.25c1.09,0.5,1.74,2.25,1.96,3.25c0.22,1,0,71.75-0.22,78" stroke-dasharray="81.912" stroke-dashoffset="81.912"><animate attributeName="stroke-dashoffset" values="81.912" fill="freeze" begin="6046.click" /><animate attributeName="stroke-dashoffset" values="81.912;81.912;0" keyTimes="0;0.342;1" dur="0.936s" fill="freeze" begin="0s;6046.click" /></path></g><g><g><g><path d="M40.41,22.22c0.98,0.28,2.78,0.33,3.77,0.28c9.49-0.5,34.66-4.16,44-4.16c1.64,0,2.62,0.13,3.44,0.27" stroke-dasharray="51.457" stroke-dashoffset="51.457"><animate attributeName="stroke-dashoffset" values="51.457" fill="freeze" begin="6046.click" /><animate attributeName="stroke-dashoffset" values="51.457;51.457;0" keyTimes="0;0.645;1" dur="1.451s" fill="freeze" begin="0s;6046.click" /></path></g></g><g><path d="M55.22,24.65c0.73,1.41,0.75,4.12,0.37,6.33c-1.83,10.56-9.82,35.07-12.1,43.14" stroke-dasharray="51.251" stroke-dashoffset="51.251"><animate attributeName="stroke-dashoffset" values="51.251" fill="freeze" begin="6046.click" /><animate attributeName="stroke-dashoffset" values="51.251;51.251;0" keyTimes="0;0.739;1" dur="1.964s" fill="freeze" begin="0s;6046.click" /></path><path d="M53.45,39.94c6.16-1.18,22.39-3.13,24.52-3.38c2.57-0.3,2.99,1.81,2.4,3.91c-2.17,7.79-4.65,22.52-8.99,49.67" stroke-dasharray="80.969" stroke-dashoffset="80.969"><animate attributeName="stroke-dashoffset" values="80.969" fill="freeze" begin="6046.click" /><animate attributeName="stroke-dashoffset" values="80.969;80.969;0" keyTimes="0;0.763;1" dur="2.573s" fill="freeze" begin="0s;6046.click" /></path></g><g><path d="M57.92,48.66c3.27,1.48,8.45,6.08,9.27,8.39" stroke-dasharray="12.686" stroke-dashoffset="12.686"><animate attributeName="stroke-dashoffset" values="12.686" fill="freeze" begin="6046.click" /><animate attributeName="stroke-dashoffset" values="12.686;12.686;0" keyTimes="0;0.953;1" dur="2.7s" fill="freeze" begin="0s;6046.click" /></path></g><g><path d="M54.76,67.06c3.22,1.66,8.33,6.81,9.14,9.38" stroke-dasharray="13.286" stroke-dashoffset="13.286"><animate attributeName="stroke-dashoffset" values="13.286" fill="freeze" begin="6046.click" /><animate attributeName="stroke-dashoffset" values="13.286;13.286;0" keyTimes="0;0.953;1" dur="2.833s" fill="freeze" begin="0s;6046.click" /></path></g><g><g><g><path d="M33.75,92.1c1.2,0.69,3.41,0.75,4.61,0.69C51.1,92.15,79.67,89.03,92.29,90c2,0.15,3.21,0.33,4.21,0.67" stroke-dasharray="63.023" stroke-dashoffset="63.023"><animate attributeName="stroke-dashoffset" values="63.023" fill="freeze" begin="6046.click" /><animate attributeName="stroke-dashoffset" values="63.023;63.023;0" keyTimes="0;0.857;1" dur="3.307s" fill="freeze" begin="0s;6046.click" /></path></g></g></g></g></g></g></svg>