<svg xmlns="http://www.w3.org/2000/svg" width="109" height="109" viewBox="0 0 109 109" id="6059"><g fill="none" stroke="#666" stroke-width="9" stroke-linecap="round" stroke-linejoin="round"><g><g><path d="M36.03,12.2c3,1.94,7.76,7.98,8.52,11" /><path d="M68.12,11.14c0.03,0.34,0.06,0.87-0.05,1.36c-0.64,2.87-4.33,9.15-9.37,13" /><path d="M26.14,30.47c0.79,0.34,2.24,0.5,3.02,0.34c3.19-0.66,44.1-5.31,51.41-5.77c1.31-0.08,2.1,0.16,2.75,0.33" /><path d="M52.3,28.94c1.05,0.44,1.89,1.97,1.89,2.89c0,5.17-0.21,16.17-0.21,25.95" /><path d="M31.86,43.86c0.79,0.34,2.23,0.46,3.02,0.34c6.12-0.95,33.2-3.48,40.29-3.35c1.31,0.02,2.1,0.16,2.76,0.33" /><path d="M20.63,59.36c1.27,0.48,3.61,0.62,4.88,0.48c7.74-0.84,45.71-3.26,59.66-4.25c2.12-0.15,3.39,0.23,4.45,0.47" /></g><g><path d="M22.39,78.82c0.38,2.21-3.78,11.98-6.81,15.67" /><path d="M33.08,74c6.96,12.86,17.95,24.02,44.76,24.18c12.94,0.08,13.78-3.43,2.99-9.28" /><path d="M52.91,71c2.17,5.25,5.32,10.5,7.63,2.46" /><path d="M80.38,68.98c4.24,2.37,7.41,4.53,10.85,11.86" /></g></g></g><g fill="none" stroke="#000" stroke-width="5" stroke-linecap="round" stroke-linejoin="round"><path d="M36.03,12.2c3,1.94,7.76,7.98,8.52,11" stroke-dasharray="14.1" stroke-dashoffset="14.1"><animate attributeName="stroke-dashoffset" values="14.1;14.1;0" dur="0.141s" fill="freeze" begin="0s;6059.click" /></path><path d="M68.12,11.14c0.03,0.34,0.06,0.87-0.05,1.36c-0.64,2.87-4.33,9.15-9.37,13" stroke-dasharray="17.625" stroke-dashoffset="17.625"><animate attributeName="stroke-dashoffset" values="17.625" fill="freeze" begin="6059.click" /><animate attributeName="stroke-dashoffset" values="17.625;17.625;0" keyTimes="0;0.445;1" dur="0.317s" fill="freeze" begin="0s;6059.click" /></path><path d="M26.14,30.47c0.79,0.34,2.24,0.5,3.02,0.34c3.19-0.66,44.1-5.31,51.41-5.77c1.31-0.08,2.1,0.16,2.75,0.33" stroke-dasharray="57.596" stroke-dashoffset="57.596"><animate attributeName="stroke-dashoffset" values="57.596" fill="freeze" begin="6059.click" /><animate attributeName="stroke-dashoffset" values="57.596;57.596;0" keyTimes="0;0.355;1" dur="0.893s" fill="freeze" begin="0s;6059.click" /></path><path d="M52.3,28.94c1.05,0.44,1.89,1.97,1.89,2.89c0,5.17-0.21,16.17-0.21,25.95" stroke-dasharray="29.558" stroke-dashoffset="29.558"><animate attributeName="stroke-dashoffset" values="29.558" fill="freeze" begin="6059.click" /><animate attributeName="stroke-dashoffset" values="29.558;29.558;0" keyTimes="0;0.751;1" dur="1.189s" fill="freeze" begin="0s;6059.click" /></path><path d="M31.86,43.86c0.79,0.34,2.23,0.46,3.02,0.34c6.12-0.95,33.2-3.48,40.29-3.35c1.31,0.02,2.1,0.16,2.76,0.33" stroke-dasharray="46.301" stroke-dashoffset="46.301"><animate attributeName="stroke-dashoffset" values="46.301" fill="freeze" begin="6059.click" /><animate attributeName="stroke-dashoffset" values="46.301;46.301;0" keyTimes="0;0.72;1" dur="1.652s" fill="freeze" begin="0s;6059.click" /></path><path d="M20.63,59.36c1.27,0.48,3.61,0.62,4.88,0.48c7.74-0.84,45.71-3.26,59.66-4.25c2.12-0.15,3.39,0.23,4.45,0.47" stroke-dasharray="69.246" stroke-dashoffset="69.246"><animate attributeName="stroke-dashoffset" values="69.246" fill="freeze" begin="6059.click" /><animate attributeName="stroke-dashoffset" values="69.246;69.246;0" keyTimes="0;0.76;1" dur="2.173s" fill="freeze" begin="0s;6059.click" /></path><path d="M22.39,78.82c0.38,2.21-3.78,11.98-6.81,15.67" stroke-dasharray="17.273" stroke-dashoffset="17.273"><animate attributeName="stroke-dashoffset" values="17.273" fill="freeze" begin="6059.click" /><animate attributeName="stroke-dashoffset" values="17.273;17.273;0" keyTimes="0;0.926;1" dur="2.346s" fill="freeze" begin="0s;6059.click" /></path><path d="M33.08,74c6.96,12.86,17.95,24.02,44.76,24.18c12.94,0.08,13.78-3.43,2.99-9.28" stroke-dasharray="75.557" stroke-dashoffset="75.557"><animate attributeName="stroke-dashoffset" values="75.557" fill="freeze" begin="6059.click" /><animate attributeName="stroke-dashoffset" values="75.557;75.557;0" keyTimes="0;0.805;1" dur="2.914s" fill="freeze" begin="0s;6059.click" /></path><path d="M52.91,71c2.17,5.25,5.32,10.5,7.63,2.46" stroke-dasharray="13.762" stroke-dashoffset="13.762"><animate attributeName="stroke-dashoffset" values="13.762" fill="freeze" begin="6059.click" /><animate attributeName="stroke-dashoffset" values="13.762;13.762;0" keyTimes="0;0.955;1" dur="3.052s" fill="freeze" begin="0s;6059.click" /></path><path d="M80.38,68.98c4.24,2.37,7.41,4.53,10.85,11.86" stroke-dasharray="16.422" stroke-dashoffset="16.422"><animate attributeName="stroke-dashoffset" values="16.422" fill="freeze" begin="6059.click" /><animate attributeName="stroke-dashoffset" values="16.422;16.422;0" keyTimes="0;0.949;1" dur="3.216s" fill="freeze" begin="0s;6059.click" /></path></g></svg>