<svg xmlns="http://www.w3.org/2000/svg" width="109" height="109" viewBox="0 0 109 109" id="606d"><g fill="none" stroke="#666" stroke-width="9" stroke-linecap="round" stroke-linejoin="round"><g><g p4:phon="共" xmlns:p4="http://kanjivg.tagaini.net"><g><path d="M26.43,28c2.29,0.67,5.23,0.35,7.57,0.06c8.77-1.07,28.93-3.27,39.25-3.94c2.41-0.16,4.85-0.29,7.24,0.13" /><path d="M38.45,14.98c1.43,0.77,1.94,1.96,2,3.24c0.3,6.28,1.28,19.58,1.76,26" /><path d="M67.18,12.75c0.82,1,0.97,2.27,0.65,4.03C66,26.88,65,32.62,63.31,42.61" /><path d="M15.25,47.41c3.21,0.92,6.74,0.34,9.99,0.03c13.44-1.28,45.33-4.91,59.26-5.8c2.96-0.19,5.82-0.27,8.75,0.23" /></g><g><path d="M39.47,49.59c0.1,0.81-0.38,2.34-0.91,2.93c-4.8,5.35-13.98,13.92-25.73,21.31" /><path d="M57.25,45c4.62,4.25,17.02,14.26,25.08,20.54c2.83,2.21,5.54,3.83,9.17,5.21" /></g></g><g><path d="M45.49,57.83c1.03,1.03,1.32,2.54,1.32,4.5c0,6.29,0.02,23.71,0.02,28.15c0,9.31-5.71,1.34-7.05,0.22" /><path d="M30.38,75.62c0,5.29-5.85,13.11-7.38,14.62" /><path d="M59,71.75c2.32,3.08,5.98,12.67,6.56,17.47" /><path d="M72.12,71.38c3.24,2.79,8.37,11.49,9.18,15.84" /></g></g></g><g fill="none" stroke="#000" stroke-width="5" stroke-linecap="round" stroke-linejoin="round"><g><g p4:phon="共" xmlns:p4="http://kanjivg.tagaini.net"><g><path d="M26.43,28c2.29,0.67,5.23,0.35,7.57,0.06c8.77-1.07,28.93-3.27,39.25-3.94c2.41-0.16,4.85-0.29,7.24,0.13" stroke-dasharray="54.33" stroke-dashoffset="54.33"><animate id="0" attributeName="stroke-dashoffset" values="54.33;0" dur="0.54s" fill="freeze" begin="0s;606d.click" /></path><path d="M38.45,14.98c1.43,0.77,1.94,1.96,2,3.24c0.3,6.28,1.28,19.58,1.76,26" stroke-dasharray="30.06" stroke-dashoffset="30.06"><animate attributeName="stroke-dashoffset" values="30.06" fill="freeze" begin="606d.click" /><animate id="1" attributeName="stroke-dashoffset" values="30.06;0" dur="0.3s" fill="freeze" begin="0.end" /></path><path d="M67.18,12.75c0.82,1,0.97,2.27,0.65,4.03C66,26.88,65,32.62,63.31,42.61" stroke-dasharray="30.45" stroke-dashoffset="30.45"><animate attributeName="stroke-dashoffset" values="30.45" fill="freeze" begin="606d.click" /><animate id="2" attributeName="stroke-dashoffset" values="30.45;0" dur="0.3s" fill="freeze" begin="1.end" /></path><path d="M15.25,47.41c3.21,0.92,6.74,0.34,9.99,0.03c13.44-1.28,45.33-4.91,59.26-5.8c2.96-0.19,5.82-0.27,8.75,0.23" stroke-dasharray="78.37" stroke-dashoffset="78.37"><animate attributeName="stroke-dashoffset" values="78.37" fill="freeze" begin="606d.click" /><animate id="3" attributeName="stroke-dashoffset" values="78.37;0" dur="0.59s" fill="freeze" begin="2.end" /></path></g><g><path d="M39.47,49.59c0.1,0.81-0.38,2.34-0.91,2.93c-4.8,5.35-13.98,13.92-25.73,21.31" stroke-dasharray="36.63" stroke-dashoffset="36.63"><animate attributeName="stroke-dashoffset" values="36.63" fill="freeze" begin="606d.click" /><animate id="4" attributeName="stroke-dashoffset" values="36.63;0" dur="0.37s" fill="freeze" begin="3.end" /></path><path d="M57.25,45c4.62,4.25,17.02,14.26,25.08,20.54c2.83,2.21,5.54,3.83,9.17,5.21" stroke-dasharray="43.01" stroke-dashoffset="43.01"><animate attributeName="stroke-dashoffset" values="43.01" fill="freeze" begin="606d.click" /><animate id="5" attributeName="stroke-dashoffset" values="43.01;0" dur="0.43s" fill="freeze" begin="4.end" /></path></g></g><g><path d="M45.49,57.83c1.03,1.03,1.32,2.54,1.32,4.5c0,6.29,0.02,23.71,0.02,28.15c0,9.31-5.71,1.34-7.05,0.22" stroke-dasharray="45.12" stroke-dashoffset="45.12"><animate attributeName="stroke-dashoffset" values="45.12" fill="freeze" begin="606d.click" /><animate id="6" attributeName="stroke-dashoffset" values="45.12;0" dur="0.45s" fill="freeze" begin="5.end" /></path><path d="M30.38,75.62c0,5.29-5.85,13.11-7.38,14.62" stroke-dasharray="16.65" stroke-dashoffset="16.65"><animate attributeName="stroke-dashoffset" values="16.65" fill="freeze" begin="606d.click" /><animate id="7" attributeName="stroke-dashoffset" values="16.65;0" dur="0.17s" fill="freeze" begin="6.end" /></path><path d="M59,71.75c2.32,3.08,5.98,12.67,6.56,17.47" stroke-dasharray="18.78" stroke-dashoffset="18.78"><animate attributeName="stroke-dashoffset" values="18.78" fill="freeze" begin="606d.click" /><animate id="8" attributeName="stroke-dashoffset" values="18.78;0" dur="0.19s" fill="freeze" begin="7.end" /></path><path d="M72.12,71.38c3.24,2.79,8.37,11.49,9.18,15.84" stroke-dasharray="18.51" stroke-dashoffset="18.51"><animate attributeName="stroke-dashoffset" values="18.51" fill="freeze" begin="606d.click" /><animate id="9" attributeName="stroke-dashoffset" values="18.51;0" dur="0.19s" fill="freeze" begin="8.end" /></path></g></g></g></svg>