<svg xmlns="http://www.w3.org/2000/svg" width="109" height="109" viewBox="0 0 109 109" id="6075"><g fill="none" stroke="#666" stroke-width="6" stroke-linecap="round" stroke-linejoin="round"><g><g><path d="M29.25,24.86c2.75,0.51,5.65,0.43,7.99,0.16c9.05-1.05,27.35-3.32,36.14-3.82c2.4-0.14,5.01-0.26,7.37,0.34" /><g><g p6:partial xmlns:p6="http://kanjivg.tagaini.net"><path d="M28.14,37.79c0.66,0.66,1.3,1.69,1.54,2.93c1.45,7.4,2.36,12.3,3.76,21c0.25,1.52,0.49,3.08,0.74,4.67" /><path d="M30.08,39.18c13.79-1.93,37.54-5.17,47.17-5.99c3.58-0.31,4.4,1.48,3.92,4.7c-0.83,5.57-2.39,13.22-4.04,19.52c-0.46,1.74-0.92,3.38-1.38,4.84" /></g><g p6:partial xmlns:p6="http://kanjivg.tagaini.net"><path d="M32.9,51.85c14.6-2.47,35.6-5.22,45.36-5.64" /><path d="M35.14,63.92c12.73-1.8,26.23-3.8,41.08-4.8" /></g><g><path d="M52.74,12.32c1.22,1.22,1.5,2.63,1.51,4.18c0.04,15.3,0.23,40.45,0.23,44.44" /></g></g></g><g><path d="M24.12,79c0.39,2.22-3.91,12.03-7.04,15.74" /><path d="M34.75,76.5C45.68,91.52,50.74,98,80.01,97.93c9.1-0.02,8.99-2.93,2.81-7.28" /><path d="M52.77,72.75c2.23,5.25,5.48,10.5,7.87,2.46" /><path d="M80.7,71.23c5.48,3.27,9.92,7.89,14.28,16.11" /></g></g></g><g fill="none" stroke="#000" stroke-width="3" stroke-linecap="round" stroke-linejoin="round"><path d="M29.25,24.86c2.75,0.51,5.65,0.43,7.99,0.16c9.05-1.05,27.35-3.32,36.14-3.82c2.4-0.14,5.01-0.26,7.37,0.34" stroke-dasharray="51.774" stroke-dashoffset="51.774"><animate attributeName="stroke-dashoffset" values="51.774;51.774;0" dur="0.518s" fill="freeze" begin="0s;6075.click" /></path><path d="M28.14,37.79c0.66,0.66,1.3,1.69,1.54,2.93c1.45,7.4,2.36,12.3,3.76,21c0.25,1.52,0.49,3.08,0.74,4.67" stroke-dasharray="29.422" stroke-dashoffset="29.422"><animate attributeName="stroke-dashoffset" values="29.422" fill="freeze" begin="6075.click" /><animate attributeName="stroke-dashoffset" values="29.422;29.422;0" keyTimes="0;0.638;1" dur="0.812s" fill="freeze" begin="0s;6075.click" /></path><path d="M30.08,39.18c13.79-1.93,37.54-5.17,47.17-5.99c3.58-0.31,4.4,1.48,3.92,4.7c-0.83,5.57-2.39,13.22-4.04,19.52c-0.46,1.74-0.92,3.38-1.38,4.84" stroke-dasharray="80.116" stroke-dashoffset="80.116"><animate attributeName="stroke-dashoffset" values="80.116" fill="freeze" begin="6075.click" /><animate attributeName="stroke-dashoffset" values="80.116;80.116;0" keyTimes="0;0.574;1" dur="1.414s" fill="freeze" begin="0s;6075.click" /></path><path d="M32.9,51.85c14.6-2.47,35.6-5.22,45.36-5.64" stroke-dasharray="45.73" stroke-dashoffset="45.73"><animate attributeName="stroke-dashoffset" values="45.73" fill="freeze" begin="6075.click" /><animate attributeName="stroke-dashoffset" values="45.73;45.73;0" keyTimes="0;0.756;1" dur="1.871s" fill="freeze" begin="0s;6075.click" /></path><path d="M35.14,63.92c12.73-1.8,26.23-3.8,41.08-4.8" stroke-dasharray="41.371" stroke-dashoffset="41.371"><animate attributeName="stroke-dashoffset" values="41.371" fill="freeze" begin="6075.click" /><animate attributeName="stroke-dashoffset" values="41.371;41.371;0" keyTimes="0;0.819;1" dur="2.285s" fill="freeze" begin="0s;6075.click" /></path><path d="M52.74,12.32c1.22,1.22,1.5,2.63,1.51,4.18c0.04,15.3,0.23,40.45,0.23,44.44" stroke-dasharray="49.015" stroke-dashoffset="49.015"><animate attributeName="stroke-dashoffset" values="49.015" fill="freeze" begin="6075.click" /><animate attributeName="stroke-dashoffset" values="49.015;49.015;0" keyTimes="0;0.823;1" dur="2.775s" fill="freeze" begin="0s;6075.click" /></path><path d="M24.12,79c0.39,2.22-3.91,12.03-7.04,15.74" stroke-dasharray="17.439" stroke-dashoffset="17.439"><animate attributeName="stroke-dashoffset" values="17.439" fill="freeze" begin="6075.click" /><animate attributeName="stroke-dashoffset" values="17.439;17.439;0" keyTimes="0;0.941;1" dur="2.949s" fill="freeze" begin="0s;6075.click" /></path><path d="M34.75,76.5C45.68,91.52,50.74,98,80.01,97.93c9.1-0.02,8.99-2.93,2.81-7.28" stroke-dasharray="68.056" stroke-dashoffset="68.056"><animate attributeName="stroke-dashoffset" values="68.056" fill="freeze" begin="6075.click" /><animate attributeName="stroke-dashoffset" values="68.056;68.056;0" keyTimes="0;0.852;1" dur="3.461s" fill="freeze" begin="0s;6075.click" /></path><path d="M52.77,72.75c2.23,5.25,5.48,10.5,7.87,2.46" stroke-dasharray="13.914" stroke-dashoffset="13.914"><animate attributeName="stroke-dashoffset" values="13.914" fill="freeze" begin="6075.click" /><animate attributeName="stroke-dashoffset" values="13.914;13.914;0" keyTimes="0;0.961;1" dur="3.6s" fill="freeze" begin="0s;6075.click" /></path><path d="M80.7,71.23c5.48,3.27,9.92,7.89,14.28,16.11" stroke-dasharray="21.82" stroke-dashoffset="21.82"><animate attributeName="stroke-dashoffset" values="21.82" fill="freeze" begin="6075.click" /><animate attributeName="stroke-dashoffset" values="21.82;21.82;0" keyTimes="0;0.943;1" dur="3.818s" fill="freeze" begin="0s;6075.click" /></path></g></svg>