<svg xmlns="http://www.w3.org/2000/svg" width="109" height="109" viewBox="0 0 109 109" id="6084"><g fill="none" stroke="#666" stroke-width="9" stroke-linecap="round" stroke-linejoin="round"><g><g><path d="M16.22,35.25c0.02,4.38-1.94,14.35-3.69,17.75" /><path d="M28.02,29.33c2.84,1.96,7.33,8.08,8.04,11.13" /><path d="M23.37,12.25c1.09,0.5,1.74,2.25,1.96,3.25c0.22,1,0,75.25-0.22,81.5" /></g><g><g><path d="M66.49,12.5c0.12,0.38,1.67,1.95,1.67,4.34c0,8.16,0.09,21.01,0.09,24.91" /><path d="M55.21,24.6c0.03,0.4,0.07,1.02-0.07,1.59c-0.86,3.35-6.04,10.63-10.75,14.33" /><path d="M80.56,23.83c5.5,2.82,12.45,9.61,13.82,13.99" /></g><g><path d="M50.86,41.98c0.66,0.94,1.1,1.88,1.32,2.82c0.22,0.94,0.31,48.65,0.22,50.76" /><path d="M52.49,44.92c2.64-0.23,27.38-2.73,29.34-2.99c3.52-0.47,4.39,2.98,4.39,4.46c0,10.12-0.16,25.77-0.16,44.78c0,11.4-5.93,2.61-7.91,0.97" /><path d="M52.99,58.41c10.76-0.91,25.22-1.61,33.13-2.32" /><path d="M52.83,72.77c7.03-0.7,24.79-1.85,32.91-2.32" /></g></g></g></g><g fill="none" stroke="#000" stroke-width="5" stroke-linecap="round" stroke-linejoin="round"><g><g><path d="M16.22,35.25c0.02,4.38-1.94,14.35-3.69,17.75" stroke-dasharray="18.22" stroke-dashoffset="18.22"><animate id="0" attributeName="stroke-dashoffset" values="18.22;0" dur="0.18s" fill="freeze" begin="0s;6084.click" /></path><path d="M28.02,29.33c2.84,1.96,7.33,8.08,8.04,11.13" stroke-dasharray="13.91" stroke-dashoffset="13.91"><animate attributeName="stroke-dashoffset" values="13.91" fill="freeze" begin="6084.click" /><animate id="1" attributeName="stroke-dashoffset" values="13.91;0" dur="0.14s" fill="freeze" begin="0.end" /></path><path d="M23.37,12.25c1.09,0.5,1.74,2.25,1.96,3.25c0.22,1,0,75.25-0.22,81.5" stroke-dasharray="85.41" stroke-dashoffset="85.41"><animate attributeName="stroke-dashoffset" values="85.41" fill="freeze" begin="6084.click" /><animate id="2" attributeName="stroke-dashoffset" values="85.41;0" dur="0.64s" fill="freeze" begin="1.end" /></path></g><g><g><path d="M66.49,12.5c0.12,0.38,1.67,1.95,1.67,4.34c0,8.16,0.09,21.01,0.09,24.91" stroke-dasharray="29.64" stroke-dashoffset="29.64"><animate attributeName="stroke-dashoffset" values="29.64" fill="freeze" begin="6084.click" /><animate id="3" attributeName="stroke-dashoffset" values="29.64;0" dur="0.3s" fill="freeze" begin="2.end" /></path><path d="M55.21,24.6c0.03,0.4,0.07,1.02-0.07,1.59c-0.86,3.35-6.04,10.63-10.75,14.33" stroke-dasharray="19.71" stroke-dashoffset="19.71"><animate attributeName="stroke-dashoffset" values="19.71" fill="freeze" begin="6084.click" /><animate id="4" attributeName="stroke-dashoffset" values="19.71;0" dur="0.2s" fill="freeze" begin="3.end" /></path><path d="M80.56,23.83c5.5,2.82,12.45,9.61,13.82,13.99" stroke-dasharray="20.01" stroke-dashoffset="20.01"><animate attributeName="stroke-dashoffset" values="20.01" fill="freeze" begin="6084.click" /><animate id="5" attributeName="stroke-dashoffset" values="20.01;0" dur="0.2s" fill="freeze" begin="4.end" /></path></g><g><path d="M50.86,41.98c0.66,0.94,1.1,1.88,1.32,2.82c0.22,0.94,0.31,48.65,0.22,50.76" stroke-dasharray="53.9" stroke-dashoffset="53.9"><animate attributeName="stroke-dashoffset" values="53.9" fill="freeze" begin="6084.click" /><animate id="6" attributeName="stroke-dashoffset" values="53.9;0" dur="0.54s" fill="freeze" begin="5.end" /></path><path d="M52.49,44.92c2.64-0.23,27.38-2.73,29.34-2.99c3.52-0.47,4.39,2.98,4.39,4.46c0,10.12-0.16,25.77-0.16,44.78c0,11.4-5.93,2.61-7.91,0.97" stroke-dasharray="95.77" stroke-dashoffset="95.77"><animate attributeName="stroke-dashoffset" values="95.77" fill="freeze" begin="6084.click" /><animate id="7" attributeName="stroke-dashoffset" values="95.77;0" dur="0.72s" fill="freeze" begin="6.end" /></path><path d="M52.99,58.41c10.76-0.91,25.22-1.61,33.13-2.32" stroke-dasharray="33.21" stroke-dashoffset="33.21"><animate attributeName="stroke-dashoffset" values="33.21" fill="freeze" begin="6084.click" /><animate id="8" attributeName="stroke-dashoffset" values="33.21;0" dur="0.33s" fill="freeze" begin="7.end" /></path><path d="M52.83,72.77c7.03-0.7,24.79-1.85,32.91-2.32" stroke-dasharray="32.99" stroke-dashoffset="32.99"><animate attributeName="stroke-dashoffset" values="32.99" fill="freeze" begin="6084.click" /><animate id="9" attributeName="stroke-dashoffset" values="32.99;0" dur="0.33s" fill="freeze" begin="8.end" /></path></g></g></g></g></svg>