<svg xmlns="http://www.w3.org/2000/svg" width="109" height="109" viewBox="0 0 109 109" id="609a"><g fill="none" stroke="#666" stroke-width="9" stroke-linecap="round" stroke-linejoin="round"><g><g><path d="M14.97,35.5c0.02,4.31-1.81,14.14-3.44,17.5" /><path d="M29.27,33.83c1.87,2.14,4.83,8.8,5.29,12.13" /><path d="M21.37,13.75c1.09,0.5,1.74,2.25,1.96,3.25c0.22,1,0,71.75-0.22,78" /></g><g><g p5:part="1" xmlns:p5="http://kanjivg.tagaini.net"><path d="M42.47,27.66c0.99,0.3,2.79,0.35,3.78,0.3c8.3-0.41,30.39-2.57,39.28-2.86c1.64-0.05,2.63,0.14,3.45,0.3" /></g><g><path d="M42.24,38.45c0.25,0.32,0.5,0.59,0.61,0.99c0.86,3.2,2.69,14.01,3.28,19.75" /><path d="M43.78,40.19c11.47-1.44,37.48-3.53,40.38-3.85c1.8-0.2,3.44,1.57,2.96,3.42c-1.28,4.96-2.58,11.15-3.59,14.95" /><path d="M46.25,57.31c7.14-1.21,32.97-1.54,39.65-2.14" /></g><g p5:part="2" xmlns:p5="http://kanjivg.tagaini.net"><path d="M62.25,12.75c1.25,0.5,2,2.25,2.25,3.25s0,73.25-0.25,79.5" /><path d="M64.25,55.5C58.96,66.8,44.87,82.61,33.86,89" /><path d="M64.99,57.6c4.76,6.9,16.51,19.9,26.1,26.58c1.63,1.14,2.8,1.85,4.3,2.22" /></g></g></g></g><g fill="none" stroke="#000" stroke-width="5" stroke-linecap="round" stroke-linejoin="round"><g><g><path d="M14.97,35.5c0.02,4.31-1.81,14.14-3.44,17.5" stroke-dasharray="17.92" stroke-dashoffset="17.92"><animate id="0" attributeName="stroke-dashoffset" values="17.92;0" dur="0.18s" fill="freeze" begin="0s;609a.click" /></path><path d="M29.27,33.83c1.87,2.14,4.83,8.8,5.29,12.13" stroke-dasharray="13.34" stroke-dashoffset="13.34"><animate attributeName="stroke-dashoffset" values="13.34" fill="freeze" begin="609a.click" /><animate id="1" attributeName="stroke-dashoffset" values="13.34;0" dur="0.13s" fill="freeze" begin="0.end" /></path><path d="M21.37,13.75c1.09,0.5,1.74,2.25,1.96,3.25c0.22,1,0,71.75-0.22,78" stroke-dasharray="81.91" stroke-dashoffset="81.91"><animate attributeName="stroke-dashoffset" values="81.91" fill="freeze" begin="609a.click" /><animate id="2" attributeName="stroke-dashoffset" values="81.91;0" dur="0.62s" fill="freeze" begin="1.end" /></path></g><g><g p5:part="1" xmlns:p5="http://kanjivg.tagaini.net"><path d="M42.47,27.66c0.99,0.3,2.79,0.35,3.78,0.3c8.3-0.41,30.39-2.57,39.28-2.86c1.64-0.05,2.63,0.14,3.45,0.3" stroke-dasharray="46.66" stroke-dashoffset="46.66"><animate attributeName="stroke-dashoffset" values="46.66" fill="freeze" begin="609a.click" /><animate id="3" attributeName="stroke-dashoffset" values="46.66;0" dur="0.47s" fill="freeze" begin="2.end" /></path></g><g><path d="M42.24,38.45c0.25,0.32,0.5,0.59,0.61,0.99c0.86,3.2,2.69,14.01,3.28,19.75" stroke-dasharray="21.2" stroke-dashoffset="21.2"><animate attributeName="stroke-dashoffset" values="21.2" fill="freeze" begin="609a.click" /><animate id="4" attributeName="stroke-dashoffset" values="21.2;0" dur="0.21s" fill="freeze" begin="3.end" /></path><path d="M43.78,40.19c11.47-1.44,37.48-3.53,40.38-3.85c1.8-0.2,3.44,1.57,2.96,3.42c-1.28,4.96-2.58,11.15-3.59,14.95" stroke-dasharray="61.22" stroke-dashoffset="61.22"><animate attributeName="stroke-dashoffset" values="61.22" fill="freeze" begin="609a.click" /><animate id="5" attributeName="stroke-dashoffset" values="61.22;0" dur="0.46s" fill="freeze" begin="4.end" /></path><path d="M46.25,57.31c7.14-1.21,32.97-1.54,39.65-2.14" stroke-dasharray="39.72" stroke-dashoffset="39.72"><animate attributeName="stroke-dashoffset" values="39.72" fill="freeze" begin="609a.click" /><animate id="6" attributeName="stroke-dashoffset" values="39.72;0" dur="0.4s" fill="freeze" begin="5.end" /></path></g><g p5:part="2" xmlns:p5="http://kanjivg.tagaini.net"><path d="M62.25,12.75c1.25,0.5,2,2.25,2.25,3.25s0,73.25-0.25,79.5" stroke-dasharray="83.59" stroke-dashoffset="83.59"><animate attributeName="stroke-dashoffset" values="83.59" fill="freeze" begin="609a.click" /><animate id="7" attributeName="stroke-dashoffset" values="83.59;0" dur="0.63s" fill="freeze" begin="6.end" /></path><path d="M64.25,55.5C58.96,66.8,44.87,82.61,33.86,89" stroke-dasharray="45.74" stroke-dashoffset="45.74"><animate attributeName="stroke-dashoffset" values="45.74" fill="freeze" begin="609a.click" /><animate id="8" attributeName="stroke-dashoffset" values="45.74;0" dur="0.46s" fill="freeze" begin="7.end" /></path><path d="M64.99,57.6c4.76,6.9,16.51,19.9,26.1,26.58c1.63,1.14,2.8,1.85,4.3,2.22" stroke-dasharray="42.27" stroke-dashoffset="42.27"><animate attributeName="stroke-dashoffset" values="42.27" fill="freeze" begin="609a.click" /><animate id="9" attributeName="stroke-dashoffset" values="42.27;0" dur="0.42s" fill="freeze" begin="8.end" /></path></g></g></g></g></svg>