<svg xmlns="http://www.w3.org/2000/svg" width="109" height="109" viewBox="0 0 109 109" id="60a3"><g fill="none" stroke="#666" stroke-width="6" stroke-linecap="round" stroke-linejoin="round"><g><g p4:phon="串" xmlns:p4="http://kanjivg.tagaini.net"><g><path d="M30.12,21.71c1.01,0.43,1.46,1.87,1.71,2.8c0.65,2.42,1.22,5.39,2.04,9.64c0.25,1.31,0.53,2.78,0.84,4.44" /><path d="M32.42,23.4c11.9-1.28,32.75-3.95,42.2-4.54c3.62-0.23,5.04,0.66,4.06,3.99c-0.72,2.45-1.43,4.16-2.91,7.92" /><path d="M35.3,35.91c9.2-1.03,23.2-2.28,37.04-3.7c1.8-0.18,3.52-0.24,5.1-0.32" /></g><g><g><path d="M31.26,47.34c0.5,0.3,1.51,2.17,1.66,2.9c0.37,1.78,1.3,5.88,2.05,10.35c0.25,1.46,0.5,2.96,0.76,4.43" /><path d="M32.86,48.39c12.8-1.17,30.62-2.85,40.41-3.89c3.08-0.33,5.64,0.42,4.49,4.16c-1.13,3.71-1.88,5.96-2.93,10.09" /><path d="M36.43,62.41c11.38-0.75,25.95-2.36,36.22-3.08c1.66-0.12,3.2-0.21,4.58-0.27" /></g><g><path d="M53.27,10.75c0.93,0.93,1.47,2.12,1.47,3.52c0,0.62-0.07,29.6-0.07,45.01c0,3.2-0.04,6.34-0.04,8.59" /></g></g></g><g><path d="M23.01,78.81c0.32,2.7-3.2,14.61-5.76,19.11" /><path d="M37.2,76.98c8.03,15.64,21.31,23.07,44.8,21.77c9-0.5,9-3.62,1.75-8" /><path d="M54.5,76.75c1.59,2.48,6,8.75,6.52,2.28" /><path d="M81.25,71.12c4.49,2.17,8.67,6.87,11.5,10.83" /></g></g></g><g fill="none" stroke="#000" stroke-width="3" stroke-linecap="round" stroke-linejoin="round"><path d="M30.12,21.71c1.01,0.43,1.46,1.87,1.71,2.8c0.65,2.42,1.22,5.39,2.04,9.64c0.25,1.31,0.53,2.78,0.84,4.44" stroke-dasharray="17.763" stroke-dashoffset="17.763"><animate attributeName="stroke-dashoffset" values="17.763;17.763;0" dur="0.178s" fill="freeze" begin="0s;60a3.click" /></path><path d="M32.42,23.4c11.9-1.28,32.75-3.95,42.2-4.54c3.62-0.23,5.04,0.66,4.06,3.99c-0.72,2.45-1.43,4.16-2.91,7.92" stroke-dasharray="58.318" stroke-dashoffset="58.318"><animate attributeName="stroke-dashoffset" values="58.318" fill="freeze" begin="60a3.click" /><animate attributeName="stroke-dashoffset" values="58.318;58.318;0" keyTimes="0;0.234;1" dur="0.761s" fill="freeze" begin="0s;60a3.click" /></path><path d="M35.3,35.91c9.2-1.03,23.2-2.28,37.04-3.7c1.8-0.18,3.52-0.24,5.1-0.32" stroke-dasharray="42.336" stroke-dashoffset="42.336"><animate attributeName="stroke-dashoffset" values="42.336" fill="freeze" begin="60a3.click" /><animate attributeName="stroke-dashoffset" values="42.336;42.336;0" keyTimes="0;0.643;1" dur="1.184s" fill="freeze" begin="0s;60a3.click" /></path><path d="M31.26,47.34c0.5,0.3,1.51,2.17,1.66,2.9c0.37,1.78,1.3,5.88,2.05,10.35c0.25,1.46,0.5,2.96,0.76,4.43" stroke-dasharray="18.428" stroke-dashoffset="18.428"><animate attributeName="stroke-dashoffset" values="18.428" fill="freeze" begin="60a3.click" /><animate attributeName="stroke-dashoffset" values="18.428;18.428;0" keyTimes="0;0.865;1" dur="1.368s" fill="freeze" begin="0s;60a3.click" /></path><path d="M32.86,48.39c12.8-1.17,30.62-2.85,40.41-3.89c3.08-0.33,5.64,0.42,4.49,4.16c-1.13,3.71-1.88,5.96-2.93,10.09" stroke-dasharray="58.997" stroke-dashoffset="58.997"><animate attributeName="stroke-dashoffset" values="58.997" fill="freeze" begin="60a3.click" /><animate attributeName="stroke-dashoffset" values="58.997;58.997;0" keyTimes="0;0.699;1" dur="1.958s" fill="freeze" begin="0s;60a3.click" /></path><path d="M36.43,62.41c11.38-0.75,25.95-2.36,36.22-3.08c1.66-0.12,3.2-0.21,4.58-0.27" stroke-dasharray="40.941" stroke-dashoffset="40.941"><animate attributeName="stroke-dashoffset" values="40.941" fill="freeze" begin="60a3.click" /><animate attributeName="stroke-dashoffset" values="40.941;40.941;0" keyTimes="0;0.827;1" dur="2.367s" fill="freeze" begin="0s;60a3.click" /></path><path d="M53.27,10.75c0.93,0.93,1.47,2.12,1.47,3.52c0,0.62-0.07,29.6-0.07,45.01c0,3.2-0.04,6.34-0.04,8.59" stroke-dasharray="57.52" stroke-dashoffset="57.52"><animate attributeName="stroke-dashoffset" values="57.52" fill="freeze" begin="60a3.click" /><animate attributeName="stroke-dashoffset" values="57.52;57.52;0" keyTimes="0;0.805;1" dur="2.942s" fill="freeze" begin="0s;60a3.click" /></path><path d="M23.01,78.81c0.32,2.7-3.2,14.61-5.76,19.11" stroke-dasharray="20.083" stroke-dashoffset="20.083"><animate attributeName="stroke-dashoffset" values="20.083" fill="freeze" begin="60a3.click" /><animate attributeName="stroke-dashoffset" values="20.083;20.083;0" keyTimes="0;0.936;1" dur="3.143s" fill="freeze" begin="0s;60a3.click" /></path><path d="M37.2,76.98c8.03,15.64,21.31,23.07,44.8,21.77c9-0.5,9-3.62,1.75-8" stroke-dasharray="68.927" stroke-dashoffset="68.927"><animate attributeName="stroke-dashoffset" values="68.927" fill="freeze" begin="60a3.click" /><animate attributeName="stroke-dashoffset" values="68.927;68.927;0" keyTimes="0;0.859;1" dur="3.661s" fill="freeze" begin="0s;60a3.click" /></path><path d="M54.5,76.75c1.59,2.48,6,8.75,6.52,2.28" stroke-dasharray="10.85" stroke-dashoffset="10.85"><animate attributeName="stroke-dashoffset" values="10.85" fill="freeze" begin="60a3.click" /><animate attributeName="stroke-dashoffset" values="10.85;10.85;0" keyTimes="0;0.971;1" dur="3.77s" fill="freeze" begin="0s;60a3.click" /></path><path d="M81.25,71.12c4.49,2.17,8.67,6.87,11.5,10.83" stroke-dasharray="15.948" stroke-dashoffset="15.948"><animate attributeName="stroke-dashoffset" values="15.948" fill="freeze" begin="60a3.click" /><animate attributeName="stroke-dashoffset" values="15.948;15.948;0" keyTimes="0;0.96;1" dur="3.929s" fill="freeze" begin="0s;60a3.click" /></path></g></svg>