<svg xmlns="http://www.w3.org/2000/svg" width="109" height="109" viewBox="0 0 109 109" id="60a7"><g fill="none" stroke="#666" stroke-width="9" stroke-linecap="round" stroke-linejoin="round"><g><g><path d="M14.97,35.75C15,40.13,12.9,50.1,11.03,53.5" /><path d="M25.77,29.33c2.93,1.88,7.56,7.71,8.29,10.63" /><path d="M20.87,14.25c1.09,0.5,1.74,2.25,1.96,3.25c0.22,1,0,71.75-0.22,78" /></g><g><g><g><path d="M62.72,12.96c0.07,0.38,0.15,0.98-0.14,1.52c-1.72,3.21-11.6,10.24-25.11,14.55" /></g><g><path d="M37.12,45.82c0.32,0.23,1.19,0.61,2.05,0.7c2.37,0.23,22.3-2.88,28.22-4.04c0.86-0.17,1.08-0.23,1.62,0" /><path d="M52.92,25.44c0.66,0.46,1.18,3.51,1.18,4.44c0,5.44,0,59.34-0.13,65.15" /><path d="M54.25,47.09c-4.31,10.07-11.52,22.5-21.29,30.73" /><path d="M57.02,51.18c4.13,2.47,7.62,7.41,9.85,10.58" /></g></g><g><path d="M77.14,25.32c0.83,1,1.49,2.16,1.49,5.46c0,15.47-0.02,32.35-0.02,37.74" /><path d="M91.93,13.58c0.9,0.85,1.53,1.84,1.61,4.66c0.37,13.51-0.23,66.03-0.23,70.63c0,10.93-6.13,1.39-7.5,0.23" /></g></g></g></g><g fill="none" stroke="#000" stroke-width="5" stroke-linecap="round" stroke-linejoin="round"><g><g><path d="M14.97,35.75C15,40.13,12.9,50.1,11.03,53.5" stroke-dasharray="18.287" stroke-dashoffset="18.287"><animate attributeName="stroke-dashoffset" values="18.287;18.287;0" dur="0.183s" fill="freeze" begin="0s;60a7.click" /></path><path d="M25.77,29.33c2.93,1.88,7.56,7.71,8.29,10.63" stroke-dasharray="13.664" stroke-dashoffset="13.664"><animate attributeName="stroke-dashoffset" values="13.664" fill="freeze" begin="60a7.click" /><animate attributeName="stroke-dashoffset" values="13.664;13.664;0" keyTimes="0;0.572;1" dur="0.32s" fill="freeze" begin="0s;60a7.click" /></path><path d="M20.87,14.25c1.09,0.5,1.74,2.25,1.96,3.25c0.22,1,0,71.75-0.22,78" stroke-dasharray="81.912" stroke-dashoffset="81.912"><animate attributeName="stroke-dashoffset" values="81.912" fill="freeze" begin="60a7.click" /><animate attributeName="stroke-dashoffset" values="81.912;81.912;0" keyTimes="0;0.342;1" dur="0.936s" fill="freeze" begin="0s;60a7.click" /></path></g><g><g><g><path d="M62.72,12.96c0.07,0.38,0.15,0.98-0.14,1.52c-1.72,3.21-11.6,10.24-25.11,14.55" stroke-dasharray="30.964" stroke-dashoffset="30.964"><animate attributeName="stroke-dashoffset" values="30.964" fill="freeze" begin="60a7.click" /><animate attributeName="stroke-dashoffset" values="30.964;30.964;0" keyTimes="0;0.751;1" dur="1.246s" fill="freeze" begin="0s;60a7.click" /></path></g><g><path d="M37.12,45.82c0.32,0.23,1.19,0.61,2.05,0.7c2.37,0.23,22.3-2.88,28.22-4.04c0.86-0.17,1.08-0.23,1.62,0" stroke-dasharray="32.366" stroke-dashoffset="32.366"><animate attributeName="stroke-dashoffset" values="32.366" fill="freeze" begin="60a7.click" /><animate attributeName="stroke-dashoffset" values="32.366;32.366;0" keyTimes="0;0.794;1" dur="1.57s" fill="freeze" begin="0s;60a7.click" /></path><path d="M52.92,25.44c0.66,0.46,1.18,3.51,1.18,4.44c0,5.44,0,59.34-0.13,65.15" stroke-dasharray="69.815" stroke-dashoffset="69.815"><animate attributeName="stroke-dashoffset" values="69.815" fill="freeze" begin="60a7.click" /><animate attributeName="stroke-dashoffset" values="69.815;69.815;0" keyTimes="0;0.749;1" dur="2.095s" fill="freeze" begin="0s;60a7.click" /></path><path d="M54.25,47.09c-4.31,10.07-11.52,22.5-21.29,30.73" stroke-dasharray="37.705" stroke-dashoffset="37.705"><animate attributeName="stroke-dashoffset" values="37.705" fill="freeze" begin="60a7.click" /><animate attributeName="stroke-dashoffset" values="37.705;37.705;0" keyTimes="0;0.847;1" dur="2.472s" fill="freeze" begin="0s;60a7.click" /></path><path d="M57.02,51.18c4.13,2.47,7.62,7.41,9.85,10.58" stroke-dasharray="14.559" stroke-dashoffset="14.559"><animate attributeName="stroke-dashoffset" values="14.559" fill="freeze" begin="60a7.click" /><animate attributeName="stroke-dashoffset" values="14.559;14.559;0" keyTimes="0;0.944;1" dur="2.618s" fill="freeze" begin="0s;60a7.click" /></path></g></g><g><path d="M77.14,25.32c0.83,1,1.49,2.16,1.49,5.46c0,15.47-0.02,32.35-0.02,37.74" stroke-dasharray="43.534" stroke-dashoffset="43.534"><animate attributeName="stroke-dashoffset" values="43.534" fill="freeze" begin="60a7.click" /><animate attributeName="stroke-dashoffset" values="43.534;43.534;0" keyTimes="0;0.858;1" dur="3.053s" fill="freeze" begin="0s;60a7.click" /></path><path d="M91.93,13.58c0.9,0.85,1.53,1.84,1.61,4.66c0.37,13.51-0.23,66.03-0.23,70.63c0,10.93-6.13,1.39-7.5,0.23" stroke-dasharray="89.359" stroke-dashoffset="89.359"><animate attributeName="stroke-dashoffset" values="89.359" fill="freeze" begin="60a7.click" /><animate attributeName="stroke-dashoffset" values="89.359;89.359;0" keyTimes="0;0.82;1" dur="3.725s" fill="freeze" begin="0s;60a7.click" /></path></g></g></g></g></svg>