<svg xmlns="http://www.w3.org/2000/svg" width="109" height="109" viewBox="0 0 109 109" id="60c5"><g fill="none" stroke="#666" stroke-width="9" stroke-linecap="round" stroke-linejoin="round"><g><g><path d="M18.2,37.75c0,6.34-4.09,15.69-5.16,17.5" /><path d="M30.52,29.33c3.19,1.79,8.25,7.35,9.04,10.13" /><path d="M25.87,15c1.06,1.06,1.46,2.38,1.46,4c0,5.12-0.08,54.5-0.08,70.88c0,1.75-0.14,3.12-0.14,5.12" /></g><g p4:phon="青" xmlns:p4="http://kanjivg.tagaini.net"><g><path d="M48.28,22.35c1.91,0.76,4.76,0.43,6.73,0.22c7.77-0.84,21.64-2.24,28.63-2.88c1.89-0.17,4.01-0.2,5.9-0.06" /><path d="M66.46,11.88c1.02,1.02,1.57,2.74,1.57,3.93c0,5.93-0.18,19.83-0.11,27.16" /><path d="M49.39,33.57c2.19,0.64,4.65,0.12,6.86-0.11c6.91-0.73,17.34-1.91,23.13-2.45c1.93-0.18,3.85-0.34,5.79-0.23" /><path d="M41.88,45.39c2.96,0.6,5.92,0.51,8.87,0.14c12.37-1.53,26.37-2.91,37.88-3.8c2.88-0.22,4.99-0.36,7.37,0.18" /></g><g><path d="M53.6,55.03c0.87,0.87,1.49,2.35,1.49,3.65c0,3.7-0.13,21.37-0.09,31.7c0.01,2.44,0.01,3.83,0.01,5.12" /><path d="M55.58,55.83c4.8-0.7,22.17-2.69,24.01-2.86c2.42-0.22,3.62,1.28,3.62,2.86c0,3.42,0.23,24.24,0.13,35.35c-0.09,9.82-4.69,2.42-5.51,1.73" /><path d="M56.08,66.61c8.3-0.99,17.17-1.36,26.19-1.97" /><path d="M56.19,77.99c6.93-0.49,18.31-1.24,25.9-1.67" /></g></g></g></g><g fill="none" stroke="#000" stroke-width="5" stroke-linecap="round" stroke-linejoin="round"><g><g><path d="M18.2,37.75c0,6.34-4.09,15.69-5.16,17.5" stroke-dasharray="18.38" stroke-dashoffset="18.38"><animate id="0" attributeName="stroke-dashoffset" values="18.38;0" dur="0.18s" fill="freeze" begin="0s;60c5.click" /></path><path d="M30.52,29.33c3.19,1.79,8.25,7.35,9.04,10.13" stroke-dasharray="13.77" stroke-dashoffset="13.77"><animate attributeName="stroke-dashoffset" values="13.77" fill="freeze" begin="60c5.click" /><animate id="1" attributeName="stroke-dashoffset" values="13.77;0" dur="0.14s" fill="freeze" begin="0.end" /></path><path d="M25.87,15c1.06,1.06,1.46,2.38,1.46,4c0,5.12-0.08,54.5-0.08,70.88c0,1.75-0.14,3.12-0.14,5.12" stroke-dasharray="80.38" stroke-dashoffset="80.38"><animate attributeName="stroke-dashoffset" values="80.38" fill="freeze" begin="60c5.click" /><animate id="2" attributeName="stroke-dashoffset" values="80.38;0" dur="0.6s" fill="freeze" begin="1.end" /></path></g><g p4:phon="青" xmlns:p4="http://kanjivg.tagaini.net"><g><path d="M48.28,22.35c1.91,0.76,4.76,0.43,6.73,0.22c7.77-0.84,21.64-2.24,28.63-2.88c1.89-0.17,4.01-0.2,5.9-0.06" stroke-dasharray="41.48" stroke-dashoffset="41.48"><animate attributeName="stroke-dashoffset" values="41.48" fill="freeze" begin="60c5.click" /><animate id="3" attributeName="stroke-dashoffset" values="41.48;0" dur="0.41s" fill="freeze" begin="2.end" /></path><path d="M66.46,11.88c1.02,1.02,1.57,2.74,1.57,3.93c0,5.93-0.18,19.83-0.11,27.16" stroke-dasharray="31.49" stroke-dashoffset="31.49"><animate attributeName="stroke-dashoffset" values="31.49" fill="freeze" begin="60c5.click" /><animate id="4" attributeName="stroke-dashoffset" values="31.49;0" dur="0.31s" fill="freeze" begin="3.end" /></path><path d="M49.39,33.57c2.19,0.64,4.65,0.12,6.86-0.11c6.91-0.73,17.34-1.91,23.13-2.45c1.93-0.18,3.85-0.34,5.79-0.23" stroke-dasharray="35.97" stroke-dashoffset="35.97"><animate attributeName="stroke-dashoffset" values="35.97" fill="freeze" begin="60c5.click" /><animate id="5" attributeName="stroke-dashoffset" values="35.97;0" dur="0.36s" fill="freeze" begin="4.end" /></path><path d="M41.88,45.39c2.96,0.6,5.92,0.51,8.87,0.14c12.37-1.53,26.37-2.91,37.88-3.8c2.88-0.22,4.99-0.36,7.37,0.18" stroke-dasharray="54.39" stroke-dashoffset="54.39"><animate attributeName="stroke-dashoffset" values="54.39" fill="freeze" begin="60c5.click" /><animate id="6" attributeName="stroke-dashoffset" values="54.39;0" dur="0.54s" fill="freeze" begin="5.end" /></path></g><g><path d="M53.6,55.03c0.87,0.87,1.49,2.35,1.49,3.65c0,3.7-0.13,21.37-0.09,31.7c0.01,2.44,0.01,3.83,0.01,5.12" stroke-dasharray="40.85" stroke-dashoffset="40.85"><animate attributeName="stroke-dashoffset" values="40.85" fill="freeze" begin="60c5.click" /><animate id="7" attributeName="stroke-dashoffset" values="40.85;0" dur="0.41s" fill="freeze" begin="6.end" /></path><path d="M55.58,55.83c4.8-0.7,22.17-2.69,24.01-2.86c2.42-0.22,3.62,1.28,3.62,2.86c0,3.42,0.23,24.24,0.13,35.35c-0.09,9.82-4.69,2.42-5.51,1.73" stroke-dasharray="75.7" stroke-dashoffset="75.7"><animate attributeName="stroke-dashoffset" values="75.7" fill="freeze" begin="60c5.click" /><animate id="8" attributeName="stroke-dashoffset" values="75.7;0" dur="0.57s" fill="freeze" begin="7.end" /></path><path d="M56.08,66.61c8.3-0.99,17.17-1.36,26.19-1.97" stroke-dasharray="26.27" stroke-dashoffset="26.27"><animate attributeName="stroke-dashoffset" values="26.27" fill="freeze" begin="60c5.click" /><animate id="9" attributeName="stroke-dashoffset" values="26.27;0" dur="0.26s" fill="freeze" begin="8.end" /></path><path d="M56.19,77.99c6.93-0.49,18.31-1.24,25.9-1.67" stroke-dasharray="25.95" stroke-dashoffset="25.95"><animate attributeName="stroke-dashoffset" values="25.95" fill="freeze" begin="60c5.click" /><animate id="10" attributeName="stroke-dashoffset" values="25.95;0" dur="0.26s" fill="freeze" begin="9.end" /></path></g></g></g></g></svg>