<svg xmlns="http://www.w3.org/2000/svg" width="109" height="109" viewBox="0 0 109 109" id="60d1"><g fill="none" stroke="#666" stroke-width="9" stroke-linecap="round" stroke-linejoin="round"><g><g p4:phon="或" xmlns:p4="http://kanjivg.tagaini.net"><g p4:part="1"><g p4:part="1"><path d="M15.43,26.92c3.03,0.93,6.75,0.54,9.83,0.11c11.72-1.66,31.86-4.96,46.05-6.19c3.3-0.29,6.78-0.54,10.04,0.06" /></g></g><g><path d="M21.56,38.93c0.87,0.52,1.19,1.39,1.59,2.6c0.74,2.25,1.11,4.95,1.77,7.88c0.26,1.15,0.51,2.27,0.75,3.28" /><path d="M23.98,40.37c7.09-1.58,12.73-2.78,17.9-3.5c3.91-0.54,5.62,0.95,4.53,4.13c-0.75,2.18-1.21,3.66-2.29,6.98" /><path d="M26.4,51.17c3.95-0.31,9.91-1.13,15.57-1.73c1.24-0.13,2.46-0.25,3.65-0.36" /></g><g><path d="M19.75,65.87c0.76,0.84,2.28,1.26,4.57,0.18c7.43-3.48,16.05-7.61,23.63-11.09" /></g><g p4:part="2"><g p4:part="2"><path d="M48.82,10.38c1.76,1.26,2.47,2.91,3.06,4.94c5.15,17.85,14.5,35.13,29.63,45.38c10.18,6.9,9.5,2.75,6.4-6.68" /></g><g><path d="M75.39,30.4c0.06,0.66,0.12,1.7-0.12,2.64c-1.44,5.57-9.68,18.41-20.97,25.89" /></g><g p4:part="3"><g><path d="M62,8.45c3.18,1.03,8.27,3.37,9.75,5.12" /></g></g></g></g><g><path d="M24.26,80.51c0.45,2.21-4.54,11.98-8.18,15.67" /><path d="M36.08,78.45c6.79,11.75,16.42,21.3,40.2,21.43c11.47,0.07,12.22-3.93,2.65-8.94" /><path d="M55.16,71.45c2.02,4.85,4.97,9.7,7.13,2.28" /><path d="M81.88,71.68c3.94,2.52,7.24,6.39,10.1,12.61" /></g></g></g><g fill="none" stroke="#000" stroke-width="5" stroke-linecap="round" stroke-linejoin="round"><g><g p4:phon="或" xmlns:p4="http://kanjivg.tagaini.net"><g p4:part="1"><g p4:part="1"><path d="M15.43,26.92c3.03,0.93,6.75,0.54,9.83,0.11c11.72-1.66,31.86-4.96,46.05-6.19c3.3-0.29,6.78-0.54,10.04,0.06" stroke-dasharray="66.45" stroke-dashoffset="66.45"><animate id="0" attributeName="stroke-dashoffset" values="66.45;0" dur="0.5s" fill="freeze" begin="0s;60d1.click" /></path></g></g><g><path d="M21.56,38.93c0.87,0.52,1.19,1.39,1.59,2.6c0.74,2.25,1.11,4.95,1.77,7.88c0.26,1.15,0.51,2.27,0.75,3.28" stroke-dasharray="14.57" stroke-dashoffset="14.57"><animate attributeName="stroke-dashoffset" values="14.57" fill="freeze" begin="60d1.click" /><animate id="1" attributeName="stroke-dashoffset" values="14.57;0" dur="0.15s" fill="freeze" begin="0.end" /></path><path d="M23.98,40.37c7.09-1.58,12.73-2.78,17.9-3.5c3.91-0.54,5.62,0.95,4.53,4.13c-0.75,2.18-1.21,3.66-2.29,6.98" stroke-dasharray="33.6" stroke-dashoffset="33.6"><animate attributeName="stroke-dashoffset" values="33.6" fill="freeze" begin="60d1.click" /><animate id="2" attributeName="stroke-dashoffset" values="33.6;0" dur="0.34s" fill="freeze" begin="1.end" /></path><path d="M26.4,51.17c3.95-0.31,9.91-1.13,15.57-1.73c1.24-0.13,2.46-0.25,3.65-0.36" stroke-dasharray="19.33" stroke-dashoffset="19.33"><animate attributeName="stroke-dashoffset" values="19.33" fill="freeze" begin="60d1.click" /><animate id="3" attributeName="stroke-dashoffset" values="19.33;0" dur="0.19s" fill="freeze" begin="2.end" /></path></g><g><path d="M19.75,65.87c0.76,0.84,2.28,1.26,4.57,0.18c7.43-3.48,16.05-7.61,23.63-11.09" stroke-dasharray="31" stroke-dashoffset="31"><animate attributeName="stroke-dashoffset" values="31" fill="freeze" begin="60d1.click" /><animate id="4" attributeName="stroke-dashoffset" values="31;0" dur="0.31s" fill="freeze" begin="3.end" /></path></g><g p4:part="2"><g p4:part="2"><path d="M48.82,10.38c1.76,1.26,2.47,2.91,3.06,4.94c5.15,17.85,14.5,35.13,29.63,45.38c10.18,6.9,9.5,2.75,6.4-6.68" stroke-dasharray="80.3" stroke-dashoffset="80.3"><animate attributeName="stroke-dashoffset" values="80.3" fill="freeze" begin="60d1.click" /><animate id="5" attributeName="stroke-dashoffset" values="80.3;0" dur="0.6s" fill="freeze" begin="4.end" /></path></g><g><path d="M75.39,30.4c0.06,0.66,0.12,1.7-0.12,2.64c-1.44,5.57-9.68,18.41-20.97,25.89" stroke-dasharray="36.5" stroke-dashoffset="36.5"><animate attributeName="stroke-dashoffset" values="36.5" fill="freeze" begin="60d1.click" /><animate id="6" attributeName="stroke-dashoffset" values="36.5;0" dur="0.36s" fill="freeze" begin="5.end" /></path></g><g p4:part="3"><g><path d="M62,8.45c3.18,1.03,8.27,3.37,9.75,5.12" stroke-dasharray="11.1" stroke-dashoffset="11.1"><animate attributeName="stroke-dashoffset" values="11.1" fill="freeze" begin="60d1.click" /><animate id="7" attributeName="stroke-dashoffset" values="11.1;0" dur="0.11s" fill="freeze" begin="6.end" /></path></g></g></g></g><g><path d="M24.26,80.51c0.45,2.21-4.54,11.98-8.18,15.67" stroke-dasharray="17.92" stroke-dashoffset="17.92"><animate attributeName="stroke-dashoffset" values="17.92" fill="freeze" begin="60d1.click" /><animate id="8" attributeName="stroke-dashoffset" values="17.92;0" dur="0.18s" fill="freeze" begin="7.end" /></path><path d="M36.08,78.45c6.79,11.75,16.42,21.3,40.2,21.43c11.47,0.07,12.22-3.93,2.65-8.94" stroke-dasharray="67.83" stroke-dashoffset="67.83"><animate attributeName="stroke-dashoffset" values="67.83" fill="freeze" begin="60d1.click" /><animate id="9" attributeName="stroke-dashoffset" values="67.83;0" dur="0.51s" fill="freeze" begin="8.end" /></path><path d="M55.16,71.45c2.02,4.85,4.97,9.7,7.13,2.28" stroke-dasharray="12.76" stroke-dashoffset="12.76"><animate attributeName="stroke-dashoffset" values="12.76" fill="freeze" begin="60d1.click" /><animate id="10" attributeName="stroke-dashoffset" values="12.76;0" dur="0.13s" fill="freeze" begin="9.end" /></path><path d="M81.88,71.68c3.94,2.52,7.24,6.39,10.1,12.61" stroke-dasharray="16.39" stroke-dashoffset="16.39"><animate attributeName="stroke-dashoffset" values="16.39" fill="freeze" begin="60d1.click" /><animate id="11" attributeName="stroke-dashoffset" values="16.39;0" dur="0.16s" fill="freeze" begin="10.end" /></path></g></g></g></svg>