<svg xmlns="http://www.w3.org/2000/svg" viewBox="0 0 109 109" id="60f6"><g fill="none" stroke="#666" stroke-width="6" stroke-linecap="round" stroke-linejoin="round"><g><g><path d="M17.22,33.5c0.03,4.31-2.47,14.14-4.69,17.5" /><path d="M32.27,30.83C34.49,33.06,38,40,38.56,43.47" /><path d="M23.37,12.25c1.09,0.5,1.74,2.25,1.96,3.25c0.22,1,0,75.75-0.22,82" /></g><g><g><g><path d="M64.28,11.5c0.33,0.55,0.39,1.23,0.31,1.71c-0.47,2.84-4.52,9.62-8.21,13.43" /></g><g><path d="M47.05,26.46c0.66,0.7,1.19,2,1.33,2.91c0.79,5.11,3.41,19.66,3.68,24.27" /><path d="M48.78,28.12c9.24-1.26,31.55-3.05,34.96-3.51c1.64-0.22,2.7,1.86,2.34,3.79c-0.8,4.29-3.12,14.72-4.71,22.94" /><path d="M50.65,39.72c11.1-1.47,27.82-3.08,33.56-3.08" /><path d="M52.25,51.54c9.59-0.8,21.47-1.65,29.39-1.88" /></g></g><g p5:partial xmlns:p5="http://kanjivg.tagaini.net"><path d="M44.75,62.66c1.01,0.48,3.79,0.6,4.83,0.53c8.61-0.62,23.91-1.69,35.05-2.52c1.56-0.12,2.98,0.09,4.27,0.5" /><path d="M64.11,64.65c1.29,2.08,1.29,3.33,1.29,5c0,11.67-0.07,8.45-0.07,22.97" /><path d="M46.25,77.63c0.77,0.53,3.32,0.32,4.11,0.23c8.23-0.93,20.31-1.82,29.98-2.77c0.96-0.09,3.09-0.21,4.53,0.25" /><path d="M38.84,94.23c0.7,0.31,4.35,0.62,5.54,0.52c14.23-1.28,26.36-1.75,44.5-2.69c2.36-0.12,4.61,0.19,6.26,1" /></g></g></g></g><g fill="none" stroke="#000" stroke-width="3" stroke-linecap="round" stroke-linejoin="round"><path d="M17.22,33.5c0.03,4.31-2.47,14.14-4.69,17.5" stroke-dasharray="18.261" stroke-dashoffset="18.261"><animate attributeName="stroke-dashoffset" values="18.261;18.261;0" dur="0.183s" fill="freeze" begin="0s;60f6.click" /></path><path d="M32.27,30.83C34.49,33.06,38,40,38.56,43.47" stroke-dasharray="14.248" stroke-dashoffset="14.248"><animate attributeName="stroke-dashoffset" values="14.248" fill="freeze" begin="60f6.click" /><animate attributeName="stroke-dashoffset" values="14.248;14.248;0" keyTimes="0;0.391;1" dur="0.468s" fill="freeze" begin="0s;60f6.click" /></path><path d="M23.37,12.25c1.09,0.5,1.74,2.25,1.96,3.25c0.22,1,0,75.75-0.22,82" stroke-dasharray="85.912" stroke-dashoffset="85.912"><animate attributeName="stroke-dashoffset" values="85.912" fill="freeze" begin="60f6.click" /><animate attributeName="stroke-dashoffset" values="85.912;85.912;0" keyTimes="0;0.42;1" dur="1.114s" fill="freeze" begin="0s;60f6.click" /></path><path d="M64.28,11.5c0.33,0.55,0.39,1.23,0.31,1.71c-0.47,2.84-4.52,9.62-8.21,13.43" stroke-dasharray="17.652" stroke-dashoffset="17.652"><animate attributeName="stroke-dashoffset" values="17.652" fill="freeze" begin="60f6.click" /><animate attributeName="stroke-dashoffset" values="17.652;17.652;0" keyTimes="0;0.863;1" dur="1.291s" fill="freeze" begin="0s;60f6.click" /></path><path d="M47.05,26.46c0.66,0.7,1.19,2,1.33,2.91c0.79,5.11,3.41,19.66,3.68,24.27" stroke-dasharray="27.793" stroke-dashoffset="27.793"><animate attributeName="stroke-dashoffset" values="27.793" fill="freeze" begin="60f6.click" /><animate attributeName="stroke-dashoffset" values="27.793;27.793;0" keyTimes="0;0.823;1" dur="1.569s" fill="freeze" begin="0s;60f6.click" /></path><path d="M48.78,28.12c9.24-1.26,31.55-3.05,34.96-3.51c1.64-0.22,2.7,1.86,2.34,3.79c-0.8,4.29-3.12,14.72-4.71,22.94" stroke-dasharray="63.696" stroke-dashoffset="63.696"><animate attributeName="stroke-dashoffset" values="63.696" fill="freeze" begin="60f6.click" /><animate attributeName="stroke-dashoffset" values="63.696;63.696;0" keyTimes="0;0.766;1" dur="2.048s" fill="freeze" begin="0s;60f6.click" /></path><path d="M50.65,39.72c11.1-1.47,27.82-3.08,33.56-3.08" stroke-dasharray="33.715" stroke-dashoffset="33.715"><animate attributeName="stroke-dashoffset" values="33.715" fill="freeze" begin="60f6.click" /><animate attributeName="stroke-dashoffset" values="33.715;33.715;0" keyTimes="0;0.859;1" dur="2.385s" fill="freeze" begin="0s;60f6.click" /></path><path d="M52.25,51.54c9.59-0.8,21.47-1.65,29.39-1.88" stroke-dasharray="29.454" stroke-dashoffset="29.454"><animate attributeName="stroke-dashoffset" values="29.454" fill="freeze" begin="60f6.click" /><animate attributeName="stroke-dashoffset" values="29.454;29.454;0" keyTimes="0;0.89;1" dur="2.68s" fill="freeze" begin="0s;60f6.click" /></path><path d="M44.75,62.66c1.01,0.48,3.79,0.6,4.83,0.53c8.61-0.62,23.91-1.69,35.05-2.52c1.56-0.12,2.98,0.09,4.27,0.5" stroke-dasharray="44.356" stroke-dashoffset="44.356"><animate attributeName="stroke-dashoffset" values="44.356" fill="freeze" begin="60f6.click" /><animate attributeName="stroke-dashoffset" values="44.356;44.356;0" keyTimes="0;0.858;1" dur="3.124s" fill="freeze" begin="0s;60f6.click" /></path><path d="M64.11,64.65c1.29,2.08,1.29,3.33,1.29,5c0,11.67-0.07,8.45-0.07,22.97" stroke-dasharray="28.227" stroke-dashoffset="28.227"><animate attributeName="stroke-dashoffset" values="28.227" fill="freeze" begin="60f6.click" /><animate attributeName="stroke-dashoffset" values="28.227;28.227;0" keyTimes="0;0.917;1" dur="3.406s" fill="freeze" begin="0s;60f6.click" /></path><path d="M46.25,77.63c0.77,0.53,3.32,0.32,4.11,0.23c8.23-0.93,20.31-1.82,29.98-2.77c0.96-0.09,3.09-0.21,4.53,0.25" stroke-dasharray="38.839" stroke-dashoffset="38.839"><animate attributeName="stroke-dashoffset" values="38.839" fill="freeze" begin="60f6.click" /><animate attributeName="stroke-dashoffset" values="38.839;38.839;0" keyTimes="0;0.898;1" dur="3.794s" fill="freeze" begin="0s;60f6.click" /></path><path d="M38.84,94.23c0.7,0.31,4.35,0.62,5.54,0.52c14.23-1.28,26.36-1.75,44.5-2.69c2.36-0.12,4.61,0.19,6.26,1" stroke-dasharray="56.572" stroke-dashoffset="56.572"><animate attributeName="stroke-dashoffset" values="56.572" fill="freeze" begin="60f6.click" /><animate attributeName="stroke-dashoffset" values="56.572;56.572;0" keyTimes="0;0.87;1" dur="4.36s" fill="freeze" begin="0s;60f6.click" /></path></g></svg>