<svg xmlns="http://www.w3.org/2000/svg" width="109" height="109" viewBox="0 0 109 109" id="60f7"><g fill="none" stroke="#666" stroke-width="9" stroke-linecap="round" stroke-linejoin="round"><g><g><g><g><g><path d="M24.81,20.76c1.16,0.3,3.28,0.34,4.44,0.3c12-0.32,33.66-3.12,48.65-3.5c1.93-0.05,3.09,0.15,4.06,0.3" /></g><g><g><path d="M29.25,30.33c0.94,0.28,2.66,0.31,3.6,0.28c9.77-0.32,28.9-2.36,42.27-3.2c1.56-0.1,2.5,0.13,3.28,0.27" /></g><g p8:part="1" xmlns:p8="http://kanjivg.tagaini.net"><g><path d="M15.88,42.65c1.52,0.26,4.32,0.31,5.84,0.26c15.85-0.44,46.15-4.03,66.08-4.02c2.54,0,4.06,0.13,5.33,0.26" /></g></g></g></g><g p6:part="2" xmlns:p6="http://kanjivg.tagaini.net"><g><path d="M52.76,12c0.1,1.22,0.21,3.17-0.2,4.92C50.11,27.31,37,51.5,14.5,63.31" /><path d="M59.75,29.47c4.75,5.41,22.92,22.59,28.16,26.55c1.78,1.34,4.06,1.92,5.84,2.3" /></g></g></g><g><path d="M38.77,50.38c0.39,0.57,0.78,0.86,0.78,1.62c0,0.76,2.74,18.04,2.74,18.43" /><path d="M40.19,51.58c2.2-0.1,26.91-3.32,28.92-3.43c1.67-0.1,3.24,2.06,3.11,2.62c-0.26,1.15-2.02,17.53-2.02,18.1" /><path d="M41.08,59.91c2.97,0,26.86-2.55,30.22-2.55" /><path d="M42.94,67.97c6.06-0.41,19.81-1.64,27.35-1.99" /></g></g><g><path d="M27.31,79.38c0.38,2.25-3.78,12.17-6.81,15.92" /><path d="M36.5,74.82c5.98,12.6,15.43,23.53,38.48,23.68c11.12,0.08,11.85-3.36,2.57-9.09" /><path d="M58.33,76.32c1.95,4.85,4.79,9.7,6.88,2.28" /><path d="M78.3,74.3c5.99,2.07,10.49,3.96,15.35,10.36" /></g></g></g><g fill="none" stroke="#000" stroke-width="5" stroke-linecap="round" stroke-linejoin="round"><g><g><g><g><g><path d="M24.81,20.76c1.16,0.3,3.28,0.34,4.44,0.3c12-0.32,33.66-3.12,48.65-3.5c1.93-0.05,3.09,0.15,4.06,0.3" stroke-dasharray="57.32" stroke-dashoffset="57.32"><animate id="0" attributeName="stroke-dashoffset" values="57.32;0" dur="0.57s" fill="freeze" begin="0s;60f7.click" /></path></g><g><g><path d="M29.25,30.33c0.94,0.28,2.66,0.31,3.6,0.28c9.77-0.32,28.9-2.36,42.27-3.2c1.56-0.1,2.5,0.13,3.28,0.27" stroke-dasharray="49.32" stroke-dashoffset="49.32"><animate attributeName="stroke-dashoffset" values="49.32" fill="freeze" begin="60f7.click" /><animate id="1" attributeName="stroke-dashoffset" values="49.32;0" dur="0.49s" fill="freeze" begin="0.end" /></path></g><g p8:part="1" xmlns:p8="http://kanjivg.tagaini.net"><g><path d="M15.88,42.65c1.52,0.26,4.32,0.31,5.84,0.26c15.85-0.44,46.15-4.03,66.08-4.02c2.54,0,4.06,0.13,5.33,0.26" stroke-dasharray="77.41" stroke-dashoffset="77.41"><animate attributeName="stroke-dashoffset" values="77.41" fill="freeze" begin="60f7.click" /><animate id="2" attributeName="stroke-dashoffset" values="77.41;0" dur="0.58s" fill="freeze" begin="1.end" /></path></g></g></g></g><g p6:part="2" xmlns:p6="http://kanjivg.tagaini.net"><g><path d="M52.76,12c0.1,1.22,0.21,3.17-0.2,4.92C50.11,27.31,37,51.5,14.5,63.31" stroke-dasharray="66.42" stroke-dashoffset="66.42"><animate attributeName="stroke-dashoffset" values="66.42" fill="freeze" begin="60f7.click" /><animate id="3" attributeName="stroke-dashoffset" values="66.42;0" dur="0.5s" fill="freeze" begin="2.end" /></path><path d="M59.75,29.47c4.75,5.41,22.92,22.59,28.16,26.55c1.78,1.34,4.06,1.92,5.84,2.3" stroke-dasharray="45.05" stroke-dashoffset="45.05"><animate attributeName="stroke-dashoffset" values="45.05" fill="freeze" begin="60f7.click" /><animate id="4" attributeName="stroke-dashoffset" values="45.05;0" dur="0.45s" fill="freeze" begin="3.end" /></path></g></g></g><g><path d="M38.77,50.38c0.39,0.57,0.78,0.86,0.78,1.62c0,0.76,2.74,18.04,2.74,18.43" stroke-dasharray="20.47" stroke-dashoffset="20.47"><animate attributeName="stroke-dashoffset" values="20.47" fill="freeze" begin="60f7.click" /><animate id="5" attributeName="stroke-dashoffset" values="20.47;0" dur="0.2s" fill="freeze" begin="4.end" /></path><path d="M40.19,51.58c2.2-0.1,26.91-3.32,28.92-3.43c1.67-0.1,3.24,2.06,3.11,2.62c-0.26,1.15-2.02,17.53-2.02,18.1" stroke-dasharray="51.71" stroke-dashoffset="51.71"><animate attributeName="stroke-dashoffset" values="51.71" fill="freeze" begin="60f7.click" /><animate id="6" attributeName="stroke-dashoffset" values="51.71;0" dur="0.52s" fill="freeze" begin="5.end" /></path><path d="M41.08,59.91c2.97,0,26.86-2.55,30.22-2.55" stroke-dasharray="30.33" stroke-dashoffset="30.33"><animate attributeName="stroke-dashoffset" values="30.33" fill="freeze" begin="60f7.click" /><animate id="7" attributeName="stroke-dashoffset" values="30.33;0" dur="0.3s" fill="freeze" begin="6.end" /></path><path d="M42.94,67.97c6.06-0.41,19.81-1.64,27.35-1.99" stroke-dasharray="27.42" stroke-dashoffset="27.42"><animate attributeName="stroke-dashoffset" values="27.42" fill="freeze" begin="60f7.click" /><animate id="8" attributeName="stroke-dashoffset" values="27.42;0" dur="0.27s" fill="freeze" begin="7.end" /></path></g></g><g><path d="M27.31,79.38c0.38,2.25-3.78,12.17-6.81,15.92" stroke-dasharray="17.5" stroke-dashoffset="17.5"><animate attributeName="stroke-dashoffset" values="17.5" fill="freeze" begin="60f7.click" /><animate id="9" attributeName="stroke-dashoffset" values="17.5;0" dur="0.18s" fill="freeze" begin="8.end" /></path><path d="M36.5,74.82c5.98,12.6,15.43,23.53,38.48,23.68c11.12,0.08,11.85-3.36,2.57-9.09" stroke-dasharray="67.56" stroke-dashoffset="67.56"><animate attributeName="stroke-dashoffset" values="67.56" fill="freeze" begin="60f7.click" /><animate id="10" attributeName="stroke-dashoffset" values="67.56;0" dur="0.51s" fill="freeze" begin="9.end" /></path><path d="M58.33,76.32c1.95,4.85,4.79,9.7,6.88,2.28" stroke-dasharray="12.61" stroke-dashoffset="12.61"><animate attributeName="stroke-dashoffset" values="12.61" fill="freeze" begin="60f7.click" /><animate id="11" attributeName="stroke-dashoffset" values="12.61;0" dur="0.13s" fill="freeze" begin="10.end" /></path><path d="M78.3,74.3c5.99,2.07,10.49,3.96,15.35,10.36" stroke-dasharray="18.87" stroke-dashoffset="18.87"><animate attributeName="stroke-dashoffset" values="18.87" fill="freeze" begin="60f7.click" /><animate id="12" attributeName="stroke-dashoffset" values="18.87;0" dur="0.19s" fill="freeze" begin="11.end" /></path></g></g></g></svg>