<svg xmlns="http://www.w3.org/2000/svg" width="109" height="109" viewBox="0 0 109 109" id="60f9"><g fill="none" stroke="#666" stroke-width="9" stroke-linecap="round" stroke-linejoin="round"><g><g><g><path d="M19.15,22.08c4.78,0.57,9.52,0.25,14.23-0.48c13.36-1.63,30.87-3.02,43.24-3.71c4.52-0.29,9.04-0.24,13.57,0.16" /><path d="M39.87,10.48c0.83,0.83,1.44,1.56,1.48,2.31C41.75,20.88,42,26,42.2,29.62" /><path d="M66.26,9.77c0.74,0.86,0.86,1.75,0.76,2.81c-0.58,6.22-1.09,8.83-1.72,14.68" /></g><g><path d="M51.42,26.65c0,1.23-0.32,2.16-0.85,3.35c-4.52,10.11-14.35,23.98-33.57,33.04" /><path d="M18.25,39.7c4.16,0.79,8.26,0.31,12.51-0.22c16.99-2.11,33.26-4.05,44.75-4.72c3.95-0.52,7.86-0.35,11.74,0.51" /><g><path d="M41,49.12c0.75,0.75,1.18,1.62,1.24,2.21c0.63,5.91,1.26,9.91,1.67,13.16" /><path d="M43.24,50.15c10.6-1.89,19.96-3.1,28.53-4.17c2.7-0.34,5.15,0.94,4.3,3.96c-1.09,3.89-1.57,5.19-2.62,8.63" /><path d="M44.88,62.55c5.99-0.42,16.68-1.57,24.75-2.38c2.38-0.24,4.53-0.45,6.26-0.6" /></g></g></g><g><path d="M22.4,78.07c0.29,2.21-3.2,11.98-5.57,15.67" /><path d="M33.58,72.25c7.02,13.26,17.17,25,45.17,24.93c13.05-0.03,13.91-3.29,3.02-9.32" /><path d="M54.41,70.75c1.88,4.85,4.62,9.7,6.63,2.28" /><path d="M76.88,68.23C82.68,70.7,87,74,91.49,80.34" /></g></g></g><g fill="none" stroke="#000" stroke-width="5" stroke-linecap="round" stroke-linejoin="round"><g><g><g><path d="M19.15,22.08c4.78,0.57,9.52,0.25,14.23-0.48c13.36-1.63,30.87-3.02,43.24-3.71c4.52-0.29,9.04-0.24,13.57,0.16" stroke-dasharray="71.27" stroke-dashoffset="71.27"><animate id="0" attributeName="stroke-dashoffset" values="71.27;0" dur="0.54s" fill="freeze" begin="0s;60f9.click" /></path><path d="M39.87,10.48c0.83,0.83,1.44,1.56,1.48,2.31C41.75,20.88,42,26,42.2,29.62" stroke-dasharray="19.65" stroke-dashoffset="19.65"><animate attributeName="stroke-dashoffset" values="19.65" fill="freeze" begin="60f9.click" /><animate id="1" attributeName="stroke-dashoffset" values="19.65;0" dur="0.2s" fill="freeze" begin="0.end" /></path><path d="M66.26,9.77c0.74,0.86,0.86,1.75,0.76,2.81c-0.58,6.22-1.09,8.83-1.72,14.68" stroke-dasharray="17.78" stroke-dashoffset="17.78"><animate attributeName="stroke-dashoffset" values="17.78" fill="freeze" begin="60f9.click" /><animate id="2" attributeName="stroke-dashoffset" values="17.78;0" dur="0.18s" fill="freeze" begin="1.end" /></path></g><g><path d="M51.42,26.65c0,1.23-0.32,2.16-0.85,3.35c-4.52,10.11-14.35,23.98-33.57,33.04" stroke-dasharray="51.59" stroke-dashoffset="51.59"><animate attributeName="stroke-dashoffset" values="51.59" fill="freeze" begin="60f9.click" /><animate id="3" attributeName="stroke-dashoffset" values="51.59;0" dur="0.52s" fill="freeze" begin="2.end" /></path><path d="M18.25,39.7c4.16,0.79,8.26,0.31,12.51-0.22c16.99-2.11,33.26-4.05,44.75-4.72c3.95-0.52,7.86-0.35,11.74,0.51" stroke-dasharray="69.38" stroke-dashoffset="69.38"><animate attributeName="stroke-dashoffset" values="69.38" fill="freeze" begin="60f9.click" /><animate id="4" attributeName="stroke-dashoffset" values="69.38;0" dur="0.52s" fill="freeze" begin="3.end" /></path><g><path d="M41,49.12c0.75,0.75,1.18,1.62,1.24,2.21c0.63,5.91,1.26,9.91,1.67,13.16" stroke-dasharray="15.84" stroke-dashoffset="15.84"><animate attributeName="stroke-dashoffset" values="15.84" fill="freeze" begin="60f9.click" /><animate id="5" attributeName="stroke-dashoffset" values="15.84;0" dur="0.16s" fill="freeze" begin="4.end" /></path><path d="M43.24,50.15c10.6-1.89,19.96-3.1,28.53-4.17c2.7-0.34,5.15,0.94,4.3,3.96c-1.09,3.89-1.57,5.19-2.62,8.63" stroke-dasharray="45.07" stroke-dashoffset="45.07"><animate attributeName="stroke-dashoffset" values="45.07" fill="freeze" begin="60f9.click" /><animate id="6" attributeName="stroke-dashoffset" values="45.07;0" dur="0.45s" fill="freeze" begin="5.end" /></path><path d="M44.88,62.55c5.99-0.42,16.68-1.57,24.75-2.38c2.38-0.24,4.53-0.45,6.26-0.6" stroke-dasharray="31.15" stroke-dashoffset="31.15"><animate attributeName="stroke-dashoffset" values="31.15" fill="freeze" begin="60f9.click" /><animate id="7" attributeName="stroke-dashoffset" values="31.15;0" dur="0.31s" fill="freeze" begin="6.end" /></path></g></g></g><g><path d="M22.4,78.07c0.29,2.21-3.2,11.98-5.57,15.67" stroke-dasharray="16.75" stroke-dashoffset="16.75"><animate attributeName="stroke-dashoffset" values="16.75" fill="freeze" begin="60f9.click" /><animate id="8" attributeName="stroke-dashoffset" values="16.75;0" dur="0.17s" fill="freeze" begin="7.end" /></path><path d="M33.58,72.25c7.02,13.26,17.17,25,45.17,24.93c13.05-0.03,13.91-3.29,3.02-9.32" stroke-dasharray="76.7" stroke-dashoffset="76.7"><animate attributeName="stroke-dashoffset" values="76.7" fill="freeze" begin="60f9.click" /><animate id="9" attributeName="stroke-dashoffset" values="76.7;0" dur="0.58s" fill="freeze" begin="8.end" /></path><path d="M54.41,70.75c1.88,4.85,4.62,9.7,6.63,2.28" stroke-dasharray="12.45" stroke-dashoffset="12.45"><animate attributeName="stroke-dashoffset" values="12.45" fill="freeze" begin="60f9.click" /><animate id="10" attributeName="stroke-dashoffset" values="12.45;0" dur="0.12s" fill="freeze" begin="9.end" /></path><path d="M76.88,68.23C82.68,70.7,87,74,91.49,80.34" stroke-dasharray="19.25" stroke-dashoffset="19.25"><animate attributeName="stroke-dashoffset" values="19.25" fill="freeze" begin="60f9.click" /><animate id="11" attributeName="stroke-dashoffset" values="19.25;0" dur="0.19s" fill="freeze" begin="10.end" /></path></g></g></g></svg>