<svg xmlns="http://www.w3.org/2000/svg" width="109" height="109" viewBox="0 0 109 109" id="613c"><g fill="none" stroke="#666" stroke-width="6" stroke-linecap="round" stroke-linejoin="round"><g><g><path d="M17.72,38c0.03,4.31-2.47,14.14-4.69,17.5" /><path d="M29.77,30.58c2.57,2.19,6.65,8.98,7.29,12.38" /><path d="M24.37,14.25c1.09,0.5,1.74,2.25,1.96,3.25c0.22,1,0,74.25-0.22,80.5" /></g><g><g><path d="M81.33,12.75c-0.29,0.7-0.58,1.06-1.2,1.36c-3.98,1.98-16.02,7.44-28.89,9.46" /><path d="M49.59,13.5c0.79,0.62,0.85,1.04,1.11,1.87c0.26,0.83-0.18,6-0.18,8.6c0,6.69,10.62,6.07,19.67,6.07c13.13,0,18.1-1.1,18.1-8.14" /></g><g><g><path d="M56.18,37.25c0.37,0.74,0.9,2.09,0.9,3.07c0,0.98-0.12,30.2,0,31.18" /><path d="M57.69,39.8c2.08-0.12,18.91-2.85,20.81-2.82c0.87,0.02,1.73,0.49,1.73,2.07c0,1.18,0.03,30.47-0.09,31.2" /><path d="M57.17,49.44c4.11-0.17,19.25-2.03,22.59-2.03" /><path d="M57.02,59.36c5.52-0.41,17.46-1.95,22.82-1.95" /><path d="M57.2,69.41c4.14,0,17.32-1.55,22.67-1.55" /></g><path d="M44.54,49.5c0.58,1,1.36,1.75,1.36,3.5s-0.97,21.5-0.97,23.75s0.2,4.56,2.33,4.25c15.24-2.25,34.24-4,42.75-3.5c1.74,0.1,3.88,0.25,5.24,0.5" /><g><g><path d="M57.23,85.89c0.05,0.31,0.1,0.8-0.1,1.24c-1.2,2.61-8.11,8.33-17.57,11.84" /></g><g><path d="M75.6,84.33c5.55,2.41,14.34,9.89,15.73,13.63" /></g></g></g></g></g></g><g fill="none" stroke="#000" stroke-width="3" stroke-linecap="round" stroke-linejoin="round"><path d="M17.72,38c0.03,4.31-2.47,14.14-4.69,17.5" stroke-dasharray="18.261" stroke-dashoffset="18.261"><animate attributeName="stroke-dashoffset" values="18.261;18.261;0" dur="0.183s" fill="freeze" begin="0s;613c.click" /></path><path d="M29.77,30.58c2.57,2.19,6.65,8.98,7.29,12.38" stroke-dasharray="14.525" stroke-dashoffset="14.525"><animate attributeName="stroke-dashoffset" values="14.525" fill="freeze" begin="613c.click" /><animate attributeName="stroke-dashoffset" values="14.525;14.525;0" keyTimes="0;0.558;1" dur="0.328s" fill="freeze" begin="0s;613c.click" /></path><path d="M24.37,14.25c1.09,0.5,1.74,2.25,1.96,3.25c0.22,1,0,74.25-0.22,80.5" stroke-dasharray="84.412" stroke-dashoffset="84.412"><animate attributeName="stroke-dashoffset" values="84.412" fill="freeze" begin="613c.click" /><animate attributeName="stroke-dashoffset" values="84.412;84.412;0" keyTimes="0;0.341;1" dur="0.963s" fill="freeze" begin="0s;613c.click" /></path><path d="M81.33,12.75c-0.29,0.7-0.58,1.06-1.2,1.36c-3.98,1.98-16.02,7.44-28.89,9.46" stroke-dasharray="32.371" stroke-dashoffset="32.371"><animate attributeName="stroke-dashoffset" values="32.371" fill="freeze" begin="613c.click" /><animate attributeName="stroke-dashoffset" values="32.371;32.371;0" keyTimes="0;0.748;1" dur="1.287s" fill="freeze" begin="0s;613c.click" /></path><path d="M49.59,13.5c0.79,0.62,0.85,1.04,1.11,1.87c0.26,0.83-0.18,6-0.18,8.6c0,6.69,10.62,6.07,19.67,6.07c13.13,0,18.1-1.1,18.1-8.14" stroke-dasharray="56.046" stroke-dashoffset="56.046"><animate attributeName="stroke-dashoffset" values="56.046" fill="freeze" begin="613c.click" /><animate attributeName="stroke-dashoffset" values="56.046;56.046;0" keyTimes="0;0.697;1" dur="1.847s" fill="freeze" begin="0s;613c.click" /></path><path d="M56.18,37.25c0.37,0.74,0.9,2.09,0.9,3.07c0,0.98-0.12,30.2,0,31.18" stroke-dasharray="34.404" stroke-dashoffset="34.404"><animate attributeName="stroke-dashoffset" values="34.404" fill="freeze" begin="613c.click" /><animate attributeName="stroke-dashoffset" values="34.404;34.404;0" keyTimes="0;0.843;1" dur="2.191s" fill="freeze" begin="0s;613c.click" /></path><path d="M57.69,39.8c2.08-0.12,18.91-2.85,20.81-2.82c0.87,0.02,1.73,0.49,1.73,2.07c0,1.18,0.03,30.47-0.09,31.2" stroke-dasharray="55.264" stroke-dashoffset="55.264"><animate attributeName="stroke-dashoffset" values="55.264" fill="freeze" begin="613c.click" /><animate attributeName="stroke-dashoffset" values="55.264;55.264;0" keyTimes="0;0.798;1" dur="2.744s" fill="freeze" begin="0s;613c.click" /></path><path d="M57.17,49.44c4.11-0.17,19.25-2.03,22.59-2.03" stroke-dasharray="22.686" stroke-dashoffset="22.686"><animate attributeName="stroke-dashoffset" values="22.686" fill="freeze" begin="613c.click" /><animate attributeName="stroke-dashoffset" values="22.686;22.686;0" keyTimes="0;0.924;1" dur="2.971s" fill="freeze" begin="0s;613c.click" /></path><path d="M57.02,59.36c5.52-0.41,17.46-1.95,22.82-1.95" stroke-dasharray="22.91" stroke-dashoffset="22.91"><animate attributeName="stroke-dashoffset" values="22.91" fill="freeze" begin="613c.click" /><animate attributeName="stroke-dashoffset" values="22.91;22.91;0" keyTimes="0;0.928;1" dur="3.2s" fill="freeze" begin="0s;613c.click" /></path><path d="M57.2,69.41c4.14,0,17.32-1.55,22.67-1.55" stroke-dasharray="22.729" stroke-dashoffset="22.729"><animate attributeName="stroke-dashoffset" values="22.729" fill="freeze" begin="613c.click" /><animate attributeName="stroke-dashoffset" values="22.729;22.729;0" keyTimes="0;0.934;1" dur="3.427s" fill="freeze" begin="0s;613c.click" /></path><path d="M44.54,49.5c0.58,1,1.36,1.75,1.36,3.5s-0.97,21.5-0.97,23.75s0.2,4.56,2.33,4.25c15.24-2.25,34.24-4,42.75-3.5c1.74,0.1,3.88,0.25,5.24,0.5" stroke-dasharray="81.437" stroke-dashoffset="81.437"><animate attributeName="stroke-dashoffset" values="81.437" fill="freeze" begin="613c.click" /><animate attributeName="stroke-dashoffset" values="81.437;81.437;0" keyTimes="0;0.848;1" dur="4.039s" fill="freeze" begin="0s;613c.click" /></path><path d="M57.23,85.89c0.05,0.31,0.1,0.8-0.1,1.24c-1.2,2.61-8.11,8.33-17.57,11.84" stroke-dasharray="22.764" stroke-dashoffset="22.764"><animate attributeName="stroke-dashoffset" values="22.764" fill="freeze" begin="613c.click" /><animate attributeName="stroke-dashoffset" values="22.764;22.764;0" keyTimes="0;0.947;1" dur="4.267s" fill="freeze" begin="0s;613c.click" /></path><path d="M75.6,84.33c5.55,2.41,14.34,9.89,15.73,13.63" stroke-dasharray="21.114" stroke-dashoffset="21.114"><animate attributeName="stroke-dashoffset" values="21.114" fill="freeze" begin="613c.click" /><animate attributeName="stroke-dashoffset" values="21.114;21.114;0" keyTimes="0;0.953;1" dur="4.478s" fill="freeze" begin="0s;613c.click" /></path></g></svg>