<svg xmlns="http://www.w3.org/2000/svg" width="109" height="109" viewBox="0 0 109 109" id="6142"><g fill="none" stroke="#666" stroke-width="9" stroke-linecap="round" stroke-linejoin="round"><g><g><g><path d="M24.19,12.86c3.17,1.27,8.17,5.24,8.97,7.22" /><path d="M18.03,28.97c3.12,1.25,8.05,5.13,8.83,7.07" /><path d="M18.5,62.37c1.8,1.32,3.56,0.87,4.69-0.76c3.29-4.74,4.56-8.11,9.98-16.57" /></g><g><g><path d="M48.12,13.43c1.06,0.58,3.5,1.46,4.7,1.56c3.43,0.27,18.18-2.23,26.83-3.64c4.11-0.67,4.16,1.67,1.46,3.67c-1.38,1.02-12.64,10.25-14.22,11.4" /><path d="M56.64,20.96c2.96,1.1,10.62,5.35,12.02,8.23" /></g><g><path d="M47.56,31.47c0.54,0.51,0.91,1.37,1.09,1.88c0.18,0.52,0.18,30.98,0.18,32.14" /><path d="M49.29,33.16c6.25-0.21,33.66-2.99,35.31-3.14c2.97-0.26,4.08,1.67,3.71,2.44c-0.36,0.74-0.56,17.65-0.56,28.07c0,9.47-4.26,2.72-6.49,0.66" /><path d="M49.29,41.87c8.28-0.45,31.94-1.99,38.62-2.37" /><path d="M49.47,50.71c5.94-0.39,31.19-2.2,38.06-2.45" /><path d="M66.81,33.48c0.72,0.25,1.15,1.12,1.29,1.61c0.14,0.5,0,25.58-0.14,28.68" /></g></g></g><g><path d="M23.82,77.13C24.14,79.42,20.59,89.5,18,93.3" /><path d="M34.5,74.82c6.92,12.46,17.87,23.28,44.56,23.43c12.88,0.08,13.72-3.32,2.98-9" /><path d="M55.83,74.32c1.95,4.26,4.79,8.51,6.88,2" /><path d="M81.8,72.05c5.21,2.22,9.12,4.24,13.35,11.11" /></g></g></g><g fill="none" stroke="#000" stroke-width="5" stroke-linecap="round" stroke-linejoin="round"><g><g><g><path d="M24.19,12.86c3.17,1.27,8.17,5.24,8.97,7.22" stroke-dasharray="11.68" stroke-dashoffset="11.68"><animate id="0" attributeName="stroke-dashoffset" values="11.68;0" dur="0.12s" fill="freeze" begin="0s;6142.click" /></path><path d="M18.03,28.97c3.12,1.25,8.05,5.13,8.83,7.07" stroke-dasharray="11.47" stroke-dashoffset="11.47"><animate attributeName="stroke-dashoffset" values="11.47" fill="freeze" begin="6142.click" /><animate id="1" attributeName="stroke-dashoffset" values="11.47;0" dur="0.11s" fill="freeze" begin="0.end" /></path><path d="M18.5,62.37c1.8,1.32,3.56,0.87,4.69-0.76c3.29-4.74,4.56-8.11,9.98-16.57" stroke-dasharray="24.76" stroke-dashoffset="24.76"><animate attributeName="stroke-dashoffset" values="24.76" fill="freeze" begin="6142.click" /><animate id="2" attributeName="stroke-dashoffset" values="24.76;0" dur="0.25s" fill="freeze" begin="1.end" /></path></g><g><g><path d="M48.12,13.43c1.06,0.58,3.5,1.46,4.7,1.56c3.43,0.27,18.18-2.23,26.83-3.64c4.11-0.67,4.16,1.67,1.46,3.67c-1.38,1.02-12.64,10.25-14.22,11.4" stroke-dasharray="57.51" stroke-dashoffset="57.51"><animate attributeName="stroke-dashoffset" values="57.51" fill="freeze" begin="6142.click" /><animate id="3" attributeName="stroke-dashoffset" values="57.51;0" dur="0.58s" fill="freeze" begin="2.end" /></path><path d="M56.64,20.96c2.96,1.1,10.62,5.35,12.02,8.23" stroke-dasharray="14.75" stroke-dashoffset="14.75"><animate attributeName="stroke-dashoffset" values="14.75" fill="freeze" begin="6142.click" /><animate id="4" attributeName="stroke-dashoffset" values="14.75;0" dur="0.15s" fill="freeze" begin="3.end" /></path></g><g><path d="M47.56,31.47c0.54,0.51,0.91,1.37,1.09,1.88c0.18,0.52,0.18,30.98,0.18,32.14" stroke-dasharray="34.33" stroke-dashoffset="34.33"><animate attributeName="stroke-dashoffset" values="34.33" fill="freeze" begin="6142.click" /><animate id="5" attributeName="stroke-dashoffset" values="34.33;0" dur="0.34s" fill="freeze" begin="4.end" /></path><path d="M49.29,33.16c6.25-0.21,33.66-2.99,35.31-3.14c2.97-0.26,4.08,1.67,3.71,2.44c-0.36,0.74-0.56,17.65-0.56,28.07c0,9.47-4.26,2.72-6.49,0.66" stroke-dasharray="80.84" stroke-dashoffset="80.84"><animate attributeName="stroke-dashoffset" values="80.84" fill="freeze" begin="6142.click" /><animate id="6" attributeName="stroke-dashoffset" values="80.84;0" dur="0.61s" fill="freeze" begin="5.end" /></path><path d="M49.29,41.87c8.28-0.45,31.94-1.99,38.62-2.37" stroke-dasharray="38.69" stroke-dashoffset="38.69"><animate attributeName="stroke-dashoffset" values="38.69" fill="freeze" begin="6142.click" /><animate id="7" attributeName="stroke-dashoffset" values="38.69;0" dur="0.39s" fill="freeze" begin="6.end" /></path><path d="M49.47,50.71c5.94-0.39,31.19-2.2,38.06-2.45" stroke-dasharray="38.14" stroke-dashoffset="38.14"><animate attributeName="stroke-dashoffset" values="38.14" fill="freeze" begin="6142.click" /><animate id="8" attributeName="stroke-dashoffset" values="38.14;0" dur="0.38s" fill="freeze" begin="7.end" /></path><path d="M66.81,33.48c0.72,0.25,1.15,1.12,1.29,1.61c0.14,0.5,0,25.58-0.14,28.68" stroke-dasharray="30.82" stroke-dashoffset="30.82"><animate attributeName="stroke-dashoffset" values="30.82" fill="freeze" begin="6142.click" /><animate id="9" attributeName="stroke-dashoffset" values="30.82;0" dur="0.31s" fill="freeze" begin="8.end" /></path></g></g></g><g><path d="M23.82,77.13C24.14,79.42,20.59,89.5,18,93.3" stroke-dasharray="17.33" stroke-dashoffset="17.33"><animate attributeName="stroke-dashoffset" values="17.33" fill="freeze" begin="6142.click" /><animate id="10" attributeName="stroke-dashoffset" values="17.33;0" dur="0.17s" fill="freeze" begin="9.end" /></path><path d="M34.5,74.82c6.92,12.46,17.87,23.28,44.56,23.43c12.88,0.08,13.72-3.32,2.98-9" stroke-dasharray="74.67" stroke-dashoffset="74.67"><animate attributeName="stroke-dashoffset" values="74.67" fill="freeze" begin="6142.click" /><animate id="11" attributeName="stroke-dashoffset" values="74.67;0" dur="0.56s" fill="freeze" begin="10.end" /></path><path d="M55.83,74.32c1.95,4.26,4.79,8.51,6.88,2" stroke-dasharray="11.6" stroke-dashoffset="11.6"><animate attributeName="stroke-dashoffset" values="11.6" fill="freeze" begin="6142.click" /><animate id="12" attributeName="stroke-dashoffset" values="11.6;0" dur="0.12s" fill="freeze" begin="11.end" /></path><path d="M81.8,72.05c5.21,2.22,9.12,4.24,13.35,11.11" stroke-dasharray="17.73" stroke-dashoffset="17.73"><animate attributeName="stroke-dashoffset" values="17.73" fill="freeze" begin="6142.click" /><animate id="13" attributeName="stroke-dashoffset" values="17.73;0" dur="0.18s" fill="freeze" begin="12.end" /></path></g></g></g></svg>