<svg xmlns="http://www.w3.org/2000/svg" viewBox="0 0 109 109" id="6142"><g fill="none" stroke="#666" stroke-width="6" stroke-linecap="round" stroke-linejoin="round"><g><g><g><path d="M24.19,12.86c3.17,1.27,8.17,5.24,8.97,7.22" /><path d="M18.03,28.97c3.12,1.25,8.05,5.13,8.83,7.07" /><path d="M18.5,62.37c1.8,1.32,3.56,0.87,4.69-0.76c3.29-4.74,4.56-8.11,9.98-16.57" /></g><g><g><path d="M48.12,13.43c1.06,0.58,3.5,1.46,4.7,1.56c3.43,0.27,18.18-2.23,26.83-3.64c4.11-0.67,4.16,1.67,1.46,3.67c-1.38,1.02-12.64,10.25-14.22,11.4" /><path d="M56.64,20.96c2.96,1.1,10.62,5.35,12.02,8.23" /></g><g><path d="M47.56,31.47c0.54,0.51,0.91,1.37,1.09,1.88c0.18,0.52,0.18,30.98,0.18,32.14" /><path d="M49.29,33.16c6.25-0.21,33.66-2.99,35.31-3.14c2.97-0.26,4.08,1.67,3.71,2.44c-0.36,0.74-0.56,17.65-0.56,28.07c0,9.47-4.26,2.72-6.49,0.66" /><path d="M49.29,41.87c8.28-0.45,31.94-1.99,38.62-2.37" /><path d="M49.47,50.71c5.94-0.39,31.19-2.2,38.06-2.45" /><path d="M66.81,33.48c0.72,0.25,1.15,1.12,1.29,1.61c0.14,0.5,0,25.58-0.14,28.68" /></g></g></g><g><path d="M23.82,77.13C24.14,79.42,20.59,89.5,18,93.3" /><path d="M34.5,74.82c6.92,12.46,17.87,23.28,44.56,23.43c12.88,0.08,13.72-3.32,2.98-9" /><path d="M55.83,74.32c1.95,4.26,4.79,8.51,6.88,2" /><path d="M81.8,72.05c5.21,2.22,9.12,4.24,13.35,11.11" /></g></g></g><g fill="none" stroke="#000" stroke-width="3" stroke-linecap="round" stroke-linejoin="round"><path d="M24.19,12.86c3.17,1.27,8.17,5.24,8.97,7.22" stroke-dasharray="11.678" stroke-dashoffset="11.678"><animate attributeName="stroke-dashoffset" values="11.678;11.678;0" dur="0.117s" fill="freeze" begin="0s;6142.click" /></path><path d="M18.03,28.97c3.12,1.25,8.05,5.13,8.83,7.07" stroke-dasharray="11.472" stroke-dashoffset="11.472"><animate attributeName="stroke-dashoffset" values="11.472" fill="freeze" begin="6142.click" /><animate attributeName="stroke-dashoffset" values="11.472;11.472;0" keyTimes="0;0.504;1" dur="0.232s" fill="freeze" begin="0s;6142.click" /></path><path d="M18.5,62.37c1.8,1.32,3.56,0.87,4.69-0.76c3.29-4.74,4.56-8.11,9.98-16.57" stroke-dasharray="24.759" stroke-dashoffset="24.759"><animate attributeName="stroke-dashoffset" values="24.759" fill="freeze" begin="6142.click" /><animate attributeName="stroke-dashoffset" values="24.759;24.759;0" keyTimes="0;0.483;1" dur="0.48s" fill="freeze" begin="0s;6142.click" /></path><path d="M48.12,13.43c1.06,0.58,3.5,1.46,4.7,1.56c3.43,0.27,18.18-2.23,26.83-3.64c4.11-0.67,4.16,1.67,1.46,3.67c-1.38,1.02-12.64,10.25-14.22,11.4" stroke-dasharray="57.509" stroke-dashoffset="57.509"><animate attributeName="stroke-dashoffset" values="57.509" fill="freeze" begin="6142.click" /><animate attributeName="stroke-dashoffset" values="57.509;57.509;0" keyTimes="0;0.455;1" dur="1.055s" fill="freeze" begin="0s;6142.click" /></path><path d="M56.64,20.96c2.96,1.1,10.62,5.35,12.02,8.23" stroke-dasharray="14.754" stroke-dashoffset="14.754"><animate attributeName="stroke-dashoffset" values="14.754" fill="freeze" begin="6142.click" /><animate attributeName="stroke-dashoffset" values="14.754;14.754;0" keyTimes="0;0.877;1" dur="1.203s" fill="freeze" begin="0s;6142.click" /></path><path d="M47.56,31.47c0.54,0.51,0.91,1.37,1.09,1.88c0.18,0.52,0.18,30.98,0.18,32.14" stroke-dasharray="34.335" stroke-dashoffset="34.335"><animate attributeName="stroke-dashoffset" values="34.335" fill="freeze" begin="6142.click" /><animate attributeName="stroke-dashoffset" values="34.335;34.335;0" keyTimes="0;0.778;1" dur="1.546s" fill="freeze" begin="0s;6142.click" /></path><path d="M49.29,33.16c6.25-0.21,33.66-2.99,35.31-3.14c2.97-0.26,4.08,1.67,3.71,2.44c-0.36,0.74-0.56,17.65-0.56,28.07c0,9.47-4.26,2.72-6.49,0.66" stroke-dasharray="80.843" stroke-dashoffset="80.843"><animate attributeName="stroke-dashoffset" values="80.843" fill="freeze" begin="6142.click" /><animate attributeName="stroke-dashoffset" values="80.843;80.843;0" keyTimes="0;0.718;1" dur="2.154s" fill="freeze" begin="0s;6142.click" /></path><path d="M49.29,41.87c8.28-0.45,31.94-1.99,38.62-2.37" stroke-dasharray="38.694" stroke-dashoffset="38.694"><animate attributeName="stroke-dashoffset" values="38.694" fill="freeze" begin="6142.click" /><animate attributeName="stroke-dashoffset" values="38.694;38.694;0" keyTimes="0;0.848;1" dur="2.541s" fill="freeze" begin="0s;6142.click" /></path><path d="M49.47,50.71c5.94-0.39,31.19-2.2,38.06-2.45" stroke-dasharray="38.141" stroke-dashoffset="38.141"><animate attributeName="stroke-dashoffset" values="38.141" fill="freeze" begin="6142.click" /><animate attributeName="stroke-dashoffset" values="38.141;38.141;0" keyTimes="0;0.87;1" dur="2.922s" fill="freeze" begin="0s;6142.click" /></path><path d="M66.81,33.48c0.72,0.25,1.15,1.12,1.29,1.61c0.14,0.5,0,25.58-0.14,28.68" stroke-dasharray="30.819" stroke-dashoffset="30.819"><animate attributeName="stroke-dashoffset" values="30.819" fill="freeze" begin="6142.click" /><animate attributeName="stroke-dashoffset" values="30.819;30.819;0" keyTimes="0;0.905;1" dur="3.23s" fill="freeze" begin="0s;6142.click" /></path><path d="M23.82,77.13C24.14,79.42,20.59,89.5,18,93.3" stroke-dasharray="17.328" stroke-dashoffset="17.328"><animate attributeName="stroke-dashoffset" values="17.328" fill="freeze" begin="6142.click" /><animate attributeName="stroke-dashoffset" values="17.328;17.328;0" keyTimes="0;0.949;1" dur="3.403s" fill="freeze" begin="0s;6142.click" /></path><path d="M34.5,74.82c6.92,12.46,17.87,23.28,44.56,23.43c12.88,0.08,13.72-3.32,2.98-9" stroke-dasharray="74.67" stroke-dashoffset="74.67"><animate attributeName="stroke-dashoffset" values="74.67" fill="freeze" begin="6142.click" /><animate attributeName="stroke-dashoffset" values="74.67;74.67;0" keyTimes="0;0.858;1" dur="3.964s" fill="freeze" begin="0s;6142.click" /></path><path d="M55.83,74.32c1.95,4.26,4.79,8.51,6.88,2" stroke-dasharray="11.599" stroke-dashoffset="11.599"><animate attributeName="stroke-dashoffset" values="11.599" fill="freeze" begin="6142.click" /><animate attributeName="stroke-dashoffset" values="11.599;11.599;0" keyTimes="0;0.972;1" dur="4.08s" fill="freeze" begin="0s;6142.click" /></path><path d="M81.8,72.05c5.21,2.22,9.12,4.24,13.35,11.11" stroke-dasharray="17.734" stroke-dashoffset="17.734"><animate attributeName="stroke-dashoffset" values="17.734" fill="freeze" begin="6142.click" /><animate attributeName="stroke-dashoffset" values="17.734;17.734;0" keyTimes="0;0.958;1" dur="4.257s" fill="freeze" begin="0s;6142.click" /></path></g></svg>