<svg xmlns="http://www.w3.org/2000/svg" viewBox="0 0 109 109" id="6148"><g fill="none" stroke="#666" stroke-width="6" stroke-linecap="round" stroke-linejoin="round"><g><g p4:phon="兹/茲V" xmlns:p4="http://kanjivg.tagaini.net"><g><g p4:number="1" p4:partial><g p4:partial><g><path d="M37.82,14.36c2.64,1.41,6.83,5.8,7.49,7.99" /></g></g></g><g><path d="M71.37,12.64c0.12,0.53-0.15,1.31-0.38,1.69c-1.5,2.46-2.48,4.04-5.49,8.17" /></g><path d="M21.88,29.18c3.5,0.57,6.87,0.44,10.15-0.01c13.69-1.9,29.43-3.73,48.23-4.69c2.94-0.15,5.8-0.14,8.71,0.49" /></g><g><g p4:number="1" p4:partial><g><path d="M36.02,35.9c0.23,0.65,0.05,1.64-0.37,2.34c-1.93,3.24-3.51,5.15-6.49,8.5c-0.74,0.83-0.53,1.45,0.25,1.63c3.34,0.76,5.46,1.51,7.81,2.43" /><path d="M47.8,38.86c0.32,1.02,0.2,2.27-0.55,3.24c-4.4,5.74-10.98,12.05-19.64,19.65c-0.99,0.87-0.57,2.19,0.6,1.85c9.17-2.72,11.04-3.34,18.94-5.36" /><path d="M45,52.88c2.1,2.12,5.42,8.72,5.94,12.03" /></g></g><g p4:number="2" p4:partial><g><path d="M67.07,31.26c0.25,0.73,0.29,1.27-0.12,2.08c-1.7,3.31-3.12,5.49-6.16,9.04c-1.06,1.25-1.2,2.46,0.18,3.01c3.04,1.23,5.71,2.4,7.8,3.65" /><path d="M79.39,34.91c0.11,1.09-0.19,2.39-0.53,2.9c-3.91,5.88-10.42,13.12-18.3,20.38c-1.69,1.56-1.32,2.81,0.72,2.36c6.57-1.46,14.76-3.58,20.33-4.66" /><path d="M78.04,50.21c2.62,2.03,6.77,8.35,7.42,11.51" /></g></g></g></g><g><path d="M25.52,78.19c0.34,2.27-3.7,12.27-6.44,16.05" /><path d="M34.58,75.5c8.17,11.62,15.67,19.88,45.06,20.43c12.88,0.25,14.22-3.61,3.48-8.92" /><path d="M52.91,73.25c2.17,5.25,4.97,9.25,6.88,2.96" /><path d="M78.75,70.25c4.78,1.57,8.36,2.99,12.24,7.84" /></g></g></g><g fill="none" stroke="#000" stroke-width="3" stroke-linecap="round" stroke-linejoin="round"><path d="M37.82,14.36c2.64,1.41,6.83,5.8,7.49,7.99" stroke-dasharray="11.11" stroke-dashoffset="11.11"><animate attributeName="stroke-dashoffset" values="11.11;11.11;0" dur="0.222s" fill="freeze" begin="0s;6148.click" /></path><path d="M71.37,12.64c0.12,0.53-0.15,1.31-0.38,1.69c-1.5,2.46-2.48,4.04-5.49,8.17" stroke-dasharray="11.614" stroke-dashoffset="11.614"><animate attributeName="stroke-dashoffset" values="11.614" fill="freeze" begin="6148.click" /><animate attributeName="stroke-dashoffset" values="11.614;11.614;0" keyTimes="0;0.489;1" dur="0.454s" fill="freeze" begin="0s;6148.click" /></path><path d="M21.88,29.18c3.5,0.57,6.87,0.44,10.15-0.01c13.69-1.9,29.43-3.73,48.23-4.69c2.94-0.15,5.8-0.14,8.71,0.49" stroke-dasharray="67.413" stroke-dashoffset="67.413"><animate attributeName="stroke-dashoffset" values="67.413" fill="freeze" begin="6148.click" /><animate attributeName="stroke-dashoffset" values="67.413;67.413;0" keyTimes="0;0.472;1" dur="0.961s" fill="freeze" begin="0s;6148.click" /></path><path d="M36.02,35.9c0.23,0.65,0.05,1.64-0.37,2.34c-1.93,3.24-3.51,5.15-6.49,8.5c-0.74,0.83-0.53,1.45,0.25,1.63c3.34,0.76,5.46,1.51,7.81,2.43" stroke-dasharray="23.48" stroke-dashoffset="23.48"><animate attributeName="stroke-dashoffset" values="23.48" fill="freeze" begin="6148.click" /><animate attributeName="stroke-dashoffset" values="23.48;23.48;0" keyTimes="0;0.804;1" dur="1.196s" fill="freeze" begin="0s;6148.click" /></path><path d="M47.8,38.86c0.32,1.02,0.2,2.27-0.55,3.24c-4.4,5.74-10.98,12.05-19.64,19.65c-0.99,0.87-0.57,2.19,0.6,1.85c9.17-2.72,11.04-3.34,18.94-5.36" stroke-dasharray="53.828" stroke-dashoffset="53.828"><animate attributeName="stroke-dashoffset" values="53.828" fill="freeze" begin="6148.click" /><animate attributeName="stroke-dashoffset" values="53.828;53.828;0" keyTimes="0;0.69;1" dur="1.734s" fill="freeze" begin="0s;6148.click" /></path><path d="M45,52.88c2.1,2.12,5.42,8.72,5.94,12.03" stroke-dasharray="13.54" stroke-dashoffset="13.54"><animate attributeName="stroke-dashoffset" values="13.54" fill="freeze" begin="6148.click" /><animate attributeName="stroke-dashoffset" values="13.54;13.54;0" keyTimes="0;0.865;1" dur="2.005s" fill="freeze" begin="0s;6148.click" /></path><path d="M67.07,31.26c0.25,0.73,0.29,1.27-0.12,2.08c-1.7,3.31-3.12,5.49-6.16,9.04c-1.06,1.25-1.2,2.46,0.18,3.01c3.04,1.23,5.71,2.4,7.8,3.65" stroke-dasharray="25.442" stroke-dashoffset="25.442"><animate attributeName="stroke-dashoffset" values="25.442" fill="freeze" begin="6148.click" /><animate attributeName="stroke-dashoffset" values="25.442;25.442;0" keyTimes="0;0.888;1" dur="2.259s" fill="freeze" begin="0s;6148.click" /></path><path d="M79.39,34.91c0.11,1.09-0.19,2.39-0.53,2.9c-3.91,5.88-10.42,13.12-18.3,20.38c-1.69,1.56-1.32,2.81,0.72,2.36c6.57-1.46,14.76-3.58,20.33-4.66" stroke-dasharray="55.565" stroke-dashoffset="55.565"><animate attributeName="stroke-dashoffset" values="55.565" fill="freeze" begin="6148.click" /><animate attributeName="stroke-dashoffset" values="55.565;55.565;0" keyTimes="0;0.802;1" dur="2.815s" fill="freeze" begin="0s;6148.click" /></path><path d="M78.04,50.21c2.62,2.03,6.77,8.35,7.42,11.51" stroke-dasharray="13.859" stroke-dashoffset="13.859"><animate attributeName="stroke-dashoffset" values="13.859" fill="freeze" begin="6148.click" /><animate attributeName="stroke-dashoffset" values="13.859;13.859;0" keyTimes="0;0.91;1" dur="3.092s" fill="freeze" begin="0s;6148.click" /></path><path d="M25.52,78.19c0.34,2.27-3.7,12.27-6.44,16.05" stroke-dasharray="17.447" stroke-dashoffset="17.447"><animate attributeName="stroke-dashoffset" values="17.447" fill="freeze" begin="6148.click" /><animate attributeName="stroke-dashoffset" values="17.447;17.447;0" keyTimes="0;0.947;1" dur="3.266s" fill="freeze" begin="0s;6148.click" /></path><path d="M34.58,75.5c8.17,11.62,15.67,19.88,45.06,20.43c12.88,0.25,14.22-3.61,3.48-8.92" stroke-dasharray="73.541" stroke-dashoffset="73.541"><animate attributeName="stroke-dashoffset" values="73.541" fill="freeze" begin="6148.click" /><animate attributeName="stroke-dashoffset" values="73.541;73.541;0" keyTimes="0;0.855;1" dur="3.819s" fill="freeze" begin="0s;6148.click" /></path><path d="M52.91,73.25c2.17,5.25,4.97,9.25,6.88,2.96" stroke-dasharray="12.156" stroke-dashoffset="12.156"><animate attributeName="stroke-dashoffset" values="12.156" fill="freeze" begin="6148.click" /><animate attributeName="stroke-dashoffset" values="12.156;12.156;0" keyTimes="0;0.94;1" dur="4.062s" fill="freeze" begin="0s;6148.click" /></path><path d="M78.75,70.25c4.78,1.57,8.36,2.99,12.24,7.84" stroke-dasharray="14.799" stroke-dashoffset="14.799"><animate attributeName="stroke-dashoffset" values="14.799" fill="freeze" begin="6148.click" /><animate attributeName="stroke-dashoffset" values="14.799;14.799;0" keyTimes="0;0.932;1" dur="4.358s" fill="freeze" begin="0s;6148.click" /></path></g></svg>