<svg xmlns="http://www.w3.org/2000/svg" viewBox="0 0 109 109" id="614b"><g fill="none" stroke="#666" stroke-width="6" stroke-linecap="round" stroke-linejoin="round"><g><g p4:phon="能" xmlns:p4="http://kanjivg.tagaini.net"><g><g><path d="M34.55,10.96c0.33,0.66,0.11,1.73-0.18,2.15C30.62,18.5,27.75,22,22.76,27.33c-1.34,1.43-1.2,2.5,0.93,2.04c5.81-1.24,17.69-3.99,24.01-5.08" /><path d="M43.84,17.95c2.97,1.94,7.68,7.97,8.42,10.99" /></g><g><path d="M24.65,36.48c0.75,0.75,1.08,2.18,1.1,3.16c0.03,1.97-0.19,16.52-0.16,24.86c0.01,3.36,0.03,5.56,0.05,5.21" /><path d="M26.35,37.44c1.7-0.12,17.09-2.59,18.35-2.75c1.42-0.19,2.84,1.06,2.84,3c0,2.56,0.07,18.27,0.07,27.86c0,6.16-3.91,1.88-5.33,0.82" /><path d="M26.85,46.56c5.82-0.71,14.59-1.53,19.7-1.88" /><path d="M26.53,55.92c4.54-0.36,14.73-1.17,19.99-1.41" /></g></g><g><g><path d="M83.05,14.1c-0.09,1.22-0.95,1.84-1.9,2.43c-3.2,1.99-10.75,5.74-16.28,7.44" /><path d="M60.66,10.61c0.54,0.35,1.25,1.39,1.25,2.56c0,0.5-0.07,14.03-0.07,15.5c0,4.19,1.31,5.94,13.26,5.94c9.96,0,11.7-1.36,11.7-6.1" /></g><g><path d="M84.73,44.82c-0.23,0.68-0.6,1.18-1.66,1.72c-2.95,1.52-7.98,3.93-17.02,5.75" /><path d="M62.34,39.54c0.62,0.62,1.25,1.71,1.25,2.82c0,2.39-0.07,15.22-0.07,16.71c0,5.12,1.94,6.05,13.26,6.05c10.76,0,12.2-0.37,12.2-6.65" /></g></g></g><g><path d="M21.88,80.75c0.34,2.22-3.4,12-6.12,15.7" /><path d="M31.75,77c10.88,14.75,24.38,20.88,47.51,19.54c8.98-0.52,8.24-3.29,2.65-6.82" /><path d="M57.02,74.87c2.6,4.38,5.53,6.36,6.66,3.15" /><path d="M81.76,74.01c4.38,1.67,8.61,4.49,11.49,8.36" /></g></g></g><g fill="none" stroke="#000" stroke-width="3" stroke-linecap="round" stroke-linejoin="round"><path d="M34.55,10.96c0.33,0.66,0.11,1.73-0.18,2.15C30.62,18.5,27.75,22,22.76,27.33c-1.34,1.43-1.2,2.5,0.93,2.04c5.81-1.24,17.69-3.99,24.01-5.08" stroke-dasharray="49.087" stroke-dashoffset="49.087"><animate attributeName="stroke-dashoffset" values="49.087;49.087;0" dur="0.491s" fill="freeze" begin="0s;614b.click" /></path><path d="M43.84,17.95c2.97,1.94,7.68,7.97,8.42,10.99" stroke-dasharray="14.031" stroke-dashoffset="14.031"><animate attributeName="stroke-dashoffset" values="14.031" fill="freeze" begin="614b.click" /><animate attributeName="stroke-dashoffset" values="14.031;14.031;0" keyTimes="0;0.636;1" dur="0.772s" fill="freeze" begin="0s;614b.click" /></path><path d="M24.65,36.48c0.75,0.75,1.08,2.18,1.1,3.16c0.03,1.97-0.19,16.52-0.16,24.86c0.01,3.36,0.03,5.56,0.05,5.21" stroke-dasharray="33.562" stroke-dashoffset="33.562"><animate attributeName="stroke-dashoffset" values="33.562" fill="freeze" begin="614b.click" /><animate attributeName="stroke-dashoffset" values="33.562;33.562;0" keyTimes="0;0.697;1" dur="1.108s" fill="freeze" begin="0s;614b.click" /></path><path d="M26.35,37.44c1.7-0.12,17.09-2.59,18.35-2.75c1.42-0.19,2.84,1.06,2.84,3c0,2.56,0.07,18.27,0.07,27.86c0,6.16-3.91,1.88-5.33,0.82" stroke-dasharray="59.678" stroke-dashoffset="59.678"><animate attributeName="stroke-dashoffset" values="59.678" fill="freeze" begin="614b.click" /><animate attributeName="stroke-dashoffset" values="59.678;59.678;0" keyTimes="0;0.65;1" dur="1.705s" fill="freeze" begin="0s;614b.click" /></path><path d="M26.85,46.56c5.82-0.71,14.59-1.53,19.7-1.88" stroke-dasharray="19.792" stroke-dashoffset="19.792"><animate attributeName="stroke-dashoffset" values="19.792" fill="freeze" begin="614b.click" /><animate attributeName="stroke-dashoffset" values="19.792;19.792;0" keyTimes="0;0.896;1" dur="1.903s" fill="freeze" begin="0s;614b.click" /></path><path d="M26.53,55.92c4.54-0.36,14.73-1.17,19.99-1.41" stroke-dasharray="20.041" stroke-dashoffset="20.041"><animate attributeName="stroke-dashoffset" values="20.041" fill="freeze" begin="614b.click" /><animate attributeName="stroke-dashoffset" values="20.041;20.041;0" keyTimes="0;0.905;1" dur="2.103s" fill="freeze" begin="0s;614b.click" /></path><path d="M83.05,14.1c-0.09,1.22-0.95,1.84-1.9,2.43c-3.2,1.99-10.75,5.74-16.28,7.44" stroke-dasharray="21.159" stroke-dashoffset="21.159"><animate attributeName="stroke-dashoffset" values="21.159" fill="freeze" begin="614b.click" /><animate attributeName="stroke-dashoffset" values="21.159;21.159;0" keyTimes="0;0.908;1" dur="2.315s" fill="freeze" begin="0s;614b.click" /></path><path d="M60.66,10.61c0.54,0.35,1.25,1.39,1.25,2.56c0,0.5-0.07,14.03-0.07,15.5c0,4.19,1.31,5.94,13.26,5.94c9.96,0,11.7-1.36,11.7-6.1" stroke-dasharray="50.406" stroke-dashoffset="50.406"><animate attributeName="stroke-dashoffset" values="50.406" fill="freeze" begin="614b.click" /><animate attributeName="stroke-dashoffset" values="50.406;50.406;0" keyTimes="0;0.821;1" dur="2.819s" fill="freeze" begin="0s;614b.click" /></path><path d="M84.73,44.82c-0.23,0.68-0.6,1.18-1.66,1.72c-2.95,1.52-7.98,3.93-17.02,5.75" stroke-dasharray="20.491" stroke-dashoffset="20.491"><animate attributeName="stroke-dashoffset" values="20.491" fill="freeze" begin="614b.click" /><animate attributeName="stroke-dashoffset" values="20.491;20.491;0" keyTimes="0;0.932;1" dur="3.024s" fill="freeze" begin="0s;614b.click" /></path><path d="M62.34,39.54c0.62,0.62,1.25,1.71,1.25,2.82c0,2.39-0.07,15.22-0.07,16.71c0,5.12,1.94,6.05,13.26,6.05c10.76,0,12.2-0.37,12.2-6.65" stroke-dasharray="53.388" stroke-dashoffset="53.388"><animate attributeName="stroke-dashoffset" values="53.388" fill="freeze" begin="614b.click" /><animate attributeName="stroke-dashoffset" values="53.388;53.388;0" keyTimes="0;0.85;1" dur="3.558s" fill="freeze" begin="0s;614b.click" /></path><path d="M21.88,80.75c0.34,2.22-3.4,12-6.12,15.7" stroke-dasharray="17.008" stroke-dashoffset="17.008"><animate attributeName="stroke-dashoffset" values="17.008" fill="freeze" begin="614b.click" /><animate attributeName="stroke-dashoffset" values="17.008;17.008;0" keyTimes="0;0.954;1" dur="3.728s" fill="freeze" begin="0s;614b.click" /></path><path d="M31.75,77c10.88,14.75,24.38,20.88,47.51,19.54c8.98-0.52,8.24-3.29,2.65-6.82" stroke-dasharray="67.913" stroke-dashoffset="67.913"><animate attributeName="stroke-dashoffset" values="67.913" fill="freeze" begin="614b.click" /><animate attributeName="stroke-dashoffset" values="67.913;67.913;0" keyTimes="0;0.879;1" dur="4.239s" fill="freeze" begin="0s;614b.click" /></path><path d="M57.02,74.87c2.6,4.38,5.53,6.36,6.66,3.15" stroke-dasharray="9.571" stroke-dashoffset="9.571"><animate attributeName="stroke-dashoffset" values="9.571" fill="freeze" begin="614b.click" /><animate attributeName="stroke-dashoffset" values="9.571;9.571;0" keyTimes="0;0.957;1" dur="4.43s" fill="freeze" begin="0s;614b.click" /></path><path d="M81.76,74.01c4.38,1.67,8.61,4.49,11.49,8.36" stroke-dasharray="14.398" stroke-dashoffset="14.398"><animate attributeName="stroke-dashoffset" values="14.398" fill="freeze" begin="614b.click" /><animate attributeName="stroke-dashoffset" values="14.398;14.398;0" keyTimes="0;0.939;1" dur="4.718s" fill="freeze" begin="0s;614b.click" /></path></g></svg>