<svg xmlns="http://www.w3.org/2000/svg" width="109" height="109" viewBox="0 0 109 109" id="614e"><g fill="none" stroke="#666" stroke-width="9" stroke-linecap="round" stroke-linejoin="round"><g><g><path d="M14.75,35.62c0.02,4.47-1.43,14.65-2.72,18.12" /><path d="M31.27,33.08c3.1,1.35,8.02,5.54,8.79,7.63" /><path d="M24.62,16c1.19,1.19,1.21,3,1.21,4.75c0,1.79,0.02,46.77,0.03,66.25c0,3.82,0,6.52,0,7.5" /></g><g p4:phon="真" xmlns:p4="http://kanjivg.tagaini.net"><g><path d="M44.82,23.93c2.68,0.57,5.12,0.46,7.07,0.18C63,22.5,76.57,21.18,84.75,20.6c2.03-0.14,4.62-0.1,6.47,0.36" /><path d="M65.61,13.75c0.76,0.76,1.24,1.62,1.24,2.75c0,4.38-0.01,8.25-0.01,16.55" /></g><g><g><path d="M51.09,34.89c0.88,0.88,1.27,1.98,1.27,3.89c0,6.34-0.1,19.5-0.04,28.22c0.02,3.08,0.03,5.15,0.03,5.3" /><path d="M52.97,35.75c6.28-0.62,24.1-3.19,26.77-3.36c2.22-0.14,3.78,0.74,3.79,3.8c0,3.23,0.08,18.95,0.1,27.7c0,3.17,0,5.42-0.02,5.83" /><path d="M53.58,46.78c10.67-0.81,20.3-1.91,28.67-2.52" /><path d="M53.28,57.81c7.75-0.48,19.4-1.87,28.97-2.18" /><path d="M53.3,69.49c11.54-1.17,19.93-2.14,29.47-2.73" /></g><g><path d="M41.84,79.83c2.49,0.84,5.48,0.49,8.03,0.29c8.82-0.69,26.53-2.32,37.5-2.62c2.51-0.07,5.06,0.04,7.53,0.54" /><g><path d="M57.79,85.47c0.13,0.87-0.07,1.64-0.6,2.33c-2.69,3.08-8.14,7.75-15.49,11.17" /><path d="M77,85.5c4.88,2,12.6,8.2,13.82,11.31" /></g></g></g></g></g></g><g fill="none" stroke="#000" stroke-width="5" stroke-linecap="round" stroke-linejoin="round"><g><g><path d="M14.75,35.62c0.02,4.47-1.43,14.65-2.72,18.12" stroke-dasharray="18.37" stroke-dashoffset="18.37"><animate id="0" attributeName="stroke-dashoffset" values="18.37;0" dur="0.18s" fill="freeze" begin="0s;614e.click" /></path><path d="M31.27,33.08c3.1,1.35,8.02,5.54,8.79,7.63" stroke-dasharray="11.81" stroke-dashoffset="11.81"><animate attributeName="stroke-dashoffset" values="11.81" fill="freeze" begin="614e.click" /><animate id="1" attributeName="stroke-dashoffset" values="11.81;0" dur="0.12s" fill="freeze" begin="0.end" /></path><path d="M24.62,16c1.19,1.19,1.21,3,1.21,4.75c0,1.79,0.02,46.77,0.03,66.25c0,3.82,0,6.52,0,7.5" stroke-dasharray="78.79" stroke-dashoffset="78.79"><animate attributeName="stroke-dashoffset" values="78.79" fill="freeze" begin="614e.click" /><animate id="2" attributeName="stroke-dashoffset" values="78.79;0" dur="0.59s" fill="freeze" begin="1.end" /></path></g><g p4:phon="真" xmlns:p4="http://kanjivg.tagaini.net"><g><path d="M44.82,23.93c2.68,0.57,5.12,0.46,7.07,0.18C63,22.5,76.57,21.18,84.75,20.6c2.03-0.14,4.62-0.1,6.47,0.36" stroke-dasharray="46.67" stroke-dashoffset="46.67"><animate attributeName="stroke-dashoffset" values="46.67" fill="freeze" begin="614e.click" /><animate id="3" attributeName="stroke-dashoffset" values="46.67;0" dur="0.47s" fill="freeze" begin="2.end" /></path><path d="M65.61,13.75c0.76,0.76,1.24,1.62,1.24,2.75c0,4.38-0.01,8.25-0.01,16.55" stroke-dasharray="19.65" stroke-dashoffset="19.65"><animate attributeName="stroke-dashoffset" values="19.65" fill="freeze" begin="614e.click" /><animate id="4" attributeName="stroke-dashoffset" values="19.65;0" dur="0.2s" fill="freeze" begin="3.end" /></path></g><g><g><path d="M51.09,34.89c0.88,0.88,1.27,1.98,1.27,3.89c0,6.34-0.1,19.5-0.04,28.22c0.02,3.08,0.03,5.15,0.03,5.3" stroke-dasharray="37.73" stroke-dashoffset="37.73"><animate attributeName="stroke-dashoffset" values="37.73" fill="freeze" begin="614e.click" /><animate id="5" attributeName="stroke-dashoffset" values="37.73;0" dur="0.38s" fill="freeze" begin="4.end" /></path><path d="M52.97,35.75c6.28-0.62,24.1-3.19,26.77-3.36c2.22-0.14,3.78,0.74,3.79,3.8c0,3.23,0.08,18.95,0.1,27.7c0,3.17,0,5.42-0.02,5.83" stroke-dasharray="66.78" stroke-dashoffset="66.78"><animate attributeName="stroke-dashoffset" values="66.78" fill="freeze" begin="614e.click" /><animate id="6" attributeName="stroke-dashoffset" values="66.78;0" dur="0.5s" fill="freeze" begin="5.end" /></path><path d="M53.58,46.78c10.67-0.81,20.3-1.91,28.67-2.52" stroke-dasharray="28.78" stroke-dashoffset="28.78"><animate attributeName="stroke-dashoffset" values="28.78" fill="freeze" begin="614e.click" /><animate id="7" attributeName="stroke-dashoffset" values="28.78;0" dur="0.29s" fill="freeze" begin="6.end" /></path><path d="M53.28,57.81c7.75-0.48,19.4-1.87,28.97-2.18" stroke-dasharray="29.06" stroke-dashoffset="29.06"><animate attributeName="stroke-dashoffset" values="29.06" fill="freeze" begin="614e.click" /><animate id="8" attributeName="stroke-dashoffset" values="29.06;0" dur="0.29s" fill="freeze" begin="7.end" /></path><path d="M53.3,69.49c11.54-1.17,19.93-2.14,29.47-2.73" stroke-dasharray="29.6" stroke-dashoffset="29.6"><animate attributeName="stroke-dashoffset" values="29.6" fill="freeze" begin="614e.click" /><animate id="9" attributeName="stroke-dashoffset" values="29.6;0" dur="0.3s" fill="freeze" begin="8.end" /></path></g><g><path d="M41.84,79.83c2.49,0.84,5.48,0.49,8.03,0.29c8.82-0.69,26.53-2.32,37.5-2.62c2.51-0.07,5.06,0.04,7.53,0.54" stroke-dasharray="53.25" stroke-dashoffset="53.25"><animate attributeName="stroke-dashoffset" values="53.25" fill="freeze" begin="614e.click" /><animate id="10" attributeName="stroke-dashoffset" values="53.25;0" dur="0.53s" fill="freeze" begin="9.end" /></path><g><path d="M57.79,85.47c0.13,0.87-0.07,1.64-0.6,2.33c-2.69,3.08-8.14,7.75-15.49,11.17" stroke-dasharray="21.7" stroke-dashoffset="21.7"><animate attributeName="stroke-dashoffset" values="21.7" fill="freeze" begin="614e.click" /><animate id="11" attributeName="stroke-dashoffset" values="21.7;0" dur="0.22s" fill="freeze" begin="10.end" /></path><path d="M77,85.5c4.88,2,12.6,8.2,13.82,11.31" stroke-dasharray="18.11" stroke-dashoffset="18.11"><animate attributeName="stroke-dashoffset" values="18.11" fill="freeze" begin="614e.click" /><animate id="12" attributeName="stroke-dashoffset" values="18.11;0" dur="0.18s" fill="freeze" begin="11.end" /></path></g></g></g></g></g></g></svg>