<svg xmlns="http://www.w3.org/2000/svg" width="109" height="109" viewBox="0 0 109 109" id="6153"><g fill="none" stroke="#666" stroke-width="6" stroke-linecap="round" stroke-linejoin="round"><g><g><path d="M16.22,34.5c0.03,4.31-2.47,14.14-4.69,17.5" /><path d="M30.77,32.08c2.04,2.27,5.28,9.35,5.79,12.88" /><path d="M22.37,12.75c1.09,0.5,1.74,2.25,1.96,3.25c0.22,1,0,73.75-0.22,80" /></g><g><g><g><path d="M41.18,15.92c1.16,0.41,3.28,0.46,4.44,0.41C53.5,16,79.5,12.75,86.86,12.14c1.93-0.16,3.09,0.2,4.06,0.4" /><path d="M40.98,27.23c0.31,0.32,0.63,0.59,0.77,1c1.08,3.21,2.91,12.06,3.65,17.83" /><path d="M42.17,29.37c8.16-1.29,43.15-4.45,47.36-4.89c2.22-0.23,3.47,1.27,3.24,3.05c-0.5,3.96-2.86,9.66-4.81,15.26" /><path d="M54.8,16.87c0.83,0.51,1.39,2.27,1.49,3.3c0.32,3.05,1.08,14.48,1.85,21.6" /><path d="M72.95,16.81c0.83,0.51,0.89,2.76,0.86,5.08c-0.06,4.6-0.06,10.85-0.93,19.09" /><path d="M45.71,43.44c3.15-0.35,35.35-2.54,42.71-3.19" /></g></g><g><g><path d="M47.57,52.53c1.03,0.35,2.92,0.45,3.95,0.35c6.56-0.61,21.47-2.02,29.01-2.1c1.72-0.02,2.75,0.17,3.61,0.34" /><path d="M39.16,65.23c1.12,0.27,3.17,0.31,4.29,0.27c8.31-0.33,36.02-2.75,48.17-3.1c1.86-0.05,2.99,0.13,3.92,0.26" /></g><g><path d="M64.71,66.93c0.11,0.48,1.52,2.5,1.52,5.54c0,7.2-0.01,14.75-0.01,19.72c0,6.86-4.02,2.54-6.28,0.29" /><path d="M50.58,74.43c0.04,0.49,0.08,1.27-0.07,1.98c-0.88,4.17-6.56,10.41-15.53,16.49" /><path d="M80.83,74.52c4.71,3.08,12.38,12.32,13.56,17.11" /></g></g></g></g></g><g fill="none" stroke="#000" stroke-width="3" stroke-linecap="round" stroke-linejoin="round"><path d="M16.22,34.5c0.03,4.31-2.47,14.14-4.69,17.5" stroke-dasharray="18.261" stroke-dashoffset="18.261"><animate attributeName="stroke-dashoffset" values="18.261;18.261;0" dur="0.183s" fill="freeze" begin="0s;6153.click" /></path><path d="M30.77,32.08c2.04,2.27,5.28,9.35,5.79,12.88" stroke-dasharray="14.236" stroke-dashoffset="14.236"><animate attributeName="stroke-dashoffset" values="14.236" fill="freeze" begin="6153.click" /><animate attributeName="stroke-dashoffset" values="14.236;14.236;0" keyTimes="0;0.563;1" dur="0.325s" fill="freeze" begin="0s;6153.click" /></path><path d="M22.37,12.75c1.09,0.5,1.74,2.25,1.96,3.25c0.22,1,0,73.75-0.22,80" stroke-dasharray="83.912" stroke-dashoffset="83.912"><animate attributeName="stroke-dashoffset" values="83.912" fill="freeze" begin="6153.click" /><animate attributeName="stroke-dashoffset" values="83.912;83.912;0" keyTimes="0;0.34;1" dur="0.956s" fill="freeze" begin="0s;6153.click" /></path><path d="M41.18,15.92c1.16,0.41,3.28,0.46,4.44,0.41C53.5,16,79.5,12.75,86.86,12.14c1.93-0.16,3.09,0.2,4.06,0.4" stroke-dasharray="50.036" stroke-dashoffset="50.036"><animate attributeName="stroke-dashoffset" values="50.036" fill="freeze" begin="6153.click" /><animate attributeName="stroke-dashoffset" values="50.036;50.036;0" keyTimes="0;0.657;1" dur="1.456s" fill="freeze" begin="0s;6153.click" /></path><path d="M40.98,27.23c0.31,0.32,0.63,0.59,0.77,1c1.08,3.21,2.91,12.06,3.65,17.83" stroke-dasharray="19.492" stroke-dashoffset="19.492"><animate attributeName="stroke-dashoffset" values="19.492" fill="freeze" begin="6153.click" /><animate attributeName="stroke-dashoffset" values="19.492;19.492;0" keyTimes="0;0.882;1" dur="1.651s" fill="freeze" begin="0s;6153.click" /></path><path d="M42.17,29.37c8.16-1.29,43.15-4.45,47.36-4.89c2.22-0.23,3.47,1.27,3.24,3.05c-0.5,3.96-2.86,9.66-4.81,15.26" stroke-dasharray="68.857" stroke-dashoffset="68.857"><animate attributeName="stroke-dashoffset" values="68.857" fill="freeze" begin="6153.click" /><animate attributeName="stroke-dashoffset" values="68.857;68.857;0" keyTimes="0;0.761;1" dur="2.169s" fill="freeze" begin="0s;6153.click" /></path><path d="M54.8,16.87c0.83,0.51,1.39,2.27,1.49,3.3c0.32,3.05,1.08,14.48,1.85,21.6" stroke-dasharray="25.394" stroke-dashoffset="25.394"><animate attributeName="stroke-dashoffset" values="25.394" fill="freeze" begin="6153.click" /><animate attributeName="stroke-dashoffset" values="25.394;25.394;0" keyTimes="0;0.895;1" dur="2.423s" fill="freeze" begin="0s;6153.click" /></path><path d="M72.95,16.81c0.83,0.51,0.89,2.76,0.86,5.08c-0.06,4.6-0.06,10.85-0.93,19.09" stroke-dasharray="24.41" stroke-dashoffset="24.41"><animate attributeName="stroke-dashoffset" values="24.41" fill="freeze" begin="6153.click" /><animate attributeName="stroke-dashoffset" values="24.41;24.41;0" keyTimes="0;0.909;1" dur="2.667s" fill="freeze" begin="0s;6153.click" /></path><path d="M45.71,43.44c3.15-0.35,35.35-2.54,42.71-3.19" stroke-dasharray="42.83" stroke-dashoffset="42.83"><animate attributeName="stroke-dashoffset" values="42.83" fill="freeze" begin="6153.click" /><animate attributeName="stroke-dashoffset" values="42.83;42.83;0" keyTimes="0;0.862;1" dur="3.095s" fill="freeze" begin="0s;6153.click" /></path><path d="M47.57,52.53c1.03,0.35,2.92,0.45,3.95,0.35c6.56-0.61,21.47-2.02,29.01-2.1c1.72-0.02,2.75,0.17,3.61,0.34" stroke-dasharray="36.713" stroke-dashoffset="36.713"><animate attributeName="stroke-dashoffset" values="36.713" fill="freeze" begin="6153.click" /><animate attributeName="stroke-dashoffset" values="36.713;36.713;0" keyTimes="0;0.894;1" dur="3.462s" fill="freeze" begin="0s;6153.click" /></path><path d="M39.16,65.23c1.12,0.27,3.17,0.31,4.29,0.27c8.31-0.33,36.02-2.75,48.17-3.1c1.86-0.05,2.99,0.13,3.92,0.26" stroke-dasharray="56.516" stroke-dashoffset="56.516"><animate attributeName="stroke-dashoffset" values="56.516" fill="freeze" begin="6153.click" /><animate attributeName="stroke-dashoffset" values="56.516;56.516;0" keyTimes="0;0.86;1" dur="4.027s" fill="freeze" begin="0s;6153.click" /></path><path d="M64.71,66.93c0.11,0.48,1.52,2.5,1.52,5.54c0,7.2-0.01,14.75-0.01,19.72c0,6.86-4.02,2.54-6.28,0.29" stroke-dasharray="35.881" stroke-dashoffset="35.881"><animate attributeName="stroke-dashoffset" values="35.881" fill="freeze" begin="6153.click" /><animate attributeName="stroke-dashoffset" values="35.881;35.881;0" keyTimes="0;0.918;1" dur="4.386s" fill="freeze" begin="0s;6153.click" /></path><path d="M50.58,74.43c0.04,0.49,0.08,1.27-0.07,1.98c-0.88,4.17-6.56,10.41-15.53,16.49" stroke-dasharray="25.038" stroke-dashoffset="25.038"><animate attributeName="stroke-dashoffset" values="25.038" fill="freeze" begin="6153.click" /><animate attributeName="stroke-dashoffset" values="25.038;25.038;0" keyTimes="0;0.946;1" dur="4.636s" fill="freeze" begin="0s;6153.click" /></path><path d="M80.83,74.52c4.71,3.08,12.38,12.32,13.56,17.11" stroke-dasharray="22.126" stroke-dashoffset="22.126"><animate attributeName="stroke-dashoffset" values="22.126" fill="freeze" begin="6153.click" /><animate attributeName="stroke-dashoffset" values="22.126;22.126;0" keyTimes="0;0.954;1" dur="4.857s" fill="freeze" begin="0s;6153.click" /></path></g></svg>