<svg xmlns="http://www.w3.org/2000/svg" width="109" height="109" viewBox="0 0 109 109" id="6163"><g fill="none" stroke="#666" stroke-width="9" stroke-linecap="round" stroke-linejoin="round"><g><g><path d="M16.18,38c0,5.88-3.06,14.57-3.86,16.25" /><path d="M29.02,35.08c2.84,1.79,7.33,7.35,8.04,10.13" /><path d="M22.87,14.5c1.06,1.06,1.46,2.75,1.46,4.25c0,0.87,0.02,51.42,0.03,71.25c0,3.57,0,6.15,0,7.25" /></g><g p4:phon="貫" xmlns:p4="http://kanjivg.tagaini.net"><g p4:partial><path d="m51.6,15.24c0.83,0.83,1.14,2.12,1.02,3.3-0.74,7.34-1.75,14.09-3.1,18.7-0.5,1.69,0.19,2.75,1.57,2.46,8.11,-1.7,15.02,-2.59,24.42,-3.15,2.09,-0.13,4.3,-0.23,6.68,-0.33" /><path d="M54.17,17.48c0.8-0.08,24.87-3.59,28.85-3.52c1.55,0.03,2.96,1.15,2.65,3c-0.96,5.81-1.64,11.08-2.84,17.67C82.58,36.03,82.3,37.47,82,39" /><path d="M66.52,16.02c0.73,0.73,0.98,2.1,0.88,3.07c-0.62,5.83-1.02,10.28-1.86,17.1" /><path d="M36.88,28.59c2.37,0.41,5.19,0.2,7.63-0.02c11.28-1.02,28.03-2.96,44.5-4.11c2.99-0.21,6.24-0.33,8.61,0.28" /></g><g><g><path d="M51.63,46.75c0.93,0.93,1.25,2.44,1.25,3.52c0,0.87,0.06,21.68,0.09,29.85c0.01,1.92,0.01,3.14,0.01,3.25" /><path d="M54.04,48.63c3.71-0.51,24.23-2.64,26.85-2.73c2.19-0.07,3.79,1.1,3.79,3.34c0,3.79-0.08,17.4-0.09,28.89c0,1.5,0,2.97,0,4.38" /><path d="M54.18,59.75c8.57-0.75,20.19-2.12,29.05-2.33" /><path d="M54.23,70.38c7.69-0.79,19.98-2.16,29.17-2.52" /><path d="M54.1,81.54c9.57-0.64,17.65-1.41,28.98-1.78" /></g><g><path d="M55.63,86.36c0.46,1.07-0.15,2.35-1.05,3.1c-2.73,2.26-10.11,6.8-15.58,9.42" /><path d="M77.56,85.57c6.34,3.29,13.84,9.16,15.57,11.96" /></g></g></g></g></g><g fill="none" stroke="#000" stroke-width="5" stroke-linecap="round" stroke-linejoin="round"><g><g><path d="M16.18,38c0,5.88-3.06,14.57-3.86,16.25" stroke-dasharray="16.79" stroke-dashoffset="16.79"><animate id="0" attributeName="stroke-dashoffset" values="16.79;0" dur="0.17s" fill="freeze" begin="0s;6163.click" /></path><path d="M29.02,35.08c2.84,1.79,7.33,7.35,8.04,10.13" stroke-dasharray="13.11" stroke-dashoffset="13.11"><animate attributeName="stroke-dashoffset" values="13.11" fill="freeze" begin="6163.click" /><animate id="1" attributeName="stroke-dashoffset" values="13.11;0" dur="0.13s" fill="freeze" begin="0.end" /></path><path d="M22.87,14.5c1.06,1.06,1.46,2.75,1.46,4.25c0,0.87,0.02,51.42,0.03,71.25c0,3.57,0,6.15,0,7.25" stroke-dasharray="83.11" stroke-dashoffset="83.11"><animate attributeName="stroke-dashoffset" values="83.11" fill="freeze" begin="6163.click" /><animate id="2" attributeName="stroke-dashoffset" values="83.11;0" dur="0.62s" fill="freeze" begin="1.end" /></path></g><g p4:phon="貫" xmlns:p4="http://kanjivg.tagaini.net"><g p4:partial><path d="m51.6,15.24c0.83,0.83,1.14,2.12,1.02,3.3-0.74,7.34-1.75,14.09-3.1,18.7-0.5,1.69,0.19,2.75,1.57,2.46,8.11,-1.7,15.02,-2.59,24.42,-3.15,2.09,-0.13,4.3,-0.23,6.68,-0.33" stroke-dasharray="57.59" stroke-dashoffset="57.59"><animate attributeName="stroke-dashoffset" values="57.59" fill="freeze" begin="6163.click" /><animate id="3" attributeName="stroke-dashoffset" values="57.59;0" dur="0.58s" fill="freeze" begin="2.end" /></path><path d="M54.17,17.48c0.8-0.08,24.87-3.59,28.85-3.52c1.55,0.03,2.96,1.15,2.65,3c-0.96,5.81-1.64,11.08-2.84,17.67C82.58,36.03,82.3,37.47,82,39" stroke-dasharray="56.02" stroke-dashoffset="56.02"><animate attributeName="stroke-dashoffset" values="56.02" fill="freeze" begin="6163.click" /><animate id="4" attributeName="stroke-dashoffset" values="56.02;0" dur="0.56s" fill="freeze" begin="3.end" /></path><path d="M66.52,16.02c0.73,0.73,0.98,2.1,0.88,3.07c-0.62,5.83-1.02,10.28-1.86,17.1" stroke-dasharray="20.49" stroke-dashoffset="20.49"><animate attributeName="stroke-dashoffset" values="20.49" fill="freeze" begin="6163.click" /><animate id="5" attributeName="stroke-dashoffset" values="20.49;0" dur="0.2s" fill="freeze" begin="4.end" /></path><path d="M36.88,28.59c2.37,0.41,5.19,0.2,7.63-0.02c11.28-1.02,28.03-2.96,44.5-4.11c2.99-0.21,6.24-0.33,8.61,0.28" stroke-dasharray="60.99" stroke-dashoffset="60.99"><animate attributeName="stroke-dashoffset" values="60.99" fill="freeze" begin="6163.click" /><animate id="6" attributeName="stroke-dashoffset" values="60.99;0" dur="0.46s" fill="freeze" begin="5.end" /></path></g><g><g><path d="M51.63,46.75c0.93,0.93,1.25,2.44,1.25,3.52c0,0.87,0.06,21.68,0.09,29.85c0.01,1.92,0.01,3.14,0.01,3.25" stroke-dasharray="36.93" stroke-dashoffset="36.93"><animate attributeName="stroke-dashoffset" values="36.93" fill="freeze" begin="6163.click" /><animate id="7" attributeName="stroke-dashoffset" values="36.93;0" dur="0.37s" fill="freeze" begin="6.end" /></path><path d="M54.04,48.63c3.71-0.51,24.23-2.64,26.85-2.73c2.19-0.07,3.79,1.1,3.79,3.34c0,3.79-0.08,17.4-0.09,28.89c0,1.5,0,2.97,0,4.38" stroke-dasharray="66" stroke-dashoffset="66"><animate attributeName="stroke-dashoffset" values="66" fill="freeze" begin="6163.click" /><animate id="8" attributeName="stroke-dashoffset" values="66;0" dur="0.5s" fill="freeze" begin="7.end" /></path><path d="M54.18,59.75c8.57-0.75,20.19-2.12,29.05-2.33" stroke-dasharray="29.15" stroke-dashoffset="29.15"><animate attributeName="stroke-dashoffset" values="29.15" fill="freeze" begin="6163.click" /><animate id="9" attributeName="stroke-dashoffset" values="29.15;0" dur="0.29s" fill="freeze" begin="8.end" /></path><path d="M54.23,70.38c7.69-0.79,19.98-2.16,29.17-2.52" stroke-dasharray="29.28" stroke-dashoffset="29.28"><animate attributeName="stroke-dashoffset" values="29.28" fill="freeze" begin="6163.click" /><animate id="10" attributeName="stroke-dashoffset" values="29.28;0" dur="0.29s" fill="freeze" begin="9.end" /></path><path d="M54.1,81.54c9.57-0.64,17.65-1.41,28.98-1.78" stroke-dasharray="29.04" stroke-dashoffset="29.04"><animate attributeName="stroke-dashoffset" values="29.04" fill="freeze" begin="6163.click" /><animate id="11" attributeName="stroke-dashoffset" values="29.04;0" dur="0.29s" fill="freeze" begin="10.end" /></path></g><g><path d="M55.63,86.36c0.46,1.07-0.15,2.35-1.05,3.1c-2.73,2.26-10.11,6.8-15.58,9.42" stroke-dasharray="21.73" stroke-dashoffset="21.73"><animate attributeName="stroke-dashoffset" values="21.73" fill="freeze" begin="6163.click" /><animate id="12" attributeName="stroke-dashoffset" values="21.73;0" dur="0.22s" fill="freeze" begin="11.end" /></path><path d="M77.56,85.57c6.34,3.29,13.84,9.16,15.57,11.96" stroke-dasharray="19.77" stroke-dashoffset="19.77"><animate attributeName="stroke-dashoffset" values="19.77" fill="freeze" begin="6163.click" /><animate id="13" attributeName="stroke-dashoffset" values="19.77;0" dur="0.2s" fill="freeze" begin="12.end" /></path></g></g></g></g></g></svg>