<svg xmlns="http://www.w3.org/2000/svg" width="109" height="109" viewBox="0 0 109 109" id="6165"><g fill="none" stroke="#666" stroke-width="6" stroke-linecap="round" stroke-linejoin="round"><g><g><path d="M15.72,33.5c0.03,4.31-2.21,14.14-4.19,17.5" /><path d="M25.27,26.08c2.75,1.48,7.1,6.08,7.79,8.38" /><path d="M21.37,12.25c1.09,0.5,1.74,2.25,1.96,3.25c0.22,1-0.22,73.75-0.22,83" /></g><g><g><g><path d="M62.76,18.19c0.02,0.49,0.05,1.28-0.05,1.99c-0.57,4.19-3.85,13.38-8.34,19" /><path d="M61.31,29.25c0.62,0.33,2.64,0.41,3.26,0.33c7.57-0.91,18.4-2.15,25.36-2.44c1.03-0.04,1.65,0.16,2.16,0.32" /><path d="M52.58,45.86c1.16,0.34,3.28,0.4,4.44,0.34c12.04-0.57,18.21-1.96,36.36-2.57c1.93-0.06,3.08,0.16,4.05,0.33" /><path d="M72.88,11.38c0.45,0.35,1.39,2.61,1.48,3.31c0.09,0.7-0.06,34.49-0.15,38.84" /></g><g><path d="M58.67,59.45c0.31,0.36,0.62,0.66,0.76,1.12c1.07,3.6,2.43,15.18,3.16,21.64" /><path d="M59.98,61.19c8.25-0.83,22.48-2.46,26.37-2.97c1.42-0.18,2.27,1.88,2.07,2.97c-0.84,4.53-1.72,10.36-3.52,16.89" /><path d="M63.2,79.72c7.15-0.49,19.29-1.01,24.42-1.45" /></g></g><g><path d="M37.4,18.25c3.81,1.39,9.83,5.72,10.79,7.88" /><path d="M38.15,39c3.1,1.39,8.01,5.72,8.79,7.88" /><path d="M34.5,60.7c1.81,0.66,3.02,0.33,3.82,0.17c0.81-0.17,6.94-3.31,8.15-3.64s3.02,0.83,2.21,1.82s-3.72,5.79-4.32,6.61c-0.6,0.83-0.4,2.31,0.8,3.47c1.21,1.16,2.21,2.48,2.82,3.47c0.6,0.99,0.6,1.82-0.6,2.64s-7.25,5.45-8.45,5.78" /><path d="M30.51,84.37c2.42-0.44,7.25-1.55,10.87-0.66c3.62,0.88,24.21,6.82,27.77,7.96c9.66,3.09,17.11,3.98,24.35,2.43" /></g></g></g></g><g fill="none" stroke="#000" stroke-width="3" stroke-linecap="round" stroke-linejoin="round"><path d="M15.72,33.5c0.03,4.31-2.21,14.14-4.19,17.5" stroke-dasharray="18.112" stroke-dashoffset="18.112"><animate attributeName="stroke-dashoffset" values="18.112;18.112;0" dur="0.181s" fill="freeze" begin="0s;6165.click" /></path><path d="M25.27,26.08c2.75,1.48,7.1,6.08,7.79,8.38" stroke-dasharray="11.607" stroke-dashoffset="11.607"><animate attributeName="stroke-dashoffset" values="11.607" fill="freeze" begin="6165.click" /><animate attributeName="stroke-dashoffset" values="11.607;11.607;0" keyTimes="0;0.609;1" dur="0.297s" fill="freeze" begin="0s;6165.click" /></path><path d="M21.37,12.25c1.09,0.5,1.74,2.25,1.96,3.25c0.22,1-0.22,73.75-0.22,83" stroke-dasharray="86.911" stroke-dashoffset="86.911"><animate attributeName="stroke-dashoffset" values="86.911" fill="freeze" begin="6165.click" /><animate attributeName="stroke-dashoffset" values="86.911;86.911;0" keyTimes="0;0.313;1" dur="0.95s" fill="freeze" begin="0s;6165.click" /></path><path d="M62.76,18.19c0.02,0.49,0.05,1.28-0.05,1.99c-0.57,4.19-3.85,13.38-8.34,19" stroke-dasharray="22.926" stroke-dashoffset="22.926"><animate attributeName="stroke-dashoffset" values="22.926" fill="freeze" begin="6165.click" /><animate attributeName="stroke-dashoffset" values="22.926;22.926;0" keyTimes="0;0.806;1" dur="1.179s" fill="freeze" begin="0s;6165.click" /></path><path d="M61.31,29.25c0.62,0.33,2.64,0.41,3.26,0.33c7.57-0.91,18.4-2.15,25.36-2.44c1.03-0.04,1.65,0.16,2.16,0.32" stroke-dasharray="30.982" stroke-dashoffset="30.982"><animate attributeName="stroke-dashoffset" values="30.982" fill="freeze" begin="6165.click" /><animate attributeName="stroke-dashoffset" values="30.982;30.982;0" keyTimes="0;0.792;1" dur="1.489s" fill="freeze" begin="0s;6165.click" /></path><path d="M52.58,45.86c1.16,0.34,3.28,0.4,4.44,0.34c12.04-0.57,18.21-1.96,36.36-2.57c1.93-0.06,3.08,0.16,4.05,0.33" stroke-dasharray="44.999" stroke-dashoffset="44.999"><animate attributeName="stroke-dashoffset" values="44.999" fill="freeze" begin="6165.click" /><animate attributeName="stroke-dashoffset" values="44.999;44.999;0" keyTimes="0;0.768;1" dur="1.939s" fill="freeze" begin="0s;6165.click" /></path><path d="M72.88,11.38c0.45,0.35,1.39,2.61,1.48,3.31c0.09,0.7-0.06,34.49-0.15,38.84" stroke-dasharray="42.499" stroke-dashoffset="42.499"><animate attributeName="stroke-dashoffset" values="42.499" fill="freeze" begin="6165.click" /><animate attributeName="stroke-dashoffset" values="42.499;42.499;0" keyTimes="0;0.82;1" dur="2.364s" fill="freeze" begin="0s;6165.click" /></path><path d="M58.67,59.45c0.31,0.36,0.62,0.66,0.76,1.12c1.07,3.6,2.43,15.18,3.16,21.64" stroke-dasharray="23.25" stroke-dashoffset="23.25"><animate attributeName="stroke-dashoffset" values="23.25" fill="freeze" begin="6165.click" /><animate attributeName="stroke-dashoffset" values="23.25;23.25;0" keyTimes="0;0.911;1" dur="2.596s" fill="freeze" begin="0s;6165.click" /></path><path d="M59.98,61.19c8.25-0.83,22.48-2.46,26.37-2.97c1.42-0.18,2.27,1.88,2.07,2.97c-0.84,4.53-1.72,10.36-3.52,16.89" stroke-dasharray="47.891" stroke-dashoffset="47.891"><animate attributeName="stroke-dashoffset" values="47.891" fill="freeze" begin="6165.click" /><animate attributeName="stroke-dashoffset" values="47.891;47.891;0" keyTimes="0;0.844;1" dur="3.075s" fill="freeze" begin="0s;6165.click" /></path><path d="M63.2,79.72c7.15-0.49,19.29-1.01,24.42-1.45" stroke-dasharray="24.465" stroke-dashoffset="24.465"><animate attributeName="stroke-dashoffset" values="24.465" fill="freeze" begin="6165.click" /><animate attributeName="stroke-dashoffset" values="24.465;24.465;0" keyTimes="0;0.926;1" dur="3.32s" fill="freeze" begin="0s;6165.click" /></path><path d="M37.4,18.25c3.81,1.39,9.83,5.72,10.79,7.88" stroke-dasharray="13.543" stroke-dashoffset="13.543"><animate attributeName="stroke-dashoffset" values="13.543" fill="freeze" begin="6165.click" /><animate attributeName="stroke-dashoffset" values="13.543;13.543;0" keyTimes="0;0.961;1" dur="3.455s" fill="freeze" begin="0s;6165.click" /></path><path d="M38.15,39c3.1,1.39,8.01,5.72,8.79,7.88" stroke-dasharray="11.976" stroke-dashoffset="11.976"><animate attributeName="stroke-dashoffset" values="11.976" fill="freeze" begin="6165.click" /><animate attributeName="stroke-dashoffset" values="11.976;11.976;0" keyTimes="0;0.966;1" dur="3.575s" fill="freeze" begin="0s;6165.click" /></path><path d="M34.5,60.7c1.81,0.66,3.02,0.33,3.82,0.17c0.81-0.17,6.94-3.31,8.15-3.64s3.02,0.83,2.21,1.82s-3.72,5.79-4.32,6.61c-0.6,0.83-0.4,2.31,0.8,3.47c1.21,1.16,2.21,2.48,2.82,3.47c0.6,0.99,0.6,1.82-0.6,2.64s-7.25,5.45-8.45,5.78" stroke-dasharray="46.029" stroke-dashoffset="46.029"><animate attributeName="stroke-dashoffset" values="46.029" fill="freeze" begin="6165.click" /><animate attributeName="stroke-dashoffset" values="46.029;46.029;0" keyTimes="0;0.886;1" dur="4.035s" fill="freeze" begin="0s;6165.click" /></path><path d="M30.51,84.37c2.42-0.44,7.25-1.55,10.87-0.66c3.62,0.88,24.21,6.82,27.77,7.96c9.66,3.09,17.11,3.98,24.35,2.43" stroke-dasharray="64.626" stroke-dashoffset="64.626"><animate attributeName="stroke-dashoffset" values="64.626" fill="freeze" begin="6165.click" /><animate attributeName="stroke-dashoffset" values="64.626;64.626;0" keyTimes="0;0.893;1" dur="4.521s" fill="freeze" begin="0s;6165.click" /></path></g></svg>