<svg xmlns="http://www.w3.org/2000/svg" width="109" height="109" viewBox="0 0 109 109" id="616e"><g fill="none" stroke="#666" stroke-width="9" stroke-linecap="round" stroke-linejoin="round"><g><g p4:phon="虍" xmlns:p4="http://kanjivg.tagaini.net"><path d="M52.44,9.83c0.78,0.77,1.39,1.66,1.39,4.19c0,4.92-0.02,6.84-0.02,10.98" /><path d="M54.72,16.77c5.65-0.77,11.62-1.52,16.1-2.13c1.48-0.2,2.38-0.07,3.13,0.12" /><path d="M26.83,27.43c0.94,0.94,1.19,2.32,1.19,3.82c0,24-5.52,45.25-16.52,57.75" /><path d="M28.66,28.74c2.09-0.24,3.1-0.46,4.89-0.72c12.21-1.77,35.8-4.27,46.69-4.43c11.48-0.17,2.43,6.16-0.43,8.28" /><g><g><path d="M37.08,37.94c2.67,0.56,4.77,0.17,6.8-0.17c6.4-1.08,15.07-2.87,21.87-3.9c2.25-0.34,4.42-0.82,6.65-0.18" /></g><path d="M51.55,28.43c0.64,0.64,0.93,1.32,0.93,2.5c0,1.94-0.07,6.44-0.07,8.01c0,3.33,0.89,4.81,7.97,4.81c2.14,0,7.34-0.5,9.18-1.13" /></g></g><g><g><path d="M36.86,52.08c0.78,0.78,1.14,1.67,1.43,3.03c1.05,4.85,1.73,9.06,2.38,13.9c0.18,1.31,0.34,2.55,0.49,3.62" /><path d="M38.28,52.8c11.5-0.74,27.47-2.54,35.97-3c4.26-0.23,6.03,0.72,5.17,5.22c-0.62,3.3-2.16,8.02-3.14,11.41c-0.42,1.45-0.84,2.86-1.24,4.18" /><path d="M56.19,52.87c0.78,0.78,0.94,1.85,0.94,3.38c-0.02,4.84,0.06,11.37,0.06,12.51" /><path d="M40.74,61.36c6.38-0.61,30.13-2.48,36.37-2.66" /><path d="M42.08,71.1c8.26-0.83,24.55-2.08,32.06-2.32" /></g><g><path d="M32.25,81.61c-0.5,3.52-3.71,9.51-6.67,12.44" /><path d="M44.65,81.63c4.97,8.25,18.3,15.61,38.13,14.09c8.98-0.69,9.09-2.47,1.46-6.13" /><path d="M57.03,77.05c2.84,4.32,5.34,5.72,6.38,2.35" /><path d="M81.97,73.58C85.25,75.5,90.25,79.88,93,83.9" /></g></g></g></g><g fill="none" stroke="#000" stroke-width="5" stroke-linecap="round" stroke-linejoin="round"><path d="M52.44,9.83c0.78,0.77,1.39,1.66,1.39,4.19c0,4.92-0.02,6.84-0.02,10.98" stroke-dasharray="15.537" stroke-dashoffset="15.537"><animate attributeName="stroke-dashoffset" values="15.537;15.537;0" dur="0.155s" fill="freeze" begin="0s;616e.click" /></path><path d="M54.72,16.77c5.65-0.77,11.62-1.52,16.1-2.13c1.48-0.2,2.38-0.07,3.13,0.12" stroke-dasharray="19.395" stroke-dashoffset="19.395"><animate attributeName="stroke-dashoffset" values="19.395" fill="freeze" begin="616e.click" /><animate attributeName="stroke-dashoffset" values="19.395;19.395;0" keyTimes="0;0.444;1" dur="0.349s" fill="freeze" begin="0s;616e.click" /></path><path d="M26.83,27.43c0.94,0.94,1.19,2.32,1.19,3.82c0,24-5.52,45.25-16.52,57.75" stroke-dasharray="65.392" stroke-dashoffset="65.392"><animate attributeName="stroke-dashoffset" values="65.392" fill="freeze" begin="616e.click" /><animate attributeName="stroke-dashoffset" values="65.392;65.392;0" keyTimes="0;0.415;1" dur="0.841s" fill="freeze" begin="0s;616e.click" /></path><path d="M28.66,28.74c2.09-0.24,3.1-0.46,4.89-0.72c12.21-1.77,35.8-4.27,46.69-4.43c11.48-0.17,2.43,6.16-0.43,8.28" stroke-dasharray="67.361" stroke-dashoffset="67.361"><animate attributeName="stroke-dashoffset" values="67.361" fill="freeze" begin="616e.click" /><animate attributeName="stroke-dashoffset" values="67.361;67.361;0" keyTimes="0;0.624;1" dur="1.347s" fill="freeze" begin="0s;616e.click" /></path><path d="M37.08,37.94c2.67,0.56,4.77,0.17,6.8-0.17c6.4-1.08,15.07-2.87,21.87-3.9c2.25-0.34,4.42-0.82,6.65-0.18" stroke-dasharray="35.779" stroke-dashoffset="35.779"><animate attributeName="stroke-dashoffset" values="35.779" fill="freeze" begin="616e.click" /><animate attributeName="stroke-dashoffset" values="35.779;35.779;0" keyTimes="0;0.79;1" dur="1.705s" fill="freeze" begin="0s;616e.click" /></path><path d="M51.55,28.43c0.64,0.64,0.93,1.32,0.93,2.5c0,1.94-0.07,6.44-0.07,8.01c0,3.33,0.89,4.81,7.97,4.81c2.14,0,7.34-0.5,9.18-1.13" stroke-dasharray="30.922" stroke-dashoffset="30.922"><animate attributeName="stroke-dashoffset" values="30.922" fill="freeze" begin="616e.click" /><animate attributeName="stroke-dashoffset" values="30.922;30.922;0" keyTimes="0;0.847;1" dur="2.014s" fill="freeze" begin="0s;616e.click" /></path><path d="M36.86,52.08c0.78,0.78,1.14,1.67,1.43,3.03c1.05,4.85,1.73,9.06,2.38,13.9c0.18,1.31,0.34,2.55,0.49,3.62" stroke-dasharray="21.163" stroke-dashoffset="21.163"><animate attributeName="stroke-dashoffset" values="21.163" fill="freeze" begin="616e.click" /><animate attributeName="stroke-dashoffset" values="21.163;21.163;0" keyTimes="0;0.905;1" dur="2.226s" fill="freeze" begin="0s;616e.click" /></path><path d="M38.28,52.8c11.5-0.74,27.47-2.54,35.97-3c4.26-0.23,6.03,0.72,5.17,5.22c-0.62,3.3-2.16,8.02-3.14,11.41c-0.42,1.45-0.84,2.86-1.24,4.18" stroke-dasharray="61.618" stroke-dashoffset="61.618"><animate attributeName="stroke-dashoffset" values="61.618" fill="freeze" begin="616e.click" /><animate attributeName="stroke-dashoffset" values="61.618;61.618;0" keyTimes="0;0.828;1" dur="2.689s" fill="freeze" begin="0s;616e.click" /></path><path d="M56.19,52.87c0.78,0.78,0.94,1.85,0.94,3.38c-0.02,4.84,0.06,11.37,0.06,12.51" stroke-dasharray="16.118" stroke-dashoffset="16.118"><animate attributeName="stroke-dashoffset" values="16.118" fill="freeze" begin="616e.click" /><animate attributeName="stroke-dashoffset" values="16.118;16.118;0" keyTimes="0;0.944;1" dur="2.85s" fill="freeze" begin="0s;616e.click" /></path><path d="M40.74,61.36c6.38-0.61,30.13-2.48,36.37-2.66" stroke-dasharray="36.471" stroke-dashoffset="36.471"><animate attributeName="stroke-dashoffset" values="36.471" fill="freeze" begin="616e.click" /><animate attributeName="stroke-dashoffset" values="36.471;36.471;0" keyTimes="0;0.886;1" dur="3.215s" fill="freeze" begin="0s;616e.click" /></path><path d="M42.08,71.1c8.26-0.83,24.55-2.08,32.06-2.32" stroke-dasharray="32.149" stroke-dashoffset="32.149"><animate attributeName="stroke-dashoffset" values="32.149" fill="freeze" begin="616e.click" /><animate attributeName="stroke-dashoffset" values="32.149;32.149;0" keyTimes="0;0.909;1" dur="3.536s" fill="freeze" begin="0s;616e.click" /></path><path d="M32.25,81.61c-0.5,3.52-3.71,9.51-6.67,12.44" stroke-dasharray="14.291" stroke-dashoffset="14.291"><animate attributeName="stroke-dashoffset" values="14.291" fill="freeze" begin="616e.click" /><animate attributeName="stroke-dashoffset" values="14.291;14.291;0" keyTimes="0;0.961;1" dur="3.679s" fill="freeze" begin="0s;616e.click" /></path><path d="M44.65,81.63c4.97,8.25,18.3,15.61,38.13,14.09c8.98-0.69,9.09-2.47,1.46-6.13" stroke-dasharray="57.245" stroke-dashoffset="57.245"><animate attributeName="stroke-dashoffset" values="57.245" fill="freeze" begin="616e.click" /><animate attributeName="stroke-dashoffset" values="57.245;57.245;0" keyTimes="0;0.865;1" dur="4.251s" fill="freeze" begin="0s;616e.click" /></path><path d="M57.03,77.05c2.84,4.32,5.34,5.72,6.38,2.35" stroke-dasharray="9.212" stroke-dashoffset="9.212"><animate attributeName="stroke-dashoffset" values="9.212" fill="freeze" begin="616e.click" /><animate attributeName="stroke-dashoffset" values="9.212;9.212;0" keyTimes="0;0.979;1" dur="4.343s" fill="freeze" begin="0s;616e.click" /></path><path d="M81.97,73.58C85.25,75.5,90.25,79.88,93,83.9" stroke-dasharray="15.202" stroke-dashoffset="15.202"><animate attributeName="stroke-dashoffset" values="15.202" fill="freeze" begin="616e.click" /><animate attributeName="stroke-dashoffset" values="15.202;15.202;0" keyTimes="0;0.966;1" dur="4.495s" fill="freeze" begin="0s;616e.click" /></path></g></svg>