<svg xmlns="http://www.w3.org/2000/svg" width="109" height="109" viewBox="0 0 109 109" id="616e"><g fill="none" stroke="#666" stroke-width="9" stroke-linecap="round" stroke-linejoin="round"><g><g p4:phon="虍" xmlns:p4="http://kanjivg.tagaini.net"><path d="M52.44,9.83c0.78,0.77,1.39,1.66,1.39,4.19c0,4.92-0.02,6.84-0.02,10.98" /><path d="M54.72,16.77c5.65-0.77,11.62-1.52,16.1-2.13c1.48-0.2,2.38-0.07,3.13,0.12" /><path d="M26.83,27.43c0.94,0.94,1.19,2.32,1.19,3.82c0,24-5.52,45.25-16.52,57.75" /><path d="M28.66,28.74c2.09-0.24,3.1-0.46,4.89-0.72c12.21-1.77,35.8-4.27,46.69-4.43c11.48-0.17,2.43,6.16-0.43,8.28" /><g><g><path d="M37.08,37.94c2.67,0.56,4.77,0.17,6.8-0.17c6.4-1.08,15.07-2.87,21.87-3.9c2.25-0.34,4.42-0.82,6.65-0.18" /></g><path d="M51.55,28.43c0.64,0.64,0.93,1.32,0.93,2.5c0,1.94-0.07,6.44-0.07,8.01c0,3.33,0.89,4.81,7.97,4.81c2.14,0,7.34-0.5,9.18-1.13" /></g></g><g><g><path d="M36.86,52.08c0.78,0.78,1.14,1.67,1.43,3.03c1.05,4.85,1.73,9.06,2.38,13.9c0.18,1.31,0.34,2.55,0.49,3.62" /><path d="M38.28,52.8c11.5-0.74,27.47-2.54,35.97-3c4.26-0.23,6.03,0.72,5.17,5.22c-0.62,3.3-2.16,8.02-3.14,11.41c-0.42,1.45-0.84,2.86-1.24,4.18" /><path d="M56.19,52.87c0.78,0.78,0.94,1.85,0.94,3.38c-0.02,4.84,0.06,11.37,0.06,12.51" /><path d="M40.74,61.36c6.38-0.61,30.13-2.48,36.37-2.66" /><path d="M42.08,71.1c8.26-0.83,24.55-2.08,32.06-2.32" /></g><g><path d="M32.25,81.61c-0.5,3.52-3.71,9.51-6.67,12.44" /><path d="M44.65,81.63c4.97,8.25,18.3,15.61,38.13,14.09c8.98-0.69,9.09-2.47,1.46-6.13" /><path d="M57.03,77.05c2.84,4.32,5.34,5.72,6.38,2.35" /><path d="M81.97,73.58C85.25,75.5,90.25,79.88,93,83.9" /></g></g></g></g><g fill="none" stroke="#000" stroke-width="5" stroke-linecap="round" stroke-linejoin="round"><g><g p4:phon="虍" xmlns:p4="http://kanjivg.tagaini.net"><path d="M52.44,9.83c0.78,0.77,1.39,1.66,1.39,4.19c0,4.92-0.02,6.84-0.02,10.98" stroke-dasharray="15.54" stroke-dashoffset="15.54"><animate id="0" attributeName="stroke-dashoffset" values="15.54;0" dur="0.16s" fill="freeze" begin="0s;616e.click" /></path><path d="M54.72,16.77c5.65-0.77,11.62-1.52,16.1-2.13c1.48-0.2,2.38-0.07,3.13,0.12" stroke-dasharray="19.39" stroke-dashoffset="19.39"><animate attributeName="stroke-dashoffset" values="19.39" fill="freeze" begin="616e.click" /><animate id="1" attributeName="stroke-dashoffset" values="19.39;0" dur="0.19s" fill="freeze" begin="0.end" /></path><path d="M26.83,27.43c0.94,0.94,1.19,2.32,1.19,3.82c0,24-5.52,45.25-16.52,57.75" stroke-dasharray="65.39" stroke-dashoffset="65.39"><animate attributeName="stroke-dashoffset" values="65.39" fill="freeze" begin="616e.click" /><animate id="2" attributeName="stroke-dashoffset" values="65.39;0" dur="0.49s" fill="freeze" begin="1.end" /></path><path d="M28.66,28.74c2.09-0.24,3.1-0.46,4.89-0.72c12.21-1.77,35.8-4.27,46.69-4.43c11.48-0.17,2.43,6.16-0.43,8.28" stroke-dasharray="67.36" stroke-dashoffset="67.36"><animate attributeName="stroke-dashoffset" values="67.36" fill="freeze" begin="616e.click" /><animate id="3" attributeName="stroke-dashoffset" values="67.36;0" dur="0.51s" fill="freeze" begin="2.end" /></path><g><g><path d="M37.08,37.94c2.67,0.56,4.77,0.17,6.8-0.17c6.4-1.08,15.07-2.87,21.87-3.9c2.25-0.34,4.42-0.82,6.65-0.18" stroke-dasharray="35.78" stroke-dashoffset="35.78"><animate attributeName="stroke-dashoffset" values="35.78" fill="freeze" begin="616e.click" /><animate id="4" attributeName="stroke-dashoffset" values="35.78;0" dur="0.36s" fill="freeze" begin="3.end" /></path></g><path d="M51.55,28.43c0.64,0.64,0.93,1.32,0.93,2.5c0,1.94-0.07,6.44-0.07,8.01c0,3.33,0.89,4.81,7.97,4.81c2.14,0,7.34-0.5,9.18-1.13" stroke-dasharray="30.92" stroke-dashoffset="30.92"><animate attributeName="stroke-dashoffset" values="30.92" fill="freeze" begin="616e.click" /><animate id="5" attributeName="stroke-dashoffset" values="30.92;0" dur="0.31s" fill="freeze" begin="4.end" /></path></g></g><g><g><path d="M36.86,52.08c0.78,0.78,1.14,1.67,1.43,3.03c1.05,4.85,1.73,9.06,2.38,13.9c0.18,1.31,0.34,2.55,0.49,3.62" stroke-dasharray="21.16" stroke-dashoffset="21.16"><animate attributeName="stroke-dashoffset" values="21.16" fill="freeze" begin="616e.click" /><animate id="6" attributeName="stroke-dashoffset" values="21.16;0" dur="0.21s" fill="freeze" begin="5.end" /></path><path d="M38.28,52.8c11.5-0.74,27.47-2.54,35.97-3c4.26-0.23,6.03,0.72,5.17,5.22c-0.62,3.3-2.16,8.02-3.14,11.41c-0.42,1.45-0.84,2.86-1.24,4.18" stroke-dasharray="61.62" stroke-dashoffset="61.62"><animate attributeName="stroke-dashoffset" values="61.62" fill="freeze" begin="616e.click" /><animate id="7" attributeName="stroke-dashoffset" values="61.62;0" dur="0.46s" fill="freeze" begin="6.end" /></path><path d="M56.19,52.87c0.78,0.78,0.94,1.85,0.94,3.38c-0.02,4.84,0.06,11.37,0.06,12.51" stroke-dasharray="16.12" stroke-dashoffset="16.12"><animate attributeName="stroke-dashoffset" values="16.12" fill="freeze" begin="616e.click" /><animate id="8" attributeName="stroke-dashoffset" values="16.12;0" dur="0.16s" fill="freeze" begin="7.end" /></path><path d="M40.74,61.36c6.38-0.61,30.13-2.48,36.37-2.66" stroke-dasharray="36.47" stroke-dashoffset="36.47"><animate attributeName="stroke-dashoffset" values="36.47" fill="freeze" begin="616e.click" /><animate id="9" attributeName="stroke-dashoffset" values="36.47;0" dur="0.36s" fill="freeze" begin="8.end" /></path><path d="M42.08,71.1c8.26-0.83,24.55-2.08,32.06-2.32" stroke-dasharray="32.15" stroke-dashoffset="32.15"><animate attributeName="stroke-dashoffset" values="32.15" fill="freeze" begin="616e.click" /><animate id="10" attributeName="stroke-dashoffset" values="32.15;0" dur="0.32s" fill="freeze" begin="9.end" /></path></g><g><path d="M32.25,81.61c-0.5,3.52-3.71,9.51-6.67,12.44" stroke-dasharray="14.29" stroke-dashoffset="14.29"><animate attributeName="stroke-dashoffset" values="14.29" fill="freeze" begin="616e.click" /><animate id="11" attributeName="stroke-dashoffset" values="14.29;0" dur="0.14s" fill="freeze" begin="10.end" /></path><path d="M44.65,81.63c4.97,8.25,18.3,15.61,38.13,14.09c8.98-0.69,9.09-2.47,1.46-6.13" stroke-dasharray="57.24" stroke-dashoffset="57.24"><animate attributeName="stroke-dashoffset" values="57.24" fill="freeze" begin="616e.click" /><animate id="12" attributeName="stroke-dashoffset" values="57.24;0" dur="0.57s" fill="freeze" begin="11.end" /></path><path d="M57.03,77.05c2.84,4.32,5.34,5.72,6.38,2.35" stroke-dasharray="9.21" stroke-dashoffset="9.21"><animate attributeName="stroke-dashoffset" values="9.21" fill="freeze" begin="616e.click" /><animate id="13" attributeName="stroke-dashoffset" values="9.21;0" dur="0.09s" fill="freeze" begin="12.end" /></path><path d="M81.97,73.58C85.25,75.5,90.25,79.88,93,83.9" stroke-dasharray="15.2" stroke-dashoffset="15.2"><animate attributeName="stroke-dashoffset" values="15.2" fill="freeze" begin="616e.click" /><animate id="14" attributeName="stroke-dashoffset" values="15.2;0" dur="0.15s" fill="freeze" begin="13.end" /></path></g></g></g></g></svg>