<svg xmlns="http://www.w3.org/2000/svg" width="109" height="109" viewBox="0 0 109 109" id="6170"><g fill="none" stroke="#666" stroke-width="9" stroke-linecap="round" stroke-linejoin="round"><g><g p4:phon="尉" xmlns:p4="http://kanjivg.tagaini.net"><g><g><path d="M20.85,14.8c1.05,0.46,3.1,0.86,4.21,0.77c5.17-0.44,17.32-1.83,22.2-2.34c2.72-0.28,4.81,0.55,4.21,3.79c-0.41,2.23-1.35,4.98-2.31,8.19" /><path d="M24.58,29.04c3.37-0.17,15.21-1.78,21.93-2.39c1.67-0.15,2.95-0.26,3.58-0.29" /><path d="M22.8,15.94c0.63,0.63,1.03,1.97,0.99,3.06c-0.92,23.75-3.3,35-12.55,45.38" /></g><g><g><path d="M28.37,38.44c1.08,0.38,2.91,0.31,4.02,0.18c3.85-0.46,11.66-1.54,15.62-2.09c1.22-0.17,2.69-0.12,3.89,0.13" /><path d="M26.82,48.73c1.64,0.5,3.41,0.2,5.06,0c6.33-0.77,14.05-1.88,18.76-2.27c1.39-0.12,2.69-0.11,4.07,0.14" /></g><g><path d="M40.08,49.79c0.69,0.69,1.19,1.58,1.19,3.22c0,3.73-0.02,12.31-0.02,15.23c0,6.2-2.98,2.15-5.86,0.07" /><path d="M29.62,55.47c0.1,0.82-0.04,1.59-0.43,2.31c-1.41,3-5.56,7.35-11.26,11.24" /><path d="M48.72,56.06c2.31,1.69,6.1,6.74,6.68,9.37" /></g></g></g><g><path d="M58.88,32.25c2.62,0.5,4.71,0.23,6.62,0c7.76-0.94,15.2-2.25,23.76-2.84c1.68-0.12,3.22-0.17,4.87,0.26" /><path d="M79.98,12.53c0.81,0.81,1.35,2.34,1.35,4.16s0.04,43.22,0.04,46.82c0,8.74-6.23,1.29-8.05,0.18" /><path d="M63.06,42.75c2.14,1.71,5.53,7.03,6.07,9.69" /></g></g><g><path d="M24.5,79.12c0.33,2.12-3.3,11.51-5.93,15.05" /><path d="M37.47,78.2C46.75,92,57.7,97.74,80.23,96.86c9.27-0.36,8.52-2.36,2-7.38" /><path d="M56.08,75.6c3.3,4.9,5.86,6.69,6.79,3.23" /><path d="M82.66,75.06c3.84,2.44,7.84,5.57,11.02,10.21" /></g></g></g><g fill="none" stroke="#000" stroke-width="5" stroke-linecap="round" stroke-linejoin="round"><g><g p4:phon="尉" xmlns:p4="http://kanjivg.tagaini.net"><g><g><path d="M20.85,14.8c1.05,0.46,3.1,0.86,4.21,0.77c5.17-0.44,17.32-1.83,22.2-2.34c2.72-0.28,4.81,0.55,4.21,3.79c-0.41,2.23-1.35,4.98-2.31,8.19" stroke-dasharray="42.14" stroke-dashoffset="42.14"><animate id="0" attributeName="stroke-dashoffset" values="42.14;0" dur="0.42s" fill="freeze" begin="0s;6170.click" /></path><path d="M24.58,29.04c3.37-0.17,15.21-1.78,21.93-2.39c1.67-0.15,2.95-0.26,3.58-0.29" stroke-dasharray="25.65" stroke-dashoffset="25.65"><animate attributeName="stroke-dashoffset" values="25.65" fill="freeze" begin="6170.click" /><animate id="1" attributeName="stroke-dashoffset" values="25.65;0" dur="0.26s" fill="freeze" begin="0.end" /></path><path d="M22.8,15.94c0.63,0.63,1.03,1.97,0.99,3.06c-0.92,23.75-3.3,35-12.55,45.38" stroke-dasharray="51.45" stroke-dashoffset="51.45"><animate attributeName="stroke-dashoffset" values="51.45" fill="freeze" begin="6170.click" /><animate id="2" attributeName="stroke-dashoffset" values="51.45;0" dur="0.51s" fill="freeze" begin="1.end" /></path></g><g><g><path d="M28.37,38.44c1.08,0.38,2.91,0.31,4.02,0.18c3.85-0.46,11.66-1.54,15.62-2.09c1.22-0.17,2.69-0.12,3.89,0.13" stroke-dasharray="23.72" stroke-dashoffset="23.72"><animate attributeName="stroke-dashoffset" values="23.72" fill="freeze" begin="6170.click" /><animate id="3" attributeName="stroke-dashoffset" values="23.72;0" dur="0.24s" fill="freeze" begin="2.end" /></path><path d="M26.82,48.73c1.64,0.5,3.41,0.2,5.06,0c6.33-0.77,14.05-1.88,18.76-2.27c1.39-0.12,2.69-0.11,4.07,0.14" stroke-dasharray="28.08" stroke-dashoffset="28.08"><animate attributeName="stroke-dashoffset" values="28.08" fill="freeze" begin="6170.click" /><animate id="4" attributeName="stroke-dashoffset" values="28.08;0" dur="0.28s" fill="freeze" begin="3.end" /></path></g><g><path d="M40.08,49.79c0.69,0.69,1.19,1.58,1.19,3.22c0,3.73-0.02,12.31-0.02,15.23c0,6.2-2.98,2.15-5.86,0.07" stroke-dasharray="28.32" stroke-dashoffset="28.32"><animate attributeName="stroke-dashoffset" values="28.32" fill="freeze" begin="6170.click" /><animate id="5" attributeName="stroke-dashoffset" values="28.32;0" dur="0.28s" fill="freeze" begin="4.end" /></path><path d="M29.62,55.47c0.1,0.82-0.04,1.59-0.43,2.31c-1.41,3-5.56,7.35-11.26,11.24" stroke-dasharray="18.45" stroke-dashoffset="18.45"><animate attributeName="stroke-dashoffset" values="18.45" fill="freeze" begin="6170.click" /><animate id="6" attributeName="stroke-dashoffset" values="18.45;0" dur="0.18s" fill="freeze" begin="5.end" /></path><path d="M48.72,56.06c2.31,1.69,6.1,6.74,6.68,9.37" stroke-dasharray="11.65" stroke-dashoffset="11.65"><animate attributeName="stroke-dashoffset" values="11.65" fill="freeze" begin="6170.click" /><animate id="7" attributeName="stroke-dashoffset" values="11.65;0" dur="0.12s" fill="freeze" begin="6.end" /></path></g></g></g><g><path d="M58.88,32.25c2.62,0.5,4.71,0.23,6.62,0c7.76-0.94,15.2-2.25,23.76-2.84c1.68-0.12,3.22-0.17,4.87,0.26" stroke-dasharray="35.49" stroke-dashoffset="35.49"><animate attributeName="stroke-dashoffset" values="35.49" fill="freeze" begin="6170.click" /><animate id="8" attributeName="stroke-dashoffset" values="35.49;0" dur="0.35s" fill="freeze" begin="7.end" /></path><path d="M79.98,12.53c0.81,0.81,1.35,2.34,1.35,4.16s0.04,43.22,0.04,46.82c0,8.74-6.23,1.29-8.05,0.18" stroke-dasharray="63.83" stroke-dashoffset="63.83"><animate attributeName="stroke-dashoffset" values="63.83" fill="freeze" begin="6170.click" /><animate id="9" attributeName="stroke-dashoffset" values="63.83;0" dur="0.48s" fill="freeze" begin="8.end" /></path><path d="M63.06,42.75c2.14,1.71,5.53,7.03,6.07,9.69" stroke-dasharray="11.57" stroke-dashoffset="11.57"><animate attributeName="stroke-dashoffset" values="11.57" fill="freeze" begin="6170.click" /><animate id="10" attributeName="stroke-dashoffset" values="11.57;0" dur="0.12s" fill="freeze" begin="9.end" /></path></g></g><g><path d="M24.5,79.12c0.33,2.12-3.3,11.51-5.93,15.05" stroke-dasharray="16.33" stroke-dashoffset="16.33"><animate attributeName="stroke-dashoffset" values="16.33" fill="freeze" begin="6170.click" /><animate id="11" attributeName="stroke-dashoffset" values="16.33;0" dur="0.16s" fill="freeze" begin="10.end" /></path><path d="M37.47,78.2C46.75,92,57.7,97.74,80.23,96.86c9.27-0.36,8.52-2.36,2-7.38" stroke-dasharray="64.36" stroke-dashoffset="64.36"><animate attributeName="stroke-dashoffset" values="64.36" fill="freeze" begin="6170.click" /><animate id="12" attributeName="stroke-dashoffset" values="64.36;0" dur="0.48s" fill="freeze" begin="11.end" /></path><path d="M56.08,75.6c3.3,4.9,5.86,6.69,6.79,3.23" stroke-dasharray="10" stroke-dashoffset="10"><animate attributeName="stroke-dashoffset" values="10" fill="freeze" begin="6170.click" /><animate id="13" attributeName="stroke-dashoffset" values="10;0" dur="0.1s" fill="freeze" begin="12.end" /></path><path d="M82.66,75.06c3.84,2.44,7.84,5.57,11.02,10.21" stroke-dasharray="15.13" stroke-dashoffset="15.13"><animate attributeName="stroke-dashoffset" values="15.13" fill="freeze" begin="6170.click" /><animate id="14" attributeName="stroke-dashoffset" values="15.13;0" dur="0.15s" fill="freeze" begin="13.end" /></path></g></g></g></svg>