<svg xmlns="http://www.w3.org/2000/svg" width="109" height="109" viewBox="0 0 109 109" id="6175"><g fill="none" stroke="#666" stroke-width="9" stroke-linecap="round" stroke-linejoin="round"><g><g><path d="M16.72,34.5c0.03,4.31-2.47,14.14-4.69,17.5" /><path d="M31.77,30.33c2.04,2.05,5.28,8.44,5.79,11.63" /><path d="M23.37,11.75c1.09,0.5,1.74,2.25,1.96,3.25c0.22,1,0,76.25-0.22,82.5" /></g><g><g><path d="M67.4,10.13c0.58,0.37,1.82,2.75,1.94,3.49c0.12,0.74,0.06,5.45-0.06,10.04" /><g><path d="M44.08,25.03c1.17,0.52,3.32,0.6,4.49,0.52c12.19-0.87,26.54-2.79,41.83-3c1.95-0.03,3.12,0.25,4.1,0.51" /><path d="M46.33,25.68c0.04,1.54-0.07,3.98-0.07,6.21c0,14.61-1,43.11-12.45,58.92" /></g></g><g><path d="M53.72,34.32c1.51,0.19,2.23,0.94,3.62,0.87c9.41-0.45,20.12-2.88,26.76-2.88c1.96,0,3.32,0.93,3.02,2.8C86.33,40,86.26,40.9,85.21,49.3" /><path d="M49.1,43.51c1.36,0.19,2.42,0.54,3.92,0.37c13.12-1.49,30.88-3.09,41.29-3.65c1.66-0.09,3.02,0.37,3.77,0.56" /><path d="M52.9,51.74c0.81,0.09,2.28,0.33,3.25,0.28c8.93-0.46,20.01-1.86,28.64-2.55c1.29-0.1,2.11,0,3.08,0.09" /></g><g><path d="M51.97,58.76c0.48,0.75,0.79,1.49,0.95,2.23c0.16,0.74,0.16,32.55,0.16,34.22" /><path d="M53.37,60.67c7.88-0.67,31.65-2.81,33.06-3.01c2.53-0.37,3.48,2.42,3.17,3.53c-0.3,1.07-0.47,14.1-0.47,29.16c0,10.74-4.66,1.6-5.67,0.96" /><path d="M53.87,70.24c7.06-0.65,28.92-2.81,34.62-3.37" /><path d="M53.52,80.08c5.07-0.56,29.55-2.77,35.41-3.14" /><path d="M68.99,27.56c0.84,0.48,1.51,2.14,1.51,3.11c0,8.34-0.17,54.84-0.17,64.85" /></g></g></g></g><g fill="none" stroke="#000" stroke-width="5" stroke-linecap="round" stroke-linejoin="round"><g><g><path d="M16.72,34.5c0.03,4.31-2.47,14.14-4.69,17.5" stroke-dasharray="18.261" stroke-dashoffset="18.261"><animate attributeName="stroke-dashoffset" values="18.261;18.261;0" dur="0.183s" fill="freeze" begin="0s;6175.click" /></path><path d="M31.77,30.33c2.04,2.05,5.28,8.44,5.79,11.63" stroke-dasharray="13.111" stroke-dashoffset="13.111"><animate attributeName="stroke-dashoffset" values="13.111" fill="freeze" begin="6175.click" /><animate attributeName="stroke-dashoffset" values="13.111;13.111;0" keyTimes="0;0.583;1" dur="0.314s" fill="freeze" begin="0s;6175.click" /></path><path d="M23.37,11.75c1.09,0.5,1.74,2.25,1.96,3.25c0.22,1,0,76.25-0.22,82.5" stroke-dasharray="86.412" stroke-dashoffset="86.412"><animate attributeName="stroke-dashoffset" values="86.412" fill="freeze" begin="6175.click" /><animate attributeName="stroke-dashoffset" values="86.412;86.412;0" keyTimes="0;0.326;1" dur="0.964s" fill="freeze" begin="0s;6175.click" /></path></g><g><g><path d="M67.4,10.13c0.58,0.37,1.82,2.75,1.94,3.49c0.12,0.74,0.06,5.45-0.06,10.04" stroke-dasharray="14.08" stroke-dashoffset="14.08"><animate attributeName="stroke-dashoffset" values="14.08" fill="freeze" begin="6175.click" /><animate attributeName="stroke-dashoffset" values="14.08;14.08;0" keyTimes="0;0.872;1" dur="1.105s" fill="freeze" begin="0s;6175.click" /></path><g><path d="M44.08,25.03c1.17,0.52,3.32,0.6,4.49,0.52c12.19-0.87,26.54-2.79,41.83-3c1.95-0.03,3.12,0.25,4.1,0.51" stroke-dasharray="50.65" stroke-dashoffset="50.65"><animate attributeName="stroke-dashoffset" values="50.65" fill="freeze" begin="6175.click" /><animate attributeName="stroke-dashoffset" values="50.65;50.65;0" keyTimes="0;0.685;1" dur="1.612s" fill="freeze" begin="0s;6175.click" /></path><path d="M46.33,25.68c0.04,1.54-0.07,3.98-0.07,6.21c0,14.61-1,43.11-12.45,58.92" stroke-dasharray="67.304" stroke-dashoffset="67.304"><animate attributeName="stroke-dashoffset" values="67.304" fill="freeze" begin="6175.click" /><animate attributeName="stroke-dashoffset" values="67.304;67.304;0" keyTimes="0;0.761;1" dur="2.118s" fill="freeze" begin="0s;6175.click" /></path></g></g><g><path d="M53.72,34.32c1.51,0.19,2.23,0.94,3.62,0.87c9.41-0.45,20.12-2.88,26.76-2.88c1.96,0,3.32,0.93,3.02,2.8C86.33,40,86.26,40.9,85.21,49.3" stroke-dasharray="49.816" stroke-dashoffset="49.816"><animate attributeName="stroke-dashoffset" values="49.816" fill="freeze" begin="6175.click" /><animate attributeName="stroke-dashoffset" values="49.816;49.816;0" keyTimes="0;0.81;1" dur="2.616s" fill="freeze" begin="0s;6175.click" /></path><path d="M49.1,43.51c1.36,0.19,2.42,0.54,3.92,0.37c13.12-1.49,30.88-3.09,41.29-3.65c1.66-0.09,3.02,0.37,3.77,0.56" stroke-dasharray="49.24" stroke-dashoffset="49.24"><animate attributeName="stroke-dashoffset" values="49.24" fill="freeze" begin="6175.click" /><animate attributeName="stroke-dashoffset" values="49.24;49.24;0" keyTimes="0;0.842;1" dur="3.108s" fill="freeze" begin="0s;6175.click" /></path><path d="M52.9,51.74c0.81,0.09,2.28,0.33,3.25,0.28c8.93-0.46,20.01-1.86,28.64-2.55c1.29-0.1,2.11,0,3.08,0.09" stroke-dasharray="35.109" stroke-dashoffset="35.109"><animate attributeName="stroke-dashoffset" values="35.109" fill="freeze" begin="6175.click" /><animate attributeName="stroke-dashoffset" values="35.109;35.109;0" keyTimes="0;0.899;1" dur="3.459s" fill="freeze" begin="0s;6175.click" /></path></g><g><path d="M51.97,58.76c0.48,0.75,0.79,1.49,0.95,2.23c0.16,0.74,0.16,32.55,0.16,34.22" stroke-dasharray="36.66" stroke-dashoffset="36.66"><animate attributeName="stroke-dashoffset" values="36.66" fill="freeze" begin="6175.click" /><animate attributeName="stroke-dashoffset" values="36.66;36.66;0" keyTimes="0;0.904;1" dur="3.826s" fill="freeze" begin="0s;6175.click" /></path><path d="M53.37,60.67c7.88-0.67,31.65-2.81,33.06-3.01c2.53-0.37,3.48,2.42,3.17,3.53c-0.3,1.07-0.47,14.1-0.47,29.16c0,10.74-4.66,1.6-5.67,0.96" stroke-dasharray="79.742" stroke-dashoffset="79.742"><animate attributeName="stroke-dashoffset" values="79.742" fill="freeze" begin="6175.click" /><animate attributeName="stroke-dashoffset" values="79.742;79.742;0" keyTimes="0;0.864;1" dur="4.426s" fill="freeze" begin="0s;6175.click" /></path><path d="M53.87,70.24c7.06-0.65,28.92-2.81,34.62-3.37" stroke-dasharray="34.785" stroke-dashoffset="34.785"><animate attributeName="stroke-dashoffset" values="34.785" fill="freeze" begin="6175.click" /><animate attributeName="stroke-dashoffset" values="34.785;34.785;0" keyTimes="0;0.927;1" dur="4.774s" fill="freeze" begin="0s;6175.click" /></path><path d="M53.52,80.08c5.07-0.56,29.55-2.77,35.41-3.14" stroke-dasharray="35.551" stroke-dashoffset="35.551"><animate attributeName="stroke-dashoffset" values="35.551" fill="freeze" begin="6175.click" /><animate attributeName="stroke-dashoffset" values="35.551;35.551;0" keyTimes="0;0.931;1" dur="5.13s" fill="freeze" begin="0s;6175.click" /></path><path d="M68.99,27.56c0.84,0.48,1.51,2.14,1.51,3.11c0,8.34-0.17,54.84-0.17,64.85" stroke-dasharray="68.422" stroke-dashoffset="68.422"><animate attributeName="stroke-dashoffset" values="68.422" fill="freeze" begin="6175.click" /><animate attributeName="stroke-dashoffset" values="68.422;68.422;0" keyTimes="0;0.909;1" dur="5.644s" fill="freeze" begin="0s;6175.click" /></path></g></g></g></g></svg>