<svg xmlns="http://www.w3.org/2000/svg" width="109" height="109" viewBox="0 0 109 109" id="6182"><g fill="none" stroke="#666" stroke-width="6" stroke-linecap="round" stroke-linejoin="round"><g><g><g><g><path d="M27.87,13.78c2.11,0.82,5.69,0.71,7.88,0.48c10.95-1.17,25.01-2.38,39.01-3.53c2.78-0.23,5.25-0.6,7.89-0.29" /></g><g><g><path d="M53.55,15.67c0.21,0.37,0.24,0.83,0.19,1.16c-0.2,1.36-1.5,4.05-3.05,6.42" /></g><g><path d="M40.01,25.08c0.77,0.77,1.01,1.79,1.01,3.41c0,8.26-0.02,14.01-0.02,21.26" /><path d="M42.07,26.42c4.26-0.58,18.96-2.53,24.57-3.15c2.74-0.3,4.29,0.09,4.29,3.1c-0.01,5.03-0.05,14.46-0.05,19.96" /><path d="M42.5,34.21c6.75-0.46,22.74-2.61,27.09-2.61" /><path d="M41.82,42.01c8.18-0.76,18.43-1.76,27.8-2.37" /></g></g></g><g><path d="M21.08,50.69c0,3.29-2.81,12.35-4.08,14.55" /><path d="M22.02,53.24C40.5,50.88,59,48.88,86.14,46.59c11.13-0.94,2.36,5.78-0.42,7.79" /></g></g><g><g><path d="M32.28,60.17c0.28,1.61-2.77,8.74-4.99,11.43" /><path d="M41.91,57.89C50.25,66.75,57.75,68.25,71,68.25c7,0,7.75-1.5,0.25-6" /><path d="M54.82,55.25c2.61,5.36,4.71,5.13,5.42,1.86" /><path d="M72.41,52.56c2.63,1.2,4.6,2.29,6.74,5.99" /></g><g><path d="M48.82,69.25c0.15,1.19-0.45,2.11-1.27,3.02C43.75,76.5,35.75,84.75,23.5,91.25" /><path d="M47.3,76.76c0.3,0.02,1.55,0,2.4-0.07c2.55-0.19,8.78-1.72,12.92-2.47c3.55-0.64,4.86,0.6,2.57,3.57c-5.39,7-20.4,18.35-36.68,22.7" /><path d="M42.25,80.25c5.05,2.6,24.7,11.4,35.15,15.44c3.1,1.2,6.13,1.79,9.35,2.56" /></g></g></g></g><g fill="none" stroke="#000" stroke-width="3" stroke-linecap="round" stroke-linejoin="round"><path d="M27.87,13.78c2.11,0.82,5.69,0.71,7.88,0.48c10.95-1.17,25.01-2.38,39.01-3.53c2.78-0.23,5.25-0.6,7.89-0.29" stroke-dasharray="55.037" stroke-dashoffset="55.037"><animate attributeName="stroke-dashoffset" values="55.037;55.037;0" dur="0.55s" fill="freeze" begin="0s;6182.click" /></path><path d="M53.55,15.67c0.21,0.37,0.24,0.83,0.19,1.16c-0.2,1.36-1.5,4.05-3.05,6.42" stroke-dasharray="8.342" stroke-dashoffset="8.342"><animate attributeName="stroke-dashoffset" values="8.342" fill="freeze" begin="6182.click" /><animate attributeName="stroke-dashoffset" values="8.342;8.342;0" keyTimes="0;0.869;1" dur="0.633s" fill="freeze" begin="0s;6182.click" /></path><path d="M40.01,25.08c0.77,0.77,1.01,1.79,1.01,3.41c0,8.26-0.02,14.01-0.02,21.26" stroke-dasharray="24.918" stroke-dashoffset="24.918"><animate attributeName="stroke-dashoffset" values="24.918" fill="freeze" begin="6182.click" /><animate attributeName="stroke-dashoffset" values="24.918;24.918;0" keyTimes="0;0.718;1" dur="0.882s" fill="freeze" begin="0s;6182.click" /></path><path d="M42.07,26.42c4.26-0.58,18.96-2.53,24.57-3.15c2.74-0.3,4.29,0.09,4.29,3.1c-0.01,5.03-0.05,14.46-0.05,19.96" stroke-dasharray="51.123" stroke-dashoffset="51.123"><animate attributeName="stroke-dashoffset" values="51.123" fill="freeze" begin="6182.click" /><animate attributeName="stroke-dashoffset" values="51.123;51.123;0" keyTimes="0;0.633;1" dur="1.393s" fill="freeze" begin="0s;6182.click" /></path><path d="M42.5,34.21c6.75-0.46,22.74-2.61,27.09-2.61" stroke-dasharray="27.222" stroke-dashoffset="27.222"><animate attributeName="stroke-dashoffset" values="27.222" fill="freeze" begin="6182.click" /><animate attributeName="stroke-dashoffset" values="27.222;27.222;0" keyTimes="0;0.837;1" dur="1.665s" fill="freeze" begin="0s;6182.click" /></path><path d="M41.82,42.01c8.18-0.76,18.43-1.76,27.8-2.37" stroke-dasharray="27.903" stroke-dashoffset="27.903"><animate attributeName="stroke-dashoffset" values="27.903" fill="freeze" begin="6182.click" /><animate attributeName="stroke-dashoffset" values="27.903;27.903;0" keyTimes="0;0.856;1" dur="1.944s" fill="freeze" begin="0s;6182.click" /></path><path d="M21.08,50.69c0,3.29-2.81,12.35-4.08,14.55" stroke-dasharray="15.185" stroke-dashoffset="15.185"><animate attributeName="stroke-dashoffset" values="15.185" fill="freeze" begin="6182.click" /><animate attributeName="stroke-dashoffset" values="15.185;15.185;0" keyTimes="0;0.927;1" dur="2.096s" fill="freeze" begin="0s;6182.click" /></path><path d="M22.02,53.24C40.5,50.88,59,48.88,86.14,46.59c11.13-0.94,2.36,5.78-0.42,7.79" stroke-dasharray="79.528" stroke-dashoffset="79.528"><animate attributeName="stroke-dashoffset" values="79.528" fill="freeze" begin="6182.click" /><animate attributeName="stroke-dashoffset" values="79.528;79.528;0" keyTimes="0;0.778;1" dur="2.694s" fill="freeze" begin="0s;6182.click" /></path><path d="M32.28,60.17c0.28,1.61-2.77,8.74-4.99,11.43" stroke-dasharray="12.61" stroke-dashoffset="12.61"><animate attributeName="stroke-dashoffset" values="12.61" fill="freeze" begin="6182.click" /><animate attributeName="stroke-dashoffset" values="12.61;12.61;0" keyTimes="0;0.955;1" dur="2.82s" fill="freeze" begin="0s;6182.click" /></path><path d="M41.91,57.89C50.25,66.75,57.75,68.25,71,68.25c7,0,7.75-1.5,0.25-6" stroke-dasharray="45.294" stroke-dashoffset="45.294"><animate attributeName="stroke-dashoffset" values="45.294" fill="freeze" begin="6182.click" /><animate attributeName="stroke-dashoffset" values="45.294;45.294;0" keyTimes="0;0.862;1" dur="3.273s" fill="freeze" begin="0s;6182.click" /></path><path d="M54.82,55.25c2.61,5.36,4.71,5.13,5.42,1.86" stroke-dasharray="8.924" stroke-dashoffset="8.924"><animate attributeName="stroke-dashoffset" values="8.924" fill="freeze" begin="6182.click" /><animate attributeName="stroke-dashoffset" values="8.924;8.924;0" keyTimes="0;0.974;1" dur="3.362s" fill="freeze" begin="0s;6182.click" /></path><path d="M72.41,52.56c2.63,1.2,4.6,2.29,6.74,5.99" stroke-dasharray="9.209" stroke-dashoffset="9.209"><animate attributeName="stroke-dashoffset" values="9.209" fill="freeze" begin="6182.click" /><animate attributeName="stroke-dashoffset" values="9.209;9.209;0" keyTimes="0;0.973;1" dur="3.454s" fill="freeze" begin="0s;6182.click" /></path><path d="M48.82,69.25c0.15,1.19-0.45,2.11-1.27,3.02C43.75,76.5,35.75,84.75,23.5,91.25" stroke-dasharray="34.188" stroke-dashoffset="34.188"><animate attributeName="stroke-dashoffset" values="34.188" fill="freeze" begin="6182.click" /><animate attributeName="stroke-dashoffset" values="34.188;34.188;0" keyTimes="0;0.91;1" dur="3.796s" fill="freeze" begin="0s;6182.click" /></path><path d="M47.3,76.76c0.3,0.02,1.55,0,2.4-0.07c2.55-0.19,8.78-1.72,12.92-2.47c3.55-0.64,4.86,0.6,2.57,3.57c-5.39,7-20.4,18.35-36.68,22.7" stroke-dasharray="66.427" stroke-dashoffset="66.427"><animate attributeName="stroke-dashoffset" values="66.427" fill="freeze" begin="6182.click" /><animate attributeName="stroke-dashoffset" values="66.427;66.427;0" keyTimes="0;0.884;1" dur="4.295s" fill="freeze" begin="0s;6182.click" /></path><path d="M42.25,80.25c5.05,2.6,24.7,11.4,35.15,15.44c3.1,1.2,6.13,1.79,9.35,2.56" stroke-dasharray="48.104" stroke-dashoffset="48.104"><animate attributeName="stroke-dashoffset" values="48.104" fill="freeze" begin="6182.click" /><animate attributeName="stroke-dashoffset" values="48.104;48.104;0" keyTimes="0;0.899;1" dur="4.776s" fill="freeze" begin="0s;6182.click" /></path></g></svg>