<svg xmlns="http://www.w3.org/2000/svg" width="109" height="109" viewBox="0 0 109 109" id="61a7"><g fill="none" stroke="#666" stroke-width="6" stroke-linecap="round" stroke-linejoin="round"><g><g><path d="M16.25,39.75c0,6.61-2.97,16.36-3.75,18.25" /><path d="M29.27,35.08c2.49,1.66,6.42,6.81,7.04,9.38" /><path d="M24.37,15.25c1.19,1.19,1.46,2.75,1.46,4.5c0,0.83,0.02,44.91,0.03,66.38c0,4.89,0,8.61,0,10.38" /></g><g><g><g><path d="M65.36,12.75c0.95,0.95,1.18,2.16,1.18,3.68c0,1.53,0,3.44,0,6.3" /><path d="M45.36,25.35c2.35,0.74,5.14,0.21,7.53,0c7.55-0.65,20.88-2.02,28.99-2.5c2.33-0.14,4.62-0.28,6.92,0.16" /></g><g><path d="M54.75,28.62c2.21,2.84,3.22,5.34,3.42,7.22" /><path d="M77.93,26.17c0.2,0.96,0.07,1.83-0.21,2.55c-0.72,1.85-3.13,5.43-4.22,6.91" /><path d="M41.47,39.51c2.35,0.7,5.48,0.46,7.91,0.18c12.11-1.39,26.02-2.2,37.99-2.75c2.96-0.14,5.51-0.14,8.4,0.38" /></g></g><g><path d="M47.17,48.16C48,49,48.37,49.9,48.57,50.83c1.18,5.67,2.69,13.9,3.36,19.83" /><path d="M48.95,48.9c10.68-1.4,24.18-2.77,32.96-3.2c2.68-0.13,4.49,1.83,4.08,4.33c-0.67,4.11-2.33,11.78-4,18.78" /><path d="M51.24,58.51c3.13-0.36,27.26-2.38,32.67-2.39" /><path d="M53.01,69.01c7.24-0.76,17.86-1.76,28.23-2.19" /><path d="M65.54,49.15c0.96,0.96,1.29,1.83,1.29,3.19c0,5.91-0.09,33.54-0.09,38.28" /><path d="M48.34,79.54c1.57,0.73,4.63,0.59,6.29,0.38c8.5-1.05,18.54-1.61,27-1.88c2.21-0.07,4.07-0.08,6.19,0.51" /><path d="M40.53,92.53c2.35,0.95,5.63,0.97,8.1,0.69c12.39-1.43,27.37-2.45,39.74-2.58c2.73-0.03,5.16,0.02,7.81,0.67" /></g></g></g></g><g fill="none" stroke="#000" stroke-width="3" stroke-linecap="round" stroke-linejoin="round"><path d="M16.25,39.75c0,6.61-2.97,16.36-3.75,18.25" stroke-dasharray="18.706" stroke-dashoffset="18.706"><animate attributeName="stroke-dashoffset" values="18.706;18.706;0" dur="0.187s" fill="freeze" begin="0s;61a7.click" /></path><path d="M29.27,35.08c2.49,1.66,6.42,6.81,7.04,9.38" stroke-dasharray="11.884" stroke-dashoffset="11.884"><animate attributeName="stroke-dashoffset" values="11.884" fill="freeze" begin="61a7.click" /><animate attributeName="stroke-dashoffset" values="11.884;11.884;0" keyTimes="0;0.611;1" dur="0.306s" fill="freeze" begin="0s;61a7.click" /></path><path d="M24.37,15.25c1.19,1.19,1.46,2.75,1.46,4.5c0,0.83,0.02,44.91,0.03,66.38c0,4.89,0,8.61,0,10.38" stroke-dasharray="81.627" stroke-dashoffset="81.627"><animate attributeName="stroke-dashoffset" values="81.627" fill="freeze" begin="61a7.click" /><animate attributeName="stroke-dashoffset" values="81.627;81.627;0" keyTimes="0;0.333;1" dur="0.92s" fill="freeze" begin="0s;61a7.click" /></path><path d="M65.36,12.75c0.95,0.95,1.18,2.16,1.18,3.68c0,1.53,0,3.44,0,6.3" stroke-dasharray="10.277" stroke-dashoffset="10.277"><animate attributeName="stroke-dashoffset" values="10.277" fill="freeze" begin="61a7.click" /><animate attributeName="stroke-dashoffset" values="10.277;10.277;0" keyTimes="0;0.899;1" dur="1.023s" fill="freeze" begin="0s;61a7.click" /></path><path d="M45.36,25.35c2.35,0.74,5.14,0.21,7.53,0c7.55-0.65,20.88-2.02,28.99-2.5c2.33-0.14,4.62-0.28,6.92,0.16" stroke-dasharray="43.625" stroke-dashoffset="43.625"><animate attributeName="stroke-dashoffset" values="43.625" fill="freeze" begin="61a7.click" /><animate attributeName="stroke-dashoffset" values="43.625;43.625;0" keyTimes="0;0.701;1" dur="1.459s" fill="freeze" begin="0s;61a7.click" /></path><path d="M54.75,28.62c2.21,2.84,3.22,5.34,3.42,7.22" stroke-dasharray="8.086" stroke-dashoffset="8.086"><animate attributeName="stroke-dashoffset" values="8.086" fill="freeze" begin="61a7.click" /><animate attributeName="stroke-dashoffset" values="8.086;8.086;0" keyTimes="0;0.947;1" dur="1.54s" fill="freeze" begin="0s;61a7.click" /></path><path d="M77.93,26.17c0.2,0.96,0.07,1.83-0.21,2.55c-0.72,1.85-3.13,5.43-4.22,6.91" stroke-dasharray="10.707" stroke-dashoffset="10.707"><animate attributeName="stroke-dashoffset" values="10.707" fill="freeze" begin="61a7.click" /><animate attributeName="stroke-dashoffset" values="10.707;10.707;0" keyTimes="0;0.935;1" dur="1.647s" fill="freeze" begin="0s;61a7.click" /></path><path d="M41.47,39.51c2.35,0.7,5.48,0.46,7.91,0.18c12.11-1.39,26.02-2.2,37.99-2.75c2.96-0.14,5.51-0.14,8.4,0.38" stroke-dasharray="54.488" stroke-dashoffset="54.488"><animate attributeName="stroke-dashoffset" values="54.488" fill="freeze" begin="61a7.click" /><animate attributeName="stroke-dashoffset" values="54.488;54.488;0" keyTimes="0;0.751;1" dur="2.192s" fill="freeze" begin="0s;61a7.click" /></path><path d="M47.17,48.16C48,49,48.37,49.9,48.57,50.83c1.18,5.67,2.69,13.9,3.36,19.83" stroke-dasharray="23.179" stroke-dashoffset="23.179"><animate attributeName="stroke-dashoffset" values="23.179" fill="freeze" begin="61a7.click" /><animate attributeName="stroke-dashoffset" values="23.179;23.179;0" keyTimes="0;0.904;1" dur="2.424s" fill="freeze" begin="0s;61a7.click" /></path><path d="M48.95,48.9c10.68-1.4,24.18-2.77,32.96-3.2c2.68-0.13,4.49,1.83,4.08,4.33c-0.67,4.11-2.33,11.78-4,18.78" stroke-dasharray="59.239" stroke-dashoffset="59.239"><animate attributeName="stroke-dashoffset" values="59.239" fill="freeze" begin="61a7.click" /><animate attributeName="stroke-dashoffset" values="59.239;59.239;0" keyTimes="0;0.804;1" dur="3.016s" fill="freeze" begin="0s;61a7.click" /></path><path d="M51.24,58.51c3.13-0.36,27.26-2.38,32.67-2.39" stroke-dasharray="32.763" stroke-dashoffset="32.763"><animate attributeName="stroke-dashoffset" values="32.763" fill="freeze" begin="61a7.click" /><animate attributeName="stroke-dashoffset" values="32.763;32.763;0" keyTimes="0;0.902;1" dur="3.344s" fill="freeze" begin="0s;61a7.click" /></path><path d="M53.01,69.01c7.24-0.76,17.86-1.76,28.23-2.19" stroke-dasharray="28.32" stroke-dashoffset="28.32"><animate attributeName="stroke-dashoffset" values="28.32" fill="freeze" begin="61a7.click" /><animate attributeName="stroke-dashoffset" values="28.32;28.32;0" keyTimes="0;0.922;1" dur="3.627s" fill="freeze" begin="0s;61a7.click" /></path><path d="M65.54,49.15c0.96,0.96,1.29,1.83,1.29,3.19c0,5.91-0.09,33.54-0.09,38.28" stroke-dasharray="41.833" stroke-dashoffset="41.833"><animate attributeName="stroke-dashoffset" values="41.833" fill="freeze" begin="61a7.click" /><animate attributeName="stroke-dashoffset" values="41.833;41.833;0" keyTimes="0;0.897;1" dur="4.045s" fill="freeze" begin="0s;61a7.click" /></path><path d="M48.34,79.54c1.57,0.73,4.63,0.59,6.29,0.38c8.5-1.05,18.54-1.61,27-1.88c2.21-0.07,4.07-0.08,6.19,0.51" stroke-dasharray="39.677" stroke-dashoffset="39.677"><animate attributeName="stroke-dashoffset" values="39.677" fill="freeze" begin="61a7.click" /><animate attributeName="stroke-dashoffset" values="39.677;39.677;0" keyTimes="0;0.911;1" dur="4.442s" fill="freeze" begin="0s;61a7.click" /></path><path d="M40.53,92.53c2.35,0.95,5.63,0.97,8.1,0.69c12.39-1.43,27.37-2.45,39.74-2.58c2.73-0.03,5.16,0.02,7.81,0.67" stroke-dasharray="55.907" stroke-dashoffset="55.907"><animate attributeName="stroke-dashoffset" values="55.907" fill="freeze" begin="61a7.click" /><animate attributeName="stroke-dashoffset" values="55.907;55.907;0" keyTimes="0;0.888;1" dur="5.001s" fill="freeze" begin="0s;61a7.click" /></path></g></svg>