<svg xmlns="http://www.w3.org/2000/svg" width="109" height="109" viewBox="0 0 109 109" id="61a7"><g fill="none" stroke="#666" stroke-width="9" stroke-linecap="round" stroke-linejoin="round"><g><g><path d="M16.25,39.75c0,6.61-2.97,16.36-3.75,18.25" /><path d="M29.27,35.08c2.49,1.66,6.42,6.81,7.04,9.38" /><path d="M24.37,15.25c1.19,1.19,1.46,2.75,1.46,4.5c0,0.83,0.02,44.91,0.03,66.38c0,4.89,0,8.61,0,10.38" /></g><g><g><g><path d="M65.36,12.75c0.95,0.95,1.18,2.16,1.18,3.68c0,1.53,0,3.44,0,6.3" /><path d="M45.36,25.35c2.35,0.74,5.14,0.21,7.53,0c7.55-0.65,20.88-2.02,28.99-2.5c2.33-0.14,4.62-0.28,6.92,0.16" /></g><g><path d="M54.75,28.62c2.21,2.84,3.22,5.34,3.42,7.22" /><path d="M77.93,26.17c0.2,0.96,0.07,1.83-0.21,2.55c-0.72,1.85-3.13,5.43-4.22,6.91" /><path d="M41.47,39.51c2.35,0.7,5.48,0.46,7.91,0.18c12.11-1.39,26.02-2.2,37.99-2.75c2.96-0.14,5.51-0.14,8.4,0.38" /></g></g><g><path d="M47.17,48.16C48,49,48.37,49.9,48.57,50.83c1.18,5.67,2.69,13.9,3.36,19.83" /><path d="M48.95,48.9c10.68-1.4,24.18-2.77,32.96-3.2c2.68-0.13,4.49,1.83,4.08,4.33c-0.67,4.11-2.33,11.78-4,18.78" /><path d="M51.24,58.51c3.13-0.36,27.26-2.38,32.67-2.39" /><path d="M53.01,69.01c7.24-0.76,17.86-1.76,28.23-2.19" /><path d="M65.54,49.15c0.96,0.96,1.29,1.83,1.29,3.19c0,5.91-0.09,33.54-0.09,38.28" /><path d="M48.34,79.54c1.57,0.73,4.63,0.59,6.29,0.38c8.5-1.05,18.54-1.61,27-1.88c2.21-0.07,4.07-0.08,6.19,0.51" /><path d="M40.53,92.53c2.35,0.95,5.63,0.97,8.1,0.69c12.39-1.43,27.37-2.45,39.74-2.58c2.73-0.03,5.16,0.02,7.81,0.67" /></g></g></g></g><g fill="none" stroke="#000" stroke-width="5" stroke-linecap="round" stroke-linejoin="round"><g><g><path d="M16.25,39.75c0,6.61-2.97,16.36-3.75,18.25" stroke-dasharray="18.71" stroke-dashoffset="18.71"><animate id="0" attributeName="stroke-dashoffset" values="18.71;0" dur="0.19s" fill="freeze" begin="0s;61a7.click" /></path><path d="M29.27,35.08c2.49,1.66,6.42,6.81,7.04,9.38" stroke-dasharray="11.88" stroke-dashoffset="11.88"><animate attributeName="stroke-dashoffset" values="11.88" fill="freeze" begin="61a7.click" /><animate id="1" attributeName="stroke-dashoffset" values="11.88;0" dur="0.12s" fill="freeze" begin="0.end" /></path><path d="M24.37,15.25c1.19,1.19,1.46,2.75,1.46,4.5c0,0.83,0.02,44.91,0.03,66.38c0,4.89,0,8.61,0,10.38" stroke-dasharray="81.63" stroke-dashoffset="81.63"><animate attributeName="stroke-dashoffset" values="81.63" fill="freeze" begin="61a7.click" /><animate id="2" attributeName="stroke-dashoffset" values="81.63;0" dur="0.61s" fill="freeze" begin="1.end" /></path></g><g><g><g><path d="M65.36,12.75c0.95,0.95,1.18,2.16,1.18,3.68c0,1.53,0,3.44,0,6.3" stroke-dasharray="10.28" stroke-dashoffset="10.28"><animate attributeName="stroke-dashoffset" values="10.28" fill="freeze" begin="61a7.click" /><animate id="3" attributeName="stroke-dashoffset" values="10.28;0" dur="0.1s" fill="freeze" begin="2.end" /></path><path d="M45.36,25.35c2.35,0.74,5.14,0.21,7.53,0c7.55-0.65,20.88-2.02,28.99-2.5c2.33-0.14,4.62-0.28,6.92,0.16" stroke-dasharray="43.62" stroke-dashoffset="43.62"><animate attributeName="stroke-dashoffset" values="43.62" fill="freeze" begin="61a7.click" /><animate id="4" attributeName="stroke-dashoffset" values="43.62;0" dur="0.44s" fill="freeze" begin="3.end" /></path></g><g><path d="M54.75,28.62c2.21,2.84,3.22,5.34,3.42,7.22" stroke-dasharray="8.08" stroke-dashoffset="8.08"><animate attributeName="stroke-dashoffset" values="8.08" fill="freeze" begin="61a7.click" /><animate id="5" attributeName="stroke-dashoffset" values="8.08;0" dur="0.08s" fill="freeze" begin="4.end" /></path><path d="M77.93,26.17c0.2,0.96,0.07,1.83-0.21,2.55c-0.72,1.85-3.13,5.43-4.22,6.91" stroke-dasharray="10.71" stroke-dashoffset="10.71"><animate attributeName="stroke-dashoffset" values="10.71" fill="freeze" begin="61a7.click" /><animate id="6" attributeName="stroke-dashoffset" values="10.71;0" dur="0.11s" fill="freeze" begin="5.end" /></path><path d="M41.47,39.51c2.35,0.7,5.48,0.46,7.91,0.18c12.11-1.39,26.02-2.2,37.99-2.75c2.96-0.14,5.51-0.14,8.4,0.38" stroke-dasharray="54.49" stroke-dashoffset="54.49"><animate attributeName="stroke-dashoffset" values="54.49" fill="freeze" begin="61a7.click" /><animate id="7" attributeName="stroke-dashoffset" values="54.49;0" dur="0.54s" fill="freeze" begin="6.end" /></path></g></g><g><path d="M47.17,48.16C48,49,48.37,49.9,48.57,50.83c1.18,5.67,2.69,13.9,3.36,19.83" stroke-dasharray="23.18" stroke-dashoffset="23.18"><animate attributeName="stroke-dashoffset" values="23.18" fill="freeze" begin="61a7.click" /><animate id="8" attributeName="stroke-dashoffset" values="23.18;0" dur="0.23s" fill="freeze" begin="7.end" /></path><path d="M48.95,48.9c10.68-1.4,24.18-2.77,32.96-3.2c2.68-0.13,4.49,1.83,4.08,4.33c-0.67,4.11-2.33,11.78-4,18.78" stroke-dasharray="59.24" stroke-dashoffset="59.24"><animate attributeName="stroke-dashoffset" values="59.24" fill="freeze" begin="61a7.click" /><animate id="9" attributeName="stroke-dashoffset" values="59.24;0" dur="0.59s" fill="freeze" begin="8.end" /></path><path d="M51.24,58.51c3.13-0.36,27.26-2.38,32.67-2.39" stroke-dasharray="32.76" stroke-dashoffset="32.76"><animate attributeName="stroke-dashoffset" values="32.76" fill="freeze" begin="61a7.click" /><animate id="10" attributeName="stroke-dashoffset" values="32.76;0" dur="0.33s" fill="freeze" begin="9.end" /></path><path d="M53.01,69.01c7.24-0.76,17.86-1.76,28.23-2.19" stroke-dasharray="28.32" stroke-dashoffset="28.32"><animate attributeName="stroke-dashoffset" values="28.32" fill="freeze" begin="61a7.click" /><animate id="11" attributeName="stroke-dashoffset" values="28.32;0" dur="0.28s" fill="freeze" begin="10.end" /></path><path d="M65.54,49.15c0.96,0.96,1.29,1.83,1.29,3.19c0,5.91-0.09,33.54-0.09,38.28" stroke-dasharray="41.83" stroke-dashoffset="41.83"><animate attributeName="stroke-dashoffset" values="41.83" fill="freeze" begin="61a7.click" /><animate id="12" attributeName="stroke-dashoffset" values="41.83;0" dur="0.42s" fill="freeze" begin="11.end" /></path><path d="M48.34,79.54c1.57,0.73,4.63,0.59,6.29,0.38c8.5-1.05,18.54-1.61,27-1.88c2.21-0.07,4.07-0.08,6.19,0.51" stroke-dasharray="39.68" stroke-dashoffset="39.68"><animate attributeName="stroke-dashoffset" values="39.68" fill="freeze" begin="61a7.click" /><animate id="13" attributeName="stroke-dashoffset" values="39.68;0" dur="0.4s" fill="freeze" begin="12.end" /></path><path d="M40.53,92.53c2.35,0.95,5.63,0.97,8.1,0.69c12.39-1.43,27.37-2.45,39.74-2.58c2.73-0.03,5.16,0.02,7.81,0.67" stroke-dasharray="55.91" stroke-dashoffset="55.91"><animate attributeName="stroke-dashoffset" values="55.91" fill="freeze" begin="61a7.click" /><animate id="14" attributeName="stroke-dashoffset" values="55.91;0" dur="0.56s" fill="freeze" begin="13.end" /></path></g></g></g></g></svg>