<svg xmlns="http://www.w3.org/2000/svg" width="109" height="109" viewBox="0 0 109 109" id="61ac"><g fill="none" stroke="#666" stroke-width="9" stroke-linecap="round" stroke-linejoin="round"><g><g><path d="M16.97,34.75C17,39.13,14.1,49.1,11.53,52.5" /><path d="M32.02,28.83c2.13,2.05,5.51,8.44,6.04,11.63" /><path d="M23.87,12.75c1.09,0.5,1.74,2.25,1.96,3.25c0.22,1,0,75.75-0.22,82" /></g><g><g><path d="M47.43,13.56c0.52,0.49,0.92,1.67,1.04,2.35c0.57,3.24,2.01,13.97,2.7,19.22" /><path d="M48.96,15.45c2.9-0.29,32.28-2.83,34.92-3.12c2.2-0.24,3.65,1.32,3.47,3.19c-0.37,3.82-4.86,16.58-4.86,17.1" /><path d="M49.92,24.08c3.93-0.27,28.29-2.33,35.63-2.85" /><path d="M51.52,32.67c8.15-0.73,23.7-1.69,31.22-2.22" /></g><g><g><path d="M65.77,36.17c0.83,0.42,2.19,2.11,2.19,2.99c0,2.76,0,3.09-0.1,5.91" /><path d="M43,46.59c1.02,0.05,3.33,0.37,4.32,0.29c10.93-0.88,33.43-2.63,43.92-3.75c1.67-0.18,2.53-0.03,3.77,0.41" /></g><g><g><path d="M51.59,54.07c0.39,0.29,0.87,2,0.96,2.38c0.59,2.81,1.39,8.25,2.26,13.58" /><path d="M52.87,55.38c7.13-0.63,26.24-2.81,30.21-3.26c1.64-0.19,3.17,1.54,2.5,3.68c-0.74,2.39-2.12,7.34-3.15,10.66" /><path d="M55.08,68.58C64.25,68,74,67.5,84.26,66.88" /></g><g><path d="M67.98,70.38c0.06,0.39,0.8,2.02,0.9,4.47c0.16,3.97-0.18,14.1-0.18,17.51c0,8.63-5.17,0.4-6.24-0.61" /><path d="M54.5,76.9c0.04,0.37,0.09,0.95-0.08,1.49c-0.98,3.13-6.64,10-14.37,14.21" /><path d="M81.31,76.15c5.1,2.93,12.14,11.1,13.42,15.66" /></g></g></g></g></g></g><g fill="none" stroke="#000" stroke-width="5" stroke-linecap="round" stroke-linejoin="round"><g><g><path d="M16.97,34.75C17,39.13,14.1,49.1,11.53,52.5" stroke-dasharray="18.75" stroke-dashoffset="18.75"><animate id="0" attributeName="stroke-dashoffset" values="18.75;0" dur="0.19s" fill="freeze" begin="0s;61ac.click" /></path><path d="M32.02,28.83c2.13,2.05,5.51,8.44,6.04,11.63" stroke-dasharray="13.23" stroke-dashoffset="13.23"><animate attributeName="stroke-dashoffset" values="13.23" fill="freeze" begin="61ac.click" /><animate id="1" attributeName="stroke-dashoffset" values="13.23;0" dur="0.13s" fill="freeze" begin="0.end" /></path><path d="M23.87,12.75c1.09,0.5,1.74,2.25,1.96,3.25c0.22,1,0,75.75-0.22,82" stroke-dasharray="85.91" stroke-dashoffset="85.91"><animate attributeName="stroke-dashoffset" values="85.91" fill="freeze" begin="61ac.click" /><animate id="2" attributeName="stroke-dashoffset" values="85.91;0" dur="0.65s" fill="freeze" begin="1.end" /></path></g><g><g><path d="M47.43,13.56c0.52,0.49,0.92,1.67,1.04,2.35c0.57,3.24,2.01,13.97,2.7,19.22" stroke-dasharray="22.01" stroke-dashoffset="22.01"><animate attributeName="stroke-dashoffset" values="22.01" fill="freeze" begin="61ac.click" /><animate id="3" attributeName="stroke-dashoffset" values="22.01;0" dur="0.22s" fill="freeze" begin="2.end" /></path><path d="M48.96,15.45c2.9-0.29,32.28-2.83,34.92-3.12c2.2-0.24,3.65,1.32,3.47,3.19c-0.37,3.82-4.86,16.58-4.86,17.1" stroke-dasharray="58.31" stroke-dashoffset="58.31"><animate attributeName="stroke-dashoffset" values="58.31" fill="freeze" begin="61ac.click" /><animate id="4" attributeName="stroke-dashoffset" values="58.31;0" dur="0.58s" fill="freeze" begin="3.end" /></path><path d="M49.92,24.08c3.93-0.27,28.29-2.33,35.63-2.85" stroke-dasharray="35.74" stroke-dashoffset="35.74"><animate attributeName="stroke-dashoffset" values="35.74" fill="freeze" begin="61ac.click" /><animate id="5" attributeName="stroke-dashoffset" values="35.74;0" dur="0.36s" fill="freeze" begin="4.end" /></path><path d="M51.52,32.67c8.15-0.73,23.7-1.69,31.22-2.22" stroke-dasharray="31.3" stroke-dashoffset="31.3"><animate attributeName="stroke-dashoffset" values="31.3" fill="freeze" begin="61ac.click" /><animate id="6" attributeName="stroke-dashoffset" values="31.3;0" dur="0.31s" fill="freeze" begin="5.end" /></path></g><g><g><path d="M65.77,36.17c0.83,0.42,2.19,2.11,2.19,2.99c0,2.76,0,3.09-0.1,5.91" stroke-dasharray="9.72" stroke-dashoffset="9.72"><animate attributeName="stroke-dashoffset" values="9.72" fill="freeze" begin="61ac.click" /><animate id="7" attributeName="stroke-dashoffset" values="9.72;0" dur="0.1s" fill="freeze" begin="6.end" /></path><path d="M43,46.59c1.02,0.05,3.33,0.37,4.32,0.29c10.93-0.88,33.43-2.63,43.92-3.75c1.67-0.18,2.53-0.03,3.77,0.41" stroke-dasharray="52.25" stroke-dashoffset="52.25"><animate attributeName="stroke-dashoffset" values="52.25" fill="freeze" begin="61ac.click" /><animate id="8" attributeName="stroke-dashoffset" values="52.25;0" dur="0.52s" fill="freeze" begin="7.end" /></path></g><g><g><path d="M51.59,54.07c0.39,0.29,0.87,2,0.96,2.38c0.59,2.81,1.39,8.25,2.26,13.58" stroke-dasharray="16.36" stroke-dashoffset="16.36"><animate attributeName="stroke-dashoffset" values="16.36" fill="freeze" begin="61ac.click" /><animate id="9" attributeName="stroke-dashoffset" values="16.36;0" dur="0.16s" fill="freeze" begin="8.end" /></path><path d="M52.87,55.38c7.13-0.63,26.24-2.81,30.21-3.26c1.64-0.19,3.17,1.54,2.5,3.68c-0.74,2.39-2.12,7.34-3.15,10.66" stroke-dasharray="46.79" stroke-dashoffset="46.79"><animate attributeName="stroke-dashoffset" values="46.79" fill="freeze" begin="61ac.click" /><animate id="10" attributeName="stroke-dashoffset" values="46.79;0" dur="0.47s" fill="freeze" begin="9.end" /></path><path d="M55.08,68.58C64.25,68,74,67.5,84.26,66.88" stroke-dasharray="29.23" stroke-dashoffset="29.23"><animate attributeName="stroke-dashoffset" values="29.23" fill="freeze" begin="61ac.click" /><animate id="11" attributeName="stroke-dashoffset" values="29.23;0" dur="0.29s" fill="freeze" begin="10.end" /></path></g><g><path d="M67.98,70.38c0.06,0.39,0.8,2.02,0.9,4.47c0.16,3.97-0.18,14.1-0.18,17.51c0,8.63-5.17,0.4-6.24-0.61" stroke-dasharray="33.33" stroke-dashoffset="33.33"><animate attributeName="stroke-dashoffset" values="33.33" fill="freeze" begin="61ac.click" /><animate id="12" attributeName="stroke-dashoffset" values="33.33;0" dur="0.33s" fill="freeze" begin="11.end" /></path><path d="M54.5,76.9c0.04,0.37,0.09,0.95-0.08,1.49c-0.98,3.13-6.64,10-14.37,14.21" stroke-dasharray="22.04" stroke-dashoffset="22.04"><animate attributeName="stroke-dashoffset" values="22.04" fill="freeze" begin="61ac.click" /><animate id="13" attributeName="stroke-dashoffset" values="22.04;0" dur="0.22s" fill="freeze" begin="12.end" /></path><path d="M81.31,76.15c5.1,2.93,12.14,11.1,13.42,15.66" stroke-dasharray="20.95" stroke-dashoffset="20.95"><animate attributeName="stroke-dashoffset" values="20.95" fill="freeze" begin="61ac.click" /><animate id="14" attributeName="stroke-dashoffset" values="20.95;0" dur="0.21s" fill="freeze" begin="13.end" /></path></g></g></g></g></g></g></svg>