<svg xmlns="http://www.w3.org/2000/svg" width="109" height="109" viewBox="0 0 109 109" id="61e6"><g fill="none" stroke="#666" stroke-width="6" stroke-linecap="round" stroke-linejoin="round"><g><g><path d="M15.72,35c0.03,4.31-2.47,14.14-4.69,17.5" /><path d="M25.77,30.83c2.22,2.23,5.74,9.17,6.29,12.63" /><path d="M21.37,12.75c1.09,0.5,1.74,2.25,1.96,3.25c0.22,1,0,76.25-0.22,82.5" /></g><g><g><path d="M43,16.9c1.41,0.05,3.49,0.18,4.87,0.14c7.41-0.22,28.97-2.84,35.59-2.93c1.93-0.03,3.54-0.13,5.31,0.09" /><path d="M40.91,26.74c-0.17,5.22-1.66,10-2.75,15.27" /><path d="M41.06,28.26c7.19-0.51,40.76-3.34,52.05-3.34c6.54,0,1.89,4.57-1.7,8.68" /><path d="M64.6,17.21c0.65,1.49,0.94,2.47,0.95,3.94c0.01,0.53-0.2,26.48-0.2,27.93" /><path d="M48.71,33.09c2.85,0.74,6.75,2.95,8.3,4.17" /><path d="M47.56,42.74c2.54,0.91,6.46,4.25,7.85,5.77" /><path d="M74.74,31.43c3.44,1.03,7.35,3.09,8.72,3.95" /><path d="M74.34,42.89c3.08,0.76,7.28,3.03,8.96,4.29" /></g><g><g><path d="M41.28,55.82c1.03,0.5,2.91,0.55,3.95,0.5C56,55.86,82,53.25,89.21,52.88c1.72-0.09,2.75,0.24,3.61,0.49" /><path d="M65.63,57.27c0.02,0.22,0.04,0.58-0.04,0.9c-0.49,1.91-3.32,6.09-7.19,8.65" /></g><g><g><path d="M42.56,67.79c0.46,0.99,0.85,2.56,0.97,4.34c0.17,2.62,1.72,21.61,1.61,27.41" /><path d="M43.6,70.26c7.15-0.76,44.44-3.25,45.58-3.53c2.44-0.59,3.85,0.76,3.82,3.4c-0.09,6.42-1.25,14.15-2.65,20.92c-1.42,6.87-4.46,5.35-6.28,2.78" /></g><path d="M57.73,71.3c0.55,0.65,1.26,1.92,1.31,2.89c0.18,3.22,1.18,20.54,1.18,21.99" /><path d="M74.15,70.24c0.65,1.5,1.07,2.48,0.95,3.94c-0.6,7.83-1.5,16.81-1.88,21.93" /></g></g></g></g></g><g fill="none" stroke="#000" stroke-width="3" stroke-linecap="round" stroke-linejoin="round"><path d="M15.72,35c0.03,4.31-2.47,14.14-4.69,17.5" stroke-dasharray="18.261" stroke-dashoffset="18.261"><animate attributeName="stroke-dashoffset" values="18.261;18.261;0" dur="0.183s" fill="freeze" begin="0s;61e6.click" /></path><path d="M25.77,30.83c2.22,2.23,5.74,9.17,6.29,12.63" stroke-dasharray="14.24" stroke-dashoffset="14.24"><animate attributeName="stroke-dashoffset" values="14.24" fill="freeze" begin="61e6.click" /><animate attributeName="stroke-dashoffset" values="14.24;14.24;0" keyTimes="0;0.563;1" dur="0.325s" fill="freeze" begin="0s;61e6.click" /></path><path d="M21.37,12.75c1.09,0.5,1.74,2.25,1.96,3.25c0.22,1,0,76.25-0.22,82.5" stroke-dasharray="86.412" stroke-dashoffset="86.412"><animate attributeName="stroke-dashoffset" values="86.412" fill="freeze" begin="61e6.click" /><animate attributeName="stroke-dashoffset" values="86.412;86.412;0" keyTimes="0;0.333;1" dur="0.975s" fill="freeze" begin="0s;61e6.click" /></path><path d="M43,16.9c1.41,0.05,3.49,0.18,4.87,0.14c7.41-0.22,28.97-2.84,35.59-2.93c1.93-0.03,3.54-0.13,5.31,0.09" stroke-dasharray="45.906" stroke-dashoffset="45.906"><animate attributeName="stroke-dashoffset" values="45.906" fill="freeze" begin="61e6.click" /><animate attributeName="stroke-dashoffset" values="45.906;45.906;0" keyTimes="0;0.68;1" dur="1.434s" fill="freeze" begin="0s;61e6.click" /></path><path d="M40.91,26.74c-0.17,5.22-1.66,10-2.75,15.27" stroke-dasharray="15.542" stroke-dashoffset="15.542"><animate attributeName="stroke-dashoffset" values="15.542" fill="freeze" begin="61e6.click" /><animate attributeName="stroke-dashoffset" values="15.542;15.542;0" keyTimes="0;0.902;1" dur="1.589s" fill="freeze" begin="0s;61e6.click" /></path><path d="M41.06,28.26c7.19-0.51,40.76-3.34,52.05-3.34c6.54,0,1.89,4.57-1.7,8.68" stroke-dasharray="65.005" stroke-dashoffset="65.005"><animate attributeName="stroke-dashoffset" values="65.005" fill="freeze" begin="61e6.click" /><animate attributeName="stroke-dashoffset" values="65.005;65.005;0" keyTimes="0;0.765;1" dur="2.078s" fill="freeze" begin="0s;61e6.click" /></path><path d="M64.6,17.21c0.65,1.49,0.94,2.47,0.95,3.94c0.01,0.53-0.2,26.48-0.2,27.93" stroke-dasharray="32.018" stroke-dashoffset="32.018"><animate attributeName="stroke-dashoffset" values="32.018" fill="freeze" begin="61e6.click" /><animate attributeName="stroke-dashoffset" values="32.018;32.018;0" keyTimes="0;0.867;1" dur="2.398s" fill="freeze" begin="0s;61e6.click" /></path><path d="M48.71,33.09c2.85,0.74,6.75,2.95,8.3,4.17" stroke-dasharray="9.336" stroke-dashoffset="9.336"><animate attributeName="stroke-dashoffset" values="9.336" fill="freeze" begin="61e6.click" /><animate attributeName="stroke-dashoffset" values="9.336;9.336;0" keyTimes="0;0.963;1" dur="2.491s" fill="freeze" begin="0s;61e6.click" /></path><path d="M47.56,42.74c2.54,0.91,6.46,4.25,7.85,5.77" stroke-dasharray="9.806" stroke-dashoffset="9.806"><animate attributeName="stroke-dashoffset" values="9.806" fill="freeze" begin="61e6.click" /><animate attributeName="stroke-dashoffset" values="9.806;9.806;0" keyTimes="0;0.962;1" dur="2.589s" fill="freeze" begin="0s;61e6.click" /></path><path d="M74.74,31.43c3.44,1.03,7.35,3.09,8.72,3.95" stroke-dasharray="9.596" stroke-dashoffset="9.596"><animate attributeName="stroke-dashoffset" values="9.596" fill="freeze" begin="61e6.click" /><animate attributeName="stroke-dashoffset" values="9.596;9.596;0" keyTimes="0;0.964;1" dur="2.685s" fill="freeze" begin="0s;61e6.click" /></path><path d="M74.34,42.89c3.08,0.76,7.28,3.03,8.96,4.29" stroke-dasharray="9.982" stroke-dashoffset="9.982"><animate attributeName="stroke-dashoffset" values="9.982" fill="freeze" begin="61e6.click" /><animate attributeName="stroke-dashoffset" values="9.982;9.982;0" keyTimes="0;0.964;1" dur="2.785s" fill="freeze" begin="0s;61e6.click" /></path><path d="M41.28,55.82c1.03,0.5,2.91,0.55,3.95,0.5C56,55.86,82,53.25,89.21,52.88c1.72-0.09,2.75,0.24,3.61,0.49" stroke-dasharray="51.796" stroke-dashoffset="51.796"><animate attributeName="stroke-dashoffset" values="51.796" fill="freeze" begin="61e6.click" /><animate attributeName="stroke-dashoffset" values="51.796;51.796;0" keyTimes="0;0.843;1" dur="3.303s" fill="freeze" begin="0s;61e6.click" /></path><path d="M65.63,57.27c0.02,0.22,0.04,0.58-0.04,0.9c-0.49,1.91-3.32,6.09-7.19,8.65" stroke-dasharray="12.331" stroke-dashoffset="12.331"><animate attributeName="stroke-dashoffset" values="12.331" fill="freeze" begin="61e6.click" /><animate attributeName="stroke-dashoffset" values="12.331;12.331;0" keyTimes="0;0.964;1" dur="3.426s" fill="freeze" begin="0s;61e6.click" /></path><path d="M42.56,67.79c0.46,0.99,0.85,2.56,0.97,4.34c0.17,2.62,1.72,21.61,1.61,27.41" stroke-dasharray="31.933" stroke-dashoffset="31.933"><animate attributeName="stroke-dashoffset" values="31.933" fill="freeze" begin="61e6.click" /><animate attributeName="stroke-dashoffset" values="31.933;31.933;0" keyTimes="0;0.915;1" dur="3.745s" fill="freeze" begin="0s;61e6.click" /></path><path d="M43.6,70.26c7.15-0.76,44.44-3.25,45.58-3.53c2.44-0.59,3.85,0.76,3.82,3.4c-0.09,6.42-1.25,14.15-2.65,20.92c-1.42,6.87-4.46,5.35-6.28,2.78" stroke-dasharray="83.2" stroke-dashoffset="83.2"><animate attributeName="stroke-dashoffset" values="83.2" fill="freeze" begin="61e6.click" /><animate attributeName="stroke-dashoffset" values="83.2;83.2;0" keyTimes="0;0.857;1" dur="4.371s" fill="freeze" begin="0s;61e6.click" /></path><path d="M57.73,71.3c0.55,0.65,1.26,1.92,1.31,2.89c0.18,3.22,1.18,20.54,1.18,21.99" stroke-dasharray="25.24" stroke-dashoffset="25.24"><animate attributeName="stroke-dashoffset" values="25.24" fill="freeze" begin="61e6.click" /><animate attributeName="stroke-dashoffset" values="25.24;25.24;0" keyTimes="0;0.945;1" dur="4.623s" fill="freeze" begin="0s;61e6.click" /></path><path d="M74.15,70.24c0.65,1.5,1.07,2.48,0.95,3.94c-0.6,7.83-1.5,16.81-1.88,21.93" stroke-dasharray="26.115" stroke-dashoffset="26.115"><animate attributeName="stroke-dashoffset" values="26.115" fill="freeze" begin="61e6.click" /><animate attributeName="stroke-dashoffset" values="26.115;26.115;0" keyTimes="0;0.947;1" dur="4.884s" fill="freeze" begin="0s;61e6.click" /></path></g></svg>