<svg xmlns="http://www.w3.org/2000/svg" width="109" height="109" viewBox="0 0 109 109" id="61ff"><g fill="none" stroke="#666" stroke-width="9" stroke-linecap="round" stroke-linejoin="round"><g><g><g><path d="M12.02,22.59c0.78,0.29,3.21,0.84,3.99,0.79c8.12-0.49,18.24-2.14,27.44-2.54c1.3-0.06,2.08,0.14,2.73,0.29" /><path d="M28.3,13c0.51,0.36,0.81,1.63,0.91,2.36c0.1,0.73-0.22,11.48-0.32,16.02" /><path d="M15.32,33.33c0.75,0.24,2.14,0.25,2.89,0.24c4.79-0.07,16.04-2.32,22.54-2.58c1.26-0.05,2.01,0.11,2.64,0.23" /></g><g><g><path d="M12.86,41.45c-0.07,3.2-1.78,11.58-2.38,13.49" /><path d="M12.88,43.15c1.75,0,24.16-4.27,32.94-4.27c5.97,0,1.89,5.1-0.34,8.43" /></g><g><g><path d="M17.56,52.13c0.69,0.5,1.95,0.56,2.65,0.5c7.19-0.58,9.85-0.96,18.47-1.86c1.15-0.12,1.84,0.24,2.42,0.49" /></g><g><g><path d="M15.62,60.67c0.25,0.27,0.56,0.47,0.61,0.83c0.34,2.57,1.25,8.65,2.01,13.75" /><path d="M16.58,62.61c3.77-0.51,18.67-2.36,25.38-3.07c1.08-0.11,2.28,0.67,2.04,2.16c-0.43,2.68-1.37,3.8-2.67,8.92" /><path d="M18.45,73.49c3.72-0.27,22.36-2.26,25.52-2.33" /></g><path d="M18.41,80.92c1.56,1.47,4.03,6.05,4.42,8.34" /><path d="M38.75,77.47c0.01,0.25,0.03,0.65-0.03,1.01c-0.33,2.12-2.25,6.79-4.87,9.64" /><path d="M12.94,94.17c0.69,1.5,1.81,1.58,3.65,1c9.68-3.08,16.15-5.41,26.81-8.84" /></g></g></g></g><g><g><g><g><path d="M48.67,26.5c0.43,0.07,1.26,0.37,2.01,0.3c3.51-0.33,9.1-1.29,11.42-1.62c0.66-0.09,1.26,0.12,1.59,0.24" /></g><g><path d="M49,54.03c1.25,0.47,2.69,0.76,3.88-0.75c3.3-4.21,5.62-8.27,9.19-14.34" /></g></g><g><path d="M73.74,16.47c0.02,0.55,0.04,1.42-0.04,2.22c-0.51,4.67-3.42,14.93-7.41,21.21" /><path d="M74.29,27.27c0.56,0.21,1.61,0.54,2.45,0.36c1.02-0.23,15.16-4.06,16.14-4.07c3.35-0.03-0.35,5.18-2.42,7.93" /><path d="M79.94,30.93c0.04,0.65,0.03,1.67-0.08,2.62c-0.69,5.92-6.36,19.95-17.12,26.89" /><path d="M78.4,41.54c2.59,3.34,11.65,13.35,16.29,16.91c0.98,0.75,1.72,1.2,2.65,1.44" /></g></g><g><path d="M55.43,77.27c0.22,2.11-2.23,11.44-4.01,14.97" /><path d="M60.1,69.39c4.67,13.33,12.41,25.41,30.43,25.58c8.69,0.08,9.26-3.55,2.01-9.62" /><path d="M73.09,67.82c1.71,5.06,4.19,10.12,6.01,2.37" /><path d="M89.81,68.45c3.19,2.22,5.58,4.23,8.17,11.09" /></g></g></g></g><g fill="none" stroke="#000" stroke-width="5" stroke-linecap="round" stroke-linejoin="round"><g><g><g><path d="M12.02,22.59c0.78,0.29,3.21,0.84,3.99,0.79c8.12-0.49,18.24-2.14,27.44-2.54c1.3-0.06,2.08,0.14,2.73,0.29" stroke-dasharray="34.4" stroke-dashoffset="34.4"><animate id="0" attributeName="stroke-dashoffset" values="34.4;0" dur="0.34s" fill="freeze" begin="0s;61ff.click" /></path><path d="M28.3,13c0.51,0.36,0.81,1.63,0.91,2.36c0.1,0.73-0.22,11.48-0.32,16.02" stroke-dasharray="18.6" stroke-dashoffset="18.6"><animate attributeName="stroke-dashoffset" values="18.6" fill="freeze" begin="61ff.click" /><animate id="1" attributeName="stroke-dashoffset" values="18.6;0" dur="0.19s" fill="freeze" begin="0.end" /></path><path d="M15.32,33.33c0.75,0.24,2.14,0.25,2.89,0.24c4.79-0.07,16.04-2.32,22.54-2.58c1.26-0.05,2.01,0.11,2.64,0.23" stroke-dasharray="28.26" stroke-dashoffset="28.26"><animate attributeName="stroke-dashoffset" values="28.26" fill="freeze" begin="61ff.click" /><animate id="2" attributeName="stroke-dashoffset" values="28.26;0" dur="0.28s" fill="freeze" begin="1.end" /></path></g><g><g><path d="M12.86,41.45c-0.07,3.2-1.78,11.58-2.38,13.49" stroke-dasharray="13.72" stroke-dashoffset="13.72"><animate attributeName="stroke-dashoffset" values="13.72" fill="freeze" begin="61ff.click" /><animate id="3" attributeName="stroke-dashoffset" values="13.72;0" dur="0.14s" fill="freeze" begin="2.end" /></path><path d="M12.88,43.15c1.75,0,24.16-4.27,32.94-4.27c5.97,0,1.89,5.1-0.34,8.43" stroke-dasharray="44.82" stroke-dashoffset="44.82"><animate attributeName="stroke-dashoffset" values="44.82" fill="freeze" begin="61ff.click" /><animate id="4" attributeName="stroke-dashoffset" values="44.82;0" dur="0.45s" fill="freeze" begin="3.end" /></path></g><g><g><path d="M17.56,52.13c0.69,0.5,1.95,0.56,2.65,0.5c7.19-0.58,9.85-0.96,18.47-1.86c1.15-0.12,1.84,0.24,2.42,0.49" stroke-dasharray="23.81" stroke-dashoffset="23.81"><animate attributeName="stroke-dashoffset" values="23.81" fill="freeze" begin="61ff.click" /><animate id="5" attributeName="stroke-dashoffset" values="23.81;0" dur="0.24s" fill="freeze" begin="4.end" /></path></g><g><g><path d="M15.62,60.67c0.25,0.27,0.56,0.47,0.61,0.83c0.34,2.57,1.25,8.65,2.01,13.75" stroke-dasharray="14.95" stroke-dashoffset="14.95"><animate attributeName="stroke-dashoffset" values="14.95" fill="freeze" begin="61ff.click" /><animate id="6" attributeName="stroke-dashoffset" values="14.95;0" dur="0.15s" fill="freeze" begin="5.end" /></path><path d="M16.58,62.61c3.77-0.51,18.67-2.36,25.38-3.07c1.08-0.11,2.28,0.67,2.04,2.16c-0.43,2.68-1.37,3.8-2.67,8.92" stroke-dasharray="38.36" stroke-dashoffset="38.36"><animate attributeName="stroke-dashoffset" values="38.36" fill="freeze" begin="61ff.click" /><animate id="7" attributeName="stroke-dashoffset" values="38.36;0" dur="0.38s" fill="freeze" begin="6.end" /></path><path d="M18.45,73.49c3.72-0.27,22.36-2.26,25.52-2.33" stroke-dasharray="25.63" stroke-dashoffset="25.63"><animate attributeName="stroke-dashoffset" values="25.63" fill="freeze" begin="61ff.click" /><animate id="8" attributeName="stroke-dashoffset" values="25.63;0" dur="0.26s" fill="freeze" begin="7.end" /></path></g><path d="M18.41,80.92c1.56,1.47,4.03,6.05,4.42,8.34" stroke-dasharray="9.53" stroke-dashoffset="9.53"><animate attributeName="stroke-dashoffset" values="9.53" fill="freeze" begin="61ff.click" /><animate id="9" attributeName="stroke-dashoffset" values="9.53;0" dur="0.1s" fill="freeze" begin="8.end" /></path><path d="M38.75,77.47c0.01,0.25,0.03,0.65-0.03,1.01c-0.33,2.12-2.25,6.79-4.87,9.64" stroke-dasharray="11.93" stroke-dashoffset="11.93"><animate attributeName="stroke-dashoffset" values="11.93" fill="freeze" begin="61ff.click" /><animate id="10" attributeName="stroke-dashoffset" values="11.93;0" dur="0.12s" fill="freeze" begin="9.end" /></path><path d="M12.94,94.17c0.69,1.5,1.81,1.58,3.65,1c9.68-3.08,16.15-5.41,26.81-8.84" stroke-dasharray="32.5" stroke-dashoffset="32.5"><animate attributeName="stroke-dashoffset" values="32.5" fill="freeze" begin="61ff.click" /><animate id="11" attributeName="stroke-dashoffset" values="32.5;0" dur="0.32s" fill="freeze" begin="10.end" /></path></g></g></g></g><g><g><g><g><path d="M48.67,26.5c0.43,0.07,1.26,0.37,2.01,0.3c3.51-0.33,9.1-1.29,11.42-1.62c0.66-0.09,1.26,0.12,1.59,0.24" stroke-dasharray="15.2" stroke-dashoffset="15.2"><animate attributeName="stroke-dashoffset" values="15.2" fill="freeze" begin="61ff.click" /><animate id="12" attributeName="stroke-dashoffset" values="15.2;0" dur="0.15s" fill="freeze" begin="11.end" /></path></g><g><path d="M49,54.03c1.25,0.47,2.69,0.76,3.88-0.75c3.3-4.21,5.62-8.27,9.19-14.34" stroke-dasharray="21.35" stroke-dashoffset="21.35"><animate attributeName="stroke-dashoffset" values="21.35" fill="freeze" begin="61ff.click" /><animate id="13" attributeName="stroke-dashoffset" values="21.35;0" dur="0.21s" fill="freeze" begin="12.end" /></path></g></g><g><path d="M73.74,16.47c0.02,0.55,0.04,1.42-0.04,2.22c-0.51,4.67-3.42,14.93-7.41,21.21" stroke-dasharray="24.83" stroke-dashoffset="24.83"><animate attributeName="stroke-dashoffset" values="24.83" fill="freeze" begin="61ff.click" /><animate id="14" attributeName="stroke-dashoffset" values="24.83;0" dur="0.25s" fill="freeze" begin="13.end" /></path><path d="M74.29,27.27c0.56,0.21,1.61,0.54,2.45,0.36c1.02-0.23,15.16-4.06,16.14-4.07c3.35-0.03-0.35,5.18-2.42,7.93" stroke-dasharray="29.04" stroke-dashoffset="29.04"><animate attributeName="stroke-dashoffset" values="29.04" fill="freeze" begin="61ff.click" /><animate id="15" attributeName="stroke-dashoffset" values="29.04;0" dur="0.29s" fill="freeze" begin="14.end" /></path><path d="M79.94,30.93c0.04,0.65,0.03,1.67-0.08,2.62c-0.69,5.92-6.36,19.95-17.12,26.89" stroke-dasharray="35.32" stroke-dashoffset="35.32"><animate attributeName="stroke-dashoffset" values="35.32" fill="freeze" begin="61ff.click" /><animate id="16" attributeName="stroke-dashoffset" values="35.32;0" dur="0.35s" fill="freeze" begin="15.end" /></path><path d="M78.4,41.54c2.59,3.34,11.65,13.35,16.29,16.91c0.98,0.75,1.72,1.2,2.65,1.44" stroke-dasharray="26.55" stroke-dashoffset="26.55"><animate attributeName="stroke-dashoffset" values="26.55" fill="freeze" begin="61ff.click" /><animate id="17" attributeName="stroke-dashoffset" values="26.55;0" dur="0.27s" fill="freeze" begin="16.end" /></path></g></g><g><path d="M55.43,77.27c0.22,2.11-2.23,11.44-4.01,14.97" stroke-dasharray="15.57" stroke-dashoffset="15.57"><animate attributeName="stroke-dashoffset" values="15.57" fill="freeze" begin="61ff.click" /><animate id="18" attributeName="stroke-dashoffset" values="15.57;0" dur="0.16s" fill="freeze" begin="17.end" /></path><path d="M60.1,69.39c4.67,13.33,12.41,25.41,30.43,25.58c8.69,0.08,9.26-3.55,2.01-9.62" stroke-dasharray="59.82" stroke-dashoffset="59.82"><animate attributeName="stroke-dashoffset" values="59.82" fill="freeze" begin="61ff.click" /><animate id="19" attributeName="stroke-dashoffset" values="59.82;0" dur="0.6s" fill="freeze" begin="18.end" /></path><path d="M73.09,67.82c1.71,5.06,4.19,10.12,6.01,2.37" stroke-dasharray="12.46" stroke-dashoffset="12.46"><animate attributeName="stroke-dashoffset" values="12.46" fill="freeze" begin="61ff.click" /><animate id="20" attributeName="stroke-dashoffset" values="12.46;0" dur="0.12s" fill="freeze" begin="19.end" /></path><path d="M89.81,68.45c3.19,2.22,5.58,4.23,8.17,11.09" stroke-dasharray="14.05" stroke-dashoffset="14.05"><animate attributeName="stroke-dashoffset" values="14.05" fill="freeze" begin="61ff.click" /><animate id="21" attributeName="stroke-dashoffset" values="14.05;0" dur="0.14s" fill="freeze" begin="20.end" /></path></g></g></g></g></svg>