<svg xmlns="http://www.w3.org/2000/svg" width="109" height="109" viewBox="0 0 109 109" id="6208"><g fill="none" stroke="#666" stroke-width="9" stroke-linecap="round" stroke-linejoin="round"><g><g p4:part="1" xmlns:p4="http://kanjivg.tagaini.net"><path d="M15.75,39.45c2.85,0.72,5.68,0.77,8.5,0.16c13.53-1.89,45.83-5.57,59.76-6.49c2.34-0.23,4.67-0.09,6.99,0.43" /><path d="M45.5,11.75c2,1.75,2.58,3.49,3,7.25C52,50.5,64.25,80.25,88.75,92c7.86,3.77,6.75,0.75,5.75-7" /></g><g><path d="M77.68,42.89c0.34,2,0.09,3.87-0.8,5.58c-5.16,9.94-22.48,29.14-46.82,40.74" /></g><g p4:part="2" xmlns:p4="http://kanjivg.tagaini.net"><g><path d="M67.25,12.5c3.18,2,8.27,6.57,9.75,10" /></g></g></g></g><g fill="none" stroke="#000" stroke-width="5" stroke-linecap="round" stroke-linejoin="round"><g><g p4:part="1" xmlns:p4="http://kanjivg.tagaini.net"><path d="M15.75,39.45c2.85,0.72,5.68,0.77,8.5,0.16c13.53-1.89,45.83-5.57,59.76-6.49c2.34-0.23,4.67-0.09,6.99,0.43" stroke-dasharray="75.73" stroke-dashoffset="75.73"><animate id="0" attributeName="stroke-dashoffset" values="75.73;0" dur="0.57s" fill="freeze" begin="0s;6208.click" /></path><path d="M45.5,11.75c2,1.75,2.58,3.49,3,7.25C52,50.5,64.25,80.25,88.75,92c7.86,3.77,6.75,0.75,5.75-7" stroke-dasharray="109.72" stroke-dashoffset="109.72"><animate attributeName="stroke-dashoffset" values="109.72" fill="freeze" begin="6208.click" /><animate id="1" attributeName="stroke-dashoffset" values="109.72;0" dur="0.82s" fill="freeze" begin="0.end" /></path></g><g><path d="M77.68,42.89c0.34,2,0.09,3.87-0.8,5.58c-5.16,9.94-22.48,29.14-46.82,40.74" stroke-dasharray="68.65" stroke-dashoffset="68.65"><animate attributeName="stroke-dashoffset" values="68.65" fill="freeze" begin="6208.click" /><animate id="2" attributeName="stroke-dashoffset" values="68.65;0" dur="0.52s" fill="freeze" begin="1.end" /></path></g><g p4:part="2" xmlns:p4="http://kanjivg.tagaini.net"><g><path d="M67.25,12.5c3.18,2,8.27,6.57,9.75,10" stroke-dasharray="14.12" stroke-dashoffset="14.12"><animate attributeName="stroke-dashoffset" values="14.12" fill="freeze" begin="6208.click" /><animate id="3" attributeName="stroke-dashoffset" values="14.12;0" dur="0.14s" fill="freeze" begin="2.end" /></path></g></g></g></g></svg>