<svg xmlns="http://www.w3.org/2000/svg" width="109" height="109" viewBox="0 0 109 109" id="621f"><g fill="none" stroke="#666" stroke-width="9" stroke-linecap="round" stroke-linejoin="round"><g><g><g><path d="M15.18,27.88c2.69,0.62,5.24,0.36,8.09-0.02c8.23-1.1,15.73-2.73,21.61-3.74c1.54-0.27,3.11-0.51,4.68-0.5" /><path d="M33.2,12.38c0.83,0.83,0.92,1.99,0.92,2.99c0,0.48-0.04,19.81-0.12,22.76" /></g><g><g><path d="M16.77,40.41c0.97,0.97,1.54,2.01,1.76,3.36c0.84,5.11,2.46,15.98,3.12,19.01" /><path d="M18.83,42.16c5.54-1.05,19.55-3.66,27.17-4.55c3.27-0.38,5,0.64,4.58,3.52c-0.5,3.43-2.1,12.4-3.37,18.47" /><path d="M20.88,51.38c7.12-1.25,18.75-3.12,27.61-3.75" /><path d="M22.45,61.06c6.8-0.81,17.55-2.69,24.23-3.14" /></g><g><path d="M11.74,75.82c3.05,0.45,5.63,0.61,8.65,0.02c7.6-1.49,17.74-3.09,25.4-4.66c2.59-0.53,5.12-0.98,7.73-0.72" /><path d="M33.32,62.24c0.91,0.91,1.32,2.01,1.32,3.74c0,0.59-0.01,14.39-0.01,23.64c0,3.11,0,5.71,0,7.12" /></g></g></g><g><g p5:part="1" xmlns:p5="http://kanjivg.tagaini.net"><path d="M56.75,43.57c2.47,0.7,4.86,0.44,7.36-0.14c7.39-1.69,13.01-3.44,19.6-5.42c1.74-0.52,3.41-0.77,5.37-0.83" /><path d="M64.49,12.25c1.13,1.13,1.8,2.37,2.04,4.8C69.49,47.37,76.75,73,90.03,86.71c6.07,6.27,7.65,6.15,7.46-3.17" /></g><g><path d="M86.74,47.24c0.09,0.93-0.19,2.31-0.94,3.49c-6.93,10.9-17.3,25.15-33.05,36.86" /></g><g p5:part="2" xmlns:p5="http://kanjivg.tagaini.net"><g><path d="M79.49,16.71c2.48,1.98,7.19,7,8.34,10.39" /></g></g></g></g></g><g fill="none" stroke="#000" stroke-width="5" stroke-linecap="round" stroke-linejoin="round"><g><g><g><path d="M15.18,27.88c2.69,0.62,5.24,0.36,8.09-0.02c8.23-1.1,15.73-2.73,21.61-3.74c1.54-0.27,3.11-0.51,4.68-0.5" stroke-dasharray="34.78" stroke-dashoffset="34.78"><animate id="0" attributeName="stroke-dashoffset" values="34.78;0" dur="0.35s" fill="freeze" begin="0s;621f.click" /></path><path d="M33.2,12.38c0.83,0.83,0.92,1.99,0.92,2.99c0,0.48-0.04,19.81-0.12,22.76" stroke-dasharray="25.98" stroke-dashoffset="25.98"><animate attributeName="stroke-dashoffset" values="25.98" fill="freeze" begin="621f.click" /><animate id="1" attributeName="stroke-dashoffset" values="25.98;0" dur="0.26s" fill="freeze" begin="0.end" /></path></g><g><g><path d="M16.77,40.41c0.97,0.97,1.54,2.01,1.76,3.36c0.84,5.11,2.46,15.98,3.12,19.01" stroke-dasharray="23.13" stroke-dashoffset="23.13"><animate attributeName="stroke-dashoffset" values="23.13" fill="freeze" begin="621f.click" /><animate id="2" attributeName="stroke-dashoffset" values="23.13;0" dur="0.23s" fill="freeze" begin="1.end" /></path><path d="M18.83,42.16c5.54-1.05,19.55-3.66,27.17-4.55c3.27-0.38,5,0.64,4.58,3.52c-0.5,3.43-2.1,12.4-3.37,18.47" stroke-dasharray="53.41" stroke-dashoffset="53.41"><animate attributeName="stroke-dashoffset" values="53.41" fill="freeze" begin="621f.click" /><animate id="3" attributeName="stroke-dashoffset" values="53.41;0" dur="0.53s" fill="freeze" begin="2.end" /></path><path d="M20.88,51.38c7.12-1.25,18.75-3.12,27.61-3.75" stroke-dasharray="27.87" stroke-dashoffset="27.87"><animate attributeName="stroke-dashoffset" values="27.87" fill="freeze" begin="621f.click" /><animate id="4" attributeName="stroke-dashoffset" values="27.87;0" dur="0.28s" fill="freeze" begin="3.end" /></path><path d="M22.45,61.06c6.8-0.81,17.55-2.69,24.23-3.14" stroke-dasharray="24.44" stroke-dashoffset="24.44"><animate attributeName="stroke-dashoffset" values="24.44" fill="freeze" begin="621f.click" /><animate id="5" attributeName="stroke-dashoffset" values="24.44;0" dur="0.24s" fill="freeze" begin="4.end" /></path></g><g><path d="M11.74,75.82c3.05,0.45,5.63,0.61,8.65,0.02c7.6-1.49,17.74-3.09,25.4-4.66c2.59-0.53,5.12-0.98,7.73-0.72" stroke-dasharray="42.32" stroke-dashoffset="42.32"><animate attributeName="stroke-dashoffset" values="42.32" fill="freeze" begin="621f.click" /><animate id="6" attributeName="stroke-dashoffset" values="42.32;0" dur="0.42s" fill="freeze" begin="5.end" /></path><path d="M33.32,62.24c0.91,0.91,1.32,2.01,1.32,3.74c0,0.59-0.01,14.39-0.01,23.64c0,3.11,0,5.71,0,7.12" stroke-dasharray="34.84" stroke-dashoffset="34.84"><animate attributeName="stroke-dashoffset" values="34.84" fill="freeze" begin="621f.click" /><animate id="7" attributeName="stroke-dashoffset" values="34.84;0" dur="0.35s" fill="freeze" begin="6.end" /></path></g></g></g><g><g p5:part="1" xmlns:p5="http://kanjivg.tagaini.net"><path d="M56.75,43.57c2.47,0.7,4.86,0.44,7.36-0.14c7.39-1.69,13.01-3.44,19.6-5.42c1.74-0.52,3.41-0.77,5.37-0.83" stroke-dasharray="33.24" stroke-dashoffset="33.24"><animate attributeName="stroke-dashoffset" values="33.24" fill="freeze" begin="621f.click" /><animate id="8" attributeName="stroke-dashoffset" values="33.24;0" dur="0.33s" fill="freeze" begin="7.end" /></path><path d="M64.49,12.25c1.13,1.13,1.8,2.37,2.04,4.8C69.49,47.37,76.75,73,90.03,86.71c6.07,6.27,7.65,6.15,7.46-3.17" stroke-dasharray="95.59" stroke-dashoffset="95.59"><animate attributeName="stroke-dashoffset" values="95.59" fill="freeze" begin="621f.click" /><animate id="9" attributeName="stroke-dashoffset" values="95.59;0" dur="0.72s" fill="freeze" begin="8.end" /></path></g><g><path d="M86.74,47.24c0.09,0.93-0.19,2.31-0.94,3.49c-6.93,10.9-17.3,25.15-33.05,36.86" stroke-dasharray="53.47" stroke-dashoffset="53.47"><animate attributeName="stroke-dashoffset" values="53.47" fill="freeze" begin="621f.click" /><animate id="10" attributeName="stroke-dashoffset" values="53.47;0" dur="0.53s" fill="freeze" begin="9.end" /></path></g><g p5:part="2" xmlns:p5="http://kanjivg.tagaini.net"><g><path d="M79.49,16.71c2.48,1.98,7.19,7,8.34,10.39" stroke-dasharray="13.44" stroke-dashoffset="13.44"><animate attributeName="stroke-dashoffset" values="13.44" fill="freeze" begin="621f.click" /><animate id="11" attributeName="stroke-dashoffset" values="13.44;0" dur="0.13s" fill="freeze" begin="10.end" /></path></g></g></g></g></g></svg>