<svg xmlns="http://www.w3.org/2000/svg" width="109" height="109" viewBox="0 0 109 109" id="6226"><g fill="none" stroke="#666" stroke-width="9" stroke-linecap="round" stroke-linejoin="round"><g><g p4:phon="単" xmlns:p4="http://kanjivg.tagaini.net"><g><path d="M13.75,22.62c3.43,3.2,6.5,8,7.6,10.41" /><path d="M25.88,18c2.75,2.38,6.5,8.25,7.85,12.52" /><path d="M50.23,16.12c0.14,1.5-0.36,2.75-0.8,3.58c-1.73,3.29-4.56,7.17-6.44,9.54" /></g><g p4:part="1"><g p4:partial><path d="M16.83,39.2c0.8,0.42,1.57,1.61,1.79,2.51c1.38,5.67,2.32,11.32,3.1,17.41c0.16,1.27,0.32,2.5,0.48,3.67" /><path d="M18.91,40.11c8.04-1.37,20.55-3.18,26.95-4.04c3.41-0.46,4.86,0.38,4.5,3.96c-0.4,3.96-1.61,10.96-2.43,15.36c-0.35,1.88-0.62,3.29-0.72,3.78" /><path d="M21.8,50.1c2.58-0.35,21.32-3.6,26.55-3.93" /><path d="M22.84,60.36c7.47-1.39,15.5-2.4,23.68-3.25" /></g><g><path d="M13.42,73.48c1.25,0.45,3.54,0.64,4.79,0.45c8.92-1.31,18.17-3.94,29.75-5.38c2.06-0.26,3.34-0.03,4.38,0.2" /></g><g p4:part="2"><g><path d="M33.31,39.75c0.89,1.29,1.28,2.66,1.19,4.12c0,9.91-0.02,33.72-0.02,45.86c0,3.02-0.1,4.51-0.1,6.26" /></g></g></g></g><g><g p5:part="1" xmlns:p5="http://kanjivg.tagaini.net"><path d="M55,43.46c1.02,0.3,2.89,0.42,3.89,0.3c7.81-0.95,18.61-4.51,25.03-6.24c1.6-0.43,2.71-0.39,3.55-0.24" /><path d="M63.06,14.25c1.34,1.72,1.94,2.19,2.17,5.89c1.9,30.36,10.65,59.11,26.41,71.39c5.05,3.93,4.26,0.74,3.6-6.87" /></g><g><path d="M84.49,47.33c-0.03,1.64-0.4,3.18-1.1,4.61C79.41,60.98,70.84,75.1,53,86.5" /></g><g p5:part="2" xmlns:p5="http://kanjivg.tagaini.net"><g><path d="M76.12,18c3.15,2.31,8.19,7.59,9.66,11.56" /></g></g></g></g></g><g fill="none" stroke="#000" stroke-width="5" stroke-linecap="round" stroke-linejoin="round"><g><g p4:phon="単" xmlns:p4="http://kanjivg.tagaini.net"><g><path d="M13.75,22.62c3.43,3.2,6.5,8,7.6,10.41" stroke-dasharray="12.95" stroke-dashoffset="12.95"><animate id="0" attributeName="stroke-dashoffset" values="12.95;0" dur="0.13s" fill="freeze" begin="0s;6226.click" /></path><path d="M25.88,18c2.75,2.38,6.5,8.25,7.85,12.52" stroke-dasharray="14.91" stroke-dashoffset="14.91"><animate attributeName="stroke-dashoffset" values="14.91" fill="freeze" begin="6226.click" /><animate id="1" attributeName="stroke-dashoffset" values="14.91;0" dur="0.15s" fill="freeze" begin="0.end" /></path><path d="M50.23,16.12c0.14,1.5-0.36,2.75-0.8,3.58c-1.73,3.29-4.56,7.17-6.44,9.54" stroke-dasharray="15.25" stroke-dashoffset="15.25"><animate attributeName="stroke-dashoffset" values="15.25" fill="freeze" begin="6226.click" /><animate id="2" attributeName="stroke-dashoffset" values="15.25;0" dur="0.15s" fill="freeze" begin="1.end" /></path></g><g p4:part="1"><g p4:partial><path d="M16.83,39.2c0.8,0.42,1.57,1.61,1.79,2.51c1.38,5.67,2.32,11.32,3.1,17.41c0.16,1.27,0.32,2.5,0.48,3.67" stroke-dasharray="24.55" stroke-dashoffset="24.55"><animate attributeName="stroke-dashoffset" values="24.55" fill="freeze" begin="6226.click" /><animate id="3" attributeName="stroke-dashoffset" values="24.55;0" dur="0.25s" fill="freeze" begin="2.end" /></path><path d="M18.91,40.11c8.04-1.37,20.55-3.18,26.95-4.04c3.41-0.46,4.86,0.38,4.5,3.96c-0.4,3.96-1.61,10.96-2.43,15.36c-0.35,1.88-0.62,3.29-0.72,3.78" stroke-dasharray="54.19" stroke-dashoffset="54.19"><animate attributeName="stroke-dashoffset" values="54.19" fill="freeze" begin="6226.click" /><animate id="4" attributeName="stroke-dashoffset" values="54.19;0" dur="0.54s" fill="freeze" begin="3.end" /></path><path d="M21.8,50.1c2.58-0.35,21.32-3.6,26.55-3.93" stroke-dasharray="26.84" stroke-dashoffset="26.84"><animate attributeName="stroke-dashoffset" values="26.84" fill="freeze" begin="6226.click" /><animate id="5" attributeName="stroke-dashoffset" values="26.84;0" dur="0.27s" fill="freeze" begin="4.end" /></path><path d="M22.84,60.36c7.47-1.39,15.5-2.4,23.68-3.25" stroke-dasharray="23.91" stroke-dashoffset="23.91"><animate attributeName="stroke-dashoffset" values="23.91" fill="freeze" begin="6226.click" /><animate id="6" attributeName="stroke-dashoffset" values="23.91;0" dur="0.24s" fill="freeze" begin="5.end" /></path></g><g><path d="M13.42,73.48c1.25,0.45,3.54,0.64,4.79,0.45c8.92-1.31,18.17-3.94,29.75-5.38c2.06-0.26,3.34-0.03,4.38,0.2" stroke-dasharray="39.5" stroke-dashoffset="39.5"><animate attributeName="stroke-dashoffset" values="39.5" fill="freeze" begin="6226.click" /><animate id="7" attributeName="stroke-dashoffset" values="39.5;0" dur="0.4s" fill="freeze" begin="6.end" /></path></g><g p4:part="2"><g><path d="M33.31,39.75c0.89,1.29,1.28,2.66,1.19,4.12c0,9.91-0.02,33.72-0.02,45.86c0,3.02-0.1,4.51-0.1,6.26" stroke-dasharray="56.49" stroke-dashoffset="56.49"><animate attributeName="stroke-dashoffset" values="56.49" fill="freeze" begin="6226.click" /><animate id="8" attributeName="stroke-dashoffset" values="56.49;0" dur="0.56s" fill="freeze" begin="7.end" /></path></g></g></g></g><g><g p5:part="1" xmlns:p5="http://kanjivg.tagaini.net"><path d="M55,43.46c1.02,0.3,2.89,0.42,3.89,0.3c7.81-0.95,18.61-4.51,25.03-6.24c1.6-0.43,2.71-0.39,3.55-0.24" stroke-dasharray="33.33" stroke-dashoffset="33.33"><animate attributeName="stroke-dashoffset" values="33.33" fill="freeze" begin="6226.click" /><animate id="9" attributeName="stroke-dashoffset" values="33.33;0" dur="0.33s" fill="freeze" begin="8.end" /></path><path d="M63.06,14.25c1.34,1.72,1.94,2.19,2.17,5.89c1.9,30.36,10.65,59.11,26.41,71.39c5.05,3.93,4.26,0.74,3.6-6.87" stroke-dasharray="97.15" stroke-dashoffset="97.15"><animate attributeName="stroke-dashoffset" values="97.15" fill="freeze" begin="6226.click" /><animate id="10" attributeName="stroke-dashoffset" values="97.15;0" dur="0.73s" fill="freeze" begin="9.end" /></path></g><g><path d="M84.49,47.33c-0.03,1.64-0.4,3.18-1.1,4.61C79.41,60.98,70.84,75.1,53,86.5" stroke-dasharray="51.47" stroke-dashoffset="51.47"><animate attributeName="stroke-dashoffset" values="51.47" fill="freeze" begin="6226.click" /><animate id="11" attributeName="stroke-dashoffset" values="51.47;0" dur="0.51s" fill="freeze" begin="10.end" /></path></g><g p5:part="2" xmlns:p5="http://kanjivg.tagaini.net"><g><path d="M76.12,18c3.15,2.31,8.19,7.59,9.66,11.56" stroke-dasharray="15.22" stroke-dashoffset="15.22"><animate attributeName="stroke-dashoffset" values="15.22" fill="freeze" begin="6226.click" /><animate id="12" attributeName="stroke-dashoffset" values="15.22;0" dur="0.15s" fill="freeze" begin="11.end" /></path></g></g></g></g></g></svg>