<svg xmlns="http://www.w3.org/2000/svg" width="109" height="109" viewBox="0 0 109 109" id="6230"><g fill="none" stroke="#666" stroke-width="9" stroke-linecap="round" stroke-linejoin="round"><g><g><g><g><path d="M13.5,18.36c0.28,0.3,1.1,1.04,1.2,1.43c0.8,3.46,2.28,9.35,3.09,14.43" /><path d="M15.26,19.96c5.74-1.46,9.71-2.77,14.53-3.51c1.21-0.18,1.94,0.85,1.76,1.7c-0.72,3.5-0.99,5.1-2.27,10.92" /><path d="M17.87,31.37c3.89-0.45,9.64-1.19,14.98-1.87" /></g><g><path d="M37.79,15.29c0.28,0.34,1.09,1.62,1.18,2.07c0.79,3.97,1.69,8.46,2.48,14.29" /><path d="M39.22,17.68c6.53-0.93,9.87-1.46,14.58-2.31c1.18-0.21,1.9,0.98,1.73,1.95c-0.7,4.01-2.03,7.18-2.97,11.52" /><path d="M41.73,29.57c5.02-0.32,6.52-0.57,13.92-0.71" /></g></g><g><g p6:part="1" xmlns:p6="http://kanjivg.tagaini.net"><g p6:partial><path d="M17.23,39.51c0.24,0.47,0.7,1.29,0.83,1.88c1.11,4.82,2.51,14.52,3.21,23.47" /><path d="M18.82,41.33c9.22-1.62,24.44-3.31,30.79-4.13c2.33-0.3,3.74,0.65,3.67,2.68c-0.16,4.83-2.66,19.78-3.07,21.8" /><path d="M20.22,51.63c2.77-0.39,27.89-3.13,31.75-2.86" /><path d="M21.6,62.54c9.51-1.29,19.88-1.84,28.66-2.78" /></g></g><g><path d="M13.94,75.88c1.2,0.51,3.41,0.6,4.62,0.51c6.69-0.46,24.7-3.14,35.54-3.47c2.01-0.06,3.21,0.25,4.22,0.5" /></g><g p6:part="2" xmlns:p6="http://kanjivg.tagaini.net"><g><path d="M34.89,41.99c0.53,0.36,0.86,1.36,0.87,2.58c0.03,6.19,0.16,51.42,0.17,53.44" /></g></g></g></g><g><g p5:part="1" xmlns:p5="http://kanjivg.tagaini.net"><path d="M60,41.57c1,0.28,2.85,0.39,3.84,0.28c7.7-0.89,17.79-2.56,26.76-4.25c1.25-0.24,2.14-0.15,2.98-0.01" /><path d="M66.99,13.5c1.3,1.69,1.51,2.16,1.79,5.8C71.05,49.74,77,78.5,89.76,93.3c4.1,4.75,4.39,0.73,3.74-6.76" /></g><g><path d="M87.24,47.24c0.09,1.01,0.34,2.67-0.19,4.06c-3.8,9.95-14.8,29.2-33.3,39.79" /></g><g p5:part="2" xmlns:p5="http://kanjivg.tagaini.net"><g><path d="M79.99,17.71c2.39,2.18,6.22,7.16,7.34,10.89" /></g></g></g></g></g><g fill="none" stroke="#000" stroke-width="5" stroke-linecap="round" stroke-linejoin="round"><g><g><g><g><path d="M13.5,18.36c0.28,0.3,1.1,1.04,1.2,1.43c0.8,3.46,2.28,9.35,3.09,14.43" stroke-dasharray="16.64" stroke-dashoffset="16.64"><animate id="0" attributeName="stroke-dashoffset" values="16.64;0" dur="0.17s" fill="freeze" begin="0s;6230.click" /></path><path d="M15.26,19.96c5.74-1.46,9.71-2.77,14.53-3.51c1.21-0.18,1.94,0.85,1.76,1.7c-0.72,3.5-0.99,5.1-2.27,10.92" stroke-dasharray="28.98" stroke-dashoffset="28.98"><animate attributeName="stroke-dashoffset" values="28.98" fill="freeze" begin="6230.click" /><animate id="1" attributeName="stroke-dashoffset" values="28.98;0" dur="0.29s" fill="freeze" begin="0.end" /></path><path d="M17.87,31.37c3.89-0.45,9.64-1.19,14.98-1.87" stroke-dasharray="15.1" stroke-dashoffset="15.1"><animate attributeName="stroke-dashoffset" values="15.1" fill="freeze" begin="6230.click" /><animate id="2" attributeName="stroke-dashoffset" values="15.1;0" dur="0.15s" fill="freeze" begin="1.end" /></path></g><g><path d="M37.79,15.29c0.28,0.34,1.09,1.62,1.18,2.07c0.79,3.97,1.69,8.46,2.48,14.29" stroke-dasharray="16.9" stroke-dashoffset="16.9"><animate attributeName="stroke-dashoffset" values="16.9" fill="freeze" begin="6230.click" /><animate id="3" attributeName="stroke-dashoffset" values="16.9;0" dur="0.17s" fill="freeze" begin="2.end" /></path><path d="M39.22,17.68c6.53-0.93,9.87-1.46,14.58-2.31c1.18-0.21,1.9,0.98,1.73,1.95c-0.7,4.01-2.03,7.18-2.97,11.52" stroke-dasharray="29.72" stroke-dashoffset="29.72"><animate attributeName="stroke-dashoffset" values="29.72" fill="freeze" begin="6230.click" /><animate id="4" attributeName="stroke-dashoffset" values="29.72;0" dur="0.3s" fill="freeze" begin="3.end" /></path><path d="M41.73,29.57c5.02-0.32,6.52-0.57,13.92-0.71" stroke-dasharray="13.94" stroke-dashoffset="13.94"><animate attributeName="stroke-dashoffset" values="13.94" fill="freeze" begin="6230.click" /><animate id="5" attributeName="stroke-dashoffset" values="13.94;0" dur="0.14s" fill="freeze" begin="4.end" /></path></g></g><g><g p6:part="1" xmlns:p6="http://kanjivg.tagaini.net"><g p6:partial><path d="M17.23,39.51c0.24,0.47,0.7,1.29,0.83,1.88c1.11,4.82,2.51,14.52,3.21,23.47" stroke-dasharray="25.76" stroke-dashoffset="25.76"><animate attributeName="stroke-dashoffset" values="25.76" fill="freeze" begin="6230.click" /><animate id="6" attributeName="stroke-dashoffset" values="25.76;0" dur="0.26s" fill="freeze" begin="5.end" /></path><path d="M18.82,41.33c9.22-1.62,24.44-3.31,30.79-4.13c2.33-0.3,3.74,0.65,3.67,2.68c-0.16,4.83-2.66,19.78-3.07,21.8" stroke-dasharray="58.44" stroke-dashoffset="58.44"><animate attributeName="stroke-dashoffset" values="58.44" fill="freeze" begin="6230.click" /><animate id="7" attributeName="stroke-dashoffset" values="58.44;0" dur="0.58s" fill="freeze" begin="6.end" /></path><path d="M20.22,51.63c2.77-0.39,27.89-3.13,31.75-2.86" stroke-dasharray="31.89" stroke-dashoffset="31.89"><animate attributeName="stroke-dashoffset" values="31.89" fill="freeze" begin="6230.click" /><animate id="8" attributeName="stroke-dashoffset" values="31.89;0" dur="0.32s" fill="freeze" begin="7.end" /></path><path d="M21.6,62.54c9.51-1.29,19.88-1.84,28.66-2.78" stroke-dasharray="28.8" stroke-dashoffset="28.8"><animate attributeName="stroke-dashoffset" values="28.8" fill="freeze" begin="6230.click" /><animate id="9" attributeName="stroke-dashoffset" values="28.8;0" dur="0.29s" fill="freeze" begin="8.end" /></path></g></g><g><path d="M13.94,75.88c1.2,0.51,3.41,0.6,4.62,0.51c6.69-0.46,24.7-3.14,35.54-3.47c2.01-0.06,3.21,0.25,4.22,0.5" stroke-dasharray="44.66" stroke-dashoffset="44.66"><animate attributeName="stroke-dashoffset" values="44.66" fill="freeze" begin="6230.click" /><animate id="10" attributeName="stroke-dashoffset" values="44.66;0" dur="0.45s" fill="freeze" begin="9.end" /></path></g><g p6:part="2" xmlns:p6="http://kanjivg.tagaini.net"><g><path d="M34.89,41.99c0.53,0.36,0.86,1.36,0.87,2.58c0.03,6.19,0.16,51.42,0.17,53.44" stroke-dasharray="56.25" stroke-dashoffset="56.25"><animate attributeName="stroke-dashoffset" values="56.25" fill="freeze" begin="6230.click" /><animate id="11" attributeName="stroke-dashoffset" values="56.25;0" dur="0.56s" fill="freeze" begin="10.end" /></path></g></g></g></g><g><g p5:part="1" xmlns:p5="http://kanjivg.tagaini.net"><path d="M60,41.57c1,0.28,2.85,0.39,3.84,0.28c7.7-0.89,17.79-2.56,26.76-4.25c1.25-0.24,2.14-0.15,2.98-0.01" stroke-dasharray="33.96" stroke-dashoffset="33.96"><animate attributeName="stroke-dashoffset" values="33.96" fill="freeze" begin="6230.click" /><animate id="12" attributeName="stroke-dashoffset" values="33.96;0" dur="0.34s" fill="freeze" begin="11.end" /></path><path d="M66.99,13.5c1.3,1.69,1.51,2.16,1.79,5.8C71.05,49.74,77,78.5,89.76,93.3c4.1,4.75,4.39,0.73,3.74-6.76" stroke-dasharray="97.06" stroke-dashoffset="97.06"><animate attributeName="stroke-dashoffset" values="97.06" fill="freeze" begin="6230.click" /><animate id="13" attributeName="stroke-dashoffset" values="97.06;0" dur="0.73s" fill="freeze" begin="12.end" /></path></g><g><path d="M87.24,47.24c0.09,1.01,0.34,2.67-0.19,4.06c-3.8,9.95-14.8,29.2-33.3,39.79" stroke-dasharray="56.91" stroke-dashoffset="56.91"><animate attributeName="stroke-dashoffset" values="56.91" fill="freeze" begin="6230.click" /><animate id="14" attributeName="stroke-dashoffset" values="56.91;0" dur="0.57s" fill="freeze" begin="13.end" /></path></g><g p5:part="2" xmlns:p5="http://kanjivg.tagaini.net"><g><path d="M79.99,17.71c2.39,2.18,6.22,7.16,7.34,10.89" stroke-dasharray="13.25" stroke-dashoffset="13.25"><animate attributeName="stroke-dashoffset" values="13.25" fill="freeze" begin="6230.click" /><animate id="15" attributeName="stroke-dashoffset" values="13.25;0" dur="0.13s" fill="freeze" begin="14.end" /></path></g></g></g></g></g></svg>