<svg xmlns="http://www.w3.org/2000/svg" width="109" height="109" viewBox="0 0 109 109" id="627f"><g fill="none" stroke="#666" stroke-width="6" stroke-linecap="round" stroke-linejoin="round"><g><g><g><path d="M35.03,17.15c2.23,0.85,4.23,0.93,6.6,0.51c6.49-1.16,14.99-3.41,19.51-4.41c1.51-0.33,3.18,0.98,1.67,3.03c-2.94,3.97-8.07,10.35-13.54,15" /></g><g><g><path d="M46.94,32.24c7.31,9.89,11.93,39.64,3.2,58.83c-4.43,9.73-8.51,2.93-9.89,1.09" /></g></g></g><g><g><path d="M40,43.14c0.94,0.38,2.66,0.44,3.6,0.38c4.15-0.27,11.74-1.01,16.66-1.42c1.38-0.11,2.5-0.19,3.21-0.22" /></g><g><g><path d="M40.25,56.39c0.94,0.38,2.66,0.42,3.6,0.38c3.65-0.15,10.96-0.9,15.92-1.33c1.83-0.16,3.33-0.02,4.19-0.05" /></g><g><path d="M38.5,71.39c0.94,0.38,2.66,0.43,3.6,0.38C47,71.5,56,70.12,63.05,68.62c1.77-0.38,3.19-0.21,3.91-0.24" /></g></g></g><g p4:partial xmlns:p4="http://kanjivg.tagaini.net"><path d="M11.5,48.63c1.23,0.32,3.06,0.46,4.41,0.14c2.72-0.64,9.59-3.02,12.37-4.19c2.23-0.94,4.2-0.09,3.84,2.82c-1.24,9.85-10.37,28.35-18.42,37.1" /><g><path d="M85.25,31.75c0,1-0.44,1.94-0.95,2.67c-3.42,4.88-10.08,10.59-15.56,13.08" /></g><path d="M63.25,46.75c3.69,1.15,17.25,23.14,26.04,32.08c1.87,1.9,3.97,3.74,6.21,5.17" /></g></g></g><g fill="none" stroke="#000" stroke-width="3" stroke-linecap="round" stroke-linejoin="round"><path d="M35.03,17.15c2.23,0.85,4.23,0.93,6.6,0.51c6.49-1.16,14.99-3.41,19.51-4.41c1.51-0.33,3.18,0.98,1.67,3.03c-2.94,3.97-8.07,10.35-13.54,15" stroke-dasharray="51.748" stroke-dashoffset="51.748"><animate attributeName="stroke-dashoffset" values="51.748;51.748;0" dur="0.517s" fill="freeze" begin="0s;627f.click" /></path><path d="M46.94,32.24c7.31,9.89,11.93,39.64,3.2,58.83c-4.43,9.73-8.51,2.93-9.89,1.09" stroke-dasharray="74.931" stroke-dashoffset="74.931"><animate attributeName="stroke-dashoffset" values="74.931" fill="freeze" begin="627f.click" /><animate attributeName="stroke-dashoffset" values="74.931;74.931;0" keyTimes="0;0.479;1" dur="1.08s" fill="freeze" begin="0s;627f.click" /></path><path d="M40,43.14c0.94,0.38,2.66,0.44,3.6,0.38c4.15-0.27,11.74-1.01,16.66-1.42c1.38-0.11,2.5-0.19,3.21-0.22" stroke-dasharray="23.582" stroke-dashoffset="23.582"><animate attributeName="stroke-dashoffset" values="23.582" fill="freeze" begin="627f.click" /><animate attributeName="stroke-dashoffset" values="23.582;23.582;0" keyTimes="0;0.821;1" dur="1.316s" fill="freeze" begin="0s;627f.click" /></path><path d="M40.25,56.39c0.94,0.38,2.66,0.42,3.6,0.38c3.65-0.15,10.96-0.9,15.92-1.33c1.83-0.16,3.33-0.02,4.19-0.05" stroke-dasharray="23.811" stroke-dashoffset="23.811"><animate attributeName="stroke-dashoffset" values="23.811" fill="freeze" begin="627f.click" /><animate attributeName="stroke-dashoffset" values="23.811;23.811;0" keyTimes="0;0.847;1" dur="1.554s" fill="freeze" begin="0s;627f.click" /></path><path d="M38.5,71.39c0.94,0.38,2.66,0.43,3.6,0.38C47,71.5,56,70.12,63.05,68.62c1.77-0.38,3.19-0.21,3.91-0.24" stroke-dasharray="28.771" stroke-dashoffset="28.771"><animate attributeName="stroke-dashoffset" values="28.771" fill="freeze" begin="627f.click" /><animate attributeName="stroke-dashoffset" values="28.771;28.771;0" keyTimes="0;0.844;1" dur="1.842s" fill="freeze" begin="0s;627f.click" /></path><path d="M11.5,48.63c1.23,0.32,3.06,0.46,4.41,0.14c2.72-0.64,9.59-3.02,12.37-4.19c2.23-0.94,4.2-0.09,3.84,2.82c-1.24,9.85-10.37,28.35-18.42,37.1" stroke-dasharray="65.559" stroke-dashoffset="65.559"><animate attributeName="stroke-dashoffset" values="65.559" fill="freeze" begin="627f.click" /><animate attributeName="stroke-dashoffset" values="65.559;65.559;0" keyTimes="0;0.789;1" dur="2.335s" fill="freeze" begin="0s;627f.click" /></path><path d="M85.25,31.75c0,1-0.44,1.94-0.95,2.67c-3.42,4.88-10.08,10.59-15.56,13.08" stroke-dasharray="23.4" stroke-dashoffset="23.4"><animate attributeName="stroke-dashoffset" values="23.4" fill="freeze" begin="627f.click" /><animate attributeName="stroke-dashoffset" values="23.4;23.4;0" keyTimes="0;0.909;1" dur="2.569s" fill="freeze" begin="0s;627f.click" /></path><path d="M63.25,46.75c3.69,1.15,17.25,23.14,26.04,32.08c1.87,1.9,3.97,3.74,6.21,5.17" stroke-dasharray="49.539" stroke-dashoffset="49.539"><animate attributeName="stroke-dashoffset" values="49.539" fill="freeze" begin="627f.click" /><animate attributeName="stroke-dashoffset" values="49.539;49.539;0" keyTimes="0;0.838;1" dur="3.064s" fill="freeze" begin="0s;627f.click" /></path></g></svg>