<svg xmlns="http://www.w3.org/2000/svg" width="109" height="109" viewBox="0 0 109 109" id="6280"><g fill="none" stroke="#666" stroke-width="9" stroke-linecap="round" stroke-linejoin="round"><g><g><path d="M13.75,39.67c1.5,0.33,2.77,0.3,5,0c4.77-0.65,11.96-2.11,18.12-3.18c1.38-0.24,2.63-0.36,4.04-0.24" /><path d="M29.52,15.5c0.99,0.99,1.76,2.62,1.76,5.02c0,15.23,0.24,53.46,0.24,64.9c0,12.83-6.32,3.78-7.77,2.25" /><path d="M13.47,67.24c1.02,0.79,2.66,0.89,4.03-0.24c8.13-6.65,11.5-9.25,21.75-17.58" /></g><g p4:phon="支" xmlns:p4="http://kanjivg.tagaini.net"><g><path d="M46.35,35.08c2.65,0.54,4.32,0.46,6.65-0.03c7.49-1.56,20.68-3.82,27.89-4.77c2.23-0.3,4.73-0.28,6.45,0.12" /><path d="M63.59,13.34c1.29,1.29,1.74,2.91,1.74,4.36c0,0.93,0.03,26.18,0.03,32.49" /></g><g><path d="M49.48,53.7c1.58,0.39,3.52,0.48,6.67-0.11c3.15-0.59,20.2-4.77,22.32-5.5c2.78-0.97,4.03,1.41,2.8,3.93C73.12,68.71,60.75,86.5,40.09,95.07" /><path d="M47.44,59.93c5.31,0.32,22.68,17.94,37.29,28.53c2.6,1.88,5.26,3.28,8.26,4.28" /></g></g></g></g><g fill="none" stroke="#000" stroke-width="5" stroke-linecap="round" stroke-linejoin="round"><g><g><path d="M13.75,39.67c1.5,0.33,2.77,0.3,5,0c4.77-0.65,11.96-2.11,18.12-3.18c1.38-0.24,2.63-0.36,4.04-0.24" stroke-dasharray="27.488" stroke-dashoffset="27.488"><animate attributeName="stroke-dashoffset" values="27.488;27.488;0" dur="0.275s" fill="freeze" begin="0s;6280.click" /></path><path d="M29.52,15.5c0.99,0.99,1.76,2.62,1.76,5.02c0,15.23,0.24,53.46,0.24,64.9c0,12.83-6.32,3.78-7.77,2.25" stroke-dasharray="85.341" stroke-dashoffset="85.341"><animate attributeName="stroke-dashoffset" values="85.341" fill="freeze" begin="6280.click" /><animate attributeName="stroke-dashoffset" values="85.341;85.341;0" keyTimes="0;0.3;1" dur="0.917s" fill="freeze" begin="0s;6280.click" /></path><path d="M13.47,67.24c1.02,0.79,2.66,0.89,4.03-0.24c8.13-6.65,11.5-9.25,21.75-17.58" stroke-dasharray="32.332" stroke-dashoffset="32.332"><animate attributeName="stroke-dashoffset" values="32.332" fill="freeze" begin="6280.click" /><animate attributeName="stroke-dashoffset" values="32.332;32.332;0" keyTimes="0;0.74;1" dur="1.24s" fill="freeze" begin="0s;6280.click" /></path></g><g p4:phon="支" xmlns:p4="http://kanjivg.tagaini.net"><g><path d="M46.35,35.08c2.65,0.54,4.32,0.46,6.65-0.03c7.49-1.56,20.68-3.82,27.89-4.77c2.23-0.3,4.73-0.28,6.45,0.12" stroke-dasharray="41.489" stroke-dashoffset="41.489"><animate attributeName="stroke-dashoffset" values="41.489" fill="freeze" begin="6280.click" /><animate attributeName="stroke-dashoffset" values="41.489;41.489;0" keyTimes="0;0.749;1" dur="1.655s" fill="freeze" begin="0s;6280.click" /></path><path d="M63.59,13.34c1.29,1.29,1.74,2.91,1.74,4.36c0,0.93,0.03,26.18,0.03,32.49" stroke-dasharray="37.311" stroke-dashoffset="37.311"><animate attributeName="stroke-dashoffset" values="37.311" fill="freeze" begin="6280.click" /><animate attributeName="stroke-dashoffset" values="37.311;37.311;0" keyTimes="0;0.816;1" dur="2.028s" fill="freeze" begin="0s;6280.click" /></path></g><g><path d="M49.48,53.7c1.58,0.39,3.52,0.48,6.67-0.11c3.15-0.59,20.2-4.77,22.32-5.5c2.78-0.97,4.03,1.41,2.8,3.93C73.12,68.71,60.75,86.5,40.09,95.07" stroke-dasharray="97.308" stroke-dashoffset="97.308"><animate attributeName="stroke-dashoffset" values="97.308" fill="freeze" begin="6280.click" /><animate attributeName="stroke-dashoffset" values="97.308;97.308;0" keyTimes="0;0.735;1" dur="2.76s" fill="freeze" begin="0s;6280.click" /></path><path d="M47.44,59.93c5.31,0.32,22.68,17.94,37.29,28.53c2.6,1.88,5.26,3.28,8.26,4.28" stroke-dasharray="56.491" stroke-dashoffset="56.491"><animate attributeName="stroke-dashoffset" values="56.491" fill="freeze" begin="6280.click" /><animate attributeName="stroke-dashoffset" values="56.491;56.491;0" keyTimes="0;0.83;1" dur="3.325s" fill="freeze" begin="0s;6280.click" /></path></g></g></g></g></svg>