<svg xmlns="http://www.w3.org/2000/svg" width="109" height="109" viewBox="0 0 109 109" id="6282"><g fill="none" stroke="#666" stroke-width="9" stroke-linecap="round" stroke-linejoin="round"><g><g><path d="M13,38.34c2.4,0.29,1.46,0.64,4.03,0.29c6.33-0.86,17.84-2.88,28.39-4.22" /><path d="M29.77,13c0.48,0.92,1.67,2.49,1.76,5.52c0.4,14.55,0.24,62.94,0.24,67.9c0,14.25-6.82,4.53-8.27,3" /><path d="M12,66.38c2.57,1.84,4.22,1,6.8-0.58c1.52-0.93,18.28-12.17,24.7-16.63" /></g><g p4:partial xmlns:p4="http://kanjivg.tagaini.net"><path d="M46.36,25.97c1.89,0.28,3.73,0.62,4.86,0.53c12.31-0.98,26.03-1.99,36.7-2.85c1.71-0.14,3.28,0.08,4.69,0.42" /><path d="M67.61,26.86c1.74,2.33,1.74,3.73,1.74,5.6c0,13.06-0.02,37.21-0.02,58.14" /><path d="M48.64,57.37c0.79,0.52,3.41,0.78,4.23,0.73c9.88-0.6,23.47-1.23,33.41-2.15c0.99-0.09,3.17-0.21,4.65,0.25" /><path d="M41.59,91.89c1.41,0.36,3.89,0.72,6.1,0.5C62,91,76.5,89.75,93.4,90.02c1.76,0.03,3.87,0.4,4.75,0.78" /></g></g></g><g fill="none" stroke="#000" stroke-width="5" stroke-linecap="round" stroke-linejoin="round"><g><g><path d="M13,38.34c2.4,0.29,1.46,0.64,4.03,0.29c6.33-0.86,17.84-2.88,28.39-4.22" stroke-dasharray="32.78" stroke-dashoffset="32.78"><animate id="0" attributeName="stroke-dashoffset" values="32.78;0" dur="0.33s" fill="freeze" begin="0s;6282.click" /></path><path d="M29.77,13c0.48,0.92,1.67,2.49,1.76,5.52c0.4,14.55,0.24,62.94,0.24,67.9c0,14.25-6.82,4.53-8.27,3" stroke-dasharray="90.01" stroke-dashoffset="90.01"><animate attributeName="stroke-dashoffset" values="90.01" fill="freeze" begin="6282.click" /><animate id="1" attributeName="stroke-dashoffset" values="90.01;0" dur="0.68s" fill="freeze" begin="0.end" /></path><path d="M12,66.38c2.57,1.84,4.22,1,6.8-0.58c1.52-0.93,18.28-12.17,24.7-16.63" stroke-dasharray="37.19" stroke-dashoffset="37.19"><animate attributeName="stroke-dashoffset" values="37.19" fill="freeze" begin="6282.click" /><animate id="2" attributeName="stroke-dashoffset" values="37.19;0" dur="0.37s" fill="freeze" begin="1.end" /></path></g><g p4:partial xmlns:p4="http://kanjivg.tagaini.net"><path d="M46.36,25.97c1.89,0.28,3.73,0.62,4.86,0.53c12.31-0.98,26.03-1.99,36.7-2.85c1.71-0.14,3.28,0.08,4.69,0.42" stroke-dasharray="46.44" stroke-dashoffset="46.44"><animate attributeName="stroke-dashoffset" values="46.44" fill="freeze" begin="6282.click" /><animate id="3" attributeName="stroke-dashoffset" values="46.44;0" dur="0.46s" fill="freeze" begin="2.end" /></path><path d="M67.61,26.86c1.74,2.33,1.74,3.73,1.74,5.6c0,13.06-0.02,37.21-0.02,58.14" stroke-dasharray="64.15" stroke-dashoffset="64.15"><animate attributeName="stroke-dashoffset" values="64.15" fill="freeze" begin="6282.click" /><animate id="4" attributeName="stroke-dashoffset" values="64.15;0" dur="0.48s" fill="freeze" begin="3.end" /></path><path d="M48.64,57.37c0.79,0.52,3.41,0.78,4.23,0.73c9.88-0.6,23.47-1.23,33.41-2.15c0.99-0.09,3.17-0.21,4.65,0.25" stroke-dasharray="42.49" stroke-dashoffset="42.49"><animate attributeName="stroke-dashoffset" values="42.49" fill="freeze" begin="6282.click" /><animate id="5" attributeName="stroke-dashoffset" values="42.49;0" dur="0.42s" fill="freeze" begin="4.end" /></path><path d="M41.59,91.89c1.41,0.36,3.89,0.72,6.1,0.5C62,91,76.5,89.75,93.4,90.02c1.76,0.03,3.87,0.4,4.75,0.78" stroke-dasharray="56.78" stroke-dashoffset="56.78"><animate attributeName="stroke-dashoffset" values="56.78" fill="freeze" begin="6282.click" /><animate id="6" attributeName="stroke-dashoffset" values="56.78;0" dur="0.57s" fill="freeze" begin="5.end" /></path></g></g></g></svg>