<svg xmlns="http://www.w3.org/2000/svg" width="109" height="109" viewBox="0 0 109 109" id="62bb"><g fill="none" stroke="#666" stroke-width="9" stroke-linecap="round" stroke-linejoin="round"><g><g><path d="M14.5,37.42c2.08,0.25,1.27,0.55,3.5,0.25c5.5-0.75,15.5-2.5,24.67-3.67" /><path d="M29.27,14c0.48,0.92,1.67,2.49,1.76,5.52c0.4,14.55,0.24,62.94,0.24,67.9c0,14.25-6.32,3.53-7.77,2" /><path d="M14.5,65.1c2.33,1.46,3.83,0.79,6.16-0.46c1.37-0.74,17.27-10.18,23.09-13.72" /></g><g><g p5:partial xmlns:p5="http://kanjivg.tagaini.net"><path d="M50.25,32.76c1,0.99,1.31,2.08,1.48,2.88c1.36,6.55,2.43,23.18,3.22,35.25" /><path d="M51.69,34.78c15.06-2.31,29.51-3.8,37.56-4.44c2.96-0.24,4.47,1.66,4.31,3.42c-0.59,6.44-2.56,24.55-4.94,34.76" /><path d="M53.46,50.46c3.52-0.32,35.46-3.19,38.36-3.19" /><path d="M55.51,67.32c9.99-0.83,21.74-1.93,33.54-2.54" /></g><g><path d="M69.87,12.25c1.09,0.5,1.74,2.25,1.96,3.25c0.22,1-0.22,67.5-0.22,82" /></g></g></g></g><g fill="none" stroke="#000" stroke-width="5" stroke-linecap="round" stroke-linejoin="round"><g><g><path d="M14.5,37.42c2.08,0.25,1.27,0.55,3.5,0.25c5.5-0.75,15.5-2.5,24.67-3.67" stroke-dasharray="28.49" stroke-dashoffset="28.49"><animate id="0" attributeName="stroke-dashoffset" values="28.49;0" dur="0.28s" fill="freeze" begin="0s;62bb.click" /></path><path d="M29.27,14c0.48,0.92,1.67,2.49,1.76,5.52c0.4,14.55,0.24,62.94,0.24,67.9c0,14.25-6.32,3.53-7.77,2" stroke-dasharray="89.8" stroke-dashoffset="89.8"><animate attributeName="stroke-dashoffset" values="89.8" fill="freeze" begin="62bb.click" /><animate id="1" attributeName="stroke-dashoffset" values="89.8;0" dur="0.68s" fill="freeze" begin="0.end" /></path><path d="M14.5,65.1c2.33,1.46,3.83,0.79,6.16-0.46c1.37-0.74,17.27-10.18,23.09-13.72" stroke-dasharray="33.45" stroke-dashoffset="33.45"><animate attributeName="stroke-dashoffset" values="33.45" fill="freeze" begin="62bb.click" /><animate id="2" attributeName="stroke-dashoffset" values="33.45;0" dur="0.33s" fill="freeze" begin="1.end" /></path></g><g><g p5:partial xmlns:p5="http://kanjivg.tagaini.net"><path d="M50.25,32.76c1,0.99,1.31,2.08,1.48,2.88c1.36,6.55,2.43,23.18,3.22,35.25" stroke-dasharray="38.7" stroke-dashoffset="38.7"><animate attributeName="stroke-dashoffset" values="38.7" fill="freeze" begin="62bb.click" /><animate id="3" attributeName="stroke-dashoffset" values="38.7;0" dur="0.39s" fill="freeze" begin="2.end" /></path><path d="M51.69,34.78c15.06-2.31,29.51-3.8,37.56-4.44c2.96-0.24,4.47,1.66,4.31,3.42c-0.59,6.44-2.56,24.55-4.94,34.76" stroke-dasharray="79.27" stroke-dashoffset="79.27"><animate attributeName="stroke-dashoffset" values="79.27" fill="freeze" begin="62bb.click" /><animate id="4" attributeName="stroke-dashoffset" values="79.27;0" dur="0.6s" fill="freeze" begin="3.end" /></path><path d="M53.46,50.46c3.52-0.32,35.46-3.19,38.36-3.19" stroke-dasharray="38.49" stroke-dashoffset="38.49"><animate attributeName="stroke-dashoffset" values="38.49" fill="freeze" begin="62bb.click" /><animate id="5" attributeName="stroke-dashoffset" values="38.49;0" dur="0.38s" fill="freeze" begin="4.end" /></path><path d="M55.51,67.32c9.99-0.83,21.74-1.93,33.54-2.54" stroke-dasharray="33.64" stroke-dashoffset="33.64"><animate attributeName="stroke-dashoffset" values="33.64" fill="freeze" begin="62bb.click" /><animate id="6" attributeName="stroke-dashoffset" values="33.64;0" dur="0.34s" fill="freeze" begin="5.end" /></path></g><g><path d="M69.87,12.25c1.09,0.5,1.74,2.25,1.96,3.25c0.22,1-0.22,67.5-0.22,82" stroke-dasharray="85.91" stroke-dashoffset="85.91"><animate attributeName="stroke-dashoffset" values="85.91" fill="freeze" begin="62bb.click" /><animate id="7" attributeName="stroke-dashoffset" values="85.91;0" dur="0.65s" fill="freeze" begin="6.end" /></path></g></g></g></g></svg>