<svg xmlns="http://www.w3.org/2000/svg" width="109" height="109" viewBox="0 0 109 109" id="62bd"><g fill="none" stroke="#666" stroke-width="9" stroke-linecap="round" stroke-linejoin="round"><g><g><path d="M14.5,39.17c1.99,0.24,3.85,0.46,5.88,0.16c5.03-0.73,12.81-1.89,19.87-2.85c1.24-0.17,2.63-0.23,3.67-0.23" /><path d="M30.77,16c1.12,1.12,1.51,2.49,1.51,5.52c0,15.23-0.01,53.46-0.01,64.9c0,14.25-6.32,3.53-7.77,2" /><path d="M14.25,69.43C15.5,70.5,16.88,70.38,19,69c5.06-3.27,8.12-5.38,20.25-13.33" /></g><g p4:phon="由" xmlns:p4="http://kanjivg.tagaini.net"><g p4:part="1" p4:partial><path d="M49.71,46.24c0.9,0.9,1.54,2.38,1.75,4.19c1,8.66,2.07,21.54,2.92,34.56c0.16,2.49,0.31,5,0.45,7.51" /><path d="M51.21,47.53C66,45.5,82.34,43.85,90.76,43.01c3.1-0.31,4.67,2.16,4.5,4.44c-0.53,7.12-1.34,24.62-2.93,36.34c-0.28,2.04-0.58,3.91-0.91,5.51" /></g><g><path d="M70.61,15.32c1.1,1.1,1.42,2.18,1.42,4.49c0,14.64-0.03,62.53-0.03,66.35" /></g><g p4:part="2" p4:partial><path d="M54.31,67.3c8.31-1.05,28.56-3.05,38.83-3.58" /><path d="M55.92,88.85c11.7-1.22,23.64-2.34,34.85-2.57" /></g></g></g></g><g fill="none" stroke="#000" stroke-width="5" stroke-linecap="round" stroke-linejoin="round"><g><g><path d="M14.5,39.17c1.99,0.24,3.85,0.46,5.88,0.16c5.03-0.73,12.81-1.89,19.87-2.85c1.24-0.17,2.63-0.23,3.67-0.23" stroke-dasharray="29.65" stroke-dashoffset="29.65"><animate id="0" attributeName="stroke-dashoffset" values="29.65;0" dur="0.3s" fill="freeze" begin="0s;62bd.click" /></path><path d="M30.77,16c1.12,1.12,1.51,2.49,1.51,5.52c0,15.23-0.01,53.46-0.01,64.9c0,14.25-6.32,3.53-7.77,2" stroke-dasharray="86.82" stroke-dashoffset="86.82"><animate attributeName="stroke-dashoffset" values="86.82" fill="freeze" begin="62bd.click" /><animate id="1" attributeName="stroke-dashoffset" values="86.82;0" dur="0.65s" fill="freeze" begin="0.end" /></path><path d="M14.25,69.43C15.5,70.5,16.88,70.38,19,69c5.06-3.27,8.12-5.38,20.25-13.33" stroke-dasharray="29.43" stroke-dashoffset="29.43"><animate attributeName="stroke-dashoffset" values="29.43" fill="freeze" begin="62bd.click" /><animate id="2" attributeName="stroke-dashoffset" values="29.43;0" dur="0.29s" fill="freeze" begin="1.end" /></path></g><g p4:phon="由" xmlns:p4="http://kanjivg.tagaini.net"><g p4:part="1" p4:partial><path d="M49.71,46.24c0.9,0.9,1.54,2.38,1.75,4.19c1,8.66,2.07,21.54,2.92,34.56c0.16,2.49,0.31,5,0.45,7.51" stroke-dasharray="46.83" stroke-dashoffset="46.83"><animate attributeName="stroke-dashoffset" values="46.83" fill="freeze" begin="62bd.click" /><animate id="3" attributeName="stroke-dashoffset" values="46.83;0" dur="0.47s" fill="freeze" begin="2.end" /></path><path d="M51.21,47.53C66,45.5,82.34,43.85,90.76,43.01c3.1-0.31,4.67,2.16,4.5,4.44c-0.53,7.12-1.34,24.62-2.93,36.34c-0.28,2.04-0.58,3.91-0.91,5.51" stroke-dasharray="89.14" stroke-dashoffset="89.14"><animate attributeName="stroke-dashoffset" values="89.14" fill="freeze" begin="62bd.click" /><animate id="4" attributeName="stroke-dashoffset" values="89.14;0" dur="0.67s" fill="freeze" begin="3.end" /></path></g><g><path d="M70.61,15.32c1.1,1.1,1.42,2.18,1.42,4.49c0,14.64-0.03,62.53-0.03,66.35" stroke-dasharray="71.21" stroke-dashoffset="71.21"><animate attributeName="stroke-dashoffset" values="71.21" fill="freeze" begin="62bd.click" /><animate id="5" attributeName="stroke-dashoffset" values="71.21;0" dur="0.54s" fill="freeze" begin="4.end" /></path></g><g p4:part="2" p4:partial><path d="M54.31,67.3c8.31-1.05,28.56-3.05,38.83-3.58" stroke-dasharray="39" stroke-dashoffset="39"><animate attributeName="stroke-dashoffset" values="39" fill="freeze" begin="62bd.click" /><animate id="6" attributeName="stroke-dashoffset" values="39;0" dur="0.39s" fill="freeze" begin="5.end" /></path><path d="M55.92,88.85c11.7-1.22,23.64-2.34,34.85-2.57" stroke-dasharray="34.95" stroke-dashoffset="34.95"><animate attributeName="stroke-dashoffset" values="34.95" fill="freeze" begin="62bd.click" /><animate id="7" attributeName="stroke-dashoffset" values="34.95;0" dur="0.35s" fill="freeze" begin="6.end" /></path></g></g></g></g></svg>