<svg xmlns="http://www.w3.org/2000/svg" width="109" height="109" viewBox="0 0 109 109" id="62c7"><g fill="none" stroke="#666" stroke-width="9" stroke-linecap="round" stroke-linejoin="round"><g><g><path d="M11,36.02c2.23,0.27,1.34,0.38,3.75,0.27C21,36,31.35,34.61,41.17,33.37" /><path d="M25.38,12c0.58,0.95,2.09,2.58,2.09,5.72c0,15.8,0.29,58.56,0.29,70.42c0,14.78-7.55,3.66-9.27,2.07" /><path d="M11,65.65c1.25,1.36,3.24,2.16,6,0.9c1.63-0.74,12.85-7.08,19.75-10.64" /></g><g><g p5:part="1" xmlns:p5="http://kanjivg.tagaini.net"><path d="M53.52,18.12c0.88,1.03,2.1,4.43,1.86,7.11c-1.13,12.66-4.35,36.9-8.06,48.74c-1.13,3.61-0.34,5.28,2.8,5.22c12.1-0.25,27.13,0.56,41.62,9.29" /><path d="M55.2,20.84c10.05-1.09,23.05-2.34,29.07-2.59c3.17-0.13,4.5,0.76,4.24,4.26c-1.35,18.82-3.4,51.17-10.2,68.91c-2.83,7.38-7.61,1.68-8.81,0" /></g><path d="M66.03,29.79c3.35,1.81,8.66,7.46,9.5,10.28" /><path d="M61.67,60.39c3.45,2.08,8.91,8.55,9.78,11.78" /><g p5:part="2" xmlns:p5="http://kanjivg.tagaini.net"><path d="M42.09,50.54c1.63,0.74,4.61,0.81,6.25,0.74c14.15-0.53,28.36-1.53,43.96-2.96c2.7-0.25,5.35-0.15,6.7,0.22" /></g></g></g></g><g fill="none" stroke="#000" stroke-width="5" stroke-linecap="round" stroke-linejoin="round"><g><g><path d="M11,36.02c2.23,0.27,1.34,0.38,3.75,0.27C21,36,31.35,34.61,41.17,33.37" stroke-dasharray="30.36" stroke-dashoffset="30.36"><animate id="0" attributeName="stroke-dashoffset" values="30.36;0" dur="0.3s" fill="freeze" begin="0s;62c7.click" /></path><path d="M25.38,12c0.58,0.95,2.09,2.58,2.09,5.72c0,15.8,0.29,58.56,0.29,70.42c0,14.78-7.55,3.66-9.27,2.07" stroke-dasharray="94.11" stroke-dashoffset="94.11"><animate attributeName="stroke-dashoffset" values="94.11" fill="freeze" begin="62c7.click" /><animate id="1" attributeName="stroke-dashoffset" values="94.11;0" dur="0.71s" fill="freeze" begin="0.end" /></path><path d="M11,65.65c1.25,1.36,3.24,2.16,6,0.9c1.63-0.74,12.85-7.08,19.75-10.64" stroke-dasharray="28.97" stroke-dashoffset="28.97"><animate attributeName="stroke-dashoffset" values="28.97" fill="freeze" begin="62c7.click" /><animate id="2" attributeName="stroke-dashoffset" values="28.97;0" dur="0.29s" fill="freeze" begin="1.end" /></path></g><g><g p5:part="1" xmlns:p5="http://kanjivg.tagaini.net"><path d="M53.52,18.12c0.88,1.03,2.1,4.43,1.86,7.11c-1.13,12.66-4.35,36.9-8.06,48.74c-1.13,3.61-0.34,5.28,2.8,5.22c12.1-0.25,27.13,0.56,41.62,9.29" stroke-dasharray="107.71" stroke-dashoffset="107.71"><animate attributeName="stroke-dashoffset" values="107.71" fill="freeze" begin="62c7.click" /><animate id="3" attributeName="stroke-dashoffset" values="107.71;0" dur="0.81s" fill="freeze" begin="2.end" /></path><path d="M55.2,20.84c10.05-1.09,23.05-2.34,29.07-2.59c3.17-0.13,4.5,0.76,4.24,4.26c-1.35,18.82-3.4,51.17-10.2,68.91c-2.83,7.38-7.61,1.68-8.81,0" stroke-dasharray="118.41" stroke-dashoffset="118.41"><animate attributeName="stroke-dashoffset" values="118.41" fill="freeze" begin="62c7.click" /><animate id="4" attributeName="stroke-dashoffset" values="118.41;0" dur="0.89s" fill="freeze" begin="3.end" /></path></g><path d="M66.03,29.79c3.35,1.81,8.66,7.46,9.5,10.28" stroke-dasharray="14.2" stroke-dashoffset="14.2"><animate attributeName="stroke-dashoffset" values="14.2" fill="freeze" begin="62c7.click" /><animate id="5" attributeName="stroke-dashoffset" values="14.2;0" dur="0.14s" fill="freeze" begin="4.end" /></path><path d="M61.67,60.39c3.45,2.08,8.91,8.55,9.78,11.78" stroke-dasharray="15.52" stroke-dashoffset="15.52"><animate attributeName="stroke-dashoffset" values="15.52" fill="freeze" begin="62c7.click" /><animate id="6" attributeName="stroke-dashoffset" values="15.52;0" dur="0.16s" fill="freeze" begin="5.end" /></path><g p5:part="2" xmlns:p5="http://kanjivg.tagaini.net"><path d="M42.09,50.54c1.63,0.74,4.61,0.81,6.25,0.74c14.15-0.53,28.36-1.53,43.96-2.96c2.7-0.25,5.35-0.15,6.7,0.22" stroke-dasharray="57.13" stroke-dashoffset="57.13"><animate attributeName="stroke-dashoffset" values="57.13" fill="freeze" begin="62c7.click" /><animate id="7" attributeName="stroke-dashoffset" values="57.13;0" dur="0.57s" fill="freeze" begin="6.end" /></path></g></g></g></g></svg>