<svg xmlns="http://www.w3.org/2000/svg" width="109" height="109" viewBox="0 0 109 109" id="62d1"><g fill="none" stroke="#666" stroke-width="9" stroke-linecap="round" stroke-linejoin="round"><g><g><path d="M14.5,38.42c2.08,0.25,1.27,0.55,3.5,0.25c5.5-0.75,13-2,22.17-3.17" /><path d="M28.77,13c0.48,0.92,1.67,2.49,1.76,5.52c0.4,14.55,0.24,64.44,0.24,69.4c0,14.25-6.32,3.53-7.77,2" /><path d="M12.5,65.42c2.81,1.77,4.62,0.96,7.43-0.56c1.66-0.89,11.79-6.89,18.82-11.2" /></g><g><g p5:part="1" xmlns:p5="http://kanjivg.tagaini.net"><g><path d="M46.86,37.02c1.29,0.46,3.67,0.57,4.96,0.46c9.52-0.84,24.18-2.73,39.79-3.83c2.15-0.15,3.45,0.22,4.53,0.45" /><path d="M56.17,16.37c1.07,0.49,1.71,2.19,1.93,3.17c0.21,0.98,0,71.12-0.21,77.21" /></g><path d="M79.62,13.5c1.07,0.49,1.71,2.19,1.93,3.17c0.21,0.98,0,71.01-0.21,77.1" /></g><path d="M58.26,61.34c5.49-0.34,20.28-1.93,23.23-1.93" /><g p5:part="2" xmlns:p5="http://kanjivg.tagaini.net"><path d="M58.26,91.65c6.4-0.24,17.08-1.71,22.98-1.95" /></g></g></g></g><g fill="none" stroke="#000" stroke-width="5" stroke-linecap="round" stroke-linejoin="round"><g><g><path d="M14.5,38.42c2.08,0.25,1.27,0.55,3.5,0.25c5.5-0.75,13-2,22.17-3.17" stroke-dasharray="25.94" stroke-dashoffset="25.94"><animate id="0" attributeName="stroke-dashoffset" values="25.94;0" dur="0.26s" fill="freeze" begin="0s;62d1.click" /></path><path d="M28.77,13c0.48,0.92,1.67,2.49,1.76,5.52c0.4,14.55,0.24,64.44,0.24,69.4c0,14.25-6.32,3.53-7.77,2" stroke-dasharray="91.3" stroke-dashoffset="91.3"><animate attributeName="stroke-dashoffset" values="91.3" fill="freeze" begin="62d1.click" /><animate id="1" attributeName="stroke-dashoffset" values="91.3;0" dur="0.69s" fill="freeze" begin="0.end" /></path><path d="M12.5,65.42c2.81,1.77,4.62,0.96,7.43-0.56c1.66-0.89,11.79-6.89,18.82-11.2" stroke-dasharray="29.86" stroke-dashoffset="29.86"><animate attributeName="stroke-dashoffset" values="29.86" fill="freeze" begin="62d1.click" /><animate id="2" attributeName="stroke-dashoffset" values="29.86;0" dur="0.3s" fill="freeze" begin="1.end" /></path></g><g><g p5:part="1" xmlns:p5="http://kanjivg.tagaini.net"><g><path d="M46.86,37.02c1.29,0.46,3.67,0.57,4.96,0.46c9.52-0.84,24.18-2.73,39.79-3.83c2.15-0.15,3.45,0.22,4.53,0.45" stroke-dasharray="49.56" stroke-dashoffset="49.56"><animate attributeName="stroke-dashoffset" values="49.56" fill="freeze" begin="62d1.click" /><animate id="3" attributeName="stroke-dashoffset" values="49.56;0" dur="0.5s" fill="freeze" begin="2.end" /></path><path d="M56.17,16.37c1.07,0.49,1.71,2.19,1.93,3.17c0.21,0.98,0,71.12-0.21,77.21" stroke-dasharray="81.03" stroke-dashoffset="81.03"><animate attributeName="stroke-dashoffset" values="81.03" fill="freeze" begin="62d1.click" /><animate id="4" attributeName="stroke-dashoffset" values="81.03;0" dur="0.61s" fill="freeze" begin="3.end" /></path></g><path d="M79.62,13.5c1.07,0.49,1.71,2.19,1.93,3.17c0.21,0.98,0,71.01-0.21,77.1" stroke-dasharray="80.92" stroke-dashoffset="80.92"><animate attributeName="stroke-dashoffset" values="80.92" fill="freeze" begin="62d1.click" /><animate id="5" attributeName="stroke-dashoffset" values="80.92;0" dur="0.61s" fill="freeze" begin="4.end" /></path></g><path d="M58.26,61.34c5.49-0.34,20.28-1.93,23.23-1.93" stroke-dasharray="23.31" stroke-dashoffset="23.31"><animate attributeName="stroke-dashoffset" values="23.31" fill="freeze" begin="62d1.click" /><animate id="6" attributeName="stroke-dashoffset" values="23.31;0" dur="0.23s" fill="freeze" begin="5.end" /></path><g p5:part="2" xmlns:p5="http://kanjivg.tagaini.net"><path d="M58.26,91.65c6.4-0.24,17.08-1.71,22.98-1.95" stroke-dasharray="23.07" stroke-dashoffset="23.07"><animate attributeName="stroke-dashoffset" values="23.07" fill="freeze" begin="62d1.click" /><animate id="7" attributeName="stroke-dashoffset" values="23.07;0" dur="0.23s" fill="freeze" begin="6.end" /></path></g></g></g></g></svg>