<svg xmlns="http://www.w3.org/2000/svg" width="109" height="109" viewBox="0 0 109 109" id="62db"><g fill="none" stroke="#666" stroke-width="9" stroke-linecap="round" stroke-linejoin="round"><g><g><path d="M13.75,37.17c2.08,0.25,4,0.44,6.13,0.13c5.36-0.77,14.23-1.76,21.34-2.97c1.15-0.2,2.4-0.2,3.45-0.07" /><path d="M30.77,12.5c0.87,0.87,1.76,3,1.76,5.02c0,15.23-0.01,56.96-0.01,68.4c0,14.25-5.91,4.6-7.77,2.75" /><path d="M12.47,68.06c1.39,0.76,2.43,0.85,4.53-0.56c5-3.36,14-9.5,25.25-17.58" /></g><g p4:phon="召" xmlns:p4="http://kanjivg.tagaini.net"><g><path d="M51.78,23.17c2.12,0.47,4.1,0.57,6.23,0.25c9.94-1.49,26.42-5.55,31.39-5.95c3.46-0.28,5.21,1.28,4.64,5.28c-0.92,6.38-3.54,17.19-8.7,25.49C81.75,54,79,49,76.76,46.28" /><path d="M68.51,24.39c0.06,0.78,0.05,2.3-0.37,3.38C63.5,39.5,58.5,48.75,47.17,58.35" /></g><g><path d="M51.58,66.17c0.87,0.87,1.42,2.08,1.66,3.12c0.88,3.75,2.2,12.92,3.06,20.9c0.17,1.55,0.32,3.01,0.47,4.3" /><path d="M54.38,68.22c8.53-1.45,25.73-3.61,32.61-4.19c2.28-0.19,5.44,0.72,4.27,5.27c-1.29,5.05-3.51,12.8-4.9,19.94" /><path d="M57.69,91.62c5.71-0.32,17.11-1.05,26.56-1.53c1.47-0.07,2.88-0.14,4.2-0.2" /></g></g></g></g><g fill="none" stroke="#000" stroke-width="5" stroke-linecap="round" stroke-linejoin="round"><path d="M13.75,37.17c2.08,0.25,4,0.44,6.13,0.13c5.36-0.77,14.23-1.76,21.34-2.97c1.15-0.2,2.4-0.2,3.45-0.07" stroke-dasharray="31.162" stroke-dashoffset="31.162"><animate attributeName="stroke-dashoffset" values="31.162;31.162;0" dur="0.312s" fill="freeze" begin="0s;62db.click" /></path><path d="M30.77,12.5c0.87,0.87,1.76,3,1.76,5.02c0,15.23-0.01,56.96-0.01,68.4c0,14.25-5.91,4.6-7.77,2.75" stroke-dasharray="89.899" stroke-dashoffset="89.899"><animate attributeName="stroke-dashoffset" values="89.899" fill="freeze" begin="62db.click" /><animate attributeName="stroke-dashoffset" values="89.899;89.899;0" keyTimes="0;0.316;1" dur="0.988s" fill="freeze" begin="0s;62db.click" /></path><path d="M12.47,68.06c1.39,0.76,2.43,0.85,4.53-0.56c5-3.36,14-9.5,25.25-17.58" stroke-dasharray="35.657" stroke-dashoffset="35.657"><animate attributeName="stroke-dashoffset" values="35.657" fill="freeze" begin="62db.click" /><animate attributeName="stroke-dashoffset" values="35.657;35.657;0" keyTimes="0;0.735;1" dur="1.345s" fill="freeze" begin="0s;62db.click" /></path><path d="M51.78,23.17c2.12,0.47,4.1,0.57,6.23,0.25c9.94-1.49,26.42-5.55,31.39-5.95c3.46-0.28,5.21,1.28,4.64,5.28c-0.92,6.38-3.54,17.19-8.7,25.49C81.75,54,79,49,76.76,46.28" stroke-dasharray="85.552" stroke-dashoffset="85.552"><animate attributeName="stroke-dashoffset" values="85.552" fill="freeze" begin="62db.click" /><animate attributeName="stroke-dashoffset" values="85.552;85.552;0" keyTimes="0;0.677;1" dur="1.988s" fill="freeze" begin="0s;62db.click" /></path><path d="M68.51,24.39c0.06,0.78,0.05,2.3-0.37,3.38C63.5,39.5,58.5,48.75,47.17,58.35" stroke-dasharray="40.948" stroke-dashoffset="40.948"><animate attributeName="stroke-dashoffset" values="40.948" fill="freeze" begin="62db.click" /><animate attributeName="stroke-dashoffset" values="40.948;40.948;0" keyTimes="0;0.829;1" dur="2.397s" fill="freeze" begin="0s;62db.click" /></path><path d="M51.58,66.17c0.87,0.87,1.42,2.08,1.66,3.12c0.88,3.75,2.2,12.92,3.06,20.9c0.17,1.55,0.32,3.01,0.47,4.3" stroke-dasharray="29.036" stroke-dashoffset="29.036"><animate attributeName="stroke-dashoffset" values="29.036" fill="freeze" begin="62db.click" /><animate attributeName="stroke-dashoffset" values="29.036;29.036;0" keyTimes="0;0.892;1" dur="2.687s" fill="freeze" begin="0s;62db.click" /></path><path d="M54.38,68.22c8.53-1.45,25.73-3.61,32.61-4.19c2.28-0.19,5.44,0.72,4.27,5.27c-1.29,5.05-3.51,12.8-4.9,19.94" stroke-dasharray="61.795" stroke-dashoffset="61.795"><animate attributeName="stroke-dashoffset" values="61.795" fill="freeze" begin="62db.click" /><animate attributeName="stroke-dashoffset" values="61.795;61.795;0" keyTimes="0;0.852;1" dur="3.152s" fill="freeze" begin="0s;62db.click" /></path><path d="M57.69,91.62c5.71-0.32,17.11-1.05,26.56-1.53c1.47-0.07,2.88-0.14,4.2-0.2" stroke-dasharray="30.81" stroke-dashoffset="30.81"><animate attributeName="stroke-dashoffset" values="30.81" fill="freeze" begin="62db.click" /><animate attributeName="stroke-dashoffset" values="30.81;30.81;0" keyTimes="0;0.911;1" dur="3.46s" fill="freeze" begin="0s;62db.click" /></path></g></svg>