<svg xmlns="http://www.w3.org/2000/svg" width="109" height="109" viewBox="0 0 109 109" id="62ef"><g fill="none" stroke="#666" stroke-width="9" stroke-linecap="round" stroke-linejoin="round"><g><g><path d="M12.25,37.76c2.03,0.2,1.24,0.45,3.41,0.2c5.35-0.61,15.09-2.03,24.01-2.98" /><path d="M26.51,13c0.55,0.94,1.98,2.54,1.98,5.64c0,15.56,0.28,57.69,0.28,69.37c0,14.56-7.14,3.61-8.77,2.04" /><path d="M12,65.96c0.92,1.09,2.38,1.73,4.41,0.72c1.2-0.59,19.45-10.66,24.52-13.52" /></g><g><g><g><path d="M47.04,20.64c0.89,0.53,2.69,1.08,4.11,0.96c2.5-0.2,26.46-5.6,28.09-5.6c1.63,0,2.67,1.51,1.14,3.42C77.38,23.18,69,31.25,61.82,36.05" /><g><path d="M62.06,35.64c8.69,6.61,11.44,26.11,7.69,45.28c-1.74,8.88-7,2.07-8.57-1.32" /></g></g><g p6:partial xmlns:p6="http://kanjivg.tagaini.net"><path d="M43.69,47.59c1.6,0.26,3.46,1.02,5.05,0.51c1.6-0.51,6.37-1.32,9.03-2.34c2.66-1.02,4.29,0.77,3.49,3.07c-1.86,5.38-10.74,20.74-21.64,28.42" /><path d="M90.21,35c0.08,0.36,0.15,0.97-0.17,1.44C87.08,40.85,80.48,46.7,75.13,49" /><path d="M69.22,45.5c6.36,9.68,17.03,22.75,24.14,28.33c1.5,1.17,2.93,1.77,4.3,2.17" /></g></g><g><path d="M41.5,93.64c1.13,0.47,3.21,0.62,4.33,0.47c13.19-1.66,35.77-2.47,47.46-2.46c1.88,0,3.02,0.23,3.96,0.46" /></g></g></g></g><g fill="none" stroke="#000" stroke-width="5" stroke-linecap="round" stroke-linejoin="round"><g><g><path d="M12.25,37.76c2.03,0.2,1.24,0.45,3.41,0.2c5.35-0.61,15.09-2.03,24.01-2.98" stroke-dasharray="27.63" stroke-dashoffset="27.63"><animate id="0" attributeName="stroke-dashoffset" values="27.63;0" dur="0.28s" fill="freeze" begin="0s;62ef.click" /></path><path d="M26.51,13c0.55,0.94,1.98,2.54,1.98,5.64c0,15.56,0.28,57.69,0.28,69.37c0,14.56-7.14,3.61-8.77,2.04" stroke-dasharray="92.42" stroke-dashoffset="92.42"><animate attributeName="stroke-dashoffset" values="92.42" fill="freeze" begin="62ef.click" /><animate id="1" attributeName="stroke-dashoffset" values="92.42;0" dur="0.69s" fill="freeze" begin="0.end" /></path><path d="M12,65.96c0.92,1.09,2.38,1.73,4.41,0.72c1.2-0.59,19.45-10.66,24.52-13.52" stroke-dasharray="32.87" stroke-dashoffset="32.87"><animate attributeName="stroke-dashoffset" values="32.87" fill="freeze" begin="62ef.click" /><animate id="2" attributeName="stroke-dashoffset" values="32.87;0" dur="0.33s" fill="freeze" begin="1.end" /></path></g><g><g><g><path d="M47.04,20.64c0.89,0.53,2.69,1.08,4.11,0.96c2.5-0.2,26.46-5.6,28.09-5.6c1.63,0,2.67,1.51,1.14,3.42C77.38,23.18,69,31.25,61.82,36.05" stroke-dasharray="62.68" stroke-dashoffset="62.68"><animate attributeName="stroke-dashoffset" values="62.68" fill="freeze" begin="62ef.click" /><animate id="3" attributeName="stroke-dashoffset" values="62.68;0" dur="0.47s" fill="freeze" begin="2.end" /></path><g><path d="M62.06,35.64c8.69,6.61,11.44,26.11,7.69,45.28c-1.74,8.88-7,2.07-8.57-1.32" stroke-dasharray="61.8" stroke-dashoffset="61.8"><animate attributeName="stroke-dashoffset" values="61.8" fill="freeze" begin="62ef.click" /><animate id="4" attributeName="stroke-dashoffset" values="61.8;0" dur="0.46s" fill="freeze" begin="3.end" /></path></g></g><g p6:partial xmlns:p6="http://kanjivg.tagaini.net"><path d="M43.69,47.59c1.6,0.26,3.46,1.02,5.05,0.51c1.6-0.51,6.37-1.32,9.03-2.34c2.66-1.02,4.29,0.77,3.49,3.07c-1.86,5.38-10.74,20.74-21.64,28.42" stroke-dasharray="56.8" stroke-dashoffset="56.8"><animate attributeName="stroke-dashoffset" values="56.8" fill="freeze" begin="62ef.click" /><animate id="5" attributeName="stroke-dashoffset" values="56.8;0" dur="0.57s" fill="freeze" begin="4.end" /></path><path d="M90.21,35c0.08,0.36,0.15,0.97-0.17,1.44C87.08,40.85,80.48,46.7,75.13,49" stroke-dasharray="21.19" stroke-dashoffset="21.19"><animate attributeName="stroke-dashoffset" values="21.19" fill="freeze" begin="62ef.click" /><animate id="6" attributeName="stroke-dashoffset" values="21.19;0" dur="0.21s" fill="freeze" begin="5.end" /></path><path d="M69.22,45.5c6.36,9.68,17.03,22.75,24.14,28.33c1.5,1.17,2.93,1.77,4.3,2.17" stroke-dasharray="42.18" stroke-dashoffset="42.18"><animate attributeName="stroke-dashoffset" values="42.18" fill="freeze" begin="62ef.click" /><animate id="7" attributeName="stroke-dashoffset" values="42.18;0" dur="0.42s" fill="freeze" begin="6.end" /></path></g></g><g><path d="M41.5,93.64c1.13,0.47,3.21,0.62,4.33,0.47c13.19-1.66,35.77-2.47,47.46-2.46c1.88,0,3.02,0.23,3.96,0.46" stroke-dasharray="55.93" stroke-dashoffset="55.93"><animate attributeName="stroke-dashoffset" values="55.93" fill="freeze" begin="62ef.click" /><animate id="8" attributeName="stroke-dashoffset" values="55.93;0" dur="0.56s" fill="freeze" begin="7.end" /></path></g></g></g></g></svg>