<svg xmlns="http://www.w3.org/2000/svg" width="109" height="109" viewBox="0 0 109 109" id="6311"><g fill="none" stroke="#666" stroke-width="9" stroke-linecap="round" stroke-linejoin="round"><g><g><path d="M12.5,40.42c1.94,0.23,3.61,0.49,5.62,0.2c4.3-0.61,9.24-1.6,16.68-2.85c0.99-0.17,2.07-0.27,3.11-0.27" /><path d="M28.77,17.25c1.05,1.05,1.51,2.49,1.51,5.52c0,15.23-0.01,52.71-0.01,64.15c0,14.25-6.32,3.53-7.77,2" /><path d="M12,68.43c1,0.82,2.25,0.57,3.75-0.43c5.01-3.34,8.75-6,20-14.08" /></g><g p4:phon="兆" xmlns:p4="http://kanjivg.tagaini.net"><g p4:part="1"><g><path d="M56.54,16.91c1.02,1.02,1.37,2.58,1.39,3.82C58.5,63.25,59.25,80,42.4,93.18" /></g><g><g><path d="M43.54,32.44c2.85,2.33,7.36,9.57,8.07,13.19" /></g><g><path d="M40.86,66.74c1.03,0.5,2.06,0.17,2.84-0.4c1.08-0.78,8.61-6.78,12.86-10.56" /></g></g></g><g><g p4:part="2"><path d="M70.89,15.53c1.21,1.21,1.49,2.32,1.49,3.97c0,7.59,0.12,54.38,0.12,60.95c0,10.33,1.42,11.29,11.19,11.29C94,91.73,95,90,95,83.05" /></g><path d="M89.14,28.75c0.1,0.84,0.06,1.81-0.5,2.47c-2.77,3.29-5.28,6.37-11.71,10.68" /><path d="M77.2,52.77c3.95,2.62,10.21,10.76,11.2,14.84" /></g></g></g></g><g fill="none" stroke="#000" stroke-width="5" stroke-linecap="round" stroke-linejoin="round"><g><g><path d="M12.5,40.42c1.94,0.23,3.61,0.49,5.62,0.2c4.3-0.61,9.24-1.6,16.68-2.85c0.99-0.17,2.07-0.27,3.11-0.27" stroke-dasharray="25.69" stroke-dashoffset="25.69"><animate id="0" attributeName="stroke-dashoffset" values="25.69;0" dur="0.26s" fill="freeze" begin="0s;6311.click" /></path><path d="M28.77,17.25c1.05,1.05,1.51,2.49,1.51,5.52c0,15.23-0.01,52.71-0.01,64.15c0,14.25-6.32,3.53-7.77,2" stroke-dasharray="86.06" stroke-dashoffset="86.06"><animate attributeName="stroke-dashoffset" values="86.06" fill="freeze" begin="6311.click" /><animate id="1" attributeName="stroke-dashoffset" values="86.06;0" dur="0.65s" fill="freeze" begin="0.end" /></path><path d="M12,68.43c1,0.82,2.25,0.57,3.75-0.43c5.01-3.34,8.75-6,20-14.08" stroke-dasharray="28.53" stroke-dashoffset="28.53"><animate attributeName="stroke-dashoffset" values="28.53" fill="freeze" begin="6311.click" /><animate id="2" attributeName="stroke-dashoffset" values="28.53;0" dur="0.29s" fill="freeze" begin="1.end" /></path></g><g p4:phon="兆" xmlns:p4="http://kanjivg.tagaini.net"><g p4:part="1"><g><path d="M56.54,16.91c1.02,1.02,1.37,2.58,1.39,3.82C58.5,63.25,59.25,80,42.4,93.18" stroke-dasharray="81.24" stroke-dashoffset="81.24"><animate attributeName="stroke-dashoffset" values="81.24" fill="freeze" begin="6311.click" /><animate id="3" attributeName="stroke-dashoffset" values="81.24;0" dur="0.61s" fill="freeze" begin="2.end" /></path></g><g><g><path d="M43.54,32.44c2.85,2.33,7.36,9.57,8.07,13.19" stroke-dasharray="15.64" stroke-dashoffset="15.64"><animate attributeName="stroke-dashoffset" values="15.64" fill="freeze" begin="6311.click" /><animate id="4" attributeName="stroke-dashoffset" values="15.64;0" dur="0.16s" fill="freeze" begin="3.end" /></path></g><g><path d="M40.86,66.74c1.03,0.5,2.06,0.17,2.84-0.4c1.08-0.78,8.61-6.78,12.86-10.56" stroke-dasharray="19.67" stroke-dashoffset="19.67"><animate attributeName="stroke-dashoffset" values="19.67" fill="freeze" begin="6311.click" /><animate id="5" attributeName="stroke-dashoffset" values="19.67;0" dur="0.2s" fill="freeze" begin="4.end" /></path></g></g></g><g><g p4:part="2"><path d="M70.89,15.53c1.21,1.21,1.49,2.32,1.49,3.97c0,7.59,0.12,54.38,0.12,60.95c0,10.33,1.42,11.29,11.19,11.29C94,91.73,95,90,95,83.05" stroke-dasharray="102.15" stroke-dashoffset="102.15"><animate attributeName="stroke-dashoffset" values="102.15" fill="freeze" begin="6311.click" /><animate id="6" attributeName="stroke-dashoffset" values="102.15;0" dur="0.77s" fill="freeze" begin="5.end" /></path></g><path d="M89.14,28.75c0.1,0.84,0.06,1.81-0.5,2.47c-2.77,3.29-5.28,6.37-11.71,10.68" stroke-dasharray="18.51" stroke-dashoffset="18.51"><animate attributeName="stroke-dashoffset" values="18.51" fill="freeze" begin="6311.click" /><animate id="7" attributeName="stroke-dashoffset" values="18.51;0" dur="0.19s" fill="freeze" begin="6.end" /></path><path d="M77.2,52.77c3.95,2.62,10.21,10.76,11.2,14.84" stroke-dasharray="18.84" stroke-dashoffset="18.84"><animate attributeName="stroke-dashoffset" values="18.84" fill="freeze" begin="6311.click" /><animate id="8" attributeName="stroke-dashoffset" values="18.84;0" dur="0.19s" fill="freeze" begin="7.end" /></path></g></g></g></g></svg>