<svg xmlns="http://www.w3.org/2000/svg" width="109" height="109" viewBox="0 0 109 109" id="633e"><g fill="none" stroke="#666" stroke-width="9" stroke-linecap="round" stroke-linejoin="round"><g><g><path d="M10.25,39.04c2.25,0.27,1.37,0.6,3.78,0.27c5.94-0.81,16.74-2.7,26.64-3.96" /><path d="M28.27,13.5c0.48,0.92,1.76,2.49,1.76,5.52c0,15.23,0.24,55.46,0.24,66.9c0,14.25-6.32,3.53-7.77,2" /><path d="M9.75,65.39c0.97,1.15,2.52,1.83,4.66,0.76c1.26-0.63,21.23-13.98,26.59-17" /></g><g><g p5:part="1" xmlns:p5="http://kanjivg.tagaini.net"><path d="M46.25,31.65c1.08,0.44,3.05,0.56,4.12,0.44c6.85-0.76,34.48-4.02,41.12-3.52c1.79,0.14,2.87,0.21,3.76,0.43" /></g><g><g><path d="M53.01,42.24c0,0.57,0.06,1.05-0.1,1.71c-1.46,6.18-5.8,13.86-12.19,20.68" /><path d="M50.89,51.71c2.84,1.58,6.48,5.79,7.86,9.79" /></g><g><path d="M86.26,38.74c0,0.51,0.1,0.95-0.09,1.52c-1.65,4.98-6.35,13.84-11.95,18.86" /><path d="M82.39,47.71c5.22,3.25,9.24,7.34,12.36,12.29" /></g></g><g p5:part="2" xmlns:p5="http://kanjivg.tagaini.net"><path d="M66.83,12.75c0.45,1.13,1.17,2.43,1.17,4.86c0,45.19-1.49,62.29-29.24,77.39" /><path d="M66.75,57.5c5.58,10.21,17.85,28.33,25.41,34.2c2.12,1.65,2.68,2.12,3.59,2.3" /></g></g></g></g><g fill="none" stroke="#000" stroke-width="5" stroke-linecap="round" stroke-linejoin="round"><g><g><path d="M10.25,39.04c2.25,0.27,1.37,0.6,3.78,0.27c5.94-0.81,16.74-2.7,26.64-3.96" stroke-dasharray="30.76" stroke-dashoffset="30.76"><animate id="0" attributeName="stroke-dashoffset" values="30.76;0" dur="0.31s" fill="freeze" begin="0s;633e.click" /></path><path d="M28.27,13.5c0.48,0.92,1.76,2.49,1.76,5.52c0,15.23,0.24,55.46,0.24,66.9c0,14.25-6.32,3.53-7.77,2" stroke-dasharray="88.82" stroke-dashoffset="88.82"><animate attributeName="stroke-dashoffset" values="88.82" fill="freeze" begin="633e.click" /><animate id="1" attributeName="stroke-dashoffset" values="88.82;0" dur="0.67s" fill="freeze" begin="0.end" /></path><path d="M9.75,65.39c0.97,1.15,2.52,1.83,4.66,0.76c1.26-0.63,21.23-13.98,26.59-17" stroke-dasharray="36.71" stroke-dashoffset="36.71"><animate attributeName="stroke-dashoffset" values="36.71" fill="freeze" begin="633e.click" /><animate id="2" attributeName="stroke-dashoffset" values="36.71;0" dur="0.37s" fill="freeze" begin="1.end" /></path></g><g><g p5:part="1" xmlns:p5="http://kanjivg.tagaini.net"><path d="M46.25,31.65c1.08,0.44,3.05,0.56,4.12,0.44c6.85-0.76,34.48-4.02,41.12-3.52c1.79,0.14,2.87,0.21,3.76,0.43" stroke-dasharray="49.26" stroke-dashoffset="49.26"><animate attributeName="stroke-dashoffset" values="49.26" fill="freeze" begin="633e.click" /><animate id="3" attributeName="stroke-dashoffset" values="49.26;0" dur="0.49s" fill="freeze" begin="2.end" /></path></g><g><g><path d="M53.01,42.24c0,0.57,0.06,1.05-0.1,1.71c-1.46,6.18-5.8,13.86-12.19,20.68" stroke-dasharray="25.97" stroke-dashoffset="25.97"><animate attributeName="stroke-dashoffset" values="25.97" fill="freeze" begin="633e.click" /><animate id="4" attributeName="stroke-dashoffset" values="25.97;0" dur="0.26s" fill="freeze" begin="3.end" /></path><path d="M50.89,51.71c2.84,1.58,6.48,5.79,7.86,9.79" stroke-dasharray="12.78" stroke-dashoffset="12.78"><animate attributeName="stroke-dashoffset" values="12.78" fill="freeze" begin="633e.click" /><animate id="5" attributeName="stroke-dashoffset" values="12.78;0" dur="0.13s" fill="freeze" begin="4.end" /></path></g><g><path d="M86.26,38.74c0,0.51,0.1,0.95-0.09,1.52c-1.65,4.98-6.35,13.84-11.95,18.86" stroke-dasharray="24.06" stroke-dashoffset="24.06"><animate attributeName="stroke-dashoffset" values="24.06" fill="freeze" begin="633e.click" /><animate id="6" attributeName="stroke-dashoffset" values="24.06;0" dur="0.24s" fill="freeze" begin="5.end" /></path><path d="M82.39,47.71c5.22,3.25,9.24,7.34,12.36,12.29" stroke-dasharray="17.58" stroke-dashoffset="17.58"><animate attributeName="stroke-dashoffset" values="17.58" fill="freeze" begin="633e.click" /><animate id="7" attributeName="stroke-dashoffset" values="17.58;0" dur="0.18s" fill="freeze" begin="6.end" /></path></g></g><g p5:part="2" xmlns:p5="http://kanjivg.tagaini.net"><path d="M66.83,12.75c0.45,1.13,1.17,2.43,1.17,4.86c0,45.19-1.49,62.29-29.24,77.39" stroke-dasharray="93.53" stroke-dashoffset="93.53"><animate attributeName="stroke-dashoffset" values="93.53" fill="freeze" begin="633e.click" /><animate id="8" attributeName="stroke-dashoffset" values="93.53;0" dur="0.7s" fill="freeze" begin="7.end" /></path><path d="M66.75,57.5c5.58,10.21,17.85,28.33,25.41,34.2c2.12,1.65,2.68,2.12,3.59,2.3" stroke-dasharray="47.09" stroke-dashoffset="47.09"><animate attributeName="stroke-dashoffset" values="47.09" fill="freeze" begin="633e.click" /><animate id="9" attributeName="stroke-dashoffset" values="47.09;0" dur="0.47s" fill="freeze" begin="8.end" /></path></g></g></g></g></svg>