<svg xmlns="http://www.w3.org/2000/svg" width="109" height="109" viewBox="0 0 109 109" id="633f"><g fill="none" stroke="#666" stroke-width="9" stroke-linecap="round" stroke-linejoin="round"><g><g><path d="M14.25,36.92c1.95,0.23,3.77,0.45,5.76,0.21c4.33-0.53,9.28-1.28,15.73-2.15c1.2-0.16,2.38-0.23,3.67-0.23" /><path d="M28.52,13c1.37,1.37,1.51,3.25,1.51,5.52c0,15.23-0.01,55.71-0.01,67.15c0,14.25-6.32,3.53-7.77,2" /><path d="M12.5,65.18c0.88,0.7,2.18,1,3.56,0.09c6.44-4.26,8.19-5.39,20.69-14.35" /></g><g p4:phon="千+日" xmlns:p4="http://kanjivg.tagaini.net"><g><g><path d="M81.27,11.67c0,0.96-0.39,1.71-1.26,2.22c-4.25,2.5-16.75,7.11-32.04,10.9" /></g></g><g><path d="M45.13,33.15c2.49,0.9,6.1,0.37,8.64,0.04c9.5-1.21,22.19-3.03,33.85-3.73c2.58-0.15,5.2-0.44,7.74,0.12" /></g><g><path d="M46.91,44.87c0.74,0.74,1.25,2.14,1.39,2.87c1.07,5.51,2.28,13.24,3.04,20.53c0.15,1.45,0.29,2.86,0.42,4.19" /><path d="M48.62,46c12.63-1.88,29.26-3.96,37.9-4.54C89.75,41.25,91,42.88,90.8,46c-0.29,4.47-1.57,11.58-2.44,17.76c-0.28,1.96-0.56,3.83-0.85,5.48" /><path d="M51.16,57.73c10.09-1.48,28.09-3.23,37.29-3.57" /><path d="M52.83,70.17c11.42-1.17,21.42-2.3,33.68-2.96" /></g><g><g><path d="M67.71,22.39c0.88,0.88,1.17,2.23,1.17,4.03c0,0.65,0.09,44.87-0.01,64.58c-0.03,4.84,0.09,6.77,0.07,7.75" /></g></g></g></g></g><g fill="none" stroke="#000" stroke-width="5" stroke-linecap="round" stroke-linejoin="round"><g><g><path d="M14.25,36.92c1.95,0.23,3.77,0.45,5.76,0.21c4.33-0.53,9.28-1.28,15.73-2.15c1.2-0.16,2.38-0.23,3.67-0.23" stroke-dasharray="25.336" stroke-dashoffset="25.336"><animate attributeName="stroke-dashoffset" values="25.336;25.336;0" dur="0.253s" fill="freeze" begin="0s;633f.click" /></path><path d="M28.52,13c1.37,1.37,1.51,3.25,1.51,5.52c0,15.23-0.01,55.71-0.01,67.15c0,14.25-6.32,3.53-7.77,2" stroke-dasharray="89.07" stroke-dashoffset="89.07"><animate attributeName="stroke-dashoffset" values="89.07" fill="freeze" begin="633f.click" /><animate attributeName="stroke-dashoffset" values="89.07;89.07;0" keyTimes="0;0.274;1" dur="0.923s" fill="freeze" begin="0s;633f.click" /></path><path d="M12.5,65.18c0.88,0.7,2.18,1,3.56,0.09c6.44-4.26,8.19-5.39,20.69-14.35" stroke-dasharray="29.012" stroke-dashoffset="29.012"><animate attributeName="stroke-dashoffset" values="29.012" fill="freeze" begin="633f.click" /><animate attributeName="stroke-dashoffset" values="29.012;29.012;0" keyTimes="0;0.761;1" dur="1.213s" fill="freeze" begin="0s;633f.click" /></path></g><g p4:phon="千+日" xmlns:p4="http://kanjivg.tagaini.net"><g><g><path d="M81.27,11.67c0,0.96-0.39,1.71-1.26,2.22c-4.25,2.5-16.75,7.11-32.04,10.9" stroke-dasharray="36.602" stroke-dashoffset="36.602"><animate attributeName="stroke-dashoffset" values="36.602" fill="freeze" begin="633f.click" /><animate attributeName="stroke-dashoffset" values="36.602;36.602;0" keyTimes="0;0.768;1" dur="1.579s" fill="freeze" begin="0s;633f.click" /></path></g></g><g><path d="M45.13,33.15c2.49,0.9,6.1,0.37,8.64,0.04c9.5-1.21,22.19-3.03,33.85-3.73c2.58-0.15,5.2-0.44,7.74,0.12" stroke-dasharray="50.549" stroke-dashoffset="50.549"><animate attributeName="stroke-dashoffset" values="50.549" fill="freeze" begin="633f.click" /><animate attributeName="stroke-dashoffset" values="50.549;50.549;0" keyTimes="0;0.758;1" dur="2.084s" fill="freeze" begin="0s;633f.click" /></path></g><g><path d="M46.91,44.87c0.74,0.74,1.25,2.14,1.39,2.87c1.07,5.51,2.28,13.24,3.04,20.53c0.15,1.45,0.29,2.86,0.42,4.19" stroke-dasharray="28.198" stroke-dashoffset="28.198"><animate attributeName="stroke-dashoffset" values="28.198" fill="freeze" begin="633f.click" /><animate attributeName="stroke-dashoffset" values="28.198;28.198;0" keyTimes="0;0.881;1" dur="2.366s" fill="freeze" begin="0s;633f.click" /></path><path d="M48.62,46c12.63-1.88,29.26-3.96,37.9-4.54C89.75,41.25,91,42.88,90.8,46c-0.29,4.47-1.57,11.58-2.44,17.76c-0.28,1.96-0.56,3.83-0.85,5.48" stroke-dasharray="69.076" stroke-dashoffset="69.076"><animate attributeName="stroke-dashoffset" values="69.076" fill="freeze" begin="633f.click" /><animate attributeName="stroke-dashoffset" values="69.076;69.076;0" keyTimes="0;0.82;1" dur="2.885s" fill="freeze" begin="0s;633f.click" /></path><path d="M51.16,57.73c10.09-1.48,28.09-3.23,37.29-3.57" stroke-dasharray="37.474" stroke-dashoffset="37.474"><animate attributeName="stroke-dashoffset" values="37.474" fill="freeze" begin="633f.click" /><animate attributeName="stroke-dashoffset" values="37.474;37.474;0" keyTimes="0;0.885;1" dur="3.26s" fill="freeze" begin="0s;633f.click" /></path><path d="M52.83,70.17c11.42-1.17,21.42-2.3,33.68-2.96" stroke-dasharray="33.815" stroke-dashoffset="33.815"><animate attributeName="stroke-dashoffset" values="33.815" fill="freeze" begin="633f.click" /><animate attributeName="stroke-dashoffset" values="33.815;33.815;0" keyTimes="0;0.906;1" dur="3.598s" fill="freeze" begin="0s;633f.click" /></path></g><g><g><path d="M67.71,22.39c0.88,0.88,1.17,2.23,1.17,4.03c0,0.65,0.09,44.87-0.01,64.58c-0.03,4.84,0.09,6.77,0.07,7.75" stroke-dasharray="76.639" stroke-dashoffset="76.639"><animate attributeName="stroke-dashoffset" values="76.639" fill="freeze" begin="633f.click" /><animate attributeName="stroke-dashoffset" values="76.639;76.639;0" keyTimes="0;0.862;1" dur="4.174s" fill="freeze" begin="0s;633f.click" /></path></g></g></g></g></g></svg>