<svg xmlns="http://www.w3.org/2000/svg" width="109" height="109" viewBox="0 0 109 109" id="6357"><g fill="none" stroke="#666" stroke-width="9" stroke-linecap="round" stroke-linejoin="round"><g><g><path d="M12.5,36.3c2.01,0.31,1.23,0.69,3.38,0.31c5.3-0.94,14.95-3.12,23.79-4.58" /><path d="M27.77,12c0.48,0.92,1.67,2.49,1.76,5.52c0.4,14.55,0.74,65.94,0.74,70.9c0,14.25-6.82,4.03-8.27,2.5" /><path d="M11,65.18c1.87,0.83,4.05,1.36,5.82,0.28c4.61-2.83,11.3-6.92,20.93-12.79" /></g><g><g><g><path d="M68.32,12.5c0.98,0.42,1.58,1.94,1.78,2.81c0.2,0.87,0.35,22.59,0.19,28.05" /><path d="M70.28,27.23c3.83-0.51,8.15-2.36,14.89-3.02c1.57-0.15,1.96-0.31,2.94-0.05" /></g><path d="M52.56,22.98c0.98,0.42,1.58,1.94,1.78,2.81c0.2,0.87,0.18,13.21,0.02,18.67" /><path d="M43.3,45.25c0.74,0.21,2.72,0.7,4.69,0.59c10.62-0.58,30.01-3.09,43.23-4.15c1.97-0.16,5.41,0.37,6.53,0.57" /></g><g><g><path d="M69.36,45.5c0.08,0.24,1.14,1.24,1.14,2.75c0,8.75-0.23,15.72-0.23,18.19c0,8.06-4.53,2.31-6.17,0.31" /><path d="M57.03,53.25c0.04,0.42,0.16,1.12-0.08,1.7c-1.74,4.23-9.11,12.4-15.09,16.3" /></g><g><path d="M 92.177034,52.288305 c 0.13,0.89 0.159068,3.012797 -1.193729,5.65839 -5.47,10.42 -31.379576,33.746102 -52.749576,40.746102" /></g></g></g></g></g><g fill="none" stroke="#000" stroke-width="5" stroke-linecap="round" stroke-linejoin="round"><g><g><path d="M12.5,36.3c2.01,0.31,1.23,0.69,3.38,0.31c5.3-0.94,14.95-3.12,23.79-4.58" stroke-dasharray="27.68" stroke-dashoffset="27.68"><animate id="0" attributeName="stroke-dashoffset" values="27.68;0" dur="0.28s" fill="freeze" begin="0s;6357.click" /></path><path d="M27.77,12c0.48,0.92,1.67,2.49,1.76,5.52c0.4,14.55,0.74,65.94,0.74,70.9c0,14.25-6.82,4.03-8.27,2.5" stroke-dasharray="93.07" stroke-dashoffset="93.07"><animate attributeName="stroke-dashoffset" values="93.07" fill="freeze" begin="6357.click" /><animate id="1" attributeName="stroke-dashoffset" values="93.07;0" dur="0.7s" fill="freeze" begin="0.end" /></path><path d="M11,65.18c1.87,0.83,4.05,1.36,5.82,0.28c4.61-2.83,11.3-6.92,20.93-12.79" stroke-dasharray="30.59" stroke-dashoffset="30.59"><animate attributeName="stroke-dashoffset" values="30.59" fill="freeze" begin="6357.click" /><animate id="2" attributeName="stroke-dashoffset" values="30.59;0" dur="0.31s" fill="freeze" begin="1.end" /></path></g><g><g><g><path d="M68.32,12.5c0.98,0.42,1.58,1.94,1.78,2.81c0.2,0.87,0.35,22.59,0.19,28.05" stroke-dasharray="31.48" stroke-dashoffset="31.48"><animate attributeName="stroke-dashoffset" values="31.48" fill="freeze" begin="6357.click" /><animate id="3" attributeName="stroke-dashoffset" values="31.48;0" dur="0.31s" fill="freeze" begin="2.end" /></path><path d="M70.28,27.23c3.83-0.51,8.15-2.36,14.89-3.02c1.57-0.15,1.96-0.31,2.94-0.05" stroke-dasharray="18.17" stroke-dashoffset="18.17"><animate attributeName="stroke-dashoffset" values="18.17" fill="freeze" begin="6357.click" /><animate id="4" attributeName="stroke-dashoffset" values="18.17;0" dur="0.18s" fill="freeze" begin="3.end" /></path></g><path d="M52.56,22.98c0.98,0.42,1.58,1.94,1.78,2.81c0.2,0.87,0.18,13.21,0.02,18.67" stroke-dasharray="22.1" stroke-dashoffset="22.1"><animate attributeName="stroke-dashoffset" values="22.1" fill="freeze" begin="6357.click" /><animate id="5" attributeName="stroke-dashoffset" values="22.1;0" dur="0.22s" fill="freeze" begin="4.end" /></path><path d="M43.3,45.25c0.74,0.21,2.72,0.7,4.69,0.59c10.62-0.58,30.01-3.09,43.23-4.15c1.97-0.16,5.41,0.37,6.53,0.57" stroke-dasharray="54.75" stroke-dashoffset="54.75"><animate attributeName="stroke-dashoffset" values="54.75" fill="freeze" begin="6357.click" /><animate id="6" attributeName="stroke-dashoffset" values="54.75;0" dur="0.55s" fill="freeze" begin="5.end" /></path></g><g><g><path d="M69.36,45.5c0.08,0.24,1.14,1.24,1.14,2.75c0,8.75-0.23,15.72-0.23,18.19c0,8.06-4.53,2.31-6.17,0.31" stroke-dasharray="32.21" stroke-dashoffset="32.21"><animate attributeName="stroke-dashoffset" values="32.21" fill="freeze" begin="6357.click" /><animate id="7" attributeName="stroke-dashoffset" values="32.21;0" dur="0.32s" fill="freeze" begin="6.end" /></path><path d="M57.03,53.25c0.04,0.42,0.16,1.12-0.08,1.7c-1.74,4.23-9.11,12.4-15.09,16.3" stroke-dasharray="24.15" stroke-dashoffset="24.15"><animate attributeName="stroke-dashoffset" values="24.15" fill="freeze" begin="6357.click" /><animate id="8" attributeName="stroke-dashoffset" values="24.15;0" dur="0.24s" fill="freeze" begin="7.end" /></path></g><g><path d="M 92.177034,52.288305 c 0.13,0.89 0.159068,3.012797 -1.193729,5.65839 -5.47,10.42 -31.379576,33.746102 -52.749576,40.746102" stroke-dasharray="73.52" stroke-dashoffset="73.52"><animate attributeName="stroke-dashoffset" values="73.52" fill="freeze" begin="6357.click" /><animate id="9" attributeName="stroke-dashoffset" values="73.52;0" dur="0.55s" fill="freeze" begin="8.end" /></path></g></g></g></g></g></svg>