<svg xmlns="http://www.w3.org/2000/svg" width="109" height="109" viewBox="0 0 109 109" id="635c"><g fill="none" stroke="#666" stroke-width="9" stroke-linecap="round" stroke-linejoin="round"><g><g><path d="M14,39.42c1.85,0.22,3.48,0.74,5.38,0.51c4.73-0.57,11.06-1.6,18.11-2.52c1.05-0.14,2.12-0.27,3.18-0.41" /><path d="M28.77,16c1.05,1.05,1.76,3.38,1.76,5.52c0,15.23-0.01,52.96-0.01,64.4c0,14.25-5.82,3.78-7.27,2.25" /><path d="M11.25,69.18c0.91,0.91,2.63,0.99,3.76,0.2C20.38,65.62,28,60,39.25,51.92" /></g><g p4:partial p4:phon="叟V" xmlns:p4="http://kanjivg.tagaini.net"><g><g p4:partial><path d="M43.41,26.57c0.95,0.95,1.49,2.09,1.7,3.06c1.14,5.12,2.29,11.78,3.2,18.86c0.22,1.72,0.41,3.38,0.56,4.89" /><path d="M45.58,27.69c10.56-1.46,28.07-3.06,36.8-3.92c3.62-0.35,6.42,0.15,5.83,4.37c-0.55,3.97-2.26,12.24-3.39,17.88c-0.33,1.62-0.61,3.03-0.8,4.05" /><path d="M48.1,39.08c8.15-0.96,27.77-2.83,38.04-3.15" /><path d="M49.68,50.41c10.32-1.04,22.94-2.07,33.51-2.67" /></g><g><path d="M64.12,13c1,1,1.46,2.25,1.46,3.75c0,1.02,0.03,32.25,0.03,43" /></g></g><g><path d="M49.65,62.78c1.35,0.26,2.27,0.39,4.98,0.01c2.44-0.35,18.31-2.93,22.75-3.67c3.51-0.58,4.83,0.57,2.85,3.77c-9.38,15.19-20.89,25.8-37.51,33.37" /><path d="M48.27,68.42c4.77,0.3,21.1,13.96,36.23,23.17c2.86,1.74,6.29,3.11,9.52,4.02" /></g></g></g></g><g fill="none" stroke="#000" stroke-width="5" stroke-linecap="round" stroke-linejoin="round"><g><g><path d="M14,39.42c1.85,0.22,3.48,0.74,5.38,0.51c4.73-0.57,11.06-1.6,18.11-2.52c1.05-0.14,2.12-0.27,3.18-0.41" stroke-dasharray="26.916" stroke-dashoffset="26.916"><animate attributeName="stroke-dashoffset" values="26.916;26.916;0" dur="0.269s" fill="freeze" begin="0s;635c.click" /></path><path d="M28.77,16c1.05,1.05,1.76,3.38,1.76,5.52c0,15.23-0.01,52.96-0.01,64.4c0,14.25-5.82,3.78-7.27,2.25" stroke-dasharray="85.965" stroke-dashoffset="85.965"><animate attributeName="stroke-dashoffset" values="85.965" fill="freeze" begin="635c.click" /><animate attributeName="stroke-dashoffset" values="85.965;85.965;0" keyTimes="0;0.294;1" dur="0.915s" fill="freeze" begin="0s;635c.click" /></path><path d="M11.25,69.18c0.91,0.91,2.63,0.99,3.76,0.2C20.38,65.62,28,60,39.25,51.92" stroke-dasharray="33.933" stroke-dashoffset="33.933"><animate attributeName="stroke-dashoffset" values="33.933" fill="freeze" begin="635c.click" /><animate attributeName="stroke-dashoffset" values="33.933;33.933;0" keyTimes="0;0.73;1" dur="1.254s" fill="freeze" begin="0s;635c.click" /></path></g><g p4:partial p4:phon="叟V" xmlns:p4="http://kanjivg.tagaini.net"><g><g p4:partial><path d="M43.41,26.57c0.95,0.95,1.49,2.09,1.7,3.06c1.14,5.12,2.29,11.78,3.2,18.86c0.22,1.72,0.41,3.38,0.56,4.89" stroke-dasharray="27.606" stroke-dashoffset="27.606"><animate attributeName="stroke-dashoffset" values="27.606" fill="freeze" begin="635c.click" /><animate attributeName="stroke-dashoffset" values="27.606;27.606;0" keyTimes="0;0.82;1" dur="1.53s" fill="freeze" begin="0s;635c.click" /></path><path d="M45.58,27.69c10.56-1.46,28.07-3.06,36.8-3.92c3.62-0.35,6.42,0.15,5.83,4.37c-0.55,3.97-2.26,12.24-3.39,17.88c-0.33,1.62-0.61,3.03-0.8,4.05" stroke-dasharray="68.328" stroke-dashoffset="68.328"><animate attributeName="stroke-dashoffset" values="68.328" fill="freeze" begin="635c.click" /><animate attributeName="stroke-dashoffset" values="68.328;68.328;0" keyTimes="0;0.749;1" dur="2.044s" fill="freeze" begin="0s;635c.click" /></path><path d="M48.1,39.08c8.15-0.96,27.77-2.83,38.04-3.15" stroke-dasharray="38.179" stroke-dashoffset="38.179"><animate attributeName="stroke-dashoffset" values="38.179" fill="freeze" begin="635c.click" /><animate attributeName="stroke-dashoffset" values="38.179;38.179;0" keyTimes="0;0.843;1" dur="2.426s" fill="freeze" begin="0s;635c.click" /></path><path d="M49.68,50.41c10.32-1.04,22.94-2.07,33.51-2.67" stroke-dasharray="33.62" stroke-dashoffset="33.62"><animate attributeName="stroke-dashoffset" values="33.62" fill="freeze" begin="635c.click" /><animate attributeName="stroke-dashoffset" values="33.62;33.62;0" keyTimes="0;0.878;1" dur="2.762s" fill="freeze" begin="0s;635c.click" /></path></g><g><path d="M64.12,13c1,1,1.46,2.25,1.46,3.75c0,1.02,0.03,32.25,0.03,43" stroke-dasharray="47.138" stroke-dashoffset="47.138"><animate attributeName="stroke-dashoffset" values="47.138" fill="freeze" begin="635c.click" /><animate attributeName="stroke-dashoffset" values="47.138;47.138;0" keyTimes="0;0.854;1" dur="3.233s" fill="freeze" begin="0s;635c.click" /></path></g></g><g><path d="M49.65,62.78c1.35,0.26,2.27,0.39,4.98,0.01c2.44-0.35,18.31-2.93,22.75-3.67c3.51-0.58,4.83,0.57,2.85,3.77c-9.38,15.19-20.89,25.8-37.51,33.37" stroke-dasharray="86.281" stroke-dashoffset="86.281"><animate attributeName="stroke-dashoffset" values="86.281" fill="freeze" begin="635c.click" /><animate attributeName="stroke-dashoffset" values="86.281;86.281;0" keyTimes="0;0.833;1" dur="3.882s" fill="freeze" begin="0s;635c.click" /></path><path d="M48.27,68.42c4.77,0.3,21.1,13.96,36.23,23.17c2.86,1.74,6.29,3.11,9.52,4.02" stroke-dasharray="53.503" stroke-dashoffset="53.503"><animate attributeName="stroke-dashoffset" values="53.503" fill="freeze" begin="635c.click" /><animate attributeName="stroke-dashoffset" values="53.503;53.503;0" keyTimes="0;0.879;1" dur="4.417s" fill="freeze" begin="0s;635c.click" /></path></g></g></g></g></svg>