<svg xmlns="http://www.w3.org/2000/svg" width="109" height="109" viewBox="0 0 109 109" id="6389"><g fill="none" stroke="#666" stroke-width="9" stroke-linecap="round" stroke-linejoin="round"><g><g><path d="M12.75,38.42c2.22,0.25,1.35,0.55,3.73,0.25c5.85-0.75,15.43-2.5,25.19-3.67" /><path d="M27.27,14.5c0.48,0.92,1.76,2.49,1.76,5.52c0,15.23,0.24,56.46,0.24,67.9c0,14.25-6.32,3.53-7.77,2" /><path d="M11.75,67.74c0.9,1.06,2.33,1.68,4.31,0.7c1.17-0.58,19.23-12.51,24.19-15.28" /></g><g><g><path d="M65.31,12.88c0.76,0.33,2.36,2.46,2.51,3.12c0.15,0.66,0.4,14.53,0.25,18.63" /><path d="M68.25,23.5c2,0,12.67-1.36,18.5-2.27C88.83,20.9,89.75,21.08,91,21" /></g><g><g><path d="M50.16,36.17c0.65,1.17,1.03,1.54,1.24,3.11c0.57,4.28,3.07,19.63,3.1,23.22" /><path d="M52.73,37.61c3.71-0.19,32.44-3.86,35.79-3.37c1.33,0.19,2.44,1.69,2.09,3.69C89.75,43,88,55,85.43,60.58" /><path d="M53.48,48.31c6.33-0.43,29.11-2.72,34.78-2.72" /><path d="M55.14,59.86c9.11-0.74,25.78-2.33,30.41-2.33" /></g><g><path d="M40.88,75.21c1.19,0.46,3.38,0.58,4.57,0.46c10.3-1.09,39.82-3.46,49.51-3.42c1.99,0.01,3.18,0.22,4.17,0.45" /><path d="M67.73,61.75c0.44,0.54,1.38,4.03,1.47,5.1c0.09,1.08-0.06,25.43-0.15,32.15" /></g></g></g></g></g><g fill="none" stroke="#000" stroke-width="5" stroke-linecap="round" stroke-linejoin="round"><path d="M12.75,38.42c2.22,0.25,1.35,0.55,3.73,0.25c5.85-0.75,15.43-2.5,25.19-3.67" stroke-dasharray="29.229" stroke-dashoffset="29.229"><animate attributeName="stroke-dashoffset" values="29.229;29.229;0" dur="0.292s" fill="freeze" begin="0s;6389.click" /></path><path d="M27.27,14.5c0.48,0.92,1.76,2.49,1.76,5.52c0,15.23,0.24,56.46,0.24,67.9c0,14.25-6.32,3.53-7.77,2" stroke-dasharray="89.816" stroke-dashoffset="89.816"><animate attributeName="stroke-dashoffset" values="89.816" fill="freeze" begin="6389.click" /><animate attributeName="stroke-dashoffset" values="89.816;89.816;0" keyTimes="0;0.302;1" dur="0.967s" fill="freeze" begin="0s;6389.click" /></path><path d="M11.75,67.74c0.9,1.06,2.33,1.68,4.31,0.7c1.17-0.58,19.23-12.51,24.19-15.28" stroke-dasharray="33.373" stroke-dashoffset="33.373"><animate attributeName="stroke-dashoffset" values="33.373" fill="freeze" begin="6389.click" /><animate attributeName="stroke-dashoffset" values="33.373;33.373;0" keyTimes="0;0.743;1" dur="1.301s" fill="freeze" begin="0s;6389.click" /></path><path d="M65.31,12.88c0.76,0.33,2.36,2.46,2.51,3.12c0.15,0.66,0.4,14.53,0.25,18.63" stroke-dasharray="22.698" stroke-dashoffset="22.698"><animate attributeName="stroke-dashoffset" values="22.698" fill="freeze" begin="6389.click" /><animate attributeName="stroke-dashoffset" values="22.698;22.698;0" keyTimes="0;0.851;1" dur="1.528s" fill="freeze" begin="0s;6389.click" /></path><path d="M68.25,23.5c2,0,12.67-1.36,18.5-2.27C88.83,20.9,89.75,21.08,91,21" stroke-dasharray="22.907" stroke-dashoffset="22.907"><animate attributeName="stroke-dashoffset" values="22.907" fill="freeze" begin="6389.click" /><animate attributeName="stroke-dashoffset" values="22.907;22.907;0" keyTimes="0;0.87;1" dur="1.757s" fill="freeze" begin="0s;6389.click" /></path><path d="M50.16,36.17c0.65,1.17,1.03,1.54,1.24,3.11c0.57,4.28,3.07,19.63,3.1,23.22" stroke-dasharray="26.816" stroke-dashoffset="26.816"><animate attributeName="stroke-dashoffset" values="26.816" fill="freeze" begin="6389.click" /><animate attributeName="stroke-dashoffset" values="26.816;26.816;0" keyTimes="0;0.868;1" dur="2.025s" fill="freeze" begin="0s;6389.click" /></path><path d="M52.73,37.61c3.71-0.19,32.44-3.86,35.79-3.37c1.33,0.19,2.44,1.69,2.09,3.69C89.75,43,88,55,85.43,60.58" stroke-dasharray="63.977" stroke-dashoffset="63.977"><animate attributeName="stroke-dashoffset" values="63.977" fill="freeze" begin="6389.click" /><animate attributeName="stroke-dashoffset" values="63.977;63.977;0" keyTimes="0;0.808;1" dur="2.506s" fill="freeze" begin="0s;6389.click" /></path><path d="M53.48,48.31c6.33-0.43,29.11-2.72,34.78-2.72" stroke-dasharray="34.891" stroke-dashoffset="34.891"><animate attributeName="stroke-dashoffset" values="34.891" fill="freeze" begin="6389.click" /><animate attributeName="stroke-dashoffset" values="34.891;34.891;0" keyTimes="0;0.878;1" dur="2.855s" fill="freeze" begin="0s;6389.click" /></path><path d="M55.14,59.86c9.11-0.74,25.78-2.33,30.41-2.33" stroke-dasharray="30.504" stroke-dashoffset="30.504"><animate attributeName="stroke-dashoffset" values="30.504" fill="freeze" begin="6389.click" /><animate attributeName="stroke-dashoffset" values="30.504;30.504;0" keyTimes="0;0.903;1" dur="3.16s" fill="freeze" begin="0s;6389.click" /></path><path d="M40.88,75.21c1.19,0.46,3.38,0.58,4.57,0.46c10.3-1.09,39.82-3.46,49.51-3.42c1.99,0.01,3.18,0.22,4.17,0.45" stroke-dasharray="58.468" stroke-dashoffset="58.468"><animate attributeName="stroke-dashoffset" values="58.468" fill="freeze" begin="6389.click" /><animate attributeName="stroke-dashoffset" values="58.468;58.468;0" keyTimes="0;0.844;1" dur="3.745s" fill="freeze" begin="0s;6389.click" /></path><path d="M67.73,61.75c0.44,0.54,1.38,4.03,1.47,5.1c0.09,1.08-0.06,25.43-0.15,32.15" stroke-dasharray="37.483" stroke-dashoffset="37.483"><animate attributeName="stroke-dashoffset" values="37.483" fill="freeze" begin="6389.click" /><animate attributeName="stroke-dashoffset" values="37.483;37.483;0" keyTimes="0;0.909;1" dur="4.12s" fill="freeze" begin="0s;6389.click" /></path></g></svg>