<svg xmlns="http://www.w3.org/2000/svg" width="109" height="109" viewBox="0 0 109 109" id="6392"><g fill="none" stroke="#666" stroke-width="9" stroke-linecap="round" stroke-linejoin="round"><g><g><path d="M15.25,36.92c1.79,0.21,3.41,0.28,5.25-0.01c5.02-0.79,12.36-2.3,17.27-3.48c0.93-0.22,1.91-0.3,2.89-0.43" /><path d="M29.52,14.5c0.99,0.99,1.51,2.5,1.51,4.77c0,15.23-0.01,54.46-0.01,65.9c0,14.25-5.32,4.03-6.77,2.5" /><path d="M14.38,66.1c1.05,1.01,2.33,1.01,4.42-0.4c4.67-3.14,9.48-6.67,19.95-14.28" /></g><g p4:phon="非" xmlns:p4="http://kanjivg.tagaini.net"><g><path d="M59.12,14.95c0.9,0.9,1.31,1.92,1.34,3.38C61.5,63.62,62,83.25,45.81,97.25" /><path d="M43.3,39.12c1.07,0.13,2.21,0.13,3.26,0c3.06-0.37,9.44-1.87,11.54-2.41" /><path d="M43.46,55.26c1.17,0.24,2.23,0.24,3.26,0c1.03-0.24,8.83-2.17,11.57-2.89" /><path d="M43,74.88c1.25,0.62,2.31,0.53,3.88-0.47c1.24-0.79,4.99-2.91,10.05-6.37" /></g><g><path d="M74.14,12.25c1.12,1.12,1.34,2.25,1.34,3.63c0,0.78,0.05,50.53-0.06,72.62c-0.03,5.46-0.02,7.31-0.05,8.5" /><path d="M76.74,34.36C79.83,34,88,32.25,91.12,31.75c0.86-0.14,1.66-0.12,3.12-0.12" /><path d="M76.75,52.46c5.38-1.21,11.38-2.08,14.88-2.63c0.86-0.13,2-0.2,3.21-0.12" /><path d="M76.66,69.79c2.53-0.3,11.43-1.63,15.75-2.25c1.45-0.21,2.59-0.29,3.84,0.01" /></g></g></g></g><g fill="none" stroke="#000" stroke-width="5" stroke-linecap="round" stroke-linejoin="round"><g><g><path d="M15.25,36.92c1.79,0.21,3.41,0.28,5.25-0.01c5.02-0.79,12.36-2.3,17.27-3.48c0.93-0.22,1.91-0.3,2.89-0.43" stroke-dasharray="25.81" stroke-dashoffset="25.81"><animate id="0" attributeName="stroke-dashoffset" values="25.81;0" dur="0.26s" fill="freeze" begin="0s;6392.click" /></path><path d="M29.52,14.5c0.99,0.99,1.51,2.5,1.51,4.77c0,15.23-0.01,54.46-0.01,65.9c0,14.25-5.32,4.03-6.77,2.5" stroke-dasharray="86.31" stroke-dashoffset="86.31"><animate attributeName="stroke-dashoffset" values="86.31" fill="freeze" begin="6392.click" /><animate id="1" attributeName="stroke-dashoffset" values="86.31;0" dur="0.65s" fill="freeze" begin="0.end" /></path><path d="M14.38,66.1c1.05,1.01,2.33,1.01,4.42-0.4c4.67-3.14,9.48-6.67,19.95-14.28" stroke-dasharray="29.41" stroke-dashoffset="29.41"><animate attributeName="stroke-dashoffset" values="29.41" fill="freeze" begin="6392.click" /><animate id="2" attributeName="stroke-dashoffset" values="29.41;0" dur="0.29s" fill="freeze" begin="1.end" /></path></g><g p4:phon="非" xmlns:p4="http://kanjivg.tagaini.net"><g><path d="M59.12,14.95c0.9,0.9,1.31,1.92,1.34,3.38C61.5,63.62,62,83.25,45.81,97.25" stroke-dasharray="86.71" stroke-dashoffset="86.71"><animate attributeName="stroke-dashoffset" values="86.71" fill="freeze" begin="6392.click" /><animate id="3" attributeName="stroke-dashoffset" values="86.71;0" dur="0.65s" fill="freeze" begin="2.end" /></path><path d="M43.3,39.12c1.07,0.13,2.21,0.13,3.26,0c3.06-0.37,9.44-1.87,11.54-2.41" stroke-dasharray="15.06" stroke-dashoffset="15.06"><animate attributeName="stroke-dashoffset" values="15.06" fill="freeze" begin="6392.click" /><animate id="4" attributeName="stroke-dashoffset" values="15.06;0" dur="0.15s" fill="freeze" begin="3.end" /></path><path d="M43.46,55.26c1.17,0.24,2.23,0.24,3.26,0c1.03-0.24,8.83-2.17,11.57-2.89" stroke-dasharray="15.21" stroke-dashoffset="15.21"><animate attributeName="stroke-dashoffset" values="15.21" fill="freeze" begin="6392.click" /><animate id="5" attributeName="stroke-dashoffset" values="15.21;0" dur="0.15s" fill="freeze" begin="4.end" /></path><path d="M43,74.88c1.25,0.62,2.31,0.53,3.88-0.47c1.24-0.79,4.99-2.91,10.05-6.37" stroke-dasharray="16.03" stroke-dashoffset="16.03"><animate attributeName="stroke-dashoffset" values="16.03" fill="freeze" begin="6392.click" /><animate id="6" attributeName="stroke-dashoffset" values="16.03;0" dur="0.16s" fill="freeze" begin="5.end" /></path></g><g><path d="M74.14,12.25c1.12,1.12,1.34,2.25,1.34,3.63c0,0.78,0.05,50.53-0.06,72.62c-0.03,5.46-0.02,7.31-0.05,8.5" stroke-dasharray="85.11" stroke-dashoffset="85.11"><animate attributeName="stroke-dashoffset" values="85.11" fill="freeze" begin="6392.click" /><animate id="7" attributeName="stroke-dashoffset" values="85.11;0" dur="0.64s" fill="freeze" begin="6.end" /></path><path d="M76.74,34.36C79.83,34,88,32.25,91.12,31.75c0.86-0.14,1.66-0.12,3.12-0.12" stroke-dasharray="17.74" stroke-dashoffset="17.74"><animate attributeName="stroke-dashoffset" values="17.74" fill="freeze" begin="6392.click" /><animate id="8" attributeName="stroke-dashoffset" values="17.74;0" dur="0.18s" fill="freeze" begin="7.end" /></path><path d="M76.75,52.46c5.38-1.21,11.38-2.08,14.88-2.63c0.86-0.13,2-0.2,3.21-0.12" stroke-dasharray="18.33" stroke-dashoffset="18.33"><animate attributeName="stroke-dashoffset" values="18.33" fill="freeze" begin="6392.click" /><animate id="9" attributeName="stroke-dashoffset" values="18.33;0" dur="0.18s" fill="freeze" begin="8.end" /></path><path d="M76.66,69.79c2.53-0.3,11.43-1.63,15.75-2.25c1.45-0.21,2.59-0.29,3.84,0.01" stroke-dasharray="19.78" stroke-dashoffset="19.78"><animate attributeName="stroke-dashoffset" values="19.78" fill="freeze" begin="6392.click" /><animate id="10" attributeName="stroke-dashoffset" values="19.78;0" dur="0.2s" fill="freeze" begin="9.end" /></path></g></g></g></g></svg>