<svg xmlns="http://www.w3.org/2000/svg" width="109" height="109" viewBox="0 0 109 109" id="639f"><g fill="none" stroke="#666" stroke-width="9" stroke-linecap="round" stroke-linejoin="round"><g><g><path d="M13.25,37.73c1.56,0.31,3.11,0.34,4.65,0.07c5.56-0.69,14.31-1.86,22.77-2.81" /><path d="M29.02,14.5c0.87,0.87,1.51,2.74,1.51,5.77c0,15.23,0.24,54.21,0.24,65.65c0,14.25-6.32,3.53-7.77,2" /><path d="M12.5,66.7c1.75,1.05,3.31,1.07,4.7,0.05c4.23-2.37,20.49-11.79,24.3-13.83" /></g><g><g><path d="M67.41,14.67c0.71,0.8,1.18,2.3,1.16,3.4c-0.07,3.46-0.07,8.48-0.07,11.63" /><g><path d="M48.79,30.91c0,3.31-2.59,12.43-3.77,14.64" /><path d="M49.12,33.32c10.66-1.87,30.15-3.98,40.19-4.43c9.21-0.41,1.92,6.49-0.95,8.92" /></g></g><g><path d="M51.32,50.21c2.07,0.42,4.07,0.33,6.17,0c4.44-0.7,19.1-2.47,24.51-2.84c1.87-0.12,3.74-0.1,5.61,0.05" /><g><path d="M66.16,50.45c0.81,0.42,1.46,1.89,1.46,2.75c0,4.92-0.04,23.67-0.04,30.37" /><path d="M67.78,66.6c5.97-0.51,8.34-1.03,17.35-2.06c1.45-0.17,1.82-0.17,2.74,0" /></g><g><path d="M52.28,60.46c0.59,0.79,0.77,2.28,0.66,3.56C52.25,72.25,46.5,88,36.31,96.67" /><path d="M52.19,76.05C55.5,76.5,75.62,92,87.07,94.67c2.13,0.5,3.69,1.32,5.67,1.58" /></g></g></g></g></g><g fill="none" stroke="#000" stroke-width="5" stroke-linecap="round" stroke-linejoin="round"><g><g><path d="M13.25,37.73c1.56,0.31,3.11,0.34,4.65,0.07c5.56-0.69,14.31-1.86,22.77-2.81" stroke-dasharray="27.62" stroke-dashoffset="27.62"><animate id="0" attributeName="stroke-dashoffset" values="27.62;0" dur="0.28s" fill="freeze" begin="0s;639f.click" /></path><path d="M29.02,14.5c0.87,0.87,1.51,2.74,1.51,5.77c0,15.23,0.24,54.21,0.24,65.65c0,14.25-6.32,3.53-7.77,2" stroke-dasharray="87.78" stroke-dashoffset="87.78"><animate attributeName="stroke-dashoffset" values="87.78" fill="freeze" begin="639f.click" /><animate id="1" attributeName="stroke-dashoffset" values="87.78;0" dur="0.66s" fill="freeze" begin="0.end" /></path><path d="M12.5,66.7c1.75,1.05,3.31,1.07,4.7,0.05c4.23-2.37,20.49-11.79,24.3-13.83" stroke-dasharray="32.98" stroke-dashoffset="32.98"><animate attributeName="stroke-dashoffset" values="32.98" fill="freeze" begin="639f.click" /><animate id="2" attributeName="stroke-dashoffset" values="32.98;0" dur="0.33s" fill="freeze" begin="1.end" /></path></g><g><g><path d="M67.41,14.67c0.71,0.8,1.18,2.3,1.16,3.4c-0.07,3.46-0.07,8.48-0.07,11.63" stroke-dasharray="15.29" stroke-dashoffset="15.29"><animate attributeName="stroke-dashoffset" values="15.29" fill="freeze" begin="639f.click" /><animate id="3" attributeName="stroke-dashoffset" values="15.29;0" dur="0.15s" fill="freeze" begin="2.end" /></path><g><path d="M48.79,30.91c0,3.31-2.59,12.43-3.77,14.64" stroke-dasharray="15.18" stroke-dashoffset="15.18"><animate attributeName="stroke-dashoffset" values="15.18" fill="freeze" begin="639f.click" /><animate id="4" attributeName="stroke-dashoffset" values="15.18;0" dur="0.15s" fill="freeze" begin="3.end" /></path><path d="M49.12,33.32c10.66-1.87,30.15-3.98,40.19-4.43c9.21-0.41,1.92,6.49-0.95,8.92" stroke-dasharray="54.98" stroke-dashoffset="54.98"><animate attributeName="stroke-dashoffset" values="54.98" fill="freeze" begin="639f.click" /><animate id="5" attributeName="stroke-dashoffset" values="54.98;0" dur="0.55s" fill="freeze" begin="4.end" /></path></g></g><g><path d="M51.32,50.21c2.07,0.42,4.07,0.33,6.17,0c4.44-0.7,19.1-2.47,24.51-2.84c1.87-0.12,3.74-0.1,5.61,0.05" stroke-dasharray="36.5" stroke-dashoffset="36.5"><animate attributeName="stroke-dashoffset" values="36.5" fill="freeze" begin="639f.click" /><animate id="6" attributeName="stroke-dashoffset" values="36.5;0" dur="0.36s" fill="freeze" begin="5.end" /></path><g><path d="M66.16,50.45c0.81,0.42,1.46,1.89,1.46,2.75c0,4.92-0.04,23.67-0.04,30.37" stroke-dasharray="33.6" stroke-dashoffset="33.6"><animate attributeName="stroke-dashoffset" values="33.6" fill="freeze" begin="639f.click" /><animate id="7" attributeName="stroke-dashoffset" values="33.6;0" dur="0.34s" fill="freeze" begin="6.end" /></path><path d="M67.78,66.6c5.97-0.51,8.34-1.03,17.35-2.06c1.45-0.17,1.82-0.17,2.74,0" stroke-dasharray="20.23" stroke-dashoffset="20.23"><animate attributeName="stroke-dashoffset" values="20.23" fill="freeze" begin="639f.click" /><animate id="8" attributeName="stroke-dashoffset" values="20.23;0" dur="0.2s" fill="freeze" begin="7.end" /></path></g><g><path d="M52.28,60.46c0.59,0.79,0.77,2.28,0.66,3.56C52.25,72.25,46.5,88,36.31,96.67" stroke-dasharray="41.08" stroke-dashoffset="41.08"><animate attributeName="stroke-dashoffset" values="41.08" fill="freeze" begin="639f.click" /><animate id="9" attributeName="stroke-dashoffset" values="41.08;0" dur="0.41s" fill="freeze" begin="8.end" /></path><path d="M52.19,76.05C55.5,76.5,75.62,92,87.07,94.67c2.13,0.5,3.69,1.32,5.67,1.58" stroke-dasharray="45.58" stroke-dashoffset="45.58"><animate attributeName="stroke-dashoffset" values="45.58" fill="freeze" begin="639f.click" /><animate id="10" attributeName="stroke-dashoffset" values="45.58;0" dur="0.46s" fill="freeze" begin="9.end" /></path></g></g></g></g></g></svg>