<svg xmlns="http://www.w3.org/2000/svg" width="109" height="109" viewBox="0 0 109 109" id="63b4"><g fill="none" stroke="#666" stroke-width="9" stroke-linecap="round" stroke-linejoin="round"><g><g><path d="M12.5,37.92c2.08,0.25,1.27,0.55,3.5,0.25c5.5-0.75,13.5-2,22.67-3.17" /><path d="M27.27,14c0.48,0.92,1.67,2.49,1.76,5.52c0.4,14.55,0.24,62.94,0.24,67.9c0,14.25-6.32,3.53-7.77,2" /><path d="M10.5,66c2.33,1.63,3.83,0.89,6.16-0.51c1.37-0.83,16.27-10.85,22.09-14.82" /></g><g><g><path d="M44.25,18.07c0.53,1.44,1.29,2.52,1.31,4.42c0.1,14.32,0.1,48.17-0.22,75.51" /><path d="M45.7,20.91c12.69-1.65,34.04-4.16,44.59-4.16c2.21,0,3.96,1.75,3.96,4.02c0,16.81-0.7,53.91-0.35,76.23" /></g><g><g p6:partial xmlns:p6="http://kanjivg.tagaini.net"><path d="M53.54,34.49c0.62,0.24,2.64,0.31,3.26,0.24c2.91-0.32,13.69-1.82,25.74-2.67c0.95-0.07,1.82,0.05,2.61,0.25" /><path d="M67.92,35.7c0.5,0.86,0.5,2.78,0.5,3.47c0,4.8,0.25,35.43,0.12,40.23" /><path d="M54.19,54.95c0.58,0.27,2.51,0.42,3.11,0.35c3.41-0.35,11.56-2,22.66-2.62c0.73-0.04,2.33-0.11,3.41,0.13" /><path d="M52.76,81.14c0.4,0.13,1.95,0.17,2.63,0.11c5.59-0.56,22.14-2.48,28.46-2.82c1.09-0.06,2.41,0.22,2.96,0.44" /></g><g><path d="M76.74,61.38c3.21,2.12,5.96,6.62,6.65,9.27" /></g></g><g><path d="M46.01,95c9.2,0,35.19-2.11,47.89-2.52" /></g></g></g></g><g fill="none" stroke="#000" stroke-width="5" stroke-linecap="round" stroke-linejoin="round"><path d="M12.5,37.92c2.08,0.25,1.27,0.55,3.5,0.25c5.5-0.75,13.5-2,22.67-3.17" stroke-dasharray="26.435" stroke-dashoffset="26.435"><animate attributeName="stroke-dashoffset" values="26.435;26.435;0" dur="0.264s" fill="freeze" begin="0s;63b4.click" /></path><path d="M27.27,14c0.48,0.92,1.67,2.49,1.76,5.52c0.4,14.55,0.24,62.94,0.24,67.9c0,14.25-6.32,3.53-7.77,2" stroke-dasharray="89.803" stroke-dashoffset="89.803"><animate attributeName="stroke-dashoffset" values="89.803" fill="freeze" begin="63b4.click" /><animate attributeName="stroke-dashoffset" values="89.803;89.803;0" keyTimes="0;0.281;1" dur="0.939s" fill="freeze" begin="0s;63b4.click" /></path><path d="M10.5,66c2.33,1.63,3.83,0.89,6.16-0.51c1.37-0.83,16.27-10.85,22.09-14.82" stroke-dasharray="33.294" stroke-dashoffset="33.294"><animate attributeName="stroke-dashoffset" values="33.294" fill="freeze" begin="63b4.click" /><animate attributeName="stroke-dashoffset" values="33.294;33.294;0" keyTimes="0;0.738;1" dur="1.272s" fill="freeze" begin="0s;63b4.click" /></path><path d="M44.25,18.07c0.53,1.44,1.29,2.52,1.31,4.42c0.1,14.32,0.1,48.17-0.22,75.51" stroke-dasharray="80.159" stroke-dashoffset="80.159"><animate attributeName="stroke-dashoffset" values="80.159" fill="freeze" begin="63b4.click" /><animate attributeName="stroke-dashoffset" values="80.159;80.159;0" keyTimes="0;0.678;1" dur="1.875s" fill="freeze" begin="0s;63b4.click" /></path><path d="M45.7,20.91c12.69-1.65,34.04-4.16,44.59-4.16c2.21,0,3.96,1.75,3.96,4.02c0,16.81-0.7,53.91-0.35,76.23" stroke-dasharray="127.323" stroke-dashoffset="127.323"><animate attributeName="stroke-dashoffset" values="127.323" fill="freeze" begin="63b4.click" /><animate attributeName="stroke-dashoffset" values="127.323;127.323;0" keyTimes="0;0.662;1" dur="2.832s" fill="freeze" begin="0s;63b4.click" /></path><path d="M53.54,34.49c0.62,0.24,2.64,0.31,3.26,0.24c2.91-0.32,13.69-1.82,25.74-2.67c0.95-0.07,1.82,0.05,2.61,0.25" stroke-dasharray="31.799" stroke-dashoffset="31.799"><animate attributeName="stroke-dashoffset" values="31.799" fill="freeze" begin="63b4.click" /><animate attributeName="stroke-dashoffset" values="31.799;31.799;0" keyTimes="0;0.899;1" dur="3.15s" fill="freeze" begin="0s;63b4.click" /></path><path d="M67.92,35.7c0.5,0.86,0.5,2.78,0.5,3.47c0,4.8,0.25,35.43,0.12,40.23" stroke-dasharray="43.768" stroke-dashoffset="43.768"><animate attributeName="stroke-dashoffset" values="43.768" fill="freeze" begin="63b4.click" /><animate attributeName="stroke-dashoffset" values="43.768;43.768;0" keyTimes="0;0.878;1" dur="3.588s" fill="freeze" begin="0s;63b4.click" /></path><path d="M54.19,54.95c0.58,0.27,2.51,0.42,3.11,0.35c3.41-0.35,11.56-2,22.66-2.62c0.73-0.04,2.33-0.11,3.41,0.13" stroke-dasharray="29.39" stroke-dashoffset="29.39"><animate attributeName="stroke-dashoffset" values="29.39" fill="freeze" begin="63b4.click" /><animate attributeName="stroke-dashoffset" values="29.39;29.39;0" keyTimes="0;0.924;1" dur="3.882s" fill="freeze" begin="0s;63b4.click" /></path><path d="M52.76,81.14c0.4,0.13,1.95,0.17,2.63,0.11c5.59-0.56,22.14-2.48,28.46-2.82c1.09-0.06,2.41,0.22,2.96,0.44" stroke-dasharray="34.252" stroke-dashoffset="34.252"><animate attributeName="stroke-dashoffset" values="34.252" fill="freeze" begin="63b4.click" /><animate attributeName="stroke-dashoffset" values="34.252;34.252;0" keyTimes="0;0.919;1" dur="4.225s" fill="freeze" begin="0s;63b4.click" /></path><path d="M76.74,61.38c3.21,2.12,5.96,6.62,6.65,9.27" stroke-dasharray="11.606" stroke-dashoffset="11.606"><animate attributeName="stroke-dashoffset" values="11.606" fill="freeze" begin="63b4.click" /><animate attributeName="stroke-dashoffset" values="11.606;11.606;0" keyTimes="0;0.973;1" dur="4.341s" fill="freeze" begin="0s;63b4.click" /></path><path d="M46.01,95c9.2,0,35.19-2.11,47.89-2.52" stroke-dasharray="47.961" stroke-dashoffset="47.961"><animate attributeName="stroke-dashoffset" values="47.961" fill="freeze" begin="63b4.click" /><animate attributeName="stroke-dashoffset" values="47.961;47.961;0" keyTimes="0;0.9;1" dur="4.821s" fill="freeze" begin="0s;63b4.click" /></path></g></svg>