<svg xmlns="http://www.w3.org/2000/svg" width="109" height="109" viewBox="0 0 109 109" id="63b4"><g fill="none" stroke="#666" stroke-width="9" stroke-linecap="round" stroke-linejoin="round"><g><g><path d="M12.5,37.92c2.08,0.25,1.27,0.55,3.5,0.25c5.5-0.75,13.5-2,22.67-3.17" /><path d="M27.27,14c0.48,0.92,1.67,2.49,1.76,5.52c0.4,14.55,0.24,62.94,0.24,67.9c0,14.25-6.32,3.53-7.77,2" /><path d="M10.5,66c2.33,1.63,3.83,0.89,6.16-0.51c1.37-0.83,16.27-10.85,22.09-14.82" /></g><g><g p5:part="1" xmlns:p5="http://kanjivg.tagaini.net"><path d="M44.25,18.07c0.53,1.44,1.29,2.52,1.31,4.42c0.1,14.32,0.1,48.17-0.22,75.51" /><path d="M45.7,20.91c12.69-1.65,34.04-4.16,44.59-4.16c2.21,0,3.96,1.75,3.96,4.02c0,16.81-0.7,53.91-0.35,76.23" /></g><g><g p6:partial xmlns:p6="http://kanjivg.tagaini.net"><path d="M53.54,34.49c0.62,0.24,2.64,0.31,3.26,0.24c2.91-0.32,13.69-1.82,25.74-2.67c0.95-0.07,1.82,0.05,2.61,0.25" /><path d="M67.92,35.7c0.5,0.86,0.5,2.78,0.5,3.47c0,4.8,0.25,35.43,0.12,40.23" /><path d="M54.19,54.95c0.58,0.27,2.51,0.42,3.11,0.35c3.41-0.35,11.56-2,22.66-2.62c0.73-0.04,2.33-0.11,3.41,0.13" /><path d="M52.76,81.14c0.4,0.13,1.95,0.17,2.63,0.11c5.59-0.56,22.14-2.48,28.46-2.82c1.09-0.06,2.41,0.22,2.96,0.44" /></g><g><path d="M76.74,61.38c3.21,2.12,5.96,6.62,6.65,9.27" /></g></g><g p5:part="2" xmlns:p5="http://kanjivg.tagaini.net"><path d="M46.01,95c9.2,0,35.19-2.11,47.89-2.52" /></g></g></g></g><g fill="none" stroke="#000" stroke-width="5" stroke-linecap="round" stroke-linejoin="round"><g><g><path d="M12.5,37.92c2.08,0.25,1.27,0.55,3.5,0.25c5.5-0.75,13.5-2,22.67-3.17" stroke-dasharray="26.43" stroke-dashoffset="26.43"><animate id="0" attributeName="stroke-dashoffset" values="26.43;0" dur="0.26s" fill="freeze" begin="0s;63b4.click" /></path><path d="M27.27,14c0.48,0.92,1.67,2.49,1.76,5.52c0.4,14.55,0.24,62.94,0.24,67.9c0,14.25-6.32,3.53-7.77,2" stroke-dasharray="89.8" stroke-dashoffset="89.8"><animate attributeName="stroke-dashoffset" values="89.8" fill="freeze" begin="63b4.click" /><animate id="1" attributeName="stroke-dashoffset" values="89.8;0" dur="0.68s" fill="freeze" begin="0.end" /></path><path d="M10.5,66c2.33,1.63,3.83,0.89,6.16-0.51c1.37-0.83,16.27-10.85,22.09-14.82" stroke-dasharray="33.29" stroke-dashoffset="33.29"><animate attributeName="stroke-dashoffset" values="33.29" fill="freeze" begin="63b4.click" /><animate id="2" attributeName="stroke-dashoffset" values="33.29;0" dur="0.33s" fill="freeze" begin="1.end" /></path></g><g><g p5:part="1" xmlns:p5="http://kanjivg.tagaini.net"><path d="M44.25,18.07c0.53,1.44,1.29,2.52,1.31,4.42c0.1,14.32,0.1,48.17-0.22,75.51" stroke-dasharray="80.16" stroke-dashoffset="80.16"><animate attributeName="stroke-dashoffset" values="80.16" fill="freeze" begin="63b4.click" /><animate id="3" attributeName="stroke-dashoffset" values="80.16;0" dur="0.6s" fill="freeze" begin="2.end" /></path><path d="M45.7,20.91c12.69-1.65,34.04-4.16,44.59-4.16c2.21,0,3.96,1.75,3.96,4.02c0,16.81-0.7,53.91-0.35,76.23" stroke-dasharray="127.32" stroke-dashoffset="127.32"><animate attributeName="stroke-dashoffset" values="127.32" fill="freeze" begin="63b4.click" /><animate id="4" attributeName="stroke-dashoffset" values="127.32;0" dur="0.96s" fill="freeze" begin="3.end" /></path></g><g><g p6:partial xmlns:p6="http://kanjivg.tagaini.net"><path d="M53.54,34.49c0.62,0.24,2.64,0.31,3.26,0.24c2.91-0.32,13.69-1.82,25.74-2.67c0.95-0.07,1.82,0.05,2.61,0.25" stroke-dasharray="31.8" stroke-dashoffset="31.8"><animate attributeName="stroke-dashoffset" values="31.8" fill="freeze" begin="63b4.click" /><animate id="5" attributeName="stroke-dashoffset" values="31.8;0" dur="0.32s" fill="freeze" begin="4.end" /></path><path d="M67.92,35.7c0.5,0.86,0.5,2.78,0.5,3.47c0,4.8,0.25,35.43,0.12,40.23" stroke-dasharray="43.77" stroke-dashoffset="43.77"><animate attributeName="stroke-dashoffset" values="43.77" fill="freeze" begin="63b4.click" /><animate id="6" attributeName="stroke-dashoffset" values="43.77;0" dur="0.44s" fill="freeze" begin="5.end" /></path><path d="M54.19,54.95c0.58,0.27,2.51,0.42,3.11,0.35c3.41-0.35,11.56-2,22.66-2.62c0.73-0.04,2.33-0.11,3.41,0.13" stroke-dasharray="29.39" stroke-dashoffset="29.39"><animate attributeName="stroke-dashoffset" values="29.39" fill="freeze" begin="63b4.click" /><animate id="7" attributeName="stroke-dashoffset" values="29.39;0" dur="0.29s" fill="freeze" begin="6.end" /></path><path d="M52.76,81.14c0.4,0.13,1.95,0.17,2.63,0.11c5.59-0.56,22.14-2.48,28.46-2.82c1.09-0.06,2.41,0.22,2.96,0.44" stroke-dasharray="34.25" stroke-dashoffset="34.25"><animate attributeName="stroke-dashoffset" values="34.25" fill="freeze" begin="63b4.click" /><animate id="8" attributeName="stroke-dashoffset" values="34.25;0" dur="0.34s" fill="freeze" begin="7.end" /></path></g><g><path d="M76.74,61.38c3.21,2.12,5.96,6.62,6.65,9.27" stroke-dasharray="11.61" stroke-dashoffset="11.61"><animate attributeName="stroke-dashoffset" values="11.61" fill="freeze" begin="63b4.click" /><animate id="9" attributeName="stroke-dashoffset" values="11.61;0" dur="0.12s" fill="freeze" begin="8.end" /></path></g></g><g p5:part="2" xmlns:p5="http://kanjivg.tagaini.net"><path d="M46.01,95c9.2,0,35.19-2.11,47.89-2.52" stroke-dasharray="47.96" stroke-dashoffset="47.96"><animate attributeName="stroke-dashoffset" values="47.96" fill="freeze" begin="63b4.click" /><animate id="10" attributeName="stroke-dashoffset" values="47.96;0" dur="0.48s" fill="freeze" begin="9.end" /></path></g></g></g></g></svg>