<svg xmlns="http://www.w3.org/2000/svg" width="109" height="109" viewBox="0 0 109 109" id="63c4"><g fill="none" stroke="#666" stroke-width="6" stroke-linecap="round" stroke-linejoin="round"><g><g><path d="M12,36.92c2.08,0.25,1.27,0.55,3.5,0.25c5.5-0.75,13.5-2,22.67-3.17" /><path d="M25.77,12.5c0.48,0.92,1.76,2.49,1.76,5.52c0,15.23,0.24,58.96,0.24,70.4c0,14.25-6.32,3.53-7.77,2" /><path d="M11,67.16c0.77,0.91,1.99,1.44,3.68,0.6c1-0.49,17.88-10.22,22.1-12.6" /></g><g><g><path d="M 64.900813,10.431453 c -0.04496,1.753402 -0.431606,2.697541 -0.962123,3.884459 -4.88255,10.898068 -14.74656,24.25989 -22.614389,30.032629" /><path d="M 59.386395,5.3152892 C 65.6228,6.6784373 73.343249,25.137162 82.898922,36.539902 c 2.099248,2.508193 4.239392,4.955045 6.393167,6.318194" /></g><g><g><path d="M52.78,41.56c0.55,0.19,1.54,0.21,2.09,0.19c3.66-0.11,18.63-2.74,22.04-2.36c0.9,0.1,1.46,0.09,1.91,0.19" /></g><g><path d="M43.52,51.96c0.58,0.95,0.96,1.9,1.16,2.85c0.19,0.95,0.27,38.07,0.19,40.21" /><path d="M45.83,53.8c1.29-0.14,13.12-2.42,14.08-2.58c1.72-0.27,2.87,1.76,2.65,2.58c-0.21,0.78-0.32,23.75-0.32,34.73c0,9.72-3.82,2.94-4.9,1.72" /><path d="M50.6,61.34c2.15,0.94,5.54,3.87,6.08,5.34" /><path d="M50.46,73.74c2.1,1.16,5.41,4.75,5.94,6.55" /></g><g><path d="M78.16,49.87c0.31,1.01,1.18,2.23,0.71,3.61c-1.42,4.21-5.17,12.18-9.46,17.21c-1.17,1.38-0.02,2.26,0.31,2.54c5.2,4.61,7.78,9.81,10.39,19.77" /><path d="M90.98,49.97c0.31,1.01,1.18,2.73,0.71,4.11c-1.42,4.21-4.76,10.35-9.05,15.38c-1.17,1.38-0.01,2.26,0.31,2.54c5.2,4.61,10.3,11.81,12.8,21.77" /></g></g></g></g></g><g fill="none" stroke="#000" stroke-width="3" stroke-linecap="round" stroke-linejoin="round"><path d="M12,36.92c2.08,0.25,1.27,0.55,3.5,0.25c5.5-0.75,13.5-2,22.67-3.17" stroke-dasharray="26.435" stroke-dashoffset="26.435"><animate attributeName="stroke-dashoffset" values="26.435;26.435;0" dur="0.264s" fill="freeze" begin="0s;63c4.click" /></path><path d="M25.77,12.5c0.48,0.92,1.76,2.49,1.76,5.52c0,15.23,0.24,58.96,0.24,70.4c0,14.25-6.32,3.53-7.77,2" stroke-dasharray="92.316" stroke-dashoffset="92.316"><animate attributeName="stroke-dashoffset" values="92.316" fill="freeze" begin="63c4.click" /><animate attributeName="stroke-dashoffset" values="92.316;92.316;0" keyTimes="0;0.276;1" dur="0.958s" fill="freeze" begin="0s;63c4.click" /></path><path d="M11,67.16c0.77,0.91,1.99,1.44,3.68,0.6c1-0.49,17.88-10.22,22.1-12.6" stroke-dasharray="29.506" stroke-dashoffset="29.506"><animate attributeName="stroke-dashoffset" values="29.506" fill="freeze" begin="63c4.click" /><animate attributeName="stroke-dashoffset" values="29.506;29.506;0" keyTimes="0;0.765;1" dur="1.253s" fill="freeze" begin="0s;63c4.click" /></path><path d="M 64.900813,10.431453 c -0.04496,1.753402 -0.431606,2.697541 -0.962123,3.884459 -4.88255,10.898068 -14.74656,24.25989 -22.614389,30.032629" stroke-dasharray="41.952" stroke-dashoffset="41.952"><animate attributeName="stroke-dashoffset" values="41.952" fill="freeze" begin="63c4.click" /><animate attributeName="stroke-dashoffset" values="41.952;41.952;0" keyTimes="0;0.749;1" dur="1.673s" fill="freeze" begin="0s;63c4.click" /></path><path d="M 59.386395,5.3152892 C 65.6228,6.6784373 73.343249,25.137162 82.898922,36.539902 c 2.099248,2.508193 4.239392,4.955045 6.393167,6.318194" stroke-dasharray="48.502" stroke-dashoffset="48.502"><animate attributeName="stroke-dashoffset" values="48.502" fill="freeze" begin="63c4.click" /><animate attributeName="stroke-dashoffset" values="48.502;48.502;0" keyTimes="0;0.775;1" dur="2.158s" fill="freeze" begin="0s;63c4.click" /></path><path d="M52.78,41.56c0.55,0.19,1.54,0.21,2.09,0.19c3.66-0.11,18.63-2.74,22.04-2.36c0.9,0.1,1.46,0.09,1.91,0.19" stroke-dasharray="26.215" stroke-dashoffset="26.215"><animate attributeName="stroke-dashoffset" values="26.215" fill="freeze" begin="63c4.click" /><animate attributeName="stroke-dashoffset" values="26.215;26.215;0" keyTimes="0;0.892;1" dur="2.42s" fill="freeze" begin="0s;63c4.click" /></path><path d="M43.52,51.96c0.58,0.95,0.96,1.9,1.16,2.85c0.19,0.95,0.27,38.07,0.19,40.21" stroke-dasharray="43.306" stroke-dashoffset="43.306"><animate attributeName="stroke-dashoffset" values="43.306" fill="freeze" begin="63c4.click" /><animate attributeName="stroke-dashoffset" values="43.306;43.306;0" keyTimes="0;0.848;1" dur="2.853s" fill="freeze" begin="0s;63c4.click" /></path><path d="M45.83,53.8c1.29-0.14,13.12-2.42,14.08-2.58c1.72-0.27,2.87,1.76,2.65,2.58c-0.21,0.78-0.32,23.75-0.32,34.73c0,9.72-3.82,2.94-4.9,1.72" stroke-dasharray="63.937" stroke-dashoffset="63.937"><animate attributeName="stroke-dashoffset" values="63.937" fill="freeze" begin="63c4.click" /><animate attributeName="stroke-dashoffset" values="63.937;63.937;0" keyTimes="0;0.856;1" dur="3.334s" fill="freeze" begin="0s;63c4.click" /></path><path d="M50.6,61.34c2.15,0.94,5.54,3.87,6.08,5.34" stroke-dasharray="8.211" stroke-dashoffset="8.211"><animate attributeName="stroke-dashoffset" values="8.211" fill="freeze" begin="63c4.click" /><animate attributeName="stroke-dashoffset" values="8.211;8.211;0" keyTimes="0;0.976;1" dur="3.416s" fill="freeze" begin="0s;63c4.click" /></path><path d="M50.46,73.74c2.1,1.16,5.41,4.75,5.94,6.55" stroke-dasharray="8.969" stroke-dashoffset="8.969"><animate attributeName="stroke-dashoffset" values="8.969" fill="freeze" begin="63c4.click" /><animate attributeName="stroke-dashoffset" values="8.969;8.969;0" keyTimes="0;0.974;1" dur="3.506s" fill="freeze" begin="0s;63c4.click" /></path><path d="M78.16,49.87c0.31,1.01,1.18,2.23,0.71,3.61c-1.42,4.21-5.17,12.18-9.46,17.21c-1.17,1.38-0.02,2.26,0.31,2.54c5.2,4.61,7.78,9.81,10.39,19.77" stroke-dasharray="49.173" stroke-dashoffset="49.173"><animate attributeName="stroke-dashoffset" values="49.173" fill="freeze" begin="63c4.click" /><animate attributeName="stroke-dashoffset" values="49.173;49.173;0" keyTimes="0;0.877;1" dur="3.998s" fill="freeze" begin="0s;63c4.click" /></path><path d="M90.98,49.97c0.31,1.01,1.18,2.73,0.71,4.11c-1.42,4.21-4.76,10.35-9.05,15.38c-1.17,1.38-0.01,2.26,0.31,2.54c5.2,4.61,10.3,11.81,12.8,21.77" stroke-dasharray="50.781" stroke-dashoffset="50.781"><animate attributeName="stroke-dashoffset" values="50.781" fill="freeze" begin="63c4.click" /><animate attributeName="stroke-dashoffset" values="50.781;50.781;0" keyTimes="0;0.887;1" dur="4.506s" fill="freeze" begin="0s;63c4.click" /></path></g></svg>