<svg xmlns="http://www.w3.org/2000/svg" width="109" height="109" viewBox="0 0 109 109" id="63d2"><g fill="none" stroke="#666" stroke-width="9" stroke-linecap="round" stroke-linejoin="round"><g><g><path d="M11.5,35.25c2.08,0.25,1.25,0.25,3.5,0.25c4.26,0,15-1.5,24.17-2.67" /><path d="M25.77,11.83c0.48,0.92,1.67,2.49,1.76,5.52c0.4,14.55-0.26,66.66-0.26,71.62c0,11.53-6.21,2.5-7.71,1.25" /><path d="M10.5,62.71c1.25,1.29,2.98,1.02,4.79,0.2c1.07-0.49,19.67-10.82,24.21-13.16" /></g><g><g><g><path d="M85.59,12.67c0.1,0.38-0.81,2.4-1.4,2.81c-4.49,3.14-15.92,8.33-35.85,12.7" /></g><g><path d="M39.36,40.9c1.27,0.39,4.46,0.48,5.72,0.39C59.81,40.2,77,38,92.43,37.17c2.12-0.11,3.4,0.19,4.46,0.38" /><path d="M58.43,51.99c0.04,0.24,0.17,0.69-0.08,0.95c-3.36,3.38-6.46,6.39-14.12,9.08" /></g></g><g><path d="M42.28,61.12c0.76,0.65,1.07,2.12,1.26,3.45c0.69,4.9,2.37,24.03,3.06,30.65" /><path d="M44.81,75.06c3.35-0.33,12.62-1.67,13.41-1.67c0.8,0,1.92,0,2.55,0" /><path d="M74.37,56.55c0.79,0.15,1.43,0.46,2.54,0.46s12.35-1.85,13.62-2c1.27-0.15,2.32,0.76,2.22,1.69c-0.95,8.93-2.22,26.17-3.17,33.57c-0.14,1.07,0,1.69-0.16,2.31" /><path d="M74.23,71.62c0.83,0.14,1.49,0.41,2.64,0.41c1.16,0,13.05-1.09,14.37-1.23" /><path d="M46.79,92.19c2.34,0,38.77-2.43,41.47-2.58" /><path d="M65.77,25.92c0.7,0.48,1.83,2.08,1.83,4.57c0,0.97-0.09,54.24-0.23,60.26" /></g></g></g></g><g fill="none" stroke="#000" stroke-width="5" stroke-linecap="round" stroke-linejoin="round"><g><g><path d="M11.5,35.25c2.08,0.25,1.25,0.25,3.5,0.25c4.26,0,15-1.5,24.17-2.67" stroke-dasharray="27.84" stroke-dashoffset="27.84"><animate id="0" attributeName="stroke-dashoffset" values="27.84;0" dur="0.28s" fill="freeze" begin="0s;63d2.click" /></path><path d="M25.77,11.83c0.48,0.92,1.67,2.49,1.76,5.52c0.4,14.55-0.26,66.66-0.26,71.62c0,11.53-6.21,2.5-7.71,1.25" stroke-dasharray="91.54" stroke-dashoffset="91.54"><animate attributeName="stroke-dashoffset" values="91.54" fill="freeze" begin="63d2.click" /><animate id="1" attributeName="stroke-dashoffset" values="91.54;0" dur="0.69s" fill="freeze" begin="0.end" /></path><path d="M10.5,62.71c1.25,1.29,2.98,1.02,4.79,0.2c1.07-0.49,19.67-10.82,24.21-13.16" stroke-dasharray="32.7" stroke-dashoffset="32.7"><animate attributeName="stroke-dashoffset" values="32.7" fill="freeze" begin="63d2.click" /><animate id="2" attributeName="stroke-dashoffset" values="32.7;0" dur="0.33s" fill="freeze" begin="1.end" /></path></g><g><g><g><path d="M85.59,12.67c0.1,0.38-0.81,2.4-1.4,2.81c-4.49,3.14-15.92,8.33-35.85,12.7" stroke-dasharray="41.41" stroke-dashoffset="41.41"><animate attributeName="stroke-dashoffset" values="41.41" fill="freeze" begin="63d2.click" /><animate id="3" attributeName="stroke-dashoffset" values="41.41;0" dur="0.41s" fill="freeze" begin="2.end" /></path></g><g><path d="M39.36,40.9c1.27,0.39,4.46,0.48,5.72,0.39C59.81,40.2,77,38,92.43,37.17c2.12-0.11,3.4,0.19,4.46,0.38" stroke-dasharray="57.77" stroke-dashoffset="57.77"><animate attributeName="stroke-dashoffset" values="57.77" fill="freeze" begin="63d2.click" /><animate id="4" attributeName="stroke-dashoffset" values="57.77;0" dur="0.58s" fill="freeze" begin="3.end" /></path><path d="M58.43,51.99c0.04,0.24,0.17,0.69-0.08,0.95c-3.36,3.38-6.46,6.39-14.12,9.08" stroke-dasharray="17.97" stroke-dashoffset="17.97"><animate attributeName="stroke-dashoffset" values="17.97" fill="freeze" begin="63d2.click" /><animate id="5" attributeName="stroke-dashoffset" values="17.97;0" dur="0.18s" fill="freeze" begin="4.end" /></path></g></g><g><path d="M42.28,61.12c0.76,0.65,1.07,2.12,1.26,3.45c0.69,4.9,2.37,24.03,3.06,30.65" stroke-dasharray="34.54" stroke-dashoffset="34.54"><animate attributeName="stroke-dashoffset" values="34.54" fill="freeze" begin="63d2.click" /><animate id="6" attributeName="stroke-dashoffset" values="34.54;0" dur="0.35s" fill="freeze" begin="5.end" /></path><path d="M44.81,75.06c3.35-0.33,12.62-1.67,13.41-1.67c0.8,0,1.92,0,2.55,0" stroke-dasharray="16.06" stroke-dashoffset="16.06"><animate attributeName="stroke-dashoffset" values="16.06" fill="freeze" begin="63d2.click" /><animate id="7" attributeName="stroke-dashoffset" values="16.06;0" dur="0.16s" fill="freeze" begin="6.end" /></path><path d="M74.37,56.55c0.79,0.15,1.43,0.46,2.54,0.46s12.35-1.85,13.62-2c1.27-0.15,2.32,0.76,2.22,1.69c-0.95,8.93-2.22,26.17-3.17,33.57c-0.14,1.07,0,1.69-0.16,2.31" stroke-dasharray="55.57" stroke-dashoffset="55.57"><animate attributeName="stroke-dashoffset" values="55.57" fill="freeze" begin="63d2.click" /><animate id="8" attributeName="stroke-dashoffset" values="55.57;0" dur="0.56s" fill="freeze" begin="7.end" /></path><path d="M74.23,71.62c0.83,0.14,1.49,0.41,2.64,0.41c1.16,0,13.05-1.09,14.37-1.23" stroke-dasharray="17.1" stroke-dashoffset="17.1"><animate attributeName="stroke-dashoffset" values="17.1" fill="freeze" begin="63d2.click" /><animate id="9" attributeName="stroke-dashoffset" values="17.1;0" dur="0.17s" fill="freeze" begin="8.end" /></path><path d="M46.79,92.19c2.34,0,38.77-2.43,41.47-2.58" stroke-dasharray="41.55" stroke-dashoffset="41.55"><animate attributeName="stroke-dashoffset" values="41.55" fill="freeze" begin="63d2.click" /><animate id="10" attributeName="stroke-dashoffset" values="41.55;0" dur="0.42s" fill="freeze" begin="9.end" /></path><path d="M65.77,25.92c0.7,0.48,1.83,2.08,1.83,4.57c0,0.97-0.09,54.24-0.23,60.26" stroke-dasharray="65.35" stroke-dashoffset="65.35"><animate attributeName="stroke-dashoffset" values="65.35" fill="freeze" begin="63d2.click" /><animate id="11" attributeName="stroke-dashoffset" values="65.35;0" dur="0.49s" fill="freeze" begin="10.end" /></path></g></g></g></g></svg>