<svg xmlns="http://www.w3.org/2000/svg" width="109" height="109" viewBox="0 0 109 109" id="63da"><g fill="none" stroke="#666" stroke-width="9" stroke-linecap="round" stroke-linejoin="round"><g><g><path d="M13.5,35.92c2.17,0.26,4.15,0.43,6.37,0.06c4.83-0.79,13.03-2.07,19.66-2.99c1.22-0.17,2.34-0.36,3.63-0.23" /><path d="M30.52,13.25c1.05,1.05,1.51,2.88,1.51,5.02c0,15.23-0.01,57.96-0.01,69.4c0,14.25-6.32,3.53-7.77,2" /><path d="M11.5,62.43c1.38,1.32,2.25,1.57,4.25,0.32c5.11-3.19,11.88-8.12,22-15.08" /></g><g p4:phon="昜" xmlns:p4="http://kanjivg.tagaini.net"><g><g><path d="M51.55,13.58c0.81,0.81,1.07,1.67,1.31,2.93c0.72,3.85,1.93,13.86,2.76,19.73c0.34,2.39,0.57,4.06,0.6,4.29" /><path d="M53.79,15.78c4.77-0.69,18.4-2.6,26.1-3.38c2.8-0.28,4.74,0.14,4.32,3.38c-0.71,5.48-1.98,14.42-2.84,19.62c-0.14,0.87-0.57,3.04-0.57,3.63" /><path d="M55.36,26.62c8.51-1.24,20.39-2.49,26.58-2.83" /><path d="M57.29,37.97c4.36-0.59,17.67-1.81,23.04-2.3" /></g><g><path d="M42.91,49.82c2.86,0.79,6.22,0.38,9.11,0.01c11.35-1.45,22.98-2.95,35.23-4.15c2.79-0.27,5.6-0.32,8.37,0.14" /></g></g><g><g><g><path d="M53.65,53.65c0.04,0.48,0.15,1.26-0.09,1.94C52,60,47.25,66.5,40,71" /></g><path d="M54.82,60.3c2.43,0.7,4.77,0.41,6.68,0.19c7.01-0.81,20.2-2.75,26.01-3.46c4.99-0.61,6.99,0.78,5.73,6c-1.28,5.32-6.2,20.56-12.07,29.21c-2.84,4.19-5.15,3.83-8.62,0.42" /></g><g><path d="M61.68,63.85c0.1,0.91,0.04,1.66-0.4,2.46c-2.91,5.32-8.66,12.19-17.6,17.75" /></g><g><path d="M76.88,62.14c0.08,0.87-0.17,2.04-0.67,3.23C73.25,72.5,65.12,85.5,52.66,93.68" /></g></g></g></g></g><g fill="none" stroke="#000" stroke-width="5" stroke-linecap="round" stroke-linejoin="round"><g><g><path d="M13.5,35.92c2.17,0.26,4.15,0.43,6.37,0.06c4.83-0.79,13.03-2.07,19.66-2.99c1.22-0.17,2.34-0.36,3.63-0.23" stroke-dasharray="29.93" stroke-dashoffset="29.93"><animate id="0" attributeName="stroke-dashoffset" values="29.93;0" dur="0.3s" fill="freeze" begin="0s;63da.click" /></path><path d="M30.52,13.25c1.05,1.05,1.51,2.88,1.51,5.02c0,15.23-0.01,57.96-0.01,69.4c0,14.25-6.32,3.53-7.77,2" stroke-dasharray="90.8" stroke-dashoffset="90.8"><animate attributeName="stroke-dashoffset" values="90.8" fill="freeze" begin="63da.click" /><animate id="1" attributeName="stroke-dashoffset" values="90.8;0" dur="0.68s" fill="freeze" begin="0.end" /></path><path d="M11.5,62.43c1.38,1.32,2.25,1.57,4.25,0.32c5.11-3.19,11.88-8.12,22-15.08" stroke-dasharray="31.45" stroke-dashoffset="31.45"><animate attributeName="stroke-dashoffset" values="31.45" fill="freeze" begin="63da.click" /><animate id="2" attributeName="stroke-dashoffset" values="31.45;0" dur="0.31s" fill="freeze" begin="1.end" /></path></g><g p4:phon="昜" xmlns:p4="http://kanjivg.tagaini.net"><g><g><path d="M51.55,13.58c0.81,0.81,1.07,1.67,1.31,2.93c0.72,3.85,1.93,13.86,2.76,19.73c0.34,2.39,0.57,4.06,0.6,4.29" stroke-dasharray="27.52" stroke-dashoffset="27.52"><animate attributeName="stroke-dashoffset" values="27.52" fill="freeze" begin="63da.click" /><animate id="3" attributeName="stroke-dashoffset" values="27.52;0" dur="0.28s" fill="freeze" begin="2.end" /></path><path d="M53.79,15.78c4.77-0.69,18.4-2.6,26.1-3.38c2.8-0.28,4.74,0.14,4.32,3.38c-0.71,5.48-1.98,14.42-2.84,19.62c-0.14,0.87-0.57,3.04-0.57,3.63" stroke-dasharray="56.62" stroke-dashoffset="56.62"><animate attributeName="stroke-dashoffset" values="56.62" fill="freeze" begin="63da.click" /><animate id="4" attributeName="stroke-dashoffset" values="56.62;0" dur="0.57s" fill="freeze" begin="3.end" /></path><path d="M55.36,26.62c8.51-1.24,20.39-2.49,26.58-2.83" stroke-dasharray="26.74" stroke-dashoffset="26.74"><animate attributeName="stroke-dashoffset" values="26.74" fill="freeze" begin="63da.click" /><animate id="5" attributeName="stroke-dashoffset" values="26.74;0" dur="0.27s" fill="freeze" begin="4.end" /></path><path d="M57.29,37.97c4.36-0.59,17.67-1.81,23.04-2.3" stroke-dasharray="23.16" stroke-dashoffset="23.16"><animate attributeName="stroke-dashoffset" values="23.16" fill="freeze" begin="63da.click" /><animate id="6" attributeName="stroke-dashoffset" values="23.16;0" dur="0.23s" fill="freeze" begin="5.end" /></path></g><g><path d="M42.91,49.82c2.86,0.79,6.22,0.38,9.11,0.01c11.35-1.45,22.98-2.95,35.23-4.15c2.79-0.27,5.6-0.32,8.37,0.14" stroke-dasharray="53.04" stroke-dashoffset="53.04"><animate attributeName="stroke-dashoffset" values="53.04" fill="freeze" begin="63da.click" /><animate id="7" attributeName="stroke-dashoffset" values="53.04;0" dur="0.53s" fill="freeze" begin="6.end" /></path></g></g><g><g><g><path d="M53.65,53.65c0.04,0.48,0.15,1.26-0.09,1.94C52,60,47.25,66.5,40,71" stroke-dasharray="22.82" stroke-dashoffset="22.82"><animate attributeName="stroke-dashoffset" values="22.82" fill="freeze" begin="63da.click" /><animate id="8" attributeName="stroke-dashoffset" values="22.82;0" dur="0.23s" fill="freeze" begin="7.end" /></path></g><path d="M54.82,60.3c2.43,0.7,4.77,0.41,6.68,0.19c7.01-0.81,20.2-2.75,26.01-3.46c4.99-0.61,6.99,0.78,5.73,6c-1.28,5.32-6.2,20.56-12.07,29.21c-2.84,4.19-5.15,3.83-8.62,0.42" stroke-dasharray="86.26" stroke-dashoffset="86.26"><animate attributeName="stroke-dashoffset" values="86.26" fill="freeze" begin="63da.click" /><animate id="9" attributeName="stroke-dashoffset" values="86.26;0" dur="0.65s" fill="freeze" begin="8.end" /></path></g><g><path d="M61.68,63.85c0.1,0.91,0.04,1.66-0.4,2.46c-2.91,5.32-8.66,12.19-17.6,17.75" stroke-dasharray="27.79" stroke-dashoffset="27.79"><animate attributeName="stroke-dashoffset" values="27.79" fill="freeze" begin="63da.click" /><animate id="10" attributeName="stroke-dashoffset" values="27.79;0" dur="0.28s" fill="freeze" begin="9.end" /></path></g><g><path d="M76.88,62.14c0.08,0.87-0.17,2.04-0.67,3.23C73.25,72.5,65.12,85.5,52.66,93.68" stroke-dasharray="40.63" stroke-dashoffset="40.63"><animate attributeName="stroke-dashoffset" values="40.63" fill="freeze" begin="63da.click" /><animate id="11" attributeName="stroke-dashoffset" values="40.63;0" dur="0.41s" fill="freeze" begin="10.end" /></path></g></g></g></g></g></svg>