<svg xmlns="http://www.w3.org/2000/svg" width="109" height="109" viewBox="0 0 109 109" id="6417"><g fill="none" stroke="#666" stroke-width="9" stroke-linecap="round" stroke-linejoin="round"><g><g><path d="M13,37.42c2.08,0.25,1.27,0.55,3.5,0.25c5.5-0.75,15-2,24.17-3.17" /><path d="M27.77,15.5c0.48,0.92,1.76,2.49,1.76,5.52c0,15.23,0.24,56.46,0.24,67.9c0,14.25-6.32,3.53-7.77,2" /><path d="M12,65.99c0.89,1.06,2.32,1.68,4.29,0.7c1.16-0.58,20.19-11.51,25.12-14.28" /></g><g><g p5:partial xmlns:p5="http://kanjivg.tagaini.net"><path d="M67.33,10.43c0.03,0.32,0.05,0.82-0.05,1.27c-0.65,2.68-3.09,6.93-8.25,12.67" /><path d="M52.67,24.69c0.36,0.37,0.65,0.89,0.65,1.53c0,7.57,0.02,32.83-0.18,42.21" /><path d="M53.77,26.33c1.69-0.1,23.1-3.19,24.75-3.19c2.44,0,3.63,1.74,3.41,3.46c-0.13,1.05-1.79,12.26-3.36,20.34" /><path d="M54.04,36.7c2.07,0,23.76-2.35,26.1-2.35" /><path d="M53.95,47.69c4.22-0.37,19.35-1.85,24.6-2.17" /><path d="M53.18,57.37c10.2-0.91,34.02-3.38,38.4-3.87c1.53-0.17,4.12-0.37,4.89-0.24" /><path d="M53.15,68.63c12.1-1.63,32.12-3.1,37.62-3.86c3.57-0.5,5.41,2.32,4.76,5.7c-1.79,9.42-3.56,18.35-6.54,24.3c-2.98,5.94-5.36,2.98-7.94,0.25" /></g><g><path d="M57.72,72.39c0.4,0.29,1.24,2.18,1.31,2.76c0.08,0.58-0.85,9.01-0.93,12.64" /><path d="M43.77,76.97c0.4,0.29,0.85,1.52,0.79,2.11c-0.26,2.6-1.04,6.36-1.83,9.68c-0.3,1.28-0.23,2.81,0.78,2.43c7.23-2.69,24.15-4.18,29.12-4.35" /><path d="M74.21,75.44c0.4,0.29,0.86,2.17,0.79,2.76c-0.39,3.57-0.63,3.79-1.73,10.86" /></g></g></g></g><g fill="none" stroke="#000" stroke-width="5" stroke-linecap="round" stroke-linejoin="round"><g><g><path d="M13,37.42c2.08,0.25,1.27,0.55,3.5,0.25c5.5-0.75,15-2,24.17-3.17" stroke-dasharray="27.92" stroke-dashoffset="27.92"><animate id="0" attributeName="stroke-dashoffset" values="27.92;0" dur="0.28s" fill="freeze" begin="0s;6417.click" /></path><path d="M27.77,15.5c0.48,0.92,1.76,2.49,1.76,5.52c0,15.23,0.24,56.46,0.24,67.9c0,14.25-6.32,3.53-7.77,2" stroke-dasharray="89.82" stroke-dashoffset="89.82"><animate attributeName="stroke-dashoffset" values="89.82" fill="freeze" begin="6417.click" /><animate id="1" attributeName="stroke-dashoffset" values="89.82;0" dur="0.68s" fill="freeze" begin="0.end" /></path><path d="M12,65.99c0.89,1.06,2.32,1.68,4.29,0.7c1.16-0.58,20.19-11.51,25.12-14.28" stroke-dasharray="33.64" stroke-dashoffset="33.64"><animate attributeName="stroke-dashoffset" values="33.64" fill="freeze" begin="6417.click" /><animate id="2" attributeName="stroke-dashoffset" values="33.64;0" dur="0.34s" fill="freeze" begin="1.end" /></path></g><g><g p5:partial xmlns:p5="http://kanjivg.tagaini.net"><path d="M67.33,10.43c0.03,0.32,0.05,0.82-0.05,1.27c-0.65,2.68-3.09,6.93-8.25,12.67" stroke-dasharray="16.52" stroke-dashoffset="16.52"><animate attributeName="stroke-dashoffset" values="16.52" fill="freeze" begin="6417.click" /><animate id="3" attributeName="stroke-dashoffset" values="16.52;0" dur="0.17s" fill="freeze" begin="2.end" /></path><path d="M52.67,24.69c0.36,0.37,0.65,0.89,0.65,1.53c0,7.57,0.02,32.83-0.18,42.21" stroke-dasharray="43.92" stroke-dashoffset="43.92"><animate attributeName="stroke-dashoffset" values="43.92" fill="freeze" begin="6417.click" /><animate id="4" attributeName="stroke-dashoffset" values="43.92;0" dur="0.44s" fill="freeze" begin="3.end" /></path><path d="M53.77,26.33c1.69-0.1,23.1-3.19,24.75-3.19c2.44,0,3.63,1.74,3.41,3.46c-0.13,1.05-1.79,12.26-3.36,20.34" stroke-dasharray="51.13" stroke-dashoffset="51.13"><animate attributeName="stroke-dashoffset" values="51.13" fill="freeze" begin="6417.click" /><animate id="5" attributeName="stroke-dashoffset" values="51.13;0" dur="0.51s" fill="freeze" begin="4.end" /></path><path d="M54.04,36.7c2.07,0,23.76-2.35,26.1-2.35" stroke-dasharray="26.21" stroke-dashoffset="26.21"><animate attributeName="stroke-dashoffset" values="26.21" fill="freeze" begin="6417.click" /><animate id="6" attributeName="stroke-dashoffset" values="26.21;0" dur="0.26s" fill="freeze" begin="5.end" /></path><path d="M53.95,47.69c4.22-0.37,19.35-1.85,24.6-2.17" stroke-dasharray="24.7" stroke-dashoffset="24.7"><animate attributeName="stroke-dashoffset" values="24.7" fill="freeze" begin="6417.click" /><animate id="7" attributeName="stroke-dashoffset" values="24.7;0" dur="0.25s" fill="freeze" begin="6.end" /></path><path d="M53.18,57.37c10.2-0.91,34.02-3.38,38.4-3.87c1.53-0.17,4.12-0.37,4.89-0.24" stroke-dasharray="43.5" stroke-dashoffset="43.5"><animate attributeName="stroke-dashoffset" values="43.5" fill="freeze" begin="6417.click" /><animate id="8" attributeName="stroke-dashoffset" values="43.5;0" dur="0.44s" fill="freeze" begin="7.end" /></path><path d="M53.15,68.63c12.1-1.63,32.12-3.1,37.62-3.86c3.57-0.5,5.41,2.32,4.76,5.7c-1.79,9.42-3.56,18.35-6.54,24.3c-2.98,5.94-5.36,2.98-7.94,0.25" stroke-dasharray="82.74" stroke-dashoffset="82.74"><animate attributeName="stroke-dashoffset" values="82.74" fill="freeze" begin="6417.click" /><animate id="9" attributeName="stroke-dashoffset" values="82.74;0" dur="0.62s" fill="freeze" begin="8.end" /></path></g><g><path d="M57.72,72.39c0.4,0.29,1.24,2.18,1.31,2.76c0.08,0.58-0.85,9.01-0.93,12.64" stroke-dasharray="15.76" stroke-dashoffset="15.76"><animate attributeName="stroke-dashoffset" values="15.76" fill="freeze" begin="6417.click" /><animate id="10" attributeName="stroke-dashoffset" values="15.76;0" dur="0.16s" fill="freeze" begin="9.end" /></path><path d="M43.77,76.97c0.4,0.29,0.85,1.52,0.79,2.11c-0.26,2.6-1.04,6.36-1.83,9.68c-0.3,1.28-0.23,2.81,0.78,2.43c7.23-2.69,24.15-4.18,29.12-4.35" stroke-dasharray="44.8" stroke-dashoffset="44.8"><animate attributeName="stroke-dashoffset" values="44.8" fill="freeze" begin="6417.click" /><animate id="11" attributeName="stroke-dashoffset" values="44.8;0" dur="0.45s" fill="freeze" begin="10.end" /></path><path d="M74.21,75.44c0.4,0.29,0.86,2.17,0.79,2.76c-0.39,3.57-0.63,3.79-1.73,10.86" stroke-dasharray="13.92" stroke-dashoffset="13.92"><animate attributeName="stroke-dashoffset" values="13.92" fill="freeze" begin="6417.click" /><animate id="12" attributeName="stroke-dashoffset" values="13.92;0" dur="0.14s" fill="freeze" begin="11.end" /></path></g></g></g></g></svg>