<svg xmlns="http://www.w3.org/2000/svg" width="109" height="109" viewBox="0 0 109 109" id="643e"><g fill="none" stroke="#666" stroke-width="9" stroke-linecap="round" stroke-linejoin="round"><g><g><path d="M13.5,38.92c2.06,0.25,3.9,0.45,6.01,0.07c5.49-1,10.86-2.36,18.23-3.79c1.02-0.2,2.01-0.19,2.92-0.19" /><path d="M29.52,14c1.12,1.12,1.51,2.75,1.51,5.02c0,15.23-0.01,54.96-0.01,66.4c0,14.25-6.32,3.53-7.77,2" /><path d="M11.88,66.75c1.02,0.58,2.6,0.85,3.87-0.24c3.6-3.07,11.57-9.26,22.63-17.93" /></g><g p4:phon="窄" xmlns:p4="http://kanjivg.tagaini.net"><g><g><path d="M66.98,11c0.95,0.95,1.25,2.5,1.25,3.95c0,3.05-0.06,4.24-0.06,7.02" /><g><path d="M49.12,24.62c0,3.76-2.62,14.11-3.81,16.62" /><path d="M49.47,26.16c8.69-1.88,30.65-5.16,41.62-5.33c8.2-0.13,1.74,5.04-0.31,6.82" /></g></g><g><path d="M61.14,30.25c0.12,0.88-0.04,1.7-0.48,2.45C58,36.62,54,40.62,45.85,46.67" /><path d="M73.62,24.37c0.69,0.69,0.97,1.88,0.97,3.02c0,2.81-0.03,5.05-0.03,6.96c0,2.9,1.56,3.96,9.22,3.96c4.83,0,8.76-0.58,9.44-0.9" /></g></g><g><g><path d="M65.35,40.75c0.11,1.15-0.17,2.19-0.68,3.21c-2.87,5.78-10.8,16.57-20.05,23.76" /></g><path d="M62.58,52.14c1.49-0.02,2.81,0.11,4.31-0.05c7.93-0.85,17.02-3.28,23.47-4.33c1.57-0.25,3.31-0.66,4.9-0.38" /><path d="M69.14,54.61c0.75,0.75,1.02,2.02,1.02,3.47c0,0.73,0.06,22.93,0.06,35.05c0,3.14-0.06,5.57-0.08,6.75" /><path d="M71.38,63.96c4.83-0.64,11.38-1.71,18.75-2.71c1.14-0.16,2.26-0.12,3.38,0.09" /><path d="M71.64,76.68c3.33-0.38,11.64-1.42,19.37-2.24c1.4-0.15,2.84-0.47,4.24-0.13" /></g></g></g></g><g fill="none" stroke="#000" stroke-width="5" stroke-linecap="round" stroke-linejoin="round"><g><g><path d="M13.5,38.92c2.06,0.25,3.9,0.45,6.01,0.07c5.49-1,10.86-2.36,18.23-3.79c1.02-0.2,2.01-0.19,2.92-0.19" stroke-dasharray="27.589" stroke-dashoffset="27.589"><animate attributeName="stroke-dashoffset" values="27.589;27.589;0" dur="0.276s" fill="freeze" begin="0s;643e.click" /></path><path d="M29.52,14c1.12,1.12,1.51,2.75,1.51,5.02c0,15.23-0.01,54.96-0.01,66.4c0,14.25-6.32,3.53-7.77,2" stroke-dasharray="87.817" stroke-dashoffset="87.817"><animate attributeName="stroke-dashoffset" values="87.817" fill="freeze" begin="643e.click" /><animate attributeName="stroke-dashoffset" values="87.817;87.817;0" keyTimes="0;0.295;1" dur="0.936s" fill="freeze" begin="0s;643e.click" /></path><path d="M11.88,66.75c1.02,0.58,2.6,0.85,3.87-0.24c3.6-3.07,11.57-9.26,22.63-17.93" stroke-dasharray="33.014" stroke-dashoffset="33.014"><animate attributeName="stroke-dashoffset" values="33.014" fill="freeze" begin="643e.click" /><animate attributeName="stroke-dashoffset" values="33.014;33.014;0" keyTimes="0;0.739;1" dur="1.266s" fill="freeze" begin="0s;643e.click" /></path></g><g p4:phon="窄" xmlns:p4="http://kanjivg.tagaini.net"><g><g><path d="M66.98,11c0.95,0.95,1.25,2.5,1.25,3.95c0,3.05-0.06,4.24-0.06,7.02" stroke-dasharray="11.269" stroke-dashoffset="11.269"><animate attributeName="stroke-dashoffset" values="11.269" fill="freeze" begin="643e.click" /><animate attributeName="stroke-dashoffset" values="11.269;11.269;0" keyTimes="0;0.918;1" dur="1.379s" fill="freeze" begin="0s;643e.click" /></path><g><path d="M49.12,24.62c0,3.76-2.62,14.11-3.81,16.62" stroke-dasharray="17.11" stroke-dashoffset="17.11"><animate attributeName="stroke-dashoffset" values="17.11" fill="freeze" begin="643e.click" /><animate attributeName="stroke-dashoffset" values="17.11;17.11;0" keyTimes="0;0.89;1" dur="1.55s" fill="freeze" begin="0s;643e.click" /></path><path d="M49.47,26.16c8.69-1.88,30.65-5.16,41.62-5.33c8.2-0.13,1.74,5.04-0.31,6.82" stroke-dasharray="53.726" stroke-dashoffset="53.726"><animate attributeName="stroke-dashoffset" values="53.726" fill="freeze" begin="643e.click" /><animate attributeName="stroke-dashoffset" values="53.726;53.726;0" keyTimes="0;0.743;1" dur="2.087s" fill="freeze" begin="0s;643e.click" /></path></g></g><g><path d="M61.14,30.25c0.12,0.88-0.04,1.7-0.48,2.45C58,36.62,54,40.62,45.85,46.67" stroke-dasharray="22.999" stroke-dashoffset="22.999"><animate attributeName="stroke-dashoffset" values="22.999" fill="freeze" begin="643e.click" /><animate attributeName="stroke-dashoffset" values="22.999;22.999;0" keyTimes="0;0.901;1" dur="2.317s" fill="freeze" begin="0s;643e.click" /></path><path d="M73.62,24.37c0.69,0.69,0.97,1.88,0.97,3.02c0,2.81-0.03,5.05-0.03,6.96c0,2.9,1.56,3.96,9.22,3.96c4.83,0,8.76-0.58,9.44-0.9" stroke-dasharray="31.074" stroke-dashoffset="31.074"><animate attributeName="stroke-dashoffset" values="31.074" fill="freeze" begin="643e.click" /><animate attributeName="stroke-dashoffset" values="31.074;31.074;0" keyTimes="0;0.882;1" dur="2.628s" fill="freeze" begin="0s;643e.click" /></path></g></g><g><g><path d="M65.35,40.75c0.11,1.15-0.17,2.19-0.68,3.21c-2.87,5.78-10.8,16.57-20.05,23.76" stroke-dasharray="34.622" stroke-dashoffset="34.622"><animate attributeName="stroke-dashoffset" values="34.622" fill="freeze" begin="643e.click" /><animate attributeName="stroke-dashoffset" values="34.622;34.622;0" keyTimes="0;0.884;1" dur="2.974s" fill="freeze" begin="0s;643e.click" /></path></g><path d="M62.58,52.14c1.49-0.02,2.81,0.11,4.31-0.05c7.93-0.85,17.02-3.28,23.47-4.33c1.57-0.25,3.31-0.66,4.9-0.38" stroke-dasharray="33.128" stroke-dashoffset="33.128"><animate attributeName="stroke-dashoffset" values="33.128" fill="freeze" begin="643e.click" /><animate attributeName="stroke-dashoffset" values="33.128;33.128;0" keyTimes="0;0.9;1" dur="3.305s" fill="freeze" begin="0s;643e.click" /></path><path d="M69.14,54.61c0.75,0.75,1.02,2.02,1.02,3.47c0,0.73,0.06,22.93,0.06,35.05c0,3.14-0.06,5.57-0.08,6.75" stroke-dasharray="45.509" stroke-dashoffset="45.509"><animate attributeName="stroke-dashoffset" values="45.509" fill="freeze" begin="643e.click" /><animate attributeName="stroke-dashoffset" values="45.509;45.509;0" keyTimes="0;0.879;1" dur="3.76s" fill="freeze" begin="0s;643e.click" /></path><path d="M71.38,63.96c4.83-0.64,11.38-1.71,18.75-2.71c1.14-0.16,2.26-0.12,3.38,0.09" stroke-dasharray="22.342" stroke-dashoffset="22.342"><animate attributeName="stroke-dashoffset" values="22.342" fill="freeze" begin="643e.click" /><animate attributeName="stroke-dashoffset" values="22.342;22.342;0" keyTimes="0;0.944;1" dur="3.983s" fill="freeze" begin="0s;643e.click" /></path><path d="M71.64,76.68c3.33-0.38,11.64-1.42,19.37-2.24c1.4-0.15,2.84-0.47,4.24-0.13" stroke-dasharray="23.767" stroke-dashoffset="23.767"><animate attributeName="stroke-dashoffset" values="23.767" fill="freeze" begin="643e.click" /><animate attributeName="stroke-dashoffset" values="23.767;23.767;0" keyTimes="0;0.944;1" dur="4.221s" fill="freeze" begin="0s;643e.click" /></path></g></g></g></g></svg>