<svg xmlns="http://www.w3.org/2000/svg" viewBox="0 0 109 109" id="6478"><g fill="none" stroke="#666" stroke-width="6" stroke-linecap="round" stroke-linejoin="round"><g><g><path d="M12,37.42c2.08,0.25,1.27,0.55,3.5,0.25C21,36.92,31,35.17,40.17,34" /><path d="M27.77,16c0.48,0.92,1.67,2.49,1.76,5.52c0.4,14.55,0.24,59.94,0.24,64.9c0,14.25-6.32,3.53-7.77,2" /><path d="M13,62.96c1.5,1.29,3.25,1.54,6.22-0.04c1.61-0.86,12.45-7.12,19.28-11.26" /></g><g><g><path d="M41.05,25.62c1.02,0.52,2.21,0.62,3.23,0.52c9.38-0.95,34.69-3.92,45.51-3.99c1.7-0.01,2.72,0.25,3.57,0.51" /><path d="M52.75,13.98c1.38,1.42,1.82,1.85,1.97,2.72c1.38,8.16,1.77,13.08,2.17,16.04" /><path d="M77.3,12.25c0.33,1.16,0.69,2,0.39,3.46c-1.38,6.92-1.97,9.13-3.55,16.05" /></g><g><g><path d="M47.84,38.57c0.41,0.52,1.14,2.27,1.21,2.97c0.55,5.28,3.09,17.23,3.09,17.58c0,0.35,0.14,1.35,0.27,2.05" /><path d="M49.73,40.14c6.18-0.98,31.62-4.6,33.71-4.7c1.75-0.09,2.81,2.43,2.74,2.97c-0.57,4.21-2.34,15.09-3.3,19.42" /><path d="M50.63,48.61c3.11,0,30.54-2.86,34.06-2.86" /><path d="M 52.507917,59.802708 c 5.725,-0.247708 22.184375,-2.494583 29.923541,-3.022916" /></g><g><path d="M39.98,72.88c1.28,0.39,2.72,0.21,3.56,0.11c15.66-1.95,34.6-3.17,46.83-4.08c1.06-0.08,2.96-0.08,4.14-0.08" /><path d="M65.67,60.93c-0.08,1.18,0.41,1.06,0.29,2.1C63.9,80.72,57.25,91.75,37.5,96.5" /><path d="M65.82,70.56c6.35,5.85,20.09,19.63,26.43,23.55c2.16,1.33,2.91,1.53,3.89,1.66" /></g></g></g></g></g><g fill="none" stroke="#000" stroke-width="3" stroke-linecap="round" stroke-linejoin="round"><path d="M12,37.42c2.08,0.25,1.27,0.55,3.5,0.25C21,36.92,31,35.17,40.17,34" stroke-dasharray="28.487" stroke-dashoffset="28.487"><animate attributeName="stroke-dashoffset" values="28.487;28.487;0" dur="0.285s" fill="freeze" begin="0s;6478.click" /></path><path d="M27.77,16c0.48,0.92,1.67,2.49,1.76,5.52c0.4,14.55,0.24,59.94,0.24,64.9c0,14.25-6.32,3.53-7.77,2" stroke-dasharray="86.803" stroke-dashoffset="86.803"><animate attributeName="stroke-dashoffset" values="86.803" fill="freeze" begin="6478.click" /><animate attributeName="stroke-dashoffset" values="86.803;86.803;0" keyTimes="0;0.304;1" dur="0.938s" fill="freeze" begin="0s;6478.click" /></path><path d="M13,62.96c1.5,1.29,3.25,1.54,6.22-0.04c1.61-0.86,12.45-7.12,19.28-11.26" stroke-dasharray="29.019" stroke-dashoffset="29.019"><animate attributeName="stroke-dashoffset" values="29.019" fill="freeze" begin="6478.click" /><animate attributeName="stroke-dashoffset" values="29.019;29.019;0" keyTimes="0;0.764;1" dur="1.228s" fill="freeze" begin="0s;6478.click" /></path><path d="M41.05,25.62c1.02,0.52,2.21,0.62,3.23,0.52c9.38-0.95,34.69-3.92,45.51-3.99c1.7-0.01,2.72,0.25,3.57,0.51" stroke-dasharray="52.635" stroke-dashoffset="52.635"><animate attributeName="stroke-dashoffset" values="52.635" fill="freeze" begin="6478.click" /><animate attributeName="stroke-dashoffset" values="52.635;52.635;0" keyTimes="0;0.7;1" dur="1.754s" fill="freeze" begin="0s;6478.click" /></path><path d="M52.75,13.98c1.38,1.42,1.82,1.85,1.97,2.72c1.38,8.16,1.77,13.08,2.17,16.04" stroke-dasharray="19.604" stroke-dashoffset="19.604"><animate attributeName="stroke-dashoffset" values="19.604" fill="freeze" begin="6478.click" /><animate attributeName="stroke-dashoffset" values="19.604;19.604;0" keyTimes="0;0.899;1" dur="1.95s" fill="freeze" begin="0s;6478.click" /></path><path d="M77.3,12.25c0.33,1.16,0.69,2,0.39,3.46c-1.38,6.92-1.97,9.13-3.55,16.05" stroke-dasharray="19.969" stroke-dashoffset="19.969"><animate attributeName="stroke-dashoffset" values="19.969" fill="freeze" begin="6478.click" /><animate attributeName="stroke-dashoffset" values="19.969;19.969;0" keyTimes="0;0.907;1" dur="2.15s" fill="freeze" begin="0s;6478.click" /></path><path d="M47.84,38.57c0.41,0.52,1.14,2.27,1.21,2.97c0.55,5.28,3.09,17.23,3.09,17.58c0,0.35,0.14,1.35,0.27,2.05" stroke-dasharray="23.152" stroke-dashoffset="23.152"><animate attributeName="stroke-dashoffset" values="23.152" fill="freeze" begin="6478.click" /><animate attributeName="stroke-dashoffset" values="23.152;23.152;0" keyTimes="0;0.903;1" dur="2.382s" fill="freeze" begin="0s;6478.click" /></path><path d="M49.73,40.14c6.18-0.98,31.62-4.6,33.71-4.7c1.75-0.09,2.81,2.43,2.74,2.97c-0.57,4.21-2.34,15.09-3.3,19.42" stroke-dasharray="58.13" stroke-dashoffset="58.13"><animate attributeName="stroke-dashoffset" values="58.13" fill="freeze" begin="6478.click" /><animate attributeName="stroke-dashoffset" values="58.13;58.13;0" keyTimes="0;0.804;1" dur="2.963s" fill="freeze" begin="0s;6478.click" /></path><path d="M50.63,48.61c3.11,0,30.54-2.86,34.06-2.86" stroke-dasharray="34.184" stroke-dashoffset="34.184"><animate attributeName="stroke-dashoffset" values="34.184" fill="freeze" begin="6478.click" /><animate attributeName="stroke-dashoffset" values="34.184;34.184;0" keyTimes="0;0.897;1" dur="3.305s" fill="freeze" begin="0s;6478.click" /></path><path d="M 52.507917,59.802708 c 5.725,-0.247708 22.184375,-2.494583 29.923541,-3.022916" stroke-dasharray="30.08" stroke-dashoffset="30.08"><animate attributeName="stroke-dashoffset" values="30.08" fill="freeze" begin="6478.click" /><animate attributeName="stroke-dashoffset" values="30.08;30.08;0" keyTimes="0;0.917;1" dur="3.606s" fill="freeze" begin="0s;6478.click" /></path><path d="M39.98,72.88c1.28,0.39,2.72,0.21,3.56,0.11c15.66-1.95,34.6-3.17,46.83-4.08c1.06-0.08,2.96-0.08,4.14-0.08" stroke-dasharray="54.744" stroke-dashoffset="54.744"><animate attributeName="stroke-dashoffset" values="54.744" fill="freeze" begin="6478.click" /><animate attributeName="stroke-dashoffset" values="54.744;54.744;0" keyTimes="0;0.868;1" dur="4.153s" fill="freeze" begin="0s;6478.click" /></path><path d="M65.67,60.93c-0.08,1.18,0.41,1.06,0.29,2.1C63.9,80.72,57.25,91.75,37.5,96.5" stroke-dasharray="49.807" stroke-dashoffset="49.807"><animate attributeName="stroke-dashoffset" values="49.807" fill="freeze" begin="6478.click" /><animate attributeName="stroke-dashoffset" values="49.807;49.807;0" keyTimes="0;0.893;1" dur="4.651s" fill="freeze" begin="0s;6478.click" /></path><path d="M65.82,70.56c6.35,5.85,20.09,19.63,26.43,23.55c2.16,1.33,2.91,1.53,3.89,1.66" stroke-dasharray="39.704" stroke-dashoffset="39.704"><animate attributeName="stroke-dashoffset" values="39.704" fill="freeze" begin="6478.click" /><animate attributeName="stroke-dashoffset" values="39.704;39.704;0" keyTimes="0;0.921;1" dur="5.048s" fill="freeze" begin="0s;6478.click" /></path></g></svg>