<svg xmlns="http://www.w3.org/2000/svg" width="109" height="109" viewBox="0 0 109 109" id="6495"><g fill="none" stroke="#666" stroke-width="6" stroke-linecap="round" stroke-linejoin="round"><g><g><path d="M10,35.92c2.08,0.25,1.27,0.55,3.5,0.25c5.5-0.75,13.5-1.5,22.67-2.67" /><path d="M24.74,12.5c0.49,0.93,1.78,2.52,1.78,5.59c0,15.42,0.25,57.16,0.25,68.74c0,14.43-6.4,3.58-7.86,2.03" /><path d="M11.5,62.1c0.82,0.97,2.12,1.54,3.92,0.64c1.06-0.53,16.9-9.54,21.41-12.07" /></g><g><g><g><g><g><g><path d="M37.12,27.84c1.02,0.16,2.75,0.42,3.23,0.34c4.44-0.68,17.76-2.68,23.21-3.25c0.8-0.08,2.02,0.16,2.42,0.33" /><path d="M44.62,15.78c0.56,0.48,0.89,2.15,1,3.11c0.11,0.96,0,43.27-0.11,49.24" /></g><path d="M58.45,14c0.56,0.48,0.89,2.15,1,3.11c0.11,0.96,0,44.14-0.11,50.11" /></g><path d="M45.83,41.87c2.05-0.24,11.4-1.89,13.32-2.13" /><g><path d="M45.71,55.77c2.31-0.24,10.63-1.65,13.33-2.13" /></g></g><path d="M35.47,69.68c1.03,0.82,2.48,0.53,3.19,0.5c5.84-0.19,18.33-1.44,26.06-2.36c1.16-0.14,1.87,0.24,2.45,0.49" /></g><g><path d="M45.8,77.71c0.03,0.39,0.07,1.02-0.07,1.59C44.9,82.65,40.15,90,33.64,94.5" /><path d="M55.46,76.25c2.51,1.46,6.48,5.99,7.11,8.25" /></g></g><g><path d="M91.99,13.25c0.04,0.34,0.18,1-0.08,1.36c-3.63,4.98-8.26,8.74-15.91,13.02" /><path d="M73.71,28.33c1.19,2.01,1.2,3.92,1.17,6.1c-0.1,6.59-0.18,8.31-0.18,16.16c0,14.36-2.53,32.12-11.2,42.22" /><path d="M74.91,41.8c0.25,0.17,1.21,0.2,1.9,0.1c4.44-0.65,14.77-1.74,18.94-2.27c0.67-0.09,1.83-0.17,2.25,0" /><path d="M86.72,44.48c0.62,0.61,0.99,2.75,1.11,3.97c0.12,1.22,0,41.17-0.12,48.8" /></g></g></g></g><g fill="none" stroke="#000" stroke-width="3" stroke-linecap="round" stroke-linejoin="round"><path d="M10,35.92c2.08,0.25,1.27,0.55,3.5,0.25c5.5-0.75,13.5-1.5,22.67-2.67" stroke-dasharray="26.372" stroke-dashoffset="26.372"><animate attributeName="stroke-dashoffset" values="26.372;26.372;0" dur="0.264s" fill="freeze" begin="0s;6495.click" /></path><path d="M24.74,12.5c0.49,0.93,1.78,2.52,1.78,5.59c0,15.42,0.25,57.16,0.25,68.74c0,14.43-6.4,3.58-7.86,2.03" stroke-dasharray="90.927" stroke-dashoffset="90.927"><animate attributeName="stroke-dashoffset" values="90.927" fill="freeze" begin="6495.click" /><animate attributeName="stroke-dashoffset" values="90.927;90.927;0" keyTimes="0;0.278;1" dur="0.948s" fill="freeze" begin="0s;6495.click" /></path><path d="M11.5,62.1c0.82,0.97,2.12,1.54,3.92,0.64c1.06-0.53,16.9-9.54,21.41-12.07" stroke-dasharray="28.911" stroke-dashoffset="28.911"><animate attributeName="stroke-dashoffset" values="28.911" fill="freeze" begin="6495.click" /><animate attributeName="stroke-dashoffset" values="28.911;28.911;0" keyTimes="0;0.766;1" dur="1.237s" fill="freeze" begin="0s;6495.click" /></path><path d="M37.12,27.84c1.02,0.16,2.75,0.42,3.23,0.34c4.44-0.68,17.76-2.68,23.21-3.25c0.8-0.08,2.02,0.16,2.42,0.33" stroke-dasharray="29.151" stroke-dashoffset="29.151"><animate attributeName="stroke-dashoffset" values="29.151" fill="freeze" begin="6495.click" /><animate attributeName="stroke-dashoffset" values="29.151;29.151;0" keyTimes="0;0.809;1" dur="1.529s" fill="freeze" begin="0s;6495.click" /></path><path d="M44.62,15.78c0.56,0.48,0.89,2.15,1,3.11c0.11,0.96,0,43.27-0.11,49.24" stroke-dasharray="52.557" stroke-dashoffset="52.557"><animate attributeName="stroke-dashoffset" values="52.557" fill="freeze" begin="6495.click" /><animate attributeName="stroke-dashoffset" values="52.557;52.557;0" keyTimes="0;0.744;1" dur="2.055s" fill="freeze" begin="0s;6495.click" /></path><path d="M58.45,14c0.56,0.48,0.89,2.15,1,3.11c0.11,0.96,0,44.14-0.11,50.11" stroke-dasharray="53.427" stroke-dashoffset="53.427"><animate attributeName="stroke-dashoffset" values="53.427" fill="freeze" begin="6495.click" /><animate attributeName="stroke-dashoffset" values="53.427;53.427;0" keyTimes="0;0.794;1" dur="2.589s" fill="freeze" begin="0s;6495.click" /></path><path d="M45.83,41.87c2.05-0.24,11.4-1.89,13.32-2.13" stroke-dasharray="13.491" stroke-dashoffset="13.491"><animate attributeName="stroke-dashoffset" values="13.491" fill="freeze" begin="6495.click" /><animate attributeName="stroke-dashoffset" values="13.491;13.491;0" keyTimes="0;0.95;1" dur="2.724s" fill="freeze" begin="0s;6495.click" /></path><path d="M45.71,55.77c2.31-0.24,10.63-1.65,13.33-2.13" stroke-dasharray="13.501" stroke-dashoffset="13.501"><animate attributeName="stroke-dashoffset" values="13.501" fill="freeze" begin="6495.click" /><animate attributeName="stroke-dashoffset" values="13.501;13.501;0" keyTimes="0;0.953;1" dur="2.859s" fill="freeze" begin="0s;6495.click" /></path><path d="M35.47,69.68c1.03,0.82,2.48,0.53,3.19,0.5c5.84-0.19,18.33-1.44,26.06-2.36c1.16-0.14,1.87,0.24,2.45,0.49" stroke-dasharray="32.026" stroke-dashoffset="32.026"><animate attributeName="stroke-dashoffset" values="32.026" fill="freeze" begin="6495.click" /><animate attributeName="stroke-dashoffset" values="32.026;32.026;0" keyTimes="0;0.899;1" dur="3.179s" fill="freeze" begin="0s;6495.click" /></path><path d="M45.8,77.71c0.03,0.39,0.07,1.02-0.07,1.59C44.9,82.65,40.15,90,33.64,94.5" stroke-dasharray="21.319" stroke-dashoffset="21.319"><animate attributeName="stroke-dashoffset" values="21.319" fill="freeze" begin="6495.click" /><animate attributeName="stroke-dashoffset" values="21.319;21.319;0" keyTimes="0;0.937;1" dur="3.392s" fill="freeze" begin="0s;6495.click" /></path><path d="M55.46,76.25c2.51,1.46,6.48,5.99,7.11,8.25" stroke-dasharray="11.044" stroke-dashoffset="11.044"><animate attributeName="stroke-dashoffset" values="11.044" fill="freeze" begin="6495.click" /><animate attributeName="stroke-dashoffset" values="11.044;11.044;0" keyTimes="0;0.969;1" dur="3.502s" fill="freeze" begin="0s;6495.click" /></path><path d="M91.99,13.25c0.04,0.34,0.18,1-0.08,1.36c-3.63,4.98-8.26,8.74-15.91,13.02" stroke-dasharray="22.125" stroke-dashoffset="22.125"><animate attributeName="stroke-dashoffset" values="22.125" fill="freeze" begin="6495.click" /><animate attributeName="stroke-dashoffset" values="22.125;22.125;0" keyTimes="0;0.941;1" dur="3.723s" fill="freeze" begin="0s;6495.click" /></path><path d="M73.71,28.33c1.19,2.01,1.2,3.92,1.17,6.1c-0.1,6.59-0.18,8.31-0.18,16.16c0,14.36-2.53,32.12-11.2,42.22" stroke-dasharray="66.973" stroke-dashoffset="66.973"><animate attributeName="stroke-dashoffset" values="66.973" fill="freeze" begin="6495.click" /><animate attributeName="stroke-dashoffset" values="66.973;66.973;0" keyTimes="0;0.881;1" dur="4.227s" fill="freeze" begin="0s;6495.click" /></path><path d="M74.91,41.8c0.25,0.17,1.21,0.2,1.9,0.1c4.44-0.65,14.77-1.74,18.94-2.27c0.67-0.09,1.83-0.17,2.25,0" stroke-dasharray="23.266" stroke-dashoffset="23.266"><animate attributeName="stroke-dashoffset" values="23.266" fill="freeze" begin="6495.click" /><animate attributeName="stroke-dashoffset" values="23.266;23.266;0" keyTimes="0;0.948;1" dur="4.46s" fill="freeze" begin="0s;6495.click" /></path><path d="M86.72,44.48c0.62,0.61,0.99,2.75,1.11,3.97c0.12,1.22,0,41.17-0.12,48.8" stroke-dasharray="52.974" stroke-dashoffset="52.974"><animate attributeName="stroke-dashoffset" values="52.974" fill="freeze" begin="6495.click" /><animate attributeName="stroke-dashoffset" values="52.974;52.974;0" keyTimes="0;0.894;1" dur="4.99s" fill="freeze" begin="0s;6495.click" /></path></g></svg>