<svg xmlns="http://www.w3.org/2000/svg" width="109" height="109" viewBox="0 0 109 109" id="64b2"><g fill="none" stroke="#666" stroke-width="9" stroke-linecap="round" stroke-linejoin="round"><g><g><path d="M10,35.42c2.03,0.24,3.91,0.47,5.98,0.1c5.02-0.88,14.09-2.84,19.29-3.62c1.65-0.25,3.01-0.4,3.89-0.4" /><path d="M26.77,14.5c1.18,1.18,1.51,2.75,1.51,4.77c0,15.23-0.01,56.71-0.01,68.15c0,14.25-5.07,3.78-6.52,2.25" /><path d="M11.5,65.68c1.12,1.2,2.38,0.95,4.25-0.18c5.19-3.11,8-4.75,20.5-12.58" /></g><g p4:phon="菐" xmlns:p4="http://kanjivg.tagaini.net"><path d="M60.05,14.14c1.2,0.99,1.57,2.11,1.7,4.01c0.22,3.35,0.5,9.98,0.6,14.77" /><path d="M72.05,10.89c0.7,1.11,1.07,2.24,0.95,4.06c-0.09,1.27-0.75,11.8-1.15,16.71" /><path d="M47.52,18.33c1.78,1.92,4.6,7.9,5.04,10.88" /><path d="M87.28,14.64c0.12,0.85,0,1.65-0.37,2.41c-1.19,3.36-2.75,6.34-6.36,11.91" /><path d="M43,35.65c2.28,0.83,5.28,0.39,7.62,0.03c8.36-1.28,27.16-3.96,37.01-4.55c2.29-0.14,4.61-0.25,6.88,0.24" /><path d="M55.02,38.08c1.43,1.57,3.69,6.45,4.04,8.88" /><path d="M78.53,35.39c0.13,0.7,0.02,1.35-0.33,1.95c-1.32,3-2.61,4.77-4.85,8.18" /><g><g><path d="M49,50.4c1.76,0.64,4.39,0.34,6.25,0.1c6.17-0.79,17.51-2.71,26.12-3.71c2.13-0.25,4.02-0.38,6.13,0.08" /></g><g><g><path d="M51,62.65c2.06,0.75,4.42,0.35,6.52,0.05c5.69-0.8,14.85-2.33,22.73-2.64c1.99-0.08,4.29-0.37,6.25,0.06" /></g><g><path d="M43.75,75.4c2.62,0.7,5.47,0.39,8.13,0.13c8.48-0.84,24.59-2.88,36.37-3.22c2.67-0.08,5.12,0.15,7.75,0.57" /></g></g></g><g><path d="M66.03,52c0.47,1,0.87,2.79,0.86,4.38c-0.14,15.12-4.14,32.87-24.64,41.87" /><path d="M67.88,74.75c2.25,2,10.8,10.93,19.42,17.75c2.02,1.6,4.36,4.09,6.96,4.69" /></g></g></g></g><g fill="none" stroke="#000" stroke-width="5" stroke-linecap="round" stroke-linejoin="round"><g><g><path d="M10,35.42c2.03,0.24,3.91,0.47,5.98,0.1c5.02-0.88,14.09-2.84,19.29-3.62c1.65-0.25,3.01-0.4,3.89-0.4" stroke-dasharray="29.55" stroke-dashoffset="29.55"><animate id="0" attributeName="stroke-dashoffset" values="29.55;0" dur="0.3s" fill="freeze" begin="0s;64b2.click" /></path><path d="M26.77,14.5c1.18,1.18,1.51,2.75,1.51,4.77c0,15.23-0.01,56.71-0.01,68.15c0,14.25-5.07,3.78-6.52,2.25" stroke-dasharray="88.45" stroke-dashoffset="88.45"><animate attributeName="stroke-dashoffset" values="88.45" fill="freeze" begin="64b2.click" /><animate id="1" attributeName="stroke-dashoffset" values="88.45;0" dur="0.67s" fill="freeze" begin="0.end" /></path><path d="M11.5,65.68c1.12,1.2,2.38,0.95,4.25-0.18c5.19-3.11,8-4.75,20.5-12.58" stroke-dasharray="28.75" stroke-dashoffset="28.75"><animate attributeName="stroke-dashoffset" values="28.75" fill="freeze" begin="64b2.click" /><animate id="2" attributeName="stroke-dashoffset" values="28.75;0" dur="0.29s" fill="freeze" begin="1.end" /></path></g><g p4:phon="菐" xmlns:p4="http://kanjivg.tagaini.net"><path d="M60.05,14.14c1.2,0.99,1.57,2.11,1.7,4.01c0.22,3.35,0.5,9.98,0.6,14.77" stroke-dasharray="19.29" stroke-dashoffset="19.29"><animate attributeName="stroke-dashoffset" values="19.29" fill="freeze" begin="64b2.click" /><animate id="3" attributeName="stroke-dashoffset" values="19.29;0" dur="0.19s" fill="freeze" begin="2.end" /></path><path d="M72.05,10.89c0.7,1.11,1.07,2.24,0.95,4.06c-0.09,1.27-0.75,11.8-1.15,16.71" stroke-dasharray="21" stroke-dashoffset="21"><animate attributeName="stroke-dashoffset" values="21" fill="freeze" begin="64b2.click" /><animate id="4" attributeName="stroke-dashoffset" values="21;0" dur="0.21s" fill="freeze" begin="3.end" /></path><path d="M47.52,18.33c1.78,1.92,4.6,7.9,5.04,10.88" stroke-dasharray="12.09" stroke-dashoffset="12.09"><animate attributeName="stroke-dashoffset" values="12.09" fill="freeze" begin="64b2.click" /><animate id="5" attributeName="stroke-dashoffset" values="12.09;0" dur="0.12s" fill="freeze" begin="4.end" /></path><path d="M87.28,14.64c0.12,0.85,0,1.65-0.37,2.41c-1.19,3.36-2.75,6.34-6.36,11.91" stroke-dasharray="16.01" stroke-dashoffset="16.01"><animate attributeName="stroke-dashoffset" values="16.01" fill="freeze" begin="64b2.click" /><animate id="6" attributeName="stroke-dashoffset" values="16.01;0" dur="0.16s" fill="freeze" begin="5.end" /></path><path d="M43,35.65c2.28,0.83,5.28,0.39,7.62,0.03c8.36-1.28,27.16-3.96,37.01-4.55c2.29-0.14,4.61-0.25,6.88,0.24" stroke-dasharray="51.9" stroke-dashoffset="51.9"><animate attributeName="stroke-dashoffset" values="51.9" fill="freeze" begin="64b2.click" /><animate id="7" attributeName="stroke-dashoffset" values="51.9;0" dur="0.52s" fill="freeze" begin="6.end" /></path><path d="M55.02,38.08c1.43,1.57,3.69,6.45,4.04,8.88" stroke-dasharray="9.84" stroke-dashoffset="9.84"><animate attributeName="stroke-dashoffset" values="9.84" fill="freeze" begin="64b2.click" /><animate id="8" attributeName="stroke-dashoffset" values="9.84;0" dur="0.1s" fill="freeze" begin="7.end" /></path><path d="M78.53,35.39c0.13,0.7,0.02,1.35-0.33,1.95c-1.32,3-2.61,4.77-4.85,8.18" stroke-dasharray="11.55" stroke-dashoffset="11.55"><animate attributeName="stroke-dashoffset" values="11.55" fill="freeze" begin="64b2.click" /><animate id="9" attributeName="stroke-dashoffset" values="11.55;0" dur="0.12s" fill="freeze" begin="8.end" /></path><g><g><path d="M49,50.4c1.76,0.64,4.39,0.34,6.25,0.1c6.17-0.79,17.51-2.71,26.12-3.71c2.13-0.25,4.02-0.38,6.13,0.08" stroke-dasharray="38.85" stroke-dashoffset="38.85"><animate attributeName="stroke-dashoffset" values="38.85" fill="freeze" begin="64b2.click" /><animate id="10" attributeName="stroke-dashoffset" values="38.85;0" dur="0.39s" fill="freeze" begin="9.end" /></path></g><g><g><path d="M51,62.65c2.06,0.75,4.42,0.35,6.52,0.05c5.69-0.8,14.85-2.33,22.73-2.64c1.99-0.08,4.29-0.37,6.25,0.06" stroke-dasharray="35.75" stroke-dashoffset="35.75"><animate attributeName="stroke-dashoffset" values="35.75" fill="freeze" begin="64b2.click" /><animate id="11" attributeName="stroke-dashoffset" values="35.75;0" dur="0.36s" fill="freeze" begin="10.end" /></path></g><g><path d="M43.75,75.4c2.62,0.7,5.47,0.39,8.13,0.13c8.48-0.84,24.59-2.88,36.37-3.22c2.67-0.08,5.12,0.15,7.75,0.57" stroke-dasharray="52.48" stroke-dashoffset="52.48"><animate attributeName="stroke-dashoffset" values="52.48" fill="freeze" begin="64b2.click" /><animate id="12" attributeName="stroke-dashoffset" values="52.48;0" dur="0.52s" fill="freeze" begin="11.end" /></path></g></g></g><g><path d="M66.03,52c0.47,1,0.87,2.79,0.86,4.38c-0.14,15.12-4.14,32.87-24.64,41.87" stroke-dasharray="56.3" stroke-dashoffset="56.3"><animate attributeName="stroke-dashoffset" values="56.3" fill="freeze" begin="64b2.click" /><animate id="13" attributeName="stroke-dashoffset" values="56.3;0" dur="0.56s" fill="freeze" begin="12.end" /></path><path d="M67.88,74.75c2.25,2,10.8,10.93,19.42,17.75c2.02,1.6,4.36,4.09,6.96,4.69" stroke-dasharray="34.79" stroke-dashoffset="34.79"><animate attributeName="stroke-dashoffset" values="34.79" fill="freeze" begin="64b2.click" /><animate id="14" attributeName="stroke-dashoffset" values="34.79;0" dur="0.35s" fill="freeze" begin="13.end" /></path></g></g></g></g></svg>