<svg xmlns="http://www.w3.org/2000/svg" width="109" height="109" viewBox="0 0 109 109" id="64da"><g fill="none" stroke="#666" stroke-width="9" stroke-linecap="round" stroke-linejoin="round"><g><g><path d="M11.5,34.75C13.58,35,12.75,35,15,35c4.26,0,14-2,23.17-3.17" /><path d="M25.27,11.83c0.48,0.92,1.67,2.49,1.76,5.52c0.4,14.55-0.26,67.66-0.26,72.62c0,10.03-6.71,2-8.21,0.75" /><path d="M11.5,63.23c2.58,1.81,4.23,0.98,6.81-0.57c1.52-0.91,13.75-9.03,20.19-13.42" /></g><g><g><path d="M61.52,10.58c0.98,0.92,1.76,1.99,1.76,5.02c0,5.9-0.02,7.19-0.02,12.15" /><path d="M63.35,19.06c8.56-0.99,12.42-1.64,16.88-2.43c1.4-0.25,3.91-0.18,5.52,0.14" /><path d="M46.37,28.18c0.53,0.57,0.65,2.73,0.58,4.82C46.24,55,43.77,77.25,33.5,92.15" /><path d="M47.24,30.35c0.99,0.16,2.78-0.1,4.38-0.33c13.63-2.01,28.63-4.26,35.2-4.49c10.29-0.36,2.68,7.11,0.12,8.91" /><g><g><path d="M52,40.07c0.66,0.15,1.88,0.18,2.54,0.15c6.66-0.35,16.43-3.01,23.88-3.9c1.09-0.13,1.77,0.07,2.32,0.14" /></g><path d="M64.25,32.68c0.49,0.28,0.27,1,0.43,1.36c0.16,0.37-0.09,5.98-0.09,7.34c0,3.9,1.41,5.88,9.24,5.88c5.67,0,8.19-1,10.42-1.55" /></g></g><g><path d="M51.7,55.01c0.9,0.16,2.56,0.18,3.47,0.16c10-0.27,18.77-1.77,30.06-2.25c1.49-0.06,2.41,0.07,3.17,0.15" /><path d="M67.81,56.24c0.05,0.31,0.1,0.8-0.1,1.25c-1.16,2.63-7.81,8.41-16.91,11.94" /><path d="M64.72,62.17c6.3,3.01,11.44,19.82,6.52,31.92c-1.47,3.62-5.45,0.61-6.23,0.03" /><path d="M66.62,66.94c0.05,0.35,0.11,0.89-0.1,1.39c-1.26,2.94-8.46,9.38-18.33,13.33" /><path d="M68.96,76.11c0.06,0.38,0.26,1.05-0.13,1.54c-2.87,3.62-10.44,10.37-22.6,14.73" /><path d="M84.41,59.86c0.03,0.26,0.06,0.68-0.06,1.06c-0.74,2.23-4.98,7.12-10.78,10.12" /><path d="M71.44,70.64c5.22,5.33,9.87,9.12,17.35,15.28c2.61,2.14,4.13,2.74,6.45,3.33" /></g></g></g></g><g fill="none" stroke="#000" stroke-width="5" stroke-linecap="round" stroke-linejoin="round"><g><g><path d="M11.5,34.75C13.58,35,12.75,35,15,35c4.26,0,14-2,23.17-3.17" stroke-dasharray="26.91" stroke-dashoffset="26.91"><animate id="0" attributeName="stroke-dashoffset" values="26.91;0" dur="0.27s" fill="freeze" begin="0s;64da.click" /></path><path d="M25.27,11.83c0.48,0.92,1.67,2.49,1.76,5.52c0.4,14.55-0.26,67.66-0.26,72.62c0,10.03-6.71,2-8.21,0.75" stroke-dasharray="91.97" stroke-dashoffset="91.97"><animate attributeName="stroke-dashoffset" values="91.97" fill="freeze" begin="64da.click" /><animate id="1" attributeName="stroke-dashoffset" values="91.97;0" dur="0.69s" fill="freeze" begin="0.end" /></path><path d="M11.5,63.23c2.58,1.81,4.23,0.98,6.81-0.57c1.52-0.91,13.75-9.03,20.19-13.42" stroke-dasharray="31.65" stroke-dashoffset="31.65"><animate attributeName="stroke-dashoffset" values="31.65" fill="freeze" begin="64da.click" /><animate id="2" attributeName="stroke-dashoffset" values="31.65;0" dur="0.32s" fill="freeze" begin="1.end" /></path></g><g><g><path d="M61.52,10.58c0.98,0.92,1.76,1.99,1.76,5.02c0,5.9-0.02,7.19-0.02,12.15" stroke-dasharray="17.65" stroke-dashoffset="17.65"><animate attributeName="stroke-dashoffset" values="17.65" fill="freeze" begin="64da.click" /><animate id="3" attributeName="stroke-dashoffset" values="17.65;0" dur="0.18s" fill="freeze" begin="2.end" /></path><path d="M63.35,19.06c8.56-0.99,12.42-1.64,16.88-2.43c1.4-0.25,3.91-0.18,5.52,0.14" stroke-dasharray="22.6" stroke-dashoffset="22.6"><animate attributeName="stroke-dashoffset" values="22.6" fill="freeze" begin="64da.click" /><animate id="4" attributeName="stroke-dashoffset" values="22.6;0" dur="0.23s" fill="freeze" begin="3.end" /></path><path d="M46.37,28.18c0.53,0.57,0.65,2.73,0.58,4.82C46.24,55,43.77,77.25,33.5,92.15" stroke-dasharray="66.36" stroke-dashoffset="66.36"><animate attributeName="stroke-dashoffset" values="66.36" fill="freeze" begin="64da.click" /><animate id="5" attributeName="stroke-dashoffset" values="66.36;0" dur="0.5s" fill="freeze" begin="4.end" /></path><path d="M47.24,30.35c0.99,0.16,2.78-0.1,4.38-0.33c13.63-2.01,28.63-4.26,35.2-4.49c10.29-0.36,2.68,7.11,0.12,8.91" stroke-dasharray="54.85" stroke-dashoffset="54.85"><animate attributeName="stroke-dashoffset" values="54.85" fill="freeze" begin="64da.click" /><animate id="6" attributeName="stroke-dashoffset" values="54.85;0" dur="0.55s" fill="freeze" begin="5.end" /></path><g><g><path d="M52,40.07c0.66,0.15,1.88,0.18,2.54,0.15c6.66-0.35,16.43-3.01,23.88-3.9c1.09-0.13,1.77,0.07,2.32,0.14" stroke-dasharray="29.09" stroke-dashoffset="29.09"><animate attributeName="stroke-dashoffset" values="29.09" fill="freeze" begin="64da.click" /><animate id="7" attributeName="stroke-dashoffset" values="29.09;0" dur="0.29s" fill="freeze" begin="6.end" /></path></g><path d="M64.25,32.68c0.49,0.28,0.27,1,0.43,1.36c0.16,0.37-0.09,5.98-0.09,7.34c0,3.9,1.41,5.88,9.24,5.88c5.67,0,8.19-1,10.42-1.55" stroke-dasharray="32.13" stroke-dashoffset="32.13"><animate attributeName="stroke-dashoffset" values="32.13" fill="freeze" begin="64da.click" /><animate id="8" attributeName="stroke-dashoffset" values="32.13;0" dur="0.32s" fill="freeze" begin="7.end" /></path></g></g><g><path d="M51.7,55.01c0.9,0.16,2.56,0.18,3.47,0.16c10-0.27,18.77-1.77,30.06-2.25c1.49-0.06,2.41,0.07,3.17,0.15" stroke-dasharray="36.8" stroke-dashoffset="36.8"><animate attributeName="stroke-dashoffset" values="36.8" fill="freeze" begin="64da.click" /><animate id="9" attributeName="stroke-dashoffset" values="36.8;0" dur="0.37s" fill="freeze" begin="8.end" /></path><path d="M67.81,56.24c0.05,0.31,0.1,0.8-0.1,1.25c-1.16,2.63-7.81,8.41-16.91,11.94" stroke-dasharray="22.29" stroke-dashoffset="22.29"><animate attributeName="stroke-dashoffset" values="22.29" fill="freeze" begin="64da.click" /><animate id="10" attributeName="stroke-dashoffset" values="22.29;0" dur="0.22s" fill="freeze" begin="9.end" /></path><path d="M64.72,62.17c6.3,3.01,11.44,19.82,6.52,31.92c-1.47,3.62-5.45,0.61-6.23,0.03" stroke-dasharray="42.15" stroke-dashoffset="42.15"><animate attributeName="stroke-dashoffset" values="42.15" fill="freeze" begin="64da.click" /><animate id="11" attributeName="stroke-dashoffset" values="42.15;0" dur="0.42s" fill="freeze" begin="10.end" /></path><path d="M66.62,66.94c0.05,0.35,0.11,0.89-0.1,1.39c-1.26,2.94-8.46,9.38-18.33,13.33" stroke-dasharray="24.42" stroke-dashoffset="24.42"><animate attributeName="stroke-dashoffset" values="24.42" fill="freeze" begin="64da.click" /><animate id="12" attributeName="stroke-dashoffset" values="24.42;0" dur="0.24s" fill="freeze" begin="11.end" /></path><path d="M68.96,76.11c0.06,0.38,0.26,1.05-0.13,1.54c-2.87,3.62-10.44,10.37-22.6,14.73" stroke-dasharray="28.88" stroke-dashoffset="28.88"><animate attributeName="stroke-dashoffset" values="28.88" fill="freeze" begin="64da.click" /><animate id="13" attributeName="stroke-dashoffset" values="28.88;0" dur="0.29s" fill="freeze" begin="12.end" /></path><path d="M84.41,59.86c0.03,0.26,0.06,0.68-0.06,1.06c-0.74,2.23-4.98,7.12-10.78,10.12" stroke-dasharray="16.1" stroke-dashoffset="16.1"><animate attributeName="stroke-dashoffset" values="16.1" fill="freeze" begin="64da.click" /><animate id="14" attributeName="stroke-dashoffset" values="16.1;0" dur="0.16s" fill="freeze" begin="13.end" /></path><path d="M71.44,70.64c5.22,5.33,9.87,9.12,17.35,15.28c2.61,2.14,4.13,2.74,6.45,3.33" stroke-dasharray="30.47" stroke-dashoffset="30.47"><animate attributeName="stroke-dashoffset" values="30.47" fill="freeze" begin="64da.click" /><animate id="15" attributeName="stroke-dashoffset" values="30.47;0" dur="0.3s" fill="freeze" begin="14.end" /></path></g></g></g></g></svg>