<svg xmlns="http://www.w3.org/2000/svg" width="109" height="109" viewBox="0 0 109 109" id="64ef"><g fill="none" stroke="#666" stroke-width="9" stroke-linecap="round" stroke-linejoin="round"><g><g><path d="M11,34.92c2.08,0.25,1.27,0.55,3.5,0.25c5.5-0.75,12.5-1.5,21.67-2.67" /><path d="M25.32,13c0.5,0.94,1.81,2.56,1.81,5.69c0,15.7,0.25,58.21,0.25,70c0,14.69-6.52,3.64-8.01,2.06" /><path d="M11,62.46c0.92,1.09,2.38,1.73,4.41,0.72c1.2-0.59,16.84-10.43,23.02-14.52" /></g><g><g><g><path d="M65.15,10.55c0.87,0.34,2.11,2.02,2.09,3c-0.06,3.1-0.06,7.63-0.07,10.46" /><g><path d="M45.65,23.89c0,3.19-2.99,13.03-4.13,15.16" /><path d="M45.56,26.21c6.48-0.83,41.03-3.79,46.28-4.1c8.21-0.49,1.24,7-0.81,8.76" /></g></g><path d="M51.58,32.31c0.73,0.35,2.05,0.39,2.78,0.35c4.94-0.25,22.3-2.81,26.32-3.15c1.2-0.1,1.93,0.17,2.54,0.35" /><g><g p7:partial xmlns:p7="http://kanjivg.tagaini.net"><path d="M66.7,34.11c0.05,0.21,0.63,1.12,0.67,2.48c0.22,6.54-0.14,5.97-0.14,8.2c0,6.32-3.87,0.67-4.68,0.11" /><path d="M53.95,39.54c0.03,0.31,0.11,0.82-0.06,1.25c-1.24,3.11-6.46,9.1-10.71,11.96" /></g><g><path d="M82.17,36.8c0.12,0.61,0.01,2.14-0.69,2.9c-6.36,6.88-22.28,16.03-42.23,22.83" /></g></g></g><g><g><path d="M56.55,56.48c0.77,1.08,1.17,1.84,1.17,3.59c0,3.99-0.35,13.7-0.35,25.22" /><path d="M58.51,57.47c2.68-0.22,23.12-2.5,25.56-2.76c2.04-0.22,3.12,1.21,3.12,2.86c0,4.02-0.6,25.04-0.6,26.36" /><path d="M57.77,65.97c5.01-0.33,24.46-2.37,28.76-2.37" /><path d="M57.99,74.58c7.57-0.64,20.55-1.94,28.57-2.07" /><path d="M57.64,83.3c7.57-0.48,22.02-1.75,28.92-1.75" /></g><g><path d="M63.34,88.84c0.38,0.92-0.25,2.17-1,2.84c-2.27,2.02-8.27,5.49-12.81,7.88" /><path d="M78.5,88.11c5.56,2.94,12.14,8.26,13.66,10.83" /></g></g></g></g></g><g fill="none" stroke="#000" stroke-width="5" stroke-linecap="round" stroke-linejoin="round"><g><g><path d="M11,34.92c2.08,0.25,1.27,0.55,3.5,0.25c5.5-0.75,12.5-1.5,21.67-2.67" stroke-dasharray="25.379" stroke-dashoffset="25.379"><animate attributeName="stroke-dashoffset" values="25.379;25.379;0" dur="0.254s" fill="freeze" begin="0s;64ef.click" /></path><path d="M25.32,13c0.5,0.94,1.81,2.56,1.81,5.69c0,15.7,0.25,58.21,0.25,70c0,14.69-6.52,3.64-8.01,2.06" stroke-dasharray="92.594" stroke-dashoffset="92.594"><animate attributeName="stroke-dashoffset" values="92.594" fill="freeze" begin="64ef.click" /><animate attributeName="stroke-dashoffset" values="92.594;92.594;0" keyTimes="0;0.267;1" dur="0.95s" fill="freeze" begin="0s;64ef.click" /></path><path d="M11,62.46c0.92,1.09,2.38,1.73,4.41,0.72c1.2-0.59,16.84-10.43,23.02-14.52" stroke-dasharray="32.093" stroke-dashoffset="32.093"><animate attributeName="stroke-dashoffset" values="32.093" fill="freeze" begin="64ef.click" /><animate attributeName="stroke-dashoffset" values="32.093;32.093;0" keyTimes="0;0.747;1" dur="1.271s" fill="freeze" begin="0s;64ef.click" /></path></g><g><g><g><path d="M65.15,10.55c0.87,0.34,2.11,2.02,2.09,3c-0.06,3.1-0.06,7.63-0.07,10.46" stroke-dasharray="14.258" stroke-dashoffset="14.258"><animate attributeName="stroke-dashoffset" values="14.258" fill="freeze" begin="64ef.click" /><animate attributeName="stroke-dashoffset" values="14.258;14.258;0" keyTimes="0;0.899;1" dur="1.414s" fill="freeze" begin="0s;64ef.click" /></path><g><path d="M45.65,23.89c0,3.19-2.99,13.03-4.13,15.16" stroke-dasharray="15.773" stroke-dashoffset="15.773"><animate attributeName="stroke-dashoffset" values="15.773" fill="freeze" begin="64ef.click" /><animate attributeName="stroke-dashoffset" values="15.773;15.773;0" keyTimes="0;0.899;1" dur="1.572s" fill="freeze" begin="0s;64ef.click" /></path><path d="M45.56,26.21c6.48-0.83,41.03-3.79,46.28-4.1c8.21-0.49,1.24,7-0.81,8.76" stroke-dasharray="59.874" stroke-dashoffset="59.874"><animate attributeName="stroke-dashoffset" values="59.874" fill="freeze" begin="64ef.click" /><animate attributeName="stroke-dashoffset" values="59.874;59.874;0" keyTimes="0;0.724;1" dur="2.171s" fill="freeze" begin="0s;64ef.click" /></path></g></g><path d="M51.58,32.31c0.73,0.35,2.05,0.39,2.78,0.35c4.94-0.25,22.3-2.81,26.32-3.15c1.2-0.1,1.93,0.17,2.54,0.35" stroke-dasharray="31.92" stroke-dashoffset="31.92"><animate attributeName="stroke-dashoffset" values="31.92" fill="freeze" begin="64ef.click" /><animate attributeName="stroke-dashoffset" values="31.92;31.92;0" keyTimes="0;0.872;1" dur="2.49s" fill="freeze" begin="0s;64ef.click" /></path><g><g p7:partial xmlns:p7="http://kanjivg.tagaini.net"><path d="M66.7,34.11c0.05,0.21,0.63,1.12,0.67,2.48c0.22,6.54-0.14,5.97-0.14,8.2c0,6.32-3.87,0.67-4.68,0.11" stroke-dasharray="18.899" stroke-dashoffset="18.899"><animate attributeName="stroke-dashoffset" values="18.899" fill="freeze" begin="64ef.click" /><animate attributeName="stroke-dashoffset" values="18.899;18.899;0" keyTimes="0;0.929;1" dur="2.679s" fill="freeze" begin="0s;64ef.click" /></path><path d="M53.95,39.54c0.03,0.31,0.11,0.82-0.06,1.25c-1.24,3.11-6.46,9.1-10.71,11.96" stroke-dasharray="17.473" stroke-dashoffset="17.473"><animate attributeName="stroke-dashoffset" values="17.473" fill="freeze" begin="64ef.click" /><animate attributeName="stroke-dashoffset" values="17.473;17.473;0" keyTimes="0;0.939;1" dur="2.854s" fill="freeze" begin="0s;64ef.click" /></path></g><g><path d="M82.17,36.8c0.12,0.61,0.01,2.14-0.69,2.9c-6.36,6.88-22.28,16.03-42.23,22.83" stroke-dasharray="51.438" stroke-dashoffset="51.438"><animate attributeName="stroke-dashoffset" values="51.438" fill="freeze" begin="64ef.click" /><animate attributeName="stroke-dashoffset" values="51.438;51.438;0" keyTimes="0;0.847;1" dur="3.368s" fill="freeze" begin="0s;64ef.click" /></path></g></g></g><g><g><path d="M56.55,56.48c0.77,1.08,1.17,1.84,1.17,3.59c0,3.99-0.35,13.7-0.35,25.22" stroke-dasharray="29.082" stroke-dashoffset="29.082"><animate attributeName="stroke-dashoffset" values="29.082" fill="freeze" begin="64ef.click" /><animate attributeName="stroke-dashoffset" values="29.082;29.082;0" keyTimes="0;0.92;1" dur="3.659s" fill="freeze" begin="0s;64ef.click" /></path><path d="M58.51,57.47c2.68-0.22,23.12-2.5,25.56-2.76c2.04-0.22,3.12,1.21,3.12,2.86c0,4.02-0.6,25.04-0.6,26.36" stroke-dasharray="56.934" stroke-dashoffset="56.934"><animate attributeName="stroke-dashoffset" values="56.934" fill="freeze" begin="64ef.click" /><animate attributeName="stroke-dashoffset" values="56.934;56.934;0" keyTimes="0;0.865;1" dur="4.228s" fill="freeze" begin="0s;64ef.click" /></path><path d="M57.77,65.97c5.01-0.33,24.46-2.37,28.76-2.37" stroke-dasharray="28.862" stroke-dashoffset="28.862"><animate attributeName="stroke-dashoffset" values="28.862" fill="freeze" begin="64ef.click" /><animate attributeName="stroke-dashoffset" values="28.862;28.862;0" keyTimes="0;0.936;1" dur="4.517s" fill="freeze" begin="0s;64ef.click" /></path><path d="M57.99,74.58c7.57-0.64,20.55-1.94,28.57-2.07" stroke-dasharray="28.651" stroke-dashoffset="28.651"><animate attributeName="stroke-dashoffset" values="28.651" fill="freeze" begin="64ef.click" /><animate attributeName="stroke-dashoffset" values="28.651;28.651;0" keyTimes="0;0.94;1" dur="4.804s" fill="freeze" begin="0s;64ef.click" /></path><path d="M57.64,83.3c7.57-0.48,22.02-1.75,28.92-1.75" stroke-dasharray="28.978" stroke-dashoffset="28.978"><animate attributeName="stroke-dashoffset" values="28.978" fill="freeze" begin="64ef.click" /><animate attributeName="stroke-dashoffset" values="28.978;28.978;0" keyTimes="0;0.943;1" dur="5.094s" fill="freeze" begin="0s;64ef.click" /></path></g><g><path d="M63.34,88.84c0.38,0.92-0.25,2.17-1,2.84c-2.27,2.02-8.27,5.49-12.81,7.88" stroke-dasharray="18.247" stroke-dashoffset="18.247"><animate attributeName="stroke-dashoffset" values="18.247" fill="freeze" begin="64ef.click" /><animate attributeName="stroke-dashoffset" values="18.247;18.247;0" keyTimes="0;0.966;1" dur="5.276s" fill="freeze" begin="0s;64ef.click" /></path><path d="M78.5,88.11c5.56,2.94,12.14,8.26,13.66,10.83" stroke-dasharray="17.558" stroke-dashoffset="17.558"><animate attributeName="stroke-dashoffset" values="17.558" fill="freeze" begin="64ef.click" /><animate attributeName="stroke-dashoffset" values="17.558;17.558;0" keyTimes="0;0.968;1" dur="5.452s" fill="freeze" begin="0s;64ef.click" /></path></g></g></g></g></g></svg>