<svg xmlns="http://www.w3.org/2000/svg" width="109" height="109" viewBox="0 0 109 109" id="64ef"><g fill="none" stroke="#666" stroke-width="9" stroke-linecap="round" stroke-linejoin="round"><g><g><path d="M11,34.92c2.08,0.25,1.27,0.55,3.5,0.25c5.5-0.75,12.5-1.5,21.67-2.67" /><path d="M25.32,13c0.5,0.94,1.81,2.56,1.81,5.69c0,15.7,0.25,58.21,0.25,70c0,14.69-6.52,3.64-8.01,2.06" /><path d="M11,62.46c0.92,1.09,2.38,1.73,4.41,0.72c1.2-0.59,16.84-10.43,23.02-14.52" /></g><g><g><g><path d="M65.15,10.55c0.87,0.34,2.11,2.02,2.09,3c-0.06,3.1-0.06,7.63-0.07,10.46" /><g><path d="M45.65,23.89c0,3.19-2.99,13.03-4.13,15.16" /><path d="M45.56,26.21c6.48-0.83,41.03-3.79,46.28-4.1c8.21-0.49,1.24,7-0.81,8.76" /></g></g><path d="M51.58,32.31c0.73,0.35,2.05,0.39,2.78,0.35c4.94-0.25,22.3-2.81,26.32-3.15c1.2-0.1,1.93,0.17,2.54,0.35" /><g><g p7:partial xmlns:p7="http://kanjivg.tagaini.net"><path d="M66.7,34.11c0.05,0.21,0.63,1.12,0.67,2.48c0.22,6.54-0.14,5.97-0.14,8.2c0,6.32-3.87,0.67-4.68,0.11" /><path d="M53.95,39.54c0.03,0.31,0.11,0.82-0.06,1.25c-1.24,3.11-6.46,9.1-10.71,11.96" /></g><g><path d="M82.17,36.8c0.12,0.61,0.01,2.14-0.69,2.9c-6.36,6.88-22.28,16.03-42.23,22.83" /></g></g></g><g><g><path d="M56.55,56.48c0.77,1.08,1.17,1.84,1.17,3.59c0,3.99-0.35,13.7-0.35,25.22" /><path d="M58.51,57.47c2.68-0.22,23.12-2.5,25.56-2.76c2.04-0.22,3.12,1.21,3.12,2.86c0,4.02-0.6,25.04-0.6,26.36" /><path d="M57.77,65.97c5.01-0.33,24.46-2.37,28.76-2.37" /><path d="M57.99,74.58c7.57-0.64,20.55-1.94,28.57-2.07" /><path d="M57.64,83.3c7.57-0.48,22.02-1.75,28.92-1.75" /></g><g><path d="M63.34,88.84c0.38,0.92-0.25,2.17-1,2.84c-2.27,2.02-8.27,5.49-12.81,7.88" /><path d="M78.5,88.11c5.56,2.94,12.14,8.26,13.66,10.83" /></g></g></g></g></g><g fill="none" stroke="#000" stroke-width="5" stroke-linecap="round" stroke-linejoin="round"><g><g><path d="M11,34.92c2.08,0.25,1.27,0.55,3.5,0.25c5.5-0.75,12.5-1.5,21.67-2.67" stroke-dasharray="25.38" stroke-dashoffset="25.38"><animate id="0" attributeName="stroke-dashoffset" values="25.38;0" dur="0.25s" fill="freeze" begin="0s;64ef.click" /></path><path d="M25.32,13c0.5,0.94,1.81,2.56,1.81,5.69c0,15.7,0.25,58.21,0.25,70c0,14.69-6.52,3.64-8.01,2.06" stroke-dasharray="92.59" stroke-dashoffset="92.59"><animate attributeName="stroke-dashoffset" values="92.59" fill="freeze" begin="64ef.click" /><animate id="1" attributeName="stroke-dashoffset" values="92.59;0" dur="0.7s" fill="freeze" begin="0.end" /></path><path d="M11,62.46c0.92,1.09,2.38,1.73,4.41,0.72c1.2-0.59,16.84-10.43,23.02-14.52" stroke-dasharray="32.09" stroke-dashoffset="32.09"><animate attributeName="stroke-dashoffset" values="32.09" fill="freeze" begin="64ef.click" /><animate id="2" attributeName="stroke-dashoffset" values="32.09;0" dur="0.32s" fill="freeze" begin="1.end" /></path></g><g><g><g><path d="M65.15,10.55c0.87,0.34,2.11,2.02,2.09,3c-0.06,3.1-0.06,7.63-0.07,10.46" stroke-dasharray="14.26" stroke-dashoffset="14.26"><animate attributeName="stroke-dashoffset" values="14.26" fill="freeze" begin="64ef.click" /><animate id="3" attributeName="stroke-dashoffset" values="14.26;0" dur="0.14s" fill="freeze" begin="2.end" /></path><g><path d="M45.65,23.89c0,3.19-2.99,13.03-4.13,15.16" stroke-dasharray="15.77" stroke-dashoffset="15.77"><animate attributeName="stroke-dashoffset" values="15.77" fill="freeze" begin="64ef.click" /><animate id="4" attributeName="stroke-dashoffset" values="15.77;0" dur="0.16s" fill="freeze" begin="3.end" /></path><path d="M45.56,26.21c6.48-0.83,41.03-3.79,46.28-4.1c8.21-0.49,1.24,7-0.81,8.76" stroke-dasharray="59.87" stroke-dashoffset="59.87"><animate attributeName="stroke-dashoffset" values="59.87" fill="freeze" begin="64ef.click" /><animate id="5" attributeName="stroke-dashoffset" values="59.87;0" dur="0.6s" fill="freeze" begin="4.end" /></path></g></g><path d="M51.58,32.31c0.73,0.35,2.05,0.39,2.78,0.35c4.94-0.25,22.3-2.81,26.32-3.15c1.2-0.1,1.93,0.17,2.54,0.35" stroke-dasharray="31.92" stroke-dashoffset="31.92"><animate attributeName="stroke-dashoffset" values="31.92" fill="freeze" begin="64ef.click" /><animate id="6" attributeName="stroke-dashoffset" values="31.92;0" dur="0.32s" fill="freeze" begin="5.end" /></path><g><g p7:partial xmlns:p7="http://kanjivg.tagaini.net"><path d="M66.7,34.11c0.05,0.21,0.63,1.12,0.67,2.48c0.22,6.54-0.14,5.97-0.14,8.2c0,6.32-3.87,0.67-4.68,0.11" stroke-dasharray="18.9" stroke-dashoffset="18.9"><animate attributeName="stroke-dashoffset" values="18.9" fill="freeze" begin="64ef.click" /><animate id="7" attributeName="stroke-dashoffset" values="18.9;0" dur="0.19s" fill="freeze" begin="6.end" /></path><path d="M53.95,39.54c0.03,0.31,0.11,0.82-0.06,1.25c-1.24,3.11-6.46,9.1-10.71,11.96" stroke-dasharray="17.47" stroke-dashoffset="17.47"><animate attributeName="stroke-dashoffset" values="17.47" fill="freeze" begin="64ef.click" /><animate id="8" attributeName="stroke-dashoffset" values="17.47;0" dur="0.17s" fill="freeze" begin="7.end" /></path></g><g><path d="M82.17,36.8c0.12,0.61,0.01,2.14-0.69,2.9c-6.36,6.88-22.28,16.03-42.23,22.83" stroke-dasharray="51.44" stroke-dashoffset="51.44"><animate attributeName="stroke-dashoffset" values="51.44" fill="freeze" begin="64ef.click" /><animate id="9" attributeName="stroke-dashoffset" values="51.44;0" dur="0.51s" fill="freeze" begin="8.end" /></path></g></g></g><g><g><path d="M56.55,56.48c0.77,1.08,1.17,1.84,1.17,3.59c0,3.99-0.35,13.7-0.35,25.22" stroke-dasharray="29.08" stroke-dashoffset="29.08"><animate attributeName="stroke-dashoffset" values="29.08" fill="freeze" begin="64ef.click" /><animate id="10" attributeName="stroke-dashoffset" values="29.08;0" dur="0.29s" fill="freeze" begin="9.end" /></path><path d="M58.51,57.47c2.68-0.22,23.12-2.5,25.56-2.76c2.04-0.22,3.12,1.21,3.12,2.86c0,4.02-0.6,25.04-0.6,26.36" stroke-dasharray="56.93" stroke-dashoffset="56.93"><animate attributeName="stroke-dashoffset" values="56.93" fill="freeze" begin="64ef.click" /><animate id="11" attributeName="stroke-dashoffset" values="56.93;0" dur="0.57s" fill="freeze" begin="10.end" /></path><path d="M57.77,65.97c5.01-0.33,24.46-2.37,28.76-2.37" stroke-dasharray="28.86" stroke-dashoffset="28.86"><animate attributeName="stroke-dashoffset" values="28.86" fill="freeze" begin="64ef.click" /><animate id="12" attributeName="stroke-dashoffset" values="28.86;0" dur="0.29s" fill="freeze" begin="11.end" /></path><path d="M57.99,74.58c7.57-0.64,20.55-1.94,28.57-2.07" stroke-dasharray="28.65" stroke-dashoffset="28.65"><animate attributeName="stroke-dashoffset" values="28.65" fill="freeze" begin="64ef.click" /><animate id="13" attributeName="stroke-dashoffset" values="28.65;0" dur="0.29s" fill="freeze" begin="12.end" /></path><path d="M57.64,83.3c7.57-0.48,22.02-1.75,28.92-1.75" stroke-dasharray="28.98" stroke-dashoffset="28.98"><animate attributeName="stroke-dashoffset" values="28.98" fill="freeze" begin="64ef.click" /><animate id="14" attributeName="stroke-dashoffset" values="28.98;0" dur="0.29s" fill="freeze" begin="13.end" /></path></g><g><path d="M63.34,88.84c0.38,0.92-0.25,2.17-1,2.84c-2.27,2.02-8.27,5.49-12.81,7.88" stroke-dasharray="18.25" stroke-dashoffset="18.25"><animate attributeName="stroke-dashoffset" values="18.25" fill="freeze" begin="64ef.click" /><animate id="15" attributeName="stroke-dashoffset" values="18.25;0" dur="0.18s" fill="freeze" begin="14.end" /></path><path d="M78.5,88.11c5.56,2.94,12.14,8.26,13.66,10.83" stroke-dasharray="17.56" stroke-dashoffset="17.56"><animate attributeName="stroke-dashoffset" values="17.56" fill="freeze" begin="64ef.click" /><animate id="16" attributeName="stroke-dashoffset" values="17.56;0" dur="0.18s" fill="freeze" begin="15.end" /></path></g></g></g></g></g></svg>