<svg xmlns="http://www.w3.org/2000/svg" width="109" height="109" viewBox="0 0 109 109" id="652a"><g fill="none" stroke="#666" stroke-width="9" stroke-linecap="round" stroke-linejoin="round"><g><g><path d="M12,36.92c2.08,0.25,1.27,0.55,3.5,0.25c5.5-0.75,14.5-2,23.67-3.17" /><path d="M25.35,12.5c0.51,0.96,1.83,2.59,1.83,5.76c0,15.89,0.25,58.91,0.25,70.84c0,14.87-6.6,3.68-8.1,2.09" /><path d="M10,63.6c0.82,0.97,2.12,1.54,3.92,0.64c1.06-0.53,17.9-11.54,22.41-14.07" /></g><g><g><g><g><g><path d="M72.83,11.23c0.03,0.3,0.07,0.76-0.07,1.19c-0.81,2.51-5.44,8.01-11.79,11.37" /></g><path d="M63.38,15.55c2.99,0.71,6.97,4.32,8.13,6.81" /></g><g><g><path d="M71.75,28.25c0.04,0.28,0.08,0.72-0.07,1.13c-0.87,2.38-5.87,7.59-12.7,10.78" /></g><path d="M62.16,30.52c4.09,0.9,9.52,5.44,11.11,8.58" /></g></g><g><path d="M56.63,12.38c0.03,0.18,0.12,0.52-0.06,0.72c-2.35,2.56-5.08,4.84-10.43,6.88" /><path d="M44.25,18.92c0.48,0.63,0.94,2.06,1.14,3.32c1.04,6.5,2.39,16.73,2.76,24.18" /><path d="M46.67,27.63c2.97-0.88,6.63-1.94,7.2-1.94c0.57,0,1.37,0,1.82,0" /><path d="M48.02,35.98c2.39-0.29,6.29-1.47,6.86-1.47c0.57,0,1.37,0,1.82,0" /><path d="M77.7,15.96c0.53,0.13,1.33,0.4,2.07,0.4c0.74,0,9.61-2.11,10.45-2.24c0.85-0.13,1.55,0.66,1.49,1.47c-0.64,7.73-3.49,21.58-4.12,27.98" /><path d="M79.04,24.1c0.53,0.13,0.96,0.4,1.7,0.4c0.74,0,8-0.57,8.85-0.7" /><path d="M78.86,33.58c0.53,0.13,0.96,0.4,1.7,0.4c0.74,0,8-1.57,8.85-1.7" /></g><g><path d="M41.7,44.95c0,3.21-2.26,12.04-3.29,14.19" /><path d="M41.69,47.68c7.23-0.94,43.06-3.9,48.93-4.26c9.17-0.56,1.94,6.84-0.34,8.86" /></g></g><g><g><path d="M51.7,52.43c0.41,0.56,0.64,1.39,0.64,2.14c0,0.75,0.25,23.92,0.38,24.67" /><path d="M52.28,54.02c2.31-0.09,22.71-2.65,24.81-2.76c1.75-0.09,2.25,1.26,2.25,2.99c0,2.08-0.45,22.74-0.45,23.3" /><path d="M52.64,61.71c3.29,0,22.64-2.19,26.34-2.19" /><path d="M52.83,69.67c6.04-0.6,19.14-1.56,25.88-1.98" /><path d="M52.72,77.5c5.78-0.59,19.8-1.76,26.28-2.29" /></g><g><path d="M58.6,80.16c0.05,0.42,0.1,1.08-0.1,1.68c-1.18,3.54-7.4,11.99-17.21,16.08" /><path d="M67.73,78.75c0.5,0.87,0.89,1.9,0.92,3.25c0.13,6.01,0.03-0.38,0.03,8.43c0,8.81,4.16,8.67,12.39,8.46c8.23-0.2,10.75-1.23,11.67-1.93c1.93-1.47,1.4-2.2,1.58-4.77" /></g></g></g></g></g><g fill="none" stroke="#000" stroke-width="5" stroke-linecap="round" stroke-linejoin="round"><g><g><path d="M12,36.92c2.08,0.25,1.27,0.55,3.5,0.25c5.5-0.75,14.5-2,23.67-3.17" stroke-dasharray="27.426" stroke-dashoffset="27.426"><animate attributeName="stroke-dashoffset" values="27.426;27.426;0" dur="0.274s" fill="freeze" begin="0s;652a.click" /></path><path d="M25.35,12.5c0.51,0.96,1.83,2.59,1.83,5.76c0,15.89,0.25,58.91,0.25,70.84c0,14.87-6.6,3.68-8.1,2.09" stroke-dasharray="93.7" stroke-dashoffset="93.7"><animate attributeName="stroke-dashoffset" values="93.7" fill="freeze" begin="652a.click" /><animate attributeName="stroke-dashoffset" values="93.7;93.7;0" keyTimes="0;0.28;1" dur="0.979s" fill="freeze" begin="0s;652a.click" /></path><path d="M10,63.6c0.82,0.97,2.12,1.54,3.92,0.64c1.06-0.53,17.9-11.54,22.41-14.07" stroke-dasharray="30.796" stroke-dashoffset="30.796"><animate attributeName="stroke-dashoffset" values="30.796" fill="freeze" begin="652a.click" /><animate attributeName="stroke-dashoffset" values="30.796;30.796;0" keyTimes="0;0.761;1" dur="1.287s" fill="freeze" begin="0s;652a.click" /></path></g><g><g><g><g><g><path d="M72.83,11.23c0.03,0.3,0.07,0.76-0.07,1.19c-0.81,2.51-5.44,8.01-11.79,11.37" stroke-dasharray="17.852" stroke-dashoffset="17.852"><animate attributeName="stroke-dashoffset" values="17.852" fill="freeze" begin="652a.click" /><animate attributeName="stroke-dashoffset" values="17.852;17.852;0" keyTimes="0;0.878;1" dur="1.466s" fill="freeze" begin="0s;652a.click" /></path></g><path d="M63.38,15.55c2.99,0.71,6.97,4.32,8.13,6.81" stroke-dasharray="10.858" stroke-dashoffset="10.858"><animate attributeName="stroke-dashoffset" values="10.858" fill="freeze" begin="652a.click" /><animate attributeName="stroke-dashoffset" values="10.858;10.858;0" keyTimes="0;0.931;1" dur="1.575s" fill="freeze" begin="0s;652a.click" /></path></g><g><g><path d="M71.75,28.25c0.04,0.28,0.08,0.72-0.07,1.13c-0.87,2.38-5.87,7.59-12.7,10.78" stroke-dasharray="18.074" stroke-dashoffset="18.074"><animate attributeName="stroke-dashoffset" values="18.074" fill="freeze" begin="652a.click" /><animate attributeName="stroke-dashoffset" values="18.074;18.074;0" keyTimes="0;0.897;1" dur="1.756s" fill="freeze" begin="0s;652a.click" /></path></g><path d="M62.16,30.52c4.09,0.9,9.52,5.44,11.11,8.58" stroke-dasharray="14.359" stroke-dashoffset="14.359"><animate attributeName="stroke-dashoffset" values="14.359" fill="freeze" begin="652a.click" /><animate attributeName="stroke-dashoffset" values="14.359;14.359;0" keyTimes="0;0.924;1" dur="1.9s" fill="freeze" begin="0s;652a.click" /></path></g></g><g><path d="M56.63,12.38c0.03,0.18,0.12,0.52-0.06,0.72c-2.35,2.56-5.08,4.84-10.43,6.88" stroke-dasharray="13.374" stroke-dashoffset="13.374"><animate attributeName="stroke-dashoffset" values="13.374" fill="freeze" begin="652a.click" /><animate attributeName="stroke-dashoffset" values="13.374;13.374;0" keyTimes="0;0.934;1" dur="2.034s" fill="freeze" begin="0s;652a.click" /></path><path d="M44.25,18.92c0.48,0.63,0.94,2.06,1.14,3.32c1.04,6.5,2.39,16.73,2.76,24.18" stroke-dasharray="27.884" stroke-dashoffset="27.884"><animate attributeName="stroke-dashoffset" values="27.884" fill="freeze" begin="652a.click" /><animate attributeName="stroke-dashoffset" values="27.884;27.884;0" keyTimes="0;0.879;1" dur="2.313s" fill="freeze" begin="0s;652a.click" /></path><path d="M46.67,27.63c2.97-0.88,6.63-1.94,7.2-1.94c0.57,0,1.37,0,1.82,0" stroke-dasharray="9.283" stroke-dashoffset="9.283"><animate attributeName="stroke-dashoffset" values="9.283" fill="freeze" begin="652a.click" /><animate attributeName="stroke-dashoffset" values="9.283;9.283;0" keyTimes="0;0.961;1" dur="2.406s" fill="freeze" begin="0s;652a.click" /></path><path d="M48.02,35.98c2.39-0.29,6.29-1.47,6.86-1.47c0.57,0,1.37,0,1.82,0" stroke-dasharray="8.841" stroke-dashoffset="8.841"><animate attributeName="stroke-dashoffset" values="8.841" fill="freeze" begin="652a.click" /><animate attributeName="stroke-dashoffset" values="8.841;8.841;0" keyTimes="0;0.965;1" dur="2.494s" fill="freeze" begin="0s;652a.click" /></path><path d="M77.7,15.96c0.53,0.13,1.33,0.4,2.07,0.4c0.74,0,9.61-2.11,10.45-2.24c0.85-0.13,1.55,0.66,1.49,1.47c-0.64,7.73-3.49,21.58-4.12,27.98" stroke-dasharray="43.485" stroke-dashoffset="43.485"><animate attributeName="stroke-dashoffset" values="43.485" fill="freeze" begin="652a.click" /><animate attributeName="stroke-dashoffset" values="43.485;43.485;0" keyTimes="0;0.851;1" dur="2.929s" fill="freeze" begin="0s;652a.click" /></path><path d="M79.04,24.1c0.53,0.13,0.96,0.4,1.7,0.4c0.74,0,8-0.57,8.85-0.7" stroke-dasharray="10.635" stroke-dashoffset="10.635"><animate attributeName="stroke-dashoffset" values="10.635" fill="freeze" begin="652a.click" /><animate attributeName="stroke-dashoffset" values="10.635;10.635;0" keyTimes="0;0.965;1" dur="3.035s" fill="freeze" begin="0s;652a.click" /></path><path d="M78.86,33.58c0.53,0.13,0.96,0.4,1.7,0.4c0.74,0,8-1.57,8.85-1.7" stroke-dasharray="10.771" stroke-dashoffset="10.771"><animate attributeName="stroke-dashoffset" values="10.771" fill="freeze" begin="652a.click" /><animate attributeName="stroke-dashoffset" values="10.771;10.771;0" keyTimes="0;0.966;1" dur="3.143s" fill="freeze" begin="0s;652a.click" /></path></g><g><path d="M41.7,44.95c0,3.21-2.26,12.04-3.29,14.19" stroke-dasharray="14.618" stroke-dashoffset="14.618"><animate attributeName="stroke-dashoffset" values="14.618" fill="freeze" begin="652a.click" /><animate attributeName="stroke-dashoffset" values="14.618;14.618;0" keyTimes="0;0.956;1" dur="3.289s" fill="freeze" begin="0s;652a.click" /></path><path d="M41.69,47.68c7.23-0.94,43.06-3.9,48.93-4.26c9.17-0.56,1.94,6.84-0.34,8.86" stroke-dasharray="63.268" stroke-dashoffset="63.268"><animate attributeName="stroke-dashoffset" values="63.268" fill="freeze" begin="652a.click" /><animate attributeName="stroke-dashoffset" values="63.268;63.268;0" keyTimes="0;0.874;1" dur="3.765s" fill="freeze" begin="0s;652a.click" /></path></g></g><g><g><path d="M51.7,52.43c0.41,0.56,0.64,1.39,0.64,2.14c0,0.75,0.25,23.92,0.38,24.67" stroke-dasharray="26.943" stroke-dashoffset="26.943"><animate attributeName="stroke-dashoffset" values="26.943" fill="freeze" begin="652a.click" /><animate attributeName="stroke-dashoffset" values="26.943;26.943;0" keyTimes="0;0.933;1" dur="4.034s" fill="freeze" begin="0s;652a.click" /></path><path d="M52.28,54.02c2.31-0.09,22.71-2.65,24.81-2.76c1.75-0.09,2.25,1.26,2.25,2.99c0,2.08-0.45,22.74-0.45,23.3" stroke-dasharray="52.588" stroke-dashoffset="52.588"><animate attributeName="stroke-dashoffset" values="52.588" fill="freeze" begin="652a.click" /><animate attributeName="stroke-dashoffset" values="52.588;52.588;0" keyTimes="0;0.885;1" dur="4.56s" fill="freeze" begin="0s;652a.click" /></path><path d="M52.64,61.71c3.29,0,22.64-2.19,26.34-2.19" stroke-dasharray="26.436" stroke-dashoffset="26.436"><animate attributeName="stroke-dashoffset" values="26.436" fill="freeze" begin="652a.click" /><animate attributeName="stroke-dashoffset" values="26.436;26.436;0" keyTimes="0;0.945;1" dur="4.824s" fill="freeze" begin="0s;652a.click" /></path><path d="M52.83,69.67c6.04-0.6,19.14-1.56,25.88-1.98" stroke-dasharray="25.958" stroke-dashoffset="25.958"><animate attributeName="stroke-dashoffset" values="25.958" fill="freeze" begin="652a.click" /><animate attributeName="stroke-dashoffset" values="25.958;25.958;0" keyTimes="0;0.949;1" dur="5.084s" fill="freeze" begin="0s;652a.click" /></path><path d="M52.72,77.5c5.78-0.59,19.8-1.76,26.28-2.29" stroke-dasharray="26.381" stroke-dashoffset="26.381"><animate attributeName="stroke-dashoffset" values="26.381" fill="freeze" begin="652a.click" /><animate attributeName="stroke-dashoffset" values="26.381;26.381;0" keyTimes="0;0.951;1" dur="5.348s" fill="freeze" begin="0s;652a.click" /></path></g><g><path d="M58.6,80.16c0.05,0.42,0.1,1.08-0.1,1.68c-1.18,3.54-7.4,11.99-17.21,16.08" stroke-dasharray="25.787" stroke-dashoffset="25.787"><animate attributeName="stroke-dashoffset" values="25.787" fill="freeze" begin="652a.click" /><animate attributeName="stroke-dashoffset" values="25.787;25.787;0" keyTimes="0;0.954;1" dur="5.606s" fill="freeze" begin="0s;652a.click" /></path><path d="M67.73,78.75c0.5,0.87,0.89,1.9,0.92,3.25c0.13,6.01,0.03-0.38,0.03,8.43c0,8.81,4.16,8.67,12.39,8.46c8.23-0.2,10.75-1.23,11.67-1.93c1.93-1.47,1.4-2.2,1.58-4.77" stroke-dasharray="47.197" stroke-dashoffset="47.197"><animate attributeName="stroke-dashoffset" values="47.197" fill="freeze" begin="652a.click" /><animate attributeName="stroke-dashoffset" values="47.197;47.197;0" keyTimes="0;0.922;1" dur="6.078s" fill="freeze" begin="0s;652a.click" /></path></g></g></g></g></g></svg>