<svg xmlns="http://www.w3.org/2000/svg" width="109" height="109" viewBox="0 0 109 109" id="652b"><g fill="none" stroke="#666" stroke-width="9" stroke-linecap="round" stroke-linejoin="round"><g><g><path d="M11.5,35.42c2.08,0.25,1.27,0.55,3.5,0.25c5.5-0.75,15.5-2.5,24.67-3.67" /><path d="M25.77,13c0.48,0.92,1.76,2.49,1.76,5.52c0,15.23,0.24,58.96,0.24,70.4c0,14.25-6.82,3.53-8.27,2" /><path d="M11.5,62.52c1.25,1.48,2.74,1.35,5.5-0.02c1.63-0.81,12.25-9,19.25-14.08" /></g><g><g><g><g><path d="M45.92,13.47c0.26,0.46,0.64,1.27,0.64,1.89s0.46,18.14,0.46,18.44" /><path d="M46.48,14.07c1.48-0.08,13.99-1.69,15.33-1.78c1.12-0.08,2,0.93,1.91,1.49c-0.12,0.72-0.26,16.48-0.26,19.25" /><path d="M47.35,20.5c2.91-0.1,13.57-0.97,15.93-0.97" /><path d="M47.85,26.33c3.91-0.26,11.46-0.92,15.26-0.92" /><path d="M47.33,31.97c3.36-0.13,12.18-0.68,15.97-0.68" /></g><g><path d="M71.94,12.17c0.25,0.46,0.24,1.27,0.24,1.88c0,0.61,0.35,17.64,0.35,17.95" /><path d="M72.48,13.24c1.43-0.08,13.96-2.16,15.26-2.26c1.08-0.08,1.94,0.93,1.85,1.49c-0.11,0.72-0.25,16.48-0.25,19.25" /><path d="M73.34,18.84c2.82-0.1,13.54-1.45,15.83-1.45" /><path d="M73.45,25.52c3.79-0.26,11.87-1.39,15.54-1.39" /><path d="M73.83,31.14c3.25-0.13,11.68-1.16,15.36-1.16" /></g></g><g p6:part="1" xmlns:p6="http://kanjivg.tagaini.net"><g><g><path d="M54.55,36.36c0.16,0.83-0.04,1.91-0.54,2.62c-3.19,4.51-7.23,8.34-14.53,13.83" /><path d="M50.49,44.6c0.38,0.75,0.38,1.09,0.42,1.62c0.38,4.71-0.2,17.16-0.2,20.84" /></g><path d="M69.93,36.03c0.03,0.33-0.01,0.77-0.11,1.05c-0.66,1.81-1.5,3.22-3.01,5.43" /><path d="M51.11,44.55c7.44-0.44,35.6-1.86,38.8-2.1" /><path d="M68,45.32c0.36,0.17,0.65,0.41,0.65,0.71c0,3.06,0.04,13.18-0.18,17.99" /><path d="M51.73,51.32c7.02-0.37,32.65-1.97,35.66-2.17" /><path d="M50.88,57.82c7.4-0.31,33.63-1.76,36.81-1.93" /><path d="M50.88,65.46c7.44-0.44,38.31-1.99,41.5-2.23" /></g></g></g><g p5:part="2" xmlns:p5="http://kanjivg.tagaini.net"><g><path d="M47.25,74.83c1.73,0.18,1.95,0.46,5.41,0.18c3.46-0.27,28.11-3.63,30.49-3.9c2.38-0.27,2.89,2.04,1.95,2.97C73.75,85.25,58.47,94.02,39,98.5" /><path d="M52.45,79.89c3.84,0.42,22.62,11.53,36.01,16.09c2.08,0.71,3.6,1.18,5.54,1.42" /></g></g></g></g></g><g fill="none" stroke="#000" stroke-width="5" stroke-linecap="round" stroke-linejoin="round"><g><g><path d="M11.5,35.42c2.08,0.25,1.27,0.55,3.5,0.25c5.5-0.75,15.5-2.5,24.67-3.67" stroke-dasharray="28.49" stroke-dashoffset="28.49"><animate id="0" attributeName="stroke-dashoffset" values="28.49;0" dur="0.28s" fill="freeze" begin="0s;652b.click" /></path><path d="M25.77,13c0.48,0.92,1.76,2.49,1.76,5.52c0,15.23,0.24,58.96,0.24,70.4c0,14.25-6.82,3.53-8.27,2" stroke-dasharray="92.66" stroke-dashoffset="92.66"><animate attributeName="stroke-dashoffset" values="92.66" fill="freeze" begin="652b.click" /><animate id="1" attributeName="stroke-dashoffset" values="92.66;0" dur="0.7s" fill="freeze" begin="0.end" /></path><path d="M11.5,62.52c1.25,1.48,2.74,1.35,5.5-0.02c1.63-0.81,12.25-9,19.25-14.08" stroke-dasharray="29.89" stroke-dashoffset="29.89"><animate attributeName="stroke-dashoffset" values="29.89" fill="freeze" begin="652b.click" /><animate id="2" attributeName="stroke-dashoffset" values="29.89;0" dur="0.3s" fill="freeze" begin="1.end" /></path></g><g><g><g><g><path d="M45.92,13.47c0.26,0.46,0.64,1.27,0.64,1.89s0.46,18.14,0.46,18.44" stroke-dasharray="20.46" stroke-dashoffset="20.46"><animate attributeName="stroke-dashoffset" values="20.46" fill="freeze" begin="652b.click" /><animate id="3" attributeName="stroke-dashoffset" values="20.46;0" dur="0.2s" fill="freeze" begin="2.end" /></path><path d="M46.48,14.07c1.48-0.08,13.99-1.69,15.33-1.78c1.12-0.08,2,0.93,1.91,1.49c-0.12,0.72-0.26,16.48-0.26,19.25" stroke-dasharray="37.37" stroke-dashoffset="37.37"><animate attributeName="stroke-dashoffset" values="37.37" fill="freeze" begin="652b.click" /><animate id="4" attributeName="stroke-dashoffset" values="37.37;0" dur="0.37s" fill="freeze" begin="3.end" /></path><path d="M47.35,20.5c2.91-0.1,13.57-0.97,15.93-0.97" stroke-dasharray="15.96" stroke-dashoffset="15.96"><animate attributeName="stroke-dashoffset" values="15.96" fill="freeze" begin="652b.click" /><animate id="5" attributeName="stroke-dashoffset" values="15.96;0" dur="0.16s" fill="freeze" begin="4.end" /></path><path d="M47.85,26.33c3.91-0.26,11.46-0.92,15.26-0.92" stroke-dasharray="15.29" stroke-dashoffset="15.29"><animate attributeName="stroke-dashoffset" values="15.29" fill="freeze" begin="652b.click" /><animate id="6" attributeName="stroke-dashoffset" values="15.29;0" dur="0.15s" fill="freeze" begin="5.end" /></path><path d="M47.33,31.97c3.36-0.13,12.18-0.68,15.97-0.68" stroke-dasharray="15.99" stroke-dashoffset="15.99"><animate attributeName="stroke-dashoffset" values="15.99" fill="freeze" begin="652b.click" /><animate id="7" attributeName="stroke-dashoffset" values="15.99;0" dur="0.16s" fill="freeze" begin="6.end" /></path></g><g><path d="M71.94,12.17c0.25,0.46,0.24,1.27,0.24,1.88c0,0.61,0.35,17.64,0.35,17.95" stroke-dasharray="19.87" stroke-dashoffset="19.87"><animate attributeName="stroke-dashoffset" values="19.87" fill="freeze" begin="652b.click" /><animate id="8" attributeName="stroke-dashoffset" values="19.87;0" dur="0.2s" fill="freeze" begin="7.end" /></path><path d="M72.48,13.24c1.43-0.08,13.96-2.16,15.26-2.26c1.08-0.08,1.94,0.93,1.85,1.49c-0.11,0.72-0.25,16.48-0.25,19.25" stroke-dasharray="37.31" stroke-dashoffset="37.31"><animate attributeName="stroke-dashoffset" values="37.31" fill="freeze" begin="652b.click" /><animate id="9" attributeName="stroke-dashoffset" values="37.31;0" dur="0.37s" fill="freeze" begin="8.end" /></path><path d="M73.34,18.84c2.82-0.1,13.54-1.45,15.83-1.45" stroke-dasharray="15.9" stroke-dashoffset="15.9"><animate attributeName="stroke-dashoffset" values="15.9" fill="freeze" begin="652b.click" /><animate id="10" attributeName="stroke-dashoffset" values="15.9;0" dur="0.16s" fill="freeze" begin="9.end" /></path><path d="M73.45,25.52c3.79-0.26,11.87-1.39,15.54-1.39" stroke-dasharray="15.61" stroke-dashoffset="15.61"><animate attributeName="stroke-dashoffset" values="15.61" fill="freeze" begin="652b.click" /><animate id="11" attributeName="stroke-dashoffset" values="15.61;0" dur="0.16s" fill="freeze" begin="10.end" /></path><path d="M73.83,31.14c3.25-0.13,11.68-1.16,15.36-1.16" stroke-dasharray="15.41" stroke-dashoffset="15.41"><animate attributeName="stroke-dashoffset" values="15.41" fill="freeze" begin="652b.click" /><animate id="12" attributeName="stroke-dashoffset" values="15.41;0" dur="0.15s" fill="freeze" begin="11.end" /></path></g></g><g p6:part="1" xmlns:p6="http://kanjivg.tagaini.net"><g><g><path d="M54.55,36.36c0.16,0.83-0.04,1.91-0.54,2.62c-3.19,4.51-7.23,8.34-14.53,13.83" stroke-dasharray="22.88" stroke-dashoffset="22.88"><animate attributeName="stroke-dashoffset" values="22.88" fill="freeze" begin="652b.click" /><animate id="13" attributeName="stroke-dashoffset" values="22.88;0" dur="0.23s" fill="freeze" begin="12.end" /></path><path d="M50.49,44.6c0.38,0.75,0.38,1.09,0.42,1.62c0.38,4.71-0.2,17.16-0.2,20.84" stroke-dasharray="22.54" stroke-dashoffset="22.54"><animate attributeName="stroke-dashoffset" values="22.54" fill="freeze" begin="652b.click" /><animate id="14" attributeName="stroke-dashoffset" values="22.54;0" dur="0.23s" fill="freeze" begin="13.end" /></path></g><path d="M69.93,36.03c0.03,0.33-0.01,0.77-0.11,1.05c-0.66,1.81-1.5,3.22-3.01,5.43" stroke-dasharray="7.29" stroke-dashoffset="7.29"><animate attributeName="stroke-dashoffset" values="7.29" fill="freeze" begin="652b.click" /><animate id="15" attributeName="stroke-dashoffset" values="7.29;0" dur="0.07s" fill="freeze" begin="14.end" /></path><path d="M51.11,44.55c7.44-0.44,35.6-1.86,38.8-2.1" stroke-dasharray="38.86" stroke-dashoffset="38.86"><animate attributeName="stroke-dashoffset" values="38.86" fill="freeze" begin="652b.click" /><animate id="16" attributeName="stroke-dashoffset" values="38.86;0" dur="0.39s" fill="freeze" begin="15.end" /></path><path d="M68,45.32c0.36,0.17,0.65,0.41,0.65,0.71c0,3.06,0.04,13.18-0.18,17.99" stroke-dasharray="19.01" stroke-dashoffset="19.01"><animate attributeName="stroke-dashoffset" values="19.01" fill="freeze" begin="652b.click" /><animate id="17" attributeName="stroke-dashoffset" values="19.01;0" dur="0.19s" fill="freeze" begin="16.end" /></path><path d="M51.73,51.32c7.02-0.37,32.65-1.97,35.66-2.17" stroke-dasharray="35.73" stroke-dashoffset="35.73"><animate attributeName="stroke-dashoffset" values="35.73" fill="freeze" begin="652b.click" /><animate id="18" attributeName="stroke-dashoffset" values="35.73;0" dur="0.36s" fill="freeze" begin="17.end" /></path><path d="M50.88,57.82c7.4-0.31,33.63-1.76,36.81-1.93" stroke-dasharray="36.86" stroke-dashoffset="36.86"><animate attributeName="stroke-dashoffset" values="36.86" fill="freeze" begin="652b.click" /><animate id="19" attributeName="stroke-dashoffset" values="36.86;0" dur="0.37s" fill="freeze" begin="18.end" /></path><path d="M50.88,65.46c7.44-0.44,38.31-1.99,41.5-2.23" stroke-dasharray="41.56" stroke-dashoffset="41.56"><animate attributeName="stroke-dashoffset" values="41.56" fill="freeze" begin="652b.click" /><animate id="20" attributeName="stroke-dashoffset" values="41.56;0" dur="0.42s" fill="freeze" begin="19.end" /></path></g></g></g><g p5:part="2" xmlns:p5="http://kanjivg.tagaini.net"><g><path d="M47.25,74.83c1.73,0.18,1.95,0.46,5.41,0.18c3.46-0.27,28.11-3.63,30.49-3.9c2.38-0.27,2.89,2.04,1.95,2.97C73.75,85.25,58.47,94.02,39,98.5" stroke-dasharray="93.72" stroke-dashoffset="93.72"><animate attributeName="stroke-dashoffset" values="93.72" fill="freeze" begin="652b.click" /><animate id="21" attributeName="stroke-dashoffset" values="93.72;0" dur="0.7s" fill="freeze" begin="20.end" /></path><path d="M52.45,79.89c3.84,0.42,22.62,11.53,36.01,16.09c2.08,0.71,3.6,1.18,5.54,1.42" stroke-dasharray="45.22" stroke-dashoffset="45.22"><animate attributeName="stroke-dashoffset" values="45.22" fill="freeze" begin="652b.click" /><animate id="22" attributeName="stroke-dashoffset" values="45.22;0" dur="0.45s" fill="freeze" begin="21.end" /></path></g></g></g></g></g></svg>