<svg xmlns="http://www.w3.org/2000/svg" width="109" height="109" viewBox="0 0 109 109" id="654d"><g fill="none" stroke="#666" stroke-width="9" stroke-linecap="round" stroke-linejoin="round"><g><g><g><path d="M35.8,12.25c0.08,0.8,0.31,2.11-0.17,3.2c-4.13,9.05-8.79,18.06-23.17,30.62" /><path d="M36.5,19.75c6.12,4,13.53,10.4,16.75,16" /></g><g><path d="M20,43.14c0.71,0.27,2.01,0.32,2.72,0.27c6.86-0.46,17.53-2.89,23.29-3.25c1.06-0.07,1.71,0.13,2.24,0.26" /><path d="M11.98,57.98c1.07,0.49,3.05,0.63,4.13,0.53C28,58,38.25,56.25,49.44,54.66c2.02-0.29,3.26,0.17,4.28,0.33" /><g><path d="M34.03,44.8c0.09,0.49,1.26,2.57,1.26,5.71c0,20.39-0.26,35.82-0.26,40.95c0,11.63-6.21,2.07-7.71,0.78" /><path d="M24.73,69.25c0.04,0.47,0.16,1.26-0.07,1.87c-1.73,4.47-6.2,11.11-13.27,17.89" /><path d="M45.12,68.49c3.03,2.73,7.84,11.22,8.59,15.46" /></g></g></g><g><g><path d="M68.61,10.38c0.39,0.34,1.21,2.53,1.28,3.21c0.08,0.68-0.05,27.57-0.13,31.79" /><path d="M70.43,27.25c2.02-0.25,17.83-3,18.93-3s2.59,0,3.49,0.25" /></g><g><path d="M57.36,46.23c1.47,0.38,2.12,0.78,5.09,0.38c4.54-0.61,22-3.56,24.02-4.14s3.59,2.18,2.76,4.22C79.5,70.5,65.75,89.75,45.5,99" /><path d="M59.6,54.7c3.42,1,20.09,27.64,31.98,38.56c1.85,1.7,3.2,2.83,4.92,3.4" /></g></g></g></g><g fill="none" stroke="#000" stroke-width="5" stroke-linecap="round" stroke-linejoin="round"><g><g><g><path d="M35.8,12.25c0.08,0.8,0.31,2.11-0.17,3.2c-4.13,9.05-8.79,18.06-23.17,30.62" stroke-dasharray="42" stroke-dashoffset="42"><animate id="0" attributeName="stroke-dashoffset" values="42;0" dur="0.42s" fill="freeze" begin="0s;654d.click" /></path><path d="M36.5,19.75c6.12,4,13.53,10.4,16.75,16" stroke-dasharray="23.34" stroke-dashoffset="23.34"><animate attributeName="stroke-dashoffset" values="23.34" fill="freeze" begin="654d.click" /><animate id="1" attributeName="stroke-dashoffset" values="23.34;0" dur="0.23s" fill="freeze" begin="0.end" /></path></g><g><path d="M20,43.14c0.71,0.27,2.01,0.32,2.72,0.27c6.86-0.46,17.53-2.89,23.29-3.25c1.06-0.07,1.71,0.13,2.24,0.26" stroke-dasharray="28.54" stroke-dashoffset="28.54"><animate attributeName="stroke-dashoffset" values="28.54" fill="freeze" begin="654d.click" /><animate id="2" attributeName="stroke-dashoffset" values="28.54;0" dur="0.29s" fill="freeze" begin="1.end" /></path><path d="M11.98,57.98c1.07,0.49,3.05,0.63,4.13,0.53C28,58,38.25,56.25,49.44,54.66c2.02-0.29,3.26,0.17,4.28,0.33" stroke-dasharray="42.09" stroke-dashoffset="42.09"><animate attributeName="stroke-dashoffset" values="42.09" fill="freeze" begin="654d.click" /><animate id="3" attributeName="stroke-dashoffset" values="42.09;0" dur="0.42s" fill="freeze" begin="2.end" /></path><g><path d="M34.03,44.8c0.09,0.49,1.26,2.57,1.26,5.71c0,20.39-0.26,35.82-0.26,40.95c0,11.63-6.21,2.07-7.71,0.78" stroke-dasharray="61.07" stroke-dashoffset="61.07"><animate attributeName="stroke-dashoffset" values="61.07" fill="freeze" begin="654d.click" /><animate id="4" attributeName="stroke-dashoffset" values="61.07;0" dur="0.46s" fill="freeze" begin="3.end" /></path><path d="M24.73,69.25c0.04,0.47,0.16,1.26-0.07,1.87c-1.73,4.47-6.2,11.11-13.27,17.89" stroke-dasharray="24.31" stroke-dashoffset="24.31"><animate attributeName="stroke-dashoffset" values="24.31" fill="freeze" begin="654d.click" /><animate id="5" attributeName="stroke-dashoffset" values="24.31;0" dur="0.24s" fill="freeze" begin="4.end" /></path><path d="M45.12,68.49c3.03,2.73,7.84,11.22,8.59,15.46" stroke-dasharray="17.87" stroke-dashoffset="17.87"><animate attributeName="stroke-dashoffset" values="17.87" fill="freeze" begin="654d.click" /><animate id="6" attributeName="stroke-dashoffset" values="17.87;0" dur="0.18s" fill="freeze" begin="5.end" /></path></g></g></g><g><g><path d="M68.61,10.38c0.39,0.34,1.21,2.53,1.28,3.21c0.08,0.68-0.05,27.57-0.13,31.79" stroke-dasharray="35.27" stroke-dashoffset="35.27"><animate attributeName="stroke-dashoffset" values="35.27" fill="freeze" begin="654d.click" /><animate id="7" attributeName="stroke-dashoffset" values="35.27;0" dur="0.35s" fill="freeze" begin="6.end" /></path><path d="M70.43,27.25c2.02-0.25,17.83-3,18.93-3s2.59,0,3.49,0.25" stroke-dasharray="22.68" stroke-dashoffset="22.68"><animate attributeName="stroke-dashoffset" values="22.68" fill="freeze" begin="654d.click" /><animate id="8" attributeName="stroke-dashoffset" values="22.68;0" dur="0.23s" fill="freeze" begin="7.end" /></path></g><g><path d="M57.36,46.23c1.47,0.38,2.12,0.78,5.09,0.38c4.54-0.61,22-3.56,24.02-4.14s3.59,2.18,2.76,4.22C79.5,70.5,65.75,89.75,45.5,99" stroke-dasharray="105.52" stroke-dashoffset="105.52"><animate attributeName="stroke-dashoffset" values="105.52" fill="freeze" begin="654d.click" /><animate id="9" attributeName="stroke-dashoffset" values="105.52;0" dur="0.79s" fill="freeze" begin="8.end" /></path><path d="M59.6,54.7c3.42,1,20.09,27.64,31.98,38.56c1.85,1.7,3.2,2.83,4.92,3.4" stroke-dasharray="56.25" stroke-dashoffset="56.25"><animate attributeName="stroke-dashoffset" values="56.25" fill="freeze" begin="654d.click" /><animate id="10" attributeName="stroke-dashoffset" values="56.25;0" dur="0.56s" fill="freeze" begin="9.end" /></path></g></g></g></g></svg>