<svg xmlns="http://www.w3.org/2000/svg" width="109" height="109" viewBox="0 0 109 109" id="654f"><g fill="none" stroke="#666" stroke-width="9" stroke-linecap="round" stroke-linejoin="round"><g><g><g><g><path d="M33.37,17.75c0.13,0.75,0.04,1.59-0.34,2.37c-2.78,5.63-9.9,15.13-17.65,22.21" /></g><path d="M29.67,29.8c0.81,0.18,2.91,0.28,3.7,0.18c3.9-0.52,12.59-1.7,18.5-2.65c1.85-0.29,3.73-0.28,5.57-0.04" /></g><g p5:partial xmlns:p5="http://kanjivg.tagaini.net"><path d="M26.43,42.69c1.06,1.06,1.23,2.79,0.78,4.73C25.2,56,18.73,69.12,15.85,73.89c-1.5,2.48-0.4,3.84,1.19,3.84c8.47,0,14.46,0.9,25.25,2.86c4.29,0.78,7.96,2.41,12.66,4.96" /><path d="M28.33,44.67c0.77-0.13,2.24-0.27,2.92-0.35c6.93-0.89,15.74-2.12,19.58-2.39c2.96-0.21,3.86,1.47,3.61,4.04C53.31,57.69,48.5,80,43.33,89.67c-2.79,5.22-5.07,5.25-8,1.76" /><path d="M39.15,45.12c0.48,1.25,0.55,2.73,0.22,3.74c-2.74,8.27-6.31,22.17-8.43,28.81" /><path d="M9.63,63.13c2,0.49,4.2,0.41,6.01,0.28c8.81-0.66,23.36-1.91,37.87-2.86c2.45-0.16,5.24-0.18,7.62,0.36" /></g></g><g><g><path d="M72.11,18.39c0.03,0.69,0.16,1.8-0.06,2.75c-1.61,6.93-5.23,18.68-10.8,27.04" /><path d="M67.92,39.3c0.96,0.27,2.75,0,3.27-0.04c4.7-0.38,10.68-2.02,18.84-3.85c1.35-0.3,3.1-0.54,4.88-0.29" /></g><g><g><path d="M83.62,41.72c0.38,1.28,0.59,2.42,0.22,4.32C80.5,63.12,73.5,83,56.91,92" /></g><path d="M62.97,52.51c3.17,0.67,17.84,23.42,27.04,34.09c1.8,2.09,3.48,3.78,6.48,5.84" /></g></g></g></g><g fill="none" stroke="#000" stroke-width="5" stroke-linecap="round" stroke-linejoin="round"><g><g><g><g><path d="M33.37,17.75c0.13,0.75,0.04,1.59-0.34,2.37c-2.78,5.63-9.9,15.13-17.65,22.21" stroke-dasharray="30.93" stroke-dashoffset="30.93"><animate id="0" attributeName="stroke-dashoffset" values="30.93;0" dur="0.31s" fill="freeze" begin="0s;654f.click" /></path></g><path d="M29.67,29.8c0.81,0.18,2.91,0.28,3.7,0.18c3.9-0.52,12.59-1.7,18.5-2.65c1.85-0.29,3.73-0.28,5.57-0.04" stroke-dasharray="27.99" stroke-dashoffset="27.99"><animate attributeName="stroke-dashoffset" values="27.99" fill="freeze" begin="654f.click" /><animate id="1" attributeName="stroke-dashoffset" values="27.99;0" dur="0.28s" fill="freeze" begin="0.end" /></path></g><g p5:partial xmlns:p5="http://kanjivg.tagaini.net"><path d="M26.43,42.69c1.06,1.06,1.23,2.79,0.78,4.73C25.2,56,18.73,69.12,15.85,73.89c-1.5,2.48-0.4,3.84,1.19,3.84c8.47,0,14.46,0.9,25.25,2.86c4.29,0.78,7.96,2.41,12.66,4.96" stroke-dasharray="78.15" stroke-dashoffset="78.15"><animate attributeName="stroke-dashoffset" values="78.15" fill="freeze" begin="654f.click" /><animate id="2" attributeName="stroke-dashoffset" values="78.15;0" dur="0.59s" fill="freeze" begin="1.end" /></path><path d="M28.33,44.67c0.77-0.13,2.24-0.27,2.92-0.35c6.93-0.89,15.74-2.12,19.58-2.39c2.96-0.21,3.86,1.47,3.61,4.04C53.31,57.69,48.5,80,43.33,89.67c-2.79,5.22-5.07,5.25-8,1.76" stroke-dasharray="85.26" stroke-dashoffset="85.26"><animate attributeName="stroke-dashoffset" values="85.26" fill="freeze" begin="654f.click" /><animate id="3" attributeName="stroke-dashoffset" values="85.26;0" dur="0.64s" fill="freeze" begin="2.end" /></path><path d="M39.15,45.12c0.48,1.25,0.55,2.73,0.22,3.74c-2.74,8.27-6.31,22.17-8.43,28.81" stroke-dasharray="33.83" stroke-dashoffset="33.83"><animate attributeName="stroke-dashoffset" values="33.83" fill="freeze" begin="654f.click" /><animate id="4" attributeName="stroke-dashoffset" values="33.83;0" dur="0.34s" fill="freeze" begin="3.end" /></path><path d="M9.63,63.13c2,0.49,4.2,0.41,6.01,0.28c8.81-0.66,23.36-1.91,37.87-2.86c2.45-0.16,5.24-0.18,7.62,0.36" stroke-dasharray="51.67" stroke-dashoffset="51.67"><animate attributeName="stroke-dashoffset" values="51.67" fill="freeze" begin="654f.click" /><animate id="5" attributeName="stroke-dashoffset" values="51.67;0" dur="0.52s" fill="freeze" begin="4.end" /></path></g></g><g><g><path d="M72.11,18.39c0.03,0.69,0.16,1.8-0.06,2.75c-1.61,6.93-5.23,18.68-10.8,27.04" stroke-dasharray="32.02" stroke-dashoffset="32.02"><animate attributeName="stroke-dashoffset" values="32.02" fill="freeze" begin="654f.click" /><animate id="6" attributeName="stroke-dashoffset" values="32.02;0" dur="0.32s" fill="freeze" begin="5.end" /></path><path d="M67.92,39.3c0.96,0.27,2.75,0,3.27-0.04c4.7-0.38,10.68-2.02,18.84-3.85c1.35-0.3,3.1-0.54,4.88-0.29" stroke-dasharray="27.44" stroke-dashoffset="27.44"><animate attributeName="stroke-dashoffset" values="27.44" fill="freeze" begin="654f.click" /><animate id="7" attributeName="stroke-dashoffset" values="27.44;0" dur="0.27s" fill="freeze" begin="6.end" /></path></g><g><g><path d="M83.62,41.72c0.38,1.28,0.59,2.42,0.22,4.32C80.5,63.12,73.5,83,56.91,92" stroke-dasharray="59.41" stroke-dashoffset="59.41"><animate attributeName="stroke-dashoffset" values="59.41" fill="freeze" begin="654f.click" /><animate id="8" attributeName="stroke-dashoffset" values="59.41;0" dur="0.59s" fill="freeze" begin="7.end" /></path></g><path d="M62.97,52.51c3.17,0.67,17.84,23.42,27.04,34.09c1.8,2.09,3.48,3.78,6.48,5.84" stroke-dasharray="52.39" stroke-dashoffset="52.39"><animate attributeName="stroke-dashoffset" values="52.39" fill="freeze" begin="654f.click" /><animate id="9" attributeName="stroke-dashoffset" values="52.39;0" dur="0.52s" fill="freeze" begin="8.end" /></path></g></g></g></g></svg>