<svg xmlns="http://www.w3.org/2000/svg" width="109" height="109" viewBox="0 0 109 109" id="6555"><g fill="none" stroke="#666" stroke-width="6" stroke-linecap="round" stroke-linejoin="round"><g><g><g><path d="M16.75,25.14c1.83,0.41,3.66,0.49,5.5,0.25c7.16-0.55,17.02-1.69,23.75-2.32c1.75-0.29,3.5-0.22,5.25,0.2" /></g><g><path d="M16.75,38.82c0.88,0.74,1.38,1.68,1.49,2.83c0.88,5.34,1.88,11.05,2.74,17.59" /><path d="M19.24,40.64c12.01-1.64,22.64-3.27,27.33-3.65c2.92-0.24,4.54,0.88,4,3.14c-0.56,2.3-1.32,5.84-2.03,9.28c-0.33,1.59-0.65,3.16-0.93,4.58" /><path d="M21.92,57.18c6.87-0.75,15.6-1.53,22.7-1.93c1.77-0.1,3.44-0.17,4.96-0.22" /></g><g><path d="M32.25,11.5c1.12,1.12,1.75,2.88,1.75,4.25c0,4.86,0.07,53.5,0.02,73.75C34.01,93.19,34,95.92,34,97.25" /><path d="M33.25,58.5c-0.81,2.12-1.89,4.43-3.16,6.8C25.31,74.18,18.29,82.75,12,87.25" /><path d="M37.75,63c3.75,2.5,9.12,7.72,12.25,12.5" /></g></g><g><g><path d="M68.24,13.39c0.24,1.69,0.33,3.32-0.23,4.89c-2.17,7.8-6.77,21.31-13.25,30.97" /><path d="M65.1,36.17c1.65,0.33,3.97,0.25,4.58,0.21C76.02,35.86,84,34,87.79,33.42c1.08-0.17,4.25-0.02,4.53,0.08" /></g><g><g><path d="M81.89,39.18c0.55,1.51,0.96,2.6,0.28,5.33c-6.04,24.24-16.29,42.74-36.03,52.24" /></g><path d="M59.61,54.26c5.9,6.69,18.78,27.27,28.59,37.42c1.82,2.17,4,3.86,6.55,5.08" /></g></g></g></g><g fill="none" stroke="#000" stroke-width="3" stroke-linecap="round" stroke-linejoin="round"><path d="M16.75,25.14c1.83,0.41,3.66,0.49,5.5,0.25c7.16-0.55,17.02-1.69,23.75-2.32c1.75-0.29,3.5-0.22,5.25,0.2" stroke-dasharray="34.688" stroke-dashoffset="34.688"><animate attributeName="stroke-dashoffset" values="34.688;34.688;0" dur="0.347s" fill="freeze" begin="0s;6555.click" /></path><path d="M16.75,38.82c0.88,0.74,1.38,1.68,1.49,2.83c0.88,5.34,1.88,11.05,2.74,17.59" stroke-dasharray="21.089" stroke-dashoffset="21.089"><animate attributeName="stroke-dashoffset" values="21.089" fill="freeze" begin="6555.click" /><animate attributeName="stroke-dashoffset" values="21.089;21.089;0" keyTimes="0;0.622;1" dur="0.558s" fill="freeze" begin="0s;6555.click" /></path><path d="M19.24,40.64c12.01-1.64,22.64-3.27,27.33-3.65c2.92-0.24,4.54,0.88,4,3.14c-0.56,2.3-1.32,5.84-2.03,9.28c-0.33,1.59-0.65,3.16-0.93,4.58" stroke-dasharray="47.948" stroke-dashoffset="47.948"><animate attributeName="stroke-dashoffset" values="47.948" fill="freeze" begin="6555.click" /><animate attributeName="stroke-dashoffset" values="47.948;47.948;0" keyTimes="0;0.538;1" dur="1.037s" fill="freeze" begin="0s;6555.click" /></path><path d="M21.92,57.18c6.87-0.75,15.6-1.53,22.7-1.93c1.77-0.1,3.44-0.17,4.96-0.22" stroke-dasharray="27.75" stroke-dashoffset="27.75"><animate attributeName="stroke-dashoffset" values="27.75" fill="freeze" begin="6555.click" /><animate attributeName="stroke-dashoffset" values="27.75;27.75;0" keyTimes="0;0.789;1" dur="1.314s" fill="freeze" begin="0s;6555.click" /></path><path d="M32.25,11.5c1.12,1.12,1.75,2.88,1.75,4.25c0,4.86,0.07,53.5,0.02,73.75C34.01,93.19,34,95.92,34,97.25" stroke-dasharray="86.204" stroke-dashoffset="86.204"><animate attributeName="stroke-dashoffset" values="86.204" fill="freeze" begin="6555.click" /><animate attributeName="stroke-dashoffset" values="86.204;86.204;0" keyTimes="0;0.67;1" dur="1.962s" fill="freeze" begin="0s;6555.click" /></path><path d="M33.25,58.5c-0.81,2.12-1.89,4.43-3.16,6.8C25.31,74.18,18.29,82.75,12,87.25" stroke-dasharray="36.162" stroke-dashoffset="36.162"><animate attributeName="stroke-dashoffset" values="36.162" fill="freeze" begin="6555.click" /><animate attributeName="stroke-dashoffset" values="36.162;36.162;0" keyTimes="0;0.844;1" dur="2.324s" fill="freeze" begin="0s;6555.click" /></path><path d="M37.75,63c3.75,2.5,9.12,7.72,12.25,12.5" stroke-dasharray="17.597" stroke-dashoffset="17.597"><animate attributeName="stroke-dashoffset" values="17.597" fill="freeze" begin="6555.click" /><animate attributeName="stroke-dashoffset" values="17.597;17.597;0" keyTimes="0;0.93;1" dur="2.5s" fill="freeze" begin="0s;6555.click" /></path><path d="M68.24,13.39c0.24,1.69,0.33,3.32-0.23,4.89c-2.17,7.8-6.77,21.31-13.25,30.97" stroke-dasharray="38.759" stroke-dashoffset="38.759"><animate attributeName="stroke-dashoffset" values="38.759" fill="freeze" begin="6555.click" /><animate attributeName="stroke-dashoffset" values="38.759;38.759;0" keyTimes="0;0.866;1" dur="2.888s" fill="freeze" begin="0s;6555.click" /></path><path d="M65.1,36.17c1.65,0.33,3.97,0.25,4.58,0.21C76.02,35.86,84,34,87.79,33.42c1.08-0.17,4.25-0.02,4.53,0.08" stroke-dasharray="27.495" stroke-dashoffset="27.495"><animate attributeName="stroke-dashoffset" values="27.495" fill="freeze" begin="6555.click" /><animate attributeName="stroke-dashoffset" values="27.495;27.495;0" keyTimes="0;0.913;1" dur="3.163s" fill="freeze" begin="0s;6555.click" /></path><path d="M81.89,39.18c0.55,1.51,0.96,2.6,0.28,5.33c-6.04,24.24-16.29,42.74-36.03,52.24" stroke-dasharray="71.161" stroke-dashoffset="71.161"><animate attributeName="stroke-dashoffset" values="71.161" fill="freeze" begin="6555.click" /><animate attributeName="stroke-dashoffset" values="71.161;71.161;0" keyTimes="0;0.855;1" dur="3.698s" fill="freeze" begin="0s;6555.click" /></path><path d="M59.61,54.26c5.9,6.69,18.78,27.27,28.59,37.42c1.82,2.17,4,3.86,6.55,5.08" stroke-dasharray="55.48" stroke-dashoffset="55.48"><animate attributeName="stroke-dashoffset" values="55.48" fill="freeze" begin="6555.click" /><animate attributeName="stroke-dashoffset" values="55.48;55.48;0" keyTimes="0;0.87;1" dur="4.253s" fill="freeze" begin="0s;6555.click" /></path></g></svg>