<svg xmlns="http://www.w3.org/2000/svg" width="109" height="109" viewBox="0 0 109 109" id="6555"><g fill="none" stroke="#666" stroke-width="9" stroke-linecap="round" stroke-linejoin="round"><g><g><g p5:part="1" xmlns:p5="http://kanjivg.tagaini.net"><path d="M16.75,25.14c1.83,0.41,3.66,0.49,5.5,0.25c7.16-0.55,17.02-1.69,23.75-2.32c1.75-0.29,3.5-0.22,5.25,0.2" /></g><g><path d="M16.75,38.82c0.88,0.74,1.38,1.68,1.49,2.83c0.88,5.34,1.88,11.05,2.74,17.59" /><path d="M19.24,40.64c12.01-1.64,22.64-3.27,27.33-3.65c2.92-0.24,4.54,0.88,4,3.14c-0.56,2.3-1.32,5.84-2.03,9.28c-0.33,1.59-0.65,3.16-0.93,4.58" /><path d="M21.92,57.18c6.87-0.75,15.6-1.53,22.7-1.93c1.77-0.1,3.44-0.17,4.96-0.22" /></g><g p5:part="2" xmlns:p5="http://kanjivg.tagaini.net"><path d="M32.25,11.5c1.12,1.12,1.75,2.88,1.75,4.25c0,4.86,0.07,53.5,0.02,73.75C34.01,93.19,34,95.92,34,97.25" /><path d="M33.25,58.5c-0.81,2.12-1.89,4.43-3.16,6.8C25.31,74.18,18.29,82.75,12,87.25" /><path d="M37.75,63c3.75,2.5,9.12,7.72,12.25,12.5" /></g></g><g><g><path d="M68.24,13.39c0.24,1.69,0.33,3.32-0.23,4.89c-2.17,7.8-6.77,21.31-13.25,30.97" /><path d="M65.1,36.17c1.65,0.33,3.97,0.25,4.58,0.21C76.02,35.86,84,34,87.79,33.42c1.08-0.17,4.25-0.02,4.53,0.08" /></g><g><g><path d="M81.89,39.18c0.55,1.51,0.96,2.6,0.28,5.33c-6.04,24.24-16.29,42.74-36.03,52.24" /></g><path d="M59.61,54.26c5.9,6.69,18.78,27.27,28.59,37.42c1.82,2.17,4,3.86,6.55,5.08" /></g></g></g></g><g fill="none" stroke="#000" stroke-width="5" stroke-linecap="round" stroke-linejoin="round"><g><g><g p5:part="1" xmlns:p5="http://kanjivg.tagaini.net"><path d="M16.75,25.14c1.83,0.41,3.66,0.49,5.5,0.25c7.16-0.55,17.02-1.69,23.75-2.32c1.75-0.29,3.5-0.22,5.25,0.2" stroke-dasharray="34.69" stroke-dashoffset="34.69"><animate id="0" attributeName="stroke-dashoffset" values="34.69;0" dur="0.35s" fill="freeze" begin="0s;6555.click" /></path></g><g><path d="M16.75,38.82c0.88,0.74,1.38,1.68,1.49,2.83c0.88,5.34,1.88,11.05,2.74,17.59" stroke-dasharray="21.09" stroke-dashoffset="21.09"><animate attributeName="stroke-dashoffset" values="21.09" fill="freeze" begin="6555.click" /><animate id="1" attributeName="stroke-dashoffset" values="21.09;0" dur="0.21s" fill="freeze" begin="0.end" /></path><path d="M19.24,40.64c12.01-1.64,22.64-3.27,27.33-3.65c2.92-0.24,4.54,0.88,4,3.14c-0.56,2.3-1.32,5.84-2.03,9.28c-0.33,1.59-0.65,3.16-0.93,4.58" stroke-dasharray="47.95" stroke-dashoffset="47.95"><animate attributeName="stroke-dashoffset" values="47.95" fill="freeze" begin="6555.click" /><animate id="2" attributeName="stroke-dashoffset" values="47.95;0" dur="0.48s" fill="freeze" begin="1.end" /></path><path d="M21.92,57.18c6.87-0.75,15.6-1.53,22.7-1.93c1.77-0.1,3.44-0.17,4.96-0.22" stroke-dasharray="27.75" stroke-dashoffset="27.75"><animate attributeName="stroke-dashoffset" values="27.75" fill="freeze" begin="6555.click" /><animate id="3" attributeName="stroke-dashoffset" values="27.75;0" dur="0.28s" fill="freeze" begin="2.end" /></path></g><g p5:part="2" xmlns:p5="http://kanjivg.tagaini.net"><path d="M32.25,11.5c1.12,1.12,1.75,2.88,1.75,4.25c0,4.86,0.07,53.5,0.02,73.75C34.01,93.19,34,95.92,34,97.25" stroke-dasharray="86.2" stroke-dashoffset="86.2"><animate attributeName="stroke-dashoffset" values="86.2" fill="freeze" begin="6555.click" /><animate id="4" attributeName="stroke-dashoffset" values="86.2;0" dur="0.65s" fill="freeze" begin="3.end" /></path><path d="M33.25,58.5c-0.81,2.12-1.89,4.43-3.16,6.8C25.31,74.18,18.29,82.75,12,87.25" stroke-dasharray="36.16" stroke-dashoffset="36.16"><animate attributeName="stroke-dashoffset" values="36.16" fill="freeze" begin="6555.click" /><animate id="5" attributeName="stroke-dashoffset" values="36.16;0" dur="0.36s" fill="freeze" begin="4.end" /></path><path d="M37.75,63c3.75,2.5,9.12,7.72,12.25,12.5" stroke-dasharray="17.6" stroke-dashoffset="17.6"><animate attributeName="stroke-dashoffset" values="17.6" fill="freeze" begin="6555.click" /><animate id="6" attributeName="stroke-dashoffset" values="17.6;0" dur="0.18s" fill="freeze" begin="5.end" /></path></g></g><g><g><path d="M68.24,13.39c0.24,1.69,0.33,3.32-0.23,4.89c-2.17,7.8-6.77,21.31-13.25,30.97" stroke-dasharray="38.76" stroke-dashoffset="38.76"><animate attributeName="stroke-dashoffset" values="38.76" fill="freeze" begin="6555.click" /><animate id="7" attributeName="stroke-dashoffset" values="38.76;0" dur="0.39s" fill="freeze" begin="6.end" /></path><path d="M65.1,36.17c1.65,0.33,3.97,0.25,4.58,0.21C76.02,35.86,84,34,87.79,33.42c1.08-0.17,4.25-0.02,4.53,0.08" stroke-dasharray="27.49" stroke-dashoffset="27.49"><animate attributeName="stroke-dashoffset" values="27.49" fill="freeze" begin="6555.click" /><animate id="8" attributeName="stroke-dashoffset" values="27.49;0" dur="0.27s" fill="freeze" begin="7.end" /></path></g><g><g><path d="M81.89,39.18c0.55,1.51,0.96,2.6,0.28,5.33c-6.04,24.24-16.29,42.74-36.03,52.24" stroke-dasharray="71.16" stroke-dashoffset="71.16"><animate attributeName="stroke-dashoffset" values="71.16" fill="freeze" begin="6555.click" /><animate id="9" attributeName="stroke-dashoffset" values="71.16;0" dur="0.54s" fill="freeze" begin="8.end" /></path></g><path d="M59.61,54.26c5.9,6.69,18.78,27.27,28.59,37.42c1.82,2.17,4,3.86,6.55,5.08" stroke-dasharray="55.48" stroke-dashoffset="55.48"><animate attributeName="stroke-dashoffset" values="55.48" fill="freeze" begin="6555.click" /><animate id="10" attributeName="stroke-dashoffset" values="55.48;0" dur="0.55s" fill="freeze" begin="9.end" /></path></g></g></g></g></svg>