<svg xmlns="http://www.w3.org/2000/svg" viewBox="0 0 109 109" id="6556"><g fill="none" stroke="#666" stroke-width="6" stroke-linecap="round" stroke-linejoin="round"><g><g><g><path d="M18.82,24.04c0.86,0.34,2.45,0.39,3.31,0.34C28.75,24,39.75,23,47.79,22.02c1.43-0.17,2.3,0.16,3.02,0.33" /><path d="M33.03,12c0.11,0.26,1.56,1.34,1.56,2.98c0,10.56-0.32,8.15-0.32,22.12" /><path d="M14.41,38.18c1.34,0.48,3.79,0.45,5.13,0.48c5.21,0.09,23.21-1.91,29.12-2.1c2.23-0.07,3.57,0.23,4.68,0.47" /></g><g><g><g><path d="M32.8,41.75c0.67,0.42,1.78,2.06,1.78,2.9c0,3.1-0.21,4.84-0.09,7.47" /><path d="M14,52.94c0.9,0.27,2.79,0.36,3.62,0.38c7.13,0.17,23.63-2.08,31.46-2.98c1.4-0.16,2.12,0.03,3.17,0.49" /></g><g><path d="M33.29,59.83c4.21,2.42,10.21,4.67,14.89,5.87c0.79,0.2,1.57,1.04,1.44,2.66c-0.35,4.28-8.65,21.77-11.66,25.25c-3.26,3.77-5.44-0.15-6.41-0.65" /><path d="M33.52,55.39c0.3,1,0.24,2.13-0.12,3.25c-2.49,7.77-9.69,23.46-20.87,30.81" /></g></g></g></g><g><g><g><path d="M69.09,12.64c0.04,0.97,0.1,2.54-0.08,3.91c-1.26,9.45-4.26,29.2-14.49,39.93" /><path d="M67.58,35.38c0.03-0.18,1.54,0.52,2.09,0.47c5.67-0.54,12.36-3.46,21.01-4.33c0.97-0.1,1.57-0.02,1.82,0.09" /></g><g><g><path d="M82.45,38.24c0.5,1.44,0.78,2.46,0.25,5.09c-4.77,23.84-15.64,45.15-31.33,53.42" /></g><path d="M60.74,47.87c5.65,10.97,21.64,36.58,31.57,45.39c1.91,1.7,3.13,1.98,4.69,2.16" /></g></g></g></g></g><g fill="none" stroke="#000" stroke-width="3" stroke-linecap="round" stroke-linejoin="round"><path d="M18.82,24.04c0.86,0.34,2.45,0.39,3.31,0.34C28.75,24,39.75,23,47.79,22.02c1.43-0.17,2.3,0.16,3.02,0.33" stroke-dasharray="32.181" stroke-dashoffset="32.181"><animate attributeName="stroke-dashoffset" values="32.181;32.181;0" dur="0.322s" fill="freeze" begin="0s;6556.click" /></path><path d="M33.03,12c0.11,0.26,1.56,1.34,1.56,2.98c0,10.56-0.32,8.15-0.32,22.12" stroke-dasharray="25.576" stroke-dashoffset="25.576"><animate attributeName="stroke-dashoffset" values="25.576" fill="freeze" begin="6556.click" /><animate attributeName="stroke-dashoffset" values="25.576;25.576;0" keyTimes="0;0.557;1" dur="0.578s" fill="freeze" begin="0s;6556.click" /></path><path d="M14.41,38.18c1.34,0.48,3.79,0.45,5.13,0.48c5.21,0.09,23.21-1.91,29.12-2.1c2.23-0.07,3.57,0.23,4.68,0.47" stroke-dasharray="39.092" stroke-dashoffset="39.092"><animate attributeName="stroke-dashoffset" values="39.092" fill="freeze" begin="6556.click" /><animate attributeName="stroke-dashoffset" values="39.092;39.092;0" keyTimes="0;0.596;1" dur="0.969s" fill="freeze" begin="0s;6556.click" /></path><path d="M32.8,41.75c0.67,0.42,1.78,2.06,1.78,2.9c0,3.1-0.21,4.84-0.09,7.47" stroke-dasharray="10.957" stroke-dashoffset="10.957"><animate attributeName="stroke-dashoffset" values="10.957" fill="freeze" begin="6556.click" /><animate attributeName="stroke-dashoffset" values="10.957;10.957;0" keyTimes="0;0.898;1" dur="1.079s" fill="freeze" begin="0s;6556.click" /></path><path d="M14,52.94c0.9,0.27,2.79,0.36,3.62,0.38c7.13,0.17,23.63-2.08,31.46-2.98c1.4-0.16,2.12,0.03,3.17,0.49" stroke-dasharray="38.523" stroke-dashoffset="38.523"><animate attributeName="stroke-dashoffset" values="38.523" fill="freeze" begin="6556.click" /><animate attributeName="stroke-dashoffset" values="38.523;38.523;0" keyTimes="0;0.737;1" dur="1.464s" fill="freeze" begin="0s;6556.click" /></path><path d="M33.29,59.83c4.21,2.42,10.21,4.67,14.89,5.87c0.79,0.2,1.57,1.04,1.44,2.66c-0.35,4.28-8.65,21.77-11.66,25.25c-3.26,3.77-5.44-0.15-6.41-0.65" stroke-dasharray="55.005" stroke-dashoffset="55.005"><animate attributeName="stroke-dashoffset" values="55.005" fill="freeze" begin="6556.click" /><animate attributeName="stroke-dashoffset" values="55.005;55.005;0" keyTimes="0;0.727;1" dur="2.014s" fill="freeze" begin="0s;6556.click" /></path><path d="M33.52,55.39c0.3,1,0.24,2.13-0.12,3.25c-2.49,7.77-9.69,23.46-20.87,30.81" stroke-dasharray="41.135" stroke-dashoffset="41.135"><animate attributeName="stroke-dashoffset" values="41.135" fill="freeze" begin="6556.click" /><animate attributeName="stroke-dashoffset" values="41.135;41.135;0" keyTimes="0;0.831;1" dur="2.425s" fill="freeze" begin="0s;6556.click" /></path><path d="M69.09,12.64c0.04,0.97,0.1,2.54-0.08,3.91c-1.26,9.45-4.26,29.2-14.49,39.93" stroke-dasharray="47.05" stroke-dashoffset="47.05"><animate attributeName="stroke-dashoffset" values="47.05" fill="freeze" begin="6556.click" /><animate attributeName="stroke-dashoffset" values="47.05;47.05;0" keyTimes="0;0.838;1" dur="2.895s" fill="freeze" begin="0s;6556.click" /></path><path d="M67.58,35.38c0.03-0.18,1.54,0.52,2.09,0.47c5.67-0.54,12.36-3.46,21.01-4.33c0.97-0.1,1.57-0.02,1.82,0.09" stroke-dasharray="25.485" stroke-dashoffset="25.485"><animate attributeName="stroke-dashoffset" values="25.485" fill="freeze" begin="6556.click" /><animate attributeName="stroke-dashoffset" values="25.485;25.485;0" keyTimes="0;0.919;1" dur="3.15s" fill="freeze" begin="0s;6556.click" /></path><path d="M82.45,38.24c0.5,1.44,0.78,2.46,0.25,5.09c-4.77,23.84-15.64,45.15-31.33,53.42" stroke-dasharray="68.996" stroke-dashoffset="68.996"><animate attributeName="stroke-dashoffset" values="68.996" fill="freeze" begin="6556.click" /><animate attributeName="stroke-dashoffset" values="68.996;68.996;0" keyTimes="0;0.859;1" dur="3.669s" fill="freeze" begin="0s;6556.click" /></path><path d="M60.74,47.87c5.65,10.97,21.64,36.58,31.57,45.39c1.91,1.7,3.13,1.98,4.69,2.16" stroke-dasharray="60.747" stroke-dashoffset="60.747"><animate attributeName="stroke-dashoffset" values="60.747" fill="freeze" begin="6556.click" /><animate attributeName="stroke-dashoffset" values="60.747;60.747;0" keyTimes="0;0.889;1" dur="4.126s" fill="freeze" begin="0s;6556.click" /></path></g></svg>