<svg xmlns="http://www.w3.org/2000/svg" viewBox="0 0 109 109" id="658e"><g fill="none" stroke="#666" stroke-width="6" stroke-linecap="round" stroke-linejoin="round"><g><g p4:radicalForm xmlns:p4="http://kanjivg.tagaini.net"><g p4:phon="斉1"><g><path d="M52.89,9.5c0.93,0.93,1.5,2.38,1.5,4.3c0,1.83-0.01,4.58-0.01,5.83" /><path d="M18.22,22.39c3.78,0.61,6.4,0.52,9.79,0.25c12.77-0.99,39.96-3.59,54.24-4.37c3.24-0.17,7.1-0.75,10.17,0.52" /></g><g><path d="M67.87,22.63c-0.12,1.5-0.76,2.68-1.92,3.85C54.62,38,37.25,49.62,13.45,56.15" /><path d="M34.25,29.75c7.12,0,29.96,11.62,48.07,18.89c4.05,1.62,7.43,2.86,12.43,3.61" /></g></g><g><g p4:phon="斉2"><path d="M34.18,53.32c0.81,0.81,1.07,2.18,1.07,3.34C35.25,78.51,30,93,22.22,99.71" /><g><g><path d="M43.05,55.8c1.25,0.48,3.49,0.5,4.84,0.42c4.68-0.28,12.54-1.11,17.36-1.74c1.5-0.2,2.65-0.3,4.12,0.03" /><path d="M39.04,67.89c1.94,0.64,4.07,0.64,6.09,0.58c6.85-0.23,17.05-2,23.78-2.37c1.81-0.1,3.15-0.08,4.05,0.1" /></g></g></g><g><g><path d="M54.97,70.58c0.97,0.97,1.44,2.42,1.44,4.13c0,10.91,0.06,14.46,0.06,18.17c0,7.89-3.38,2.83-6.52,0.19" /><path d="M46.03,76.39c0.09,0.81,0.09,1.63-0.23,2.37c-1.92,4.36-5.52,9.37-10.29,13.74" /><path d="M63.88,76.88c2.56,2.14,6.74,8.55,7.38,11.88" /></g></g><g p4:radicalForm p4:phon="斉3"><path d="M77.38,53.28c1.11,1.11,1.5,2.47,1.5,4.3c0,3.24,0.1,22.73,0.05,33.96c-0.01,3.9-0.03,6.78-0.06,7.59" /></g></g></g></g></g><g fill="none" stroke="#000" stroke-width="3" stroke-linecap="round" stroke-linejoin="round"><path d="M52.89,9.5c0.93,0.93,1.5,2.38,1.5,4.3c0,1.83-0.01,4.58-0.01,5.83" stroke-dasharray="10.504" stroke-dashoffset="10.504"><animate attributeName="stroke-dashoffset" values="10.504;10.504;0" dur="0.21s" fill="freeze" begin="0s;658e.click" /></path><path d="M18.22,22.39c3.78,0.61,6.4,0.52,9.79,0.25c12.77-0.99,39.96-3.59,54.24-4.37c3.24-0.17,7.1-0.75,10.17,0.52" stroke-dasharray="74.515" stroke-dashoffset="74.515"><animate attributeName="stroke-dashoffset" values="74.515" fill="freeze" begin="658e.click" /><animate attributeName="stroke-dashoffset" values="74.515;74.515;0" keyTimes="0;0.273;1" dur="0.77s" fill="freeze" begin="0s;658e.click" /></path><path d="M67.87,22.63c-0.12,1.5-0.76,2.68-1.92,3.85C54.62,38,37.25,49.62,13.45,56.15" stroke-dasharray="65.397" stroke-dashoffset="65.397"><animate attributeName="stroke-dashoffset" values="65.397" fill="freeze" begin="658e.click" /><animate attributeName="stroke-dashoffset" values="65.397;65.397;0" keyTimes="0;0.61;1" dur="1.262s" fill="freeze" begin="0s;658e.click" /></path><path d="M34.25,29.75c7.12,0,29.96,11.62,48.07,18.89c4.05,1.62,7.43,2.86,12.43,3.61" stroke-dasharray="64.757" stroke-dashoffset="64.757"><animate attributeName="stroke-dashoffset" values="64.757" fill="freeze" begin="658e.click" /><animate attributeName="stroke-dashoffset" values="64.757;64.757;0" keyTimes="0;0.722;1" dur="1.749s" fill="freeze" begin="0s;658e.click" /></path><path d="M34.18,53.32c0.81,0.81,1.07,2.18,1.07,3.34C35.25,78.51,30,93,22.22,99.71" stroke-dasharray="49.81" stroke-dashoffset="49.81"><animate attributeName="stroke-dashoffset" values="49.81" fill="freeze" begin="658e.click" /><animate attributeName="stroke-dashoffset" values="49.81;49.81;0" keyTimes="0;0.778;1" dur="2.247s" fill="freeze" begin="0s;658e.click" /></path><path d="M43.05,55.8c1.25,0.48,3.49,0.5,4.84,0.42c4.68-0.28,12.54-1.11,17.36-1.74c1.5-0.2,2.65-0.3,4.12,0.03" stroke-dasharray="26.483" stroke-dashoffset="26.483"><animate attributeName="stroke-dashoffset" values="26.483" fill="freeze" begin="658e.click" /><animate attributeName="stroke-dashoffset" values="26.483;26.483;0" keyTimes="0;0.895;1" dur="2.512s" fill="freeze" begin="0s;658e.click" /></path><path d="M39.04,67.89c1.94,0.64,4.07,0.64,6.09,0.58c6.85-0.23,17.05-2,23.78-2.37c1.81-0.1,3.15-0.08,4.05,0.1" stroke-dasharray="34.115" stroke-dashoffset="34.115"><animate attributeName="stroke-dashoffset" values="34.115" fill="freeze" begin="658e.click" /><animate attributeName="stroke-dashoffset" values="34.115;34.115;0" keyTimes="0;0.88;1" dur="2.853s" fill="freeze" begin="0s;658e.click" /></path><path d="M54.97,70.58c0.97,0.97,1.44,2.42,1.44,4.13c0,10.91,0.06,14.46,0.06,18.17c0,7.89-3.38,2.83-6.52,0.19" stroke-dasharray="34.093" stroke-dashoffset="34.093"><animate attributeName="stroke-dashoffset" values="34.093" fill="freeze" begin="658e.click" /><animate attributeName="stroke-dashoffset" values="34.093;34.093;0" keyTimes="0;0.893;1" dur="3.194s" fill="freeze" begin="0s;658e.click" /></path><path d="M46.03,76.39c0.09,0.81,0.09,1.63-0.23,2.37c-1.92,4.36-5.52,9.37-10.29,13.74" stroke-dasharray="19.691" stroke-dashoffset="19.691"><animate attributeName="stroke-dashoffset" values="19.691" fill="freeze" begin="658e.click" /><animate attributeName="stroke-dashoffset" values="19.691;19.691;0" keyTimes="0;0.942;1" dur="3.391s" fill="freeze" begin="0s;658e.click" /></path><path d="M63.88,76.88c2.56,2.14,6.74,8.55,7.38,11.88" stroke-dasharray="14.145" stroke-dashoffset="14.145"><animate attributeName="stroke-dashoffset" values="14.145" fill="freeze" begin="658e.click" /><animate attributeName="stroke-dashoffset" values="14.145;14.145;0" keyTimes="0;0.923;1" dur="3.674s" fill="freeze" begin="0s;658e.click" /></path><path d="M77.38,53.28c1.11,1.11,1.5,2.47,1.5,4.3c0,3.24,0.1,22.73,0.05,33.96c-0.01,3.9-0.03,6.78-0.06,7.59" stroke-dasharray="46.238" stroke-dashoffset="46.238"><animate attributeName="stroke-dashoffset" values="46.238" fill="freeze" begin="658e.click" /><animate attributeName="stroke-dashoffset" values="46.238;46.238;0" keyTimes="0;0.888;1" dur="4.136s" fill="freeze" begin="0s;658e.click" /></path></g></svg>