<svg xmlns="http://www.w3.org/2000/svg" width="109" height="109" viewBox="0 0 109 109" id="6591"><g fill="none" stroke="#666" stroke-width="9" stroke-linecap="round" stroke-linejoin="round"><g><g p4:partial xmlns:p4="http://kanjivg.tagaini.net"><path d="M12.25,27.25c0.56,0.37,3.6,0.45,4.16,0.34c2.63-0.5,13.34-2.09,19.66-2.64c0.86-0.07,2.46-0.26,3.18,0.04" /><path d="M25.57,29.52c0.87,0.88,1.48,2.78,1.48,3.48c0,5.95,0.52,37.62,0.35,41.57" /><path d="M12.5,52.32c0.5,0.36,3.99,0.42,4.5,0.33c2.91-0.48,13.66-2.25,17.69-2.76c0.62-0.08,2.88-0.15,3.81,0.17" /><path d="M13.25,80.75c1.25,1.5,3.18,1.43,4,1C22.5,79,29.5,75.5,37.5,70.75" /></g><g><g><g><path d="M54.06,18c0.59,0.51,1.56,2.48,1.56,3.49c0,4.01-0.02,9.44-0.08,12.32" /><path d="M40.5,35.69c0.67,0.07,2.21,0.4,2.86,0.36c5.48-0.34,16.81-3.26,23.08-3.7c1.11-0.08,1.48-0.09,2.8-0.09" /></g><g><path d="M62.09,36.81c0.35,1.24,0.66,2.12,0.17,4.41C57.8,62.12,46.6,83.76,34.63,92.75" /><path d="M44.21,47.01c7.92,5.9,16.45,19.1,20.54,27.99" /></g></g><g p5:partial xmlns:p5="http://kanjivg.tagaini.net"><path d="M67.5,24.86c0.63,0.45,2.67,0.08,3.31,0.03c4.94-0.39,13.69-1.39,20.5-2.68c0.96-0.18,1.85,0.09,2.65,0.46" /><path d="M79.25,26.56c1.61,2.19,1.61,3.5,1.61,5.25c0,12.25-0.02,33.88-0.02,53.51" /><path d="M67.95,53.54c0.47,0.31,3.5,0.69,3.98,0.63c4.96-0.54,12.76-2.12,18.59-2.66c0.58-0.05,1.86-0.12,2.73,0.14" /><path d="M61.25,87.11c0.42,0.12,2.63,0.06,3.35,0c10.04-0.83,20.55-1.84,31.29-2.13c1.15-0.03,2.54,0.2,3.12,0.38" /></g></g></g></g><g fill="none" stroke="#000" stroke-width="5" stroke-linecap="round" stroke-linejoin="round"><g><g p4:partial xmlns:p4="http://kanjivg.tagaini.net"><path d="M12.25,27.25c0.56,0.37,3.6,0.45,4.16,0.34c2.63-0.5,13.34-2.09,19.66-2.64c0.86-0.07,2.46-0.26,3.18,0.04" stroke-dasharray="27.25" stroke-dashoffset="27.25"><animate id="0" attributeName="stroke-dashoffset" values="27.25;0" dur="0.27s" fill="freeze" begin="0s;6591.click" /></path><path d="M25.57,29.52c0.87,0.88,1.48,2.78,1.48,3.48c0,5.95,0.52,37.62,0.35,41.57" stroke-dasharray="45.41" stroke-dashoffset="45.41"><animate attributeName="stroke-dashoffset" values="45.41" fill="freeze" begin="6591.click" /><animate id="1" attributeName="stroke-dashoffset" values="45.41;0" dur="0.45s" fill="freeze" begin="0.end" /></path><path d="M12.5,52.32c0.5,0.36,3.99,0.42,4.5,0.33c2.91-0.48,13.66-2.25,17.69-2.76c0.62-0.08,2.88-0.15,3.81,0.17" stroke-dasharray="26.28" stroke-dashoffset="26.28"><animate attributeName="stroke-dashoffset" values="26.28" fill="freeze" begin="6591.click" /><animate id="2" attributeName="stroke-dashoffset" values="26.28;0" dur="0.26s" fill="freeze" begin="1.end" /></path><path d="M13.25,80.75c1.25,1.5,3.18,1.43,4,1C22.5,79,29.5,75.5,37.5,70.75" stroke-dasharray="27.47" stroke-dashoffset="27.47"><animate attributeName="stroke-dashoffset" values="27.47" fill="freeze" begin="6591.click" /><animate id="3" attributeName="stroke-dashoffset" values="27.47;0" dur="0.27s" fill="freeze" begin="2.end" /></path></g><g><g><g><path d="M54.06,18c0.59,0.51,1.56,2.48,1.56,3.49c0,4.01-0.02,9.44-0.08,12.32" stroke-dasharray="16.21" stroke-dashoffset="16.21"><animate attributeName="stroke-dashoffset" values="16.21" fill="freeze" begin="6591.click" /><animate id="4" attributeName="stroke-dashoffset" values="16.21;0" dur="0.16s" fill="freeze" begin="3.end" /></path><path d="M40.5,35.69c0.67,0.07,2.21,0.4,2.86,0.36c5.48-0.34,16.81-3.26,23.08-3.7c1.11-0.08,1.48-0.09,2.8-0.09" stroke-dasharray="29.08" stroke-dashoffset="29.08"><animate attributeName="stroke-dashoffset" values="29.08" fill="freeze" begin="6591.click" /><animate id="5" attributeName="stroke-dashoffset" values="29.08;0" dur="0.29s" fill="freeze" begin="4.end" /></path></g><g><path d="M62.09,36.81c0.35,1.24,0.66,2.12,0.17,4.41C57.8,62.12,46.6,83.76,34.63,92.75" stroke-dasharray="63.97" stroke-dashoffset="63.97"><animate attributeName="stroke-dashoffset" values="63.97" fill="freeze" begin="6591.click" /><animate id="6" attributeName="stroke-dashoffset" values="63.97;0" dur="0.48s" fill="freeze" begin="5.end" /></path><path d="M44.21,47.01c7.92,5.9,16.45,19.1,20.54,27.99" stroke-dasharray="35" stroke-dashoffset="35"><animate attributeName="stroke-dashoffset" values="35" fill="freeze" begin="6591.click" /><animate id="7" attributeName="stroke-dashoffset" values="35;0" dur="0.35s" fill="freeze" begin="6.end" /></path></g></g><g p5:partial xmlns:p5="http://kanjivg.tagaini.net"><path d="M67.5,24.86c0.63,0.45,2.67,0.08,3.31,0.03c4.94-0.39,13.69-1.39,20.5-2.68c0.96-0.18,1.85,0.09,2.65,0.46" stroke-dasharray="26.77" stroke-dashoffset="26.77"><animate attributeName="stroke-dashoffset" values="26.77" fill="freeze" begin="6591.click" /><animate id="8" attributeName="stroke-dashoffset" values="26.77;0" dur="0.27s" fill="freeze" begin="7.end" /></path><path d="M79.25,26.56c1.61,2.19,1.61,3.5,1.61,5.25c0,12.25-0.02,33.88-0.02,53.51" stroke-dasharray="59.13" stroke-dashoffset="59.13"><animate attributeName="stroke-dashoffset" values="59.13" fill="freeze" begin="6591.click" /><animate id="9" attributeName="stroke-dashoffset" values="59.13;0" dur="0.59s" fill="freeze" begin="8.end" /></path><path d="M67.95,53.54c0.47,0.31,3.5,0.69,3.98,0.63c4.96-0.54,12.76-2.12,18.59-2.66c0.58-0.05,1.86-0.12,2.73,0.14" stroke-dasharray="25.58" stroke-dashoffset="25.58"><animate attributeName="stroke-dashoffset" values="25.58" fill="freeze" begin="6591.click" /><animate id="10" attributeName="stroke-dashoffset" values="25.58;0" dur="0.26s" fill="freeze" begin="9.end" /></path><path d="M61.25,87.11c0.42,0.12,2.63,0.06,3.35,0c10.04-0.83,20.55-1.84,31.29-2.13c1.15-0.03,2.54,0.2,3.12,0.38" stroke-dasharray="37.88" stroke-dashoffset="37.88"><animate attributeName="stroke-dashoffset" values="37.88" fill="freeze" begin="6591.click" /><animate id="11" attributeName="stroke-dashoffset" values="37.88;0" dur="0.38s" fill="freeze" begin="10.end" /></path></g></g></g></g></svg>