<svg xmlns="http://www.w3.org/2000/svg" width="109" height="109" viewBox="0 0 109 109" id="659f"><g fill="none" stroke="#666" stroke-width="9" stroke-linecap="round" stroke-linejoin="round"><g><g><g><g p6:part="1" xmlns:p6="http://kanjivg.tagaini.net"><g><path d="M13.28,27.91c0.89,0.43,2.53,0.54,3.42,0.43c6.57-0.79,25.8-2.59,37.18-3.54c1.48-0.12,2.38,0.21,3.12,0.42" /><path d="M24.75,15.75c0.78,0.48,1.24,2.16,1.4,3.12c0.16,0.96,0.15,39.18,0.02,44.13" /></g><path d="M44.31,12.53c0.8,0.5,1.28,2.23,1.44,3.22c0.16,0.99,0.22,40.01,0.09,44.96" /></g><path d="M26.69,38.87c2.5-0.4,16.88-1.88,18.64-1.88" /><g p6:part="2" xmlns:p6="http://kanjivg.tagaini.net"><path d="M26.69,50.05c3.82-0.2,15.47-1.39,19-1.58" /></g></g><g><g p6:part="1" xmlns:p6="http://kanjivg.tagaini.net"><path d="M10.75,64.3c1.05,0.44,2.99,0.51,4.04,0.44c10.97-0.73,28.55-4.03,39.27-4.79c1.75-0.12,2.81,0.21,3.69,0.43" /></g><g><g><g><path d="M32.5,66.25c0.26,0.29,0.57,1.03,0.51,1.61c-0.52,4.72-4.12,12.62-8.25,15.39" /></g><g><path d="M40.71,63.78c0.57,0.88,1.05,1.91,1.05,3.26c0,1.95-0.13,1.62-0.13,5.06c0,6.94,1.71,7.14,6.63,7.14c4.24,0,5.52-0.79,6.24-1.62" /></g></g></g><g p6:part="2" xmlns:p6="http://kanjivg.tagaini.net"><path d="M19.06,67.64c0.82,1.26,1.51,2.74,1.51,4.68c0,2.8-0.08,9.02-0.08,13.18c0,8.42,2.68,8.5,15.85,8.5c11.34,0,14.78-0.76,16.7-1.77" /></g></g></g><g><g><path d="M64.25,27.5C67.34,29,72.23,33.67,73,36" /></g><g><path d="M60.25,44.25c3.26,1.41,8.43,5.8,9.25,8" /></g><path d="M56.75,66.25c0.65,0.25,2.4,0.93,4.13,0.75c7.12-0.75,25.62-4,35.85-4c1.74,0,2.18-0.25,3.26,0" /><path d="M79.37,12.25c1.09,0.5,1.74,2.25,1.96,3.25c0.22,1,0,75.25-0.22,81.5" /></g></g></g><g fill="none" stroke="#000" stroke-width="5" stroke-linecap="round" stroke-linejoin="round"><g><g><g><g p6:part="1" xmlns:p6="http://kanjivg.tagaini.net"><g><path d="M13.28,27.91c0.89,0.43,2.53,0.54,3.42,0.43c6.57-0.79,25.8-2.59,37.18-3.54c1.48-0.12,2.38,0.21,3.12,0.42" stroke-dasharray="44" stroke-dashoffset="44"><animate id="0" attributeName="stroke-dashoffset" values="44;0" dur="0.44s" fill="freeze" begin="0s;659f.click" /></path><path d="M24.75,15.75c0.78,0.48,1.24,2.16,1.4,3.12c0.16,0.96,0.15,39.18,0.02,44.13" stroke-dasharray="47.63" stroke-dashoffset="47.63"><animate attributeName="stroke-dashoffset" values="47.63" fill="freeze" begin="659f.click" /><animate id="1" attributeName="stroke-dashoffset" values="47.63;0" dur="0.48s" fill="freeze" begin="0.end" /></path></g><path d="M44.31,12.53c0.8,0.5,1.28,2.23,1.44,3.22c0.16,0.99,0.22,40.01,0.09,44.96" stroke-dasharray="48.57" stroke-dashoffset="48.57"><animate attributeName="stroke-dashoffset" values="48.57" fill="freeze" begin="659f.click" /><animate id="2" attributeName="stroke-dashoffset" values="48.57;0" dur="0.49s" fill="freeze" begin="1.end" /></path></g><path d="M26.69,38.87c2.5-0.4,16.88-1.88,18.64-1.88" stroke-dasharray="18.74" stroke-dashoffset="18.74"><animate attributeName="stroke-dashoffset" values="18.74" fill="freeze" begin="659f.click" /><animate id="3" attributeName="stroke-dashoffset" values="18.74;0" dur="0.19s" fill="freeze" begin="2.end" /></path><g p6:part="2" xmlns:p6="http://kanjivg.tagaini.net"><path d="M26.69,50.05c3.82-0.2,15.47-1.39,19-1.58" stroke-dasharray="19.07" stroke-dashoffset="19.07"><animate attributeName="stroke-dashoffset" values="19.07" fill="freeze" begin="659f.click" /><animate id="4" attributeName="stroke-dashoffset" values="19.07;0" dur="0.19s" fill="freeze" begin="3.end" /></path></g></g><g><g p6:part="1" xmlns:p6="http://kanjivg.tagaini.net"><path d="M10.75,64.3c1.05,0.44,2.99,0.51,4.04,0.44c10.97-0.73,28.55-4.03,39.27-4.79c1.75-0.12,2.81,0.21,3.69,0.43" stroke-dasharray="47.4" stroke-dashoffset="47.4"><animate attributeName="stroke-dashoffset" values="47.4" fill="freeze" begin="659f.click" /><animate id="5" attributeName="stroke-dashoffset" values="47.4;0" dur="0.47s" fill="freeze" begin="4.end" /></path></g><g><g><g><path d="M32.5,66.25c0.26,0.29,0.57,1.03,0.51,1.61c-0.52,4.72-4.12,12.62-8.25,15.39" stroke-dasharray="19.59" stroke-dashoffset="19.59"><animate attributeName="stroke-dashoffset" values="19.59" fill="freeze" begin="659f.click" /><animate id="6" attributeName="stroke-dashoffset" values="19.59;0" dur="0.2s" fill="freeze" begin="5.end" /></path></g><g><path d="M40.71,63.78c0.57,0.88,1.05,1.91,1.05,3.26c0,1.95-0.13,1.62-0.13,5.06c0,6.94,1.71,7.14,6.63,7.14c4.24,0,5.52-0.79,6.24-1.62" stroke-dasharray="27.05" stroke-dashoffset="27.05"><animate attributeName="stroke-dashoffset" values="27.05" fill="freeze" begin="659f.click" /><animate id="7" attributeName="stroke-dashoffset" values="27.05;0" dur="0.27s" fill="freeze" begin="6.end" /></path></g></g></g><g p6:part="2" xmlns:p6="http://kanjivg.tagaini.net"><path d="M19.06,67.64c0.82,1.26,1.51,2.74,1.51,4.68c0,2.8-0.08,9.02-0.08,13.18c0,8.42,2.68,8.5,15.85,8.5c11.34,0,14.78-0.76,16.7-1.77" stroke-dasharray="56.57" stroke-dashoffset="56.57"><animate attributeName="stroke-dashoffset" values="56.57" fill="freeze" begin="659f.click" /><animate id="8" attributeName="stroke-dashoffset" values="56.57;0" dur="0.57s" fill="freeze" begin="7.end" /></path></g></g></g><g><g><path d="M64.25,27.5C67.34,29,72.23,33.67,73,36" stroke-dasharray="12.38" stroke-dashoffset="12.38"><animate attributeName="stroke-dashoffset" values="12.38" fill="freeze" begin="659f.click" /><animate id="9" attributeName="stroke-dashoffset" values="12.38;0" dur="0.12s" fill="freeze" begin="8.end" /></path></g><g><path d="M60.25,44.25c3.26,1.41,8.43,5.8,9.25,8" stroke-dasharray="12.41" stroke-dashoffset="12.41"><animate attributeName="stroke-dashoffset" values="12.41" fill="freeze" begin="659f.click" /><animate id="10" attributeName="stroke-dashoffset" values="12.41;0" dur="0.12s" fill="freeze" begin="9.end" /></path></g><path d="M56.75,66.25c0.65,0.25,2.4,0.93,4.13,0.75c7.12-0.75,25.62-4,35.85-4c1.74,0,2.18-0.25,3.26,0" stroke-dasharray="43.6" stroke-dashoffset="43.6"><animate attributeName="stroke-dashoffset" values="43.6" fill="freeze" begin="659f.click" /><animate id="11" attributeName="stroke-dashoffset" values="43.6;0" dur="0.44s" fill="freeze" begin="10.end" /></path><path d="M79.37,12.25c1.09,0.5,1.74,2.25,1.96,3.25c0.22,1,0,75.25-0.22,81.5" stroke-dasharray="85.41" stroke-dashoffset="85.41"><animate attributeName="stroke-dashoffset" values="85.41" fill="freeze" begin="659f.click" /><animate id="12" attributeName="stroke-dashoffset" values="85.41;0" dur="0.64s" fill="freeze" begin="11.end" /></path></g></g></g></svg>