<svg xmlns="http://www.w3.org/2000/svg" width="109" height="109" viewBox="0 0 109 109" id="65cf"><g fill="none" stroke="#666" stroke-width="9" stroke-linecap="round" stroke-linejoin="round"><g><g><g><path d="M29.36,16.5c1.13,1.13,1.86,2.38,1.86,3.91c0,6.09,0.07,7.96,0.07,12.15" /><path d="M12.5,35.36c1.59,0.18,3.03,0.35,4.62,0.19C23.39,34.9,35.25,33,41.5,31.77c1.73-0.34,3.62-0.52,5.5-0.37" /></g><g><path d="M30.62,47.05c2.38,0.33,6.21,0.49,8.68,0.57c1.95,0.06,3.31,1.74,2.84,4.36C40.75,59.75,33.5,81.75,29,88.25c-2.66,3.84-3.18,3.03-6.01,0.01" /><path d="M29.3,36.75c0.58,1,0.67,2.16,0.39,3.37c-2.94,13-7.94,27.5-18.12,39.88" /></g></g><g><path d="M59.52,15.39c0.23,0.98,0.34,1.7,0.19,2.5c-1.09,5.6-4.84,13.98-10.65,21.57" /><path d="M58.92,29.89c2.08,0.11,3.64-0.14,4.91-0.31c4.29-0.58,12.42-1.83,17.66-2.79c2.1-0.39,3.51-0.41,5.01-0.29" /><g><path d="M60.09,39.25c0.04,0.48,0.08,1.23-0.07,1.91c-0.87,4.02-4.89,11.22-11.27,17.59" /><g><path d="M58.32,49.51c0.92,0.3,2.62,0.16,3.53,0.05c5.52-0.69,11.9-1.81,17.48-2.88c1.5-0.29,3.54-0.43,4.99-0.2" /><g><path d="M46.8,68.16c2.45,0.59,5.16,0.45,7.48,0.1c10.09-1.51,23.34-3.51,32.46-4.03c2.32-0.13,4.56,0.01,6.85,0.45" /><path d="M67.34,51.7c0.66,0.8,0.88,1.77,0.86,3.04c-0.32,20.63-9.82,33.51-25.45,39.93" /><path d="M67.62,68.93c4.82,3.08,15.34,15.17,21.81,20.91c1.64,1.46,3.58,2.78,5.83,3.68" /></g></g></g></g></g></g><g fill="none" stroke="#000" stroke-width="5" stroke-linecap="round" stroke-linejoin="round"><g><g><g><path d="M29.36,16.5c1.13,1.13,1.86,2.38,1.86,3.91c0,6.09,0.07,7.96,0.07,12.15" stroke-dasharray="16.6" stroke-dashoffset="16.6"><animate id="0" attributeName="stroke-dashoffset" values="16.6;0" dur="0.17s" fill="freeze" begin="0s;65cf.click" /></path><path d="M12.5,35.36c1.59,0.18,3.03,0.35,4.62,0.19C23.39,34.9,35.25,33,41.5,31.77c1.73-0.34,3.62-0.52,5.5-0.37" stroke-dasharray="34.84" stroke-dashoffset="34.84"><animate attributeName="stroke-dashoffset" values="34.84" fill="freeze" begin="65cf.click" /><animate id="1" attributeName="stroke-dashoffset" values="34.84;0" dur="0.35s" fill="freeze" begin="0.end" /></path></g><g><path d="M30.62,47.05c2.38,0.33,6.21,0.49,8.68,0.57c1.95,0.06,3.31,1.74,2.84,4.36C40.75,59.75,33.5,81.75,29,88.25c-2.66,3.84-3.18,3.03-6.01,0.01" stroke-dasharray="61.54" stroke-dashoffset="61.54"><animate attributeName="stroke-dashoffset" values="61.54" fill="freeze" begin="65cf.click" /><animate id="2" attributeName="stroke-dashoffset" values="61.54;0" dur="0.46s" fill="freeze" begin="1.end" /></path><path d="M29.3,36.75c0.58,1,0.67,2.16,0.39,3.37c-2.94,13-7.94,27.5-18.12,39.88" stroke-dasharray="47.69" stroke-dashoffset="47.69"><animate attributeName="stroke-dashoffset" values="47.69" fill="freeze" begin="65cf.click" /><animate id="3" attributeName="stroke-dashoffset" values="47.69;0" dur="0.48s" fill="freeze" begin="2.end" /></path></g></g><g><path d="M59.52,15.39c0.23,0.98,0.34,1.7,0.19,2.5c-1.09,5.6-4.84,13.98-10.65,21.57" stroke-dasharray="26.77" stroke-dashoffset="26.77"><animate attributeName="stroke-dashoffset" values="26.77" fill="freeze" begin="65cf.click" /><animate id="4" attributeName="stroke-dashoffset" values="26.77;0" dur="0.27s" fill="freeze" begin="3.end" /></path><path d="M58.92,29.89c2.08,0.11,3.64-0.14,4.91-0.31c4.29-0.58,12.42-1.83,17.66-2.79c2.1-0.39,3.51-0.41,5.01-0.29" stroke-dasharray="27.84" stroke-dashoffset="27.84"><animate attributeName="stroke-dashoffset" values="27.84" fill="freeze" begin="65cf.click" /><animate id="5" attributeName="stroke-dashoffset" values="27.84;0" dur="0.28s" fill="freeze" begin="4.end" /></path><g><path d="M60.09,39.25c0.04,0.48,0.08,1.23-0.07,1.91c-0.87,4.02-4.89,11.22-11.27,17.59" stroke-dasharray="23.03" stroke-dashoffset="23.03"><animate attributeName="stroke-dashoffset" values="23.03" fill="freeze" begin="65cf.click" /><animate id="6" attributeName="stroke-dashoffset" values="23.03;0" dur="0.23s" fill="freeze" begin="5.end" /></path><g><path d="M58.32,49.51c0.92,0.3,2.62,0.16,3.53,0.05c5.52-0.69,11.9-1.81,17.48-2.88c1.5-0.29,3.54-0.43,4.99-0.2" stroke-dasharray="26.29" stroke-dashoffset="26.29"><animate attributeName="stroke-dashoffset" values="26.29" fill="freeze" begin="65cf.click" /><animate id="7" attributeName="stroke-dashoffset" values="26.29;0" dur="0.26s" fill="freeze" begin="6.end" /></path><g><path d="M46.8,68.16c2.45,0.59,5.16,0.45,7.48,0.1c10.09-1.51,23.34-3.51,32.46-4.03c2.32-0.13,4.56,0.01,6.85,0.45" stroke-dasharray="47.13" stroke-dashoffset="47.13"><animate attributeName="stroke-dashoffset" values="47.13" fill="freeze" begin="65cf.click" /><animate id="8" attributeName="stroke-dashoffset" values="47.13;0" dur="0.47s" fill="freeze" begin="7.end" /></path><path d="M67.34,51.7c0.66,0.8,0.88,1.77,0.86,3.04c-0.32,20.63-9.82,33.51-25.45,39.93" stroke-dasharray="53.76" stroke-dashoffset="53.76"><animate attributeName="stroke-dashoffset" values="53.76" fill="freeze" begin="65cf.click" /><animate id="9" attributeName="stroke-dashoffset" values="53.76;0" dur="0.54s" fill="freeze" begin="8.end" /></path><path d="M67.62,68.93c4.82,3.08,15.34,15.17,21.81,20.91c1.64,1.46,3.58,2.78,5.83,3.68" stroke-dasharray="37.17" stroke-dashoffset="37.17"><animate attributeName="stroke-dashoffset" values="37.17" fill="freeze" begin="65cf.click" /><animate id="10" attributeName="stroke-dashoffset" values="37.17;0" dur="0.37s" fill="freeze" begin="9.end" /></path></g></g></g></g></g></g></svg>