<svg xmlns="http://www.w3.org/2000/svg" width="109" height="109" viewBox="0 0 109 109" id="65d7"><g fill="none" stroke="#666" stroke-width="9" stroke-linecap="round" stroke-linejoin="round"><g><g><g><path d="M27.61,16c1.13,1.13,1.48,2.5,1.48,4.16c0,4.45-0.15,7.21-0.15,11.4" /><path d="M12.5,33.97c1.76,0.11,3.25,0.16,5.02,0c6.61-0.59,15.36-1.97,21.63-3.27c1.64-0.34,3.35-0.2,5.1,0.02" /></g><g><path d="M29.4,44.25c3.04,0.77,5.97,1.89,8.83,3.16c2.48,1.1,3.42,3.83,2.77,7.09c-1.23,6.16-5.24,21.03-10.8,28.74c-4.7,6.51-6.95,5.26-9.67,1.02" /><path d="M29.3,35.75c0.05,0.96,0.2,2.5-0.11,3.85c-2.44,10.9-7.44,25.65-18.44,36.9" /></g></g><g><path d="M57.77,14.64c0.03,0.53,0.06,1.37-0.06,2.14c-0.67,4.15-5.53,13.37-10.58,19.45" /><path d="M57.25,27c1.7,0.12,3.34,0.08,5.03-0.13c7.36-0.92,15.41-2.44,20.99-3.22c1.92-0.27,3.38-0.34,5.23,0.11" /><g p5:phon="其" xmlns:p5="http://kanjivg.tagaini.net"><g><g><g p5:part="1"><g><path d="M48.71,42.71c2.42,0.42,4.84,0.22,7.04-0.09c7.77-1.1,23.98-3.49,32.5-4.04c2.02-0.13,4.11-0.29,6.11,0.13" /><path d="M58.68,32.52c0.84,0.84,1.46,2.18,1.48,2.95c0.1,4.03-0.5,32.51-0.66,37.22" /></g><path d="M79.54,30.75c0.79,0.79,1.23,2.18,1.23,2.95c0,2.67-1,32.52-1.16,37.23" /></g><path d="M61.09,51.95c3.02-0.19,15.16-1.64,17.99-1.82" /><g p5:part="2"><path d="M60.78,62.51c4.34-0.38,13.9-1.7,17.86-2.07" /></g></g><path d="M43.49,74.6c2.76,0.52,5.66,0.28,8.26-0.01c8.74-0.96,27.28-2.81,38.75-3.75c2.58-0.21,4.96-0.42,7.5,0.12" /></g><g><path d="M60.73,79.77c0.11,0.66,0,1.26-0.35,1.79c-1.61,2.87-7.66,8.27-15.76,11.65" /><path d="M78.28,80.41c5.07,2.67,13.1,10.97,14.37,15.11" /></g></g></g></g></g><g fill="none" stroke="#000" stroke-width="5" stroke-linecap="round" stroke-linejoin="round"><g><g><g><path d="M27.61,16c1.13,1.13,1.48,2.5,1.48,4.16c0,4.45-0.15,7.21-0.15,11.4" stroke-dasharray="15.94" stroke-dashoffset="15.94"><animate id="0" attributeName="stroke-dashoffset" values="15.94;0" dur="0.16s" fill="freeze" begin="0s;65d7.click" /></path><path d="M12.5,33.97c1.76,0.11,3.25,0.16,5.02,0c6.61-0.59,15.36-1.97,21.63-3.27c1.64-0.34,3.35-0.2,5.1,0.02" stroke-dasharray="32.04" stroke-dashoffset="32.04"><animate attributeName="stroke-dashoffset" values="32.04" fill="freeze" begin="65d7.click" /><animate id="1" attributeName="stroke-dashoffset" values="32.04;0" dur="0.32s" fill="freeze" begin="0.end" /></path></g><g><path d="M29.4,44.25c3.04,0.77,5.97,1.89,8.83,3.16c2.48,1.1,3.42,3.83,2.77,7.09c-1.23,6.16-5.24,21.03-10.8,28.74c-4.7,6.51-6.95,5.26-9.67,1.02" stroke-dasharray="61.57" stroke-dashoffset="61.57"><animate attributeName="stroke-dashoffset" values="61.57" fill="freeze" begin="65d7.click" /><animate id="2" attributeName="stroke-dashoffset" values="61.57;0" dur="0.46s" fill="freeze" begin="1.end" /></path><path d="M29.3,35.75c0.05,0.96,0.2,2.5-0.11,3.85c-2.44,10.9-7.44,25.65-18.44,36.9" stroke-dasharray="45.65" stroke-dashoffset="45.65"><animate attributeName="stroke-dashoffset" values="45.65" fill="freeze" begin="65d7.click" /><animate id="3" attributeName="stroke-dashoffset" values="45.65;0" dur="0.46s" fill="freeze" begin="2.end" /></path></g></g><g><path d="M57.77,14.64c0.03,0.53,0.06,1.37-0.06,2.14c-0.67,4.15-5.53,13.37-10.58,19.45" stroke-dasharray="24.45" stroke-dashoffset="24.45"><animate attributeName="stroke-dashoffset" values="24.45" fill="freeze" begin="65d7.click" /><animate id="4" attributeName="stroke-dashoffset" values="24.45;0" dur="0.24s" fill="freeze" begin="3.end" /></path><path d="M57.25,27c1.7,0.12,3.34,0.08,5.03-0.13c7.36-0.92,15.41-2.44,20.99-3.22c1.92-0.27,3.38-0.34,5.23,0.11" stroke-dasharray="31.54" stroke-dashoffset="31.54"><animate attributeName="stroke-dashoffset" values="31.54" fill="freeze" begin="65d7.click" /><animate id="5" attributeName="stroke-dashoffset" values="31.54;0" dur="0.32s" fill="freeze" begin="4.end" /></path><g p5:phon="其" xmlns:p5="http://kanjivg.tagaini.net"><g><g><g p5:part="1"><g><path d="M48.71,42.71c2.42,0.42,4.84,0.22,7.04-0.09c7.77-1.1,23.98-3.49,32.5-4.04c2.02-0.13,4.11-0.29,6.11,0.13" stroke-dasharray="45.96" stroke-dashoffset="45.96"><animate attributeName="stroke-dashoffset" values="45.96" fill="freeze" begin="65d7.click" /><animate id="6" attributeName="stroke-dashoffset" values="45.96;0" dur="0.46s" fill="freeze" begin="5.end" /></path><path d="M58.68,32.52c0.84,0.84,1.46,2.18,1.48,2.95c0.1,4.03-0.5,32.51-0.66,37.22" stroke-dasharray="40.59" stroke-dashoffset="40.59"><animate attributeName="stroke-dashoffset" values="40.59" fill="freeze" begin="65d7.click" /><animate id="7" attributeName="stroke-dashoffset" values="40.59;0" dur="0.41s" fill="freeze" begin="6.end" /></path></g><path d="M79.54,30.75c0.79,0.79,1.23,2.18,1.23,2.95c0,2.67-1,32.52-1.16,37.23" stroke-dasharray="40.51" stroke-dashoffset="40.51"><animate attributeName="stroke-dashoffset" values="40.51" fill="freeze" begin="65d7.click" /><animate id="8" attributeName="stroke-dashoffset" values="40.51;0" dur="0.41s" fill="freeze" begin="7.end" /></path></g><path d="M61.09,51.95c3.02-0.19,15.16-1.64,17.99-1.82" stroke-dasharray="18.08" stroke-dashoffset="18.08"><animate attributeName="stroke-dashoffset" values="18.08" fill="freeze" begin="65d7.click" /><animate id="9" attributeName="stroke-dashoffset" values="18.08;0" dur="0.18s" fill="freeze" begin="8.end" /></path><g p5:part="2"><path d="M60.78,62.51c4.34-0.38,13.9-1.7,17.86-2.07" stroke-dasharray="17.98" stroke-dashoffset="17.98"><animate attributeName="stroke-dashoffset" values="17.98" fill="freeze" begin="65d7.click" /><animate id="10" attributeName="stroke-dashoffset" values="17.98;0" dur="0.18s" fill="freeze" begin="9.end" /></path></g></g><path d="M43.49,74.6c2.76,0.52,5.66,0.28,8.26-0.01c8.74-0.96,27.28-2.81,38.75-3.75c2.58-0.21,4.96-0.42,7.5,0.12" stroke-dasharray="54.75" stroke-dashoffset="54.75"><animate attributeName="stroke-dashoffset" values="54.75" fill="freeze" begin="65d7.click" /><animate id="11" attributeName="stroke-dashoffset" values="54.75;0" dur="0.55s" fill="freeze" begin="10.end" /></path></g><g><path d="M60.73,79.77c0.11,0.66,0,1.26-0.35,1.79c-1.61,2.87-7.66,8.27-15.76,11.65" stroke-dasharray="21.72" stroke-dashoffset="21.72"><animate attributeName="stroke-dashoffset" values="21.72" fill="freeze" begin="65d7.click" /><animate id="12" attributeName="stroke-dashoffset" values="21.72;0" dur="0.22s" fill="freeze" begin="11.end" /></path><path d="M78.28,80.41c5.07,2.67,13.1,10.97,14.37,15.11" stroke-dasharray="21.15" stroke-dashoffset="21.15"><animate attributeName="stroke-dashoffset" values="21.15" fill="freeze" begin="65d7.click" /><animate id="13" attributeName="stroke-dashoffset" values="21.15;0" dur="0.21s" fill="freeze" begin="12.end" /></path></g></g></g></g></g></svg>