<svg xmlns="http://www.w3.org/2000/svg" width="109" height="109" viewBox="0 0 109 109" id="65e0"><g fill="none" stroke="#666" stroke-width="9" stroke-linecap="round" stroke-linejoin="round"><g><g><path d="M26.75,18.9c1.44,0.36,4.1,0.49,5.54,0.36c7.54-0.67,37.51-3.18,48.15-3.51c2.41-0.07,3.85,0.17,5.06,0.36" /><path d="M15.82,47.38c2.03,0.37,3.23,0.94,6.77,0.74c15.07-0.87,53.86-4.18,68.39-4.43c2.12-0.04,3.44,0.31,5.1,0.69" /><g><g><g><path d="M53.88,20.68c0.62,1.05,0.9,3.05,0.77,5.62c-1.16,23.43-8.2,56.06-41.9,69.21" /></g><g><path d="M55.49,52.87c0.74,1.19,1.33,2.59,1.38,4.43c0.2,8.19-0.07,21.14-0.07,26.7c0,10.75,3.46,12.53,18.78,12.53c12.93,0,18.93-1.78,18.93-12.12" /></g></g></g></g></g></g><g fill="none" stroke="#000" stroke-width="5" stroke-linecap="round" stroke-linejoin="round"><g><g><path d="M26.75,18.9c1.44,0.36,4.1,0.49,5.54,0.36c7.54-0.67,37.51-3.18,48.15-3.51c2.41-0.07,3.85,0.17,5.06,0.36" stroke-dasharray="58.934" stroke-dashoffset="58.934"><animate attributeName="stroke-dashoffset" values="58.934;58.934;0" dur="0.589s" fill="freeze" begin="0s;65e0.click" /></path><path d="M15.82,47.38c2.03,0.37,3.23,0.94,6.77,0.74c15.07-0.87,53.86-4.18,68.39-4.43c2.12-0.04,3.44,0.31,5.1,0.69" stroke-dasharray="80.544" stroke-dashoffset="80.544"><animate attributeName="stroke-dashoffset" values="80.544" fill="freeze" begin="65e0.click" /><animate attributeName="stroke-dashoffset" values="80.544;80.544;0" keyTimes="0;0.493;1" dur="1.195s" fill="freeze" begin="0s;65e0.click" /></path><g><g><g><path d="M53.88,20.68c0.62,1.05,0.9,3.05,0.77,5.62c-1.16,23.43-8.2,56.06-41.9,69.21" stroke-dasharray="91.801" stroke-dashoffset="91.801"><animate attributeName="stroke-dashoffset" values="91.801" fill="freeze" begin="65e0.click" /><animate attributeName="stroke-dashoffset" values="91.801;91.801;0" keyTimes="0;0.634;1" dur="1.885s" fill="freeze" begin="0s;65e0.click" /></path></g><g><path d="M55.49,52.87c0.74,1.19,1.33,2.59,1.38,4.43c0.2,8.19-0.07,21.14-0.07,26.7c0,10.75,3.46,12.53,18.78,12.53c12.93,0,18.93-1.78,18.93-12.12" stroke-dasharray="84.478" stroke-dashoffset="84.478"><animate attributeName="stroke-dashoffset" values="84.478" fill="freeze" begin="65e0.click" /><animate attributeName="stroke-dashoffset" values="84.478;84.478;0" keyTimes="0;0.748;1" dur="2.52s" fill="freeze" begin="0s;65e0.click" /></path></g></g></g></g></g></g></svg>