<svg xmlns="http://www.w3.org/2000/svg" width="109" height="109" viewBox="0 0 109 109" id="65e2"><g fill="none" stroke="#666" stroke-width="9" stroke-linecap="round" stroke-linejoin="round"><g><g><path d="M16.12,21.51c1.63,0.74,3.45,0.48,5.41,0.13c4.25-0.76,11.31-2.09,14.36-2.58c3.56-0.57,4.4,0.53,4.29,4.07c-0.2,6.16-1.11,16.87-1.52,23.64c-0.16,2.63-0.32,4.71-0.46,5.76" /><path d="M18.46,37.28C24,36.5,32,34.75,38.49,34.12" /><path d="M18.62,52.6c5.51-0.85,12.88-2.1,18.71-2.72" /><path d="M16.87,22.26c0.69,0.69,0.78,1.55,0.78,2.49c0,3.25,0.1,54.41,0.1,59.12c0,3.12,1.21,3.36,3.25,1.75c1.72-1.36,15.42-13.18,20-15.88" /><path d="M35,62.25c3.5,2.5,8.75,9.25,10.25,15" /></g><g p4:phon="旡" xmlns:p4="http://kanjivg.tagaini.net"><path d="M50.75,20.75c2.38,0.5,4.88,0.48,7,0.22c5.8-0.7,15.26-1.98,21.62-2.44c1.92-0.14,3.74-0.18,5.63,0.23" /><path d="M55.31,23.13c0.56,0.99,0.73,1.87,0.51,3.5c-0.95,7.12-1.32,10.12-3,19" /><path d="M45.57,47c2.31,0.27,4.37,0.28,6.67,0.06c8.87-0.86,22.97-2.31,32.88-2.49c2.08-0.04,4.13-0.07,6.19,0.21" /><g><g><g><path d="M72.41,23.75c0.49,0.95,1.02,2.8,0.61,5.09C69.5,48.75,62.25,75.75,40,91.5" /></g><g><path d="M69.74,56.37c1.01,1.01,1.38,2.75,1.38,4.43C71.11,70.5,71,73,71,79.25c0,10.5,1.25,12.03,12.49,12.03c11.13,0,11.76-2.03,11.76-9.37" /></g></g></g></g></g></g><g fill="none" stroke="#000" stroke-width="5" stroke-linecap="round" stroke-linejoin="round"><g><g><path d="M16.12,21.51c1.63,0.74,3.45,0.48,5.41,0.13c4.25-0.76,11.31-2.09,14.36-2.58c3.56-0.57,4.4,0.53,4.29,4.07c-0.2,6.16-1.11,16.87-1.52,23.64c-0.16,2.63-0.32,4.71-0.46,5.76" stroke-dasharray="57" stroke-dashoffset="57"><animate id="0" attributeName="stroke-dashoffset" values="57;0" dur="0.57s" fill="freeze" begin="0s;65e2.click" /></path><path d="M18.46,37.28C24,36.5,32,34.75,38.49,34.12" stroke-dasharray="20.28" stroke-dashoffset="20.28"><animate attributeName="stroke-dashoffset" values="20.28" fill="freeze" begin="65e2.click" /><animate id="1" attributeName="stroke-dashoffset" values="20.28;0" dur="0.2s" fill="freeze" begin="0.end" /></path><path d="M18.62,52.6c5.51-0.85,12.88-2.1,18.71-2.72" stroke-dasharray="18.91" stroke-dashoffset="18.91"><animate attributeName="stroke-dashoffset" values="18.91" fill="freeze" begin="65e2.click" /><animate id="2" attributeName="stroke-dashoffset" values="18.91;0" dur="0.19s" fill="freeze" begin="1.end" /></path><path d="M16.87,22.26c0.69,0.69,0.78,1.55,0.78,2.49c0,3.25,0.1,54.41,0.1,59.12c0,3.12,1.21,3.36,3.25,1.75c1.72-1.36,15.42-13.18,20-15.88" stroke-dasharray="92.94" stroke-dashoffset="92.94"><animate attributeName="stroke-dashoffset" values="92.94" fill="freeze" begin="65e2.click" /><animate id="3" attributeName="stroke-dashoffset" values="92.94;0" dur="0.7s" fill="freeze" begin="2.end" /></path><path d="M35,62.25c3.5,2.5,8.75,9.25,10.25,15" stroke-dasharray="18.44" stroke-dashoffset="18.44"><animate attributeName="stroke-dashoffset" values="18.44" fill="freeze" begin="65e2.click" /><animate id="4" attributeName="stroke-dashoffset" values="18.44;0" dur="0.18s" fill="freeze" begin="3.end" /></path></g><g p4:phon="旡" xmlns:p4="http://kanjivg.tagaini.net"><path d="M50.75,20.75c2.38,0.5,4.88,0.48,7,0.22c5.8-0.7,15.26-1.98,21.62-2.44c1.92-0.14,3.74-0.18,5.63,0.23" stroke-dasharray="34.45" stroke-dashoffset="34.45"><animate attributeName="stroke-dashoffset" values="34.45" fill="freeze" begin="65e2.click" /><animate id="5" attributeName="stroke-dashoffset" values="34.45;0" dur="0.34s" fill="freeze" begin="4.end" /></path><path d="M55.31,23.13c0.56,0.99,0.73,1.87,0.51,3.5c-0.95,7.12-1.32,10.12-3,19" stroke-dasharray="22.85" stroke-dashoffset="22.85"><animate attributeName="stroke-dashoffset" values="22.85" fill="freeze" begin="65e2.click" /><animate id="6" attributeName="stroke-dashoffset" values="22.85;0" dur="0.23s" fill="freeze" begin="5.end" /></path><path d="M45.57,47c2.31,0.27,4.37,0.28,6.67,0.06c8.87-0.86,22.97-2.31,32.88-2.49c2.08-0.04,4.13-0.07,6.19,0.21" stroke-dasharray="45.87" stroke-dashoffset="45.87"><animate attributeName="stroke-dashoffset" values="45.87" fill="freeze" begin="65e2.click" /><animate id="7" attributeName="stroke-dashoffset" values="45.87;0" dur="0.46s" fill="freeze" begin="6.end" /></path><g><g><g><path d="M72.41,23.75c0.49,0.95,1.02,2.8,0.61,5.09C69.5,48.75,62.25,75.75,40,91.5" stroke-dasharray="77.94" stroke-dashoffset="77.94"><animate attributeName="stroke-dashoffset" values="77.94" fill="freeze" begin="65e2.click" /><animate id="8" attributeName="stroke-dashoffset" values="77.94;0" dur="0.59s" fill="freeze" begin="7.end" /></path></g><g><path d="M69.74,56.37c1.01,1.01,1.38,2.75,1.38,4.43C71.11,70.5,71,73,71,79.25c0,10.5,1.25,12.03,12.49,12.03c11.13,0,11.76-2.03,11.76-9.37" stroke-dasharray="62.78" stroke-dashoffset="62.78"><animate attributeName="stroke-dashoffset" values="62.78" fill="freeze" begin="65e2.click" /><animate id="9" attributeName="stroke-dashoffset" values="62.78;0" dur="0.47s" fill="freeze" begin="8.end" /></path></g></g></g></g></g></g></svg>