<svg xmlns="http://www.w3.org/2000/svg" width="109" height="109" viewBox="0 0 109 109" id="65ed"><g fill="none" stroke="#666" stroke-width="9" stroke-linecap="round" stroke-linejoin="round"><g><g><path d="M34.51,16.12c0.74,1.5,0.72,2.12,0.62,3.65C32.5,58.88,25,74.25,11.38,91" /><g><path d="M14,40.5c1,0.75,4.75,0.25,6,0s24.38-5.69,25.5-5.75c2.5-0.12,3.62,0.88,3.25,3.75C48,44.25,44.51,61.98,44,72.25c-1,20,11.75,20.37,26.21,20.37C90,92.62,94.22,91.05,94.48,82" /></g></g><g><path d="M60,28.56c0.97,0.97,1.26,2.02,1.26,3.37c0,1.01,0.75,21.18,1.19,32.33c0.15,3.75,0.26,6.36,0.31,6.7" /><path d="M61.59,29.65c5.16-0.9,20.95-3.66,23.54-3.86c2.16-0.17,3.54,1.87,3.38,2.87c-0.26,1.59-1.25,22.59-2.29,34.59c-0.29,3.31-0.56,5.92-0.79,7.21" /><path d="M62.83,47.58c8.04-1.2,17.67-2.58,23.44-3.03" /><path d="M64.01,68.19c6.87-1.06,15.49-2.31,21.02-2.69" /></g></g></g><g fill="none" stroke="#000" stroke-width="5" stroke-linecap="round" stroke-linejoin="round"><path d="M34.51,16.12c0.74,1.5,0.72,2.12,0.62,3.65C32.5,58.88,25,74.25,11.38,91" stroke-dasharray="80.332" stroke-dashoffset="80.332"><animate attributeName="stroke-dashoffset" values="80.332;80.332;0" dur="0.604s" fill="freeze" begin="0s;65ed.click" /></path><path d="M14,40.5c1,0.75,4.75,0.25,6,0s24.38-5.69,25.5-5.75c2.5-0.12,3.62,0.88,3.25,3.75C48,44.25,44.51,61.98,44,72.25c-1,20,11.75,20.37,26.21,20.37C90,92.62,94.22,91.05,94.48,82" stroke-dasharray="142.248" stroke-dashoffset="142.248"><animate attributeName="stroke-dashoffset" values="142.248" fill="freeze" begin="65ed.click" /><animate attributeName="stroke-dashoffset" values="142.248;142.248;0" keyTimes="0;0.361;1" dur="1.674s" fill="freeze" begin="0s;65ed.click" /></path><path d="M60,28.56c0.97,0.97,1.26,2.02,1.26,3.37c0,1.01,0.75,21.18,1.19,32.33c0.15,3.75,0.26,6.36,0.31,6.7" stroke-dasharray="42.767" stroke-dashoffset="42.767"><animate attributeName="stroke-dashoffset" values="42.767" fill="freeze" begin="65ed.click" /><animate attributeName="stroke-dashoffset" values="42.767;42.767;0" keyTimes="0;0.796;1" dur="2.102s" fill="freeze" begin="0s;65ed.click" /></path><path d="M61.59,29.65c5.16-0.9,20.95-3.66,23.54-3.86c2.16-0.17,3.54,1.87,3.38,2.87c-0.26,1.59-1.25,22.59-2.29,34.59c-0.29,3.31-0.56,5.92-0.79,7.21" stroke-dasharray="70.728" stroke-dashoffset="70.728"><animate attributeName="stroke-dashoffset" values="70.728" fill="freeze" begin="65ed.click" /><animate attributeName="stroke-dashoffset" values="70.728;70.728;0" keyTimes="0;0.798;1" dur="2.634s" fill="freeze" begin="0s;65ed.click" /></path><path d="M62.83,47.58c8.04-1.2,17.67-2.58,23.44-3.03" stroke-dasharray="23.64" stroke-dashoffset="23.64"><animate attributeName="stroke-dashoffset" values="23.64" fill="freeze" begin="65ed.click" /><animate attributeName="stroke-dashoffset" values="23.64;23.64;0" keyTimes="0;0.918;1" dur="2.87s" fill="freeze" begin="0s;65ed.click" /></path><path d="M64.01,68.19c6.87-1.06,15.49-2.31,21.02-2.69" stroke-dasharray="21.198" stroke-dashoffset="21.198"><animate attributeName="stroke-dashoffset" values="21.198" fill="freeze" begin="65ed.click" /><animate attributeName="stroke-dashoffset" values="21.198;21.198;0" keyTimes="0;0.931;1" dur="3.082s" fill="freeze" begin="0s;65ed.click" /></path></g></svg>