<svg xmlns="http://www.w3.org/2000/svg" width="109" height="109" viewBox="0 0 109 109" id="660a"><g fill="none" stroke="#666" stroke-width="6" stroke-linecap="round" stroke-linejoin="round"><g><g><path d="M30.49,15.37c0.46,0.48,0.47,0.81,0.72,1.41c2.07,4.95,3.05,15.95,4.33,25.18" /><path d="M32.1,16.94c11.05-1.03,33.42-2.79,41.66-3.66c3.03-0.32,3.65,1.82,3.49,2.95c-0.57,4.13-2.45,15.89-3.83,22.79" /><path d="M34.16,28.04c3.6-0.4,37.71-3.37,40.68-3.53" /><path d="M35.84,39.54c10.23-1.13,27.07-2.78,38.05-3.5" /></g><g><path d="M21.87,50.18c1.57,0.41,4.47,0.54,6.04,0.41c23.86-1.85,37.42-3.49,55.87-3.9c2.62-0.06,4.2,0.2,5.51,0.41" /><g><path d="M27.31,67.26c1.05,0.29,3.74,0.42,4.88,0.4c11.65-0.25,32.85-3.89,44.29-4.14c1.45-0.03,4.08,0.04,6.76,0.6" /><path d="M53.49,50.87c0.74,0.72,0.92,2.46,0.9,3.85C54.11,78.78,40.27,91.48,17.5,98.87" /><path d="M54.98,65.8c7.65,7.23,24.21,24.26,31.84,29.1c2.6,1.64,3.5,1.89,4.68,2.05" /></g></g></g></g><g fill="none" stroke="#000" stroke-width="3" stroke-linecap="round" stroke-linejoin="round"><path d="M30.49,15.37c0.46,0.48,0.47,0.81,0.72,1.41c2.07,4.95,3.05,15.95,4.33,25.18" stroke-dasharray="27.199" stroke-dashoffset="27.199"><animate attributeName="stroke-dashoffset" values="27.199;27.199;0" dur="0.272s" fill="freeze" begin="0s;660a.click" /></path><path d="M32.1,16.94c11.05-1.03,33.42-2.79,41.66-3.66c3.03-0.32,3.65,1.82,3.49,2.95c-0.57,4.13-2.45,15.89-3.83,22.79" stroke-dasharray="70.304" stroke-dashoffset="70.304"><animate attributeName="stroke-dashoffset" values="70.304" fill="freeze" begin="660a.click" /><animate attributeName="stroke-dashoffset" values="70.304;70.304;0" keyTimes="0;0.34;1" dur="0.801s" fill="freeze" begin="0s;660a.click" /></path><path d="M34.16,28.04c3.6-0.4,37.71-3.37,40.68-3.53" stroke-dasharray="40.834" stroke-dashoffset="40.834"><animate attributeName="stroke-dashoffset" values="40.834" fill="freeze" begin="660a.click" /><animate attributeName="stroke-dashoffset" values="40.834;40.834;0" keyTimes="0;0.663;1" dur="1.209s" fill="freeze" begin="0s;660a.click" /></path><path d="M35.84,39.54c10.23-1.13,27.07-2.78,38.05-3.5" stroke-dasharray="38.214" stroke-dashoffset="38.214"><animate attributeName="stroke-dashoffset" values="38.214" fill="freeze" begin="660a.click" /><animate attributeName="stroke-dashoffset" values="38.214;38.214;0" keyTimes="0;0.76;1" dur="1.591s" fill="freeze" begin="0s;660a.click" /></path><path d="M21.87,50.18c1.57,0.41,4.47,0.54,6.04,0.41c23.86-1.85,37.42-3.49,55.87-3.9c2.62-0.06,4.2,0.2,5.51,0.41" stroke-dasharray="67.625" stroke-dashoffset="67.625"><animate attributeName="stroke-dashoffset" values="67.625" fill="freeze" begin="660a.click" /><animate attributeName="stroke-dashoffset" values="67.625;67.625;0" keyTimes="0;0.758;1" dur="2.099s" fill="freeze" begin="0s;660a.click" /></path><path d="M27.31,67.26c1.05,0.29,3.74,0.42,4.88,0.4c11.65-0.25,32.85-3.89,44.29-4.14c1.45-0.03,4.08,0.04,6.76,0.6" stroke-dasharray="56.205" stroke-dashoffset="56.205"><animate attributeName="stroke-dashoffset" values="56.205" fill="freeze" begin="660a.click" /><animate attributeName="stroke-dashoffset" values="56.205;56.205;0" keyTimes="0;0.789;1" dur="2.661s" fill="freeze" begin="0s;660a.click" /></path><path d="M53.49,50.87c0.74,0.72,0.92,2.46,0.9,3.85C54.11,78.78,40.27,91.48,17.5,98.87" stroke-dasharray="66.329" stroke-dashoffset="66.329"><animate attributeName="stroke-dashoffset" values="66.329" fill="freeze" begin="660a.click" /><animate attributeName="stroke-dashoffset" values="66.329;66.329;0" keyTimes="0;0.842;1" dur="3.16s" fill="freeze" begin="0s;660a.click" /></path><path d="M54.98,65.8c7.65,7.23,24.21,24.26,31.84,29.1c2.6,1.64,3.5,1.89,4.68,2.05" stroke-dasharray="48.336" stroke-dashoffset="48.336"><animate attributeName="stroke-dashoffset" values="48.336" fill="freeze" begin="660a.click" /><animate attributeName="stroke-dashoffset" values="48.336;48.336;0" keyTimes="0;0.867;1" dur="3.643s" fill="freeze" begin="0s;660a.click" /></path></g></svg>