<svg xmlns="http://www.w3.org/2000/svg" width="109" height="109" viewBox="0 0 109 109" id="660e"><g fill="none" stroke="#666" stroke-width="9" stroke-linecap="round" stroke-linejoin="round"><g><g><path d="M16.75,25.22c0.89,0.89,1.32,2.29,1.32,3.66c0,1.11,0.07,27.44,0,37.63c-0.02,2.32-0.02,3.78-0.02,3.91" /><path d="M19.29,27.75c5.66-0.81,19.54-2.59,21.22-2.75c1.76-0.17,2.89,1.89,2.75,2.91c-0.23,1.7-0.45,27.34-0.52,36.6c-0.01,1.9-0.02,3.11-0.02,3.29" /><path d="M19.16,46.97C23.5,46.5,37,45.12,41.77,44.76" /><path d="M19,66.59c8.5-0.97,14.37-1.59,22.49-2.11" /></g><g><path d="M57.55,16c0.95,1.25,1.09,2.48,1.11,3.5c1.09,49.25-4.41,64.75-17.41,75.75" /><path d="M59.5,17.98c6.56-1.04,21.76-3.51,23.07-3.73c2.97-0.5,5.21,0.62,5.21,4.5c0,1.49,0.19,50.25,0.19,70.5c0,11.88-7.22,3.5-8.3,2.5" /><path d="M59.77,39c7.85-1,19.73-2.25,26.95-2.75" /><path d="M59.25,57.75c6.62-0.62,20-1.5,27.36-2" /></g></g></g><g fill="none" stroke="#000" stroke-width="5" stroke-linecap="round" stroke-linejoin="round"><path d="M16.75,25.22c0.89,0.89,1.32,2.29,1.32,3.66c0,1.11,0.07,27.44,0,37.63c-0.02,2.32-0.02,3.78-0.02,3.91" stroke-dasharray="45.529" stroke-dashoffset="45.529"><animate attributeName="stroke-dashoffset" values="45.529;45.529;0" dur="0.455s" fill="freeze" begin="0s;660e.click" /></path><path d="M19.29,27.75c5.66-0.81,19.54-2.59,21.22-2.75c1.76-0.17,2.89,1.89,2.75,2.91c-0.23,1.7-0.45,27.34-0.52,36.6c-0.01,1.9-0.02,3.11-0.02,3.29" stroke-dasharray="65.777" stroke-dashoffset="65.777"><animate attributeName="stroke-dashoffset" values="65.777" fill="freeze" begin="660e.click" /><animate attributeName="stroke-dashoffset" values="65.777;65.777;0" keyTimes="0;0.479;1" dur="0.95s" fill="freeze" begin="0s;660e.click" /></path><path d="M19.16,46.97C23.5,46.5,37,45.12,41.77,44.76" stroke-dasharray="22.719" stroke-dashoffset="22.719"><animate attributeName="stroke-dashoffset" values="22.719" fill="freeze" begin="660e.click" /><animate attributeName="stroke-dashoffset" values="22.719;22.719;0" keyTimes="0;0.807;1" dur="1.177s" fill="freeze" begin="0s;660e.click" /></path><path d="M19,66.59c8.5-0.97,14.37-1.59,22.49-2.11" stroke-dasharray="22.593" stroke-dashoffset="22.593"><animate attributeName="stroke-dashoffset" values="22.593" fill="freeze" begin="660e.click" /><animate attributeName="stroke-dashoffset" values="22.593;22.593;0" keyTimes="0;0.839;1" dur="1.403s" fill="freeze" begin="0s;660e.click" /></path><path d="M57.55,16c0.95,1.25,1.09,2.48,1.11,3.5c1.09,49.25-4.41,64.75-17.41,75.75" stroke-dasharray="84.089" stroke-dashoffset="84.089"><animate attributeName="stroke-dashoffset" values="84.089" fill="freeze" begin="660e.click" /><animate attributeName="stroke-dashoffset" values="84.089;84.089;0" keyTimes="0;0.689;1" dur="2.035s" fill="freeze" begin="0s;660e.click" /></path><path d="M59.5,17.98c6.56-1.04,21.76-3.51,23.07-3.73c2.97-0.5,5.21,0.62,5.21,4.5c0,1.49,0.19,50.25,0.19,70.5c0,11.88-7.22,3.5-8.3,2.5" stroke-dasharray="116.522" stroke-dashoffset="116.522"><animate attributeName="stroke-dashoffset" values="116.522" fill="freeze" begin="660e.click" /><animate attributeName="stroke-dashoffset" values="116.522;116.522;0" keyTimes="0;0.699;1" dur="2.911s" fill="freeze" begin="0s;660e.click" /></path><path d="M59.77,39c7.85-1,19.73-2.25,26.95-2.75" stroke-dasharray="27.094" stroke-dashoffset="27.094"><animate attributeName="stroke-dashoffset" values="27.094" fill="freeze" begin="660e.click" /><animate attributeName="stroke-dashoffset" values="27.094;27.094;0" keyTimes="0;0.915;1" dur="3.182s" fill="freeze" begin="0s;660e.click" /></path><path d="M59.25,57.75c6.62-0.62,20-1.5,27.36-2" stroke-dasharray="27.435" stroke-dashoffset="27.435"><animate attributeName="stroke-dashoffset" values="27.435" fill="freeze" begin="660e.click" /><animate attributeName="stroke-dashoffset" values="27.435;27.435;0" keyTimes="0;0.921;1" dur="3.456s" fill="freeze" begin="0s;660e.click" /></path></g></svg>