<svg xmlns="http://www.w3.org/2000/svg" width="109" height="109" viewBox="0 0 109 109" id="6627"><g fill="none" stroke="#666" stroke-width="9" stroke-linecap="round" stroke-linejoin="round"><g><g><path d="M13.27,27.44c0.39,0.78,0.78,1.68,0.78,2.72c0,1.04-0.13,41.29,0,42.34" /><path d="M14.69,29.07C19.75,28,27.75,27,31.61,26.24c1.64-0.32,2.61,1.44,2.61,2.22c0,4.04-0.52,35.79-0.52,43.01" /><path d="M14.08,49.23C20.75,48.5,28,47.5,33.8,46.92" /><path d="M14.44,70.56C20.5,70,26,69,33.29,68.52" /></g><g><path d="M48.06,34.52c0.8,0.28,2.27,0.31,3.07,0.28c8.34-0.32,19.61-3.05,29.03-3.73c1.33-0.1,2.14,0.13,2.81,0.27" /><g><path d="M39.63,51.5c0.81,0.25,2.71,0.69,4.87,0.5c8.5-0.75,29.75-3.75,42.33-4.25c2.16-0.09,4.21,0.25,5.56,0.5" /><path d="M62.68,12.25c1.35,0.5,2.16,2.25,2.43,3.25s0,77.25-0.27,83.5" /><path d="M64.22,51.25c-5.5,11.74-19.04,28.35-30.47,35" /><path d="M65.28,51C71,60.5,83,76,90.95,81.87c1.71,1.26,2.79,2.19,4.3,2.63" /></g></g></g></g><g fill="none" stroke="#000" stroke-width="5" stroke-linecap="round" stroke-linejoin="round"><g><g><path d="M13.27,27.44c0.39,0.78,0.78,1.68,0.78,2.72c0,1.04-0.13,41.29,0,42.34" stroke-dasharray="45.2" stroke-dashoffset="45.2"><animate id="0" attributeName="stroke-dashoffset" values="45.2;0" dur="0.45s" fill="freeze" begin="0s;6627.click" /></path><path d="M14.69,29.07C19.75,28,27.75,27,31.61,26.24c1.64-0.32,2.61,1.44,2.61,2.22c0,4.04-0.52,35.79-0.52,43.01" stroke-dasharray="64.02" stroke-dashoffset="64.02"><animate attributeName="stroke-dashoffset" values="64.02" fill="freeze" begin="6627.click" /><animate id="1" attributeName="stroke-dashoffset" values="64.02;0" dur="0.48s" fill="freeze" begin="0.end" /></path><path d="M14.08,49.23C20.75,48.5,28,47.5,33.8,46.92" stroke-dasharray="19.86" stroke-dashoffset="19.86"><animate attributeName="stroke-dashoffset" values="19.86" fill="freeze" begin="6627.click" /><animate id="2" attributeName="stroke-dashoffset" values="19.86;0" dur="0.2s" fill="freeze" begin="1.end" /></path><path d="M14.44,70.56C20.5,70,26,69,33.29,68.52" stroke-dasharray="18.96" stroke-dashoffset="18.96"><animate attributeName="stroke-dashoffset" values="18.96" fill="freeze" begin="6627.click" /><animate id="3" attributeName="stroke-dashoffset" values="18.96;0" dur="0.19s" fill="freeze" begin="2.end" /></path></g><g><path d="M48.06,34.52c0.8,0.28,2.27,0.31,3.07,0.28c8.34-0.32,19.61-3.05,29.03-3.73c1.33-0.1,2.14,0.13,2.81,0.27" stroke-dasharray="35.21" stroke-dashoffset="35.21"><animate attributeName="stroke-dashoffset" values="35.21" fill="freeze" begin="6627.click" /><animate id="4" attributeName="stroke-dashoffset" values="35.21;0" dur="0.35s" fill="freeze" begin="3.end" /></path><g><path d="M39.63,51.5c0.81,0.25,2.71,0.69,4.87,0.5c8.5-0.75,29.75-3.75,42.33-4.25c2.16-0.09,4.21,0.25,5.56,0.5" stroke-dasharray="53.07" stroke-dashoffset="53.07"><animate attributeName="stroke-dashoffset" values="53.07" fill="freeze" begin="6627.click" /><animate id="5" attributeName="stroke-dashoffset" values="53.07;0" dur="0.53s" fill="freeze" begin="4.end" /></path><path d="M62.68,12.25c1.35,0.5,2.16,2.25,2.43,3.25s0,77.25-0.27,83.5" stroke-dasharray="87.7" stroke-dashoffset="87.7"><animate attributeName="stroke-dashoffset" values="87.7" fill="freeze" begin="6627.click" /><animate id="6" attributeName="stroke-dashoffset" values="87.7;0" dur="0.66s" fill="freeze" begin="5.end" /></path><path d="M64.22,51.25c-5.5,11.74-19.04,28.35-30.47,35" stroke-dasharray="46.94" stroke-dashoffset="46.94"><animate attributeName="stroke-dashoffset" values="46.94" fill="freeze" begin="6627.click" /><animate id="7" attributeName="stroke-dashoffset" values="46.94;0" dur="0.47s" fill="freeze" begin="6.end" /></path><path d="M65.28,51C71,60.5,83,76,90.95,81.87c1.71,1.26,2.79,2.19,4.3,2.63" stroke-dasharray="45.39" stroke-dashoffset="45.39"><animate attributeName="stroke-dashoffset" values="45.39" fill="freeze" begin="6627.click" /><animate id="8" attributeName="stroke-dashoffset" values="45.39;0" dur="0.45s" fill="freeze" begin="7.end" /></path></g></g></g></g></svg>