<svg xmlns="http://www.w3.org/2000/svg" width="109" height="109" viewBox="0 0 109 109" id="665f"><g fill="none" stroke="#666" stroke-width="9" stroke-linecap="round" stroke-linejoin="round"><g><g><path d="M29.12,14.12c0.75,0.75,0.98,1.67,1.08,2.27c0.9,5.37,1.85,10.68,2.75,16.47c0.27,1.73,0.54,3.51,0.8,5.35" /><path d="M31.22,16.39c10.71-0.84,29.61-2.39,39.04-3.2c3.82-0.33,5.91,0.56,5.05,4.72c-0.65,3.17-1.82,8.15-2.89,12.35c-0.51,1.98-0.99,3.79-1.4,5.15" /><path d="M32.86,26.05c8.26-0.8,33.01-2.68,40.15-2.76" /><path d="M34.58,35.37c10.62-0.98,24.78-1.67,36.18-2.3" /></g><g><g p5:part="1" xmlns:p5="http://kanjivg.tagaini.net"><g><path d="M25.91,51.25c0.67,0.67,1.02,1.51,0.98,3.02c-0.38,13.85-2.14,28.36-14.33,40.95" /></g></g><g p5:part="1" xmlns:p5="http://kanjivg.tagaini.net"><g p5:part="1"><path d="M23,49.95c3.09,1.1,6.82,0.5,10.01,0.25c9.85-0.77,27.92-2.55,38.74-3.4c3.19-0.25,6.11-0.43,9.25,0.24" /></g></g><g p5:part="2" xmlns:p5="http://kanjivg.tagaini.net"><path d="M26.88,66.68c5.07-0.64,12.05-1.74,15.62-2.22c3.62-0.48,4.43,0.38,4.09,4.04c-0.47,5.12-1.84,14.38-5.61,23.08c-1.82,4.2-4.98,0.42-6.4-2.53" /></g><g p5:part="2" xmlns:p5="http://kanjivg.tagaini.net"><path d="M55.75,39c1.42,1.24,1.97,2.59,2.31,5.26C60.75,65.5,70,86,86.13,94.71c5.45,2.94,4.79,0.53,4.08-4.97" /><g><path d="M80.46,58.14c0.15,1.47-0.09,2.82-0.69,4.17c-3.79,8.59-15.06,25.52-32.72,36.16" /></g><g p5:part="2"><g><path d="M80.38,36.88c3.06,1.77,7.95,5.83,9.38,8.88" /></g></g></g></g></g></g><g fill="none" stroke="#000" stroke-width="5" stroke-linecap="round" stroke-linejoin="round"><g><g><path d="M29.12,14.12c0.75,0.75,0.98,1.67,1.08,2.27c0.9,5.37,1.85,10.68,2.75,16.47c0.27,1.73,0.54,3.51,0.8,5.35" stroke-dasharray="24.66" stroke-dashoffset="24.66"><animate id="0" attributeName="stroke-dashoffset" values="24.66;0" dur="0.25s" fill="freeze" begin="0s;665f.click" /></path><path d="M31.22,16.39c10.71-0.84,29.61-2.39,39.04-3.2c3.82-0.33,5.91,0.56,5.05,4.72c-0.65,3.17-1.82,8.15-2.89,12.35c-0.51,1.98-0.99,3.79-1.4,5.15" stroke-dasharray="65.96" stroke-dashoffset="65.96"><animate attributeName="stroke-dashoffset" values="65.96" fill="freeze" begin="665f.click" /><animate id="1" attributeName="stroke-dashoffset" values="65.96;0" dur="0.5s" fill="freeze" begin="0.end" /></path><path d="M32.86,26.05c8.26-0.8,33.01-2.68,40.15-2.76" stroke-dasharray="40.25" stroke-dashoffset="40.25"><animate attributeName="stroke-dashoffset" values="40.25" fill="freeze" begin="665f.click" /><animate id="2" attributeName="stroke-dashoffset" values="40.25;0" dur="0.4s" fill="freeze" begin="1.end" /></path><path d="M34.58,35.37c10.62-0.98,24.78-1.67,36.18-2.3" stroke-dasharray="36.26" stroke-dashoffset="36.26"><animate attributeName="stroke-dashoffset" values="36.26" fill="freeze" begin="665f.click" /><animate id="3" attributeName="stroke-dashoffset" values="36.26;0" dur="0.36s" fill="freeze" begin="2.end" /></path></g><g><g p5:part="1" xmlns:p5="http://kanjivg.tagaini.net"><g><path d="M25.91,51.25c0.67,0.67,1.02,1.51,0.98,3.02c-0.38,13.85-2.14,28.36-14.33,40.95" stroke-dasharray="47.82" stroke-dashoffset="47.82"><animate attributeName="stroke-dashoffset" values="47.82" fill="freeze" begin="665f.click" /><animate id="4" attributeName="stroke-dashoffset" values="47.82;0" dur="0.48s" fill="freeze" begin="3.end" /></path></g></g><g p5:part="1" xmlns:p5="http://kanjivg.tagaini.net"><g p5:part="1"><path d="M23,49.95c3.09,1.1,6.82,0.5,10.01,0.25c9.85-0.77,27.92-2.55,38.74-3.4c3.19-0.25,6.11-0.43,9.25,0.24" stroke-dasharray="58.27" stroke-dashoffset="58.27"><animate attributeName="stroke-dashoffset" values="58.27" fill="freeze" begin="665f.click" /><animate id="5" attributeName="stroke-dashoffset" values="58.27;0" dur="0.58s" fill="freeze" begin="4.end" /></path></g></g><g p5:part="2" xmlns:p5="http://kanjivg.tagaini.net"><path d="M26.88,66.68c5.07-0.64,12.05-1.74,15.62-2.22c3.62-0.48,4.43,0.38,4.09,4.04c-0.47,5.12-1.84,14.38-5.61,23.08c-1.82,4.2-4.98,0.42-6.4-2.53" stroke-dasharray="56.4" stroke-dashoffset="56.4"><animate attributeName="stroke-dashoffset" values="56.4" fill="freeze" begin="665f.click" /><animate id="6" attributeName="stroke-dashoffset" values="56.4;0" dur="0.56s" fill="freeze" begin="5.end" /></path></g><g p5:part="2" xmlns:p5="http://kanjivg.tagaini.net"><path d="M55.75,39c1.42,1.24,1.97,2.59,2.31,5.26C60.75,65.5,70,86,86.13,94.71c5.45,2.94,4.79,0.53,4.08-4.97" stroke-dasharray="76.29" stroke-dashoffset="76.29"><animate attributeName="stroke-dashoffset" values="76.29" fill="freeze" begin="665f.click" /><animate id="7" attributeName="stroke-dashoffset" values="76.29;0" dur="0.57s" fill="freeze" begin="6.end" /></path><g><path d="M80.46,58.14c0.15,1.47-0.09,2.82-0.69,4.17c-3.79,8.59-15.06,25.52-32.72,36.16" stroke-dasharray="53.7" stroke-dashoffset="53.7"><animate attributeName="stroke-dashoffset" values="53.7" fill="freeze" begin="665f.click" /><animate id="8" attributeName="stroke-dashoffset" values="53.7;0" dur="0.54s" fill="freeze" begin="7.end" /></path></g><g p5:part="2"><g><path d="M80.38,36.88c3.06,1.77,7.95,5.83,9.38,8.88" stroke-dasharray="13.06" stroke-dashoffset="13.06"><animate attributeName="stroke-dashoffset" values="13.06" fill="freeze" begin="665f.click" /><animate id="9" attributeName="stroke-dashoffset" values="13.06;0" dur="0.13s" fill="freeze" begin="8.end" /></path></g></g></g></g></g></g></svg>