<svg xmlns="http://www.w3.org/2000/svg" width="109" height="109" viewBox="0 0 109 109" id="6666"><g fill="none" stroke="#666" stroke-width="9" stroke-linecap="round" stroke-linejoin="round"><g><g><path d="M14.02,30.69c0.77,0.77,1.03,1.93,1.03,2.97c0,3.18,0,25.54,0,37.71c0,3.95,0,6.83,0,7.62" /><path d="M15.69,32.57c4.38-0.93,10.6-1.8,14.69-2.51c2.39-0.41,4.34,0.48,4.34,3.19c0,7.4-0.02,37.01-0.02,43.73" /><path d="M16.08,53.23c6.67-0.73,11.67-1.48,17.47-2.06" /><path d="M15.94,75.81c6.56-0.81,10.31-1.31,17.6-1.79" /></g><g><g><g><path d="M61.25,12.5c-0.03,1.4-0.28,2.75-0.76,4.05c-2.87,6.95-9.04,17.8-14.49,24.2" /></g><path d="M58.13,28.53c1.87,0.22,3.68,0.17,4.6,0.04c6.77-0.94,11.9-1.82,20.82-3.74c2.35-0.51,4.7-0.7,6.99-0.32" /></g><g p5:partial xmlns:p5="http://kanjivg.tagaini.net"><path d="M56.7,39.62c0.68,1.51,0.67,2.38,0.07,4.31C53.5,54.38,50,63.75,46.86,71.28c-1.26,3.01-0.17,3.75,2.39,4.01c10.4,1.06,21.86,3.2,32.41,7.65c3.4,1.44,6.7,3.11,9.85,5.07" /><path d="M57.5,41.91c1.5,0.59,2.9,0.46,3.78,0.36c8-0.88,12.1-1.77,19.97-2.71c2.53-0.3,5.04,0.31,4.76,3.48c-1.26,14.3-8.04,43.25-11.56,50.59c-2.7,5.63-5.62-0.59-6.62-1.62" /><path d="M 66.077858,47.195946 c 2.269983,1.293002 4.809791,4.256334 5.300416,6.038107" /><path d="M 63.92,65.16 c 2.269983,1.293002 4.809791,4.256334 5.300416,6.038107" /><path d="M40.38,60.67c3.2,0.55,6.39,0.29,9.65-0.01c11.23-1.04,24.46-2.19,38.98-2.85c3.33-0.15,6.61-0.04,9.88,0.48" /></g></g></g></g><g fill="none" stroke="#000" stroke-width="5" stroke-linecap="round" stroke-linejoin="round"><g><g><path d="M14.02,30.69c0.77,0.77,1.03,1.93,1.03,2.97c0,3.18,0,25.54,0,37.71c0,3.95,0,6.83,0,7.62" stroke-dasharray="48.55" stroke-dashoffset="48.55"><animate id="0" attributeName="stroke-dashoffset" values="48.55;0" dur="0.49s" fill="freeze" begin="0s;6666.click" /></path><path d="M15.69,32.57c4.38-0.93,10.6-1.8,14.69-2.51c2.39-0.41,4.34,0.48,4.34,3.19c0,7.4-0.02,37.01-0.02,43.73" stroke-dasharray="64.98" stroke-dashoffset="64.98"><animate attributeName="stroke-dashoffset" values="64.98" fill="freeze" begin="6666.click" /><animate id="1" attributeName="stroke-dashoffset" values="64.98;0" dur="0.49s" fill="freeze" begin="0.end" /></path><path d="M16.08,53.23c6.67-0.73,11.67-1.48,17.47-2.06" stroke-dasharray="17.59" stroke-dashoffset="17.59"><animate attributeName="stroke-dashoffset" values="17.59" fill="freeze" begin="6666.click" /><animate id="2" attributeName="stroke-dashoffset" values="17.59;0" dur="0.18s" fill="freeze" begin="1.end" /></path><path d="M15.94,75.81c6.56-0.81,10.31-1.31,17.6-1.79" stroke-dasharray="17.69" stroke-dashoffset="17.69"><animate attributeName="stroke-dashoffset" values="17.69" fill="freeze" begin="6666.click" /><animate id="3" attributeName="stroke-dashoffset" values="17.69;0" dur="0.18s" fill="freeze" begin="2.end" /></path></g><g><g><g><path d="M61.25,12.5c-0.03,1.4-0.28,2.75-0.76,4.05c-2.87,6.95-9.04,17.8-14.49,24.2" stroke-dasharray="32.44" stroke-dashoffset="32.44"><animate attributeName="stroke-dashoffset" values="32.44" fill="freeze" begin="6666.click" /><animate id="4" attributeName="stroke-dashoffset" values="32.44;0" dur="0.32s" fill="freeze" begin="3.end" /></path></g><path d="M58.13,28.53c1.87,0.22,3.68,0.17,4.6,0.04c6.77-0.94,11.9-1.82,20.82-3.74c2.35-0.51,4.7-0.7,6.99-0.32" stroke-dasharray="32.81" stroke-dashoffset="32.81"><animate attributeName="stroke-dashoffset" values="32.81" fill="freeze" begin="6666.click" /><animate id="5" attributeName="stroke-dashoffset" values="32.81;0" dur="0.33s" fill="freeze" begin="4.end" /></path></g><g p5:partial xmlns:p5="http://kanjivg.tagaini.net"><path d="M56.7,39.62c0.68,1.51,0.67,2.38,0.07,4.31C53.5,54.38,50,63.75,46.86,71.28c-1.26,3.01-0.17,3.75,2.39,4.01c10.4,1.06,21.86,3.2,32.41,7.65c3.4,1.44,6.7,3.11,9.85,5.07" stroke-dasharray="84.11" stroke-dashoffset="84.11"><animate attributeName="stroke-dashoffset" values="84.11" fill="freeze" begin="6666.click" /><animate id="6" attributeName="stroke-dashoffset" values="84.11;0" dur="0.63s" fill="freeze" begin="5.end" /></path><path d="M57.5,41.91c1.5,0.59,2.9,0.46,3.78,0.36c8-0.88,12.1-1.77,19.97-2.71c2.53-0.3,5.04,0.31,4.76,3.48c-1.26,14.3-8.04,43.25-11.56,50.59c-2.7,5.63-5.62-0.59-6.62-1.62" stroke-dasharray="92.54" stroke-dashoffset="92.54"><animate attributeName="stroke-dashoffset" values="92.54" fill="freeze" begin="6666.click" /><animate id="7" attributeName="stroke-dashoffset" values="92.54;0" dur="0.7s" fill="freeze" begin="6.end" /></path><path d="M 66.077858,47.195946 c 2.269983,1.293002 4.809791,4.256334 5.300416,6.038107" stroke-dasharray="8.18" stroke-dashoffset="8.18"><animate attributeName="stroke-dashoffset" values="8.18" fill="freeze" begin="6666.click" /><animate id="8" attributeName="stroke-dashoffset" values="8.18;0" dur="0.08s" fill="freeze" begin="7.end" /></path><path d="M 63.92,65.16 c 2.269983,1.293002 4.809791,4.256334 5.300416,6.038107" stroke-dasharray="8.18" stroke-dashoffset="8.18"><animate attributeName="stroke-dashoffset" values="8.18" fill="freeze" begin="6666.click" /><animate id="9" attributeName="stroke-dashoffset" values="8.18;0" dur="0.08s" fill="freeze" begin="8.end" /></path><path d="M40.38,60.67c3.2,0.55,6.39,0.29,9.65-0.01c11.23-1.04,24.46-2.19,38.98-2.85c3.33-0.15,6.61-0.04,9.88,0.48" stroke-dasharray="58.68" stroke-dashoffset="58.68"><animate attributeName="stroke-dashoffset" values="58.68" fill="freeze" begin="6666.click" /><animate id="10" attributeName="stroke-dashoffset" values="58.68;0" dur="0.59s" fill="freeze" begin="9.end" /></path></g></g></g></g></svg>