<svg xmlns="http://www.w3.org/2000/svg" width="109" height="109" viewBox="0 0 109 109" id="6691"><g fill="none" stroke="#666" stroke-width="9" stroke-linecap="round" stroke-linejoin="round"><g><g><path d="M31.5,13.79c1,0.84,1.58,1.94,1.74,2.62c1.14,4.81,2.71,12.93,3.62,17.6c0.29,1.49,0.51,2.64,0.64,3.2" /><path d="M34.48,15.66C41.5,15,68.75,12.25,74.5,12.23c3.21-0.01,4.35,2.11,3.5,4.77c-1.74,5.44-2.92,8.8-4.83,14.14c-0.28,0.79-0.58,1.62-0.9,2.51" /><path d="M36.47,24.99c7.28-0.74,30.65-2.37,38.31-2.7" /><path d="M38.98,34.65c8.41-0.67,21.67-1.59,32.56-2.46" /></g><g p4:phon="者" xmlns:p4="http://kanjivg.tagaini.net"><g p4:partial><g><path d="M34.49,45.89c1.55,0.53,3.48,0.48,5.09,0.35c7.75-0.6,17.54-2.1,25.22-2.5c1.65-0.09,3.31-0.17,4.94,0.16" /><path d="M52.4,35.62c0.93,0.93,1.56,2.13,1.56,3.59C53.96,45.5,54,49.51,54,56" /><path d="M14.15,59.77c3.42,0.6,7.02,0.52,8.86,0.28c17.11-2.3,42.99-5.42,63.74-6.78c3.12-0.2,6.26-0.08,9.35,0.45" /></g><path d="M81.38,33c-0.12,1.52-0.67,3.09-1.78,4.27c-14.29,15.2-35.36,30.25-63.72,43.1" /></g><g><path d="M42.81,69.55c0.76,0.76,1.26,1.82,1.3,2.93c0.34,8.18,0.77,16.54,1.1,23.13c0.04,0.88,0.09,1.72,0.13,2.53" /><path d="M45.28,71.16c5.68-0.8,22.64-3.01,28.1-3.49c3.37-0.29,4.75,0.96,4.58,3.84c-0.22,3.71-0.87,13.41-1.75,22.83c-0.1,1.02-0.13,1.47-0.13,2.16" /><path d="M45.93,82.7c4.32-0.33,27.37-2.7,30.82-2.7" /><path d="M46.54,95.2c6.22-0.49,20.84-1.04,28.59-1.46" /></g></g></g></g><g fill="none" stroke="#000" stroke-width="5" stroke-linecap="round" stroke-linejoin="round"><g><g><path d="M31.5,13.79c1,0.84,1.58,1.94,1.74,2.62c1.14,4.81,2.71,12.93,3.62,17.6c0.29,1.49,0.51,2.64,0.64,3.2" stroke-dasharray="24.42" stroke-dashoffset="24.42"><animate id="0" attributeName="stroke-dashoffset" values="24.42;0" dur="0.24s" fill="freeze" begin="0s;6691.click" /></path><path d="M34.48,15.66C41.5,15,68.75,12.25,74.5,12.23c3.21-0.01,4.35,2.11,3.5,4.77c-1.74,5.44-2.92,8.8-4.83,14.14c-0.28,0.79-0.58,1.62-0.9,2.51" stroke-dasharray="65" stroke-dashoffset="65"><animate attributeName="stroke-dashoffset" values="65" fill="freeze" begin="6691.click" /><animate id="1" attributeName="stroke-dashoffset" values="65;0" dur="0.49s" fill="freeze" begin="0.end" /></path><path d="M36.47,24.99c7.28-0.74,30.65-2.37,38.31-2.7" stroke-dasharray="38.41" stroke-dashoffset="38.41"><animate attributeName="stroke-dashoffset" values="38.41" fill="freeze" begin="6691.click" /><animate id="2" attributeName="stroke-dashoffset" values="38.41;0" dur="0.38s" fill="freeze" begin="1.end" /></path><path d="M38.98,34.65c8.41-0.67,21.67-1.59,32.56-2.46" stroke-dasharray="32.65" stroke-dashoffset="32.65"><animate attributeName="stroke-dashoffset" values="32.65" fill="freeze" begin="6691.click" /><animate id="3" attributeName="stroke-dashoffset" values="32.65;0" dur="0.33s" fill="freeze" begin="2.end" /></path></g><g p4:phon="者" xmlns:p4="http://kanjivg.tagaini.net"><g p4:partial><g><path d="M34.49,45.89c1.55,0.53,3.48,0.48,5.09,0.35c7.75-0.6,17.54-2.1,25.22-2.5c1.65-0.09,3.31-0.17,4.94,0.16" stroke-dasharray="35.44" stroke-dashoffset="35.44"><animate attributeName="stroke-dashoffset" values="35.44" fill="freeze" begin="6691.click" /><animate id="4" attributeName="stroke-dashoffset" values="35.44;0" dur="0.35s" fill="freeze" begin="3.end" /></path><path d="M52.4,35.62c0.93,0.93,1.56,2.13,1.56,3.59C53.96,45.5,54,49.51,54,56" stroke-dasharray="20.81" stroke-dashoffset="20.81"><animate attributeName="stroke-dashoffset" values="20.81" fill="freeze" begin="6691.click" /><animate id="5" attributeName="stroke-dashoffset" values="20.81;0" dur="0.21s" fill="freeze" begin="4.end" /></path><path d="M14.15,59.77c3.42,0.6,7.02,0.52,8.86,0.28c17.11-2.3,42.99-5.42,63.74-6.78c3.12-0.2,6.26-0.08,9.35,0.45" stroke-dasharray="82.39" stroke-dashoffset="82.39"><animate attributeName="stroke-dashoffset" values="82.39" fill="freeze" begin="6691.click" /><animate id="6" attributeName="stroke-dashoffset" values="82.39;0" dur="0.62s" fill="freeze" begin="5.end" /></path></g><path d="M81.38,33c-0.12,1.52-0.67,3.09-1.78,4.27c-14.29,15.2-35.36,30.25-63.72,43.1" stroke-dasharray="82.12" stroke-dashoffset="82.12"><animate attributeName="stroke-dashoffset" values="82.12" fill="freeze" begin="6691.click" /><animate id="7" attributeName="stroke-dashoffset" values="82.12;0" dur="0.62s" fill="freeze" begin="6.end" /></path></g><g><path d="M42.81,69.55c0.76,0.76,1.26,1.82,1.3,2.93c0.34,8.18,0.77,16.54,1.1,23.13c0.04,0.88,0.09,1.72,0.13,2.53" stroke-dasharray="28.97" stroke-dashoffset="28.97"><animate attributeName="stroke-dashoffset" values="28.97" fill="freeze" begin="6691.click" /><animate id="8" attributeName="stroke-dashoffset" values="28.97;0" dur="0.29s" fill="freeze" begin="7.end" /></path><path d="M45.28,71.16c5.68-0.8,22.64-3.01,28.1-3.49c3.37-0.29,4.75,0.96,4.58,3.84c-0.22,3.71-0.87,13.41-1.75,22.83c-0.1,1.02-0.13,1.47-0.13,2.16" stroke-dasharray="60.54" stroke-dashoffset="60.54"><animate attributeName="stroke-dashoffset" values="60.54" fill="freeze" begin="6691.click" /><animate id="9" attributeName="stroke-dashoffset" values="60.54;0" dur="0.46s" fill="freeze" begin="8.end" /></path><path d="M45.93,82.7c4.32-0.33,27.37-2.7,30.82-2.7" stroke-dasharray="30.94" stroke-dashoffset="30.94"><animate attributeName="stroke-dashoffset" values="30.94" fill="freeze" begin="6691.click" /><animate id="10" attributeName="stroke-dashoffset" values="30.94;0" dur="0.31s" fill="freeze" begin="9.end" /></path><path d="M46.54,95.2c6.22-0.49,20.84-1.04,28.59-1.46" stroke-dasharray="28.63" stroke-dashoffset="28.63"><animate attributeName="stroke-dashoffset" values="28.63" fill="freeze" begin="6691.click" /><animate id="11" attributeName="stroke-dashoffset" values="28.63;0" dur="0.29s" fill="freeze" begin="10.end" /></path></g></g></g></g></svg>