<svg xmlns="http://www.w3.org/2000/svg" viewBox="0 0 109 109" id="669d"><g fill="none" stroke="#666" stroke-width="6" stroke-linecap="round" stroke-linejoin="round"><g><g><path d="M12.77,25.54c0.36,0.83,0.72,1.77,0.72,2.87c0,1.1-0.12,52.49,0,53.59" /><path d="M14.09,27.26c4.69-1.13,12.12-2.21,15.71-3.01c1.52-0.34,2.43,1.52,2.43,2.34c0,4.26-0.48,45.66-0.48,53.28" /><path d="M13.52,52.65c6.19-0.77,12.92-1.82,18.31-2.43" /><path d="M13.86,79.4c5.62-0.59,10.73-1.65,17.5-2.16" /></g><g><g><path d="M44.29,15.33c0,3.77-3.34,14.12-4.86,16.63" /><path d="M43.64,18.9c6.81-0.82,40.64-3.21,46.17-3.57c9.45-0.61,1.3,7.01-0.85,8.77" /></g><g><g><path d="M50.2,29.78c0.15,0.28,0.5,1.33,0.75,2.39c1.05,4.57,2.04,17.05,2.69,25.57" /><path d="M51.67,30.94c8.14-1.15,23.4-2.57,29.48-3.53c2.23-0.35,3.38,0.9,3.26,2.15c-0.42,4.6-1.38,17.14-3.54,25.89" /><path d="M53.19,42.22c2.65-0.45,27.1-2.14,29.3-2.32" /><path d="M53.67,54.54c5.86-0.49,18.95-0.98,27.05-1.78" /></g><g><g><path d="M65.88,59.2c0.55,0.46,1.44,2.24,1.44,3.15c0,3.62-0.02,5.49-0.07,8.09" /><path d="M39.37,71.82c1.12,0.11,3.68,0.66,4.78,0.59c12.52-0.79,36.1-2.92,50.24-3.58c1.86-0.09,2.8,0.05,4.18,0.75" /></g><g><path d="M58.14,79.73c0.43,0.84,0.22,3.07-0.51,4.08c-4,5.48-9.4,9.93-17.68,14.7" /><path d="M76.92,81.08c6.57,4.89,12,10.53,15.29,16.47" /></g></g></g></g></g></g><g fill="none" stroke="#000" stroke-width="3" stroke-linecap="round" stroke-linejoin="round"><path d="M12.77,25.54c0.36,0.83,0.72,1.77,0.72,2.87c0,1.1-0.12,52.49,0,53.59" stroke-dasharray="56.573" stroke-dashoffset="56.573"><animate attributeName="stroke-dashoffset" values="56.573;56.573;0" dur="0.566s" fill="freeze" begin="0s;669d.click" /></path><path d="M14.09,27.26c4.69-1.13,12.12-2.21,15.71-3.01c1.52-0.34,2.43,1.52,2.43,2.34c0,4.26-0.48,45.66-0.48,53.28" stroke-dasharray="73.082" stroke-dashoffset="73.082"><animate attributeName="stroke-dashoffset" values="73.082" fill="freeze" begin="669d.click" /><animate attributeName="stroke-dashoffset" values="73.082;73.082;0" keyTimes="0;0.508;1" dur="1.115s" fill="freeze" begin="0s;669d.click" /></path><path d="M13.52,52.65c6.19-0.77,12.92-1.82,18.31-2.43" stroke-dasharray="18.472" stroke-dashoffset="18.472"><animate attributeName="stroke-dashoffset" values="18.472" fill="freeze" begin="669d.click" /><animate attributeName="stroke-dashoffset" values="18.472;18.472;0" keyTimes="0;0.858;1" dur="1.3s" fill="freeze" begin="0s;669d.click" /></path><path d="M13.86,79.4c5.62-0.59,10.73-1.65,17.5-2.16" stroke-dasharray="17.637" stroke-dashoffset="17.637"><animate attributeName="stroke-dashoffset" values="17.637" fill="freeze" begin="669d.click" /><animate attributeName="stroke-dashoffset" values="17.637;17.637;0" keyTimes="0;0.881;1" dur="1.476s" fill="freeze" begin="0s;669d.click" /></path><path d="M44.29,15.33c0,3.77-3.34,14.12-4.86,16.63" stroke-dasharray="17.417" stroke-dashoffset="17.417"><animate attributeName="stroke-dashoffset" values="17.417" fill="freeze" begin="669d.click" /><animate attributeName="stroke-dashoffset" values="17.417;17.417;0" keyTimes="0;0.895;1" dur="1.65s" fill="freeze" begin="0s;669d.click" /></path><path d="M43.64,18.9c6.81-0.82,40.64-3.21,46.17-3.57c9.45-0.61,1.3,7.01-0.85,8.77" stroke-dasharray="60.643" stroke-dashoffset="60.643"><animate attributeName="stroke-dashoffset" values="60.643" fill="freeze" begin="669d.click" /><animate attributeName="stroke-dashoffset" values="60.643;60.643;0" keyTimes="0;0.783;1" dur="2.106s" fill="freeze" begin="0s;669d.click" /></path><path d="M50.2,29.78c0.15,0.28,0.5,1.33,0.75,2.39c1.05,4.57,2.04,17.05,2.69,25.57" stroke-dasharray="28.234" stroke-dashoffset="28.234"><animate attributeName="stroke-dashoffset" values="28.234" fill="freeze" begin="669d.click" /><animate attributeName="stroke-dashoffset" values="28.234;28.234;0" keyTimes="0;0.882;1" dur="2.388s" fill="freeze" begin="0s;669d.click" /></path><path d="M51.67,30.94c8.14-1.15,23.4-2.57,29.48-3.53c2.23-0.35,3.38,0.9,3.26,2.15c-0.42,4.6-1.38,17.14-3.54,25.89" stroke-dasharray="60.392" stroke-dashoffset="60.392"><animate attributeName="stroke-dashoffset" values="60.392" fill="freeze" begin="669d.click" /><animate attributeName="stroke-dashoffset" values="60.392;60.392;0" keyTimes="0;0.84;1" dur="2.842s" fill="freeze" begin="0s;669d.click" /></path><path d="M53.19,42.22c2.65-0.45,27.1-2.14,29.3-2.32" stroke-dasharray="29.395" stroke-dashoffset="29.395"><animate attributeName="stroke-dashoffset" values="29.395" fill="freeze" begin="669d.click" /><animate attributeName="stroke-dashoffset" values="29.395;29.395;0" keyTimes="0;0.906;1" dur="3.136s" fill="freeze" begin="0s;669d.click" /></path><path d="M53.67,54.54c5.86-0.49,18.95-0.98,27.05-1.78" stroke-dasharray="27.111" stroke-dashoffset="27.111"><animate attributeName="stroke-dashoffset" values="27.111" fill="freeze" begin="669d.click" /><animate attributeName="stroke-dashoffset" values="27.111;27.111;0" keyTimes="0;0.92;1" dur="3.407s" fill="freeze" begin="0s;669d.click" /></path><path d="M65.88,59.2c0.55,0.46,1.44,2.24,1.44,3.15c0,3.62-0.02,5.49-0.07,8.09" stroke-dasharray="11.615" stroke-dashoffset="11.615"><animate attributeName="stroke-dashoffset" values="11.615" fill="freeze" begin="669d.click" /><animate attributeName="stroke-dashoffset" values="11.615;11.615;0" keyTimes="0;0.967;1" dur="3.523s" fill="freeze" begin="0s;669d.click" /></path><path d="M39.37,71.82c1.12,0.11,3.68,0.66,4.78,0.59c12.52-0.79,36.1-2.92,50.24-3.58c1.86-0.09,2.8,0.05,4.18,0.75" stroke-dasharray="59.5" stroke-dashoffset="59.5"><animate attributeName="stroke-dashoffset" values="59.5" fill="freeze" begin="669d.click" /><animate attributeName="stroke-dashoffset" values="59.5;59.5;0" keyTimes="0;0.856;1" dur="4.118s" fill="freeze" begin="0s;669d.click" /></path><path d="M58.14,79.73c0.43,0.84,0.22,3.07-0.51,4.08c-4,5.48-9.4,9.93-17.68,14.7" stroke-dasharray="27.412" stroke-dashoffset="27.412"><animate attributeName="stroke-dashoffset" values="27.412" fill="freeze" begin="669d.click" /><animate attributeName="stroke-dashoffset" values="27.412;27.412;0" keyTimes="0;0.938;1" dur="4.392s" fill="freeze" begin="0s;669d.click" /></path><path d="M76.92,81.08c6.57,4.89,12,10.53,15.29,16.47" stroke-dasharray="22.639" stroke-dashoffset="22.639"><animate attributeName="stroke-dashoffset" values="22.639" fill="freeze" begin="669d.click" /><animate attributeName="stroke-dashoffset" values="22.639;22.639;0" keyTimes="0;0.951;1" dur="4.618s" fill="freeze" begin="0s;669d.click" /></path></g></svg>