<svg xmlns="http://www.w3.org/2000/svg" width="109" height="109" viewBox="0 0 109 109" id="66f2"><g fill="none" stroke="#666" stroke-width="9" stroke-linecap="round" stroke-linejoin="round"><g><g p4:part="1" p4:tradForm xmlns:p4="http://kanjivg.tagaini.net"><path d="M17.27,40.03c1.16,1.16,1.63,2.27,1.8,3.82c0.35,3.16,2.4,28.1,3.46,41.43c0.06,0.73,0.46,5.87,0.54,6.96" /><path d="M19.94,42.98c22.12-2.87,47.03-5.31,63.95-6.64c3.6-0.28,7.63,1.09,7.17,5.31c-0.8,7.23-3,26.09-4.99,39.38c-0.12,0.81-1.01,6.35-1.31,7.98" /></g><g><g p5:part="1" xmlns:p5="http://kanjivg.tagaini.net"><path d="M39.87,21c0.94,0.94,1.42,2.5,1.46,4C42,48.62,42.5,73.12,42.75,86.5" /></g><g><path d="M66.87,16.5c1.38,1.38,1.59,2.5,1.46,4.25c-2.33,30.38-2.83,42.88-4.58,64" /></g><g p5:part="2" xmlns:p5="http://kanjivg.tagaini.net"><g><path d="M21.96,64.76C40.38,62.5,63.5,60.12,88,58.75" /></g></g></g><g p4:part="2" p4:tradForm xmlns:p4="http://kanjivg.tagaini.net"><path d="M24.02,88.8c8.14-0.76,45.85-3.55,60.23-4.05" /></g></g></g><g fill="none" stroke="#000" stroke-width="5" stroke-linecap="round" stroke-linejoin="round"><g><g p4:part="1" p4:tradForm xmlns:p4="http://kanjivg.tagaini.net"><path d="M17.27,40.03c1.16,1.16,1.63,2.27,1.8,3.82c0.35,3.16,2.4,28.1,3.46,41.43c0.06,0.73,0.46,5.87,0.54,6.96" stroke-dasharray="52.87" stroke-dashoffset="52.87"><animate id="0" attributeName="stroke-dashoffset" values="52.87;0" dur="0.53s" fill="freeze" begin="0s;66f2.click" /></path><path d="M19.94,42.98c22.12-2.87,47.03-5.31,63.95-6.64c3.6-0.28,7.63,1.09,7.17,5.31c-0.8,7.23-3,26.09-4.99,39.38c-0.12,0.81-1.01,6.35-1.31,7.98" stroke-dasharray="122.47" stroke-dashoffset="122.47"><animate attributeName="stroke-dashoffset" values="122.47" fill="freeze" begin="66f2.click" /><animate id="1" attributeName="stroke-dashoffset" values="122.47;0" dur="0.92s" fill="freeze" begin="0.end" /></path></g><g><g p5:part="1" xmlns:p5="http://kanjivg.tagaini.net"><path d="M39.87,21c0.94,0.94,1.42,2.5,1.46,4C42,48.62,42.5,73.12,42.75,86.5" stroke-dasharray="65.87" stroke-dashoffset="65.87"><animate attributeName="stroke-dashoffset" values="65.87" fill="freeze" begin="66f2.click" /><animate id="2" attributeName="stroke-dashoffset" values="65.87;0" dur="0.5s" fill="freeze" begin="1.end" /></path></g><g><path d="M66.87,16.5c1.38,1.38,1.59,2.5,1.46,4.25c-2.33,30.38-2.83,42.88-4.58,64" stroke-dasharray="68.84" stroke-dashoffset="68.84"><animate attributeName="stroke-dashoffset" values="68.84" fill="freeze" begin="66f2.click" /><animate id="3" attributeName="stroke-dashoffset" values="68.84;0" dur="0.52s" fill="freeze" begin="2.end" /></path></g><g p5:part="2" xmlns:p5="http://kanjivg.tagaini.net"><g><path d="M21.96,64.76C40.38,62.5,63.5,60.12,88,58.75" stroke-dasharray="66.32" stroke-dashoffset="66.32"><animate attributeName="stroke-dashoffset" values="66.32" fill="freeze" begin="66f2.click" /><animate id="4" attributeName="stroke-dashoffset" values="66.32;0" dur="0.5s" fill="freeze" begin="3.end" /></path></g></g></g><g p4:part="2" p4:tradForm xmlns:p4="http://kanjivg.tagaini.net"><path d="M24.02,88.8c8.14-0.76,45.85-3.55,60.23-4.05" stroke-dasharray="60.37" stroke-dashoffset="60.37"><animate attributeName="stroke-dashoffset" values="60.37" fill="freeze" begin="66f2.click" /><animate id="5" attributeName="stroke-dashoffset" values="60.37;0" dur="0.45s" fill="freeze" begin="4.end" /></path></g></g></g></svg>