<svg xmlns="http://www.w3.org/2000/svg" width="109" height="109" viewBox="0 0 109 109" id="66f4"><g fill="none" stroke="#666" stroke-width="9" stroke-linecap="round" stroke-linejoin="round"><g><g><path d="M30,17.64c3.38,0.61,6.26,0.39,8.89-0.02c9.49-1.49,23.09-3.15,31.87-3.79c2.75-0.2,5.78-0.23,8.49,0.43" /></g><g><path d="M27.52,31.32c0.83,0.83,1.36,1.68,1.52,2.71c0.59,3.72,2.46,15.04,3.62,21.98c0.42,2.5,0.71,4.23,0.71,4.35" /><path d="M29.85,33.18c4.61-0.83,37.22-4.81,46.41-5.75c3.68-0.37,6.99,0.74,5.96,5.27c-1.02,4.49-3.06,12.18-5.53,19.52c-0.52,1.54-1.05,3.07-1.6,4.55" /><path d="M32.23,45.93c12.4-1.8,32.65-4.05,46.67-4.73" /><path d="M34.25,57.66c13-1.66,26-2.66,40.88-3.75" /></g><g><g><path d="M56,18c0.94,0.94,1.05,2.25,1.05,4.43C57,62.62,56.12,81.62,19,96.54" /></g><path d="M28,66.5c6.62,0,33,15.25,48.64,21.96c4,1.72,7.86,2.8,12.11,3.79" /></g></g></g><g fill="none" stroke="#000" stroke-width="5" stroke-linecap="round" stroke-linejoin="round"><g><g><path d="M30,17.64c3.38,0.61,6.26,0.39,8.89-0.02c9.49-1.49,23.09-3.15,31.87-3.79c2.75-0.2,5.78-0.23,8.49,0.43" stroke-dasharray="49.57" stroke-dashoffset="49.57"><animate id="0" attributeName="stroke-dashoffset" values="49.57;0" dur="0.5s" fill="freeze" begin="0s;66f4.click" /></path></g><g><path d="M27.52,31.32c0.83,0.83,1.36,1.68,1.52,2.71c0.59,3.72,2.46,15.04,3.62,21.98c0.42,2.5,0.71,4.23,0.71,4.35" stroke-dasharray="29.85" stroke-dashoffset="29.85"><animate attributeName="stroke-dashoffset" values="29.85" fill="freeze" begin="66f4.click" /><animate id="1" attributeName="stroke-dashoffset" values="29.85;0" dur="0.3s" fill="freeze" begin="0.end" /></path><path d="M29.85,33.18c4.61-0.83,37.22-4.81,46.41-5.75c3.68-0.37,6.99,0.74,5.96,5.27c-1.02,4.49-3.06,12.18-5.53,19.52c-0.52,1.54-1.05,3.07-1.6,4.55" stroke-dasharray="81.74" stroke-dashoffset="81.74"><animate attributeName="stroke-dashoffset" values="81.74" fill="freeze" begin="66f4.click" /><animate id="2" attributeName="stroke-dashoffset" values="81.74;0" dur="0.61s" fill="freeze" begin="1.end" /></path><path d="M32.23,45.93c12.4-1.8,32.65-4.05,46.67-4.73" stroke-dasharray="46.92" stroke-dashoffset="46.92"><animate attributeName="stroke-dashoffset" values="46.92" fill="freeze" begin="66f4.click" /><animate id="3" attributeName="stroke-dashoffset" values="46.92;0" dur="0.47s" fill="freeze" begin="2.end" /></path><path d="M34.25,57.66c13-1.66,26-2.66,40.88-3.75" stroke-dasharray="41.06" stroke-dashoffset="41.06"><animate attributeName="stroke-dashoffset" values="41.06" fill="freeze" begin="66f4.click" /><animate id="4" attributeName="stroke-dashoffset" values="41.06;0" dur="0.41s" fill="freeze" begin="3.end" /></path></g><g><g><path d="M56,18c0.94,0.94,1.05,2.25,1.05,4.43C57,62.62,56.12,81.62,19,96.54" stroke-dasharray="95.97" stroke-dashoffset="95.97"><animate attributeName="stroke-dashoffset" values="95.97" fill="freeze" begin="66f4.click" /><animate id="5" attributeName="stroke-dashoffset" values="95.97;0" dur="0.72s" fill="freeze" begin="4.end" /></path></g><path d="M28,66.5c6.62,0,33,15.25,48.64,21.96c4,1.72,7.86,2.8,12.11,3.79" stroke-dasharray="66.21" stroke-dashoffset="66.21"><animate attributeName="stroke-dashoffset" values="66.21" fill="freeze" begin="66f4.click" /><animate id="6" attributeName="stroke-dashoffset" values="66.21;0" dur="0.5s" fill="freeze" begin="5.end" /></path></g></g></g></svg>