<svg xmlns="http://www.w3.org/2000/svg" viewBox="0 0 109 109" id="671b"><g fill="none" stroke="#666" stroke-width="6" stroke-linecap="round" stroke-linejoin="round"><g><g p4:phon="ไบก" xmlns:p4="http://kanjivg.tagaini.net"><g><g><path d="M33.49,13.86c0.95,0.95,1.43,2.27,1.43,3.7c0,2.62-0.14,7.36-0.01,9.58" /><g><path d="M11.34,29.65c2.37,0.4,4.37,0.47,5.74,0.36C27,29.25,38.25,28,49.05,27.29c2.32-0.15,3.51,0.03,5.24,0.46" /></g></g><g><path d="M21.97,30.5c0.83,0.83,1,2.1,1,3.25c0,3.23,0,6.82,0,9.5c0,8.88,0.65,9.04,12.03,9.04c4.26,0,9.5,0.25,13.66-0.87" /></g></g><g><path d="M65.52,17c0.8,0.8,1.04,2.13,0.9,3.32C64.75,34.88,60.38,50,52.25,56.75" /><path d="M67.25,19c3-0.25,18.28-3.11,20.5-3.5c2.88-0.5,4.5,0.75,4.25,3.75c-0.46,5.57-2.34,21.21-6.75,33.75c-3.25,9.25-7,4.5-8,3.25" /><path d="M66,30.25c9.25-0.75,15-1.5,24-2.25" /><path d="M63,41.75c8-0.75,15.5-1.5,24.75-2" /></g></g><g p4:partial xmlns:p4="http://kanjivg.tagaini.net"><path d="M29.77,64.31c2.11,0.44,4.93,0.23,6.86,0.05c7.3-0.67,23.53-2.21,32.89-2.77c2.05-0.12,4.13-0.33,6.12,0.33" /><path d="M52.62,64.22c1.02,1.02,1.43,2.15,1.43,3.54c0,5.92,0.23,17.87,0.23,24.72" /><path d="M34.04,79.21c1,0.48,4.29,0.32,5.31,0.21C48.12,78.5,58,77.5,68.22,76.78c1.25-0.09,3.99-0.2,5.85,0.23" /><path d="M19.25,94.59c3.25,0.66,6.71,0.51,9.77,0.33c14.38-0.82,36.03-2.08,51.86-2.58c3.79-0.12,8.38-0.09,11.63,0.74" /></g></g></g><g fill="none" stroke="#000" stroke-width="3" stroke-linecap="round" stroke-linejoin="round"><path d="M33.49,13.86c0.95,0.95,1.43,2.27,1.43,3.7c0,2.62-0.14,7.36-0.01,9.58" stroke-dasharray="13.654" stroke-dashoffset="13.654"><animate attributeName="stroke-dashoffset" values="13.654;13.654;0" dur="0.137s" fill="freeze" begin="0s;671b.click" /></path><path d="M11.34,29.65c2.37,0.4,4.37,0.47,5.74,0.36C27,29.25,38.25,28,49.05,27.29c2.32-0.15,3.51,0.03,5.24,0.46" stroke-dasharray="43.139" stroke-dashoffset="43.139"><animate attributeName="stroke-dashoffset" values="43.139" fill="freeze" begin="671b.click" /><animate attributeName="stroke-dashoffset" values="43.139;43.139;0" keyTimes="0;0.241;1" dur="0.568s" fill="freeze" begin="0s;671b.click" /></path><path d="M21.97,30.5c0.83,0.83,1,2.1,1,3.25c0,3.23,0,6.82,0,9.5c0,8.88,0.65,9.04,12.03,9.04c4.26,0,9.5,0.25,13.66-0.87" stroke-dasharray="45.512" stroke-dashoffset="45.512"><animate attributeName="stroke-dashoffset" values="45.512" fill="freeze" begin="671b.click" /><animate attributeName="stroke-dashoffset" values="45.512;45.512;0" keyTimes="0;0.555;1" dur="1.023s" fill="freeze" begin="0s;671b.click" /></path><path d="M65.52,17c0.8,0.8,1.04,2.13,0.9,3.32C64.75,34.88,60.38,50,52.25,56.75" stroke-dasharray="43.459" stroke-dashoffset="43.459"><animate attributeName="stroke-dashoffset" values="43.459" fill="freeze" begin="671b.click" /><animate attributeName="stroke-dashoffset" values="43.459;43.459;0" keyTimes="0;0.702;1" dur="1.458s" fill="freeze" begin="0s;671b.click" /></path><path d="M67.25,19c3-0.25,18.28-3.11,20.5-3.5c2.88-0.5,4.5,0.75,4.25,3.75c-0.46,5.57-2.34,21.21-6.75,33.75c-3.25,9.25-7,4.5-8,3.25" stroke-dasharray="74.126" stroke-dashoffset="74.126"><animate attributeName="stroke-dashoffset" values="74.126" fill="freeze" begin="671b.click" /><animate attributeName="stroke-dashoffset" values="74.126;74.126;0" keyTimes="0;0.724;1" dur="2.015s" fill="freeze" begin="0s;671b.click" /></path><path d="M66,30.25c9.25-0.75,15-1.5,24-2.25" stroke-dasharray="24.107" stroke-dashoffset="24.107"><animate attributeName="stroke-dashoffset" values="24.107" fill="freeze" begin="671b.click" /><animate attributeName="stroke-dashoffset" values="24.107;24.107;0" keyTimes="0;0.893;1" dur="2.256s" fill="freeze" begin="0s;671b.click" /></path><path d="M63,41.75c8-0.75,15.5-1.5,24.75-2" stroke-dasharray="24.834" stroke-dashoffset="24.834"><animate attributeName="stroke-dashoffset" values="24.834" fill="freeze" begin="671b.click" /><animate attributeName="stroke-dashoffset" values="24.834;24.834;0" keyTimes="0;0.901;1" dur="2.504s" fill="freeze" begin="0s;671b.click" /></path><path d="M29.77,64.31c2.11,0.44,4.93,0.23,6.86,0.05c7.3-0.67,23.53-2.21,32.89-2.77c2.05-0.12,4.13-0.33,6.12,0.33" stroke-dasharray="46.062" stroke-dashoffset="46.062"><animate attributeName="stroke-dashoffset" values="46.062" fill="freeze" begin="671b.click" /><animate attributeName="stroke-dashoffset" values="46.062;46.062;0" keyTimes="0;0.845;1" dur="2.965s" fill="freeze" begin="0s;671b.click" /></path><path d="M52.62,64.22c1.02,1.02,1.43,2.15,1.43,3.54c0,5.92,0.23,17.87,0.23,24.72" stroke-dasharray="28.652" stroke-dashoffset="28.652"><animate attributeName="stroke-dashoffset" values="28.652" fill="freeze" begin="671b.click" /><animate attributeName="stroke-dashoffset" values="28.652;28.652;0" keyTimes="0;0.912;1" dur="3.252s" fill="freeze" begin="0s;671b.click" /></path><path d="M34.04,79.21c1,0.48,4.29,0.32,5.31,0.21C48.12,78.5,58,77.5,68.22,76.78c1.25-0.09,3.99-0.2,5.85,0.23" stroke-dasharray="40.215" stroke-dashoffset="40.215"><animate attributeName="stroke-dashoffset" values="40.215" fill="freeze" begin="671b.click" /><animate attributeName="stroke-dashoffset" values="40.215;40.215;0" keyTimes="0;0.89;1" dur="3.654s" fill="freeze" begin="0s;671b.click" /></path><path d="M19.25,94.59c3.25,0.66,6.71,0.51,9.77,0.33c14.38-0.82,36.03-2.08,51.86-2.58c3.79-0.12,8.38-0.09,11.63,0.74" stroke-dasharray="73.418" stroke-dashoffset="73.418"><animate attributeName="stroke-dashoffset" values="73.418" fill="freeze" begin="671b.click" /><animate attributeName="stroke-dashoffset" values="73.418;73.418;0" keyTimes="0;0.869;1" dur="4.206s" fill="freeze" begin="0s;671b.click" /></path></g></svg>