<svg xmlns="http://www.w3.org/2000/svg" width="109" height="109" viewBox="0 0 109 109" id="6727"><g fill="none" stroke="#666" stroke-width="9" stroke-linecap="round" stroke-linejoin="round"><g><g><path d="M17.4,21.24c0.46,0.95,0.76,1.88,0.92,2.8c0.15,0.92,0.14,25.9-0.35,33.63c-0.7,11-1.41,22.08-7.97,34.72" /><path d="M19.24,22.31c1.84-0.06,10.62-1.84,11.99-1.96c2.45-0.23,3.06,1.31,3.06,2.67c0,3.23-0.46,45.72-0.46,64.05c0,12.61-5.16,3.55-6.73,2.04" /><path d="M18.74,41.7c4.03-0.35,11.39-2.04,14.93-2.07" /><path d="M18.69,58.65c3.32-0.08,10.17-1.28,14.67-1.7" /></g><g><g><g><g><path d="M52.67,13.37c1.33,0.88,1.71,1.67,1.71,3.54c0,4.34,0,6.34,0,8.09" /><path d="M41.55,26.09c0.48,0.35,2.12,0.55,2.6,0.55c2.7,0,18.07-2.46,22.16-2.29c0.8,0.03,1.28,0.27,1.68,0.46" /></g><g><path d="M47.52,29.57c2.14,3.75,3.12,7.51,3.31,9.91" /><path d="M63.27,28.38c0.37,0.42,0.41,1.49,0.37,1.81c-0.29,2.18-3.38,8.47-4.12,10.09" /><path d="M40,42.99c0.84,0.39,1.82,0.48,2.66,0.48C52.64,43.49,58.5,42,68.3,41.21c1.39-0.11,2.24,0.28,2.94,0.49" /></g></g><g><path d="M45.48,51.2c0.36,0.62,0.61,1.74,0.73,2.35c0.12,0.62,0.17,39.38,0.12,40.76" /><path d="M46.43,52.82c1.46-0.15,15.31-2.26,16.39-2.43c1.94-0.31,2.67,2.01,2.43,2.93c-0.23,0.89-0.36,22.03-0.36,34.54c0,11.09-3.13,5.73-5.79,2.37" /><path d="M46.93,63.21c5.09-0.95,13.12-1.33,17.47-1.79" /><path d="M47.3,73.93c3.88-0.46,12.37-1.35,16.86-1.66" /></g></g><g><path d="M76.46,22.87c3.99-0.26,12.17-1.25,16.69-1.73c1.03-0.11,1.67,0.07,2.19,0.15" /><path d="M74.9,13.99c0.92,1.06,1.18,1.15,1.2,2.63c0.03,3.13-0.13,10.88-0.23,15.21c-0.02,0.93,0.14,1.81,1.86,1.64c4.77-0.47,8.02-1.22,13.63-1.99c2.39-0.33,2.37,0.81,2.01,2.42c-0.7,3.1-1.14,7.93-1.86,13.35" /><path d="M74.96,48.75c4.04-0.25,13.75-1,18.14-1.47" /><path d="M73.3,47.37c0.55,1.24,0.98,2.7,1.01,4.62c0.15,8.54-0.39,25.7-0.39,31.51c0,13.56,6.55,12.03,13.01,12.03c10.3,0,10.96-2.9,10.96-9.52" /><path d="M74.63,59.54c3.36-0.53,10.29-1.54,15.84-1.97c0.89-0.07,1.41,0.14,1.85,0.3" /><path d="M75.52,70c3.37-0.53,11.53-1.5,15.83-1.97c0.89-0.1,1.41,0.14,1.85,0.3" /><path d="M75.17,80c3.37-0.53,12.16-1.25,16.89-1.97c0.89-0.13,1.41,0.14,1.85,0.3" /></g></g></g></g><g fill="none" stroke="#000" stroke-width="5" stroke-linecap="round" stroke-linejoin="round"><path d="M17.4,21.24c0.46,0.95,0.76,1.88,0.92,2.8c0.15,0.92,0.14,25.9-0.35,33.63c-0.7,11-1.41,22.08-7.97,34.72" stroke-dasharray="72.526" stroke-dashoffset="72.526"><animate attributeName="stroke-dashoffset" values="72.526;72.526;0" dur="0.545s" fill="freeze" begin="0s;6727.click" /></path><path d="M19.24,22.31c1.84-0.06,10.62-1.84,11.99-1.96c2.45-0.23,3.06,1.31,3.06,2.67c0,3.23-0.46,45.72-0.46,64.05c0,12.61-5.16,3.55-6.73,2.04" stroke-dasharray="95.048" stroke-dashoffset="95.048"><animate attributeName="stroke-dashoffset" values="95.048" fill="freeze" begin="6727.click" /><animate attributeName="stroke-dashoffset" values="95.048;95.048;0" keyTimes="0;0.433;1" dur="1.26s" fill="freeze" begin="0s;6727.click" /></path><path d="M18.74,41.7c4.03-0.35,11.39-2.04,14.93-2.07" stroke-dasharray="15.083" stroke-dashoffset="15.083"><animate attributeName="stroke-dashoffset" values="15.083" fill="freeze" begin="6727.click" /><animate attributeName="stroke-dashoffset" values="15.083;15.083;0" keyTimes="0;0.893;1" dur="1.411s" fill="freeze" begin="0s;6727.click" /></path><path d="M18.69,58.65c3.32-0.08,10.17-1.28,14.67-1.7" stroke-dasharray="14.773" stroke-dashoffset="14.773"><animate attributeName="stroke-dashoffset" values="14.773" fill="freeze" begin="6727.click" /><animate attributeName="stroke-dashoffset" values="14.773;14.773;0" keyTimes="0;0.905;1" dur="1.559s" fill="freeze" begin="0s;6727.click" /></path><path d="M52.67,13.37c1.33,0.88,1.71,1.67,1.71,3.54c0,4.34,0,6.34,0,8.09" stroke-dasharray="12.251" stroke-dashoffset="12.251"><animate attributeName="stroke-dashoffset" values="12.251" fill="freeze" begin="6727.click" /><animate attributeName="stroke-dashoffset" values="12.251;12.251;0" keyTimes="0;0.927;1" dur="1.682s" fill="freeze" begin="0s;6727.click" /></path><path d="M41.55,26.09c0.48,0.35,2.12,0.55,2.6,0.55c2.7,0,18.07-2.46,22.16-2.29c0.8,0.03,1.28,0.27,1.68,0.46" stroke-dasharray="26.727" stroke-dashoffset="26.727"><animate attributeName="stroke-dashoffset" values="26.727" fill="freeze" begin="6727.click" /><animate attributeName="stroke-dashoffset" values="26.727;26.727;0" keyTimes="0;0.863;1" dur="1.949s" fill="freeze" begin="0s;6727.click" /></path><path d="M47.52,29.57c2.14,3.75,3.12,7.51,3.31,9.91" stroke-dasharray="10.525" stroke-dashoffset="10.525"><animate attributeName="stroke-dashoffset" values="10.525" fill="freeze" begin="6727.click" /><animate attributeName="stroke-dashoffset" values="10.525;10.525;0" keyTimes="0;0.949;1" dur="2.054s" fill="freeze" begin="0s;6727.click" /></path><path d="M63.27,28.38c0.37,0.42,0.41,1.49,0.37,1.81c-0.29,2.18-3.38,8.47-4.12,10.09" stroke-dasharray="12.806" stroke-dashoffset="12.806"><animate attributeName="stroke-dashoffset" values="12.806" fill="freeze" begin="6727.click" /><animate attributeName="stroke-dashoffset" values="12.806;12.806;0" keyTimes="0;0.941;1" dur="2.182s" fill="freeze" begin="0s;6727.click" /></path><path d="M40,42.99c0.84,0.39,1.82,0.48,2.66,0.48C52.64,43.49,58.5,42,68.3,41.21c1.39-0.11,2.24,0.28,2.94,0.49" stroke-dasharray="31.488" stroke-dashoffset="31.488"><animate attributeName="stroke-dashoffset" values="31.488" fill="freeze" begin="6727.click" /><animate attributeName="stroke-dashoffset" values="31.488;31.488;0" keyTimes="0;0.874;1" dur="2.497s" fill="freeze" begin="0s;6727.click" /></path><path d="M45.48,51.2c0.36,0.62,0.61,1.74,0.73,2.35c0.12,0.62,0.17,39.38,0.12,40.76" stroke-dasharray="43.232" stroke-dashoffset="43.232"><animate attributeName="stroke-dashoffset" values="43.232" fill="freeze" begin="6727.click" /><animate attributeName="stroke-dashoffset" values="43.232;43.232;0" keyTimes="0;0.853;1" dur="2.929s" fill="freeze" begin="0s;6727.click" /></path><path d="M46.43,52.82c1.46-0.15,15.31-2.26,16.39-2.43c1.94-0.31,2.67,2.01,2.43,2.93c-0.23,0.89-0.36,22.03-0.36,34.54c0,11.09-3.13,5.73-5.79,2.37" stroke-dasharray="68.896" stroke-dashoffset="68.896"><animate attributeName="stroke-dashoffset" values="68.896" fill="freeze" begin="6727.click" /><animate attributeName="stroke-dashoffset" values="68.896;68.896;0" keyTimes="0;0.85;1" dur="3.447s" fill="freeze" begin="0s;6727.click" /></path><path d="M46.93,63.21c5.09-0.95,13.12-1.33,17.47-1.79" stroke-dasharray="17.569" stroke-dashoffset="17.569"><animate attributeName="stroke-dashoffset" values="17.569" fill="freeze" begin="6727.click" /><animate attributeName="stroke-dashoffset" values="17.569;17.569;0" keyTimes="0;0.951;1" dur="3.623s" fill="freeze" begin="0s;6727.click" /></path><path d="M47.3,73.93c3.88-0.46,12.37-1.35,16.86-1.66" stroke-dasharray="16.944" stroke-dashoffset="16.944"><animate attributeName="stroke-dashoffset" values="16.944" fill="freeze" begin="6727.click" /><animate attributeName="stroke-dashoffset" values="16.944;16.944;0" keyTimes="0;0.955;1" dur="3.792s" fill="freeze" begin="0s;6727.click" /></path><path d="M76.46,22.87c3.99-0.26,12.17-1.25,16.69-1.73c1.03-0.11,1.67,0.07,2.19,0.15" stroke-dasharray="18.986" stroke-dashoffset="18.986"><animate attributeName="stroke-dashoffset" values="18.986" fill="freeze" begin="6727.click" /><animate attributeName="stroke-dashoffset" values="18.986;18.986;0" keyTimes="0;0.952;1" dur="3.982s" fill="freeze" begin="0s;6727.click" /></path><path d="M74.9,13.99c0.92,1.06,1.18,1.15,1.2,2.63c0.03,3.13-0.13,10.88-0.23,15.21c-0.02,0.93,0.14,1.81,1.86,1.64c4.77-0.47,8.02-1.22,13.63-1.99c2.39-0.33,2.37,0.81,2.01,2.42c-0.7,3.1-1.14,7.93-1.86,13.35" stroke-dasharray="52.662" stroke-dashoffset="52.662"><animate attributeName="stroke-dashoffset" values="52.662" fill="freeze" begin="6727.click" /><animate attributeName="stroke-dashoffset" values="52.662;52.662;0" keyTimes="0;0.883;1" dur="4.509s" fill="freeze" begin="0s;6727.click" /></path><path d="M74.96,48.75c4.04-0.25,13.75-1,18.14-1.47" stroke-dasharray="18.201" stroke-dashoffset="18.201"><animate attributeName="stroke-dashoffset" values="18.201" fill="freeze" begin="6727.click" /><animate attributeName="stroke-dashoffset" values="18.201;18.201;0" keyTimes="0;0.961;1" dur="4.691s" fill="freeze" begin="0s;6727.click" /></path><path d="M73.3,47.37c0.55,1.24,0.98,2.7,1.01,4.62c0.15,8.54-0.39,25.7-0.39,31.51c0,13.56,6.55,12.03,13.01,12.03c10.3,0,10.96-2.9,10.96-9.52" stroke-dasharray="75.214" stroke-dashoffset="75.214"><animate attributeName="stroke-dashoffset" values="75.214" fill="freeze" begin="6727.click" /><animate attributeName="stroke-dashoffset" values="75.214;75.214;0" keyTimes="0;0.892;1" dur="5.257s" fill="freeze" begin="0s;6727.click" /></path><path d="M74.63,59.54c3.36-0.53,10.29-1.54,15.84-1.97c0.89-0.07,1.41,0.14,1.85,0.3" stroke-dasharray="17.859" stroke-dashoffset="17.859"><animate attributeName="stroke-dashoffset" values="17.859" fill="freeze" begin="6727.click" /><animate attributeName="stroke-dashoffset" values="17.859;17.859;0" keyTimes="0;0.967;1" dur="5.436s" fill="freeze" begin="0s;6727.click" /></path><path d="M75.52,70c3.37-0.53,11.53-1.5,15.83-1.97c0.89-0.1,1.41,0.14,1.85,0.3" stroke-dasharray="17.851" stroke-dashoffset="17.851"><animate attributeName="stroke-dashoffset" values="17.851" fill="freeze" begin="6727.click" /><animate attributeName="stroke-dashoffset" values="17.851;17.851;0" keyTimes="0;0.968;1" dur="5.615s" fill="freeze" begin="0s;6727.click" /></path><path d="M75.17,80c3.37-0.53,12.16-1.25,16.89-1.97c0.89-0.13,1.41,0.14,1.85,0.3" stroke-dasharray="18.908" stroke-dashoffset="18.908"><animate attributeName="stroke-dashoffset" values="18.908" fill="freeze" begin="6727.click" /><animate attributeName="stroke-dashoffset" values="18.908;18.908;0" keyTimes="0;0.967;1" dur="5.804s" fill="freeze" begin="0s;6727.click" /></path></g></svg>