<svg xmlns="http://www.w3.org/2000/svg" width="109" height="109" viewBox="0 0 109 109" id="672b"><g fill="none" stroke="#666" stroke-width="9" stroke-linecap="round" stroke-linejoin="round"><g><path d="M17.75,31.2c3.38,0.8,6.46,0.85,9.52,0.51c13.98-1.58,41.74-4.25,55.23-5c3.05-0.17,6-0.3,9,0.34" /><g><path d="M27.12,51.75c2.07,0.62,4.13,0.66,7.07,0.25c12.56-1.75,26.81-3.38,40.73-4.25c2.96-0.19,5.1,0,6.96,0.25" /><path d="M52.5,10.75c1.25,1.25,2.25,3,2.25,4.75c0,0.87,0,53.95,0,75.62c0,4.12,0,7.1,0,8.38" /><g><path d="M53.25,50.5c0,1.75-0.72,2.84-1.43,3.92C43.77,66.75,27.21,82.41,13.75,89" /></g><path d="M55.62,51.88c4.35,5.37,20.9,21.25,28.87,28.51c2.47,2.25,4.68,4.01,7.76,5.37" /></g></g></g><g fill="none" stroke="#000" stroke-width="5" stroke-linecap="round" stroke-linejoin="round"><g><path d="M17.75,31.2c3.38,0.8,6.46,0.85,9.52,0.51c13.98-1.58,41.74-4.25,55.23-5c3.05-0.17,6-0.3,9,0.34" stroke-dasharray="74.08" stroke-dashoffset="74.08"><animate id="0" attributeName="stroke-dashoffset" values="74.08;0" dur="0.56s" fill="freeze" begin="0s;672b.click" /></path><g><path d="M27.12,51.75c2.07,0.62,4.13,0.66,7.07,0.25c12.56-1.75,26.81-3.38,40.73-4.25c2.96-0.19,5.1,0,6.96,0.25" stroke-dasharray="55.07" stroke-dashoffset="55.07"><animate attributeName="stroke-dashoffset" values="55.07" fill="freeze" begin="672b.click" /><animate id="1" attributeName="stroke-dashoffset" values="55.07;0" dur="0.55s" fill="freeze" begin="0.end" /></path><path d="M52.5,10.75c1.25,1.25,2.25,3,2.25,4.75c0,0.87,0,53.95,0,75.62c0,4.12,0,7.1,0,8.38" stroke-dasharray="89.39" stroke-dashoffset="89.39"><animate attributeName="stroke-dashoffset" values="89.39" fill="freeze" begin="672b.click" /><animate id="2" attributeName="stroke-dashoffset" values="89.39;0" dur="0.67s" fill="freeze" begin="1.end" /></path><g><path d="M53.25,50.5c0,1.75-0.72,2.84-1.43,3.92C43.77,66.75,27.21,82.41,13.75,89" stroke-dasharray="56.16" stroke-dashoffset="56.16"><animate attributeName="stroke-dashoffset" values="56.16" fill="freeze" begin="672b.click" /><animate id="3" attributeName="stroke-dashoffset" values="56.16;0" dur="0.56s" fill="freeze" begin="2.end" /></path></g><path d="M55.62,51.88c4.35,5.37,20.9,21.25,28.87,28.51c2.47,2.25,4.68,4.01,7.76,5.37" stroke-dasharray="50.08" stroke-dashoffset="50.08"><animate attributeName="stroke-dashoffset" values="50.08" fill="freeze" begin="672b.click" /><animate id="4" attributeName="stroke-dashoffset" values="50.08;0" dur="0.5s" fill="freeze" begin="3.end" /></path></g></g></g></svg>