<svg xmlns="http://www.w3.org/2000/svg" viewBox="0 0 109 109" id="6731"><g fill="none" stroke="#666" stroke-width="6" stroke-linecap="round" stroke-linejoin="round"><g><g><path d="M35.33,18.25c0.08,1.16,0.09,2.19-0.3,3.3c-3.18,9.12-7.64,16.58-15.78,23.99" /></g><g><path d="M32.88,34.02c1.77,0.57,4.19,0.39,6,0.12c9.58-1.46,23.21-3.72,33.25-4.74c2.14-0.22,4.49-0.21,6.59,0.2" /><g><path d="M17.94,54.5c3.45,0.97,6.81,0.56,10.33,0.03c13.49-2.01,36.72-5.03,51.36-6.28c3.01-0.26,6.1,0,9.06,0.5" /><path d="M53.16,12.25c0.98,0.98,1.42,2.75,1.42,4.5c0,12.49-0.06,49.56-0.08,72.5c0,2.77,0,5.33,0,7.62" /><path d="M51.25,52.25c0,1.5-1.06,3.01-2.18,4.48C41.04,67.35,28.62,79.12,15,86" /><path d="M55.5,52.25c5.85,5.85,19.07,18.73,28.12,26.04c2.99,2.41,5.78,4.33,9.13,6.21" /></g></g></g></g><g fill="none" stroke="#000" stroke-width="3" stroke-linecap="round" stroke-linejoin="round"><path d="M35.33,18.25c0.08,1.16,0.09,2.19-0.3,3.3c-3.18,9.12-7.64,16.58-15.78,23.99" stroke-dasharray="32.384" stroke-dashoffset="32.384"><animate attributeName="stroke-dashoffset" values="32.384;32.384;0" dur="0.324s" fill="freeze" begin="0s;6731.click" /></path><path d="M32.88,34.02c1.77,0.57,4.19,0.39,6,0.12c9.58-1.46,23.21-3.72,33.25-4.74c2.14-0.22,4.49-0.21,6.59,0.2" stroke-dasharray="46.256" stroke-dashoffset="46.256"><animate attributeName="stroke-dashoffset" values="46.256" fill="freeze" begin="6731.click" /><animate attributeName="stroke-dashoffset" values="46.256;46.256;0" keyTimes="0;0.412;1" dur="0.787s" fill="freeze" begin="0s;6731.click" /></path><path d="M17.94,54.5c3.45,0.97,6.81,0.56,10.33,0.03c13.49-2.01,36.72-5.03,51.36-6.28c3.01-0.26,6.1,0,9.06,0.5" stroke-dasharray="71.263" stroke-dashoffset="71.263"><animate attributeName="stroke-dashoffset" values="71.263" fill="freeze" begin="6731.click" /><animate attributeName="stroke-dashoffset" values="71.263;71.263;0" keyTimes="0;0.595;1" dur="1.323s" fill="freeze" begin="0s;6731.click" /></path><path d="M53.16,12.25c0.98,0.98,1.42,2.75,1.42,4.5c0,12.49-0.06,49.56-0.08,72.5c0,2.77,0,5.33,0,7.62" stroke-dasharray="84.952" stroke-dashoffset="84.952"><animate attributeName="stroke-dashoffset" values="84.952" fill="freeze" begin="6731.click" /><animate attributeName="stroke-dashoffset" values="84.952;84.952;0" keyTimes="0;0.674;1" dur="1.962s" fill="freeze" begin="0s;6731.click" /></path><path d="M51.25,52.25c0,1.5-1.06,3.01-2.18,4.48C41.04,67.35,28.62,79.12,15,86" stroke-dasharray="50.346" stroke-dashoffset="50.346"><animate attributeName="stroke-dashoffset" values="50.346" fill="freeze" begin="6731.click" /><animate attributeName="stroke-dashoffset" values="50.346;50.346;0" keyTimes="0;0.796;1" dur="2.465s" fill="freeze" begin="0s;6731.click" /></path><path d="M55.5,52.25c5.85,5.85,19.07,18.73,28.12,26.04c2.99,2.41,5.78,4.33,9.13,6.21" stroke-dasharray="49.396" stroke-dashoffset="49.396"><animate attributeName="stroke-dashoffset" values="49.396" fill="freeze" begin="6731.click" /><animate attributeName="stroke-dashoffset" values="49.396;49.396;0" keyTimes="0;0.833;1" dur="2.959s" fill="freeze" begin="0s;6731.click" /></path></g></svg>