<svg xmlns="http://www.w3.org/2000/svg" width="109" height="109" viewBox="0 0 109 109" id="6741"><g fill="none" stroke="#666" stroke-width="9" stroke-linecap="round" stroke-linejoin="round"><g><g><path d="M11.28,38.52c0.36,0.29,2.5,0.49,3.47,0.37c4.13-0.48,20.03-1.43,26.66-2.87c0.96-0.21,2.25-0.29,2.86,0" /><path d="M27.86,15.5c0.91,0.47,1.86,3.49,2.04,4.42c0.18,0.93-0.12,70.75-0.3,76.58" /><path d="M29.94,39.28c-5.82,16.02-9.06,22.79-18.08,36.81" /><path d="M32.97,46.65c2.74,2.03,8.85,6.45,11.16,10.39" /></g><g><path d="M65.63,41.5C60.94,59.51,50.75,84,39,95.17" /><path d="M56.36,16.75c1.31,0,3.25,1.94,3.62,3.64C68.5,60,76.25,73.25,90.22,89.89c1.37,1.63,3.63,3.3,4.78,3.86" /></g></g></g><g fill="none" stroke="#000" stroke-width="5" stroke-linecap="round" stroke-linejoin="round"><g><g><path d="M11.28,38.52c0.36,0.29,2.5,0.49,3.47,0.37c4.13-0.48,20.03-1.43,26.66-2.87c0.96-0.21,2.25-0.29,2.86,0" stroke-dasharray="33.247" stroke-dashoffset="33.247"><animate attributeName="stroke-dashoffset" values="33.247;33.247;0" dur="0.332s" fill="freeze" begin="0s;6741.click" /></path><path d="M27.86,15.5c0.91,0.47,1.86,3.49,2.04,4.42c0.18,0.93-0.12,70.75-0.3,76.58" stroke-dasharray="81.532" stroke-dashoffset="81.532"><animate attributeName="stroke-dashoffset" values="81.532" fill="freeze" begin="6741.click" /><animate attributeName="stroke-dashoffset" values="81.532;81.532;0" keyTimes="0;0.351;1" dur="0.945s" fill="freeze" begin="0s;6741.click" /></path><path d="M29.94,39.28c-5.82,16.02-9.06,22.79-18.08,36.81" stroke-dasharray="41.13" stroke-dashoffset="41.13"><animate attributeName="stroke-dashoffset" values="41.13" fill="freeze" begin="6741.click" /><animate attributeName="stroke-dashoffset" values="41.13;41.13;0" keyTimes="0;0.697;1" dur="1.356s" fill="freeze" begin="0s;6741.click" /></path><path d="M32.97,46.65c2.74,2.03,8.85,6.45,11.16,10.39" stroke-dasharray="15.337" stroke-dashoffset="15.337"><animate attributeName="stroke-dashoffset" values="15.337" fill="freeze" begin="6741.click" /><animate attributeName="stroke-dashoffset" values="15.337;15.337;0" keyTimes="0;0.899;1" dur="1.509s" fill="freeze" begin="0s;6741.click" /></path></g><g><path d="M65.63,41.5C60.94,59.51,50.75,84,39,95.17" stroke-dasharray="60.52" stroke-dashoffset="60.52"><animate attributeName="stroke-dashoffset" values="60.52" fill="freeze" begin="6741.click" /><animate attributeName="stroke-dashoffset" values="60.52;60.52;0" keyTimes="0;0.768;1" dur="1.964s" fill="freeze" begin="0s;6741.click" /></path><path d="M56.36,16.75c1.31,0,3.25,1.94,3.62,3.64C68.5,60,76.25,73.25,90.22,89.89c1.37,1.63,3.63,3.3,4.78,3.86" stroke-dasharray="88.344" stroke-dashoffset="88.344"><animate attributeName="stroke-dashoffset" values="88.344" fill="freeze" begin="6741.click" /><animate attributeName="stroke-dashoffset" values="88.344;88.344;0" keyTimes="0;0.747;1" dur="2.628s" fill="freeze" begin="0s;6741.click" /></path></g></g></g></svg>