<svg xmlns="http://www.w3.org/2000/svg" width="109" height="109" viewBox="0 0 109 109" id="6751"><g fill="none" stroke="#666" stroke-width="9" stroke-linecap="round" stroke-linejoin="round"><g><g><path d="M12.78,39.23c1.97,0.4,3.24,0.35,4.68,0.23c6.92-0.58,18.93-1.85,28.85-2.73c1.44-0.13,1.8-0.18,2.71,0" /><path d="M34.11,13.5c1.13,1.13,2.29,3,2.29,5.34c0,0.83-0.08,48.97-0.22,67.91c-0.03,3.54-0.05,6.55-0.08,7.5" /><path d="M35.44,39.32c0,0.93-0.26,1.58-0.6,2.35C30.38,51.75,23,63.5,15.11,72.76" /><path d="M40.72,48.97c2.53,1.53,6.78,7.28,8.66,11.26" /></g><g p4:phon="寸" xmlns:p4="http://kanjivg.tagaini.net"><path d="M52.62,41.52c2.29,0.48,4.16,0.6,6.01,0.4c13.35-1.44,23.8-3.3,34.15-3.71c1.83-0.07,4.26-0.22,5.84,0.14" /><path d="M79.89,13.25c1.49,1.49,2.26,3.12,2.26,5.52c0,14.56,0.32,65.91,0.24,70.87c-0.14,8.74-5.18,4.78-9.71,0.25" /><path d="M59.58,56.78c2.74,2.07,7.07,8.52,7.75,11.75" /></g></g></g><g fill="none" stroke="#000" stroke-width="5" stroke-linecap="round" stroke-linejoin="round"><path d="M12.78,39.23c1.97,0.4,3.24,0.35,4.68,0.23c6.92-0.58,18.93-1.85,28.85-2.73c1.44-0.13,1.8-0.18,2.71,0" stroke-dasharray="36.408" stroke-dashoffset="36.408"><animate attributeName="stroke-dashoffset" values="36.408;36.408;0" dur="0.364s" fill="freeze" begin="0s;6751.click" /></path><path d="M34.11,13.5c1.13,1.13,2.29,3,2.29,5.34c0,0.83-0.08,48.97-0.22,67.91c-0.03,3.54-0.05,6.55-0.08,7.5" stroke-dasharray="81.373" stroke-dashoffset="81.373"><animate attributeName="stroke-dashoffset" values="81.373" fill="freeze" begin="6751.click" /><animate attributeName="stroke-dashoffset" values="81.373;81.373;0" keyTimes="0;0.373;1" dur="0.976s" fill="freeze" begin="0s;6751.click" /></path><path d="M35.44,39.32c0,0.93-0.26,1.58-0.6,2.35C30.38,51.75,23,63.5,15.11,72.76" stroke-dasharray="39.386" stroke-dashoffset="39.386"><animate attributeName="stroke-dashoffset" values="39.386" fill="freeze" begin="6751.click" /><animate attributeName="stroke-dashoffset" values="39.386;39.386;0" keyTimes="0;0.712;1" dur="1.37s" fill="freeze" begin="0s;6751.click" /></path><path d="M40.72,48.97c2.53,1.53,6.78,7.28,8.66,11.26" stroke-dasharray="14.329" stroke-dashoffset="14.329"><animate attributeName="stroke-dashoffset" values="14.329" fill="freeze" begin="6751.click" /><animate attributeName="stroke-dashoffset" values="14.329;14.329;0" keyTimes="0;0.905;1" dur="1.513s" fill="freeze" begin="0s;6751.click" /></path><path d="M52.62,41.52c2.29,0.48,4.16,0.6,6.01,0.4c13.35-1.44,23.8-3.3,34.15-3.71c1.83-0.07,4.26-0.22,5.84,0.14" stroke-dasharray="46.267" stroke-dashoffset="46.267"><animate attributeName="stroke-dashoffset" values="46.267" fill="freeze" begin="6751.click" /><animate attributeName="stroke-dashoffset" values="46.267;46.267;0" keyTimes="0;0.766;1" dur="1.976s" fill="freeze" begin="0s;6751.click" /></path><path d="M79.89,13.25c1.49,1.49,2.26,3.12,2.26,5.52c0,14.56,0.32,65.91,0.24,70.87c-0.14,8.74-5.18,4.78-9.71,0.25" stroke-dasharray="92.286" stroke-dashoffset="92.286"><animate attributeName="stroke-dashoffset" values="92.286" fill="freeze" begin="6751.click" /><animate attributeName="stroke-dashoffset" values="92.286;92.286;0" keyTimes="0;0.74;1" dur="2.67s" fill="freeze" begin="0s;6751.click" /></path><path d="M59.58,56.78c2.74,2.07,7.07,8.52,7.75,11.75" stroke-dasharray="14.248" stroke-dashoffset="14.248"><animate attributeName="stroke-dashoffset" values="14.248" fill="freeze" begin="6751.click" /><animate attributeName="stroke-dashoffset" values="14.248;14.248;0" keyTimes="0;0.95;1" dur="2.812s" fill="freeze" begin="0s;6751.click" /></path></g></svg>