<svg xmlns="http://www.w3.org/2000/svg" width="109" height="109" viewBox="0 0 109 109" id="6759"><g fill="none" stroke="#666" stroke-width="9" stroke-linecap="round" stroke-linejoin="round"><g><g><path d="M12.78,36.22c0.37,0.24,2.55,0.41,3.53,0.31c4.21-0.41,17.78-1.71,24.54-2.91c0.98-0.17,2.3-0.24,2.91,0" /><path d="M28.86,16c0.91,0.47,2.04,2,2.04,4.42c0,0.95-0.12,67.25-0.3,73.08" /><path d="M30.44,37.78C25.75,53.5,20.5,63,12.11,74.59" /><path d="M32.97,46.4c2.73,1.47,7.22,6.25,9.53,9.1" /></g><g><path d="M43.5,42.58c1.5,0.42,3.23,0.98,4.69,0.78c11.56-1.6,25.81-3.85,40.72-4.76c1.87-0.11,3.18-0.15,4.42-0.01" /><path d="M59.99,13.5c1.34,1.8,1.56,2.31,1.84,6.18c2.34,32.46,11.38,62.66,27.8,74.77c5.27,3.89,4.52,0.77,3.85-7.21" /><g><path d="M75.24,19.21c3.13,1.68,8.13,5.52,9.59,8.39" /></g></g></g></g><g fill="none" stroke="#000" stroke-width="5" stroke-linecap="round" stroke-linejoin="round"><g><g><path d="M12.78,36.22c0.37,0.24,2.55,0.41,3.53,0.31c4.21-0.41,17.78-1.71,24.54-2.91c0.98-0.17,2.3-0.24,2.91,0" stroke-dasharray="31.22" stroke-dashoffset="31.22"><animate id="0" attributeName="stroke-dashoffset" values="31.22;0" dur="0.31s" fill="freeze" begin="0s;6759.click" /></path><path d="M28.86,16c0.91,0.47,2.04,2,2.04,4.42c0,0.95-0.12,67.25-0.3,73.08" stroke-dasharray="78.17" stroke-dashoffset="78.17"><animate attributeName="stroke-dashoffset" values="78.17" fill="freeze" begin="6759.click" /><animate id="1" attributeName="stroke-dashoffset" values="78.17;0" dur="0.59s" fill="freeze" begin="0.end" /></path><path d="M30.44,37.78C25.75,53.5,20.5,63,12.11,74.59" stroke-dasharray="41.35" stroke-dashoffset="41.35"><animate attributeName="stroke-dashoffset" values="41.35" fill="freeze" begin="6759.click" /><animate id="2" attributeName="stroke-dashoffset" values="41.35;0" dur="0.41s" fill="freeze" begin="1.end" /></path><path d="M32.97,46.4c2.73,1.47,7.22,6.25,9.53,9.1" stroke-dasharray="13.23" stroke-dashoffset="13.23"><animate attributeName="stroke-dashoffset" values="13.23" fill="freeze" begin="6759.click" /><animate id="3" attributeName="stroke-dashoffset" values="13.23;0" dur="0.13s" fill="freeze" begin="2.end" /></path></g><g><path d="M43.5,42.58c1.5,0.42,3.23,0.98,4.69,0.78c11.56-1.6,25.81-3.85,40.72-4.76c1.87-0.11,3.18-0.15,4.42-0.01" stroke-dasharray="50.22" stroke-dashoffset="50.22"><animate attributeName="stroke-dashoffset" values="50.22" fill="freeze" begin="6759.click" /><animate id="4" attributeName="stroke-dashoffset" values="50.22;0" dur="0.5s" fill="freeze" begin="3.end" /></path><path d="M59.99,13.5c1.34,1.8,1.56,2.31,1.84,6.18c2.34,32.46,11.38,62.66,27.8,74.77c5.27,3.89,4.52,0.77,3.85-7.21" stroke-dasharray="101.57" stroke-dashoffset="101.57"><animate attributeName="stroke-dashoffset" values="101.57" fill="freeze" begin="6759.click" /><animate id="5" attributeName="stroke-dashoffset" values="101.57;0" dur="0.76s" fill="freeze" begin="4.end" /></path><g><path d="M75.24,19.21c3.13,1.68,8.13,5.52,9.59,8.39" stroke-dasharray="12.88" stroke-dashoffset="12.88"><animate attributeName="stroke-dashoffset" values="12.88" fill="freeze" begin="6759.click" /><animate id="6" attributeName="stroke-dashoffset" values="12.88;0" dur="0.13s" fill="freeze" begin="5.end" /></path></g></g></g></g></svg>