<svg xmlns="http://www.w3.org/2000/svg" width="109" height="109" viewBox="0 0 109 109" id="6765"><g fill="none" stroke="#666" stroke-width="9" stroke-linecap="round" stroke-linejoin="round"><g><path d="M25.54,28.33c1.61,0.39,4.58,0.53,6.19,0.39c16.32-1.46,27.01-3.46,43.69-3.67c2.69-0.03,4.31,0.18,5.65,0.38" /><g><path d="M30.12,37.62c2.85,2.07,7.16,7.91,7.88,11.12" /><path d="M74.52,33c0.08,0.98-0.11,1.9-0.58,2.77c-1.33,3.04-4.7,7.77-9.06,10.86" /><g><path d="M16.62,57c2.28,0.5,4.9,0.74,8.42,0.5c14.81-1,39.08-3.5,58.03-4.25c3.54-0.14,6.33,0.25,8.55,0.5" /><path d="M51.67,10.75c1.33,1,2.18,2.75,2.18,4.5c0,0.9,0.06,58.96-0.17,78c-0.03,2.77-0.07,4.71-0.1,5.5" /><g><path d="M49.75,56.5c0,1.5-0.44,2.48-0.82,3.11C42.37,70.49,29,83.75,15.75,90.5" /></g><path d="M55,56.25c4.38,3.88,19.75,19,29.73,26.28c2.82,2.06,6.52,4.5,10.02,5.22" /></g></g></g></g><g fill="none" stroke="#000" stroke-width="5" stroke-linecap="round" stroke-linejoin="round"><g><path d="M25.54,28.33c1.61,0.39,4.58,0.53,6.19,0.39c16.32-1.46,27.01-3.46,43.69-3.67c2.69-0.03,4.31,0.18,5.65,0.38" stroke-dasharray="55.755" stroke-dashoffset="55.755"><animate attributeName="stroke-dashoffset" values="55.755;55.755;0" dur="0.558s" fill="freeze" begin="0s;6765.click" /></path><g><path d="M30.12,37.62c2.85,2.07,7.16,7.91,7.88,11.12" stroke-dasharray="13.811" stroke-dashoffset="13.811"><animate attributeName="stroke-dashoffset" values="13.811" fill="freeze" begin="6765.click" /><animate attributeName="stroke-dashoffset" values="13.811;13.811;0" keyTimes="0;0.802;1" dur="0.696s" fill="freeze" begin="0s;6765.click" /></path><path d="M74.52,33c0.08,0.98-0.11,1.9-0.58,2.77c-1.33,3.04-4.7,7.77-9.06,10.86" stroke-dasharray="17.163" stroke-dashoffset="17.163"><animate attributeName="stroke-dashoffset" values="17.163" fill="freeze" begin="6765.click" /><animate attributeName="stroke-dashoffset" values="17.163;17.163;0" keyTimes="0;0.802;1" dur="0.868s" fill="freeze" begin="0s;6765.click" /></path><g><path d="M16.62,57c2.28,0.5,4.9,0.74,8.42,0.5c14.81-1,39.08-3.5,58.03-4.25c3.54-0.14,6.33,0.25,8.55,0.5" stroke-dasharray="75.229" stroke-dashoffset="75.229"><animate attributeName="stroke-dashoffset" values="75.229" fill="freeze" begin="6765.click" /><animate attributeName="stroke-dashoffset" values="75.229;75.229;0" keyTimes="0;0.605;1" dur="1.434s" fill="freeze" begin="0s;6765.click" /></path><path d="M51.67,10.75c1.33,1,2.18,2.75,2.18,4.5c0,0.9,0.06,58.96-0.17,78c-0.03,2.77-0.07,4.71-0.1,5.5" stroke-dasharray="88.677" stroke-dashoffset="88.677"><animate attributeName="stroke-dashoffset" values="88.677" fill="freeze" begin="6765.click" /><animate attributeName="stroke-dashoffset" values="88.677;88.677;0" keyTimes="0;0.683;1" dur="2.101s" fill="freeze" begin="0s;6765.click" /></path><g><path d="M49.75,56.5c0,1.5-0.44,2.48-0.82,3.11C42.37,70.49,29,83.75,15.75,90.5" stroke-dasharray="49.089" stroke-dashoffset="49.089"><animate attributeName="stroke-dashoffset" values="49.089" fill="freeze" begin="6765.click" /><animate attributeName="stroke-dashoffset" values="49.089;49.089;0" keyTimes="0;0.811;1" dur="2.592s" fill="freeze" begin="0s;6765.click" /></path></g><path d="M55,56.25c4.38,3.88,19.75,19,29.73,26.28c2.82,2.06,6.52,4.5,10.02,5.22" stroke-dasharray="51.081" stroke-dashoffset="51.081"><animate attributeName="stroke-dashoffset" values="51.081" fill="freeze" begin="6765.click" /><animate attributeName="stroke-dashoffset" values="51.081;51.081;0" keyTimes="0;0.835;1" dur="3.103s" fill="freeze" begin="0s;6765.click" /></path></g></g></g></g></svg>