<svg xmlns="http://www.w3.org/2000/svg" width="109" height="109" viewBox="0 0 109 109" id="6771"><g fill="none" stroke="#666" stroke-width="9" stroke-linecap="round" stroke-linejoin="round"><g><g p4:part="1" xmlns:p4="http://kanjivg.tagaini.net"><path d="M30.63,25.23c2.36,0.62,4.86,0.47,7.25,0.22c8.24-0.86,22.7-2.7,32.4-3.57c2.38-0.21,4.51-0.14,6.85,0.22" /></g><g><path d="M26.77,37.86c1.03,1.03,1.78,2.05,2.07,3.44c0.86,4.14,3.61,16.02,4.97,21.91c0.43,1.87,0.72,3.14,0.76,3.36" /><path d="M29.55,39.31c14.7-2.12,34.45-4.37,48.18-5.5c2.89-0.24,4.02,2.01,3.49,4.2c-1.33,5.48-2.84,12.21-5.27,19.87c-0.52,1.65-1.08,3.3-1.7,4.94" /><path d="M32.25,51.07c8.12-0.88,37.75-4.12,45.57-4.4" /><path d="M35.76,63.99c8.99-1.05,28.37-2.68,38.3-3.23" /></g><g p4:part="2" xmlns:p4="http://kanjivg.tagaini.net"><path d="M51.25,12.32c1.5,1.5,2.25,3.5,2.25,5.25c0,4.5,0.06,55.21-0.14,75.75c-0.04,3.7-0.07,5.29-0.11,6.25" /><g><path d="M51.62,63.94c-0.24,1.91-0.81,2.76-1.27,3.45c-6.59,9.83-20.19,21.12-31.6,26.42" /></g><path d="M55,64.44c7.5,7.2,21.77,17.49,29.78,22.16c2.81,1.64,6.1,3.51,9.34,4.09" /></g></g></g><g fill="none" stroke="#000" stroke-width="5" stroke-linecap="round" stroke-linejoin="round"><g><g p4:part="1" xmlns:p4="http://kanjivg.tagaini.net"><path d="M30.63,25.23c2.36,0.62,4.86,0.47,7.25,0.22c8.24-0.86,22.7-2.7,32.4-3.57c2.38-0.21,4.51-0.14,6.85,0.22" stroke-dasharray="46.76" stroke-dashoffset="46.76"><animate id="0" attributeName="stroke-dashoffset" values="46.76;0" dur="0.47s" fill="freeze" begin="0s;6771.click" /></path></g><g><path d="M26.77,37.86c1.03,1.03,1.78,2.05,2.07,3.44c0.86,4.14,3.61,16.02,4.97,21.91c0.43,1.87,0.72,3.14,0.76,3.36" stroke-dasharray="29.99" stroke-dashoffset="29.99"><animate attributeName="stroke-dashoffset" values="29.99" fill="freeze" begin="6771.click" /><animate id="1" attributeName="stroke-dashoffset" values="29.99;0" dur="0.3s" fill="freeze" begin="0.end" /></path><path d="M29.55,39.31c14.7-2.12,34.45-4.37,48.18-5.5c2.89-0.24,4.02,2.01,3.49,4.2c-1.33,5.48-2.84,12.21-5.27,19.87c-0.52,1.65-1.08,3.3-1.7,4.94" stroke-dasharray="80.84" stroke-dashoffset="80.84"><animate attributeName="stroke-dashoffset" values="80.84" fill="freeze" begin="6771.click" /><animate id="2" attributeName="stroke-dashoffset" values="80.84;0" dur="0.61s" fill="freeze" begin="1.end" /></path><path d="M32.25,51.07c8.12-0.88,37.75-4.12,45.57-4.4" stroke-dasharray="45.79" stroke-dashoffset="45.79"><animate attributeName="stroke-dashoffset" values="45.79" fill="freeze" begin="6771.click" /><animate id="3" attributeName="stroke-dashoffset" values="45.79;0" dur="0.46s" fill="freeze" begin="2.end" /></path><path d="M35.76,63.99c8.99-1.05,28.37-2.68,38.3-3.23" stroke-dasharray="38.44" stroke-dashoffset="38.44"><animate attributeName="stroke-dashoffset" values="38.44" fill="freeze" begin="6771.click" /><animate id="4" attributeName="stroke-dashoffset" values="38.44;0" dur="0.38s" fill="freeze" begin="3.end" /></path></g><g p4:part="2" xmlns:p4="http://kanjivg.tagaini.net"><path d="M51.25,12.32c1.5,1.5,2.25,3.5,2.25,5.25c0,4.5,0.06,55.21-0.14,75.75c-0.04,3.7-0.07,5.29-0.11,6.25" stroke-dasharray="87.86" stroke-dashoffset="87.86"><animate attributeName="stroke-dashoffset" values="87.86" fill="freeze" begin="6771.click" /><animate id="5" attributeName="stroke-dashoffset" values="87.86;0" dur="0.66s" fill="freeze" begin="4.end" /></path><g><path d="M51.62,63.94c-0.24,1.91-0.81,2.76-1.27,3.45c-6.59,9.83-20.19,21.12-31.6,26.42" stroke-dasharray="45.32" stroke-dashoffset="45.32"><animate attributeName="stroke-dashoffset" values="45.32" fill="freeze" begin="6771.click" /><animate id="6" attributeName="stroke-dashoffset" values="45.32;0" dur="0.45s" fill="freeze" begin="5.end" /></path></g><path d="M55,64.44c7.5,7.2,21.77,17.49,29.78,22.16c2.81,1.64,6.1,3.51,9.34,4.09" stroke-dasharray="47.43" stroke-dashoffset="47.43"><animate attributeName="stroke-dashoffset" values="47.43" fill="freeze" begin="6771.click" /><animate id="7" attributeName="stroke-dashoffset" values="47.43;0" dur="0.47s" fill="freeze" begin="6.end" /></path></g></g></g></svg>