<svg xmlns="http://www.w3.org/2000/svg" width="109" height="109" viewBox="0 0 109 109" id="6785"><g fill="none" stroke="#666" stroke-width="9" stroke-linecap="round" stroke-linejoin="round"><g><g><path d="M12.53,36.3c0.37,0.26,2.53,0.43,3.5,0.33c4.17-0.43,19.16-1.83,25.86-3.11c0.97-0.18,2.27-0.25,2.88,0" /><path d="M29.36,13.5c0.91,0.47,2.04,3,2.04,5.42c0,0.95-0.12,70.75-0.3,76.58" /><path d="M30.94,39.28c-5.9,16.34-9.19,23.25-18.33,37.56" /><path d="M33.97,46.15c2.23,1.71,5.9,7.28,7.78,10.6" /></g><g p4:partial xmlns:p4="http://kanjivg.tagaini.net"><g><path d="M48.5,21.8c1.05,0.39,2.98,0.44,4.04,0.39c6.34-0.28,26.46-1.94,36.02-2.98c1.75-0.19,2.81,0.19,3.69,0.39" /><g><path d="M45,49.89c1.27,0.44,3.59,0.95,4.87,0.94c6.63-0.03,31.99-2.67,43.43-2.51c2.12,0.03,3.39,0.21,4.45,0.43" /><path d="M59.25,24.75c1.25,2,1.5,2.25,1.5,3.75s0,4.75,0,17.5s-3.5,38.5-17,46.25" /></g></g><g p4:partial><g p4:partial><path d="M78,23.5c1,1,1.75,2,1.75,3s0,66.5,0,69.5" /></g></g></g></g></g><g fill="none" stroke="#000" stroke-width="5" stroke-linecap="round" stroke-linejoin="round"><g><g><path d="M12.53,36.3c0.37,0.26,2.53,0.43,3.5,0.33c4.17-0.43,19.16-1.83,25.86-3.11c0.97-0.18,2.27-0.25,2.88,0" stroke-dasharray="32.5" stroke-dashoffset="32.5"><animate id="0" attributeName="stroke-dashoffset" values="32.5;0" dur="0.32s" fill="freeze" begin="0s;6785.click" /></path><path d="M29.36,13.5c0.91,0.47,2.04,3,2.04,5.42c0,0.95-0.12,70.75-0.3,76.58" stroke-dasharray="82.55" stroke-dashoffset="82.55"><animate attributeName="stroke-dashoffset" values="82.55" fill="freeze" begin="6785.click" /><animate id="1" attributeName="stroke-dashoffset" values="82.55;0" dur="0.62s" fill="freeze" begin="0.end" /></path><path d="M30.94,39.28c-5.9,16.34-9.19,23.25-18.33,37.56" stroke-dasharray="41.91" stroke-dashoffset="41.91"><animate attributeName="stroke-dashoffset" values="41.91" fill="freeze" begin="6785.click" /><animate id="2" attributeName="stroke-dashoffset" values="41.91;0" dur="0.42s" fill="freeze" begin="1.end" /></path><path d="M33.97,46.15c2.23,1.71,5.9,7.28,7.78,10.6" stroke-dasharray="13.2" stroke-dashoffset="13.2"><animate attributeName="stroke-dashoffset" values="13.2" fill="freeze" begin="6785.click" /><animate id="3" attributeName="stroke-dashoffset" values="13.2;0" dur="0.13s" fill="freeze" begin="2.end" /></path></g><g p4:partial xmlns:p4="http://kanjivg.tagaini.net"><g><path d="M48.5,21.8c1.05,0.39,2.98,0.44,4.04,0.39c6.34-0.28,26.46-1.94,36.02-2.98c1.75-0.19,2.81,0.19,3.69,0.39" stroke-dasharray="43.96" stroke-dashoffset="43.96"><animate attributeName="stroke-dashoffset" values="43.96" fill="freeze" begin="6785.click" /><animate id="4" attributeName="stroke-dashoffset" values="43.96;0" dur="0.44s" fill="freeze" begin="3.end" /></path><g><path d="M45,49.89c1.27,0.44,3.59,0.95,4.87,0.94c6.63-0.03,31.99-2.67,43.43-2.51c2.12,0.03,3.39,0.21,4.45,0.43" stroke-dasharray="52.97" stroke-dashoffset="52.97"><animate attributeName="stroke-dashoffset" values="52.97" fill="freeze" begin="6785.click" /><animate id="5" attributeName="stroke-dashoffset" values="52.97;0" dur="0.53s" fill="freeze" begin="4.end" /></path><path d="M59.25,24.75c1.25,2,1.5,2.25,1.5,3.75s0,4.75,0,17.5s-3.5,38.5-17,46.25" stroke-dasharray="72.75" stroke-dashoffset="72.75"><animate attributeName="stroke-dashoffset" values="72.75" fill="freeze" begin="6785.click" /><animate id="6" attributeName="stroke-dashoffset" values="72.75;0" dur="0.55s" fill="freeze" begin="5.end" /></path></g></g><g p4:partial><g p4:partial><path d="M78,23.5c1,1,1.75,2,1.75,3s0,66.5,0,69.5" stroke-dasharray="73.06" stroke-dashoffset="73.06"><animate attributeName="stroke-dashoffset" values="73.06" fill="freeze" begin="6785.click" /><animate id="7" attributeName="stroke-dashoffset" values="73.06;0" dur="0.55s" fill="freeze" begin="6.end" /></path></g></g></g></g></g></svg>