<svg xmlns="http://www.w3.org/2000/svg" width="109" height="109" viewBox="0 0 109 109" id="6789"><g fill="none" stroke="#666" stroke-width="9" stroke-linecap="round" stroke-linejoin="round"><g><g><path d="M12.78,37.87c0.36,0.18,2.51,0.31,3.48,0.24c4.14-0.31,17.99-1.68,24.65-2.6c0.96-0.13,2.26-0.18,2.87,0" /><path d="M27.86,14c0.91,0.47,2.54,2.25,2.54,4.92c0,0.95-0.12,70.75-0.3,76.58" /><path d="M30.44,39.28c-6.23,16.56-9.69,23.56-19.33,38.06" /><path d="M33.47,45.9c2.12,1.59,6.49,6.76,8.28,9.85" /></g><g p4:partial xmlns:p4="http://kanjivg.tagaini.net"><path d="M46.11,23.63c0.88,0.52,3.75,0.58,4.65,0.55c10.64-0.4,28.62-2.22,38.62-2.76c1.36-0.07,2.6,0.1,3.73,0.54" /><path d="M67.61,26.36c1.74,2.33,1.74,3.73,1.74,5.6c0,13.06-0.02,36.71-0.02,57.64" /><path d="M49.14,55.87c0.79,0.52,3.41,0.76,4.23,0.73c8.63-0.35,22.47-1.23,32.41-2.15c0.99-0.09,3.17-0.21,4.65,0.24" /><path d="M39.59,90.89c1.47,0.36,4.06,0.72,6.38,0.5c14.93-1.4,30.07-2.65,47.72-2.37c1.84,0.03,4.04,0.4,4.96,0.78" /></g></g></g><g fill="none" stroke="#000" stroke-width="5" stroke-linecap="round" stroke-linejoin="round"><g><g><path d="M12.78,37.87c0.36,0.18,2.51,0.31,3.48,0.24c4.14-0.31,17.99-1.68,24.65-2.6c0.96-0.13,2.26-0.18,2.87,0" stroke-dasharray="31.17" stroke-dashoffset="31.17"><animate id="0" attributeName="stroke-dashoffset" values="31.17;0" dur="0.31s" fill="freeze" begin="0s;6789.click" /></path><path d="M27.86,14c0.91,0.47,2.54,2.25,2.54,4.92c0,0.95-0.12,70.75-0.3,76.58" stroke-dasharray="82.36" stroke-dashoffset="82.36"><animate attributeName="stroke-dashoffset" values="82.36" fill="freeze" begin="6789.click" /><animate id="1" attributeName="stroke-dashoffset" values="82.36;0" dur="0.62s" fill="freeze" begin="0.end" /></path><path d="M30.44,39.28c-6.23,16.56-9.69,23.56-19.33,38.06" stroke-dasharray="42.82" stroke-dashoffset="42.82"><animate attributeName="stroke-dashoffset" values="42.82" fill="freeze" begin="6789.click" /><animate id="2" attributeName="stroke-dashoffset" values="42.82;0" dur="0.43s" fill="freeze" begin="1.end" /></path><path d="M33.47,45.9c2.12,1.59,6.49,6.76,8.28,9.85" stroke-dasharray="12.92" stroke-dashoffset="12.92"><animate attributeName="stroke-dashoffset" values="12.92" fill="freeze" begin="6789.click" /><animate id="3" attributeName="stroke-dashoffset" values="12.92;0" dur="0.13s" fill="freeze" begin="2.end" /></path></g><g p4:partial xmlns:p4="http://kanjivg.tagaini.net"><path d="M46.11,23.63c0.88,0.52,3.75,0.58,4.65,0.55c10.64-0.4,28.62-2.22,38.62-2.76c1.36-0.07,2.6,0.1,3.73,0.54" stroke-dasharray="47.23" stroke-dashoffset="47.23"><animate attributeName="stroke-dashoffset" values="47.23" fill="freeze" begin="6789.click" /><animate id="4" attributeName="stroke-dashoffset" values="47.23;0" dur="0.47s" fill="freeze" begin="3.end" /></path><path d="M67.61,26.36c1.74,2.33,1.74,3.73,1.74,5.6c0,13.06-0.02,36.71-0.02,57.64" stroke-dasharray="63.65" stroke-dashoffset="63.65"><animate attributeName="stroke-dashoffset" values="63.65" fill="freeze" begin="6789.click" /><animate id="5" attributeName="stroke-dashoffset" values="63.65;0" dur="0.48s" fill="freeze" begin="4.end" /></path><path d="M49.14,55.87c0.79,0.52,3.41,0.76,4.23,0.73c8.63-0.35,22.47-1.23,32.41-2.15c0.99-0.09,3.17-0.21,4.65,0.24" stroke-dasharray="41.49" stroke-dashoffset="41.49"><animate attributeName="stroke-dashoffset" values="41.49" fill="freeze" begin="6789.click" /><animate id="6" attributeName="stroke-dashoffset" values="41.49;0" dur="0.41s" fill="freeze" begin="5.end" /></path><path d="M39.59,90.89c1.47,0.36,4.06,0.72,6.38,0.5c14.93-1.4,30.07-2.65,47.72-2.37c1.84,0.03,4.04,0.4,4.96,0.78" stroke-dasharray="59.27" stroke-dashoffset="59.27"><animate attributeName="stroke-dashoffset" values="59.27" fill="freeze" begin="6789.click" /><animate id="7" attributeName="stroke-dashoffset" values="59.27;0" dur="0.59s" fill="freeze" begin="6.end" /></path></g></g></g></svg>