<svg xmlns="http://www.w3.org/2000/svg" width="109" height="109" viewBox="0 0 109 109" id="678b"><g fill="none" stroke="#666" stroke-width="9" stroke-linecap="round" stroke-linejoin="round"><g><g><path d="M13.78,37.72c0.35,0.24,2.39,0.36,3.31,0.31c5.17-0.28,17.12-1.21,23.45-2.41c0.92-0.17,2.15-0.24,2.73,0" /><path d="M29.36,14.5c0.91,0.47,1.89,2.5,2.04,4.42c0.07,0.95-0.12,69.75-0.3,75.58" /><path d="M30.94,39.28c-6.63,16.56-10.32,23.56-20.58,38.06" /><path d="M33.47,46.4c2.37,1.59,6.28,6.76,8.28,9.85" /></g><g><g><path d="M69.8,13.75c1.07,0.66,1.84,2.72,1.84,4.04c0,4.86-0.34,9.64-0.14,13.75" /><path d="M48.38,33.14c1.62,0.36,3.45,0.66,4.77,0.52c10.66-1.1,25.95-2.17,40.43-2.93c2.23-0.12,2.38,0.04,4.04,0.67" /></g><g><path d="M68.02,44.82c5.76,2.14,12.59,4.1,17.93,5c3.02,0.51,4.19,1.64,3.72,4.09c-1.33,6.83-9.99,30.52-13.79,35.85c-4.13,5.79-6.38,0.5-7.62-1.5" /><path d="M68.11,35c0.38,1.58,0.3,3.36-0.15,5.14c-3.11,12.27-12.09,37.08-26.04,48.69" /></g></g></g></g><g fill="none" stroke="#000" stroke-width="5" stroke-linecap="round" stroke-linejoin="round"><g><g><path d="M13.78,37.72c0.35,0.24,2.39,0.36,3.31,0.31c5.17-0.28,17.12-1.21,23.45-2.41c0.92-0.17,2.15-0.24,2.73,0" stroke-dasharray="29.69" stroke-dashoffset="29.69"><animate id="0" attributeName="stroke-dashoffset" values="29.69;0" dur="0.3s" fill="freeze" begin="0s;678b.click" /></path><path d="M29.36,14.5c0.91,0.47,1.89,2.5,2.04,4.42c0.07,0.95-0.12,69.75-0.3,75.58" stroke-dasharray="80.59" stroke-dashoffset="80.59"><animate attributeName="stroke-dashoffset" values="80.59" fill="freeze" begin="678b.click" /><animate id="1" attributeName="stroke-dashoffset" values="80.59;0" dur="0.61s" fill="freeze" begin="0.end" /></path><path d="M30.94,39.28c-6.63,16.56-10.32,23.56-20.58,38.06" stroke-dasharray="43.41" stroke-dashoffset="43.41"><animate attributeName="stroke-dashoffset" values="43.41" fill="freeze" begin="678b.click" /><animate id="2" attributeName="stroke-dashoffset" values="43.41;0" dur="0.43s" fill="freeze" begin="1.end" /></path><path d="M33.47,46.4c2.37,1.59,6.28,6.76,8.28,9.85" stroke-dasharray="12.92" stroke-dashoffset="12.92"><animate attributeName="stroke-dashoffset" values="12.92" fill="freeze" begin="678b.click" /><animate id="3" attributeName="stroke-dashoffset" values="12.92;0" dur="0.13s" fill="freeze" begin="2.end" /></path></g><g><g><path d="M69.8,13.75c1.07,0.66,1.84,2.72,1.84,4.04c0,4.86-0.34,9.64-0.14,13.75" stroke-dasharray="18.34" stroke-dashoffset="18.34"><animate attributeName="stroke-dashoffset" values="18.34" fill="freeze" begin="678b.click" /><animate id="4" attributeName="stroke-dashoffset" values="18.34;0" dur="0.18s" fill="freeze" begin="3.end" /></path><path d="M48.38,33.14c1.62,0.36,3.45,0.66,4.77,0.52c10.66-1.1,25.95-2.17,40.43-2.93c2.23-0.12,2.38,0.04,4.04,0.67" stroke-dasharray="49.51" stroke-dashoffset="49.51"><animate attributeName="stroke-dashoffset" values="49.51" fill="freeze" begin="678b.click" /><animate id="5" attributeName="stroke-dashoffset" values="49.51;0" dur="0.5s" fill="freeze" begin="4.end" /></path></g><g><path d="M68.02,44.82c5.76,2.14,12.59,4.1,17.93,5c3.02,0.51,4.19,1.64,3.72,4.09c-1.33,6.83-9.99,30.52-13.79,35.85c-4.13,5.79-6.38,0.5-7.62-1.5" stroke-dasharray="74.21" stroke-dashoffset="74.21"><animate attributeName="stroke-dashoffset" values="74.21" fill="freeze" begin="678b.click" /><animate id="6" attributeName="stroke-dashoffset" values="74.21;0" dur="0.56s" fill="freeze" begin="5.end" /></path><path d="M68.11,35c0.38,1.58,0.3,3.36-0.15,5.14c-3.11,12.27-12.09,37.08-26.04,48.69" stroke-dasharray="61.16" stroke-dashoffset="61.16"><animate attributeName="stroke-dashoffset" values="61.16" fill="freeze" begin="678b.click" /><animate id="7" attributeName="stroke-dashoffset" values="61.16;0" dur="0.46s" fill="freeze" begin="6.end" /></path></g></g></g></g></svg>