<svg xmlns="http://www.w3.org/2000/svg" width="109" height="109" viewBox="0 0 109 109" id="67a1"><g fill="none" stroke="#666" stroke-width="9" stroke-linecap="round" stroke-linejoin="round"><g><g><path d="M11.03,39.22c0.37,0.24,2.54,0.41,3.51,0.31c4.18-0.41,17.11-1.71,23.83-2.91c0.97-0.17,2.28-0.24,2.9,0" /><path d="M26.86,14.5c0.91,0.47,2.04,2.75,2.04,4.92c0,0.95-0.12,71.75-0.3,77.58" /><path d="M28.44,42.28C23.25,57,20,63.25,11.11,74.59" /><path d="M31.97,49.9c2.37,1.59,6.28,6.76,8.28,9.85" /></g><g><g><path d="M67.19,15c0.06,0.41,0.26,1.21-0.11,1.64c-5.32,6.11-11.82,11.11-21.2,15.66" /></g><g><g><path d="M45.25,51.8c0.95,0.23,2.69,0.27,3.64,0.23c9.89-0.39,33.22-3.55,45.78-3.75c1.58-0.02,2.54,0.11,3.33,0.23" /></g><g><path d="M59.9,27.25c0.59,1.58,1.19,3.24,1.19,5.55c0,31.2-0.58,51.95-17.46,62.7" /><path d="M80.24,14.25c0.94,0.94,1.46,2.23,1.46,3.25c0,6.75-0.22,73.25-0.22,80.5" /></g></g></g></g></g><g fill="none" stroke="#000" stroke-width="5" stroke-linecap="round" stroke-linejoin="round"><g><g><path d="M11.03,39.22c0.37,0.24,2.54,0.41,3.51,0.31c4.18-0.41,17.11-1.71,23.83-2.91c0.97-0.17,2.28-0.24,2.9,0" stroke-dasharray="30.48" stroke-dashoffset="30.48"><animate id="0" attributeName="stroke-dashoffset" values="30.48;0" dur="0.3s" fill="freeze" begin="0s;67a1.click" /></path><path d="M26.86,14.5c0.91,0.47,2.04,2.75,2.04,4.92c0,0.95-0.12,71.75-0.3,77.58" stroke-dasharray="83.08" stroke-dashoffset="83.08"><animate attributeName="stroke-dashoffset" values="83.08" fill="freeze" begin="67a1.click" /><animate id="1" attributeName="stroke-dashoffset" values="83.08;0" dur="0.62s" fill="freeze" begin="0.end" /></path><path d="M28.44,42.28C23.25,57,20,63.25,11.11,74.59" stroke-dasharray="36.89" stroke-dashoffset="36.89"><animate attributeName="stroke-dashoffset" values="36.89" fill="freeze" begin="67a1.click" /><animate id="2" attributeName="stroke-dashoffset" values="36.89;0" dur="0.37s" fill="freeze" begin="1.end" /></path><path d="M31.97,49.9c2.37,1.59,6.28,6.76,8.28,9.85" stroke-dasharray="12.92" stroke-dashoffset="12.92"><animate attributeName="stroke-dashoffset" values="12.92" fill="freeze" begin="67a1.click" /><animate id="3" attributeName="stroke-dashoffset" values="12.92;0" dur="0.13s" fill="freeze" begin="2.end" /></path></g><g><g><path d="M67.19,15c0.06,0.41,0.26,1.21-0.11,1.64c-5.32,6.11-11.82,11.11-21.2,15.66" stroke-dasharray="28.24" stroke-dashoffset="28.24"><animate attributeName="stroke-dashoffset" values="28.24" fill="freeze" begin="67a1.click" /><animate id="4" attributeName="stroke-dashoffset" values="28.24;0" dur="0.28s" fill="freeze" begin="3.end" /></path></g><g><g><path d="M45.25,51.8c0.95,0.23,2.69,0.27,3.64,0.23c9.89-0.39,33.22-3.55,45.78-3.75c1.58-0.02,2.54,0.11,3.33,0.23" stroke-dasharray="52.94" stroke-dashoffset="52.94"><animate attributeName="stroke-dashoffset" values="52.94" fill="freeze" begin="67a1.click" /><animate id="5" attributeName="stroke-dashoffset" values="52.94;0" dur="0.53s" fill="freeze" begin="4.end" /></path></g><g><path d="M59.9,27.25c0.59,1.58,1.19,3.24,1.19,5.55c0,31.2-0.58,51.95-17.46,62.7" stroke-dasharray="73.76" stroke-dashoffset="73.76"><animate attributeName="stroke-dashoffset" values="73.76" fill="freeze" begin="67a1.click" /><animate id="6" attributeName="stroke-dashoffset" values="73.76;0" dur="0.55s" fill="freeze" begin="5.end" /></path><path d="M80.24,14.25c0.94,0.94,1.46,2.23,1.46,3.25c0,6.75-0.22,73.25-0.22,80.5" stroke-dasharray="84.15" stroke-dashoffset="84.15"><animate attributeName="stroke-dashoffset" values="84.15" fill="freeze" begin="67a1.click" /><animate id="7" attributeName="stroke-dashoffset" values="84.15;0" dur="0.63s" fill="freeze" begin="6.end" /></path></g></g></g></g></g></svg>