<svg xmlns="http://www.w3.org/2000/svg" viewBox="0 0 109 109" id="67cf"><g fill="none" stroke="#666" stroke-width="6" stroke-linecap="round" stroke-linejoin="round"><g><g><path d="M15.28,38.73c0.39,0.23,2.7,0.39,3.74,0.3c4.46-0.39,19.37-3.03,26.54-4.17c1.04-0.16,1.3-0.23,1.96,0" /><path d="M32.36,14c0.91,0.47,2.54,2.25,2.54,4.92c0,0.95-0.12,70.25-0.3,76.08" /><path d="M34.44,40.78c-6.29,15.04-10.85,21.4-20.58,34.56" /><path d="M37.97,47.4c2.68,2.03,6.4,7.71,8.66,11.64" /></g><g><g><path d="M71.41,16.5c0.5,1.02,0.68,2.31,0.46,3.15c-1.63,6.18-6.71,17.77-12.18,24.81" /></g><g><path d="M53.8,44.76c0.59,1.14,1.19,3.03,1.19,4.55c0,1.51,1.19,33.1,1.19,42.19" /><path d="M55.35,47.5c3.35-0.19,31.07-3.57,34.12-3.89c1.94-0.21,2.73,1.24,2.72,3.63c-0.01,4.08-1.53,30.62-2.16,43.12" /><path d="M55.81,66.47c7.03-0.57,29.92-3.11,35.05-3.11" /><path d="M56.98,88.53c8.41-0.61,23.88-2.06,32.85-2.34" /></g></g></g></g><g fill="none" stroke="#000" stroke-width="3" stroke-linecap="round" stroke-linejoin="round"><path d="M15.28,38.73c0.39,0.23,2.7,0.39,3.74,0.3c4.46-0.39,19.37-3.03,26.54-4.17c1.04-0.16,1.3-0.23,1.96,0" stroke-dasharray="32.629" stroke-dashoffset="32.629"><animate attributeName="stroke-dashoffset" values="32.629;32.629;0" dur="0.326s" fill="freeze" begin="0s;67cf.click" /></path><path d="M32.36,14c0.91,0.47,2.54,2.25,2.54,4.92c0,0.95-0.12,70.25-0.3,76.08" stroke-dasharray="81.86" stroke-dashoffset="81.86"><animate attributeName="stroke-dashoffset" values="81.86" fill="freeze" begin="67cf.click" /><animate attributeName="stroke-dashoffset" values="81.86;81.86;0" keyTimes="0;0.346;1" dur="0.941s" fill="freeze" begin="0s;67cf.click" /></path><path d="M34.44,40.78c-6.29,15.04-10.85,21.4-20.58,34.56" stroke-dasharray="40.359" stroke-dashoffset="40.359"><animate attributeName="stroke-dashoffset" values="40.359" fill="freeze" begin="67cf.click" /><animate attributeName="stroke-dashoffset" values="40.359;40.359;0" keyTimes="0;0.7;1" dur="1.345s" fill="freeze" begin="0s;67cf.click" /></path><path d="M37.97,47.4c2.68,2.03,6.4,7.71,8.66,11.64" stroke-dasharray="14.576" stroke-dashoffset="14.576"><animate attributeName="stroke-dashoffset" values="14.576" fill="freeze" begin="67cf.click" /><animate attributeName="stroke-dashoffset" values="14.576;14.576;0" keyTimes="0;0.902;1" dur="1.491s" fill="freeze" begin="0s;67cf.click" /></path><path d="M71.41,16.5c0.5,1.02,0.68,2.31,0.46,3.15c-1.63,6.18-6.71,17.77-12.18,24.81" stroke-dasharray="31.02" stroke-dashoffset="31.02"><animate attributeName="stroke-dashoffset" values="31.02" fill="freeze" begin="67cf.click" /><animate attributeName="stroke-dashoffset" values="31.02;31.02;0" keyTimes="0;0.828;1" dur="1.801s" fill="freeze" begin="0s;67cf.click" /></path><path d="M53.8,44.76c0.59,1.14,1.19,3.03,1.19,4.55c0,1.51,1.19,33.1,1.19,42.19" stroke-dasharray="46.949" stroke-dashoffset="46.949"><animate attributeName="stroke-dashoffset" values="46.949" fill="freeze" begin="67cf.click" /><animate attributeName="stroke-dashoffset" values="46.949;46.949;0" keyTimes="0;0.793;1" dur="2.27s" fill="freeze" begin="0s;67cf.click" /></path><path d="M55.35,47.5c3.35-0.19,31.07-3.57,34.12-3.89c1.94-0.21,2.73,1.24,2.72,3.63c-0.01,4.08-1.53,30.62-2.16,43.12" stroke-dasharray="82.799" stroke-dashoffset="82.799"><animate attributeName="stroke-dashoffset" values="82.799" fill="freeze" begin="67cf.click" /><animate attributeName="stroke-dashoffset" values="82.799;82.799;0" keyTimes="0;0.785;1" dur="2.893s" fill="freeze" begin="0s;67cf.click" /></path><path d="M55.81,66.47c7.03-0.57,29.92-3.11,35.05-3.11" stroke-dasharray="35.193" stroke-dashoffset="35.193"><animate attributeName="stroke-dashoffset" values="35.193" fill="freeze" begin="67cf.click" /><animate attributeName="stroke-dashoffset" values="35.193;35.193;0" keyTimes="0;0.892;1" dur="3.245s" fill="freeze" begin="0s;67cf.click" /></path><path d="M56.98,88.53c8.41-0.61,23.88-2.06,32.85-2.34" stroke-dasharray="32.937" stroke-dashoffset="32.937"><animate attributeName="stroke-dashoffset" values="32.937" fill="freeze" begin="67cf.click" /><animate attributeName="stroke-dashoffset" values="32.937;32.937;0" keyTimes="0;0.908;1" dur="3.574s" fill="freeze" begin="0s;67cf.click" /></path></g></svg>