<svg xmlns="http://www.w3.org/2000/svg" width="109" height="109" viewBox="0 0 109 109" id="67cf"><g fill="none" stroke="#666" stroke-width="9" stroke-linecap="round" stroke-linejoin="round"><g><g><path d="M15.28,38.73c0.39,0.23,2.7,0.39,3.74,0.3c4.46-0.39,19.37-3.03,26.54-4.17c1.04-0.16,1.3-0.23,1.96,0" /><path d="M32.36,14c0.91,0.47,2.54,2.25,2.54,4.92c0,0.95-0.12,70.25-0.3,76.08" /><path d="M34.44,40.78c-6.29,15.04-10.85,21.4-20.58,34.56" /><path d="M37.97,47.4c2.68,2.03,6.4,7.71,8.66,11.64" /></g><g><g><path d="M71.41,16.5c0.5,1.02,0.68,2.31,0.46,3.15c-1.63,6.18-6.71,17.77-12.18,24.81" /></g><g><path d="M53.8,44.76c0.59,1.14,1.19,3.03,1.19,4.55c0,1.51,1.19,33.1,1.19,42.19" /><path d="M55.35,47.5c3.35-0.19,31.07-3.57,34.12-3.89c1.94-0.21,2.73,1.24,2.72,3.63c-0.01,4.08-1.53,30.62-2.16,43.12" /><path d="M55.81,66.47c7.03-0.57,29.92-3.11,35.05-3.11" /><path d="M56.98,88.53c8.41-0.61,23.88-2.06,32.85-2.34" /></g></g></g></g><g fill="none" stroke="#000" stroke-width="5" stroke-linecap="round" stroke-linejoin="round"><g><g><path d="M15.28,38.73c0.39,0.23,2.7,0.39,3.74,0.3c4.46-0.39,19.37-3.03,26.54-4.17c1.04-0.16,1.3-0.23,1.96,0" stroke-dasharray="32.63" stroke-dashoffset="32.63"><animate id="0" attributeName="stroke-dashoffset" values="32.63;0" dur="0.33s" fill="freeze" begin="0s;67cf.click" /></path><path d="M32.36,14c0.91,0.47,2.54,2.25,2.54,4.92c0,0.95-0.12,70.25-0.3,76.08" stroke-dasharray="81.86" stroke-dashoffset="81.86"><animate attributeName="stroke-dashoffset" values="81.86" fill="freeze" begin="67cf.click" /><animate id="1" attributeName="stroke-dashoffset" values="81.86;0" dur="0.62s" fill="freeze" begin="0.end" /></path><path d="M34.44,40.78c-6.29,15.04-10.85,21.4-20.58,34.56" stroke-dasharray="40.36" stroke-dashoffset="40.36"><animate attributeName="stroke-dashoffset" values="40.36" fill="freeze" begin="67cf.click" /><animate id="2" attributeName="stroke-dashoffset" values="40.36;0" dur="0.4s" fill="freeze" begin="1.end" /></path><path d="M37.97,47.4c2.68,2.03,6.4,7.71,8.66,11.64" stroke-dasharray="14.57" stroke-dashoffset="14.57"><animate attributeName="stroke-dashoffset" values="14.57" fill="freeze" begin="67cf.click" /><animate id="3" attributeName="stroke-dashoffset" values="14.57;0" dur="0.15s" fill="freeze" begin="2.end" /></path></g><g><g><path d="M71.41,16.5c0.5,1.02,0.68,2.31,0.46,3.15c-1.63,6.18-6.71,17.77-12.18,24.81" stroke-dasharray="31.02" stroke-dashoffset="31.02"><animate attributeName="stroke-dashoffset" values="31.02" fill="freeze" begin="67cf.click" /><animate id="4" attributeName="stroke-dashoffset" values="31.02;0" dur="0.31s" fill="freeze" begin="3.end" /></path></g><g><path d="M53.8,44.76c0.59,1.14,1.19,3.03,1.19,4.55c0,1.51,1.19,33.1,1.19,42.19" stroke-dasharray="46.95" stroke-dashoffset="46.95"><animate attributeName="stroke-dashoffset" values="46.95" fill="freeze" begin="67cf.click" /><animate id="5" attributeName="stroke-dashoffset" values="46.95;0" dur="0.47s" fill="freeze" begin="4.end" /></path><path d="M55.35,47.5c3.35-0.19,31.07-3.57,34.12-3.89c1.94-0.21,2.73,1.24,2.72,3.63c-0.01,4.08-1.53,30.62-2.16,43.12" stroke-dasharray="82.8" stroke-dashoffset="82.8"><animate attributeName="stroke-dashoffset" values="82.8" fill="freeze" begin="67cf.click" /><animate id="6" attributeName="stroke-dashoffset" values="82.8;0" dur="0.62s" fill="freeze" begin="5.end" /></path><path d="M55.81,66.47c7.03-0.57,29.92-3.11,35.05-3.11" stroke-dasharray="35.19" stroke-dashoffset="35.19"><animate attributeName="stroke-dashoffset" values="35.19" fill="freeze" begin="67cf.click" /><animate id="7" attributeName="stroke-dashoffset" values="35.19;0" dur="0.35s" fill="freeze" begin="6.end" /></path><path d="M56.98,88.53c8.41-0.61,23.88-2.06,32.85-2.34" stroke-dasharray="32.94" stroke-dashoffset="32.94"><animate attributeName="stroke-dashoffset" values="32.94" fill="freeze" begin="67cf.click" /><animate id="8" attributeName="stroke-dashoffset" values="32.94;0" dur="0.33s" fill="freeze" begin="7.end" /></path></g></g></g></g></svg>