<svg xmlns="http://www.w3.org/2000/svg" width="109" height="109" viewBox="0 0 109 109" id="67d8"><g fill="none" stroke="#666" stroke-width="9" stroke-linecap="round" stroke-linejoin="round"><g><g><path d="M12.28,38.25c0.39,0.23,2.68,0.38,3.71,0.29c4.43-0.38,19.22-2.07,26.33-3.2c1.03-0.16,1.29-0.23,1.94,0" /><path d="M29.36,13.5c0.91,0.47,2.54,2,2.54,4.92c0,0.95-0.12,70.25-0.3,76.08" /><path d="M31.44,39.78c-6.15,15.26-9.57,21.7-19.08,35.06" /><path d="M34.47,48.65c2.68,1.55,6.4,6.88,8.66,9.89" /></g><g><path d="M45.93,29.2c0.92,0.35,2.97,0.45,3.89,0.35c11.53-1.24,28.52-4.31,42.34-4.51c1.54-0.02,2.46,0.17,3.22,0.35" /><path d="M62.99,31.43c0.06,1.06,0.13,2.74-0.12,4.26c-1.48,8.99-9.98,28.73-21.62,40.81" /><g><path d="M55.63,61.99c0.62,0.76,1.03,1.63,1.12,2.47c0.62,6.12,1.86,16.7,2.73,28.29" /><path d="M56.88,63.03c6.92-1.23,27.79-3.85,32.52-4.04c1.95-0.08,3.18,1.83,2.84,3.6c-1.2,6.1-3.54,14.73-4.54,25.16" /><path d="M59.34,90.62c5.54-0.62,23.21-2.19,30.28-2.37" /></g></g></g></g><g fill="none" stroke="#000" stroke-width="5" stroke-linecap="round" stroke-linejoin="round"><g><g><path d="M12.28,38.25c0.39,0.23,2.68,0.38,3.71,0.29c4.43-0.38,19.22-2.07,26.33-3.2c1.03-0.16,1.29-0.23,1.94,0" stroke-dasharray="32.24" stroke-dashoffset="32.24"><animate id="0" attributeName="stroke-dashoffset" values="32.24;0" dur="0.32s" fill="freeze" begin="0s;67d8.click" /></path><path d="M29.36,13.5c0.91,0.47,2.54,2,2.54,4.92c0,0.95-0.12,70.25-0.3,76.08" stroke-dasharray="81.89" stroke-dashoffset="81.89"><animate attributeName="stroke-dashoffset" values="81.89" fill="freeze" begin="67d8.click" /><animate id="1" attributeName="stroke-dashoffset" values="81.89;0" dur="0.62s" fill="freeze" begin="0.end" /></path><path d="M31.44,39.78c-6.15,15.26-9.57,21.7-19.08,35.06" stroke-dasharray="40.04" stroke-dashoffset="40.04"><animate attributeName="stroke-dashoffset" values="40.04" fill="freeze" begin="67d8.click" /><animate id="2" attributeName="stroke-dashoffset" values="40.04;0" dur="0.4s" fill="freeze" begin="1.end" /></path><path d="M34.47,48.65c2.68,1.55,6.4,6.88,8.66,9.89" stroke-dasharray="13.21" stroke-dashoffset="13.21"><animate attributeName="stroke-dashoffset" values="13.21" fill="freeze" begin="67d8.click" /><animate id="3" attributeName="stroke-dashoffset" values="13.21;0" dur="0.13s" fill="freeze" begin="2.end" /></path></g><g><path d="M45.93,29.2c0.92,0.35,2.97,0.45,3.89,0.35c11.53-1.24,28.52-4.31,42.34-4.51c1.54-0.02,2.46,0.17,3.22,0.35" stroke-dasharray="49.78" stroke-dashoffset="49.78"><animate attributeName="stroke-dashoffset" values="49.78" fill="freeze" begin="67d8.click" /><animate id="4" attributeName="stroke-dashoffset" values="49.78;0" dur="0.5s" fill="freeze" begin="3.end" /></path><path d="M62.99,31.43c0.06,1.06,0.13,2.74-0.12,4.26c-1.48,8.99-9.98,28.73-21.62,40.81" stroke-dasharray="50.96" stroke-dashoffset="50.96"><animate attributeName="stroke-dashoffset" values="50.96" fill="freeze" begin="67d8.click" /><animate id="5" attributeName="stroke-dashoffset" values="50.96;0" dur="0.51s" fill="freeze" begin="4.end" /></path><g><path d="M55.63,61.99c0.62,0.76,1.03,1.63,1.12,2.47c0.62,6.12,1.86,16.7,2.73,28.29" stroke-dasharray="31.17" stroke-dashoffset="31.17"><animate attributeName="stroke-dashoffset" values="31.17" fill="freeze" begin="67d8.click" /><animate id="6" attributeName="stroke-dashoffset" values="31.17;0" dur="0.31s" fill="freeze" begin="5.end" /></path><path d="M56.88,63.03c6.92-1.23,27.79-3.85,32.52-4.04c1.95-0.08,3.18,1.83,2.84,3.6c-1.2,6.1-3.54,14.73-4.54,25.16" stroke-dasharray="63.63" stroke-dashoffset="63.63"><animate attributeName="stroke-dashoffset" values="63.63" fill="freeze" begin="67d8.click" /><animate id="7" attributeName="stroke-dashoffset" values="63.63;0" dur="0.48s" fill="freeze" begin="6.end" /></path><path d="M59.34,90.62c5.54-0.62,23.21-2.19,30.28-2.37" stroke-dasharray="30.38" stroke-dashoffset="30.38"><animate attributeName="stroke-dashoffset" values="30.38" fill="freeze" begin="67d8.click" /><animate id="8" attributeName="stroke-dashoffset" values="30.38;0" dur="0.3s" fill="freeze" begin="7.end" /></path></g></g></g></g></svg>