<svg xmlns="http://www.w3.org/2000/svg" width="109" height="109" viewBox="0 0 109 109" id="67da"><g fill="none" stroke="#666" stroke-width="9" stroke-linecap="round" stroke-linejoin="round"><g><g><path d="M12.53,38.22c2.35,0.91,4.85,0.65,6.5,0.46c5.27-0.61,14.76-1.93,20.52-2.91c1.65-0.28,3.54-0.51,5.22-0.15" /><path d="M30.36,15.25c1.13,1.13,1.54,2.5,1.54,4.92c0,0.8-0.02,45.26-0.02,65.95c0,3.93,0,7,0,8.75" /><path d="M31.44,39.28c0,1.09-0.56,3.21-1.07,4.46c-4.99,12.42-8.71,18.05-17.01,30.09" /><path d="M35.12,48.62c2.21,1.63,6.76,7.96,8.62,11.12" /></g><g><g p5:partial xmlns:p5="http://kanjivg.tagaini.net"><path d="M50.55,45.8c1.08,1.08,1.33,2.2,1.47,3.71c0.69,7.21,1.95,21.82,2.93,34.87c0.2,2.63,0.38,5.19,0.55,7.62" /><path d="M52.73,48.6c15.15-2.22,29.77-3.72,39.17-4.31c2.96-0.19,4.45,2.18,4.29,4.48c-0.47,6.76-2.6,22.48-4.51,34.09c-0.47,2.87-0.93,5.49-1.35,7.67" /></g><g><path d="M71.06,13.82c1.06,1.06,1.46,2.43,1.46,4.57c0,14.93-0.02,65.09-0.02,68.98" /></g><g p5:partial xmlns:p5="http://kanjivg.tagaini.net"><path d="M55.01,68.05c3.5-0.42,25.61-2.8,38.13-3.36" /><path d="M56.32,89.57c8.85-0.61,23.17-1.62,33.85-1.85" /></g></g></g></g><g fill="none" stroke="#000" stroke-width="5" stroke-linecap="round" stroke-linejoin="round"><path d="M12.53,38.22c2.35,0.91,4.85,0.65,6.5,0.46c5.27-0.61,14.76-1.93,20.52-2.91c1.65-0.28,3.54-0.51,5.22-0.15" stroke-dasharray="32.566" stroke-dashoffset="32.566"><animate attributeName="stroke-dashoffset" values="32.566;32.566;0" dur="0.326s" fill="freeze" begin="0s;67da.click" /></path><path d="M30.36,15.25c1.13,1.13,1.54,2.5,1.54,4.92c0,0.8-0.02,45.26-0.02,65.95c0,3.93,0,7,0,8.75" stroke-dasharray="80.009" stroke-dashoffset="80.009"><animate attributeName="stroke-dashoffset" values="80.009" fill="freeze" begin="67da.click" /><animate attributeName="stroke-dashoffset" values="80.009;80.009;0" keyTimes="0;0.351;1" dur="0.928s" fill="freeze" begin="0s;67da.click" /></path><path d="M31.44,39.28c0,1.09-0.56,3.21-1.07,4.46c-4.99,12.42-8.71,18.05-17.01,30.09" stroke-dasharray="39.269" stroke-dashoffset="39.269"><animate attributeName="stroke-dashoffset" values="39.269" fill="freeze" begin="67da.click" /><animate attributeName="stroke-dashoffset" values="39.269;39.269;0" keyTimes="0;0.702;1" dur="1.321s" fill="freeze" begin="0s;67da.click" /></path><path d="M35.12,48.62c2.21,1.63,6.76,7.96,8.62,11.12" stroke-dasharray="14.12" stroke-dashoffset="14.12"><animate attributeName="stroke-dashoffset" values="14.12" fill="freeze" begin="67da.click" /><animate attributeName="stroke-dashoffset" values="14.12;14.12;0" keyTimes="0;0.904;1" dur="1.462s" fill="freeze" begin="0s;67da.click" /></path><path d="M50.55,45.8c1.08,1.08,1.33,2.2,1.47,3.71c0.69,7.21,1.95,21.82,2.93,34.87c0.2,2.63,0.38,5.19,0.55,7.62" stroke-dasharray="46.722" stroke-dashoffset="46.722"><animate attributeName="stroke-dashoffset" values="46.722" fill="freeze" begin="67da.click" /><animate attributeName="stroke-dashoffset" values="46.722;46.722;0" keyTimes="0;0.758;1" dur="1.929s" fill="freeze" begin="0s;67da.click" /></path><path d="M52.73,48.6c15.15-2.22,29.77-3.72,39.17-4.31c2.96-0.19,4.45,2.18,4.29,4.48c-0.47,6.76-2.6,22.48-4.51,34.09c-0.47,2.87-0.93,5.49-1.35,7.67" stroke-dasharray="88.705" stroke-dashoffset="88.705"><animate attributeName="stroke-dashoffset" values="88.705" fill="freeze" begin="67da.click" /><animate attributeName="stroke-dashoffset" values="88.705;88.705;0" keyTimes="0;0.743;1" dur="2.596s" fill="freeze" begin="0s;67da.click" /></path><path d="M71.06,13.82c1.06,1.06,1.46,2.43,1.46,4.57c0,14.93-0.02,65.09-0.02,68.98" stroke-dasharray="73.916" stroke-dashoffset="73.916"><animate attributeName="stroke-dashoffset" values="73.916" fill="freeze" begin="67da.click" /><animate attributeName="stroke-dashoffset" values="73.916;73.916;0" keyTimes="0;0.824;1" dur="3.152s" fill="freeze" begin="0s;67da.click" /></path><path d="M55.01,68.05c3.5-0.42,25.61-2.8,38.13-3.36" stroke-dasharray="38.284" stroke-dashoffset="38.284"><animate attributeName="stroke-dashoffset" values="38.284" fill="freeze" begin="67da.click" /><animate attributeName="stroke-dashoffset" values="38.284;38.284;0" keyTimes="0;0.892;1" dur="3.535s" fill="freeze" begin="0s;67da.click" /></path><path d="M56.32,89.57c8.85-0.61,23.17-1.62,33.85-1.85" stroke-dasharray="33.904" stroke-dashoffset="33.904"><animate attributeName="stroke-dashoffset" values="33.904" fill="freeze" begin="67da.click" /><animate attributeName="stroke-dashoffset" values="33.904;33.904;0" keyTimes="0;0.912;1" dur="3.874s" fill="freeze" begin="0s;67da.click" /></path></g></svg>