<svg xmlns="http://www.w3.org/2000/svg" width="109" height="109" viewBox="0 0 109 109" id="67e4"><g fill="none" stroke="#666" stroke-width="9" stroke-linecap="round" stroke-linejoin="round"><g><g><path d="M13.28,38.72c0.35,0.24,2.39,0.41,3.31,0.31c3.94-0.41,19.12-1.71,25.45-2.91c0.92-0.17,2.15-0.24,2.73,0" /><path d="M29.36,14c0.89,1.25,2.04,2,2.04,4.92c0,0.95-0.12,70.75-0.3,76.58" /><path d="M31.19,40.53C25.41,57.2,21.06,64.25,12.11,78.84" /><path d="M33.72,47.65c2.44,1.8,6.47,7.62,8.53,11.1" /></g><g><g><path d="M53.96,20.59c0.59,1.03,0.98,2.05,1.18,3.06c0.2,1.01,0.43,65.08,0.36,67.31" /><path d="M56.3,21.73c2.27-0.1,22.62-2.98,24.31-3.16c3.03-0.31,4.18,3.51,3.81,4.98c-0.36,1.41-0.18,44.21-0.29,64.39" /><path d="M56.38,43.9c7.76-1,19.95-1.94,26.77-2.25" /><path d="M56.84,65.36c6.06-0.36,18.82-1.76,25.83-1.81" /></g><g><path d="M42.54,92.57c1.17,0.43,3.32,0.5,4.49,0.43c12.2-0.73,34.72-3.41,47-3.41c1.95,0,3.13,0.21,4.1,0.42" /></g></g></g></g><g fill="none" stroke="#000" stroke-width="5" stroke-linecap="round" stroke-linejoin="round"><g><g><path d="M13.28,38.72c0.35,0.24,2.39,0.41,3.31,0.31c3.94-0.41,19.12-1.71,25.45-2.91c0.92-0.17,2.15-0.24,2.73,0" stroke-dasharray="31.728" stroke-dashoffset="31.728"><animate attributeName="stroke-dashoffset" values="31.728;31.728;0" dur="0.317s" fill="freeze" begin="0s;67e4.click" /></path><path d="M29.36,14c0.89,1.25,2.04,2,2.04,4.92c0,0.95-0.12,70.75-0.3,76.58" stroke-dasharray="82.062" stroke-dashoffset="82.062"><animate attributeName="stroke-dashoffset" values="82.062" fill="freeze" begin="67e4.click" /><animate attributeName="stroke-dashoffset" values="82.062;82.062;0" keyTimes="0;0.339;1" dur="0.934s" fill="freeze" begin="0s;67e4.click" /></path><path d="M31.19,40.53C25.41,57.2,21.06,64.25,12.11,78.84" stroke-dasharray="42.917" stroke-dashoffset="42.917"><animate attributeName="stroke-dashoffset" values="42.917" fill="freeze" begin="67e4.click" /><animate attributeName="stroke-dashoffset" values="42.917;42.917;0" keyTimes="0;0.685;1" dur="1.363s" fill="freeze" begin="0s;67e4.click" /></path><path d="M33.72,47.65c2.44,1.8,6.47,7.62,8.53,11.1" stroke-dasharray="14.057" stroke-dashoffset="14.057"><animate attributeName="stroke-dashoffset" values="14.057" fill="freeze" begin="67e4.click" /><animate attributeName="stroke-dashoffset" values="14.057;14.057;0" keyTimes="0;0.906;1" dur="1.504s" fill="freeze" begin="0s;67e4.click" /></path></g><g><g><path d="M53.96,20.59c0.59,1.03,0.98,2.05,1.18,3.06c0.2,1.01,0.43,65.08,0.36,67.31" stroke-dasharray="70.608" stroke-dashoffset="70.608"><animate attributeName="stroke-dashoffset" values="70.608" fill="freeze" begin="67e4.click" /><animate attributeName="stroke-dashoffset" values="70.608;70.608;0" keyTimes="0;0.739;1" dur="2.035s" fill="freeze" begin="0s;67e4.click" /></path><path d="M56.3,21.73c2.27-0.1,22.62-2.98,24.31-3.16c3.03-0.31,4.18,3.51,3.81,4.98c-0.36,1.41-0.18,44.21-0.29,64.39" stroke-dasharray="96.094" stroke-dashoffset="96.094"><animate attributeName="stroke-dashoffset" values="96.094" fill="freeze" begin="67e4.click" /><animate attributeName="stroke-dashoffset" values="96.094;96.094;0" keyTimes="0;0.738;1" dur="2.758s" fill="freeze" begin="0s;67e4.click" /></path><path d="M56.38,43.9c7.76-1,19.95-1.94,26.77-2.25" stroke-dasharray="26.871" stroke-dashoffset="26.871"><animate attributeName="stroke-dashoffset" values="26.871" fill="freeze" begin="67e4.click" /><animate attributeName="stroke-dashoffset" values="26.871;26.871;0" keyTimes="0;0.911;1" dur="3.027s" fill="freeze" begin="0s;67e4.click" /></path><path d="M56.84,65.36c6.06-0.36,18.82-1.76,25.83-1.81" stroke-dasharray="25.899" stroke-dashoffset="25.899"><animate attributeName="stroke-dashoffset" values="25.899" fill="freeze" begin="67e4.click" /><animate attributeName="stroke-dashoffset" values="25.899;25.899;0" keyTimes="0;0.921;1" dur="3.286s" fill="freeze" begin="0s;67e4.click" /></path></g><g><path d="M42.54,92.57c1.17,0.43,3.32,0.5,4.49,0.43c12.2-0.73,34.72-3.41,47-3.41c1.95,0,3.13,0.21,4.1,0.42" stroke-dasharray="55.799" stroke-dashoffset="55.799"><animate attributeName="stroke-dashoffset" values="55.799" fill="freeze" begin="67e4.click" /><animate attributeName="stroke-dashoffset" values="55.799;55.799;0" keyTimes="0;0.855;1" dur="3.844s" fill="freeze" begin="0s;67e4.click" /></path></g></g></g></g></svg>