<svg xmlns="http://www.w3.org/2000/svg" width="109" height="109" viewBox="0 0 109 109" id="67f1"><g fill="none" stroke="#666" stroke-width="9" stroke-linecap="round" stroke-linejoin="round"><g><g><path d="M13.65,39.67c1.1,0.33,2.59,0.54,3.58,0.49c5.39-0.29,16.96-1.67,23.82-2.58c0.99-0.13,2.33-0.18,2.96,0" /><path d="M30.36,15.25c1.13,1.13,2.04,3,2.04,4.67c0,0.81-0.04,48.97-0.05,68.45c0,3.35,0,5.86,0,7.12" /><path d="M31.44,40.28c0,0.97-0.38,3-0.69,3.72c-5.5,12.83-9,18.92-17.89,30.84" /><path d="M35.62,50.25c2.16,1.43,7.55,6.97,9.38,9.75" /></g><g p4:phon="主" xmlns:p4="http://kanjivg.tagaini.net"><g><path d="M62.62,13.62c4.2,2.11,10.38,8.05,11.43,11.34" /></g><g p4:partial><path d="M50.25,38.86c1.84,0.27,4.96,0.13,6.14,0.03c10.24-0.89,23.86-3.26,31.19-3.43c1.8-0.04,3.43,0.1,4.92,0.5" /><path d="M69.5,40.58c1.5,1.17,2,2.55,2,4.25c0,6.41,0,35.67,0,43.17" /><path d="M52.75,63.07c0.94,0.52,4.04,0.34,5,0.23c11.5-1.3,14.08-1.82,27-2.68c1.17-0.08,3.75-0.21,5.5,0.25" /><path d="M44.5,89.76c1.75,0.37,3.87,0.43,6.25,0.25c12.12-0.89,31-2.01,42.75-2.3c2.5-0.06,5.5,0.24,6.75,0.69" /></g></g></g></g><g fill="none" stroke="#000" stroke-width="5" stroke-linecap="round" stroke-linejoin="round"><g><g><path d="M13.65,39.67c1.1,0.33,2.59,0.54,3.58,0.49c5.39-0.29,16.96-1.67,23.82-2.58c0.99-0.13,2.33-0.18,2.96,0" stroke-dasharray="30.57" stroke-dashoffset="30.57"><animate id="0" attributeName="stroke-dashoffset" values="30.57;0" dur="0.31s" fill="freeze" begin="0s;67f1.click" /></path><path d="M30.36,15.25c1.13,1.13,2.04,3,2.04,4.67c0,0.81-0.04,48.97-0.05,68.45c0,3.35,0,5.86,0,7.12" stroke-dasharray="80.78" stroke-dashoffset="80.78"><animate attributeName="stroke-dashoffset" values="80.78" fill="freeze" begin="67f1.click" /><animate id="1" attributeName="stroke-dashoffset" values="80.78;0" dur="0.61s" fill="freeze" begin="0.end" /></path><path d="M31.44,40.28c0,0.97-0.38,3-0.69,3.72c-5.5,12.83-9,18.92-17.89,30.84" stroke-dasharray="39.56" stroke-dashoffset="39.56"><animate attributeName="stroke-dashoffset" values="39.56" fill="freeze" begin="67f1.click" /><animate id="2" attributeName="stroke-dashoffset" values="39.56;0" dur="0.4s" fill="freeze" begin="1.end" /></path><path d="M35.62,50.25c2.16,1.43,7.55,6.97,9.38,9.75" stroke-dasharray="13.58" stroke-dashoffset="13.58"><animate attributeName="stroke-dashoffset" values="13.58" fill="freeze" begin="67f1.click" /><animate id="3" attributeName="stroke-dashoffset" values="13.58;0" dur="0.14s" fill="freeze" begin="2.end" /></path></g><g p4:phon="主" xmlns:p4="http://kanjivg.tagaini.net"><g><path d="M62.62,13.62c4.2,2.11,10.38,8.05,11.43,11.34" stroke-dasharray="16.35" stroke-dashoffset="16.35"><animate attributeName="stroke-dashoffset" values="16.35" fill="freeze" begin="67f1.click" /><animate id="4" attributeName="stroke-dashoffset" values="16.35;0" dur="0.16s" fill="freeze" begin="3.end" /></path></g><g p4:partial><path d="M50.25,38.86c1.84,0.27,4.96,0.13,6.14,0.03c10.24-0.89,23.86-3.26,31.19-3.43c1.8-0.04,3.43,0.1,4.92,0.5" stroke-dasharray="42.5" stroke-dashoffset="42.5"><animate attributeName="stroke-dashoffset" values="42.5" fill="freeze" begin="67f1.click" /><animate id="5" attributeName="stroke-dashoffset" values="42.5;0" dur="0.42s" fill="freeze" begin="4.end" /></path><path d="M69.5,40.58c1.5,1.17,2,2.55,2,4.25c0,6.41,0,35.67,0,43.17" stroke-dasharray="48.06" stroke-dashoffset="48.06"><animate attributeName="stroke-dashoffset" values="48.06" fill="freeze" begin="67f1.click" /><animate id="6" attributeName="stroke-dashoffset" values="48.06;0" dur="0.48s" fill="freeze" begin="5.end" /></path><path d="M52.75,63.07c0.94,0.52,4.04,0.34,5,0.23c11.5-1.3,14.08-1.82,27-2.68c1.17-0.08,3.75-0.21,5.5,0.25" stroke-dasharray="37.71" stroke-dashoffset="37.71"><animate attributeName="stroke-dashoffset" values="37.71" fill="freeze" begin="67f1.click" /><animate id="7" attributeName="stroke-dashoffset" values="37.71;0" dur="0.38s" fill="freeze" begin="6.end" /></path><path d="M44.5,89.76c1.75,0.37,3.87,0.43,6.25,0.25c12.12-0.89,31-2.01,42.75-2.3c2.5-0.06,5.5,0.24,6.75,0.69" stroke-dasharray="55.9" stroke-dashoffset="55.9"><animate attributeName="stroke-dashoffset" values="55.9" fill="freeze" begin="67f1.click" /><animate id="8" attributeName="stroke-dashoffset" values="55.9;0" dur="0.56s" fill="freeze" begin="7.end" /></path></g></g></g></g></svg>