<svg xmlns="http://www.w3.org/2000/svg" width="109" height="109" viewBox="0 0 109 109" id="6846"><g fill="none" stroke="#666" stroke-width="9" stroke-linecap="round" stroke-linejoin="round"><g><g><path d="M11.28,36.27c0.36,0.25,2.47,0.42,3.42,0.32c4.08-0.42,16.68-1.78,23.24-3.03c0.95-0.18,2.23-0.25,2.82,0" /><path d="M27.36,14.5c0.91,0.47,2.04,2,2.04,4.92c0,0.95-0.12,68.75-0.3,74.58" /><path d="M28.44,39.28c-5.1,15.04-7.94,21.4-15.83,34.56" /><path d="M31.47,44.9c2.37,1.59,6.28,6.76,8.28,9.85" /></g><g><g p5:part="1" xmlns:p5="http://kanjivg.tagaini.net"><path d="M43.38,20.48c1.12,0.54,3.18,0.63,4.3,0.54c11.68-0.91,30.82-2.77,43.81-3.23c1.87-0.07,2.99,0.26,3.93,0.53" /></g><g p5:partial xmlns:p5="http://kanjivg.tagaini.net"><path d="M55.95,35.69c0.61,0.2,2.62,0.06,3.24,0.01c6.81-0.48,19.94-2.12,26.91-2.33c0.95-0.03,1.81,0.04,2.6,0.21" /><path d="M70.76,35.25c0.97,1.33,0.97,2.13,0.97,3.19c0,7.45-0.01,26.01-0.01,37.95" /><path d="M56.99,54.77c0.52,0.2,2.72,0.6,3.25,0.59c6.26-0.1,17.29-1.67,23.76-2.02c0.64-0.03,2.06-0.08,3.03,0.09" /><path d="M53.13,77.83c0.46,0.18,2.87,0.59,3.65,0.5c10.96-1.25,21.45-2.78,33.16-3.21c1.26-0.05,2.77,0.29,3.4,0.57" /></g><g p5:part="2" xmlns:p5="http://kanjivg.tagaini.net"><path d="M47.22,21c0,4-1.37,64.5-1.37,68.25c0,3,0.76,3.8,2.03,3.5c10.62-2.5,37.67-3.58,43.71-2.75c2.38,0.33,4.43,0.25,5.91,0.75" /></g></g></g></g><g fill="none" stroke="#000" stroke-width="5" stroke-linecap="round" stroke-linejoin="round"><g><g><path d="M11.28,36.27c0.36,0.25,2.47,0.42,3.42,0.32c4.08-0.42,16.68-1.78,23.24-3.03c0.95-0.18,2.23-0.25,2.82,0" stroke-dasharray="29.75" stroke-dashoffset="29.75"><animate id="0" attributeName="stroke-dashoffset" values="29.75;0" dur="0.3s" fill="freeze" begin="0s;6846.click" /></path><path d="M27.36,14.5c0.91,0.47,2.04,2,2.04,4.92c0,0.95-0.12,68.75-0.3,74.58" stroke-dasharray="80.15" stroke-dashoffset="80.15"><animate attributeName="stroke-dashoffset" values="80.15" fill="freeze" begin="6846.click" /><animate id="1" attributeName="stroke-dashoffset" values="80.15;0" dur="0.6s" fill="freeze" begin="0.end" /></path><path d="M28.44,39.28c-5.1,15.04-7.94,21.4-15.83,34.56" stroke-dasharray="38.11" stroke-dashoffset="38.11"><animate attributeName="stroke-dashoffset" values="38.11" fill="freeze" begin="6846.click" /><animate id="2" attributeName="stroke-dashoffset" values="38.11;0" dur="0.38s" fill="freeze" begin="1.end" /></path><path d="M31.47,44.9c2.37,1.59,6.28,6.76,8.28,9.85" stroke-dasharray="12.92" stroke-dashoffset="12.92"><animate attributeName="stroke-dashoffset" values="12.92" fill="freeze" begin="6846.click" /><animate id="3" attributeName="stroke-dashoffset" values="12.92;0" dur="0.13s" fill="freeze" begin="2.end" /></path></g><g><g p5:part="1" xmlns:p5="http://kanjivg.tagaini.net"><path d="M43.38,20.48c1.12,0.54,3.18,0.63,4.3,0.54c11.68-0.91,30.82-2.77,43.81-3.23c1.87-0.07,2.99,0.26,3.93,0.53" stroke-dasharray="52.29" stroke-dashoffset="52.29"><animate attributeName="stroke-dashoffset" values="52.29" fill="freeze" begin="6846.click" /><animate id="4" attributeName="stroke-dashoffset" values="52.29;0" dur="0.52s" fill="freeze" begin="3.end" /></path></g><g p5:partial xmlns:p5="http://kanjivg.tagaini.net"><path d="M55.95,35.69c0.61,0.2,2.62,0.06,3.24,0.01c6.81-0.48,19.94-2.12,26.91-2.33c0.95-0.03,1.81,0.04,2.6,0.21" stroke-dasharray="32.88" stroke-dashoffset="32.88"><animate attributeName="stroke-dashoffset" values="32.88" fill="freeze" begin="6846.click" /><animate id="5" attributeName="stroke-dashoffset" values="32.88;0" dur="0.33s" fill="freeze" begin="4.end" /></path><path d="M70.76,35.25c0.97,1.33,0.97,2.13,0.97,3.19c0,7.45-0.01,26.01-0.01,37.95" stroke-dasharray="41.36" stroke-dashoffset="41.36"><animate attributeName="stroke-dashoffset" values="41.36" fill="freeze" begin="6846.click" /><animate id="6" attributeName="stroke-dashoffset" values="41.36;0" dur="0.41s" fill="freeze" begin="5.end" /></path><path d="M56.99,54.77c0.52,0.2,2.72,0.6,3.25,0.59c6.26-0.1,17.29-1.67,23.76-2.02c0.64-0.03,2.06-0.08,3.03,0.09" stroke-dasharray="30.2" stroke-dashoffset="30.2"><animate attributeName="stroke-dashoffset" values="30.2" fill="freeze" begin="6846.click" /><animate id="7" attributeName="stroke-dashoffset" values="30.2;0" dur="0.3s" fill="freeze" begin="6.end" /></path><path d="M53.13,77.83c0.46,0.18,2.87,0.59,3.65,0.5c10.96-1.25,21.45-2.78,33.16-3.21c1.26-0.05,2.77,0.29,3.4,0.57" stroke-dasharray="40.49" stroke-dashoffset="40.49"><animate attributeName="stroke-dashoffset" values="40.49" fill="freeze" begin="6846.click" /><animate id="8" attributeName="stroke-dashoffset" values="40.49;0" dur="0.4s" fill="freeze" begin="7.end" /></path></g><g p5:part="2" xmlns:p5="http://kanjivg.tagaini.net"><path d="M47.22,21c0,4-1.37,64.5-1.37,68.25c0,3,0.76,3.8,2.03,3.5c10.62-2.5,37.67-3.58,43.71-2.75c2.38,0.33,4.43,0.25,5.91,0.75" stroke-dasharray="122.9" stroke-dashoffset="122.9"><animate attributeName="stroke-dashoffset" values="122.9" fill="freeze" begin="6846.click" /><animate id="9" attributeName="stroke-dashoffset" values="122.9;0" dur="0.92s" fill="freeze" begin="8.end" /></path></g></g></g></g></svg>