<svg xmlns="http://www.w3.org/2000/svg" width="109" height="109" viewBox="0 0 109 109" id="6846"><g fill="none" stroke="#666" stroke-width="9" stroke-linecap="round" stroke-linejoin="round"><g><g><path d="M11.28,36.27c0.36,0.25,2.47,0.42,3.42,0.32c4.08-0.42,16.68-1.78,23.24-3.03c0.95-0.18,2.23-0.25,2.82,0" /><path d="M27.36,14.5c0.91,0.47,2.04,2,2.04,4.92c0,0.95-0.12,68.75-0.3,74.58" /><path d="M28.44,39.28c-5.1,15.04-7.94,21.4-15.83,34.56" /><path d="M31.47,44.9c2.37,1.59,6.28,6.76,8.28,9.85" /></g><g><g><path d="M43.38,20.48c1.12,0.54,3.18,0.63,4.3,0.54c11.68-0.91,30.82-2.77,43.81-3.23c1.87-0.07,2.99,0.26,3.93,0.53" /></g><g p5:partial xmlns:p5="http://kanjivg.tagaini.net"><path d="M55.95,35.69c0.61,0.2,2.62,0.06,3.24,0.01c6.81-0.48,19.94-2.12,26.91-2.33c0.95-0.03,1.81,0.04,2.6,0.21" /><path d="M70.76,35.25c0.97,1.33,0.97,2.13,0.97,3.19c0,7.45-0.01,26.01-0.01,37.95" /><path d="M56.99,54.77c0.52,0.2,2.72,0.6,3.25,0.59c6.26-0.1,17.29-1.67,23.76-2.02c0.64-0.03,2.06-0.08,3.03,0.09" /><path d="M53.13,77.83c0.46,0.18,2.87,0.59,3.65,0.5c10.96-1.25,21.45-2.78,33.16-3.21c1.26-0.05,2.77,0.29,3.4,0.57" /></g><g><path d="M47.22,21c0,4-1.37,64.5-1.37,68.25c0,3,0.76,3.8,2.03,3.5c10.62-2.5,37.67-3.58,43.71-2.75c2.38,0.33,4.43,0.25,5.91,0.75" /></g></g></g></g><g fill="none" stroke="#000" stroke-width="5" stroke-linecap="round" stroke-linejoin="round"><path d="M11.28,36.27c0.36,0.25,2.47,0.42,3.42,0.32c4.08-0.42,16.68-1.78,23.24-3.03c0.95-0.18,2.23-0.25,2.82,0" stroke-dasharray="29.75" stroke-dashoffset="29.75"><animate attributeName="stroke-dashoffset" values="29.75;29.75;0" dur="0.298s" fill="freeze" begin="0s;6846.click" /></path><path d="M27.36,14.5c0.91,0.47,2.04,2,2.04,4.92c0,0.95-0.12,68.75-0.3,74.58" stroke-dasharray="80.147" stroke-dashoffset="80.147"><animate attributeName="stroke-dashoffset" values="80.147" fill="freeze" begin="6846.click" /><animate attributeName="stroke-dashoffset" values="80.147;80.147;0" keyTimes="0;0.331;1" dur="0.901s" fill="freeze" begin="0s;6846.click" /></path><path d="M28.44,39.28c-5.1,15.04-7.94,21.4-15.83,34.56" stroke-dasharray="38.114" stroke-dashoffset="38.114"><animate attributeName="stroke-dashoffset" values="38.114" fill="freeze" begin="6846.click" /><animate attributeName="stroke-dashoffset" values="38.114;38.114;0" keyTimes="0;0.703;1" dur="1.282s" fill="freeze" begin="0s;6846.click" /></path><path d="M31.47,44.9c2.37,1.59,6.28,6.76,8.28,9.85" stroke-dasharray="12.924" stroke-dashoffset="12.924"><animate attributeName="stroke-dashoffset" values="12.924" fill="freeze" begin="6846.click" /><animate attributeName="stroke-dashoffset" values="12.924;12.924;0" keyTimes="0;0.909;1" dur="1.411s" fill="freeze" begin="0s;6846.click" /></path><path d="M43.38,20.48c1.12,0.54,3.18,0.63,4.3,0.54c11.68-0.91,30.82-2.77,43.81-3.23c1.87-0.07,2.99,0.26,3.93,0.53" stroke-dasharray="52.292" stroke-dashoffset="52.292"><animate attributeName="stroke-dashoffset" values="52.292" fill="freeze" begin="6846.click" /><animate attributeName="stroke-dashoffset" values="52.292;52.292;0" keyTimes="0;0.73;1" dur="1.934s" fill="freeze" begin="0s;6846.click" /></path><path d="M55.95,35.69c0.61,0.2,2.62,0.06,3.24,0.01c6.81-0.48,19.94-2.12,26.91-2.33c0.95-0.03,1.81,0.04,2.6,0.21" stroke-dasharray="32.881" stroke-dashoffset="32.881"><animate attributeName="stroke-dashoffset" values="32.881" fill="freeze" begin="6846.click" /><animate attributeName="stroke-dashoffset" values="32.881;32.881;0" keyTimes="0;0.855;1" dur="2.263s" fill="freeze" begin="0s;6846.click" /></path><path d="M70.76,35.25c0.97,1.33,0.97,2.13,0.97,3.19c0,7.45-0.01,26.01-0.01,37.95" stroke-dasharray="41.363" stroke-dashoffset="41.363"><animate attributeName="stroke-dashoffset" values="41.363" fill="freeze" begin="6846.click" /><animate attributeName="stroke-dashoffset" values="41.363;41.363;0" keyTimes="0;0.845;1" dur="2.677s" fill="freeze" begin="0s;6846.click" /></path><path d="M56.99,54.77c0.52,0.2,2.72,0.6,3.25,0.59c6.26-0.1,17.29-1.67,23.76-2.02c0.64-0.03,2.06-0.08,3.03,0.09" stroke-dasharray="30.198" stroke-dashoffset="30.198"><animate attributeName="stroke-dashoffset" values="30.198" fill="freeze" begin="6846.click" /><animate attributeName="stroke-dashoffset" values="30.198;30.198;0" keyTimes="0;0.899;1" dur="2.979s" fill="freeze" begin="0s;6846.click" /></path><path d="M53.13,77.83c0.46,0.18,2.87,0.59,3.65,0.5c10.96-1.25,21.45-2.78,33.16-3.21c1.26-0.05,2.77,0.29,3.4,0.57" stroke-dasharray="40.493" stroke-dashoffset="40.493"><animate attributeName="stroke-dashoffset" values="40.493" fill="freeze" begin="6846.click" /><animate attributeName="stroke-dashoffset" values="40.493;40.493;0" keyTimes="0;0.88;1" dur="3.384s" fill="freeze" begin="0s;6846.click" /></path><path d="M47.22,21c0,4-1.37,64.5-1.37,68.25c0,3,0.76,3.8,2.03,3.5c10.62-2.5,37.67-3.58,43.71-2.75c2.38,0.33,4.43,0.25,5.91,0.75" stroke-dasharray="122.901" stroke-dashoffset="122.901"><animate attributeName="stroke-dashoffset" values="122.901" fill="freeze" begin="6846.click" /><animate attributeName="stroke-dashoffset" values="122.901;122.901;0" keyTimes="0;0.786;1" dur="4.308s" fill="freeze" begin="0s;6846.click" /></path></g></svg>