<svg xmlns="http://www.w3.org/2000/svg" width="109" height="109" viewBox="0 0 109 109" id="6885"><g fill="none" stroke="#666" stroke-width="6" stroke-linecap="round" stroke-linejoin="round"><g><g><path d="M13.53,37.22c1.72,0.66,4.14,0.31,5.5,0.15c5.19-0.6,14.57-2.72,20.01-3.75c0.92-0.17,2.15-0.24,2.73,0" /><path d="M29.11,16.25c1.13,1.13,1.54,2.75,1.54,5.42c0,5.41-0.04,49.26-0.05,65.83c0,2.8,0,4.83,0,5.75" /><path d="M29.94,37.53c0,1.72-0.46,4.26-0.94,5.59C25.12,54,19.38,63.75,12.36,72.84" /><path d="M33.38,45.12c2.33,1.78,6.16,6.43,8.12,9.88" /></g><g p4:phon="毎" xmlns:p4="http://kanjivg.tagaini.net"><g><g><path d="M58.55,14.5c0.04,0.61,0.22,1.62-0.07,2.46C56.38,23.12,51.62,32,45.16,40.55" /></g><path d="M54.69,31.88c0.97,0.2,2.3,0.31,3.25,0.2c5.94-0.7,16.31-2.58,23.59-4.32c2.22-0.53,4.07-0.6,6.33-0.32" /></g><g p4:partial><path d="M54.15,40.49c1.12,1.12,1.97,3.8,1.48,6.06c-2.38,11.08-6,23.33-9.29,30.62c-1.39,3.09,0.02,4.18,1.93,4.2c10.01,0.09,19.02,1.3,26.79,4.06c5.13,1.82,9.81,3.84,13.69,7.59" /><path d="M56.48,43.78c1.39,0.22,3.44,0.19,4.26,0.09c8.33-1.03,17.51-2.62,21.97-3.22c3.53-0.48,5.37,0.7,5.04,3.68C86,60.12,83,77.62,76.25,92.27c-2.09,4.54-4.5,2.73-6.9-0.45" /><path d="M69.98,45.96c0.46,0.96,0.87,2.37,0.66,3.58c-1.39,8.17-5.93,23.96-8.48,31.66" /><path d="M39.5,63.16c2.75,0.71,6.12,0.61,8.64,0.41c10.05-0.77,26.46-2.35,40.11-3.41c3.75-0.29,6.12-0.54,8.5-0.16" /></g></g></g></g><g fill="none" stroke="#000" stroke-width="3" stroke-linecap="round" stroke-linejoin="round"><path d="M13.53,37.22c1.72,0.66,4.14,0.31,5.5,0.15c5.19-0.6,14.57-2.72,20.01-3.75c0.92-0.17,2.15-0.24,2.73,0" stroke-dasharray="28.675" stroke-dashoffset="28.675"><animate attributeName="stroke-dashoffset" values="28.675;28.675;0" dur="0.287s" fill="freeze" begin="0s;6885.click" /></path><path d="M29.11,16.25c1.13,1.13,1.54,2.75,1.54,5.42c0,5.41-0.04,49.26-0.05,65.83c0,2.8,0,4.83,0,5.75" stroke-dasharray="77.369" stroke-dashoffset="77.369"><animate attributeName="stroke-dashoffset" values="77.369" fill="freeze" begin="6885.click" /><animate attributeName="stroke-dashoffset" values="77.369;77.369;0" keyTimes="0;0.33;1" dur="0.869s" fill="freeze" begin="0s;6885.click" /></path><path d="M29.94,37.53c0,1.72-0.46,4.26-0.94,5.59C25.12,54,19.38,63.75,12.36,72.84" stroke-dasharray="39.895" stroke-dashoffset="39.895"><animate attributeName="stroke-dashoffset" values="39.895" fill="freeze" begin="6885.click" /><animate attributeName="stroke-dashoffset" values="39.895;39.895;0" keyTimes="0;0.685;1" dur="1.268s" fill="freeze" begin="0s;6885.click" /></path><path d="M33.38,45.12c2.33,1.78,6.16,6.43,8.12,9.88" stroke-dasharray="12.848" stroke-dashoffset="12.848"><animate attributeName="stroke-dashoffset" values="12.848" fill="freeze" begin="6885.click" /><animate attributeName="stroke-dashoffset" values="12.848;12.848;0" keyTimes="0;0.908;1" dur="1.396s" fill="freeze" begin="0s;6885.click" /></path><path d="M58.55,14.5c0.04,0.61,0.22,1.62-0.07,2.46C56.38,23.12,51.62,32,45.16,40.55" stroke-dasharray="29.672" stroke-dashoffset="29.672"><animate attributeName="stroke-dashoffset" values="29.672" fill="freeze" begin="6885.click" /><animate attributeName="stroke-dashoffset" values="29.672;29.672;0" keyTimes="0;0.825;1" dur="1.693s" fill="freeze" begin="0s;6885.click" /></path><path d="M54.69,31.88c0.97,0.2,2.3,0.31,3.25,0.2c5.94-0.7,16.31-2.58,23.59-4.32c2.22-0.53,4.07-0.6,6.33-0.32" stroke-dasharray="33.637" stroke-dashoffset="33.637"><animate attributeName="stroke-dashoffset" values="33.637" fill="freeze" begin="6885.click" /><animate attributeName="stroke-dashoffset" values="33.637;33.637;0" keyTimes="0;0.834;1" dur="2.029s" fill="freeze" begin="0s;6885.click" /></path><path d="M54.15,40.49c1.12,1.12,1.97,3.8,1.48,6.06c-2.38,11.08-6,23.33-9.29,30.62c-1.39,3.09,0.02,4.18,1.93,4.2c10.01,0.09,19.02,1.3,26.79,4.06c5.13,1.82,9.81,3.84,13.69,7.59" stroke-dasharray="87.393" stroke-dashoffset="87.393"><animate attributeName="stroke-dashoffset" values="87.393" fill="freeze" begin="6885.click" /><animate attributeName="stroke-dashoffset" values="87.393;87.393;0" keyTimes="0;0.755;1" dur="2.686s" fill="freeze" begin="0s;6885.click" /></path><path d="M56.48,43.78c1.39,0.22,3.44,0.19,4.26,0.09c8.33-1.03,17.51-2.62,21.97-3.22c3.53-0.48,5.37,0.7,5.04,3.68C86,60.12,83,77.62,76.25,92.27c-2.09,4.54-4.5,2.73-6.9-0.45" stroke-dasharray="93.04" stroke-dashoffset="93.04"><animate attributeName="stroke-dashoffset" values="93.04" fill="freeze" begin="6885.click" /><animate attributeName="stroke-dashoffset" values="93.04;93.04;0" keyTimes="0;0.793;1" dur="3.386s" fill="freeze" begin="0s;6885.click" /></path><path d="M69.98,45.96c0.46,0.96,0.87,2.37,0.66,3.58c-1.39,8.17-5.93,23.96-8.48,31.66" stroke-dasharray="36.491" stroke-dashoffset="36.491"><animate attributeName="stroke-dashoffset" values="36.491" fill="freeze" begin="6885.click" /><animate attributeName="stroke-dashoffset" values="36.491;36.491;0" keyTimes="0;0.903;1" dur="3.751s" fill="freeze" begin="0s;6885.click" /></path><path d="M39.5,63.16c2.75,0.71,6.12,0.61,8.64,0.41c10.05-0.77,26.46-2.35,40.11-3.41c3.75-0.29,6.12-0.54,8.5-0.16" stroke-dasharray="57.465" stroke-dashoffset="57.465"><animate attributeName="stroke-dashoffset" values="57.465" fill="freeze" begin="6885.click" /><animate attributeName="stroke-dashoffset" values="57.465;57.465;0" keyTimes="0;0.867;1" dur="4.326s" fill="freeze" begin="0s;6885.click" /></path></g></svg>