<svg xmlns="http://www.w3.org/2000/svg" width="109" height="109" viewBox="0 0 109 109" id="6885"><g fill="none" stroke="#666" stroke-width="9" stroke-linecap="round" stroke-linejoin="round"><g><g><path d="M13.53,37.22c1.72,0.66,4.14,0.31,5.5,0.15c5.19-0.6,14.57-2.72,20.01-3.75c0.92-0.17,2.15-0.24,2.73,0" /><path d="M29.11,16.25c1.13,1.13,1.54,2.75,1.54,5.42c0,5.41-0.04,49.26-0.05,65.83c0,2.8,0,4.83,0,5.75" /><path d="M29.94,37.53c0,1.72-0.46,4.26-0.94,5.59C25.12,54,19.38,63.75,12.36,72.84" /><path d="M33.38,45.12c2.33,1.78,6.16,6.43,8.12,9.88" /></g><g p4:phon="毎" xmlns:p4="http://kanjivg.tagaini.net"><g><g><path d="M58.55,14.5c0.04,0.61,0.22,1.62-0.07,2.46C56.38,23.12,51.62,32,45.16,40.55" /></g><path d="M54.69,31.88c0.97,0.2,2.3,0.31,3.25,0.2c5.94-0.7,16.31-2.58,23.59-4.32c2.22-0.53,4.07-0.6,6.33-0.32" /></g><g p4:partial><path d="M54.15,40.49c1.12,1.12,1.97,3.8,1.48,6.06c-2.38,11.08-6,23.33-9.29,30.62c-1.39,3.09,0.02,4.18,1.93,4.2c10.01,0.09,19.02,1.3,26.79,4.06c5.13,1.82,9.81,3.84,13.69,7.59" /><path d="M56.48,43.78c1.39,0.22,3.44,0.19,4.26,0.09c8.33-1.03,17.51-2.62,21.97-3.22c3.53-0.48,5.37,0.7,5.04,3.68C86,60.12,83,77.62,76.25,92.27c-2.09,4.54-4.5,2.73-6.9-0.45" /><path d="M69.98,45.96c0.46,0.96,0.87,2.37,0.66,3.58c-1.39,8.17-5.93,23.96-8.48,31.66" /><path d="M39.5,63.16c2.75,0.71,6.12,0.61,8.64,0.41c10.05-0.77,26.46-2.35,40.11-3.41c3.75-0.29,6.12-0.54,8.5-0.16" /></g></g></g></g><g fill="none" stroke="#000" stroke-width="5" stroke-linecap="round" stroke-linejoin="round"><g><g><path d="M13.53,37.22c1.72,0.66,4.14,0.31,5.5,0.15c5.19-0.6,14.57-2.72,20.01-3.75c0.92-0.17,2.15-0.24,2.73,0" stroke-dasharray="28.67" stroke-dashoffset="28.67"><animate id="0" attributeName="stroke-dashoffset" values="28.67;0" dur="0.29s" fill="freeze" begin="0s;6885.click" /></path><path d="M29.11,16.25c1.13,1.13,1.54,2.75,1.54,5.42c0,5.41-0.04,49.26-0.05,65.83c0,2.8,0,4.83,0,5.75" stroke-dasharray="77.37" stroke-dashoffset="77.37"><animate attributeName="stroke-dashoffset" values="77.37" fill="freeze" begin="6885.click" /><animate id="1" attributeName="stroke-dashoffset" values="77.37;0" dur="0.58s" fill="freeze" begin="0.end" /></path><path d="M29.94,37.53c0,1.72-0.46,4.26-0.94,5.59C25.12,54,19.38,63.75,12.36,72.84" stroke-dasharray="39.89" stroke-dashoffset="39.89"><animate attributeName="stroke-dashoffset" values="39.89" fill="freeze" begin="6885.click" /><animate id="2" attributeName="stroke-dashoffset" values="39.89;0" dur="0.4s" fill="freeze" begin="1.end" /></path><path d="M33.38,45.12c2.33,1.78,6.16,6.43,8.12,9.88" stroke-dasharray="12.85" stroke-dashoffset="12.85"><animate attributeName="stroke-dashoffset" values="12.85" fill="freeze" begin="6885.click" /><animate id="3" attributeName="stroke-dashoffset" values="12.85;0" dur="0.13s" fill="freeze" begin="2.end" /></path></g><g p4:phon="毎" xmlns:p4="http://kanjivg.tagaini.net"><g><g><path d="M58.55,14.5c0.04,0.61,0.22,1.62-0.07,2.46C56.38,23.12,51.62,32,45.16,40.55" stroke-dasharray="29.67" stroke-dashoffset="29.67"><animate attributeName="stroke-dashoffset" values="29.67" fill="freeze" begin="6885.click" /><animate id="4" attributeName="stroke-dashoffset" values="29.67;0" dur="0.3s" fill="freeze" begin="3.end" /></path></g><path d="M54.69,31.88c0.97,0.2,2.3,0.31,3.25,0.2c5.94-0.7,16.31-2.58,23.59-4.32c2.22-0.53,4.07-0.6,6.33-0.32" stroke-dasharray="33.64" stroke-dashoffset="33.64"><animate attributeName="stroke-dashoffset" values="33.64" fill="freeze" begin="6885.click" /><animate id="5" attributeName="stroke-dashoffset" values="33.64;0" dur="0.34s" fill="freeze" begin="4.end" /></path></g><g p4:partial><path d="M54.15,40.49c1.12,1.12,1.97,3.8,1.48,6.06c-2.38,11.08-6,23.33-9.29,30.62c-1.39,3.09,0.02,4.18,1.93,4.2c10.01,0.09,19.02,1.3,26.79,4.06c5.13,1.82,9.81,3.84,13.69,7.59" stroke-dasharray="87.39" stroke-dashoffset="87.39"><animate attributeName="stroke-dashoffset" values="87.39" fill="freeze" begin="6885.click" /><animate id="6" attributeName="stroke-dashoffset" values="87.39;0" dur="0.66s" fill="freeze" begin="5.end" /></path><path d="M56.48,43.78c1.39,0.22,3.44,0.19,4.26,0.09c8.33-1.03,17.51-2.62,21.97-3.22c3.53-0.48,5.37,0.7,5.04,3.68C86,60.12,83,77.62,76.25,92.27c-2.09,4.54-4.5,2.73-6.9-0.45" stroke-dasharray="93.04" stroke-dashoffset="93.04"><animate attributeName="stroke-dashoffset" values="93.04" fill="freeze" begin="6885.click" /><animate id="7" attributeName="stroke-dashoffset" values="93.04;0" dur="0.7s" fill="freeze" begin="6.end" /></path><path d="M69.98,45.96c0.46,0.96,0.87,2.37,0.66,3.58c-1.39,8.17-5.93,23.96-8.48,31.66" stroke-dasharray="36.49" stroke-dashoffset="36.49"><animate attributeName="stroke-dashoffset" values="36.49" fill="freeze" begin="6885.click" /><animate id="8" attributeName="stroke-dashoffset" values="36.49;0" dur="0.36s" fill="freeze" begin="7.end" /></path><path d="M39.5,63.16c2.75,0.71,6.12,0.61,8.64,0.41c10.05-0.77,26.46-2.35,40.11-3.41c3.75-0.29,6.12-0.54,8.5-0.16" stroke-dasharray="57.46" stroke-dashoffset="57.46"><animate attributeName="stroke-dashoffset" values="57.46" fill="freeze" begin="6885.click" /><animate id="9" attributeName="stroke-dashoffset" values="57.46;0" dur="0.57s" fill="freeze" begin="8.end" /></path></g></g></g></g></svg>