<svg xmlns="http://www.w3.org/2000/svg" viewBox="0 0 109 109" id="6897"><g fill="none" stroke="#666" stroke-width="6" stroke-linecap="round" stroke-linejoin="round"><g><g><path d="M12.53,39.22c2.2,0.37,4.41,0.42,6.63,0.14c4.32-0.61,12.47-1.86,18.02-2.55c1.47-0.18,3.12-0.29,4.59-0.19" /><path d="M28.11,15.5c0.88,0.88,1.29,2.62,1.29,4.42c0,0.77-0.02,45.7-0.02,65.83c0,4.58,0,7.9,0,9.12" /><path d="M28.94,40.28c-0.31,2.34-1.46,5.52-2.14,7.11c-4.69,10.93-8.21,16.96-16.19,27.95" /><path d="M32.97,47.9c2.37,1.32,6.03,5.73,7.66,8.64" /></g><g><path d="M47.09,21.35c3.35,0.58,6.6-0.05,10.03-0.44C65,20,74.64,18.32,81.86,17.65c3.01-0.28,6.14-0.4,8.7-0.05" /><g><path d="M48.44,34.4c0.83,0.83,1.1,1.64,1.23,2.61c0.37,2.61,1.41,10.54,2.21,16.74c0.43,3.3,0.79,6.12,0.96,7.38" /><path d="M50.5,35.58c4.49-0.59,25.35-3.12,33.75-4.11c4.79-0.56,7,1.41,6.3,5.79c-0.64,4-1.4,7.96-2.64,14.34c-0.42,2.15-0.89,4.57-1.43,7.37" /><path d="M52.18,47.24c10.69-1.61,28.82-3.36,36.06-3.69" /><path d="M54.42,58.88c9.6-1.09,18.71-1.88,31.8-2.69" /></g><g><g><path d="M68.97,21.75c1.08,1.08,1.17,2.59,1.14,4.63c-0.61,39.37-1.36,54.99-27.83,69.16" /></g><path d="M51.99,66.51c6.04,1.18,21.5,14.93,31.08,22.15c3.4,2.66,6.79,4.5,11.15,5.52" /></g></g></g></g><g fill="none" stroke="#000" stroke-width="3" stroke-linecap="round" stroke-linejoin="round"><path d="M12.53,39.22c2.2,0.37,4.41,0.42,6.63,0.14c4.32-0.61,12.47-1.86,18.02-2.55c1.47-0.18,3.12-0.29,4.59-0.19" stroke-dasharray="29.457" stroke-dashoffset="29.457"><animate attributeName="stroke-dashoffset" values="29.457;29.457;0" dur="0.295s" fill="freeze" begin="0s;6897.click" /></path><path d="M28.11,15.5c0.88,0.88,1.29,2.62,1.29,4.42c0,0.77-0.02,45.7-0.02,65.83c0,4.58,0,7.9,0,9.12" stroke-dasharray="79.66" stroke-dashoffset="79.66"><animate attributeName="stroke-dashoffset" values="79.66" fill="freeze" begin="6897.click" /><animate attributeName="stroke-dashoffset" values="79.66;79.66;0" keyTimes="0;0.33;1" dur="0.894s" fill="freeze" begin="0s;6897.click" /></path><path d="M28.94,40.28c-0.31,2.34-1.46,5.52-2.14,7.11c-4.69,10.93-8.21,16.96-16.19,27.95" stroke-dasharray="39.831" stroke-dashoffset="39.831"><animate attributeName="stroke-dashoffset" values="39.831" fill="freeze" begin="6897.click" /><animate attributeName="stroke-dashoffset" values="39.831;39.831;0" keyTimes="0;0.692;1" dur="1.292s" fill="freeze" begin="0s;6897.click" /></path><path d="M32.97,47.9c2.37,1.32,6.03,5.73,7.66,8.64" stroke-dasharray="11.643" stroke-dashoffset="11.643"><animate attributeName="stroke-dashoffset" values="11.643" fill="freeze" begin="6897.click" /><animate attributeName="stroke-dashoffset" values="11.643;11.643;0" keyTimes="0;0.918;1" dur="1.408s" fill="freeze" begin="0s;6897.click" /></path><path d="M47.09,21.35c3.35,0.58,6.6-0.05,10.03-0.44C65,20,74.64,18.32,81.86,17.65c3.01-0.28,6.14-0.4,8.7-0.05" stroke-dasharray="43.754" stroke-dashoffset="43.754"><animate attributeName="stroke-dashoffset" values="43.754" fill="freeze" begin="6897.click" /><animate attributeName="stroke-dashoffset" values="43.754;43.754;0" keyTimes="0;0.763;1" dur="1.846s" fill="freeze" begin="0s;6897.click" /></path><path d="M48.44,34.4c0.83,0.83,1.1,1.64,1.23,2.61c0.37,2.61,1.41,10.54,2.21,16.74c0.43,3.3,0.79,6.12,0.96,7.38" stroke-dasharray="27.274" stroke-dashoffset="27.274"><animate attributeName="stroke-dashoffset" values="27.274" fill="freeze" begin="6897.click" /><animate attributeName="stroke-dashoffset" values="27.274;27.274;0" keyTimes="0;0.871;1" dur="2.119s" fill="freeze" begin="0s;6897.click" /></path><path d="M50.5,35.58c4.49-0.59,25.35-3.12,33.75-4.11c4.79-0.56,7,1.41,6.3,5.79c-0.64,4-1.4,7.96-2.64,14.34c-0.42,2.15-0.89,4.57-1.43,7.37" stroke-dasharray="66.642" stroke-dashoffset="66.642"><animate attributeName="stroke-dashoffset" values="66.642" fill="freeze" begin="6897.click" /><animate attributeName="stroke-dashoffset" values="66.642;66.642;0" keyTimes="0;0.809;1" dur="2.62s" fill="freeze" begin="0s;6897.click" /></path><path d="M52.18,47.24c10.69-1.61,28.82-3.36,36.06-3.69" stroke-dasharray="36.259" stroke-dashoffset="36.259"><animate attributeName="stroke-dashoffset" values="36.259" fill="freeze" begin="6897.click" /><animate attributeName="stroke-dashoffset" values="36.259;36.259;0" keyTimes="0;0.878;1" dur="2.983s" fill="freeze" begin="0s;6897.click" /></path><path d="M54.42,58.88c9.6-1.09,18.71-1.88,31.8-2.69" stroke-dasharray="31.918" stroke-dashoffset="31.918"><animate attributeName="stroke-dashoffset" values="31.918" fill="freeze" begin="6897.click" /><animate attributeName="stroke-dashoffset" values="31.918;31.918;0" keyTimes="0;0.903;1" dur="3.302s" fill="freeze" begin="0s;6897.click" /></path><path d="M68.97,21.75c1.08,1.08,1.17,2.59,1.14,4.63c-0.61,39.37-1.36,54.99-27.83,69.16" stroke-dasharray="84.725" stroke-dashoffset="84.725"><animate attributeName="stroke-dashoffset" values="84.725" fill="freeze" begin="6897.click" /><animate attributeName="stroke-dashoffset" values="84.725;84.725;0" keyTimes="0;0.838;1" dur="3.939s" fill="freeze" begin="0s;6897.click" /></path><path d="M51.99,66.51c6.04,1.18,21.5,14.93,31.08,22.15c3.4,2.66,6.79,4.5,11.15,5.52" stroke-dasharray="50.871" stroke-dashoffset="50.871"><animate attributeName="stroke-dashoffset" values="50.871" fill="freeze" begin="6897.click" /><animate attributeName="stroke-dashoffset" values="50.871;50.871;0" keyTimes="0;0.886;1" dur="4.448s" fill="freeze" begin="0s;6897.click" /></path></g></svg>