<svg xmlns="http://www.w3.org/2000/svg" width="109" height="109" viewBox="0 0 109 109" id="689f"><g fill="none" stroke="#666" stroke-width="9" stroke-linecap="round" stroke-linejoin="round"><g><g p4:partial xmlns:p4="http://kanjivg.tagaini.net"><g><path d="M50.72,9.68c0.02,0.25,0.04,0.64-0.04,0.99c-0.51,2.09-3.43,6.69-7.43,9.5" /></g><path d="M32.13,19.35c0.46,0.31,0.82,1.75,0.82,2.29c0,5.54,0.3,25.1-0.73,34.54" /><path d="M33.52,22.98c2.02-0.07,35.39-2.92,37.34-2.7c1.72,0.19,3.25,1.29,3.12,2.59c-0.21,2.06-0.92,8.97-2.11,15.12" /><path d="M33.84,31.03c2.47,0,36.16-2.44,38.96-2.44" /><path d="M33.73,38.81c5.03-0.28,31.85-2.07,38.12-2.31" /><path d="M33.03,47.04c13.4-1.09,40.65-2.8,46.42-3.13c2.79-0.16,5.41,0.05,6.42,0.21" /><path d="M32.23,56.15c8.26-0.96,46.55-4.31,51.13-4.67c2.98-0.23,3.02,1.3,2.48,2.87c-1.49,4.37-2.36,6.66-4.8,9.44c-2.32,2.64-4.3,1.01-5.63-0.99" /></g><g><path d="M14.75,72.26c2.11,0.44,4.51,0.58,6.94,0.44c12.37-0.71,48.27-3.21,66.98-4.05c2.41-0.11,3.92,0.08,6.34,0.38" /><path d="M52.96,59.75c1.02,0.41,1.84,1.81,1.84,2.65c0,8.57,0,33.49-0.2,38.6" /><path d="M52.25,71C45.5,81.5,32.5,92.75,13.5,97.75" /><path d="M55,71c5.75,5,26.5,20.5,34.2,23.81c2,0.86,3.45,1.62,5.3,1.94" /></g></g></g><g fill="none" stroke="#000" stroke-width="5" stroke-linecap="round" stroke-linejoin="round"><g><g p4:partial xmlns:p4="http://kanjivg.tagaini.net"><g><path d="M50.72,9.68c0.02,0.25,0.04,0.64-0.04,0.99c-0.51,2.09-3.43,6.69-7.43,9.5" stroke-dasharray="13.24" stroke-dashoffset="13.24"><animate id="0" attributeName="stroke-dashoffset" values="13.24;0" dur="0.13s" fill="freeze" begin="0s;689f.click" /></path></g><path d="M32.13,19.35c0.46,0.31,0.82,1.75,0.82,2.29c0,5.54,0.3,25.1-0.73,34.54" stroke-dasharray="37.05" stroke-dashoffset="37.05"><animate attributeName="stroke-dashoffset" values="37.05" fill="freeze" begin="689f.click" /><animate id="1" attributeName="stroke-dashoffset" values="37.05;0" dur="0.37s" fill="freeze" begin="0.end" /></path><path d="M33.52,22.98c2.02-0.07,35.39-2.92,37.34-2.7c1.72,0.19,3.25,1.29,3.12,2.59c-0.21,2.06-0.92,8.97-2.11,15.12" stroke-dasharray="57.17" stroke-dashoffset="57.17"><animate attributeName="stroke-dashoffset" values="57.17" fill="freeze" begin="689f.click" /><animate id="2" attributeName="stroke-dashoffset" values="57.17;0" dur="0.57s" fill="freeze" begin="1.end" /></path><path d="M33.84,31.03c2.47,0,36.16-2.44,38.96-2.44" stroke-dasharray="39.04" stroke-dashoffset="39.04"><animate attributeName="stroke-dashoffset" values="39.04" fill="freeze" begin="689f.click" /><animate id="3" attributeName="stroke-dashoffset" values="39.04;0" dur="0.39s" fill="freeze" begin="2.end" /></path><path d="M33.73,38.81c5.03-0.28,31.85-2.07,38.12-2.31" stroke-dasharray="38.19" stroke-dashoffset="38.19"><animate attributeName="stroke-dashoffset" values="38.19" fill="freeze" begin="689f.click" /><animate id="4" attributeName="stroke-dashoffset" values="38.19;0" dur="0.38s" fill="freeze" begin="3.end" /></path><path d="M33.03,47.04c13.4-1.09,40.65-2.8,46.42-3.13c2.79-0.16,5.41,0.05,6.42,0.21" stroke-dasharray="52.96" stroke-dashoffset="52.96"><animate attributeName="stroke-dashoffset" values="52.96" fill="freeze" begin="689f.click" /><animate id="5" attributeName="stroke-dashoffset" values="52.96;0" dur="0.53s" fill="freeze" begin="4.end" /></path><path d="M32.23,56.15c8.26-0.96,46.55-4.31,51.13-4.67c2.98-0.23,3.02,1.3,2.48,2.87c-1.49,4.37-2.36,6.66-4.8,9.44c-2.32,2.64-4.3,1.01-5.63-0.99" stroke-dasharray="74.02" stroke-dashoffset="74.02"><animate attributeName="stroke-dashoffset" values="74.02" fill="freeze" begin="689f.click" /><animate id="6" attributeName="stroke-dashoffset" values="74.02;0" dur="0.56s" fill="freeze" begin="5.end" /></path></g><g><path d="M14.75,72.26c2.11,0.44,4.51,0.58,6.94,0.44c12.37-0.71,48.27-3.21,66.98-4.05c2.41-0.11,3.92,0.08,6.34,0.38" stroke-dasharray="80.44" stroke-dashoffset="80.44"><animate attributeName="stroke-dashoffset" values="80.44" fill="freeze" begin="689f.click" /><animate id="7" attributeName="stroke-dashoffset" values="80.44;0" dur="0.6s" fill="freeze" begin="6.end" /></path><path d="M52.96,59.75c1.02,0.41,1.84,1.81,1.84,2.65c0,8.57,0,33.49-0.2,38.6" stroke-dasharray="41.97" stroke-dashoffset="41.97"><animate attributeName="stroke-dashoffset" values="41.97" fill="freeze" begin="689f.click" /><animate id="8" attributeName="stroke-dashoffset" values="41.97;0" dur="0.42s" fill="freeze" begin="7.end" /></path><path d="M52.25,71C45.5,81.5,32.5,92.75,13.5,97.75" stroke-dasharray="48.15" stroke-dashoffset="48.15"><animate attributeName="stroke-dashoffset" values="48.15" fill="freeze" begin="689f.click" /><animate id="9" attributeName="stroke-dashoffset" values="48.15;0" dur="0.48s" fill="freeze" begin="8.end" /></path><path d="M55,71c5.75,5,26.5,20.5,34.2,23.81c2,0.86,3.45,1.62,5.3,1.94" stroke-dasharray="47.41" stroke-dashoffset="47.41"><animate attributeName="stroke-dashoffset" values="47.41" fill="freeze" begin="689f.click" /><animate id="10" attributeName="stroke-dashoffset" values="47.41;0" dur="0.47s" fill="freeze" begin="9.end" /></path></g></g></g></svg>