<svg xmlns="http://www.w3.org/2000/svg" width="109" height="109" viewBox="0 0 109 109" id="68d7"><g fill="none" stroke="#666" stroke-width="9" stroke-linecap="round" stroke-linejoin="round"><g><g><g p5:part="1" xmlns:p5="http://kanjivg.tagaini.net"><path d="M22.75,18.61c1.7,0.57,3.64,0.75,5.6,0.57C38.5,18.25,63.25,17,78.86,15.9c1.94-0.14,3.64,0.1,4.64,0.5" /></g><g><path d="M27.27,27.67c0.44,0.55,0.82,1.43,0.97,2.41c0.21,1.29,1.98,10.77,1.98,12.42" /><path d="M27.99,29.12c7.76-0.37,48.36-3.62,49.74-3.9c2.94-0.58,3.81-0.07,3.78,2.84c-0.01,1.44-0.41,4.71-1.05,7.57c-1.21,5.37-2.63,2.2-4.84-0.33" /></g><g p5:part="2" xmlns:p5="http://kanjivg.tagaini.net"><path d="M52.75,9.25c1.25,0.5,1.5,2.25,1.75,3.25s0,29.25-0.25,35.5" /><path d="M54.25,30.25c-6.34,7.92-23.32,20.02-36.5,24.5" /><path d="M58.5,37.25c8.25,1.25,23.75,8.5,29.75,12.93" /></g></g><g><g p5:part="1" xmlns:p5="http://kanjivg.tagaini.net"><path d="M25.25,59.79c1.65,0.41,3.54,0.54,5.44,0.41c9.86-0.67,33.9-2.28,49.06-3.06c1.89-0.1,3.53,0.07,4.5,0.36" /></g><g><path d="M28.2,68.67c0.42,0.61,0.79,1.6,0.94,2.7c0.2,1.45,1.91,12.04,1.91,13.88" /><path d="M29.49,70.62c7.76-0.37,46.86-4.12,48.24-4.4c2.94-0.58,3.61-0.07,3.78,2.84c0.24,3.94-0.01,5.69-0.55,10.07c-0.92,7.42-3.13,3.7-5.34,1.17" /></g><g p5:part="2" xmlns:p5="http://kanjivg.tagaini.net"><g><path d="M52.75,52.75C54,53.25,54.25,55,54.5,56s0,39.75-0.25,46" /></g><path d="M54,76.25c-6.77,8.08-23.5,20.5-39,25" /><path d="M55,78.5c4.46,2.71,25.45,16.29,30.3,18.95c1.64,0.9,3.05,1.29,4.7,1.55" /></g></g></g></g><g fill="none" stroke="#000" stroke-width="5" stroke-linecap="round" stroke-linejoin="round"><g><g><g p5:part="1" xmlns:p5="http://kanjivg.tagaini.net"><path d="M22.75,18.61c1.7,0.57,3.64,0.75,5.6,0.57C38.5,18.25,63.25,17,78.86,15.9c1.94-0.14,3.64,0.1,4.64,0.5" stroke-dasharray="60.99" stroke-dashoffset="60.99"><animate id="0" attributeName="stroke-dashoffset" values="60.99;0" dur="0.46s" fill="freeze" begin="0s;68d7.click" /></path></g><g><path d="M27.27,27.67c0.44,0.55,0.82,1.43,0.97,2.41c0.21,1.29,1.98,10.77,1.98,12.42" stroke-dasharray="15.21" stroke-dashoffset="15.21"><animate attributeName="stroke-dashoffset" values="15.21" fill="freeze" begin="68d7.click" /><animate id="1" attributeName="stroke-dashoffset" values="15.21;0" dur="0.15s" fill="freeze" begin="0.end" /></path><path d="M27.99,29.12c7.76-0.37,48.36-3.62,49.74-3.9c2.94-0.58,3.81-0.07,3.78,2.84c-0.01,1.44-0.41,4.71-1.05,7.57c-1.21,5.37-2.63,2.2-4.84-0.33" stroke-dasharray="71.78" stroke-dashoffset="71.78"><animate attributeName="stroke-dashoffset" values="71.78" fill="freeze" begin="68d7.click" /><animate id="2" attributeName="stroke-dashoffset" values="71.78;0" dur="0.54s" fill="freeze" begin="1.end" /></path></g><g p5:part="2" xmlns:p5="http://kanjivg.tagaini.net"><path d="M52.75,9.25c1.25,0.5,1.5,2.25,1.75,3.25s0,29.25-0.25,35.5" stroke-dasharray="39.35" stroke-dashoffset="39.35"><animate attributeName="stroke-dashoffset" values="39.35" fill="freeze" begin="68d7.click" /><animate id="3" attributeName="stroke-dashoffset" values="39.35;0" dur="0.39s" fill="freeze" begin="2.end" /></path><path d="M54.25,30.25c-6.34,7.92-23.32,20.02-36.5,24.5" stroke-dasharray="44.38" stroke-dashoffset="44.38"><animate attributeName="stroke-dashoffset" values="44.38" fill="freeze" begin="68d7.click" /><animate id="4" attributeName="stroke-dashoffset" values="44.38;0" dur="0.44s" fill="freeze" begin="3.end" /></path><path d="M58.5,37.25c8.25,1.25,23.75,8.5,29.75,12.93" stroke-dasharray="32.63" stroke-dashoffset="32.63"><animate attributeName="stroke-dashoffset" values="32.63" fill="freeze" begin="68d7.click" /><animate id="5" attributeName="stroke-dashoffset" values="32.63;0" dur="0.33s" fill="freeze" begin="4.end" /></path></g></g><g><g p5:part="1" xmlns:p5="http://kanjivg.tagaini.net"><path d="M25.25,59.79c1.65,0.41,3.54,0.54,5.44,0.41c9.86-0.67,33.9-2.28,49.06-3.06c1.89-0.1,3.53,0.07,4.5,0.36" stroke-dasharray="59.17" stroke-dashoffset="59.17"><animate attributeName="stroke-dashoffset" values="59.17" fill="freeze" begin="68d7.click" /><animate id="6" attributeName="stroke-dashoffset" values="59.17;0" dur="0.59s" fill="freeze" begin="5.end" /></path></g><g><path d="M28.2,68.67c0.42,0.61,0.79,1.6,0.94,2.7c0.2,1.45,1.91,12.04,1.91,13.88" stroke-dasharray="16.9" stroke-dashoffset="16.9"><animate attributeName="stroke-dashoffset" values="16.9" fill="freeze" begin="68d7.click" /><animate id="7" attributeName="stroke-dashoffset" values="16.9;0" dur="0.17s" fill="freeze" begin="6.end" /></path><path d="M29.49,70.62c7.76-0.37,46.86-4.12,48.24-4.4c2.94-0.58,3.61-0.07,3.78,2.84c0.24,3.94-0.01,5.69-0.55,10.07c-0.92,7.42-3.13,3.7-5.34,1.17" stroke-dasharray="74.37" stroke-dashoffset="74.37"><animate attributeName="stroke-dashoffset" values="74.37" fill="freeze" begin="68d7.click" /><animate id="8" attributeName="stroke-dashoffset" values="74.37;0" dur="0.56s" fill="freeze" begin="7.end" /></path></g><g p5:part="2" xmlns:p5="http://kanjivg.tagaini.net"><g><path d="M52.75,52.75C54,53.25,54.25,55,54.5,56s0,39.75-0.25,46" stroke-dasharray="49.85" stroke-dashoffset="49.85"><animate attributeName="stroke-dashoffset" values="49.85" fill="freeze" begin="68d7.click" /><animate id="9" attributeName="stroke-dashoffset" values="49.85;0" dur="0.5s" fill="freeze" begin="8.end" /></path></g><path d="M54,76.25c-6.77,8.08-23.5,20.5-39,25" stroke-dasharray="46.85" stroke-dashoffset="46.85"><animate attributeName="stroke-dashoffset" values="46.85" fill="freeze" begin="68d7.click" /><animate id="10" attributeName="stroke-dashoffset" values="46.85;0" dur="0.47s" fill="freeze" begin="9.end" /></path><path d="M55,78.5c4.46,2.71,25.45,16.29,30.3,18.95c1.64,0.9,3.05,1.29,4.7,1.55" stroke-dasharray="40.72" stroke-dashoffset="40.72"><animate attributeName="stroke-dashoffset" values="40.72" fill="freeze" begin="68d7.click" /><animate id="11" attributeName="stroke-dashoffset" values="40.72;0" dur="0.41s" fill="freeze" begin="10.end" /></path></g></g></g></g></svg>