<svg xmlns="http://www.w3.org/2000/svg" width="109" height="109" viewBox="0 0 109 109" id="68d8"><g fill="none" stroke="#666" stroke-width="9" stroke-linecap="round" stroke-linejoin="round"><g><g><g p5:part="1" xmlns:p5="http://kanjivg.tagaini.net"><path d="M13.95,29.05c1.05,0.55,2.23,0.72,3.43,0.55c6.23-0.9,16.41-1.56,25.99-2.62c1.19-0.13,2.23,0.09,2.84,0.48" /></g><g><path d="M15.15,39.37c0.6,0.88,1.27,2.32,1.42,3.93c0.2,2.1,1.95,17.53,1.95,20.21" /><path d="M16.92,43.07c6.06-0.33,26.34-3.13,27.42-3.38c2.3-0.52,3.12-0.06,2.96,2.54c-0.2,3.3-0.89,13.03-2.28,16.71c-2.31,6.14-2.44,3.31-4.17,1.05" /></g><g p5:part="2" xmlns:p5="http://kanjivg.tagaini.net"><path d="M29.07,14.75c0.84,0.5,1.34,2.25,1.51,3.25s0,73.25-0.17,79.5" /><g><path d="M30.41,57.25C26.91,67.19,17.53,82.38,10.25,88" /></g><path d="M33.25,65.5c5.19,2.79,9.08,7.22,12,13.5" /></g></g><g><g p5:part="1" xmlns:p5="http://kanjivg.tagaini.net"><path d="M56.36,27.11c1.12,0.57,2.39,0.75,3.68,0.57C66.72,26.75,80,26,90.27,24.9c1.28-0.14,2.39,0.1,3.05,0.5" /></g><g><path d="M56.14,38.17c0.43,0.88,1.31,2.29,1.47,3.88c0.21,2.08,1.46,17.31,1.46,19.95" /><path d="M57.81,41.62c5.11-0.37,28.46-3.12,29.37-3.4c1.94-0.58,4.12,0.44,3.99,3.34C91,45.25,90.5,52.02,89.34,56.13c-1.95,6.87-4.06,2.7-5.51,0.17" /></g><g p5:part="2" xmlns:p5="http://kanjivg.tagaini.net"><path d="M70.75,13.25c1.25,0.5,2,2.25,2.25,3.25s0,72.75-0.25,79" /><path d="M72.92,53.25C68.6,63.83,57,80.01,48,86" /><path d="M73.24,55c3.06,3.8,17.46,22.85,20.79,26.58c1.13,1.27,2.09,1.81,3.22,2.17" /></g></g></g></g><g fill="none" stroke="#000" stroke-width="5" stroke-linecap="round" stroke-linejoin="round"><g><g><g p5:part="1" xmlns:p5="http://kanjivg.tagaini.net"><path d="M13.95,29.05c1.05,0.55,2.23,0.72,3.43,0.55c6.23-0.9,16.41-1.56,25.99-2.62c1.19-0.13,2.23,0.09,2.84,0.48" stroke-dasharray="32.59" stroke-dashoffset="32.59"><animate id="0" attributeName="stroke-dashoffset" values="32.59;0" dur="0.33s" fill="freeze" begin="0s;68d8.click" /></path></g><g><path d="M15.15,39.37c0.6,0.88,1.27,2.32,1.42,3.93c0.2,2.1,1.95,17.53,1.95,20.21" stroke-dasharray="24.53" stroke-dashoffset="24.53"><animate attributeName="stroke-dashoffset" values="24.53" fill="freeze" begin="68d8.click" /><animate id="1" attributeName="stroke-dashoffset" values="24.53;0" dur="0.25s" fill="freeze" begin="0.end" /></path><path d="M16.92,43.07c6.06-0.33,26.34-3.13,27.42-3.38c2.3-0.52,3.12-0.06,2.96,2.54c-0.2,3.3-0.89,13.03-2.28,16.71c-2.31,6.14-2.44,3.31-4.17,1.05" stroke-dasharray="57.42" stroke-dashoffset="57.42"><animate attributeName="stroke-dashoffset" values="57.42" fill="freeze" begin="68d8.click" /><animate id="2" attributeName="stroke-dashoffset" values="57.42;0" dur="0.57s" fill="freeze" begin="1.end" /></path></g><g p5:part="2" xmlns:p5="http://kanjivg.tagaini.net"><path d="M29.07,14.75c0.84,0.5,1.34,2.25,1.51,3.25s0,73.25-0.17,79.5" stroke-dasharray="83.17" stroke-dashoffset="83.17"><animate attributeName="stroke-dashoffset" values="83.17" fill="freeze" begin="68d8.click" /><animate id="3" attributeName="stroke-dashoffset" values="83.17;0" dur="0.63s" fill="freeze" begin="2.end" /></path><g><path d="M30.41,57.25C26.91,67.19,17.53,82.38,10.25,88" stroke-dasharray="37.12" stroke-dashoffset="37.12"><animate attributeName="stroke-dashoffset" values="37.12" fill="freeze" begin="68d8.click" /><animate id="4" attributeName="stroke-dashoffset" values="37.12;0" dur="0.37s" fill="freeze" begin="3.end" /></path></g><path d="M33.25,65.5c5.19,2.79,9.08,7.22,12,13.5" stroke-dasharray="18.39" stroke-dashoffset="18.39"><animate attributeName="stroke-dashoffset" values="18.39" fill="freeze" begin="68d8.click" /><animate id="5" attributeName="stroke-dashoffset" values="18.39;0" dur="0.18s" fill="freeze" begin="4.end" /></path></g></g><g><g p5:part="1" xmlns:p5="http://kanjivg.tagaini.net"><path d="M56.36,27.11c1.12,0.57,2.39,0.75,3.68,0.57C66.72,26.75,80,26,90.27,24.9c1.28-0.14,2.39,0.1,3.05,0.5" stroke-dasharray="37.28" stroke-dashoffset="37.28"><animate attributeName="stroke-dashoffset" values="37.28" fill="freeze" begin="68d8.click" /><animate id="6" attributeName="stroke-dashoffset" values="37.28;0" dur="0.37s" fill="freeze" begin="5.end" /></path></g><g><path d="M56.14,38.17c0.43,0.88,1.31,2.29,1.47,3.88c0.21,2.08,1.46,17.31,1.46,19.95" stroke-dasharray="24.18" stroke-dashoffset="24.18"><animate attributeName="stroke-dashoffset" values="24.18" fill="freeze" begin="68d8.click" /><animate id="7" attributeName="stroke-dashoffset" values="24.18;0" dur="0.24s" fill="freeze" begin="6.end" /></path><path d="M57.81,41.62c5.11-0.37,28.46-3.12,29.37-3.4c1.94-0.58,4.12,0.44,3.99,3.34C91,45.25,90.5,52.02,89.34,56.13c-1.95,6.87-4.06,2.7-5.51,0.17" stroke-dasharray="60.13" stroke-dashoffset="60.13"><animate attributeName="stroke-dashoffset" values="60.13" fill="freeze" begin="68d8.click" /><animate id="8" attributeName="stroke-dashoffset" values="60.13;0" dur="0.45s" fill="freeze" begin="7.end" /></path></g><g p5:part="2" xmlns:p5="http://kanjivg.tagaini.net"><path d="M70.75,13.25c1.25,0.5,2,2.25,2.25,3.25s0,72.75-0.25,79" stroke-dasharray="83.09" stroke-dashoffset="83.09"><animate attributeName="stroke-dashoffset" values="83.09" fill="freeze" begin="68d8.click" /><animate id="9" attributeName="stroke-dashoffset" values="83.09;0" dur="0.62s" fill="freeze" begin="8.end" /></path><path d="M72.92,53.25C68.6,63.83,57,80.01,48,86" stroke-dasharray="41.58" stroke-dashoffset="41.58"><animate attributeName="stroke-dashoffset" values="41.58" fill="freeze" begin="68d8.click" /><animate id="10" attributeName="stroke-dashoffset" values="41.58;0" dur="0.42s" fill="freeze" begin="9.end" /></path><path d="M73.24,55c3.06,3.8,17.46,22.85,20.79,26.58c1.13,1.27,2.09,1.81,3.22,2.17" stroke-dasharray="37.68" stroke-dashoffset="37.68"><animate attributeName="stroke-dashoffset" values="37.68" fill="freeze" begin="68d8.click" /><animate id="11" attributeName="stroke-dashoffset" values="37.68;0" dur="0.38s" fill="freeze" begin="10.end" /></path></g></g></g></g></svg>