<svg xmlns="http://www.w3.org/2000/svg" width="109" height="109" viewBox="0 0 109 109" id="6904"><g fill="none" stroke="#666" stroke-width="9" stroke-linecap="round" stroke-linejoin="round"><g><g><path d="M11.78,38.72c0.35,0.24,2.39,0.41,3.31,0.31c3.94-0.41,17.62-1.71,23.95-2.91c0.92-0.17,2.15-0.24,2.73,0" /><path d="M26.86,14c0.91,0.47,1.86,3.49,2.04,4.42c0.18,0.93-0.12,72.75-0.3,78.58" /><path d="M28.94,41.28c-5.1,15.04-7.94,21.4-15.83,34.56" /><path d="M31.47,47.4c3.28,3.1,5.53,6.85,7.28,10.85" /></g><g><g><g><path d="M64.97,12.25c0.28,0.75,0.98,1.99,0.98,3.12c0,1.13,0,6.76,0,9.84" /><path d="M45.25,27c1.39,0.36,3.02,0.52,4.4,0.36c9.6-1.11,27.87-2.93,35.52-3.53c2.31-0.18,3.7,0.17,4.86,0.35" /></g><g><path d="M54.31,33.28c3.8,3.98,5.53,8.05,5.87,10.67" /><path d="M80.93,28.32c0.32,1.18,0.43,1.81,0.33,2.26c-0.66,3.06-6.81,12.26-8.47,14.6" /><path d="M43.19,48.47c1.39,0.25,3.02,0.42,4.39,0.25C59.5,47.25,78.5,45,90.3,44.67c2.31-0.06,3.7,0.12,4.85,0.25" /></g></g><g><path d="M64.07,50.74c0.37,1.07,0.25,2.48-0.18,3.76c-2.17,6.43-5.38,16.67-10.37,23.78c-0.73,1.04-0.19,1.86,0.56,1.87C67,80.25,80,85.75,89.35,95.21" /><path d="M81.25,57.88c0.1,0.95,0.17,3.26-0.21,4.64C77.96,73.66,64.75,92,47.08,97.25" /><path d="M41.29,67.03c0.76,0.28,4.15,0.35,4.91,0.28c12.05-1.06,31.05-3.31,46.91-3.56c1.26-0.02,3.44,0.27,4.47,0.77" /></g></g></g></g><g fill="none" stroke="#000" stroke-width="5" stroke-linecap="round" stroke-linejoin="round"><g><g><path d="M11.78,38.72c0.35,0.24,2.39,0.41,3.31,0.31c3.94-0.41,17.62-1.71,23.95-2.91c0.92-0.17,2.15-0.24,2.73,0" stroke-dasharray="30.24" stroke-dashoffset="30.24"><animate id="0" attributeName="stroke-dashoffset" values="30.24;0" dur="0.3s" fill="freeze" begin="0s;6904.click" /></path><path d="M26.86,14c0.91,0.47,1.86,3.49,2.04,4.42c0.18,0.93-0.12,72.75-0.3,78.58" stroke-dasharray="83.53" stroke-dashoffset="83.53"><animate attributeName="stroke-dashoffset" values="83.53" fill="freeze" begin="6904.click" /><animate id="1" attributeName="stroke-dashoffset" values="83.53;0" dur="0.63s" fill="freeze" begin="0.end" /></path><path d="M28.94,41.28c-5.1,15.04-7.94,21.4-15.83,34.56" stroke-dasharray="38.11" stroke-dashoffset="38.11"><animate attributeName="stroke-dashoffset" values="38.11" fill="freeze" begin="6904.click" /><animate id="2" attributeName="stroke-dashoffset" values="38.11;0" dur="0.38s" fill="freeze" begin="1.end" /></path><path d="M31.47,47.4c3.28,3.1,5.53,6.85,7.28,10.85" stroke-dasharray="13.16" stroke-dashoffset="13.16"><animate attributeName="stroke-dashoffset" values="13.16" fill="freeze" begin="6904.click" /><animate id="3" attributeName="stroke-dashoffset" values="13.16;0" dur="0.13s" fill="freeze" begin="2.end" /></path></g><g><g><g><path d="M64.97,12.25c0.28,0.75,0.98,1.99,0.98,3.12c0,1.13,0,6.76,0,9.84" stroke-dasharray="13.13" stroke-dashoffset="13.13"><animate attributeName="stroke-dashoffset" values="13.13" fill="freeze" begin="6904.click" /><animate id="4" attributeName="stroke-dashoffset" values="13.13;0" dur="0.13s" fill="freeze" begin="3.end" /></path><path d="M45.25,27c1.39,0.36,3.02,0.52,4.4,0.36c9.6-1.11,27.87-2.93,35.52-3.53c2.31-0.18,3.7,0.17,4.86,0.35" stroke-dasharray="45.02" stroke-dashoffset="45.02"><animate attributeName="stroke-dashoffset" values="45.02" fill="freeze" begin="6904.click" /><animate id="5" attributeName="stroke-dashoffset" values="45.02;0" dur="0.45s" fill="freeze" begin="4.end" /></path></g><g><path d="M54.31,33.28c3.8,3.98,5.53,8.05,5.87,10.67" stroke-dasharray="12.36" stroke-dashoffset="12.36"><animate attributeName="stroke-dashoffset" values="12.36" fill="freeze" begin="6904.click" /><animate id="6" attributeName="stroke-dashoffset" values="12.36;0" dur="0.12s" fill="freeze" begin="5.end" /></path><path d="M80.93,28.32c0.32,1.18,0.43,1.81,0.33,2.26c-0.66,3.06-6.81,12.26-8.47,14.6" stroke-dasharray="19.23" stroke-dashoffset="19.23"><animate attributeName="stroke-dashoffset" values="19.23" fill="freeze" begin="6904.click" /><animate id="7" attributeName="stroke-dashoffset" values="19.23;0" dur="0.19s" fill="freeze" begin="6.end" /></path><path d="M43.19,48.47c1.39,0.25,3.02,0.42,4.39,0.25C59.5,47.25,78.5,45,90.3,44.67c2.31-0.06,3.7,0.12,4.85,0.25" stroke-dasharray="52.2" stroke-dashoffset="52.2"><animate attributeName="stroke-dashoffset" values="52.2" fill="freeze" begin="6904.click" /><animate id="8" attributeName="stroke-dashoffset" values="52.2;0" dur="0.52s" fill="freeze" begin="7.end" /></path></g></g><g><path d="M64.07,50.74c0.37,1.07,0.25,2.48-0.18,3.76c-2.17,6.43-5.38,16.67-10.37,23.78c-0.73,1.04-0.19,1.86,0.56,1.87C67,80.25,80,85.75,89.35,95.21" stroke-dasharray="71.66" stroke-dashoffset="71.66"><animate attributeName="stroke-dashoffset" values="71.66" fill="freeze" begin="6904.click" /><animate id="9" attributeName="stroke-dashoffset" values="71.66;0" dur="0.54s" fill="freeze" begin="8.end" /></path><path d="M81.25,57.88c0.1,0.95,0.17,3.26-0.21,4.64C77.96,73.66,64.75,92,47.08,97.25" stroke-dasharray="54.98" stroke-dashoffset="54.98"><animate attributeName="stroke-dashoffset" values="54.98" fill="freeze" begin="6904.click" /><animate id="10" attributeName="stroke-dashoffset" values="54.98;0" dur="0.55s" fill="freeze" begin="9.end" /></path><path d="M41.29,67.03c0.76,0.28,4.15,0.35,4.91,0.28c12.05-1.06,31.05-3.31,46.91-3.56c1.26-0.02,3.44,0.27,4.47,0.77" stroke-dasharray="56.55" stroke-dashoffset="56.55"><animate attributeName="stroke-dashoffset" values="56.55" fill="freeze" begin="6904.click" /><animate id="11" attributeName="stroke-dashoffset" values="56.55;0" dur="0.57s" fill="freeze" begin="10.end" /></path></g></g></g></g></svg>