<svg xmlns="http://www.w3.org/2000/svg" width="109" height="109" viewBox="0 0 109 109" id="690d"><g fill="none" stroke="#666" stroke-width="9" stroke-linecap="round" stroke-linejoin="round"><g><g><path d="M12.53,36.47c1.85,0.53,3.66,0.31,5.36,0.16c7.23-0.63,14.51-1.97,21.65-3.01c0.92-0.13,2.59-0.24,3.71,0.01" /><path d="M28.86,17c1.13,1.13,1.79,2.97,1.79,3.92c0,2.77-0.04,47.89-0.05,65.45c0,2.9,0,5.04,0,6.12" /><path d="M29.69,37.28c0,1.84-0.52,3.82-0.89,4.67c-5.15,11.98-10.3,20.92-16.94,28.88" /><path d="M33,43.88c2.51,1.73,6.63,6.27,8.75,9.62" /></g><g p4:phon="直" xmlns:p4="http://kanjivg.tagaini.net"><g><path d="M52.16,29.45c2.21,0.3,4.16,0.27,5.84,0.11c8.54-0.81,21-1.94,31-2.75c1.67-0.13,3.37-0.11,5.03,0.22" /><path d="M72.24,15.12c0.94,0.94,1.38,2.46,1.31,3.37c-0.42,4.89-1.05,10.14-2.36,21.47" /></g><g><path d="M58.1,41.34c0.97,0.97,1.36,2.38,1.36,3.54c0,1.02-0.04,20.49-0.05,31.24c0,1.43,0,2.7,0,3.76" /><path d="M60.47,42.84c2.68-0.15,21.82-2.76,24.28-2.94c1.93-0.14,3.54,1.92,3.54,3c0,2.2-0.2,18.86-0.24,31.35c-0.01,1.55-0.01,3.04-0.01,4.42" /><path d="M60.92,54.52c5.09-0.2,22.02-1.84,26.18-1.84" /><path d="M60.62,66.43c6.79-0.49,19.58-1.74,26.17-1.74" /><path d="M60.63,77.97c4.73-0.44,22.78-2.02,26.19-2.02" /></g><path d="M48.18,58.72c0.69,1.14,1.03,1.6,1.03,3.88s-0.33,18.77-0.28,22.62c0.03,2.34,1.16,3.33,3.24,3.17c13.96-1.02,24.58-1.64,40.84-2.13c1.89-0.06,4.37-0.14,6.24,0.37" /></g></g></g><g fill="none" stroke="#000" stroke-width="5" stroke-linecap="round" stroke-linejoin="round"><path d="M12.53,36.47c1.85,0.53,3.66,0.31,5.36,0.16c7.23-0.63,14.51-1.97,21.65-3.01c0.92-0.13,2.59-0.24,3.71,0.01" stroke-dasharray="30.986" stroke-dashoffset="30.986"><animate attributeName="stroke-dashoffset" values="30.986;30.986;0" dur="0.31s" fill="freeze" begin="0s;690d.click" /></path><path d="M28.86,17c1.13,1.13,1.79,2.97,1.79,3.92c0,2.77-0.04,47.89-0.05,65.45c0,2.9,0,5.04,0,6.12" stroke-dasharray="75.966" stroke-dashoffset="75.966"><animate attributeName="stroke-dashoffset" values="75.966" fill="freeze" begin="690d.click" /><animate attributeName="stroke-dashoffset" values="75.966;75.966;0" keyTimes="0;0.352;1" dur="0.881s" fill="freeze" begin="0s;690d.click" /></path><path d="M29.69,37.28c0,1.84-0.52,3.82-0.89,4.67c-5.15,11.98-10.3,20.92-16.94,28.88" stroke-dasharray="38.385" stroke-dashoffset="38.385"><animate attributeName="stroke-dashoffset" values="38.385" fill="freeze" begin="690d.click" /><animate attributeName="stroke-dashoffset" values="38.385;38.385;0" keyTimes="0;0.696;1" dur="1.265s" fill="freeze" begin="0s;690d.click" /></path><path d="M33,43.88c2.51,1.73,6.63,6.27,8.75,9.62" stroke-dasharray="13.066" stroke-dashoffset="13.066"><animate attributeName="stroke-dashoffset" values="13.066" fill="freeze" begin="690d.click" /><animate attributeName="stroke-dashoffset" values="13.066;13.066;0" keyTimes="0;0.906;1" dur="1.396s" fill="freeze" begin="0s;690d.click" /></path><path d="M52.16,29.45c2.21,0.3,4.16,0.27,5.84,0.11c8.54-0.81,21-1.94,31-2.75c1.67-0.13,3.37-0.11,5.03,0.22" stroke-dasharray="42.028" stroke-dashoffset="42.028"><animate attributeName="stroke-dashoffset" values="42.028" fill="freeze" begin="690d.click" /><animate attributeName="stroke-dashoffset" values="42.028;42.028;0" keyTimes="0;0.769;1" dur="1.816s" fill="freeze" begin="0s;690d.click" /></path><path d="M72.24,15.12c0.94,0.94,1.38,2.46,1.31,3.37c-0.42,4.89-1.05,10.14-2.36,21.47" stroke-dasharray="25.311" stroke-dashoffset="25.311"><animate attributeName="stroke-dashoffset" values="25.311" fill="freeze" begin="690d.click" /><animate attributeName="stroke-dashoffset" values="25.311;25.311;0" keyTimes="0;0.878;1" dur="2.069s" fill="freeze" begin="0s;690d.click" /></path><path d="M58.1,41.34c0.97,0.97,1.36,2.38,1.36,3.54c0,1.02-0.04,20.49-0.05,31.24c0,1.43,0,2.7,0,3.76" stroke-dasharray="38.888" stroke-dashoffset="38.888"><animate attributeName="stroke-dashoffset" values="38.888" fill="freeze" begin="690d.click" /><animate attributeName="stroke-dashoffset" values="38.888;38.888;0" keyTimes="0;0.842;1" dur="2.458s" fill="freeze" begin="0s;690d.click" /></path><path d="M60.47,42.84c2.68-0.15,21.82-2.76,24.28-2.94c1.93-0.14,3.54,1.92,3.54,3c0,2.2-0.2,18.86-0.24,31.35c-0.01,1.55-0.01,3.04-0.01,4.42" stroke-dasharray="65.285" stroke-dashoffset="65.285"><animate attributeName="stroke-dashoffset" values="65.285" fill="freeze" begin="690d.click" /><animate attributeName="stroke-dashoffset" values="65.285;65.285;0" keyTimes="0;0.834;1" dur="2.949s" fill="freeze" begin="0s;690d.click" /></path><path d="M60.92,54.52c5.09-0.2,22.02-1.84,26.18-1.84" stroke-dasharray="26.248" stroke-dashoffset="26.248"><animate attributeName="stroke-dashoffset" values="26.248" fill="freeze" begin="690d.click" /><animate attributeName="stroke-dashoffset" values="26.248;26.248;0" keyTimes="0;0.918;1" dur="3.211s" fill="freeze" begin="0s;690d.click" /></path><path d="M60.62,66.43c6.79-0.49,19.58-1.74,26.17-1.74" stroke-dasharray="26.234" stroke-dashoffset="26.234"><animate attributeName="stroke-dashoffset" values="26.234" fill="freeze" begin="690d.click" /><animate attributeName="stroke-dashoffset" values="26.234;26.234;0" keyTimes="0;0.925;1" dur="3.473s" fill="freeze" begin="0s;690d.click" /></path><path d="M60.63,77.97c4.73-0.44,22.78-2.02,26.19-2.02" stroke-dasharray="26.272" stroke-dashoffset="26.272"><animate attributeName="stroke-dashoffset" values="26.272" fill="freeze" begin="690d.click" /><animate attributeName="stroke-dashoffset" values="26.272;26.272;0" keyTimes="0;0.93;1" dur="3.736s" fill="freeze" begin="0s;690d.click" /></path><path d="M48.18,58.72c0.69,1.14,1.03,1.6,1.03,3.88s-0.33,18.77-0.28,22.62c0.03,2.34,1.16,3.33,3.24,3.17c13.96-1.02,24.58-1.64,40.84-2.13c1.89-0.06,4.37-0.14,6.24,0.37" stroke-dasharray="79.174" stroke-dashoffset="79.174"><animate attributeName="stroke-dashoffset" values="79.174" fill="freeze" begin="690d.click" /><animate attributeName="stroke-dashoffset" values="79.174;79.174;0" keyTimes="0;0.863;1" dur="4.331s" fill="freeze" begin="0s;690d.click" /></path></g></svg>