<svg xmlns="http://www.w3.org/2000/svg" width="109" height="109" viewBox="0 0 109 109" id="690f"><g fill="none" stroke="#666" stroke-width="9" stroke-linecap="round" stroke-linejoin="round"><g><g><path d="M11.78,36.58c0.36,0.2,2.47,0.34,3.42,0.26c4.08-0.33,17.2-1.81,23.75-2.8c0.95-0.14,2.22-0.2,2.82,0" /><path d="M26.86,14c0.91,0.47,2.54,2,2.54,4.42c0,0.95-0.12,72.75-0.3,78.58" /><path d="M28.94,38.28c-5.1,15.04-7.94,21.4-15.83,34.56" /><path d="M31.47,46.4c2.37,1.59,6.28,7.76,8.28,10.85" /></g><g><g p5:part="1" xmlns:p5="http://kanjivg.tagaini.net"><path d="M43.49,22.46c1.01,0.45,2.87,0.51,3.88,0.45c10.11-0.64,30.63-3.17,41.71-4.05c1.68-0.13,2.7,0.21,3.54,0.44" /></g><path d="M57.96,23.83c0.72,0.92,1.28,2.42,1.28,4.02c0,3.65-0.52,12.19-0.52,17.15" /><path d="M45.98,47.25C47.99,47,60.6,45,62.24,44.75" /><path d="M44.81,44.49c0.78,1.06,1.37,2.15,1.39,3.63c0.03,3.13-0.45,11.13-1.19,16.71c-0.12,0.93,0.14,1.96,1.59,1.64c3.28-0.72,8.47-1.09,11.84-1.99c0.84-0.22,1.71,0.75,1.71,2.42c0,4.6-0.12,15.85-0.12,24.85" /><path d="M72.77,22.49c0.78,1.06,0.88,2.15,0.89,3.63c0.03,3.13-0.98,11.38-1.06,15.71c-0.02,0.93,0.14,1.96,1.59,1.64c3.28-0.72,12.19-1.35,15.59-1.99c2.01-0.38,2.02,0.81,1.71,2.42c-0.6,3.1-2.07,13.43-2.68,18.85" /><path d="M74.58,64.25c2.01-0.25,15.85-1.75,17.49-2" /><path d="M73.31,62.83c0.72,0.92,1.28,2.42,1.28,4.02c0,3.65-0.02,19.19-0.02,24.15" /><g p5:part="2" xmlns:p5="http://kanjivg.tagaini.net"><path d="M40.5,92.25c1.11,0.5,3.14,0.57,4.24,0.5C57,92,82.88,90.5,93.63,90.51c1.84,0,2.95,0.24,3.87,0.49" /></g></g></g></g><g fill="none" stroke="#000" stroke-width="5" stroke-linecap="round" stroke-linejoin="round"><g><g><path d="M11.78,36.58c0.36,0.2,2.47,0.34,3.42,0.26c4.08-0.33,17.2-1.81,23.75-2.8c0.95-0.14,2.22-0.2,2.82,0" stroke-dasharray="30.2" stroke-dashoffset="30.2"><animate id="0" attributeName="stroke-dashoffset" values="30.2;0" dur="0.3s" fill="freeze" begin="0s;690f.click" /></path><path d="M26.86,14c0.91,0.47,2.54,2,2.54,4.42c0,0.95-0.12,72.75-0.3,78.58" stroke-dasharray="83.92" stroke-dashoffset="83.92"><animate attributeName="stroke-dashoffset" values="83.92" fill="freeze" begin="690f.click" /><animate id="1" attributeName="stroke-dashoffset" values="83.92;0" dur="0.63s" fill="freeze" begin="0.end" /></path><path d="M28.94,38.28c-5.1,15.04-7.94,21.4-15.83,34.56" stroke-dasharray="38.11" stroke-dashoffset="38.11"><animate attributeName="stroke-dashoffset" values="38.11" fill="freeze" begin="690f.click" /><animate id="2" attributeName="stroke-dashoffset" values="38.11;0" dur="0.38s" fill="freeze" begin="1.end" /></path><path d="M31.47,46.4c2.37,1.59,6.28,7.76,8.28,10.85" stroke-dasharray="13.71" stroke-dashoffset="13.71"><animate attributeName="stroke-dashoffset" values="13.71" fill="freeze" begin="690f.click" /><animate id="3" attributeName="stroke-dashoffset" values="13.71;0" dur="0.14s" fill="freeze" begin="2.end" /></path></g><g><g p5:part="1" xmlns:p5="http://kanjivg.tagaini.net"><path d="M43.49,22.46c1.01,0.45,2.87,0.51,3.88,0.45c10.11-0.64,30.63-3.17,41.71-4.05c1.68-0.13,2.7,0.21,3.54,0.44" stroke-dasharray="49.43" stroke-dashoffset="49.43"><animate attributeName="stroke-dashoffset" values="49.43" fill="freeze" begin="690f.click" /><animate id="4" attributeName="stroke-dashoffset" values="49.43;0" dur="0.49s" fill="freeze" begin="3.end" /></path></g><path d="M57.96,23.83c0.72,0.92,1.28,2.42,1.28,4.02c0,3.65-0.52,12.19-0.52,17.15" stroke-dasharray="21.45" stroke-dashoffset="21.45"><animate attributeName="stroke-dashoffset" values="21.45" fill="freeze" begin="690f.click" /><animate id="5" attributeName="stroke-dashoffset" values="21.45;0" dur="0.21s" fill="freeze" begin="4.end" /></path><path d="M45.98,47.25C47.99,47,60.6,45,62.24,44.75" stroke-dasharray="16.45" stroke-dashoffset="16.45"><animate attributeName="stroke-dashoffset" values="16.45" fill="freeze" begin="690f.click" /><animate id="6" attributeName="stroke-dashoffset" values="16.45;0" dur="0.16s" fill="freeze" begin="5.end" /></path><path d="M44.81,44.49c0.78,1.06,1.37,2.15,1.39,3.63c0.03,3.13-0.45,11.13-1.19,16.71c-0.12,0.93,0.14,1.96,1.59,1.64c3.28-0.72,8.47-1.09,11.84-1.99c0.84-0.22,1.71,0.75,1.71,2.42c0,4.6-0.12,15.85-0.12,24.85" stroke-dasharray="63.82" stroke-dashoffset="63.82"><animate attributeName="stroke-dashoffset" values="63.82" fill="freeze" begin="690f.click" /><animate id="7" attributeName="stroke-dashoffset" values="63.82;0" dur="0.48s" fill="freeze" begin="6.end" /></path><path d="M72.77,22.49c0.78,1.06,0.88,2.15,0.89,3.63c0.03,3.13-0.98,11.38-1.06,15.71c-0.02,0.93,0.14,1.96,1.59,1.64c3.28-0.72,12.19-1.35,15.59-1.99c2.01-0.38,2.02,0.81,1.71,2.42c-0.6,3.1-2.07,13.43-2.68,18.85" stroke-dasharray="61.06" stroke-dashoffset="61.06"><animate attributeName="stroke-dashoffset" values="61.06" fill="freeze" begin="690f.click" /><animate id="8" attributeName="stroke-dashoffset" values="61.06;0" dur="0.46s" fill="freeze" begin="7.end" /></path><path d="M74.58,64.25c2.01-0.25,15.85-1.75,17.49-2" stroke-dasharray="17.6" stroke-dashoffset="17.6"><animate attributeName="stroke-dashoffset" values="17.6" fill="freeze" begin="690f.click" /><animate id="9" attributeName="stroke-dashoffset" values="17.6;0" dur="0.18s" fill="freeze" begin="8.end" /></path><path d="M73.31,62.83c0.72,0.92,1.28,2.42,1.28,4.02c0,3.65-0.02,19.19-0.02,24.15" stroke-dasharray="28.44" stroke-dashoffset="28.44"><animate attributeName="stroke-dashoffset" values="28.44" fill="freeze" begin="690f.click" /><animate id="10" attributeName="stroke-dashoffset" values="28.44;0" dur="0.28s" fill="freeze" begin="9.end" /></path><g p5:part="2" xmlns:p5="http://kanjivg.tagaini.net"><path d="M40.5,92.25c1.11,0.5,3.14,0.57,4.24,0.5C57,92,82.88,90.5,93.63,90.51c1.84,0,2.95,0.24,3.87,0.49" stroke-dasharray="57.16" stroke-dashoffset="57.16"><animate attributeName="stroke-dashoffset" values="57.16" fill="freeze" begin="690f.click" /><animate id="11" attributeName="stroke-dashoffset" values="57.16;0" dur="0.57s" fill="freeze" begin="10.end" /></path></g></g></g></g></svg>