<svg xmlns="http://www.w3.org/2000/svg" width="109" height="109" viewBox="0 0 109 109" id="691a"><g fill="none" stroke="#666" stroke-width="9" stroke-linecap="round" stroke-linejoin="round"><g><g><path d="M12.28,38.22c0.35,0.24,2.39,0.41,3.31,0.31c3.94-0.41,15.12-1.71,21.45-2.91c0.92-0.17,2.15-0.24,2.73,0" /><path d="M25.86,14c0.91,0.47,2.54,2.5,2.54,4.42c0,0.95-0.12,71.25-0.3,77.08" /><path d="M27.94,40.28c-5.1,15.04-7.94,21.4-15.83,34.56" /><path d="M30.97,46.9c2.37,1.67,6.28,7.11,8.28,10.35" /></g><g><g><path d="M44.39,18.89c0.55,0.43,1.83,1.86,1.83,4.08c0,0.87-0.07,66.49-0.18,71.86" /><path d="M46.37,20.37c1.83-0.11,14.48-2.38,16.15-2.51c1.39-0.11,2.11,1,2.18,1.88c0.1,1.35-0.66,27.02-0.66,27.68" /><path d="M46.69,33.74c4.5-0.65,12.31-1.49,17.82-2.03" /><path d="M46.87,47.07c5.88-0.82,11.81-1.73,17.2-2.31" /></g><g><path d="M73.03,16.67c0.31,0.59,1.1,1.84,1.13,2.63c0.09,1.95,0,21.2,0,26.11" /><path d="M74.18,18.23c5.57-1.48,15.33-3.12,16.95-3.24c1.35-0.1,2.13,1.07,2.12,1.66c-0.35,18.04-0.36,58.1-0.35,71.18c0,10.7-4.14,5.01-7.07,1.41" /><path d="M74.5,30.09c2.41,0,14.88-1.85,17.61-1.85" /><path d="M74.18,43.83c3.56,0,14.1-1.65,18.71-1.65" /></g></g></g></g><g fill="none" stroke="#000" stroke-width="5" stroke-linecap="round" stroke-linejoin="round"><g><g><path d="M12.28,38.22c0.35,0.24,2.39,0.41,3.31,0.31c3.94-0.41,15.12-1.71,21.45-2.91c0.92-0.17,2.15-0.24,2.73,0" stroke-dasharray="27.76" stroke-dashoffset="27.76"><animate id="0" attributeName="stroke-dashoffset" values="27.76;0" dur="0.28s" fill="freeze" begin="0s;691a.click" /></path><path d="M25.86,14c0.91,0.47,2.54,2.5,2.54,4.42c0,0.95-0.12,71.25-0.3,77.08" stroke-dasharray="82.36" stroke-dashoffset="82.36"><animate attributeName="stroke-dashoffset" values="82.36" fill="freeze" begin="691a.click" /><animate id="1" attributeName="stroke-dashoffset" values="82.36;0" dur="0.62s" fill="freeze" begin="0.end" /></path><path d="M27.94,40.28c-5.1,15.04-7.94,21.4-15.83,34.56" stroke-dasharray="38.11" stroke-dashoffset="38.11"><animate attributeName="stroke-dashoffset" values="38.11" fill="freeze" begin="691a.click" /><animate id="2" attributeName="stroke-dashoffset" values="38.11;0" dur="0.38s" fill="freeze" begin="1.end" /></path><path d="M30.97,46.9c2.37,1.67,6.28,7.11,8.28,10.35" stroke-dasharray="13.31" stroke-dashoffset="13.31"><animate attributeName="stroke-dashoffset" values="13.31" fill="freeze" begin="691a.click" /><animate id="3" attributeName="stroke-dashoffset" values="13.31;0" dur="0.13s" fill="freeze" begin="2.end" /></path></g><g><g><path d="M44.39,18.89c0.55,0.43,1.83,1.86,1.83,4.08c0,0.87-0.07,66.49-0.18,71.86" stroke-dasharray="76.47" stroke-dashoffset="76.47"><animate attributeName="stroke-dashoffset" values="76.47" fill="freeze" begin="691a.click" /><animate id="4" attributeName="stroke-dashoffset" values="76.47;0" dur="0.57s" fill="freeze" begin="3.end" /></path><path d="M46.37,20.37c1.83-0.11,14.48-2.38,16.15-2.51c1.39-0.11,2.11,1,2.18,1.88c0.1,1.35-0.66,27.02-0.66,27.68" stroke-dasharray="47.24" stroke-dashoffset="47.24"><animate attributeName="stroke-dashoffset" values="47.24" fill="freeze" begin="691a.click" /><animate id="5" attributeName="stroke-dashoffset" values="47.24;0" dur="0.47s" fill="freeze" begin="4.end" /></path><path d="M46.69,33.74c4.5-0.65,12.31-1.49,17.82-2.03" stroke-dasharray="17.94" stroke-dashoffset="17.94"><animate attributeName="stroke-dashoffset" values="17.94" fill="freeze" begin="691a.click" /><animate id="6" attributeName="stroke-dashoffset" values="17.94;0" dur="0.18s" fill="freeze" begin="5.end" /></path><path d="M46.87,47.07c5.88-0.82,11.81-1.73,17.2-2.31" stroke-dasharray="17.36" stroke-dashoffset="17.36"><animate attributeName="stroke-dashoffset" values="17.36" fill="freeze" begin="691a.click" /><animate id="7" attributeName="stroke-dashoffset" values="17.36;0" dur="0.17s" fill="freeze" begin="6.end" /></path></g><g><path d="M73.03,16.67c0.31,0.59,1.1,1.84,1.13,2.63c0.09,1.95,0,21.2,0,26.11" stroke-dasharray="28.99" stroke-dashoffset="28.99"><animate attributeName="stroke-dashoffset" values="28.99" fill="freeze" begin="691a.click" /><animate id="8" attributeName="stroke-dashoffset" values="28.99;0" dur="0.29s" fill="freeze" begin="7.end" /></path><path d="M74.18,18.23c5.57-1.48,15.33-3.12,16.95-3.24c1.35-0.1,2.13,1.07,2.12,1.66c-0.35,18.04-0.36,58.1-0.35,71.18c0,10.7-4.14,5.01-7.07,1.41" stroke-dasharray="105.54" stroke-dashoffset="105.54"><animate attributeName="stroke-dashoffset" values="105.54" fill="freeze" begin="691a.click" /><animate id="9" attributeName="stroke-dashoffset" values="105.54;0" dur="0.79s" fill="freeze" begin="8.end" /></path><path d="M74.5,30.09c2.41,0,14.88-1.85,17.61-1.85" stroke-dasharray="17.71" stroke-dashoffset="17.71"><animate attributeName="stroke-dashoffset" values="17.71" fill="freeze" begin="691a.click" /><animate id="10" attributeName="stroke-dashoffset" values="17.71;0" dur="0.18s" fill="freeze" begin="9.end" /></path><path d="M74.18,43.83c3.56,0,14.1-1.65,18.71-1.65" stroke-dasharray="18.79" stroke-dashoffset="18.79"><animate attributeName="stroke-dashoffset" values="18.79" fill="freeze" begin="691a.click" /><animate id="11" attributeName="stroke-dashoffset" values="18.79;0" dur="0.19s" fill="freeze" begin="10.end" /></path></g></g></g></g></svg>