<svg xmlns="http://www.w3.org/2000/svg" width="109" height="109" viewBox="0 0 109 109" id="691c"><g fill="none" stroke="#666" stroke-width="9" stroke-linecap="round" stroke-linejoin="round"><g><g><path d="M10.03,38.99c1.97,0.64,4.06,0.58,5.61,0.36c5.46-0.79,14.29-2.36,21.17-3.76c1.45-0.29,2.94-0.46,3.95-0.25" /><path d="M28.27,10.5c0.93,0.93,1.54,2.75,1.54,4.28c0,0.83-0.04,54.55-0.23,74.34c-0.03,3.52-0.07,5.97-0.1,6.88" /><path d="M28.81,38.42c0,1.45-0.48,3.01-0.94,4.07c-5.39,12.24-9.04,18.38-17.93,30.09" /><path d="M32.62,45.62c2.19,1.84,5.78,7.82,7.63,11.39" /></g><g p4:partial p4:phon="僉V" xmlns:p4="http://kanjivg.tagaini.net"><g><path d="M64.87,9.75c0.07,0.79,0.08,1.87-0.38,2.94C61.75,19,53.25,34.25,40.96,43.5" /><path d="M64.78,14.88c5.47,4.37,16.81,16.59,23.76,22.98c2.2,2.03,4.29,3.27,6.76,4.83" /></g><g><g><path d="M50.78,43.24c1.97,0.39,3.82,0.25,5.38,0.04c4.77-0.67,13.87-2.1,19.99-2.77c1.29-0.14,3.11-0.38,4.62-0.17" /></g><g><path d="M46.68,55.84c0.62,0.62,0.95,1.54,1.08,2.29c1.02,5.79,1.2,9.36,1.85,14.5c0.15,1.18,0.32,2.44,0.53,3.84" /><path d="M49.16,57.74c9.93-1.3,26.3-3.22,33.09-3.84c2.93-0.27,4.97,0.72,4.06,3.87c-1.13,3.85-2.2,7.44-3.53,11.68" /><path d="M51.08,73.75c5.54-0.46,20.55-2.12,30.07-2.94c1.67-0.14,3.17-0.26,4.4-0.34" /></g><g><path d="M63.79,45.5c0.92,0.92,1.34,2.38,1.36,3.75c0.48,25.5-4.02,39.75-25.15,51" /><path d="M64,73c3.83,4.52,20.32,19.27,24.55,22.58c1.43,1.12,3.27,1.6,4.7,1.92" /></g></g></g></g></g><g fill="none" stroke="#000" stroke-width="5" stroke-linecap="round" stroke-linejoin="round"><g><g><path d="M10.03,38.99c1.97,0.64,4.06,0.58,5.61,0.36c5.46-0.79,14.29-2.36,21.17-3.76c1.45-0.29,2.94-0.46,3.95-0.25" stroke-dasharray="31.15" stroke-dashoffset="31.15"><animate id="0" attributeName="stroke-dashoffset" values="31.15;0" dur="0.31s" fill="freeze" begin="0s;691c.click" /></path><path d="M28.27,10.5c0.93,0.93,1.54,2.75,1.54,4.28c0,0.83-0.04,54.55-0.23,74.34c-0.03,3.52-0.07,5.97-0.1,6.88" stroke-dasharray="85.87" stroke-dashoffset="85.87"><animate attributeName="stroke-dashoffset" values="85.87" fill="freeze" begin="691c.click" /><animate id="1" attributeName="stroke-dashoffset" values="85.87;0" dur="0.65s" fill="freeze" begin="0.end" /></path><path d="M28.81,38.42c0,1.45-0.48,3.01-0.94,4.07c-5.39,12.24-9.04,18.38-17.93,30.09" stroke-dasharray="39.34" stroke-dashoffset="39.34"><animate attributeName="stroke-dashoffset" values="39.34" fill="freeze" begin="691c.click" /><animate id="2" attributeName="stroke-dashoffset" values="39.34;0" dur="0.39s" fill="freeze" begin="1.end" /></path><path d="M32.62,45.62c2.19,1.84,5.78,7.82,7.63,11.39" stroke-dasharray="13.76" stroke-dashoffset="13.76"><animate attributeName="stroke-dashoffset" values="13.76" fill="freeze" begin="691c.click" /><animate id="3" attributeName="stroke-dashoffset" values="13.76;0" dur="0.14s" fill="freeze" begin="2.end" /></path></g><g p4:partial p4:phon="僉V" xmlns:p4="http://kanjivg.tagaini.net"><g><path d="M64.87,9.75c0.07,0.79,0.08,1.87-0.38,2.94C61.75,19,53.25,34.25,40.96,43.5" stroke-dasharray="42.13" stroke-dashoffset="42.13"><animate attributeName="stroke-dashoffset" values="42.13" fill="freeze" begin="691c.click" /><animate id="4" attributeName="stroke-dashoffset" values="42.13;0" dur="0.42s" fill="freeze" begin="3.end" /></path><path d="M64.78,14.88c5.47,4.37,16.81,16.59,23.76,22.98c2.2,2.03,4.29,3.27,6.76,4.83" stroke-dasharray="41.39" stroke-dashoffset="41.39"><animate attributeName="stroke-dashoffset" values="41.39" fill="freeze" begin="691c.click" /><animate id="5" attributeName="stroke-dashoffset" values="41.39;0" dur="0.41s" fill="freeze" begin="4.end" /></path></g><g><g><path d="M50.78,43.24c1.97,0.39,3.82,0.25,5.38,0.04c4.77-0.67,13.87-2.1,19.99-2.77c1.29-0.14,3.11-0.38,4.62-0.17" stroke-dasharray="30.22" stroke-dashoffset="30.22"><animate attributeName="stroke-dashoffset" values="30.22" fill="freeze" begin="691c.click" /><animate id="6" attributeName="stroke-dashoffset" values="30.22;0" dur="0.3s" fill="freeze" begin="5.end" /></path></g><g><path d="M46.68,55.84c0.62,0.62,0.95,1.54,1.08,2.29c1.02,5.79,1.2,9.36,1.85,14.5c0.15,1.18,0.32,2.44,0.53,3.84" stroke-dasharray="21.07" stroke-dashoffset="21.07"><animate attributeName="stroke-dashoffset" values="21.07" fill="freeze" begin="691c.click" /><animate id="7" attributeName="stroke-dashoffset" values="21.07;0" dur="0.21s" fill="freeze" begin="6.end" /></path><path d="M49.16,57.74c9.93-1.3,26.3-3.22,33.09-3.84c2.93-0.27,4.97,0.72,4.06,3.87c-1.13,3.85-2.2,7.44-3.53,11.68" stroke-dasharray="52.61" stroke-dashoffset="52.61"><animate attributeName="stroke-dashoffset" values="52.61" fill="freeze" begin="691c.click" /><animate id="8" attributeName="stroke-dashoffset" values="52.61;0" dur="0.53s" fill="freeze" begin="7.end" /></path><path d="M51.08,73.75c5.54-0.46,20.55-2.12,30.07-2.94c1.67-0.14,3.17-0.26,4.4-0.34" stroke-dasharray="34.63" stroke-dashoffset="34.63"><animate attributeName="stroke-dashoffset" values="34.63" fill="freeze" begin="691c.click" /><animate id="9" attributeName="stroke-dashoffset" values="34.63;0" dur="0.35s" fill="freeze" begin="8.end" /></path></g><g><path d="M63.79,45.5c0.92,0.92,1.34,2.38,1.36,3.75c0.48,25.5-4.02,39.75-25.15,51" stroke-dasharray="64.94" stroke-dashoffset="64.94"><animate attributeName="stroke-dashoffset" values="64.94" fill="freeze" begin="691c.click" /><animate id="10" attributeName="stroke-dashoffset" values="64.94;0" dur="0.49s" fill="freeze" begin="9.end" /></path><path d="M64,73c3.83,4.52,20.32,19.27,24.55,22.58c1.43,1.12,3.27,1.6,4.7,1.92" stroke-dasharray="38.5" stroke-dashoffset="38.5"><animate attributeName="stroke-dashoffset" values="38.5" fill="freeze" begin="691c.click" /><animate id="11" attributeName="stroke-dashoffset" values="38.5;0" dur="0.38s" fill="freeze" begin="10.end" /></path></g></g></g></g></g></svg>