<svg xmlns="http://www.w3.org/2000/svg" viewBox="0 0 109 109" id="6922"><g fill="none" stroke="#666" stroke-width="6" stroke-linecap="round" stroke-linejoin="round"><g><g><path d="M12.28,37.72c0.35,0.24,2.39,0.41,3.31,0.31c3.94-0.41,15.12-2.21,21.45-3.41c0.92-0.17,2.15-0.24,2.73,0" /><path d="M25.36,14.5c0.91,0.47,2.86,3.49,3.04,4.42c0.18,0.93-0.12,70.75-0.3,76.58" /><path d="M27.94,41.28c-5.1,15.04-7.94,21.4-15.83,34.56" /><path d="M30.47,46.9c2.37,1.59,7.28,8.76,9.28,11.85" /></g><g><g><path d="M45.5,19.02c0.52,1.36,1.28,2.37,1.29,4.17c0.1,13.52,0.1,45.49-0.22,71.3" /><path d="M47.91,22.23c12.5-1.56,36.04-3.98,44.41-3.98c1.91,0,2.5,1.99,2.43,5.21c-0.35,15.87-0.69,47.6-0.35,68.67" /></g><g><g p6:partial xmlns:p6="http://kanjivg.tagaini.net"><path d="M55.61,36.21c0.57,0.36,2.43,0.53,3.01,0.51c6.26-0.22,15.12-1.72,23.77-2.33c0.88-0.06,1.68,0.16,2.41,0.47" /><path d="M70.59,37.09c0.81,0.75,0.81,2.37,0.81,2.95c0,4.04,0.41,28.33,0.21,32.36" /><path d="M59.74,54.25c0.5,0.34,2.13,0.61,2.64,0.57c2.9-0.24,11.62-1.32,16.76-2.38c0.61-0.13,1.98-0.01,2.9,0.32" /><path d="M55.38,74.95c0.4,0.21,1.92,0.34,2.59,0.3c8.28-0.5,20.81-2.05,27.03-2.14c1.08-0.02,2.37-0.05,2.91,0.27" /></g><g><path d="M79.71,59.51c2.09,1.57,3.89,4.91,4.34,6.87" /></g></g><g><path d="M47.23,91.67c9.06,0,34.66-1.99,47.17-2.38" /></g></g></g></g><g fill="none" stroke="#000" stroke-width="3" stroke-linecap="round" stroke-linejoin="round"><path d="M12.28,37.72c0.35,0.24,2.39,0.41,3.31,0.31c3.94-0.41,15.12-2.21,21.45-3.41c0.92-0.17,2.15-0.24,2.73,0" stroke-dasharray="27.828" stroke-dashoffset="27.828"><animate attributeName="stroke-dashoffset" values="27.828;27.828;0" dur="0.278s" fill="freeze" begin="0s;6922.click" /></path><path d="M25.36,14.5c0.91,0.47,2.86,3.49,3.04,4.42c0.18,0.93-0.12,70.75-0.3,76.58" stroke-dasharray="82.016" stroke-dashoffset="82.016"><animate attributeName="stroke-dashoffset" values="82.016" fill="freeze" begin="6922.click" /><animate attributeName="stroke-dashoffset" values="82.016;82.016;0" keyTimes="0;0.311;1" dur="0.895s" fill="freeze" begin="0s;6922.click" /></path><path d="M27.94,41.28c-5.1,15.04-7.94,21.4-15.83,34.56" stroke-dasharray="38.114" stroke-dashoffset="38.114"><animate attributeName="stroke-dashoffset" values="38.114" fill="freeze" begin="6922.click" /><animate attributeName="stroke-dashoffset" values="38.114;38.114;0" keyTimes="0;0.701;1" dur="1.276s" fill="freeze" begin="0s;6922.click" /></path><path d="M30.47,46.9c2.37,1.59,7.28,8.76,9.28,11.85" stroke-dasharray="15.105" stroke-dashoffset="15.105"><animate attributeName="stroke-dashoffset" values="15.105" fill="freeze" begin="6922.click" /><animate attributeName="stroke-dashoffset" values="15.105;15.105;0" keyTimes="0;0.894;1" dur="1.427s" fill="freeze" begin="0s;6922.click" /></path><path d="M45.5,19.02c0.52,1.36,1.28,2.37,1.29,4.17c0.1,13.52,0.1,45.49-0.22,71.3" stroke-dasharray="75.706" stroke-dashoffset="75.706"><animate attributeName="stroke-dashoffset" values="75.706" fill="freeze" begin="6922.click" /><animate attributeName="stroke-dashoffset" values="75.706;75.706;0" keyTimes="0;0.715;1" dur="1.996s" fill="freeze" begin="0s;6922.click" /></path><path d="M47.91,22.23c12.5-1.56,36.04-3.98,44.41-3.98c1.91,0,2.5,1.99,2.43,5.21c-0.35,15.87-0.69,47.6-0.35,68.67" stroke-dasharray="119.718" stroke-dashoffset="119.718"><animate attributeName="stroke-dashoffset" values="119.718" fill="freeze" begin="6922.click" /><animate attributeName="stroke-dashoffset" values="119.718;119.718;0" keyTimes="0;0.689;1" dur="2.896s" fill="freeze" begin="0s;6922.click" /></path><path d="M55.61,36.21c0.57,0.36,2.43,0.53,3.01,0.51c6.26-0.22,15.12-1.72,23.77-2.33c0.88-0.06,1.68,0.16,2.41,0.47" stroke-dasharray="29.444" stroke-dashoffset="29.444"><animate attributeName="stroke-dashoffset" values="29.444" fill="freeze" begin="6922.click" /><animate attributeName="stroke-dashoffset" values="29.444;29.444;0" keyTimes="0;0.908;1" dur="3.19s" fill="freeze" begin="0s;6922.click" /></path><path d="M70.59,37.09c0.81,0.75,0.81,2.37,0.81,2.95c0,4.04,0.41,28.33,0.21,32.36" stroke-dasharray="35.503" stroke-dashoffset="35.503"><animate attributeName="stroke-dashoffset" values="35.503" fill="freeze" begin="6922.click" /><animate attributeName="stroke-dashoffset" values="35.503;35.503;0" keyTimes="0;0.9;1" dur="3.545s" fill="freeze" begin="0s;6922.click" /></path><path d="M59.74,54.25c0.5,0.34,2.13,0.61,2.64,0.57c2.9-0.24,11.62-1.32,16.76-2.38c0.61-0.13,1.98-0.01,2.9,0.32" stroke-dasharray="22.604" stroke-dashoffset="22.604"><animate attributeName="stroke-dashoffset" values="22.604" fill="freeze" begin="6922.click" /><animate attributeName="stroke-dashoffset" values="22.604;22.604;0" keyTimes="0;0.94;1" dur="3.771s" fill="freeze" begin="0s;6922.click" /></path><path d="M55.38,74.95c0.4,0.21,1.92,0.34,2.59,0.3c8.28-0.5,20.81-2.05,27.03-2.14c1.08-0.02,2.37-0.05,2.91,0.27" stroke-dasharray="32.689" stroke-dashoffset="32.689"><animate attributeName="stroke-dashoffset" values="32.689" fill="freeze" begin="6922.click" /><animate attributeName="stroke-dashoffset" values="32.689;32.689;0" keyTimes="0;0.92;1" dur="4.098s" fill="freeze" begin="0s;6922.click" /></path><path d="M79.71,59.51c2.09,1.57,3.89,4.91,4.34,6.87" stroke-dasharray="8.254" stroke-dashoffset="8.254"><animate attributeName="stroke-dashoffset" values="8.254" fill="freeze" begin="6922.click" /><animate attributeName="stroke-dashoffset" values="8.254;8.254;0" keyTimes="0;0.98;1" dur="4.181s" fill="freeze" begin="0s;6922.click" /></path><path d="M47.23,91.67c9.06,0,34.66-1.99,47.17-2.38" stroke-dasharray="47.234" stroke-dashoffset="47.234"><animate attributeName="stroke-dashoffset" values="47.234" fill="freeze" begin="6922.click" /><animate attributeName="stroke-dashoffset" values="47.234;47.234;0" keyTimes="0;0.899;1" dur="4.653s" fill="freeze" begin="0s;6922.click" /></path></g></svg>