<svg xmlns="http://www.w3.org/2000/svg" viewBox="0 0 109 109" id="6930"><g fill="none" stroke="#666" stroke-width="6" stroke-linecap="round" stroke-linejoin="round"><g><g><path d="M10.53,36.72c2.22,0.41,5.05,0.47,6.47,0.28c5.5-0.74,10.38-1.37,17.51-2.19c1.23-0.14,2.61-0.56,4-0.19" /><path d="M25.61,14.75c1.26,1.26,1.54,2.88,1.54,4.42c0,0.78-0.02,45.69-0.02,66.08c0,4.58,0,7.92,0,9.25" /><path d="M26.44,37.28c0,0.97-0.5,3.58-0.99,5.03C21.31,54.68,17,64.12,10.86,74.59" /><path d="M29.5,45.12c2.29,1.68,6.07,7.12,8,10.38" /></g><g><g><path d="M36.71,21.06c2.04,0.57,4.02,0.3,5.56,0.12c4.93-0.6,12.04-1.86,18.1-2.54c1.59-0.18,3.5-0.25,5.36,0.15" /><path d="M43.73,23.06c0.86,0.86,1.1,2.02,1.1,3.37c0,1.35-0.07,38.97-0.07,43.82" /><path d="M46.05,37.56c3.28-0.36,9.04-1.15,11.59-1.33" /><path d="M45.84,51.32c3.22-0.14,8.94-1.24,11.86-1.29" /><path d="M38.97,72.64c1.03,0.74,2.15,0.74,3.48,0.01c3.86-2.09,11.93-6.03,14.67-7.53" /><path d="M57.97,21.56c1.05,1.05,1.23,2.11,1.23,3.44c-0.01,5.6-0.05,43.95-0.07,62.25c0,3.46,0,6.21,0,7.88" /></g><g><path d="M71.35,19.06c1.63,0.21,3.11,0.54,4.8,0.29c4.85-0.73,8.13-1.27,12.48-2.19c2.92-0.62,4.26,1.48,3.12,3.96c-2.15,4.68-8.03,16.68-9.67,19.75" /><path d="M82.08,40.87c16.79,12.38,13.2,42.14,2.64,34.76" /><path d="M73.06,20.11c0.98,0.98,1.04,2.18,1.04,3.51c0,10.97-0.07,45.79-0.1,62.75C74,89.89,74,92.64,74,94.25" /></g></g></g></g><g fill="none" stroke="#000" stroke-width="3" stroke-linecap="round" stroke-linejoin="round"><path d="M10.53,36.72c2.22,0.41,5.05,0.47,6.47,0.28c5.5-0.74,10.38-1.37,17.51-2.19c1.23-0.14,2.61-0.56,4-0.19" stroke-dasharray="28.18" stroke-dashoffset="28.18"><animate attributeName="stroke-dashoffset" values="28.18;28.18;0" dur="0.282s" fill="freeze" begin="0s;6930.click" /></path><path d="M25.61,14.75c1.26,1.26,1.54,2.88,1.54,4.42c0,0.78-0.02,45.69-0.02,66.08c0,4.58,0,7.92,0,9.25" stroke-dasharray="80.143" stroke-dashoffset="80.143"><animate attributeName="stroke-dashoffset" values="80.143" fill="freeze" begin="6930.click" /><animate attributeName="stroke-dashoffset" values="80.143;80.143;0" keyTimes="0;0.319;1" dur="0.885s" fill="freeze" begin="0s;6930.click" /></path><path d="M26.44,37.28c0,0.97-0.5,3.58-0.99,5.03C21.31,54.68,17,64.12,10.86,74.59" stroke-dasharray="40.634" stroke-dashoffset="40.634"><animate attributeName="stroke-dashoffset" values="40.634" fill="freeze" begin="6930.click" /><animate attributeName="stroke-dashoffset" values="40.634;40.634;0" keyTimes="0;0.686;1" dur="1.291s" fill="freeze" begin="0s;6930.click" /></path><path d="M29.5,45.12c2.29,1.68,6.07,7.12,8,10.38" stroke-dasharray="13.161" stroke-dashoffset="13.161"><animate attributeName="stroke-dashoffset" values="13.161" fill="freeze" begin="6930.click" /><animate attributeName="stroke-dashoffset" values="13.161;13.161;0" keyTimes="0;0.907;1" dur="1.423s" fill="freeze" begin="0s;6930.click" /></path><path d="M36.71,21.06c2.04,0.57,4.02,0.3,5.56,0.12c4.93-0.6,12.04-1.86,18.1-2.54c1.59-0.18,3.5-0.25,5.36,0.15" stroke-dasharray="29.266" stroke-dashoffset="29.266"><animate attributeName="stroke-dashoffset" values="29.266" fill="freeze" begin="6930.click" /><animate attributeName="stroke-dashoffset" values="29.266;29.266;0" keyTimes="0;0.829;1" dur="1.716s" fill="freeze" begin="0s;6930.click" /></path><path d="M43.73,23.06c0.86,0.86,1.1,2.02,1.1,3.37c0,1.35-0.07,38.97-0.07,43.82" stroke-dasharray="47.465" stroke-dashoffset="47.465"><animate attributeName="stroke-dashoffset" values="47.465" fill="freeze" begin="6930.click" /><animate attributeName="stroke-dashoffset" values="47.465;47.465;0" keyTimes="0;0.783;1" dur="2.191s" fill="freeze" begin="0s;6930.click" /></path><path d="M46.05,37.56c3.28-0.36,9.04-1.15,11.59-1.33" stroke-dasharray="11.668" stroke-dashoffset="11.668"><animate attributeName="stroke-dashoffset" values="11.668" fill="freeze" begin="6930.click" /><animate attributeName="stroke-dashoffset" values="11.668;11.668;0" keyTimes="0;0.949;1" dur="2.308s" fill="freeze" begin="0s;6930.click" /></path><path d="M45.84,51.32c3.22-0.14,8.94-1.24,11.86-1.29" stroke-dasharray="11.936" stroke-dashoffset="11.936"><animate attributeName="stroke-dashoffset" values="11.936" fill="freeze" begin="6930.click" /><animate attributeName="stroke-dashoffset" values="11.936;11.936;0" keyTimes="0;0.951;1" dur="2.427s" fill="freeze" begin="0s;6930.click" /></path><path d="M38.97,72.64c1.03,0.74,2.15,0.74,3.48,0.01c3.86-2.09,11.93-6.03,14.67-7.53" stroke-dasharray="20.192" stroke-dashoffset="20.192"><animate attributeName="stroke-dashoffset" values="20.192" fill="freeze" begin="6930.click" /><animate attributeName="stroke-dashoffset" values="20.192;20.192;0" keyTimes="0;0.923;1" dur="2.629s" fill="freeze" begin="0s;6930.click" /></path><path d="M57.97,21.56c1.05,1.05,1.23,2.11,1.23,3.44c-0.01,5.6-0.05,43.95-0.07,62.25c0,3.46,0,6.21,0,7.88" stroke-dasharray="73.9" stroke-dashoffset="73.9"><animate attributeName="stroke-dashoffset" values="73.9" fill="freeze" begin="6930.click" /><animate attributeName="stroke-dashoffset" values="73.9;73.9;0" keyTimes="0;0.825;1" dur="3.185s" fill="freeze" begin="0s;6930.click" /></path><path d="M71.35,19.06c1.63,0.21,3.11,0.54,4.8,0.29c4.85-0.73,8.13-1.27,12.48-2.19c2.92-0.62,4.26,1.48,3.12,3.96c-2.15,4.68-8.03,16.68-9.67,19.75" stroke-dasharray="46.164" stroke-dashoffset="46.164"><animate attributeName="stroke-dashoffset" values="46.164" fill="freeze" begin="6930.click" /><animate attributeName="stroke-dashoffset" values="46.164;46.164;0" keyTimes="0;0.873;1" dur="3.647s" fill="freeze" begin="0s;6930.click" /></path><path d="M82.08,40.87c16.79,12.38,13.2,42.14,2.64,34.76" stroke-dasharray="45.488" stroke-dashoffset="45.488"><animate attributeName="stroke-dashoffset" values="45.488" fill="freeze" begin="6930.click" /><animate attributeName="stroke-dashoffset" values="45.488;45.488;0" keyTimes="0;0.889;1" dur="4.102s" fill="freeze" begin="0s;6930.click" /></path><path d="M73.06,20.11c0.98,0.98,1.04,2.18,1.04,3.51c0,10.97-0.07,45.79-0.1,62.75C74,89.89,74,92.64,74,94.25" stroke-dasharray="74.404" stroke-dashoffset="74.404"><animate attributeName="stroke-dashoffset" values="74.404" fill="freeze" begin="6930.click" /><animate attributeName="stroke-dashoffset" values="74.404;74.404;0" keyTimes="0;0.88;1" dur="4.661s" fill="freeze" begin="0s;6930.click" /></path></g></svg>