<svg xmlns="http://www.w3.org/2000/svg" viewBox="0 0 109 109" id="693f"><g fill="none" stroke="#666" stroke-width="6" stroke-linecap="round" stroke-linejoin="round"><g><g><path d="M9.53,39.22c1.72,0.53,4.72,0.42,6.1,0.28c4.77-0.48,13.01-1.52,18.28-2.47c1.1-0.2,2.35-0.4,3.86-0.16" /><path d="M25.46,14.83c1.13,1.13,1.29,2.5,1.29,4.42c0,0.81,0.11,49.79,0.1,69.75c0,3.37,0,5.91,0,7.25" /><path d="M26.19,39.03c0,1.59-0.43,3.73-0.88,5.02C20.85,56.78,17.02,65.3,9.86,75.59" /><path d="M29.75,49.75c2.08,1.37,5.5,5.83,7.25,8.5" /></g><g><g><g><g><path d="M46.21,26.49c2.67,0.39,4.83,0.4,6.81,0.13c9.11-1.24,17.77-2.29,25.73-2.91c2.12-0.17,4.27-0.46,6.35,0.12" /></g><g><g><path d="M46.96,38.07c2.41,0.43,4.56,0.25,6.4,0.03c6.23-0.75,14.02-1.85,24.15-3.02c2.14-0.25,4.7-0.43,6.8,0.23" /></g><g><g><path d="M39.71,51.66c3.54,0.84,6.48,0.75,9.29,0.33c8.72-1.31,22.74-3.11,37-3.94c2.88-0.17,5.96-0.35,8.77,0.42" /></g></g></g></g><g><g><path d="M65.76,12.25c0.49,1,0.66,1.55,0.35,3.8c-1.83,13.27-8.85,48.45-29.35,61.8" /><path d="M67.8,41.83C71,44.3,81.93,58.89,88.99,65.89c2.89,2.86,5.14,5.49,8.01,7.08" /></g></g></g><g><path d="M52.7,66.02c0.83,0.83,0.93,1.98,0.93,3.52c0,0.75,0,13.64,0,22.09c0,2.18,0,4.07,0,5.38" /><path d="M53.95,67.14c1.62-0.1,15.51-2.09,20.8-2.79c2.84-0.38,4.18,0.19,4.18,3.27c0.01,6.47,0.05,27.4,0.05,28.04" /><path d="M55.03,79.98c4.22-0.35,19.49-2.3,22.41-2.3" /><path d="M54.91,94.09c5.27-0.51,15.59-1.59,23.27-2.06" /></g></g></g></g><g fill="none" stroke="#000" stroke-width="3" stroke-linecap="round" stroke-linejoin="round"><path d="M9.53,39.22c1.72,0.53,4.72,0.42,6.1,0.28c4.77-0.48,13.01-1.52,18.28-2.47c1.1-0.2,2.35-0.4,3.86-0.16" stroke-dasharray="28.472" stroke-dashoffset="28.472"><animate attributeName="stroke-dashoffset" values="28.472;28.472;0" dur="0.285s" fill="freeze" begin="0s;693f.click" /></path><path d="M25.46,14.83c1.13,1.13,1.29,2.5,1.29,4.42c0,0.81,0.11,49.79,0.1,69.75c0,3.37,0,5.91,0,7.25" stroke-dasharray="81.744" stroke-dashoffset="81.744"><animate attributeName="stroke-dashoffset" values="81.744" fill="freeze" begin="693f.click" /><animate attributeName="stroke-dashoffset" values="81.744;81.744;0" keyTimes="0;0.317;1" dur="0.9s" fill="freeze" begin="0s;693f.click" /></path><path d="M26.19,39.03c0,1.59-0.43,3.73-0.88,5.02C20.85,56.78,17.02,65.3,9.86,75.59" stroke-dasharray="40.364" stroke-dashoffset="40.364"><animate attributeName="stroke-dashoffset" values="40.364" fill="freeze" begin="693f.click" /><animate attributeName="stroke-dashoffset" values="40.364;40.364;0" keyTimes="0;0.69;1" dur="1.304s" fill="freeze" begin="0s;693f.click" /></path><path d="M29.75,49.75c2.08,1.37,5.5,5.83,7.25,8.5" stroke-dasharray="11.222" stroke-dashoffset="11.222"><animate attributeName="stroke-dashoffset" values="11.222" fill="freeze" begin="693f.click" /><animate attributeName="stroke-dashoffset" values="11.222;11.222;0" keyTimes="0;0.921;1" dur="1.416s" fill="freeze" begin="0s;693f.click" /></path><path d="M46.21,26.49c2.67,0.39,4.83,0.4,6.81,0.13c9.11-1.24,17.77-2.29,25.73-2.91c2.12-0.17,4.27-0.46,6.35,0.12" stroke-dasharray="39.121" stroke-dashoffset="39.121"><animate attributeName="stroke-dashoffset" values="39.121" fill="freeze" begin="693f.click" /><animate attributeName="stroke-dashoffset" values="39.121;39.121;0" keyTimes="0;0.784;1" dur="1.807s" fill="freeze" begin="0s;693f.click" /></path><path d="M46.96,38.07c2.41,0.43,4.56,0.25,6.4,0.03c6.23-0.75,14.02-1.85,24.15-3.02c2.14-0.25,4.7-0.43,6.8,0.23" stroke-dasharray="37.617" stroke-dashoffset="37.617"><animate attributeName="stroke-dashoffset" values="37.617" fill="freeze" begin="693f.click" /><animate attributeName="stroke-dashoffset" values="37.617;37.617;0" keyTimes="0;0.828;1" dur="2.183s" fill="freeze" begin="0s;693f.click" /></path><path d="M39.71,51.66c3.54,0.84,6.48,0.75,9.29,0.33c8.72-1.31,22.74-3.11,37-3.94c2.88-0.17,5.96-0.35,8.77,0.42" stroke-dasharray="55.4" stroke-dashoffset="55.4"><animate attributeName="stroke-dashoffset" values="55.4" fill="freeze" begin="693f.click" /><animate attributeName="stroke-dashoffset" values="55.4;55.4;0" keyTimes="0;0.798;1" dur="2.737s" fill="freeze" begin="0s;693f.click" /></path><path d="M65.76,12.25c0.49,1,0.66,1.55,0.35,3.8c-1.83,13.27-8.85,48.45-29.35,61.8" stroke-dasharray="74.157" stroke-dashoffset="74.157"><animate attributeName="stroke-dashoffset" values="74.157" fill="freeze" begin="693f.click" /><animate attributeName="stroke-dashoffset" values="74.157;74.157;0" keyTimes="0;0.831;1" dur="3.295s" fill="freeze" begin="0s;693f.click" /></path><path d="M67.8,41.83C71,44.3,81.93,58.89,88.99,65.89c2.89,2.86,5.14,5.49,8.01,7.08" stroke-dasharray="42.809" stroke-dashoffset="42.809"><animate attributeName="stroke-dashoffset" values="42.809" fill="freeze" begin="693f.click" /><animate attributeName="stroke-dashoffset" values="42.809;42.809;0" keyTimes="0;0.885;1" dur="3.723s" fill="freeze" begin="0s;693f.click" /></path><path d="M52.7,66.02c0.83,0.83,0.93,1.98,0.93,3.52c0,0.75,0,13.64,0,22.09c0,2.18,0,4.07,0,5.38" stroke-dasharray="31.215" stroke-dashoffset="31.215"><animate attributeName="stroke-dashoffset" values="31.215" fill="freeze" begin="693f.click" /><animate attributeName="stroke-dashoffset" values="31.215;31.215;0" keyTimes="0;0.923;1" dur="4.035s" fill="freeze" begin="0s;693f.click" /></path><path d="M53.95,67.14c1.62-0.1,15.51-2.09,20.8-2.79c2.84-0.38,4.18,0.19,4.18,3.27c0.01,6.47,0.05,27.4,0.05,28.04" stroke-dasharray="55.5" stroke-dashoffset="55.5"><animate attributeName="stroke-dashoffset" values="55.5" fill="freeze" begin="693f.click" /><animate attributeName="stroke-dashoffset" values="55.5;55.5;0" keyTimes="0;0.879;1" dur="4.59s" fill="freeze" begin="0s;693f.click" /></path><path d="M55.03,79.98c4.22-0.35,19.49-2.3,22.41-2.3" stroke-dasharray="22.532" stroke-dashoffset="22.532"><animate attributeName="stroke-dashoffset" values="22.532" fill="freeze" begin="693f.click" /><animate attributeName="stroke-dashoffset" values="22.532;22.532;0" keyTimes="0;0.953;1" dur="4.815s" fill="freeze" begin="0s;693f.click" /></path><path d="M54.91,94.09c5.27-0.51,15.59-1.59,23.27-2.06" stroke-dasharray="23.363" stroke-dashoffset="23.363"><animate attributeName="stroke-dashoffset" values="23.363" fill="freeze" begin="693f.click" /><animate attributeName="stroke-dashoffset" values="23.363;23.363;0" keyTimes="0;0.954;1" dur="5.049s" fill="freeze" begin="0s;693f.click" /></path></g></svg>