<svg xmlns="http://www.w3.org/2000/svg" width="109" height="109" viewBox="0 0 109 109" id="6962"><g fill="none" stroke="#666" stroke-width="9" stroke-linecap="round" stroke-linejoin="round"><g><g><path d="M13.28,40.22c0.35,0.24,2.39,0.41,3.31,0.31c3.94-0.41,16.12-1.71,22.45-2.91c0.92-0.17,1.15-0.24,1.73,0" /><path d="M28.86,15.5c0.91,0.47,2.54,2.25,2.54,4.42c0,0.95-0.12,71.75-0.3,77.58" /><path d="M30.94,41.28c-5.34,15.04-8.31,21.4-16.58,34.56" /><path d="M34.47,48.65c2.37,1.81,5.66,5.88,7.66,9.39" /></g><g><g><g><path d="M56.98,16.66c0.03,0.43,0.06,1.11-0.06,1.72c-0.73,3.63-4.93,11.61-10.67,16.49" /></g><g><path d="M67.91,13.75c5.03,0.87,20.61,14.32,24.54,16.66c1.33,0.79,2.47,1.13,3.8,1.36" /></g></g><g><g p6:part="1" xmlns:p6="http://kanjivg.tagaini.net"><path d="M53.47,34.31c1.03,0.46,2.91,0.56,3.95,0.46c9.15-0.93,18.26-2.69,23.93-2.94c1.71-0.08,2.75,0.22,3.61,0.45" /><path d="M49.92,47.57c0.84,1.09,1.16,3.7,1.16,5.15c0,1.45,0.05,44.94,0.05,45.37" /><path d="M51.29,49.31c3.18-0.18,33.2-3.31,35.91-3.43c2.25-0.11,4,1.79,4,4.18c0,1.34-0.91,37.16-0.9,46.43" /><path d="M62.79,34.52c0.3,1.36,0.69,2.54,0.71,4.01c0.19,15.43-0.39,24.85-7.49,32.74" /><path d="M73.43,35.38c0.56,1.05,1.01,2.28,1.04,3.89c0.11,5.12-0.25,14.56-0.3,20.88c-0.04,5.49,1.58,6.17,6.95,6.17c3.4,0,6.78-0.68,7.17-1.3" /></g><g><path d="M51.44,81.18c3.91,0,34.64-2.11,39.05-2.11" /></g><g p6:part="2" xmlns:p6="http://kanjivg.tagaini.net"><path d="M51.52,93.85c7.89-0.29,28.52-1.74,38.34-1.98" /></g></g></g></g></g><g fill="none" stroke="#000" stroke-width="5" stroke-linecap="round" stroke-linejoin="round"><g><g><path d="M13.28,40.22c0.35,0.24,2.39,0.41,3.31,0.31c3.94-0.41,16.12-1.71,22.45-2.91c0.92-0.17,1.15-0.24,1.73,0" stroke-dasharray="27.76" stroke-dashoffset="27.76"><animate id="0" attributeName="stroke-dashoffset" values="27.76;0" dur="0.28s" fill="freeze" begin="0s;6962.click" /></path><path d="M28.86,15.5c0.91,0.47,2.54,2.25,2.54,4.42c0,0.95-0.12,71.75-0.3,77.58" stroke-dasharray="82.89" stroke-dashoffset="82.89"><animate attributeName="stroke-dashoffset" values="82.89" fill="freeze" begin="6962.click" /><animate id="1" attributeName="stroke-dashoffset" values="82.89;0" dur="0.62s" fill="freeze" begin="0.end" /></path><path d="M30.94,41.28c-5.34,15.04-8.31,21.4-16.58,34.56" stroke-dasharray="38.44" stroke-dashoffset="38.44"><animate attributeName="stroke-dashoffset" values="38.44" fill="freeze" begin="6962.click" /><animate id="2" attributeName="stroke-dashoffset" values="38.44;0" dur="0.38s" fill="freeze" begin="1.end" /></path><path d="M34.47,48.65c2.37,1.81,5.66,5.88,7.66,9.39" stroke-dasharray="12.18" stroke-dashoffset="12.18"><animate attributeName="stroke-dashoffset" values="12.18" fill="freeze" begin="6962.click" /><animate id="3" attributeName="stroke-dashoffset" values="12.18;0" dur="0.12s" fill="freeze" begin="2.end" /></path></g><g><g><g><path d="M56.98,16.66c0.03,0.43,0.06,1.11-0.06,1.72c-0.73,3.63-4.93,11.61-10.67,16.49" stroke-dasharray="21.63" stroke-dashoffset="21.63"><animate attributeName="stroke-dashoffset" values="21.63" fill="freeze" begin="6962.click" /><animate id="4" attributeName="stroke-dashoffset" values="21.63;0" dur="0.22s" fill="freeze" begin="3.end" /></path></g><g><path d="M67.91,13.75c5.03,0.87,20.61,14.32,24.54,16.66c1.33,0.79,2.47,1.13,3.8,1.36" stroke-dasharray="33.84" stroke-dashoffset="33.84"><animate attributeName="stroke-dashoffset" values="33.84" fill="freeze" begin="6962.click" /><animate id="5" attributeName="stroke-dashoffset" values="33.84;0" dur="0.34s" fill="freeze" begin="4.end" /></path></g></g><g><g p6:part="1" xmlns:p6="http://kanjivg.tagaini.net"><path d="M53.47,34.31c1.03,0.46,2.91,0.56,3.95,0.46c9.15-0.93,18.26-2.69,23.93-2.94c1.71-0.08,2.75,0.22,3.61,0.45" stroke-dasharray="31.78" stroke-dashoffset="31.78"><animate attributeName="stroke-dashoffset" values="31.78" fill="freeze" begin="6962.click" /><animate id="6" attributeName="stroke-dashoffset" values="31.78;0" dur="0.32s" fill="freeze" begin="5.end" /></path><path d="M49.92,47.57c0.84,1.09,1.16,3.7,1.16,5.15c0,1.45,0.05,44.94,0.05,45.37" stroke-dasharray="50.72" stroke-dashoffset="50.72"><animate attributeName="stroke-dashoffset" values="50.72" fill="freeze" begin="6962.click" /><animate id="7" attributeName="stroke-dashoffset" values="50.72;0" dur="0.51s" fill="freeze" begin="6.end" /></path><path d="M51.29,49.31c3.18-0.18,33.2-3.31,35.91-3.43c2.25-0.11,4,1.79,4,4.18c0,1.34-0.91,37.16-0.9,46.43" stroke-dasharray="89" stroke-dashoffset="89"><animate attributeName="stroke-dashoffset" values="89" fill="freeze" begin="6962.click" /><animate id="8" attributeName="stroke-dashoffset" values="89;0" dur="0.67s" fill="freeze" begin="7.end" /></path><path d="M62.79,34.52c0.3,1.36,0.69,2.54,0.71,4.01c0.19,15.43-0.39,24.85-7.49,32.74" stroke-dasharray="38.55" stroke-dashoffset="38.55"><animate attributeName="stroke-dashoffset" values="38.55" fill="freeze" begin="6962.click" /><animate id="9" attributeName="stroke-dashoffset" values="38.55;0" dur="0.39s" fill="freeze" begin="8.end" /></path><path d="M73.43,35.38c0.56,1.05,1.01,2.28,1.04,3.89c0.11,5.12-0.25,14.56-0.3,20.88c-0.04,5.49,1.58,6.17,6.95,6.17c3.4,0,6.78-0.68,7.17-1.3" stroke-dasharray="43.55" stroke-dashoffset="43.55"><animate attributeName="stroke-dashoffset" values="43.55" fill="freeze" begin="6962.click" /><animate id="10" attributeName="stroke-dashoffset" values="43.55;0" dur="0.44s" fill="freeze" begin="9.end" /></path></g><g><path d="M51.44,81.18c3.91,0,34.64-2.11,39.05-2.11" stroke-dasharray="39.11" stroke-dashoffset="39.11"><animate attributeName="stroke-dashoffset" values="39.11" fill="freeze" begin="6962.click" /><animate id="11" attributeName="stroke-dashoffset" values="39.11;0" dur="0.39s" fill="freeze" begin="10.end" /></path></g><g p6:part="2" xmlns:p6="http://kanjivg.tagaini.net"><path d="M51.52,93.85c7.89-0.29,28.52-1.74,38.34-1.98" stroke-dasharray="38.39" stroke-dashoffset="38.39"><animate attributeName="stroke-dashoffset" values="38.39" fill="freeze" begin="6962.click" /><animate id="12" attributeName="stroke-dashoffset" values="38.39;0" dur="0.38s" fill="freeze" begin="11.end" /></path></g></g></g></g></g></svg>