<svg xmlns="http://www.w3.org/2000/svg" width="109" height="109" viewBox="0 0 109 109" id="696b"><g fill="none" stroke="#666" stroke-width="9" stroke-linecap="round" stroke-linejoin="round"><g><g><path d="M13.03,38.22c0.37,0.24,2.54,0.41,3.51,0.31c4.18-0.41,17.11-2.21,23.83-3.41c0.97-0.17,2.28-0.24,2.9,0" /><path d="M29.36,15c0.91,0.47,2.04,2.25,2.04,3.92c0,0.95-0.12,72.75-0.3,78.58" /><path d="M30.94,39.28c-5.9,17.21-9.19,24.49-18.33,39.56" /><path d="M33.97,49.4c2.37,1.76,6.28,7.45,8.28,10.85" /></g><g><g><path d="M52.08,14.53c0.48,0.28,0.97,0.52,1.18,0.87c1.66,2.81,2,11.05,3.14,16.09" /><path d="M53.92,16.44c9.77-1.46,24.49-3.08,30.08-3.45c2.04-0.13,2.27,2.3,1.98,3.09c-1.21,3.28-1.63,6.24-3.43,10.78" /><path d="M56.62,29.04c6.57-0.42,19.16-1.64,28.18-2.28" /></g><g><path d="M46.28,41.01c1.11,0.34,3.15,0.43,4.27,0.34c10.53-0.91,25.21-3.34,41.31-4.09c1.85-0.09,2.97,0.16,3.9,0.33" /><path d="M55.03,41.87c0.65,0.63,1.45,2.85,1.45,3.95c0,1.1-0.18,31.5-0.18,35.46" /><path d="M56.78,53.22c10.42-1.38,17.25-1.58,26.46-2.25" /><path d="M56.43,65.8c8.51-0.95,16.9-1.85,27.28-2.53" /><path d="M46.5,82.87c0.35,0.77,1.92,1.86,3.13,1.54c4.87-1.28,32.68-10.26,40.15-12.31" /><path d="M82.53,37.83c1.13,0.99,1.25,2.66,1.25,3.76c0,1.1,0.18,48.38,0.18,57.4" /></g></g></g></g><g fill="none" stroke="#000" stroke-width="5" stroke-linecap="round" stroke-linejoin="round"><g><g><path d="M13.03,38.22c0.37,0.24,2.54,0.41,3.51,0.31c4.18-0.41,17.11-2.21,23.83-3.41c0.97-0.17,2.28-0.24,2.9,0" stroke-dasharray="30.55" stroke-dashoffset="30.55"><animate id="0" attributeName="stroke-dashoffset" values="30.55;0" dur="0.31s" fill="freeze" begin="0s;696b.click" /></path><path d="M29.36,15c0.91,0.47,2.04,2.25,2.04,3.92c0,0.95-0.12,72.75-0.3,78.58" stroke-dasharray="83.17" stroke-dashoffset="83.17"><animate attributeName="stroke-dashoffset" values="83.17" fill="freeze" begin="696b.click" /><animate id="1" attributeName="stroke-dashoffset" values="83.17;0" dur="0.63s" fill="freeze" begin="0.end" /></path><path d="M30.94,39.28c-5.9,17.21-9.19,24.49-18.33,39.56" stroke-dasharray="43.72" stroke-dashoffset="43.72"><animate attributeName="stroke-dashoffset" values="43.72" fill="freeze" begin="696b.click" /><animate id="2" attributeName="stroke-dashoffset" values="43.72;0" dur="0.44s" fill="freeze" begin="1.end" /></path><path d="M33.97,49.4c2.37,1.76,6.28,7.45,8.28,10.85" stroke-dasharray="13.7" stroke-dashoffset="13.7"><animate attributeName="stroke-dashoffset" values="13.7" fill="freeze" begin="696b.click" /><animate id="3" attributeName="stroke-dashoffset" values="13.7;0" dur="0.14s" fill="freeze" begin="2.end" /></path></g><g><g><path d="M52.08,14.53c0.48,0.28,0.97,0.52,1.18,0.87c1.66,2.81,2,11.05,3.14,16.09" stroke-dasharray="17.93" stroke-dashoffset="17.93"><animate attributeName="stroke-dashoffset" values="17.93" fill="freeze" begin="696b.click" /><animate id="4" attributeName="stroke-dashoffset" values="17.93;0" dur="0.18s" fill="freeze" begin="3.end" /></path><path d="M53.92,16.44c9.77-1.46,24.49-3.08,30.08-3.45c2.04-0.13,2.27,2.3,1.98,3.09c-1.21,3.28-1.63,6.24-3.43,10.78" stroke-dasharray="45.92" stroke-dashoffset="45.92"><animate attributeName="stroke-dashoffset" values="45.92" fill="freeze" begin="696b.click" /><animate id="5" attributeName="stroke-dashoffset" values="45.92;0" dur="0.46s" fill="freeze" begin="4.end" /></path><path d="M56.62,29.04c6.57-0.42,19.16-1.64,28.18-2.28" stroke-dasharray="28.27" stroke-dashoffset="28.27"><animate attributeName="stroke-dashoffset" values="28.27" fill="freeze" begin="696b.click" /><animate id="6" attributeName="stroke-dashoffset" values="28.27;0" dur="0.28s" fill="freeze" begin="5.end" /></path></g><g><path d="M46.28,41.01c1.11,0.34,3.15,0.43,4.27,0.34c10.53-0.91,25.21-3.34,41.31-4.09c1.85-0.09,2.97,0.16,3.9,0.33" stroke-dasharray="49.75" stroke-dashoffset="49.75"><animate attributeName="stroke-dashoffset" values="49.75" fill="freeze" begin="696b.click" /><animate id="7" attributeName="stroke-dashoffset" values="49.75;0" dur="0.5s" fill="freeze" begin="6.end" /></path><path d="M55.03,41.87c0.65,0.63,1.45,2.85,1.45,3.95c0,1.1-0.18,31.5-0.18,35.46" stroke-dasharray="39.73" stroke-dashoffset="39.73"><animate attributeName="stroke-dashoffset" values="39.73" fill="freeze" begin="696b.click" /><animate id="8" attributeName="stroke-dashoffset" values="39.73;0" dur="0.4s" fill="freeze" begin="7.end" /></path><path d="M56.78,53.22c10.42-1.38,17.25-1.58,26.46-2.25" stroke-dasharray="26.56" stroke-dashoffset="26.56"><animate attributeName="stroke-dashoffset" values="26.56" fill="freeze" begin="696b.click" /><animate id="9" attributeName="stroke-dashoffset" values="26.56;0" dur="0.27s" fill="freeze" begin="8.end" /></path><path d="M56.43,65.8c8.51-0.95,16.9-1.85,27.28-2.53" stroke-dasharray="27.4" stroke-dashoffset="27.4"><animate attributeName="stroke-dashoffset" values="27.4" fill="freeze" begin="696b.click" /><animate id="10" attributeName="stroke-dashoffset" values="27.4;0" dur="0.27s" fill="freeze" begin="9.end" /></path><path d="M46.5,82.87c0.35,0.77,1.92,1.86,3.13,1.54c4.87-1.28,32.68-10.26,40.15-12.31" stroke-dasharray="45.7" stroke-dashoffset="45.7"><animate attributeName="stroke-dashoffset" values="45.7" fill="freeze" begin="696b.click" /><animate id="11" attributeName="stroke-dashoffset" values="45.7;0" dur="0.46s" fill="freeze" begin="10.end" /></path><path d="M82.53,37.83c1.13,0.99,1.25,2.66,1.25,3.76c0,1.1,0.18,48.38,0.18,57.4" stroke-dasharray="61.49" stroke-dashoffset="61.49"><animate attributeName="stroke-dashoffset" values="61.49" fill="freeze" begin="696b.click" /><animate id="12" attributeName="stroke-dashoffset" values="61.49;0" dur="0.46s" fill="freeze" begin="11.end" /></path></g></g></g></g></svg>