<svg xmlns="http://www.w3.org/2000/svg" width="109" height="109" viewBox="0 0 109 109" id="6974"><g fill="none" stroke="#666" stroke-width="9" stroke-linecap="round" stroke-linejoin="round"><g><g><path d="M10.28,37.22c0.35,0.24,2.39,0.41,3.31,0.31c3.94-0.41,15.12-1.21,21.45-2.41c0.92-0.17,2.15-0.24,2.73,0" /><path d="M24.36,13.5c0.91,0.47,2.54,2.25,2.54,4.42c0,0.95-0.12,72.25-0.3,78.08" /><path d="M26.94,37.78c-5.1,15.04-6.94,22.4-14.83,35.56" /><path d="M29.47,50.9c2.37,1.59,5.28,6.76,7.28,9.85" /></g><g><g><g><path d="M65.77,12.09c0.98,0.41,1.66,1.91,1.66,3.21c0,3.29,0,0.19,0,9.13" /><path d="M45.29,25.73c1.55,0.46,3.36,0.53,4.9,0.46c8.74-0.4,25.81-2.44,35.71-3.38c2.57-0.24,4.13,0.22,5.42,0.45" /></g><path d="M56.3,30.95c2.67,3.46,4.37,7.62,4.62,9.9" /><path d="M81.03,27.43c0.59,0.39,0.26,1.36,0.1,1.67c-1.89,3.72-4.34,8.53-5.52,10.23" /><g><path d="M45.73,43.6c-0.14,2.88-3.37,10.42-4.52,12.14" /><path d="M45.82,45.83c2.17,0,33.74-4.17,44.66-4.17c7.43,0,2.77,4.83-1.43,7.92" /></g></g><g><path d="M50.52,58.78c0.43,0.31,1.44,2.33,1.44,2.96c0,4.09-0.06,20.3-0.14,24.2" /><path d="M52.35,61.74c2.72-0.22,29.65-4,31.68-4.14c2.39-0.16,3.4,1.25,3.32,2.67c-0.43,7.17-0.24,14.79-1.63,21.82c-1,5.05-5.58,0.2-6.73-1.54" /><path d="M66.57,46.26c0.43,0.31,1.35,2.34,1.44,2.96C68.1,49.85,67.96,94.1,67.87,98" /></g></g></g></g><g fill="none" stroke="#000" stroke-width="5" stroke-linecap="round" stroke-linejoin="round"><g><g><path d="M10.28,37.22c0.35,0.24,2.39,0.41,3.31,0.31c3.94-0.41,15.12-1.21,21.45-2.41c0.92-0.17,2.15-0.24,2.73,0" stroke-dasharray="27.7" stroke-dashoffset="27.7"><animate id="0" attributeName="stroke-dashoffset" values="27.7;0" dur="0.28s" fill="freeze" begin="0s;6974.click" /></path><path d="M24.36,13.5c0.91,0.47,2.54,2.25,2.54,4.42c0,0.95-0.12,72.25-0.3,78.08" stroke-dasharray="83.39" stroke-dashoffset="83.39"><animate attributeName="stroke-dashoffset" values="83.39" fill="freeze" begin="6974.click" /><animate id="1" attributeName="stroke-dashoffset" values="83.39;0" dur="0.63s" fill="freeze" begin="0.end" /></path><path d="M26.94,37.78c-5.1,15.04-6.94,22.4-14.83,35.56" stroke-dasharray="38.63" stroke-dashoffset="38.63"><animate attributeName="stroke-dashoffset" values="38.63" fill="freeze" begin="6974.click" /><animate id="2" attributeName="stroke-dashoffset" values="38.63;0" dur="0.39s" fill="freeze" begin="1.end" /></path><path d="M29.47,50.9c2.37,1.59,5.28,6.76,7.28,9.85" stroke-dasharray="12.31" stroke-dashoffset="12.31"><animate attributeName="stroke-dashoffset" values="12.31" fill="freeze" begin="6974.click" /><animate id="3" attributeName="stroke-dashoffset" values="12.31;0" dur="0.12s" fill="freeze" begin="2.end" /></path></g><g><g><g><path d="M65.77,12.09c0.98,0.41,1.66,1.91,1.66,3.21c0,3.29,0,0.19,0,9.13" stroke-dasharray="12.92" stroke-dashoffset="12.92"><animate attributeName="stroke-dashoffset" values="12.92" fill="freeze" begin="6974.click" /><animate id="4" attributeName="stroke-dashoffset" values="12.92;0" dur="0.13s" fill="freeze" begin="3.end" /></path><path d="M45.29,25.73c1.55,0.46,3.36,0.53,4.9,0.46c8.74-0.4,25.81-2.44,35.71-3.38c2.57-0.24,4.13,0.22,5.42,0.45" stroke-dasharray="46.28" stroke-dashoffset="46.28"><animate attributeName="stroke-dashoffset" values="46.28" fill="freeze" begin="6974.click" /><animate id="5" attributeName="stroke-dashoffset" values="46.28;0" dur="0.46s" fill="freeze" begin="4.end" /></path></g><path d="M56.3,30.95c2.67,3.46,4.37,7.62,4.62,9.9" stroke-dasharray="11.03" stroke-dashoffset="11.03"><animate attributeName="stroke-dashoffset" values="11.03" fill="freeze" begin="6974.click" /><animate id="6" attributeName="stroke-dashoffset" values="11.03;0" dur="0.11s" fill="freeze" begin="5.end" /></path><path d="M81.03,27.43c0.59,0.39,0.26,1.36,0.1,1.67c-1.89,3.72-4.34,8.53-5.52,10.23" stroke-dasharray="13.45" stroke-dashoffset="13.45"><animate attributeName="stroke-dashoffset" values="13.45" fill="freeze" begin="6974.click" /><animate id="7" attributeName="stroke-dashoffset" values="13.45;0" dur="0.13s" fill="freeze" begin="6.end" /></path><g><path d="M45.73,43.6c-0.14,2.88-3.37,10.42-4.52,12.14" stroke-dasharray="13.02" stroke-dashoffset="13.02"><animate attributeName="stroke-dashoffset" values="13.02" fill="freeze" begin="6974.click" /><animate id="8" attributeName="stroke-dashoffset" values="13.02;0" dur="0.13s" fill="freeze" begin="7.end" /></path><path d="M45.82,45.83c2.17,0,33.74-4.17,44.66-4.17c7.43,0,2.77,4.83-1.43,7.92" stroke-dasharray="57.96" stroke-dashoffset="57.96"><animate attributeName="stroke-dashoffset" values="57.96" fill="freeze" begin="6974.click" /><animate id="9" attributeName="stroke-dashoffset" values="57.96;0" dur="0.58s" fill="freeze" begin="8.end" /></path></g></g><g><path d="M50.52,58.78c0.43,0.31,1.44,2.33,1.44,2.96c0,4.09-0.06,20.3-0.14,24.2" stroke-dasharray="27.53" stroke-dashoffset="27.53"><animate attributeName="stroke-dashoffset" values="27.53" fill="freeze" begin="6974.click" /><animate id="10" attributeName="stroke-dashoffset" values="27.53;0" dur="0.28s" fill="freeze" begin="9.end" /></path><path d="M52.35,61.74c2.72-0.22,29.65-4,31.68-4.14c2.39-0.16,3.4,1.25,3.32,2.67c-0.43,7.17-0.24,14.79-1.63,21.82c-1,5.05-5.58,0.2-6.73-1.54" stroke-dasharray="68.26" stroke-dashoffset="68.26"><animate attributeName="stroke-dashoffset" values="68.26" fill="freeze" begin="6974.click" /><animate id="11" attributeName="stroke-dashoffset" values="68.26;0" dur="0.51s" fill="freeze" begin="10.end" /></path><path d="M66.57,46.26c0.43,0.31,1.35,2.34,1.44,2.96C68.1,49.85,67.96,94.1,67.87,98" stroke-dasharray="52.1" stroke-dashoffset="52.1"><animate attributeName="stroke-dashoffset" values="52.1" fill="freeze" begin="6974.click" /><animate id="12" attributeName="stroke-dashoffset" values="52.1;0" dur="0.52s" fill="freeze" begin="11.end" /></path></g></g></g></g></svg>