<svg xmlns="http://www.w3.org/2000/svg" viewBox="0 0 109 109" id="6974"><g fill="none" stroke="#666" stroke-width="6" stroke-linecap="round" stroke-linejoin="round"><g><g><path d="M10.28,37.22c0.35,0.24,2.39,0.41,3.31,0.31c3.94-0.41,15.12-1.21,21.45-2.41c0.92-0.17,2.15-0.24,2.73,0" /><path d="M24.36,13.5c0.91,0.47,2.54,2.25,2.54,4.42c0,0.95-0.12,72.25-0.3,78.08" /><path d="M26.94,37.78c-5.1,15.04-6.94,22.4-14.83,35.56" /><path d="M29.47,50.9c2.37,1.59,5.28,6.76,7.28,9.85" /></g><g><g><g><path d="M65.77,12.09c0.98,0.41,1.66,1.91,1.66,3.21c0,3.29,0,0.19,0,9.13" /><path d="M45.29,25.73c1.55,0.46,3.36,0.53,4.9,0.46c8.74-0.4,25.81-2.44,35.71-3.38c2.57-0.24,4.13,0.22,5.42,0.45" /></g><path d="M56.3,30.95c2.67,3.46,4.37,7.62,4.62,9.9" /><path d="M81.03,27.43c0.59,0.39,0.26,1.36,0.1,1.67c-1.89,3.72-4.34,8.53-5.52,10.23" /><g><path d="M45.73,43.6c-0.14,2.88-3.37,10.42-4.52,12.14" /><path d="M45.82,45.83c2.17,0,33.74-4.17,44.66-4.17c7.43,0,2.77,4.83-1.43,7.92" /></g></g><g><path d="M50.52,58.78c0.43,0.31,1.44,2.33,1.44,2.96c0,4.09-0.06,20.3-0.14,24.2" /><path d="M52.35,61.74c2.72-0.22,29.65-4,31.68-4.14c2.39-0.16,3.4,1.25,3.32,2.67c-0.43,7.17-0.24,14.79-1.63,21.82c-1,5.05-5.58,0.2-6.73-1.54" /><path d="M66.57,46.26c0.43,0.31,1.35,2.34,1.44,2.96C68.1,49.85,67.96,94.1,67.87,98" /></g></g></g></g><g fill="none" stroke="#000" stroke-width="3" stroke-linecap="round" stroke-linejoin="round"><path d="M10.28,37.22c0.35,0.24,2.39,0.41,3.31,0.31c3.94-0.41,15.12-1.21,21.45-2.41c0.92-0.17,2.15-0.24,2.73,0" stroke-dasharray="27.698" stroke-dashoffset="27.698"><animate attributeName="stroke-dashoffset" values="27.698;27.698;0" dur="0.277s" fill="freeze" begin="0s;6974.click" /></path><path d="M24.36,13.5c0.91,0.47,2.54,2.25,2.54,4.42c0,0.95-0.12,72.25-0.3,78.08" stroke-dasharray="83.393" stroke-dashoffset="83.393"><animate attributeName="stroke-dashoffset" values="83.393" fill="freeze" begin="6974.click" /><animate attributeName="stroke-dashoffset" values="83.393;83.393;0" keyTimes="0;0.306;1" dur="0.904s" fill="freeze" begin="0s;6974.click" /></path><path d="M26.94,37.78c-5.1,15.04-6.94,22.4-14.83,35.56" stroke-dasharray="38.635" stroke-dashoffset="38.635"><animate attributeName="stroke-dashoffset" values="38.635" fill="freeze" begin="6974.click" /><animate attributeName="stroke-dashoffset" values="38.635;38.635;0" keyTimes="0;0.701;1" dur="1.29s" fill="freeze" begin="0s;6974.click" /></path><path d="M29.47,50.9c2.37,1.59,5.28,6.76,7.28,9.85" stroke-dasharray="12.312" stroke-dashoffset="12.312"><animate attributeName="stroke-dashoffset" values="12.312" fill="freeze" begin="6974.click" /><animate attributeName="stroke-dashoffset" values="12.312;12.312;0" keyTimes="0;0.913;1" dur="1.413s" fill="freeze" begin="0s;6974.click" /></path><path d="M65.77,12.09c0.98,0.41,1.66,1.91,1.66,3.21c0,3.29,0,0.19,0,9.13" stroke-dasharray="12.924" stroke-dashoffset="12.924"><animate attributeName="stroke-dashoffset" values="12.924" fill="freeze" begin="6974.click" /><animate attributeName="stroke-dashoffset" values="12.924;12.924;0" keyTimes="0;0.916;1" dur="1.542s" fill="freeze" begin="0s;6974.click" /></path><path d="M45.29,25.73c1.55,0.46,3.36,0.53,4.9,0.46c8.74-0.4,25.81-2.44,35.71-3.38c2.57-0.24,4.13,0.22,5.42,0.45" stroke-dasharray="46.281" stroke-dashoffset="46.281"><animate attributeName="stroke-dashoffset" values="46.281" fill="freeze" begin="6974.click" /><animate attributeName="stroke-dashoffset" values="46.281;46.281;0" keyTimes="0;0.769;1" dur="2.005s" fill="freeze" begin="0s;6974.click" /></path><path d="M56.3,30.95c2.67,3.46,4.37,7.62,4.62,9.9" stroke-dasharray="11.032" stroke-dashoffset="11.032"><animate attributeName="stroke-dashoffset" values="11.032" fill="freeze" begin="6974.click" /><animate attributeName="stroke-dashoffset" values="11.032;11.032;0" keyTimes="0;0.948;1" dur="2.115s" fill="freeze" begin="0s;6974.click" /></path><path d="M81.03,27.43c0.59,0.39,0.26,1.36,0.1,1.67c-1.89,3.72-4.34,8.53-5.52,10.23" stroke-dasharray="13.448" stroke-dashoffset="13.448"><animate attributeName="stroke-dashoffset" values="13.448" fill="freeze" begin="6974.click" /><animate attributeName="stroke-dashoffset" values="13.448;13.448;0" keyTimes="0;0.94;1" dur="2.249s" fill="freeze" begin="0s;6974.click" /></path><path d="M45.73,43.6c-0.14,2.88-3.37,10.42-4.52,12.14" stroke-dasharray="13.024" stroke-dashoffset="13.024"><animate attributeName="stroke-dashoffset" values="13.024" fill="freeze" begin="6974.click" /><animate attributeName="stroke-dashoffset" values="13.024;13.024;0" keyTimes="0;0.945;1" dur="2.379s" fill="freeze" begin="0s;6974.click" /></path><path d="M45.82,45.83c2.17,0,33.74-4.17,44.66-4.17c7.43,0,2.77,4.83-1.43,7.92" stroke-dasharray="57.961" stroke-dashoffset="57.961"><animate attributeName="stroke-dashoffset" values="57.961" fill="freeze" begin="6974.click" /><animate attributeName="stroke-dashoffset" values="57.961;57.961;0" keyTimes="0;0.804;1" dur="2.959s" fill="freeze" begin="0s;6974.click" /></path><path d="M50.52,58.78c0.43,0.31,1.44,2.33,1.44,2.96c0,4.09-0.06,20.3-0.14,24.2" stroke-dasharray="27.535" stroke-dashoffset="27.535"><animate attributeName="stroke-dashoffset" values="27.535" fill="freeze" begin="6974.click" /><animate attributeName="stroke-dashoffset" values="27.535;27.535;0" keyTimes="0;0.915;1" dur="3.234s" fill="freeze" begin="0s;6974.click" /></path><path d="M52.35,61.74c2.72-0.22,29.65-4,31.68-4.14c2.39-0.16,3.4,1.25,3.32,2.67c-0.43,7.17-0.24,14.79-1.63,21.82c-1,5.05-5.58,0.2-6.73-1.54" stroke-dasharray="68.26" stroke-dashoffset="68.26"><animate attributeName="stroke-dashoffset" values="68.26" fill="freeze" begin="6974.click" /><animate attributeName="stroke-dashoffset" values="68.26;68.26;0" keyTimes="0;0.863;1" dur="3.747s" fill="freeze" begin="0s;6974.click" /></path><path d="M66.57,46.26c0.43,0.31,1.35,2.34,1.44,2.96C68.1,49.85,67.96,94.1,67.87,98" stroke-dasharray="52.104" stroke-dashoffset="52.104"><animate attributeName="stroke-dashoffset" values="52.104" fill="freeze" begin="6974.click" /><animate attributeName="stroke-dashoffset" values="52.104;52.104;0" keyTimes="0;0.878;1" dur="4.268s" fill="freeze" begin="0s;6974.click" /></path></g></svg>