<svg xmlns="http://www.w3.org/2000/svg" width="109" height="109" viewBox="0 0 109 109" id="698a"><g fill="none" stroke="#666" stroke-width="9" stroke-linecap="round" stroke-linejoin="round"><g><g><path d="M12.28,38.72c0.35,0.24,2.39,0.41,3.31,0.31c3.94-0.41,17.12-1.71,23.45-2.91c0.92-0.17,1.15-0.24,1.73,0" /><path d="M27.36,15c0.91,0.47,2.04,2.5,2.04,4.92c0,0.95-0.12,70.25-0.3,76.08" /><path d="M28.94,39.28c-5.5,16.78-8.56,23.87-17.08,38.56" /><path d="M32.47,48.9c3.03,1.6,6.03,5.35,7.66,8.89" /></g><g><g><g><path d="M43.68,25.42c0.69,0.32,1.96,0.36,2.66,0.32c4.34-0.22,11.32-1.16,15.72-1.46c1.15-0.08,1.85,0.15,2.43,0.32" /><path d="M38.86,41.58c1.06,0.17,2.97,0.09,4.01,0c6.56-0.52,10.03-1.79,17.59-2.46c1.73-0.15,2.79-0.05,3.66,0.02" /></g><g><path d="M54.61,42.28c0.47,0.39,0.75,1.76,0.85,2.54c0.09,0.78,0,45.78-0.09,50.67" /><path d="M45.76,52.39c0.44,1.39,0.43,2.1,0.43,3.27c0,8.58-0.86,20.33-7.42,31.32" /><path d="M63.45,49.71c0.92,0.41,1.48,1.83,1.66,2.65c0.18,0.82,0,25.38-0.18,30.48" /></g></g><g><g p6:partial xmlns:p6="http://kanjivg.tagaini.net"><path d="M69.15,36.52c0.6,0.98,1.2,1.9,1.31,2.56c0.87,5.46,1.38,17.79,1.89,27.84" /><path d="M70.58,38.28c7.92-1.28,19.91-2.91,25.08-3.44c1.9-0.2,2.87,1.38,2.76,2.84c-0.38,5.36-0.92,16.82-2.32,27.77" /><path d="M72.03,51c2.26-0.26,22.77-3.07,24.63-3.07" /><path d="M72.71,64.95c6.41-0.7,15.46-1.52,23.03-2.03" /></g><g><path d="M83.08,14c0.76,0.48,1.22,2.18,1.38,3.15c0.15,0.97-0.15,65.8-0.15,79.85" /></g></g></g></g></g><g fill="none" stroke="#000" stroke-width="5" stroke-linecap="round" stroke-linejoin="round"><g><g><path d="M12.28,38.72c0.35,0.24,2.39,0.41,3.31,0.31c3.94-0.41,17.12-1.71,23.45-2.91c0.92-0.17,1.15-0.24,1.73,0" stroke-dasharray="28.75" stroke-dashoffset="28.75"><animate id="0" attributeName="stroke-dashoffset" values="28.75;0" dur="0.29s" fill="freeze" begin="0s;698a.click" /></path><path d="M27.36,15c0.91,0.47,2.04,2.5,2.04,4.92c0,0.95-0.12,70.25-0.3,76.08" stroke-dasharray="81.6" stroke-dashoffset="81.6"><animate attributeName="stroke-dashoffset" values="81.6" fill="freeze" begin="698a.click" /><animate id="1" attributeName="stroke-dashoffset" values="81.6;0" dur="0.61s" fill="freeze" begin="0.end" /></path><path d="M28.94,39.28c-5.5,16.78-8.56,23.87-17.08,38.56" stroke-dasharray="42.28" stroke-dashoffset="42.28"><animate attributeName="stroke-dashoffset" values="42.28" fill="freeze" begin="698a.click" /><animate id="2" attributeName="stroke-dashoffset" values="42.28;0" dur="0.42s" fill="freeze" begin="1.end" /></path><path d="M32.47,48.9c3.03,1.6,6.03,5.35,7.66,8.89" stroke-dasharray="11.92" stroke-dashoffset="11.92"><animate attributeName="stroke-dashoffset" values="11.92" fill="freeze" begin="698a.click" /><animate id="3" attributeName="stroke-dashoffset" values="11.92;0" dur="0.12s" fill="freeze" begin="2.end" /></path></g><g><g><g><path d="M43.68,25.42c0.69,0.32,1.96,0.36,2.66,0.32c4.34-0.22,11.32-1.16,15.72-1.46c1.15-0.08,1.85,0.15,2.43,0.32" stroke-dasharray="20.96" stroke-dashoffset="20.96"><animate attributeName="stroke-dashoffset" values="20.96" fill="freeze" begin="698a.click" /><animate id="4" attributeName="stroke-dashoffset" values="20.96;0" dur="0.21s" fill="freeze" begin="3.end" /></path><path d="M38.86,41.58c1.06,0.17,2.97,0.09,4.01,0c6.56-0.52,10.03-1.79,17.59-2.46c1.73-0.15,2.79-0.05,3.66,0.02" stroke-dasharray="25.45" stroke-dashoffset="25.45"><animate attributeName="stroke-dashoffset" values="25.45" fill="freeze" begin="698a.click" /><animate id="5" attributeName="stroke-dashoffset" values="25.45;0" dur="0.25s" fill="freeze" begin="4.end" /></path></g><g><path d="M54.61,42.28c0.47,0.39,0.75,1.76,0.85,2.54c0.09,0.78,0,45.78-0.09,50.67" stroke-dasharray="53.39" stroke-dashoffset="53.39"><animate attributeName="stroke-dashoffset" values="53.39" fill="freeze" begin="698a.click" /><animate id="6" attributeName="stroke-dashoffset" values="53.39;0" dur="0.53s" fill="freeze" begin="5.end" /></path><path d="M45.76,52.39c0.44,1.39,0.43,2.1,0.43,3.27c0,8.58-0.86,20.33-7.42,31.32" stroke-dasharray="35.91" stroke-dashoffset="35.91"><animate attributeName="stroke-dashoffset" values="35.91" fill="freeze" begin="698a.click" /><animate id="7" attributeName="stroke-dashoffset" values="35.91;0" dur="0.36s" fill="freeze" begin="6.end" /></path><path d="M63.45,49.71c0.92,0.41,1.48,1.83,1.66,2.65c0.18,0.82,0,25.38-0.18,30.48" stroke-dasharray="33.71" stroke-dashoffset="33.71"><animate attributeName="stroke-dashoffset" values="33.71" fill="freeze" begin="698a.click" /><animate id="8" attributeName="stroke-dashoffset" values="33.71;0" dur="0.34s" fill="freeze" begin="7.end" /></path></g></g><g><g p6:partial xmlns:p6="http://kanjivg.tagaini.net"><path d="M69.15,36.52c0.6,0.98,1.2,1.9,1.31,2.56c0.87,5.46,1.38,17.79,1.89,27.84" stroke-dasharray="30.8" stroke-dashoffset="30.8"><animate attributeName="stroke-dashoffset" values="30.8" fill="freeze" begin="698a.click" /><animate id="9" attributeName="stroke-dashoffset" values="30.8;0" dur="0.31s" fill="freeze" begin="8.end" /></path><path d="M70.58,38.28c7.92-1.28,19.91-2.91,25.08-3.44c1.9-0.2,2.87,1.38,2.76,2.84c-0.38,5.36-0.92,16.82-2.32,27.77" stroke-dasharray="57.75" stroke-dashoffset="57.75"><animate attributeName="stroke-dashoffset" values="57.75" fill="freeze" begin="698a.click" /><animate id="10" attributeName="stroke-dashoffset" values="57.75;0" dur="0.58s" fill="freeze" begin="9.end" /></path><path d="M72.03,51c2.26-0.26,22.77-3.07,24.63-3.07" stroke-dasharray="24.82" stroke-dashoffset="24.82"><animate attributeName="stroke-dashoffset" values="24.82" fill="freeze" begin="698a.click" /><animate id="11" attributeName="stroke-dashoffset" values="24.82;0" dur="0.25s" fill="freeze" begin="10.end" /></path><path d="M72.71,64.95c6.41-0.7,15.46-1.52,23.03-2.03" stroke-dasharray="23.12" stroke-dashoffset="23.12"><animate attributeName="stroke-dashoffset" values="23.12" fill="freeze" begin="698a.click" /><animate id="12" attributeName="stroke-dashoffset" values="23.12;0" dur="0.23s" fill="freeze" begin="11.end" /></path></g><g><path d="M83.08,14c0.76,0.48,1.22,2.18,1.38,3.15c0.15,0.97-0.15,65.8-0.15,79.85" stroke-dasharray="83.36" stroke-dashoffset="83.36"><animate attributeName="stroke-dashoffset" values="83.36" fill="freeze" begin="698a.click" /><animate id="13" attributeName="stroke-dashoffset" values="83.36;0" dur="0.63s" fill="freeze" begin="12.end" /></path></g></g></g></g></g></svg>