<svg xmlns="http://www.w3.org/2000/svg" width="109" height="109" viewBox="0 0 109 109" id="6994"><g fill="none" stroke="#666" stroke-width="9" stroke-linecap="round" stroke-linejoin="round"><g><g><path d="M13.28,35.72c0.35,0.24,2.39,0.41,3.31,0.31c3.94-0.41,14.62-1.21,20.95-2.41c0.92-0.17,1.15-0.24,1.73,0" /><path d="M27.36,13.5c0.91,0.47,2.04,2.25,2.04,4.92c0,0.95-0.12,70.75-0.3,76.58" /><path d="M28.94,37.78c-5.66,15.8-8.81,22.48-17.58,36.31" /><path d="M32.47,48.9c2.37,1.59,5.66,6.05,7.66,9.14" /></g><g><g p5:partial xmlns:p5="http://kanjivg.tagaini.net"><path d="M53.22,14.51c0.75,0.56,1.2,1.39,1.34,2.5c0.15,1.11,0.15,8.05,0.15,10.82" /><g p5:partial><path d="M46.5,29.22c1.31-0.12,15.77-2.94,16.96-3.16c2.02-0.38,2.52,1.4,2.44,3.18c-0.33,7.51-1.38,19.26-2.07,26.87" /><path d="M46.73,41.73c3.35-0.48,12.64-1.98,17.7-2.32" /><path d="M46.65,55.71c3.62-0.52,11.26-1.71,17.49-2.59" /><path d="M 44.89,27.11 c 0.75,0.56 1.2,2.5 1.35,3.61 0.13,1.01 -0.08,47.44 -0.08,57.28 0,2.61 0.91,2.5 1.78,1.65 3.03,-2.98 10.166978,-9.132699 13.536978,-11.852699" /><path d="M 67.448685,65.746113 c 0.02,0.417151 0.07087,0.624918 -0.08143,0.987139 -1.070583,2.546168 -1.813422,4.16842 -6.282745,7.13842" /><path d="M 54.864371,70.260046 c 4.79,3.08 9.42842,8.39842 12.15842,14.90842" /></g></g><g><path d="M74.32,21.76c1.09,0.27,1.76,0.54,2.64,0.48c5.68-0.44,11.33-1.55,13.77-2.52c2.85-1.14,4.33,1.6,3.06,4.27c-1.27,2.67-6.65,14.7-8.87,18.51" /><path d="M84.56,42.61c19.94,16.64,13.19,46.14,3.64,32.63" /><path d="M75.95,22.75c0.79,0.5,1.27,2.25,1.43,3.25c0.16,1,0,64.25-0.16,70.5" /></g></g></g></g><g fill="none" stroke="#000" stroke-width="5" stroke-linecap="round" stroke-linejoin="round"><path d="M13.28,35.72c0.35,0.24,2.39,0.41,3.31,0.31c3.94-0.41,14.62-1.21,20.95-2.41c0.92-0.17,1.15-0.24,1.73,0" stroke-dasharray="26.209" stroke-dashoffset="26.209"><animate attributeName="stroke-dashoffset" values="26.209;26.209;0" dur="0.262s" fill="freeze" begin="0s;6994.click" /></path><path d="M27.36,13.5c0.91,0.47,2.04,2.25,2.04,4.92c0,0.95-0.12,70.75-0.3,76.58" stroke-dasharray="82.125" stroke-dashoffset="82.125"><animate attributeName="stroke-dashoffset" values="82.125" fill="freeze" begin="6994.click" /><animate attributeName="stroke-dashoffset" values="82.125;82.125;0" keyTimes="0;0.298;1" dur="0.879s" fill="freeze" begin="0s;6994.click" /></path><path d="M28.94,37.78c-5.66,15.8-8.81,22.48-17.58,36.31" stroke-dasharray="40.458" stroke-dashoffset="40.458"><animate attributeName="stroke-dashoffset" values="40.458" fill="freeze" begin="6994.click" /><animate attributeName="stroke-dashoffset" values="40.458;40.458;0" keyTimes="0;0.685;1" dur="1.284s" fill="freeze" begin="0s;6994.click" /></path><path d="M32.47,48.9c2.37,1.59,5.66,6.05,7.66,9.14" stroke-dasharray="11.984" stroke-dashoffset="11.984"><animate attributeName="stroke-dashoffset" values="11.984" fill="freeze" begin="6994.click" /><animate attributeName="stroke-dashoffset" values="11.984;11.984;0" keyTimes="0;0.915;1" dur="1.404s" fill="freeze" begin="0s;6994.click" /></path><path d="M53.22,14.51c0.75,0.56,1.2,1.39,1.34,2.5c0.15,1.11,0.15,8.05,0.15,10.82" stroke-dasharray="13.743" stroke-dashoffset="13.743"><animate attributeName="stroke-dashoffset" values="13.743" fill="freeze" begin="6994.click" /><animate attributeName="stroke-dashoffset" values="13.743;13.743;0" keyTimes="0;0.911;1" dur="1.541s" fill="freeze" begin="0s;6994.click" /></path><path d="M46.5,29.22c1.31-0.12,15.77-2.94,16.96-3.16c2.02-0.38,2.52,1.4,2.44,3.18c-0.33,7.51-1.38,19.26-2.07,26.87" stroke-dasharray="48.991" stroke-dashoffset="48.991"><animate attributeName="stroke-dashoffset" values="48.991" fill="freeze" begin="6994.click" /><animate attributeName="stroke-dashoffset" values="48.991;48.991;0" keyTimes="0;0.759;1" dur="2.031s" fill="freeze" begin="0s;6994.click" /></path><path d="M46.73,41.73c3.35-0.48,12.64-1.98,17.7-2.32" stroke-dasharray="17.856" stroke-dashoffset="17.856"><animate attributeName="stroke-dashoffset" values="17.856" fill="freeze" begin="6994.click" /><animate attributeName="stroke-dashoffset" values="17.856;17.856;0" keyTimes="0;0.919;1" dur="2.21s" fill="freeze" begin="0s;6994.click" /></path><path d="M46.65,55.71c3.62-0.52,11.26-1.71,17.49-2.59" stroke-dasharray="17.682" stroke-dashoffset="17.682"><animate attributeName="stroke-dashoffset" values="17.682" fill="freeze" begin="6994.click" /><animate attributeName="stroke-dashoffset" values="17.682;17.682;0" keyTimes="0;0.926;1" dur="2.387s" fill="freeze" begin="0s;6994.click" /></path><path d="M 44.89,27.11 c 0.75,0.56 1.2,2.5 1.35,3.61 0.13,1.01 -0.08,47.44 -0.08,57.28 0,2.61 0.91,2.5 1.78,1.65 3.03,-2.98 10.166978,-9.132699 13.536978,-11.852699" stroke-dasharray="82.868" stroke-dashoffset="82.868"><animate attributeName="stroke-dashoffset" values="82.868" fill="freeze" begin="6994.click" /><animate attributeName="stroke-dashoffset" values="82.868;82.868;0" keyTimes="0;0.793;1" dur="3.01s" fill="freeze" begin="0s;6994.click" /></path><path d="M 67.448685,65.746113 c 0.02,0.417151 0.07087,0.624918 -0.08143,0.987139 -1.070583,2.546168 -1.813422,4.16842 -6.282745,7.13842" stroke-dasharray="10.707" stroke-dashoffset="10.707"><animate attributeName="stroke-dashoffset" values="10.707" fill="freeze" begin="6994.click" /><animate attributeName="stroke-dashoffset" values="10.707;10.707;0" keyTimes="0;0.966;1" dur="3.117s" fill="freeze" begin="0s;6994.click" /></path><path d="M 54.864371,70.260046 c 4.79,3.08 9.42842,8.39842 12.15842,14.90842" stroke-dasharray="19.518" stroke-dashoffset="19.518"><animate attributeName="stroke-dashoffset" values="19.518" fill="freeze" begin="6994.click" /><animate attributeName="stroke-dashoffset" values="19.518;19.518;0" keyTimes="0;0.941;1" dur="3.312s" fill="freeze" begin="0s;6994.click" /></path><path d="M74.32,21.76c1.09,0.27,1.76,0.54,2.64,0.48c5.68-0.44,11.33-1.55,13.77-2.52c2.85-1.14,4.33,1.6,3.06,4.27c-1.27,2.67-6.65,14.7-8.87,18.51" stroke-dasharray="44.426" stroke-dashoffset="44.426"><animate attributeName="stroke-dashoffset" values="44.426" fill="freeze" begin="6994.click" /><animate attributeName="stroke-dashoffset" values="44.426;44.426;0" keyTimes="0;0.882;1" dur="3.756s" fill="freeze" begin="0s;6994.click" /></path><path d="M84.56,42.61c19.94,16.64,13.19,46.14,3.64,32.63" stroke-dasharray="47.983" stroke-dashoffset="47.983"><animate attributeName="stroke-dashoffset" values="47.983" fill="freeze" begin="6994.click" /><animate attributeName="stroke-dashoffset" values="47.983;47.983;0" keyTimes="0;0.887;1" dur="4.236s" fill="freeze" begin="0s;6994.click" /></path><path d="M75.95,22.75c0.79,0.5,1.27,2.25,1.43,3.25c0.16,1,0,64.25-0.16,70.5" stroke-dasharray="74.13" stroke-dashoffset="74.13"><animate attributeName="stroke-dashoffset" values="74.13" fill="freeze" begin="6994.click" /><animate attributeName="stroke-dashoffset" values="74.13;74.13;0" keyTimes="0;0.884;1" dur="4.793s" fill="freeze" begin="0s;6994.click" /></path></g></svg>