<svg xmlns="http://www.w3.org/2000/svg" width="109" height="109" viewBox="0 0 109 109" id="6995"><g fill="none" stroke="#666" stroke-width="9" stroke-linecap="round" stroke-linejoin="round"><g><g><path d="M11.78,37.22c0.35,0.24,2.39,0.41,3.31,0.31c3.94-0.41,15.12-1.71,21.45-2.91c0.92-0.17,2.15-0.24,2.73,0" /><path d="M26.86,14.5c0.91,0.47,2.04,2.25,2.04,4.42c0,0.95-0.12,69.75-0.3,75.58" /><path d="M28.44,38.28c-5.26,16.02-8.19,22.79-16.33,36.81" /><path d="M30.47,46.4c2.37,1.59,6.28,6.76,8.28,9.85" /></g><g><g><path d="M65.87,12.91c1.05,0.4,2.56,2.37,2.54,3.52c-0.08,3.64-0.08,7.49-0.08,10.8" /><g><path d="M48.29,26.57c0,3.58-2.52,13.43-3.67,15.82" /><path d="M48.81,29.64c6.24-0.83,34.53-3.5,39.6-3.55c9.2-0.09,2.18,5.48,0.21,7.25" /></g></g><g><g><path d="M59.86,35.57c0.03,0.4,0.15,1.09-0.07,1.61c-1.71,4.07-5.33,9.73-11.86,15.45" /><path d="M75.42,36.33c5.21,2.69,11.56,7.83,13.35,10.58" /></g><g><path d="M68.53,44c0.07,0.7,0.29,1.89-0.14,2.82c-3.83,8.25-11.65,18-25.06,27.85" /><path d="M67.16,49.65C71.5,51.5,85.77,66.1,91.72,69.69c1.48,0.89,3.19,1.48,4.58,1.77" /><g><path d="M52.54,74.78c0.38,0.34,0.77,1.14,0.93,1.57c1.31,3.39,2.45,13.77,3.35,19.86" /><path d="M54.32,76.71c10.34-1.56,18.44-3.36,24.78-4.04c2.16-0.23,3.49,1.55,3.16,2.56c-1.57,4.85-2.75,11.14-4.2,17.09" /><path d="M57.84,93.97c8.33-0.47,13.21-0.92,22.77-1.65" /></g></g></g></g></g></g><g fill="none" stroke="#000" stroke-width="5" stroke-linecap="round" stroke-linejoin="round"><g><g><path d="M11.78,37.22c0.35,0.24,2.39,0.41,3.31,0.31c3.94-0.41,15.12-1.71,21.45-2.91c0.92-0.17,2.15-0.24,2.73,0" stroke-dasharray="27.757" stroke-dashoffset="27.757"><animate attributeName="stroke-dashoffset" values="27.757;27.757;0" dur="0.278s" fill="freeze" begin="0s;6995.click" /></path><path d="M26.86,14.5c0.91,0.47,2.04,2.25,2.04,4.42c0,0.95-0.12,69.75-0.3,75.58" stroke-dasharray="80.646" stroke-dashoffset="80.646"><animate attributeName="stroke-dashoffset" values="80.646" fill="freeze" begin="6995.click" /><animate attributeName="stroke-dashoffset" values="80.646;80.646;0" keyTimes="0;0.314;1" dur="0.884s" fill="freeze" begin="0s;6995.click" /></path><path d="M28.44,38.28c-5.26,16.02-8.19,22.79-16.33,36.81" stroke-dasharray="40.373" stroke-dashoffset="40.373"><animate attributeName="stroke-dashoffset" values="40.373" fill="freeze" begin="6995.click" /><animate attributeName="stroke-dashoffset" values="40.373;40.373;0" keyTimes="0;0.686;1" dur="1.288s" fill="freeze" begin="0s;6995.click" /></path><path d="M30.47,46.4c2.37,1.59,6.28,6.76,8.28,9.85" stroke-dasharray="12.924" stroke-dashoffset="12.924"><animate attributeName="stroke-dashoffset" values="12.924" fill="freeze" begin="6995.click" /><animate attributeName="stroke-dashoffset" values="12.924;12.924;0" keyTimes="0;0.909;1" dur="1.417s" fill="freeze" begin="0s;6995.click" /></path></g><g><g><path d="M65.87,12.91c1.05,0.4,2.56,2.37,2.54,3.52c-0.08,3.64-0.08,7.49-0.08,10.8" stroke-dasharray="15.311" stroke-dashoffset="15.311"><animate attributeName="stroke-dashoffset" values="15.311" fill="freeze" begin="6995.click" /><animate attributeName="stroke-dashoffset" values="15.311;15.311;0" keyTimes="0;0.903;1" dur="1.57s" fill="freeze" begin="0s;6995.click" /></path><g><path d="M48.29,26.57c0,3.58-2.52,13.43-3.67,15.82" stroke-dasharray="16.298" stroke-dashoffset="16.298"><animate attributeName="stroke-dashoffset" values="16.298" fill="freeze" begin="6995.click" /><animate attributeName="stroke-dashoffset" values="16.298;16.298;0" keyTimes="0;0.906;1" dur="1.733s" fill="freeze" begin="0s;6995.click" /></path><path d="M48.81,29.64c6.24-0.83,34.53-3.5,39.6-3.55c9.2-0.09,2.18,5.48,0.21,7.25" stroke-dasharray="52.366" stroke-dashoffset="52.366"><animate attributeName="stroke-dashoffset" values="52.366" fill="freeze" begin="6995.click" /><animate attributeName="stroke-dashoffset" values="52.366;52.366;0" keyTimes="0;0.768;1" dur="2.257s" fill="freeze" begin="0s;6995.click" /></path></g></g><g><g><path d="M59.86,35.57c0.03,0.4,0.15,1.09-0.07,1.61c-1.71,4.07-5.33,9.73-11.86,15.45" stroke-dasharray="21.265" stroke-dashoffset="21.265"><animate attributeName="stroke-dashoffset" values="21.265" fill="freeze" begin="6995.click" /><animate attributeName="stroke-dashoffset" values="21.265;21.265;0" keyTimes="0;0.914;1" dur="2.47s" fill="freeze" begin="0s;6995.click" /></path><path d="M75.42,36.33c5.21,2.69,11.56,7.83,13.35,10.58" stroke-dasharray="17.153" stroke-dashoffset="17.153"><animate attributeName="stroke-dashoffset" values="17.153" fill="freeze" begin="6995.click" /><animate attributeName="stroke-dashoffset" values="17.153;17.153;0" keyTimes="0;0.935;1" dur="2.642s" fill="freeze" begin="0s;6995.click" /></path></g><g><path d="M68.53,44c0.07,0.7,0.29,1.89-0.14,2.82c-3.83,8.25-11.65,18-25.06,27.85" stroke-dasharray="40.703" stroke-dashoffset="40.703"><animate attributeName="stroke-dashoffset" values="40.703" fill="freeze" begin="6995.click" /><animate attributeName="stroke-dashoffset" values="40.703;40.703;0" keyTimes="0;0.867;1" dur="3.049s" fill="freeze" begin="0s;6995.click" /></path><path d="M67.16,49.65C71.5,51.5,85.77,66.1,91.72,69.69c1.48,0.89,3.19,1.48,4.58,1.77" stroke-dasharray="36.683" stroke-dashoffset="36.683"><animate attributeName="stroke-dashoffset" values="36.683" fill="freeze" begin="6995.click" /><animate attributeName="stroke-dashoffset" values="36.683;36.683;0" keyTimes="0;0.893;1" dur="3.416s" fill="freeze" begin="0s;6995.click" /></path><g><path d="M52.54,74.78c0.38,0.34,0.77,1.14,0.93,1.57c1.31,3.39,2.45,13.77,3.35,19.86" stroke-dasharray="22.003" stroke-dashoffset="22.003"><animate attributeName="stroke-dashoffset" values="22.003" fill="freeze" begin="6995.click" /><animate attributeName="stroke-dashoffset" values="22.003;22.003;0" keyTimes="0;0.939;1" dur="3.636s" fill="freeze" begin="0s;6995.click" /></path><path d="M54.32,76.71c10.34-1.56,18.44-3.36,24.78-4.04c2.16-0.23,3.49,1.55,3.16,2.56c-1.57,4.85-2.75,11.14-4.2,17.09" stroke-dasharray="47.397" stroke-dashoffset="47.397"><animate attributeName="stroke-dashoffset" values="47.397" fill="freeze" begin="6995.click" /><animate attributeName="stroke-dashoffset" values="47.397;47.397;0" keyTimes="0;0.885;1" dur="4.11s" fill="freeze" begin="0s;6995.click" /></path><path d="M57.84,93.97c8.33-0.47,13.21-0.92,22.77-1.65" stroke-dasharray="22.831" stroke-dashoffset="22.831"><animate attributeName="stroke-dashoffset" values="22.831" fill="freeze" begin="6995.click" /><animate attributeName="stroke-dashoffset" values="22.831;22.831;0" keyTimes="0;0.947;1" dur="4.338s" fill="freeze" begin="0s;6995.click" /></path></g></g></g></g></g></g></svg>