<svg xmlns="http://www.w3.org/2000/svg" width="109" height="109" viewBox="0 0 109 109" id="699b"><g fill="none" stroke="#666" stroke-width="9" stroke-linecap="round" stroke-linejoin="round"><g><g><path d="M13.03,38.97c1.23,0.86,4.47,0.93,5.88,0.75c6.34-0.84,13.49-1.69,18.85-2.57c1.24-0.21,2.87-0.51,4.26-0.27" /><path d="M29.36,16.25c1.44,1.44,1.79,3,1.79,5.42c0,0.79-0.02,45.02-0.02,64.58c0,4.05,0,7.04,0,8.38" /><path d="M30.19,39.53c0,1.34-0.59,3.23-1.11,4.52c-5.36,13.22-9.61,21.69-17.58,31.82" /><path d="M33.62,49.38c2.33,1.35,6.16,5.75,8.12,8.38" /></g><g><g><g><g><path d="M48.95,25.23c1.56,0.68,3.66,0.32,5.3,0.22c8.04-0.49,16.7-2.01,24.63-2.6c2.15-0.16,4.35-0.45,6.46,0.1" /></g><g><g><path d="M49.31,35.28c1.84,0.9,4.52,0.34,6.44,0.2c6.98-0.52,14.95-1.56,22.63-2.14c2.08-0.16,4.47-0.19,6.48,0.4" /></g><g p8:part="1" xmlns:p8="http://kanjivg.tagaini.net"><g><path d="M42.73,46.67c2.33,1,5.34,0.43,7.77,0.21c10.26-0.93,23.11-2.86,35.38-3.23c2.73-0.08,5.55-0.27,8.22,0.42" /></g></g></g></g><g p6:part="2" xmlns:p6="http://kanjivg.tagaini.net"><g><path d="M67.02,12.75c0.31,1.16,0.52,2.26,0.25,4.1C65.19,30.86,57.25,56.38,40.41,67" /><path d="M69.11,37.79c3.01,3.97,13.23,15,18.7,20.79c1.82,1.93,3.7,3.3,6.2,4.93" /></g></g></g><g><g><path d="M72.03,53.25c-0.15,1-0.71,1.71-1.46,2.14c-2.6,2.2-9.22,5.25-19.92,8.85" /></g><g><path d="M45.07,72.19c2.3,0.85,4.83,0.32,7.18,0.06c6.6-0.72,18.19-2.06,26.01-2.69c2.5-0.2,4.99-0.49,7.46,0.06" /><path d="M64.49,62.15c0.81,0.81,1.08,1.98,1.08,3.21c0,0.34-0.04,15.56-0.05,24.89C65.5,93.51,65.5,96.06,65.5,97" /><path d="M64.48,71.59c0,1.28-0.43,2.18-1.29,3.33c-4.83,6.5-12.36,13.97-19.66,18.31" /><path d="M68.93,77.23C74.5,78.5,84.5,86.75,87.77,91" /></g></g></g></g></g><g fill="none" stroke="#000" stroke-width="5" stroke-linecap="round" stroke-linejoin="round"><g><g><path d="M13.03,38.97c1.23,0.86,4.47,0.93,5.88,0.75c6.34-0.84,13.49-1.69,18.85-2.57c1.24-0.21,2.87-0.51,4.26-0.27" stroke-dasharray="29.33" stroke-dashoffset="29.33"><animate id="0" attributeName="stroke-dashoffset" values="29.33;0" dur="0.29s" fill="freeze" begin="0s;699b.click" /></path><path d="M29.36,16.25c1.44,1.44,1.79,3,1.79,5.42c0,0.79-0.02,45.02-0.02,64.58c0,4.05,0,7.04,0,8.38" stroke-dasharray="78.85" stroke-dashoffset="78.85"><animate attributeName="stroke-dashoffset" values="78.85" fill="freeze" begin="699b.click" /><animate id="1" attributeName="stroke-dashoffset" values="78.85;0" dur="0.59s" fill="freeze" begin="0.end" /></path><path d="M30.19,39.53c0,1.34-0.59,3.23-1.11,4.52c-5.36,13.22-9.61,21.69-17.58,31.82" stroke-dasharray="41.17" stroke-dashoffset="41.17"><animate attributeName="stroke-dashoffset" values="41.17" fill="freeze" begin="699b.click" /><animate id="2" attributeName="stroke-dashoffset" values="41.17;0" dur="0.41s" fill="freeze" begin="1.end" /></path><path d="M33.62,49.38c2.33,1.35,6.16,5.75,8.12,8.38" stroke-dasharray="11.72" stroke-dashoffset="11.72"><animate attributeName="stroke-dashoffset" values="11.72" fill="freeze" begin="699b.click" /><animate id="3" attributeName="stroke-dashoffset" values="11.72;0" dur="0.12s" fill="freeze" begin="2.end" /></path></g><g><g><g><g><path d="M48.95,25.23c1.56,0.68,3.66,0.32,5.3,0.22c8.04-0.49,16.7-2.01,24.63-2.6c2.15-0.16,4.35-0.45,6.46,0.1" stroke-dasharray="36.62" stroke-dashoffset="36.62"><animate attributeName="stroke-dashoffset" values="36.62" fill="freeze" begin="699b.click" /><animate id="4" attributeName="stroke-dashoffset" values="36.62;0" dur="0.37s" fill="freeze" begin="3.end" /></path></g><g><g><path d="M49.31,35.28c1.84,0.9,4.52,0.34,6.44,0.2c6.98-0.52,14.95-1.56,22.63-2.14c2.08-0.16,4.47-0.19,6.48,0.4" stroke-dasharray="35.78" stroke-dashoffset="35.78"><animate attributeName="stroke-dashoffset" values="35.78" fill="freeze" begin="699b.click" /><animate id="5" attributeName="stroke-dashoffset" values="35.78;0" dur="0.36s" fill="freeze" begin="4.end" /></path></g><g p8:part="1" xmlns:p8="http://kanjivg.tagaini.net"><g><path d="M42.73,46.67c2.33,1,5.34,0.43,7.77,0.21c10.26-0.93,23.11-2.86,35.38-3.23c2.73-0.08,5.55-0.27,8.22,0.42" stroke-dasharray="51.66" stroke-dashoffset="51.66"><animate attributeName="stroke-dashoffset" values="51.66" fill="freeze" begin="699b.click" /><animate id="6" attributeName="stroke-dashoffset" values="51.66;0" dur="0.52s" fill="freeze" begin="5.end" /></path></g></g></g></g><g p6:part="2" xmlns:p6="http://kanjivg.tagaini.net"><g><path d="M67.02,12.75c0.31,1.16,0.52,2.26,0.25,4.1C65.19,30.86,57.25,56.38,40.41,67" stroke-dasharray="62.58" stroke-dashoffset="62.58"><animate attributeName="stroke-dashoffset" values="62.58" fill="freeze" begin="699b.click" /><animate id="7" attributeName="stroke-dashoffset" values="62.58;0" dur="0.47s" fill="freeze" begin="6.end" /></path><path d="M69.11,37.79c3.01,3.97,13.23,15,18.7,20.79c1.82,1.93,3.7,3.3,6.2,4.93" stroke-dasharray="35.91" stroke-dashoffset="35.91"><animate attributeName="stroke-dashoffset" values="35.91" fill="freeze" begin="699b.click" /><animate id="8" attributeName="stroke-dashoffset" values="35.91;0" dur="0.36s" fill="freeze" begin="7.end" /></path></g></g></g><g><g><path d="M72.03,53.25c-0.15,1-0.71,1.71-1.46,2.14c-2.6,2.2-9.22,5.25-19.92,8.85" stroke-dasharray="24.57" stroke-dashoffset="24.57"><animate attributeName="stroke-dashoffset" values="24.57" fill="freeze" begin="699b.click" /><animate id="9" attributeName="stroke-dashoffset" values="24.57;0" dur="0.25s" fill="freeze" begin="8.end" /></path></g><g><path d="M45.07,72.19c2.3,0.85,4.83,0.32,7.18,0.06c6.6-0.72,18.19-2.06,26.01-2.69c2.5-0.2,4.99-0.49,7.46,0.06" stroke-dasharray="40.9" stroke-dashoffset="40.9"><animate attributeName="stroke-dashoffset" values="40.9" fill="freeze" begin="699b.click" /><animate id="10" attributeName="stroke-dashoffset" values="40.9;0" dur="0.41s" fill="freeze" begin="9.end" /></path><path d="M64.49,62.15c0.81,0.81,1.08,1.98,1.08,3.21c0,0.34-0.04,15.56-0.05,24.89C65.5,93.51,65.5,96.06,65.5,97" stroke-dasharray="35.12" stroke-dashoffset="35.12"><animate attributeName="stroke-dashoffset" values="35.12" fill="freeze" begin="699b.click" /><animate id="11" attributeName="stroke-dashoffset" values="35.12;0" dur="0.35s" fill="freeze" begin="10.end" /></path><path d="M64.48,71.59c0,1.28-0.43,2.18-1.29,3.33c-4.83,6.5-12.36,13.97-19.66,18.31" stroke-dasharray="30.66" stroke-dashoffset="30.66"><animate attributeName="stroke-dashoffset" values="30.66" fill="freeze" begin="699b.click" /><animate id="12" attributeName="stroke-dashoffset" values="30.66;0" dur="0.31s" fill="freeze" begin="11.end" /></path><path d="M68.93,77.23C74.5,78.5,84.5,86.75,87.77,91" stroke-dasharray="23.61" stroke-dashoffset="23.61"><animate attributeName="stroke-dashoffset" values="23.61" fill="freeze" begin="699b.click" /><animate id="13" attributeName="stroke-dashoffset" values="23.61;0" dur="0.24s" fill="freeze" begin="12.end" /></path></g></g></g></g></g></svg>