<svg xmlns="http://www.w3.org/2000/svg" viewBox="0 0 109 109" id="699c"><g fill="none" stroke="#666" stroke-width="6" stroke-linecap="round" stroke-linejoin="round"><g><g><path d="M11.78,35.72c0.35,0.24,2.39,0.41,3.31,0.31c3.94-0.41,17.12-1.21,23.45-2.41c0.92-0.17,2.15-0.24,2.73,0" /><path d="M27.86,11.5c0.91,0.47,2.04,2.25,2.04,4.42c0,0.95-0.12,75.75-0.3,81.58" /><path d="M29.44,37.78c-5.9,15.58-9.19,22.17-18.33,35.81" /><path d="M30.97,46.9c3.78,3.35,6.03,6.85,8.28,10.85" /></g><g><g><g p6:partial xmlns:p6="http://kanjivg.tagaini.net"><g><path d="M65.63,11.25c0.61,0.72,1.54,2.25,1.54,3.17c0,2.92,0,1.79,0,9.7" /><path d="M46.23,26.22c1.52,0.36,3.3,0.42,4.82,0.36c8.58-0.31,22.34-3.37,35.31-3.64c2.54-0.05,4.06,0.17,5.32,0.36" /></g><g><path d="M55.52,30.33c2.17,2.83,3.56,6.24,3.75,8.11" /><path d="M80.33,26.09c0.2,1.11,0.36,2.02,0.21,2.32c-1.51,3-4.09,8.69-5.17,10.52" /></g></g><g><path d="M47.27,40.48c-0.1,2.7-2.44,9.77-3.27,11.38" /><path d="M47.11,43.29c7.25-0.89,30-4.61,44.12-4.98c8.63-0.23,2.22,4.35-1,7.85" /></g></g><g><g><path d="M66.81,45.62c0.68,0.48,1.81,2.33,1.81,3.29c0,3.51-0.21,4.13-0.09,7.1" /><path d="M45.55,57.91c1.12,0.08,3.68,0.56,4.78,0.44c8.82-0.93,28.28-3.03,40.26-3.68c1.85-0.1,2.79,0.04,4.17,0.57" /></g><g><path d="M65.57,65.5c3.32,1.45,14.28,3.45,17.76,4.12c1.57,0.3,2.51,1.26,1.92,2.9c-2.51,6.98-5.82,16.14-9.95,22.24c-3.55,5.24-6.05,1.24-7.69-2.71" /><path d="M64.51,60.2c0.32,1,0.07,2.07-0.12,3.23C63,71.75,55.5,86.5,42.34,94.03" /></g></g></g></g></g><g fill="none" stroke="#000" stroke-width="3" stroke-linecap="round" stroke-linejoin="round"><path d="M11.78,35.72c0.35,0.24,2.39,0.41,3.31,0.31c3.94-0.41,17.12-1.21,23.45-2.41c0.92-0.17,2.15-0.24,2.73,0" stroke-dasharray="29.687" stroke-dashoffset="29.687"><animate attributeName="stroke-dashoffset" values="29.687;29.687;0" dur="0.297s" fill="freeze" begin="0s;699c.click" /></path><path d="M27.86,11.5c0.91,0.47,2.04,2.25,2.04,4.42c0,0.95-0.12,75.75-0.3,81.58" stroke-dasharray="86.646" stroke-dashoffset="86.646"><animate attributeName="stroke-dashoffset" values="86.646" fill="freeze" begin="699c.click" /><animate attributeName="stroke-dashoffset" values="86.646;86.646;0" keyTimes="0;0.313;1" dur="0.948s" fill="freeze" begin="0s;699c.click" /></path><path d="M29.44,37.78c-5.9,15.58-9.19,22.17-18.33,35.81" stroke-dasharray="40.352" stroke-dashoffset="40.352"><animate attributeName="stroke-dashoffset" values="40.352" fill="freeze" begin="699c.click" /><animate attributeName="stroke-dashoffset" values="40.352;40.352;0" keyTimes="0;0.701;1" dur="1.352s" fill="freeze" begin="0s;699c.click" /></path><path d="M30.97,46.9c3.78,3.35,6.03,6.85,8.28,10.85" stroke-dasharray="13.721" stroke-dashoffset="13.721"><animate attributeName="stroke-dashoffset" values="13.721" fill="freeze" begin="699c.click" /><animate attributeName="stroke-dashoffset" values="13.721;13.721;0" keyTimes="0;0.831;1" dur="1.626s" fill="freeze" begin="0s;699c.click" /></path><path d="M65.63,11.25c0.61,0.72,1.54,2.25,1.54,3.17c0,2.92,0,1.79,0,9.7" stroke-dasharray="13.275" stroke-dashoffset="13.275"><animate attributeName="stroke-dashoffset" values="13.275" fill="freeze" begin="699c.click" /><animate attributeName="stroke-dashoffset" values="13.275;13.275;0" keyTimes="0;0.859;1" dur="1.892s" fill="freeze" begin="0s;699c.click" /></path><path d="M46.23,26.22c1.52,0.36,3.3,0.42,4.82,0.36c8.58-0.31,22.34-3.37,35.31-3.64c2.54-0.05,4.06,0.17,5.32,0.36" stroke-dasharray="45.704" stroke-dashoffset="45.704"><animate attributeName="stroke-dashoffset" values="45.704" fill="freeze" begin="699c.click" /><animate attributeName="stroke-dashoffset" values="45.704;45.704;0" keyTimes="0;0.805;1" dur="2.349s" fill="freeze" begin="0s;699c.click" /></path><path d="M55.52,30.33c2.17,2.83,3.56,6.24,3.75,8.11" stroke-dasharray="9.024" stroke-dashoffset="9.024"><animate attributeName="stroke-dashoffset" values="9.024" fill="freeze" begin="699c.click" /><animate attributeName="stroke-dashoffset" values="9.024;9.024;0" keyTimes="0;0.929;1" dur="2.529s" fill="freeze" begin="0s;699c.click" /></path><path d="M80.33,26.09c0.2,1.11,0.36,2.02,0.21,2.32c-1.51,3-4.09,8.69-5.17,10.52" stroke-dasharray="14.073" stroke-dashoffset="14.073"><animate attributeName="stroke-dashoffset" values="14.073" fill="freeze" begin="699c.click" /><animate attributeName="stroke-dashoffset" values="14.073;14.073;0" keyTimes="0;0.9;1" dur="2.81s" fill="freeze" begin="0s;699c.click" /></path><path d="M47.27,40.48c-0.1,2.7-2.44,9.77-3.27,11.38" stroke-dasharray="11.883" stroke-dashoffset="11.883"><animate attributeName="stroke-dashoffset" values="11.883" fill="freeze" begin="699c.click" /><animate attributeName="stroke-dashoffset" values="11.883;11.883;0" keyTimes="0;0.922;1" dur="3.048s" fill="freeze" begin="0s;699c.click" /></path><path d="M47.11,43.29c7.25-0.89,30-4.61,44.12-4.98c8.63-0.23,2.22,4.35-1,7.85" stroke-dasharray="57.841" stroke-dashoffset="57.841"><animate attributeName="stroke-dashoffset" values="57.841" fill="freeze" begin="699c.click" /><animate attributeName="stroke-dashoffset" values="57.841;57.841;0" keyTimes="0;0.841;1" dur="3.626s" fill="freeze" begin="0s;699c.click" /></path><path d="M66.81,45.62c0.68,0.48,1.81,2.33,1.81,3.29c0,3.51-0.21,4.13-0.09,7.1" stroke-dasharray="10.939" stroke-dashoffset="10.939"><animate attributeName="stroke-dashoffset" values="10.939" fill="freeze" begin="699c.click" /><animate attributeName="stroke-dashoffset" values="10.939;10.939;0" keyTimes="0;0.943;1" dur="3.845s" fill="freeze" begin="0s;699c.click" /></path><path d="M45.55,57.91c1.12,0.08,3.68,0.56,4.78,0.44c8.82-0.93,28.28-3.03,40.26-3.68c1.85-0.1,2.79,0.04,4.17,0.57" stroke-dasharray="49.488" stroke-dashoffset="49.488"><animate attributeName="stroke-dashoffset" values="49.488" fill="freeze" begin="699c.click" /><animate attributeName="stroke-dashoffset" values="49.488;49.488;0" keyTimes="0;0.886;1" dur="4.34s" fill="freeze" begin="0s;699c.click" /></path><path d="M65.57,65.5c3.32,1.45,14.28,3.45,17.76,4.12c1.57,0.3,2.51,1.26,1.92,2.9c-2.51,6.98-5.82,16.14-9.95,22.24c-3.55,5.24-6.05,1.24-7.69-2.71" stroke-dasharray="58.228" stroke-dashoffset="58.228"><animate attributeName="stroke-dashoffset" values="58.228" fill="freeze" begin="699c.click" /><animate attributeName="stroke-dashoffset" values="58.228;58.228;0" keyTimes="0;0.882;1" dur="4.922s" fill="freeze" begin="0s;699c.click" /></path><path d="M64.51,60.2c0.32,1,0.07,2.07-0.12,3.23C63,71.75,55.5,86.5,42.34,94.03" stroke-dasharray="42.042" stroke-dashoffset="42.042"><animate attributeName="stroke-dashoffset" values="42.042" fill="freeze" begin="699c.click" /><animate attributeName="stroke-dashoffset" values="42.042;42.042;0" keyTimes="0;0.921;1" dur="5.342s" fill="freeze" begin="0s;699c.click" /></path></g></svg>