<svg xmlns="http://www.w3.org/2000/svg" viewBox="0 0 109 109" id="69b1"><g fill="none" stroke="#666" stroke-width="6" stroke-linecap="round" stroke-linejoin="round"><g><g><path d="M10.28,36.73c0.36,0.25,2.48,0.42,3.43,0.33c4.08-0.42,15.67-0.21,22.23-1.47c0.95-0.18,2.23-0.25,2.83,0" /><path d="M24.86,14.5c0.91,0.47,2.04,2.25,2.04,4.42c0,0.95-0.12,72.25-0.3,78.08" /><path d="M25.94,39.28c-5.1,15.04-7.94,21.4-15.83,34.56" /><path d="M28.47,44.9c2.37,1.59,8.28,8.76,10.28,11.85" /></g><g><g><g><path d="M64.21,11.75c0.64,0.49,1.7,2.39,1.7,3.36c0,3.6-0.2,5.77-0.08,8.81" /><path d="M39.93,25.2c2.1,0.57,5.01,0.6,6.5,0.48c12-1.01,25.54-2.8,41.84-3.06c2.52-0.04,3.8,0.04,5.68,0.61" /></g></g><g><g><path d="M50.23,33.23c0.25,0.38,0.5,1.19,0.61,1.66c0.85,3.73,1.88,13.13,2.46,19.83" /><path d="M50.77,34.16c12.98-1.41,25.02-2.05,30.37-2.64c1.96-0.21,3.09,2.17,2.85,3.45c-1.03,5.54-1.22,8.79-3.1,17.86" /></g><path d="M38.25,43.91c1.47,0.35,4.16,0.41,5.62,0.35c14.18-0.64,29.2-4,47.25-3.99c2.44,0,3.91,0.17,5.13,0.34" /><g><path d="M53.63,52.6c5.68-0.29,20.14-1.22,27.34-1.52" /></g><g><path d="M64.53,54.63c0.07,0.69,0.26,1.83-0.13,2.76c-2.54,6-10.82,16.94-23.55,26.41" /><path d="M55.22,75.17c0.46,0.46,0.97,0.91,0.96,1.71c-0.03,10.09-0.31,15.18-0.31,16.89c0,1.71,1.14,2.68,2.59,1.4c1.45-1.28,11.9-8.1,13.83-9.38" /><path d="M87.87,56.67c0.03,0.3,0.32,1.42,0.14,1.81c-1.13,2.43-4.67,5.9-10.44,10.74" /><path d="M67.32,58.33c5.69,7.48,19.82,25.2,23.8,29.38c1.5,1.57,2.79,2.25,4.29,2.7" /></g></g></g></g></g><g fill="none" stroke="#000" stroke-width="3" stroke-linecap="round" stroke-linejoin="round"><path d="M10.28,36.73c0.36,0.25,2.48,0.42,3.43,0.33c4.08-0.42,15.67-0.21,22.23-1.47c0.95-0.18,2.23-0.25,2.83,0" stroke-dasharray="28.624" stroke-dashoffset="28.624"><animate attributeName="stroke-dashoffset" values="28.624;28.624;0" dur="0.286s" fill="freeze" begin="0s;69b1.click" /></path><path d="M24.86,14.5c0.91,0.47,2.04,2.25,2.04,4.42c0,0.95-0.12,72.25-0.3,78.08" stroke-dasharray="83.146" stroke-dashoffset="83.146"><animate attributeName="stroke-dashoffset" values="83.146" fill="freeze" begin="69b1.click" /><animate attributeName="stroke-dashoffset" values="83.146;83.146;0" keyTimes="0;0.314;1" dur="0.911s" fill="freeze" begin="0s;69b1.click" /></path><path d="M25.94,39.28c-5.1,15.04-7.94,21.4-15.83,34.56" stroke-dasharray="38.114" stroke-dashoffset="38.114"><animate attributeName="stroke-dashoffset" values="38.114" fill="freeze" begin="69b1.click" /><animate attributeName="stroke-dashoffset" values="38.114;38.114;0" keyTimes="0;0.705;1" dur="1.292s" fill="freeze" begin="0s;69b1.click" /></path><path d="M28.47,44.9c2.37,1.59,8.28,8.76,10.28,11.85" stroke-dasharray="15.737" stroke-dashoffset="15.737"><animate attributeName="stroke-dashoffset" values="15.737" fill="freeze" begin="69b1.click" /><animate attributeName="stroke-dashoffset" values="15.737;15.737;0" keyTimes="0;0.892;1" dur="1.449s" fill="freeze" begin="0s;69b1.click" /></path><path d="M64.21,11.75c0.64,0.49,1.7,2.39,1.7,3.36c0,3.6-0.2,5.77-0.08,8.81" stroke-dasharray="12.651" stroke-dashoffset="12.651"><animate attributeName="stroke-dashoffset" values="12.651" fill="freeze" begin="69b1.click" /><animate attributeName="stroke-dashoffset" values="12.651;12.651;0" keyTimes="0;0.919;1" dur="1.576s" fill="freeze" begin="0s;69b1.click" /></path><path d="M39.93,25.2c2.1,0.57,5.01,0.6,6.5,0.48c12-1.01,25.54-2.8,41.84-3.06c2.52-0.04,3.8,0.04,5.68,0.61" stroke-dasharray="54.251" stroke-dashoffset="54.251"><animate attributeName="stroke-dashoffset" values="54.251" fill="freeze" begin="69b1.click" /><animate attributeName="stroke-dashoffset" values="54.251;54.251;0" keyTimes="0;0.744;1" dur="2.119s" fill="freeze" begin="0s;69b1.click" /></path><path d="M50.23,33.23c0.25,0.38,0.5,1.19,0.61,1.66c0.85,3.73,1.88,13.13,2.46,19.83" stroke-dasharray="21.767" stroke-dashoffset="21.767"><animate attributeName="stroke-dashoffset" values="21.767" fill="freeze" begin="69b1.click" /><animate attributeName="stroke-dashoffset" values="21.767;21.767;0" keyTimes="0;0.907;1" dur="2.337s" fill="freeze" begin="0s;69b1.click" /></path><path d="M50.77,34.16c12.98-1.41,25.02-2.05,30.37-2.64c1.96-0.21,3.09,2.17,2.85,3.45c-1.03,5.54-1.22,8.79-3.1,17.86" stroke-dasharray="53.701" stroke-dashoffset="53.701"><animate attributeName="stroke-dashoffset" values="53.701" fill="freeze" begin="69b1.click" /><animate attributeName="stroke-dashoffset" values="53.701;53.701;0" keyTimes="0;0.813;1" dur="2.874s" fill="freeze" begin="0s;69b1.click" /></path><path d="M38.25,43.91c1.47,0.35,4.16,0.41,5.62,0.35c14.18-0.64,29.2-4,47.25-3.99c2.44,0,3.91,0.17,5.13,0.34" stroke-dasharray="58.235" stroke-dashoffset="58.235"><animate attributeName="stroke-dashoffset" values="58.235" fill="freeze" begin="69b1.click" /><animate attributeName="stroke-dashoffset" values="58.235;58.235;0" keyTimes="0;0.832;1" dur="3.456s" fill="freeze" begin="0s;69b1.click" /></path><path d="M53.63,52.6c5.68-0.29,20.14-1.22,27.34-1.52" stroke-dasharray="27.383" stroke-dashoffset="27.383"><animate attributeName="stroke-dashoffset" values="27.383" fill="freeze" begin="69b1.click" /><animate attributeName="stroke-dashoffset" values="27.383;27.383;0" keyTimes="0;0.927;1" dur="3.73s" fill="freeze" begin="0s;69b1.click" /></path><path d="M64.53,54.63c0.07,0.69,0.26,1.83-0.13,2.76c-2.54,6-10.82,16.94-23.55,26.41" stroke-dasharray="38.504" stroke-dashoffset="38.504"><animate attributeName="stroke-dashoffset" values="38.504" fill="freeze" begin="69b1.click" /><animate attributeName="stroke-dashoffset" values="38.504;38.504;0" keyTimes="0;0.906;1" dur="4.115s" fill="freeze" begin="0s;69b1.click" /></path><path d="M55.22,75.17c0.46,0.46,0.97,0.91,0.96,1.71c-0.03,10.09-0.31,15.18-0.31,16.89c0,1.71,1.14,2.68,2.59,1.4c1.45-1.28,11.9-8.1,13.83-9.38" stroke-dasharray="39.717" stroke-dashoffset="39.717"><animate attributeName="stroke-dashoffset" values="39.717" fill="freeze" begin="69b1.click" /><animate attributeName="stroke-dashoffset" values="39.717;39.717;0" keyTimes="0;0.912;1" dur="4.512s" fill="freeze" begin="0s;69b1.click" /></path><path d="M87.87,56.67c0.03,0.3,0.32,1.42,0.14,1.81c-1.13,2.43-4.67,5.9-10.44,10.74" stroke-dasharray="16.893" stroke-dashoffset="16.893"><animate attributeName="stroke-dashoffset" values="16.893" fill="freeze" begin="69b1.click" /><animate attributeName="stroke-dashoffset" values="16.893;16.893;0" keyTimes="0;0.964;1" dur="4.681s" fill="freeze" begin="0s;69b1.click" /></path><path d="M67.32,58.33c5.69,7.48,19.82,25.2,23.8,29.38c1.5,1.57,2.79,2.25,4.29,2.7" stroke-dasharray="42.953" stroke-dashoffset="42.953"><animate attributeName="stroke-dashoffset" values="42.953" fill="freeze" begin="69b1.click" /><animate attributeName="stroke-dashoffset" values="42.953;42.953;0" keyTimes="0;0.916;1" dur="5.111s" fill="freeze" begin="0s;69b1.click" /></path></g></svg>