<svg xmlns="http://www.w3.org/2000/svg" width="109" height="109" viewBox="0 0 109 109" id="69de"><g fill="none" stroke="#666" stroke-width="9" stroke-linecap="round" stroke-linejoin="round"><g><g><path d="M13.28,39.22c0.35,0.24,2.39,0.41,3.31,0.31c3.94-0.41,15.12-1.21,21.45-2.41c0.92-0.17,2.15-0.24,2.73,0" /><path d="M27.86,15.5c0.91,0.47,2.04,2.5,2.04,4.42c0,0.95-0.12,69.75-0.3,75.58" /><path d="M29.44,39.78C24.75,52.75,19.5,63.25,9.86,73.59" /><path d="M32.72,46.15c2.31,1.73,7.08,6.25,9.03,9.6" /></g><g><g><g><g><path d="M67.02,12.75c1.23,1,1.95,1.94,1.95,3.86c0,3.05,0,5.02,0,8.05" /><path d="M48.33,26.32c1.02,0.29,2.22,0.34,3.24,0.29c5.77-0.25,25.3-2.82,34.03-3.04c1.71-0.04,2.73,0.14,3.58,0.28" /></g><g><path d="M56.57,28.72c2.64,3.63,4.33,8.01,4.57,10.4" /><path d="M79.12,26.73c0.38,0.77,0.14,1.64,0.07,2c-0.46,2.43-4.21,9.13-5.36,10.99" /><path d="M44.58,43.32c1.3,0.38,2.83,0.51,4.12,0.38c14.63-1.41,26.73-3.06,43.16-3.85c2.17-0.1,3.47,0.18,4.56,0.37" /></g></g><g><path d="M50.75,52.65c0.26,0.43,0.27,0.72,0.42,1.26c1.19,4.43,2.31,16.56,3.05,24.82" /><path d="M51.98,53.25c9.23-1.11,27.3-2.53,34.19-3.46c2.53-0.35,3.46,1.83,3.33,3.05c-0.48,4.46-2.77,15.17-3.93,22.63" /><path d="M53.2,64.19c3.01-0.43,31.42-2.65,33.91-2.83" /><path d="M54.69,75.57c7.78-0.92,21.7-1.46,30.88-2.23" /><path d="M68.56,51.69c0.47,1.16,0.88,1.52,0.88,3.3c0,8.51-0.34,23.17-0.34,28.58c0,12.64,5.67,11.21,11.25,11.21c11.3,0,12.98-0.03,12.98-9.84" /></g></g></g></g></g><g fill="none" stroke="#000" stroke-width="5" stroke-linecap="round" stroke-linejoin="round"><path d="M13.28,39.22c0.35,0.24,2.39,0.41,3.31,0.31c3.94-0.41,15.12-1.21,21.45-2.41c0.92-0.17,2.15-0.24,2.73,0" stroke-dasharray="27.698" stroke-dashoffset="27.698"><animate attributeName="stroke-dashoffset" values="27.698;27.698;0" dur="0.277s" fill="freeze" begin="0s;69de.click" /></path><path d="M27.86,15.5c0.91,0.47,2.04,2.5,2.04,4.42c0,0.95-0.12,69.75-0.3,75.58" stroke-dasharray="80.624" stroke-dashoffset="80.624"><animate attributeName="stroke-dashoffset" values="80.624" fill="freeze" begin="69de.click" /><animate attributeName="stroke-dashoffset" values="80.624;80.624;0" keyTimes="0;0.314;1" dur="0.883s" fill="freeze" begin="0s;69de.click" /></path><path d="M29.44,39.78C24.75,52.75,19.5,63.25,9.86,73.59" stroke-dasharray="39.367" stroke-dashoffset="39.367"><animate attributeName="stroke-dashoffset" values="39.367" fill="freeze" begin="69de.click" /><animate attributeName="stroke-dashoffset" values="39.367;39.367;0" keyTimes="0;0.691;1" dur="1.277s" fill="freeze" begin="0s;69de.click" /></path><path d="M32.72,46.15c2.31,1.73,7.08,6.25,9.03,9.6" stroke-dasharray="13.242" stroke-dashoffset="13.242"><animate attributeName="stroke-dashoffset" values="13.242" fill="freeze" begin="69de.click" /><animate attributeName="stroke-dashoffset" values="13.242;13.242;0" keyTimes="0;0.906;1" dur="1.409s" fill="freeze" begin="0s;69de.click" /></path><path d="M67.02,12.75c1.23,1,1.95,1.94,1.95,3.86c0,3.05,0,5.02,0,8.05" stroke-dasharray="12.562" stroke-dashoffset="12.562"><animate attributeName="stroke-dashoffset" values="12.562" fill="freeze" begin="69de.click" /><animate attributeName="stroke-dashoffset" values="12.562;12.562;0" keyTimes="0;0.918;1" dur="1.535s" fill="freeze" begin="0s;69de.click" /></path><path d="M48.33,26.32c1.02,0.29,2.22,0.34,3.24,0.29c5.77-0.25,25.3-2.82,34.03-3.04c1.71-0.04,2.73,0.14,3.58,0.28" stroke-dasharray="41.037" stroke-dashoffset="41.037"><animate attributeName="stroke-dashoffset" values="41.037" fill="freeze" begin="69de.click" /><animate attributeName="stroke-dashoffset" values="41.037;41.037;0" keyTimes="0;0.789;1" dur="1.945s" fill="freeze" begin="0s;69de.click" /></path><path d="M56.57,28.72c2.64,3.63,4.33,8.01,4.57,10.4" stroke-dasharray="11.463" stroke-dashoffset="11.463"><animate attributeName="stroke-dashoffset" values="11.463" fill="freeze" begin="69de.click" /><animate attributeName="stroke-dashoffset" values="11.463;11.463;0" keyTimes="0;0.944;1" dur="2.06s" fill="freeze" begin="0s;69de.click" /></path><path d="M79.12,26.73c0.38,0.77,0.14,1.64,0.07,2c-0.46,2.43-4.21,9.13-5.36,10.99" stroke-dasharray="14.304" stroke-dashoffset="14.304"><animate attributeName="stroke-dashoffset" values="14.304" fill="freeze" begin="69de.click" /><animate attributeName="stroke-dashoffset" values="14.304;14.304;0" keyTimes="0;0.935;1" dur="2.203s" fill="freeze" begin="0s;69de.click" /></path><path d="M44.58,43.32c1.3,0.38,2.83,0.51,4.12,0.38c14.63-1.41,26.73-3.06,43.16-3.85c2.17-0.1,3.47,0.18,4.56,0.37" stroke-dasharray="52.087" stroke-dashoffset="52.087"><animate attributeName="stroke-dashoffset" values="52.087" fill="freeze" begin="69de.click" /><animate attributeName="stroke-dashoffset" values="52.087;52.087;0" keyTimes="0;0.809;1" dur="2.724s" fill="freeze" begin="0s;69de.click" /></path><path d="M50.75,52.65c0.26,0.43,0.27,0.72,0.42,1.26c1.19,4.43,2.31,16.56,3.05,24.82" stroke-dasharray="26.36" stroke-dashoffset="26.36"><animate attributeName="stroke-dashoffset" values="26.36" fill="freeze" begin="69de.click" /><animate attributeName="stroke-dashoffset" values="26.36;26.36;0" keyTimes="0;0.912;1" dur="2.988s" fill="freeze" begin="0s;69de.click" /></path><path d="M51.98,53.25c9.23-1.11,27.3-2.53,34.19-3.46c2.53-0.35,3.46,1.83,3.33,3.05c-0.48,4.46-2.77,15.17-3.93,22.63" stroke-dasharray="62.568" stroke-dashoffset="62.568"><animate attributeName="stroke-dashoffset" values="62.568" fill="freeze" begin="69de.click" /><animate attributeName="stroke-dashoffset" values="62.568;62.568;0" keyTimes="0;0.864;1" dur="3.458s" fill="freeze" begin="0s;69de.click" /></path><path d="M53.2,64.19c3.01-0.43,31.42-2.65,33.91-2.83" stroke-dasharray="34.03" stroke-dashoffset="34.03"><animate attributeName="stroke-dashoffset" values="34.03" fill="freeze" begin="69de.click" /><animate attributeName="stroke-dashoffset" values="34.03;34.03;0" keyTimes="0;0.91;1" dur="3.798s" fill="freeze" begin="0s;69de.click" /></path><path d="M54.69,75.57c7.78-0.92,21.7-1.46,30.88-2.23" stroke-dasharray="30.964" stroke-dashoffset="30.964"><animate attributeName="stroke-dashoffset" values="30.964" fill="freeze" begin="69de.click" /><animate attributeName="stroke-dashoffset" values="30.964;30.964;0" keyTimes="0;0.925;1" dur="4.108s" fill="freeze" begin="0s;69de.click" /></path><path d="M68.56,51.69c0.47,1.16,0.88,1.52,0.88,3.3c0,8.51-0.34,23.17-0.34,28.58c0,12.64,5.67,11.21,11.25,11.21c11.3,0,12.98-0.03,12.98-9.84" stroke-dasharray="71.472" stroke-dashoffset="71.472"><animate attributeName="stroke-dashoffset" values="71.472" fill="freeze" begin="69de.click" /><animate attributeName="stroke-dashoffset" values="71.472;71.472;0" keyTimes="0;0.884;1" dur="4.645s" fill="freeze" begin="0s;69de.click" /></path></g></svg>