<svg xmlns="http://www.w3.org/2000/svg" width="109" height="109" viewBox="0 0 109 109" id="6a19"><g fill="none" stroke="#666" stroke-width="9" stroke-linecap="round" stroke-linejoin="round"><g><g><path d="M12.28,36.97c2.1,0.53,4.24,0.33,5.5,0.23c5.78-0.44,14.74-2.75,20.99-3.83c1.01-0.17,2.37-0.24,3,0" /><path d="M28.86,15.5c1.07,1.07,1.79,3,1.79,4.92c0,2.51-0.04,43.57-0.05,62.95c0,4.38,0,7.65,0,9.12" /><path d="M29.94,36.53c0,1.34-0.32,3.19-0.73,4.25c-5.53,14.4-10.59,24.31-17.46,33.97" /><path d="M33.25,44.62c2.37,1.64,6.26,6.95,8.25,10.12" /></g><g p4:phon="票" xmlns:p4="http://kanjivg.tagaini.net"><g><g><path d="M49.12,16.7c2,0.42,4.39,0.06,6.14-0.1c6.61-0.6,18.82-2.15,25.61-2.62c2.05-0.14,4.44-0.4,6.45,0.25" /><path d="M47,29.5c0.78,0.64,1.22,1.47,1.33,2.48c0.85,3.07,1.71,8.15,2.39,12.63c0.17,1.11,0.33,2.19,0.47,3.19" /><path d="M49.38,31.53c6.05-1.07,28.12-4.03,37.76-4.83c3.83-0.31,5.47,1.39,4.41,5.09c-0.7,2.46-1.76,5.25-2.78,8.14c-0.42,1.19-0.83,2.4-1.21,3.6" /><path d="M59.69,19.36c0.97,0.97,1.18,1.64,1.39,3.08c0.43,2.96,1.52,14.56,2.22,21.12" /><path d="M75.92,17.54c0.83,0.83,1.27,2.09,1.05,3.48c-0.98,6.35-2.1,13.6-3.2,21.4" /><path d="M52.23,46.07C62.75,44.75,80,43,87.69,42.39" /></g></g><g><g><path d="M55.94,54.51c0.88,0.33,2.51,0.42,3.39,0.33c5.64-0.57,14.8-2.08,20.78-2.39c1.47-0.08,2.36,0.16,3.1,0.32" /><path d="M45.63,66.8c2.05,0.47,5.82,0.46,7.85,0.22c11.83-1.39,25.71-3.01,34.62-3.49c3.41-0.18,5.46,0.22,7.17,0.46" /></g><g><path d="M68.46,68.86c1.15,1.15,1.67,2.52,1.67,4.66c0,6.71,0.24,10.23,0.24,14.93c0,6.39-4.12,3.18-6.75,0.52" /><path d="M54.89,75.77c0.03,0.36,0.06,0.94-0.06,1.46c-0.71,3.09-5.57,8.51-12.83,13.02" /><path d="M83.19,75.55c3.77,2.23,9.93,8.93,10.87,12.41" /></g></g></g></g></g><g fill="none" stroke="#000" stroke-width="5" stroke-linecap="round" stroke-linejoin="round"><g><g><path d="M12.28,36.97c2.1,0.53,4.24,0.33,5.5,0.23c5.78-0.44,14.74-2.75,20.99-3.83c1.01-0.17,2.37-0.24,3,0" stroke-dasharray="29.9" stroke-dashoffset="29.9"><animate id="0" attributeName="stroke-dashoffset" values="29.9;0" dur="0.3s" fill="freeze" begin="0s;6a19.click" /></path><path d="M28.86,15.5c1.07,1.07,1.79,3,1.79,4.92c0,2.51-0.04,43.57-0.05,62.95c0,4.38,0,7.65,0,9.12" stroke-dasharray="77.43" stroke-dashoffset="77.43"><animate attributeName="stroke-dashoffset" values="77.43" fill="freeze" begin="6a19.click" /><animate id="1" attributeName="stroke-dashoffset" values="77.43;0" dur="0.58s" fill="freeze" begin="0.end" /></path><path d="M29.94,36.53c0,1.34-0.32,3.19-0.73,4.25c-5.53,14.4-10.59,24.31-17.46,33.97" stroke-dasharray="42.63" stroke-dashoffset="42.63"><animate attributeName="stroke-dashoffset" values="42.63" fill="freeze" begin="6a19.click" /><animate id="2" attributeName="stroke-dashoffset" values="42.63;0" dur="0.43s" fill="freeze" begin="1.end" /></path><path d="M33.25,44.62c2.37,1.64,6.26,6.95,8.25,10.12" stroke-dasharray="13.11" stroke-dashoffset="13.11"><animate attributeName="stroke-dashoffset" values="13.11" fill="freeze" begin="6a19.click" /><animate id="3" attributeName="stroke-dashoffset" values="13.11;0" dur="0.13s" fill="freeze" begin="2.end" /></path></g><g p4:phon="票" xmlns:p4="http://kanjivg.tagaini.net"><g><g><path d="M49.12,16.7c2,0.42,4.39,0.06,6.14-0.1c6.61-0.6,18.82-2.15,25.61-2.62c2.05-0.14,4.44-0.4,6.45,0.25" stroke-dasharray="38.41" stroke-dashoffset="38.41"><animate attributeName="stroke-dashoffset" values="38.41" fill="freeze" begin="6a19.click" /><animate id="4" attributeName="stroke-dashoffset" values="38.41;0" dur="0.38s" fill="freeze" begin="3.end" /></path><path d="M47,29.5c0.78,0.64,1.22,1.47,1.33,2.48c0.85,3.07,1.71,8.15,2.39,12.63c0.17,1.11,0.33,2.19,0.47,3.19" stroke-dasharray="18.98" stroke-dashoffset="18.98"><animate attributeName="stroke-dashoffset" values="18.98" fill="freeze" begin="6a19.click" /><animate id="5" attributeName="stroke-dashoffset" values="18.98;0" dur="0.19s" fill="freeze" begin="4.end" /></path><path d="M49.38,31.53c6.05-1.07,28.12-4.03,37.76-4.83c3.83-0.31,5.47,1.39,4.41,5.09c-0.7,2.46-1.76,5.25-2.78,8.14c-0.42,1.19-0.83,2.4-1.21,3.6" stroke-dasharray="59.03" stroke-dashoffset="59.03"><animate attributeName="stroke-dashoffset" values="59.03" fill="freeze" begin="6a19.click" /><animate id="6" attributeName="stroke-dashoffset" values="59.03;0" dur="0.59s" fill="freeze" begin="5.end" /></path><path d="M59.69,19.36c0.97,0.97,1.18,1.64,1.39,3.08c0.43,2.96,1.52,14.56,2.22,21.12" stroke-dasharray="24.7" stroke-dashoffset="24.7"><animate attributeName="stroke-dashoffset" values="24.7" fill="freeze" begin="6a19.click" /><animate id="7" attributeName="stroke-dashoffset" values="24.7;0" dur="0.25s" fill="freeze" begin="6.end" /></path><path d="M75.92,17.54c0.83,0.83,1.27,2.09,1.05,3.48c-0.98,6.35-2.1,13.6-3.2,21.4" stroke-dasharray="25.41" stroke-dashoffset="25.41"><animate attributeName="stroke-dashoffset" values="25.41" fill="freeze" begin="6a19.click" /><animate id="8" attributeName="stroke-dashoffset" values="25.41;0" dur="0.25s" fill="freeze" begin="7.end" /></path><path d="M52.23,46.07C62.75,44.75,80,43,87.69,42.39" stroke-dasharray="35.65" stroke-dashoffset="35.65"><animate attributeName="stroke-dashoffset" values="35.65" fill="freeze" begin="6a19.click" /><animate id="9" attributeName="stroke-dashoffset" values="35.65;0" dur="0.36s" fill="freeze" begin="8.end" /></path></g></g><g><g><path d="M55.94,54.51c0.88,0.33,2.51,0.42,3.39,0.33c5.64-0.57,14.8-2.08,20.78-2.39c1.47-0.08,2.36,0.16,3.1,0.32" stroke-dasharray="27.48" stroke-dashoffset="27.48"><animate attributeName="stroke-dashoffset" values="27.48" fill="freeze" begin="6a19.click" /><animate id="10" attributeName="stroke-dashoffset" values="27.48;0" dur="0.27s" fill="freeze" begin="9.end" /></path><path d="M45.63,66.8c2.05,0.47,5.82,0.46,7.85,0.22c11.83-1.39,25.71-3.01,34.62-3.49c3.41-0.18,5.46,0.22,7.17,0.46" stroke-dasharray="49.88" stroke-dashoffset="49.88"><animate attributeName="stroke-dashoffset" values="49.88" fill="freeze" begin="6a19.click" /><animate id="11" attributeName="stroke-dashoffset" values="49.88;0" dur="0.5s" fill="freeze" begin="10.end" /></path></g><g><path d="M68.46,68.86c1.15,1.15,1.67,2.52,1.67,4.66c0,6.71,0.24,10.23,0.24,14.93c0,6.39-4.12,3.18-6.75,0.52" stroke-dasharray="30.62" stroke-dashoffset="30.62"><animate attributeName="stroke-dashoffset" values="30.62" fill="freeze" begin="6a19.click" /><animate id="12" attributeName="stroke-dashoffset" values="30.62;0" dur="0.31s" fill="freeze" begin="11.end" /></path><path d="M54.89,75.77c0.03,0.36,0.06,0.94-0.06,1.46c-0.71,3.09-5.57,8.51-12.83,13.02" stroke-dasharray="20.06" stroke-dashoffset="20.06"><animate attributeName="stroke-dashoffset" values="20.06" fill="freeze" begin="6a19.click" /><animate id="13" attributeName="stroke-dashoffset" values="20.06;0" dur="0.2s" fill="freeze" begin="12.end" /></path><path d="M83.19,75.55c3.77,2.23,9.93,8.93,10.87,12.41" stroke-dasharray="16.73" stroke-dashoffset="16.73"><animate attributeName="stroke-dashoffset" values="16.73" fill="freeze" begin="6a19.click" /><animate id="14" attributeName="stroke-dashoffset" values="16.73;0" dur="0.17s" fill="freeze" begin="13.end" /></path></g></g></g></g></g></svg>