<svg xmlns="http://www.w3.org/2000/svg" width="109" height="109" viewBox="0 0 109 109" id="6a1e"><g fill="none" stroke="#666" stroke-width="6" stroke-linecap="round" stroke-linejoin="round"><g><g><path d="M12.28,37.22c0.35,0.24,2.39,0.41,3.31,0.31c3.94-0.41,15.12-1.21,21.45-2.41c0.92-0.17,2.15-0.24,2.73,0" /><path d="M26.86,14.5c0.91,0.47,2.04,2.25,2.04,4.42c0,0.95-0.12,71.75-0.3,77.58" /><path d="M28.44,39.53c-6.15,13.73-9.57,19.54-19.08,31.56" /><path d="M31.72,47.4c2.59,1.67,6.85,7.11,9.03,10.35" /></g><g><g><path d="M42.38,18.55c1.41,0.24,3.98,0.27,5.39,0.24c14.63-0.4,27.83-1.62,43.61-1.83c2.34-0.03,3.75,0.11,4.92,0.23" /></g><g><g><path d="M60.93,28.87c0.31,0.31,0.64,0.57,0.77,0.96c1.09,3.08,2.39,11.57,3.14,17.09" /><path d="M62.34,30.88c7.49-1.18,17.59-2.06,21.88-2.53c1.57-0.17,2.51,1.02,2.29,2.04c-0.93,4.19-1.58,6.5-2.96,12.3" /><path d="M64.79,44.48c5.04-0.53,13.34-0.95,20.26-1.77" /></g><g><g><path d="M55.87,59.39c0.37,0.36,0.74,0.66,0.9,1.12c1.27,3.59,2.11,14.79,2.98,21.24" /><path d="M57.21,61.32c4.67-0.95,8.9-2.02,13.19-2.49c1.57-0.17,2.51,1.02,2.29,2.04C71.77,65.06,71,73,70.23,79.23" /><path d="M59.67,80.6c5.04-0.53,10.15-1.42,12.07-1.31" /></g><g><path d="M79.8,57.64c0.37,0.4,0.74,0.72,0.9,1.22c1.27,3.91,2.29,14.19,3.16,21.21" /><path d="M81.22,59.29c7.06-1.53,9.57-2.29,13.87-2.8c1.57-0.19,2.51,1.11,2.29,2.21c-0.93,4.57-1.51,10.58-2.9,16.89" /><path d="M84.1,78.14c5.04-0.58,5.02-0.08,11.94-0.98" /></g></g></g><g><path d="M47.18,19.61c0,3.5-0.44,67.64-0.44,70.92c0,2.78,0.88,3.61,2.44,3.5c8.87-0.66,41.33-3.36,44.22-3.36c2.88,0,3.84,0.33,6.09,1.16" /></g></g></g></g><g fill="none" stroke="#000" stroke-width="3" stroke-linecap="round" stroke-linejoin="round"><path d="M12.28,37.22c0.35,0.24,2.39,0.41,3.31,0.31c3.94-0.41,15.12-1.21,21.45-2.41c0.92-0.17,2.15-0.24,2.73,0" stroke-dasharray="27.698" stroke-dashoffset="27.698"><animate attributeName="stroke-dashoffset" values="27.698;27.698;0" dur="0.277s" fill="freeze" begin="0s;6a1e.click" /></path><path d="M26.86,14.5c0.91,0.47,2.04,2.25,2.04,4.42c0,0.95-0.12,71.75-0.3,77.58" stroke-dasharray="82.646" stroke-dashoffset="82.646"><animate attributeName="stroke-dashoffset" values="82.646" fill="freeze" begin="6a1e.click" /><animate attributeName="stroke-dashoffset" values="82.646;82.646;0" keyTimes="0;0.308;1" dur="0.898s" fill="freeze" begin="0s;6a1e.click" /></path><path d="M28.44,39.53c-6.15,13.73-9.57,19.54-19.08,31.56" stroke-dasharray="37.013" stroke-dashoffset="37.013"><animate attributeName="stroke-dashoffset" values="37.013" fill="freeze" begin="6a1e.click" /><animate attributeName="stroke-dashoffset" values="37.013;37.013;0" keyTimes="0;0.708;1" dur="1.268s" fill="freeze" begin="0s;6a1e.click" /></path><path d="M31.72,47.4c2.59,1.67,6.85,7.11,9.03,10.35" stroke-dasharray="13.796" stroke-dashoffset="13.796"><animate attributeName="stroke-dashoffset" values="13.796" fill="freeze" begin="6a1e.click" /><animate attributeName="stroke-dashoffset" values="13.796;13.796;0" keyTimes="0;0.902;1" dur="1.406s" fill="freeze" begin="0s;6a1e.click" /></path><path d="M42.38,18.55c1.41,0.24,3.98,0.27,5.39,0.24c14.63-0.4,27.83-1.62,43.61-1.83c2.34-0.03,3.75,0.11,4.92,0.23" stroke-dasharray="53.982" stroke-dashoffset="53.982"><animate attributeName="stroke-dashoffset" values="53.982" fill="freeze" begin="6a1e.click" /><animate attributeName="stroke-dashoffset" values="53.982;53.982;0" keyTimes="0;0.723;1" dur="1.946s" fill="freeze" begin="0s;6a1e.click" /></path><path d="M60.93,28.87c0.31,0.31,0.64,0.57,0.77,0.96c1.09,3.08,2.39,11.57,3.14,17.09" stroke-dasharray="18.638" stroke-dashoffset="18.638"><animate attributeName="stroke-dashoffset" values="18.638" fill="freeze" begin="6a1e.click" /><animate attributeName="stroke-dashoffset" values="18.638;18.638;0" keyTimes="0;0.913;1" dur="2.132s" fill="freeze" begin="0s;6a1e.click" /></path><path d="M62.34,30.88c7.49-1.18,17.59-2.06,21.88-2.53c1.57-0.17,2.51,1.02,2.29,2.04c-0.93,4.19-1.58,6.5-2.96,12.3" stroke-dasharray="38.258" stroke-dashoffset="38.258"><animate attributeName="stroke-dashoffset" values="38.258" fill="freeze" begin="6a1e.click" /><animate attributeName="stroke-dashoffset" values="38.258;38.258;0" keyTimes="0;0.848;1" dur="2.515s" fill="freeze" begin="0s;6a1e.click" /></path><path d="M64.79,44.48c5.04-0.53,13.34-0.95,20.26-1.77" stroke-dasharray="20.339" stroke-dashoffset="20.339"><animate attributeName="stroke-dashoffset" values="20.339" fill="freeze" begin="6a1e.click" /><animate attributeName="stroke-dashoffset" values="20.339;20.339;0" keyTimes="0;0.925;1" dur="2.718s" fill="freeze" begin="0s;6a1e.click" /></path><path d="M55.87,59.39c0.37,0.36,0.74,0.66,0.9,1.12c1.27,3.59,2.11,14.79,2.98,21.24" stroke-dasharray="22.923" stroke-dashoffset="22.923"><animate attributeName="stroke-dashoffset" values="22.923" fill="freeze" begin="6a1e.click" /><animate attributeName="stroke-dashoffset" values="22.923;22.923;0" keyTimes="0;0.922;1" dur="2.947s" fill="freeze" begin="0s;6a1e.click" /></path><path d="M57.21,61.32c4.67-0.95,8.9-2.02,13.19-2.49c1.57-0.17,2.51,1.02,2.29,2.04C71.77,65.06,71,73,70.23,79.23" stroke-dasharray="35.536" stroke-dashoffset="35.536"><animate attributeName="stroke-dashoffset" values="35.536" fill="freeze" begin="6a1e.click" /><animate attributeName="stroke-dashoffset" values="35.536;35.536;0" keyTimes="0;0.892;1" dur="3.302s" fill="freeze" begin="0s;6a1e.click" /></path><path d="M59.67,80.6c5.04-0.53,10.15-1.42,12.07-1.31" stroke-dasharray="12.149" stroke-dashoffset="12.149"><animate attributeName="stroke-dashoffset" values="12.149" fill="freeze" begin="6a1e.click" /><animate attributeName="stroke-dashoffset" values="12.149;12.149;0" keyTimes="0;0.965;1" dur="3.423s" fill="freeze" begin="0s;6a1e.click" /></path><path d="M79.8,57.64c0.37,0.4,0.74,0.72,0.9,1.22c1.27,3.91,2.29,14.19,3.16,21.21" stroke-dasharray="22.995" stroke-dashoffset="22.995"><animate attributeName="stroke-dashoffset" values="22.995" fill="freeze" begin="6a1e.click" /><animate attributeName="stroke-dashoffset" values="22.995;22.995;0" keyTimes="0;0.937;1" dur="3.653s" fill="freeze" begin="0s;6a1e.click" /></path><path d="M81.22,59.29c7.06-1.53,9.57-2.29,13.87-2.8c1.57-0.19,2.51,1.11,2.29,2.21c-0.93,4.57-1.51,10.58-2.9,16.89" stroke-dasharray="35.013" stroke-dashoffset="35.013"><animate attributeName="stroke-dashoffset" values="35.013" fill="freeze" begin="6a1e.click" /><animate attributeName="stroke-dashoffset" values="35.013;35.013;0" keyTimes="0;0.913;1" dur="4.003s" fill="freeze" begin="0s;6a1e.click" /></path><path d="M84.1,78.14c5.04-0.58,5.02-0.08,11.94-0.98" stroke-dasharray="11.986" stroke-dashoffset="11.986"><animate attributeName="stroke-dashoffset" values="11.986" fill="freeze" begin="6a1e.click" /><animate attributeName="stroke-dashoffset" values="11.986;11.986;0" keyTimes="0;0.971;1" dur="4.123s" fill="freeze" begin="0s;6a1e.click" /></path><path d="M47.18,19.61c0,3.5-0.44,67.64-0.44,70.92c0,2.78,0.88,3.61,2.44,3.5c8.87-0.66,41.33-3.36,44.22-3.36c2.88,0,3.84,0.33,6.09,1.16" stroke-dasharray="126.484" stroke-dashoffset="126.484"><animate attributeName="stroke-dashoffset" values="126.484" fill="freeze" begin="6a1e.click" /><animate attributeName="stroke-dashoffset" values="126.484;126.484;0" keyTimes="0;0.813;1" dur="5.074s" fill="freeze" begin="0s;6a1e.click" /></path></g></svg>