<svg xmlns="http://www.w3.org/2000/svg" width="109" height="109" viewBox="0 0 109 109" id="6a29"><g fill="none" stroke="#666" stroke-width="9" stroke-linecap="round" stroke-linejoin="round"><g><g><path d="M9.78,36.91c1.72,0.47,4.04,0.24,5.47,0.06c4.69-0.59,13.11-1.85,18.65-2.85c1.49-0.27,3.35-0.37,4.62-0.26" /><path d="M26.86,13c1.19,1.19,1.54,3,1.54,5.42c0,6.62-0.09,54.98-0.24,71.33c-0.02,2.36-0.04,6.27-0.07,7" /><path d="M27.44,36.28c0,1.09-0.22,2.11-0.66,3.41c-4.41,12.82-8.39,20.02-15.67,32.15" /><path d="M30.35,44.52c2.53,1.82,7.77,7.71,9.9,11.23" /></g><g p4:phon="雚V" xmlns:p4="http://kanjivg.tagaini.net"><path d="M58.04,12c0.14,1.15-0.29,2.4-0.75,3.38c-2.92,6.26-7.67,13-13.04,18.41" /><path d="M57.25,22.39c0.99,0.1,2.37,0.09,4-0.02c6.77-0.43,17.72-2.33,24.24-3.18c2.09-0.27,3.95-0.44,6.01,0.06" /><path d="M43.25,39.39c2.38,0.49,5.42,0.27,7.62-0.02c12.38-1.62,31.25-4.29,40.99-5.05c2.22-0.17,4.44-0.34,6.63,0.19" /><g><g><path d="M64.32,27.68c0.18,1.57-0.08,3.14-0.95,4.96C57.81,44.21,50.75,58,38,69.34" /><path d="M55.15,53.13c0.67,0.67,0.88,1.5,0.88,2.87c0,6.41-0.02,24.25-0.02,34.75c0,3.31-0.01,6.05-0.01,7.5" /></g><path d="M77.7,41.18c0.05,0.51-0.02,1.18-0.18,1.62c-1.07,2.79-2.43,4.94-4.89,8.33" /><path d="M56.8,53.83c6.7-0.58,20.07-2.32,28.69-3.23c1.91-0.2,3.84-0.33,5.75-0.6" /><path d="M74.66,53.39c0.79,0.79,0.92,1.86,0.92,2.88c0,6.3-0.19,24.22-0.19,34" /><path d="M56.94,66.58c5.91-0.57,23.6-2.61,32.1-3.48c2.05-0.21,3.54-0.37,4.15-0.44" /><path d="M57.05,79.12c6.24-0.48,24.52-2.09,33.71-2.97c2.22-0.21,3.82-0.37,4.46-0.43" /><path d="M56.96,92.25c7.92-0.38,25.59-1.6,35.55-2.29c2.64-0.18,4.55-0.33,5.25-0.43" /></g></g></g></g><g fill="none" stroke="#000" stroke-width="5" stroke-linecap="round" stroke-linejoin="round"><g><g><path d="M9.78,36.91c1.72,0.47,4.04,0.24,5.47,0.06c4.69-0.59,13.11-1.85,18.65-2.85c1.49-0.27,3.35-0.37,4.62-0.26" stroke-dasharray="29.01" stroke-dashoffset="29.01"><animate id="0" attributeName="stroke-dashoffset" values="29.01;0" dur="0.29s" fill="freeze" begin="0s;6a29.click" /></path><path d="M26.86,13c1.19,1.19,1.54,3,1.54,5.42c0,6.62-0.09,54.98-0.24,71.33c-0.02,2.36-0.04,6.27-0.07,7" stroke-dasharray="84.11" stroke-dashoffset="84.11"><animate attributeName="stroke-dashoffset" values="84.11" fill="freeze" begin="6a29.click" /><animate id="1" attributeName="stroke-dashoffset" values="84.11;0" dur="0.63s" fill="freeze" begin="0.end" /></path><path d="M27.44,36.28c0,1.09-0.22,2.11-0.66,3.41c-4.41,12.82-8.39,20.02-15.67,32.15" stroke-dasharray="39.34" stroke-dashoffset="39.34"><animate attributeName="stroke-dashoffset" values="39.34" fill="freeze" begin="6a29.click" /><animate id="2" attributeName="stroke-dashoffset" values="39.34;0" dur="0.39s" fill="freeze" begin="1.end" /></path><path d="M30.35,44.52c2.53,1.82,7.77,7.71,9.9,11.23" stroke-dasharray="15.03" stroke-dashoffset="15.03"><animate attributeName="stroke-dashoffset" values="15.03" fill="freeze" begin="6a29.click" /><animate id="3" attributeName="stroke-dashoffset" values="15.03;0" dur="0.15s" fill="freeze" begin="2.end" /></path></g><g p4:phon="雚V" xmlns:p4="http://kanjivg.tagaini.net"><path d="M58.04,12c0.14,1.15-0.29,2.4-0.75,3.38c-2.92,6.26-7.67,13-13.04,18.41" stroke-dasharray="26.17" stroke-dashoffset="26.17"><animate attributeName="stroke-dashoffset" values="26.17" fill="freeze" begin="6a29.click" /><animate id="4" attributeName="stroke-dashoffset" values="26.17;0" dur="0.26s" fill="freeze" begin="3.end" /></path><path d="M57.25,22.39c0.99,0.1,2.37,0.09,4-0.02c6.77-0.43,17.72-2.33,24.24-3.18c2.09-0.27,3.95-0.44,6.01,0.06" stroke-dasharray="34.51" stroke-dashoffset="34.51"><animate attributeName="stroke-dashoffset" values="34.51" fill="freeze" begin="6a29.click" /><animate id="5" attributeName="stroke-dashoffset" values="34.51;0" dur="0.35s" fill="freeze" begin="4.end" /></path><path d="M43.25,39.39c2.38,0.49,5.42,0.27,7.62-0.02c12.38-1.62,31.25-4.29,40.99-5.05c2.22-0.17,4.44-0.34,6.63,0.19" stroke-dasharray="55.62" stroke-dashoffset="55.62"><animate attributeName="stroke-dashoffset" values="55.62" fill="freeze" begin="6a29.click" /><animate id="6" attributeName="stroke-dashoffset" values="55.62;0" dur="0.56s" fill="freeze" begin="5.end" /></path><g><g><path d="M64.32,27.68c0.18,1.57-0.08,3.14-0.95,4.96C57.81,44.21,50.75,58,38,69.34" stroke-dasharray="50.06" stroke-dashoffset="50.06"><animate attributeName="stroke-dashoffset" values="50.06" fill="freeze" begin="6a29.click" /><animate id="7" attributeName="stroke-dashoffset" values="50.06;0" dur="0.5s" fill="freeze" begin="6.end" /></path><path d="M55.15,53.13c0.67,0.67,0.88,1.5,0.88,2.87c0,6.41-0.02,24.25-0.02,34.75c0,3.31-0.01,6.05-0.01,7.5" stroke-dasharray="45.34" stroke-dashoffset="45.34"><animate attributeName="stroke-dashoffset" values="45.34" fill="freeze" begin="6a29.click" /><animate id="8" attributeName="stroke-dashoffset" values="45.34;0" dur="0.45s" fill="freeze" begin="7.end" /></path></g><path d="M77.7,41.18c0.05,0.51-0.02,1.18-0.18,1.62c-1.07,2.79-2.43,4.94-4.89,8.33" stroke-dasharray="11.33" stroke-dashoffset="11.33"><animate attributeName="stroke-dashoffset" values="11.33" fill="freeze" begin="6a29.click" /><animate id="9" attributeName="stroke-dashoffset" values="11.33;0" dur="0.11s" fill="freeze" begin="8.end" /></path><path d="M56.8,53.83c6.7-0.58,20.07-2.32,28.69-3.23c1.91-0.2,3.84-0.33,5.75-0.6" stroke-dasharray="34.65" stroke-dashoffset="34.65"><animate attributeName="stroke-dashoffset" values="34.65" fill="freeze" begin="6a29.click" /><animate id="10" attributeName="stroke-dashoffset" values="34.65;0" dur="0.35s" fill="freeze" begin="9.end" /></path><path d="M74.66,53.39c0.79,0.79,0.92,1.86,0.92,2.88c0,6.3-0.19,24.22-0.19,34" stroke-dasharray="37.11" stroke-dashoffset="37.11"><animate attributeName="stroke-dashoffset" values="37.11" fill="freeze" begin="6a29.click" /><animate id="11" attributeName="stroke-dashoffset" values="37.11;0" dur="0.37s" fill="freeze" begin="10.end" /></path><path d="M56.94,66.58c5.91-0.57,23.6-2.61,32.1-3.48c2.05-0.21,3.54-0.37,4.15-0.44" stroke-dasharray="36.46" stroke-dashoffset="36.46"><animate attributeName="stroke-dashoffset" values="36.46" fill="freeze" begin="6a29.click" /><animate id="12" attributeName="stroke-dashoffset" values="36.46;0" dur="0.36s" fill="freeze" begin="11.end" /></path><path d="M57.05,79.12c6.24-0.48,24.52-2.09,33.71-2.97c2.22-0.21,3.82-0.37,4.46-0.43" stroke-dasharray="38.32" stroke-dashoffset="38.32"><animate attributeName="stroke-dashoffset" values="38.32" fill="freeze" begin="6a29.click" /><animate id="13" attributeName="stroke-dashoffset" values="38.32;0" dur="0.38s" fill="freeze" begin="12.end" /></path><path d="M56.96,92.25c7.92-0.38,25.59-1.6,35.55-2.29c2.64-0.18,4.55-0.33,5.25-0.43" stroke-dasharray="40.89" stroke-dashoffset="40.89"><animate attributeName="stroke-dashoffset" values="40.89" fill="freeze" begin="6a29.click" /><animate id="14" attributeName="stroke-dashoffset" values="40.89;0" dur="0.41s" fill="freeze" begin="13.end" /></path></g></g></g></g></svg>