<svg xmlns="http://www.w3.org/2000/svg" width="109" height="109" viewBox="0 0 109 109" id="6a3a"><g fill="none" stroke="#666" stroke-width="9" stroke-linecap="round" stroke-linejoin="round"><g><g><path d="M12.53,37.97c1.85,0.41,4.47,0.39,5.84,0.24c4.71-0.52,12.65-1.22,17.91-2.07c1.24-0.2,3-0.78,4.24-0.27" /><path d="M28.61,15.75c1.07,1.07,1.29,2.62,1.29,4.42c0,0.79,0.04,50.08,0.04,67.08c0,4.1-0.06,6.5-0.06,8.25" /><path d="M29.19,38.78c0,2.09-1.1,6.06-1.85,7.98c-4.43,11.42-8.59,19.61-15.47,29.11" /><path d="M32.22,47.65c2.37,1.59,5.28,5.76,7.28,8.85" /></g><g><g><path d="M44.78,23.02c2.47,0.6,4.79,0.59,6.96,0.39c9-0.83,24.57-2.61,34.63-3.05c2.5-0.11,5.14-0.32,7.59,0.29" /><path d="M55.73,12.38c1.01,1.08,1.58,2.41,1.68,3.07c1,6.21,1.62,11.61,1.9,13.87" /><path d="M79.11,10.88c0.47,1.05,0.3,2.24-0.02,3.57c-1.12,4.69-1.4,6.92-2.8,13.62" /></g><g><path d="M47.89,34.97c2.74,0.66,4.84,0.47,7.1,0.14c7.63-1.11,16.95-1.73,26.14-2.43c2.46-0.19,5.07-0.19,7.47,0.4" /><path d="M42.09,51.76c2.75,0.98,5.85,0.55,8.67,0.28c14.2-1.36,24.74-2.42,40.86-2.97c2.62-0.09,5.21-0.03,7.79,0.52" /><path d="M52.4,42.53c0.85,0.97,1.59,2.31,1.7,3.06c1.15,7.66,1.52,11.04,2.32,15.51" /><path d="M84.94,38.76c0.55,1.09,0.52,2.54,0.25,3.95c-1.09,5.79-1.64,9.68-3.28,16.62" /><path d="M48.9,66.83c2.6,0.67,4.64,0.58,6.85,0.38c8.04-0.74,19.49-1.87,26.38-2.13c2.17-0.08,4.35,0.1,6.47,0.62" /><path d="M45,79.14c2.23,0.74,4.59,0.73,6.87,0.49c9.38-1,22.75-2,35.63-2.36c2.65-0.07,5.13-0.04,7.75,0.48" /><g><path d="M67.11,36.76c1,1,1.22,2.49,1.22,4.01c0,0.66,0.04,34.15,0.04,49.48c0,4.36,0,7.25-0.01,7.5" /></g></g></g></g></g><g fill="none" stroke="#000" stroke-width="5" stroke-linecap="round" stroke-linejoin="round"><g><g><path d="M12.53,37.97c1.85,0.41,4.47,0.39,5.84,0.24c4.71-0.52,12.65-1.22,17.91-2.07c1.24-0.2,3-0.78,4.24-0.27" stroke-dasharray="28.2" stroke-dashoffset="28.2"><animate id="0" attributeName="stroke-dashoffset" values="28.2;0" dur="0.28s" fill="freeze" begin="0s;6a3a.click" /></path><path d="M28.61,15.75c1.07,1.07,1.29,2.62,1.29,4.42c0,0.79,0.04,50.08,0.04,67.08c0,4.1-0.06,6.5-0.06,8.25" stroke-dasharray="80.06" stroke-dashoffset="80.06"><animate attributeName="stroke-dashoffset" values="80.06" fill="freeze" begin="6a3a.click" /><animate id="1" attributeName="stroke-dashoffset" values="80.06;0" dur="0.6s" fill="freeze" begin="0.end" /></path><path d="M29.19,38.78c0,2.09-1.1,6.06-1.85,7.98c-4.43,11.42-8.59,19.61-15.47,29.11" stroke-dasharray="41.29" stroke-dashoffset="41.29"><animate attributeName="stroke-dashoffset" values="41.29" fill="freeze" begin="6a3a.click" /><animate id="2" attributeName="stroke-dashoffset" values="41.29;0" dur="0.41s" fill="freeze" begin="1.end" /></path><path d="M32.22,47.65c2.37,1.59,5.28,5.76,7.28,8.85" stroke-dasharray="11.52" stroke-dashoffset="11.52"><animate attributeName="stroke-dashoffset" values="11.52" fill="freeze" begin="6a3a.click" /><animate id="3" attributeName="stroke-dashoffset" values="11.52;0" dur="0.12s" fill="freeze" begin="2.end" /></path></g><g><g><path d="M44.78,23.02c2.47,0.6,4.79,0.59,6.96,0.39c9-0.83,24.57-2.61,34.63-3.05c2.5-0.11,5.14-0.32,7.59,0.29" stroke-dasharray="49.4" stroke-dashoffset="49.4"><animate attributeName="stroke-dashoffset" values="49.4" fill="freeze" begin="6a3a.click" /><animate id="4" attributeName="stroke-dashoffset" values="49.4;0" dur="0.49s" fill="freeze" begin="3.end" /></path><path d="M55.73,12.38c1.01,1.08,1.58,2.41,1.68,3.07c1,6.21,1.62,11.61,1.9,13.87" stroke-dasharray="17.54" stroke-dashoffset="17.54"><animate attributeName="stroke-dashoffset" values="17.54" fill="freeze" begin="6a3a.click" /><animate id="5" attributeName="stroke-dashoffset" values="17.54;0" dur="0.18s" fill="freeze" begin="4.end" /></path><path d="M79.11,10.88c0.47,1.05,0.3,2.24-0.02,3.57c-1.12,4.69-1.4,6.92-2.8,13.62" stroke-dasharray="17.54" stroke-dashoffset="17.54"><animate attributeName="stroke-dashoffset" values="17.54" fill="freeze" begin="6a3a.click" /><animate id="6" attributeName="stroke-dashoffset" values="17.54;0" dur="0.18s" fill="freeze" begin="5.end" /></path></g><g><path d="M47.89,34.97c2.74,0.66,4.84,0.47,7.1,0.14c7.63-1.11,16.95-1.73,26.14-2.43c2.46-0.19,5.07-0.19,7.47,0.4" stroke-dasharray="40.92" stroke-dashoffset="40.92"><animate attributeName="stroke-dashoffset" values="40.92" fill="freeze" begin="6a3a.click" /><animate id="7" attributeName="stroke-dashoffset" values="40.92;0" dur="0.41s" fill="freeze" begin="6.end" /></path><path d="M42.09,51.76c2.75,0.98,5.85,0.55,8.67,0.28c14.2-1.36,24.74-2.42,40.86-2.97c2.62-0.09,5.21-0.03,7.79,0.52" stroke-dasharray="57.55" stroke-dashoffset="57.55"><animate attributeName="stroke-dashoffset" values="57.55" fill="freeze" begin="6a3a.click" /><animate id="8" attributeName="stroke-dashoffset" values="57.55;0" dur="0.58s" fill="freeze" begin="7.end" /></path><path d="M52.4,42.53c0.85,0.97,1.59,2.31,1.7,3.06c1.15,7.66,1.52,11.04,2.32,15.51" stroke-dasharray="19.22" stroke-dashoffset="19.22"><animate attributeName="stroke-dashoffset" values="19.22" fill="freeze" begin="6a3a.click" /><animate id="9" attributeName="stroke-dashoffset" values="19.22;0" dur="0.19s" fill="freeze" begin="8.end" /></path><path d="M84.94,38.76c0.55,1.09,0.52,2.54,0.25,3.95c-1.09,5.79-1.64,9.68-3.28,16.62" stroke-dasharray="20.97" stroke-dashoffset="20.97"><animate attributeName="stroke-dashoffset" values="20.97" fill="freeze" begin="6a3a.click" /><animate id="10" attributeName="stroke-dashoffset" values="20.97;0" dur="0.21s" fill="freeze" begin="9.end" /></path><path d="M48.9,66.83c2.6,0.67,4.64,0.58,6.85,0.38c8.04-0.74,19.49-1.87,26.38-2.13c2.17-0.08,4.35,0.1,6.47,0.62" stroke-dasharray="39.89" stroke-dashoffset="39.89"><animate attributeName="stroke-dashoffset" values="39.89" fill="freeze" begin="6a3a.click" /><animate id="11" attributeName="stroke-dashoffset" values="39.89;0" dur="0.4s" fill="freeze" begin="10.end" /></path><path d="M45,79.14c2.23,0.74,4.59,0.73,6.87,0.49c9.38-1,22.75-2,35.63-2.36c2.65-0.07,5.13-0.04,7.75,0.48" stroke-dasharray="50.44" stroke-dashoffset="50.44"><animate attributeName="stroke-dashoffset" values="50.44" fill="freeze" begin="6a3a.click" /><animate id="12" attributeName="stroke-dashoffset" values="50.44;0" dur="0.5s" fill="freeze" begin="11.end" /></path><g><path d="M67.11,36.76c1,1,1.22,2.49,1.22,4.01c0,0.66,0.04,34.15,0.04,49.48c0,4.36,0,7.25-0.01,7.5" stroke-dasharray="61.28" stroke-dashoffset="61.28"><animate attributeName="stroke-dashoffset" values="61.28" fill="freeze" begin="6a3a.click" /><animate id="13" attributeName="stroke-dashoffset" values="61.28;0" dur="0.46s" fill="freeze" begin="12.end" /></path></g></g></g></g></g></svg>