<svg xmlns="http://www.w3.org/2000/svg" width="109" height="109" viewBox="0 0 109 109" id="6a59"><g fill="none" stroke="#666" stroke-width="9" stroke-linecap="round" stroke-linejoin="round"><g><g><path d="M9.78,35.22c0.35,0.24,2.39,0.41,3.31,0.31c3.94-0.41,16.62-0.71,22.95-1.91c0.92-0.17,2.15-0.24,2.73,0" /><path d="M25.36,13.5c0.91,0.47,2.04,2.25,2.04,4.42c0,0.95-0.12,73.75-0.3,79.58" /><path d="M26.94,38.78c-5.82,16.13-9.06,22.94-18.08,37.06" /><path d="M29.47,44.15c2.37,1.73,5.28,6.25,7.28,9.6" /></g><g><g><g><path d="M47.08,17.72c1.06,0.58,1.47,0.47,3.18,0.19c4.46-0.72,5.93-0.79,10.7-1.71c2.83-0.55,3.39,0.5,2.49,3.63c-2.12,7.36-9.7,23.41-22.22,35.73" /><path d="M42.77,29.04c3.12,1.37,8.05,5.62,8.83,7.74" /></g><g><path d="M81.57,16.63c0.02,0.2,0.04,0.51-0.04,0.79c-0.47,1.66-3.17,4.84-6.86,7.07" /><path d="M65.89,19.86c4.86,3.78,21.49,25.61,25.75,30c1.45,1.49,2.69,2.13,4.13,2.56" /><path d="M90.91,27.09c0.03,0.21,0.05,0.53-0.04,0.82c-0.56,1.74-3.74,5.14-8.1,7.47" /></g></g><g><g><path d="M54.26,46.53c0.7,0.21,1.98,0.27,2.68,0.21c7.48-0.65,13.14-1.29,18.97-1.5c1.16-0.04,1.86,0.1,2.45,0.2" /></g><g><g><path d="M49.23,56.57c0.42,0.35,0.95,0.62,1.03,1.08c0.57,3.36,2.12,11.27,2.98,17.48" /><path d="M50.33,57.66c6.36-0.67,25.41-2.69,29.75-2.79c1.79-0.04,3.01,1.9,2.6,3.86c-0.72,3.51-2.08,8.86-3.3,13.44" /><path d="M53.99,73.9c6.54-0.65,22.23-1.44,27.46-1.7" /></g><path d="M52.83,80.43c1.62,1.86,4.14,6.59,4.55,9.48" /><path d="M79.48,78.07c0.02,0.28,0.04,0.72-0.04,1.11c-0.45,2.35-3,7.5-6.5,10.65" /><path d="M40.53,94.07c1.56,0.62,4.43,0.84,5.98,0.62C60,92.75,74.98,90.74,92.25,90.3c2.6-0.07,4.16,0.3,5.46,0.61" /></g></g></g></g></g><g fill="none" stroke="#000" stroke-width="5" stroke-linecap="round" stroke-linejoin="round"><path d="M9.78,35.22c0.35,0.24,2.39,0.41,3.31,0.31c3.94-0.41,16.62-0.71,22.95-1.91c0.92-0.17,2.15-0.24,2.73,0" stroke-dasharray="29.147" stroke-dashoffset="29.147"><animate attributeName="stroke-dashoffset" values="29.147;29.147;0" dur="0.291s" fill="freeze" begin="0s;6a59.click" /></path><path d="M25.36,13.5c0.91,0.47,2.04,2.25,2.04,4.42c0,0.95-0.12,73.75-0.3,79.58" stroke-dasharray="84.646" stroke-dashoffset="84.646"><animate attributeName="stroke-dashoffset" values="84.646" fill="freeze" begin="6a59.click" /><animate attributeName="stroke-dashoffset" values="84.646;84.646;0" keyTimes="0;0.314;1" dur="0.927s" fill="freeze" begin="0s;6a59.click" /></path><path d="M26.94,38.78c-5.82,16.13-9.06,22.94-18.08,37.06" stroke-dasharray="41.354" stroke-dashoffset="41.354"><animate attributeName="stroke-dashoffset" values="41.354" fill="freeze" begin="6a59.click" /><animate attributeName="stroke-dashoffset" values="41.354;41.354;0" keyTimes="0;0.691;1" dur="1.341s" fill="freeze" begin="0s;6a59.click" /></path><path d="M29.47,44.15c2.37,1.73,5.28,6.25,7.28,9.6" stroke-dasharray="12.11" stroke-dashoffset="12.11"><animate attributeName="stroke-dashoffset" values="12.11" fill="freeze" begin="6a59.click" /><animate attributeName="stroke-dashoffset" values="12.11;12.11;0" keyTimes="0;0.917;1" dur="1.462s" fill="freeze" begin="0s;6a59.click" /></path><path d="M47.08,17.72c1.06,0.58,1.47,0.47,3.18,0.19c4.46-0.72,5.93-0.79,10.7-1.71c2.83-0.55,3.39,0.5,2.49,3.63c-2.12,7.36-9.7,23.41-22.22,35.73" stroke-dasharray="62.679" stroke-dashoffset="62.679"><animate attributeName="stroke-dashoffset" values="62.679" fill="freeze" begin="6a59.click" /><animate attributeName="stroke-dashoffset" values="62.679;62.679;0" keyTimes="0;0.756;1" dur="1.933s" fill="freeze" begin="0s;6a59.click" /></path><path d="M42.77,29.04c3.12,1.37,8.05,5.62,8.83,7.74" stroke-dasharray="11.912" stroke-dashoffset="11.912"><animate attributeName="stroke-dashoffset" values="11.912" fill="freeze" begin="6a59.click" /><animate attributeName="stroke-dashoffset" values="11.912;11.912;0" keyTimes="0;0.942;1" dur="2.052s" fill="freeze" begin="0s;6a59.click" /></path><path d="M81.57,16.63c0.02,0.2,0.04,0.51-0.04,0.79c-0.47,1.66-3.17,4.84-6.86,7.07" stroke-dasharray="10.805" stroke-dashoffset="10.805"><animate attributeName="stroke-dashoffset" values="10.805" fill="freeze" begin="6a59.click" /><animate attributeName="stroke-dashoffset" values="10.805;10.805;0" keyTimes="0;0.95;1" dur="2.16s" fill="freeze" begin="0s;6a59.click" /></path><path d="M65.89,19.86c4.86,3.78,21.49,25.61,25.75,30c1.45,1.49,2.69,2.13,4.13,2.56" stroke-dasharray="44.485" stroke-dashoffset="44.485"><animate attributeName="stroke-dashoffset" values="44.485" fill="freeze" begin="6a59.click" /><animate attributeName="stroke-dashoffset" values="44.485;44.485;0" keyTimes="0;0.829;1" dur="2.605s" fill="freeze" begin="0s;6a59.click" /></path><path d="M90.91,27.09c0.03,0.21,0.05,0.53-0.04,0.82c-0.56,1.74-3.74,5.14-8.1,7.47" stroke-dasharray="12.025" stroke-dashoffset="12.025"><animate attributeName="stroke-dashoffset" values="12.025" fill="freeze" begin="6a59.click" /><animate attributeName="stroke-dashoffset" values="12.025;12.025;0" keyTimes="0;0.956;1" dur="2.725s" fill="freeze" begin="0s;6a59.click" /></path><path d="M54.26,46.53c0.7,0.21,1.98,0.27,2.68,0.21c7.48-0.65,13.14-1.29,18.97-1.5c1.16-0.04,1.86,0.1,2.45,0.2" stroke-dasharray="24.196" stroke-dashoffset="24.196"><animate attributeName="stroke-dashoffset" values="24.196" fill="freeze" begin="6a59.click" /><animate attributeName="stroke-dashoffset" values="24.196;24.196;0" keyTimes="0;0.918;1" dur="2.967s" fill="freeze" begin="0s;6a59.click" /></path><path d="M49.23,56.57c0.42,0.35,0.95,0.62,1.03,1.08c0.57,3.36,2.12,11.27,2.98,17.48" stroke-dasharray="19.261" stroke-dashoffset="19.261"><animate attributeName="stroke-dashoffset" values="19.261" fill="freeze" begin="6a59.click" /><animate attributeName="stroke-dashoffset" values="19.261;19.261;0" keyTimes="0;0.939;1" dur="3.16s" fill="freeze" begin="0s;6a59.click" /></path><path d="M50.33,57.66c6.36-0.67,25.41-2.69,29.75-2.79c1.79-0.04,3.01,1.9,2.6,3.86c-0.72,3.51-2.08,8.86-3.3,13.44" stroke-dasharray="49.059" stroke-dashoffset="49.059"><animate attributeName="stroke-dashoffset" values="49.059" fill="freeze" begin="6a59.click" /><animate attributeName="stroke-dashoffset" values="49.059;49.059;0" keyTimes="0;0.866;1" dur="3.651s" fill="freeze" begin="0s;6a59.click" /></path><path d="M53.99,73.9c6.54-0.65,22.23-1.44,27.46-1.7" stroke-dasharray="27.515" stroke-dashoffset="27.515"><animate attributeName="stroke-dashoffset" values="27.515" fill="freeze" begin="6a59.click" /><animate attributeName="stroke-dashoffset" values="27.515;27.515;0" keyTimes="0;0.93;1" dur="3.926s" fill="freeze" begin="0s;6a59.click" /></path><path d="M52.83,80.43c1.62,1.86,4.14,6.59,4.55,9.48" stroke-dasharray="10.611" stroke-dashoffset="10.611"><animate attributeName="stroke-dashoffset" values="10.611" fill="freeze" begin="6a59.click" /><animate attributeName="stroke-dashoffset" values="10.611;10.611;0" keyTimes="0;0.974;1" dur="4.032s" fill="freeze" begin="0s;6a59.click" /></path><path d="M79.48,78.07c0.02,0.28,0.04,0.72-0.04,1.11c-0.45,2.35-3,7.5-6.5,10.65" stroke-dasharray="13.75" stroke-dashoffset="13.75"><animate attributeName="stroke-dashoffset" values="13.75" fill="freeze" begin="6a59.click" /><animate attributeName="stroke-dashoffset" values="13.75;13.75;0" keyTimes="0;0.967;1" dur="4.17s" fill="freeze" begin="0s;6a59.click" /></path><path d="M40.53,94.07c1.56,0.62,4.43,0.84,5.98,0.62C60,92.75,74.98,90.74,92.25,90.3c2.6-0.07,4.16,0.3,5.46,0.61" stroke-dasharray="57.553" stroke-dashoffset="57.553"><animate attributeName="stroke-dashoffset" values="57.553" fill="freeze" begin="6a59.click" /><animate attributeName="stroke-dashoffset" values="57.553;57.553;0" keyTimes="0;0.879;1" dur="4.746s" fill="freeze" begin="0s;6a59.click" /></path></g></svg>