<svg xmlns="http://www.w3.org/2000/svg" width="109" height="109" viewBox="0 0 109 109" id="6a72"><g fill="none" stroke="#666" stroke-width="9" stroke-linecap="round" stroke-linejoin="round"><g><g><path d="M12.28,39.72c0.35,0.24,2.39,0.41,3.31,0.31c3.94-0.41,18.12-1.71,24.45-2.91c0.92-0.17,2.15-0.24,2.73,0" /><path d="M27.86,14.5c0.91,0.47,2.54,2.75,2.54,4.42c0,0.95-0.12,72.75-0.3,78.58" /><path d="M29.94,40.28c-5.77,15.77-9.11,22.76-19.83,35.81" /><path d="M32.72,46.9C35.1,48.57,39,54,41,57.25" /></g><g><g><g><path d="M44.86,22.99c1.42,0.4,4.01,0.36,5.43,0.24c8.45-0.73,23.2-2.48,34.19-3.34c2.36-0.18,3.78,0.07,4.96,0.25" /><path d="M64.71,12.26c0.7,0.3,1.12,1.45,1.26,2.11c0.14,0.66,0.01,14.01-0.13,18.2" /><path d="M48.88,33.92c0.99,0.33,2.8,0.27,3.79,0.17c13.08-1.19,10.23-1.11,29.18-2.28c1.65-0.1,2.64,0.04,3.46,0.19" /></g><g><path d="M50.38,42.29c0.32,0.27,0.65,0.49,0.79,0.82c1.11,2.62,2.44,9.86,3.2,14.57" /><path d="M52.38,43.69c7.83-1.1,25.59-3.04,29.63-3.41c1.48-0.14,2.37,1.37,2.16,2.16c-0.88,3.3-1.47,5.69-3.34,10.44" /><path d="M54.68,55.94c4.74-0.42,22.49-2.22,28.51-2.64" /></g></g><g><path d="M53.68,60.94c2.1,1.23,5.42,5.06,5.94,6.97" /><path d="M79.75,58.71c0.01,0.2,0.03,0.52-0.03,0.8c-0.33,1.69-2.24,5.4-4.86,7.67" /><path d="M41.1,71.81c1.32,0.5,3.75,0.63,5.08,0.5c9.75-0.92,32.57-3.12,47.33-3.8c2.21-0.1,3.53,0.24,4.63,0.49" /><g><path d="M50.08,79.95c0.35,0.28,0.72,0.52,0.87,0.87c1.23,2.8,2.43,11.86,3.27,16.89" /><path d="M51.79,81.44c8.67-1.17,26.95-2.74,31.42-3.14c1.64-0.14,2.62,1.46,2.39,2.31c-0.97,3.52-1.62,8.33-3.7,13.41" /><path d="M54.57,95.86c5.25-0.45,23.24-1.45,29.91-1.9" /></g></g></g></g></g><g fill="none" stroke="#000" stroke-width="5" stroke-linecap="round" stroke-linejoin="round"><g><g><path d="M12.28,39.72c0.35,0.24,2.39,0.41,3.31,0.31c3.94-0.41,18.12-1.71,24.45-2.91c0.92-0.17,2.15-0.24,2.73,0" stroke-dasharray="30.734" stroke-dashoffset="30.734"><animate attributeName="stroke-dashoffset" values="30.734;30.734;0" dur="0.307s" fill="freeze" begin="0s;6a72.click" /></path><path d="M27.86,14.5c0.91,0.47,2.54,2.75,2.54,4.42c0,0.95-0.12,72.75-0.3,78.58" stroke-dasharray="83.841" stroke-dashoffset="83.841"><animate attributeName="stroke-dashoffset" values="83.841" fill="freeze" begin="6a72.click" /><animate attributeName="stroke-dashoffset" values="83.841;83.841;0" keyTimes="0;0.328;1" dur="0.937s" fill="freeze" begin="0s;6a72.click" /></path><path d="M29.94,40.28c-5.77,15.77-9.11,22.76-19.83,35.81" stroke-dasharray="41.205" stroke-dashoffset="41.205"><animate attributeName="stroke-dashoffset" values="41.205" fill="freeze" begin="6a72.click" /><animate attributeName="stroke-dashoffset" values="41.205;41.205;0" keyTimes="0;0.695;1" dur="1.349s" fill="freeze" begin="0s;6a72.click" /></path><path d="M32.72,46.9C35.1,48.57,39,54,41,57.25" stroke-dasharray="13.312" stroke-dashoffset="13.312"><animate attributeName="stroke-dashoffset" values="13.312" fill="freeze" begin="6a72.click" /><animate attributeName="stroke-dashoffset" values="13.312;13.312;0" keyTimes="0;0.91;1" dur="1.482s" fill="freeze" begin="0s;6a72.click" /></path></g><g><g><g><path d="M44.86,22.99c1.42,0.4,4.01,0.36,5.43,0.24c8.45-0.73,23.2-2.48,34.19-3.34c2.36-0.18,3.78,0.07,4.96,0.25" stroke-dasharray="44.791" stroke-dashoffset="44.791"><animate attributeName="stroke-dashoffset" values="44.791" fill="freeze" begin="6a72.click" /><animate attributeName="stroke-dashoffset" values="44.791;44.791;0" keyTimes="0;0.768;1" dur="1.93s" fill="freeze" begin="0s;6a72.click" /></path><path d="M64.71,12.26c0.7,0.3,1.12,1.45,1.26,2.11c0.14,0.66,0.01,14.01-0.13,18.2" stroke-dasharray="20.739" stroke-dashoffset="20.739"><animate attributeName="stroke-dashoffset" values="20.739" fill="freeze" begin="6a72.click" /><animate attributeName="stroke-dashoffset" values="20.739;20.739;0" keyTimes="0;0.903;1" dur="2.137s" fill="freeze" begin="0s;6a72.click" /></path><path d="M48.88,33.92c0.99,0.33,2.8,0.27,3.79,0.17c13.08-1.19,10.23-1.11,29.18-2.28c1.65-0.1,2.64,0.04,3.46,0.19" stroke-dasharray="36.562" stroke-dashoffset="36.562"><animate attributeName="stroke-dashoffset" values="36.562" fill="freeze" begin="6a72.click" /><animate attributeName="stroke-dashoffset" values="36.562;36.562;0" keyTimes="0;0.854;1" dur="2.503s" fill="freeze" begin="0s;6a72.click" /></path></g><g><path d="M50.38,42.29c0.32,0.27,0.65,0.49,0.79,0.82c1.11,2.62,2.44,9.86,3.2,14.57" stroke-dasharray="16.089" stroke-dashoffset="16.089"><animate attributeName="stroke-dashoffset" values="16.089" fill="freeze" begin="6a72.click" /><animate attributeName="stroke-dashoffset" values="16.089;16.089;0" keyTimes="0;0.94;1" dur="2.664s" fill="freeze" begin="0s;6a72.click" /></path><path d="M52.38,43.69c7.83-1.1,25.59-3.04,29.63-3.41c1.48-0.14,2.37,1.37,2.16,2.16c-0.88,3.3-1.47,5.69-3.34,10.44" stroke-dasharray="44.287" stroke-dashoffset="44.287"><animate attributeName="stroke-dashoffset" values="44.287" fill="freeze" begin="6a72.click" /><animate attributeName="stroke-dashoffset" values="44.287;44.287;0" keyTimes="0;0.857;1" dur="3.107s" fill="freeze" begin="0s;6a72.click" /></path><path d="M54.68,55.94c4.74-0.42,22.49-2.22,28.51-2.64" stroke-dasharray="28.633" stroke-dashoffset="28.633"><animate attributeName="stroke-dashoffset" values="28.633" fill="freeze" begin="6a72.click" /><animate attributeName="stroke-dashoffset" values="28.633;28.633;0" keyTimes="0;0.916;1" dur="3.393s" fill="freeze" begin="0s;6a72.click" /></path></g></g><g><path d="M53.68,60.94c2.1,1.23,5.42,5.06,5.94,6.97" stroke-dasharray="9.288" stroke-dashoffset="9.288"><animate attributeName="stroke-dashoffset" values="9.288" fill="freeze" begin="6a72.click" /><animate attributeName="stroke-dashoffset" values="9.288;9.288;0" keyTimes="0;0.973;1" dur="3.486s" fill="freeze" begin="0s;6a72.click" /></path><path d="M79.75,58.71c0.01,0.2,0.03,0.52-0.03,0.8c-0.33,1.69-2.24,5.4-4.86,7.67" stroke-dasharray="10.004" stroke-dashoffset="10.004"><animate attributeName="stroke-dashoffset" values="10.004" fill="freeze" begin="6a72.click" /><animate attributeName="stroke-dashoffset" values="10.004;10.004;0" keyTimes="0;0.972;1" dur="3.586s" fill="freeze" begin="0s;6a72.click" /></path><path d="M41.1,71.81c1.32,0.5,3.75,0.63,5.08,0.5c9.75-0.92,32.57-3.12,47.33-3.8c2.21-0.1,3.53,0.24,4.63,0.49" stroke-dasharray="57.298" stroke-dashoffset="57.298"><animate attributeName="stroke-dashoffset" values="57.298" fill="freeze" begin="6a72.click" /><animate attributeName="stroke-dashoffset" values="57.298;57.298;0" keyTimes="0;0.862;1" dur="4.159s" fill="freeze" begin="0s;6a72.click" /></path><g><path d="M50.08,79.95c0.35,0.28,0.72,0.52,0.87,0.87c1.23,2.8,2.43,11.86,3.27,16.89" stroke-dasharray="18.472" stroke-dashoffset="18.472"><animate attributeName="stroke-dashoffset" values="18.472" fill="freeze" begin="6a72.click" /><animate attributeName="stroke-dashoffset" values="18.472;18.472;0" keyTimes="0;0.957;1" dur="4.344s" fill="freeze" begin="0s;6a72.click" /></path><path d="M51.79,81.44c8.67-1.17,26.95-2.74,31.42-3.14c1.64-0.14,2.62,1.46,2.39,2.31c-0.97,3.52-1.62,8.33-3.7,13.41" stroke-dasharray="49.302" stroke-dashoffset="49.302"><animate attributeName="stroke-dashoffset" values="49.302" fill="freeze" begin="6a72.click" /><animate attributeName="stroke-dashoffset" values="49.302;49.302;0" keyTimes="0;0.898;1" dur="4.837s" fill="freeze" begin="0s;6a72.click" /></path><path d="M54.57,95.86c5.25-0.45,23.24-1.45,29.91-1.9" stroke-dasharray="29.972" stroke-dashoffset="29.972"><animate attributeName="stroke-dashoffset" values="29.972" fill="freeze" begin="6a72.click" /><animate attributeName="stroke-dashoffset" values="29.972;29.972;0" keyTimes="0;0.942;1" dur="5.137s" fill="freeze" begin="0s;6a72.click" /></path></g></g></g></g></g></svg>