<svg xmlns="http://www.w3.org/2000/svg" viewBox="0 0 109 109" id="6a80"><g fill="none" stroke="#666" stroke-width="6" stroke-linecap="round" stroke-linejoin="round"><g><g><path d="M13.78,39.72c1.85,0.66,5.08,0.23,6.61,0.12c4.74-0.34,11.31-1.26,17.01-1.94c1.46-0.17,3.49-0.4,5.12-0.04" /><path d="M29.11,14.75c1.13,1.13,1.54,2.75,1.54,4.42c0,2.4-0.04,49.42-0.05,69.83c0,3.66,0,6.46,0,8" /><path d="M29.94,40.28c0,1.59-0.34,3.57-0.86,4.87c-4.73,11.88-8.07,18.08-15.97,29.69" /><path d="M33.12,49.62c2.47,1.48,6.54,6.26,8.62,9.12" /></g><g><g><path d="M67.19,11c1.03,1.03,1.26,1.88,1.26,3.56c0,3.54-0.08,4.69-0.08,7.06" /><path d="M44.04,24.36c2.96,0.69,5.5,0.12,8.46-0.11c9.81-0.75,25.45-2.41,35.49-3.13c2.12-0.15,5.5-0.6,7.52,0.3" /></g><g><g><g><path d="M48.28,32.68c0.95,1.1,1.37,2.84,1.57,4.19c0.63,4.42,1.53,10.57,2.36,17.63c0.22,1.83,0.43,3.73,0.63,5.67" /><path d="M50.15,34.03c8.3-0.94,25.58-2.78,34.73-3.5c4.05-0.32,6.97-0.21,5.77,4.85c-1.21,5.14-2.28,10.68-3.45,15.9c-0.42,1.89-0.86,3.73-1.33,5.5" /></g><g><path d="M58.73,40.57c0.77,0.33,1.16,0.93,1.17,1.81c0.58,1.95,0.99,3.92,1.46,5.91c0.2,0.84,0.41,1.69,0.64,2.54" /><path d="M60.61,41.29c6.27-0.86,11.25-1.54,14.52-1.95c2.43-0.31,3.58-0.47,3.02,2.17c-0.45,2.1-0.9,3-1.65,5.5" /><path d="M62.65,49.26c2.82-0.32,7.19-0.69,11.11-1.04c1.38-0.12,2.73-0.24,3.99-0.35" /></g><g><path d="M53.85,57.6c9.14-1.22,20.33-2.35,31.27-2.81" /></g></g><g><g><path d="M52.87,66.86c0.76,0.76,1.18,1.76,1.41,3.39c0.44,3.2,1.36,9.43,1.96,13.38c0.3,1.98,0.53,3.39,0.59,3.56" /><path d="M54.67,67.73c4.91-0.85,20.3-2.76,25.97-3.38c2.95-0.32,4.62,0.28,4.21,3.52c-0.39,3.09-1.21,9.02-1.75,13.01c-0.31,2.25-0.52,3.89-0.52,4.04" /><path d="M56.44,76.21c5.94-0.46,23.17-2.38,26.56-2.46" /><path d="M57.77,85.39c4.66-0.16,17.64-2,23.68-2.22" /></g><g><path d="M43.54,94.57c2.32,0.91,5.43,0.42,7.84,0.31c10.11-0.46,27.81-2.39,38.88-2.7c2.58-0.07,5.21,0.02,7.74,0.62" /></g></g></g></g></g></g><g fill="none" stroke="#000" stroke-width="3" stroke-linecap="round" stroke-linejoin="round"><path d="M13.78,39.72c1.85,0.66,5.08,0.23,6.61,0.12c4.74-0.34,11.31-1.26,17.01-1.94c1.46-0.17,3.49-0.4,5.12-0.04" stroke-dasharray="28.921" stroke-dashoffset="28.921"><animate attributeName="stroke-dashoffset" values="28.921;28.921;0" dur="0.289s" fill="freeze" begin="0s;6a80.click" /></path><path d="M29.11,14.75c1.13,1.13,1.54,2.75,1.54,4.42c0,2.4-0.04,49.42-0.05,69.83c0,3.66,0,6.46,0,8" stroke-dasharray="82.636" stroke-dashoffset="82.636"><animate attributeName="stroke-dashoffset" values="82.636" fill="freeze" begin="6a80.click" /><animate attributeName="stroke-dashoffset" values="82.636;82.636;0" keyTimes="0;0.318;1" dur="0.91s" fill="freeze" begin="0s;6a80.click" /></path><path d="M29.94,40.28c0,1.59-0.34,3.57-0.86,4.87c-4.73,11.88-8.07,18.08-15.97,29.69" stroke-dasharray="38.773" stroke-dashoffset="38.773"><animate attributeName="stroke-dashoffset" values="38.773" fill="freeze" begin="6a80.click" /><animate attributeName="stroke-dashoffset" values="38.773;38.773;0" keyTimes="0;0.701;1" dur="1.298s" fill="freeze" begin="0s;6a80.click" /></path><path d="M33.12,49.62c2.47,1.48,6.54,6.26,8.62,9.12" stroke-dasharray="12.604" stroke-dashoffset="12.604"><animate attributeName="stroke-dashoffset" values="12.604" fill="freeze" begin="6a80.click" /><animate attributeName="stroke-dashoffset" values="12.604;12.604;0" keyTimes="0;0.912;1" dur="1.424s" fill="freeze" begin="0s;6a80.click" /></path><path d="M67.19,11c1.03,1.03,1.26,1.88,1.26,3.56c0,3.54-0.08,4.69-0.08,7.06" stroke-dasharray="10.968" stroke-dashoffset="10.968"><animate attributeName="stroke-dashoffset" values="10.968" fill="freeze" begin="6a80.click" /><animate attributeName="stroke-dashoffset" values="10.968;10.968;0" keyTimes="0;0.928;1" dur="1.534s" fill="freeze" begin="0s;6a80.click" /></path><path d="M44.04,24.36c2.96,0.69,5.5,0.12,8.46-0.11c9.81-0.75,25.45-2.41,35.49-3.13c2.12-0.15,5.5-0.6,7.52,0.3" stroke-dasharray="51.73" stroke-dashoffset="51.73"><animate attributeName="stroke-dashoffset" values="51.73" fill="freeze" begin="6a80.click" /><animate attributeName="stroke-dashoffset" values="51.73;51.73;0" keyTimes="0;0.748;1" dur="2.051s" fill="freeze" begin="0s;6a80.click" /></path><path d="M48.28,32.68c0.95,1.1,1.37,2.84,1.57,4.19c0.63,4.42,1.53,10.57,2.36,17.63c0.22,1.83,0.43,3.73,0.63,5.67" stroke-dasharray="28.024" stroke-dashoffset="28.024"><animate attributeName="stroke-dashoffset" values="28.024" fill="freeze" begin="6a80.click" /><animate attributeName="stroke-dashoffset" values="28.024;28.024;0" keyTimes="0;0.88;1" dur="2.331s" fill="freeze" begin="0s;6a80.click" /></path><path d="M50.15,34.03c8.3-0.94,25.58-2.78,34.73-3.5c4.05-0.32,6.97-0.21,5.77,4.85c-1.21,5.14-2.28,10.68-3.45,15.9c-0.42,1.89-0.86,3.73-1.33,5.5" stroke-dasharray="66.656" stroke-dashoffset="66.656"><animate attributeName="stroke-dashoffset" values="66.656" fill="freeze" begin="6a80.click" /><animate attributeName="stroke-dashoffset" values="66.656;66.656;0" keyTimes="0;0.823;1" dur="2.832s" fill="freeze" begin="0s;6a80.click" /></path><path d="M58.73,40.57c0.77,0.33,1.16,0.93,1.17,1.81c0.58,1.95,0.99,3.92,1.46,5.91c0.2,0.84,0.41,1.69,0.64,2.54" stroke-dasharray="11.009" stroke-dashoffset="11.009"><animate attributeName="stroke-dashoffset" values="11.009" fill="freeze" begin="6a80.click" /><animate attributeName="stroke-dashoffset" values="11.009;11.009;0" keyTimes="0;0.963;1" dur="2.942s" fill="freeze" begin="0s;6a80.click" /></path><path d="M60.61,41.29c6.27-0.86,11.25-1.54,14.52-1.95c2.43-0.31,3.58-0.47,3.02,2.17c-0.45,2.1-0.9,3-1.65,5.5" stroke-dasharray="25.454" stroke-dashoffset="25.454"><animate attributeName="stroke-dashoffset" values="25.454" fill="freeze" begin="6a80.click" /><animate attributeName="stroke-dashoffset" values="25.454;25.454;0" keyTimes="0;0.92;1" dur="3.197s" fill="freeze" begin="0s;6a80.click" /></path><path d="M62.65,49.26c2.82-0.32,7.19-0.69,11.11-1.04c1.38-0.12,2.73-0.24,3.99-0.35" stroke-dasharray="15.165" stroke-dashoffset="15.165"><animate attributeName="stroke-dashoffset" values="15.165" fill="freeze" begin="6a80.click" /><animate attributeName="stroke-dashoffset" values="15.165;15.165;0" keyTimes="0;0.955;1" dur="3.349s" fill="freeze" begin="0s;6a80.click" /></path><path d="M53.85,57.6c9.14-1.22,20.33-2.35,31.27-2.81" stroke-dasharray="31.407" stroke-dashoffset="31.407"><animate attributeName="stroke-dashoffset" values="31.407" fill="freeze" begin="6a80.click" /><animate attributeName="stroke-dashoffset" values="31.407;31.407;0" keyTimes="0;0.914;1" dur="3.663s" fill="freeze" begin="0s;6a80.click" /></path><path d="M52.87,66.86c0.76,0.76,1.18,1.76,1.41,3.39c0.44,3.2,1.36,9.43,1.96,13.38c0.3,1.98,0.53,3.39,0.59,3.56" stroke-dasharray="20.873" stroke-dashoffset="20.873"><animate attributeName="stroke-dashoffset" values="20.873" fill="freeze" begin="6a80.click" /><animate attributeName="stroke-dashoffset" values="20.873;20.873;0" keyTimes="0;0.946;1" dur="3.872s" fill="freeze" begin="0s;6a80.click" /></path><path d="M54.67,67.73c4.91-0.85,20.3-2.76,25.97-3.38c2.95-0.32,4.62,0.28,4.21,3.52c-0.39,3.09-1.21,9.02-1.75,13.01c-0.31,2.25-0.52,3.89-0.52,4.04" stroke-dasharray="50.23" stroke-dashoffset="50.23"><animate attributeName="stroke-dashoffset" values="50.23" fill="freeze" begin="6a80.click" /><animate attributeName="stroke-dashoffset" values="50.23;50.23;0" keyTimes="0;0.885;1" dur="4.374s" fill="freeze" begin="0s;6a80.click" /></path><path d="M56.44,76.21c5.94-0.46,23.17-2.38,26.56-2.46" stroke-dasharray="26.676" stroke-dashoffset="26.676"><animate attributeName="stroke-dashoffset" values="26.676" fill="freeze" begin="6a80.click" /><animate attributeName="stroke-dashoffset" values="26.676;26.676;0" keyTimes="0;0.942;1" dur="4.641s" fill="freeze" begin="0s;6a80.click" /></path><path d="M57.77,85.39c4.66-0.16,17.64-2,23.68-2.22" stroke-dasharray="23.789" stroke-dashoffset="23.789"><animate attributeName="stroke-dashoffset" values="23.789" fill="freeze" begin="6a80.click" /><animate attributeName="stroke-dashoffset" values="23.789;23.789;0" keyTimes="0;0.951;1" dur="4.879s" fill="freeze" begin="0s;6a80.click" /></path><path d="M43.54,94.57c2.32,0.91,5.43,0.42,7.84,0.31c10.11-0.46,27.81-2.39,38.88-2.7c2.58-0.07,5.21,0.02,7.74,0.62" stroke-dasharray="54.674" stroke-dashoffset="54.674"><animate attributeName="stroke-dashoffset" values="54.674" fill="freeze" begin="6a80.click" /><animate attributeName="stroke-dashoffset" values="54.674;54.674;0" keyTimes="0;0.899;1" dur="5.426s" fill="freeze" begin="0s;6a80.click" /></path></g></svg>