<svg xmlns="http://www.w3.org/2000/svg" width="109" height="109" viewBox="0 0 109 109" id="6a90"><g fill="none" stroke="#666" stroke-width="9" stroke-linecap="round" stroke-linejoin="round"><g><g><path d="M11.78,38.13c0.35,0.17,2.43,0.28,3.37,0.22c4.01-0.28,15.39-1.52,21.84-2.35c0.93-0.12,2.19-0.17,2.78,0" /><path d="M26.86,13.5c0.91,0.47,2.54,1.5,2.54,4.42c0,1.95-0.15,75.25-0.3,80.08" /><path d="M28.94,39.78c-6.39,16.45-9.69,24.47-19.83,37.81" /><path d="M32.47,49.4c2.12,1.74,6.49,8.48,8.28,11.85" /></g><g><g><path d="M61.51,11.25c0.05,0.55,0.1,1.41-0.09,2.2c-1.14,4.64-6.67,14.3-15.17,21.55" /><path d="M59,20.87c6-0.37,14-1.12,19.99-2.64c1.73-0.44,2.44,1.21,1.21,2.87c-3.45,4.65-6.7,7.65-9.77,12.15" /></g><path d="M50.13,34.51c1.43,0.3,3.11,0.35,4.55,0.3c9.95-0.29,25.74-1.92,35.94-2.6c2.37-0.16,3.82,0.15,5.01,0.3" /><path d="M52.5,35c0.04,1.4,0.08,3.63-0.07,5.64c-0.9,11.9-0.93,39.86-12.62,53.57" /><path d="M65.1,37.5c0.18,0.63,0.38,0.88,0.29,1.41c-0.69,4.09-3.02,9.59-8.65,12.34" /><path d="M77.25,35c0.74,0.83,1.38,1.81,1.38,3.09c0,1.72-0.22,2.95-0.22,4.18c0,3.35,2.54,4.73,7.38,4.73c4.38,0,7.62,0,9.47-1.08" /><g><path d="M69.63,47c2.16,1.07,5.58,4.39,6.12,6.05" /><path d="M56.37,59.01c0.88,0.21,3.69,0.18,4.57,0.21c9.09,0.29,21.42-1.85,29.29-2.03c1.46-0.03,3.64,0.1,4.37,0.2" /><path d="M62.23,66.68c0.53,0.1,3.78,0.11,4.31,0.1c5.53-0.11,11.14-1.72,16.58-1.71c0.88,0,4.58,0.05,5.02,0.1" /><path d="M62.23,74.96c0.49,0.12,2.52,0.13,3.02,0.12c5.15-0.14,13.53-1.65,18.61-1.64c0.82,0,4.26,0.06,4.68,0.12" /><g><path d="M59.64,81.67c0.35,0.31,0.75,0.55,0.86,0.95C61.49,86.15,62,93,62.75,98.75" /><path d="M61.31,83.24c6.44-0.75,21.98-2.34,27.92-3.1c1.49-0.19,2.89,0.87,2.68,1.73c-0.89,3.57-1.66,7.22-3.24,13.16" /><path d="M62.97,96.9c4.8-0.46,20.03-1.65,27.69-1.94" /></g></g></g></g></g><g fill="none" stroke="#000" stroke-width="5" stroke-linecap="round" stroke-linejoin="round"><g><g><path d="M11.78,38.13c0.35,0.17,2.43,0.28,3.37,0.22c4.01-0.28,15.39-1.52,21.84-2.35c0.93-0.12,2.19-0.17,2.78,0" stroke-dasharray="28.15" stroke-dashoffset="28.15"><animate id="0" attributeName="stroke-dashoffset" values="28.15;0" dur="0.28s" fill="freeze" begin="0s;6a90.click" /></path><path d="M26.86,13.5c0.91,0.47,2.54,1.5,2.54,4.42c0,1.95-0.15,75.25-0.3,80.08" stroke-dasharray="85.49" stroke-dashoffset="85.49"><animate attributeName="stroke-dashoffset" values="85.49" fill="freeze" begin="6a90.click" /><animate id="1" attributeName="stroke-dashoffset" values="85.49;0" dur="0.64s" fill="freeze" begin="0.end" /></path><path d="M28.94,39.78c-6.39,16.45-9.69,24.47-19.83,37.81" stroke-dasharray="42.88" stroke-dashoffset="42.88"><animate attributeName="stroke-dashoffset" values="42.88" fill="freeze" begin="6a90.click" /><animate id="2" attributeName="stroke-dashoffset" values="42.88;0" dur="0.43s" fill="freeze" begin="1.end" /></path><path d="M32.47,49.4c2.12,1.74,6.49,8.48,8.28,11.85" stroke-dasharray="14.5" stroke-dashoffset="14.5"><animate attributeName="stroke-dashoffset" values="14.5" fill="freeze" begin="6a90.click" /><animate id="3" attributeName="stroke-dashoffset" values="14.5;0" dur="0.14s" fill="freeze" begin="2.end" /></path></g><g><g><path d="M61.51,11.25c0.05,0.55,0.1,1.41-0.09,2.2c-1.14,4.64-6.67,14.3-15.17,21.55" stroke-dasharray="28.88" stroke-dashoffset="28.88"><animate attributeName="stroke-dashoffset" values="28.88" fill="freeze" begin="6a90.click" /><animate id="4" attributeName="stroke-dashoffset" values="28.88;0" dur="0.29s" fill="freeze" begin="3.end" /></path><path d="M59,20.87c6-0.37,14-1.12,19.99-2.64c1.73-0.44,2.44,1.21,1.21,2.87c-3.45,4.65-6.7,7.65-9.77,12.15" stroke-dasharray="40.18" stroke-dashoffset="40.18"><animate attributeName="stroke-dashoffset" values="40.18" fill="freeze" begin="6a90.click" /><animate id="5" attributeName="stroke-dashoffset" values="40.18;0" dur="0.4s" fill="freeze" begin="4.end" /></path></g><path d="M50.13,34.51c1.43,0.3,3.11,0.35,4.55,0.3c9.95-0.29,25.74-1.92,35.94-2.6c2.37-0.16,3.82,0.15,5.01,0.3" stroke-dasharray="45.64" stroke-dashoffset="45.64"><animate attributeName="stroke-dashoffset" values="45.64" fill="freeze" begin="6a90.click" /><animate id="6" attributeName="stroke-dashoffset" values="45.64;0" dur="0.46s" fill="freeze" begin="5.end" /></path><path d="M52.5,35c0.04,1.4,0.08,3.63-0.07,5.64c-0.9,11.9-0.93,39.86-12.62,53.57" stroke-dasharray="61.57" stroke-dashoffset="61.57"><animate attributeName="stroke-dashoffset" values="61.57" fill="freeze" begin="6a90.click" /><animate id="7" attributeName="stroke-dashoffset" values="61.57;0" dur="0.46s" fill="freeze" begin="6.end" /></path><path d="M65.1,37.5c0.18,0.63,0.38,0.88,0.29,1.41c-0.69,4.09-3.02,9.59-8.65,12.34" stroke-dasharray="17.12" stroke-dashoffset="17.12"><animate attributeName="stroke-dashoffset" values="17.12" fill="freeze" begin="6a90.click" /><animate id="8" attributeName="stroke-dashoffset" values="17.12;0" dur="0.17s" fill="freeze" begin="7.end" /></path><path d="M77.25,35c0.74,0.83,1.38,1.81,1.38,3.09c0,1.72-0.22,2.95-0.22,4.18c0,3.35,2.54,4.73,7.38,4.73c4.38,0,7.62,0,9.47-1.08" stroke-dasharray="27.24" stroke-dashoffset="27.24"><animate attributeName="stroke-dashoffset" values="27.24" fill="freeze" begin="6a90.click" /><animate id="9" attributeName="stroke-dashoffset" values="27.24;0" dur="0.27s" fill="freeze" begin="8.end" /></path><g><path d="M69.63,47c2.16,1.07,5.58,4.39,6.12,6.05" stroke-dasharray="8.73" stroke-dashoffset="8.73"><animate attributeName="stroke-dashoffset" values="8.73" fill="freeze" begin="6a90.click" /><animate id="10" attributeName="stroke-dashoffset" values="8.73;0" dur="0.09s" fill="freeze" begin="9.end" /></path><path d="M56.37,59.01c0.88,0.21,3.69,0.18,4.57,0.21c9.09,0.29,21.42-1.85,29.29-2.03c1.46-0.03,3.64,0.1,4.37,0.2" stroke-dasharray="38.33" stroke-dashoffset="38.33"><animate attributeName="stroke-dashoffset" values="38.33" fill="freeze" begin="6a90.click" /><animate id="11" attributeName="stroke-dashoffset" values="38.33;0" dur="0.38s" fill="freeze" begin="10.end" /></path><path d="M62.23,66.68c0.53,0.1,3.78,0.11,4.31,0.1c5.53-0.11,11.14-1.72,16.58-1.71c0.88,0,4.58,0.05,5.02,0.1" stroke-dasharray="26.02" stroke-dashoffset="26.02"><animate attributeName="stroke-dashoffset" values="26.02" fill="freeze" begin="6a90.click" /><animate id="12" attributeName="stroke-dashoffset" values="26.02;0" dur="0.26s" fill="freeze" begin="11.end" /></path><path d="M62.23,74.96c0.49,0.12,2.52,0.13,3.02,0.12c5.15-0.14,13.53-1.65,18.61-1.64c0.82,0,4.26,0.06,4.68,0.12" stroke-dasharray="26.4" stroke-dashoffset="26.4"><animate attributeName="stroke-dashoffset" values="26.4" fill="freeze" begin="6a90.click" /><animate id="13" attributeName="stroke-dashoffset" values="26.4;0" dur="0.26s" fill="freeze" begin="12.end" /></path><g><path d="M59.64,81.67c0.35,0.31,0.75,0.55,0.86,0.95C61.49,86.15,62,93,62.75,98.75" stroke-dasharray="17.6" stroke-dashoffset="17.6"><animate attributeName="stroke-dashoffset" values="17.6" fill="freeze" begin="6a90.click" /><animate id="14" attributeName="stroke-dashoffset" values="17.6;0" dur="0.18s" fill="freeze" begin="13.end" /></path><path d="M61.31,83.24c6.44-0.75,21.98-2.34,27.92-3.1c1.49-0.19,2.89,0.87,2.68,1.73c-0.89,3.57-1.66,7.22-3.24,13.16" stroke-dasharray="45.25" stroke-dashoffset="45.25"><animate attributeName="stroke-dashoffset" values="45.25" fill="freeze" begin="6a90.click" /><animate id="15" attributeName="stroke-dashoffset" values="45.25;0" dur="0.45s" fill="freeze" begin="14.end" /></path><path d="M62.97,96.9c4.8-0.46,20.03-1.65,27.69-1.94" stroke-dasharray="27.76" stroke-dashoffset="27.76"><animate attributeName="stroke-dashoffset" values="27.76" fill="freeze" begin="6a90.click" /><animate id="16" attributeName="stroke-dashoffset" values="27.76;0" dur="0.28s" fill="freeze" begin="15.end" /></path></g></g></g></g></g></svg>