<svg xmlns="http://www.w3.org/2000/svg" width="109" height="109" viewBox="0 0 109 109" id="6aa0"><g fill="none" stroke="#666" stroke-width="9" stroke-linecap="round" stroke-linejoin="round"><g><g><g><g><path d="M15.07,19.95c0.72,0.36,1.56,0.34,2.29,0.36c6.39,0.2,24.14-2.55,31.6-2.81c1.21-0.04,1.93,0.17,2.54,0.35" /><path d="M26.2,12.2c0.9,0.87,1.26,1.12,1.29,1.66c0.26,5.39,1.01,7.39,0.93,11.72" /><path d="M41.83,10.64c0.17,0.63,0.38,1.09,0.2,1.87c-1.08,4.53-1.8,8.28-2.97,12.54" /></g><g><g><g><path d="M22.75,26.5c0.03,0.4,0.06,1.02-0.06,1.59c-0.68,3.35-4.59,11.19-9.94,15.69" /></g><path d="M21.69,32.95c0.54,0.32,2.26,0.35,3.17,0.21c3.39-0.49,16.25-1.83,18.36-2.2c2.77-0.49,4.6,0.79,4.28,3.84c-0.75,7.19-2,12.94-5.25,21.94c-1.71,4.73-5.01,2.11-6.3,0.77" /></g><g><path d="M21.68,40.66c0.19,0.18,0.38,0.33,0.47,0.56c0.66,1.81,1.85,6.77,2.1,12" /><path d="M22.91,42.1c4.88-1.02,9.64-2.03,12.27-2.3c0.96-0.1,1.6,0.47,1.4,1.4c-0.51,2.42-0.99,5.31-1.84,8.64" /><path d="M24.37,51.51c3.09-0.31,7.32-0.83,11.57-1.3" /></g></g></g><g><g><path d="M64.69,10.64c0.03,0.6,0.18,1.57-0.06,2.39c-1.55,5.26-5.03,15.63-10.39,22.91" /><path d="M64.08,24.37c0.53,0.28,1.49,0.32,2.02,0.28c5.47-0.33,13.83-1.41,20.4-2.87c0.91-0.2,2.61-0.01,2.85,0.05" /></g><g><g><path d="M78.28,28.28c0.31,0.62,0.65,1.12,0.16,2.19C74.25,39.5,70,46.5,59.08,53.5" /></g><path d="M59.15,32.96c5.72,2.83,20.74,18.58,29.48,23.58c1.68,0.96,2.75,1.12,4.13,1.22" /></g></g></g><g><path d="M18.25,68.82c1.91,0.39,4.08,0.51,6.27,0.39c11.17-0.63,43.61-2.82,60.51-3.57c2.18-0.09,3.54,0.07,5.72,0.34" /><path d="M52.25,55.25c1.25,0.5,2.25,2.22,2.25,3.25c0,10.5,0,34.75-0.25,41" /><path d="M51.25,67.75c-6.25,8.64-23,21.86-36,26.75" /><path d="M55.5,68c5.5,6.5,22.75,19,31.6,23.34c1.83,0.9,3.18,1.59,4.9,1.91" /></g></g></g><g fill="none" stroke="#000" stroke-width="5" stroke-linecap="round" stroke-linejoin="round"><g><g><g><g><path d="M15.07,19.95c0.72,0.36,1.56,0.34,2.29,0.36c6.39,0.2,24.14-2.55,31.6-2.81c1.21-0.04,1.93,0.17,2.54,0.35" stroke-dasharray="36.65" stroke-dashoffset="36.65"><animate id="0" attributeName="stroke-dashoffset" values="36.65;0" dur="0.37s" fill="freeze" begin="0s;6aa0.click" /></path><path d="M26.2,12.2c0.9,0.87,1.26,1.12,1.29,1.66c0.26,5.39,1.01,7.39,0.93,11.72" stroke-dasharray="13.92" stroke-dashoffset="13.92"><animate attributeName="stroke-dashoffset" values="13.92" fill="freeze" begin="6aa0.click" /><animate id="1" attributeName="stroke-dashoffset" values="13.92;0" dur="0.14s" fill="freeze" begin="0.end" /></path><path d="M41.83,10.64c0.17,0.63,0.38,1.09,0.2,1.87c-1.08,4.53-1.8,8.28-2.97,12.54" stroke-dasharray="14.8" stroke-dashoffset="14.8"><animate attributeName="stroke-dashoffset" values="14.8" fill="freeze" begin="6aa0.click" /><animate id="2" attributeName="stroke-dashoffset" values="14.8;0" dur="0.15s" fill="freeze" begin="1.end" /></path></g><g><g><g><path d="M22.75,26.5c0.03,0.4,0.06,1.02-0.06,1.59c-0.68,3.35-4.59,11.19-9.94,15.69" stroke-dasharray="20.42" stroke-dashoffset="20.42"><animate attributeName="stroke-dashoffset" values="20.42" fill="freeze" begin="6aa0.click" /><animate id="3" attributeName="stroke-dashoffset" values="20.42;0" dur="0.2s" fill="freeze" begin="2.end" /></path></g><path d="M21.69,32.95c0.54,0.32,2.26,0.35,3.17,0.21c3.39-0.49,16.25-1.83,18.36-2.2c2.77-0.49,4.6,0.79,4.28,3.84c-0.75,7.19-2,12.94-5.25,21.94c-1.71,4.73-5.01,2.11-6.3,0.77" stroke-dasharray="59.59" stroke-dashoffset="59.59"><animate attributeName="stroke-dashoffset" values="59.59" fill="freeze" begin="6aa0.click" /><animate id="4" attributeName="stroke-dashoffset" values="59.59;0" dur="0.6s" fill="freeze" begin="3.end" /></path></g><g><path d="M21.68,40.66c0.19,0.18,0.38,0.33,0.47,0.56c0.66,1.81,1.85,6.77,2.1,12" stroke-dasharray="12.95" stroke-dashoffset="12.95"><animate attributeName="stroke-dashoffset" values="12.95" fill="freeze" begin="6aa0.click" /><animate id="5" attributeName="stroke-dashoffset" values="12.95;0" dur="0.13s" fill="freeze" begin="4.end" /></path><path d="M22.91,42.1c4.88-1.02,9.64-2.03,12.27-2.3c0.96-0.1,1.6,0.47,1.4,1.4c-0.51,2.42-0.99,5.31-1.84,8.64" stroke-dasharray="23.71" stroke-dashoffset="23.71"><animate attributeName="stroke-dashoffset" values="23.71" fill="freeze" begin="6aa0.click" /><animate id="6" attributeName="stroke-dashoffset" values="23.71;0" dur="0.24s" fill="freeze" begin="5.end" /></path><path d="M24.37,51.51c3.09-0.31,7.32-0.83,11.57-1.3" stroke-dasharray="11.64" stroke-dashoffset="11.64"><animate attributeName="stroke-dashoffset" values="11.64" fill="freeze" begin="6aa0.click" /><animate id="7" attributeName="stroke-dashoffset" values="11.64;0" dur="0.12s" fill="freeze" begin="6.end" /></path></g></g></g><g><g><path d="M64.69,10.64c0.03,0.6,0.18,1.57-0.06,2.39c-1.55,5.26-5.03,15.63-10.39,22.91" stroke-dasharray="27.68" stroke-dashoffset="27.68"><animate attributeName="stroke-dashoffset" values="27.68" fill="freeze" begin="6aa0.click" /><animate id="8" attributeName="stroke-dashoffset" values="27.68;0" dur="0.28s" fill="freeze" begin="7.end" /></path><path d="M64.08,24.37c0.53,0.28,1.49,0.32,2.02,0.28c5.47-0.33,13.83-1.41,20.4-2.87c0.91-0.2,2.61-0.01,2.85,0.05" stroke-dasharray="25.54" stroke-dashoffset="25.54"><animate attributeName="stroke-dashoffset" values="25.54" fill="freeze" begin="6aa0.click" /><animate id="9" attributeName="stroke-dashoffset" values="25.54;0" dur="0.26s" fill="freeze" begin="8.end" /></path></g><g><g><path d="M78.28,28.28c0.31,0.62,0.65,1.12,0.16,2.19C74.25,39.5,70,46.5,59.08,53.5" stroke-dasharray="32.9" stroke-dashoffset="32.9"><animate attributeName="stroke-dashoffset" values="32.9" fill="freeze" begin="6aa0.click" /><animate id="10" attributeName="stroke-dashoffset" values="32.9;0" dur="0.33s" fill="freeze" begin="9.end" /></path></g><path d="M59.15,32.96c5.72,2.83,20.74,18.58,29.48,23.58c1.68,0.96,2.75,1.12,4.13,1.22" stroke-dasharray="42.16" stroke-dashoffset="42.16"><animate attributeName="stroke-dashoffset" values="42.16" fill="freeze" begin="6aa0.click" /><animate id="11" attributeName="stroke-dashoffset" values="42.16;0" dur="0.42s" fill="freeze" begin="10.end" /></path></g></g></g><g><path d="M18.25,68.82c1.91,0.39,4.08,0.51,6.27,0.39c11.17-0.63,43.61-2.82,60.51-3.57c2.18-0.09,3.54,0.07,5.72,0.34" stroke-dasharray="72.65" stroke-dashoffset="72.65"><animate attributeName="stroke-dashoffset" values="72.65" fill="freeze" begin="6aa0.click" /><animate id="12" attributeName="stroke-dashoffset" values="72.65;0" dur="0.55s" fill="freeze" begin="11.end" /></path><path d="M52.25,55.25c1.25,0.5,2.25,2.22,2.25,3.25c0,10.5,0,34.75-0.25,41" stroke-dasharray="45.13" stroke-dashoffset="45.13"><animate attributeName="stroke-dashoffset" values="45.13" fill="freeze" begin="6aa0.click" /><animate id="13" attributeName="stroke-dashoffset" values="45.13;0" dur="0.45s" fill="freeze" begin="12.end" /></path><path d="M51.25,67.75c-6.25,8.64-23,21.86-36,26.75" stroke-dasharray="45.3" stroke-dashoffset="45.3"><animate attributeName="stroke-dashoffset" values="45.3" fill="freeze" begin="6aa0.click" /><animate id="14" attributeName="stroke-dashoffset" values="45.3;0" dur="0.45s" fill="freeze" begin="13.end" /></path><path d="M55.5,68c5.5,6.5,22.75,19,31.6,23.34c1.83,0.9,3.18,1.59,4.9,1.91" stroke-dasharray="44.72" stroke-dashoffset="44.72"><animate attributeName="stroke-dashoffset" values="44.72" fill="freeze" begin="6aa0.click" /><animate id="15" attributeName="stroke-dashoffset" values="44.72;0" dur="0.45s" fill="freeze" begin="14.end" /></path></g></g></g></svg>