<svg xmlns="http://www.w3.org/2000/svg" viewBox="0 0 109 109" id="6adb"><g fill="none" stroke="#666" stroke-width="6" stroke-linecap="round" stroke-linejoin="round"><g><g><path d="M11.53,38.97c2.11,0.33,4.23,0.41,6.35,0.24c4.43-0.49,11.51-1.57,16.67-2.4c1.38-0.39,2.79-0.53,4.21-0.43" /><path d="M27.36,13.75c1.32,1.32,1.54,3.25,1.54,5.42c0,2.17-0.01,43.58-0.02,64.33c0,6.29,0,10.69,0,11.5" /><path d="M28.69,39.53c-0.06,1.59-1.17,5.85-1.72,7.37c-4.27,11.83-8.14,17.44-15.36,29.18" /><path d="M31.47,47.9c2.76,1.75,7.15,6.85,8.91,10.39" /></g><g><g><g><path d="M51.34,14.62c0,1.12-0.29,1.91-0.69,2.8c-2.03,3.7-5.02,7.86-10.15,13.4" /><path d="M50.81,23.16c0.63,0,1.94-0.14,3.57-0.34c3.04-0.38,7.19-1.21,10.13-1.71c1.38-0.23,2.49-0.39,3.1-0.39" /><path d="M55.12,25.38c1.01,1.36,3.21,5.71,3.46,7.82" /></g><g><path d="M78.53,13c0,1-0.31,2.05-0.79,2.85C75.25,20,71.8,25.5,67.61,29.57" /><path d="M77.56,22.38c0.74,0,1.8-0.08,3.07-0.21c3.93-0.4,9.82-1.4,14.14-1.92c1.67-0.2,3.1-0.34,4.09-0.34" /><path d="M85.6,24.85c0,0.78-0.36,1.69-0.79,2.31c-1.69,2.47-3.31,4.34-6.05,7.08" /></g></g><g><g p6:partial xmlns:p6="http://kanjivg.tagaini.net"><path d="M 55.328743,37.253575 c -0.08498,0.610126 -0.317173,1.032087 -0.661674,1.581965 -0.609499,0.972858 -1.592505,1.996435 -3.436643,3.457433" /><path d="M 45.99,44.492723 c 0.81,0.81 0.83,1.87 0.83,3.32 0,4.55 -0.09,45.315531 -0.09,47.865531" /><path d="M44.38,43.37c1.38,0.75,3.67,0.86,5.76,0.44c3.8-0.58,8.71-1.38,11.74-1.81c3.05-0.44,3.88,0.44,3.83,3.49c-0.09,5.53,0.01,15.75,0.01,22.09" /><path d="M48,54.87c3.75-0.5,12.12-1.38,16.38-1.62" /><path d="M48,66.5c5.75-0.5,11.25-1,16.38-1.38" /><path d="M48,78.4c5.75-0.5,11.25-1,16.38-1.38" /><path d="M48,87.5c5.75-0.5,11.25-1,16.38-1.38" /></g><g><g><path d="M75.11,40.07c1.02,0.43,3.03,0.82,4.63,0.52c2.33-0.43,6.97-1.44,10.89-2.33c2.89-0.65,4.43,0.88,4.37,2.74c-0.32,11.04-1.25,27.9-2.95,34.82c-2.05,8.31-4.42,1.81-5.1,0.46" /><path d="M76.11,40.82c0.72,0.72,1.24,1.81,1.24,3.07c0,0.71-0.05,25.85-0.08,41.36c-0.01,5.41-0.02,9.64-0.02,11.25" /></g></g></g></g></g></g><g fill="none" stroke="#000" stroke-width="3" stroke-linecap="round" stroke-linejoin="round"><path d="M11.53,38.97c2.11,0.33,4.23,0.41,6.35,0.24c4.43-0.49,11.51-1.57,16.67-2.4c1.38-0.39,2.79-0.53,4.21-0.43" stroke-dasharray="27.467" stroke-dashoffset="27.467"><animate attributeName="stroke-dashoffset" values="27.467;27.467;0" dur="0.275s" fill="freeze" begin="0s;6adb.click" /></path><path d="M27.36,13.75c1.32,1.32,1.54,3.25,1.54,5.42c0,2.17-0.01,43.58-0.02,64.33c0,6.29,0,10.69,0,11.5" stroke-dasharray="81.62" stroke-dashoffset="81.62"><animate attributeName="stroke-dashoffset" values="81.62" fill="freeze" begin="6adb.click" /><animate attributeName="stroke-dashoffset" values="81.62;81.62;0" keyTimes="0;0.309;1" dur="0.889s" fill="freeze" begin="0s;6adb.click" /></path><path d="M28.69,39.53c-0.06,1.59-1.17,5.85-1.72,7.37c-4.27,11.83-8.14,17.44-15.36,29.18" stroke-dasharray="40.64" stroke-dashoffset="40.64"><animate attributeName="stroke-dashoffset" values="40.64" fill="freeze" begin="6adb.click" /><animate attributeName="stroke-dashoffset" values="40.64;40.64;0" keyTimes="0;0.686;1" dur="1.295s" fill="freeze" begin="0s;6adb.click" /></path><path d="M31.47,47.9c2.76,1.75,7.15,6.85,8.91,10.39" stroke-dasharray="13.801" stroke-dashoffset="13.801"><animate attributeName="stroke-dashoffset" values="13.801" fill="freeze" begin="6adb.click" /><animate attributeName="stroke-dashoffset" values="13.801;13.801;0" keyTimes="0;0.824;1" dur="1.571s" fill="freeze" begin="0s;6adb.click" /></path><path d="M51.34,14.62c0,1.12-0.29,1.91-0.69,2.8c-2.03,3.7-5.02,7.86-10.15,13.4" stroke-dasharray="19.762" stroke-dashoffset="19.762"><animate attributeName="stroke-dashoffset" values="19.762" fill="freeze" begin="6adb.click" /><animate attributeName="stroke-dashoffset" values="19.762;19.762;0" keyTimes="0;0.888;1" dur="1.769s" fill="freeze" begin="0s;6adb.click" /></path><path d="M50.81,23.16c0.63,0,1.94-0.14,3.57-0.34c3.04-0.38,7.19-1.21,10.13-1.71c1.38-0.23,2.49-0.39,3.1-0.39" stroke-dasharray="16.99" stroke-dashoffset="16.99"><animate attributeName="stroke-dashoffset" values="16.99" fill="freeze" begin="6adb.click" /><animate attributeName="stroke-dashoffset" values="16.99;16.99;0" keyTimes="0;0.912;1" dur="1.939s" fill="freeze" begin="0s;6adb.click" /></path><path d="M55.12,25.38c1.01,1.36,3.21,5.71,3.46,7.82" stroke-dasharray="8.605" stroke-dashoffset="8.605"><animate attributeName="stroke-dashoffset" values="8.605" fill="freeze" begin="6adb.click" /><animate attributeName="stroke-dashoffset" values="8.605;8.605;0" keyTimes="0;0.919;1" dur="2.111s" fill="freeze" begin="0s;6adb.click" /></path><path d="M78.53,13c0,1-0.31,2.05-0.79,2.85C75.25,20,71.8,25.5,67.61,29.57" stroke-dasharray="20.095" stroke-dashoffset="20.095"><animate attributeName="stroke-dashoffset" values="20.095" fill="freeze" begin="6adb.click" /><animate attributeName="stroke-dashoffset" values="20.095;20.095;0" keyTimes="0;0.913;1" dur="2.312s" fill="freeze" begin="0s;6adb.click" /></path><path d="M77.56,22.38c0.74,0,1.8-0.08,3.07-0.21c3.93-0.4,9.82-1.4,14.14-1.92c1.67-0.2,3.1-0.34,4.09-0.34" stroke-dasharray="21.456" stroke-dashoffset="21.456"><animate attributeName="stroke-dashoffset" values="21.456" fill="freeze" begin="6adb.click" /><animate attributeName="stroke-dashoffset" values="21.456;21.456;0" keyTimes="0;0.915;1" dur="2.527s" fill="freeze" begin="0s;6adb.click" /></path><path d="M85.6,24.85c0,0.78-0.36,1.69-0.79,2.31c-1.69,2.47-3.31,4.34-6.05,7.08" stroke-dasharray="11.804" stroke-dashoffset="11.804"><animate attributeName="stroke-dashoffset" values="11.804" fill="freeze" begin="6adb.click" /><animate attributeName="stroke-dashoffset" values="11.804;11.804;0" keyTimes="0;0.915;1" dur="2.763s" fill="freeze" begin="0s;6adb.click" /></path><path d="M 55.328743,37.253575 c -0.08498,0.610126 -0.317173,1.032087 -0.661674,1.581965 -0.609499,0.972858 -1.592505,1.996435 -3.436643,3.457433" stroke-dasharray="6.628" stroke-dashoffset="6.628"><animate attributeName="stroke-dashoffset" values="6.628" fill="freeze" begin="6adb.click" /><animate attributeName="stroke-dashoffset" values="6.628;6.628;0" keyTimes="0;0.954;1" dur="2.896s" fill="freeze" begin="0s;6adb.click" /></path><path d="M 45.99,44.492723 c 0.81,0.81 0.83,1.87 0.83,3.32 0,4.55 -0.09,45.315531 -0.09,47.865531" stroke-dasharray="51.39" stroke-dashoffset="51.39"><animate attributeName="stroke-dashoffset" values="51.39" fill="freeze" begin="6adb.click" /><animate attributeName="stroke-dashoffset" values="51.39;51.39;0" keyTimes="0;0.849;1" dur="3.41s" fill="freeze" begin="0s;6adb.click" /></path><path d="M44.38,43.37c1.38,0.75,3.67,0.86,5.76,0.44c3.8-0.58,8.71-1.38,11.74-1.81c3.05-0.44,3.88,0.44,3.83,3.49c-0.09,5.53,0.01,15.75,0.01,22.09" stroke-dasharray="46.289" stroke-dashoffset="46.289"><animate attributeName="stroke-dashoffset" values="46.289" fill="freeze" begin="6adb.click" /><animate attributeName="stroke-dashoffset" values="46.289;46.289;0" keyTimes="0;0.88;1" dur="3.873s" fill="freeze" begin="0s;6adb.click" /></path><path d="M48,54.87c3.75-0.5,12.12-1.38,16.38-1.62" stroke-dasharray="16.463" stroke-dashoffset="16.463"><animate attributeName="stroke-dashoffset" values="16.463" fill="freeze" begin="6adb.click" /><animate attributeName="stroke-dashoffset" values="16.463;16.463;0" keyTimes="0;0.959;1" dur="4.038s" fill="freeze" begin="0s;6adb.click" /></path><path d="M48,66.5c5.75-0.5,11.25-1,16.38-1.38" stroke-dasharray="16.439" stroke-dashoffset="16.439"><animate attributeName="stroke-dashoffset" values="16.439" fill="freeze" begin="6adb.click" /><animate attributeName="stroke-dashoffset" values="16.439;16.439;0" keyTimes="0;0.961;1" dur="4.202s" fill="freeze" begin="0s;6adb.click" /></path><path d="M48,78.4c5.75-0.5,11.25-1,16.38-1.38" stroke-dasharray="16.439" stroke-dashoffset="16.439"><animate attributeName="stroke-dashoffset" values="16.439" fill="freeze" begin="6adb.click" /><animate attributeName="stroke-dashoffset" values="16.439;16.439;0" keyTimes="0;0.962;1" dur="4.366s" fill="freeze" begin="0s;6adb.click" /></path><path d="M48,87.5c5.75-0.5,11.25-1,16.38-1.38" stroke-dasharray="16.439" stroke-dashoffset="16.439"><animate attributeName="stroke-dashoffset" values="16.439" fill="freeze" begin="6adb.click" /><animate attributeName="stroke-dashoffset" values="16.439;16.439;0" keyTimes="0;0.964;1" dur="4.53s" fill="freeze" begin="0s;6adb.click" /></path><path d="M75.11,40.07c1.02,0.43,3.03,0.82,4.63,0.52c2.33-0.43,6.97-1.44,10.89-2.33c2.89-0.65,4.43,0.88,4.37,2.74c-0.32,11.04-1.25,27.9-2.95,34.82c-2.05,8.31-4.42,1.81-5.1,0.46" stroke-dasharray="66.705" stroke-dashoffset="66.705"><animate attributeName="stroke-dashoffset" values="66.705" fill="freeze" begin="6adb.click" /><animate attributeName="stroke-dashoffset" values="66.705;66.705;0" keyTimes="0;0.9;1" dur="5.032s" fill="freeze" begin="0s;6adb.click" /></path><path d="M76.11,40.82c0.72,0.72,1.24,1.81,1.24,3.07c0,0.71-0.05,25.85-0.08,41.36c-0.01,5.41-0.02,9.64-0.02,11.25" stroke-dasharray="56.008" stroke-dashoffset="56.008"><animate attributeName="stroke-dashoffset" values="56.008" fill="freeze" begin="6adb.click" /><animate attributeName="stroke-dashoffset" values="56.008;56.008;0" keyTimes="0;0.9;1" dur="5.592s" fill="freeze" begin="0s;6adb.click" /></path></g></svg>