<svg xmlns="http://www.w3.org/2000/svg" width="109" height="109" viewBox="0 0 109 109" id="6b1f"><g fill="none" stroke="#666" stroke-width="9" stroke-linecap="round" stroke-linejoin="round"><g><g><path d="M10.28,37.72c0.35,0.24,2.38,0.32,3.31,0.31C18.5,38,25.7,37.82,32.04,36.62c0.92-0.17,2.15-0.24,2.73,0" /><path d="M24.36,14.5c0.91,0.47,2.04,2.75,2.04,4.42c0,0.95-0.12,70.75-0.3,76.58" /><path d="M25.94,41.28c-5.1,15.04-7.94,21.4-15.83,34.56" /><path d="M28.47,49.9c2.37,1.59,6.28,6.76,8.28,9.85" /></g><g><g><g><path d="M35.09,20.8c0.6,0.17,1.3,0.21,1.91,0.17c5.54-0.32,21.85-1.96,28.24-1.98c1,0,1.61,0.08,2.11,0.17" /><path d="M44.62,12.48c0.64,0.89,0.85,1.17,0.92,1.72c0.64,5.15,0.69,10.46,0.87,12.33" /><path d="M58.98,12.02c0.1,0.66,0.23,1.14,0.12,1.95c-0.66,4.73-0.96,6.6-1.68,11.05" /></g><g><g><path d="M38.95,33.65c0.17,0.2,0.35,0.36,0.42,0.61c0.59,1.96,1.31,10.35,1.71,13.86" /><path d="M40.02,34.98c3.5-1.02,7.77-1.73,9.78-1.99c0.73-0.09,1.17,0.56,1.07,1.11c-0.43,2.28-0.94,7.63-1.59,10.79" /><path d="M41.17,46.41c2.36-0.29,6.29-0.71,9.53-1.16" /></g><g><path d="M56.01,32.36c0.18,0.23,0.36,0.42,0.44,0.71c0.62,2.27,1.36,9.48,1.78,13.56" /><path d="M57.12,33.37c3.65-1.18,8.09-1.52,10.18-1.82c0.76-0.11,1.22,0.65,1.11,1.29c-0.45,2.65-0.98,7.95-1.66,11.62" /><path d="M58.32,45.69c2.45-0.34,5.84-0.92,9.21-1.44" /></g><g><g><path d="M45.84,52.48c0.11,0.98-0.03,2.25-0.37,3.07c-2.19,5.21-4.96,9.56-9.97,15.75" /><path d="M42.91,63.71c0.35,0.48,0.62,1.51,0.65,2.22c0.21,6.38-0.29,25.87-0.11,29.2" /></g><path d="M57.75,53.4c0.03,0.37-0.01,0.86-0.1,1.17c-0.58,2-1.31,3.53-2.63,5.94" /><path d="M43.45,62.66c4.1-0.39,20.5-1.29,22.26-1.53" /><path d="M54.34,63.55c0.2,0.25,0.36,0.58,0.36,0.98c0,4.13,0.02,18.93-0.1,25.43" /><path d="M44,71.34c3.87-0.3,19.58-1.04,21.24-1.23" /><path d="M43.87,81.13c4.08-0.21,19.66-1.55,21.42-1.69" /><path d="M43.53,90.83c4.1-0.39,20.78-1.17,22.55-1.4" /></g></g></g><g><g><path d="M73.73,17.09c0.31,1.02,0.77,1.79,0.77,3.15c0,1.37-0.1,43.34,0,44.71" /><path d="M74.86,17.96c1.58-0.17,12.04-1.31,13.48-1.51c1.2-0.17,2.14,0.95,2.04,2.21c-0.13,1.6-0.24,44.86-0.24,45.88" /><path d="M74.83,32.87c2.26,0,12.75-1.26,15.28-1.26" /><path d="M74.96,47.38c4.58-0.49,10.91-1.04,14.97-1.04" /><path d="M74.74,63.28c3.14,0,10.54-1.04,14.6-1.04" /></g><g><path d="M75.82,72.12c0.03,0.58,0.07,1.48-0.06,2.31C74.99,79.29,72,91,64.5,96.51" /><path d="M83.97,65.29c0.29,0.88,0.51,1.91,0.53,3.26c0.05,3.56-0.22,11.44-0.22,15.64c0,6.56-0.07,9.43,6.58,9.43c6.64,0,6.64-2.48,6.64-6.72" /></g></g></g></g></g><g fill="none" stroke="#000" stroke-width="5" stroke-linecap="round" stroke-linejoin="round"><g><g><path d="M10.28,37.72c0.35,0.24,2.38,0.32,3.31,0.31C18.5,38,25.7,37.82,32.04,36.62c0.92-0.17,2.15-0.24,2.73,0" stroke-dasharray="24.63" stroke-dashoffset="24.63"><animate id="0" attributeName="stroke-dashoffset" values="24.63;0" dur="0.25s" fill="freeze" begin="0s;6b1f.click" /></path><path d="M24.36,14.5c0.91,0.47,2.04,2.75,2.04,4.42c0,0.95-0.12,70.75-0.3,76.58" stroke-dasharray="81.6" stroke-dashoffset="81.6"><animate attributeName="stroke-dashoffset" values="81.6" fill="freeze" begin="6b1f.click" /><animate id="1" attributeName="stroke-dashoffset" values="81.6;0" dur="0.61s" fill="freeze" begin="0.end" /></path><path d="M25.94,41.28c-5.1,15.04-7.94,21.4-15.83,34.56" stroke-dasharray="38.11" stroke-dashoffset="38.11"><animate attributeName="stroke-dashoffset" values="38.11" fill="freeze" begin="6b1f.click" /><animate id="2" attributeName="stroke-dashoffset" values="38.11;0" dur="0.38s" fill="freeze" begin="1.end" /></path><path d="M28.47,49.9c2.37,1.59,6.28,6.76,8.28,9.85" stroke-dasharray="12.92" stroke-dashoffset="12.92"><animate attributeName="stroke-dashoffset" values="12.92" fill="freeze" begin="6b1f.click" /><animate id="3" attributeName="stroke-dashoffset" values="12.92;0" dur="0.13s" fill="freeze" begin="2.end" /></path></g><g><g><g><path d="M35.09,20.8c0.6,0.17,1.3,0.21,1.91,0.17c5.54-0.32,21.85-1.96,28.24-1.98c1,0,1.61,0.08,2.11,0.17" stroke-dasharray="32.36" stroke-dashoffset="32.36"><animate attributeName="stroke-dashoffset" values="32.36" fill="freeze" begin="6b1f.click" /><animate id="4" attributeName="stroke-dashoffset" values="32.36;0" dur="0.32s" fill="freeze" begin="3.end" /></path><path d="M44.62,12.48c0.64,0.89,0.85,1.17,0.92,1.72c0.64,5.15,0.69,10.46,0.87,12.33" stroke-dasharray="14.34" stroke-dashoffset="14.34"><animate attributeName="stroke-dashoffset" values="14.34" fill="freeze" begin="6b1f.click" /><animate id="5" attributeName="stroke-dashoffset" values="14.34;0" dur="0.14s" fill="freeze" begin="4.end" /></path><path d="M58.98,12.02c0.1,0.66,0.23,1.14,0.12,1.95c-0.66,4.73-0.96,6.6-1.68,11.05" stroke-dasharray="13.14" stroke-dashoffset="13.14"><animate attributeName="stroke-dashoffset" values="13.14" fill="freeze" begin="6b1f.click" /><animate id="6" attributeName="stroke-dashoffset" values="13.14;0" dur="0.13s" fill="freeze" begin="5.end" /></path></g><g><g><path d="M38.95,33.65c0.17,0.2,0.35,0.36,0.42,0.61c0.59,1.96,1.31,10.35,1.71,13.86" stroke-dasharray="14.72" stroke-dashoffset="14.72"><animate attributeName="stroke-dashoffset" values="14.72" fill="freeze" begin="6b1f.click" /><animate id="7" attributeName="stroke-dashoffset" values="14.72;0" dur="0.15s" fill="freeze" begin="6.end" /></path><path d="M40.02,34.98c3.5-1.02,7.77-1.73,9.78-1.99c0.73-0.09,1.17,0.56,1.07,1.11c-0.43,2.28-0.94,7.63-1.59,10.79" stroke-dasharray="22.69" stroke-dashoffset="22.69"><animate attributeName="stroke-dashoffset" values="22.69" fill="freeze" begin="6b1f.click" /><animate id="8" attributeName="stroke-dashoffset" values="22.69;0" dur="0.23s" fill="freeze" begin="7.end" /></path><path d="M41.17,46.41c2.36-0.29,6.29-0.71,9.53-1.16" stroke-dasharray="9.6" stroke-dashoffset="9.6"><animate attributeName="stroke-dashoffset" values="9.6" fill="freeze" begin="6b1f.click" /><animate id="9" attributeName="stroke-dashoffset" values="9.6;0" dur="0.1s" fill="freeze" begin="8.end" /></path></g><g><path d="M56.01,32.36c0.18,0.23,0.36,0.42,0.44,0.71c0.62,2.27,1.36,9.48,1.78,13.56" stroke-dasharray="14.53" stroke-dashoffset="14.53"><animate attributeName="stroke-dashoffset" values="14.53" fill="freeze" begin="6b1f.click" /><animate id="10" attributeName="stroke-dashoffset" values="14.53;0" dur="0.15s" fill="freeze" begin="9.end" /></path><path d="M57.12,33.37c3.65-1.18,8.09-1.52,10.18-1.82c0.76-0.11,1.22,0.65,1.11,1.29c-0.45,2.65-0.98,7.95-1.66,11.62" stroke-dasharray="24.08" stroke-dashoffset="24.08"><animate attributeName="stroke-dashoffset" values="24.08" fill="freeze" begin="6b1f.click" /><animate id="11" attributeName="stroke-dashoffset" values="24.08;0" dur="0.24s" fill="freeze" begin="10.end" /></path><path d="M58.32,45.69c2.45-0.34,5.84-0.92,9.21-1.44" stroke-dasharray="9.32" stroke-dashoffset="9.32"><animate attributeName="stroke-dashoffset" values="9.32" fill="freeze" begin="6b1f.click" /><animate id="12" attributeName="stroke-dashoffset" values="9.32;0" dur="0.09s" fill="freeze" begin="11.end" /></path></g><g><g><path d="M45.84,52.48c0.11,0.98-0.03,2.25-0.37,3.07c-2.19,5.21-4.96,9.56-9.97,15.75" stroke-dasharray="21.83" stroke-dashoffset="21.83"><animate attributeName="stroke-dashoffset" values="21.83" fill="freeze" begin="6b1f.click" /><animate id="13" attributeName="stroke-dashoffset" values="21.83;0" dur="0.22s" fill="freeze" begin="12.end" /></path><path d="M42.91,63.71c0.35,0.48,0.62,1.51,0.65,2.22c0.21,6.38-0.29,25.87-0.11,29.2" stroke-dasharray="31.54" stroke-dashoffset="31.54"><animate attributeName="stroke-dashoffset" values="31.54" fill="freeze" begin="6b1f.click" /><animate id="14" attributeName="stroke-dashoffset" values="31.54;0" dur="0.32s" fill="freeze" begin="13.end" /></path></g><path d="M57.75,53.4c0.03,0.37-0.01,0.86-0.1,1.17c-0.58,2-1.31,3.53-2.63,5.94" stroke-dasharray="7.69" stroke-dashoffset="7.69"><animate attributeName="stroke-dashoffset" values="7.69" fill="freeze" begin="6b1f.click" /><animate id="15" attributeName="stroke-dashoffset" values="7.69;0" dur="0.08s" fill="freeze" begin="14.end" /></path><path d="M43.45,62.66c4.1-0.39,20.5-1.29,22.26-1.53" stroke-dasharray="22.31" stroke-dashoffset="22.31"><animate attributeName="stroke-dashoffset" values="22.31" fill="freeze" begin="6b1f.click" /><animate id="16" attributeName="stroke-dashoffset" values="22.31;0" dur="0.22s" fill="freeze" begin="15.end" /></path><path d="M54.34,63.55c0.2,0.25,0.36,0.58,0.36,0.98c0,4.13,0.02,18.93-0.1,25.43" stroke-dasharray="26.5" stroke-dashoffset="26.5"><animate attributeName="stroke-dashoffset" values="26.5" fill="freeze" begin="6b1f.click" /><animate id="17" attributeName="stroke-dashoffset" values="26.5;0" dur="0.26s" fill="freeze" begin="16.end" /></path><path d="M44,71.34c3.87-0.3,19.58-1.04,21.24-1.23" stroke-dasharray="21.28" stroke-dashoffset="21.28"><animate attributeName="stroke-dashoffset" values="21.28" fill="freeze" begin="6b1f.click" /><animate id="18" attributeName="stroke-dashoffset" values="21.28;0" dur="0.21s" fill="freeze" begin="17.end" /></path><path d="M43.87,81.13c4.08-0.21,19.66-1.55,21.42-1.69" stroke-dasharray="21.49" stroke-dashoffset="21.49"><animate attributeName="stroke-dashoffset" values="21.49" fill="freeze" begin="6b1f.click" /><animate id="19" attributeName="stroke-dashoffset" values="21.49;0" dur="0.21s" fill="freeze" begin="18.end" /></path><path d="M43.53,90.83c4.1-0.39,20.78-1.17,22.55-1.4" stroke-dasharray="22.59" stroke-dashoffset="22.59"><animate attributeName="stroke-dashoffset" values="22.59" fill="freeze" begin="6b1f.click" /><animate id="20" attributeName="stroke-dashoffset" values="22.59;0" dur="0.23s" fill="freeze" begin="19.end" /></path></g></g></g><g><g><path d="M73.73,17.09c0.31,1.02,0.77,1.79,0.77,3.15c0,1.37-0.1,43.34,0,44.71" stroke-dasharray="47.97" stroke-dashoffset="47.97"><animate attributeName="stroke-dashoffset" values="47.97" fill="freeze" begin="6b1f.click" /><animate id="21" attributeName="stroke-dashoffset" values="47.97;0" dur="0.48s" fill="freeze" begin="20.end" /></path><path d="M74.86,17.96c1.58-0.17,12.04-1.31,13.48-1.51c1.2-0.17,2.14,0.95,2.04,2.21c-0.13,1.6-0.24,44.86-0.24,45.88" stroke-dasharray="62.9" stroke-dashoffset="62.9"><animate attributeName="stroke-dashoffset" values="62.9" fill="freeze" begin="6b1f.click" /><animate id="22" attributeName="stroke-dashoffset" values="62.9;0" dur="0.47s" fill="freeze" begin="21.end" /></path><path d="M74.83,32.87c2.26,0,12.75-1.26,15.28-1.26" stroke-dasharray="15.33" stroke-dashoffset="15.33"><animate attributeName="stroke-dashoffset" values="15.33" fill="freeze" begin="6b1f.click" /><animate id="23" attributeName="stroke-dashoffset" values="15.33;0" dur="0.15s" fill="freeze" begin="22.end" /></path><path d="M74.96,47.38c4.58-0.49,10.91-1.04,14.97-1.04" stroke-dasharray="15.01" stroke-dashoffset="15.01"><animate attributeName="stroke-dashoffset" values="15.01" fill="freeze" begin="6b1f.click" /><animate id="24" attributeName="stroke-dashoffset" values="15.01;0" dur="0.15s" fill="freeze" begin="23.end" /></path><path d="M74.74,63.28c3.14,0,10.54-1.04,14.6-1.04" stroke-dasharray="14.64" stroke-dashoffset="14.64"><animate attributeName="stroke-dashoffset" values="14.64" fill="freeze" begin="6b1f.click" /><animate id="25" attributeName="stroke-dashoffset" values="14.64;0" dur="0.15s" fill="freeze" begin="24.end" /></path></g><g><path d="M75.82,72.12c0.03,0.58,0.07,1.48-0.06,2.31C74.99,79.29,72,91,64.5,96.51" stroke-dasharray="27.66" stroke-dashoffset="27.66"><animate attributeName="stroke-dashoffset" values="27.66" fill="freeze" begin="6b1f.click" /><animate id="26" attributeName="stroke-dashoffset" values="27.66;0" dur="0.28s" fill="freeze" begin="25.end" /></path><path d="M83.97,65.29c0.29,0.88,0.51,1.91,0.53,3.26c0.05,3.56-0.22,11.44-0.22,15.64c0,6.56-0.07,9.43,6.58,9.43c6.64,0,6.64-2.48,6.64-6.72" stroke-dasharray="44.17" stroke-dashoffset="44.17"><animate attributeName="stroke-dashoffset" values="44.17" fill="freeze" begin="6b1f.click" /><animate id="27" attributeName="stroke-dashoffset" values="44.17;0" dur="0.44s" fill="freeze" begin="26.end" /></path></g></g></g></g></g></svg>