<svg xmlns="http://www.w3.org/2000/svg" width="109" height="109" viewBox="0 0 109 109" id="6b39"><g fill="none" stroke="#666" stroke-width="9" stroke-linecap="round" stroke-linejoin="round"><g><g><g><path d="M12.96,24.77c1.34,0.25,2.84,0.61,3.73,0.57c8.07-0.34,18.62-0.98,30.19-2.07c1.1-0.1,3.09-0.05,4.33-0.05" /><path d="M32.47,13c0.25,0.42,0.4,0.92,0.38,1.83C32.58,27.46,24.08,41.26,16.64,44" /><path d="M30.73,28.5c5.6,2,11.97,7.25,14.71,12.5" /></g><g><g p6:part="1" xmlns:p6="http://kanjivg.tagaini.net"><g><path d="M9,50.42c0.94,0.58,2.67,0.72,3.61,0.58c5.62-0.83,28.55-3.27,36.34-4.04c1.57-0.15,2.51,0.28,3.3,0.57" /></g></g><g><path d="M15.26,59.58c0.27,0.38,0.55,0.7,0.67,1.18c0.95,3.81,2.09,11.67,2.74,18.51" /><path d="M16.97,60.86c6.53-1.11,12.87-2.22,16.08-2.72c1.17-0.19,1.88,1.08,1.71,2.16c-0.7,4.45-1.45,8.17-2.48,14.33" /><path d="M18.8,77.09C24,76.5,27.25,76,34.45,75.67" /></g><g p6:part="2" xmlns:p6="http://kanjivg.tagaini.net"><g><path d="M42.37,49.47c0.06,0.53,1.09,2.75,1.15,6.1c0.26,16.08-0.17,29.27-0.17,34.75c0,9.39-6.02,1.16-7-0.22" /></g></g></g></g><g><g><path d="M67.75,14.5c0.04,0.86,0.08,2.22-0.08,3.45C66.72,25.24,61.8,41.22,54.39,51" /><path d="M63.22,36.99c0.91,0.36,2.62,0.87,4.01,0.61C70.5,37,86.42,33.45,88,33.25c8-1,0.5,8.5-2.5,12.5" /></g><g><path d="M70.11,45.5c0.06,1.18,0.13,3.03-0.11,4.73C67.69,66.7,63.23,83.72,50.5,95.5" /><path d="M68.92,59c3.45,8.03,15.92,26.93,21.59,33.57c1.2,1.4,2.1,2.23,3.24,2.68" /></g></g></g></g><g fill="none" stroke="#000" stroke-width="5" stroke-linecap="round" stroke-linejoin="round"><g><g><g><path d="M12.96,24.77c1.34,0.25,2.84,0.61,3.73,0.57c8.07-0.34,18.62-0.98,30.19-2.07c1.1-0.1,3.09-0.05,4.33-0.05" stroke-dasharray="38.38" stroke-dashoffset="38.38"><animate id="0" attributeName="stroke-dashoffset" values="38.38;0" dur="0.38s" fill="freeze" begin="0s;6b39.click" /></path><path d="M32.47,13c0.25,0.42,0.4,0.92,0.38,1.83C32.58,27.46,24.08,41.26,16.64,44" stroke-dasharray="36.76" stroke-dashoffset="36.76"><animate attributeName="stroke-dashoffset" values="36.76" fill="freeze" begin="6b39.click" /><animate id="1" attributeName="stroke-dashoffset" values="36.76;0" dur="0.37s" fill="freeze" begin="0.end" /></path><path d="M30.73,28.5c5.6,2,11.97,7.25,14.71,12.5" stroke-dasharray="19.68" stroke-dashoffset="19.68"><animate attributeName="stroke-dashoffset" values="19.68" fill="freeze" begin="6b39.click" /><animate id="2" attributeName="stroke-dashoffset" values="19.68;0" dur="0.2s" fill="freeze" begin="1.end" /></path></g><g><g p6:part="1" xmlns:p6="http://kanjivg.tagaini.net"><g><path d="M9,50.42c0.94,0.58,2.67,0.72,3.61,0.58c5.62-0.83,28.55-3.27,36.34-4.04c1.57-0.15,2.51,0.28,3.3,0.57" stroke-dasharray="43.66" stroke-dashoffset="43.66"><animate attributeName="stroke-dashoffset" values="43.66" fill="freeze" begin="6b39.click" /><animate id="3" attributeName="stroke-dashoffset" values="43.66;0" dur="0.44s" fill="freeze" begin="2.end" /></path></g></g><g><path d="M15.26,59.58c0.27,0.38,0.55,0.7,0.67,1.18c0.95,3.81,2.09,11.67,2.74,18.51" stroke-dasharray="20.09" stroke-dashoffset="20.09"><animate attributeName="stroke-dashoffset" values="20.09" fill="freeze" begin="6b39.click" /><animate id="4" attributeName="stroke-dashoffset" values="20.09;0" dur="0.2s" fill="freeze" begin="3.end" /></path><path d="M16.97,60.86c6.53-1.11,12.87-2.22,16.08-2.72c1.17-0.19,1.88,1.08,1.71,2.16c-0.7,4.45-1.45,8.17-2.48,14.33" stroke-dasharray="34.06" stroke-dashoffset="34.06"><animate attributeName="stroke-dashoffset" values="34.06" fill="freeze" begin="6b39.click" /><animate id="5" attributeName="stroke-dashoffset" values="34.06;0" dur="0.34s" fill="freeze" begin="4.end" /></path><path d="M18.8,77.09C24,76.5,27.25,76,34.45,75.67" stroke-dasharray="15.72" stroke-dashoffset="15.72"><animate attributeName="stroke-dashoffset" values="15.72" fill="freeze" begin="6b39.click" /><animate id="6" attributeName="stroke-dashoffset" values="15.72;0" dur="0.16s" fill="freeze" begin="5.end" /></path></g><g p6:part="2" xmlns:p6="http://kanjivg.tagaini.net"><g><path d="M42.37,49.47c0.06,0.53,1.09,2.75,1.15,6.1c0.26,16.08-0.17,29.27-0.17,34.75c0,9.39-6.02,1.16-7-0.22" stroke-dasharray="53.38" stroke-dashoffset="53.38"><animate attributeName="stroke-dashoffset" values="53.38" fill="freeze" begin="6b39.click" /><animate id="7" attributeName="stroke-dashoffset" values="53.38;0" dur="0.53s" fill="freeze" begin="6.end" /></path></g></g></g></g><g><g><path d="M67.75,14.5c0.04,0.86,0.08,2.22-0.08,3.45C66.72,25.24,61.8,41.22,54.39,51" stroke-dasharray="39.37" stroke-dashoffset="39.37"><animate attributeName="stroke-dashoffset" values="39.37" fill="freeze" begin="6b39.click" /><animate id="8" attributeName="stroke-dashoffset" values="39.37;0" dur="0.39s" fill="freeze" begin="7.end" /></path><path d="M63.22,36.99c0.91,0.36,2.62,0.87,4.01,0.61C70.5,37,86.42,33.45,88,33.25c8-1,0.5,8.5-2.5,12.5" stroke-dasharray="42.41" stroke-dashoffset="42.41"><animate attributeName="stroke-dashoffset" values="42.41" fill="freeze" begin="6b39.click" /><animate id="9" attributeName="stroke-dashoffset" values="42.41;0" dur="0.42s" fill="freeze" begin="8.end" /></path></g><g><path d="M70.11,45.5c0.06,1.18,0.13,3.03-0.11,4.73C67.69,66.7,63.23,83.72,50.5,95.5" stroke-dasharray="55.05" stroke-dashoffset="55.05"><animate attributeName="stroke-dashoffset" values="55.05" fill="freeze" begin="6b39.click" /><animate id="10" attributeName="stroke-dashoffset" values="55.05;0" dur="0.55s" fill="freeze" begin="9.end" /></path><path d="M68.92,59c3.45,8.03,15.92,26.93,21.59,33.57c1.2,1.4,2.1,2.23,3.24,2.68" stroke-dasharray="44.24" stroke-dashoffset="44.24"><animate attributeName="stroke-dashoffset" values="44.24" fill="freeze" begin="6b39.click" /><animate id="11" attributeName="stroke-dashoffset" values="44.24;0" dur="0.44s" fill="freeze" begin="10.end" /></path></g></g></g></g></svg>