<svg xmlns="http://www.w3.org/2000/svg" width="109" height="109" viewBox="0 0 109 109" id="6b47"><g fill="none" stroke="#666" stroke-width="9" stroke-linecap="round" stroke-linejoin="round"><g><g><g><path d="M16.87,15.32c0.27,0.45,0.27,0.76,0.42,1.32c1.2,4.63,2.5,16.74,3.24,25.38" /><path d="M17.73,17.27c8.23-0.99,22.54-2.39,30.16-3.04c2.27-0.19,3.22,1.75,3.1,2.83c-0.42,3.96-2.64,16.95-3.67,23.57" /><path d="M19.45,28.24c4.72-0.35,27.52-2.37,29.91-2.47" /><path d="M20.59,39.3c8.4-0.45,18.65-1.38,27.08-1.58" /></g><g><g><g><path d="M25.89,42.48c0.05,0.57,0.23,1.5-0.1,2.27C23.35,50.56,17.8,59.07,8.5,66.5" /></g><path d="M22.08,52.65c0.73,0.5,1.76,0.67,2.93,0.33c1.17-0.33,20.34-1.09,23.26-1.49c1.81-0.25,3.08,1.32,2.77,4.84c-1.07,12.16-2.11,24.89-6.79,36.26c-1.81,4.4-3.4,4.15-5.32-0.83" /></g><g><path d="M31.71,58.12c0.26,0.3-0.04,1.86-0.22,2.44C29.67,66.28,27.87,71.11,21.37,78" /><path d="M29.75,66.54c3.42,1.5,7.78,5.48,9.44,9.25" /></g><path d="M16.31,63.51c0.65,0.46,1.04,2.07,1.17,2.99c0.12,0.83-0.96,6.72-0.96,14.87c0,1.88,0.56,2.76,2.31,2.36C24.25,82.5,29,82,37.03,81.87c1.59-0.03,2.85,0.38,3.63,0.38" /></g></g><g><g><path d="M69.75,14c0.04,0.78,0.08,2.01-0.08,3.12C68.72,23.71,63.3,38.16,55.89,47" /><path d="M67.72,32.93c0.79,0.25,2.29,0.66,3.49,0.43c1.45-0.27,18.33-3.49,19.71-3.63C97.87,29.02,91,37,88.31,39.5" /></g><g><path d="M71.11,41c0.05,1.26,0.05,3.22-0.11,5.04C69.5,63.25,66.5,82,51.75,94.25" /><path d="M70.67,57c3.59,8.14,16.56,27.3,22.46,34.03c1.25,1.42,2.19,2.26,3.37,2.72" /></g></g></g></g><g fill="none" stroke="#000" stroke-width="5" stroke-linecap="round" stroke-linejoin="round"><g><g><g><path d="M16.87,15.32c0.27,0.45,0.27,0.76,0.42,1.32c1.2,4.63,2.5,16.74,3.24,25.38" stroke-dasharray="27" stroke-dashoffset="27"><animate id="0" attributeName="stroke-dashoffset" values="27;0" dur="0.27s" fill="freeze" begin="0s;6b47.click" /></path><path d="M17.73,17.27c8.23-0.99,22.54-2.39,30.16-3.04c2.27-0.19,3.22,1.75,3.1,2.83c-0.42,3.96-2.64,16.95-3.67,23.57" stroke-dasharray="58.95" stroke-dashoffset="58.95"><animate attributeName="stroke-dashoffset" values="58.95" fill="freeze" begin="6b47.click" /><animate id="1" attributeName="stroke-dashoffset" values="58.95;0" dur="0.59s" fill="freeze" begin="0.end" /></path><path d="M19.45,28.24c4.72-0.35,27.52-2.37,29.91-2.47" stroke-dasharray="30.01" stroke-dashoffset="30.01"><animate attributeName="stroke-dashoffset" values="30.01" fill="freeze" begin="6b47.click" /><animate id="2" attributeName="stroke-dashoffset" values="30.01;0" dur="0.3s" fill="freeze" begin="1.end" /></path><path d="M20.59,39.3c8.4-0.45,18.65-1.38,27.08-1.58" stroke-dasharray="27.13" stroke-dashoffset="27.13"><animate attributeName="stroke-dashoffset" values="27.13" fill="freeze" begin="6b47.click" /><animate id="3" attributeName="stroke-dashoffset" values="27.13;0" dur="0.27s" fill="freeze" begin="2.end" /></path></g><g><g><g><path d="M25.89,42.48c0.05,0.57,0.23,1.5-0.1,2.27C23.35,50.56,17.8,59.07,8.5,66.5" stroke-dasharray="30.35" stroke-dashoffset="30.35"><animate attributeName="stroke-dashoffset" values="30.35" fill="freeze" begin="6b47.click" /><animate id="4" attributeName="stroke-dashoffset" values="30.35;0" dur="0.3s" fill="freeze" begin="3.end" /></path></g><path d="M22.08,52.65c0.73,0.5,1.76,0.67,2.93,0.33c1.17-0.33,20.34-1.09,23.26-1.49c1.81-0.25,3.08,1.32,2.77,4.84c-1.07,12.16-2.11,24.89-6.79,36.26c-1.81,4.4-3.4,4.15-5.32-0.83" stroke-dasharray="79.12" stroke-dashoffset="79.12"><animate attributeName="stroke-dashoffset" values="79.12" fill="freeze" begin="6b47.click" /><animate id="5" attributeName="stroke-dashoffset" values="79.12;0" dur="0.59s" fill="freeze" begin="4.end" /></path></g><g><path d="M31.71,58.12c0.26,0.3-0.04,1.86-0.22,2.44C29.67,66.28,27.87,71.11,21.37,78" stroke-dasharray="22.87" stroke-dashoffset="22.87"><animate attributeName="stroke-dashoffset" values="22.87" fill="freeze" begin="6b47.click" /><animate id="6" attributeName="stroke-dashoffset" values="22.87;0" dur="0.23s" fill="freeze" begin="5.end" /></path><path d="M29.75,66.54c3.42,1.5,7.78,5.48,9.44,9.25" stroke-dasharray="13.46" stroke-dashoffset="13.46"><animate attributeName="stroke-dashoffset" values="13.46" fill="freeze" begin="6b47.click" /><animate id="7" attributeName="stroke-dashoffset" values="13.46;0" dur="0.13s" fill="freeze" begin="6.end" /></path></g><path d="M16.31,63.51c0.65,0.46,1.04,2.07,1.17,2.99c0.12,0.83-0.96,6.72-0.96,14.87c0,1.88,0.56,2.76,2.31,2.36C24.25,82.5,29,82,37.03,81.87c1.59-0.03,2.85,0.38,3.63,0.38" stroke-dasharray="44.24" stroke-dashoffset="44.24"><animate attributeName="stroke-dashoffset" values="44.24" fill="freeze" begin="6b47.click" /><animate id="8" attributeName="stroke-dashoffset" values="44.24;0" dur="0.44s" fill="freeze" begin="7.end" /></path></g></g><g><g><path d="M69.75,14c0.04,0.78,0.08,2.01-0.08,3.12C68.72,23.71,63.3,38.16,55.89,47" stroke-dasharray="36.34" stroke-dashoffset="36.34"><animate attributeName="stroke-dashoffset" values="36.34" fill="freeze" begin="6b47.click" /><animate id="9" attributeName="stroke-dashoffset" values="36.34;0" dur="0.36s" fill="freeze" begin="8.end" /></path><path d="M67.72,32.93c0.79,0.25,2.29,0.66,3.49,0.43c1.45-0.27,18.33-3.49,19.71-3.63C97.87,29.02,91,37,88.31,39.5" stroke-dasharray="37.64" stroke-dashoffset="37.64"><animate attributeName="stroke-dashoffset" values="37.64" fill="freeze" begin="6b47.click" /><animate id="10" attributeName="stroke-dashoffset" values="37.64;0" dur="0.38s" fill="freeze" begin="9.end" /></path></g><g><path d="M71.11,41c0.05,1.26,0.05,3.22-0.11,5.04C69.5,63.25,66.5,82,51.75,94.25" stroke-dasharray="58.45" stroke-dashoffset="58.45"><animate attributeName="stroke-dashoffset" values="58.45" fill="freeze" begin="6b47.click" /><animate id="11" attributeName="stroke-dashoffset" values="58.45;0" dur="0.58s" fill="freeze" begin="10.end" /></path><path d="M70.67,57c3.59,8.14,16.56,27.3,22.46,34.03c1.25,1.42,2.19,2.26,3.37,2.72" stroke-dasharray="45.23" stroke-dashoffset="45.23"><animate attributeName="stroke-dashoffset" values="45.23" fill="freeze" begin="6b47.click" /><animate id="12" attributeName="stroke-dashoffset" values="45.23;0" dur="0.45s" fill="freeze" begin="11.end" /></path></g></g></g></g></svg>