<svg xmlns="http://www.w3.org/2000/svg" viewBox="0 0 109 109" id="6b4e"><g fill="none" stroke="#666" stroke-width="6" stroke-linecap="round" stroke-linejoin="round"><g><g><g><path d="M10.48,26.55c0.9,0.38,1.94,0.36,2.84,0.38c6.93,0.08,26.22-3.27,35.65-3.3c1.49-0.01,2.39,0.18,3.14,0.37" /><path d="M21.15,17.57c1.06,1.13,1.4,1.47,1.51,2.16c1.06,6.49,1.57,11.89,1.88,14.25" /><path d="M40.54,15.06c0.29,0.84,0.6,1.44,0.35,2.5c-0.91,3.78-2.14,11.89-3.14,15.93" /></g><path d="M24.57,33.92c3.43-0.17,9.68-1.17,13.15-1.3" /><g><path d="M14.81,42.36c0.26,0.27,0.53,0.5,0.64,0.84c0.9,2.69,2.48,7.62,3.1,12.45" /><path d="M15.68,43.3c7.78-1.49,26.09-3.57,30.54-3.95c1.63-0.14,2.61,0.81,2.37,1.62c-0.97,3.34-2.09,5.88-3.53,10.5" /><path d="M18.72,55.14c5.23-0.43,20.78-2.59,27.97-3.24" /></g><g><path d="M15.43,64.16c0.65,0.27,1.82,0.26,2.47,0.27C22,64.5,37,62.25,43.44,61.68c1.07-0.09,1.72,0.13,2.26,0.26" /><g><path d="M11.18,74.78c0.87,0.36,3.13,0.6,4,0.53c7.32-0.56,23.57-3.31,31.97-4.25c1.44-0.16,2.31,0.17,3.03,0.35" /><path d="M31.04,33.64c0.37,0.86,0.47,1.66,0.51,3.33C32.5,81.25,29,88.75,10.74,96.94" /><path d="M30.18,77.92c6.31,2.88,12.3,7.89,14.92,13.01" /></g></g></g><g><g><path d="M66.75,16c0.04,0.78,0.08,2.02-0.08,3.15c-0.93,6.63-6.25,21.19-13.54,30.1" /><path d="M60.72,39.49c0.91,0.36,2.64,0.93,4.01,0.61c1.67-0.39,19.68-5.65,21.26-5.85c8-1-1.33,9.09-3,11" /></g><g><path d="M67.11,48.5c0.06,1.13,0.63,2.89,0.39,4.52c-2.34,15.73-4.75,31.73-20.25,43.23" /><path d="M66.92,58.5c4.08,7.75,18.8,26,25.5,32.41c1.41,1.35,2.48,2.16,3.82,2.59" /></g></g></g></g><g fill="none" stroke="#000" stroke-width="3" stroke-linecap="round" stroke-linejoin="round"><path d="M10.48,26.55c0.9,0.38,1.94,0.36,2.84,0.38c6.93,0.08,26.22-3.27,35.65-3.3c1.49-0.01,2.39,0.18,3.14,0.37" stroke-dasharray="41.876" stroke-dashoffset="41.876"><animate attributeName="stroke-dashoffset" values="41.876;41.876;0" dur="0.419s" fill="freeze" begin="0s;6b4e.click" /></path><path d="M21.15,17.57c1.06,1.13,1.4,1.47,1.51,2.16c1.06,6.49,1.57,11.89,1.88,14.25" stroke-dasharray="17.055" stroke-dashoffset="17.055"><animate attributeName="stroke-dashoffset" values="17.055" fill="freeze" begin="6b4e.click" /><animate attributeName="stroke-dashoffset" values="17.055;17.055;0" keyTimes="0;0.71;1" dur="0.59s" fill="freeze" begin="0s;6b4e.click" /></path><path d="M40.54,15.06c0.29,0.84,0.6,1.44,0.35,2.5c-0.91,3.78-2.14,11.89-3.14,15.93" stroke-dasharray="18.812" stroke-dashoffset="18.812"><animate attributeName="stroke-dashoffset" values="18.812" fill="freeze" begin="6b4e.click" /><animate attributeName="stroke-dashoffset" values="18.812;18.812;0" keyTimes="0;0.758;1" dur="0.778s" fill="freeze" begin="0s;6b4e.click" /></path><path d="M24.57,33.92c3.43-0.17,9.68-1.17,13.15-1.3" stroke-dasharray="13.218" stroke-dashoffset="13.218"><animate attributeName="stroke-dashoffset" values="13.218" fill="freeze" begin="6b4e.click" /><animate attributeName="stroke-dashoffset" values="13.218;13.218;0" keyTimes="0;0.747;1" dur="1.042s" fill="freeze" begin="0s;6b4e.click" /></path><path d="M14.81,42.36c0.26,0.27,0.53,0.5,0.64,0.84c0.9,2.69,2.48,7.62,3.1,12.45" stroke-dasharray="13.918" stroke-dashoffset="13.918"><animate attributeName="stroke-dashoffset" values="13.918" fill="freeze" begin="6b4e.click" /><animate attributeName="stroke-dashoffset" values="13.918;13.918;0" keyTimes="0;0.789;1" dur="1.32s" fill="freeze" begin="0s;6b4e.click" /></path><path d="M15.68,43.3c7.78-1.49,26.09-3.57,30.54-3.95c1.63-0.14,2.61,0.81,2.37,1.62c-0.97,3.34-2.09,5.88-3.53,10.5" stroke-dasharray="45.209" stroke-dashoffset="45.209"><animate attributeName="stroke-dashoffset" values="45.209" fill="freeze" begin="6b4e.click" /><animate attributeName="stroke-dashoffset" values="45.209;45.209;0" keyTimes="0;0.745;1" dur="1.772s" fill="freeze" begin="0s;6b4e.click" /></path><path d="M18.72,55.14c5.23-0.43,20.78-2.59,27.97-3.24" stroke-dasharray="28.159" stroke-dashoffset="28.159"><animate attributeName="stroke-dashoffset" values="28.159" fill="freeze" begin="6b4e.click" /><animate attributeName="stroke-dashoffset" values="28.159;28.159;0" keyTimes="0;0.863;1" dur="2.054s" fill="freeze" begin="0s;6b4e.click" /></path><path d="M15.43,64.16c0.65,0.27,1.82,0.26,2.47,0.27C22,64.5,37,62.25,43.44,61.68c1.07-0.09,1.72,0.13,2.26,0.26" stroke-dasharray="30.482" stroke-dashoffset="30.482"><animate attributeName="stroke-dashoffset" values="30.482" fill="freeze" begin="6b4e.click" /><animate attributeName="stroke-dashoffset" values="30.482;30.482;0" keyTimes="0;0.871;1" dur="2.359s" fill="freeze" begin="0s;6b4e.click" /></path><path d="M11.18,74.78c0.87,0.36,3.13,0.6,4,0.53c7.32-0.56,23.57-3.31,31.97-4.25c1.44-0.16,2.31,0.17,3.03,0.35" stroke-dasharray="39.384" stroke-dashoffset="39.384"><animate attributeName="stroke-dashoffset" values="39.384" fill="freeze" begin="6b4e.click" /><animate attributeName="stroke-dashoffset" values="39.384;39.384;0" keyTimes="0;0.857;1" dur="2.753s" fill="freeze" begin="0s;6b4e.click" /></path><path d="M31.04,33.64c0.37,0.86,0.47,1.66,0.51,3.33C32.5,81.25,29,88.75,10.74,96.94" stroke-dasharray="72.127" stroke-dashoffset="72.127"><animate attributeName="stroke-dashoffset" values="72.127" fill="freeze" begin="6b4e.click" /><animate attributeName="stroke-dashoffset" values="72.127;72.127;0" keyTimes="0;0.836;1" dur="3.295s" fill="freeze" begin="0s;6b4e.click" /></path><path d="M30.18,77.92c6.31,2.88,12.3,7.89,14.92,13.01" stroke-dasharray="20.128" stroke-dashoffset="20.128"><animate attributeName="stroke-dashoffset" values="20.128" fill="freeze" begin="6b4e.click" /><animate attributeName="stroke-dashoffset" values="20.128;20.128;0" keyTimes="0;0.943;1" dur="3.496s" fill="freeze" begin="0s;6b4e.click" /></path><path d="M66.75,16c0.04,0.78,0.08,2.02-0.08,3.15c-0.93,6.63-6.25,21.19-13.54,30.1" stroke-dasharray="36.459" stroke-dashoffset="36.459"><animate attributeName="stroke-dashoffset" values="36.459" fill="freeze" begin="6b4e.click" /><animate attributeName="stroke-dashoffset" values="36.459;36.459;0" keyTimes="0;0.905;1" dur="3.861s" fill="freeze" begin="0s;6b4e.click" /></path><path d="M60.72,39.49c0.91,0.36,2.64,0.93,4.01,0.61c1.67-0.39,19.68-5.65,21.26-5.85c8-1-1.33,9.09-3,11" stroke-dasharray="41.742" stroke-dashoffset="41.742"><animate attributeName="stroke-dashoffset" values="41.742" fill="freeze" begin="6b4e.click" /><animate attributeName="stroke-dashoffset" values="41.742;41.742;0" keyTimes="0;0.903;1" dur="4.278s" fill="freeze" begin="0s;6b4e.click" /></path><path d="M67.11,48.5c0.06,1.13,0.63,2.89,0.39,4.52c-2.34,15.73-4.75,31.73-20.25,43.23" stroke-dasharray="53.797" stroke-dashoffset="53.797"><animate attributeName="stroke-dashoffset" values="53.797" fill="freeze" begin="6b4e.click" /><animate attributeName="stroke-dashoffset" values="53.797;53.797;0" keyTimes="0;0.888;1" dur="4.816s" fill="freeze" begin="0s;6b4e.click" /></path><path d="M66.92,58.5c4.08,7.75,18.8,26,25.5,32.41c1.41,1.35,2.48,2.16,3.82,2.59" stroke-dasharray="45.989" stroke-dashoffset="45.989"><animate attributeName="stroke-dashoffset" values="45.989" fill="freeze" begin="6b4e.click" /><animate attributeName="stroke-dashoffset" values="45.989;45.989;0" keyTimes="0;0.913;1" dur="5.276s" fill="freeze" begin="0s;6b4e.click" /></path></g></svg>