<svg xmlns="http://www.w3.org/2000/svg" viewBox="0 0 109 109" id="6b54"><g fill="none" stroke="#666" stroke-width="6" stroke-linecap="round" stroke-linejoin="round"><g><g><g><path d="M33.05,12.33c0.7,0.8,1.25,1.74,1.25,4.4c0,5.17-0.01,8.18-0.01,12.52" /><path d="M34.77,21.27c4.73-0.82,11.01-1.79,15.39-2.38c1.48-0.2,2.39,0.18,3.14,0.37" /><path d="M18.58,27.68c0.42,0.58,0.58,2.75,0.46,4.82C17.76,54.22,17.5,75,8,91.75" /><path d="M19.09,30.74c1.16,0.01,2.53-0.14,3.75-0.22C30.5,30,44.37,27.5,51.61,27.34c7.64-0.17,1.62,5.16-0.28,7.28" /><g><g><path d="M24.69,42.69c0.5,0.37,1.73,0.45,2.24,0.37c5.2-0.81,15.55-1.57,20.99-2.47c0.84-0.14,1.34,0.18,1.76,0.36" /></g><path d="M35.17,35.68c0.29,0.38,0.68,1.86,0.68,2.39c0,4.19-0.05,6-0.05,7.87c0,5.56,2.59,5.56,6.77,5.56c1.56,0,7.64,0,8.98-0.75" /></g></g><g><g><path d="M22.64,64.49c0.47,0.4,0.8,1.37,0.84,2.7c0.07,2.4-0.13,6.24-0.43,11.05c-0.06,0.94,0.39,1.58,1.37,1.2c3.16-1.2,7.39-1.6,8.69-1.7" /><g><path d="M32.47,58.83c0.59,0.86,1,1.87,1.05,4.73c0.24,13.72-0.15,22.73-0.15,27.4" /></g></g><g><g><path d="M51.73,60.33c0.47,0.4,0.84,1.87,0.84,3.2c0,3.67-0.62,7-0.62,11.93" /></g><path d="M  42.974479,75.678073 c 2.792347,-0.249946 5.288373,-0.477533 8.614948,-0.811823" /><path d="M40.34,57.58c0.58,0.85,0.98,1.85,1.03,4.66c0.24,13.52-0.15,21.37-0.15,25.97" /></g></g><g><path d="M19.42,94.11c0.75,1.01,2.04,1.29,2.88,1.01c6.2-2.12,23.95-8.37,31.88-11.07" /></g></g><g><g><path d="M69.5,15c0.03,0.86,0.06,2.22-0.06,3.45c-0.76,7.28-5.11,23.26-11.06,33.05" /><path d="M66.72,37.51c0.78,0.33,2.27,0.85,3.45,0.56c1.44-0.35,17.66-4.64,19.02-4.82c6.88-0.91-1.64,9.77-3.08,11.51" /></g><g><path d="M71.1,46c0.65,1,0.53,3.01,0.37,4.73C70,67.5,66.25,83.75,49.75,96.5" /><path d="M70.42,59.5c3.42,8.08,15.76,27.11,21.37,33.8c1.18,1.41,2.08,2.25,3.2,2.7" /></g></g></g></g><g fill="none" stroke="#000" stroke-width="3" stroke-linecap="round" stroke-linejoin="round"><path d="M33.05,12.33c0.7,0.8,1.25,1.74,1.25,4.4c0,5.17-0.01,8.18-0.01,12.52" stroke-dasharray="17.211" stroke-dashoffset="17.211"><animate attributeName="stroke-dashoffset" values="17.211;17.211;0" dur="0.172s" fill="freeze" begin="0s;6b54.click" /></path><path d="M34.77,21.27c4.73-0.82,11.01-1.79,15.39-2.38c1.48-0.2,2.39,0.18,3.14,0.37" stroke-dasharray="18.765" stroke-dashoffset="18.765"><animate attributeName="stroke-dashoffset" values="18.765" fill="freeze" begin="6b54.click" /><animate attributeName="stroke-dashoffset" values="18.765;18.765;0" keyTimes="0;0.478;1" dur="0.36s" fill="freeze" begin="0s;6b54.click" /></path><path d="M18.58,27.68c0.42,0.58,0.58,2.75,0.46,4.82C17.76,54.22,17.5,75,8,91.75" stroke-dasharray="65.721" stroke-dashoffset="65.721"><animate attributeName="stroke-dashoffset" values="65.721" fill="freeze" begin="6b54.click" /><animate attributeName="stroke-dashoffset" values="65.721;65.721;0" keyTimes="0;0.422;1" dur="0.854s" fill="freeze" begin="0s;6b54.click" /></path><path d="M19.09,30.74c1.16,0.01,2.53-0.14,3.75-0.22C30.5,30,44.37,27.5,51.61,27.34c7.64-0.17,1.62,5.16-0.28,7.28" stroke-dasharray="44.338" stroke-dashoffset="44.338"><animate attributeName="stroke-dashoffset" values="44.338" fill="freeze" begin="6b54.click" /><animate attributeName="stroke-dashoffset" values="44.338;44.338;0" keyTimes="0;0.658;1" dur="1.297s" fill="freeze" begin="0s;6b54.click" /></path><path d="M24.69,42.69c0.5,0.37,1.73,0.45,2.24,0.37c5.2-0.81,15.55-1.57,20.99-2.47c0.84-0.14,1.34,0.18,1.76,0.36" stroke-dasharray="25.279" stroke-dashoffset="25.279"><animate attributeName="stroke-dashoffset" values="25.279" fill="freeze" begin="6b54.click" /><animate attributeName="stroke-dashoffset" values="25.279;25.279;0" keyTimes="0;0.837;1" dur="1.55s" fill="freeze" begin="0s;6b54.click" /></path><path d="M35.17,35.68c0.29,0.38,0.68,1.86,0.68,2.39c0,4.19-0.05,6-0.05,7.87c0,5.56,2.59,5.56,6.77,5.56c1.56,0,7.64,0,8.98-0.75" stroke-dasharray="29.925" stroke-dashoffset="29.925"><animate attributeName="stroke-dashoffset" values="29.925" fill="freeze" begin="6b54.click" /><animate attributeName="stroke-dashoffset" values="29.925;29.925;0" keyTimes="0;0.838;1" dur="1.849s" fill="freeze" begin="0s;6b54.click" /></path><path d="M22.64,64.49c0.47,0.4,0.8,1.37,0.84,2.7c0.07,2.4-0.13,6.24-0.43,11.05c-0.06,0.94,0.39,1.58,1.37,1.2c3.16-1.2,7.39-1.6,8.69-1.7" stroke-dasharray="25.153" stroke-dashoffset="25.153"><animate attributeName="stroke-dashoffset" values="25.153" fill="freeze" begin="6b54.click" /><animate attributeName="stroke-dashoffset" values="25.153;25.153;0" keyTimes="0;0.88;1" dur="2.101s" fill="freeze" begin="0s;6b54.click" /></path><path d="M32.47,58.83c0.59,0.86,1,1.87,1.05,4.73c0.24,13.72-0.15,22.73-0.15,27.4" stroke-dasharray="32.323" stroke-dashoffset="32.323"><animate attributeName="stroke-dashoffset" values="32.323" fill="freeze" begin="6b54.click" /><animate attributeName="stroke-dashoffset" values="32.323;32.323;0" keyTimes="0;0.867;1" dur="2.424s" fill="freeze" begin="0s;6b54.click" /></path><path d="M51.73,60.33c0.47,0.4,0.84,1.87,0.84,3.2c0,3.67-0.62,7-0.62,11.93" stroke-dasharray="15.323" stroke-dashoffset="15.323"><animate attributeName="stroke-dashoffset" values="15.323" fill="freeze" begin="6b54.click" /><animate attributeName="stroke-dashoffset" values="15.323;15.323;0" keyTimes="0;0.941;1" dur="2.577s" fill="freeze" begin="0s;6b54.click" /></path><path d="M  42.974479,75.678073 c 2.792347,-0.249946 5.288373,-0.477533 8.614948,-0.811823" stroke-dasharray="8.654" stroke-dashoffset="8.654"><animate attributeName="stroke-dashoffset" values="8.654" fill="freeze" begin="6b54.click" /><animate attributeName="stroke-dashoffset" values="8.654;8.654;0" keyTimes="0;0.967;1" dur="2.664s" fill="freeze" begin="0s;6b54.click" /></path><path d="M40.34,57.58c0.58,0.85,0.98,1.85,1.03,4.66c0.24,13.52-0.15,21.37-0.15,25.97" stroke-dasharray="30.818" stroke-dashoffset="30.818"><animate attributeName="stroke-dashoffset" values="30.818" fill="freeze" begin="6b54.click" /><animate attributeName="stroke-dashoffset" values="30.818;30.818;0" keyTimes="0;0.896;1" dur="2.972s" fill="freeze" begin="0s;6b54.click" /></path><path d="M19.42,94.11c0.75,1.01,2.04,1.29,2.88,1.01c6.2-2.12,23.95-8.37,31.88-11.07" stroke-dasharray="36.993" stroke-dashoffset="36.993"><animate attributeName="stroke-dashoffset" values="36.993" fill="freeze" begin="6b54.click" /><animate attributeName="stroke-dashoffset" values="36.993;36.993;0" keyTimes="0;0.889;1" dur="3.342s" fill="freeze" begin="0s;6b54.click" /></path><path d="M69.5,15c0.03,0.86,0.06,2.22-0.06,3.45c-0.76,7.28-5.11,23.26-11.06,33.05" stroke-dasharray="38.509" stroke-dashoffset="38.509"><animate attributeName="stroke-dashoffset" values="38.509" fill="freeze" begin="6b54.click" /><animate attributeName="stroke-dashoffset" values="38.509;38.509;0" keyTimes="0;0.897;1" dur="3.727s" fill="freeze" begin="0s;6b54.click" /></path><path d="M66.72,37.51c0.78,0.33,2.27,0.85,3.45,0.56c1.44-0.35,17.66-4.64,19.02-4.82c6.88-0.91-1.64,9.77-3.08,11.51" stroke-dasharray="38.409" stroke-dashoffset="38.409"><animate attributeName="stroke-dashoffset" values="38.409" fill="freeze" begin="6b54.click" /><animate attributeName="stroke-dashoffset" values="38.409;38.409;0" keyTimes="0;0.907;1" dur="4.111s" fill="freeze" begin="0s;6b54.click" /></path><path d="M71.1,46c0.65,1,0.53,3.01,0.37,4.73C70,67.5,66.25,83.75,49.75,96.5" stroke-dasharray="57.185" stroke-dashoffset="57.185"><animate attributeName="stroke-dashoffset" values="57.185" fill="freeze" begin="6b54.click" /><animate attributeName="stroke-dashoffset" values="57.185;57.185;0" keyTimes="0;0.878;1" dur="4.683s" fill="freeze" begin="0s;6b54.click" /></path><path d="M70.42,59.5c3.42,8.08,15.76,27.11,21.37,33.8c1.18,1.41,2.08,2.25,3.2,2.7" stroke-dasharray="44.296" stroke-dashoffset="44.296"><animate attributeName="stroke-dashoffset" values="44.296" fill="freeze" begin="6b54.click" /><animate attributeName="stroke-dashoffset" values="44.296;44.296;0" keyTimes="0;0.914;1" dur="5.126s" fill="freeze" begin="0s;6b54.click" /></path></g></svg>