<svg xmlns="http://www.w3.org/2000/svg" width="109" height="109" viewBox="0 0 109 109" id="6b62"><g fill="none" stroke="#666" stroke-width="9" stroke-linecap="round" stroke-linejoin="round"><g><g><path d="M53.43,16.25c1.22,1.22,2.08,3.25,2.08,4.62c0,5.26,0.11,47.51,0.11,65.88" /><path d="M55.88,49.75c8.92-0.75,15.63-2,24.4-2.75c2.17-0.19,2.73-0.25,4.09,0" /></g><path d="M31.43,47.5c1.1,1.1,1.83,3,1.83,4.36c0,4.51,0.32,25.66,0.12,36.64" /><path d="M14,90c1.75,0.62,3.87,0.95,6.66,0.75c17.21-1.25,47.96-4,63.81-4.25c2.81-0.04,6.65,0.12,8.78,0.75" /></g></g><g fill="none" stroke="#000" stroke-width="5" stroke-linecap="round" stroke-linejoin="round"><g><g><path d="M53.43,16.25c1.22,1.22,2.08,3.25,2.08,4.62c0,5.26,0.11,47.51,0.11,65.88" stroke-dasharray="71.05" stroke-dashoffset="71.05"><animate id="0" attributeName="stroke-dashoffset" values="71.05;0" dur="0.53s" fill="freeze" begin="0s;6b62.click" /></path><path d="M55.88,49.75c8.92-0.75,15.63-2,24.4-2.75c2.17-0.19,2.73-0.25,4.09,0" stroke-dasharray="28.66" stroke-dashoffset="28.66"><animate attributeName="stroke-dashoffset" values="28.66" fill="freeze" begin="6b62.click" /><animate id="1" attributeName="stroke-dashoffset" values="28.66;0" dur="0.29s" fill="freeze" begin="0.end" /></path></g><path d="M31.43,47.5c1.1,1.1,1.83,3,1.83,4.36c0,4.51,0.32,25.66,0.12,36.64" stroke-dasharray="41.47" stroke-dashoffset="41.47"><animate attributeName="stroke-dashoffset" values="41.47" fill="freeze" begin="6b62.click" /><animate id="2" attributeName="stroke-dashoffset" values="41.47;0" dur="0.41s" fill="freeze" begin="1.end" /></path><path d="M14,90c1.75,0.62,3.87,0.95,6.66,0.75c17.21-1.25,47.96-4,63.81-4.25c2.81-0.04,6.65,0.12,8.78,0.75" stroke-dasharray="79.55" stroke-dashoffset="79.55"><animate attributeName="stroke-dashoffset" values="79.55" fill="freeze" begin="6b62.click" /><animate id="3" attributeName="stroke-dashoffset" values="79.55;0" dur="0.6s" fill="freeze" begin="2.end" /></path></g></g></svg>