<svg xmlns="http://www.w3.org/2000/svg" viewBox="0 0 109 109" id="6b86"><g fill="none" stroke="#666" stroke-width="6" stroke-linecap="round" stroke-linejoin="round"><g><g><g><path d="M16.25,22.73c1.12,0.04,3.13,0.11,4.26,0.02c5.74-0.5,21.81-3.18,28.85-4.01c1.84-0.22,2.96,0.28,3.89,0.56" /></g><g><path d="M32.18,25.39c0.19,0.6,0.76,2.44,0.37,3.59c-2.68,7.79-8.13,19.18-17.63,28.68" /><path d="M30.81,41.44c0.3,0.05,1.55,0,2.4-0.14c2.77-0.43,6.95-2.25,11.69-3c2.79-0.44,3.26,2.17,2.57,4.69C43.67,56.77,28.75,84.75,10.61,95" /><path d="M24.46,54.73c3.2,1.84,8.26,7.55,9.06,10.41" /></g></g><g><g><path d="M72.66,16.67c0.84,1.85,0.41,3.65-0.5,5.51c-5.9,12.07-7.4,16.32-13.66,25.23c-2.66,3.78-0.74,5.04,2.51,4.19c9-2.35,16.75-3.6,31.17-7.7" /><path d="M83.92,33.33c4.35,3.64,11.25,14.97,12.33,20.63" /></g><g><path d="M54.12,65.71c0.42,0.42,0.85,1.76,1.04,2.28c1.46,4.11,1.71,16.46,2.71,23.85" /><path d="M56.09,67.93c13.66-1.93,27.03-3.85,34.08-4.67c2.41-0.28,3.83,0.74,3.51,3.11c-0.95,6.97-2.65,12.31-4.27,19.53" /><path d="M58.99,89.74C69.75,88.75,77.75,88,90.8,87.2" /></g></g></g></g><g fill="none" stroke="#000" stroke-width="3" stroke-linecap="round" stroke-linejoin="round"><path d="M16.25,22.73c1.12,0.04,3.13,0.11,4.26,0.02c5.74-0.5,21.81-3.18,28.85-4.01c1.84-0.22,2.96,0.28,3.89,0.56" stroke-dasharray="37.362" stroke-dashoffset="37.362"><animate attributeName="stroke-dashoffset" values="37.362;37.362;0" dur="0.374s" fill="freeze" begin="0s;6b86.click" /></path><path d="M32.18,25.39c0.19,0.6,0.76,2.44,0.37,3.59c-2.68,7.79-8.13,19.18-17.63,28.68" stroke-dasharray="37.608" stroke-dashoffset="37.608"><animate attributeName="stroke-dashoffset" values="37.608" fill="freeze" begin="6b86.click" /><animate attributeName="stroke-dashoffset" values="37.608;37.608;0" keyTimes="0;0.499;1" dur="0.75s" fill="freeze" begin="0s;6b86.click" /></path><path d="M30.81,41.44c0.3,0.05,1.55,0,2.4-0.14c2.77-0.43,6.95-2.25,11.69-3c2.79-0.44,3.26,2.17,2.57,4.69C43.67,56.77,28.75,84.75,10.61,95" stroke-dasharray="86.125" stroke-dashoffset="86.125"><animate attributeName="stroke-dashoffset" values="86.125" fill="freeze" begin="6b86.click" /><animate attributeName="stroke-dashoffset" values="86.125;86.125;0" keyTimes="0;0.536;1" dur="1.398s" fill="freeze" begin="0s;6b86.click" /></path><path d="M24.46,54.73c3.2,1.84,8.26,7.55,9.06,10.41" stroke-dasharray="13.997" stroke-dashoffset="13.997"><animate attributeName="stroke-dashoffset" values="13.997" fill="freeze" begin="6b86.click" /><animate attributeName="stroke-dashoffset" values="13.997;13.997;0" keyTimes="0;0.909;1" dur="1.538s" fill="freeze" begin="0s;6b86.click" /></path><path d="M72.66,16.67c0.84,1.85,0.41,3.65-0.5,5.51c-5.9,12.07-7.4,16.32-13.66,25.23c-2.66,3.78-0.74,5.04,2.51,4.19c9-2.35,16.75-3.6,31.17-7.7" stroke-dasharray="74.441" stroke-dashoffset="74.441"><animate attributeName="stroke-dashoffset" values="74.441" fill="freeze" begin="6b86.click" /><animate attributeName="stroke-dashoffset" values="74.441;74.441;0" keyTimes="0;0.733;1" dur="2.098s" fill="freeze" begin="0s;6b86.click" /></path><path d="M83.92,33.33c4.35,3.64,11.25,14.97,12.33,20.63" stroke-dasharray="24.302" stroke-dashoffset="24.302"><animate attributeName="stroke-dashoffset" values="24.302" fill="freeze" begin="6b86.click" /><animate attributeName="stroke-dashoffset" values="24.302;24.302;0" keyTimes="0;0.896;1" dur="2.341s" fill="freeze" begin="0s;6b86.click" /></path><path d="M54.12,65.71c0.42,0.42,0.85,1.76,1.04,2.28c1.46,4.11,1.71,16.46,2.71,23.85" stroke-dasharray="26.555" stroke-dashoffset="26.555"><animate attributeName="stroke-dashoffset" values="26.555" fill="freeze" begin="6b86.click" /><animate attributeName="stroke-dashoffset" values="26.555;26.555;0" keyTimes="0;0.898;1" dur="2.607s" fill="freeze" begin="0s;6b86.click" /></path><path d="M56.09,67.93c13.66-1.93,27.03-3.85,34.08-4.67c2.41-0.28,3.83,0.74,3.51,3.11c-0.95,6.97-2.65,12.31-4.27,19.53" stroke-dasharray="60.086" stroke-dashoffset="60.086"><animate attributeName="stroke-dashoffset" values="60.086" fill="freeze" begin="6b86.click" /><animate attributeName="stroke-dashoffset" values="60.086;60.086;0" keyTimes="0;0.852;1" dur="3.059s" fill="freeze" begin="0s;6b86.click" /></path><path d="M58.99,89.74C69.75,88.75,77.75,88,90.8,87.2" stroke-dasharray="31.914" stroke-dashoffset="31.914"><animate attributeName="stroke-dashoffset" values="31.914" fill="freeze" begin="6b86.click" /><animate attributeName="stroke-dashoffset" values="31.914;31.914;0" keyTimes="0;0.906;1" dur="3.378s" fill="freeze" begin="0s;6b86.click" /></path></g></svg>