<svg xmlns="http://www.w3.org/2000/svg" width="109" height="109" viewBox="0 0 109 109" id="6b9e"><g fill="none" stroke="#666" stroke-width="6" stroke-linecap="round" stroke-linejoin="round"><g><g><g><path d="M15.25,19.47c1,0.03,2.79,0.6,3.8,0.52c5.45-0.48,19.45-1.23,25.74-1.97c1.64-0.19,2.64,0.25,3.47,0.5" /></g><g><path d="M27.99,22.14c0.17,0.71,0.68,2.87,0.32,4.23c-2.38,9.17-7.22,22.6-15.64,33.79" /><path d="M28.64,37c0.26,0.05,1.39,0,2.14-0.14c2.47-0.45,5.7-0.28,9.93-1.05c2.49-0.46,2.91,2.23,2.29,4.81C39.61,54.76,29.75,83,14.11,94" /><path d="M20.21,55.23c3.64,1.92,9.4,7.91,10.31,10.91" /></g></g><g><g><path d="M53.55,15.49c0.3,0.32,0.61,0.59,0.74,0.99c1.05,3.19,2.3,10.33,3.01,16.05" /><path d="M54.93,17.15c7.42-1.05,25.97-3.42,29.53-3.42c1.29,0,3.04,0.76,2.88,2.3c-0.38,3.78-1.66,6.58-2.8,11.72" /><path d="M57.95,30.06c4.15-0.47,19.55-1.56,27.89-1.83" /></g><g><g><path d="M53.66,39.25c0.57,0.93,1.39,2.14,1.39,3.37c0,1.23-0.19,36.75,0,37.98" /><path d="M56,40.68c3.2-0.15,27.6-2.65,30.52-2.84c2.43-0.15,3.97,1.47,4.14,3.58c0.12,1.47-1.13,36.07-1.13,37" /><path d="M54.94,53.17c10.32-0.76,30.13-1.98,35.27-1.98" /><path d="M55.2,65.55c6.37,0,26.4-1.85,34.63-1.85" /><path d="M57.03,77.65c6.36,0,23.39-1.85,31.63-1.85" /></g><g><path d="M61.54,83.96c0.39,1.19,0.28,2.02-0.5,2.88c-2.35,2.62-9.11,8.55-13.82,11.65" /><path d="M80.9,84.17c5.96,3.48,13,9.79,14.62,12.84" /></g></g></g></g></g><g fill="none" stroke="#000" stroke-width="3" stroke-linecap="round" stroke-linejoin="round"><path d="M15.25,19.47c1,0.03,2.79,0.6,3.8,0.52c5.45-0.48,19.45-1.23,25.74-1.97c1.64-0.19,2.64,0.25,3.47,0.5" stroke-dasharray="33.202" stroke-dashoffset="33.202"><animate attributeName="stroke-dashoffset" values="33.202;33.202;0" dur="0.332s" fill="freeze" begin="0s;6b9e.click" /></path><path d="M27.99,22.14c0.17,0.71,0.68,2.87,0.32,4.23c-2.38,9.17-7.22,22.6-15.64,33.79" stroke-dasharray="41.741" stroke-dashoffset="41.741"><animate attributeName="stroke-dashoffset" values="41.741" fill="freeze" begin="6b9e.click" /><animate attributeName="stroke-dashoffset" values="41.741;41.741;0" keyTimes="0;0.443;1" dur="0.749s" fill="freeze" begin="0s;6b9e.click" /></path><path d="M28.64,37c0.26,0.05,1.39,0,2.14-0.14c2.47-0.45,5.7-0.28,9.93-1.05c2.49-0.46,2.91,2.23,2.29,4.81C39.61,54.76,29.75,83,14.11,94" stroke-dasharray="80.419" stroke-dashoffset="80.419"><animate attributeName="stroke-dashoffset" values="80.419" fill="freeze" begin="6b9e.click" /><animate attributeName="stroke-dashoffset" values="80.419;80.419;0" keyTimes="0;0.553;1" dur="1.354s" fill="freeze" begin="0s;6b9e.click" /></path><path d="M20.21,55.23c3.64,1.92,9.4,7.91,10.31,10.91" stroke-dasharray="15.23" stroke-dashoffset="15.23"><animate attributeName="stroke-dashoffset" values="15.23" fill="freeze" begin="6b9e.click" /><animate attributeName="stroke-dashoffset" values="15.23;15.23;0" keyTimes="0;0.899;1" dur="1.506s" fill="freeze" begin="0s;6b9e.click" /></path><path d="M53.55,15.49c0.3,0.32,0.61,0.59,0.74,0.99c1.05,3.19,2.3,10.33,3.01,16.05" stroke-dasharray="17.595" stroke-dashoffset="17.595"><animate attributeName="stroke-dashoffset" values="17.595" fill="freeze" begin="6b9e.click" /><animate attributeName="stroke-dashoffset" values="17.595;17.595;0" keyTimes="0;0.895;1" dur="1.682s" fill="freeze" begin="0s;6b9e.click" /></path><path d="M54.93,17.15c7.42-1.05,25.97-3.42,29.53-3.42c1.29,0,3.04,0.76,2.88,2.3c-0.38,3.78-1.66,6.58-2.8,11.72" stroke-dasharray="45.946" stroke-dashoffset="45.946"><animate attributeName="stroke-dashoffset" values="45.946" fill="freeze" begin="6b9e.click" /><animate attributeName="stroke-dashoffset" values="45.946;45.946;0" keyTimes="0;0.786;1" dur="2.141s" fill="freeze" begin="0s;6b9e.click" /></path><path d="M57.95,30.06c4.15-0.47,19.55-1.56,27.89-1.83" stroke-dasharray="27.955" stroke-dashoffset="27.955"><animate attributeName="stroke-dashoffset" values="27.955" fill="freeze" begin="6b9e.click" /><animate attributeName="stroke-dashoffset" values="27.955;27.955;0" keyTimes="0;0.884;1" dur="2.421s" fill="freeze" begin="0s;6b9e.click" /></path><path d="M53.66,39.25c0.57,0.93,1.39,2.14,1.39,3.37c0,1.23-0.19,36.75,0,37.98" stroke-dasharray="41.676" stroke-dashoffset="41.676"><animate attributeName="stroke-dashoffset" values="41.676" fill="freeze" begin="6b9e.click" /><animate attributeName="stroke-dashoffset" values="41.676;41.676;0" keyTimes="0;0.853;1" dur="2.838s" fill="freeze" begin="0s;6b9e.click" /></path><path d="M56,40.68c3.2-0.15,27.6-2.65,30.52-2.84c2.43-0.15,3.97,1.47,4.14,3.58c0.12,1.47-1.13,36.07-1.13,37" stroke-dasharray="73.801" stroke-dashoffset="73.801"><animate attributeName="stroke-dashoffset" values="73.801" fill="freeze" begin="6b9e.click" /><animate attributeName="stroke-dashoffset" values="73.801;73.801;0" keyTimes="0;0.836;1" dur="3.393s" fill="freeze" begin="0s;6b9e.click" /></path><path d="M54.94,53.17c10.32-0.76,30.13-1.98,35.27-1.98" stroke-dasharray="35.33" stroke-dashoffset="35.33"><animate attributeName="stroke-dashoffset" values="35.33" fill="freeze" begin="6b9e.click" /><animate attributeName="stroke-dashoffset" values="35.33;35.33;0" keyTimes="0;0.906;1" dur="3.746s" fill="freeze" begin="0s;6b9e.click" /></path><path d="M55.2,65.55c6.37,0,26.4-1.85,34.63-1.85" stroke-dasharray="34.685" stroke-dashoffset="34.685"><animate attributeName="stroke-dashoffset" values="34.685" fill="freeze" begin="6b9e.click" /><animate attributeName="stroke-dashoffset" values="34.685;34.685;0" keyTimes="0;0.915;1" dur="4.093s" fill="freeze" begin="0s;6b9e.click" /></path><path d="M57.03,77.65c6.36,0,23.39-1.85,31.63-1.85" stroke-dasharray="31.691" stroke-dashoffset="31.691"><animate attributeName="stroke-dashoffset" values="31.691" fill="freeze" begin="6b9e.click" /><animate attributeName="stroke-dashoffset" values="31.691;31.691;0" keyTimes="0;0.928;1" dur="4.41s" fill="freeze" begin="0s;6b9e.click" /></path><path d="M61.54,83.96c0.39,1.19,0.28,2.02-0.5,2.88c-2.35,2.62-9.11,8.55-13.82,11.65" stroke-dasharray="21.205" stroke-dashoffset="21.205"><animate attributeName="stroke-dashoffset" values="21.205" fill="freeze" begin="6b9e.click" /><animate attributeName="stroke-dashoffset" values="21.205;21.205;0" keyTimes="0;0.954;1" dur="4.622s" fill="freeze" begin="0s;6b9e.click" /></path><path d="M80.9,84.17c5.96,3.48,13,9.79,14.62,12.84" stroke-dasharray="19.604" stroke-dashoffset="19.604"><animate attributeName="stroke-dashoffset" values="19.604" fill="freeze" begin="6b9e.click" /><animate attributeName="stroke-dashoffset" values="19.604;19.604;0" keyTimes="0;0.959;1" dur="4.818s" fill="freeze" begin="0s;6b9e.click" /></path></g></svg>