<svg xmlns="http://www.w3.org/2000/svg" width="109" height="109" viewBox="0 0 109 109" id="6bab"><g fill="none" stroke="#666" stroke-width="9" stroke-linecap="round" stroke-linejoin="round"><g><g><g><path d="M14.25,17.97c1,0.28,3.3,0.66,4.3,0.52c5.2-0.73,13.7-1.73,21.24-2.97c1.63-0.27,2.64,0.25,3.47,0.5" /></g><g><path d="M28.7,20.89c0.18,0.68,0.74,2.76,0.36,4.06c-2.6,8.81-7.9,21.71-17.13,32.46" /><path d="M27.64,36.5c0.26,0.05,2.44,0.67,3.14,0.36c2.48-1.11,4.73-1.86,8.93-3.05c2.43-0.69,3.41,1.73,2.79,4.31C39.11,52.26,24.5,81.5,9.11,91" /><path d="M20.21,50.98c2.76,1.97,7.12,8.09,7.81,11.16" /></g></g><g><g><g><path d="M49.36,15.55c0.29,0.28,0.61,0.51,0.71,0.88c0.82,3.25,1.81,8.77,2.64,13.55" /><path d="M51.15,16.58c5.3-0.69,10.36-1.19,15.25-1.88c1.23-0.17,1.97,0.8,1.79,1.59c-0.73,3.28-1,4.78-2.3,10.25" /><path d="M53.3,28.7c3.95-0.42,8.76-1.12,14.19-1.76" /></g><g><path d="M73.79,13.79c0.28,0.34,1.09,1.62,1.18,2.07c0.79,3.97,1.19,6.96,1.98,12.79" /><path d="M75.22,14.68c6.53-0.93,11.37-1.46,16.08-2.31c1.18-0.21,1.9,0.98,1.73,1.95c-0.7,4.01-1.53,6.18-2.47,10.52" /><path d="M76.73,26.57c5.02-0.32,9.52-1.07,16.92-1.21" /></g></g><g><g p6:part="1" xmlns:p6="http://kanjivg.tagaini.net"><g p6:partial><path d="M51.98,36.72c0.27,0.51,0.78,1.41,0.93,2.04c1.24,5.26,2.81,15.82,3.59,25.58" /><path d="M53.75,38.21c10.3-1.76,27.32-2.61,34.42-3.51c2.61-0.33,4.18,0.71,4.1,2.92c-0.18,5.26-2.97,21.07-3.43,23.26" /><path d="M55.32,49.93c3.1-0.42,31.18-3.41,35.49-3.12" /><path d="M56.87,61.83c10.63-1.41,22.23-2.01,32.04-3.03" /></g></g><g><path d="M43.44,75.42c1.25,0.53,3.55,0.62,4.81,0.53c6.96-0.48,32.29-2.89,47.93-3.61c2.09-0.1,3.34,0.25,4.39,0.52" /></g><g p6:part="2" xmlns:p6="http://kanjivg.tagaini.net"><g><path d="M70.89,38.99c0.53,0.36,0.86,1.36,0.87,2.58c0.03,6.19,0.16,54.92,0.17,56.94" /></g></g></g></g></g></g><g fill="none" stroke="#000" stroke-width="5" stroke-linecap="round" stroke-linejoin="round"><g><g><g><path d="M14.25,17.97c1,0.28,3.3,0.66,4.3,0.52c5.2-0.73,13.7-1.73,21.24-2.97c1.63-0.27,2.64,0.25,3.47,0.5" stroke-dasharray="29.35" stroke-dashoffset="29.35"><animate id="0" attributeName="stroke-dashoffset" values="29.35;0" dur="0.29s" fill="freeze" begin="0s;6bab.click" /></path></g><g><path d="M28.7,20.89c0.18,0.68,0.74,2.76,0.36,4.06c-2.6,8.81-7.9,21.71-17.13,32.46" stroke-dasharray="41.08" stroke-dashoffset="41.08"><animate attributeName="stroke-dashoffset" values="41.08" fill="freeze" begin="6bab.click" /><animate id="1" attributeName="stroke-dashoffset" values="41.08;0" dur="0.41s" fill="freeze" begin="0.end" /></path><path d="M27.64,36.5c0.26,0.05,2.44,0.67,3.14,0.36c2.48-1.11,4.73-1.86,8.93-3.05c2.43-0.69,3.41,1.73,2.79,4.31C39.11,52.26,24.5,81.5,9.11,91" stroke-dasharray="82.69" stroke-dashoffset="82.69"><animate attributeName="stroke-dashoffset" values="82.69" fill="freeze" begin="6bab.click" /><animate id="2" attributeName="stroke-dashoffset" values="82.69;0" dur="0.62s" fill="freeze" begin="1.end" /></path><path d="M20.21,50.98c2.76,1.97,7.12,8.09,7.81,11.16" stroke-dasharray="13.79" stroke-dashoffset="13.79"><animate attributeName="stroke-dashoffset" values="13.79" fill="freeze" begin="6bab.click" /><animate id="3" attributeName="stroke-dashoffset" values="13.79;0" dur="0.14s" fill="freeze" begin="2.end" /></path></g></g><g><g><g><path d="M49.36,15.55c0.29,0.28,0.61,0.51,0.71,0.88c0.82,3.25,1.81,8.77,2.64,13.55" stroke-dasharray="14.95" stroke-dashoffset="14.95"><animate attributeName="stroke-dashoffset" values="14.95" fill="freeze" begin="6bab.click" /><animate id="4" attributeName="stroke-dashoffset" values="14.95;0" dur="0.15s" fill="freeze" begin="3.end" /></path><path d="M51.15,16.58c5.3-0.69,10.36-1.19,15.25-1.88c1.23-0.17,1.97,0.8,1.79,1.59c-0.73,3.28-1,4.78-2.3,10.25" stroke-dasharray="28.68" stroke-dashoffset="28.68"><animate attributeName="stroke-dashoffset" values="28.68" fill="freeze" begin="6bab.click" /><animate id="5" attributeName="stroke-dashoffset" values="28.68;0" dur="0.29s" fill="freeze" begin="4.end" /></path><path d="M53.3,28.7c3.95-0.42,8.76-1.12,14.19-1.76" stroke-dasharray="14.3" stroke-dashoffset="14.3"><animate attributeName="stroke-dashoffset" values="14.3" fill="freeze" begin="6bab.click" /><animate id="6" attributeName="stroke-dashoffset" values="14.3;0" dur="0.14s" fill="freeze" begin="5.end" /></path></g><g><path d="M73.79,13.79c0.28,0.34,1.09,1.62,1.18,2.07c0.79,3.97,1.19,6.96,1.98,12.79" stroke-dasharray="15.34" stroke-dashoffset="15.34"><animate attributeName="stroke-dashoffset" values="15.34" fill="freeze" begin="6bab.click" /><animate id="7" attributeName="stroke-dashoffset" values="15.34;0" dur="0.15s" fill="freeze" begin="6.end" /></path><path d="M75.22,14.68c6.53-0.93,11.37-1.46,16.08-2.31c1.18-0.21,1.9,0.98,1.73,1.95c-0.7,4.01-1.53,6.18-2.47,10.52" stroke-dasharray="30.11" stroke-dashoffset="30.11"><animate attributeName="stroke-dashoffset" values="30.11" fill="freeze" begin="6bab.click" /><animate id="8" attributeName="stroke-dashoffset" values="30.11;0" dur="0.3s" fill="freeze" begin="7.end" /></path><path d="M76.73,26.57c5.02-0.32,9.52-1.07,16.92-1.21" stroke-dasharray="16.97" stroke-dashoffset="16.97"><animate attributeName="stroke-dashoffset" values="16.97" fill="freeze" begin="6bab.click" /><animate id="9" attributeName="stroke-dashoffset" values="16.97;0" dur="0.17s" fill="freeze" begin="8.end" /></path></g></g><g><g p6:part="1" xmlns:p6="http://kanjivg.tagaini.net"><g p6:partial><path d="M51.98,36.72c0.27,0.51,0.78,1.41,0.93,2.04c1.24,5.26,2.81,15.82,3.59,25.58" stroke-dasharray="28.1" stroke-dashoffset="28.1"><animate attributeName="stroke-dashoffset" values="28.1" fill="freeze" begin="6bab.click" /><animate id="10" attributeName="stroke-dashoffset" values="28.1;0" dur="0.28s" fill="freeze" begin="9.end" /></path><path d="M53.75,38.21c10.3-1.76,27.32-2.61,34.42-3.51c2.61-0.33,4.18,0.71,4.1,2.92c-0.18,5.26-2.97,21.07-3.43,23.26" stroke-dasharray="64.05" stroke-dashoffset="64.05"><animate attributeName="stroke-dashoffset" values="64.05" fill="freeze" begin="6bab.click" /><animate id="11" attributeName="stroke-dashoffset" values="64.05;0" dur="0.48s" fill="freeze" begin="10.end" /></path><path d="M55.32,49.93c3.1-0.42,31.18-3.41,35.49-3.12" stroke-dasharray="35.64" stroke-dashoffset="35.64"><animate attributeName="stroke-dashoffset" values="35.64" fill="freeze" begin="6bab.click" /><animate id="12" attributeName="stroke-dashoffset" values="35.64;0" dur="0.36s" fill="freeze" begin="11.end" /></path><path d="M56.87,61.83c10.63-1.41,22.23-2.01,32.04-3.03" stroke-dasharray="32.19" stroke-dashoffset="32.19"><animate attributeName="stroke-dashoffset" values="32.19" fill="freeze" begin="6bab.click" /><animate id="13" attributeName="stroke-dashoffset" values="32.19;0" dur="0.32s" fill="freeze" begin="12.end" /></path></g></g><g><path d="M43.44,75.42c1.25,0.53,3.55,0.62,4.81,0.53c6.96-0.48,32.29-2.89,47.93-3.61c2.09-0.1,3.34,0.25,4.39,0.52" stroke-dasharray="57.38" stroke-dashoffset="57.38"><animate attributeName="stroke-dashoffset" values="57.38" fill="freeze" begin="6bab.click" /><animate id="14" attributeName="stroke-dashoffset" values="57.38;0" dur="0.57s" fill="freeze" begin="13.end" /></path></g><g p6:part="2" xmlns:p6="http://kanjivg.tagaini.net"><g><path d="M70.89,38.99c0.53,0.36,0.86,1.36,0.87,2.58c0.03,6.19,0.16,54.92,0.17,56.94" stroke-dasharray="59.75" stroke-dashoffset="59.75"><animate attributeName="stroke-dashoffset" values="59.75" fill="freeze" begin="6bab.click" /><animate id="15" attributeName="stroke-dashoffset" values="59.75;0" dur="0.6s" fill="freeze" begin="14.end" /></path></g></g></g></g></g></g></svg>