<svg xmlns="http://www.w3.org/2000/svg" width="109" height="109" viewBox="0 0 109 109" id="6baf"><g fill="none" stroke="#666" stroke-width="9" stroke-linecap="round" stroke-linejoin="round"><g><g><g><path d="M14.75,21.47c1,0.03,2.79,0.07,3.8,0.02c4.2-0.23,16.45-2.23,22.74-2.97c1.64-0.19,2.64,0.25,3.47,0.5" /></g><g><path d="M26.99,23.39c0.17,0.72,0.68,2.89,0.32,4.26c-2.38,9.23-7.22,22.75-15.64,34.01" /><path d="M26.64,40c0.26,0.05,1.39,0,2.14-0.14c2.47-0.45,5.2-1.78,9.43-2.55c2.49-0.46,2.91,2.23,2.29,4.81C37.11,56.26,25.25,82.75,9.61,93" /><path d="M21.46,55.73c2.67,1.66,6.9,6.83,7.56,9.41" /></g></g><g><g><g><path d="M67.65,11.05c0.87,0.34,2.11,2.02,2.09,3c-0.06,3.1-0.06,5.13-0.07,7.96" /><g><path d="M50.74,22.14c0,2.51-2.39,10.24-3.3,11.91" /><path d="M51.06,24.2c6.28-0.79,34.31-2.6,39.4-2.9c7.97-0.47,1.69,5.7-0.3,7.39" /></g></g><path d="M54.58,32.31c0.73,0.35,2.05,0.39,2.78,0.35c4.94-0.25,20.3-1.81,24.32-2.15c1.2-0.1,1.93,0.17,2.54,0.35" /><g><g p7:partial xmlns:p7="http://kanjivg.tagaini.net"><path d="M68.48,34.61c0.04,0.23,0.59,1.18,0.63,2.62c0.21,6.9-0.13,6.29-0.13,8.65c0,6.67-3.64,0.71-4.4,0.12" /><path d="M55.45,40.54c0.03,0.27,0.11,0.71-0.06,1.08c-1.18,2.7-6.16,7.89-10.21,10.38" /></g><g><path d="M85.42,38.3c0.12,0.55,0.01,1.95-0.68,2.65c-6.25,6.27-21.89,14.62-41.49,20.83" /></g></g></g><g><g><path d="M56.05,56.98c0.77,1.08,1.17,1.84,1.17,3.59c0,3.99-0.35,14.2-0.35,25.72" /><path d="M58.01,56.97c2.68-0.22,24.12-1.5,26.56-1.76c2.04-0.22,3.12,1.21,3.12,2.86c0,4.02-0.6,25.54-0.6,26.86" /><path d="M58.27,65.47c5.01-0.33,24.46-1.87,28.76-1.87" /><path d="M57.49,73.58c7.57-0.64,22.05-1.44,30.07-1.57" /><path d="M57.14,83.3c7.57-0.48,22.02-1.75,28.92-1.75" /></g><g><path d="M63.08,87.34c0.4,1.05,0.26,1.92-0.53,2.68c-1.74,1.69-7.21,6.1-14.02,9.04" /><path d="M79.5,87.86c6.18,3,13.47,8.45,15.16,11.08" /></g></g></g></g></g><g fill="none" stroke="#000" stroke-width="5" stroke-linecap="round" stroke-linejoin="round"><g><g><g><path d="M14.75,21.47c1,0.03,2.79,0.07,3.8,0.02c4.2-0.23,16.45-2.23,22.74-2.97c1.64-0.19,2.64,0.25,3.47,0.5" stroke-dasharray="30.28" stroke-dashoffset="30.28"><animate id="0" attributeName="stroke-dashoffset" values="30.28;0" dur="0.3s" fill="freeze" begin="0s;6baf.click" /></path></g><g><path d="M26.99,23.39c0.17,0.72,0.68,2.89,0.32,4.26c-2.38,9.23-7.22,22.75-15.64,34.01" stroke-dasharray="41.97" stroke-dashoffset="41.97"><animate attributeName="stroke-dashoffset" values="41.97" fill="freeze" begin="6baf.click" /><animate id="1" attributeName="stroke-dashoffset" values="41.97;0" dur="0.42s" fill="freeze" begin="0.end" /></path><path d="M26.64,40c0.26,0.05,1.39,0,2.14-0.14c2.47-0.45,5.2-1.78,9.43-2.55c2.49-0.46,2.91,2.23,2.29,4.81C37.11,56.26,25.25,82.75,9.61,93" stroke-dasharray="79.06" stroke-dashoffset="79.06"><animate attributeName="stroke-dashoffset" values="79.06" fill="freeze" begin="6baf.click" /><animate id="2" attributeName="stroke-dashoffset" values="79.06;0" dur="0.59s" fill="freeze" begin="1.end" /></path><path d="M21.46,55.73c2.67,1.66,6.9,6.83,7.56,9.41" stroke-dasharray="12.24" stroke-dashoffset="12.24"><animate attributeName="stroke-dashoffset" values="12.24" fill="freeze" begin="6baf.click" /><animate id="3" attributeName="stroke-dashoffset" values="12.24;0" dur="0.12s" fill="freeze" begin="2.end" /></path></g></g><g><g><g><path d="M67.65,11.05c0.87,0.34,2.11,2.02,2.09,3c-0.06,3.1-0.06,5.13-0.07,7.96" stroke-dasharray="11.76" stroke-dashoffset="11.76"><animate attributeName="stroke-dashoffset" values="11.76" fill="freeze" begin="6baf.click" /><animate id="4" attributeName="stroke-dashoffset" values="11.76;0" dur="0.12s" fill="freeze" begin="3.end" /></path><g><path d="M50.74,22.14c0,2.51-2.39,10.24-3.3,11.91" stroke-dasharray="12.41" stroke-dashoffset="12.41"><animate attributeName="stroke-dashoffset" values="12.41" fill="freeze" begin="6baf.click" /><animate id="5" attributeName="stroke-dashoffset" values="12.41;0" dur="0.12s" fill="freeze" begin="4.end" /></path><path d="M51.06,24.2c6.28-0.79,34.31-2.6,39.4-2.9c7.97-0.47,1.69,5.7-0.3,7.39" stroke-dasharray="51.57" stroke-dashoffset="51.57"><animate attributeName="stroke-dashoffset" values="51.57" fill="freeze" begin="6baf.click" /><animate id="6" attributeName="stroke-dashoffset" values="51.57;0" dur="0.52s" fill="freeze" begin="5.end" /></path></g></g><path d="M54.58,32.31c0.73,0.35,2.05,0.39,2.78,0.35c4.94-0.25,20.3-1.81,24.32-2.15c1.2-0.1,1.93,0.17,2.54,0.35" stroke-dasharray="29.82" stroke-dashoffset="29.82"><animate attributeName="stroke-dashoffset" values="29.82" fill="freeze" begin="6baf.click" /><animate id="7" attributeName="stroke-dashoffset" values="29.82;0" dur="0.3s" fill="freeze" begin="6.end" /></path><g><g p7:partial xmlns:p7="http://kanjivg.tagaini.net"><path d="M68.48,34.61c0.04,0.23,0.59,1.18,0.63,2.62c0.21,6.9-0.13,6.29-0.13,8.65c0,6.67-3.64,0.71-4.4,0.12" stroke-dasharray="19.53" stroke-dashoffset="19.53"><animate attributeName="stroke-dashoffset" values="19.53" fill="freeze" begin="6baf.click" /><animate id="8" attributeName="stroke-dashoffset" values="19.53;0" dur="0.2s" fill="freeze" begin="7.end" /></path><path d="M55.45,40.54c0.03,0.27,0.11,0.71-0.06,1.08c-1.18,2.7-6.16,7.89-10.21,10.38" stroke-dasharray="15.8" stroke-dashoffset="15.8"><animate attributeName="stroke-dashoffset" values="15.8" fill="freeze" begin="6baf.click" /><animate id="9" attributeName="stroke-dashoffset" values="15.8;0" dur="0.16s" fill="freeze" begin="8.end" /></path></g><g><path d="M85.42,38.3c0.12,0.55,0.01,1.95-0.68,2.65c-6.25,6.27-21.89,14.62-41.49,20.83" stroke-dasharray="49.57" stroke-dashoffset="49.57"><animate attributeName="stroke-dashoffset" values="49.57" fill="freeze" begin="6baf.click" /><animate id="10" attributeName="stroke-dashoffset" values="49.57;0" dur="0.5s" fill="freeze" begin="9.end" /></path></g></g></g><g><g><path d="M56.05,56.98c0.77,1.08,1.17,1.84,1.17,3.59c0,3.99-0.35,14.2-0.35,25.72" stroke-dasharray="29.58" stroke-dashoffset="29.58"><animate attributeName="stroke-dashoffset" values="29.58" fill="freeze" begin="6baf.click" /><animate id="11" attributeName="stroke-dashoffset" values="29.58;0" dur="0.3s" fill="freeze" begin="10.end" /></path><path d="M58.01,56.97c2.68-0.22,24.12-1.5,26.56-1.76c2.04-0.22,3.12,1.21,3.12,2.86c0,4.02-0.6,25.54-0.6,26.86" stroke-dasharray="58.34" stroke-dashoffset="58.34"><animate attributeName="stroke-dashoffset" values="58.34" fill="freeze" begin="6baf.click" /><animate id="12" attributeName="stroke-dashoffset" values="58.34;0" dur="0.58s" fill="freeze" begin="11.end" /></path><path d="M58.27,65.47c5.01-0.33,24.46-1.87,28.76-1.87" stroke-dasharray="28.82" stroke-dashoffset="28.82"><animate attributeName="stroke-dashoffset" values="28.82" fill="freeze" begin="6baf.click" /><animate id="13" attributeName="stroke-dashoffset" values="28.82;0" dur="0.29s" fill="freeze" begin="12.end" /></path><path d="M57.49,73.58c7.57-0.64,22.05-1.44,30.07-1.57" stroke-dasharray="30.11" stroke-dashoffset="30.11"><animate attributeName="stroke-dashoffset" values="30.11" fill="freeze" begin="6baf.click" /><animate id="14" attributeName="stroke-dashoffset" values="30.11;0" dur="0.3s" fill="freeze" begin="13.end" /></path><path d="M57.14,83.3c7.57-0.48,22.02-1.75,28.92-1.75" stroke-dasharray="28.98" stroke-dashoffset="28.98"><animate attributeName="stroke-dashoffset" values="28.98" fill="freeze" begin="6baf.click" /><animate id="15" attributeName="stroke-dashoffset" values="28.98;0" dur="0.29s" fill="freeze" begin="14.end" /></path></g><g><path d="M63.08,87.34c0.4,1.05,0.26,1.92-0.53,2.68c-1.74,1.69-7.21,6.1-14.02,9.04" stroke-dasharray="19.68" stroke-dashoffset="19.68"><animate attributeName="stroke-dashoffset" values="19.68" fill="freeze" begin="6baf.click" /><animate id="16" attributeName="stroke-dashoffset" values="19.68;0" dur="0.2s" fill="freeze" begin="15.end" /></path><path d="M79.5,87.86c6.18,3,13.47,8.45,15.16,11.08" stroke-dasharray="18.91" stroke-dashoffset="18.91"><animate attributeName="stroke-dashoffset" values="18.91" fill="freeze" begin="6baf.click" /><animate id="17" attributeName="stroke-dashoffset" values="18.91;0" dur="0.19s" fill="freeze" begin="16.end" /></path></g></g></g></g></g></svg>