<svg xmlns="http://www.w3.org/2000/svg" width="109" height="109" viewBox="0 0 109 109" id="6bb3"><g fill="none" stroke="#666" stroke-width="6" stroke-linecap="round" stroke-linejoin="round"><g><g><g><path d="M37.77,13.64c0.48,0.86,0.96,2.74,0.92,4c-0.35,13.02-4.02,28.02-14.8,33.49" /></g><path d="M39.67,16c3.33,0.33,20.77-1.66,23-2.33c3.33-1,5.01,2.12,4.67,4.33c-0.67,4.33-1,11.67-1,16c0,6,1.67,10.33,12.67,10.33c13,0,12.67-0.67,12.67-13" /></g><g><path d="M33,55.25c2,0.4,2.25,0.99,6.25,0.4s24.25-3.24,27-3.83c2.75-0.59,4.98,2.3,3.75,4.35c-12.67,21.17-29,33.17-53,43" /><path d="M35.92,61.37c5.08,0.87,29.9,24.21,47.59,33.77c2.75,1.49,4.76,2.48,7.33,2.98" /></g></g></g><g fill="none" stroke="#000" stroke-width="3" stroke-linecap="round" stroke-linejoin="round"><path d="M37.77,13.64c0.48,0.86,0.96,2.74,0.92,4c-0.35,13.02-4.02,28.02-14.8,33.49" stroke-dasharray="42.469" stroke-dashoffset="42.469"><animate attributeName="stroke-dashoffset" values="42.469;42.469;0" dur="0.425s" fill="freeze" begin="0s;6bb3.click" /></path><path d="M39.67,16c3.33,0.33,20.77-1.66,23-2.33c3.33-1,5.01,2.12,4.67,4.33c-0.67,4.33-1,11.67-1,16c0,6,1.67,10.33,12.67,10.33c13,0,12.67-0.67,12.67-13" stroke-dasharray="88.989" stroke-dashoffset="88.989"><animate attributeName="stroke-dashoffset" values="88.989" fill="freeze" begin="6bb3.click" /><animate attributeName="stroke-dashoffset" values="88.989;88.989;0" keyTimes="0;0.388;1" dur="1.094s" fill="freeze" begin="0s;6bb3.click" /></path><path d="M33,55.25c2,0.4,2.25,0.99,6.25,0.4s24.25-3.24,27-3.83c2.75-0.59,4.98,2.3,3.75,4.35c-12.67,21.17-29,33.17-53,43" stroke-dasharray="110.368" stroke-dashoffset="110.368"><animate attributeName="stroke-dashoffset" values="110.368" fill="freeze" begin="6bb3.click" /><animate attributeName="stroke-dashoffset" values="110.368;110.368;0" keyTimes="0;0.569;1" dur="1.924s" fill="freeze" begin="0s;6bb3.click" /></path><path d="M35.92,61.37c5.08,0.87,29.9,24.21,47.59,33.77c2.75,1.49,4.76,2.48,7.33,2.98" stroke-dasharray="66.422" stroke-dashoffset="66.422"><animate attributeName="stroke-dashoffset" values="66.422" fill="freeze" begin="6bb3.click" /><animate attributeName="stroke-dashoffset" values="66.422;66.422;0" keyTimes="0;0.794;1" dur="2.423s" fill="freeze" begin="0s;6bb3.click" /></path></g></svg>