<svg xmlns="http://www.w3.org/2000/svg" viewBox="0 0 109 109" id="6bbf"><g fill="none" stroke="#666" stroke-width="6" stroke-linecap="round" stroke-linejoin="round"><g><g p4:phon="尸+共" xmlns:p4="http://kanjivg.tagaini.net"><g><path d="M17.97,18.69c1.5,0.56,3.41,1.05,5,0.94c7.68-0.55,18.07-2.32,22.64-2.85c2.25-0.26,4.21,0.37,3.81,2.9c-0.55,3.57-1.69,6.53-3,12.45" /><path d="M22.59,35.02c3.45-0.15,15.17-1.76,21.92-2.4c1.69-0.16,3.08-0.27,3.98-0.31" /><path d="M20.41,19.84c1,1,1.25,2.19,1.26,3.41C21.79,45.06,22,72.38,9.75,87.5" /></g><g><g><path d="M23.67,52.28c1.7,0.35,2.78,0.02,4.07-0.17c4.87-0.7,15.91-2.2,20.99-2.53c1.1-0.07,2.21-0.13,3.3,0.1" /><path d="M29.67,42.94c0.82,0.82,1.11,2.19,1.19,3.06c0.44,5.43,0.77,15.33,0.97,19.94" /><path d="M45.3,39.25c0.58,1,0.83,2,0.71,3.26c-0.76,8.42-1.55,12.69-2.41,21.63" /><path d="M21.87,68c2,0.5,4.04,0.21,5.66-0.12c6.22-1.26,15.22-2.76,22.47-3.34c1.81-0.15,3.6-0.25,5.38,0.28" /></g><g><path d="M28,76.51c0.03,0.38,0.07,0.98-0.07,1.53c-0.82,3.22-5.93,9.95-11.65,15.13" /><path d="M44.5,74.62c1.84,2.18,4.74,8.96,5.2,12.34" /></g></g></g><g><g><g><path d="M63.43,15.58c0.87,0.87,0.97,2.05,0.96,3.07c-0.2,10.49-2.01,19.35-8.01,25.97" /></g><path d="M65.24,17.01c4.51-0.39,11.26-1.51,13.63-2.37c2.14-0.77,3.13,0.18,2.92,2.18c-0.42,3.93-1.12,9.58-1.12,13.51c0,7.75,1.04,8.87,7.92,8.87c5.91,0,6.92-1.2,6.92-7.29" /></g><g><path d="M61.32,52.1c1.25,0.36,3.41,0.4,5.91-0.14c2.22-0.48,11.49-3.06,14.71-3.96c2.32-0.65,4.42,1.2,3.27,3.68C77,69.38,65.75,83,51.32,91.92" /><path d="M57.4,59.4c3.44,0.31,15.98,14.48,27.85,25.36c2.92,2.67,5.87,4.87,10.24,6.71" /></g></g></g></g><g fill="none" stroke="#000" stroke-width="3" stroke-linecap="round" stroke-linejoin="round"><path d="M17.97,18.69c1.5,0.56,3.41,1.05,5,0.94c7.68-0.55,18.07-2.32,22.64-2.85c2.25-0.26,4.21,0.37,3.81,2.9c-0.55,3.57-1.69,6.53-3,12.45" stroke-dasharray="46.572" stroke-dashoffset="46.572"><animate attributeName="stroke-dashoffset" values="46.572;46.572;0" dur="0.466s" fill="freeze" begin="0s;6bbf.click" /></path><path d="M22.59,35.02c3.45-0.15,15.17-1.76,21.92-2.4c1.69-0.16,3.08-0.27,3.98-0.31" stroke-dasharray="26.046" stroke-dashoffset="26.046"><animate attributeName="stroke-dashoffset" values="26.046" fill="freeze" begin="6bbf.click" /><animate attributeName="stroke-dashoffset" values="26.046;26.046;0" keyTimes="0;0.642;1" dur="0.726s" fill="freeze" begin="0s;6bbf.click" /></path><path d="M20.41,19.84c1,1,1.25,2.19,1.26,3.41C21.79,45.06,22,72.38,9.75,87.5" stroke-dasharray="70.277" stroke-dashoffset="70.277"><animate attributeName="stroke-dashoffset" values="70.277" fill="freeze" begin="6bbf.click" /><animate attributeName="stroke-dashoffset" values="70.277;70.277;0" keyTimes="0;0.579;1" dur="1.254s" fill="freeze" begin="0s;6bbf.click" /></path><path d="M23.67,52.28c1.7,0.35,2.78,0.02,4.07-0.17c4.87-0.7,15.91-2.2,20.99-2.53c1.1-0.07,2.21-0.13,3.3,0.1" stroke-dasharray="28.563" stroke-dashoffset="28.563"><animate attributeName="stroke-dashoffset" values="28.563" fill="freeze" begin="6bbf.click" /><animate attributeName="stroke-dashoffset" values="28.563;28.563;0" keyTimes="0;0.814;1" dur="1.54s" fill="freeze" begin="0s;6bbf.click" /></path><path d="M29.67,42.94c0.82,0.82,1.11,2.19,1.19,3.06c0.44,5.43,0.77,15.33,0.97,19.94" stroke-dasharray="23.311" stroke-dashoffset="23.311"><animate attributeName="stroke-dashoffset" values="23.311" fill="freeze" begin="6bbf.click" /><animate attributeName="stroke-dashoffset" values="23.311;23.311;0" keyTimes="0;0.869;1" dur="1.773s" fill="freeze" begin="0s;6bbf.click" /></path><path d="M45.3,39.25c0.58,1,0.83,2,0.71,3.26c-0.76,8.42-1.55,12.69-2.41,21.63" stroke-dasharray="25.162" stroke-dashoffset="25.162"><animate attributeName="stroke-dashoffset" values="25.162" fill="freeze" begin="6bbf.click" /><animate attributeName="stroke-dashoffset" values="25.162;25.162;0" keyTimes="0;0.876;1" dur="2.025s" fill="freeze" begin="0s;6bbf.click" /></path><path d="M21.87,68c2,0.5,4.04,0.21,5.66-0.12c6.22-1.26,15.22-2.76,22.47-3.34c1.81-0.15,3.6-0.25,5.38,0.28" stroke-dasharray="33.86" stroke-dashoffset="33.86"><animate attributeName="stroke-dashoffset" values="33.86" fill="freeze" begin="6bbf.click" /><animate attributeName="stroke-dashoffset" values="33.86;33.86;0" keyTimes="0;0.857;1" dur="2.364s" fill="freeze" begin="0s;6bbf.click" /></path><path d="M28,76.51c0.03,0.38,0.07,0.98-0.07,1.53c-0.82,3.22-5.93,9.95-11.65,15.13" stroke-dasharray="20.801" stroke-dashoffset="20.801"><animate attributeName="stroke-dashoffset" values="20.801" fill="freeze" begin="6bbf.click" /><animate attributeName="stroke-dashoffset" values="20.801;20.801;0" keyTimes="0;0.919;1" dur="2.572s" fill="freeze" begin="0s;6bbf.click" /></path><path d="M44.5,74.62c1.84,2.18,4.74,8.96,5.2,12.34" stroke-dasharray="13.491" stroke-dashoffset="13.491"><animate attributeName="stroke-dashoffset" values="13.491" fill="freeze" begin="6bbf.click" /><animate attributeName="stroke-dashoffset" values="13.491;13.491;0" keyTimes="0;0.95;1" dur="2.707s" fill="freeze" begin="0s;6bbf.click" /></path><path d="M63.43,15.58c0.87,0.87,0.97,2.05,0.96,3.07c-0.2,10.49-2.01,19.35-8.01,25.97" stroke-dasharray="31.108" stroke-dashoffset="31.108"><animate attributeName="stroke-dashoffset" values="31.108" fill="freeze" begin="6bbf.click" /><animate attributeName="stroke-dashoffset" values="31.108;31.108;0" keyTimes="0;0.897;1" dur="3.018s" fill="freeze" begin="0s;6bbf.click" /></path><path d="M65.24,17.01c4.51-0.39,11.26-1.51,13.63-2.37c2.14-0.77,3.13,0.18,2.92,2.18c-0.42,3.93-1.12,9.58-1.12,13.51c0,7.75,1.04,8.87,7.92,8.87c5.91,0,6.92-1.2,6.92-7.29" stroke-dasharray="58.858" stroke-dashoffset="58.858"><animate attributeName="stroke-dashoffset" values="58.858" fill="freeze" begin="6bbf.click" /><animate attributeName="stroke-dashoffset" values="58.858;58.858;0" keyTimes="0;0.837;1" dur="3.607s" fill="freeze" begin="0s;6bbf.click" /></path><path d="M61.32,52.1c1.25,0.36,3.41,0.4,5.91-0.14c2.22-0.48,11.49-3.06,14.71-3.96c2.32-0.65,4.42,1.2,3.27,3.68C77,69.38,65.75,83,51.32,91.92" stroke-dasharray="80.97" stroke-dashoffset="80.97"><animate attributeName="stroke-dashoffset" values="80.97" fill="freeze" begin="6bbf.click" /><animate attributeName="stroke-dashoffset" values="80.97;80.97;0" keyTimes="0;0.856;1" dur="4.216s" fill="freeze" begin="0s;6bbf.click" /></path><path d="M57.4,59.4c3.44,0.31,15.98,14.48,27.85,25.36c2.92,2.67,5.87,4.87,10.24,6.71" stroke-dasharray="50.125" stroke-dashoffset="50.125"><animate attributeName="stroke-dashoffset" values="50.125" fill="freeze" begin="6bbf.click" /><animate attributeName="stroke-dashoffset" values="50.125;50.125;0" keyTimes="0;0.894;1" dur="4.717s" fill="freeze" begin="0s;6bbf.click" /></path></g></svg>