<svg xmlns="http://www.w3.org/2000/svg" width="109" height="109" viewBox="0 0 109 109" id="6bcb"><g fill="none" stroke="#666" stroke-width="9" stroke-linecap="round" stroke-linejoin="round"><g p3:partial xmlns:p3="http://kanjivg.tagaini.net"><path d="M35.3,18.98c1.1,1.06,1.65,4.6,1.36,7.38c-1.41,13.14-6.41,37.89-9.21,48.52c-1.03,3.89,0.48,4.92,2.57,4.92c14.23-0.04,36.73,2.71,52.48,9.48" /><path d="M38.15,21.27c9.6-1.02,31.36-4.63,36.44-5.02c3.91-0.29,6.42,2.07,6.1,5.7C79,41.5,74,74.75,66.25,93c-3.34,7.86-9.5,1.75-11,0" /><path d="M55.46,22.82c0.51,1.17,1.41,3.79,1.28,5.27C55.75,39.25,53,62,48.07,80.71" /><path d="M15.13,50.83c1.13,0.65,3.2,0.72,4.34,0.65c11.77-0.75,49.04-2.96,70.71-3.13c1.89-0.01,3.02,0.31,3.96,0.64" /></g></g><g fill="none" stroke="#000" stroke-width="5" stroke-linecap="round" stroke-linejoin="round"><g p3:partial xmlns:p3="http://kanjivg.tagaini.net"><path d="M35.3,18.98c1.1,1.06,1.65,4.6,1.36,7.38c-1.41,13.14-6.41,37.89-9.21,48.52c-1.03,3.89,0.48,4.92,2.57,4.92c14.23-0.04,36.73,2.71,52.48,9.48" stroke-dasharray="117.52" stroke-dashoffset="117.52"><animate id="0" attributeName="stroke-dashoffset" values="117.52;0" dur="0.88s" fill="freeze" begin="0s;6bcb.click" /></path><path d="M38.15,21.27c9.6-1.02,31.36-4.63,36.44-5.02c3.91-0.29,6.42,2.07,6.1,5.7C79,41.5,74,74.75,66.25,93c-3.34,7.86-9.5,1.75-11,0" stroke-dasharray="133.36" stroke-dashoffset="133.36"><animate attributeName="stroke-dashoffset" values="133.36" fill="freeze" begin="6bcb.click" /><animate id="1" attributeName="stroke-dashoffset" values="133.36;0" dur="1s" fill="freeze" begin="0.end" /></path><path d="M55.46,22.82c0.51,1.17,1.41,3.79,1.28,5.27C55.75,39.25,53,62,48.07,80.71" stroke-dasharray="58.85" stroke-dashoffset="58.85"><animate attributeName="stroke-dashoffset" values="58.85" fill="freeze" begin="6bcb.click" /><animate id="2" attributeName="stroke-dashoffset" values="58.85;0" dur="0.59s" fill="freeze" begin="1.end" /></path><path d="M15.13,50.83c1.13,0.65,3.2,0.72,4.34,0.65c11.77-0.75,49.04-2.96,70.71-3.13c1.89-0.01,3.02,0.31,3.96,0.64" stroke-dasharray="79.26" stroke-dashoffset="79.26"><animate attributeName="stroke-dashoffset" values="79.26" fill="freeze" begin="6bcb.click" /><animate id="3" attributeName="stroke-dashoffset" values="79.26;0" dur="0.6s" fill="freeze" begin="2.end" /></path></g></g></svg>