<svg xmlns="http://www.w3.org/2000/svg" width="109" height="109" viewBox="0 0 109 109" id="6bd2"><g fill="none" stroke="#666" stroke-width="9" stroke-linecap="round" stroke-linejoin="round"><g><g p4:part="1" xmlns:p4="http://kanjivg.tagaini.net"><g><path d="M36.05,21.97c2.07,0.53,3.7,0.66,6.1,0.36c7.01-0.89,20.1-2.45,28.23-2.9c2.03-0.11,4.02-0.18,6.04,0.1" /></g><path d="M53.67,10.22c0.99,0.99,1.71,2.28,1.71,3.9c0,6.68-0.19,22.63-0.13,30.13" /><g p4:part="2"><g><path d="M34.09,33.55c1.87,0.7,4.11,0.52,6.04,0.32c7.5-0.75,21.07-2.38,28.13-2.96c2.14-0.18,4.24-0.28,6.38-0.03" /></g><g><path d="M19.13,47.77c3.42,0.78,6.92,0.65,10.38,0.32c14-1.34,36.87-3.84,50.5-4.72c3.1-0.2,7,0.01,9.62,0.42" /></g></g></g><g p4:partial xmlns:p4="http://kanjivg.tagaini.net"><path d="M39.44,55.23c1.01,0.68,1.15,2.46,0.75,4.21c-1.94,8.56-5.44,15.06-9.78,20.9c-1.59,2.13-0.48,3.57,1.45,3.46c12.77-0.78,26.65,1.11,38.52,7.71c4.06,2.26,7.89,5.07,11.37,8.52" /><path d="M41.15,56.67c1.48,0.45,3.11,0.33,3.8,0.19c10.3-2.11,20.74-3.38,24.71-3.62c3.06-0.18,5.02,1.29,4.78,3.55c-1.32,12.15-3.44,26.88-9.8,38.68c-2.31,4.28-5.84,2.57-8.61,0" /><path d="M55.97,58.57c0.53,1.05,0.53,2.43,0.27,3.54c-1.23,5.29-3.74,13.26-6.42,21.35" /><path d="M10.63,72.58c3.71,0.99,7.6,0.7,11.38,0.43C37,71.96,65.2,69.74,84.38,69.23c4.12-0.11,8.25,0.02,11.25,0.76" /></g></g></g><g fill="none" stroke="#000" stroke-width="5" stroke-linecap="round" stroke-linejoin="round"><g><g p4:part="1" xmlns:p4="http://kanjivg.tagaini.net"><g><path d="M36.05,21.97c2.07,0.53,3.7,0.66,6.1,0.36c7.01-0.89,20.1-2.45,28.23-2.9c2.03-0.11,4.02-0.18,6.04,0.1" stroke-dasharray="40.59" stroke-dashoffset="40.59"><animate id="0" attributeName="stroke-dashoffset" values="40.59;0" dur="0.41s" fill="freeze" begin="0s;6bd2.click" /></path></g><path d="M53.67,10.22c0.99,0.99,1.71,2.28,1.71,3.9c0,6.68-0.19,22.63-0.13,30.13" stroke-dasharray="34.51" stroke-dashoffset="34.51"><animate attributeName="stroke-dashoffset" values="34.51" fill="freeze" begin="6bd2.click" /><animate id="1" attributeName="stroke-dashoffset" values="34.51;0" dur="0.35s" fill="freeze" begin="0.end" /></path><g p4:part="2"><g><path d="M34.09,33.55c1.87,0.7,4.11,0.52,6.04,0.32c7.5-0.75,21.07-2.38,28.13-2.96c2.14-0.18,4.24-0.28,6.38-0.03" stroke-dasharray="40.78" stroke-dashoffset="40.78"><animate attributeName="stroke-dashoffset" values="40.78" fill="freeze" begin="6bd2.click" /><animate id="2" attributeName="stroke-dashoffset" values="40.78;0" dur="0.41s" fill="freeze" begin="1.end" /></path></g><g><path d="M19.13,47.77c3.42,0.78,6.92,0.65,10.38,0.32c14-1.34,36.87-3.84,50.5-4.72c3.1-0.2,7,0.01,9.62,0.42" stroke-dasharray="70.8" stroke-dashoffset="70.8"><animate attributeName="stroke-dashoffset" values="70.8" fill="freeze" begin="6bd2.click" /><animate id="3" attributeName="stroke-dashoffset" values="70.8;0" dur="0.53s" fill="freeze" begin="2.end" /></path></g></g></g><g p4:partial xmlns:p4="http://kanjivg.tagaini.net"><path d="M39.44,55.23c1.01,0.68,1.15,2.46,0.75,4.21c-1.94,8.56-5.44,15.06-9.78,20.9c-1.59,2.13-0.48,3.57,1.45,3.46c12.77-0.78,26.65,1.11,38.52,7.71c4.06,2.26,7.89,5.07,11.37,8.52" stroke-dasharray="86.96" stroke-dashoffset="86.96"><animate attributeName="stroke-dashoffset" values="86.96" fill="freeze" begin="6bd2.click" /><animate id="4" attributeName="stroke-dashoffset" values="86.96;0" dur="0.65s" fill="freeze" begin="3.end" /></path><path d="M41.15,56.67c1.48,0.45,3.11,0.33,3.8,0.19c10.3-2.11,20.74-3.38,24.71-3.62c3.06-0.18,5.02,1.29,4.78,3.55c-1.32,12.15-3.44,26.88-9.8,38.68c-2.31,4.28-5.84,2.57-8.61,0" stroke-dasharray="86.31" stroke-dashoffset="86.31"><animate attributeName="stroke-dashoffset" values="86.31" fill="freeze" begin="6bd2.click" /><animate id="5" attributeName="stroke-dashoffset" values="86.31;0" dur="0.65s" fill="freeze" begin="4.end" /></path><path d="M55.97,58.57c0.53,1.05,0.53,2.43,0.27,3.54c-1.23,5.29-3.74,13.26-6.42,21.35" stroke-dasharray="25.92" stroke-dashoffset="25.92"><animate attributeName="stroke-dashoffset" values="25.92" fill="freeze" begin="6bd2.click" /><animate id="6" attributeName="stroke-dashoffset" values="25.92;0" dur="0.26s" fill="freeze" begin="5.end" /></path><path d="M10.63,72.58c3.71,0.99,7.6,0.7,11.38,0.43C37,71.96,65.2,69.74,84.38,69.23c4.12-0.11,8.25,0.02,11.25,0.76" stroke-dasharray="85.24" stroke-dashoffset="85.24"><animate attributeName="stroke-dashoffset" values="85.24" fill="freeze" begin="6bd2.click" /><animate id="7" attributeName="stroke-dashoffset" values="85.24;0" dur="0.64s" fill="freeze" begin="6.end" /></path></g></g></g></svg>