<svg xmlns="http://www.w3.org/2000/svg" width="109" height="109" viewBox="0 0 109 109" id="6bd3"><g fill="none" stroke="#666" stroke-width="9" stroke-linecap="round" stroke-linejoin="round"><g><g><g><g><path d="M23.81,13.25c0.03,0.63,0.1,1.65-0.06,2.55c-1,5.48-6.44,17.64-10.65,24.37" /></g><path d="M23.49,25.42c0.73,0.16,2.85,0.25,3.56,0.16c4.08-0.53,12.4-1.77,20.14-2.59c1.19-0.13,2.71,0.07,3.32,0.15" /></g><g><path d="M21.76,38.76c0.73,0.92,1.34,4.01,0.91,6.35c-1.89,10.27-4.9,28.54-7,33.84c-1.23,3.11-0.35,4.66,1.05,4.66c11.24,0,21.77,0.39,34.12,5.76" /><path d="M22.7,40.96c0.7-0.17,2.04-0.33,2.65-0.44c6.3-1.11,15.64-2.2,19.13-2.2c1.78,0,2.75,1.8,2.63,4c-0.89,16.19-5.91,45.04-9.95,52.77c-2.17,4.15-5.42,0.9-7.15-1.83" /><path d="M29.95,48.35c1.92,1.08,4.97,4.43,5.45,6.1" /><path d="M27,68.44c2.19,1.39,5.65,5.7,6.2,7.85" /><path d="M10.14,61.14c0.66,0.4,1.87,0.44,2.53,0.4c8.58-0.54,25.77-0.93,38.4-1.04c1.1-0.01,1.76,0.19,2.31,0.39" /></g></g><g><g><g><path d="M72.75,10.75c0.77,0.42,2.05,2.03,2.05,2.87c0,3.06-0.1,8.13-0.1,11.55" /><path d="M55.44,26.28c0.98,0.07,3.22,0.48,4.17,0.38c7.7-0.79,24.04-2.56,33.81-2.77c1.62-0.03,2.44,0.03,3.64,0.48" /></g><g><path d="M72.19,28.5c0.57,0.44,0.33,2.36-0.05,2.9C69,35.75,63.5,40.75,60.25,44.5c-2.92,3.36-1.82,3.63,1.75,3c11.25-2,14.25-2.75,27.5-5" /><path d="M81.41,33.35c4.52,2.76,11.67,11.33,12.8,15.62" /></g></g><g><path d="M61.26,57.89c0.24,0.61,0.43,2.2,0.42,3.44C61.5,77.5,58.75,90,48.81,97.72" /><path d="M71.77,57.37c0.09,0.48,1.17,2.49,1.26,5.52c0.4,14.55-0.26,26.16-0.26,31.12" /><path d="M83.6,54.37c0.74,1.19,1.33,2.59,1.38,4.43c0.2,8.19-0.53,21.14-0.53,26.7c0,8.75,0.31,11.03,7.17,11.03c5.89,0,6.39-1.28,6.39-11.12" /></g></g></g></g><g fill="none" stroke="#000" stroke-width="5" stroke-linecap="round" stroke-linejoin="round"><g><g><g><g><path d="M23.81,13.25c0.03,0.63,0.1,1.65-0.06,2.55c-1,5.48-6.44,17.64-10.65,24.37" stroke-dasharray="29.25" stroke-dashoffset="29.25"><animate id="0" attributeName="stroke-dashoffset" values="29.25;0" dur="0.29s" fill="freeze" begin="0s;6bd3.click" /></path></g><path d="M23.49,25.42c0.73,0.16,2.85,0.25,3.56,0.16c4.08-0.53,12.4-1.77,20.14-2.59c1.19-0.13,2.71,0.07,3.32,0.15" stroke-dasharray="27.21" stroke-dashoffset="27.21"><animate attributeName="stroke-dashoffset" values="27.21" fill="freeze" begin="6bd3.click" /><animate id="1" attributeName="stroke-dashoffset" values="27.21;0" dur="0.27s" fill="freeze" begin="0.end" /></path></g><g><path d="M21.76,38.76c0.73,0.92,1.34,4.01,0.91,6.35c-1.89,10.27-4.9,28.54-7,33.84c-1.23,3.11-0.35,4.66,1.05,4.66c11.24,0,21.77,0.39,34.12,5.76" stroke-dasharray="81.65" stroke-dashoffset="81.65"><animate attributeName="stroke-dashoffset" values="81.65" fill="freeze" begin="6bd3.click" /><animate id="2" attributeName="stroke-dashoffset" values="81.65;0" dur="0.61s" fill="freeze" begin="1.end" /></path><path d="M22.7,40.96c0.7-0.17,2.04-0.33,2.65-0.44c6.3-1.11,15.64-2.2,19.13-2.2c1.78,0,2.75,1.8,2.63,4c-0.89,16.19-5.91,45.04-9.95,52.77c-2.17,4.15-5.42,0.9-7.15-1.83" stroke-dasharray="90.82" stroke-dashoffset="90.82"><animate attributeName="stroke-dashoffset" values="90.82" fill="freeze" begin="6bd3.click" /><animate id="3" attributeName="stroke-dashoffset" values="90.82;0" dur="0.68s" fill="freeze" begin="2.end" /></path><path d="M29.95,48.35c1.92,1.08,4.97,4.43,5.45,6.1" stroke-dasharray="8.3" stroke-dashoffset="8.3"><animate attributeName="stroke-dashoffset" values="8.3" fill="freeze" begin="6bd3.click" /><animate id="4" attributeName="stroke-dashoffset" values="8.3;0" dur="0.08s" fill="freeze" begin="3.end" /></path><path d="M27,68.44c2.19,1.39,5.65,5.7,6.2,7.85" stroke-dasharray="10.14" stroke-dashoffset="10.14"><animate attributeName="stroke-dashoffset" values="10.14" fill="freeze" begin="6bd3.click" /><animate id="5" attributeName="stroke-dashoffset" values="10.14;0" dur="0.1s" fill="freeze" begin="4.end" /></path><path d="M10.14,61.14c0.66,0.4,1.87,0.44,2.53,0.4c8.58-0.54,25.77-0.93,38.4-1.04c1.1-0.01,1.76,0.19,2.31,0.39" stroke-dasharray="43.37" stroke-dashoffset="43.37"><animate attributeName="stroke-dashoffset" values="43.37" fill="freeze" begin="6bd3.click" /><animate id="6" attributeName="stroke-dashoffset" values="43.37;0" dur="0.43s" fill="freeze" begin="5.end" /></path></g></g><g><g><g><path d="M72.75,10.75c0.77,0.42,2.05,2.03,2.05,2.87c0,3.06-0.1,8.13-0.1,11.55" stroke-dasharray="15.17" stroke-dashoffset="15.17"><animate attributeName="stroke-dashoffset" values="15.17" fill="freeze" begin="6bd3.click" /><animate id="7" attributeName="stroke-dashoffset" values="15.17;0" dur="0.15s" fill="freeze" begin="6.end" /></path><path d="M55.44,26.28c0.98,0.07,3.22,0.48,4.17,0.38c7.7-0.79,24.04-2.56,33.81-2.77c1.62-0.03,2.44,0.03,3.64,0.48" stroke-dasharray="41.82" stroke-dashoffset="41.82"><animate attributeName="stroke-dashoffset" values="41.82" fill="freeze" begin="6bd3.click" /><animate id="8" attributeName="stroke-dashoffset" values="41.82;0" dur="0.42s" fill="freeze" begin="7.end" /></path></g><g><path d="M72.19,28.5c0.57,0.44,0.33,2.36-0.05,2.9C69,35.75,63.5,40.75,60.25,44.5c-2.92,3.36-1.82,3.63,1.75,3c11.25-2,14.25-2.75,27.5-5" stroke-dasharray="55.64" stroke-dashoffset="55.64"><animate attributeName="stroke-dashoffset" values="55.64" fill="freeze" begin="6bd3.click" /><animate id="9" attributeName="stroke-dashoffset" values="55.64;0" dur="0.56s" fill="freeze" begin="8.end" /></path><path d="M81.41,33.35c4.52,2.76,11.67,11.33,12.8,15.62" stroke-dasharray="20.47" stroke-dashoffset="20.47"><animate attributeName="stroke-dashoffset" values="20.47" fill="freeze" begin="6bd3.click" /><animate id="10" attributeName="stroke-dashoffset" values="20.47;0" dur="0.2s" fill="freeze" begin="9.end" /></path></g></g><g><path d="M61.26,57.89c0.24,0.61,0.43,2.2,0.42,3.44C61.5,77.5,58.75,90,48.81,97.72" stroke-dasharray="43.49" stroke-dashoffset="43.49"><animate attributeName="stroke-dashoffset" values="43.49" fill="freeze" begin="6bd3.click" /><animate id="11" attributeName="stroke-dashoffset" values="43.49;0" dur="0.43s" fill="freeze" begin="10.end" /></path><path d="M71.77,57.37c0.09,0.48,1.17,2.49,1.26,5.52c0.4,14.55-0.26,26.16-0.26,31.12" stroke-dasharray="36.82" stroke-dashoffset="36.82"><animate attributeName="stroke-dashoffset" values="36.82" fill="freeze" begin="6bd3.click" /><animate id="12" attributeName="stroke-dashoffset" values="36.82;0" dur="0.37s" fill="freeze" begin="11.end" /></path><path d="M83.6,54.37c0.74,1.19,1.33,2.59,1.38,4.43c0.2,8.19-0.53,21.14-0.53,26.7c0,8.75,0.31,11.03,7.17,11.03c5.89,0,6.39-1.28,6.39-11.12" stroke-dasharray="62.63" stroke-dashoffset="62.63"><animate attributeName="stroke-dashoffset" values="62.63" fill="freeze" begin="6bd3.click" /><animate id="13" attributeName="stroke-dashoffset" values="62.63;0" dur="0.47s" fill="freeze" begin="12.end" /></path></g></g></g></g></svg>