<svg xmlns="http://www.w3.org/2000/svg" width="109" height="109" viewBox="0 0 109 109" id="6bd4"><g fill="none" stroke="#666" stroke-width="9" stroke-linecap="round" stroke-linejoin="round"><g><g><path d="M29.25,49.75c5.98-0.66,12-3,17.21-4.11c1.53-0.33,2.5-0.32,3.29-0.13" /><path d="M24.5,23.5c1,1,1.51,2.45,1.51,4.07c0,4.45-0.34,50.16-0.34,57.09c0,5.82-0.75,5.98,4.33,3.33c6.25-3.25,11.07-5.89,15.67-8" /></g><g><path d="M86.84,37.94c0.03,1.06-0.53,2.19-1.51,2.98C82.75,43,72.38,49.38,63.67,53.67" /><path d="M59.25,16.25c1.25,1.25,1.58,3,1.58,4.58c0,11.29-0.11,45.92-0.11,54.98c0,16.44,0.78,17.94,17.03,17.94c15.5,0,17-3,17-13.88" /></g></g></g><g fill="none" stroke="#000" stroke-width="5" stroke-linecap="round" stroke-linejoin="round"><g><g><path d="M29.25,49.75c5.98-0.66,12-3,17.21-4.11c1.53-0.33,2.5-0.32,3.29-0.13" stroke-dasharray="21.03" stroke-dashoffset="21.03"><animate id="0" attributeName="stroke-dashoffset" values="21.03;0" dur="0.21s" fill="freeze" begin="0s;6bd4.click" /></path><path d="M24.5,23.5c1,1,1.51,2.45,1.51,4.07c0,4.45-0.34,50.16-0.34,57.09c0,5.82-0.75,5.98,4.33,3.33c6.25-3.25,11.07-5.89,15.67-8" stroke-dasharray="88.52" stroke-dashoffset="88.52"><animate attributeName="stroke-dashoffset" values="88.52" fill="freeze" begin="6bd4.click" /><animate id="1" attributeName="stroke-dashoffset" values="88.52;0" dur="0.67s" fill="freeze" begin="0.end" /></path></g><g><path d="M86.84,37.94c0.03,1.06-0.53,2.19-1.51,2.98C82.75,43,72.38,49.38,63.67,53.67" stroke-dasharray="28.62" stroke-dashoffset="28.62"><animate attributeName="stroke-dashoffset" values="28.62" fill="freeze" begin="6bd4.click" /><animate id="2" attributeName="stroke-dashoffset" values="28.62;0" dur="0.29s" fill="freeze" begin="1.end" /></path><path d="M59.25,16.25c1.25,1.25,1.58,3,1.58,4.58c0,11.29-0.11,45.92-0.11,54.98c0,16.44,0.78,17.94,17.03,17.94c15.5,0,17-3,17-13.88" stroke-dasharray="117.36" stroke-dashoffset="117.36"><animate attributeName="stroke-dashoffset" values="117.36" fill="freeze" begin="6bd4.click" /><animate id="3" attributeName="stroke-dashoffset" values="117.36;0" dur="0.88s" fill="freeze" begin="2.end" /></path></g></g></g></svg>