<svg xmlns="http://www.w3.org/2000/svg" width="109" height="109" viewBox="0 0 109 109" id="6c11"><g fill="none" stroke="#666" stroke-width="9" stroke-linecap="round" stroke-linejoin="round"><g><path d="M21.89,17.96c1.98,0.92,4.61,1.29,7.49,0.96c12.78-1.48,33.28-3.93,41.51-4.66c4.36-0.39,6.23,1.61,5.37,4.65c-1.32,4.67-2.62,8.33-4.01,11.59" /><g><path d="M25.35,36.27c9.44-0.95,33.85-3.79,45.27-4.92c1.98-0.2,4.5-0.61,6.13-0.35" /><path d="M23,18.75c0.69,0.69,1.25,2.12,1.25,3.25c0,2.25-0.25,62.75-0.25,66.25s0.25,4.5,3.5,2S38.75,80,40.75,78.5" /><g><path d="M27.73,55.8c1.65-0.21,3.64-0.46,5.88-0.75c13.44-1.7,33.41-4.24,46.41-6.28c1.85-0.29,3.99-0.53,5.77-0.12" /></g><path d="M52.75,36.25c1.12,1.12,2.13,3.39,2.39,5.15c3.48,23.48,14.11,41.98,32.94,52.02c8.09,4.32,6.17-1.92,5.95-6.36" /></g></g></g><g fill="none" stroke="#000" stroke-width="5" stroke-linecap="round" stroke-linejoin="round"><g><path d="M21.89,17.96c1.98,0.92,4.61,1.29,7.49,0.96c12.78-1.48,33.28-3.93,41.51-4.66c4.36-0.39,6.23,1.61,5.37,4.65c-1.32,4.67-2.62,8.33-4.01,11.59" stroke-dasharray="70.47" stroke-dashoffset="70.47"><animate id="0" attributeName="stroke-dashoffset" values="70.47;0" dur="0.53s" fill="freeze" begin="0s;6c11.click" /></path><g><path d="M25.35,36.27c9.44-0.95,33.85-3.79,45.27-4.92c1.98-0.2,4.5-0.61,6.13-0.35" stroke-dasharray="51.69" stroke-dashoffset="51.69"><animate attributeName="stroke-dashoffset" values="51.69" fill="freeze" begin="6c11.click" /><animate id="1" attributeName="stroke-dashoffset" values="51.69;0" dur="0.52s" fill="freeze" begin="0.end" /></path><path d="M23,18.75c0.69,0.69,1.25,2.12,1.25,3.25c0,2.25-0.25,62.75-0.25,66.25s0.25,4.5,3.5,2S38.75,80,40.75,78.5" stroke-dasharray="94.27" stroke-dashoffset="94.27"><animate attributeName="stroke-dashoffset" values="94.27" fill="freeze" begin="6c11.click" /><animate id="2" attributeName="stroke-dashoffset" values="94.27;0" dur="0.71s" fill="freeze" begin="1.end" /></path><g><path d="M27.73,55.8c1.65-0.21,3.64-0.46,5.88-0.75c13.44-1.7,33.41-4.24,46.41-6.28c1.85-0.29,3.99-0.53,5.77-0.12" stroke-dasharray="58.57" stroke-dashoffset="58.57"><animate attributeName="stroke-dashoffset" values="58.57" fill="freeze" begin="6c11.click" /><animate id="3" attributeName="stroke-dashoffset" values="58.57;0" dur="0.59s" fill="freeze" begin="2.end" /></path></g><path d="M52.75,36.25c1.12,1.12,2.13,3.39,2.39,5.15c3.48,23.48,14.11,41.98,32.94,52.02c8.09,4.32,6.17-1.92,5.95-6.36" stroke-dasharray="83.26" stroke-dashoffset="83.26"><animate attributeName="stroke-dashoffset" values="83.26" fill="freeze" begin="6c11.click" /><animate id="4" attributeName="stroke-dashoffset" values="83.26;0" dur="0.63s" fill="freeze" begin="3.end" /></path></g></g></g></svg>