<svg xmlns="http://www.w3.org/2000/svg" width="109" height="109" viewBox="0 0 109 109" id="6c14"><g fill="none" stroke="#666" stroke-width="9" stroke-linecap="round" stroke-linejoin="round"><g><path d="M39.17,8.69c0.33,1.81,0.15,4.16-0.65,5.42C36.3,17.6,26,34,18.25,41" /><path d="M38.5,23.25c0.97-0.09,3.07-0.2,4.28-0.34c8.54-0.97,22.45-3.04,32.73-3.74c1.04-0.07,3.04-0.13,3.99-0.17" /><path d="M38,36.5c0.93,0.03,2.04,0.02,3.28-0.1c7.22-0.65,20.19-2.8,27.47-3.62c1.34-0.15,3.53-0.25,4.5-0.29" /><path d="M27.5,51.73c1.15,0.45,3.4,0.71,5,0.52c12.93-1.58,31.49-3.9,42.35-5.26c2.98-0.37,3.18,1.05,2.7,2.81C72.25,69,80,86,91.21,95.16c7.7,6.29,7.29,1.59,6.04-7.25" /></g></g><g fill="none" stroke="#000" stroke-width="5" stroke-linecap="round" stroke-linejoin="round"><g><path d="M39.17,8.69c0.33,1.81,0.15,4.16-0.65,5.42C36.3,17.6,26,34,18.25,41" stroke-dasharray="39.32" stroke-dashoffset="39.32"><animate id="0" attributeName="stroke-dashoffset" values="39.32;0" dur="0.39s" fill="freeze" begin="0s;6c14.click" /></path><path d="M38.5,23.25c0.97-0.09,3.07-0.2,4.28-0.34c8.54-0.97,22.45-3.04,32.73-3.74c1.04-0.07,3.04-0.13,3.99-0.17" stroke-dasharray="41.23" stroke-dashoffset="41.23"><animate attributeName="stroke-dashoffset" values="41.23" fill="freeze" begin="6c14.click" /><animate id="1" attributeName="stroke-dashoffset" values="41.23;0" dur="0.41s" fill="freeze" begin="0.end" /></path><path d="M38,36.5c0.93,0.03,2.04,0.02,3.28-0.1c7.22-0.65,20.19-2.8,27.47-3.62c1.34-0.15,3.53-0.25,4.5-0.29" stroke-dasharray="35.5" stroke-dashoffset="35.5"><animate attributeName="stroke-dashoffset" values="35.5" fill="freeze" begin="6c14.click" /><animate id="2" attributeName="stroke-dashoffset" values="35.5;0" dur="0.36s" fill="freeze" begin="1.end" /></path><path d="M27.5,51.73c1.15,0.45,3.4,0.71,5,0.52c12.93-1.58,31.49-3.9,42.35-5.26c2.98-0.37,3.18,1.05,2.7,2.81C72.25,69,80,86,91.21,95.16c7.7,6.29,7.29,1.59,6.04-7.25" stroke-dasharray="119.93" stroke-dashoffset="119.93"><animate attributeName="stroke-dashoffset" values="119.93" fill="freeze" begin="6c14.click" /><animate id="3" attributeName="stroke-dashoffset" values="119.93;0" dur="0.9s" fill="freeze" begin="2.end" /></path></g></g></svg>