<svg xmlns="http://www.w3.org/2000/svg" width="109" height="109" viewBox="0 0 109 109" id="6c50"><g fill="none" stroke="#666" stroke-width="6" stroke-linecap="round" stroke-linejoin="round"><g><g><path d="M21.38,16.5c4.45,1.69,11.5,6.96,12.62,9.59" /><path d="M14.88,40.25c4.37,1.37,11.28,5.62,12.38,7.75" /><path d="M15.62,86.61c2.12,0.77,3.37-0.17,4.48-1.75c3.23-4.6,6.46-10.23,9.39-16.1" /></g><g><path d="M65.24,18.39c0.26,0.71,0.01,2.13-0.49,3.49C61.5,30.75,53,46.25,39.31,59.47" /><path d="M65.75,28.5c1.62,0.75,3,0.75,4.78,0.58c4.39-0.43,10.84-1.33,19.31-3.58c4.3-1.14,5.75,1.43,4.41,4.53c-8.5,19.6-27.13,49.6-61.25,64.22" /><path d="M53.52,48.33c6.23,3.29,13.23,9.42,16.29,14.63" /></g></g></g><g fill="none" stroke="#000" stroke-width="3" stroke-linecap="round" stroke-linejoin="round"><path d="M21.38,16.5c4.45,1.69,11.5,6.96,12.62,9.59" stroke-dasharray="16.07" stroke-dashoffset="16.07"><animate attributeName="stroke-dashoffset" values="16.07;16.07;0" dur="0.161s" fill="freeze" begin="0s;6c50.click" /></path><path d="M14.88,40.25c4.37,1.37,11.28,5.62,12.38,7.75" stroke-dasharray="14.787" stroke-dashoffset="14.787"><animate attributeName="stroke-dashoffset" values="14.787" fill="freeze" begin="6c50.click" /><animate attributeName="stroke-dashoffset" values="14.787;14.787;0" keyTimes="0;0.521;1" dur="0.309s" fill="freeze" begin="0s;6c50.click" /></path><path d="M15.62,86.61c2.12,0.77,3.37-0.17,4.48-1.75c3.23-4.6,6.46-10.23,9.39-16.1" stroke-dasharray="23.936" stroke-dashoffset="23.936"><animate attributeName="stroke-dashoffset" values="23.936" fill="freeze" begin="6c50.click" /><animate attributeName="stroke-dashoffset" values="23.936;23.936;0" keyTimes="0;0.564;1" dur="0.548s" fill="freeze" begin="0s;6c50.click" /></path><path d="M65.24,18.39c0.26,0.71,0.01,2.13-0.49,3.49C61.5,30.75,53,46.25,39.31,59.47" stroke-dasharray="49.306" stroke-dashoffset="49.306"><animate attributeName="stroke-dashoffset" values="49.306" fill="freeze" begin="6c50.click" /><animate attributeName="stroke-dashoffset" values="49.306;49.306;0" keyTimes="0;0.526;1" dur="1.041s" fill="freeze" begin="0s;6c50.click" /></path><path d="M65.75,28.5c1.62,0.75,3,0.75,4.78,0.58c4.39-0.43,10.84-1.33,19.31-3.58c4.3-1.14,5.75,1.43,4.41,4.53c-8.5,19.6-27.13,49.6-61.25,64.22" stroke-dasharray="124.092" stroke-dashoffset="124.092"><animate attributeName="stroke-dashoffset" values="124.092" fill="freeze" begin="6c50.click" /><animate attributeName="stroke-dashoffset" values="124.092;124.092;0" keyTimes="0;0.527;1" dur="1.974s" fill="freeze" begin="0s;6c50.click" /></path><path d="M53.52,48.33c6.23,3.29,13.23,9.42,16.29,14.63" stroke-dasharray="22.124" stroke-dashoffset="22.124"><animate attributeName="stroke-dashoffset" values="22.124" fill="freeze" begin="6c50.click" /><animate attributeName="stroke-dashoffset" values="22.124;22.124;0" keyTimes="0;0.899;1" dur="2.195s" fill="freeze" begin="0s;6c50.click" /></path></g></svg>