<svg xmlns="http://www.w3.org/2000/svg" width="109" height="109" viewBox="0 0 109 109" id="6c5f"><g fill="none" stroke="#666" stroke-width="9" stroke-linecap="round" stroke-linejoin="round"><g><g><path d="M21.76,19.88c4.94,1.71,12.75,7.05,13.99,9.72" /><path d="M15.75,41.75c4.59,1.59,11.85,6.53,13,9" /><path d="M14.02,88.62c1.39,0.58,2.83,0.38,3.67-0.81C20.71,83.5,27,72.99,29.75,67.5" /></g><g p4:phon="工" xmlns:p4="http://kanjivg.tagaini.net"><path d="M44.26,36.06c2.74,0.56,5.66,0.47,7.69,0.18c6.86-0.97,20.58-3.25,27.54-4c1.9-0.21,4.38-0.12,6.14,0.21" /><path d="M64.1,37.12c1.08,1.08,1.32,2.51,1.32,5.23c0,10.16-0.05,28.59-0.05,37.03" /><path d="M34.77,82.59c2.61,1.03,6.42,0.82,9.11,0.46c13.62-1.81,28.24-3.43,42.99-4.45c2.59-0.18,6.16-0.01,8.6,1.1" /></g></g></g><g fill="none" stroke="#000" stroke-width="5" stroke-linecap="round" stroke-linejoin="round"><g><g><path d="M21.76,19.88c4.94,1.71,12.75,7.05,13.99,9.72" stroke-dasharray="17.26" stroke-dashoffset="17.26"><animate id="0" attributeName="stroke-dashoffset" values="17.26;0" dur="0.17s" fill="freeze" begin="0s;6c5f.click" /></path><path d="M15.75,41.75c4.59,1.59,11.85,6.53,13,9" stroke-dasharray="16.02" stroke-dashoffset="16.02"><animate attributeName="stroke-dashoffset" values="16.02" fill="freeze" begin="6c5f.click" /><animate id="1" attributeName="stroke-dashoffset" values="16.02;0" dur="0.16s" fill="freeze" begin="0.end" /></path><path d="M14.02,88.62c1.39,0.58,2.83,0.38,3.67-0.81C20.71,83.5,27,72.99,29.75,67.5" stroke-dasharray="27.72" stroke-dashoffset="27.72"><animate attributeName="stroke-dashoffset" values="27.72" fill="freeze" begin="6c5f.click" /><animate id="2" attributeName="stroke-dashoffset" values="27.72;0" dur="0.28s" fill="freeze" begin="1.end" /></path></g><g p4:phon="工" xmlns:p4="http://kanjivg.tagaini.net"><path d="M44.26,36.06c2.74,0.56,5.66,0.47,7.69,0.18c6.86-0.97,20.58-3.25,27.54-4c1.9-0.21,4.38-0.12,6.14,0.21" stroke-dasharray="41.72" stroke-dashoffset="41.72"><animate attributeName="stroke-dashoffset" values="41.72" fill="freeze" begin="6c5f.click" /><animate id="3" attributeName="stroke-dashoffset" values="41.72;0" dur="0.42s" fill="freeze" begin="2.end" /></path><path d="M64.1,37.12c1.08,1.08,1.32,2.51,1.32,5.23c0,10.16-0.05,28.59-0.05,37.03" stroke-dasharray="42.57" stroke-dashoffset="42.57"><animate attributeName="stroke-dashoffset" values="42.57" fill="freeze" begin="6c5f.click" /><animate id="4" attributeName="stroke-dashoffset" values="42.57;0" dur="0.43s" fill="freeze" begin="3.end" /></path><path d="M34.77,82.59c2.61,1.03,6.42,0.82,9.11,0.46c13.62-1.81,28.24-3.43,42.99-4.45c2.59-0.18,6.16-0.01,8.6,1.1" stroke-dasharray="61.18" stroke-dashoffset="61.18"><animate attributeName="stroke-dashoffset" values="61.18" fill="freeze" begin="6c5f.click" /><animate id="5" attributeName="stroke-dashoffset" values="61.18;0" dur="0.46s" fill="freeze" begin="4.end" /></path></g></g></g></svg>