<svg xmlns="http://www.w3.org/2000/svg" width="109" height="109" viewBox="0 0 109 109" id="6c6a"><g fill="none" stroke="#666" stroke-width="9" stroke-linecap="round" stroke-linejoin="round"><g><g><path d="M18.63,17c4.28,1.6,11.05,6.6,12.12,9.09" /><path d="M13.5,42c4.24,1.59,10.94,6.53,12,9" /><path d="M12.75,89.23c1.71,1.27,3.78,1.32,4.86-0.25C20.75,84.42,28.39,68.83,31.25,63" /></g><g p4:partial xmlns:p4="http://kanjivg.tagaini.net"><path d="M39.86,25.24c1.64,0.26,5.27,0.21,6.53,0.05c13.7-1.75,26.23-2.82,40.25-3.57c1.91-0.1,3.65,0.15,5.23,0.76" /><path d="M62.61,25.86c1.74,2.33,1.74,3.73,1.74,5.6c0,13.06-0.02,35.21-0.02,56.14" /><path d="M43.64,55.87c0.79,0.52,3.42,0.31,4.23,0.23c8.46-0.91,23.48-2.23,33.41-3.15c0.99-0.09,3.17-0.21,4.65,0.24" /><path d="M33.59,89.46c1.66,0.33,4.58,0.55,7.21,0.47c12.46-0.37,33.69-3.18,53.99-3.19c2.08,0,4.57,0.38,5.61,0.73" /></g></g></g><g fill="none" stroke="#000" stroke-width="5" stroke-linecap="round" stroke-linejoin="round"><g><g><path d="M18.63,17c4.28,1.6,11.05,6.6,12.12,9.09" stroke-dasharray="15.36" stroke-dashoffset="15.36"><animate id="0" attributeName="stroke-dashoffset" values="15.36;0" dur="0.15s" fill="freeze" begin="0s;6c6a.click" /></path><path d="M13.5,42c4.24,1.59,10.94,6.53,12,9" stroke-dasharray="15.21" stroke-dashoffset="15.21"><animate attributeName="stroke-dashoffset" values="15.21" fill="freeze" begin="6c6a.click" /><animate id="1" attributeName="stroke-dashoffset" values="15.21;0" dur="0.15s" fill="freeze" begin="0.end" /></path><path d="M12.75,89.23c1.71,1.27,3.78,1.32,4.86-0.25C20.75,84.42,28.39,68.83,31.25,63" stroke-dasharray="34.83" stroke-dashoffset="34.83"><animate attributeName="stroke-dashoffset" values="34.83" fill="freeze" begin="6c6a.click" /><animate id="2" attributeName="stroke-dashoffset" values="34.83;0" dur="0.35s" fill="freeze" begin="1.end" /></path></g><g p4:partial xmlns:p4="http://kanjivg.tagaini.net"><path d="M39.86,25.24c1.64,0.26,5.27,0.21,6.53,0.05c13.7-1.75,26.23-2.82,40.25-3.57c1.91-0.1,3.65,0.15,5.23,0.76" stroke-dasharray="52.28" stroke-dashoffset="52.28"><animate attributeName="stroke-dashoffset" values="52.28" fill="freeze" begin="6c6a.click" /><animate id="3" attributeName="stroke-dashoffset" values="52.28;0" dur="0.52s" fill="freeze" begin="2.end" /></path><path d="M62.61,25.86c1.74,2.33,1.74,3.73,1.74,5.6c0,13.06-0.02,35.21-0.02,56.14" stroke-dasharray="62.15" stroke-dashoffset="62.15"><animate attributeName="stroke-dashoffset" values="62.15" fill="freeze" begin="6c6a.click" /><animate id="4" attributeName="stroke-dashoffset" values="62.15;0" dur="0.47s" fill="freeze" begin="3.end" /></path><path d="M43.64,55.87c0.79,0.52,3.42,0.31,4.23,0.23c8.46-0.91,23.48-2.23,33.41-3.15c0.99-0.09,3.17-0.21,4.65,0.24" stroke-dasharray="42.52" stroke-dashoffset="42.52"><animate attributeName="stroke-dashoffset" values="42.52" fill="freeze" begin="6c6a.click" /><animate id="5" attributeName="stroke-dashoffset" values="42.52;0" dur="0.43s" fill="freeze" begin="4.end" /></path><path d="M33.59,89.46c1.66,0.33,4.58,0.55,7.21,0.47c12.46-0.37,33.69-3.18,53.99-3.19c2.08,0,4.57,0.38,5.61,0.73" stroke-dasharray="67.01" stroke-dashoffset="67.01"><animate attributeName="stroke-dashoffset" values="67.01" fill="freeze" begin="6c6a.click" /><animate id="6" attributeName="stroke-dashoffset" values="67.01;0" dur="0.5s" fill="freeze" begin="5.end" /></path></g></g></g></svg>