<svg xmlns="http://www.w3.org/2000/svg" width="109" height="109" viewBox="0 0 109 109" id="6c6a"><g fill="none" stroke="#666" stroke-width="9" stroke-linecap="round" stroke-linejoin="round"><g><g><path d="M18.63,17c4.28,1.6,11.05,6.6,12.12,9.09" /><path d="M13.5,42c4.24,1.59,10.94,6.53,12,9" /><path d="M12.75,89.23c1.71,1.27,3.78,1.32,4.86-0.25C20.75,84.42,28.39,68.83,31.25,63" /></g><g p4:partial xmlns:p4="http://kanjivg.tagaini.net"><path d="M39.86,25.24c1.64,0.26,5.27,0.21,6.53,0.05c13.7-1.75,26.23-2.82,40.25-3.57c1.91-0.1,3.65,0.15,5.23,0.76" /><path d="M62.61,25.86c1.74,2.33,1.74,3.73,1.74,5.6c0,13.06-0.02,35.21-0.02,56.14" /><path d="M43.64,55.87c0.79,0.52,3.42,0.31,4.23,0.23c8.46-0.91,23.48-2.23,33.41-3.15c0.99-0.09,3.17-0.21,4.65,0.24" /><path d="M33.59,89.46c1.66,0.33,4.58,0.55,7.21,0.47c12.46-0.37,33.69-3.18,53.99-3.19c2.08,0,4.57,0.38,5.61,0.73" /></g></g></g><g fill="none" stroke="#000" stroke-width="5" stroke-linecap="round" stroke-linejoin="round"><g><g><path d="M18.63,17c4.28,1.6,11.05,6.6,12.12,9.09" stroke-dasharray="15.36" stroke-dashoffset="15.36"><animate attributeName="stroke-dashoffset" values="15.36;15.36;0" dur="0.154s" fill="freeze" begin="0s;6c6a.click" /></path><path d="M13.5,42c4.24,1.59,10.94,6.53,12,9" stroke-dasharray="15.208" stroke-dashoffset="15.208"><animate attributeName="stroke-dashoffset" values="15.208" fill="freeze" begin="6c6a.click" /><animate attributeName="stroke-dashoffset" values="15.208;15.208;0" keyTimes="0;0.503;1" dur="0.306s" fill="freeze" begin="0s;6c6a.click" /></path><path d="M12.75,89.23c1.71,1.27,3.78,1.32,4.86-0.25C20.75,84.42,28.39,68.83,31.25,63" stroke-dasharray="34.832" stroke-dashoffset="34.832"><animate attributeName="stroke-dashoffset" values="34.832" fill="freeze" begin="6c6a.click" /><animate attributeName="stroke-dashoffset" values="34.832;34.832;0" keyTimes="0;0.468;1" dur="0.654s" fill="freeze" begin="0s;6c6a.click" /></path></g><g p4:partial xmlns:p4="http://kanjivg.tagaini.net"><path d="M39.86,25.24c1.64,0.26,5.27,0.21,6.53,0.05c13.7-1.75,26.23-2.82,40.25-3.57c1.91-0.1,3.65,0.15,5.23,0.76" stroke-dasharray="52.285" stroke-dashoffset="52.285"><animate attributeName="stroke-dashoffset" values="52.285" fill="freeze" begin="6c6a.click" /><animate attributeName="stroke-dashoffset" values="52.285;52.285;0" keyTimes="0;0.556;1" dur="1.177s" fill="freeze" begin="0s;6c6a.click" /></path><path d="M62.61,25.86c1.74,2.33,1.74,3.73,1.74,5.6c0,13.06-0.02,35.21-0.02,56.14" stroke-dasharray="62.147" stroke-dashoffset="62.147"><animate attributeName="stroke-dashoffset" values="62.147" fill="freeze" begin="6c6a.click" /><animate attributeName="stroke-dashoffset" values="62.147;62.147;0" keyTimes="0;0.716;1" dur="1.644s" fill="freeze" begin="0s;6c6a.click" /></path><path d="M43.64,55.87c0.79,0.52,3.42,0.31,4.23,0.23c8.46-0.91,23.48-2.23,33.41-3.15c0.99-0.09,3.17-0.21,4.65,0.24" stroke-dasharray="42.523" stroke-dashoffset="42.523"><animate attributeName="stroke-dashoffset" values="42.523" fill="freeze" begin="6c6a.click" /><animate attributeName="stroke-dashoffset" values="42.523;42.523;0" keyTimes="0;0.795;1" dur="2.069s" fill="freeze" begin="0s;6c6a.click" /></path><path d="M33.59,89.46c1.66,0.33,4.58,0.55,7.21,0.47c12.46-0.37,33.69-3.18,53.99-3.19c2.08,0,4.57,0.38,5.61,0.73" stroke-dasharray="67.011" stroke-dashoffset="67.011"><animate attributeName="stroke-dashoffset" values="67.011" fill="freeze" begin="6c6a.click" /><animate attributeName="stroke-dashoffset" values="67.011;67.011;0" keyTimes="0;0.804;1" dur="2.573s" fill="freeze" begin="0s;6c6a.click" /></path></g></g></g></svg>