<svg xmlns="http://www.w3.org/2000/svg" width="109" height="109" viewBox="0 0 109 109" id="6c9b"><g fill="none" stroke="#666" stroke-width="9" stroke-linecap="round" stroke-linejoin="round"><g><g><path d="M19.13,17.25c4.1,1.65,10.59,6.78,11.62,9.34" /><path d="M13.5,41.25c4.24,1.63,10.94,6.21,12,8.75" /><path d="M13.25,85.73c1.71,1.27,3.78,1.32,4.86-0.25c3.14-4.57,6.29-10.16,9.14-15.99" /></g><g><g p5:partial xmlns:p5="http://kanjivg.tagaini.net"><path d="M39.75,27.98c1.03,0.1,3.38,0.67,4.38,0.53c8.09-1.11,36.81-4.2,47.79-4.48c1.7-0.05,2.56,0.04,3.83,0.68" /></g><g><path d="M43.67,41.81c0.84,0.46,2.14,2.98,2.3,3.92c0.17,0.93,1.39,28.65,1.22,34.47" /><path d="M45.99,44.54c3.68-0.3,37.96-4.5,40.69-4.79c2.32-0.25,3.73,1.81,3.81,3.79C90.9,54.12,90.5,63,88.54,73.27c-1.68,8.81-5.07,3.48-7.4,0.05" /><path d="M 63.98,11.25 c 0.82,0.59 2.15,2.85 2.15,4.02 0.255379,11.349692 0.207795,74.512537 0.23,84.86" /></g></g></g></g><g fill="none" stroke="#000" stroke-width="5" stroke-linecap="round" stroke-linejoin="round"><g><g><path d="M19.13,17.25c4.1,1.65,10.59,6.78,11.62,9.34" stroke-dasharray="15.12" stroke-dashoffset="15.12"><animate id="0" attributeName="stroke-dashoffset" values="15.12;0" dur="0.15s" fill="freeze" begin="0s;6c9b.click" /></path><path d="M13.5,41.25c4.24,1.63,10.94,6.21,12,8.75" stroke-dasharray="15.06" stroke-dashoffset="15.06"><animate attributeName="stroke-dashoffset" values="15.06" fill="freeze" begin="6c9b.click" /><animate id="1" attributeName="stroke-dashoffset" values="15.06;0" dur="0.15s" fill="freeze" begin="0.end" /></path><path d="M13.25,85.73c1.71,1.27,3.78,1.32,4.86-0.25c3.14-4.57,6.29-10.16,9.14-15.99" stroke-dasharray="23.91" stroke-dashoffset="23.91"><animate attributeName="stroke-dashoffset" values="23.91" fill="freeze" begin="6c9b.click" /><animate id="2" attributeName="stroke-dashoffset" values="23.91;0" dur="0.24s" fill="freeze" begin="1.end" /></path></g><g><g p5:partial xmlns:p5="http://kanjivg.tagaini.net"><path d="M39.75,27.98c1.03,0.1,3.38,0.67,4.38,0.53c8.09-1.11,36.81-4.2,47.79-4.48c1.7-0.05,2.56,0.04,3.83,0.68" stroke-dasharray="56.38" stroke-dashoffset="56.38"><animate attributeName="stroke-dashoffset" values="56.38" fill="freeze" begin="6c9b.click" /><animate id="3" attributeName="stroke-dashoffset" values="56.38;0" dur="0.56s" fill="freeze" begin="2.end" /></path></g><g><path d="M43.67,41.81c0.84,0.46,2.14,2.98,2.3,3.92c0.17,0.93,1.39,28.65,1.22,34.47" stroke-dasharray="39.11" stroke-dashoffset="39.11"><animate attributeName="stroke-dashoffset" values="39.11" fill="freeze" begin="6c9b.click" /><animate id="4" attributeName="stroke-dashoffset" values="39.11;0" dur="0.39s" fill="freeze" begin="3.end" /></path><path d="M45.99,44.54c3.68-0.3,37.96-4.5,40.69-4.79c2.32-0.25,3.73,1.81,3.81,3.79C90.9,54.12,90.5,63,88.54,73.27c-1.68,8.81-5.07,3.48-7.4,0.05" stroke-dasharray="89.64" stroke-dashoffset="89.64"><animate attributeName="stroke-dashoffset" values="89.64" fill="freeze" begin="6c9b.click" /><animate id="5" attributeName="stroke-dashoffset" values="89.64;0" dur="0.67s" fill="freeze" begin="4.end" /></path><path d="M 63.98,11.25 c 0.82,0.59 2.15,2.85 2.15,4.02 0.255379,11.349692 0.207795,74.512537 0.23,84.86" stroke-dasharray="89.52" stroke-dashoffset="89.52"><animate attributeName="stroke-dashoffset" values="89.52" fill="freeze" begin="6c9b.click" /><animate id="6" attributeName="stroke-dashoffset" values="89.52;0" dur="0.67s" fill="freeze" begin="5.end" /></path></g></g></g></g></svg>