<svg xmlns="http://www.w3.org/2000/svg" viewBox="0 0 109 109" id="6cb9"><g fill="none" stroke="#666" stroke-width="6" stroke-linecap="round" stroke-linejoin="round"><g><g><path d="M22.38,15.75c3.31,1.47,8.54,6.05,9.37,8.34" /><path d="M14.75,37c3.62,1.41,9.34,5.8,10.25,8" /><path d="M13.25,89c1.52,0.25,2.96-0.26,3.88-1.65c4.34-6.6,8.68-14.67,12.62-23.09" /></g><g p4:phon="由" xmlns:p4="http://kanjivg.tagaini.net"><g p4:partial><path d="M41.5,42.08c0.96,0.96,1.8,2.11,1.85,3.15c0.6,12.27,1.17,24.52,1.97,39.14c0.07,1.34,0.15,2.71,0.22,4.09" /><path d="M44.3,44.1c14.86-1.95,33-3.84,43.57-4.76c5.05-0.44,7.43,0.86,6.92,6.16c-0.78,8.1-2.56,24.34-4.42,35.89c-0.32,1.97-0.63,3.8-0.95,5.44" /></g><g><path d="M65.56,16.61c1.23,1.23,1.84,2.91,1.84,4.35c0.03,14.16-0.06,58.13-0.06,61.83" /></g><g p4:partial><path d="M45.42,63.12c9.08-0.99,35.96-3.24,46.81-3.53" /><path d="M46.49,85.11c11.14-0.59,29.11-2.05,42.55-2.27" /></g></g></g></g><g fill="none" stroke="#000" stroke-width="3" stroke-linecap="round" stroke-linejoin="round"><path d="M22.38,15.75c3.31,1.47,8.54,6.05,9.37,8.34" stroke-dasharray="12.727" stroke-dashoffset="12.727"><animate attributeName="stroke-dashoffset" values="12.727;12.727;0" dur="0.255s" fill="freeze" begin="0s;6cb9.click" /></path><path d="M14.75,37c3.62,1.41,9.34,5.8,10.25,8" stroke-dasharray="13.186" stroke-dashoffset="13.186"><animate attributeName="stroke-dashoffset" values="13.186" fill="freeze" begin="6cb9.click" /><animate attributeName="stroke-dashoffset" values="13.186;13.186;0" keyTimes="0;0.491;1" dur="0.519s" fill="freeze" begin="0s;6cb9.click" /></path><path d="M13.25,89c1.52,0.25,2.96-0.26,3.88-1.65c4.34-6.6,8.68-14.67,12.62-23.09" stroke-dasharray="30.813" stroke-dashoffset="30.813"><animate attributeName="stroke-dashoffset" values="30.813" fill="freeze" begin="6cb9.click" /><animate attributeName="stroke-dashoffset" values="30.813;30.813;0" keyTimes="0;0.628;1" dur="0.827s" fill="freeze" begin="0s;6cb9.click" /></path><path d="M41.5,42.08c0.96,0.96,1.8,2.11,1.85,3.15c0.6,12.27,1.17,24.52,1.97,39.14c0.07,1.34,0.15,2.71,0.22,4.09" stroke-dasharray="47.014" stroke-dashoffset="47.014"><animate attributeName="stroke-dashoffset" values="47.014" fill="freeze" begin="6cb9.click" /><animate attributeName="stroke-dashoffset" values="47.014;47.014;0" keyTimes="0;0.638;1" dur="1.297s" fill="freeze" begin="0s;6cb9.click" /></path><path d="M44.3,44.1c14.86-1.95,33-3.84,43.57-4.76c5.05-0.44,7.43,0.86,6.92,6.16c-0.78,8.1-2.56,24.34-4.42,35.89c-0.32,1.97-0.63,3.8-0.95,5.44" stroke-dasharray="96.914" stroke-dashoffset="96.914"><animate attributeName="stroke-dashoffset" values="96.914" fill="freeze" begin="6cb9.click" /><animate attributeName="stroke-dashoffset" values="96.914;96.914;0" keyTimes="0;0.64;1" dur="2.026s" fill="freeze" begin="0s;6cb9.click" /></path><path d="M65.56,16.61c1.23,1.23,1.84,2.91,1.84,4.35c0.03,14.16-0.06,58.13-0.06,61.83" stroke-dasharray="66.672" stroke-dashoffset="66.672"><animate attributeName="stroke-dashoffset" values="66.672" fill="freeze" begin="6cb9.click" /><animate attributeName="stroke-dashoffset" values="66.672;66.672;0" keyTimes="0;0.802;1" dur="2.527s" fill="freeze" begin="0s;6cb9.click" /></path><path d="M45.42,63.12c9.08-0.99,35.96-3.24,46.81-3.53" stroke-dasharray="46.951" stroke-dashoffset="46.951"><animate attributeName="stroke-dashoffset" values="46.951" fill="freeze" begin="6cb9.click" /><animate attributeName="stroke-dashoffset" values="46.951;46.951;0" keyTimes="0;0.843;1" dur="2.997s" fill="freeze" begin="0s;6cb9.click" /></path><path d="M46.49,85.11c11.14-0.59,29.11-2.05,42.55-2.27" stroke-dasharray="42.615" stroke-dashoffset="42.615"><animate attributeName="stroke-dashoffset" values="42.615" fill="freeze" begin="6cb9.click" /><animate attributeName="stroke-dashoffset" values="42.615;42.615;0" keyTimes="0;0.876;1" dur="3.423s" fill="freeze" begin="0s;6cb9.click" /></path></g></svg>