<svg xmlns="http://www.w3.org/2000/svg" viewBox="0 0 109 109" id="6cbf"><g fill="none" stroke="#666" stroke-width="6" stroke-linecap="round" stroke-linejoin="round"><g><g><path d="M21.13,17.75c3.48,1.38,8.99,5.69,9.87,7.84" /><path d="M15.75,41.25c3.71,1.23,9.57,5.08,10.5,7" /><path d="M15.5,88.01c1.5,0.4,3.27-0.45,4.04-1.91c2.91-5.53,5.81-12.29,8.46-19.34" /></g><g p4:phon="㕣" xmlns:p4="http://kanjivg.tagaini.net"><g><g><path d="M54.14,22.15c0.25,0.87,0.24,2.15-0.1,3.18c-2.29,7.04-6.92,17.92-14.76,25.92" /></g><g><path d="M66.5,16.25C71.2,16.69,80.3,35.06,86.96,43.2c2.22,2.72,4.29,4.67,6.51,6.6" /></g></g><g><path d="M45.75,60.85c0.76,0.76,1.1,1.77,1.26,2.7c1.12,6.82,1.92,13.75,2.78,22.19c0.19,1.9,0.38,3.67,0.56,5.21" /><path d="M47.8,62.46c11.95-1.58,25.08-2.58,33.7-3.2c3.53-0.25,5,1.49,4.35,4.12c-1.68,6.75-2.85,13.13-4.54,21.4" /><path d="M51.24,88.13c6.83-0.32,16.38-1.13,26.77-1.77c1.62-0.1,3.44-0.25,4.93-0.36" /></g></g></g></g><g fill="none" stroke="#000" stroke-width="3" stroke-linecap="round" stroke-linejoin="round"><path d="M21.13,17.75c3.48,1.38,8.99,5.69,9.87,7.84" stroke-dasharray="12.782" stroke-dashoffset="12.782"><animate attributeName="stroke-dashoffset" values="12.782;12.782;0" dur="0.256s" fill="freeze" begin="0s;6cbf.click" /></path><path d="M15.75,41.25c3.71,1.23,9.57,5.08,10.5,7" stroke-dasharray="12.784" stroke-dashoffset="12.784"><animate attributeName="stroke-dashoffset" values="12.784" fill="freeze" begin="6cbf.click" /><animate attributeName="stroke-dashoffset" values="12.784;12.784;0" keyTimes="0;0.5;1" dur="0.512s" fill="freeze" begin="0s;6cbf.click" /></path><path d="M15.5,88.01c1.5,0.4,3.27-0.45,4.04-1.91c2.91-5.53,5.81-12.29,8.46-19.34" stroke-dasharray="25.925" stroke-dashoffset="25.925"><animate attributeName="stroke-dashoffset" values="25.925" fill="freeze" begin="6cbf.click" /><animate attributeName="stroke-dashoffset" values="25.925;25.925;0" keyTimes="0;0.664;1" dur="0.771s" fill="freeze" begin="0s;6cbf.click" /></path><path d="M54.14,22.15c0.25,0.87,0.24,2.15-0.1,3.18c-2.29,7.04-6.92,17.92-14.76,25.92" stroke-dasharray="33.304" stroke-dashoffset="33.304"><animate attributeName="stroke-dashoffset" values="33.304" fill="freeze" begin="6cbf.click" /><animate attributeName="stroke-dashoffset" values="33.304;33.304;0" keyTimes="0;0.698;1" dur="1.104s" fill="freeze" begin="0s;6cbf.click" /></path><path d="M66.5,16.25C71.2,16.69,80.3,35.06,86.96,43.2c2.22,2.72,4.29,4.67,6.51,6.6" stroke-dasharray="43.47" stroke-dashoffset="43.47"><animate attributeName="stroke-dashoffset" values="43.47" fill="freeze" begin="6cbf.click" /><animate attributeName="stroke-dashoffset" values="43.47;43.47;0" keyTimes="0;0.717;1" dur="1.539s" fill="freeze" begin="0s;6cbf.click" /></path><path d="M45.75,60.85c0.76,0.76,1.1,1.77,1.26,2.7c1.12,6.82,1.92,13.75,2.78,22.19c0.19,1.9,0.38,3.67,0.56,5.21" stroke-dasharray="30.636" stroke-dashoffset="30.636"><animate attributeName="stroke-dashoffset" values="30.636" fill="freeze" begin="6cbf.click" /><animate attributeName="stroke-dashoffset" values="30.636;30.636;0" keyTimes="0;0.834;1" dur="1.845s" fill="freeze" begin="0s;6cbf.click" /></path><path d="M47.8,62.46c11.95-1.58,25.08-2.58,33.7-3.2c3.53-0.25,5,1.49,4.35,4.12c-1.68,6.75-2.85,13.13-4.54,21.4" stroke-dasharray="63.071" stroke-dashoffset="63.071"><animate attributeName="stroke-dashoffset" values="63.071" fill="freeze" begin="6cbf.click" /><animate attributeName="stroke-dashoffset" values="63.071;63.071;0" keyTimes="0;0.796;1" dur="2.319s" fill="freeze" begin="0s;6cbf.click" /></path><path d="M51.24,88.13c6.83-0.32,16.38-1.13,26.77-1.77c1.62-0.1,3.44-0.25,4.93-0.36" stroke-dasharray="31.773" stroke-dashoffset="31.773"><animate attributeName="stroke-dashoffset" values="31.773" fill="freeze" begin="6cbf.click" /><animate attributeName="stroke-dashoffset" values="31.773;31.773;0" keyTimes="0;0.879;1" dur="2.637s" fill="freeze" begin="0s;6cbf.click" /></path></g></svg>