<svg xmlns="http://www.w3.org/2000/svg" width="109" height="109" viewBox="0 0 109 109" id="6ccc"><g fill="none" stroke="#666" stroke-width="9" stroke-linecap="round" stroke-linejoin="round"><g><g><path d="M22,16.88c4.5,1.45,11.62,5.96,12.75,8.22" /><path d="M16.25,37.25c4.5,1.41,11.62,5.8,12.75,8" /><path d="M13.88,86.52c1.67,0.8,2.95,0.19,3.95-1.12c3.37-4.37,6.73-9.7,9.8-15.27" /></g><g p4:phon="必" xmlns:p4="http://kanjivg.tagaini.net"><g><path d="M54.36,24.5c2.89,6.5,6.64,9.75,7.58,3.97" /><g><path d="M77.65,22.93C78,24,78.3,24.76,77.91,27.19c-2.79,17.31-14.66,55.06-41.7,68.53" /></g><g><path d="M51.37,38.97C56.25,69.5,62.62,84.12,83.5,90.25c10.25,3.01,11.25,0.75,4.46-8.63" /><path d="M45.76,57.32c0.33,2.47-3.33,13.36-5.99,17.48" /><path d="M85.56,48.92c3.49,3.06,7.63,9.33,8.94,15.3" /></g></g></g></g></g><g fill="none" stroke="#000" stroke-width="5" stroke-linecap="round" stroke-linejoin="round"><g><g><path d="M22,16.88c4.5,1.45,11.62,5.96,12.75,8.22" stroke-dasharray="15.363" stroke-dashoffset="15.363"><animate attributeName="stroke-dashoffset" values="15.363;15.363;0" dur="0.154s" fill="freeze" begin="0s;6ccc.click" /></path><path d="M16.25,37.25c4.5,1.41,11.62,5.8,12.75,8" stroke-dasharray="15.24" stroke-dashoffset="15.24"><animate attributeName="stroke-dashoffset" values="15.24" fill="freeze" begin="6ccc.click" /><animate attributeName="stroke-dashoffset" values="15.24;15.24;0" keyTimes="0;0.503;1" dur="0.306s" fill="freeze" begin="0s;6ccc.click" /></path><path d="M13.88,86.52c1.67,0.8,2.95,0.19,3.95-1.12c3.37-4.37,6.73-9.7,9.8-15.27" stroke-dasharray="22.682" stroke-dashoffset="22.682"><animate attributeName="stroke-dashoffset" values="22.682" fill="freeze" begin="6ccc.click" /><animate attributeName="stroke-dashoffset" values="22.682;22.682;0" keyTimes="0;0.574;1" dur="0.533s" fill="freeze" begin="0s;6ccc.click" /></path></g><g p4:phon="必" xmlns:p4="http://kanjivg.tagaini.net"><g><path d="M54.36,24.5c2.89,6.5,6.64,9.75,7.58,3.97" stroke-dasharray="13.142" stroke-dashoffset="13.142"><animate attributeName="stroke-dashoffset" values="13.142" fill="freeze" begin="6ccc.click" /><animate attributeName="stroke-dashoffset" values="13.142;13.142;0" keyTimes="0;0.803;1" dur="0.664s" fill="freeze" begin="0s;6ccc.click" /></path><g><path d="M77.65,22.93C78,24,78.3,24.76,77.91,27.19c-2.79,17.31-14.66,55.06-41.7,68.53" stroke-dasharray="87.249" stroke-dashoffset="87.249"><animate attributeName="stroke-dashoffset" values="87.249" fill="freeze" begin="6ccc.click" /><animate attributeName="stroke-dashoffset" values="87.249;87.249;0" keyTimes="0;0.503;1" dur="1.32s" fill="freeze" begin="0s;6ccc.click" /></path></g><g><path d="M51.37,38.97C56.25,69.5,62.62,84.12,83.5,90.25c10.25,3.01,11.25,0.75,4.46-8.63" stroke-dasharray="83.928" stroke-dashoffset="83.928"><animate attributeName="stroke-dashoffset" values="83.928" fill="freeze" begin="6ccc.click" /><animate attributeName="stroke-dashoffset" values="83.928;83.928;0" keyTimes="0;0.677;1" dur="1.951s" fill="freeze" begin="0s;6ccc.click" /></path><path d="M45.76,57.32c0.33,2.47-3.33,13.36-5.99,17.48" stroke-dasharray="18.618" stroke-dashoffset="18.618"><animate attributeName="stroke-dashoffset" values="18.618" fill="freeze" begin="6ccc.click" /><animate attributeName="stroke-dashoffset" values="18.618;18.618;0" keyTimes="0;0.913;1" dur="2.137s" fill="freeze" begin="0s;6ccc.click" /></path><path d="M85.56,48.92c3.49,3.06,7.63,9.33,8.94,15.3" stroke-dasharray="17.971" stroke-dashoffset="17.971"><animate attributeName="stroke-dashoffset" values="17.971" fill="freeze" begin="6ccc.click" /><animate attributeName="stroke-dashoffset" values="17.971;17.971;0" keyTimes="0;0.922;1" dur="2.317s" fill="freeze" begin="0s;6ccc.click" /></path></g></g></g></g></g></svg>