<svg xmlns="http://www.w3.org/2000/svg" width="109" height="109" viewBox="0 0 109 109" id="6cdd"><g fill="none" stroke="#666" stroke-width="9" stroke-linecap="round" stroke-linejoin="round"><g><g><path d="M21.13,16.5c4.28,1.87,11.05,7.68,12.12,10.59" /><path d="M16.25,41c4.5,1.94,11.62,7.98,12.75,11" /><path d="M15.25,87.79c1.84,1.2,4.05,1.25,5.2-0.23c3.37-4.3,6.73-9.57,9.8-15.06" /></g><g><g><path d="M81.58,12.5c-0.08,1.5-1.12,2.1-1.68,2.5c-7.6,5.49-15.32,8.16-31.36,12.88" /><path d="M46,26.29c1.48,2.07,1.45,4.04,1.45,6.29c0,25.92-1.2,45.67-14.19,60.2" /><path d="M48.28,42.5c2.34,0,3.9-0.11,5.36-0.25c8.07-0.8,25.53-2.61,34.71-3.01c1.47-0.06,4.03-0.13,4.95,0" /><path d="M69.5,43.6c1,0.61,1.61,2.77,1.81,3.99s0,43.97-0.2,51.65" /></g><g><path d="M58.41,56.48c10.7,3.65,27.65,15.03,30.33,20.72" /></g></g></g></g><g fill="none" stroke="#000" stroke-width="5" stroke-linecap="round" stroke-linejoin="round"><g><g><path d="M21.13,16.5c4.28,1.87,11.05,7.68,12.12,10.59" stroke-dasharray="16.329" stroke-dashoffset="16.329"><animate attributeName="stroke-dashoffset" values="16.329;16.329;0" dur="0.163s" fill="freeze" begin="0s;6cdd.click" /></path><path d="M16.25,41c4.5,1.94,11.62,7.98,12.75,11" stroke-dasharray="17.082" stroke-dashoffset="17.082"><animate attributeName="stroke-dashoffset" values="17.082" fill="freeze" begin="6cdd.click" /><animate attributeName="stroke-dashoffset" values="17.082;17.082;0" keyTimes="0;0.488;1" dur="0.334s" fill="freeze" begin="0s;6cdd.click" /></path><path d="M15.25,87.79c1.84,1.2,4.05,1.25,5.2-0.23c3.37-4.3,6.73-9.57,9.8-15.06" stroke-dasharray="23.711" stroke-dashoffset="23.711"><animate attributeName="stroke-dashoffset" values="23.711" fill="freeze" begin="6cdd.click" /><animate attributeName="stroke-dashoffset" values="23.711;23.711;0" keyTimes="0;0.585;1" dur="0.571s" fill="freeze" begin="0s;6cdd.click" /></path></g><g><g><path d="M81.58,12.5c-0.08,1.5-1.12,2.1-1.68,2.5c-7.6,5.49-15.32,8.16-31.36,12.88" stroke-dasharray="37.227" stroke-dashoffset="37.227"><animate attributeName="stroke-dashoffset" values="37.227" fill="freeze" begin="6cdd.click" /><animate attributeName="stroke-dashoffset" values="37.227;37.227;0" keyTimes="0;0.606;1" dur="0.943s" fill="freeze" begin="0s;6cdd.click" /></path><path d="M46,26.29c1.48,2.07,1.45,4.04,1.45,6.29c0,25.92-1.2,45.67-14.19,60.2" stroke-dasharray="69.911" stroke-dashoffset="69.911"><animate attributeName="stroke-dashoffset" values="69.911" fill="freeze" begin="6cdd.click" /><animate attributeName="stroke-dashoffset" values="69.911;69.911;0" keyTimes="0;0.642;1" dur="1.469s" fill="freeze" begin="0s;6cdd.click" /></path><path d="M48.28,42.5c2.34,0,3.9-0.11,5.36-0.25c8.07-0.8,25.53-2.61,34.71-3.01c1.47-0.06,4.03-0.13,4.95,0" stroke-dasharray="45.167" stroke-dashoffset="45.167"><animate attributeName="stroke-dashoffset" values="45.167" fill="freeze" begin="6cdd.click" /><animate attributeName="stroke-dashoffset" values="45.167;45.167;0" keyTimes="0;0.765;1" dur="1.921s" fill="freeze" begin="0s;6cdd.click" /></path><path d="M69.5,43.6c1,0.61,1.61,2.77,1.81,3.99s0,43.97-0.2,51.65" stroke-dasharray="56.134" stroke-dashoffset="56.134"><animate attributeName="stroke-dashoffset" values="56.134" fill="freeze" begin="6cdd.click" /><animate attributeName="stroke-dashoffset" values="56.134;56.134;0" keyTimes="0;0.774;1" dur="2.482s" fill="freeze" begin="0s;6cdd.click" /></path></g><g><path d="M58.41,56.48c10.7,3.65,27.65,15.03,30.33,20.72" stroke-dasharray="37.216" stroke-dashoffset="37.216"><animate attributeName="stroke-dashoffset" values="37.216" fill="freeze" begin="6cdd.click" /><animate attributeName="stroke-dashoffset" values="37.216;37.216;0" keyTimes="0;0.87;1" dur="2.854s" fill="freeze" begin="0s;6cdd.click" /></path></g></g></g></g></svg>