<svg xmlns="http://www.w3.org/2000/svg" width="109" height="109" viewBox="0 0 109 109" id="6ce1"><g fill="none" stroke="#666" stroke-width="9" stroke-linecap="round" stroke-linejoin="round"><g><g><path d="M21.62,15.38c4.37,1.49,11.28,6.14,12.38,8.47" /><path d="M15.75,38.5c4.24,1.63,10.94,6.71,12,9.25" /><path d="M14.5,94.48c1.62,0.52,3.11-0.12,4.11-1.75c3.14-5.11,5.79-9.91,8.64-15.74" /></g><g p4:phon="包" xmlns:p4="http://kanjivg.tagaini.net"><g><g><path d="M57.89,12.75c0.07,1.13,0.09,2.1-0.3,3.18c-2.71,7.44-8.44,19.09-16.11,28.52" /></g><path d="M54.73,29.23c2.52,0.77,5.24,0.45,7.39,0.13c6.38-0.96,19.9-3.43,25.37-4.21c4-0.57,5.96,0.93,5.72,5.1c-0.52,8.81-2.57,22.56-6.13,35.08c-1.59,5.62-3.33,6.76-7.58,2.24" /></g><g><path d="M49.48,46.27c2.3,0.89,3.7,0.77,6.15,0.37c5.13-0.84,14.49-2.31,15.58-2.42c1.62-0.16,2.92,1.05,2.32,3.52c-0.52,2.14-2.02,9.01-3.6,15.5" /><path d="M48.08,65.14c0.94,0.24,2.3,0.91,3.92,0.87c5.5-0.13,11.14-0.96,16-1.54c2.06-0.25,3-0.35,4.38-0.05" /><path d="M48.99,66.53c0.93,0.93,1.1,1.93,1.09,3.65C50.05,75.69,50,81.7,50,85.5c0,10.45,1.25,11.19,22.82,11.19c20.93,0,22.21-1.81,22.21-13.09" /></g></g></g></g><g fill="none" stroke="#000" stroke-width="5" stroke-linecap="round" stroke-linejoin="round"><g><g><path d="M21.62,15.38c4.37,1.49,11.28,6.14,12.38,8.47" stroke-dasharray="15.2" stroke-dashoffset="15.2"><animate id="0" attributeName="stroke-dashoffset" values="15.2;0" dur="0.15s" fill="freeze" begin="0s;6ce1.click" /></path><path d="M15.75,38.5c4.24,1.63,10.94,6.71,12,9.25" stroke-dasharray="15.36" stroke-dashoffset="15.36"><animate attributeName="stroke-dashoffset" values="15.36" fill="freeze" begin="6ce1.click" /><animate id="1" attributeName="stroke-dashoffset" values="15.36;0" dur="0.15s" fill="freeze" begin="0.end" /></path><path d="M14.5,94.48c1.62,0.52,3.11-0.12,4.11-1.75c3.14-5.11,5.79-9.91,8.64-15.74" stroke-dasharray="22.82" stroke-dashoffset="22.82"><animate attributeName="stroke-dashoffset" values="22.82" fill="freeze" begin="6ce1.click" /><animate id="2" attributeName="stroke-dashoffset" values="22.82;0" dur="0.23s" fill="freeze" begin="1.end" /></path></g><g p4:phon="包" xmlns:p4="http://kanjivg.tagaini.net"><g><g><path d="M57.89,12.75c0.07,1.13,0.09,2.1-0.3,3.18c-2.71,7.44-8.44,19.09-16.11,28.52" stroke-dasharray="36.11" stroke-dashoffset="36.11"><animate attributeName="stroke-dashoffset" values="36.11" fill="freeze" begin="6ce1.click" /><animate id="3" attributeName="stroke-dashoffset" values="36.11;0" dur="0.36s" fill="freeze" begin="2.end" /></path></g><path d="M54.73,29.23c2.52,0.77,5.24,0.45,7.39,0.13c6.38-0.96,19.9-3.43,25.37-4.21c4-0.57,5.96,0.93,5.72,5.1c-0.52,8.81-2.57,22.56-6.13,35.08c-1.59,5.62-3.33,6.76-7.58,2.24" stroke-dasharray="89.76" stroke-dashoffset="89.76"><animate attributeName="stroke-dashoffset" values="89.76" fill="freeze" begin="6ce1.click" /><animate id="4" attributeName="stroke-dashoffset" values="89.76;0" dur="0.67s" fill="freeze" begin="3.end" /></path></g><g><path d="M49.48,46.27c2.3,0.89,3.7,0.77,6.15,0.37c5.13-0.84,14.49-2.31,15.58-2.42c1.62-0.16,2.92,1.05,2.32,3.52c-0.52,2.14-2.02,9.01-3.6,15.5" stroke-dasharray="43.03" stroke-dashoffset="43.03"><animate attributeName="stroke-dashoffset" values="43.03" fill="freeze" begin="6ce1.click" /><animate id="5" attributeName="stroke-dashoffset" values="43.03;0" dur="0.43s" fill="freeze" begin="4.end" /></path><path d="M48.08,65.14c0.94,0.24,2.3,0.91,3.92,0.87c5.5-0.13,11.14-0.96,16-1.54c2.06-0.25,3-0.35,4.38-0.05" stroke-dasharray="24.52" stroke-dashoffset="24.52"><animate attributeName="stroke-dashoffset" values="24.52" fill="freeze" begin="6ce1.click" /><animate id="6" attributeName="stroke-dashoffset" values="24.52;0" dur="0.25s" fill="freeze" begin="5.end" /></path><path d="M48.99,66.53c0.93,0.93,1.1,1.93,1.09,3.65C50.05,75.69,50,81.7,50,85.5c0,10.45,1.25,11.19,22.82,11.19c20.93,0,22.21-1.81,22.21-13.09" stroke-dasharray="80.71" stroke-dashoffset="80.71"><animate attributeName="stroke-dashoffset" values="80.71" fill="freeze" begin="6ce1.click" /><animate id="7" attributeName="stroke-dashoffset" values="80.71;0" dur="0.61s" fill="freeze" begin="6.end" /></path></g></g></g></g></svg>