<svg xmlns="http://www.w3.org/2000/svg" width="109" height="109" viewBox="0 0 109 109" id="6ce2"><g fill="none" stroke="#666" stroke-width="9" stroke-linecap="round" stroke-linejoin="round"><g><g><path d="M21.13,19.5c3.31,1.47,7.24,3.62,9.62,7.09" /><path d="M14.38,40.88c3.66,1.29,9.46,5.87,10.38,7.88" /><path d="M14.07,89.41c1.68,0.22,2.95-0.21,3.68-1.45c2.75-4.7,6.5-12.45,9-18.45" /></g><g p4:phon="皮" xmlns:p4="http://kanjivg.tagaini.net"><path d="M40.69,34.49c1.1,1.1,1.59,2.39,1.59,4.33c0,29.68-3.28,42.68-13.91,51.8" /><path d="M42.37,35.97c13.92-2.92,32.76-5.6,41.06-5.78c9.82-0.21,6.32,4.81,0.41,9.81" /><path d="M61.41,12.25c1.24,1.23,1.99,2.88,1.99,4.44c0,1.07-0.07,25.59-0.07,36.42" /><path d="M50.36,55c1.15,0.39,2.61,0.66,4.96,0.36c5.68-0.73,17.95-3.93,19.58-4.33c4.1-1.02,4.81,1.21,3.65,4.54c-5.8,16.68-19.05,31.68-37.3,37.93" /><path d="M48.75,61.62c3.45,0.8,22.03,18.19,34.97,28.04c2.38,1.81,5.11,3.75,8.06,4.52" /></g></g></g><g fill="none" stroke="#000" stroke-width="5" stroke-linecap="round" stroke-linejoin="round"><path d="M21.13,19.5c3.31,1.47,7.24,3.62,9.62,7.09" stroke-dasharray="12.105" stroke-dashoffset="12.105"><animate attributeName="stroke-dashoffset" values="12.105;12.105;0" dur="0.121s" fill="freeze" begin="0s;6ce2.click" /></path><path d="M14.38,40.88c3.66,1.29,9.46,5.87,10.38,7.88" stroke-dasharray="13.206" stroke-dashoffset="13.206"><animate attributeName="stroke-dashoffset" values="13.206" fill="freeze" begin="6ce2.click" /><animate attributeName="stroke-dashoffset" values="13.206;13.206;0" keyTimes="0;0.478;1" dur="0.253s" fill="freeze" begin="0s;6ce2.click" /></path><path d="M14.07,89.41c1.68,0.22,2.95-0.21,3.68-1.45c2.75-4.7,6.5-12.45,9-18.45" stroke-dasharray="24.761" stroke-dashoffset="24.761"><animate attributeName="stroke-dashoffset" values="24.761" fill="freeze" begin="6ce2.click" /><animate attributeName="stroke-dashoffset" values="24.761;24.761;0" keyTimes="0;0.505;1" dur="0.501s" fill="freeze" begin="0s;6ce2.click" /></path><path d="M40.69,34.49c1.1,1.1,1.59,2.39,1.59,4.33c0,29.68-3.28,42.68-13.91,51.8" stroke-dasharray="60.16" stroke-dashoffset="60.16"><animate attributeName="stroke-dashoffset" values="60.16" fill="freeze" begin="6ce2.click" /><animate attributeName="stroke-dashoffset" values="60.16;60.16;0" keyTimes="0;0.526;1" dur="0.953s" fill="freeze" begin="0s;6ce2.click" /></path><path d="M42.37,35.97c13.92-2.92,32.76-5.6,41.06-5.78c9.82-0.21,6.32,4.81,0.41,9.81" stroke-dasharray="58.343" stroke-dashoffset="58.343"><animate attributeName="stroke-dashoffset" values="58.343" fill="freeze" begin="6ce2.click" /><animate attributeName="stroke-dashoffset" values="58.343;58.343;0" keyTimes="0;0.62;1" dur="1.536s" fill="freeze" begin="0s;6ce2.click" /></path><path d="M61.41,12.25c1.24,1.23,1.99,2.88,1.99,4.44c0,1.07-0.07,25.59-0.07,36.42" stroke-dasharray="41.411" stroke-dashoffset="41.411"><animate attributeName="stroke-dashoffset" values="41.411" fill="freeze" begin="6ce2.click" /><animate attributeName="stroke-dashoffset" values="41.411;41.411;0" keyTimes="0;0.788;1" dur="1.95s" fill="freeze" begin="0s;6ce2.click" /></path><path d="M50.36,55c1.15,0.39,2.61,0.66,4.96,0.36c5.68-0.73,17.95-3.93,19.58-4.33c4.1-1.02,4.81,1.21,3.65,4.54c-5.8,16.68-19.05,31.68-37.3,37.93" stroke-dasharray="88.25" stroke-dashoffset="88.25"><animate attributeName="stroke-dashoffset" values="88.25" fill="freeze" begin="6ce2.click" /><animate attributeName="stroke-dashoffset" values="88.25;88.25;0" keyTimes="0;0.746;1" dur="2.614s" fill="freeze" begin="0s;6ce2.click" /></path><path d="M48.75,61.62c3.45,0.8,22.03,18.19,34.97,28.04c2.38,1.81,5.11,3.75,8.06,4.52" stroke-dasharray="54.189" stroke-dashoffset="54.189"><animate attributeName="stroke-dashoffset" values="54.189" fill="freeze" begin="6ce2.click" /><animate attributeName="stroke-dashoffset" values="54.189;54.189;0" keyTimes="0;0.828;1" dur="3.156s" fill="freeze" begin="0s;6ce2.click" /></path></g></svg>