<svg xmlns="http://www.w3.org/2000/svg" viewBox="0 0 109 109" id="6cf1"><g fill="none" stroke="#666" stroke-width="6" stroke-linecap="round" stroke-linejoin="round"><g><g><path d="M18.13,18c4.1,1.52,10.59,6.23,11.62,8.59" /><path d="M13.75,42c3.97,1.68,10.26,6.89,11.25,9.5" /><path d="M13.25,88.75c1.78,1.25,3.91,1.3,5.03-0.24c3.26-4.5,8.51-14.01,11.47-19.76" /></g><g><path d="M41.71,31.22c0.93,1.09,1.39,1.97,1.62,3.28c0.23,1.31,1.39,17.49,1.39,21.06" /><path d="M43.36,33.27c3.15-0.44,33.95-2.09,38.21-2.75c4.27-0.66,5.01,0.88,4.64,2.87c-0.37,1.99-2.28,17.94-2.65,20.36" /><g><path d="M32.27,56.2c1.01,0.39,3.59,0.58,4.71,0.54C49.46,56.25,80,54.5,91.59,54.38c1.4-0.01,3.39-0.35,6.52,0.31" /><path d="M61.94,14c1.03,0.77,1.23,2.41,1.29,4.82C64.5,69.75,57.25,83,32.67,96" /><path d="M62.85,55.69C69.25,69,82.5,83.75,91.29,91.1c2.59,2.16,3.27,2.7,4.37,2.92" /></g></g></g></g><g fill="none" stroke="#000" stroke-width="3" stroke-linecap="round" stroke-linejoin="round"><path d="M18.13,18c4.1,1.52,10.59,6.23,11.62,8.59" stroke-dasharray="14.648" stroke-dashoffset="14.648"><animate attributeName="stroke-dashoffset" values="14.648;14.648;0" dur="0.146s" fill="freeze" begin="0s;6cf1.click" /></path><path d="M13.75,42c3.97,1.68,10.26,6.89,11.25,9.5" stroke-dasharray="14.937" stroke-dashoffset="14.937"><animate attributeName="stroke-dashoffset" values="14.937" fill="freeze" begin="6cf1.click" /><animate attributeName="stroke-dashoffset" values="14.937;14.937;0" keyTimes="0;0.495;1" dur="0.295s" fill="freeze" begin="0s;6cf1.click" /></path><path d="M13.25,88.75c1.78,1.25,3.91,1.3,5.03-0.24c3.26-4.5,8.51-14.01,11.47-19.76" stroke-dasharray="28.472" stroke-dashoffset="28.472"><animate attributeName="stroke-dashoffset" values="28.472" fill="freeze" begin="6cf1.click" /><animate attributeName="stroke-dashoffset" values="28.472;28.472;0" keyTimes="0;0.509;1" dur="0.58s" fill="freeze" begin="0s;6cf1.click" /></path><path d="M41.71,31.22c0.93,1.09,1.39,1.97,1.62,3.28c0.23,1.31,1.39,17.49,1.39,21.06" stroke-dasharray="24.821" stroke-dashoffset="24.821"><animate attributeName="stroke-dashoffset" values="24.821" fill="freeze" begin="6cf1.click" /><animate attributeName="stroke-dashoffset" values="24.821;24.821;0" keyTimes="0;0.7;1" dur="0.828s" fill="freeze" begin="0s;6cf1.click" /></path><path d="M43.36,33.27c3.15-0.44,33.95-2.09,38.21-2.75c4.27-0.66,5.01,0.88,4.64,2.87c-0.37,1.99-2.28,17.94-2.65,20.36" stroke-dasharray="65.664" stroke-dashoffset="65.664"><animate attributeName="stroke-dashoffset" values="65.664" fill="freeze" begin="6cf1.click" /><animate attributeName="stroke-dashoffset" values="65.664;65.664;0" keyTimes="0;0.626;1" dur="1.322s" fill="freeze" begin="0s;6cf1.click" /></path><path d="M32.27,56.2c1.01,0.39,3.59,0.58,4.71,0.54C49.46,56.25,80,54.5,91.59,54.38c1.4-0.01,3.39-0.35,6.52,0.31" stroke-dasharray="65.974" stroke-dashoffset="65.974"><animate attributeName="stroke-dashoffset" values="65.974" fill="freeze" begin="6cf1.click" /><animate attributeName="stroke-dashoffset" values="65.974;65.974;0" keyTimes="0;0.727;1" dur="1.818s" fill="freeze" begin="0s;6cf1.click" /></path><path d="M61.94,14c1.03,0.77,1.23,2.41,1.29,4.82C64.5,69.75,57.25,83,32.67,96" stroke-dasharray="94.295" stroke-dashoffset="94.295"><animate attributeName="stroke-dashoffset" values="94.295" fill="freeze" begin="6cf1.click" /><animate attributeName="stroke-dashoffset" values="94.295;94.295;0" keyTimes="0;0.719;1" dur="2.527s" fill="freeze" begin="0s;6cf1.click" /></path><path d="M62.85,55.69C69.25,69,82.5,83.75,91.29,91.1c2.59,2.16,3.27,2.7,4.37,2.92" stroke-dasharray="51.003" stroke-dashoffset="51.003"><animate attributeName="stroke-dashoffset" values="51.003" fill="freeze" begin="6cf1.click" /><animate attributeName="stroke-dashoffset" values="51.003;51.003;0" keyTimes="0;0.832;1" dur="3.037s" fill="freeze" begin="0s;6cf1.click" /></path></g></svg>