<svg xmlns="http://www.w3.org/2000/svg" width="109" height="109" viewBox="0 0 109 109" id="6d0c"><g fill="none" stroke="#666" stroke-width="6" stroke-linecap="round" stroke-linejoin="round"><g><g><path d="M14.63,16.75c4.28,1.74,11.05,7.14,12.12,9.84" /><path d="M12,43c4.41,1.5,11.4,6.17,12.5,8.5" /><path d="M12.25,88.73c1.71,1.27,3.78,1.32,4.86-0.25c3.14-4.57,7.29-11.66,10.14-17.49" /></g><g><g><g><path d="M34.28,20.23c0.94,0.52,2.67,0.63,3.62,0.52C44,20,59.36,18.5,65.77,18.26c1.57-0.06,2.52,0.25,3.31,0.51" /></g><g><path d="M49.13,22.9c0.17,0.6,0.51,2.39,0.33,3.59c-1.08,7.06-7.65,22.32-16.09,31.81" /><path d="M49.34,36.81c0.25,0.05,2.69,0,3.4-0.14c2.36-0.45,5.07-1.28,9.1-2.06c2.38-0.46,3.65,1.2,3.19,3.83C62.37,53.75,44.51,85.25,30.27,94" /><path d="M41.16,53.09c3.32,2.33,8.58,9.58,9.41,13.2" /></g></g><g><path d="M74.71,28.37c0.88,0.54,2.1,2.11,2.1,4.69c0,13.47-0.31,33.74-0.31,37.95" /><path d="M91.16,16.33c0.67,0.97,1.53,2.64,1.61,5.85c0.37,15.42-0.2,63.75-0.23,69c-0.07,10.37-6.6,1.59-7.98,0.26" /></g></g></g></g><g fill="none" stroke="#000" stroke-width="3" stroke-linecap="round" stroke-linejoin="round"><path d="M14.63,16.75c4.28,1.74,11.05,7.14,12.12,9.84" stroke-dasharray="15.834" stroke-dashoffset="15.834"><animate attributeName="stroke-dashoffset" values="15.834;15.834;0" dur="0.158s" fill="freeze" begin="0s;6d0c.click" /></path><path d="M12,43c4.41,1.5,11.4,6.17,12.5,8.5" stroke-dasharray="15.315" stroke-dashoffset="15.315"><animate attributeName="stroke-dashoffset" values="15.315" fill="freeze" begin="6d0c.click" /><animate attributeName="stroke-dashoffset" values="15.315;15.315;0" keyTimes="0;0.508;1" dur="0.311s" fill="freeze" begin="0s;6d0c.click" /></path><path d="M12.25,88.73c1.71,1.27,3.78,1.32,4.86-0.25c3.14-4.57,7.29-11.66,10.14-17.49" stroke-dasharray="25.707" stroke-dashoffset="25.707"><animate attributeName="stroke-dashoffset" values="25.707" fill="freeze" begin="6d0c.click" /><animate attributeName="stroke-dashoffset" values="25.707;25.707;0" keyTimes="0;0.548;1" dur="0.568s" fill="freeze" begin="0s;6d0c.click" /></path><path d="M34.28,20.23c0.94,0.52,2.67,0.63,3.62,0.52C44,20,59.36,18.5,65.77,18.26c1.57-0.06,2.52,0.25,3.31,0.51" stroke-dasharray="35.059" stroke-dashoffset="35.059"><animate attributeName="stroke-dashoffset" values="35.059" fill="freeze" begin="6d0c.click" /><animate attributeName="stroke-dashoffset" values="35.059;35.059;0" keyTimes="0;0.618;1" dur="0.919s" fill="freeze" begin="0s;6d0c.click" /></path><path d="M49.13,22.9c0.17,0.6,0.51,2.39,0.33,3.59c-1.08,7.06-7.65,22.32-16.09,31.81" stroke-dasharray="39.621" stroke-dashoffset="39.621"><animate attributeName="stroke-dashoffset" values="39.621" fill="freeze" begin="6d0c.click" /><animate attributeName="stroke-dashoffset" values="39.621;39.621;0" keyTimes="0;0.699;1" dur="1.315s" fill="freeze" begin="0s;6d0c.click" /></path><path d="M49.34,36.81c0.25,0.05,2.69,0,3.4-0.14c2.36-0.45,5.07-1.28,9.1-2.06c2.38-0.46,3.65,1.2,3.19,3.83C62.37,53.75,44.51,85.25,30.27,94" stroke-dasharray="85.573" stroke-dashoffset="85.573"><animate attributeName="stroke-dashoffset" values="85.573" fill="freeze" begin="6d0c.click" /><animate attributeName="stroke-dashoffset" values="85.573;85.573;0" keyTimes="0;0.672;1" dur="1.958s" fill="freeze" begin="0s;6d0c.click" /></path><path d="M41.16,53.09c3.32,2.33,8.58,9.58,9.41,13.2" stroke-dasharray="16.419" stroke-dashoffset="16.419"><animate attributeName="stroke-dashoffset" values="16.419" fill="freeze" begin="6d0c.click" /><animate attributeName="stroke-dashoffset" values="16.419;16.419;0" keyTimes="0;0.923;1" dur="2.122s" fill="freeze" begin="0s;6d0c.click" /></path><path d="M74.71,28.37c0.88,0.54,2.1,2.11,2.1,4.69c0,13.47-0.31,33.74-0.31,37.95" stroke-dasharray="43.298" stroke-dashoffset="43.298"><animate attributeName="stroke-dashoffset" values="43.298" fill="freeze" begin="6d0c.click" /><animate attributeName="stroke-dashoffset" values="43.298;43.298;0" keyTimes="0;0.831;1" dur="2.555s" fill="freeze" begin="0s;6d0c.click" /></path><path d="M91.16,16.33c0.67,0.97,1.53,2.64,1.61,5.85c0.37,15.42-0.2,63.75-0.23,69c-0.07,10.37-6.6,1.59-7.98,0.26" stroke-dasharray="88.805" stroke-dashoffset="88.805"><animate attributeName="stroke-dashoffset" values="88.805" fill="freeze" begin="6d0c.click" /><animate attributeName="stroke-dashoffset" values="88.805;88.805;0" keyTimes="0;0.793;1" dur="3.223s" fill="freeze" begin="0s;6d0c.click" /></path></g></svg>