<svg xmlns="http://www.w3.org/2000/svg" width="109" height="109" viewBox="0 0 109 109" id="6d36"><g fill="none" stroke="#666" stroke-width="9" stroke-linecap="round" stroke-linejoin="round"><g><g><path d="M18.38,13.5c4.37,2.13,11.27,8.77,12.37,12.09" /><path d="M13.5,42c4.06,2.12,10.48,8.71,11.5,12" /><path d="M14.25,87.73c1.71,1.27,3.78,1.32,4.86-0.25c3.14-4.57,9.29-16.66,12.14-22.49" /></g><g><g><g><path d="M52.83,12.75c0.05,0.79,0.27,2.09-0.1,3.16c-2.61,7.49-6.49,18.35-17.94,30.22" /></g><path d="M49.85,28.53c1.18,0.72,2.78,0.68,4.71,0.48c4.94-0.51,29.56-3.59,34.28-3.83c4.71-0.24,5.2,2.37,4.95,7.49C93.5,38.5,91.25,74,84.09,93.84c-1.76,4.87-4.76,1.81-7.54-1.21" /></g><g><g><g><path d="M68.81,36.43c0.29,0.94,0.61,1.67,0.15,3.32C65.5,52,58.75,66,50.52,74.62" /></g><path d="M53.33,49.25c6.3,5.04,12.98,13.77,16.58,23.69" /></g><g><path d="M45.18,49.4c0.38,0.24,0.93,2.67,0.86,3.15c-0.93,6.14-2.28,19.7-3.27,27.76c-0.17,1.42,0.49,3.44,2.6,2.8c9.33-2.82,28.2-4.25,32.21-4.49" /><path d="M78.29,45.34c0.43,0.24,1.35,1.83,1.43,2.32c0.09,0.49-0.6,21.05-2.22,34.73" /></g></g></g></g></g><g fill="none" stroke="#000" stroke-width="5" stroke-linecap="round" stroke-linejoin="round"><path d="M18.38,13.5c4.37,2.13,11.27,8.77,12.37,12.09" stroke-dasharray="17.549" stroke-dashoffset="17.549"><animate attributeName="stroke-dashoffset" values="17.549;17.549;0" dur="0.175s" fill="freeze" begin="0s;6d36.click" /></path><path d="M13.5,42c4.06,2.12,10.48,8.71,11.5,12" stroke-dasharray="16.861" stroke-dashoffset="16.861"><animate attributeName="stroke-dashoffset" values="16.861" fill="freeze" begin="6d36.click" /><animate attributeName="stroke-dashoffset" values="16.861;16.861;0" keyTimes="0;0.509;1" dur="0.344s" fill="freeze" begin="0s;6d36.click" /></path><path d="M14.25,87.73c1.71,1.27,3.78,1.32,4.86-0.25c3.14-4.57,9.29-16.66,12.14-22.49" stroke-dasharray="31.047" stroke-dashoffset="31.047"><animate attributeName="stroke-dashoffset" values="31.047" fill="freeze" begin="6d36.click" /><animate attributeName="stroke-dashoffset" values="31.047;31.047;0" keyTimes="0;0.526;1" dur="0.654s" fill="freeze" begin="0s;6d36.click" /></path><path d="M52.83,12.75c0.05,0.79,0.27,2.09-0.1,3.16c-2.61,7.49-6.49,18.35-17.94,30.22" stroke-dasharray="38.652" stroke-dashoffset="38.652"><animate attributeName="stroke-dashoffset" values="38.652" fill="freeze" begin="6d36.click" /><animate attributeName="stroke-dashoffset" values="38.652;38.652;0" keyTimes="0;0.628;1" dur="1.041s" fill="freeze" begin="0s;6d36.click" /></path><path d="M49.85,28.53c1.18,0.72,2.78,0.68,4.71,0.48c4.94-0.51,29.56-3.59,34.28-3.83c4.71-0.24,5.2,2.37,4.95,7.49C93.5,38.5,91.25,74,84.09,93.84c-1.76,4.87-4.76,1.81-7.54-1.21" stroke-dasharray="122.473" stroke-dashoffset="122.473"><animate attributeName="stroke-dashoffset" values="122.473" fill="freeze" begin="6d36.click" /><animate attributeName="stroke-dashoffset" values="122.473;122.473;0" keyTimes="0;0.531;1" dur="1.962s" fill="freeze" begin="0s;6d36.click" /></path><path d="M68.81,36.43c0.29,0.94,0.61,1.67,0.15,3.32C65.5,52,58.75,66,50.52,74.62" stroke-dasharray="43.183" stroke-dashoffset="43.183"><animate attributeName="stroke-dashoffset" values="43.183" fill="freeze" begin="6d36.click" /><animate attributeName="stroke-dashoffset" values="43.183;43.183;0" keyTimes="0;0.82;1" dur="2.394s" fill="freeze" begin="0s;6d36.click" /></path><path d="M53.33,49.25c6.3,5.04,12.98,13.77,16.58,23.69" stroke-dasharray="29.25" stroke-dashoffset="29.25"><animate attributeName="stroke-dashoffset" values="29.25" fill="freeze" begin="6d36.click" /><animate attributeName="stroke-dashoffset" values="29.25;29.25;0" keyTimes="0;0.891;1" dur="2.686s" fill="freeze" begin="0s;6d36.click" /></path><path d="M45.18,49.4c0.38,0.24,0.93,2.67,0.86,3.15c-0.93,6.14-2.28,19.7-3.27,27.76c-0.17,1.42,0.49,3.44,2.6,2.8c9.33-2.82,28.2-4.25,32.21-4.49" stroke-dasharray="68.523" stroke-dashoffset="68.523"><animate attributeName="stroke-dashoffset" values="68.523" fill="freeze" begin="6d36.click" /><animate attributeName="stroke-dashoffset" values="68.523;68.523;0" keyTimes="0;0.839;1" dur="3.201s" fill="freeze" begin="0s;6d36.click" /></path><path d="M78.29,45.34c0.43,0.24,1.35,1.83,1.43,2.32c0.09,0.49-0.6,21.05-2.22,34.73" stroke-dasharray="37.572" stroke-dashoffset="37.572"><animate attributeName="stroke-dashoffset" values="37.572" fill="freeze" begin="6d36.click" /><animate attributeName="stroke-dashoffset" values="37.572;37.572;0" keyTimes="0;0.895;1" dur="3.577s" fill="freeze" begin="0s;6d36.click" /></path></g></svg>