<svg xmlns="http://www.w3.org/2000/svg" viewBox="0 0 109 109" id="6d38"><g fill="none" stroke="#666" stroke-width="6" stroke-linecap="round" stroke-linejoin="round"><g><g><path d="M19.63,19.25c4.19,1.38,10.82,5.69,11.87,7.84" /><path d="M13.5,44.75c4.32,1.5,11.17,6.17,12.25,8.5" /><path d="M15,90.98c1.88,0.77,3.03,0.32,4.11-1.25c3.14-4.57,7.04-12.16,9.89-17.99" /></g><g><g><path d="M62.66,13.25c1.23,1.23,1.59,3,1.59,4.87c0,4.75,0,25.62,0,30" /><path d="M41.94,27.83c3.71,2.58,9.58,10.62,10.51,14.63" /><path d="M85.43,22c0.1,1.15-0.05,2.25-0.45,3.33c-2.35,4.92-4.85,9.75-9.23,15.64" /></g><g><g><path d="M36.38,50.92c3.02,0.87,6.7,0.75,9.76,0.31c12.12-1.73,27.39-3.1,38.87-3.72c3.4-0.18,6.64-0.2,10,0.38" /></g><g><g><path d="M56.35,54c0.4,1,0.39,2.34,0.15,3.62C54.47,68.5,47.71,85.5,38.01,92.25" /></g><path d="M69.4,53.32c1.09,1.09,1.22,2.25,1.22,4.43c0,5.27,0.05,18.79,0.05,26.5c0,7.5,1.45,9.03,12.53,9.03c10.42,0,11.43-1.78,11.43-8.12" /></g></g></g></g></g><g fill="none" stroke="#000" stroke-width="3" stroke-linecap="round" stroke-linejoin="round"><path d="M19.63,19.25c4.19,1.38,10.82,5.69,11.87,7.84" stroke-dasharray="14.409" stroke-dashoffset="14.409"><animate attributeName="stroke-dashoffset" values="14.409;14.409;0" dur="0.144s" fill="freeze" begin="0s;6d38.click" /></path><path d="M13.5,44.75c4.32,1.5,11.17,6.17,12.25,8.5" stroke-dasharray="15.108" stroke-dashoffset="15.108"><animate attributeName="stroke-dashoffset" values="15.108" fill="freeze" begin="6d38.click" /><animate attributeName="stroke-dashoffset" values="15.108;15.108;0" keyTimes="0;0.488;1" dur="0.295s" fill="freeze" begin="0s;6d38.click" /></path><path d="M15,90.98c1.88,0.77,3.03,0.32,4.11-1.25c3.14-4.57,7.04-12.16,9.89-17.99" stroke-dasharray="25.317" stroke-dashoffset="25.317"><animate attributeName="stroke-dashoffset" values="25.317" fill="freeze" begin="6d38.click" /><animate attributeName="stroke-dashoffset" values="25.317;25.317;0" keyTimes="0;0.538;1" dur="0.548s" fill="freeze" begin="0s;6d38.click" /></path><path d="M62.66,13.25c1.23,1.23,1.59,3,1.59,4.87c0,4.75,0,25.62,0,30" stroke-dasharray="35.262" stroke-dashoffset="35.262"><animate attributeName="stroke-dashoffset" values="35.262" fill="freeze" begin="6d38.click" /><animate attributeName="stroke-dashoffset" values="35.262;35.262;0" keyTimes="0;0.608;1" dur="0.901s" fill="freeze" begin="0s;6d38.click" /></path><path d="M41.94,27.83c3.71,2.58,9.58,10.62,10.51,14.63" stroke-dasharray="18.246" stroke-dashoffset="18.246"><animate attributeName="stroke-dashoffset" values="18.246" fill="freeze" begin="6d38.click" /><animate attributeName="stroke-dashoffset" values="18.246;18.246;0" keyTimes="0;0.832;1" dur="1.083s" fill="freeze" begin="0s;6d38.click" /></path><path d="M85.43,22c0.1,1.15-0.05,2.25-0.45,3.33c-2.35,4.92-4.85,9.75-9.23,15.64" stroke-dasharray="21.582" stroke-dashoffset="21.582"><animate attributeName="stroke-dashoffset" values="21.582" fill="freeze" begin="6d38.click" /><animate attributeName="stroke-dashoffset" values="21.582;21.582;0" keyTimes="0;0.834;1" dur="1.299s" fill="freeze" begin="0s;6d38.click" /></path><path d="M36.38,50.92c3.02,0.87,6.7,0.75,9.76,0.31c12.12-1.73,27.39-3.1,38.87-3.72c3.4-0.18,6.64-0.2,10,0.38" stroke-dasharray="58.922" stroke-dashoffset="58.922"><animate attributeName="stroke-dashoffset" values="58.922" fill="freeze" begin="6d38.click" /><animate attributeName="stroke-dashoffset" values="58.922;58.922;0" keyTimes="0;0.688;1" dur="1.888s" fill="freeze" begin="0s;6d38.click" /></path><path d="M56.35,54c0.4,1,0.39,2.34,0.15,3.62C54.47,68.5,47.71,85.5,38.01,92.25" stroke-dasharray="43.724" stroke-dashoffset="43.724"><animate attributeName="stroke-dashoffset" values="43.724" fill="freeze" begin="6d38.click" /><animate attributeName="stroke-dashoffset" values="43.724;43.724;0" keyTimes="0;0.812;1" dur="2.325s" fill="freeze" begin="0s;6d38.click" /></path><path d="M69.4,53.32c1.09,1.09,1.22,2.25,1.22,4.43c0,5.27,0.05,18.79,0.05,26.5c0,7.5,1.45,9.03,12.53,9.03c10.42,0,11.43-1.78,11.43-8.12" stroke-dasharray="66.704" stroke-dashoffset="66.704"><animate attributeName="stroke-dashoffset" values="66.704" fill="freeze" begin="6d38.click" /><animate attributeName="stroke-dashoffset" values="66.704;66.704;0" keyTimes="0;0.822;1" dur="2.827s" fill="freeze" begin="0s;6d38.click" /></path></g></svg>