<svg xmlns="http://www.w3.org/2000/svg" viewBox="0 0 109 109" id="6d5c"><g fill="none" stroke="#666" stroke-width="6" stroke-linecap="round" stroke-linejoin="round"><g><g><path d="M22.62,16.38c3.75,1.58,9.69,6.5,10.62,8.97" /><path d="M16.25,38c3.79,1.5,9.8,6.17,10.75,8.5" /><path d="M14.75,87.46c1.62,0.79,2.85,0.34,3.82-1.1c3.41-5.03,6.83-11.18,9.93-17.6" /></g><g p4:phon="賓V" xmlns:p4="http://kanjivg.tagaini.net"><g><g><path d="M66.88,15.75c0.07,0.89-0.11,1.72-0.55,2.48C62,25.62,58.46,30.91,49.84,38.95" /><path d="M45.92,38.25c1.23,0.87,1.85,2.2,2.04,3.84c0.71,6.06,2.09,17.28,2.72,23.9" /><path d="M49.38,41.13c1.36-0.19,2.9-0.4,4.59-0.62c8.05-1.04,18.96-2.3,26.82-3.47c1.42-0.21,3.91-0.18,4.8,0" /><path d="M75.17,40.81c0.4,1.18,0.36,2.44,0.11,3.8c-0.74,3.95-1.81,8.71-3.93,18.63" /></g><g><path d="M36.81,67.71c2.26,0.61,5.13,0.73,7.45,0.46C54.12,67,78,64.88,88.89,64.43c2.41-0.1,4.98,0.19,6.8,0.88" /></g></g><g><g><path d="M54.18,75.84c0.12,1.04-0.18,1.7-0.77,2.56c-3.66,5.35-9.04,11.1-19.38,17.15" /></g><g><path d="M70.44,74.43c6.34,3.51,16.37,14.42,17.96,19.88" /></g></g></g></g></g><g fill="none" stroke="#000" stroke-width="3" stroke-linecap="round" stroke-linejoin="round"><path d="M22.62,16.38c3.75,1.58,9.69,6.5,10.62,8.97" stroke-dasharray="14.104" stroke-dashoffset="14.104"><animate attributeName="stroke-dashoffset" values="14.104;14.104;0" dur="0.141s" fill="freeze" begin="0s;6d5c.click" /></path><path d="M16.25,38c3.79,1.5,9.8,6.17,10.75,8.5" stroke-dasharray="13.897" stroke-dashoffset="13.897"><animate attributeName="stroke-dashoffset" values="13.897" fill="freeze" begin="6d5c.click" /><animate attributeName="stroke-dashoffset" values="13.897;13.897;0" keyTimes="0;0.504;1" dur="0.28s" fill="freeze" begin="0s;6d5c.click" /></path><path d="M14.75,87.46c1.62,0.79,2.85,0.34,3.82-1.1c3.41-5.03,6.83-11.18,9.93-17.6" stroke-dasharray="24.663" stroke-dashoffset="24.663"><animate attributeName="stroke-dashoffset" values="24.663" fill="freeze" begin="6d5c.click" /><animate attributeName="stroke-dashoffset" values="24.663;24.663;0" keyTimes="0;0.531;1" dur="0.527s" fill="freeze" begin="0s;6d5c.click" /></path><path d="M66.88,15.75c0.07,0.89-0.11,1.72-0.55,2.48C62,25.62,58.46,30.91,49.84,38.95" stroke-dasharray="29.181" stroke-dashoffset="29.181"><animate attributeName="stroke-dashoffset" values="29.181" fill="freeze" begin="6d5c.click" /><animate attributeName="stroke-dashoffset" values="29.181;29.181;0" keyTimes="0;0.643;1" dur="0.819s" fill="freeze" begin="0s;6d5c.click" /></path><path d="M45.92,38.25c1.23,0.87,1.85,2.2,2.04,3.84c0.71,6.06,2.09,17.28,2.72,23.9" stroke-dasharray="28.543" stroke-dashoffset="28.543"><animate attributeName="stroke-dashoffset" values="28.543" fill="freeze" begin="6d5c.click" /><animate attributeName="stroke-dashoffset" values="28.543;28.543;0" keyTimes="0;0.742;1" dur="1.104s" fill="freeze" begin="0s;6d5c.click" /></path><path d="M49.38,41.13c1.36-0.19,2.9-0.4,4.59-0.62c8.05-1.04,18.96-2.3,26.82-3.47c1.42-0.21,3.91-0.18,4.8,0" stroke-dasharray="36.491" stroke-dashoffset="36.491"><animate attributeName="stroke-dashoffset" values="36.491" fill="freeze" begin="6d5c.click" /><animate attributeName="stroke-dashoffset" values="36.491;36.491;0" keyTimes="0;0.752;1" dur="1.469s" fill="freeze" begin="0s;6d5c.click" /></path><path d="M75.17,40.81c0.4,1.18,0.36,2.44,0.11,3.8c-0.74,3.95-1.81,8.71-3.93,18.63" stroke-dasharray="22.886" stroke-dashoffset="22.886"><animate attributeName="stroke-dashoffset" values="22.886" fill="freeze" begin="6d5c.click" /><animate attributeName="stroke-dashoffset" values="22.886;22.886;0" keyTimes="0;0.865;1" dur="1.698s" fill="freeze" begin="0s;6d5c.click" /></path><path d="M36.81,67.71c2.26,0.61,5.13,0.73,7.45,0.46C54.12,67,78,64.88,88.89,64.43c2.41-0.1,4.98,0.19,6.8,0.88" stroke-dasharray="59.197" stroke-dashoffset="59.197"><animate attributeName="stroke-dashoffset" values="59.197" fill="freeze" begin="6d5c.click" /><animate attributeName="stroke-dashoffset" values="59.197;59.197;0" keyTimes="0;0.741;1" dur="2.29s" fill="freeze" begin="0s;6d5c.click" /></path><path d="M54.18,75.84c0.12,1.04-0.18,1.7-0.77,2.56c-3.66,5.35-9.04,11.1-19.38,17.15" stroke-dasharray="28.847" stroke-dashoffset="28.847"><animate attributeName="stroke-dashoffset" values="28.847" fill="freeze" begin="6d5c.click" /><animate attributeName="stroke-dashoffset" values="28.847;28.847;0" keyTimes="0;0.888;1" dur="2.578s" fill="freeze" begin="0s;6d5c.click" /></path><path d="M70.44,74.43c6.34,3.51,16.37,14.42,17.96,19.88" stroke-dasharray="27.175" stroke-dashoffset="27.175"><animate attributeName="stroke-dashoffset" values="27.175" fill="freeze" begin="6d5c.click" /><animate attributeName="stroke-dashoffset" values="27.175;27.175;0" keyTimes="0;0.905;1" dur="2.85s" fill="freeze" begin="0s;6d5c.click" /></path></g></svg>