<svg xmlns="http://www.w3.org/2000/svg" width="109" height="109" viewBox="0 0 109 109" id="6d5c"><g fill="none" stroke="#666" stroke-width="9" stroke-linecap="round" stroke-linejoin="round"><g><g><path d="M22.62,16.38c3.75,1.58,9.69,6.5,10.62,8.97" /><path d="M16.25,38c3.79,1.5,9.8,6.17,10.75,8.5" /><path d="M14.75,87.46c1.62,0.79,2.85,0.34,3.82-1.1c3.41-5.03,6.83-11.18,9.93-17.6" /></g><g p4:phon="賓V" xmlns:p4="http://kanjivg.tagaini.net"><g><g><path d="M66.88,15.75c0.07,0.89-0.11,1.72-0.55,2.48C62,25.62,58.46,30.91,49.84,38.95" /><path d="M45.92,38.25c1.23,0.87,1.85,2.2,2.04,3.84c0.71,6.06,2.09,17.28,2.72,23.9" /><path d="M49.38,41.13c1.36-0.19,2.9-0.4,4.59-0.62c8.05-1.04,18.96-2.3,26.82-3.47c1.42-0.21,3.91-0.18,4.8,0" /><path d="M75.17,40.81c0.4,1.18,0.36,2.44,0.11,3.8c-0.74,3.95-1.81,8.71-3.93,18.63" /></g><g><path d="M36.81,67.71c2.26,0.61,5.13,0.73,7.45,0.46C54.12,67,78,64.88,88.89,64.43c2.41-0.1,4.98,0.19,6.8,0.88" /></g></g><g><g><path d="M54.18,75.84c0.12,1.04-0.18,1.7-0.77,2.56c-3.66,5.35-9.04,11.1-19.38,17.15" /></g><g><path d="M70.44,74.43c6.34,3.51,16.37,14.42,17.96,19.88" /></g></g></g></g></g><g fill="none" stroke="#000" stroke-width="5" stroke-linecap="round" stroke-linejoin="round"><g><g><path d="M22.62,16.38c3.75,1.58,9.69,6.5,10.62,8.97" stroke-dasharray="14.1" stroke-dashoffset="14.1"><animate id="0" attributeName="stroke-dashoffset" values="14.1;0" dur="0.14s" fill="freeze" begin="0s;6d5c.click" /></path><path d="M16.25,38c3.79,1.5,9.8,6.17,10.75,8.5" stroke-dasharray="13.9" stroke-dashoffset="13.9"><animate attributeName="stroke-dashoffset" values="13.9" fill="freeze" begin="6d5c.click" /><animate id="1" attributeName="stroke-dashoffset" values="13.9;0" dur="0.14s" fill="freeze" begin="0.end" /></path><path d="M14.75,87.46c1.62,0.79,2.85,0.34,3.82-1.1c3.41-5.03,6.83-11.18,9.93-17.6" stroke-dasharray="24.66" stroke-dashoffset="24.66"><animate attributeName="stroke-dashoffset" values="24.66" fill="freeze" begin="6d5c.click" /><animate id="2" attributeName="stroke-dashoffset" values="24.66;0" dur="0.25s" fill="freeze" begin="1.end" /></path></g><g p4:phon="賓V" xmlns:p4="http://kanjivg.tagaini.net"><g><g><path d="M66.88,15.75c0.07,0.89-0.11,1.72-0.55,2.48C62,25.62,58.46,30.91,49.84,38.95" stroke-dasharray="29.18" stroke-dashoffset="29.18"><animate attributeName="stroke-dashoffset" values="29.18" fill="freeze" begin="6d5c.click" /><animate id="3" attributeName="stroke-dashoffset" values="29.18;0" dur="0.29s" fill="freeze" begin="2.end" /></path><path d="M45.92,38.25c1.23,0.87,1.85,2.2,2.04,3.84c0.71,6.06,2.09,17.28,2.72,23.9" stroke-dasharray="28.54" stroke-dashoffset="28.54"><animate attributeName="stroke-dashoffset" values="28.54" fill="freeze" begin="6d5c.click" /><animate id="4" attributeName="stroke-dashoffset" values="28.54;0" dur="0.29s" fill="freeze" begin="3.end" /></path><path d="M49.38,41.13c1.36-0.19,2.9-0.4,4.59-0.62c8.05-1.04,18.96-2.3,26.82-3.47c1.42-0.21,3.91-0.18,4.8,0" stroke-dasharray="36.49" stroke-dashoffset="36.49"><animate attributeName="stroke-dashoffset" values="36.49" fill="freeze" begin="6d5c.click" /><animate id="5" attributeName="stroke-dashoffset" values="36.49;0" dur="0.36s" fill="freeze" begin="4.end" /></path><path d="M75.17,40.81c0.4,1.18,0.36,2.44,0.11,3.8c-0.74,3.95-1.81,8.71-3.93,18.63" stroke-dasharray="22.88" stroke-dashoffset="22.88"><animate attributeName="stroke-dashoffset" values="22.88" fill="freeze" begin="6d5c.click" /><animate id="6" attributeName="stroke-dashoffset" values="22.88;0" dur="0.23s" fill="freeze" begin="5.end" /></path></g><g><path d="M36.81,67.71c2.26,0.61,5.13,0.73,7.45,0.46C54.12,67,78,64.88,88.89,64.43c2.41-0.1,4.98,0.19,6.8,0.88" stroke-dasharray="59.2" stroke-dashoffset="59.2"><animate attributeName="stroke-dashoffset" values="59.2" fill="freeze" begin="6d5c.click" /><animate id="7" attributeName="stroke-dashoffset" values="59.2;0" dur="0.59s" fill="freeze" begin="6.end" /></path></g></g><g><g><path d="M54.18,75.84c0.12,1.04-0.18,1.7-0.77,2.56c-3.66,5.35-9.04,11.1-19.38,17.15" stroke-dasharray="28.85" stroke-dashoffset="28.85"><animate attributeName="stroke-dashoffset" values="28.85" fill="freeze" begin="6d5c.click" /><animate id="8" attributeName="stroke-dashoffset" values="28.85;0" dur="0.29s" fill="freeze" begin="7.end" /></path></g><g><path d="M70.44,74.43c6.34,3.51,16.37,14.42,17.96,19.88" stroke-dasharray="27.17" stroke-dashoffset="27.17"><animate attributeName="stroke-dashoffset" values="27.17" fill="freeze" begin="6d5c.click" /><animate id="9" attributeName="stroke-dashoffset" values="27.17;0" dur="0.27s" fill="freeze" begin="8.end" /></path></g></g></g></g></g></svg>