<svg xmlns="http://www.w3.org/2000/svg" width="109" height="109" viewBox="0 0 109 109" id="6d6c"><g fill="none" stroke="#666" stroke-width="9" stroke-linecap="round" stroke-linejoin="round"><g><g><path d="M18.13,16.25c4.28,1.65,10.24,6.38,12.37,9.09" /><path d="M13.75,43.25c4.5,1.46,11.12,5.25,12.75,7.75" /><path d="M15,89.19c2.12,0.68,3.71-0.62,4.77-2.26c3.09-4.77,8.17-14.48,10.98-20.56" /></g><g><path d="M43.54,20.5c0.79,0.79,1.31,1.38,1.49,2.67c1.39,9.96,2.31,17.01,3.35,26.21c0.25,2.18,0.5,4.49,0.77,6.98" /><path d="M46.01,22.29c16.29-1.52,30.11-2.83,38.11-3.53c4.64-0.41,7.64,0.31,6.93,5.87c-0.76,5.97-1.9,14.25-3.1,21.63c-0.47,2.88-0.94,5.62-1.4,8.04" /><path d="M48.3,37.49c8.82-0.74,32.95-2.87,39.94-2.81" /><path d="M49.72,53.52c7.9-0.63,25.03-1.77,36.07-2.05" /><path d="M65.83,22.13c1.08,1.08,1.6,2.62,1.6,4.36c0,12.9-0.05,57.47-0.05,62.13" /><path d="M44.97,71.92c2.24,0.48,4.5,0.52,6.77,0.13c9.02-1.07,21.01-2.17,29.64-2.49c2.47-0.33,4.92,0,7.34,0.48" /><path d="M36.88,91.23c3.24,0.65,6.47,0.57,9.75,0.21c13.12-1.44,25.62-2.19,41.5-2.84c3.18-0.13,6.35-0.01,9.5,0.47" /></g></g></g><g fill="none" stroke="#000" stroke-width="5" stroke-linecap="round" stroke-linejoin="round"><g><g><path d="M18.13,16.25c4.28,1.65,10.24,6.38,12.37,9.09" stroke-dasharray="15.47" stroke-dashoffset="15.47"><animate id="0" attributeName="stroke-dashoffset" values="15.47;0" dur="0.15s" fill="freeze" begin="0s;6d6c.click" /></path><path d="M13.75,43.25c4.5,1.46,11.12,5.25,12.75,7.75" stroke-dasharray="15.09" stroke-dashoffset="15.09"><animate attributeName="stroke-dashoffset" values="15.09" fill="freeze" begin="6d6c.click" /><animate id="1" attributeName="stroke-dashoffset" values="15.09;0" dur="0.15s" fill="freeze" begin="0.end" /></path><path d="M15,89.19c2.12,0.68,3.71-0.62,4.77-2.26c3.09-4.77,8.17-14.48,10.98-20.56" stroke-dasharray="29.05" stroke-dashoffset="29.05"><animate attributeName="stroke-dashoffset" values="29.05" fill="freeze" begin="6d6c.click" /><animate id="2" attributeName="stroke-dashoffset" values="29.05;0" dur="0.29s" fill="freeze" begin="1.end" /></path></g><g><path d="M43.54,20.5c0.79,0.79,1.31,1.38,1.49,2.67c1.39,9.96,2.31,17.01,3.35,26.21c0.25,2.18,0.5,4.49,0.77,6.98" stroke-dasharray="36.57" stroke-dashoffset="36.57"><animate attributeName="stroke-dashoffset" values="36.57" fill="freeze" begin="6d6c.click" /><animate id="3" attributeName="stroke-dashoffset" values="36.57;0" dur="0.37s" fill="freeze" begin="2.end" /></path><path d="M46.01,22.29c16.29-1.52,30.11-2.83,38.11-3.53c4.64-0.41,7.64,0.31,6.93,5.87c-0.76,5.97-1.9,14.25-3.1,21.63c-0.47,2.88-0.94,5.62-1.4,8.04" stroke-dasharray="79.57" stroke-dashoffset="79.57"><animate attributeName="stroke-dashoffset" values="79.57" fill="freeze" begin="6d6c.click" /><animate id="4" attributeName="stroke-dashoffset" values="79.57;0" dur="0.6s" fill="freeze" begin="3.end" /></path><path d="M48.3,37.49c8.82-0.74,32.95-2.87,39.94-2.81" stroke-dasharray="40.05" stroke-dashoffset="40.05"><animate attributeName="stroke-dashoffset" values="40.05" fill="freeze" begin="6d6c.click" /><animate id="5" attributeName="stroke-dashoffset" values="40.05;0" dur="0.4s" fill="freeze" begin="4.end" /></path><path d="M49.72,53.52c7.9-0.63,25.03-1.77,36.07-2.05" stroke-dasharray="36.13" stroke-dashoffset="36.13"><animate attributeName="stroke-dashoffset" values="36.13" fill="freeze" begin="6d6c.click" /><animate id="6" attributeName="stroke-dashoffset" values="36.13;0" dur="0.36s" fill="freeze" begin="5.end" /></path><path d="M65.83,22.13c1.08,1.08,1.6,2.62,1.6,4.36c0,12.9-0.05,57.47-0.05,62.13" stroke-dasharray="66.9" stroke-dashoffset="66.9"><animate attributeName="stroke-dashoffset" values="66.9" fill="freeze" begin="6d6c.click" /><animate id="7" attributeName="stroke-dashoffset" values="66.9;0" dur="0.5s" fill="freeze" begin="6.end" /></path><path d="M44.97,71.92c2.24,0.48,4.5,0.52,6.77,0.13c9.02-1.07,21.01-2.17,29.64-2.49c2.47-0.33,4.92,0,7.34,0.48" stroke-dasharray="43.95" stroke-dashoffset="43.95"><animate attributeName="stroke-dashoffset" values="43.95" fill="freeze" begin="6d6c.click" /><animate id="8" attributeName="stroke-dashoffset" values="43.95;0" dur="0.44s" fill="freeze" begin="7.end" /></path><path d="M36.88,91.23c3.24,0.65,6.47,0.57,9.75,0.21c13.12-1.44,25.62-2.19,41.5-2.84c3.18-0.13,6.35-0.01,9.5,0.47" stroke-dasharray="60.92" stroke-dashoffset="60.92"><animate attributeName="stroke-dashoffset" values="60.92" fill="freeze" begin="6d6c.click" /><animate id="9" attributeName="stroke-dashoffset" values="60.92;0" dur="0.46s" fill="freeze" begin="8.end" /></path></g></g></g></svg>