<svg xmlns="http://www.w3.org/2000/svg" viewBox="0 0 109 109" id="6d77"><g fill="none" stroke="#666" stroke-width="6" stroke-linecap="round" stroke-linejoin="round"><g><g><path d="M20.38,14.75c3.31,1.47,8.54,6.05,9.37,8.34" /><path d="M14.75,39.5c3.79,1.15,9.8,4.72,10.75,6.5" /><path d="M13.75,89.21C16,90,17.06,89.57,18,87.95c2.75-4.7,5.5-10.45,8-16.45" /></g><g p4:phon="毎" xmlns:p4="http://kanjivg.tagaini.net"><g><g><path d="M53,11c0.12,1.68-0.19,3.03-0.83,4.57C49.7,21.44,43.05,31.26,37.75,37" /></g><path d="M51.13,24.03c0.94,0.29,3.67,0.41,4.6,0.29c7.65-0.94,18.52-3.07,26.02-4.84c1.51-0.36,3.5-0.36,4.29-0.21" /></g><g p4:partial><path d="M48.96,36.12C50,37,50.5,38.25,49.75,42.25C47.86,52.35,42.98,67.88,40,73c-1.75,3-0.5,4.43,1.5,4.5c14.75,0.5,31.22,2.68,44.24,10c2.04,1.15,3.97,2.39,5.76,3.75" /><path d="M50.78,37.57c6.97-0.07,24.47-2.7,30.7-3.57c2.51-0.35,3.96,0.99,3.79,3.12C84,52.75,77.33,84.33,73.95,92.43c-2.95,7.07-6.12,0.35-7.12-0.77" /><path d="M64.75,39.75c0.88,0.88,1.22,2.74,1,4c-1.5,8.5-5.5,25.75-8.25,33.75" /><path d="M30.63,58.98c1.85,0.45,5.24,0.61,7.09,0.45c16.91-1.43,37.36-3.68,55.69-4.15c3.08-0.08,4.93,0.21,6.47,0.44" /></g></g></g></g><g fill="none" stroke="#000" stroke-width="3" stroke-linecap="round" stroke-linejoin="round"><path d="M20.38,14.75c3.31,1.47,8.54,6.05,9.37,8.34" stroke-dasharray="12.727" stroke-dashoffset="12.727"><animate attributeName="stroke-dashoffset" values="12.727;12.727;0" dur="0.127s" fill="freeze" begin="0s;6d77.click" /></path><path d="M14.75,39.5c3.79,1.15,9.8,4.72,10.75,6.5" stroke-dasharray="12.714" stroke-dashoffset="12.714"><animate attributeName="stroke-dashoffset" values="12.714" fill="freeze" begin="6d77.click" /><animate attributeName="stroke-dashoffset" values="12.714;12.714;0" keyTimes="0;0.5;1" dur="0.254s" fill="freeze" begin="0s;6d77.click" /></path><path d="M13.75,89.21C16,90,17.06,89.57,18,87.95c2.75-4.7,5.5-10.45,8-16.45" stroke-dasharray="23.277" stroke-dashoffset="23.277"><animate attributeName="stroke-dashoffset" values="23.277" fill="freeze" begin="6d77.click" /><animate attributeName="stroke-dashoffset" values="23.277;23.277;0" keyTimes="0;0.522;1" dur="0.487s" fill="freeze" begin="0s;6d77.click" /></path><path d="M53,11c0.12,1.68-0.19,3.03-0.83,4.57C49.7,21.44,43.05,31.26,37.75,37" stroke-dasharray="30.616" stroke-dashoffset="30.616"><animate attributeName="stroke-dashoffset" values="30.616" fill="freeze" begin="6d77.click" /><animate attributeName="stroke-dashoffset" values="30.616;30.616;0" keyTimes="0;0.614;1" dur="0.793s" fill="freeze" begin="0s;6d77.click" /></path><path d="M51.13,24.03c0.94,0.29,3.67,0.41,4.6,0.29c7.65-0.94,18.52-3.07,26.02-4.84c1.51-0.36,3.5-0.36,4.29-0.21" stroke-dasharray="35.421" stroke-dashoffset="35.421"><animate attributeName="stroke-dashoffset" values="35.421" fill="freeze" begin="6d77.click" /><animate attributeName="stroke-dashoffset" values="35.421;35.421;0" keyTimes="0;0.691;1" dur="1.147s" fill="freeze" begin="0s;6d77.click" /></path><path d="M48.96,36.12C50,37,50.5,38.25,49.75,42.25C47.86,52.35,42.98,67.88,40,73c-1.75,3-0.5,4.43,1.5,4.5c14.75,0.5,31.22,2.68,44.24,10c2.04,1.15,3.97,2.39,5.76,3.75" stroke-dasharray="97.612" stroke-dashoffset="97.612"><animate attributeName="stroke-dashoffset" values="97.612" fill="freeze" begin="6d77.click" /><animate attributeName="stroke-dashoffset" values="97.612;97.612;0" keyTimes="0;0.61;1" dur="1.881s" fill="freeze" begin="0s;6d77.click" /></path><path d="M50.78,37.57c6.97-0.07,24.47-2.7,30.7-3.57c2.51-0.35,3.96,0.99,3.79,3.12C84,52.75,77.33,84.33,73.95,92.43c-2.95,7.07-6.12,0.35-7.12-0.77" stroke-dasharray="103.813" stroke-dashoffset="103.813"><animate attributeName="stroke-dashoffset" values="103.813" fill="freeze" begin="6d77.click" /><animate attributeName="stroke-dashoffset" values="103.813;103.813;0" keyTimes="0;0.707;1" dur="2.662s" fill="freeze" begin="0s;6d77.click" /></path><path d="M64.75,39.75c0.88,0.88,1.22,2.74,1,4c-1.5,8.5-5.5,25.75-8.25,33.75" stroke-dasharray="39.02" stroke-dashoffset="39.02"><animate attributeName="stroke-dashoffset" values="39.02" fill="freeze" begin="6d77.click" /><animate attributeName="stroke-dashoffset" values="39.02;39.02;0" keyTimes="0;0.872;1" dur="3.052s" fill="freeze" begin="0s;6d77.click" /></path><path d="M30.63,58.98c1.85,0.45,5.24,0.61,7.09,0.45c16.91-1.43,37.36-3.68,55.69-4.15c3.08-0.08,4.93,0.21,6.47,0.44" stroke-dasharray="69.476" stroke-dashoffset="69.476"><animate attributeName="stroke-dashoffset" values="69.476" fill="freeze" begin="6d77.click" /><animate attributeName="stroke-dashoffset" values="69.476;69.476;0" keyTimes="0;0.854;1" dur="3.574s" fill="freeze" begin="0s;6d77.click" /></path></g></svg>