<svg xmlns="http://www.w3.org/2000/svg" width="109" height="109" viewBox="0 0 109 109" id="6d95"><g fill="none" stroke="#666" stroke-width="9" stroke-linecap="round" stroke-linejoin="round"><g><g><path d="M17.13,14.25c4.81,1.91,12.41,7.87,13.62,10.84" /><path d="M13,40c4.59,1.76,11.85,7.26,13,10" /><path d="M12.75,85.23c1.71,1.27,3.78,0.32,4.86-1.25c3.14-4.57,8.79-14.66,11.64-20.49" /></g><g><g><path d="M44.91,12.5c3.77,2.11,9.74,8.68,10.68,11.97" /><path d="M78.59,9.5c0.09,1.27-0.14,2.71-0.73,3.93c-1.66,3.45-4.14,7.29-9.01,12.32" /></g><g><g><g><path d="M40.68,28.54c1.17,1.07,3.25,1.28,4.75,1.19c7.82-0.48,36.13-3.17,39.11-3.76c2.98-0.59,4.22,2.15,3.69,4.05c-0.83,2.99-3.64,10.16-3.98,12.48" /><path d="M45.75,46c7.25-0.5,33.98-3.5,36.09-3.5c2.11,0,4.22,0,5.91,0" /><path d="M44.48,45.42c0.89,0.79,0.63,2.9,0.18,4.21c-0.9,2.62-1.39,5.48-2.64,9.84C41,63,42.06,64.02,43.96,63.86C48,63.5,86.53,59.83,91.3,59.23c4.77-0.6,3.6,3.99,3.26,5.42c-0.65,2.74-4.41,11.77-7.24,16.29c-4.57,7.31-6.3-0.95-7.66-2.48" /></g><g><path d="M63.19,31.91c0.78,0.74,1.54,2.9,1.81,3.91c-0.74-2.79,0.16,55.05-0.27,65.18" /></g></g><g><path d="M63.17,62c0.09,0.67,0.34,0.82-0.2,1.71C59.5,69.5,49,84.25,29.75,92.25" /></g></g></g></g></g><g fill="none" stroke="#000" stroke-width="5" stroke-linecap="round" stroke-linejoin="round"><g><g><path d="M17.13,14.25c4.81,1.91,12.41,7.87,13.62,10.84" stroke-dasharray="17.653" stroke-dashoffset="17.653"><animate attributeName="stroke-dashoffset" values="17.653;17.653;0" dur="0.177s" fill="freeze" begin="0s;6d95.click" /></path><path d="M13,40c4.59,1.76,11.85,7.26,13,10" stroke-dasharray="16.63" stroke-dashoffset="16.63"><animate attributeName="stroke-dashoffset" values="16.63" fill="freeze" begin="6d95.click" /><animate attributeName="stroke-dashoffset" values="16.63;16.63;0" keyTimes="0;0.516;1" dur="0.343s" fill="freeze" begin="0s;6d95.click" /></path><path d="M12.75,85.23c1.71,1.27,3.78,0.32,4.86-1.25c3.14-4.57,8.79-14.66,11.64-20.49" stroke-dasharray="29.211" stroke-dashoffset="29.211"><animate attributeName="stroke-dashoffset" values="29.211" fill="freeze" begin="6d95.click" /><animate attributeName="stroke-dashoffset" values="29.211;29.211;0" keyTimes="0;0.54;1" dur="0.635s" fill="freeze" begin="0s;6d95.click" /></path></g><g><g><path d="M44.91,12.5c3.77,2.11,9.74,8.68,10.68,11.97" stroke-dasharray="16.272" stroke-dashoffset="16.272"><animate attributeName="stroke-dashoffset" values="16.272" fill="freeze" begin="6d95.click" /><animate attributeName="stroke-dashoffset" values="16.272;16.272;0" keyTimes="0;0.796;1" dur="0.798s" fill="freeze" begin="0s;6d95.click" /></path><path d="M78.59,9.5c0.09,1.27-0.14,2.71-0.73,3.93c-1.66,3.45-4.14,7.29-9.01,12.32" stroke-dasharray="19.373" stroke-dashoffset="19.373"><animate attributeName="stroke-dashoffset" values="19.373" fill="freeze" begin="6d95.click" /><animate attributeName="stroke-dashoffset" values="19.373;19.373;0" keyTimes="0;0.804;1" dur="0.992s" fill="freeze" begin="0s;6d95.click" /></path></g><g><g><g><path d="M40.68,28.54c1.17,1.07,3.25,1.28,4.75,1.19c7.82-0.48,36.13-3.17,39.11-3.76c2.98-0.59,4.22,2.15,3.69,4.05c-0.83,2.99-3.64,10.16-3.98,12.48" stroke-dasharray="64.071" stroke-dashoffset="64.071"><animate attributeName="stroke-dashoffset" values="64.071" fill="freeze" begin="6d95.click" /><animate attributeName="stroke-dashoffset" values="64.071;64.071;0" keyTimes="0;0.673;1" dur="1.474s" fill="freeze" begin="0s;6d95.click" /></path><path d="M45.75,46c7.25-0.5,33.98-3.5,36.09-3.5c2.11,0,4.22,0,5.91,0" stroke-dasharray="42.172" stroke-dashoffset="42.172"><animate attributeName="stroke-dashoffset" values="42.172" fill="freeze" begin="6d95.click" /><animate attributeName="stroke-dashoffset" values="42.172;42.172;0" keyTimes="0;0.777;1" dur="1.896s" fill="freeze" begin="0s;6d95.click" /></path><path d="M44.48,45.42c0.89,0.79,0.63,2.9,0.18,4.21c-0.9,2.62-1.39,5.48-2.64,9.84C41,63,42.06,64.02,43.96,63.86C48,63.5,86.53,59.83,91.3,59.23c4.77-0.6,3.6,3.99,3.26,5.42c-0.65,2.74-4.41,11.77-7.24,16.29c-4.57,7.31-6.3-0.95-7.66-2.48" stroke-dasharray="105.986" stroke-dashoffset="105.986"><animate attributeName="stroke-dashoffset" values="105.986" fill="freeze" begin="6d95.click" /><animate attributeName="stroke-dashoffset" values="105.986;105.986;0" keyTimes="0;0.704;1" dur="2.693s" fill="freeze" begin="0s;6d95.click" /></path></g><g><path d="M63.19,31.91c0.78,0.74,1.54,2.9,1.81,3.91c-0.74-2.79,0.16,55.05-0.27,65.18" stroke-dasharray="69.762" stroke-dashoffset="69.762"><animate attributeName="stroke-dashoffset" values="69.762" fill="freeze" begin="6d95.click" /><animate attributeName="stroke-dashoffset" values="69.762;69.762;0" keyTimes="0;0.837;1" dur="3.218s" fill="freeze" begin="0s;6d95.click" /></path></g></g><g><path d="M63.17,62c0.09,0.67,0.34,0.82-0.2,1.71C59.5,69.5,49,84.25,29.75,92.25" stroke-dasharray="46.304" stroke-dashoffset="46.304"><animate attributeName="stroke-dashoffset" values="46.304" fill="freeze" begin="6d95.click" /><animate attributeName="stroke-dashoffset" values="46.304;46.304;0" keyTimes="0;0.874;1" dur="3.681s" fill="freeze" begin="0s;6d95.click" /></path></g></g></g></g></g></svg>