<svg xmlns="http://www.w3.org/2000/svg" viewBox="0 0 109 109" id="6dd2"><g fill="none" stroke="#666" stroke-width="6" stroke-linecap="round" stroke-linejoin="round"><g><g><path d="M18.13,15.5c4.28,1.87,11.05,7.68,12.12,10.59" /><path d="M12.5,40.75c4.59,2.07,11.85,8.53,13,11.75" /><path d="M13.75,89.23c1.71,1.27,3.78,1.32,4.86-0.25c3.14-4.57,9.29-17.16,12.14-22.99" /></g><g><g><path d="M39,20.85c1.51,0.68,4.28,0.69,5.8,0.68C55.08,21.5,76,19,85.25,19.17c2.52,0.05,4.04,0.32,5.3,0.67" /><g><path d="M44.77,32.37c1.94,0.21,2.87,0.57,4.66,0.43c10.87-0.86,22.33-2.55,31.3-3.3c2.52-0.21,3.53,2.13,2.98,4.23c-1.46,5.52-1.96,9.77-2.41,18.07" /><path d="M34.08,44.13c1.75,0.22,3.11,0.63,5.04,0.43c16.88-1.72,39.53-3.73,52.92-4.38c2.14-0.1,3.88,0.43,4.85,0.65" /><path d="M45.39,54.75c0.97,0.13,2.72,0.51,3.88,0.39C58,54.25,72.75,52.5,80.1,52.68c1.55,0.04,2.52,0.5,3.69,0.63" /></g><path d="M61,10.25c0.98,0.5,1.57,2.25,1.77,3.25c0.2,1,0,33.25-0.2,39.5" /></g><g><path d="M61.84,56.87c0.45,1.05,0.38,2.49-0.23,3.68c-0.86,1.71-5.14,12.2-11.21,19.13c-1.16,1.33-1.49,2.65,1.23,2.78C63.75,83,75,89.5,83.1,97.69" /><path d="M78.08,62.24c0.12,0.84,0.2,2.88-0.23,4.1C74.36,76.2,64.31,90.17,39.41,97.5" /><path d="M35.38,71.56c0.92,0.27,2.61,0.3,3.52,0.27C49,71.5,75,68.71,92.59,68.64c1.53-0.01,4.17,0.25,5.41,0.72" /></g></g></g></g><g fill="none" stroke="#000" stroke-width="3" stroke-linecap="round" stroke-linejoin="round"><path d="M18.13,15.5c4.28,1.87,11.05,7.68,12.12,10.59" stroke-dasharray="16.329" stroke-dashoffset="16.329"><animate attributeName="stroke-dashoffset" values="16.329;16.329;0" dur="0.163s" fill="freeze" begin="0s;6dd2.click" /></path><path d="M12.5,40.75c4.59,2.07,11.85,8.53,13,11.75" stroke-dasharray="17.778" stroke-dashoffset="17.778"><animate attributeName="stroke-dashoffset" values="17.778" fill="freeze" begin="6dd2.click" /><animate attributeName="stroke-dashoffset" values="17.778;17.778;0" keyTimes="0;0.478;1" dur="0.341s" fill="freeze" begin="0s;6dd2.click" /></path><path d="M13.75,89.23c1.71,1.27,3.78,1.32,4.86-0.25c3.14-4.57,9.29-17.16,12.14-22.99" stroke-dasharray="31.488" stroke-dashoffset="31.488"><animate attributeName="stroke-dashoffset" values="31.488" fill="freeze" begin="6dd2.click" /><animate attributeName="stroke-dashoffset" values="31.488;31.488;0" keyTimes="0;0.52;1" dur="0.656s" fill="freeze" begin="0s;6dd2.click" /></path><path d="M39,20.85c1.51,0.68,4.28,0.69,5.8,0.68C55.08,21.5,76,19,85.25,19.17c2.52,0.05,4.04,0.32,5.3,0.67" stroke-dasharray="51.764" stroke-dashoffset="51.764"><animate attributeName="stroke-dashoffset" values="51.764" fill="freeze" begin="6dd2.click" /><animate attributeName="stroke-dashoffset" values="51.764;51.764;0" keyTimes="0;0.559;1" dur="1.174s" fill="freeze" begin="0s;6dd2.click" /></path><path d="M44.77,32.37c1.94,0.21,2.87,0.57,4.66,0.43c10.87-0.86,22.33-2.55,31.3-3.3c2.52-0.21,3.53,2.13,2.98,4.23c-1.46,5.52-1.96,9.77-2.41,18.07" stroke-dasharray="60.605" stroke-dashoffset="60.605"><animate attributeName="stroke-dashoffset" values="60.605" fill="freeze" begin="6dd2.click" /><animate attributeName="stroke-dashoffset" values="60.605;60.605;0" keyTimes="0;0.72;1" dur="1.63s" fill="freeze" begin="0s;6dd2.click" /></path><path d="M34.08,44.13c1.75,0.22,3.11,0.63,5.04,0.43c16.88-1.72,39.53-3.73,52.92-4.38c2.14-0.1,3.88,0.43,4.85,0.65" stroke-dasharray="63.095" stroke-dashoffset="63.095"><animate attributeName="stroke-dashoffset" values="63.095" fill="freeze" begin="6dd2.click" /><animate attributeName="stroke-dashoffset" values="63.095;63.095;0" keyTimes="0;0.775;1" dur="2.104s" fill="freeze" begin="0s;6dd2.click" /></path><path d="M45.39,54.75c0.97,0.13,2.72,0.51,3.88,0.39C58,54.25,72.75,52.5,80.1,52.68c1.55,0.04,2.52,0.5,3.69,0.63" stroke-dasharray="38.604" stroke-dashoffset="38.604"><animate attributeName="stroke-dashoffset" values="38.604" fill="freeze" begin="6dd2.click" /><animate attributeName="stroke-dashoffset" values="38.604;38.604;0" keyTimes="0;0.845;1" dur="2.49s" fill="freeze" begin="0s;6dd2.click" /></path><path d="M61,10.25c0.98,0.5,1.57,2.25,1.77,3.25c0.2,1,0,33.25-0.2,39.5" stroke-dasharray="43.306" stroke-dashoffset="43.306"><animate attributeName="stroke-dashoffset" values="43.306" fill="freeze" begin="6dd2.click" /><animate attributeName="stroke-dashoffset" values="43.306;43.306;0" keyTimes="0;0.852;1" dur="2.923s" fill="freeze" begin="0s;6dd2.click" /></path><path d="M61.84,56.87c0.45,1.05,0.38,2.49-0.23,3.68c-0.86,1.71-5.14,12.2-11.21,19.13c-1.16,1.33-1.49,2.65,1.23,2.78C63.75,83,75,89.5,83.1,97.69" stroke-dasharray="66.335" stroke-dashoffset="66.335"><animate attributeName="stroke-dashoffset" values="66.335" fill="freeze" begin="6dd2.click" /><animate attributeName="stroke-dashoffset" values="66.335;66.335;0" keyTimes="0;0.854;1" dur="3.422s" fill="freeze" begin="0s;6dd2.click" /></path><path d="M78.08,62.24c0.12,0.84,0.2,2.88-0.23,4.1C74.36,76.2,64.31,90.17,39.41,97.5" stroke-dasharray="55.496" stroke-dashoffset="55.496"><animate attributeName="stroke-dashoffset" values="55.496" fill="freeze" begin="6dd2.click" /><animate attributeName="stroke-dashoffset" values="55.496;55.496;0" keyTimes="0;0.86;1" dur="3.977s" fill="freeze" begin="0s;6dd2.click" /></path><path d="M35.38,71.56c0.92,0.27,2.61,0.3,3.52,0.27C49,71.5,75,68.71,92.59,68.64c1.53-0.01,4.17,0.25,5.41,0.72" stroke-dasharray="62.815" stroke-dashoffset="62.815"><animate attributeName="stroke-dashoffset" values="62.815" fill="freeze" begin="6dd2.click" /><animate attributeName="stroke-dashoffset" values="62.815;62.815;0" keyTimes="0;0.894;1" dur="4.449s" fill="freeze" begin="0s;6dd2.click" /></path></g></svg>