<svg xmlns="http://www.w3.org/2000/svg" width="109" height="109" viewBox="0 0 109 109" id="6e1a"><g fill="none" stroke="#666" stroke-width="9" stroke-linecap="round" stroke-linejoin="round"><g><g><path d="M20.13,16.25c3.92,1.52,10.13,6.23,11.12,8.59" /><path d="M13.5,41.75c3.27,1.37,8.43,5.62,9.25,7.75" /><path d="M15.88,89.25c1.88,0.37,2.68-0.56,3.57-2.24c2.6-4.9,5.2-10.89,7.56-17.14" /></g><g><g p5:partial xmlns:p5="http://kanjivg.tagaini.net"><g><path d="M41.41,28.55c1.51,0.73,4.82,0.65,6.47,0.49c7.19-0.67,16.62-1.54,23.64-2.24c1.43-0.14,3.16-0.46,4.61-0.04" /><path d="M57.75,13.12c0.94,0.94,1.27,1.88,1.27,3.3c0,8.72,0.01,24.06,0.01,27.03" /><path d="M32.75,45.37c3.06,0.93,6.26,0.8,9.38,0.47c13.74-1.47,32.74-2.47,45.61-2.88c2.9-0.09,6.09-0.12,8.88,0.73" /></g><path d="M85.19,19.61c0.14,1.22-0.27,2.91-1.29,4.39C72.38,40.88,57.5,58.25,31.94,73.13" /></g><g><path d="M52.66,62.89c0.79,0.79,1.03,1.73,1.03,2.83c0,0.86,0,17.06,0,26.28c0,2.49,0,4.46,0,5.5" /><path d="M54.33,64.03c1.97-0.12,20.28-1.91,25.41-2.38c2.98-0.28,3.69,1.05,3.69,3.73c0,4.66-0.03,17.88-0.04,25.88c-0.01,3.6-0.01,6.15-0.01,6.38" /><path d="M54.72,78.6c7.03-0.72,19.41-1.35,27.63-1.69" /><path d="M54.83,94.96c7.04-0.33,19.81-0.7,27.17-1.11" /></g></g></g></g><g fill="none" stroke="#000" stroke-width="5" stroke-linecap="round" stroke-linejoin="round"><g><g><path d="M20.13,16.25c3.92,1.52,10.13,6.23,11.12,8.59" stroke-dasharray="14.25" stroke-dashoffset="14.25"><animate id="0" attributeName="stroke-dashoffset" values="14.25;0" dur="0.14s" fill="freeze" begin="0s;6e1a.click" /></path><path d="M13.5,41.75c3.27,1.37,8.43,5.62,9.25,7.75" stroke-dasharray="12.24" stroke-dashoffset="12.24"><animate attributeName="stroke-dashoffset" values="12.24" fill="freeze" begin="6e1a.click" /><animate id="1" attributeName="stroke-dashoffset" values="12.24;0" dur="0.12s" fill="freeze" begin="0.end" /></path><path d="M15.88,89.25c1.88,0.37,2.68-0.56,3.57-2.24c2.6-4.9,5.2-10.89,7.56-17.14" stroke-dasharray="23.38" stroke-dashoffset="23.38"><animate attributeName="stroke-dashoffset" values="23.38" fill="freeze" begin="6e1a.click" /><animate id="2" attributeName="stroke-dashoffset" values="23.38;0" dur="0.23s" fill="freeze" begin="1.end" /></path></g><g><g p5:partial xmlns:p5="http://kanjivg.tagaini.net"><g><path d="M41.41,28.55c1.51,0.73,4.82,0.65,6.47,0.49c7.19-0.67,16.62-1.54,23.64-2.24c1.43-0.14,3.16-0.46,4.61-0.04" stroke-dasharray="34.93" stroke-dashoffset="34.93"><animate attributeName="stroke-dashoffset" values="34.93" fill="freeze" begin="6e1a.click" /><animate id="3" attributeName="stroke-dashoffset" values="34.93;0" dur="0.35s" fill="freeze" begin="2.end" /></path><path d="M57.75,13.12c0.94,0.94,1.27,1.88,1.27,3.3c0,8.72,0.01,24.06,0.01,27.03" stroke-dasharray="30.68" stroke-dashoffset="30.68"><animate attributeName="stroke-dashoffset" values="30.68" fill="freeze" begin="6e1a.click" /><animate id="4" attributeName="stroke-dashoffset" values="30.68;0" dur="0.31s" fill="freeze" begin="3.end" /></path><path d="M32.75,45.37c3.06,0.93,6.26,0.8,9.38,0.47c13.74-1.47,32.74-2.47,45.61-2.88c2.9-0.09,6.09-0.12,8.88,0.73" stroke-dasharray="64.12" stroke-dashoffset="64.12"><animate attributeName="stroke-dashoffset" values="64.12" fill="freeze" begin="6e1a.click" /><animate id="5" attributeName="stroke-dashoffset" values="64.12;0" dur="0.48s" fill="freeze" begin="4.end" /></path></g><path d="M85.19,19.61c0.14,1.22-0.27,2.91-1.29,4.39C72.38,40.88,57.5,58.25,31.94,73.13" stroke-dasharray="76.82" stroke-dashoffset="76.82"><animate attributeName="stroke-dashoffset" values="76.82" fill="freeze" begin="6e1a.click" /><animate id="6" attributeName="stroke-dashoffset" values="76.82;0" dur="0.58s" fill="freeze" begin="5.end" /></path></g><g><path d="M52.66,62.89c0.79,0.79,1.03,1.73,1.03,2.83c0,0.86,0,17.06,0,26.28c0,2.49,0,4.46,0,5.5" stroke-dasharray="34.88" stroke-dashoffset="34.88"><animate attributeName="stroke-dashoffset" values="34.88" fill="freeze" begin="6e1a.click" /><animate id="7" attributeName="stroke-dashoffset" values="34.88;0" dur="0.35s" fill="freeze" begin="6.end" /></path><path d="M54.33,64.03c1.97-0.12,20.28-1.91,25.41-2.38c2.98-0.28,3.69,1.05,3.69,3.73c0,4.66-0.03,17.88-0.04,25.88c-0.01,3.6-0.01,6.15-0.01,6.38" stroke-dasharray="64.08" stroke-dashoffset="64.08"><animate attributeName="stroke-dashoffset" values="64.08" fill="freeze" begin="6e1a.click" /><animate id="8" attributeName="stroke-dashoffset" values="64.08;0" dur="0.48s" fill="freeze" begin="7.end" /></path><path d="M54.72,78.6c7.03-0.72,19.41-1.35,27.63-1.69" stroke-dasharray="27.68" stroke-dashoffset="27.68"><animate attributeName="stroke-dashoffset" values="27.68" fill="freeze" begin="6e1a.click" /><animate id="9" attributeName="stroke-dashoffset" values="27.68;0" dur="0.28s" fill="freeze" begin="8.end" /></path><path d="M54.83,94.96c7.04-0.33,19.81-0.7,27.17-1.11" stroke-dasharray="27.19" stroke-dashoffset="27.19"><animate attributeName="stroke-dashoffset" values="27.19" fill="freeze" begin="6e1a.click" /><animate id="10" attributeName="stroke-dashoffset" values="27.19;0" dur="0.27s" fill="freeze" begin="9.end" /></path></g></g></g></g></svg>