<svg xmlns="http://www.w3.org/2000/svg" width="109" height="109" viewBox="0 0 109 109" id="6e1d"><g fill="none" stroke="#666" stroke-width="9" stroke-linecap="round" stroke-linejoin="round"><g><g><path d="M17.63,16.5c4.45,1.78,11.5,7.32,12.62,10.09" /><path d="M14.5,43.25c4.24,1.72,10.94,7.07,12,9.75" /><path d="M15.75,89.73c1.71,1.27,3.78,1.32,4.86-0.25c3.14-4.57,6.29-10.16,9.14-15.99" /></g><g><g><path d="M 64.900813,10.431453 c -0.04496,1.753402 -0.431606,2.697541 -0.962123,3.884459 -4.88255,10.898068 -14.74656,24.25989 -22.614389,30.032629" /><path d="M 59.386395,5.3152892 C 65.6228,6.6784373 73.343249,25.137162 82.898922,36.539902 c 2.099248,2.508193 4.239392,4.955045 6.393167,6.318194" /></g><g><g><path d="M52.69,40.22c0.56,0.03,2.46,0.64,3.16,0.63c4.66-0.07,15.4-1.35,20.95-1.57c1.15-0.04,1.85,0.06,2.43,0.13" /></g><g><path d="M43.61,50.75c0.56,1,0.93,2,1.12,3S45,93.75,44.92,96" /><path d="M45.85,52.69c1.25-0.14,12.71-2.05,13.64-2.21c1.67-0.28,2.29,1.85,2.08,2.71c-0.2,0.82-0.31,25.06-0.31,36.6c0,10.21-4.7,2.56-5.75,1.28" /><path d="M50,59.33c2.07,0.95,5.34,3.91,5.86,5.38" /><path d="M49.58,74.33c1.94,0.99,5.02,4.09,5.5,5.63" /></g><g><path d="M75.37,49.12c0.29,1.03,1.08,2.81,0.65,4.22c-1.3,4.33-5.25,12.02-9.19,17.2c-1.08,1.42-0.01,2.32,0.28,2.61c4.78,4.74,7.61,11.11,10.01,21.36" /><path d="M88.44,48.12c0.32,1.08,1.2,2.94,0.73,4.42c-1.44,4.53-4.84,11.19-9.21,16.6c-1.19,1.49-0.01,2.43,0.31,2.74c5.29,4.96,8.47,11.64,11.01,22.37" /></g></g></g></g></g><g fill="none" stroke="#000" stroke-width="5" stroke-linecap="round" stroke-linejoin="round"><g><g><path d="M17.63,16.5c4.45,1.78,11.5,7.32,12.62,10.09" stroke-dasharray="16.38" stroke-dashoffset="16.38"><animate id="0" attributeName="stroke-dashoffset" values="16.38;0" dur="0.16s" fill="freeze" begin="0s;6e1d.click" /></path><path d="M14.5,43.25c4.24,1.72,10.94,7.07,12,9.75" stroke-dasharray="15.68" stroke-dashoffset="15.68"><animate attributeName="stroke-dashoffset" values="15.68" fill="freeze" begin="6e1d.click" /><animate id="1" attributeName="stroke-dashoffset" values="15.68;0" dur="0.16s" fill="freeze" begin="0.end" /></path><path d="M15.75,89.73c1.71,1.27,3.78,1.32,4.86-0.25c3.14-4.57,6.29-10.16,9.14-15.99" stroke-dasharray="23.91" stroke-dashoffset="23.91"><animate attributeName="stroke-dashoffset" values="23.91" fill="freeze" begin="6e1d.click" /><animate id="2" attributeName="stroke-dashoffset" values="23.91;0" dur="0.24s" fill="freeze" begin="1.end" /></path></g><g><g><path d="M 64.900813,10.431453 c -0.04496,1.753402 -0.431606,2.697541 -0.962123,3.884459 -4.88255,10.898068 -14.74656,24.25989 -22.614389,30.032629" stroke-dasharray="41.95" stroke-dashoffset="41.95"><animate attributeName="stroke-dashoffset" values="41.95" fill="freeze" begin="6e1d.click" /><animate id="3" attributeName="stroke-dashoffset" values="41.95;0" dur="0.42s" fill="freeze" begin="2.end" /></path><path d="M 59.386395,5.3152892 C 65.6228,6.6784373 73.343249,25.137162 82.898922,36.539902 c 2.099248,2.508193 4.239392,4.955045 6.393167,6.318194" stroke-dasharray="48.5" stroke-dashoffset="48.5"><animate attributeName="stroke-dashoffset" values="48.5" fill="freeze" begin="6e1d.click" /><animate id="4" attributeName="stroke-dashoffset" values="48.5;0" dur="0.48s" fill="freeze" begin="3.end" /></path></g><g><g><path d="M52.69,40.22c0.56,0.03,2.46,0.64,3.16,0.63c4.66-0.07,15.4-1.35,20.95-1.57c1.15-0.04,1.85,0.06,2.43,0.13" stroke-dasharray="26.68" stroke-dashoffset="26.68"><animate attributeName="stroke-dashoffset" values="26.68" fill="freeze" begin="6e1d.click" /><animate id="5" attributeName="stroke-dashoffset" values="26.68;0" dur="0.27s" fill="freeze" begin="4.end" /></path></g><g><path d="M43.61,50.75c0.56,1,0.93,2,1.12,3S45,93.75,44.92,96" stroke-dasharray="45.47" stroke-dashoffset="45.47"><animate attributeName="stroke-dashoffset" values="45.47" fill="freeze" begin="6e1d.click" /><animate id="6" attributeName="stroke-dashoffset" values="45.47;0" dur="0.45s" fill="freeze" begin="5.end" /></path><path d="M45.85,52.69c1.25-0.14,12.71-2.05,13.64-2.21c1.67-0.28,2.29,1.85,2.08,2.71c-0.2,0.82-0.31,25.06-0.31,36.6c0,10.21-4.7,2.56-5.75,1.28" stroke-dasharray="66.12" stroke-dashoffset="66.12"><animate attributeName="stroke-dashoffset" values="66.12" fill="freeze" begin="6e1d.click" /><animate id="7" attributeName="stroke-dashoffset" values="66.12;0" dur="0.5s" fill="freeze" begin="6.end" /></path><path d="M50,59.33c2.07,0.95,5.34,3.91,5.86,5.38" stroke-dasharray="8.07" stroke-dashoffset="8.07"><animate attributeName="stroke-dashoffset" values="8.07" fill="freeze" begin="6e1d.click" /><animate id="8" attributeName="stroke-dashoffset" values="8.07;0" dur="0.08s" fill="freeze" begin="7.end" /></path><path d="M49.58,74.33c1.94,0.99,5.02,4.09,5.5,5.63" stroke-dasharray="7.99" stroke-dashoffset="7.99"><animate attributeName="stroke-dashoffset" values="7.99" fill="freeze" begin="6e1d.click" /><animate id="9" attributeName="stroke-dashoffset" values="7.99;0" dur="0.08s" fill="freeze" begin="8.end" /></path></g><g><path d="M75.37,49.12c0.29,1.03,1.08,2.81,0.65,4.22c-1.3,4.33-5.25,12.02-9.19,17.2c-1.08,1.42-0.01,2.32,0.28,2.61c4.78,4.74,7.61,11.11,10.01,21.36" stroke-dasharray="50.79" stroke-dashoffset="50.79"><animate attributeName="stroke-dashoffset" values="50.79" fill="freeze" begin="6e1d.click" /><animate id="10" attributeName="stroke-dashoffset" values="50.79;0" dur="0.51s" fill="freeze" begin="9.end" /></path><path d="M88.44,48.12c0.32,1.08,1.2,2.94,0.73,4.42c-1.44,4.53-4.84,11.19-9.21,16.6c-1.19,1.49-0.01,2.43,0.31,2.74c5.29,4.96,8.47,11.64,11.01,22.37" stroke-dasharray="52.09" stroke-dashoffset="52.09"><animate attributeName="stroke-dashoffset" values="52.09" fill="freeze" begin="6e1d.click" /><animate id="11" attributeName="stroke-dashoffset" values="52.09;0" dur="0.52s" fill="freeze" begin="10.end" /></path></g></g></g></g></g></svg>