<svg xmlns="http://www.w3.org/2000/svg" width="109" height="109" viewBox="0 0 109 109" id="6e2b"><g fill="none" stroke="#666" stroke-width="9" stroke-linecap="round" stroke-linejoin="round"><g><g><path d="M16.63,16.5c4.1,1.6,10.59,6.6,11.62,9.09" /><path d="M13,41.25c4.41,1.72,11.4,7.07,12.5,9.75" /><path d="M12.75,91.17c2,0.33,3.58,0.42,4.6-1.26C20.32,85,25.8,71.5,28.5,65.25" /></g><g><g><g><g><g><path d="M34.66,27.9c1.44,0.52,4.09,0.66,5.53,0.52C52.5,27.25,75,24.25,90.71,24.28c2.4,0,3.84,0.25,5.05,0.51" /></g><path d="M61.09,12.6c0.71,0.33,1.14,1.49,1.28,2.15c0.14,0.66,0.51,23.56,0.37,27.69" /></g><path d="M77.16,10.75c0.71,0.33,1.14,1.49,1.28,2.15c0.14,0.66-0.89,18.96-1.31,25.91" /><path d="M63.16,39.83c2.62,0,16.08-0.82,17.55-0.82" /></g><path d="M45.41,14.93c0.71,0.33,1.14,1.49,1.28,2.15c0.14,0.66,0.52,21,0.02,28.6c-0.16,2.48-0.25,4.36,2.45,4.14c11.49-0.93,24.44-1.69,35.77-2.01c2.13-0.06,3.93,0.13,4.74,0.3" /></g><g><path d="M36.47,66.42c1.66,0.55,3.55,0.72,5.46,0.55c9.74-0.9,34.04-2.79,48.76-3.84c1.9-0.13,3.09,0.09,4.99,0.48" /><path d="M63.43,53.98c1.02,0.41,1.83,1.83,1.83,2.68c0,8.65,0,39.19-0.2,44.34" /><path d="M63.88,66.3c-4.96,8.61-18.27,21.76-28.6,26.63" /><path d="M65.07,65.17C70,70.5,85.5,87,91.76,90.97c1.6,1.02,2.69,1.76,4.14,2.11" /></g></g></g></g><g fill="none" stroke="#000" stroke-width="5" stroke-linecap="round" stroke-linejoin="round"><g><g><path d="M16.63,16.5c4.1,1.6,10.59,6.6,11.62,9.09" stroke-dasharray="14.96" stroke-dashoffset="14.96"><animate id="0" attributeName="stroke-dashoffset" values="14.96;0" dur="0.15s" fill="freeze" begin="0s;6e2b.click" /></path><path d="M13,41.25c4.41,1.72,11.4,7.07,12.5,9.75" stroke-dasharray="16.08" stroke-dashoffset="16.08"><animate attributeName="stroke-dashoffset" values="16.08" fill="freeze" begin="6e2b.click" /><animate id="1" attributeName="stroke-dashoffset" values="16.08;0" dur="0.16s" fill="freeze" begin="0.end" /></path><path d="M12.75,91.17c2,0.33,3.58,0.42,4.6-1.26C20.32,85,25.8,71.5,28.5,65.25" stroke-dasharray="32.22" stroke-dashoffset="32.22"><animate attributeName="stroke-dashoffset" values="32.22" fill="freeze" begin="6e2b.click" /><animate id="2" attributeName="stroke-dashoffset" values="32.22;0" dur="0.32s" fill="freeze" begin="1.end" /></path></g><g><g><g><g><g><path d="M34.66,27.9c1.44,0.52,4.09,0.66,5.53,0.52C52.5,27.25,75,24.25,90.71,24.28c2.4,0,3.84,0.25,5.05,0.51" stroke-dasharray="61.38" stroke-dashoffset="61.38"><animate attributeName="stroke-dashoffset" values="61.38" fill="freeze" begin="6e2b.click" /><animate id="3" attributeName="stroke-dashoffset" values="61.38;0" dur="0.46s" fill="freeze" begin="2.end" /></path></g><path d="M61.09,12.6c0.71,0.33,1.14,1.49,1.28,2.15c0.14,0.66,0.51,23.56,0.37,27.69" stroke-dasharray="30.27" stroke-dashoffset="30.27"><animate attributeName="stroke-dashoffset" values="30.27" fill="freeze" begin="6e2b.click" /><animate id="4" attributeName="stroke-dashoffset" values="30.27;0" dur="0.3s" fill="freeze" begin="3.end" /></path></g><path d="M77.16,10.75c0.71,0.33,1.14,1.49,1.28,2.15c0.14,0.66-0.89,18.96-1.31,25.91" stroke-dasharray="28.52" stroke-dashoffset="28.52"><animate attributeName="stroke-dashoffset" values="28.52" fill="freeze" begin="6e2b.click" /><animate id="5" attributeName="stroke-dashoffset" values="28.52;0" dur="0.29s" fill="freeze" begin="4.end" /></path><path d="M63.16,39.83c2.62,0,16.08-0.82,17.55-0.82" stroke-dasharray="17.57" stroke-dashoffset="17.57"><animate attributeName="stroke-dashoffset" values="17.57" fill="freeze" begin="6e2b.click" /><animate id="6" attributeName="stroke-dashoffset" values="17.57;0" dur="0.18s" fill="freeze" begin="5.end" /></path></g><path d="M45.41,14.93c0.71,0.33,1.14,1.49,1.28,2.15c0.14,0.66,0.52,21,0.02,28.6c-0.16,2.48-0.25,4.36,2.45,4.14c11.49-0.93,24.44-1.69,35.77-2.01c2.13-0.06,3.93,0.13,4.74,0.3" stroke-dasharray="77.62" stroke-dashoffset="77.62"><animate attributeName="stroke-dashoffset" values="77.62" fill="freeze" begin="6e2b.click" /><animate id="7" attributeName="stroke-dashoffset" values="77.62;0" dur="0.58s" fill="freeze" begin="6.end" /></path></g><g><path d="M36.47,66.42c1.66,0.55,3.55,0.72,5.46,0.55c9.74-0.9,34.04-2.79,48.76-3.84c1.9-0.13,3.09,0.09,4.99,0.48" stroke-dasharray="59.47" stroke-dashoffset="59.47"><animate attributeName="stroke-dashoffset" values="59.47" fill="freeze" begin="6e2b.click" /><animate id="8" attributeName="stroke-dashoffset" values="59.47;0" dur="0.59s" fill="freeze" begin="7.end" /></path><path d="M63.43,53.98c1.02,0.41,1.83,1.83,1.83,2.68c0,8.65,0,39.19-0.2,44.34" stroke-dasharray="47.73" stroke-dashoffset="47.73"><animate attributeName="stroke-dashoffset" values="47.73" fill="freeze" begin="6e2b.click" /><animate id="9" attributeName="stroke-dashoffset" values="47.73;0" dur="0.48s" fill="freeze" begin="8.end" /></path><path d="M63.88,66.3c-4.96,8.61-18.27,21.76-28.6,26.63" stroke-dasharray="39.51" stroke-dashoffset="39.51"><animate attributeName="stroke-dashoffset" values="39.51" fill="freeze" begin="6e2b.click" /><animate id="10" attributeName="stroke-dashoffset" values="39.51;0" dur="0.4s" fill="freeze" begin="9.end" /></path><path d="M65.07,65.17C70,70.5,85.5,87,91.76,90.97c1.6,1.02,2.69,1.76,4.14,2.11" stroke-dasharray="41.85" stroke-dashoffset="41.85"><animate attributeName="stroke-dashoffset" values="41.85" fill="freeze" begin="6e2b.click" /><animate id="11" attributeName="stroke-dashoffset" values="41.85;0" dur="0.42s" fill="freeze" begin="10.end" /></path></g></g></g></g></svg>