<svg xmlns="http://www.w3.org/2000/svg" width="109" height="109" viewBox="0 0 109 109" id="6e4e"><g fill="none" stroke="#666" stroke-width="9" stroke-linecap="round" stroke-linejoin="round"><g><g><path d="M16.88,15.25c4.37,1.65,11.27,6.78,12.37,9.34" /><path d="M12.25,41.5c4.68,1.85,12.08,7.62,13.25,10.5" /><path d="M14.75,88.71c1.5,1.31,3.31,1.36,4.25-0.25C21.75,83.75,28,73,30.5,67" /></g><g><path d="M36.77,19.87c2.03,0.56,5.72,0.71,7.78,0.56c13.2-0.93,33.2-2.68,45.61-3.42c3.37-0.2,5.41,0.27,7.1,0.55" /><path d="M62.89,21.6c0.02,0.37,0.05,0.96-0.05,1.49c-0.6,3.14-4.04,10.04-8.75,14.26" /><path d="M40,38.67c0.8,1,1.24,1.75,1.26,3.07C41.5,58,41,77.25,41.46,95.25" /><path d="M41.81,40.83c13.01-1.34,38.4-3.73,46.69-4.03c3.43-0.12,5.15,1.73,4.98,4.59c-0.73,12.35-0.98,37.35-2.27,53.04" /><path d="M56.29,41.53c0.53,0.78,1.06,2.08,1.06,3.12s0.21,43.84,0.21,43.84" /><path d="M73.64,40.93c0.53,1.3,1.06,2.08,1.06,3.12s-0.24,42.04-0.24,44.64" /><path d="M57.88,55.52c1.77,0,14.49-0.82,16.26-0.82" /><path d="M57.91,71.4c3-0.52,14.08-1.06,16.55-1.32" /><path d="M42.27,91.59c3.71-0.26,44.83-3.12,49.25-3.12" /></g></g></g><g fill="none" stroke="#000" stroke-width="5" stroke-linecap="round" stroke-linejoin="round"><path d="M16.88,15.25c4.37,1.65,11.27,6.78,12.37,9.34" stroke-dasharray="15.714" stroke-dashoffset="15.714"><animate attributeName="stroke-dashoffset" values="15.714;15.714;0" dur="0.157s" fill="freeze" begin="0s;6e4e.click" /></path><path d="M12.25,41.5c4.68,1.85,12.08,7.62,13.25,10.5" stroke-dasharray="17.145" stroke-dashoffset="17.145"><animate attributeName="stroke-dashoffset" values="17.145" fill="freeze" begin="6e4e.click" /><animate attributeName="stroke-dashoffset" values="17.145;17.145;0" keyTimes="0;0.479;1" dur="0.328s" fill="freeze" begin="0s;6e4e.click" /></path><path d="M14.75,88.71c1.5,1.31,3.31,1.36,4.25-0.25C21.75,83.75,28,73,30.5,67" stroke-dasharray="29.326" stroke-dashoffset="29.326"><animate attributeName="stroke-dashoffset" values="29.326" fill="freeze" begin="6e4e.click" /><animate attributeName="stroke-dashoffset" values="29.326;29.326;0" keyTimes="0;0.528;1" dur="0.621s" fill="freeze" begin="0s;6e4e.click" /></path><path d="M36.77,19.87c2.03,0.56,5.72,0.71,7.78,0.56c13.2-0.93,33.2-2.68,45.61-3.42c3.37-0.2,5.41,0.27,7.1,0.55" stroke-dasharray="60.709" stroke-dashoffset="60.709"><animate attributeName="stroke-dashoffset" values="60.709" fill="freeze" begin="6e4e.click" /><animate attributeName="stroke-dashoffset" values="60.709;60.709;0" keyTimes="0;0.577;1" dur="1.077s" fill="freeze" begin="0s;6e4e.click" /></path><path d="M62.89,21.6c0.02,0.37,0.05,0.96-0.05,1.49c-0.6,3.14-4.04,10.04-8.75,14.26" stroke-dasharray="18.44" stroke-dashoffset="18.44"><animate attributeName="stroke-dashoffset" values="18.44" fill="freeze" begin="6e4e.click" /><animate attributeName="stroke-dashoffset" values="18.44;18.44;0" keyTimes="0;0.854;1" dur="1.261s" fill="freeze" begin="0s;6e4e.click" /></path><path d="M40,38.67c0.8,1,1.24,1.75,1.26,3.07C41.5,58,41,77.25,41.46,95.25" stroke-dasharray="56.908" stroke-dashoffset="56.908"><animate attributeName="stroke-dashoffset" values="56.908" fill="freeze" begin="6e4e.click" /><animate attributeName="stroke-dashoffset" values="56.908;56.908;0" keyTimes="0;0.689;1" dur="1.83s" fill="freeze" begin="0s;6e4e.click" /></path><path d="M41.81,40.83c13.01-1.34,38.4-3.73,46.69-4.03c3.43-0.12,5.15,1.73,4.98,4.59c-0.73,12.35-0.98,37.35-2.27,53.04" stroke-dasharray="107.804" stroke-dashoffset="107.804"><animate attributeName="stroke-dashoffset" values="107.804" fill="freeze" begin="6e4e.click" /><animate attributeName="stroke-dashoffset" values="107.804;107.804;0" keyTimes="0;0.693;1" dur="2.641s" fill="freeze" begin="0s;6e4e.click" /></path><path d="M56.29,41.53c0.53,0.78,1.06,2.08,1.06,3.12s0.21,43.84,0.21,43.84" stroke-dasharray="47.178" stroke-dashoffset="47.178"><animate attributeName="stroke-dashoffset" values="47.178" fill="freeze" begin="6e4e.click" /><animate attributeName="stroke-dashoffset" values="47.178;47.178;0" keyTimes="0;0.848;1" dur="3.113s" fill="freeze" begin="0s;6e4e.click" /></path><path d="M73.64,40.93c0.53,1.3,1.06,2.08,1.06,3.12s-0.24,42.04-0.24,44.64" stroke-dasharray="47.962" stroke-dashoffset="47.962"><animate attributeName="stroke-dashoffset" values="47.962" fill="freeze" begin="6e4e.click" /><animate attributeName="stroke-dashoffset" values="47.962;47.962;0" keyTimes="0;0.866;1" dur="3.593s" fill="freeze" begin="0s;6e4e.click" /></path><path d="M57.88,55.52c1.77,0,14.49-0.82,16.26-0.82" stroke-dasharray="16.282" stroke-dashoffset="16.282"><animate attributeName="stroke-dashoffset" values="16.282" fill="freeze" begin="6e4e.click" /><animate attributeName="stroke-dashoffset" values="16.282;16.282;0" keyTimes="0;0.957;1" dur="3.756s" fill="freeze" begin="0s;6e4e.click" /></path><path d="M57.91,71.4c3-0.52,14.08-1.06,16.55-1.32" stroke-dasharray="16.607" stroke-dashoffset="16.607"><animate attributeName="stroke-dashoffset" values="16.607" fill="freeze" begin="6e4e.click" /><animate attributeName="stroke-dashoffset" values="16.607;16.607;0" keyTimes="0;0.958;1" dur="3.922s" fill="freeze" begin="0s;6e4e.click" /></path><path d="M42.27,91.59c3.71-0.26,44.83-3.12,49.25-3.12" stroke-dasharray="49.351" stroke-dashoffset="49.351"><animate attributeName="stroke-dashoffset" values="49.351" fill="freeze" begin="6e4e.click" /><animate attributeName="stroke-dashoffset" values="49.351;49.351;0" keyTimes="0;0.888;1" dur="4.416s" fill="freeze" begin="0s;6e4e.click" /></path></g></svg>