<svg xmlns="http://www.w3.org/2000/svg" width="109" height="109" viewBox="0 0 109 109" id="6e6f"><g fill="none" stroke="#666" stroke-width="6" stroke-linecap="round" stroke-linejoin="round"><g><g><path d="M21.76,17.5c3.79,1.38,9.79,5.69,10.74,7.84" /><path d="M15.62,43.75C19.64,45.12,26,49.37,27,51.5" /><path d="M17.41,90.95c1.34,0.3,2.96,0.02,3.59-1.24c3.12-6.33,5.75-12.2,8.25-18.2" /></g><g p4:phon="昜" xmlns:p4="http://kanjivg.tagaini.net"><g><g><path d="M47.55,13.84c0.81,0.81,1.68,1.97,1.83,2.8c1,5.49,2.61,15.52,3.69,21.97c0.31,1.84,0.51,3.08,0.54,3.29" /><path d="M49.84,15.36c4.93-0.73,18.17-2.49,26.43-3.34c3.64-0.37,6.47,1.11,6.01,5c-0.74,6.25-1.97,13.21-2.87,18.51c-0.2,1.15-0.38,2.23-0.53,3.2" /><path d="M52.2,26.76c7.55-0.88,22.92-2.63,28.04-3.02" /><path d="M54.19,38.96c4.51-0.62,18.23-2.19,23.85-2.73" /></g><g><path d="M38,50.76c3,0.36,6.6,0.25,9.59-0.08c12.75-1.44,27.91-2.8,40.36-4c3.1-0.3,6.2-0.34,9.28,0.19" /></g></g><g><g><g><path d="M54,53.25c0.09,0.64-0.23,1.59-0.58,2.26c-2.51,4.8-8.98,11.46-16.49,16.92" /></g><path d="M51.69,62.7c1.69,0.55,3.6,0.33,5.13,0.17C64.12,62.12,77.38,60.38,87,59c5.15-0.74,6.83,0.75,6.07,5.9c-1.32,8.85-3.69,20.72-11.15,31.17c-2.26,3.17-4.79,1.31-7.38-2.15" /></g><g><path d="M59.45,65.85c0.05,0.9-0.25,2.04-0.57,2.6c-3.26,5.67-9.51,11.8-19.01,17.05" /></g><g><path d="M75.25,64.12c0.09,1.41-0.14,2.37-0.7,3.68C71,76.12,60.62,90,45.38,97.5" /></g></g></g></g></g><g fill="none" stroke="#000" stroke-width="3" stroke-linecap="round" stroke-linejoin="round"><path d="M21.76,17.5c3.79,1.38,9.79,5.69,10.74,7.84" stroke-dasharray="13.479" stroke-dashoffset="13.479"><animate attributeName="stroke-dashoffset" values="13.479;13.479;0" dur="0.135s" fill="freeze" begin="0s;6e6f.click" /></path><path d="M15.62,43.75C19.64,45.12,26,49.37,27,51.5" stroke-dasharray="13.951" stroke-dashoffset="13.951"><animate attributeName="stroke-dashoffset" values="13.951" fill="freeze" begin="6e6f.click" /><animate attributeName="stroke-dashoffset" values="13.951;13.951;0" keyTimes="0;0.491;1" dur="0.275s" fill="freeze" begin="0s;6e6f.click" /></path><path d="M17.41,90.95c1.34,0.3,2.96,0.02,3.59-1.24c3.12-6.33,5.75-12.2,8.25-18.2" stroke-dasharray="24.075" stroke-dashoffset="24.075"><animate attributeName="stroke-dashoffset" values="24.075" fill="freeze" begin="6e6f.click" /><animate attributeName="stroke-dashoffset" values="24.075;24.075;0" keyTimes="0;0.533;1" dur="0.516s" fill="freeze" begin="0s;6e6f.click" /></path><path d="M47.55,13.84c0.81,0.81,1.68,1.97,1.83,2.8c1,5.49,2.61,15.52,3.69,21.97c0.31,1.84,0.51,3.08,0.54,3.29" stroke-dasharray="28.998" stroke-dashoffset="28.998"><animate attributeName="stroke-dashoffset" values="28.998" fill="freeze" begin="6e6f.click" /><animate attributeName="stroke-dashoffset" values="28.998;28.998;0" keyTimes="0;0.64;1" dur="0.806s" fill="freeze" begin="0s;6e6f.click" /></path><path d="M49.84,15.36c4.93-0.73,18.17-2.49,26.43-3.34c3.64-0.37,6.47,1.11,6.01,5c-0.74,6.25-1.97,13.21-2.87,18.51c-0.2,1.15-0.38,2.23-0.53,3.2" stroke-dasharray="57.931" stroke-dashoffset="57.931"><animate attributeName="stroke-dashoffset" values="57.931" fill="freeze" begin="6e6f.click" /><animate attributeName="stroke-dashoffset" values="57.931;57.931;0" keyTimes="0;0.582;1" dur="1.385s" fill="freeze" begin="0s;6e6f.click" /></path><path d="M52.2,26.76c7.55-0.88,22.92-2.63,28.04-3.02" stroke-dasharray="28.204" stroke-dashoffset="28.204"><animate attributeName="stroke-dashoffset" values="28.204" fill="freeze" begin="6e6f.click" /><animate attributeName="stroke-dashoffset" values="28.204;28.204;0" keyTimes="0;0.831;1" dur="1.667s" fill="freeze" begin="0s;6e6f.click" /></path><path d="M54.19,38.96c4.51-0.62,18.23-2.19,23.85-2.73" stroke-dasharray="24.008" stroke-dashoffset="24.008"><animate attributeName="stroke-dashoffset" values="24.008" fill="freeze" begin="6e6f.click" /><animate attributeName="stroke-dashoffset" values="24.008;24.008;0" keyTimes="0;0.874;1" dur="1.907s" fill="freeze" begin="0s;6e6f.click" /></path><path d="M38,50.76c3,0.36,6.6,0.25,9.59-0.08c12.75-1.44,27.91-2.8,40.36-4c3.1-0.3,6.2-0.34,9.28,0.19" stroke-dasharray="59.479" stroke-dashoffset="59.479"><animate attributeName="stroke-dashoffset" values="59.479" fill="freeze" begin="6e6f.click" /><animate attributeName="stroke-dashoffset" values="59.479;59.479;0" keyTimes="0;0.762;1" dur="2.502s" fill="freeze" begin="0s;6e6f.click" /></path><path d="M54,53.25c0.09,0.64-0.23,1.59-0.58,2.26c-2.51,4.8-8.98,11.46-16.49,16.92" stroke-dasharray="26.157" stroke-dashoffset="26.157"><animate attributeName="stroke-dashoffset" values="26.157" fill="freeze" begin="6e6f.click" /><animate attributeName="stroke-dashoffset" values="26.157;26.157;0" keyTimes="0;0.905;1" dur="2.764s" fill="freeze" begin="0s;6e6f.click" /></path><path d="M51.69,62.7c1.69,0.55,3.6,0.33,5.13,0.17C64.12,62.12,77.38,60.38,87,59c5.15-0.74,6.83,0.75,6.07,5.9c-1.32,8.85-3.69,20.72-11.15,31.17c-2.26,3.17-4.79,1.31-7.38-2.15" stroke-dasharray="89.392" stroke-dashoffset="89.392"><animate attributeName="stroke-dashoffset" values="89.392" fill="freeze" begin="6e6f.click" /><animate attributeName="stroke-dashoffset" values="89.392;89.392;0" keyTimes="0;0.804;1" dur="3.436s" fill="freeze" begin="0s;6e6f.click" /></path><path d="M59.45,65.85c0.05,0.9-0.25,2.04-0.57,2.6c-3.26,5.67-9.51,11.8-19.01,17.05" stroke-dasharray="28.528" stroke-dashoffset="28.528"><animate attributeName="stroke-dashoffset" values="28.528" fill="freeze" begin="6e6f.click" /><animate attributeName="stroke-dashoffset" values="28.528;28.528;0" keyTimes="0;0.923;1" dur="3.721s" fill="freeze" begin="0s;6e6f.click" /></path><path d="M75.25,64.12c0.09,1.41-0.14,2.37-0.7,3.68C71,76.12,60.62,90,45.38,97.5" stroke-dasharray="46.178" stroke-dashoffset="46.178"><animate attributeName="stroke-dashoffset" values="46.178" fill="freeze" begin="6e6f.click" /><animate attributeName="stroke-dashoffset" values="46.178;46.178;0" keyTimes="0;0.89;1" dur="4.183s" fill="freeze" begin="0s;6e6f.click" /></path></g></svg>