<svg xmlns="http://www.w3.org/2000/svg" width="109" height="109" viewBox="0 0 109 109" id="6e80"><g fill="none" stroke="#666" stroke-width="9" stroke-linecap="round" stroke-linejoin="round"><g><g><path d="M 19.88,17 c 3.31,1.47 8.12,5.38 10.37,8.34" /><path d="M 15.5,38.75 c 3.71,1.41 8.5,5.12 10.5,8" /><path d="M 12.62,90.48 c 1.3,0.38 2.57,0 3.35,-1.29 3.32,-5.52 6.64,-12.27 9.65,-19.31" /></g><g p4:phon="廿+両" xmlns:p4="http://kanjivg.tagaini.net"><g><path d="M 37.93726,29.02 c 1.76,0.53 5.09,0.47 6.84,0.28 14.78,-1.67 28.692576,-3.42 41.792576,-4.03 2.93,-0.14 4.69,0.25 6.15,0.51" /><path d="M 51.67,15.5 c 1.04,1.04 1.92,2.36 1.99,3.25 0.84,10.25 1.59,15.75 2,22.25" /></g><path d="M 76.25,13.55 c 0.78,0.79 1.03,1.94 0.85,3.42 -1.06,8.72 -1.67,14.31 -3,22.55" /><g p4:part="1"><g><path d="M 36.151595,43.43 c 1.55,0.42 4.402969,0.609834 5.94,0.42 9.752306,-1.204476 35.042963,-2.762866 47.628262,-3.84 2.573863,-0.220289 4.13,0.2 5.42,0.42" /></g></g><g p4:part="2"><g><path d="M 39.82,55.91 c 0.88,0.88 1.24,2.21 1.28,3.43 0.27,7.71 0.11,20.47 -0.02,28.29 -0.06,3.5 -0.11,6.01 -0.11,6.62" /><path d="M 41.75,57.27 C 49.19,56.74 86.6,52 88.07,51.9 c 4.18,-0.28 5.87,1.59 5.87,6.37 0,2.77 -0.31,21.4 -1.28,33.31 -0.66,8.04 -5.41,1.29 -7.15,-0.78" /></g></g><g><path d="M 64.8,43.91 c 0.83,0.83 1.25,1.96 1.25,3.33 0,0.71 -0.06,26.44 -0.15,30.82" /><path d="M 53.41,67.46 c 0.82,0.82 1.09,2.04 0.95,3.29 -0.34,3.13 -0.49,4.75 -0.78,7.25 -0.2,1.73 0.84,3.19 2.12,2.94 6.55,-1.32 15.17,-2.57 21.97,-3.41" /><path d="M 78.22,64.99 c 0.83,0.83 1.03,2.14 0.96,3.33 -0.18,2.96 -0.31,5.85 -0.43,8.93 -0.06,1.53 -0.11,3.11 -0.17,4.77" /></g></g></g></g><g fill="none" stroke="#000" stroke-width="5" stroke-linecap="round" stroke-linejoin="round"><g><g><path d="M 19.88,17 c 3.31,1.47 8.12,5.38 10.37,8.34" stroke-dasharray="13.41" stroke-dashoffset="13.41"><animate id="0" attributeName="stroke-dashoffset" values="13.41;0" dur="0.13s" fill="freeze" begin="0s;6e80.click" /></path><path d="M 15.5,38.75 c 3.71,1.41 8.5,5.12 10.5,8" stroke-dasharray="13.35" stroke-dashoffset="13.35"><animate attributeName="stroke-dashoffset" values="13.35" fill="freeze" begin="6e80.click" /><animate id="1" attributeName="stroke-dashoffset" values="13.35;0" dur="0.13s" fill="freeze" begin="0.end" /></path><path d="M 12.62,90.48 c 1.3,0.38 2.57,0 3.35,-1.29 3.32,-5.52 6.64,-12.27 9.65,-19.31" stroke-dasharray="25.5" stroke-dashoffset="25.5"><animate attributeName="stroke-dashoffset" values="25.5" fill="freeze" begin="6e80.click" /><animate id="2" attributeName="stroke-dashoffset" values="25.5;0" dur="0.26s" fill="freeze" begin="1.end" /></path></g><g p4:phon="廿+両" xmlns:p4="http://kanjivg.tagaini.net"><g><path d="M 37.93726,29.02 c 1.76,0.53 5.09,0.47 6.84,0.28 14.78,-1.67 28.692576,-3.42 41.792576,-4.03 2.93,-0.14 4.69,0.25 6.15,0.51" stroke-dasharray="55.06" stroke-dashoffset="55.06"><animate attributeName="stroke-dashoffset" values="55.06" fill="freeze" begin="6e80.click" /><animate id="3" attributeName="stroke-dashoffset" values="55.06;0" dur="0.55s" fill="freeze" begin="2.end" /></path><path d="M 51.67,15.5 c 1.04,1.04 1.92,2.36 1.99,3.25 0.84,10.25 1.59,15.75 2,22.25" stroke-dasharray="26.21" stroke-dashoffset="26.21"><animate attributeName="stroke-dashoffset" values="26.21" fill="freeze" begin="6e80.click" /><animate id="4" attributeName="stroke-dashoffset" values="26.21;0" dur="0.26s" fill="freeze" begin="3.end" /></path></g><path d="M 76.25,13.55 c 0.78,0.79 1.03,1.94 0.85,3.42 -1.06,8.72 -1.67,14.31 -3,22.55" stroke-dasharray="26.4" stroke-dashoffset="26.4"><animate attributeName="stroke-dashoffset" values="26.4" fill="freeze" begin="6e80.click" /><animate id="5" attributeName="stroke-dashoffset" values="26.4;0" dur="0.26s" fill="freeze" begin="4.end" /></path><g p4:part="1"><g><path d="M 36.151595,43.43 c 1.55,0.42 4.402969,0.609834 5.94,0.42 9.752306,-1.204476 35.042963,-2.762866 47.628262,-3.84 2.573863,-0.220289 4.13,0.2 5.42,0.42" stroke-dasharray="59.22" stroke-dashoffset="59.22"><animate attributeName="stroke-dashoffset" values="59.22" fill="freeze" begin="6e80.click" /><animate id="6" attributeName="stroke-dashoffset" values="59.22;0" dur="0.59s" fill="freeze" begin="5.end" /></path></g></g><g p4:part="2"><g><path d="M 39.82,55.91 c 0.88,0.88 1.24,2.21 1.28,3.43 0.27,7.71 0.11,20.47 -0.02,28.29 -0.06,3.5 -0.11,6.01 -0.11,6.62" stroke-dasharray="38.66" stroke-dashoffset="38.66"><animate attributeName="stroke-dashoffset" values="38.66" fill="freeze" begin="6e80.click" /><animate id="7" attributeName="stroke-dashoffset" values="38.66;0" dur="0.39s" fill="freeze" begin="6.end" /></path><path d="M 41.75,57.27 C 49.19,56.74 86.6,52 88.07,51.9 c 4.18,-0.28 5.87,1.59 5.87,6.37 0,2.77 -0.31,21.4 -1.28,33.31 -0.66,8.04 -5.41,1.29 -7.15,-0.78" stroke-dasharray="102" stroke-dashoffset="102"><animate attributeName="stroke-dashoffset" values="102" fill="freeze" begin="6e80.click" /><animate id="8" attributeName="stroke-dashoffset" values="102;0" dur="0.77s" fill="freeze" begin="7.end" /></path></g></g><g><path d="M 64.8,43.91 c 0.83,0.83 1.25,1.96 1.25,3.33 0,0.71 -0.06,26.44 -0.15,30.82" stroke-dasharray="34.47" stroke-dashoffset="34.47"><animate attributeName="stroke-dashoffset" values="34.47" fill="freeze" begin="6e80.click" /><animate id="9" attributeName="stroke-dashoffset" values="34.47;0" dur="0.34s" fill="freeze" begin="8.end" /></path><path d="M 53.41,67.46 c 0.82,0.82 1.09,2.04 0.95,3.29 -0.34,3.13 -0.49,4.75 -0.78,7.25 -0.2,1.73 0.84,3.19 2.12,2.94 6.55,-1.32 15.17,-2.57 21.97,-3.41" stroke-dasharray="37.27" stroke-dashoffset="37.27"><animate attributeName="stroke-dashoffset" values="37.27" fill="freeze" begin="6e80.click" /><animate id="10" attributeName="stroke-dashoffset" values="37.27;0" dur="0.37s" fill="freeze" begin="9.end" /></path><path d="M 78.22,64.99 c 0.83,0.83 1.03,2.14 0.96,3.33 -0.18,2.96 -0.31,5.85 -0.43,8.93 -0.06,1.53 -0.11,3.11 -0.17,4.77" stroke-dasharray="17.28" stroke-dashoffset="17.28"><animate attributeName="stroke-dashoffset" values="17.28" fill="freeze" begin="6e80.click" /><animate id="11" attributeName="stroke-dashoffset" values="17.28;0" dur="0.17s" fill="freeze" begin="10.end" /></path></g></g></g></g></svg>