<svg xmlns="http://www.w3.org/2000/svg" viewBox="0 0 109 109" id="6e9d"><g fill="none" stroke="#666" stroke-width="6" stroke-linecap="round" stroke-linejoin="round"><g><g><path d="M18.63,16.75c4.28,1.56,11.05,6.41,12.12,8.84" /><path d="M15,42.75c3.79,1.23,9.8,5.08,10.75,7" /><path d="M16.24,91.78c1.26,0.6,2.56,0.35,3.31-0.96c2.82-4.86,5.64-10.8,8.2-17" /></g><g p4:phon="冓" xmlns:p4="http://kanjivg.tagaini.net"><g><g><path d="M40.23,25.54c1.96,0.68,5.04,0.85,7.04,0.61c9.48-1.15,23.32-2.97,32.38-3.85c2.19-0.21,4.77-0.7,6.97-0.24" /></g><path d="M50.45,14.02c1.02,1.02,1.55,2.11,1.76,3.77c0.1,0.8,1.16,16.46,1.74,26.83" /><path d="M72.39,12.88c1.11,1.24,1.11,2.24,1.01,3.86c-0.2,3.26-1.56,19.19-2.16,26.44" /><g><g><path d="M39.83,35.91c2.2,0.76,5.42,0.42,7.69,0.2c8.45-0.82,23.78-2.8,32.48-3.73c2-0.21,3.79-0.37,5.76,0.05" /></g><g><g><path d="M32.57,47.23C36,47.75,39.54,47.4,43,46.93c11.49-1.57,28.62-3.25,40.75-3.94c3.36-0.19,6.62-0.23,9.93,0.49" /></g></g></g></g><g><g><g><path d="M44.7,55.9c1.08,1.08,1.26,2.48,1.26,4.39c0,1.91-0.04,20.58-0.07,30.34c-0.01,3.41-0.01,5.73-0.01,5.87" /><path d="M47.46,57.58c3.97-0.47,21.29-2.48,28.05-3.4c3.66-0.5,5.93,0.57,5.93,4.07c0,7.87-0.06,30.4-0.06,33.37c0,8.67-4.88,2.62-7.05,0.31" /></g><g><path d="M61.51,46.46c0.77,0.77,1.19,2.01,1.19,3.25c0,7.99-0.07,15.85-0.07,26.41" /><path d="M47.13,67.92c10.62-1.42,22.69-2.79,32.96-3.34" /><path d="M33.44,79.23c2.81,0.64,5.8,0.26,8.45-0.03c15.49-1.7,30.61-3.33,43.88-4.04c2.9-0.16,5.37-0.01,8.2,0.58" /></g></g></g></g></g></g><g fill="none" stroke="#000" stroke-width="3" stroke-linecap="round" stroke-linejoin="round"><path d="M18.63,16.75c4.28,1.56,11.05,6.41,12.12,8.84" stroke-dasharray="15.207" stroke-dashoffset="15.207"><animate attributeName="stroke-dashoffset" values="15.207;15.207;0" dur="0.152s" fill="freeze" begin="0s;6e9d.click" /></path><path d="M15,42.75c3.79,1.23,9.8,5.08,10.75,7" stroke-dasharray="12.993" stroke-dashoffset="12.993"><animate attributeName="stroke-dashoffset" values="12.993" fill="freeze" begin="6e9d.click" /><animate attributeName="stroke-dashoffset" values="12.993;12.993;0" keyTimes="0;0.369;1" dur="0.412s" fill="freeze" begin="0s;6e9d.click" /></path><path d="M16.24,91.78c1.26,0.6,2.56,0.35,3.31-0.96c2.82-4.86,5.64-10.8,8.2-17" stroke-dasharray="22.732" stroke-dashoffset="22.732"><animate attributeName="stroke-dashoffset" values="22.732" fill="freeze" begin="6e9d.click" /><animate attributeName="stroke-dashoffset" values="22.732;22.732;0" keyTimes="0;0.645;1" dur="0.639s" fill="freeze" begin="0s;6e9d.click" /></path><path d="M40.23,25.54c1.96,0.68,5.04,0.85,7.04,0.61c9.48-1.15,23.32-2.97,32.38-3.85c2.19-0.21,4.77-0.7,6.97-0.24" stroke-dasharray="46.728" stroke-dashoffset="46.728"><animate attributeName="stroke-dashoffset" values="46.728" fill="freeze" begin="6e9d.click" /><animate attributeName="stroke-dashoffset" values="46.728;46.728;0" keyTimes="0;0.578;1" dur="1.106s" fill="freeze" begin="0s;6e9d.click" /></path><path d="M50.45,14.02c1.02,1.02,1.55,2.11,1.76,3.77c0.1,0.8,1.16,16.46,1.74,26.83" stroke-dasharray="31.136" stroke-dashoffset="31.136"><animate attributeName="stroke-dashoffset" values="31.136" fill="freeze" begin="6e9d.click" /><animate attributeName="stroke-dashoffset" values="31.136;31.136;0" keyTimes="0;0.781;1" dur="1.417s" fill="freeze" begin="0s;6e9d.click" /></path><path d="M72.39,12.88c1.11,1.24,1.11,2.24,1.01,3.86c-0.2,3.26-1.56,19.19-2.16,26.44" stroke-dasharray="30.662" stroke-dashoffset="30.662"><animate attributeName="stroke-dashoffset" values="30.662" fill="freeze" begin="6e9d.click" /><animate attributeName="stroke-dashoffset" values="30.662;30.662;0" keyTimes="0;0.822;1" dur="1.724s" fill="freeze" begin="0s;6e9d.click" /></path><path d="M39.83,35.91c2.2,0.76,5.42,0.42,7.69,0.2c8.45-0.82,23.78-2.8,32.48-3.73c2-0.21,3.79-0.37,5.76,0.05" stroke-dasharray="46.229" stroke-dashoffset="46.229"><animate attributeName="stroke-dashoffset" values="46.229" fill="freeze" begin="6e9d.click" /><animate attributeName="stroke-dashoffset" values="46.229;46.229;0" keyTimes="0;0.789;1" dur="2.186s" fill="freeze" begin="0s;6e9d.click" /></path><path d="M32.57,47.23C36,47.75,39.54,47.4,43,46.93c11.49-1.57,28.62-3.25,40.75-3.94c3.36-0.19,6.62-0.23,9.93,0.49" stroke-dasharray="61.395" stroke-dashoffset="61.395"><animate attributeName="stroke-dashoffset" values="61.395" fill="freeze" begin="6e9d.click" /><animate attributeName="stroke-dashoffset" values="61.395;61.395;0" keyTimes="0;0.826;1" dur="2.648s" fill="freeze" begin="0s;6e9d.click" /></path><path d="M44.7,55.9c1.08,1.08,1.26,2.48,1.26,4.39c0,1.91-0.04,20.58-0.07,30.34c-0.01,3.41-0.01,5.73-0.01,5.87" stroke-dasharray="40.911" stroke-dashoffset="40.911"><animate attributeName="stroke-dashoffset" values="40.911" fill="freeze" begin="6e9d.click" /><animate attributeName="stroke-dashoffset" values="40.911;40.911;0" keyTimes="0;0.866;1" dur="3.057s" fill="freeze" begin="0s;6e9d.click" /></path><path d="M47.46,57.58c3.97-0.47,21.29-2.48,28.05-3.4c3.66-0.5,5.93,0.57,5.93,4.07c0,7.87-0.06,30.4-0.06,33.37c0,8.67-4.88,2.62-7.05,0.31" stroke-dasharray="82.332" stroke-dashoffset="82.332"><animate attributeName="stroke-dashoffset" values="82.332" fill="freeze" begin="6e9d.click" /><animate attributeName="stroke-dashoffset" values="82.332;82.332;0" keyTimes="0;0.832;1" dur="3.676s" fill="freeze" begin="0s;6e9d.click" /></path><path d="M61.51,46.46c0.77,0.77,1.19,2.01,1.19,3.25c0,7.99-0.07,15.85-0.07,26.41" stroke-dasharray="29.958" stroke-dashoffset="29.958"><animate attributeName="stroke-dashoffset" values="29.958" fill="freeze" begin="6e9d.click" /><animate attributeName="stroke-dashoffset" values="29.958;29.958;0" keyTimes="0;0.925;1" dur="3.976s" fill="freeze" begin="0s;6e9d.click" /></path><path d="M47.13,67.92c10.62-1.42,22.69-2.79,32.96-3.34" stroke-dasharray="33.138" stroke-dashoffset="33.138"><animate attributeName="stroke-dashoffset" values="33.138" fill="freeze" begin="6e9d.click" /><animate attributeName="stroke-dashoffset" values="33.138;33.138;0" keyTimes="0;0.923;1" dur="4.307s" fill="freeze" begin="0s;6e9d.click" /></path><path d="M33.44,79.23c2.81,0.64,5.8,0.26,8.45-0.03c15.49-1.7,30.61-3.33,43.88-4.04c2.9-0.16,5.37-0.01,8.2,0.58" stroke-dasharray="60.81" stroke-dashoffset="60.81"><animate attributeName="stroke-dashoffset" values="60.81" fill="freeze" begin="6e9d.click" /><animate attributeName="stroke-dashoffset" values="60.81;60.81;0" keyTimes="0;0.904;1" dur="4.764s" fill="freeze" begin="0s;6e9d.click" /></path></g></svg>