<svg xmlns="http://www.w3.org/2000/svg" viewBox="0 0 109 109" id="6e9f"><g fill="none" stroke="#666" stroke-width="6" stroke-linecap="round" stroke-linejoin="round"><g><g><path d="M16.38,14.5c4.01,2.05,10.36,8.41,11.37,11.59" /><path d="M12.25,42.75C16.93,44.56,24.33,50.19,25.5,53" /><path d="M14.75,88.73c1.71,1.27,3.97,1.44,4.86-0.25C23,82,25.89,74.83,28.75,69" /></g><g><g><path d="M42.67,17.32c0,4.34-3.49,16.28-5.08,19.18" /><path d="M42.56,21.13c7.2-0.87,41.43-2.92,47.27-3.3c9.99-0.65,2.88,7.91,0.6,9.77" /></g><g><g><path d="M49.21,31.35c0.14,0.27,0.49,1.29,0.73,2.32c1.02,4.44,2.48,16.61,3.11,24.88" /><path d="M50.64,32.47c7.91-1.12,23.7-1.74,29.64-2.43c2.47-0.29,4.28,1.87,4.17,3.09c-0.41,4.47-1.81,15.66-3.91,24.17" /><path d="M51.61,44.43c2.58-0.43,29.33-1.58,31.46-1.75" /><path d="M53.59,55.88c5.7-0.48,18.94-0.43,26.81-1.21" /></g><g><g><path d="M63.88,58.25c0.64,0.54,1.69,2.63,1.69,3.7c0,4.25-0.02,3.68-0.08,6.73" /><path d="M37.04,69.67c1.44,0.14,4.73,0.83,6.14,0.74c16.08-1,27.71-1.85,45.86-2.68c2.38-0.11,3.6,0.06,5.37,0.95" /></g><g><path d="M54.76,75.49c0.45,0.91,0.23,3.31-0.53,4.4c-4.15,5.91-9.76,10.72-18.36,15.86" /><path d="M74.55,74.86c5.96,5.92,10.88,12.76,13.86,19.95" /></g></g></g></g></g></g><g fill="none" stroke="#000" stroke-width="3" stroke-linecap="round" stroke-linejoin="round"><path d="M16.38,14.5c4.01,2.05,10.36,8.41,11.37,11.59" stroke-dasharray="16.471" stroke-dashoffset="16.471"><animate attributeName="stroke-dashoffset" values="16.471;16.471;0" dur="0.165s" fill="freeze" begin="0s;6e9f.click" /></path><path d="M12.25,42.75C16.93,44.56,24.33,50.19,25.5,53" stroke-dasharray="16.986" stroke-dashoffset="16.986"><animate attributeName="stroke-dashoffset" values="16.986" fill="freeze" begin="6e9f.click" /><animate attributeName="stroke-dashoffset" values="16.986;16.986;0" keyTimes="0;0.493;1" dur="0.335s" fill="freeze" begin="0s;6e9f.click" /></path><path d="M14.75,88.73c1.71,1.27,3.97,1.44,4.86-0.25C23,82,25.89,74.83,28.75,69" stroke-dasharray="27.068" stroke-dashoffset="27.068"><animate attributeName="stroke-dashoffset" values="27.068" fill="freeze" begin="6e9f.click" /><animate attributeName="stroke-dashoffset" values="27.068;27.068;0" keyTimes="0;0.553;1" dur="0.606s" fill="freeze" begin="0s;6e9f.click" /></path><path d="M42.67,17.32c0,4.34-3.49,16.28-5.08,19.18" stroke-dasharray="19.929" stroke-dashoffset="19.929"><animate attributeName="stroke-dashoffset" values="19.929" fill="freeze" begin="6e9f.click" /><animate attributeName="stroke-dashoffset" values="19.929;19.929;0" keyTimes="0;0.753;1" dur="0.805s" fill="freeze" begin="0s;6e9f.click" /></path><path d="M42.56,21.13c7.2-0.87,41.43-2.92,47.27-3.3c9.99-0.65,2.88,7.91,0.6,9.77" stroke-dasharray="62.696" stroke-dashoffset="62.696"><animate attributeName="stroke-dashoffset" values="62.696" fill="freeze" begin="6e9f.click" /><animate attributeName="stroke-dashoffset" values="62.696;62.696;0" keyTimes="0;0.631;1" dur="1.276s" fill="freeze" begin="0s;6e9f.click" /></path><path d="M49.21,31.35c0.14,0.27,0.49,1.29,0.73,2.32c1.02,4.44,2.48,16.61,3.11,24.88" stroke-dasharray="27.523" stroke-dashoffset="27.523"><animate attributeName="stroke-dashoffset" values="27.523" fill="freeze" begin="6e9f.click" /><animate attributeName="stroke-dashoffset" values="27.523;27.523;0" keyTimes="0;0.823;1" dur="1.551s" fill="freeze" begin="0s;6e9f.click" /></path><path d="M50.64,32.47c7.91-1.12,23.7-1.74,29.64-2.43c2.47-0.29,4.28,1.87,4.17,3.09c-0.41,4.47-1.81,15.66-3.91,24.17" stroke-dasharray="60.016" stroke-dashoffset="60.016"><animate attributeName="stroke-dashoffset" values="60.016" fill="freeze" begin="6e9f.click" /><animate attributeName="stroke-dashoffset" values="60.016;60.016;0" keyTimes="0;0.775;1" dur="2.002s" fill="freeze" begin="0s;6e9f.click" /></path><path d="M51.61,44.43c2.58-0.43,29.33-1.58,31.46-1.75" stroke-dasharray="31.512" stroke-dashoffset="31.512"><animate attributeName="stroke-dashoffset" values="31.512" fill="freeze" begin="6e9f.click" /><animate attributeName="stroke-dashoffset" values="31.512;31.512;0" keyTimes="0;0.864;1" dur="2.317s" fill="freeze" begin="0s;6e9f.click" /></path><path d="M53.59,55.88c5.7-0.48,18.94-0.43,26.81-1.21" stroke-dasharray="26.843" stroke-dashoffset="26.843"><animate attributeName="stroke-dashoffset" values="26.843" fill="freeze" begin="6e9f.click" /><animate attributeName="stroke-dashoffset" values="26.843;26.843;0" keyTimes="0;0.896;1" dur="2.585s" fill="freeze" begin="0s;6e9f.click" /></path><path d="M63.88,58.25c0.64,0.54,1.69,2.63,1.69,3.7c0,4.25-0.02,3.68-0.08,6.73" stroke-dasharray="10.869" stroke-dashoffset="10.869"><animate attributeName="stroke-dashoffset" values="10.869" fill="freeze" begin="6e9f.click" /><animate attributeName="stroke-dashoffset" values="10.869;10.869;0" keyTimes="0;0.923;1" dur="2.802s" fill="freeze" begin="0s;6e9f.click" /></path><path d="M37.04,69.67c1.44,0.14,4.73,0.83,6.14,0.74c16.08-1,27.71-1.85,45.86-2.68c2.38-0.11,3.6,0.06,5.37,0.95" stroke-dasharray="57.662" stroke-dashoffset="57.662"><animate attributeName="stroke-dashoffset" values="57.662" fill="freeze" begin="6e9f.click" /><animate attributeName="stroke-dashoffset" values="57.662;57.662;0" keyTimes="0;0.829;1" dur="3.379s" fill="freeze" begin="0s;6e9f.click" /></path><path d="M54.76,75.49c0.45,0.91,0.23,3.31-0.53,4.4c-4.15,5.91-9.76,10.72-18.36,15.86" stroke-dasharray="29.015" stroke-dashoffset="29.015"><animate attributeName="stroke-dashoffset" values="29.015" fill="freeze" begin="6e9f.click" /><animate attributeName="stroke-dashoffset" values="29.015;29.015;0" keyTimes="0;0.921;1" dur="3.669s" fill="freeze" begin="0s;6e9f.click" /></path><path d="M74.55,74.86c5.96,5.92,10.88,12.76,13.86,19.95" stroke-dasharray="24.449" stroke-dashoffset="24.449"><animate attributeName="stroke-dashoffset" values="24.449" fill="freeze" begin="6e9f.click" /><animate attributeName="stroke-dashoffset" values="24.449;24.449;0" keyTimes="0;0.938;1" dur="3.913s" fill="freeze" begin="0s;6e9f.click" /></path></g></svg>