<svg xmlns="http://www.w3.org/2000/svg" width="109" height="109" viewBox="0 0 109 109" id="6eb2"><g fill="none" stroke="#666" stroke-width="9" stroke-linecap="round" stroke-linejoin="round"><g><g><path d="M19.88,15.75c4.19,1.56,10.82,6.41,11.87,8.84" /><path d="M15,39.5c4.41,1.85,11.4,7.62,12.5,10.5" /><path d="M16.25,89.73c1.71,1.27,3.78,1.32,4.86-0.25c3.14-4.57,9.79-16.66,12.64-22.49" /></g><g><g><g><path d="M64.13,11.75c1.04,0.48,1.66,2.17,1.87,3.14s0,40.35-0.21,46.39" /><path d="M55.87,17.53c0.04,0.29-0.21,1.4-0.45,1.71c-3.21,4.09-5.7,7.17-13.01,10.43" /><path d="M40.11,27.68c0.92,0.73,1.29,2.36,1.52,3.86c0.83,5.47,2.41,16.12,3.25,23.52" /><path d="M42.73,39.27c3.82-0.33,12.53-2.13,13.44-2.13c0.91,0,2.18,0,2.91,0" /><path d="M44.98,53.02c3.47-0.33,11.38-1.63,12.2-1.63s1.98,0,2.64,0" /><path d="M72.98,22.93c0.83,0.16,1.49,0.49,2.64,0.49s11.54-1.98,12.86-2.14s2.41,0.82,2.31,1.81c-0.99,9.56-2.72,28.07-2.88,28.73" /><path d="M72.89,34.99c0.83,0.16,1.49,0.49,2.64,0.49s12.54-1.33,13.86-1.5" /></g><g><path d="M72.39,48.99c0.83,0.16,1.49,0.49,2.64,0.49s11.54-0.83,12.86-1" /></g></g><g><path d="M47.89,64.41c1.66,0.27,1.89,0.88,5.19,0.27c5.19-0.96,27.7-3.47,29.99-3.89c2.28-0.41,3.27,2.61,2.28,3.98C73.52,81.38,56.62,92.28,37.93,99" /><path d="M51.72,71.3c5.85,0.14,22.93,16.11,36.49,22.48c2.11,0.99,3.65,1.65,5.62,1.98" /></g></g></g></g><g fill="none" stroke="#000" stroke-width="5" stroke-linecap="round" stroke-linejoin="round"><g><g><path d="M19.88,15.75c4.19,1.56,10.82,6.41,11.87,8.84" stroke-dasharray="15" stroke-dashoffset="15"><animate id="0" attributeName="stroke-dashoffset" values="15;0" dur="0.15s" fill="freeze" begin="0s;6eb2.click" /></path><path d="M15,39.5c4.41,1.85,11.4,7.62,12.5,10.5" stroke-dasharray="16.56" stroke-dashoffset="16.56"><animate attributeName="stroke-dashoffset" values="16.56" fill="freeze" begin="6eb2.click" /><animate id="1" attributeName="stroke-dashoffset" values="16.56;0" dur="0.17s" fill="freeze" begin="0.end" /></path><path d="M16.25,89.73c1.71,1.27,3.78,1.32,4.86-0.25c3.14-4.57,9.79-16.66,12.64-22.49" stroke-dasharray="31.29" stroke-dashoffset="31.29"><animate attributeName="stroke-dashoffset" values="31.29" fill="freeze" begin="6eb2.click" /><animate id="2" attributeName="stroke-dashoffset" values="31.29;0" dur="0.31s" fill="freeze" begin="1.end" /></path></g><g><g><g><path d="M64.13,11.75c1.04,0.48,1.66,2.17,1.87,3.14s0,40.35-0.21,46.39" stroke-dasharray="50.16" stroke-dashoffset="50.16"><animate attributeName="stroke-dashoffset" values="50.16" fill="freeze" begin="6eb2.click" /><animate id="3" attributeName="stroke-dashoffset" values="50.16;0" dur="0.5s" fill="freeze" begin="2.end" /></path><path d="M55.87,17.53c0.04,0.29-0.21,1.4-0.45,1.71c-3.21,4.09-5.7,7.17-13.01,10.43" stroke-dasharray="18.69" stroke-dashoffset="18.69"><animate attributeName="stroke-dashoffset" values="18.69" fill="freeze" begin="6eb2.click" /><animate id="4" attributeName="stroke-dashoffset" values="18.69;0" dur="0.19s" fill="freeze" begin="3.end" /></path><path d="M40.11,27.68c0.92,0.73,1.29,2.36,1.52,3.86c0.83,5.47,2.41,16.12,3.25,23.52" stroke-dasharray="27.98" stroke-dashoffset="27.98"><animate attributeName="stroke-dashoffset" values="27.98" fill="freeze" begin="6eb2.click" /><animate id="5" attributeName="stroke-dashoffset" values="27.98;0" dur="0.28s" fill="freeze" begin="4.end" /></path><path d="M42.73,39.27c3.82-0.33,12.53-2.13,13.44-2.13c0.91,0,2.18,0,2.91,0" stroke-dasharray="16.52" stroke-dashoffset="16.52"><animate attributeName="stroke-dashoffset" values="16.52" fill="freeze" begin="6eb2.click" /><animate id="6" attributeName="stroke-dashoffset" values="16.52;0" dur="0.17s" fill="freeze" begin="5.end" /></path><path d="M44.98,53.02c3.47-0.33,11.38-1.63,12.2-1.63s1.98,0,2.64,0" stroke-dasharray="14.95" stroke-dashoffset="14.95"><animate attributeName="stroke-dashoffset" values="14.95" fill="freeze" begin="6eb2.click" /><animate id="7" attributeName="stroke-dashoffset" values="14.95;0" dur="0.15s" fill="freeze" begin="6.end" /></path><path d="M72.98,22.93c0.83,0.16,1.49,0.49,2.64,0.49s11.54-1.98,12.86-2.14s2.41,0.82,2.31,1.81c-0.99,9.56-2.72,28.07-2.88,28.73" stroke-dasharray="47.94" stroke-dashoffset="47.94"><animate attributeName="stroke-dashoffset" values="47.94" fill="freeze" begin="6eb2.click" /><animate id="8" attributeName="stroke-dashoffset" values="47.94;0" dur="0.48s" fill="freeze" begin="7.end" /></path><path d="M72.89,34.99c0.83,0.16,1.49,0.49,2.64,0.49s12.54-1.33,13.86-1.5" stroke-dasharray="16.64" stroke-dashoffset="16.64"><animate attributeName="stroke-dashoffset" values="16.64" fill="freeze" begin="6eb2.click" /><animate id="9" attributeName="stroke-dashoffset" values="16.64;0" dur="0.17s" fill="freeze" begin="8.end" /></path></g><g><path d="M72.39,48.99c0.83,0.16,1.49,0.49,2.64,0.49s11.54-0.83,12.86-1" stroke-dasharray="15.59" stroke-dashoffset="15.59"><animate attributeName="stroke-dashoffset" values="15.59" fill="freeze" begin="6eb2.click" /><animate id="10" attributeName="stroke-dashoffset" values="15.59;0" dur="0.16s" fill="freeze" begin="9.end" /></path></g></g><g><path d="M47.89,64.41c1.66,0.27,1.89,0.88,5.19,0.27c5.19-0.96,27.7-3.47,29.99-3.89c2.28-0.41,3.27,2.61,2.28,3.98C73.52,81.38,56.62,92.28,37.93,99" stroke-dasharray="100.63" stroke-dashoffset="100.63"><animate attributeName="stroke-dashoffset" values="100.63" fill="freeze" begin="6eb2.click" /><animate id="11" attributeName="stroke-dashoffset" values="100.63;0" dur="0.76s" fill="freeze" begin="10.end" /></path><path d="M51.72,71.3c5.85,0.14,22.93,16.11,36.49,22.48c2.11,0.99,3.65,1.65,5.62,1.98" stroke-dasharray="49.03" stroke-dashoffset="49.03"><animate attributeName="stroke-dashoffset" values="49.03" fill="freeze" begin="6eb2.click" /><animate id="12" attributeName="stroke-dashoffset" values="49.03;0" dur="0.49s" fill="freeze" begin="11.end" /></path></g></g></g></g></svg>