<svg xmlns="http://www.w3.org/2000/svg" width="109" height="109" viewBox="0 0 109 109" id="6ec9"><g fill="none" stroke="#666" stroke-width="9" stroke-linecap="round" stroke-linejoin="round"><g><g><path d="M17.75,14.12c4.5,1.89,10.38,6.88,12.5,10.72" /><path d="M14,41.88c4.5,1.74,11.62,7.17,12.75,9.88" /><path d="M13.75,89.48c1.88,0.27,3.11-0.62,4.11-2.25c3.52-5.74,5.79-9.66,8.64-15.49" /></g><g><g><path d="M44.19,13.19c0.93,1.06,1.15,2.48,1.35,3.8c0.68,4.38,1.43,10.03,2.19,16c0.23,1.77,0.46,3.58,0.69,5.38" /><path d="M46.35,15.39c8.85-0.9,23.68-2.66,33.15-3.05c3.6-0.15,4.96,0.57,4.62,4.17c-0.45,4.68-1.74,13.37-3.05,20" /><path d="M47.86,25.21c6.64-0.34,22.64-1.09,34.09-1.5" /><path d="M49.11,35.43c10.26-0.68,19.01-0.93,31.18-1.25" /></g><g><g><path d="M62.6,39.26c0.95,0.95,1.25,2.24,1.25,3.73c0,3.76-0.1,14.31-0.1,16.76" /><path d="M42.88,45.5c3.84,2.2,9.92,9.06,10.88,12.49" /><path d="M81.72,41.94c0.1,1.05-0.09,2.05-0.54,3.01c-2.05,3.43-4.85,7.32-9.4,12.39" /></g><g><g><path d="M35.96,61.41c2.82,1.23,6.09,0.94,9.04,0.67c11.85-1.07,29.34-2.05,41.25-2.32c2.88-0.07,5.45-0.07,8.25,0.66" /></g><g><g><path d="M54.58,65.06c0.06,0.75,0.26,1.96-0.13,3c-3.58,9.44-10.08,20.19-23.42,28.48" /></g><path d="M69.42,63.57c0.88,0.88,0.93,2.05,0.93,3.86c0,3.66-0.1,10.7-0.1,16.32c0,9.12,1,10.21,12.21,10.21c12.17,0,13.06-1.46,13.06-6.17" /></g></g></g></g></g></g><g fill="none" stroke="#000" stroke-width="5" stroke-linecap="round" stroke-linejoin="round"><g><g><path d="M17.75,14.12c4.5,1.89,10.38,6.88,12.5,10.72" stroke-dasharray="16.69" stroke-dashoffset="16.69"><animate id="0" attributeName="stroke-dashoffset" values="16.69;0" dur="0.17s" fill="freeze" begin="0s;6ec9.click" /></path><path d="M14,41.88c4.5,1.74,11.62,7.17,12.75,9.88" stroke-dasharray="16.35" stroke-dashoffset="16.35"><animate attributeName="stroke-dashoffset" values="16.35" fill="freeze" begin="6ec9.click" /><animate id="1" attributeName="stroke-dashoffset" values="16.35;0" dur="0.16s" fill="freeze" begin="0.end" /></path><path d="M13.75,89.48c1.88,0.27,3.11-0.62,4.11-2.25c3.52-5.74,5.79-9.66,8.64-15.49" stroke-dasharray="22.76" stroke-dashoffset="22.76"><animate attributeName="stroke-dashoffset" values="22.76" fill="freeze" begin="6ec9.click" /><animate id="2" attributeName="stroke-dashoffset" values="22.76;0" dur="0.23s" fill="freeze" begin="1.end" /></path></g><g><g><path d="M44.19,13.19c0.93,1.06,1.15,2.48,1.35,3.8c0.68,4.38,1.43,10.03,2.19,16c0.23,1.77,0.46,3.58,0.69,5.38" stroke-dasharray="25.67" stroke-dashoffset="25.67"><animate attributeName="stroke-dashoffset" values="25.67" fill="freeze" begin="6ec9.click" /><animate id="3" attributeName="stroke-dashoffset" values="25.67;0" dur="0.26s" fill="freeze" begin="2.end" /></path><path d="M46.35,15.39c8.85-0.9,23.68-2.66,33.15-3.05c3.6-0.15,4.96,0.57,4.62,4.17c-0.45,4.68-1.74,13.37-3.05,20" stroke-dasharray="61.19" stroke-dashoffset="61.19"><animate attributeName="stroke-dashoffset" values="61.19" fill="freeze" begin="6ec9.click" /><animate id="4" attributeName="stroke-dashoffset" values="61.19;0" dur="0.46s" fill="freeze" begin="3.end" /></path><path d="M47.86,25.21c6.64-0.34,22.64-1.09,34.09-1.5" stroke-dasharray="34.12" stroke-dashoffset="34.12"><animate attributeName="stroke-dashoffset" values="34.12" fill="freeze" begin="6ec9.click" /><animate id="5" attributeName="stroke-dashoffset" values="34.12;0" dur="0.34s" fill="freeze" begin="4.end" /></path><path d="M49.11,35.43c10.26-0.68,19.01-0.93,31.18-1.25" stroke-dasharray="31.21" stroke-dashoffset="31.21"><animate attributeName="stroke-dashoffset" values="31.21" fill="freeze" begin="6ec9.click" /><animate id="6" attributeName="stroke-dashoffset" values="31.21;0" dur="0.31s" fill="freeze" begin="5.end" /></path></g><g><g><path d="M62.6,39.26c0.95,0.95,1.25,2.24,1.25,3.73c0,3.76-0.1,14.31-0.1,16.76" stroke-dasharray="20.8" stroke-dashoffset="20.8"><animate attributeName="stroke-dashoffset" values="20.8" fill="freeze" begin="6ec9.click" /><animate id="7" attributeName="stroke-dashoffset" values="20.8;0" dur="0.21s" fill="freeze" begin="6.end" /></path><path d="M42.88,45.5c3.84,2.2,9.92,9.06,10.88,12.49" stroke-dasharray="16.8" stroke-dashoffset="16.8"><animate attributeName="stroke-dashoffset" values="16.8" fill="freeze" begin="6ec9.click" /><animate id="8" attributeName="stroke-dashoffset" values="16.8;0" dur="0.17s" fill="freeze" begin="7.end" /></path><path d="M81.72,41.94c0.1,1.05-0.09,2.05-0.54,3.01c-2.05,3.43-4.85,7.32-9.4,12.39" stroke-dasharray="18.67" stroke-dashoffset="18.67"><animate attributeName="stroke-dashoffset" values="18.67" fill="freeze" begin="6ec9.click" /><animate id="9" attributeName="stroke-dashoffset" values="18.67;0" dur="0.19s" fill="freeze" begin="8.end" /></path></g><g><g><path d="M35.96,61.41c2.82,1.23,6.09,0.94,9.04,0.67c11.85-1.07,29.34-2.05,41.25-2.32c2.88-0.07,5.45-0.07,8.25,0.66" stroke-dasharray="58.79" stroke-dashoffset="58.79"><animate attributeName="stroke-dashoffset" values="58.79" fill="freeze" begin="6ec9.click" /><animate id="10" attributeName="stroke-dashoffset" values="58.79;0" dur="0.59s" fill="freeze" begin="9.end" /></path></g><g><g><path d="M54.58,65.06c0.06,0.75,0.26,1.96-0.13,3c-3.58,9.44-10.08,20.19-23.42,28.48" stroke-dasharray="40.6" stroke-dashoffset="40.6"><animate attributeName="stroke-dashoffset" values="40.6" fill="freeze" begin="6ec9.click" /><animate id="11" attributeName="stroke-dashoffset" values="40.6;0" dur="0.41s" fill="freeze" begin="10.end" /></path></g><path d="M69.42,63.57c0.88,0.88,0.93,2.05,0.93,3.86c0,3.66-0.1,10.7-0.1,16.32c0,9.12,1,10.21,12.21,10.21c12.17,0,13.06-1.46,13.06-6.17" stroke-dasharray="56.83" stroke-dashoffset="56.83"><animate attributeName="stroke-dashoffset" values="56.83" fill="freeze" begin="6ec9.click" /><animate id="12" attributeName="stroke-dashoffset" values="56.83;0" dur="0.57s" fill="freeze" begin="11.end" /></path></g></g></g></g></g></g></svg>