<svg xmlns="http://www.w3.org/2000/svg" width="109" height="109" viewBox="0 0 109 109" id="6ecb"><g fill="none" stroke="#666" stroke-width="6" stroke-linecap="round" stroke-linejoin="round"><g><g><path d="M22.01,18c3.97,1.38,10.25,5.69,11.24,7.84" /><path d="M14.88,41.25c4.02,1.32,10.37,5.44,11.38,7.5" /><path d="M14.25,87.86c1.25,0.65,2.54,0.41,3.28-0.95c2.74-4.98,5.48-11.06,7.97-17.41" /></g><g p4:phon="兹/茲V" xmlns:p4="http://kanjivg.tagaini.net"><g><g p4:number="1" p4:partial><g p4:partial><path d="M50.32,19.61c2.73,2.12,7.05,8.7,7.74,11.99" /></g></g><path d="M82.11,17.39c0.14,0.7-0.16,1.83-0.39,2.34c-1.97,4.4-5.27,9.84-7.6,12.65" /><path d="M37.38,38.68c2.87,0.44,5.81,0.4,8.49,0.19c11.66-0.91,23.62-2.46,42.77-3.41c2.82-0.14,5.55-0.09,8.33,0.51" /></g><g><g p4:number="1" p4:partial><g><path d="M50.27,46.6c0.23,0.92,0.3,2.11-0.12,3.1c-1.93,4.57-5.64,10.34-8.99,15.42c-0.66,1.01-1.16,1.88,0,2.29c2.89,1.01,6.2,2.7,8.31,4.38" /><path d="M60.77,55.66c0.48,1.34,0.1,2.84-0.83,4.19c-5.73,8.36-13.31,17.52-22.78,28.46c-1.09,1.26-0.4,2.44,0.9,2.08c8.95-2.46,13.08-3.64,20.83-5.92" /><path d="M55.85,77.19c2.68,2.77,6.92,11.4,7.59,15.71" /></g></g><g p4:number="2" p4:partial><g><path d="M80.57,45.76c0.25,1.03,0.34,2.01-0.12,3.17c-2.32,5.81-5.97,11.62-9.06,16.1c-1.01,1.46-0.38,2.21,0.75,2.58c2.68,0.88,4.99,2,8.63,3.73" /><path d="M90.39,54.96c0.3,1.13,0.15,3.42-0.28,4.08C84.76,67.35,80.18,74,72.48,84.21c-1.43,1.89-1.57,3.62,1.62,2.56c6.56-2.19,9.53-3.26,17.02-5.51" /><path d="M88.79,75.1c2.36,2.73,6.08,11.21,6.67,15.46" /></g></g></g></g></g></g><g fill="none" stroke="#000" stroke-width="3" stroke-linecap="round" stroke-linejoin="round"><path d="M22.01,18c3.97,1.38,10.25,5.69,11.24,7.84" stroke-dasharray="13.888" stroke-dashoffset="13.888"><animate attributeName="stroke-dashoffset" values="13.888;13.888;0" dur="0.139s" fill="freeze" begin="0s;6ecb.click" /></path><path d="M14.88,41.25c4.02,1.32,10.37,5.44,11.38,7.5" stroke-dasharray="13.805" stroke-dashoffset="13.805"><animate attributeName="stroke-dashoffset" values="13.805" fill="freeze" begin="6ecb.click" /><animate attributeName="stroke-dashoffset" values="13.805;13.805;0" keyTimes="0;0.502;1" dur="0.277s" fill="freeze" begin="0s;6ecb.click" /></path><path d="M14.25,87.86c1.25,0.65,2.54,0.41,3.28-0.95c2.74-4.98,5.48-11.06,7.97-17.41" stroke-dasharray="23.012" stroke-dashoffset="23.012"><animate attributeName="stroke-dashoffset" values="23.012" fill="freeze" begin="6ecb.click" /><animate attributeName="stroke-dashoffset" values="23.012;23.012;0" keyTimes="0;0.546;1" dur="0.507s" fill="freeze" begin="0s;6ecb.click" /></path><path d="M50.32,19.61c2.73,2.12,7.05,8.7,7.74,11.99" stroke-dasharray="14.44" stroke-dashoffset="14.44"><animate attributeName="stroke-dashoffset" values="14.44" fill="freeze" begin="6ecb.click" /><animate attributeName="stroke-dashoffset" values="14.44;14.44;0" keyTimes="0;0.779;1" dur="0.651s" fill="freeze" begin="0s;6ecb.click" /></path><path d="M82.11,17.39c0.14,0.7-0.16,1.83-0.39,2.34c-1.97,4.4-5.27,9.84-7.6,12.65" stroke-dasharray="17.193" stroke-dashoffset="17.193"><animate attributeName="stroke-dashoffset" values="17.193" fill="freeze" begin="6ecb.click" /><animate attributeName="stroke-dashoffset" values="17.193;17.193;0" keyTimes="0;0.791;1" dur="0.823s" fill="freeze" begin="0s;6ecb.click" /></path><path d="M37.38,38.68c2.87,0.44,5.81,0.4,8.49,0.19c11.66-0.91,23.62-2.46,42.77-3.41c2.82-0.14,5.55-0.09,8.33,0.51" stroke-dasharray="59.792" stroke-dashoffset="59.792"><animate attributeName="stroke-dashoffset" values="59.792" fill="freeze" begin="6ecb.click" /><animate attributeName="stroke-dashoffset" values="59.792;59.792;0" keyTimes="0;0.579;1" dur="1.421s" fill="freeze" begin="0s;6ecb.click" /></path><path d="M50.27,46.6c0.23,0.92,0.3,2.11-0.12,3.1c-1.93,4.57-5.64,10.34-8.99,15.42c-0.66,1.01-1.16,1.88,0,2.29c2.89,1.01,6.2,2.7,8.31,4.38" stroke-dasharray="33.265" stroke-dashoffset="33.265"><animate attributeName="stroke-dashoffset" values="33.265" fill="freeze" begin="6ecb.click" /><animate attributeName="stroke-dashoffset" values="33.265;33.265;0" keyTimes="0;0.81;1" dur="1.754s" fill="freeze" begin="0s;6ecb.click" /></path><path d="M60.77,55.66c0.48,1.34,0.1,2.84-0.83,4.19c-5.73,8.36-13.31,17.52-22.78,28.46c-1.09,1.26-0.4,2.44,0.9,2.08c8.95-2.46,13.08-3.64,20.83-5.92" stroke-dasharray="65.91" stroke-dashoffset="65.91"><animate attributeName="stroke-dashoffset" values="65.91" fill="freeze" begin="6ecb.click" /><animate attributeName="stroke-dashoffset" values="65.91;65.91;0" keyTimes="0;0.78;1" dur="2.25s" fill="freeze" begin="0s;6ecb.click" /></path><path d="M55.85,77.19c2.68,2.77,6.92,11.4,7.59,15.71" stroke-dasharray="17.602" stroke-dashoffset="17.602"><animate attributeName="stroke-dashoffset" values="17.602" fill="freeze" begin="6ecb.click" /><animate attributeName="stroke-dashoffset" values="17.602;17.602;0" keyTimes="0;0.927;1" dur="2.426s" fill="freeze" begin="0s;6ecb.click" /></path><path d="M80.57,45.76c0.25,1.03,0.34,2.01-0.12,3.17c-2.32,5.81-5.97,11.62-9.06,16.1c-1.01,1.46-0.38,2.21,0.75,2.58c2.68,0.88,4.99,2,8.63,3.73" stroke-dasharray="34.493" stroke-dashoffset="34.493"><animate attributeName="stroke-dashoffset" values="34.493" fill="freeze" begin="6ecb.click" /><animate attributeName="stroke-dashoffset" values="34.493;34.493;0" keyTimes="0;0.875;1" dur="2.771s" fill="freeze" begin="0s;6ecb.click" /></path><path d="M90.39,54.96c0.3,1.13,0.15,3.42-0.28,4.08C84.76,67.35,80.18,74,72.48,84.21c-1.43,1.89-1.57,3.62,1.62,2.56c6.56-2.19,9.53-3.26,17.02-5.51" stroke-dasharray="58.202" stroke-dashoffset="58.202"><animate attributeName="stroke-dashoffset" values="58.202" fill="freeze" begin="6ecb.click" /><animate attributeName="stroke-dashoffset" values="58.202;58.202;0" keyTimes="0;0.826;1" dur="3.353s" fill="freeze" begin="0s;6ecb.click" /></path><path d="M88.79,75.1c2.36,2.73,6.08,11.21,6.67,15.46" stroke-dasharray="16.967" stroke-dashoffset="16.967"><animate attributeName="stroke-dashoffset" values="16.967" fill="freeze" begin="6ecb.click" /><animate attributeName="stroke-dashoffset" values="16.967;16.967;0" keyTimes="0;0.952;1" dur="3.523s" fill="freeze" begin="0s;6ecb.click" /></path></g></svg>