<svg xmlns="http://www.w3.org/2000/svg" width="109" height="109" viewBox="0 0 109 109" id="6ed3"><g fill="none" stroke="#666" stroke-width="9" stroke-linecap="round" stroke-linejoin="round"><g><g><path d="M16.63,15c4.28,1.6,11.05,6.6,12.12,9.09" /><path d="M12.75,42.25c4.5,1.72,11.62,7.07,12.75,9.75" /><path d="M13.75,88.73c1.71,1.27,3.78,1.32,4.86-0.25c3.14-4.57,6.79-12.16,9.64-17.99" /></g><g><g><path d="M62.44,9.25c1.03,0.4,2.51,2.34,2.48,3.48c-0.08,3.6-0.08,5.72-0.08,8.99" /><g><path d="M42.88,20.57c0,3.61-2.94,13.52-4.28,15.93" /><path d="M42.57,24.34c2.03,0.16,34.55-3.59,47.58-4.02c9.96-0.33,2.01,7.11-0.35,9.06" /></g></g><g><g><g><path d="M64.2,28c0.81,0.72,1.22,1.22,1.22,2.89s0,2.97,0,7.5" /><path d="M45.08,39.73c0.94,0.31,2.05,0.36,2.99,0.31c5.33-0.27,27.88-2.33,35.94-2.55c1.58-0.04,2.52,0.15,3.31,0.31" /></g><g><path d="M52.6,44.85c3.05,4.63,4.44,9.36,4.72,12.41" /><path d="M77.54,41.84c0.62,0.52,0.34,2.81,0.19,3.21c-0.95,2.7-4.48,8.95-6.88,12.54" /><path d="M38.82,61.93c1.42,0.27,3.08,0.33,4.5,0.27c17.08-0.7,31.45-2.9,49.37-3.46c2.36-0.07,3.79,0.13,4.97,0.27" /></g></g><g><path d="M42.02,76.45c1.12,0.47,3.17,0.55,4.29,0.47C58.71,76,77,74.25,87.78,74.02c1.87-0.04,2.99,0.22,3.92,0.46" /><path d="M64.21,62.13c0.56,0.52,1.74,3.92,1.85,4.96c0.65,6-0.16,31.74-0.18,33.29" /></g></g></g></g></g><g fill="none" stroke="#000" stroke-width="5" stroke-linecap="round" stroke-linejoin="round"><g><g><path d="M16.63,15c4.28,1.6,11.05,6.6,12.12,9.09" stroke-dasharray="15.36" stroke-dashoffset="15.36"><animate id="0" attributeName="stroke-dashoffset" values="15.36;0" dur="0.15s" fill="freeze" begin="0s;6ed3.click" /></path><path d="M12.75,42.25c4.5,1.72,11.62,7.07,12.75,9.75" stroke-dasharray="16.27" stroke-dashoffset="16.27"><animate attributeName="stroke-dashoffset" values="16.27" fill="freeze" begin="6ed3.click" /><animate id="1" attributeName="stroke-dashoffset" values="16.27;0" dur="0.16s" fill="freeze" begin="0.end" /></path><path d="M13.75,88.73c1.71,1.27,3.78,1.32,4.86-0.25c3.14-4.57,6.79-12.16,9.64-17.99" stroke-dasharray="25.9" stroke-dashoffset="25.9"><animate attributeName="stroke-dashoffset" values="25.9" fill="freeze" begin="6ed3.click" /><animate id="2" attributeName="stroke-dashoffset" values="25.9;0" dur="0.26s" fill="freeze" begin="1.end" /></path></g><g><g><path d="M62.44,9.25c1.03,0.4,2.51,2.34,2.48,3.48c-0.08,3.6-0.08,5.72-0.08,8.99" stroke-dasharray="13.43" stroke-dashoffset="13.43"><animate attributeName="stroke-dashoffset" values="13.43" fill="freeze" begin="6ed3.click" /><animate id="3" attributeName="stroke-dashoffset" values="13.43;0" dur="0.13s" fill="freeze" begin="2.end" /></path><g><path d="M42.88,20.57c0,3.61-2.94,13.52-4.28,15.93" stroke-dasharray="16.57" stroke-dashoffset="16.57"><animate attributeName="stroke-dashoffset" values="16.57" fill="freeze" begin="6ed3.click" /><animate id="4" attributeName="stroke-dashoffset" values="16.57;0" dur="0.17s" fill="freeze" begin="3.end" /></path><path d="M42.57,24.34c2.03,0.16,34.55-3.59,47.58-4.02c9.96-0.33,2.01,7.11-0.35,9.06" stroke-dasharray="62.57" stroke-dashoffset="62.57"><animate attributeName="stroke-dashoffset" values="62.57" fill="freeze" begin="6ed3.click" /><animate id="5" attributeName="stroke-dashoffset" values="62.57;0" dur="0.47s" fill="freeze" begin="4.end" /></path></g></g><g><g><g><path d="M64.2,28c0.81,0.72,1.22,1.22,1.22,2.89s0,2.97,0,7.5" stroke-dasharray="10.77" stroke-dashoffset="10.77"><animate attributeName="stroke-dashoffset" values="10.77" fill="freeze" begin="6ed3.click" /><animate id="6" attributeName="stroke-dashoffset" values="10.77;0" dur="0.11s" fill="freeze" begin="5.end" /></path><path d="M45.08,39.73c0.94,0.31,2.05,0.36,2.99,0.31c5.33-0.27,27.88-2.33,35.94-2.55c1.58-0.04,2.52,0.15,3.31,0.31" stroke-dasharray="42.39" stroke-dashoffset="42.39"><animate attributeName="stroke-dashoffset" values="42.39" fill="freeze" begin="6ed3.click" /><animate id="7" attributeName="stroke-dashoffset" values="42.39;0" dur="0.42s" fill="freeze" begin="6.end" /></path></g><g><path d="M52.6,44.85c3.05,4.63,4.44,9.36,4.72,12.41" stroke-dasharray="13.4" stroke-dashoffset="13.4"><animate attributeName="stroke-dashoffset" values="13.4" fill="freeze" begin="6ed3.click" /><animate id="8" attributeName="stroke-dashoffset" values="13.4;0" dur="0.13s" fill="freeze" begin="7.end" /></path><path d="M77.54,41.84c0.62,0.52,0.34,2.81,0.19,3.21c-0.95,2.7-4.48,8.95-6.88,12.54" stroke-dasharray="17.64" stroke-dashoffset="17.64"><animate attributeName="stroke-dashoffset" values="17.64" fill="freeze" begin="6ed3.click" /><animate id="9" attributeName="stroke-dashoffset" values="17.64;0" dur="0.18s" fill="freeze" begin="8.end" /></path><path d="M38.82,61.93c1.42,0.27,3.08,0.33,4.5,0.27c17.08-0.7,31.45-2.9,49.37-3.46c2.36-0.07,3.79,0.13,4.97,0.27" stroke-dasharray="59" stroke-dashoffset="59"><animate attributeName="stroke-dashoffset" values="59" fill="freeze" begin="6ed3.click" /><animate id="10" attributeName="stroke-dashoffset" values="59;0" dur="0.59s" fill="freeze" begin="9.end" /></path></g></g><g><path d="M42.02,76.45c1.12,0.47,3.17,0.55,4.29,0.47C58.71,76,77,74.25,87.78,74.02c1.87-0.04,2.99,0.22,3.92,0.46" stroke-dasharray="49.88" stroke-dashoffset="49.88"><animate attributeName="stroke-dashoffset" values="49.88" fill="freeze" begin="6ed3.click" /><animate id="11" attributeName="stroke-dashoffset" values="49.88;0" dur="0.5s" fill="freeze" begin="10.end" /></path><path d="M64.21,62.13c0.56,0.52,1.74,3.92,1.85,4.96c0.65,6-0.16,31.74-0.18,33.29" stroke-dasharray="38.63" stroke-dashoffset="38.63"><animate attributeName="stroke-dashoffset" values="38.63" fill="freeze" begin="6ed3.click" /><animate id="12" attributeName="stroke-dashoffset" values="38.63;0" dur="0.39s" fill="freeze" begin="11.end" /></path></g></g></g></g></g></svg>