<svg xmlns="http://www.w3.org/2000/svg" width="109" height="109" viewBox="0 0 109 109" id="6f06"><g fill="none" stroke="#666" stroke-width="9" stroke-linecap="round" stroke-linejoin="round"><g><g><path d="M21.38,18.25c3.66,1.3,9.45,5.33,10.37,7.34" /><path d="M14.75,40.5c3.79,1.15,9.8,5.22,10.75,7" /><path d="M12.36,90.86c1.54,0.26,2.6-0.13,3.34-1.65c2.73-5.67,4.95-11.6,7.43-18.83" /></g><g p4:phon="桼" xmlns:p4="http://kanjivg.tagaini.net"><g><g><path d="M40.41,24.87c2.04,0.66,4.75,0.51,6.87,0.27c7.16-0.81,19.94-2.72,28.61-3.51c2.19-0.2,4.23-0.37,6.41,0.07" /><path d="M58.79,11.1c0.88,0.88,1.09,2.12,1.09,3.65c0,8.26-0.02,16.4,0.04,23c0.02,2.18,0.02,4.13-0.02,5.75" /><path d="M58.7,24.69c0,1.06-0.43,2.29-1.89,4.08C50.7,36.26,40.69,45.01,32.56,48.7" /><path d="M63.75,28.5c6.75,2.25,15,7.75,19.75,13" /></g><path d="M58.45,42.75c0,1.12-0.34,2.15-0.92,3.02C53.25,52.25,44.62,61.62,27.96,71" /><path d="M59.49,44.49c4.12,3.35,17.94,12.31,26.13,17.14c2.91,1.72,6.09,3.16,9.17,4.54" /></g><g><path d="M60.55,58.08c0.87,0.87,1.03,2.42,1.03,4.03c0,11.96,0.04,24.42,0.04,28.49c0,9.64-4.42,2.23-5.65,1.21" /><path d="M44.81,66.14c2.64,1.13,6.82,4.64,7.48,6.39" /><path d="M37.32,87.31c1.14,0.66,2.18,0.83,3.38,0.1c0.86-0.52,7.78-5.16,11.42-7.66" /><path d="M78.33,64.43c0.08,0.76-0.11,1.45-0.54,2.09c-1.28,1.61-3.28,3.86-7.44,7.08" /><path d="M69.46,79.07c3.35,0.8,12.05,7.12,13.33,9.7" /></g></g></g></g><g fill="none" stroke="#000" stroke-width="5" stroke-linecap="round" stroke-linejoin="round"><g><g><path d="M21.38,18.25c3.66,1.3,9.45,5.33,10.37,7.34" stroke-dasharray="12.87" stroke-dashoffset="12.87"><animate id="0" attributeName="stroke-dashoffset" values="12.87;0" dur="0.13s" fill="freeze" begin="0s;6f06.click" /></path><path d="M14.75,40.5c3.79,1.15,9.8,5.22,10.75,7" stroke-dasharray="12.98" stroke-dashoffset="12.98"><animate attributeName="stroke-dashoffset" values="12.98" fill="freeze" begin="6f06.click" /><animate id="1" attributeName="stroke-dashoffset" values="12.98;0" dur="0.13s" fill="freeze" begin="0.end" /></path><path d="M12.36,90.86c1.54,0.26,2.6-0.13,3.34-1.65c2.73-5.67,4.95-11.6,7.43-18.83" stroke-dasharray="24.33" stroke-dashoffset="24.33"><animate attributeName="stroke-dashoffset" values="24.33" fill="freeze" begin="6f06.click" /><animate id="2" attributeName="stroke-dashoffset" values="24.33;0" dur="0.24s" fill="freeze" begin="1.end" /></path></g><g p4:phon="桼" xmlns:p4="http://kanjivg.tagaini.net"><g><g><path d="M40.41,24.87c2.04,0.66,4.75,0.51,6.87,0.27c7.16-0.81,19.94-2.72,28.61-3.51c2.19-0.2,4.23-0.37,6.41,0.07" stroke-dasharray="42.18" stroke-dashoffset="42.18"><animate attributeName="stroke-dashoffset" values="42.18" fill="freeze" begin="6f06.click" /><animate id="3" attributeName="stroke-dashoffset" values="42.18;0" dur="0.42s" fill="freeze" begin="2.end" /></path><path d="M58.79,11.1c0.88,0.88,1.09,2.12,1.09,3.65c0,8.26-0.02,16.4,0.04,23c0.02,2.18,0.02,4.13-0.02,5.75" stroke-dasharray="32.67" stroke-dashoffset="32.67"><animate attributeName="stroke-dashoffset" values="32.67" fill="freeze" begin="6f06.click" /><animate id="4" attributeName="stroke-dashoffset" values="32.67;0" dur="0.33s" fill="freeze" begin="3.end" /></path><path d="M58.7,24.69c0,1.06-0.43,2.29-1.89,4.08C50.7,36.26,40.69,45.01,32.56,48.7" stroke-dasharray="36.2" stroke-dashoffset="36.2"><animate attributeName="stroke-dashoffset" values="36.2" fill="freeze" begin="6f06.click" /><animate id="5" attributeName="stroke-dashoffset" values="36.2;0" dur="0.36s" fill="freeze" begin="4.end" /></path><path d="M63.75,28.5c6.75,2.25,15,7.75,19.75,13" stroke-dasharray="23.86" stroke-dashoffset="23.86"><animate attributeName="stroke-dashoffset" values="23.86" fill="freeze" begin="6f06.click" /><animate id="6" attributeName="stroke-dashoffset" values="23.86;0" dur="0.24s" fill="freeze" begin="5.end" /></path></g><path d="M58.45,42.75c0,1.12-0.34,2.15-0.92,3.02C53.25,52.25,44.62,61.62,27.96,71" stroke-dasharray="42.42" stroke-dashoffset="42.42"><animate attributeName="stroke-dashoffset" values="42.42" fill="freeze" begin="6f06.click" /><animate id="7" attributeName="stroke-dashoffset" values="42.42;0" dur="0.42s" fill="freeze" begin="6.end" /></path><path d="M59.49,44.49c4.12,3.35,17.94,12.31,26.13,17.14c2.91,1.72,6.09,3.16,9.17,4.54" stroke-dasharray="41.5" stroke-dashoffset="41.5"><animate attributeName="stroke-dashoffset" values="41.5" fill="freeze" begin="6f06.click" /><animate id="8" attributeName="stroke-dashoffset" values="41.5;0" dur="0.42s" fill="freeze" begin="7.end" /></path></g><g><path d="M60.55,58.08c0.87,0.87,1.03,2.42,1.03,4.03c0,11.96,0.04,24.42,0.04,28.49c0,9.64-4.42,2.23-5.65,1.21" stroke-dasharray="43.89" stroke-dashoffset="43.89"><animate attributeName="stroke-dashoffset" values="43.89" fill="freeze" begin="6f06.click" /><animate id="9" attributeName="stroke-dashoffset" values="43.89;0" dur="0.44s" fill="freeze" begin="8.end" /></path><path d="M44.81,66.14c2.64,1.13,6.82,4.64,7.48,6.39" stroke-dasharray="9.98" stroke-dashoffset="9.98"><animate attributeName="stroke-dashoffset" values="9.98" fill="freeze" begin="6f06.click" /><animate id="10" attributeName="stroke-dashoffset" values="9.98;0" dur="0.1s" fill="freeze" begin="9.end" /></path><path d="M37.32,87.31c1.14,0.66,2.18,0.83,3.38,0.1c0.86-0.52,7.78-5.16,11.42-7.66" stroke-dasharray="17.34" stroke-dashoffset="17.34"><animate attributeName="stroke-dashoffset" values="17.34" fill="freeze" begin="6f06.click" /><animate id="11" attributeName="stroke-dashoffset" values="17.34;0" dur="0.17s" fill="freeze" begin="10.end" /></path><path d="M78.33,64.43c0.08,0.76-0.11,1.45-0.54,2.09c-1.28,1.61-3.28,3.86-7.44,7.08" stroke-dasharray="12.5" stroke-dashoffset="12.5"><animate attributeName="stroke-dashoffset" values="12.5" fill="freeze" begin="6f06.click" /><animate id="12" attributeName="stroke-dashoffset" values="12.5;0" dur="0.12s" fill="freeze" begin="11.end" /></path><path d="M69.46,79.07c3.35,0.8,12.05,7.12,13.33,9.7" stroke-dasharray="16.69" stroke-dashoffset="16.69"><animate attributeName="stroke-dashoffset" values="16.69" fill="freeze" begin="6f06.click" /><animate id="13" attributeName="stroke-dashoffset" values="16.69;0" dur="0.17s" fill="freeze" begin="12.end" /></path></g></g></g></g></svg>