<svg xmlns="http://www.w3.org/2000/svg" width="109" height="109" viewBox="0 0 109 109" id="6f54"><g fill="none" stroke="#666" stroke-width="9" stroke-linecap="round" stroke-linejoin="round"><g><g><path d="M19.63,16.25c3.48,1.3,9,5.33,9.87,7.34" /><path d="M15.75,42.5c3.79,1.15,9.8,4.72,10.75,6.5" /><path d="M15.25,87.63c1.47,0.51,2.95,0.23,3.83-1.03c3.41-4.89,6.82-10.86,9.92-17.1" /></g><g p4:phon="絜" xmlns:p4="http://kanjivg.tagaini.net"><g><path d="M36.75,23.9c1.75,0.35,3.35,0.23,4.88,0.01c4.63-0.68,10.72-2.53,14.12-3.34c1.21-0.29,2.37-0.37,3-0.24" /><path d="M47.37,12.75c0.75,0.75,1.21,1.98,1.21,3c0,7.25,0.03,16.75,0.03,27.5" /><path d="M37,33.89c1.46,0.74,3.39,0.32,4.89,0.07c3.83-0.64,7.53-1.59,11.25-2.5c1.25-0.31,3.1-0.83,4.35-0.7" /><path d="M36.38,47.13c0.58,0.5,2,1.01,3.75,0.36c4.86-1.82,13.6-5.08,18.46-6.9" /><g><path d="M65.47,18.33c1.82,0.66,3.37,0.68,5.3,0.36c5.88-0.96,13.65-2.48,16.54-2.99c2.57-0.45,3.57,0.92,3.46,3.48c-0.16,3.67-3.01,16.84-5.91,21.05c-2.1,3.06-4.58,2.33-6.17,0.34" /><path d="M76.54,20.77c0.07,1.03-0.02,1.82-0.35,2.8c-2.14,6.47-4.46,11.27-10.58,18.91" /></g></g><g><path d="M60.17,47c0.08,0.88-0.13,2.03-0.92,2.74c-3.88,3.51-6.13,5.51-10.59,8.88c-0.6,0.46-0.66,1.62,0,1.76c3.48,0.7,7.04,1.62,10.02,2.91" /><path d="M71.94,52.01c0.19,0.99-0.21,1.98-0.75,2.41c-8.31,6.7-17.65,13.24-26.57,19.86c-1.2,0.89-0.74,1.35,0.74,1.08c6.22-1.13,27.74-5.01,35.73-6.1" /><path d="M77.55,64.49c2.72,1.89,7.03,7.79,7.71,10.74" /><path d="M62.71,75.63c0.7,0.7,1.14,1.87,1.14,3.38c0,3.5-0.07,8.85-0.12,12.87c-0.03,2.45-0.06,4.4-0.06,5.12" /><path d="M50.1,81.92c0.15,1.21-0.35,2.21-1.22,3.06c-2.62,2.61-8.34,7.19-12.02,9.45" /><path d="M76.25,82.25c3.92,2.33,10.64,8.55,12.04,10.88" /></g></g></g></g><g fill="none" stroke="#000" stroke-width="5" stroke-linecap="round" stroke-linejoin="round"><g><g><path d="M19.63,16.25c3.48,1.3,9,5.33,9.87,7.34" stroke-dasharray="12.47" stroke-dashoffset="12.47"><animate id="0" attributeName="stroke-dashoffset" values="12.47;0" dur="0.12s" fill="freeze" begin="0s;6f54.click" /></path><path d="M15.75,42.5c3.79,1.15,9.8,4.72,10.75,6.5" stroke-dasharray="12.71" stroke-dashoffset="12.71"><animate attributeName="stroke-dashoffset" values="12.71" fill="freeze" begin="6f54.click" /><animate id="1" attributeName="stroke-dashoffset" values="12.71;0" dur="0.13s" fill="freeze" begin="0.end" /></path><path d="M15.25,87.63c1.47,0.51,2.95,0.23,3.83-1.03c3.41-4.89,6.82-10.86,9.92-17.1" stroke-dasharray="24.07" stroke-dashoffset="24.07"><animate attributeName="stroke-dashoffset" values="24.07" fill="freeze" begin="6f54.click" /><animate id="2" attributeName="stroke-dashoffset" values="24.07;0" dur="0.24s" fill="freeze" begin="1.end" /></path></g><g p4:phon="絜" xmlns:p4="http://kanjivg.tagaini.net"><g><path d="M36.75,23.9c1.75,0.35,3.35,0.23,4.88,0.01c4.63-0.68,10.72-2.53,14.12-3.34c1.21-0.29,2.37-0.37,3-0.24" stroke-dasharray="22.45" stroke-dashoffset="22.45"><animate attributeName="stroke-dashoffset" values="22.45" fill="freeze" begin="6f54.click" /><animate id="3" attributeName="stroke-dashoffset" values="22.45;0" dur="0.22s" fill="freeze" begin="2.end" /></path><path d="M47.37,12.75c0.75,0.75,1.21,1.98,1.21,3c0,7.25,0.03,16.75,0.03,27.5" stroke-dasharray="30.81" stroke-dashoffset="30.81"><animate attributeName="stroke-dashoffset" values="30.81" fill="freeze" begin="6f54.click" /><animate id="4" attributeName="stroke-dashoffset" values="30.81;0" dur="0.31s" fill="freeze" begin="3.end" /></path><path d="M37,33.89c1.46,0.74,3.39,0.32,4.89,0.07c3.83-0.64,7.53-1.59,11.25-2.5c1.25-0.31,3.1-0.83,4.35-0.7" stroke-dasharray="20.93" stroke-dashoffset="20.93"><animate attributeName="stroke-dashoffset" values="20.93" fill="freeze" begin="6f54.click" /><animate id="5" attributeName="stroke-dashoffset" values="20.93;0" dur="0.21s" fill="freeze" begin="4.end" /></path><path d="M36.38,47.13c0.58,0.5,2,1.01,3.75,0.36c4.86-1.82,13.6-5.08,18.46-6.9" stroke-dasharray="23.64" stroke-dashoffset="23.64"><animate attributeName="stroke-dashoffset" values="23.64" fill="freeze" begin="6f54.click" /><animate id="6" attributeName="stroke-dashoffset" values="23.64;0" dur="0.24s" fill="freeze" begin="5.end" /></path><g><path d="M65.47,18.33c1.82,0.66,3.37,0.68,5.3,0.36c5.88-0.96,13.65-2.48,16.54-2.99c2.57-0.45,3.57,0.92,3.46,3.48c-0.16,3.67-3.01,16.84-5.91,21.05c-2.1,3.06-4.58,2.33-6.17,0.34" stroke-dasharray="57.67" stroke-dashoffset="57.67"><animate attributeName="stroke-dashoffset" values="57.67" fill="freeze" begin="6f54.click" /><animate id="7" attributeName="stroke-dashoffset" values="57.67;0" dur="0.58s" fill="freeze" begin="6.end" /></path><path d="M76.54,20.77c0.07,1.03-0.02,1.82-0.35,2.8c-2.14,6.47-4.46,11.27-10.58,18.91" stroke-dasharray="24.65" stroke-dashoffset="24.65"><animate attributeName="stroke-dashoffset" values="24.65" fill="freeze" begin="6f54.click" /><animate id="8" attributeName="stroke-dashoffset" values="24.65;0" dur="0.25s" fill="freeze" begin="7.end" /></path></g></g><g><path d="M60.17,47c0.08,0.88-0.13,2.03-0.92,2.74c-3.88,3.51-6.13,5.51-10.59,8.88c-0.6,0.46-0.66,1.62,0,1.76c3.48,0.7,7.04,1.62,10.02,2.91" stroke-dasharray="29.39" stroke-dashoffset="29.39"><animate attributeName="stroke-dashoffset" values="29.39" fill="freeze" begin="6f54.click" /><animate id="9" attributeName="stroke-dashoffset" values="29.39;0" dur="0.29s" fill="freeze" begin="8.end" /></path><path d="M71.94,52.01c0.19,0.99-0.21,1.98-0.75,2.41c-8.31,6.7-17.65,13.24-26.57,19.86c-1.2,0.89-0.74,1.35,0.74,1.08c6.22-1.13,27.74-5.01,35.73-6.1" stroke-dasharray="74.75" stroke-dashoffset="74.75"><animate attributeName="stroke-dashoffset" values="74.75" fill="freeze" begin="6f54.click" /><animate id="10" attributeName="stroke-dashoffset" values="74.75;0" dur="0.56s" fill="freeze" begin="9.end" /></path><path d="M77.55,64.49c2.72,1.89,7.03,7.79,7.71,10.74" stroke-dasharray="13.39" stroke-dashoffset="13.39"><animate attributeName="stroke-dashoffset" values="13.39" fill="freeze" begin="6f54.click" /><animate id="11" attributeName="stroke-dashoffset" values="13.39;0" dur="0.13s" fill="freeze" begin="10.end" /></path><path d="M62.71,75.63c0.7,0.7,1.14,1.87,1.14,3.38c0,3.5-0.07,8.85-0.12,12.87c-0.03,2.45-0.06,4.4-0.06,5.12" stroke-dasharray="21.65" stroke-dashoffset="21.65"><animate attributeName="stroke-dashoffset" values="21.65" fill="freeze" begin="6f54.click" /><animate id="12" attributeName="stroke-dashoffset" values="21.65;0" dur="0.22s" fill="freeze" begin="11.end" /></path><path d="M50.1,81.92c0.15,1.21-0.35,2.21-1.22,3.06c-2.62,2.61-8.34,7.19-12.02,9.45" stroke-dasharray="18.74" stroke-dashoffset="18.74"><animate attributeName="stroke-dashoffset" values="18.74" fill="freeze" begin="6f54.click" /><animate id="13" attributeName="stroke-dashoffset" values="18.74;0" dur="0.19s" fill="freeze" begin="12.end" /></path><path d="M76.25,82.25c3.92,2.33,10.64,8.55,12.04,10.88" stroke-dasharray="16.31" stroke-dashoffset="16.31"><animate attributeName="stroke-dashoffset" values="16.31" fill="freeze" begin="6f54.click" /><animate id="14" attributeName="stroke-dashoffset" values="16.31;0" dur="0.16s" fill="freeze" begin="13.end" /></path></g></g></g></g></svg>