<svg xmlns="http://www.w3.org/2000/svg" width="109" height="109" viewBox="0 0 109 109" id="6f5b"><g fill="none" stroke="#666" stroke-width="9" stroke-linecap="round" stroke-linejoin="round"><g><g><path d="M18.88,18.75c4.37,1.82,11.27,7.5,12.37,10.34" /><path d="M14.75,45.75c4.5,1.63,11.62,6.71,12.75,9.25" /><path d="M14.75,94.23c1.71,1.27,3.78,1.32,4.86-0.25c3.14-4.57,9.29-15.66,12.14-21.49" /></g><g><g><g><path d="M38.57,21.04c0.55,0.24,2.05,0.75,2.6,0.74c4.08-0.03,12.54-1.07,17.77-1.35c0.91-0.05,1.46,0.12,1.92,0.24" /><path d="M38.7,28.1c0.26,0.31,0.69,1.66,0.52,2.27c-0.46,1.63-0.96,5.13-2.02,7.27c-0.98,1.96-1.01,2.65,1.01,2.12c6.55-1.75,13.05-2.5,19.68-2.77c0.68-0.03,2.11,0.37,2.64,0.63" /><g><g><g><path d="M50.93,11.9c0.22,0.64,0.4,1.87,0.27,3.42C49.89,31.07,49.25,47.5,36.5,57.5" /></g><g><path d="M50.15,44.2c0.28,0.5,0.5,1.1,0.52,1.88c0.07,3.47-0.21,8.74-0.21,10.33s-0.2,3.34,1.8,1.84s7-5.75,9.75-8" /></g></g></g></g><g><path d="M67.07,21.79c0.6,0.24,1.69,0.29,2.29,0.24c3.64-0.28,15.51-2.13,19.91-2.35c1-0.05,1.59,0.12,2.09,0.24" /><path d="M68.7,27.35c0.26,0.31,0.69,1.66,0.52,2.27C68.25,33,68.75,33,66.69,36.88C65.66,38.81,66,39.5,67.7,39c5.81-1.72,17.05-2.75,24.05-2.75c0.68,0,1.73,0.34,2.27,0.61" /><g><g><g><path d="M80.34,11.15c0.28,0.69,0.43,2.02,0.35,3.72C79.75,35.25,74.75,53.5,61.5,60.75" /></g><g><path d="M79.65,40.45c0.28,0.5,0.5,1.1,0.52,1.88c0.08,3.47,0.29,6.49,0.29,8.83c0,3.84,1.55,4.39,7.31,4.39c5.99,0,7.74-1.05,7.24-4.87" /></g></g></g></g></g><g><path d="M43.24,66.48c0.26,0.52,1.37,1.83,1.44,2.48c0.82,7.29,2.95,19.81,3.73,29.5" /><path d="M45.55,67.67c9.76-1.31,27.42-3.49,34.79-3.62C83,64,84.89,66.07,84.75,67.5c-0.5,5.24-3,20.5-4.97,29.75" /><path d="M46.37,81.11c3.18-0.51,34.12-2.76,36.75-2.97" /><path d="M48.41,96.04C55.44,95.49,69,94,80.28,93.75" /></g></g></g></g><g fill="none" stroke="#000" stroke-width="5" stroke-linecap="round" stroke-linejoin="round"><g><g><path d="M18.88,18.75c4.37,1.82,11.27,7.5,12.37,10.34" stroke-dasharray="16.35" stroke-dashoffset="16.35"><animate id="0" attributeName="stroke-dashoffset" values="16.35;0" dur="0.16s" fill="freeze" begin="0s;6f5b.click" /></path><path d="M14.75,45.75c4.5,1.63,11.62,6.71,12.75,9.25" stroke-dasharray="15.97" stroke-dashoffset="15.97"><animate attributeName="stroke-dashoffset" values="15.97" fill="freeze" begin="6f5b.click" /><animate id="1" attributeName="stroke-dashoffset" values="15.97;0" dur="0.16s" fill="freeze" begin="0.end" /></path><path d="M14.75,94.23c1.71,1.27,3.78,1.32,4.86-0.25c3.14-4.57,9.29-15.66,12.14-21.49" stroke-dasharray="30.17" stroke-dashoffset="30.17"><animate attributeName="stroke-dashoffset" values="30.17" fill="freeze" begin="6f5b.click" /><animate id="2" attributeName="stroke-dashoffset" values="30.17;0" dur="0.3s" fill="freeze" begin="1.end" /></path></g><g><g><g><path d="M38.57,21.04c0.55,0.24,2.05,0.75,2.6,0.74c4.08-0.03,12.54-1.07,17.77-1.35c0.91-0.05,1.46,0.12,1.92,0.24" stroke-dasharray="22.48" stroke-dashoffset="22.48"><animate attributeName="stroke-dashoffset" values="22.48" fill="freeze" begin="6f5b.click" /><animate id="3" attributeName="stroke-dashoffset" values="22.48;0" dur="0.22s" fill="freeze" begin="2.end" /></path><path d="M38.7,28.1c0.26,0.31,0.69,1.66,0.52,2.27c-0.46,1.63-0.96,5.13-2.02,7.27c-0.98,1.96-1.01,2.65,1.01,2.12c6.55-1.75,13.05-2.5,19.68-2.77c0.68-0.03,2.11,0.37,2.64,0.63" stroke-dasharray="36.47" stroke-dashoffset="36.47"><animate attributeName="stroke-dashoffset" values="36.47" fill="freeze" begin="6f5b.click" /><animate id="4" attributeName="stroke-dashoffset" values="36.47;0" dur="0.36s" fill="freeze" begin="3.end" /></path><g><g><g><path d="M50.93,11.9c0.22,0.64,0.4,1.87,0.27,3.42C49.89,31.07,49.25,47.5,36.5,57.5" stroke-dasharray="49.58" stroke-dashoffset="49.58"><animate attributeName="stroke-dashoffset" values="49.58" fill="freeze" begin="6f5b.click" /><animate id="5" attributeName="stroke-dashoffset" values="49.58;0" dur="0.5s" fill="freeze" begin="4.end" /></path></g><g><path d="M50.15,44.2c0.28,0.5,0.5,1.1,0.52,1.88c0.07,3.47-0.21,8.74-0.21,10.33s-0.2,3.34,1.8,1.84s7-5.75,9.75-8" stroke-dasharray="28.96" stroke-dashoffset="28.96"><animate attributeName="stroke-dashoffset" values="28.96" fill="freeze" begin="6f5b.click" /><animate id="6" attributeName="stroke-dashoffset" values="28.96;0" dur="0.29s" fill="freeze" begin="5.end" /></path></g></g></g></g><g><path d="M67.07,21.79c0.6,0.24,1.69,0.29,2.29,0.24c3.64-0.28,15.51-2.13,19.91-2.35c1-0.05,1.59,0.12,2.09,0.24" stroke-dasharray="24.48" stroke-dashoffset="24.48"><animate attributeName="stroke-dashoffset" values="24.48" fill="freeze" begin="6f5b.click" /><animate id="7" attributeName="stroke-dashoffset" values="24.48;0" dur="0.24s" fill="freeze" begin="6.end" /></path><path d="M68.7,27.35c0.26,0.31,0.69,1.66,0.52,2.27C68.25,33,68.75,33,66.69,36.88C65.66,38.81,66,39.5,67.7,39c5.81-1.72,17.05-2.75,24.05-2.75c0.68,0,1.73,0.34,2.27,0.61" stroke-dasharray="40.48" stroke-dashoffset="40.48"><animate attributeName="stroke-dashoffset" values="40.48" fill="freeze" begin="6f5b.click" /><animate id="8" attributeName="stroke-dashoffset" values="40.48;0" dur="0.4s" fill="freeze" begin="7.end" /></path><g><g><g><path d="M80.34,11.15c0.28,0.69,0.43,2.02,0.35,3.72C79.75,35.25,74.75,53.5,61.5,60.75" stroke-dasharray="55.62" stroke-dashoffset="55.62"><animate attributeName="stroke-dashoffset" values="55.62" fill="freeze" begin="6f5b.click" /><animate id="9" attributeName="stroke-dashoffset" values="55.62;0" dur="0.56s" fill="freeze" begin="8.end" /></path></g><g><path d="M79.65,40.45c0.28,0.5,0.5,1.1,0.52,1.88c0.08,3.47,0.29,6.49,0.29,8.83c0,3.84,1.55,4.39,7.31,4.39c5.99,0,7.74-1.05,7.24-4.87" stroke-dasharray="31.37" stroke-dashoffset="31.37"><animate attributeName="stroke-dashoffset" values="31.37" fill="freeze" begin="6f5b.click" /><animate id="10" attributeName="stroke-dashoffset" values="31.37;0" dur="0.31s" fill="freeze" begin="9.end" /></path></g></g></g></g></g><g><path d="M43.24,66.48c0.26,0.52,1.37,1.83,1.44,2.48c0.82,7.29,2.95,19.81,3.73,29.5" stroke-dasharray="32.62" stroke-dashoffset="32.62"><animate attributeName="stroke-dashoffset" values="32.62" fill="freeze" begin="6f5b.click" /><animate id="11" attributeName="stroke-dashoffset" values="32.62;0" dur="0.33s" fill="freeze" begin="10.end" /></path><path d="M45.55,67.67c9.76-1.31,27.42-3.49,34.79-3.62C83,64,84.89,66.07,84.75,67.5c-0.5,5.24-3,20.5-4.97,29.75" stroke-dasharray="71.35" stroke-dashoffset="71.35"><animate attributeName="stroke-dashoffset" values="71.35" fill="freeze" begin="6f5b.click" /><animate id="12" attributeName="stroke-dashoffset" values="71.35;0" dur="0.54s" fill="freeze" begin="11.end" /></path><path d="M46.37,81.11c3.18-0.51,34.12-2.76,36.75-2.97" stroke-dasharray="36.87" stroke-dashoffset="36.87"><animate attributeName="stroke-dashoffset" values="36.87" fill="freeze" begin="6f5b.click" /><animate id="13" attributeName="stroke-dashoffset" values="36.87;0" dur="0.37s" fill="freeze" begin="12.end" /></path><path d="M48.41,96.04C55.44,95.49,69,94,80.28,93.75" stroke-dasharray="31.96" stroke-dashoffset="31.96"><animate attributeName="stroke-dashoffset" values="31.96" fill="freeze" begin="6f5b.click" /><animate id="14" attributeName="stroke-dashoffset" values="31.96;0" dur="0.32s" fill="freeze" begin="13.end" /></path></g></g></g></g></svg>