<svg xmlns="http://www.w3.org/2000/svg" width="109" height="109" viewBox="0 0 109 109" id="6f64"><g fill="none" stroke="#666" stroke-width="9" stroke-linecap="round" stroke-linejoin="round"><g><g><path d="M18.88,14.5c4.01,1.38,10.36,5.69,11.37,7.84" /><path d="M15,36.5c3.62,1.68,9.34,6.89,10.25,9.5" /><path d="M13.95,84.16c1.25,0.36,2.48,0.05,3.22-1.07c3.12-4.67,6.24-10.38,9.07-16.34" /></g><g p4:phon="閏" xmlns:p4="http://kanjivg.tagaini.net"><g><g><path d="M38.64,16.78c0.91,0.91,1.01,2.22,1.01,4.02c0,3.38-0.02,40.76-0.03,61.7c0,3.56,0,6.64,0,9" /><path d="M40.57,19.15c3.25-0.56,10.89-2.09,14.19-2.52c2.29-0.3,3.7,0.16,3.7,2.62c0,2.85-0.04,11.22-0.07,16.5c-0.01,2.12-0.02,3.83-0.02,4.62" /><path d="M41.05,29.12c4.51-0.4,11.78-1.43,16.12-1.85" /><path d="M41,40.62c6.72-1.09,9.94-1.52,15.89-2.02" /></g><g><path d="M72.5,13.93c0.79,0.79,1.04,1.82,1.04,2.83c0,2.96,0,12.2,0,18.49c0,1.93,0,3.59,0,4.69" /><path d="M74.19,15.77c5.21-0.75,12.9-2.52,16.32-2.98c2.91-0.39,3.96,0.54,3.96,3.34c0,18.75-0.09,62.07-0.09,74.37c0,9.79-5.33,1.64-6.62,0.42" /><path d="M74.58,26.56c5.51-0.58,12.61-1.84,18.5-2.19" /><path d="M74.94,37.67c7.19-0.4,11.39-1,17.88-1.25" /></g></g><g p4:partial><path d="M52.25,52.18c1.75,0.45,3.49,0.48,4.51,0.43c5.53-0.26,13.79-1.37,18.75-1.69c1.21-0.2,2.41-0.13,3.59,0.2" /><path d="M64.3,53.66c0.77,0.77,1.08,1.88,1.08,2.94c0,4.03-0.01,15.95-0.01,20.87" /><path d="M53.84,65.04c1.29,0.33,2.68,0.39,3.66,0.34c5.75-0.27,12.32-1.16,17.52-1.68c0.56-0.06,1.79-0.13,2.62,0.15" /><path d="M50.28,79.21c1.68,0.74,3.84,0.41,5.59,0.29c5.61-0.38,12.97-0.71,19.51-1.5c1.58-0.19,4.11-0.26,5.66,0.23" /></g></g></g></g><g fill="none" stroke="#000" stroke-width="5" stroke-linecap="round" stroke-linejoin="round"><g><g><path d="M18.88,14.5c4.01,1.38,10.36,5.69,11.37,7.84" stroke-dasharray="13.99" stroke-dashoffset="13.99"><animate id="0" attributeName="stroke-dashoffset" values="13.99;0" dur="0.14s" fill="freeze" begin="0s;6f64.click" /></path><path d="M15,36.5c3.62,1.68,9.34,6.89,10.25,9.5" stroke-dasharray="14.18" stroke-dashoffset="14.18"><animate attributeName="stroke-dashoffset" values="14.18" fill="freeze" begin="6f64.click" /><animate id="1" attributeName="stroke-dashoffset" values="14.18;0" dur="0.14s" fill="freeze" begin="0.end" /></path><path d="M13.95,84.16c1.25,0.36,2.48,0.05,3.22-1.07c3.12-4.67,6.24-10.38,9.07-16.34" stroke-dasharray="22.36" stroke-dashoffset="22.36"><animate attributeName="stroke-dashoffset" values="22.36" fill="freeze" begin="6f64.click" /><animate id="2" attributeName="stroke-dashoffset" values="22.36;0" dur="0.22s" fill="freeze" begin="1.end" /></path></g><g p4:phon="閏" xmlns:p4="http://kanjivg.tagaini.net"><g><g><path d="M38.64,16.78c0.91,0.91,1.01,2.22,1.01,4.02c0,3.38-0.02,40.76-0.03,61.7c0,3.56,0,6.64,0,9" stroke-dasharray="74.96" stroke-dashoffset="74.96"><animate attributeName="stroke-dashoffset" values="74.96" fill="freeze" begin="6f64.click" /><animate id="3" attributeName="stroke-dashoffset" values="74.96;0" dur="0.56s" fill="freeze" begin="2.end" /></path><path d="M40.57,19.15c3.25-0.56,10.89-2.09,14.19-2.52c2.29-0.3,3.7,0.16,3.7,2.62c0,2.85-0.04,11.22-0.07,16.5c-0.01,2.12-0.02,3.83-0.02,4.62" stroke-dasharray="40.97" stroke-dashoffset="40.97"><animate attributeName="stroke-dashoffset" values="40.97" fill="freeze" begin="6f64.click" /><animate id="4" attributeName="stroke-dashoffset" values="40.97;0" dur="0.41s" fill="freeze" begin="3.end" /></path><path d="M41.05,29.12c4.51-0.4,11.78-1.43,16.12-1.85" stroke-dasharray="16.23" stroke-dashoffset="16.23"><animate attributeName="stroke-dashoffset" values="16.23" fill="freeze" begin="6f64.click" /><animate id="5" attributeName="stroke-dashoffset" values="16.23;0" dur="0.16s" fill="freeze" begin="4.end" /></path><path d="M41,40.62c6.72-1.09,9.94-1.52,15.89-2.02" stroke-dasharray="16.02" stroke-dashoffset="16.02"><animate attributeName="stroke-dashoffset" values="16.02" fill="freeze" begin="6f64.click" /><animate id="6" attributeName="stroke-dashoffset" values="16.02;0" dur="0.16s" fill="freeze" begin="5.end" /></path></g><g><path d="M72.5,13.93c0.79,0.79,1.04,1.82,1.04,2.83c0,2.96,0,12.2,0,18.49c0,1.93,0,3.59,0,4.69" stroke-dasharray="26.28" stroke-dashoffset="26.28"><animate attributeName="stroke-dashoffset" values="26.28" fill="freeze" begin="6f64.click" /><animate id="7" attributeName="stroke-dashoffset" values="26.28;0" dur="0.26s" fill="freeze" begin="6.end" /></path><path d="M74.19,15.77c5.21-0.75,12.9-2.52,16.32-2.98c2.91-0.39,3.96,0.54,3.96,3.34c0,18.75-0.09,62.07-0.09,74.37c0,9.79-5.33,1.64-6.62,0.42" stroke-dasharray="109.43" stroke-dashoffset="109.43"><animate attributeName="stroke-dashoffset" values="109.43" fill="freeze" begin="6f64.click" /><animate id="8" attributeName="stroke-dashoffset" values="109.43;0" dur="0.82s" fill="freeze" begin="7.end" /></path><path d="M74.58,26.56c5.51-0.58,12.61-1.84,18.5-2.19" stroke-dasharray="18.63" stroke-dashoffset="18.63"><animate attributeName="stroke-dashoffset" values="18.63" fill="freeze" begin="6f64.click" /><animate id="9" attributeName="stroke-dashoffset" values="18.63;0" dur="0.19s" fill="freeze" begin="8.end" /></path><path d="M74.94,37.67c7.19-0.4,11.39-1,17.88-1.25" stroke-dasharray="17.93" stroke-dashoffset="17.93"><animate attributeName="stroke-dashoffset" values="17.93" fill="freeze" begin="6f64.click" /><animate id="10" attributeName="stroke-dashoffset" values="17.93;0" dur="0.18s" fill="freeze" begin="9.end" /></path></g></g><g p4:partial><path d="M52.25,52.18c1.75,0.45,3.49,0.48,4.51,0.43c5.53-0.26,13.79-1.37,18.75-1.69c1.21-0.2,2.41-0.13,3.59,0.2" stroke-dasharray="27" stroke-dashoffset="27"><animate attributeName="stroke-dashoffset" values="27" fill="freeze" begin="6f64.click" /><animate id="11" attributeName="stroke-dashoffset" values="27;0" dur="0.27s" fill="freeze" begin="10.end" /></path><path d="M64.3,53.66c0.77,0.77,1.08,1.88,1.08,2.94c0,4.03-0.01,15.95-0.01,20.87" stroke-dasharray="24.08" stroke-dashoffset="24.08"><animate attributeName="stroke-dashoffset" values="24.08" fill="freeze" begin="6f64.click" /><animate id="12" attributeName="stroke-dashoffset" values="24.08;0" dur="0.24s" fill="freeze" begin="11.end" /></path><path d="M53.84,65.04c1.29,0.33,2.68,0.39,3.66,0.34c5.75-0.27,12.32-1.16,17.52-1.68c0.56-0.06,1.79-0.13,2.62,0.15" stroke-dasharray="23.93" stroke-dashoffset="23.93"><animate attributeName="stroke-dashoffset" values="23.93" fill="freeze" begin="6f64.click" /><animate id="13" attributeName="stroke-dashoffset" values="23.93;0" dur="0.24s" fill="freeze" begin="12.end" /></path><path d="M50.28,79.21c1.68,0.74,3.84,0.41,5.59,0.29c5.61-0.38,12.97-0.71,19.51-1.5c1.58-0.19,4.11-0.26,5.66,0.23" stroke-dasharray="30.93" stroke-dashoffset="30.93"><animate attributeName="stroke-dashoffset" values="30.93" fill="freeze" begin="6f64.click" /><animate id="14" attributeName="stroke-dashoffset" values="30.93;0" dur="0.31s" fill="freeze" begin="13.end" /></path></g></g></g></g></svg>