<svg xmlns="http://www.w3.org/2000/svg" width="109" height="109" viewBox="0 0 109 109" id="6f66"><g fill="none" stroke="#666" stroke-width="6" stroke-linecap="round" stroke-linejoin="round"><g><g><path d="M19.88,16.5c3.84,1.6,9.91,6.6,10.87,9.09" /><path d="M15,42.25c4.24,1.54,10.94,6.35,12,8.75" /><path d="M13.75,87.73c1.71,1.27,3.78,1.32,4.86-0.25c3.14-4.57,7.29-11.66,10.14-17.49" /></g><g><g><path d="M40.98,24.92c0.9,0.32,3.28,0.69,5.18,0.55c12.85-0.95,29.19-3.18,40.72-3.64c1.98-0.08,3.58-0.04,5.37,0.21" /><path d="M65,11.25c0.4,0.59,0.49,1.77,0.15,3.01C60.75,30,54.25,43.5,38.25,54.01" /><path d="M64.18,23.67c6.89,5.85,22.97,20.76,29.85,24.67c2.34,1.33,3.15,1.53,4.22,1.66" /></g><path d="M42.52,33.33c2.4,1.13,6.19,4.63,6.79,6.38" /><path d="M88.28,28.14c0.02,0.21,0.04,0.55-0.04,0.86c-0.53,1.81-3.55,5.78-7.68,8.22" /><g><path d="M49.74,48.45c0.23,0.35,0.23,0.59,0.36,1.03c1.04,3.63,2.47,12.79,3.11,19.55" /><path d="M50.82,49.37c8.02-0.91,22.23-2.4,28.23-3.17c2.2-0.28,3.83,1.71,3.71,2.71c-0.41,3.66-2.4,12.11-3.4,18.22" /><path d="M52.31,58.31c2.61-0.36,26.57-2.47,28.73-2.62" /><path d="M53.63,67.6c5.78-0.39,17.74-1.58,25.72-2.21" /></g><g><path d="M66.36,70.37c0.07,0.39,0.95,2.02,1.02,4.48c0.33,11.82-0.21,14.38-0.21,18.41c0,9.14-5.85,1.22-7.07,0.2" /><path d="M49.46,76.18c0.04,0.38,0.08,0.99-0.07,1.54c-0.9,3.26-6.07,10.4-13.13,14.78" /><path d="M79.71,76.12c4.78,2.67,12.35,10.98,13.54,15.13" /></g></g></g></g><g fill="none" stroke="#000" stroke-width="3" stroke-linecap="round" stroke-linejoin="round"><path d="M19.88,16.5c3.84,1.6,9.91,6.6,10.87,9.09" stroke-dasharray="14.374" stroke-dashoffset="14.374"><animate attributeName="stroke-dashoffset" values="14.374;14.374;0" dur="0.144s" fill="freeze" begin="0s;6f66.click" /></path><path d="M15,42.25c4.24,1.54,10.94,6.35,12,8.75" stroke-dasharray="15.055" stroke-dashoffset="15.055"><animate attributeName="stroke-dashoffset" values="15.055" fill="freeze" begin="6f66.click" /><animate attributeName="stroke-dashoffset" values="15.055;15.055;0" keyTimes="0;0.488;1" dur="0.295s" fill="freeze" begin="0s;6f66.click" /></path><path d="M13.75,87.73c1.71,1.27,3.78,1.32,4.86-0.25c3.14-4.57,7.29-11.66,10.14-17.49" stroke-dasharray="25.707" stroke-dashoffset="25.707"><animate attributeName="stroke-dashoffset" values="25.707" fill="freeze" begin="6f66.click" /><animate attributeName="stroke-dashoffset" values="25.707;25.707;0" keyTimes="0;0.534;1" dur="0.552s" fill="freeze" begin="0s;6f66.click" /></path><path d="M40.98,24.92c0.9,0.32,3.28,0.69,5.18,0.55c12.85-0.95,29.19-3.18,40.72-3.64c1.98-0.08,3.58-0.04,5.37,0.21" stroke-dasharray="51.505" stroke-dashoffset="51.505"><animate attributeName="stroke-dashoffset" values="51.505" fill="freeze" begin="6f66.click" /><animate attributeName="stroke-dashoffset" values="51.505;51.505;0" keyTimes="0;0.517;1" dur="1.067s" fill="freeze" begin="0s;6f66.click" /></path><path d="M65,11.25c0.4,0.59,0.49,1.77,0.15,3.01C60.75,30,54.25,43.5,38.25,54.01" stroke-dasharray="52.289" stroke-dashoffset="52.289"><animate attributeName="stroke-dashoffset" values="52.289" fill="freeze" begin="6f66.click" /><animate attributeName="stroke-dashoffset" values="52.289;52.289;0" keyTimes="0;0.671;1" dur="1.59s" fill="freeze" begin="0s;6f66.click" /></path><path d="M64.18,23.67c6.89,5.85,22.97,20.76,29.85,24.67c2.34,1.33,3.15,1.53,4.22,1.66" stroke-dasharray="43.334" stroke-dashoffset="43.334"><animate attributeName="stroke-dashoffset" values="43.334" fill="freeze" begin="6f66.click" /><animate attributeName="stroke-dashoffset" values="43.334;43.334;0" keyTimes="0;0.786;1" dur="2.023s" fill="freeze" begin="0s;6f66.click" /></path><path d="M42.52,33.33c2.4,1.13,6.19,4.63,6.79,6.38" stroke-dasharray="9.453" stroke-dashoffset="9.453"><animate attributeName="stroke-dashoffset" values="9.453" fill="freeze" begin="6f66.click" /><animate attributeName="stroke-dashoffset" values="9.453;9.453;0" keyTimes="0;0.955;1" dur="2.118s" fill="freeze" begin="0s;6f66.click" /></path><path d="M88.28,28.14c0.02,0.21,0.04,0.55-0.04,0.86c-0.53,1.81-3.55,5.78-7.68,8.22" stroke-dasharray="12.297" stroke-dashoffset="12.297"><animate attributeName="stroke-dashoffset" values="12.297" fill="freeze" begin="6f66.click" /><animate attributeName="stroke-dashoffset" values="12.297;12.297;0" keyTimes="0;0.945;1" dur="2.241s" fill="freeze" begin="0s;6f66.click" /></path><path d="M49.74,48.45c0.23,0.35,0.23,0.59,0.36,1.03c1.04,3.63,2.47,12.79,3.11,19.55" stroke-dasharray="20.911" stroke-dashoffset="20.911"><animate attributeName="stroke-dashoffset" values="20.911" fill="freeze" begin="6f66.click" /><animate attributeName="stroke-dashoffset" values="20.911;20.911;0" keyTimes="0;0.915;1" dur="2.45s" fill="freeze" begin="0s;6f66.click" /></path><path d="M50.82,49.37c8.02-0.91,22.23-2.4,28.23-3.17c2.2-0.28,3.83,1.71,3.71,2.71c-0.41,3.66-2.4,12.11-3.4,18.22" stroke-dasharray="52.048" stroke-dashoffset="52.048"><animate attributeName="stroke-dashoffset" values="52.048" fill="freeze" begin="6f66.click" /><animate attributeName="stroke-dashoffset" values="52.048;52.048;0" keyTimes="0;0.825;1" dur="2.97s" fill="freeze" begin="0s;6f66.click" /></path><path d="M52.31,58.31c2.61-0.36,26.57-2.47,28.73-2.62" stroke-dasharray="28.851" stroke-dashoffset="28.851"><animate attributeName="stroke-dashoffset" values="28.851" fill="freeze" begin="6f66.click" /><animate attributeName="stroke-dashoffset" values="28.851;28.851;0" keyTimes="0;0.911;1" dur="3.259s" fill="freeze" begin="0s;6f66.click" /></path><path d="M53.63,67.6c5.78-0.39,17.74-1.58,25.72-2.21" stroke-dasharray="25.816" stroke-dashoffset="25.816"><animate attributeName="stroke-dashoffset" values="25.816" fill="freeze" begin="6f66.click" /><animate attributeName="stroke-dashoffset" values="25.816;25.816;0" keyTimes="0;0.927;1" dur="3.517s" fill="freeze" begin="0s;6f66.click" /></path><path d="M66.36,70.37c0.07,0.39,0.95,2.02,1.02,4.48c0.33,11.82-0.21,14.38-0.21,18.41c0,9.14-5.85,1.22-7.07,0.2" stroke-dasharray="35.051" stroke-dashoffset="35.051"><animate attributeName="stroke-dashoffset" values="35.051" fill="freeze" begin="6f66.click" /><animate attributeName="stroke-dashoffset" values="35.051;35.051;0" keyTimes="0;0.909;1" dur="3.868s" fill="freeze" begin="0s;6f66.click" /></path><path d="M49.46,76.18c0.04,0.38,0.08,0.99-0.07,1.54c-0.9,3.26-6.07,10.4-13.13,14.78" stroke-dasharray="21.637" stroke-dashoffset="21.637"><animate attributeName="stroke-dashoffset" values="21.637" fill="freeze" begin="6f66.click" /><animate attributeName="stroke-dashoffset" values="21.637;21.637;0" keyTimes="0;0.947;1" dur="4.084s" fill="freeze" begin="0s;6f66.click" /></path><path d="M79.71,76.12c4.78,2.67,12.35,10.98,13.54,15.13" stroke-dasharray="20.595" stroke-dashoffset="20.595"><animate attributeName="stroke-dashoffset" values="20.595" fill="freeze" begin="6f66.click" /><animate attributeName="stroke-dashoffset" values="20.595;20.595;0" keyTimes="0;0.952;1" dur="4.29s" fill="freeze" begin="0s;6f66.click" /></path></g></svg>