<svg xmlns="http://www.w3.org/2000/svg" width="109" height="109" viewBox="0 0 109 109" id="6f74"><g fill="none" stroke="#666" stroke-width="9" stroke-linecap="round" stroke-linejoin="round"><g><g><path d="M14.63,17.75c3.57,1.38,9.22,5.69,10.12,7.84" /><path d="M12,45c3.71,1.32,9.57,5.44,10.5,7.5" /><path d="M12.25,89.33c1.29,1.14,3.33,0.69,4.14-0.72c2.36-4.1,6.21-14.62,8.36-19.86" /></g><g><g><path d="M53.05,15.75c0.06,0.63,0.29,1.83-0.13,2.51C47.54,26.88,42.07,32.97,29,42.29" /><path d="M33,19.75c25.5,22.5,17,85.75,3.25,70" /><path d="M43.85,44c0.04,0.75,0.18,2.2-0.08,3.01c-3.38,10.32-6.02,18.24-15.02,28.79" /></g><g><g p6:partial xmlns:p6="http://kanjivg.tagaini.net"><g><path d="M56.49,31.5c0.87,0.28,2.45,0.32,3.33,0.28c9.86-0.45,10.92-1.56,20.65-1.75c1.45-0.03,2.31,0.13,3.04,0.27" /><path d="M70.52,13.62c0.08,0.29,1.15,1.49,1.23,3.3c0.39,8.7,0.21,26.3,0.21,29.26" /><path d="M52.44,47.87c1.24,0.26,3.15,0.48,4.26,0.39c6.19-0.54,31.35-3.61,38.54-3.73c1.85-0.03,2.96,0.18,3.89,0.38" /></g><path d="M90.19,18.32c0.1,1.12,0.07,2.62-0.55,4.01C81.5,40.75,73.25,55.5,53.42,67.85" /></g><path d="M80.74,49.75c2.27,1.1,5.87,4.53,6.44,6.25" /><g><path d="M65.84,62.15c0.44,1.34,0.88,2,0.88,3.79c0,1.78-0.29,30.17-0.29,31.07" /><path d="M66.52,63.26c1.57-0.14,21.45-2.45,22.88-2.62c1.19-0.14,1.96,1.57,1.87,2.41c-0.19,1.7-0.28,20.54-0.28,33.02" /><path d="M66.85,78.14C73.5,77.5,84,76.5,90.7,76.07" /><path d="M66.76,93.82c5.82,0,17.36-1.25,23.94-1.28" /></g></g></g></g></g><g fill="none" stroke="#000" stroke-width="5" stroke-linecap="round" stroke-linejoin="round"><path d="M14.63,17.75c3.57,1.38,9.22,5.69,10.12,7.84" stroke-dasharray="12.981" stroke-dashoffset="12.981"><animate attributeName="stroke-dashoffset" values="12.981;12.981;0" dur="0.13s" fill="freeze" begin="0s;6f74.click" /></path><path d="M12,45c3.71,1.32,9.57,5.44,10.5,7.5" stroke-dasharray="13.079" stroke-dashoffset="13.079"><animate attributeName="stroke-dashoffset" values="13.079" fill="freeze" begin="6f74.click" /><animate attributeName="stroke-dashoffset" values="13.079;13.079;0" keyTimes="0;0.498;1" dur="0.261s" fill="freeze" begin="0s;6f74.click" /></path><path d="M12.25,89.33c1.29,1.14,3.33,0.69,4.14-0.72c2.36-4.1,6.21-14.62,8.36-19.86" stroke-dasharray="26.348" stroke-dashoffset="26.348"><animate attributeName="stroke-dashoffset" values="26.348" fill="freeze" begin="6f74.click" /><animate attributeName="stroke-dashoffset" values="26.348;26.348;0" keyTimes="0;0.498;1" dur="0.524s" fill="freeze" begin="0s;6f74.click" /></path><path d="M53.05,15.75c0.06,0.63,0.29,1.83-0.13,2.51C47.54,26.88,42.07,32.97,29,42.29" stroke-dasharray="36.726" stroke-dashoffset="36.726"><animate attributeName="stroke-dashoffset" values="36.726" fill="freeze" begin="6f74.click" /><animate attributeName="stroke-dashoffset" values="36.726;36.726;0" keyTimes="0;0.588;1" dur="0.891s" fill="freeze" begin="0s;6f74.click" /></path><path d="M33,19.75c25.5,22.5,17,85.75,3.25,70" stroke-dasharray="84.924" stroke-dashoffset="84.924"><animate attributeName="stroke-dashoffset" values="84.924" fill="freeze" begin="6f74.click" /><animate attributeName="stroke-dashoffset" values="84.924;84.924;0" keyTimes="0;0.582;1" dur="1.53s" fill="freeze" begin="0s;6f74.click" /></path><path d="M43.85,44c0.04,0.75,0.18,2.2-0.08,3.01c-3.38,10.32-6.02,18.24-15.02,28.79" stroke-dasharray="35.768" stroke-dashoffset="35.768"><animate attributeName="stroke-dashoffset" values="35.768" fill="freeze" begin="6f74.click" /><animate attributeName="stroke-dashoffset" values="35.768;35.768;0" keyTimes="0;0.81;1" dur="1.888s" fill="freeze" begin="0s;6f74.click" /></path><path d="M56.49,31.5c0.87,0.28,2.45,0.32,3.33,0.28c9.86-0.45,10.92-1.56,20.65-1.75c1.45-0.03,2.31,0.13,3.04,0.27" stroke-dasharray="27.15" stroke-dashoffset="27.15"><animate attributeName="stroke-dashoffset" values="27.15" fill="freeze" begin="6f74.click" /><animate attributeName="stroke-dashoffset" values="27.15;27.15;0" keyTimes="0;0.874;1" dur="2.16s" fill="freeze" begin="0s;6f74.click" /></path><path d="M70.52,13.62c0.08,0.29,1.15,1.49,1.23,3.3c0.39,8.7,0.21,26.3,0.21,29.26" stroke-dasharray="32.83" stroke-dashoffset="32.83"><animate attributeName="stroke-dashoffset" values="32.83" fill="freeze" begin="6f74.click" /><animate attributeName="stroke-dashoffset" values="32.83;32.83;0" keyTimes="0;0.868;1" dur="2.488s" fill="freeze" begin="0s;6f74.click" /></path><path d="M52.44,47.87c1.24,0.26,3.15,0.48,4.26,0.39c6.19-0.54,31.35-3.61,38.54-3.73c1.85-0.03,2.96,0.18,3.89,0.38" stroke-dasharray="46.934" stroke-dashoffset="46.934"><animate attributeName="stroke-dashoffset" values="46.934" fill="freeze" begin="6f74.click" /><animate attributeName="stroke-dashoffset" values="46.934;46.934;0" keyTimes="0;0.841;1" dur="2.957s" fill="freeze" begin="0s;6f74.click" /></path><path d="M90.19,18.32c0.1,1.12,0.07,2.62-0.55,4.01C81.5,40.75,73.25,55.5,53.42,67.85" stroke-dasharray="63.317" stroke-dashoffset="63.317"><animate attributeName="stroke-dashoffset" values="63.317" fill="freeze" begin="6f74.click" /><animate attributeName="stroke-dashoffset" values="63.317;63.317;0" keyTimes="0;0.861;1" dur="3.433s" fill="freeze" begin="0s;6f74.click" /></path><path d="M80.74,49.75c2.27,1.1,5.87,4.53,6.44,6.25" stroke-dasharray="9.106" stroke-dashoffset="9.106"><animate attributeName="stroke-dashoffset" values="9.106" fill="freeze" begin="6f74.click" /><animate attributeName="stroke-dashoffset" values="9.106;9.106;0" keyTimes="0;0.974;1" dur="3.524s" fill="freeze" begin="0s;6f74.click" /></path><path d="M65.84,62.15c0.44,1.34,0.88,2,0.88,3.79c0,1.78-0.29,30.17-0.29,31.07" stroke-dasharray="34.992" stroke-dashoffset="34.992"><animate attributeName="stroke-dashoffset" values="34.992" fill="freeze" begin="6f74.click" /><animate attributeName="stroke-dashoffset" values="34.992;34.992;0" keyTimes="0;0.91;1" dur="3.874s" fill="freeze" begin="0s;6f74.click" /></path><path d="M66.52,63.26c1.57-0.14,21.45-2.45,22.88-2.62c1.19-0.14,1.96,1.57,1.87,2.41c-0.19,1.7-0.28,20.54-0.28,33.02" stroke-dasharray="59.454" stroke-dashoffset="59.454"><animate attributeName="stroke-dashoffset" values="59.454" fill="freeze" begin="6f74.click" /><animate attributeName="stroke-dashoffset" values="59.454;59.454;0" keyTimes="0;0.867;1" dur="4.469s" fill="freeze" begin="0s;6f74.click" /></path><path d="M66.85,78.14C73.5,77.5,84,76.5,90.7,76.07" stroke-dasharray="23.942" stroke-dashoffset="23.942"><animate attributeName="stroke-dashoffset" values="23.942" fill="freeze" begin="6f74.click" /><animate attributeName="stroke-dashoffset" values="23.942;23.942;0" keyTimes="0;0.949;1" dur="4.708s" fill="freeze" begin="0s;6f74.click" /></path><path d="M66.76,93.82c5.82,0,17.36-1.25,23.94-1.28" stroke-dasharray="23.979" stroke-dashoffset="23.979"><animate attributeName="stroke-dashoffset" values="23.979" fill="freeze" begin="6f74.click" /><animate attributeName="stroke-dashoffset" values="23.979;23.979;0" keyTimes="0;0.951;1" dur="4.948s" fill="freeze" begin="0s;6f74.click" /></path></g></svg>