<svg xmlns="http://www.w3.org/2000/svg" width="109" height="109" viewBox="0 0 109 109" id="6f7c"><g fill="none" stroke="#666" stroke-width="9" stroke-linecap="round" stroke-linejoin="round"><g><g><path d="M20.13,16.5c3.92,1.6,10.13,6.6,11.12,9.09" /><path d="M14.5,41.5c4.41,1.68,11.4,6.89,12.5,9.5" /><path d="M13.75,88.23c1.71,1.27,3.78,1.32,4.86-0.25c3.14-4.57,8.29-14.66,11.14-20.49" /></g><g><g><g><path d="M63.52,10.75c0.9,0.75,1.35,0.75,1.35,2.5c0,1.75,0,4.74,0,9.49" /><path d="M42.11,23.87c1.36,0.43,2.95,0.49,4.3,0.43c7.67-0.37,27.54-2.69,39.14-3c2.26-0.06,3.62,0.2,4.75,0.42" /></g><g><path d="M51.1,27.7c2.8,3.01,4.07,5.66,4.33,7.64" /><path d="M77.68,25.42c0.07,0.58-0.29,1.56-0.46,1.8c-1.72,2.53-3.98,6.58-5.07,8.06" /><path d="M36.22,39.38c1.68,0.5,3.65,0.59,5.33,0.5c12.2-0.63,36.2-2.63,49.33-3.44c2.8-0.17,4.49,0.24,5.89,0.49" /></g></g><g><path d="M44.7,47.6c0.3,0.37,0.81,1.63,0.97,2.09c1.35,3.84,3.07,15.04,3.91,22.2" /><path d="M46.6,49.12c10.44-0.97,28.34-3.11,36.13-3.92c2.86-0.3,4.79,2.28,4.64,3.33c-0.54,3.87-2.54,12.63-4.55,20.85" /><path d="M48.55,59.04c3.4-0.38,33.28-2.64,36.09-2.79" /><path d="M49.66,69.88c7.52-0.41,23.28-2.18,33.66-2.85" /><path d="M64.36,49.29c0.56,0.53,0.97,1.52,1,2.82c0.19,9.48,0.07,36.22,0.07,38.86" /><path d="M44.83,80.36c1.13,0.53,3.2,0.58,4.34,0.53c11.77-0.6,21.87-2.58,36.44-2.69c1.89-0.02,3.02,0.25,3.96,0.51" /><path d="M36.49,93.76c1.58,0.64,4.47,0.74,6.04,0.64c16.41-1.07,28.27-2.58,50.67-2.57c2.63,0,4.2,0.3,5.52,0.63" /></g></g></g></g><g fill="none" stroke="#000" stroke-width="5" stroke-linecap="round" stroke-linejoin="round"><g><g><path d="M20.13,16.5c3.92,1.6,10.13,6.6,11.12,9.09" stroke-dasharray="14.57" stroke-dashoffset="14.57"><animate id="0" attributeName="stroke-dashoffset" values="14.57;0" dur="0.15s" fill="freeze" begin="0s;6f7c.click" /></path><path d="M14.5,41.5c4.41,1.68,11.4,6.89,12.5,9.5" stroke-dasharray="15.92" stroke-dashoffset="15.92"><animate attributeName="stroke-dashoffset" values="15.92" fill="freeze" begin="6f7c.click" /><animate id="1" attributeName="stroke-dashoffset" values="15.92;0" dur="0.16s" fill="freeze" begin="0.end" /></path><path d="M13.75,88.23c1.71,1.27,3.78,1.32,4.86-0.25c3.14-4.57,8.29-14.66,11.14-20.49" stroke-dasharray="28.81" stroke-dashoffset="28.81"><animate attributeName="stroke-dashoffset" values="28.81" fill="freeze" begin="6f7c.click" /><animate id="2" attributeName="stroke-dashoffset" values="28.81;0" dur="0.29s" fill="freeze" begin="1.end" /></path></g><g><g><g><path d="M63.52,10.75c0.9,0.75,1.35,0.75,1.35,2.5c0,1.75,0,4.74,0,9.49" stroke-dasharray="12.52" stroke-dashoffset="12.52"><animate attributeName="stroke-dashoffset" values="12.52" fill="freeze" begin="6f7c.click" /><animate id="3" attributeName="stroke-dashoffset" values="12.52;0" dur="0.13s" fill="freeze" begin="2.end" /></path><path d="M42.11,23.87c1.36,0.43,2.95,0.49,4.3,0.43c7.67-0.37,27.54-2.69,39.14-3c2.26-0.06,3.62,0.2,4.75,0.42" stroke-dasharray="48.38" stroke-dashoffset="48.38"><animate attributeName="stroke-dashoffset" values="48.38" fill="freeze" begin="6f7c.click" /><animate id="4" attributeName="stroke-dashoffset" values="48.38;0" dur="0.48s" fill="freeze" begin="3.end" /></path></g><g><path d="M51.1,27.7c2.8,3.01,4.07,5.66,4.33,7.64" stroke-dasharray="8.91" stroke-dashoffset="8.91"><animate attributeName="stroke-dashoffset" values="8.91" fill="freeze" begin="6f7c.click" /><animate id="5" attributeName="stroke-dashoffset" values="8.91;0" dur="0.09s" fill="freeze" begin="4.end" /></path><path d="M77.68,25.42c0.07,0.58-0.29,1.56-0.46,1.8c-1.72,2.53-3.98,6.58-5.07,8.06" stroke-dasharray="11.41" stroke-dashoffset="11.41"><animate attributeName="stroke-dashoffset" values="11.41" fill="freeze" begin="6f7c.click" /><animate id="6" attributeName="stroke-dashoffset" values="11.41;0" dur="0.11s" fill="freeze" begin="5.end" /></path><path d="M36.22,39.38c1.68,0.5,3.65,0.59,5.33,0.5c12.2-0.63,36.2-2.63,49.33-3.44c2.8-0.17,4.49,0.24,5.89,0.49" stroke-dasharray="60.76" stroke-dashoffset="60.76"><animate attributeName="stroke-dashoffset" values="60.76" fill="freeze" begin="6f7c.click" /><animate id="7" attributeName="stroke-dashoffset" values="60.76;0" dur="0.46s" fill="freeze" begin="6.end" /></path></g></g><g><path d="M44.7,47.6c0.3,0.37,0.81,1.63,0.97,2.09c1.35,3.84,3.07,15.04,3.91,22.2" stroke-dasharray="24.88" stroke-dashoffset="24.88"><animate attributeName="stroke-dashoffset" values="24.88" fill="freeze" begin="6f7c.click" /><animate id="8" attributeName="stroke-dashoffset" values="24.88;0" dur="0.25s" fill="freeze" begin="7.end" /></path><path d="M46.6,49.12c10.44-0.97,28.34-3.11,36.13-3.92c2.86-0.3,4.79,2.28,4.64,3.33c-0.54,3.87-2.54,12.63-4.55,20.85" stroke-dasharray="63.99" stroke-dashoffset="63.99"><animate attributeName="stroke-dashoffset" values="63.99" fill="freeze" begin="6f7c.click" /><animate id="9" attributeName="stroke-dashoffset" values="63.99;0" dur="0.48s" fill="freeze" begin="8.end" /></path><path d="M48.55,59.04c3.4-0.38,33.28-2.64,36.09-2.79" stroke-dasharray="36.2" stroke-dashoffset="36.2"><animate attributeName="stroke-dashoffset" values="36.2" fill="freeze" begin="6f7c.click" /><animate id="10" attributeName="stroke-dashoffset" values="36.2;0" dur="0.36s" fill="freeze" begin="9.end" /></path><path d="M49.66,69.88c7.52-0.41,23.28-2.18,33.66-2.85" stroke-dasharray="33.78" stroke-dashoffset="33.78"><animate attributeName="stroke-dashoffset" values="33.78" fill="freeze" begin="6f7c.click" /><animate id="11" attributeName="stroke-dashoffset" values="33.78;0" dur="0.34s" fill="freeze" begin="10.end" /></path><path d="M64.36,49.29c0.56,0.53,0.97,1.52,1,2.82c0.19,9.48,0.07,36.22,0.07,38.86" stroke-dasharray="41.93" stroke-dashoffset="41.93"><animate attributeName="stroke-dashoffset" values="41.93" fill="freeze" begin="6f7c.click" /><animate id="12" attributeName="stroke-dashoffset" values="41.93;0" dur="0.42s" fill="freeze" begin="11.end" /></path><path d="M44.83,80.36c1.13,0.53,3.2,0.58,4.34,0.53c11.77-0.6,21.87-2.58,36.44-2.69c1.89-0.02,3.02,0.25,3.96,0.51" stroke-dasharray="44.97" stroke-dashoffset="44.97"><animate attributeName="stroke-dashoffset" values="44.97" fill="freeze" begin="6f7c.click" /><animate id="13" attributeName="stroke-dashoffset" values="44.97;0" dur="0.45s" fill="freeze" begin="12.end" /></path><path d="M36.49,93.76c1.58,0.64,4.47,0.74,6.04,0.64c16.41-1.07,28.27-2.58,50.67-2.57c2.63,0,4.2,0.3,5.52,0.63" stroke-dasharray="62.43" stroke-dashoffset="62.43"><animate attributeName="stroke-dashoffset" values="62.43" fill="freeze" begin="6f7c.click" /><animate id="14" attributeName="stroke-dashoffset" values="62.43;0" dur="0.47s" fill="freeze" begin="13.end" /></path></g></g></g></g></svg>