<svg xmlns="http://www.w3.org/2000/svg" width="109" height="109" viewBox="0 0 109 109" id="6f80"><g fill="none" stroke="#666" stroke-width="9" stroke-linecap="round" stroke-linejoin="round"><g><g><path d="M14.63,14.75c5.34,2,13.78,8.23,15.12,11.34" /><path d="M11.75,41c5.21,2.21,13.45,9.07,14.75,12.5" /><path d="M11.25,90.23c1.71,1.27,3.78,1.32,4.86-0.25c3.14-4.57,6.79-14.16,9.64-19.99" /></g><g><g><g><g><path d="M35.94,20.41c1.07,0.46,2.41,0.28,3.36,0.25c4.45-0.15,15.46-2.46,19.7-2.93c2.75-0.31,4.2,0.95,3.83,3.08c-1.08,6.2-2.33,14.95-6.15,22.35c-2.51,4.86-3.81,3.22-5.87,0.15" /><path d="M49.9,21.59c0.04,0.58,0.06,1.51-0.09,2.35C48.39,32.17,44,42.5,35.25,47.84" /></g><g><path d="M39.22,29.49c0.28,1.19-2.36,6.87-5.1,8.45" /></g></g><g><g><path d="M68.64,17.96c1.06,0.41,2.4,0.36,3.32,0.22c7.56-1.13,13.57-2.05,17.76-2.46c2.72-0.27,3.44,1.31,3.29,3.21c-0.4,5.01-2.76,15.08-5.57,21.59c-2.47,5.71-4.27,2.84-6.3,0.13" /><path d="M79.69,19.76c0.03,0.56,0.05,1.45-0.07,2.26c-1.11,7.91-4.13,15.93-11.38,22.97" /></g><g><path d="M71.23,26.95c0.3,1.36-2.49,7.8-5.36,9.61" /></g></g></g><g><g><g><path d="M47.01,51.91c0.84,0.39,1.35,1.74,1.52,2.52c0.17,0.77,0,27.84-0.17,32.68" /><path d="M48.6,68.99c2.9-0.49,6.14-1.21,9.91-1.62c0.94-0.1,1.17-0.13,1.76,0" /></g><path d="M 34.37,64.78 c 0.59,0.27 1.56,1.72 1.56,3.25 0,0.55 -0.12,19.894876 -0.12,25.684876" /><path d="M 27.174864,97.693418 c 1.043719,-0.04287 1.71801,-0.10659 2.600572,-0.64373 7.75,-3.5 19.576307,-10.319155 28.416307,-14.259155" /></g><g><g><path d="M78.95,51.19c0.84,0.39,1.35,1.74,1.52,2.51c0.17,0.77,0,33.28-0.17,38.12" /><path d="M80.96,68.35c3.43-0.36,8.62-1.09,11.99-1.45c0.84-0.09,1.05-0.12,1.57,0" /></g><path d="M67.22,64.26c0.96,0.44,1.54,1.99,1.73,2.87c0.19,0.88,0,20.02-0.19,25.54" /><path d="M55.25,93.09c0.62,0.19,2.29,0.64,3.95,0.57c8.95-0.38,23.18-2.22,34.56-2.22c1.66,0,4.55,0.38,5.5,0.57" /></g></g></g></g></g><g fill="none" stroke="#000" stroke-width="5" stroke-linecap="round" stroke-linejoin="round"><g><g><path d="M14.63,14.75c5.34,2,13.78,8.23,15.12,11.34" stroke-dasharray="19.16" stroke-dashoffset="19.16"><animate id="0" attributeName="stroke-dashoffset" values="19.16;0" dur="0.19s" fill="freeze" begin="0s;6f80.click" /></path><path d="M11.75,41c5.21,2.21,13.45,9.07,14.75,12.5" stroke-dasharray="19.61" stroke-dashoffset="19.61"><animate attributeName="stroke-dashoffset" values="19.61" fill="freeze" begin="6f80.click" /><animate id="1" attributeName="stroke-dashoffset" values="19.61;0" dur="0.2s" fill="freeze" begin="0.end" /></path><path d="M11.25,90.23c1.71,1.27,3.78,1.32,4.86-0.25c3.14-4.57,6.79-14.16,9.64-19.99" stroke-dasharray="27.69" stroke-dashoffset="27.69"><animate attributeName="stroke-dashoffset" values="27.69" fill="freeze" begin="6f80.click" /><animate id="2" attributeName="stroke-dashoffset" values="27.69;0" dur="0.28s" fill="freeze" begin="1.end" /></path></g><g><g><g><g><path d="M35.94,20.41c1.07,0.46,2.41,0.28,3.36,0.25c4.45-0.15,15.46-2.46,19.7-2.93c2.75-0.31,4.2,0.95,3.83,3.08c-1.08,6.2-2.33,14.95-6.15,22.35c-2.51,4.86-3.81,3.22-5.87,0.15" stroke-dasharray="61.23" stroke-dashoffset="61.23"><animate attributeName="stroke-dashoffset" values="61.23" fill="freeze" begin="6f80.click" /><animate id="3" attributeName="stroke-dashoffset" values="61.23;0" dur="0.46s" fill="freeze" begin="2.end" /></path><path d="M49.9,21.59c0.04,0.58,0.06,1.51-0.09,2.35C48.39,32.17,44,42.5,35.25,47.84" stroke-dasharray="31.17" stroke-dashoffset="31.17"><animate attributeName="stroke-dashoffset" values="31.17" fill="freeze" begin="6f80.click" /><animate id="4" attributeName="stroke-dashoffset" values="31.17;0" dur="0.31s" fill="freeze" begin="3.end" /></path></g><g><path d="M39.22,29.49c0.28,1.19-2.36,6.87-5.1,8.45" stroke-dasharray="10.14" stroke-dashoffset="10.14"><animate attributeName="stroke-dashoffset" values="10.14" fill="freeze" begin="6f80.click" /><animate id="5" attributeName="stroke-dashoffset" values="10.14;0" dur="0.1s" fill="freeze" begin="4.end" /></path></g></g><g><g><path d="M68.64,17.96c1.06,0.41,2.4,0.36,3.32,0.22c7.56-1.13,13.57-2.05,17.76-2.46c2.72-0.27,3.44,1.31,3.29,3.21c-0.4,5.01-2.76,15.08-5.57,21.59c-2.47,5.71-4.27,2.84-6.3,0.13" stroke-dasharray="58.56" stroke-dashoffset="58.56"><animate attributeName="stroke-dashoffset" values="58.56" fill="freeze" begin="6f80.click" /><animate id="6" attributeName="stroke-dashoffset" values="58.56;0" dur="0.59s" fill="freeze" begin="5.end" /></path><path d="M79.69,19.76c0.03,0.56,0.05,1.45-0.07,2.26c-1.11,7.91-4.13,15.93-11.38,22.97" stroke-dasharray="28.4" stroke-dashoffset="28.4"><animate attributeName="stroke-dashoffset" values="28.4" fill="freeze" begin="6f80.click" /><animate id="7" attributeName="stroke-dashoffset" values="28.4;0" dur="0.28s" fill="freeze" begin="6.end" /></path></g><g><path d="M71.23,26.95c0.3,1.36-2.49,7.8-5.36,9.61" stroke-dasharray="11.28" stroke-dashoffset="11.28"><animate attributeName="stroke-dashoffset" values="11.28" fill="freeze" begin="6f80.click" /><animate id="8" attributeName="stroke-dashoffset" values="11.28;0" dur="0.11s" fill="freeze" begin="7.end" /></path></g></g></g><g><g><g><path d="M47.01,51.91c0.84,0.39,1.35,1.74,1.52,2.52c0.17,0.77,0,27.84-0.17,32.68" stroke-dasharray="35.71" stroke-dashoffset="35.71"><animate attributeName="stroke-dashoffset" values="35.71" fill="freeze" begin="6f80.click" /><animate id="9" attributeName="stroke-dashoffset" values="35.71;0" dur="0.36s" fill="freeze" begin="8.end" /></path><path d="M48.6,68.99c2.9-0.49,6.14-1.21,9.91-1.62c0.94-0.1,1.17-0.13,1.76,0" stroke-dasharray="11.81" stroke-dashoffset="11.81"><animate attributeName="stroke-dashoffset" values="11.81" fill="freeze" begin="6f80.click" /><animate id="10" attributeName="stroke-dashoffset" values="11.81;0" dur="0.12s" fill="freeze" begin="9.end" /></path></g><path d="M 34.37,64.78 c 0.59,0.27 1.56,1.72 1.56,3.25 0,0.55 -0.12,19.894876 -0.12,25.684876" stroke-dasharray="29.43" stroke-dashoffset="29.43"><animate attributeName="stroke-dashoffset" values="29.43" fill="freeze" begin="6f80.click" /><animate id="11" attributeName="stroke-dashoffset" values="29.43;0" dur="0.29s" fill="freeze" begin="10.end" /></path><path d="M 27.174864,97.693418 c 1.043719,-0.04287 1.71801,-0.10659 2.600572,-0.64373 7.75,-3.5 19.576307,-10.319155 28.416307,-14.259155" stroke-dasharray="34.51" stroke-dashoffset="34.51"><animate attributeName="stroke-dashoffset" values="34.51" fill="freeze" begin="6f80.click" /><animate id="12" attributeName="stroke-dashoffset" values="34.51;0" dur="0.35s" fill="freeze" begin="11.end" /></path></g><g><g><path d="M78.95,51.19c0.84,0.39,1.35,1.74,1.52,2.51c0.17,0.77,0,33.28-0.17,38.12" stroke-dasharray="41.14" stroke-dashoffset="41.14"><animate attributeName="stroke-dashoffset" values="41.14" fill="freeze" begin="6f80.click" /><animate id="13" attributeName="stroke-dashoffset" values="41.14;0" dur="0.41s" fill="freeze" begin="12.end" /></path><path d="M80.96,68.35c3.43-0.36,8.62-1.09,11.99-1.45c0.84-0.09,1.05-0.12,1.57,0" stroke-dasharray="13.66" stroke-dashoffset="13.66"><animate attributeName="stroke-dashoffset" values="13.66" fill="freeze" begin="6f80.click" /><animate id="14" attributeName="stroke-dashoffset" values="13.66;0" dur="0.14s" fill="freeze" begin="13.end" /></path></g><path d="M67.22,64.26c0.96,0.44,1.54,1.99,1.73,2.87c0.19,0.88,0,20.02-0.19,25.54" stroke-dasharray="29" stroke-dashoffset="29"><animate attributeName="stroke-dashoffset" values="29" fill="freeze" begin="6f80.click" /><animate id="15" attributeName="stroke-dashoffset" values="29;0" dur="0.29s" fill="freeze" begin="14.end" /></path><path d="M55.25,93.09c0.62,0.19,2.29,0.64,3.95,0.57c8.95-0.38,23.18-2.22,34.56-2.22c1.66,0,4.55,0.38,5.5,0.57" stroke-dasharray="44.18" stroke-dashoffset="44.18"><animate attributeName="stroke-dashoffset" values="44.18" fill="freeze" begin="6f80.click" /><animate id="16" attributeName="stroke-dashoffset" values="44.18;0" dur="0.44s" fill="freeze" begin="15.end" /></path></g></g></g></g></g></svg>