<svg xmlns="http://www.w3.org/2000/svg" width="109" height="109" viewBox="0 0 109 109" id="6f8e"><g fill="none" stroke="#666" stroke-width="9" stroke-linecap="round" stroke-linejoin="round"><g><g><path d="M16.13,15.5c4.28,1.6,11.05,6.6,12.12,9.09" /><path d="M12,42.75c4.77,1.63,12.31,6.71,13.5,9.25" /><path d="M13.25,88.73c1.71,1.27,3.78,1.32,4.86-0.25c3.14-4.57,8.29-15.16,11.14-20.99" /></g><g><g><g p6:part="1" xmlns:p6="http://kanjivg.tagaini.net"><g><path d="M34.87,24.16c0.81,0.32,2.29,0.84,3.09,0.69c6.29-1.1,17.85-1.85,24.61-2.3c1.34-0.09,2.15,0.06,2.82,0.2" /><path d="M49.11,11.26c1.14,0.52,2.05,2.49,2.05,3.69c0,4.05,0.17,10.55,0.17,22.64" /><g p6:part="1"><path d="M37.4,38.03c0.58,0.21,1.64,0.12,2.23,0.11C47.5,38,53.88,37,61.83,35.88c0.96-0.14,1.55,0.02,2.04,0.12" /></g></g><g p6:part="2"><g p6:part="2"><g><path d="M36.91,47.42c0.25,0.28,0.52,0.51,0.63,0.86c0.88,2.78,2.44,10.94,3.05,15.92" /><path d="M38.49,48.9c6.24-1.16,19.29-3.22,22.51-3.61c1.18-0.14,1.88,1.45,1.72,2.29c-0.7,3.5-1.67,7.49-3.16,12.53" /><path d="M40.83,62.38c3.78-0.44,15.57-1.38,20.37-1.83" /></g></g></g></g><g p6:part="3" xmlns:p6="http://kanjivg.tagaini.net"><path d="M39.94,70.11c1.7,1.97,4.38,8.1,4.81,11.16" /><path d="M59.24,66.64c0.02,0.37,0.04,0.95-0.04,1.47c-0.41,3.11-2.76,9.93-5.98,14.1" /><path d="M33.4,88.5c0.62,1.52,2.11,2.09,4.19,1.29c7.37-2.81,17.69-7.58,27.19-11.05" /></g></g><g><g><path d="M89.82,16c0.05,0.46,0.2,1.25-0.11,1.85c-2.01,3.96-8.92,11.74-18.74,17.06" /></g><g><path d="M93.03,38.36c0.07,0.57,0.25,1.56-0.14,2.3c-2.69,5.03-12.79,15.9-24.69,22.01" /></g><g><path d="M95.29,62.5c0.1,0.77-0.06,2.52-0.64,3.54C90.83,72.8,78.64,85.16,60.32,95" /></g></g></g></g></g><g fill="none" stroke="#000" stroke-width="5" stroke-linecap="round" stroke-linejoin="round"><g><g><path d="M16.13,15.5c4.28,1.6,11.05,6.6,12.12,9.09" stroke-dasharray="15.36" stroke-dashoffset="15.36"><animate id="0" attributeName="stroke-dashoffset" values="15.36;0" dur="0.15s" fill="freeze" begin="0s;6f8e.click" /></path><path d="M12,42.75c4.77,1.63,12.31,6.71,13.5,9.25" stroke-dasharray="16.58" stroke-dashoffset="16.58"><animate attributeName="stroke-dashoffset" values="16.58" fill="freeze" begin="6f8e.click" /><animate id="1" attributeName="stroke-dashoffset" values="16.58;0" dur="0.17s" fill="freeze" begin="0.end" /></path><path d="M13.25,88.73c1.71,1.27,3.78,1.32,4.86-0.25c3.14-4.57,8.29-15.16,11.14-20.99" stroke-dasharray="29.25" stroke-dashoffset="29.25"><animate attributeName="stroke-dashoffset" values="29.25" fill="freeze" begin="6f8e.click" /><animate id="2" attributeName="stroke-dashoffset" values="29.25;0" dur="0.29s" fill="freeze" begin="1.end" /></path></g><g><g><g p6:part="1" xmlns:p6="http://kanjivg.tagaini.net"><g><path d="M34.87,24.16c0.81,0.32,2.29,0.84,3.09,0.69c6.29-1.1,17.85-1.85,24.61-2.3c1.34-0.09,2.15,0.06,2.82,0.2" stroke-dasharray="30.76" stroke-dashoffset="30.76"><animate attributeName="stroke-dashoffset" values="30.76" fill="freeze" begin="6f8e.click" /><animate id="3" attributeName="stroke-dashoffset" values="30.76;0" dur="0.31s" fill="freeze" begin="2.end" /></path><path d="M49.11,11.26c1.14,0.52,2.05,2.49,2.05,3.69c0,4.05,0.17,10.55,0.17,22.64" stroke-dasharray="27.03" stroke-dashoffset="27.03"><animate attributeName="stroke-dashoffset" values="27.03" fill="freeze" begin="6f8e.click" /><animate id="4" attributeName="stroke-dashoffset" values="27.03;0" dur="0.27s" fill="freeze" begin="3.end" /></path><g p6:part="1"><path d="M37.4,38.03c0.58,0.21,1.64,0.12,2.23,0.11C47.5,38,53.88,37,61.83,35.88c0.96-0.14,1.55,0.02,2.04,0.12" stroke-dasharray="26.63" stroke-dashoffset="26.63"><animate attributeName="stroke-dashoffset" values="26.63" fill="freeze" begin="6f8e.click" /><animate id="5" attributeName="stroke-dashoffset" values="26.63;0" dur="0.27s" fill="freeze" begin="4.end" /></path></g></g><g p6:part="2"><g p6:part="2"><g><path d="M36.91,47.42c0.25,0.28,0.52,0.51,0.63,0.86c0.88,2.78,2.44,10.94,3.05,15.92" stroke-dasharray="17.3" stroke-dashoffset="17.3"><animate attributeName="stroke-dashoffset" values="17.3" fill="freeze" begin="6f8e.click" /><animate id="6" attributeName="stroke-dashoffset" values="17.3;0" dur="0.17s" fill="freeze" begin="5.end" /></path><path d="M38.49,48.9c6.24-1.16,19.29-3.22,22.51-3.61c1.18-0.14,1.88,1.45,1.72,2.29c-0.7,3.5-1.67,7.49-3.16,12.53" stroke-dasharray="38.97" stroke-dashoffset="38.97"><animate attributeName="stroke-dashoffset" values="38.97" fill="freeze" begin="6f8e.click" /><animate id="7" attributeName="stroke-dashoffset" values="38.97;0" dur="0.39s" fill="freeze" begin="6.end" /></path><path d="M40.83,62.38c3.78-0.44,15.57-1.38,20.37-1.83" stroke-dasharray="20.45" stroke-dashoffset="20.45"><animate attributeName="stroke-dashoffset" values="20.45" fill="freeze" begin="6f8e.click" /><animate id="8" attributeName="stroke-dashoffset" values="20.45;0" dur="0.2s" fill="freeze" begin="7.end" /></path></g></g></g></g><g p6:part="3" xmlns:p6="http://kanjivg.tagaini.net"><path d="M39.94,70.11c1.7,1.97,4.38,8.1,4.81,11.16" stroke-dasharray="12.24" stroke-dashoffset="12.24"><animate attributeName="stroke-dashoffset" values="12.24" fill="freeze" begin="6f8e.click" /><animate id="9" attributeName="stroke-dashoffset" values="12.24;0" dur="0.12s" fill="freeze" begin="8.end" /></path><path d="M59.24,66.64c0.02,0.37,0.04,0.95-0.04,1.47c-0.41,3.11-2.76,9.93-5.98,14.1" stroke-dasharray="16.92" stroke-dashoffset="16.92"><animate attributeName="stroke-dashoffset" values="16.92" fill="freeze" begin="6f8e.click" /><animate id="10" attributeName="stroke-dashoffset" values="16.92;0" dur="0.17s" fill="freeze" begin="9.end" /></path><path d="M33.4,88.5c0.62,1.52,2.11,2.09,4.19,1.29c7.37-2.81,17.69-7.58,27.19-11.05" stroke-dasharray="34.29" stroke-dashoffset="34.29"><animate attributeName="stroke-dashoffset" values="34.29" fill="freeze" begin="6f8e.click" /><animate id="11" attributeName="stroke-dashoffset" values="34.29;0" dur="0.34s" fill="freeze" begin="10.end" /></path></g></g><g><g><path d="M89.82,16c0.05,0.46,0.2,1.25-0.11,1.85c-2.01,3.96-8.92,11.74-18.74,17.06" stroke-dasharray="27.52" stroke-dashoffset="27.52"><animate attributeName="stroke-dashoffset" values="27.52" fill="freeze" begin="6f8e.click" /><animate id="12" attributeName="stroke-dashoffset" values="27.52;0" dur="0.28s" fill="freeze" begin="11.end" /></path></g><g><path d="M93.03,38.36c0.07,0.57,0.25,1.56-0.14,2.3c-2.69,5.03-12.79,15.9-24.69,22.01" stroke-dasharray="35.78" stroke-dashoffset="35.78"><animate attributeName="stroke-dashoffset" values="35.78" fill="freeze" begin="6f8e.click" /><animate id="13" attributeName="stroke-dashoffset" values="35.78;0" dur="0.36s" fill="freeze" begin="12.end" /></path></g><g><path d="M95.29,62.5c0.1,0.77-0.06,2.52-0.64,3.54C90.83,72.8,78.64,85.16,60.32,95" stroke-dasharray="49.01" stroke-dashoffset="49.01"><animate attributeName="stroke-dashoffset" values="49.01" fill="freeze" begin="6f8e.click" /><animate id="14" attributeName="stroke-dashoffset" values="49.01;0" dur="0.49s" fill="freeze" begin="13.end" /></path></g></g></g></g></g></svg>