<svg xmlns="http://www.w3.org/2000/svg" width="109" height="109" viewBox="0 0 109 109" id="6f97"><g fill="none" stroke="#666" stroke-width="6" stroke-linecap="round" stroke-linejoin="round"><g><g><path d="M17.63,16.75c4.19,1.65,10.32,6.28,11.37,8.84" /><path d="M15.25,43.75c3.79,1.54,9.8,6.35,10.75,8.75" /><path d="M16.25,92.21c1.75,0,2.81-0.64,3.75-2.25c2.75-4.7,5.5-10.45,8-16.45" /></g><g><g><g><path d="M36.39,19.41c0.85,0.85,1.18,1.97,1.18,3.27c0,0.69,0.03,39.34,0.04,60.07c0,6.16,0.01,10.67,0.01,12.02" /><path d="M37.73,20.12c1.69-0.08,12.07-1.89,16.4-2.53c2.41-0.36,4.16,0.4,4.06,3.04c-0.13,3.46-0.5,11.73-0.75,17.38c-0.14,3.18-0.24,5.53-0.24,5.71" /><path d="M38.84,31.78c5.91-1.03,13.09-2.09,17.84-2.72" /><path d="M38.48,43.99c6.67-1.14,12.01-2.25,17.91-2.77" /></g><g><path d="M70.18,16.8c0.34,0.53,0.69,1.65,0.69,2.36c0,0.7-0.12,23,0,23.7" /><path d="M71.94,17.98c3.81-0.84,13.69-2.8,17.44-3.33c2.45-0.35,3.59,1.19,3.59,3.35c0,9-0.1,61.64-0.1,72.98c0,10.01-5.93,1.29-7.06,0.22" /><path d="M71.78,28.95c4.97-0.7,14.22-1.82,19.72-2.41" /><path d="M71.69,41.19c5.91-0.89,13.69-2.06,20.08-2.48" /></g></g><g><path d="M53.3,53.37c0.6,0.6,0.9,1.61,0.9,2.61c0,2.69,0,17.56,0,25.52c0,2.46,0,4.26,0,4.84" /><path d="M54.74,54.72c1.61-0.11,12.95-1.61,16.76-2.12c1.96-0.27,3.26,1.09,3.19,3.03c-0.19,5.39-0.12,28.78-0.12,29.47" /><path d="M55.31,68.53c4.94-0.78,12.69-1.9,18.26-2.21" /><path d="M55.49,84.26c5.26-0.63,12.89-1.51,17.87-1.96" /></g></g></g></g><g fill="none" stroke="#000" stroke-width="3" stroke-linecap="round" stroke-linejoin="round"><path d="M17.63,16.75c4.19,1.65,10.32,6.28,11.37,8.84" stroke-dasharray="14.62" stroke-dashoffset="14.62"><animate attributeName="stroke-dashoffset" values="14.62;14.62;0" dur="0.146s" fill="freeze" begin="0s;6f97.click" /></path><path d="M15.25,43.75c3.79,1.54,9.8,6.35,10.75,8.75" stroke-dasharray="14.059" stroke-dashoffset="14.059"><animate attributeName="stroke-dashoffset" values="14.059" fill="freeze" begin="6f97.click" /><animate attributeName="stroke-dashoffset" values="14.059;14.059;0" keyTimes="0;0.509;1" dur="0.287s" fill="freeze" begin="0s;6f97.click" /></path><path d="M16.25,92.21c1.75,0,2.81-0.64,3.75-2.25c2.75-4.7,5.5-10.45,8-16.45" stroke-dasharray="22.936" stroke-dashoffset="22.936"><animate attributeName="stroke-dashoffset" values="22.936" fill="freeze" begin="6f97.click" /><animate attributeName="stroke-dashoffset" values="22.936;22.936;0" keyTimes="0;0.556;1" dur="0.516s" fill="freeze" begin="0s;6f97.click" /></path><path d="M36.39,19.41c0.85,0.85,1.18,1.97,1.18,3.27c0,0.69,0.03,39.34,0.04,60.07c0,6.16,0.01,10.67,0.01,12.02" stroke-dasharray="75.664" stroke-dashoffset="75.664"><animate attributeName="stroke-dashoffset" values="75.664" fill="freeze" begin="6f97.click" /><animate attributeName="stroke-dashoffset" values="75.664;75.664;0" keyTimes="0;0.476;1" dur="1.085s" fill="freeze" begin="0s;6f97.click" /></path><path d="M37.73,20.12c1.69-0.08,12.07-1.89,16.4-2.53c2.41-0.36,4.16,0.4,4.06,3.04c-0.13,3.46-0.5,11.73-0.75,17.38c-0.14,3.18-0.24,5.53-0.24,5.71" stroke-dasharray="45.77" stroke-dashoffset="45.77"><animate attributeName="stroke-dashoffset" values="45.77" fill="freeze" begin="6f97.click" /><animate attributeName="stroke-dashoffset" values="45.77;45.77;0" keyTimes="0;0.703;1" dur="1.543s" fill="freeze" begin="0s;6f97.click" /></path><path d="M38.84,31.78c5.91-1.03,13.09-2.09,17.84-2.72" stroke-dasharray="18.048" stroke-dashoffset="18.048"><animate attributeName="stroke-dashoffset" values="18.048" fill="freeze" begin="6f97.click" /><animate attributeName="stroke-dashoffset" values="18.048;18.048;0" keyTimes="0;0.896;1" dur="1.723s" fill="freeze" begin="0s;6f97.click" /></path><path d="M38.48,43.99c6.67-1.14,12.01-2.25,17.91-2.77" stroke-dasharray="18.13" stroke-dashoffset="18.13"><animate attributeName="stroke-dashoffset" values="18.13" fill="freeze" begin="6f97.click" /><animate attributeName="stroke-dashoffset" values="18.13;18.13;0" keyTimes="0;0.905;1" dur="1.904s" fill="freeze" begin="0s;6f97.click" /></path><path d="M70.18,16.8c0.34,0.53,0.69,1.65,0.69,2.36c0,0.7-0.12,23,0,23.7" stroke-dasharray="26.184" stroke-dashoffset="26.184"><animate attributeName="stroke-dashoffset" values="26.184" fill="freeze" begin="6f97.click" /><animate attributeName="stroke-dashoffset" values="26.184;26.184;0" keyTimes="0;0.879;1" dur="2.166s" fill="freeze" begin="0s;6f97.click" /></path><path d="M71.94,17.98c3.81-0.84,13.69-2.8,17.44-3.33c2.45-0.35,3.59,1.19,3.59,3.35c0,9-0.1,61.64-0.1,72.98c0,10.01-5.93,1.29-7.06,0.22" stroke-dasharray="109.127" stroke-dashoffset="109.127"><animate attributeName="stroke-dashoffset" values="109.127" fill="freeze" begin="6f97.click" /><animate attributeName="stroke-dashoffset" values="109.127;109.127;0" keyTimes="0;0.725;1" dur="2.987s" fill="freeze" begin="0s;6f97.click" /></path><path d="M71.78,28.95c4.97-0.7,14.22-1.82,19.72-2.41" stroke-dasharray="19.868" stroke-dashoffset="19.868"><animate attributeName="stroke-dashoffset" values="19.868" fill="freeze" begin="6f97.click" /><animate attributeName="stroke-dashoffset" values="19.868;19.868;0" keyTimes="0;0.938;1" dur="3.186s" fill="freeze" begin="0s;6f97.click" /></path><path d="M71.69,41.19c5.91-0.89,13.69-2.06,20.08-2.48" stroke-dasharray="20.239" stroke-dashoffset="20.239"><animate attributeName="stroke-dashoffset" values="20.239" fill="freeze" begin="6f97.click" /><animate attributeName="stroke-dashoffset" values="20.239;20.239;0" keyTimes="0;0.94;1" dur="3.388s" fill="freeze" begin="0s;6f97.click" /></path><path d="M53.3,53.37c0.6,0.6,0.9,1.61,0.9,2.61c0,2.69,0,17.56,0,25.52c0,2.46,0,4.26,0,4.84" stroke-dasharray="33.189" stroke-dashoffset="33.189"><animate attributeName="stroke-dashoffset" values="33.189" fill="freeze" begin="6f97.click" /><animate attributeName="stroke-dashoffset" values="33.189;33.189;0" keyTimes="0;0.911;1" dur="3.72s" fill="freeze" begin="0s;6f97.click" /></path><path d="M54.74,54.72c1.61-0.11,12.95-1.61,16.76-2.12c1.96-0.27,3.26,1.09,3.19,3.03c-0.19,5.39-0.12,28.78-0.12,29.47" stroke-dasharray="51.472" stroke-dashoffset="51.472"><animate attributeName="stroke-dashoffset" values="51.472" fill="freeze" begin="6f97.click" /><animate attributeName="stroke-dashoffset" values="51.472;51.472;0" keyTimes="0;0.878;1" dur="4.235s" fill="freeze" begin="0s;6f97.click" /></path><path d="M55.31,68.53c4.94-0.78,12.69-1.9,18.26-2.21" stroke-dasharray="18.401" stroke-dashoffset="18.401"><animate attributeName="stroke-dashoffset" values="18.401" fill="freeze" begin="6f97.click" /><animate attributeName="stroke-dashoffset" values="18.401;18.401;0" keyTimes="0;0.958;1" dur="4.419s" fill="freeze" begin="0s;6f97.click" /></path><path d="M55.49,84.26c5.26-0.63,12.89-1.51,17.87-1.96" stroke-dasharray="17.979" stroke-dashoffset="17.979"><animate attributeName="stroke-dashoffset" values="17.979" fill="freeze" begin="6f97.click" /><animate attributeName="stroke-dashoffset" values="17.979;17.979;0" keyTimes="0;0.961;1" dur="4.599s" fill="freeze" begin="0s;6f97.click" /></path></g></svg>