<svg xmlns="http://www.w3.org/2000/svg" width="109" height="109" viewBox="0 0 109 109" id="6fc6"><g fill="none" stroke="#666" stroke-width="6" stroke-linecap="round" stroke-linejoin="round"><g><g><path d="M17.88,17c4.72,1.69,12.19,6.96,13.37,9.59" /><path d="M15,43.25c4.77,1.63,12.31,6.71,13.5,9.25" /><path d="M17.25,90.23c1.71,1.27,3.78,1.32,4.86-0.25c3.14-4.57,7.79-13.16,10.64-18.99" /></g><g><g><g><path d="M46.25,20.01c0.77,0.22,2.82,0.83,4.86,0.66c8.35-0.66,23.39-2.42,35.06-3.6c2.04-0.21,2.56-0.22,3.83,0" /><path d="M65.19,9.25c0.75,0.35,1.33,1.54,1.36,2.25c0.21,6.25,1,14.43,0.85,18.75" /></g><g><g><path d="M40.16,37.45c1.43,0.3,3.1,0.36,4.53,0.3c13.16-0.55,31.3-2.5,46.13-3.81c2.38-0.21,3.82,0.14,5.01,0.29" /></g><g><path d="M54.48,27.43c0.95,1.02,1.33,1.32,1.35,1.95c0.17,6.37,0.76,11.37,1.03,13.49" /></g><g><path d="M80.28,25.63c0.23,0.83,0.41,1.43,0.27,2.48c-0.55,4.14-1.05,8.39-1.78,12.7" /></g></g></g><g><g><path d="M48.55,47.72c0.41,0.79,1,1.37,1,2.42c0,1.05,0.19,28.02-0.3,32.42" /><path d="M50.23,49.53c2.31-0.13,31.89-3.22,34-3.37c1.75-0.13,3.19,1.09,3.19,3.16c0,2.33-0.52,30.16-0.52,30.92" /><path d="M49.6,59.81c6-0.93,32.47-2.86,37.25-3.03" /><path d="M49.79,69.47c6.51-0.56,28.94-2.33,37.09-2.77" /><path d="M49.49,80.01c8.19-1.22,29.66-2.19,37.38-2.99" /></g><g><path d="M56.21,84.97c0.29,1.03,0,2.42-1,3.23c-3.02,2.45-9.33,7.48-15.37,10.38" /><path d="M76.09,83.67c6.75,3.73,14.73,10.49,16.58,13.75" /></g></g></g></g></g><g fill="none" stroke="#000" stroke-width="3" stroke-linecap="round" stroke-linejoin="round"><path d="M17.88,17c4.72,1.69,12.19,6.96,13.37,9.59" stroke-dasharray="16.677" stroke-dashoffset="16.677"><animate attributeName="stroke-dashoffset" values="16.677;16.677;0" dur="0.167s" fill="freeze" begin="0s;6fc6.click" /></path><path d="M15,43.25c4.77,1.63,12.31,6.71,13.5,9.25" stroke-dasharray="16.582" stroke-dashoffset="16.582"><animate attributeName="stroke-dashoffset" values="16.582" fill="freeze" begin="6fc6.click" /><animate attributeName="stroke-dashoffset" values="16.582;16.582;0" keyTimes="0;0.502;1" dur="0.333s" fill="freeze" begin="0s;6fc6.click" /></path><path d="M17.25,90.23c1.71,1.27,3.78,1.32,4.86-0.25c3.14-4.57,7.79-13.16,10.64-18.99" stroke-dasharray="27.258" stroke-dashoffset="27.258"><animate attributeName="stroke-dashoffset" values="27.258" fill="freeze" begin="6fc6.click" /><animate attributeName="stroke-dashoffset" values="27.258;27.258;0" keyTimes="0;0.55;1" dur="0.606s" fill="freeze" begin="0s;6fc6.click" /></path><path d="M46.25,20.01c0.77,0.22,2.82,0.83,4.86,0.66c8.35-0.66,23.39-2.42,35.06-3.6c2.04-0.21,2.56-0.22,3.83,0" stroke-dasharray="44.025" stroke-dashoffset="44.025"><animate attributeName="stroke-dashoffset" values="44.025" fill="freeze" begin="6fc6.click" /><animate attributeName="stroke-dashoffset" values="44.025;44.025;0" keyTimes="0;0.579;1" dur="1.046s" fill="freeze" begin="0s;6fc6.click" /></path><path d="M65.19,9.25c0.75,0.35,1.33,1.54,1.36,2.25c0.21,6.25,1,14.43,0.85,18.75" stroke-dasharray="21.503" stroke-dashoffset="21.503"><animate attributeName="stroke-dashoffset" values="21.503" fill="freeze" begin="6fc6.click" /><animate attributeName="stroke-dashoffset" values="21.503;21.503;0" keyTimes="0;0.83;1" dur="1.261s" fill="freeze" begin="0s;6fc6.click" /></path><path d="M40.16,37.45c1.43,0.3,3.1,0.36,4.53,0.3c13.16-0.55,31.3-2.5,46.13-3.81c2.38-0.21,3.82,0.14,5.01,0.29" stroke-dasharray="55.877" stroke-dashoffset="55.877"><animate attributeName="stroke-dashoffset" values="55.877" fill="freeze" begin="6fc6.click" /><animate attributeName="stroke-dashoffset" values="55.877;55.877;0" keyTimes="0;0.693;1" dur="1.82s" fill="freeze" begin="0s;6fc6.click" /></path><path d="M54.48,27.43c0.95,1.02,1.33,1.32,1.35,1.95c0.17,6.37,0.76,11.37,1.03,13.49" stroke-dasharray="15.962" stroke-dashoffset="15.962"><animate attributeName="stroke-dashoffset" values="15.962" fill="freeze" begin="6fc6.click" /><animate attributeName="stroke-dashoffset" values="15.962;15.962;0" keyTimes="0;0.919;1" dur="1.98s" fill="freeze" begin="0s;6fc6.click" /></path><path d="M80.28,25.63c0.23,0.83,0.41,1.43,0.27,2.48c-0.55,4.14-1.05,8.39-1.78,12.7" stroke-dasharray="15.343" stroke-dashoffset="15.343"><animate attributeName="stroke-dashoffset" values="15.343" fill="freeze" begin="6fc6.click" /><animate attributeName="stroke-dashoffset" values="15.343;15.343;0" keyTimes="0;0.928;1" dur="2.133s" fill="freeze" begin="0s;6fc6.click" /></path><path d="M48.55,47.72c0.41,0.79,1,1.37,1,2.42c0,1.05,0.19,28.02-0.3,32.42" stroke-dasharray="35.086" stroke-dashoffset="35.086"><animate attributeName="stroke-dashoffset" values="35.086" fill="freeze" begin="6fc6.click" /><animate attributeName="stroke-dashoffset" values="35.086;35.086;0" keyTimes="0;0.859;1" dur="2.484s" fill="freeze" begin="0s;6fc6.click" /></path><path d="M50.23,49.53c2.31-0.13,31.89-3.22,34-3.37c1.75-0.13,3.19,1.09,3.19,3.16c0,2.33-0.52,30.16-0.52,30.92" stroke-dasharray="70.193" stroke-dashoffset="70.193"><animate attributeName="stroke-dashoffset" values="70.193" fill="freeze" begin="6fc6.click" /><animate attributeName="stroke-dashoffset" values="70.193;70.193;0" keyTimes="0;0.825;1" dur="3.012s" fill="freeze" begin="0s;6fc6.click" /></path><path d="M49.6,59.81c6-0.93,32.47-2.86,37.25-3.03" stroke-dasharray="37.38" stroke-dashoffset="37.38"><animate attributeName="stroke-dashoffset" values="37.38" fill="freeze" begin="6fc6.click" /><animate attributeName="stroke-dashoffset" values="37.38;37.38;0" keyTimes="0;0.89;1" dur="3.386s" fill="freeze" begin="0s;6fc6.click" /></path><path d="M49.79,69.47c6.51-0.56,28.94-2.33,37.09-2.77" stroke-dasharray="37.195" stroke-dashoffset="37.195"><animate attributeName="stroke-dashoffset" values="37.195" fill="freeze" begin="6fc6.click" /><animate attributeName="stroke-dashoffset" values="37.195;37.195;0" keyTimes="0;0.901;1" dur="3.758s" fill="freeze" begin="0s;6fc6.click" /></path><path d="M49.49,80.01c8.19-1.22,29.66-2.19,37.38-2.99" stroke-dasharray="37.506" stroke-dashoffset="37.506"><animate attributeName="stroke-dashoffset" values="37.506" fill="freeze" begin="6fc6.click" /><animate attributeName="stroke-dashoffset" values="37.506;37.506;0" keyTimes="0;0.909;1" dur="4.133s" fill="freeze" begin="0s;6fc6.click" /></path><path d="M56.21,84.97c0.29,1.03,0,2.42-1,3.23c-3.02,2.45-9.33,7.48-15.37,10.38" stroke-dasharray="22.157" stroke-dashoffset="22.157"><animate attributeName="stroke-dashoffset" values="22.157" fill="freeze" begin="6fc6.click" /><animate attributeName="stroke-dashoffset" values="22.157;22.157;0" keyTimes="0;0.949;1" dur="4.355s" fill="freeze" begin="0s;6fc6.click" /></path><path d="M76.09,83.67c6.75,3.73,14.73,10.49,16.58,13.75" stroke-dasharray="21.696" stroke-dashoffset="21.696"><animate attributeName="stroke-dashoffset" values="21.696" fill="freeze" begin="6fc6.click" /><animate attributeName="stroke-dashoffset" values="21.696;21.696;0" keyTimes="0;0.953;1" dur="4.572s" fill="freeze" begin="0s;6fc6.click" /></path></g></svg>