<svg xmlns="http://www.w3.org/2000/svg" width="109" height="109" viewBox="0 0 109 109" id="6ffe"><g fill="none" stroke="#666" stroke-width="9" stroke-linecap="round" stroke-linejoin="round"><g><g><path d="M16.13,14.25c3.92,1.56,10.13,6.41,11.12,8.84" /><path d="M14,38c4.24,1.85,10.94,7.62,12,10.5" /><path d="M13.75,89.45c2.5,1.05,4.01,0.23,5.01-1.82c2.92-5.97,5.34-12.76,7.99-20.37" /></g><g><g><path d="M60.76,8.58c0.84,0.82,1.5,1.77,1.5,4.47c0,5.25-0.02,7.29-0.02,11.7" /><path d="M62.27,16.27c5.58-0.77,13.09-1.77,18.74-2.38c1.86-0.2,3.01,0.18,3.95,0.37" /><path d="M42.25,25.68c0.5,1.32,0.72,3.48,0.69,5.04C42.25,62,38.11,77.93,27.5,91" /><path d="M43.34,27.24c0.95,0.19,2.65,0.42,4.2,0.28C59.25,26.5,79.65,23.5,89,23.34c9.86-0.17,2.09,6.16-0.37,8.28" /><g><g><path d="M49.15,36.6c0.95,0.54,3.29,0.69,4.25,0.54c9.5-1.55,14.05-2.31,24.34-3.62c1.58-0.2,2.54,0.26,3.33,0.53" /></g><path d="M62.15,28.68c0.52,0.34,1.2,1.67,1.2,2.14c0,3.76-0.1,6.89-0.1,8.57c0,4.99,2.87,4.61,10.28,4.61c2.76,0,9.46,0,11.83-0.67" /></g></g><g><g><path d="M51.75,53.04c0.26,0.3,0.26,0.5,0.4,0.87c1.15,3.03,2.18,12.91,2.86,18.48" /><path d="M52.97,53.49c9.12-0.31,24.95-1.98,31.76-2.27c2.5-0.11,3.46,0.53,3.21,3.14c-0.43,4.46-2.05,10.79-3.39,15.8" /><path d="M67.78,53.83c0.72,0.67,0.96,1.12,0.95,2.17c-0.04,4.48,0.05,12.88,0.05,14.07" /><path d="M54.87,61.61c2.97-0.15,28.14-1.87,30.59-1.87" /><path d="M56.02,71.37c7.09-0.81,22.16-2.03,28.61-2.27" /></g><g><path d="M47.26,80.86c0.23,1.83-2.33,9.89-4.2,12.94" /><path d="M53.22,77.88C59.75,88.75,67.5,96.5,86.19,97.22c6.06,0.23,6.31-2.47,1.83-5.63" /><path d="M67.64,78.3c1.29,3.48,3.46,8.43,4.26,3.52" /><path d="M85.02,77.83c4.77,1.66,8.35,3.17,12.23,8.32" /></g></g></g></g></g><g fill="none" stroke="#000" stroke-width="5" stroke-linecap="round" stroke-linejoin="round"><g><g><path d="M16.13,14.25c3.92,1.56,10.13,6.41,11.12,8.84" stroke-dasharray="14.4" stroke-dashoffset="14.4"><animate id="0" attributeName="stroke-dashoffset" values="14.4;0" dur="0.14s" fill="freeze" begin="0s;6ffe.click" /></path><path d="M14,38c4.24,1.85,10.94,7.62,12,10.5" stroke-dasharray="16.18" stroke-dashoffset="16.18"><animate attributeName="stroke-dashoffset" values="16.18" fill="freeze" begin="6ffe.click" /><animate id="1" attributeName="stroke-dashoffset" values="16.18;0" dur="0.16s" fill="freeze" begin="0.end" /></path><path d="M13.75,89.45c2.5,1.05,4.01,0.23,5.01-1.82c2.92-5.97,5.34-12.76,7.99-20.37" stroke-dasharray="27.96" stroke-dashoffset="27.96"><animate attributeName="stroke-dashoffset" values="27.96" fill="freeze" begin="6ffe.click" /><animate id="2" attributeName="stroke-dashoffset" values="27.96;0" dur="0.28s" fill="freeze" begin="1.end" /></path></g><g><g><path d="M60.76,8.58c0.84,0.82,1.5,1.77,1.5,4.47c0,5.25-0.02,7.29-0.02,11.7" stroke-dasharray="16.57" stroke-dashoffset="16.57"><animate attributeName="stroke-dashoffset" values="16.57" fill="freeze" begin="6ffe.click" /><animate id="3" attributeName="stroke-dashoffset" values="16.57;0" dur="0.17s" fill="freeze" begin="2.end" /></path><path d="M62.27,16.27c5.58-0.77,13.09-1.77,18.74-2.38c1.86-0.2,3.01,0.18,3.95,0.37" stroke-dasharray="22.88" stroke-dashoffset="22.88"><animate attributeName="stroke-dashoffset" values="22.88" fill="freeze" begin="6ffe.click" /><animate id="4" attributeName="stroke-dashoffset" values="22.88;0" dur="0.23s" fill="freeze" begin="3.end" /></path><path d="M42.25,25.68c0.5,1.32,0.72,3.48,0.69,5.04C42.25,62,38.11,77.93,27.5,91" stroke-dasharray="68.56" stroke-dashoffset="68.56"><animate attributeName="stroke-dashoffset" values="68.56" fill="freeze" begin="6ffe.click" /><animate id="5" attributeName="stroke-dashoffset" values="68.56;0" dur="0.52s" fill="freeze" begin="4.end" /></path><path d="M43.34,27.24c0.95,0.19,2.65,0.42,4.2,0.28C59.25,26.5,79.65,23.5,89,23.34c9.86-0.17,2.09,6.16-0.37,8.28" stroke-dasharray="60.06" stroke-dashoffset="60.06"><animate attributeName="stroke-dashoffset" values="60.06" fill="freeze" begin="6ffe.click" /><animate id="6" attributeName="stroke-dashoffset" values="60.06;0" dur="0.45s" fill="freeze" begin="5.end" /></path><g><g><path d="M49.15,36.6c0.95,0.54,3.29,0.69,4.25,0.54c9.5-1.55,14.05-2.31,24.34-3.62c1.58-0.2,2.54,0.26,3.33,0.53" stroke-dasharray="32.35" stroke-dashoffset="32.35"><animate attributeName="stroke-dashoffset" values="32.35" fill="freeze" begin="6ffe.click" /><animate id="7" attributeName="stroke-dashoffset" values="32.35;0" dur="0.32s" fill="freeze" begin="6.end" /></path></g><path d="M62.15,28.68c0.52,0.34,1.2,1.67,1.2,2.14c0,3.76-0.1,6.89-0.1,8.57c0,4.99,2.87,4.61,10.28,4.61c2.76,0,9.46,0,11.83-0.67" stroke-dasharray="36.12" stroke-dashoffset="36.12"><animate attributeName="stroke-dashoffset" values="36.12" fill="freeze" begin="6ffe.click" /><animate id="8" attributeName="stroke-dashoffset" values="36.12;0" dur="0.36s" fill="freeze" begin="7.end" /></path></g></g><g><g><path d="M51.75,53.04c0.26,0.3,0.26,0.5,0.4,0.87c1.15,3.03,2.18,12.91,2.86,18.48" stroke-dasharray="19.69" stroke-dashoffset="19.69"><animate attributeName="stroke-dashoffset" values="19.69" fill="freeze" begin="6ffe.click" /><animate id="9" attributeName="stroke-dashoffset" values="19.69;0" dur="0.2s" fill="freeze" begin="8.end" /></path><path d="M52.97,53.49c9.12-0.31,24.95-1.98,31.76-2.27c2.5-0.11,3.46,0.53,3.21,3.14c-0.43,4.46-2.05,10.79-3.39,15.8" stroke-dasharray="53.53" stroke-dashoffset="53.53"><animate attributeName="stroke-dashoffset" values="53.53" fill="freeze" begin="6ffe.click" /><animate id="10" attributeName="stroke-dashoffset" values="53.53;0" dur="0.54s" fill="freeze" begin="9.end" /></path><path d="M67.78,53.83c0.72,0.67,0.96,1.12,0.95,2.17c-0.04,4.48,0.05,12.88,0.05,14.07" stroke-dasharray="16.54" stroke-dashoffset="16.54"><animate attributeName="stroke-dashoffset" values="16.54" fill="freeze" begin="6ffe.click" /><animate id="11" attributeName="stroke-dashoffset" values="16.54;0" dur="0.17s" fill="freeze" begin="10.end" /></path><path d="M54.87,61.61c2.97-0.15,28.14-1.87,30.59-1.87" stroke-dasharray="30.65" stroke-dashoffset="30.65"><animate attributeName="stroke-dashoffset" values="30.65" fill="freeze" begin="6ffe.click" /><animate id="12" attributeName="stroke-dashoffset" values="30.65;0" dur="0.31s" fill="freeze" begin="11.end" /></path><path d="M56.02,71.37c7.09-0.81,22.16-2.03,28.61-2.27" stroke-dasharray="28.7" stroke-dashoffset="28.7"><animate attributeName="stroke-dashoffset" values="28.7" fill="freeze" begin="6ffe.click" /><animate id="13" attributeName="stroke-dashoffset" values="28.7;0" dur="0.29s" fill="freeze" begin="12.end" /></path></g><g><path d="M47.26,80.86c0.23,1.83-2.33,9.89-4.2,12.94" stroke-dasharray="13.7" stroke-dashoffset="13.7"><animate attributeName="stroke-dashoffset" values="13.7" fill="freeze" begin="6ffe.click" /><animate id="14" attributeName="stroke-dashoffset" values="13.7;0" dur="0.14s" fill="freeze" begin="13.end" /></path><path d="M53.22,77.88C59.75,88.75,67.5,96.5,86.19,97.22c6.06,0.23,6.31-2.47,1.83-5.63" stroke-dasharray="51.04" stroke-dashoffset="51.04"><animate attributeName="stroke-dashoffset" values="51.04" fill="freeze" begin="6ffe.click" /><animate id="15" attributeName="stroke-dashoffset" values="51.04;0" dur="0.51s" fill="freeze" begin="14.end" /></path><path d="M67.64,78.3c1.29,3.48,3.46,8.43,4.26,3.52" stroke-dasharray="9.06" stroke-dashoffset="9.06"><animate attributeName="stroke-dashoffset" values="9.06" fill="freeze" begin="6ffe.click" /><animate id="16" attributeName="stroke-dashoffset" values="9.06;0" dur="0.09s" fill="freeze" begin="15.end" /></path><path d="M85.02,77.83c4.77,1.66,8.35,3.17,12.23,8.32" stroke-dasharray="15.07" stroke-dashoffset="15.07"><animate attributeName="stroke-dashoffset" values="15.07" fill="freeze" begin="6ffe.click" /><animate id="17" attributeName="stroke-dashoffset" values="15.07;0" dur="0.15s" fill="freeze" begin="16.end" /></path></g></g></g></g></g></svg>