<svg xmlns="http://www.w3.org/2000/svg" width="109" height="109" viewBox="0 0 109 109" id="7026"><g fill="none" stroke="#666" stroke-width="9" stroke-linecap="round" stroke-linejoin="round"><g><g><path d="M18.38,14.75c3.84,1.65,9.91,6.78,10.87,9.34" /><path d="M13.75,43c3.79,1.32,9.8,5.44,10.75,7.5" /><path d="M16.25,89.21c1.5,1.31,3.31,1.36,4.25-0.25c2.75-4.7,5.5-10.45,8-16.45" /></g><g p4:partial xmlns:p4="http://kanjivg.tagaini.net"><g><path d="M37.91,21.72c0.58,0.22,3.65,0.27,4.23,0.22c4.16-0.35,13.12-1.69,20.28-2.87c0.95-0.16,2.55,0.1,3.03,0.21" /><path d="M51.83,24.04c0.05,0.45,0.1,1.16-0.1,1.81c-1.17,3.81-7.87,12.18-17.04,17.31" /><path d="M44.48,36.43C52.75,49,57,65.75,51.96,86.47c-2.74,11.29-7.84,3.86-8.42,2.9" /><path d="M47.39,44.67c0.03,0.37,0.06,0.96-0.06,1.49c-0.75,3.15-5.04,10.07-10.92,14.3" /><path d="M49.54,58.12c0.04,0.53,0.09,1.37-0.09,2.13c-1.08,4.49-7.28,14.34-15.76,20.37" /><path d="M61.72,38.96c0.03,0.34,0.05,0.87-0.05,1.35c-0.62,2.85-4.19,9.1-9.07,12.93" /><path d="M53.46,57.91c4.28,3.01,9.85,10.91,11.32,18.4" /></g><g><g p4:partial><g><path d="M67.19,30.46c0.8,0.15,2.27,0.29,3.06,0.15C75,29.75,80,29,84.55,28.12c1.3-0.25,2.13,0.07,2.79,0.15" /><path d="M76.38,14.12c0.08,0.28,1.04,1.45,1.12,3.23c0.36,8.5,0.19,24,0.19,26.89" /><path d="M63.47,45.51c0.88,0.35,2.23,0.52,3.04,0.52c4.99-0.02,23.71-3.69,28.84-3.85c1.32-0.04,2.12,0.25,2.78,0.51" /></g><path d="M92.79,20.57c0.08,0.99,0.44,2.82-0.16,3.99c-7.65,15.13-15.15,25.94-29.1,39.93" /></g><path d="M 81.505208,50.639792 c 1.375137,0.337282 4.160061,2.539577 4.930348,3.516931" /><g><path d="M71.89,60.92c0.23,0.82,0.46,1.22,0.46,2.31c0,1.08-0.08,29.43,0,30.52" /><path d="M72.73,61.56c1.29-0.14,15.37-2.1,16.55-1.96c1.22,0.15,2.12,1,2.04,1.81c-0.16,1.63-0.3,30.43-0.3,31.24" /><path d="M72.96,75.76c1.75,0,15.54-1.42,17.52-1.42" /><path d="M72.88,91.2c3.56-0.58,13.16-1.14,17.6-1.64" /></g></g></g></g></g><g fill="none" stroke="#000" stroke-width="5" stroke-linecap="round" stroke-linejoin="round"><g><g><path d="M18.38,14.75c3.84,1.65,9.91,6.78,10.87,9.34" stroke-dasharray="14.54" stroke-dashoffset="14.54"><animate id="0" attributeName="stroke-dashoffset" values="14.54;0" dur="0.15s" fill="freeze" begin="0s;7026.click" /></path><path d="M13.75,43c3.79,1.32,9.8,5.44,10.75,7.5" stroke-dasharray="13.28" stroke-dashoffset="13.28"><animate attributeName="stroke-dashoffset" values="13.28" fill="freeze" begin="7026.click" /><animate id="1" attributeName="stroke-dashoffset" values="13.28;0" dur="0.13s" fill="freeze" begin="0.end" /></path><path d="M16.25,89.21c1.5,1.31,3.31,1.36,4.25-0.25c2.75-4.7,5.5-10.45,8-16.45" stroke-dasharray="23.27" stroke-dashoffset="23.27"><animate attributeName="stroke-dashoffset" values="23.27" fill="freeze" begin="7026.click" /><animate id="2" attributeName="stroke-dashoffset" values="23.27;0" dur="0.23s" fill="freeze" begin="1.end" /></path></g><g p4:partial xmlns:p4="http://kanjivg.tagaini.net"><g><path d="M37.91,21.72c0.58,0.22,3.65,0.27,4.23,0.22c4.16-0.35,13.12-1.69,20.28-2.87c0.95-0.16,2.55,0.1,3.03,0.21" stroke-dasharray="27.78" stroke-dashoffset="27.78"><animate attributeName="stroke-dashoffset" values="27.78" fill="freeze" begin="7026.click" /><animate id="3" attributeName="stroke-dashoffset" values="27.78;0" dur="0.28s" fill="freeze" begin="2.end" /></path><path d="M51.83,24.04c0.05,0.45,0.1,1.16-0.1,1.81c-1.17,3.81-7.87,12.18-17.04,17.31" stroke-dasharray="26.51" stroke-dashoffset="26.51"><animate attributeName="stroke-dashoffset" values="26.51" fill="freeze" begin="7026.click" /><animate id="4" attributeName="stroke-dashoffset" values="26.51;0" dur="0.27s" fill="freeze" begin="3.end" /></path><path d="M44.48,36.43C52.75,49,57,65.75,51.96,86.47c-2.74,11.29-7.84,3.86-8.42,2.9" stroke-dasharray="65.63" stroke-dashoffset="65.63"><animate attributeName="stroke-dashoffset" values="65.63" fill="freeze" begin="7026.click" /><animate id="5" attributeName="stroke-dashoffset" values="65.63;0" dur="0.49s" fill="freeze" begin="4.end" /></path><path d="M47.39,44.67c0.03,0.37,0.06,0.96-0.06,1.49c-0.75,3.15-5.04,10.07-10.92,14.3" stroke-dasharray="19.76" stroke-dashoffset="19.76"><animate attributeName="stroke-dashoffset" values="19.76" fill="freeze" begin="7026.click" /><animate id="6" attributeName="stroke-dashoffset" values="19.76;0" dur="0.2s" fill="freeze" begin="5.end" /></path><path d="M49.54,58.12c0.04,0.53,0.09,1.37-0.09,2.13c-1.08,4.49-7.28,14.34-15.76,20.37" stroke-dasharray="28.28" stroke-dashoffset="28.28"><animate attributeName="stroke-dashoffset" values="28.28" fill="freeze" begin="7026.click" /><animate id="7" attributeName="stroke-dashoffset" values="28.28;0" dur="0.28s" fill="freeze" begin="6.end" /></path><path d="M61.72,38.96c0.03,0.34,0.05,0.87-0.05,1.35c-0.62,2.85-4.19,9.1-9.07,12.93" stroke-dasharray="17.37" stroke-dashoffset="17.37"><animate attributeName="stroke-dashoffset" values="17.37" fill="freeze" begin="7026.click" /><animate id="8" attributeName="stroke-dashoffset" values="17.37;0" dur="0.17s" fill="freeze" begin="7.end" /></path><path d="M53.46,57.91c4.28,3.01,9.85,10.91,11.32,18.4" stroke-dasharray="22.02" stroke-dashoffset="22.02"><animate attributeName="stroke-dashoffset" values="22.02" fill="freeze" begin="7026.click" /><animate id="9" attributeName="stroke-dashoffset" values="22.02;0" dur="0.22s" fill="freeze" begin="8.end" /></path></g><g><g p4:partial><g><path d="M67.19,30.46c0.8,0.15,2.27,0.29,3.06,0.15C75,29.75,80,29,84.55,28.12c1.3-0.25,2.13,0.07,2.79,0.15" stroke-dasharray="20.41" stroke-dashoffset="20.41"><animate attributeName="stroke-dashoffset" values="20.41" fill="freeze" begin="7026.click" /><animate id="10" attributeName="stroke-dashoffset" values="20.41;0" dur="0.2s" fill="freeze" begin="9.end" /></path><path d="M76.38,14.12c0.08,0.28,1.04,1.45,1.12,3.23c0.36,8.5,0.19,24,0.19,26.89" stroke-dasharray="30.35" stroke-dashoffset="30.35"><animate attributeName="stroke-dashoffset" values="30.35" fill="freeze" begin="7026.click" /><animate id="11" attributeName="stroke-dashoffset" values="30.35;0" dur="0.3s" fill="freeze" begin="10.end" /></path><path d="M63.47,45.51c0.88,0.35,2.23,0.52,3.04,0.52c4.99-0.02,23.71-3.69,28.84-3.85c1.32-0.04,2.12,0.25,2.78,0.51" stroke-dasharray="35.06" stroke-dashoffset="35.06"><animate attributeName="stroke-dashoffset" values="35.06" fill="freeze" begin="7026.click" /><animate id="12" attributeName="stroke-dashoffset" values="35.06;0" dur="0.35s" fill="freeze" begin="11.end" /></path></g><path d="M92.79,20.57c0.08,0.99,0.44,2.82-0.16,3.99c-7.65,15.13-15.15,25.94-29.1,39.93" stroke-dasharray="53.7" stroke-dashoffset="53.7"><animate attributeName="stroke-dashoffset" values="53.7" fill="freeze" begin="7026.click" /><animate id="13" attributeName="stroke-dashoffset" values="53.7;0" dur="0.54s" fill="freeze" begin="12.end" /></path></g><path d="M 81.505208,50.639792 c 1.375137,0.337282 4.160061,2.539577 4.930348,3.516931" stroke-dasharray="6.11" stroke-dashoffset="6.11"><animate attributeName="stroke-dashoffset" values="6.11" fill="freeze" begin="7026.click" /><animate id="14" attributeName="stroke-dashoffset" values="6.11;0" dur="0.06s" fill="freeze" begin="13.end" /></path><g><path d="M71.89,60.92c0.23,0.82,0.46,1.22,0.46,2.31c0,1.08-0.08,29.43,0,30.52" stroke-dasharray="32.89" stroke-dashoffset="32.89"><animate attributeName="stroke-dashoffset" values="32.89" fill="freeze" begin="7026.click" /><animate id="15" attributeName="stroke-dashoffset" values="32.89;0" dur="0.33s" fill="freeze" begin="14.end" /></path><path d="M72.73,61.56c1.29-0.14,15.37-2.1,16.55-1.96c1.22,0.15,2.12,1,2.04,1.81c-0.16,1.63-0.3,30.43-0.3,31.24" stroke-dasharray="50.9" stroke-dashoffset="50.9"><animate attributeName="stroke-dashoffset" values="50.9" fill="freeze" begin="7026.click" /><animate id="16" attributeName="stroke-dashoffset" values="50.9;0" dur="0.51s" fill="freeze" begin="15.end" /></path><path d="M72.96,75.76c1.75,0,15.54-1.42,17.52-1.42" stroke-dasharray="17.58" stroke-dashoffset="17.58"><animate attributeName="stroke-dashoffset" values="17.58" fill="freeze" begin="7026.click" /><animate id="17" attributeName="stroke-dashoffset" values="17.58;0" dur="0.18s" fill="freeze" begin="16.end" /></path><path d="M72.88,91.2c3.56-0.58,13.16-1.14,17.6-1.64" stroke-dasharray="17.68" stroke-dashoffset="17.68"><animate attributeName="stroke-dashoffset" values="17.68" fill="freeze" begin="7026.click" /><animate id="18" attributeName="stroke-dashoffset" values="17.68;0" dur="0.18s" fill="freeze" begin="17.end" /></path></g></g></g></g></g></svg>