<svg xmlns="http://www.w3.org/2000/svg" width="109" height="109" viewBox="0 0 109 109" id="70ae"><g fill="none" stroke="#666" stroke-width="9" stroke-linecap="round" stroke-linejoin="round"><g><g><path d="M12.24,37.25c2.69,3.72,6.61,14.28,7.34,18" /><path d="M41.58,30.25c0.71,0.87,0.54,2.53-0.11,3.88c-0.64,1.35-7.27,11.46-10.49,14.62" /><path d="M26.75,14.25c0.76,0.78,1.52,1.83,1.53,3.14C28.5,71.2,24.5,81.92,12,95.5" /><path d="M29.25,67c4.95,3,11.2,12.5,12.5,16.75" /></g><g><g><g><path d="M59.12,12.5c0.04,0.78,0.23,2.07-0.09,3.12c-2.1,6.88-7.82,19.81-15.67,29.86" /></g><path d="M57.49,27.68c0.98,0.61,2.35,0.82,3.92,0.41s22.59-3.28,26.49-3.64c1.85-0.17,3.87,1.12,3.87,3.41c-0.02,8.64-3.02,27.14-7.6,40.21c-1.44,4.11-4.96,3.03-7.27,0.48" /></g><g><g><path d="M51.03,43.85c1.28,0.81,2.37,0.81,4.25,0.54c3.81-0.54,16.14-2.3,17.3-2.41c1.54-0.13,3.17,1.05,2.2,2.97c-1.03,2.05-1.53,6.3-2.62,12.53" /><path d="M54.74,60.85c4.12-0.45,14.07-1.79,19.93-2.18" /><path d="M53.52,46.02c0.48,0.98,0.52,1.39,0.51,3.09C54,54.54,54.17,74.86,54.17,79.6c0,12.4,3.08,14.58,21.57,14.58c19.26,0,21.4-1.94,21.4-13.39" /></g></g></g></g></g><g fill="none" stroke="#000" stroke-width="5" stroke-linecap="round" stroke-linejoin="round"><g><g><path d="M12.24,37.25c2.69,3.72,6.61,14.28,7.34,18" stroke-dasharray="19.52" stroke-dashoffset="19.52"><animate id="0" attributeName="stroke-dashoffset" values="19.52;0" dur="0.2s" fill="freeze" begin="0s;70ae.click" /></path><path d="M41.58,30.25c0.71,0.87,0.54,2.53-0.11,3.88c-0.64,1.35-7.27,11.46-10.49,14.62" stroke-dasharray="22.09" stroke-dashoffset="22.09"><animate attributeName="stroke-dashoffset" values="22.09" fill="freeze" begin="70ae.click" /><animate id="1" attributeName="stroke-dashoffset" values="22.09;0" dur="0.22s" fill="freeze" begin="0.end" /></path><path d="M26.75,14.25c0.76,0.78,1.52,1.83,1.53,3.14C28.5,71.2,24.5,81.92,12,95.5" stroke-dasharray="85.53" stroke-dashoffset="85.53"><animate attributeName="stroke-dashoffset" values="85.53" fill="freeze" begin="70ae.click" /><animate id="2" attributeName="stroke-dashoffset" values="85.53;0" dur="0.64s" fill="freeze" begin="1.end" /></path><path d="M29.25,67c4.95,3,11.2,12.5,12.5,16.75" stroke-dasharray="21.18" stroke-dashoffset="21.18"><animate attributeName="stroke-dashoffset" values="21.18" fill="freeze" begin="70ae.click" /><animate id="3" attributeName="stroke-dashoffset" values="21.18;0" dur="0.21s" fill="freeze" begin="2.end" /></path></g><g><g><g><path d="M59.12,12.5c0.04,0.78,0.23,2.07-0.09,3.12c-2.1,6.88-7.82,19.81-15.67,29.86" stroke-dasharray="37.02" stroke-dashoffset="37.02"><animate attributeName="stroke-dashoffset" values="37.02" fill="freeze" begin="70ae.click" /><animate id="4" attributeName="stroke-dashoffset" values="37.02;0" dur="0.37s" fill="freeze" begin="3.end" /></path></g><path d="M57.49,27.68c0.98,0.61,2.35,0.82,3.92,0.41s22.59-3.28,26.49-3.64c1.85-0.17,3.87,1.12,3.87,3.41c-0.02,8.64-3.02,27.14-7.6,40.21c-1.44,4.11-4.96,3.03-7.27,0.48" stroke-dasharray="86.98" stroke-dashoffset="86.98"><animate attributeName="stroke-dashoffset" values="86.98" fill="freeze" begin="70ae.click" /><animate id="5" attributeName="stroke-dashoffset" values="86.98;0" dur="0.65s" fill="freeze" begin="4.end" /></path></g><g><g><path d="M51.03,43.85c1.28,0.81,2.37,0.81,4.25,0.54c3.81-0.54,16.14-2.3,17.3-2.41c1.54-0.13,3.17,1.05,2.2,2.97c-1.03,2.05-1.53,6.3-2.62,12.53" stroke-dasharray="39.35" stroke-dashoffset="39.35"><animate attributeName="stroke-dashoffset" values="39.35" fill="freeze" begin="70ae.click" /><animate id="6" attributeName="stroke-dashoffset" values="39.35;0" dur="0.39s" fill="freeze" begin="5.end" /></path><path d="M54.74,60.85c4.12-0.45,14.07-1.79,19.93-2.18" stroke-dasharray="20.05" stroke-dashoffset="20.05"><animate attributeName="stroke-dashoffset" values="20.05" fill="freeze" begin="70ae.click" /><animate id="7" attributeName="stroke-dashoffset" values="20.05;0" dur="0.2s" fill="freeze" begin="6.end" /></path><path d="M53.52,46.02c0.48,0.98,0.52,1.39,0.51,3.09C54,54.54,54.17,74.86,54.17,79.6c0,12.4,3.08,14.58,21.57,14.58c19.26,0,21.4-1.94,21.4-13.39" stroke-dasharray="95.2" stroke-dashoffset="95.2"><animate attributeName="stroke-dashoffset" values="95.2" fill="freeze" begin="70ae.click" /><animate id="8" attributeName="stroke-dashoffset" values="95.2;0" dur="0.72s" fill="freeze" begin="7.end" /></path></g></g></g></g></g></svg>