<svg xmlns="http://www.w3.org/2000/svg" width="109" height="109" viewBox="0 0 109 109" id="70b8"><g fill="none" stroke="#666" stroke-width="9" stroke-linecap="round" stroke-linejoin="round"><g><g><path d="M11.99,38c2.78,3.88,6.83,14.87,7.59,18.75" /><path d="M43.08,28.25c0.71,0.84,0.54,2.45-0.11,3.75c-0.64,1.3-6.77,10.97-9.99,14" /><path d="M27.87,15.75c0.71,0.76,1.41,1.77,1.41,3.03c0.2,52-2.28,62.72-15.03,75.47" /><path d="M31,68c4.65,2.91,10.53,12.13,11.75,16.25" /></g><g><g><path d="M58.73,14c0.06,0.89,0.27,2.33-0.11,3.57c-2.46,8.02-9.04,22.58-19.57,34.18" /></g><path d="M56.36,31.29c0.99,0.25,2.79,0.29,3.78,0.25c13-0.53,22.09-3.31,31.66-3.86c1.81-0.1,3,0.03,4.41,0.29" /><path d="M63.16,32.96c0.85,0.48,1.36,2.17,1.53,3.13c0.17,0.96,0,54.14-0.17,60.16" /><path d="M65.07,49.34c6.87-0.65,14.16-0.83,21.93-1.48c1.83-0.15,2.51-0.21,4.47,0.12" /><path d="M64.99,66.04c5.34-0.39,14.57-1.26,26.8-2.09c1.1-0.07,3.9,0.08,4.45,0.15" /></g></g></g><g fill="none" stroke="#000" stroke-width="5" stroke-linecap="round" stroke-linejoin="round"><path d="M11.99,38c2.78,3.88,6.83,14.87,7.59,18.75" stroke-dasharray="20.308" stroke-dashoffset="20.308"><animate attributeName="stroke-dashoffset" values="20.308;20.308;0" dur="0.203s" fill="freeze" begin="0s;70b8.click" /></path><path d="M43.08,28.25c0.71,0.84,0.54,2.45-0.11,3.75c-0.64,1.3-6.77,10.97-9.99,14" stroke-dasharray="21.179" stroke-dashoffset="21.179"><animate attributeName="stroke-dashoffset" values="21.179" fill="freeze" begin="70b8.click" /><animate attributeName="stroke-dashoffset" values="21.179;21.179;0" keyTimes="0;0.489;1" dur="0.415s" fill="freeze" begin="0s;70b8.click" /></path><path d="M27.87,15.75c0.71,0.76,1.41,1.77,1.41,3.03c0.2,52-2.28,62.72-15.03,75.47" stroke-dasharray="82.609" stroke-dashoffset="82.609"><animate attributeName="stroke-dashoffset" values="82.609" fill="freeze" begin="70b8.click" /><animate attributeName="stroke-dashoffset" values="82.609;82.609;0" keyTimes="0;0.401;1" dur="1.036s" fill="freeze" begin="0s;70b8.click" /></path><path d="M31,68c4.65,2.91,10.53,12.13,11.75,16.25" stroke-dasharray="20.318" stroke-dashoffset="20.318"><animate attributeName="stroke-dashoffset" values="20.318" fill="freeze" begin="70b8.click" /><animate attributeName="stroke-dashoffset" values="20.318;20.318;0" keyTimes="0;0.836;1" dur="1.239s" fill="freeze" begin="0s;70b8.click" /></path><path d="M58.73,14c0.06,0.89,0.27,2.33-0.11,3.57c-2.46,8.02-9.04,22.58-19.57,34.18" stroke-dasharray="43.26" stroke-dashoffset="43.26"><animate attributeName="stroke-dashoffset" values="43.26" fill="freeze" begin="70b8.click" /><animate attributeName="stroke-dashoffset" values="43.26;43.26;0" keyTimes="0;0.741;1" dur="1.672s" fill="freeze" begin="0s;70b8.click" /></path><path d="M56.36,31.29c0.99,0.25,2.79,0.29,3.78,0.25c13-0.53,22.09-3.31,31.66-3.86c1.81-0.1,3,0.03,4.41,0.29" stroke-dasharray="40.145" stroke-dashoffset="40.145"><animate attributeName="stroke-dashoffset" values="40.145" fill="freeze" begin="70b8.click" /><animate attributeName="stroke-dashoffset" values="40.145;40.145;0" keyTimes="0;0.807;1" dur="2.073s" fill="freeze" begin="0s;70b8.click" /></path><path d="M63.16,32.96c0.85,0.48,1.36,2.17,1.53,3.13c0.17,0.96,0,54.14-0.17,60.16" stroke-dasharray="63.733" stroke-dashoffset="63.733"><animate attributeName="stroke-dashoffset" values="63.733" fill="freeze" begin="70b8.click" /><animate attributeName="stroke-dashoffset" values="63.733;63.733;0" keyTimes="0;0.812;1" dur="2.552s" fill="freeze" begin="0s;70b8.click" /></path><path d="M65.07,49.34c6.87-0.65,14.16-0.83,21.93-1.48c1.83-0.15,2.51-0.21,4.47,0.12" stroke-dasharray="26.471" stroke-dashoffset="26.471"><animate attributeName="stroke-dashoffset" values="26.471" fill="freeze" begin="70b8.click" /><animate attributeName="stroke-dashoffset" values="26.471;26.471;0" keyTimes="0;0.906;1" dur="2.817s" fill="freeze" begin="0s;70b8.click" /></path><path d="M64.99,66.04c5.34-0.39,14.57-1.26,26.8-2.09c1.1-0.07,3.9,0.08,4.45,0.15" stroke-dasharray="31.338" stroke-dashoffset="31.338"><animate attributeName="stroke-dashoffset" values="31.338" fill="freeze" begin="70b8.click" /><animate attributeName="stroke-dashoffset" values="31.338;31.338;0" keyTimes="0;0.9;1" dur="3.13s" fill="freeze" begin="0s;70b8.click" /></path></g></svg>