<svg xmlns="http://www.w3.org/2000/svg" width="109" height="109" viewBox="0 0 109 109" id="70fd"><g fill="none" stroke="#666" stroke-width="9" stroke-linecap="round" stroke-linejoin="round"><g><g><path d="M11.74,37.25c2.88,3.72,7.06,14.28,7.84,18" /><path d="M41.53,30.25c0.76,0.77,0.68,2.33-0.08,3.47c-1.7,2.53-7.27,11.5-10.72,14.28" /><path d="M27.25,14.25c0.76,0.75,1.02,2.25,1.03,3.5C28.5,69.25,24.5,82.5,12,95.5" /><path d="M28.75,67c4.55,3,10.3,12.5,11.5,16.75" /></g><g><g><path d="M59.58,10.25c0.04,0.58,0.07,1.51-0.07,2.34c-0.82,4.94-5.54,15.78-12.01,22.42" /><path d="M60.76,18.99c0.43,0.05,1.54,0.51,2.5,0.39c2.88-0.34,9.69-1.73,13.81-2.8c2.83-0.73,3.63,0.83,2.91,2.83c-3.96,10.91-22.3,31.73-39.95,37.34" /><path d="M54.03,28.82c5.24,3.7,29.01,17.77,36.07,21.16c2.11,1.01,3.81,1.5,5.87,1.8" /></g><g><g><path d="M53.3,57.15c0.81,0.37,2.29,0.41,3.1,0.37c6.35-0.27,15.6-1.27,23.4-2.26c1.34-0.17,2.16,0.18,2.83,0.36" /></g><g><g><path d="M50.3,68.41c1.24,0.37,3.52,0.46,4.75,0.37C69.4,67.75,71.32,67,83.29,66c2.05-0.17,3.31,0.18,4.34,0.37" /></g><g><path d="M45.8,79.75c1.35,0.62,3.83,0.74,5.17,0.62c12.27-1.12,28.77-2.62,39.42-2.95c2.25-0.07,3.6,0.29,4.72,0.61" /></g></g></g><g><path d="M67.08,47.5c0.67,0.39,1.71,2.25,1.71,3.74c0,8.26,0.28,38.01,0.28,48.61" /></g></g></g></g><g fill="none" stroke="#000" stroke-width="5" stroke-linecap="round" stroke-linejoin="round"><g><g><path d="M11.74,37.25c2.88,3.72,7.06,14.28,7.84,18" stroke-dasharray="19.72" stroke-dashoffset="19.72"><animate attributeName="stroke-dashoffset" values="19.72;19.72;0" dur="0.197s" fill="freeze" begin="0s;70fd.click" /></path><path d="M41.53,30.25c0.76,0.77,0.68,2.33-0.08,3.47c-1.7,2.53-7.27,11.5-10.72,14.28" stroke-dasharray="21.63" stroke-dashoffset="21.63"><animate attributeName="stroke-dashoffset" values="21.63" fill="freeze" begin="70fd.click" /><animate attributeName="stroke-dashoffset" values="21.63;21.63;0" keyTimes="0;0.477;1" dur="0.413s" fill="freeze" begin="0s;70fd.click" /></path><path d="M27.25,14.25c0.76,0.75,1.02,2.25,1.03,3.5C28.5,69.25,24.5,82.5,12,95.5" stroke-dasharray="85.289" stroke-dashoffset="85.289"><animate attributeName="stroke-dashoffset" values="85.289" fill="freeze" begin="70fd.click" /><animate attributeName="stroke-dashoffset" values="85.289;85.289;0" keyTimes="0;0.392;1" dur="1.054s" fill="freeze" begin="0s;70fd.click" /></path><path d="M28.75,67c4.55,3,10.3,12.5,11.5,16.75" stroke-dasharray="20.577" stroke-dashoffset="20.577"><animate attributeName="stroke-dashoffset" values="20.577" fill="freeze" begin="70fd.click" /><animate attributeName="stroke-dashoffset" values="20.577;20.577;0" keyTimes="0;0.837;1" dur="1.26s" fill="freeze" begin="0s;70fd.click" /></path></g><g><g><path d="M59.58,10.25c0.04,0.58,0.07,1.51-0.07,2.34c-0.82,4.94-5.54,15.78-12.01,22.42" stroke-dasharray="28.065" stroke-dashoffset="28.065"><animate attributeName="stroke-dashoffset" values="28.065" fill="freeze" begin="70fd.click" /><animate attributeName="stroke-dashoffset" values="28.065;28.065;0" keyTimes="0;0.818;1" dur="1.541s" fill="freeze" begin="0s;70fd.click" /></path><path d="M60.76,18.99c0.43,0.05,1.54,0.51,2.5,0.39c2.88-0.34,9.69-1.73,13.81-2.8c2.83-0.73,3.63,0.83,2.91,2.83c-3.96,10.91-22.3,31.73-39.95,37.34" stroke-dasharray="78.175" stroke-dashoffset="78.175"><animate attributeName="stroke-dashoffset" values="78.175" fill="freeze" begin="70fd.click" /><animate attributeName="stroke-dashoffset" values="78.175;78.175;0" keyTimes="0;0.724;1" dur="2.129s" fill="freeze" begin="0s;70fd.click" /></path><path d="M54.03,28.82c5.24,3.7,29.01,17.77,36.07,21.16c2.11,1.01,3.81,1.5,5.87,1.8" stroke-dasharray="48.002" stroke-dashoffset="48.002"><animate attributeName="stroke-dashoffset" values="48.002" fill="freeze" begin="70fd.click" /><animate attributeName="stroke-dashoffset" values="48.002;48.002;0" keyTimes="0;0.816;1" dur="2.609s" fill="freeze" begin="0s;70fd.click" /></path></g><g><g><path d="M53.3,57.15c0.81,0.37,2.29,0.41,3.1,0.37c6.35-0.27,15.6-1.27,23.4-2.26c1.34-0.17,2.16,0.18,2.83,0.36" stroke-dasharray="29.54" stroke-dashoffset="29.54"><animate attributeName="stroke-dashoffset" values="29.54" fill="freeze" begin="70fd.click" /><animate attributeName="stroke-dashoffset" values="29.54;29.54;0" keyTimes="0;0.898;1" dur="2.904s" fill="freeze" begin="0s;70fd.click" /></path></g><g><g><path d="M50.3,68.41c1.24,0.37,3.52,0.46,4.75,0.37C69.4,67.75,71.32,67,83.29,66c2.05-0.17,3.31,0.18,4.34,0.37" stroke-dasharray="37.537" stroke-dashoffset="37.537"><animate attributeName="stroke-dashoffset" values="37.537" fill="freeze" begin="70fd.click" /><animate attributeName="stroke-dashoffset" values="37.537;37.537;0" keyTimes="0;0.886;1" dur="3.279s" fill="freeze" begin="0s;70fd.click" /></path></g><g><path d="M45.8,79.75c1.35,0.62,3.83,0.74,5.17,0.62c12.27-1.12,28.77-2.62,39.42-2.95c2.25-0.07,3.6,0.29,4.72,0.61" stroke-dasharray="49.569" stroke-dashoffset="49.569"><animate attributeName="stroke-dashoffset" values="49.569" fill="freeze" begin="70fd.click" /><animate attributeName="stroke-dashoffset" values="49.569;49.569;0" keyTimes="0;0.869;1" dur="3.775s" fill="freeze" begin="0s;70fd.click" /></path></g></g></g><g><path d="M67.08,47.5c0.67,0.39,1.71,2.25,1.71,3.74c0,8.26,0.28,38.01,0.28,48.61" stroke-dasharray="52.842" stroke-dashoffset="52.842"><animate attributeName="stroke-dashoffset" values="52.842" fill="freeze" begin="70fd.click" /><animate attributeName="stroke-dashoffset" values="52.842;52.842;0" keyTimes="0;0.877;1" dur="4.303s" fill="freeze" begin="0s;70fd.click" /></path></g></g></g></g></svg>