<svg xmlns="http://www.w3.org/2000/svg" width="109" height="109" viewBox="0 0 109 109" id="714c"><g fill="none" stroke="#666" stroke-width="9" stroke-linecap="round" stroke-linejoin="round"><g><g><path d="M9.99,38.25c2.6,3.72,6.38,14.28,7.09,18" /><path d="M40.03,31.25c0.47,1.25,0.61,2.28-0.08,3.47c-0.69,1.19-7.27,10-10.72,12.78" /><path d="M24.68,15.25c0.8,0.77,1.6,1.79,1.6,3.07c0.23,52.66-3.96,63.14-17.03,76.43" /><path d="M27,67.75c5.05,3.13,11.42,13.06,12.75,17.5" /></g><g><g><g><path d="M65.89,11c0.22,0.44,0.26,0.98,0.2,1.37c-0.31,2.27-3.01,7.72-5.47,10.77" /></g><g><path d="M47.05,24.27c0.74,0.78,1.33,2.21,1.49,3.22c0.88,5.65,3.26,22.3,3.56,27.4" /><path d="M48.98,26.1c10.33-1.4,30.66-2.98,34.47-3.49c1.83-0.24,4.02,1.56,3.62,3.69c-0.89,4.74-1.81,14.7-4.65,24.38" /><path d="M50.51,38.38c9.39-1.91,28.11-2.96,34.53-2.96" /><path d="M51.75,50.91c10.72-0.88,21.57-1.93,30.42-2.19" /></g></g><g p5:partial xmlns:p5="http://kanjivg.tagaini.net"><path d="M44.75,61.59c2,0.41,4.54,0.63,5.63,0.55c7.99-0.6,25.9-1.98,38.01-2.77c1.65-0.11,3.15,0.15,4.51,0.79" /><path d="M66.11,62.65c1.29,2.08,1.29,3.33,1.29,5c0,6.6-0.07,16.35-0.07,24.97" /><path d="M47.25,77.83c0.97,0.76,4.16,0.44,5.15,0.33c8.85-0.91,22.85-1.91,30.8-2.63c1.21-0.11,3.87-0.31,5.67,0.36" /><path d="M38.34,93.73c0.7,0.31,4.36,1.16,5.54,1.02c14.36-1.75,32.49-1.69,50.25-2.69c2.98-0.17,4.11,0.19,6.26,0.5" /></g></g></g></g><g fill="none" stroke="#000" stroke-width="5" stroke-linecap="round" stroke-linejoin="round"><g><g><path d="M9.99,38.25c2.6,3.72,6.38,14.28,7.09,18" stroke-dasharray="19.42" stroke-dashoffset="19.42"><animate id="0" attributeName="stroke-dashoffset" values="19.42;0" dur="0.19s" fill="freeze" begin="0s;714c.click" /></path><path d="M40.03,31.25c0.47,1.25,0.61,2.28-0.08,3.47c-0.69,1.19-7.27,10-10.72,12.78" stroke-dasharray="20.33" stroke-dashoffset="20.33"><animate attributeName="stroke-dashoffset" values="20.33" fill="freeze" begin="714c.click" /><animate id="1" attributeName="stroke-dashoffset" values="20.33;0" dur="0.2s" fill="freeze" begin="0.end" /></path><path d="M24.68,15.25c0.8,0.77,1.6,1.79,1.6,3.07c0.23,52.66-3.96,63.14-17.03,76.43" stroke-dasharray="84.23" stroke-dashoffset="84.23"><animate attributeName="stroke-dashoffset" values="84.23" fill="freeze" begin="714c.click" /><animate id="2" attributeName="stroke-dashoffset" values="84.23;0" dur="0.63s" fill="freeze" begin="1.end" /></path><path d="M27,67.75c5.05,3.13,11.42,13.06,12.75,17.5" stroke-dasharray="21.94" stroke-dashoffset="21.94"><animate attributeName="stroke-dashoffset" values="21.94" fill="freeze" begin="714c.click" /><animate id="3" attributeName="stroke-dashoffset" values="21.94;0" dur="0.22s" fill="freeze" begin="2.end" /></path></g><g><g><g><path d="M65.89,11c0.22,0.44,0.26,0.98,0.2,1.37c-0.31,2.27-3.01,7.72-5.47,10.77" stroke-dasharray="13.57" stroke-dashoffset="13.57"><animate attributeName="stroke-dashoffset" values="13.57" fill="freeze" begin="714c.click" /><animate id="4" attributeName="stroke-dashoffset" values="13.57;0" dur="0.14s" fill="freeze" begin="3.end" /></path></g><g><path d="M47.05,24.27c0.74,0.78,1.33,2.21,1.49,3.22c0.88,5.65,3.26,22.3,3.56,27.4" stroke-dasharray="31.23" stroke-dashoffset="31.23"><animate attributeName="stroke-dashoffset" values="31.23" fill="freeze" begin="714c.click" /><animate id="5" attributeName="stroke-dashoffset" values="31.23;0" dur="0.31s" fill="freeze" begin="4.end" /></path><path d="M48.98,26.1c10.33-1.4,30.66-2.98,34.47-3.49c1.83-0.24,4.02,1.56,3.62,3.69c-0.89,4.74-1.81,14.7-4.65,24.38" stroke-dasharray="65.42" stroke-dashoffset="65.42"><animate attributeName="stroke-dashoffset" values="65.42" fill="freeze" begin="714c.click" /><animate id="6" attributeName="stroke-dashoffset" values="65.42;0" dur="0.49s" fill="freeze" begin="5.end" /></path><path d="M50.51,38.38c9.39-1.91,28.11-2.96,34.53-2.96" stroke-dasharray="34.69" stroke-dashoffset="34.69"><animate attributeName="stroke-dashoffset" values="34.69" fill="freeze" begin="714c.click" /><animate id="7" attributeName="stroke-dashoffset" values="34.69;0" dur="0.35s" fill="freeze" begin="6.end" /></path><path d="M51.75,50.91c10.72-0.88,21.57-1.93,30.42-2.19" stroke-dasharray="30.5" stroke-dashoffset="30.5"><animate attributeName="stroke-dashoffset" values="30.5" fill="freeze" begin="714c.click" /><animate id="8" attributeName="stroke-dashoffset" values="30.5;0" dur="0.3s" fill="freeze" begin="7.end" /></path></g></g><g p5:partial xmlns:p5="http://kanjivg.tagaini.net"><path d="M44.75,61.59c2,0.41,4.54,0.63,5.63,0.55c7.99-0.6,25.9-1.98,38.01-2.77c1.65-0.11,3.15,0.15,4.51,0.79" stroke-dasharray="48.41" stroke-dashoffset="48.41"><animate attributeName="stroke-dashoffset" values="48.41" fill="freeze" begin="714c.click" /><animate id="9" attributeName="stroke-dashoffset" values="48.41;0" dur="0.48s" fill="freeze" begin="8.end" /></path><path d="M66.11,62.65c1.29,2.08,1.29,3.33,1.29,5c0,6.6-0.07,16.35-0.07,24.97" stroke-dasharray="30.23" stroke-dashoffset="30.23"><animate attributeName="stroke-dashoffset" values="30.23" fill="freeze" begin="714c.click" /><animate id="10" attributeName="stroke-dashoffset" values="30.23;0" dur="0.3s" fill="freeze" begin="9.end" /></path><path d="M47.25,77.83c0.97,0.76,4.16,0.44,5.15,0.33c8.85-0.91,22.85-1.91,30.8-2.63c1.21-0.11,3.87-0.31,5.67,0.36" stroke-dasharray="41.88" stroke-dashoffset="41.88"><animate attributeName="stroke-dashoffset" values="41.88" fill="freeze" begin="714c.click" /><animate id="11" attributeName="stroke-dashoffset" values="41.88;0" dur="0.42s" fill="freeze" begin="10.end" /></path><path d="M38.34,93.73c0.7,0.31,4.36,1.16,5.54,1.02c14.36-1.75,32.49-1.69,50.25-2.69c2.98-0.17,4.11,0.19,6.26,0.5" stroke-dasharray="62.29" stroke-dashoffset="62.29"><animate attributeName="stroke-dashoffset" values="62.29" fill="freeze" begin="714c.click" /><animate id="12" attributeName="stroke-dashoffset" values="62.29;0" dur="0.47s" fill="freeze" begin="11.end" /></path></g></g></g></g></svg>