<svg xmlns="http://www.w3.org/2000/svg" width="109" height="109" viewBox="0 0 109 109" id="7165"><g fill="none" stroke="#666" stroke-width="9" stroke-linecap="round" stroke-linejoin="round"><g><g><path d="M12.24,35.5c1.59,3.47,3.91,13.28,4.34,16.75" /><path d="M38.53,28.75c0.47,1,0.61,2.28-0.08,3.47c-0.69,1.19-6.27,9-9.72,11.78" /><path d="M24.75,12.75c0.76,0.75,1.02,2.25,1.03,3.5C26,67.75,23.5,80,11,93" /><path d="M26,71.25c4.26,2.78,9.63,11.57,10.75,15.5" /></g><g><g><g><path d="M60.6,11c0.05,0.56,0.28,1.54-0.1,2.24c-2.43,4.46-9.6,15.29-18.25,22.51" /><path d="M58.3,18.76c0.53,0,2.41,0.16,4.8-0.33c5.36-1.09,13.31-2.89,14.55-3.14c2.6-0.54,2.85,0.46,1.71,2.01C76.13,21.64,74,23.25,68,31.5" /></g><g><path d="M47.25,33.25c0.61,0.94,0.82,2.27,1,3.85c1.11,9.81,1.23,14.31,2.25,27.15" /><path d="M47.89,34.65C60,33.5,80.45,31.91,87.14,31.73c2.77-0.08,3.79,2.16,3.6,3.94C90.5,38,88.75,53.25,87.98,63.39" /></g><g><g><path d="M60,35.75c0.03,0.38,0.46,0.97,0.43,1.54c-0.19,4.96-2.71,13.07-6.67,16.96" /></g><g><path d="M71.27,35.21c0.61,1.12,1.12,2.45,1.12,4.18c0,2.33-0.18,4.11-0.18,5.78c0,4.54,2.07,6.41,6.03,6.41c3.58,0,6.22,0,7.74-1.47" /></g></g></g><g><path d="M38.59,71.95c2.17,0.52,4.61,0.72,6.03,0.64C55.25,72,83,70.5,93.37,69.98c2.42-0.12,3.63-0.23,5.51,0.39" /><path d="M66.9,57.42c0.3,1.29,0.51,1.26,0.3,2.47c-3.33,19.15-13.5,33.23-30.33,39.86" /><path d="M66.45,71.89C72,79,86.33,93,92.13,97.09c1.97,1.39,2.66,1.6,3.56,1.73" /></g></g></g></g><g fill="none" stroke="#000" stroke-width="5" stroke-linecap="round" stroke-linejoin="round"><path d="M12.24,35.5c1.59,3.47,3.91,13.28,4.34,16.75" stroke-dasharray="17.338" stroke-dashoffset="17.338"><animate attributeName="stroke-dashoffset" values="17.338;17.338;0" dur="0.173s" fill="freeze" begin="0s;7165.click" /></path><path d="M38.53,28.75c0.47,1,0.61,2.28-0.08,3.47c-0.69,1.19-6.27,9-9.72,11.78" stroke-dasharray="18.929" stroke-dashoffset="18.929"><animate attributeName="stroke-dashoffset" values="18.929" fill="freeze" begin="7165.click" /><animate attributeName="stroke-dashoffset" values="18.929;18.929;0" keyTimes="0;0.478;1" dur="0.362s" fill="freeze" begin="0s;7165.click" /></path><path d="M24.75,12.75c0.76,0.75,1.02,2.25,1.03,3.5C26,67.75,23.5,80,11,93" stroke-dasharray="83.97" stroke-dashoffset="83.97"><animate attributeName="stroke-dashoffset" values="83.97" fill="freeze" begin="7165.click" /><animate attributeName="stroke-dashoffset" values="83.97;83.97;0" keyTimes="0;0.365;1" dur="0.993s" fill="freeze" begin="0s;7165.click" /></path><path d="M26,71.25c4.26,2.78,9.63,11.57,10.75,15.5" stroke-dasharray="19.106" stroke-dashoffset="19.106"><animate attributeName="stroke-dashoffset" values="19.106" fill="freeze" begin="7165.click" /><animate attributeName="stroke-dashoffset" values="19.106;19.106;0" keyTimes="0;0.839;1" dur="1.184s" fill="freeze" begin="0s;7165.click" /></path><path d="M60.6,11c0.05,0.56,0.28,1.54-0.1,2.24c-2.43,4.46-9.6,15.29-18.25,22.51" stroke-dasharray="31.398" stroke-dashoffset="31.398"><animate attributeName="stroke-dashoffset" values="31.398" fill="freeze" begin="7165.click" /><animate attributeName="stroke-dashoffset" values="31.398;31.398;0" keyTimes="0;0.79;1" dur="1.498s" fill="freeze" begin="0s;7165.click" /></path><path d="M58.3,18.76c0.53,0,2.41,0.16,4.8-0.33c5.36-1.09,13.31-2.89,14.55-3.14c2.6-0.54,2.85,0.46,1.71,2.01C76.13,21.64,74,23.25,68,31.5" stroke-dasharray="42.247" stroke-dashoffset="42.247"><animate attributeName="stroke-dashoffset" values="42.247" fill="freeze" begin="7165.click" /><animate attributeName="stroke-dashoffset" values="42.247;42.247;0" keyTimes="0;0.78;1" dur="1.92s" fill="freeze" begin="0s;7165.click" /></path><path d="M47.25,33.25c0.61,0.94,0.82,2.27,1,3.85c1.11,9.81,1.23,14.31,2.25,27.15" stroke-dasharray="31.258" stroke-dashoffset="31.258"><animate attributeName="stroke-dashoffset" values="31.258" fill="freeze" begin="7165.click" /><animate attributeName="stroke-dashoffset" values="31.258;31.258;0" keyTimes="0;0.86;1" dur="2.233s" fill="freeze" begin="0s;7165.click" /></path><path d="M47.89,34.65C60,33.5,80.45,31.91,87.14,31.73c2.77-0.08,3.79,2.16,3.6,3.94C90.5,38,88.75,53.25,87.98,63.39" stroke-dasharray="73.348" stroke-dashoffset="73.348"><animate attributeName="stroke-dashoffset" values="73.348" fill="freeze" begin="7165.click" /><animate attributeName="stroke-dashoffset" values="73.348;73.348;0" keyTimes="0;0.802;1" dur="2.784s" fill="freeze" begin="0s;7165.click" /></path><path d="M60,35.75c0.03,0.38,0.46,0.97,0.43,1.54c-0.19,4.96-2.71,13.07-6.67,16.96" stroke-dasharray="20.175" stroke-dashoffset="20.175"><animate attributeName="stroke-dashoffset" values="20.175" fill="freeze" begin="7165.click" /><animate attributeName="stroke-dashoffset" values="20.175;20.175;0" keyTimes="0;0.932;1" dur="2.986s" fill="freeze" begin="0s;7165.click" /></path><path d="M71.27,35.21c0.61,1.12,1.12,2.45,1.12,4.18c0,2.33-0.18,4.11-0.18,5.78c0,4.54,2.07,6.41,6.03,6.41c3.58,0,6.22,0,7.74-1.47" stroke-dasharray="28.368" stroke-dashoffset="28.368"><animate attributeName="stroke-dashoffset" values="28.368" fill="freeze" begin="7165.click" /><animate attributeName="stroke-dashoffset" values="28.368;28.368;0" keyTimes="0;0.913;1" dur="3.27s" fill="freeze" begin="0s;7165.click" /></path><path d="M38.59,71.95c2.17,0.52,4.61,0.72,6.03,0.64C55.25,72,83,70.5,93.37,69.98c2.42-0.12,3.63-0.23,5.51,0.39" stroke-dasharray="60.467" stroke-dashoffset="60.467"><animate attributeName="stroke-dashoffset" values="60.467" fill="freeze" begin="7165.click" /><animate attributeName="stroke-dashoffset" values="60.467;60.467;0" keyTimes="0;0.878;1" dur="3.725s" fill="freeze" begin="0s;7165.click" /></path><path d="M66.9,57.42c0.3,1.29,0.51,1.26,0.3,2.47c-3.33,19.15-13.5,33.23-30.33,39.86" stroke-dasharray="55.046" stroke-dashoffset="55.046"><animate attributeName="stroke-dashoffset" values="55.046" fill="freeze" begin="7165.click" /><animate attributeName="stroke-dashoffset" values="55.046;55.046;0" keyTimes="0;0.871;1" dur="4.275s" fill="freeze" begin="0s;7165.click" /></path><path d="M66.45,71.89C72,79,86.33,93,92.13,97.09c1.97,1.39,2.66,1.6,3.56,1.73" stroke-dasharray="40.048" stroke-dashoffset="40.048"><animate attributeName="stroke-dashoffset" values="40.048" fill="freeze" begin="7165.click" /><animate attributeName="stroke-dashoffset" values="40.048;40.048;0" keyTimes="0;0.914;1" dur="4.675s" fill="freeze" begin="0s;7165.click" /></path></g></svg>