<svg xmlns="http://www.w3.org/2000/svg" width="109" height="109" viewBox="0 0 109 109" id="716e"><g fill="none" stroke="#666" stroke-width="6" stroke-linecap="round" stroke-linejoin="round"><g><g p4:phon="者" xmlns:p4="http://kanjivg.tagaini.net"><g p4:partial><g><path d="M33.97,21.87c2.28,0.38,4.58,0.19,6.53,0.03c7.44-0.61,17.67-1.76,24.75-2.15c1.73-0.09,3.48-0.24,5.18,0.19" /><path d="M52.95,9.62c0.72,0.72,1.15,2.26,1.15,3.66c0,8.34-0.1,18.76-0.1,21.6" /><path d="M15.57,38.6c3.12,0.83,6.48,0.88,9.67,0.46c13.76-1.81,38.63-4.19,56.38-5.45c3.74-0.27,7.51-0.19,11.18,0.78" /></g><path d="M80.49,13.67c0.17,1.09-0.05,2.66-1.08,4.12C65.38,37.62,49,47.88,17.97,61.23" /></g><g><path d="M41.41,51.13c0.43,0.64,0.86,1.46,0.86,2.31c0,0.51,0.01,11.56,0.01,19.94c0,1.85,0,3.53,0,4.89" /><path d="M42.98,50.99c5.49-0.64,21.11-2.26,26.9-2.79c3.16-0.29,4.84,0.41,4.83,3.8c-0.01,4.01-0.05,12.94-0.07,18.88c-0.01,2.72-0.02,4.8-0.02,5.5" /><path d="M43.66,62.75c5.59-0.62,24.34-2.12,30.24-2.28" /><path d="M43.51,75.36c6.67-0.46,21.82-1.93,30.13-2.32" /></g></g><g><path d="M23.12,83.62c0,5.39-5.25,13.34-6.62,14.88" /><path d="M39.77,82.58c2.47,2.71,4.82,10.17,5.44,14.38" /><path d="M60.87,82.08c3.33,2.36,8.6,9.71,9.43,13.38" /><path d="M82,82.88c4.43,2.62,11.45,10.77,12.56,14.84" /></g></g></g><g fill="none" stroke="#000" stroke-width="3" stroke-linecap="round" stroke-linejoin="round"><path d="M33.97,21.87c2.28,0.38,4.58,0.19,6.53,0.03c7.44-0.61,17.67-1.76,24.75-2.15c1.73-0.09,3.48-0.24,5.18,0.19" stroke-dasharray="36.598" stroke-dashoffset="36.598"><animate attributeName="stroke-dashoffset" values="36.598;36.598;0" dur="0.366s" fill="freeze" begin="0s;716e.click" /></path><path d="M52.95,9.62c0.72,0.72,1.15,2.26,1.15,3.66c0,8.34-0.1,18.76-0.1,21.6" stroke-dasharray="25.52" stroke-dashoffset="25.52"><animate attributeName="stroke-dashoffset" values="25.52" fill="freeze" begin="716e.click" /><animate attributeName="stroke-dashoffset" values="25.52;25.52;0" keyTimes="0;0.589;1" dur="0.621s" fill="freeze" begin="0s;716e.click" /></path><path d="M15.57,38.6c3.12,0.83,6.48,0.88,9.67,0.46c13.76-1.81,38.63-4.19,56.38-5.45c3.74-0.27,7.51-0.19,11.18,0.78" stroke-dasharray="77.651" stroke-dashoffset="77.651"><animate attributeName="stroke-dashoffset" values="77.651" fill="freeze" begin="716e.click" /><animate attributeName="stroke-dashoffset" values="77.651;77.651;0" keyTimes="0;0.515;1" dur="1.205s" fill="freeze" begin="0s;716e.click" /></path><path d="M80.49,13.67c0.17,1.09-0.05,2.66-1.08,4.12C65.38,37.62,49,47.88,17.97,61.23" stroke-dasharray="80.72" stroke-dashoffset="80.72"><animate attributeName="stroke-dashoffset" values="80.72" fill="freeze" begin="716e.click" /><animate attributeName="stroke-dashoffset" values="80.72;80.72;0" keyTimes="0;0.665;1" dur="1.812s" fill="freeze" begin="0s;716e.click" /></path><path d="M41.41,51.13c0.43,0.64,0.86,1.46,0.86,2.31c0,0.51,0.01,11.56,0.01,19.94c0,1.85,0,3.53,0,4.89" stroke-dasharray="27.332" stroke-dashoffset="27.332"><animate attributeName="stroke-dashoffset" values="27.332" fill="freeze" begin="716e.click" /><animate attributeName="stroke-dashoffset" values="27.332;27.332;0" keyTimes="0;0.869;1" dur="2.085s" fill="freeze" begin="0s;716e.click" /></path><path d="M42.98,50.99c5.49-0.64,21.11-2.26,26.9-2.79c3.16-0.29,4.84,0.41,4.83,3.8c-0.01,4.01-0.05,12.94-0.07,18.88c-0.01,2.72-0.02,4.8-0.02,5.5" stroke-dasharray="58.785" stroke-dashoffset="58.785"><animate attributeName="stroke-dashoffset" values="58.785" fill="freeze" begin="716e.click" /><animate attributeName="stroke-dashoffset" values="58.785;58.785;0" keyTimes="0;0.78;1" dur="2.673s" fill="freeze" begin="0s;716e.click" /></path><path d="M43.66,62.75c5.59-0.62,24.34-2.12,30.24-2.28" stroke-dasharray="30.331" stroke-dashoffset="30.331"><animate attributeName="stroke-dashoffset" values="30.331" fill="freeze" begin="716e.click" /><animate attributeName="stroke-dashoffset" values="30.331;30.331;0" keyTimes="0;0.898;1" dur="2.976s" fill="freeze" begin="0s;716e.click" /></path><path d="M43.51,75.36c6.67-0.46,21.82-1.93,30.13-2.32" stroke-dasharray="30.221" stroke-dashoffset="30.221"><animate attributeName="stroke-dashoffset" values="30.221" fill="freeze" begin="716e.click" /><animate attributeName="stroke-dashoffset" values="30.221;30.221;0" keyTimes="0;0.908;1" dur="3.278s" fill="freeze" begin="0s;716e.click" /></path><path d="M23.12,83.62c0,5.39-5.25,13.34-6.62,14.88" stroke-dasharray="16.518" stroke-dashoffset="16.518"><animate attributeName="stroke-dashoffset" values="16.518" fill="freeze" begin="716e.click" /><animate attributeName="stroke-dashoffset" values="16.518;16.518;0" keyTimes="0;0.952;1" dur="3.443s" fill="freeze" begin="0s;716e.click" /></path><path d="M39.77,82.58c2.47,2.71,4.82,10.17,5.44,14.38" stroke-dasharray="15.521" stroke-dashoffset="15.521"><animate attributeName="stroke-dashoffset" values="15.521" fill="freeze" begin="716e.click" /><animate attributeName="stroke-dashoffset" values="15.521;15.521;0" keyTimes="0;0.957;1" dur="3.598s" fill="freeze" begin="0s;716e.click" /></path><path d="M60.87,82.08c3.33,2.36,8.6,9.71,9.43,13.38" stroke-dasharray="16.578" stroke-dashoffset="16.578"><animate attributeName="stroke-dashoffset" values="16.578" fill="freeze" begin="716e.click" /><animate attributeName="stroke-dashoffset" values="16.578;16.578;0" keyTimes="0;0.956;1" dur="3.764s" fill="freeze" begin="0s;716e.click" /></path><path d="M82,82.88c4.43,2.62,11.45,10.77,12.56,14.84" stroke-dasharray="19.714" stroke-dashoffset="19.714"><animate attributeName="stroke-dashoffset" values="19.714" fill="freeze" begin="716e.click" /><animate attributeName="stroke-dashoffset" values="19.714;19.714;0" keyTimes="0;0.95;1" dur="3.961s" fill="freeze" begin="0s;716e.click" /></path></g></svg>