<svg xmlns="http://www.w3.org/2000/svg" viewBox="0 0 109 109" id="71e6"><g fill="none" stroke="#666" stroke-width="6" stroke-linecap="round" stroke-linejoin="round"><g><g><path d="M8.25,36.62c2.49,3.43,6.11,13.14,6.79,16.56" /><path d="M32.82,28.97c0.18,1.03-0.04,2.07-0.56,3.11s-5.23,8.72-7.83,11.16" /><path d="M20.77,14.75c1.05,1.05,1.4,2.57,1.39,3.88C22.05,70.48,21.62,80,8.75,95.5" /><path d="M23.88,68.12c3.76,2.62,8.5,10.9,9.49,14.61" /></g><g><g><g><g><path d="M49.39,12.38c0.8,0.8,1.02,1.62,1.02,2.73c0,0.34-0.03,9.5-0.03,14.51" /><path d="M51.62,21.04c4.13-0.79,5.88-1.16,7.45-1.47c0.62-0.12,1.76-0.25,2.27-0.16" /></g><g><path d="M42.9,24.74c-0.02,0.88-0.14,1.96-0.42,2.79c-1.26,3.67-3.98,9.58-7.77,14.48" /><path d="M43.71,31.46c0.79,0.29,1.54,0.16,2.57-0.07c1.61-0.35,9.21-2.63,12.46-3.5c1.49-0.4,3.54,0.96,2.71,2.83C57.49,39.6,46.7,51.87,34.28,57" /><path d="M42,37.38c2.28,1.15,5.9,4.71,6.47,6.49" /></g></g><g><path d="M68.71,19.79c0.84,0.19,2.19,0.48,3.86,0.19c1.67-0.29,12.68-3.01,13.83-3.3c2.23-0.56,3.18,1.23,2.24,3C83.88,28.62,73.88,39.38,65,45.25" /><path d="M69.17,26.52C75,29,86.19,37.73,90.88,44.18" /></g></g><g><path d="M46.21,55.33c1.94,1.47,4.86,5.63,5.35,7.92" /><path d="M81.98,50.39c0.07,0.87-0.06,1.71-0.4,2.52c-1.33,2.47-2.77,4.63-6.47,8.81" /><path d="M35.56,67.12c2.47,0.49,4.82,0.36,7.31,0.13c9.13-0.81,32.58-2.78,43.51-3.39c2.46-0.14,5.12-0.24,7.48,0.09" /><path d="M61.75,49.75c0.88,0.88,1.15,2,1.15,3.28c0,0.64,0.06,25.02,0.08,37.85c0.01,3.18,0.01,5.66,0.01,6.88" /><path d="M59.75,66.5c0,1.25-0.33,2.13-1.1,3.23c-5.99,8.51-15.9,17.37-27.51,22.02" /><path d="M65.12,66.88c3.75,3.75,14.2,13.65,21.22,19.41c2.4,1.97,4.78,3.34,7.18,4.47" /></g></g></g></g><g fill="none" stroke="#000" stroke-width="3" stroke-linecap="round" stroke-linejoin="round"><path d="M8.25,36.62c2.49,3.43,6.11,13.14,6.79,16.56" stroke-dasharray="17.97" stroke-dashoffset="17.97"><animate attributeName="stroke-dashoffset" values="17.97;17.97;0" dur="0.18s" fill="freeze" begin="0s;71e6.click" /></path><path d="M32.82,28.97c0.18,1.03-0.04,2.07-0.56,3.11s-5.23,8.72-7.83,11.16" stroke-dasharray="16.881" stroke-dashoffset="16.881"><animate attributeName="stroke-dashoffset" values="16.881" fill="freeze" begin="71e6.click" /><animate attributeName="stroke-dashoffset" values="16.881;16.881;0" keyTimes="0;0.516;1" dur="0.349s" fill="freeze" begin="0s;71e6.click" /></path><path d="M20.77,14.75c1.05,1.05,1.4,2.57,1.39,3.88C22.05,70.48,21.62,80,8.75,95.5" stroke-dasharray="84.112" stroke-dashoffset="84.112"><animate attributeName="stroke-dashoffset" values="84.112" fill="freeze" begin="71e6.click" /><animate attributeName="stroke-dashoffset" values="84.112;84.112;0" keyTimes="0;0.356;1" dur="0.981s" fill="freeze" begin="0s;71e6.click" /></path><path d="M23.88,68.12c3.76,2.62,8.5,10.9,9.49,14.61" stroke-dasharray="17.636" stroke-dashoffset="17.636"><animate attributeName="stroke-dashoffset" values="17.636" fill="freeze" begin="71e6.click" /><animate attributeName="stroke-dashoffset" values="17.636;17.636;0" keyTimes="0;0.848;1" dur="1.157s" fill="freeze" begin="0s;71e6.click" /></path><path d="M49.39,12.38c0.8,0.8,1.02,1.62,1.02,2.73c0,0.34-0.03,9.5-0.03,14.51" stroke-dasharray="17.516" stroke-dashoffset="17.516"><animate attributeName="stroke-dashoffset" values="17.516" fill="freeze" begin="71e6.click" /><animate attributeName="stroke-dashoffset" values="17.516;17.516;0" keyTimes="0;0.869;1" dur="1.332s" fill="freeze" begin="0s;71e6.click" /></path><path d="M51.62,21.04c4.13-0.79,5.88-1.16,7.45-1.47c0.62-0.12,1.76-0.25,2.27-0.16" stroke-dasharray="9.878" stroke-dashoffset="9.878"><animate attributeName="stroke-dashoffset" values="9.878" fill="freeze" begin="71e6.click" /><animate attributeName="stroke-dashoffset" values="9.878;9.878;0" keyTimes="0;0.931;1" dur="1.431s" fill="freeze" begin="0s;71e6.click" /></path><path d="M42.9,24.74c-0.02,0.88-0.14,1.96-0.42,2.79c-1.26,3.67-3.98,9.58-7.77,14.48" stroke-dasharray="19.331" stroke-dashoffset="19.331"><animate attributeName="stroke-dashoffset" values="19.331" fill="freeze" begin="71e6.click" /><animate attributeName="stroke-dashoffset" values="19.331;19.331;0" keyTimes="0;0.881;1" dur="1.624s" fill="freeze" begin="0s;71e6.click" /></path><path d="M43.71,31.46c0.79,0.29,1.54,0.16,2.57-0.07c1.61-0.35,9.21-2.63,12.46-3.5c1.49-0.4,3.54,0.96,2.71,2.83C57.49,39.6,46.7,51.87,34.28,57" stroke-dasharray="59.004" stroke-dashoffset="59.004"><animate attributeName="stroke-dashoffset" values="59.004" fill="freeze" begin="71e6.click" /><animate attributeName="stroke-dashoffset" values="59.004;59.004;0" keyTimes="0;0.734;1" dur="2.214s" fill="freeze" begin="0s;71e6.click" /></path><path d="M42,37.38c2.28,1.15,5.9,4.71,6.47,6.49" stroke-dasharray="9.297" stroke-dashoffset="9.297"><animate attributeName="stroke-dashoffset" values="9.297" fill="freeze" begin="71e6.click" /><animate attributeName="stroke-dashoffset" values="9.297;9.297;0" keyTimes="0;0.96;1" dur="2.307s" fill="freeze" begin="0s;71e6.click" /></path><path d="M68.71,19.79c0.84,0.19,2.19,0.48,3.86,0.19c1.67-0.29,12.68-3.01,13.83-3.3c2.23-0.56,3.18,1.23,2.24,3C83.88,28.62,73.88,39.38,65,45.25" stroke-dasharray="58.28" stroke-dashoffset="58.28"><animate attributeName="stroke-dashoffset" values="58.28" fill="freeze" begin="71e6.click" /><animate attributeName="stroke-dashoffset" values="58.28;58.28;0" keyTimes="0;0.798;1" dur="2.89s" fill="freeze" begin="0s;71e6.click" /></path><path d="M69.17,26.52C75,29,86.19,37.73,90.88,44.18" stroke-dasharray="28.204" stroke-dashoffset="28.204"><animate attributeName="stroke-dashoffset" values="28.204" fill="freeze" begin="71e6.click" /><animate attributeName="stroke-dashoffset" values="28.204;28.204;0" keyTimes="0;0.911;1" dur="3.172s" fill="freeze" begin="0s;71e6.click" /></path><path d="M46.21,55.33c1.94,1.47,4.86,5.63,5.35,7.92" stroke-dasharray="9.682" stroke-dashoffset="9.682"><animate attributeName="stroke-dashoffset" values="9.682" fill="freeze" begin="71e6.click" /><animate attributeName="stroke-dashoffset" values="9.682;9.682;0" keyTimes="0;0.97;1" dur="3.269s" fill="freeze" begin="0s;71e6.click" /></path><path d="M81.98,50.39c0.07,0.87-0.06,1.71-0.4,2.52c-1.33,2.47-2.77,4.63-6.47,8.81" stroke-dasharray="13.536" stroke-dashoffset="13.536"><animate attributeName="stroke-dashoffset" values="13.536" fill="freeze" begin="71e6.click" /><animate attributeName="stroke-dashoffset" values="13.536;13.536;0" keyTimes="0;0.96;1" dur="3.404s" fill="freeze" begin="0s;71e6.click" /></path><path d="M35.56,67.12c2.47,0.49,4.82,0.36,7.31,0.13c9.13-0.81,32.58-2.78,43.51-3.39c2.46-0.14,5.12-0.24,7.48,0.09" stroke-dasharray="58.475" stroke-dashoffset="58.475"><animate attributeName="stroke-dashoffset" values="58.475" fill="freeze" begin="71e6.click" /><animate attributeName="stroke-dashoffset" values="58.475;58.475;0" keyTimes="0;0.853;1" dur="3.989s" fill="freeze" begin="0s;71e6.click" /></path><path d="M61.75,49.75c0.88,0.88,1.15,2,1.15,3.28c0,0.64,0.06,25.02,0.08,37.85c0.01,3.18,0.01,5.66,0.01,6.88" stroke-dasharray="48.305" stroke-dashoffset="48.305"><animate attributeName="stroke-dashoffset" values="48.305" fill="freeze" begin="71e6.click" /><animate attributeName="stroke-dashoffset" values="48.305;48.305;0" keyTimes="0;0.892;1" dur="4.472s" fill="freeze" begin="0s;71e6.click" /></path><path d="M59.75,66.5c0,1.25-0.33,2.13-1.1,3.23c-5.99,8.51-15.9,17.37-27.51,22.02" stroke-dasharray="39.176" stroke-dashoffset="39.176"><animate attributeName="stroke-dashoffset" values="39.176" fill="freeze" begin="71e6.click" /><animate attributeName="stroke-dashoffset" values="39.176;39.176;0" keyTimes="0;0.919;1" dur="4.864s" fill="freeze" begin="0s;71e6.click" /></path><path d="M65.12,66.88c3.75,3.75,14.2,13.65,21.22,19.41c2.4,1.97,4.78,3.34,7.18,4.47" stroke-dasharray="37.247" stroke-dashoffset="37.247"><animate attributeName="stroke-dashoffset" values="37.247" fill="freeze" begin="71e6.click" /><animate attributeName="stroke-dashoffset" values="37.247;37.247;0" keyTimes="0;0.929;1" dur="5.236s" fill="freeze" begin="0s;71e6.click" /></path></g></svg>