<svg xmlns="http://www.w3.org/2000/svg" width="109" height="109" viewBox="0 0 109 109" id="71e7"><g fill="none" stroke="#666" stroke-width="9" stroke-linecap="round" stroke-linejoin="round"><g><g><path d="M11.33,36.5c2.24,3.26,5.49,12.49,6.1,15.75" /><path d="M36.66,27.25c0.34,1.25,0.42,1.78-0.15,2.97c-0.57,1.19-6.47,10.5-9.34,13.28" /><path d="M23.75,15.25c0.65,0.76,1.29,1.78,1.3,3.06c0.19,52.49-1.55,62.94-13.8,76.19" /><path d="M26.69,68.25c3.06,2.33,6.93,9.7,7.74,13" /></g><g><path d="M65.51,15.01c-0.26,0.74,0,1.23-0.38,1.89c-2.29,3.92-8.94,12.67-15.63,16.85" /><path d="M73.1,10.49c0.86,0.18,1.68,0.41,2.23,0.87c5.04,4.22,11.1,12.96,15.88,15.6C93.27,28.1,94,28.71,96,29.07" /><g><path d="M57.89,31.27c0.64,0.34,1.8,0.36,2.44,0.34c5.42-0.11,14.7-1.68,21.86-1.83c1.06-0.02,1.7,0.16,2.23,0.34" /><path d="M70.05,32.36c0.05,0.35,0.1,0.91-0.09,1.42c-1.14,3-7.7,9.6-16.68,13.63" /><path d="M67.06,39.46c6.19,5.79,13.69,24.29,8.09,40.44c-2.24,6.45-6.36,0.78-6.99,0.04" /><path d="M67.08,44.7c0.03,0.35,0.07,0.89-0.07,1.39c-0.8,2.93-5.37,9.36-11.63,13.3" /><path d="M71.35,55.88c0.04,0.41,0.09,1.05-0.08,1.63c-1.02,3.45-6.9,11.01-14.94,15.63" /><path d="M88.34,38.11c0.03,0.25,0.07,0.65-0.06,1.02c-0.77,2.15-5.15,6.86-11.16,9.74" /><path d="M76.61,54.35c6.79,5.09,15.22,15.73,17.74,21.26" /></g><g><path d="M38.59,14.5c3.09,1.3,7.99,5.36,8.76,7.38" /><path d="M38.67,37.25c2.6,1.39,6.72,5.72,7.37,7.88" /><path d="M35,56.94c1.81,0.85,3.01,0.43,3.81,0.21c0.8-0.21,6.42-2.99,7.62-3.42c1.2-0.43,2.51,1.07,1.71,2.35c-0.8,1.28-2.64,4.41-4.81,6.76c-0.83,0.9-0.83,2.41,0.3,3.98c1.12,1.56,4.71,4.2,5.31,5.48c0.6,1.28,0.6,2.35-0.6,3.42c-1.2,1.07-9.22,9.04-10.43,9.47" /><path d="M34.5,87.31c2.25-0.35,6.76-1.22,10.14-0.53c3.38,0.7,22.58,5.4,25.9,6.3c9.01,2.45,15.95,3.15,22.71,1.92" /></g></g></g></g><g fill="none" stroke="#000" stroke-width="5" stroke-linecap="round" stroke-linejoin="round"><path d="M11.33,36.5c2.24,3.26,5.49,12.49,6.1,15.75" stroke-dasharray="16.953" stroke-dashoffset="16.953"><animate attributeName="stroke-dashoffset" values="16.953;16.953;0" dur="0.17s" fill="freeze" begin="0s;71e7.click" /></path><path d="M36.66,27.25c0.34,1.25,0.42,1.78-0.15,2.97c-0.57,1.19-6.47,10.5-9.34,13.28" stroke-dasharray="19.336" stroke-dashoffset="19.336"><animate attributeName="stroke-dashoffset" values="19.336" fill="freeze" begin="71e7.click" /><animate attributeName="stroke-dashoffset" values="19.336;19.336;0" keyTimes="0;0.468;1" dur="0.363s" fill="freeze" begin="0s;71e7.click" /></path><path d="M23.75,15.25c0.65,0.76,1.29,1.78,1.3,3.06c0.19,52.49-1.55,62.94-13.8,76.19" stroke-dasharray="82.829" stroke-dashoffset="82.829"><animate attributeName="stroke-dashoffset" values="82.829" fill="freeze" begin="71e7.click" /><animate attributeName="stroke-dashoffset" values="82.829;82.829;0" keyTimes="0;0.368;1" dur="0.986s" fill="freeze" begin="0s;71e7.click" /></path><path d="M26.69,68.25c3.06,2.33,6.93,9.7,7.74,13" stroke-dasharray="15.302" stroke-dashoffset="15.302"><animate attributeName="stroke-dashoffset" values="15.302" fill="freeze" begin="71e7.click" /><animate attributeName="stroke-dashoffset" values="15.302;15.302;0" keyTimes="0;0.866;1" dur="1.139s" fill="freeze" begin="0s;71e7.click" /></path><path d="M65.51,15.01c-0.26,0.74,0,1.23-0.38,1.89c-2.29,3.92-8.94,12.67-15.63,16.85" stroke-dasharray="25.1" stroke-dashoffset="25.1"><animate attributeName="stroke-dashoffset" values="25.1" fill="freeze" begin="71e7.click" /><animate attributeName="stroke-dashoffset" values="25.1;25.1;0" keyTimes="0;0.819;1" dur="1.39s" fill="freeze" begin="0s;71e7.click" /></path><path d="M73.1,10.49c0.86,0.18,1.68,0.41,2.23,0.87c5.04,4.22,11.1,12.96,15.88,15.6C93.27,28.1,94,28.71,96,29.07" stroke-dasharray="30.01" stroke-dashoffset="30.01"><animate attributeName="stroke-dashoffset" values="30.01" fill="freeze" begin="71e7.click" /><animate attributeName="stroke-dashoffset" values="30.01;30.01;0" keyTimes="0;0.822;1" dur="1.69s" fill="freeze" begin="0s;71e7.click" /></path><path d="M57.89,31.27c0.64,0.34,1.8,0.36,2.44,0.34c5.42-0.11,14.7-1.68,21.86-1.83c1.06-0.02,1.7,0.16,2.23,0.34" stroke-dasharray="26.699" stroke-dashoffset="26.699"><animate attributeName="stroke-dashoffset" values="26.699" fill="freeze" begin="71e7.click" /><animate attributeName="stroke-dashoffset" values="26.699;26.699;0" keyTimes="0;0.864;1" dur="1.957s" fill="freeze" begin="0s;71e7.click" /></path><path d="M70.05,32.36c0.05,0.35,0.1,0.91-0.09,1.42c-1.14,3-7.7,9.6-16.68,13.63" stroke-dasharray="23.327" stroke-dashoffset="23.327"><animate attributeName="stroke-dashoffset" values="23.327" fill="freeze" begin="71e7.click" /><animate attributeName="stroke-dashoffset" values="23.327;23.327;0" keyTimes="0;0.894;1" dur="2.19s" fill="freeze" begin="0s;71e7.click" /></path><path d="M67.06,39.46c6.19,5.79,13.69,24.29,8.09,40.44c-2.24,6.45-6.36,0.78-6.99,0.04" stroke-dasharray="52.789" stroke-dashoffset="52.789"><animate attributeName="stroke-dashoffset" values="52.789" fill="freeze" begin="71e7.click" /><animate attributeName="stroke-dashoffset" values="52.789;52.789;0" keyTimes="0;0.806;1" dur="2.718s" fill="freeze" begin="0s;71e7.click" /></path><path d="M67.08,44.7c0.03,0.35,0.07,0.89-0.07,1.39c-0.8,2.93-5.37,9.36-11.63,13.3" stroke-dasharray="19.349" stroke-dashoffset="19.349"><animate attributeName="stroke-dashoffset" values="19.349" fill="freeze" begin="71e7.click" /><animate attributeName="stroke-dashoffset" values="19.349;19.349;0" keyTimes="0;0.934;1" dur="2.911s" fill="freeze" begin="0s;71e7.click" /></path><path d="M71.35,55.88c0.04,0.41,0.09,1.05-0.08,1.63c-1.02,3.45-6.9,11.01-14.94,15.63" stroke-dasharray="23.62" stroke-dashoffset="23.62"><animate attributeName="stroke-dashoffset" values="23.62" fill="freeze" begin="71e7.click" /><animate attributeName="stroke-dashoffset" values="23.62;23.62;0" keyTimes="0;0.925;1" dur="3.147s" fill="freeze" begin="0s;71e7.click" /></path><path d="M88.34,38.11c0.03,0.25,0.07,0.65-0.06,1.02c-0.77,2.15-5.15,6.86-11.16,9.74" stroke-dasharray="16.087" stroke-dashoffset="16.087"><animate attributeName="stroke-dashoffset" values="16.087" fill="freeze" begin="71e7.click" /><animate attributeName="stroke-dashoffset" values="16.087;16.087;0" keyTimes="0;0.951;1" dur="3.308s" fill="freeze" begin="0s;71e7.click" /></path><path d="M76.61,54.35c6.79,5.09,15.22,15.73,17.74,21.26" stroke-dasharray="27.881" stroke-dashoffset="27.881"><animate attributeName="stroke-dashoffset" values="27.881" fill="freeze" begin="71e7.click" /><animate attributeName="stroke-dashoffset" values="27.881;27.881;0" keyTimes="0;0.922;1" dur="3.587s" fill="freeze" begin="0s;71e7.click" /></path><path d="M38.59,14.5c3.09,1.3,7.99,5.36,8.76,7.38" stroke-dasharray="11.619" stroke-dashoffset="11.619"><animate attributeName="stroke-dashoffset" values="11.619" fill="freeze" begin="71e7.click" /><animate attributeName="stroke-dashoffset" values="11.619;11.619;0" keyTimes="0;0.969;1" dur="3.703s" fill="freeze" begin="0s;71e7.click" /></path><path d="M38.67,37.25c2.6,1.39,6.72,5.72,7.37,7.88" stroke-dasharray="10.945" stroke-dashoffset="10.945"><animate attributeName="stroke-dashoffset" values="10.945" fill="freeze" begin="71e7.click" /><animate attributeName="stroke-dashoffset" values="10.945;10.945;0" keyTimes="0;0.971;1" dur="3.812s" fill="freeze" begin="0s;71e7.click" /></path><path d="M35,56.94c1.81,0.85,3.01,0.43,3.81,0.21c0.8-0.21,6.42-2.99,7.62-3.42c1.2-0.43,2.51,1.07,1.71,2.35c-0.8,1.28-2.64,4.41-4.81,6.76c-0.83,0.9-0.83,2.41,0.3,3.98c1.12,1.56,4.71,4.2,5.31,5.48c0.6,1.28,0.6,2.35-0.6,3.42c-1.2,1.07-9.22,9.04-10.43,9.47" stroke-dasharray="54.22" stroke-dashoffset="54.22"><animate attributeName="stroke-dashoffset" values="54.22" fill="freeze" begin="71e7.click" /><animate attributeName="stroke-dashoffset" values="54.22;54.22;0" keyTimes="0;0.876;1" dur="4.354s" fill="freeze" begin="0s;71e7.click" /></path><path d="M34.5,87.31c2.25-0.35,6.76-1.22,10.14-0.53c3.38,0.7,22.58,5.4,25.9,6.3c9.01,2.45,15.95,3.15,22.71,1.92" stroke-dasharray="59.854" stroke-dashoffset="59.854"><animate attributeName="stroke-dashoffset" values="59.854" fill="freeze" begin="71e7.click" /><animate attributeName="stroke-dashoffset" values="59.854;59.854;0" keyTimes="0;0.879;1" dur="4.953s" fill="freeze" begin="0s;71e7.click" /></path></g></svg>