<svg xmlns="http://www.w3.org/2000/svg" width="109" height="109" viewBox="0 0 109 109" id="71f5"><g fill="none" stroke="#666" stroke-width="9" stroke-linecap="round" stroke-linejoin="round"><g><g><path d="M11.99,35.5c2.05,3.47,5.03,13.28,5.59,16.75" /><path d="M36.92,29.25c0.65,0.74,0.4,2.21-0.19,3.37c-0.59,1.15-6.07,9.69-9,12.38" /><path d="M24.25,14.25c0.76,0.75,1.02,2.25,1.03,3.5C25.5,69.25,23.5,80,11,93" /><path d="M25.75,64c4.26,2.42,9.63,10.08,10.75,13.5" /></g><g><g><path d="M58.26,24.3c1.1,0.31,3.11,0.41,4.2,0.31c7.1-0.65,17.48-1.98,24.39-2.25c1.82-0.07,2.92,0.15,3.83,0.3" /><path d="M72.02,11.62c0.11,0.32,1.43,1.68,1.53,3.72c0.49,9.81,0.12,15.18,0.12,18.53" /><path d="M54,36.47c1.09,0.31,3.08,0.38,4.16,0.31c9.41-0.58,24.82-3.24,34.59-3.5c1.81-0.05,2.9,0.15,3.8,0.3" /></g><g><path d="M64.53,39.1c1.41,1.44,3.64,6.12,3.99,8.52" /><path d="M84.78,37.85c0.01,0.24,0.03,0.63-0.03,0.98c-0.35,2.09-2.36,6.74-5.12,9.69" /><path d="M57.69,52.11c1.12,0.09,3.17,0.04,4.27,0.05c5.9,0.06,18.76-2.73,28.8-2.81c1.86-0.02,2.97,0.01,3.9,0.05" /><path d="M59.24,62.45c0.82,0.13,2.33,0.17,3.14,0.08c3.32-0.38,19.44-2.19,26.83-2.32c1.37-0.02,2.19,0.02,2.87,0.08" /><path d="M55,73.98c1.19,0.17,3.36,0.17,4.55,0.09c10.28-0.68,22.79-2.88,34.32-3.13c1.97-0.04,3.17,0.02,4.16,0.09" /><path d="M73.51,53.3c0.66,0.45,1.05,2.23,1.19,3.26c0.13,1.03,0,24.68-0.13,31.2" /></g><g><path d="M42.67,15.75c2.99,1.48,7.72,6.08,8.47,8.38" /><path d="M40.92,37.25c3.17,1.44,8.18,5.9,8.97,8.13" /><path d="M36.5,56.06c1.92,0.87,3.2,0.43,4.06,0.22c0.85-0.22,6.12-1.16,7.26-1.95c1.14-0.79,3.42,0.32,2.28,2.22c-0.8,1.34-4.16,6.64-4.92,7.63c-1.57,2.06-1.57,4.03,1.07,6.15c0.86,0.69,1.46,1.69,2.35,2.8c1.28,1.59,1.14,2.86-0.43,4.77c-1.09,1.33-6.41,5.67-7.69,6.11" /><path d="M36.61,86.59c2.33-0.54,7-1.89,10.5-0.81c3.5,1.08,23.33,6.03,26.84,7.03c10.5,2.97,15.76,2.97,23.54,1.89" /></g></g></g></g><g fill="none" stroke="#000" stroke-width="5" stroke-linecap="round" stroke-linejoin="round"><g><g><path d="M11.99,35.5c2.05,3.47,5.03,13.28,5.59,16.75" stroke-dasharray="17.71" stroke-dashoffset="17.71"><animate id="0" attributeName="stroke-dashoffset" values="17.71;0" dur="0.18s" fill="freeze" begin="0s;71f5.click" /></path><path d="M36.92,29.25c0.65,0.74,0.4,2.21-0.19,3.37c-0.59,1.15-6.07,9.69-9,12.38" stroke-dasharray="18.89" stroke-dashoffset="18.89"><animate attributeName="stroke-dashoffset" values="18.89" fill="freeze" begin="71f5.click" /><animate id="1" attributeName="stroke-dashoffset" values="18.89;0" dur="0.19s" fill="freeze" begin="0.end" /></path><path d="M24.25,14.25c0.76,0.75,1.02,2.25,1.03,3.5C25.5,69.25,23.5,80,11,93" stroke-dasharray="82.42" stroke-dashoffset="82.42"><animate attributeName="stroke-dashoffset" values="82.42" fill="freeze" begin="71f5.click" /><animate id="2" attributeName="stroke-dashoffset" values="82.42;0" dur="0.62s" fill="freeze" begin="1.end" /></path><path d="M25.75,64c4.26,2.42,9.63,10.08,10.75,13.5" stroke-dasharray="17.49" stroke-dashoffset="17.49"><animate attributeName="stroke-dashoffset" values="17.49" fill="freeze" begin="71f5.click" /><animate id="3" attributeName="stroke-dashoffset" values="17.49;0" dur="0.17s" fill="freeze" begin="2.end" /></path></g><g><g><path d="M58.26,24.3c1.1,0.31,3.11,0.41,4.2,0.31c7.1-0.65,17.48-1.98,24.39-2.25c1.82-0.07,2.92,0.15,3.83,0.3" stroke-dasharray="32.58" stroke-dashoffset="32.58"><animate attributeName="stroke-dashoffset" values="32.58" fill="freeze" begin="71f5.click" /><animate id="4" attributeName="stroke-dashoffset" values="32.58;0" dur="0.33s" fill="freeze" begin="3.end" /></path><path d="M72.02,11.62c0.11,0.32,1.43,1.68,1.53,3.72c0.49,9.81,0.12,15.18,0.12,18.53" stroke-dasharray="22.62" stroke-dashoffset="22.62"><animate attributeName="stroke-dashoffset" values="22.62" fill="freeze" begin="71f5.click" /><animate id="5" attributeName="stroke-dashoffset" values="22.62;0" dur="0.23s" fill="freeze" begin="4.end" /></path><path d="M54,36.47c1.09,0.31,3.08,0.38,4.16,0.31c9.41-0.58,24.82-3.24,34.59-3.5c1.81-0.05,2.9,0.15,3.8,0.3" stroke-dasharray="42.78" stroke-dashoffset="42.78"><animate attributeName="stroke-dashoffset" values="42.78" fill="freeze" begin="71f5.click" /><animate id="6" attributeName="stroke-dashoffset" values="42.78;0" dur="0.43s" fill="freeze" begin="5.end" /></path></g><g><path d="M64.53,39.1c1.41,1.44,3.64,6.12,3.99,8.52" stroke-dasharray="9.49" stroke-dashoffset="9.49"><animate attributeName="stroke-dashoffset" values="9.49" fill="freeze" begin="71f5.click" /><animate id="7" attributeName="stroke-dashoffset" values="9.49;0" dur="0.09s" fill="freeze" begin="6.end" /></path><path d="M84.78,37.85c0.01,0.24,0.03,0.63-0.03,0.98c-0.35,2.09-2.36,6.74-5.12,9.69" stroke-dasharray="12.05" stroke-dashoffset="12.05"><animate attributeName="stroke-dashoffset" values="12.05" fill="freeze" begin="71f5.click" /><animate id="8" attributeName="stroke-dashoffset" values="12.05;0" dur="0.12s" fill="freeze" begin="7.end" /></path><path d="M57.69,52.11c1.12,0.09,3.17,0.04,4.27,0.05c5.9,0.06,18.76-2.73,28.8-2.81c1.86-0.02,2.97,0.01,3.9,0.05" stroke-dasharray="37.13" stroke-dashoffset="37.13"><animate attributeName="stroke-dashoffset" values="37.13" fill="freeze" begin="71f5.click" /><animate id="9" attributeName="stroke-dashoffset" values="37.13;0" dur="0.37s" fill="freeze" begin="8.end" /></path><path d="M59.24,62.45c0.82,0.13,2.33,0.17,3.14,0.08c3.32-0.38,19.44-2.19,26.83-2.32c1.37-0.02,2.19,0.02,2.87,0.08" stroke-dasharray="32.96" stroke-dashoffset="32.96"><animate attributeName="stroke-dashoffset" values="32.96" fill="freeze" begin="71f5.click" /><animate id="10" attributeName="stroke-dashoffset" values="32.96;0" dur="0.33s" fill="freeze" begin="9.end" /></path><path d="M55,73.98c1.19,0.17,3.36,0.17,4.55,0.09c10.28-0.68,22.79-2.88,34.32-3.13c1.97-0.04,3.17,0.02,4.16,0.09" stroke-dasharray="43.19" stroke-dashoffset="43.19"><animate attributeName="stroke-dashoffset" values="43.19" fill="freeze" begin="71f5.click" /><animate id="11" attributeName="stroke-dashoffset" values="43.19;0" dur="0.43s" fill="freeze" begin="10.end" /></path><path d="M73.51,53.3c0.66,0.45,1.05,2.23,1.19,3.26c0.13,1.03,0,24.68-0.13,31.2" stroke-dasharray="34.74" stroke-dashoffset="34.74"><animate attributeName="stroke-dashoffset" values="34.74" fill="freeze" begin="71f5.click" /><animate id="12" attributeName="stroke-dashoffset" values="34.74;0" dur="0.35s" fill="freeze" begin="11.end" /></path></g><g><path d="M42.67,15.75c2.99,1.48,7.72,6.08,8.47,8.38" stroke-dasharray="12.09" stroke-dashoffset="12.09"><animate attributeName="stroke-dashoffset" values="12.09" fill="freeze" begin="71f5.click" /><animate id="13" attributeName="stroke-dashoffset" values="12.09;0" dur="0.12s" fill="freeze" begin="12.end" /></path><path d="M40.92,37.25c3.17,1.44,8.18,5.9,8.97,8.13" stroke-dasharray="12.28" stroke-dashoffset="12.28"><animate attributeName="stroke-dashoffset" values="12.28" fill="freeze" begin="71f5.click" /><animate id="14" attributeName="stroke-dashoffset" values="12.28;0" dur="0.12s" fill="freeze" begin="13.end" /></path><path d="M36.5,56.06c1.92,0.87,3.2,0.43,4.06,0.22c0.85-0.22,6.12-1.16,7.26-1.95c1.14-0.79,3.42,0.32,2.28,2.22c-0.8,1.34-4.16,6.64-4.92,7.63c-1.57,2.06-1.57,4.03,1.07,6.15c0.86,0.69,1.46,1.69,2.35,2.8c1.28,1.59,1.14,2.86-0.43,4.77c-1.09,1.33-6.41,5.67-7.69,6.11" stroke-dasharray="51.3" stroke-dashoffset="51.3"><animate attributeName="stroke-dashoffset" values="51.3" fill="freeze" begin="71f5.click" /><animate id="15" attributeName="stroke-dashoffset" values="51.3;0" dur="0.51s" fill="freeze" begin="14.end" /></path><path d="M36.61,86.59c2.33-0.54,7-1.89,10.5-0.81c3.5,1.08,23.33,6.03,26.84,7.03c10.5,2.97,15.76,2.97,23.54,1.89" stroke-dasharray="62.24" stroke-dashoffset="62.24"><animate attributeName="stroke-dashoffset" values="62.24" fill="freeze" begin="71f5.click" /><animate id="16" attributeName="stroke-dashoffset" values="62.24;0" dur="0.47s" fill="freeze" begin="15.end" /></path></g></g></g></g></svg>