<svg xmlns="http://www.w3.org/2000/svg" width="109" height="109" viewBox="0 0 109 109" id="71fc"><g fill="none" stroke="#666" stroke-width="9" stroke-linecap="round" stroke-linejoin="round"><g><g><path d="M11.24,36c1.96,3.15,4.81,12.1,5.34,15.25" /><path d="M36.93,31.75c0.07,1.5,0.39,2.51-0.16,3.52c-0.56,1.01-5.76,7.89-8.54,10.23" /><path d="M24.75,15.75c0.76,0.75,1.02,2.25,1.03,3.5C26,70.75,23,80,11.5,93" /><path d="M26.25,66.5c4.55,2.73,10.3,11.38,11.5,15.25" /></g><g><g><g p6:partial xmlns:p6="http://kanjivg.tagaini.net"><g><path d="M47.92,21.23c2.08,0.22,2.67,0.57,4.59,0.43c9.24-0.66,20.76-1.25,29.1-1.68c2.71-0.14,4.06,1.05,3.67,3.23c-0.62,3.45-1.62,10.41-3.08,20.11" /><path d="M42.88,32.77c1.93,0.38,3.43,0.48,5.58,0.38c10.05-0.5,28.39-1.99,43.19-2.56C94,30.5,95.93,30.96,97,31.15" /><path d="M48.26,44.36c1.04,0.21,2.92,0.26,4.17,0.21c9.07-0.32,18.57-0.82,28.31-1.25c1.67-0.07,2.71,0,3.96,0.22" /></g><g><path d="M39.82,55.32c1.27,0.47,3.59,0.51,4.85,0.47c14.83-0.54,34.69-1.65,46.21-2.04c2.11-0.07,3.38,0.22,4.43,0.46" /></g><path d="M65.83,11.75c0.91,0.43,1.63,1.91,1.63,2.8c0,4.77-0.18,32.38-0.18,38.98" /></g><g><path d="M46.84,62.79c0,3.24-5.22,8.02-6.59,8.94" /><path d="M56.86,60.68c2.55,1.77,4.98,6.65,5.62,9.41" /><path d="M72.75,59.72c2.07,1.53,5.35,6.27,5.87,8.65" /><path d="M88.17,59.21c2.97,1.87,7.67,7.69,8.42,10.6" /></g></g><g><path d="M47,73.42c0.46,0.53,1.06,1.11,1.15,1.57c0.78,3.61,1.41,12.58,1.94,19.06" /><path d="M48.86,74.98c8.26-0.75,34.48-2.58,37.48-2.48c1.3,0.04,2.7,0.82,2.39,2.16c-0.48,2.09-2.98,11.24-3.49,17.9" /><path d="M60.81,75.18c0.19,0.34,0.45,1.55,0.47,2c0.22,5.82,1.03,8.7,1.08,15.63" /><path d="M73.43,73.6c0.35,0.41,0.63,1.11,0.63,1.64c0,5.63-0.68,10.17-0.68,17.63" /><path d="M35.07,93.93c1.54,0.75,4.36,0.87,5.9,0.75c16.02-1.25,22.57-1.65,52.07-1.85c2.57-0.02,4.11,0.36,5.39,0.73" /></g></g></g></g><g fill="none" stroke="#000" stroke-width="5" stroke-linecap="round" stroke-linejoin="round"><g><g><path d="M11.24,36c1.96,3.15,4.81,12.1,5.34,15.25" stroke-dasharray="16.21" stroke-dashoffset="16.21"><animate id="0" attributeName="stroke-dashoffset" values="16.21;0" dur="0.16s" fill="freeze" begin="0s;71fc.click" /></path><path d="M36.93,31.75c0.07,1.5,0.39,2.51-0.16,3.52c-0.56,1.01-5.76,7.89-8.54,10.23" stroke-dasharray="16.93" stroke-dashoffset="16.93"><animate attributeName="stroke-dashoffset" values="16.93" fill="freeze" begin="71fc.click" /><animate id="1" attributeName="stroke-dashoffset" values="16.93;0" dur="0.17s" fill="freeze" begin="0.end" /></path><path d="M24.75,15.75c0.76,0.75,1.02,2.25,1.03,3.5C26,70.75,23,80,11.5,93" stroke-dasharray="80.77" stroke-dashoffset="80.77"><animate attributeName="stroke-dashoffset" values="80.77" fill="freeze" begin="71fc.click" /><animate id="2" attributeName="stroke-dashoffset" values="80.77;0" dur="0.61s" fill="freeze" begin="1.end" /></path><path d="M26.25,66.5c4.55,2.73,10.3,11.38,11.5,15.25" stroke-dasharray="19.36" stroke-dashoffset="19.36"><animate attributeName="stroke-dashoffset" values="19.36" fill="freeze" begin="71fc.click" /><animate id="3" attributeName="stroke-dashoffset" values="19.36;0" dur="0.19s" fill="freeze" begin="2.end" /></path></g><g><g><g p6:partial xmlns:p6="http://kanjivg.tagaini.net"><g><path d="M47.92,21.23c2.08,0.22,2.67,0.57,4.59,0.43c9.24-0.66,20.76-1.25,29.1-1.68c2.71-0.14,4.06,1.05,3.67,3.23c-0.62,3.45-1.62,10.41-3.08,20.11" stroke-dasharray="59.98" stroke-dashoffset="59.98"><animate attributeName="stroke-dashoffset" values="59.98" fill="freeze" begin="71fc.click" /><animate id="4" attributeName="stroke-dashoffset" values="59.98;0" dur="0.6s" fill="freeze" begin="3.end" /></path><path d="M42.88,32.77c1.93,0.38,3.43,0.48,5.58,0.38c10.05-0.5,28.39-1.99,43.19-2.56C94,30.5,95.93,30.96,97,31.15" stroke-dasharray="54.27" stroke-dashoffset="54.27"><animate attributeName="stroke-dashoffset" values="54.27" fill="freeze" begin="71fc.click" /><animate id="5" attributeName="stroke-dashoffset" values="54.27;0" dur="0.54s" fill="freeze" begin="4.end" /></path><path d="M48.26,44.36c1.04,0.21,2.92,0.26,4.17,0.21c9.07-0.32,18.57-0.82,28.31-1.25c1.67-0.07,2.71,0,3.96,0.22" stroke-dasharray="36.5" stroke-dashoffset="36.5"><animate attributeName="stroke-dashoffset" values="36.5" fill="freeze" begin="71fc.click" /><animate id="6" attributeName="stroke-dashoffset" values="36.5;0" dur="0.36s" fill="freeze" begin="5.end" /></path></g><g><path d="M39.82,55.32c1.27,0.47,3.59,0.51,4.85,0.47c14.83-0.54,34.69-1.65,46.21-2.04c2.11-0.07,3.38,0.22,4.43,0.46" stroke-dasharray="55.62" stroke-dashoffset="55.62"><animate attributeName="stroke-dashoffset" values="55.62" fill="freeze" begin="71fc.click" /><animate id="7" attributeName="stroke-dashoffset" values="55.62;0" dur="0.56s" fill="freeze" begin="6.end" /></path></g><path d="M65.83,11.75c0.91,0.43,1.63,1.91,1.63,2.8c0,4.77-0.18,32.38-0.18,38.98" stroke-dasharray="42.35" stroke-dashoffset="42.35"><animate attributeName="stroke-dashoffset" values="42.35" fill="freeze" begin="71fc.click" /><animate id="8" attributeName="stroke-dashoffset" values="42.35;0" dur="0.42s" fill="freeze" begin="7.end" /></path></g><g><path d="M46.84,62.79c0,3.24-5.22,8.02-6.59,8.94" stroke-dasharray="11.38" stroke-dashoffset="11.38"><animate attributeName="stroke-dashoffset" values="11.38" fill="freeze" begin="71fc.click" /><animate id="9" attributeName="stroke-dashoffset" values="11.38;0" dur="0.11s" fill="freeze" begin="8.end" /></path><path d="M56.86,60.68c2.55,1.77,4.98,6.65,5.62,9.41" stroke-dasharray="11.14" stroke-dashoffset="11.14"><animate attributeName="stroke-dashoffset" values="11.14" fill="freeze" begin="71fc.click" /><animate id="10" attributeName="stroke-dashoffset" values="11.14;0" dur="0.11s" fill="freeze" begin="9.end" /></path><path d="M72.75,59.72c2.07,1.53,5.35,6.27,5.87,8.65" stroke-dasharray="10.58" stroke-dashoffset="10.58"><animate attributeName="stroke-dashoffset" values="10.58" fill="freeze" begin="71fc.click" /><animate id="11" attributeName="stroke-dashoffset" values="10.58;0" dur="0.11s" fill="freeze" begin="10.end" /></path><path d="M88.17,59.21c2.97,1.87,7.67,7.69,8.42,10.6" stroke-dasharray="13.72" stroke-dashoffset="13.72"><animate attributeName="stroke-dashoffset" values="13.72" fill="freeze" begin="71fc.click" /><animate id="12" attributeName="stroke-dashoffset" values="13.72;0" dur="0.14s" fill="freeze" begin="11.end" /></path></g></g><g><path d="M47,73.42c0.46,0.53,1.06,1.11,1.15,1.57c0.78,3.61,1.41,12.58,1.94,19.06" stroke-dasharray="21.13" stroke-dashoffset="21.13"><animate attributeName="stroke-dashoffset" values="21.13" fill="freeze" begin="71fc.click" /><animate id="13" attributeName="stroke-dashoffset" values="21.13;0" dur="0.21s" fill="freeze" begin="12.end" /></path><path d="M48.86,74.98c8.26-0.75,34.48-2.58,37.48-2.48c1.3,0.04,2.7,0.82,2.39,2.16c-0.48,2.09-2.98,11.24-3.49,17.9" stroke-dasharray="59.53" stroke-dashoffset="59.53"><animate attributeName="stroke-dashoffset" values="59.53" fill="freeze" begin="71fc.click" /><animate id="14" attributeName="stroke-dashoffset" values="59.53;0" dur="0.6s" fill="freeze" begin="13.end" /></path><path d="M60.81,75.18c0.19,0.34,0.45,1.55,0.47,2c0.22,5.82,1.03,8.7,1.08,15.63" stroke-dasharray="17.74" stroke-dashoffset="17.74"><animate attributeName="stroke-dashoffset" values="17.74" fill="freeze" begin="71fc.click" /><animate id="15" attributeName="stroke-dashoffset" values="17.74;0" dur="0.18s" fill="freeze" begin="14.end" /></path><path d="M73.43,73.6c0.35,0.41,0.63,1.11,0.63,1.64c0,5.63-0.68,10.17-0.68,17.63" stroke-dasharray="19.43" stroke-dashoffset="19.43"><animate attributeName="stroke-dashoffset" values="19.43" fill="freeze" begin="71fc.click" /><animate id="16" attributeName="stroke-dashoffset" values="19.43;0" dur="0.19s" fill="freeze" begin="15.end" /></path><path d="M35.07,93.93c1.54,0.75,4.36,0.87,5.9,0.75c16.02-1.25,22.57-1.65,52.07-1.85c2.57-0.02,4.11,0.36,5.39,0.73" stroke-dasharray="63.58" stroke-dashoffset="63.58"><animate attributeName="stroke-dashoffset" values="63.58" fill="freeze" begin="71fc.click" /><animate id="17" attributeName="stroke-dashoffset" values="63.58;0" dur="0.48s" fill="freeze" begin="16.end" /></path></g></g></g></g></svg>