<svg xmlns="http://www.w3.org/2000/svg" width="109" height="109" viewBox="0 0 109 109" id="722c"><g fill="none" stroke="#666" stroke-width="9" stroke-linecap="round" stroke-linejoin="round"><g><g><g><path d="M45.87,14c0.06,0.31-0.09,1.29-0.47,1.63c-4.63,4.32-11.47,8.68-23.53,12.16" /></g><path d="M19.22,27.25c0.27,0.72,0.78,1.99,0.74,4.05C19.59,51.37,21,77,10.81,88.97" /><path d="M31.17,27.25c0.98,0.62,1.76,2.76,1.76,4.03c0,6.47-0.2,52.97-0.2,63.47" /><path d="M40.94,21.28C44.75,57,52.25,83,83,89.75c4.06,0.89,7.25,1.5,11.25,2" /></g><g><g p5:part="1" xmlns:p5="http://kanjivg.tagaini.net"><path d="M58,19.5c0.68,0.34,1.91,1.21,3.49,1.12c9.76-0.62,20.88-1.34,25.88-1.84c2.21-0.22,3.23,2.53,3.09,3.85C90,27,88.5,37.25,87.18,44.34" /><path d="M73.05,21.17c0.48,0.34,0.95,2.51,0.95,3.2c0,5.63-0.3,10.13-0.3,17.81" /></g><g p5:part="2" xmlns:p5="http://kanjivg.tagaini.net"><path d="M60.68,43.37c5.57-0.12,21.82-1.37,26.97-1.63" /><path d="M59.88,20.32c0.52,1.02,0.43,2.21,0.46,3.78c0.14,6.99-0.26,25.71-0.26,30.43c0,14.22,0.92,17.26,18.25,17.26c15.92,0,16.76-3.79,16.76-10.57" /></g></g></g></g><g fill="none" stroke="#000" stroke-width="5" stroke-linecap="round" stroke-linejoin="round"><g><g><g><path d="M45.87,14c0.06,0.31-0.09,1.29-0.47,1.63c-4.63,4.32-11.47,8.68-23.53,12.16" stroke-dasharray="28.48" stroke-dashoffset="28.48"><animate id="0" attributeName="stroke-dashoffset" values="28.48;0" dur="0.28s" fill="freeze" begin="0s;722c.click" /></path></g><path d="M19.22,27.25c0.27,0.72,0.78,1.99,0.74,4.05C19.59,51.37,21,77,10.81,88.97" stroke-dasharray="63.53" stroke-dashoffset="63.53"><animate attributeName="stroke-dashoffset" values="63.53" fill="freeze" begin="722c.click" /><animate id="1" attributeName="stroke-dashoffset" values="63.53;0" dur="0.48s" fill="freeze" begin="0.end" /></path><path d="M31.17,27.25c0.98,0.62,1.76,2.76,1.76,4.03c0,6.47-0.2,52.97-0.2,63.47" stroke-dasharray="68" stroke-dashoffset="68"><animate attributeName="stroke-dashoffset" values="68" fill="freeze" begin="722c.click" /><animate id="2" attributeName="stroke-dashoffset" values="68;0" dur="0.51s" fill="freeze" begin="1.end" /></path><path d="M40.94,21.28C44.75,57,52.25,83,83,89.75c4.06,0.89,7.25,1.5,11.25,2" stroke-dasharray="98.43" stroke-dashoffset="98.43"><animate attributeName="stroke-dashoffset" values="98.43" fill="freeze" begin="722c.click" /><animate id="3" attributeName="stroke-dashoffset" values="98.43;0" dur="0.74s" fill="freeze" begin="2.end" /></path></g><g><g p5:part="1" xmlns:p5="http://kanjivg.tagaini.net"><path d="M58,19.5c0.68,0.34,1.91,1.21,3.49,1.12c9.76-0.62,20.88-1.34,25.88-1.84c2.21-0.22,3.23,2.53,3.09,3.85C90,27,88.5,37.25,87.18,44.34" stroke-dasharray="57.19" stroke-dashoffset="57.19"><animate attributeName="stroke-dashoffset" values="57.19" fill="freeze" begin="722c.click" /><animate id="4" attributeName="stroke-dashoffset" values="57.19;0" dur="0.57s" fill="freeze" begin="3.end" /></path><path d="M73.05,21.17c0.48,0.34,0.95,2.51,0.95,3.2c0,5.63-0.3,10.13-0.3,17.81" stroke-dasharray="21.2" stroke-dashoffset="21.2"><animate attributeName="stroke-dashoffset" values="21.2" fill="freeze" begin="722c.click" /><animate id="5" attributeName="stroke-dashoffset" values="21.2;0" dur="0.21s" fill="freeze" begin="4.end" /></path></g><g p5:part="2" xmlns:p5="http://kanjivg.tagaini.net"><path d="M60.68,43.37c5.57-0.12,21.82-1.37,26.97-1.63" stroke-dasharray="27.02" stroke-dashoffset="27.02"><animate attributeName="stroke-dashoffset" values="27.02" fill="freeze" begin="722c.click" /><animate id="6" attributeName="stroke-dashoffset" values="27.02;0" dur="0.27s" fill="freeze" begin="5.end" /></path><path d="M59.88,20.32c0.52,1.02,0.43,2.21,0.46,3.78c0.14,6.99-0.26,25.71-0.26,30.43c0,14.22,0.92,17.26,18.25,17.26c15.92,0,16.76-3.79,16.76-10.57" stroke-dasharray="88.48" stroke-dashoffset="88.48"><animate attributeName="stroke-dashoffset" values="88.48" fill="freeze" begin="722c.click" /><animate id="7" attributeName="stroke-dashoffset" values="88.48;0" dur="0.67s" fill="freeze" begin="6.end" /></path></g></g></g></g></svg>