<svg xmlns="http://www.w3.org/2000/svg" viewBox="0 0 109 109" id="7235"><g fill="none" stroke="#666" stroke-width="6" stroke-linecap="round" stroke-linejoin="round"><g><g><path d="M67.46,9.39c0,0.86-0.78,1.78-1.39,2.2c-3.76,2.6-17.04,6.87-34.51,9.87" /><path d="M29.14,26.21c2.09,1.28,5.4,5.27,5.92,7.26" /><path d="M48.89,22.71c1.91,1.41,4.94,5.81,5.42,8.01" /><path d="M76.27,17.39c0.08,0.84-0.04,1.65-0.37,2.42c-1.78,3.44-3.6,6.84-9.34,12.16" /></g><g><g><path d="M22.53,37.47c0.81,0.81,1.46,1.79,1.63,2.77c0.72,4.01,1.16,5.67,1.83,9.47c0.25,1.39,0.47,2.69,0.67,3.78" /><path d="M24.45,38.24c15.82-1.77,43.97-4.14,59.3-4.9c3.24-0.16,5.91,0.9,4.44,5.02c-0.63,1.76-1.28,3.02-2.3,5.45c-0.61,1.44-1.26,2.88-1.93,4.25" /><path d="M43.25,38c0.6,0.67,0.85,1.11,1.04,2.31c0.41,2.53,1.02,6.19,1.14,7.28" /><path d="M63.79,36.12c0.79,0.79,0.88,1.62,0.74,2.69c-0.37,2.8-0.94,6.37-1.22,7.44" /><path d="M27.75,50.77c19.62-2.02,43.75-3.9,56.25-4.25" /></g><g p5:partial xmlns:p5="http://kanjivg.tagaini.net"><path d="M25.12,59.03c1.38,1.22,3.35,1.13,4.88,0.94c4.38-0.53,11.91-1.39,15.14-1.75c3.17-0.36,4.36,0.77,4.13,3.43c-0.32,3.66-1.06,8.64-1.7,12.36c-0.44,2.57-0.75,4.44-0.75,4.63" /><path d="M27.8,69.16c4.95-0.53,13.08-1.78,19.34-2.24" /><path d="M28.25,78.5c4.75-0.62,11.5-1.62,17.42-2.12" /><path d="M25.62,59.78c0.74,0.74,1.09,1.59,1.09,2.84c0,4-0.07,30.12-0.07,34.17c0,1.8,0.65,2.94,2.78,1.55c2.12-1.4,12-6.85,16.43-9.02" /><path d="M42.75,84.08c2.61,2.05,6.71,7.51,8.2,11.84" /></g><g><path d="M55.62,65.27c2.62,0.61,4.75,0.43,6.89,0.19c8.03-0.88,19.86-2.62,27.11-3.33c2-0.2,3.88-0.38,5.76,0.04" /><path d="M79.5,52.08c1.21,1.21,1.63,2.92,1.63,4.38c0,14.32,0.07,36.75,0.07,40.23c0,8.45-5.28,1.25-6.82,0.18" /><path d="M61.5,74.12c2.64,2.02,6.82,8.3,7.48,11.44" /></g></g></g></g><g fill="none" stroke="#000" stroke-width="3" stroke-linecap="round" stroke-linejoin="round"><path d="M67.46,9.39c0,0.86-0.78,1.78-1.39,2.2c-3.76,2.6-17.04,6.87-34.51,9.87" stroke-dasharray="38.732" stroke-dashoffset="38.732"><animate attributeName="stroke-dashoffset" values="38.732;38.732;0" dur="0.387s" fill="freeze" begin="0s;7235.click" /></path><path d="M29.14,26.21c2.09,1.28,5.4,5.27,5.92,7.26" stroke-dasharray="9.498" stroke-dashoffset="9.498"><animate attributeName="stroke-dashoffset" values="9.498" fill="freeze" begin="7235.click" /><animate attributeName="stroke-dashoffset" values="9.498;9.498;0" keyTimes="0;0.803;1" dur="0.482s" fill="freeze" begin="0s;7235.click" /></path><path d="M48.89,22.71c1.91,1.41,4.94,5.81,5.42,8.01" stroke-dasharray="9.791" stroke-dashoffset="9.791"><animate attributeName="stroke-dashoffset" values="9.791" fill="freeze" begin="7235.click" /><animate attributeName="stroke-dashoffset" values="9.791;9.791;0" keyTimes="0;0.831;1" dur="0.58s" fill="freeze" begin="0s;7235.click" /></path><path d="M76.27,17.39c0.08,0.84-0.04,1.65-0.37,2.42c-1.78,3.44-3.6,6.84-9.34,12.16" stroke-dasharray="17.906" stroke-dashoffset="17.906"><animate attributeName="stroke-dashoffset" values="17.906" fill="freeze" begin="7235.click" /><animate attributeName="stroke-dashoffset" values="17.906;17.906;0" keyTimes="0;0.764;1" dur="0.759s" fill="freeze" begin="0s;7235.click" /></path><path d="M22.53,37.47c0.81,0.81,1.46,1.79,1.63,2.77c0.72,4.01,1.16,5.67,1.83,9.47c0.25,1.39,0.47,2.69,0.67,3.78" stroke-dasharray="16.748" stroke-dashoffset="16.748"><animate attributeName="stroke-dashoffset" values="16.748" fill="freeze" begin="7235.click" /><animate attributeName="stroke-dashoffset" values="16.748;16.748;0" keyTimes="0;0.82;1" dur="0.926s" fill="freeze" begin="0s;7235.click" /></path><path d="M24.45,38.24c15.82-1.77,43.97-4.14,59.3-4.9c3.24-0.16,5.91,0.9,4.44,5.02c-0.63,1.76-1.28,3.02-2.3,5.45c-0.61,1.44-1.26,2.88-1.93,4.25" stroke-dasharray="78.692" stroke-dashoffset="78.692"><animate attributeName="stroke-dashoffset" values="78.692" fill="freeze" begin="7235.click" /><animate attributeName="stroke-dashoffset" values="78.692;78.692;0" keyTimes="0;0.61;1" dur="1.518s" fill="freeze" begin="0s;7235.click" /></path><path d="M43.25,38c0.6,0.67,0.85,1.11,1.04,2.31c0.41,2.53,1.02,6.19,1.14,7.28" stroke-dasharray="9.951" stroke-dashoffset="9.951"><animate attributeName="stroke-dashoffset" values="9.951" fill="freeze" begin="7235.click" /><animate attributeName="stroke-dashoffset" values="9.951;9.951;0" keyTimes="0;0.938;1" dur="1.618s" fill="freeze" begin="0s;7235.click" /></path><path d="M63.79,36.12c0.79,0.79,0.88,1.62,0.74,2.69c-0.37,2.8-0.94,6.37-1.22,7.44" stroke-dasharray="10.454" stroke-dashoffset="10.454"><animate attributeName="stroke-dashoffset" values="10.454" fill="freeze" begin="7235.click" /><animate attributeName="stroke-dashoffset" values="10.454;10.454;0" keyTimes="0;0.939;1" dur="1.723s" fill="freeze" begin="0s;7235.click" /></path><path d="M27.75,50.77c19.62-2.02,43.75-3.9,56.25-4.25" stroke-dasharray="56.421" stroke-dashoffset="56.421"><animate attributeName="stroke-dashoffset" values="56.421" fill="freeze" begin="7235.click" /><animate attributeName="stroke-dashoffset" values="56.421;56.421;0" keyTimes="0;0.753;1" dur="2.287s" fill="freeze" begin="0s;7235.click" /></path><path d="M25.12,59.03c1.38,1.22,3.35,1.13,4.88,0.94c4.38-0.53,11.91-1.39,15.14-1.75c3.17-0.36,4.36,0.77,4.13,3.43c-0.32,3.66-1.06,8.64-1.7,12.36c-0.44,2.57-0.75,4.44-0.75,4.63" stroke-dasharray="44.094" stroke-dashoffset="44.094"><animate attributeName="stroke-dashoffset" values="44.094" fill="freeze" begin="7235.click" /><animate attributeName="stroke-dashoffset" values="44.094;44.094;0" keyTimes="0;0.838;1" dur="2.728s" fill="freeze" begin="0s;7235.click" /></path><path d="M27.8,69.16c4.95-0.53,13.08-1.78,19.34-2.24" stroke-dasharray="19.472" stroke-dashoffset="19.472"><animate attributeName="stroke-dashoffset" values="19.472" fill="freeze" begin="7235.click" /><animate attributeName="stroke-dashoffset" values="19.472;19.472;0" keyTimes="0;0.933;1" dur="2.923s" fill="freeze" begin="0s;7235.click" /></path><path d="M28.25,78.5c4.75-0.62,11.5-1.62,17.42-2.12" stroke-dasharray="17.551" stroke-dashoffset="17.551"><animate attributeName="stroke-dashoffset" values="17.551" fill="freeze" begin="7235.click" /><animate attributeName="stroke-dashoffset" values="17.551;17.551;0" keyTimes="0;0.943;1" dur="3.099s" fill="freeze" begin="0s;7235.click" /></path><path d="M25.62,59.78c0.74,0.74,1.09,1.59,1.09,2.84c0,4-0.07,30.12-0.07,34.17c0,1.8,0.65,2.94,2.78,1.55c2.12-1.4,12-6.85,16.43-9.02" stroke-dasharray="60.545" stroke-dashoffset="60.545"><animate attributeName="stroke-dashoffset" values="60.545" fill="freeze" begin="7235.click" /><animate attributeName="stroke-dashoffset" values="60.545;60.545;0" keyTimes="0;0.872;1" dur="3.554s" fill="freeze" begin="0s;7235.click" /></path><path d="M42.75,84.08c2.61,2.05,6.71,7.51,8.2,11.84" stroke-dasharray="14.544" stroke-dashoffset="14.544"><animate attributeName="stroke-dashoffset" values="14.544" fill="freeze" begin="7235.click" /><animate attributeName="stroke-dashoffset" values="14.544;14.544;0" keyTimes="0;0.961;1" dur="3.699s" fill="freeze" begin="0s;7235.click" /></path><path d="M55.62,65.27c2.62,0.61,4.75,0.43,6.89,0.19c8.03-0.88,19.86-2.62,27.11-3.33c2-0.2,3.88-0.38,5.76,0.04" stroke-dasharray="40.033" stroke-dashoffset="40.033"><animate attributeName="stroke-dashoffset" values="40.033" fill="freeze" begin="7235.click" /><animate attributeName="stroke-dashoffset" values="40.033;40.033;0" keyTimes="0;0.902;1" dur="4.099s" fill="freeze" begin="0s;7235.click" /></path><path d="M79.5,52.08c1.21,1.21,1.63,2.92,1.63,4.38c0,14.32,0.07,36.75,0.07,40.23c0,8.45-5.28,1.25-6.82,0.18" stroke-dasharray="56.395" stroke-dashoffset="56.395"><animate attributeName="stroke-dashoffset" values="56.395" fill="freeze" begin="7235.click" /><animate attributeName="stroke-dashoffset" values="56.395;56.395;0" keyTimes="0;0.879;1" dur="4.663s" fill="freeze" begin="0s;7235.click" /></path><path d="M61.5,74.12c2.64,2.02,6.82,8.3,7.48,11.44" stroke-dasharray="13.833" stroke-dashoffset="13.833"><animate attributeName="stroke-dashoffset" values="13.833" fill="freeze" begin="7235.click" /><animate attributeName="stroke-dashoffset" values="13.833;13.833;0" keyTimes="0;0.971;1" dur="4.801s" fill="freeze" begin="0s;7235.click" /></path></g></svg>