<svg xmlns="http://www.w3.org/2000/svg" width="109" height="109" viewBox="0 0 109 109" id="723c"><g fill="none" stroke="#666" stroke-width="9" stroke-linecap="round" stroke-linejoin="round"><g><g><g><g><path d="M43.69,14.39c0.09,0.81,0.18,2.1-0.17,3.27c-2.1,6.9-14.18,22.04-30.71,31.3" /></g><path d="M18.41,21.77C28.25,25.5,40.5,36,45.56,44.17" /></g><g><g><path d="M43.51,51.64c0.09,0.92,0.18,2.38-0.17,3.7c-2.06,7.8-13.87,24.9-30.03,35.38" /></g><path d="M20,58.95c9.9,3.9,22.22,14.87,27.31,23.41" /></g></g><g><g><path d="M58.13,20.09c0.53,1.03,0.88,2.05,1.06,3.06c0.18,1.01,0.39,63.58,0.32,65.81" /><path d="M60.24,21.23c2.05-0.1,20.83-2.48,22.35-2.66c2.73-0.31,3.77,3.51,3.44,4.98c-0.33,1.41-0.16,43.71-0.26,63.89" /><path d="M60.31,43.4c7.94-0.65,18.43-0.94,24.58-1.25" /><path d="M60.72,63.86c5.46-0.36,17.41-0.76,23.72-0.81" /></g><g><path d="M39.54,90.24c1.3,0.51,3.68,0.59,4.98,0.51c13.51-0.85,37.97-2.42,51.57-2.42c2.17,0,3.46,0.24,4.55,0.5" /></g></g></g></g><g fill="none" stroke="#000" stroke-width="5" stroke-linecap="round" stroke-linejoin="round"><g><g><g><g><path d="M43.69,14.39c0.09,0.81,0.18,2.1-0.17,3.27c-2.1,6.9-14.18,22.04-30.71,31.3" stroke-dasharray="47.87" stroke-dashoffset="47.87"><animate id="0" attributeName="stroke-dashoffset" values="47.87;0" dur="0.48s" fill="freeze" begin="0s;723c.click" /></path></g><path d="M18.41,21.77C28.25,25.5,40.5,36,45.56,44.17" stroke-dasharray="35.68" stroke-dashoffset="35.68"><animate attributeName="stroke-dashoffset" values="35.68" fill="freeze" begin="723c.click" /><animate id="1" attributeName="stroke-dashoffset" values="35.68;0" dur="0.36s" fill="freeze" begin="0.end" /></path></g><g><g><path d="M43.51,51.64c0.09,0.92,0.18,2.38-0.17,3.7c-2.06,7.8-13.87,24.9-30.03,35.38" stroke-dasharray="50.86" stroke-dashoffset="50.86"><animate attributeName="stroke-dashoffset" values="50.86" fill="freeze" begin="723c.click" /><animate id="2" attributeName="stroke-dashoffset" values="50.86;0" dur="0.51s" fill="freeze" begin="1.end" /></path></g><path d="M20,58.95c9.9,3.9,22.22,14.87,27.31,23.41" stroke-dasharray="36.47" stroke-dashoffset="36.47"><animate attributeName="stroke-dashoffset" values="36.47" fill="freeze" begin="723c.click" /><animate id="3" attributeName="stroke-dashoffset" values="36.47;0" dur="0.36s" fill="freeze" begin="2.end" /></path></g></g><g><g><path d="M58.13,20.09c0.53,1.03,0.88,2.05,1.06,3.06c0.18,1.01,0.39,63.58,0.32,65.81" stroke-dasharray="69.06" stroke-dashoffset="69.06"><animate attributeName="stroke-dashoffset" values="69.06" fill="freeze" begin="723c.click" /><animate id="4" attributeName="stroke-dashoffset" values="69.06;0" dur="0.52s" fill="freeze" begin="3.end" /></path><path d="M60.24,21.23c2.05-0.1,20.83-2.48,22.35-2.66c2.73-0.31,3.77,3.51,3.44,4.98c-0.33,1.41-0.16,43.71-0.26,63.89" stroke-dasharray="93.3" stroke-dashoffset="93.3"><animate attributeName="stroke-dashoffset" values="93.3" fill="freeze" begin="723c.click" /><animate id="5" attributeName="stroke-dashoffset" values="93.3;0" dur="0.7s" fill="freeze" begin="4.end" /></path><path d="M60.31,43.4c7.94-0.65,18.43-0.94,24.58-1.25" stroke-dasharray="24.61" stroke-dashoffset="24.61"><animate attributeName="stroke-dashoffset" values="24.61" fill="freeze" begin="723c.click" /><animate id="6" attributeName="stroke-dashoffset" values="24.61;0" dur="0.25s" fill="freeze" begin="5.end" /></path><path d="M60.72,63.86c5.46-0.36,17.41-0.76,23.72-0.81" stroke-dasharray="23.74" stroke-dashoffset="23.74"><animate attributeName="stroke-dashoffset" values="23.74" fill="freeze" begin="723c.click" /><animate id="7" attributeName="stroke-dashoffset" values="23.74;0" dur="0.24s" fill="freeze" begin="6.end" /></path></g><g><path d="M39.54,90.24c1.3,0.51,3.68,0.59,4.98,0.51c13.51-0.85,37.97-2.42,51.57-2.42c2.17,0,3.46,0.24,4.55,0.5" stroke-dasharray="61.26" stroke-dashoffset="61.26"><animate attributeName="stroke-dashoffset" values="61.26" fill="freeze" begin="723c.click" /><animate id="8" attributeName="stroke-dashoffset" values="61.26;0" dur="0.46s" fill="freeze" begin="7.end" /></path></g></g></g></g></svg>