<svg xmlns="http://www.w3.org/2000/svg" width="109" height="109" viewBox="0 0 109 109" id="7240"><g fill="none" stroke="#666" stroke-width="9" stroke-linecap="round" stroke-linejoin="round"><g><g><path d="M32.6,10.22c1.2,1.37,1.98,3.71,1.98,5.33c0,15.46-0.04,77.81-0.04,83.08" /><path d="M14.25,17.42c1.37,0.64,1.89,1.38,2.01,3.48c0.18,3.15-0.74,16.01-1.16,19.31c-0.14,1.05,0.24,2.62,2.28,2.46c7.19-0.58,12.13-1.43,16.68-2.08" /><path d="M8.8,57.68c1.33,0.14,1.61,0.57,3.17,0.47c6.66-0.42,17.69-1.92,22.34-2.15" /><path d="M20.74,57.89c0.03,0.87-0.05,2.22-0.05,3.47c0,10.64,0.57,25.89-9.17,33.23" /></g><g><path d="M42,35.2c1.57,0.49,3.36,0.65,5.17,0.49c9.21-0.8,29.94-3.6,43.87-4.54c1.79-0.12,2.92,0.08,4.72,0.43" /><path d="M65.5,11.25c1.25,1.25,2.25,3.22,2.25,4.25c0,10.5,0,77.25-0.25,83.5" /><path d="M67,34.25C62.62,48.39,50.87,70,41.75,78" /><path d="M67.75,35.5C72.5,46.75,87.5,71.25,92.86,77.57c1.57,1.85,2.53,2.86,3.89,3.43" /></g></g></g><g fill="none" stroke="#000" stroke-width="5" stroke-linecap="round" stroke-linejoin="round"><g><g><path d="M32.6,10.22c1.2,1.37,1.98,3.71,1.98,5.33c0,15.46-0.04,77.81-0.04,83.08" stroke-dasharray="88.869" stroke-dashoffset="88.869"><animate attributeName="stroke-dashoffset" values="88.869;88.869;0" dur="0.668s" fill="freeze" begin="0s;7240.click" /></path><path d="M14.25,17.42c1.37,0.64,1.89,1.38,2.01,3.48c0.18,3.15-0.74,16.01-1.16,19.31c-0.14,1.05,0.24,2.62,2.28,2.46c7.19-0.58,12.13-1.43,16.68-2.08" stroke-dasharray="44.433" stroke-dashoffset="44.433"><animate attributeName="stroke-dashoffset" values="44.433" fill="freeze" begin="7240.click" /><animate attributeName="stroke-dashoffset" values="44.433;44.433;0" keyTimes="0;0.601;1" dur="1.112s" fill="freeze" begin="0s;7240.click" /></path><path d="M8.8,57.68c1.33,0.14,1.61,0.57,3.17,0.47c6.66-0.42,17.69-1.92,22.34-2.15" stroke-dasharray="25.668" stroke-dashoffset="25.668"><animate attributeName="stroke-dashoffset" values="25.668" fill="freeze" begin="7240.click" /><animate attributeName="stroke-dashoffset" values="25.668;25.668;0" keyTimes="0;0.812;1" dur="1.369s" fill="freeze" begin="0s;7240.click" /></path><path d="M20.74,57.89c0.03,0.87-0.05,2.22-0.05,3.47c0,10.64,0.57,25.89-9.17,33.23" stroke-dasharray="39.249" stroke-dashoffset="39.249"><animate attributeName="stroke-dashoffset" values="39.249" fill="freeze" begin="7240.click" /><animate attributeName="stroke-dashoffset" values="39.249;39.249;0" keyTimes="0;0.777;1" dur="1.761s" fill="freeze" begin="0s;7240.click" /></path></g><g><path d="M42,35.2c1.57,0.49,3.36,0.65,5.17,0.49c9.21-0.8,29.94-3.6,43.87-4.54c1.79-0.12,2.92,0.08,4.72,0.43" stroke-dasharray="54.091" stroke-dashoffset="54.091"><animate attributeName="stroke-dashoffset" values="54.091" fill="freeze" begin="7240.click" /><animate attributeName="stroke-dashoffset" values="54.091;54.091;0" keyTimes="0;0.765;1" dur="2.302s" fill="freeze" begin="0s;7240.click" /></path><path d="M65.5,11.25c1.25,1.25,2.25,3.22,2.25,4.25c0,10.5,0,77.25-0.25,83.5" stroke-dasharray="88.398" stroke-dashoffset="88.398"><animate attributeName="stroke-dashoffset" values="88.398" fill="freeze" begin="7240.click" /><animate attributeName="stroke-dashoffset" values="88.398;88.398;0" keyTimes="0;0.776;1" dur="2.967s" fill="freeze" begin="0s;7240.click" /></path><path d="M67,34.25C62.62,48.39,50.87,70,41.75,78" stroke-dasharray="50.943" stroke-dashoffset="50.943"><animate attributeName="stroke-dashoffset" values="50.943" fill="freeze" begin="7240.click" /><animate attributeName="stroke-dashoffset" values="50.943;50.943;0" keyTimes="0;0.854;1" dur="3.476s" fill="freeze" begin="0s;7240.click" /></path><path d="M67.75,35.5C72.5,46.75,87.5,71.25,92.86,77.57c1.57,1.85,2.53,2.86,3.89,3.43" stroke-dasharray="54.319" stroke-dashoffset="54.319"><animate attributeName="stroke-dashoffset" values="54.319" fill="freeze" begin="7240.click" /><animate attributeName="stroke-dashoffset" values="54.319;54.319;0" keyTimes="0;0.865;1" dur="4.019s" fill="freeze" begin="0s;7240.click" /></path></g></g></g></svg>