<svg xmlns="http://www.w3.org/2000/svg" width="109" height="109" viewBox="0 0 109 109" id="7248"><g fill="none" stroke="#666" stroke-width="9" stroke-linecap="round" stroke-linejoin="round"><g><g><path d="M16.82,22.54c0.68,1.21,1.11,2.85,1.12,4.25c0.3,29.46-0.57,46.21-7.35,62.17" /><path d="M30.61,17.75c0.88,0.88,1.36,2.47,1.34,3.55c-0.05,3.41-0.05,15.36-0.05,18.46" /><path d="M18.53,43.7c4.05-0.61,12.43-2.22,18.1-3.28c1.21-0.23,2.79-0.43,4.02-0.43" /><path d="M18.96,60.41c0.19-0.02,1.66-0.15,2.35-0.33c5.01-1.33,8.69-2.09,11.95-2.9c1.74-0.43,2.77,0.66,2.77,2.82c0,0.95,0.13,15.49,0.06,24.5c-0.03,4.17-0.06,7.26-0.06,7.48" /></g><g p4:phon="反" xmlns:p4="http://kanjivg.tagaini.net"><g><path d="M50.31,25.04c2.32,0.46,5.2,0.13,7.42-0.28c8.8-1.64,18.5-3.75,26.38-4.75c2.09-0.27,3.75-0.3,5.76,0.28" /><path d="M53.29,25.68c0.7,0.7,1.22,2.07,1.18,3.34c-0.6,20.48-2.6,43.23-12.75,58.69" /></g><g><path d="M57.2,44.69c1.3,0.35,3.46,0.38,6.05-0.15c2.59-0.53,16.31-4.56,18.08-5.11c3.04-0.94,4.17,0.9,3.18,4.11C78,64.62,70.12,80.5,48.85,92.26" /><path d="M58.74,53.63c2.99,0.8,16.66,20.17,27.53,30.59c2.08,2,4.1,4.03,6.81,5.61" /></g></g></g></g><g fill="none" stroke="#000" stroke-width="5" stroke-linecap="round" stroke-linejoin="round"><g><g><path d="M16.82,22.54c0.68,1.21,1.11,2.85,1.12,4.25c0.3,29.46-0.57,46.21-7.35,62.17" stroke-dasharray="67.5" stroke-dashoffset="67.5"><animate id="0" attributeName="stroke-dashoffset" values="67.5;0" dur="0.51s" fill="freeze" begin="0s;7248.click" /></path><path d="M30.61,17.75c0.88,0.88,1.36,2.47,1.34,3.55c-0.05,3.41-0.05,15.36-0.05,18.46" stroke-dasharray="22.34" stroke-dashoffset="22.34"><animate attributeName="stroke-dashoffset" values="22.34" fill="freeze" begin="7248.click" /><animate id="1" attributeName="stroke-dashoffset" values="22.34;0" dur="0.22s" fill="freeze" begin="0.end" /></path><path d="M18.53,43.7c4.05-0.61,12.43-2.22,18.1-3.28c1.21-0.23,2.79-0.43,4.02-0.43" stroke-dasharray="22.44" stroke-dashoffset="22.44"><animate attributeName="stroke-dashoffset" values="22.44" fill="freeze" begin="7248.click" /><animate id="2" attributeName="stroke-dashoffset" values="22.44;0" dur="0.22s" fill="freeze" begin="1.end" /></path><path d="M18.96,60.41c0.19-0.02,1.66-0.15,2.35-0.33c5.01-1.33,8.69-2.09,11.95-2.9c1.74-0.43,2.77,0.66,2.77,2.82c0,0.95,0.13,15.49,0.06,24.5c-0.03,4.17-0.06,7.26-0.06,7.48" stroke-dasharray="51.39" stroke-dashoffset="51.39"><animate attributeName="stroke-dashoffset" values="51.39" fill="freeze" begin="7248.click" /><animate id="3" attributeName="stroke-dashoffset" values="51.39;0" dur="0.51s" fill="freeze" begin="2.end" /></path></g><g p4:phon="反" xmlns:p4="http://kanjivg.tagaini.net"><g><path d="M50.31,25.04c2.32,0.46,5.2,0.13,7.42-0.28c8.8-1.64,18.5-3.75,26.38-4.75c2.09-0.27,3.75-0.3,5.76,0.28" stroke-dasharray="40.09" stroke-dashoffset="40.09"><animate attributeName="stroke-dashoffset" values="40.09" fill="freeze" begin="7248.click" /><animate id="4" attributeName="stroke-dashoffset" values="40.09;0" dur="0.4s" fill="freeze" begin="3.end" /></path><path d="M53.29,25.68c0.7,0.7,1.22,2.07,1.18,3.34c-0.6,20.48-2.6,43.23-12.75,58.69" stroke-dasharray="64.42" stroke-dashoffset="64.42"><animate attributeName="stroke-dashoffset" values="64.42" fill="freeze" begin="7248.click" /><animate id="5" attributeName="stroke-dashoffset" values="64.42;0" dur="0.48s" fill="freeze" begin="4.end" /></path></g><g><path d="M57.2,44.69c1.3,0.35,3.46,0.38,6.05-0.15c2.59-0.53,16.31-4.56,18.08-5.11c3.04-0.94,4.17,0.9,3.18,4.11C78,64.62,70.12,80.5,48.85,92.26" stroke-dasharray="94.17" stroke-dashoffset="94.17"><animate attributeName="stroke-dashoffset" values="94.17" fill="freeze" begin="7248.click" /><animate id="6" attributeName="stroke-dashoffset" values="94.17;0" dur="0.71s" fill="freeze" begin="5.end" /></path><path d="M58.74,53.63c2.99,0.8,16.66,20.17,27.53,30.59c2.08,2,4.1,4.03,6.81,5.61" stroke-dasharray="50.09" stroke-dashoffset="50.09"><animate attributeName="stroke-dashoffset" values="50.09" fill="freeze" begin="7248.click" /><animate id="7" attributeName="stroke-dashoffset" values="50.09;0" dur="0.5s" fill="freeze" begin="6.end" /></path></g></g></g></g></svg>