<svg xmlns="http://www.w3.org/2000/svg" width="109" height="109" viewBox="0 0 109 109" id="7259"><g fill="none" stroke="#666" stroke-width="9" stroke-linecap="round" stroke-linejoin="round"><g><path d="M27.97,20.19C30.76,20.76,33.57,20.83,36.39,20.42C46.98,19.65,68.43,17.92,79.88,17.33C82.38,17.04,84.86,17.15,87.33,17.66" /><path d="M36.027035,29.002327C36.63294,29.740801,36.617442,30.948089,36.202703,31.897194C33.8193,37.443339,28.818986,48.888158,27.971296,50.896405C29.526062,51.996416,32.83576,51.913128,36.128742,51.475862C52.000248,49.383234,67.988763,47.686228,85.439898,46.905397C88.766311,46.759641,92.084367,46.593064,95.410781,47.03033" /><g><path d="M65.42,21.38C66.58,22.54,66.82,24.12,66.82,26.37C66.82,45.46,66.78,82.25,66.78,88.75C66.78,101.75,58.73,90.72,57.06,89.08" /></g><g><path d="M63.97,48.73C63.68,50.34,63.08,51.8,62.15,53.1C55.58,63.23,37.77,79.16,13.25,90" /></g></g></g><g fill="none" stroke="#000" stroke-width="5" stroke-linecap="round" stroke-linejoin="round"><g><path d="M27.97,20.19C30.76,20.76,33.57,20.83,36.39,20.42C46.98,19.65,68.43,17.92,79.88,17.33C82.38,17.04,84.86,17.15,87.33,17.66" stroke-dasharray="59.557" stroke-dashoffset="59.557"><animate attributeName="stroke-dashoffset" values="59.557;59.557;0" dur="0.596s" fill="freeze" begin="0s;7259.click" /></path><path d="M36.027035,29.002327C36.63294,29.740801,36.617442,30.948089,36.202703,31.897194C33.8193,37.443339,28.818986,48.888158,27.971296,50.896405C29.526062,51.996416,32.83576,51.913128,36.128742,51.475862C52.000248,49.383234,67.988763,47.686228,85.439898,46.905397C88.766311,46.759641,92.084367,46.593064,95.410781,47.03033" stroke-dasharray="91.595" stroke-dashoffset="91.595"><animate attributeName="stroke-dashoffset" values="91.595" fill="freeze" begin="7259.click" /><animate attributeName="stroke-dashoffset" values="91.595;91.595;0" keyTimes="0;0.464;1" dur="1.285s" fill="freeze" begin="0s;7259.click" /></path><g><path d="M65.42,21.38C66.58,22.54,66.82,24.12,66.82,26.37C66.82,45.46,66.78,82.25,66.78,88.75C66.78,101.75,58.73,90.72,57.06,89.08" stroke-dasharray="84.616" stroke-dashoffset="84.616"><animate attributeName="stroke-dashoffset" values="84.616" fill="freeze" begin="7259.click" /><animate attributeName="stroke-dashoffset" values="84.616;84.616;0" keyTimes="0;0.669;1" dur="1.921s" fill="freeze" begin="0s;7259.click" /></path></g><g><path d="M63.97,48.73C63.68,50.34,63.08,51.8,62.15,53.1C55.58,63.23,37.77,79.16,13.25,90" stroke-dasharray="66.726" stroke-dashoffset="66.726"><animate attributeName="stroke-dashoffset" values="66.726" fill="freeze" begin="7259.click" /><animate attributeName="stroke-dashoffset" values="66.726;66.726;0" keyTimes="0;0.793;1" dur="2.423s" fill="freeze" begin="0s;7259.click" /></path></g></g></g></svg>