<svg xmlns="http://www.w3.org/2000/svg" width="109" height="109" viewBox="0 0 109 109" id="725b"><g fill="none" stroke="#666" stroke-width="9" stroke-linecap="round" stroke-linejoin="round"><g><path d="M35.12,21.88c0.09,1.35-0.18,2.63-0.72,3.89c-2.43,5.73-7.64,15.99-14.16,21.99" /><path d="M31.13,38.67c2.08,0.21,3.96,0.02,5.35-0.12c12.02-1.17,27.02-3.67,38.51-5.88c2.27-0.44,4.72-0.57,5.88-0.38" /><path d="M13.63,63.23c2.39,0.54,5.96,0.92,9.18,0.54c21.66-2.52,36.43-5.39,62.93-6.73c3.98-0.2,6.39,0.01,8.38,0.28" /><path d="M53.31,11.88c1.19,1.12,2.01,2.87,2.01,4.75c0,0.78-0.07,56.95-0.19,76.12c-0.02,3.09-0.04,5.22-0.06,6" /></g></g><g fill="none" stroke="#000" stroke-width="5" stroke-linecap="round" stroke-linejoin="round"><path d="M35.12,21.88c0.09,1.35-0.18,2.63-0.72,3.89c-2.43,5.73-7.64,15.99-14.16,21.99" stroke-dasharray="30.322" stroke-dashoffset="30.322"><animate attributeName="stroke-dashoffset" values="30.322;30.322;0" dur="0.303s" fill="freeze" begin="0s;725b.click" /></path><path d="M31.13,38.67c2.08,0.21,3.96,0.02,5.35-0.12c12.02-1.17,27.02-3.67,38.51-5.88c2.27-0.44,4.72-0.57,5.88-0.38" stroke-dasharray="50.245" stroke-dashoffset="50.245"><animate attributeName="stroke-dashoffset" values="50.245" fill="freeze" begin="725b.click" /><animate attributeName="stroke-dashoffset" values="50.245;50.245;0" keyTimes="0;0.376;1" dur="0.805s" fill="freeze" begin="0s;725b.click" /></path><path d="M13.63,63.23c2.39,0.54,5.96,0.92,9.18,0.54c21.66-2.52,36.43-5.39,62.93-6.73c3.98-0.2,6.39,0.01,8.38,0.28" stroke-dasharray="80.944" stroke-dashoffset="80.944"><animate attributeName="stroke-dashoffset" values="80.944" fill="freeze" begin="725b.click" /><animate attributeName="stroke-dashoffset" values="80.944;80.944;0" keyTimes="0;0.569;1" dur="1.414s" fill="freeze" begin="0s;725b.click" /></path><path d="M53.31,11.88c1.19,1.12,2.01,2.87,2.01,4.75c0,0.78-0.07,56.95-0.19,76.12c-0.02,3.09-0.04,5.22-0.06,6" stroke-dasharray="87.421" stroke-dashoffset="87.421"><animate attributeName="stroke-dashoffset" values="87.421" fill="freeze" begin="725b.click" /><animate attributeName="stroke-dashoffset" values="87.421;87.421;0" keyTimes="0;0.683;1" dur="2.071s" fill="freeze" begin="0s;725b.click" /></path></g></svg>