<svg xmlns="http://www.w3.org/2000/svg" width="109" height="109" viewBox="0 0 109 109" id="725d"><g fill="none" stroke="#666" stroke-width="9" stroke-linecap="round" stroke-linejoin="round"><g><g><path d="M23.77,27.14c0.03,0.61,0.07,1.57-0.07,2.44c-0.85,5.15-5.72,16.46-12.39,23.38" /><path d="M22.75,40.75c6.75-0.75,21-4,22.25-4s2.5,0,3.75,0.25" /><path d="M34.87,12.75c1.09,0.5,1.74,2.25,1.96,3.25c0.22,1,0,74.75-0.22,81" /><path d="M14.5,70.45c1.99,1.31,3.64,1.87,5.63,0.75C21.3,70.54,41.04,59.18,46,56" /></g><g><path d="M91.93,31.96c0.21,0.37,0.35,1.44-0.2,2.01C88.16,37.63,75.9,47.74,64.36,51.5" /><path d="M59.5,15.25c1.2,1.28,1.28,2.14,1.68,3.85c0.4,1.71,0.13,54.97,0.13,66.62s9.76,9.79,18.07,9.79C95.72,95.51,96,92.26,96,84.09" /></g></g></g><g fill="none" stroke="#000" stroke-width="5" stroke-linecap="round" stroke-linejoin="round"><g><g><path d="M23.77,27.14c0.03,0.61,0.07,1.57-0.07,2.44c-0.85,5.15-5.72,16.46-12.39,23.38" stroke-dasharray="29.2" stroke-dashoffset="29.2"><animate id="0" attributeName="stroke-dashoffset" values="29.2;0" dur="0.29s" fill="freeze" begin="0s;725d.click" /></path><path d="M22.75,40.75c6.75-0.75,21-4,22.25-4s2.5,0,3.75,0.25" stroke-dasharray="26.38" stroke-dashoffset="26.38"><animate attributeName="stroke-dashoffset" values="26.38" fill="freeze" begin="725d.click" /><animate id="1" attributeName="stroke-dashoffset" values="26.38;0" dur="0.26s" fill="freeze" begin="0.end" /></path><path d="M34.87,12.75c1.09,0.5,1.74,2.25,1.96,3.25c0.22,1,0,74.75-0.22,81" stroke-dasharray="84.91" stroke-dashoffset="84.91"><animate attributeName="stroke-dashoffset" values="84.91" fill="freeze" begin="725d.click" /><animate id="2" attributeName="stroke-dashoffset" values="84.91;0" dur="0.64s" fill="freeze" begin="1.end" /></path><path d="M14.5,70.45c1.99,1.31,3.64,1.87,5.63,0.75C21.3,70.54,41.04,59.18,46,56" stroke-dasharray="36.05" stroke-dashoffset="36.05"><animate attributeName="stroke-dashoffset" values="36.05" fill="freeze" begin="725d.click" /><animate id="3" attributeName="stroke-dashoffset" values="36.05;0" dur="0.36s" fill="freeze" begin="2.end" /></path></g><g><path d="M91.93,31.96c0.21,0.37,0.35,1.44-0.2,2.01C88.16,37.63,75.9,47.74,64.36,51.5" stroke-dasharray="34.87" stroke-dashoffset="34.87"><animate attributeName="stroke-dashoffset" values="34.87" fill="freeze" begin="725d.click" /><animate id="4" attributeName="stroke-dashoffset" values="34.87;0" dur="0.35s" fill="freeze" begin="3.end" /></path><path d="M59.5,15.25c1.2,1.28,1.28,2.14,1.68,3.85c0.4,1.71,0.13,54.97,0.13,66.62s9.76,9.79,18.07,9.79C95.72,95.51,96,92.26,96,84.09" stroke-dasharray="119.34" stroke-dashoffset="119.34"><animate attributeName="stroke-dashoffset" values="119.34" fill="freeze" begin="725d.click" /><animate id="5" attributeName="stroke-dashoffset" values="119.34;0" dur="0.9s" fill="freeze" begin="4.end" /></path></g></g></g></svg>