<svg xmlns="http://www.w3.org/2000/svg" width="109" height="109" viewBox="0 0 109 109" id="725f"><g fill="none" stroke="#666" stroke-width="9" stroke-linecap="round" stroke-linejoin="round"><g><g><path d="M52.49,9.5c0.5,0.44-0.12,2.07-0.5,2.59C47,19,39.61,27.13,32.73,32.15c-2.18,1.59-2.15,2.14,1.01,1.59c8.51-1.49,31.76-5.74,43.19-7.12" /><path d="M67.81,18.65c6.36,3.05,16.43,12.56,18.02,17.31" /></g><g><path d="M35.77,41.89c0.04,0.57,0.08,1.47-0.07,2.28C34.79,48.98,29.6,59.54,22.5,66" /><path d="M35.63,54.17c0.94,0.38,2.66,0.47,3.6,0.38c11.52-1.05,27.52-3.05,37.86-4.38c1.55-0.2,2.5,0.18,3.29,0.37" /><path d="M14.88,74.48c1.52,0.54,4.3,0.63,5.82,0.54c15.8-0.91,46.55-6.02,69.61-6.23c2.53-0.02,4.05,0.26,5.31,0.53" /><path d="M53.31,36.38c0.76,0.45,2.01,1.62,2.01,4.25c0,4.87-0.1,54.52-0.25,60.12" /></g></g></g><g fill="none" stroke="#000" stroke-width="5" stroke-linecap="round" stroke-linejoin="round"><path d="M52.49,9.5c0.5,0.44-0.12,2.07-0.5,2.59C47,19,39.61,27.13,32.73,32.15c-2.18,1.59-2.15,2.14,1.01,1.59c8.51-1.49,31.76-5.74,43.19-7.12" stroke-dasharray="79.311" stroke-dashoffset="79.311"><animate attributeName="stroke-dashoffset" values="79.311;79.311;0" dur="0.596s" fill="freeze" begin="0s;725f.click" /></path><path d="M67.81,18.65c6.36,3.05,16.43,12.56,18.02,17.31" stroke-dasharray="25.352" stroke-dashoffset="25.352"><animate attributeName="stroke-dashoffset" values="25.352" fill="freeze" begin="725f.click" /><animate attributeName="stroke-dashoffset" values="25.352;25.352;0" keyTimes="0;0.701;1" dur="0.85s" fill="freeze" begin="0s;725f.click" /></path><path d="M35.77,41.89c0.04,0.57,0.08,1.47-0.07,2.28C34.79,48.98,29.6,59.54,22.5,66" stroke-dasharray="28.119" stroke-dashoffset="28.119"><animate attributeName="stroke-dashoffset" values="28.119" fill="freeze" begin="725f.click" /><animate attributeName="stroke-dashoffset" values="28.119;28.119;0" keyTimes="0;0.752;1" dur="1.131s" fill="freeze" begin="0s;725f.click" /></path><path d="M35.63,54.17c0.94,0.38,2.66,0.47,3.6,0.38c11.52-1.05,27.52-3.05,37.86-4.38c1.55-0.2,2.5,0.18,3.29,0.37" stroke-dasharray="45.099" stroke-dashoffset="45.099"><animate attributeName="stroke-dashoffset" values="45.099" fill="freeze" begin="725f.click" /><animate attributeName="stroke-dashoffset" values="45.099;45.099;0" keyTimes="0;0.715;1" dur="1.582s" fill="freeze" begin="0s;725f.click" /></path><path d="M14.88,74.48c1.52,0.54,4.3,0.63,5.82,0.54c15.8-0.91,46.55-6.02,69.61-6.23c2.53-0.02,4.05,0.26,5.31,0.53" stroke-dasharray="81.139" stroke-dashoffset="81.139"><animate attributeName="stroke-dashoffset" values="81.139" fill="freeze" begin="725f.click" /><animate attributeName="stroke-dashoffset" values="81.139;81.139;0" keyTimes="0;0.722;1" dur="2.192s" fill="freeze" begin="0s;725f.click" /></path><path d="M53.31,36.38c0.76,0.45,2.01,1.62,2.01,4.25c0,4.87-0.1,54.52-0.25,60.12" stroke-dasharray="65.044" stroke-dashoffset="65.044"><animate attributeName="stroke-dashoffset" values="65.044" fill="freeze" begin="725f.click" /><animate attributeName="stroke-dashoffset" values="65.044;65.044;0" keyTimes="0;0.818;1" dur="2.681s" fill="freeze" begin="0s;725f.click" /></path></g></svg>