<svg xmlns="http://www.w3.org/2000/svg" width="109" height="109" viewBox="0 0 109 109" id="727d"><g fill="none" stroke="#666" stroke-width="9" stroke-linecap="round" stroke-linejoin="round"><g><g p4:part="1" xmlns:p4="http://kanjivg.tagaini.net"><g><path d="M53.24,9.25c0.87,0.44,2.31,2.16,2.31,3.04c0,3.25-0.28,3.85-0.11,6.6" /><path d="M25.8,20.84c1.11,0.07,3.63,0.51,4.71,0.4c8.7-0.84,40.94-3.58,53.34-4.16c1.82-0.09,2.75,0.03,4.11,0.51" /></g><g p4:part="1"><path d="M50.72,20.44c0.2,0.56,0.33,1.01-0.1,1.59c-1.91,2.52-4.42,6.43-7.21,7.99c-0.44,0.25-0.41,1.29,0,1.4c2.15,0.56,11.87,3.01,13.71,4.03" /></g><g><path d="M20.66,39.69c-0.14,3.34-3.48,12.07-4.66,14.06" /><path d="M20.22,43.5c3.53,0,47.75-4.25,65.47-4.25c12.06,0,3.31,5.75-1.19,9.5" /></g><g p4:part="2"><g p4:part="2"><g><path d="M67.8,22.94c0.42,1.01,0.16,3.07-0.39,3.65c-3.66,3.91-28.16,27.16-32.3,30.83c-1.3,1.15-0.8,1.72,0.78,1.46c9.55-1.54,25.78-5.15,34.13-6.61" /><path d="M63.55,46.22c4.9,2.28,12.66,9.36,13.88,12.9" /></g></g></g></g><g><path d="M37.02,63.46c0.04,0.38,0.07,0.97-0.07,1.5c-0.84,3.17-5.67,10.14-12.27,14.4" /><path d="M36.42,71.23c0.93,0.23,2.63,0.28,3.55,0.23c11.38-0.62,25.12-1.99,35.33-2.78c1.53-0.12,2.47,0.11,3.25,0.22" /><path d="M15.88,83.92c1.5,0.32,4.25,0.37,5.75,0.32c15.6-0.54,44.48-3.65,67.25-3.78c2.5-0.01,4,0.15,5.25,0.31" /><path d="M52.89,57.38c0.42,0.26,1.31,1.99,1.4,2.52c0.08,0.53-0.05,37.29-0.14,40.6" /></g></g></g><g fill="none" stroke="#000" stroke-width="5" stroke-linecap="round" stroke-linejoin="round"><g><g p4:part="1" xmlns:p4="http://kanjivg.tagaini.net"><g><path d="M53.24,9.25c0.87,0.44,2.31,2.16,2.31,3.04c0,3.25-0.28,3.85-0.11,6.6" stroke-dasharray="10.53" stroke-dashoffset="10.53"><animate id="0" attributeName="stroke-dashoffset" values="10.53;0" dur="0.11s" fill="freeze" begin="0s;727d.click" /></path><path d="M25.8,20.84c1.11,0.07,3.63,0.51,4.71,0.4c8.7-0.84,40.94-3.58,53.34-4.16c1.82-0.09,2.75,0.03,4.11,0.51" stroke-dasharray="62.41" stroke-dashoffset="62.41"><animate attributeName="stroke-dashoffset" values="62.41" fill="freeze" begin="727d.click" /><animate id="1" attributeName="stroke-dashoffset" values="62.41;0" dur="0.47s" fill="freeze" begin="0.end" /></path></g><g p4:part="1"><path d="M50.72,20.44c0.2,0.56,0.33,1.01-0.1,1.59c-1.91,2.52-4.42,6.43-7.21,7.99c-0.44,0.25-0.41,1.29,0,1.4c2.15,0.56,11.87,3.01,13.71,4.03" stroke-dasharray="28.44" stroke-dashoffset="28.44"><animate attributeName="stroke-dashoffset" values="28.44" fill="freeze" begin="727d.click" /><animate id="2" attributeName="stroke-dashoffset" values="28.44;0" dur="0.28s" fill="freeze" begin="1.end" /></path></g><g><path d="M20.66,39.69c-0.14,3.34-3.48,12.07-4.66,14.06" stroke-dasharray="14.88" stroke-dashoffset="14.88"><animate attributeName="stroke-dashoffset" values="14.88" fill="freeze" begin="727d.click" /><animate id="3" attributeName="stroke-dashoffset" values="14.88;0" dur="0.15s" fill="freeze" begin="2.end" /></path><path d="M20.22,43.5c3.53,0,47.75-4.25,65.47-4.25c12.06,0,3.31,5.75-1.19,9.5" stroke-dasharray="83.2" stroke-dashoffset="83.2"><animate attributeName="stroke-dashoffset" values="83.2" fill="freeze" begin="727d.click" /><animate id="4" attributeName="stroke-dashoffset" values="83.2;0" dur="0.63s" fill="freeze" begin="3.end" /></path></g><g p4:part="2"><g p4:part="2"><g><path d="M67.8,22.94c0.42,1.01,0.16,3.07-0.39,3.65c-3.66,3.91-28.16,27.16-32.3,30.83c-1.3,1.15-0.8,1.72,0.78,1.46c9.55-1.54,25.78-5.15,34.13-6.61" stroke-dasharray="86.29" stroke-dashoffset="86.29"><animate attributeName="stroke-dashoffset" values="86.29" fill="freeze" begin="727d.click" /><animate id="5" attributeName="stroke-dashoffset" values="86.29;0" dur="0.65s" fill="freeze" begin="4.end" /></path><path d="M63.55,46.22c4.9,2.28,12.66,9.36,13.88,12.9" stroke-dasharray="19.22" stroke-dashoffset="19.22"><animate attributeName="stroke-dashoffset" values="19.22" fill="freeze" begin="727d.click" /><animate id="6" attributeName="stroke-dashoffset" values="19.22;0" dur="0.19s" fill="freeze" begin="5.end" /></path></g></g></g></g><g><path d="M37.02,63.46c0.04,0.38,0.07,0.97-0.07,1.5c-0.84,3.17-5.67,10.14-12.27,14.4" stroke-dasharray="20.73" stroke-dashoffset="20.73"><animate attributeName="stroke-dashoffset" values="20.73" fill="freeze" begin="727d.click" /><animate id="7" attributeName="stroke-dashoffset" values="20.73;0" dur="0.21s" fill="freeze" begin="6.end" /></path><path d="M36.42,71.23c0.93,0.23,2.63,0.28,3.55,0.23c11.38-0.62,25.12-1.99,35.33-2.78c1.53-0.12,2.47,0.11,3.25,0.22" stroke-dasharray="42.27" stroke-dashoffset="42.27"><animate attributeName="stroke-dashoffset" values="42.27" fill="freeze" begin="727d.click" /><animate id="8" attributeName="stroke-dashoffset" values="42.27;0" dur="0.42s" fill="freeze" begin="7.end" /></path><path d="M15.88,83.92c1.5,0.32,4.25,0.37,5.75,0.32c15.6-0.54,44.48-3.65,67.25-3.78c2.5-0.01,4,0.15,5.25,0.31" stroke-dasharray="78.4" stroke-dashoffset="78.4"><animate attributeName="stroke-dashoffset" values="78.4" fill="freeze" begin="727d.click" /><animate id="9" attributeName="stroke-dashoffset" values="78.4;0" dur="0.59s" fill="freeze" begin="8.end" /></path><path d="M52.89,57.38c0.42,0.26,1.31,1.99,1.4,2.52c0.08,0.53-0.05,37.29-0.14,40.6" stroke-dasharray="43.51" stroke-dashoffset="43.51"><animate attributeName="stroke-dashoffset" values="43.51" fill="freeze" begin="727d.click" /><animate id="10" attributeName="stroke-dashoffset" values="43.51;0" dur="0.44s" fill="freeze" begin="9.end" /></path></g></g></g></svg>