<svg xmlns="http://www.w3.org/2000/svg" width="109" height="109" viewBox="0 0 109 109" id="7292"><g fill="none" stroke="#666" stroke-width="6" stroke-linecap="round" stroke-linejoin="round"><g><g><path d="M20.28,23.14c0.03,0.67,0.05,1.72-0.05,2.68c-0.63,5.65-4.23,18.05-9.17,25.64" /><path d="M19.75,38.75c0.78,0.16,1.7,0.21,2.7,0.19c7.03-0.17,13.96-2.19,15.05-2.19c1.25,0,2.5,0,3.75,0.25" /><path d="M28.87,12.25c1.09,0.5,1.74,2.25,1.96,3.25c0.22,1,0,76.75-0.22,83" /><path d="M11.5,66.69c1.62,1.08,3.48,1.04,5.1,0.12c0.96-0.54,19.59-12.43,23.65-15.06" /></g><g><g><g><path d="M67.15,11.75c0.71,0.49,1.87,2.38,1.87,3.35c0,3.58-0.22,5.68-0.09,8.71" /><path d="M43.99,25.99c1.76,0.26,4.14,0.24,5.37,0.13c9.64-0.87,29.6-3.59,43.07-3.93c2.08-0.05,3.14,0.05,4.69,0.8" /></g><g><path d="M53.15,34.46c0.41,0.31,1.33,1.57,1.51,1.96c1.42,3.08,2.11,9.09,3.08,14.63" /><path d="M55.69,36.05c7.5-1.41,19.31-2.55,26.57-3.79c1.73-0.3,2.8,1.84,2.55,2.71c-1.04,3.6-1.5,6.03-3.04,11.01" /><path d="M57.93,48.84c5.62-0.46,17.88-1.71,25.6-2.42" /></g></g><g><g><path d="M44.75,57.51c1,1.24,1.78,1.91,1.97,4.32c0.41,5.07,3.1,28.45,3.66,36.17" /><path d="M46.78,60.4c7.43-0.48,40.47-3.9,45.07-4.27c3.45-0.28,5.15,1.62,4.7,5.98c-0.93,8.96-2.13,24.36-4.63,31.31c-2.91,8.08-5.66,3.33-7.67,0" /></g><g><path d="M59.16,69.81c0.29,0.3,0.58,0.55,0.71,0.93c1,2.97,2.69,9.67,3.37,15" /><path d="M60.45,70.83c6.3-1.33,14.79-2.6,18.14-3.15c1.36-0.22,2.68,1.22,2.54,2.65c-0.33,3.57-1.58,6.7-2.66,11.5" /><path d="M63.37,84.14c3.95-0.44,10.9-1.21,16.33-1.88" /></g></g></g></g></g><g fill="none" stroke="#000" stroke-width="3" stroke-linecap="round" stroke-linejoin="round"><path d="M20.28,23.14c0.03,0.67,0.05,1.72-0.05,2.68c-0.63,5.65-4.23,18.05-9.17,25.64" stroke-dasharray="30.091" stroke-dashoffset="30.091"><animate attributeName="stroke-dashoffset" values="30.091;30.091;0" dur="0.301s" fill="freeze" begin="0s;7292.click" /></path><path d="M19.75,38.75c0.78,0.16,1.7,0.21,2.7,0.19c7.03-0.17,13.96-2.19,15.05-2.19c1.25,0,2.5,0,3.75,0.25" stroke-dasharray="21.709" stroke-dashoffset="21.709"><animate attributeName="stroke-dashoffset" values="21.709" fill="freeze" begin="7292.click" /><animate attributeName="stroke-dashoffset" values="21.709;21.709;0" keyTimes="0;0.581;1" dur="0.518s" fill="freeze" begin="0s;7292.click" /></path><path d="M28.87,12.25c1.09,0.5,1.74,2.25,1.96,3.25c0.22,1,0,76.75-0.22,83" stroke-dasharray="86.912" stroke-dashoffset="86.912"><animate attributeName="stroke-dashoffset" values="86.912" fill="freeze" begin="7292.click" /><animate attributeName="stroke-dashoffset" values="86.912;86.912;0" keyTimes="0;0.442;1" dur="1.171s" fill="freeze" begin="0s;7292.click" /></path><path d="M11.5,66.69c1.62,1.08,3.48,1.04,5.1,0.12c0.96-0.54,19.59-12.43,23.65-15.06" stroke-dasharray="33.426" stroke-dashoffset="33.426"><animate attributeName="stroke-dashoffset" values="33.426" fill="freeze" begin="7292.click" /><animate attributeName="stroke-dashoffset" values="33.426;33.426;0" keyTimes="0;0.778;1" dur="1.505s" fill="freeze" begin="0s;7292.click" /></path><path d="M67.15,11.75c0.71,0.49,1.87,2.38,1.87,3.35c0,3.58-0.22,5.68-0.09,8.71" stroke-dasharray="12.633" stroke-dashoffset="12.633"><animate attributeName="stroke-dashoffset" values="12.633" fill="freeze" begin="7292.click" /><animate attributeName="stroke-dashoffset" values="12.633;12.633;0" keyTimes="0;0.923;1" dur="1.631s" fill="freeze" begin="0s;7292.click" /></path><path d="M43.99,25.99c1.76,0.26,4.14,0.24,5.37,0.13c9.64-0.87,29.6-3.59,43.07-3.93c2.08-0.05,3.14,0.05,4.69,0.8" stroke-dasharray="53.458" stroke-dashoffset="53.458"><animate attributeName="stroke-dashoffset" values="53.458" fill="freeze" begin="7292.click" /><animate attributeName="stroke-dashoffset" values="53.458;53.458;0" keyTimes="0;0.753;1" dur="2.166s" fill="freeze" begin="0s;7292.click" /></path><path d="M53.15,34.46c0.41,0.31,1.33,1.57,1.51,1.96c1.42,3.08,2.11,9.09,3.08,14.63" stroke-dasharray="17.469" stroke-dashoffset="17.469"><animate attributeName="stroke-dashoffset" values="17.469" fill="freeze" begin="7292.click" /><animate attributeName="stroke-dashoffset" values="17.469;17.469;0" keyTimes="0;0.925;1" dur="2.341s" fill="freeze" begin="0s;7292.click" /></path><path d="M55.69,36.05c7.5-1.41,19.31-2.55,26.57-3.79c1.73-0.3,2.8,1.84,2.55,2.71c-1.04,3.6-1.5,6.03-3.04,11.01" stroke-dasharray="42.53" stroke-dashoffset="42.53"><animate attributeName="stroke-dashoffset" values="42.53" fill="freeze" begin="7292.click" /><animate attributeName="stroke-dashoffset" values="42.53;42.53;0" keyTimes="0;0.846;1" dur="2.766s" fill="freeze" begin="0s;7292.click" /></path><path d="M57.93,48.84c5.62-0.46,17.88-1.71,25.6-2.42" stroke-dasharray="25.715" stroke-dashoffset="25.715"><animate attributeName="stroke-dashoffset" values="25.715" fill="freeze" begin="7292.click" /><animate attributeName="stroke-dashoffset" values="25.715;25.715;0" keyTimes="0;0.915;1" dur="3.023s" fill="freeze" begin="0s;7292.click" /></path><path d="M44.75,57.51c1,1.24,1.78,1.91,1.97,4.32c0.41,5.07,3.1,28.45,3.66,36.17" stroke-dasharray="41.218" stroke-dashoffset="41.218"><animate attributeName="stroke-dashoffset" values="41.218" fill="freeze" begin="7292.click" /><animate attributeName="stroke-dashoffset" values="41.218;41.218;0" keyTimes="0;0.88;1" dur="3.435s" fill="freeze" begin="0s;7292.click" /></path><path d="M46.78,60.4c7.43-0.48,40.47-3.9,45.07-4.27c3.45-0.28,5.15,1.62,4.7,5.98c-0.93,8.96-2.13,24.36-4.63,31.31c-2.91,8.08-5.66,3.33-7.67,0" stroke-dasharray="98.368" stroke-dashoffset="98.368"><animate attributeName="stroke-dashoffset" values="98.368" fill="freeze" begin="7292.click" /><animate attributeName="stroke-dashoffset" values="98.368;98.368;0" keyTimes="0;0.823;1" dur="4.175s" fill="freeze" begin="0s;7292.click" /></path><path d="M59.16,69.81c0.29,0.3,0.58,0.55,0.71,0.93c1,2.97,2.69,9.67,3.37,15" stroke-dasharray="16.574" stroke-dashoffset="16.574"><animate attributeName="stroke-dashoffset" values="16.574" fill="freeze" begin="7292.click" /><animate attributeName="stroke-dashoffset" values="16.574;16.574;0" keyTimes="0;0.962;1" dur="4.341s" fill="freeze" begin="0s;7292.click" /></path><path d="M60.45,70.83c6.3-1.33,14.79-2.6,18.14-3.15c1.36-0.22,2.68,1.22,2.54,2.65c-0.33,3.57-1.58,6.7-2.66,11.5" stroke-dasharray="34.406" stroke-dashoffset="34.406"><animate attributeName="stroke-dashoffset" values="34.406" fill="freeze" begin="7292.click" /><animate attributeName="stroke-dashoffset" values="34.406;34.406;0" keyTimes="0;0.927;1" dur="4.685s" fill="freeze" begin="0s;7292.click" /></path><path d="M63.37,84.14c3.95-0.44,10.9-1.21,16.33-1.88" stroke-dasharray="16.439" stroke-dashoffset="16.439"><animate attributeName="stroke-dashoffset" values="16.439" fill="freeze" begin="7292.click" /><animate attributeName="stroke-dashoffset" values="16.439;16.439;0" keyTimes="0;0.966;1" dur="4.849s" fill="freeze" begin="0s;7292.click" /></path></g></svg>