<svg xmlns="http://www.w3.org/2000/svg" width="109" height="109" viewBox="0 0 109 109" id="72a7"><g fill="none" stroke="#666" stroke-width="9" stroke-linecap="round" stroke-linejoin="round"><g><g><path d="M20.28,23.14c0.03,0.61,0.06,1.57-0.05,2.44c-0.65,5.15-3.72,17.16-8.42,25.38" /><path d="M19.25,38.75c0.82-0.09,1.76,0.28,2.77,0.12c7.27-1.12,15.38-3.12,16.48-3.12c1.25,0,1.5,0,2.75,0.25" /><path d="M28.37,11.75c1.09,0.5,1.74,2.25,1.96,3.25c0.22,1,0,78.25-0.22,84.5" /><path d="M11.5,66.83c1.5,0.67,3.35,0.55,5.18-0.68c1.08-0.72,18.25-12.17,22.82-15.65" /></g><g><g><path d="M51.26,12.62c2.64,1.44,7.27,5.94,7.93,8.18" /><path d="M75.87,9.75c0.02,0.23,0.04,0.6-0.03,0.93c-0.39,1.97-2.43,6.57-5.57,10.19" /><path d="M44.67,24.76c1.05,0.34,2.98,0.36,4.03,0.34c6.35-0.1,26.62-3.83,36.1-3.71c1.75,0.02,2.8,0.16,3.68,0.33" /><path d="M64.46,23.32c0.75,0.3,1.35,1.32,1.35,1.94c0,5.08,0,10.87,0,16.19" /><path d="M48.38,33.77c0.83,0.23,2.36,0.29,3.19,0.23c6.92-0.5,21.37-3.14,29.57-3.39c1.38-0.04,2.22,0.11,2.91,0.22" /><path d="M42.38,42.98c1.33,0.47,3.8,0.7,5.12,0.47c5.41-0.92,27.06-3.15,41.7-4.12c2.22-0.15,3.56,0.23,4.68,0.46" /></g><g><g><path d="M58.1,46c0.04,0.24,0.09,0.62-0.09,0.97c-1.11,2.05-7.45,6.53-16.14,9.28" /></g><g p6:part="1" xmlns:p6="http://kanjivg.tagaini.net"><g p6:part="1"><path d="M37.21,60.46c0.85,0.43,3.11,1.01,5.36,0.78C55,60,69.92,57.75,89.14,56.19c2.27-0.18,3.93,0.07,5.34,0.5" /></g></g><g><path d="M53.86,53.49c0.43,0.47,0.68,2.13,0.77,3.07c0.09,0.94,0,9.45-0.08,15.35" /></g><path d="M52.16,60.47C49.34,66.04,43.41,72.01,35.75,75" /><path d="M56.62,63.5c5.02,0.82,8.31,2.46,11.21,4.75" /><path d="M41.91,76.21c0.95,0.35,2.69,0.44,3.64,0.35c6.05-0.61,11.7-1.38,17.75-2.45c1.56-0.28,2.53,0.17,3.33,0.34" /><path d="M49.99,77.55c0.3,0.39,0.25,1.44,0.06,2.05c-0.22,0.7-3.19,4.53-3.29,4.92c-0.1,0.39-0.04,1.37,0.8,1.16c2.78-0.69,8.09-1.6,12.38-2.16c1.61-0.21,2.3,1.12,2.11,2.64c-0.45,3.6-2.79,8.4-5.37,11.51c-2.29,2.76-4.06,0.5-5.34-1.95" /><g p6:part="2" xmlns:p6="http://kanjivg.tagaini.net"><path d="M71.04,45.75c1.19,1.1,1.39,1.4,1.64,3.76C74.77,69.24,80,84.25,93.65,95.85c4.06,3.45,4.02,0.47,3.42-4.38" /><g><path d="M88.51,64.6c0.06,0.72,0.13,1.87-0.12,2.91c-1.48,6.14-9.69,21.61-21.98,29.1" /></g><g p6:part="2"><g><path d="M81.49,44.81c2.62,1.2,6.8,3.95,8.02,6.01" /></g></g></g></g></g></g></g><g fill="none" stroke="#000" stroke-width="5" stroke-linecap="round" stroke-linejoin="round"><g><g><path d="M20.28,23.14c0.03,0.61,0.06,1.57-0.05,2.44c-0.65,5.15-3.72,17.16-8.42,25.38" stroke-dasharray="29.31" stroke-dashoffset="29.31"><animate id="0" attributeName="stroke-dashoffset" values="29.31;0" dur="0.29s" fill="freeze" begin="0s;72a7.click" /></path><path d="M19.25,38.75c0.82-0.09,1.76,0.28,2.77,0.12c7.27-1.12,15.38-3.12,16.48-3.12c1.25,0,1.5,0,2.75,0.25" stroke-dasharray="22.33" stroke-dashoffset="22.33"><animate attributeName="stroke-dashoffset" values="22.33" fill="freeze" begin="72a7.click" /><animate id="1" attributeName="stroke-dashoffset" values="22.33;0" dur="0.22s" fill="freeze" begin="0.end" /></path><path d="M28.37,11.75c1.09,0.5,1.74,2.25,1.96,3.25c0.22,1,0,78.25-0.22,84.5" stroke-dasharray="88.41" stroke-dashoffset="88.41"><animate attributeName="stroke-dashoffset" values="88.41" fill="freeze" begin="72a7.click" /><animate id="2" attributeName="stroke-dashoffset" values="88.41;0" dur="0.66s" fill="freeze" begin="1.end" /></path><path d="M11.5,66.83c1.5,0.67,3.35,0.55,5.18-0.68c1.08-0.72,18.25-12.17,22.82-15.65" stroke-dasharray="33.14" stroke-dashoffset="33.14"><animate attributeName="stroke-dashoffset" values="33.14" fill="freeze" begin="72a7.click" /><animate id="3" attributeName="stroke-dashoffset" values="33.14;0" dur="0.33s" fill="freeze" begin="2.end" /></path></g><g><g><path d="M51.26,12.62c2.64,1.44,7.27,5.94,7.93,8.18" stroke-dasharray="11.55" stroke-dashoffset="11.55"><animate attributeName="stroke-dashoffset" values="11.55" fill="freeze" begin="72a7.click" /><animate id="4" attributeName="stroke-dashoffset" values="11.55;0" dur="0.12s" fill="freeze" begin="3.end" /></path><path d="M75.87,9.75c0.02,0.23,0.04,0.6-0.03,0.93c-0.39,1.97-2.43,6.57-5.57,10.19" stroke-dasharray="12.64" stroke-dashoffset="12.64"><animate attributeName="stroke-dashoffset" values="12.64" fill="freeze" begin="72a7.click" /><animate id="5" attributeName="stroke-dashoffset" values="12.64;0" dur="0.13s" fill="freeze" begin="4.end" /></path><path d="M44.67,24.76c1.05,0.34,2.98,0.36,4.03,0.34c6.35-0.1,26.62-3.83,36.1-3.71c1.75,0.02,2.8,0.16,3.68,0.33" stroke-dasharray="44.07" stroke-dashoffset="44.07"><animate attributeName="stroke-dashoffset" values="44.07" fill="freeze" begin="72a7.click" /><animate id="6" attributeName="stroke-dashoffset" values="44.07;0" dur="0.44s" fill="freeze" begin="5.end" /></path><path d="M64.46,23.32c0.75,0.3,1.35,1.32,1.35,1.94c0,5.08,0,10.87,0,16.19" stroke-dasharray="18.66" stroke-dashoffset="18.66"><animate attributeName="stroke-dashoffset" values="18.66" fill="freeze" begin="72a7.click" /><animate id="7" attributeName="stroke-dashoffset" values="18.66;0" dur="0.19s" fill="freeze" begin="6.end" /></path><path d="M48.38,33.77c0.83,0.23,2.36,0.29,3.19,0.23c6.92-0.5,21.37-3.14,29.57-3.39c1.38-0.04,2.22,0.11,2.91,0.22" stroke-dasharray="35.91" stroke-dashoffset="35.91"><animate attributeName="stroke-dashoffset" values="35.91" fill="freeze" begin="72a7.click" /><animate id="8" attributeName="stroke-dashoffset" values="35.91;0" dur="0.36s" fill="freeze" begin="7.end" /></path><path d="M42.38,42.98c1.33,0.47,3.8,0.7,5.12,0.47c5.41-0.92,27.06-3.15,41.7-4.12c2.22-0.15,3.56,0.23,4.68,0.46" stroke-dasharray="51.81" stroke-dashoffset="51.81"><animate attributeName="stroke-dashoffset" values="51.81" fill="freeze" begin="72a7.click" /><animate id="9" attributeName="stroke-dashoffset" values="51.81;0" dur="0.52s" fill="freeze" begin="8.end" /></path></g><g><g><path d="M58.1,46c0.04,0.24,0.09,0.62-0.09,0.97c-1.11,2.05-7.45,6.53-16.14,9.28" stroke-dasharray="19.86" stroke-dashoffset="19.86"><animate attributeName="stroke-dashoffset" values="19.86" fill="freeze" begin="72a7.click" /><animate id="10" attributeName="stroke-dashoffset" values="19.86;0" dur="0.2s" fill="freeze" begin="9.end" /></path></g><g p6:part="1" xmlns:p6="http://kanjivg.tagaini.net"><g p6:part="1"><path d="M37.21,60.46c0.85,0.43,3.11,1.01,5.36,0.78C55,60,69.92,57.75,89.14,56.19c2.27-0.18,3.93,0.07,5.34,0.5" stroke-dasharray="57.71" stroke-dashoffset="57.71"><animate attributeName="stroke-dashoffset" values="57.71" fill="freeze" begin="72a7.click" /><animate id="11" attributeName="stroke-dashoffset" values="57.71;0" dur="0.58s" fill="freeze" begin="10.end" /></path></g></g><g><path d="M53.86,53.49c0.43,0.47,0.68,2.13,0.77,3.07c0.09,0.94,0,9.45-0.08,15.35" stroke-dasharray="18.55" stroke-dashoffset="18.55"><animate attributeName="stroke-dashoffset" values="18.55" fill="freeze" begin="72a7.click" /><animate id="12" attributeName="stroke-dashoffset" values="18.55;0" dur="0.19s" fill="freeze" begin="11.end" /></path></g><path d="M52.16,60.47C49.34,66.04,43.41,72.01,35.75,75" stroke-dasharray="22.38" stroke-dashoffset="22.38"><animate attributeName="stroke-dashoffset" values="22.38" fill="freeze" begin="72a7.click" /><animate id="13" attributeName="stroke-dashoffset" values="22.38;0" dur="0.22s" fill="freeze" begin="12.end" /></path><path d="M56.62,63.5c5.02,0.82,8.31,2.46,11.21,4.75" stroke-dasharray="12.32" stroke-dashoffset="12.32"><animate attributeName="stroke-dashoffset" values="12.32" fill="freeze" begin="72a7.click" /><animate id="14" attributeName="stroke-dashoffset" values="12.32;0" dur="0.12s" fill="freeze" begin="13.end" /></path><path d="M41.91,76.21c0.95,0.35,2.69,0.44,3.64,0.35c6.05-0.61,11.7-1.38,17.75-2.45c1.56-0.28,2.53,0.17,3.33,0.34" stroke-dasharray="24.98" stroke-dashoffset="24.98"><animate attributeName="stroke-dashoffset" values="24.98" fill="freeze" begin="72a7.click" /><animate id="15" attributeName="stroke-dashoffset" values="24.98;0" dur="0.25s" fill="freeze" begin="14.end" /></path><path d="M49.99,77.55c0.3,0.39,0.25,1.44,0.06,2.05c-0.22,0.7-3.19,4.53-3.29,4.92c-0.1,0.39-0.04,1.37,0.8,1.16c2.78-0.69,8.09-1.6,12.38-2.16c1.61-0.21,2.3,1.12,2.11,2.64c-0.45,3.6-2.79,8.4-5.37,11.51c-2.29,2.76-4.06,0.5-5.34-1.95" stroke-dasharray="46.49" stroke-dashoffset="46.49"><animate attributeName="stroke-dashoffset" values="46.49" fill="freeze" begin="72a7.click" /><animate id="16" attributeName="stroke-dashoffset" values="46.49;0" dur="0.46s" fill="freeze" begin="15.end" /></path><g p6:part="2" xmlns:p6="http://kanjivg.tagaini.net"><path d="M71.04,45.75c1.19,1.1,1.39,1.4,1.64,3.76C74.77,69.24,80,84.25,93.65,95.85c4.06,3.45,4.02,0.47,3.42-4.38" stroke-dasharray="66" stroke-dashoffset="66"><animate attributeName="stroke-dashoffset" values="66" fill="freeze" begin="72a7.click" /><animate id="17" attributeName="stroke-dashoffset" values="66;0" dur="0.5s" fill="freeze" begin="16.end" /></path><g><path d="M88.51,64.6c0.06,0.72,0.13,1.87-0.12,2.91c-1.48,6.14-9.69,21.61-21.98,29.1" stroke-dasharray="40.1" stroke-dashoffset="40.1"><animate attributeName="stroke-dashoffset" values="40.1" fill="freeze" begin="72a7.click" /><animate id="18" attributeName="stroke-dashoffset" values="40.1;0" dur="0.4s" fill="freeze" begin="17.end" /></path></g><g p6:part="2"><g><path d="M81.49,44.81c2.62,1.2,6.8,3.95,8.02,6.01" stroke-dasharray="10.12" stroke-dashoffset="10.12"><animate attributeName="stroke-dashoffset" values="10.12" fill="freeze" begin="72a7.click" /><animate id="19" attributeName="stroke-dashoffset" values="10.12;0" dur="0.1s" fill="freeze" begin="18.end" /></path></g></g></g></g></g></g></g></svg>