<svg xmlns="http://www.w3.org/2000/svg" viewBox="0 0 109 109" id="72af"><g fill="none" stroke="#666" stroke-width="6" stroke-linecap="round" stroke-linejoin="round"><g><g><path d="M39.31,17.5c0.13,1.12-0.19,2.21-0.8,3.09c-5.08,7.33-11.26,12.79-22.76,20.7" /><path d="M20.5,20.75c29.5,15,17.75,82.25,4.75,68.5" /><path d="M34.32,46.75c0,1.12-0.22,2.29-0.61,2.92C28.62,57.88,23.75,64.12,14,72.04" /></g><g p4:phon="㔾/卩" xmlns:p4="http://kanjivg.tagaini.net"><path d="M51.5,26.75c1,0.25,3.25,0.5,5.25,0.25s23.04-4.01,25.5-4.5c3.12-0.62,5.28,1.29,4.75,4c-1.75,9-2.75,17.25-7.5,29.25c-3.3,8.33-6.38,1.75-7.5,0" /><path d="M52.74,27.37c1.07,1.07,1.26,2.99,1.28,5.13c0.1,10.48,0.45,39.57,0.45,44.66c0,12.59,2.53,15.37,20,15.37c20.28,0,21.92-3.02,21.92-9.79" /></g></g></g><g fill="none" stroke="#000" stroke-width="3" stroke-linecap="round" stroke-linejoin="round"><path d="M39.31,17.5c0.13,1.12-0.19,2.21-0.8,3.09c-5.08,7.33-11.26,12.79-22.76,20.7" stroke-dasharray="34.213" stroke-dashoffset="34.213"><animate attributeName="stroke-dashoffset" values="34.213;34.213;0" dur="0.342s" fill="freeze" begin="0s;72af.click" /></path><path d="M20.5,20.75c29.5,15,17.75,82.25,4.75,68.5" stroke-dasharray="84.099" stroke-dashoffset="84.099"><animate attributeName="stroke-dashoffset" values="84.099" fill="freeze" begin="72af.click" /><animate attributeName="stroke-dashoffset" values="84.099;84.099;0" keyTimes="0;0.351;1" dur="0.974s" fill="freeze" begin="0s;72af.click" /></path><path d="M34.32,46.75c0,1.12-0.22,2.29-0.61,2.92C28.62,57.88,23.75,64.12,14,72.04" stroke-dasharray="32.995" stroke-dashoffset="32.995"><animate attributeName="stroke-dashoffset" values="32.995" fill="freeze" begin="72af.click" /><animate attributeName="stroke-dashoffset" values="32.995;32.995;0" keyTimes="0;0.747;1" dur="1.304s" fill="freeze" begin="0s;72af.click" /></path><path d="M51.5,26.75c1,0.25,3.25,0.5,5.25,0.25s23.04-4.01,25.5-4.5c3.12-0.62,5.28,1.29,4.75,4c-1.75,9-2.75,17.25-7.5,29.25c-3.3,8.33-6.38,1.75-7.5,0" stroke-dasharray="80.609" stroke-dashoffset="80.609"><animate attributeName="stroke-dashoffset" values="80.609" fill="freeze" begin="72af.click" /><animate attributeName="stroke-dashoffset" values="80.609;80.609;0" keyTimes="0;0.683;1" dur="1.91s" fill="freeze" begin="0s;72af.click" /></path><path d="M52.74,27.37c1.07,1.07,1.26,2.99,1.28,5.13c0.1,10.48,0.45,39.57,0.45,44.66c0,12.59,2.53,15.37,20,15.37c20.28,0,21.92-3.02,21.92-9.79" stroke-dasharray="108.007" stroke-dashoffset="108.007"><animate attributeName="stroke-dashoffset" values="108.007" fill="freeze" begin="72af.click" /><animate attributeName="stroke-dashoffset" values="108.007;108.007;0" keyTimes="0;0.702;1" dur="2.722s" fill="freeze" begin="0s;72af.click" /></path></g></svg>