<svg xmlns="http://www.w3.org/2000/svg" width="109" height="109" viewBox="0 0 109 109" id="72c2"><g fill="none" stroke="#666" stroke-width="9" stroke-linecap="round" stroke-linejoin="round"><g><g><path d="M38.8,18.25c0.14,1.17-0.69,2.17-1.32,3.04C31.89,28.93,26.36,34.56,12.75,43" /><path d="M19,20c23.5,19.75,18.75,79,8,67" /><path d="M30.83,44.25c0.09,1.1,0.16,2.04-0.35,3.05c-4.25,8.52-8.67,14.67-18.98,23.99" /></g><g p4:partial p4:phon="王" xmlns:p4="http://kanjivg.tagaini.net"><path d="M48.4,26.88c2.23,0.49,5.09,0.11,6.98-0.15c6.25-0.85,19.07-2.82,27.01-3.55c2.03-0.19,4.2-0.51,6.16,0.25" /><path d="M66.4,28.5c1.43,1.43,1.67,2.83,1.67,4.75c0,13.41-0.02,28.75-0.02,50.25" /><path d="M49.96,54.53c2.29,0.59,4.9,0.34,6.32,0.18c6.96-0.8,17.14-1.92,24.86-2.71c2.05-0.21,4.33-0.64,6.34,0.01" /><path d="M42,85.52c2.55,0.7,5.27,0.89,7.87,0.65c11.5-1.05,22.5-2.17,37.75-2.51c2.53-0.05,5.5,0.33,7.88,1.01" /></g></g></g><g fill="none" stroke="#000" stroke-width="5" stroke-linecap="round" stroke-linejoin="round"><path d="M38.8,18.25c0.14,1.17-0.69,2.17-1.32,3.04C31.89,28.93,26.36,34.56,12.75,43" stroke-dasharray="36.552" stroke-dashoffset="36.552"><animate attributeName="stroke-dashoffset" values="36.552;36.552;0" dur="0.366s" fill="freeze" begin="0s;72c2.click" /></path><path d="M19,20c23.5,19.75,18.75,79,8,67" stroke-dasharray="78.254" stroke-dashoffset="78.254"><animate attributeName="stroke-dashoffset" values="78.254" fill="freeze" begin="72c2.click" /><animate attributeName="stroke-dashoffset" values="78.254;78.254;0" keyTimes="0;0.384;1" dur="0.954s" fill="freeze" begin="0s;72c2.click" /></path><path d="M30.83,44.25c0.09,1.1,0.16,2.04-0.35,3.05c-4.25,8.52-8.67,14.67-18.98,23.99" stroke-dasharray="33.921" stroke-dashoffset="33.921"><animate attributeName="stroke-dashoffset" values="33.921" fill="freeze" begin="72c2.click" /><animate attributeName="stroke-dashoffset" values="33.921;33.921;0" keyTimes="0;0.738;1" dur="1.293s" fill="freeze" begin="0s;72c2.click" /></path><path d="M48.4,26.88c2.23,0.49,5.09,0.11,6.98-0.15c6.25-0.85,19.07-2.82,27.01-3.55c2.03-0.19,4.2-0.51,6.16,0.25" stroke-dasharray="40.488" stroke-dashoffset="40.488"><animate attributeName="stroke-dashoffset" values="40.488" fill="freeze" begin="72c2.click" /><animate attributeName="stroke-dashoffset" values="40.488;40.488;0" keyTimes="0;0.761;1" dur="1.698s" fill="freeze" begin="0s;72c2.click" /></path><path d="M66.4,28.5c1.43,1.43,1.67,2.83,1.67,4.75c0,13.41-0.02,28.75-0.02,50.25" stroke-dasharray="55.449" stroke-dashoffset="55.449"><animate attributeName="stroke-dashoffset" values="55.449" fill="freeze" begin="72c2.click" /><animate attributeName="stroke-dashoffset" values="55.449;55.449;0" keyTimes="0;0.754;1" dur="2.252s" fill="freeze" begin="0s;72c2.click" /></path><path d="M49.96,54.53c2.29,0.59,4.9,0.34,6.32,0.18c6.96-0.8,17.14-1.92,24.86-2.71c2.05-0.21,4.33-0.64,6.34,0.01" stroke-dasharray="37.757" stroke-dashoffset="37.757"><animate attributeName="stroke-dashoffset" values="37.757" fill="freeze" begin="72c2.click" /><animate attributeName="stroke-dashoffset" values="37.757;37.757;0" keyTimes="0;0.856;1" dur="2.63s" fill="freeze" begin="0s;72c2.click" /></path><path d="M42,85.52c2.55,0.7,5.27,0.89,7.87,0.65c11.5-1.05,22.5-2.17,37.75-2.51c2.53-0.05,5.5,0.33,7.88,1.01" stroke-dasharray="53.754" stroke-dashoffset="53.754"><animate attributeName="stroke-dashoffset" values="53.754" fill="freeze" begin="72c2.click" /><animate attributeName="stroke-dashoffset" values="53.754;53.754;0" keyTimes="0;0.83;1" dur="3.168s" fill="freeze" begin="0s;72c2.click" /></path></g></svg>