<svg xmlns="http://www.w3.org/2000/svg" viewBox="0 0 109 109" id="72ce"><g fill="none" stroke="#666" stroke-width="6" stroke-linecap="round" stroke-linejoin="round"><g><g><path d="M37.8,16c0.07,0.58,0.31,1.7-0.14,2.32C32,26.29,26.25,31.93,12.5,40.54" /><path d="M15.08,18.5c31.42,22,21.57,84.02,7.1,71.42" /><path d="M30.32,44.5c0.05,0.63,0.25,1.83-0.11,2.51C25.67,55.63,21.05,61.72,10,71.04" /></g><g><g p5:partial xmlns:p5="http://kanjivg.tagaini.net"><path d="M48.01,21.25c0.32,0.67,1.35,2.14,1.5,2.96c1.52,8.41,3.49,23.11,4.17,35.58" /><path d="M50.05,22.74c12.66-1.38,32.23-3.25,40.94-3.8c3.2-0.2,5.1,1.25,4.94,4.06c-0.37,6.68-3.36,29.96-4.68,34.05" /><path d="M51.92,39.7c3.8-0.28,39.13-3.2,42.26-3.15" /><path d="M54.34,56.64c11.02-1.37,25.56-2.61,37.6-3.1" /></g><g><path d="M70.11,22.94c0.89,0.56,1.44,2.03,1.44,3.81c-0.03,8.98,0.3,70.04,0.3,72.97" /></g></g></g></g><g fill="none" stroke="#000" stroke-width="3" stroke-linecap="round" stroke-linejoin="round"><path d="M37.8,16c0.07,0.58,0.31,1.7-0.14,2.32C32,26.29,26.25,31.93,12.5,40.54" stroke-dasharray="36.205" stroke-dashoffset="36.205"><animate attributeName="stroke-dashoffset" values="36.205;36.205;0" dur="0.362s" fill="freeze" begin="0s;72ce.click" /></path><path d="M15.08,18.5c31.42,22,21.57,84.02,7.1,71.42" stroke-dasharray="87.365" stroke-dashoffset="87.365"><animate attributeName="stroke-dashoffset" values="87.365" fill="freeze" begin="72ce.click" /><animate attributeName="stroke-dashoffset" values="87.365;87.365;0" keyTimes="0;0.355;1" dur="1.019s" fill="freeze" begin="0s;72ce.click" /></path><path d="M30.32,44.5c0.05,0.63,0.25,1.83-0.11,2.51C25.67,55.63,21.05,61.72,10,71.04" stroke-dasharray="34.18" stroke-dashoffset="34.18"><animate attributeName="stroke-dashoffset" values="34.18" fill="freeze" begin="72ce.click" /><animate attributeName="stroke-dashoffset" values="34.18;34.18;0" keyTimes="0;0.749;1" dur="1.361s" fill="freeze" begin="0s;72ce.click" /></path><path d="M48.01,21.25c0.32,0.67,1.35,2.14,1.5,2.96c1.52,8.41,3.49,23.11,4.17,35.58" stroke-dasharray="39.173" stroke-dashoffset="39.173"><animate attributeName="stroke-dashoffset" values="39.173" fill="freeze" begin="72ce.click" /><animate attributeName="stroke-dashoffset" values="39.173;39.173;0" keyTimes="0;0.776;1" dur="1.753s" fill="freeze" begin="0s;72ce.click" /></path><path d="M50.05,22.74c12.66-1.38,32.23-3.25,40.94-3.8c3.2-0.2,5.1,1.25,4.94,4.06c-0.37,6.68-3.36,29.96-4.68,34.05" stroke-dasharray="82.961" stroke-dashoffset="82.961"><animate attributeName="stroke-dashoffset" values="82.961" fill="freeze" begin="72ce.click" /><animate attributeName="stroke-dashoffset" values="82.961;82.961;0" keyTimes="0;0.737;1" dur="2.377s" fill="freeze" begin="0s;72ce.click" /></path><path d="M51.92,39.7c3.8-0.28,39.13-3.2,42.26-3.15" stroke-dasharray="42.38" stroke-dashoffset="42.38"><animate attributeName="stroke-dashoffset" values="42.38" fill="freeze" begin="72ce.click" /><animate attributeName="stroke-dashoffset" values="42.38;42.38;0" keyTimes="0;0.849;1" dur="2.801s" fill="freeze" begin="0s;72ce.click" /></path><path d="M54.34,56.64c11.02-1.37,25.56-2.61,37.6-3.1" stroke-dasharray="37.738" stroke-dashoffset="37.738"><animate attributeName="stroke-dashoffset" values="37.738" fill="freeze" begin="72ce.click" /><animate attributeName="stroke-dashoffset" values="37.738;37.738;0" keyTimes="0;0.881;1" dur="3.178s" fill="freeze" begin="0s;72ce.click" /></path><path d="M70.11,22.94c0.89,0.56,1.44,2.03,1.44,3.81c-0.03,8.98,0.3,70.04,0.3,72.97" stroke-dasharray="77.2" stroke-dashoffset="77.2"><animate attributeName="stroke-dashoffset" values="77.2" fill="freeze" begin="72ce.click" /><animate attributeName="stroke-dashoffset" values="77.2;77.2;0" keyTimes="0;0.846;1" dur="3.758s" fill="freeze" begin="0s;72ce.click" /></path></g></svg>