<svg xmlns="http://www.w3.org/2000/svg" width="109" height="109" viewBox="0 0 109 109" id="72d0"><g fill="none" stroke="#666" stroke-width="9" stroke-linecap="round" stroke-linejoin="round"><g><g><path d="M37.55,15c-0.02,1.25-0.38,2.36-1.07,3.33C30.12,27.12,24.25,34,12.75,42.54" /><path d="M16,19.75C45.75,35,33.88,107,23,90" /><path d="M30.58,44.75c-0.05,1.32-0.37,2.54-0.95,3.69c-4.51,8.94-8.4,13.99-17.38,24.11" /></g><g><g><path d="M84.05,12.75c-0.48,1.39-1.32,2.41-2.52,3.06c-7.04,4.48-13.2,6.88-30.16,12.82" /></g><path d="M47.58,25.63c0.89,0.89,1.16,2.12,1.16,3.66c0,26.09,1.51,46.34-11.43,62.68" /><g><path d="M62.22,27.93c0.99,0.99,1.15,2.44,1.15,3.81c0,6.12-0.11,41.94-0.11,51.88" /><path d="M50.18,88.01c0.72,0.58,2.62,0.95,4.12,0.32c7.95-3.34,11.33-4.51,19.82-8.21" /><path d="M72.51,71.64c3.24,4.11,6.11,11.7,6.71,16.12" /></g><path d="M75,21.38c2.88,15.25,6.5,35.12,13.32,56.15c1.82,5.6,4.93,11.73,7.68,15.87" /></g></g></g><g fill="none" stroke="#000" stroke-width="5" stroke-linecap="round" stroke-linejoin="round"><g><g><path d="M37.55,15c-0.02,1.25-0.38,2.36-1.07,3.33C30.12,27.12,24.25,34,12.75,42.54" stroke-dasharray="37.613" stroke-dashoffset="37.613"><animate attributeName="stroke-dashoffset" values="37.613;37.613;0" dur="0.376s" fill="freeze" begin="0s;72d0.click" /></path><path d="M16,19.75C45.75,35,33.88,107,23,90" stroke-dasharray="86.024" stroke-dashoffset="86.024"><animate attributeName="stroke-dashoffset" values="86.024" fill="freeze" begin="72d0.click" /><animate attributeName="stroke-dashoffset" values="86.024;86.024;0" keyTimes="0;0.368;1" dur="1.023s" fill="freeze" begin="0s;72d0.click" /></path><path d="M30.58,44.75c-0.05,1.32-0.37,2.54-0.95,3.69c-4.51,8.94-8.4,13.99-17.38,24.11" stroke-dasharray="33.667" stroke-dashoffset="33.667"><animate attributeName="stroke-dashoffset" values="33.667" fill="freeze" begin="72d0.click" /><animate attributeName="stroke-dashoffset" values="33.667;33.667;0" keyTimes="0;0.752;1" dur="1.36s" fill="freeze" begin="0s;72d0.click" /></path></g><g><g><path d="M84.05,12.75c-0.48,1.39-1.32,2.41-2.52,3.06c-7.04,4.48-13.2,6.88-30.16,12.82" stroke-dasharray="36.912" stroke-dashoffset="36.912"><animate attributeName="stroke-dashoffset" values="36.912" fill="freeze" begin="72d0.click" /><animate attributeName="stroke-dashoffset" values="36.912;36.912;0" keyTimes="0;0.787;1" dur="1.729s" fill="freeze" begin="0s;72d0.click" /></path></g><path d="M47.58,25.63c0.89,0.89,1.16,2.12,1.16,3.66c0,26.09,1.51,46.34-11.43,62.68" stroke-dasharray="69.01" stroke-dashoffset="69.01"><animate attributeName="stroke-dashoffset" values="69.01" fill="freeze" begin="72d0.click" /><animate attributeName="stroke-dashoffset" values="69.01;69.01;0" keyTimes="0;0.769;1" dur="2.248s" fill="freeze" begin="0s;72d0.click" /></path><g><path d="M62.22,27.93c0.99,0.99,1.15,2.44,1.15,3.81c0,6.12-0.11,41.94-0.11,51.88" stroke-dasharray="55.97" stroke-dashoffset="55.97"><animate attributeName="stroke-dashoffset" values="55.97" fill="freeze" begin="72d0.click" /><animate attributeName="stroke-dashoffset" values="55.97;55.97;0" keyTimes="0;0.801;1" dur="2.808s" fill="freeze" begin="0s;72d0.click" /></path><path d="M50.18,88.01c0.72,0.58,2.62,0.95,4.12,0.32c7.95-3.34,11.33-4.51,19.82-8.21" stroke-dasharray="25.744" stroke-dashoffset="25.744"><animate attributeName="stroke-dashoffset" values="25.744" fill="freeze" begin="72d0.click" /><animate attributeName="stroke-dashoffset" values="25.744;25.744;0" keyTimes="0;0.916;1" dur="3.065s" fill="freeze" begin="0s;72d0.click" /></path><path d="M72.51,71.64c3.24,4.11,6.11,11.7,6.71,16.12" stroke-dasharray="17.614" stroke-dashoffset="17.614"><animate attributeName="stroke-dashoffset" values="17.614" fill="freeze" begin="72d0.click" /><animate attributeName="stroke-dashoffset" values="17.614;17.614;0" keyTimes="0;0.946;1" dur="3.241s" fill="freeze" begin="0s;72d0.click" /></path></g><path d="M75,21.38c2.88,15.25,6.5,35.12,13.32,56.15c1.82,5.6,4.93,11.73,7.68,15.87" stroke-dasharray="75.431" stroke-dashoffset="75.431"><animate attributeName="stroke-dashoffset" values="75.431" fill="freeze" begin="72d0.click" /><animate attributeName="stroke-dashoffset" values="75.431;75.431;0" keyTimes="0;0.851;1" dur="3.808s" fill="freeze" begin="0s;72d0.click" /></path></g></g></g></svg>