<svg xmlns="http://www.w3.org/2000/svg" width="109" height="109" viewBox="0 0 109 109" id="72ec"><g fill="none" stroke="#666" stroke-width="9" stroke-linecap="round" stroke-linejoin="round"><g><g><path d="M38.56,21c0.07,0.88-0.22,1.87-0.62,2.56C32.83,32.34,25.25,42.25,14,50.54" /><path d="M21.5,27.5c24.25,20.25,14,74.75,3.25,62.75" /><path d="M35.57,49c0.11,1.29-0.61,2.55-1.19,3.64c-4.35,8.11-8.81,13.9-19.38,22.91" /></g><g p4:phon="蜀T" xmlns:p4="http://kanjivg.tagaini.net"><g><g><path d="M48.92,42.6c0.87,0.87,1.7,2.15,1.88,3.39c0.63,4.34,1.73,9.45,2.66,17.02c0.21,1.73,0.44,3.54,0.67,5.42" /><path d="M51.04,43.92c9.5-1.54,28.99-4.12,37.34-5.11c3.37-0.4,5.79,0.6,5.01,4.31c-1.02,4.88-1.33,7.61-3.17,16.28" /><path d="M55.01,64.48c10.49-1.36,19.46-2.25,32.5-3.67c1.32-0.14,2.66-0.29,4.01-0.44" /></g><g><path d="M69.62,15c0.94,0.94,1.47,2.5,1.47,4.16c0,0.92,0,59.82-0.22,65.41" /></g></g><path d="M51.25,89.88c0.82,0.69,2.32,0.86,3.12,0.62C62,88.25,81.12,82.25,88.3,80.15" /><path d="M82.99,73.34c4.4,2.86,11.36,11.76,12.46,16.21" /></g></g></g><g fill="none" stroke="#000" stroke-width="5" stroke-linecap="round" stroke-linejoin="round"><path d="M38.56,21c0.07,0.88-0.22,1.87-0.62,2.56C32.83,32.34,25.25,42.25,14,50.54" stroke-dasharray="38.996" stroke-dashoffset="38.996"><animate attributeName="stroke-dashoffset" values="38.996;38.996;0" dur="0.39s" fill="freeze" begin="0s;72ec.click" /></path><path d="M21.5,27.5c24.25,20.25,14,74.75,3.25,62.75" stroke-dasharray="75.038" stroke-dashoffset="75.038"><animate attributeName="stroke-dashoffset" values="75.038" fill="freeze" begin="72ec.click" /><animate attributeName="stroke-dashoffset" values="75.038;75.038;0" keyTimes="0;0.409;1" dur="0.954s" fill="freeze" begin="0s;72ec.click" /></path><path d="M35.57,49c0.11,1.29-0.61,2.55-1.19,3.64c-4.35,8.11-8.81,13.9-19.38,22.91" stroke-dasharray="34.103" stroke-dashoffset="34.103"><animate attributeName="stroke-dashoffset" values="34.103" fill="freeze" begin="72ec.click" /><animate attributeName="stroke-dashoffset" values="34.103;34.103;0" keyTimes="0;0.737;1" dur="1.295s" fill="freeze" begin="0s;72ec.click" /></path><path d="M48.92,42.6c0.87,0.87,1.7,2.15,1.88,3.39c0.63,4.34,1.73,9.45,2.66,17.02c0.21,1.73,0.44,3.54,0.67,5.42" stroke-dasharray="26.628" stroke-dashoffset="26.628"><animate attributeName="stroke-dashoffset" values="26.628" fill="freeze" begin="72ec.click" /><animate attributeName="stroke-dashoffset" values="26.628;26.628;0" keyTimes="0;0.83;1" dur="1.561s" fill="freeze" begin="0s;72ec.click" /></path><path d="M51.04,43.92c9.5-1.54,28.99-4.12,37.34-5.11c3.37-0.4,5.79,0.6,5.01,4.31c-1.02,4.88-1.33,7.61-3.17,16.28" stroke-dasharray="62.528" stroke-dashoffset="62.528"><animate attributeName="stroke-dashoffset" values="62.528" fill="freeze" begin="72ec.click" /><animate attributeName="stroke-dashoffset" values="62.528;62.528;0" keyTimes="0;0.769;1" dur="2.031s" fill="freeze" begin="0s;72ec.click" /></path><path d="M55.01,64.48c10.49-1.36,19.46-2.25,32.5-3.67c1.32-0.14,2.66-0.29,4.01-0.44" stroke-dasharray="36.742" stroke-dashoffset="36.742"><animate attributeName="stroke-dashoffset" values="36.742" fill="freeze" begin="72ec.click" /><animate attributeName="stroke-dashoffset" values="36.742;36.742;0" keyTimes="0;0.847;1" dur="2.398s" fill="freeze" begin="0s;72ec.click" /></path><path d="M69.62,15c0.94,0.94,1.47,2.5,1.47,4.16c0,0.92,0,59.82-0.22,65.41" stroke-dasharray="69.933" stroke-dashoffset="69.933"><animate attributeName="stroke-dashoffset" values="69.933" fill="freeze" begin="72ec.click" /><animate attributeName="stroke-dashoffset" values="69.933;69.933;0" keyTimes="0;0.82;1" dur="2.924s" fill="freeze" begin="0s;72ec.click" /></path><path d="M51.25,89.88c0.82,0.69,2.32,0.86,3.12,0.62C62,88.25,81.12,82.25,88.3,80.15" stroke-dasharray="38.759" stroke-dashoffset="38.759"><animate attributeName="stroke-dashoffset" values="38.759" fill="freeze" begin="72ec.click" /><animate attributeName="stroke-dashoffset" values="38.759;38.759;0" keyTimes="0;0.883;1" dur="3.312s" fill="freeze" begin="0s;72ec.click" /></path><path d="M82.99,73.34c4.4,2.86,11.36,11.76,12.46,16.21" stroke-dasharray="20.72" stroke-dashoffset="20.72"><animate attributeName="stroke-dashoffset" values="20.72" fill="freeze" begin="72ec.click" /><animate attributeName="stroke-dashoffset" values="20.72;20.72;0" keyTimes="0;0.941;1" dur="3.519s" fill="freeze" begin="0s;72ec.click" /></path></g></svg>