<svg xmlns="http://www.w3.org/2000/svg" width="109" height="109" viewBox="0 0 109 109" id="72f8"><g fill="none" stroke="#666" stroke-width="9" stroke-linecap="round" stroke-linejoin="round"><g><g><path d="M36.55,15.75c0.06,0.57,0.3,1.66-0.13,2.27c-5.44,7.81-10.96,13.33-24.17,21.77" /><path d="M16.5,19.5c27,22,18.75,85,5.5,69" /><path d="M28.34,44c0.05,0.64,0.21,1.87-0.1,2.56c-3.94,8.78-7.93,14.99-17.49,24.48" /></g><g><path d="M46.54,21.5c0.31,0.57,0.82,0.96,0.99,1.67c1.42,5.88,2.75,22.23,3.63,33.19" /><path d="M48.01,22.29c10.98-1.48,31.79-2.49,39.99-3.73c3.01-0.46,4.55,1.16,4.4,2.77c-0.57,5.93-2.97,22.07-4.34,31.97" /><path d="M49.55,37.49c3.58-0.58,37.49-2.32,40.44-2.56" /><path d="M51.22,53.27c7.9-0.63,24.91-1.77,35.82-2.8" /><path d="M67.83,22.13c1.17,1.12,1.57,3.35,1.6,4.36c0.39,12.89,0.16,57.85,0.16,62.51" /><path d="M49.72,70.67c0.8,0.38,2.27,0.42,3.08,0.38c8.36-0.44,23.26-2.3,33.61-2.38c1.34-0.01,2.14,0.18,2.81,0.37" /><path d="M40.38,90.23c1.3,0.54,3.68,0.63,4.98,0.54c13.52-0.91,33.62-2.77,49.72-2.73c2.17,0,3.46,0.26,4.55,0.53" /></g></g></g><g fill="none" stroke="#000" stroke-width="5" stroke-linecap="round" stroke-linejoin="round"><g><g><path d="M36.55,15.75c0.06,0.57,0.3,1.66-0.13,2.27c-5.44,7.81-10.96,13.33-24.17,21.77" stroke-dasharray="35.1" stroke-dashoffset="35.1"><animate id="0" attributeName="stroke-dashoffset" values="35.1;0" dur="0.35s" fill="freeze" begin="0s;72f8.click" /></path><path d="M16.5,19.5c27,22,18.75,85,5.5,69" stroke-dasharray="84.36" stroke-dashoffset="84.36"><animate attributeName="stroke-dashoffset" values="84.36" fill="freeze" begin="72f8.click" /><animate id="1" attributeName="stroke-dashoffset" values="84.36;0" dur="0.63s" fill="freeze" begin="0.end" /></path><path d="M28.34,44c0.05,0.64,0.21,1.87-0.1,2.56c-3.94,8.78-7.93,14.99-17.49,24.48" stroke-dasharray="32.88" stroke-dashoffset="32.88"><animate attributeName="stroke-dashoffset" values="32.88" fill="freeze" begin="72f8.click" /><animate id="2" attributeName="stroke-dashoffset" values="32.88;0" dur="0.33s" fill="freeze" begin="1.end" /></path></g><g><path d="M46.54,21.5c0.31,0.57,0.82,0.96,0.99,1.67c1.42,5.88,2.75,22.23,3.63,33.19" stroke-dasharray="35.36" stroke-dashoffset="35.36"><animate attributeName="stroke-dashoffset" values="35.36" fill="freeze" begin="72f8.click" /><animate id="3" attributeName="stroke-dashoffset" values="35.36;0" dur="0.35s" fill="freeze" begin="2.end" /></path><path d="M48.01,22.29c10.98-1.48,31.79-2.49,39.99-3.73c3.01-0.46,4.55,1.16,4.4,2.77c-0.57,5.93-2.97,22.07-4.34,31.97" stroke-dasharray="78.46" stroke-dashoffset="78.46"><animate attributeName="stroke-dashoffset" values="78.46" fill="freeze" begin="72f8.click" /><animate id="4" attributeName="stroke-dashoffset" values="78.46;0" dur="0.59s" fill="freeze" begin="3.end" /></path><path d="M49.55,37.49c3.58-0.58,37.49-2.32,40.44-2.56" stroke-dasharray="40.52" stroke-dashoffset="40.52"><animate attributeName="stroke-dashoffset" values="40.52" fill="freeze" begin="72f8.click" /><animate id="5" attributeName="stroke-dashoffset" values="40.52;0" dur="0.41s" fill="freeze" begin="4.end" /></path><path d="M51.22,53.27c7.9-0.63,24.91-1.77,35.82-2.8" stroke-dasharray="35.93" stroke-dashoffset="35.93"><animate attributeName="stroke-dashoffset" values="35.93" fill="freeze" begin="72f8.click" /><animate id="6" attributeName="stroke-dashoffset" values="35.93;0" dur="0.36s" fill="freeze" begin="5.end" /></path><path d="M67.83,22.13c1.17,1.12,1.57,3.35,1.6,4.36c0.39,12.89,0.16,57.85,0.16,62.51" stroke-dasharray="67.25" stroke-dashoffset="67.25"><animate attributeName="stroke-dashoffset" values="67.25" fill="freeze" begin="72f8.click" /><animate id="7" attributeName="stroke-dashoffset" values="67.25;0" dur="0.51s" fill="freeze" begin="6.end" /></path><path d="M49.72,70.67c0.8,0.38,2.27,0.42,3.08,0.38c8.36-0.44,23.26-2.3,33.61-2.38c1.34-0.01,2.14,0.18,2.81,0.37" stroke-dasharray="39.67" stroke-dashoffset="39.67"><animate attributeName="stroke-dashoffset" values="39.67" fill="freeze" begin="72f8.click" /><animate id="8" attributeName="stroke-dashoffset" values="39.67;0" dur="0.4s" fill="freeze" begin="7.end" /></path><path d="M40.38,90.23c1.3,0.54,3.68,0.63,4.98,0.54c13.52-0.91,33.62-2.77,49.72-2.73c2.17,0,3.46,0.26,4.55,0.53" stroke-dasharray="59.44" stroke-dashoffset="59.44"><animate attributeName="stroke-dashoffset" values="59.44" fill="freeze" begin="72f8.click" /><animate id="9" attributeName="stroke-dashoffset" values="59.44;0" dur="0.59s" fill="freeze" begin="8.end" /></path></g></g></g></svg>