<svg xmlns="http://www.w3.org/2000/svg" viewBox="0 0 109 109" id="72f9"><g fill="none" stroke="#666" stroke-width="6" stroke-linecap="round" stroke-linejoin="round"><g><g><path d="M37.05,16.5c0.07,0.57,0.31,1.68-0.14,2.3c-5.66,7.89-11.41,13.46-25.16,21.99" /><path d="M17.5,17.75c28.25,23.5,17.46,85.03,5.75,72" /><path d="M31.33,44c0.05,0.61,0.23,1.8-0.1,2.46c-4.21,8.46-8.49,14.43-18.73,23.58" /></g><g><g><path d="M41.25,30.15c1.18,0.28,3.35,0.35,4.53,0.28c7.53-0.48,36.28-3.52,43.58-3.2c1.96,0.09,3.15,0.13,4.14,0.27" /></g><g><g><path d="M51.01,38.74c0,0.56,0.04,1.03-0.07,1.69c-1.04,6.11-4.15,13.7-8.72,20.45" /><path d="M50.39,49.71c2.84,1.5,6.48,5.5,7.86,9.29" /></g><g><path d="M83.27,36.74c0,0.5,0.07,0.92-0.07,1.49c-1.27,4.86-4.9,13.5-9.22,18.4" /><path d="M81.14,47.46c4.7,2.79,8.3,6.29,11.11,10.54" /></g></g><g><path d="M65.34,13.25c0.44,1.13,1.15,2.43,1.15,4.86c0,45.19-1.47,62.29-28.74,77.39" /><path d="M66.25,57.5c5.72,10.21,18.31,28.33,26.07,34.2c2.17,1.65,2.75,2.12,3.68,2.3" /></g></g></g></g><g fill="none" stroke="#000" stroke-width="3" stroke-linecap="round" stroke-linejoin="round"><path d="M37.05,16.5c0.07,0.57,0.31,1.68-0.14,2.3c-5.66,7.89-11.41,13.46-25.16,21.99" stroke-dasharray="36.031" stroke-dashoffset="36.031"><animate attributeName="stroke-dashoffset" values="36.031;36.031;0" dur="0.36s" fill="freeze" begin="0s;72f9.click" /></path><path d="M17.5,17.75c28.25,23.5,17.46,85.03,5.75,72" stroke-dasharray="85.51" stroke-dashoffset="85.51"><animate attributeName="stroke-dashoffset" values="85.51" fill="freeze" begin="72f9.click" /><animate attributeName="stroke-dashoffset" values="85.51;85.51;0" keyTimes="0;0.359;1" dur="1.003s" fill="freeze" begin="0s;72f9.click" /></path><path d="M31.33,44c0.05,0.61,0.23,1.8-0.1,2.46c-4.21,8.46-8.49,14.43-18.73,23.58" stroke-dasharray="32.825" stroke-dashoffset="32.825"><animate attributeName="stroke-dashoffset" values="32.825" fill="freeze" begin="72f9.click" /><animate attributeName="stroke-dashoffset" values="32.825;32.825;0" keyTimes="0;0.754;1" dur="1.331s" fill="freeze" begin="0s;72f9.click" /></path><path d="M41.25,30.15c1.18,0.28,3.35,0.35,4.53,0.28c7.53-0.48,36.28-3.52,43.58-3.2c1.96,0.09,3.15,0.13,4.14,0.27" stroke-dasharray="52.411" stroke-dashoffset="52.411"><animate attributeName="stroke-dashoffset" values="52.411" fill="freeze" begin="72f9.click" /><animate attributeName="stroke-dashoffset" values="52.411;52.411;0" keyTimes="0;0.718;1" dur="1.855s" fill="freeze" begin="0s;72f9.click" /></path><path d="M51.01,38.74c0,0.56,0.04,1.03-0.07,1.69c-1.04,6.11-4.15,13.7-8.72,20.45" stroke-dasharray="24.082" stroke-dashoffset="24.082"><animate attributeName="stroke-dashoffset" values="24.082" fill="freeze" begin="72f9.click" /><animate attributeName="stroke-dashoffset" values="24.082;24.082;0" keyTimes="0;0.885;1" dur="2.096s" fill="freeze" begin="0s;72f9.click" /></path><path d="M50.39,49.71c2.84,1.5,6.48,5.5,7.86,9.29" stroke-dasharray="12.39" stroke-dashoffset="12.39"><animate attributeName="stroke-dashoffset" values="12.39" fill="freeze" begin="72f9.click" /><animate attributeName="stroke-dashoffset" values="12.39;12.39;0" keyTimes="0;0.944;1" dur="2.22s" fill="freeze" begin="0s;72f9.click" /></path><path d="M83.27,36.74c0,0.5,0.07,0.92-0.07,1.49c-1.27,4.86-4.9,13.5-9.22,18.4" stroke-dasharray="22.225" stroke-dashoffset="22.225"><animate attributeName="stroke-dashoffset" values="22.225" fill="freeze" begin="72f9.click" /><animate attributeName="stroke-dashoffset" values="22.225;22.225;0" keyTimes="0;0.909;1" dur="2.442s" fill="freeze" begin="0s;72f9.click" /></path><path d="M81.14,47.46c4.7,2.79,8.3,6.29,11.11,10.54" stroke-dasharray="15.45" stroke-dashoffset="15.45"><animate attributeName="stroke-dashoffset" values="15.45" fill="freeze" begin="72f9.click" /><animate attributeName="stroke-dashoffset" values="15.45;15.45;0" keyTimes="0;0.94;1" dur="2.597s" fill="freeze" begin="0s;72f9.click" /></path><path d="M65.34,13.25c0.44,1.13,1.15,2.43,1.15,4.86c0,45.19-1.47,62.29-28.74,77.39" stroke-dasharray="93.215" stroke-dashoffset="93.215"><animate attributeName="stroke-dashoffset" values="93.215" fill="freeze" begin="72f9.click" /><animate attributeName="stroke-dashoffset" values="93.215;93.215;0" keyTimes="0;0.787;1" dur="3.298s" fill="freeze" begin="0s;72f9.click" /></path><path d="M66.25,57.5c5.72,10.21,18.31,28.33,26.07,34.2c2.17,1.65,2.75,2.12,3.68,2.3" stroke-dasharray="47.568" stroke-dashoffset="47.568"><animate attributeName="stroke-dashoffset" values="47.568" fill="freeze" begin="72f9.click" /><animate attributeName="stroke-dashoffset" values="47.568;47.568;0" keyTimes="0;0.874;1" dur="3.774s" fill="freeze" begin="0s;72f9.click" /></path></g></svg>