<svg xmlns="http://www.w3.org/2000/svg" width="109" height="109" viewBox="0 0 109 109" id="731b"><g fill="none" stroke="#666" stroke-width="9" stroke-linecap="round" stroke-linejoin="round"><g><g><path d="M37.8,18c0.13,1.07-0.47,2-1.11,2.78c-5.06,6.17-12.53,12.82-22.94,19.52" /><path d="M17.5,17.75c31,21.75,17.71,84.03,6,71" /><path d="M31.09,46c0.09,1.25,0.06,2.16-0.47,3.3c-3.67,7.99-7.77,13.4-16.62,22.24" /></g><g p4:phon="孟" xmlns:p4="http://kanjivg.tagaini.net"><g><path d="M50.84,18.15c2.06,1.05,4.96,1.11,7.21,0.74c5.21-0.87,15.83-2.85,19.24-3.46c2.67-0.48,4.69,1,2.26,3.2C76.5,21.38,73.68,23.97,66.25,30" /><path d="M62.78,29.51c7.35,4.24,8.82,17.99,7.13,25.77c-1.14,5.23-4.03,7.62-8.32,2" /><path d="M42.05,42.25c3.2,0.75,6.45,0.73,10.08,0.01c9-1.76,25.66-3.65,34.24-4.07c2.56-0.12,5.63,0.05,8.14,0.84" /></g><g><path d="M47.62,67.75c0.82,0.82,1.19,2.11,1.3,2.97c0.87,6.82,1.08,11.16,1.68,18.2" /><path d="M49.33,69.64c8.09-1.23,28.59-3.56,36.04-4.03c3.41-0.22,4.91,0.33,4.24,4.06c-0.79,4.42-2.55,11.78-3.76,17.02" /><path d="M60.38,70.52c0.74,0.74,0.93,1.64,1.01,2.46c0.48,4.9,0.79,9.16,1.3,14.87" /><path d="M74.07,69c0.4,0.78,0.52,1.86,0.46,2.86c-0.28,4.89-0.78,9.76-1.27,15.45" /><path d="M39.89,89.87c3.86,0.88,6.79,0.56,9.74,0.3c12-1.05,25.53-1.85,40.88-2.46c2.82-0.11,5.12,0.04,7.86,0.72" /></g></g></g></g><g fill="none" stroke="#000" stroke-width="5" stroke-linecap="round" stroke-linejoin="round"><g><g><path d="M37.8,18c0.13,1.07-0.47,2-1.11,2.78c-5.06,6.17-12.53,12.82-22.94,19.52" stroke-dasharray="33.32" stroke-dashoffset="33.32"><animate id="0" attributeName="stroke-dashoffset" values="33.32;0" dur="0.33s" fill="freeze" begin="0s;731b.click" /></path><path d="M17.5,17.75c31,21.75,17.71,84.03,6,71" stroke-dasharray="85.78" stroke-dashoffset="85.78"><animate attributeName="stroke-dashoffset" values="85.78" fill="freeze" begin="731b.click" /><animate id="1" attributeName="stroke-dashoffset" values="85.78;0" dur="0.64s" fill="freeze" begin="0.end" /></path><path d="M31.09,46c0.09,1.25,0.06,2.16-0.47,3.3c-3.67,7.99-7.77,13.4-16.62,22.24" stroke-dasharray="31.31" stroke-dashoffset="31.31"><animate attributeName="stroke-dashoffset" values="31.31" fill="freeze" begin="731b.click" /><animate id="2" attributeName="stroke-dashoffset" values="31.31;0" dur="0.31s" fill="freeze" begin="1.end" /></path></g><g p4:phon="孟" xmlns:p4="http://kanjivg.tagaini.net"><g><path d="M50.84,18.15c2.06,1.05,4.96,1.11,7.21,0.74c5.21-0.87,15.83-2.85,19.24-3.46c2.67-0.48,4.69,1,2.26,3.2C76.5,21.38,73.68,23.97,66.25,30" stroke-dasharray="50.67" stroke-dashoffset="50.67"><animate attributeName="stroke-dashoffset" values="50.67" fill="freeze" begin="731b.click" /><animate id="3" attributeName="stroke-dashoffset" values="50.67;0" dur="0.51s" fill="freeze" begin="2.end" /></path><path d="M62.78,29.51c7.35,4.24,8.82,17.99,7.13,25.77c-1.14,5.23-4.03,7.62-8.32,2" stroke-dasharray="40.86" stroke-dashoffset="40.86"><animate attributeName="stroke-dashoffset" values="40.86" fill="freeze" begin="731b.click" /><animate id="4" attributeName="stroke-dashoffset" values="40.86;0" dur="0.41s" fill="freeze" begin="3.end" /></path><path d="M42.05,42.25c3.2,0.75,6.45,0.73,10.08,0.01c9-1.76,25.66-3.65,34.24-4.07c2.56-0.12,5.63,0.05,8.14,0.84" stroke-dasharray="52.88" stroke-dashoffset="52.88"><animate attributeName="stroke-dashoffset" values="52.88" fill="freeze" begin="731b.click" /><animate id="5" attributeName="stroke-dashoffset" values="52.88;0" dur="0.53s" fill="freeze" begin="4.end" /></path></g><g><path d="M47.62,67.75c0.82,0.82,1.19,2.11,1.3,2.97c0.87,6.82,1.08,11.16,1.68,18.2" stroke-dasharray="21.58" stroke-dashoffset="21.58"><animate attributeName="stroke-dashoffset" values="21.58" fill="freeze" begin="731b.click" /><animate id="6" attributeName="stroke-dashoffset" values="21.58;0" dur="0.22s" fill="freeze" begin="5.end" /></path><path d="M49.33,69.64c8.09-1.23,28.59-3.56,36.04-4.03c3.41-0.22,4.91,0.33,4.24,4.06c-0.79,4.42-2.55,11.78-3.76,17.02" stroke-dasharray="61.2" stroke-dashoffset="61.2"><animate attributeName="stroke-dashoffset" values="61.2" fill="freeze" begin="731b.click" /><animate id="7" attributeName="stroke-dashoffset" values="61.2;0" dur="0.46s" fill="freeze" begin="6.end" /></path><path d="M60.38,70.52c0.74,0.74,0.93,1.64,1.01,2.46c0.48,4.9,0.79,9.16,1.3,14.87" stroke-dasharray="17.64" stroke-dashoffset="17.64"><animate attributeName="stroke-dashoffset" values="17.64" fill="freeze" begin="731b.click" /><animate id="8" attributeName="stroke-dashoffset" values="17.64;0" dur="0.18s" fill="freeze" begin="7.end" /></path><path d="M74.07,69c0.4,0.78,0.52,1.86,0.46,2.86c-0.28,4.89-0.78,9.76-1.27,15.45" stroke-dasharray="18.43" stroke-dashoffset="18.43"><animate attributeName="stroke-dashoffset" values="18.43" fill="freeze" begin="731b.click" /><animate id="9" attributeName="stroke-dashoffset" values="18.43;0" dur="0.18s" fill="freeze" begin="8.end" /></path><path d="M39.89,89.87c3.86,0.88,6.79,0.56,9.74,0.3c12-1.05,25.53-1.85,40.88-2.46c2.82-0.11,5.12,0.04,7.86,0.72" stroke-dasharray="58.67" stroke-dashoffset="58.67"><animate attributeName="stroke-dashoffset" values="58.67" fill="freeze" begin="731b.click" /><animate id="10" attributeName="stroke-dashoffset" values="58.67;0" dur="0.59s" fill="freeze" begin="9.end" /></path></g></g></g></g></svg>