<svg xmlns="http://www.w3.org/2000/svg" width="109" height="109" viewBox="0 0 109 109" id="732a"><g fill="none" stroke="#666" stroke-width="6" stroke-linecap="round" stroke-linejoin="round"><g><g><path d="M40.06,19c0.07,1.34-0.32,2.33-1.02,3.41c-4.67,7.22-11.54,15.72-22.79,24.89" /><path d="M18.75,21.5C51,48.25,36.21,103.78,24.5,90.75" /><path d="M32.34,45.5c0.1,1.57-0.02,2.56-0.66,4.01c-3.74,8.55-8.59,15.34-17.43,24.79" /></g><g><g p5:partial xmlns:p5="http://kanjivg.tagaini.net"><g><path d="M49.95,31.99c1.8,0.51,3.74,0.26,5.31,0.08c6.78-0.75,16.58-2.36,23.23-2.88c1.62-0.13,3.26-0.32,4.82,0.2" /><path d="M66.52,13.12c0.93,0.93,1.29,2.01,1.29,3.7c0,8.44-0.03,27.28-0.03,30.15" /><path d="M43.9,49.26c3.6,0.62,5.99,0.42,9.11,0.03c9.15-1.14,26.51-3.11,35.09-3.74c2.52-0.19,5.02-0.54,7.88,0.2" /></g><path d="M90.67,21.97c0.12,1.24-0.32,3.01-1.25,4.48C77.5,45.29,65.5,61,45.05,76.19" /></g><g><path d="M60.12,61c0.81,0.81,0.91,2.01,0.91,3.14c0,3.84,0,18.4,0,26.73c0,2.77,0,4.85,0,5.62" /><path d="M62.07,62.4c1.59-0.12,14.49-1.48,19.64-2.12c3.17-0.39,4.33,1.1,4.33,3.35c0,5.35-0.03,17.46-0.04,25C86,90.98,86,92.88,86,94" /><path d="M62.15,76.85c5.35-0.47,19.93-1.76,22.78-1.76" /><path d="M62.29,93.35c5.12-0.6,16.25-1.47,22.63-1.98" /></g></g></g></g><g fill="none" stroke="#000" stroke-width="3" stroke-linecap="round" stroke-linejoin="round"><path d="M40.06,19c0.07,1.34-0.32,2.33-1.02,3.41c-4.67,7.22-11.54,15.72-22.79,24.89" stroke-dasharray="37.516" stroke-dashoffset="37.516"><animate attributeName="stroke-dashoffset" values="37.516;37.516;0" dur="0.375s" fill="freeze" begin="0s;732a.click" /></path><path d="M18.75,21.5C51,48.25,36.21,103.78,24.5,90.75" stroke-dasharray="84.799" stroke-dashoffset="84.799"><animate attributeName="stroke-dashoffset" values="84.799" fill="freeze" begin="732a.click" /><animate attributeName="stroke-dashoffset" values="84.799;84.799;0" keyTimes="0;0.37;1" dur="1.013s" fill="freeze" begin="0s;732a.click" /></path><path d="M32.34,45.5c0.1,1.57-0.02,2.56-0.66,4.01c-3.74,8.55-8.59,15.34-17.43,24.79" stroke-dasharray="34.581" stroke-dashoffset="34.581"><animate attributeName="stroke-dashoffset" values="34.581" fill="freeze" begin="732a.click" /><animate attributeName="stroke-dashoffset" values="34.581;34.581;0" keyTimes="0;0.745;1" dur="1.359s" fill="freeze" begin="0s;732a.click" /></path><path d="M49.95,31.99c1.8,0.51,3.74,0.26,5.31,0.08c6.78-0.75,16.58-2.36,23.23-2.88c1.62-0.13,3.26-0.32,4.82,0.2" stroke-dasharray="33.618" stroke-dashoffset="33.618"><animate attributeName="stroke-dashoffset" values="33.618" fill="freeze" begin="732a.click" /><animate attributeName="stroke-dashoffset" values="33.618;33.618;0" keyTimes="0;0.802;1" dur="1.695s" fill="freeze" begin="0s;732a.click" /></path><path d="M66.52,13.12c0.93,0.93,1.29,2.01,1.29,3.7c0,8.44-0.03,27.28-0.03,30.15" stroke-dasharray="34.187" stroke-dashoffset="34.187"><animate attributeName="stroke-dashoffset" values="34.187" fill="freeze" begin="732a.click" /><animate attributeName="stroke-dashoffset" values="34.187;34.187;0" keyTimes="0;0.832;1" dur="2.037s" fill="freeze" begin="0s;732a.click" /></path><path d="M43.9,49.26c3.6,0.62,5.99,0.42,9.11,0.03c9.15-1.14,26.51-3.11,35.09-3.74c2.52-0.19,5.02-0.54,7.88,0.2" stroke-dasharray="52.369" stroke-dashoffset="52.369"><animate attributeName="stroke-dashoffset" values="52.369" fill="freeze" begin="732a.click" /><animate attributeName="stroke-dashoffset" values="52.369;52.369;0" keyTimes="0;0.795;1" dur="2.561s" fill="freeze" begin="0s;732a.click" /></path><path d="M90.67,21.97c0.12,1.24-0.32,3.01-1.25,4.48C77.5,45.29,65.5,61,45.05,76.19" stroke-dasharray="71.81" stroke-dashoffset="71.81"><animate attributeName="stroke-dashoffset" values="71.81" fill="freeze" begin="732a.click" /><animate attributeName="stroke-dashoffset" values="71.81;71.81;0" keyTimes="0;0.826;1" dur="3.101s" fill="freeze" begin="0s;732a.click" /></path><path d="M60.12,61c0.81,0.81,0.91,2.01,0.91,3.14c0,3.84,0,18.4,0,26.73c0,2.77,0,4.85,0,5.62" stroke-dasharray="35.71" stroke-dashoffset="35.71"><animate attributeName="stroke-dashoffset" values="35.71" fill="freeze" begin="732a.click" /><animate attributeName="stroke-dashoffset" values="35.71;35.71;0" keyTimes="0;0.897;1" dur="3.458s" fill="freeze" begin="0s;732a.click" /></path><path d="M62.07,62.4c1.59-0.12,14.49-1.48,19.64-2.12c3.17-0.39,4.33,1.1,4.33,3.35c0,5.35-0.03,17.46-0.04,25C86,90.98,86,92.88,86,94" stroke-dasharray="56.579" stroke-dashoffset="56.579"><animate attributeName="stroke-dashoffset" values="56.579" fill="freeze" begin="732a.click" /><animate attributeName="stroke-dashoffset" values="56.579;56.579;0" keyTimes="0;0.859;1" dur="4.024s" fill="freeze" begin="0s;732a.click" /></path><path d="M62.15,76.85c5.35-0.47,19.93-1.76,22.78-1.76" stroke-dasharray="22.851" stroke-dashoffset="22.851"><animate attributeName="stroke-dashoffset" values="22.851" fill="freeze" begin="732a.click" /><animate attributeName="stroke-dashoffset" values="22.851;22.851;0" keyTimes="0;0.946;1" dur="4.253s" fill="freeze" begin="0s;732a.click" /></path><path d="M62.29,93.35c5.12-0.6,16.25-1.47,22.63-1.98" stroke-dasharray="22.718" stroke-dashoffset="22.718"><animate attributeName="stroke-dashoffset" values="22.718" fill="freeze" begin="732a.click" /><animate attributeName="stroke-dashoffset" values="22.718;22.718;0" keyTimes="0;0.949;1" dur="4.48s" fill="freeze" begin="0s;732a.click" /></path></g></svg>