<svg xmlns="http://www.w3.org/2000/svg" width="109" height="109" viewBox="0 0 109 109" id="733f"><g fill="none" stroke="#666" stroke-width="6" stroke-linecap="round" stroke-linejoin="round"><g><g><path d="M37.82,14.75c0.11,0.93-0.05,1.89-0.61,2.65c-5.23,6.98-10.65,12-23.34,19.61" /><path d="M18.05,17.24C44.21,39.08,33,107.75,20.64,90.63" /><path d="M29.33,42.01c0.1,1.41,0,2.26-0.62,3.53c-3.67,7.62-7.62,12.44-16.49,20.99" /></g><g p4:phon="袁" xmlns:p4="http://kanjivg.tagaini.net"><g><path d="M47.47,22.9c1.78,0.48,3.8,0.47,5.38,0.2c6.91-1.19,17-2.29,22.91-2.72c1.73-0.13,3.42-0.29,5.1,0.24" /><path d="M62.67,10.62c0.73,0.73,1.13,2.13,1.13,3.53c0,4.86-0.05,15.69-0.05,18.86" /><g p4:partial><g p4:partial><path d="M40.21,35.75c2.42,0.63,5.11,0.45,7.32,0.19c12.35-1.44,26.16-3,37.48-3.51c2.38-0.1,4.65-0.22,6.96,0.44" /></g></g></g><g><g><path d="M47.28,45.29c0.72,0.72,0.97,1.46,1.2,2.14c0.64,1.89,1.24,4.89,1.99,8.28c0.32,1.44,0.38,2.45,0.65,4.01" /><path d="M49.16,46.17c7.95-1.21,20.45-2.69,27.46-3.12c2.73-0.17,4.52,0.33,3.83,3.35c-0.58,2.6-0.71,3.73-1.65,7.25" /><path d="M52.1,57.5c5.29-0.79,15.51-1.78,23.19-2.46c1.85-0.16,3.61-0.32,5.2-0.48" /></g><g p4:partial><path d="M61.06,59.4c0.12,1.09-0.23,2.11-0.91,2.96c-3.78,4.77-9.82,10.83-20.93,18.9" /><path d="M54.8,72.19c0.75,0.75,1,1.93,1,3.2c0,7.08-0.24,17.53-0.24,18.73s0.88,1.88,2.01,0.98c1.12-0.9,9.18-6.97,12.78-9.84" /><path d="M84.14,61.36c0,0.64-0.07,1.48-0.34,1.82c-1.92,2.44-4.24,4.45-10.7,9.33" /><path d="M62.64,67.46c4.34,0.51,12.11,9.29,24.43,20.59c1.9,1.74,3.69,2.95,5.77,3.96" /></g></g></g></g></g><g fill="none" stroke="#000" stroke-width="3" stroke-linecap="round" stroke-linejoin="round"><path d="M37.82,14.75c0.11,0.93-0.05,1.89-0.61,2.65c-5.23,6.98-10.65,12-23.34,19.61" stroke-dasharray="33.494" stroke-dashoffset="33.494"><animate attributeName="stroke-dashoffset" values="33.494;33.494;0" dur="0.335s" fill="freeze" begin="0s;733f.click" /></path><path d="M18.05,17.24C44.21,39.08,33,107.75,20.64,90.63" stroke-dasharray="88.249" stroke-dashoffset="88.249"><animate attributeName="stroke-dashoffset" values="88.249" fill="freeze" begin="733f.click" /><animate attributeName="stroke-dashoffset" values="88.249;88.249;0" keyTimes="0;0.335;1" dur="0.999s" fill="freeze" begin="0s;733f.click" /></path><path d="M29.33,42.01c0.1,1.41,0,2.26-0.62,3.53c-3.67,7.62-7.62,12.44-16.49,20.99" stroke-dasharray="30.499" stroke-dashoffset="30.499"><animate attributeName="stroke-dashoffset" values="30.499" fill="freeze" begin="733f.click" /><animate attributeName="stroke-dashoffset" values="30.499;30.499;0" keyTimes="0;0.766;1" dur="1.304s" fill="freeze" begin="0s;733f.click" /></path><path d="M47.47,22.9c1.78,0.48,3.8,0.47,5.38,0.2c6.91-1.19,17-2.29,22.91-2.72c1.73-0.13,3.42-0.29,5.1,0.24" stroke-dasharray="33.642" stroke-dashoffset="33.642"><animate attributeName="stroke-dashoffset" values="33.642" fill="freeze" begin="733f.click" /><animate attributeName="stroke-dashoffset" values="33.642;33.642;0" keyTimes="0;0.795;1" dur="1.64s" fill="freeze" begin="0s;733f.click" /></path><path d="M62.67,10.62c0.73,0.73,1.13,2.13,1.13,3.53c0,4.86-0.05,15.69-0.05,18.86" stroke-dasharray="22.653" stroke-dashoffset="22.653"><animate attributeName="stroke-dashoffset" values="22.653" fill="freeze" begin="733f.click" /><animate attributeName="stroke-dashoffset" values="22.653;22.653;0" keyTimes="0;0.878;1" dur="1.867s" fill="freeze" begin="0s;733f.click" /></path><path d="M40.21,35.75c2.42,0.63,5.11,0.45,7.32,0.19c12.35-1.44,26.16-3,37.48-3.51c2.38-0.1,4.65-0.22,6.96,0.44" stroke-dasharray="52.024" stroke-dashoffset="52.024"><animate attributeName="stroke-dashoffset" values="52.024" fill="freeze" begin="733f.click" /><animate attributeName="stroke-dashoffset" values="52.024;52.024;0" keyTimes="0;0.782;1" dur="2.387s" fill="freeze" begin="0s;733f.click" /></path><path d="M47.28,45.29c0.72,0.72,0.97,1.46,1.2,2.14c0.64,1.89,1.24,4.89,1.99,8.28c0.32,1.44,0.38,2.45,0.65,4.01" stroke-dasharray="15.063" stroke-dashoffset="15.063"><animate attributeName="stroke-dashoffset" values="15.063" fill="freeze" begin="733f.click" /><animate attributeName="stroke-dashoffset" values="15.063;15.063;0" keyTimes="0;0.941;1" dur="2.538s" fill="freeze" begin="0s;733f.click" /></path><path d="M49.16,46.17c7.95-1.21,20.45-2.69,27.46-3.12c2.73-0.17,4.52,0.33,3.83,3.35c-0.58,2.6-0.71,3.73-1.65,7.25" stroke-dasharray="41.504" stroke-dashoffset="41.504"><animate attributeName="stroke-dashoffset" values="41.504" fill="freeze" begin="733f.click" /><animate attributeName="stroke-dashoffset" values="41.504;41.504;0" keyTimes="0;0.859;1" dur="2.953s" fill="freeze" begin="0s;733f.click" /></path><path d="M52.1,57.5c5.29-0.79,15.51-1.78,23.19-2.46c1.85-0.16,3.61-0.32,5.2-0.48" stroke-dasharray="28.546" stroke-dashoffset="28.546"><animate attributeName="stroke-dashoffset" values="28.546" fill="freeze" begin="733f.click" /><animate attributeName="stroke-dashoffset" values="28.546;28.546;0" keyTimes="0;0.912;1" dur="3.238s" fill="freeze" begin="0s;733f.click" /></path><path d="M61.06,59.4c0.12,1.09-0.23,2.11-0.91,2.96c-3.78,4.77-9.82,10.83-20.93,18.9" stroke-dasharray="31.466" stroke-dashoffset="31.466"><animate attributeName="stroke-dashoffset" values="31.466" fill="freeze" begin="733f.click" /><animate attributeName="stroke-dashoffset" values="31.466;31.466;0" keyTimes="0;0.911;1" dur="3.553s" fill="freeze" begin="0s;733f.click" /></path><path d="M54.8,72.19c0.75,0.75,1,1.93,1,3.2c0,7.08-0.24,17.53-0.24,18.73s0.88,1.88,2.01,0.98c1.12-0.9,9.18-6.97,12.78-9.84" stroke-dasharray="41.322" stroke-dashoffset="41.322"><animate attributeName="stroke-dashoffset" values="41.322" fill="freeze" begin="733f.click" /><animate attributeName="stroke-dashoffset" values="41.322;41.322;0" keyTimes="0;0.896;1" dur="3.966s" fill="freeze" begin="0s;733f.click" /></path><path d="M84.14,61.36c0,0.64-0.07,1.48-0.34,1.82c-1.92,2.44-4.24,4.45-10.7,9.33" stroke-dasharray="16.112" stroke-dashoffset="16.112"><animate attributeName="stroke-dashoffset" values="16.112" fill="freeze" begin="733f.click" /><animate attributeName="stroke-dashoffset" values="16.112;16.112;0" keyTimes="0;0.961;1" dur="4.127s" fill="freeze" begin="0s;733f.click" /></path><path d="M62.64,67.46c4.34,0.51,12.11,9.29,24.43,20.59c1.9,1.74,3.69,2.95,5.77,3.96" stroke-dasharray="39.198" stroke-dashoffset="39.198"><animate attributeName="stroke-dashoffset" values="39.198" fill="freeze" begin="733f.click" /><animate attributeName="stroke-dashoffset" values="39.198;39.198;0" keyTimes="0;0.913;1" dur="4.519s" fill="freeze" begin="0s;733f.click" /></path></g></svg>