<svg xmlns="http://www.w3.org/2000/svg" width="109" height="109" viewBox="0 0 109 109" id="734f"><g fill="none" stroke="#666" stroke-width="9" stroke-linecap="round" stroke-linejoin="round"><g><g><path d="M36.55,15.75c0.07,0.6,0.3,1.77-0.13,2.42c-5.55,8.29-11.19,14.16-24.67,23.13" /><path d="M16.5,17.25c28.25,23.5,17.46,85.03,5.75,72" /><path d="M29.34,43c0.04,0.67,0.2,1.96-0.09,2.68c-3.6,9.19-7.26,15.68-16.01,25.62" /></g><g><g><path d="M42.5,22.32c1.44,0.57,3.1,0.61,4.55,0.57c11.26-0.32,28.96-2.65,44.18-2.72c2.39-0.01,3.83,0.27,5.03,0.55" /><path d="M55.17,11.5c1.17,1.43,1.54,1.87,1.67,2.75c1.17,8.25,2,12.25,2.33,15.25" /><path d="M78.5,9.75c0.28,1.18,0.58,2.02,0.33,3.5c-1.17,7-1.17,7.75-2.5,14.75" /></g><g><g><path d="M46.51,33.62c0.48,0.57,1.33,2.49,1.41,3.25c0.64,5.78,3.94,20.85,3.94,21.24" /><path d="M48.71,35.34c7.21-1.07,34.46-3.48,36.9-3.6c2.04-0.1,3.28,2.66,3.19,3.25c-0.66,4.6-3.23,16.46-4.35,21.2" /><path d="M49.69,45.11c3.63,0,33.28-2.13,37.39-2.13" /><path d="M51.36,56.14c7.4-0.41,24.19-2.05,33.41-2.4" /></g><g><path d="M40.75,70.61c1.83,0.39,3.88,0.67,5.08,0.61c14.77-0.72,30.55-1.72,48.01-2.64c1.51-0.08,3.8,0.17,5.91,0.42" /><path d="M67.06,59c-0.08,1.3,0.38,1.17,0.27,2.32c-1.92,19.51-10.17,30.75-26.58,36.93" /><path d="M66.5,70.5c5.96,6.26,18.89,21.03,24.85,25.23c2.03,1.43,2.73,1.64,3.65,1.77" /></g></g></g></g></g><g fill="none" stroke="#000" stroke-width="5" stroke-linecap="round" stroke-linejoin="round"><g><g><path d="M36.55,15.75c0.07,0.6,0.3,1.77-0.13,2.42c-5.55,8.29-11.19,14.16-24.67,23.13" stroke-dasharray="36.55" stroke-dashoffset="36.55"><animate id="0" attributeName="stroke-dashoffset" values="36.55;0" dur="0.37s" fill="freeze" begin="0s;734f.click" /></path><path d="M16.5,17.25c28.25,23.5,17.46,85.03,5.75,72" stroke-dasharray="85.51" stroke-dashoffset="85.51"><animate attributeName="stroke-dashoffset" values="85.51" fill="freeze" begin="734f.click" /><animate id="1" attributeName="stroke-dashoffset" values="85.51;0" dur="0.64s" fill="freeze" begin="0.end" /></path><path d="M29.34,43c0.04,0.67,0.2,1.96-0.09,2.68c-3.6,9.19-7.26,15.68-16.01,25.62" stroke-dasharray="33.1" stroke-dashoffset="33.1"><animate attributeName="stroke-dashoffset" values="33.1" fill="freeze" begin="734f.click" /><animate id="2" attributeName="stroke-dashoffset" values="33.1;0" dur="0.33s" fill="freeze" begin="1.end" /></path></g><g><g><path d="M42.5,22.32c1.44,0.57,3.1,0.61,4.55,0.57c11.26-0.32,28.96-2.65,44.18-2.72c2.39-0.01,3.83,0.27,5.03,0.55" stroke-dasharray="53.96" stroke-dashoffset="53.96"><animate attributeName="stroke-dashoffset" values="53.96" fill="freeze" begin="734f.click" /><animate id="3" attributeName="stroke-dashoffset" values="53.96;0" dur="0.54s" fill="freeze" begin="2.end" /></path><path d="M55.17,11.5c1.17,1.43,1.54,1.87,1.67,2.75c1.17,8.25,2,12.25,2.33,15.25" stroke-dasharray="18.69" stroke-dashoffset="18.69"><animate attributeName="stroke-dashoffset" values="18.69" fill="freeze" begin="734f.click" /><animate id="4" attributeName="stroke-dashoffset" values="18.69;0" dur="0.19s" fill="freeze" begin="3.end" /></path><path d="M78.5,9.75c0.28,1.18,0.58,2.02,0.33,3.5c-1.17,7-1.17,7.75-2.5,14.75" stroke-dasharray="18.51" stroke-dashoffset="18.51"><animate attributeName="stroke-dashoffset" values="18.51" fill="freeze" begin="734f.click" /><animate id="5" attributeName="stroke-dashoffset" values="18.51;0" dur="0.19s" fill="freeze" begin="4.end" /></path></g><g><g><path d="M46.51,33.62c0.48,0.57,1.33,2.49,1.41,3.25c0.64,5.78,3.94,20.85,3.94,21.24" stroke-dasharray="25.18" stroke-dashoffset="25.18"><animate attributeName="stroke-dashoffset" values="25.18" fill="freeze" begin="734f.click" /><animate id="6" attributeName="stroke-dashoffset" values="25.18;0" dur="0.25s" fill="freeze" begin="5.end" /></path><path d="M48.71,35.34c7.21-1.07,34.46-3.48,36.9-3.6c2.04-0.1,3.28,2.66,3.19,3.25c-0.66,4.6-3.23,16.46-4.35,21.2" stroke-dasharray="63.67" stroke-dashoffset="63.67"><animate attributeName="stroke-dashoffset" values="63.67" fill="freeze" begin="734f.click" /><animate id="7" attributeName="stroke-dashoffset" values="63.67;0" dur="0.48s" fill="freeze" begin="6.end" /></path><path d="M49.69,45.11c3.63,0,33.28-2.13,37.39-2.13" stroke-dasharray="37.45" stroke-dashoffset="37.45"><animate attributeName="stroke-dashoffset" values="37.45" fill="freeze" begin="734f.click" /><animate id="8" attributeName="stroke-dashoffset" values="37.45;0" dur="0.37s" fill="freeze" begin="7.end" /></path><path d="M51.36,56.14c7.4-0.41,24.19-2.05,33.41-2.4" stroke-dasharray="33.5" stroke-dashoffset="33.5"><animate attributeName="stroke-dashoffset" values="33.5" fill="freeze" begin="734f.click" /><animate id="9" attributeName="stroke-dashoffset" values="33.5;0" dur="0.34s" fill="freeze" begin="8.end" /></path></g><g><path d="M40.75,70.61c1.83,0.39,3.88,0.67,5.08,0.61c14.77-0.72,30.55-1.72,48.01-2.64c1.51-0.08,3.8,0.17,5.91,0.42" stroke-dasharray="59.14" stroke-dashoffset="59.14"><animate attributeName="stroke-dashoffset" values="59.14" fill="freeze" begin="734f.click" /><animate id="10" attributeName="stroke-dashoffset" values="59.14;0" dur="0.59s" fill="freeze" begin="9.end" /></path><path d="M67.06,59c-0.08,1.3,0.38,1.17,0.27,2.32c-1.92,19.51-10.17,30.75-26.58,36.93" stroke-dasharray="50.8" stroke-dashoffset="50.8"><animate attributeName="stroke-dashoffset" values="50.8" fill="freeze" begin="734f.click" /><animate id="11" attributeName="stroke-dashoffset" values="50.8;0" dur="0.51s" fill="freeze" begin="10.end" /></path><path d="M66.5,70.5c5.96,6.26,18.89,21.03,24.85,25.23c2.03,1.43,2.73,1.64,3.65,1.77" stroke-dasharray="39.55" stroke-dashoffset="39.55"><animate attributeName="stroke-dashoffset" values="39.55" fill="freeze" begin="734f.click" /><animate id="12" attributeName="stroke-dashoffset" values="39.55;0" dur="0.4s" fill="freeze" begin="11.end" /></path></g></g></g></g></g></svg>