<svg xmlns="http://www.w3.org/2000/svg" width="109" height="109" viewBox="0 0 109 109" id="7384"><g fill="none" stroke="#666" stroke-width="6" stroke-linecap="round" stroke-linejoin="round"><g><g><path d="M52.11,13c1.51,1.51,1.98,3.25,1.98,5.16c0,4.45-0.09,8.02-0.09,12.34" /><path d="M15,33.86c3.27,0.24,6.08,0.54,9.37,0.22c13.33-1.3,44.68-3.68,60.99-4.66c3.07-0.18,6.26,0.08,9.14,0.74" /></g><g><path d="M51.59,35.12c0.37,1.31,0.35,2.62-0.43,3.97C47.75,45,42.88,51.12,37.51,56.92c-1.07,1.15-0.88,2.96,0.5,3.29c3.95,0.94,12.2,5.14,15.49,7.55" /><path d="M69.46,48.87c0.54,1.38,0.42,3.26-0.75,4.75C59.72,65.08,46.5,76,31.96,89.87c-1.67,1.59-1.03,3.1,1,2.75c12.29-2.12,29.04-4.87,42-7.25" /><path d="M68.71,75.12c4.15,3.66,10.71,15.05,11.75,20.75" /></g></g></g><g fill="none" stroke="#000" stroke-width="3" stroke-linecap="round" stroke-linejoin="round"><path d="M52.11,13c1.51,1.51,1.98,3.25,1.98,5.16c0,4.45-0.09,8.02-0.09,12.34" stroke-dasharray="18.028" stroke-dashoffset="18.028"><animate attributeName="stroke-dashoffset" values="18.028;18.028;0" dur="0.18s" fill="freeze" begin="0s;7384.click" /></path><path d="M15,33.86c3.27,0.24,6.08,0.54,9.37,0.22c13.33-1.3,44.68-3.68,60.99-4.66c3.07-0.18,6.26,0.08,9.14,0.74" stroke-dasharray="79.757" stroke-dashoffset="79.757"><animate attributeName="stroke-dashoffset" values="79.757" fill="freeze" begin="7384.click" /><animate attributeName="stroke-dashoffset" values="79.757;79.757;0" keyTimes="0;0.231;1" dur="0.78s" fill="freeze" begin="0s;7384.click" /></path><path d="M51.59,35.12c0.37,1.31,0.35,2.62-0.43,3.97C47.75,45,42.88,51.12,37.51,56.92c-1.07,1.15-0.88,2.96,0.5,3.29c3.95,0.94,12.2,5.14,15.49,7.55" stroke-dasharray="47.937" stroke-dashoffset="47.937"><animate attributeName="stroke-dashoffset" values="47.937" fill="freeze" begin="7384.click" /><animate attributeName="stroke-dashoffset" values="47.937;47.937;0" keyTimes="0;0.62;1" dur="1.259s" fill="freeze" begin="0s;7384.click" /></path><path d="M69.46,48.87c0.54,1.38,0.42,3.26-0.75,4.75C59.72,65.08,46.5,76,31.96,89.87c-1.67,1.59-1.03,3.1,1,2.75c12.29-2.12,29.04-4.87,42-7.25" stroke-dasharray="103.885" stroke-dashoffset="103.885"><animate attributeName="stroke-dashoffset" values="103.885" fill="freeze" begin="7384.click" /><animate attributeName="stroke-dashoffset" values="103.885;103.885;0" keyTimes="0;0.617;1" dur="2.04s" fill="freeze" begin="0s;7384.click" /></path><path d="M68.71,75.12c4.15,3.66,10.71,15.05,11.75,20.75" stroke-dasharray="24.098" stroke-dashoffset="24.098"><animate attributeName="stroke-dashoffset" values="24.098" fill="freeze" begin="7384.click" /><animate attributeName="stroke-dashoffset" values="24.098;24.098;0" keyTimes="0;0.894;1" dur="2.281s" fill="freeze" begin="0s;7384.click" /></path></g></svg>