<svg xmlns="http://www.w3.org/2000/svg" viewBox="0 0 109 109" id="7387"><g fill="none" stroke="#666" stroke-width="6" stroke-linecap="round" stroke-linejoin="round"><g><g><g><path d="M52.79,10.75c0.92,0.92,1.38,2,1.38,3.58c0,3.56-0.12,3.92-0.12,6.76" /><path d="M22.03,24.47c2.47,0.28,5.49,0.15,8.22-0.14c12.38-1.33,34.38-3.2,48.26-3.91c2.36-0.12,6.25-0.04,7.97,0.35" /></g><g><path d="M49.51,26.12c0.28,0.84-0.09,2.22-0.64,3.13c-1.5,2.5-2.79,4.67-6.16,8.44c-0.84,0.94-0.93,1.81,0.25,2.1c2.79,0.71,3.92,1.24,6.45,2.79" /><path d="M61.53,28.7c0.22,0.93,0.22,2.05-0.5,2.99c-4.97,6.48-12.53,14.06-20.37,21.87c-0.92,0.91-0.79,2.57,1.06,2.12c4.7-1.14,14.03-3.68,19.94-5.52" /><path d="M59.38,45c2.65,1.86,6.83,7.64,7.5,10.53" /></g></g><g><g><path d="M20.75,32.88c3.4,1.26,8.77,5.19,9.62,7.15" /></g><g><path d="M17.5,58.66c1.52,1.59,2.79,2.27,4.32,0.91c0.9-0.8,8.12-7.96,11.93-11.82" /></g></g><path d="M81.53,27.64c0.09,0.94-0.31,1.93-0.87,2.75c-1.92,2.78-4.29,5.02-9.34,9.07" /><path d="M72.88,45.12c4.5,2.1,11.62,8.63,12.75,11.9" /><g><path d="M12.88,73.23c2.58,0.92,6.05,0.76,8.74,0.53c18.43-1.6,48.13-4.01,65.38-4.38c3-0.06,6.18,0.31,9.13,0.94" /><path d="M53.06,60.38c0.97,0.97,1.51,2.49,1.51,4.23c0,3.05,0,21.78,0,31.14c0,1.84,0,3.32,0,4.25" /></g></g></g><g fill="none" stroke="#000" stroke-width="3" stroke-linecap="round" stroke-linejoin="round"><path d="M52.79,10.75c0.92,0.92,1.38,2,1.38,3.58c0,3.56-0.12,3.92-0.12,6.76" stroke-dasharray="10.712" stroke-dashoffset="10.712"><animate attributeName="stroke-dashoffset" values="10.712;10.712;0" dur="0.214s" fill="freeze" begin="0s;7387.click" /></path><path d="M22.03,24.47c2.47,0.28,5.49,0.15,8.22-0.14c12.38-1.33,34.38-3.2,48.26-3.91c2.36-0.12,6.25-0.04,7.97,0.35" stroke-dasharray="64.654" stroke-dashoffset="64.654"><animate attributeName="stroke-dashoffset" values="64.654" fill="freeze" begin="7387.click" /><animate attributeName="stroke-dashoffset" values="64.654;64.654;0" keyTimes="0;0.306;1" dur="0.7s" fill="freeze" begin="0s;7387.click" /></path><path d="M49.51,26.12c0.28,0.84-0.09,2.22-0.64,3.13c-1.5,2.5-2.79,4.67-6.16,8.44c-0.84,0.94-0.93,1.81,0.25,2.1c2.79,0.71,3.92,1.24,6.45,2.79" stroke-dasharray="23.573" stroke-dashoffset="23.573"><animate attributeName="stroke-dashoffset" values="23.573" fill="freeze" begin="7387.click" /><animate attributeName="stroke-dashoffset" values="23.573;23.573;0" keyTimes="0;0.748;1" dur="0.936s" fill="freeze" begin="0s;7387.click" /></path><path d="M61.53,28.7c0.22,0.93,0.22,2.05-0.5,2.99c-4.97,6.48-12.53,14.06-20.37,21.87c-0.92,0.91-0.79,2.57,1.06,2.12c4.7-1.14,14.03-3.68,19.94-5.52" stroke-dasharray="57.314" stroke-dashoffset="57.314"><animate attributeName="stroke-dashoffset" values="57.314" fill="freeze" begin="7387.click" /><animate attributeName="stroke-dashoffset" values="57.314;57.314;0" keyTimes="0;0.62;1" dur="1.509s" fill="freeze" begin="0s;7387.click" /></path><path d="M59.38,45c2.65,1.86,6.83,7.64,7.5,10.53" stroke-dasharray="13.093" stroke-dashoffset="13.093"><animate attributeName="stroke-dashoffset" values="13.093" fill="freeze" begin="7387.click" /><animate attributeName="stroke-dashoffset" values="13.093;13.093;0" keyTimes="0;0.852;1" dur="1.771s" fill="freeze" begin="0s;7387.click" /></path><path d="M20.75,32.88c3.4,1.26,8.77,5.19,9.62,7.15" stroke-dasharray="12.152" stroke-dashoffset="12.152"><animate attributeName="stroke-dashoffset" values="12.152" fill="freeze" begin="7387.click" /><animate attributeName="stroke-dashoffset" values="12.152;12.152;0" keyTimes="0;0.879;1" dur="2.014s" fill="freeze" begin="0s;7387.click" /></path><path d="M17.5,58.66c1.52,1.59,2.79,2.27,4.32,0.91c0.9-0.8,8.12-7.96,11.93-11.82" stroke-dasharray="21.855" stroke-dashoffset="21.855"><animate attributeName="stroke-dashoffset" values="21.855" fill="freeze" begin="7387.click" /><animate attributeName="stroke-dashoffset" values="21.855;21.855;0" keyTimes="0;0.902;1" dur="2.233s" fill="freeze" begin="0s;7387.click" /></path><path d="M81.53,27.64c0.09,0.94-0.31,1.93-0.87,2.75c-1.92,2.78-4.29,5.02-9.34,9.07" stroke-dasharray="16.009" stroke-dashoffset="16.009"><animate attributeName="stroke-dashoffset" values="16.009" fill="freeze" begin="7387.click" /><animate attributeName="stroke-dashoffset" values="16.009;16.009;0" keyTimes="0;0.933;1" dur="2.393s" fill="freeze" begin="0s;7387.click" /></path><path d="M72.88,45.12c4.5,2.1,11.62,8.63,12.75,11.9" stroke-dasharray="17.695" stroke-dashoffset="17.695"><animate attributeName="stroke-dashoffset" values="17.695" fill="freeze" begin="7387.click" /><animate attributeName="stroke-dashoffset" values="17.695;17.695;0" keyTimes="0;0.931;1" dur="2.57s" fill="freeze" begin="0s;7387.click" /></path><path d="M12.88,73.23c2.58,0.92,6.05,0.76,8.74,0.53c18.43-1.6,48.13-4.01,65.38-4.38c3-0.06,6.18,0.31,9.13,0.94" stroke-dasharray="83.553" stroke-dashoffset="83.553"><animate attributeName="stroke-dashoffset" values="83.553" fill="freeze" begin="7387.click" /><animate attributeName="stroke-dashoffset" values="83.553;83.553;0" keyTimes="0;0.804;1" dur="3.198s" fill="freeze" begin="0s;7387.click" /></path><path d="M53.06,60.38c0.97,0.97,1.51,2.49,1.51,4.23c0,3.05,0,21.78,0,31.14c0,1.84,0,3.32,0,4.25" stroke-dasharray="39.998" stroke-dashoffset="39.998"><animate attributeName="stroke-dashoffset" values="39.998" fill="freeze" begin="7387.click" /><animate attributeName="stroke-dashoffset" values="39.998;39.998;0" keyTimes="0;0.889;1" dur="3.598s" fill="freeze" begin="0s;7387.click" /></path></g></svg>