<svg xmlns="http://www.w3.org/2000/svg" width="109" height="109" viewBox="0 0 109 109" id="7389"><g fill="none" stroke="#666" stroke-width="9" stroke-linecap="round" stroke-linejoin="round"><g><g p4:partial xmlns:p4="http://kanjivg.tagaini.net"><path d="M28.5,23.09c2.95,0.98,5.91,0.53,8.9,0.08c10.77-1.63,21.21-3.33,34.11-4.7c2.78-0.3,5.28-0.62,7.99,0.27" /><path d="M52,24.6c1,1.21,2,2.4,2,4.41c0,5.38,0.25,50.24,0.25,57.94" /><path d="M28.25,56.12c2.87,0.9,5.86,0.52,8.78,0.16c9.8-1.18,23.9-3.6,33.1-4.57c2.62-0.28,5.52-0.7,8.11,0.01" /><path d="M16,90.01c3.95,1.17,7.96,0.72,11.99,0.37c21.05-1.84,37.97-4.1,56.63-4.43c3.9-0.07,8.1-0.22,11.88,0.96" /></g><g><path d="M72,64c5.43,2.74,10.09,8.57,11.25,12" /></g></g></g><g fill="none" stroke="#000" stroke-width="5" stroke-linecap="round" stroke-linejoin="round"><g><g p4:partial xmlns:p4="http://kanjivg.tagaini.net"><path d="M28.5,23.09c2.95,0.98,5.91,0.53,8.9,0.08c10.77-1.63,21.21-3.33,34.11-4.7c2.78-0.3,5.28-0.62,7.99,0.27" stroke-dasharray="51.49" stroke-dashoffset="51.49"><animate id="0" attributeName="stroke-dashoffset" values="51.49;0" dur="0.51s" fill="freeze" begin="0s;7389.click" /></path><path d="M52,24.6c1,1.21,2,2.4,2,4.41c0,5.38,0.25,50.24,0.25,57.94" stroke-dasharray="62.9" stroke-dashoffset="62.9"><animate attributeName="stroke-dashoffset" values="62.9" fill="freeze" begin="7389.click" /><animate id="1" attributeName="stroke-dashoffset" values="62.9;0" dur="0.47s" fill="freeze" begin="0.end" /></path><path d="M28.25,56.12c2.87,0.9,5.86,0.52,8.78,0.16c9.8-1.18,23.9-3.6,33.1-4.57c2.62-0.28,5.52-0.7,8.11,0.01" stroke-dasharray="50.43" stroke-dashoffset="50.43"><animate attributeName="stroke-dashoffset" values="50.43" fill="freeze" begin="7389.click" /><animate id="2" attributeName="stroke-dashoffset" values="50.43;0" dur="0.5s" fill="freeze" begin="1.end" /></path><path d="M16,90.01c3.95,1.17,7.96,0.72,11.99,0.37c21.05-1.84,37.97-4.1,56.63-4.43c3.9-0.07,8.1-0.22,11.88,0.96" stroke-dasharray="80.87" stroke-dashoffset="80.87"><animate attributeName="stroke-dashoffset" values="80.87" fill="freeze" begin="7389.click" /><animate id="3" attributeName="stroke-dashoffset" values="80.87;0" dur="0.61s" fill="freeze" begin="2.end" /></path></g><g><path d="M72,64c5.43,2.74,10.09,8.57,11.25,12" stroke-dasharray="16.77" stroke-dashoffset="16.77"><animate attributeName="stroke-dashoffset" values="16.77" fill="freeze" begin="7389.click" /><animate id="4" attributeName="stroke-dashoffset" values="16.77;0" dur="0.17s" fill="freeze" begin="3.end" /></path></g></g></g></svg>