<svg xmlns="http://www.w3.org/2000/svg" width="109" height="109" viewBox="0 0 109 109" id="7396"><g fill="none" stroke="#666" stroke-width="6" stroke-linecap="round" stroke-linejoin="round"><g><g p4:partial xmlns:p4="http://kanjivg.tagaini.net"><path d="M11.27,21.73c0.61,0.4,3.93,0.45,4.55,0.37c4.71-0.55,13.81-1.85,20.56-3.19c1.33-0.26,3.87-0.54,5.67-0.15" /><path d="M25.79,23.71c0.94,0.94,1.12,2.29,1.12,3.81c0,6.51-0.04,40.86-0.04,47.73" /><path d="M11.9,48.1c2.1,0.53,4.71,0.27,6.24,0.06c5.61-0.78,13.45-2.47,17.32-3.33c0.63-0.14,2.42-0.45,3.92-0.32" /><path d="M11.12,82.1c0.88,1.15,2.38,1.52,4.08,0.64c5.76-2.98,11.8-6.62,21.95-12.33" /></g><g><g><g><path d="M60,15c0.07,0.91,0.3,2.4-0.13,3.67c-2.49,7.21-8.61,23.46-21.36,34.83" /></g><path d="M60.25,24.38c1.75,0.37,2.78,0.47,4.75,0.1c4.5-0.86,8.88-2.11,11.94-2.99c2.47-0.71,3.36,0.85,2.56,3.01c-7.62,20.75-21.25,51.12-49.5,69" /></g><path d="M67.5,53.25C70.88,60,79.88,74.38,87.38,84.63c2.12,2.89,5.08,5.8,7.87,8.12" /></g></g></g><g fill="none" stroke="#000" stroke-width="3" stroke-linecap="round" stroke-linejoin="round"><path d="M11.27,21.73c0.61,0.4,3.93,0.45,4.55,0.37c4.71-0.55,13.81-1.85,20.56-3.19c1.33-0.26,3.87-0.54,5.67-0.15" stroke-dasharray="31.11" stroke-dashoffset="31.11"><animate attributeName="stroke-dashoffset" values="31.11;31.11;0" dur="0.311s" fill="freeze" begin="0s;7396.click" /></path><path d="M25.79,23.71c0.94,0.94,1.12,2.29,1.12,3.81c0,6.51-0.04,40.86-0.04,47.73" stroke-dasharray="51.812" stroke-dashoffset="51.812"><animate attributeName="stroke-dashoffset" values="51.812" fill="freeze" begin="7396.click" /><animate attributeName="stroke-dashoffset" values="51.812;51.812;0" keyTimes="0;0.375;1" dur="0.829s" fill="freeze" begin="0s;7396.click" /></path><path d="M11.9,48.1c2.1,0.53,4.71,0.27,6.24,0.06c5.61-0.78,13.45-2.47,17.32-3.33c0.63-0.14,2.42-0.45,3.92-0.32" stroke-dasharray="27.864" stroke-dashoffset="27.864"><animate attributeName="stroke-dashoffset" values="27.864" fill="freeze" begin="7396.click" /><animate attributeName="stroke-dashoffset" values="27.864;27.864;0" keyTimes="0;0.748;1" dur="1.108s" fill="freeze" begin="0s;7396.click" /></path><path d="M11.12,82.1c0.88,1.15,2.38,1.52,4.08,0.64c5.76-2.98,11.8-6.62,21.95-12.33" stroke-dasharray="29.701" stroke-dashoffset="29.701"><animate attributeName="stroke-dashoffset" values="29.701" fill="freeze" begin="7396.click" /><animate attributeName="stroke-dashoffset" values="29.701;29.701;0" keyTimes="0;0.789;1" dur="1.405s" fill="freeze" begin="0s;7396.click" /></path><path d="M60,15c0.07,0.91,0.3,2.4-0.13,3.67c-2.49,7.21-8.61,23.46-21.36,34.83" stroke-dasharray="45.004" stroke-dashoffset="45.004"><animate attributeName="stroke-dashoffset" values="45.004" fill="freeze" begin="7396.click" /><animate attributeName="stroke-dashoffset" values="45.004;45.004;0" keyTimes="0;0.757;1" dur="1.855s" fill="freeze" begin="0s;7396.click" /></path><path d="M60.25,24.38c1.75,0.37,2.78,0.47,4.75,0.1c4.5-0.86,8.88-2.11,11.94-2.99c2.47-0.71,3.36,0.85,2.56,3.01c-7.62,20.75-21.25,51.12-49.5,69" stroke-dasharray="109.005" stroke-dashoffset="109.005"><animate attributeName="stroke-dashoffset" values="109.005" fill="freeze" begin="7396.click" /><animate attributeName="stroke-dashoffset" values="109.005;109.005;0" keyTimes="0;0.693;1" dur="2.675s" fill="freeze" begin="0s;7396.click" /></path><path d="M67.5,53.25C70.88,60,79.88,74.38,87.38,84.63c2.12,2.89,5.08,5.8,7.87,8.12" stroke-dasharray="48.512" stroke-dashoffset="48.512"><animate attributeName="stroke-dashoffset" values="48.512" fill="freeze" begin="7396.click" /><animate attributeName="stroke-dashoffset" values="48.512;48.512;0" keyTimes="0;0.847;1" dur="3.16s" fill="freeze" begin="0s;7396.click" /></path></g></svg>