<svg xmlns="http://www.w3.org/2000/svg" width="109" height="109" viewBox="0 0 109 109" id="73a9"><g fill="none" stroke="#666" stroke-width="9" stroke-linecap="round" stroke-linejoin="round"><g><g p4:partial xmlns:p4="http://kanjivg.tagaini.net"><path d="M12,22.75c1.75,0.62,4.63,0.53,6.01,0.29c4.49-0.79,11.74-1.76,17.12-2.36c1.78-0.26,3.57-0.32,5.37-0.17" /><path d="M26.82,24.52c1.08,1.08,1.23,2.11,1.23,3.48c0,5.95,0.1,37.62,0.1,42.32" /><path d="M12.75,46.25c1.25,0.38,3.39,0.59,5.01,0.37c6.36-0.87,12.99-2.37,17.48-2.94c0.69-0.09,3.22-0.66,4.25-0.31" /><path d="M12,78.25c1.5,1,2.78,0.8,4.25,0c7.12-3.88,15.5-9.12,23.5-13.88" /></g><g><g><path d="M50.59,21.11c2.34,0.36,4.71,0.4,7.05,0.05c7.73-1.16,12.98-2.16,22.85-3c2.19-0.19,4.33-0.34,6.48,0.07" /><path d="M45.13,44.56c3.55,0.66,7.1,0.37,10.64-0.37c10.13-1.78,20.23-2.93,30.6-3.77c2.97-0.24,5.93-0.19,8.88,0.31" /></g><g><g><path d="M59.36,46.94c0.64,1.31,0.56,2.78,0.3,4.33c-3.53,21.35-9.53,35.35-22.91,41.47" /></g><path d="M73.31,44.87c1.1,1.1,1.25,2.38,1.25,4.41c0,7.3-0.22,22.68-0.22,31.23c0,9.87,1.9,11.86,10.52,11.86C96.25,92.37,96,90.75,96,80.68" /></g></g></g></g><g fill="none" stroke="#000" stroke-width="5" stroke-linecap="round" stroke-linejoin="round"><g><g p4:partial xmlns:p4="http://kanjivg.tagaini.net"><path d="M12,22.75c1.75,0.62,4.63,0.53,6.01,0.29c4.49-0.79,11.74-1.76,17.12-2.36c1.78-0.26,3.57-0.32,5.37-0.17" stroke-dasharray="28.73" stroke-dashoffset="28.73"><animate id="0" attributeName="stroke-dashoffset" values="28.73;0" dur="0.29s" fill="freeze" begin="0s;73a9.click" /></path><path d="M26.82,24.52c1.08,1.08,1.23,2.11,1.23,3.48c0,5.95,0.1,37.62,0.1,42.32" stroke-dasharray="46.13" stroke-dashoffset="46.13"><animate attributeName="stroke-dashoffset" values="46.13" fill="freeze" begin="73a9.click" /><animate id="1" attributeName="stroke-dashoffset" values="46.13;0" dur="0.46s" fill="freeze" begin="0.end" /></path><path d="M12.75,46.25c1.25,0.38,3.39,0.59,5.01,0.37c6.36-0.87,12.99-2.37,17.48-2.94c0.69-0.09,3.22-0.66,4.25-0.31" stroke-dasharray="27.07" stroke-dashoffset="27.07"><animate attributeName="stroke-dashoffset" values="27.07" fill="freeze" begin="73a9.click" /><animate id="2" attributeName="stroke-dashoffset" values="27.07;0" dur="0.27s" fill="freeze" begin="1.end" /></path><path d="M12,78.25c1.5,1,2.78,0.8,4.25,0c7.12-3.88,15.5-9.12,23.5-13.88" stroke-dasharray="31.81" stroke-dashoffset="31.81"><animate attributeName="stroke-dashoffset" values="31.81" fill="freeze" begin="73a9.click" /><animate id="3" attributeName="stroke-dashoffset" values="31.81;0" dur="0.32s" fill="freeze" begin="2.end" /></path></g><g><g><path d="M50.59,21.11c2.34,0.36,4.71,0.4,7.05,0.05c7.73-1.16,12.98-2.16,22.85-3c2.19-0.19,4.33-0.34,6.48,0.07" stroke-dasharray="36.63" stroke-dashoffset="36.63"><animate attributeName="stroke-dashoffset" values="36.63" fill="freeze" begin="73a9.click" /><animate id="4" attributeName="stroke-dashoffset" values="36.63;0" dur="0.37s" fill="freeze" begin="3.end" /></path><path d="M45.13,44.56c3.55,0.66,7.1,0.37,10.64-0.37c10.13-1.78,20.23-2.93,30.6-3.77c2.97-0.24,5.93-0.19,8.88,0.31" stroke-dasharray="50.47" stroke-dashoffset="50.47"><animate attributeName="stroke-dashoffset" values="50.47" fill="freeze" begin="73a9.click" /><animate id="5" attributeName="stroke-dashoffset" values="50.47;0" dur="0.5s" fill="freeze" begin="4.end" /></path></g><g><g><path d="M59.36,46.94c0.64,1.31,0.56,2.78,0.3,4.33c-3.53,21.35-9.53,35.35-22.91,41.47" stroke-dasharray="53.84" stroke-dashoffset="53.84"><animate attributeName="stroke-dashoffset" values="53.84" fill="freeze" begin="73a9.click" /><animate id="6" attributeName="stroke-dashoffset" values="53.84;0" dur="0.54s" fill="freeze" begin="5.end" /></path></g><path d="M73.31,44.87c1.1,1.1,1.25,2.38,1.25,4.41c0,7.3-0.22,22.68-0.22,31.23c0,9.87,1.9,11.86,10.52,11.86C96.25,92.37,96,90.75,96,80.68" stroke-dasharray="75.23" stroke-dashoffset="75.23"><animate attributeName="stroke-dashoffset" values="75.23" fill="freeze" begin="73a9.click" /><animate id="7" attributeName="stroke-dashoffset" values="75.23;0" dur="0.57s" fill="freeze" begin="6.end" /></path></g></g></g></g></svg>