<svg xmlns="http://www.w3.org/2000/svg" width="109" height="109" viewBox="0 0 109 109" id="73bb"><g fill="none" stroke="#666" stroke-width="9" stroke-linecap="round" stroke-linejoin="round"><g><g p4:partial xmlns:p4="http://kanjivg.tagaini.net"><path d="M11.5,24.5c0.65,0.28,4.16,0.34,4.82,0.26c3.05-0.37,15.44-1.57,22.76-1.98c1-0.06,2.85-0.2,3.68,0.03" /><path d="M25.57,26.02c0.87,0.88,1.48,2.78,1.48,3.48c0,5.95,0.02,44.12-0.15,48.07" /><path d="M12,51.74c0.55,0.17,4.45,0.19,5.01,0.15c3.25-0.22,15.24-1.52,19.73-1.76c0.69-0.04,3.22-0.07,4.25,0.08" /><path d="M11.25,83.75c1.24,0.52,2.25,1,4.5,0C21.17,81.34,32,75.5,40,70.75" /></g><g><path d="M49.75,26.46c0.62,1.23,1.54,4.57,1.53,7.13c-0.12,28.81-5.53,50.97-16.41,60.67" /><path d="M51.13,28.37c13.62-2.37,31.88-4.5,37.01-4.88c9.03-0.66-0.85,9.94-2.13,10.92" /><path d="M67.47,11.75c1.5,0.56,2.39,2.53,2.69,3.65c0.3,1.12-0.11,21.38-0.11,32.89" /><path d="M53.25,50.5c1.54,0.37,2.9,0.57,5.96-0.07C66,49,76.94,47.22,83.48,46.36c2.18-0.29,3.82,2.14,2.88,4.06C76.63,70.15,64.25,89.5,42.62,98.07" /><path d="M56.79,54.02C60.25,61,76,82.5,88.85,93.46c1.94,1.65,3.21,2.9,4.93,3.48" /></g></g></g><g fill="none" stroke="#000" stroke-width="5" stroke-linecap="round" stroke-linejoin="round"><g><g p4:partial xmlns:p4="http://kanjivg.tagaini.net"><path d="M11.5,24.5c0.65,0.28,4.16,0.34,4.82,0.26c3.05-0.37,15.44-1.57,22.76-1.98c1-0.06,2.85-0.2,3.68,0.03" stroke-dasharray="31.38" stroke-dashoffset="31.38"><animate id="0" attributeName="stroke-dashoffset" values="31.38;0" dur="0.31s" fill="freeze" begin="0s;73bb.click" /></path><path d="M25.57,26.02c0.87,0.88,1.48,2.78,1.48,3.48c0,5.95,0.02,44.12-0.15,48.07" stroke-dasharray="51.91" stroke-dashoffset="51.91"><animate attributeName="stroke-dashoffset" values="51.91" fill="freeze" begin="73bb.click" /><animate id="1" attributeName="stroke-dashoffset" values="51.91;0" dur="0.52s" fill="freeze" begin="0.end" /></path><path d="M12,51.74c0.55,0.17,4.45,0.19,5.01,0.15c3.25-0.22,15.24-1.52,19.73-1.76c0.69-0.04,3.22-0.07,4.25,0.08" stroke-dasharray="29.08" stroke-dashoffset="29.08"><animate attributeName="stroke-dashoffset" values="29.08" fill="freeze" begin="73bb.click" /><animate id="2" attributeName="stroke-dashoffset" values="29.08;0" dur="0.29s" fill="freeze" begin="1.end" /></path><path d="M11.25,83.75c1.24,0.52,2.25,1,4.5,0C21.17,81.34,32,75.5,40,70.75" stroke-dasharray="32.21" stroke-dashoffset="32.21"><animate attributeName="stroke-dashoffset" values="32.21" fill="freeze" begin="73bb.click" /><animate id="3" attributeName="stroke-dashoffset" values="32.21;0" dur="0.32s" fill="freeze" begin="2.end" /></path></g><g><path d="M49.75,26.46c0.62,1.23,1.54,4.57,1.53,7.13c-0.12,28.81-5.53,50.97-16.41,60.67" stroke-dasharray="71.73" stroke-dashoffset="71.73"><animate attributeName="stroke-dashoffset" values="71.73" fill="freeze" begin="73bb.click" /><animate id="4" attributeName="stroke-dashoffset" values="71.73;0" dur="0.54s" fill="freeze" begin="3.end" /></path><path d="M51.13,28.37c13.62-2.37,31.88-4.5,37.01-4.88c9.03-0.66-0.85,9.94-2.13,10.92" stroke-dasharray="53.11" stroke-dashoffset="53.11"><animate attributeName="stroke-dashoffset" values="53.11" fill="freeze" begin="73bb.click" /><animate id="5" attributeName="stroke-dashoffset" values="53.11;0" dur="0.53s" fill="freeze" begin="4.end" /></path><path d="M67.47,11.75c1.5,0.56,2.39,2.53,2.69,3.65c0.3,1.12-0.11,21.38-0.11,32.89" stroke-dasharray="37.58" stroke-dashoffset="37.58"><animate attributeName="stroke-dashoffset" values="37.58" fill="freeze" begin="73bb.click" /><animate id="6" attributeName="stroke-dashoffset" values="37.58;0" dur="0.38s" fill="freeze" begin="5.end" /></path><path d="M53.25,50.5c1.54,0.37,2.9,0.57,5.96-0.07C66,49,76.94,47.22,83.48,46.36c2.18-0.29,3.82,2.14,2.88,4.06C76.63,70.15,64.25,89.5,42.62,98.07" stroke-dasharray="102.93" stroke-dashoffset="102.93"><animate attributeName="stroke-dashoffset" values="102.93" fill="freeze" begin="73bb.click" /><animate id="7" attributeName="stroke-dashoffset" values="102.93;0" dur="0.77s" fill="freeze" begin="6.end" /></path><path d="M56.79,54.02C60.25,61,76,82.5,88.85,93.46c1.94,1.65,3.21,2.9,4.93,3.48" stroke-dasharray="57.1" stroke-dashoffset="57.1"><animate attributeName="stroke-dashoffset" values="57.1" fill="freeze" begin="73bb.click" /><animate id="8" attributeName="stroke-dashoffset" values="57.1;0" dur="0.57s" fill="freeze" begin="7.end" /></path></g></g></g></svg>