<svg xmlns="http://www.w3.org/2000/svg" width="109" height="109" viewBox="0 0 109 109" id="73c8"><g fill="none" stroke="#666" stroke-width="9" stroke-linecap="round" stroke-linejoin="round"><g><g p4:partial xmlns:p4="http://kanjivg.tagaini.net"><path d="M10.75,25.75c0.56,0.37,3.6,0.45,4.16,0.34c2.63-0.5,13.34-1.59,19.66-2.14c0.86-0.07,2.46-0.26,3.18,0.04" /><path d="M23.07,27.02c0.87,0.88,1.48,2.78,1.48,3.48c0,5.95,0.52,40.12,0.35,44.07" /><path d="M11,49.71c0.47,0.19,3.8,0.22,4.28,0.18c2.77-0.25,13-1.73,16.84-2c0.59-0.04,2.74-0.08,3.63,0.09" /><path d="M10.25,80.25c1.5,1,3.22,1.19,4.5,0.5c6-3.25,11.75-5.75,19.75-10.5" /></g><g><g><path d="M36.11,36.26c1.14,0.74,3.9,1.52,4.67,1.39c6.97-1.15,17.8-2.78,21.17-3.52c2.19-0.48,3.8,0.67,3.68,4.05C65.3,47.08,60.5,78,55.23,89.77c-3.93,8.78-6.96,1.33-7.84,0.28" /><path d="M52.64,13.68c0.25,0.42,0.97,2.26,0.85,4.36c-1.16,19.54-6.99,54.21-24.59,71.6" /></g><g><path d="M71.81,32.48c0.69,1.27,1.53,1.77,1.64,2.98c0.91,9.59,1.49,36.53,2.11,53.75" /><path d="M73.19,34.49c7.84-1.38,15.27-2.38,19.67-2.58c1.88-0.09,3.36,1.04,3.21,3.28c-0.32,4.81-1.79,30.2-3.01,48.69" /><path d="M75.83,86.28c5.58-0.47,12.14-1.62,19.44-2.18" /></g></g></g></g><g fill="none" stroke="#000" stroke-width="5" stroke-linecap="round" stroke-linejoin="round"><g><g p4:partial xmlns:p4="http://kanjivg.tagaini.net"><path d="M10.75,25.75c0.56,0.37,3.6,0.45,4.16,0.34c2.63-0.5,13.34-1.59,19.66-2.14c0.86-0.07,2.46-0.26,3.18,0.04" stroke-dasharray="27.188" stroke-dashoffset="27.188"><animate attributeName="stroke-dashoffset" values="27.188;27.188;0" dur="0.272s" fill="freeze" begin="0s;73c8.click" /></path><path d="M23.07,27.02c0.87,0.88,1.48,2.78,1.48,3.48c0,5.95,0.52,40.12,0.35,44.07" stroke-dasharray="47.916" stroke-dashoffset="47.916"><animate attributeName="stroke-dashoffset" values="47.916" fill="freeze" begin="73c8.click" /><animate attributeName="stroke-dashoffset" values="47.916;47.916;0" keyTimes="0;0.362;1" dur="0.751s" fill="freeze" begin="0s;73c8.click" /></path><path d="M11,49.71c0.47,0.19,3.8,0.22,4.28,0.18c2.77-0.25,13-1.73,16.84-2c0.59-0.04,2.74-0.08,3.63,0.09" stroke-dasharray="24.889" stroke-dashoffset="24.889"><animate attributeName="stroke-dashoffset" values="24.889" fill="freeze" begin="73c8.click" /><animate attributeName="stroke-dashoffset" values="24.889;24.889;0" keyTimes="0;0.751;1" dur="1s" fill="freeze" begin="0s;73c8.click" /></path><path d="M10.25,80.25c1.5,1,3.22,1.19,4.5,0.5c6-3.25,11.75-5.75,19.75-10.5" stroke-dasharray="27.126" stroke-dashoffset="27.126"><animate attributeName="stroke-dashoffset" values="27.126" fill="freeze" begin="73c8.click" /><animate attributeName="stroke-dashoffset" values="27.126;27.126;0" keyTimes="0;0.787;1" dur="1.271s" fill="freeze" begin="0s;73c8.click" /></path></g><g><g><path d="M36.11,36.26c1.14,0.74,3.9,1.52,4.67,1.39c6.97-1.15,17.8-2.78,21.17-3.52c2.19-0.48,3.8,0.67,3.68,4.05C65.3,47.08,60.5,78,55.23,89.77c-3.93,8.78-6.96,1.33-7.84,0.28" stroke-dasharray="97.6" stroke-dashoffset="97.6"><animate attributeName="stroke-dashoffset" values="97.6" fill="freeze" begin="73c8.click" /><animate attributeName="stroke-dashoffset" values="97.6;97.6;0" keyTimes="0;0.634;1" dur="2.005s" fill="freeze" begin="0s;73c8.click" /></path><path d="M52.64,13.68c0.25,0.42,0.97,2.26,0.85,4.36c-1.16,19.54-6.99,54.21-24.59,71.6" stroke-dasharray="81.66" stroke-dashoffset="81.66"><animate attributeName="stroke-dashoffset" values="81.66" fill="freeze" begin="73c8.click" /><animate attributeName="stroke-dashoffset" values="81.66;81.66;0" keyTimes="0;0.766;1" dur="2.619s" fill="freeze" begin="0s;73c8.click" /></path></g><g><path d="M71.81,32.48c0.69,1.27,1.53,1.77,1.64,2.98c0.91,9.59,1.49,36.53,2.11,53.75" stroke-dasharray="57.24" stroke-dashoffset="57.24"><animate attributeName="stroke-dashoffset" values="57.24" fill="freeze" begin="73c8.click" /><animate attributeName="stroke-dashoffset" values="57.24;57.24;0" keyTimes="0;0.821;1" dur="3.191s" fill="freeze" begin="0s;73c8.click" /></path><path d="M73.19,34.49c7.84-1.38,15.27-2.38,19.67-2.58c1.88-0.09,3.36,1.04,3.21,3.28c-0.32,4.81-1.79,30.2-3.01,48.69" stroke-dasharray="73.932" stroke-dashoffset="73.932"><animate attributeName="stroke-dashoffset" values="73.932" fill="freeze" begin="73c8.click" /><animate attributeName="stroke-dashoffset" values="73.932;73.932;0" keyTimes="0;0.852;1" dur="3.747s" fill="freeze" begin="0s;73c8.click" /></path><path d="M75.83,86.28c5.58-0.47,12.14-1.62,19.44-2.18" stroke-dasharray="19.565" stroke-dashoffset="19.565"><animate attributeName="stroke-dashoffset" values="19.565" fill="freeze" begin="73c8.click" /><animate attributeName="stroke-dashoffset" values="19.565;19.565;0" keyTimes="0;0.95;1" dur="3.943s" fill="freeze" begin="0s;73c8.click" /></path></g></g></g></g></svg>