<svg xmlns="http://www.w3.org/2000/svg" width="109" height="109" viewBox="0 0 109 109" id="73cd"><g fill="none" stroke="#666" stroke-width="6" stroke-linecap="round" stroke-linejoin="round"><g><g p4:partial xmlns:p4="http://kanjivg.tagaini.net"><path d="M11,28.42c1.5,0.45,3.77,0.39,5.13,0.28c4.36-0.34,14.28-1.67,20.25-2.24c1.22-0.12,2.99-0.34,4.12-0.04" /><path d="M25.32,30.44c1,1,1.23,2.06,1.23,3.48c0,5.95-0.05,36.21-0.05,41.45" /><path d="M12.25,52.42c1.38,0.58,3.2,0.53,4.26,0.37c4.49-0.67,13.74-2.62,18.23-3.19c0.69-0.09,1.75-0.35,3-0.06" /><path d="M12.25,81.02c1.12,1.1,1.86,1.21,3.5,0.4c8-3.92,12.62-6.17,21-10.25" /></g><g p4:phon="人+彡" xmlns:p4="http://kanjivg.tagaini.net"><g><path d="M61.03,14.25c0.05,0.73,0.05,1.96-0.36,2.96C57.4,25.08,52,34.88,41.05,45.5" /><path d="M61.59,17.92c3.63,3.96,17.64,15.41,24.93,21.09c2.57,2,5.05,3.67,7.97,5.09" /></g><g><g><path d="M67.89,38.9c0.06,0.45-0.21,1.77-0.62,2.3C64,45.5,57.12,51.62,47.72,57.03" /></g><g><path d="M73.59,55.99c0.08,0.51-0.16,1.43-0.65,2.04c-4.47,5.5-10.81,11.1-26.01,18.78" /></g><g><path d="M82.68,70.96c0.12,0.62-0.04,1.72-0.73,2.46C76.23,79.62,63.38,91,41.47,96.97" /></g></g></g></g></g><g fill="none" stroke="#000" stroke-width="3" stroke-linecap="round" stroke-linejoin="round"><path d="M11,28.42c1.5,0.45,3.77,0.39,5.13,0.28c4.36-0.34,14.28-1.67,20.25-2.24c1.22-0.12,2.99-0.34,4.12-0.04" stroke-dasharray="29.678" stroke-dashoffset="29.678"><animate attributeName="stroke-dashoffset" values="29.678;29.678;0" dur="0.297s" fill="freeze" begin="0s;73cd.click" /></path><path d="M25.32,30.44c1,1,1.23,2.06,1.23,3.48c0,5.95-0.05,36.21-0.05,41.45" stroke-dasharray="45.257" stroke-dashoffset="45.257"><animate attributeName="stroke-dashoffset" values="45.257" fill="freeze" begin="73cd.click" /><animate attributeName="stroke-dashoffset" values="45.257;45.257;0" keyTimes="0;0.396;1" dur="0.75s" fill="freeze" begin="0s;73cd.click" /></path><path d="M12.25,52.42c1.38,0.58,3.2,0.53,4.26,0.37c4.49-0.67,13.74-2.62,18.23-3.19c0.69-0.09,1.75-0.35,3-0.06" stroke-dasharray="25.856" stroke-dashoffset="25.856"><animate attributeName="stroke-dashoffset" values="25.856" fill="freeze" begin="73cd.click" /><animate attributeName="stroke-dashoffset" values="25.856;25.856;0" keyTimes="0;0.743;1" dur="1.009s" fill="freeze" begin="0s;73cd.click" /></path><path d="M12.25,81.02c1.12,1.1,1.86,1.21,3.5,0.4c8-3.92,12.62-6.17,21-10.25" stroke-dasharray="27.248" stroke-dashoffset="27.248"><animate attributeName="stroke-dashoffset" values="27.248" fill="freeze" begin="73cd.click" /><animate attributeName="stroke-dashoffset" values="27.248;27.248;0" keyTimes="0;0.788;1" dur="1.281s" fill="freeze" begin="0s;73cd.click" /></path><path d="M61.03,14.25c0.05,0.73,0.05,1.96-0.36,2.96C57.4,25.08,52,34.88,41.05,45.5" stroke-dasharray="37.684" stroke-dashoffset="37.684"><animate attributeName="stroke-dashoffset" values="37.684" fill="freeze" begin="73cd.click" /><animate attributeName="stroke-dashoffset" values="37.684;37.684;0" keyTimes="0;0.773;1" dur="1.658s" fill="freeze" begin="0s;73cd.click" /></path><path d="M61.59,17.92c3.63,3.96,17.64,15.41,24.93,21.09c2.57,2,5.05,3.67,7.97,5.09" stroke-dasharray="42.147" stroke-dashoffset="42.147"><animate attributeName="stroke-dashoffset" values="42.147" fill="freeze" begin="73cd.click" /><animate attributeName="stroke-dashoffset" values="42.147;42.147;0" keyTimes="0;0.797;1" dur="2.079s" fill="freeze" begin="0s;73cd.click" /></path><path d="M67.89,38.9c0.06,0.45-0.21,1.77-0.62,2.3C64,45.5,57.12,51.62,47.72,57.03" stroke-dasharray="27.715" stroke-dashoffset="27.715"><animate attributeName="stroke-dashoffset" values="27.715" fill="freeze" begin="73cd.click" /><animate attributeName="stroke-dashoffset" values="27.715;27.715;0" keyTimes="0;0.882;1" dur="2.356s" fill="freeze" begin="0s;73cd.click" /></path><path d="M73.59,55.99c0.08,0.51-0.16,1.43-0.65,2.04c-4.47,5.5-10.81,11.1-26.01,18.78" stroke-dasharray="34.518" stroke-dashoffset="34.518"><animate attributeName="stroke-dashoffset" values="34.518" fill="freeze" begin="73cd.click" /><animate attributeName="stroke-dashoffset" values="34.518;34.518;0" keyTimes="0;0.872;1" dur="2.701s" fill="freeze" begin="0s;73cd.click" /></path><path d="M82.68,70.96c0.12,0.62-0.04,1.72-0.73,2.46C76.23,79.62,63.38,91,41.47,96.97" stroke-dasharray="50.085" stroke-dashoffset="50.085"><animate attributeName="stroke-dashoffset" values="50.085" fill="freeze" begin="73cd.click" /><animate attributeName="stroke-dashoffset" values="50.085;50.085;0" keyTimes="0;0.844;1" dur="3.202s" fill="freeze" begin="0s;73cd.click" /></path></g></svg>