<svg xmlns="http://www.w3.org/2000/svg" width="109" height="109" viewBox="0 0 109 109" id="73ce"><g fill="none" stroke="#666" stroke-width="9" stroke-linecap="round" stroke-linejoin="round"><g><g p4:partial xmlns:p4="http://kanjivg.tagaini.net"><path d="M13.25,25.29c0.58,0.38,3.73,0.46,4.32,0.35c2.73-0.52,13.83-2.17,20.39-2.73c0.9-0.08,2.55-0.27,3.29,0.05" /><path d="M27.07,27.52c0.87,0.88,1.48,2.78,1.48,3.48c0,5.95,0.02,40.12-0.15,44.07" /><path d="M14,49.46c0.5,0.19,3.99,0.22,4.5,0.18c2.91-0.25,13.66-1.73,17.69-2c0.62-0.04,2.88-0.08,3.81,0.09" /><path d="M13.25,80.25c1.5,1.75,4.18,0.93,5,0.5C23.5,78,29.5,75,37.5,70.25" /></g><g><g><g><path d="M58.03,15.64c0.04,0.87,0.19,2.28-0.08,3.51c-1.68,7.4-7.02,23.61-15.2,33.53" /></g><path d="M55.48,37.74c1.48,0.08,2.61,0.01,3.54-0.04c12.24-0.69,22.54-3.97,28.84-4.35c1.53-0.09,2.46,0.18,3.23,0.37" /></g><g><path d="M67.97,39.19c0.08,0.41,1.12,2.15,1.2,4.78c0.39,12.61-0.24,41.71-0.24,46c0,9.74-6.89,1.3-8.33,0.22" /><path d="M53.4,57.88c0.03,0.62,0.07,1.6-0.07,2.5c-0.81,5.26-5.47,16.82-11.85,23.89" /><path d="M80.05,57.81C85,62.1,92.82,75.46,94.06,82.15" /></g></g></g></g><g fill="none" stroke="#000" stroke-width="5" stroke-linecap="round" stroke-linejoin="round"><g><g p4:partial xmlns:p4="http://kanjivg.tagaini.net"><path d="M13.25,25.29c0.58,0.38,3.73,0.46,4.32,0.35c2.73-0.52,13.83-2.17,20.39-2.73c0.9-0.08,2.55-0.27,3.29,0.05" stroke-dasharray="28.26" stroke-dashoffset="28.26"><animate id="0" attributeName="stroke-dashoffset" values="28.26;0" dur="0.28s" fill="freeze" begin="0s;73ce.click" /></path><path d="M27.07,27.52c0.87,0.88,1.48,2.78,1.48,3.48c0,5.95,0.02,40.12-0.15,44.07" stroke-dasharray="47.91" stroke-dashoffset="47.91"><animate attributeName="stroke-dashoffset" values="47.91" fill="freeze" begin="73ce.click" /><animate id="1" attributeName="stroke-dashoffset" values="47.91;0" dur="0.48s" fill="freeze" begin="0.end" /></path><path d="M14,49.46c0.5,0.19,3.99,0.22,4.5,0.18c2.91-0.25,13.66-1.73,17.69-2c0.62-0.04,2.88-0.08,3.81,0.09" stroke-dasharray="26.13" stroke-dashoffset="26.13"><animate attributeName="stroke-dashoffset" values="26.13" fill="freeze" begin="73ce.click" /><animate id="2" attributeName="stroke-dashoffset" values="26.13;0" dur="0.26s" fill="freeze" begin="1.end" /></path><path d="M13.25,80.25c1.5,1.75,4.18,0.93,5,0.5C23.5,78,29.5,75,37.5,70.25" stroke-dasharray="27.33" stroke-dashoffset="27.33"><animate attributeName="stroke-dashoffset" values="27.33" fill="freeze" begin="73ce.click" /><animate id="3" attributeName="stroke-dashoffset" values="27.33;0" dur="0.27s" fill="freeze" begin="2.end" /></path></g><g><g><g><path d="M58.03,15.64c0.04,0.87,0.19,2.28-0.08,3.51c-1.68,7.4-7.02,23.61-15.2,33.53" stroke-dasharray="40.61" stroke-dashoffset="40.61"><animate attributeName="stroke-dashoffset" values="40.61" fill="freeze" begin="73ce.click" /><animate id="4" attributeName="stroke-dashoffset" values="40.61;0" dur="0.41s" fill="freeze" begin="3.end" /></path></g><path d="M55.48,37.74c1.48,0.08,2.61,0.01,3.54-0.04c12.24-0.69,22.54-3.97,28.84-4.35c1.53-0.09,2.46,0.18,3.23,0.37" stroke-dasharray="36" stroke-dashoffset="36"><animate attributeName="stroke-dashoffset" values="36" fill="freeze" begin="73ce.click" /><animate id="5" attributeName="stroke-dashoffset" values="36;0" dur="0.36s" fill="freeze" begin="4.end" /></path></g><g><path d="M67.97,39.19c0.08,0.41,1.12,2.15,1.2,4.78c0.39,12.61-0.24,41.71-0.24,46c0,9.74-6.89,1.3-8.33,0.22" stroke-dasharray="64.37" stroke-dashoffset="64.37"><animate attributeName="stroke-dashoffset" values="64.37" fill="freeze" begin="73ce.click" /><animate id="6" attributeName="stroke-dashoffset" values="64.37;0" dur="0.48s" fill="freeze" begin="5.end" /></path><path d="M53.4,57.88c0.03,0.62,0.07,1.6-0.07,2.5c-0.81,5.26-5.47,16.82-11.85,23.89" stroke-dasharray="29.44" stroke-dashoffset="29.44"><animate attributeName="stroke-dashoffset" values="29.44" fill="freeze" begin="73ce.click" /><animate id="7" attributeName="stroke-dashoffset" values="29.44;0" dur="0.29s" fill="freeze" begin="6.end" /></path><path d="M80.05,57.81C85,62.1,92.82,75.46,94.06,82.15" stroke-dasharray="28.39" stroke-dashoffset="28.39"><animate attributeName="stroke-dashoffset" values="28.39" fill="freeze" begin="73ce.click" /><animate id="8" attributeName="stroke-dashoffset" values="28.39;0" dur="0.28s" fill="freeze" begin="7.end" /></path></g></g></g></g></svg>