<svg xmlns="http://www.w3.org/2000/svg" width="109" height="109" viewBox="0 0 109 109" id="73de"><g fill="none" stroke="#666" stroke-width="9" stroke-linecap="round" stroke-linejoin="round"><g><g p4:partial xmlns:p4="http://kanjivg.tagaini.net"><path d="M12.6,22.25c0.67,0.37,4.31,0.45,4.99,0.34c3.16-0.5,14.98-1.59,22.56-2.14c1.03-0.07,2.95-0.26,3.8,0.04" /><path d="M26.05,24.52c0.93,0.88,1.58,2.78,1.58,3.48c0,5.95,0.05,48.62-0.13,52.57" /><path d="M12.02,49c0.59,0.4,4.75,0.46,5.36,0.37c3.47-0.53,14.28-2.12,19.08-2.69c0.74-0.09,3.44-0.16,4.54,0.19" /><path d="M10.75,86.25c1.25,1,3.86,0.93,4.74,0.5C21.1,84,29.11,80,37.66,75.25" /></g><g><g><path d="M62.29,12.75c0.05,0.7,0.24,1.86-0.09,2.82c-2.57,7.35-8.31,18.33-16.38,27.5" /><path d="M63.76,20.91c0.33,0.04,1.76,0,2.71-0.11c3.14-0.35,9.96-1.59,14.44-2.68c3.08-0.75,3.95,0.85,3.16,2.89C79.78,32.14,63,58.25,40.94,66.53" /><path d="M57.65,30.08c4.74,5.62,26.22,26.99,32.61,32.13c1.91,1.53,3.45,2.28,5.3,2.73" /></g><g><path d="M50.33,69.15c0.41,0.48,0.83,0.88,1.01,1.49c1.42,4.77,2.56,18.49,3.53,27.07" /><path d="M52.88,71.31c11.52-1.61,26.17-2.57,30.98-3.19c1.75-0.23,2.81,1.36,2.55,2.71c-1.04,5.58-2.39,13.89-3.93,21.61" /><path d="M55.06,95.09c8.44-0.34,21.93-1.18,29.24-1.42" /></g></g></g></g><g fill="none" stroke="#000" stroke-width="5" stroke-linecap="round" stroke-linejoin="round"><g><g p4:partial xmlns:p4="http://kanjivg.tagaini.net"><path d="M12.6,22.25c0.67,0.37,4.31,0.45,4.99,0.34c3.16-0.5,14.98-1.59,22.56-2.14c1.03-0.07,2.95-0.26,3.8,0.04" stroke-dasharray="31.51" stroke-dashoffset="31.51"><animate id="0" attributeName="stroke-dashoffset" values="31.51;0" dur="0.32s" fill="freeze" begin="0s;73de.click" /></path><path d="M26.05,24.52c0.93,0.88,1.58,2.78,1.58,3.48c0,5.95,0.05,48.62-0.13,52.57" stroke-dasharray="56.46" stroke-dashoffset="56.46"><animate attributeName="stroke-dashoffset" values="56.46" fill="freeze" begin="73de.click" /><animate id="1" attributeName="stroke-dashoffset" values="56.46;0" dur="0.56s" fill="freeze" begin="0.end" /></path><path d="M12.02,49c0.59,0.4,4.75,0.46,5.36,0.37c3.47-0.53,14.28-2.12,19.08-2.69c0.74-0.09,3.44-0.16,4.54,0.19" stroke-dasharray="29.23" stroke-dashoffset="29.23"><animate attributeName="stroke-dashoffset" values="29.23" fill="freeze" begin="73de.click" /><animate id="2" attributeName="stroke-dashoffset" values="29.23;0" dur="0.29s" fill="freeze" begin="1.end" /></path><path d="M10.75,86.25c1.25,1,3.86,0.93,4.74,0.5C21.1,84,29.11,80,37.66,75.25" stroke-dasharray="29.91" stroke-dashoffset="29.91"><animate attributeName="stroke-dashoffset" values="29.91" fill="freeze" begin="73de.click" /><animate id="3" attributeName="stroke-dashoffset" values="29.91;0" dur="0.3s" fill="freeze" begin="2.end" /></path></g><g><g><path d="M62.29,12.75c0.05,0.7,0.24,1.86-0.09,2.82c-2.57,7.35-8.31,18.33-16.38,27.5" stroke-dasharray="35.03" stroke-dashoffset="35.03"><animate attributeName="stroke-dashoffset" values="35.03" fill="freeze" begin="73de.click" /><animate id="4" attributeName="stroke-dashoffset" values="35.03;0" dur="0.35s" fill="freeze" begin="3.end" /></path><path d="M63.76,20.91c0.33,0.04,1.76,0,2.71-0.11c3.14-0.35,9.96-1.59,14.44-2.68c3.08-0.75,3.95,0.85,3.16,2.89C79.78,32.14,63,58.25,40.94,66.53" stroke-dasharray="87.43" stroke-dashoffset="87.43"><animate attributeName="stroke-dashoffset" values="87.43" fill="freeze" begin="73de.click" /><animate id="5" attributeName="stroke-dashoffset" values="87.43;0" dur="0.66s" fill="freeze" begin="4.end" /></path><path d="M57.65,30.08c4.74,5.62,26.22,26.99,32.61,32.13c1.91,1.53,3.45,2.28,5.3,2.73" stroke-dasharray="51.82" stroke-dashoffset="51.82"><animate attributeName="stroke-dashoffset" values="51.82" fill="freeze" begin="73de.click" /><animate id="6" attributeName="stroke-dashoffset" values="51.82;0" dur="0.52s" fill="freeze" begin="5.end" /></path></g><g><path d="M50.33,69.15c0.41,0.48,0.83,0.88,1.01,1.49c1.42,4.77,2.56,18.49,3.53,27.07" stroke-dasharray="29.14" stroke-dashoffset="29.14"><animate attributeName="stroke-dashoffset" values="29.14" fill="freeze" begin="73de.click" /><animate id="7" attributeName="stroke-dashoffset" values="29.14;0" dur="0.29s" fill="freeze" begin="6.end" /></path><path d="M52.88,71.31c11.52-1.61,26.17-2.57,30.98-3.19c1.75-0.23,2.81,1.36,2.55,2.71c-1.04,5.58-2.39,13.89-3.93,21.61" stroke-dasharray="57.46" stroke-dashoffset="57.46"><animate attributeName="stroke-dashoffset" values="57.46" fill="freeze" begin="73de.click" /><animate id="8" attributeName="stroke-dashoffset" values="57.46;0" dur="0.57s" fill="freeze" begin="7.end" /></path><path d="M55.06,95.09c8.44-0.34,21.93-1.18,29.24-1.42" stroke-dasharray="29.27" stroke-dashoffset="29.27"><animate attributeName="stroke-dashoffset" values="29.27" fill="freeze" begin="73de.click" /><animate id="9" attributeName="stroke-dashoffset" values="29.27;0" dur="0.29s" fill="freeze" begin="8.end" /></path></g></g></g></g></svg>