<svg xmlns="http://www.w3.org/2000/svg" width="109" height="109" viewBox="0 0 109 109" id="73e5"><g fill="none" stroke="#666" stroke-width="9" stroke-linecap="round" stroke-linejoin="round"><g><g p4:partial xmlns:p4="http://kanjivg.tagaini.net"><path d="M11.6,23.25c0.67,0.37,4.31,0.45,4.99,0.34c3.16-0.5,15.98-2.09,23.56-2.64c1.03-0.07,2.95-0.26,3.8,0.04" /><path d="M27.05,25.52c0.93,0.88,1.58,2.78,1.58,3.48c0,5.95,0.05,44.62-0.13,48.57" /><path d="M12.52,50.5c0.59,0.4,4.75,0.46,5.36,0.37c3.47-0.53,15.28-2.12,20.08-2.69c0.74-0.09,3.44-0.16,4.54,0.19" /><path d="M11.75,83.25c1.25,1,3.36,1.43,4.24,1c5.61-2.75,16.62-8.75,25.17-13.5" /></g><g><path d="M49.19,21.13c1.26,0.33,3.57,0.39,4.83,0.33c13.86-0.69,21.23-3.13,38.32-3.51c2.1-0.05,3.36,0.16,4.41,0.32" /><path d="M57.18,23.82c0.82,1.18,1.28,2.33,1.28,3.72c0,1.39-0.16,41.8-0.16,46.79" /><path d="M58.55,38.73c9.2-1.73,17.7-1.98,25.83-2.83" /><path d="M58.74,54.2c7.51-1.2,17.01-1.7,26.17-2.55" /><path d="M47.5,76.1c0.31,0.83,2.72,1.01,3.81,0.66c4.37-1.39,35.72-10.3,42.44-12.52" /><path d="M83.75,21.25c1,1.25,1.1,1.46,1.1,2.85s0.16,65.03,0.16,76.4" /></g></g></g><g fill="none" stroke="#000" stroke-width="5" stroke-linecap="round" stroke-linejoin="round"><g><g p4:partial xmlns:p4="http://kanjivg.tagaini.net"><path d="M11.6,23.25c0.67,0.37,4.31,0.45,4.99,0.34c3.16-0.5,15.98-2.09,23.56-2.64c1.03-0.07,2.95-0.26,3.8,0.04" stroke-dasharray="32.56" stroke-dashoffset="32.56"><animate id="0" attributeName="stroke-dashoffset" values="32.56;0" dur="0.33s" fill="freeze" begin="0s;73e5.click" /></path><path d="M27.05,25.52c0.93,0.88,1.58,2.78,1.58,3.48c0,5.95,0.05,44.62-0.13,48.57" stroke-dasharray="52.46" stroke-dashoffset="52.46"><animate attributeName="stroke-dashoffset" values="52.46" fill="freeze" begin="73e5.click" /><animate id="1" attributeName="stroke-dashoffset" values="52.46;0" dur="0.52s" fill="freeze" begin="0.end" /></path><path d="M12.52,50.5c0.59,0.4,4.75,0.46,5.36,0.37c3.47-0.53,15.28-2.12,20.08-2.69c0.74-0.09,3.44-0.16,4.54,0.19" stroke-dasharray="30.22" stroke-dashoffset="30.22"><animate attributeName="stroke-dashoffset" values="30.22" fill="freeze" begin="73e5.click" /><animate id="2" attributeName="stroke-dashoffset" values="30.22;0" dur="0.3s" fill="freeze" begin="1.end" /></path><path d="M11.75,83.25c1.25,1,3.36,1.43,4.24,1c5.61-2.75,16.62-8.75,25.17-13.5" stroke-dasharray="33.08" stroke-dashoffset="33.08"><animate attributeName="stroke-dashoffset" values="33.08" fill="freeze" begin="73e5.click" /><animate id="3" attributeName="stroke-dashoffset" values="33.08;0" dur="0.33s" fill="freeze" begin="2.end" /></path></g><g><path d="M49.19,21.13c1.26,0.33,3.57,0.39,4.83,0.33c13.86-0.69,21.23-3.13,38.32-3.51c2.1-0.05,3.36,0.16,4.41,0.32" stroke-dasharray="47.78" stroke-dashoffset="47.78"><animate attributeName="stroke-dashoffset" values="47.78" fill="freeze" begin="73e5.click" /><animate id="4" attributeName="stroke-dashoffset" values="47.78;0" dur="0.48s" fill="freeze" begin="3.end" /></path><path d="M57.18,23.82c0.82,1.18,1.28,2.33,1.28,3.72c0,1.39-0.16,41.8-0.16,46.79" stroke-dasharray="50.79" stroke-dashoffset="50.79"><animate attributeName="stroke-dashoffset" values="50.79" fill="freeze" begin="73e5.click" /><animate id="5" attributeName="stroke-dashoffset" values="50.79;0" dur="0.51s" fill="freeze" begin="4.end" /></path><path d="M58.55,38.73c9.2-1.73,17.7-1.98,25.83-2.83" stroke-dasharray="26" stroke-dashoffset="26"><animate attributeName="stroke-dashoffset" values="26" fill="freeze" begin="73e5.click" /><animate id="6" attributeName="stroke-dashoffset" values="26;0" dur="0.26s" fill="freeze" begin="5.end" /></path><path d="M58.74,54.2c7.51-1.2,17.01-1.7,26.17-2.55" stroke-dasharray="26.3" stroke-dashoffset="26.3"><animate attributeName="stroke-dashoffset" values="26.3" fill="freeze" begin="73e5.click" /><animate id="7" attributeName="stroke-dashoffset" values="26.3;0" dur="0.26s" fill="freeze" begin="6.end" /></path><path d="M47.5,76.1c0.31,0.83,2.72,1.01,3.81,0.66c4.37-1.39,35.72-10.3,42.44-12.52" stroke-dasharray="48.32" stroke-dashoffset="48.32"><animate attributeName="stroke-dashoffset" values="48.32" fill="freeze" begin="73e5.click" /><animate id="8" attributeName="stroke-dashoffset" values="48.32;0" dur="0.48s" fill="freeze" begin="7.end" /></path><path d="M83.75,21.25c1,1.25,1.1,1.46,1.1,2.85s0.16,65.03,0.16,76.4" stroke-dasharray="79.56" stroke-dashoffset="79.56"><animate attributeName="stroke-dashoffset" values="79.56" fill="freeze" begin="73e5.click" /><animate id="9" attributeName="stroke-dashoffset" values="79.56;0" dur="0.6s" fill="freeze" begin="8.end" /></path></g></g></g></svg>