<svg xmlns="http://www.w3.org/2000/svg" width="109" height="109" viewBox="0 0 109 109" id="73ea"><g fill="none" stroke="#666" stroke-width="9" stroke-linecap="round" stroke-linejoin="round"><g><g p4:partial xmlns:p4="http://kanjivg.tagaini.net"><path d="M13.25,27c1.75,0.38,3.97,0.5,5.5,0.37c3.72-0.32,11.23-1.57,16.63-2.19c1.78-0.27,3.57-0.58,5.37-0.43" /><path d="M27.07,29.27c1.08,1.08,1.23,2.11,1.23,3.73c0,5.95-0.05,36.05-0.05,41.62" /><path d="M14.75,52.25c1.88,0.5,3.83,0.3,5.99-0.05c4.26-0.7,9.63-1.7,14.4-2.69c1.52-0.32,3.05-0.44,4.6-0.39" /><path d="M12,81.68c1.12,0.94,2.29,1.27,4.14,0.31c7.73-4,13.61-7.5,22.86-12.75" /></g><g><g><path d="M48.55,33.24c2.39,0.58,4.76,0.19,7.2-0.07c7.75-0.8,16.57-2.01,25.87-2.56c2.5-0.37,4.75-0.24,7.42,0.03" /><path d="M66.7,13.12c0.97,0.97,1.16,2.38,1.16,3.91c0,12.97-0.1,15.96-0.1,33.11" /><path d="M46.2,52.15c2.65,0.34,5.3,0.35,7.95,0.05c8.55-0.63,23.1-1.94,31.85-2.44c2.43-0.26,4.84-0.14,7.25,0.37" /></g><g><path d="M47.82,72.46c2.56,0.48,5.12,0.51,7.69,0.08c11.12-0.92,19.29-2.01,27.99-2.47c2.18-0.24,4.34-0.16,6.5,0.25" /><path d="M67.1,56.07c0.85,0.85,1.43,1.95,1.43,3.72c0,11.39-0.04,15.9-0.04,30.96" /><path d="M41.55,92.76c3.21,0.58,6.44,0.62,9.7,0.36C65.12,92,74,91.38,87.5,90.94c3.29-0.1,6.51,0.02,9.71,0.79" /></g></g></g></g><g fill="none" stroke="#000" stroke-width="5" stroke-linecap="round" stroke-linejoin="round"><g><g p4:partial xmlns:p4="http://kanjivg.tagaini.net"><path d="M13.25,27c1.75,0.38,3.97,0.5,5.5,0.37c3.72-0.32,11.23-1.57,16.63-2.19c1.78-0.27,3.57-0.58,5.37-0.43" stroke-dasharray="27.706" stroke-dashoffset="27.706"><animate attributeName="stroke-dashoffset" values="27.706;27.706;0" dur="0.277s" fill="freeze" begin="0s;73ea.click" /></path><path d="M27.07,29.27c1.08,1.08,1.23,2.11,1.23,3.73c0,5.95-0.05,36.05-0.05,41.62" stroke-dasharray="45.679" stroke-dashoffset="45.679"><animate attributeName="stroke-dashoffset" values="45.679" fill="freeze" begin="73ea.click" /><animate attributeName="stroke-dashoffset" values="45.679;45.679;0" keyTimes="0;0.377;1" dur="0.734s" fill="freeze" begin="0s;73ea.click" /></path><path d="M14.75,52.25c1.88,0.5,3.83,0.3,5.99-0.05c4.26-0.7,9.63-1.7,14.4-2.69c1.52-0.32,3.05-0.44,4.6-0.39" stroke-dasharray="25.315" stroke-dashoffset="25.315"><animate attributeName="stroke-dashoffset" values="25.315" fill="freeze" begin="73ea.click" /><animate attributeName="stroke-dashoffset" values="25.315;25.315;0" keyTimes="0;0.744;1" dur="0.987s" fill="freeze" begin="0s;73ea.click" /></path><path d="M12,81.68c1.12,0.94,2.29,1.27,4.14,0.31c7.73-4,13.61-7.5,22.86-12.75" stroke-dasharray="30.648" stroke-dashoffset="30.648"><animate attributeName="stroke-dashoffset" values="30.648" fill="freeze" begin="73ea.click" /><animate attributeName="stroke-dashoffset" values="30.648;30.648;0" keyTimes="0;0.763;1" dur="1.293s" fill="freeze" begin="0s;73ea.click" /></path></g><g><g><path d="M48.55,33.24c2.39,0.58,4.76,0.19,7.2-0.07c7.75-0.8,16.57-2.01,25.87-2.56c2.5-0.37,4.75-0.24,7.42,0.03" stroke-dasharray="40.682" stroke-dashoffset="40.682"><animate attributeName="stroke-dashoffset" values="40.682" fill="freeze" begin="73ea.click" /><animate attributeName="stroke-dashoffset" values="40.682;40.682;0" keyTimes="0;0.761;1" dur="1.7s" fill="freeze" begin="0s;73ea.click" /></path><path d="M66.7,13.12c0.97,0.97,1.16,2.38,1.16,3.91c0,12.97-0.1,15.96-0.1,33.11" stroke-dasharray="37.301" stroke-dashoffset="37.301"><animate attributeName="stroke-dashoffset" values="37.301" fill="freeze" begin="73ea.click" /><animate attributeName="stroke-dashoffset" values="37.301;37.301;0" keyTimes="0;0.82;1" dur="2.073s" fill="freeze" begin="0s;73ea.click" /></path><path d="M46.2,52.15c2.65,0.34,5.3,0.35,7.95,0.05c8.55-0.63,23.1-1.94,31.85-2.44c2.43-0.26,4.84-0.14,7.25,0.37" stroke-dasharray="47.204" stroke-dashoffset="47.204"><animate attributeName="stroke-dashoffset" values="47.204" fill="freeze" begin="73ea.click" /><animate attributeName="stroke-dashoffset" values="47.204;47.204;0" keyTimes="0;0.815;1" dur="2.545s" fill="freeze" begin="0s;73ea.click" /></path></g><g><path d="M47.82,72.46c2.56,0.48,5.12,0.51,7.69,0.08c11.12-0.92,19.29-2.01,27.99-2.47c2.18-0.24,4.34-0.16,6.5,0.25" stroke-dasharray="42.361" stroke-dashoffset="42.361"><animate attributeName="stroke-dashoffset" values="42.361" fill="freeze" begin="73ea.click" /><animate attributeName="stroke-dashoffset" values="42.361;42.361;0" keyTimes="0;0.857;1" dur="2.969s" fill="freeze" begin="0s;73ea.click" /></path><path d="M67.1,56.07c0.85,0.85,1.43,1.95,1.43,3.72c0,11.39-0.04,15.9-0.04,30.96" stroke-dasharray="35.062" stroke-dashoffset="35.062"><animate attributeName="stroke-dashoffset" values="35.062" fill="freeze" begin="73ea.click" /><animate attributeName="stroke-dashoffset" values="35.062;35.062;0" keyTimes="0;0.894;1" dur="3.32s" fill="freeze" begin="0s;73ea.click" /></path><path d="M41.55,92.76c3.21,0.58,6.44,0.62,9.7,0.36C65.12,92,74,91.38,87.5,90.94c3.29-0.1,6.51,0.02,9.71,0.79" stroke-dasharray="55.827" stroke-dashoffset="55.827"><animate attributeName="stroke-dashoffset" values="55.827" fill="freeze" begin="73ea.click" /><animate attributeName="stroke-dashoffset" values="55.827;55.827;0" keyTimes="0;0.856;1" dur="3.878s" fill="freeze" begin="0s;73ea.click" /></path></g></g></g></g></svg>