<svg xmlns="http://www.w3.org/2000/svg" width="109" height="109" viewBox="0 0 109 109" id="73ed"><g fill="none" stroke="#666" stroke-width="9" stroke-linecap="round" stroke-linejoin="round"><g><g p4:partial xmlns:p4="http://kanjivg.tagaini.net"><path d="M14.27,27.36c1.73,0.39,4.47,0.15,5.76,0c4.17-0.5,10.77-1.61,15.63-2.28c1.81-0.25,3.5-0.41,5.34-0.18" /><path d="M27.06,29.8c1,1,1.31,2.61,1.31,4.17c0,11.15-0.02,32.52-0.02,42.71" /><path d="M14.32,52.05c1.68,0.45,3.76,0.28,4.83,0.07c4.56-0.86,11.26-2,16.28-2.94c0.73-0.14,2.36-0.4,3.46-0.08" /><path d="M14.66,81.11c0.97,1.02,2.34,1.14,4.09,0.39c8.09-3.47,12-5.5,22.36-9.66" /></g><g><g><path d="M46.02,35.33c0.98,0.92,1.76,1.99,1.76,5.02c0,8.6-0.01,14.48-0.02,18.9c0,2.46-0.01,4.47-0.01,6.25" /><path d="M56.85,14.5c0.82,0.82,1.54,2.12,1.54,4.39C58.39,43.87,60,78,42.06,94.72" /></g><g p5:partial xmlns:p5="http://kanjivg.tagaini.net"><path d="M67.85,23.19c1.65,0.44,3.27,0.69,4.88,0.48c5.5-0.71,12.33-1.87,17.38-2.58c1.19-0.17,2.63-0.21,3.87,0.1" /><path d="M78.92,25.37c1.23,1.23,1.68,2.86,1.68,4.54c0,11.75-0.02,33.95-0.02,52.79" /><path d="M68.19,51.54c1.81,0.46,3.99,0.6,5.32,0.44c5.36-0.66,9.25-1.45,16.26-2.24c0.79-0.09,2.1-0.24,3.71-0.01" /><path d="M61.56,84.6c1.48,0.47,4.37,0.28,5.94,0.16c6.41-0.49,15.85-1.79,25.26-2.12c1.57-0.06,3.98,0.04,5.44,0.57" /></g></g></g></g><g fill="none" stroke="#000" stroke-width="5" stroke-linecap="round" stroke-linejoin="round"><g><g p4:partial xmlns:p4="http://kanjivg.tagaini.net"><path d="M14.27,27.36c1.73,0.39,4.47,0.15,5.76,0c4.17-0.5,10.77-1.61,15.63-2.28c1.81-0.25,3.5-0.41,5.34-0.18" stroke-dasharray="26.94" stroke-dashoffset="26.94"><animate id="0" attributeName="stroke-dashoffset" values="26.94;0" dur="0.27s" fill="freeze" begin="0s;73ed.click" /></path><path d="M27.06,29.8c1,1,1.31,2.61,1.31,4.17c0,11.15-0.02,32.52-0.02,42.71" stroke-dasharray="47.19" stroke-dashoffset="47.19"><animate attributeName="stroke-dashoffset" values="47.19" fill="freeze" begin="73ed.click" /><animate id="1" attributeName="stroke-dashoffset" values="47.19;0" dur="0.47s" fill="freeze" begin="0.end" /></path><path d="M14.32,52.05c1.68,0.45,3.76,0.28,4.83,0.07c4.56-0.86,11.26-2,16.28-2.94c0.73-0.14,2.36-0.4,3.46-0.08" stroke-dasharray="24.9" stroke-dashoffset="24.9"><animate attributeName="stroke-dashoffset" values="24.9" fill="freeze" begin="73ed.click" /><animate id="2" attributeName="stroke-dashoffset" values="24.9;0" dur="0.25s" fill="freeze" begin="1.end" /></path><path d="M14.66,81.11c0.97,1.02,2.34,1.14,4.09,0.39c8.09-3.47,12-5.5,22.36-9.66" stroke-dasharray="28.76" stroke-dashoffset="28.76"><animate attributeName="stroke-dashoffset" values="28.76" fill="freeze" begin="73ed.click" /><animate id="3" attributeName="stroke-dashoffset" values="28.76;0" dur="0.29s" fill="freeze" begin="2.end" /></path></g><g><g><path d="M46.02,35.33c0.98,0.92,1.76,1.99,1.76,5.02c0,8.6-0.01,14.48-0.02,18.9c0,2.46-0.01,4.47-0.01,6.25" stroke-dasharray="30.65" stroke-dashoffset="30.65"><animate attributeName="stroke-dashoffset" values="30.65" fill="freeze" begin="73ed.click" /><animate id="4" attributeName="stroke-dashoffset" values="30.65;0" dur="0.31s" fill="freeze" begin="3.end" /></path><path d="M56.85,14.5c0.82,0.82,1.54,2.12,1.54,4.39C58.39,43.87,60,78,42.06,94.72" stroke-dasharray="84.48" stroke-dashoffset="84.48"><animate attributeName="stroke-dashoffset" values="84.48" fill="freeze" begin="73ed.click" /><animate id="5" attributeName="stroke-dashoffset" values="84.48;0" dur="0.64s" fill="freeze" begin="4.end" /></path></g><g p5:partial xmlns:p5="http://kanjivg.tagaini.net"><path d="M67.85,23.19c1.65,0.44,3.27,0.69,4.88,0.48c5.5-0.71,12.33-1.87,17.38-2.58c1.19-0.17,2.63-0.21,3.87,0.1" stroke-dasharray="26.4" stroke-dashoffset="26.4"><animate attributeName="stroke-dashoffset" values="26.4" fill="freeze" begin="73ed.click" /><animate id="6" attributeName="stroke-dashoffset" values="26.4;0" dur="0.26s" fill="freeze" begin="5.end" /></path><path d="M78.92,25.37c1.23,1.23,1.68,2.86,1.68,4.54c0,11.75-0.02,33.95-0.02,52.79" stroke-dasharray="57.76" stroke-dashoffset="57.76"><animate attributeName="stroke-dashoffset" values="57.76" fill="freeze" begin="73ed.click" /><animate id="7" attributeName="stroke-dashoffset" values="57.76;0" dur="0.58s" fill="freeze" begin="6.end" /></path><path d="M68.19,51.54c1.81,0.46,3.99,0.6,5.32,0.44c5.36-0.66,9.25-1.45,16.26-2.24c0.79-0.09,2.1-0.24,3.71-0.01" stroke-dasharray="25.5" stroke-dashoffset="25.5"><animate attributeName="stroke-dashoffset" values="25.5" fill="freeze" begin="73ed.click" /><animate id="8" attributeName="stroke-dashoffset" values="25.5;0" dur="0.26s" fill="freeze" begin="7.end" /></path><path d="M61.56,84.6c1.48,0.47,4.37,0.28,5.94,0.16c6.41-0.49,15.85-1.79,25.26-2.12c1.57-0.06,3.98,0.04,5.44,0.57" stroke-dasharray="36.82" stroke-dashoffset="36.82"><animate attributeName="stroke-dashoffset" values="36.82" fill="freeze" begin="73ed.click" /><animate id="9" attributeName="stroke-dashoffset" values="36.82;0" dur="0.37s" fill="freeze" begin="8.end" /></path></g></g></g></g></svg>