<svg xmlns="http://www.w3.org/2000/svg" width="109" height="109" viewBox="0 0 109 109" id="73ee"><g fill="none" stroke="#666" stroke-width="6" stroke-linecap="round" stroke-linejoin="round"><g><g p4:partial xmlns:p4="http://kanjivg.tagaini.net"><path d="M12.1,23.14c0.6,0.33,3.84,0.4,4.45,0.3c2.81-0.44,12.75-1.37,19.51-1.85c0.92-0.07,2.63-0.24,3.39,0.04" /><path d="M24.55,25.02c0.93,0.88,1.58,2.78,1.58,3.48c0,5.95,0.05,44.62-0.13,48.57" /><path d="M11.77,51c0.54,0.4,4.32,0.46,4.87,0.37c3.15-0.53,13.88-2.12,18.24-2.69c0.67-0.09,3.12-0.16,4.12,0.19" /><path d="M12.25,83.53c1.23,1.18,3.8,0.2,4.66-0.32c5.5-3.26,12.86-7.59,21.25-13.22" /></g><g><g><g><path d="M46.16,17.5c0.48,2.01,1.16,3.6,1.16,6.11c0,22.98,1.16,51.94-14.32,67.94" /></g><path d="M47.21,19.91C56.13,18.27,78.52,16,81.77,16s4.73,0.88,4.46,4.47c-1.42,19.06-2.73,46.78,6.49,63.96c6.41,11.93,5.27,5.09,4.87-4.32" /></g><path d="M53.25,32.95c0.73,0.34,2.07,0.38,2.81,0.34c4.44-0.29,16.11-2.3,20.63-1.91c1.22,0.1,1.95,0.16,2.56,0.33" /><g><path d="M53.44,48.1c0.3,0.34,0.94,2.55,1,3.23c0.06,0.68,0.46,24.38,0.4,28.63" /><path d="M54.3,49.32c1.88-0.24,20.2-2.96,21.61-3.08c2.82-0.23,2.82,2.05,2.76,3.61c-0.3,7.81-0.41,19.61-1.37,27.27c-0.69,5.51-4.05,0.9-5.3-1.14" /><path d="M64.77,34.6c0.3,0.34,0.94,2.55,1,3.23c0.06,0.68-0.04,56.3-0.1,60.56" /></g></g></g></g><g fill="none" stroke="#000" stroke-width="3" stroke-linecap="round" stroke-linejoin="round"><path d="M12.1,23.14c0.6,0.33,3.84,0.4,4.45,0.3c2.81-0.44,12.75-1.37,19.51-1.85c0.92-0.07,2.63-0.24,3.39,0.04" stroke-dasharray="27.494" stroke-dashoffset="27.494"><animate attributeName="stroke-dashoffset" values="27.494;27.494;0" dur="0.275s" fill="freeze" begin="0s;73ee.click" /></path><path d="M24.55,25.02c0.93,0.88,1.58,2.78,1.58,3.48c0,5.95,0.05,44.62-0.13,48.57" stroke-dasharray="52.461" stroke-dashoffset="52.461"><animate attributeName="stroke-dashoffset" values="52.461" fill="freeze" begin="73ee.click" /><animate attributeName="stroke-dashoffset" values="52.461;52.461;0" keyTimes="0;0.344;1" dur="0.8s" fill="freeze" begin="0s;73ee.click" /></path><path d="M11.77,51c0.54,0.4,4.32,0.46,4.87,0.37c3.15-0.53,13.88-2.12,18.24-2.69c0.67-0.09,3.12-0.16,4.12,0.19" stroke-dasharray="27.499" stroke-dashoffset="27.499"><animate attributeName="stroke-dashoffset" values="27.499" fill="freeze" begin="73ee.click" /><animate attributeName="stroke-dashoffset" values="27.499;27.499;0" keyTimes="0;0.744;1" dur="1.075s" fill="freeze" begin="0s;73ee.click" /></path><path d="M12.25,83.53c1.23,1.18,3.8,0.2,4.66-0.32c5.5-3.26,12.86-7.59,21.25-13.22" stroke-dasharray="29.984" stroke-dashoffset="29.984"><animate attributeName="stroke-dashoffset" values="29.984" fill="freeze" begin="73ee.click" /><animate attributeName="stroke-dashoffset" values="29.984;29.984;0" keyTimes="0;0.782;1" dur="1.375s" fill="freeze" begin="0s;73ee.click" /></path><path d="M46.16,17.5c0.48,2.01,1.16,3.6,1.16,6.11c0,22.98,1.16,51.94-14.32,67.94" stroke-dasharray="77.394" stroke-dashoffset="77.394"><animate attributeName="stroke-dashoffset" values="77.394" fill="freeze" begin="73ee.click" /><animate attributeName="stroke-dashoffset" values="77.394;77.394;0" keyTimes="0;0.703;1" dur="1.957s" fill="freeze" begin="0s;73ee.click" /></path><path d="M47.21,19.91C56.13,18.27,78.52,16,81.77,16s4.73,0.88,4.46,4.47c-1.42,19.06-2.73,46.78,6.49,63.96c6.41,11.93,5.27,5.09,4.87-4.32" stroke-dasharray="126.288" stroke-dashoffset="126.288"><animate attributeName="stroke-dashoffset" values="126.288" fill="freeze" begin="73ee.click" /><animate attributeName="stroke-dashoffset" values="126.288;126.288;0" keyTimes="0;0.673;1" dur="2.907s" fill="freeze" begin="0s;73ee.click" /></path><path d="M53.25,32.95c0.73,0.34,2.07,0.38,2.81,0.34c4.44-0.29,16.11-2.3,20.63-1.91c1.22,0.1,1.95,0.16,2.56,0.33" stroke-dasharray="26.177" stroke-dashoffset="26.177"><animate attributeName="stroke-dashoffset" values="26.177" fill="freeze" begin="73ee.click" /><animate attributeName="stroke-dashoffset" values="26.177;26.177;0" keyTimes="0;0.917;1" dur="3.169s" fill="freeze" begin="0s;73ee.click" /></path><path d="M53.44,48.1c0.3,0.34,0.94,2.55,1,3.23c0.06,0.68,0.46,24.38,0.4,28.63" stroke-dasharray="32.033" stroke-dashoffset="32.033"><animate attributeName="stroke-dashoffset" values="32.033" fill="freeze" begin="73ee.click" /><animate attributeName="stroke-dashoffset" values="32.033;32.033;0" keyTimes="0;0.908;1" dur="3.489s" fill="freeze" begin="0s;73ee.click" /></path><path d="M54.3,49.32c1.88-0.24,20.2-2.96,21.61-3.08c2.82-0.23,2.82,2.05,2.76,3.61c-0.3,7.81-0.41,19.61-1.37,27.27c-0.69,5.51-4.05,0.9-5.3-1.14" stroke-dasharray="63.323" stroke-dashoffset="63.323"><animate attributeName="stroke-dashoffset" values="63.323" fill="freeze" begin="73ee.click" /><animate attributeName="stroke-dashoffset" values="63.323;63.323;0" keyTimes="0;0.88;1" dur="3.965s" fill="freeze" begin="0s;73ee.click" /></path><path d="M64.77,34.6c0.3,0.34,0.94,2.55,1,3.23c0.06,0.68-0.04,56.3-0.1,60.56" stroke-dasharray="63.96" stroke-dashoffset="63.96"><animate attributeName="stroke-dashoffset" values="63.96" fill="freeze" begin="73ee.click" /><animate attributeName="stroke-dashoffset" values="63.96;63.96;0" keyTimes="0;0.892;1" dur="4.446s" fill="freeze" begin="0s;73ee.click" /></path></g></svg>