<svg xmlns="http://www.w3.org/2000/svg" viewBox="0 0 109 109" id="73f1"><g fill="none" stroke="#666" stroke-width="6" stroke-linecap="round" stroke-linejoin="round"><g><g p4:partial xmlns:p4="http://kanjivg.tagaini.net"><path d="M11.75,24.25c0.58,0.37,3.73,0.45,4.32,0.34c2.73-0.5,13.83-2.09,20.39-2.64c0.9-0.07,2.55-0.26,3.29,0.04" /><path d="M25.07,25.02c0.87,0.88,1.48,2.78,1.48,3.48c0,5.95,0.52,44.62,0.35,48.57" /><path d="M12.75,50.32c0.51,0.26,4.1,0.3,4.62,0.24c3-0.35,14.05-1.72,18.2-2.1c0.64-0.06,2.97-0.11,3.92,0.12" /><path d="M11.75,82.25c1.75,1,3.68,0.93,4.5,0.5C21.5,80,28,77,36,72.25" /></g><g><g><path d="M44,27.24c4.38,4.31,9.07,11.86,9.69,14.01" /><path d="M60.06,18.69c3.19,3.06,8.15,12.04,9.1,17.67" /><path d="M89.84,19.75c0.6,1.07,0.93,2.39-0.1,4.29C88,27.25,82.75,36.5,78.78,41.42" /></g><g><path d="M65.92,45.62c0.36,1.16,0.11,2.61-0.18,4.04c-1.39,7.04-6.32,17.61-11.25,25.41c-0.75,1.18-0.41,1.42,0.32,1.5C67.25,78,82.25,84,93,96.25" /><path d="M81.94,56.15c0.11,0.97,0.8,3.87,0.38,5.28c-3.45,11.41-13.4,27.58-38.05,36.08" /><path d="M41.21,63.31c1.02,0.39,2.89,0.44,3.91,0.39c8.63-0.45,25.36-2.61,47.04-4.03c1.7-0.11,4.63,0.37,6.01,1.05" /></g></g></g></g><g fill="none" stroke="#000" stroke-width="3" stroke-linecap="round" stroke-linejoin="round"><path d="M11.75,24.25c0.58,0.37,3.73,0.45,4.32,0.34c2.73-0.5,13.83-2.09,20.39-2.64c0.9-0.07,2.55-0.26,3.29,0.04" stroke-dasharray="28.241" stroke-dashoffset="28.241"><animate attributeName="stroke-dashoffset" values="28.241;28.241;0" dur="0.282s" fill="freeze" begin="0s;73f1.click" /></path><path d="M25.07,25.02c0.87,0.88,1.48,2.78,1.48,3.48c0,5.95,0.52,44.62,0.35,48.57" stroke-dasharray="52.415" stroke-dashoffset="52.415"><animate attributeName="stroke-dashoffset" values="52.415" fill="freeze" begin="73f1.click" /><animate attributeName="stroke-dashoffset" values="52.415;52.415;0" keyTimes="0;0.35;1" dur="0.806s" fill="freeze" begin="0s;73f1.click" /></path><path d="M12.75,50.32c0.51,0.26,4.1,0.3,4.62,0.24c3-0.35,14.05-1.72,18.2-2.1c0.64-0.06,2.97-0.11,3.92,0.12" stroke-dasharray="26.894" stroke-dashoffset="26.894"><animate attributeName="stroke-dashoffset" values="26.894" fill="freeze" begin="73f1.click" /><animate attributeName="stroke-dashoffset" values="26.894;26.894;0" keyTimes="0;0.75;1" dur="1.075s" fill="freeze" begin="0s;73f1.click" /></path><path d="M11.75,82.25c1.75,1,3.68,0.93,4.5,0.5C21.5,80,28,77,36,72.25" stroke-dasharray="27.056" stroke-dashoffset="27.056"><animate attributeName="stroke-dashoffset" values="27.056" fill="freeze" begin="73f1.click" /><animate attributeName="stroke-dashoffset" values="27.056;27.056;0" keyTimes="0;0.799;1" dur="1.346s" fill="freeze" begin="0s;73f1.click" /></path><path d="M44,27.24c4.38,4.31,9.07,11.86,9.69,14.01" stroke-dasharray="17.127" stroke-dashoffset="17.127"><animate attributeName="stroke-dashoffset" values="17.127" fill="freeze" begin="73f1.click" /><animate attributeName="stroke-dashoffset" values="17.127;17.127;0" keyTimes="0;0.887;1" dur="1.517s" fill="freeze" begin="0s;73f1.click" /></path><path d="M60.06,18.69c3.19,3.06,8.15,12.04,9.1,17.67" stroke-dasharray="20.09" stroke-dashoffset="20.09"><animate attributeName="stroke-dashoffset" values="20.09" fill="freeze" begin="73f1.click" /><animate attributeName="stroke-dashoffset" values="20.09;20.09;0" keyTimes="0;0.883;1" dur="1.718s" fill="freeze" begin="0s;73f1.click" /></path><path d="M89.84,19.75c0.6,1.07,0.93,2.39-0.1,4.29C88,27.25,82.75,36.5,78.78,41.42" stroke-dasharray="25.081" stroke-dashoffset="25.081"><animate attributeName="stroke-dashoffset" values="25.081" fill="freeze" begin="73f1.click" /><animate attributeName="stroke-dashoffset" values="25.081;25.081;0" keyTimes="0;0.873;1" dur="1.969s" fill="freeze" begin="0s;73f1.click" /></path><path d="M65.92,45.62c0.36,1.16,0.11,2.61-0.18,4.04c-1.39,7.04-6.32,17.61-11.25,25.41c-0.75,1.18-0.41,1.42,0.32,1.5C67.25,78,82.25,84,93,96.25" stroke-dasharray="78.01" stroke-dashoffset="78.01"><animate attributeName="stroke-dashoffset" values="78.01" fill="freeze" begin="73f1.click" /><animate attributeName="stroke-dashoffset" values="78.01;78.01;0" keyTimes="0;0.77;1" dur="2.556s" fill="freeze" begin="0s;73f1.click" /></path><path d="M81.94,56.15c0.11,0.97,0.8,3.87,0.38,5.28c-3.45,11.41-13.4,27.58-38.05,36.08" stroke-dasharray="59.809" stroke-dashoffset="59.809"><animate attributeName="stroke-dashoffset" values="59.809" fill="freeze" begin="73f1.click" /><animate attributeName="stroke-dashoffset" values="59.809;59.809;0" keyTimes="0;0.81;1" dur="3.154s" fill="freeze" begin="0s;73f1.click" /></path><path d="M41.21,63.31c1.02,0.39,2.89,0.44,3.91,0.39c8.63-0.45,25.36-2.61,47.04-4.03c1.7-0.11,4.63,0.37,6.01,1.05" stroke-dasharray="57.315" stroke-dashoffset="57.315"><animate attributeName="stroke-dashoffset" values="57.315" fill="freeze" begin="73f1.click" /><animate attributeName="stroke-dashoffset" values="57.315;57.315;0" keyTimes="0;0.846;1" dur="3.727s" fill="freeze" begin="0s;73f1.click" /></path></g></svg>