<svg xmlns="http://www.w3.org/2000/svg" width="109" height="109" viewBox="0 0 109 109" id="73f1"><g fill="none" stroke="#666" stroke-width="9" stroke-linecap="round" stroke-linejoin="round"><g><g p4:partial xmlns:p4="http://kanjivg.tagaini.net"><path d="M11.75,24.25c0.58,0.37,3.73,0.45,4.32,0.34c2.73-0.5,13.83-2.09,20.39-2.64c0.9-0.07,2.55-0.26,3.29,0.04" /><path d="M25.07,25.02c0.87,0.88,1.48,2.78,1.48,3.48c0,5.95,0.52,44.62,0.35,48.57" /><path d="M12.75,50.32c0.51,0.26,4.1,0.3,4.62,0.24c3-0.35,14.05-1.72,18.2-2.1c0.64-0.06,2.97-0.11,3.92,0.12" /><path d="M11.75,82.25c1.75,1,3.68,0.93,4.5,0.5C21.5,80,28,77,36,72.25" /></g><g><g><path d="M44,27.24c4.38,4.31,9.07,11.86,9.69,14.01" /><path d="M60.06,18.69c3.19,3.06,8.15,12.04,9.1,17.67" /><path d="M89.84,19.75c0.6,1.07,0.93,2.39-0.1,4.29C88,27.25,82.75,36.5,78.78,41.42" /></g><g><path d="M65.92,45.62c0.36,1.16,0.11,2.61-0.18,4.04c-1.39,7.04-6.32,17.61-11.25,25.41c-0.75,1.18-0.41,1.42,0.32,1.5C67.25,78,82.25,84,93,96.25" /><path d="M81.94,56.15c0.11,0.97,0.8,3.87,0.38,5.28c-3.45,11.41-13.4,27.58-38.05,36.08" /><path d="M41.21,63.31c1.02,0.39,2.89,0.44,3.91,0.39c8.63-0.45,25.36-2.61,47.04-4.03c1.7-0.11,4.63,0.37,6.01,1.05" /></g></g></g></g><g fill="none" stroke="#000" stroke-width="5" stroke-linecap="round" stroke-linejoin="round"><g><g p4:partial xmlns:p4="http://kanjivg.tagaini.net"><path d="M11.75,24.25c0.58,0.37,3.73,0.45,4.32,0.34c2.73-0.5,13.83-2.09,20.39-2.64c0.9-0.07,2.55-0.26,3.29,0.04" stroke-dasharray="28.24" stroke-dashoffset="28.24"><animate id="0" attributeName="stroke-dashoffset" values="28.24;0" dur="0.28s" fill="freeze" begin="0s;73f1.click" /></path><path d="M25.07,25.02c0.87,0.88,1.48,2.78,1.48,3.48c0,5.95,0.52,44.62,0.35,48.57" stroke-dasharray="52.41" stroke-dashoffset="52.41"><animate attributeName="stroke-dashoffset" values="52.41" fill="freeze" begin="73f1.click" /><animate id="1" attributeName="stroke-dashoffset" values="52.41;0" dur="0.52s" fill="freeze" begin="0.end" /></path><path d="M12.75,50.32c0.51,0.26,4.1,0.3,4.62,0.24c3-0.35,14.05-1.72,18.2-2.1c0.64-0.06,2.97-0.11,3.92,0.12" stroke-dasharray="26.89" stroke-dashoffset="26.89"><animate attributeName="stroke-dashoffset" values="26.89" fill="freeze" begin="73f1.click" /><animate id="2" attributeName="stroke-dashoffset" values="26.89;0" dur="0.27s" fill="freeze" begin="1.end" /></path><path d="M11.75,82.25c1.75,1,3.68,0.93,4.5,0.5C21.5,80,28,77,36,72.25" stroke-dasharray="27.05" stroke-dashoffset="27.05"><animate attributeName="stroke-dashoffset" values="27.05" fill="freeze" begin="73f1.click" /><animate id="3" attributeName="stroke-dashoffset" values="27.05;0" dur="0.27s" fill="freeze" begin="2.end" /></path></g><g><g><path d="M44,27.24c4.38,4.31,9.07,11.86,9.69,14.01" stroke-dasharray="17.13" stroke-dashoffset="17.13"><animate attributeName="stroke-dashoffset" values="17.13" fill="freeze" begin="73f1.click" /><animate id="4" attributeName="stroke-dashoffset" values="17.13;0" dur="0.17s" fill="freeze" begin="3.end" /></path><path d="M60.06,18.69c3.19,3.06,8.15,12.04,9.1,17.67" stroke-dasharray="20.09" stroke-dashoffset="20.09"><animate attributeName="stroke-dashoffset" values="20.09" fill="freeze" begin="73f1.click" /><animate id="5" attributeName="stroke-dashoffset" values="20.09;0" dur="0.2s" fill="freeze" begin="4.end" /></path><path d="M89.84,19.75c0.6,1.07,0.93,2.39-0.1,4.29C88,27.25,82.75,36.5,78.78,41.42" stroke-dasharray="25.08" stroke-dashoffset="25.08"><animate attributeName="stroke-dashoffset" values="25.08" fill="freeze" begin="73f1.click" /><animate id="6" attributeName="stroke-dashoffset" values="25.08;0" dur="0.25s" fill="freeze" begin="5.end" /></path></g><g><path d="M65.92,45.62c0.36,1.16,0.11,2.61-0.18,4.04c-1.39,7.04-6.32,17.61-11.25,25.41c-0.75,1.18-0.41,1.42,0.32,1.5C67.25,78,82.25,84,93,96.25" stroke-dasharray="78.01" stroke-dashoffset="78.01"><animate attributeName="stroke-dashoffset" values="78.01" fill="freeze" begin="73f1.click" /><animate id="7" attributeName="stroke-dashoffset" values="78.01;0" dur="0.59s" fill="freeze" begin="6.end" /></path><path d="M81.94,56.15c0.11,0.97,0.8,3.87,0.38,5.28c-3.45,11.41-13.4,27.58-38.05,36.08" stroke-dasharray="59.81" stroke-dashoffset="59.81"><animate attributeName="stroke-dashoffset" values="59.81" fill="freeze" begin="73f1.click" /><animate id="8" attributeName="stroke-dashoffset" values="59.81;0" dur="0.6s" fill="freeze" begin="7.end" /></path><path d="M41.21,63.31c1.02,0.39,2.89,0.44,3.91,0.39c8.63-0.45,25.36-2.61,47.04-4.03c1.7-0.11,4.63,0.37,6.01,1.05" stroke-dasharray="57.31" stroke-dashoffset="57.31"><animate attributeName="stroke-dashoffset" values="57.31" fill="freeze" begin="73f1.click" /><animate id="9" attributeName="stroke-dashoffset" values="57.31;0" dur="0.57s" fill="freeze" begin="8.end" /></path></g></g></g></g></svg>