<svg xmlns="http://www.w3.org/2000/svg" width="109" height="109" viewBox="0 0 109 109" id="73fe"><g fill="none" stroke="#666" stroke-width="9" stroke-linecap="round" stroke-linejoin="round"><g><g p4:partial xmlns:p4="http://kanjivg.tagaini.net"><path d="M11.5,23.5c1.88,0.38,3.37,0.36,4.76,0.23c5.36-0.48,14.86-1.48,21.37-2.58c1.38-0.23,3.25-0.27,4.87-0.15" /><path d="M26.32,25.02c0.89,0.89,1.48,2.61,1.48,3.98c0,6.38,0.1,34.62,0.1,40.57" /><path d="M13.5,47.25c1.52,0.51,3.09,0.46,4.65,0.27c4.25-0.53,12.47-2.08,17.5-2.91c1.68-0.28,3.73-0.73,5.35-0.49" /><path d="M12.25,76.97c1.31,0.66,2.8,0.46,3.67,0.01c7.48-3.82,12.86-6.46,22.58-11.86" /></g><g p4:phon="見" xmlns:p4="http://kanjivg.tagaini.net"><g><path d="M49.3,16.71c0.87,0.87,1.49,2.35,1.49,3.77c0,3.1,0.11,27.19,0.15,37.77c0.01,2.3,0.01,3.96,0.01,4.63" /><path d="M51.38,18.4c4.49-0.65,24.66-2.94,27.27-3.15c2.17-0.18,3.7,1.26,3.7,3.3c0,1.51-0.08,22.61-0.09,38.08c0,1.76,0,2.96,0,4.55" /><path d="M52.08,32.6c8.42-1.1,20.17-2.48,28.83-2.62" /><path d="M52.07,46.38c8.93-0.75,22.56-2.13,29.01-2.37" /><path d="M52.05,59.91c6.95-0.41,21.7-1.78,28.76-2.12" /></g><g><path d="M57.63,65.52c0.06,0.71,0.13,1.84-0.12,2.86c-1.46,6.03-8.88,19.49-21.26,27.37" /><path d="M68.73,61.47c0.78,0.78,1.2,2.03,1.2,3.48c0,4.67-0.14,12.87-0.14,18.35c0,10.2,1.58,11.33,13.93,11.33c12.02,0,12.52-2.25,12.52-9.23" /></g></g></g></g><g fill="none" stroke="#000" stroke-width="5" stroke-linecap="round" stroke-linejoin="round"><path d="M11.5,23.5c1.88,0.38,3.37,0.36,4.76,0.23c5.36-0.48,14.86-1.48,21.37-2.58c1.38-0.23,3.25-0.27,4.87-0.15" stroke-dasharray="31.197" stroke-dashoffset="31.197"><animate attributeName="stroke-dashoffset" values="31.197;31.197;0" dur="0.312s" fill="freeze" begin="0s;73fe.click" /></path><path d="M26.32,25.02c0.89,0.89,1.48,2.61,1.48,3.98c0,6.38,0.1,34.62,0.1,40.57" stroke-dasharray="44.91" stroke-dashoffset="44.91"><animate attributeName="stroke-dashoffset" values="44.91" fill="freeze" begin="73fe.click" /><animate attributeName="stroke-dashoffset" values="44.91;44.91;0" keyTimes="0;0.41;1" dur="0.761s" fill="freeze" begin="0s;73fe.click" /></path><path d="M13.5,47.25c1.52,0.51,3.09,0.46,4.65,0.27c4.25-0.53,12.47-2.08,17.5-2.91c1.68-0.28,3.73-0.73,5.35-0.49" stroke-dasharray="27.835" stroke-dashoffset="27.835"><animate attributeName="stroke-dashoffset" values="27.835" fill="freeze" begin="73fe.click" /><animate attributeName="stroke-dashoffset" values="27.835;27.835;0" keyTimes="0;0.732;1" dur="1.039s" fill="freeze" begin="0s;73fe.click" /></path><path d="M12.25,76.97c1.31,0.66,2.8,0.46,3.67,0.01c7.48-3.82,12.86-6.46,22.58-11.86" stroke-dasharray="29.307" stroke-dashoffset="29.307"><animate attributeName="stroke-dashoffset" values="29.307" fill="freeze" begin="73fe.click" /><animate attributeName="stroke-dashoffset" values="29.307;29.307;0" keyTimes="0;0.78;1" dur="1.332s" fill="freeze" begin="0s;73fe.click" /></path><path d="M49.3,16.71c0.87,0.87,1.49,2.35,1.49,3.77c0,3.1,0.11,27.19,0.15,37.77c0.01,2.3,0.01,3.96,0.01,4.63" stroke-dasharray="46.551" stroke-dashoffset="46.551"><animate attributeName="stroke-dashoffset" values="46.551" fill="freeze" begin="73fe.click" /><animate attributeName="stroke-dashoffset" values="46.551;46.551;0" keyTimes="0;0.741;1" dur="1.798s" fill="freeze" begin="0s;73fe.click" /></path><path d="M51.38,18.4c4.49-0.65,24.66-2.94,27.27-3.15c2.17-0.18,3.7,1.26,3.7,3.3c0,1.51-0.08,22.61-0.09,38.08c0,1.76,0,2.96,0,4.55" stroke-dasharray="75.722" stroke-dashoffset="75.722"><animate attributeName="stroke-dashoffset" values="75.722" fill="freeze" begin="73fe.click" /><animate attributeName="stroke-dashoffset" values="75.722;75.722;0" keyTimes="0;0.76;1" dur="2.367s" fill="freeze" begin="0s;73fe.click" /></path><path d="M52.08,32.6c8.42-1.1,20.17-2.48,28.83-2.62" stroke-dasharray="28.964" stroke-dashoffset="28.964"><animate attributeName="stroke-dashoffset" values="28.964" fill="freeze" begin="73fe.click" /><animate attributeName="stroke-dashoffset" values="28.964;28.964;0" keyTimes="0;0.891;1" dur="2.657s" fill="freeze" begin="0s;73fe.click" /></path><path d="M52.07,46.38c8.93-0.75,22.56-2.13,29.01-2.37" stroke-dasharray="29.11" stroke-dashoffset="29.11"><animate attributeName="stroke-dashoffset" values="29.11" fill="freeze" begin="73fe.click" /><animate attributeName="stroke-dashoffset" values="29.11;29.11;0" keyTimes="0;0.901;1" dur="2.948s" fill="freeze" begin="0s;73fe.click" /></path><path d="M52.05,59.91c6.95-0.41,21.7-1.78,28.76-2.12" stroke-dasharray="28.84" stroke-dashoffset="28.84"><animate attributeName="stroke-dashoffset" values="28.84" fill="freeze" begin="73fe.click" /><animate attributeName="stroke-dashoffset" values="28.84;28.84;0" keyTimes="0;0.911;1" dur="3.236s" fill="freeze" begin="0s;73fe.click" /></path><path d="M57.63,65.52c0.06,0.71,0.13,1.84-0.12,2.86c-1.46,6.03-8.88,19.49-21.26,27.37" stroke-dasharray="38.2" stroke-dashoffset="38.2"><animate attributeName="stroke-dashoffset" values="38.2" fill="freeze" begin="73fe.click" /><animate attributeName="stroke-dashoffset" values="38.2;38.2;0" keyTimes="0;0.894;1" dur="3.618s" fill="freeze" begin="0s;73fe.click" /></path><path d="M68.73,61.47c0.78,0.78,1.2,2.03,1.2,3.48c0,4.67-0.14,12.87-0.14,18.35c0,10.2,1.58,11.33,13.93,11.33c12.02,0,12.52-2.25,12.52-9.23" stroke-dasharray="62.954" stroke-dashoffset="62.954"><animate attributeName="stroke-dashoffset" values="62.954" fill="freeze" begin="73fe.click" /><animate attributeName="stroke-dashoffset" values="62.954;62.954;0" keyTimes="0;0.884;1" dur="4.091s" fill="freeze" begin="0s;73fe.click" /></path></g></svg>