<svg xmlns="http://www.w3.org/2000/svg" width="109" height="109" viewBox="0 0 109 109" id="7403"><g fill="none" stroke="#666" stroke-width="9" stroke-linecap="round" stroke-linejoin="round"><g><g p4:partial xmlns:p4="http://kanjivg.tagaini.net"><path d="M13.25,29.25c0.73,0.37,3.54,0.4,4.28,0.34c5.93-0.47,11.49-1.59,19.43-2.64c1.12-0.15,3.22-0.26,4.16,0.04" /><path d="M26.82,31.77c1.21,1.21,1.48,2.73,1.48,4.48c0,5.95,0.1,35.5,0.1,40.82" /><path d="M12.5,54.5c1.12,0.5,3,0.46,4.01,0.37c5.73-0.51,13.61-1.9,20.23-3.19c1.39-0.27,3.13-0.55,4.5-0.31" /><path d="M13,84.25c1.12,0.5,2.65,0.13,3.5-0.25c6.12-2.75,12-6,21.25-11" /></g><g p4:phon="求" xmlns:p4="http://kanjivg.tagaini.net"><path d="M46.14,34.91c2.48,0.33,4.95,0.3,7.39-0.09c10.37-1.36,21.08-2.24,31.39-3.32c2.38-0.2,4.75-0.12,7.13,0.24" /><g><path d="M66.21,13.71c0.98,0.98,1.66,2.67,1.66,4.59c0,15.33-0.24,65.12-0.24,69.69c0,7.45-5,2.96-8.27,0.23" /><path d="M48.12,46.12c3.52,1.48,9.1,6.1,9.98,8.41" /><path d="M41.5,82.5c1.75,0.37,3.62-0.25,5.17-1.94c2.17-2.36,6.58-8,12.48-15.55" /><path d="M87.41,42.11c0.09,0.8-0.1,1.77-0.52,2.44c-2.39,3.83-4.39,5.83-8.3,9.55" /><path d="M74.07,60.86c4.58,7.02,10.82,15.43,16.36,20.71c1.73,1.65,3.45,3.05,5.83,4.3" /></g><g><path d="M80.39,14.21c2.91,1.54,7.51,6.33,8.24,8.73" /></g></g></g></g><g fill="none" stroke="#000" stroke-width="5" stroke-linecap="round" stroke-linejoin="round"><path d="M13.25,29.25c0.73,0.37,3.54,0.4,4.28,0.34c5.93-0.47,11.49-1.59,19.43-2.64c1.12-0.15,3.22-0.26,4.16,0.04" stroke-dasharray="28.112" stroke-dashoffset="28.112"><animate attributeName="stroke-dashoffset" values="28.112;28.112;0" dur="0.281s" fill="freeze" begin="0s;7403.click" /></path><path d="M26.82,31.77c1.21,1.21,1.48,2.73,1.48,4.48c0,5.95,0.1,35.5,0.1,40.82" stroke-dasharray="45.676" stroke-dashoffset="45.676"><animate attributeName="stroke-dashoffset" values="45.676" fill="freeze" begin="7403.click" /><animate attributeName="stroke-dashoffset" values="45.676;45.676;0" keyTimes="0;0.381;1" dur="0.738s" fill="freeze" begin="0s;7403.click" /></path><path d="M12.5,54.5c1.12,0.5,3,0.46,4.01,0.37c5.73-0.51,13.61-1.9,20.23-3.19c1.39-0.27,3.13-0.55,4.5-0.31" stroke-dasharray="29.086" stroke-dashoffset="29.086"><animate attributeName="stroke-dashoffset" values="29.086" fill="freeze" begin="7403.click" /><animate attributeName="stroke-dashoffset" values="29.086;29.086;0" keyTimes="0;0.717;1" dur="1.029s" fill="freeze" begin="0s;7403.click" /></path><path d="M13,84.25c1.12,0.5,2.65,0.13,3.5-0.25c6.12-2.75,12-6,21.25-11" stroke-dasharray="27.536" stroke-dashoffset="27.536"><animate attributeName="stroke-dashoffset" values="27.536" fill="freeze" begin="7403.click" /><animate attributeName="stroke-dashoffset" values="27.536;27.536;0" keyTimes="0;0.789;1" dur="1.304s" fill="freeze" begin="0s;7403.click" /></path><path d="M46.14,34.91c2.48,0.33,4.95,0.3,7.39-0.09c10.37-1.36,21.08-2.24,31.39-3.32c2.38-0.2,4.75-0.12,7.13,0.24" stroke-dasharray="46.135" stroke-dashoffset="46.135"><animate attributeName="stroke-dashoffset" values="46.135" fill="freeze" begin="7403.click" /><animate attributeName="stroke-dashoffset" values="46.135;46.135;0" keyTimes="0;0.739;1" dur="1.765s" fill="freeze" begin="0s;7403.click" /></path><path d="M66.21,13.71c0.98,0.98,1.66,2.67,1.66,4.59c0,15.33-0.24,65.12-0.24,69.69c0,7.45-5,2.96-8.27,0.23" stroke-dasharray="87.217" stroke-dashoffset="87.217"><animate attributeName="stroke-dashoffset" values="87.217" fill="freeze" begin="7403.click" /><animate attributeName="stroke-dashoffset" values="87.217;87.217;0" keyTimes="0;0.729;1" dur="2.421s" fill="freeze" begin="0s;7403.click" /></path><path d="M48.12,46.12c3.52,1.48,9.1,6.1,9.98,8.41" stroke-dasharray="13.24" stroke-dashoffset="13.24"><animate attributeName="stroke-dashoffset" values="13.24" fill="freeze" begin="7403.click" /><animate attributeName="stroke-dashoffset" values="13.24;13.24;0" keyTimes="0;0.948;1" dur="2.553s" fill="freeze" begin="0s;7403.click" /></path><path d="M41.5,82.5c1.75,0.37,3.62-0.25,5.17-1.94c2.17-2.36,6.58-8,12.48-15.55" stroke-dasharray="25.731" stroke-dashoffset="25.731"><animate attributeName="stroke-dashoffset" values="25.731" fill="freeze" begin="7403.click" /><animate attributeName="stroke-dashoffset" values="25.731;25.731;0" keyTimes="0;0.909;1" dur="2.81s" fill="freeze" begin="0s;7403.click" /></path><path d="M87.41,42.11c0.09,0.8-0.1,1.77-0.52,2.44c-2.39,3.83-4.39,5.83-8.3,9.55" stroke-dasharray="15.234" stroke-dashoffset="15.234"><animate attributeName="stroke-dashoffset" values="15.234" fill="freeze" begin="7403.click" /><animate attributeName="stroke-dashoffset" values="15.234;15.234;0" keyTimes="0;0.949;1" dur="2.962s" fill="freeze" begin="0s;7403.click" /></path><path d="M74.07,60.86c4.58,7.02,10.82,15.43,16.36,20.71c1.73,1.65,3.45,3.05,5.83,4.3" stroke-dasharray="33.714" stroke-dashoffset="33.714"><animate attributeName="stroke-dashoffset" values="33.714" fill="freeze" begin="7403.click" /><animate attributeName="stroke-dashoffset" values="33.714;33.714;0" keyTimes="0;0.898;1" dur="3.299s" fill="freeze" begin="0s;7403.click" /></path><path d="M80.39,14.21c2.91,1.54,7.51,6.33,8.24,8.73" stroke-dasharray="12.179" stroke-dashoffset="12.179"><animate attributeName="stroke-dashoffset" values="12.179" fill="freeze" begin="7403.click" /><animate attributeName="stroke-dashoffset" values="12.179;12.179;0" keyTimes="0;0.964;1" dur="3.421s" fill="freeze" begin="0s;7403.click" /></path></g></svg>