<svg xmlns="http://www.w3.org/2000/svg" width="109" height="109" viewBox="0 0 109 109" id="7405"><g fill="none" stroke="#666" stroke-width="9" stroke-linecap="round" stroke-linejoin="round"><g><g p4:partial xmlns:p4="http://kanjivg.tagaini.net"><path d="M11.6,25.25c0.67,0.37,4.31,0.45,4.99,0.34c3.16-0.5,15.98-2.09,23.56-2.64c1.03-0.07,2.95-0.26,3.8,0.04" /><path d="M27.55,27.52c0.93,0.88,1.58,2.78,1.58,3.48c0,5.95,0.05,43.62-0.13,47.57" /><path d="M12.52,52c0.59,0.4,4.75,0.46,5.36,0.37c3.47-0.53,15.28-2.12,20.08-2.69c0.74-0.09,3.44-0.16,4.54,0.19" /><path d="M11.75,85.25c1.25,1,3.36,1.43,4.24,1c5.61-2.75,19.12-10.25,27.67-15" /></g><g><path d="M65.05,10.75c1.19,0.64,1.91,1.6,2.15,2.87c0.24,1.28,0.24,9.19,0.24,12.38" /><g><path d="M52.38,27.31c2.35-0.12,30.2-3.51,32.34-3.66c1.78-0.12,2.81,1.36,2.79,2.1c-0.12,5.26-2.25,22-3.09,27.39" /><path d="M53.03,40.52c5.9-0.59,27.55-2.9,33.22-3.37" /><path d="M53.64,53.09c8.08-0.95,22.19-1.31,30.97-2.21" /><path d="M50.01,23.96c1.33,0.58,2.13,2.6,2.4,3.75c0.27,1.15,0.56,60.17,0.27,63.04c-0.27,2.6-0.82,7.42,2.03,4.6C58.5,91.6,61.5,89,68.3,83.57" /><path d="M86.57,59.19c0.28,1.17,0.46,1.63-0.49,2.56c-1.83,1.82-7.35,6.03-9.86,7.66" /><path d="M59.62,57.98c5.52,4.23,20.09,23.96,28.49,31.15c4.48,3.84,6.75,4.85,9.21,5.58" /></g></g></g></g><g fill="none" stroke="#000" stroke-width="5" stroke-linecap="round" stroke-linejoin="round"><g><g p4:partial xmlns:p4="http://kanjivg.tagaini.net"><path d="M11.6,25.25c0.67,0.37,4.31,0.45,4.99,0.34c3.16-0.5,15.98-2.09,23.56-2.64c1.03-0.07,2.95-0.26,3.8,0.04" stroke-dasharray="32.56" stroke-dashoffset="32.56"><animate id="0" attributeName="stroke-dashoffset" values="32.56;0" dur="0.33s" fill="freeze" begin="0s;7405.click" /></path><path d="M27.55,27.52c0.93,0.88,1.58,2.78,1.58,3.48c0,5.95,0.05,43.62-0.13,47.57" stroke-dasharray="51.46" stroke-dashoffset="51.46"><animate attributeName="stroke-dashoffset" values="51.46" fill="freeze" begin="7405.click" /><animate id="1" attributeName="stroke-dashoffset" values="51.46;0" dur="0.51s" fill="freeze" begin="0.end" /></path><path d="M12.52,52c0.59,0.4,4.75,0.46,5.36,0.37c3.47-0.53,15.28-2.12,20.08-2.69c0.74-0.09,3.44-0.16,4.54,0.19" stroke-dasharray="30.22" stroke-dashoffset="30.22"><animate attributeName="stroke-dashoffset" values="30.22" fill="freeze" begin="7405.click" /><animate id="2" attributeName="stroke-dashoffset" values="30.22;0" dur="0.3s" fill="freeze" begin="1.end" /></path><path d="M11.75,85.25c1.25,1,3.36,1.43,4.24,1c5.61-2.75,19.12-10.25,27.67-15" stroke-dasharray="36" stroke-dashoffset="36"><animate attributeName="stroke-dashoffset" values="36" fill="freeze" begin="7405.click" /><animate id="3" attributeName="stroke-dashoffset" values="36;0" dur="0.36s" fill="freeze" begin="2.end" /></path></g><g><path d="M65.05,10.75c1.19,0.64,1.91,1.6,2.15,2.87c0.24,1.28,0.24,9.19,0.24,12.38" stroke-dasharray="16.1" stroke-dashoffset="16.1"><animate attributeName="stroke-dashoffset" values="16.1" fill="freeze" begin="7405.click" /><animate id="4" attributeName="stroke-dashoffset" values="16.1;0" dur="0.16s" fill="freeze" begin="3.end" /></path><g><path d="M52.38,27.31c2.35-0.12,30.2-3.51,32.34-3.66c1.78-0.12,2.81,1.36,2.79,2.1c-0.12,5.26-2.25,22-3.09,27.39" stroke-dasharray="63.97" stroke-dashoffset="63.97"><animate attributeName="stroke-dashoffset" values="63.97" fill="freeze" begin="7405.click" /><animate id="5" attributeName="stroke-dashoffset" values="63.97;0" dur="0.48s" fill="freeze" begin="4.end" /></path><path d="M53.03,40.52c5.9-0.59,27.55-2.9,33.22-3.37" stroke-dasharray="33.39" stroke-dashoffset="33.39"><animate attributeName="stroke-dashoffset" values="33.39" fill="freeze" begin="7405.click" /><animate id="6" attributeName="stroke-dashoffset" values="33.39;0" dur="0.33s" fill="freeze" begin="5.end" /></path><path d="M53.64,53.09c8.08-0.95,22.19-1.31,30.97-2.21" stroke-dasharray="31.05" stroke-dashoffset="31.05"><animate attributeName="stroke-dashoffset" values="31.05" fill="freeze" begin="7405.click" /><animate id="7" attributeName="stroke-dashoffset" values="31.05;0" dur="0.31s" fill="freeze" begin="6.end" /></path><path d="M50.01,23.96c1.33,0.58,2.13,2.6,2.4,3.75c0.27,1.15,0.56,60.17,0.27,63.04c-0.27,2.6-0.82,7.42,2.03,4.6C58.5,91.6,61.5,89,68.3,83.57" stroke-dasharray="93.15" stroke-dashoffset="93.15"><animate attributeName="stroke-dashoffset" values="93.15" fill="freeze" begin="7405.click" /><animate id="8" attributeName="stroke-dashoffset" values="93.15;0" dur="0.7s" fill="freeze" begin="7.end" /></path><path d="M86.57,59.19c0.28,1.17,0.46,1.63-0.49,2.56c-1.83,1.82-7.35,6.03-9.86,7.66" stroke-dasharray="15.3" stroke-dashoffset="15.3"><animate attributeName="stroke-dashoffset" values="15.3" fill="freeze" begin="7405.click" /><animate id="9" attributeName="stroke-dashoffset" values="15.3;0" dur="0.15s" fill="freeze" begin="8.end" /></path><path d="M59.62,57.98c5.52,4.23,20.09,23.96,28.49,31.15c4.48,3.84,6.75,4.85,9.21,5.58" stroke-dasharray="53.12" stroke-dashoffset="53.12"><animate attributeName="stroke-dashoffset" values="53.12" fill="freeze" begin="7405.click" /><animate id="10" attributeName="stroke-dashoffset" values="53.12;0" dur="0.53s" fill="freeze" begin="9.end" /></path></g></g></g></g></svg>