<svg xmlns="http://www.w3.org/2000/svg" width="109" height="109" viewBox="0 0 109 109" id="7406"><g fill="none" stroke="#666" stroke-width="9" stroke-linecap="round" stroke-linejoin="round"><g><g p4:partial xmlns:p4="http://kanjivg.tagaini.net"><path d="M11.75,27.75c1.87,0.5,3.23,0.52,5.1,0.25c6.9-1,13.82-2.25,19.42-3.25c1.21-0.22,2.49,0,3.73,0" /><path d="M26.25,30.25c1,1,1.75,2.5,1.75,3.75s0,40.25,0,43" /><path d="M15.25,52.09c1.25,0.19,1.98,0.58,4.25,0.19c5.88-1.02,14.39-3.36,16.75-4.09c1-0.31,1.88-0.44,3-0.44" /><path d="M12.75,82.75c1.25,1,3.3,0.91,4.25,0.5c5.75-2.5,17.25-8,22-10.5" /></g><g p4:phon="里" xmlns:p4="http://kanjivg.tagaini.net"><path d="M46,18.5c1.12,1.12,1.78,2.13,2,3.2c1.33,6.47,2.58,18.93,3.5,29.28c0.12,1.32,0.23,2.62,0.34,3.88" /><path d="M48.79,20.78c12.46-2.03,30.96-4.78,39.73-5.5c3.15-0.26,4.73,1.65,4.57,3.26c-0.48,4.81-2.23,18.91-3.61,28.04c-0.31,2.05-0.6,3.86-0.86,5.25" /><path d="M51.2,35.59c6.05-0.84,31.05-3.47,39.14-3.53" /><path d="M52.67,52.28c9.58-0.78,22.08-2.28,35.19-3.02" /><path d="M67.75,20.75c0.88,0.88,1.41,1.99,1.44,3.01c0.3,12.89,0.12,59.3,0.12,63.99" /><path d="M52.15,69.29c1.38,0.39,3.91,0.49,5.3,0.39c9.02-0.67,15.56-1.92,24.52-3.17c2.27-0.32,3.66-0.26,6.03-0.26" /><path d="M40.13,91c1.57,0.54,4.47,0.73,6.04,0.54c16.83-2.05,35.08-4.3,47.45-4.27c2.62,0.01,4.2,0.26,5.51,0.53" /></g></g></g><g fill="none" stroke="#000" stroke-width="5" stroke-linecap="round" stroke-linejoin="round"><g><g p4:partial xmlns:p4="http://kanjivg.tagaini.net"><path d="M11.75,27.75c1.87,0.5,3.23,0.52,5.1,0.25c6.9-1,13.82-2.25,19.42-3.25c1.21-0.22,2.49,0,3.73,0" stroke-dasharray="28.58" stroke-dashoffset="28.58"><animate id="0" attributeName="stroke-dashoffset" values="28.58;0" dur="0.29s" fill="freeze" begin="0s;7406.click" /></path><path d="M26.25,30.25c1,1,1.75,2.5,1.75,3.75s0,40.25,0,43" stroke-dasharray="47.23" stroke-dashoffset="47.23"><animate attributeName="stroke-dashoffset" values="47.23" fill="freeze" begin="7406.click" /><animate id="1" attributeName="stroke-dashoffset" values="47.23;0" dur="0.47s" fill="freeze" begin="0.end" /></path><path d="M15.25,52.09c1.25,0.19,1.98,0.58,4.25,0.19c5.88-1.02,14.39-3.36,16.75-4.09c1-0.31,1.88-0.44,3-0.44" stroke-dasharray="24.58" stroke-dashoffset="24.58"><animate attributeName="stroke-dashoffset" values="24.58" fill="freeze" begin="7406.click" /><animate id="2" attributeName="stroke-dashoffset" values="24.58;0" dur="0.25s" fill="freeze" begin="1.end" /></path><path d="M12.75,82.75c1.25,1,3.3,0.91,4.25,0.5c5.75-2.5,17.25-8,22-10.5" stroke-dasharray="28.83" stroke-dashoffset="28.83"><animate attributeName="stroke-dashoffset" values="28.83" fill="freeze" begin="7406.click" /><animate id="3" attributeName="stroke-dashoffset" values="28.83;0" dur="0.29s" fill="freeze" begin="2.end" /></path></g><g p4:phon="里" xmlns:p4="http://kanjivg.tagaini.net"><path d="M46,18.5c1.12,1.12,1.78,2.13,2,3.2c1.33,6.47,2.58,18.93,3.5,29.28c0.12,1.32,0.23,2.62,0.34,3.88" stroke-dasharray="37.22" stroke-dashoffset="37.22"><animate attributeName="stroke-dashoffset" values="37.22" fill="freeze" begin="7406.click" /><animate id="4" attributeName="stroke-dashoffset" values="37.22;0" dur="0.37s" fill="freeze" begin="3.end" /></path><path d="M48.79,20.78c12.46-2.03,30.96-4.78,39.73-5.5c3.15-0.26,4.73,1.65,4.57,3.26c-0.48,4.81-2.23,18.91-3.61,28.04c-0.31,2.05-0.6,3.86-0.86,5.25" stroke-dasharray="80.11" stroke-dashoffset="80.11"><animate attributeName="stroke-dashoffset" values="80.11" fill="freeze" begin="7406.click" /><animate id="5" attributeName="stroke-dashoffset" values="80.11;0" dur="0.6s" fill="freeze" begin="4.end" /></path><path d="M51.2,35.59c6.05-0.84,31.05-3.47,39.14-3.53" stroke-dasharray="39.31" stroke-dashoffset="39.31"><animate attributeName="stroke-dashoffset" values="39.31" fill="freeze" begin="7406.click" /><animate id="6" attributeName="stroke-dashoffset" values="39.31;0" dur="0.39s" fill="freeze" begin="5.end" /></path><path d="M52.67,52.28c9.58-0.78,22.08-2.28,35.19-3.02" stroke-dasharray="35.32" stroke-dashoffset="35.32"><animate attributeName="stroke-dashoffset" values="35.32" fill="freeze" begin="7406.click" /><animate id="7" attributeName="stroke-dashoffset" values="35.32;0" dur="0.35s" fill="freeze" begin="6.end" /></path><path d="M67.75,20.75c0.88,0.88,1.41,1.99,1.44,3.01c0.3,12.89,0.12,59.3,0.12,63.99" stroke-dasharray="67.41" stroke-dashoffset="67.41"><animate attributeName="stroke-dashoffset" values="67.41" fill="freeze" begin="7406.click" /><animate id="8" attributeName="stroke-dashoffset" values="67.41;0" dur="0.51s" fill="freeze" begin="7.end" /></path><path d="M52.15,69.29c1.38,0.39,3.91,0.49,5.3,0.39c9.02-0.67,15.56-1.92,24.52-3.17c2.27-0.32,3.66-0.26,6.03-0.26" stroke-dasharray="36.11" stroke-dashoffset="36.11"><animate attributeName="stroke-dashoffset" values="36.11" fill="freeze" begin="7406.click" /><animate id="9" attributeName="stroke-dashoffset" values="36.11;0" dur="0.36s" fill="freeze" begin="8.end" /></path><path d="M40.13,91c1.57,0.54,4.47,0.73,6.04,0.54c16.83-2.05,35.08-4.3,47.45-4.27c2.62,0.01,4.2,0.26,5.51,0.53" stroke-dasharray="59.31" stroke-dashoffset="59.31"><animate attributeName="stroke-dashoffset" values="59.31" fill="freeze" begin="7406.click" /><animate id="10" attributeName="stroke-dashoffset" values="59.31;0" dur="0.59s" fill="freeze" begin="9.end" /></path></g></g></g></svg>