<svg xmlns="http://www.w3.org/2000/svg" width="109" height="109" viewBox="0 0 109 109" id="7432"><g fill="none" stroke="#666" stroke-width="6" stroke-linecap="round" stroke-linejoin="round"><g><g p4:partial xmlns:p4="http://kanjivg.tagaini.net"><path d="M10.6,27.25c0.59,0.37,3.78,0.45,4.37,0.34c2.77-0.5,13.5-1.59,20.14-2.14c0.91-0.07,2.58-0.26,3.33,0.04" /><path d="M24.05,27.52c0.93,0.88,1.58,2.78,1.58,3.48c0,5.95,0.05,42.62-0.13,46.57" /><path d="M12.52,53.24c0.44,0.3,3.52,0.34,3.97,0.27c2.57-0.39,11.33-1.57,14.89-2c0.55-0.07,2.55-0.12,3.37,0.14" /><path d="M11.75,84.03c1.08,1.18,3.89,0.7,4.65,0.18c4.83-3.26,11.15-7.59,18.51-13.22" /></g><g><g><path d="M55.76,16.2c0.94,0.47,1.5,2.11,1.69,3.05c0.08,0.4,0.09,13.4,0.06,28.63c-0.04,20.47-0.77,38.36-18.46,48.36" /><path d="M40.3,34.37c1.03,0,2.23,0.24,3.26,0c1.03-0.24,12.59-1.18,13.79-1.91" /><path d="M39.96,50.01c1.29,0.24,2.2,0.5,3.26,0.5c3.53-0.01,11.08-0.67,13.82-1.39" /><path d="M39.25,73.09c1.84,0.95,2.77,0.43,4.34-0.78c0.92-0.71,5.9-4.25,11.34-8.27" /></g><g><path d="M71.89,13c0.75,0.48,1.19,2.17,1.34,3.13c0.15,0.96,0,75.39-0.15,81.4" /><path d="M73.74,32.36c4.19-0.36,15.78-2.01,18.92-2.61c1.15-0.22,1.35-0.12,3.33-0.12" /><path d="M74,49.57c3.63-0.29,13.86-1.65,16.58-2.13c0.99-0.18,1.8-0.1,3.52-0.1" /><path d="M73.41,68.04c4.02-0.36,14.34-1.54,20.11-2.13c1.11-0.11,1.83-0.12,3.73-0.12" /></g></g></g></g><g fill="none" stroke="#000" stroke-width="3" stroke-linecap="round" stroke-linejoin="round"><path d="M10.6,27.25c0.59,0.37,3.78,0.45,4.37,0.34c2.77-0.5,13.5-1.59,20.14-2.14c0.91-0.07,2.58-0.26,3.33,0.04" stroke-dasharray="28.022" stroke-dashoffset="28.022"><animate attributeName="stroke-dashoffset" values="28.022;28.022;0" dur="0.28s" fill="freeze" begin="0s;7432.click" /></path><path d="M24.05,27.52c0.93,0.88,1.58,2.78,1.58,3.48c0,5.95,0.05,42.62-0.13,46.57" stroke-dasharray="50.461" stroke-dashoffset="50.461"><animate attributeName="stroke-dashoffset" values="50.461" fill="freeze" begin="7432.click" /><animate attributeName="stroke-dashoffset" values="50.461;50.461;0" keyTimes="0;0.357;1" dur="0.785s" fill="freeze" begin="0s;7432.click" /></path><path d="M12.52,53.24c0.44,0.3,3.52,0.34,3.97,0.27c2.57-0.39,11.33-1.57,14.89-2c0.55-0.07,2.55-0.12,3.37,0.14" stroke-dasharray="22.413" stroke-dashoffset="22.413"><animate attributeName="stroke-dashoffset" values="22.413" fill="freeze" begin="7432.click" /><animate attributeName="stroke-dashoffset" values="22.413;22.413;0" keyTimes="0;0.778;1" dur="1.009s" fill="freeze" begin="0s;7432.click" /></path><path d="M11.75,84.03c1.08,1.18,3.89,0.7,4.65,0.18c4.83-3.26,11.15-7.59,18.51-13.22" stroke-dasharray="27.673" stroke-dashoffset="27.673"><animate attributeName="stroke-dashoffset" values="27.673" fill="freeze" begin="7432.click" /><animate attributeName="stroke-dashoffset" values="27.673;27.673;0" keyTimes="0;0.785;1" dur="1.286s" fill="freeze" begin="0s;7432.click" /></path><path d="M55.76,16.2c0.94,0.47,1.5,2.11,1.69,3.05c0.08,0.4,0.09,13.4,0.06,28.63c-0.04,20.47-0.77,38.36-18.46,48.36" stroke-dasharray="86.969" stroke-dashoffset="86.969"><animate attributeName="stroke-dashoffset" values="86.969" fill="freeze" begin="7432.click" /><animate attributeName="stroke-dashoffset" values="86.969;86.969;0" keyTimes="0;0.663;1" dur="1.94s" fill="freeze" begin="0s;7432.click" /></path><path d="M40.3,34.37c1.03,0,2.23,0.24,3.26,0c1.03-0.24,12.59-1.18,13.79-1.91" stroke-dasharray="17.215" stroke-dashoffset="17.215"><animate attributeName="stroke-dashoffset" values="17.215" fill="freeze" begin="7432.click" /><animate attributeName="stroke-dashoffset" values="17.215;17.215;0" keyTimes="0;0.919;1" dur="2.112s" fill="freeze" begin="0s;7432.click" /></path><path d="M39.96,50.01c1.29,0.24,2.2,0.5,3.26,0.5c3.53-0.01,11.08-0.67,13.82-1.39" stroke-dasharray="17.215" stroke-dashoffset="17.215"><animate attributeName="stroke-dashoffset" values="17.215" fill="freeze" begin="7432.click" /><animate attributeName="stroke-dashoffset" values="17.215;17.215;0" keyTimes="0;0.925;1" dur="2.284s" fill="freeze" begin="0s;7432.click" /></path><path d="M39.25,73.09c1.84,0.95,2.77,0.43,4.34-0.78c0.92-0.71,5.9-4.25,11.34-8.27" stroke-dasharray="18.809" stroke-dashoffset="18.809"><animate attributeName="stroke-dashoffset" values="18.809" fill="freeze" begin="7432.click" /><animate attributeName="stroke-dashoffset" values="18.809;18.809;0" keyTimes="0;0.924;1" dur="2.472s" fill="freeze" begin="0s;7432.click" /></path><path d="M71.89,13c0.75,0.48,1.19,2.17,1.34,3.13c0.15,0.96,0,75.39-0.15,81.4" stroke-dasharray="84.88" stroke-dashoffset="84.88"><animate attributeName="stroke-dashoffset" values="84.88" fill="freeze" begin="7432.click" /><animate attributeName="stroke-dashoffset" values="84.88;84.88;0" keyTimes="0;0.795;1" dur="3.11s" fill="freeze" begin="0s;7432.click" /></path><path d="M73.74,32.36c4.19-0.36,15.78-2.01,18.92-2.61c1.15-0.22,1.35-0.12,3.33-0.12" stroke-dasharray="22.444" stroke-dashoffset="22.444"><animate attributeName="stroke-dashoffset" values="22.444" fill="freeze" begin="7432.click" /><animate attributeName="stroke-dashoffset" values="22.444;22.444;0" keyTimes="0;0.933;1" dur="3.334s" fill="freeze" begin="0s;7432.click" /></path><path d="M74,49.57c3.63-0.29,13.86-1.65,16.58-2.13c0.99-0.18,1.8-0.1,3.52-0.1" stroke-dasharray="20.247" stroke-dashoffset="20.247"><animate attributeName="stroke-dashoffset" values="20.247" fill="freeze" begin="7432.click" /><animate attributeName="stroke-dashoffset" values="20.247;20.247;0" keyTimes="0;0.943;1" dur="3.536s" fill="freeze" begin="0s;7432.click" /></path><path d="M73.41,68.04c4.02-0.36,14.34-1.54,20.11-2.13c1.11-0.11,1.83-0.12,3.73-0.12" stroke-dasharray="23.957" stroke-dashoffset="23.957"><animate attributeName="stroke-dashoffset" values="23.957" fill="freeze" begin="7432.click" /><animate attributeName="stroke-dashoffset" values="23.957;23.957;0" keyTimes="0;0.936;1" dur="3.776s" fill="freeze" begin="0s;7432.click" /></path></g></svg>