<svg xmlns="http://www.w3.org/2000/svg" width="109" height="109" viewBox="0 0 109 109" id="7433"><g fill="none" stroke="#666" stroke-width="9" stroke-linecap="round" stroke-linejoin="round"><g><g p4:partial xmlns:p4="http://kanjivg.tagaini.net"><path d="M10.36,26.89c1.89,0.61,4.24,0.37,5.78,0.1c3.63-0.63,9.81-2.04,15.36-2.82c1.42-0.2,3.52-0.72,4.94-0.17" /><path d="M22.89,28.55c0.82,0.84,1.39,2.64,1.39,3.32c0,5.67-0.03,40.12-0.03,45.76" /><path d="M10.91,52.35c2.09,0.65,4.65,0.26,6.23-0.03c4.48-0.82,10.11-1.94,14.75-2.95c1.14-0.25,2.6-0.5,4.02-0.3" /><path d="M12.24,83.89c1.38,0.99,2.14,1.25,3.5,0.35c7.13-4.73,12.5-8.2,20.06-13.41" /></g><g><g><path d="M37.25,39.69c2.12,0.31,4.33-0.06,5.89-0.33c4.97-0.86,10.54-2.05,15.67-2.55c1.55-0.15,2.72-0.28,3.69,0" /><path d="M50.25,16c1.06,1.06,1.5,2.38,1.5,4c0,0.86,0,47.42,0,67.75c0,4.09,0,7.12,0,8.5" /><path d="M51.25,39.25c0,0.88-0.31,2.88-0.71,4.38C47.6,54.68,42.3,68.33,35.5,77.25" /><path d="M54.62,50.5c2.88,2,5.98,6,7.62,9.5" /></g><g><path d="M68,36.39c2.12,0.49,3.51,0.36,4.77,0.18c5.6-0.82,11.14-1.63,16.73-2.26c1.33-0.15,2.65-0.26,3.99,0.1" /><path d="M76.25,14.25c1.25,1.25,1.5,2.5,1.5,4c0,0.85,0,46.79,0,67.38c0,4.5,0,7.78,0,9.12" /><path d="M77.5,37.5c0,1.25-0.58,4.36-0.92,5.65c-3.08,11.74-8.84,22.66-16.83,34.6" /><path d="M78.25,38.25c4,14,9.12,24,14.58,33.11c1.11,1.86,2.42,3.77,4.67,5.89" /></g></g></g></g><g fill="none" stroke="#000" stroke-width="5" stroke-linecap="round" stroke-linejoin="round"><g><g p4:partial xmlns:p4="http://kanjivg.tagaini.net"><path d="M10.36,26.89c1.89,0.61,4.24,0.37,5.78,0.1c3.63-0.63,9.81-2.04,15.36-2.82c1.42-0.2,3.52-0.72,4.94-0.17" stroke-dasharray="26.451" stroke-dashoffset="26.451"><animate attributeName="stroke-dashoffset" values="26.451;26.451;0" dur="0.265s" fill="freeze" begin="0s;7433.click" /></path><path d="M22.89,28.55c0.82,0.84,1.39,2.64,1.39,3.32c0,5.67-0.03,40.12-0.03,45.76" stroke-dasharray="49.418" stroke-dashoffset="49.418"><animate attributeName="stroke-dashoffset" values="49.418" fill="freeze" begin="7433.click" /><animate attributeName="stroke-dashoffset" values="49.418;49.418;0" keyTimes="0;0.349;1" dur="0.759s" fill="freeze" begin="0s;7433.click" /></path><path d="M10.91,52.35c2.09,0.65,4.65,0.26,6.23-0.03c4.48-0.82,10.11-1.94,14.75-2.95c1.14-0.25,2.6-0.5,4.02-0.3" stroke-dasharray="25.386" stroke-dashoffset="25.386"><animate attributeName="stroke-dashoffset" values="25.386" fill="freeze" begin="7433.click" /><animate attributeName="stroke-dashoffset" values="25.386;25.386;0" keyTimes="0;0.749;1" dur="1.013s" fill="freeze" begin="0s;7433.click" /></path><path d="M12.24,83.89c1.38,0.99,2.14,1.25,3.5,0.35c7.13-4.73,12.5-8.2,20.06-13.41" stroke-dasharray="27.982" stroke-dashoffset="27.982"><animate attributeName="stroke-dashoffset" values="27.982" fill="freeze" begin="7433.click" /><animate attributeName="stroke-dashoffset" values="27.982;27.982;0" keyTimes="0;0.783;1" dur="1.293s" fill="freeze" begin="0s;7433.click" /></path></g><g><g><path d="M37.25,39.69c2.12,0.31,4.33-0.06,5.89-0.33c4.97-0.86,10.54-2.05,15.67-2.55c1.55-0.15,2.72-0.28,3.69,0" stroke-dasharray="25.518" stroke-dashoffset="25.518"><animate attributeName="stroke-dashoffset" values="25.518" fill="freeze" begin="7433.click" /><animate attributeName="stroke-dashoffset" values="25.518;25.518;0" keyTimes="0;0.835;1" dur="1.548s" fill="freeze" begin="0s;7433.click" /></path><path d="M50.25,16c1.06,1.06,1.5,2.38,1.5,4c0,0.86,0,47.42,0,67.75c0,4.09,0,7.12,0,8.5" stroke-dasharray="80.644" stroke-dashoffset="80.644"><animate attributeName="stroke-dashoffset" values="80.644" fill="freeze" begin="7433.click" /><animate attributeName="stroke-dashoffset" values="80.644;80.644;0" keyTimes="0;0.719;1" dur="2.154s" fill="freeze" begin="0s;7433.click" /></path><path d="M51.25,39.25c0,0.88-0.31,2.88-0.71,4.38C47.6,54.68,42.3,68.33,35.5,77.25" stroke-dasharray="41.485" stroke-dashoffset="41.485"><animate attributeName="stroke-dashoffset" values="41.485" fill="freeze" begin="7433.click" /><animate attributeName="stroke-dashoffset" values="41.485;41.485;0" keyTimes="0;0.838;1" dur="2.569s" fill="freeze" begin="0s;7433.click" /></path><path d="M54.62,50.5c2.88,2,5.98,6,7.62,9.5" stroke-dasharray="12.297" stroke-dashoffset="12.297"><animate attributeName="stroke-dashoffset" values="12.297" fill="freeze" begin="7433.click" /><animate attributeName="stroke-dashoffset" values="12.297;12.297;0" keyTimes="0;0.954;1" dur="2.692s" fill="freeze" begin="0s;7433.click" /></path></g><g><path d="M68,36.39c2.12,0.49,3.51,0.36,4.77,0.18c5.6-0.82,11.14-1.63,16.73-2.26c1.33-0.15,2.65-0.26,3.99,0.1" stroke-dasharray="25.706" stroke-dashoffset="25.706"><animate attributeName="stroke-dashoffset" values="25.706" fill="freeze" begin="7433.click" /><animate attributeName="stroke-dashoffset" values="25.706;25.706;0" keyTimes="0;0.913;1" dur="2.949s" fill="freeze" begin="0s;7433.click" /></path><path d="M76.25,14.25c1.25,1.25,1.5,2.5,1.5,4c0,0.85,0,46.79,0,67.38c0,4.5,0,7.78,0,9.12" stroke-dasharray="80.907" stroke-dashoffset="80.907"><animate attributeName="stroke-dashoffset" values="80.907" fill="freeze" begin="7433.click" /><animate attributeName="stroke-dashoffset" values="80.907;80.907;0" keyTimes="0;0.829;1" dur="3.557s" fill="freeze" begin="0s;7433.click" /></path><path d="M77.5,37.5c0,1.25-0.58,4.36-0.92,5.65c-3.08,11.74-8.84,22.66-16.83,34.6" stroke-dasharray="44.394" stroke-dashoffset="44.394"><animate attributeName="stroke-dashoffset" values="44.394" fill="freeze" begin="7433.click" /><animate attributeName="stroke-dashoffset" values="44.394;44.394;0" keyTimes="0;0.889;1" dur="4.001s" fill="freeze" begin="0s;7433.click" /></path><path d="M78.25,38.25c4,14,9.12,24,14.58,33.11c1.11,1.86,2.42,3.77,4.67,5.89" stroke-dasharray="43.835" stroke-dashoffset="43.835"><animate attributeName="stroke-dashoffset" values="43.835" fill="freeze" begin="7433.click" /><animate attributeName="stroke-dashoffset" values="43.835;43.835;0" keyTimes="0;0.901;1" dur="4.439s" fill="freeze" begin="0s;7433.click" /></path></g></g></g></g></svg>