<svg xmlns="http://www.w3.org/2000/svg" viewBox="0 0 109 109" id="7436"><g fill="none" stroke="#666" stroke-width="6" stroke-linecap="round" stroke-linejoin="round"><g><g><g p5:partial xmlns:p5="http://kanjivg.tagaini.net"><path d="M19.25,18.14c0.6,0.28,3.86,0.34,4.47,0.26c2.83-0.38,14.33-1.6,21.12-2.01c0.93-0.06,2.64-0.2,3.41,0.03" /><path d="M31.34,18.43c1.09,0.61,1.85,1.93,1.85,2.42c0,4.13-0.07,16.4-0.07,20.86" /><path d="M18,30.98c0.55,0.22,4.45,0.26,5.01,0.21c3.25-0.29,14.24-2.01,18.73-2.33c0.69-0.05,3.22-0.09,4.25,0.11" /><path d="M15.25,46.35c1.25,0.65,2.5,0.9,4.36,0.43c5.85-1.49,13.56-4.19,22.39-7.13" /></g><g p5:partial xmlns:p5="http://kanjivg.tagaini.net"><path d="M56.91,15.75c0.64,0.45,3.71,0.6,4.37,0.53c4.72-0.53,17.51-1.87,24.75-2.34c0.99-0.06,1.88,0.09,2.7,0.47" /><path d="M70.77,17.21c1.14,1.84,1.14,2.94,1.14,4.41c0,10.29-0.07,5.07-0.07,17.87" /><path d="M58.29,27.61c0.63,0.5,2.72,0.23,3.37,0.22c5.84-0.08,13.14-1.21,21.06-2.1c0.79-0.09,2.53-0.2,3.71,0.23" /><path d="M54.44,40.14c0.44,0.15,2.72,0.29,3.46,0.24c8.89-0.59,20.77-1.71,31.87-2.18c1.87-0.08,1.7-0.07,2.98,0" /></g></g><g><g><path d="M30.12,54.07c15.95-1.9,39.01-3.15,48.85-3.83c3.59-0.25,4.43,2.27,4.22,3.8c-0.81,5.8-1.98,10.71-3.6,14.97" /><path d="M53.66,52.67c0.78,0.38,1.55,2.85,1.55,3.62c0,4.82-0.26,8.47-0.26,11.39" /></g><g><path d="M31.43,69.6c5.36-0.43,41.51-2.13,47.64-2.56" /><path d="M28.5,51.7c0.85,1.15,1.52,2.51,1.57,4.29c0.23,7.93-0.43,14.66-0.43,20.01c0,18.33-0.77,19,32.15,19c37.1,0,30.03-8.03,30.32-11.42" /></g></g></g></g><g fill="none" stroke="#000" stroke-width="3" stroke-linecap="round" stroke-linejoin="round"><path d="M19.25,18.14c0.6,0.28,3.86,0.34,4.47,0.26c2.83-0.38,14.33-1.6,21.12-2.01c0.93-0.06,2.64-0.2,3.41,0.03" stroke-dasharray="29.136" stroke-dashoffset="29.136"><animate attributeName="stroke-dashoffset" values="29.136;29.136;0" dur="0.291s" fill="freeze" begin="0s;7436.click" /></path><path d="M31.34,18.43c1.09,0.61,1.85,1.93,1.85,2.42c0,4.13-0.07,16.4-0.07,20.86" stroke-dasharray="23.996" stroke-dashoffset="23.996"><animate attributeName="stroke-dashoffset" values="23.996" fill="freeze" begin="7436.click" /><animate attributeName="stroke-dashoffset" values="23.996;23.996;0" keyTimes="0;0.548;1" dur="0.531s" fill="freeze" begin="0s;7436.click" /></path><path d="M18,30.98c0.55,0.22,4.45,0.26,5.01,0.21c3.25-0.29,14.24-2.01,18.73-2.33c0.69-0.05,3.22-0.09,4.25,0.11" stroke-dasharray="28.159" stroke-dashoffset="28.159"><animate attributeName="stroke-dashoffset" values="28.159" fill="freeze" begin="7436.click" /><animate attributeName="stroke-dashoffset" values="28.159;28.159;0" keyTimes="0;0.653;1" dur="0.813s" fill="freeze" begin="0s;7436.click" /></path><path d="M15.25,46.35c1.25,0.65,2.5,0.9,4.36,0.43c5.85-1.49,13.56-4.19,22.39-7.13" stroke-dasharray="27.998" stroke-dashoffset="27.998"><animate attributeName="stroke-dashoffset" values="27.998" fill="freeze" begin="7436.click" /><animate attributeName="stroke-dashoffset" values="27.998;27.998;0" keyTimes="0;0.744;1" dur="1.093s" fill="freeze" begin="0s;7436.click" /></path><path d="M56.91,15.75c0.64,0.45,3.71,0.6,4.37,0.53c4.72-0.53,17.51-1.87,24.75-2.34c0.99-0.06,1.88,0.09,2.7,0.47" stroke-dasharray="32.069" stroke-dashoffset="32.069"><animate attributeName="stroke-dashoffset" values="32.069" fill="freeze" begin="7436.click" /><animate attributeName="stroke-dashoffset" values="32.069;32.069;0" keyTimes="0;0.773;1" dur="1.414s" fill="freeze" begin="0s;7436.click" /></path><path d="M70.77,17.21c1.14,1.84,1.14,2.94,1.14,4.41c0,10.29-0.07,5.07-0.07,17.87" stroke-dasharray="22.507" stroke-dashoffset="22.507"><animate attributeName="stroke-dashoffset" values="22.507" fill="freeze" begin="7436.click" /><animate attributeName="stroke-dashoffset" values="22.507;22.507;0" keyTimes="0;0.863;1" dur="1.639s" fill="freeze" begin="0s;7436.click" /></path><path d="M58.29,27.61c0.63,0.5,2.72,0.23,3.37,0.22c5.84-0.08,13.14-1.21,21.06-2.1c0.79-0.09,2.53-0.2,3.71,0.23" stroke-dasharray="28.344" stroke-dashoffset="28.344"><animate attributeName="stroke-dashoffset" values="28.344" fill="freeze" begin="7436.click" /><animate attributeName="stroke-dashoffset" values="28.344;28.344;0" keyTimes="0;0.853;1" dur="1.922s" fill="freeze" begin="0s;7436.click" /></path><path d="M54.44,40.14c0.44,0.15,2.72,0.29,3.46,0.24c8.89-0.59,20.77-1.71,31.87-2.18c1.87-0.08,1.7-0.07,2.98,0" stroke-dasharray="38.405" stroke-dashoffset="38.405"><animate attributeName="stroke-dashoffset" values="38.405" fill="freeze" begin="7436.click" /><animate attributeName="stroke-dashoffset" values="38.405;38.405;0" keyTimes="0;0.833;1" dur="2.306s" fill="freeze" begin="0s;7436.click" /></path><path d="M30.12,54.07c15.95-1.9,39.01-3.15,48.85-3.83c3.59-0.25,4.43,2.27,4.22,3.8c-0.81,5.8-1.98,10.71-3.6,14.97" stroke-dasharray="71.063" stroke-dashoffset="71.063"><animate attributeName="stroke-dashoffset" values="71.063" fill="freeze" begin="7436.click" /><animate attributeName="stroke-dashoffset" values="71.063;71.063;0" keyTimes="0;0.812;1" dur="2.84s" fill="freeze" begin="0s;7436.click" /></path><path d="M53.66,52.67c0.78,0.38,1.55,2.85,1.55,3.62c0,4.82-0.26,8.47-0.26,11.39" stroke-dasharray="15.428" stroke-dashoffset="15.428"><animate attributeName="stroke-dashoffset" values="15.428" fill="freeze" begin="7436.click" /><animate attributeName="stroke-dashoffset" values="15.428;15.428;0" keyTimes="0;0.949;1" dur="2.994s" fill="freeze" begin="0s;7436.click" /></path><path d="M31.43,69.6c5.36-0.43,41.51-2.13,47.64-2.56" stroke-dasharray="47.71" stroke-dashoffset="47.71"><animate attributeName="stroke-dashoffset" values="47.71" fill="freeze" begin="7436.click" /><animate attributeName="stroke-dashoffset" values="47.71;47.71;0" keyTimes="0;0.863;1" dur="3.471s" fill="freeze" begin="0s;7436.click" /></path><path d="M28.5,51.7c0.85,1.15,1.52,2.51,1.57,4.29c0.23,7.93-0.43,14.66-0.43,20.01c0,18.33-0.77,19,32.15,19c37.1,0,30.03-8.03,30.32-11.42" stroke-dasharray="108.18" stroke-dashoffset="108.18"><animate attributeName="stroke-dashoffset" values="108.18" fill="freeze" begin="7436.click" /><animate attributeName="stroke-dashoffset" values="108.18;108.18;0" keyTimes="0;0.81;1" dur="4.284s" fill="freeze" begin="0s;7436.click" /></path></g></svg>