<svg xmlns="http://www.w3.org/2000/svg" width="109" height="109" viewBox="0 0 109 109" id="743a"><g fill="none" stroke="#666" stroke-width="9" stroke-linecap="round" stroke-linejoin="round"><g><g p4:partial xmlns:p4="http://kanjivg.tagaini.net"><path d="M12.1,24.75c0.61,0.37,3.91,0.45,4.52,0.34c2.86-0.5,12.5-1.59,19.37-2.14c0.94-0.07,2.67-0.26,3.45,0.04" /><path d="M24.05,26.52c0.93,0.88,1.58,2.78,1.58,3.48c0,5.95,0.05,43.12-0.13,47.07" /><path d="M11.93,51.5c0.54,0.4,4.31,0.46,4.86,0.37c3.15-0.53,13.86-2.12,18.22-2.69c0.67-0.09,3.12-0.16,4.12,0.19" /><path d="M10.74,84.01c1.76,0.99,3.61,0.72,4.43,0.21c5.19-3.31,12.57-7.74,20.49-13.47" /></g><g><g><path d="M44.99,15c3.23,1.78,8.34,7.32,9.15,10.09" /><path d="M40.93,39.25c3.48,1.72,8.99,7.07,9.87,9.75" /><path d="M36.62,89.44c1.63,0.81,3.16,0.38,4.06-1.26c2.63-4.77,8.26-16.1,10.65-22.19" /></g><g><g><path d="M59.33,33.48c0.96,0.38,2.71,0.42,3.68,0.38c8.42-0.37,15.13-1.74,27.78-2.31c1.6-0.07,2.56,0.18,3.36,0.37" /><path d="M73.09,13.75c0.09,0.29,1.21,1.51,1.29,3.35c0.42,8.84,0.1,32.23,0.1,35.24" /><path d="M55.66,54.67c1.11,0.54,3.15,0.67,4.26,0.54C70.2,54,88.18,52.25,95.36,52.06c1.85-0.05,2.96,0.25,3.89,0.52" /></g><g><path d="M73.8,56.32c0.29,1.21,0.15,2.93-0.25,3.63c-5.8,10.05-8.3,14.8-15.89,26.29c-1.88,2.85-1.71,5.17,1.54,4.06c8.89-3.05,18.29-4.74,30.92-8.37" /><path d="M82.7,70.32c4.45,4.44,11.5,18.25,12.61,25.15" /></g></g></g></g></g><g fill="none" stroke="#000" stroke-width="5" stroke-linecap="round" stroke-linejoin="round"><g><g p4:partial xmlns:p4="http://kanjivg.tagaini.net"><path d="M12.1,24.75c0.61,0.37,3.91,0.45,4.52,0.34c2.86-0.5,12.5-1.59,19.37-2.14c0.94-0.07,2.67-0.26,3.45,0.04" stroke-dasharray="27.52" stroke-dashoffset="27.52"><animate id="0" attributeName="stroke-dashoffset" values="27.52;0" dur="0.28s" fill="freeze" begin="0s;743a.click" /></path><path d="M24.05,26.52c0.93,0.88,1.58,2.78,1.58,3.48c0,5.95,0.05,43.12-0.13,47.07" stroke-dasharray="50.96" stroke-dashoffset="50.96"><animate attributeName="stroke-dashoffset" values="50.96" fill="freeze" begin="743a.click" /><animate id="1" attributeName="stroke-dashoffset" values="50.96;0" dur="0.51s" fill="freeze" begin="0.end" /></path><path d="M11.93,51.5c0.54,0.4,4.31,0.46,4.86,0.37c3.15-0.53,13.86-2.12,18.22-2.69c0.67-0.09,3.12-0.16,4.12,0.19" stroke-dasharray="27.47" stroke-dashoffset="27.47"><animate attributeName="stroke-dashoffset" values="27.47" fill="freeze" begin="743a.click" /><animate id="2" attributeName="stroke-dashoffset" values="27.47;0" dur="0.27s" fill="freeze" begin="1.end" /></path><path d="M10.74,84.01c1.76,0.99,3.61,0.72,4.43,0.21c5.19-3.31,12.57-7.74,20.49-13.47" stroke-dasharray="29.15" stroke-dashoffset="29.15"><animate attributeName="stroke-dashoffset" values="29.15" fill="freeze" begin="743a.click" /><animate id="3" attributeName="stroke-dashoffset" values="29.15;0" dur="0.29s" fill="freeze" begin="2.end" /></path></g><g><g><path d="M44.99,15c3.23,1.78,8.34,7.32,9.15,10.09" stroke-dasharray="13.82" stroke-dashoffset="13.82"><animate attributeName="stroke-dashoffset" values="13.82" fill="freeze" begin="743a.click" /><animate id="4" attributeName="stroke-dashoffset" values="13.82;0" dur="0.14s" fill="freeze" begin="3.end" /></path><path d="M40.93,39.25c3.48,1.72,8.99,7.07,9.87,9.75" stroke-dasharray="14.07" stroke-dashoffset="14.07"><animate attributeName="stroke-dashoffset" values="14.07" fill="freeze" begin="743a.click" /><animate id="5" attributeName="stroke-dashoffset" values="14.07;0" dur="0.14s" fill="freeze" begin="4.end" /></path><path d="M36.62,89.44c1.63,0.81,3.16,0.38,4.06-1.26c2.63-4.77,8.26-16.1,10.65-22.19" stroke-dasharray="29.41" stroke-dashoffset="29.41"><animate attributeName="stroke-dashoffset" values="29.41" fill="freeze" begin="743a.click" /><animate id="6" attributeName="stroke-dashoffset" values="29.41;0" dur="0.29s" fill="freeze" begin="5.end" /></path></g><g><g><path d="M59.33,33.48c0.96,0.38,2.71,0.42,3.68,0.38c8.42-0.37,15.13-1.74,27.78-2.31c1.6-0.07,2.56,0.18,3.36,0.37" stroke-dasharray="35" stroke-dashoffset="35"><animate attributeName="stroke-dashoffset" values="35" fill="freeze" begin="743a.click" /><animate id="7" attributeName="stroke-dashoffset" values="35;0" dur="0.35s" fill="freeze" begin="6.end" /></path><path d="M73.09,13.75c0.09,0.29,1.21,1.51,1.29,3.35c0.42,8.84,0.1,32.23,0.1,35.24" stroke-dasharray="38.88" stroke-dashoffset="38.88"><animate attributeName="stroke-dashoffset" values="38.88" fill="freeze" begin="743a.click" /><animate id="8" attributeName="stroke-dashoffset" values="38.88;0" dur="0.39s" fill="freeze" begin="7.end" /></path><path d="M55.66,54.67c1.11,0.54,3.15,0.67,4.26,0.54C70.2,54,88.18,52.25,95.36,52.06c1.85-0.05,2.96,0.25,3.89,0.52" stroke-dasharray="43.87" stroke-dashoffset="43.87"><animate attributeName="stroke-dashoffset" values="43.87" fill="freeze" begin="743a.click" /><animate id="9" attributeName="stroke-dashoffset" values="43.87;0" dur="0.44s" fill="freeze" begin="8.end" /></path></g><g><path d="M73.8,56.32c0.29,1.21,0.15,2.93-0.25,3.63c-5.8,10.05-8.3,14.8-15.89,26.29c-1.88,2.85-1.71,5.17,1.54,4.06c8.89-3.05,18.29-4.74,30.92-8.37" stroke-dasharray="73.36" stroke-dashoffset="73.36"><animate attributeName="stroke-dashoffset" values="73.36" fill="freeze" begin="743a.click" /><animate id="10" attributeName="stroke-dashoffset" values="73.36;0" dur="0.55s" fill="freeze" begin="9.end" /></path><path d="M82.7,70.32c4.45,4.44,11.5,18.25,12.61,25.15" stroke-dasharray="28.39" stroke-dashoffset="28.39"><animate attributeName="stroke-dashoffset" values="28.39" fill="freeze" begin="743a.click" /><animate id="11" attributeName="stroke-dashoffset" values="28.39;0" dur="0.28s" fill="freeze" begin="10.end" /></path></g></g></g></g></g></svg>