<svg xmlns="http://www.w3.org/2000/svg" width="109" height="109" viewBox="0 0 109 109" id="743f"><g fill="none" stroke="#666" stroke-width="9" stroke-linecap="round" stroke-linejoin="round"><g><g p4:partial xmlns:p4="http://kanjivg.tagaini.net"><path d="M11.1,23.25c0.67,0.37,4.31,0.45,4.99,0.34c3.16-0.5,13.48-1.59,21.06-2.14c1.03-0.07,2.95-0.26,3.8,0.04" /><path d="M24.55,25.52c0.93,0.88,1.58,2.78,1.58,3.48c0,5.95,0.05,46.62-0.13,50.57" /><path d="M10.52,51.5c0.59,0.4,4.75,0.46,5.36,0.37c3.47-0.53,14.78-1.62,19.58-2.19c0.74-0.09,3.44-0.16,4.54,0.19" /><path d="M12,85.46c1.75,0.54,4.27,0.79,5.12,0.25c5.45-3.43,12.73-8.04,21.04-13.96" /></g><g><g><path d="M47.03,17.96c-0.11,3.19-2.7,11.54-3.62,13.44" /><path d="M47.17,19.23c6.17-0.7,31.57-4.73,43.78-5.28c9.28-0.42,1.44,7.44,0.3,8.62" /></g><g><path d="M51.62,33.39c0.84,0.37,2.38,0.45,3.22,0.37c8.12-0.81,19.8-2.27,29.28-2.74c1.4-0.07,2.24,0.17,2.94,0.36" /><path d="M49.23,43.35c0.58,0.47,1.32,1.82,1.43,2.44c0.87,4.93,2.3,14.94,3.34,22.92" /><path d="M51.46,44.69c8.83-0.94,28.21-3.23,34.23-3.38c2.49-0.06,3,1.29,2.9,2.76c-0.37,5.06-0.77,13.89-2.74,22.19" /><path d="M52.54,55.17c6.66-0.23,22.56-2.48,35.1-2.48" /><path d="M54.04,66.3c7.74-0.93,22.23-2.21,32.3-2.21" /><path d="M42.18,77.64c1.43,0.64,4.03,0.74,5.48,0.64c24.13-1.66,23.03-2.62,46.92-3.37c2.38-0.07,3.81,0.31,5,0.63" /><path d="M67.17,22.05c0.54,0.57,1.79,2.95,1.79,5.45c0,1.15-0.07,66.46-0.18,73.64" /></g></g></g></g><g fill="none" stroke="#000" stroke-width="5" stroke-linecap="round" stroke-linejoin="round"><g><g p4:partial xmlns:p4="http://kanjivg.tagaini.net"><path d="M11.1,23.25c0.67,0.37,4.31,0.45,4.99,0.34c3.16-0.5,13.48-1.59,21.06-2.14c1.03-0.07,2.95-0.26,3.8,0.04" stroke-dasharray="30.02" stroke-dashoffset="30.02"><animate id="0" attributeName="stroke-dashoffset" values="30.02;0" dur="0.3s" fill="freeze" begin="0s;743f.click" /></path><path d="M24.55,25.52c0.93,0.88,1.58,2.78,1.58,3.48c0,5.95,0.05,46.62-0.13,50.57" stroke-dasharray="54.46" stroke-dashoffset="54.46"><animate attributeName="stroke-dashoffset" values="54.46" fill="freeze" begin="743f.click" /><animate id="1" attributeName="stroke-dashoffset" values="54.46;0" dur="0.54s" fill="freeze" begin="0.end" /></path><path d="M10.52,51.5c0.59,0.4,4.75,0.46,5.36,0.37c3.47-0.53,14.78-1.62,19.58-2.19c0.74-0.09,3.44-0.16,4.54,0.19" stroke-dasharray="29.67" stroke-dashoffset="29.67"><animate attributeName="stroke-dashoffset" values="29.67" fill="freeze" begin="743f.click" /><animate id="2" attributeName="stroke-dashoffset" values="29.67;0" dur="0.3s" fill="freeze" begin="1.end" /></path><path d="M12,85.46c1.75,0.54,4.27,0.79,5.12,0.25c5.45-3.43,12.73-8.04,21.04-13.96" stroke-dasharray="30.47" stroke-dashoffset="30.47"><animate attributeName="stroke-dashoffset" values="30.47" fill="freeze" begin="743f.click" /><animate id="3" attributeName="stroke-dashoffset" values="30.47;0" dur="0.3s" fill="freeze" begin="2.end" /></path></g><g><g><path d="M47.03,17.96c-0.11,3.19-2.7,11.54-3.62,13.44" stroke-dasharray="13.96" stroke-dashoffset="13.96"><animate attributeName="stroke-dashoffset" values="13.96" fill="freeze" begin="743f.click" /><animate id="4" attributeName="stroke-dashoffset" values="13.96;0" dur="0.14s" fill="freeze" begin="3.end" /></path><path d="M47.17,19.23c6.17-0.7,31.57-4.73,43.78-5.28c9.28-0.42,1.44,7.44,0.3,8.62" stroke-dasharray="57.55" stroke-dashoffset="57.55"><animate attributeName="stroke-dashoffset" values="57.55" fill="freeze" begin="743f.click" /><animate id="5" attributeName="stroke-dashoffset" values="57.55;0" dur="0.58s" fill="freeze" begin="4.end" /></path></g><g><path d="M51.62,33.39c0.84,0.37,2.38,0.45,3.22,0.37c8.12-0.81,19.8-2.27,29.28-2.74c1.4-0.07,2.24,0.17,2.94,0.36" stroke-dasharray="35.66" stroke-dashoffset="35.66"><animate attributeName="stroke-dashoffset" values="35.66" fill="freeze" begin="743f.click" /><animate id="6" attributeName="stroke-dashoffset" values="35.66;0" dur="0.36s" fill="freeze" begin="5.end" /></path><path d="M49.23,43.35c0.58,0.47,1.32,1.82,1.43,2.44c0.87,4.93,2.3,14.94,3.34,22.92" stroke-dasharray="26.03" stroke-dashoffset="26.03"><animate attributeName="stroke-dashoffset" values="26.03" fill="freeze" begin="743f.click" /><animate id="7" attributeName="stroke-dashoffset" values="26.03;0" dur="0.26s" fill="freeze" begin="6.end" /></path><path d="M51.46,44.69c8.83-0.94,28.21-3.23,34.23-3.38c2.49-0.06,3,1.29,2.9,2.76c-0.37,5.06-0.77,13.89-2.74,22.19" stroke-dasharray="61.49" stroke-dashoffset="61.49"><animate attributeName="stroke-dashoffset" values="61.49" fill="freeze" begin="743f.click" /><animate id="8" attributeName="stroke-dashoffset" values="61.49;0" dur="0.46s" fill="freeze" begin="7.end" /></path><path d="M52.54,55.17c6.66-0.23,22.56-2.48,35.1-2.48" stroke-dasharray="35.2" stroke-dashoffset="35.2"><animate attributeName="stroke-dashoffset" values="35.2" fill="freeze" begin="743f.click" /><animate id="9" attributeName="stroke-dashoffset" values="35.2;0" dur="0.35s" fill="freeze" begin="8.end" /></path><path d="M54.04,66.3c7.74-0.93,22.23-2.21,32.3-2.21" stroke-dasharray="32.39" stroke-dashoffset="32.39"><animate attributeName="stroke-dashoffset" values="32.39" fill="freeze" begin="743f.click" /><animate id="10" attributeName="stroke-dashoffset" values="32.39;0" dur="0.32s" fill="freeze" begin="9.end" /></path><path d="M42.18,77.64c1.43,0.64,4.03,0.74,5.48,0.64c24.13-1.66,23.03-2.62,46.92-3.37c2.38-0.07,3.81,0.31,5,0.63" stroke-dasharray="57.67" stroke-dashoffset="57.67"><animate attributeName="stroke-dashoffset" values="57.67" fill="freeze" begin="743f.click" /><animate id="11" attributeName="stroke-dashoffset" values="57.67;0" dur="0.58s" fill="freeze" begin="10.end" /></path><path d="M67.17,22.05c0.54,0.57,1.79,2.95,1.79,5.45c0,1.15-0.07,66.46-0.18,73.64" stroke-dasharray="79.47" stroke-dashoffset="79.47"><animate attributeName="stroke-dashoffset" values="79.47" fill="freeze" begin="743f.click" /><animate id="12" attributeName="stroke-dashoffset" values="79.47;0" dur="0.6s" fill="freeze" begin="11.end" /></path></g></g></g></g></svg>