<svg xmlns="http://www.w3.org/2000/svg" width="109" height="109" viewBox="0 0 109 109" id="7441"><g fill="none" stroke="#666" stroke-width="9" stroke-linecap="round" stroke-linejoin="round"><g><g p4:partial xmlns:p4="http://kanjivg.tagaini.net"><path d="M12.1,25.25c0.67,0.37,4.31,0.45,4.99,0.34c3.16-0.5,14.48-2.09,22.06-2.64c1.03-0.07,2.95-0.26,3.8,0.04" /><path d="M27.05,27.52c0.93,0.88,1.58,2.78,1.58,3.48c0,5.95,0.05,44.62-0.13,48.57" /><path d="M13.52,52c0.59,0.4,4.75,0.46,5.36,0.37c3.47-0.53,15.28-2.62,20.08-3.19c0.74-0.09,3.44-0.16,4.54,0.19" /><path d="M13.75,85.25c1.25,1,3.86,0.93,4.74,0.5c5.61-2.75,14.12-7.25,22.67-12" /></g><g><g><path d="M47.07,16.03c0.35,0.43,0.76,1.19,0.96,1.73c1.57,4.44,3.14,16.56,4.11,24.84" /><path d="M48.67,17.57c11.39-1.14,31.73-2.07,40.23-3.02c3.12-0.35,3.96,1.84,3.8,3.09c-0.59,4.56-1.92,15.5-3.35,23.11" /><g><g><path d="M56.52,27c0.59,0.4,4.75,0.46,5.36,0.37c3.47-0.53,12.28-1.12,17.08-1.69c0.74-0.09,3.44-0.16,4.54,0.19" /></g><g><path d="M57.77,39.5c0.56,0.4,4.53,0.46,5.11,0.37c3.31-0.53,11.71-1.12,16.29-1.69c0.71-0.09,3.28-0.16,4.33,0.19" /></g></g></g><g><path d="M54.79,49.15c0.71,1.01,1.24,2.73,1.24,4.07c0,1.35-0.48,43.43-0.48,44.1" /><path d="M55.68,50.94c2.7-0.17,25.91-2.59,28.37-2.79c2.05-0.17,3.49,0.94,3.49,4.13c0,4.83-0.49,28.99-0.48,43.78" /><path d="M56.24,63.65c5.32-0.23,26.51-2.6,30.84-2.6" /><path d="M56.11,78.22c7.15-0.56,24.21-1.49,31.15-1.49" /><path d="M56.08,93.81c6.14-0.3,23.95-1.98,30.9-1.98" /></g></g></g></g><g fill="none" stroke="#000" stroke-width="5" stroke-linecap="round" stroke-linejoin="round"><g><g p4:partial xmlns:p4="http://kanjivg.tagaini.net"><path d="M12.1,25.25c0.67,0.37,4.31,0.45,4.99,0.34c3.16-0.5,14.48-2.09,22.06-2.64c1.03-0.07,2.95-0.26,3.8,0.04" stroke-dasharray="31.07" stroke-dashoffset="31.07"><animate id="0" attributeName="stroke-dashoffset" values="31.07;0" dur="0.31s" fill="freeze" begin="0s;7441.click" /></path><path d="M27.05,27.52c0.93,0.88,1.58,2.78,1.58,3.48c0,5.95,0.05,44.62-0.13,48.57" stroke-dasharray="52.46" stroke-dashoffset="52.46"><animate attributeName="stroke-dashoffset" values="52.46" fill="freeze" begin="7441.click" /><animate id="1" attributeName="stroke-dashoffset" values="52.46;0" dur="0.52s" fill="freeze" begin="0.end" /></path><path d="M13.52,52c0.59,0.4,4.75,0.46,5.36,0.37c3.47-0.53,15.28-2.62,20.08-3.19c0.74-0.09,3.44-0.16,4.54,0.19" stroke-dasharray="30.3" stroke-dashoffset="30.3"><animate attributeName="stroke-dashoffset" values="30.3" fill="freeze" begin="7441.click" /><animate id="2" attributeName="stroke-dashoffset" values="30.3;0" dur="0.3s" fill="freeze" begin="1.end" /></path><path d="M13.75,85.25c1.25,1,3.86,0.93,4.74,0.5c5.61-2.75,14.12-7.25,22.67-12" stroke-dasharray="30.59" stroke-dashoffset="30.59"><animate attributeName="stroke-dashoffset" values="30.59" fill="freeze" begin="7441.click" /><animate id="3" attributeName="stroke-dashoffset" values="30.59;0" dur="0.31s" fill="freeze" begin="2.end" /></path></g><g><g><path d="M47.07,16.03c0.35,0.43,0.76,1.19,0.96,1.73c1.57,4.44,3.14,16.56,4.11,24.84" stroke-dasharray="27.19" stroke-dashoffset="27.19"><animate attributeName="stroke-dashoffset" values="27.19" fill="freeze" begin="7441.click" /><animate id="4" attributeName="stroke-dashoffset" values="27.19;0" dur="0.27s" fill="freeze" begin="3.end" /></path><path d="M48.67,17.57c11.39-1.14,31.73-2.07,40.23-3.02c3.12-0.35,3.96,1.84,3.8,3.09c-0.59,4.56-1.92,15.5-3.35,23.11" stroke-dasharray="69.42" stroke-dashoffset="69.42"><animate attributeName="stroke-dashoffset" values="69.42" fill="freeze" begin="7441.click" /><animate id="5" attributeName="stroke-dashoffset" values="69.42;0" dur="0.52s" fill="freeze" begin="4.end" /></path><g><g><path d="M56.52,27c0.59,0.4,4.75,0.46,5.36,0.37c3.47-0.53,12.28-1.12,17.08-1.69c0.74-0.09,3.44-0.16,4.54,0.19" stroke-dasharray="27.13" stroke-dashoffset="27.13"><animate attributeName="stroke-dashoffset" values="27.13" fill="freeze" begin="7441.click" /><animate id="6" attributeName="stroke-dashoffset" values="27.13;0" dur="0.27s" fill="freeze" begin="5.end" /></path></g><g><path d="M57.77,39.5c0.56,0.4,4.53,0.46,5.11,0.37c3.31-0.53,11.71-1.12,16.29-1.69c0.71-0.09,3.28-0.16,4.33,0.19" stroke-dasharray="25.89" stroke-dashoffset="25.89"><animate attributeName="stroke-dashoffset" values="25.89" fill="freeze" begin="7441.click" /><animate id="7" attributeName="stroke-dashoffset" values="25.89;0" dur="0.26s" fill="freeze" begin="6.end" /></path></g></g></g><g><path d="M54.79,49.15c0.71,1.01,1.24,2.73,1.24,4.07c0,1.35-0.48,43.43-0.48,44.1" stroke-dasharray="48.41" stroke-dashoffset="48.41"><animate attributeName="stroke-dashoffset" values="48.41" fill="freeze" begin="7441.click" /><animate id="8" attributeName="stroke-dashoffset" values="48.41;0" dur="0.48s" fill="freeze" begin="7.end" /></path><path d="M55.68,50.94c2.7-0.17,25.91-2.59,28.37-2.79c2.05-0.17,3.49,0.94,3.49,4.13c0,4.83-0.49,28.99-0.48,43.78" stroke-dasharray="78.57" stroke-dashoffset="78.57"><animate attributeName="stroke-dashoffset" values="78.57" fill="freeze" begin="7441.click" /><animate id="9" attributeName="stroke-dashoffset" values="78.57;0" dur="0.59s" fill="freeze" begin="8.end" /></path><path d="M56.24,63.65c5.32-0.23,26.51-2.6,30.84-2.6" stroke-dasharray="30.95" stroke-dashoffset="30.95"><animate attributeName="stroke-dashoffset" values="30.95" fill="freeze" begin="7441.click" /><animate id="10" attributeName="stroke-dashoffset" values="30.95;0" dur="0.31s" fill="freeze" begin="9.end" /></path><path d="M56.11,78.22c7.15-0.56,24.21-1.49,31.15-1.49" stroke-dasharray="31.19" stroke-dashoffset="31.19"><animate attributeName="stroke-dashoffset" values="31.19" fill="freeze" begin="7441.click" /><animate id="11" attributeName="stroke-dashoffset" values="31.19;0" dur="0.31s" fill="freeze" begin="10.end" /></path><path d="M56.08,93.81c6.14-0.3,23.95-1.98,30.9-1.98" stroke-dasharray="30.97" stroke-dashoffset="30.97"><animate attributeName="stroke-dashoffset" values="30.97" fill="freeze" begin="7441.click" /><animate id="12" attributeName="stroke-dashoffset" values="30.97;0" dur="0.31s" fill="freeze" begin="11.end" /></path></g></g></g></g></svg>