<svg xmlns="http://www.w3.org/2000/svg" width="109" height="109" viewBox="0 0 109 109" id="745a"><g fill="none" stroke="#666" stroke-width="9" stroke-linecap="round" stroke-linejoin="round"><g><g p4:partial xmlns:p4="http://kanjivg.tagaini.net"><path d="M10.75,25.25c1.88,0.62,3.94,0.36,5.39,0.14c3.72-0.56,12.42-1.57,18.11-2.09c1.39-0.13,3.42-0.62,4.75-0.05" /><path d="M24.57,27.02c1.02,1.02,1.23,2.36,1.23,4.23c0,5.95-0.05,35.3-0.05,42.75" /><path d="M11,50.5c1.88,0.62,3.83,0.56,5.01,0.37c3.25-0.53,13.74-2.62,18.23-3.19c0.69-0.09,1.88-0.3,3-0.06" /><path d="M12.25,81.5c1,0.75,2.11,0.98,3.75,0c6.25-3.75,9.88-6.25,18.25-11.5" /></g><g><g><g><path d="M36.51,41.05c2.24,0.58,3.67,0.37,5.36,0.19c6.88-0.74,15.53-1.83,22.26-2.69c1.5-0.19,2.99-0.42,4.44-0.34" /><path d="M52.19,15.63c0.96,0.96,1.04,2.12,1.04,3.69c0,14.47-0.11,31.87-0.11,38.68" /></g><g><path d="M40.4,59.76c0.86,0.86,0.97,1.74,1.15,3.11c0.44,3.39,1.22,8.97,1.93,14.26c0.21,1.55,0.41,3.08,0.6,4.52" /><path d="M42.37,60.86c4.71-0.67,13.81-2.39,19.22-3.21c3.33-0.5,4.42,0.34,3.83,3.73c-0.69,4.01-1.42,7.37-2.6,13.05" /><path d="M44.99,77.97c3.38-0.28,10.68-1.38,16.13-2.05c1.43-0.18,2.73-0.32,3.8-0.42" /></g></g><g><path d="M74.51,19.63c0.8,0.8,1.14,1.87,1.16,2.82c1.2,42.8-0.92,56.67-12.82,67.92" /><path d="M76.59,21.21c1.82-0.24,12.81-2.7,14.17-2.96c2.43-0.47,4.29,0.63,4.29,3.71c0,3.04,0.04,46.66,0.04,65.82c0,9.1-5.62,2.16-7.52,0.26" /><path d="M76.88,40.75c5.93-0.89,11.89-1.74,17.1-2.05" /><path d="M76.75,59.57c4.97-0.5,11.33-1.69,17.08-1.83" /></g></g></g></g><g fill="none" stroke="#000" stroke-width="5" stroke-linecap="round" stroke-linejoin="round"><path d="M10.75,25.25c1.88,0.62,3.94,0.36,5.39,0.14c3.72-0.56,12.42-1.57,18.11-2.09c1.39-0.13,3.42-0.62,4.75-0.05" stroke-dasharray="28.478" stroke-dashoffset="28.478"><animate attributeName="stroke-dashoffset" values="28.478;28.478;0" dur="0.285s" fill="freeze" begin="0s;745a.click" /></path><path d="M24.57,27.02c1.02,1.02,1.23,2.36,1.23,4.23c0,5.95-0.05,35.3-0.05,42.75" stroke-dasharray="47.283" stroke-dashoffset="47.283"><animate attributeName="stroke-dashoffset" values="47.283" fill="freeze" begin="745a.click" /><animate attributeName="stroke-dashoffset" values="47.283;47.283;0" keyTimes="0;0.376;1" dur="0.758s" fill="freeze" begin="0s;745a.click" /></path><path d="M11,50.5c1.88,0.62,3.83,0.56,5.01,0.37c3.25-0.53,13.74-2.62,18.23-3.19c0.69-0.09,1.88-0.3,3-0.06" stroke-dasharray="26.595" stroke-dashoffset="26.595"><animate attributeName="stroke-dashoffset" values="26.595" fill="freeze" begin="745a.click" /><animate attributeName="stroke-dashoffset" values="26.595;26.595;0" keyTimes="0;0.74;1" dur="1.024s" fill="freeze" begin="0s;745a.click" /></path><path d="M12.25,81.5c1,0.75,2.11,0.98,3.75,0c6.25-3.75,9.88-6.25,18.25-11.5" stroke-dasharray="25.604" stroke-dashoffset="25.604"><animate attributeName="stroke-dashoffset" values="25.604" fill="freeze" begin="745a.click" /><animate attributeName="stroke-dashoffset" values="25.604;25.604;0" keyTimes="0;0.8;1" dur="1.28s" fill="freeze" begin="0s;745a.click" /></path><path d="M36.51,41.05c2.24,0.58,3.67,0.37,5.36,0.19c6.88-0.74,15.53-1.83,22.26-2.69c1.5-0.19,2.99-0.42,4.44-0.34" stroke-dasharray="32.285" stroke-dashoffset="32.285"><animate attributeName="stroke-dashoffset" values="32.285" fill="freeze" begin="745a.click" /><animate attributeName="stroke-dashoffset" values="32.285;32.285;0" keyTimes="0;0.799;1" dur="1.603s" fill="freeze" begin="0s;745a.click" /></path><path d="M52.19,15.63c0.96,0.96,1.04,2.12,1.04,3.69c0,14.47-0.11,31.87-0.11,38.68" stroke-dasharray="42.632" stroke-dashoffset="42.632"><animate attributeName="stroke-dashoffset" values="42.632" fill="freeze" begin="745a.click" /><animate attributeName="stroke-dashoffset" values="42.632;42.632;0" keyTimes="0;0.79;1" dur="2.029s" fill="freeze" begin="0s;745a.click" /></path><path d="M40.4,59.76c0.86,0.86,0.97,1.74,1.15,3.11c0.44,3.39,1.22,8.97,1.93,14.26c0.21,1.55,0.41,3.08,0.6,4.52" stroke-dasharray="22.341" stroke-dashoffset="22.341"><animate attributeName="stroke-dashoffset" values="22.341" fill="freeze" begin="745a.click" /><animate attributeName="stroke-dashoffset" values="22.341;22.341;0" keyTimes="0;0.901;1" dur="2.252s" fill="freeze" begin="0s;745a.click" /></path><path d="M42.37,60.86c4.71-0.67,13.81-2.39,19.22-3.21c3.33-0.5,4.42,0.34,3.83,3.73c-0.69,4.01-1.42,7.37-2.6,13.05" stroke-dasharray="39.795" stroke-dashoffset="39.795"><animate attributeName="stroke-dashoffset" values="39.795" fill="freeze" begin="745a.click" /><animate attributeName="stroke-dashoffset" values="39.795;39.795;0" keyTimes="0;0.85;1" dur="2.65s" fill="freeze" begin="0s;745a.click" /></path><path d="M44.99,77.97c3.38-0.28,10.68-1.38,16.13-2.05c1.43-0.18,2.73-0.32,3.8-0.42" stroke-dasharray="20.085" stroke-dashoffset="20.085"><animate attributeName="stroke-dashoffset" values="20.085" fill="freeze" begin="745a.click" /><animate attributeName="stroke-dashoffset" values="20.085;20.085;0" keyTimes="0;0.929;1" dur="2.851s" fill="freeze" begin="0s;745a.click" /></path><path d="M74.51,19.63c0.8,0.8,1.14,1.87,1.16,2.82c1.2,42.8-0.92,56.67-12.82,67.92" stroke-dasharray="74.348" stroke-dashoffset="74.348"><animate attributeName="stroke-dashoffset" values="74.348" fill="freeze" begin="745a.click" /><animate attributeName="stroke-dashoffset" values="74.348;74.348;0" keyTimes="0;0.836;1" dur="3.41s" fill="freeze" begin="0s;745a.click" /></path><path d="M76.59,21.21c1.82-0.24,12.81-2.7,14.17-2.96c2.43-0.47,4.29,0.63,4.29,3.71c0,3.04,0.04,46.66,0.04,65.82c0,9.1-5.62,2.16-7.52,0.26" stroke-dasharray="99.704" stroke-dashoffset="99.704"><animate attributeName="stroke-dashoffset" values="99.704" fill="freeze" begin="745a.click" /><animate attributeName="stroke-dashoffset" values="99.704;99.704;0" keyTimes="0;0.82;1" dur="4.16s" fill="freeze" begin="0s;745a.click" /></path><path d="M76.88,40.75c5.93-0.89,11.89-1.74,17.1-2.05" stroke-dasharray="17.229" stroke-dashoffset="17.229"><animate attributeName="stroke-dashoffset" values="17.229" fill="freeze" begin="745a.click" /><animate attributeName="stroke-dashoffset" values="17.229;17.229;0" keyTimes="0;0.96;1" dur="4.332s" fill="freeze" begin="0s;745a.click" /></path><path d="M76.75,59.57c4.97-0.5,11.33-1.69,17.08-1.83" stroke-dasharray="17.186" stroke-dashoffset="17.186"><animate attributeName="stroke-dashoffset" values="17.186" fill="freeze" begin="745a.click" /><animate attributeName="stroke-dashoffset" values="17.186;17.186;0" keyTimes="0;0.962;1" dur="4.504s" fill="freeze" begin="0s;745a.click" /></path></g></svg>