<svg xmlns="http://www.w3.org/2000/svg" width="109" height="109" viewBox="0 0 109 109" id="745b"><g fill="none" stroke="#666" stroke-width="9" stroke-linecap="round" stroke-linejoin="round"><g><g p4:partial xmlns:p4="http://kanjivg.tagaini.net"><path d="M11.75,26.56c2,0.44,3.99,0.51,5.39,0.3c3.34-0.52,9.83-1.6,14.61-2.07c1.2-0.12,2.87-0.29,4.25-0.09" /><path d="M24.07,29.02c0.83,0.83,0.98,1.86,0.98,3.23c0,5.95-0.05,36.18-0.05,41.88" /><path d="M11.75,52.18c0.45,0.27,3.64,0.3,4.11,0.25c5.64-0.68,12.39-2.3,16.91-3.07c0.56-0.1,1.61-0.36,2.48-0.12" /><path d="M11.5,81.76c1.79,0.86,3.01,0.82,4.53-0.21c6.22-4.18,11.49-7.87,18.72-12.81" /></g><g><g><path d="M41.68,25.02c2.57,0.61,4.6,0.57,6.6,0.26c10.84-1.66,24.42-3.54,35.6-3.95c2.38-0.09,4.76-0.18,7.09,0.45" /><path d="M51.24,14.07c1.23,1.23,1.62,1.6,1.75,2.36c1.22,7.07,1.77,13.91,2.12,16.48" /><path d="M75.49,10.85c0.23,0.96,0.53,1.67,0.27,2.85c-1.5,6.91-2.01,9.93-3.57,17.62" /></g><g><path d="M46.74,44.03c0.93,0.92,1.12,1.91,1.3,3.03c1.08,6.94,2.16,15.63,2.37,16.93" /><path d="M48.65,45.34c2.79-0.37,25.56-3.12,29.33-3.68c3.77-0.56,5.14,0.59,4.71,3.18c-0.29,1.71-2.96,14.53-3.29,16.59" /><g><path d="M39.8,65.13c2.95,0.62,5.42,0.62,7.83,0.29c12.24-1.68,29.49-3.18,39.25-3.57c2.92-0.12,5.33-0.25,8.19,0.45" /><path d="M63.8,33c0.83,1.12,1.05,2.32,1.07,4.15C65.25,73.62,56,83.25,36.62,95.5" /><path d="M64.01,63.68c7.06,8.73,21.57,21.63,28.62,27.47c2.4,1.99,3.23,2.29,4.32,2.47" /></g></g></g></g></g><g fill="none" stroke="#000" stroke-width="5" stroke-linecap="round" stroke-linejoin="round"><g><g p4:partial xmlns:p4="http://kanjivg.tagaini.net"><path d="M11.75,26.56c2,0.44,3.99,0.51,5.39,0.3c3.34-0.52,9.83-1.6,14.61-2.07c1.2-0.12,2.87-0.29,4.25-0.09" stroke-dasharray="24.44" stroke-dashoffset="24.44"><animate id="0" attributeName="stroke-dashoffset" values="24.44;0" dur="0.24s" fill="freeze" begin="0s;745b.click" /></path><path d="M24.07,29.02c0.83,0.83,0.98,1.86,0.98,3.23c0,5.95-0.05,36.18-0.05,41.88" stroke-dasharray="45.36" stroke-dashoffset="45.36"><animate attributeName="stroke-dashoffset" values="45.36" fill="freeze" begin="745b.click" /><animate id="1" attributeName="stroke-dashoffset" values="45.36;0" dur="0.45s" fill="freeze" begin="0.end" /></path><path d="M11.75,52.18c0.45,0.27,3.64,0.3,4.11,0.25c5.64-0.68,12.39-2.3,16.91-3.07c0.56-0.1,1.61-0.36,2.48-0.12" stroke-dasharray="23.83" stroke-dashoffset="23.83"><animate attributeName="stroke-dashoffset" values="23.83" fill="freeze" begin="745b.click" /><animate id="2" attributeName="stroke-dashoffset" values="23.83;0" dur="0.24s" fill="freeze" begin="1.end" /></path><path d="M11.5,81.76c1.79,0.86,3.01,0.82,4.53-0.21c6.22-4.18,11.49-7.87,18.72-12.81" stroke-dasharray="27.49" stroke-dashoffset="27.49"><animate attributeName="stroke-dashoffset" values="27.49" fill="freeze" begin="745b.click" /><animate id="3" attributeName="stroke-dashoffset" values="27.49;0" dur="0.27s" fill="freeze" begin="2.end" /></path></g><g><g><path d="M41.68,25.02c2.57,0.61,4.6,0.57,6.6,0.26c10.84-1.66,24.42-3.54,35.6-3.95c2.38-0.09,4.76-0.18,7.09,0.45" stroke-dasharray="49.62" stroke-dashoffset="49.62"><animate attributeName="stroke-dashoffset" values="49.62" fill="freeze" begin="745b.click" /><animate id="4" attributeName="stroke-dashoffset" values="49.62;0" dur="0.5s" fill="freeze" begin="3.end" /></path><path d="M51.24,14.07c1.23,1.23,1.62,1.6,1.75,2.36c1.22,7.07,1.77,13.91,2.12,16.48" stroke-dasharray="19.61" stroke-dashoffset="19.61"><animate attributeName="stroke-dashoffset" values="19.61" fill="freeze" begin="745b.click" /><animate id="5" attributeName="stroke-dashoffset" values="19.61;0" dur="0.2s" fill="freeze" begin="4.end" /></path><path d="M75.49,10.85c0.23,0.96,0.53,1.67,0.27,2.85c-1.5,6.91-2.01,9.93-3.57,17.62" stroke-dasharray="20.88" stroke-dashoffset="20.88"><animate attributeName="stroke-dashoffset" values="20.88" fill="freeze" begin="745b.click" /><animate id="6" attributeName="stroke-dashoffset" values="20.88;0" dur="0.21s" fill="freeze" begin="5.end" /></path></g><g><path d="M46.74,44.03c0.93,0.92,1.12,1.91,1.3,3.03c1.08,6.94,2.16,15.63,2.37,16.93" stroke-dasharray="20.46" stroke-dashoffset="20.46"><animate attributeName="stroke-dashoffset" values="20.46" fill="freeze" begin="745b.click" /><animate id="7" attributeName="stroke-dashoffset" values="20.46;0" dur="0.2s" fill="freeze" begin="6.end" /></path><path d="M48.65,45.34c2.79-0.37,25.56-3.12,29.33-3.68c3.77-0.56,5.14,0.59,4.71,3.18c-0.29,1.71-2.96,14.53-3.29,16.59" stroke-dasharray="53.56" stroke-dashoffset="53.56"><animate attributeName="stroke-dashoffset" values="53.56" fill="freeze" begin="745b.click" /><animate id="8" attributeName="stroke-dashoffset" values="53.56;0" dur="0.54s" fill="freeze" begin="7.end" /></path><g><path d="M39.8,65.13c2.95,0.62,5.42,0.62,7.83,0.29c12.24-1.68,29.49-3.18,39.25-3.57c2.92-0.12,5.33-0.25,8.19,0.45" stroke-dasharray="55.53" stroke-dashoffset="55.53"><animate attributeName="stroke-dashoffset" values="55.53" fill="freeze" begin="745b.click" /><animate id="9" attributeName="stroke-dashoffset" values="55.53;0" dur="0.56s" fill="freeze" begin="8.end" /></path><path d="M63.8,33c0.83,1.12,1.05,2.32,1.07,4.15C65.25,73.62,56,83.25,36.62,95.5" stroke-dasharray="73.42" stroke-dashoffset="73.42"><animate attributeName="stroke-dashoffset" values="73.42" fill="freeze" begin="745b.click" /><animate id="10" attributeName="stroke-dashoffset" values="73.42;0" dur="0.55s" fill="freeze" begin="9.end" /></path><path d="M64.01,63.68c7.06,8.73,21.57,21.63,28.62,27.47c2.4,1.99,3.23,2.29,4.32,2.47" stroke-dasharray="44.76" stroke-dashoffset="44.76"><animate attributeName="stroke-dashoffset" values="44.76" fill="freeze" begin="745b.click" /><animate id="11" attributeName="stroke-dashoffset" values="44.76;0" dur="0.45s" fill="freeze" begin="10.end" /></path></g></g></g></g></g></svg>