<svg xmlns="http://www.w3.org/2000/svg" width="109" height="109" viewBox="0 0 109 109" id="745c"><g fill="none" stroke="#666" stroke-width="9" stroke-linecap="round" stroke-linejoin="round"><g><g p4:partial xmlns:p4="http://kanjivg.tagaini.net"><path d="M12.1,23c0.57,0.28,3.64,0.34,4.22,0.26c2.67-0.37,13.51-1.57,19.91-1.98c0.87-0.06,2.49-0.2,3.22,0.03" /><path d="M25.55,25.02c0.93,0.88,1.58,2.78,1.58,3.48c0,5.95,0.05,47.62-0.13,51.57" /><path d="M13.02,51.84c0.5,0.34,4,0.39,4.51,0.31c2.92-0.45,12.86-1.78,16.9-2.27c0.62-0.07,2.89-0.14,3.82,0.16" /><path d="M12.75,86.25c1.25,1,3.94,1.07,4.74,0.5c7.01-5,12.76-9,20.67-15.5" /></g><g><g><path d="M 64.900813,10.431453 c -0.04496,1.753402 -0.431606,2.697541 -0.962123,3.884459 -4.88255,10.898068 -14.74656,24.25989 -22.614389,30.032629" /><path d="M 59.386395,5.3152892 C 65.6228,6.6784373 73.343249,25.137162 82.898922,36.539902 c 2.099248,2.508193 4.239392,4.955045 6.393167,6.318194" /></g><g><g><path d="M52.72,40.79c0.78,0.36,2.21,0.39,3,0.36c7.35-0.27,15.67-2.56,21.35-2.74c1.31-0.04,2.09,0.17,2.74,0.35" /></g><g><path d="M45.78,51.96c0.58,0.97,0.97,1.95,1.16,2.92c0.19,0.97,0.27,38.94,0.19,41.13" /><path d="M47.6,53.85c1.29-0.14,13.66-2.48,14.62-2.63c1.72-0.28,2.37,1.8,2.16,2.63c-0.21,0.8-0.32,24.84-0.32,36.08c0,9.94-4.33,2.5-5.41,1.25" /><path d="M51.87,61.05c2.15,1.05,5.56,4.33,6.1,5.97" /><path d="M52.23,73.22c2.1,1.18,5.43,4.86,5.95,6.7" /></g><g><path d="M75.69,50.49c0.3,1.05,1.12,2.35,0.68,3.78c-1.35,4.39-2.42,10.7-6.5,15.95c-1.12,1.44-0.01,2.35,0.29,2.65c4.95,4.8,7.87,11.27,10.36,21.66" /><path d="M88.36,50.21c0.3,1.1,1.12,2.5,0.68,4.01c-1.35,4.62-2.06,9.42-6.14,14.96c-1.12,1.52-0.01,2.48,0.29,2.79c4.95,5.06,8.85,10.38,11.22,21.33" /></g></g></g></g></g><g fill="none" stroke="#000" stroke-width="5" stroke-linecap="round" stroke-linejoin="round"><g><g p4:partial xmlns:p4="http://kanjivg.tagaini.net"><path d="M12.1,23c0.57,0.28,3.64,0.34,4.22,0.26c2.67-0.37,13.51-1.57,19.91-1.98c0.87-0.06,2.49-0.2,3.22,0.03" stroke-dasharray="27.49" stroke-dashoffset="27.49"><animate id="0" attributeName="stroke-dashoffset" values="27.49;0" dur="0.27s" fill="freeze" begin="0s;745c.click" /></path><path d="M25.55,25.02c0.93,0.88,1.58,2.78,1.58,3.48c0,5.95,0.05,47.62-0.13,51.57" stroke-dasharray="55.46" stroke-dashoffset="55.46"><animate attributeName="stroke-dashoffset" values="55.46" fill="freeze" begin="745c.click" /><animate id="1" attributeName="stroke-dashoffset" values="55.46;0" dur="0.55s" fill="freeze" begin="0.end" /></path><path d="M13.02,51.84c0.5,0.34,4,0.39,4.51,0.31c2.92-0.45,12.86-1.78,16.9-2.27c0.62-0.07,2.89-0.14,3.82,0.16" stroke-dasharray="25.44" stroke-dashoffset="25.44"><animate attributeName="stroke-dashoffset" values="25.44" fill="freeze" begin="745c.click" /><animate id="2" attributeName="stroke-dashoffset" values="25.44;0" dur="0.25s" fill="freeze" begin="1.end" /></path><path d="M12.75,86.25c1.25,1,3.94,1.07,4.74,0.5c7.01-5,12.76-9,20.67-15.5" stroke-dasharray="30.81" stroke-dashoffset="30.81"><animate attributeName="stroke-dashoffset" values="30.81" fill="freeze" begin="745c.click" /><animate id="3" attributeName="stroke-dashoffset" values="30.81;0" dur="0.31s" fill="freeze" begin="2.end" /></path></g><g><g><path d="M 64.900813,10.431453 c -0.04496,1.753402 -0.431606,2.697541 -0.962123,3.884459 -4.88255,10.898068 -14.74656,24.25989 -22.614389,30.032629" stroke-dasharray="41.95" stroke-dashoffset="41.95"><animate attributeName="stroke-dashoffset" values="41.95" fill="freeze" begin="745c.click" /><animate id="4" attributeName="stroke-dashoffset" values="41.95;0" dur="0.42s" fill="freeze" begin="3.end" /></path><path d="M 59.386395,5.3152892 C 65.6228,6.6784373 73.343249,25.137162 82.898922,36.539902 c 2.099248,2.508193 4.239392,4.955045 6.393167,6.318194" stroke-dasharray="48.5" stroke-dashoffset="48.5"><animate attributeName="stroke-dashoffset" values="48.5" fill="freeze" begin="745c.click" /><animate id="5" attributeName="stroke-dashoffset" values="48.5;0" dur="0.48s" fill="freeze" begin="4.end" /></path></g><g><g><path d="M52.72,40.79c0.78,0.36,2.21,0.39,3,0.36c7.35-0.27,15.67-2.56,21.35-2.74c1.31-0.04,2.09,0.17,2.74,0.35" stroke-dasharray="27.36" stroke-dashoffset="27.36"><animate attributeName="stroke-dashoffset" values="27.36" fill="freeze" begin="745c.click" /><animate id="6" attributeName="stroke-dashoffset" values="27.36;0" dur="0.27s" fill="freeze" begin="5.end" /></path></g><g><path d="M45.78,51.96c0.58,0.97,0.97,1.95,1.16,2.92c0.19,0.97,0.27,38.94,0.19,41.13" stroke-dasharray="44.29" stroke-dashoffset="44.29"><animate attributeName="stroke-dashoffset" values="44.29" fill="freeze" begin="745c.click" /><animate id="7" attributeName="stroke-dashoffset" values="44.29;0" dur="0.44s" fill="freeze" begin="6.end" /></path><path d="M47.6,53.85c1.29-0.14,13.66-2.48,14.62-2.63c1.72-0.28,2.37,1.8,2.16,2.63c-0.21,0.8-0.32,24.84-0.32,36.08c0,9.94-4.33,2.5-5.41,1.25" stroke-dasharray="66.19" stroke-dashoffset="66.19"><animate attributeName="stroke-dashoffset" values="66.19" fill="freeze" begin="745c.click" /><animate id="8" attributeName="stroke-dashoffset" values="66.19;0" dur="0.5s" fill="freeze" begin="7.end" /></path><path d="M51.87,61.05c2.15,1.05,5.56,4.33,6.1,5.97" stroke-dasharray="8.66" stroke-dashoffset="8.66"><animate attributeName="stroke-dashoffset" values="8.66" fill="freeze" begin="745c.click" /><animate id="9" attributeName="stroke-dashoffset" values="8.66;0" dur="0.09s" fill="freeze" begin="8.end" /></path><path d="M52.23,73.22c2.1,1.18,5.43,4.86,5.95,6.7" stroke-dasharray="9.09" stroke-dashoffset="9.09"><animate attributeName="stroke-dashoffset" values="9.09" fill="freeze" begin="745c.click" /><animate id="10" attributeName="stroke-dashoffset" values="9.09;0" dur="0.09s" fill="freeze" begin="9.end" /></path></g><g><path d="M75.69,50.49c0.3,1.05,1.12,2.35,0.68,3.78c-1.35,4.39-2.42,10.7-6.5,15.95c-1.12,1.44-0.01,2.35,0.29,2.65c4.95,4.8,7.87,11.27,10.36,21.66" stroke-dasharray="48.63" stroke-dashoffset="48.63"><animate attributeName="stroke-dashoffset" values="48.63" fill="freeze" begin="745c.click" /><animate id="11" attributeName="stroke-dashoffset" values="48.63;0" dur="0.49s" fill="freeze" begin="10.end" /></path><path d="M88.36,50.21c0.3,1.1,1.12,2.5,0.68,4.01c-1.35,4.62-2.06,9.42-6.14,14.96c-1.12,1.52-0.01,2.48,0.29,2.79c4.95,5.06,8.85,10.38,11.22,21.33" stroke-dasharray="48.06" stroke-dashoffset="48.06"><animate attributeName="stroke-dashoffset" values="48.06" fill="freeze" begin="745c.click" /><animate id="12" attributeName="stroke-dashoffset" values="48.06;0" dur="0.48s" fill="freeze" begin="11.end" /></path></g></g></g></g></g></svg>