<svg xmlns="http://www.w3.org/2000/svg" width="109" height="109" viewBox="0 0 109 109" id="745c"><g fill="none" stroke="#666" stroke-width="9" stroke-linecap="round" stroke-linejoin="round"><g><g p4:partial xmlns:p4="http://kanjivg.tagaini.net"><path d="M12.1,23c0.57,0.28,3.64,0.34,4.22,0.26c2.67-0.37,13.51-1.57,19.91-1.98c0.87-0.06,2.49-0.2,3.22,0.03" /><path d="M25.55,25.02c0.93,0.88,1.58,2.78,1.58,3.48c0,5.95,0.05,47.62-0.13,51.57" /><path d="M13.02,51.84c0.5,0.34,4,0.39,4.51,0.31c2.92-0.45,12.86-1.78,16.9-2.27c0.62-0.07,2.89-0.14,3.82,0.16" /><path d="M12.75,86.25c1.25,1,3.94,1.07,4.74,0.5c7.01-5,12.76-9,20.67-15.5" /></g><g><g><path d="M 64.900813,10.431453 c -0.04496,1.753402 -0.431606,2.697541 -0.962123,3.884459 -4.88255,10.898068 -14.74656,24.25989 -22.614389,30.032629" /><path d="M 59.386395,5.3152892 C 65.6228,6.6784373 73.343249,25.137162 82.898922,36.539902 c 2.099248,2.508193 4.239392,4.955045 6.393167,6.318194" /></g><g><g><path d="M52.72,40.79c0.78,0.36,2.21,0.39,3,0.36c7.35-0.27,15.67-2.56,21.35-2.74c1.31-0.04,2.09,0.17,2.74,0.35" /></g><g><path d="M45.78,51.96c0.58,0.97,0.97,1.95,1.16,2.92c0.19,0.97,0.27,38.94,0.19,41.13" /><path d="M47.6,53.85c1.29-0.14,13.66-2.48,14.62-2.63c1.72-0.28,2.37,1.8,2.16,2.63c-0.21,0.8-0.32,24.84-0.32,36.08c0,9.94-4.33,2.5-5.41,1.25" /><path d="M51.87,61.05c2.15,1.05,5.56,4.33,6.1,5.97" /><path d="M52.23,73.22c2.1,1.18,5.43,4.86,5.95,6.7" /></g><g><path d="M75.69,50.49c0.3,1.05,1.12,2.35,0.68,3.78c-1.35,4.39-2.42,10.7-6.5,15.95c-1.12,1.44-0.01,2.35,0.29,2.65c4.95,4.8,7.87,11.27,10.36,21.66" /><path d="M88.36,50.21c0.3,1.1,1.12,2.5,0.68,4.01c-1.35,4.62-2.06,9.42-6.14,14.96c-1.12,1.52-0.01,2.48,0.29,2.79c4.95,5.06,8.85,10.38,11.22,21.33" /></g></g></g></g></g><g fill="none" stroke="#000" stroke-width="5" stroke-linecap="round" stroke-linejoin="round"><path d="M12.1,23c0.57,0.28,3.64,0.34,4.22,0.26c2.67-0.37,13.51-1.57,19.91-1.98c0.87-0.06,2.49-0.2,3.22,0.03" stroke-dasharray="27.491" stroke-dashoffset="27.491"><animate attributeName="stroke-dashoffset" values="27.491;27.491;0" dur="0.275s" fill="freeze" begin="0s;745c.click" /></path><path d="M25.55,25.02c0.93,0.88,1.58,2.78,1.58,3.48c0,5.95,0.05,47.62-0.13,51.57" stroke-dasharray="55.461" stroke-dashoffset="55.461"><animate attributeName="stroke-dashoffset" values="55.461" fill="freeze" begin="745c.click" /><animate attributeName="stroke-dashoffset" values="55.461;55.461;0" keyTimes="0;0.331;1" dur="0.83s" fill="freeze" begin="0s;745c.click" /></path><path d="M13.02,51.84c0.5,0.34,4,0.39,4.51,0.31c2.92-0.45,12.86-1.78,16.9-2.27c0.62-0.07,2.89-0.14,3.82,0.16" stroke-dasharray="25.438" stroke-dashoffset="25.438"><animate attributeName="stroke-dashoffset" values="25.438" fill="freeze" begin="745c.click" /><animate attributeName="stroke-dashoffset" values="25.438;25.438;0" keyTimes="0;0.766;1" dur="1.084s" fill="freeze" begin="0s;745c.click" /></path><path d="M12.75,86.25c1.25,1,3.94,1.07,4.74,0.5c7.01-5,12.76-9,20.67-15.5" stroke-dasharray="30.816" stroke-dashoffset="30.816"><animate attributeName="stroke-dashoffset" values="30.816" fill="freeze" begin="745c.click" /><animate attributeName="stroke-dashoffset" values="30.816;30.816;0" keyTimes="0;0.779;1" dur="1.392s" fill="freeze" begin="0s;745c.click" /></path><path d="M 64.900813,10.431453 c -0.04496,1.753402 -0.431606,2.697541 -0.962123,3.884459 -4.88255,10.898068 -14.74656,24.25989 -22.614389,30.032629" stroke-dasharray="41.952" stroke-dashoffset="41.952"><animate attributeName="stroke-dashoffset" values="41.952" fill="freeze" begin="745c.click" /><animate attributeName="stroke-dashoffset" values="41.952;41.952;0" keyTimes="0;0.768;1" dur="1.812s" fill="freeze" begin="0s;745c.click" /></path><path d="M 59.386395,5.3152892 C 65.6228,6.6784373 73.343249,25.137162 82.898922,36.539902 c 2.099248,2.508193 4.239392,4.955045 6.393167,6.318194" stroke-dasharray="48.502" stroke-dashoffset="48.502"><animate attributeName="stroke-dashoffset" values="48.502" fill="freeze" begin="745c.click" /><animate attributeName="stroke-dashoffset" values="48.502;48.502;0" keyTimes="0;0.789;1" dur="2.297s" fill="freeze" begin="0s;745c.click" /></path><path d="M52.72,40.79c0.78,0.36,2.21,0.39,3,0.36c7.35-0.27,15.67-2.56,21.35-2.74c1.31-0.04,2.09,0.17,2.74,0.35" stroke-dasharray="27.36" stroke-dashoffset="27.36"><animate attributeName="stroke-dashoffset" values="27.36" fill="freeze" begin="745c.click" /><animate attributeName="stroke-dashoffset" values="27.36;27.36;0" keyTimes="0;0.893;1" dur="2.571s" fill="freeze" begin="0s;745c.click" /></path><path d="M45.78,51.96c0.58,0.97,0.97,1.95,1.16,2.92c0.19,0.97,0.27,38.94,0.19,41.13" stroke-dasharray="44.291" stroke-dashoffset="44.291"><animate attributeName="stroke-dashoffset" values="44.291" fill="freeze" begin="745c.click" /><animate attributeName="stroke-dashoffset" values="44.291;44.291;0" keyTimes="0;0.853;1" dur="3.014s" fill="freeze" begin="0s;745c.click" /></path><path d="M47.6,53.85c1.29-0.14,13.66-2.48,14.62-2.63c1.72-0.28,2.37,1.8,2.16,2.63c-0.21,0.8-0.32,24.84-0.32,36.08c0,9.94-4.33,2.5-5.41,1.25" stroke-dasharray="66.188" stroke-dashoffset="66.188"><animate attributeName="stroke-dashoffset" values="66.188" fill="freeze" begin="745c.click" /><animate attributeName="stroke-dashoffset" values="66.188;66.188;0" keyTimes="0;0.858;1" dur="3.512s" fill="freeze" begin="0s;745c.click" /></path><path d="M51.87,61.05c2.15,1.05,5.56,4.33,6.1,5.97" stroke-dasharray="8.66" stroke-dashoffset="8.66"><animate attributeName="stroke-dashoffset" values="8.66" fill="freeze" begin="745c.click" /><animate attributeName="stroke-dashoffset" values="8.66;8.66;0" keyTimes="0;0.976;1" dur="3.599s" fill="freeze" begin="0s;745c.click" /></path><path d="M52.23,73.22c2.1,1.18,5.43,4.86,5.95,6.7" stroke-dasharray="9.09" stroke-dashoffset="9.09"><animate attributeName="stroke-dashoffset" values="9.09" fill="freeze" begin="745c.click" /><animate attributeName="stroke-dashoffset" values="9.09;9.09;0" keyTimes="0;0.975;1" dur="3.69s" fill="freeze" begin="0s;745c.click" /></path><path d="M75.69,50.49c0.3,1.05,1.12,2.35,0.68,3.78c-1.35,4.39-2.42,10.7-6.5,15.95c-1.12,1.44-0.01,2.35,0.29,2.65c4.95,4.8,7.87,11.27,10.36,21.66" stroke-dasharray="48.634" stroke-dashoffset="48.634"><animate attributeName="stroke-dashoffset" values="48.634" fill="freeze" begin="745c.click" /><animate attributeName="stroke-dashoffset" values="48.634;48.634;0" keyTimes="0;0.884;1" dur="4.176s" fill="freeze" begin="0s;745c.click" /></path><path d="M88.36,50.21c0.3,1.1,1.12,2.5,0.68,4.01c-1.35,4.62-2.06,9.42-6.14,14.96c-1.12,1.52-0.01,2.48,0.29,2.79c4.95,5.06,8.85,10.38,11.22,21.33" stroke-dasharray="48.06" stroke-dashoffset="48.06"><animate attributeName="stroke-dashoffset" values="48.06" fill="freeze" begin="745c.click" /><animate attributeName="stroke-dashoffset" values="48.06;48.06;0" keyTimes="0;0.897;1" dur="4.657s" fill="freeze" begin="0s;745c.click" /></path></g></svg>