<svg xmlns="http://www.w3.org/2000/svg" width="109" height="109" viewBox="0 0 109 109" id="745e"><g fill="none" stroke="#666" stroke-width="9" stroke-linecap="round" stroke-linejoin="round"><g><g p4:partial xmlns:p4="http://kanjivg.tagaini.net"><path d="M14.01,26.49c1.86,0.38,4.09,0.55,5.5,0.37c3.5-0.44,9.56-1.58,14.48-2.07c1.19-0.12,2.9-0.53,4.05-0.06" /><path d="M25.58,29.27c0.95,0.95,0.99,2.11,0.99,3.61c0,5.32-0.07,35.19-0.07,40.99" /><path d="M13.48,51.35c0.98,0.76,4.47,0.53,5.66,0.32c3.52-0.61,10.4-1.99,13.96-2.54c1.31-0.2,3.03-0.66,4.31-0.19" /><path d="M12.63,81.62c0.98,0.89,2.25,0.88,3.56,0.14c4.39-2.45,12.06-7.77,19.22-12.48" /></g><g><g><path d="M66.18,11c1.03,1.03,1.48,2,1.48,4.12c0,4.38-0.03,11.48-0.03,15.76" /><path d="M49.24,21.94c0.51,0.81,0.64,2.06,0.39,3.25c-0.5,2.43-0.88,4.31-1.72,7.92c-0.52,2.22,0.46,2.56,2.35,2.08c10.49-2.69,26.11-4.69,36.22-4.96" /><path d="M88.6,17.4c0.4,0.97,0.53,1.85,0.39,3.12c-0.28,2.65-0.66,5.22-1.16,9.23c-0.14,1.12-0.29,2.35-0.45,3.73" /></g><g><g><path d="M43.31,46.8c2.32,0.7,5.89,0.39,8.2,0.14c9.04-0.97,25.11-3.29,35.61-3.93c2.4-0.15,5.28-0.36,7.64,0.33" /><path d="M65.67,48.64c0.08,0.76-0.05,1.49-0.39,2.18c-0.97,2.26-3.57,5.3-6.73,8.97" /></g><g><path d="M45.2,61.87c0.96,0.96,0.99,2.66,0.99,4.34c0,4.11,0.02,15.55,0.04,23.16c0.01,3.08,0.01,5.54,0.01,6.62" /><path d="M46.85,63.28c14.53-1.78,30.54-3.51,40.14-4.46c4.51-0.45,6.14,0.72,6.05,4.93C92.92,68.9,92.5,85.78,92,90.64c-1,9.61-5.03,3.54-7.27,1.12" /><path d="M59.46,64.04c0.81,0.81,1.06,1.96,1.06,3.74c0,4.52-0.01,12.92-0.02,19.23c0,2.03,0,3.85,0,5.25" /><path d="M73.83,62.81c0.93,0.93,1.06,1.82,1.06,3.74c0,7.92,0,14.25,0,19.33c0,2.1,0,4,0,5.7" /></g></g></g></g></g><g fill="none" stroke="#000" stroke-width="5" stroke-linecap="round" stroke-linejoin="round"><g><g p4:partial xmlns:p4="http://kanjivg.tagaini.net"><path d="M14.01,26.49c1.86,0.38,4.09,0.55,5.5,0.37c3.5-0.44,9.56-1.58,14.48-2.07c1.19-0.12,2.9-0.53,4.05-0.06" stroke-dasharray="24.25" stroke-dashoffset="24.25"><animate id="0" attributeName="stroke-dashoffset" values="24.25;0" dur="0.24s" fill="freeze" begin="0s;745e.click" /></path><path d="M25.58,29.27c0.95,0.95,0.99,2.11,0.99,3.61c0,5.32-0.07,35.19-0.07,40.99" stroke-dasharray="44.85" stroke-dashoffset="44.85"><animate attributeName="stroke-dashoffset" values="44.85" fill="freeze" begin="745e.click" /><animate id="1" attributeName="stroke-dashoffset" values="44.85;0" dur="0.45s" fill="freeze" begin="0.end" /></path><path d="M13.48,51.35c0.98,0.76,4.47,0.53,5.66,0.32c3.52-0.61,10.4-1.99,13.96-2.54c1.31-0.2,3.03-0.66,4.31-0.19" stroke-dasharray="24.31" stroke-dashoffset="24.31"><animate attributeName="stroke-dashoffset" values="24.31" fill="freeze" begin="745e.click" /><animate id="2" attributeName="stroke-dashoffset" values="24.31;0" dur="0.24s" fill="freeze" begin="1.end" /></path><path d="M12.63,81.62c0.98,0.89,2.25,0.88,3.56,0.14c4.39-2.45,12.06-7.77,19.22-12.48" stroke-dasharray="26.75" stroke-dashoffset="26.75"><animate attributeName="stroke-dashoffset" values="26.75" fill="freeze" begin="745e.click" /><animate id="3" attributeName="stroke-dashoffset" values="26.75;0" dur="0.27s" fill="freeze" begin="2.end" /></path></g><g><g><path d="M66.18,11c1.03,1.03,1.48,2,1.48,4.12c0,4.38-0.03,11.48-0.03,15.76" stroke-dasharray="20.28" stroke-dashoffset="20.28"><animate attributeName="stroke-dashoffset" values="20.28" fill="freeze" begin="745e.click" /><animate id="4" attributeName="stroke-dashoffset" values="20.28;0" dur="0.2s" fill="freeze" begin="3.end" /></path><path d="M49.24,21.94c0.51,0.81,0.64,2.06,0.39,3.25c-0.5,2.43-0.88,4.31-1.72,7.92c-0.52,2.22,0.46,2.56,2.35,2.08c10.49-2.69,26.11-4.69,36.22-4.96" stroke-dasharray="52.4" stroke-dashoffset="52.4"><animate attributeName="stroke-dashoffset" values="52.4" fill="freeze" begin="745e.click" /><animate id="5" attributeName="stroke-dashoffset" values="52.4;0" dur="0.52s" fill="freeze" begin="4.end" /></path><path d="M88.6,17.4c0.4,0.97,0.53,1.85,0.39,3.12c-0.28,2.65-0.66,5.22-1.16,9.23c-0.14,1.12-0.29,2.35-0.45,3.73" stroke-dasharray="16.24" stroke-dashoffset="16.24"><animate attributeName="stroke-dashoffset" values="16.24" fill="freeze" begin="745e.click" /><animate id="6" attributeName="stroke-dashoffset" values="16.24;0" dur="0.16s" fill="freeze" begin="5.end" /></path></g><g><g><path d="M43.31,46.8c2.32,0.7,5.89,0.39,8.2,0.14c9.04-0.97,25.11-3.29,35.61-3.93c2.4-0.15,5.28-0.36,7.64,0.33" stroke-dasharray="51.77" stroke-dashoffset="51.77"><animate attributeName="stroke-dashoffset" values="51.77" fill="freeze" begin="745e.click" /><animate id="7" attributeName="stroke-dashoffset" values="51.77;0" dur="0.52s" fill="freeze" begin="6.end" /></path><path d="M65.67,48.64c0.08,0.76-0.05,1.49-0.39,2.18c-0.97,2.26-3.57,5.3-6.73,8.97" stroke-dasharray="13.49" stroke-dashoffset="13.49"><animate attributeName="stroke-dashoffset" values="13.49" fill="freeze" begin="745e.click" /><animate id="8" attributeName="stroke-dashoffset" values="13.49;0" dur="0.13s" fill="freeze" begin="7.end" /></path></g><g><path d="M45.2,61.87c0.96,0.96,0.99,2.66,0.99,4.34c0,4.11,0.02,15.55,0.04,23.16c0.01,3.08,0.01,5.54,0.01,6.62" stroke-dasharray="34.34" stroke-dashoffset="34.34"><animate attributeName="stroke-dashoffset" values="34.34" fill="freeze" begin="745e.click" /><animate id="9" attributeName="stroke-dashoffset" values="34.34;0" dur="0.34s" fill="freeze" begin="8.end" /></path><path d="M46.85,63.28c14.53-1.78,30.54-3.51,40.14-4.46c4.51-0.45,6.14,0.72,6.05,4.93C92.92,68.9,92.5,85.78,92,90.64c-1,9.61-5.03,3.54-7.27,1.12" stroke-dasharray="89.49" stroke-dashoffset="89.49"><animate attributeName="stroke-dashoffset" values="89.49" fill="freeze" begin="745e.click" /><animate id="10" attributeName="stroke-dashoffset" values="89.49;0" dur="0.67s" fill="freeze" begin="9.end" /></path><path d="M59.46,64.04c0.81,0.81,1.06,1.96,1.06,3.74c0,4.52-0.01,12.92-0.02,19.23c0,2.03,0,3.85,0,5.25" stroke-dasharray="28.47" stroke-dashoffset="28.47"><animate attributeName="stroke-dashoffset" values="28.47" fill="freeze" begin="745e.click" /><animate id="11" attributeName="stroke-dashoffset" values="28.47;0" dur="0.28s" fill="freeze" begin="10.end" /></path><path d="M73.83,62.81c0.93,0.93,1.06,1.82,1.06,3.74c0,7.92,0,14.25,0,19.33c0,2.1,0,4,0,5.7" stroke-dasharray="29.04" stroke-dashoffset="29.04"><animate attributeName="stroke-dashoffset" values="29.04" fill="freeze" begin="745e.click" /><animate id="12" attributeName="stroke-dashoffset" values="29.04;0" dur="0.29s" fill="freeze" begin="11.end" /></path></g></g></g></g></g></svg>