<svg xmlns="http://www.w3.org/2000/svg" width="109" height="109" viewBox="0 0 109 109" id="745f"><g fill="none" stroke="#666" stroke-width="9" stroke-linecap="round" stroke-linejoin="round"><g><g><g p5:partial xmlns:p5="http://kanjivg.tagaini.net"><path d="M15.25,16.56c0.7,0.25,4.5,0.31,5.2,0.23c3.29-0.34,16.67-1.44,24.58-1.81c1.08-0.05,3.08-0.18,3.97,0.03" /><path d="M31.07,17.02c0.87,0.88,1.48,2.78,1.48,3.48c0,5.95,0.52,21.12,0.35,25.07" /><path d="M16.5,33c0.55,0.4,4.45,0.46,5.01,0.37c3.25-0.53,16.74-2.12,21.23-2.69c0.69-0.09,3.22-0.16,4.25,0.19" /><path d="M14.25,52.25c1.5,0.75,3.13,0.84,4.93,0c5.9-2.75,16.83-7.25,25.82-12" /></g><g p5:partial xmlns:p5="http://kanjivg.tagaini.net"><path d="M56.85,14.5c0.8,0.44,3.41,0.06,4.22,0.03c8.18-0.28,16.95-1.27,26.03-1.72c1.24-0.06,2.36,0.09,3.38,0.46" /><path d="M72.07,16.31c0.9,1.12,0.9,1.79,0.9,2.69c0,6.28-0.01,15.14-0.01,25.21" /><path d="M57.73,30.76c0.75,0.27,3.23,0.16,3.99,0.12c7.99-0.47,13.63-1.4,23.02-1.88c0.94-0.05,3-0.11,4.4,0.13" /><path d="M53.23,46.13c0.63,0.2,3.89,0.58,4.95,0.5C67.5,46,82.75,43.5,91.39,43.08c1.7-0.08,3.75,0.33,4.61,0.63" /></g></g><g><g p5:part="1" xmlns:p5="http://kanjivg.tagaini.net"><path d="M52.75,60.25c1.24,2.81,4.48,9.08,5.25,5.12" /><g><path d="M73.66,55.56c0.15,0.96,0.31,2.46-0.29,3.84c-3.56,8.09-20.68,28.04-50.81,37.33" /></g><g p5:part="2"><path d="M32.75,58.33c8.25,20.92,21,39.51,47.15,39.64c10.39,0.05,7.86-3.57,3.55-8.58" /><path d="M21.39,71.13c0.39,2.39-3.91,12.92-7.04,16.9" /><path d="M82.5,63.46c4.78,2.66,10.46,8.13,12.25,13.32" /></g></g></g></g></g><g fill="none" stroke="#000" stroke-width="5" stroke-linecap="round" stroke-linejoin="round"><g><g><g p5:partial xmlns:p5="http://kanjivg.tagaini.net"><path d="M15.25,16.56c0.7,0.25,4.5,0.31,5.2,0.23c3.29-0.34,16.67-1.44,24.58-1.81c1.08-0.05,3.08-0.18,3.97,0.03" stroke-dasharray="33.84" stroke-dashoffset="33.84"><animate id="0" attributeName="stroke-dashoffset" values="33.84;0" dur="0.34s" fill="freeze" begin="0s;745f.click" /></path><path d="M31.07,17.02c0.87,0.88,1.48,2.78,1.48,3.48c0,5.95,0.52,21.12,0.35,25.07" stroke-dasharray="28.92" stroke-dashoffset="28.92"><animate attributeName="stroke-dashoffset" values="28.92" fill="freeze" begin="745f.click" /><animate id="1" attributeName="stroke-dashoffset" values="28.92;0" dur="0.29s" fill="freeze" begin="0.end" /></path><path d="M16.5,33c0.55,0.4,4.45,0.46,5.01,0.37c3.25-0.53,16.74-2.12,21.23-2.69c0.69-0.09,3.22-0.16,4.25,0.19" stroke-dasharray="30.73" stroke-dashoffset="30.73"><animate attributeName="stroke-dashoffset" values="30.73" fill="freeze" begin="745f.click" /><animate id="2" attributeName="stroke-dashoffset" values="30.73;0" dur="0.31s" fill="freeze" begin="1.end" /></path><path d="M14.25,52.25c1.5,0.75,3.13,0.84,4.93,0c5.9-2.75,16.83-7.25,25.82-12" stroke-dasharray="33.59" stroke-dashoffset="33.59"><animate attributeName="stroke-dashoffset" values="33.59" fill="freeze" begin="745f.click" /><animate id="3" attributeName="stroke-dashoffset" values="33.59;0" dur="0.34s" fill="freeze" begin="2.end" /></path></g><g p5:partial xmlns:p5="http://kanjivg.tagaini.net"><path d="M56.85,14.5c0.8,0.44,3.41,0.06,4.22,0.03c8.18-0.28,16.95-1.27,26.03-1.72c1.24-0.06,2.36,0.09,3.38,0.46" stroke-dasharray="33.78" stroke-dashoffset="33.78"><animate attributeName="stroke-dashoffset" values="33.78" fill="freeze" begin="745f.click" /><animate id="4" attributeName="stroke-dashoffset" values="33.78;0" dur="0.34s" fill="freeze" begin="3.end" /></path><path d="M72.07,16.31c0.9,1.12,0.9,1.79,0.9,2.69c0,6.28-0.01,15.14-0.01,25.21" stroke-dasharray="28.12" stroke-dashoffset="28.12"><animate attributeName="stroke-dashoffset" values="28.12" fill="freeze" begin="745f.click" /><animate id="5" attributeName="stroke-dashoffset" values="28.12;0" dur="0.28s" fill="freeze" begin="4.end" /></path><path d="M57.73,30.76c0.75,0.27,3.23,0.16,3.99,0.12c7.99-0.47,13.63-1.4,23.02-1.88c0.94-0.05,3-0.11,4.4,0.13" stroke-dasharray="31.51" stroke-dashoffset="31.51"><animate attributeName="stroke-dashoffset" values="31.51" fill="freeze" begin="745f.click" /><animate id="6" attributeName="stroke-dashoffset" values="31.51;0" dur="0.32s" fill="freeze" begin="5.end" /></path><path d="M53.23,46.13c0.63,0.2,3.89,0.58,4.95,0.5C67.5,46,82.75,43.5,91.39,43.08c1.7-0.08,3.75,0.33,4.61,0.63" stroke-dasharray="43.06" stroke-dashoffset="43.06"><animate attributeName="stroke-dashoffset" values="43.06" fill="freeze" begin="745f.click" /><animate id="7" attributeName="stroke-dashoffset" values="43.06;0" dur="0.43s" fill="freeze" begin="6.end" /></path></g></g><g><g p5:part="1" xmlns:p5="http://kanjivg.tagaini.net"><path d="M52.75,60.25c1.24,2.81,4.48,9.08,5.25,5.12" stroke-dasharray="9.59" stroke-dashoffset="9.59"><animate attributeName="stroke-dashoffset" values="9.59" fill="freeze" begin="745f.click" /><animate id="8" attributeName="stroke-dashoffset" values="9.59;0" dur="0.1s" fill="freeze" begin="7.end" /></path><g><path d="M73.66,55.56c0.15,0.96,0.31,2.46-0.29,3.84c-3.56,8.09-20.68,28.04-50.81,37.33" stroke-dasharray="68.42" stroke-dashoffset="68.42"><animate attributeName="stroke-dashoffset" values="68.42" fill="freeze" begin="745f.click" /><animate id="9" attributeName="stroke-dashoffset" values="68.42;0" dur="0.51s" fill="freeze" begin="8.end" /></path></g><g p5:part="2"><path d="M32.75,58.33c8.25,20.92,21,39.51,47.15,39.64c10.39,0.05,7.86-3.57,3.55-8.58" stroke-dasharray="81.67" stroke-dashoffset="81.67"><animate attributeName="stroke-dashoffset" values="81.67" fill="freeze" begin="745f.click" /><animate id="10" attributeName="stroke-dashoffset" values="81.67;0" dur="0.61s" fill="freeze" begin="9.end" /></path><path d="M21.39,71.13c0.39,2.39-3.91,12.92-7.04,16.9" stroke-dasharray="18.5" stroke-dashoffset="18.5"><animate attributeName="stroke-dashoffset" values="18.5" fill="freeze" begin="745f.click" /><animate id="11" attributeName="stroke-dashoffset" values="18.5;0" dur="0.18s" fill="freeze" begin="10.end" /></path><path d="M82.5,63.46c4.78,2.66,10.46,8.13,12.25,13.32" stroke-dasharray="18.43" stroke-dashoffset="18.43"><animate attributeName="stroke-dashoffset" values="18.43" fill="freeze" begin="745f.click" /><animate id="12" attributeName="stroke-dashoffset" values="18.43;0" dur="0.18s" fill="freeze" begin="11.end" /></path></g></g></g></g></g></svg>