<svg xmlns="http://www.w3.org/2000/svg" width="109" height="109" viewBox="0 0 109 109" id="7464"><g fill="none" stroke="#666" stroke-width="6" stroke-linecap="round" stroke-linejoin="round"><g><g p4:partial xmlns:p4="http://kanjivg.tagaini.net"><path d="M9.6,20.25c0.61,0.37,3.91,0.45,4.52,0.34c2.86-0.5,14.5-2.09,21.37-2.64c0.94-0.07,2.67-0.26,3.45,0.04" /><path d="M24.55,22.02c0.93,0.88,1.58,2.78,1.58,3.48c0,5.95,0.05,46.12-0.13,50.07" /><path d="M9.52,46.5c0.57,0.4,4.56,0.46,5.13,0.37c3.33-0.53,14.64-2.12,19.24-2.69c0.71-0.09,3.29-0.16,4.35,0.19" /><path d="M9.25,81.68c1.25,1.06,3.36,1.52,4.24,1.06c5.61-2.92,14.12-7.7,22.67-12.74" /></g><g><g><path d="M62.61,10c0.77,0.9,0.15,2.98-0.54,4.16c-3.46,5.88-9.32,13.59-19.71,20.29" /><path d="M62.94,18.56c1.31,0.44,2.31,0.68,4.21,0.55c5.35-0.36,12.48-1.75,15.46-2.51c2.39-0.6,3.43,0.83,2.17,2.9c-5.53,9-24.28,27-45.51,35.33" /><path d="M57.97,26.26c1.41,0.54,7.04,3.76,9.85,6.98" /><path d="M47.26,33.96c1.65,1.17,6.59,6.12,7.96,8.74" /></g><g><path d="M58.7,46.64c0.03,0.39,0.06,1.02-0.06,1.58c-0.74,3.34-5,10.66-10.82,15.14" /><path d="M57.37,53.48c0.67,0.19,1.9,0.24,2.58,0.19c8.25-0.53,19.27-2.62,26.67-3.3c1.11-0.1,1.79,0.09,2.35,0.19" /><path d="M44.13,69.89c1.08,0.34,3.06,0.39,4.13,0.34C59.49,69.67,81,66,93.85,65.66c1.8-0.05,2.88,0.16,3.77,0.33" /><path d="M67.4,54.88c0.96,1.22,2.05,2.12,2.05,3.8c0,5.92-0.1,29.2-0.25,34.21" /><path d="M48.6,79c0.54,0.28,1.08,1.46,1.08,2.03c-0.05,3.5-1.18,6.97-2,13.03c-0.17,1.27-0.25,2.64,1.07,2.34c11.51-2.64,32.41-5.15,39.16-5.3" /><path d="M89.17,74.42c0.54,0.28,1.16,2.09,1.08,2.65c-0.53,3.43-1.49,11.43-1.95,18.57" /></g></g></g></g><g fill="none" stroke="#000" stroke-width="3" stroke-linecap="round" stroke-linejoin="round"><path d="M9.6,20.25c0.61,0.37,3.91,0.45,4.52,0.34c2.86-0.5,14.5-2.09,21.37-2.64c0.94-0.07,2.67-0.26,3.45,0.04" stroke-dasharray="29.57" stroke-dashoffset="29.57"><animate attributeName="stroke-dashoffset" values="29.57;29.57;0" dur="0.296s" fill="freeze" begin="0s;7464.click" /></path><path d="M24.55,22.02c0.93,0.88,1.58,2.78,1.58,3.48c0,5.95,0.05,46.12-0.13,50.07" stroke-dasharray="53.961" stroke-dashoffset="53.961"><animate attributeName="stroke-dashoffset" values="53.961" fill="freeze" begin="7464.click" /><animate attributeName="stroke-dashoffset" values="53.961;53.961;0" keyTimes="0;0.354;1" dur="0.836s" fill="freeze" begin="0s;7464.click" /></path><path d="M9.52,46.5c0.57,0.4,4.56,0.46,5.13,0.37c3.33-0.53,14.64-2.12,19.24-2.69c0.71-0.09,3.29-0.16,4.35,0.19" stroke-dasharray="28.976" stroke-dashoffset="28.976"><animate attributeName="stroke-dashoffset" values="28.976" fill="freeze" begin="7464.click" /><animate attributeName="stroke-dashoffset" values="28.976;28.976;0" keyTimes="0;0.742;1" dur="1.126s" fill="freeze" begin="0s;7464.click" /></path><path d="M9.25,81.68c1.25,1.06,3.36,1.52,4.24,1.06c5.61-2.92,14.12-7.7,22.67-12.74" stroke-dasharray="30.561" stroke-dashoffset="30.561"><animate attributeName="stroke-dashoffset" values="30.561" fill="freeze" begin="7464.click" /><animate attributeName="stroke-dashoffset" values="30.561;30.561;0" keyTimes="0;0.786;1" dur="1.432s" fill="freeze" begin="0s;7464.click" /></path><path d="M62.61,10c0.77,0.9,0.15,2.98-0.54,4.16c-3.46,5.88-9.32,13.59-19.71,20.29" stroke-dasharray="32.953" stroke-dashoffset="32.953"><animate attributeName="stroke-dashoffset" values="32.953" fill="freeze" begin="7464.click" /><animate attributeName="stroke-dashoffset" values="32.953;32.953;0" keyTimes="0;0.813;1" dur="1.762s" fill="freeze" begin="0s;7464.click" /></path><path d="M62.94,18.56c1.31,0.44,2.31,0.68,4.21,0.55c5.35-0.36,12.48-1.75,15.46-2.51c2.39-0.6,3.43,0.83,2.17,2.9c-5.53,9-24.28,27-45.51,35.33" stroke-dasharray="83.567" stroke-dashoffset="83.567"><animate attributeName="stroke-dashoffset" values="83.567" fill="freeze" begin="7464.click" /><animate attributeName="stroke-dashoffset" values="83.567;83.567;0" keyTimes="0;0.737;1" dur="2.39s" fill="freeze" begin="0s;7464.click" /></path><path d="M57.97,26.26c1.41,0.54,7.04,3.76,9.85,6.98" stroke-dasharray="12.145" stroke-dashoffset="12.145"><animate attributeName="stroke-dashoffset" values="12.145" fill="freeze" begin="7464.click" /><animate attributeName="stroke-dashoffset" values="12.145;12.145;0" keyTimes="0;0.952;1" dur="2.511s" fill="freeze" begin="0s;7464.click" /></path><path d="M47.26,33.96c1.65,1.17,6.59,6.12,7.96,8.74" stroke-dasharray="11.877" stroke-dashoffset="11.877"><animate attributeName="stroke-dashoffset" values="11.877" fill="freeze" begin="7464.click" /><animate attributeName="stroke-dashoffset" values="11.877;11.877;0" keyTimes="0;0.955;1" dur="2.63s" fill="freeze" begin="0s;7464.click" /></path><path d="M58.7,46.64c0.03,0.39,0.06,1.02-0.06,1.58c-0.74,3.34-5,10.66-10.82,15.14" stroke-dasharray="20.465" stroke-dashoffset="20.465"><animate attributeName="stroke-dashoffset" values="20.465" fill="freeze" begin="7464.click" /><animate attributeName="stroke-dashoffset" values="20.465;20.465;0" keyTimes="0;0.928;1" dur="2.835s" fill="freeze" begin="0s;7464.click" /></path><path d="M57.37,53.48c0.67,0.19,1.9,0.24,2.58,0.19c8.25-0.53,19.27-2.62,26.67-3.3c1.11-0.1,1.79,0.09,2.35,0.19" stroke-dasharray="31.844" stroke-dashoffset="31.844"><animate attributeName="stroke-dashoffset" values="31.844" fill="freeze" begin="7464.click" /><animate attributeName="stroke-dashoffset" values="31.844;31.844;0" keyTimes="0;0.899;1" dur="3.153s" fill="freeze" begin="0s;7464.click" /></path><path d="M44.13,69.89c1.08,0.34,3.06,0.39,4.13,0.34C59.49,69.67,81,66,93.85,65.66c1.8-0.05,2.88,0.16,3.77,0.33" stroke-dasharray="53.786" stroke-dashoffset="53.786"><animate attributeName="stroke-dashoffset" values="53.786" fill="freeze" begin="7464.click" /><animate attributeName="stroke-dashoffset" values="53.786;53.786;0" keyTimes="0;0.854;1" dur="3.691s" fill="freeze" begin="0s;7464.click" /></path><path d="M67.4,54.88c0.96,1.22,2.05,2.12,2.05,3.8c0,5.92-0.1,29.2-0.25,34.21" stroke-dasharray="38.639" stroke-dashoffset="38.639"><animate attributeName="stroke-dashoffset" values="38.639" fill="freeze" begin="7464.click" /><animate attributeName="stroke-dashoffset" values="38.639;38.639;0" keyTimes="0;0.905;1" dur="4.077s" fill="freeze" begin="0s;7464.click" /></path><path d="M48.6,79c0.54,0.28,1.08,1.46,1.08,2.03c-0.05,3.5-1.18,6.97-2,13.03c-0.17,1.27-0.25,2.64,1.07,2.34c11.51-2.64,32.41-5.15,39.16-5.3" stroke-dasharray="58.299" stroke-dashoffset="58.299"><animate attributeName="stroke-dashoffset" values="58.299" fill="freeze" begin="7464.click" /><animate attributeName="stroke-dashoffset" values="58.299;58.299;0" keyTimes="0;0.875;1" dur="4.66s" fill="freeze" begin="0s;7464.click" /></path><path d="M89.17,74.42c0.54,0.28,1.16,2.09,1.08,2.65c-0.53,3.43-1.49,11.43-1.95,18.57" stroke-dasharray="21.617" stroke-dashoffset="21.617"><animate attributeName="stroke-dashoffset" values="21.617" fill="freeze" begin="7464.click" /><animate attributeName="stroke-dashoffset" values="21.617;21.617;0" keyTimes="0;0.956;1" dur="4.876s" fill="freeze" begin="0s;7464.click" /></path></g></svg>