<svg xmlns="http://www.w3.org/2000/svg" viewBox="0 0 109 109" id="7469"><g fill="none" stroke="#666" stroke-width="6" stroke-linecap="round" stroke-linejoin="round"><g><g><g><path d="M21.5,17.68c3,2.13,6,7.88,6.25,11.31" /><path d="M49.65,16.37c0.77,0.52,0.41,2.44-0.29,3.25s-7.14,5.94-10.62,7.84" /><path d="M36.26,10.75c0.99,0.81,1,2.9,0.99,3.42C37,29,33.75,36.25,24.75,42.75" /><path d="M38.22,30.89c4.39,1.62,9.93,6.73,11.08,9.02" /></g><g><path d="M56.75,17.18c3.94,3.03,7.1,7.92,7.5,11.31" /><path d="M86.11,14.87c0.14,1.38-0.56,3.01-1.31,3.85c-0.75,0.84-8.04,5.03-11.81,6.99" /><path d="M71.34,9.75c0.91,0.69,0.91,2.04,0.91,2.49c0,14.76-4.75,22.76-13,28.26" /><path d="M73.47,29.14c4.49,1.93,10.15,8.04,11.33,10.77" /></g><g><path d="M19.91,47.19C19.79,50.64,17,59.69,16,61.75" /><path d="M19.72,51c3.53,0,49.75-5.25,67.47-5.25c12.06,0,3.81,5.75-0.69,9.5" /></g></g><g><g p5:partial xmlns:p5="http://kanjivg.tagaini.net"><path d="M29.94,60.87c0.98,0.44,4.16,0.54,5.15,0.45c12.57-1.07,18.34-1.88,37.4-3.45c1.5-0.12,2.88,0.09,4.13,0.46" /><path d="M52.74,61.47c0.69,0.83,1.38,1.65,1.38,3.04c0,4.68,0.34,25.04,0.17,29.71" /><path d="M29.16,76.43c0.91,0.41,3.91,0.63,4.84,0.54c9.19-0.99,28.79-2.39,38.21-2.97c1.13-0.07,3.63-0.17,5.32,0.19" /><path d="M18.24,95.62c0.83,0.28,4.04,0.3,5.45,0.23C40.25,95,70.75,93.49,86.39,93.4c2.27-0.01,4.99,0.47,6.13,0.92" /></g><g><path d="M66.3,80.49c4.88,1.72,9.06,5.37,10.11,7.51" /></g></g></g></g><g fill="none" stroke="#000" stroke-width="3" stroke-linecap="round" stroke-linejoin="round"><path d="M21.5,17.68c3,2.13,6,7.88,6.25,11.31" stroke-dasharray="13.217" stroke-dashoffset="13.217"><animate attributeName="stroke-dashoffset" values="13.217;13.217;0" dur="0.132s" fill="freeze" begin="0s;7469.click" /></path><path d="M49.65,16.37c0.77,0.52,0.41,2.44-0.29,3.25s-7.14,5.94-10.62,7.84" stroke-dasharray="16.762" stroke-dashoffset="16.762"><animate attributeName="stroke-dashoffset" values="16.762" fill="freeze" begin="7469.click" /><animate attributeName="stroke-dashoffset" values="16.762;16.762;0" keyTimes="0;0.44;1" dur="0.3s" fill="freeze" begin="0s;7469.click" /></path><path d="M36.26,10.75c0.99,0.81,1,2.9,0.99,3.42C37,29,33.75,36.25,24.75,42.75" stroke-dasharray="36.313" stroke-dashoffset="36.313"><animate attributeName="stroke-dashoffset" values="36.313" fill="freeze" begin="7469.click" /><animate attributeName="stroke-dashoffset" values="36.313;36.313;0" keyTimes="0;0.452;1" dur="0.663s" fill="freeze" begin="0s;7469.click" /></path><path d="M38.22,30.89c4.39,1.62,9.93,6.73,11.08,9.02" stroke-dasharray="14.487" stroke-dashoffset="14.487"><animate attributeName="stroke-dashoffset" values="14.487" fill="freeze" begin="7469.click" /><animate attributeName="stroke-dashoffset" values="14.487;14.487;0" keyTimes="0;0.821;1" dur="0.808s" fill="freeze" begin="0s;7469.click" /></path><path d="M56.75,17.18c3.94,3.03,7.1,7.92,7.5,11.31" stroke-dasharray="13.863" stroke-dashoffset="13.863"><animate attributeName="stroke-dashoffset" values="13.863" fill="freeze" begin="7469.click" /><animate attributeName="stroke-dashoffset" values="13.863;13.863;0" keyTimes="0;0.853;1" dur="0.947s" fill="freeze" begin="0s;7469.click" /></path><path d="M86.11,14.87c0.14,1.38-0.56,3.01-1.31,3.85c-0.75,0.84-8.04,5.03-11.81,6.99" stroke-dasharray="17.906" stroke-dashoffset="17.906"><animate attributeName="stroke-dashoffset" values="17.906" fill="freeze" begin="7469.click" /><animate attributeName="stroke-dashoffset" values="17.906;17.906;0" keyTimes="0;0.841;1" dur="1.126s" fill="freeze" begin="0s;7469.click" /></path><path d="M71.34,9.75c0.91,0.69,0.91,2.04,0.91,2.49c0,14.76-4.75,22.76-13,28.26" stroke-dasharray="35.351" stroke-dashoffset="35.351"><animate attributeName="stroke-dashoffset" values="35.351" fill="freeze" begin="7469.click" /><animate attributeName="stroke-dashoffset" values="35.351;35.351;0" keyTimes="0;0.761;1" dur="1.48s" fill="freeze" begin="0s;7469.click" /></path><path d="M73.47,29.14c4.49,1.93,10.15,8.04,11.33,10.77" stroke-dasharray="15.858" stroke-dashoffset="15.858"><animate attributeName="stroke-dashoffset" values="15.858" fill="freeze" begin="7469.click" /><animate attributeName="stroke-dashoffset" values="15.858;15.858;0" keyTimes="0;0.903;1" dur="1.639s" fill="freeze" begin="0s;7469.click" /></path><path d="M19.91,47.19C19.79,50.64,17,59.69,16,61.75" stroke-dasharray="15.124" stroke-dashoffset="15.124"><animate attributeName="stroke-dashoffset" values="15.124" fill="freeze" begin="7469.click" /><animate attributeName="stroke-dashoffset" values="15.124;15.124;0" keyTimes="0;0.916;1" dur="1.79s" fill="freeze" begin="0s;7469.click" /></path><path d="M19.72,51c3.53,0,49.75-5.25,67.47-5.25c12.06,0,3.81,5.75-0.69,9.5" stroke-dasharray="85.181" stroke-dashoffset="85.181"><animate attributeName="stroke-dashoffset" values="85.181" fill="freeze" begin="7469.click" /><animate attributeName="stroke-dashoffset" values="85.181;85.181;0" keyTimes="0;0.737;1" dur="2.43s" fill="freeze" begin="0s;7469.click" /></path><path d="M29.94,60.87c0.98,0.44,4.16,0.54,5.15,0.45c12.57-1.07,18.34-1.88,37.4-3.45c1.5-0.12,2.88,0.09,4.13,0.46" stroke-dasharray="46.936" stroke-dashoffset="46.936"><animate attributeName="stroke-dashoffset" values="46.936" fill="freeze" begin="7469.click" /><animate attributeName="stroke-dashoffset" values="46.936;46.936;0" keyTimes="0;0.838;1" dur="2.899s" fill="freeze" begin="0s;7469.click" /></path><path d="M52.74,61.47c0.69,0.83,1.38,1.65,1.38,3.04c0,4.68,0.34,25.04,0.17,29.71" stroke-dasharray="33.135" stroke-dashoffset="33.135"><animate attributeName="stroke-dashoffset" values="33.135" fill="freeze" begin="7469.click" /><animate attributeName="stroke-dashoffset" values="33.135;33.135;0" keyTimes="0;0.898;1" dur="3.23s" fill="freeze" begin="0s;7469.click" /></path><path d="M29.16,76.43c0.91,0.41,3.91,0.63,4.84,0.54c9.19-0.99,28.79-2.39,38.21-2.97c1.13-0.07,3.63-0.17,5.32,0.19" stroke-dasharray="48.56" stroke-dashoffset="48.56"><animate attributeName="stroke-dashoffset" values="48.56" fill="freeze" begin="7469.click" /><animate attributeName="stroke-dashoffset" values="48.56;48.56;0" keyTimes="0;0.869;1" dur="3.716s" fill="freeze" begin="0s;7469.click" /></path><path d="M18.24,95.62c0.83,0.28,4.04,0.3,5.45,0.23C40.25,95,70.75,93.49,86.39,93.4c2.27-0.01,4.99,0.47,6.13,0.92" stroke-dasharray="74.446" stroke-dashoffset="74.446"><animate attributeName="stroke-dashoffset" values="74.446" fill="freeze" begin="7469.click" /><animate attributeName="stroke-dashoffset" values="74.446;74.446;0" keyTimes="0;0.869;1" dur="4.276s" fill="freeze" begin="0s;7469.click" /></path><path d="M66.3,80.49c4.88,1.72,9.06,5.37,10.11,7.51" stroke-dasharray="12.821" stroke-dashoffset="12.821"><animate attributeName="stroke-dashoffset" values="12.821" fill="freeze" begin="7469.click" /><animate attributeName="stroke-dashoffset" values="12.821;12.821;0" keyTimes="0;0.971;1" dur="4.404s" fill="freeze" begin="0s;7469.click" /></path></g></svg>