<svg xmlns="http://www.w3.org/2000/svg" viewBox="0 0 109 109" id="746f"><g fill="none" stroke="#666" stroke-width="6" stroke-linecap="round" stroke-linejoin="round"><g><g p4:partial xmlns:p4="http://kanjivg.tagaini.net"><path d="M10.1,25.44c0.5,0.3,3.21,0.37,3.71,0.28c2.35-0.41,12.4-2.22,18.05-2.66c0.77-0.06,2.2-0.22,2.83,0.04" /><path d="M23.05,27.52c0.93,0.88,1.58,2.78,1.58,3.48c0,5.95,0.05,44.62-0.13,48.57" /><path d="M12.02,51.27c0.45,0.31,3.64,0.35,4.11,0.28c2.66-0.41,11.71-1.12,15.39-1.56c0.57-0.07,2.63-0.13,3.48,0.15" /><path d="M11.75,84.61c1,0.39,4.05,0.61,4.85,0.12c5.09-3.09,11.31-7.64,19.06-12.98" /></g><g><g><path d="M51.19,12.01c0.79,0.57,1.27,1.42,1.43,2.55c0.16,1.13,0.16,7.26,0.16,10.08" /><g><path d="M42.96,27.09c1.4-0.12,17.78-3,19.05-3.23c2.15-0.39,2.68,1.43,2.6,3.24c-0.35,7.66-1.93,18.64-2.67,26.4" /><path d="M43.21,39.83c3.56-0.49,13.45-2.02,18.84-2.36" /><path d="M43.12,53.58c3.85-0.53,10.63-1.58,18.62-1.64" /><path d="M41.25,24.44c0.8,0.57,1.27,2.55,1.43,3.68c0.14,1.03-0.09,49.8-0.09,59.84c0,2.66,0.97,2.55,1.89,1.68c3.23-3.04,8.54-6.87,12.13-9.65" /><path d="M65.28,58.14c0.02,0.26,0.05,0.67-0.05,1.05c-0.58,2.21-3.89,7.06-8.42,10.03" /><path d="M53.23,69.38c4.79,3.08,12.32,11.29,15.05,17.8" /></g></g><g><path d="M74.14,21.46c1.29,0.29,2.06,0.59,3.11,0.52c6.67-0.47,11.82-1.18,14.68-2.24c3.35-1.24,5.09,1.74,3.6,4.64c-1.49,2.9-6.82,15.48-9.43,19.62" /><path d="M85.5,44.61C105,56.75,97.75,89,86.48,78.13" /><path d="M77.33,22.25c0.42,1,0.41,2.25,0.58,3.25c0.18,1,0,65.75-0.17,72" /></g></g></g></g><g fill="none" stroke="#000" stroke-width="3" stroke-linecap="round" stroke-linejoin="round"><path d="M10.1,25.44c0.5,0.3,3.21,0.37,3.71,0.28c2.35-0.41,12.4-2.22,18.05-2.66c0.77-0.06,2.2-0.22,2.83,0.04" stroke-dasharray="24.844" stroke-dashoffset="24.844"><animate attributeName="stroke-dashoffset" values="24.844;24.844;0" dur="0.248s" fill="freeze" begin="0s;746f.click" /></path><path d="M23.05,27.52c0.93,0.88,1.58,2.78,1.58,3.48c0,5.95,0.05,44.62-0.13,48.57" stroke-dasharray="52.461" stroke-dashoffset="52.461"><animate attributeName="stroke-dashoffset" values="52.461" fill="freeze" begin="746f.click" /><animate attributeName="stroke-dashoffset" values="52.461;52.461;0" keyTimes="0;0.321;1" dur="0.773s" fill="freeze" begin="0s;746f.click" /></path><path d="M12.02,51.27c0.45,0.31,3.64,0.35,4.11,0.28c2.66-0.41,11.71-1.12,15.39-1.56c0.57-0.07,2.63-0.13,3.48,0.15" stroke-dasharray="23.112" stroke-dashoffset="23.112"><animate attributeName="stroke-dashoffset" values="23.112" fill="freeze" begin="746f.click" /><animate attributeName="stroke-dashoffset" values="23.112;23.112;0" keyTimes="0;0.77;1" dur="1.004s" fill="freeze" begin="0s;746f.click" /></path><path d="M11.75,84.61c1,0.39,4.05,0.61,4.85,0.12c5.09-3.09,11.31-7.64,19.06-12.98" stroke-dasharray="27.992" stroke-dashoffset="27.992"><animate attributeName="stroke-dashoffset" values="27.992" fill="freeze" begin="746f.click" /><animate attributeName="stroke-dashoffset" values="27.992;27.992;0" keyTimes="0;0.782;1" dur="1.284s" fill="freeze" begin="0s;746f.click" /></path><path d="M51.19,12.01c0.79,0.57,1.27,1.42,1.43,2.55c0.16,1.13,0.16,7.26,0.16,10.08" stroke-dasharray="13.093" stroke-dashoffset="13.093"><animate attributeName="stroke-dashoffset" values="13.093" fill="freeze" begin="746f.click" /><animate attributeName="stroke-dashoffset" values="13.093;13.093;0" keyTimes="0;0.907;1" dur="1.415s" fill="freeze" begin="0s;746f.click" /></path><path d="M42.96,27.09c1.4-0.12,17.78-3,19.05-3.23c2.15-0.39,2.68,1.43,2.6,3.24c-0.35,7.66-1.93,18.64-2.67,26.4" stroke-dasharray="50.827" stroke-dashoffset="50.827"><animate attributeName="stroke-dashoffset" values="50.827" fill="freeze" begin="746f.click" /><animate attributeName="stroke-dashoffset" values="50.827;50.827;0" keyTimes="0;0.736;1" dur="1.923s" fill="freeze" begin="0s;746f.click" /></path><path d="M43.21,39.83c3.56-0.49,13.45-2.02,18.84-2.36" stroke-dasharray="18.992" stroke-dashoffset="18.992"><animate attributeName="stroke-dashoffset" values="18.992" fill="freeze" begin="746f.click" /><animate attributeName="stroke-dashoffset" values="18.992;18.992;0" keyTimes="0;0.91;1" dur="2.113s" fill="freeze" begin="0s;746f.click" /></path><path d="M43.12,53.58c3.85-0.53,10.63-1.58,18.62-1.64" stroke-dasharray="18.709" stroke-dashoffset="18.709"><animate attributeName="stroke-dashoffset" values="18.709" fill="freeze" begin="746f.click" /><animate attributeName="stroke-dashoffset" values="18.709;18.709;0" keyTimes="0;0.919;1" dur="2.3s" fill="freeze" begin="0s;746f.click" /></path><path d="M41.25,24.44c0.8,0.57,1.27,2.55,1.43,3.68c0.14,1.03-0.09,49.8-0.09,59.84c0,2.66,0.97,2.55,1.89,1.68c3.23-3.04,8.54-6.87,12.13-9.65" stroke-dasharray="83.166" stroke-dashoffset="83.166"><animate attributeName="stroke-dashoffset" values="83.166" fill="freeze" begin="746f.click" /><animate attributeName="stroke-dashoffset" values="83.166;83.166;0" keyTimes="0;0.786;1" dur="2.925s" fill="freeze" begin="0s;746f.click" /></path><path d="M65.28,58.14c0.02,0.26,0.05,0.67-0.05,1.05c-0.58,2.21-3.89,7.06-8.42,10.03" stroke-dasharray="14.358" stroke-dashoffset="14.358"><animate attributeName="stroke-dashoffset" values="14.358" fill="freeze" begin="746f.click" /><animate attributeName="stroke-dashoffset" values="14.358;14.358;0" keyTimes="0;0.953;1" dur="3.069s" fill="freeze" begin="0s;746f.click" /></path><path d="M53.23,69.38c4.79,3.08,12.32,11.29,15.05,17.8" stroke-dasharray="23.563" stroke-dashoffset="23.563"><animate attributeName="stroke-dashoffset" values="23.563" fill="freeze" begin="746f.click" /><animate attributeName="stroke-dashoffset" values="23.563;23.563;0" keyTimes="0;0.929;1" dur="3.305s" fill="freeze" begin="0s;746f.click" /></path><path d="M74.14,21.46c1.29,0.29,2.06,0.59,3.11,0.52c6.67-0.47,11.82-1.18,14.68-2.24c3.35-1.24,5.09,1.74,3.6,4.64c-1.49,2.9-6.82,15.48-9.43,19.62" stroke-dasharray="47.895" stroke-dashoffset="47.895"><animate attributeName="stroke-dashoffset" values="47.895" fill="freeze" begin="746f.click" /><animate attributeName="stroke-dashoffset" values="47.895;47.895;0" keyTimes="0;0.873;1" dur="3.784s" fill="freeze" begin="0s;746f.click" /></path><path d="M85.5,44.61C105,56.75,97.75,89,86.48,78.13" stroke-dasharray="47.956" stroke-dashoffset="47.956"><animate attributeName="stroke-dashoffset" values="47.956" fill="freeze" begin="746f.click" /><animate attributeName="stroke-dashoffset" values="47.956;47.956;0" keyTimes="0;0.887;1" dur="4.264s" fill="freeze" begin="0s;746f.click" /></path><path d="M77.33,22.25c0.42,1,0.41,2.25,0.58,3.25c0.18,1,0,65.75-0.17,72" stroke-dasharray="75.315" stroke-dashoffset="75.315"><animate attributeName="stroke-dashoffset" values="75.315" fill="freeze" begin="746f.click" /><animate attributeName="stroke-dashoffset" values="75.315;75.315;0" keyTimes="0;0.883;1" dur="4.83s" fill="freeze" begin="0s;746f.click" /></path></g></svg>