<svg xmlns="http://www.w3.org/2000/svg" width="109" height="109" viewBox="0 0 109 109" id="7470"><g fill="none" stroke="#666" stroke-width="9" stroke-linecap="round" stroke-linejoin="round"><g><g p4:partial xmlns:p4="http://kanjivg.tagaini.net"><path d="M11.6,24.75c0.67,0.37,4.3,0.39,4.99,0.34c4.66-0.34,12.91-1.59,17.56-2.14c1.03-0.12,2.95-0.26,3.8,0.04" /><path d="M24.05,27.52c0.93,0.88,1.58,2.78,1.58,3.48c0,5.95,0.05,44.62-0.13,48.57" /><path d="M12.02,51.35c0.5,0.34,4.04,0.39,4.55,0.31c2.95-0.45,12.98-1.8,17.07-2.29c0.63-0.07,2.92-0.14,3.86,0.16" /><path d="M12.25,86.25c1.25,1,2.94,1.06,3.74,0.5C22.75,82,27.75,78,36.16,72.25" /></g><g><g><path d="M62.98,13c0.02,0.33,0.07,0.95-0.04,1.32c-1.32,4.65-3.28,8.92-6.72,12.68" /></g><g><path d="M44.25,27.12c0.7,1.23,1.31,2.06,1.38,2.8c0.73,7.95,1.86,17.13,2.6,28.15" /><path d="M45.67,28.45c10.6-0.56,29.59-1.99,37.51-2.53c2.91-0.2,4.1,1.58,3.79,3.87c-0.73,5.38-2.71,15.71-5.28,25.34" /><path d="M 64.183333,27.429917 c 0.91,0.91 0.97,1.99 0.96,3.33 -0.06,7.41 0.05,21.597277 0.05,23.797277" /><path d="M47.06,41.57c3.45-0.27,31.19-2.07,37.96-1.87" /><path d="M48.54,55.14c5.96,0,23.71-1.38,33.24-1.38" /></g><g><g><path d="M60.5,59.75 c 0.26,0.8 0.76,2.38 0.38,3.67 -2.93,9.83 -5.897775,25.83 -17.647775,34.58" /></g><g><path d="M70.36,56.87c0.66,1.19,1.18,2.59,1.22,4.43c0.18,8.19,0.03,13.51-0.29,24.61s6.38,11.3,12.65,11.3c10.27,0,13.52,0.55,13.52-8.94" /></g></g><g><path d="M84.74,60.72c0.22,0.42,0.14,2.33-0.07,2.84c-1.92,4.68-3.87,9.46-6.92,14.23c-0.97,1.51,0.06,2.98,1.45,2.51c5.3-1.8,7.8-2.55,12.43-4.44" /><path d="M88.77,69.43c1.65,1.92,5.27,9.54,5.68,12.54" /></g></g></g></g><g fill="none" stroke="#000" stroke-width="5" stroke-linecap="round" stroke-linejoin="round"><path d="M11.6,24.75c0.67,0.37,4.3,0.39,4.99,0.34c4.66-0.34,12.91-1.59,17.56-2.14c1.03-0.12,2.95-0.26,3.8,0.04" stroke-dasharray="26.538" stroke-dashoffset="26.538"><animate attributeName="stroke-dashoffset" values="26.538;26.538;0" dur="0.265s" fill="freeze" begin="0s;7470.click" /></path><path d="M24.05,27.52c0.93,0.88,1.58,2.78,1.58,3.48c0,5.95,0.05,44.62-0.13,48.57" stroke-dasharray="52.461" stroke-dashoffset="52.461"><animate attributeName="stroke-dashoffset" values="52.461" fill="freeze" begin="7470.click" /><animate attributeName="stroke-dashoffset" values="52.461;52.461;0" keyTimes="0;0.335;1" dur="0.79s" fill="freeze" begin="0s;7470.click" /></path><path d="M12.02,51.35c0.5,0.34,4.04,0.39,4.55,0.31c2.95-0.45,12.98-1.8,17.07-2.29c0.63-0.07,2.92-0.14,3.86,0.16" stroke-dasharray="25.689" stroke-dashoffset="25.689"><animate attributeName="stroke-dashoffset" values="25.689" fill="freeze" begin="7470.click" /><animate attributeName="stroke-dashoffset" values="25.689;25.689;0" keyTimes="0;0.755;1" dur="1.047s" fill="freeze" begin="0s;7470.click" /></path><path d="M12.25,86.25c1.25,1,2.94,1.06,3.74,0.5C22.75,82,27.75,78,36.16,72.25" stroke-dasharray="28.845" stroke-dashoffset="28.845"><animate attributeName="stroke-dashoffset" values="28.845" fill="freeze" begin="7470.click" /><animate attributeName="stroke-dashoffset" values="28.845;28.845;0" keyTimes="0;0.784;1" dur="1.335s" fill="freeze" begin="0s;7470.click" /></path><path d="M62.98,13c0.02,0.33,0.07,0.95-0.04,1.32c-1.32,4.65-3.28,8.92-6.72,12.68" stroke-dasharray="15.814" stroke-dashoffset="15.814"><animate attributeName="stroke-dashoffset" values="15.814" fill="freeze" begin="7470.click" /><animate attributeName="stroke-dashoffset" values="15.814;15.814;0" keyTimes="0;0.894;1" dur="1.493s" fill="freeze" begin="0s;7470.click" /></path><path d="M44.25,27.12c0.7,1.23,1.31,2.06,1.38,2.8c0.73,7.95,1.86,17.13,2.6,28.15" stroke-dasharray="31.414" stroke-dashoffset="31.414"><animate attributeName="stroke-dashoffset" values="31.414" fill="freeze" begin="7470.click" /><animate attributeName="stroke-dashoffset" values="31.414;31.414;0" keyTimes="0;0.826;1" dur="1.807s" fill="freeze" begin="0s;7470.click" /></path><path d="M45.67,28.45c10.6-0.56,29.59-1.99,37.51-2.53c2.91-0.2,4.1,1.58,3.79,3.87c-0.73,5.38-2.71,15.71-5.28,25.34" stroke-dasharray="69.917" stroke-dashoffset="69.917"><animate attributeName="stroke-dashoffset" values="69.917" fill="freeze" begin="7470.click" /><animate attributeName="stroke-dashoffset" values="69.917;69.917;0" keyTimes="0;0.775;1" dur="2.333s" fill="freeze" begin="0s;7470.click" /></path><path d="M 64.183333,27.429917 c 0.91,0.91 0.97,1.99 0.96,3.33 -0.06,7.41 0.05,21.597277 0.05,23.797277" stroke-dasharray="27.373" stroke-dashoffset="27.373"><animate attributeName="stroke-dashoffset" values="27.373" fill="freeze" begin="7470.click" /><animate attributeName="stroke-dashoffset" values="27.373;27.373;0" keyTimes="0;0.895;1" dur="2.607s" fill="freeze" begin="0s;7470.click" /></path><path d="M47.06,41.57c3.45-0.27,31.19-2.07,37.96-1.87" stroke-dasharray="38.014" stroke-dashoffset="38.014"><animate attributeName="stroke-dashoffset" values="38.014" fill="freeze" begin="7470.click" /><animate attributeName="stroke-dashoffset" values="38.014;38.014;0" keyTimes="0;0.873;1" dur="2.987s" fill="freeze" begin="0s;7470.click" /></path><path d="M48.54,55.14c5.96,0,23.71-1.38,33.24-1.38" stroke-dasharray="33.273" stroke-dashoffset="33.273"><animate attributeName="stroke-dashoffset" values="33.273" fill="freeze" begin="7470.click" /><animate attributeName="stroke-dashoffset" values="33.273;33.273;0" keyTimes="0;0.9;1" dur="3.32s" fill="freeze" begin="0s;7470.click" /></path><path d="M60.5,59.75 c 0.26,0.8 0.76,2.38 0.38,3.67 -2.93,9.83 -5.897775,25.83 -17.647775,34.58" stroke-dasharray="43.347" stroke-dashoffset="43.347"><animate attributeName="stroke-dashoffset" values="43.347" fill="freeze" begin="7470.click" /><animate attributeName="stroke-dashoffset" values="43.347;43.347;0" keyTimes="0;0.885;1" dur="3.753s" fill="freeze" begin="0s;7470.click" /></path><path d="M70.36,56.87c0.66,1.19,1.18,2.59,1.22,4.43c0.18,8.19,0.03,13.51-0.29,24.61s6.38,11.3,12.65,11.3c10.27,0,13.52,0.55,13.52-8.94" stroke-dasharray="69.112" stroke-dashoffset="69.112"><animate attributeName="stroke-dashoffset" values="69.112" fill="freeze" begin="7470.click" /><animate attributeName="stroke-dashoffset" values="69.112;69.112;0" keyTimes="0;0.878;1" dur="4.273s" fill="freeze" begin="0s;7470.click" /></path><path d="M84.74,60.72c0.22,0.42,0.14,2.33-0.07,2.84c-1.92,4.68-3.87,9.46-6.92,14.23c-0.97,1.51,0.06,2.98,1.45,2.51c5.3-1.8,7.8-2.55,12.43-4.44" stroke-dasharray="35.869" stroke-dashoffset="35.869"><animate attributeName="stroke-dashoffset" values="35.869" fill="freeze" begin="7470.click" /><animate attributeName="stroke-dashoffset" values="35.869;35.869;0" keyTimes="0;0.922;1" dur="4.632s" fill="freeze" begin="0s;7470.click" /></path><path d="M88.77,69.43c1.65,1.92,5.27,9.54,5.68,12.54" stroke-dasharray="13.851" stroke-dashoffset="13.851"><animate attributeName="stroke-dashoffset" values="13.851" fill="freeze" begin="7470.click" /><animate attributeName="stroke-dashoffset" values="13.851;13.851;0" keyTimes="0;0.971;1" dur="4.771s" fill="freeze" begin="0s;7470.click" /></path></g></svg>