<svg xmlns="http://www.w3.org/2000/svg" width="109" height="109" viewBox="0 0 109 109" id="747e"><g fill="none" stroke="#666" stroke-width="6" stroke-linecap="round" stroke-linejoin="round"><g><g p4:partial xmlns:p4="http://kanjivg.tagaini.net"><path d="M12.35,25.14c0.53,0.33,3.41,0.4,3.95,0.31c2.5-0.45,12.65-1.87,18.64-2.36c0.82-0.07,2.33-0.24,3.01,0.04" /><path d="M25.55,27.02c0.93,0.88,1.58,2.78,1.58,3.48c0,5.95,0.05,42.12-0.13,46.07" /><path d="M13.52,50c0.52,0.4,4.2,0.46,4.73,0.37c3.06-0.53,12.49-2.62,16.74-3.19c0.65-0.09,3.03-0.16,4.01,0.19" /><path d="M12.25,82.75c1.25,1,2.86,0.93,3.74,0.5c5.61-2.75,14.12-8.25,22.67-13" /></g><g><g><g><g><path d="M43.75,24.06c1.46,0.34,3.15,0.44,4.61,0.34c9.89-0.65,26.27-2.39,41.71-2.43c2.43-0.01,3.88,0.16,5.1,0.33" /><path d="M55.44,13.45c1.47,1.25,2.02,2.11,2.09,2.89C58.5,26.5,58.75,32,59.41,36" /></g></g><g><path d="M78.29,12.67c0.21,0.83,0.95,2.18,0.79,3.46C78.5,20.65,77.84,28.56,77,32.71" /></g><path d="M59.5,34.76c7.06-0.74,12.5-1.51,19.87-1.87" /></g><g><path d="M48.5,43.71c0.38,0.29,0.78,0.53,0.95,0.89c1.33,2.86,2.43,10.23,3.34,15.37" /><path d="M50.46,45.19c9.41-1.2,31.2-3.27,36.05-3.68c1.78-0.15,2.84,1.48,2.59,2.36C88.25,46.75,87,53,85.96,56.25" /><path d="M53.17,58.07c5.7-0.46,27.97-1.42,35.2-1.87" /><path d="M66.37,35.25c1.09,0.5,1.74,2.25,1.96,3.25c0.22,1,0.28,44.75,0.28,52" /><g><g><path d="M50.5,67.83c1.11,0.43,3.13,0.43,4.25,0.43c8-0.01,21-1.51,30.87-1.37c1.85,0.03,2.96,0.21,3.88,0.42" /></g><g><g><path d="M50.25,79.33c1.11,0.43,3.13,0.47,4.25,0.43C62,79.5,76,78.25,83.87,77.89c1.84-0.08,2.96,0.21,3.88,0.42" /></g><g><path d="M40.25,91.96c1.32,0.64,3.74,0.73,5.08,0.64c9.92-0.61,40.12-3.3,48.29-2.55c2.2,0.2,3.53,0.31,4.63,0.63" /></g></g></g></g></g></g></g><g fill="none" stroke="#000" stroke-width="3" stroke-linecap="round" stroke-linejoin="round"><path d="M12.35,25.14c0.53,0.33,3.41,0.4,3.95,0.31c2.5-0.45,12.65-1.87,18.64-2.36c0.82-0.07,2.33-0.24,3.01,0.04" stroke-dasharray="25.812" stroke-dashoffset="25.812"><animate attributeName="stroke-dashoffset" values="25.812;25.812;0" dur="0.258s" fill="freeze" begin="0s;747e.click" /></path><path d="M25.55,27.02c0.93,0.88,1.58,2.78,1.58,3.48c0,5.95,0.05,42.12-0.13,46.07" stroke-dasharray="49.961" stroke-dashoffset="49.961"><animate attributeName="stroke-dashoffset" values="49.961" fill="freeze" begin="747e.click" /><animate attributeName="stroke-dashoffset" values="49.961;49.961;0" keyTimes="0;0.34;1" dur="0.758s" fill="freeze" begin="0s;747e.click" /></path><path d="M13.52,50c0.52,0.4,4.2,0.46,4.73,0.37c3.06-0.53,12.49-2.62,16.74-3.19c0.65-0.09,3.03-0.16,4.01,0.19" stroke-dasharray="25.857" stroke-dashoffset="25.857"><animate attributeName="stroke-dashoffset" values="25.857" fill="freeze" begin="747e.click" /><animate attributeName="stroke-dashoffset" values="25.857;25.857;0" keyTimes="0;0.745;1" dur="1.017s" fill="freeze" begin="0s;747e.click" /></path><path d="M12.25,82.75c1.25,1,2.86,0.93,3.74,0.5c5.61-2.75,14.12-8.25,22.67-13" stroke-dasharray="30.102" stroke-dashoffset="30.102"><animate attributeName="stroke-dashoffset" values="30.102" fill="freeze" begin="747e.click" /><animate attributeName="stroke-dashoffset" values="30.102;30.102;0" keyTimes="0;0.772;1" dur="1.318s" fill="freeze" begin="0s;747e.click" /></path><path d="M43.75,24.06c1.46,0.34,3.15,0.44,4.61,0.34c9.89-0.65,26.27-2.39,41.71-2.43c2.43-0.01,3.88,0.16,5.1,0.33" stroke-dasharray="51.546" stroke-dashoffset="51.546"><animate attributeName="stroke-dashoffset" values="51.546" fill="freeze" begin="747e.click" /><animate attributeName="stroke-dashoffset" values="51.546;51.546;0" keyTimes="0;0.719;1" dur="1.833s" fill="freeze" begin="0s;747e.click" /></path><path d="M55.44,13.45c1.47,1.25,2.02,2.11,2.09,2.89C58.5,26.5,58.75,32,59.41,36" stroke-dasharray="23.404" stroke-dashoffset="23.404"><animate attributeName="stroke-dashoffset" values="23.404" fill="freeze" begin="747e.click" /><animate attributeName="stroke-dashoffset" values="23.404;23.404;0" keyTimes="0;0.887;1" dur="2.067s" fill="freeze" begin="0s;747e.click" /></path><path d="M78.29,12.67c0.21,0.83,0.95,2.18,0.79,3.46C78.5,20.65,77.84,28.56,77,32.71" stroke-dasharray="20.296" stroke-dashoffset="20.296"><animate attributeName="stroke-dashoffset" values="20.296" fill="freeze" begin="747e.click" /><animate attributeName="stroke-dashoffset" values="20.296;20.296;0" keyTimes="0;0.911;1" dur="2.27s" fill="freeze" begin="0s;747e.click" /></path><path d="M59.5,34.76c7.06-0.74,12.5-1.51,19.87-1.87" stroke-dasharray="19.963" stroke-dashoffset="19.963"><animate attributeName="stroke-dashoffset" values="19.963" fill="freeze" begin="747e.click" /><animate attributeName="stroke-dashoffset" values="19.963;19.963;0" keyTimes="0;0.919;1" dur="2.47s" fill="freeze" begin="0s;747e.click" /></path><path d="M48.5,43.71c0.38,0.29,0.78,0.53,0.95,0.89c1.33,2.86,2.43,10.23,3.34,15.37" stroke-dasharray="17.073" stroke-dashoffset="17.073"><animate attributeName="stroke-dashoffset" values="17.073" fill="freeze" begin="747e.click" /><animate attributeName="stroke-dashoffset" values="17.073;17.073;0" keyTimes="0;0.935;1" dur="2.641s" fill="freeze" begin="0s;747e.click" /></path><path d="M50.46,45.19c9.41-1.2,31.2-3.27,36.05-3.68c1.78-0.15,2.84,1.48,2.59,2.36C88.25,46.75,87,53,85.96,56.25" stroke-dasharray="53.019" stroke-dashoffset="53.019"><animate attributeName="stroke-dashoffset" values="53.019" fill="freeze" begin="747e.click" /><animate attributeName="stroke-dashoffset" values="53.019;53.019;0" keyTimes="0;0.833;1" dur="3.171s" fill="freeze" begin="0s;747e.click" /></path><path d="M53.17,58.07c5.7-0.46,27.97-1.42,35.2-1.87" stroke-dasharray="35.251" stroke-dashoffset="35.251"><animate attributeName="stroke-dashoffset" values="35.251" fill="freeze" begin="747e.click" /><animate attributeName="stroke-dashoffset" values="35.251;35.251;0" keyTimes="0;0.9;1" dur="3.524s" fill="freeze" begin="0s;747e.click" /></path><path d="M66.37,35.25c1.09,0.5,1.74,2.25,1.96,3.25c0.22,1,0.28,44.75,0.28,52" stroke-dasharray="55.912" stroke-dashoffset="55.912"><animate attributeName="stroke-dashoffset" values="55.912" fill="freeze" begin="747e.click" /><animate attributeName="stroke-dashoffset" values="55.912;55.912;0" keyTimes="0;0.863;1" dur="4.083s" fill="freeze" begin="0s;747e.click" /></path><path d="M50.5,67.83c1.11,0.43,3.13,0.43,4.25,0.43c8-0.01,21-1.51,30.87-1.37c1.85,0.03,2.96,0.21,3.88,0.42" stroke-dasharray="39.11" stroke-dashoffset="39.11"><animate attributeName="stroke-dashoffset" values="39.11" fill="freeze" begin="747e.click" /><animate attributeName="stroke-dashoffset" values="39.11;39.11;0" keyTimes="0;0.913;1" dur="4.474s" fill="freeze" begin="0s;747e.click" /></path><path d="M50.25,79.33c1.11,0.43,3.13,0.47,4.25,0.43C62,79.5,76,78.25,83.87,77.89c1.84-0.08,2.96,0.21,3.88,0.42" stroke-dasharray="37.643" stroke-dashoffset="37.643"><animate attributeName="stroke-dashoffset" values="37.643" fill="freeze" begin="747e.click" /><animate attributeName="stroke-dashoffset" values="37.643;37.643;0" keyTimes="0;0.922;1" dur="4.85s" fill="freeze" begin="0s;747e.click" /></path><path d="M40.25,91.96c1.32,0.64,3.74,0.73,5.08,0.64c9.92-0.61,40.12-3.3,48.29-2.55c2.2,0.2,3.53,0.31,4.63,0.63" stroke-dasharray="58.226" stroke-dashoffset="58.226"><animate attributeName="stroke-dashoffset" values="58.226" fill="freeze" begin="747e.click" /><animate attributeName="stroke-dashoffset" values="58.226;58.226;0" keyTimes="0;0.893;1" dur="5.432s" fill="freeze" begin="0s;747e.click" /></path></g></svg>