<svg xmlns="http://www.w3.org/2000/svg" width="109" height="109" viewBox="0 0 109 109" id="7483"><g fill="none" stroke="#666" stroke-width="9" stroke-linecap="round" stroke-linejoin="round"><g><g p4:partial xmlns:p4="http://kanjivg.tagaini.net"><path d="M 11.35,24.75 c 1.24,0.68 3.63,0.46 4.99,0.34 4.96,-0.45 10.35,-1.04 17.44,-2.02 1.45,-0.2 3.25,-0.59 4.67,-0.07" /><path d="M 25.05,27.77 c 1.09,1.09 1.33,2.36 1.33,3.98 0,5.95 -0.01,38.8 -0.01,45.12" /><path d="M 12.27,51.25 c 1.86,0.38 3.32,0.42 5.15,0.1 4.7,-0.83 12.24,-2.75 16.46,-3.55 1.36,-0.26 2.48,-0.47 3.87,-0.21" /><path d="M 11,82.75 c 1.38,1.38 2.62,1.62 4.49,0.75 C 21.14,80.85 27.5,77.25 37.41,72" /></g><g><g><path d="M 66.04,10.03 c 0.96,0.96 1.21,2.12 1.21,3.47 0,2.37 0.05,4.75 0.05,7.48" /><path d="M 45.17,23.9 c 3.01,0.48 5.82,0.11 8.83,-0.21 8.95,-0.94 23.18,-2.7 32.49,-3.33 2.48,-0.17 5.16,-0.59 7.58,0.14" /></g><g><g><g><path d="M 76.28,27.18 c 0.1,0.82 0.17,1.68 -0.35,2.51 -3.68,5.94 -8.8,11.81 -17.66,17.99" /></g><path d="M 60.31,31.6 C 66.5,34 75.16,40.58 78.4,45.05" /></g><g><path d="M 50.42,31.3 c 0.7,0.7 1.13,1.7 1.13,2.86 0,2.2 0.09,10.03 -0.01,14.34 -0.07,2.85 -0.02,4.25 3.12,3.81 6.16,-0.87 28.63,-3.43 32.26,-3.6" /><path d="M 87.38,27.08 c 0.96,0.96 1.39,2.02 1.34,3.17 -0.13,2.84 -0.29,10.01 -0.62,15.99 -0.11,1.95 -0.2,3.8 -0.28,5.37" /></g></g><g><g><path d="M 44.77,64.23 c 0.94,0.94 1.34,2.37 1.46,4.04 0.23,3.11 0.99,15.5 1.4,23.36 0.17,3.16 0.28,5.58 0.28,6.38" /><path d="M 46.88,65.96 c 5.89,-0.67 35.91,-4.21 43.88,-5.04 3.63,-0.38 5.3,0.33 4.91,4.21 -0.62,6.14 -3.09,20.95 -4.2,25.6 -2.06,8.65 -5.59,4.14 -8.24,0.94" /></g><path d="M 68.29,53.5 c 0.34,1.12 0.34,1.88 -0.15,3.08 -1.696769,8.965808 -3.522249,15.503892 -4.878855,23.216796" /><path d="M 58.589836,81.261554 c 4.84,-1.45 13.11,-4.14 18.82,-6.21" /><path d="M 74.12,69 c 2.89,2.29 7.47,9.41 8.19,12.97" /></g></g></g></g><g fill="none" stroke="#000" stroke-width="5" stroke-linecap="round" stroke-linejoin="round"><path d="M 11.35,24.75 c 1.24,0.68 3.63,0.46 4.99,0.34 4.96,-0.45 10.35,-1.04 17.44,-2.02 1.45,-0.2 3.25,-0.59 4.67,-0.07" stroke-dasharray="27.341" stroke-dashoffset="27.341"><animate attributeName="stroke-dashoffset" values="27.341;27.341;0" dur="0.273s" fill="freeze" begin="0s;7483.click" /></path><path d="M 25.05,27.77 c 1.09,1.09 1.33,2.36 1.33,3.98 0,5.95 -0.01,38.8 -0.01,45.12" stroke-dasharray="49.443" stroke-dashoffset="49.443"><animate attributeName="stroke-dashoffset" values="49.443" fill="freeze" begin="7483.click" /><animate attributeName="stroke-dashoffset" values="49.443;49.443;0" keyTimes="0;0.356;1" dur="0.767s" fill="freeze" begin="0s;7483.click" /></path><path d="M 12.27,51.25 c 1.86,0.38 3.32,0.42 5.15,0.1 4.7,-0.83 12.24,-2.75 16.46,-3.55 1.36,-0.26 2.48,-0.47 3.87,-0.21" stroke-dasharray="25.929" stroke-dashoffset="25.929"><animate attributeName="stroke-dashoffset" values="25.929" fill="freeze" begin="7483.click" /><animate attributeName="stroke-dashoffset" values="25.929;25.929;0" keyTimes="0;0.748;1" dur="1.026s" fill="freeze" begin="0s;7483.click" /></path><path d="M 11,82.75 c 1.38,1.38 2.62,1.62 4.49,0.75 C 21.14,80.85 27.5,77.25 37.41,72" stroke-dasharray="29.703" stroke-dashoffset="29.703"><animate attributeName="stroke-dashoffset" values="29.703" fill="freeze" begin="7483.click" /><animate attributeName="stroke-dashoffset" values="29.703;29.703;0" keyTimes="0;0.776;1" dur="1.323s" fill="freeze" begin="0s;7483.click" /></path><path d="M 66.04,10.03 c 0.96,0.96 1.21,2.12 1.21,3.47 0,2.37 0.05,4.75 0.05,7.48" stroke-dasharray="11.263" stroke-dashoffset="11.263"><animate attributeName="stroke-dashoffset" values="11.263" fill="freeze" begin="7483.click" /><animate attributeName="stroke-dashoffset" values="11.263;11.263;0" keyTimes="0;0.921;1" dur="1.436s" fill="freeze" begin="0s;7483.click" /></path><path d="M 45.17,23.9 c 3.01,0.48 5.82,0.11 8.83,-0.21 8.95,-0.94 23.18,-2.7 32.49,-3.33 2.48,-0.17 5.16,-0.59 7.58,0.14" stroke-dasharray="49.153" stroke-dashoffset="49.153"><animate attributeName="stroke-dashoffset" values="49.153" fill="freeze" begin="7483.click" /><animate attributeName="stroke-dashoffset" values="49.153;49.153;0" keyTimes="0;0.745;1" dur="1.928s" fill="freeze" begin="0s;7483.click" /></path><path d="M 76.28,27.18 c 0.1,0.82 0.17,1.68 -0.35,2.51 -3.68,5.94 -8.8,11.81 -17.66,17.99" stroke-dasharray="27.986" stroke-dashoffset="27.986"><animate attributeName="stroke-dashoffset" values="27.986" fill="freeze" begin="7483.click" /><animate attributeName="stroke-dashoffset" values="27.986;27.986;0" keyTimes="0;0.873;1" dur="2.208s" fill="freeze" begin="0s;7483.click" /></path><path d="M 60.31,31.6 C 66.5,34 75.16,40.58 78.4,45.05" stroke-dasharray="22.757" stroke-dashoffset="22.757"><animate attributeName="stroke-dashoffset" values="22.757" fill="freeze" begin="7483.click" /><animate attributeName="stroke-dashoffset" values="22.757;22.757;0" keyTimes="0;0.906;1" dur="2.436s" fill="freeze" begin="0s;7483.click" /></path><path d="M 50.42,31.3 c 0.7,0.7 1.13,1.7 1.13,2.86 0,2.2 0.09,10.03 -0.01,14.34 -0.07,2.85 -0.02,4.25 3.12,3.81 6.16,-0.87 28.63,-3.43 32.26,-3.6" stroke-dasharray="56.172" stroke-dashoffset="56.172"><animate attributeName="stroke-dashoffset" values="56.172" fill="freeze" begin="7483.click" /><animate attributeName="stroke-dashoffset" values="56.172;56.172;0" keyTimes="0;0.813;1" dur="2.998s" fill="freeze" begin="0s;7483.click" /></path><path d="M 87.38,27.08 c 0.96,0.96 1.39,2.02 1.34,3.17 -0.13,2.84 -0.29,10.01 -0.62,15.99 -0.11,1.95 -0.2,3.8 -0.28,5.37" stroke-dasharray="24.929" stroke-dashoffset="24.929"><animate attributeName="stroke-dashoffset" values="24.929" fill="freeze" begin="7483.click" /><animate attributeName="stroke-dashoffset" values="24.929;24.929;0" keyTimes="0;0.923;1" dur="3.247s" fill="freeze" begin="0s;7483.click" /></path><path d="M 44.77,64.23 c 0.94,0.94 1.34,2.37 1.46,4.04 0.23,3.11 0.99,15.5 1.4,23.36 0.17,3.16 0.28,5.58 0.28,6.38" stroke-dasharray="34.178" stroke-dashoffset="34.178"><animate attributeName="stroke-dashoffset" values="34.178" fill="freeze" begin="7483.click" /><animate attributeName="stroke-dashoffset" values="34.178;34.178;0" keyTimes="0;0.905;1" dur="3.589s" fill="freeze" begin="0s;7483.click" /></path><path d="M 46.88,65.96 c 5.89,-0.67 35.91,-4.21 43.88,-5.04 3.63,-0.38 5.3,0.33 4.91,4.21 -0.62,6.14 -3.09,20.95 -4.2,25.6 -2.06,8.65 -5.59,4.14 -8.24,0.94" stroke-dasharray="91.161" stroke-dashoffset="91.161"><animate attributeName="stroke-dashoffset" values="91.161" fill="freeze" begin="7483.click" /><animate attributeName="stroke-dashoffset" values="91.161;91.161;0" keyTimes="0;0.84;1" dur="4.274s" fill="freeze" begin="0s;7483.click" /></path><path d="M 68.29,53.5 c 0.34,1.12 0.34,1.88 -0.15,3.08 -1.696769,8.965808 -3.522249,15.503892 -4.878855,23.216796" stroke-dasharray="26.888" stroke-dashoffset="26.888"><animate attributeName="stroke-dashoffset" values="26.888" fill="freeze" begin="7483.click" /><animate attributeName="stroke-dashoffset" values="26.888;26.888;0" keyTimes="0;0.941;1" dur="4.543s" fill="freeze" begin="0s;7483.click" /></path><path d="M 58.589836,81.261554 c 4.84,-1.45 13.11,-4.14 18.82,-6.21" stroke-dasharray="19.821" stroke-dashoffset="19.821"><animate attributeName="stroke-dashoffset" values="19.821" fill="freeze" begin="7483.click" /><animate attributeName="stroke-dashoffset" values="19.821;19.821;0" keyTimes="0;0.958;1" dur="4.741s" fill="freeze" begin="0s;7483.click" /></path><path d="M 74.12,69 c 2.89,2.29 7.47,9.41 8.19,12.97" stroke-dasharray="15.519" stroke-dashoffset="15.519"><animate attributeName="stroke-dashoffset" values="15.519" fill="freeze" begin="7483.click" /><animate attributeName="stroke-dashoffset" values="15.519;15.519;0" keyTimes="0;0.968;1" dur="4.896s" fill="freeze" begin="0s;7483.click" /></path></g></svg>