<svg xmlns="http://www.w3.org/2000/svg" width="109" height="109" viewBox="0 0 109 109" id="748b"><g fill="none" stroke="#666" stroke-width="9" stroke-linecap="round" stroke-linejoin="round"><g><g p4:partial xmlns:p4="http://kanjivg.tagaini.net"><path d="M11.1,21.25c0.67,0.37,4.31,0.45,4.99,0.34c3.16-0.5,14.48-1.59,22.06-2.14c1.03-0.07,2.95-0.26,3.8,0.04" /><path d="M26.05,24.02c0.93,0.88,1.58,2.78,1.58,3.48c0,5.95,0.05,46.62-0.13,50.57" /><path d="M12.52,50c0.59,0.4,4.75,0.46,5.36,0.37c3.47-0.53,13.78-1.62,18.58-2.19c0.74-0.09,3.44-0.16,4.54,0.19" /><path d="M11.75,83.61c1.25,1.12,3.36,1.61,4.24,1.12c5.61-3.09,14.12-8.14,22.67-13.48" /></g><g><g><g><path d="M67.62,10.25c1.38,1,1.98,2.44,1.98,3.85s0,2.76,0,8.28" /><path d="M48.04,23.99c1.28,0.43,2.79,0.55,4.06,0.43c9.4-0.92,28.65-3.42,37.35-3.52c2.14-0.03,3.42,0.2,4.49,0.42" /></g><g><path d="M56.3,26.08c3.36,3.32,5.2,6.88,5.51,9.06" /><path d="M82.42,24.42c0.08,0.83,0.04,1.54-0.01,1.83c-0.39,2.02-3.49,7.34-4.47,8.88" /><path d="M42.23,38.95c1.41,0.37,3.06,0.46,4.46,0.37c10.28-0.66,29.6-3.47,47.14-3.76c2.35-0.04,3.76,0.18,4.94,0.37" /></g></g><g><g><path d="M51.59,45.83c0.63,0.96,0.94,1.45,1.67,2.56c1.04,1.6,2.75,13.19,3.78,18.85" /><path d="M53.64,47.26c3.56-0.16,28.41-3.34,31.65-3.34c2.17,0,2.78,1.46,2.38,4.47c-0.21,1.61-1.62,9.94-3.6,17.03" /><path d="M55.69,56.4c7.4-0.99,23.68-2.36,30.73-2.66" /><path d="M57.29,65.53c9.24-1.04,21.96-1.88,26.42-1.88" /></g><g><path d="M42.78,77.51c1.63,0.37,4.63,0.51,6.24,0.37C59.25,77,78.25,75,93.55,74.41c2.71-0.11,4.34,0.18,5.7,0.36" /><path d="M69.13,67.73c0.33,0.35,1.02,2.65,1.09,3.35c0.06,0.71-0.04,24.75-0.11,29.17" /></g></g></g></g></g><g fill="none" stroke="#000" stroke-width="5" stroke-linecap="round" stroke-linejoin="round"><g><g p4:partial xmlns:p4="http://kanjivg.tagaini.net"><path d="M11.1,21.25c0.67,0.37,4.31,0.45,4.99,0.34c3.16-0.5,14.48-1.59,22.06-2.14c1.03-0.07,2.95-0.26,3.8,0.04" stroke-dasharray="31.01" stroke-dashoffset="31.01"><animate id="0" attributeName="stroke-dashoffset" values="31.01;0" dur="0.31s" fill="freeze" begin="0s;748b.click" /></path><path d="M26.05,24.02c0.93,0.88,1.58,2.78,1.58,3.48c0,5.95,0.05,46.62-0.13,50.57" stroke-dasharray="54.46" stroke-dashoffset="54.46"><animate attributeName="stroke-dashoffset" values="54.46" fill="freeze" begin="748b.click" /><animate id="1" attributeName="stroke-dashoffset" values="54.46;0" dur="0.54s" fill="freeze" begin="0.end" /></path><path d="M12.52,50c0.59,0.4,4.75,0.46,5.36,0.37c3.47-0.53,13.78-1.62,18.58-2.19c0.74-0.09,3.44-0.16,4.54,0.19" stroke-dasharray="28.67" stroke-dashoffset="28.67"><animate attributeName="stroke-dashoffset" values="28.67" fill="freeze" begin="748b.click" /><animate id="2" attributeName="stroke-dashoffset" values="28.67;0" dur="0.29s" fill="freeze" begin="1.end" /></path><path d="M11.75,83.61c1.25,1.12,3.36,1.61,4.24,1.12c5.61-3.09,14.12-8.14,22.67-13.48" stroke-dasharray="30.97" stroke-dashoffset="30.97"><animate attributeName="stroke-dashoffset" values="30.97" fill="freeze" begin="748b.click" /><animate id="3" attributeName="stroke-dashoffset" values="30.97;0" dur="0.31s" fill="freeze" begin="2.end" /></path></g><g><g><g><path d="M67.62,10.25c1.38,1,1.98,2.44,1.98,3.85s0,2.76,0,8.28" stroke-dasharray="12.78" stroke-dashoffset="12.78"><animate attributeName="stroke-dashoffset" values="12.78" fill="freeze" begin="748b.click" /><animate id="4" attributeName="stroke-dashoffset" values="12.78;0" dur="0.13s" fill="freeze" begin="3.end" /></path><path d="M48.04,23.99c1.28,0.43,2.79,0.55,4.06,0.43c9.4-0.92,28.65-3.42,37.35-3.52c2.14-0.03,3.42,0.2,4.49,0.42" stroke-dasharray="46.16" stroke-dashoffset="46.16"><animate attributeName="stroke-dashoffset" values="46.16" fill="freeze" begin="748b.click" /><animate id="5" attributeName="stroke-dashoffset" values="46.16;0" dur="0.46s" fill="freeze" begin="4.end" /></path></g><g><path d="M56.3,26.08c3.36,3.32,5.2,6.88,5.51,9.06" stroke-dasharray="10.76" stroke-dashoffset="10.76"><animate attributeName="stroke-dashoffset" values="10.76" fill="freeze" begin="748b.click" /><animate id="6" attributeName="stroke-dashoffset" values="10.76;0" dur="0.11s" fill="freeze" begin="5.end" /></path><path d="M82.42,24.42c0.08,0.83,0.04,1.54-0.01,1.83c-0.39,2.02-3.49,7.34-4.47,8.88" stroke-dasharray="11.81" stroke-dashoffset="11.81"><animate attributeName="stroke-dashoffset" values="11.81" fill="freeze" begin="748b.click" /><animate id="7" attributeName="stroke-dashoffset" values="11.81;0" dur="0.12s" fill="freeze" begin="6.end" /></path><path d="M42.23,38.95c1.41,0.37,3.06,0.46,4.46,0.37c10.28-0.66,29.6-3.47,47.14-3.76c2.35-0.04,3.76,0.18,4.94,0.37" stroke-dasharray="56.76" stroke-dashoffset="56.76"><animate attributeName="stroke-dashoffset" values="56.76" fill="freeze" begin="748b.click" /><animate id="8" attributeName="stroke-dashoffset" values="56.76;0" dur="0.57s" fill="freeze" begin="7.end" /></path></g></g><g><g><path d="M51.59,45.83c0.63,0.96,0.94,1.45,1.67,2.56c1.04,1.6,2.75,13.19,3.78,18.85" stroke-dasharray="22.31" stroke-dashoffset="22.31"><animate attributeName="stroke-dashoffset" values="22.31" fill="freeze" begin="748b.click" /><animate id="9" attributeName="stroke-dashoffset" values="22.31;0" dur="0.22s" fill="freeze" begin="8.end" /></path><path d="M53.64,47.26c3.56-0.16,28.41-3.34,31.65-3.34c2.17,0,2.78,1.46,2.38,4.47c-0.21,1.61-1.62,9.94-3.6,17.03" stroke-dasharray="55.23" stroke-dashoffset="55.23"><animate attributeName="stroke-dashoffset" values="55.23" fill="freeze" begin="748b.click" /><animate id="10" attributeName="stroke-dashoffset" values="55.23;0" dur="0.55s" fill="freeze" begin="9.end" /></path><path d="M55.69,56.4c7.4-0.99,23.68-2.36,30.73-2.66" stroke-dasharray="30.85" stroke-dashoffset="30.85"><animate attributeName="stroke-dashoffset" values="30.85" fill="freeze" begin="748b.click" /><animate id="11" attributeName="stroke-dashoffset" values="30.85;0" dur="0.31s" fill="freeze" begin="10.end" /></path><path d="M57.29,65.53c9.24-1.04,21.96-1.88,26.42-1.88" stroke-dasharray="26.49" stroke-dashoffset="26.49"><animate attributeName="stroke-dashoffset" values="26.49" fill="freeze" begin="748b.click" /><animate id="12" attributeName="stroke-dashoffset" values="26.49;0" dur="0.26s" fill="freeze" begin="11.end" /></path></g><g><path d="M42.78,77.51c1.63,0.37,4.63,0.51,6.24,0.37C59.25,77,78.25,75,93.55,74.41c2.71-0.11,4.34,0.18,5.7,0.36" stroke-dasharray="56.66" stroke-dashoffset="56.66"><animate attributeName="stroke-dashoffset" values="56.66" fill="freeze" begin="748b.click" /><animate id="13" attributeName="stroke-dashoffset" values="56.66;0" dur="0.57s" fill="freeze" begin="12.end" /></path><path d="M69.13,67.73c0.33,0.35,1.02,2.65,1.09,3.35c0.06,0.71-0.04,24.75-0.11,29.17" stroke-dasharray="32.71" stroke-dashoffset="32.71"><animate attributeName="stroke-dashoffset" values="32.71" fill="freeze" begin="748b.click" /><animate id="14" attributeName="stroke-dashoffset" values="32.71;0" dur="0.33s" fill="freeze" begin="13.end" /></path></g></g></g></g></g></svg>