<svg xmlns="http://www.w3.org/2000/svg" viewBox="0 0 109 109" id="749e"><g fill="none" stroke="#666" stroke-width="6" stroke-linecap="round" stroke-linejoin="round"><g><g p4:partial xmlns:p4="http://kanjivg.tagaini.net"><path d="M14.1,24.53c0.53,0.29,3.38,0.35,3.91,0.27c2.47-0.39,12.52-1.64,18.46-2.06c0.81-0.06,2.31-0.21,2.98,0.03" /><path d="M25.55,26.02c0.93,0.88,1.58,2.78,1.58,3.48c0,5.95,0.05,44.62-0.13,48.57" /><path d="M12.77,50.89c0.53,0.36,4.24,0.41,4.78,0.33c3.09-0.47,13.62-1.89,17.9-2.4c0.66-0.08,3.06-0.15,4.05,0.17" /><path d="M12.5,85.15c1.24,1.08,3.83,1.05,4.7,0.58c5.56-2.98,11.49-8.35,19.96-13.49" /></g><g><path d="M60.55,14.39c1,1.36,1.7,2.67,1.7,3.76c0,3.35,0.25,9.6,0.6,13.77" /><path d="M73.05,12.39c1,1.59,1.2,2.54,1.2,3.81c0,1.27,0,11.55-0.4,14.71" /><path d="M48.02,19.83c2.4,1.39,6.19,5.72,6.79,7.88" /><path d="M87.28,16.14c0.02,0.33,0.14,0.87-0.04,1.31c-1.5,3.8-4,8.05-6.69,12.52" /><path d="M43.5,33.4c1.47,0.37,4.18,0.45,5.64,0.37c10.11-0.52,27.96-3.76,41.95-3.76c2.45,0,3.93,0.18,5.15,0.36" /><path d="M57.52,35.83c1.51,1.48,3.91,6.08,4.29,8.38" /><path d="M78.54,34.64c0.02,0.25,0.03,0.64-0.03,1c-0.39,2.11-2.63,6.74-5.7,9.57" /><g><g><path d="M47.5,48.47c1.07,0.39,3.03,0.49,4.09,0.39c5.86-0.55,26.03-3.44,36.17-3.44c1.78,0,2.85,0.19,3.74,0.38" /></g><g><g><path d="M50.5,59.9c1.02,0.37,2.89,0.47,3.9,0.37C60,59.75,77.75,58,85.93,57.51c1.7-0.1,2.72,0.18,3.57,0.36" /></g><g><path d="M43.5,73.9c1.4,0.37,3.95,0.47,5.35,0.37c7.66-0.52,29.51-3.26,42.77-3.26c2.32,0,3.72,0.18,4.88,0.36" /></g></g></g><g><path d="M67.78,50.25c0.47,1,0.87,2.79,0.86,4.38C68.5,69.75,62.75,89.75,42.25,97.5" /><path d="M68.4,72.73c3.1,3.52,14.89,15.62,23.7,21.79c1.37,0.96,2.37,1.6,3.65,1.92" /></g></g></g></g><g fill="none" stroke="#000" stroke-width="3" stroke-linecap="round" stroke-linejoin="round"><path d="M14.1,24.53c0.53,0.29,3.38,0.35,3.91,0.27c2.47-0.39,12.52-1.64,18.46-2.06c0.81-0.06,2.31-0.21,2.98,0.03" stroke-dasharray="25.514" stroke-dashoffset="25.514"><animate attributeName="stroke-dashoffset" values="25.514;25.514;0" dur="0.255s" fill="freeze" begin="0s;749e.click" /></path><path d="M25.55,26.02c0.93,0.88,1.58,2.78,1.58,3.48c0,5.95,0.05,44.62-0.13,48.57" stroke-dasharray="52.461" stroke-dashoffset="52.461"><animate attributeName="stroke-dashoffset" values="52.461" fill="freeze" begin="749e.click" /><animate attributeName="stroke-dashoffset" values="52.461;52.461;0" keyTimes="0;0.327;1" dur="0.78s" fill="freeze" begin="0s;749e.click" /></path><path d="M12.77,50.89c0.53,0.36,4.24,0.41,4.78,0.33c3.09-0.47,13.62-1.89,17.9-2.4c0.66-0.08,3.06-0.15,4.05,0.17" stroke-dasharray="26.95" stroke-dashoffset="26.95"><animate attributeName="stroke-dashoffset" values="26.95" fill="freeze" begin="749e.click" /><animate attributeName="stroke-dashoffset" values="26.95;26.95;0" keyTimes="0;0.743;1" dur="1.05s" fill="freeze" begin="0s;749e.click" /></path><path d="M12.5,85.15c1.24,1.08,3.83,1.05,4.7,0.58c5.56-2.98,11.49-8.35,19.96-13.49" stroke-dasharray="29.039" stroke-dashoffset="29.039"><animate attributeName="stroke-dashoffset" values="29.039" fill="freeze" begin="749e.click" /><animate attributeName="stroke-dashoffset" values="29.039;29.039;0" keyTimes="0;0.784;1" dur="1.34s" fill="freeze" begin="0s;749e.click" /></path><path d="M60.55,14.39c1,1.36,1.7,2.67,1.7,3.76c0,3.35,0.25,9.6,0.6,13.77" stroke-dasharray="17.976" stroke-dashoffset="17.976"><animate attributeName="stroke-dashoffset" values="17.976" fill="freeze" begin="749e.click" /><animate attributeName="stroke-dashoffset" values="17.976;17.976;0" keyTimes="0;0.882;1" dur="1.52s" fill="freeze" begin="0s;749e.click" /></path><path d="M73.05,12.39c1,1.59,1.2,2.54,1.2,3.81c0,1.27,0,11.55-0.4,14.71" stroke-dasharray="18.782" stroke-dashoffset="18.782"><animate attributeName="stroke-dashoffset" values="18.782" fill="freeze" begin="749e.click" /><animate attributeName="stroke-dashoffset" values="18.782;18.782;0" keyTimes="0;0.89;1" dur="1.708s" fill="freeze" begin="0s;749e.click" /></path><path d="M48.02,19.83c2.4,1.39,6.19,5.72,6.79,7.88" stroke-dasharray="10.549" stroke-dashoffset="10.549"><animate attributeName="stroke-dashoffset" values="10.549" fill="freeze" begin="749e.click" /><animate attributeName="stroke-dashoffset" values="10.549;10.549;0" keyTimes="0;0.942;1" dur="1.813s" fill="freeze" begin="0s;749e.click" /></path><path d="M87.28,16.14c0.02,0.33,0.14,0.87-0.04,1.31c-1.5,3.8-4,8.05-6.69,12.52" stroke-dasharray="15.536" stroke-dashoffset="15.536"><animate attributeName="stroke-dashoffset" values="15.536" fill="freeze" begin="749e.click" /><animate attributeName="stroke-dashoffset" values="15.536;15.536;0" keyTimes="0;0.921;1" dur="1.968s" fill="freeze" begin="0s;749e.click" /></path><path d="M43.5,33.4c1.47,0.37,4.18,0.45,5.64,0.37c10.11-0.52,27.96-3.76,41.95-3.76c2.45,0,3.93,0.18,5.15,0.36" stroke-dasharray="52.975" stroke-dashoffset="52.975"><animate attributeName="stroke-dashoffset" values="52.975" fill="freeze" begin="749e.click" /><animate attributeName="stroke-dashoffset" values="52.975;52.975;0" keyTimes="0;0.788;1" dur="2.498s" fill="freeze" begin="0s;749e.click" /></path><path d="M57.52,35.83c1.51,1.48,3.91,6.08,4.29,8.38" stroke-dasharray="9.503" stroke-dashoffset="9.503"><animate attributeName="stroke-dashoffset" values="9.503" fill="freeze" begin="749e.click" /><animate attributeName="stroke-dashoffset" values="9.503;9.503;0" keyTimes="0;0.963;1" dur="2.593s" fill="freeze" begin="0s;749e.click" /></path><path d="M78.54,34.64c0.02,0.25,0.03,0.64-0.03,1c-0.39,2.11-2.63,6.74-5.7,9.57" stroke-dasharray="12.282" stroke-dashoffset="12.282"><animate attributeName="stroke-dashoffset" values="12.282" fill="freeze" begin="749e.click" /><animate attributeName="stroke-dashoffset" values="12.282;12.282;0" keyTimes="0;0.955;1" dur="2.716s" fill="freeze" begin="0s;749e.click" /></path><path d="M47.5,48.47c1.07,0.39,3.03,0.49,4.09,0.39c5.86-0.55,26.03-3.44,36.17-3.44c1.78,0,2.85,0.19,3.74,0.38" stroke-dasharray="44.25" stroke-dashoffset="44.25"><animate attributeName="stroke-dashoffset" values="44.25" fill="freeze" begin="749e.click" /><animate attributeName="stroke-dashoffset" values="44.25;44.25;0" keyTimes="0;0.86;1" dur="3.158s" fill="freeze" begin="0s;749e.click" /></path><path d="M50.5,59.9c1.02,0.37,2.89,0.47,3.9,0.37C60,59.75,77.75,58,85.93,57.51c1.7-0.1,2.72,0.18,3.57,0.36" stroke-dasharray="39.196" stroke-dashoffset="39.196"><animate attributeName="stroke-dashoffset" values="39.196" fill="freeze" begin="749e.click" /><animate attributeName="stroke-dashoffset" values="39.196;39.196;0" keyTimes="0;0.89;1" dur="3.55s" fill="freeze" begin="0s;749e.click" /></path><path d="M43.5,73.9c1.4,0.37,3.95,0.47,5.35,0.37c7.66-0.52,29.51-3.26,42.77-3.26c2.32,0,3.72,0.18,4.88,0.36" stroke-dasharray="53.188" stroke-dashoffset="53.188"><animate attributeName="stroke-dashoffset" values="53.188" fill="freeze" begin="749e.click" /><animate attributeName="stroke-dashoffset" values="53.188;53.188;0" keyTimes="0;0.87;1" dur="4.082s" fill="freeze" begin="0s;749e.click" /></path><path d="M67.78,50.25c0.47,1,0.87,2.79,0.86,4.38C68.5,69.75,62.75,89.75,42.25,97.5" stroke-dasharray="58.189" stroke-dashoffset="58.189"><animate attributeName="stroke-dashoffset" values="58.189" fill="freeze" begin="749e.click" /><animate attributeName="stroke-dashoffset" values="58.189;58.189;0" keyTimes="0;0.875;1" dur="4.664s" fill="freeze" begin="0s;749e.click" /></path><path d="M68.4,72.73c3.1,3.52,14.89,15.62,23.7,21.79c1.37,0.96,2.37,1.6,3.65,1.92" stroke-dasharray="36.397" stroke-dashoffset="36.397"><animate attributeName="stroke-dashoffset" values="36.397" fill="freeze" begin="749e.click" /><animate attributeName="stroke-dashoffset" values="36.397;36.397;0" keyTimes="0;0.928;1" dur="5.028s" fill="freeze" begin="0s;749e.click" /></path></g></svg>