<svg xmlns="http://www.w3.org/2000/svg" width="109" height="109" viewBox="0 0 109 109" id="74a2"><g fill="none" stroke="#666" stroke-width="9" stroke-linecap="round" stroke-linejoin="round"><g><g p4:partial xmlns:p4="http://kanjivg.tagaini.net"><path d="M12.25,21.76c0.58,0.38,3.7,0.46,4.28,0.35c2.71-0.51,13.71-1.12,20.21-1.68c0.89-0.08,2.53-0.27,3.26,0.04" /><path d="M24.57,24.52c0.87,0.88,1.48,2.78,1.48,3.48c0,5.95,0.02,46.62-0.15,50.57" /><path d="M12.75,49.18c0.49,0.27,3.95,0.31,4.45,0.25c2.88-0.36,13.53-2.43,17.52-2.82c0.61-0.06,2.85-0.11,3.77,0.13" /><path d="M11.75,86.07c0.59,0.33,2.85,0.76,3.72,0.15C21.04,82.28,28.5,77.05,37,70.25" /></g><g><g><path d="M46.8,19.57c1.1,0.31,3.13,0.35,4.23,0.31c11.03-0.43,27.66-3.54,40.47-3.53c1.84,0,2.94,0.15,3.86,0.3" /><path d="M61.53,19.56c1,0.83,1.28,2.66,1.28,4.12c0,3.32-0.02,36.33-0.02,40.85" /><path d="M47.94,36.27c2.36-0.19,12.18-1.61,14.11-1.8" /><path d="M45.98,35.3c0.92,0.81,1.12,1.65,1.13,2.79c0.03,2.41-0.13,8.04-0.23,11.36c-0.02,0.72,0.17,1.5,1.86,1.26c3.85-0.55,9.28-1.22,13.24-1.91" /><path d="M77.53,33.25c3.85-0.55,12.87-1.92,16.82-2.68c1.64-0.32,2.38,1.62,2.01,2.86c-0.7,2.38-1.93,7.73-2.65,11.89" /><path d="M77.23,47.24c2.36-0.19,16.54-1.23,18.47-1.42" /><path d="M75.24,16.88c0.85,0.7,1.51,1.85,1.51,3.08c0,2.8-0.02,39.73-0.02,43.54" /></g><g><path d="M46.85,66.83c0.34,0.5,1.44,1.82,1.52,2.46c0.88,6.46,1.85,16.82,2.73,26.21" /><path d="M48.43,67.6c13.07-1.1,32.81-3.38,41.7-3.88c3.27-0.18,4.43,2.79,4.25,4.16c-0.65,5.01-2.13,17.37-4.01,26.32" /><path d="M68.6,66.46c0.73,0.52,1.51,2.42,1.5,3.16c-0.04,4.85,0.17,20.28,0.17,22.04" /><path d="M50.06,79.68c3.88-0.25,39.94-3.73,43.15-3.73" /><path d="M51.22,93.68C62.75,93,78.64,91.54,90.47,91.4" /></g></g></g></g><g fill="none" stroke="#000" stroke-width="5" stroke-linecap="round" stroke-linejoin="round"><path d="M12.25,21.76c0.58,0.38,3.7,0.46,4.28,0.35c2.71-0.51,13.71-1.12,20.21-1.68c0.89-0.08,2.53-0.27,3.26,0.04" stroke-dasharray="27.894" stroke-dashoffset="27.894"><animate attributeName="stroke-dashoffset" values="27.894;27.894;0" dur="0.279s" fill="freeze" begin="0s;74a2.click" /></path><path d="M24.57,24.52c0.87,0.88,1.48,2.78,1.48,3.48c0,5.95,0.02,46.62-0.15,50.57" stroke-dasharray="54.414" stroke-dashoffset="54.414"><animate attributeName="stroke-dashoffset" values="54.414" fill="freeze" begin="74a2.click" /><animate attributeName="stroke-dashoffset" values="54.414;54.414;0" keyTimes="0;0.339;1" dur="0.823s" fill="freeze" begin="0s;74a2.click" /></path><path d="M12.75,49.18c0.49,0.27,3.95,0.31,4.45,0.25c2.88-0.36,13.53-2.43,17.52-2.82c0.61-0.06,2.85-0.11,3.77,0.13" stroke-dasharray="26.005" stroke-dashoffset="26.005"><animate attributeName="stroke-dashoffset" values="26.005" fill="freeze" begin="74a2.click" /><animate attributeName="stroke-dashoffset" values="26.005;26.005;0" keyTimes="0;0.76;1" dur="1.083s" fill="freeze" begin="0s;74a2.click" /></path><path d="M11.75,86.07c0.59,0.33,2.85,0.76,3.72,0.15C21.04,82.28,28.5,77.05,37,70.25" stroke-dasharray="30.647" stroke-dashoffset="30.647"><animate attributeName="stroke-dashoffset" values="30.647" fill="freeze" begin="74a2.click" /><animate attributeName="stroke-dashoffset" values="30.647;30.647;0" keyTimes="0;0.78;1" dur="1.389s" fill="freeze" begin="0s;74a2.click" /></path><path d="M46.8,19.57c1.1,0.31,3.13,0.35,4.23,0.31c11.03-0.43,27.66-3.54,40.47-3.53c1.84,0,2.94,0.15,3.86,0.3" stroke-dasharray="48.774" stroke-dashoffset="48.774"><animate attributeName="stroke-dashoffset" values="48.774" fill="freeze" begin="74a2.click" /><animate attributeName="stroke-dashoffset" values="48.774;48.774;0" keyTimes="0;0.74;1" dur="1.877s" fill="freeze" begin="0s;74a2.click" /></path><path d="M61.53,19.56c1,0.83,1.28,2.66,1.28,4.12c0,3.32-0.02,36.33-0.02,40.85" stroke-dasharray="45.289" stroke-dashoffset="45.289"><animate attributeName="stroke-dashoffset" values="45.289" fill="freeze" begin="74a2.click" /><animate attributeName="stroke-dashoffset" values="45.289;45.289;0" keyTimes="0;0.806;1" dur="2.33s" fill="freeze" begin="0s;74a2.click" /></path><path d="M47.94,36.27c2.36-0.19,12.18-1.61,14.11-1.8" stroke-dasharray="14.226" stroke-dashoffset="14.226"><animate attributeName="stroke-dashoffset" values="14.226" fill="freeze" begin="74a2.click" /><animate attributeName="stroke-dashoffset" values="14.226;14.226;0" keyTimes="0;0.943;1" dur="2.472s" fill="freeze" begin="0s;74a2.click" /></path><path d="M45.98,35.3c0.92,0.81,1.12,1.65,1.13,2.79c0.03,2.41-0.13,8.04-0.23,11.36c-0.02,0.72,0.17,1.5,1.86,1.26c3.85-0.55,9.28-1.22,13.24-1.91" stroke-dasharray="30.573" stroke-dashoffset="30.573"><animate attributeName="stroke-dashoffset" values="30.573" fill="freeze" begin="74a2.click" /><animate attributeName="stroke-dashoffset" values="30.573;30.573;0" keyTimes="0;0.89;1" dur="2.778s" fill="freeze" begin="0s;74a2.click" /></path><path d="M77.53,33.25c3.85-0.55,12.87-1.92,16.82-2.68c1.64-0.32,2.38,1.62,2.01,2.86c-0.7,2.38-1.93,7.73-2.65,11.89" stroke-dasharray="33.401" stroke-dashoffset="33.401"><animate attributeName="stroke-dashoffset" values="33.401" fill="freeze" begin="74a2.click" /><animate attributeName="stroke-dashoffset" values="33.401;33.401;0" keyTimes="0;0.893;1" dur="3.112s" fill="freeze" begin="0s;74a2.click" /></path><path d="M77.23,47.24c2.36-0.19,16.54-1.23,18.47-1.42" stroke-dasharray="18.526" stroke-dashoffset="18.526"><animate attributeName="stroke-dashoffset" values="18.526" fill="freeze" begin="74a2.click" /><animate attributeName="stroke-dashoffset" values="18.526;18.526;0" keyTimes="0;0.944;1" dur="3.297s" fill="freeze" begin="0s;74a2.click" /></path><path d="M75.24,16.88c0.85,0.7,1.51,1.85,1.51,3.08c0,2.8-0.02,39.73-0.02,43.54" stroke-dasharray="47.08" stroke-dashoffset="47.08"><animate attributeName="stroke-dashoffset" values="47.08" fill="freeze" begin="74a2.click" /><animate attributeName="stroke-dashoffset" values="47.08;47.08;0" keyTimes="0;0.875;1" dur="3.768s" fill="freeze" begin="0s;74a2.click" /></path><path d="M46.85,66.83c0.34,0.5,1.44,1.82,1.52,2.46c0.88,6.46,1.85,16.82,2.73,26.21" stroke-dasharray="29.265" stroke-dashoffset="29.265"><animate attributeName="stroke-dashoffset" values="29.265" fill="freeze" begin="74a2.click" /><animate attributeName="stroke-dashoffset" values="29.265;29.265;0" keyTimes="0;0.928;1" dur="4.061s" fill="freeze" begin="0s;74a2.click" /></path><path d="M48.43,67.6c13.07-1.1,32.81-3.38,41.7-3.88c3.27-0.18,4.43,2.79,4.25,4.16c-0.65,5.01-2.13,17.37-4.01,26.32" stroke-dasharray="75.26" stroke-dashoffset="75.26"><animate attributeName="stroke-dashoffset" values="75.26" fill="freeze" begin="74a2.click" /><animate attributeName="stroke-dashoffset" values="75.26;75.26;0" keyTimes="0;0.878;1" dur="4.627s" fill="freeze" begin="0s;74a2.click" /></path><path d="M68.6,66.46c0.73,0.52,1.51,2.42,1.5,3.16c-0.04,4.85,0.17,20.28,0.17,22.04" stroke-dasharray="25.614" stroke-dashoffset="25.614"><animate attributeName="stroke-dashoffset" values="25.614" fill="freeze" begin="74a2.click" /><animate attributeName="stroke-dashoffset" values="25.614;25.614;0" keyTimes="0;0.948;1" dur="4.883s" fill="freeze" begin="0s;74a2.click" /></path><path d="M50.06,79.68c3.88-0.25,39.94-3.73,43.15-3.73" stroke-dasharray="43.314" stroke-dashoffset="43.314"><animate attributeName="stroke-dashoffset" values="43.314" fill="freeze" begin="74a2.click" /><animate attributeName="stroke-dashoffset" values="43.314;43.314;0" keyTimes="0;0.919;1" dur="5.316s" fill="freeze" begin="0s;74a2.click" /></path><path d="M51.22,93.68C62.75,93,78.64,91.54,90.47,91.4" stroke-dasharray="39.322" stroke-dashoffset="39.322"><animate attributeName="stroke-dashoffset" values="39.322" fill="freeze" begin="74a2.click" /><animate attributeName="stroke-dashoffset" values="39.322;39.322;0" keyTimes="0;0.931;1" dur="5.709s" fill="freeze" begin="0s;74a2.click" /></path></g></svg>