<svg xmlns="http://www.w3.org/2000/svg" width="109" height="109" viewBox="0 0 109 109" id="74a7"><g fill="none" stroke="#666" stroke-width="9" stroke-linecap="round" stroke-linejoin="round"><g><g><g><g><g><path d="M21.38,16.15c1.13,0.34,2.32,0.65,3.52,0.58c6.46-0.38,18.07-2.47,20.66-2.61c1.28-0.07,2.45,0.87,2.18,1.86c-0.67,2.45-2.04,6.7-3.1,12.14" /><path d="M23.92,29.85c3.24-0.11,15.07-1.62,23.42-2.09" /><path d="M24.15,17.5c0.35,1.5,0.21,2.89,0.21,4.51c0,9.24-4.2,27.03-13.06,34.53" /></g><g><path d="M23.59,41.87c0.17,0.54,0.75,1.76,0.81,2.17c0.43,2.99,2.25,8.91,2.85,14.58" /><path d="M24.46,43.24c4.79-0.6,19.59-3.15,22.86-3.25c1.35-0.04,1.86,1.76,1.67,2.65c-0.74,3.54-2.56,8.37-3.28,12.89" /><path d="M28.01,57.2c3.96-0.25,15.08-1.39,19.83-1.71" /></g></g></g><g><g><g><path d="M70.5,9.09c1.26,0.92,1.88,0.92,1.88,3.05c0,2.14,0,3.46,0,6.27" /><path d="M55.11,19.58c1.24,0.53,2.69,0.61,3.92,0.53c6.98-0.46,17.64-2.05,28.2-2.44c2.06-0.08,3.3,0.25,4.33,0.52" /></g><g><path d="M59.83,23.01c2.83,3.54,4.12,7.15,4.37,9.48" /><path d="M82.5,21.68c0.53,0.39,0.18,1.83,0.03,2.12C81,26.75,77.05,31.79,76,33.47" /><path d="M51.47,35.45c1.49,0.57,3.24,0.62,4.73,0.57c9.53-0.32,21.86-2.22,33.02-2.55c2.49-0.07,3.99,0.27,5.23,0.56" /></g></g><g><path d="M53.83,48.42c1.16,0.32,3.28,0.41,4.44,0.32c14.71-1.06,17.02-1.42,30.65-2.11c1.92-0.1,3.08,0.15,4.05,0.32" /><path d="M70.76,35.57c0.44,0.28,1.38,2.09,1.47,2.64c0.51,3.2-0.13,22.76-0.15,23.58" /></g></g></g><g><g p5:partial xmlns:p5="http://kanjivg.tagaini.net"><path d="M29.94,69.72c1.12,0.6,4.76,0.69,5.9,0.61c10.68-0.77,29.52-2.96,43.81-3.47c1.73-0.06,3.3,0.12,4.72,0.62" /><path d="M52.81,68.97c0.64,0.77,1.27,1.53,1.27,2.8c0,4.32,0.16,18.47,0.16,23.7" /><path d="M31.16,83.29c0.93,0.33,4.01,0.52,4.96,0.44c9.43-0.81,29.02-2.77,38.7-3.25c1.17-0.06,3.72-0.14,5.46,0.16" /><path d="M15.49,96.94c2.76,0.56,5.32,0.93,7.18,0.81c17.27-1.15,42.18-3.03,62.78-3.1c2.99-0.01,6.58,0.39,8.07,0.77" /></g><g><path d="M69.3,83.74c2.71,1.77,5.03,5.55,5.61,7.76" /></g></g></g></g><g fill="none" stroke="#000" stroke-width="5" stroke-linecap="round" stroke-linejoin="round"><g><g><g><g><g><path d="M21.38,16.15c1.13,0.34,2.32,0.65,3.52,0.58c6.46-0.38,18.07-2.47,20.66-2.61c1.28-0.07,2.45,0.87,2.18,1.86c-0.67,2.45-2.04,6.7-3.1,12.14" stroke-dasharray="40.25" stroke-dashoffset="40.25"><animate id="0" attributeName="stroke-dashoffset" values="40.25;0" dur="0.4s" fill="freeze" begin="0s;74a7.click" /></path><path d="M23.92,29.85c3.24-0.11,15.07-1.62,23.42-2.09" stroke-dasharray="23.52" stroke-dashoffset="23.52"><animate attributeName="stroke-dashoffset" values="23.52" fill="freeze" begin="74a7.click" /><animate id="1" attributeName="stroke-dashoffset" values="23.52;0" dur="0.24s" fill="freeze" begin="0.end" /></path><path d="M24.15,17.5c0.35,1.5,0.21,2.89,0.21,4.51c0,9.24-4.2,27.03-13.06,34.53" stroke-dasharray="42.34" stroke-dashoffset="42.34"><animate attributeName="stroke-dashoffset" values="42.34" fill="freeze" begin="74a7.click" /><animate id="2" attributeName="stroke-dashoffset" values="42.34;0" dur="0.42s" fill="freeze" begin="1.end" /></path></g><g><path d="M23.59,41.87c0.17,0.54,0.75,1.76,0.81,2.17c0.43,2.99,2.25,8.91,2.85,14.58" stroke-dasharray="17.18" stroke-dashoffset="17.18"><animate attributeName="stroke-dashoffset" values="17.18" fill="freeze" begin="74a7.click" /><animate id="3" attributeName="stroke-dashoffset" values="17.18;0" dur="0.17s" fill="freeze" begin="2.end" /></path><path d="M24.46,43.24c4.79-0.6,19.59-3.15,22.86-3.25c1.35-0.04,1.86,1.76,1.67,2.65c-0.74,3.54-2.56,8.37-3.28,12.89" stroke-dasharray="39.95" stroke-dashoffset="39.95"><animate attributeName="stroke-dashoffset" values="39.95" fill="freeze" begin="74a7.click" /><animate id="4" attributeName="stroke-dashoffset" values="39.95;0" dur="0.4s" fill="freeze" begin="3.end" /></path><path d="M28.01,57.2c3.96-0.25,15.08-1.39,19.83-1.71" stroke-dasharray="19.9" stroke-dashoffset="19.9"><animate attributeName="stroke-dashoffset" values="19.9" fill="freeze" begin="74a7.click" /><animate id="5" attributeName="stroke-dashoffset" values="19.9;0" dur="0.2s" fill="freeze" begin="4.end" /></path></g></g></g><g><g><g><path d="M70.5,9.09c1.26,0.92,1.88,0.92,1.88,3.05c0,2.14,0,3.46,0,6.27" stroke-dasharray="10.12" stroke-dashoffset="10.12"><animate attributeName="stroke-dashoffset" values="10.12" fill="freeze" begin="74a7.click" /><animate id="6" attributeName="stroke-dashoffset" values="10.12;0" dur="0.1s" fill="freeze" begin="5.end" /></path><path d="M55.11,19.58c1.24,0.53,2.69,0.61,3.92,0.53c6.98-0.46,17.64-2.05,28.2-2.44c2.06-0.08,3.3,0.25,4.33,0.52" stroke-dasharray="36.68" stroke-dashoffset="36.68"><animate attributeName="stroke-dashoffset" values="36.68" fill="freeze" begin="74a7.click" /><animate id="7" attributeName="stroke-dashoffset" values="36.68;0" dur="0.37s" fill="freeze" begin="6.end" /></path></g><g><path d="M59.83,23.01c2.83,3.54,4.12,7.15,4.37,9.48" stroke-dasharray="10.57" stroke-dashoffset="10.57"><animate attributeName="stroke-dashoffset" values="10.57" fill="freeze" begin="74a7.click" /><animate id="8" attributeName="stroke-dashoffset" values="10.57;0" dur="0.11s" fill="freeze" begin="7.end" /></path><path d="M82.5,21.68c0.53,0.39,0.18,1.83,0.03,2.12C81,26.75,77.05,31.79,76,33.47" stroke-dasharray="13.91" stroke-dashoffset="13.91"><animate attributeName="stroke-dashoffset" values="13.91" fill="freeze" begin="74a7.click" /><animate id="9" attributeName="stroke-dashoffset" values="13.91;0" dur="0.14s" fill="freeze" begin="8.end" /></path><path d="M51.47,35.45c1.49,0.57,3.24,0.62,4.73,0.57c9.53-0.32,21.86-2.22,33.02-2.55c2.49-0.07,3.99,0.27,5.23,0.56" stroke-dasharray="43.2" stroke-dashoffset="43.2"><animate attributeName="stroke-dashoffset" values="43.2" fill="freeze" begin="74a7.click" /><animate id="10" attributeName="stroke-dashoffset" values="43.2;0" dur="0.43s" fill="freeze" begin="9.end" /></path></g></g><g><path d="M53.83,48.42c1.16,0.32,3.28,0.41,4.44,0.32c14.71-1.06,17.02-1.42,30.65-2.11c1.92-0.1,3.08,0.15,4.05,0.32" stroke-dasharray="39.27" stroke-dashoffset="39.27"><animate attributeName="stroke-dashoffset" values="39.27" fill="freeze" begin="74a7.click" /><animate id="11" attributeName="stroke-dashoffset" values="39.27;0" dur="0.39s" fill="freeze" begin="10.end" /></path><path d="M70.76,35.57c0.44,0.28,1.38,2.09,1.47,2.64c0.51,3.2-0.13,22.76-0.15,23.58" stroke-dasharray="26.64" stroke-dashoffset="26.64"><animate attributeName="stroke-dashoffset" values="26.64" fill="freeze" begin="74a7.click" /><animate id="12" attributeName="stroke-dashoffset" values="26.64;0" dur="0.27s" fill="freeze" begin="11.end" /></path></g></g></g><g><g p5:partial xmlns:p5="http://kanjivg.tagaini.net"><path d="M29.94,69.72c1.12,0.6,4.76,0.69,5.9,0.61c10.68-0.77,29.52-2.96,43.81-3.47c1.73-0.06,3.3,0.12,4.72,0.62" stroke-dasharray="54.71" stroke-dashoffset="54.71"><animate attributeName="stroke-dashoffset" values="54.71" fill="freeze" begin="74a7.click" /><animate id="13" attributeName="stroke-dashoffset" values="54.71;0" dur="0.55s" fill="freeze" begin="12.end" /></path><path d="M52.81,68.97c0.64,0.77,1.27,1.53,1.27,2.8c0,4.32,0.16,18.47,0.16,23.7" stroke-dasharray="26.85" stroke-dashoffset="26.85"><animate attributeName="stroke-dashoffset" values="26.85" fill="freeze" begin="74a7.click" /><animate id="14" attributeName="stroke-dashoffset" values="26.85;0" dur="0.27s" fill="freeze" begin="13.end" /></path><path d="M31.16,83.29c0.93,0.33,4.01,0.52,4.96,0.44c9.43-0.81,29.02-2.77,38.7-3.25c1.17-0.06,3.72-0.14,5.46,0.16" stroke-dasharray="49.31" stroke-dashoffset="49.31"><animate attributeName="stroke-dashoffset" values="49.31" fill="freeze" begin="74a7.click" /><animate id="15" attributeName="stroke-dashoffset" values="49.31;0" dur="0.49s" fill="freeze" begin="14.end" /></path><path d="M15.49,96.94c2.76,0.56,5.32,0.93,7.18,0.81c17.27-1.15,42.18-3.03,62.78-3.1c2.99-0.01,6.58,0.39,8.07,0.77" stroke-dasharray="78.23" stroke-dashoffset="78.23"><animate attributeName="stroke-dashoffset" values="78.23" fill="freeze" begin="74a7.click" /><animate id="16" attributeName="stroke-dashoffset" values="78.23;0" dur="0.59s" fill="freeze" begin="15.end" /></path></g><g><path d="M69.3,83.74c2.71,1.77,5.03,5.55,5.61,7.76" stroke-dasharray="9.74" stroke-dashoffset="9.74"><animate attributeName="stroke-dashoffset" values="9.74" fill="freeze" begin="74a7.click" /><animate id="17" attributeName="stroke-dashoffset" values="9.74;0" dur="0.1s" fill="freeze" begin="16.end" /></path></g></g></g></g></svg>