<svg xmlns="http://www.w3.org/2000/svg" width="109" height="109" viewBox="0 0 109 109" id="74b0"><g fill="none" stroke="#666" stroke-width="6" stroke-linecap="round" stroke-linejoin="round"><g><g p4:partial xmlns:p4="http://kanjivg.tagaini.net"><path d="M13.25,26.66c2.38,0.84,4.83,0.7,6.76,0.43c3.83-0.52,10.16-1.73,15.06-2.14c0.86-0.07,2.46-0.25,3.18,0.04" /><path d="M26.07,29.34c0.92,0.92,1.23,2.29,1.23,3.35c0,5.72-0.05,34.41-0.05,40.31" /><path d="M13,51.17c1.88,0.71,3.46,0.51,5.01,0.36C22,51.12,29.62,49.5,35,48.49c0.68-0.13,2.22-0.41,3.25-0.07" /><path d="M12.25,80.81c1.25,0.81,2.12,0.94,3.5,0.19c5.17-2.81,12-7.24,20-11.81" /></g><g p4:phon="睘" xmlns:p4="http://kanjivg.tagaini.net"><g><path d="M42.25,17.73c0.7,0.7,1.27,1.61,1.46,2.35c0.57,2.27,1.32,5.86,1.98,9.14c0.3,1.48,0.54,2.94,0.69,4.29" /><path d="M43.94,18.64c6.17-1.03,32.89-4.12,39.85-4.97c2.36-0.29,3.93,0.34,3.43,3.07c-0.43,2.35-1.19,5.36-2.07,8.61c-0.38,1.39-0.78,2.79-1.19,4.1" /><path d="M56.32,17.81c0.5,0.5,0.9,1.23,1.03,2.46c0.38,3.47,0.75,6.87,0.87,8.43" /><path d="M70.7,16.39c0.58,0.58,0.65,1.36,0.56,2.42c-0.3,3.65-0.76,6.57-1.06,8.98" /><path d="M47.11,31.47c9.26-1.34,27.01-3.59,36.21-4.16" /></g><path d="M42,40.89c2.38,0.61,5.02,0.22,7.12-0.05c8.47-1.09,25.94-3.49,33.77-3.92c1.99-0.11,4.16-0.13,6.12,0.34" /><g><path d="M47.5,48.84c0.77,0.77,1.25,1.44,1.4,2.36c0.81,2.29,1.42,5.64,2.12,9.05c0.29,1.39,0.54,2.75,0.76,3.97" /><path d="M49.52,50.27c8.99-1.24,22.38-3.65,28.48-4.31c3.13-0.34,4.63,1.41,4.06,3.33c-0.86,2.87-1.56,5.16-2.72,7.95" /><path d="M52.65,61.67c5.7-0.77,15.76-2.11,24.11-3.16c1.68-0.21,3.29-0.41,4.75-0.59" /></g><path d="M64.92,62.64c0.08,0.56-0.12,1.55-0.65,2.25c-4.03,5.35-12.4,14.73-25.92,21.07" /><path d="M62.79,70.29c0.84,0.84,1.06,2.01,1.05,3.47c-0.02,4.96-0.06,13.04-0.08,19.5c-0.01,2.09-0.01,3.98-0.01,5.5" /><path d="M82.27,65.75c0.09,0.71-0.26,1.43-0.73,1.91c-2.01,2.07-4.01,3.56-8.79,6.84" /><path d="M64.92,72.68c1.17,0.45,14.44,9.65,22.05,14.19c2.09,1.25,4.03,2.26,6.53,3.38" /></g></g></g><g fill="none" stroke="#000" stroke-width="3" stroke-linecap="round" stroke-linejoin="round"><path d="M13.25,26.66c2.38,0.84,4.83,0.7,6.76,0.43c3.83-0.52,10.16-1.73,15.06-2.14c0.86-0.07,2.46-0.25,3.18,0.04" stroke-dasharray="25.257" stroke-dashoffset="25.257"><animate attributeName="stroke-dashoffset" values="25.257;25.257;0" dur="0.253s" fill="freeze" begin="0s;74b0.click" /></path><path d="M26.07,29.34c0.92,0.92,1.23,2.29,1.23,3.35c0,5.72-0.05,34.41-0.05,40.31" stroke-dasharray="43.969" stroke-dashoffset="43.969"><animate attributeName="stroke-dashoffset" values="43.969" fill="freeze" begin="74b0.click" /><animate attributeName="stroke-dashoffset" values="43.969;43.969;0" keyTimes="0;0.365;1" dur="0.693s" fill="freeze" begin="0s;74b0.click" /></path><path d="M13,51.17c1.88,0.71,3.46,0.51,5.01,0.36C22,51.12,29.62,49.5,35,48.49c0.68-0.13,2.22-0.41,3.25-0.07" stroke-dasharray="25.624" stroke-dashoffset="25.624"><animate attributeName="stroke-dashoffset" values="25.624" fill="freeze" begin="74b0.click" /><animate attributeName="stroke-dashoffset" values="25.624;25.624;0" keyTimes="0;0.73;1" dur="0.949s" fill="freeze" begin="0s;74b0.click" /></path><path d="M12.25,80.81c1.25,0.81,2.12,0.94,3.5,0.19c5.17-2.81,12-7.24,20-11.81" stroke-dasharray="26.972" stroke-dashoffset="26.972"><animate attributeName="stroke-dashoffset" values="26.972" fill="freeze" begin="74b0.click" /><animate attributeName="stroke-dashoffset" values="26.972;26.972;0" keyTimes="0;0.779;1" dur="1.219s" fill="freeze" begin="0s;74b0.click" /></path><path d="M42.25,17.73c0.7,0.7,1.27,1.61,1.46,2.35c0.57,2.27,1.32,5.86,1.98,9.14c0.3,1.48,0.54,2.94,0.69,4.29" stroke-dasharray="16.496" stroke-dashoffset="16.496"><animate attributeName="stroke-dashoffset" values="16.496" fill="freeze" begin="74b0.click" /><animate attributeName="stroke-dashoffset" values="16.496;16.496;0" keyTimes="0;0.881;1" dur="1.384s" fill="freeze" begin="0s;74b0.click" /></path><path d="M43.94,18.64c6.17-1.03,32.89-4.12,39.85-4.97c2.36-0.29,3.93,0.34,3.43,3.07c-0.43,2.35-1.19,5.36-2.07,8.61c-0.38,1.39-0.78,2.79-1.19,4.1" stroke-dasharray="59.067" stroke-dashoffset="59.067"><animate attributeName="stroke-dashoffset" values="59.067" fill="freeze" begin="74b0.click" /><animate attributeName="stroke-dashoffset" values="59.067;59.067;0" keyTimes="0;0.701;1" dur="1.975s" fill="freeze" begin="0s;74b0.click" /></path><path d="M56.32,17.81c0.5,0.5,0.9,1.23,1.03,2.46c0.38,3.47,0.75,6.87,0.87,8.43" stroke-dasharray="11.197" stroke-dashoffset="11.197"><animate attributeName="stroke-dashoffset" values="11.197" fill="freeze" begin="74b0.click" /><animate attributeName="stroke-dashoffset" values="11.197;11.197;0" keyTimes="0;0.946;1" dur="2.087s" fill="freeze" begin="0s;74b0.click" /></path><path d="M70.7,16.39c0.58,0.58,0.65,1.36,0.56,2.42c-0.3,3.65-0.76,6.57-1.06,8.98" stroke-dasharray="11.616" stroke-dashoffset="11.616"><animate attributeName="stroke-dashoffset" values="11.616" fill="freeze" begin="74b0.click" /><animate attributeName="stroke-dashoffset" values="11.616;11.616;0" keyTimes="0;0.947;1" dur="2.203s" fill="freeze" begin="0s;74b0.click" /></path><path d="M47.11,31.47c9.26-1.34,27.01-3.59,36.21-4.16" stroke-dasharray="36.456" stroke-dashoffset="36.456"><animate attributeName="stroke-dashoffset" values="36.456" fill="freeze" begin="74b0.click" /><animate attributeName="stroke-dashoffset" values="36.456;36.456;0" keyTimes="0;0.858;1" dur="2.568s" fill="freeze" begin="0s;74b0.click" /></path><path d="M42,40.89c2.38,0.61,5.02,0.22,7.12-0.05c8.47-1.09,25.94-3.49,33.77-3.92c1.99-0.11,4.16-0.13,6.12,0.34" stroke-dasharray="47.32" stroke-dashoffset="47.32"><animate attributeName="stroke-dashoffset" values="47.32" fill="freeze" begin="74b0.click" /><animate attributeName="stroke-dashoffset" values="47.32;47.32;0" keyTimes="0;0.844;1" dur="3.041s" fill="freeze" begin="0s;74b0.click" /></path><path d="M47.5,48.84c0.77,0.77,1.25,1.44,1.4,2.36c0.81,2.29,1.42,5.64,2.12,9.05c0.29,1.39,0.54,2.75,0.76,3.97" stroke-dasharray="16.139" stroke-dashoffset="16.139"><animate attributeName="stroke-dashoffset" values="16.139" fill="freeze" begin="74b0.click" /><animate attributeName="stroke-dashoffset" values="16.139;16.139;0" keyTimes="0;0.95;1" dur="3.202s" fill="freeze" begin="0s;74b0.click" /></path><path d="M49.52,50.27c8.99-1.24,22.38-3.65,28.48-4.31c3.13-0.34,4.63,1.41,4.06,3.33c-0.86,2.87-1.56,5.16-2.72,7.95" stroke-dasharray="43.574" stroke-dashoffset="43.574"><animate attributeName="stroke-dashoffset" values="43.574" fill="freeze" begin="74b0.click" /><animate attributeName="stroke-dashoffset" values="43.574;43.574;0" keyTimes="0;0.88;1" dur="3.638s" fill="freeze" begin="0s;74b0.click" /></path><path d="M52.65,61.67c5.7-0.77,15.76-2.11,24.11-3.16c1.68-0.21,3.29-0.41,4.75-0.59" stroke-dasharray="29.104" stroke-dashoffset="29.104"><animate attributeName="stroke-dashoffset" values="29.104" fill="freeze" begin="74b0.click" /><animate attributeName="stroke-dashoffset" values="29.104;29.104;0" keyTimes="0;0.926;1" dur="3.929s" fill="freeze" begin="0s;74b0.click" /></path><path d="M64.92,62.64c0.08,0.56-0.12,1.55-0.65,2.25c-4.03,5.35-12.4,14.73-25.92,21.07" stroke-dasharray="36.124" stroke-dashoffset="36.124"><animate attributeName="stroke-dashoffset" values="36.124" fill="freeze" begin="74b0.click" /><animate attributeName="stroke-dashoffset" values="36.124;36.124;0" keyTimes="0;0.916;1" dur="4.29s" fill="freeze" begin="0s;74b0.click" /></path><path d="M62.79,70.29c0.84,0.84,1.06,2.01,1.05,3.47c-0.02,4.96-0.06,13.04-0.08,19.5c-0.01,2.09-0.01,3.98-0.01,5.5" stroke-dasharray="28.729" stroke-dashoffset="28.729"><animate attributeName="stroke-dashoffset" values="28.729" fill="freeze" begin="74b0.click" /><animate attributeName="stroke-dashoffset" values="28.729;28.729;0" keyTimes="0;0.937;1" dur="4.577s" fill="freeze" begin="0s;74b0.click" /></path><path d="M82.27,65.75c0.09,0.71-0.26,1.43-0.73,1.91c-2.01,2.07-4.01,3.56-8.79,6.84" stroke-dasharray="13.271" stroke-dashoffset="13.271"><animate attributeName="stroke-dashoffset" values="13.271" fill="freeze" begin="74b0.click" /><animate attributeName="stroke-dashoffset" values="13.271;13.271;0" keyTimes="0;0.972;1" dur="4.71s" fill="freeze" begin="0s;74b0.click" /></path><path d="M64.92,72.68c1.17,0.45,14.44,9.65,22.05,14.19c2.09,1.25,4.03,2.26,6.53,3.38" stroke-dasharray="33.584" stroke-dashoffset="33.584"><animate attributeName="stroke-dashoffset" values="33.584" fill="freeze" begin="74b0.click" /><animate attributeName="stroke-dashoffset" values="33.584;33.584;0" keyTimes="0;0.933;1" dur="5.046s" fill="freeze" begin="0s;74b0.click" /></path></g></svg>