<svg xmlns="http://www.w3.org/2000/svg" width="109" height="109" viewBox="0 0 109 109" id="74b0"><g fill="none" stroke="#666" stroke-width="9" stroke-linecap="round" stroke-linejoin="round"><g><g p4:partial xmlns:p4="http://kanjivg.tagaini.net"><path d="M13.25,26.66c2.38,0.84,4.83,0.7,6.76,0.43c3.83-0.52,10.16-1.73,15.06-2.14c0.86-0.07,2.46-0.25,3.18,0.04" /><path d="M26.07,29.34c0.92,0.92,1.23,2.29,1.23,3.35c0,5.72-0.05,34.41-0.05,40.31" /><path d="M13,51.17c1.88,0.71,3.46,0.51,5.01,0.36C22,51.12,29.62,49.5,35,48.49c0.68-0.13,2.22-0.41,3.25-0.07" /><path d="M12.25,80.81c1.25,0.81,2.12,0.94,3.5,0.19c5.17-2.81,12-7.24,20-11.81" /></g><g p4:phon="睘" xmlns:p4="http://kanjivg.tagaini.net"><g><path d="M42.25,17.73c0.7,0.7,1.27,1.61,1.46,2.35c0.57,2.27,1.32,5.86,1.98,9.14c0.3,1.48,0.54,2.94,0.69,4.29" /><path d="M43.94,18.64c6.17-1.03,32.89-4.12,39.85-4.97c2.36-0.29,3.93,0.34,3.43,3.07c-0.43,2.35-1.19,5.36-2.07,8.61c-0.38,1.39-0.78,2.79-1.19,4.1" /><path d="M56.32,17.81c0.5,0.5,0.9,1.23,1.03,2.46c0.38,3.47,0.75,6.87,0.87,8.43" /><path d="M70.7,16.39c0.58,0.58,0.65,1.36,0.56,2.42c-0.3,3.65-0.76,6.57-1.06,8.98" /><path d="M47.11,31.47c9.26-1.34,27.01-3.59,36.21-4.16" /></g><path d="M42,40.89c2.38,0.61,5.02,0.22,7.12-0.05c8.47-1.09,25.94-3.49,33.77-3.92c1.99-0.11,4.16-0.13,6.12,0.34" /><g><path d="M47.5,48.84c0.77,0.77,1.25,1.44,1.4,2.36c0.81,2.29,1.42,5.64,2.12,9.05c0.29,1.39,0.54,2.75,0.76,3.97" /><path d="M49.52,50.27c8.99-1.24,22.38-3.65,28.48-4.31c3.13-0.34,4.63,1.41,4.06,3.33c-0.86,2.87-1.56,5.16-2.72,7.95" /><path d="M52.65,61.67c5.7-0.77,15.76-2.11,24.11-3.16c1.68-0.21,3.29-0.41,4.75-0.59" /></g><path d="M64.92,62.64c0.08,0.56-0.12,1.55-0.65,2.25c-4.03,5.35-12.4,14.73-25.92,21.07" /><path d="M62.79,70.29c0.84,0.84,1.06,2.01,1.05,3.47c-0.02,4.96-0.06,13.04-0.08,19.5c-0.01,2.09-0.01,3.98-0.01,5.5" /><path d="M82.27,65.75c0.09,0.71-0.26,1.43-0.73,1.91c-2.01,2.07-4.01,3.56-8.79,6.84" /><path d="M64.92,72.68c1.17,0.45,14.44,9.65,22.05,14.19c2.09,1.25,4.03,2.26,6.53,3.38" /></g></g></g><g fill="none" stroke="#000" stroke-width="5" stroke-linecap="round" stroke-linejoin="round"><g><g p4:partial xmlns:p4="http://kanjivg.tagaini.net"><path d="M13.25,26.66c2.38,0.84,4.83,0.7,6.76,0.43c3.83-0.52,10.16-1.73,15.06-2.14c0.86-0.07,2.46-0.25,3.18,0.04" stroke-dasharray="25.26" stroke-dashoffset="25.26"><animate id="0" attributeName="stroke-dashoffset" values="25.26;0" dur="0.25s" fill="freeze" begin="0s;74b0.click" /></path><path d="M26.07,29.34c0.92,0.92,1.23,2.29,1.23,3.35c0,5.72-0.05,34.41-0.05,40.31" stroke-dasharray="43.97" stroke-dashoffset="43.97"><animate attributeName="stroke-dashoffset" values="43.97" fill="freeze" begin="74b0.click" /><animate id="1" attributeName="stroke-dashoffset" values="43.97;0" dur="0.44s" fill="freeze" begin="0.end" /></path><path d="M13,51.17c1.88,0.71,3.46,0.51,5.01,0.36C22,51.12,29.62,49.5,35,48.49c0.68-0.13,2.22-0.41,3.25-0.07" stroke-dasharray="25.62" stroke-dashoffset="25.62"><animate attributeName="stroke-dashoffset" values="25.62" fill="freeze" begin="74b0.click" /><animate id="2" attributeName="stroke-dashoffset" values="25.62;0" dur="0.26s" fill="freeze" begin="1.end" /></path><path d="M12.25,80.81c1.25,0.81,2.12,0.94,3.5,0.19c5.17-2.81,12-7.24,20-11.81" stroke-dasharray="26.97" stroke-dashoffset="26.97"><animate attributeName="stroke-dashoffset" values="26.97" fill="freeze" begin="74b0.click" /><animate id="3" attributeName="stroke-dashoffset" values="26.97;0" dur="0.27s" fill="freeze" begin="2.end" /></path></g><g p4:phon="睘" xmlns:p4="http://kanjivg.tagaini.net"><g><path d="M42.25,17.73c0.7,0.7,1.27,1.61,1.46,2.35c0.57,2.27,1.32,5.86,1.98,9.14c0.3,1.48,0.54,2.94,0.69,4.29" stroke-dasharray="16.49" stroke-dashoffset="16.49"><animate attributeName="stroke-dashoffset" values="16.49" fill="freeze" begin="74b0.click" /><animate id="4" attributeName="stroke-dashoffset" values="16.49;0" dur="0.16s" fill="freeze" begin="3.end" /></path><path d="M43.94,18.64c6.17-1.03,32.89-4.12,39.85-4.97c2.36-0.29,3.93,0.34,3.43,3.07c-0.43,2.35-1.19,5.36-2.07,8.61c-0.38,1.39-0.78,2.79-1.19,4.1" stroke-dasharray="59.07" stroke-dashoffset="59.07"><animate attributeName="stroke-dashoffset" values="59.07" fill="freeze" begin="74b0.click" /><animate id="5" attributeName="stroke-dashoffset" values="59.07;0" dur="0.59s" fill="freeze" begin="4.end" /></path><path d="M56.32,17.81c0.5,0.5,0.9,1.23,1.03,2.46c0.38,3.47,0.75,6.87,0.87,8.43" stroke-dasharray="11.2" stroke-dashoffset="11.2"><animate attributeName="stroke-dashoffset" values="11.2" fill="freeze" begin="74b0.click" /><animate id="6" attributeName="stroke-dashoffset" values="11.2;0" dur="0.11s" fill="freeze" begin="5.end" /></path><path d="M70.7,16.39c0.58,0.58,0.65,1.36,0.56,2.42c-0.3,3.65-0.76,6.57-1.06,8.98" stroke-dasharray="11.62" stroke-dashoffset="11.62"><animate attributeName="stroke-dashoffset" values="11.62" fill="freeze" begin="74b0.click" /><animate id="7" attributeName="stroke-dashoffset" values="11.62;0" dur="0.12s" fill="freeze" begin="6.end" /></path><path d="M47.11,31.47c9.26-1.34,27.01-3.59,36.21-4.16" stroke-dasharray="36.46" stroke-dashoffset="36.46"><animate attributeName="stroke-dashoffset" values="36.46" fill="freeze" begin="74b0.click" /><animate id="8" attributeName="stroke-dashoffset" values="36.46;0" dur="0.36s" fill="freeze" begin="7.end" /></path></g><path d="M42,40.89c2.38,0.61,5.02,0.22,7.12-0.05c8.47-1.09,25.94-3.49,33.77-3.92c1.99-0.11,4.16-0.13,6.12,0.34" stroke-dasharray="47.32" stroke-dashoffset="47.32"><animate attributeName="stroke-dashoffset" values="47.32" fill="freeze" begin="74b0.click" /><animate id="9" attributeName="stroke-dashoffset" values="47.32;0" dur="0.47s" fill="freeze" begin="8.end" /></path><g><path d="M47.5,48.84c0.77,0.77,1.25,1.44,1.4,2.36c0.81,2.29,1.42,5.64,2.12,9.05c0.29,1.39,0.54,2.75,0.76,3.97" stroke-dasharray="16.14" stroke-dashoffset="16.14"><animate attributeName="stroke-dashoffset" values="16.14" fill="freeze" begin="74b0.click" /><animate id="10" attributeName="stroke-dashoffset" values="16.14;0" dur="0.16s" fill="freeze" begin="9.end" /></path><path d="M49.52,50.27c8.99-1.24,22.38-3.65,28.48-4.31c3.13-0.34,4.63,1.41,4.06,3.33c-0.86,2.87-1.56,5.16-2.72,7.95" stroke-dasharray="43.57" stroke-dashoffset="43.57"><animate attributeName="stroke-dashoffset" values="43.57" fill="freeze" begin="74b0.click" /><animate id="11" attributeName="stroke-dashoffset" values="43.57;0" dur="0.44s" fill="freeze" begin="10.end" /></path><path d="M52.65,61.67c5.7-0.77,15.76-2.11,24.11-3.16c1.68-0.21,3.29-0.41,4.75-0.59" stroke-dasharray="29.1" stroke-dashoffset="29.1"><animate attributeName="stroke-dashoffset" values="29.1" fill="freeze" begin="74b0.click" /><animate id="12" attributeName="stroke-dashoffset" values="29.1;0" dur="0.29s" fill="freeze" begin="11.end" /></path></g><path d="M64.92,62.64c0.08,0.56-0.12,1.55-0.65,2.25c-4.03,5.35-12.4,14.73-25.92,21.07" stroke-dasharray="36.12" stroke-dashoffset="36.12"><animate attributeName="stroke-dashoffset" values="36.12" fill="freeze" begin="74b0.click" /><animate id="13" attributeName="stroke-dashoffset" values="36.12;0" dur="0.36s" fill="freeze" begin="12.end" /></path><path d="M62.79,70.29c0.84,0.84,1.06,2.01,1.05,3.47c-0.02,4.96-0.06,13.04-0.08,19.5c-0.01,2.09-0.01,3.98-0.01,5.5" stroke-dasharray="28.73" stroke-dashoffset="28.73"><animate attributeName="stroke-dashoffset" values="28.73" fill="freeze" begin="74b0.click" /><animate id="14" attributeName="stroke-dashoffset" values="28.73;0" dur="0.29s" fill="freeze" begin="13.end" /></path><path d="M82.27,65.75c0.09,0.71-0.26,1.43-0.73,1.91c-2.01,2.07-4.01,3.56-8.79,6.84" stroke-dasharray="13.27" stroke-dashoffset="13.27"><animate attributeName="stroke-dashoffset" values="13.27" fill="freeze" begin="74b0.click" /><animate id="15" attributeName="stroke-dashoffset" values="13.27;0" dur="0.13s" fill="freeze" begin="14.end" /></path><path d="M64.92,72.68c1.17,0.45,14.44,9.65,22.05,14.19c2.09,1.25,4.03,2.26,6.53,3.38" stroke-dasharray="33.58" stroke-dashoffset="33.58"><animate attributeName="stroke-dashoffset" values="33.58" fill="freeze" begin="74b0.click" /><animate id="16" attributeName="stroke-dashoffset" values="33.58;0" dur="0.34s" fill="freeze" begin="15.end" /></path></g></g></g></svg>