<svg xmlns="http://www.w3.org/2000/svg" width="109" height="109" viewBox="0 0 109 109" id="74bd"><g fill="none" stroke="#666" stroke-width="9" stroke-linecap="round" stroke-linejoin="round"><g><g p4:phon="爾" xmlns:p4="http://kanjivg.tagaini.net"><g><path d="M22.51,14.61c3.62,0.39,6.19,0.25,9.12,0.04c11.89-0.84,33.31-2.55,45.62-3.01c3.13-0.12,6.33-0.05,9.44,0.47" /></g><g><g><path d="M37.96,17.92c0.12,0.88-0.19,1.59-0.88,2.16c-3.71,3.05-8.58,6.18-18.8,10.49" /></g><g><path d="M72.5,16.5c5.81,1.5,15.01,6.16,16.46,8.49" /></g></g><g><path d="M25.85,29.32c1.04,1.04,1.48,2.43,1.48,3.79c0,2.29-0.03,18.03-0.04,26.89c-0.01,3.42-0.01,5.8-0.01,6" /><path d="M27.58,30.07c6.81-0.55,41.45-3.06,48.3-3.63c3.91-0.33,5.78-0.15,5.77,4.07c-0.02,6.2-0.13,25.58-0.13,28.62c0,9.12-3.39,4-5.03,2.4" /></g><path d="M53.17,15.63c0.92,0.92,1.23,1.93,1.23,3.29c0,2.72,0.1,26.66,0.03,39.59c-0.02,4.03-0.04,6.84-0.04,7.37" /><g><g><g><path d="M46.05,34.7c0.09,0.8-0.05,1.54-0.43,2.23c-1.39,3.02-5.52,8.25-11.5,11.58" /></g><path d="M36.5,38.43c3.93,0.73,9.15,4.46,10.68,7.03" /></g><g><g><path d="M46.1,51.57c0.1,0.87-0.03,1.68-0.41,2.46c-1.43,3.42-5.99,9.17-12.02,12.99" /></g><path d="M37,54.62c3.49,0.86,8.12,5.19,9.48,8.18" /></g></g><g><g><g><path d="M72.07,32.81c0.08,0.75-0.02,1.47-0.32,2.16c-1.12,3.02-4.71,8.34-9.46,11.71" /></g><path d="M61.92,36.77c4.06,0.79,9.45,4.76,11.03,7.51" /></g><g><g><path d="M72.63,50.6c0.09,0.78-0.03,1.52-0.34,2.22c-1.22,3.12-5.15,8.61-10.34,12.1" /></g><path d="M63.82,54.56c3.45,1.59,7.56,5.13,9.48,7.59" /></g></g></g><g><g p5:partial xmlns:p5="http://kanjivg.tagaini.net"><path d="M27.11,73.68c2.63,0.74,5.73,0.28,8.4,0.06c11.72-0.95,23.09-1.74,40.24-2.63c2.51-0.13,4.97-0.31,7.46,0.15" /><path d="M53.37,75.4c0.92,0.92,1.27,2.1,1.27,3.86c0,5.17-0.02,9.49-0.02,14.86" /><path d="M30.84,84.95c3.29,0.55,5.61,0.36,8.17,0.14c8.9-0.76,22.83-2.03,31.86-2.59c2.85-0.18,5.84-0.24,8.68,0.22" /><path d="M20.75,96.24c3.62,0.89,5.99,0.93,9.12,0.68c16.25-1.29,37.41-2.32,52.25-2.55c3.45-0.05,6.51,0.24,9.87,0.99" /></g><g><path d="M75.25,87.11c2.51,1,4.66,3.14,5.2,4.39" /></g></g></g></g><g fill="none" stroke="#000" stroke-width="5" stroke-linecap="round" stroke-linejoin="round"><g><g p4:phon="爾" xmlns:p4="http://kanjivg.tagaini.net"><g><path d="M22.51,14.61c3.62,0.39,6.19,0.25,9.12,0.04c11.89-0.84,33.31-2.55,45.62-3.01c3.13-0.12,6.33-0.05,9.44,0.47" stroke-dasharray="64.32" stroke-dashoffset="64.32"><animate id="0" attributeName="stroke-dashoffset" values="64.32;0" dur="0.48s" fill="freeze" begin="0s;74bd.click" /></path></g><g><g><path d="M37.96,17.92c0.12,0.88-0.19,1.59-0.88,2.16c-3.71,3.05-8.58,6.18-18.8,10.49" stroke-dasharray="24.05" stroke-dashoffset="24.05"><animate attributeName="stroke-dashoffset" values="24.05" fill="freeze" begin="74bd.click" /><animate id="1" attributeName="stroke-dashoffset" values="24.05;0" dur="0.24s" fill="freeze" begin="0.end" /></path></g><g><path d="M72.5,16.5c5.81,1.5,15.01,6.16,16.46,8.49" stroke-dasharray="18.71" stroke-dashoffset="18.71"><animate attributeName="stroke-dashoffset" values="18.71" fill="freeze" begin="74bd.click" /><animate id="2" attributeName="stroke-dashoffset" values="18.71;0" dur="0.19s" fill="freeze" begin="1.end" /></path></g></g><g><path d="M25.85,29.32c1.04,1.04,1.48,2.43,1.48,3.79c0,2.29-0.03,18.03-0.04,26.89c-0.01,3.42-0.01,5.8-0.01,6" stroke-dasharray="37.07" stroke-dashoffset="37.07"><animate attributeName="stroke-dashoffset" values="37.07" fill="freeze" begin="74bd.click" /><animate id="3" attributeName="stroke-dashoffset" values="37.07;0" dur="0.37s" fill="freeze" begin="2.end" /></path><path d="M27.58,30.07c6.81-0.55,41.45-3.06,48.3-3.63c3.91-0.33,5.78-0.15,5.77,4.07c-0.02,6.2-0.13,25.58-0.13,28.62c0,9.12-3.39,4-5.03,2.4" stroke-dasharray="96.18" stroke-dashoffset="96.18"><animate attributeName="stroke-dashoffset" values="96.18" fill="freeze" begin="74bd.click" /><animate id="4" attributeName="stroke-dashoffset" values="96.18;0" dur="0.72s" fill="freeze" begin="3.end" /></path></g><path d="M53.17,15.63c0.92,0.92,1.23,1.93,1.23,3.29c0,2.72,0.1,26.66,0.03,39.59c-0.02,4.03-0.04,6.84-0.04,7.37" stroke-dasharray="50.58" stroke-dashoffset="50.58"><animate attributeName="stroke-dashoffset" values="50.58" fill="freeze" begin="74bd.click" /><animate id="5" attributeName="stroke-dashoffset" values="50.58;0" dur="0.51s" fill="freeze" begin="4.end" /></path><g><g><g><path d="M46.05,34.7c0.09,0.8-0.05,1.54-0.43,2.23c-1.39,3.02-5.52,8.25-11.5,11.58" stroke-dasharray="18.86" stroke-dashoffset="18.86"><animate attributeName="stroke-dashoffset" values="18.86" fill="freeze" begin="74bd.click" /><animate id="6" attributeName="stroke-dashoffset" values="18.86;0" dur="0.19s" fill="freeze" begin="5.end" /></path></g><path d="M36.5,38.43c3.93,0.73,9.15,4.46,10.68,7.03" stroke-dasharray="13.05" stroke-dashoffset="13.05"><animate attributeName="stroke-dashoffset" values="13.05" fill="freeze" begin="74bd.click" /><animate id="7" attributeName="stroke-dashoffset" values="13.05;0" dur="0.13s" fill="freeze" begin="6.end" /></path></g><g><g><path d="M46.1,51.57c0.1,0.87-0.03,1.68-0.41,2.46c-1.43,3.42-5.99,9.17-12.02,12.99" stroke-dasharray="20.45" stroke-dashoffset="20.45"><animate attributeName="stroke-dashoffset" values="20.45" fill="freeze" begin="74bd.click" /><animate id="8" attributeName="stroke-dashoffset" values="20.45;0" dur="0.2s" fill="freeze" begin="7.end" /></path></g><path d="M37,54.62c3.49,0.86,8.12,5.19,9.48,8.18" stroke-dasharray="12.82" stroke-dashoffset="12.82"><animate attributeName="stroke-dashoffset" values="12.82" fill="freeze" begin="74bd.click" /><animate id="9" attributeName="stroke-dashoffset" values="12.82;0" dur="0.13s" fill="freeze" begin="8.end" /></path></g></g><g><g><g><path d="M72.07,32.81c0.08,0.75-0.02,1.47-0.32,2.16c-1.12,3.02-4.71,8.34-9.46,11.71" stroke-dasharray="17.44" stroke-dashoffset="17.44"><animate attributeName="stroke-dashoffset" values="17.44" fill="freeze" begin="74bd.click" /><animate id="10" attributeName="stroke-dashoffset" values="17.44;0" dur="0.17s" fill="freeze" begin="9.end" /></path></g><path d="M61.92,36.77c4.06,0.79,9.45,4.76,11.03,7.51" stroke-dasharray="13.63" stroke-dashoffset="13.63"><animate attributeName="stroke-dashoffset" values="13.63" fill="freeze" begin="74bd.click" /><animate id="11" attributeName="stroke-dashoffset" values="13.63;0" dur="0.14s" fill="freeze" begin="10.end" /></path></g><g><g><path d="M72.63,50.6c0.09,0.78-0.03,1.52-0.34,2.22c-1.22,3.12-5.15,8.61-10.34,12.1" stroke-dasharray="18.38" stroke-dashoffset="18.38"><animate attributeName="stroke-dashoffset" values="18.38" fill="freeze" begin="74bd.click" /><animate id="12" attributeName="stroke-dashoffset" values="18.38;0" dur="0.18s" fill="freeze" begin="11.end" /></path></g><path d="M63.82,54.56c3.45,1.59,7.56,5.13,9.48,7.59" stroke-dasharray="12.23" stroke-dashoffset="12.23"><animate attributeName="stroke-dashoffset" values="12.23" fill="freeze" begin="74bd.click" /><animate id="13" attributeName="stroke-dashoffset" values="12.23;0" dur="0.12s" fill="freeze" begin="12.end" /></path></g></g></g><g><g p5:partial xmlns:p5="http://kanjivg.tagaini.net"><path d="M27.11,73.68c2.63,0.74,5.73,0.28,8.4,0.06c11.72-0.95,23.09-1.74,40.24-2.63c2.51-0.13,4.97-0.31,7.46,0.15" stroke-dasharray="56.26" stroke-dashoffset="56.26"><animate attributeName="stroke-dashoffset" values="56.26" fill="freeze" begin="74bd.click" /><animate id="14" attributeName="stroke-dashoffset" values="56.26;0" dur="0.56s" fill="freeze" begin="13.end" /></path><path d="M53.37,75.4c0.92,0.92,1.27,2.1,1.27,3.86c0,5.17-0.02,9.49-0.02,14.86" stroke-dasharray="19.04" stroke-dashoffset="19.04"><animate attributeName="stroke-dashoffset" values="19.04" fill="freeze" begin="74bd.click" /><animate id="15" attributeName="stroke-dashoffset" values="19.04;0" dur="0.19s" fill="freeze" begin="14.end" /></path><path d="M30.84,84.95c3.29,0.55,5.61,0.36,8.17,0.14c8.9-0.76,22.83-2.03,31.86-2.59c2.85-0.18,5.84-0.24,8.68,0.22" stroke-dasharray="48.86" stroke-dashoffset="48.86"><animate attributeName="stroke-dashoffset" values="48.86" fill="freeze" begin="74bd.click" /><animate id="16" attributeName="stroke-dashoffset" values="48.86;0" dur="0.49s" fill="freeze" begin="15.end" /></path><path d="M20.75,96.24c3.62,0.89,5.99,0.93,9.12,0.68c16.25-1.29,37.41-2.32,52.25-2.55c3.45-0.05,6.51,0.24,9.87,0.99" stroke-dasharray="71.46" stroke-dashoffset="71.46"><animate attributeName="stroke-dashoffset" values="71.46" fill="freeze" begin="74bd.click" /><animate id="17" attributeName="stroke-dashoffset" values="71.46;0" dur="0.54s" fill="freeze" begin="16.end" /></path></g><g><path d="M75.25,87.11c2.51,1,4.66,3.14,5.2,4.39" stroke-dasharray="6.93" stroke-dashoffset="6.93"><animate attributeName="stroke-dashoffset" values="6.93" fill="freeze" begin="74bd.click" /><animate id="18" attributeName="stroke-dashoffset" values="6.93;0" dur="0.07s" fill="freeze" begin="17.end" /></path></g></g></g></g></svg>