<svg xmlns="http://www.w3.org/2000/svg" width="109" height="109" viewBox="0 0 109 109" id="74e3"><g fill="none" stroke="#666" stroke-width="9" stroke-linecap="round" stroke-linejoin="round"><g><g><g><g><path d="M23.62,13.75c1.01,1.31,1.51,1.31,1.51,4.35c0,3.05,0,3.65,0,7.65" /><path d="M9.35,27.2c0.83,0.33,1.8,0.38,2.62,0.33c4.67-0.28,17.74-2.53,24.81-2.77c1.38-0.05,2.21,0.16,2.9,0.32" /></g><g><path d="M15.2,32.5c2.88,4.57,4.19,9.24,4.45,12.25" /><path d="M33.26,28.25c0.54,0.54,0.61,1.82,0.54,2.27c-0.43,3.08-4.09,11.87-5.17,14.23" /><path d="M9,48.8c1.04,0.39,2.26,0.53,3.29,0.39C17.5,48.5,28.75,47,34.87,46.7c1.73-0.09,2.77,0.19,3.63,0.38" /></g></g><g><path d="M10.18,69.73c0.66,0.9,1.88,1.13,2.54,0.9C21.13,67.69,31.5,63,37.9,60.27" /><path d="M23.88,51.63c0.65,0.58,1.45,2.12,1.47,3.28c0.18,9.01,0.53,26.42-13.1,41.34" /></g></g><g><g><path d="M64.35,16c0.05,0.32-0.07,1.33-0.35,1.68c-3.51,4.45-8.44,8.11-17.59,11.7" /></g><path d="M43.33,30.28c0.4,0.71,1.02,1.96,1.13,3.99c1.09,21.13-0.72,45.87-13.9,55.94" /><g><path d="M52.39,29.76c0.73,0.62,1.31,2.75,1.31,4.01c0,6.44-0.14,40.09-0.14,50.55" /><path d="M42.43,87.93c0.53,0.54,2.56,1.08,3.67,0.5c5.86-3.1,9.29-5.39,15.56-8.83" /><path d="M59.34,71.43c1.63,3.15,4.22,12.96,4.62,17.87" /></g><path d="M59.06,28.17c0.18,0,0.76,0.6,0.96,1.8c2.2,13.17,5.88,41.13,13.51,57.54c1.16,2.49,2.39,4.04,3.22,4.85" /></g><g><g><g><path d="M81.56,12.75c1.41,1.31,2.12,1.31,2.12,4.35c0,3.05,0,4.15,0,8.15" /><path d="M68.83,26.2c0.69,0.33,1.5,0.38,2.19,0.33c3.91-0.28,19.27-2.03,25.18-2.27c1.15-0.05,1.85,0.16,2.42,0.32" /></g><g><path d="M74.65,31.5c2.71,4.66,3.94,9.43,4.18,12.5" /><path d="M92.66,28.25c0.53,0.5,0.59,1.68,0.53,2.1c-0.43,2.85-4.01,10.97-5.07,13.15" /><path d="M68.75,47.8c0.87,0.39,1.88,0.47,2.75,0.39c7.25-0.69,18.75-2.69,26.72-2.5c1.45,0.04,2.31,0.19,3.04,0.38" /></g></g><g><path d="M71.38,63.95c0.89,0.47,2.53,0.53,3.43,0.47c6.13-0.42,14.99-1.92,21.48-2.4c1.49-0.11,2.39,0.22,3.13,0.46" /><path d="M83.14,48.63c0.66,0.52,1.68,2.62,1.68,4.96c0,6.05-0.19,42.74-0.22,44.29" /></g></g></g></g><g fill="none" stroke="#000" stroke-width="5" stroke-linecap="round" stroke-linejoin="round"><g><g><g><g><path d="M23.62,13.75c1.01,1.31,1.51,1.31,1.51,4.35c0,3.05,0,3.65,0,7.65" stroke-dasharray="12.43" stroke-dashoffset="12.43"><animate id="0" attributeName="stroke-dashoffset" values="12.43;0" dur="0.12s" fill="freeze" begin="0s;74e3.click" /></path><path d="M9.35,27.2c0.83,0.33,1.8,0.38,2.62,0.33c4.67-0.28,17.74-2.53,24.81-2.77c1.38-0.05,2.21,0.16,2.9,0.32" stroke-dasharray="30.56" stroke-dashoffset="30.56"><animate attributeName="stroke-dashoffset" values="30.56" fill="freeze" begin="74e3.click" /><animate id="1" attributeName="stroke-dashoffset" values="30.56;0" dur="0.31s" fill="freeze" begin="0.end" /></path></g><g><path d="M15.2,32.5c2.88,4.57,4.19,9.24,4.45,12.25" stroke-dasharray="13.14" stroke-dashoffset="13.14"><animate attributeName="stroke-dashoffset" values="13.14" fill="freeze" begin="74e3.click" /><animate id="2" attributeName="stroke-dashoffset" values="13.14;0" dur="0.13s" fill="freeze" begin="1.end" /></path><path d="M33.26,28.25c0.54,0.54,0.61,1.82,0.54,2.27c-0.43,3.08-4.09,11.87-5.17,14.23" stroke-dasharray="17.56" stroke-dashoffset="17.56"><animate attributeName="stroke-dashoffset" values="17.56" fill="freeze" begin="74e3.click" /><animate id="3" attributeName="stroke-dashoffset" values="17.56;0" dur="0.18s" fill="freeze" begin="2.end" /></path><path d="M9,48.8c1.04,0.39,2.26,0.53,3.29,0.39C17.5,48.5,28.75,47,34.87,46.7c1.73-0.09,2.77,0.19,3.63,0.38" stroke-dasharray="29.73" stroke-dashoffset="29.73"><animate attributeName="stroke-dashoffset" values="29.73" fill="freeze" begin="74e3.click" /><animate id="4" attributeName="stroke-dashoffset" values="29.73;0" dur="0.3s" fill="freeze" begin="3.end" /></path></g></g><g><path d="M10.18,69.73c0.66,0.9,1.88,1.13,2.54,0.9C21.13,67.69,31.5,63,37.9,60.27" stroke-dasharray="30.09" stroke-dashoffset="30.09"><animate attributeName="stroke-dashoffset" values="30.09" fill="freeze" begin="74e3.click" /><animate id="5" attributeName="stroke-dashoffset" values="30.09;0" dur="0.3s" fill="freeze" begin="4.end" /></path><path d="M23.88,51.63c0.65,0.58,1.45,2.12,1.47,3.28c0.18,9.01,0.53,26.42-13.1,41.34" stroke-dasharray="48.25" stroke-dashoffset="48.25"><animate attributeName="stroke-dashoffset" values="48.25" fill="freeze" begin="74e3.click" /><animate id="6" attributeName="stroke-dashoffset" values="48.25;0" dur="0.48s" fill="freeze" begin="5.end" /></path></g></g><g><g><path d="M64.35,16c0.05,0.32-0.07,1.33-0.35,1.68c-3.51,4.45-8.44,8.11-17.59,11.7" stroke-dasharray="23.13" stroke-dashoffset="23.13"><animate attributeName="stroke-dashoffset" values="23.13" fill="freeze" begin="74e3.click" /><animate id="7" attributeName="stroke-dashoffset" values="23.13;0" dur="0.23s" fill="freeze" begin="6.end" /></path></g><path d="M43.33,30.28c0.4,0.71,1.02,1.96,1.13,3.99c1.09,21.13-0.72,45.87-13.9,55.94" stroke-dasharray="63.82" stroke-dashoffset="63.82"><animate attributeName="stroke-dashoffset" values="63.82" fill="freeze" begin="74e3.click" /><animate id="8" attributeName="stroke-dashoffset" values="63.82;0" dur="0.48s" fill="freeze" begin="7.end" /></path><g><path d="M52.39,29.76c0.73,0.62,1.31,2.75,1.31,4.01c0,6.44-0.14,40.09-0.14,50.55" stroke-dasharray="54.85" stroke-dashoffset="54.85"><animate attributeName="stroke-dashoffset" values="54.85" fill="freeze" begin="74e3.click" /><animate id="9" attributeName="stroke-dashoffset" values="54.85;0" dur="0.55s" fill="freeze" begin="8.end" /></path><path d="M42.43,87.93c0.53,0.54,2.56,1.08,3.67,0.5c5.86-3.1,9.29-5.39,15.56-8.83" stroke-dasharray="21.76" stroke-dashoffset="21.76"><animate attributeName="stroke-dashoffset" values="21.76" fill="freeze" begin="74e3.click" /><animate id="10" attributeName="stroke-dashoffset" values="21.76;0" dur="0.22s" fill="freeze" begin="9.end" /></path><path d="M59.34,71.43c1.63,3.15,4.22,12.96,4.62,17.87" stroke-dasharray="18.52" stroke-dashoffset="18.52"><animate attributeName="stroke-dashoffset" values="18.52" fill="freeze" begin="74e3.click" /><animate id="11" attributeName="stroke-dashoffset" values="18.52;0" dur="0.19s" fill="freeze" begin="10.end" /></path></g><path d="M59.06,28.17c0.18,0,0.76,0.6,0.96,1.8c2.2,13.17,5.88,41.13,13.51,57.54c1.16,2.49,2.39,4.04,3.22,4.85" stroke-dasharray="67.24" stroke-dashoffset="67.24"><animate attributeName="stroke-dashoffset" values="67.24" fill="freeze" begin="74e3.click" /><animate id="12" attributeName="stroke-dashoffset" values="67.24;0" dur="0.51s" fill="freeze" begin="11.end" /></path></g><g><g><g><path d="M81.56,12.75c1.41,1.31,2.12,1.31,2.12,4.35c0,3.05,0,4.15,0,8.15" stroke-dasharray="13.27" stroke-dashoffset="13.27"><animate attributeName="stroke-dashoffset" values="13.27" fill="freeze" begin="74e3.click" /><animate id="13" attributeName="stroke-dashoffset" values="13.27;0" dur="0.13s" fill="freeze" begin="12.end" /></path><path d="M68.83,26.2c0.69,0.33,1.5,0.38,2.19,0.33c3.91-0.28,19.27-2.03,25.18-2.27c1.15-0.05,1.85,0.16,2.42,0.32" stroke-dasharray="29.98" stroke-dashoffset="29.98"><animate attributeName="stroke-dashoffset" values="29.98" fill="freeze" begin="74e3.click" /><animate id="14" attributeName="stroke-dashoffset" values="29.98;0" dur="0.3s" fill="freeze" begin="13.end" /></path></g><g><path d="M74.65,31.5c2.71,4.66,3.94,9.43,4.18,12.5" stroke-dasharray="13.28" stroke-dashoffset="13.28"><animate attributeName="stroke-dashoffset" values="13.28" fill="freeze" begin="74e3.click" /><animate id="15" attributeName="stroke-dashoffset" values="13.28;0" dur="0.13s" fill="freeze" begin="14.end" /></path><path d="M92.66,28.25c0.53,0.5,0.59,1.68,0.53,2.1c-0.43,2.85-4.01,10.97-5.07,13.15" stroke-dasharray="16.35" stroke-dashoffset="16.35"><animate attributeName="stroke-dashoffset" values="16.35" fill="freeze" begin="74e3.click" /><animate id="16" attributeName="stroke-dashoffset" values="16.35;0" dur="0.16s" fill="freeze" begin="15.end" /></path><path d="M68.75,47.8c0.87,0.39,1.88,0.47,2.75,0.39c7.25-0.69,18.75-2.69,26.72-2.5c1.45,0.04,2.31,0.19,3.04,0.38" stroke-dasharray="32.73" stroke-dashoffset="32.73"><animate attributeName="stroke-dashoffset" values="32.73" fill="freeze" begin="74e3.click" /><animate id="17" attributeName="stroke-dashoffset" values="32.73;0" dur="0.33s" fill="freeze" begin="16.end" /></path></g></g><g><path d="M71.38,63.95c0.89,0.47,2.53,0.53,3.43,0.47c6.13-0.42,14.99-1.92,21.48-2.4c1.49-0.11,2.39,0.22,3.13,0.46" stroke-dasharray="28.3" stroke-dashoffset="28.3"><animate attributeName="stroke-dashoffset" values="28.3" fill="freeze" begin="74e3.click" /><animate id="18" attributeName="stroke-dashoffset" values="28.3;0" dur="0.28s" fill="freeze" begin="17.end" /></path><path d="M83.14,48.63c0.66,0.52,1.68,2.62,1.68,4.96c0,6.05-0.19,42.74-0.22,44.29" stroke-dasharray="49.65" stroke-dashoffset="49.65"><animate attributeName="stroke-dashoffset" values="49.65" fill="freeze" begin="74e3.click" /><animate id="19" attributeName="stroke-dashoffset" values="49.65;0" dur="0.5s" fill="freeze" begin="18.end" /></path></g></g></g></g></svg>