<svg xmlns="http://www.w3.org/2000/svg" width="109" height="109" viewBox="0 0 109 109" id="7531"><g fill="none" stroke="#666" stroke-width="9" stroke-linecap="round" stroke-linejoin="round"><g><g p4:part="1" p4:partial xmlns:p4="http://kanjivg.tagaini.net"><path d="M20,45.96c1.21,1.21,2,3.28,2.21,4.8c1.36,10.12,2.42,24.91,3.46,38.87c0.14,1.9,0.28,3.78,0.42,5.63" /><path d="M23.02,48.58c20.48-2.71,45.95-4.96,58.66-5.84c4.67-0.33,6.98,2.3,6.79,4.73c-0.69,8.83-2.84,24.78-5.48,38.07c-0.54,2.72-1.22,5.17-1.82,7.26" /></g><g><path d="M51.74,13.32c1.47,1.47,2.51,3.18,2.51,5.68c0,15.3,0.23,66.95,0.23,70.94" /></g><g p4:part="2" p4:partial xmlns:p4="http://kanjivg.tagaini.net"><path d="M25.3,68.36c19.57-1.86,42.57-3.48,60.34-4.08" /><path d="M26.98,91.89c14.02-0.64,35.4-2.52,54.09-3.02" /></g></g></g><g fill="none" stroke="#000" stroke-width="5" stroke-linecap="round" stroke-linejoin="round"><g><g p4:part="1" p4:partial xmlns:p4="http://kanjivg.tagaini.net"><path d="M20,45.96c1.21,1.21,2,3.28,2.21,4.8c1.36,10.12,2.42,24.91,3.46,38.87c0.14,1.9,0.28,3.78,0.42,5.63" stroke-dasharray="50.04" stroke-dashoffset="50.04"><animate id="0" attributeName="stroke-dashoffset" values="50.04;0" dur="0.5s" fill="freeze" begin="0s;7531.click" /></path><path d="M23.02,48.58c20.48-2.71,45.95-4.96,58.66-5.84c4.67-0.33,6.98,2.3,6.79,4.73c-0.69,8.83-2.84,24.78-5.48,38.07c-0.54,2.72-1.22,5.17-1.82,7.26" stroke-dasharray="114.33" stroke-dashoffset="114.33"><animate attributeName="stroke-dashoffset" values="114.33" fill="freeze" begin="7531.click" /><animate id="1" attributeName="stroke-dashoffset" values="114.33;0" dur="0.86s" fill="freeze" begin="0.end" /></path></g><g><path d="M51.74,13.32c1.47,1.47,2.51,3.18,2.51,5.68c0,15.3,0.23,66.95,0.23,70.94" stroke-dasharray="77.33" stroke-dashoffset="77.33"><animate attributeName="stroke-dashoffset" values="77.33" fill="freeze" begin="7531.click" /><animate id="2" attributeName="stroke-dashoffset" values="77.33;0" dur="0.58s" fill="freeze" begin="1.end" /></path></g><g p4:part="2" p4:partial xmlns:p4="http://kanjivg.tagaini.net"><path d="M25.3,68.36c19.57-1.86,42.57-3.48,60.34-4.08" stroke-dasharray="60.49" stroke-dashoffset="60.49"><animate attributeName="stroke-dashoffset" values="60.49" fill="freeze" begin="7531.click" /><animate id="3" attributeName="stroke-dashoffset" values="60.49;0" dur="0.45s" fill="freeze" begin="2.end" /></path><path d="M26.98,91.89c14.02-0.64,35.4-2.52,54.09-3.02" stroke-dasharray="54.18" stroke-dashoffset="54.18"><animate attributeName="stroke-dashoffset" values="54.18" fill="freeze" begin="7531.click" /><animate id="4" attributeName="stroke-dashoffset" values="54.18;0" dur="0.54s" fill="freeze" begin="3.end" /></path></g></g></g></svg>