<svg xmlns="http://www.w3.org/2000/svg" width="109" height="109" viewBox="0 0 109 109" id="7531"><g fill="none" stroke="#666" stroke-width="6" stroke-linecap="round" stroke-linejoin="round"><g><g p4:partial xmlns:p4="http://kanjivg.tagaini.net"><path d="M20,45.96c1.21,1.21,2,3.28,2.21,4.8c1.36,10.12,2.42,24.91,3.46,38.87c0.14,1.9,0.28,3.78,0.42,5.63" /><path d="M23.02,48.58c20.48-2.71,45.95-4.96,58.66-5.84c4.67-0.33,6.98,2.3,6.79,4.73c-0.69,8.83-2.84,24.78-5.48,38.07c-0.54,2.72-1.22,5.17-1.82,7.26" /></g><g><path d="M51.74,13.32c1.47,1.47,2.51,3.18,2.51,5.68c0,15.3,0.23,66.95,0.23,70.94" /></g><g p4:partial xmlns:p4="http://kanjivg.tagaini.net"><path d="M25.3,68.36c19.57-1.86,42.57-3.48,60.34-4.08" /><path d="M26.98,91.89c14.02-0.64,35.4-2.52,54.09-3.02" /></g></g></g><g fill="none" stroke="#000" stroke-width="3" stroke-linecap="round" stroke-linejoin="round"><path d="M20,45.96c1.21,1.21,2,3.28,2.21,4.8c1.36,10.12,2.42,24.91,3.46,38.87c0.14,1.9,0.28,3.78,0.42,5.63" stroke-dasharray="50.04" stroke-dashoffset="50.04"><animate attributeName="stroke-dashoffset" values="50.04;50.04;0" dur="0.5s" fill="freeze" begin="0s;7531.click" /></path><path d="M23.02,48.58c20.48-2.71,45.95-4.96,58.66-5.84c4.67-0.33,6.98,2.3,6.79,4.73c-0.69,8.83-2.84,24.78-5.48,38.07c-0.54,2.72-1.22,5.17-1.82,7.26" stroke-dasharray="114.336" stroke-dashoffset="114.336"><animate attributeName="stroke-dashoffset" values="114.336" fill="freeze" begin="7531.click" /><animate attributeName="stroke-dashoffset" values="114.336;114.336;0" keyTimes="0;0.368;1" dur="1.36s" fill="freeze" begin="0s;7531.click" /></path><path d="M51.74,13.32c1.47,1.47,2.51,3.18,2.51,5.68c0,15.3,0.23,66.95,0.23,70.94" stroke-dasharray="77.334" stroke-dashoffset="77.334"><animate attributeName="stroke-dashoffset" values="77.334" fill="freeze" begin="7531.click" /><animate attributeName="stroke-dashoffset" values="77.334;77.334;0" keyTimes="0;0.701;1" dur="1.941s" fill="freeze" begin="0s;7531.click" /></path><path d="M25.3,68.36c19.57-1.86,42.57-3.48,60.34-4.08" stroke-dasharray="60.487" stroke-dashoffset="60.487"><animate attributeName="stroke-dashoffset" values="60.487" fill="freeze" begin="7531.click" /><animate attributeName="stroke-dashoffset" values="60.487;60.487;0" keyTimes="0;0.81;1" dur="2.396s" fill="freeze" begin="0s;7531.click" /></path><path d="M26.98,91.89c14.02-0.64,35.4-2.52,54.09-3.02" stroke-dasharray="54.178" stroke-dashoffset="54.178"><animate attributeName="stroke-dashoffset" values="54.178" fill="freeze" begin="7531.click" /><animate attributeName="stroke-dashoffset" values="54.178;54.178;0" keyTimes="0;0.816;1" dur="2.938s" fill="freeze" begin="0s;7531.click" /></path></g></svg>