<svg xmlns="http://www.w3.org/2000/svg" width="109" height="109" viewBox="0 0 109 109" id="7533"><g fill="none" stroke="#666" stroke-width="9" stroke-linecap="round" stroke-linejoin="round"><g><g p4:partial xmlns:p4="http://kanjivg.tagaini.net"><path d="M21.5,29.62c1.19,1.19,1.94,2.25,2.19,3.96c1.29,9.01,2.73,19.81,4.19,32.77c0.17,1.48,0.33,2.99,0.5,4.53" /><path d="M24.6,31.18c17.65-1.68,45.19-3.9,56.93-4.59c4.55-0.27,6.58,1.68,5.96,5.94c-1,6.91-3.3,19.86-5.18,29.76c-0.35,1.83-0.68,3.56-0.99,5.12" /><path d="M26.9,48.95c15.47-1.33,39.22-2.83,57.36-3.38" /><path d="M29.44,67.56c12.93-0.94,34.43-2.56,51.27-3" /></g><g><path d="M52.48,10c1.12,1.12,1.74,2.95,1.74,4.17c0,4.21,0.03,58.55,0.04,79.45c0,2.76,0,4.8,0,5.88" /></g></g></g><g fill="none" stroke="#000" stroke-width="5" stroke-linecap="round" stroke-linejoin="round"><g><g p4:partial xmlns:p4="http://kanjivg.tagaini.net"><path d="M21.5,29.62c1.19,1.19,1.94,2.25,2.19,3.96c1.29,9.01,2.73,19.81,4.19,32.77c0.17,1.48,0.33,2.99,0.5,4.53" stroke-dasharray="42.214" stroke-dashoffset="42.214"><animate attributeName="stroke-dashoffset" values="42.214;42.214;0" dur="0.422s" fill="freeze" begin="0s;7533.click" /></path><path d="M24.6,31.18c17.65-1.68,45.19-3.9,56.93-4.59c4.55-0.27,6.58,1.68,5.96,5.94c-1,6.91-3.3,19.86-5.18,29.76c-0.35,1.83-0.68,3.56-0.99,5.12" stroke-dasharray="102.737" stroke-dashoffset="102.737"><animate attributeName="stroke-dashoffset" values="102.737" fill="freeze" begin="7533.click" /><animate attributeName="stroke-dashoffset" values="102.737;102.737;0" keyTimes="0;0.353;1" dur="1.194s" fill="freeze" begin="0s;7533.click" /></path><path d="M26.9,48.95c15.47-1.33,39.22-2.83,57.36-3.38" stroke-dasharray="57.467" stroke-dashoffset="57.467"><animate attributeName="stroke-dashoffset" values="57.467" fill="freeze" begin="7533.click" /><animate attributeName="stroke-dashoffset" values="57.467;57.467;0" keyTimes="0;0.675;1" dur="1.769s" fill="freeze" begin="0s;7533.click" /></path><path d="M29.44,67.56c12.93-0.94,34.43-2.56,51.27-3" stroke-dasharray="51.363" stroke-dashoffset="51.363"><animate attributeName="stroke-dashoffset" values="51.363" fill="freeze" begin="7533.click" /><animate attributeName="stroke-dashoffset" values="51.363;51.363;0" keyTimes="0;0.775;1" dur="2.283s" fill="freeze" begin="0s;7533.click" /></path></g><g><path d="M52.48,10c1.12,1.12,1.74,2.95,1.74,4.17c0,4.21,0.03,58.55,0.04,79.45c0,2.76,0,4.8,0,5.88" stroke-dasharray="89.949" stroke-dashoffset="89.949"><animate attributeName="stroke-dashoffset" values="89.949" fill="freeze" begin="7533.click" /><animate attributeName="stroke-dashoffset" values="89.949;89.949;0" keyTimes="0;0.772;1" dur="2.959s" fill="freeze" begin="0s;7533.click" /></path></g></g></g></svg>