<svg xmlns="http://www.w3.org/2000/svg" width="109" height="109" viewBox="0 0 109 109" id="7546"><g fill="none" stroke="#666" stroke-width="9" stroke-linecap="round" stroke-linejoin="round"><g><g><g><path d="M31.99,15c1,0.54,2.65,2.15,2.65,3.7s-0.32,9.34-0.13,12.69" /><path d="M10.45,34.11c1.72,0.22,3.23,0.47,5.2,0.31c11.75-0.93,25.43-2.55,39.12-3c2.01-0.07,3.04,0.03,4.54,0.4" /></g><g><path d="M16.24,46.21c0.26,0.72,0.81,2.3,0.96,3.2c1.2,7.35,2.24,28.47,2.99,42.1" /><path d="M17.49,48.35c9.29-1.36,24.62-2.15,31.55-3.33c2.55-0.44,3.85,1.63,3.72,3.63c-0.48,7.32-2.16,27.83-3.33,40.05" /><path d="M33.63,47.36c0.45,0.96,1.16,2.52,1.18,3.99c0.19,10.4,0.06,30.82,0.06,36.36" /><path d="M19.22,69.24c3.03-0.56,29.55-2.95,32.05-3.12" /><path d="M20.67,88.9c6.69-0.44,19.53-1.41,28.76-2.21" /></g></g><g><path d="M79.29,14.25c0.54,1.43,1.02,3.33,0.54,5.15C72.5,47.25,65.54,70.09,58.12,86.35c-2.35,5.15-1.43,4.53,2.09,3.65c10.04-2.5,21.13-5.16,31.98-7.73" /><path d="M80.7,60.27c5.25,5.59,13.55,23,14.86,31.7" /></g></g></g><g fill="none" stroke="#000" stroke-width="5" stroke-linecap="round" stroke-linejoin="round"><g><g><g><path d="M31.99,15c1,0.54,2.65,2.15,2.65,3.7s-0.32,9.34-0.13,12.69" stroke-dasharray="17.424" stroke-dashoffset="17.424"><animate attributeName="stroke-dashoffset" values="17.424;17.424;0" dur="0.174s" fill="freeze" begin="0s;7546.click" /></path><path d="M10.45,34.11c1.72,0.22,3.23,0.47,5.2,0.31c11.75-0.93,25.43-2.55,39.12-3c2.01-0.07,3.04,0.03,4.54,0.4" stroke-dasharray="49.038" stroke-dashoffset="49.038"><animate attributeName="stroke-dashoffset" values="49.038" fill="freeze" begin="7546.click" /><animate attributeName="stroke-dashoffset" values="49.038;49.038;0" keyTimes="0;0.262;1" dur="0.664s" fill="freeze" begin="0s;7546.click" /></path></g><g><path d="M16.24,46.21c0.26,0.72,0.81,2.3,0.96,3.2c1.2,7.35,2.24,28.47,2.99,42.1" stroke-dasharray="45.562" stroke-dashoffset="45.562"><animate attributeName="stroke-dashoffset" values="45.562" fill="freeze" begin="7546.click" /><animate attributeName="stroke-dashoffset" values="45.562;45.562;0" keyTimes="0;0.593;1" dur="1.12s" fill="freeze" begin="0s;7546.click" /></path><path d="M17.49,48.35c9.29-1.36,24.62-2.15,31.55-3.33c2.55-0.44,3.85,1.63,3.72,3.63c-0.48,7.32-2.16,27.83-3.33,40.05" stroke-dasharray="78.001" stroke-dashoffset="78.001"><animate attributeName="stroke-dashoffset" values="78.001" fill="freeze" begin="7546.click" /><animate attributeName="stroke-dashoffset" values="78.001;78.001;0" keyTimes="0;0.657;1" dur="1.706s" fill="freeze" begin="0s;7546.click" /></path><path d="M33.63,47.36c0.45,0.96,1.16,2.52,1.18,3.99c0.19,10.4,0.06,30.82,0.06,36.36" stroke-dasharray="40.554" stroke-dashoffset="40.554"><animate attributeName="stroke-dashoffset" values="40.554" fill="freeze" begin="7546.click" /><animate attributeName="stroke-dashoffset" values="40.554;40.554;0" keyTimes="0;0.808;1" dur="2.112s" fill="freeze" begin="0s;7546.click" /></path><path d="M19.22,69.24c3.03-0.56,29.55-2.95,32.05-3.12" stroke-dasharray="32.205" stroke-dashoffset="32.205"><animate attributeName="stroke-dashoffset" values="32.205" fill="freeze" begin="7546.click" /><animate attributeName="stroke-dashoffset" values="32.205;32.205;0" keyTimes="0;0.868;1" dur="2.434s" fill="freeze" begin="0s;7546.click" /></path><path d="M20.67,88.9c6.69-0.44,19.53-1.41,28.76-2.21" stroke-dasharray="28.846" stroke-dashoffset="28.846"><animate attributeName="stroke-dashoffset" values="28.846" fill="freeze" begin="7546.click" /><animate attributeName="stroke-dashoffset" values="28.846;28.846;0" keyTimes="0;0.894;1" dur="2.722s" fill="freeze" begin="0s;7546.click" /></path></g></g><g><path d="M79.29,14.25c0.54,1.43,1.02,3.33,0.54,5.15C72.5,47.25,65.54,70.09,58.12,86.35c-2.35,5.15-1.43,4.53,2.09,3.65c10.04-2.5,21.13-5.16,31.98-7.73" stroke-dasharray="116.338" stroke-dashoffset="116.338"><animate attributeName="stroke-dashoffset" values="116.338" fill="freeze" begin="7546.click" /><animate attributeName="stroke-dashoffset" values="116.338;116.338;0" keyTimes="0;0.757;1" dur="3.597s" fill="freeze" begin="0s;7546.click" /></path><path d="M80.7,60.27c5.25,5.59,13.55,23,14.86,31.7" stroke-dasharray="35.309" stroke-dashoffset="35.309"><animate attributeName="stroke-dashoffset" values="35.309" fill="freeze" begin="7546.click" /><animate attributeName="stroke-dashoffset" values="35.309;35.309;0" keyTimes="0;0.911;1" dur="3.95s" fill="freeze" begin="0s;7546.click" /></path></g></g></g></svg>