<svg xmlns="http://www.w3.org/2000/svg" width="109" height="109" viewBox="0 0 109 109" id="754c"><g fill="none" stroke="#666" stroke-width="9" stroke-linecap="round" stroke-linejoin="round"><g><g><path d="M27.97,16.22c0.78,0.78,1.28,1.28,1.56,2.62c1.41,6.75,2.76,14.26,3.69,22.78c0.11,0.98,0.21,1.94,0.31,2.86" /><path d="M30.39,17.55c13.86-1.55,33.36-3.3,44.49-4.27c3.51-0.31,5.75,1.74,5.34,4.26C79,25.12,77.58,31.6,76.16,38.79c-0.21,1.08-0.41,1.84-0.91,3.24" /><path d="M52.75,16.75C53.88,18,54.12,19,54.11,20.5c-0.02,6.11,0.23,17.81,0.23,19.78" /><path d="M32.7,29.78c14.43-1.53,36.97-3.25,44.65-3.69" /><path d="M34.45,42.92c11.17-1.04,25.3-2.42,40.15-3.17" /></g><g p4:phon="ไป" xmlns:p4="http://kanjivg.tagaini.net"><g><path d="M46.88,43.62c0,1.25-0.48,2.58-1.41,3.97c-4.22,6.29-15.01,17.67-28.72,25.59" /><path d="M59.75,43.02c6.75,5.85,19.27,17.27,27.99,23.5c2.76,1.97,5.41,3.6,8.77,4.31" /></g><g><g><path d="M41.64,61.93c0.57,0.68,0.95,1.78,0.96,3.03c0.15,11.92,0.36,25.81-11.85,33.67" /></g><g><path d="M65.39,58.85c1,1,1.29,2.15,1.29,3.56c0,3.59,0.05,21.23-0.08,31.47c-0.03,2.18-0.06,3.86-0.09,4.72" /></g></g></g></g></g><g fill="none" stroke="#000" stroke-width="5" stroke-linecap="round" stroke-linejoin="round"><path d="M27.97,16.22c0.78,0.78,1.28,1.28,1.56,2.62c1.41,6.75,2.76,14.26,3.69,22.78c0.11,0.98,0.21,1.94,0.31,2.86" stroke-dasharray="29.073" stroke-dashoffset="29.073"><animate attributeName="stroke-dashoffset" values="29.073;29.073;0" dur="0.291s" fill="freeze" begin="0s;754c.click" /></path><path d="M30.39,17.55c13.86-1.55,33.36-3.3,44.49-4.27c3.51-0.31,5.75,1.74,5.34,4.26C79,25.12,77.58,31.6,76.16,38.79c-0.21,1.08-0.41,1.84-0.91,3.24" stroke-dasharray="77.662" stroke-dashoffset="77.662"><animate attributeName="stroke-dashoffset" values="77.662" fill="freeze" begin="754c.click" /><animate attributeName="stroke-dashoffset" values="77.662;77.662;0" keyTimes="0;0.333;1" dur="0.875s" fill="freeze" begin="0s;754c.click" /></path><path d="M52.75,16.75C53.88,18,54.12,19,54.11,20.5c-0.02,6.11,0.23,17.81,0.23,19.78" stroke-dasharray="23.89" stroke-dashoffset="23.89"><animate attributeName="stroke-dashoffset" values="23.89" fill="freeze" begin="754c.click" /><animate attributeName="stroke-dashoffset" values="23.89;23.89;0" keyTimes="0;0.785;1" dur="1.114s" fill="freeze" begin="0s;754c.click" /></path><path d="M32.7,29.78c14.43-1.53,36.97-3.25,44.65-3.69" stroke-dasharray="44.806" stroke-dashoffset="44.806"><animate attributeName="stroke-dashoffset" values="44.806" fill="freeze" begin="754c.click" /><animate attributeName="stroke-dashoffset" values="44.806;44.806;0" keyTimes="0;0.713;1" dur="1.562s" fill="freeze" begin="0s;754c.click" /></path><path d="M34.45,42.92c11.17-1.04,25.3-2.42,40.15-3.17" stroke-dasharray="40.279" stroke-dashoffset="40.279"><animate attributeName="stroke-dashoffset" values="40.279" fill="freeze" begin="754c.click" /><animate attributeName="stroke-dashoffset" values="40.279;40.279;0" keyTimes="0;0.795;1" dur="1.965s" fill="freeze" begin="0s;754c.click" /></path><path d="M46.88,43.62c0,1.25-0.48,2.58-1.41,3.97c-4.22,6.29-15.01,17.67-28.72,25.59" stroke-dasharray="43.015" stroke-dashoffset="43.015"><animate attributeName="stroke-dashoffset" values="43.015" fill="freeze" begin="754c.click" /><animate attributeName="stroke-dashoffset" values="43.015;43.015;0" keyTimes="0;0.82;1" dur="2.395s" fill="freeze" begin="0s;754c.click" /></path><path d="M59.75,43.02c6.75,5.85,19.27,17.27,27.99,23.5c2.76,1.97,5.41,3.6,8.77,4.31" stroke-dasharray="46.409" stroke-dashoffset="46.409"><animate attributeName="stroke-dashoffset" values="46.409" fill="freeze" begin="754c.click" /><animate attributeName="stroke-dashoffset" values="46.409;46.409;0" keyTimes="0;0.838;1" dur="2.859s" fill="freeze" begin="0s;754c.click" /></path><path d="M41.64,61.93c0.57,0.68,0.95,1.78,0.96,3.03c0.15,11.92,0.36,25.81-11.85,33.67" stroke-dasharray="40.783" stroke-dashoffset="40.783"><animate attributeName="stroke-dashoffset" values="40.783" fill="freeze" begin="754c.click" /><animate attributeName="stroke-dashoffset" values="40.783;40.783;0" keyTimes="0;0.875;1" dur="3.267s" fill="freeze" begin="0s;754c.click" /></path><path d="M65.39,58.85c1,1,1.29,2.15,1.29,3.56c0,3.59,0.05,21.23-0.08,31.47c-0.03,2.18-0.06,3.86-0.09,4.72" stroke-dasharray="40.091" stroke-dashoffset="40.091"><animate attributeName="stroke-dashoffset" values="40.091" fill="freeze" begin="754c.click" /><animate attributeName="stroke-dashoffset" values="40.091;40.091;0" keyTimes="0;0.891;1" dur="3.668s" fill="freeze" begin="0s;754c.click" /></path></g></svg>