<svg xmlns="http://www.w3.org/2000/svg" width="109" height="109" viewBox="0 0 109 109" id="755a"><g fill="none" stroke="#666" stroke-width="9" stroke-linecap="round" stroke-linejoin="round"><g><g><g><path d="M54.22,8.25c-0.12,1.12-0.18,2.21-0.58,2.73c-5.41,7.05-12.57,12.65-19.9,17.74c-2.32,1.61-2.32,3.97,1.07,3.61c7.13-0.75,29.44-5.34,41.49-7.18" /><path d="M66.93,16.88c4.9,2.57,12.65,10.59,13.87,14.59" /></g><g><path d="M12.38,46.04c1.46,0.4,5.34,0.88,8.44,0.7c20.93-1.2,48.41-3.61,67.2-4.19c3.23-0.1,5.83-0.05,8.74,0.26" /><path d="M51.98,32.25c0.02,1.25,0.39,2.8,0.01,3.98C48.5,47.25,28.5,67.25,9.5,74.25" /><path d="M62.5,44c6.83,6,22.75,21.29,29.57,25.3c2.32,1.37,3.12,1.57,4.18,1.7" /></g></g><g><path d="M28.61,66.71c0.35,0.56,0.86,1.93,1.04,2.62c1.55,5.65,3.45,19.77,4.37,30.18" /><path d="M30.75,68.56c14.25-1.31,35.98-2.53,45.19-3.08c3.38-0.2,4.6,2.43,4.42,3.95c-0.68,5.55-3.12,19.82-5.12,29.08" /><path d="M53.92,68.4c-0.02,0.43-0.04,1.19-0.04,2.19c-0.04,6.55,0.22,23.38,0.22,25.76" /><path d="M32.45,83.06c4.02-0.27,42.82-2.42,46.14-2.42" /><path d="M34.16,97.53c8.88,0,28.93-1.76,41.19-1.91" /></g></g></g><g fill="none" stroke="#000" stroke-width="5" stroke-linecap="round" stroke-linejoin="round"><g><g><g><path d="M54.22,8.25c-0.12,1.12-0.18,2.21-0.58,2.73c-5.41,7.05-12.57,12.65-19.9,17.74c-2.32,1.61-2.32,3.97,1.07,3.61c7.13-0.75,29.44-5.34,41.49-7.18" stroke-dasharray="78.02" stroke-dashoffset="78.02"><animate id="0" attributeName="stroke-dashoffset" values="78.02;0" dur="0.59s" fill="freeze" begin="0s;755a.click" /></path><path d="M66.93,16.88c4.9,2.57,12.65,10.59,13.87,14.59" stroke-dasharray="20.42" stroke-dashoffset="20.42"><animate attributeName="stroke-dashoffset" values="20.42" fill="freeze" begin="755a.click" /><animate id="1" attributeName="stroke-dashoffset" values="20.42;0" dur="0.2s" fill="freeze" begin="0.end" /></path></g><g><path d="M12.38,46.04c1.46,0.4,5.34,0.88,8.44,0.7c20.93-1.2,48.41-3.61,67.2-4.19c3.23-0.1,5.83-0.05,8.74,0.26" stroke-dasharray="84.58" stroke-dashoffset="84.58"><animate attributeName="stroke-dashoffset" values="84.58" fill="freeze" begin="755a.click" /><animate id="2" attributeName="stroke-dashoffset" values="84.58;0" dur="0.64s" fill="freeze" begin="1.end" /></path><path d="M51.98,32.25c0.02,1.25,0.39,2.8,0.01,3.98C48.5,47.25,28.5,67.25,9.5,74.25" stroke-dasharray="62.33" stroke-dashoffset="62.33"><animate attributeName="stroke-dashoffset" values="62.33" fill="freeze" begin="755a.click" /><animate id="3" attributeName="stroke-dashoffset" values="62.33;0" dur="0.47s" fill="freeze" begin="2.end" /></path><path d="M62.5,44c6.83,6,22.75,21.29,29.57,25.3c2.32,1.37,3.12,1.57,4.18,1.7" stroke-dasharray="43.51" stroke-dashoffset="43.51"><animate attributeName="stroke-dashoffset" values="43.51" fill="freeze" begin="755a.click" /><animate id="4" attributeName="stroke-dashoffset" values="43.51;0" dur="0.44s" fill="freeze" begin="3.end" /></path></g></g><g><path d="M28.61,66.71c0.35,0.56,0.86,1.93,1.04,2.62c1.55,5.65,3.45,19.77,4.37,30.18" stroke-dasharray="33.34" stroke-dashoffset="33.34"><animate attributeName="stroke-dashoffset" values="33.34" fill="freeze" begin="755a.click" /><animate id="5" attributeName="stroke-dashoffset" values="33.34;0" dur="0.33s" fill="freeze" begin="4.end" /></path><path d="M30.75,68.56c14.25-1.31,35.98-2.53,45.19-3.08c3.38-0.2,4.6,2.43,4.42,3.95c-0.68,5.55-3.12,19.82-5.12,29.08" stroke-dasharray="81.6" stroke-dashoffset="81.6"><animate attributeName="stroke-dashoffset" values="81.6" fill="freeze" begin="755a.click" /><animate id="6" attributeName="stroke-dashoffset" values="81.6;0" dur="0.61s" fill="freeze" begin="5.end" /></path><path d="M53.92,68.4c-0.02,0.43-0.04,1.19-0.04,2.19c-0.04,6.55,0.22,23.38,0.22,25.76" stroke-dasharray="27.95" stroke-dashoffset="27.95"><animate attributeName="stroke-dashoffset" values="27.95" fill="freeze" begin="755a.click" /><animate id="7" attributeName="stroke-dashoffset" values="27.95;0" dur="0.28s" fill="freeze" begin="6.end" /></path><path d="M32.45,83.06c4.02-0.27,42.82-2.42,46.14-2.42" stroke-dasharray="46.2" stroke-dashoffset="46.2"><animate attributeName="stroke-dashoffset" values="46.2" fill="freeze" begin="755a.click" /><animate id="8" attributeName="stroke-dashoffset" values="46.2;0" dur="0.46s" fill="freeze" begin="7.end" /></path><path d="M34.16,97.53c8.88,0,28.93-1.76,41.19-1.91" stroke-dasharray="41.24" stroke-dashoffset="41.24"><animate attributeName="stroke-dashoffset" values="41.24" fill="freeze" begin="755a.click" /><animate id="9" attributeName="stroke-dashoffset" values="41.24;0" dur="0.41s" fill="freeze" begin="8.end" /></path></g></g></g></svg>