<svg xmlns="http://www.w3.org/2000/svg" width="109" height="109" viewBox="0 0 109 109" id="7567"><g fill="none" stroke="#666" stroke-width="9" stroke-linecap="round" stroke-linejoin="round"><g><g><path d="M24.99,14.22c0.47,0.48,0.48,0.81,0.75,1.42c2.14,4.98,4.15,17.54,5.48,26.82" /><path d="M27.69,15.83c14.58-1.14,40.03-3.37,50.96-3.54c2.59-0.04,4.59,1.46,4.34,4.14c-0.43,4.61-3.11,15.53-4.94,23.16" /><path d="M53.46,14.58c0.52,5.89,0.26,18.77,0.26,22.7" /><path d="M28.92,28.06c4.75-0.44,47.48-3.72,51.4-3.9" /><path d="M31.97,39.72c13.53-1.47,32.09-2.52,46.59-3.31" /></g><g><g><path d="M44.74,41.75c0.07,0.5-0.16,1.84-0.63,2.53c-3.6,5.29-11.12,12.18-22.39,18.78" /><path d="M42.74,48.92c0.42,0.02,2.21,0,3.41-0.07c3.95-0.23,16.39-2.44,22.05-2.91c2.3-0.19,3.47,2.06,2.48,3.39c-5.41,7.29-27.93,22.69-52.24,27.5" /><path d="M36.71,53.12c7.08,3.11,39.14,14.94,48.68,17.79c2.84,0.85,5.15,1.26,7.92,1.51" /></g><g><path d="M33.55,75.75c0.49,0.38,1,0.69,1.22,1.17c1.71,3.75,2.58,14.54,3.75,21.29" /><path d="M35.13,76.95c13.89-1.27,33.05-2.91,38.84-3.4c2.11-0.18,2.88,2.07,2.58,3.13c-1.25,4.39-3.08,11.03-4.94,17.1" /><path d="M38.75,96.26c6.8-0.56,26.81-1.66,36.15-2.51" /></g></g></g></g><g fill="none" stroke="#000" stroke-width="5" stroke-linecap="round" stroke-linejoin="round"><g><g><path d="M24.99,14.22c0.47,0.48,0.48,0.81,0.75,1.42c2.14,4.98,4.15,17.54,5.48,26.82" stroke-dasharray="29.044" stroke-dashoffset="29.044"><animate attributeName="stroke-dashoffset" values="29.044;29.044;0" dur="0.29s" fill="freeze" begin="0s;7567.click" /></path><path d="M27.69,15.83c14.58-1.14,40.03-3.37,50.96-3.54c2.59-0.04,4.59,1.46,4.34,4.14c-0.43,4.61-3.11,15.53-4.94,23.16" stroke-dasharray="81.674" stroke-dashoffset="81.674"><animate attributeName="stroke-dashoffset" values="81.674" fill="freeze" begin="7567.click" /><animate attributeName="stroke-dashoffset" values="81.674;81.674;0" keyTimes="0;0.321;1" dur="0.904s" fill="freeze" begin="0s;7567.click" /></path><path d="M53.46,14.58c0.52,5.89,0.26,18.77,0.26,22.7" stroke-dasharray="22.709" stroke-dashoffset="22.709"><animate attributeName="stroke-dashoffset" values="22.709" fill="freeze" begin="7567.click" /><animate attributeName="stroke-dashoffset" values="22.709;22.709;0" keyTimes="0;0.799;1" dur="1.131s" fill="freeze" begin="0s;7567.click" /></path><path d="M28.92,28.06c4.75-0.44,47.48-3.72,51.4-3.9" stroke-dasharray="51.549" stroke-dashoffset="51.549"><animate attributeName="stroke-dashoffset" values="51.549" fill="freeze" begin="7567.click" /><animate attributeName="stroke-dashoffset" values="51.549;51.549;0" keyTimes="0;0.687;1" dur="1.646s" fill="freeze" begin="0s;7567.click" /></path><path d="M31.97,39.72c13.53-1.47,32.09-2.52,46.59-3.31" stroke-dasharray="46.714" stroke-dashoffset="46.714"><animate attributeName="stroke-dashoffset" values="46.714" fill="freeze" begin="7567.click" /><animate attributeName="stroke-dashoffset" values="46.714;46.714;0" keyTimes="0;0.779;1" dur="2.113s" fill="freeze" begin="0s;7567.click" /></path></g><g><g><path d="M44.74,41.75c0.07,0.5-0.16,1.84-0.63,2.53c-3.6,5.29-11.12,12.18-22.39,18.78" stroke-dasharray="32.077" stroke-dashoffset="32.077"><animate attributeName="stroke-dashoffset" values="32.077" fill="freeze" begin="7567.click" /><animate attributeName="stroke-dashoffset" values="32.077;32.077;0" keyTimes="0;0.868;1" dur="2.434s" fill="freeze" begin="0s;7567.click" /></path><path d="M42.74,48.92c0.42,0.02,2.21,0,3.41-0.07c3.95-0.23,16.39-2.44,22.05-2.91c2.3-0.19,3.47,2.06,2.48,3.39c-5.41,7.29-27.93,22.69-52.24,27.5" stroke-dasharray="90.837" stroke-dashoffset="90.837"><animate attributeName="stroke-dashoffset" values="90.837" fill="freeze" begin="7567.click" /><animate attributeName="stroke-dashoffset" values="90.837;90.837;0" keyTimes="0;0.781;1" dur="3.117s" fill="freeze" begin="0s;7567.click" /></path><path d="M36.71,53.12c7.08,3.11,39.14,14.94,48.68,17.79c2.84,0.85,5.15,1.26,7.92,1.51" stroke-dasharray="59.919" stroke-dashoffset="59.919"><animate attributeName="stroke-dashoffset" values="59.919" fill="freeze" begin="7567.click" /><animate attributeName="stroke-dashoffset" values="59.919;59.919;0" keyTimes="0;0.839;1" dur="3.716s" fill="freeze" begin="0s;7567.click" /></path></g><g><path d="M33.55,75.75c0.49,0.38,1,0.69,1.22,1.17c1.71,3.75,2.58,14.54,3.75,21.29" stroke-dasharray="23.366" stroke-dashoffset="23.366"><animate attributeName="stroke-dashoffset" values="23.366" fill="freeze" begin="7567.click" /><animate attributeName="stroke-dashoffset" values="23.366;23.366;0" keyTimes="0;0.941;1" dur="3.95s" fill="freeze" begin="0s;7567.click" /></path><path d="M35.13,76.95c13.89-1.27,33.05-2.91,38.84-3.4c2.11-0.18,2.88,2.07,2.58,3.13c-1.25,4.39-3.08,11.03-4.94,17.1" stroke-dasharray="61.502" stroke-dashoffset="61.502"><animate attributeName="stroke-dashoffset" values="61.502" fill="freeze" begin="7567.click" /><animate attributeName="stroke-dashoffset" values="61.502;61.502;0" keyTimes="0;0.895;1" dur="4.412s" fill="freeze" begin="0s;7567.click" /></path><path d="M38.75,96.26c6.8-0.56,26.81-1.66,36.15-2.51" stroke-dasharray="36.239" stroke-dashoffset="36.239"><animate attributeName="stroke-dashoffset" values="36.239" fill="freeze" begin="7567.click" /><animate attributeName="stroke-dashoffset" values="36.239;36.239;0" keyTimes="0;0.924;1" dur="4.774s" fill="freeze" begin="0s;7567.click" /></path></g></g></g></g></svg>