<svg xmlns="http://www.w3.org/2000/svg" width="109" height="109" viewBox="0 0 109 109" id="75b3"><g fill="none" stroke="#666" stroke-width="9" stroke-linecap="round" stroke-linejoin="round"><g><g><path d="M56.41,10.13c0.7,0.36,2.18,2.66,2.32,3.37c0.14,0.71,0.07,5.3-0.07,9.74" /><path d="M26.13,24.23c1.52,0.54,4.3,0.63,5.82,0.54c15.8-0.91,41.55-2.02,55.61-2.73c2.53-0.13,4.05,0.26,5.31,0.53" /><path d="M31.49,25.5c0,1.27,0,2.52-0.01,3.75c-0.17,32.93-2.75,49.03-16.68,63.22" /><path d="M13.75,35.25c3.62,2.12,9.34,8.71,10.25,12" /><path d="M12.17,66.03c1.39,0.68,1.82,0.49,3.04-0.35c4.94-3.37,7.8-5.52,11.54-8.43" /></g><g><g p5:part="1" xmlns:p5="http://kanjivg.tagaini.net"><g><path d="M36.91,47.59c1.4,0.39,3.96,0.49,5.35,0.39c10.28-0.72,29.84-1.84,46.69-2.79c2.32-0.13,3.72,0.19,4.89,0.38" /><path d="M48.12,32.64c1.16,0.42,1.85,1.88,2.08,2.72c0.23,0.84,0,55.4-0.23,60.64" /></g><path d="M75.55,29.75c1.16,0.42,1.85,1.88,2.08,2.72s0,57.96-0.23,63.19" /></g><path d="M50.41,67.53c5.93-0.29,23.89-1.15,27.07-1.15" /><g p5:part="2" xmlns:p5="http://kanjivg.tagaini.net"><path d="M50.41,90.91c6.91-0.21,20.43-0.97,26.81-1.17" /></g></g></g></g><g fill="none" stroke="#000" stroke-width="5" stroke-linecap="round" stroke-linejoin="round"><g><g><path d="M56.41,10.13c0.7,0.36,2.18,2.66,2.32,3.37c0.14,0.71,0.07,5.3-0.07,9.74" stroke-dasharray="13.89" stroke-dashoffset="13.89"><animate id="0" attributeName="stroke-dashoffset" values="13.89;0" dur="0.14s" fill="freeze" begin="0s;75b3.click" /></path><path d="M26.13,24.23c1.52,0.54,4.3,0.63,5.82,0.54c15.8-0.91,41.55-2.02,55.61-2.73c2.53-0.13,4.05,0.26,5.31,0.53" stroke-dasharray="66.91" stroke-dashoffset="66.91"><animate attributeName="stroke-dashoffset" values="66.91" fill="freeze" begin="75b3.click" /><animate id="1" attributeName="stroke-dashoffset" values="66.91;0" dur="0.5s" fill="freeze" begin="0.end" /></path><path d="M31.49,25.5c0,1.27,0,2.52-0.01,3.75c-0.17,32.93-2.75,49.03-16.68,63.22" stroke-dasharray="71.02" stroke-dashoffset="71.02"><animate attributeName="stroke-dashoffset" values="71.02" fill="freeze" begin="75b3.click" /><animate id="2" attributeName="stroke-dashoffset" values="71.02;0" dur="0.53s" fill="freeze" begin="1.end" /></path><path d="M13.75,35.25c3.62,2.12,9.34,8.71,10.25,12" stroke-dasharray="16" stroke-dashoffset="16"><animate attributeName="stroke-dashoffset" values="16" fill="freeze" begin="75b3.click" /><animate id="3" attributeName="stroke-dashoffset" values="16;0" dur="0.16s" fill="freeze" begin="2.end" /></path><path d="M12.17,66.03c1.39,0.68,1.82,0.49,3.04-0.35c4.94-3.37,7.8-5.52,11.54-8.43" stroke-dasharray="17.6" stroke-dashoffset="17.6"><animate attributeName="stroke-dashoffset" values="17.6" fill="freeze" begin="75b3.click" /><animate id="4" attributeName="stroke-dashoffset" values="17.6;0" dur="0.18s" fill="freeze" begin="3.end" /></path></g><g><g p5:part="1" xmlns:p5="http://kanjivg.tagaini.net"><g><path d="M36.91,47.59c1.4,0.39,3.96,0.49,5.35,0.39c10.28-0.72,29.84-1.84,46.69-2.79c2.32-0.13,3.72,0.19,4.89,0.38" stroke-dasharray="57.07" stroke-dashoffset="57.07"><animate attributeName="stroke-dashoffset" values="57.07" fill="freeze" begin="75b3.click" /><animate id="5" attributeName="stroke-dashoffset" values="57.07;0" dur="0.57s" fill="freeze" begin="4.end" /></path><path d="M48.12,32.64c1.16,0.42,1.85,1.88,2.08,2.72c0.23,0.84,0,55.4-0.23,60.64" stroke-dasharray="64.19" stroke-dashoffset="64.19"><animate attributeName="stroke-dashoffset" values="64.19" fill="freeze" begin="75b3.click" /><animate id="6" attributeName="stroke-dashoffset" values="64.19;0" dur="0.48s" fill="freeze" begin="5.end" /></path></g><path d="M75.55,29.75c1.16,0.42,1.85,1.88,2.08,2.72s0,57.96-0.23,63.19" stroke-dasharray="66.74" stroke-dashoffset="66.74"><animate attributeName="stroke-dashoffset" values="66.74" fill="freeze" begin="75b3.click" /><animate id="7" attributeName="stroke-dashoffset" values="66.74;0" dur="0.5s" fill="freeze" begin="6.end" /></path></g><path d="M50.41,67.53c5.93-0.29,23.89-1.15,27.07-1.15" stroke-dasharray="27.1" stroke-dashoffset="27.1"><animate attributeName="stroke-dashoffset" values="27.1" fill="freeze" begin="75b3.click" /><animate id="8" attributeName="stroke-dashoffset" values="27.1;0" dur="0.27s" fill="freeze" begin="7.end" /></path><g p5:part="2" xmlns:p5="http://kanjivg.tagaini.net"><path d="M50.41,90.91c6.91-0.21,20.43-0.97,26.81-1.17" stroke-dasharray="26.84" stroke-dashoffset="26.84"><animate attributeName="stroke-dashoffset" values="26.84" fill="freeze" begin="75b3.click" /><animate id="9" attributeName="stroke-dashoffset" values="26.84;0" dur="0.27s" fill="freeze" begin="8.end" /></path></g></g></g></g></svg>