<svg xmlns="http://www.w3.org/2000/svg" width="109" height="109" viewBox="0 0 109 109" id="75bc"><g fill="none" stroke="#666" stroke-width="9" stroke-linecap="round" stroke-linejoin="round"><g><g><path d="M53.91,11.13c0.7,0.36,2.18,2.66,2.32,3.37c0.14,0.71,0.07,4.3-0.07,8.74" /><path d="M25.38,24.73c1.82,0.54,5.15,0.63,6.96,0.54c18.9-0.91,33.36-2.52,50.18-3.23c3.02-0.13,4.84,0.26,6.36,0.53" /><path d="M29.99,26.5c-0.04,1.28-0.08,2.53-0.13,3.76c-1.04,29.14-3.35,45.78-14.81,64.46" /><path d="M14.75,39.5c2.38,1.19,6.15,4.9,6.75,6.75" /><path d="M10.67,67.13c1.29,0.52,2.7,0.87,3.83,0.24c4.6-2.55,6.26-4.17,9.75-6.37" /></g><g><g><path d="M53.98,31.5c0.05,0.65,0.11,1.69-0.1,2.63c-1.22,5.54-8.19,17.7-17.74,25.14" /><path d="M56.41,37.79c0.66-0.07,3.16-0.18,4.34-0.32c3.86-0.46,9.75-1.74,12.83-2.41c2.76-0.6,3.51,1.17,2.84,2.83C72,49,52.5,70,33.75,76.53" /><path d="M50.09,44.68c5.36,4.9,29.68,23.53,36.91,28c2.16,1.34,3.9,1.99,6,2.38" /></g><g><g><path d="M56.69,72.32c4.48,1.45,11.58,5.95,12.7,8.2" /></g><g><path d="M  45.029791,95.672291 C 60.08625,91.203333 69.695624,86.572084 84.161041,81.082292" /></g></g></g></g></g><g fill="none" stroke="#000" stroke-width="5" stroke-linecap="round" stroke-linejoin="round"><g><g><path d="M53.91,11.13c0.7,0.36,2.18,2.66,2.32,3.37c0.14,0.71,0.07,4.3-0.07,8.74" stroke-dasharray="12.89" stroke-dashoffset="12.89"><animate id="0" attributeName="stroke-dashoffset" values="12.89;0" dur="0.13s" fill="freeze" begin="0s;75bc.click" /></path><path d="M25.38,24.73c1.82,0.54,5.15,0.63,6.96,0.54c18.9-0.91,33.36-2.52,50.18-3.23c3.02-0.13,4.84,0.26,6.36,0.53" stroke-dasharray="63.69" stroke-dashoffset="63.69"><animate attributeName="stroke-dashoffset" values="63.69" fill="freeze" begin="75bc.click" /><animate id="1" attributeName="stroke-dashoffset" values="63.69;0" dur="0.48s" fill="freeze" begin="0.end" /></path><path d="M29.99,26.5c-0.04,1.28-0.08,2.53-0.13,3.76c-1.04,29.14-3.35,45.78-14.81,64.46" stroke-dasharray="70.77" stroke-dashoffset="70.77"><animate attributeName="stroke-dashoffset" values="70.77" fill="freeze" begin="75bc.click" /><animate id="2" attributeName="stroke-dashoffset" values="70.77;0" dur="0.53s" fill="freeze" begin="1.end" /></path><path d="M14.75,39.5c2.38,1.19,6.15,4.9,6.75,6.75" stroke-dasharray="9.68" stroke-dashoffset="9.68"><animate attributeName="stroke-dashoffset" values="9.68" fill="freeze" begin="75bc.click" /><animate id="3" attributeName="stroke-dashoffset" values="9.68;0" dur="0.1s" fill="freeze" begin="2.end" /></path><path d="M10.67,67.13c1.29,0.52,2.7,0.87,3.83,0.24c4.6-2.55,6.26-4.17,9.75-6.37" stroke-dasharray="15.62" stroke-dashoffset="15.62"><animate attributeName="stroke-dashoffset" values="15.62" fill="freeze" begin="75bc.click" /><animate id="4" attributeName="stroke-dashoffset" values="15.62;0" dur="0.16s" fill="freeze" begin="3.end" /></path></g><g><g><path d="M53.98,31.5c0.05,0.65,0.11,1.69-0.1,2.63c-1.22,5.54-8.19,17.7-17.74,25.14" stroke-dasharray="33.85" stroke-dashoffset="33.85"><animate attributeName="stroke-dashoffset" values="33.85" fill="freeze" begin="75bc.click" /><animate id="5" attributeName="stroke-dashoffset" values="33.85;0" dur="0.34s" fill="freeze" begin="4.end" /></path><path d="M56.41,37.79c0.66-0.07,3.16-0.18,4.34-0.32c3.86-0.46,9.75-1.74,12.83-2.41c2.76-0.6,3.51,1.17,2.84,2.83C72,49,52.5,70,33.75,76.53" stroke-dasharray="81.49" stroke-dashoffset="81.49"><animate attributeName="stroke-dashoffset" values="81.49" fill="freeze" begin="75bc.click" /><animate id="6" attributeName="stroke-dashoffset" values="81.49;0" dur="0.61s" fill="freeze" begin="5.end" /></path><path d="M50.09,44.68c5.36,4.9,29.68,23.53,36.91,28c2.16,1.34,3.9,1.99,6,2.38" stroke-dasharray="52.85" stroke-dashoffset="52.85"><animate attributeName="stroke-dashoffset" values="52.85" fill="freeze" begin="75bc.click" /><animate id="7" attributeName="stroke-dashoffset" values="52.85;0" dur="0.53s" fill="freeze" begin="6.end" /></path></g><g><g><path d="M56.69,72.32c4.48,1.45,11.58,5.95,12.7,8.2" stroke-dasharray="15.31" stroke-dashoffset="15.31"><animate attributeName="stroke-dashoffset" values="15.31" fill="freeze" begin="75bc.click" /><animate id="8" attributeName="stroke-dashoffset" values="15.31;0" dur="0.15s" fill="freeze" begin="7.end" /></path></g><g><path d="M  45.029791,95.672291 C 60.08625,91.203333 69.695624,86.572084 84.161041,81.082292" stroke-dasharray="41.78" stroke-dashoffset="41.78"><animate attributeName="stroke-dashoffset" values="41.78" fill="freeze" begin="75bc.click" /><animate id="9" attributeName="stroke-dashoffset" values="41.78;0" dur="0.42s" fill="freeze" begin="8.end" /></path></g></g></g></g></g></svg>