<svg xmlns="http://www.w3.org/2000/svg" viewBox="0 0 109 109" id="75ca"><g fill="none" stroke="#666" stroke-width="6" stroke-linecap="round" stroke-linejoin="round"><g><g><path d="M55.41,13.13c0.7,0.36,2.18,2.66,2.32,3.37c0.14,0.71,0.07,3.8-0.07,8.24" /><path d="M28.13,25.73c1.52,0.54,4.3,0.63,5.82,0.54c15.8-0.91,37.55-1.52,51.61-2.23c2.53-0.13,4.05,0.26,5.31,0.53" /><path d="M30.99,27c0,1.1,0,2.18-0.01,3.25c-0.24,33.26-4.38,49.18-16.67,62.72" /><path d="M14.25,36.75c2.91,2.12,7.52,8.71,8.25,12" /><path d="M10.67,64.98c1.63,0.76,2.13,0.54,3.56-0.38c5.79-3.74,7.63-4.62,12.01-7.85" /></g><g><g><path d="M59.43,31.5c0.07,0.7,0.25,1.84-0.14,2.81c-2.43,6.02-11.54,17.94-24.04,26.85" /><path d="M59.19,34.94c5.08,4.12,22.1,18.22,26.69,21.35c1.56,1.06,3.56,1.52,5.12,1.82" /></g><g p5:partial xmlns:p5="http://kanjivg.tagaini.net"><path d="M45.38,60.57c0.81,0.36,3.43,0.56,4.25,0.52C56.75,60.75,65.5,59,72.89,58.4c1.24-0.1,2.38,0.07,3.4,0.37" /><path d="M59.62,60.72c0.71,0.86,0.71,1.38,0.71,2.07c0,4.83,0.36,24.61,0.18,29.44" /><path d="M44,76.31c0.77,0.45,3.31,0.28,4.1,0.2c8.2-0.79,16.02-1.5,25.65-2.31c0.96-0.08,3.08-0.18,4.51,0.21" /><path d="M33.82,93.55c2.26,0.45,4.76,0.61,6.05,0.5c18.16-1.55,25.76-1.8,45.17-2.34c2.09-0.06,4.59,0.37,5.63,0.71" /></g></g></g></g><g fill="none" stroke="#000" stroke-width="3" stroke-linecap="round" stroke-linejoin="round"><path d="M55.41,13.13c0.7,0.36,2.18,2.66,2.32,3.37c0.14,0.71,0.07,3.8-0.07,8.24" stroke-dasharray="12.39" stroke-dashoffset="12.39"><animate attributeName="stroke-dashoffset" values="12.39;12.39;0" dur="0.124s" fill="freeze" begin="0s;75ca.click" /></path><path d="M28.13,25.73c1.52,0.54,4.3,0.63,5.82,0.54c15.8-0.91,37.55-1.52,51.61-2.23c2.53-0.13,4.05,0.26,5.31,0.53" stroke-dasharray="62.89" stroke-dashoffset="62.89"><animate attributeName="stroke-dashoffset" values="62.89" fill="freeze" begin="75ca.click" /><animate attributeName="stroke-dashoffset" values="62.89;62.89;0" keyTimes="0;0.208;1" dur="0.597s" fill="freeze" begin="0s;75ca.click" /></path><path d="M30.99,27c0,1.1,0,2.18-0.01,3.25c-0.24,33.26-4.38,49.18-16.67,62.72" stroke-dasharray="69.768" stroke-dashoffset="69.768"><animate attributeName="stroke-dashoffset" values="69.768" fill="freeze" begin="75ca.click" /><animate attributeName="stroke-dashoffset" values="69.768;69.768;0" keyTimes="0;0.532;1" dur="1.122s" fill="freeze" begin="0s;75ca.click" /></path><path d="M14.25,36.75c2.91,2.12,7.52,8.71,8.25,12" stroke-dasharray="14.744" stroke-dashoffset="14.744"><animate attributeName="stroke-dashoffset" values="14.744" fill="freeze" begin="75ca.click" /><animate attributeName="stroke-dashoffset" values="14.744;14.744;0" keyTimes="0;0.884;1" dur="1.269s" fill="freeze" begin="0s;75ca.click" /></path><path d="M10.67,64.98c1.63,0.76,2.13,0.54,3.56-0.38c5.79-3.74,7.63-4.62,12.01-7.85" stroke-dasharray="18.193" stroke-dashoffset="18.193"><animate attributeName="stroke-dashoffset" values="18.193" fill="freeze" begin="75ca.click" /><animate attributeName="stroke-dashoffset" values="18.193;18.193;0" keyTimes="0;0.875;1" dur="1.451s" fill="freeze" begin="0s;75ca.click" /></path><path d="M59.43,31.5c0.07,0.7,0.25,1.84-0.14,2.81c-2.43,6.02-11.54,17.94-24.04,26.85" stroke-dasharray="39.24" stroke-dashoffset="39.24"><animate attributeName="stroke-dashoffset" values="39.24" fill="freeze" begin="75ca.click" /><animate attributeName="stroke-dashoffset" values="39.24;39.24;0" keyTimes="0;0.787;1" dur="1.843s" fill="freeze" begin="0s;75ca.click" /></path><path d="M59.19,34.94c5.08,4.12,22.1,18.22,26.69,21.35c1.56,1.06,3.56,1.52,5.12,1.82" stroke-dasharray="39.656" stroke-dashoffset="39.656"><animate attributeName="stroke-dashoffset" values="39.656" fill="freeze" begin="75ca.click" /><animate attributeName="stroke-dashoffset" values="39.656;39.656;0" keyTimes="0;0.823;1" dur="2.24s" fill="freeze" begin="0s;75ca.click" /></path><path d="M45.38,60.57c0.81,0.36,3.43,0.56,4.25,0.52C56.75,60.75,65.5,59,72.89,58.4c1.24-0.1,2.38,0.07,3.4,0.37" stroke-dasharray="31.162" stroke-dashoffset="31.162"><animate attributeName="stroke-dashoffset" values="31.162" fill="freeze" begin="75ca.click" /><animate attributeName="stroke-dashoffset" values="31.162;31.162;0" keyTimes="0;0.878;1" dur="2.552s" fill="freeze" begin="0s;75ca.click" /></path><path d="M59.62,60.72c0.71,0.86,0.71,1.38,0.71,2.07c0,4.83,0.36,24.61,0.18,29.44" stroke-dasharray="31.693" stroke-dashoffset="31.693"><animate attributeName="stroke-dashoffset" values="31.693" fill="freeze" begin="75ca.click" /><animate attributeName="stroke-dashoffset" values="31.693;31.693;0" keyTimes="0;0.89;1" dur="2.869s" fill="freeze" begin="0s;75ca.click" /></path><path d="M44,76.31c0.77,0.45,3.31,0.28,4.1,0.2c8.2-0.79,16.02-1.5,25.65-2.31c0.96-0.08,3.08-0.18,4.51,0.21" stroke-dasharray="34.431" stroke-dashoffset="34.431"><animate attributeName="stroke-dashoffset" values="34.431" fill="freeze" begin="75ca.click" /><animate attributeName="stroke-dashoffset" values="34.431;34.431;0" keyTimes="0;0.893;1" dur="3.213s" fill="freeze" begin="0s;75ca.click" /></path><path d="M33.82,93.55c2.26,0.45,4.76,0.61,6.05,0.5c18.16-1.55,25.76-1.8,45.17-2.34c2.09-0.06,4.59,0.37,5.63,0.71" stroke-dasharray="57.021" stroke-dashoffset="57.021"><animate attributeName="stroke-dashoffset" values="57.021" fill="freeze" begin="75ca.click" /><animate attributeName="stroke-dashoffset" values="57.021;57.021;0" keyTimes="0;0.849;1" dur="3.783s" fill="freeze" begin="0s;75ca.click" /></path></g></svg>