<svg xmlns="http://www.w3.org/2000/svg" width="109" height="109" viewBox="0 0 109 109" id="75e9"><g fill="none" stroke="#666" stroke-width="9" stroke-linecap="round" stroke-linejoin="round"><g><g><path d="M55.56,11.38c1.28,1.28,1.76,2.99,1.76,4.4c0,2.21-0.07,4.09-0.07,6.96" /><path d="M26.13,24.73c3.83,0.66,7.67,0.72,11.51,0.18c12.97-0.87,28.68-2.27,40.73-3.04c3.68-0.51,7.35-0.45,11,0.2" /><path d="M30.74,26.5c0.82,0.82,1,2.35,0.96,3.37c-1.08,33.38-5.08,49.63-16.9,64.85" /><path d="M14.25,38.5c2.74,1.63,7.07,6.71,7.75,9.25" /><path d="M11.67,64.83c1.46,0.59,1.95,0.48,3.2-0.3C20.5,61,22.57,59.51,26.5,57" /></g><g p4:partial xmlns:p4="http://kanjivg.tagaini.net"><g><g p4:partial><path d="M39.51,38.26c0.62,0.62,0.95,1.47,1.17,2.26c0.89,4.97,1.59,9.26,2.42,14.21c0.29,1.76,0.6,3.6,0.94,5.58" /><path d="M41.27,39.27c12.28-1.44,28.26-3.33,37.12-4.09c2.97-0.25,6.33,0.87,5.74,4.22c-0.54,3.06-1.77,7.82-2.92,12.19c-0.51,1.95-1.01,3.83-1.43,5.44" /><path d="M43.16,48.24c11.22-1.24,26.22-2.37,38.64-3.52" /><path d="M44.84,57.82c11.78-1.32,20.41-1.95,34.39-2.74" /></g><g><path d="M60,28.5c1,1,1.34,2.12,1.34,2.97c0,0.87-0.09,25.51-0.09,34.53" /></g></g><g><path d="M41.58,69.19c2.44,0.36,4.59,0.22,7.04-0.11c5.88-0.78,19.27-3.03,24.05-3.83c3.58-0.6,5.29,1.14,2.92,4.29c-9.66,12.76-22.13,21.64-39.86,27.22" /><path d="M45.89,73.67c5.29-0.15,15.99,10.83,30.87,18.41c3.86,2.26,7.95,3.98,12.26,5.14" /></g></g></g></g><g fill="none" stroke="#000" stroke-width="5" stroke-linecap="round" stroke-linejoin="round"><g><g><path d="M55.56,11.38c1.28,1.28,1.76,2.99,1.76,4.4c0,2.21-0.07,4.09-0.07,6.96" stroke-dasharray="11.82" stroke-dashoffset="11.82"><animate id="0" attributeName="stroke-dashoffset" values="11.82;0" dur="0.12s" fill="freeze" begin="0s;75e9.click" /></path><path d="M26.13,24.73c3.83,0.66,7.67,0.72,11.51,0.18c12.97-0.87,28.68-2.27,40.73-3.04c3.68-0.51,7.35-0.45,11,0.2" stroke-dasharray="63.45" stroke-dashoffset="63.45"><animate attributeName="stroke-dashoffset" values="63.45" fill="freeze" begin="75e9.click" /><animate id="1" attributeName="stroke-dashoffset" values="63.45;0" dur="0.48s" fill="freeze" begin="0.end" /></path><path d="M30.74,26.5c0.82,0.82,1,2.35,0.96,3.37c-1.08,33.38-5.08,49.63-16.9,64.85" stroke-dasharray="71.86" stroke-dashoffset="71.86"><animate attributeName="stroke-dashoffset" values="71.86" fill="freeze" begin="75e9.click" /><animate id="2" attributeName="stroke-dashoffset" values="71.86;0" dur="0.54s" fill="freeze" begin="1.end" /></path><path d="M14.25,38.5c2.74,1.63,7.07,6.71,7.75,9.25" stroke-dasharray="12.24" stroke-dashoffset="12.24"><animate attributeName="stroke-dashoffset" values="12.24" fill="freeze" begin="75e9.click" /><animate id="3" attributeName="stroke-dashoffset" values="12.24;0" dur="0.12s" fill="freeze" begin="2.end" /></path><path d="M11.67,64.83c1.46,0.59,1.95,0.48,3.2-0.3C20.5,61,22.57,59.51,26.5,57" stroke-dasharray="17.26" stroke-dashoffset="17.26"><animate attributeName="stroke-dashoffset" values="17.26" fill="freeze" begin="75e9.click" /><animate id="4" attributeName="stroke-dashoffset" values="17.26;0" dur="0.17s" fill="freeze" begin="3.end" /></path></g><g p4:partial xmlns:p4="http://kanjivg.tagaini.net"><g><g p4:partial><path d="M39.51,38.26c0.62,0.62,0.95,1.47,1.17,2.26c0.89,4.97,1.59,9.26,2.42,14.21c0.29,1.76,0.6,3.6,0.94,5.58" stroke-dasharray="22.65" stroke-dashoffset="22.65"><animate attributeName="stroke-dashoffset" values="22.65" fill="freeze" begin="75e9.click" /><animate id="5" attributeName="stroke-dashoffset" values="22.65;0" dur="0.23s" fill="freeze" begin="4.end" /></path><path d="M41.27,39.27c12.28-1.44,28.26-3.33,37.12-4.09c2.97-0.25,6.33,0.87,5.74,4.22c-0.54,3.06-1.77,7.82-2.92,12.19c-0.51,1.95-1.01,3.83-1.43,5.44" stroke-dasharray="63.91" stroke-dashoffset="63.91"><animate attributeName="stroke-dashoffset" values="63.91" fill="freeze" begin="75e9.click" /><animate id="6" attributeName="stroke-dashoffset" values="63.91;0" dur="0.48s" fill="freeze" begin="5.end" /></path><path d="M43.16,48.24c11.22-1.24,26.22-2.37,38.64-3.52" stroke-dasharray="38.8" stroke-dashoffset="38.8"><animate attributeName="stroke-dashoffset" values="38.8" fill="freeze" begin="75e9.click" /><animate id="7" attributeName="stroke-dashoffset" values="38.8;0" dur="0.39s" fill="freeze" begin="6.end" /></path><path d="M44.84,57.82c11.78-1.32,20.41-1.95,34.39-2.74" stroke-dasharray="34.5" stroke-dashoffset="34.5"><animate attributeName="stroke-dashoffset" values="34.5" fill="freeze" begin="75e9.click" /><animate id="8" attributeName="stroke-dashoffset" values="34.5;0" dur="0.34s" fill="freeze" begin="7.end" /></path></g><g><path d="M60,28.5c1,1,1.34,2.12,1.34,2.97c0,0.87-0.09,25.51-0.09,34.53" stroke-dasharray="37.87" stroke-dashoffset="37.87"><animate attributeName="stroke-dashoffset" values="37.87" fill="freeze" begin="75e9.click" /><animate id="9" attributeName="stroke-dashoffset" values="37.87;0" dur="0.38s" fill="freeze" begin="8.end" /></path></g></g><g><path d="M41.58,69.19c2.44,0.36,4.59,0.22,7.04-0.11c5.88-0.78,19.27-3.03,24.05-3.83c3.58-0.6,5.29,1.14,2.92,4.29c-9.66,12.76-22.13,21.64-39.86,27.22" stroke-dasharray="88.35" stroke-dashoffset="88.35"><animate attributeName="stroke-dashoffset" values="88.35" fill="freeze" begin="75e9.click" /><animate id="10" attributeName="stroke-dashoffset" values="88.35;0" dur="0.66s" fill="freeze" begin="9.end" /></path><path d="M45.89,73.67c5.29-0.15,15.99,10.83,30.87,18.41c3.86,2.26,7.95,3.98,12.26,5.14" stroke-dasharray="49.48" stroke-dashoffset="49.48"><animate attributeName="stroke-dashoffset" values="49.48" fill="freeze" begin="75e9.click" /><animate id="11" attributeName="stroke-dashoffset" values="49.48;0" dur="0.49s" fill="freeze" begin="10.end" /></path></g></g></g></g></svg>