<svg xmlns="http://www.w3.org/2000/svg" width="109" height="109" viewBox="0 0 109 109" id="75f4"><g fill="none" stroke="#666" stroke-width="9" stroke-linecap="round" stroke-linejoin="round"><g><g><path d="M56.56,12.88c0.97,0.97,1.26,2.12,1.26,3.65c0,0.79-0.07,4.84-0.07,7.71" /><path d="M25.13,27.48c1.52,0.54,4.31,0.68,5.82,0.54C48,26.5,71.5,24,85.56,23.29c2.53-0.13,4.05,0.26,5.31,0.53" /><path d="M28.74,28.75c0.88,0.88,1.25,2.12,1.25,3.51c0,33.31-1.49,47.24-14.93,61.96" /><path d="M13.75,41.5c2.65,1.54,6.84,6.35,7.5,8.75" /><path d="M11.17,67.5c1.41,0.74,2.35,0.78,3.59-0.13c5.03-3.65,7.43-5.72,11.23-8.87" /></g><g p4:phon="知" xmlns:p4="http://kanjivg.tagaini.net"><g><path d="M45.28,32.96c0.03,0.55,0.07,1.42-0.06,2.21c-0.79,4.66-3.74,13.68-9.55,21.36" /><g><path d="M43.86,46.67c1.48,0,1.8,0.12,2.53,0c3.66-0.59,7.4-0.27,12.67-1.9c1.19-0.37,2.39-0.19,3-0.03" /><g><path d="M34,65.56c1.57,0.73,4.21,0.6,5.86,0.43c7.65-0.79,13.46-2.56,21.18-3.39c0.73-0.08,2.59-0.41,4.22,0.01" /><path d="M49.82,49.15c0.89,0.89,1.24,2.14,1.23,3.48c-0.16,23.19-8.42,34.13-20.25,42.05" /><path d="M51.83,72.57c5.6,3.38,10.62,9.16,11.59,12.8" /></g></g></g><g><path d="M68.02,48.16c0.91,0.91,1.33,2.07,1.53,3.22c0.92,5.21,2.2,15.83,3.03,24.62c0.19,2.04,0.36,4,0.5,5.79" /><path d="M70.24,49.83c7.1-1.2,13.66-2.22,18.74-3.06c2.49-0.41,4.08,0.66,3.69,3.51c-0.86,6.22-1.86,16.35-3.13,24.93" /><path d="M73.98,78.44c4.77-0.69,8.31-1.01,13.3-1.66c1.29-0.17,2.6-0.1,3.93-0.32" /></g></g></g></g><g fill="none" stroke="#000" stroke-width="5" stroke-linecap="round" stroke-linejoin="round"><path d="M56.56,12.88c0.97,0.97,1.26,2.12,1.26,3.65c0,0.79-0.07,4.84-0.07,7.71" stroke-dasharray="11.687" stroke-dashoffset="11.687"><animate attributeName="stroke-dashoffset" values="11.687;11.687;0" dur="0.117s" fill="freeze" begin="0s;75f4.click" /></path><path d="M25.13,27.48c1.52,0.54,4.31,0.68,5.82,0.54C48,26.5,71.5,24,85.56,23.29c2.53-0.13,4.05,0.26,5.31,0.53" stroke-dasharray="66.053" stroke-dashoffset="66.053"><animate attributeName="stroke-dashoffset" values="66.053" fill="freeze" begin="75f4.click" /><animate attributeName="stroke-dashoffset" values="66.053;66.053;0" keyTimes="0;0.191;1" dur="0.614s" fill="freeze" begin="0s;75f4.click" /></path><path d="M28.74,28.75c0.88,0.88,1.25,2.12,1.25,3.51c0,33.31-1.49,47.24-14.93,61.96" stroke-dasharray="69.345" stroke-dashoffset="69.345"><animate attributeName="stroke-dashoffset" values="69.345" fill="freeze" begin="75f4.click" /><animate attributeName="stroke-dashoffset" values="69.345;69.345;0" keyTimes="0;0.541;1" dur="1.135s" fill="freeze" begin="0s;75f4.click" /></path><path d="M13.75,41.5c2.65,1.54,6.84,6.35,7.5,8.75" stroke-dasharray="11.688" stroke-dashoffset="11.688"><animate attributeName="stroke-dashoffset" values="11.688" fill="freeze" begin="75f4.click" /><animate attributeName="stroke-dashoffset" values="11.688;11.688;0" keyTimes="0;0.907;1" dur="1.252s" fill="freeze" begin="0s;75f4.click" /></path><path d="M11.17,67.5c1.41,0.74,2.35,0.78,3.59-0.13c5.03-3.65,7.43-5.72,11.23-8.87" stroke-dasharray="18.168" stroke-dashoffset="18.168"><animate attributeName="stroke-dashoffset" values="18.168" fill="freeze" begin="75f4.click" /><animate attributeName="stroke-dashoffset" values="18.168;18.168;0" keyTimes="0;0.873;1" dur="1.434s" fill="freeze" begin="0s;75f4.click" /></path><path d="M45.28,32.96c0.03,0.55,0.07,1.42-0.06,2.21c-0.79,4.66-3.74,13.68-9.55,21.36" stroke-dasharray="25.807" stroke-dashoffset="25.807"><animate attributeName="stroke-dashoffset" values="25.807" fill="freeze" begin="75f4.click" /><animate attributeName="stroke-dashoffset" values="25.807;25.807;0" keyTimes="0;0.848;1" dur="1.692s" fill="freeze" begin="0s;75f4.click" /></path><path d="M43.86,46.67c1.48,0,1.8,0.12,2.53,0c3.66-0.59,7.4-0.27,12.67-1.9c1.19-0.37,2.39-0.19,3-0.03" stroke-dasharray="18.412" stroke-dashoffset="18.412"><animate attributeName="stroke-dashoffset" values="18.412" fill="freeze" begin="75f4.click" /><animate attributeName="stroke-dashoffset" values="18.412;18.412;0" keyTimes="0;0.902;1" dur="1.876s" fill="freeze" begin="0s;75f4.click" /></path><path d="M34,65.56c1.57,0.73,4.21,0.6,5.86,0.43c7.65-0.79,13.46-2.56,21.18-3.39c0.73-0.08,2.59-0.41,4.22,0.01" stroke-dasharray="31.64" stroke-dashoffset="31.64"><animate attributeName="stroke-dashoffset" values="31.64" fill="freeze" begin="75f4.click" /><animate attributeName="stroke-dashoffset" values="31.64;31.64;0" keyTimes="0;0.856;1" dur="2.192s" fill="freeze" begin="0s;75f4.click" /></path><path d="M49.82,49.15c0.89,0.89,1.24,2.14,1.23,3.48c-0.16,23.19-8.42,34.13-20.25,42.05" stroke-dasharray="52.728" stroke-dashoffset="52.728"><animate attributeName="stroke-dashoffset" values="52.728" fill="freeze" begin="75f4.click" /><animate attributeName="stroke-dashoffset" values="52.728;52.728;0" keyTimes="0;0.806;1" dur="2.719s" fill="freeze" begin="0s;75f4.click" /></path><path d="M51.83,72.57c5.6,3.38,10.62,9.16,11.59,12.8" stroke-dasharray="17.578" stroke-dashoffset="17.578"><animate attributeName="stroke-dashoffset" values="17.578" fill="freeze" begin="75f4.click" /><animate attributeName="stroke-dashoffset" values="17.578;17.578;0" keyTimes="0;0.939;1" dur="2.895s" fill="freeze" begin="0s;75f4.click" /></path><path d="M68.02,48.16c0.91,0.91,1.33,2.07,1.53,3.22c0.92,5.21,2.2,15.83,3.03,24.62c0.19,2.04,0.36,4,0.5,5.79" stroke-dasharray="34.246" stroke-dashoffset="34.246"><animate attributeName="stroke-dashoffset" values="34.246" fill="freeze" begin="75f4.click" /><animate attributeName="stroke-dashoffset" values="34.246;34.246;0" keyTimes="0;0.894;1" dur="3.237s" fill="freeze" begin="0s;75f4.click" /></path><path d="M70.24,49.83c7.1-1.2,13.66-2.22,18.74-3.06c2.49-0.41,4.08,0.66,3.69,3.51c-0.86,6.22-1.86,16.35-3.13,24.93" stroke-dasharray="50.391" stroke-dashoffset="50.391"><animate attributeName="stroke-dashoffset" values="50.391" fill="freeze" begin="75f4.click" /><animate attributeName="stroke-dashoffset" values="50.391;50.391;0" keyTimes="0;0.865;1" dur="3.741s" fill="freeze" begin="0s;75f4.click" /></path><path d="M73.98,78.44c4.77-0.69,8.31-1.01,13.3-1.66c1.29-0.17,2.6-0.1,3.93-0.32" stroke-dasharray="17.35" stroke-dashoffset="17.35"><animate attributeName="stroke-dashoffset" values="17.35" fill="freeze" begin="75f4.click" /><animate attributeName="stroke-dashoffset" values="17.35;17.35;0" keyTimes="0;0.956;1" dur="3.915s" fill="freeze" begin="0s;75f4.click" /></path></g></svg>