<svg xmlns="http://www.w3.org/2000/svg" width="109" height="109" viewBox="0 0 109 109" id="75fe"><g fill="none" stroke="#666" stroke-width="9" stroke-linecap="round" stroke-linejoin="round"><g><g><path d="M54.41,11.13c0.7,0.34,2.18,2.55,2.32,3.23c0.14,0.68,0.07,3.64-0.07,7.89" /><path d="M24.13,23.73c1.52,0.54,4.3,0.63,5.82,0.54c15.8-0.91,42.05-3.52,56.11-4.23c2.53-0.13,4.05,0.26,5.31,0.53" /><path d="M29.49,24.5c0,0.84,0,1.68,0,2.5c-0.14,35.2-3.32,51.12-17.43,66.72" /><path d="M11.25,35c3.62,2.16,9.34,8.89,10.25,12.25" /><path d="M9.17,63.07c1.44,0.61,1.88,0.43,3.15-0.31c5.11-3,9.06-5.42,12.93-8.01" /></g><g><g><path d="M34.75,36.25c1.5,0.5,3.25,0.22,4.5,0.06c4.5-0.56,7.55-1.02,10.1-1.93c2.38-0.85,4.36,0.85,3.31,2.84c-1.06,1.99-6.86,12.71-8.71,15.54" /><path d="M44.08,53.18c8.97,7.33,9.19,29.32,1.12,25.5" /><path d="M37.12,36.8C37,38,37.5,38.71,37.67,39.57c0.17,0.85,0,52.61-0.17,57.93" /></g><g><g p6:part="1" xmlns:p6="http://kanjivg.tagaini.net"><g><path d="M59.85,36.04c1.07,0.21,3.04,0.28,4.11,0.21c6.65-0.48,19.87-1.82,28.29-2.38c1.77-0.12,2.86,0.1,3.75,0.2" /></g></g><g><path d="M57.53,51.82c0.33,0.31,0.68,0.58,0.82,0.97c1.16,3.12,2.55,13.72,3.34,19.32" /><path d="M59.21,53.51c5.79-1.01,11.6-2,15.51-2.41c1.43-0.15,2.29,0.89,2.09,1.77c-0.85,3.64-1.84,9.32-3.1,14.36" /><path d="M61.85,69.15c4.6-0.46,7.38-0.76,13.69-1.47" /></g><g p6:part="2" xmlns:p6="http://kanjivg.tagaini.net"><g><path d="M84.84,36.35c0.07,0.41,1.33,2.12,1.39,4.7c0.32,12.39-0.2,45.4-0.2,49.62c0,12.33-7.03,1.2-8.22,0.14" /></g></g></g></g></g></g><g fill="none" stroke="#000" stroke-width="5" stroke-linecap="round" stroke-linejoin="round"><g><g><path d="M54.41,11.13c0.7,0.34,2.18,2.55,2.32,3.23c0.14,0.68,0.07,3.64-0.07,7.89" stroke-dasharray="11.92" stroke-dashoffset="11.92"><animate id="0" attributeName="stroke-dashoffset" values="11.92;0" dur="0.12s" fill="freeze" begin="0s;75fe.click" /></path><path d="M24.13,23.73c1.52,0.54,4.3,0.63,5.82,0.54c15.8-0.91,42.05-3.52,56.11-4.23c2.53-0.13,4.05,0.26,5.31,0.53" stroke-dasharray="67.5" stroke-dashoffset="67.5"><animate attributeName="stroke-dashoffset" values="67.5" fill="freeze" begin="75fe.click" /><animate id="1" attributeName="stroke-dashoffset" values="67.5;0" dur="0.51s" fill="freeze" begin="0.end" /></path><path d="M29.49,24.5c0,0.84,0,1.68,0,2.5c-0.14,35.2-3.32,51.12-17.43,66.72" stroke-dasharray="73.3" stroke-dashoffset="73.3"><animate attributeName="stroke-dashoffset" values="73.3" fill="freeze" begin="75fe.click" /><animate id="2" attributeName="stroke-dashoffset" values="73.3;0" dur="0.55s" fill="freeze" begin="1.end" /></path><path d="M11.25,35c3.62,2.16,9.34,8.89,10.25,12.25" stroke-dasharray="16.19" stroke-dashoffset="16.19"><animate attributeName="stroke-dashoffset" values="16.19" fill="freeze" begin="75fe.click" /><animate id="3" attributeName="stroke-dashoffset" values="16.19;0" dur="0.16s" fill="freeze" begin="2.end" /></path><path d="M9.17,63.07c1.44,0.61,1.88,0.43,3.15-0.31c5.11-3,9.06-5.42,12.93-8.01" stroke-dasharray="18.57" stroke-dashoffset="18.57"><animate attributeName="stroke-dashoffset" values="18.57" fill="freeze" begin="75fe.click" /><animate id="4" attributeName="stroke-dashoffset" values="18.57;0" dur="0.19s" fill="freeze" begin="3.end" /></path></g><g><g><path d="M34.75,36.25c1.5,0.5,3.25,0.22,4.5,0.06c4.5-0.56,7.55-1.02,10.1-1.93c2.38-0.85,4.36,0.85,3.31,2.84c-1.06,1.99-6.86,12.71-8.71,15.54" stroke-dasharray="38.49" stroke-dashoffset="38.49"><animate attributeName="stroke-dashoffset" values="38.49" fill="freeze" begin="75fe.click" /><animate id="5" attributeName="stroke-dashoffset" values="38.49;0" dur="0.38s" fill="freeze" begin="4.end" /></path><path d="M44.08,53.18c8.97,7.33,9.19,29.32,1.12,25.5" stroke-dasharray="31.5" stroke-dashoffset="31.5"><animate attributeName="stroke-dashoffset" values="31.5" fill="freeze" begin="75fe.click" /><animate id="6" attributeName="stroke-dashoffset" values="31.5;0" dur="0.32s" fill="freeze" begin="5.end" /></path><path d="M37.12,36.8C37,38,37.5,38.71,37.67,39.57c0.17,0.85,0,52.61-0.17,57.93" stroke-dasharray="60.78" stroke-dashoffset="60.78"><animate attributeName="stroke-dashoffset" values="60.78" fill="freeze" begin="75fe.click" /><animate id="7" attributeName="stroke-dashoffset" values="60.78;0" dur="0.46s" fill="freeze" begin="6.end" /></path></g><g><g p6:part="1" xmlns:p6="http://kanjivg.tagaini.net"><g><path d="M59.85,36.04c1.07,0.21,3.04,0.28,4.11,0.21c6.65-0.48,19.87-1.82,28.29-2.38c1.77-0.12,2.86,0.1,3.75,0.2" stroke-dasharray="36.28" stroke-dashoffset="36.28"><animate attributeName="stroke-dashoffset" values="36.28" fill="freeze" begin="75fe.click" /><animate id="8" attributeName="stroke-dashoffset" values="36.28;0" dur="0.36s" fill="freeze" begin="7.end" /></path></g></g><g><path d="M57.53,51.82c0.33,0.31,0.68,0.58,0.82,0.97c1.16,3.12,2.55,13.72,3.34,19.32" stroke-dasharray="20.91" stroke-dashoffset="20.91"><animate attributeName="stroke-dashoffset" values="20.91" fill="freeze" begin="75fe.click" /><animate id="9" attributeName="stroke-dashoffset" values="20.91;0" dur="0.21s" fill="freeze" begin="8.end" /></path><path d="M59.21,53.51c5.79-1.01,11.6-2,15.51-2.41c1.43-0.15,2.29,0.89,2.09,1.77c-0.85,3.64-1.84,9.32-3.1,14.36" stroke-dasharray="33.58" stroke-dashoffset="33.58"><animate attributeName="stroke-dashoffset" values="33.58" fill="freeze" begin="75fe.click" /><animate id="10" attributeName="stroke-dashoffset" values="33.58;0" dur="0.34s" fill="freeze" begin="9.end" /></path><path d="M61.85,69.15c4.6-0.46,7.38-0.76,13.69-1.47" stroke-dasharray="13.77" stroke-dashoffset="13.77"><animate attributeName="stroke-dashoffset" values="13.77" fill="freeze" begin="75fe.click" /><animate id="11" attributeName="stroke-dashoffset" values="13.77;0" dur="0.14s" fill="freeze" begin="10.end" /></path></g><g p6:part="2" xmlns:p6="http://kanjivg.tagaini.net"><g><path d="M84.84,36.35c0.07,0.41,1.33,2.12,1.39,4.7c0.32,12.39-0.2,45.4-0.2,49.62c0,12.33-7.03,1.2-8.22,0.14" stroke-dasharray="69.72" stroke-dashoffset="69.72"><animate attributeName="stroke-dashoffset" values="69.72" fill="freeze" begin="75fe.click" /><animate id="12" attributeName="stroke-dashoffset" values="69.72;0" dur="0.52s" fill="freeze" begin="11.end" /></path></g></g></g></g></g></g></svg>