<svg xmlns="http://www.w3.org/2000/svg" width="109" height="109" viewBox="0 0 109 109" id="7648"><g fill="none" stroke="#666" stroke-width="9" stroke-linecap="round" stroke-linejoin="round"><g><g><path d="M55.41,9.63c0.7,0.36,1.82,1.87,1.82,3.87c0,0.72,0.07,3.3-0.07,7.74" /><path d="M24.13,22.73c1.52,0.54,4.3,0.63,5.82,0.54c15.8-0.91,40.55-3.02,54.61-3.73c2.53-0.13,4.05,0.26,5.31,0.53" /><path d="M28.74,23.25c0,1.36,0,2.7-0.01,4C28.51,62.3,23.75,84,14.81,94.47" /><path d="M11.75,34.5c2.74,1.63,7.07,6.71,7.75,9.25" /><path d="M9.67,61.77c1.39,0.7,1.82,0.5,3.04-0.36c4.94-3.46,7.8-5.67,11.54-8.66" /></g><g><g><g><path d="M39.03,32.08c1.01,0.5,1.4,0.41,3.04,0.17c4.27-0.62,8.33-1.77,12.88-2.57c2.7-0.48,3.62,0.62,2.38,3.16c-5.09,10.4-13.09,20.04-25.83,27.63" /><path d="M36.09,41.12c2.94,1.11,7.59,4.58,8.33,6.32" /></g><g><path d="M75.69,28.89c0.09,0.65-0.12,1.19-0.65,1.63c-1.2,1.73-3.19,4.38-6.3,6.11" /><path d="M58.64,32.2c3.17,1.52,22.45,17.88,29.88,21.55c1.79,0.89,3.07,1.55,4.73,1.85" /><path d="M84.98,35.61c0.08,0.59-0.1,1.09-0.55,1.52c-1.17,1.69-3.33,3.81-7,5.98" /></g></g><g><g><path d="M44.19,52.81c0.56,0.71,1.08,0.92,1.79,0.79c0.71-0.13,6.38-0.63,7.81-1.02c1.43-0.39,1.82,0.94,1.39,1.99c-0.27,0.66-1.63,4.18-2.27,6.72c-0.38,1.5-0.18,2.33-0.24,2.9" /><path d="M41.75,66.44c1.45,0,9.06-1.5,10.1-1.5s2.07-0.38,2.9-0.38" /><path d="M41.1,65.89c0.43,0.52,0.36,1.95,0.08,2.78c-0.32,0.95-4.18,7.51-4.32,8.04s-0.1,1.67,1.14,1.58c3.75-0.29,11.4-1.87,13.68-2.27c2.28-0.39,2.96,0.5,2.75,2.37c-0.68,5.86-4.52,14.05-8.07,18.15c-2.1,2.42-4.36,0.41-5.01-0.6" /></g><g><g><g><path d="M65,52.54c0.31,0.83,0.42,1.49,0.4,2.09c-0.12,6.13-1.2,13.04-4.58,15.77" /></g><path d="M65.78,53.91c0.49,0.06,1.73-0.11,3.23-0.36c2.66-0.45,6.13-1.16,7.7-1.37c1.43-0.19,2.36,1.07,1.91,2c-1.36,2.84-2.33,7.46-2.33,9.45c0,3.26,1.1,4.76,5.61,4.76c4.37,0,5.32-1.5,5.32-4.75" /></g><g><path d="M60.08,76c0.84,0.2,0.94,0.49,2.62,0.2c1.68-0.3,16.73-1.79,17.89-2.08c1.15-0.3,2.09,1.15,1.57,2.17C76.85,86.85,67.5,93.33,57.42,98.24" /><path d="M63.79,79.32C67,81.75,78.75,92.14,87.32,97.01c1.33,0.76,2.3,1.26,3.54,1.52" /></g></g></g></g></g></g><g fill="none" stroke="#000" stroke-width="5" stroke-linecap="round" stroke-linejoin="round"><path d="M55.41,9.63c0.7,0.36,1.82,1.87,1.82,3.87c0,0.72,0.07,3.3-0.07,7.74" stroke-dasharray="12.188" stroke-dashoffset="12.188"><animate attributeName="stroke-dashoffset" values="12.188;12.188;0" dur="0.122s" fill="freeze" begin="0s;7648.click" /></path><path d="M24.13,22.73c1.52,0.54,4.3,0.63,5.82,0.54c15.8-0.91,40.55-3.02,54.61-3.73c2.53-0.13,4.05,0.26,5.31,0.53" stroke-dasharray="65.969" stroke-dashoffset="65.969"><animate attributeName="stroke-dashoffset" values="65.969" fill="freeze" begin="7648.click" /><animate attributeName="stroke-dashoffset" values="65.969;65.969;0" keyTimes="0;0.197;1" dur="0.618s" fill="freeze" begin="0s;7648.click" /></path><path d="M28.74,23.25c0,1.36,0,2.7-0.01,4C28.51,62.3,23.75,84,14.81,94.47" stroke-dasharray="73.769" stroke-dashoffset="73.769"><animate attributeName="stroke-dashoffset" values="73.769" fill="freeze" begin="7648.click" /><animate attributeName="stroke-dashoffset" values="73.769;73.769;0" keyTimes="0;0.527;1" dur="1.173s" fill="freeze" begin="0s;7648.click" /></path><path d="M11.75,34.5c2.74,1.63,7.07,6.71,7.75,9.25" stroke-dasharray="12.238" stroke-dashoffset="12.238"><animate attributeName="stroke-dashoffset" values="12.238" fill="freeze" begin="7648.click" /><animate attributeName="stroke-dashoffset" values="12.238;12.238;0" keyTimes="0;0.906;1" dur="1.295s" fill="freeze" begin="0s;7648.click" /></path><path d="M9.67,61.77c1.39,0.7,1.82,0.5,3.04-0.36c4.94-3.46,7.8-5.67,11.54-8.66" stroke-dasharray="17.753" stroke-dashoffset="17.753"><animate attributeName="stroke-dashoffset" values="17.753" fill="freeze" begin="7648.click" /><animate attributeName="stroke-dashoffset" values="17.753;17.753;0" keyTimes="0;0.879;1" dur="1.473s" fill="freeze" begin="0s;7648.click" /></path><path d="M39.03,32.08c1.01,0.5,1.4,0.41,3.04,0.17c4.27-0.62,8.33-1.77,12.88-2.57c2.7-0.48,3.62,0.62,2.38,3.16c-5.09,10.4-13.09,20.04-25.83,27.63" stroke-dasharray="60.318" stroke-dashoffset="60.318"><animate attributeName="stroke-dashoffset" values="60.318" fill="freeze" begin="7648.click" /><animate attributeName="stroke-dashoffset" values="60.318;60.318;0" keyTimes="0;0.764;1" dur="1.927s" fill="freeze" begin="0s;7648.click" /></path><path d="M36.09,41.12c2.94,1.11,7.59,4.58,8.33,6.32" stroke-dasharray="10.603" stroke-dashoffset="10.603"><animate attributeName="stroke-dashoffset" values="10.603" fill="freeze" begin="7648.click" /><animate attributeName="stroke-dashoffset" values="10.603;10.603;0" keyTimes="0;0.948;1" dur="2.033s" fill="freeze" begin="0s;7648.click" /></path><path d="M75.69,28.89c0.09,0.65-0.12,1.19-0.65,1.63c-1.2,1.73-3.19,4.38-6.3,6.11" stroke-dasharray="10.7" stroke-dashoffset="10.7"><animate attributeName="stroke-dashoffset" values="10.7" fill="freeze" begin="7648.click" /><animate attributeName="stroke-dashoffset" values="10.7;10.7;0" keyTimes="0;0.95;1" dur="2.14s" fill="freeze" begin="0s;7648.click" /></path><path d="M58.64,32.2c3.17,1.52,22.45,17.88,29.88,21.55c1.79,0.89,3.07,1.55,4.73,1.85" stroke-dasharray="41.976" stroke-dashoffset="41.976"><animate attributeName="stroke-dashoffset" values="41.976" fill="freeze" begin="7648.click" /><animate attributeName="stroke-dashoffset" values="41.976;41.976;0" keyTimes="0;0.836;1" dur="2.56s" fill="freeze" begin="0s;7648.click" /></path><path d="M84.98,35.61c0.08,0.59-0.1,1.09-0.55,1.52c-1.17,1.69-3.33,3.81-7,5.98" stroke-dasharray="10.959" stroke-dashoffset="10.959"><animate attributeName="stroke-dashoffset" values="10.959" fill="freeze" begin="7648.click" /><animate attributeName="stroke-dashoffset" values="10.959;10.959;0" keyTimes="0;0.959;1" dur="2.67s" fill="freeze" begin="0s;7648.click" /></path><path d="M44.19,52.81c0.56,0.71,1.08,0.92,1.79,0.79c0.71-0.13,6.38-0.63,7.81-1.02c1.43-0.39,1.82,0.94,1.39,1.99c-0.27,0.66-1.63,4.18-2.27,6.72c-0.38,1.5-0.18,2.33-0.24,2.9" stroke-dasharray="23.157" stroke-dashoffset="23.157"><animate attributeName="stroke-dashoffset" values="23.157" fill="freeze" begin="7648.click" /><animate attributeName="stroke-dashoffset" values="23.157;23.157;0" keyTimes="0;0.92;1" dur="2.902s" fill="freeze" begin="0s;7648.click" /></path><path d="M41.75,66.44c1.45,0,9.06-1.5,10.1-1.5s2.07-0.38,2.9-0.38" stroke-dasharray="13.146" stroke-dashoffset="13.146"><animate attributeName="stroke-dashoffset" values="13.146" fill="freeze" begin="7648.click" /><animate attributeName="stroke-dashoffset" values="13.146;13.146;0" keyTimes="0;0.957;1" dur="3.033s" fill="freeze" begin="0s;7648.click" /></path><path d="M41.1,65.89c0.43,0.52,0.36,1.95,0.08,2.78c-0.32,0.95-4.18,7.51-4.32,8.04s-0.1,1.67,1.14,1.58c3.75-0.29,11.4-1.87,13.68-2.27c2.28-0.39,2.96,0.5,2.75,2.37c-0.68,5.86-4.52,14.05-8.07,18.15c-2.1,2.42-4.36,0.41-5.01-0.6" stroke-dasharray="58.874" stroke-dashoffset="58.874"><animate attributeName="stroke-dashoffset" values="58.874" fill="freeze" begin="7648.click" /><animate attributeName="stroke-dashoffset" values="58.874;58.874;0" keyTimes="0;0.837;1" dur="3.622s" fill="freeze" begin="0s;7648.click" /></path><path d="M65,52.54c0.31,0.83,0.42,1.49,0.4,2.09c-0.12,6.13-1.2,13.04-4.58,15.77" stroke-dasharray="18.994" stroke-dashoffset="18.994"><animate attributeName="stroke-dashoffset" values="18.994" fill="freeze" begin="7648.click" /><animate attributeName="stroke-dashoffset" values="18.994;18.994;0" keyTimes="0;0.95;1" dur="3.812s" fill="freeze" begin="0s;7648.click" /></path><path d="M65.78,53.91c0.49,0.06,1.73-0.11,3.23-0.36c2.66-0.45,6.13-1.16,7.7-1.37c1.43-0.19,2.36,1.07,1.91,2c-1.36,2.84-2.33,7.46-2.33,9.45c0,3.26,1.1,4.76,5.61,4.76c4.37,0,5.32-1.5,5.32-4.75" stroke-dasharray="41.252" stroke-dashoffset="41.252"><animate attributeName="stroke-dashoffset" values="41.252" fill="freeze" begin="7648.click" /><animate attributeName="stroke-dashoffset" values="41.252;41.252;0" keyTimes="0;0.902;1" dur="4.225s" fill="freeze" begin="0s;7648.click" /></path><path d="M60.08,76c0.84,0.2,0.94,0.49,2.62,0.2c1.68-0.3,16.73-1.79,17.89-2.08c1.15-0.3,2.09,1.15,1.57,2.17C76.85,86.85,67.5,93.33,57.42,98.24" stroke-dasharray="57.68" stroke-dashoffset="57.68"><animate attributeName="stroke-dashoffset" values="57.68" fill="freeze" begin="7648.click" /><animate attributeName="stroke-dashoffset" values="57.68;57.68;0" keyTimes="0;0.88;1" dur="4.802s" fill="freeze" begin="0s;7648.click" /></path><path d="M63.79,79.32C67,81.75,78.75,92.14,87.32,97.01c1.33,0.76,2.3,1.26,3.54,1.52" stroke-dasharray="33.341" stroke-dashoffset="33.341"><animate attributeName="stroke-dashoffset" values="33.341" fill="freeze" begin="7648.click" /><animate attributeName="stroke-dashoffset" values="33.341;33.341;0" keyTimes="0;0.935;1" dur="5.135s" fill="freeze" begin="0s;7648.click" /></path></g></svg>