<svg xmlns="http://www.w3.org/2000/svg" width="109" height="109" viewBox="0 0 109 109" id="7658"><g fill="none" stroke="#666" stroke-width="9" stroke-linecap="round" stroke-linejoin="round"><g><g><path d="M57.91,11.13c0.7,0.36,2.18,2.66,2.32,3.37c0.14,0.71,0.07,3.8-0.07,8.24" /><path d="M26.63,23.73c1.52,0.54,4.3,0.63,5.82,0.54c15.8-0.91,40.05-2.02,54.11-2.73c2.53-0.13,4.05,0.26,5.31,0.53" /><path d="M31.49,24.5c0,37.22-3.24,52.75-17.44,69.72" /><path d="M14.25,36c3.62,1.81,9.34,7.44,10.25,10.25" /><path d="M11.67,64.07c1.44,0.61,1.88,0.43,3.15-0.31c5.11-3,8.06-4.92,11.93-7.51" /></g><g><g><path d="M39,36.7c1.12,0.51,2.43,0.62,3.56,0.51c10.34-0.94,29.33-3.07,41.25-3.14c1.88-0.01,3,0.24,3.94,0.5" /><path d="M50.19,29.19c1.28,1.18,1.69,1.53,1.82,2.26c1.28,6.77,0.64,7.42,1.01,9.88" /><path d="M70.98,26.75c0.82,0.82,1.2,2.05,1.09,3.28c-0.32,3.72-0.82,5.72-1.05,10.06" /></g><g><g><g><path d="M42.28,45.99c0.28,0.36,0.28,0.6,0.43,1.05c1.23,3.69,2.3,13.16,3.02,20.01" /><path d="M43.59,46.84c9.79-0.74,29.03-1.5,36.34-2.14c2.69-0.24,3.29,1.61,3.07,3.89c-0.36,3.7-0.63,7.97-2.21,15.22" /><path d="M44.96,55.43c3.19-0.3,33.93-1.7,36.57-1.79" /><path d="M45.88,64.92c10.01-1.28,24.76-1.86,34.49-2.32" /></g></g><g><path d="M37.69,72.61c0.8,0.34,1.37,1.34,1.43,2.01c0.28,3.31,1.88,18.47,2.33,22.14" /><path d="M39.12,73.66c6.39-0.79,45.54-3.03,46.82-3.08c1.92-0.08,3.6,1.05,3.54,3.12c-0.16,5.48-1.99,14.45-4.04,19.43c-2.15,5.24-4.19,3.11-6.57,0.16" /><g><path d="M61.24,46.05c0.42,0.6,1.07,1.19,1.07,2.28c-0.01,4.79,0.18,33.2,0.18,34.67" /></g><path d="M51.83,86.4c1.16,0.75,2.44,1.15,3.47,0.83c2.89-0.89,14.75-4.93,20.8-6.55" /><path d="M70.35,75.87c3.23,1.74,8.34,7.29,9.14,10.11" /></g></g></g></g></g><g fill="none" stroke="#000" stroke-width="5" stroke-linecap="round" stroke-linejoin="round"><g><g><path d="M57.91,11.13c0.7,0.36,2.18,2.66,2.32,3.37c0.14,0.71,0.07,3.8-0.07,8.24" stroke-dasharray="12.39" stroke-dashoffset="12.39"><animate attributeName="stroke-dashoffset" values="12.39;12.39;0" dur="0.124s" fill="freeze" begin="0s;7658.click" /></path><path d="M26.63,23.73c1.52,0.54,4.3,0.63,5.82,0.54c15.8-0.91,40.05-2.02,54.11-2.73c2.53-0.13,4.05,0.26,5.31,0.53" stroke-dasharray="65.41" stroke-dashoffset="65.41"><animate attributeName="stroke-dashoffset" values="65.41" fill="freeze" begin="7658.click" /><animate attributeName="stroke-dashoffset" values="65.41;65.41;0" keyTimes="0;0.201;1" dur="0.616s" fill="freeze" begin="0s;7658.click" /></path><path d="M31.49,24.5c0,37.22-3.24,52.75-17.44,69.72" stroke-dasharray="73.655" stroke-dashoffset="73.655"><animate attributeName="stroke-dashoffset" values="73.655" fill="freeze" begin="7658.click" /><animate attributeName="stroke-dashoffset" values="73.655;73.655;0" keyTimes="0;0.526;1" dur="1.17s" fill="freeze" begin="0s;7658.click" /></path><path d="M14.25,36c3.62,1.81,9.34,7.44,10.25,10.25" stroke-dasharray="14.706" stroke-dashoffset="14.706"><animate attributeName="stroke-dashoffset" values="14.706" fill="freeze" begin="7658.click" /><animate attributeName="stroke-dashoffset" values="14.706;14.706;0" keyTimes="0;0.888;1" dur="1.317s" fill="freeze" begin="0s;7658.click" /></path><path d="M11.67,64.07c1.44,0.61,1.88,0.43,3.15-0.31c5.11-3,8.06-4.92,11.93-7.51" stroke-dasharray="17.457" stroke-dashoffset="17.457"><animate attributeName="stroke-dashoffset" values="17.457" fill="freeze" begin="7658.click" /><animate attributeName="stroke-dashoffset" values="17.457;17.457;0" keyTimes="0;0.883;1" dur="1.492s" fill="freeze" begin="0s;7658.click" /></path></g><g><g><path d="M39,36.7c1.12,0.51,2.43,0.62,3.56,0.51c10.34-0.94,29.33-3.07,41.25-3.14c1.88-0.01,3,0.24,3.94,0.5" stroke-dasharray="49.005" stroke-dashoffset="49.005"><animate attributeName="stroke-dashoffset" values="49.005" fill="freeze" begin="7658.click" /><animate attributeName="stroke-dashoffset" values="49.005;49.005;0" keyTimes="0;0.753;1" dur="1.982s" fill="freeze" begin="0s;7658.click" /></path><path d="M50.19,29.19c1.28,1.18,1.69,1.53,1.82,2.26c1.28,6.77,0.64,7.42,1.01,9.88" stroke-dasharray="12.905" stroke-dashoffset="12.905"><animate attributeName="stroke-dashoffset" values="12.905" fill="freeze" begin="7658.click" /><animate attributeName="stroke-dashoffset" values="12.905;12.905;0" keyTimes="0;0.939;1" dur="2.111s" fill="freeze" begin="0s;7658.click" /></path><path d="M70.98,26.75c0.82,0.82,1.2,2.05,1.09,3.28c-0.32,3.72-0.82,5.72-1.05,10.06" stroke-dasharray="13.685" stroke-dashoffset="13.685"><animate attributeName="stroke-dashoffset" values="13.685" fill="freeze" begin="7658.click" /><animate attributeName="stroke-dashoffset" values="13.685;13.685;0" keyTimes="0;0.939;1" dur="2.248s" fill="freeze" begin="0s;7658.click" /></path></g><g><g><g><path d="M42.28,45.99c0.28,0.36,0.28,0.6,0.43,1.05c1.23,3.69,2.3,13.16,3.02,20.01" stroke-dasharray="21.405" stroke-dashoffset="21.405"><animate attributeName="stroke-dashoffset" values="21.405" fill="freeze" begin="7658.click" /><animate attributeName="stroke-dashoffset" values="21.405;21.405;0" keyTimes="0;0.913;1" dur="2.462s" fill="freeze" begin="0s;7658.click" /></path><path d="M43.59,46.84c9.79-0.74,29.03-1.5,36.34-2.14c2.69-0.24,3.29,1.61,3.07,3.89c-0.36,3.7-0.63,7.97-2.21,15.22" stroke-dasharray="57.74" stroke-dashoffset="57.74"><animate attributeName="stroke-dashoffset" values="57.74" fill="freeze" begin="7658.click" /><animate attributeName="stroke-dashoffset" values="57.74;57.74;0" keyTimes="0;0.81;1" dur="3.039s" fill="freeze" begin="0s;7658.click" /></path><path d="M44.96,55.43c3.19-0.3,33.93-1.7,36.57-1.79" stroke-dasharray="36.615" stroke-dashoffset="36.615"><animate attributeName="stroke-dashoffset" values="36.615" fill="freeze" begin="7658.click" /><animate attributeName="stroke-dashoffset" values="36.615;36.615;0" keyTimes="0;0.893;1" dur="3.405s" fill="freeze" begin="0s;7658.click" /></path><path d="M45.88,64.92c10.01-1.28,24.76-1.86,34.49-2.32" stroke-dasharray="34.577" stroke-dashoffset="34.577"><animate attributeName="stroke-dashoffset" values="34.577" fill="freeze" begin="7658.click" /><animate attributeName="stroke-dashoffset" values="34.577;34.577;0" keyTimes="0;0.908;1" dur="3.751s" fill="freeze" begin="0s;7658.click" /></path></g></g><g><path d="M37.69,72.61c0.8,0.34,1.37,1.34,1.43,2.01c0.28,3.31,1.88,18.47,2.33,22.14" stroke-dasharray="24.831" stroke-dashoffset="24.831"><animate attributeName="stroke-dashoffset" values="24.831" fill="freeze" begin="7658.click" /><animate attributeName="stroke-dashoffset" values="24.831;24.831;0" keyTimes="0;0.938;1" dur="3.999s" fill="freeze" begin="0s;7658.click" /></path><path d="M39.12,73.66c6.39-0.79,45.54-3.03,46.82-3.08c1.92-0.08,3.6,1.05,3.54,3.12c-0.16,5.48-1.99,14.45-4.04,19.43c-2.15,5.24-4.19,3.11-6.57,0.16" stroke-dasharray="81.651" stroke-dashoffset="81.651"><animate attributeName="stroke-dashoffset" values="81.651" fill="freeze" begin="7658.click" /><animate attributeName="stroke-dashoffset" values="81.651;81.651;0" keyTimes="0;0.867;1" dur="4.613s" fill="freeze" begin="0s;7658.click" /></path><g><path d="M61.24,46.05c0.42,0.6,1.07,1.19,1.07,2.28c-0.01,4.79,0.18,33.2,0.18,34.67" stroke-dasharray="37.247" stroke-dashoffset="37.247"><animate attributeName="stroke-dashoffset" values="37.247" fill="freeze" begin="7658.click" /><animate attributeName="stroke-dashoffset" values="37.247;37.247;0" keyTimes="0;0.925;1" dur="4.985s" fill="freeze" begin="0s;7658.click" /></path></g><path d="M51.83,86.4c1.16,0.75,2.44,1.15,3.47,0.83c2.89-0.89,14.75-4.93,20.8-6.55" stroke-dasharray="25.488" stroke-dashoffset="25.488"><animate attributeName="stroke-dashoffset" values="25.488" fill="freeze" begin="7658.click" /><animate attributeName="stroke-dashoffset" values="25.488;25.488;0" keyTimes="0;0.951;1" dur="5.24s" fill="freeze" begin="0s;7658.click" /></path><path d="M70.35,75.87c3.23,1.74,8.34,7.29,9.14,10.11" stroke-dasharray="13.835" stroke-dashoffset="13.835"><animate attributeName="stroke-dashoffset" values="13.835" fill="freeze" begin="7658.click" /><animate attributeName="stroke-dashoffset" values="13.835;13.835;0" keyTimes="0;0.974;1" dur="5.378s" fill="freeze" begin="0s;7658.click" /></path></g></g></g></g></g></svg>