<svg xmlns="http://www.w3.org/2000/svg" width="109" height="109" viewBox="0 0 109 109" id="7662"><g fill="none" stroke="#666" stroke-width="9" stroke-linecap="round" stroke-linejoin="round"><g><g><path d="M53.51,10.13c0.64,0.33,2,2.44,2.13,3.1c0.13,0.65,0.07,3.94-0.06,8.02" /><path d="M25.63,22.48c1.87,0.67,5.3,0.77,7.17,0.67c19.46-1.12,32.21-2.6,49.53-3.48c3.11-0.16,4.99,0.32,6.55,0.65" /><path d="M29.99,23.5c0,37.49-1.24,55-15.19,70.22" /><path d="M13,37.25c3.35,1.76,8.66,7.26,9.5,10" /><path d="M11.67,67.03c1.29,0.68,1.7,0.49,2.83-0.35c4.6-3.37,7.26-5.52,10.75-8.43" /></g><g><g><path d="M48.35,26.4c2.24,1.05,5.79,4.31,6.35,5.94" /><path d="M72.11,25.39c0.01,0.15,0.03,0.4-0.03,0.62c-0.34,1.3-2.31,4.15-5.01,5.9" /><path d="M40.34,35.89c1.17,0.19,3.32,0.25,4.49,0.19c11.29-0.53,22.52-2.5,34.72-3.17c1.93-0.11,3.12,0.09,4.1,0.19" /><path d="M59.93,34.73c0.83,0.37,1.33,1.68,1.49,2.43c0.17,0.75,0,7.74-0.17,12.41" /><path d="M42.66,44.18c1.08,0.24,3.08,0.32,4.16,0.24c8.19-0.62,17.67-1.94,29.65-2.66c1.8-0.11,2.89,0.11,3.8,0.23" /><path d="M36.14,52.5c1.58,0.31,4.49,0.42,6.06,0.31c11.2-0.81,27.75-3.12,45.55-3.79c2.62-0.1,4.21,0.15,5.53,0.3" /></g><g><path d="M53.29,52.31c0.06,0.43,0.24,1.16-0.12,1.74c-2.91,4.83-11.59,12.51-20.67,16.67" /><path d="M70.92,50.45c3.64,2.14,15.98,11.34,19.22,13.29c1.1,0.66,2.51,0.94,3.61,1.13" /><path d="M54.25,57.53c1,0.16,1.81,0.4,2.75,0.33c4-0.33,7.84-1.05,12.24-1.66c0.83-0.12,1.68,0.11,2.51,0.03" /><path d="M50.9,64.96c2.12-0.06,20.06-2.25,22-2.33c1.61-0.06,2.62,0.47,2.52,1.82c-0.21,2.83-2.46,13.29-2.46,13.65" /><path d="M51.27,71.48c2.87,0,19.2-2.08,22.44-2.08" /><path d="M51.14,78.47c5.84-0.26,13.66-1.74,20.93-1.96" /><path d="M48.62,63.7c1.06,0.32,1.69,1.42,1.9,2.05c0.21,0.63-0.29,27.37-0.29,28.95c0,2.31,0.6,3.03,3.13,1.93c2.54-1.1,6.38-3.38,11.76-5.9" /><path d="M80.03,78.17c0.21,0.79,0.15,2.13-0.58,2.6c-2.45,1.59-5.65,3.78-7.55,4.89" /><path d="M61.22,81.47c2.9,0,18.09,12.49,20.46,13.43c3.41,1.34,3.92,1.34,5.62,1.64" /></g></g></g></g><g fill="none" stroke="#000" stroke-width="5" stroke-linecap="round" stroke-linejoin="round"><g><g><path d="M53.51,10.13c0.64,0.33,2,2.44,2.13,3.1c0.13,0.65,0.07,3.94-0.06,8.02" stroke-dasharray="11.83" stroke-dashoffset="11.83"><animate id="0" attributeName="stroke-dashoffset" values="11.83;0" dur="0.12s" fill="freeze" begin="0s;7662.click" /></path><path d="M25.63,22.48c1.87,0.67,5.3,0.77,7.17,0.67c19.46-1.12,32.21-2.6,49.53-3.48c3.11-0.16,4.99,0.32,6.55,0.65" stroke-dasharray="63.5" stroke-dashoffset="63.5"><animate attributeName="stroke-dashoffset" values="63.5" fill="freeze" begin="7662.click" /><animate id="1" attributeName="stroke-dashoffset" values="63.5;0" dur="0.48s" fill="freeze" begin="0.end" /></path><path d="M29.99,23.5c0,37.49-1.24,55-15.19,70.22" stroke-dasharray="73.68" stroke-dashoffset="73.68"><animate attributeName="stroke-dashoffset" values="73.68" fill="freeze" begin="7662.click" /><animate id="2" attributeName="stroke-dashoffset" values="73.68;0" dur="0.55s" fill="freeze" begin="1.end" /></path><path d="M13,37.25c3.35,1.76,8.66,7.26,9.5,10" stroke-dasharray="13.99" stroke-dashoffset="13.99"><animate attributeName="stroke-dashoffset" values="13.99" fill="freeze" begin="7662.click" /><animate id="3" attributeName="stroke-dashoffset" values="13.99;0" dur="0.14s" fill="freeze" begin="2.end" /></path><path d="M11.67,67.03c1.29,0.68,1.7,0.49,2.83-0.35c4.6-3.37,7.26-5.52,10.75-8.43" stroke-dasharray="16.78" stroke-dashoffset="16.78"><animate attributeName="stroke-dashoffset" values="16.78" fill="freeze" begin="7662.click" /><animate id="4" attributeName="stroke-dashoffset" values="16.78;0" dur="0.17s" fill="freeze" begin="3.end" /></path></g><g><g><path d="M48.35,26.4c2.24,1.05,5.79,4.31,6.35,5.94" stroke-dasharray="8.82" stroke-dashoffset="8.82"><animate attributeName="stroke-dashoffset" values="8.82" fill="freeze" begin="7662.click" /><animate id="5" attributeName="stroke-dashoffset" values="8.82;0" dur="0.09s" fill="freeze" begin="4.end" /></path><path d="M72.11,25.39c0.01,0.15,0.03,0.4-0.03,0.62c-0.34,1.3-2.31,4.15-5.01,5.9" stroke-dasharray="8.49" stroke-dashoffset="8.49"><animate attributeName="stroke-dashoffset" values="8.49" fill="freeze" begin="7662.click" /><animate id="6" attributeName="stroke-dashoffset" values="8.49;0" dur="0.08s" fill="freeze" begin="5.end" /></path><path d="M40.34,35.89c1.17,0.19,3.32,0.25,4.49,0.19c11.29-0.53,22.52-2.5,34.72-3.17c1.93-0.11,3.12,0.09,4.1,0.19" stroke-dasharray="43.48" stroke-dashoffset="43.48"><animate attributeName="stroke-dashoffset" values="43.48" fill="freeze" begin="7662.click" /><animate id="7" attributeName="stroke-dashoffset" values="43.48;0" dur="0.43s" fill="freeze" begin="6.end" /></path><path d="M59.93,34.73c0.83,0.37,1.33,1.68,1.49,2.43c0.17,0.75,0,7.74-0.17,12.41" stroke-dasharray="15.35" stroke-dashoffset="15.35"><animate attributeName="stroke-dashoffset" values="15.35" fill="freeze" begin="7662.click" /><animate id="8" attributeName="stroke-dashoffset" values="15.35;0" dur="0.15s" fill="freeze" begin="7.end" /></path><path d="M42.66,44.18c1.08,0.24,3.08,0.32,4.16,0.24c8.19-0.62,17.67-1.94,29.65-2.66c1.8-0.11,2.89,0.11,3.8,0.23" stroke-dasharray="37.76" stroke-dashoffset="37.76"><animate attributeName="stroke-dashoffset" values="37.76" fill="freeze" begin="7662.click" /><animate id="9" attributeName="stroke-dashoffset" values="37.76;0" dur="0.38s" fill="freeze" begin="8.end" /></path><path d="M36.14,52.5c1.58,0.31,4.49,0.42,6.06,0.31c11.2-0.81,27.75-3.12,45.55-3.79c2.62-0.1,4.21,0.15,5.53,0.3" stroke-dasharray="57.34" stroke-dashoffset="57.34"><animate attributeName="stroke-dashoffset" values="57.34" fill="freeze" begin="7662.click" /><animate id="10" attributeName="stroke-dashoffset" values="57.34;0" dur="0.57s" fill="freeze" begin="9.end" /></path></g><g><path d="M53.29,52.31c0.06,0.43,0.24,1.16-0.12,1.74c-2.91,4.83-11.59,12.51-20.67,16.67" stroke-dasharray="28.64" stroke-dashoffset="28.64"><animate attributeName="stroke-dashoffset" values="28.64" fill="freeze" begin="7662.click" /><animate id="11" attributeName="stroke-dashoffset" values="28.64;0" dur="0.29s" fill="freeze" begin="10.end" /></path><path d="M70.92,50.45c3.64,2.14,15.98,11.34,19.22,13.29c1.1,0.66,2.51,0.94,3.61,1.13" stroke-dasharray="27.18" stroke-dashoffset="27.18"><animate attributeName="stroke-dashoffset" values="27.18" fill="freeze" begin="7662.click" /><animate id="12" attributeName="stroke-dashoffset" values="27.18;0" dur="0.27s" fill="freeze" begin="11.end" /></path><path d="M54.25,57.53c1,0.16,1.81,0.4,2.75,0.33c4-0.33,7.84-1.05,12.24-1.66c0.83-0.12,1.68,0.11,2.51,0.03" stroke-dasharray="17.65" stroke-dashoffset="17.65"><animate attributeName="stroke-dashoffset" values="17.65" fill="freeze" begin="7662.click" /><animate id="13" attributeName="stroke-dashoffset" values="17.65;0" dur="0.18s" fill="freeze" begin="12.end" /></path><path d="M50.9,64.96c2.12-0.06,20.06-2.25,22-2.33c1.61-0.06,2.62,0.47,2.52,1.82c-0.21,2.83-2.46,13.29-2.46,13.65" stroke-dasharray="39.62" stroke-dashoffset="39.62"><animate attributeName="stroke-dashoffset" values="39.62" fill="freeze" begin="7662.click" /><animate id="14" attributeName="stroke-dashoffset" values="39.62;0" dur="0.4s" fill="freeze" begin="13.end" /></path><path d="M51.27,71.48c2.87,0,19.2-2.08,22.44-2.08" stroke-dasharray="22.54" stroke-dashoffset="22.54"><animate attributeName="stroke-dashoffset" values="22.54" fill="freeze" begin="7662.click" /><animate id="15" attributeName="stroke-dashoffset" values="22.54;0" dur="0.23s" fill="freeze" begin="14.end" /></path><path d="M51.14,78.47c5.84-0.26,13.66-1.74,20.93-1.96" stroke-dasharray="21.03" stroke-dashoffset="21.03"><animate attributeName="stroke-dashoffset" values="21.03" fill="freeze" begin="7662.click" /><animate id="16" attributeName="stroke-dashoffset" values="21.03;0" dur="0.21s" fill="freeze" begin="15.end" /></path><path d="M48.62,63.7c1.06,0.32,1.69,1.42,1.9,2.05c0.21,0.63-0.29,27.37-0.29,28.95c0,2.31,0.6,3.03,3.13,1.93c2.54-1.1,6.38-3.38,11.76-5.9" stroke-dasharray="50.05" stroke-dashoffset="50.05"><animate attributeName="stroke-dashoffset" values="50.05" fill="freeze" begin="7662.click" /><animate id="17" attributeName="stroke-dashoffset" values="50.05;0" dur="0.5s" fill="freeze" begin="16.end" /></path><path d="M80.03,78.17c0.21,0.79,0.15,2.13-0.58,2.6c-2.45,1.59-5.65,3.78-7.55,4.89" stroke-dasharray="11.81" stroke-dashoffset="11.81"><animate attributeName="stroke-dashoffset" values="11.81" fill="freeze" begin="7662.click" /><animate id="18" attributeName="stroke-dashoffset" values="11.81;0" dur="0.12s" fill="freeze" begin="17.end" /></path><path d="M61.22,81.47c2.9,0,18.09,12.49,20.46,13.43c3.41,1.34,3.92,1.34,5.62,1.64" stroke-dasharray="30.44" stroke-dashoffset="30.44"><animate attributeName="stroke-dashoffset" values="30.44" fill="freeze" begin="7662.click" /><animate id="19" attributeName="stroke-dashoffset" values="30.44;0" dur="0.3s" fill="freeze" begin="18.end" /></path></g></g></g></g></svg>