<svg xmlns="http://www.w3.org/2000/svg" width="109" height="109" viewBox="0 0 109 109" id="766c"><g fill="none" stroke="#666" stroke-width="9" stroke-linecap="round" stroke-linejoin="round"><g><g><path d="M56.41,9.63c0.7,0.36,2.18,2.66,2.32,3.37c0.14,0.71,0.07,4.3-0.07,8.74" /><path d="M26.13,23.23c1.52,0.54,4.3,0.63,5.82,0.54c15.8-0.91,41.05-3.02,55.11-3.73c2.53-0.13,4.05,0.26,5.31,0.53" /><path d="M30.49,24c0,1.19,0,2.35,0,3.5c-0.1,35-1.95,50.53-16.18,66.72" /><path d="M12.75,37.5c3.44,1.72,8.89,7.07,9.75,9.75" /><path d="M11.92,67.05c1.27,0.65,1.66,0.46,2.78-0.33c4.52-3.19,7.13-5.22,10.55-7.97" /></g><g><g><g><path d="M48.97,29c0.04,0.37,0.08,0.95-0.07,1.47c-0.87,3.1-5.84,9.91-12.66,14.07" /><path d="M45.94,36.95c1.4,0,10.47-2.4,11.94-2.58c1.26-0.15,1.55,1.35,1.02,2.12c-2.22,3.24-5.08,6.71-8.7,11.85" /></g><g><g><path d="M36.04,48.3c0.96,0.95,1.55,2,1.78,3.35c0.82,4.71,1.68,13.96,2.19,22.64" /><path d="M37.89,49.49c6.32-0.53,17.55-2.36,22.27-2.86c1.73-0.19,2.62,1.17,2.53,2.44c-0.33,4.63-2.2,15.05-3.52,23.95" /><path d="M48.38,48.35c0.72,0.65,1.26,2.59,1.29,4.08c0.1,6.6,0.02,15.43,0.02,18.7" /><path d="M39.07,60.6c2.06-0.25,20.54-1.74,22.24-1.75" /><path d="M40.34,72.1c4.55-0.04,12.04-1.16,18.33-1.33" /></g><g><path d="M34.15,81.22c0,4.92-5.13,12.17-6.46,13.58" /><path d="M41.07,80.3c1.28,2.55,2.5,9.56,2.83,13.53" /><path d="M49.95,78.97c1.54,2.22,3.97,9.13,4.36,12.58" /><path d="M59.79,78.89c1.96,1.73,5.07,7.11,5.55,9.8" /></g></g></g><g><path d="M66.8,28.69c2.47,1.89,6.39,7.77,7.01,10.72" /><path d="M88.33,27.67c0.02,0.32,0.04,0.83-0.03,1.3c-0.41,2.73-2.76,8.73-5.98,12.4" /><path d="M66.17,45.2c0.8,0.55,2.25,0.6,3.05,0.55c5.64-0.39,15.52-2.41,22.69-2.21c1.33,0.04,2.12,0.26,2.79,0.53" /><path d="M68.03,61.13c0.57,0.45,1.62,0.52,2.2,0.45C75,61,85.25,59,90.85,58.67c0.95-0.06,1.53,0.21,2.01,0.44" /><path d="M65.66,75.55c0.85,0.59,2.41,0.66,3.27,0.59c7.82-0.64,16.26-2.37,25.91-2.08c1.42,0.04,2.27,0.28,2.99,0.57" /><path d="M79.55,46.17c0.5,0.39,0.8,1.74,0.91,2.52c0.1,0.77,0,45.48-0.1,50.31" /></g></g></g></g><g fill="none" stroke="#000" stroke-width="5" stroke-linecap="round" stroke-linejoin="round"><g><g><path d="M56.41,9.63c0.7,0.36,2.18,2.66,2.32,3.37c0.14,0.71,0.07,4.3-0.07,8.74" stroke-dasharray="12.89" stroke-dashoffset="12.89"><animate id="0" attributeName="stroke-dashoffset" values="12.89;0" dur="0.13s" fill="freeze" begin="0s;766c.click" /></path><path d="M26.13,23.23c1.52,0.54,4.3,0.63,5.82,0.54c15.8-0.91,41.05-3.02,55.11-3.73c2.53-0.13,4.05,0.26,5.31,0.53" stroke-dasharray="66.47" stroke-dashoffset="66.47"><animate attributeName="stroke-dashoffset" values="66.47" fill="freeze" begin="766c.click" /><animate id="1" attributeName="stroke-dashoffset" values="66.47;0" dur="0.5s" fill="freeze" begin="0.end" /></path><path d="M30.49,24c0,1.19,0,2.35,0,3.5c-0.1,35-1.95,50.53-16.18,66.72" stroke-dasharray="73.95" stroke-dashoffset="73.95"><animate attributeName="stroke-dashoffset" values="73.95" fill="freeze" begin="766c.click" /><animate id="2" attributeName="stroke-dashoffset" values="73.95;0" dur="0.56s" fill="freeze" begin="1.end" /></path><path d="M12.75,37.5c3.44,1.72,8.89,7.07,9.75,9.75" stroke-dasharray="13.99" stroke-dashoffset="13.99"><animate attributeName="stroke-dashoffset" values="13.99" fill="freeze" begin="766c.click" /><animate id="3" attributeName="stroke-dashoffset" values="13.99;0" dur="0.14s" fill="freeze" begin="2.end" /></path><path d="M11.92,67.05c1.27,0.65,1.66,0.46,2.78-0.33c4.52-3.19,7.13-5.22,10.55-7.97" stroke-dasharray="16.27" stroke-dashoffset="16.27"><animate attributeName="stroke-dashoffset" values="16.27" fill="freeze" begin="766c.click" /><animate id="4" attributeName="stroke-dashoffset" values="16.27;0" dur="0.16s" fill="freeze" begin="3.end" /></path></g><g><g><g><path d="M48.97,29c0.04,0.37,0.08,0.95-0.07,1.47c-0.87,3.1-5.84,9.91-12.66,14.07" stroke-dasharray="20.71" stroke-dashoffset="20.71"><animate attributeName="stroke-dashoffset" values="20.71" fill="freeze" begin="766c.click" /><animate id="5" attributeName="stroke-dashoffset" values="20.71;0" dur="0.21s" fill="freeze" begin="4.end" /></path><path d="M45.94,36.95c1.4,0,10.47-2.4,11.94-2.58c1.26-0.15,1.55,1.35,1.02,2.12c-2.22,3.24-5.08,6.71-8.7,11.85" stroke-dasharray="29.89" stroke-dashoffset="29.89"><animate attributeName="stroke-dashoffset" values="29.89" fill="freeze" begin="766c.click" /><animate id="6" attributeName="stroke-dashoffset" values="29.89;0" dur="0.3s" fill="freeze" begin="5.end" /></path></g><g><g><path d="M36.04,48.3c0.96,0.95,1.55,2,1.78,3.35c0.82,4.71,1.68,13.96,2.19,22.64" stroke-dasharray="26.61" stroke-dashoffset="26.61"><animate attributeName="stroke-dashoffset" values="26.61" fill="freeze" begin="766c.click" /><animate id="7" attributeName="stroke-dashoffset" values="26.61;0" dur="0.27s" fill="freeze" begin="6.end" /></path><path d="M37.89,49.49c6.32-0.53,17.55-2.36,22.27-2.86c1.73-0.19,2.62,1.17,2.53,2.44c-0.33,4.63-2.2,15.05-3.52,23.95" stroke-dasharray="50.72" stroke-dashoffset="50.72"><animate attributeName="stroke-dashoffset" values="50.72" fill="freeze" begin="766c.click" /><animate id="8" attributeName="stroke-dashoffset" values="50.72;0" dur="0.51s" fill="freeze" begin="7.end" /></path><path d="M48.38,48.35c0.72,0.65,1.26,2.59,1.29,4.08c0.1,6.6,0.02,15.43,0.02,18.7" stroke-dasharray="23.06" stroke-dashoffset="23.06"><animate attributeName="stroke-dashoffset" values="23.06" fill="freeze" begin="766c.click" /><animate id="9" attributeName="stroke-dashoffset" values="23.06;0" dur="0.23s" fill="freeze" begin="8.end" /></path><path d="M39.07,60.6c2.06-0.25,20.54-1.74,22.24-1.75" stroke-dasharray="22.31" stroke-dashoffset="22.31"><animate attributeName="stroke-dashoffset" values="22.31" fill="freeze" begin="766c.click" /><animate id="10" attributeName="stroke-dashoffset" values="22.31;0" dur="0.22s" fill="freeze" begin="9.end" /></path><path d="M40.34,72.1c4.55-0.04,12.04-1.16,18.33-1.33" stroke-dasharray="18.38" stroke-dashoffset="18.38"><animate attributeName="stroke-dashoffset" values="18.38" fill="freeze" begin="766c.click" /><animate id="11" attributeName="stroke-dashoffset" values="18.38;0" dur="0.18s" fill="freeze" begin="10.end" /></path></g><g><path d="M34.15,81.22c0,4.92-5.13,12.17-6.46,13.58" stroke-dasharray="15.27" stroke-dashoffset="15.27"><animate attributeName="stroke-dashoffset" values="15.27" fill="freeze" begin="766c.click" /><animate id="12" attributeName="stroke-dashoffset" values="15.27;0" dur="0.15s" fill="freeze" begin="11.end" /></path><path d="M41.07,80.3c1.28,2.55,2.5,9.56,2.83,13.53" stroke-dasharray="13.87" stroke-dashoffset="13.87"><animate attributeName="stroke-dashoffset" values="13.87" fill="freeze" begin="766c.click" /><animate id="13" attributeName="stroke-dashoffset" values="13.87;0" dur="0.14s" fill="freeze" begin="12.end" /></path><path d="M49.95,78.97c1.54,2.22,3.97,9.13,4.36,12.58" stroke-dasharray="13.39" stroke-dashoffset="13.39"><animate attributeName="stroke-dashoffset" values="13.39" fill="freeze" begin="766c.click" /><animate id="14" attributeName="stroke-dashoffset" values="13.39;0" dur="0.13s" fill="freeze" begin="13.end" /></path><path d="M59.79,78.89c1.96,1.73,5.07,7.11,5.55,9.8" stroke-dasharray="11.38" stroke-dashoffset="11.38"><animate attributeName="stroke-dashoffset" values="11.38" fill="freeze" begin="766c.click" /><animate id="15" attributeName="stroke-dashoffset" values="11.38;0" dur="0.11s" fill="freeze" begin="14.end" /></path></g></g></g><g><path d="M66.8,28.69c2.47,1.89,6.39,7.77,7.01,10.72" stroke-dasharray="12.96" stroke-dashoffset="12.96"><animate attributeName="stroke-dashoffset" values="12.96" fill="freeze" begin="766c.click" /><animate id="16" attributeName="stroke-dashoffset" values="12.96;0" dur="0.13s" fill="freeze" begin="15.end" /></path><path d="M88.33,27.67c0.02,0.32,0.04,0.83-0.03,1.3c-0.41,2.73-2.76,8.73-5.98,12.4" stroke-dasharray="15.2" stroke-dashoffset="15.2"><animate attributeName="stroke-dashoffset" values="15.2" fill="freeze" begin="766c.click" /><animate id="17" attributeName="stroke-dashoffset" values="15.2;0" dur="0.15s" fill="freeze" begin="16.end" /></path><path d="M66.17,45.2c0.8,0.55,2.25,0.6,3.05,0.55c5.64-0.39,15.52-2.41,22.69-2.21c1.33,0.04,2.12,0.26,2.79,0.53" stroke-dasharray="28.82" stroke-dashoffset="28.82"><animate attributeName="stroke-dashoffset" values="28.82" fill="freeze" begin="766c.click" /><animate id="18" attributeName="stroke-dashoffset" values="28.82;0" dur="0.29s" fill="freeze" begin="17.end" /></path><path d="M68.03,61.13c0.57,0.45,1.62,0.52,2.2,0.45C75,61,85.25,59,90.85,58.67c0.95-0.06,1.53,0.21,2.01,0.44" stroke-dasharray="25.21" stroke-dashoffset="25.21"><animate attributeName="stroke-dashoffset" values="25.21" fill="freeze" begin="766c.click" /><animate id="19" attributeName="stroke-dashoffset" values="25.21;0" dur="0.25s" fill="freeze" begin="18.end" /></path><path d="M65.66,75.55c0.85,0.59,2.41,0.66,3.27,0.59c7.82-0.64,16.26-2.37,25.91-2.08c1.42,0.04,2.27,0.28,2.99,0.57" stroke-dasharray="32.46" stroke-dashoffset="32.46"><animate attributeName="stroke-dashoffset" values="32.46" fill="freeze" begin="766c.click" /><animate id="20" attributeName="stroke-dashoffset" values="32.46;0" dur="0.32s" fill="freeze" begin="19.end" /></path><path d="M79.55,46.17c0.5,0.39,0.8,1.74,0.91,2.52c0.1,0.77,0,45.48-0.1,50.31" stroke-dasharray="53.03" stroke-dashoffset="53.03"><animate attributeName="stroke-dashoffset" values="53.03" fill="freeze" begin="766c.click" /><animate id="21" attributeName="stroke-dashoffset" values="53.03;0" dur="0.53s" fill="freeze" begin="20.end" /></path></g></g></g></g></svg>