<svg xmlns="http://www.w3.org/2000/svg" width="109" height="109" viewBox="0 0 109 109" id="7676"><g fill="none" stroke="#666" stroke-width="9" stroke-linecap="round" stroke-linejoin="round"><g><g><path d="M22.5,32c1.5,0.75,2.07,0.61,4.5,0.25c6.31-0.93,8.75-1.75,15.49-2.94C46.48,28.6,47.28,29.95,46,34c-3,9.5-21.25,37.25-35.5,42.25" /><path d="M19.02,43.33c3.9,2.1,10.07,8.62,11.04,11.88" /></g><g><path d="M75.78,24.64c0.03,0.3,0.06,0.78-0.05,1.21c-0.65,2.56-4.35,8.17-9.42,11.61" /><path d="M53.25,26.25c2.5,0.25,30.34,38.44,36.27,45.12c2.01,2.27,3.73,3.24,5.73,3.88" /><path d="M86.27,36.89c0.03,0.28,0.06,0.73-0.06,1.14c-0.75,2.41-5.04,7.7-10.9,10.93" /></g></g></g><g fill="none" stroke="#000" stroke-width="5" stroke-linecap="round" stroke-linejoin="round"><path d="M22.5,32c1.5,0.75,2.07,0.61,4.5,0.25c6.31-0.93,8.75-1.75,15.49-2.94C46.48,28.6,47.28,29.95,46,34c-3,9.5-21.25,37.25-35.5,42.25" stroke-dasharray="84.898" stroke-dashoffset="84.898"><animate attributeName="stroke-dashoffset" values="84.898;84.898;0" dur="0.638s" fill="freeze" begin="0s;7676.click" /></path><path d="M19.02,43.33c3.9,2.1,10.07,8.62,11.04,11.88" stroke-dasharray="16.452" stroke-dashoffset="16.452"><animate attributeName="stroke-dashoffset" values="16.452" fill="freeze" begin="7676.click" /><animate attributeName="stroke-dashoffset" values="16.452;16.452;0" keyTimes="0;0.795;1" dur="0.803s" fill="freeze" begin="0s;7676.click" /></path><path d="M75.78,24.64c0.03,0.3,0.06,0.78-0.05,1.21c-0.65,2.56-4.35,8.17-9.42,11.61" stroke-dasharray="16.4" stroke-dashoffset="16.4"><animate attributeName="stroke-dashoffset" values="16.4" fill="freeze" begin="7676.click" /><animate attributeName="stroke-dashoffset" values="16.4;16.4;0" keyTimes="0;0.83;1" dur="0.967s" fill="freeze" begin="0s;7676.click" /></path><path d="M53.25,26.25c2.5,0.25,30.34,38.44,36.27,45.12c2.01,2.27,3.73,3.24,5.73,3.88" stroke-dasharray="64.991" stroke-dashoffset="64.991"><animate attributeName="stroke-dashoffset" values="64.991" fill="freeze" begin="7676.click" /><animate attributeName="stroke-dashoffset" values="64.991;64.991;0" keyTimes="0;0.664;1" dur="1.456s" fill="freeze" begin="0s;7676.click" /></path><path d="M86.27,36.89c0.03,0.28,0.06,0.73-0.06,1.14c-0.75,2.41-5.04,7.7-10.9,10.93" stroke-dasharray="16.839" stroke-dashoffset="16.839"><animate attributeName="stroke-dashoffset" values="16.839" fill="freeze" begin="7676.click" /><animate attributeName="stroke-dashoffset" values="16.839;16.839;0" keyTimes="0;0.897;1" dur="1.624s" fill="freeze" begin="0s;7676.click" /></path></g></svg>