<svg xmlns="http://www.w3.org/2000/svg" width="109" height="109" viewBox="0 0 109 109" id="7687"><g fill="none" stroke="#666" stroke-width="9" stroke-linecap="round" stroke-linejoin="round"><g><g><g><path d="M52.47,11c0.16,0.75,0.03,1.88-0.52,2.78c-2.43,3.96-6.7,9.6-12.64,15.19" /></g><g><path d="M26.25,29.58c1.09,1.09,1.68,2.41,1.88,3.4c0.85,4.19,2.78,14.55,3.83,21.49c0.33,2.21,0.58,4.07,0.67,5.28" /><path d="M28.69,31.62c12.98-1.81,38.21-4.35,46.32-5.18c2.82-0.29,6.14,0.65,5.23,4.4c-0.95,3.9-2.42,12.5-4.2,20.43c-0.34,1.5-0.68,2.97-1.04,4.38" /><path d="M31.13,43.37c11.99-1.49,36.62-3.62,46.19-3.87" /><path d="M33.19,55.86C46.75,55,63.5,53,74.69,52.74" /></g></g><g p4:partial p4:phon="王" xmlns:p4="http://kanjivg.tagaini.net"><path d="M30.94,65.83c2.44,0.67,6.29,0.32,8.31,0.11c7-0.75,21.22-2.13,30.5-2.75c2.48-0.17,5.64-0.06,7.78,0.55" /><path d="M52.49,66.84c0.96,0.96,1.38,2.54,1.38,3.89c0,11.4-0.09,7.28-0.09,21.47" /><path d="M32.2,79.48c2.68,0.52,5.52,0.17,7.3,0c8.56-0.8,19.28-1.59,29.01-2.41c2.57-0.22,6.04-0.44,8.54,0.28" /><path d="M15.25,95.49c3.45,1.19,7.99,0.44,11.52,0.18C43.32,94.44,63.25,92.73,83,91.8c3.62-0.17,7.88,0.08,11.5,1.11" /></g></g></g><g fill="none" stroke="#000" stroke-width="5" stroke-linecap="round" stroke-linejoin="round"><g><g><g><path d="M52.47,11c0.16,0.75,0.03,1.88-0.52,2.78c-2.43,3.96-6.7,9.6-12.64,15.19" stroke-dasharray="22.7" stroke-dashoffset="22.7"><animate id="0" attributeName="stroke-dashoffset" values="22.7;0" dur="0.23s" fill="freeze" begin="0s;7687.click" /></path></g><g><path d="M26.25,29.58c1.09,1.09,1.68,2.41,1.88,3.4c0.85,4.19,2.78,14.55,3.83,21.49c0.33,2.21,0.58,4.07,0.67,5.28" stroke-dasharray="31.09" stroke-dashoffset="31.09"><animate attributeName="stroke-dashoffset" values="31.09" fill="freeze" begin="7687.click" /><animate id="1" attributeName="stroke-dashoffset" values="31.09;0" dur="0.31s" fill="freeze" begin="0.end" /></path><path d="M28.69,31.62c12.98-1.81,38.21-4.35,46.32-5.18c2.82-0.29,6.14,0.65,5.23,4.4c-0.95,3.9-2.42,12.5-4.2,20.43c-0.34,1.5-0.68,2.97-1.04,4.38" stroke-dasharray="80.33" stroke-dashoffset="80.33"><animate attributeName="stroke-dashoffset" values="80.33" fill="freeze" begin="7687.click" /><animate id="2" attributeName="stroke-dashoffset" values="80.33;0" dur="0.6s" fill="freeze" begin="1.end" /></path><path d="M31.13,43.37c11.99-1.49,36.62-3.62,46.19-3.87" stroke-dasharray="46.36" stroke-dashoffset="46.36"><animate attributeName="stroke-dashoffset" values="46.36" fill="freeze" begin="7687.click" /><animate id="3" attributeName="stroke-dashoffset" values="46.36;0" dur="0.46s" fill="freeze" begin="2.end" /></path><path d="M33.19,55.86C46.75,55,63.5,53,74.69,52.74" stroke-dasharray="41.62" stroke-dashoffset="41.62"><animate attributeName="stroke-dashoffset" values="41.62" fill="freeze" begin="7687.click" /><animate id="4" attributeName="stroke-dashoffset" values="41.62;0" dur="0.42s" fill="freeze" begin="3.end" /></path></g></g><g p4:partial p4:phon="王" xmlns:p4="http://kanjivg.tagaini.net"><path d="M30.94,65.83c2.44,0.67,6.29,0.32,8.31,0.11c7-0.75,21.22-2.13,30.5-2.75c2.48-0.17,5.64-0.06,7.78,0.55" stroke-dasharray="46.81" stroke-dashoffset="46.81"><animate attributeName="stroke-dashoffset" values="46.81" fill="freeze" begin="7687.click" /><animate id="5" attributeName="stroke-dashoffset" values="46.81;0" dur="0.47s" fill="freeze" begin="4.end" /></path><path d="M52.49,66.84c0.96,0.96,1.38,2.54,1.38,3.89c0,11.4-0.09,7.28-0.09,21.47" stroke-dasharray="25.7" stroke-dashoffset="25.7"><animate attributeName="stroke-dashoffset" values="25.7" fill="freeze" begin="7687.click" /><animate id="6" attributeName="stroke-dashoffset" values="25.7;0" dur="0.26s" fill="freeze" begin="5.end" /></path><path d="M32.2,79.48c2.68,0.52,5.52,0.17,7.3,0c8.56-0.8,19.28-1.59,29.01-2.41c2.57-0.22,6.04-0.44,8.54,0.28" stroke-dasharray="45.03" stroke-dashoffset="45.03"><animate attributeName="stroke-dashoffset" values="45.03" fill="freeze" begin="7687.click" /><animate id="7" attributeName="stroke-dashoffset" values="45.03;0" dur="0.45s" fill="freeze" begin="6.end" /></path><path d="M15.25,95.49c3.45,1.19,7.99,0.44,11.52,0.18C43.32,94.44,63.25,92.73,83,91.8c3.62-0.17,7.88,0.08,11.5,1.11" stroke-dasharray="79.57" stroke-dashoffset="79.57"><animate attributeName="stroke-dashoffset" values="79.57" fill="freeze" begin="7687.click" /><animate id="8" attributeName="stroke-dashoffset" values="79.57;0" dur="0.6s" fill="freeze" begin="7.end" /></path></g></g></g></svg>