<svg xmlns="http://www.w3.org/2000/svg" width="109" height="109" viewBox="0 0 109 109" id="7687"><g fill="none" stroke="#666" stroke-width="9" stroke-linecap="round" stroke-linejoin="round"><g><g><g><path d="M52.47,11c0.16,0.75,0.03,1.88-0.52,2.78c-2.43,3.96-6.7,9.6-12.64,15.19" /></g><g><path d="M26.25,29.58c1.09,1.09,1.68,2.41,1.88,3.4c0.85,4.19,2.78,14.55,3.83,21.49c0.33,2.21,0.58,4.07,0.67,5.28" /><path d="M28.69,31.62c12.98-1.81,38.21-4.35,46.32-5.18c2.82-0.29,6.14,0.65,5.23,4.4c-0.95,3.9-2.42,12.5-4.2,20.43c-0.34,1.5-0.68,2.97-1.04,4.38" /><path d="M31.13,43.37c11.99-1.49,36.62-3.62,46.19-3.87" /><path d="M33.19,55.86C46.75,55,63.5,53,74.69,52.74" /></g></g><g p4:partial p4:phon="王" xmlns:p4="http://kanjivg.tagaini.net"><path d="M30.94,65.83c2.44,0.67,6.29,0.32,8.31,0.11c7-0.75,21.22-2.13,30.5-2.75c2.48-0.17,5.64-0.06,7.78,0.55" /><path d="M52.49,66.84c0.96,0.96,1.38,2.54,1.38,3.89c0,11.4-0.09,7.28-0.09,21.47" /><path d="M32.2,79.48c2.68,0.52,5.52,0.17,7.3,0c8.56-0.8,19.28-1.59,29.01-2.41c2.57-0.22,6.04-0.44,8.54,0.28" /><path d="M15.25,95.49c3.45,1.19,7.99,0.44,11.52,0.18C43.32,94.44,63.25,92.73,83,91.8c3.62-0.17,7.88,0.08,11.5,1.11" /></g></g></g><g fill="none" stroke="#000" stroke-width="5" stroke-linecap="round" stroke-linejoin="round"><g><g><g><path d="M52.47,11c0.16,0.75,0.03,1.88-0.52,2.78c-2.43,3.96-6.7,9.6-12.64,15.19" stroke-dasharray="22.706" stroke-dashoffset="22.706"><animate attributeName="stroke-dashoffset" values="22.706;22.706;0" dur="0.227s" fill="freeze" begin="0s;7687.click" /></path></g><g><path d="M26.25,29.58c1.09,1.09,1.68,2.41,1.88,3.4c0.85,4.19,2.78,14.55,3.83,21.49c0.33,2.21,0.58,4.07,0.67,5.28" stroke-dasharray="31.092" stroke-dashoffset="31.092"><animate attributeName="stroke-dashoffset" values="31.092" fill="freeze" begin="7687.click" /><animate attributeName="stroke-dashoffset" values="31.092;31.092;0" keyTimes="0;0.422;1" dur="0.538s" fill="freeze" begin="0s;7687.click" /></path><path d="M28.69,31.62c12.98-1.81,38.21-4.35,46.32-5.18c2.82-0.29,6.14,0.65,5.23,4.4c-0.95,3.9-2.42,12.5-4.2,20.43c-0.34,1.5-0.68,2.97-1.04,4.38" stroke-dasharray="80.327" stroke-dashoffset="80.327"><animate attributeName="stroke-dashoffset" values="80.327" fill="freeze" begin="7687.click" /><animate attributeName="stroke-dashoffset" values="80.327;80.327;0" keyTimes="0;0.471;1" dur="1.142s" fill="freeze" begin="0s;7687.click" /></path><path d="M31.13,43.37c11.99-1.49,36.62-3.62,46.19-3.87" stroke-dasharray="46.363" stroke-dashoffset="46.363"><animate attributeName="stroke-dashoffset" values="46.363" fill="freeze" begin="7687.click" /><animate attributeName="stroke-dashoffset" values="46.363;46.363;0" keyTimes="0;0.711;1" dur="1.606s" fill="freeze" begin="0s;7687.click" /></path><path d="M33.19,55.86C46.75,55,63.5,53,74.69,52.74" stroke-dasharray="41.623" stroke-dashoffset="41.623"><animate attributeName="stroke-dashoffset" values="41.623" fill="freeze" begin="7687.click" /><animate attributeName="stroke-dashoffset" values="41.623;41.623;0" keyTimes="0;0.794;1" dur="2.022s" fill="freeze" begin="0s;7687.click" /></path></g></g><g p4:partial p4:phon="王" xmlns:p4="http://kanjivg.tagaini.net"><path d="M30.94,65.83c2.44,0.67,6.29,0.32,8.31,0.11c7-0.75,21.22-2.13,30.5-2.75c2.48-0.17,5.64-0.06,7.78,0.55" stroke-dasharray="46.81" stroke-dashoffset="46.81"><animate attributeName="stroke-dashoffset" values="46.81" fill="freeze" begin="7687.click" /><animate attributeName="stroke-dashoffset" values="46.81;46.81;0" keyTimes="0;0.812;1" dur="2.49s" fill="freeze" begin="0s;7687.click" /></path><path d="M52.49,66.84c0.96,0.96,1.38,2.54,1.38,3.89c0,11.4-0.09,7.28-0.09,21.47" stroke-dasharray="25.699" stroke-dashoffset="25.699"><animate attributeName="stroke-dashoffset" values="25.699" fill="freeze" begin="7687.click" /><animate attributeName="stroke-dashoffset" values="25.699;25.699;0" keyTimes="0;0.906;1" dur="2.747s" fill="freeze" begin="0s;7687.click" /></path><path d="M32.2,79.48c2.68,0.52,5.52,0.17,7.3,0c8.56-0.8,19.28-1.59,29.01-2.41c2.57-0.22,6.04-0.44,8.54,0.28" stroke-dasharray="45.027" stroke-dashoffset="45.027"><animate attributeName="stroke-dashoffset" values="45.027" fill="freeze" begin="7687.click" /><animate attributeName="stroke-dashoffset" values="45.027;45.027;0" keyTimes="0;0.859;1" dur="3.197s" fill="freeze" begin="0s;7687.click" /></path><path d="M15.25,95.49c3.45,1.19,7.99,0.44,11.52,0.18C43.32,94.44,63.25,92.73,83,91.8c3.62-0.17,7.88,0.08,11.5,1.11" stroke-dasharray="79.573" stroke-dashoffset="79.573"><animate attributeName="stroke-dashoffset" values="79.573" fill="freeze" begin="7687.click" /><animate attributeName="stroke-dashoffset" values="79.573;79.573;0" keyTimes="0;0.842;1" dur="3.795s" fill="freeze" begin="0s;7687.click" /></path></g></g></g></svg>