<svg xmlns="http://www.w3.org/2000/svg" width="109" height="109" viewBox="0 0 109 109" id="76b0"><g fill="none" stroke="#666" stroke-width="9" stroke-linecap="round" stroke-linejoin="round"><g><g><path d="M16.98,29.7c0.52,0.55,0.88,2.55,0.88,4.22c0,24.96-1.03,41.69-6.3,58.43" /><path d="M18.2,32.04c10.05-2.29,15.61-2.79,24.33-4.39c8.93-1.64,3.74,4.07,0.26,8.17" /><path d="M28.58,15.75c1.17,0.52,1.87,2.34,2.1,3.38c0.23,1.04-0.09,21.8-0.09,32.46" /><path d="M20.28,52.19c1.12,0.36,2.22,0.16,4.51-0.13c4.46-0.56,16.23-1.89,17.77-2.42c1.54-0.54,2.73,1.54,2.12,3.43C41,64.5,30,84.75,17.27,94.01" /><path d="M24.94,63.48C32.5,68.75,39.5,78.5,43.56,87.24" /></g><g><g><g><path d="M63.65,12c0.04,0.74,0.22,1.96-0.08,2.96c-1.94,6.52-7.21,18.76-14.47,28.27" /></g><path d="M60.14,29.18c0.86,0.61,2.02,0.56,3.45,0.41c8.16-0.84,24.05-2.78,27.49-3.14c1.63-0.17,3.48,1.12,3.41,3.41c-0.23,6.89-2.24,25.39-7.88,38.71c-1.68,3.96-4.49,2.53-6.52-0.02" /></g><g><g><path d="M53.33,44.74c1.29,0.94,2.39,0.94,4.28,0.63c3.84-0.63,17.25-3.77,18.42-3.89c1.55-0.16,2.76,1.03,2.21,3.47c-0.17,0.73-2.3,8.55-4.15,15.03" /><path d="M58.71,62.35c3.63-0.45,12.84-1.79,18.01-2.18" /><path d="M56.76,46.02c-0.01,1.75,0.35,2.42,0.35,4.13c-0.03,5.48,0.13,29.05,0.13,33.83c0,10.4,2.21,11.7,21.27,11.7c15.93,0,17.89-3.1,17.89-13.03" /></g></g></g></g></g><g fill="none" stroke="#000" stroke-width="5" stroke-linecap="round" stroke-linejoin="round"><g><g><path d="M16.98,29.7c0.52,0.55,0.88,2.55,0.88,4.22c0,24.96-1.03,41.69-6.3,58.43" stroke-dasharray="63.381" stroke-dashoffset="63.381"><animate attributeName="stroke-dashoffset" values="63.381;63.381;0" dur="0.477s" fill="freeze" begin="0s;76b0.click" /></path><path d="M18.2,32.04c10.05-2.29,15.61-2.79,24.33-4.39c8.93-1.64,3.74,4.07,0.26,8.17" stroke-dasharray="39.029" stroke-dashoffset="39.029"><animate attributeName="stroke-dashoffset" values="39.029" fill="freeze" begin="76b0.click" /><animate attributeName="stroke-dashoffset" values="39.029;39.029;0" keyTimes="0;0.55;1" dur="0.867s" fill="freeze" begin="0s;76b0.click" /></path><path d="M28.58,15.75c1.17,0.52,1.87,2.34,2.1,3.38c0.23,1.04-0.09,21.8-0.09,32.46" stroke-dasharray="36.566" stroke-dashoffset="36.566"><animate attributeName="stroke-dashoffset" values="36.566" fill="freeze" begin="76b0.click" /><animate attributeName="stroke-dashoffset" values="36.566;36.566;0" keyTimes="0;0.703;1" dur="1.233s" fill="freeze" begin="0s;76b0.click" /></path><path d="M20.28,52.19c1.12,0.36,2.22,0.16,4.51-0.13c4.46-0.56,16.23-1.89,17.77-2.42c1.54-0.54,2.73,1.54,2.12,3.43C41,64.5,30,84.75,17.27,94.01" stroke-dasharray="77.328" stroke-dashoffset="77.328"><animate attributeName="stroke-dashoffset" values="77.328" fill="freeze" begin="76b0.click" /><animate attributeName="stroke-dashoffset" values="77.328;77.328;0" keyTimes="0;0.68;1" dur="1.814s" fill="freeze" begin="0s;76b0.click" /></path><path d="M24.94,63.48C32.5,68.75,39.5,78.5,43.56,87.24" stroke-dasharray="30.498" stroke-dashoffset="30.498"><animate attributeName="stroke-dashoffset" values="30.498" fill="freeze" begin="76b0.click" /><animate attributeName="stroke-dashoffset" values="30.498;30.498;0" keyTimes="0;0.856;1" dur="2.119s" fill="freeze" begin="0s;76b0.click" /></path></g><g><g><g><path d="M63.65,12c0.04,0.74,0.22,1.96-0.08,2.96c-1.94,6.52-7.21,18.76-14.47,28.27" stroke-dasharray="34.882" stroke-dashoffset="34.882"><animate attributeName="stroke-dashoffset" values="34.882" fill="freeze" begin="76b0.click" /><animate attributeName="stroke-dashoffset" values="34.882;34.882;0" keyTimes="0;0.859;1" dur="2.468s" fill="freeze" begin="0s;76b0.click" /></path></g><path d="M60.14,29.18c0.86,0.61,2.02,0.56,3.45,0.41c8.16-0.84,24.05-2.78,27.49-3.14c1.63-0.17,3.48,1.12,3.41,3.41c-0.23,6.89-2.24,25.39-7.88,38.71c-1.68,3.96-4.49,2.53-6.52-0.02" stroke-dasharray="84.946" stroke-dashoffset="84.946"><animate attributeName="stroke-dashoffset" values="84.946" fill="freeze" begin="76b0.click" /><animate attributeName="stroke-dashoffset" values="84.946;84.946;0" keyTimes="0;0.794;1" dur="3.107s" fill="freeze" begin="0s;76b0.click" /></path></g><g><g><path d="M53.33,44.74c1.29,0.94,2.39,0.94,4.28,0.63c3.84-0.63,17.25-3.77,18.42-3.89c1.55-0.16,2.76,1.03,2.21,3.47c-0.17,0.73-2.3,8.55-4.15,15.03" stroke-dasharray="43.843" stroke-dashoffset="43.843"><animate attributeName="stroke-dashoffset" values="43.843" fill="freeze" begin="76b0.click" /><animate attributeName="stroke-dashoffset" values="43.843;43.843;0" keyTimes="0;0.876;1" dur="3.545s" fill="freeze" begin="0s;76b0.click" /></path><path d="M58.71,62.35c3.63-0.45,12.84-1.79,18.01-2.18" stroke-dasharray="18.144" stroke-dashoffset="18.144"><animate attributeName="stroke-dashoffset" values="18.144" fill="freeze" begin="76b0.click" /><animate attributeName="stroke-dashoffset" values="18.144;18.144;0" keyTimes="0;0.951;1" dur="3.726s" fill="freeze" begin="0s;76b0.click" /></path><path d="M56.76,46.02c-0.01,1.75,0.35,2.42,0.35,4.13c-0.03,5.48,0.13,29.05,0.13,33.83c0,10.4,2.21,11.7,21.27,11.7c15.93,0,17.89-3.1,17.89-13.03" stroke-dasharray="93.401" stroke-dashoffset="93.401"><animate attributeName="stroke-dashoffset" values="93.401" fill="freeze" begin="76b0.click" /><animate attributeName="stroke-dashoffset" values="93.401;93.401;0" keyTimes="0;0.841;1" dur="4.428s" fill="freeze" begin="0s;76b0.click" /></path></g></g></g></g></g></svg>