<svg xmlns="http://www.w3.org/2000/svg" width="109" height="109" viewBox="0 0 109 109" id="76b7"><g fill="none" stroke="#666" stroke-width="6" stroke-linecap="round" stroke-linejoin="round"><g><g p4:partial xmlns:p4="http://kanjivg.tagaini.net"><g><g><path d="M13.12,27.66c1.04,0.32,2.95,0.71,4,0.69C23,28.25,36.5,26,45.24,25.55c1.74-0.09,2.78,0.06,3.65,0.2" /><path d="M27.68,11.76c1.47,0.52,2.65,2.49,2.65,3.69c0,4.05-0.27,10.05-0.27,22.14" /><g><path d="M14.93,38.43c0.76,0.19,3.07,0.61,3.83,0.6C25,39,33,38,44.26,36.49c1.26-0.17,2.02,0.02,2.66,0.11" /></g></g><g><g><g><path d="M16.49,47.92c0.28,0.28,0.56,0.51,0.68,0.86c0.96,2.78,2.12,10.44,2.78,15.42" /><path d="M18.22,49.4c6.8-1.16,18.64-2.22,22.15-2.61c1.28-0.14,2.05,1.45,1.87,2.29c-0.76,3.5-1.27,5.99-2.9,11.03" /><path d="M20.22,62.38c4.12-0.44,16.52-1.38,21.75-1.83" /></g></g></g></g><g><path d="M16.27,69.36c2.66,2.67,6.88,11,7.54,15.16" /><path d="M40.04,66.89c0.01,0.37,0.03,0.95-0.03,1.47c-0.34,3.11-2.29,9.93-4.95,14.1" /><path d="M11.25,91.53c0.65,1.49,2.21,2.01,4.42,1.27c11.27-3.82,16.06-6.15,26.08-9.55" /></g></g><g><path d="M55.15,28.37c0.59,1.09,1.46,3.07,1.45,5.35C56.48,59.38,54.5,81,43.37,94.63" /><path d="M56.46,31.29c15.04-4.54,27.31-6.09,32.17-6.46c10.87-0.83,1.07,7.1-0.15,7.78" /><path d="M69.46,11.75c1.42,0.5,2.27,2.25,2.55,3.25s-0.1,25-0.1,35.25" /><path d="M59.6,52.35c1.24,0.34,1.52,0.92,4,0.4c5.3-1.1,17.1-3.46,22.38-4.27c1.76-0.27,3.08,2,2.32,3.79C80.46,70.7,69.25,86.75,51.03,96.64" /><path d="M61.03,58.37c3.22,2.38,17.56,24.42,27.95,34.06c1.62,1.51,2.8,2.5,4.3,3" /></g></g></g><g fill="none" stroke="#000" stroke-width="3" stroke-linecap="round" stroke-linejoin="round"><path d="M13.12,27.66c1.04,0.32,2.95,0.71,4,0.69C23,28.25,36.5,26,45.24,25.55c1.74-0.09,2.78,0.06,3.65,0.2" stroke-dasharray="36.002" stroke-dashoffset="36.002"><animate attributeName="stroke-dashoffset" values="36.002;36.002;0" dur="0.36s" fill="freeze" begin="0s;76b7.click" /></path><path d="M27.68,11.76c1.47,0.52,2.65,2.49,2.65,3.69c0,4.05-0.27,10.05-0.27,22.14" stroke-dasharray="26.91" stroke-dashoffset="26.91"><animate attributeName="stroke-dashoffset" values="26.91" fill="freeze" begin="76b7.click" /><animate attributeName="stroke-dashoffset" values="26.91;26.91;0" keyTimes="0;0.572;1" dur="0.629s" fill="freeze" begin="0s;76b7.click" /></path><path d="M14.93,38.43c0.76,0.19,3.07,0.61,3.83,0.6C25,39,33,38,44.26,36.49c1.26-0.17,2.02,0.02,2.66,0.11" stroke-dasharray="32.199" stroke-dashoffset="32.199"><animate attributeName="stroke-dashoffset" values="32.199" fill="freeze" begin="76b7.click" /><animate attributeName="stroke-dashoffset" values="32.199;32.199;0" keyTimes="0;0.661;1" dur="0.951s" fill="freeze" begin="0s;76b7.click" /></path><path d="M16.49,47.92c0.28,0.28,0.56,0.51,0.68,0.86c0.96,2.78,2.12,10.44,2.78,15.42" stroke-dasharray="16.792" stroke-dashoffset="16.792"><animate attributeName="stroke-dashoffset" values="16.792" fill="freeze" begin="76b7.click" /><animate attributeName="stroke-dashoffset" values="16.792;16.792;0" keyTimes="0;0.85;1" dur="1.119s" fill="freeze" begin="0s;76b7.click" /></path><path d="M18.22,49.4c6.8-1.16,18.64-2.22,22.15-2.61c1.28-0.14,2.05,1.45,1.87,2.29c-0.76,3.5-1.27,5.99-2.9,11.03" stroke-dasharray="37.081" stroke-dashoffset="37.081"><animate attributeName="stroke-dashoffset" values="37.081" fill="freeze" begin="76b7.click" /><animate attributeName="stroke-dashoffset" values="37.081;37.081;0" keyTimes="0;0.751;1" dur="1.49s" fill="freeze" begin="0s;76b7.click" /></path><path d="M20.22,62.38c4.12-0.44,16.52-1.38,21.75-1.83" stroke-dasharray="21.828" stroke-dashoffset="21.828"><animate attributeName="stroke-dashoffset" values="21.828" fill="freeze" begin="76b7.click" /><animate attributeName="stroke-dashoffset" values="21.828;21.828;0" keyTimes="0;0.872;1" dur="1.708s" fill="freeze" begin="0s;76b7.click" /></path><path d="M16.27,69.36c2.66,2.67,6.88,11,7.54,15.16" stroke-dasharray="17.088" stroke-dashoffset="17.088"><animate attributeName="stroke-dashoffset" values="17.088" fill="freeze" begin="76b7.click" /><animate attributeName="stroke-dashoffset" values="17.088;17.088;0" keyTimes="0;0.909;1" dur="1.879s" fill="freeze" begin="0s;76b7.click" /></path><path d="M40.04,66.89c0.01,0.37,0.03,0.95-0.03,1.47c-0.34,3.11-2.29,9.93-4.95,14.1" stroke-dasharray="16.51" stroke-dashoffset="16.51"><animate attributeName="stroke-dashoffset" values="16.51" fill="freeze" begin="76b7.click" /><animate attributeName="stroke-dashoffset" values="16.51;16.51;0" keyTimes="0;0.919;1" dur="2.044s" fill="freeze" begin="0s;76b7.click" /></path><path d="M11.25,91.53c0.65,1.49,2.21,2.01,4.42,1.27c11.27-3.82,16.06-6.15,26.08-9.55" stroke-dasharray="32.889" stroke-dashoffset="32.889"><animate attributeName="stroke-dashoffset" values="32.889" fill="freeze" begin="76b7.click" /><animate attributeName="stroke-dashoffset" values="32.889;32.889;0" keyTimes="0;0.861;1" dur="2.373s" fill="freeze" begin="0s;76b7.click" /></path><path d="M55.15,28.37c0.59,1.09,1.46,3.07,1.45,5.35C56.48,59.38,54.5,81,43.37,94.63" stroke-dasharray="69.081" stroke-dashoffset="69.081"><animate attributeName="stroke-dashoffset" values="69.081" fill="freeze" begin="76b7.click" /><animate attributeName="stroke-dashoffset" values="69.081;69.081;0" keyTimes="0;0.821;1" dur="2.892s" fill="freeze" begin="0s;76b7.click" /></path><path d="M56.46,31.29c15.04-4.54,27.31-6.09,32.17-6.46c10.87-0.83,1.07,7.1-0.15,7.78" stroke-dasharray="47.01" stroke-dashoffset="47.01"><animate attributeName="stroke-dashoffset" values="47.01" fill="freeze" begin="76b7.click" /><animate attributeName="stroke-dashoffset" values="47.01;47.01;0" keyTimes="0;0.86;1" dur="3.362s" fill="freeze" begin="0s;76b7.click" /></path><path d="M69.46,11.75c1.42,0.5,2.27,2.25,2.55,3.25s-0.1,25-0.1,35.25" stroke-dasharray="39.53" stroke-dashoffset="39.53"><animate attributeName="stroke-dashoffset" values="39.53" fill="freeze" begin="76b7.click" /><animate attributeName="stroke-dashoffset" values="39.53;39.53;0" keyTimes="0;0.895;1" dur="3.757s" fill="freeze" begin="0s;76b7.click" /></path><path d="M59.6,52.35c1.24,0.34,1.52,0.92,4,0.4c5.3-1.1,17.1-3.46,22.38-4.27c1.76-0.27,3.08,2,2.32,3.79C80.46,70.7,69.25,86.75,51.03,96.64" stroke-dasharray="91.315" stroke-dashoffset="91.315"><animate attributeName="stroke-dashoffset" values="91.315" fill="freeze" begin="76b7.click" /><animate attributeName="stroke-dashoffset" values="91.315;91.315;0" keyTimes="0;0.845;1" dur="4.444s" fill="freeze" begin="0s;76b7.click" /></path><path d="M61.03,58.37c3.22,2.38,17.56,24.42,27.95,34.06c1.62,1.51,2.8,2.5,4.3,3" stroke-dasharray="49.402" stroke-dashoffset="49.402"><animate attributeName="stroke-dashoffset" values="49.402" fill="freeze" begin="76b7.click" /><animate attributeName="stroke-dashoffset" values="49.402;49.402;0" keyTimes="0;0.9;1" dur="4.938s" fill="freeze" begin="0s;76b7.click" /></path></g></svg>