<svg xmlns="http://www.w3.org/2000/svg" viewBox="0 0 109 109" id="76e4"><g fill="none" stroke="#666" stroke-width="6" stroke-linecap="round" stroke-linejoin="round"><g><g p4:phon="般" xmlns:p4="http://kanjivg.tagaini.net"><g><path d="M37.49,13.25c0.3,0.92,0.01,1.62-0.5,2.56c-0.94,1.73-2.36,3.94-5.17,7.22" /><path d="M27.38,24.91c0.92,0.92,0.9,2.11,0.96,3.18c0.92,16.15-1.08,32.15-8.77,41.38" /><path d="M28.89,25.6c3.35-0.39,11.53-1.97,15.77-2.64c3.74-0.59,4.73-0.23,4.73,3.41c0,6.28-0.02,34.23-0.02,36.25c0,6.66-4.89,1.33-5.61,0.89" /><path d="M35.32,30.08c1.93,1.3,4.06,3.67,5.52,5.86" /><path d="M37.26,43.22c0.9,1.11,1.09,1.77,1.09,2.66c0,0.6,0,4.95-0.11,8.38c-0.05,1.62-0.13,3.02-0.25,3.73" /><path d="M19,46.13c1.06,1.06,2.28,1.12,3.73,0.66c8.02-2.54,26.9-8.37,30.56-9.61" /></g><g><g><g><path d="M63.3,16.84c0.68,0.68,0.86,1.66,0.86,2.76c0,7.35-1.15,15.4-5.46,19.41" /></g><path d="M65.43,19.22c3.7-0.84,7.81-1.64,10.83-2.38c1.87-0.46,3.01,0.66,2.68,2.93c-0.39,2.68-0.9,6.34-0.9,8.73c0,5.26,0.76,6.94,7.42,6.94c6.63,0,7.99-1.56,7.99-6.91" /></g><g><path d="M62.5,44.41c1.01,0.22,2.14,0.3,4.16-0.03c2.03-0.33,12.21-3.73,13.6-4.06c1.39-0.33,2.52,1.28,1.9,2.43c-6.41,11.82-14.18,18.27-26.33,23.77" /><path d="M59.23,49.81c3.9,0.29,17.14,9.81,27.22,15.03c2.03,1.05,3.79,1.78,6.5,2.37" /></g></g></g><g><path d="M29.83,74.2c0.8,0.8,1.05,1.8,1.21,2.94c0.63,4.6,0.84,8.73,1.36,14.61" /><path d="M31.34,75.49c12.02-1.25,37.99-3.83,45.78-4.3c3.25-0.2,4.38,1.68,3.93,4.66c-0.61,4.07-1.03,8.62-2.05,14.18" /><path d="M45.79,76.02c0.66,0.66,0.91,1.35,0.95,2.47c0.14,4.25,0.27,7,0.37,12.48" /><path d="M62.83,74.25c0.77,0.77,1.01,1.62,0.93,2.76c-0.38,5.36-0.84,10.21-1,13.36" /><path d="M14.63,93.23c2.55,0.96,6.19,0.79,8.87,0.58c15.5-1.19,38.65-2.88,62.63-3.22c3.49-0.05,6.63,0.21,10,0.97" /></g></g></g><g fill="none" stroke="#000" stroke-width="3" stroke-linecap="round" stroke-linejoin="round"><path d="M37.49,13.25c0.3,0.92,0.01,1.62-0.5,2.56c-0.94,1.73-2.36,3.94-5.17,7.22" stroke-dasharray="11.594" stroke-dashoffset="11.594"><animate attributeName="stroke-dashoffset" values="11.594;11.594;0" dur="0.232s" fill="freeze" begin="0s;76e4.click" /></path><path d="M27.38,24.91c0.92,0.92,0.9,2.11,0.96,3.18c0.92,16.15-1.08,32.15-8.77,41.38" stroke-dasharray="46.624" stroke-dashoffset="46.624"><animate attributeName="stroke-dashoffset" values="46.624" fill="freeze" begin="76e4.click" /><animate attributeName="stroke-dashoffset" values="46.624;46.624;0" keyTimes="0;0.332;1" dur="0.698s" fill="freeze" begin="0s;76e4.click" /></path><path d="M28.89,25.6c3.35-0.39,11.53-1.97,15.77-2.64c3.74-0.59,4.73-0.23,4.73,3.41c0,6.28-0.02,34.23-0.02,36.25c0,6.66-4.89,1.33-5.61,0.89" stroke-dasharray="68.508" stroke-dashoffset="68.508"><animate attributeName="stroke-dashoffset" values="68.508" fill="freeze" begin="76e4.click" /><animate attributeName="stroke-dashoffset" values="68.508;68.508;0" keyTimes="0;0.575;1" dur="1.213s" fill="freeze" begin="0s;76e4.click" /></path><path d="M35.32,30.08c1.93,1.3,4.06,3.67,5.52,5.86" stroke-dasharray="8.096" stroke-dashoffset="8.096"><animate attributeName="stroke-dashoffset" values="8.096" fill="freeze" begin="76e4.click" /><animate attributeName="stroke-dashoffset" values="8.096;8.096;0" keyTimes="0;0.882;1" dur="1.375s" fill="freeze" begin="0s;76e4.click" /></path><path d="M37.26,43.22c0.9,1.11,1.09,1.77,1.09,2.66c0,0.6,0,4.95-0.11,8.38c-0.05,1.62-0.13,3.02-0.25,3.73" stroke-dasharray="15.067" stroke-dashoffset="15.067"><animate attributeName="stroke-dashoffset" values="15.067" fill="freeze" begin="76e4.click" /><animate attributeName="stroke-dashoffset" values="15.067;15.067;0" keyTimes="0;0.901;1" dur="1.526s" fill="freeze" begin="0s;76e4.click" /></path><path d="M19,46.13c1.06,1.06,2.28,1.12,3.73,0.66c8.02-2.54,26.9-8.37,30.56-9.61" stroke-dasharray="36.055" stroke-dashoffset="36.055"><animate attributeName="stroke-dashoffset" values="36.055" fill="freeze" begin="76e4.click" /><animate attributeName="stroke-dashoffset" values="36.055;36.055;0" keyTimes="0;0.809;1" dur="1.887s" fill="freeze" begin="0s;76e4.click" /></path><path d="M63.3,16.84c0.68,0.68,0.86,1.66,0.86,2.76c0,7.35-1.15,15.4-5.46,19.41" stroke-dasharray="23.648" stroke-dashoffset="23.648"><animate attributeName="stroke-dashoffset" values="23.648" fill="freeze" begin="76e4.click" /><animate attributeName="stroke-dashoffset" values="23.648;23.648;0" keyTimes="0;0.889;1" dur="2.123s" fill="freeze" begin="0s;76e4.click" /></path><path d="M65.43,19.22c3.7-0.84,7.81-1.64,10.83-2.38c1.87-0.46,3.01,0.66,2.68,2.93c-0.39,2.68-0.9,6.34-0.9,8.73c0,5.26,0.76,6.94,7.42,6.94c6.63,0,7.99-1.56,7.99-6.91" stroke-dasharray="49.683" stroke-dashoffset="49.683"><animate attributeName="stroke-dashoffset" values="49.683" fill="freeze" begin="76e4.click" /><animate attributeName="stroke-dashoffset" values="49.683;49.683;0" keyTimes="0;0.81;1" dur="2.62s" fill="freeze" begin="0s;76e4.click" /></path><path d="M62.5,44.41c1.01,0.22,2.14,0.3,4.16-0.03c2.03-0.33,12.21-3.73,13.6-4.06c1.39-0.33,2.52,1.28,1.9,2.43c-6.41,11.82-14.18,18.27-26.33,23.77" stroke-dasharray="58.412" stroke-dashoffset="58.412"><animate attributeName="stroke-dashoffset" values="58.412" fill="freeze" begin="76e4.click" /><animate attributeName="stroke-dashoffset" values="58.412;58.412;0" keyTimes="0;0.818;1" dur="3.204s" fill="freeze" begin="0s;76e4.click" /></path><path d="M59.23,49.81c3.9,0.29,17.14,9.81,27.22,15.03c2.03,1.05,3.79,1.78,6.5,2.37" stroke-dasharray="38.118" stroke-dashoffset="38.118"><animate attributeName="stroke-dashoffset" values="38.118" fill="freeze" begin="76e4.click" /><animate attributeName="stroke-dashoffset" values="38.118;38.118;0" keyTimes="0;0.894;1" dur="3.585s" fill="freeze" begin="0s;76e4.click" /></path><path d="M29.83,74.2c0.8,0.8,1.05,1.8,1.21,2.94c0.63,4.6,0.84,8.73,1.36,14.61" stroke-dasharray="17.917" stroke-dashoffset="17.917"><animate attributeName="stroke-dashoffset" values="17.917" fill="freeze" begin="76e4.click" /><animate attributeName="stroke-dashoffset" values="17.917;17.917;0" keyTimes="0;0.952;1" dur="3.764s" fill="freeze" begin="0s;76e4.click" /></path><path d="M31.34,75.49c12.02-1.25,37.99-3.83,45.78-4.3c3.25-0.2,4.38,1.68,3.93,4.66c-0.61,4.07-1.03,8.62-2.05,14.18" stroke-dasharray="67.669" stroke-dashoffset="67.669"><animate attributeName="stroke-dashoffset" values="67.669" fill="freeze" begin="76e4.click" /><animate attributeName="stroke-dashoffset" values="67.669;67.669;0" keyTimes="0;0.881;1" dur="4.273s" fill="freeze" begin="0s;76e4.click" /></path><path d="M45.79,76.02c0.66,0.66,0.91,1.35,0.95,2.47c0.14,4.25,0.27,7,0.37,12.48" stroke-dasharray="15.208" stroke-dashoffset="15.208"><animate attributeName="stroke-dashoffset" values="15.208" fill="freeze" begin="76e4.click" /><animate attributeName="stroke-dashoffset" values="15.208;15.208;0" keyTimes="0;0.966;1" dur="4.425s" fill="freeze" begin="0s;76e4.click" /></path><path d="M62.83,74.25c0.77,0.77,1.01,1.62,0.93,2.76c-0.38,5.36-0.84,10.21-1,13.36" stroke-dasharray="16.416" stroke-dashoffset="16.416"><animate attributeName="stroke-dashoffset" values="16.416" fill="freeze" begin="76e4.click" /><animate attributeName="stroke-dashoffset" values="16.416;16.416;0" keyTimes="0;0.964;1" dur="4.589s" fill="freeze" begin="0s;76e4.click" /></path><path d="M14.63,93.23c2.55,0.96,6.19,0.79,8.87,0.58c15.5-1.19,38.65-2.88,62.63-3.22c3.49-0.05,6.63,0.21,10,0.97" stroke-dasharray="81.75" stroke-dashoffset="81.75"><animate attributeName="stroke-dashoffset" values="81.75" fill="freeze" begin="76e4.click" /><animate attributeName="stroke-dashoffset" values="81.75;81.75;0" keyTimes="0;0.882;1" dur="5.204s" fill="freeze" begin="0s;76e4.click" /></path></g></svg>