<svg xmlns="http://www.w3.org/2000/svg" width="109" height="109" viewBox="0 0 109 109" id="7726"><g fill="none" stroke="#666" stroke-width="9" stroke-linecap="round" stroke-linejoin="round"><g><g><path d="M12.38,23.08c0.62,0.92,0.78,2.44,0.78,4.23c0,1.79-0.11,56.36,0,58.17" /><path d="M13.7,24.28c1.8-0.02,14.96-1.34,16.6-1.43c1.37-0.07,2.33,1.51,2.33,3.18c0,6.14-0.63,43.6-0.63,57.61" /><path d="M13.67,44.69c4.97-0.47,13.55-1.53,17.58-1.3" /><path d="M13.81,62.27c4.77-0.21,11.44-1.02,18.07-1.09" /><path d="M13.11,82.69c4.9-0.26,12.62-1.42,18.81-1.39" /></g><g><g><g><path d="M53.33,14.87c0.85,0.57,1.36,2.57,1.53,3.72c0.17,1.14-0.06,55.03-0.06,67.33" /><path d="M55.21,45.79c3.51-0.8,7.04-1.04,11.88-1.69c0.87-0.12,1.07-0.27,1.61,0" /></g><path d="M42.21,44.59c0.87,0.59,1.57,2.62,1.57,3.82c0,6.47,0.73,33.98,0.73,42.51" /><path d="M36.99,92.89c0.39,0.86,2.76,1.15,3.74,0.64c11.52-6.03,17.72-9.09,26.57-13.99" /></g><g><path d="M94.73,33c0.14,0.33,0.22,1.28-0.13,1.79c-2.31,3.27-10.22,12.27-17.67,15.61" /><path d="M73.78,13.25c0.78,1.27,0.83,2.11,1.09,3.8c0.26,1.69,0.08,52.81,0.08,64.32c0,11.51,2.2,12.67,11.75,12.67S97.75,92,97.51,81.27" /></g></g></g></g><g fill="none" stroke="#000" stroke-width="5" stroke-linecap="round" stroke-linejoin="round"><g><g><path d="M12.38,23.08c0.62,0.92,0.78,2.44,0.78,4.23c0,1.79-0.11,56.36,0,58.17" stroke-dasharray="62.53" stroke-dashoffset="62.53"><animate id="0" attributeName="stroke-dashoffset" values="62.53;0" dur="0.47s" fill="freeze" begin="0s;7726.click" /></path><path d="M13.7,24.28c1.8-0.02,14.96-1.34,16.6-1.43c1.37-0.07,2.33,1.51,2.33,3.18c0,6.14-0.63,43.6-0.63,57.61" stroke-dasharray="78.66" stroke-dashoffset="78.66"><animate attributeName="stroke-dashoffset" values="78.66" fill="freeze" begin="7726.click" /><animate id="1" attributeName="stroke-dashoffset" values="78.66;0" dur="0.59s" fill="freeze" begin="0.end" /></path><path d="M13.67,44.69c4.97-0.47,13.55-1.53,17.58-1.3" stroke-dasharray="17.64" stroke-dashoffset="17.64"><animate attributeName="stroke-dashoffset" values="17.64" fill="freeze" begin="7726.click" /><animate id="2" attributeName="stroke-dashoffset" values="17.64;0" dur="0.18s" fill="freeze" begin="1.end" /></path><path d="M13.81,62.27c4.77-0.21,11.44-1.02,18.07-1.09" stroke-dasharray="18.11" stroke-dashoffset="18.11"><animate attributeName="stroke-dashoffset" values="18.11" fill="freeze" begin="7726.click" /><animate id="3" attributeName="stroke-dashoffset" values="18.11;0" dur="0.18s" fill="freeze" begin="2.end" /></path><path d="M13.11,82.69c4.9-0.26,12.62-1.42,18.81-1.39" stroke-dasharray="18.87" stroke-dashoffset="18.87"><animate attributeName="stroke-dashoffset" values="18.87" fill="freeze" begin="7726.click" /><animate id="4" attributeName="stroke-dashoffset" values="18.87;0" dur="0.19s" fill="freeze" begin="3.end" /></path></g><g><g><g><path d="M53.33,14.87c0.85,0.57,1.36,2.57,1.53,3.72c0.17,1.14-0.06,55.03-0.06,67.33" stroke-dasharray="71.44" stroke-dashoffset="71.44"><animate attributeName="stroke-dashoffset" values="71.44" fill="freeze" begin="7726.click" /><animate id="5" attributeName="stroke-dashoffset" values="71.44;0" dur="0.54s" fill="freeze" begin="4.end" /></path><path d="M55.21,45.79c3.51-0.8,7.04-1.04,11.88-1.69c0.87-0.12,1.07-0.27,1.61,0" stroke-dasharray="13.65" stroke-dashoffset="13.65"><animate attributeName="stroke-dashoffset" values="13.65" fill="freeze" begin="7726.click" /><animate id="6" attributeName="stroke-dashoffset" values="13.65;0" dur="0.14s" fill="freeze" begin="5.end" /></path></g><path d="M42.21,44.59c0.87,0.59,1.57,2.62,1.57,3.82c0,6.47,0.73,33.98,0.73,42.51" stroke-dasharray="46.76" stroke-dashoffset="46.76"><animate attributeName="stroke-dashoffset" values="46.76" fill="freeze" begin="7726.click" /><animate id="7" attributeName="stroke-dashoffset" values="46.76;0" dur="0.47s" fill="freeze" begin="6.end" /></path><path d="M36.99,92.89c0.39,0.86,2.76,1.15,3.74,0.64c11.52-6.03,17.72-9.09,26.57-13.99" stroke-dasharray="34.07" stroke-dashoffset="34.07"><animate attributeName="stroke-dashoffset" values="34.07" fill="freeze" begin="7726.click" /><animate id="8" attributeName="stroke-dashoffset" values="34.07;0" dur="0.34s" fill="freeze" begin="7.end" /></path></g><g><path d="M94.73,33c0.14,0.33,0.22,1.28-0.13,1.79c-2.31,3.27-10.22,12.27-17.67,15.61" stroke-dasharray="25.64" stroke-dashoffset="25.64"><animate attributeName="stroke-dashoffset" values="25.64" fill="freeze" begin="7726.click" /><animate id="9" attributeName="stroke-dashoffset" values="25.64;0" dur="0.26s" fill="freeze" begin="8.end" /></path><path d="M73.78,13.25c0.78,1.27,0.83,2.11,1.09,3.8c0.26,1.69,0.08,52.81,0.08,64.32c0,11.51,2.2,12.67,11.75,12.67S97.75,92,97.51,81.27" stroke-dasharray="109.78" stroke-dashoffset="109.78"><animate attributeName="stroke-dashoffset" values="109.78" fill="freeze" begin="7726.click" /><animate id="10" attributeName="stroke-dashoffset" values="109.78;0" dur="0.83s" fill="freeze" begin="9.end" /></path></g></g></g></g></svg>