<svg xmlns="http://www.w3.org/2000/svg" viewBox="0 0 109 109" id="77b9"><g fill="none" stroke="#666" stroke-width="6" stroke-linecap="round" stroke-linejoin="round"><g><g><path d="M12.43,21.6c0.31,1.43,0.76,2.52,0.76,4.37c0,1.85-0.1,56.64,0,58.51" /><path d="M13.71,22.33c1.75-0.02,14.52-1.39,16.11-1.47c1.33-0.07,2.26,1.56,2.26,3.28c0,6.34-0.62,45.01-0.62,59.48" /><path d="M13.68,41.88C18.5,41.39,26,40.5,30.74,40.55" /><path d="M13.82,60.53c4.63-0.22,11.43-1.78,17.54-1.6" /><path d="M13.13,81.09c4.75-0.26,12.25-0.95,18.26-0.92" /></g><g><g><path d="M78.64,10.89c0.08,0.28,0.18,0.72-0.17,1.12c-2.09,2.35-16.9,7.09-33.28,10.25" /><path d="M44.41,26.11c2.45,1.69,6.03,5.82,6.65,8.44" /><path d="M60.04,24.52c2.2,1.44,5.69,5.91,6.24,8.14" /><path d="M84.86,20.59c0.02,0.31,0.05,0.8-0.04,1.25c-0.54,2.63-3.65,8.39-7.91,11.92" /></g><g><g><path d="M41.05,36.89c-0.08,3.54-1.62,11.6-2.36,13.77" /><path d="M41.58,39.79c11.68-0.93,35.93-2.93,48.91-3.8c9.77-0.65,1.29,5.66-1.49,7.5" /></g><g><path d="M46.76,50.28c0.18,1.52-1.76,8.22-3.18,10.74" /><path d="M53.76,48.6c4.37,7.92,10.28,13.91,25.11,12.95c3.89-0.25,4.25-2.09,2.12-3.91" /><path d="M64.54,46.4c1.71,3.35,4.21,7.1,5.52,2.32" /><path d="M78.04,45.07c5.03,2.14,9.96,6.68,12.89,10.69" /></g><g><path d="M57.72,61.16c0.04,0.51,0.09,1.3-0.08,2.03c-1.02,4.28-6.88,13.67-14.91,19.42" /><path d="M56.34,71.49c0.27,0.02,1.41,0,2.17-0.07c2.5-0.22,10.74-1.78,14.32-2.48c2.46-0.48,3.51,0.45,2.17,3.39c-3.3,7.25-18,22.17-34.09,27.89" /><path d="M51.75,76.82C58.25,79,78,93.75,87.32,97.47c2.26,0.9,3.97,1.56,6.11,1.87" /></g></g></g></g></g><g fill="none" stroke="#000" stroke-width="3" stroke-linecap="round" stroke-linejoin="round"><path d="M12.43,21.6c0.31,1.43,0.76,2.52,0.76,4.37c0,1.85-0.1,56.64,0,58.51" stroke-dasharray="62.961" stroke-dashoffset="62.961"><animate attributeName="stroke-dashoffset" values="62.961;62.961;0" dur="0.473s" fill="freeze" begin="0s;77b9.click" /></path><path d="M13.71,22.33c1.75-0.02,14.52-1.39,16.11-1.47c1.33-0.07,2.26,1.56,2.26,3.28c0,6.34-0.62,45.01-0.62,59.48" stroke-dasharray="80.079" stroke-dashoffset="80.079"><animate attributeName="stroke-dashoffset" values="80.079" fill="freeze" begin="77b9.click" /><animate attributeName="stroke-dashoffset" values="80.079;80.079;0" keyTimes="0;0.44;1" dur="1.075s" fill="freeze" begin="0s;77b9.click" /></path><path d="M13.68,41.88C18.5,41.39,26,40.5,30.74,40.55" stroke-dasharray="17.121" stroke-dashoffset="17.121"><animate attributeName="stroke-dashoffset" values="17.121" fill="freeze" begin="77b9.click" /><animate attributeName="stroke-dashoffset" values="17.121;17.121;0" keyTimes="0;0.863;1" dur="1.246s" fill="freeze" begin="0s;77b9.click" /></path><path d="M13.82,60.53c4.63-0.22,11.43-1.78,17.54-1.6" stroke-dasharray="17.631" stroke-dashoffset="17.631"><animate attributeName="stroke-dashoffset" values="17.631" fill="freeze" begin="77b9.click" /><animate attributeName="stroke-dashoffset" values="17.631;17.631;0" keyTimes="0;0.876;1" dur="1.422s" fill="freeze" begin="0s;77b9.click" /></path><path d="M13.13,81.09c4.75-0.26,12.25-0.95,18.26-0.92" stroke-dasharray="18.288" stroke-dashoffset="18.288"><animate attributeName="stroke-dashoffset" values="18.288" fill="freeze" begin="77b9.click" /><animate attributeName="stroke-dashoffset" values="18.288;18.288;0" keyTimes="0;0.886;1" dur="1.605s" fill="freeze" begin="0s;77b9.click" /></path><path d="M78.64,10.89c0.08,0.28,0.18,0.72-0.17,1.12c-2.09,2.35-16.9,7.09-33.28,10.25" stroke-dasharray="36.199" stroke-dashoffset="36.199"><animate attributeName="stroke-dashoffset" values="36.199" fill="freeze" begin="77b9.click" /><animate attributeName="stroke-dashoffset" values="36.199;36.199;0" keyTimes="0;0.816;1" dur="1.967s" fill="freeze" begin="0s;77b9.click" /></path><path d="M44.41,26.11c2.45,1.69,6.03,5.82,6.65,8.44" stroke-dasharray="10.906" stroke-dashoffset="10.906"><animate attributeName="stroke-dashoffset" values="10.906" fill="freeze" begin="77b9.click" /><animate attributeName="stroke-dashoffset" values="10.906;10.906;0" keyTimes="0;0.9;1" dur="2.185s" fill="freeze" begin="0s;77b9.click" /></path><path d="M60.04,24.52c2.2,1.44,5.69,5.91,6.24,8.14" stroke-dasharray="10.394" stroke-dashoffset="10.394"><animate attributeName="stroke-dashoffset" values="10.394" fill="freeze" begin="77b9.click" /><animate attributeName="stroke-dashoffset" values="10.394;10.394;0" keyTimes="0;0.913;1" dur="2.393s" fill="freeze" begin="0s;77b9.click" /></path><path d="M84.86,20.59c0.02,0.31,0.05,0.8-0.04,1.25c-0.54,2.63-3.65,8.39-7.91,11.92" stroke-dasharray="15.757" stroke-dashoffset="15.757"><animate attributeName="stroke-dashoffset" values="15.757" fill="freeze" begin="77b9.click" /><animate attributeName="stroke-dashoffset" values="15.757;15.757;0" keyTimes="0;0.938;1" dur="2.551s" fill="freeze" begin="0s;77b9.click" /></path><path d="M41.05,36.89c-0.08,3.54-1.62,11.6-2.36,13.77" stroke-dasharray="13.997" stroke-dashoffset="13.997"><animate attributeName="stroke-dashoffset" values="13.997" fill="freeze" begin="77b9.click" /><animate attributeName="stroke-dashoffset" values="13.997;13.997;0" keyTimes="0;0.901;1" dur="2.831s" fill="freeze" begin="0s;77b9.click" /></path><path d="M41.58,39.79c11.68-0.93,35.93-2.93,48.91-3.8c9.77-0.65,1.29,5.66-1.49,7.5" stroke-dasharray="63.107" stroke-dashoffset="63.107"><animate attributeName="stroke-dashoffset" values="63.107" fill="freeze" begin="77b9.click" /><animate attributeName="stroke-dashoffset" values="63.107;63.107;0" keyTimes="0;0.857;1" dur="3.305s" fill="freeze" begin="0s;77b9.click" /></path><path d="M46.76,50.28c0.18,1.52-1.76,8.22-3.18,10.74" stroke-dasharray="11.27" stroke-dashoffset="11.27"><animate attributeName="stroke-dashoffset" values="11.27" fill="freeze" begin="77b9.click" /><animate attributeName="stroke-dashoffset" values="11.27;11.27;0" keyTimes="0;0.936;1" dur="3.53s" fill="freeze" begin="0s;77b9.click" /></path><path d="M53.76,48.6c4.37,7.92,10.28,13.91,25.11,12.95c3.89-0.25,4.25-2.09,2.12-3.91" stroke-dasharray="37.009" stroke-dashoffset="37.009"><animate attributeName="stroke-dashoffset" values="37.009" fill="freeze" begin="77b9.click" /><animate attributeName="stroke-dashoffset" values="37.009;37.009;0" keyTimes="0;0.905;1" dur="3.9s" fill="freeze" begin="0s;77b9.click" /></path><path d="M64.54,46.4c1.71,3.35,4.21,7.1,5.52,2.32" stroke-dasharray="9.185" stroke-dashoffset="9.185"><animate attributeName="stroke-dashoffset" values="9.185" fill="freeze" begin="77b9.click" /><animate attributeName="stroke-dashoffset" values="9.185;9.185;0" keyTimes="0;0.955;1" dur="4.084s" fill="freeze" begin="0s;77b9.click" /></path><path d="M78.04,45.07c5.03,2.14,9.96,6.68,12.89,10.69" stroke-dasharray="16.927" stroke-dashoffset="16.927"><animate attributeName="stroke-dashoffset" values="16.927" fill="freeze" begin="77b9.click" /><animate attributeName="stroke-dashoffset" values="16.927;16.927;0" keyTimes="0;0.96;1" dur="4.253s" fill="freeze" begin="0s;77b9.click" /></path><path d="M57.72,61.16c0.04,0.51,0.09,1.3-0.08,2.03c-1.02,4.28-6.88,13.67-14.91,19.42" stroke-dasharray="26.894" stroke-dashoffset="26.894"><animate attributeName="stroke-dashoffset" values="26.894" fill="freeze" begin="77b9.click" /><animate attributeName="stroke-dashoffset" values="26.894;26.894;0" keyTimes="0;0.941;1" dur="4.522s" fill="freeze" begin="0s;77b9.click" /></path><path d="M56.34,71.49c0.27,0.02,1.41,0,2.17-0.07c2.5-0.22,10.74-1.78,14.32-2.48c2.46-0.48,3.51,0.45,2.17,3.39c-3.3,7.25-18,22.17-34.09,27.89" stroke-dasharray="67.368" stroke-dashoffset="67.368"><animate attributeName="stroke-dashoffset" values="67.368" fill="freeze" begin="77b9.click" /><animate attributeName="stroke-dashoffset" values="67.368;67.368;0" keyTimes="0;0.899;1" dur="5.029s" fill="freeze" begin="0s;77b9.click" /></path><path d="M51.75,76.82C58.25,79,78,93.75,87.32,97.47c2.26,0.9,3.97,1.56,6.11,1.87" stroke-dasharray="47.591" stroke-dashoffset="47.591"><animate attributeName="stroke-dashoffset" values="47.591" fill="freeze" begin="77b9.click" /><animate attributeName="stroke-dashoffset" values="47.591;47.591;0" keyTimes="0;0.914;1" dur="5.505s" fill="freeze" begin="0s;77b9.click" /></path></g></svg>