<svg xmlns="http://www.w3.org/2000/svg" width="109" height="109" viewBox="0 0 109 109" id="77da"><g fill="none" stroke="#666" stroke-width="9" stroke-linecap="round" stroke-linejoin="round"><g><g><path d="M13.64,18.57c0.61,0.93,1.03,2.4,1.03,4.16c0,1.77-0.04,58.97,0,60.75" /><path d="M14.74,21.26c1.62-0.02,12.5-1.64,13.96-1.9c1.97-0.35,3.1,0.99,3.1,2.63c0,6.04-0.57,46.89-0.57,60.68" /><path d="M14.71,39.62c4.48-0.32,12.21-1.2,15.85-1.04" /><path d="M14.84,57.95c4.3-0.14,10.54-1.16,16.29-0.9" /><path d="M15.71,80.22c4.02-0.14,10.36-1,15.45-0.99" /></g><g><g><path d="M43.38,13.61c1.59,0.67,3.44,0.85,5.15,0.78c10.86-0.45,36.91-1.59,40.59-2c2.43-0.28,3.02,1.05,2.53,3.52c-0.62,3.12-1.31,5.41-2.15,9.13" /><path d="M47.12,26.69c5.11,0,40.58-1.7,44.88-1.7" /><path d="M46.21,14.79c-0.13,4.45-0.21,15.71-0.19,20.5C46.17,59.35,42,79.5,30.48,93.93" /></g><path d="M70.74,28.52c0.07,0.72,0.11,1.56,0.05,3.93c-0.3,11.39-0.21,7.19-0.33,11.07" /><g><path d="M53.08,33.54c0.25,0.15,0.7,0.08,0.94,0.13c2.46,0.53,9.68-1.21,11.2-1.06c0.41,0.04,0.65,0.06,0.85,0.12" /><path d="M51.97,40.67c0.28,0.14,0.78,0.07,1.04,0.13c2.73,0.51,10.8-1.1,12.48-0.96c0.45,0.03,0.73,0.06,0.96,0.13" /></g><g><path d="M78.4,32.25c0.26,0.08,0.74,0.02,1,0.04c2.63,0.21,10.31-1.11,11.93-1.08c0.43,0.01,0.7,0.01,0.91,0.04" /><path d="M78.56,39.59c0.32,0.14,0.89,0.06,1.2,0.12c3.14,0.48,12.38-1.34,14.32-1.23c0.52,0.04,0.83,0.05,1.1,0.11" /></g><g><g><path d="M52.35,47.74c0.19,0.24,0.4,0.43,0.48,0.71c0.64,2.27,2.73,7.83,3.09,11.89" /><path d="M53.54,50.08c4.46-0.65,35.05-2.83,37.42-3.02c0.86-0.07,2.01,0.73,1.74,1.85c-0.55,2.32-1.84,6.42-3.23,9.71" /><path d="M65.93,49.37c0.1,1.27,0.24,5.57,0.81,8.86" /><path d="M78.59,48.15c-0.2,2.2-1.02,7.92-1.34,9.26" /><path d="M56.6,59.14c2.82-0.25,29.82-2.03,33.69-2.44" /></g><g><g><g><path d="M60.42,61.75c0.03,0.36,0.06,0.93-0.12,1.45c-1.09,3.03-7,9.58-14.95,13.47" /></g><path d="M59.75,67.56c0.85,0.43,2.02,0.5,3.41,0.37c5-0.49,23.33-3.3,26.76-3.33c3.42-0.04,3.91,1.44,3.46,4.25C92.21,76.27,91,86,85.34,97.39c-1.85,4.96-3.48,0.9-5.45-0.83" /></g><g><g><g><path d="M53.88,74.44c0.4,0.22,0.91,1.04,0.98,1.32c0.5,2.04,0.86,5.05,1.54,8.91" /><path d="M55.56,75.26c6.33-0.22,17.78-2.07,22.34-2.34c1.2-0.07,2.58,0.97,2.34,1.57c-0.82,2.06-0.98,3.14-2.33,6.55" /><path d="M56.69,83.22c5.1-0.26,14.81-1.75,21.94-1.92" /></g><g><path d="M66.07,69.37c0.19,0.65,0.3,1.98,0.28,2.61c-0.09,3.1-0.61,12.52-0.61,17.57" /></g></g><path d="M50.96,91.91c0.63,0.27,1.02,0.63,1.64,0.53c0.62-0.1,21.33-4.16,25.17-4.9" /><path d="M74.5,84.64c1.7,1.21,4.34,4.93,4.73,6.76" /></g></g></g></g></g></g><g fill="none" stroke="#000" stroke-width="5" stroke-linecap="round" stroke-linejoin="round"><g><g><path d="M13.64,18.57c0.61,0.93,1.03,2.4,1.03,4.16c0,1.77-0.04,58.97,0,60.75" stroke-dasharray="65.09" stroke-dashoffset="65.09"><animate id="0" attributeName="stroke-dashoffset" values="65.09;0" dur="0.49s" fill="freeze" begin="0s;77da.click" /></path><path d="M14.74,21.26c1.62-0.02,12.5-1.64,13.96-1.9c1.97-0.35,3.1,0.99,3.1,2.63c0,6.04-0.57,46.89-0.57,60.68" stroke-dasharray="79.5" stroke-dashoffset="79.5"><animate attributeName="stroke-dashoffset" values="79.5" fill="freeze" begin="77da.click" /><animate id="1" attributeName="stroke-dashoffset" values="79.5;0" dur="0.6s" fill="freeze" begin="0.end" /></path><path d="M14.71,39.62c4.48-0.32,12.21-1.2,15.85-1.04" stroke-dasharray="15.89" stroke-dashoffset="15.89"><animate attributeName="stroke-dashoffset" values="15.89" fill="freeze" begin="77da.click" /><animate id="2" attributeName="stroke-dashoffset" values="15.89;0" dur="0.16s" fill="freeze" begin="1.end" /></path><path d="M14.84,57.95c4.3-0.14,10.54-1.16,16.29-0.9" stroke-dasharray="16.33" stroke-dashoffset="16.33"><animate attributeName="stroke-dashoffset" values="16.33" fill="freeze" begin="77da.click" /><animate id="3" attributeName="stroke-dashoffset" values="16.33;0" dur="0.16s" fill="freeze" begin="2.end" /></path><path d="M15.71,80.22c4.02-0.14,10.36-1,15.45-0.99" stroke-dasharray="15.49" stroke-dashoffset="15.49"><animate attributeName="stroke-dashoffset" values="15.49" fill="freeze" begin="77da.click" /><animate id="4" attributeName="stroke-dashoffset" values="15.49;0" dur="0.15s" fill="freeze" begin="3.end" /></path></g><g><g><path d="M43.38,13.61c1.59,0.67,3.44,0.85,5.15,0.78c10.86-0.45,36.91-1.59,40.59-2c2.43-0.28,3.02,1.05,2.53,3.52c-0.62,3.12-1.31,5.41-2.15,9.13" stroke-dasharray="60.74" stroke-dashoffset="60.74"><animate attributeName="stroke-dashoffset" values="60.74" fill="freeze" begin="77da.click" /><animate id="5" attributeName="stroke-dashoffset" values="60.74;0" dur="0.46s" fill="freeze" begin="4.end" /></path><path d="M47.12,26.69c5.11,0,40.58-1.7,44.88-1.7" stroke-dasharray="44.91" stroke-dashoffset="44.91"><animate attributeName="stroke-dashoffset" values="44.91" fill="freeze" begin="77da.click" /><animate id="6" attributeName="stroke-dashoffset" values="44.91;0" dur="0.45s" fill="freeze" begin="5.end" /></path><path d="M46.21,14.79c-0.13,4.45-0.21,15.71-0.19,20.5C46.17,59.35,42,79.5,30.48,93.93" stroke-dasharray="82.35" stroke-dashoffset="82.35"><animate attributeName="stroke-dashoffset" values="82.35" fill="freeze" begin="77da.click" /><animate id="7" attributeName="stroke-dashoffset" values="82.35;0" dur="0.62s" fill="freeze" begin="6.end" /></path></g><path d="M70.74,28.52c0.07,0.72,0.11,1.56,0.05,3.93c-0.3,11.39-0.21,7.19-0.33,11.07" stroke-dasharray="15.01" stroke-dashoffset="15.01"><animate attributeName="stroke-dashoffset" values="15.01" fill="freeze" begin="77da.click" /><animate id="8" attributeName="stroke-dashoffset" values="15.01;0" dur="0.15s" fill="freeze" begin="7.end" /></path><g><path d="M53.08,33.54c0.25,0.15,0.7,0.08,0.94,0.13c2.46,0.53,9.68-1.21,11.2-1.06c0.41,0.04,0.65,0.06,0.85,0.12" stroke-dasharray="13.1" stroke-dashoffset="13.1"><animate attributeName="stroke-dashoffset" values="13.1" fill="freeze" begin="77da.click" /><animate id="9" attributeName="stroke-dashoffset" values="13.1;0" dur="0.13s" fill="freeze" begin="8.end" /></path><path d="M51.97,40.67c0.28,0.14,0.78,0.07,1.04,0.13c2.73,0.51,10.8-1.1,12.48-0.96c0.45,0.03,0.73,0.06,0.96,0.13" stroke-dasharray="14.57" stroke-dashoffset="14.57"><animate attributeName="stroke-dashoffset" values="14.57" fill="freeze" begin="77da.click" /><animate id="10" attributeName="stroke-dashoffset" values="14.57;0" dur="0.15s" fill="freeze" begin="9.end" /></path></g><g><path d="M78.4,32.25c0.26,0.08,0.74,0.02,1,0.04c2.63,0.21,10.31-1.11,11.93-1.08c0.43,0.01,0.7,0.01,0.91,0.04" stroke-dasharray="13.91" stroke-dashoffset="13.91"><animate attributeName="stroke-dashoffset" values="13.91" fill="freeze" begin="77da.click" /><animate id="11" attributeName="stroke-dashoffset" values="13.91;0" dur="0.14s" fill="freeze" begin="10.end" /></path><path d="M78.56,39.59c0.32,0.14,0.89,0.06,1.2,0.12c3.14,0.48,12.38-1.34,14.32-1.23c0.52,0.04,0.83,0.05,1.1,0.11" stroke-dasharray="16.72" stroke-dashoffset="16.72"><animate attributeName="stroke-dashoffset" values="16.72" fill="freeze" begin="77da.click" /><animate id="12" attributeName="stroke-dashoffset" values="16.72;0" dur="0.17s" fill="freeze" begin="11.end" /></path></g><g><g><path d="M52.35,47.74c0.19,0.24,0.4,0.43,0.48,0.71c0.64,2.27,2.73,7.83,3.09,11.89" stroke-dasharray="13.17" stroke-dashoffset="13.17"><animate attributeName="stroke-dashoffset" values="13.17" fill="freeze" begin="77da.click" /><animate id="13" attributeName="stroke-dashoffset" values="13.17;0" dur="0.13s" fill="freeze" begin="12.end" /></path><path d="M53.54,50.08c4.46-0.65,35.05-2.83,37.42-3.02c0.86-0.07,2.01,0.73,1.74,1.85c-0.55,2.32-1.84,6.42-3.23,9.71" stroke-dasharray="50.72" stroke-dashoffset="50.72"><animate attributeName="stroke-dashoffset" values="50.72" fill="freeze" begin="77da.click" /><animate id="14" attributeName="stroke-dashoffset" values="50.72;0" dur="0.51s" fill="freeze" begin="13.end" /></path><path d="M65.93,49.37c0.1,1.27,0.24,5.57,0.81,8.86" stroke-dasharray="8.9" stroke-dashoffset="8.9"><animate attributeName="stroke-dashoffset" values="8.9" fill="freeze" begin="77da.click" /><animate id="15" attributeName="stroke-dashoffset" values="8.9;0" dur="0.09s" fill="freeze" begin="14.end" /></path><path d="M78.59,48.15c-0.2,2.2-1.02,7.92-1.34,9.26" stroke-dasharray="9.36" stroke-dashoffset="9.36"><animate attributeName="stroke-dashoffset" values="9.36" fill="freeze" begin="77da.click" /><animate id="16" attributeName="stroke-dashoffset" values="9.36;0" dur="0.09s" fill="freeze" begin="15.end" /></path><path d="M56.6,59.14c2.82-0.25,29.82-2.03,33.69-2.44" stroke-dasharray="33.78" stroke-dashoffset="33.78"><animate attributeName="stroke-dashoffset" values="33.78" fill="freeze" begin="77da.click" /><animate id="17" attributeName="stroke-dashoffset" values="33.78;0" dur="0.34s" fill="freeze" begin="16.end" /></path></g><g><g><g><path d="M60.42,61.75c0.03,0.36,0.06,0.93-0.12,1.45c-1.09,3.03-7,9.58-14.95,13.47" stroke-dasharray="21.92" stroke-dashoffset="21.92"><animate attributeName="stroke-dashoffset" values="21.92" fill="freeze" begin="77da.click" /><animate id="18" attributeName="stroke-dashoffset" values="21.92;0" dur="0.22s" fill="freeze" begin="17.end" /></path></g><path d="M59.75,67.56c0.85,0.43,2.02,0.5,3.41,0.37c5-0.49,23.33-3.3,26.76-3.33c3.42-0.04,3.91,1.44,3.46,4.25C92.21,76.27,91,86,85.34,97.39c-1.85,4.96-3.48,0.9-5.45-0.83" stroke-dasharray="75.09" stroke-dashoffset="75.09"><animate attributeName="stroke-dashoffset" values="75.09" fill="freeze" begin="77da.click" /><animate id="19" attributeName="stroke-dashoffset" values="75.09;0" dur="0.56s" fill="freeze" begin="18.end" /></path></g><g><g><g><path d="M53.88,74.44c0.4,0.22,0.91,1.04,0.98,1.32c0.5,2.04,0.86,5.05,1.54,8.91" stroke-dasharray="10.71" stroke-dashoffset="10.71"><animate attributeName="stroke-dashoffset" values="10.71" fill="freeze" begin="77da.click" /><animate id="20" attributeName="stroke-dashoffset" values="10.71;0" dur="0.11s" fill="freeze" begin="19.end" /></path><path d="M55.56,75.26c6.33-0.22,17.78-2.07,22.34-2.34c1.2-0.07,2.58,0.97,2.34,1.57c-0.82,2.06-0.98,3.14-2.33,6.55" stroke-dasharray="32.54" stroke-dashoffset="32.54"><animate attributeName="stroke-dashoffset" values="32.54" fill="freeze" begin="77da.click" /><animate id="21" attributeName="stroke-dashoffset" values="32.54;0" dur="0.33s" fill="freeze" begin="20.end" /></path><path d="M56.69,83.22c5.1-0.26,14.81-1.75,21.94-1.92" stroke-dasharray="22.03" stroke-dashoffset="22.03"><animate attributeName="stroke-dashoffset" values="22.03" fill="freeze" begin="77da.click" /><animate id="22" attributeName="stroke-dashoffset" values="22.03;0" dur="0.22s" fill="freeze" begin="21.end" /></path></g><g><path d="M66.07,69.37c0.19,0.65,0.3,1.98,0.28,2.61c-0.09,3.1-0.61,12.52-0.61,17.57" stroke-dasharray="20.21" stroke-dashoffset="20.21"><animate attributeName="stroke-dashoffset" values="20.21" fill="freeze" begin="77da.click" /><animate id="23" attributeName="stroke-dashoffset" values="20.21;0" dur="0.2s" fill="freeze" begin="22.end" /></path></g></g><path d="M50.96,91.91c0.63,0.27,1.02,0.63,1.64,0.53c0.62-0.1,21.33-4.16,25.17-4.9" stroke-dasharray="27.4" stroke-dashoffset="27.4"><animate attributeName="stroke-dashoffset" values="27.4" fill="freeze" begin="77da.click" /><animate id="24" attributeName="stroke-dashoffset" values="27.4;0" dur="0.27s" fill="freeze" begin="23.end" /></path><path d="M74.5,84.64c1.7,1.21,4.34,4.93,4.73,6.76" stroke-dasharray="8.36" stroke-dashoffset="8.36"><animate attributeName="stroke-dashoffset" values="8.36" fill="freeze" begin="77da.click" /><animate id="25" attributeName="stroke-dashoffset" values="8.36;0" dur="0.08s" fill="freeze" begin="24.end" /></path></g></g></g></g></g></g></svg>