<svg xmlns="http://www.w3.org/2000/svg" width="109" height="109" viewBox="0 0 109 109" id="77f3"><g fill="none" stroke="#666" stroke-width="6" stroke-linecap="round" stroke-linejoin="round"><g><path d="M19.88,26.65c3.2,0.73,6.6,0.59,8.91,0.4c18.28-1.55,33.06-3.55,52.96-4.66c3.87-0.22,6.42-0.02,8.12,0.39" /><path d="M42.42,29.43c0.33,1.45,0.22,2.69-0.15,4.17C39.38,45,30.75,61.62,15,73.5" /><g><path d="M34.5,56.24c0.71,0.64,1.62,2.13,1.75,2.97c0.87,5.49,1.95,14.48,3.14,24.27c0.2,1.68,0.41,3.36,0.6,5.02" /><path d="M35,56.3c12.06-1.23,38.12-3.55,45.33-4.31c3.05-0.32,4.48,2.33,3.94,4.1c-1.56,5.08-3.24,16.32-4.5,24.38" /><path d="M40.83,84.37c7.19-0.52,22.62-1.77,34.17-2.38c2.39-0.13,4.6-0.21,6.5-0.24" /></g></g></g><g fill="none" stroke="#000" stroke-width="3" stroke-linecap="round" stroke-linejoin="round"><path d="M19.88,26.65c3.2,0.73,6.6,0.59,8.91,0.4c18.28-1.55,33.06-3.55,52.96-4.66c3.87-0.22,6.42-0.02,8.12,0.39" stroke-dasharray="70.279" stroke-dashoffset="70.279"><animate attributeName="stroke-dashoffset" values="70.279;70.279;0" dur="0.528s" fill="freeze" begin="0s;77f3.click" /></path><path d="M42.42,29.43c0.33,1.45,0.22,2.69-0.15,4.17C39.38,45,30.75,61.62,15,73.5" stroke-dasharray="53.406" stroke-dashoffset="53.406"><animate attributeName="stroke-dashoffset" values="53.406" fill="freeze" begin="77f3.click" /><animate attributeName="stroke-dashoffset" values="53.406;53.406;0" keyTimes="0;0.497;1" dur="1.062s" fill="freeze" begin="0s;77f3.click" /></path><path d="M34.5,56.24c0.71,0.64,1.62,2.13,1.75,2.97c0.87,5.49,1.95,14.48,3.14,24.27c0.2,1.68,0.41,3.36,0.6,5.02" stroke-dasharray="33.021" stroke-dashoffset="33.021"><animate attributeName="stroke-dashoffset" values="33.021" fill="freeze" begin="77f3.click" /><animate attributeName="stroke-dashoffset" values="33.021;33.021;0" keyTimes="0;0.763;1" dur="1.392s" fill="freeze" begin="0s;77f3.click" /></path><path d="M35,56.3c12.06-1.23,38.12-3.55,45.33-4.31c3.05-0.32,4.48,2.33,3.94,4.1c-1.56,5.08-3.24,16.32-4.5,24.38" stroke-dasharray="77.065" stroke-dashoffset="77.065"><animate attributeName="stroke-dashoffset" values="77.065" fill="freeze" begin="77f3.click" /><animate attributeName="stroke-dashoffset" values="77.065;77.065;0" keyTimes="0;0.706;1" dur="1.971s" fill="freeze" begin="0s;77f3.click" /></path><path d="M40.83,84.37c7.19-0.52,22.62-1.77,34.17-2.38c2.39-0.13,4.6-0.21,6.5-0.24" stroke-dasharray="40.759" stroke-dashoffset="40.759"><animate attributeName="stroke-dashoffset" values="40.759" fill="freeze" begin="77f3.click" /><animate attributeName="stroke-dashoffset" values="40.759;40.759;0" keyTimes="0;0.828;1" dur="2.379s" fill="freeze" begin="0s;77f3.click" /></path></g></svg>