<svg xmlns="http://www.w3.org/2000/svg" width="109" height="109" viewBox="0 0 109 109" id="7814"><g fill="none" stroke="#666" stroke-width="9" stroke-linecap="round" stroke-linejoin="round"><g><g><path d="M15,27.6c1.9,0.56,3.83,0.35,5.76,0.08c4.66-0.65,13.54-1.85,18.62-2.48c2.04-0.26,3.83-0.31,5.87,0.05" /><path d="M26.03,30.15c0.35,0.85,0.43,2.07,0.17,3.34c-1.58,7.89-6.35,24.16-13.45,34.33" /><g><path d="M22.06,54.26c1.09,1.09,1.25,2.13,1.4,3.62c0.48,4.96,1.01,12.05,1.75,20c0.11,1.14,0.22,2.29,0.33,3.46" /><path d="M24.23,55.9c5.01-0.91,11.75-2.58,16.02-3.29c2.72-0.45,3.82,1.03,3.34,3.83C42.87,60.6,42,64.25,41,73" /><path d="M26.25,76c3.38-0.5,8.87-1.69,13.89-2.39c1.36-0.19,2.6-0.32,3.61-0.36" /></g></g><g p4:partial p4:phon="幵" xmlns:p4="http://kanjivg.tagaini.net"><g><path d="M52,20.89c2.25,0.61,4.46,0.37,6.38,0.18c6.76-0.67,19.24-2.07,27.87-2.91c1.83-0.18,3.71-0.09,5.5,0.35" /><g><path d="M48.5,47.64c3.25,0.36,4.86,0.49,7.5,0.21c9.25-0.97,26.75-2.72,36.25-3.38c2.31-0.16,4.73-0.26,7,0.29" /><path d="M61.5,23.5c0.94,0.94,1.45,2.25,1.5,3.75c1.12,33.75-2.38,52.62-14.75,63.5" /></g></g><g p4:partial><g p4:partial><path d="M80.65,21.25c0.9,0.9,1.2,2.4,1.2,3.59c0,0.97,0,49.78,0,64.63c0,2.16,0,5.1,0,5.78" /></g></g></g></g></g><g fill="none" stroke="#000" stroke-width="5" stroke-linecap="round" stroke-linejoin="round"><g><g><path d="M15,27.6c1.9,0.56,3.83,0.35,5.76,0.08c4.66-0.65,13.54-1.85,18.62-2.48c2.04-0.26,3.83-0.31,5.87,0.05" stroke-dasharray="30.49" stroke-dashoffset="30.49"><animate id="0" attributeName="stroke-dashoffset" values="30.49;0" dur="0.3s" fill="freeze" begin="0s;7814.click" /></path><path d="M26.03,30.15c0.35,0.85,0.43,2.07,0.17,3.34c-1.58,7.89-6.35,24.16-13.45,34.33" stroke-dasharray="40.47" stroke-dashoffset="40.47"><animate attributeName="stroke-dashoffset" values="40.47" fill="freeze" begin="7814.click" /><animate id="1" attributeName="stroke-dashoffset" values="40.47;0" dur="0.4s" fill="freeze" begin="0.end" /></path><g><path d="M22.06,54.26c1.09,1.09,1.25,2.13,1.4,3.62c0.48,4.96,1.01,12.05,1.75,20c0.11,1.14,0.22,2.29,0.33,3.46" stroke-dasharray="27.53" stroke-dashoffset="27.53"><animate attributeName="stroke-dashoffset" values="27.53" fill="freeze" begin="7814.click" /><animate id="2" attributeName="stroke-dashoffset" values="27.53;0" dur="0.28s" fill="freeze" begin="1.end" /></path><path d="M24.23,55.9c5.01-0.91,11.75-2.58,16.02-3.29c2.72-0.45,3.82,1.03,3.34,3.83C42.87,60.6,42,64.25,41,73" stroke-dasharray="39.48" stroke-dashoffset="39.48"><animate attributeName="stroke-dashoffset" values="39.48" fill="freeze" begin="7814.click" /><animate id="3" attributeName="stroke-dashoffset" values="39.48;0" dur="0.39s" fill="freeze" begin="2.end" /></path><path d="M26.25,76c3.38-0.5,8.87-1.69,13.89-2.39c1.36-0.19,2.6-0.32,3.61-0.36" stroke-dasharray="17.72" stroke-dashoffset="17.72"><animate attributeName="stroke-dashoffset" values="17.72" fill="freeze" begin="7814.click" /><animate id="4" attributeName="stroke-dashoffset" values="17.72;0" dur="0.18s" fill="freeze" begin="3.end" /></path></g></g><g p4:partial p4:phon="幵" xmlns:p4="http://kanjivg.tagaini.net"><g><path d="M52,20.89c2.25,0.61,4.46,0.37,6.38,0.18c6.76-0.67,19.24-2.07,27.87-2.91c1.83-0.18,3.71-0.09,5.5,0.35" stroke-dasharray="39.98" stroke-dashoffset="39.98"><animate attributeName="stroke-dashoffset" values="39.98" fill="freeze" begin="7814.click" /><animate id="5" attributeName="stroke-dashoffset" values="39.98;0" dur="0.4s" fill="freeze" begin="4.end" /></path><g><path d="M48.5,47.64c3.25,0.36,4.86,0.49,7.5,0.21c9.25-0.97,26.75-2.72,36.25-3.38c2.31-0.16,4.73-0.26,7,0.29" stroke-dasharray="50.96" stroke-dashoffset="50.96"><animate attributeName="stroke-dashoffset" values="50.96" fill="freeze" begin="7814.click" /><animate id="6" attributeName="stroke-dashoffset" values="50.96;0" dur="0.51s" fill="freeze" begin="5.end" /></path><path d="M61.5,23.5c0.94,0.94,1.45,2.25,1.5,3.75c1.12,33.75-2.38,52.62-14.75,63.5" stroke-dasharray="71.39" stroke-dashoffset="71.39"><animate attributeName="stroke-dashoffset" values="71.39" fill="freeze" begin="7814.click" /><animate id="7" attributeName="stroke-dashoffset" values="71.39;0" dur="0.54s" fill="freeze" begin="6.end" /></path></g></g><g p4:partial><g p4:partial><path d="M80.65,21.25c0.9,0.9,1.2,2.4,1.2,3.59c0,0.97,0,49.78,0,64.63c0,2.16,0,5.1,0,5.78" stroke-dasharray="74.29" stroke-dashoffset="74.29"><animate attributeName="stroke-dashoffset" values="74.29" fill="freeze" begin="7814.click" /><animate id="8" attributeName="stroke-dashoffset" values="74.29;0" dur="0.56s" fill="freeze" begin="7.end" /></path></g></g></g></g></g></svg>