<svg xmlns="http://www.w3.org/2000/svg" width="109" height="109" viewBox="0 0 109 109" id="7820"><g fill="none" stroke="#666" stroke-width="9" stroke-linecap="round" stroke-linejoin="round"><g><g><path d="M13.05,24.83c0.67,0.17,1.9,0.22,2.55,0.17c8.35-0.58,15.7-1.32,26.86-2.33c1.11-0.1,1.78,0.08,2.33,0.16" /><path d="M24.29,27.12c0.04,1.01,0.09,2.61-0.08,4.04C23.23,39.7,17.54,58.4,9.76,69.87" /><g><path d="M19.5,53.7c0.2,0.52,0.4,0.96,0.48,1.61c0.68,5.18,2.01,19.96,2.48,29.27" /><path d="M20.23,55.92c8.52-1.42,15.95-2.47,19.53-3.21c1.31-0.27,2.09,1.6,1.9,3.18c-0.77,6.56-2.28,14.49-3.43,23.55" /><path d="M22.76,81.12c5.44-0.77,10.88-0.96,18.02-1.93" /></g></g><g><g><path d="M53.4,14.62c0.7,1.08,1.17,2.14,1.41,3.19c0.23,1.05,0.52,71.8,0.43,74.13" /><path d="M55.72,17.14c2.9-0.11,22.16-2.9,24.29-3.23c2.11-0.33,3.88,1.43,3.88,3.58c0,1.52-0.23,50.72-0.37,71.38" /><path d="M55.82,42.24c10.13-1.02,18.19-1.47,27.09-1.79" /><path d="M56.42,65c7.91-0.37,16.71-1.79,25.86-1.84" /></g><g><path d="M38.04,94.06c1.49,0.44,4.22,0.51,5.71,0.44c15.51-0.73,22.62-3.84,51.16-3.96c2.48-0.01,3.97,0.21,5.22,0.43" /></g></g></g></g><g fill="none" stroke="#000" stroke-width="5" stroke-linecap="round" stroke-linejoin="round"><g><g><path d="M13.05,24.83c0.67,0.17,1.9,0.22,2.55,0.17c8.35-0.58,15.7-1.32,26.86-2.33c1.11-0.1,1.78,0.08,2.33,0.16" stroke-dasharray="31.87" stroke-dashoffset="31.87"><animate id="0" attributeName="stroke-dashoffset" values="31.87;0" dur="0.32s" fill="freeze" begin="0s;7820.click" /></path><path d="M24.29,27.12c0.04,1.01,0.09,2.61-0.08,4.04C23.23,39.7,17.54,58.4,9.76,69.87" stroke-dasharray="45.65" stroke-dashoffset="45.65"><animate attributeName="stroke-dashoffset" values="45.65" fill="freeze" begin="7820.click" /><animate id="1" attributeName="stroke-dashoffset" values="45.65;0" dur="0.46s" fill="freeze" begin="0.end" /></path><g><path d="M19.5,53.7c0.2,0.52,0.4,0.96,0.48,1.61c0.68,5.18,2.01,19.96,2.48,29.27" stroke-dasharray="31.06" stroke-dashoffset="31.06"><animate attributeName="stroke-dashoffset" values="31.06" fill="freeze" begin="7820.click" /><animate id="2" attributeName="stroke-dashoffset" values="31.06;0" dur="0.31s" fill="freeze" begin="1.end" /></path><path d="M20.23,55.92c8.52-1.42,15.95-2.47,19.53-3.21c1.31-0.27,2.09,1.6,1.9,3.18c-0.77,6.56-2.28,14.49-3.43,23.55" stroke-dasharray="47.84" stroke-dashoffset="47.84"><animate attributeName="stroke-dashoffset" values="47.84" fill="freeze" begin="7820.click" /><animate id="3" attributeName="stroke-dashoffset" values="47.84;0" dur="0.48s" fill="freeze" begin="2.end" /></path><path d="M22.76,81.12c5.44-0.77,10.88-0.96,18.02-1.93" stroke-dasharray="18.12" stroke-dashoffset="18.12"><animate attributeName="stroke-dashoffset" values="18.12" fill="freeze" begin="7820.click" /><animate id="4" attributeName="stroke-dashoffset" values="18.12;0" dur="0.18s" fill="freeze" begin="3.end" /></path></g></g><g><g><path d="M53.4,14.62c0.7,1.08,1.17,2.14,1.41,3.19c0.23,1.05,0.52,71.8,0.43,74.13" stroke-dasharray="77.64" stroke-dashoffset="77.64"><animate attributeName="stroke-dashoffset" values="77.64" fill="freeze" begin="7820.click" /><animate id="5" attributeName="stroke-dashoffset" values="77.64;0" dur="0.58s" fill="freeze" begin="4.end" /></path><path d="M55.72,17.14c2.9-0.11,22.16-2.9,24.29-3.23c2.11-0.33,3.88,1.43,3.88,3.58c0,1.52-0.23,50.72-0.37,71.38" stroke-dasharray="101.89" stroke-dashoffset="101.89"><animate attributeName="stroke-dashoffset" values="101.89" fill="freeze" begin="7820.click" /><animate id="6" attributeName="stroke-dashoffset" values="101.89;0" dur="0.77s" fill="freeze" begin="5.end" /></path><path d="M55.82,42.24c10.13-1.02,18.19-1.47,27.09-1.79" stroke-dasharray="27.15" stroke-dashoffset="27.15"><animate attributeName="stroke-dashoffset" values="27.15" fill="freeze" begin="7820.click" /><animate id="7" attributeName="stroke-dashoffset" values="27.15;0" dur="0.27s" fill="freeze" begin="6.end" /></path><path d="M56.42,65c7.91-0.37,16.71-1.79,25.86-1.84" stroke-dasharray="25.93" stroke-dashoffset="25.93"><animate attributeName="stroke-dashoffset" values="25.93" fill="freeze" begin="7820.click" /><animate id="8" attributeName="stroke-dashoffset" values="25.93;0" dur="0.26s" fill="freeze" begin="7.end" /></path></g><g><path d="M38.04,94.06c1.49,0.44,4.22,0.51,5.71,0.44c15.51-0.73,22.62-3.84,51.16-3.96c2.48-0.01,3.97,0.21,5.22,0.43" stroke-dasharray="62.35" stroke-dashoffset="62.35"><animate attributeName="stroke-dashoffset" values="62.35" fill="freeze" begin="7820.click" /><animate id="9" attributeName="stroke-dashoffset" values="62.35;0" dur="0.47s" fill="freeze" begin="8.end" /></path></g></g></g></g></svg>