<svg xmlns="http://www.w3.org/2000/svg" width="109" height="109" viewBox="0 0 109 109" id="7827"><g fill="none" stroke="#666" stroke-width="9" stroke-linecap="round" stroke-linejoin="round"><g><g><path d="M13.95,28.01c2.06,0.26,4.13,0.32,6.2,0.07c6.98-0.83,12.38-1.79,20.98-2.83c1.78-0.39,3.57-0.43,5.36-0.12" /><path d="M27.43,30.3c0.32,1.08,0.18,1.67-0.1,2.98C25,44.25,20.25,56,10.14,69.53" /><g><path d="M20.63,56.07c0.63,0.84,0.94,1.77,0.95,2.79c0.75,5.89,1.67,13.86,2.39,21.25c0.27,2.76,0.52,5.43,0.72,7.89" /><path d="M22.16,56.71c8.59-1.33,13.99-2.07,17.97-2.7c2.64-0.42,3.41,1.84,3.14,4.11c-0.73,6.08-1.87,15.47-2.99,22.71" /><path d="M25.59,83.88c5.73-0.58,8.38-1.09,12.68-1.62c1.26-0.16,2.66-0.31,4.33-0.48" /></g></g><g><g><path d="M69.06,14.13c1.09,1.09,1.51,3.37,1.51,5c0,0.91,0,30.87,0,44" /><path d="M71.75,38.38c7.3-1.16,13.71-2.42,17.22-3.03c1.98-0.43,3.99-0.49,6.03-0.17" /></g><g><path d="M52.41,64.82c0.83,0.92,1.15,1.69,1.3,2.82c1.12,8.23,1.95,13.78,2.78,19.88c0.32,2.32,0.63,4.73,0.96,7.39" /><path d="M54.21,65.92c10.68-1.35,29.01-3.02,35.29-3.81c2.33-0.3,4.11,1.64,3.69,4.11c-1.11,6.46-2.74,15.36-4.27,23.55" /><path d="M57.86,92.95c6.01-0.36,17.51-1.31,27.03-1.86c2.58-0.15,5.01-0.26,7.15-0.33" /></g></g></g></g><g fill="none" stroke="#000" stroke-width="5" stroke-linecap="round" stroke-linejoin="round"><path d="M13.95,28.01c2.06,0.26,4.13,0.32,6.2,0.07c6.98-0.83,12.38-1.79,20.98-2.83c1.78-0.39,3.57-0.43,5.36-0.12" stroke-dasharray="32.783" stroke-dashoffset="32.783"><animate attributeName="stroke-dashoffset" values="32.783;32.783;0" dur="0.328s" fill="freeze" begin="0s;7827.click" /></path><path d="M27.43,30.3c0.32,1.08,0.18,1.67-0.1,2.98C25,44.25,20.25,56,10.14,69.53" stroke-dasharray="43.472" stroke-dashoffset="43.472"><animate attributeName="stroke-dashoffset" values="43.472" fill="freeze" begin="7827.click" /><animate attributeName="stroke-dashoffset" values="43.472;43.472;0" keyTimes="0;0.43;1" dur="0.763s" fill="freeze" begin="0s;7827.click" /></path><path d="M20.63,56.07c0.63,0.84,0.94,1.77,0.95,2.79c0.75,5.89,1.67,13.86,2.39,21.25c0.27,2.76,0.52,5.43,0.72,7.89" stroke-dasharray="32.308" stroke-dashoffset="32.308"><animate attributeName="stroke-dashoffset" values="32.308" fill="freeze" begin="7827.click" /><animate attributeName="stroke-dashoffset" values="32.308;32.308;0" keyTimes="0;0.703;1" dur="1.086s" fill="freeze" begin="0s;7827.click" /></path><path d="M22.16,56.71c8.59-1.33,13.99-2.07,17.97-2.7c2.64-0.42,3.41,1.84,3.14,4.11c-0.73,6.08-1.87,15.47-2.99,22.71" stroke-dasharray="47.289" stroke-dashoffset="47.289"><animate attributeName="stroke-dashoffset" values="47.289" fill="freeze" begin="7827.click" /><animate attributeName="stroke-dashoffset" values="47.289;47.289;0" keyTimes="0;0.697;1" dur="1.559s" fill="freeze" begin="0s;7827.click" /></path><path d="M25.59,83.88c5.73-0.58,8.38-1.09,12.68-1.62c1.26-0.16,2.66-0.31,4.33-0.48" stroke-dasharray="17.142" stroke-dashoffset="17.142"><animate attributeName="stroke-dashoffset" values="17.142" fill="freeze" begin="7827.click" /><animate attributeName="stroke-dashoffset" values="17.142;17.142;0" keyTimes="0;0.901;1" dur="1.73s" fill="freeze" begin="0s;7827.click" /></path><path d="M69.06,14.13c1.09,1.09,1.51,3.37,1.51,5c0,0.91,0,30.87,0,44" stroke-dasharray="49.337" stroke-dashoffset="49.337"><animate attributeName="stroke-dashoffset" values="49.337" fill="freeze" begin="7827.click" /><animate attributeName="stroke-dashoffset" values="49.337;49.337;0" keyTimes="0;0.778;1" dur="2.223s" fill="freeze" begin="0s;7827.click" /></path><path d="M71.75,38.38c7.3-1.16,13.71-2.42,17.22-3.03c1.98-0.43,3.99-0.49,6.03-0.17" stroke-dasharray="23.553" stroke-dashoffset="23.553"><animate attributeName="stroke-dashoffset" values="23.553" fill="freeze" begin="7827.click" /><animate attributeName="stroke-dashoffset" values="23.553;23.553;0" keyTimes="0;0.904;1" dur="2.459s" fill="freeze" begin="0s;7827.click" /></path><path d="M52.41,64.82c0.83,0.92,1.15,1.69,1.3,2.82c1.12,8.23,1.95,13.78,2.78,19.88c0.32,2.32,0.63,4.73,0.96,7.39" stroke-dasharray="30.689" stroke-dashoffset="30.689"><animate attributeName="stroke-dashoffset" values="30.689" fill="freeze" begin="7827.click" /><animate attributeName="stroke-dashoffset" values="30.689;30.689;0" keyTimes="0;0.889;1" dur="2.766s" fill="freeze" begin="0s;7827.click" /></path><path d="M54.21,65.92c10.68-1.35,29.01-3.02,35.29-3.81c2.33-0.3,4.11,1.64,3.69,4.11c-1.11,6.46-2.74,15.36-4.27,23.55" stroke-dasharray="65.918" stroke-dashoffset="65.918"><animate attributeName="stroke-dashoffset" values="65.918" fill="freeze" begin="7827.click" /><animate attributeName="stroke-dashoffset" values="65.918;65.918;0" keyTimes="0;0.848;1" dur="3.262s" fill="freeze" begin="0s;7827.click" /></path><path d="M57.86,92.95c6.01-0.36,17.51-1.31,27.03-1.86c2.58-0.15,5.01-0.26,7.15-0.33" stroke-dasharray="34.253" stroke-dashoffset="34.253"><animate attributeName="stroke-dashoffset" values="34.253" fill="freeze" begin="7827.click" /><animate attributeName="stroke-dashoffset" values="34.253;34.253;0" keyTimes="0;0.905;1" dur="3.605s" fill="freeze" begin="0s;7827.click" /></path></g></svg>