<svg xmlns="http://www.w3.org/2000/svg" width="109" height="109" viewBox="0 0 109 109" id="7834"><g fill="none" stroke="#666" stroke-width="9" stroke-linecap="round" stroke-linejoin="round"><g><g><path d="M15.64,32.91c1.11,0.34,3.02,0.22,3.86,0.15c5.59-0.5,12.7-1.79,18.52-2.63C39.6,30.2,41.15,30,42.75,30" /><path d="M25.94,35.48c0.31,0.89,0.25,2.3-0.09,3.52C23.5,47.5,18.62,62,10.36,72.73" /><g><path d="M21.14,59.92c0.72,0.72,1.22,1.79,1.41,3.34c0.42,3.43,1.2,8.77,1.75,13.93c0.17,1.62,0.33,3.21,0.44,4.73" /><path d="M22.99,61.08c4.44-0.49,12.76-1.84,17.03-2.32c2.77-0.31,4.06,0.38,3.43,3.39c-0.67,3.23-1.4,6.02-2.9,13.09" /><path d="M25.47,78.19c2.72-0.31,8.46-1.24,13.27-1.79c1.32-0.15,2.51-0.25,3.47-0.28" /></g></g><g p4:phon="皮" xmlns:p4="http://kanjivg.tagaini.net"><path d="M51.75,33.37c0.75,0.75,1.25,2.32,1.28,4.6c0.34,24.16-1.53,41.91-13.16,52.67" /><path d="M53.88,35.26c12.4-2.76,23.62-4.64,33.76-5.43c9.02-0.7,2.1,7.29,0.37,9.28" /><path d="M69.72,12.5c0.95,0.95,1.44,2.25,1.44,3.5c0,1.04-0.11,27-0.11,37.25" /><path d="M59.22,55.67c1.17,0.33,2.44,0.62,4.78,0.13c5.01-1.05,13.35-2.83,18.24-4.07c2.39-0.61,3.66,1.16,2.94,2.86c-7.41,17.58-16.8,31.53-34.06,38.79" /><path d="M59.04,62.37c3.21,0.68,17.17,17.34,28.97,26.38c2.25,1.72,4.6,3.46,7.02,4.94" /></g></g></g><g fill="none" stroke="#000" stroke-width="5" stroke-linecap="round" stroke-linejoin="round"><g><g><path d="M15.64,32.91c1.11,0.34,3.02,0.22,3.86,0.15c5.59-0.5,12.7-1.79,18.52-2.63C39.6,30.2,41.15,30,42.75,30" stroke-dasharray="27.34" stroke-dashoffset="27.34"><animate id="0" attributeName="stroke-dashoffset" values="27.34;0" dur="0.27s" fill="freeze" begin="0s;7834.click" /></path><path d="M25.94,35.48c0.31,0.89,0.25,2.3-0.09,3.52C23.5,47.5,18.62,62,10.36,72.73" stroke-dasharray="40.9" stroke-dashoffset="40.9"><animate attributeName="stroke-dashoffset" values="40.9" fill="freeze" begin="7834.click" /><animate id="1" attributeName="stroke-dashoffset" values="40.9;0" dur="0.41s" fill="freeze" begin="0.end" /></path><g><path d="M21.14,59.92c0.72,0.72,1.22,1.79,1.41,3.34c0.42,3.43,1.2,8.77,1.75,13.93c0.17,1.62,0.33,3.21,0.44,4.73" stroke-dasharray="22.48" stroke-dashoffset="22.48"><animate attributeName="stroke-dashoffset" values="22.48" fill="freeze" begin="7834.click" /><animate id="2" attributeName="stroke-dashoffset" values="22.48;0" dur="0.22s" fill="freeze" begin="1.end" /></path><path d="M22.99,61.08c4.44-0.49,12.76-1.84,17.03-2.32c2.77-0.31,4.06,0.38,3.43,3.39c-0.67,3.23-1.4,6.02-2.9,13.09" stroke-dasharray="36.81" stroke-dashoffset="36.81"><animate attributeName="stroke-dashoffset" values="36.81" fill="freeze" begin="7834.click" /><animate id="3" attributeName="stroke-dashoffset" values="36.81;0" dur="0.37s" fill="freeze" begin="2.end" /></path><path d="M25.47,78.19c2.72-0.31,8.46-1.24,13.27-1.79c1.32-0.15,2.51-0.25,3.47-0.28" stroke-dasharray="16.87" stroke-dashoffset="16.87"><animate attributeName="stroke-dashoffset" values="16.87" fill="freeze" begin="7834.click" /><animate id="4" attributeName="stroke-dashoffset" values="16.87;0" dur="0.17s" fill="freeze" begin="3.end" /></path></g></g><g p4:phon="皮" xmlns:p4="http://kanjivg.tagaini.net"><path d="M51.75,33.37c0.75,0.75,1.25,2.32,1.28,4.6c0.34,24.16-1.53,41.91-13.16,52.67" stroke-dasharray="60.78" stroke-dashoffset="60.78"><animate attributeName="stroke-dashoffset" values="60.78" fill="freeze" begin="7834.click" /><animate id="5" attributeName="stroke-dashoffset" values="60.78;0" dur="0.46s" fill="freeze" begin="4.end" /></path><path d="M53.88,35.26c12.4-2.76,23.62-4.64,33.76-5.43c9.02-0.7,2.1,7.29,0.37,9.28" stroke-dasharray="48.32" stroke-dashoffset="48.32"><animate attributeName="stroke-dashoffset" values="48.32" fill="freeze" begin="7834.click" /><animate id="6" attributeName="stroke-dashoffset" values="48.32;0" dur="0.48s" fill="freeze" begin="5.end" /></path><path d="M69.72,12.5c0.95,0.95,1.44,2.25,1.44,3.5c0,1.04-0.11,27-0.11,37.25" stroke-dasharray="41.13" stroke-dashoffset="41.13"><animate attributeName="stroke-dashoffset" values="41.13" fill="freeze" begin="7834.click" /><animate id="7" attributeName="stroke-dashoffset" values="41.13;0" dur="0.41s" fill="freeze" begin="6.end" /></path><path d="M59.22,55.67c1.17,0.33,2.44,0.62,4.78,0.13c5.01-1.05,13.35-2.83,18.24-4.07c2.39-0.61,3.66,1.16,2.94,2.86c-7.41,17.58-16.8,31.53-34.06,38.79" stroke-dasharray="81.88" stroke-dashoffset="81.88"><animate attributeName="stroke-dashoffset" values="81.88" fill="freeze" begin="7834.click" /><animate id="8" attributeName="stroke-dashoffset" values="81.88;0" dur="0.62s" fill="freeze" begin="7.end" /></path><path d="M59.04,62.37c3.21,0.68,17.17,17.34,28.97,26.38c2.25,1.72,4.6,3.46,7.02,4.94" stroke-dasharray="47.86" stroke-dashoffset="47.86"><animate attributeName="stroke-dashoffset" values="47.86" fill="freeze" begin="7834.click" /><animate id="9" attributeName="stroke-dashoffset" values="47.86;0" dur="0.48s" fill="freeze" begin="8.end" /></path></g></g></g></svg>