<svg xmlns="http://www.w3.org/2000/svg" width="109" height="109" viewBox="0 0 109 109" id="786c"><g fill="none" stroke="#666" stroke-width="9" stroke-linecap="round" stroke-linejoin="round"><g><g><path d="M15.13,25.51c1.32,0.38,3.28,0.35,4.64,0.23c5.9-0.54,11.05-1.68,18.86-2.57c1.54-0.17,3.12-0.33,4.49-0.33" /><path d="M25.96,28.18c0.29,0.95,0.34,2.1,0.17,3.4c-1.02,7.7-7.62,25.33-15.62,35.68" /><g><path d="M21.25,53.14c0.74,0.74,1.03,1.6,1.11,2.59c0.7,3.18,1.2,8.55,1.8,13.5c0.24,1.96,0.46,3.85,0.64,5.52" /><path d="M23.15,54.25c6.11-1.17,12.19-2.29,16.23-2.93c3.2-0.5,4.69-0.05,3.8,3.57c-0.92,3.76-1.69,6.61-3.29,12.64" /><path d="M25.45,70.9c5.18-0.9,8.69-1.54,14.1-2.37c1.04-0.16,2.12-0.32,3.26-0.46" /></g></g><g p4:phon="更" xmlns:p4="http://kanjivg.tagaini.net"><path d="M52.88,20.32c2.62,0.68,5.48,0.5,7.52,0.23c7.02-0.93,16.94-2.16,24.58-2.91c1.31-0.13,3.52-0.39,4.94-0.16" /><g><path d="M50.67,35.04c0.89,0.89,1.38,1.81,1.54,3.09c0.32,2.58,1.66,12.02,2.61,18.23c0.31,2.05,0.58,3.75,0.76,4.74" /><path d="M53.1,36.98c7.15-1.48,22.65-3.98,32.19-4.94c3.53-0.35,5.93,0.4,5.13,4.77c-0.69,3.76-1.78,9.53-3.41,15.7c-0.47,1.78-0.96,3.55-1.47,5.25" /><path d="M54.67,47.12c6.49-1.05,24.71-3.37,33.27-3.94" /><path d="M56.38,58.04c9.99-1.29,16.49-2.04,28.63-2.84" /></g><g><g><path d="M68.94,22.18c0.88,0.88,1.13,2.51,1.14,4.5c0.18,35.83-1.45,55.08-30.46,67.12" /></g><path d="M50.91,66.42c5.34,0,23.03,15.38,32.46,22.41c3.35,2.5,5.63,3.67,9.52,5.46" /></g></g></g></g><g fill="none" stroke="#000" stroke-width="5" stroke-linecap="round" stroke-linejoin="round"><g><g><path d="M15.13,25.51c1.32,0.38,3.28,0.35,4.64,0.23c5.9-0.54,11.05-1.68,18.86-2.57c1.54-0.17,3.12-0.33,4.49-0.33" stroke-dasharray="28.21" stroke-dashoffset="28.21"><animate id="0" attributeName="stroke-dashoffset" values="28.21;0" dur="0.28s" fill="freeze" begin="0s;786c.click" /></path><path d="M25.96,28.18c0.29,0.95,0.34,2.1,0.17,3.4c-1.02,7.7-7.62,25.33-15.62,35.68" stroke-dasharray="42.68" stroke-dashoffset="42.68"><animate attributeName="stroke-dashoffset" values="42.68" fill="freeze" begin="786c.click" /><animate id="1" attributeName="stroke-dashoffset" values="42.68;0" dur="0.43s" fill="freeze" begin="0.end" /></path><g><path d="M21.25,53.14c0.74,0.74,1.03,1.6,1.11,2.59c0.7,3.18,1.2,8.55,1.8,13.5c0.24,1.96,0.46,3.85,0.64,5.52" stroke-dasharray="22.06" stroke-dashoffset="22.06"><animate attributeName="stroke-dashoffset" values="22.06" fill="freeze" begin="786c.click" /><animate id="2" attributeName="stroke-dashoffset" values="22.06;0" dur="0.22s" fill="freeze" begin="1.end" /></path><path d="M23.15,54.25c6.11-1.17,12.19-2.29,16.23-2.93c3.2-0.5,4.69-0.05,3.8,3.57c-0.92,3.76-1.69,6.61-3.29,12.64" stroke-dasharray="36.61" stroke-dashoffset="36.61"><animate attributeName="stroke-dashoffset" values="36.61" fill="freeze" begin="786c.click" /><animate id="3" attributeName="stroke-dashoffset" values="36.61;0" dur="0.37s" fill="freeze" begin="2.end" /></path><path d="M25.45,70.9c5.18-0.9,8.69-1.54,14.1-2.37c1.04-0.16,2.12-0.32,3.26-0.46" stroke-dasharray="17.59" stroke-dashoffset="17.59"><animate attributeName="stroke-dashoffset" values="17.59" fill="freeze" begin="786c.click" /><animate id="4" attributeName="stroke-dashoffset" values="17.59;0" dur="0.18s" fill="freeze" begin="3.end" /></path></g></g><g p4:phon="更" xmlns:p4="http://kanjivg.tagaini.net"><path d="M52.88,20.32c2.62,0.68,5.48,0.5,7.52,0.23c7.02-0.93,16.94-2.16,24.58-2.91c1.31-0.13,3.52-0.39,4.94-0.16" stroke-dasharray="37.28" stroke-dashoffset="37.28"><animate attributeName="stroke-dashoffset" values="37.28" fill="freeze" begin="786c.click" /><animate id="5" attributeName="stroke-dashoffset" values="37.28;0" dur="0.37s" fill="freeze" begin="4.end" /></path><g><path d="M50.67,35.04c0.89,0.89,1.38,1.81,1.54,3.09c0.32,2.58,1.66,12.02,2.61,18.23c0.31,2.05,0.58,3.75,0.76,4.74" stroke-dasharray="26.74" stroke-dashoffset="26.74"><animate attributeName="stroke-dashoffset" values="26.74" fill="freeze" begin="786c.click" /><animate id="6" attributeName="stroke-dashoffset" values="26.74;0" dur="0.27s" fill="freeze" begin="5.end" /></path><path d="M53.1,36.98c7.15-1.48,22.65-3.98,32.19-4.94c3.53-0.35,5.93,0.4,5.13,4.77c-0.69,3.76-1.78,9.53-3.41,15.7c-0.47,1.78-0.96,3.55-1.47,5.25" stroke-dasharray="62.92" stroke-dashoffset="62.92"><animate attributeName="stroke-dashoffset" values="62.92" fill="freeze" begin="786c.click" /><animate id="7" attributeName="stroke-dashoffset" values="62.92;0" dur="0.47s" fill="freeze" begin="6.end" /></path><path d="M54.67,47.12c6.49-1.05,24.71-3.37,33.27-3.94" stroke-dasharray="33.51" stroke-dashoffset="33.51"><animate attributeName="stroke-dashoffset" values="33.51" fill="freeze" begin="786c.click" /><animate id="8" attributeName="stroke-dashoffset" values="33.51;0" dur="0.34s" fill="freeze" begin="7.end" /></path><path d="M56.38,58.04c9.99-1.29,16.49-2.04,28.63-2.84" stroke-dasharray="28.78" stroke-dashoffset="28.78"><animate attributeName="stroke-dashoffset" values="28.78" fill="freeze" begin="786c.click" /><animate id="9" attributeName="stroke-dashoffset" values="28.78;0" dur="0.29s" fill="freeze" begin="8.end" /></path></g><g><g><path d="M68.94,22.18c0.88,0.88,1.13,2.51,1.14,4.5c0.18,35.83-1.45,55.08-30.46,67.12" stroke-dasharray="84.77" stroke-dashoffset="84.77"><animate attributeName="stroke-dashoffset" values="84.77" fill="freeze" begin="786c.click" /><animate id="10" attributeName="stroke-dashoffset" values="84.77;0" dur="0.64s" fill="freeze" begin="9.end" /></path></g><path d="M50.91,66.42c5.34,0,23.03,15.38,32.46,22.41c3.35,2.5,5.63,3.67,9.52,5.46" stroke-dasharray="50.69" stroke-dashoffset="50.69"><animate attributeName="stroke-dashoffset" values="50.69" fill="freeze" begin="786c.click" /><animate id="11" attributeName="stroke-dashoffset" values="50.69;0" dur="0.51s" fill="freeze" begin="10.end" /></path></g></g></g></g></svg>