<svg xmlns="http://www.w3.org/2000/svg" width="109" height="109" viewBox="0 0 109 109" id="7872"><g fill="none" stroke="#666" stroke-width="9" stroke-linecap="round" stroke-linejoin="round"><g><g><path d="M14.38,33.51c0.65,0.18,1.83,0.23,2.47,0.18c8.08-0.62,13.73-1.94,24.52-3.02c1.07-0.11,1.72,0.08,2.26,0.17" /><path d="M26.45,35.18c0.05,0.85,0.11,2.21-0.1,3.44C25.12,45.86,18.1,61.76,8.5,71.5" /><g><path d="M21,57.69c0.29,0.39,0.59,0.71,0.72,1.2c1.01,3.85,2.22,14.45,2.91,21.36" /><path d="M22.82,59.37c7.1-1.49,14.28-2.38,17.69-2.88c1.25-0.19,2,1.09,1.82,2.18c-0.74,4.49-2.65,9.92-3.75,16.13" /><path d="M24.77,77.8c5.15-0.77,9.34-1.47,16.11-2.44" /></g></g><g><g><path d="M59.85,15.98c0.03,0.48,0.07,1.23-0.06,1.92c-0.78,4.04-5.24,12.92-11.35,18.35" /><path d="M76.52,15.08C82.78,19.39,90.39,27.6,92.54,32" /></g><g><path d="M69.43,30.25c0.06,0.85,0.27,2.28-0.12,3.43c-3.24,9.61-10.59,23.43-20.4,32.82" /><path d="M69.72,33.83c5.92,9.1,16.94,22.1,22.36,26.93c1.35,1.2,2.9,1.98,4.17,2.38" /><g><path d="M53.97,68.27c0.35,0.46,0.7,0.84,0.86,1.41c1.21,4.5,3.15,16.94,3.97,25.03" /><path d="M55.6,69.65c9.9-1.4,21.62-2.62,27.43-3.52c1.98-0.31,3.2,2.06,2.9,3.41c-1.44,6.44-3.02,12.22-4.36,20.12" /><path d="M59.73,91.93c7.65-0.62,14.22-1.05,24.18-1.78" /></g></g></g></g></g><g fill="none" stroke="#000" stroke-width="5" stroke-linecap="round" stroke-linejoin="round"><g><g><path d="M14.38,33.51c0.65,0.18,1.83,0.23,2.47,0.18c8.08-0.62,13.73-1.94,24.52-3.02c1.07-0.11,1.72,0.08,2.26,0.17" stroke-dasharray="29.472" stroke-dashoffset="29.472"><animate attributeName="stroke-dashoffset" values="29.472;29.472;0" dur="0.295s" fill="freeze" begin="0s;7872.click" /></path><path d="M26.45,35.18c0.05,0.85,0.11,2.21-0.1,3.44C25.12,45.86,18.1,61.76,8.5,71.5" stroke-dasharray="41.283" stroke-dashoffset="41.283"><animate attributeName="stroke-dashoffset" values="41.283" fill="freeze" begin="7872.click" /><animate attributeName="stroke-dashoffset" values="41.283;41.283;0" keyTimes="0;0.417;1" dur="0.708s" fill="freeze" begin="0s;7872.click" /></path><g><path d="M21,57.69c0.29,0.39,0.59,0.71,0.72,1.2c1.01,3.85,2.22,14.45,2.91,21.36" stroke-dasharray="22.981" stroke-dashoffset="22.981"><animate attributeName="stroke-dashoffset" values="22.981" fill="freeze" begin="7872.click" /><animate attributeName="stroke-dashoffset" values="22.981;22.981;0" keyTimes="0;0.755;1" dur="0.938s" fill="freeze" begin="0s;7872.click" /></path><path d="M22.82,59.37c7.1-1.49,14.28-2.38,17.69-2.88c1.25-0.19,2,1.09,1.82,2.18c-0.74,4.49-2.65,9.92-3.75,16.13" stroke-dasharray="37.804" stroke-dashoffset="37.804"><animate attributeName="stroke-dashoffset" values="37.804" fill="freeze" begin="7872.click" /><animate attributeName="stroke-dashoffset" values="37.804;37.804;0" keyTimes="0;0.713;1" dur="1.316s" fill="freeze" begin="0s;7872.click" /></path><path d="M24.77,77.8c5.15-0.77,9.34-1.47,16.11-2.44" stroke-dasharray="16.295" stroke-dashoffset="16.295"><animate attributeName="stroke-dashoffset" values="16.295" fill="freeze" begin="7872.click" /><animate attributeName="stroke-dashoffset" values="16.295;16.295;0" keyTimes="0;0.89;1" dur="1.479s" fill="freeze" begin="0s;7872.click" /></path></g></g><g><g><path d="M59.85,15.98c0.03,0.48,0.07,1.23-0.06,1.92c-0.78,4.04-5.24,12.92-11.35,18.35" stroke-dasharray="23.781" stroke-dashoffset="23.781"><animate attributeName="stroke-dashoffset" values="23.781" fill="freeze" begin="7872.click" /><animate attributeName="stroke-dashoffset" values="23.781;23.781;0" keyTimes="0;0.861;1" dur="1.717s" fill="freeze" begin="0s;7872.click" /></path><path d="M76.52,15.08C82.78,19.39,90.39,27.6,92.54,32" stroke-dasharray="23.469" stroke-dashoffset="23.469"><animate attributeName="stroke-dashoffset" values="23.469" fill="freeze" begin="7872.click" /><animate attributeName="stroke-dashoffset" values="23.469;23.469;0" keyTimes="0;0.88;1" dur="1.952s" fill="freeze" begin="0s;7872.click" /></path></g><g><path d="M69.43,30.25c0.06,0.85,0.27,2.28-0.12,3.43c-3.24,9.61-10.59,23.43-20.4,32.82" stroke-dasharray="42.432" stroke-dashoffset="42.432"><animate attributeName="stroke-dashoffset" values="42.432" fill="freeze" begin="7872.click" /><animate attributeName="stroke-dashoffset" values="42.432;42.432;0" keyTimes="0;0.822;1" dur="2.376s" fill="freeze" begin="0s;7872.click" /></path><path d="M69.72,33.83c5.92,9.1,16.94,22.1,22.36,26.93c1.35,1.2,2.9,1.98,4.17,2.38" stroke-dasharray="39.905" stroke-dashoffset="39.905"><animate attributeName="stroke-dashoffset" values="39.905" fill="freeze" begin="7872.click" /><animate attributeName="stroke-dashoffset" values="39.905;39.905;0" keyTimes="0;0.856;1" dur="2.775s" fill="freeze" begin="0s;7872.click" /></path><g><path d="M53.97,68.27c0.35,0.46,0.7,0.84,0.86,1.41c1.21,4.5,3.15,16.94,3.97,25.03" stroke-dasharray="27.023" stroke-dashoffset="27.023"><animate attributeName="stroke-dashoffset" values="27.023" fill="freeze" begin="7872.click" /><animate attributeName="stroke-dashoffset" values="27.023;27.023;0" keyTimes="0;0.911;1" dur="3.045s" fill="freeze" begin="0s;7872.click" /></path><path d="M55.6,69.65c9.9-1.4,21.62-2.62,27.43-3.52c1.98-0.31,3.2,2.06,2.9,3.41c-1.44,6.44-3.02,12.22-4.36,20.12" stroke-dasharray="53.403" stroke-dashoffset="53.403"><animate attributeName="stroke-dashoffset" values="53.403" fill="freeze" begin="7872.click" /><animate attributeName="stroke-dashoffset" values="53.403;53.403;0" keyTimes="0;0.851;1" dur="3.579s" fill="freeze" begin="0s;7872.click" /></path><path d="M59.73,91.93c7.65-0.62,14.22-1.05,24.18-1.78" stroke-dasharray="24.247" stroke-dashoffset="24.247"><animate attributeName="stroke-dashoffset" values="24.247" fill="freeze" begin="7872.click" /><animate attributeName="stroke-dashoffset" values="24.247;24.247;0" keyTimes="0;0.937;1" dur="3.821s" fill="freeze" begin="0s;7872.click" /></path></g></g></g></g></g></svg>