<svg xmlns="http://www.w3.org/2000/svg" width="109" height="109" viewBox="0 0 109 109" id="78a7"><g fill="none" stroke="#666" stroke-width="9" stroke-linecap="round" stroke-linejoin="round"><g><g><g p5:partial xmlns:p5="http://kanjivg.tagaini.net"><path d="M19,19.33c2.25,0.8,4.62,0.57,6.5,0.27c4.1-0.65,12.09-1.78,17.76-2.34c1.41-0.14,3.63-0.69,5-0.1" /><path d="M32.32,21.52c0.89,0.89,1.23,2.11,1.23,3.73c0,5.95-0.05,16.43-0.05,22.5" /><path d="M19.75,33.37c2.12,0.76,4.23,0.9,6.24,0.57c4.18-0.69,11.28-2.17,15.39-2.76c1.42-0.2,2.94-0.53,4.36-0.14" /><path d="M18.5,52.37c1.12,1,2.38,1,3.43,0.64c5.59-1.9,15.57-5.89,25.07-9.77" /></g><g><g><path d="M72.26,9.5c0.24,1.12-0.26,1.88-0.72,2.79c-1.22,2.43-2.91,4.96-5.59,8.19" /></g><g><path d="M55.5,22.05c0.85,0.85,1.21,1.83,1.4,3.19c0.44,3.24,1.58,10.94,2.28,16.37c0.29,2.28,0.5,4.15,0.55,5.13" /><path d="M57.51,23.46c5.87-0.82,19.1-2.47,24.75-3.04c2.79-0.28,5.2-0.21,4.91,3.09c-0.29,3.29-1.44,11.01-2.64,17.39c-0.32,1.71-0.64,3.33-0.95,4.74" /><path d="M59.22,33.68c7.28-0.8,21.6-2.36,25.78-2.36" /><path d="M60.77,44.47c8.1-0.72,14.23-1.22,22.64-1.73" /></g></g></g><g><path d="M23.98,59.31c2.98,0.78,6.86,0.5,9.9,0.2C49,58,65.49,56.63,82.5,55.65c3.04-0.18,6.11-0.02,9.13,0.46" /><path d="M46.92,61.12c-0.17,1.13-0.99,2.38-1.59,3.3C41.06,70.94,29.11,82.77,14,90.62" /><g><path d="M40.12,74.74c0.82,0.82,1.13,1.63,1.34,2.88c0.55,3.39,1.52,9.19,2.4,15.48c0.25,1.77,0.49,3.58,0.72,5.39" /><path d="M42.01,76.4c12.76-1.55,23.34-2.96,33.49-3.79c3.7-0.3,5.29,0.8,4.44,4.57c-0.9,3.99-2.31,9.58-3.94,15.3" /><path d="M45.56,95.76c5.77-0.36,17.36-1.39,26.83-1.85c2.31-0.11,4.43-0.19,6.22-0.21" /></g></g></g></g><g fill="none" stroke="#000" stroke-width="5" stroke-linecap="round" stroke-linejoin="round"><g><g><g p5:partial xmlns:p5="http://kanjivg.tagaini.net"><path d="M19,19.33c2.25,0.8,4.62,0.57,6.5,0.27c4.1-0.65,12.09-1.78,17.76-2.34c1.41-0.14,3.63-0.69,5-0.1" stroke-dasharray="29.55" stroke-dashoffset="29.55"><animate id="0" attributeName="stroke-dashoffset" values="29.55;0" dur="0.3s" fill="freeze" begin="0s;78a7.click" /></path><path d="M32.32,21.52c0.89,0.89,1.23,2.11,1.23,3.73c0,5.95-0.05,16.43-0.05,22.5" stroke-dasharray="26.54" stroke-dashoffset="26.54"><animate attributeName="stroke-dashoffset" values="26.54" fill="freeze" begin="78a7.click" /><animate id="1" attributeName="stroke-dashoffset" values="26.54;0" dur="0.27s" fill="freeze" begin="0.end" /></path><path d="M19.75,33.37c2.12,0.76,4.23,0.9,6.24,0.57c4.18-0.69,11.28-2.17,15.39-2.76c1.42-0.2,2.94-0.53,4.36-0.14" stroke-dasharray="26.37" stroke-dashoffset="26.37"><animate attributeName="stroke-dashoffset" values="26.37" fill="freeze" begin="78a7.click" /><animate id="2" attributeName="stroke-dashoffset" values="26.37;0" dur="0.26s" fill="freeze" begin="1.end" /></path><path d="M18.5,52.37c1.12,1,2.38,1,3.43,0.64c5.59-1.9,15.57-5.89,25.07-9.77" stroke-dasharray="30.58" stroke-dashoffset="30.58"><animate attributeName="stroke-dashoffset" values="30.58" fill="freeze" begin="78a7.click" /><animate id="3" attributeName="stroke-dashoffset" values="30.58;0" dur="0.31s" fill="freeze" begin="2.end" /></path></g><g><g><path d="M72.26,9.5c0.24,1.12-0.26,1.88-0.72,2.79c-1.22,2.43-2.91,4.96-5.59,8.19" stroke-dasharray="12.89" stroke-dashoffset="12.89"><animate attributeName="stroke-dashoffset" values="12.89" fill="freeze" begin="78a7.click" /><animate id="4" attributeName="stroke-dashoffset" values="12.89;0" dur="0.13s" fill="freeze" begin="3.end" /></path></g><g><path d="M55.5,22.05c0.85,0.85,1.21,1.83,1.4,3.19c0.44,3.24,1.58,10.94,2.28,16.37c0.29,2.28,0.5,4.15,0.55,5.13" stroke-dasharray="25.24" stroke-dashoffset="25.24"><animate attributeName="stroke-dashoffset" values="25.24" fill="freeze" begin="78a7.click" /><animate id="5" attributeName="stroke-dashoffset" values="25.24;0" dur="0.25s" fill="freeze" begin="4.end" /></path><path d="M57.51,23.46c5.87-0.82,19.1-2.47,24.75-3.04c2.79-0.28,5.2-0.21,4.91,3.09c-0.29,3.29-1.44,11.01-2.64,17.39c-0.32,1.71-0.64,3.33-0.95,4.74" stroke-dasharray="54.43" stroke-dashoffset="54.43"><animate attributeName="stroke-dashoffset" values="54.43" fill="freeze" begin="78a7.click" /><animate id="6" attributeName="stroke-dashoffset" values="54.43;0" dur="0.54s" fill="freeze" begin="5.end" /></path><path d="M59.22,33.68c7.28-0.8,21.6-2.36,25.78-2.36" stroke-dasharray="25.89" stroke-dashoffset="25.89"><animate attributeName="stroke-dashoffset" values="25.89" fill="freeze" begin="78a7.click" /><animate id="7" attributeName="stroke-dashoffset" values="25.89;0" dur="0.26s" fill="freeze" begin="6.end" /></path><path d="M60.77,44.47c8.1-0.72,14.23-1.22,22.64-1.73" stroke-dasharray="22.71" stroke-dashoffset="22.71"><animate attributeName="stroke-dashoffset" values="22.71" fill="freeze" begin="78a7.click" /><animate id="8" attributeName="stroke-dashoffset" values="22.71;0" dur="0.23s" fill="freeze" begin="7.end" /></path></g></g></g><g><path d="M23.98,59.31c2.98,0.78,6.86,0.5,9.9,0.2C49,58,65.49,56.63,82.5,55.65c3.04-0.18,6.11-0.02,9.13,0.46" stroke-dasharray="67.89" stroke-dashoffset="67.89"><animate attributeName="stroke-dashoffset" values="67.89" fill="freeze" begin="78a7.click" /><animate id="9" attributeName="stroke-dashoffset" values="67.89;0" dur="0.51s" fill="freeze" begin="8.end" /></path><path d="M46.92,61.12c-0.17,1.13-0.99,2.38-1.59,3.3C41.06,70.94,29.11,82.77,14,90.62" stroke-dasharray="44.88" stroke-dashoffset="44.88"><animate attributeName="stroke-dashoffset" values="44.88" fill="freeze" begin="78a7.click" /><animate id="10" attributeName="stroke-dashoffset" values="44.88;0" dur="0.45s" fill="freeze" begin="9.end" /></path><g><path d="M40.12,74.74c0.82,0.82,1.13,1.63,1.34,2.88c0.55,3.39,1.52,9.19,2.4,15.48c0.25,1.77,0.49,3.58,0.72,5.39" stroke-dasharray="24.34" stroke-dashoffset="24.34"><animate attributeName="stroke-dashoffset" values="24.34" fill="freeze" begin="78a7.click" /><animate id="11" attributeName="stroke-dashoffset" values="24.34;0" dur="0.24s" fill="freeze" begin="10.end" /></path><path d="M42.01,76.4c12.76-1.55,23.34-2.96,33.49-3.79c3.7-0.3,5.29,0.8,4.44,4.57c-0.9,3.99-2.31,9.58-3.94,15.3" stroke-dasharray="57.64" stroke-dashoffset="57.64"><animate attributeName="stroke-dashoffset" values="57.64" fill="freeze" begin="78a7.click" /><animate id="12" attributeName="stroke-dashoffset" values="57.64;0" dur="0.58s" fill="freeze" begin="11.end" /></path><path d="M45.56,95.76c5.77-0.36,17.36-1.39,26.83-1.85c2.31-0.11,4.43-0.19,6.22-0.21" stroke-dasharray="33.12" stroke-dashoffset="33.12"><animate attributeName="stroke-dashoffset" values="33.12" fill="freeze" begin="78a7.click" /><animate id="13" attributeName="stroke-dashoffset" values="33.12;0" dur="0.33s" fill="freeze" begin="12.end" /></path></g></g></g></g></svg>