<svg xmlns="http://www.w3.org/2000/svg" width="109" height="109" viewBox="0 0 109 109" id="78ba"><g fill="none" stroke="#666" stroke-width="6" stroke-linecap="round" stroke-linejoin="round"><g><g><path d="M15.13,31.01c1.23,0.26,2.89,0.36,4.12,0.3C25,31,32.38,29.75,39.03,28.72c1.39-0.21,2.98-0.22,4.35-0.05" /><path d="M26.06,33.43c0.19,0.95,0.11,1.64-0.07,2.98c-1.06,7.9-7.16,25.23-15.49,35.84" /><g><path d="M21.5,56.04c0.79,0.79,1.41,1.87,1.51,2.96c0.49,5.44,1.37,11.88,2.01,17.63c0.17,1.51,0.32,2.98,0.44,4.37" /><path d="M23.98,57.62c5.4-1.29,10.53-2.17,14.04-2.74c2.79-0.46,4.54,0.71,3.9,4.03c-1.05,5.47-1.67,8.72-3.17,15.44" /><path d="M26.38,77.5c3.65-0.46,6.91-1.03,11.13-1.61c1.08-0.15,2.22-0.3,3.44-0.44" /></g></g><g p4:phon="寉" xmlns:p4="http://kanjivg.tagaini.net"><g p4:partial><g><path d="M51.88,27.62c0,3.48-2.66,13.05-3.88,15.38" /><path d="M52.99,29.72c9.88-1.22,30.88-3.99,37.53-4.35c10.38-0.55,2.85,6.25-0.39,9.2" /></g></g><g><g><path d="M71.42,11.5c0.46,1.12,0.46,2.5,0.13,3.97C68.39,29.53,60.75,48.5,47.5,63.16" /><path d="M56.4,54.04c0.72,0.72,1,1.97,1,3.09c0,8.19-0.01,24.35-0.02,34.12c0,3.38,0,6,0,7.25" /></g><path d="M79.41,37c0.06,0.63-0.01,1.45-0.19,1.99c-1.15,3.43-2.6,6.08-5.22,10.26" /><path d="M57.58,52.23c6.07-0.47,21.81-1.83,29.93-2.64c2.31-0.23,4-0.41,4.67-0.52" /><path d="M73.81,53.26c0.9,0.9,1.61,2.12,1.61,3.67c0,8.82,0.06,25.57,0.06,32.57" /><path d="M58.86,65.44c5.34-0.58,20-1.71,27.27-2.35c1.89-0.17,3.28-0.3,3.88-0.38" /><path d="M58.54,77.71c5.68-0.49,20.72-1.7,28.08-2.34c1.85-0.16,3.22-0.28,3.83-0.35" /><path d="M58.47,91.39c6.78-0.26,23.29-0.96,32.78-1.6c2.66-0.18,4.58-0.33,5.25-0.43" /></g></g></g></g><g fill="none" stroke="#000" stroke-width="3" stroke-linecap="round" stroke-linejoin="round"><path d="M15.13,31.01c1.23,0.26,2.89,0.36,4.12,0.3C25,31,32.38,29.75,39.03,28.72c1.39-0.21,2.98-0.22,4.35-0.05" stroke-dasharray="28.461" stroke-dashoffset="28.461"><animate attributeName="stroke-dashoffset" values="28.461;28.461;0" dur="0.285s" fill="freeze" begin="0s;78ba.click" /></path><path d="M26.06,33.43c0.19,0.95,0.11,1.64-0.07,2.98c-1.06,7.9-7.16,25.23-15.49,35.84" stroke-dasharray="42.375" stroke-dashoffset="42.375"><animate attributeName="stroke-dashoffset" values="42.375" fill="freeze" begin="78ba.click" /><animate attributeName="stroke-dashoffset" values="42.375;42.375;0" keyTimes="0;0.402;1" dur="0.709s" fill="freeze" begin="0s;78ba.click" /></path><path d="M21.5,56.04c0.79,0.79,1.41,1.87,1.51,2.96c0.49,5.44,1.37,11.88,2.01,17.63c0.17,1.51,0.32,2.98,0.44,4.37" stroke-dasharray="25.525" stroke-dashoffset="25.525"><animate attributeName="stroke-dashoffset" values="25.525" fill="freeze" begin="78ba.click" /><animate attributeName="stroke-dashoffset" values="25.525;25.525;0" keyTimes="0;0.735;1" dur="0.964s" fill="freeze" begin="0s;78ba.click" /></path><path d="M23.98,57.62c5.4-1.29,10.53-2.17,14.04-2.74c2.79-0.46,4.54,0.71,3.9,4.03c-1.05,5.47-1.67,8.72-3.17,15.44" stroke-dasharray="37.128" stroke-dashoffset="37.128"><animate attributeName="stroke-dashoffset" values="37.128" fill="freeze" begin="78ba.click" /><animate attributeName="stroke-dashoffset" values="37.128;37.128;0" keyTimes="0;0.722;1" dur="1.335s" fill="freeze" begin="0s;78ba.click" /></path><path d="M26.38,77.5c3.65-0.46,6.91-1.03,11.13-1.61c1.08-0.15,2.22-0.3,3.44-0.44" stroke-dasharray="14.715" stroke-dashoffset="14.715"><animate attributeName="stroke-dashoffset" values="14.715" fill="freeze" begin="78ba.click" /><animate attributeName="stroke-dashoffset" values="14.715;14.715;0" keyTimes="0;0.901;1" dur="1.482s" fill="freeze" begin="0s;78ba.click" /></path><path d="M51.88,27.62c0,3.48-2.66,13.05-3.88,15.38" stroke-dasharray="15.927" stroke-dashoffset="15.927"><animate attributeName="stroke-dashoffset" values="15.927" fill="freeze" begin="78ba.click" /><animate attributeName="stroke-dashoffset" values="15.927;15.927;0" keyTimes="0;0.903;1" dur="1.641s" fill="freeze" begin="0s;78ba.click" /></path><path d="M52.99,29.72c9.88-1.22,30.88-3.99,37.53-4.35c10.38-0.55,2.85,6.25-0.39,9.2" stroke-dasharray="53.417" stroke-dashoffset="53.417"><animate attributeName="stroke-dashoffset" values="53.417" fill="freeze" begin="78ba.click" /><animate attributeName="stroke-dashoffset" values="53.417;53.417;0" keyTimes="0;0.754;1" dur="2.175s" fill="freeze" begin="0s;78ba.click" /></path><path d="M71.42,11.5c0.46,1.12,0.46,2.5,0.13,3.97C68.39,29.53,60.75,48.5,47.5,63.16" stroke-dasharray="57.999" stroke-dashoffset="57.999"><animate attributeName="stroke-dashoffset" values="57.999" fill="freeze" begin="78ba.click" /><animate attributeName="stroke-dashoffset" values="57.999;57.999;0" keyTimes="0;0.789;1" dur="2.755s" fill="freeze" begin="0s;78ba.click" /></path><path d="M56.4,54.04c0.72,0.72,1,1.97,1,3.09c0,8.19-0.01,24.35-0.02,34.12c0,3.38,0,6,0,7.25" stroke-dasharray="44.697" stroke-dashoffset="44.697"><animate attributeName="stroke-dashoffset" values="44.697" fill="freeze" begin="78ba.click" /><animate attributeName="stroke-dashoffset" values="44.697;44.697;0" keyTimes="0;0.86;1" dur="3.202s" fill="freeze" begin="0s;78ba.click" /></path><path d="M79.41,37c0.06,0.63-0.01,1.45-0.19,1.99c-1.15,3.43-2.6,6.08-5.22,10.26" stroke-dasharray="13.554" stroke-dashoffset="13.554"><animate attributeName="stroke-dashoffset" values="13.554" fill="freeze" begin="78ba.click" /><animate attributeName="stroke-dashoffset" values="13.554;13.554;0" keyTimes="0;0.959;1" dur="3.338s" fill="freeze" begin="0s;78ba.click" /></path><path d="M57.58,52.23c6.07-0.47,21.81-1.83,29.93-2.64c2.31-0.23,4-0.41,4.67-0.52" stroke-dasharray="34.747" stroke-dashoffset="34.747"><animate attributeName="stroke-dashoffset" values="34.747" fill="freeze" begin="78ba.click" /><animate attributeName="stroke-dashoffset" values="34.747;34.747;0" keyTimes="0;0.906;1" dur="3.685s" fill="freeze" begin="0s;78ba.click" /></path><path d="M73.81,53.26c0.9,0.9,1.61,2.12,1.61,3.67c0,8.82,0.06,25.57,0.06,32.57" stroke-dasharray="36.688" stroke-dashoffset="36.688"><animate attributeName="stroke-dashoffset" values="36.688" fill="freeze" begin="78ba.click" /><animate attributeName="stroke-dashoffset" values="36.688;36.688;0" keyTimes="0;0.909;1" dur="4.052s" fill="freeze" begin="0s;78ba.click" /></path><path d="M58.86,65.44c5.34-0.58,20-1.71,27.27-2.35c1.89-0.17,3.28-0.3,3.88-0.38" stroke-dasharray="31.271" stroke-dashoffset="31.271"><animate attributeName="stroke-dashoffset" values="31.271" fill="freeze" begin="78ba.click" /><animate attributeName="stroke-dashoffset" values="31.271;31.271;0" keyTimes="0;0.928;1" dur="4.365s" fill="freeze" begin="0s;78ba.click" /></path><path d="M58.54,77.71c5.68-0.49,20.72-1.7,28.08-2.34c1.85-0.16,3.22-0.28,3.83-0.35" stroke-dasharray="32.024" stroke-dashoffset="32.024"><animate attributeName="stroke-dashoffset" values="32.024" fill="freeze" begin="78ba.click" /><animate attributeName="stroke-dashoffset" values="32.024;32.024;0" keyTimes="0;0.932;1" dur="4.685s" fill="freeze" begin="0s;78ba.click" /></path><path d="M58.47,91.39c6.78-0.26,23.29-0.96,32.78-1.6c2.66-0.18,4.58-0.33,5.25-0.43" stroke-dasharray="38.089" stroke-dashoffset="38.089"><animate attributeName="stroke-dashoffset" values="38.089" fill="freeze" begin="78ba.click" /><animate attributeName="stroke-dashoffset" values="38.089;38.089;0" keyTimes="0;0.925;1" dur="5.066s" fill="freeze" begin="0s;78ba.click" /></path></g></svg>