<svg xmlns="http://www.w3.org/2000/svg" viewBox="0 0 109 109" id="78c5"><g fill="none" stroke="#666" stroke-width="6" stroke-linecap="round" stroke-linejoin="round"><g><g><path d="M14.13,20.81c0.74,0.08,2.1,0.11,2.83,0.08c9.27-0.29,12.7-1.42,25.08-1.93c1.23-0.05,1.97,0.04,2.59,0.08" /><path d="M26.75,22.25c0.05,0.99,0.1,2.55-0.1,3.97C25.52,34.6,18.96,52.99,10,64.25" /><g><path d="M21,51.79c0.28,0.43,0.56,0.78,0.68,1.31c0.96,4.21,2.12,15.83,2.78,23.4" /><path d="M22.75,53c4.62-1.28,10.14-1.23,15.63-2.32c1.11-0.22,1.79,1.23,1.64,2.47c-0.62,5.12-1.35,10.01-2.27,17.09" /><path d="M25.57,74.07c4.27-0.6,7.76-1.09,13.37-1.88" /></g></g><g><g><g p6:partial xmlns:p6="http://kanjivg.tagaini.net"><g><path d="M69.45,11.75c0.46,0.5,1.15,1.62,1.15,2.89c0,2.02,0,1.24,0,6.73" /><path d="M51.87,24.31c0.87,0.12,1.88,0.1,2.73,0.04c4.85-0.37,27.15-2.78,34.49-3.24c1.43-0.09,2.3-0.03,3.02,0.02" /></g><g><path d="M58.25,26.5c2.89,4.19,4.74,9.24,5,12" /><path d="M83.33,24.34c0.2,1.29,0.37,2.34,0.21,2.69c-1.54,3.48-4.18,10.09-5.29,12.22" /></g></g><g><path d="M51.25,38.25c-0.11,3.38-2.79,12.23-3.75,14.25" /><path d="M52.25,42.3c6.14-0.72,27.95-3.7,39.91-4c7.31-0.19,2.31,4.3-0.42,7.1" /></g></g><g><g><path d="M69.31,47.62c0.68,0.48,1.81,2.33,1.81,3.29c0,3.51-0.21,4.13-0.09,7.1" /><path d="M47.6,59.54c0.89,0.06,2.91,0.39,3.77,0.32c6.96-0.59,32.63-2.5,42.09-2.89c1.46-0.06,2.21,0.04,3.29,0.4" /></g><g><path d="M68.5,68c4.1,1.3,12.3,2.7,16.61,3.3c1.94,0.27,2.86,1.08,2.38,2.6c-1.6,5.07-8.83,17.27-14.79,22.26c-3.56,2.97-5.19-1.16-6.19-2.64" /><path d="M69.2,62.2c0.41,0.95,0.33,2.02-0.16,3.09C65.68,72.66,56,85,41.84,93.53" /></g></g></g></g></g><g fill="none" stroke="#000" stroke-width="3" stroke-linecap="round" stroke-linejoin="round"><path d="M14.13,20.81c0.74,0.08,2.1,0.11,2.83,0.08c9.27-0.29,12.7-1.42,25.08-1.93c1.23-0.05,1.97,0.04,2.59,0.08" stroke-dasharray="30.588" stroke-dashoffset="30.588"><animate attributeName="stroke-dashoffset" values="30.588;30.588;0" dur="0.306s" fill="freeze" begin="0s;78c5.click" /></path><path d="M26.75,22.25c0.05,0.99,0.1,2.55-0.1,3.97C25.52,34.6,18.96,52.99,10,64.25" stroke-dasharray="45.855" stroke-dashoffset="45.855"><animate attributeName="stroke-dashoffset" values="45.855" fill="freeze" begin="78c5.click" /><animate attributeName="stroke-dashoffset" values="45.855;45.855;0" keyTimes="0;0.4;1" dur="0.765s" fill="freeze" begin="0s;78c5.click" /></path><path d="M21,51.79c0.28,0.43,0.56,0.78,0.68,1.31c0.96,4.21,2.12,15.83,2.78,23.4" stroke-dasharray="25.061" stroke-dashoffset="25.061"><animate attributeName="stroke-dashoffset" values="25.061" fill="freeze" begin="78c5.click" /><animate attributeName="stroke-dashoffset" values="25.061;25.061;0" keyTimes="0;0.753;1" dur="1.016s" fill="freeze" begin="0s;78c5.click" /></path><path d="M22.75,53c4.62-1.28,10.14-1.23,15.63-2.32c1.11-0.22,1.79,1.23,1.64,2.47c-0.62,5.12-1.35,10.01-2.27,17.09" stroke-dasharray="36.472" stroke-dashoffset="36.472"><animate attributeName="stroke-dashoffset" values="36.472" fill="freeze" begin="78c5.click" /><animate attributeName="stroke-dashoffset" values="36.472;36.472;0" keyTimes="0;0.736;1" dur="1.381s" fill="freeze" begin="0s;78c5.click" /></path><path d="M25.57,74.07c4.27-0.6,7.76-1.09,13.37-1.88" stroke-dasharray="13.503" stroke-dashoffset="13.503"><animate attributeName="stroke-dashoffset" values="13.503" fill="freeze" begin="78c5.click" /><animate attributeName="stroke-dashoffset" values="13.503;13.503;0" keyTimes="0;0.911;1" dur="1.516s" fill="freeze" begin="0s;78c5.click" /></path><path d="M69.45,11.75c0.46,0.5,1.15,1.62,1.15,2.89c0,2.02,0,1.24,0,6.73" stroke-dasharray="9.907" stroke-dashoffset="9.907"><animate attributeName="stroke-dashoffset" values="9.907" fill="freeze" begin="78c5.click" /><animate attributeName="stroke-dashoffset" values="9.907;9.907;0" keyTimes="0;0.939;1" dur="1.615s" fill="freeze" begin="0s;78c5.click" /></path><path d="M51.87,24.31c0.87,0.12,1.88,0.1,2.73,0.04c4.85-0.37,27.15-2.78,34.49-3.24c1.43-0.09,2.3-0.03,3.02,0.02" stroke-dasharray="40.402" stroke-dashoffset="40.402"><animate attributeName="stroke-dashoffset" values="40.402" fill="freeze" begin="78c5.click" /><animate attributeName="stroke-dashoffset" values="40.402;40.402;0" keyTimes="0;0.8;1" dur="2.019s" fill="freeze" begin="0s;78c5.click" /></path><path d="M58.25,26.5c2.89,4.19,4.74,9.24,5,12" stroke-dasharray="13.11" stroke-dashoffset="13.11"><animate attributeName="stroke-dashoffset" values="13.11" fill="freeze" begin="78c5.click" /><animate attributeName="stroke-dashoffset" values="13.11;13.11;0" keyTimes="0;0.939;1" dur="2.15s" fill="freeze" begin="0s;78c5.click" /></path><path d="M83.33,24.34c0.2,1.29,0.37,2.34,0.21,2.69c-1.54,3.48-4.18,10.09-5.29,12.22" stroke-dasharray="16.034" stroke-dashoffset="16.034"><animate attributeName="stroke-dashoffset" values="16.034" fill="freeze" begin="78c5.click" /><animate attributeName="stroke-dashoffset" values="16.034;16.034;0" keyTimes="0;0.931;1" dur="2.31s" fill="freeze" begin="0s;78c5.click" /></path><path d="M51.25,38.25c-0.11,3.38-2.79,12.23-3.75,14.25" stroke-dasharray="14.781" stroke-dashoffset="14.781"><animate attributeName="stroke-dashoffset" values="14.781" fill="freeze" begin="78c5.click" /><animate attributeName="stroke-dashoffset" values="14.781;14.781;0" keyTimes="0;0.94;1" dur="2.458s" fill="freeze" begin="0s;78c5.click" /></path><path d="M52.25,42.3c6.14-0.72,27.95-3.7,39.91-4c7.31-0.19,2.31,4.3-0.42,7.1" stroke-dasharray="51.759" stroke-dashoffset="51.759"><animate attributeName="stroke-dashoffset" values="51.759" fill="freeze" begin="78c5.click" /><animate attributeName="stroke-dashoffset" values="51.759;51.759;0" keyTimes="0;0.826;1" dur="2.976s" fill="freeze" begin="0s;78c5.click" /></path><path d="M69.31,47.62c0.68,0.48,1.81,2.33,1.81,3.29c0,3.51-0.21,4.13-0.09,7.1" stroke-dasharray="10.939" stroke-dashoffset="10.939"><animate attributeName="stroke-dashoffset" values="10.939" fill="freeze" begin="78c5.click" /><animate attributeName="stroke-dashoffset" values="10.939;10.939;0" keyTimes="0;0.965;1" dur="3.085s" fill="freeze" begin="0s;78c5.click" /></path><path d="M47.6,59.54c0.89,0.06,2.91,0.39,3.77,0.32c6.96-0.59,32.63-2.5,42.09-2.89c1.46-0.06,2.21,0.04,3.29,0.4" stroke-dasharray="49.316" stroke-dashoffset="49.316"><animate attributeName="stroke-dashoffset" values="49.316" fill="freeze" begin="78c5.click" /><animate attributeName="stroke-dashoffset" values="49.316;49.316;0" keyTimes="0;0.862;1" dur="3.578s" fill="freeze" begin="0s;78c5.click" /></path><path d="M68.5,68c4.1,1.3,12.3,2.7,16.61,3.3c1.94,0.27,2.86,1.08,2.38,2.6c-1.6,5.07-8.83,17.27-14.79,22.26c-3.56,2.97-5.19-1.16-6.19-2.64" stroke-dasharray="56.276" stroke-dashoffset="56.276"><animate attributeName="stroke-dashoffset" values="56.276" fill="freeze" begin="78c5.click" /><animate attributeName="stroke-dashoffset" values="56.276;56.276;0" keyTimes="0;0.864;1" dur="4.141s" fill="freeze" begin="0s;78c5.click" /></path><path d="M69.2,62.2c0.41,0.95,0.33,2.02-0.16,3.09C65.68,72.66,56,85,41.84,93.53" stroke-dasharray="42.895" stroke-dashoffset="42.895"><animate attributeName="stroke-dashoffset" values="42.895" fill="freeze" begin="78c5.click" /><animate attributeName="stroke-dashoffset" values="42.895;42.895;0" keyTimes="0;0.906;1" dur="4.57s" fill="freeze" begin="0s;78c5.click" /></path></g></svg>