<svg xmlns="http://www.w3.org/2000/svg" width="109" height="109" viewBox="0 0 109 109" id="78e7"><g fill="none" stroke="#666" stroke-width="9" stroke-linecap="round" stroke-linejoin="round"><g><g><path d="M11.88,24.48c0.85,0.25,2.4,0.31,3.25,0.25c10.61-0.86,11.62-1.09,25.79-2.59c1.41-0.15,2.26,0.12,2.96,0.24" /><path d="M26.45,26.68c0.05,0.77,0.11,1.98-0.1,3.08c-1.22,6.5-8.24,20.76-17.85,29.49" /><g><path d="M17.9,50.79c0.17,0.5,0.35,0.92,0.43,1.55c0.6,4.98,1.32,18.71,1.74,27.66" /><path d="M18.73,51.31C27,50.25,33.88,48.64,37.77,48c1.48-0.25,3.26,1.64,3.06,3.26c-0.84,6.71-3,14.81-4.25,24.09" /><path d="M20.09,77.09c4.91-0.84,11.16-1.84,18.85-1.64" /></g></g><g><g><path d="M51.04,23.07c1.1,0.26,3.11,0.31,4.21,0.26c7.92-0.37,27.02-1.83,33.85-2.22c1.82-0.1,2.58-0.06,3.54-0.02" /><path d="M68.52,12.38c0.58,0.21,1.91,2.06,1.91,2.5c0,5.5,0.28,20.82,0.32,26.56" /><path d="M55.27,33.17c0.92,0.12,2.59,0.14,3.5,0.12c6.59-0.17,22.38-2.19,28.07-2.37c1.52-0.05,2.63-0.03,3.44-0.01" /><path d="M46.06,43.57c1.32,0.29,3.73,0.44,5.04,0.29c12.22-1.32,31.47-2.51,42.05-2.75c2.18-0.05,3.84-0.25,5.41,0.47" /></g><g><g><path d="M56.54,49.98c0.49,0.73,1.21,1.78,1.21,2.75c0,0.97-0.16,30.76,0,31.74" /><path d="M58.07,51.27c2.79-0.12,23.54-2.17,26.08-2.31c2.12-0.12,3.6,0.26,3.61,2.57c0.01,3.11-0.99,31.24-0.99,31.97" /><path d="M58.53,61.59c3.98,0,23.13-1.98,27.6-1.98" /><path d="M58.75,72.05c5.54,0,19.87-1.96,27.04-1.96" /><path d="M59.47,82.9c5.54,0,19.87-1.46,27.04-1.46" /></g><g><path d="M62.94,87.3c0.46,0.92,0.75,0.98,0,1.83C60,92.5,54,96,46.13,98.5" /><path d="M77.47,86.25c7.35,2.8,16.03,7.88,18.03,10.33" /></g></g></g></g></g><g fill="none" stroke="#000" stroke-width="5" stroke-linecap="round" stroke-linejoin="round"><path d="M11.88,24.48c0.85,0.25,2.4,0.31,3.25,0.25c10.61-0.86,11.62-1.09,25.79-2.59c1.41-0.15,2.26,0.12,2.96,0.24" stroke-dasharray="32.178" stroke-dashoffset="32.178"><animate attributeName="stroke-dashoffset" values="32.178;32.178;0" dur="0.322s" fill="freeze" begin="0s;78e7.click" /></path><path d="M26.45,26.68c0.05,0.77,0.11,1.98-0.1,3.08c-1.22,6.5-8.24,20.76-17.85,29.49" stroke-dasharray="37.998" stroke-dashoffset="37.998"><animate attributeName="stroke-dashoffset" values="37.998" fill="freeze" begin="78e7.click" /><animate attributeName="stroke-dashoffset" values="37.998;37.998;0" keyTimes="0;0.459;1" dur="0.702s" fill="freeze" begin="0s;78e7.click" /></path><path d="M17.9,50.79c0.17,0.5,0.35,0.92,0.43,1.55c0.6,4.98,1.32,18.71,1.74,27.66" stroke-dasharray="29.331" stroke-dashoffset="29.331"><animate attributeName="stroke-dashoffset" values="29.331" fill="freeze" begin="78e7.click" /><animate attributeName="stroke-dashoffset" values="29.331;29.331;0" keyTimes="0;0.706;1" dur="0.995s" fill="freeze" begin="0s;78e7.click" /></path><path d="M18.73,51.31C27,50.25,33.88,48.64,37.77,48c1.48-0.25,3.26,1.64,3.06,3.26c-0.84,6.71-3,14.81-4.25,24.09" stroke-dasharray="48.818" stroke-dashoffset="48.818"><animate attributeName="stroke-dashoffset" values="48.818" fill="freeze" begin="78e7.click" /><animate attributeName="stroke-dashoffset" values="48.818;48.818;0" keyTimes="0;0.671;1" dur="1.483s" fill="freeze" begin="0s;78e7.click" /></path><path d="M20.09,77.09c4.91-0.84,11.16-1.84,18.85-1.64" stroke-dasharray="18.956" stroke-dashoffset="18.956"><animate attributeName="stroke-dashoffset" values="18.956" fill="freeze" begin="78e7.click" /><animate attributeName="stroke-dashoffset" values="18.956;18.956;0" keyTimes="0;0.886;1" dur="1.673s" fill="freeze" begin="0s;78e7.click" /></path><path d="M51.04,23.07c1.1,0.26,3.11,0.31,4.21,0.26c7.92-0.37,27.02-1.83,33.85-2.22c1.82-0.1,2.58-0.06,3.54-0.02" stroke-dasharray="41.694" stroke-dashoffset="41.694"><animate attributeName="stroke-dashoffset" values="41.694" fill="freeze" begin="78e7.click" /><animate attributeName="stroke-dashoffset" values="41.694;41.694;0" keyTimes="0;0.8;1" dur="2.09s" fill="freeze" begin="0s;78e7.click" /></path><path d="M68.52,12.38c0.58,0.21,1.91,2.06,1.91,2.5c0,5.5,0.28,20.82,0.32,26.56" stroke-dasharray="29.769" stroke-dashoffset="29.769"><animate attributeName="stroke-dashoffset" values="29.769" fill="freeze" begin="78e7.click" /><animate attributeName="stroke-dashoffset" values="29.769;29.769;0" keyTimes="0;0.875;1" dur="2.388s" fill="freeze" begin="0s;78e7.click" /></path><path d="M55.27,33.17c0.92,0.12,2.59,0.14,3.5,0.12c6.59-0.17,22.38-2.19,28.07-2.37c1.52-0.05,2.63-0.03,3.44-0.01" stroke-dasharray="35.12" stroke-dashoffset="35.12"><animate attributeName="stroke-dashoffset" values="35.12" fill="freeze" begin="78e7.click" /><animate attributeName="stroke-dashoffset" values="35.12;35.12;0" keyTimes="0;0.872;1" dur="2.739s" fill="freeze" begin="0s;78e7.click" /></path><path d="M46.06,43.57c1.32,0.29,3.73,0.44,5.04,0.29c12.22-1.32,31.47-2.51,42.05-2.75c2.18-0.05,3.84-0.25,5.41,0.47" stroke-dasharray="52.697" stroke-dashoffset="52.697"><animate attributeName="stroke-dashoffset" values="52.697" fill="freeze" begin="78e7.click" /><animate attributeName="stroke-dashoffset" values="52.697;52.697;0" keyTimes="0;0.839;1" dur="3.266s" fill="freeze" begin="0s;78e7.click" /></path><path d="M56.54,49.98c0.49,0.73,1.21,1.78,1.21,2.75c0,0.97-0.16,30.76,0,31.74" stroke-dasharray="34.789" stroke-dashoffset="34.789"><animate attributeName="stroke-dashoffset" values="34.789" fill="freeze" begin="78e7.click" /><animate attributeName="stroke-dashoffset" values="34.789;34.789;0" keyTimes="0;0.904;1" dur="3.614s" fill="freeze" begin="0s;78e7.click" /></path><path d="M58.07,51.27c2.79-0.12,23.54-2.17,26.08-2.31c2.12-0.12,3.6,0.26,3.61,2.57c0.01,3.11-0.99,31.24-0.99,31.97" stroke-dasharray="63.37" stroke-dashoffset="63.37"><animate attributeName="stroke-dashoffset" values="63.37" fill="freeze" begin="78e7.click" /><animate attributeName="stroke-dashoffset" values="63.37;63.37;0" keyTimes="0;0.884;1" dur="4.09s" fill="freeze" begin="0s;78e7.click" /></path><path d="M58.53,61.59c3.98,0,23.13-1.98,27.6-1.98" stroke-dasharray="27.676" stroke-dashoffset="27.676"><animate attributeName="stroke-dashoffset" values="27.676" fill="freeze" begin="78e7.click" /><animate attributeName="stroke-dashoffset" values="27.676;27.676;0" keyTimes="0;0.937;1" dur="4.367s" fill="freeze" begin="0s;78e7.click" /></path><path d="M58.75,72.05c5.54,0,19.87-1.96,27.04-1.96" stroke-dasharray="27.12" stroke-dashoffset="27.12"><animate attributeName="stroke-dashoffset" values="27.12" fill="freeze" begin="78e7.click" /><animate attributeName="stroke-dashoffset" values="27.12;27.12;0" keyTimes="0;0.942;1" dur="4.638s" fill="freeze" begin="0s;78e7.click" /></path><path d="M59.47,82.9c5.54,0,19.87-1.46,27.04-1.46" stroke-dasharray="27.085" stroke-dashoffset="27.085"><animate attributeName="stroke-dashoffset" values="27.085" fill="freeze" begin="78e7.click" /><animate attributeName="stroke-dashoffset" values="27.085;27.085;0" keyTimes="0;0.945;1" dur="4.909s" fill="freeze" begin="0s;78e7.click" /></path><path d="M62.94,87.3c0.46,0.92,0.75,0.98,0,1.83C60,92.5,54,96,46.13,98.5" stroke-dasharray="21.53" stroke-dashoffset="21.53"><animate attributeName="stroke-dashoffset" values="21.53" fill="freeze" begin="78e7.click" /><animate attributeName="stroke-dashoffset" values="21.53;21.53;0" keyTimes="0;0.958;1" dur="5.124s" fill="freeze" begin="0s;78e7.click" /></path><path d="M77.47,86.25c7.35,2.8,16.03,7.88,18.03,10.33" stroke-dasharray="20.902" stroke-dashoffset="20.902"><animate attributeName="stroke-dashoffset" values="20.902" fill="freeze" begin="78e7.click" /><animate attributeName="stroke-dashoffset" values="20.902;20.902;0" keyTimes="0;0.961;1" dur="5.333s" fill="freeze" begin="0s;78e7.click" /></path></g></svg>