<svg xmlns="http://www.w3.org/2000/svg" width="109" height="109" viewBox="0 0 109 109" id="790e"><g fill="none" stroke="#666" stroke-width="9" stroke-linecap="round" stroke-linejoin="round"><g><g><path d="M10.88,33.01c0.61,0.18,3.74,0.25,4.34,0.18c7.2-0.87,10.52-1.58,17.91-2.74c1.48-0.23,2.54-0.61,3.99-0.36" /><path d="M23.95,34.43c0.3,0.7,0.34,1.5,0.16,2.76C23.02,44.58,16.54,61.31,8,71.25" /><g><path d="M18.5,56.29c0.58,0.81,0.91,1.72,0.97,2.71c0.65,5.49,1.2,10.44,1.78,16.47c0.17,1.78,0.33,3.48,0.46,5.02" /><path d="M19.48,56.37c5.38-0.92,10.47-1.74,13.92-2.31c2.72-0.45,3.99-0.03,3.55,2.95c-0.7,4.77-1.71,11.01-2.69,17.33" /><path d="M22.59,77.09c3.88-0.66,5.88-0.96,10.16-1.58c1.13-0.16,2.35-0.35,3.69-0.57" /></g></g><g p4:phon="цеЪ" xmlns:p4="http://kanjivg.tagaini.net"><g><g><path d="M41.54,27.61c1.46,0.51,3.23,0.52,4.85,0.27c4.26-0.65,8.76-1.52,13.26-1.96c1.34-0.13,2.35-0.24,3.19,0" /><path d="M54.78,13.9c1.03,1.03,1.23,2.1,1.23,3.68c0,0.61,0.05,18.17,0.06,27.42c0,3.1,0,5.27-0.01,5.56" /><path d="M55.5,27.83c0,1.42-0.5,2.91-1.36,4.39c-3.64,6.25-9.81,13.91-14.38,16.87" /><path d="M58.62,33.12c1.67,1.23,3.74,3.53,5.2,5.47" /></g><g><path d="M67.53,24.95c1.54,0.56,3.97,0.47,5.61,0.28c4.49-0.51,10.24-1.61,17.43-2.98c1.24-0.24,2.58-0.49,3.37-0.25" /><path d="M79.73,10.5c1.01,1.01,1.23,2.25,1.23,3.68c0,0.81,0.06,18.4-0.08,28.32c-0.03,2.34-0.07,4.25-0.11,5.41" /><path d="M79.88,24.7c0,1.3-0.21,2.53-0.87,3.88C75.65,35.4,70,41.75,64.62,46.38" /><path d="M81,25.5c3.32,4.74,7.97,10.33,11.53,13.68c1.26,1.18,2.46,2.4,4.22,3.61" /></g></g><g><path d="M46.52,56.58c1.92,0.43,3.06,0.64,5.02,0.43C63.75,55.75,71,54.5,83.52,53.54c6.57-0.51,2.83,3.01-1.48,7.82" /><g><path d="M66.8,58.3c0.89,0.89,1.1,1.83,1.1,3.59c0,6.37-0.02,14.11-0.02,22.99" /><path d="M69.03,71.67c3.22-0.17,8.22-0.8,14.16-1.63c1.2-0.17,2-0.22,2.75,0" /></g><g><path d="M52.81,66.07c0.04,0.63,0.08,1.63-0.08,2.54c-0.97,5.35-5.92,16.78-13.56,23.97" /><path d="M50.65,79.28c5.3-0.03,21.04,9.83,34.56,14.43c2.75,0.94,5.61,1.94,8.51,2.29" /></g></g></g></g></g><g fill="none" stroke="#000" stroke-width="5" stroke-linecap="round" stroke-linejoin="round"><path d="M10.88,33.01c0.61,0.18,3.74,0.25,4.34,0.18c7.2-0.87,10.52-1.58,17.91-2.74c1.48-0.23,2.54-0.61,3.99-0.36" stroke-dasharray="26.504" stroke-dashoffset="26.504"><animate attributeName="stroke-dashoffset" values="26.504;26.504;0" dur="0.265s" fill="freeze" begin="0s;790e.click" /></path><path d="M23.95,34.43c0.3,0.7,0.34,1.5,0.16,2.76C23.02,44.58,16.54,61.31,8,71.25" stroke-dasharray="40.832" stroke-dashoffset="40.832"><animate attributeName="stroke-dashoffset" values="40.832" fill="freeze" begin="790e.click" /><animate attributeName="stroke-dashoffset" values="40.832;40.832;0" keyTimes="0;0.394;1" dur="0.673s" fill="freeze" begin="0s;790e.click" /></path><path d="M18.5,56.29c0.58,0.81,0.91,1.72,0.97,2.71c0.65,5.49,1.2,10.44,1.78,16.47c0.17,1.78,0.33,3.48,0.46,5.02" stroke-dasharray="24.526" stroke-dashoffset="24.526"><animate attributeName="stroke-dashoffset" values="24.526" fill="freeze" begin="790e.click" /><animate attributeName="stroke-dashoffset" values="24.526;24.526;0" keyTimes="0;0.733;1" dur="0.918s" fill="freeze" begin="0s;790e.click" /></path><path d="M19.48,56.37c5.38-0.92,10.47-1.74,13.92-2.31c2.72-0.45,3.99-0.03,3.55,2.95c-0.7,4.77-1.71,11.01-2.69,17.33" stroke-dasharray="37.651" stroke-dashoffset="37.651"><animate attributeName="stroke-dashoffset" values="37.651" fill="freeze" begin="790e.click" /><animate attributeName="stroke-dashoffset" values="37.651;37.651;0" keyTimes="0;0.709;1" dur="1.295s" fill="freeze" begin="0s;790e.click" /></path><path d="M22.59,77.09c3.88-0.66,5.88-0.96,10.16-1.58c1.13-0.16,2.35-0.35,3.69-0.57" stroke-dasharray="14.017" stroke-dashoffset="14.017"><animate attributeName="stroke-dashoffset" values="14.017" fill="freeze" begin="790e.click" /><animate attributeName="stroke-dashoffset" values="14.017;14.017;0" keyTimes="0;0.902;1" dur="1.435s" fill="freeze" begin="0s;790e.click" /></path><path d="M41.54,27.61c1.46,0.51,3.23,0.52,4.85,0.27c4.26-0.65,8.76-1.52,13.26-1.96c1.34-0.13,2.35-0.24,3.19,0" stroke-dasharray="21.52" stroke-dashoffset="21.52"><animate attributeName="stroke-dashoffset" values="21.52" fill="freeze" begin="790e.click" /><animate attributeName="stroke-dashoffset" values="21.52;21.52;0" keyTimes="0;0.87;1" dur="1.65s" fill="freeze" begin="0s;790e.click" /></path><path d="M54.78,13.9c1.03,1.03,1.23,2.1,1.23,3.68c0,0.61,0.05,18.17,0.06,27.42c0,3.1,0,5.27-0.01,5.56" stroke-dasharray="36.984" stroke-dashoffset="36.984"><animate attributeName="stroke-dashoffset" values="36.984" fill="freeze" begin="790e.click" /><animate attributeName="stroke-dashoffset" values="36.984;36.984;0" keyTimes="0;0.817;1" dur="2.02s" fill="freeze" begin="0s;790e.click" /></path><path d="M55.5,27.83c0,1.42-0.5,2.91-1.36,4.39c-3.64,6.25-9.81,13.91-14.38,16.87" stroke-dasharray="26.967" stroke-dashoffset="26.967"><animate attributeName="stroke-dashoffset" values="26.967" fill="freeze" begin="790e.click" /><animate attributeName="stroke-dashoffset" values="26.967;26.967;0" keyTimes="0;0.882;1" dur="2.29s" fill="freeze" begin="0s;790e.click" /></path><path d="M58.62,33.12c1.67,1.23,3.74,3.53,5.2,5.47" stroke-dasharray="7.57" stroke-dashoffset="7.57"><animate attributeName="stroke-dashoffset" values="7.57" fill="freeze" begin="790e.click" /><animate attributeName="stroke-dashoffset" values="7.57;7.57;0" keyTimes="0;0.968;1" dur="2.366s" fill="freeze" begin="0s;790e.click" /></path><path d="M67.53,24.95c1.54,0.56,3.97,0.47,5.61,0.28c4.49-0.51,10.24-1.61,17.43-2.98c1.24-0.24,2.58-0.49,3.37-0.25" stroke-dasharray="26.753" stroke-dashoffset="26.753"><animate attributeName="stroke-dashoffset" values="26.753" fill="freeze" begin="790e.click" /><animate attributeName="stroke-dashoffset" values="26.753;26.753;0" keyTimes="0;0.898;1" dur="2.634s" fill="freeze" begin="0s;790e.click" /></path><path d="M79.73,10.5c1.01,1.01,1.23,2.25,1.23,3.68c0,0.81,0.06,18.4-0.08,28.32c-0.03,2.34-0.07,4.25-0.11,5.41" stroke-dasharray="37.726" stroke-dashoffset="37.726"><animate attributeName="stroke-dashoffset" values="37.726" fill="freeze" begin="790e.click" /><animate attributeName="stroke-dashoffset" values="37.726;37.726;0" keyTimes="0;0.875;1" dur="3.011s" fill="freeze" begin="0s;790e.click" /></path><path d="M79.88,24.7c0,1.3-0.21,2.53-0.87,3.88C75.65,35.4,70,41.75,64.62,46.38" stroke-dasharray="27.05" stroke-dashoffset="27.05"><animate attributeName="stroke-dashoffset" values="27.05" fill="freeze" begin="790e.click" /><animate attributeName="stroke-dashoffset" values="27.05;27.05;0" keyTimes="0;0.917;1" dur="3.282s" fill="freeze" begin="0s;790e.click" /></path><path d="M81,25.5c3.32,4.74,7.97,10.33,11.53,13.68c1.26,1.18,2.46,2.4,4.22,3.61" stroke-dasharray="23.478" stroke-dashoffset="23.478"><animate attributeName="stroke-dashoffset" values="23.478" fill="freeze" begin="790e.click" /><animate attributeName="stroke-dashoffset" values="23.478;23.478;0" keyTimes="0;0.933;1" dur="3.517s" fill="freeze" begin="0s;790e.click" /></path><path d="M46.52,56.58c1.92,0.43,3.06,0.64,5.02,0.43C63.75,55.75,71,54.5,83.52,53.54c6.57-0.51,2.83,3.01-1.48,7.82" stroke-dasharray="49.856" stroke-dashoffset="49.856"><animate attributeName="stroke-dashoffset" values="49.856" fill="freeze" begin="790e.click" /><animate attributeName="stroke-dashoffset" values="49.856;49.856;0" keyTimes="0;0.876;1" dur="4.016s" fill="freeze" begin="0s;790e.click" /></path><path d="M66.8,58.3c0.89,0.89,1.1,1.83,1.1,3.59c0,6.37-0.02,14.11-0.02,22.99" stroke-dasharray="26.864" stroke-dashoffset="26.864"><animate attributeName="stroke-dashoffset" values="26.864" fill="freeze" begin="790e.click" /><animate attributeName="stroke-dashoffset" values="26.864;26.864;0" keyTimes="0;0.937;1" dur="4.285s" fill="freeze" begin="0s;790e.click" /></path><path d="M69.03,71.67c3.22-0.17,8.22-0.8,14.16-1.63c1.2-0.17,2-0.22,2.75,0" stroke-dasharray="17.029" stroke-dashoffset="17.029"><animate attributeName="stroke-dashoffset" values="17.029" fill="freeze" begin="790e.click" /><animate attributeName="stroke-dashoffset" values="17.029;17.029;0" keyTimes="0;0.962;1" dur="4.455s" fill="freeze" begin="0s;790e.click" /></path><path d="M52.81,66.07c0.04,0.63,0.08,1.63-0.08,2.54c-0.97,5.35-5.92,16.78-13.56,23.97" stroke-dasharray="30.446" stroke-dashoffset="30.446"><animate attributeName="stroke-dashoffset" values="30.446" fill="freeze" begin="790e.click" /><animate attributeName="stroke-dashoffset" values="30.446;30.446;0" keyTimes="0;0.936;1" dur="4.759s" fill="freeze" begin="0s;790e.click" /></path><path d="M50.65,79.28c5.3-0.03,21.04,9.83,34.56,14.43c2.75,0.94,5.61,1.94,8.51,2.29" stroke-dasharray="46.384" stroke-dashoffset="46.384"><animate attributeName="stroke-dashoffset" values="46.384" fill="freeze" begin="790e.click" /><animate attributeName="stroke-dashoffset" values="46.384;46.384;0" keyTimes="0;0.911;1" dur="5.223s" fill="freeze" begin="0s;790e.click" /></path></g></svg>