<svg xmlns="http://www.w3.org/2000/svg" viewBox="0 0 109 109" id="792c"><g fill="none" stroke="#666" stroke-width="6" stroke-linecap="round" stroke-linejoin="round"><g><g><g><g><path d="M15.29,23.24c0.37,0.37,2.53,0.54,3.51,0.49c7.87-0.43,12.97-1.98,22.82-2.97c0.99-0.1,1.22-0.37,1.83,0" /><path d="M30.06,11.25c0.67,0.3,1.5,1.31,1.5,2.89c0,0.62-0.09,30.24-0.22,34.04" /><path d="M30.75,25.5c-6.73,8.63-7.97,9.78-18.39,17.33" /><path d="M32.71,27.11c2.66,1.25,6.34,5.52,8.58,7.93" /></g><g><g><g><g><path d="M59.5,10.75c0.05,0.39,0.09,1-0.09,1.56C58.36,15.6,53.3,22.33,45,26.75" /></g><path d="M47,13.5c4.97,1.1,11.57,6.66,13.5,10.5" /></g><g><path d="M58.99,29c0.05,0.39,0.11,1.01-0.1,1.58c-1.23,3.33-7.26,10.62-16.88,15.09" /><path d="M47.25,32.75c4.63,2.2,10.16,7.09,12.75,10.5" /><path d="M65.24,20.9c0.68,0.21,1.46,0.27,2.25,0.21c4-0.34,17.25-1.52,23.3-1.92c0.78-0.05,1.27,0.04,2.05,0.18" /><path d="M76.63,10.5c0.53,0.31,0.95,1.38,0.95,2.03c0,6.55,0,28.68-0.11,32.58" /></g></g><g><g><path d="M78.01,19.75c-2.48,6.21-9.14,15.71-14.31,19.23" /></g><path d="M77.25,20.5c2.42,2.67,13.81,16.09,16.45,18.72c0.89,0.89,1.66,1.27,2.55,1.53" /></g></g></g><g><path d="M12.97,54.28c1.15,0.56,4.21,1.13,6.66,0.97c16.49-1.07,51.02-2.81,65.86-3.62c2.55-0.14,4.6,0.37,6.9,0.8" /><path d="M53.24,45.25c0.22,0.92-0.06,2.21-0.64,2.9c-9.61,11.44-22.28,21.3-42,27.6" /><path d="M65,53.24c5.81,4.56,19.38,14.67,25.19,17.72c1.98,1.04,2.66,1.19,3.56,1.29" /></g></g><g><path d="M36.39,67.89c0.94,0.3,3.05,0.39,3.98,0.3c11.81-1.07,13.73-2.16,27.9-2.34c1.57-0.02,2.51,0.14,3.3,0.3" /><path d="M44.75,70c0.08,0.54,0.17,1.38-0.16,2.15c-1.96,4.54-13.2,14.5-28.59,20.6" /><g><path d="M37.6,80.11c0.52,0.35,1.19,1.75,1.28,2.2c0.71,3.32,1.5,9.66,2.5,15.94" /><path d="M39.61,81.36c7.95-0.67,26.47-2.88,31.89-2.99c2.24-0.04,2.63,1.71,2.37,2.71c-0.82,3.1-1.82,7.22-3,12.99" /><path d="M41.86,96.18c6.35-0.34,24.05-1.96,32.16-2.06" /></g></g></g></g><g fill="none" stroke="#000" stroke-width="3" stroke-linecap="round" stroke-linejoin="round"><path d="M15.29,23.24c0.37,0.37,2.53,0.54,3.51,0.49c7.87-0.43,12.97-1.98,22.82-2.97c0.99-0.1,1.22-0.37,1.83,0" stroke-dasharray="28.489" stroke-dashoffset="28.489"><animate attributeName="stroke-dashoffset" values="28.489;28.489;0" dur="0.285s" fill="freeze" begin="0s;792c.click" /></path><path d="M30.06,11.25c0.67,0.3,1.5,1.31,1.5,2.89c0,0.62-0.09,30.24-0.22,34.04" stroke-dasharray="37.466" stroke-dashoffset="37.466"><animate attributeName="stroke-dashoffset" values="37.466" fill="freeze" begin="792c.click" /><animate attributeName="stroke-dashoffset" values="37.466;37.466;0" keyTimes="0;0.432;1" dur="0.66s" fill="freeze" begin="0s;792c.click" /></path><path d="M30.75,25.5c-6.73,8.63-7.97,9.78-18.39,17.33" stroke-dasharray="25.414" stroke-dashoffset="25.414"><animate attributeName="stroke-dashoffset" values="25.414" fill="freeze" begin="792c.click" /><animate attributeName="stroke-dashoffset" values="25.414;25.414;0" keyTimes="0;0.722;1" dur="0.914s" fill="freeze" begin="0s;792c.click" /></path><path d="M32.71,27.11c2.66,1.25,6.34,5.52,8.58,7.93" stroke-dasharray="11.74" stroke-dashoffset="11.74"><animate attributeName="stroke-dashoffset" values="11.74" fill="freeze" begin="792c.click" /><animate attributeName="stroke-dashoffset" values="11.74;11.74;0" keyTimes="0;0.795;1" dur="1.149s" fill="freeze" begin="0s;792c.click" /></path><path d="M59.5,10.75c0.05,0.39,0.09,1-0.09,1.56C58.36,15.6,53.3,22.33,45,26.75" stroke-dasharray="22.358" stroke-dashoffset="22.358"><animate attributeName="stroke-dashoffset" values="22.358" fill="freeze" begin="792c.click" /><animate attributeName="stroke-dashoffset" values="22.358;22.358;0" keyTimes="0;0.837;1" dur="1.373s" fill="freeze" begin="0s;792c.click" /></path><path d="M47,13.5c4.97,1.1,11.57,6.66,13.5,10.5" stroke-dasharray="17.495" stroke-dashoffset="17.495"><animate attributeName="stroke-dashoffset" values="17.495" fill="freeze" begin="792c.click" /><animate attributeName="stroke-dashoffset" values="17.495;17.495;0" keyTimes="0;0.887;1" dur="1.548s" fill="freeze" begin="0s;792c.click" /></path><path d="M58.99,29c0.05,0.39,0.11,1.01-0.1,1.58c-1.23,3.33-7.26,10.62-16.88,15.09" stroke-dasharray="24.659" stroke-dashoffset="24.659"><animate attributeName="stroke-dashoffset" values="24.659" fill="freeze" begin="792c.click" /><animate attributeName="stroke-dashoffset" values="24.659;24.659;0" keyTimes="0;0.862;1" dur="1.795s" fill="freeze" begin="0s;792c.click" /></path><path d="M47.25,32.75c4.63,2.2,10.16,7.09,12.75,10.5" stroke-dasharray="16.639" stroke-dashoffset="16.639"><animate attributeName="stroke-dashoffset" values="16.639" fill="freeze" begin="792c.click" /><animate attributeName="stroke-dashoffset" values="16.639;16.639;0" keyTimes="0;0.915;1" dur="1.961s" fill="freeze" begin="0s;792c.click" /></path><path d="M65.24,20.9c0.68,0.21,1.46,0.27,2.25,0.21c4-0.34,17.25-1.52,23.3-1.92c0.78-0.05,1.27,0.04,2.05,0.18" stroke-dasharray="27.717" stroke-dashoffset="27.717"><animate attributeName="stroke-dashoffset" values="27.717" fill="freeze" begin="792c.click" /><animate attributeName="stroke-dashoffset" values="27.717;27.717;0" keyTimes="0;0.876;1" dur="2.238s" fill="freeze" begin="0s;792c.click" /></path><path d="M76.63,10.5c0.53,0.31,0.95,1.38,0.95,2.03c0,6.55,0,28.68-0.11,32.58" stroke-dasharray="34.895" stroke-dashoffset="34.895"><animate attributeName="stroke-dashoffset" values="34.895" fill="freeze" begin="792c.click" /><animate attributeName="stroke-dashoffset" values="34.895;34.895;0" keyTimes="0;0.865;1" dur="2.587s" fill="freeze" begin="0s;792c.click" /></path><path d="M78.01,19.75c-2.48,6.21-9.14,15.71-14.31,19.23" stroke-dasharray="24.216" stroke-dashoffset="24.216"><animate attributeName="stroke-dashoffset" values="24.216" fill="freeze" begin="792c.click" /><animate attributeName="stroke-dashoffset" values="24.216;24.216;0" keyTimes="0;0.914;1" dur="2.829s" fill="freeze" begin="0s;792c.click" /></path><path d="M77.25,20.5c2.42,2.67,13.81,16.09,16.45,18.72c0.89,0.89,1.66,1.27,2.55,1.53" stroke-dasharray="27.933" stroke-dashoffset="27.933"><animate attributeName="stroke-dashoffset" values="27.933" fill="freeze" begin="792c.click" /><animate attributeName="stroke-dashoffset" values="27.933;27.933;0" keyTimes="0;0.91;1" dur="3.108s" fill="freeze" begin="0s;792c.click" /></path><path d="M12.97,54.28c1.15,0.56,4.21,1.13,6.66,0.97c16.49-1.07,51.02-2.81,65.86-3.62c2.55-0.14,4.6,0.37,6.9,0.8" stroke-dasharray="79.708" stroke-dashoffset="79.708"><animate attributeName="stroke-dashoffset" values="79.708" fill="freeze" begin="792c.click" /><animate attributeName="stroke-dashoffset" values="79.708;79.708;0" keyTimes="0;0.838;1" dur="3.707s" fill="freeze" begin="0s;792c.click" /></path><path d="M53.24,45.25c0.22,0.92-0.06,2.21-0.64,2.9c-9.61,11.44-22.28,21.3-42,27.6" stroke-dasharray="54.034" stroke-dashoffset="54.034"><animate attributeName="stroke-dashoffset" values="54.034" fill="freeze" begin="792c.click" /><animate attributeName="stroke-dashoffset" values="54.034;54.034;0" keyTimes="0;0.873;1" dur="4.247s" fill="freeze" begin="0s;792c.click" /></path><path d="M65,53.24c5.81,4.56,19.38,14.67,25.19,17.72c1.98,1.04,2.66,1.19,3.56,1.29" stroke-dasharray="34.636" stroke-dashoffset="34.636"><animate attributeName="stroke-dashoffset" values="34.636" fill="freeze" begin="792c.click" /><animate attributeName="stroke-dashoffset" values="34.636;34.636;0" keyTimes="0;0.925;1" dur="4.593s" fill="freeze" begin="0s;792c.click" /></path><path d="M36.39,67.89c0.94,0.3,3.05,0.39,3.98,0.3c11.81-1.07,13.73-2.16,27.9-2.34c1.57-0.02,2.51,0.14,3.3,0.3" stroke-dasharray="35.347" stroke-dashoffset="35.347"><animate attributeName="stroke-dashoffset" values="35.347" fill="freeze" begin="792c.click" /><animate attributeName="stroke-dashoffset" values="35.347;35.347;0" keyTimes="0;0.929;1" dur="4.946s" fill="freeze" begin="0s;792c.click" /></path><path d="M44.75,70c0.08,0.54,0.17,1.38-0.16,2.15c-1.96,4.54-13.2,14.5-28.59,20.6" stroke-dasharray="37.965" stroke-dashoffset="37.965"><animate attributeName="stroke-dashoffset" values="37.965" fill="freeze" begin="792c.click" /><animate attributeName="stroke-dashoffset" values="37.965;37.965;0" keyTimes="0;0.929;1" dur="5.326s" fill="freeze" begin="0s;792c.click" /></path><path d="M37.6,80.11c0.52,0.35,1.19,1.75,1.28,2.2c0.71,3.32,1.5,9.66,2.5,15.94" stroke-dasharray="18.716" stroke-dashoffset="18.716"><animate attributeName="stroke-dashoffset" values="18.716" fill="freeze" begin="792c.click" /><animate attributeName="stroke-dashoffset" values="18.716;18.716;0" keyTimes="0;0.966;1" dur="5.513s" fill="freeze" begin="0s;792c.click" /></path><path d="M39.61,81.36c7.95-0.67,26.47-2.88,31.89-2.99c2.24-0.04,2.63,1.71,2.37,2.71c-0.82,3.1-1.82,7.22-3,12.99" stroke-dasharray="49.622" stroke-dashoffset="49.622"><animate attributeName="stroke-dashoffset" values="49.622" fill="freeze" begin="792c.click" /><animate attributeName="stroke-dashoffset" values="49.622;49.622;0" keyTimes="0;0.917;1" dur="6.009s" fill="freeze" begin="0s;792c.click" /></path><path d="M41.86,96.18c6.35-0.34,24.05-1.96,32.16-2.06" stroke-dasharray="32.23" stroke-dashoffset="32.23"><animate attributeName="stroke-dashoffset" values="32.23" fill="freeze" begin="792c.click" /><animate attributeName="stroke-dashoffset" values="32.23;32.23;0" keyTimes="0;0.949;1" dur="6.331s" fill="freeze" begin="0s;792c.click" /></path></g></svg>