<svg xmlns="http://www.w3.org/2000/svg" width="109" height="109" viewBox="0 0 109 109" id="793b"><g fill="none" stroke="#666" stroke-width="9" stroke-linecap="round" stroke-linejoin="round"><g><path d="M45,7.5c5.8,2.21,12.03,5.51,17,9.38" /><path d="M29,33.22c3.12,1.53,5.62,1.58,8.81,0.98c7.72-1.47,24.61-5.65,27.91-6.52c3.86-1.01,5.65,1.54,3.41,4.61C59.75,45.12,42.5,63,24.91,74.62" /><path d="M53.42,53.37c0.92,0.92,1.02,2.27,1.02,4.14c0,7.13-0.04,24.19-0.06,34.37c-0.01,3.38-0.01,6-0.01,7.25" /><path d="M57.5,53.75C73,61.62,80.62,68,84.88,75.62" /></g></g><g fill="none" stroke="#000" stroke-width="5" stroke-linecap="round" stroke-linejoin="round"><g><path d="M45,7.5c5.8,2.21,12.03,5.51,17,9.38" stroke-dasharray="19.48" stroke-dashoffset="19.48"><animate id="0" attributeName="stroke-dashoffset" values="19.48;0" dur="0.19s" fill="freeze" begin="0s;793b.click" /></path><path d="M29,33.22c3.12,1.53,5.62,1.58,8.81,0.98c7.72-1.47,24.61-5.65,27.91-6.52c3.86-1.01,5.65,1.54,3.41,4.61C59.75,45.12,42.5,63,24.91,74.62" stroke-dasharray="107.66" stroke-dashoffset="107.66"><animate attributeName="stroke-dashoffset" values="107.66" fill="freeze" begin="793b.click" /><animate id="1" attributeName="stroke-dashoffset" values="107.66;0" dur="0.81s" fill="freeze" begin="0.end" /></path><path d="M53.42,53.37c0.92,0.92,1.02,2.27,1.02,4.14c0,7.13-0.04,24.19-0.06,34.37c-0.01,3.38-0.01,6-0.01,7.25" stroke-dasharray="46" stroke-dashoffset="46"><animate attributeName="stroke-dashoffset" values="46" fill="freeze" begin="793b.click" /><animate id="2" attributeName="stroke-dashoffset" values="46;0" dur="0.46s" fill="freeze" begin="1.end" /></path><path d="M57.5,53.75C73,61.62,80.62,68,84.88,75.62" stroke-dasharray="35.56" stroke-dashoffset="35.56"><animate attributeName="stroke-dashoffset" values="35.56" fill="freeze" begin="793b.click" /><animate id="3" attributeName="stroke-dashoffset" values="35.56;0" dur="0.36s" fill="freeze" begin="2.end" /></path></g></g></svg>