<svg xmlns="http://www.w3.org/2000/svg" width="109" height="109" viewBox="0 0 109 109" id="793c"><g fill="none" stroke="#666" stroke-width="9" stroke-linecap="round" stroke-linejoin="round"><g><g><path d="M29.08,14.12c3.93,2.24,8.13,6.21,11.5,10.12" /><path d="M15.36,39.25c1.04,0.45,3.14,0.91,4.93,0.7c5.75-0.69,20.57-4.37,22.55-4.95c2.59-0.75,4.09,1.26,2.51,3.5C39.91,46.25,26.38,64.38,14.5,74" /><path d="M35,54.86c0.88,0.88,1.52,2.27,1.52,4.14c0,8.67-0.01,23.85-0.02,31.75c0,2.35,0,4.05,0,4.75" /><path d="M39.2,56.5c3.71,2.41,7.69,6.03,10.88,10.25" /></g><g p4:phon="乙" xmlns:p4="http://kanjivg.tagaini.net"><path d="M67.24,17.37c1.01,1.01,1.49,2.88,1.49,4.43c0,8.19-0.13,49.14-0.13,54.7c0,9.88,2.15,12.03,12.96,12.03C93,88.53,94.89,87,94.89,78.9" /></g></g></g><g fill="none" stroke="#000" stroke-width="5" stroke-linecap="round" stroke-linejoin="round"><g><g><path d="M29.08,14.12c3.93,2.24,8.13,6.21,11.5,10.12" stroke-dasharray="15.39" stroke-dashoffset="15.39"><animate id="0" attributeName="stroke-dashoffset" values="15.39;0" dur="0.15s" fill="freeze" begin="0s;793c.click" /></path><path d="M15.36,39.25c1.04,0.45,3.14,0.91,4.93,0.7c5.75-0.69,20.57-4.37,22.55-4.95c2.59-0.75,4.09,1.26,2.51,3.5C39.91,46.25,26.38,64.38,14.5,74" stroke-dasharray="81.44" stroke-dashoffset="81.44"><animate attributeName="stroke-dashoffset" values="81.44" fill="freeze" begin="793c.click" /><animate id="1" attributeName="stroke-dashoffset" values="81.44;0" dur="0.61s" fill="freeze" begin="0.end" /></path><path d="M35,54.86c0.88,0.88,1.52,2.27,1.52,4.14c0,8.67-0.01,23.85-0.02,31.75c0,2.35,0,4.05,0,4.75" stroke-dasharray="41.03" stroke-dashoffset="41.03"><animate attributeName="stroke-dashoffset" values="41.03" fill="freeze" begin="793c.click" /><animate id="2" attributeName="stroke-dashoffset" values="41.03;0" dur="0.41s" fill="freeze" begin="1.end" /></path><path d="M39.2,56.5c3.71,2.41,7.69,6.03,10.88,10.25" stroke-dasharray="15.02" stroke-dashoffset="15.02"><animate attributeName="stroke-dashoffset" values="15.02" fill="freeze" begin="793c.click" /><animate id="3" attributeName="stroke-dashoffset" values="15.02;0" dur="0.15s" fill="freeze" begin="2.end" /></path></g><g p4:phon="乙" xmlns:p4="http://kanjivg.tagaini.net"><path d="M67.24,17.37c1.01,1.01,1.49,2.88,1.49,4.43c0,8.19-0.13,49.14-0.13,54.7c0,9.88,2.15,12.03,12.96,12.03C93,88.53,94.89,87,94.89,78.9" stroke-dasharray="100.56" stroke-dashoffset="100.56"><animate attributeName="stroke-dashoffset" values="100.56" fill="freeze" begin="793c.click" /><animate id="4" attributeName="stroke-dashoffset" values="100.56;0" dur="0.76s" fill="freeze" begin="3.end" /></path></g></g></g></svg>