<svg xmlns="http://www.w3.org/2000/svg" width="109" height="109" viewBox="0 0 109 109" id="7955"><g fill="none" stroke="#666" stroke-width="9" stroke-linecap="round" stroke-linejoin="round"><g><g><g><path d="M14.5,18.32c0.83,0.38,2.35,0.42,3.19,0.38c5.22-0.26,13.6-1.35,18.89-1.7c1.38-0.09,2.22,0.18,2.91,0.37" /><path d="M11.88,36.14c1.12,0.4,3.16,0.39,4.27,0.32c6.98-0.47,17.62-1.59,25.66-2.28c1.85-0.16,2.97,0.13,3.9,0.32" /></g><g><path d="M27.15,37.43c0.48,0.42,0.77,1.89,0.87,2.74c0.1,0.84,0,49.82-0.1,55.08" /><path d="M17.51,49.39c0.5,1.4,0.49,2.12,0.49,3.3c0,8.64-0.98,20.47-8.44,31.53" /><path d="M38.82,45.75c0.65,0.41,1.04,1.86,1.17,2.69c0.13,0.83,0,25.73-0.13,30.89" /></g></g><g><g><path d="M66.25,31.75c1.61,6.95,4.84,12.07,5.68,6.01" /><g><path d="M86.62,20.68c0.38,1.06,0.79,1.83,0.28,4.23C83.25,42,70.5,74.5,41.71,92.72" /></g><g><path d="M55.68,35.62c0.56,1.16,1.45,2.31,1.65,3.44c5.5,30.85,11.99,45.76,31.13,51.66c10.01,3.08,10.98-0.26,4.35-9.9" /><path d="M51.26,48.57c0.28,3.24-2.77,17.57-4.99,22.98" /><path d="M87.56,45.42c5.05,3.27,11.04,9.96,12.94,16.33" /></g></g></g></g></g><g fill="none" stroke="#000" stroke-width="5" stroke-linecap="round" stroke-linejoin="round"><path d="M14.5,18.32c0.83,0.38,2.35,0.42,3.19,0.38c5.22-0.26,13.6-1.35,18.89-1.7c1.38-0.09,2.22,0.18,2.91,0.37" stroke-dasharray="25.156" stroke-dashoffset="25.156"><animate attributeName="stroke-dashoffset" values="25.156;25.156;0" dur="0.252s" fill="freeze" begin="0s;7955.click" /></path><path d="M11.88,36.14c1.12,0.4,3.16,0.39,4.27,0.32c6.98-0.47,17.62-1.59,25.66-2.28c1.85-0.16,2.97,0.13,3.9,0.32" stroke-dasharray="33.998" stroke-dashoffset="33.998"><animate attributeName="stroke-dashoffset" values="33.998" fill="freeze" begin="7955.click" /><animate attributeName="stroke-dashoffset" values="33.998;33.998;0" keyTimes="0;0.426;1" dur="0.592s" fill="freeze" begin="0s;7955.click" /></path><path d="M27.15,37.43c0.48,0.42,0.77,1.89,0.87,2.74c0.1,0.84,0,49.82-0.1,55.08" stroke-dasharray="57.997" stroke-dashoffset="57.997"><animate attributeName="stroke-dashoffset" values="57.997" fill="freeze" begin="7955.click" /><animate attributeName="stroke-dashoffset" values="57.997;57.997;0" keyTimes="0;0.505;1" dur="1.172s" fill="freeze" begin="0s;7955.click" /></path><path d="M17.51,49.39c0.5,1.4,0.49,2.12,0.49,3.3c0,8.64-0.98,20.47-8.44,31.53" stroke-dasharray="36.515" stroke-dashoffset="36.515"><animate attributeName="stroke-dashoffset" values="36.515" fill="freeze" begin="7955.click" /><animate attributeName="stroke-dashoffset" values="36.515;36.515;0" keyTimes="0;0.763;1" dur="1.537s" fill="freeze" begin="0s;7955.click" /></path><path d="M38.82,45.75c0.65,0.41,1.04,1.86,1.17,2.69c0.13,0.83,0,25.73-0.13,30.89" stroke-dasharray="33.891" stroke-dashoffset="33.891"><animate attributeName="stroke-dashoffset" values="33.891" fill="freeze" begin="7955.click" /><animate attributeName="stroke-dashoffset" values="33.891;33.891;0" keyTimes="0;0.819;1" dur="1.876s" fill="freeze" begin="0s;7955.click" /></path><path d="M66.25,31.75c1.61,6.95,4.84,12.07,5.68,6.01" stroke-dasharray="13.246" stroke-dashoffset="13.246"><animate attributeName="stroke-dashoffset" values="13.246" fill="freeze" begin="7955.click" /><animate attributeName="stroke-dashoffset" values="13.246;13.246;0" keyTimes="0;0.934;1" dur="2.008s" fill="freeze" begin="0s;7955.click" /></path><path d="M86.62,20.68c0.38,1.06,0.79,1.83,0.28,4.23C83.25,42,70.5,74.5,41.71,92.72" stroke-dasharray="87.845" stroke-dashoffset="87.845"><animate attributeName="stroke-dashoffset" values="87.845" fill="freeze" begin="7955.click" /><animate attributeName="stroke-dashoffset" values="87.845;87.845;0" keyTimes="0;0.753;1" dur="2.668s" fill="freeze" begin="0s;7955.click" /></path><path d="M55.68,35.62c0.56,1.16,1.45,2.31,1.65,3.44c5.5,30.85,11.99,45.76,31.13,51.66c10.01,3.08,10.98-0.26,4.35-9.9" stroke-dasharray="87.692" stroke-dashoffset="87.692"><animate attributeName="stroke-dashoffset" values="87.692" fill="freeze" begin="7955.click" /><animate attributeName="stroke-dashoffset" values="87.692;87.692;0" keyTimes="0;0.802;1" dur="3.327s" fill="freeze" begin="0s;7955.click" /></path><path d="M51.26,48.57c0.28,3.24-2.77,17.57-4.99,22.98" stroke-dasharray="23.598" stroke-dashoffset="23.598"><animate attributeName="stroke-dashoffset" values="23.598" fill="freeze" begin="7955.click" /><animate attributeName="stroke-dashoffset" values="23.598;23.598;0" keyTimes="0;0.934;1" dur="3.563s" fill="freeze" begin="0s;7955.click" /></path><path d="M87.56,45.42c5.05,3.27,11.04,9.96,12.94,16.33" stroke-dasharray="21.202" stroke-dashoffset="21.202"><animate attributeName="stroke-dashoffset" values="21.202" fill="freeze" begin="7955.click" /><animate attributeName="stroke-dashoffset" values="21.202;21.202;0" keyTimes="0;0.944;1" dur="3.775s" fill="freeze" begin="0s;7955.click" /></path></g></svg>