<svg xmlns="http://www.w3.org/2000/svg" width="109" height="109" viewBox="0 0 109 109" id="795e"><g fill="none" stroke="#666" stroke-width="9" stroke-linecap="round" stroke-linejoin="round"><g><g><path d="M27.5,16.25c3.33,1.82,7.25,5,9.25,7.5" /><path d="M14.25,39c2,0.75,3.14,0.81,5.25,0.5c4.25-0.62,13-2.75,17.5-4.25c2.48-0.83,3.89,1.18,2.5,3.5c-5.25,8.75-17.5,23.5-29.25,31.5" /><path d="M31.43,51.87c0.73,0.73,1.38,1.78,1.38,3.64c0,9.81,0.02,25.74,0.02,33.62c0,2.16,0,3.72,0,4.37" /><path d="M33.75,50.62c4.51,2.61,10.38,7.05,14.25,11.62" /></g><g p4:phon="申" xmlns:p4="http://kanjivg.tagaini.net"><g p4:partial><path d="M51.5,30.24c0.88,0.88,1.62,2,1.73,2.76c1.02,7.12,2.54,18.05,3.43,28.36c0.11,1.27,0.21,2.53,0.29,3.77" /><path d="M53.94,31.67c14.58-2.39,28.61-4.67,36.95-5.45c3.64-0.34,6.23,0.81,5.79,4.8c-0.66,5.93-2.39,17.44-4.34,26.25c-0.24,1.07-0.48,2.1-0.72,3.07" /><path d="M56.21,45.72c3.52-0.3,33.67-3.22,37.86-3.47" /><path d="M58.01,61.78C68,61,79,59.75,90.8,59.18" /></g><g><path d="M72.87,10.25c1.07,1.06,1.71,2.75,1.71,4.5c0,3.63-0.17,55.28-0.21,77.5c-0.01,3.03-0.01,5.51-0.01,7.25" /></g></g></g></g><g fill="none" stroke="#000" stroke-width="5" stroke-linecap="round" stroke-linejoin="round"><g><g><path d="M27.5,16.25c3.33,1.82,7.25,5,9.25,7.5" stroke-dasharray="11.97" stroke-dashoffset="11.97"><animate id="0" attributeName="stroke-dashoffset" values="11.97;0" dur="0.12s" fill="freeze" begin="0s;795e.click" /></path><path d="M14.25,39c2,0.75,3.14,0.81,5.25,0.5c4.25-0.62,13-2.75,17.5-4.25c2.48-0.83,3.89,1.18,2.5,3.5c-5.25,8.75-17.5,23.5-29.25,31.5" stroke-dasharray="72.69" stroke-dashoffset="72.69"><animate attributeName="stroke-dashoffset" values="72.69" fill="freeze" begin="795e.click" /><animate id="1" attributeName="stroke-dashoffset" values="72.69;0" dur="0.55s" fill="freeze" begin="0.end" /></path><path d="M31.43,51.87c0.73,0.73,1.38,1.78,1.38,3.64c0,9.81,0.02,25.74,0.02,33.62c0,2.16,0,3.72,0,4.37" stroke-dasharray="42" stroke-dashoffset="42"><animate attributeName="stroke-dashoffset" values="42" fill="freeze" begin="795e.click" /><animate id="2" attributeName="stroke-dashoffset" values="42;0" dur="0.42s" fill="freeze" begin="1.end" /></path><path d="M33.75,50.62c4.51,2.61,10.38,7.05,14.25,11.62" stroke-dasharray="18.47" stroke-dashoffset="18.47"><animate attributeName="stroke-dashoffset" values="18.47" fill="freeze" begin="795e.click" /><animate id="3" attributeName="stroke-dashoffset" values="18.47;0" dur="0.18s" fill="freeze" begin="2.end" /></path></g><g p4:phon="申" xmlns:p4="http://kanjivg.tagaini.net"><g p4:partial><path d="M51.5,30.24c0.88,0.88,1.62,2,1.73,2.76c1.02,7.12,2.54,18.05,3.43,28.36c0.11,1.27,0.21,2.53,0.29,3.77" stroke-dasharray="35.65" stroke-dashoffset="35.65"><animate attributeName="stroke-dashoffset" values="35.65" fill="freeze" begin="795e.click" /><animate id="4" attributeName="stroke-dashoffset" values="35.65;0" dur="0.36s" fill="freeze" begin="3.end" /></path><path d="M53.94,31.67c14.58-2.39,28.61-4.67,36.95-5.45c3.64-0.34,6.23,0.81,5.79,4.8c-0.66,5.93-2.39,17.44-4.34,26.25c-0.24,1.07-0.48,2.1-0.72,3.07" stroke-dasharray="76.18" stroke-dashoffset="76.18"><animate attributeName="stroke-dashoffset" values="76.18" fill="freeze" begin="795e.click" /><animate id="5" attributeName="stroke-dashoffset" values="76.18;0" dur="0.57s" fill="freeze" begin="4.end" /></path><path d="M56.21,45.72c3.52-0.3,33.67-3.22,37.86-3.47" stroke-dasharray="38.02" stroke-dashoffset="38.02"><animate attributeName="stroke-dashoffset" values="38.02" fill="freeze" begin="795e.click" /><animate id="6" attributeName="stroke-dashoffset" values="38.02;0" dur="0.38s" fill="freeze" begin="5.end" /></path><path d="M58.01,61.78C68,61,79,59.75,90.8,59.18" stroke-dasharray="32.9" stroke-dashoffset="32.9"><animate attributeName="stroke-dashoffset" values="32.9" fill="freeze" begin="795e.click" /><animate id="7" attributeName="stroke-dashoffset" values="32.9;0" dur="0.33s" fill="freeze" begin="6.end" /></path></g><g><path d="M72.87,10.25c1.07,1.06,1.71,2.75,1.71,4.5c0,3.63-0.17,55.28-0.21,77.5c-0.01,3.03-0.01,5.51-0.01,7.25" stroke-dasharray="89.69" stroke-dashoffset="89.69"><animate attributeName="stroke-dashoffset" values="89.69" fill="freeze" begin="795e.click" /><animate id="8" attributeName="stroke-dashoffset" values="89.69;0" dur="0.67s" fill="freeze" begin="7.end" /></path></g></g></g></g></svg>