<svg xmlns="http://www.w3.org/2000/svg" width="109" height="109" viewBox="0 0 109 109" id="7968"><g fill="none" stroke="#666" stroke-width="9" stroke-linecap="round" stroke-linejoin="round"><g><g><g><path d="M28.5,15.64c2.44,0.78,4.88,0.62,7.38,0.42c8.7-0.7,25.9-2.6,34.5-3.25c2.45-0.19,4.88-0.19,7.25,0.19" /><path d="M24,29.69c0.84,0.55,1.35,1.32,1.51,2.31c1.05,3.12,2.19,8.57,3.04,13.2c0.2,1.06,0.38,2.08,0.54,3.02" /><path d="M26.54,31.03c11.21-1.4,41.58-4.53,55.08-5.32c3.31-0.19,6.16-0.08,5.05,3.95c-0.92,3.33-1.95,6.79-3.64,11.64c-0.37,1.08-0.78,2.22-1.22,3.45" /><path d="M41.37,19c1,1,1.82,2.24,1.96,3.25c0.42,3,1.92,14.12,2.67,21.5" /><path d="M65.12,17c0.63,1.12,0.75,3,0.38,4.75c-0.86,4.03-2.25,11.38-4.5,20.5" /><path d="M30,46.37c12-1,40-3.37,51.45-3.63" /></g></g><g><g><path d="M38.34,56.34c1.13,0.35,3.21,0.44,4.34,0.35c7.21-0.6,16.2-2.19,23.84-2.52c1.88-0.08,3.02,0.17,3.96,0.34" /><path d="M19.5,70.11c2.01,0.49,5.69,0.67,7.69,0.49c16.69-1.48,38.81-4.1,56.06-5c3.34-0.17,5.35,0.23,7.02,0.48" /></g><g><path d="M53.77,70.72c1.07,1.07,1.74,2.41,1.74,4.2C55.51,82,55.5,88.11,55.5,93c0,6.75-3.81,2.81-6.34,0.29" /><path d="M34.3,79.32c0.04,0.37-0.05,1.26-0.33,1.75C32,84.5,26.3,90.14,18.75,94.38" /><path d="M73.9,78.17c5.06,2.48,12.35,9.08,14.6,13.76" /></g></g></g></g><g fill="none" stroke="#000" stroke-width="5" stroke-linecap="round" stroke-linejoin="round"><g><g><g><path d="M28.5,15.64c2.44,0.78,4.88,0.62,7.38,0.42c8.7-0.7,25.9-2.6,34.5-3.25c2.45-0.19,4.88-0.19,7.25,0.19" stroke-dasharray="49.37" stroke-dashoffset="49.37"><animate id="0" attributeName="stroke-dashoffset" values="49.37;0" dur="0.49s" fill="freeze" begin="0s;7968.click" /></path><path d="M24,29.69c0.84,0.55,1.35,1.32,1.51,2.31c1.05,3.12,2.19,8.57,3.04,13.2c0.2,1.06,0.38,2.08,0.54,3.02" stroke-dasharray="19.47" stroke-dashoffset="19.47"><animate attributeName="stroke-dashoffset" values="19.47" fill="freeze" begin="7968.click" /><animate id="1" attributeName="stroke-dashoffset" values="19.47;0" dur="0.19s" fill="freeze" begin="0.end" /></path><path d="M26.54,31.03c11.21-1.4,41.58-4.53,55.08-5.32c3.31-0.19,6.16-0.08,5.05,3.95c-0.92,3.33-1.95,6.79-3.64,11.64c-0.37,1.08-0.78,2.22-1.22,3.45" stroke-dasharray="79.45" stroke-dashoffset="79.45"><animate attributeName="stroke-dashoffset" values="79.45" fill="freeze" begin="7968.click" /><animate id="2" attributeName="stroke-dashoffset" values="79.45;0" dur="0.6s" fill="freeze" begin="1.end" /></path><path d="M41.37,19c1,1,1.82,2.24,1.96,3.25c0.42,3,1.92,14.12,2.67,21.5" stroke-dasharray="25.52" stroke-dashoffset="25.52"><animate attributeName="stroke-dashoffset" values="25.52" fill="freeze" begin="7968.click" /><animate id="3" attributeName="stroke-dashoffset" values="25.52;0" dur="0.26s" fill="freeze" begin="2.end" /></path><path d="M65.12,17c0.63,1.12,0.75,3,0.38,4.75c-0.86,4.03-2.25,11.38-4.5,20.5" stroke-dasharray="25.85" stroke-dashoffset="25.85"><animate attributeName="stroke-dashoffset" values="25.85" fill="freeze" begin="7968.click" /><animate id="4" attributeName="stroke-dashoffset" values="25.85;0" dur="0.26s" fill="freeze" begin="3.end" /></path><path d="M30,46.37c12-1,40-3.37,51.45-3.63" stroke-dasharray="51.58" stroke-dashoffset="51.58"><animate attributeName="stroke-dashoffset" values="51.58" fill="freeze" begin="7968.click" /><animate id="5" attributeName="stroke-dashoffset" values="51.58;0" dur="0.52s" fill="freeze" begin="4.end" /></path></g></g><g><g><path d="M38.34,56.34c1.13,0.35,3.21,0.44,4.34,0.35c7.21-0.6,16.2-2.19,23.84-2.52c1.88-0.08,3.02,0.17,3.96,0.34" stroke-dasharray="32.34" stroke-dashoffset="32.34"><animate attributeName="stroke-dashoffset" values="32.34" fill="freeze" begin="7968.click" /><animate id="6" attributeName="stroke-dashoffset" values="32.34;0" dur="0.32s" fill="freeze" begin="5.end" /></path><path d="M19.5,70.11c2.01,0.49,5.69,0.67,7.69,0.49c16.69-1.48,38.81-4.1,56.06-5c3.34-0.17,5.35,0.23,7.02,0.48" stroke-dasharray="71.07" stroke-dashoffset="71.07"><animate attributeName="stroke-dashoffset" values="71.07" fill="freeze" begin="7968.click" /><animate id="7" attributeName="stroke-dashoffset" values="71.07;0" dur="0.53s" fill="freeze" begin="6.end" /></path></g><g><path d="M53.77,70.72c1.07,1.07,1.74,2.41,1.74,4.2C55.51,82,55.5,88.11,55.5,93c0,6.75-3.81,2.81-6.34,0.29" stroke-dasharray="33.21" stroke-dashoffset="33.21"><animate attributeName="stroke-dashoffset" values="33.21" fill="freeze" begin="7968.click" /><animate id="8" attributeName="stroke-dashoffset" values="33.21;0" dur="0.33s" fill="freeze" begin="7.end" /></path><path d="M34.3,79.32c0.04,0.37-0.05,1.26-0.33,1.75C32,84.5,26.3,90.14,18.75,94.38" stroke-dasharray="22.21" stroke-dashoffset="22.21"><animate attributeName="stroke-dashoffset" values="22.21" fill="freeze" begin="7968.click" /><animate id="9" attributeName="stroke-dashoffset" values="22.21;0" dur="0.22s" fill="freeze" begin="8.end" /></path><path d="M73.9,78.17c5.06,2.48,12.35,9.08,14.6,13.76" stroke-dasharray="20.32" stroke-dashoffset="20.32"><animate attributeName="stroke-dashoffset" values="20.32" fill="freeze" begin="7968.click" /><animate id="10" attributeName="stroke-dashoffset" values="20.32;0" dur="0.2s" fill="freeze" begin="9.end" /></path></g></g></g></g></svg>