<svg xmlns="http://www.w3.org/2000/svg" width="109" height="109" viewBox="0 0 109 109" id="7985"><g fill="none" stroke="#666" stroke-width="9" stroke-linecap="round" stroke-linejoin="round"><g><g><path d="M26.75,12.75c2.93,2.47,6.07,6.17,8.58,10.5" /><path d="M13.33,36.25c1.8,0.8,5.02,0.66,6.92,0.24c4.47-0.97,14.75-3.37,16.83-3.99c2.5-0.75,4.02,1.51,2.5,3.75c-5.25,7.75-17,23-25.75,30.75" /><path d="M28,53.36c0.88,0.88,1.27,2.26,1.27,3.89c0,8.92,0.03,24.29,0.05,33.5c0,2.41,0.01,4.4,0.01,5.75" /><path d="M32.58,49.5c3.33,2.53,6.9,6.32,9.75,10.75" /></g><g p4:phon="単" xmlns:p4="http://kanjivg.tagaini.net"><g><path d="M48.57,17.4c2.93,3.51,6.06,9.64,6.48,11.39" /><path d="M64.51,12.75c1.42,2.34,4.81,8.49,5.38,12.29" /><path d="M89.32,11.75c0.31,1,0.06,2-0.51,3.03c-1.57,2.84-4.68,7.35-7.62,10.35" /></g><g p4:part="1"><g p4:partial><path d="M48.77,34.41c0.85,0.59,1.6,1.47,1.95,3.07c0.93,4.33,2.37,12.77,3.27,18.38c0.44,2.78,0.75,4.86,0.8,5.41" /><path d="M51.09,35.75c9.96-1.5,25.46-3.03,33.4-3.89c4.73-0.52,6.03,1.14,5.41,5.77C89.3,42.14,88,49.54,87.1,54.07c-0.44,2.2-1.04,3.84-1.17,4.39" /><path d="M53.74,46.72c9.76-1.1,25.26-2.47,33.97-2.81" /><path d="M55.79,58.56c6.96-0.81,20.09-1.81,30.47-2.29" /></g><g><path d="M44.34,71.11c2.82,0.64,5.72,0.27,8.56,0c9.45-0.89,23.11-2.29,35.23-3.06c3.58-0.23,7.25-0.3,10.29,0.48" /></g><g p4:part="2"><g><path d="M68.71,35.49c1.03,1.03,1.25,2.26,1.25,3.58c0,6.62-0.1,36.92-0.04,51.69c0.02,4.37,0.03,7.37,0.04,8.01" /></g></g></g></g></g></g><g fill="none" stroke="#000" stroke-width="5" stroke-linecap="round" stroke-linejoin="round"><g><g><path d="M26.75,12.75c2.93,2.47,6.07,6.17,8.58,10.5" stroke-dasharray="13.62" stroke-dashoffset="13.62"><animate id="0" attributeName="stroke-dashoffset" values="13.62;0" dur="0.14s" fill="freeze" begin="0s;7985.click" /></path><path d="M13.33,36.25c1.8,0.8,5.02,0.66,6.92,0.24c4.47-0.97,14.75-3.37,16.83-3.99c2.5-0.75,4.02,1.51,2.5,3.75c-5.25,7.75-17,23-25.75,30.75" stroke-dasharray="70.76" stroke-dashoffset="70.76"><animate attributeName="stroke-dashoffset" values="70.76" fill="freeze" begin="7985.click" /><animate id="1" attributeName="stroke-dashoffset" values="70.76;0" dur="0.53s" fill="freeze" begin="0.end" /></path><path d="M28,53.36c0.88,0.88,1.27,2.26,1.27,3.89c0,8.92,0.03,24.29,0.05,33.5c0,2.41,0.01,4.4,0.01,5.75" stroke-dasharray="43.45" stroke-dashoffset="43.45"><animate attributeName="stroke-dashoffset" values="43.45" fill="freeze" begin="7985.click" /><animate id="2" attributeName="stroke-dashoffset" values="43.45;0" dur="0.43s" fill="freeze" begin="1.end" /></path><path d="M32.58,49.5c3.33,2.53,6.9,6.32,9.75,10.75" stroke-dasharray="14.58" stroke-dashoffset="14.58"><animate attributeName="stroke-dashoffset" values="14.58" fill="freeze" begin="7985.click" /><animate id="3" attributeName="stroke-dashoffset" values="14.58;0" dur="0.15s" fill="freeze" begin="2.end" /></path></g><g p4:phon="単" xmlns:p4="http://kanjivg.tagaini.net"><g><path d="M48.57,17.4c2.93,3.51,6.06,9.64,6.48,11.39" stroke-dasharray="13.16" stroke-dashoffset="13.16"><animate attributeName="stroke-dashoffset" values="13.16" fill="freeze" begin="7985.click" /><animate id="4" attributeName="stroke-dashoffset" values="13.16;0" dur="0.13s" fill="freeze" begin="3.end" /></path><path d="M64.51,12.75c1.42,2.34,4.81,8.49,5.38,12.29" stroke-dasharray="13.48" stroke-dashoffset="13.48"><animate attributeName="stroke-dashoffset" values="13.48" fill="freeze" begin="7985.click" /><animate id="5" attributeName="stroke-dashoffset" values="13.48;0" dur="0.13s" fill="freeze" begin="4.end" /></path><path d="M89.32,11.75c0.31,1,0.06,2-0.51,3.03c-1.57,2.84-4.68,7.35-7.62,10.35" stroke-dasharray="16.05" stroke-dashoffset="16.05"><animate attributeName="stroke-dashoffset" values="16.05" fill="freeze" begin="7985.click" /><animate id="6" attributeName="stroke-dashoffset" values="16.05;0" dur="0.16s" fill="freeze" begin="5.end" /></path></g><g p4:part="1"><g p4:partial><path d="M48.77,34.41c0.85,0.59,1.6,1.47,1.95,3.07c0.93,4.33,2.37,12.77,3.27,18.38c0.44,2.78,0.75,4.86,0.8,5.41" stroke-dasharray="27.87" stroke-dashoffset="27.87"><animate attributeName="stroke-dashoffset" values="27.87" fill="freeze" begin="7985.click" /><animate id="7" attributeName="stroke-dashoffset" values="27.87;0" dur="0.28s" fill="freeze" begin="6.end" /></path><path d="M51.09,35.75c9.96-1.5,25.46-3.03,33.4-3.89c4.73-0.52,6.03,1.14,5.41,5.77C89.3,42.14,88,49.54,87.1,54.07c-0.44,2.2-1.04,3.84-1.17,4.39" stroke-dasharray="64.85" stroke-dashoffset="64.85"><animate attributeName="stroke-dashoffset" values="64.85" fill="freeze" begin="7985.click" /><animate id="8" attributeName="stroke-dashoffset" values="64.85;0" dur="0.49s" fill="freeze" begin="7.end" /></path><path d="M53.74,46.72c9.76-1.1,25.26-2.47,33.97-2.81" stroke-dasharray="34.09" stroke-dashoffset="34.09"><animate attributeName="stroke-dashoffset" values="34.09" fill="freeze" begin="7985.click" /><animate id="9" attributeName="stroke-dashoffset" values="34.09;0" dur="0.34s" fill="freeze" begin="8.end" /></path><path d="M55.79,58.56c6.96-0.81,20.09-1.81,30.47-2.29" stroke-dasharray="30.56" stroke-dashoffset="30.56"><animate attributeName="stroke-dashoffset" values="30.56" fill="freeze" begin="7985.click" /><animate id="10" attributeName="stroke-dashoffset" values="30.56;0" dur="0.31s" fill="freeze" begin="9.end" /></path></g><g><path d="M44.34,71.11c2.82,0.64,5.72,0.27,8.56,0c9.45-0.89,23.11-2.29,35.23-3.06c3.58-0.23,7.25-0.3,10.29,0.48" stroke-dasharray="54.31" stroke-dashoffset="54.31"><animate attributeName="stroke-dashoffset" values="54.31" fill="freeze" begin="7985.click" /><animate id="11" attributeName="stroke-dashoffset" values="54.31;0" dur="0.54s" fill="freeze" begin="10.end" /></path></g><g p4:part="2"><g><path d="M68.71,35.49c1.03,1.03,1.25,2.26,1.25,3.58c0,6.62-0.1,36.92-0.04,51.69c0.02,4.37,0.03,7.37,0.04,8.01" stroke-dasharray="63.6" stroke-dashoffset="63.6"><animate attributeName="stroke-dashoffset" values="63.6" fill="freeze" begin="7985.click" /><animate id="12" attributeName="stroke-dashoffset" values="63.6;0" dur="0.48s" fill="freeze" begin="11.end" /></path></g></g></g></g></g></g></svg>