<svg xmlns="http://www.w3.org/2000/svg" viewBox="0 0 109 109" id="79aa"><g fill="none" stroke="#666" stroke-width="6" stroke-linecap="round" stroke-linejoin="round"><g><g><g><path d="M16.75,20.4c0.79,0.12,2.22,0.08,3.01,0.03c4.9-0.31,12.76-1.08,17.73-1.43c1.3-0.09,2.09-0.01,2.75,0.04" /><path d="M10.15,35.73c1.16,0.23,3.25,0.17,4.4,0.1c7.19-0.49,18.13-1.81,26.41-2.47c1.9-0.15,3.05,0.01,4.01,0.11" /></g><g><path d="M27.56,36.43c0.83,0.45,1.52,2.03,1.52,2.95c0,19.69,0.41,39.44-0.17,59.12" /><path d="M17.18,48.89c0.58,1.41,0.56,2.13,0.56,3.32c0,8.71-1.13,20.64-9.75,31.78" /><path d="M38.81,44.75c1.19,0.44,1.91,1.97,2.14,2.84c0.24,0.87,0,27.2-0.24,32.66" /></g></g><g><g><g><path d="M48.5,16.68c0.36,0.31,0.76,0.56,0.87,0.98c1.01,3.62,2.36,8.78,3.37,14.1" /><path d="M49.96,17.37c5.8-0.79,10.78-1.36,16.13-2.16c1.34-0.2,2.15,0.92,1.96,1.83c-0.8,3.77-1.1,4.99-2.52,11.25" /><path d="M52.86,29.39c4.89-0.89,9.44-0.57,14.64-1.48" /></g><g><path d="M74.29,15.29c0.28,0.34,1.09,1.62,1.18,2.07c0.79,3.97,1.19,6.46,1.98,12.29" /><path d="M75.72,16.18c6.53-0.93,12.87-1.46,17.58-2.31c1.18-0.21,1.9,0.98,1.73,1.95c-0.7,4.01-1.53,6.68-2.47,11.02" /><path d="M78.23,28.57c4.38-0.32,9.38-1.07,15.84-1.21" /></g></g><g><g><g p7:partial xmlns:p7="http://kanjivg.tagaini.net"><path d="M51.25,38.5c0.32,0.55,0.91,1.52,1.08,2.21c1.43,5.68,3.26,17.1,4.16,27.64" /><path d="M53.75,40.73c10.3-1.96,27.82-3.52,34.92-4.52c2.61-0.37,4.18,0.79,4.1,3.26c-0.18,5.86-3.47,24.02-3.93,26.46" /><path d="M55.32,52.78c3.07-0.45,30.91-3.59,35.18-3.29" /><path d="M56.87,65.36c10.41-1.33,21.77-1.89,31.38-2.86" /></g></g><g><path d="M47.94,78.84c1.16,0.44,3.29,0.52,4.45,0.44c6.44-0.4,29.89-2.41,44.37-3.01c1.94-0.08,3.09,0.21,4.06,0.43" /></g><g><g><path d="M70.76,40.49c0.66,0.37,1.08,1.42,1.09,2.69c0.04,6.46,0.2,54.71,0.22,56.82" /></g></g></g></g></g></g><g fill="none" stroke="#000" stroke-width="3" stroke-linecap="round" stroke-linejoin="round"><path d="M16.75,20.4c0.79,0.12,2.22,0.08,3.01,0.03c4.9-0.31,12.76-1.08,17.73-1.43c1.3-0.09,2.09-0.01,2.75,0.04" stroke-dasharray="23.557" stroke-dashoffset="23.557"><animate attributeName="stroke-dashoffset" values="23.557;23.557;0" dur="0.236s" fill="freeze" begin="0s;79aa.click" /></path><path d="M10.15,35.73c1.16,0.23,3.25,0.17,4.4,0.1c7.19-0.49,18.13-1.81,26.41-2.47c1.9-0.15,3.05,0.01,4.01,0.11" stroke-dasharray="34.956" stroke-dashoffset="34.956"><animate attributeName="stroke-dashoffset" values="34.956" fill="freeze" begin="79aa.click" /><animate attributeName="stroke-dashoffset" values="34.956;34.956;0" keyTimes="0;0.403;1" dur="0.586s" fill="freeze" begin="0s;79aa.click" /></path><path d="M27.56,36.43c0.83,0.45,1.52,2.03,1.52,2.95c0,19.69,0.41,39.44-0.17,59.12" stroke-dasharray="62.556" stroke-dashoffset="62.556"><animate attributeName="stroke-dashoffset" values="62.556" fill="freeze" begin="79aa.click" /><animate attributeName="stroke-dashoffset" values="62.556;62.556;0" keyTimes="0;0.555;1" dur="1.056s" fill="freeze" begin="0s;79aa.click" /></path><path d="M17.18,48.89c0.58,1.41,0.56,2.13,0.56,3.32c0,8.71-1.13,20.64-9.75,31.78" stroke-dasharray="37.298" stroke-dashoffset="37.298"><animate attributeName="stroke-dashoffset" values="37.298" fill="freeze" begin="79aa.click" /><animate attributeName="stroke-dashoffset" values="37.298;37.298;0" keyTimes="0;0.739;1" dur="1.429s" fill="freeze" begin="0s;79aa.click" /></path><path d="M38.81,44.75c1.19,0.44,1.91,1.97,2.14,2.84c0.24,0.87,0,27.2-0.24,32.66" stroke-dasharray="36.344" stroke-dashoffset="36.344"><animate attributeName="stroke-dashoffset" values="36.344" fill="freeze" begin="79aa.click" /><animate attributeName="stroke-dashoffset" values="36.344;36.344;0" keyTimes="0;0.797;1" dur="1.792s" fill="freeze" begin="0s;79aa.click" /></path><path d="M48.5,16.68c0.36,0.31,0.76,0.56,0.87,0.98c1.01,3.62,2.36,8.78,3.37,14.1" stroke-dasharray="15.836" stroke-dashoffset="15.836"><animate attributeName="stroke-dashoffset" values="15.836" fill="freeze" begin="79aa.click" /><animate attributeName="stroke-dashoffset" values="15.836;15.836;0" keyTimes="0;0.919;1" dur="1.95s" fill="freeze" begin="0s;79aa.click" /></path><path d="M49.96,17.37c5.8-0.79,10.78-1.36,16.13-2.16c1.34-0.2,2.15,0.92,1.96,1.83c-0.8,3.77-1.1,4.99-2.52,11.25" stroke-dasharray="30.949" stroke-dashoffset="30.949"><animate attributeName="stroke-dashoffset" values="30.949" fill="freeze" begin="79aa.click" /><animate attributeName="stroke-dashoffset" values="30.949;30.949;0" keyTimes="0;0.863;1" dur="2.259s" fill="freeze" begin="0s;79aa.click" /></path><path d="M52.86,29.39c4.89-0.89,9.44-0.57,14.64-1.48" stroke-dasharray="14.725" stroke-dashoffset="14.725"><animate attributeName="stroke-dashoffset" values="14.725" fill="freeze" begin="79aa.click" /><animate attributeName="stroke-dashoffset" values="14.725;14.725;0" keyTimes="0;0.939;1" dur="2.406s" fill="freeze" begin="0s;79aa.click" /></path><path d="M74.29,15.29c0.28,0.34,1.09,1.62,1.18,2.07c0.79,3.97,1.19,6.46,1.98,12.29" stroke-dasharray="14.845" stroke-dashoffset="14.845"><animate attributeName="stroke-dashoffset" values="14.845" fill="freeze" begin="79aa.click" /><animate attributeName="stroke-dashoffset" values="14.845;14.845;0" keyTimes="0;0.942;1" dur="2.554s" fill="freeze" begin="0s;79aa.click" /></path><path d="M75.72,16.18c6.53-0.93,12.87-1.46,17.58-2.31c1.18-0.21,1.9,0.98,1.73,1.95c-0.7,4.01-1.53,6.68-2.47,11.02" stroke-dasharray="32.084" stroke-dashoffset="32.084"><animate attributeName="stroke-dashoffset" values="32.084" fill="freeze" begin="79aa.click" /><animate attributeName="stroke-dashoffset" values="32.084;32.084;0" keyTimes="0;0.888;1" dur="2.875s" fill="freeze" begin="0s;79aa.click" /></path><path d="M78.23,28.57c4.38-0.32,9.38-1.07,15.84-1.21" stroke-dasharray="15.891" stroke-dashoffset="15.891"><animate attributeName="stroke-dashoffset" values="15.891" fill="freeze" begin="79aa.click" /><animate attributeName="stroke-dashoffset" values="15.891;15.891;0" keyTimes="0;0.948;1" dur="3.034s" fill="freeze" begin="0s;79aa.click" /></path><path d="M51.25,38.5c0.32,0.55,0.91,1.52,1.08,2.21c1.43,5.68,3.26,17.1,4.16,27.64" stroke-dasharray="30.442" stroke-dashoffset="30.442"><animate attributeName="stroke-dashoffset" values="30.442" fill="freeze" begin="79aa.click" /><animate attributeName="stroke-dashoffset" values="30.442;30.442;0" keyTimes="0;0.909;1" dur="3.338s" fill="freeze" begin="0s;79aa.click" /></path><path d="M53.75,40.73c10.3-1.96,27.82-3.52,34.92-4.52c2.61-0.37,4.18,0.79,4.1,3.26c-0.18,5.86-3.47,24.02-3.93,26.46" stroke-dasharray="68.18" stroke-dashoffset="68.18"><animate attributeName="stroke-dashoffset" values="68.18" fill="freeze" begin="79aa.click" /><animate attributeName="stroke-dashoffset" values="68.18;68.18;0" keyTimes="0;0.867;1" dur="3.851s" fill="freeze" begin="0s;79aa.click" /></path><path d="M55.32,52.78c3.07-0.45,30.91-3.59,35.18-3.29" stroke-dasharray="35.349" stroke-dashoffset="35.349"><animate attributeName="stroke-dashoffset" values="35.349" fill="freeze" begin="79aa.click" /><animate attributeName="stroke-dashoffset" values="35.349;35.349;0" keyTimes="0;0.916;1" dur="4.204s" fill="freeze" begin="0s;79aa.click" /></path><path d="M56.87,65.36c10.41-1.33,21.77-1.89,31.38-2.86" stroke-dasharray="31.514" stroke-dashoffset="31.514"><animate attributeName="stroke-dashoffset" values="31.514" fill="freeze" begin="79aa.click" /><animate attributeName="stroke-dashoffset" values="31.514;31.514;0" keyTimes="0;0.93;1" dur="4.519s" fill="freeze" begin="0s;79aa.click" /></path><path d="M47.94,78.84c1.16,0.44,3.29,0.52,4.45,0.44c6.44-0.4,29.89-2.41,44.37-3.01c1.94-0.08,3.09,0.21,4.06,0.43" stroke-dasharray="53.07" stroke-dashoffset="53.07"><animate attributeName="stroke-dashoffset" values="53.07" fill="freeze" begin="79aa.click" /><animate attributeName="stroke-dashoffset" values="53.07;53.07;0" keyTimes="0;0.895;1" dur="5.05s" fill="freeze" begin="0s;79aa.click" /></path><path d="M70.76,40.49c0.66,0.37,1.08,1.42,1.09,2.69c0.04,6.46,0.2,54.71,0.22,56.82" stroke-dasharray="59.844" stroke-dashoffset="59.844"><animate attributeName="stroke-dashoffset" values="59.844" fill="freeze" begin="79aa.click" /><animate attributeName="stroke-dashoffset" values="59.844;59.844;0" keyTimes="0;0.894;1" dur="5.648s" fill="freeze" begin="0s;79aa.click" /></path></g></svg>