<svg xmlns="http://www.w3.org/2000/svg" width="109" height="109" viewBox="0 0 109 109" id="79ae"><g fill="none" stroke="#666" stroke-width="9" stroke-linecap="round" stroke-linejoin="round"><g><g><g><path d="M15.75,19.66c0.82,0.45,2.33,0.5,3.15,0.45c5.15-0.31,13.43-1.61,18.65-2.03c1.37-0.11,2.19,0.21,2.88,0.44" /><path d="M10.37,35.57c1.08,0.57,3.07,0.62,4.15,0.57c6.82-0.37,17.21-2.09,25.07-2.7c1.8-0.14,2.89,0.27,3.79,0.55" /></g><g><path d="M27.49,37.93c0.78,0.43,1.25,1.94,1.41,2.8c0.16,0.86,0,49.89-0.15,55.27" /><path d="M17.21,48.64c0.55,1.49,0.53,2.25,0.53,3.51c0,9.21-1.07,21.81-9.25,33.6" /><path d="M38.15,47.5c0.97,0.39,1.55,1.76,1.74,2.54c0.19,0.78,0,23.32-0.19,28.21" /></g></g><g p4:phon="豊" xmlns:p4="http://kanjivg.tagaini.net"><g><g><path d="M48.58,23.28c0.32,0.58,1.14,1.86,1.14,2.63c0,0.77,3.05,22.34,3.16,23.1" /><path d="M49.76,24.6c2.83-0.33,37.49-3.53,39.98-3.42c1.32,0.06,3.26,1.35,2.92,3.06c-0.65,3.3-4.67,21.17-5.26,22.2" /></g><g><g><path d="M60.25,13.75c0.71,0.28,1.57,2,1.59,2.46c0.45,10.3,1.56,24.12,1.77,28.35" /></g><g><path d="M75.93,11.49c0.7,0.21,1.33,1,1.31,1.48c-0.74,14.32-0.93,20.97-1.48,30.91" /></g><g><path d="M51.47,35.1c2.33-0.06,36-3,38.63-3.07" /></g></g><g><path d="M53.62,46.4c4.8-0.32,27.93-2.08,33.91-2.36" /></g></g><g><g><path d="M48.55,55.14c1.05,0.41,2.97,0.46,4.02,0.41c10.91-0.47,18.19-2.75,38.27-2.86c1.75-0.01,2.8,0.2,3.67,0.4" /></g><g><g><path d="M53.45,62.94c0.5,0.38,1.14,2.09,1.23,2.6c0.68,3.68,1.46,6.27,2.45,13.59" /><path d="M55.38,64.51c7.06-0.74,23.86-2.8,28.68-2.91c1.99-0.05,2.97,0.96,2.52,3.11c-0.8,3.85-2.17,6.72-3.23,11.23" /><path d="M57.54,77.25c6.46-0.75,19.31-2.41,25.92-2.52" /></g><path d="M58.63,82.16c1.36,1.32,3.5,5.41,3.84,7.46" /><path d="M79.36,78.63c0.06,0.24,0.82,1.38,0.81,1.75c-0.04,2.15-2.11,6.76-4.7,10.08" /><path d="M44.51,93.74c1.31,0.42,3.72,0.49,5.04,0.42c13.67-0.7,30.81-2.2,45.36-2.49c2.19-0.04,3.5,0.2,4.6,0.41" /></g></g></g></g></g><g fill="none" stroke="#000" stroke-width="5" stroke-linecap="round" stroke-linejoin="round"><g><g><g><path d="M15.75,19.66c0.82,0.45,2.33,0.5,3.15,0.45c5.15-0.31,13.43-1.61,18.65-2.03c1.37-0.11,2.19,0.21,2.88,0.44" stroke-dasharray="24.918" stroke-dashoffset="24.918"><animate attributeName="stroke-dashoffset" values="24.918;24.918;0" dur="0.249s" fill="freeze" begin="0s;79ae.click" /></path><path d="M10.37,35.57c1.08,0.57,3.07,0.62,4.15,0.57c6.82-0.37,17.21-2.09,25.07-2.7c1.8-0.14,2.89,0.27,3.79,0.55" stroke-dasharray="33.308" stroke-dashoffset="33.308"><animate attributeName="stroke-dashoffset" values="33.308" fill="freeze" begin="79ae.click" /><animate attributeName="stroke-dashoffset" values="33.308;33.308;0" keyTimes="0;0.428;1" dur="0.582s" fill="freeze" begin="0s;79ae.click" /></path></g><g><path d="M27.49,37.93c0.78,0.43,1.25,1.94,1.41,2.8c0.16,0.86,0,49.89-0.15,55.27" stroke-dasharray="58.486" stroke-dashoffset="58.486"><animate attributeName="stroke-dashoffset" values="58.486" fill="freeze" begin="79ae.click" /><animate attributeName="stroke-dashoffset" values="58.486;58.486;0" keyTimes="0;0.499;1" dur="1.167s" fill="freeze" begin="0s;79ae.click" /></path><path d="M17.21,48.64c0.55,1.49,0.53,2.25,0.53,3.51c0,9.21-1.07,21.81-9.25,33.6" stroke-dasharray="39.003" stroke-dashoffset="39.003"><animate attributeName="stroke-dashoffset" values="39.003" fill="freeze" begin="79ae.click" /><animate attributeName="stroke-dashoffset" values="39.003;39.003;0" keyTimes="0;0.75;1" dur="1.557s" fill="freeze" begin="0s;79ae.click" /></path><path d="M38.15,47.5c0.97,0.39,1.55,1.76,1.74,2.54c0.19,0.78,0,23.32-0.19,28.21" stroke-dasharray="31.395" stroke-dashoffset="31.395"><animate attributeName="stroke-dashoffset" values="31.395" fill="freeze" begin="79ae.click" /><animate attributeName="stroke-dashoffset" values="31.395;31.395;0" keyTimes="0;0.832;1" dur="1.871s" fill="freeze" begin="0s;79ae.click" /></path></g></g><g p4:phon="豊" xmlns:p4="http://kanjivg.tagaini.net"><g><g><path d="M48.58,23.28c0.32,0.58,1.14,1.86,1.14,2.63c0,0.77,3.05,22.34,3.16,23.1" stroke-dasharray="26.208" stroke-dashoffset="26.208"><animate attributeName="stroke-dashoffset" values="26.208" fill="freeze" begin="79ae.click" /><animate attributeName="stroke-dashoffset" values="26.208;26.208;0" keyTimes="0;0.877;1" dur="2.133s" fill="freeze" begin="0s;79ae.click" /></path><path d="M49.76,24.6c2.83-0.33,37.49-3.53,39.98-3.42c1.32,0.06,3.26,1.35,2.92,3.06c-0.65,3.3-4.67,21.17-5.26,22.2" stroke-dasharray="67.686" stroke-dashoffset="67.686"><animate attributeName="stroke-dashoffset" values="67.686" fill="freeze" begin="79ae.click" /><animate attributeName="stroke-dashoffset" values="67.686;67.686;0" keyTimes="0;0.807;1" dur="2.642s" fill="freeze" begin="0s;79ae.click" /></path></g><g><g><path d="M60.25,13.75c0.71,0.28,1.57,2,1.59,2.46c0.45,10.3,1.56,24.12,1.77,28.35" stroke-dasharray="31.411" stroke-dashoffset="31.411"><animate attributeName="stroke-dashoffset" values="31.411" fill="freeze" begin="79ae.click" /><animate attributeName="stroke-dashoffset" values="31.411;31.411;0" keyTimes="0;0.894;1" dur="2.956s" fill="freeze" begin="0s;79ae.click" /></path></g><g><path d="M75.93,11.49c0.7,0.21,1.33,1,1.31,1.48c-0.74,14.32-0.93,20.97-1.48,30.91" stroke-dasharray="33.03" stroke-dashoffset="33.03"><animate attributeName="stroke-dashoffset" values="33.03" fill="freeze" begin="79ae.click" /><animate attributeName="stroke-dashoffset" values="33.03;33.03;0" keyTimes="0;0.9;1" dur="3.286s" fill="freeze" begin="0s;79ae.click" /></path></g><g><path d="M51.47,35.1c2.33-0.06,36-3,38.63-3.07" stroke-dasharray="38.754" stroke-dashoffset="38.754"><animate attributeName="stroke-dashoffset" values="38.754" fill="freeze" begin="79ae.click" /><animate attributeName="stroke-dashoffset" values="38.754;38.754;0" keyTimes="0;0.894;1" dur="3.674s" fill="freeze" begin="0s;79ae.click" /></path></g></g><g><path d="M53.62,46.4c4.8-0.32,27.93-2.08,33.91-2.36" stroke-dasharray="33.993" stroke-dashoffset="33.993"><animate attributeName="stroke-dashoffset" values="33.993" fill="freeze" begin="79ae.click" /><animate attributeName="stroke-dashoffset" values="33.993;33.993;0" keyTimes="0;0.915;1" dur="4.014s" fill="freeze" begin="0s;79ae.click" /></path></g></g><g><g><path d="M48.55,55.14c1.05,0.41,2.97,0.46,4.02,0.41c10.91-0.47,18.19-2.75,38.27-2.86c1.75-0.01,2.8,0.2,3.67,0.4" stroke-dasharray="46.166" stroke-dashoffset="46.166"><animate attributeName="stroke-dashoffset" values="46.166" fill="freeze" begin="79ae.click" /><animate attributeName="stroke-dashoffset" values="46.166;46.166;0" keyTimes="0;0.897;1" dur="4.476s" fill="freeze" begin="0s;79ae.click" /></path></g><g><g><path d="M53.45,62.94c0.5,0.38,1.14,2.09,1.23,2.6c0.68,3.68,1.46,6.27,2.45,13.59" stroke-dasharray="16.722" stroke-dashoffset="16.722"><animate attributeName="stroke-dashoffset" values="16.722" fill="freeze" begin="79ae.click" /><animate attributeName="stroke-dashoffset" values="16.722;16.722;0" keyTimes="0;0.964;1" dur="4.643s" fill="freeze" begin="0s;79ae.click" /></path><path d="M55.38,64.51c7.06-0.74,23.86-2.8,28.68-2.91c1.99-0.05,2.97,0.96,2.52,3.11c-0.8,3.85-2.17,6.72-3.23,11.23" stroke-dasharray="45.385" stroke-dashoffset="45.385"><animate attributeName="stroke-dashoffset" values="45.385" fill="freeze" begin="79ae.click" /><animate attributeName="stroke-dashoffset" values="45.385;45.385;0" keyTimes="0;0.911;1" dur="5.097s" fill="freeze" begin="0s;79ae.click" /></path><path d="M57.54,77.25c6.46-0.75,19.31-2.41,25.92-2.52" stroke-dasharray="26.052" stroke-dashoffset="26.052"><animate attributeName="stroke-dashoffset" values="26.052" fill="freeze" begin="79ae.click" /><animate attributeName="stroke-dashoffset" values="26.052;26.052;0" keyTimes="0;0.951;1" dur="5.358s" fill="freeze" begin="0s;79ae.click" /></path></g><path d="M58.63,82.16c1.36,1.32,3.5,5.41,3.84,7.46" stroke-dasharray="8.471" stroke-dashoffset="8.471"><animate attributeName="stroke-dashoffset" values="8.471" fill="freeze" begin="79ae.click" /><animate attributeName="stroke-dashoffset" values="8.471;8.471;0" keyTimes="0;0.984;1" dur="5.443s" fill="freeze" begin="0s;79ae.click" /></path><path d="M79.36,78.63c0.06,0.24,0.82,1.38,0.81,1.75c-0.04,2.15-2.11,6.76-4.7,10.08" stroke-dasharray="13.187" stroke-dashoffset="13.187"><animate attributeName="stroke-dashoffset" values="13.187" fill="freeze" begin="79ae.click" /><animate attributeName="stroke-dashoffset" values="13.187;13.187;0" keyTimes="0;0.976;1" dur="5.575s" fill="freeze" begin="0s;79ae.click" /></path><path d="M44.51,93.74c1.31,0.42,3.72,0.49,5.04,0.42c13.67-0.7,30.81-2.2,45.36-2.49c2.19-0.04,3.5,0.2,4.6,0.41" stroke-dasharray="55.138" stroke-dashoffset="55.138"><animate attributeName="stroke-dashoffset" values="55.138" fill="freeze" begin="79ae.click" /><animate attributeName="stroke-dashoffset" values="55.138;55.138;0" keyTimes="0;0.91;1" dur="6.126s" fill="freeze" begin="0s;79ae.click" /></path></g></g></g></g></g></svg>