<svg xmlns="http://www.w3.org/2000/svg" width="109" height="109" viewBox="0 0 109 109" id="79b9"><g fill="none" stroke="#666" stroke-width="9" stroke-linecap="round" stroke-linejoin="round"><g><g><path d="M74.21,9.5c0.12,0.37,0.49,1.07-0.25,1.49c-9.13,5.25-23.64,9.07-47.45,13.3" /></g><g><path d="M26.32,35.24c0.81,0.52,1.84,0.91,1.99,1.6c1.1,4.96,2.22,11.49,3.76,20.88" /><path d="M28.91,36.35c12.3-0.99,38.83-3.41,47.73-3.79c3.47-0.15,5.11,1.19,4.64,3.9c-0.97,5.61-1.74,7.53-4.13,15.98" /><path d="M32.52,55.72c9.9-1,32.36-2.53,46.21-3.46" /></g><g><path d="M21.25,65.91c0.72,0.61,1.32,1.58,1.46,2.69c0.79,6.65,3.24,30.06,3.24,31.9" /><path d="M22.21,67.63c9.1-0.49,62.53-3.71,64.32-3.95c3.22-0.43,3.95,1.07,3.73,3.47C89.25,78,87,87,84.03,94.94c-1.59,4.24-4.07,2.33-6.94,0.73" /><g><path d="M52.52,22.25c0.99,0.38,1.78,2.18,1.78,2.96c0,5.04,0.5,49.72,0.3,54.44" /><path d="M37.92,83.92c0.71,0.7,2.14,1.13,2.83,0.9c6.99-2.32,25.65-7.43,27.76-8.31" /><path d="M65.34,71.2c3.5,2.41,9.05,9.91,9.93,13.66" /></g></g></g></g><g fill="none" stroke="#000" stroke-width="5" stroke-linecap="round" stroke-linejoin="round"><path d="M74.21,9.5c0.12,0.37,0.49,1.07-0.25,1.49c-9.13,5.25-23.64,9.07-47.45,13.3" stroke-dasharray="51.181" stroke-dashoffset="51.181"><animate attributeName="stroke-dashoffset" values="51.181;51.181;0" dur="0.512s" fill="freeze" begin="0s;79b9.click" /></path><path d="M26.32,35.24c0.81,0.52,1.84,0.91,1.99,1.6c1.1,4.96,2.22,11.49,3.76,20.88" stroke-dasharray="23.835" stroke-dashoffset="23.835"><animate attributeName="stroke-dashoffset" values="23.835" fill="freeze" begin="79b9.click" /><animate attributeName="stroke-dashoffset" values="23.835;23.835;0" keyTimes="0;0.683;1" dur="0.75s" fill="freeze" begin="0s;79b9.click" /></path><path d="M28.91,36.35c12.3-0.99,38.83-3.41,47.73-3.79c3.47-0.15,5.11,1.19,4.64,3.9c-0.97,5.61-1.74,7.53-4.13,15.98" stroke-dasharray="71.679" stroke-dashoffset="71.679"><animate attributeName="stroke-dashoffset" values="71.679" fill="freeze" begin="79b9.click" /><animate attributeName="stroke-dashoffset" values="71.679;71.679;0" keyTimes="0;0.582;1" dur="1.289s" fill="freeze" begin="0s;79b9.click" /></path><path d="M32.52,55.72c9.9-1,32.36-2.53,46.21-3.46" stroke-dasharray="46.342" stroke-dashoffset="46.342"><animate attributeName="stroke-dashoffset" values="46.342" fill="freeze" begin="79b9.click" /><animate attributeName="stroke-dashoffset" values="46.342;46.342;0" keyTimes="0;0.736;1" dur="1.752s" fill="freeze" begin="0s;79b9.click" /></path><path d="M21.25,65.91c0.72,0.61,1.32,1.58,1.46,2.69c0.79,6.65,3.24,30.06,3.24,31.9" stroke-dasharray="35.197" stroke-dashoffset="35.197"><animate attributeName="stroke-dashoffset" values="35.197" fill="freeze" begin="79b9.click" /><animate attributeName="stroke-dashoffset" values="35.197;35.197;0" keyTimes="0;0.833;1" dur="2.104s" fill="freeze" begin="0s;79b9.click" /></path><path d="M22.21,67.63c9.1-0.49,62.53-3.71,64.32-3.95c3.22-0.43,3.95,1.07,3.73,3.47C89.25,78,87,87,84.03,94.94c-1.59,4.24-4.07,2.33-6.94,0.73" stroke-dasharray="107.967" stroke-dashoffset="107.967"><animate attributeName="stroke-dashoffset" values="107.967" fill="freeze" begin="79b9.click" /><animate attributeName="stroke-dashoffset" values="107.967;107.967;0" keyTimes="0;0.722;1" dur="2.916s" fill="freeze" begin="0s;79b9.click" /></path><path d="M52.52,22.25c0.99,0.38,1.78,2.18,1.78,2.96c0,5.04,0.5,49.72,0.3,54.44" stroke-dasharray="58.035" stroke-dashoffset="58.035"><animate attributeName="stroke-dashoffset" values="58.035" fill="freeze" begin="79b9.click" /><animate attributeName="stroke-dashoffset" values="58.035;58.035;0" keyTimes="0;0.834;1" dur="3.496s" fill="freeze" begin="0s;79b9.click" /></path><path d="M37.92,83.92c0.71,0.7,2.14,1.13,2.83,0.9c6.99-2.32,25.65-7.43,27.76-8.31" stroke-dasharray="32.058" stroke-dashoffset="32.058"><animate attributeName="stroke-dashoffset" values="32.058" fill="freeze" begin="79b9.click" /><animate attributeName="stroke-dashoffset" values="32.058;32.058;0" keyTimes="0;0.916;1" dur="3.817s" fill="freeze" begin="0s;79b9.click" /></path><path d="M65.34,71.2c3.5,2.41,9.05,9.91,9.93,13.66" stroke-dasharray="17.107" stroke-dashoffset="17.107"><animate attributeName="stroke-dashoffset" values="17.107" fill="freeze" begin="79b9.click" /><animate attributeName="stroke-dashoffset" values="17.107;17.107;0" keyTimes="0;0.957;1" dur="3.988s" fill="freeze" begin="0s;79b9.click" /></path></g></svg>