<svg xmlns="http://www.w3.org/2000/svg" width="109" height="109" viewBox="0 0 109 109" id="79bd"><g fill="none" stroke="#666" stroke-width="6" stroke-linecap="round" stroke-linejoin="round"><g><g><path d="M 52.75,9 c 0.11,0.85 -0.1,2.27 -0.72,3.41 C 48,19.75 33.25,35.5 12,44.75" /><path d="M 53.38,13 c 5.38,4.88 21,15.75 30.04,22.24 3.29,2.37 6.7,4.64 10.58,5.76" /></g><g><g><path d="M 52.97,25 c 0.83,0.83 1.04,2.02 1.04,2.75 0,2.67 -0.01,4.88 -0.01,7.5" /><path d="M 32.75,37.45 c 2.66,0.52 5.44,0.35 8.11,0.06 C 49,36.62 60.09,35.69 68,35.19 c 2.52,-0.22 5.02,-0.1 7.5,0.36" /></g><g><g><g><path d="M 62.8,38.93 c -0.08,1.18 -0.43,2.23 -1.21,3.02 C 55.62,48 48.5,53 39.34,56.19" /></g><path d="M 42.39,43.09 C 50.5,44.7 62.16,49.7 66.4,53.54" /></g><g><path d="M 32.32,43.22 c 0.85,0.85 0.74,1.74 0.62,2.86 -0.5,4.53 -1,8.76 -1.27,10.93 -0.28,2.34 0.71,3.99 3.22,3.77 C 48.12,59.62 61,58.49 75,58.25" /><path d="M 76.31,39.74 c 0.72,0.72 0.66,1.63 0.66,2.5 0,0.29 -0.27,6.82 -0.5,13.12 -0.07,1.92 -0.14,3.82 -0.2,5.52" /></g></g><g><path d="M 24.77,67.95 c 1.08,1.08 1.29,2.71 1.41,3.65 0.44,3.56 1.13,12.68 1.74,21.03 0.18,2.5 0.36,4.93 0.51,7.12" /><path d="M 26.89,70.54 c 7.97,-0.5 44.64,-3.2 53,-3.89 4.61,-0.38 6.57,0.9 5.86,5.75 -0.9,6.2 -3.37,17.35 -5.4,23.01 -2.38,6.64 -4.56,3.82 -7.57,-0.05" /><path d="M 53.63,62 c -0.13,1.38 -0.57,2.21 -1.13,3.2 -1.848221,5.99726 -3.36499,10.535808 -4.993047,15.264519" /><path d="M 43.29,82.84 C 50,81.5 56,80.38 65.75,78.62" /><path d="M 61.54,71.34 c 3.72,2.36 9.12,9.96 10.05,13.63" /></g></g></g></g><g fill="none" stroke="#000" stroke-width="3" stroke-linecap="round" stroke-linejoin="round"><path d="M 52.75,9 c 0.11,0.85 -0.1,2.27 -0.72,3.41 C 48,19.75 33.25,35.5 12,44.75" stroke-dasharray="55.701" stroke-dashoffset="55.701"><animate attributeName="stroke-dashoffset" values="55.701;55.701;0" dur="0.557s" fill="freeze" begin="0s;79bd.click" /></path><path d="M 53.38,13 c 5.38,4.88 21,15.75 30.04,22.24 3.29,2.37 6.7,4.64 10.58,5.76" stroke-dasharray="49.498" stroke-dashoffset="49.498"><animate attributeName="stroke-dashoffset" values="49.498" fill="freeze" begin="79bd.click" /><animate attributeName="stroke-dashoffset" values="49.498;49.498;0" keyTimes="0;0.529;1" dur="1.052s" fill="freeze" begin="0s;79bd.click" /></path><path d="M 52.97,25 c 0.83,0.83 1.04,2.02 1.04,2.75 0,2.67 -0.01,4.88 -0.01,7.5" stroke-dasharray="10.515" stroke-dashoffset="10.515"><animate attributeName="stroke-dashoffset" values="10.515" fill="freeze" begin="79bd.click" /><animate attributeName="stroke-dashoffset" values="10.515;10.515;0" keyTimes="0;0.909;1" dur="1.157s" fill="freeze" begin="0s;79bd.click" /></path><path d="M 32.75,37.45 c 2.66,0.52 5.44,0.35 8.11,0.06 C 49,36.62 60.09,35.69 68,35.19 c 2.52,-0.22 5.02,-0.1 7.5,0.36" stroke-dasharray="42.915" stroke-dashoffset="42.915"><animate attributeName="stroke-dashoffset" values="42.915" fill="freeze" begin="79bd.click" /><animate attributeName="stroke-dashoffset" values="42.915;42.915;0" keyTimes="0;0.73;1" dur="1.586s" fill="freeze" begin="0s;79bd.click" /></path><path d="M 62.8,38.93 c -0.08,1.18 -0.43,2.23 -1.21,3.02 C 55.62,48 48.5,53 39.34,56.19" stroke-dasharray="29.983" stroke-dashoffset="29.983"><animate attributeName="stroke-dashoffset" values="29.983" fill="freeze" begin="79bd.click" /><animate attributeName="stroke-dashoffset" values="29.983;29.983;0" keyTimes="0;0.841;1" dur="1.886s" fill="freeze" begin="0s;79bd.click" /></path><path d="M 42.39,43.09 C 50.5,44.7 62.16,49.7 66.4,53.54" stroke-dasharray="26.394" stroke-dashoffset="26.394"><animate attributeName="stroke-dashoffset" values="26.394" fill="freeze" begin="79bd.click" /><animate attributeName="stroke-dashoffset" values="26.394;26.394;0" keyTimes="0;0.877;1" dur="2.15s" fill="freeze" begin="0s;79bd.click" /></path><path d="M 32.32,43.22 c 0.85,0.85 0.74,1.74 0.62,2.86 -0.5,4.53 -1,8.76 -1.27,10.93 -0.28,2.34 0.71,3.99 3.22,3.77 C 48.12,59.62 61,58.49 75,58.25" stroke-dasharray="60.171" stroke-dashoffset="60.171"><animate attributeName="stroke-dashoffset" values="60.171" fill="freeze" begin="79bd.click" /><animate attributeName="stroke-dashoffset" values="60.171;60.171;0" keyTimes="0;0.826;1" dur="2.602s" fill="freeze" begin="0s;79bd.click" /></path><path d="M 76.31,39.74 c 0.72,0.72 0.66,1.63 0.66,2.5 0,0.29 -0.27,6.82 -0.5,13.12 -0.07,1.92 -0.14,3.82 -0.2,5.52" stroke-dasharray="21.322" stroke-dashoffset="21.322"><animate attributeName="stroke-dashoffset" values="21.322" fill="freeze" begin="79bd.click" /><animate attributeName="stroke-dashoffset" values="21.322;21.322;0" keyTimes="0;0.924;1" dur="2.815s" fill="freeze" begin="0s;79bd.click" /></path><path d="M 24.77,67.95 c 1.08,1.08 1.29,2.71 1.41,3.65 0.44,3.56 1.13,12.68 1.74,21.03 0.18,2.5 0.36,4.93 0.51,7.12" stroke-dasharray="32.231" stroke-dashoffset="32.231"><animate attributeName="stroke-dashoffset" values="32.231" fill="freeze" begin="79bd.click" /><animate attributeName="stroke-dashoffset" values="32.231;32.231;0" keyTimes="0;0.897;1" dur="3.137s" fill="freeze" begin="0s;79bd.click" /></path><path d="M 26.89,70.54 c 7.97,-0.5 44.64,-3.2 53,-3.89 4.61,-0.38 6.57,0.9 5.86,5.75 -0.9,6.2 -3.37,17.35 -5.4,23.01 -2.38,6.64 -4.56,3.82 -7.57,-0.05" stroke-dasharray="98.577" stroke-dashoffset="98.577"><animate attributeName="stroke-dashoffset" values="98.577" fill="freeze" begin="79bd.click" /><animate attributeName="stroke-dashoffset" values="98.577;98.577;0" keyTimes="0;0.809;1" dur="3.878s" fill="freeze" begin="0s;79bd.click" /></path><path d="M 53.63,62 c -0.13,1.38 -0.57,2.21 -1.13,3.2 -1.848221,5.99726 -3.36499,10.535808 -4.993047,15.264519" stroke-dasharray="19.487" stroke-dashoffset="19.487"><animate attributeName="stroke-dashoffset" values="19.487" fill="freeze" begin="79bd.click" /><animate attributeName="stroke-dashoffset" values="19.487;19.487;0" keyTimes="0;0.952;1" dur="4.073s" fill="freeze" begin="0s;79bd.click" /></path><path d="M 43.29,82.84 C 50,81.5 56,80.38 65.75,78.62" stroke-dasharray="22.854" stroke-dashoffset="22.854"><animate attributeName="stroke-dashoffset" values="22.854" fill="freeze" begin="79bd.click" /><animate attributeName="stroke-dashoffset" values="22.854;22.854;0" keyTimes="0;0.947;1" dur="4.302s" fill="freeze" begin="0s;79bd.click" /></path><path d="M 61.54,71.34 c 3.72,2.36 9.12,9.96 10.05,13.63" stroke-dasharray="17.169" stroke-dashoffset="17.169"><animate attributeName="stroke-dashoffset" values="17.169" fill="freeze" begin="79bd.click" /><animate attributeName="stroke-dashoffset" values="17.169;17.169;0" keyTimes="0;0.962;1" dur="4.474s" fill="freeze" begin="0s;79bd.click" /></path></g></svg>