<svg xmlns="http://www.w3.org/2000/svg" width="109" height="109" viewBox="0 0 109 109" id="79bf"><g fill="none" stroke="#666" stroke-width="9" stroke-linecap="round" stroke-linejoin="round"><g><g><g><path d="M67.02,10.5c0.11,0.35,0.23,0.91-0.22,1.42c-2.68,2.99-18.03,9.56-39.05,13.58" /></g><g><path d="M15.75,33.52c0.76,0.23,3.79,0.84,5.81,0.69c9.09-0.69,48.23-3.97,63.63-4.61c2.02-0.08,4.54,0.27,5.81,0.5" /><path d="M52.72,21.5c0.89,0.46,1.42,2.05,1.6,2.97c0.18,0.91,0,24.58-0.18,30.28" /><path d="M50.25,32.18C44,42.75,30.5,54.75,12.25,59.75" /><path d="M54.25,31.96c5.22,3.3,29.08,18.91,34.76,22.16c1.92,1.1,3.57,1.57,5.49,1.89" /></g></g><g><g><path d="M42,59c0.75,1,0.85,2.84,0.87,4.18C43,73.25,38.5,92.25,18.92,98.42" /></g><g><path d="M61.99,58.37c1.51,0.63,1.6,2.63,1.64,4.48c0.17,8.29-0.44,16.35-0.44,21.99c0,10.65,4.06,11.68,14.6,11.68c11.47,0,15.6-1.78,15.6-9.24" /></g></g></g></g><g fill="none" stroke="#000" stroke-width="5" stroke-linecap="round" stroke-linejoin="round"><g><g><g><path d="M67.02,10.5c0.11,0.35,0.23,0.91-0.22,1.42c-2.68,2.99-18.03,9.56-39.05,13.58" stroke-dasharray="43.158" stroke-dashoffset="43.158"><animate attributeName="stroke-dashoffset" values="43.158;43.158;0" dur="0.432s" fill="freeze" begin="0s;79bf.click" /></path></g><g><path d="M15.75,33.52c0.76,0.23,3.79,0.84,5.81,0.69c9.09-0.69,48.23-3.97,63.63-4.61c2.02-0.08,4.54,0.27,5.81,0.5" stroke-dasharray="75.514" stroke-dashoffset="75.514"><animate attributeName="stroke-dashoffset" values="75.514" fill="freeze" begin="79bf.click" /><animate attributeName="stroke-dashoffset" values="75.514;75.514;0" keyTimes="0;0.432;1" dur="1s" fill="freeze" begin="0s;79bf.click" /></path><path d="M52.72,21.5c0.89,0.46,1.42,2.05,1.6,2.97c0.18,0.91,0,24.58-0.18,30.28" stroke-dasharray="33.75" stroke-dashoffset="33.75"><animate attributeName="stroke-dashoffset" values="33.75" fill="freeze" begin="79bf.click" /><animate attributeName="stroke-dashoffset" values="33.75;33.75;0" keyTimes="0;0.747;1" dur="1.338s" fill="freeze" begin="0s;79bf.click" /></path><path d="M50.25,32.18C44,42.75,30.5,54.75,12.25,59.75" stroke-dasharray="48.041" stroke-dashoffset="48.041"><animate attributeName="stroke-dashoffset" values="48.041" fill="freeze" begin="79bf.click" /><animate attributeName="stroke-dashoffset" values="48.041;48.041;0" keyTimes="0;0.736;1" dur="1.818s" fill="freeze" begin="0s;79bf.click" /></path><path d="M54.25,31.96c5.22,3.3,29.08,18.91,34.76,22.16c1.92,1.1,3.57,1.57,5.49,1.89" stroke-dasharray="47.066" stroke-dashoffset="47.066"><animate attributeName="stroke-dashoffset" values="47.066" fill="freeze" begin="79bf.click" /><animate attributeName="stroke-dashoffset" values="47.066;47.066;0" keyTimes="0;0.794;1" dur="2.289s" fill="freeze" begin="0s;79bf.click" /></path></g></g><g><g><path d="M42,59c0.75,1,0.85,2.84,0.87,4.18C43,73.25,38.5,92.25,18.92,98.42" stroke-dasharray="50.057" stroke-dashoffset="50.057"><animate attributeName="stroke-dashoffset" values="50.057" fill="freeze" begin="79bf.click" /><animate attributeName="stroke-dashoffset" values="50.057;50.057;0" keyTimes="0;0.82;1" dur="2.79s" fill="freeze" begin="0s;79bf.click" /></path></g><g><path d="M61.99,58.37c1.51,0.63,1.6,2.63,1.64,4.48c0.17,8.29-0.44,16.35-0.44,21.99c0,10.65,4.06,11.68,14.6,11.68c11.47,0,15.6-1.78,15.6-9.24" stroke-dasharray="70.438" stroke-dashoffset="70.438"><animate attributeName="stroke-dashoffset" values="70.438" fill="freeze" begin="79bf.click" /><animate attributeName="stroke-dashoffset" values="70.438;70.438;0" keyTimes="0;0.84;1" dur="3.32s" fill="freeze" begin="0s;79bf.click" /></path></g></g></g></g></svg>