<svg xmlns="http://www.w3.org/2000/svg" width="109" height="109" viewBox="0 0 109 109" id="79d1"><g fill="none" stroke="#666" stroke-width="6" stroke-linecap="round" stroke-linejoin="round"><g><g><g><path d="M41.5,13.75c0.15,1.14-0.46,2.36-1.32,3.14C37.23,20.43,29.51,26,18.75,29.75" /></g><g><path d="M11.07,41.45c0.77,0.23,2.84,0.53,4.9,0.43c7.51-0.38,19.55-2.63,28.91-3.78c2.04-0.25,3.08-0.23,4.37,0" /><path d="M34.64,25.62c1.12,1.12,1.51,2.38,1.51,4.08c0.1,1.06,0.03,43.06-0.06,59.54c-0.02,3-0.03,5.13-0.05,6" /><path d="M35.53,41.63c0,1.62-1.18,4.33-1.89,5.8c-5.39,11.24-15.02,24.53-22.39,32.19" /><path d="M38.25,46.75c3.46,1.67,8.94,6.87,9.81,9.47" /></g></g><g><g><path d="M59.5,21.5c3.18,1.5,8.2,6.17,9,8.5" /></g><g><path d="M56.25,41.25c3.62,1.23,9.34,5.08,10.25,7" /></g><path d="M45.88,64.25c1.53,0.5,3.58,0.8,6.14,0.5c11.73-1.38,26.73-4.5,41.16-5.5c2.58-0.18,4.45-0.25,6.07,0" /><path d="M77.87,13.25c1.13,1.13,1.96,3,1.96,4.75c0,0.87,0.05,53.4-0.12,73.5c-0.03,3.57-0.06,6.06-0.1,7" /></g></g></g><g fill="none" stroke="#000" stroke-width="3" stroke-linecap="round" stroke-linejoin="round"><path d="M41.5,13.75c0.15,1.14-0.46,2.36-1.32,3.14C37.23,20.43,29.51,26,18.75,29.75" stroke-dasharray="28.768" stroke-dashoffset="28.768"><animate attributeName="stroke-dashoffset" values="28.768;28.768;0" dur="0.288s" fill="freeze" begin="0s;79d1.click" /></path><path d="M11.07,41.45c0.77,0.23,2.84,0.53,4.9,0.43c7.51-0.38,19.55-2.63,28.91-3.78c2.04-0.25,3.08-0.23,4.37,0" stroke-dasharray="38.49" stroke-dashoffset="38.49"><animate attributeName="stroke-dashoffset" values="38.49" fill="freeze" begin="79d1.click" /><animate attributeName="stroke-dashoffset" values="38.49;38.49;0" keyTimes="0;0.428;1" dur="0.673s" fill="freeze" begin="0s;79d1.click" /></path><path d="M34.64,25.62c1.12,1.12,1.51,2.38,1.51,4.08c0.1,1.06,0.03,43.06-0.06,59.54c-0.02,3-0.03,5.13-0.05,6" stroke-dasharray="70.022" stroke-dashoffset="70.022"><animate attributeName="stroke-dashoffset" values="70.022" fill="freeze" begin="79d1.click" /><animate attributeName="stroke-dashoffset" values="70.022;70.022;0" keyTimes="0;0.561;1" dur="1.199s" fill="freeze" begin="0s;79d1.click" /></path><path d="M35.53,41.63c0,1.62-1.18,4.33-1.89,5.8c-5.39,11.24-15.02,24.53-22.39,32.19" stroke-dasharray="45.487" stroke-dashoffset="45.487"><animate attributeName="stroke-dashoffset" values="45.487" fill="freeze" begin="79d1.click" /><animate attributeName="stroke-dashoffset" values="45.487;45.487;0" keyTimes="0;0.725;1" dur="1.654s" fill="freeze" begin="0s;79d1.click" /></path><path d="M38.25,46.75c3.46,1.67,8.94,6.87,9.81,9.47" stroke-dasharray="13.834" stroke-dashoffset="13.834"><animate attributeName="stroke-dashoffset" values="13.834" fill="freeze" begin="79d1.click" /><animate attributeName="stroke-dashoffset" values="13.834;13.834;0" keyTimes="0;0.923;1" dur="1.792s" fill="freeze" begin="0s;79d1.click" /></path><path d="M59.5,21.5c3.18,1.5,8.2,6.17,9,8.5" stroke-dasharray="12.56" stroke-dashoffset="12.56"><animate attributeName="stroke-dashoffset" values="12.56" fill="freeze" begin="79d1.click" /><animate attributeName="stroke-dashoffset" values="12.56;12.56;0" keyTimes="0;0.934;1" dur="1.918s" fill="freeze" begin="0s;79d1.click" /></path><path d="M56.25,41.25c3.62,1.23,9.34,5.08,10.25,7" stroke-dasharray="12.576" stroke-dashoffset="12.576"><animate attributeName="stroke-dashoffset" values="12.576" fill="freeze" begin="79d1.click" /><animate attributeName="stroke-dashoffset" values="12.576;12.576;0" keyTimes="0;0.938;1" dur="2.044s" fill="freeze" begin="0s;79d1.click" /></path><path d="M45.88,64.25c1.53,0.5,3.58,0.8,6.14,0.5c11.73-1.38,26.73-4.5,41.16-5.5c2.58-0.18,4.45-0.25,6.07,0" stroke-dasharray="53.828" stroke-dashoffset="53.828"><animate attributeName="stroke-dashoffset" values="53.828" fill="freeze" begin="79d1.click" /><animate attributeName="stroke-dashoffset" values="53.828;53.828;0" keyTimes="0;0.792;1" dur="2.582s" fill="freeze" begin="0s;79d1.click" /></path><path d="M77.87,13.25c1.13,1.13,1.96,3,1.96,4.75c0,0.87,0.05,53.4-0.12,73.5c-0.03,3.57-0.06,6.06-0.1,7" stroke-dasharray="85.763" stroke-dashoffset="85.763"><animate attributeName="stroke-dashoffset" values="85.763" fill="freeze" begin="79d1.click" /><animate attributeName="stroke-dashoffset" values="85.763;85.763;0" keyTimes="0;0.8;1" dur="3.227s" fill="freeze" begin="0s;79d1.click" /></path></g></svg>