<svg xmlns="http://www.w3.org/2000/svg" width="109" height="109" viewBox="0 0 109 109" id="79e1"><g fill="none" stroke="#666" stroke-width="9" stroke-linecap="round" stroke-linejoin="round"><g><g><g><path d="M39.99,14.75c0.07,0.34,0.15,0.87-0.15,1.35c-1.79,2.84-12.05,9.08-26.09,12.9" /></g><g><path d="M12.6,44.12c0.38,0.12,1.4,0.33,2.41,0.37c2.79,0.12,21.11-1.41,28.09-2.03c1.01-0.09,1.27-0.12,1.9,0" /><path d="M30.33,27.25c0.37,0.45,0.58,2.01,0.66,2.91c0.07,0.9,0,61.99-0.07,67.59" /><path d="M30.75,46.25C26.54,57.06,19.52,70.4,10,79.25" /><path d="M32.25,52.5c4.72,2.68,8.71,8.05,11.25,11.5" /></g></g><g><g><g><path d="M46.75,35.75c1,0.3,2.84,0.36,3.84,0.3c6.56-0.41,34.47-2.98,40.65-2.63c1.67,0.09,2.67,0.14,3.51,0.29" /><path d="M63.59,11.75c0.85,1.29,1.26,1.84,1.14,4.2C63.67,37.83,58.5,76,38.5,90.75" /><path d="M84.5,45.25c0.1,1.18,0.15,3.34-0.21,4.74C80.06,66.31,69.25,86.5,46.25,95.29" /></g></g><g><path d="M61,49.25c4.34,8.84,20.02,34.59,29.93,41.95c1.97,1.46,2.97,2.75,4.57,3.3" /></g><g><g><path d="M76.27,14.08c3.79,1.84,9.79,7.56,10.73,10.42" /></g></g></g></g></g><g fill="none" stroke="#000" stroke-width="5" stroke-linecap="round" stroke-linejoin="round"><path d="M39.99,14.75c0.07,0.34,0.15,0.87-0.15,1.35c-1.79,2.84-12.05,9.08-26.09,12.9" stroke-dasharray="30.831" stroke-dashoffset="30.831"><animate attributeName="stroke-dashoffset" values="30.831;30.831;0" dur="0.308s" fill="freeze" begin="0s;79e1.click" /></path><path d="M12.6,44.12c0.38,0.12,1.4,0.33,2.41,0.37c2.79,0.12,21.11-1.41,28.09-2.03c1.01-0.09,1.27-0.12,1.9,0" stroke-dasharray="32.521" stroke-dashoffset="32.521"><animate attributeName="stroke-dashoffset" values="32.521" fill="freeze" begin="79e1.click" /><animate attributeName="stroke-dashoffset" values="32.521;32.521;0" keyTimes="0;0.487;1" dur="0.633s" fill="freeze" begin="0s;79e1.click" /></path><path d="M30.33,27.25c0.37,0.45,0.58,2.01,0.66,2.91c0.07,0.9,0,61.99-0.07,67.59" stroke-dasharray="70.6" stroke-dashoffset="70.6"><animate attributeName="stroke-dashoffset" values="70.6" fill="freeze" begin="79e1.click" /><animate attributeName="stroke-dashoffset" values="70.6;70.6;0" keyTimes="0;0.544;1" dur="1.164s" fill="freeze" begin="0s;79e1.click" /></path><path d="M30.75,46.25C26.54,57.06,19.52,70.4,10,79.25" stroke-dasharray="39.291" stroke-dashoffset="39.291"><animate attributeName="stroke-dashoffset" values="39.291" fill="freeze" begin="79e1.click" /><animate attributeName="stroke-dashoffset" values="39.291;39.291;0" keyTimes="0;0.748;1" dur="1.557s" fill="freeze" begin="0s;79e1.click" /></path><path d="M32.25,52.5c4.72,2.68,8.71,8.05,11.25,11.5" stroke-dasharray="16.204" stroke-dashoffset="16.204"><animate attributeName="stroke-dashoffset" values="16.204" fill="freeze" begin="79e1.click" /><animate attributeName="stroke-dashoffset" values="16.204;16.204;0" keyTimes="0;0.906;1" dur="1.719s" fill="freeze" begin="0s;79e1.click" /></path><path d="M46.75,35.75c1,0.3,2.84,0.36,3.84,0.3c6.56-0.41,34.47-2.98,40.65-2.63c1.67,0.09,2.67,0.14,3.51,0.29" stroke-dasharray="48.137" stroke-dashoffset="48.137"><animate attributeName="stroke-dashoffset" values="48.137" fill="freeze" begin="79e1.click" /><animate attributeName="stroke-dashoffset" values="48.137;48.137;0" keyTimes="0;0.781;1" dur="2.2s" fill="freeze" begin="0s;79e1.click" /></path><path d="M63.59,11.75c0.85,1.29,1.26,1.84,1.14,4.2C63.67,37.83,58.5,76,38.5,90.75" stroke-dasharray="85.974" stroke-dashoffset="85.974"><animate attributeName="stroke-dashoffset" values="85.974" fill="freeze" begin="79e1.click" /><animate attributeName="stroke-dashoffset" values="85.974;85.974;0" keyTimes="0;0.773;1" dur="2.846s" fill="freeze" begin="0s;79e1.click" /></path><path d="M84.5,45.25c0.1,1.18,0.15,3.34-0.21,4.74C80.06,66.31,69.25,86.5,46.25,95.29" stroke-dasharray="66.282" stroke-dashoffset="66.282"><animate attributeName="stroke-dashoffset" values="66.282" fill="freeze" begin="79e1.click" /><animate attributeName="stroke-dashoffset" values="66.282;66.282;0" keyTimes="0;0.851;1" dur="3.344s" fill="freeze" begin="0s;79e1.click" /></path><path d="M61,49.25c4.34,8.84,20.02,34.59,29.93,41.95c1.97,1.46,2.97,2.75,4.57,3.3" stroke-dasharray="57.471" stroke-dashoffset="57.471"><animate attributeName="stroke-dashoffset" values="57.471" fill="freeze" begin="79e1.click" /><animate attributeName="stroke-dashoffset" values="57.471;57.471;0" keyTimes="0;0.853;1" dur="3.919s" fill="freeze" begin="0s;79e1.click" /></path><path d="M76.27,14.08c3.79,1.84,9.79,7.56,10.73,10.42" stroke-dasharray="15.177" stroke-dashoffset="15.177"><animate attributeName="stroke-dashoffset" values="15.177" fill="freeze" begin="79e1.click" /><animate attributeName="stroke-dashoffset" values="15.177;15.177;0" keyTimes="0;0.963;1" dur="4.071s" fill="freeze" begin="0s;79e1.click" /></path></g></svg>