<svg xmlns="http://www.w3.org/2000/svg" width="109" height="109" viewBox="0 0 109 109" id="79e9"><g fill="none" stroke="#666" stroke-width="9" stroke-linecap="round" stroke-linejoin="round"><g><g><g><path d="M38.5,16c0,1.25-0.53,2.14-1.38,2.79c-5,3.84-13.37,7.46-23.12,10.96" /></g><g><path d="M10.37,42.83c2.13,0.67,5.24,0.63,7.05,0.25c5.6-1.17,17.36-4.43,23.58-5.7c1.13-0.23,2.87-0.38,3.98-0.2" /><path d="M30.33,26.91c1.13,1.13,1.41,2.59,1.41,3.94c0,0.67,0.02,37-0.03,53.4c-0.01,3.8-0.03,6.53-0.04,7.5" /><path d="M30.68,41.97c0,1.28-0.33,3.05-0.94,4.63C25.94,56.49,21,67.5,13,75.25" /><path d="M34,46.25c2.94,1.4,5.42,4.2,7,6" /></g></g><g p4:phon="失" xmlns:p4="http://kanjivg.tagaini.net"><g><path d="M55.37,25.58c0.06,1.1-0.04,1.99-0.33,3.06c-1.42,5.17-4.5,11.55-9.4,17.81" /></g><g><path d="M54.66,38.49c1.34,0.26,2.66,0.32,3.72,0.19c8.12-1.05,15.33-2.86,22.49-4.1c1.08-0.19,3.75-0.6,4.3-0.45" /><g><path d="M42.57,58.58c2.67,0.28,4.92,0.34,7.58-0.03c9.3-1.3,28.24-4.31,36.1-4.9c2.05-0.15,4.78-0.4,6.76,0.26" /><path d="M65.9,14c0.92,0.92,1.07,2.13,1.11,3.89C68.12,64.12,64.25,76.5,41.5,92.5" /><path d="M66.64,58.38c7.48,10.88,14.06,20.15,20.83,26.78c2.13,2.09,3.65,3.72,6.03,5.37" /></g></g></g></g></g><g fill="none" stroke="#000" stroke-width="5" stroke-linecap="round" stroke-linejoin="round"><g><g><g><path d="M38.5,16c0,1.25-0.53,2.14-1.38,2.79c-5,3.84-13.37,7.46-23.12,10.96" stroke-dasharray="28.91" stroke-dashoffset="28.91"><animate id="0" attributeName="stroke-dashoffset" values="28.91;0" dur="0.29s" fill="freeze" begin="0s;79e9.click" /></path></g><g><path d="M10.37,42.83c2.13,0.67,5.24,0.63,7.05,0.25c5.6-1.17,17.36-4.43,23.58-5.7c1.13-0.23,2.87-0.38,3.98-0.2" stroke-dasharray="35.38" stroke-dashoffset="35.38"><animate attributeName="stroke-dashoffset" values="35.38" fill="freeze" begin="79e9.click" /><animate id="1" attributeName="stroke-dashoffset" values="35.38;0" dur="0.35s" fill="freeze" begin="0.end" /></path><path d="M30.33,26.91c1.13,1.13,1.41,2.59,1.41,3.94c0,0.67,0.02,37-0.03,53.4c-0.01,3.8-0.03,6.53-0.04,7.5" stroke-dasharray="65.2" stroke-dashoffset="65.2"><animate attributeName="stroke-dashoffset" values="65.2" fill="freeze" begin="79e9.click" /><animate id="2" attributeName="stroke-dashoffset" values="65.2;0" dur="0.49s" fill="freeze" begin="1.end" /></path><path d="M30.68,41.97c0,1.28-0.33,3.05-0.94,4.63C25.94,56.49,21,67.5,13,75.25" stroke-dasharray="38.19" stroke-dashoffset="38.19"><animate attributeName="stroke-dashoffset" values="38.19" fill="freeze" begin="79e9.click" /><animate id="3" attributeName="stroke-dashoffset" values="38.19;0" dur="0.38s" fill="freeze" begin="2.end" /></path><path d="M34,46.25c2.94,1.4,5.42,4.2,7,6" stroke-dasharray="9.28" stroke-dashoffset="9.28"><animate attributeName="stroke-dashoffset" values="9.28" fill="freeze" begin="79e9.click" /><animate id="4" attributeName="stroke-dashoffset" values="9.28;0" dur="0.09s" fill="freeze" begin="3.end" /></path></g></g><g p4:phon="失" xmlns:p4="http://kanjivg.tagaini.net"><g><path d="M55.37,25.58c0.06,1.1-0.04,1.99-0.33,3.06c-1.42,5.17-4.5,11.55-9.4,17.81" stroke-dasharray="23.36" stroke-dashoffset="23.36"><animate attributeName="stroke-dashoffset" values="23.36" fill="freeze" begin="79e9.click" /><animate id="5" attributeName="stroke-dashoffset" values="23.36;0" dur="0.23s" fill="freeze" begin="4.end" /></path></g><g><path d="M54.66,38.49c1.34,0.26,2.66,0.32,3.72,0.19c8.12-1.05,15.33-2.86,22.49-4.1c1.08-0.19,3.75-0.6,4.3-0.45" stroke-dasharray="30.94" stroke-dashoffset="30.94"><animate attributeName="stroke-dashoffset" values="30.94" fill="freeze" begin="79e9.click" /><animate id="6" attributeName="stroke-dashoffset" values="30.94;0" dur="0.31s" fill="freeze" begin="5.end" /></path><g><path d="M42.57,58.58c2.67,0.28,4.92,0.34,7.58-0.03c9.3-1.3,28.24-4.31,36.1-4.9c2.05-0.15,4.78-0.4,6.76,0.26" stroke-dasharray="50.84" stroke-dashoffset="50.84"><animate attributeName="stroke-dashoffset" values="50.84" fill="freeze" begin="79e9.click" /><animate id="7" attributeName="stroke-dashoffset" values="50.84;0" dur="0.51s" fill="freeze" begin="6.end" /></path><path d="M65.9,14c0.92,0.92,1.07,2.13,1.11,3.89C68.12,64.12,64.25,76.5,41.5,92.5" stroke-dasharray="87.66" stroke-dashoffset="87.66"><animate attributeName="stroke-dashoffset" values="87.66" fill="freeze" begin="79e9.click" /><animate id="8" attributeName="stroke-dashoffset" values="87.66;0" dur="0.66s" fill="freeze" begin="7.end" /></path><path d="M66.64,58.38c7.48,10.88,14.06,20.15,20.83,26.78c2.13,2.09,3.65,3.72,6.03,5.37" stroke-dasharray="42.06" stroke-dashoffset="42.06"><animate attributeName="stroke-dashoffset" values="42.06" fill="freeze" begin="79e9.click" /><animate id="9" attributeName="stroke-dashoffset" values="42.06;0" dur="0.42s" fill="freeze" begin="8.end" /></path></g></g></g></g></g></svg>