<svg xmlns="http://www.w3.org/2000/svg" width="109" height="109" viewBox="0 0 109 109" id="7a32"><g fill="none" stroke="#666" stroke-width="9" stroke-linecap="round" stroke-linejoin="round"><g><g><g><path d="M42.5,19.25c0,1-0.49,1.96-1.41,2.51C34.12,26,26.5,29.88,16.75,33.75" /></g><g><path d="M12.37,43.85c2.13,0.78,4.17,0.75,6.15,0.5c7.86-0.97,20.48-3.51,26.87-4.5c1.04-0.16,2.49-0.22,3.6-0.02" /><path d="M33.18,30.41c0.89,0.89,1.41,2.59,1.41,4.47c0,1.21-0.05,34.87-0.08,53.75c0,2.51-0.01,4.75-0.01,6.62" /><path d="M33.68,43.22c0,2.91-0.61,4.94-2.1,7.82C27,59.88,22.38,67.62,14.25,76.75" /><path d="M37.5,51.75c3.98,2.33,7.35,7,9.5,10" /></g></g><g p4:phon="稲right" xmlns:p4="http://kanjivg.tagaini.net"><g><path d="M83.78,15.89c-0.16,0.98-0.8,1.7-1.45,2.19c-4.08,3.05-12.83,7.8-27.59,11.89" /><path d="M53.52,35.83c2.16,2.1,5.58,8.62,6.12,11.88" /><path d="M65.44,32.33c2.71,1.96,7.01,8.08,7.69,11.13" /><path d="M92.77,30.39c0.09,0.92-0.22,1.84-0.65,2.65c-2,3.83-5,8.41-10.26,13.42" /></g><g><g><path d="M54.75,55.17c0.85,0.85,1.22,2.08,1.22,3.39c0,1.08-0.04,21.78-0.05,31.81c0,2.1,0,3.74,0,4.62" /></g><g><path d="M68.79,54.49c0.92,0.92,1.2,2.6,1.2,3.8c0,1.03-0.03,19.36-0.02,30.83c0,1.96,0.01,3.71,0.01,5.12" /><path d="M70.87,55.28c1.87-0.12,13.81-1.57,18.4-2.11c2.69-0.31,3.95,0.82,3.95,2.95c0,7.01-0.07,22.96-0.09,32.5c0,1.69-0.01,3.17-0.01,4.38" /><path d="M71.2,71.2c5.16-0.42,17.46-1.5,20.82-1.5" /><path d="M71.12,90.67c6.17-0.26,13.7-1.16,20.7-1.2" /></g></g></g></g></g><g fill="none" stroke="#000" stroke-width="5" stroke-linecap="round" stroke-linejoin="round"><g><g><g><path d="M42.5,19.25c0,1-0.49,1.96-1.41,2.51C34.12,26,26.5,29.88,16.75,33.75" stroke-dasharray="30.18" stroke-dashoffset="30.18"><animate id="0" attributeName="stroke-dashoffset" values="30.18;0" dur="0.3s" fill="freeze" begin="0s;7a32.click" /></path></g><g><path d="M12.37,43.85c2.13,0.78,4.17,0.75,6.15,0.5c7.86-0.97,20.48-3.51,26.87-4.5c1.04-0.16,2.49-0.22,3.6-0.02" stroke-dasharray="37.09" stroke-dashoffset="37.09"><animate attributeName="stroke-dashoffset" values="37.09" fill="freeze" begin="7a32.click" /><animate id="1" attributeName="stroke-dashoffset" values="37.09;0" dur="0.37s" fill="freeze" begin="0.end" /></path><path d="M33.18,30.41c0.89,0.89,1.41,2.59,1.41,4.47c0,1.21-0.05,34.87-0.08,53.75c0,2.51-0.01,4.75-0.01,6.62" stroke-dasharray="65.17" stroke-dashoffset="65.17"><animate attributeName="stroke-dashoffset" values="65.17" fill="freeze" begin="7a32.click" /><animate id="2" attributeName="stroke-dashoffset" values="65.17;0" dur="0.49s" fill="freeze" begin="1.end" /></path><path d="M33.68,43.22c0,2.91-0.61,4.94-2.1,7.82C27,59.88,22.38,67.62,14.25,76.75" stroke-dasharray="39.29" stroke-dashoffset="39.29"><animate attributeName="stroke-dashoffset" values="39.29" fill="freeze" begin="7a32.click" /><animate id="3" attributeName="stroke-dashoffset" values="39.29;0" dur="0.39s" fill="freeze" begin="2.end" /></path><path d="M37.5,51.75c3.98,2.33,7.35,7,9.5,10" stroke-dasharray="13.89" stroke-dashoffset="13.89"><animate attributeName="stroke-dashoffset" values="13.89" fill="freeze" begin="7a32.click" /><animate id="4" attributeName="stroke-dashoffset" values="13.89;0" dur="0.14s" fill="freeze" begin="3.end" /></path></g></g><g p4:phon="稲right" xmlns:p4="http://kanjivg.tagaini.net"><g><path d="M83.78,15.89c-0.16,0.98-0.8,1.7-1.45,2.19c-4.08,3.05-12.83,7.8-27.59,11.89" stroke-dasharray="32.88" stroke-dashoffset="32.88"><animate attributeName="stroke-dashoffset" values="32.88" fill="freeze" begin="7a32.click" /><animate id="5" attributeName="stroke-dashoffset" values="32.88;0" dur="0.33s" fill="freeze" begin="4.end" /></path><path d="M53.52,35.83c2.16,2.1,5.58,8.62,6.12,11.88" stroke-dasharray="13.49" stroke-dashoffset="13.49"><animate attributeName="stroke-dashoffset" values="13.49" fill="freeze" begin="7a32.click" /><animate id="6" attributeName="stroke-dashoffset" values="13.49;0" dur="0.13s" fill="freeze" begin="5.end" /></path><path d="M65.44,32.33c2.71,1.96,7.01,8.08,7.69,11.13" stroke-dasharray="13.7" stroke-dashoffset="13.7"><animate attributeName="stroke-dashoffset" values="13.7" fill="freeze" begin="7a32.click" /><animate id="7" attributeName="stroke-dashoffset" values="13.7;0" dur="0.14s" fill="freeze" begin="6.end" /></path><path d="M92.77,30.39c0.09,0.92-0.22,1.84-0.65,2.65c-2,3.83-5,8.41-10.26,13.42" stroke-dasharray="19.74" stroke-dashoffset="19.74"><animate attributeName="stroke-dashoffset" values="19.74" fill="freeze" begin="7a32.click" /><animate id="8" attributeName="stroke-dashoffset" values="19.74;0" dur="0.2s" fill="freeze" begin="7.end" /></path></g><g><g><path d="M54.75,55.17c0.85,0.85,1.22,2.08,1.22,3.39c0,1.08-0.04,21.78-0.05,31.81c0,2.1,0,3.74,0,4.62" stroke-dasharray="40.13" stroke-dashoffset="40.13"><animate attributeName="stroke-dashoffset" values="40.13" fill="freeze" begin="7a32.click" /><animate id="9" attributeName="stroke-dashoffset" values="40.13;0" dur="0.4s" fill="freeze" begin="8.end" /></path></g><g><path d="M68.79,54.49c0.92,0.92,1.2,2.6,1.2,3.8c0,1.03-0.03,19.36-0.02,30.83c0,1.96,0.01,3.71,0.01,5.12" stroke-dasharray="40.03" stroke-dashoffset="40.03"><animate attributeName="stroke-dashoffset" values="40.03" fill="freeze" begin="7a32.click" /><animate id="10" attributeName="stroke-dashoffset" values="40.03;0" dur="0.4s" fill="freeze" begin="9.end" /></path><path d="M70.87,55.28c1.87-0.12,13.81-1.57,18.4-2.11c2.69-0.31,3.95,0.82,3.95,2.95c0,7.01-0.07,22.96-0.09,32.5c0,1.69-0.01,3.17-0.01,4.38" stroke-dasharray="61.19" stroke-dashoffset="61.19"><animate attributeName="stroke-dashoffset" values="61.19" fill="freeze" begin="7a32.click" /><animate id="11" attributeName="stroke-dashoffset" values="61.19;0" dur="0.46s" fill="freeze" begin="10.end" /></path><path d="M71.2,71.2c5.16-0.42,17.46-1.5,20.82-1.5" stroke-dasharray="20.88" stroke-dashoffset="20.88"><animate attributeName="stroke-dashoffset" values="20.88" fill="freeze" begin="7a32.click" /><animate id="12" attributeName="stroke-dashoffset" values="20.88;0" dur="0.21s" fill="freeze" begin="11.end" /></path><path d="M71.12,90.67c6.17-0.26,13.7-1.16,20.7-1.2" stroke-dasharray="20.74" stroke-dashoffset="20.74"><animate attributeName="stroke-dashoffset" values="20.74" fill="freeze" begin="7a32.click" /><animate id="13" attributeName="stroke-dashoffset" values="20.74;0" dur="0.21s" fill="freeze" begin="12.end" /></path></g></g></g></g></g></svg>