<svg xmlns="http://www.w3.org/2000/svg" width="109" height="109" viewBox="0 0 109 109" id="7a4d"><g fill="none" stroke="#666" stroke-width="9" stroke-linecap="round" stroke-linejoin="round"><g><g><g><path d="M39.25,15.25c0,1-0.94,2.03-1.66,2.6C34.12,20.62,27.62,23.5,16,27" /></g><g><path d="M9.87,43.85c2.01,0.65,3.57,0.62,5.3,0.41c6.13-0.73,19.18-3.09,24.71-3.93c0.99-0.15,1.99-0.21,2.61,0" /><path d="M30.33,25.16c0.82,0.82,1.41,1.97,1.41,3.19c0,5.06-0.05,45.46-0.07,61.53c0,3.06,0,5.24,0,6.12" /><path d="M30.18,43.47c0,1.16-0.26,2.43-0.53,3.17c-3.59,9.66-9.4,20.37-17.4,29.87" /><path d="M34.5,48.38c4.09,2.3,7.55,6.91,9.75,9.88" /></g></g><g p4:phon="責" xmlns:p4="http://kanjivg.tagaini.net"><g><path d="M55.04,21.04c1.96,0.46,3.66,0.26,5.22,0.09c5.79-0.64,16.82-2.1,22.49-2.76c1.63-0.19,3.25-0.2,4.89-0.06" /><path d="M69.77,11.38c0.92,0.92,1.41,2.24,1.41,3.54c0,6.58-0.18,18.71-0.18,24.7" /><path d="M55.77,31.79c1.74,0.57,3.87,0.27,5.62-0.02c8.36-1.39,19.63-2.72,23.44-3.03c1.19-0.1,2.31-0.05,2.94-0.01" /><path d="M48.56,42.06c3.06,0.44,5.41,0.47,8.07,0.13C67,40.88,79.25,40.12,89.5,39.64c3.26-0.16,5.75-0.26,8.07,0.29" /></g><g><g><path d="M57.04,49.79c0.77,0.77,1.21,1.79,1.21,2.78c0,0.77-0.05,19.1-0.07,27.3c-0.01,2.29-0.01,3.79-0.01,3.9" /><path d="M58.82,51.09c6.43-0.72,25.13-2.8,26.08-2.85c2.12-0.12,3.6,1.01,3.61,3.36c0.01,3.15-0.08,15.43-0.07,26.31c0,1.12-0.17,3.11-0.17,3.85" /><path d="M59.53,60.29C64.5,60,82.5,58.25,86.88,58.03" /><path d="M59.25,70.14c7.62-0.39,20.25-1.39,27.79-1.73" /><path d="M59.97,80.64c6.41-0.25,19.9-1.52,26.79-1.73" /></g><g><path d="M63.78,87.13c0.09,0.87-0.25,1.96-1,2.65c-2.29,2.09-7.41,6.09-13.15,8.96" /><path d="M81.75,87c5.19,2.93,11.33,8.24,12.75,10.81" /></g></g></g></g></g><g fill="none" stroke="#000" stroke-width="5" stroke-linecap="round" stroke-linejoin="round"><g><g><g><path d="M39.25,15.25c0,1-0.94,2.03-1.66,2.6C34.12,20.62,27.62,23.5,16,27" stroke-dasharray="26.74" stroke-dashoffset="26.74"><animate id="0" attributeName="stroke-dashoffset" values="26.74;0" dur="0.27s" fill="freeze" begin="0s;7a4d.click" /></path></g><g><path d="M9.87,43.85c2.01,0.65,3.57,0.62,5.3,0.41c6.13-0.73,19.18-3.09,24.71-3.93c0.99-0.15,1.99-0.21,2.61,0" stroke-dasharray="33.02" stroke-dashoffset="33.02"><animate attributeName="stroke-dashoffset" values="33.02" fill="freeze" begin="7a4d.click" /><animate id="1" attributeName="stroke-dashoffset" values="33.02;0" dur="0.33s" fill="freeze" begin="0.end" /></path><path d="M30.33,25.16c0.82,0.82,1.41,1.97,1.41,3.19c0,5.06-0.05,45.46-0.07,61.53c0,3.06,0,5.24,0,6.12" stroke-dasharray="71.23" stroke-dashoffset="71.23"><animate attributeName="stroke-dashoffset" values="71.23" fill="freeze" begin="7a4d.click" /><animate id="2" attributeName="stroke-dashoffset" values="71.23;0" dur="0.54s" fill="freeze" begin="1.end" /></path><path d="M30.18,43.47c0,1.16-0.26,2.43-0.53,3.17c-3.59,9.66-9.4,20.37-17.4,29.87" stroke-dasharray="37.96" stroke-dashoffset="37.96"><animate attributeName="stroke-dashoffset" values="37.96" fill="freeze" begin="7a4d.click" /><animate id="3" attributeName="stroke-dashoffset" values="37.96;0" dur="0.38s" fill="freeze" begin="2.end" /></path><path d="M34.5,48.38c4.09,2.3,7.55,6.91,9.75,9.88" stroke-dasharray="13.98" stroke-dashoffset="13.98"><animate attributeName="stroke-dashoffset" values="13.98" fill="freeze" begin="7a4d.click" /><animate id="4" attributeName="stroke-dashoffset" values="13.98;0" dur="0.14s" fill="freeze" begin="3.end" /></path></g></g><g p4:phon="責" xmlns:p4="http://kanjivg.tagaini.net"><g><path d="M55.04,21.04c1.96,0.46,3.66,0.26,5.22,0.09c5.79-0.64,16.82-2.1,22.49-2.76c1.63-0.19,3.25-0.2,4.89-0.06" stroke-dasharray="32.81" stroke-dashoffset="32.81"><animate attributeName="stroke-dashoffset" values="32.81" fill="freeze" begin="7a4d.click" /><animate id="5" attributeName="stroke-dashoffset" values="32.81;0" dur="0.33s" fill="freeze" begin="4.end" /></path><path d="M69.77,11.38c0.92,0.92,1.41,2.24,1.41,3.54c0,6.58-0.18,18.71-0.18,24.7" stroke-dasharray="28.61" stroke-dashoffset="28.61"><animate attributeName="stroke-dashoffset" values="28.61" fill="freeze" begin="7a4d.click" /><animate id="6" attributeName="stroke-dashoffset" values="28.61;0" dur="0.29s" fill="freeze" begin="5.end" /></path><path d="M55.77,31.79c1.74,0.57,3.87,0.27,5.62-0.02c8.36-1.39,19.63-2.72,23.44-3.03c1.19-0.1,2.31-0.05,2.94-0.01" stroke-dasharray="32.26" stroke-dashoffset="32.26"><animate attributeName="stroke-dashoffset" values="32.26" fill="freeze" begin="7a4d.click" /><animate id="7" attributeName="stroke-dashoffset" values="32.26;0" dur="0.32s" fill="freeze" begin="6.end" /></path><path d="M48.56,42.06c3.06,0.44,5.41,0.47,8.07,0.13C67,40.88,79.25,40.12,89.5,39.64c3.26-0.16,5.75-0.26,8.07,0.29" stroke-dasharray="49.18" stroke-dashoffset="49.18"><animate attributeName="stroke-dashoffset" values="49.18" fill="freeze" begin="7a4d.click" /><animate id="8" attributeName="stroke-dashoffset" values="49.18;0" dur="0.49s" fill="freeze" begin="7.end" /></path></g><g><g><path d="M57.04,49.79c0.77,0.77,1.21,1.79,1.21,2.78c0,0.77-0.05,19.1-0.07,27.3c-0.01,2.29-0.01,3.79-0.01,3.9" stroke-dasharray="34.31" stroke-dashoffset="34.31"><animate attributeName="stroke-dashoffset" values="34.31" fill="freeze" begin="7a4d.click" /><animate id="9" attributeName="stroke-dashoffset" values="34.31;0" dur="0.34s" fill="freeze" begin="8.end" /></path><path d="M58.82,51.09c6.43-0.72,25.13-2.8,26.08-2.85c2.12-0.12,3.6,1.01,3.61,3.36c0.01,3.15-0.08,15.43-0.07,26.31c0,1.12-0.17,3.11-0.17,3.85" stroke-dasharray="62.06" stroke-dashoffset="62.06"><animate attributeName="stroke-dashoffset" values="62.06" fill="freeze" begin="7a4d.click" /><animate id="10" attributeName="stroke-dashoffset" values="62.06;0" dur="0.47s" fill="freeze" begin="9.end" /></path><path d="M59.53,60.29C64.5,60,82.5,58.25,86.88,58.03" stroke-dasharray="27.44" stroke-dashoffset="27.44"><animate attributeName="stroke-dashoffset" values="27.44" fill="freeze" begin="7a4d.click" /><animate id="11" attributeName="stroke-dashoffset" values="27.44;0" dur="0.27s" fill="freeze" begin="10.end" /></path><path d="M59.25,70.14c7.62-0.39,20.25-1.39,27.79-1.73" stroke-dasharray="27.84" stroke-dashoffset="27.84"><animate attributeName="stroke-dashoffset" values="27.84" fill="freeze" begin="7a4d.click" /><animate id="12" attributeName="stroke-dashoffset" values="27.84;0" dur="0.28s" fill="freeze" begin="11.end" /></path><path d="M59.97,80.64c6.41-0.25,19.9-1.52,26.79-1.73" stroke-dasharray="26.85" stroke-dashoffset="26.85"><animate attributeName="stroke-dashoffset" values="26.85" fill="freeze" begin="7a4d.click" /><animate id="13" attributeName="stroke-dashoffset" values="26.85;0" dur="0.27s" fill="freeze" begin="12.end" /></path></g><g><path d="M63.78,87.13c0.09,0.87-0.25,1.96-1,2.65c-2.29,2.09-7.41,6.09-13.15,8.96" stroke-dasharray="18.88" stroke-dashoffset="18.88"><animate attributeName="stroke-dashoffset" values="18.88" fill="freeze" begin="7a4d.click" /><animate id="14" attributeName="stroke-dashoffset" values="18.88;0" dur="0.19s" fill="freeze" begin="13.end" /></path><path d="M81.75,87c5.19,2.93,11.33,8.24,12.75,10.81" stroke-dasharray="16.84" stroke-dashoffset="16.84"><animate attributeName="stroke-dashoffset" values="16.84" fill="freeze" begin="7a4d.click" /><animate id="15" attributeName="stroke-dashoffset" values="16.84;0" dur="0.17s" fill="freeze" begin="14.end" /></path></g></g></g></g></g></svg>