<svg xmlns="http://www.w3.org/2000/svg" width="109" height="109" viewBox="0 0 109 109" id="7a74"><g fill="none" stroke="#666" stroke-width="9" stroke-linecap="round" stroke-linejoin="round"><g><g><path d="M50.97,15.25c1.08,1.08,1.62,2.75,1.62,4.39c0,3.36-0.09,5.86-0.09,8.92" /><g><path d="M20.75,29.62c0,4.61-2.92,17.3-4.25,20.38" /><path d="M21,33.75C40.38,31,67.62,27.25,83.75,27c12.75-0.2,3.25,7,0.5,9.25" /></g></g><g><path d="M39.72,56.24c0.28,1.26,0,2.66-0.68,3.84C34,68.75,23,83,16,89.47" /><path d="M52,44.5c9.25,1.25,12.25,20,30.87,40.12c3.2,3.46,4.88,5.12,8.13,7.12" /></g></g></g><g fill="none" stroke="#000" stroke-width="5" stroke-linecap="round" stroke-linejoin="round"><g><g><path d="M50.97,15.25c1.08,1.08,1.62,2.75,1.62,4.39c0,3.36-0.09,5.86-0.09,8.92" stroke-dasharray="13.72" stroke-dashoffset="13.72"><animate id="0" attributeName="stroke-dashoffset" values="13.72;0" dur="0.14s" fill="freeze" begin="0s;7a74.click" /></path><g><path d="M20.75,29.62c0,4.61-2.92,17.3-4.25,20.38" stroke-dasharray="20.88" stroke-dashoffset="20.88"><animate attributeName="stroke-dashoffset" values="20.88" fill="freeze" begin="7a74.click" /><animate id="1" attributeName="stroke-dashoffset" values="20.88;0" dur="0.21s" fill="freeze" begin="0.end" /></path><path d="M21,33.75C40.38,31,67.62,27.25,83.75,27c12.75-0.2,3.25,7,0.5,9.25" stroke-dasharray="80.02" stroke-dashoffset="80.02"><animate attributeName="stroke-dashoffset" values="80.02" fill="freeze" begin="7a74.click" /><animate id="2" attributeName="stroke-dashoffset" values="80.02;0" dur="0.6s" fill="freeze" begin="1.end" /></path></g></g><g><path d="M39.72,56.24c0.28,1.26,0,2.66-0.68,3.84C34,68.75,23,83,16,89.47" stroke-dasharray="41.43" stroke-dashoffset="41.43"><animate attributeName="stroke-dashoffset" values="41.43" fill="freeze" begin="7a74.click" /><animate id="3" attributeName="stroke-dashoffset" values="41.43;0" dur="0.41s" fill="freeze" begin="2.end" /></path><path d="M52,44.5c9.25,1.25,12.25,20,30.87,40.12c3.2,3.46,4.88,5.12,8.13,7.12" stroke-dasharray="62.23" stroke-dashoffset="62.23"><animate attributeName="stroke-dashoffset" values="62.23" fill="freeze" begin="7a74.click" /><animate id="4" attributeName="stroke-dashoffset" values="62.23;0" dur="0.47s" fill="freeze" begin="3.end" /></path></g></g></g></svg>