<svg xmlns="http://www.w3.org/2000/svg" width="109" height="109" viewBox="0 0 109 109" id="7a7a"><g fill="none" stroke="#666" stroke-width="9" stroke-linecap="round" stroke-linejoin="round"><g><g><g><path d="M52.29,12c0.96,0.75,1.7,2,1.7,3.64c0,3.36-0.08,7.61-0.08,10.67" /><g><path d="M27.07,27.75c0,3.34-1.57,8.5-4.63,15.25" /><path d="M27.65,30c18.85-2.75,40.6-5.12,52.95-5.75c9.9-0.5,4.15,5-0.6,8.75" /></g></g><g><path d="M41.51,39c0.24,1.5-0.01,2.38-0.67,3.76C38.17,48.4,33.38,55.88,25,61.25" /><path d="M59.76,32.97c0.94,1.02,1.43,2.47,1.49,4.03c0.12,3.47,0.06,6.75,0.06,9.48c0,5.77,1.69,7.33,11.45,7.33c5.5,0,10.54-1.04,12.25-1.56" /></g></g><g p4:phon="工" xmlns:p4="http://kanjivg.tagaini.net"><path d="M32.29,68.97c2.46,1.03,5.63,0.46,7.97,0.22c7.7-0.76,18.13-2.01,27.36-2.76c2.53-0.21,5.16-0.53,7.62,0.32" /><path d="M53.08,70.45c0.67,0.8,0.96,2.05,0.96,3.5c0,5.56-0.1,14.66-0.1,16.3" /><path d="M19.5,92.55c3.17,1.27,6.19,1,9.52,0.7c13.57-1.2,37.71-3.53,54.11-4.35c3.19-0.16,6.33-0.28,9.37,0.9" /></g></g></g><g fill="none" stroke="#000" stroke-width="5" stroke-linecap="round" stroke-linejoin="round"><g><g><g><path d="M52.29,12c0.96,0.75,1.7,2,1.7,3.64c0,3.36-0.08,7.61-0.08,10.67" stroke-dasharray="14.833" stroke-dashoffset="14.833"><animate attributeName="stroke-dashoffset" values="14.833;14.833;0" dur="0.148s" fill="freeze" begin="0s;7a7a.click" /></path><g><path d="M27.07,27.75c0,3.34-1.57,8.5-4.63,15.25" stroke-dasharray="16.035" stroke-dashoffset="16.035"><animate attributeName="stroke-dashoffset" values="16.035" fill="freeze" begin="7a7a.click" /><animate attributeName="stroke-dashoffset" values="16.035;16.035;0" keyTimes="0;0.481;1" dur="0.308s" fill="freeze" begin="0s;7a7a.click" /></path><path d="M27.65,30c18.85-2.75,40.6-5.12,52.95-5.75c9.9-0.5,4.15,5-0.6,8.75" stroke-dasharray="68.948" stroke-dashoffset="68.948"><animate attributeName="stroke-dashoffset" values="68.948" fill="freeze" begin="7a7a.click" /><animate attributeName="stroke-dashoffset" values="68.948;68.948;0" keyTimes="0;0.373;1" dur="0.826s" fill="freeze" begin="0s;7a7a.click" /></path></g></g><g><path d="M41.51,39c0.24,1.5-0.01,2.38-0.67,3.76C38.17,48.4,33.38,55.88,25,61.25" stroke-dasharray="28.566" stroke-dashoffset="28.566"><animate attributeName="stroke-dashoffset" values="28.566" fill="freeze" begin="7a7a.click" /><animate attributeName="stroke-dashoffset" values="28.566;28.566;0" keyTimes="0;0.743;1" dur="1.112s" fill="freeze" begin="0s;7a7a.click" /></path><path d="M59.76,32.97c0.94,1.02,1.43,2.47,1.49,4.03c0.12,3.47,0.06,6.75,0.06,9.48c0,5.77,1.69,7.33,11.45,7.33c5.5,0,10.54-1.04,12.25-1.56" stroke-dasharray="42.333" stroke-dashoffset="42.333"><animate attributeName="stroke-dashoffset" values="42.333" fill="freeze" begin="7a7a.click" /><animate attributeName="stroke-dashoffset" values="42.333;42.333;0" keyTimes="0;0.724;1" dur="1.535s" fill="freeze" begin="0s;7a7a.click" /></path></g></g><g p4:phon="工" xmlns:p4="http://kanjivg.tagaini.net"><path d="M32.29,68.97c2.46,1.03,5.63,0.46,7.97,0.22c7.7-0.76,18.13-2.01,27.36-2.76c2.53-0.21,5.16-0.53,7.62,0.32" stroke-dasharray="43.25" stroke-dashoffset="43.25"><animate attributeName="stroke-dashoffset" values="43.25" fill="freeze" begin="7a7a.click" /><animate attributeName="stroke-dashoffset" values="43.25;43.25;0" keyTimes="0;0.78;1" dur="1.967s" fill="freeze" begin="0s;7a7a.click" /></path><path d="M53.08,70.45c0.67,0.8,0.96,2.05,0.96,3.5c0,5.56-0.1,14.66-0.1,16.3" stroke-dasharray="20.002" stroke-dashoffset="20.002"><animate attributeName="stroke-dashoffset" values="20.002" fill="freeze" begin="7a7a.click" /><animate attributeName="stroke-dashoffset" values="20.002;20.002;0" keyTimes="0;0.908;1" dur="2.167s" fill="freeze" begin="0s;7a7a.click" /></path><path d="M19.5,92.55c3.17,1.27,6.19,1,9.52,0.7c13.57-1.2,37.71-3.53,54.11-4.35c3.19-0.16,6.33-0.28,9.37,0.9" stroke-dasharray="73.425" stroke-dashoffset="73.425"><animate attributeName="stroke-dashoffset" values="73.425" fill="freeze" begin="7a7a.click" /><animate attributeName="stroke-dashoffset" values="73.425;73.425;0" keyTimes="0;0.797;1" dur="2.719s" fill="freeze" begin="0s;7a7a.click" /></path></g></g></g></svg>