<svg xmlns="http://www.w3.org/2000/svg" width="109" height="109" viewBox="0 0 109 109" id="7a98"><g fill="none" stroke="#666" stroke-width="6" stroke-linecap="round" stroke-linejoin="round"><g><g><g><path d="M51.98,9.25c0.99,0.34,2.4,1.98,2.38,2.95c-0.07,3.05-0.07,5.24-0.08,8.02" /><g><path d="M19.27,20.51c0,3.23-2.42,12.09-3.52,14.24" /><path d="M19.37,23.74c12.8-1.99,58.5-5.49,67.84-5.38c12.09,0.14,2.56,7.41-0.45,9.3" /></g></g><g><path d="M43.26,24.5c0.05,0.38,0.21,1.02-0.11,1.53c-2.97,4.7-9.22,10.12-18.93,14.64" /><path d="M60.34,22.37c0.45,0.41,0.83,0.9,0.83,1.55c0,1.7-0.32,4.67-0.32,6.62c0,4.54,6.48,4.03,11.78,4.03c5.58,0,10.37-0.59,11.15-0.92" /></g></g><g><g><g><g><path d="M30.24,43.96c3.58,0.78,3.78,0.73,6.14,0.62c14.32-0.62,25.7-2.34,36.95-2.34c3.32,0,5.67,0.37,5.11,3.07c-0.85,4.15-3.55,11.25-5.34,18.26" /><path d="M16,55.92c2.29,0.11,4.08,0.36,6.61,0.23c19.23-0.98,49.01-3.04,66.54-3.39c2.8-0.05,5.08,0.23,6.35,0.34" /></g><path d="M26.78,67.36c1.28,0.16,3.59,0.57,5.11,0.48c14.06-0.8,25.38-2.82,38.16-3.14c2.04-0.05,3.32,0,4.86,0.16" /></g><g><g><path d="M51.5,44.25c1.27,0.81,0.31,2.41,0,3.2C45.41,62.89,37.98,79.15,14.25,93" /></g></g></g><g><path d="M36.5,78.05c0.56,0.36,1.59,2.1,1.67,2.58c0.84,5.09,1.72,12.15,2.87,18.58" /><path d="M37.89,78.84c13.69-1.51,32.87-2.72,39.92-3.23c2.58-0.18,4.13,1.88,3.76,2.97c-1.53,4.53-2.03,7.95-4.33,15.67" /><path d="M40.99,97.4c7.72-0.53,28.51-1.65,38.29-2.12" /></g></g></g></g><g fill="none" stroke="#000" stroke-width="3" stroke-linecap="round" stroke-linejoin="round"><path d="M51.98,9.25c0.99,0.34,2.4,1.98,2.38,2.95c-0.07,3.05-0.07,5.24-0.08,8.02" stroke-dasharray="11.97" stroke-dashoffset="11.97"><animate attributeName="stroke-dashoffset" values="11.97;11.97;0" dur="0.12s" fill="freeze" begin="0s;7a98.click" /></path><path d="M19.27,20.51c0,3.23-2.42,12.09-3.52,14.24" stroke-dasharray="14.727" stroke-dashoffset="14.727"><animate attributeName="stroke-dashoffset" values="14.727" fill="freeze" begin="7a98.click" /><animate attributeName="stroke-dashoffset" values="14.727;14.727;0" keyTimes="0;0.449;1" dur="0.267s" fill="freeze" begin="0s;7a98.click" /></path><path d="M19.37,23.74c12.8-1.99,58.5-5.49,67.84-5.38c12.09,0.14,2.56,7.41-0.45,9.3" stroke-dasharray="84.759" stroke-dashoffset="84.759"><animate attributeName="stroke-dashoffset" values="84.759" fill="freeze" begin="7a98.click" /><animate attributeName="stroke-dashoffset" values="84.759;84.759;0" keyTimes="0;0.295;1" dur="0.904s" fill="freeze" begin="0s;7a98.click" /></path><path d="M43.26,24.5c0.05,0.38,0.21,1.02-0.11,1.53c-2.97,4.7-9.22,10.12-18.93,14.64" stroke-dasharray="25.799" stroke-dashoffset="25.799"><animate attributeName="stroke-dashoffset" values="25.799" fill="freeze" begin="7a98.click" /><animate attributeName="stroke-dashoffset" values="25.799;25.799;0" keyTimes="0;0.778;1" dur="1.162s" fill="freeze" begin="0s;7a98.click" /></path><path d="M60.34,22.37c0.45,0.41,0.83,0.9,0.83,1.55c0,1.7-0.32,4.67-0.32,6.62c0,4.54,6.48,4.03,11.78,4.03c5.58,0,10.37-0.59,11.15-0.92" stroke-dasharray="33.492" stroke-dashoffset="33.492"><animate attributeName="stroke-dashoffset" values="33.492" fill="freeze" begin="7a98.click" /><animate attributeName="stroke-dashoffset" values="33.492;33.492;0" keyTimes="0;0.776;1" dur="1.497s" fill="freeze" begin="0s;7a98.click" /></path><path d="M30.24,43.96c3.58,0.78,3.78,0.73,6.14,0.62c14.32-0.62,25.7-2.34,36.95-2.34c3.32,0,5.67,0.37,5.11,3.07c-0.85,4.15-3.55,11.25-5.34,18.26" stroke-dasharray="69.385" stroke-dashoffset="69.385"><animate attributeName="stroke-dashoffset" values="69.385" fill="freeze" begin="7a98.click" /><animate attributeName="stroke-dashoffset" values="69.385;69.385;0" keyTimes="0;0.741;1" dur="2.019s" fill="freeze" begin="0s;7a98.click" /></path><path d="M16,55.92c2.29,0.11,4.08,0.36,6.61,0.23c19.23-0.98,49.01-3.04,66.54-3.39c2.8-0.05,5.08,0.23,6.35,0.34" stroke-dasharray="79.612" stroke-dashoffset="79.612"><animate attributeName="stroke-dashoffset" values="79.612" fill="freeze" begin="7a98.click" /><animate attributeName="stroke-dashoffset" values="79.612;79.612;0" keyTimes="0;0.771;1" dur="2.618s" fill="freeze" begin="0s;7a98.click" /></path><path d="M26.78,67.36c1.28,0.16,3.59,0.57,5.11,0.48c14.06-0.8,25.38-2.82,38.16-3.14c2.04-0.05,3.32,0,4.86,0.16" stroke-dasharray="48.305" stroke-dashoffset="48.305"><animate attributeName="stroke-dashoffset" values="48.305" fill="freeze" begin="7a98.click" /><animate attributeName="stroke-dashoffset" values="48.305;48.305;0" keyTimes="0;0.844;1" dur="3.101s" fill="freeze" begin="0s;7a98.click" /></path><path d="M51.5,44.25c1.27,0.81,0.31,2.41,0,3.2C45.41,62.89,37.98,79.15,14.25,93" stroke-dasharray="63.745" stroke-dashoffset="63.745"><animate attributeName="stroke-dashoffset" values="63.745" fill="freeze" begin="7a98.click" /><animate attributeName="stroke-dashoffset" values="63.745;63.745;0" keyTimes="0;0.866;1" dur="3.58s" fill="freeze" begin="0s;7a98.click" /></path><path d="M36.5,78.05c0.56,0.36,1.59,2.1,1.67,2.58c0.84,5.09,1.72,12.15,2.87,18.58" stroke-dasharray="21.91" stroke-dashoffset="21.91"><animate attributeName="stroke-dashoffset" values="21.91" fill="freeze" begin="7a98.click" /><animate attributeName="stroke-dashoffset" values="21.91;21.91;0" keyTimes="0;0.942;1" dur="3.799s" fill="freeze" begin="0s;7a98.click" /></path><path d="M37.89,78.84c13.69-1.51,32.87-2.72,39.92-3.23c2.58-0.18,4.13,1.88,3.76,2.97c-1.53,4.53-2.03,7.95-4.33,15.67" stroke-dasharray="61.773" stroke-dashoffset="61.773"><animate attributeName="stroke-dashoffset" values="61.773" fill="freeze" begin="7a98.click" /><animate attributeName="stroke-dashoffset" values="61.773;61.773;0" keyTimes="0;0.891;1" dur="4.263s" fill="freeze" begin="0s;7a98.click" /></path><path d="M40.99,97.4c7.72-0.53,28.51-1.65,38.29-2.12" stroke-dasharray="38.35" stroke-dashoffset="38.35"><animate attributeName="stroke-dashoffset" values="38.35" fill="freeze" begin="7a98.click" /><animate attributeName="stroke-dashoffset" values="38.35;38.35;0" keyTimes="0;0.918;1" dur="4.646s" fill="freeze" begin="0s;7a98.click" /></path></g></svg>