<svg xmlns="http://www.w3.org/2000/svg" width="109" height="109" viewBox="0 0 109 109" id="7a9f"><g fill="none" stroke="#666" stroke-width="9" stroke-linecap="round" stroke-linejoin="round"><g><g><g><path d="M52.71,11.25c0.96,0.96,1.17,2,1.17,3.45c0,3.05-0.06,3.24-0.06,6.02" /><g><path d="M26.59,22.51c0,3.23-2.46,11.74-3.84,14.49" /><path d="M27.5,25.25c16-2.38,32.88-4.38,52.86-5.39c9.73-0.49,2.06,5.41-0.36,7.3" /></g></g><g><path d="M45.21,26.5c0,1.12-0.43,2.01-1.2,2.64c-3.64,3.61-7.39,6.99-14.54,10.03" /><path d="M60.59,23.37c0.77,0.77,0.94,1.63,0.94,2.86c0,1.77-0.01,2.12-0.01,4.14c0,2.63,0.86,3.94,9.77,3.94c4.63,0,8.6-0.61,9.25-0.95" /></g></g><g><g><path d="M29.53,43.39c2.44,0.5,4.89,0.63,7.34,0.4c10.33-1.19,24.71-2.6,36.63-3.56c3-0.24,3.89,1.62,3.25,3.63c-1.02,3.19-1.21,3.63-2.52,8.32" /><path d="M32.88,55.88c3.37-0.12,25.65-2.14,37.13-3.07c3.14-0.26,5.99-0.43,6.96-0.46" /><path d="M31.38,44.38c0.94,0.94,0.85,2,0.78,3.64c-0.78,20.11-5.03,36.48-15.93,48.2" /></g><g><g><path d="M57.45,59.03c0.95,0.94,1.03,2.22,1.03,3.42c0,4.43-0.1,24.37-0.1,31.29" /><path d="M41.35,65.44c0.4,1.06,0.45,1.83,0.18,2.82c-0.65,2.37-1,3.76-2.03,5.99c-0.71,1.54,0.13,2.68,1.62,2.38c9.75-2,22.12-3.5,35.96-4.19" /><path d="M78.42,60.96c0.81,0.81,0.95,1.67,0.79,3.11c-0.46,3.92-0.71,6.05-1.4,11.39" /></g><g><path d="M38.04,85.98c0.59,0.9,0.35,2.4-0.07,3.57c-0.78,2.17-1.1,3.05-2.16,6.09c-0.75,2.19,0.74,2.29,2.36,1.94c9.96-2.16,33.4-4.18,41.59-4.08" /><path d="M81.53,81.33c0.88,0.88,0.99,2.31,0.84,3.55c-0.74,6-1.12,7.62-1.85,13.19" /></g></g></g></g></g><g fill="none" stroke="#000" stroke-width="5" stroke-linecap="round" stroke-linejoin="round"><path d="M52.71,11.25c0.96,0.96,1.17,2,1.17,3.45c0,3.05-0.06,3.24-0.06,6.02" stroke-dasharray="9.777" stroke-dashoffset="9.777"><animate attributeName="stroke-dashoffset" values="9.777;9.777;0" dur="0.098s" fill="freeze" begin="0s;7a9f.click" /></path><path d="M26.59,22.51c0,3.23-2.46,11.74-3.84,14.49" stroke-dasharray="15.056" stroke-dashoffset="15.056"><animate attributeName="stroke-dashoffset" values="15.056" fill="freeze" begin="7a9f.click" /><animate attributeName="stroke-dashoffset" values="15.056;15.056;0" keyTimes="0;0.394;1" dur="0.249s" fill="freeze" begin="0s;7a9f.click" /></path><path d="M27.5,25.25c16-2.38,32.88-4.38,52.86-5.39c9.73-0.49,2.06,5.41-0.36,7.3" stroke-dasharray="66.572" stroke-dashoffset="66.572"><animate attributeName="stroke-dashoffset" values="66.572" fill="freeze" begin="7a9f.click" /><animate attributeName="stroke-dashoffset" values="66.572;66.572;0" keyTimes="0;0.332;1" dur="0.75s" fill="freeze" begin="0s;7a9f.click" /></path><path d="M45.21,26.5c0,1.12-0.43,2.01-1.2,2.64c-3.64,3.61-7.39,6.99-14.54,10.03" stroke-dasharray="20.795" stroke-dashoffset="20.795"><animate attributeName="stroke-dashoffset" values="20.795" fill="freeze" begin="7a9f.click" /><animate attributeName="stroke-dashoffset" values="20.795;20.795;0" keyTimes="0;0.783;1" dur="0.958s" fill="freeze" begin="0s;7a9f.click" /></path><path d="M60.59,23.37c0.77,0.77,0.94,1.63,0.94,2.86c0,1.77-0.01,2.12-0.01,4.14c0,2.63,0.86,3.94,9.77,3.94c4.63,0,8.6-0.61,9.25-0.95" stroke-dasharray="28.479" stroke-dashoffset="28.479"><animate attributeName="stroke-dashoffset" values="28.479" fill="freeze" begin="7a9f.click" /><animate attributeName="stroke-dashoffset" values="28.479;28.479;0" keyTimes="0;0.771;1" dur="1.243s" fill="freeze" begin="0s;7a9f.click" /></path><path d="M29.53,43.39c2.44,0.5,4.89,0.63,7.34,0.4c10.33-1.19,24.71-2.6,36.63-3.56c3-0.24,3.89,1.62,3.25,3.63c-1.02,3.19-1.21,3.63-2.52,8.32" stroke-dasharray="58.934" stroke-dashoffset="58.934"><animate attributeName="stroke-dashoffset" values="58.934" fill="freeze" begin="7a9f.click" /><animate attributeName="stroke-dashoffset" values="58.934;58.934;0" keyTimes="0;0.678;1" dur="1.832s" fill="freeze" begin="0s;7a9f.click" /></path><path d="M32.88,55.88c3.37-0.12,25.65-2.14,37.13-3.07c3.14-0.26,5.99-0.43,6.96-0.46" stroke-dasharray="44.234" stroke-dashoffset="44.234"><animate attributeName="stroke-dashoffset" values="44.234" fill="freeze" begin="7a9f.click" /><animate attributeName="stroke-dashoffset" values="44.234;44.234;0" keyTimes="0;0.806;1" dur="2.274s" fill="freeze" begin="0s;7a9f.click" /></path><path d="M31.38,44.38c0.94,0.94,0.85,2,0.78,3.64c-0.78,20.11-5.03,36.48-15.93,48.2" stroke-dasharray="55.733" stroke-dashoffset="55.733"><animate attributeName="stroke-dashoffset" values="55.733" fill="freeze" begin="7a9f.click" /><animate attributeName="stroke-dashoffset" values="55.733;55.733;0" keyTimes="0;0.803;1" dur="2.831s" fill="freeze" begin="0s;7a9f.click" /></path><path d="M57.45,59.03c0.95,0.94,1.03,2.22,1.03,3.42c0,4.43-0.1,24.37-0.1,31.29" stroke-dasharray="34.968" stroke-dashoffset="34.968"><animate attributeName="stroke-dashoffset" values="34.968" fill="freeze" begin="7a9f.click" /><animate attributeName="stroke-dashoffset" values="34.968;34.968;0" keyTimes="0;0.89;1" dur="3.181s" fill="freeze" begin="0s;7a9f.click" /></path><path d="M41.35,65.44c0.4,1.06,0.45,1.83,0.18,2.82c-0.65,2.37-1,3.76-2.03,5.99c-0.71,1.54,0.13,2.68,1.62,2.38c9.75-2,22.12-3.5,35.96-4.19" stroke-dasharray="49.233" stroke-dashoffset="49.233"><animate attributeName="stroke-dashoffset" values="49.233" fill="freeze" begin="7a9f.click" /><animate attributeName="stroke-dashoffset" values="49.233;49.233;0" keyTimes="0;0.866;1" dur="3.673s" fill="freeze" begin="0s;7a9f.click" /></path><path d="M78.42,60.96c0.81,0.81,0.95,1.67,0.79,3.11c-0.46,3.92-0.71,6.05-1.4,11.39" stroke-dasharray="14.819" stroke-dashoffset="14.819"><animate attributeName="stroke-dashoffset" values="14.819" fill="freeze" begin="7a9f.click" /><animate attributeName="stroke-dashoffset" values="14.819;14.819;0" keyTimes="0;0.961;1" dur="3.821s" fill="freeze" begin="0s;7a9f.click" /></path><path d="M38.04,85.98c0.59,0.9,0.35,2.4-0.07,3.57c-0.78,2.17-1.1,3.05-2.16,6.09c-0.75,2.19,0.74,2.29,2.36,1.94c9.96-2.16,33.4-4.18,41.59-4.08" stroke-dasharray="56.218" stroke-dashoffset="56.218"><animate attributeName="stroke-dashoffset" values="56.218" fill="freeze" begin="7a9f.click" /><animate attributeName="stroke-dashoffset" values="56.218;56.218;0" keyTimes="0;0.872;1" dur="4.383s" fill="freeze" begin="0s;7a9f.click" /></path><path d="M81.53,81.33c0.88,0.88,0.99,2.31,0.84,3.55c-0.74,6-1.12,7.62-1.85,13.19" stroke-dasharray="17.094" stroke-dashoffset="17.094"><animate attributeName="stroke-dashoffset" values="17.094" fill="freeze" begin="7a9f.click" /><animate attributeName="stroke-dashoffset" values="17.094;17.094;0" keyTimes="0;0.962;1" dur="4.554s" fill="freeze" begin="0s;7a9f.click" /></path></g></svg>