<svg xmlns="http://www.w3.org/2000/svg" viewBox="0 0 109 109" id="7aba"><g fill="none" stroke="#666" stroke-width="6" stroke-linecap="round" stroke-linejoin="round"><g><g><g><path d="M52.98,9c0.89,0.89,1.4,2.48,1.38,3.45c-0.07,3.05-0.07,3.49-0.08,6.27" /><g><path d="M19.27,19.51c-0.02,3.87-1.77,11.12-3.52,14.24" /><path d="M19.87,22.74c22.63-2.37,47.76-4.12,67.34-4.88c12.08-0.47,2.56,6.41-0.45,8.3" /></g></g><g><path d="M43.71,24c0,1-0.59,2.11-1.45,2.85C37.5,31,32.9,34.66,25.98,37.67" /><path d="M62.84,20.87c0.62,0.98,0.86,2.02,0.75,3.13c-0.01,1.66-0.04,3.71-0.04,5.37c0,4.73,5.86,4.19,10.64,4.19c5.05,0,9.37-0.61,10.08-0.95" /></g></g><g><g><path d="M19.15,52.29c1.8,0.21,3.59,0.18,5.37-0.1c4.88-0.6,8.89-1.14,15.25-2.08c1.78-0.26,3.53-0.73,5.34-0.5" /><g><path d="M12.64,67.14c2.39,0.23,4.76,0.17,7.11-0.22c7.75-1.29,16.3-2.25,24.62-3.12c1.7-0.18,3.41-0.12,5.11,0.06" /><path d="M30.85,41.12c0.77,0.77,1.12,1.9,1.17,3.55C32.93,74.38,29.25,86,14.28,96.23" /><path d="M33.48,75.1c5.61,3.71,10.33,8.85,12.91,13.91" /></g></g><g><g><path d="M56.15,41.52c0.78,0.78,1.05,2.07,1.05,3.53c0,3.38,0.04,18.18,0.06,26.8c0.01,3.47,0.01,5.94,0.01,6.26" /><path d="M57.92,43.38c2.43-0.14,21.75-2.66,23.96-2.82c2.47,0.45,3.08,1.53,3.08,3.39c0,4.43-0.02,17.8-0.03,26.06c-0.01,3.82-0.01,6.55-0.01,6.78" /><path d="M58.7,53.41c4.91-0.45,21.57-1.72,25.47-1.72" /><path d="M58.9,64.48c6.22-0.28,18.67-1.7,24.74-2.14" /><path d="M59.02,76.35c6.79-0.21,17.8-1.02,24.48-1.39" /></g><g><path d="M62.82,80.33c0.07,1.29-0.19,2.48-0.79,3.57c-2.24,4.56-8.41,12.23-18.95,17.11" /><path d="M72.7,78.26c0.55,0.86,0.98,1.87,1.01,3.19c0.09,3.55-0.16,4.42-0.16,8.58c0,6.8-0.06,8.97,10.2,8.97c11.23,0,11.55-1.5,11.55-6.58" /></g></g></g></g></g><g fill="none" stroke="#000" stroke-width="3" stroke-linecap="round" stroke-linejoin="round"><path d="M52.98,9c0.89,0.89,1.4,2.48,1.38,3.45c-0.07,3.05-0.07,3.49-0.08,6.27" stroke-dasharray="10.069" stroke-dashoffset="10.069"><animate attributeName="stroke-dashoffset" values="10.069;10.069;0" dur="0.101s" fill="freeze" begin="0s;7aba.click" /></path><path d="M19.27,19.51c-0.02,3.87-1.77,11.12-3.52,14.24" stroke-dasharray="14.769" stroke-dashoffset="14.769"><animate attributeName="stroke-dashoffset" values="14.769" fill="freeze" begin="7aba.click" /><animate attributeName="stroke-dashoffset" values="14.769;14.769;0" keyTimes="0;0.406;1" dur="0.249s" fill="freeze" begin="0s;7aba.click" /></path><path d="M19.87,22.74c22.63-2.37,47.76-4.12,67.34-4.88c12.08-0.47,2.56,6.41-0.45,8.3" stroke-dasharray="83.631" stroke-dashoffset="83.631"><animate attributeName="stroke-dashoffset" values="83.631" fill="freeze" begin="7aba.click" /><animate attributeName="stroke-dashoffset" values="83.631;83.631;0" keyTimes="0;0.284;1" dur="0.878s" fill="freeze" begin="0s;7aba.click" /></path><path d="M43.71,24c0,1-0.59,2.11-1.45,2.85C37.5,31,32.9,34.66,25.98,37.67" stroke-dasharray="22.928" stroke-dashoffset="22.928"><animate attributeName="stroke-dashoffset" values="22.928" fill="freeze" begin="7aba.click" /><animate attributeName="stroke-dashoffset" values="22.928;22.928;0" keyTimes="0;0.793;1" dur="1.107s" fill="freeze" begin="0s;7aba.click" /></path><path d="M62.84,20.87c0.62,0.98,0.86,2.02,0.75,3.13c-0.01,1.66-0.04,3.71-0.04,5.37c0,4.73,5.86,4.19,10.64,4.19c5.05,0,9.37-0.61,10.08-0.95" stroke-dasharray="31.7" stroke-dashoffset="31.7"><animate attributeName="stroke-dashoffset" values="31.7" fill="freeze" begin="7aba.click" /><animate attributeName="stroke-dashoffset" values="31.7;31.7;0" keyTimes="0;0.777;1" dur="1.424s" fill="freeze" begin="0s;7aba.click" /></path><path d="M19.15,52.29c1.8,0.21,3.59,0.18,5.37-0.1c4.88-0.6,8.89-1.14,15.25-2.08c1.78-0.26,3.53-0.73,5.34-0.5" stroke-dasharray="26.164" stroke-dashoffset="26.164"><animate attributeName="stroke-dashoffset" values="26.164" fill="freeze" begin="7aba.click" /><animate attributeName="stroke-dashoffset" values="26.164;26.164;0" keyTimes="0;0.845;1" dur="1.686s" fill="freeze" begin="0s;7aba.click" /></path><path d="M12.64,67.14c2.39,0.23,4.76,0.17,7.11-0.22c7.75-1.29,16.3-2.25,24.62-3.12c1.7-0.18,3.41-0.12,5.11,0.06" stroke-dasharray="37.075" stroke-dashoffset="37.075"><animate attributeName="stroke-dashoffset" values="37.075" fill="freeze" begin="7aba.click" /><animate attributeName="stroke-dashoffset" values="37.075;37.075;0" keyTimes="0;0.82;1" dur="2.057s" fill="freeze" begin="0s;7aba.click" /></path><path d="M30.85,41.12c0.77,0.77,1.12,1.9,1.17,3.55C32.93,74.38,29.25,86,14.28,96.23" stroke-dasharray="61.361" stroke-dashoffset="61.361"><animate attributeName="stroke-dashoffset" values="61.361" fill="freeze" begin="7aba.click" /><animate attributeName="stroke-dashoffset" values="61.361;61.361;0" keyTimes="0;0.817;1" dur="2.518s" fill="freeze" begin="0s;7aba.click" /></path><path d="M33.48,75.1c5.61,3.71,10.33,8.85,12.91,13.91" stroke-dasharray="19.176" stroke-dashoffset="19.176"><animate attributeName="stroke-dashoffset" values="19.176" fill="freeze" begin="7aba.click" /><animate attributeName="stroke-dashoffset" values="19.176;19.176;0" keyTimes="0;0.929;1" dur="2.71s" fill="freeze" begin="0s;7aba.click" /></path><path d="M56.15,41.52c0.78,0.78,1.05,2.07,1.05,3.53c0,3.38,0.04,18.18,0.06,26.8c0.01,3.47,0.01,5.94,0.01,6.26" stroke-dasharray="36.837" stroke-dashoffset="36.837"><animate attributeName="stroke-dashoffset" values="36.837" fill="freeze" begin="7aba.click" /><animate attributeName="stroke-dashoffset" values="36.837;36.837;0" keyTimes="0;0.88;1" dur="3.078s" fill="freeze" begin="0s;7aba.click" /></path><path d="M57.92,43.38c2.43-0.14,21.75-2.66,23.96-2.82c2.47,0.45,3.08,1.53,3.08,3.39c0,4.43-0.02,17.8-0.03,26.06c-0.01,3.82-0.01,6.55-0.01,6.78" stroke-dasharray="62.107" stroke-dashoffset="62.107"><animate attributeName="stroke-dashoffset" values="62.107" fill="freeze" begin="7aba.click" /><animate attributeName="stroke-dashoffset" values="62.107;62.107;0" keyTimes="0;0.868;1" dur="3.545s" fill="freeze" begin="0s;7aba.click" /></path><path d="M58.7,53.41c4.91-0.45,21.57-1.72,25.47-1.72" stroke-dasharray="25.532" stroke-dashoffset="25.532"><animate attributeName="stroke-dashoffset" values="25.532" fill="freeze" begin="7aba.click" /><animate attributeName="stroke-dashoffset" values="25.532;25.532;0" keyTimes="0;0.933;1" dur="3.8s" fill="freeze" begin="0s;7aba.click" /></path><path d="M58.9,64.48c6.22-0.28,18.67-1.7,24.74-2.14" stroke-dasharray="24.835" stroke-dashoffset="24.835"><animate attributeName="stroke-dashoffset" values="24.835" fill="freeze" begin="7aba.click" /><animate attributeName="stroke-dashoffset" values="24.835;24.835;0" keyTimes="0;0.939;1" dur="4.048s" fill="freeze" begin="0s;7aba.click" /></path><path d="M59.02,76.35c6.79-0.21,17.8-1.02,24.48-1.39" stroke-dasharray="24.521" stroke-dashoffset="24.521"><animate attributeName="stroke-dashoffset" values="24.521" fill="freeze" begin="7aba.click" /><animate attributeName="stroke-dashoffset" values="24.521;24.521;0" keyTimes="0;0.943;1" dur="4.293s" fill="freeze" begin="0s;7aba.click" /></path><path d="M62.82,80.33c0.07,1.29-0.19,2.48-0.79,3.57c-2.24,4.56-8.41,12.23-18.95,17.11" stroke-dasharray="29.681" stroke-dashoffset="29.681"><animate attributeName="stroke-dashoffset" values="29.681" fill="freeze" begin="7aba.click" /><animate attributeName="stroke-dashoffset" values="29.681;29.681;0" keyTimes="0;0.935;1" dur="4.59s" fill="freeze" begin="0s;7aba.click" /></path><path d="M72.7,78.26c0.55,0.86,0.98,1.87,1.01,3.19c0.09,3.55-0.16,4.42-0.16,8.58c0,6.8-0.06,8.97,10.2,8.97c11.23,0,11.55-1.5,11.55-6.58" stroke-dasharray="44.517" stroke-dashoffset="44.517"><animate attributeName="stroke-dashoffset" values="44.517" fill="freeze" begin="7aba.click" /><animate attributeName="stroke-dashoffset" values="44.517;44.517;0" keyTimes="0;0.912;1" dur="5.035s" fill="freeze" begin="0s;7aba.click" /></path></g></svg>