<svg xmlns="http://www.w3.org/2000/svg" width="109" height="109" viewBox="0 0 109 109" id="7ad2"><g fill="none" stroke="#666" stroke-width="9" stroke-linecap="round" stroke-linejoin="round"><g><g p4:partial xmlns:p4="http://kanjivg.tagaini.net"><g><path d="M52.75,8.75c1,0.75,1.5,1.75,1.5,3.5s0,4.75,0,9.5" /><path d="M26,24.09c1.55,0.41,3.37,0.47,4.92,0.41c8.77-0.35,34.14-4.41,47.39-4.71c2.59-0.06,4.14,0.2,5.44,0.4" /></g><g><path d="M35.5,29.25c5.18,5.59,7.53,11.31,8,15" /><path d="M69.94,25c0.82,0.69,0.53,2.58,0.32,3.12c-1.77,4.63-6.12,13.37-7.77,16.38" /></g></g><g><g p5:part="1" xmlns:p5="http://kanjivg.tagaini.net"><g><path d="M14.25,51.21c2.06,0.47,4.48,0.65,6.52,0.47c22.43-2.03,40.79-5.02,66.77-5.98c3.43-0.13,5.49,0.22,7.21,0.46" /></g></g><g><path d="M31.25,63.81c0.28,0.33,0.57,0.61,0.7,1.03c0.98,3.3,2.99,12.24,3.66,18.17" /><path d="M33.02,64.77c5.97-1.08,17.73-2.35,21.05-2.79c1.21-0.16,1.94,0.94,1.77,1.87c-0.72,3.85-1.4,8.7-2.46,14.03" /><path d="M35.74,80.95c3.9-0.49,13.98-1.34,19.34-2.09" /></g><g p5:part="2" xmlns:p5="http://kanjivg.tagaini.net"><g><path d="M72.52,49.85C73.5,51,74.07,52.6,74.09,54c0.24,18.64,0.17,35.85,0.17,40.46c0,10.39-7.21,1.5-8.71,0.25" /></g></g></g></g></g><g fill="none" stroke="#000" stroke-width="5" stroke-linecap="round" stroke-linejoin="round"><g><g p4:partial xmlns:p4="http://kanjivg.tagaini.net"><g><path d="M52.75,8.75c1,0.75,1.5,1.75,1.5,3.5s0,4.75,0,9.5" stroke-dasharray="13.47" stroke-dashoffset="13.47"><animate id="0" attributeName="stroke-dashoffset" values="13.47;0" dur="0.13s" fill="freeze" begin="0s;7ad2.click" /></path><path d="M26,24.09c1.55,0.41,3.37,0.47,4.92,0.41c8.77-0.35,34.14-4.41,47.39-4.71c2.59-0.06,4.14,0.2,5.44,0.4" stroke-dasharray="58.06" stroke-dashoffset="58.06"><animate attributeName="stroke-dashoffset" values="58.06" fill="freeze" begin="7ad2.click" /><animate id="1" attributeName="stroke-dashoffset" values="58.06;0" dur="0.58s" fill="freeze" begin="0.end" /></path></g><g><path d="M35.5,29.25c5.18,5.59,7.53,11.31,8,15" stroke-dasharray="17.25" stroke-dashoffset="17.25"><animate attributeName="stroke-dashoffset" values="17.25" fill="freeze" begin="7ad2.click" /><animate id="2" attributeName="stroke-dashoffset" values="17.25;0" dur="0.17s" fill="freeze" begin="1.end" /></path><path d="M69.94,25c0.82,0.69,0.53,2.58,0.32,3.12c-1.77,4.63-6.12,13.37-7.77,16.38" stroke-dasharray="21.42" stroke-dashoffset="21.42"><animate attributeName="stroke-dashoffset" values="21.42" fill="freeze" begin="7ad2.click" /><animate id="3" attributeName="stroke-dashoffset" values="21.42;0" dur="0.21s" fill="freeze" begin="2.end" /></path></g></g><g><g p5:part="1" xmlns:p5="http://kanjivg.tagaini.net"><g><path d="M14.25,51.21c2.06,0.47,4.48,0.65,6.52,0.47c22.43-2.03,40.79-5.02,66.77-5.98c3.43-0.13,5.49,0.22,7.21,0.46" stroke-dasharray="80.85" stroke-dashoffset="80.85"><animate attributeName="stroke-dashoffset" values="80.85" fill="freeze" begin="7ad2.click" /><animate id="4" attributeName="stroke-dashoffset" values="80.85;0" dur="0.61s" fill="freeze" begin="3.end" /></path></g></g><g><path d="M31.25,63.81c0.28,0.33,0.57,0.61,0.7,1.03c0.98,3.3,2.99,12.24,3.66,18.17" stroke-dasharray="19.81" stroke-dashoffset="19.81"><animate attributeName="stroke-dashoffset" values="19.81" fill="freeze" begin="7ad2.click" /><animate id="5" attributeName="stroke-dashoffset" values="19.81;0" dur="0.2s" fill="freeze" begin="4.end" /></path><path d="M33.02,64.77c5.97-1.08,17.73-2.35,21.05-2.79c1.21-0.16,1.94,0.94,1.77,1.87c-0.72,3.85-1.4,8.7-2.46,14.03" stroke-dasharray="38.48" stroke-dashoffset="38.48"><animate attributeName="stroke-dashoffset" values="38.48" fill="freeze" begin="7ad2.click" /><animate id="6" attributeName="stroke-dashoffset" values="38.48;0" dur="0.38s" fill="freeze" begin="5.end" /></path><path d="M35.74,80.95c3.9-0.49,13.98-1.34,19.34-2.09" stroke-dasharray="19.45" stroke-dashoffset="19.45"><animate attributeName="stroke-dashoffset" values="19.45" fill="freeze" begin="7ad2.click" /><animate id="7" attributeName="stroke-dashoffset" values="19.45;0" dur="0.19s" fill="freeze" begin="6.end" /></path></g><g p5:part="2" xmlns:p5="http://kanjivg.tagaini.net"><g><path d="M72.52,49.85C73.5,51,74.07,52.6,74.09,54c0.24,18.64,0.17,35.85,0.17,40.46c0,10.39-7.21,1.5-8.71,0.25" stroke-dasharray="59.18" stroke-dashoffset="59.18"><animate attributeName="stroke-dashoffset" values="59.18" fill="freeze" begin="7ad2.click" /><animate id="8" attributeName="stroke-dashoffset" values="59.18;0" dur="0.59s" fill="freeze" begin="7.end" /></path></g></g></g></g></g></svg>