<svg xmlns="http://www.w3.org/2000/svg" width="109" height="109" viewBox="0 0 109 109" id="7ad9"><g fill="none" stroke="#666" stroke-width="9" stroke-linecap="round" stroke-linejoin="round"><g><g><g><path d="M27.81,14c1.09,1,1.66,2.33,1.66,3.37c0,2.36,0,9.77,0,16.17" /><path d="M11,34.91c1.16,0.3,2.53,0.35,3.68,0.3c6.57-0.26,20.57-1.97,29.49-2.58c1.93-0.13,3.1,0.14,4.07,0.3" /></g><g><path d="M17.25,45.25c5.18,10.25,7.53,20.74,8,27.5" /><path d="M40.18,39.98c0.88,1.26,0.5,3.9,0.31,4.9c-1.94,10.36-6.01,26.99-7.74,32.37" /><path d="M12,87.32c0.97,1.2,3.14,1.17,4.1,0.7c10.59-5.19,19.25-9.99,28.65-14.27" /></g></g><g><g><path d="M69.81,13.63c0.76,0.43,2.36,3.26,2.51,4.13c0.15,0.87-0.25,34.62-0.25,47.37" /><path d="M74.82,42.68c8.41-1.07,16.72-2.82,17.9-2.88s3.28-0.17,4.23-0.02" /></g><g><path d="M52.66,65.55c0.49,0.53,0.98,0.97,1.19,1.63c1.68,5.22,3.2,20.11,4.35,29.48" /><path d="M54.21,67.62c11.68-2,32.99-3.13,38.53-3.89c2.02-0.28,3.24,2.8,2.95,4.43c-1.2,6.77-2.7,14.26-4.35,22.84" /><path d="M59.38,94.68c7.68-0.44,24.25-1.53,34.35-1.98" /></g></g></g></g><g fill="none" stroke="#000" stroke-width="5" stroke-linecap="round" stroke-linejoin="round"><g><g><g><path d="M27.81,14c1.09,1,1.66,2.33,1.66,3.37c0,2.36,0,9.77,0,16.17" stroke-dasharray="20.028" stroke-dashoffset="20.028"><animate attributeName="stroke-dashoffset" values="20.028;20.028;0" dur="0.2s" fill="freeze" begin="0s;7ad9.click" /></path><path d="M11,34.91c1.16,0.3,2.53,0.35,3.68,0.3c6.57-0.26,20.57-1.97,29.49-2.58c1.93-0.13,3.1,0.14,4.07,0.3" stroke-dasharray="37.405" stroke-dashoffset="37.405"><animate attributeName="stroke-dashoffset" values="37.405" fill="freeze" begin="7ad9.click" /><animate attributeName="stroke-dashoffset" values="37.405;37.405;0" keyTimes="0;0.348;1" dur="0.574s" fill="freeze" begin="0s;7ad9.click" /></path></g><g><path d="M17.25,45.25c5.18,10.25,7.53,20.74,8,27.5" stroke-dasharray="28.813" stroke-dashoffset="28.813"><animate attributeName="stroke-dashoffset" values="28.813" fill="freeze" begin="7ad9.click" /><animate attributeName="stroke-dashoffset" values="28.813;28.813;0" keyTimes="0;0.666;1" dur="0.862s" fill="freeze" begin="0s;7ad9.click" /></path><path d="M40.18,39.98c0.88,1.26,0.5,3.9,0.31,4.9c-1.94,10.36-6.01,26.99-7.74,32.37" stroke-dasharray="38.31" stroke-dashoffset="38.31"><animate attributeName="stroke-dashoffset" values="38.31" fill="freeze" begin="7ad9.click" /><animate attributeName="stroke-dashoffset" values="38.31;38.31;0" keyTimes="0;0.692;1" dur="1.245s" fill="freeze" begin="0s;7ad9.click" /></path><path d="M12,87.32c0.97,1.2,3.14,1.17,4.1,0.7c10.59-5.19,19.25-9.99,28.65-14.27" stroke-dasharray="36.432" stroke-dashoffset="36.432"><animate attributeName="stroke-dashoffset" values="36.432" fill="freeze" begin="7ad9.click" /><animate attributeName="stroke-dashoffset" values="36.432;36.432;0" keyTimes="0;0.774;1" dur="1.609s" fill="freeze" begin="0s;7ad9.click" /></path></g></g><g><g><path d="M69.81,13.63c0.76,0.43,2.36,3.26,2.51,4.13c0.15,0.87-0.25,34.62-0.25,47.37" stroke-dasharray="52.263" stroke-dashoffset="52.263"><animate attributeName="stroke-dashoffset" values="52.263" fill="freeze" begin="7ad9.click" /><animate attributeName="stroke-dashoffset" values="52.263;52.263;0" keyTimes="0;0.755;1" dur="2.132s" fill="freeze" begin="0s;7ad9.click" /></path><path d="M74.82,42.68c8.41-1.07,16.72-2.82,17.9-2.88s3.28-0.17,4.23-0.02" stroke-dasharray="22.369" stroke-dashoffset="22.369"><animate attributeName="stroke-dashoffset" values="22.369" fill="freeze" begin="7ad9.click" /><animate attributeName="stroke-dashoffset" values="22.369;22.369;0" keyTimes="0;0.905;1" dur="2.356s" fill="freeze" begin="0s;7ad9.click" /></path></g><g><path d="M52.66,65.55c0.49,0.53,0.98,0.97,1.19,1.63c1.68,5.22,3.2,20.11,4.35,29.48" stroke-dasharray="31.863" stroke-dashoffset="31.863"><animate attributeName="stroke-dashoffset" values="31.863" fill="freeze" begin="7ad9.click" /><animate attributeName="stroke-dashoffset" values="31.863;31.863;0" keyTimes="0;0.881;1" dur="2.675s" fill="freeze" begin="0s;7ad9.click" /></path><path d="M54.21,67.62c11.68-2,32.99-3.13,38.53-3.89c2.02-0.28,3.24,2.8,2.95,4.43c-1.2,6.77-2.7,14.26-4.35,22.84" stroke-dasharray="67.995" stroke-dashoffset="67.995"><animate attributeName="stroke-dashoffset" values="67.995" fill="freeze" begin="7ad9.click" /><animate attributeName="stroke-dashoffset" values="67.995;67.995;0" keyTimes="0;0.84;1" dur="3.186s" fill="freeze" begin="0s;7ad9.click" /></path><path d="M59.38,94.68c7.68-0.44,24.25-1.53,34.35-1.98" stroke-dasharray="34.408" stroke-dashoffset="34.408"><animate attributeName="stroke-dashoffset" values="34.408" fill="freeze" begin="7ad9.click" /><animate attributeName="stroke-dashoffset" values="34.408;34.408;0" keyTimes="0;0.903;1" dur="3.53s" fill="freeze" begin="0s;7ad9.click" /></path></g></g></g></g></svg>