<svg xmlns="http://www.w3.org/2000/svg" width="109" height="109" viewBox="0 0 109 109" id="7ae5"><g fill="none" stroke="#666" stroke-width="9" stroke-linecap="round" stroke-linejoin="round"><g><g><g><path d="M52.75,10.25c1,0.75,1.5,2,1.5,3.75s0,2.5,0,7.25" /><path d="M30.62,23.7c1.82,0.33,3.97,0.5,5.78,0.33c9.72-0.91,25.6-2.53,35.34-2.77c3.04-0.07,4.86,0.16,6.38,0.32" /></g><g><path d="M39.25,27.5c2.91,3.82,4.23,7.73,4.5,10.25" /><path d="M66.86,24.5c0.3,0.97,0.21,2.26-0.22,3.19c-1.5,3.25-4.29,8.02-5.39,9.56" /><path d="M14.5,41.85c2.48,0.45,5.4,0.42,7.85,0.2c21.14-1.82,38.61-3.44,61.21-4.23c4.13-0.14,6.61,0.22,8.68,0.44" /></g></g><g p4:phon="重V" xmlns:p4="http://kanjivg.tagaini.net"><path d="M31.41,49.35c0.75,0.75,1.39,1.6,1.51,2.08c1.25,5.01,2.54,11.82,3.71,18.45c0.19,1.08,0.38,2.15,0.56,3.21" /><path d="M34.18,50.85c13.44-1.35,29.69-3.23,39.52-3.87c3.14-0.21,5.11,1.92,4.57,4.29c-0.82,3.63-2.63,10.84-4.2,15.55c-0.36,1.09-0.71,2.04-1.03,2.79" /><path d="M36.06,60.65c5.81-0.52,34.19-2.65,39.47-2.76" /><path d="M37.53,70.31c8.22-0.41,23.41-1.85,34.77-2.52" /><path d="M53,50.82c1,0.81,1.61,2.02,1.65,4.06c0.2,11.24,0.06,37.64,0.06,40.42" /><path d="M33.5,82.06c1.39,0.37,3.95,0.48,5.34,0.37c11.65-0.93,22.53-2.06,33.69-2.26c2.32-0.04,3.72,0.18,4.88,0.36" /><path d="M17.32,96c2.29,0.64,6.5,0.74,8.79,0.64c23.85-1.07,29.37-1.36,57.94-2.1c3.82-0.1,6.11,0.3,8.02,0.63" /></g></g></g><g fill="none" stroke="#000" stroke-width="5" stroke-linecap="round" stroke-linejoin="round"><g><g><g><path d="M52.75,10.25c1,0.75,1.5,2,1.5,3.75s0,2.5,0,7.25" stroke-dasharray="11.44" stroke-dashoffset="11.44"><animate id="0" attributeName="stroke-dashoffset" values="11.44;0" dur="0.11s" fill="freeze" begin="0s;7ae5.click" /></path><path d="M30.62,23.7c1.82,0.33,3.97,0.5,5.78,0.33c9.72-0.91,25.6-2.53,35.34-2.77c3.04-0.07,4.86,0.16,6.38,0.32" stroke-dasharray="47.65" stroke-dashoffset="47.65"><animate attributeName="stroke-dashoffset" values="47.65" fill="freeze" begin="7ae5.click" /><animate id="1" attributeName="stroke-dashoffset" values="47.65;0" dur="0.48s" fill="freeze" begin="0.end" /></path></g><g><path d="M39.25,27.5c2.91,3.82,4.23,7.73,4.5,10.25" stroke-dasharray="11.32" stroke-dashoffset="11.32"><animate attributeName="stroke-dashoffset" values="11.32" fill="freeze" begin="7ae5.click" /><animate id="2" attributeName="stroke-dashoffset" values="11.32;0" dur="0.11s" fill="freeze" begin="1.end" /></path><path d="M66.86,24.5c0.3,0.97,0.21,2.26-0.22,3.19c-1.5,3.25-4.29,8.02-5.39,9.56" stroke-dasharray="14.25" stroke-dashoffset="14.25"><animate attributeName="stroke-dashoffset" values="14.25" fill="freeze" begin="7ae5.click" /><animate id="3" attributeName="stroke-dashoffset" values="14.25;0" dur="0.14s" fill="freeze" begin="2.end" /></path><path d="M14.5,41.85c2.48,0.45,5.4,0.42,7.85,0.2c21.14-1.82,38.61-3.44,61.21-4.23c4.13-0.14,6.61,0.22,8.68,0.44" stroke-dasharray="77.94" stroke-dashoffset="77.94"><animate attributeName="stroke-dashoffset" values="77.94" fill="freeze" begin="7ae5.click" /><animate id="4" attributeName="stroke-dashoffset" values="77.94;0" dur="0.59s" fill="freeze" begin="3.end" /></path></g></g><g p4:phon="重V" xmlns:p4="http://kanjivg.tagaini.net"><path d="M31.41,49.35c0.75,0.75,1.39,1.6,1.51,2.08c1.25,5.01,2.54,11.82,3.71,18.45c0.19,1.08,0.38,2.15,0.56,3.21" stroke-dasharray="24.67" stroke-dashoffset="24.67"><animate attributeName="stroke-dashoffset" values="24.67" fill="freeze" begin="7ae5.click" /><animate id="5" attributeName="stroke-dashoffset" values="24.67;0" dur="0.25s" fill="freeze" begin="4.end" /></path><path d="M34.18,50.85c13.44-1.35,29.69-3.23,39.52-3.87c3.14-0.21,5.11,1.92,4.57,4.29c-0.82,3.63-2.63,10.84-4.2,15.55c-0.36,1.09-0.71,2.04-1.03,2.79" stroke-dasharray="66.16" stroke-dashoffset="66.16"><animate attributeName="stroke-dashoffset" values="66.16" fill="freeze" begin="7ae5.click" /><animate id="6" attributeName="stroke-dashoffset" values="66.16;0" dur="0.5s" fill="freeze" begin="5.end" /></path><path d="M36.06,60.65c5.81-0.52,34.19-2.65,39.47-2.76" stroke-dasharray="39.57" stroke-dashoffset="39.57"><animate attributeName="stroke-dashoffset" values="39.57" fill="freeze" begin="7ae5.click" /><animate id="7" attributeName="stroke-dashoffset" values="39.57;0" dur="0.4s" fill="freeze" begin="6.end" /></path><path d="M37.53,70.31c8.22-0.41,23.41-1.85,34.77-2.52" stroke-dasharray="34.86" stroke-dashoffset="34.86"><animate attributeName="stroke-dashoffset" values="34.86" fill="freeze" begin="7ae5.click" /><animate id="8" attributeName="stroke-dashoffset" values="34.86;0" dur="0.35s" fill="freeze" begin="7.end" /></path><path d="M53,50.82c1,0.81,1.61,2.02,1.65,4.06c0.2,11.24,0.06,37.64,0.06,40.42" stroke-dasharray="44.96" stroke-dashoffset="44.96"><animate attributeName="stroke-dashoffset" values="44.96" fill="freeze" begin="7ae5.click" /><animate id="9" attributeName="stroke-dashoffset" values="44.96;0" dur="0.45s" fill="freeze" begin="8.end" /></path><path d="M33.5,82.06c1.39,0.37,3.95,0.48,5.34,0.37c11.65-0.93,22.53-2.06,33.69-2.26c2.32-0.04,3.72,0.18,4.88,0.36" stroke-dasharray="44.04" stroke-dashoffset="44.04"><animate attributeName="stroke-dashoffset" values="44.04" fill="freeze" begin="7ae5.click" /><animate id="10" attributeName="stroke-dashoffset" values="44.04;0" dur="0.44s" fill="freeze" begin="9.end" /></path><path d="M17.32,96c2.29,0.64,6.5,0.74,8.79,0.64c23.85-1.07,29.37-1.36,57.94-2.1c3.82-0.1,6.11,0.3,8.02,0.63" stroke-dasharray="74.88" stroke-dashoffset="74.88"><animate attributeName="stroke-dashoffset" values="74.88" fill="freeze" begin="7ae5.click" /><animate id="11" attributeName="stroke-dashoffset" values="74.88;0" dur="0.56s" fill="freeze" begin="10.end" /></path></g></g></g></svg>