<svg xmlns="http://www.w3.org/2000/svg" width="109" height="109" viewBox="0 0 109 109" id="7b04"><g fill="none" stroke="#666" stroke-width="9" stroke-linecap="round" stroke-linejoin="round"><g><g><g><path d="M28,12c0.04,0.56,0.09,1.46-0.08,2.27C26.93,19.06,21.26,29.57,13.5,36" /><path d="M28.23,23.79c3.71,0,18.61-2.29,22.77-2.29" /><path d="M33.52,24.83c2.66,1.79,6.88,7.35,7.54,10.13" /></g><g><path d="M65.75,10.25c0.04,0.55,0.18,1.43-0.09,2.2c-2.01,5.76-7.56,13.98-14.92,21.05" /><path d="M64.98,21.6c7.02-0.1,22.08-2.72,27.4-2.72" /><path d="M77.54,23.11c0.02,0.25,0.05,0.65-0.05,1.01c-0.58,2.12-3.92,6.78-8.49,9.63" /></g></g><g p4:partial xmlns:p4="http://kanjivg.tagaini.net"><g><path d="M23.25,43.24c1.5,0.45,4.24,0.5,5.75,0.45c9.02-0.32,37.75-3.05,51.26-2.88c2.5,0.03,4,0.21,5.25,0.44" /><g><path d="M14.25,64.22c1.53,0.33,4.35,0.34,5.87,0.33c10.13-0.05,59.71-3.47,70.27-3.38c2.55,0.02,4.08,0.16,5.36,0.32" /><path d="M40.33,45.12c0.92,0.88,1.17,1.78,1.17,2.96c0,1.19,0.5,2.76,0.5,12.84S35.84,92.16,20.25,97.5" /></g></g><g p4:partial><g p4:partial><path d="M65.51,43.28c1.13,0.78,1.99,2.55,1.99,3.33s0,49.57,0,51.9" /></g></g></g></g></g><g fill="none" stroke="#000" stroke-width="5" stroke-linecap="round" stroke-linejoin="round"><g><g><g><path d="M28,12c0.04,0.56,0.09,1.46-0.08,2.27C26.93,19.06,21.26,29.57,13.5,36" stroke-dasharray="28.71" stroke-dashoffset="28.71"><animate id="0" attributeName="stroke-dashoffset" values="28.71;0" dur="0.29s" fill="freeze" begin="0s;7b04.click" /></path><path d="M28.23,23.79c3.71,0,18.61-2.29,22.77-2.29" stroke-dasharray="22.89" stroke-dashoffset="22.89"><animate attributeName="stroke-dashoffset" values="22.89" fill="freeze" begin="7b04.click" /><animate id="1" attributeName="stroke-dashoffset" values="22.89;0" dur="0.23s" fill="freeze" begin="0.end" /></path><path d="M33.52,24.83c2.66,1.79,6.88,7.35,7.54,10.13" stroke-dasharray="12.79" stroke-dashoffset="12.79"><animate attributeName="stroke-dashoffset" values="12.79" fill="freeze" begin="7b04.click" /><animate id="2" attributeName="stroke-dashoffset" values="12.79;0" dur="0.13s" fill="freeze" begin="1.end" /></path></g><g><path d="M65.75,10.25c0.04,0.55,0.18,1.43-0.09,2.2c-2.01,5.76-7.56,13.98-14.92,21.05" stroke-dasharray="28.22" stroke-dashoffset="28.22"><animate attributeName="stroke-dashoffset" values="28.22" fill="freeze" begin="7b04.click" /><animate id="3" attributeName="stroke-dashoffset" values="28.22;0" dur="0.28s" fill="freeze" begin="2.end" /></path><path d="M64.98,21.6c7.02-0.1,22.08-2.72,27.4-2.72" stroke-dasharray="27.55" stroke-dashoffset="27.55"><animate attributeName="stroke-dashoffset" values="27.55" fill="freeze" begin="7b04.click" /><animate id="4" attributeName="stroke-dashoffset" values="27.55;0" dur="0.28s" fill="freeze" begin="3.end" /></path><path d="M77.54,23.11c0.02,0.25,0.05,0.65-0.05,1.01c-0.58,2.12-3.92,6.78-8.49,9.63" stroke-dasharray="14.06" stroke-dashoffset="14.06"><animate attributeName="stroke-dashoffset" values="14.06" fill="freeze" begin="7b04.click" /><animate id="5" attributeName="stroke-dashoffset" values="14.06;0" dur="0.14s" fill="freeze" begin="4.end" /></path></g></g><g p4:partial xmlns:p4="http://kanjivg.tagaini.net"><g><path d="M23.25,43.24c1.5,0.45,4.24,0.5,5.75,0.45c9.02-0.32,37.75-3.05,51.26-2.88c2.5,0.03,4,0.21,5.25,0.44" stroke-dasharray="62.41" stroke-dashoffset="62.41"><animate attributeName="stroke-dashoffset" values="62.41" fill="freeze" begin="7b04.click" /><animate id="6" attributeName="stroke-dashoffset" values="62.41;0" dur="0.47s" fill="freeze" begin="5.end" /></path><g><path d="M14.25,64.22c1.53,0.33,4.35,0.34,5.87,0.33c10.13-0.05,59.71-3.47,70.27-3.38c2.55,0.02,4.08,0.16,5.36,0.32" stroke-dasharray="81.62" stroke-dashoffset="81.62"><animate attributeName="stroke-dashoffset" values="81.62" fill="freeze" begin="7b04.click" /><animate id="7" attributeName="stroke-dashoffset" values="81.62;0" dur="0.61s" fill="freeze" begin="6.end" /></path><path d="M40.33,45.12c0.92,0.88,1.17,1.78,1.17,2.96c0,1.19,0.5,2.76,0.5,12.84S35.84,92.16,20.25,97.5" stroke-dasharray="61.11" stroke-dashoffset="61.11"><animate attributeName="stroke-dashoffset" values="61.11" fill="freeze" begin="7b04.click" /><animate id="8" attributeName="stroke-dashoffset" values="61.11;0" dur="0.46s" fill="freeze" begin="7.end" /></path></g></g><g p4:partial><g p4:partial><path d="M65.51,43.28c1.13,0.78,1.99,2.55,1.99,3.33s0,49.57,0,51.9" stroke-dasharray="55.88" stroke-dashoffset="55.88"><animate attributeName="stroke-dashoffset" values="55.88" fill="freeze" begin="7b04.click" /><animate id="9" attributeName="stroke-dashoffset" values="55.88;0" dur="0.56s" fill="freeze" begin="8.end" /></path></g></g></g></g></g></svg>