<svg xmlns="http://www.w3.org/2000/svg" viewBox="0 0 109 109" id="7b04"><g fill="none" stroke="#666" stroke-width="6" stroke-linecap="round" stroke-linejoin="round"><g><g><g><path d="M28,12c0.04,0.56,0.09,1.46-0.08,2.27C26.93,19.06,21.26,29.57,13.5,36" /><path d="M28.23,23.79c3.71,0,18.61-2.29,22.77-2.29" /><path d="M33.52,24.83c2.66,1.79,6.88,7.35,7.54,10.13" /></g><g><path d="M65.75,10.25c0.04,0.55,0.18,1.43-0.09,2.2c-2.01,5.76-7.56,13.98-14.92,21.05" /><path d="M64.98,21.6c7.02-0.1,22.08-2.72,27.4-2.72" /><path d="M77.54,23.11c0.02,0.25,0.05,0.65-0.05,1.01c-0.58,2.12-3.92,6.78-8.49,9.63" /></g></g><g p4:partial xmlns:p4="http://kanjivg.tagaini.net"><g><path d="M23.25,43.24c1.5,0.45,4.24,0.5,5.75,0.45c9.02-0.32,37.75-3.05,51.26-2.88c2.5,0.03,4,0.21,5.25,0.44" /><g><path d="M14.25,64.22c1.53,0.33,4.35,0.34,5.87,0.33c10.13-0.05,59.71-3.47,70.27-3.38c2.55,0.02,4.08,0.16,5.36,0.32" /><path d="M40.33,45.12c0.92,0.88,1.17,1.78,1.17,2.96c0,1.19,0.5,2.76,0.5,12.84S35.84,92.16,20.25,97.5" /></g></g><g p4:partial><g p4:partial><path d="M65.51,43.28c1.13,0.78,1.99,2.55,1.99,3.33s0,49.57,0,51.9" /></g></g></g></g></g><g fill="none" stroke="#000" stroke-width="3" stroke-linecap="round" stroke-linejoin="round"><path d="M28,12c0.04,0.56,0.09,1.46-0.08,2.27C26.93,19.06,21.26,29.57,13.5,36" stroke-dasharray="28.715" stroke-dashoffset="28.715"><animate attributeName="stroke-dashoffset" values="28.715;28.715;0" dur="0.287s" fill="freeze" begin="0s;7b04.click" /></path><path d="M28.23,23.79c3.71,0,18.61-2.29,22.77-2.29" stroke-dasharray="22.894" stroke-dashoffset="22.894"><animate attributeName="stroke-dashoffset" values="22.894" fill="freeze" begin="7b04.click" /><animate attributeName="stroke-dashoffset" values="22.894;22.894;0" keyTimes="0;0.556;1" dur="0.516s" fill="freeze" begin="0s;7b04.click" /></path><path d="M33.52,24.83c2.66,1.79,6.88,7.35,7.54,10.13" stroke-dasharray="12.795" stroke-dashoffset="12.795"><animate attributeName="stroke-dashoffset" values="12.795" fill="freeze" begin="7b04.click" /><animate attributeName="stroke-dashoffset" values="12.795;12.795;0" keyTimes="0;0.801;1" dur="0.644s" fill="freeze" begin="0s;7b04.click" /></path><path d="M65.75,10.25c0.04,0.55,0.18,1.43-0.09,2.2c-2.01,5.76-7.56,13.98-14.92,21.05" stroke-dasharray="28.222" stroke-dashoffset="28.222"><animate attributeName="stroke-dashoffset" values="28.222" fill="freeze" begin="7b04.click" /><animate attributeName="stroke-dashoffset" values="28.222;28.222;0" keyTimes="0;0.695;1" dur="0.926s" fill="freeze" begin="0s;7b04.click" /></path><path d="M64.98,21.6c7.02-0.1,22.08-2.72,27.4-2.72" stroke-dasharray="27.548" stroke-dashoffset="27.548"><animate attributeName="stroke-dashoffset" values="27.548" fill="freeze" begin="7b04.click" /><animate attributeName="stroke-dashoffset" values="27.548;27.548;0" keyTimes="0;0.771;1" dur="1.201s" fill="freeze" begin="0s;7b04.click" /></path><path d="M77.54,23.11c0.02,0.25,0.05,0.65-0.05,1.01c-0.58,2.12-3.92,6.78-8.49,9.63" stroke-dasharray="14.061" stroke-dashoffset="14.061"><animate attributeName="stroke-dashoffset" values="14.061" fill="freeze" begin="7b04.click" /><animate attributeName="stroke-dashoffset" values="14.061;14.061;0" keyTimes="0;0.895;1" dur="1.342s" fill="freeze" begin="0s;7b04.click" /></path><path d="M23.25,43.24c1.5,0.45,4.24,0.5,5.75,0.45c9.02-0.32,37.75-3.05,51.26-2.88c2.5,0.03,4,0.21,5.25,0.44" stroke-dasharray="62.413" stroke-dashoffset="62.413"><animate attributeName="stroke-dashoffset" values="62.413" fill="freeze" begin="7b04.click" /><animate attributeName="stroke-dashoffset" values="62.413;62.413;0" keyTimes="0;0.741;1" dur="1.811s" fill="freeze" begin="0s;7b04.click" /></path><path d="M14.25,64.22c1.53,0.33,4.35,0.34,5.87,0.33c10.13-0.05,59.71-3.47,70.27-3.38c2.55,0.02,4.08,0.16,5.36,0.32" stroke-dasharray="81.618" stroke-dashoffset="81.618"><animate attributeName="stroke-dashoffset" values="81.618" fill="freeze" begin="7b04.click" /><animate attributeName="stroke-dashoffset" values="81.618;81.618;0" keyTimes="0;0.747;1" dur="2.425s" fill="freeze" begin="0s;7b04.click" /></path><path d="M40.33,45.12c0.92,0.88,1.17,1.78,1.17,2.96c0,1.19,0.5,2.76,0.5,12.84S35.84,92.16,20.25,97.5" stroke-dasharray="61.116" stroke-dashoffset="61.116"><animate attributeName="stroke-dashoffset" values="61.116" fill="freeze" begin="7b04.click" /><animate attributeName="stroke-dashoffset" values="61.116;61.116;0" keyTimes="0;0.841;1" dur="2.885s" fill="freeze" begin="0s;7b04.click" /></path><path d="M65.51,43.28c1.13,0.78,1.99,2.55,1.99,3.33s0,49.57,0,51.9" stroke-dasharray="55.882" stroke-dashoffset="55.882"><animate attributeName="stroke-dashoffset" values="55.882" fill="freeze" begin="7b04.click" /><animate attributeName="stroke-dashoffset" values="55.882;55.882;0" keyTimes="0;0.838;1" dur="3.444s" fill="freeze" begin="0s;7b04.click" /></path></g></svg>