<svg xmlns="http://www.w3.org/2000/svg" width="109" height="109" viewBox="0 0 109 109" id="7b19"><g fill="none" stroke="#666" stroke-width="9" stroke-linecap="round" stroke-linejoin="round"><g><g><g><path d="M30.99,12.25c0.04,0.62,0.21,1.63-0.09,2.48C28.62,21.25,23.12,29,14.75,37.75" /><path d="M28.98,24.54c2.92,0,12.82-1.99,18.91-2.72c1.63-0.2,2.99-0.07,3.86-0.07" /><path d="M34.02,26.83c2.61,2.54,5.11,6.29,6.79,10.63" /></g><g><path d="M64.49,11.75c0.07,0.99,0.07,1.78-0.37,2.68c-2.5,5.07-6.6,10.94-11.87,16.32" /><path d="M63.23,22.41c3.67,0,15.38-1.85,23.27-2.68c2.28-0.24,4.5-0.48,6.13-0.15" /><path d="M76.14,24.5c0.07,0.65-0.03,1.26-0.31,1.83c-1.04,2.51-4.29,6.89-8.58,9.67" /></g></g><g><path d="M34.04,41.68c0.11,1.37-0.25,2.94-0.95,4.16C30,51.25,24.62,58.5,16.08,65.94" /><path d="M31.19,55.07c2.81,0.68,5.04,0.38,7.43,0.17c9.17-0.81,28.26-2.52,37.12-3.22c2.28-0.18,4.48-0.05,6.74,0.12" /><path d="M52.63,39.13c1.18,1.18,1.53,2.99,1.53,4.53c0,0.86,0.05,40.59,0.05,48.17" /><path d="M29.69,73.1c2.73,0.81,6.04,0.17,8.81-0.03c8.81-0.63,24.47-1.87,33.49-2.58c3.27-0.26,6.32-0.66,9.55,0.04" /><path d="M15.03,94.21c3.53,0.72,7.03,0.58,10.6,0.4c14.16-0.7,44.33-2.54,57.62-2.92c3.69-0.11,7.28-0.09,10.84,1.07" /></g></g></g><g fill="none" stroke="#000" stroke-width="5" stroke-linecap="round" stroke-linejoin="round"><g><g><g><path d="M30.99,12.25c0.04,0.62,0.21,1.63-0.09,2.48C28.62,21.25,23.12,29,14.75,37.75" stroke-dasharray="30.81" stroke-dashoffset="30.81"><animate id="0" attributeName="stroke-dashoffset" values="30.81;0" dur="0.31s" fill="freeze" begin="0s;7b19.click" /></path><path d="M28.98,24.54c2.92,0,12.82-1.99,18.91-2.72c1.63-0.2,2.99-0.07,3.86-0.07" stroke-dasharray="22.98" stroke-dashoffset="22.98"><animate attributeName="stroke-dashoffset" values="22.98" fill="freeze" begin="7b19.click" /><animate id="1" attributeName="stroke-dashoffset" values="22.98;0" dur="0.23s" fill="freeze" begin="0.end" /></path><path d="M34.02,26.83c2.61,2.54,5.11,6.29,6.79,10.63" stroke-dasharray="12.71" stroke-dashoffset="12.71"><animate attributeName="stroke-dashoffset" values="12.71" fill="freeze" begin="7b19.click" /><animate id="2" attributeName="stroke-dashoffset" values="12.71;0" dur="0.13s" fill="freeze" begin="1.end" /></path></g><g><path d="M64.49,11.75c0.07,0.99,0.07,1.78-0.37,2.68c-2.5,5.07-6.6,10.94-11.87,16.32" stroke-dasharray="23" stroke-dashoffset="23"><animate attributeName="stroke-dashoffset" values="23" fill="freeze" begin="7b19.click" /><animate id="3" attributeName="stroke-dashoffset" values="23;0" dur="0.23s" fill="freeze" begin="2.end" /></path><path d="M63.23,22.41c3.67,0,15.38-1.85,23.27-2.68c2.28-0.24,4.5-0.48,6.13-0.15" stroke-dasharray="29.58" stroke-dashoffset="29.58"><animate attributeName="stroke-dashoffset" values="29.58" fill="freeze" begin="7b19.click" /><animate id="4" attributeName="stroke-dashoffset" values="29.58;0" dur="0.3s" fill="freeze" begin="3.end" /></path><path d="M76.14,24.5c0.07,0.65-0.03,1.26-0.31,1.83c-1.04,2.51-4.29,6.89-8.58,9.67" stroke-dasharray="14.97" stroke-dashoffset="14.97"><animate attributeName="stroke-dashoffset" values="14.97" fill="freeze" begin="7b19.click" /><animate id="5" attributeName="stroke-dashoffset" values="14.97;0" dur="0.15s" fill="freeze" begin="4.end" /></path></g></g><g><path d="M34.04,41.68c0.11,1.37-0.25,2.94-0.95,4.16C30,51.25,24.62,58.5,16.08,65.94" stroke-dasharray="30.78" stroke-dashoffset="30.78"><animate attributeName="stroke-dashoffset" values="30.78" fill="freeze" begin="7b19.click" /><animate id="6" attributeName="stroke-dashoffset" values="30.78;0" dur="0.31s" fill="freeze" begin="5.end" /></path><path d="M31.19,55.07c2.81,0.68,5.04,0.38,7.43,0.17c9.17-0.81,28.26-2.52,37.12-3.22c2.28-0.18,4.48-0.05,6.74,0.12" stroke-dasharray="51.48" stroke-dashoffset="51.48"><animate attributeName="stroke-dashoffset" values="51.48" fill="freeze" begin="7b19.click" /><animate id="7" attributeName="stroke-dashoffset" values="51.48;0" dur="0.51s" fill="freeze" begin="6.end" /></path><path d="M52.63,39.13c1.18,1.18,1.53,2.99,1.53,4.53c0,0.86,0.05,40.59,0.05,48.17" stroke-dasharray="53.07" stroke-dashoffset="53.07"><animate attributeName="stroke-dashoffset" values="53.07" fill="freeze" begin="7b19.click" /><animate id="8" attributeName="stroke-dashoffset" values="53.07;0" dur="0.53s" fill="freeze" begin="7.end" /></path><path d="M29.69,73.1c2.73,0.81,6.04,0.17,8.81-0.03c8.81-0.63,24.47-1.87,33.49-2.58c3.27-0.26,6.32-0.66,9.55,0.04" stroke-dasharray="52.04" stroke-dashoffset="52.04"><animate attributeName="stroke-dashoffset" values="52.04" fill="freeze" begin="7b19.click" /><animate id="9" attributeName="stroke-dashoffset" values="52.04;0" dur="0.52s" fill="freeze" begin="8.end" /></path><path d="M15.03,94.21c3.53,0.72,7.03,0.58,10.6,0.4c14.16-0.7,44.33-2.54,57.62-2.92c3.69-0.11,7.28-0.09,10.84,1.07" stroke-dasharray="79.28" stroke-dashoffset="79.28"><animate attributeName="stroke-dashoffset" values="79.28" fill="freeze" begin="7b19.click" /><animate id="10" attributeName="stroke-dashoffset" values="79.28;0" dur="0.6s" fill="freeze" begin="9.end" /></path></g></g></g></svg>