<svg xmlns="http://www.w3.org/2000/svg" width="109" height="109" viewBox="0 0 109 109" id="7b4c"><g fill="none" stroke="#666" stroke-width="6" stroke-linecap="round" stroke-linejoin="round"><g><g><g><path d="M29.49,12.25c0.04,0.61,0.09,1.57-0.09,2.44C28.31,19.82,22.06,31.1,13.5,38" /><path d="M27.48,25.48c3.99,0,19.54-2.93,24.02-2.93" /><path d="M32.75,27.25c2.76,2.07,7.12,8.5,7.81,11.72" /></g><g><path d="M66.49,10c0.03,0.43,0.13,1.12-0.06,1.73C65.03,16.25,61.14,22.7,56,28.25" /><path d="M64.48,22.58c4.53,0,22.56-3.42,27.65-3.42" /><path d="M78.99,24c0.03,0.33,0.06,0.85-0.06,1.32C78.22,28.12,74.12,34.25,68.5,38" /></g></g><g><g><path d="M51.25,32.75c0.11,0.88,0.42,2.32-0.22,3.55C47.04,43.9,33.35,60.06,11.5,70.25" /><path d="M51.25,37.33c6.71,4.3,29.18,19.02,35.25,22.28c2.06,1.11,4.7,1.58,6.75,1.9" /></g><g p5:partial xmlns:p5="http://kanjivg.tagaini.net"><path d="M35.5,61.45c0.8,0.28,3.39,0.6,4.2,0.52c3.74-0.37,20.33-1.89,29.35-2.18c1.23-0.04,2.34,0.05,3.36,0.28" /><path d="M52.6,62.88c1.18,0.96,1.18,1.54,1.18,2.31c0,5.4,0.59,23.04,0.3,28.44" /><path d="M34.5,78.04c0.92,0.64,3.96,0.31,4.91,0.28C50,78,60.59,76.71,72.12,75.58c1.15-0.11,3.68-0.26,5.4,0.3" /><path d="M20.35,97.08c0.81,0.47,5.02,0.16,6.4,0.01c19.5-2.09,38.91-3.49,59.44-4.66c2.21-0.12,4.86,0.8,5.96,1.55" /></g></g></g></g><g fill="none" stroke="#000" stroke-width="3" stroke-linecap="round" stroke-linejoin="round"><path d="M29.49,12.25c0.04,0.61,0.09,1.57-0.09,2.44C28.31,19.82,22.06,31.1,13.5,38" stroke-dasharray="31.06" stroke-dashoffset="31.06"><animate attributeName="stroke-dashoffset" values="31.06;31.06;0" dur="0.311s" fill="freeze" begin="0s;7b4c.click" /></path><path d="M27.48,25.48c3.99,0,19.54-2.93,24.02-2.93" stroke-dasharray="24.212" stroke-dashoffset="24.212"><animate attributeName="stroke-dashoffset" values="24.212" fill="freeze" begin="7b4c.click" /><animate attributeName="stroke-dashoffset" values="24.212;24.212;0" keyTimes="0;0.562;1" dur="0.553s" fill="freeze" begin="0s;7b4c.click" /></path><path d="M32.75,27.25c2.76,2.07,7.12,8.5,7.81,11.72" stroke-dasharray="14.257" stroke-dashoffset="14.257"><animate attributeName="stroke-dashoffset" values="14.257" fill="freeze" begin="7b4c.click" /><animate attributeName="stroke-dashoffset" values="14.257;14.257;0" keyTimes="0;0.795;1" dur="0.696s" fill="freeze" begin="0s;7b4c.click" /></path><path d="M66.49,10c0.03,0.43,0.13,1.12-0.06,1.73C65.03,16.25,61.14,22.7,56,28.25" stroke-dasharray="21.418" stroke-dashoffset="21.418"><animate attributeName="stroke-dashoffset" values="21.418" fill="freeze" begin="7b4c.click" /><animate attributeName="stroke-dashoffset" values="21.418;21.418;0" keyTimes="0;0.765;1" dur="0.91s" fill="freeze" begin="0s;7b4c.click" /></path><path d="M64.48,22.58c4.53,0,22.56-3.42,27.65-3.42" stroke-dasharray="27.876" stroke-dashoffset="27.876"><animate attributeName="stroke-dashoffset" values="27.876" fill="freeze" begin="7b4c.click" /><animate attributeName="stroke-dashoffset" values="27.876;27.876;0" keyTimes="0;0.765;1" dur="1.189s" fill="freeze" begin="0s;7b4c.click" /></path><path d="M78.99,24c0.03,0.33,0.06,0.85-0.06,1.32C78.22,28.12,74.12,34.25,68.5,38" stroke-dasharray="18.006" stroke-dashoffset="18.006"><animate attributeName="stroke-dashoffset" values="18.006" fill="freeze" begin="7b4c.click" /><animate attributeName="stroke-dashoffset" values="18.006;18.006;0" keyTimes="0;0.869;1" dur="1.369s" fill="freeze" begin="0s;7b4c.click" /></path><path d="M51.25,32.75c0.11,0.88,0.42,2.32-0.22,3.55C47.04,43.9,33.35,60.06,11.5,70.25" stroke-dasharray="56.472" stroke-dashoffset="56.472"><animate attributeName="stroke-dashoffset" values="56.472" fill="freeze" begin="7b4c.click" /><animate attributeName="stroke-dashoffset" values="56.472;56.472;0" keyTimes="0;0.708;1" dur="1.934s" fill="freeze" begin="0s;7b4c.click" /></path><path d="M51.25,37.33c6.71,4.3,29.18,19.02,35.25,22.28c2.06,1.11,4.7,1.58,6.75,1.9" stroke-dasharray="48.752" stroke-dashoffset="48.752"><animate attributeName="stroke-dashoffset" values="48.752" fill="freeze" begin="7b4c.click" /><animate attributeName="stroke-dashoffset" values="48.752;48.752;0" keyTimes="0;0.799;1" dur="2.422s" fill="freeze" begin="0s;7b4c.click" /></path><path d="M35.5,61.45c0.8,0.28,3.39,0.6,4.2,0.52c3.74-0.37,20.33-1.89,29.35-2.18c1.23-0.04,2.34,0.05,3.36,0.28" stroke-dasharray="37.063" stroke-dashoffset="37.063"><animate attributeName="stroke-dashoffset" values="37.063" fill="freeze" begin="7b4c.click" /><animate attributeName="stroke-dashoffset" values="37.063;37.063;0" keyTimes="0;0.867;1" dur="2.793s" fill="freeze" begin="0s;7b4c.click" /></path><path d="M52.6,62.88c1.18,0.96,1.18,1.54,1.18,2.31c0,5.4,0.59,23.04,0.3,28.44" stroke-dasharray="31.167" stroke-dashoffset="31.167"><animate attributeName="stroke-dashoffset" values="31.167" fill="freeze" begin="7b4c.click" /><animate attributeName="stroke-dashoffset" values="31.167;31.167;0" keyTimes="0;0.9;1" dur="3.105s" fill="freeze" begin="0s;7b4c.click" /></path><path d="M34.5,78.04c0.92,0.64,3.96,0.31,4.91,0.28C50,78,60.59,76.71,72.12,75.58c1.15-0.11,3.68-0.26,5.4,0.3" stroke-dasharray="43.247" stroke-dashoffset="43.247"><animate attributeName="stroke-dashoffset" values="43.247" fill="freeze" begin="7b4c.click" /><animate attributeName="stroke-dashoffset" values="43.247;43.247;0" keyTimes="0;0.878;1" dur="3.537s" fill="freeze" begin="0s;7b4c.click" /></path><path d="M20.35,97.08c0.81,0.47,5.02,0.16,6.4,0.01c19.5-2.09,38.91-3.49,59.44-4.66c2.21-0.12,4.86,0.8,5.96,1.55" stroke-dasharray="72.309" stroke-dashoffset="72.309"><animate attributeName="stroke-dashoffset" values="72.309" fill="freeze" begin="7b4c.click" /><animate attributeName="stroke-dashoffset" values="72.309;72.309;0" keyTimes="0;0.867;1" dur="4.081s" fill="freeze" begin="0s;7b4c.click" /></path></g></svg>