<svg xmlns="http://www.w3.org/2000/svg" viewBox="0 0 109 109" id="7b4f"><g fill="none" stroke="#666" stroke-width="6" stroke-linecap="round" stroke-linejoin="round"><g><g><g><path d="M28.5,11.75c0.03,0.46,0.07,1.2-0.07,1.87c-0.83,3.94-5.63,12.59-12.18,17.88" /><path d="M27.73,23.29c4.22,0,17.78-3.29,22.52-3.29" /><path d="M35.02,24.33c1.6,1.44,4.14,5.9,4.54,8.13" /></g><g><path d="M62.24,11c0.03,0.43,0.12,1.12-0.06,1.73c-1.3,4.52-4.91,10.97-9.69,16.52" /><path d="M62.48,20.66c4.73,0,25.08-3.57,30.4-3.57" /><path d="M73.78,22.75c0.01,0.24,0.03,0.61-0.03,0.95c-0.36,2-2.42,6.37-5.25,9.05" /></g></g><g><g><path d="M38.78,39.28c0.16,0.88,0.27,1.98-0.14,3.06c-2.62,6.83-12.77,20.03-25,29.29" /><path d="M31.1,59.19c0.52,0.47,0.67,1.53,0.67,2.51c0,10.12-0.26,31.21-0.26,38.02" /></g><g><g><path d="M41.52,55.58c2.35,0.19,4.44,0.58,7.02,0.16c7.98-1.28,31.39-6.21,40.54-6.96c1.69-0.14,3.23,0.26,4.08,0.54" /><path d="M59.94,35.75c1.42,1.4,1.66,1.79,1.96,4.79c2.49,25.17,9.85,44.71,27.12,55.12c5.34,3.22,4.8,0.6,4.09-5.59" /></g><g><path d="M82.53,58.71c0.1,0.8,0.22,2.07-0.21,3.22c-2.54,6.79-17.15,22.43-37.14,31.55" /></g><g><g><path d="M74.87,34.58c2.81,1.56,7.31,5.11,8.62,7.78" /></g></g></g></g></g></g><g fill="none" stroke="#000" stroke-width="3" stroke-linecap="round" stroke-linejoin="round"><path d="M28.5,11.75c0.03,0.46,0.07,1.2-0.07,1.87c-0.83,3.94-5.63,12.59-12.18,17.88" stroke-dasharray="23.814" stroke-dashoffset="23.814"><animate attributeName="stroke-dashoffset" values="23.814;23.814;0" dur="0.238s" fill="freeze" begin="0s;7b4f.click" /></path><path d="M27.73,23.29c4.22,0,17.78-3.29,22.52-3.29" stroke-dasharray="22.78" stroke-dashoffset="22.78"><animate attributeName="stroke-dashoffset" values="22.78" fill="freeze" begin="7b4f.click" /><animate attributeName="stroke-dashoffset" values="22.78;22.78;0" keyTimes="0;0.511;1" dur="0.466s" fill="freeze" begin="0s;7b4f.click" /></path><path d="M35.02,24.33c1.6,1.44,4.14,5.9,4.54,8.13" stroke-dasharray="9.409" stroke-dashoffset="9.409"><animate attributeName="stroke-dashoffset" values="9.409" fill="freeze" begin="7b4f.click" /><animate attributeName="stroke-dashoffset" values="9.409;9.409;0" keyTimes="0;0.832;1" dur="0.56s" fill="freeze" begin="0s;7b4f.click" /></path><path d="M62.24,11c0.03,0.43,0.12,1.12-0.06,1.73c-1.3,4.52-4.91,10.97-9.69,16.52" stroke-dasharray="21.021" stroke-dashoffset="21.021"><animate attributeName="stroke-dashoffset" values="21.021" fill="freeze" begin="7b4f.click" /><animate attributeName="stroke-dashoffset" values="21.021;21.021;0" keyTimes="0;0.727;1" dur="0.77s" fill="freeze" begin="0s;7b4f.click" /></path><path d="M62.48,20.66c4.73,0,25.08-3.57,30.4-3.57" stroke-dasharray="30.623" stroke-dashoffset="30.623"><animate attributeName="stroke-dashoffset" values="30.623" fill="freeze" begin="7b4f.click" /><animate attributeName="stroke-dashoffset" values="30.623;30.623;0" keyTimes="0;0.716;1" dur="1.076s" fill="freeze" begin="0s;7b4f.click" /></path><path d="M73.78,22.75c0.01,0.24,0.03,0.61-0.03,0.95c-0.36,2-2.42,6.37-5.25,9.05" stroke-dasharray="11.543" stroke-dashoffset="11.543"><animate attributeName="stroke-dashoffset" values="11.543" fill="freeze" begin="7b4f.click" /><animate attributeName="stroke-dashoffset" values="11.543;11.543;0" keyTimes="0;0.903;1" dur="1.191s" fill="freeze" begin="0s;7b4f.click" /></path><path d="M38.78,39.28c0.16,0.88,0.27,1.98-0.14,3.06c-2.62,6.83-12.77,20.03-25,29.29" stroke-dasharray="41.965" stroke-dashoffset="41.965"><animate attributeName="stroke-dashoffset" values="41.965" fill="freeze" begin="7b4f.click" /><animate attributeName="stroke-dashoffset" values="41.965;41.965;0" keyTimes="0;0.739;1" dur="1.611s" fill="freeze" begin="0s;7b4f.click" /></path><path d="M31.1,59.19c0.52,0.47,0.67,1.53,0.67,2.51c0,10.12-0.26,31.21-0.26,38.02" stroke-dasharray="40.684" stroke-dashoffset="40.684"><animate attributeName="stroke-dashoffset" values="40.684" fill="freeze" begin="7b4f.click" /><animate attributeName="stroke-dashoffset" values="40.684;40.684;0" keyTimes="0;0.798;1" dur="2.018s" fill="freeze" begin="0s;7b4f.click" /></path><path d="M41.52,55.58c2.35,0.19,4.44,0.58,7.02,0.16c7.98-1.28,31.39-6.21,40.54-6.96c1.69-0.14,3.23,0.26,4.08,0.54" stroke-dasharray="52.332" stroke-dashoffset="52.332"><animate attributeName="stroke-dashoffset" values="52.332" fill="freeze" begin="7b4f.click" /><animate attributeName="stroke-dashoffset" values="52.332;52.332;0" keyTimes="0;0.794;1" dur="2.541s" fill="freeze" begin="0s;7b4f.click" /></path><path d="M59.94,35.75c1.42,1.4,1.66,1.79,1.96,4.79c2.49,25.17,9.85,44.71,27.12,55.12c5.34,3.22,4.8,0.6,4.09-5.59" stroke-dasharray="80.44" stroke-dashoffset="80.44"><animate attributeName="stroke-dashoffset" values="80.44" fill="freeze" begin="7b4f.click" /><animate attributeName="stroke-dashoffset" values="80.44;80.44;0" keyTimes="0;0.808;1" dur="3.146s" fill="freeze" begin="0s;7b4f.click" /></path><path d="M82.53,58.71c0.1,0.8,0.22,2.07-0.21,3.22c-2.54,6.79-17.15,22.43-37.14,31.55" stroke-dasharray="52.791" stroke-dashoffset="52.791"><animate attributeName="stroke-dashoffset" values="52.791" fill="freeze" begin="7b4f.click" /><animate attributeName="stroke-dashoffset" values="52.791;52.791;0" keyTimes="0;0.856;1" dur="3.674s" fill="freeze" begin="0s;7b4f.click" /></path><path d="M74.87,34.58c2.81,1.56,7.31,5.11,8.62,7.78" stroke-dasharray="11.736" stroke-dashoffset="11.736"><animate attributeName="stroke-dashoffset" values="11.736" fill="freeze" begin="7b4f.click" /><animate attributeName="stroke-dashoffset" values="11.736;11.736;0" keyTimes="0;0.969;1" dur="3.791s" fill="freeze" begin="0s;7b4f.click" /></path></g></svg>