<svg xmlns="http://www.w3.org/2000/svg" width="109" height="109" viewBox="0 0 109 109" id="7b51"><g fill="none" stroke="#666" stroke-width="9" stroke-linecap="round" stroke-linejoin="round"><g><g><g><path d="M28,12.74c0.03,0.59,0.07,1.54-0.07,2.39C27.1,20.17,21.31,31.23,14.75,38" /><path d="M26.73,26.58c3.71,0,18.61-2.71,22.77-2.71" /><path d="M34.27,27.81c2.04,1.88,5.28,7.73,5.79,10.65" /></g><g><path d="M61.74,10.5c0.03,0.52,0.12,1.37-0.06,2.1c-1.37,5.51-5.16,13.38-10.18,20.15" /><path d="M60.98,23.71c4.73,0,24.58-3.57,29.9-3.57" /><path d="M75.27,24.97c0.02,0.27,0.04,0.69-0.04,1.07c-0.5,2.25-3.34,7.2-7.23,10.22" /></g></g><g><g><path d="M15.25,50.39c0.76,0.38,2.24,0.46,3,0.36c4.82-0.66,20.65-1.89,26-2.5c1.25-0.14,2.62-0.18,3.25,0.01" /><path d="M30.37,50.75c1.09,0.5,1.74,2.25,1.96,3.25c0.22,1,0,17.75-0.22,24" /><path d="M14,86.04c0.83,0.96,2.49,1.46,4.98,0.21c6.92-3.5,19.36-9.5,26.27-13" /></g><g><g><g><path d="M54.5,43.48c0.51,1.5,1.25,2.68,1.25,4.55c0,17.1,1.2,38.73-15.25,49.83" /></g><path d="M56.05,45.06c2.97-0.59,17.23-2.87,19.61-3.46c2.38-0.59,4.96,0.6,4.36,3.57c-0.6,2.97-0.42,37.84-0.48,40.02c-0.2,7.13,1.21,10.59,9.11,10.59c10.86,0,8.39-2.38,8.39-8.52" /></g><g><path d="M64.29,64.59c4.42,3.7,6.95,7.63,8.32,11.1" /></g></g></g></g></g><g fill="none" stroke="#000" stroke-width="5" stroke-linecap="round" stroke-linejoin="round"><g><g><g><path d="M28,12.74c0.03,0.59,0.07,1.54-0.07,2.39C27.1,20.17,21.31,31.23,14.75,38" stroke-dasharray="29.06" stroke-dashoffset="29.06"><animate id="0" attributeName="stroke-dashoffset" values="29.06;0" dur="0.29s" fill="freeze" begin="0s;7b51.click" /></path><path d="M26.73,26.58c3.71,0,18.61-2.71,22.77-2.71" stroke-dasharray="22.94" stroke-dashoffset="22.94"><animate attributeName="stroke-dashoffset" values="22.94" fill="freeze" begin="7b51.click" /><animate id="1" attributeName="stroke-dashoffset" values="22.94;0" dur="0.23s" fill="freeze" begin="0.end" /></path><path d="M34.27,27.81c2.04,1.88,5.28,7.73,5.79,10.65" stroke-dasharray="12.24" stroke-dashoffset="12.24"><animate attributeName="stroke-dashoffset" values="12.24" fill="freeze" begin="7b51.click" /><animate id="2" attributeName="stroke-dashoffset" values="12.24;0" dur="0.12s" fill="freeze" begin="1.end" /></path></g><g><path d="M61.74,10.5c0.03,0.52,0.12,1.37-0.06,2.1c-1.37,5.51-5.16,13.38-10.18,20.15" stroke-dasharray="24.81" stroke-dashoffset="24.81"><animate attributeName="stroke-dashoffset" values="24.81" fill="freeze" begin="7b51.click" /><animate id="3" attributeName="stroke-dashoffset" values="24.81;0" dur="0.25s" fill="freeze" begin="2.end" /></path><path d="M60.98,23.71c4.73,0,24.58-3.57,29.9-3.57" stroke-dasharray="30.13" stroke-dashoffset="30.13"><animate attributeName="stroke-dashoffset" values="30.13" fill="freeze" begin="7b51.click" /><animate id="4" attributeName="stroke-dashoffset" values="30.13;0" dur="0.3s" fill="freeze" begin="3.end" /></path><path d="M75.27,24.97c0.02,0.27,0.04,0.69-0.04,1.07c-0.5,2.25-3.34,7.2-7.23,10.22" stroke-dasharray="13.77" stroke-dashoffset="13.77"><animate attributeName="stroke-dashoffset" values="13.77" fill="freeze" begin="7b51.click" /><animate id="5" attributeName="stroke-dashoffset" values="13.77;0" dur="0.14s" fill="freeze" begin="4.end" /></path></g></g><g><g><path d="M15.25,50.39c0.76,0.38,2.24,0.46,3,0.36c4.82-0.66,20.65-1.89,26-2.5c1.25-0.14,2.62-0.18,3.25,0.01" stroke-dasharray="32.44" stroke-dashoffset="32.44"><animate attributeName="stroke-dashoffset" values="32.44" fill="freeze" begin="7b51.click" /><animate id="6" attributeName="stroke-dashoffset" values="32.44;0" dur="0.32s" fill="freeze" begin="5.end" /></path><path d="M30.37,50.75c1.09,0.5,1.74,2.25,1.96,3.25c0.22,1,0,17.75-0.22,24" stroke-dasharray="27.91" stroke-dashoffset="27.91"><animate attributeName="stroke-dashoffset" values="27.91" fill="freeze" begin="7b51.click" /><animate id="7" attributeName="stroke-dashoffset" values="27.91;0" dur="0.28s" fill="freeze" begin="6.end" /></path><path d="M14,86.04c0.83,0.96,2.49,1.46,4.98,0.21c6.92-3.5,19.36-9.5,26.27-13" stroke-dasharray="34.69" stroke-dashoffset="34.69"><animate attributeName="stroke-dashoffset" values="34.69" fill="freeze" begin="7b51.click" /><animate id="8" attributeName="stroke-dashoffset" values="34.69;0" dur="0.35s" fill="freeze" begin="7.end" /></path></g><g><g><g><path d="M54.5,43.48c0.51,1.5,1.25,2.68,1.25,4.55c0,17.1,1.2,38.73-15.25,49.83" stroke-dasharray="59.28" stroke-dashoffset="59.28"><animate attributeName="stroke-dashoffset" values="59.28" fill="freeze" begin="7b51.click" /><animate id="9" attributeName="stroke-dashoffset" values="59.28;0" dur="0.59s" fill="freeze" begin="8.end" /></path></g><path d="M56.05,45.06c2.97-0.59,17.23-2.87,19.61-3.46c2.38-0.59,4.96,0.6,4.36,3.57c-0.6,2.97-0.42,37.84-0.48,40.02c-0.2,7.13,1.21,10.59,9.11,10.59c10.86,0,8.39-2.38,8.39-8.52" stroke-dasharray="98.91" stroke-dashoffset="98.91"><animate attributeName="stroke-dashoffset" values="98.91" fill="freeze" begin="7b51.click" /><animate id="10" attributeName="stroke-dashoffset" values="98.91;0" dur="0.74s" fill="freeze" begin="9.end" /></path></g><g><path d="M64.29,64.59c4.42,3.7,6.95,7.63,8.32,11.1" stroke-dasharray="14.02" stroke-dashoffset="14.02"><animate attributeName="stroke-dashoffset" values="14.02" fill="freeze" begin="7b51.click" /><animate id="11" attributeName="stroke-dashoffset" values="14.02;0" dur="0.14s" fill="freeze" begin="10.end" /></path></g></g></g></g></g></svg>