<svg xmlns="http://www.w3.org/2000/svg" width="109" height="109" viewBox="0 0 109 109" id="7b52"><g fill="none" stroke="#666" stroke-width="6" stroke-linecap="round" stroke-linejoin="round"><g><g><g><path d="M29.25,13c0.25,0.88-0.01,1.76-0.32,2.52c-2.05,4.98-6.3,12.6-12.68,20.48" /><path d="M27.23,26.12c3.38,0,13.35-1.4,19.52-2.12c1.72-0.2,3.2-0.33,4.25-0.33" /><path d="M32.77,28.33c2.57,1.61,6.65,6.63,7.29,9.13" /></g><g><path d="M61.75,12.25c0.05,0.84,0.1,1.63-0.21,2.42C59.5,20,56.73,26.21,52.25,32" /><path d="M61.48,22.66c6.51-0.29,16.64-1.91,24.8-3.2c1.93-0.31,3.54-0.37,4.6-0.37" /><path d="M73.28,25c0.08,0.59-0.01,1.14-0.3,1.66C72.05,29.08,70.96,31.47,68,35" /></g></g><g p4:phon="同" xmlns:p4="http://kanjivg.tagaini.net"><g><path d="M23.67,44.32c0.68,1.22,1.13,2.21,0.9,4.4c-0.18,1.71,0.02,27.56,0,40.78c0,3.77-0.01,6.5-0.01,7.31" /><path d="M25.39,45.75c9.36-0.75,42.23-3.62,56.11-4.61c3.74-0.27,4.97,1.76,4.97,4.44c0,2.44-0.02,39.75-0.02,45.35c0,10.82-4.63,4.33-6.62,1.96" /></g><g><path d="M36.99,56.54c1.67,0.68,3.67,0.6,5.39,0.5c8.5-0.5,16.2-1.61,23.01-2.4c1.49-0.17,2.65-0.08,3.4,0.11" /></g><g><path d="M37.14,69.01c0.61,0.61,1.28,1.9,1.48,2.91c0.89,3.95,1.12,5.97,1.68,9.86c0.25,1.71,0.51,3.36,0.81,4.78" /><path d="M39.37,70.33C49.75,69,60.46,67.94,66.1,67.52c2.67-0.2,3.21,1.07,2.54,3.27c-0.96,3.14-1.76,5.83-2.75,9.58" /><path d="M42.11,83.87c5.44-0.39,13.25-1.1,20.9-1.65c1.66-0.12,3.32-0.25,4.94-0.38" /></g></g></g></g><g fill="none" stroke="#000" stroke-width="3" stroke-linecap="round" stroke-linejoin="round"><path d="M29.25,13c0.25,0.88-0.01,1.76-0.32,2.52c-2.05,4.98-6.3,12.6-12.68,20.48" stroke-dasharray="26.754" stroke-dashoffset="26.754"><animate attributeName="stroke-dashoffset" values="26.754;26.754;0" dur="0.268s" fill="freeze" begin="0s;7b52.click" /></path><path d="M27.23,26.12c3.38,0,13.35-1.4,19.52-2.12c1.72-0.2,3.2-0.33,4.25-0.33" stroke-dasharray="23.907" stroke-dashoffset="23.907"><animate attributeName="stroke-dashoffset" values="23.907" fill="freeze" begin="7b52.click" /><animate attributeName="stroke-dashoffset" values="23.907;23.907;0" keyTimes="0;0.529;1" dur="0.507s" fill="freeze" begin="0s;7b52.click" /></path><path d="M32.77,28.33c2.57,1.61,6.65,6.63,7.29,9.13" stroke-dasharray="11.844" stroke-dashoffset="11.844"><animate attributeName="stroke-dashoffset" values="11.844" fill="freeze" begin="7b52.click" /><animate attributeName="stroke-dashoffset" values="11.844;11.844;0" keyTimes="0;0.811;1" dur="0.625s" fill="freeze" begin="0s;7b52.click" /></path><path d="M61.75,12.25c0.05,0.84,0.1,1.63-0.21,2.42C59.5,20,56.73,26.21,52.25,32" stroke-dasharray="22.188" stroke-dashoffset="22.188"><animate attributeName="stroke-dashoffset" values="22.188" fill="freeze" begin="7b52.click" /><animate attributeName="stroke-dashoffset" values="22.188;22.188;0" keyTimes="0;0.738;1" dur="0.847s" fill="freeze" begin="0s;7b52.click" /></path><path d="M61.48,22.66c6.51-0.29,16.64-1.91,24.8-3.2c1.93-0.31,3.54-0.37,4.6-0.37" stroke-dasharray="29.637" stroke-dashoffset="29.637"><animate attributeName="stroke-dashoffset" values="29.637" fill="freeze" begin="7b52.click" /><animate attributeName="stroke-dashoffset" values="29.637;29.637;0" keyTimes="0;0.741;1" dur="1.143s" fill="freeze" begin="0s;7b52.click" /></path><path d="M73.28,25c0.08,0.59-0.01,1.14-0.3,1.66C72.05,29.08,70.96,31.47,68,35" stroke-dasharray="11.485" stroke-dashoffset="11.485"><animate attributeName="stroke-dashoffset" values="11.485" fill="freeze" begin="7b52.click" /><animate attributeName="stroke-dashoffset" values="11.485;11.485;0" keyTimes="0;0.909;1" dur="1.258s" fill="freeze" begin="0s;7b52.click" /></path><path d="M23.67,44.32c0.68,1.22,1.13,2.21,0.9,4.4c-0.18,1.71,0.02,27.56,0,40.78c0,3.77-0.01,6.5-0.01,7.31" stroke-dasharray="52.677" stroke-dashoffset="52.677"><animate attributeName="stroke-dashoffset" values="52.677" fill="freeze" begin="7b52.click" /><animate attributeName="stroke-dashoffset" values="52.677;52.677;0" keyTimes="0;0.705;1" dur="1.785s" fill="freeze" begin="0s;7b52.click" /></path><path d="M25.39,45.75c9.36-0.75,42.23-3.62,56.11-4.61c3.74-0.27,4.97,1.76,4.97,4.44c0,2.44-0.02,39.75-0.02,45.35c0,10.82-4.63,4.33-6.62,1.96" stroke-dasharray="122.621" stroke-dashoffset="122.621"><animate attributeName="stroke-dashoffset" values="122.621" fill="freeze" begin="7b52.click" /><animate attributeName="stroke-dashoffset" values="122.621;122.621;0" keyTimes="0;0.659;1" dur="2.707s" fill="freeze" begin="0s;7b52.click" /></path><path d="M36.99,56.54c1.67,0.68,3.67,0.6,5.39,0.5c8.5-0.5,16.2-1.61,23.01-2.4c1.49-0.17,2.65-0.08,3.4,0.11" stroke-dasharray="32.017" stroke-dashoffset="32.017"><animate attributeName="stroke-dashoffset" values="32.017" fill="freeze" begin="7b52.click" /><animate attributeName="stroke-dashoffset" values="32.017;32.017;0" keyTimes="0;0.894;1" dur="3.027s" fill="freeze" begin="0s;7b52.click" /></path><path d="M37.14,69.01c0.61,0.61,1.28,1.9,1.48,2.91c0.89,3.95,1.12,5.97,1.68,9.86c0.25,1.71,0.51,3.36,0.81,4.78" stroke-dasharray="18.157" stroke-dashoffset="18.157"><animate attributeName="stroke-dashoffset" values="18.157" fill="freeze" begin="7b52.click" /><animate attributeName="stroke-dashoffset" values="18.157;18.157;0" keyTimes="0;0.943;1" dur="3.209s" fill="freeze" begin="0s;7b52.click" /></path><path d="M39.37,70.33C49.75,69,60.46,67.94,66.1,67.52c2.67-0.2,3.21,1.07,2.54,3.27c-0.96,3.14-1.76,5.83-2.75,9.58" stroke-dasharray="42.213" stroke-dashoffset="42.213"><animate attributeName="stroke-dashoffset" values="42.213" fill="freeze" begin="7b52.click" /><animate attributeName="stroke-dashoffset" values="42.213;42.213;0" keyTimes="0;0.884;1" dur="3.631s" fill="freeze" begin="0s;7b52.click" /></path><path d="M42.11,83.87c5.44-0.39,13.25-1.1,20.9-1.65c1.66-0.12,3.32-0.25,4.94-0.38" stroke-dasharray="25.921" stroke-dashoffset="25.921"><animate attributeName="stroke-dashoffset" values="25.921" fill="freeze" begin="7b52.click" /><animate attributeName="stroke-dashoffset" values="25.921;25.921;0" keyTimes="0;0.933;1" dur="3.89s" fill="freeze" begin="0s;7b52.click" /></path></g></svg>