<svg xmlns="http://www.w3.org/2000/svg" width="109" height="109" viewBox="0 0 109 109" id="7b71"><g fill="none" stroke="#666" stroke-width="9" stroke-linecap="round" stroke-linejoin="round"><g><g><g><path d="M28.5,11c0.04,0.58,0.09,1.49-0.09,2.32C27.32,18.2,21.06,28.93,12.5,35.5" /><path d="M26.73,23.06c4.27,0,17.98-3.08,22.77-3.08" /><path d="M34.52,24.83c2.22,1.7,5.74,6.99,6.29,9.63" /></g><g><path d="M61.51,10.75c0.04,0.52,0.16,1.35-0.08,2.08c-1.77,5.45-6.68,13.23-13.18,19.92" /><path d="M60.75,20.97c5.83,0,27.2-3.72,33.75-3.72" /><path d="M78.24,22.5c0.03,0.24,0.06,0.62-0.06,0.97c-0.7,2.05-4.7,6.53-10.18,9.28" /></g></g><g><g><path d="M32.5,35.75c0.22,1.79-0.06,4.13-0.77,5.66C27.18,51.17,21.42,60.33,11,72.21" /><path d="M24.98,53.47c0.62,0.82,1.57,1.59,1.66,2.66c0.96,10.38-0.53,37.59,0.22,43.62" /></g><g><g><path d="M39.42,46.66c0.7,0.7,1.19,1.53,1.25,3.86c0.29,11.19-0.02,35.81-0.02,39.62" /></g><g><g><path d="M62,35c0.04,0.66,0.27,1.74-0.08,2.65c-2.25,5.83-8.36,19.03-16.16,27.1" /><path d="M59.97,47.48c0.04-0.2,1.86,0.57,2.52,0.52c6.83-0.59,18.53-2.7,28.96-3.65c1.17-0.11,1.89-0.03,2.2,0.1" /></g><g><g><path d="M81.96,48.67c0.63,1.25,0.97,2.15,0.32,4.44C76.3,73.93,62.67,92.53,43,99.75" /></g><path d="M56,54c7.75,10.75,24.02,34.04,35.04,42.24c2.12,1.58,3.47,1.84,5.21,2.01" /></g></g></g></g></g></g><g fill="none" stroke="#000" stroke-width="5" stroke-linecap="round" stroke-linejoin="round"><g><g><g><path d="M28.5,11c0.04,0.58,0.09,1.49-0.09,2.32C27.32,18.2,21.06,28.93,12.5,35.5" stroke-dasharray="30.02" stroke-dashoffset="30.02"><animate id="0" attributeName="stroke-dashoffset" values="30.02;0" dur="0.3s" fill="freeze" begin="0s;7b71.click" /></path><path d="M26.73,23.06c4.27,0,17.98-3.08,22.77-3.08" stroke-dasharray="23" stroke-dashoffset="23"><animate attributeName="stroke-dashoffset" values="23" fill="freeze" begin="7b71.click" /><animate id="1" attributeName="stroke-dashoffset" values="23;0" dur="0.23s" fill="freeze" begin="0.end" /></path><path d="M34.52,24.83c2.22,1.7,5.74,6.99,6.29,9.63" stroke-dasharray="11.64" stroke-dashoffset="11.64"><animate attributeName="stroke-dashoffset" values="11.64" fill="freeze" begin="7b71.click" /><animate id="2" attributeName="stroke-dashoffset" values="11.64;0" dur="0.12s" fill="freeze" begin="1.end" /></path></g><g><path d="M61.51,10.75c0.04,0.52,0.16,1.35-0.08,2.08c-1.77,5.45-6.68,13.23-13.18,19.92" stroke-dasharray="26.16" stroke-dashoffset="26.16"><animate attributeName="stroke-dashoffset" values="26.16" fill="freeze" begin="7b71.click" /><animate id="3" attributeName="stroke-dashoffset" values="26.16;0" dur="0.26s" fill="freeze" begin="2.end" /></path><path d="M60.75,20.97c5.83,0,27.2-3.72,33.75-3.72" stroke-dasharray="33.97" stroke-dashoffset="33.97"><animate attributeName="stroke-dashoffset" values="33.97" fill="freeze" begin="7b71.click" /><animate id="4" attributeName="stroke-dashoffset" values="33.97;0" dur="0.34s" fill="freeze" begin="3.end" /></path><path d="M78.24,22.5c0.03,0.24,0.06,0.62-0.06,0.97c-0.7,2.05-4.7,6.53-10.18,9.28" stroke-dasharray="14.98" stroke-dashoffset="14.98"><animate attributeName="stroke-dashoffset" values="14.98" fill="freeze" begin="7b71.click" /><animate id="5" attributeName="stroke-dashoffset" values="14.98;0" dur="0.15s" fill="freeze" begin="4.end" /></path></g></g><g><g><path d="M32.5,35.75c0.22,1.79-0.06,4.13-0.77,5.66C27.18,51.17,21.42,60.33,11,72.21" stroke-dasharray="43.04" stroke-dashoffset="43.04"><animate attributeName="stroke-dashoffset" values="43.04" fill="freeze" begin="7b71.click" /><animate id="6" attributeName="stroke-dashoffset" values="43.04;0" dur="0.43s" fill="freeze" begin="5.end" /></path><path d="M24.98,53.47c0.62,0.82,1.57,1.59,1.66,2.66c0.96,10.38-0.53,37.59,0.22,43.62" stroke-dasharray="46.83" stroke-dashoffset="46.83"><animate attributeName="stroke-dashoffset" values="46.83" fill="freeze" begin="7b71.click" /><animate id="7" attributeName="stroke-dashoffset" values="46.83;0" dur="0.47s" fill="freeze" begin="6.end" /></path></g><g><g><path d="M39.42,46.66c0.7,0.7,1.19,1.53,1.25,3.86c0.29,11.19-0.02,35.81-0.02,39.62" stroke-dasharray="43.79" stroke-dashoffset="43.79"><animate attributeName="stroke-dashoffset" values="43.79" fill="freeze" begin="7b71.click" /><animate id="8" attributeName="stroke-dashoffset" values="43.79;0" dur="0.44s" fill="freeze" begin="7.end" /></path></g><g><g><path d="M62,35c0.04,0.66,0.27,1.74-0.08,2.65c-2.25,5.83-8.36,19.03-16.16,27.1" stroke-dasharray="34.41" stroke-dashoffset="34.41"><animate attributeName="stroke-dashoffset" values="34.41" fill="freeze" begin="7b71.click" /><animate id="9" attributeName="stroke-dashoffset" values="34.41;0" dur="0.34s" fill="freeze" begin="8.end" /></path><path d="M59.97,47.48c0.04-0.2,1.86,0.57,2.52,0.52c6.83-0.59,18.53-2.7,28.96-3.65c1.17-0.11,1.89-0.03,2.2,0.1" stroke-dasharray="34.01" stroke-dashoffset="34.01"><animate attributeName="stroke-dashoffset" values="34.01" fill="freeze" begin="7b71.click" /><animate id="10" attributeName="stroke-dashoffset" values="34.01;0" dur="0.34s" fill="freeze" begin="9.end" /></path></g><g><g><path d="M81.96,48.67c0.63,1.25,0.97,2.15,0.32,4.44C76.3,73.93,62.67,92.53,43,99.75" stroke-dasharray="67.85" stroke-dashoffset="67.85"><animate attributeName="stroke-dashoffset" values="67.85" fill="freeze" begin="7b71.click" /><animate id="11" attributeName="stroke-dashoffset" values="67.85;0" dur="0.51s" fill="freeze" begin="10.end" /></path></g><path d="M56,54c7.75,10.75,24.02,34.04,35.04,42.24c2.12,1.58,3.47,1.84,5.21,2.01" stroke-dasharray="60.71" stroke-dashoffset="60.71"><animate attributeName="stroke-dashoffset" values="60.71" fill="freeze" begin="7b71.click" /><animate id="12" attributeName="stroke-dashoffset" values="60.71;0" dur="0.46s" fill="freeze" begin="11.end" /></path></g></g></g></g></g></g></svg>