<svg xmlns="http://www.w3.org/2000/svg" width="109" height="109" viewBox="0 0 109 109" id="7b7a"><g fill="none" stroke="#666" stroke-width="9" stroke-linecap="round" stroke-linejoin="round"><g><g><g><path d="M29,10.75c0.04,0.56,0.09,1.46-0.09,2.27c-1.07,4.79-7.23,15.29-15.66,21.73" /><path d="M27.73,22.29c3.71,0,18.61-2.29,22.77-2.29" /><path d="M33.02,23.83c2.66,1.79,6.88,7.35,7.54,10.13" /></g><g><path d="M64.25,9c0.04,0.53,0.18,1.38-0.09,2.13c-2,5.57-7.56,13.53-14.91,20.37" /><path d="M62.75,19.99c4.77,0,23.77-2.64,29.13-2.64" /><path d="M76.99,22.25c0.04,0.28,0.08,0.72-0.07,1.11C76.03,25.71,70.96,30.85,64,34" /></g></g><g><g p5:part="1" xmlns:p5="http://kanjivg.tagaini.net"><path d="M22.25,41.11c1.45,0.48,4.11,0.56,5.56,0.48c15.08-0.8,38.94-2.59,55.94-3.68c2.41-0.15,3.86,0.23,5.07,0.47" /></g><g><g p6:partial xmlns:p6="http://kanjivg.tagaini.net"><path d="M38,50.62c0.75,0.22,3.21,0.06,3.97,0.01c8.34-0.54,24.42-1.88,32.96-2.11c1.16-0.03,2.22,0.04,3.18,0.23" /><path d="M56.91,51.57c0.69,1.13,0.69,1.8,0.69,2.7c0,6.3-0.01,18.63-0.01,28.74" /><path d="M39.52,66.38c0.65,0.17,2.8,0.1,3.46,0.07c6.93-0.29,21.76-1.41,29.89-1.71c0.81-0.03,2.6-0.07,3.81,0.08" /><path d="M33.21,85.14c0.61,0.17,3.77,0.56,4.8,0.47c14.39-1.18,27.5-2.62,42.88-3.03c1.65-0.04,3.64,0.28,4.46,0.54" /></g><g><path d="M69.27,69.33c2.84,1.3,7.33,5.36,8.04,7.38" /></g></g><g p5:part="2" xmlns:p5="http://kanjivg.tagaini.net"><path d="M25.02,42.05c0,3.24-0.48,50.33-0.48,53.37c0,2.43,0.95,2.94,2.64,2.84c9.61-0.61,55.01-3.44,58.13-3.44c3.12,0,5.76,0.2,7.69,0.61" /></g></g></g></g><g fill="none" stroke="#000" stroke-width="5" stroke-linecap="round" stroke-linejoin="round"><g><g><g><path d="M29,10.75c0.04,0.56,0.09,1.46-0.09,2.27c-1.07,4.79-7.23,15.29-15.66,21.73" stroke-dasharray="29.45" stroke-dashoffset="29.45"><animate id="0" attributeName="stroke-dashoffset" values="29.45;0" dur="0.29s" fill="freeze" begin="0s;7b7a.click" /></path><path d="M27.73,22.29c3.71,0,18.61-2.29,22.77-2.29" stroke-dasharray="22.89" stroke-dashoffset="22.89"><animate attributeName="stroke-dashoffset" values="22.89" fill="freeze" begin="7b7a.click" /><animate id="1" attributeName="stroke-dashoffset" values="22.89;0" dur="0.23s" fill="freeze" begin="0.end" /></path><path d="M33.02,23.83c2.66,1.79,6.88,7.35,7.54,10.13" stroke-dasharray="12.79" stroke-dashoffset="12.79"><animate attributeName="stroke-dashoffset" values="12.79" fill="freeze" begin="7b7a.click" /><animate id="2" attributeName="stroke-dashoffset" values="12.79;0" dur="0.13s" fill="freeze" begin="1.end" /></path></g><g><path d="M64.25,9c0.04,0.53,0.18,1.38-0.09,2.13c-2,5.57-7.56,13.53-14.91,20.37" stroke-dasharray="27.59" stroke-dashoffset="27.59"><animate attributeName="stroke-dashoffset" values="27.59" fill="freeze" begin="7b7a.click" /><animate id="3" attributeName="stroke-dashoffset" values="27.59;0" dur="0.28s" fill="freeze" begin="2.end" /></path><path d="M62.75,19.99c4.77,0,23.77-2.64,29.13-2.64" stroke-dasharray="29.26" stroke-dashoffset="29.26"><animate attributeName="stroke-dashoffset" values="29.26" fill="freeze" begin="7b7a.click" /><animate id="4" attributeName="stroke-dashoffset" values="29.26;0" dur="0.29s" fill="freeze" begin="3.end" /></path><path d="M76.99,22.25c0.04,0.28,0.08,0.72-0.07,1.11C76.03,25.71,70.96,30.85,64,34" stroke-dasharray="18.13" stroke-dashoffset="18.13"><animate attributeName="stroke-dashoffset" values="18.13" fill="freeze" begin="7b7a.click" /><animate id="5" attributeName="stroke-dashoffset" values="18.13;0" dur="0.18s" fill="freeze" begin="4.end" /></path></g></g><g><g p5:part="1" xmlns:p5="http://kanjivg.tagaini.net"><path d="M22.25,41.11c1.45,0.48,4.11,0.56,5.56,0.48c15.08-0.8,38.94-2.59,55.94-3.68c2.41-0.15,3.86,0.23,5.07,0.47" stroke-dasharray="66.78" stroke-dashoffset="66.78"><animate attributeName="stroke-dashoffset" values="66.78" fill="freeze" begin="7b7a.click" /><animate id="6" attributeName="stroke-dashoffset" values="66.78;0" dur="0.5s" fill="freeze" begin="5.end" /></path></g><g><g p6:partial xmlns:p6="http://kanjivg.tagaini.net"><path d="M38,50.62c0.75,0.22,3.21,0.06,3.97,0.01c8.34-0.54,24.42-1.88,32.96-2.11c1.16-0.03,2.22,0.04,3.18,0.23" stroke-dasharray="40.2" stroke-dashoffset="40.2"><animate attributeName="stroke-dashoffset" values="40.2" fill="freeze" begin="7b7a.click" /><animate id="7" attributeName="stroke-dashoffset" values="40.2;0" dur="0.4s" fill="freeze" begin="6.end" /></path><path d="M56.91,51.57c0.69,1.13,0.69,1.8,0.69,2.7c0,6.3-0.01,18.63-0.01,28.74" stroke-dasharray="31.58" stroke-dashoffset="31.58"><animate attributeName="stroke-dashoffset" values="31.58" fill="freeze" begin="7b7a.click" /><animate id="8" attributeName="stroke-dashoffset" values="31.58;0" dur="0.32s" fill="freeze" begin="7.end" /></path><path d="M39.52,66.38c0.65,0.17,2.8,0.1,3.46,0.07c6.93-0.29,21.76-1.41,29.89-1.71c0.81-0.03,2.6-0.07,3.81,0.08" stroke-dasharray="37.22" stroke-dashoffset="37.22"><animate attributeName="stroke-dashoffset" values="37.22" fill="freeze" begin="7b7a.click" /><animate id="9" attributeName="stroke-dashoffset" values="37.22;0" dur="0.37s" fill="freeze" begin="8.end" /></path><path d="M33.21,85.14c0.61,0.17,3.77,0.56,4.8,0.47c14.39-1.18,27.5-2.62,42.88-3.03c1.65-0.04,3.64,0.28,4.46,0.54" stroke-dasharray="52.33" stroke-dashoffset="52.33"><animate attributeName="stroke-dashoffset" values="52.33" fill="freeze" begin="7b7a.click" /><animate id="10" attributeName="stroke-dashoffset" values="52.33;0" dur="0.52s" fill="freeze" begin="9.end" /></path></g><g><path d="M69.27,69.33c2.84,1.3,7.33,5.36,8.04,7.38" stroke-dasharray="11.07" stroke-dashoffset="11.07"><animate attributeName="stroke-dashoffset" values="11.07" fill="freeze" begin="7b7a.click" /><animate id="11" attributeName="stroke-dashoffset" values="11.07;0" dur="0.11s" fill="freeze" begin="10.end" /></path></g></g><g p5:part="2" xmlns:p5="http://kanjivg.tagaini.net"><path d="M25.02,42.05c0,3.24-0.48,50.33-0.48,53.37c0,2.43,0.95,2.94,2.64,2.84c9.61-0.61,55.01-3.44,58.13-3.44c3.12,0,5.76,0.2,7.69,0.61" stroke-dasharray="123.93" stroke-dashoffset="123.93"><animate attributeName="stroke-dashoffset" values="123.93" fill="freeze" begin="7b7a.click" /><animate id="12" attributeName="stroke-dashoffset" values="123.93;0" dur="0.93s" fill="freeze" begin="11.end" /></path></g></g></g></g></svg>