<svg xmlns="http://www.w3.org/2000/svg" width="109" height="109" viewBox="0 0 109 109" id="7b8d"><g fill="none" stroke="#666" stroke-width="9" stroke-linecap="round" stroke-linejoin="round"><g><g><g><path d="M27.75,10c0.04,0.56,0.08,1.44-0.08,2.25c-0.94,4.74-6.31,15.13-13.67,21.5" /><path d="M27.5,21.71c4.03,0,18.47-2.83,23-2.83" /><path d="M33.77,24.08c2.66,1.48,6.88,6.08,7.54,8.38" /></g><g><path d="M61.75,9.25c0.03,0.46,0.13,1.2-0.06,1.84C60.25,15.92,56.27,22.82,51,28.75" /><path d="M61.25,18.4c5.25,0,25.98-3.47,31.88-3.47" /><path d="M76.74,20c0.03,0.26,0.06,0.68-0.06,1.06c-0.72,2.24-4.82,7.17-10.43,10.19" /></g></g><g><g><path d="M13.74,51.51c2.23,0.15,1.34,0.15,3.75,0.15c4.56,0,18.25-1.52,28.07-2.23" /><path d="M32.95,34.83c0.43,0.76,1.47,2.08,1.55,4.6c0.35,12.14-0.23,50.19-0.23,54.32c0,8.74-5.47,1.09-6.79,0.04" /><path d="M13.11,75.57c2.21,1.2,3.13,1.15,5.34,0.12c1.3-0.61,19.78-10.52,25.3-13.44" /></g><g><g><path d="M47.88,38.85c1.02,0.42,2.9,0.49,3.92,0.42c10.63-0.71,28.47-3.39,40.12-3.39c1.7,0,2.72,0.2,3.58,0.41" /></g><g><path d="M61.78,54.24c0.36,0.24,1.13,1.8,1.21,2.28c0.07,0.48-0.05,20.86-0.12,23.87" /><path d="M64.01,55.67c2.28-0.17,23.74-3.17,25.44-3.28c2-0.12,2.86,1.11,2.86,3.28c0,6.83,0.21,13.43-0.88,20.13c-1.17,7.2-4,1.55-4.96,0.18" /><path d="M74.65,42.36c0.6,0.37,1.87,2.78,1.99,3.53c0.12,0.74-0.08,39.12-0.2,43.77" /></g><g><path d="M52.65,39.89c0,3.05-0.7,52.24-0.7,55.09c0,2.42,1.23,2.79,2.47,2.55c12.83-2.53,36.51-4.06,38.84-4.06s4.3,0.19,5.74,0.57" /></g></g></g></g></g><g fill="none" stroke="#000" stroke-width="5" stroke-linecap="round" stroke-linejoin="round"><g><g><g><path d="M27.75,10c0.04,0.56,0.08,1.44-0.08,2.25c-0.94,4.74-6.31,15.13-13.67,21.5" stroke-dasharray="28.072" stroke-dashoffset="28.072"><animate attributeName="stroke-dashoffset" values="28.072;28.072;0" dur="0.281s" fill="freeze" begin="0s;7b8d.click" /></path><path d="M27.5,21.71c4.03,0,18.47-2.83,23-2.83" stroke-dasharray="23.188" stroke-dashoffset="23.188"><animate attributeName="stroke-dashoffset" values="23.188" fill="freeze" begin="7b8d.click" /><animate attributeName="stroke-dashoffset" values="23.188;23.188;0" keyTimes="0;0.548;1" dur="0.513s" fill="freeze" begin="0s;7b8d.click" /></path><path d="M33.77,24.08c2.66,1.48,6.88,6.08,7.54,8.38" stroke-dasharray="11.435" stroke-dashoffset="11.435"><animate attributeName="stroke-dashoffset" values="11.435" fill="freeze" begin="7b8d.click" /><animate attributeName="stroke-dashoffset" values="11.435;11.435;0" keyTimes="0;0.818;1" dur="0.627s" fill="freeze" begin="0s;7b8d.click" /></path></g><g><path d="M61.75,9.25c0.03,0.46,0.13,1.2-0.06,1.84C60.25,15.92,56.27,22.82,51,28.75" stroke-dasharray="22.636" stroke-dashoffset="22.636"><animate attributeName="stroke-dashoffset" values="22.636" fill="freeze" begin="7b8d.click" /><animate attributeName="stroke-dashoffset" values="22.636;22.636;0" keyTimes="0;0.735;1" dur="0.853s" fill="freeze" begin="0s;7b8d.click" /></path><path d="M61.25,18.4c5.25,0,25.98-3.47,31.88-3.47" stroke-dasharray="32.082" stroke-dashoffset="32.082"><animate attributeName="stroke-dashoffset" values="32.082" fill="freeze" begin="7b8d.click" /><animate attributeName="stroke-dashoffset" values="32.082;32.082;0" keyTimes="0;0.727;1" dur="1.174s" fill="freeze" begin="0s;7b8d.click" /></path><path d="M76.74,20c0.03,0.26,0.06,0.68-0.06,1.06c-0.72,2.24-4.82,7.17-10.43,10.19" stroke-dasharray="15.89" stroke-dashoffset="15.89"><animate attributeName="stroke-dashoffset" values="15.89" fill="freeze" begin="7b8d.click" /><animate attributeName="stroke-dashoffset" values="15.89;15.89;0" keyTimes="0;0.881;1" dur="1.333s" fill="freeze" begin="0s;7b8d.click" /></path></g></g><g><g><path d="M13.74,51.51c2.23,0.15,1.34,0.15,3.75,0.15c4.56,0,18.25-1.52,28.07-2.23" stroke-dasharray="31.918" stroke-dashoffset="31.918"><animate attributeName="stroke-dashoffset" values="31.918" fill="freeze" begin="7b8d.click" /><animate attributeName="stroke-dashoffset" values="31.918;31.918;0" keyTimes="0;0.807;1" dur="1.652s" fill="freeze" begin="0s;7b8d.click" /></path><path d="M32.95,34.83c0.43,0.76,1.47,2.08,1.55,4.6c0.35,12.14-0.23,50.19-0.23,54.32c0,8.74-5.47,1.09-6.79,0.04" stroke-dasharray="70.817" stroke-dashoffset="70.817"><animate attributeName="stroke-dashoffset" values="70.817" fill="freeze" begin="7b8d.click" /><animate attributeName="stroke-dashoffset" values="70.817;70.817;0" keyTimes="0;0.756;1" dur="2.184s" fill="freeze" begin="0s;7b8d.click" /></path><path d="M13.11,75.57c2.21,1.2,3.13,1.15,5.34,0.12c1.3-0.61,19.78-10.52,25.3-13.44" stroke-dasharray="34.299" stroke-dashoffset="34.299"><animate attributeName="stroke-dashoffset" values="34.299" fill="freeze" begin="7b8d.click" /><animate attributeName="stroke-dashoffset" values="34.299;34.299;0" keyTimes="0;0.864;1" dur="2.527s" fill="freeze" begin="0s;7b8d.click" /></path></g><g><g><path d="M47.88,38.85c1.02,0.42,2.9,0.49,3.92,0.42c10.63-0.71,28.47-3.39,40.12-3.39c1.7,0,2.72,0.2,3.58,0.41" stroke-dasharray="47.859" stroke-dashoffset="47.859"><animate attributeName="stroke-dashoffset" values="47.859" fill="freeze" begin="7b8d.click" /><animate attributeName="stroke-dashoffset" values="47.859;47.859;0" keyTimes="0;0.841;1" dur="3.006s" fill="freeze" begin="0s;7b8d.click" /></path></g><g><path d="M61.78,54.24c0.36,0.24,1.13,1.8,1.21,2.28c0.07,0.48-0.05,20.86-0.12,23.87" stroke-dasharray="26.478" stroke-dashoffset="26.478"><animate attributeName="stroke-dashoffset" values="26.478" fill="freeze" begin="7b8d.click" /><animate attributeName="stroke-dashoffset" values="26.478;26.478;0" keyTimes="0;0.919;1" dur="3.271s" fill="freeze" begin="0s;7b8d.click" /></path><path d="M64.01,55.67c2.28-0.17,23.74-3.17,25.44-3.28c2-0.12,2.86,1.11,2.86,3.28c0,6.83,0.21,13.43-0.88,20.13c-1.17,7.2-4,1.55-4.96,0.18" stroke-dasharray="59.912" stroke-dashoffset="59.912"><animate attributeName="stroke-dashoffset" values="59.912" fill="freeze" begin="7b8d.click" /><animate attributeName="stroke-dashoffset" values="59.912;59.912;0" keyTimes="0;0.845;1" dur="3.87s" fill="freeze" begin="0s;7b8d.click" /></path><path d="M74.65,42.36c0.6,0.37,1.87,2.78,1.99,3.53c0.12,0.74-0.08,39.12-0.2,43.77" stroke-dasharray="47.87" stroke-dashoffset="47.87"><animate attributeName="stroke-dashoffset" values="47.87" fill="freeze" begin="7b8d.click" /><animate attributeName="stroke-dashoffset" values="47.87;47.87;0" keyTimes="0;0.89;1" dur="4.349s" fill="freeze" begin="0s;7b8d.click" /></path></g><g><path d="M52.65,39.89c0,3.05-0.7,52.24-0.7,55.09c0,2.42,1.23,2.79,2.47,2.55c12.83-2.53,36.51-4.06,38.84-4.06s4.3,0.19,5.74,0.57" stroke-dasharray="104.215" stroke-dashoffset="104.215"><animate attributeName="stroke-dashoffset" values="104.215" fill="freeze" begin="7b8d.click" /><animate attributeName="stroke-dashoffset" values="104.215;104.215;0" keyTimes="0;0.847;1" dur="5.133s" fill="freeze" begin="0s;7b8d.click" /></path></g></g></g></g></g></svg>