<svg xmlns="http://www.w3.org/2000/svg" width="109" height="109" viewBox="0 0 109 109" id="7b8f"><g fill="none" stroke="#666" stroke-width="9" stroke-linecap="round" stroke-linejoin="round"><g><g><g><path d="M29.75,8.5c0.04,0.55,0.09,1.41-0.08,2.2c-1.02,4.64-6.89,14.82-14.92,21.05" /><path d="M28.75,19.53c3.89,0,16.38-2.81,20.75-2.81" /><path d="M34.27,20.58c2.29,1.88,5.91,7.74,6.48,10.67" /></g><g><path d="M62.21,8.25c0.03,0.48,0.15,1.24-0.07,1.92C60.5,15.18,55.98,22.34,50,28.5" /><path d="M62,16.88c4.73,0,21.07-3.42,26.38-3.42" /><path d="M71.26,19.25c0.02,0.19,0.04,0.5-0.04,0.78c-0.5,1.65-3.33,5.26-7.22,7.47" /></g></g><g><g><path d="M75.75,28c0.06,1.02-1.2,2.03-1.99,2.31c-4.26,1.48-20.09,4.83-45.51,7.44" /><path d="M29.51,43.25c0.03,0.37,0.07,0.94-0.07,1.47C28.66,47.81,24.16,54.6,18,58.75" /><path d="M46.46,41.05c2.74,1.55,7.09,6.38,7.78,8.79" /><path d="M70.29,37.88c4.93,1.52,12.73,6.25,13.96,8.62" /></g><g><g><path d="M26.2,58.12c2.05,0.38,3.83,0.73,6.17,0.44c14.28-1.79,31.2-4.03,44.72-5.58c3.31-0.38,4.19,1.03,3.81,2.97c-0.98,5.07-3.04,13.74-3.62,19.88" /><path d="M13,69.63c2.25,0.87,4.8,1.43,7.78,1c21.72-3.13,48.34-5.9,68.99-7.39c3.3-0.25,5.98,0,7.48,0.5" /><path d="M26.05,80.54c1.27,0.28,3.58,0.53,5.1,0.38c14.02-1.39,31.76-4.43,44.51-4.99c2.04-0.09,3.32,0,4.84,0.28" /></g><g><path d="M53.62,58.4c0.44,0.71,1.25,2.34,1.29,4.72c0.21,11.42-0.13,28.03-0.13,31.91c0,8.23-7.32,0.98-7.9,0.24" /></g></g></g></g></g><g fill="none" stroke="#000" stroke-width="5" stroke-linecap="round" stroke-linejoin="round"><g><g><g><path d="M29.75,8.5c0.04,0.55,0.09,1.41-0.08,2.2c-1.02,4.64-6.89,14.82-14.92,21.05" stroke-dasharray="28.38" stroke-dashoffset="28.38"><animate id="0" attributeName="stroke-dashoffset" values="28.38;0" dur="0.28s" fill="freeze" begin="0s;7b8f.click" /></path><path d="M28.75,19.53c3.89,0,16.38-2.81,20.75-2.81" stroke-dasharray="20.96" stroke-dashoffset="20.96"><animate attributeName="stroke-dashoffset" values="20.96" fill="freeze" begin="7b8f.click" /><animate id="1" attributeName="stroke-dashoffset" values="20.96;0" dur="0.21s" fill="freeze" begin="0.end" /></path><path d="M34.27,20.58c2.29,1.88,5.91,7.74,6.48,10.67" stroke-dasharray="12.62" stroke-dashoffset="12.62"><animate attributeName="stroke-dashoffset" values="12.62" fill="freeze" begin="7b8f.click" /><animate id="2" attributeName="stroke-dashoffset" values="12.62;0" dur="0.13s" fill="freeze" begin="1.end" /></path></g><g><path d="M62.21,8.25c0.03,0.48,0.15,1.24-0.07,1.92C60.5,15.18,55.98,22.34,50,28.5" stroke-dasharray="24.08" stroke-dashoffset="24.08"><animate attributeName="stroke-dashoffset" values="24.08" fill="freeze" begin="7b8f.click" /><animate id="3" attributeName="stroke-dashoffset" values="24.08;0" dur="0.24s" fill="freeze" begin="2.end" /></path><path d="M62,16.88c4.73,0,21.07-3.42,26.38-3.42" stroke-dasharray="26.62" stroke-dashoffset="26.62"><animate attributeName="stroke-dashoffset" values="26.62" fill="freeze" begin="7b8f.click" /><animate id="4" attributeName="stroke-dashoffset" values="26.62;0" dur="0.27s" fill="freeze" begin="3.end" /></path><path d="M71.26,19.25c0.02,0.19,0.04,0.5-0.04,0.78c-0.5,1.65-3.33,5.26-7.22,7.47" stroke-dasharray="11.34" stroke-dashoffset="11.34"><animate attributeName="stroke-dashoffset" values="11.34" fill="freeze" begin="7b8f.click" /><animate id="5" attributeName="stroke-dashoffset" values="11.34;0" dur="0.11s" fill="freeze" begin="4.end" /></path></g></g><g><g><path d="M75.75,28c0.06,1.02-1.2,2.03-1.99,2.31c-4.26,1.48-20.09,4.83-45.51,7.44" stroke-dasharray="49.39" stroke-dashoffset="49.39"><animate attributeName="stroke-dashoffset" values="49.39" fill="freeze" begin="7b8f.click" /><animate id="6" attributeName="stroke-dashoffset" values="49.39;0" dur="0.49s" fill="freeze" begin="5.end" /></path><path d="M29.51,43.25c0.03,0.37,0.07,0.94-0.07,1.47C28.66,47.81,24.16,54.6,18,58.75" stroke-dasharray="19.86" stroke-dashoffset="19.86"><animate attributeName="stroke-dashoffset" values="19.86" fill="freeze" begin="7b8f.click" /><animate id="7" attributeName="stroke-dashoffset" values="19.86;0" dur="0.2s" fill="freeze" begin="6.end" /></path><path d="M46.46,41.05c2.74,1.55,7.09,6.38,7.78,8.79" stroke-dasharray="11.9" stroke-dashoffset="11.9"><animate attributeName="stroke-dashoffset" values="11.9" fill="freeze" begin="7b8f.click" /><animate id="8" attributeName="stroke-dashoffset" values="11.9;0" dur="0.12s" fill="freeze" begin="7.end" /></path><path d="M70.29,37.88c4.93,1.52,12.73,6.25,13.96,8.62" stroke-dasharray="16.61" stroke-dashoffset="16.61"><animate attributeName="stroke-dashoffset" values="16.61" fill="freeze" begin="7b8f.click" /><animate id="9" attributeName="stroke-dashoffset" values="16.61;0" dur="0.17s" fill="freeze" begin="8.end" /></path></g><g><g><path d="M26.2,58.12c2.05,0.38,3.83,0.73,6.17,0.44c14.28-1.79,31.2-4.03,44.72-5.58c3.31-0.38,4.19,1.03,3.81,2.97c-0.98,5.07-3.04,13.74-3.62,19.88" stroke-dasharray="77.47" stroke-dashoffset="77.47"><animate attributeName="stroke-dashoffset" values="77.47" fill="freeze" begin="7b8f.click" /><animate id="10" attributeName="stroke-dashoffset" values="77.47;0" dur="0.58s" fill="freeze" begin="9.end" /></path><path d="M13,69.63c2.25,0.87,4.8,1.43,7.78,1c21.72-3.13,48.34-5.9,68.99-7.39c3.3-0.25,5.98,0,7.48,0.5" stroke-dasharray="84.87" stroke-dashoffset="84.87"><animate attributeName="stroke-dashoffset" values="84.87" fill="freeze" begin="7b8f.click" /><animate id="11" attributeName="stroke-dashoffset" values="84.87;0" dur="0.64s" fill="freeze" begin="10.end" /></path><path d="M26.05,80.54c1.27,0.28,3.58,0.53,5.1,0.38c14.02-1.39,31.76-4.43,44.51-4.99c2.04-0.09,3.32,0,4.84,0.28" stroke-dasharray="54.79" stroke-dashoffset="54.79"><animate attributeName="stroke-dashoffset" values="54.79" fill="freeze" begin="7b8f.click" /><animate id="12" attributeName="stroke-dashoffset" values="54.79;0" dur="0.55s" fill="freeze" begin="11.end" /></path></g><g><path d="M53.62,58.4c0.44,0.71,1.25,2.34,1.29,4.72c0.21,11.42-0.13,28.03-0.13,31.91c0,8.23-7.32,0.98-7.9,0.24" stroke-dasharray="48.81" stroke-dashoffset="48.81"><animate attributeName="stroke-dashoffset" values="48.81" fill="freeze" begin="7b8f.click" /><animate id="13" attributeName="stroke-dashoffset" values="48.81;0" dur="0.49s" fill="freeze" begin="12.end" /></path></g></g></g></g></g></svg>