<svg xmlns="http://www.w3.org/2000/svg" width="109" height="109" viewBox="0 0 109 109" id="7b92"><g fill="none" stroke="#666" stroke-width="9" stroke-linecap="round" stroke-linejoin="round"><g><g><g><path d="M30.76,9.75c0.03,0.47,0.08,1.22-0.07,1.89C29.81,15.63,24.83,24.39,18,29.75" /><path d="M29.98,18.92c4.04,0,16.99-2.05,21.52-2.05" /><path d="M35.52,21.83c1.6,1.35,4.14,5.54,4.54,7.63" /></g><g><path d="M62.02,9.75c0.03,0.42,0.15,1.11-0.07,1.7c-1.64,4.46-6.18,10.82-12.2,16.3" /><path d="M61.25,18.22C66.22,18.22,84.42,16,90,16" /><path d="M77.25,20.25c0.03,0.19,0.06,0.49-0.06,0.76c-0.72,1.6-4.82,5.1-10.44,7.24" /></g></g><g><g><path d="M32.34,34.67c1.47,0.39,2.69,0.78,3.91,0.78s35.72-2.65,37.68-2.85c1.96-0.2,3.39,1.6,2.91,2.95c-1.71,4.89-3.18,11.43-3.91,14.55" /><path d="M17.75,44.07c1.42,0.35,4.03,0.41,5.45,0.35c14.8-0.59,38.43-2.99,65.66-3.09c2.37-0.01,3.79,0.17,4.98,0.35" /><path d="M31.97,52.89c0.8,0.22,2.27,0.24,3.07,0.22c10.61-0.26,21.68-2.5,37.03-2.56c1.34,0,2.14,0.11,2.81,0.22" /></g><g><g><path d="M23,58.5c-0.17,4.04-4.29,14.59-5.75,17" /><path d="M23.35,62.12c3.44,0,5.32-0.1,8.08-0.21c20.49-0.85,38.97-2.97,56.26-3.05C98.46,58.81,86.62,67.45,85,68" /></g><g><path d="M30.41,71.44c0.58,0.21,1.91,1.58,1.97,2.02C33,78.5,33.75,90.25,34.1,94.78" /><path d="M32.59,72.35c3.45-0.15,38.35-2.76,40.93-2.85c3.03-0.11,3.69,1.88,3.58,2.85c-0.55,4.9-1.49,12.21-4,16.81c-2.5,4.57-4.85,0.03-6-0.71" /><path d="M53.41,62.24c0.39,0.21,1.22,1.55,1.29,1.97c0.08,0.42-0.05,33.45-0.13,36.04" /></g></g></g></g></g><g fill="none" stroke="#000" stroke-width="5" stroke-linecap="round" stroke-linejoin="round"><g><g><g><path d="M30.76,9.75c0.03,0.47,0.08,1.22-0.07,1.89C29.81,15.63,24.83,24.39,18,29.75" stroke-dasharray="24.32" stroke-dashoffset="24.32"><animate id="0" attributeName="stroke-dashoffset" values="24.32;0" dur="0.24s" fill="freeze" begin="0s;7b92.click" /></path><path d="M29.98,18.92c4.04,0,16.99-2.05,21.52-2.05" stroke-dasharray="21.63" stroke-dashoffset="21.63"><animate attributeName="stroke-dashoffset" values="21.63" fill="freeze" begin="7b92.click" /><animate id="1" attributeName="stroke-dashoffset" values="21.63;0" dur="0.22s" fill="freeze" begin="0.end" /></path><path d="M35.52,21.83c1.6,1.35,4.14,5.54,4.54,7.63" stroke-dasharray="8.98" stroke-dashoffset="8.98"><animate attributeName="stroke-dashoffset" values="8.98" fill="freeze" begin="7b92.click" /><animate id="2" attributeName="stroke-dashoffset" values="8.98;0" dur="0.09s" fill="freeze" begin="1.end" /></path></g><g><path d="M62.02,9.75c0.03,0.42,0.15,1.11-0.07,1.7c-1.64,4.46-6.18,10.82-12.2,16.3" stroke-dasharray="22.24" stroke-dashoffset="22.24"><animate attributeName="stroke-dashoffset" values="22.24" fill="freeze" begin="7b92.click" /><animate id="3" attributeName="stroke-dashoffset" values="22.24;0" dur="0.22s" fill="freeze" begin="2.end" /></path><path d="M61.25,18.22C66.22,18.22,84.42,16,90,16" stroke-dasharray="28.84" stroke-dashoffset="28.84"><animate attributeName="stroke-dashoffset" values="28.84" fill="freeze" begin="7b92.click" /><animate id="4" attributeName="stroke-dashoffset" values="28.84;0" dur="0.29s" fill="freeze" begin="3.end" /></path><path d="M77.25,20.25c0.03,0.19,0.06,0.49-0.06,0.76c-0.72,1.6-4.82,5.1-10.44,7.24" stroke-dasharray="13.67" stroke-dashoffset="13.67"><animate attributeName="stroke-dashoffset" values="13.67" fill="freeze" begin="7b92.click" /><animate id="5" attributeName="stroke-dashoffset" values="13.67;0" dur="0.14s" fill="freeze" begin="4.end" /></path></g></g><g><g><path d="M32.34,34.67c1.47,0.39,2.69,0.78,3.91,0.78s35.72-2.65,37.68-2.85c1.96-0.2,3.39,1.6,2.91,2.95c-1.71,4.89-3.18,11.43-3.91,14.55" stroke-dasharray="61.72" stroke-dashoffset="61.72"><animate attributeName="stroke-dashoffset" values="61.72" fill="freeze" begin="7b92.click" /><animate id="6" attributeName="stroke-dashoffset" values="61.72;0" dur="0.46s" fill="freeze" begin="5.end" /></path><path d="M17.75,44.07c1.42,0.35,4.03,0.41,5.45,0.35c14.8-0.59,38.43-2.99,65.66-3.09c2.37-0.01,3.79,0.17,4.98,0.35" stroke-dasharray="76.22" stroke-dashoffset="76.22"><animate attributeName="stroke-dashoffset" values="76.22" fill="freeze" begin="7b92.click" /><animate id="7" attributeName="stroke-dashoffset" values="76.22;0" dur="0.57s" fill="freeze" begin="6.end" /></path><path d="M31.97,52.89c0.8,0.22,2.27,0.24,3.07,0.22c10.61-0.26,21.68-2.5,37.03-2.56c1.34,0,2.14,0.11,2.81,0.22" stroke-dasharray="43.04" stroke-dashoffset="43.04"><animate attributeName="stroke-dashoffset" values="43.04" fill="freeze" begin="7b92.click" /><animate id="8" attributeName="stroke-dashoffset" values="43.04;0" dur="0.43s" fill="freeze" begin="7.end" /></path></g><g><g><path d="M23,58.5c-0.17,4.04-4.29,14.59-5.75,17" stroke-dasharray="18.03" stroke-dashoffset="18.03"><animate attributeName="stroke-dashoffset" values="18.03" fill="freeze" begin="7b92.click" /><animate id="9" attributeName="stroke-dashoffset" values="18.03;0" dur="0.18s" fill="freeze" begin="8.end" /></path><path d="M23.35,62.12c3.44,0,5.32-0.1,8.08-0.21c20.49-0.85,38.97-2.97,56.26-3.05C98.46,58.81,86.62,67.45,85,68" stroke-dasharray="80.26" stroke-dashoffset="80.26"><animate attributeName="stroke-dashoffset" values="80.26" fill="freeze" begin="7b92.click" /><animate id="10" attributeName="stroke-dashoffset" values="80.26;0" dur="0.6s" fill="freeze" begin="9.end" /></path></g><g><path d="M30.41,71.44c0.58,0.21,1.91,1.58,1.97,2.02C33,78.5,33.75,90.25,34.1,94.78" stroke-dasharray="24.26" stroke-dashoffset="24.26"><animate attributeName="stroke-dashoffset" values="24.26" fill="freeze" begin="7b92.click" /><animate id="11" attributeName="stroke-dashoffset" values="24.26;0" dur="0.24s" fill="freeze" begin="10.end" /></path><path d="M32.59,72.35c3.45-0.15,38.35-2.76,40.93-2.85c3.03-0.11,3.69,1.88,3.58,2.85c-0.55,4.9-1.49,12.21-4,16.81c-2.5,4.57-4.85,0.03-6-0.71" stroke-dasharray="71.54" stroke-dashoffset="71.54"><animate attributeName="stroke-dashoffset" values="71.54" fill="freeze" begin="7b92.click" /><animate id="12" attributeName="stroke-dashoffset" values="71.54;0" dur="0.54s" fill="freeze" begin="11.end" /></path><path d="M53.41,62.24c0.39,0.21,1.22,1.55,1.29,1.97c0.08,0.42-0.05,33.45-0.13,36.04" stroke-dasharray="38.43" stroke-dashoffset="38.43"><animate attributeName="stroke-dashoffset" values="38.43" fill="freeze" begin="7b92.click" /><animate id="13" attributeName="stroke-dashoffset" values="38.43;0" dur="0.38s" fill="freeze" begin="12.end" /></path></g></g></g></g></g></svg>