<svg xmlns="http://www.w3.org/2000/svg" width="109" height="109" viewBox="0 0 109 109" id="7ba1"><g fill="none" stroke="#666" stroke-width="9" stroke-linecap="round" stroke-linejoin="round"><g><g><g><path d="M32.25,12c0.03,0.46,0.14,1.22-0.07,1.87c-1.43,4.51-6.88,12.59-13.43,17.88" /><path d="M30.73,23.54c2.83,0,12.39-1.41,17.02-2.18c1.76-0.29,3.27-0.11,4.25-0.11" /><path d="M35.89,25.96c1.65,1.55,4.26,6.35,4.67,8.76" /></g><g><path d="M65.25,10.75c0.03,0.4,0.11,1.04-0.05,1.61c-1.24,4.21-4.41,10.22-8.94,15.39" /><path d="M64.98,21.16c3.76,0,14.82-2.25,21.89-3.18c1.84-0.24,3-0.35,4.51-0.14" /><path d="M76.27,23c0.02,0.26,0.05,0.67-0.05,1.04c-0.49,1.77-2.84,5.26-6.22,8.09" /></g></g><g p4:phon="官" xmlns:p4="http://kanjivg.tagaini.net"><g><path d="M52.04,30c0.92,0.92,1.45,2.12,1.45,3.27c0,2.84-0.08,2.76-0.08,5.34" /><g><path d="M22.48,40.78c0,3.38-3.63,13.91-4.85,16.17" /><path d="M23.76,42.84c18.87-2.47,42.76-5.33,62.49-6.26c9.88-0.46,2.88,5.91-0.67,8.36" /></g></g><g><g><path d="M37.87,50.74c1.07,1.07,1.46,2.26,1.46,3.75c0,0.74,0.02,28.57,0.03,41.39c0,2.24,0,4.03,0,5.12" /><path d="M40.25,52.54c8.3-1.17,20.67-2.87,26.38-3.51c2.45-0.27,4.4,0.08,3.62,2.88c-1,3.58-1.91,6.44-3.34,11.24" /><path d="M40.25,67.75C46.88,67,57.18,65.62,65,64.76c1.32-0.14,2.56-0.27,3.71-0.38" /></g><path d="M40.5,80.59c8.56-1.11,20.19-2.65,26.25-3.33c4.19-0.47,5.2,0.67,4.5,3.28c-1,3.75-2.16,7.13-3.59,12.38" /><path d="M40.5,96.75c4.95-0.46,16.27-1.68,25.13-2.46c1.53-0.13,2.99-0.25,4.33-0.35" /></g></g></g></g><g fill="none" stroke="#000" stroke-width="5" stroke-linecap="round" stroke-linejoin="round"><g><g><g><path d="M32.25,12c0.03,0.46,0.14,1.22-0.07,1.87c-1.43,4.51-6.88,12.59-13.43,17.88" stroke-dasharray="24.486" stroke-dashoffset="24.486"><animate attributeName="stroke-dashoffset" values="24.486;24.486;0" dur="0.245s" fill="freeze" begin="0s;7ba1.click" /></path><path d="M30.73,23.54c2.83,0,12.39-1.41,17.02-2.18c1.76-0.29,3.27-0.11,4.25-0.11" stroke-dasharray="21.428" stroke-dashoffset="21.428"><animate attributeName="stroke-dashoffset" values="21.428" fill="freeze" begin="7ba1.click" /><animate attributeName="stroke-dashoffset" values="21.428;21.428;0" keyTimes="0;0.534;1" dur="0.459s" fill="freeze" begin="0s;7ba1.click" /></path><path d="M35.89,25.96c1.65,1.55,4.26,6.35,4.67,8.76" stroke-dasharray="10.026" stroke-dashoffset="10.026"><animate attributeName="stroke-dashoffset" values="10.026" fill="freeze" begin="7ba1.click" /><animate attributeName="stroke-dashoffset" values="10.026;10.026;0" keyTimes="0;0.821;1" dur="0.559s" fill="freeze" begin="0s;7ba1.click" /></path></g><g><path d="M65.25,10.75c0.03,0.4,0.11,1.04-0.05,1.61c-1.24,4.21-4.41,10.22-8.94,15.39" stroke-dasharray="19.541" stroke-dashoffset="19.541"><animate attributeName="stroke-dashoffset" values="19.541" fill="freeze" begin="7ba1.click" /><animate attributeName="stroke-dashoffset" values="19.541;19.541;0" keyTimes="0;0.741;1" dur="0.754s" fill="freeze" begin="0s;7ba1.click" /></path><path d="M64.98,21.16c3.76,0,14.82-2.25,21.89-3.18c1.84-0.24,3-0.35,4.51-0.14" stroke-dasharray="26.659" stroke-dashoffset="26.659"><animate attributeName="stroke-dashoffset" values="26.659" fill="freeze" begin="7ba1.click" /><animate attributeName="stroke-dashoffset" values="26.659;26.659;0" keyTimes="0;0.738;1" dur="1.021s" fill="freeze" begin="0s;7ba1.click" /></path><path d="M76.27,23c0.02,0.26,0.05,0.67-0.05,1.04c-0.49,1.77-2.84,5.26-6.22,8.09" stroke-dasharray="11.362" stroke-dashoffset="11.362"><animate attributeName="stroke-dashoffset" values="11.362" fill="freeze" begin="7ba1.click" /><animate attributeName="stroke-dashoffset" values="11.362;11.362;0" keyTimes="0;0.9;1" dur="1.135s" fill="freeze" begin="0s;7ba1.click" /></path></g></g><g p4:phon="官" xmlns:p4="http://kanjivg.tagaini.net"><g><path d="M52.04,30c0.92,0.92,1.45,2.12,1.45,3.27c0,2.84-0.08,2.76-0.08,5.34" stroke-dasharray="9.01" stroke-dashoffset="9.01"><animate attributeName="stroke-dashoffset" values="9.01" fill="freeze" begin="7ba1.click" /><animate attributeName="stroke-dashoffset" values="9.01;9.01;0" keyTimes="0;0.927;1" dur="1.225s" fill="freeze" begin="0s;7ba1.click" /></path><g><path d="M22.48,40.78c0,3.38-3.63,13.91-4.85,16.17" stroke-dasharray="16.949" stroke-dashoffset="16.949"><animate attributeName="stroke-dashoffset" values="16.949" fill="freeze" begin="7ba1.click" /><animate attributeName="stroke-dashoffset" values="16.949;16.949;0" keyTimes="0;0.879;1" dur="1.394s" fill="freeze" begin="0s;7ba1.click" /></path><path d="M23.76,42.84c18.87-2.47,42.76-5.33,62.49-6.26c9.88-0.46,2.88,5.91-0.67,8.36" stroke-dasharray="77.656" stroke-dashoffset="77.656"><animate attributeName="stroke-dashoffset" values="77.656" fill="freeze" begin="7ba1.click" /><animate attributeName="stroke-dashoffset" values="77.656;77.656;0" keyTimes="0;0.705;1" dur="1.978s" fill="freeze" begin="0s;7ba1.click" /></path></g></g><g><g><path d="M37.87,50.74c1.07,1.07,1.46,2.26,1.46,3.75c0,0.74,0.02,28.57,0.03,41.39c0,2.24,0,4.03,0,5.12" stroke-dasharray="50.654" stroke-dashoffset="50.654"><animate attributeName="stroke-dashoffset" values="50.654" fill="freeze" begin="7ba1.click" /><animate attributeName="stroke-dashoffset" values="50.654;50.654;0" keyTimes="0;0.796;1" dur="2.485s" fill="freeze" begin="0s;7ba1.click" /></path><path d="M40.25,52.54c8.3-1.17,20.67-2.87,26.38-3.51c2.45-0.27,4.4,0.08,3.62,2.88c-1,3.58-1.91,6.44-3.34,11.24" stroke-dasharray="44.307" stroke-dashoffset="44.307"><animate attributeName="stroke-dashoffset" values="44.307" fill="freeze" begin="7ba1.click" /><animate attributeName="stroke-dashoffset" values="44.307;44.307;0" keyTimes="0;0.849;1" dur="2.928s" fill="freeze" begin="0s;7ba1.click" /></path><path d="M40.25,67.75C46.88,67,57.18,65.62,65,64.76c1.32-0.14,2.56-0.27,3.71-0.38" stroke-dasharray="28.661" stroke-dashoffset="28.661"><animate attributeName="stroke-dashoffset" values="28.661" fill="freeze" begin="7ba1.click" /><animate attributeName="stroke-dashoffset" values="28.661;28.661;0" keyTimes="0;0.911;1" dur="3.215s" fill="freeze" begin="0s;7ba1.click" /></path></g><path d="M40.5,80.59c8.56-1.11,20.19-2.65,26.25-3.33c4.19-0.47,5.2,0.67,4.5,3.28c-1,3.75-2.16,7.13-3.59,12.38" stroke-dasharray="46.554" stroke-dashoffset="46.554"><animate attributeName="stroke-dashoffset" values="46.554" fill="freeze" begin="7ba1.click" /><animate attributeName="stroke-dashoffset" values="46.554;46.554;0" keyTimes="0;0.873;1" dur="3.681s" fill="freeze" begin="0s;7ba1.click" /></path><path d="M40.5,96.75c4.95-0.46,16.27-1.68,25.13-2.46c1.53-0.13,2.99-0.25,4.33-0.35" stroke-dasharray="29.595" stroke-dashoffset="29.595"><animate attributeName="stroke-dashoffset" values="29.595" fill="freeze" begin="7ba1.click" /><animate attributeName="stroke-dashoffset" values="29.595;29.595;0" keyTimes="0;0.926;1" dur="3.977s" fill="freeze" begin="0s;7ba1.click" /></path></g></g></g></g></svg>