<svg xmlns="http://www.w3.org/2000/svg" width="109" height="109" viewBox="0 0 109 109" id="7baa"><g fill="none" stroke="#666" stroke-width="9" stroke-linecap="round" stroke-linejoin="round"><g><g><g><path d="M32.5,9.75c0.04,0.45,0.08,1.17-0.08,1.82C31.46,15.41,25.99,23.84,18.5,29" /><path d="M29.73,19.79c3.71,0,17.61-3.29,21.77-3.29" /><path d="M34.77,21.58c1.87,1.3,4.83,5.36,5.29,7.38" /></g><g><path d="M61.25,9c0.02,0.36,0.1,0.94-0.05,1.44c-1.07,3.78-4.03,9.17-7.96,13.81" /><path d="M61.98,17.16c4.73,0,22.08-3.57,27.4-3.57" /><path d="M74.27,17.75c0.02,0.22,0.04,0.58-0.04,0.9c-0.45,1.9-3,6.06-6.49,8.6" /></g></g><g><g><path d="M23.99,35.77c3.49,3.1,7.23,8.52,7.73,10.07" /><path d="M45.52,32.9c1.8,1.82,6.11,6.6,6.83,9.56" /><path d="M80.01,29.25c0.46,0.59,0.95,1.93,0.19,2.88c-1.7,2.12-6.2,8.37-10.41,12.02" /></g><g><g p6:partial xmlns:p6="http://kanjivg.tagaini.net"><path d="M28.17,51.82c0.34,0.4,1.34,2.18,1.53,2.68c1.52,4.14,2.44,11.9,3.4,19.58" /><path d="M29.73,52.48c12.63-1.39,38.98-3.77,47.68-4.48c3.19-0.26,5.12,0.56,5.03,2.3c-0.22,4.14-3.75,17.68-4.32,19.41" /><path d="M32.88,61.16c3.79-0.33,44.02-3.11,47.15-3.22" /><path d="M33.68,72.31c10.99-1.32,32.5-3.03,44.53-3.84" /></g><g><path d="M17.98,83.57c1.38,0.56,3.92,0.69,5.31,0.56c9.21-0.88,49.38-4.61,66.63-5.37c2.3-0.1,3.69,0.27,4.84,0.54" /></g><g><g><path d="M54.47,51.75c0.58,0.3,0.94,1.14,0.95,2.17c0.04,5.2,0.17,45.9,0.19,47.6" /></g></g></g></g></g></g><g fill="none" stroke="#000" stroke-width="5" stroke-linecap="round" stroke-linejoin="round"><path d="M32.5,9.75c0.04,0.45,0.08,1.17-0.08,1.82C31.46,15.41,25.99,23.84,18.5,29" stroke-dasharray="24.479" stroke-dashoffset="24.479"><animate attributeName="stroke-dashoffset" values="24.479;24.479;0" dur="0.245s" fill="freeze" begin="0s;7baa.click" /></path><path d="M29.73,19.79c3.71,0,17.61-3.29,21.77-3.29" stroke-dasharray="22.036" stroke-dashoffset="22.036"><animate attributeName="stroke-dashoffset" values="22.036" fill="freeze" begin="7baa.click" /><animate attributeName="stroke-dashoffset" values="22.036;22.036;0" keyTimes="0;0.527;1" dur="0.465s" fill="freeze" begin="0s;7baa.click" /></path><path d="M34.77,21.58c1.87,1.3,4.83,5.36,5.29,7.38" stroke-dasharray="9.199" stroke-dashoffset="9.199"><animate attributeName="stroke-dashoffset" values="9.199" fill="freeze" begin="7baa.click" /><animate attributeName="stroke-dashoffset" values="9.199;9.199;0" keyTimes="0;0.835;1" dur="0.557s" fill="freeze" begin="0s;7baa.click" /></path><path d="M61.25,9c0.02,0.36,0.1,0.94-0.05,1.44c-1.07,3.78-4.03,9.17-7.96,13.81" stroke-dasharray="17.493" stroke-dashoffset="17.493"><animate attributeName="stroke-dashoffset" values="17.493" fill="freeze" begin="7baa.click" /><animate attributeName="stroke-dashoffset" values="17.493;17.493;0" keyTimes="0;0.761;1" dur="0.732s" fill="freeze" begin="0s;7baa.click" /></path><path d="M61.98,17.16c4.73,0,22.08-3.57,27.4-3.57" stroke-dasharray="27.65" stroke-dashoffset="27.65"><animate attributeName="stroke-dashoffset" values="27.65" fill="freeze" begin="7baa.click" /><animate attributeName="stroke-dashoffset" values="27.65;27.65;0" keyTimes="0;0.726;1" dur="1.008s" fill="freeze" begin="0s;7baa.click" /></path><path d="M74.27,17.75c0.02,0.22,0.04,0.58-0.04,0.9c-0.45,1.9-3,6.06-6.49,8.6" stroke-dasharray="11.841" stroke-dashoffset="11.841"><animate attributeName="stroke-dashoffset" values="11.841" fill="freeze" begin="7baa.click" /><animate attributeName="stroke-dashoffset" values="11.841;11.841;0" keyTimes="0;0.895;1" dur="1.126s" fill="freeze" begin="0s;7baa.click" /></path><path d="M23.99,35.77c3.49,3.1,7.23,8.52,7.73,10.07" stroke-dasharray="12.768" stroke-dashoffset="12.768"><animate attributeName="stroke-dashoffset" values="12.768" fill="freeze" begin="7baa.click" /><animate attributeName="stroke-dashoffset" values="12.768;12.768;0" keyTimes="0;0.898;1" dur="1.254s" fill="freeze" begin="0s;7baa.click" /></path><path d="M45.52,32.9c1.8,1.82,6.11,6.6,6.83,9.56" stroke-dasharray="11.847" stroke-dashoffset="11.847"><animate attributeName="stroke-dashoffset" values="11.847" fill="freeze" begin="7baa.click" /><animate attributeName="stroke-dashoffset" values="11.847;11.847;0" keyTimes="0;0.914;1" dur="1.372s" fill="freeze" begin="0s;7baa.click" /></path><path d="M80.01,29.25c0.46,0.59,0.95,1.93,0.19,2.88c-1.7,2.12-6.2,8.37-10.41,12.02" stroke-dasharray="19.024" stroke-dashoffset="19.024"><animate attributeName="stroke-dashoffset" values="19.024" fill="freeze" begin="7baa.click" /><animate attributeName="stroke-dashoffset" values="19.024;19.024;0" keyTimes="0;0.878;1" dur="1.562s" fill="freeze" begin="0s;7baa.click" /></path><path d="M28.17,51.82c0.34,0.4,1.34,2.18,1.53,2.68c1.52,4.14,2.44,11.9,3.4,19.58" stroke-dasharray="22.997" stroke-dashoffset="22.997"><animate attributeName="stroke-dashoffset" values="22.997" fill="freeze" begin="7baa.click" /><animate attributeName="stroke-dashoffset" values="22.997;22.997;0" keyTimes="0;0.872;1" dur="1.792s" fill="freeze" begin="0s;7baa.click" /></path><path d="M29.73,52.48c12.63-1.39,38.98-3.77,47.68-4.48c3.19-0.26,5.12,0.56,5.03,2.3c-0.22,4.14-3.75,17.68-4.32,19.41" stroke-dasharray="74.058" stroke-dashoffset="74.058"><animate attributeName="stroke-dashoffset" values="74.058" fill="freeze" begin="7baa.click" /><animate attributeName="stroke-dashoffset" values="74.058;74.058;0" keyTimes="0;0.763;1" dur="2.349s" fill="freeze" begin="0s;7baa.click" /></path><path d="M32.88,61.16c3.79-0.33,44.02-3.11,47.15-3.22" stroke-dasharray="47.261" stroke-dashoffset="47.261"><animate attributeName="stroke-dashoffset" values="47.261" fill="freeze" begin="7baa.click" /><animate attributeName="stroke-dashoffset" values="47.261;47.261;0" keyTimes="0;0.832;1" dur="2.822s" fill="freeze" begin="0s;7baa.click" /></path><path d="M33.68,72.31c10.99-1.32,32.5-3.03,44.53-3.84" stroke-dasharray="44.7" stroke-dashoffset="44.7"><animate attributeName="stroke-dashoffset" values="44.7" fill="freeze" begin="7baa.click" /><animate attributeName="stroke-dashoffset" values="44.7;44.7;0" keyTimes="0;0.863;1" dur="3.269s" fill="freeze" begin="0s;7baa.click" /></path><path d="M17.98,83.57c1.38,0.56,3.92,0.69,5.31,0.56c9.21-0.88,49.38-4.61,66.63-5.37c2.3-0.1,3.69,0.27,4.84,0.54" stroke-dasharray="77.118" stroke-dashoffset="77.118"><animate attributeName="stroke-dashoffset" values="77.118" fill="freeze" begin="7baa.click" /><animate attributeName="stroke-dashoffset" values="77.118;77.118;0" keyTimes="0;0.849;1" dur="3.849s" fill="freeze" begin="0s;7baa.click" /></path><path d="M54.47,51.75c0.58,0.3,0.94,1.14,0.95,2.17c0.04,5.2,0.17,45.9,0.19,47.6" stroke-dasharray="50.079" stroke-dashoffset="50.079"><animate attributeName="stroke-dashoffset" values="50.079" fill="freeze" begin="7baa.click" /><animate attributeName="stroke-dashoffset" values="50.079;50.079;0" keyTimes="0;0.885;1" dur="4.35s" fill="freeze" begin="0s;7baa.click" /></path></g></svg>