<svg xmlns="http://www.w3.org/2000/svg" width="109" height="109" viewBox="0 0 109 109" id="7bb8"><g fill="none" stroke="#666" stroke-width="9" stroke-linecap="round" stroke-linejoin="round"><g><g><g><path d="M26.5,12.25c0.03,0.49,0.07,1.28-0.06,1.99c-0.77,4.19-5.17,13.38-11.19,19.01" /><path d="M27.73,21.29C31.44,21.29,44.84,18,49,18" /><path d="M34.27,22.83c2.04,1.7,5.28,6.99,5.79,9.63" /></g><g><path d="M60.75,10c0.02,0.36,0.1,0.94-0.05,1.44c-1.07,3.78-4.03,9.17-7.96,13.81" /><path d="M60.98,17.66c4.73,0,24.08-3.57,29.4-3.57" /><path d="M71.78,18.75c0.01,0.26,0.03,0.68-0.03,1.06c-0.34,2.24-2.31,7.17-5,10.19" /></g></g><g><g p5:partial xmlns:p5="http://kanjivg.tagaini.net"><g><path d="M33,42.6c0.77,0.26,2.19,0.3,2.96,0.26c8.79-0.42,23.04-3.4,31.71-3.58c1.29-0.03,2.06,0.12,2.71,0.25" /><path d="M51.92,31.37c0.12,0.23,1.65,1.21,1.77,2.68C54.26,41.11,54,51.99,54,54.4" /><path d="M15.75,58.79c1.75,0.37,4.44,0.69,6.01,0.55c8.74-0.77,58.24-6.62,68.37-6.79c2.61-0.04,4.18,0.26,5.49,0.54" /></g><path d="M81.59,31.52c0.17,1.04,0.93,2.94-0.34,4.17C64.84,51.49,46,66.25,17.81,79.4" /></g><path d="M59.5,58.75c2.84,1.19,7.35,4.87,8.06,6.72" /><g><path d="M42.77,69.73c0.45,0.71,0.91,1.06,0.91,2c0,0.94,1.2,25.88,1.2,26.35s0.15,0.47,0.3,1.41" /><path d="M44.43,71.35c4.09-0.19,31.44-4.45,32.25-4.5c1.94-0.12,3.19,1.31,3.04,2c-0.31,1.41-0.46,16.24-0.45,26.59c0,1.06-0.15,1.53-0.15,2.23" /><path d="M44.88,84.1c4.12-0.6,29.28-4.03,33.19-4.03" /><path d="M46.22,96.86c7.05-0.51,23.06-1.86,31.84-2.29" /></g></g></g></g><g fill="none" stroke="#000" stroke-width="5" stroke-linecap="round" stroke-linejoin="round"><g><g><g><path d="M26.5,12.25c0.03,0.49,0.07,1.28-0.06,1.99c-0.77,4.19-5.17,13.38-11.19,19.01" stroke-dasharray="24.32" stroke-dashoffset="24.32"><animate id="0" attributeName="stroke-dashoffset" values="24.32;0" dur="0.24s" fill="freeze" begin="0s;7bb8.click" /></path><path d="M27.73,21.29C31.44,21.29,44.84,18,49,18" stroke-dasharray="21.54" stroke-dashoffset="21.54"><animate attributeName="stroke-dashoffset" values="21.54" fill="freeze" begin="7bb8.click" /><animate id="1" attributeName="stroke-dashoffset" values="21.54;0" dur="0.22s" fill="freeze" begin="0.end" /></path><path d="M34.27,22.83c2.04,1.7,5.28,6.99,5.79,9.63" stroke-dasharray="11.36" stroke-dashoffset="11.36"><animate attributeName="stroke-dashoffset" values="11.36" fill="freeze" begin="7bb8.click" /><animate id="2" attributeName="stroke-dashoffset" values="11.36;0" dur="0.11s" fill="freeze" begin="1.end" /></path></g><g><path d="M60.75,10c0.02,0.36,0.1,0.94-0.05,1.44c-1.07,3.78-4.03,9.17-7.96,13.81" stroke-dasharray="17.49" stroke-dashoffset="17.49"><animate attributeName="stroke-dashoffset" values="17.49" fill="freeze" begin="7bb8.click" /><animate id="3" attributeName="stroke-dashoffset" values="17.49;0" dur="0.17s" fill="freeze" begin="2.end" /></path><path d="M60.98,17.66c4.73,0,24.08-3.57,29.4-3.57" stroke-dasharray="29.63" stroke-dashoffset="29.63"><animate attributeName="stroke-dashoffset" values="29.63" fill="freeze" begin="7bb8.click" /><animate id="4" attributeName="stroke-dashoffset" values="29.63;0" dur="0.3s" fill="freeze" begin="3.end" /></path><path d="M71.78,18.75c0.01,0.26,0.03,0.68-0.03,1.06c-0.34,2.24-2.31,7.17-5,10.19" stroke-dasharray="12.53" stroke-dashoffset="12.53"><animate attributeName="stroke-dashoffset" values="12.53" fill="freeze" begin="7bb8.click" /><animate id="5" attributeName="stroke-dashoffset" values="12.53;0" dur="0.13s" fill="freeze" begin="4.end" /></path></g></g><g><g p5:partial xmlns:p5="http://kanjivg.tagaini.net"><g><path d="M33,42.6c0.77,0.26,2.19,0.3,2.96,0.26c8.79-0.42,23.04-3.4,31.71-3.58c1.29-0.03,2.06,0.12,2.71,0.25" stroke-dasharray="37.64" stroke-dashoffset="37.64"><animate attributeName="stroke-dashoffset" values="37.64" fill="freeze" begin="7bb8.click" /><animate id="6" attributeName="stroke-dashoffset" values="37.64;0" dur="0.38s" fill="freeze" begin="5.end" /></path><path d="M51.92,31.37c0.12,0.23,1.65,1.21,1.77,2.68C54.26,41.11,54,51.99,54,54.4" stroke-dasharray="23.65" stroke-dashoffset="23.65"><animate attributeName="stroke-dashoffset" values="23.65" fill="freeze" begin="7bb8.click" /><animate id="7" attributeName="stroke-dashoffset" values="23.65;0" dur="0.24s" fill="freeze" begin="6.end" /></path><path d="M15.75,58.79c1.75,0.37,4.44,0.69,6.01,0.55c8.74-0.77,58.24-6.62,68.37-6.79c2.61-0.04,4.18,0.26,5.49,0.54" stroke-dasharray="80.3" stroke-dashoffset="80.3"><animate attributeName="stroke-dashoffset" values="80.3" fill="freeze" begin="7bb8.click" /><animate id="8" attributeName="stroke-dashoffset" values="80.3;0" dur="0.6s" fill="freeze" begin="7.end" /></path></g><path d="M81.59,31.52c0.17,1.04,0.93,2.94-0.34,4.17C64.84,51.49,46,66.25,17.81,79.4" stroke-dasharray="81.82" stroke-dashoffset="81.82"><animate attributeName="stroke-dashoffset" values="81.82" fill="freeze" begin="7bb8.click" /><animate id="9" attributeName="stroke-dashoffset" values="81.82;0" dur="0.62s" fill="freeze" begin="8.end" /></path></g><path d="M59.5,58.75c2.84,1.19,7.35,4.87,8.06,6.72" stroke-dasharray="10.64" stroke-dashoffset="10.64"><animate attributeName="stroke-dashoffset" values="10.64" fill="freeze" begin="7bb8.click" /><animate id="10" attributeName="stroke-dashoffset" values="10.64;0" dur="0.11s" fill="freeze" begin="9.end" /></path><g><path d="M42.77,69.73c0.45,0.71,0.91,1.06,0.91,2c0,0.94,1.2,25.88,1.2,26.35s0.15,0.47,0.3,1.41" stroke-dasharray="30.07" stroke-dashoffset="30.07"><animate attributeName="stroke-dashoffset" values="30.07" fill="freeze" begin="7bb8.click" /><animate id="11" attributeName="stroke-dashoffset" values="30.07;0" dur="0.3s" fill="freeze" begin="10.end" /></path><path d="M44.43,71.35c4.09-0.19,31.44-4.45,32.25-4.5c1.94-0.12,3.19,1.31,3.04,2c-0.31,1.41-0.46,16.24-0.45,26.59c0,1.06-0.15,1.53-0.15,2.23" stroke-dasharray="65.43" stroke-dashoffset="65.43"><animate attributeName="stroke-dashoffset" values="65.43" fill="freeze" begin="7bb8.click" /><animate id="12" attributeName="stroke-dashoffset" values="65.43;0" dur="0.49s" fill="freeze" begin="11.end" /></path><path d="M44.88,84.1c4.12-0.6,29.28-4.03,33.19-4.03" stroke-dasharray="33.44" stroke-dashoffset="33.44"><animate attributeName="stroke-dashoffset" values="33.44" fill="freeze" begin="7bb8.click" /><animate id="13" attributeName="stroke-dashoffset" values="33.44;0" dur="0.33s" fill="freeze" begin="12.end" /></path><path d="M46.22,96.86c7.05-0.51,23.06-1.86,31.84-2.29" stroke-dasharray="31.92" stroke-dashoffset="31.92"><animate attributeName="stroke-dashoffset" values="31.92" fill="freeze" begin="7bb8.click" /><animate id="14" attributeName="stroke-dashoffset" values="31.92;0" dur="0.32s" fill="freeze" begin="13.end" /></path></g></g></g></g></svg>