<svg xmlns="http://www.w3.org/2000/svg" width="109" height="109" viewBox="0 0 109 109" id="7bb8"><g fill="none" stroke="#666" stroke-width="9" stroke-linecap="round" stroke-linejoin="round"><g><g><g><path d="M26.5,12.25c0.03,0.49,0.07,1.28-0.06,1.99c-0.77,4.19-5.17,13.38-11.19,19.01" /><path d="M27.73,21.29C31.44,21.29,44.84,18,49,18" /><path d="M34.27,22.83c2.04,1.7,5.28,6.99,5.79,9.63" /></g><g><path d="M60.75,10c0.02,0.36,0.1,0.94-0.05,1.44c-1.07,3.78-4.03,9.17-7.96,13.81" /><path d="M60.98,17.66c4.73,0,24.08-3.57,29.4-3.57" /><path d="M71.78,18.75c0.01,0.26,0.03,0.68-0.03,1.06c-0.34,2.24-2.31,7.17-5,10.19" /></g></g><g><g p5:partial xmlns:p5="http://kanjivg.tagaini.net"><g><path d="M33,42.6c0.77,0.26,2.19,0.3,2.96,0.26c8.79-0.42,23.04-3.4,31.71-3.58c1.29-0.03,2.06,0.12,2.71,0.25" /><path d="M51.92,31.37c0.12,0.23,1.65,1.21,1.77,2.68C54.26,41.11,54,51.99,54,54.4" /><path d="M15.75,58.79c1.75,0.37,4.44,0.69,6.01,0.55c8.74-0.77,58.24-6.62,68.37-6.79c2.61-0.04,4.18,0.26,5.49,0.54" /></g><path d="M81.59,31.52c0.17,1.04,0.93,2.94-0.34,4.17C64.84,51.49,46,66.25,17.81,79.4" /></g><path d="M59.5,58.75c2.84,1.19,7.35,4.87,8.06,6.72" /><g><path d="M42.77,69.73c0.45,0.71,0.91,1.06,0.91,2c0,0.94,1.2,25.88,1.2,26.35s0.15,0.47,0.3,1.41" /><path d="M44.43,71.35c4.09-0.19,31.44-4.45,32.25-4.5c1.94-0.12,3.19,1.31,3.04,2c-0.31,1.41-0.46,16.24-0.45,26.59c0,1.06-0.15,1.53-0.15,2.23" /><path d="M44.88,84.1c4.12-0.6,29.28-4.03,33.19-4.03" /><path d="M46.22,96.86c7.05-0.51,23.06-1.86,31.84-2.29" /></g></g></g></g><g fill="none" stroke="#000" stroke-width="5" stroke-linecap="round" stroke-linejoin="round"><path d="M26.5,12.25c0.03,0.49,0.07,1.28-0.06,1.99c-0.77,4.19-5.17,13.38-11.19,19.01" stroke-dasharray="24.326" stroke-dashoffset="24.326"><animate attributeName="stroke-dashoffset" values="24.326;24.326;0" dur="0.243s" fill="freeze" begin="0s;7bb8.click" /></path><path d="M27.73,21.29C31.44,21.29,44.84,18,49,18" stroke-dasharray="21.543" stroke-dashoffset="21.543"><animate attributeName="stroke-dashoffset" values="21.543" fill="freeze" begin="7bb8.click" /><animate attributeName="stroke-dashoffset" values="21.543;21.543;0" keyTimes="0;0.531;1" dur="0.458s" fill="freeze" begin="0s;7bb8.click" /></path><path d="M34.27,22.83c2.04,1.7,5.28,6.99,5.79,9.63" stroke-dasharray="11.362" stroke-dashoffset="11.362"><animate attributeName="stroke-dashoffset" values="11.362" fill="freeze" begin="7bb8.click" /><animate attributeName="stroke-dashoffset" values="11.362;11.362;0" keyTimes="0;0.801;1" dur="0.572s" fill="freeze" begin="0s;7bb8.click" /></path><path d="M60.75,10c0.02,0.36,0.1,0.94-0.05,1.44c-1.07,3.78-4.03,9.17-7.96,13.81" stroke-dasharray="17.493" stroke-dashoffset="17.493"><animate attributeName="stroke-dashoffset" values="17.493" fill="freeze" begin="7bb8.click" /><animate attributeName="stroke-dashoffset" values="17.493;17.493;0" keyTimes="0;0.766;1" dur="0.747s" fill="freeze" begin="0s;7bb8.click" /></path><path d="M60.98,17.66c4.73,0,24.08-3.57,29.4-3.57" stroke-dasharray="29.632" stroke-dashoffset="29.632"><animate attributeName="stroke-dashoffset" values="29.632" fill="freeze" begin="7bb8.click" /><animate attributeName="stroke-dashoffset" values="29.632;29.632;0" keyTimes="0;0.716;1" dur="1.043s" fill="freeze" begin="0s;7bb8.click" /></path><path d="M71.78,18.75c0.01,0.26,0.03,0.68-0.03,1.06c-0.34,2.24-2.31,7.17-5,10.19" stroke-dasharray="12.528" stroke-dashoffset="12.528"><animate attributeName="stroke-dashoffset" values="12.528" fill="freeze" begin="7bb8.click" /><animate attributeName="stroke-dashoffset" values="12.528;12.528;0" keyTimes="0;0.893;1" dur="1.168s" fill="freeze" begin="0s;7bb8.click" /></path><path d="M33,42.6c0.77,0.26,2.19,0.3,2.96,0.26c8.79-0.42,23.04-3.4,31.71-3.58c1.29-0.03,2.06,0.12,2.71,0.25" stroke-dasharray="37.64" stroke-dashoffset="37.64"><animate attributeName="stroke-dashoffset" values="37.64" fill="freeze" begin="7bb8.click" /><animate attributeName="stroke-dashoffset" values="37.64;37.64;0" keyTimes="0;0.756;1" dur="1.544s" fill="freeze" begin="0s;7bb8.click" /></path><path d="M51.92,31.37c0.12,0.23,1.65,1.21,1.77,2.68C54.26,41.11,54,51.99,54,54.4" stroke-dasharray="23.653" stroke-dashoffset="23.653"><animate attributeName="stroke-dashoffset" values="23.653" fill="freeze" begin="7bb8.click" /><animate attributeName="stroke-dashoffset" values="23.653;23.653;0" keyTimes="0;0.867;1" dur="1.781s" fill="freeze" begin="0s;7bb8.click" /></path><path d="M15.75,58.79c1.75,0.37,4.44,0.69,6.01,0.55c8.74-0.77,58.24-6.62,68.37-6.79c2.61-0.04,4.18,0.26,5.49,0.54" stroke-dasharray="80.297" stroke-dashoffset="80.297"><animate attributeName="stroke-dashoffset" values="80.297" fill="freeze" begin="7bb8.click" /><animate attributeName="stroke-dashoffset" values="80.297;80.297;0" keyTimes="0;0.747;1" dur="2.385s" fill="freeze" begin="0s;7bb8.click" /></path><path d="M81.59,31.52c0.17,1.04,0.93,2.94-0.34,4.17C64.84,51.49,46,66.25,17.81,79.4" stroke-dasharray="81.82" stroke-dashoffset="81.82"><animate attributeName="stroke-dashoffset" values="81.82" fill="freeze" begin="7bb8.click" /><animate attributeName="stroke-dashoffset" values="81.82;81.82;0" keyTimes="0;0.795;1" dur="3s" fill="freeze" begin="0s;7bb8.click" /></path><path d="M59.5,58.75c2.84,1.19,7.35,4.87,8.06,6.72" stroke-dasharray="10.645" stroke-dashoffset="10.645"><animate attributeName="stroke-dashoffset" values="10.645" fill="freeze" begin="7bb8.click" /><animate attributeName="stroke-dashoffset" values="10.645;10.645;0" keyTimes="0;0.966;1" dur="3.106s" fill="freeze" begin="0s;7bb8.click" /></path><path d="M42.77,69.73c0.45,0.71,0.91,1.06,0.91,2c0,0.94,1.2,25.88,1.2,26.35s0.15,0.47,0.3,1.41" stroke-dasharray="30.069" stroke-dashoffset="30.069"><animate attributeName="stroke-dashoffset" values="30.069" fill="freeze" begin="7bb8.click" /><animate attributeName="stroke-dashoffset" values="30.069;30.069;0" keyTimes="0;0.912;1" dur="3.407s" fill="freeze" begin="0s;7bb8.click" /></path><path d="M44.43,71.35c4.09-0.19,31.44-4.45,32.25-4.5c1.94-0.12,3.19,1.31,3.04,2c-0.31,1.41-0.46,16.24-0.45,26.59c0,1.06-0.15,1.53-0.15,2.23" stroke-dasharray="65.428" stroke-dashoffset="65.428"><animate attributeName="stroke-dashoffset" values="65.428" fill="freeze" begin="7bb8.click" /><animate attributeName="stroke-dashoffset" values="65.428;65.428;0" keyTimes="0;0.874;1" dur="3.899s" fill="freeze" begin="0s;7bb8.click" /></path><path d="M44.88,84.1c4.12-0.6,29.28-4.03,33.19-4.03" stroke-dasharray="33.442" stroke-dashoffset="33.442"><animate attributeName="stroke-dashoffset" values="33.442" fill="freeze" begin="7bb8.click" /><animate attributeName="stroke-dashoffset" values="33.442;33.442;0" keyTimes="0;0.921;1" dur="4.233s" fill="freeze" begin="0s;7bb8.click" /></path><path d="M46.22,96.86c7.05-0.51,23.06-1.86,31.84-2.29" stroke-dasharray="31.924" stroke-dashoffset="31.924"><animate attributeName="stroke-dashoffset" values="31.924" fill="freeze" begin="7bb8.click" /><animate attributeName="stroke-dashoffset" values="31.924;31.924;0" keyTimes="0;0.93;1" dur="4.552s" fill="freeze" begin="0s;7bb8.click" /></path></g></svg>