<svg xmlns="http://www.w3.org/2000/svg" width="109" height="109" viewBox="0 0 109 109" id="7bc1"><g fill="none" stroke="#666" stroke-width="9" stroke-linecap="round" stroke-linejoin="round"><g><g><g><path d="M31,9.75c0.04,0.55,0.08,1.43-0.08,2.22c-0.97,4.69-6.54,14.98-14.17,21.28" /><path d="M29.23,21.07c4.32,0,19.67-1.85,24.52-1.85" /><path d="M34.25,22.25c2.38,1.81,6.16,7.44,6.75,10.25" /></g><g><path d="M64.24,9.5c0.03,0.45,0.12,1.17-0.06,1.8c-1.34,4.71-5.04,11.42-9.94,17.2" /><path d="M64.98,19.74c4.82,0,23.49-2.23,28.9-2.23" /><path d="M77.5,22c0.03,0.26,0.06,0.67-0.06,1.04C76.7,25.24,72.5,30.05,66.75,33" /></g></g><g><g><g><path d="M50.07,30.75c0.28,0.35,0.32,0.77,0.25,1.07c-0.39,1.78-3.76,6.04-6.83,8.43" /></g><g><path d="M32.93,40.48c0.45,0.59,0.8,1.68,0.9,2.45c0.53,4.3,1.96,16.97,2.14,20.85" /><path d="M34.72,42.1c10.72-1.06,35.47-2.4,39.42-2.78c1.9-0.18,3.13,1.56,2.72,3.18c-0.93,3.6-1.96,12.85-3.81,19.74" /><path d="M35.31,52.48c9.5-1.11,31.47-2.3,37.96-2.3" /><path d="M37.57,61.97c11.05-0.38,25.82-1.99,34.94-1.98" /></g></g><g p5:partial xmlns:p5="http://kanjivg.tagaini.net"><path d="M29.06,71.91c1.05,0.46,4.48,0.16,5.55,0.03c4.95-0.62,30.28-1.9,42.2-2.38c1.62-0.06,3.1,0.09,4.44,0.48" /><path d="M53.56,72.39c0.84,1.66,0.84,2.65,0.84,3.98c0,9.29-0.05,6.43-0.05,17.99" /><path d="M30.75,83.6c0.94,0.58,4.03,0.35,4.99,0.25c9.98-1.01,24.63-1.99,36.36-3.02c1.17-0.1,3.74-0.23,5.49,0.27" /><path d="M17.48,95.67c0.86,0.43,5.38,0.98,6.86,0.89c17.74-1.01,40.44-2.76,62.55-3.26c3.71-0.09,5.35,0.45,6.92,1.2" /></g></g></g></g><g fill="none" stroke="#000" stroke-width="5" stroke-linecap="round" stroke-linejoin="round"><g><g><g><path d="M31,9.75c0.04,0.55,0.08,1.43-0.08,2.22c-0.97,4.69-6.54,14.98-14.17,21.28" stroke-dasharray="28.14" stroke-dashoffset="28.14"><animate id="0" attributeName="stroke-dashoffset" values="28.14;0" dur="0.28s" fill="freeze" begin="0s;7bc1.click" /></path><path d="M29.23,21.07c4.32,0,19.67-1.85,24.52-1.85" stroke-dasharray="24.6" stroke-dashoffset="24.6"><animate attributeName="stroke-dashoffset" values="24.6" fill="freeze" begin="7bc1.click" /><animate id="1" attributeName="stroke-dashoffset" values="24.6;0" dur="0.25s" fill="freeze" begin="0.end" /></path><path d="M34.25,22.25c2.38,1.81,6.16,7.44,6.75,10.25" stroke-dasharray="12.42" stroke-dashoffset="12.42"><animate attributeName="stroke-dashoffset" values="12.42" fill="freeze" begin="7bc1.click" /><animate id="2" attributeName="stroke-dashoffset" values="12.42;0" dur="0.12s" fill="freeze" begin="1.end" /></path></g><g><path d="M64.24,9.5c0.03,0.45,0.12,1.17-0.06,1.8c-1.34,4.71-5.04,11.42-9.94,17.2" stroke-dasharray="21.8" stroke-dashoffset="21.8"><animate attributeName="stroke-dashoffset" values="21.8" fill="freeze" begin="7bc1.click" /><animate id="3" attributeName="stroke-dashoffset" values="21.8;0" dur="0.22s" fill="freeze" begin="2.end" /></path><path d="M64.98,19.74c4.82,0,23.49-2.23,28.9-2.23" stroke-dasharray="28.99" stroke-dashoffset="28.99"><animate attributeName="stroke-dashoffset" values="28.99" fill="freeze" begin="7bc1.click" /><animate id="4" attributeName="stroke-dashoffset" values="28.99;0" dur="0.29s" fill="freeze" begin="3.end" /></path><path d="M77.5,22c0.03,0.26,0.06,0.67-0.06,1.04C76.7,25.24,72.5,30.05,66.75,33" stroke-dasharray="15.9" stroke-dashoffset="15.9"><animate attributeName="stroke-dashoffset" values="15.9" fill="freeze" begin="7bc1.click" /><animate id="5" attributeName="stroke-dashoffset" values="15.9;0" dur="0.16s" fill="freeze" begin="4.end" /></path></g></g><g><g><g><path d="M50.07,30.75c0.28,0.35,0.32,0.77,0.25,1.07c-0.39,1.78-3.76,6.04-6.83,8.43" stroke-dasharray="12.1" stroke-dashoffset="12.1"><animate attributeName="stroke-dashoffset" values="12.1" fill="freeze" begin="7bc1.click" /><animate id="6" attributeName="stroke-dashoffset" values="12.1;0" dur="0.12s" fill="freeze" begin="5.end" /></path></g><g><path d="M32.93,40.48c0.45,0.59,0.8,1.68,0.9,2.45c0.53,4.3,1.96,16.97,2.14,20.85" stroke-dasharray="23.6" stroke-dashoffset="23.6"><animate attributeName="stroke-dashoffset" values="23.6" fill="freeze" begin="7bc1.click" /><animate id="7" attributeName="stroke-dashoffset" values="23.6;0" dur="0.24s" fill="freeze" begin="6.end" /></path><path d="M34.72,42.1c10.72-1.06,35.47-2.4,39.42-2.78c1.9-0.18,3.13,1.56,2.72,3.18c-0.93,3.6-1.96,12.85-3.81,19.74" stroke-dasharray="64.54" stroke-dashoffset="64.54"><animate attributeName="stroke-dashoffset" values="64.54" fill="freeze" begin="7bc1.click" /><animate id="8" attributeName="stroke-dashoffset" values="64.54;0" dur="0.49s" fill="freeze" begin="7.end" /></path><path d="M35.31,52.48c9.5-1.11,31.47-2.3,37.96-2.3" stroke-dasharray="38.04" stroke-dashoffset="38.04"><animate attributeName="stroke-dashoffset" values="38.04" fill="freeze" begin="7bc1.click" /><animate id="9" attributeName="stroke-dashoffset" values="38.04;0" dur="0.38s" fill="freeze" begin="8.end" /></path><path d="M37.57,61.97c11.05-0.38,25.82-1.99,34.94-1.98" stroke-dasharray="35" stroke-dashoffset="35"><animate attributeName="stroke-dashoffset" values="35" fill="freeze" begin="7bc1.click" /><animate id="10" attributeName="stroke-dashoffset" values="35;0" dur="0.35s" fill="freeze" begin="9.end" /></path></g></g><g p5:partial xmlns:p5="http://kanjivg.tagaini.net"><path d="M29.06,71.91c1.05,0.46,4.48,0.16,5.55,0.03c4.95-0.62,30.28-1.9,42.2-2.38c1.62-0.06,3.1,0.09,4.44,0.48" stroke-dasharray="52.34" stroke-dashoffset="52.34"><animate attributeName="stroke-dashoffset" values="52.34" fill="freeze" begin="7bc1.click" /><animate id="11" attributeName="stroke-dashoffset" values="52.34;0" dur="0.52s" fill="freeze" begin="10.end" /></path><path d="M53.56,72.39c0.84,1.66,0.84,2.65,0.84,3.98c0,9.29-0.05,6.43-0.05,17.99" stroke-dasharray="22.11" stroke-dashoffset="22.11"><animate attributeName="stroke-dashoffset" values="22.11" fill="freeze" begin="7bc1.click" /><animate id="12" attributeName="stroke-dashoffset" values="22.11;0" dur="0.22s" fill="freeze" begin="11.end" /></path><path d="M30.75,83.6c0.94,0.58,4.03,0.35,4.99,0.25c9.98-1.01,24.63-1.99,36.36-3.02c1.17-0.1,3.74-0.23,5.49,0.27" stroke-dasharray="47.05" stroke-dashoffset="47.05"><animate attributeName="stroke-dashoffset" values="47.05" fill="freeze" begin="7bc1.click" /><animate id="13" attributeName="stroke-dashoffset" values="47.05;0" dur="0.47s" fill="freeze" begin="12.end" /></path><path d="M17.48,95.67c0.86,0.43,5.38,0.98,6.86,0.89c17.74-1.01,40.44-2.76,62.55-3.26c3.71-0.09,5.35,0.45,6.92,1.2" stroke-dasharray="76.68" stroke-dashoffset="76.68"><animate attributeName="stroke-dashoffset" values="76.68" fill="freeze" begin="7bc1.click" /><animate id="14" attributeName="stroke-dashoffset" values="76.68;0" dur="0.58s" fill="freeze" begin="13.end" /></path></g></g></g></g></svg>