<svg xmlns="http://www.w3.org/2000/svg" width="109" height="109" viewBox="0 0 109 109" id="7c14"><g fill="none" stroke="#666" stroke-width="9" stroke-linecap="round" stroke-linejoin="round"><g><g><g><path d="M29.75,10c0.04,0.49,0.09,1.28-0.09,1.99C28.64,16.18,23.28,24.37,15.25,30" /><path d="M29.23,19.93c3.57,0,17.52-2.68,21.52-2.68" /><path d="M34.25,22.25c2.31,1.45,5.98,5.96,6.56,8.22" /></g><g><path d="M61.26,9.25c0.03,0.34,0.14,0.87-0.07,1.35c-1.5,3.53-5.67,8.57-11.19,12.9" /><path d="M60.77,17.6c4.92-0.08,22.44-3.2,27.97-3.29" /><path d="M76.01,19.3c0.03,0.23,0.07,0.59-0.06,0.92C75.2,22.16,70.9,26.4,65,29" /></g></g><g><g><g><path d="M52.15,27c0.87,0.32,2.3,1.53,2.3,2.16c0,2.31-0.28,3.06-0.11,5.01" /><path d="M25.49,36.57c1.57,0.49,3.74,0.54,4.85,0.45c8.98-0.75,38.99-3.64,51.18-3.73c1.88-0.01,2.84,0.06,4.24,0.56" /></g><g><g><path d="M29,45.27c1.29,0.53,2.8,0.63,4.1,0.53C45,44.83,65,42.5,78.72,41.76c2.16-0.12,3.45,0.25,4.53,0.51" /><path d="M14.75,56.68c1.76,0.43,3.81,0.51,5.57,0.43c16.17-0.78,51.14-4.85,69.77-4.91c2.93-0.01,4.69,0.2,6.16,0.42" /><path d="M40.34,47.5c0.35,1.21,0.46,1.58,0.5,2.32c0.37,6.97-0.31,12.15-0.2,14.68" /><path d="M71.69,44.9c0.35,0.88,0.73,1.52,0.7,2.68c-0.17,6.84-0.7,8.24-1.06,14.71" /><path d="M27.01,65.89c1.37,0.52,2.96,0.62,4.33,0.51c12.55-1.02,33.65-4.11,48.12-4.25c2.28-0.02,3.65,0.23,4.78,0.49" /></g><g><path d="M50.71,66.75c0.12,0.51-0.04,1.35-0.73,2.03c-4.45,4.42-16.73,14.47-38.73,19.47" /><path d="M37.97,79.42c0.5,0.44,1.04,0.88,1.04,1.65c-0.03,9.72-0.34,14.63-0.34,16.27c0,1.64,1.23,2.58,2.78,1.35C43,97.45,58.43,87.49,60.5,86.25" /><path d="M78.02,68.75c0.03,0.24,0.36,1.16,0.16,1.48c-1.27,1.98-5.23,4.82-11.68,8.77" /><path d="M54.98,72.88c2.14-0.12,3.55,1.29,5.55,3.03c6.32,5.48,22.02,18.46,26.45,21.52c1.66,1.15,3.09,1.65,4.76,1.98" /></g></g></g></g></g></g><g fill="none" stroke="#000" stroke-width="5" stroke-linecap="round" stroke-linejoin="round"><g><g><g><path d="M29.75,10c0.04,0.49,0.09,1.28-0.09,1.99C28.64,16.18,23.28,24.37,15.25,30" stroke-dasharray="25.44" stroke-dashoffset="25.44"><animate attributeName="stroke-dashoffset" values="25.44;25.44;0" dur="0.254s" fill="freeze" begin="0s;7c14.click" /></path><path d="M29.23,19.93c3.57,0,17.52-2.68,21.52-2.68" stroke-dasharray="21.699" stroke-dashoffset="21.699"><animate attributeName="stroke-dashoffset" values="21.699" fill="freeze" begin="7c14.click" /><animate attributeName="stroke-dashoffset" values="21.699;21.699;0" keyTimes="0;0.539;1" dur="0.471s" fill="freeze" begin="0s;7c14.click" /></path><path d="M34.25,22.25c2.31,1.45,5.98,5.96,6.56,8.22" stroke-dasharray="10.661" stroke-dashoffset="10.661"><animate attributeName="stroke-dashoffset" values="10.661" fill="freeze" begin="7c14.click" /><animate attributeName="stroke-dashoffset" values="10.661;10.661;0" keyTimes="0;0.815;1" dur="0.578s" fill="freeze" begin="0s;7c14.click" /></path></g><g><path d="M61.26,9.25c0.03,0.34,0.14,0.87-0.07,1.35c-1.5,3.53-5.67,8.57-11.19,12.9" stroke-dasharray="18.595" stroke-dashoffset="18.595"><animate attributeName="stroke-dashoffset" values="18.595" fill="freeze" begin="7c14.click" /><animate attributeName="stroke-dashoffset" values="18.595;18.595;0" keyTimes="0;0.757;1" dur="0.764s" fill="freeze" begin="0s;7c14.click" /></path><path d="M60.77,17.6c4.92-0.08,22.44-3.2,27.97-3.29" stroke-dasharray="28.175" stroke-dashoffset="28.175"><animate attributeName="stroke-dashoffset" values="28.175" fill="freeze" begin="7c14.click" /><animate attributeName="stroke-dashoffset" values="28.175;28.175;0" keyTimes="0;0.73;1" dur="1.046s" fill="freeze" begin="0s;7c14.click" /></path><path d="M76.01,19.3c0.03,0.23,0.07,0.59-0.06,0.92C75.2,22.16,70.9,26.4,65,29" stroke-dasharray="15.195" stroke-dashoffset="15.195"><animate attributeName="stroke-dashoffset" values="15.195" fill="freeze" begin="7c14.click" /><animate attributeName="stroke-dashoffset" values="15.195;15.195;0" keyTimes="0;0.873;1" dur="1.198s" fill="freeze" begin="0s;7c14.click" /></path></g></g><g><g><g><path d="M52.15,27c0.87,0.32,2.3,1.53,2.3,2.16c0,2.31-0.28,3.06-0.11,5.01" stroke-dasharray="8.273" stroke-dashoffset="8.273"><animate attributeName="stroke-dashoffset" values="8.273" fill="freeze" begin="7c14.click" /><animate attributeName="stroke-dashoffset" values="8.273;8.273;0" keyTimes="0;0.935;1" dur="1.281s" fill="freeze" begin="0s;7c14.click" /></path><path d="M25.49,36.57c1.57,0.49,3.74,0.54,4.85,0.45c8.98-0.75,38.99-3.64,51.18-3.73c1.88-0.01,2.84,0.06,4.24,0.56" stroke-dasharray="60.525" stroke-dashoffset="60.525"><animate attributeName="stroke-dashoffset" values="60.525" fill="freeze" begin="7c14.click" /><animate attributeName="stroke-dashoffset" values="60.525;60.525;0" keyTimes="0;0.738;1" dur="1.736s" fill="freeze" begin="0s;7c14.click" /></path></g><g><g><path d="M29,45.27c1.29,0.53,2.8,0.63,4.1,0.53C45,44.83,65,42.5,78.72,41.76c2.16-0.12,3.45,0.25,4.53,0.51" stroke-dasharray="54.553" stroke-dashoffset="54.553"><animate attributeName="stroke-dashoffset" values="54.553" fill="freeze" begin="7c14.click" /><animate attributeName="stroke-dashoffset" values="54.553;54.553;0" keyTimes="0;0.761;1" dur="2.282s" fill="freeze" begin="0s;7c14.click" /></path><path d="M14.75,56.68c1.76,0.43,3.81,0.51,5.57,0.43c16.17-0.78,51.14-4.85,69.77-4.91c2.93-0.01,4.69,0.2,6.16,0.42" stroke-dasharray="81.742" stroke-dashoffset="81.742"><animate attributeName="stroke-dashoffset" values="81.742" fill="freeze" begin="7c14.click" /><animate attributeName="stroke-dashoffset" values="81.742;81.742;0" keyTimes="0;0.788;1" dur="2.897s" fill="freeze" begin="0s;7c14.click" /></path><path d="M40.34,47.5c0.35,1.21,0.46,1.58,0.5,2.32c0.37,6.97-0.31,12.15-0.2,14.68" stroke-dasharray="17.069" stroke-dashoffset="17.069"><animate attributeName="stroke-dashoffset" values="17.069" fill="freeze" begin="7c14.click" /><animate attributeName="stroke-dashoffset" values="17.069;17.069;0" keyTimes="0;0.944;1" dur="3.068s" fill="freeze" begin="0s;7c14.click" /></path><path d="M71.69,44.9c0.35,0.88,0.73,1.52,0.7,2.68c-0.17,6.84-0.7,8.24-1.06,14.71" stroke-dasharray="17.55" stroke-dashoffset="17.55"><animate attributeName="stroke-dashoffset" values="17.55" fill="freeze" begin="7c14.click" /><animate attributeName="stroke-dashoffset" values="17.55;17.55;0" keyTimes="0;0.946;1" dur="3.244s" fill="freeze" begin="0s;7c14.click" /></path><path d="M27.01,65.89c1.37,0.52,2.96,0.62,4.33,0.51c12.55-1.02,33.65-4.11,48.12-4.25c2.28-0.02,3.65,0.23,4.78,0.49" stroke-dasharray="57.536" stroke-dashoffset="57.536"><animate attributeName="stroke-dashoffset" values="57.536" fill="freeze" begin="7c14.click" /><animate attributeName="stroke-dashoffset" values="57.536;57.536;0" keyTimes="0;0.849;1" dur="3.819s" fill="freeze" begin="0s;7c14.click" /></path></g><g><path d="M50.71,66.75c0.12,0.51-0.04,1.35-0.73,2.03c-4.45,4.42-16.73,14.47-38.73,19.47" stroke-dasharray="46.121" stroke-dashoffset="46.121"><animate attributeName="stroke-dashoffset" values="46.121" fill="freeze" begin="7c14.click" /><animate attributeName="stroke-dashoffset" values="46.121;46.121;0" keyTimes="0;0.892;1" dur="4.28s" fill="freeze" begin="0s;7c14.click" /></path><path d="M37.97,79.42c0.5,0.44,1.04,0.88,1.04,1.65c-0.03,9.72-0.34,14.63-0.34,16.27c0,1.64,1.23,2.58,2.78,1.35C43,97.45,58.43,87.49,60.5,86.25" stroke-dasharray="45.21" stroke-dashoffset="45.21"><animate attributeName="stroke-dashoffset" values="45.21" fill="freeze" begin="7c14.click" /><animate attributeName="stroke-dashoffset" values="45.21;45.21;0" keyTimes="0;0.904;1" dur="4.732s" fill="freeze" begin="0s;7c14.click" /></path><path d="M78.02,68.75c0.03,0.24,0.36,1.16,0.16,1.48c-1.27,1.98-5.23,4.82-11.68,8.77" stroke-dasharray="16.197" stroke-dashoffset="16.197"><animate attributeName="stroke-dashoffset" values="16.197" fill="freeze" begin="7c14.click" /><animate attributeName="stroke-dashoffset" values="16.197;16.197;0" keyTimes="0;0.967;1" dur="4.894s" fill="freeze" begin="0s;7c14.click" /></path><path d="M54.98,72.88c2.14-0.12,3.55,1.29,5.55,3.03c6.32,5.48,22.02,18.46,26.45,21.52c1.66,1.15,3.09,1.65,4.76,1.98" stroke-dasharray="45.81" stroke-dashoffset="45.81"><animate attributeName="stroke-dashoffset" values="45.81" fill="freeze" begin="7c14.click" /><animate attributeName="stroke-dashoffset" values="45.81;45.81;0" keyTimes="0;0.914;1" dur="5.352s" fill="freeze" begin="0s;7c14.click" /></path></g></g></g></g></g></g></svg>