<svg xmlns="http://www.w3.org/2000/svg" width="109" height="109" viewBox="0 0 109 109" id="7c6c"><g fill="none" stroke="#666" stroke-width="9" stroke-linecap="round" stroke-linejoin="round"><g><g><g><path d="M 27,9.25 c 0.04,0.54 0.08,1.4 -0.08,2.18 C 25.96,16.01 20.49,26.08 13,32.25" /><path d="M 26.98,20.02 c 4.04,0 18.49,-2.26 23.02,-2.26" /><path d="M 33.27,21.33 c 2.29,1.53 5.91,6.29 6.48,8.67" /></g><g><path d="M 60.49,9.5 c 0.03,0.45 0.13,1.18 -0.06,1.82 -1.47,4.77 -5.54,11.57 -10.93,17.43" /><path d="M 59.98,19.16 c 5.17,0 25.6,-3.57 31.4,-3.57" /><path d="M 71.75,18.75 c 0.03,0.28 0.06,0.71 -0.06,1.11 -0.7,2.35 -4.71,7.49 -10.2,10.64" /></g></g><g><g><g><path d="M 31.82,29.5 c 0.41,0.22 1.09,1.06 1.09,1.49 0,1.6 -0.13,3.37 -0.05,4.72" /><path d="M 12.98,39.36 c 0.98,0.16 1.84,0.35 2.96,0.22 6.68,-0.73 25.23,-3.21 33.01,-3.59 1.14,-0.06 1.73,0.01 2.58,0.28" /></g><g><g><g><path d="M 38.81,40.91 c 0.22,0.35 0.45,0.63 0.11,1.24 -3.01,5.53 -7.5,10.16 -13.99,13.06" /></g><path d="M 26.36,44.36 c 4.86,1.34 11.85,5.7 14.39,8.89" /></g><g><path d="M 17.98,46.13 c 0.32,0.11 1.17,1.44 1.18,1.73 0.09,4.9 -0.94,11.7 -0.9,12.38 0.04,0.67 0.76,0.6 1.36,0.45 8.84,-2.18 24.52,-2.8 27.87,-3.32" /><path d="M 47.97,42.67 c 0.34,0.16 1.05,1.23 1.12,1.56 0.07,0.33 -1.26,9.03 -1.56,15.48" /></g></g><g><path d="M 14.86,69.24 c 0.39,1.26 1.16,2.49 1.16,3.86 -0.02,3.9 1.7,23.27 1.68,25.64" /><path d="M 15.51,71.37 c 4.74,-0.68 33.54,-4.89 34.49,-4.89 1.37,0 2.25,0.5 2.25,2.03 0,3.21 -2.23,19.97 -3.13,24.76 -1.45,7.75 -4.87,2.85 -6.14,1.25" /><path d="M 33.631452,62.979673 C 33.216993,68.060618 31.650451,75.68444 28.707566,82.533231" /><path d="M 25.72,84.65 C 30.25,83 32.89,82.25 40.75,79.92" /><path d="M 37.51,73.85 c 2.02,2.01 5.23,8.27 5.74,11.4" /></g></g><g><g><path d="M 66.88,30.73 c 0.15,1.38 -0.04,3.19 -0.51,4.38 -2.99,7.55 -6.77,13.95 -13.62,23.14" /><path d="M 61.88,47.9 c 0.18,0.74 0.31,2.36 0.33,3.5 0.1,10.2 -0.14,42.29 -0.06,47.6" /></g><path d="M 83.2,30.16 c 0.06,0.7 -0.02,1.62 -0.21,2.22 -1.23,3.83 -2.78,6.78 -5.6,11.44" /><path d="M 60.71,46.69 c 9.26,-0.89 31,-2.84 34.28,-3.22" /><path d="M 77.98,47.52 c 0.35,0.42 0.63,0.98 0.63,1.7 0,7.3 0.04,32.5 -0.17,43.99" /><path d="M 63.18,62.94 c 6.53,-0.71 25.58,-2.27 28.38,-2.63" /><path d="M 62.32,78.04 c 7.2,-0.56 27.4,-1.79 30.49,-2.09" /><path d="M 62.77,95.63 c 6.91,-0.84 30.3,-1.7 33.27,-2.18" /></g></g></g></g><g fill="none" stroke="#000" stroke-width="5" stroke-linecap="round" stroke-linejoin="round"><g><g><g><path d="M 27,9.25 c 0.04,0.54 0.08,1.4 -0.08,2.18 C 25.96,16.01 20.49,26.08 13,32.25" stroke-dasharray="27.57" stroke-dashoffset="27.57"><animate id="0" attributeName="stroke-dashoffset" values="27.57;0" dur="0.28s" fill="freeze" begin="0s;7c6c.click" /></path><path d="M 26.98,20.02 c 4.04,0 18.49,-2.26 23.02,-2.26" stroke-dasharray="23.14" stroke-dashoffset="23.14"><animate attributeName="stroke-dashoffset" values="23.14" fill="freeze" begin="7c6c.click" /><animate id="1" attributeName="stroke-dashoffset" values="23.14;0" dur="0.23s" fill="freeze" begin="0.end" /></path><path d="M 33.27,21.33 c 2.29,1.53 5.91,6.29 6.48,8.67" stroke-dasharray="10.97" stroke-dashoffset="10.97"><animate attributeName="stroke-dashoffset" values="10.97" fill="freeze" begin="7c6c.click" /><animate id="2" attributeName="stroke-dashoffset" values="10.97;0" dur="0.11s" fill="freeze" begin="1.end" /></path></g><g><path d="M 60.49,9.5 c 0.03,0.45 0.13,1.18 -0.06,1.82 -1.47,4.77 -5.54,11.57 -10.93,17.43" stroke-dasharray="22.55" stroke-dashoffset="22.55"><animate attributeName="stroke-dashoffset" values="22.55" fill="freeze" begin="7c6c.click" /><animate id="3" attributeName="stroke-dashoffset" values="22.55;0" dur="0.23s" fill="freeze" begin="2.end" /></path><path d="M 59.98,19.16 c 5.17,0 25.6,-3.57 31.4,-3.57" stroke-dasharray="31.62" stroke-dashoffset="31.62"><animate attributeName="stroke-dashoffset" values="31.62" fill="freeze" begin="7c6c.click" /><animate id="4" attributeName="stroke-dashoffset" values="31.62;0" dur="0.32s" fill="freeze" begin="3.end" /></path><path d="M 71.75,18.75 c 0.03,0.28 0.06,0.71 -0.06,1.11 -0.7,2.35 -4.71,7.49 -10.2,10.64" stroke-dasharray="16.1" stroke-dashoffset="16.1"><animate attributeName="stroke-dashoffset" values="16.1" fill="freeze" begin="7c6c.click" /><animate id="5" attributeName="stroke-dashoffset" values="16.1;0" dur="0.16s" fill="freeze" begin="4.end" /></path></g></g><g><g><g><path d="M 31.82,29.5 c 0.41,0.22 1.09,1.06 1.09,1.49 0,1.6 -0.13,3.37 -0.05,4.72" stroke-dasharray="6.62" stroke-dashoffset="6.62"><animate attributeName="stroke-dashoffset" values="6.62" fill="freeze" begin="7c6c.click" /><animate id="6" attributeName="stroke-dashoffset" values="6.62;0" dur="0.07s" fill="freeze" begin="5.end" /></path><path d="M 12.98,39.36 c 0.98,0.16 1.84,0.35 2.96,0.22 6.68,-0.73 25.23,-3.21 33.01,-3.59 1.14,-0.06 1.73,0.01 2.58,0.28" stroke-dasharray="38.8" stroke-dashoffset="38.8"><animate attributeName="stroke-dashoffset" values="38.8" fill="freeze" begin="7c6c.click" /><animate id="7" attributeName="stroke-dashoffset" values="38.8;0" dur="0.39s" fill="freeze" begin="6.end" /></path></g><g><g><g><path d="M 38.81,40.91 c 0.22,0.35 0.45,0.63 0.11,1.24 -3.01,5.53 -7.5,10.16 -13.99,13.06" stroke-dasharray="20.84" stroke-dashoffset="20.84"><animate attributeName="stroke-dashoffset" values="20.84" fill="freeze" begin="7c6c.click" /><animate id="8" attributeName="stroke-dashoffset" values="20.84;0" dur="0.21s" fill="freeze" begin="7.end" /></path></g><path d="M 26.36,44.36 c 4.86,1.34 11.85,5.7 14.39,8.89" stroke-dasharray="17.11" stroke-dashoffset="17.11"><animate attributeName="stroke-dashoffset" values="17.11" fill="freeze" begin="7c6c.click" /><animate id="9" attributeName="stroke-dashoffset" values="17.11;0" dur="0.17s" fill="freeze" begin="8.end" /></path></g><g><path d="M 17.98,46.13 c 0.32,0.11 1.17,1.44 1.18,1.73 0.09,4.9 -0.94,11.7 -0.9,12.38 0.04,0.67 0.76,0.6 1.36,0.45 8.84,-2.18 24.52,-2.8 27.87,-3.32" stroke-dasharray="44.32" stroke-dashoffset="44.32"><animate attributeName="stroke-dashoffset" values="44.32" fill="freeze" begin="7c6c.click" /><animate id="10" attributeName="stroke-dashoffset" values="44.32;0" dur="0.44s" fill="freeze" begin="9.end" /></path><path d="M 47.97,42.67 c 0.34,0.16 1.05,1.23 1.12,1.56 0.07,0.33 -1.26,9.03 -1.56,15.48" stroke-dasharray="17.51" stroke-dashoffset="17.51"><animate attributeName="stroke-dashoffset" values="17.51" fill="freeze" begin="7c6c.click" /><animate id="11" attributeName="stroke-dashoffset" values="17.51;0" dur="0.18s" fill="freeze" begin="10.end" /></path></g></g><g><path d="M 14.86,69.24 c 0.39,1.26 1.16,2.49 1.16,3.86 -0.02,3.9 1.7,23.27 1.68,25.64" stroke-dasharray="29.75" stroke-dashoffset="29.75"><animate attributeName="stroke-dashoffset" values="29.75" fill="freeze" begin="7c6c.click" /><animate id="12" attributeName="stroke-dashoffset" values="29.75;0" dur="0.3s" fill="freeze" begin="11.end" /></path><path d="M 15.51,71.37 c 4.74,-0.68 33.54,-4.89 34.49,-4.89 1.37,0 2.25,0.5 2.25,2.03 0,3.21 -2.23,19.97 -3.13,24.76 -1.45,7.75 -4.87,2.85 -6.14,1.25" stroke-dasharray="73.42" stroke-dashoffset="73.42"><animate attributeName="stroke-dashoffset" values="73.42" fill="freeze" begin="7c6c.click" /><animate id="13" attributeName="stroke-dashoffset" values="73.42;0" dur="0.55s" fill="freeze" begin="12.end" /></path><path d="M 33.631452,62.979673 C 33.216993,68.060618 31.650451,75.68444 28.707566,82.533231" stroke-dasharray="20.24" stroke-dashoffset="20.24"><animate attributeName="stroke-dashoffset" values="20.24" fill="freeze" begin="7c6c.click" /><animate id="14" attributeName="stroke-dashoffset" values="20.24;0" dur="0.2s" fill="freeze" begin="13.end" /></path><path d="M 25.72,84.65 C 30.25,83 32.89,82.25 40.75,79.92" stroke-dasharray="15.76" stroke-dashoffset="15.76"><animate attributeName="stroke-dashoffset" values="15.76" fill="freeze" begin="7c6c.click" /><animate id="15" attributeName="stroke-dashoffset" values="15.76;0" dur="0.16s" fill="freeze" begin="14.end" /></path><path d="M 37.51,73.85 c 2.02,2.01 5.23,8.27 5.74,11.4" stroke-dasharray="12.88" stroke-dashoffset="12.88"><animate attributeName="stroke-dashoffset" values="12.88" fill="freeze" begin="7c6c.click" /><animate id="16" attributeName="stroke-dashoffset" values="12.88;0" dur="0.13s" fill="freeze" begin="15.end" /></path></g></g><g><g><path d="M 66.88,30.73 c 0.15,1.38 -0.04,3.19 -0.51,4.38 -2.99,7.55 -6.77,13.95 -13.62,23.14" stroke-dasharray="31.38" stroke-dashoffset="31.38"><animate attributeName="stroke-dashoffset" values="31.38" fill="freeze" begin="7c6c.click" /><animate id="17" attributeName="stroke-dashoffset" values="31.38;0" dur="0.31s" fill="freeze" begin="16.end" /></path><path d="M 61.88,47.9 c 0.18,0.74 0.31,2.36 0.33,3.5 0.1,10.2 -0.14,42.29 -0.06,47.6" stroke-dasharray="51.12" stroke-dashoffset="51.12"><animate attributeName="stroke-dashoffset" values="51.12" fill="freeze" begin="7c6c.click" /><animate id="18" attributeName="stroke-dashoffset" values="51.12;0" dur="0.51s" fill="freeze" begin="17.end" /></path></g><path d="M 83.2,30.16 c 0.06,0.7 -0.02,1.62 -0.21,2.22 -1.23,3.83 -2.78,6.78 -5.6,11.44" stroke-dasharray="15.01" stroke-dashoffset="15.01"><animate attributeName="stroke-dashoffset" values="15.01" fill="freeze" begin="7c6c.click" /><animate id="19" attributeName="stroke-dashoffset" values="15.01;0" dur="0.15s" fill="freeze" begin="18.end" /></path><path d="M 60.71,46.69 c 9.26,-0.89 31,-2.84 34.28,-3.22" stroke-dasharray="34.43" stroke-dashoffset="34.43"><animate attributeName="stroke-dashoffset" values="34.43" fill="freeze" begin="7c6c.click" /><animate id="20" attributeName="stroke-dashoffset" values="34.43;0" dur="0.34s" fill="freeze" begin="19.end" /></path><path d="M 77.98,47.52 c 0.35,0.42 0.63,0.98 0.63,1.7 0,7.3 0.04,32.5 -0.17,43.99" stroke-dasharray="45.84" stroke-dashoffset="45.84"><animate attributeName="stroke-dashoffset" values="45.84" fill="freeze" begin="7c6c.click" /><animate id="21" attributeName="stroke-dashoffset" values="45.84;0" dur="0.46s" fill="freeze" begin="20.end" /></path><path d="M 63.18,62.94 c 6.53,-0.71 25.58,-2.27 28.38,-2.63" stroke-dasharray="28.5" stroke-dashoffset="28.5"><animate attributeName="stroke-dashoffset" values="28.5" fill="freeze" begin="7c6c.click" /><animate id="22" attributeName="stroke-dashoffset" values="28.5;0" dur="0.28s" fill="freeze" begin="21.end" /></path><path d="M 62.32,78.04 c 7.2,-0.56 27.4,-1.79 30.49,-2.09" stroke-dasharray="30.56" stroke-dashoffset="30.56"><animate attributeName="stroke-dashoffset" values="30.56" fill="freeze" begin="7c6c.click" /><animate id="23" attributeName="stroke-dashoffset" values="30.56;0" dur="0.31s" fill="freeze" begin="22.end" /></path><path d="M 62.77,95.63 c 6.91,-0.84 30.3,-1.7 33.27,-2.18" stroke-dasharray="33.35" stroke-dashoffset="33.35"><animate attributeName="stroke-dashoffset" values="33.35" fill="freeze" begin="7c6c.click" /><animate id="24" attributeName="stroke-dashoffset" values="33.35;0" dur="0.33s" fill="freeze" begin="23.end" /></path></g></g></g></g></svg>