<svg xmlns="http://www.w3.org/2000/svg" width="109" height="109" viewBox="0 0 109 109" id="7c83"><g fill="none" stroke="#666" stroke-width="9" stroke-linecap="round" stroke-linejoin="round"><g><g><path d="M14.19,26.14c2.65,2.21,6.65,8.47,7.31,11.91" /><path d="M44.26,22.47c0.02,0.31,0.04,0.81-0.04,1.26c-0.51,2.66-3.42,8.49-7.4,12.06" /><path d="M11.35,45.2c0.56,0.19,2.05,0.66,3.53,0.56c5.33-0.37,21.15-2.21,27.18-2.81c1.48-0.15,1.86-0.19,2.79,0" /><path d="M29.02,16.46c0.88,0.45,1.41,2.03,1.59,2.94s0,69.74-0.18,75.39" /><path d="M30.52,44.96C26.69,56.45,17.37,72.59,8.75,79.23" /><path d="M33.37,51.32c4.46,2.97,7.74,6.39,9.4,11.4" /></g><g><g><path d="M53.23,47.28c4.49-0.31,7.83-0.91,11.75-1.44c1.15-0.15,3.05-0.15,3.64-0.06" /><path d="M51.87,16.83c0.69,1.12,1.29,2.3,1.29,3.84c0,4.17,0.28,58.33,0.28,64.53c0,3.8,1.57,4.55,3.28,3.14c4.79-3.94,6.54-6.34,9.76-8.6" /></g><g><path d="M94.57,32.44c0.21,0.93,0.27,3.03-0.73,4.08c-5.68,6.03-9.99,10.44-16.32,15.47" /><path d="M73.29,15.5c0.8,1.18,1.49,3.06,1.49,4.55c0,3.93-0.37,57.04-0.37,61.65c0,10.54,2.34,11.55,11.39,11.55c12.2,0,10.89-2.26,10.89-12.57" /></g></g></g></g><g fill="none" stroke="#000" stroke-width="5" stroke-linecap="round" stroke-linejoin="round"><g><g><path d="M14.19,26.14c2.65,2.21,6.65,8.47,7.31,11.91" stroke-dasharray="14.143" stroke-dashoffset="14.143"><animate attributeName="stroke-dashoffset" values="14.143;14.143;0" dur="0.141s" fill="freeze" begin="0s;7c83.click" /></path><path d="M44.26,22.47c0.02,0.31,0.04,0.81-0.04,1.26c-0.51,2.66-3.42,8.49-7.4,12.06" stroke-dasharray="15.594" stroke-dashoffset="15.594"><animate attributeName="stroke-dashoffset" values="15.594" fill="freeze" begin="7c83.click" /><animate attributeName="stroke-dashoffset" values="15.594;15.594;0" keyTimes="0;0.475;1" dur="0.297s" fill="freeze" begin="0s;7c83.click" /></path><path d="M11.35,45.2c0.56,0.19,2.05,0.66,3.53,0.56c5.33-0.37,21.15-2.21,27.18-2.81c1.48-0.15,1.86-0.19,2.79,0" stroke-dasharray="33.728" stroke-dashoffset="33.728"><animate attributeName="stroke-dashoffset" values="33.728" fill="freeze" begin="7c83.click" /><animate attributeName="stroke-dashoffset" values="33.728;33.728;0" keyTimes="0;0.468;1" dur="0.634s" fill="freeze" begin="0s;7c83.click" /></path><path d="M29.02,16.46c0.88,0.45,1.41,2.03,1.59,2.94s0,69.74-0.18,75.39" stroke-dasharray="78.826" stroke-dashoffset="78.826"><animate attributeName="stroke-dashoffset" values="78.826" fill="freeze" begin="7c83.click" /><animate attributeName="stroke-dashoffset" values="78.826;78.826;0" keyTimes="0;0.517;1" dur="1.227s" fill="freeze" begin="0s;7c83.click" /></path><path d="M30.52,44.96C26.69,56.45,17.37,72.59,8.75,79.23" stroke-dasharray="41.047" stroke-dashoffset="41.047"><animate attributeName="stroke-dashoffset" values="41.047" fill="freeze" begin="7c83.click" /><animate attributeName="stroke-dashoffset" values="41.047;41.047;0" keyTimes="0;0.75;1" dur="1.637s" fill="freeze" begin="0s;7c83.click" /></path><path d="M33.37,51.32c4.46,2.97,7.74,6.39,9.4,11.4" stroke-dasharray="15.075" stroke-dashoffset="15.075"><animate attributeName="stroke-dashoffset" values="15.075" fill="freeze" begin="7c83.click" /><animate attributeName="stroke-dashoffset" values="15.075;15.075;0" keyTimes="0;0.916;1" dur="1.788s" fill="freeze" begin="0s;7c83.click" /></path></g><g><g><path d="M53.23,47.28c4.49-0.31,7.83-0.91,11.75-1.44c1.15-0.15,3.05-0.15,3.64-0.06" stroke-dasharray="15.489" stroke-dashoffset="15.489"><animate attributeName="stroke-dashoffset" values="15.489" fill="freeze" begin="7c83.click" /><animate attributeName="stroke-dashoffset" values="15.489;15.489;0" keyTimes="0;0.92;1" dur="1.943s" fill="freeze" begin="0s;7c83.click" /></path><path d="M51.87,16.83c0.69,1.12,1.29,2.3,1.29,3.84c0,4.17,0.28,58.33,0.28,64.53c0,3.8,1.57,4.55,3.28,3.14c4.79-3.94,6.54-6.34,9.76-8.6" stroke-dasharray="87.943" stroke-dashoffset="87.943"><animate attributeName="stroke-dashoffset" values="87.943" fill="freeze" begin="7c83.click" /><animate attributeName="stroke-dashoffset" values="87.943;87.943;0" keyTimes="0;0.746;1" dur="2.604s" fill="freeze" begin="0s;7c83.click" /></path></g><g><path d="M94.57,32.44c0.21,0.93,0.27,3.03-0.73,4.08c-5.68,6.03-9.99,10.44-16.32,15.47" stroke-dasharray="26.795" stroke-dashoffset="26.795"><animate attributeName="stroke-dashoffset" values="26.795" fill="freeze" begin="7c83.click" /><animate attributeName="stroke-dashoffset" values="26.795;26.795;0" keyTimes="0;0.907;1" dur="2.872s" fill="freeze" begin="0s;7c83.click" /></path><path d="M73.29,15.5c0.8,1.18,1.49,3.06,1.49,4.55c0,3.93-0.37,57.04-0.37,61.65c0,10.54,2.34,11.55,11.39,11.55c12.2,0,10.89-2.26,10.89-12.57" stroke-dasharray="107.201" stroke-dashoffset="107.201"><animate attributeName="stroke-dashoffset" values="107.201" fill="freeze" begin="7c83.click" /><animate attributeName="stroke-dashoffset" values="107.201;107.201;0" keyTimes="0;0.781;1" dur="3.678s" fill="freeze" begin="0s;7c83.click" /></path></g></g></g></g></svg>