<svg xmlns="http://www.w3.org/2000/svg" width="109" height="109" viewBox="0 0 109 109" id="7ca7"><g fill="none" stroke="#666" stroke-width="6" stroke-linecap="round" stroke-linejoin="round"><g><g><path d="M13.88,25.62c2.76,2.22,6.94,8.48,7.63,11.93" /><path d="M46.26,22.22c0.06,0.76,0.09,1.55-0.27,2.23c-1.74,3.3-3.61,6.68-7.17,10.84" /><path d="M10.85,44.27c2.2,0.83,4.38,0.69,6.67,0.45c7.82-0.82,17.32-2.75,23.48-3.69c1.56-0.24,3.25-0.5,4.85-0.5" /><path d="M29.77,15.96c1.13,1.13,1.34,2.54,1.34,3.94c0,0.76-0.09,46.72-0.09,66.6c0,4.01,0.01,6.91-0.02,7.88" /><path d="M30.52,44.21c0,2.29-0.51,3.95-1.12,5.5c-3.97,10.08-10.5,21.77-17.65,29.77" /><path d="M33.5,51c4.62,3.12,8.25,6.75,10.03,10.71" /></g><g p4:phon="庄" xmlns:p4="http://kanjivg.tagaini.net"><g><path d="M70.31,15.88c1.34,1.34,1.51,2.74,1.51,4.65c0,0.79,0.08,5.9-0.07,10.71" /><g><path d="M51.28,34.38c2.97,0.5,5.24,0.34,7.61,0.12c9.25-0.86,19.19-2.74,29.36-3.65c2.03-0.18,4.14-0.12,6.13,0.33" /><path d="M53.41,35.25c0.98,0.98,1.2,2.5,1.17,4.45c-0.33,16.8-3.62,40.88-14.77,53.27" /></g></g><g><path d="M60.89,59.34c1.43,0.56,3.29,0.23,4.73,0.1c7.92-0.71,15.06-1.81,22.64-2.19c1.52-0.08,2.99-0.16,4.48,0.18" /><path d="M74.17,40.37c0.98,0.98,1.52,2.52,1.52,4.39c0,12-0.07,27.38-0.07,43.25" /><path d="M52.15,89.39c2.98,0.73,5.12,0.81,7.35,0.66c12.2-0.84,21.78-1.47,32.62-1.82c2.1-0.07,4.5,0.09,6.49,0.78" /></g></g></g></g><g fill="none" stroke="#000" stroke-width="3" stroke-linecap="round" stroke-linejoin="round"><path d="M13.88,25.62c2.76,2.22,6.94,8.48,7.63,11.93" stroke-dasharray="14.337" stroke-dashoffset="14.337"><animate attributeName="stroke-dashoffset" values="14.337;14.337;0" dur="0.143s" fill="freeze" begin="0s;7ca7.click" /></path><path d="M46.26,22.22c0.06,0.76,0.09,1.55-0.27,2.23c-1.74,3.3-3.61,6.68-7.17,10.84" stroke-dasharray="15.307" stroke-dashoffset="15.307"><animate attributeName="stroke-dashoffset" values="15.307" fill="freeze" begin="7ca7.click" /><animate attributeName="stroke-dashoffset" values="15.307;15.307;0" keyTimes="0;0.483;1" dur="0.296s" fill="freeze" begin="0s;7ca7.click" /></path><path d="M10.85,44.27c2.2,0.83,4.38,0.69,6.67,0.45c7.82-0.82,17.32-2.75,23.48-3.69c1.56-0.24,3.25-0.5,4.85-0.5" stroke-dasharray="35.405" stroke-dashoffset="35.405"><animate attributeName="stroke-dashoffset" values="35.405" fill="freeze" begin="7ca7.click" /><animate attributeName="stroke-dashoffset" values="35.405;35.405;0" keyTimes="0;0.455;1" dur="0.65s" fill="freeze" begin="0s;7ca7.click" /></path><path d="M29.77,15.96c1.13,1.13,1.34,2.54,1.34,3.94c0,0.76-0.09,46.72-0.09,66.6c0,4.01,0.01,6.91-0.02,7.88" stroke-dasharray="78.763" stroke-dashoffset="78.763"><animate attributeName="stroke-dashoffset" values="78.763" fill="freeze" begin="7ca7.click" /><animate attributeName="stroke-dashoffset" values="78.763;78.763;0" keyTimes="0;0.523;1" dur="1.242s" fill="freeze" begin="0s;7ca7.click" /></path><path d="M30.52,44.21c0,2.29-0.51,3.95-1.12,5.5c-3.97,10.08-10.5,21.77-17.65,29.77" stroke-dasharray="40.421" stroke-dashoffset="40.421"><animate attributeName="stroke-dashoffset" values="40.421" fill="freeze" begin="7ca7.click" /><animate attributeName="stroke-dashoffset" values="40.421;40.421;0" keyTimes="0;0.755;1" dur="1.646s" fill="freeze" begin="0s;7ca7.click" /></path><path d="M33.5,51c4.62,3.12,8.25,6.75,10.03,10.71" stroke-dasharray="14.857" stroke-dashoffset="14.857"><animate attributeName="stroke-dashoffset" values="14.857" fill="freeze" begin="7ca7.click" /><animate attributeName="stroke-dashoffset" values="14.857;14.857;0" keyTimes="0;0.917;1" dur="1.795s" fill="freeze" begin="0s;7ca7.click" /></path><path d="M70.31,15.88c1.34,1.34,1.51,2.74,1.51,4.65c0,0.79,0.08,5.9-0.07,10.71" stroke-dasharray="15.758" stroke-dashoffset="15.758"><animate attributeName="stroke-dashoffset" values="15.758" fill="freeze" begin="7ca7.click" /><animate attributeName="stroke-dashoffset" values="15.758;15.758;0" keyTimes="0;0.919;1" dur="1.953s" fill="freeze" begin="0s;7ca7.click" /></path><path d="M51.28,34.38c2.97,0.5,5.24,0.34,7.61,0.12c9.25-0.86,19.19-2.74,29.36-3.65c2.03-0.18,4.14-0.12,6.13,0.33" stroke-dasharray="43.39" stroke-dashoffset="43.39"><animate attributeName="stroke-dashoffset" values="43.39" fill="freeze" begin="7ca7.click" /><animate attributeName="stroke-dashoffset" values="43.39;43.39;0" keyTimes="0;0.818;1" dur="2.387s" fill="freeze" begin="0s;7ca7.click" /></path><path d="M53.41,35.25c0.98,0.98,1.2,2.5,1.17,4.45c-0.33,16.8-3.62,40.88-14.77,53.27" stroke-dasharray="61.019" stroke-dashoffset="61.019"><animate attributeName="stroke-dashoffset" values="61.019" fill="freeze" begin="7ca7.click" /><animate attributeName="stroke-dashoffset" values="61.019;61.019;0" keyTimes="0;0.839;1" dur="2.846s" fill="freeze" begin="0s;7ca7.click" /></path><path d="M60.89,59.34c1.43,0.56,3.29,0.23,4.73,0.1c7.92-0.71,15.06-1.81,22.64-2.19c1.52-0.08,2.99-0.16,4.48,0.18" stroke-dasharray="32.025" stroke-dashoffset="32.025"><animate attributeName="stroke-dashoffset" values="32.025" fill="freeze" begin="7ca7.click" /><animate attributeName="stroke-dashoffset" values="32.025;32.025;0" keyTimes="0;0.899;1" dur="3.166s" fill="freeze" begin="0s;7ca7.click" /></path><path d="M74.17,40.37c0.98,0.98,1.52,2.52,1.52,4.39c0,12-0.07,27.38-0.07,43.25" stroke-dasharray="48.017" stroke-dashoffset="48.017"><animate attributeName="stroke-dashoffset" values="48.017" fill="freeze" begin="7ca7.click" /><animate attributeName="stroke-dashoffset" values="48.017;48.017;0" keyTimes="0;0.868;1" dur="3.646s" fill="freeze" begin="0s;7ca7.click" /></path><path d="M52.15,89.39c2.98,0.73,5.12,0.81,7.35,0.66c12.2-0.84,21.78-1.47,32.62-1.82c2.1-0.07,4.5,0.09,6.49,0.78" stroke-dasharray="46.658" stroke-dashoffset="46.658"><animate attributeName="stroke-dashoffset" values="46.658" fill="freeze" begin="7ca7.click" /><animate attributeName="stroke-dashoffset" values="46.658;46.658;0" keyTimes="0;0.886;1" dur="4.113s" fill="freeze" begin="0s;7ca7.click" /></path></g></svg>