<svg xmlns="http://www.w3.org/2000/svg" width="109" height="109" viewBox="0 0 109 109" id="7cad"><g fill="none" stroke="#666" stroke-width="9" stroke-linecap="round" stroke-linejoin="round"><g><g><path d="M12,25c3.26,2.52,8.19,9.64,9,13.55" /><path d="M44.5,21.25c0.02,0.34,0.04,0.88-0.04,1.37c-0.51,2.89-3.45,9.24-7.46,13.13" /><path d="M9.75,45.98c0.62,0.13,2.28,0.45,3.92,0.38c5.91-0.25,22.9-2.09,29.59-2.5c1.64-0.1,2.06-0.13,3.1,0" /><path d="M28.73,15.46c0.66,0.45,1.06,2.03,1.19,2.94c0.13,0.9,0,71.24-0.13,76.89" /><path d="M29.52,46.21C26.09,57.7,18.25,71.25,10,80.48" /><path d="M32.75,51c5.35,3.31,8,7,11.28,12.71" /></g><g><g><g><path d="M67.75,13.5c0.06,0.92-0.21,2.46-0.63,3.71c-2.89,8.64-8.71,24.7-21.06,35.48" /><path d="M68.33,18.08c3.74,5.99,19.87,25.55,24,29.94c1.4,1.49,3.2,2.13,4.6,2.55" /></g><g><path d="M55.8,52.35c0.61,0.16,3.43,0.17,4.03,0.16c6.3-0.18,12.29-1.42,21.3-1.45c1.01,0,2.47,0.07,2.98,0.15" /></g></g><g><path d="M51.59,67.83c0.47,0.59,1.53,2.01,1.65,2.79c1.56,10.15,2.74,17.45,3.8,25.91" /><path d="M54.31,69.93c11.55-1.51,23.9-2.39,29.66-3.12c2.11-0.27,3.37,1.59,3.07,3.16c-1.25,6.51-1.51,12.48-4.07,21.59" /><path d="M57.25,94.48c6.41-0.71,16.5-1.73,28.22-1.83" /></g></g></g></g><g fill="none" stroke="#000" stroke-width="5" stroke-linecap="round" stroke-linejoin="round"><g><g><path d="M12,25c3.26,2.52,8.19,9.64,9,13.55" stroke-dasharray="16.475" stroke-dashoffset="16.475"><animate attributeName="stroke-dashoffset" values="16.475;16.475;0" dur="0.165s" fill="freeze" begin="0s;7cad.click" /></path><path d="M44.5,21.25c0.02,0.34,0.04,0.88-0.04,1.37c-0.51,2.89-3.45,9.24-7.46,13.13" stroke-dasharray="16.654" stroke-dashoffset="16.654"><animate attributeName="stroke-dashoffset" values="16.654" fill="freeze" begin="7cad.click" /><animate attributeName="stroke-dashoffset" values="16.654;16.654;0" keyTimes="0;0.497;1" dur="0.332s" fill="freeze" begin="0s;7cad.click" /></path><path d="M9.75,45.98c0.62,0.13,2.28,0.45,3.92,0.38c5.91-0.25,22.9-2.09,29.59-2.5c1.64-0.1,2.06-0.13,3.1,0" stroke-dasharray="36.752" stroke-dashoffset="36.752"><animate attributeName="stroke-dashoffset" values="36.752" fill="freeze" begin="7cad.click" /><animate attributeName="stroke-dashoffset" values="36.752;36.752;0" keyTimes="0;0.474;1" dur="0.7s" fill="freeze" begin="0s;7cad.click" /></path><path d="M28.73,15.46c0.66,0.45,1.06,2.03,1.19,2.94c0.13,0.9,0,71.24-0.13,76.89" stroke-dasharray="80.127" stroke-dashoffset="80.127"><animate attributeName="stroke-dashoffset" values="80.127" fill="freeze" begin="7cad.click" /><animate attributeName="stroke-dashoffset" values="80.127;80.127;0" keyTimes="0;0.538;1" dur="1.302s" fill="freeze" begin="0s;7cad.click" /></path><path d="M29.52,46.21C26.09,57.7,18.25,71.25,10,80.48" stroke-dasharray="39.717" stroke-dashoffset="39.717"><animate attributeName="stroke-dashoffset" values="39.717" fill="freeze" begin="7cad.click" /><animate attributeName="stroke-dashoffset" values="39.717;39.717;0" keyTimes="0;0.766;1" dur="1.699s" fill="freeze" begin="0s;7cad.click" /></path><path d="M32.75,51c5.35,3.31,8,7,11.28,12.71" stroke-dasharray="17.206" stroke-dashoffset="17.206"><animate attributeName="stroke-dashoffset" values="17.206" fill="freeze" begin="7cad.click" /><animate attributeName="stroke-dashoffset" values="17.206;17.206;0" keyTimes="0;0.908;1" dur="1.871s" fill="freeze" begin="0s;7cad.click" /></path></g><g><g><g><path d="M67.75,13.5c0.06,0.92-0.21,2.46-0.63,3.71c-2.89,8.64-8.71,24.7-21.06,35.48" stroke-dasharray="45.539" stroke-dashoffset="45.539"><animate attributeName="stroke-dashoffset" values="45.539" fill="freeze" begin="7cad.click" /><animate attributeName="stroke-dashoffset" values="45.539;45.539;0" keyTimes="0;0.804;1" dur="2.326s" fill="freeze" begin="0s;7cad.click" /></path><path d="M68.33,18.08c3.74,5.99,19.87,25.55,24,29.94c1.4,1.49,3.2,2.13,4.6,2.55" stroke-dasharray="43.72" stroke-dashoffset="43.72"><animate attributeName="stroke-dashoffset" values="43.72" fill="freeze" begin="7cad.click" /><animate attributeName="stroke-dashoffset" values="43.72;43.72;0" keyTimes="0;0.842;1" dur="2.763s" fill="freeze" begin="0s;7cad.click" /></path></g><g><path d="M55.8,52.35c0.61,0.16,3.43,0.17,4.03,0.16c6.3-0.18,12.29-1.42,21.3-1.45c1.01,0,2.47,0.07,2.98,0.15" stroke-dasharray="28.382" stroke-dashoffset="28.382"><animate attributeName="stroke-dashoffset" values="28.382" fill="freeze" begin="7cad.click" /><animate attributeName="stroke-dashoffset" values="28.382;28.382;0" keyTimes="0;0.907;1" dur="3.047s" fill="freeze" begin="0s;7cad.click" /></path></g></g><g><path d="M51.59,67.83c0.47,0.59,1.53,2.01,1.65,2.79c1.56,10.15,2.74,17.45,3.8,25.91" stroke-dasharray="29.455" stroke-dashoffset="29.455"><animate attributeName="stroke-dashoffset" values="29.455" fill="freeze" begin="7cad.click" /><animate attributeName="stroke-dashoffset" values="29.455;29.455;0" keyTimes="0;0.912;1" dur="3.342s" fill="freeze" begin="0s;7cad.click" /></path><path d="M54.31,69.93c11.55-1.51,23.9-2.39,29.66-3.12c2.11-0.27,3.37,1.59,3.07,3.16c-1.25,6.51-1.51,12.48-4.07,21.59" stroke-dasharray="56.958" stroke-dashoffset="56.958"><animate attributeName="stroke-dashoffset" values="56.958" fill="freeze" begin="7cad.click" /><animate attributeName="stroke-dashoffset" values="56.958;56.958;0" keyTimes="0;0.854;1" dur="3.912s" fill="freeze" begin="0s;7cad.click" /></path><path d="M57.25,94.48c6.41-0.71,16.5-1.73,28.22-1.83" stroke-dasharray="28.293" stroke-dashoffset="28.293"><animate attributeName="stroke-dashoffset" values="28.293" fill="freeze" begin="7cad.click" /><animate attributeName="stroke-dashoffset" values="28.293;28.293;0" keyTimes="0;0.933;1" dur="4.195s" fill="freeze" begin="0s;7cad.click" /></path></g></g></g></g></svg>