<svg xmlns="http://www.w3.org/2000/svg" width="109" height="109" viewBox="0 0 109 109" id="7d0a"><g fill="none" stroke="#666" stroke-width="6" stroke-linecap="round" stroke-linejoin="round"><g><g><g><path d="M52.12,9c0.84,0.36,2.23,1.76,2.23,2.48c0,2.85-0.02,5.63-0.11,7.68" /><path d="M20,21.57c1.22,0.05,3.53,0.3,4.72,0.27c9.97-0.24,48.17-3.05,61.23-3.18c2.02-0.02,3.05,0.03,4.55,0.35" /></g><g><path d="M69.35,22.72c0.68,0.68,0.43,2.27-0.66,3.41C57.75,37.5,39.75,47.25,15.5,53.25" /><path d="M35.75,29.25c14.36,5.79,34.88,16.72,51.91,22.77c3.2,1.14,5.56,1.12,8.34,1.22" /></g></g><g><path d="M51.85,46.75c0.43,0.79,0.32,1.97-0.72,2.75c-4.56,3.44-10.65,8.98-14.99,10.83c-0.89,0.38-0.86,1.83,0,1.99c4.56,0.79,10.05,3.12,13.95,4.58" /><path d="M68.04,53.25c0.5,0.46,0.16,2.47-0.5,2.96c-9.75,7.23-20.17,13.7-33.55,20.3c-3.07,1.51-1.74,2.88,0.26,2.57c8.38-1.29,32.24-3.85,43-5.08" /><path d="M68.11,66.1c5.43,2.42,14.03,9.94,15.39,13.7" /><path d="M53.55,78.25c0.06,0.18,0.88,0.91,0.94,2.01c0.3,5.3-0.19,19.18-0.19,20.99" /><path d="M40.35,85.7c0.15,1.05-0.18,2.45-0.89,2.92c-4.62,3.06-14.67,8.46-21.22,11.08" /><path d="M67.52,85.2c9.2,2.84,16.26,9.43,18.4,12" /></g></g></g><g fill="none" stroke="#000" stroke-width="3" stroke-linecap="round" stroke-linejoin="round"><path d="M52.12,9c0.84,0.36,2.23,1.76,2.23,2.48c0,2.85-0.02,5.63-0.11,7.68" stroke-dasharray="11.12" stroke-dashoffset="11.12"><animate attributeName="stroke-dashoffset" values="11.12;11.12;0" dur="0.111s" fill="freeze" begin="0s;7d0a.click" /></path><path d="M20,21.57c1.22,0.05,3.53,0.3,4.72,0.27c9.97-0.24,48.17-3.05,61.23-3.18c2.02-0.02,3.05,0.03,4.55,0.35" stroke-dasharray="70.621" stroke-dashoffset="70.621"><animate attributeName="stroke-dashoffset" values="70.621" fill="freeze" begin="7d0a.click" /><animate attributeName="stroke-dashoffset" values="70.621;70.621;0" keyTimes="0;0.173;1" dur="0.642s" fill="freeze" begin="0s;7d0a.click" /></path><path d="M69.35,22.72c0.68,0.68,0.43,2.27-0.66,3.41C57.75,37.5,39.75,47.25,15.5,53.25" stroke-dasharray="64.241" stroke-dashoffset="64.241"><animate attributeName="stroke-dashoffset" values="64.241" fill="freeze" begin="7d0a.click" /><animate attributeName="stroke-dashoffset" values="64.241;64.241;0" keyTimes="0;0.571;1" dur="1.125s" fill="freeze" begin="0s;7d0a.click" /></path><path d="M35.75,29.25c14.36,5.79,34.88,16.72,51.91,22.77c3.2,1.14,5.56,1.12,8.34,1.22" stroke-dasharray="65.174" stroke-dashoffset="65.174"><animate attributeName="stroke-dashoffset" values="65.174" fill="freeze" begin="7d0a.click" /><animate attributeName="stroke-dashoffset" values="65.174;65.174;0" keyTimes="0;0.697;1" dur="1.615s" fill="freeze" begin="0s;7d0a.click" /></path><path d="M51.85,46.75c0.43,0.79,0.32,1.97-0.72,2.75c-4.56,3.44-10.65,8.98-14.99,10.83c-0.89,0.38-0.86,1.83,0,1.99c4.56,0.79,10.05,3.12,13.95,4.58" stroke-dasharray="38.906" stroke-dashoffset="38.906"><animate attributeName="stroke-dashoffset" values="38.906" fill="freeze" begin="7d0a.click" /><animate attributeName="stroke-dashoffset" values="38.906;38.906;0" keyTimes="0;0.806;1" dur="2.004s" fill="freeze" begin="0s;7d0a.click" /></path><path d="M68.04,53.25c0.5,0.46,0.16,2.47-0.5,2.96c-9.75,7.23-20.17,13.7-33.55,20.3c-3.07,1.51-1.74,2.88,0.26,2.57c8.38-1.29,32.24-3.85,43-5.08" stroke-dasharray="90.882" stroke-dashoffset="90.882"><animate attributeName="stroke-dashoffset" values="90.882" fill="freeze" begin="7d0a.click" /><animate attributeName="stroke-dashoffset" values="90.882;90.882;0" keyTimes="0;0.746;1" dur="2.687s" fill="freeze" begin="0s;7d0a.click" /></path><path d="M68.11,66.1c5.43,2.42,14.03,9.94,15.39,13.7" stroke-dasharray="20.903" stroke-dashoffset="20.903"><animate attributeName="stroke-dashoffset" values="20.903" fill="freeze" begin="7d0a.click" /><animate attributeName="stroke-dashoffset" values="20.903;20.903;0" keyTimes="0;0.928;1" dur="2.896s" fill="freeze" begin="0s;7d0a.click" /></path><path d="M53.55,78.25c0.06,0.18,0.88,0.91,0.94,2.01c0.3,5.3-0.19,19.18-0.19,20.99" stroke-dasharray="23.253" stroke-dashoffset="23.253"><animate attributeName="stroke-dashoffset" values="23.253" fill="freeze" begin="7d0a.click" /><animate attributeName="stroke-dashoffset" values="23.253;23.253;0" keyTimes="0;0.926;1" dur="3.129s" fill="freeze" begin="0s;7d0a.click" /></path><path d="M40.35,85.7c0.15,1.05-0.18,2.45-0.89,2.92c-4.62,3.06-14.67,8.46-21.22,11.08" stroke-dasharray="27.151" stroke-dashoffset="27.151"><animate attributeName="stroke-dashoffset" values="27.151" fill="freeze" begin="7d0a.click" /><animate attributeName="stroke-dashoffset" values="27.151;27.151;0" keyTimes="0;0.92;1" dur="3.401s" fill="freeze" begin="0s;7d0a.click" /></path><path d="M67.52,85.2c9.2,2.84,16.26,9.43,18.4,12" stroke-dasharray="22.223" stroke-dashoffset="22.223"><animate attributeName="stroke-dashoffset" values="22.223" fill="freeze" begin="7d0a.click" /><animate attributeName="stroke-dashoffset" values="22.223;22.223;0" keyTimes="0;0.939;1" dur="3.623s" fill="freeze" begin="0s;7d0a.click" /></path></g></svg>