<svg xmlns="http://www.w3.org/2000/svg" width="109" height="109" viewBox="0 0 109 109" id="7d2c"><g fill="none" stroke="#666" stroke-width="9" stroke-linecap="round" stroke-linejoin="round"><g><g><path d="M28.63,14.92c0.34,1.34,0.27,2.41-0.42,3.8c-3.2,6.4-6.49,12.15-10.88,17.21c-1.21,1.39-1.57,3.19,0.68,4.43c3.09,1.7,4.75,2.39,8.37,4.75" /><path d="M38.3,26.43c0.45,1.32,0.2,2.57-0.5,3.59c-6.17,9.02-13.12,18-20.87,26.05c-2.33,2.42-1.2,3.98,1.92,3.14c6.26-1.7,14.68-4,20.65-5.43" /><path d="M35.88,47.25c2.57,2.29,7.73,8.92,8.38,12.48" /><path d="M28.89,59.62c0.87,0.87,1.23,2.26,1.23,3.84c0,8-0.06,17.86-0.1,24.54C30.01,90.34,30,92.28,30,93.62" /><path d="M19.86,68.6c0.14,0.96-0.14,2.61-0.39,3.3C17.5,77.25,14.5,84,11,88.93" /><path d="M37.68,66.79c3.25,3.95,5.74,13.11,6.49,16.69" /></g><g><g p5:part="1" p5:partial xmlns:p5="http://kanjivg.tagaini.net"><path d="M51.01,44.08c1.21,1.21,1.31,2.44,1.43,4.43c0.52,8.71,0.79,22.29,1.26,37c0.07,2.23,0.15,4.49,0.23,6.76" /><path d="M52.75,45.03c12.64-1.31,26.27-2.26,34.75-2.8c4.78-0.31,6.5,1.28,6.31,6.15c-0.32,7.99-1.23,23.92-2.65,35.49c-0.31,2.52-0.64,4.83-1,6.8" /></g><g><path d="M68.84,15.82c1.21,1.13,1.93,2.77,1.93,4.26c0.04,14.74-0.02,63.94-0.02,67.79" /></g><g p5:part="2" p5:partial xmlns:p5="http://kanjivg.tagaini.net"><path d="M54.23,65.57C62,65,79.38,63.62,91.64,63.5" /><path d="M54.99,89.65c9.15-0.24,21.39-1.03,34.26-0.93" /></g></g></g></g><g fill="none" stroke="#000" stroke-width="5" stroke-linecap="round" stroke-linejoin="round"><g><g><path d="M28.63,14.92c0.34,1.34,0.27,2.41-0.42,3.8c-3.2,6.4-6.49,12.15-10.88,17.21c-1.21,1.39-1.57,3.19,0.68,4.43c3.09,1.7,4.75,2.39,8.37,4.75" stroke-dasharray="39.33" stroke-dashoffset="39.33"><animate id="0" attributeName="stroke-dashoffset" values="39.33;0" dur="0.39s" fill="freeze" begin="0s;7d2c.click" /></path><path d="M38.3,26.43c0.45,1.32,0.2,2.57-0.5,3.59c-6.17,9.02-13.12,18-20.87,26.05c-2.33,2.42-1.2,3.98,1.92,3.14c6.26-1.7,14.68-4,20.65-5.43" stroke-dasharray="64.93" stroke-dashoffset="64.93"><animate attributeName="stroke-dashoffset" values="64.93" fill="freeze" begin="7d2c.click" /><animate id="1" attributeName="stroke-dashoffset" values="64.93;0" dur="0.49s" fill="freeze" begin="0.end" /></path><path d="M35.88,47.25c2.57,2.29,7.73,8.92,8.38,12.48" stroke-dasharray="15.19" stroke-dashoffset="15.19"><animate attributeName="stroke-dashoffset" values="15.19" fill="freeze" begin="7d2c.click" /><animate id="2" attributeName="stroke-dashoffset" values="15.19;0" dur="0.15s" fill="freeze" begin="1.end" /></path><path d="M28.89,59.62c0.87,0.87,1.23,2.26,1.23,3.84c0,8-0.06,17.86-0.1,24.54C30.01,90.34,30,92.28,30,93.62" stroke-dasharray="34.3" stroke-dashoffset="34.3"><animate attributeName="stroke-dashoffset" values="34.3" fill="freeze" begin="7d2c.click" /><animate id="3" attributeName="stroke-dashoffset" values="34.3;0" dur="0.34s" fill="freeze" begin="2.end" /></path><path d="M19.86,68.6c0.14,0.96-0.14,2.61-0.39,3.3C17.5,77.25,14.5,84,11,88.93" stroke-dasharray="22.42" stroke-dashoffset="22.42"><animate attributeName="stroke-dashoffset" values="22.42" fill="freeze" begin="7d2c.click" /><animate id="4" attributeName="stroke-dashoffset" values="22.42;0" dur="0.22s" fill="freeze" begin="3.end" /></path><path d="M37.68,66.79c3.25,3.95,5.74,13.11,6.49,16.69" stroke-dasharray="18.03" stroke-dashoffset="18.03"><animate attributeName="stroke-dashoffset" values="18.03" fill="freeze" begin="7d2c.click" /><animate id="5" attributeName="stroke-dashoffset" values="18.03;0" dur="0.18s" fill="freeze" begin="4.end" /></path></g><g><g p5:part="1" p5:partial xmlns:p5="http://kanjivg.tagaini.net"><path d="M51.01,44.08c1.21,1.21,1.31,2.44,1.43,4.43c0.52,8.71,0.79,22.29,1.26,37c0.07,2.23,0.15,4.49,0.23,6.76" stroke-dasharray="48.57" stroke-dashoffset="48.57"><animate attributeName="stroke-dashoffset" values="48.57" fill="freeze" begin="7d2c.click" /><animate id="6" attributeName="stroke-dashoffset" values="48.57;0" dur="0.49s" fill="freeze" begin="5.end" /></path><path d="M52.75,45.03c12.64-1.31,26.27-2.26,34.75-2.8c4.78-0.31,6.5,1.28,6.31,6.15c-0.32,7.99-1.23,23.92-2.65,35.49c-0.31,2.52-0.64,4.83-1,6.8" stroke-dasharray="87.96" stroke-dashoffset="87.96"><animate attributeName="stroke-dashoffset" values="87.96" fill="freeze" begin="7d2c.click" /><animate id="7" attributeName="stroke-dashoffset" values="87.96;0" dur="0.66s" fill="freeze" begin="6.end" /></path></g><g><path d="M68.84,15.82c1.21,1.13,1.93,2.77,1.93,4.26c0.04,14.74-0.02,63.94-0.02,67.79" stroke-dasharray="72.59" stroke-dashoffset="72.59"><animate attributeName="stroke-dashoffset" values="72.59" fill="freeze" begin="7d2c.click" /><animate id="8" attributeName="stroke-dashoffset" values="72.59;0" dur="0.55s" fill="freeze" begin="7.end" /></path></g><g p5:part="2" p5:partial xmlns:p5="http://kanjivg.tagaini.net"><path d="M54.23,65.57C62,65,79.38,63.62,91.64,63.5" stroke-dasharray="37.47" stroke-dashoffset="37.47"><animate attributeName="stroke-dashoffset" values="37.47" fill="freeze" begin="7d2c.click" /><animate id="9" attributeName="stroke-dashoffset" values="37.47;0" dur="0.37s" fill="freeze" begin="8.end" /></path><path d="M54.99,89.65c9.15-0.24,21.39-1.03,34.26-0.93" stroke-dasharray="34.28" stroke-dashoffset="34.28"><animate attributeName="stroke-dashoffset" values="34.28" fill="freeze" begin="7d2c.click" /><animate id="10" attributeName="stroke-dashoffset" values="34.28;0" dur="0.34s" fill="freeze" begin="9.end" /></path></g></g></g></g></svg>