<svg xmlns="http://www.w3.org/2000/svg" width="109" height="109" viewBox="0 0 109 109" id="7d39"><g fill="none" stroke="#666" stroke-width="9" stroke-linecap="round" stroke-linejoin="round"><g><g><path d="M30.38,13.42c0.34,1.34,0.26,2.4-0.42,3.8c-2.33,4.78-5.08,9.15-9.55,15.22c-0.56,0.77-0.68,3.1,0,3.35c3.6,1.34,6.63,3.61,9.72,6.06" /><path d="M41.3,25.43c0.45,1.07,0.45,2.32-0.25,3.34c-6.14,8.96-13.36,18.59-20.99,26.66c-2.73,2.89-1.02,4.08,2.29,3.14c5.42-1.54,14.62-3.4,20.41-4.79" /><path d="M39.38,47.13c2.34,2.36,6.04,9.69,6.62,13.35" /><path d="M30.9,59.41c1,1,1.23,2.26,1.23,4.09c0,9.64,0.02,18.95,0.03,25c0.01,2.46,0.01,4.53,0.01,6.17" /><path d="M22.6,69.1c0.16,0.94-0.12,2.54-0.41,3.22c-1.87,4.39-6.55,12.85-9.2,16.62" /><path d="M40.05,68.04c2.68,3.83,4.74,12.72,5.37,16.19" /></g><g p4:phon="召" xmlns:p4="http://kanjivg.tagaini.net"><g><path d="M52.79,22.42c1.99,1.01,4.85,0.82,6.96,0.6c10.22-1.04,18.97-2.91,25.52-3.58c5.28-0.54,7.41,0.08,6.73,5.55c-0.88,7-2.12,14.25-6.69,23.74c-3.99,8.31-6.96,1.51-7.95,0.53" /><path d="M69.98,24.89c0.05,0.68-0.04,1.76-0.36,2.73C66.75,36.38,62.5,45,51.42,55.1" /></g><g><path d="M54.64,63.17c0.84,0.84,1.57,1.97,1.75,3.42c0.74,5.91,1.53,12.8,2.46,21.42c0.19,1.75,0.26,3.44,0.38,4.99" /><path d="M57.12,64.97c11.05-1.45,19.43-2.36,28.34-2.94c2.95-0.19,5.48,0.57,4.53,5.27c-1.37,6.82-2.24,10.82-4.35,20.19" /><path d="M60.21,90.62c9.04-1,13.01-1.42,22.54-2c1.54-0.09,3.18-0.17,4.94-0.24" /></g></g></g></g><g fill="none" stroke="#000" stroke-width="5" stroke-linecap="round" stroke-linejoin="round"><path d="M30.38,13.42c0.34,1.34,0.26,2.4-0.42,3.8c-2.33,4.78-5.08,9.15-9.55,15.22c-0.56,0.77-0.68,3.1,0,3.35c3.6,1.34,6.63,3.61,9.72,6.06" stroke-dasharray="36.995" stroke-dashoffset="36.995"><animate attributeName="stroke-dashoffset" values="36.995;36.995;0" dur="0.37s" fill="freeze" begin="0s;7d39.click" /></path><path d="M41.3,25.43c0.45,1.07,0.45,2.32-0.25,3.34c-6.14,8.96-13.36,18.59-20.99,26.66c-2.73,2.89-1.02,4.08,2.29,3.14c5.42-1.54,14.62-3.4,20.41-4.79" stroke-dasharray="65.461" stroke-dashoffset="65.461"><animate attributeName="stroke-dashoffset" values="65.461" fill="freeze" begin="7d39.click" /><animate attributeName="stroke-dashoffset" values="65.461;65.461;0" keyTimes="0;0.429;1" dur="0.862s" fill="freeze" begin="0s;7d39.click" /></path><path d="M39.38,47.13c2.34,2.36,6.04,9.69,6.62,13.35" stroke-dasharray="15.038" stroke-dashoffset="15.038"><animate attributeName="stroke-dashoffset" values="15.038" fill="freeze" begin="7d39.click" /><animate attributeName="stroke-dashoffset" values="15.038;15.038;0" keyTimes="0;0.852;1" dur="1.012s" fill="freeze" begin="0s;7d39.click" /></path><path d="M30.9,59.41c1,1,1.23,2.26,1.23,4.09c0,9.64,0.02,18.95,0.03,25c0.01,2.46,0.01,4.53,0.01,6.17" stroke-dasharray="35.567" stroke-dashoffset="35.567"><animate attributeName="stroke-dashoffset" values="35.567" fill="freeze" begin="7d39.click" /><animate attributeName="stroke-dashoffset" values="35.567;35.567;0" keyTimes="0;0.74;1" dur="1.368s" fill="freeze" begin="0s;7d39.click" /></path><path d="M22.6,69.1c0.16,0.94-0.12,2.54-0.41,3.22c-1.87,4.39-6.55,12.85-9.2,16.62" stroke-dasharray="22.295" stroke-dashoffset="22.295"><animate attributeName="stroke-dashoffset" values="22.295" fill="freeze" begin="7d39.click" /><animate attributeName="stroke-dashoffset" values="22.295;22.295;0" keyTimes="0;0.86;1" dur="1.591s" fill="freeze" begin="0s;7d39.click" /></path><path d="M40.05,68.04c2.68,3.83,4.74,12.72,5.37,16.19" stroke-dasharray="17.15" stroke-dashoffset="17.15"><animate attributeName="stroke-dashoffset" values="17.15" fill="freeze" begin="7d39.click" /><animate attributeName="stroke-dashoffset" values="17.15;17.15;0" keyTimes="0;0.903;1" dur="1.762s" fill="freeze" begin="0s;7d39.click" /></path><path d="M52.79,22.42c1.99,1.01,4.85,0.82,6.96,0.6c10.22-1.04,18.97-2.91,25.52-3.58c5.28-0.54,7.41,0.08,6.73,5.55c-0.88,7-2.12,14.25-6.69,23.74c-3.99,8.31-6.96,1.51-7.95,0.53" stroke-dasharray="80.265" stroke-dashoffset="80.265"><animate attributeName="stroke-dashoffset" values="80.265" fill="freeze" begin="7d39.click" /><animate attributeName="stroke-dashoffset" values="80.265;80.265;0" keyTimes="0;0.745;1" dur="2.365s" fill="freeze" begin="0s;7d39.click" /></path><path d="M69.98,24.89c0.05,0.68-0.04,1.76-0.36,2.73C66.75,36.38,62.5,45,51.42,55.1" stroke-dasharray="36.149" stroke-dashoffset="36.149"><animate attributeName="stroke-dashoffset" values="36.149" fill="freeze" begin="7d39.click" /><animate attributeName="stroke-dashoffset" values="36.149;36.149;0" keyTimes="0;0.868;1" dur="2.726s" fill="freeze" begin="0s;7d39.click" /></path><path d="M54.64,63.17c0.84,0.84,1.57,1.97,1.75,3.42c0.74,5.91,1.53,12.8,2.46,21.42c0.19,1.75,0.26,3.44,0.38,4.99" stroke-dasharray="30.482" stroke-dashoffset="30.482"><animate attributeName="stroke-dashoffset" values="30.482" fill="freeze" begin="7d39.click" /><animate attributeName="stroke-dashoffset" values="30.482;30.482;0" keyTimes="0;0.899;1" dur="3.031s" fill="freeze" begin="0s;7d39.click" /></path><path d="M57.12,64.97c11.05-1.45,19.43-2.36,28.34-2.94c2.95-0.19,5.48,0.57,4.53,5.27c-1.37,6.82-2.24,10.82-4.35,20.19" stroke-dasharray="57.82" stroke-dashoffset="57.82"><animate attributeName="stroke-dashoffset" values="57.82" fill="freeze" begin="7d39.click" /><animate attributeName="stroke-dashoffset" values="57.82;57.82;0" keyTimes="0;0.84;1" dur="3.609s" fill="freeze" begin="0s;7d39.click" /></path><path d="M60.21,90.62c9.04-1,13.01-1.42,22.54-2c1.54-0.09,3.18-0.17,4.94-0.24" stroke-dasharray="27.579" stroke-dashoffset="27.579"><animate attributeName="stroke-dashoffset" values="27.579" fill="freeze" begin="7d39.click" /><animate attributeName="stroke-dashoffset" values="27.579;27.579;0" keyTimes="0;0.929;1" dur="3.885s" fill="freeze" begin="0s;7d39.click" /></path></g></svg>