<svg xmlns="http://www.w3.org/2000/svg" width="109" height="109" viewBox="0 0 109 109" id="7d39"><g fill="none" stroke="#666" stroke-width="9" stroke-linecap="round" stroke-linejoin="round"><g><g><path d="M30.38,13.42c0.34,1.34,0.26,2.4-0.42,3.8c-2.33,4.78-5.08,9.15-9.55,15.22c-0.56,0.77-0.68,3.1,0,3.35c3.6,1.34,6.63,3.61,9.72,6.06" /><path d="M41.3,25.43c0.45,1.07,0.45,2.32-0.25,3.34c-6.14,8.96-13.36,18.59-20.99,26.66c-2.73,2.89-1.02,4.08,2.29,3.14c5.42-1.54,14.62-3.4,20.41-4.79" /><path d="M39.38,47.13c2.34,2.36,6.04,9.69,6.62,13.35" /><path d="M30.9,59.41c1,1,1.23,2.26,1.23,4.09c0,9.64,0.02,18.95,0.03,25c0.01,2.46,0.01,4.53,0.01,6.17" /><path d="M22.6,69.1c0.16,0.94-0.12,2.54-0.41,3.22c-1.87,4.39-6.55,12.85-9.2,16.62" /><path d="M40.05,68.04c2.68,3.83,4.74,12.72,5.37,16.19" /></g><g p4:phon="召" xmlns:p4="http://kanjivg.tagaini.net"><g><path d="M52.79,22.42c1.99,1.01,4.85,0.82,6.96,0.6c10.22-1.04,18.97-2.91,25.52-3.58c5.28-0.54,7.41,0.08,6.73,5.55c-0.88,7-2.12,14.25-6.69,23.74c-3.99,8.31-6.96,1.51-7.95,0.53" /><path d="M69.98,24.89c0.05,0.68-0.04,1.76-0.36,2.73C66.75,36.38,62.5,45,51.42,55.1" /></g><g><path d="M54.64,63.17c0.84,0.84,1.57,1.97,1.75,3.42c0.74,5.91,1.53,12.8,2.46,21.42c0.19,1.75,0.26,3.44,0.38,4.99" /><path d="M57.12,64.97c11.05-1.45,19.43-2.36,28.34-2.94c2.95-0.19,5.48,0.57,4.53,5.27c-1.37,6.82-2.24,10.82-4.35,20.19" /><path d="M60.21,90.62c9.04-1,13.01-1.42,22.54-2c1.54-0.09,3.18-0.17,4.94-0.24" /></g></g></g></g><g fill="none" stroke="#000" stroke-width="5" stroke-linecap="round" stroke-linejoin="round"><g><g><path d="M30.38,13.42c0.34,1.34,0.26,2.4-0.42,3.8c-2.33,4.78-5.08,9.15-9.55,15.22c-0.56,0.77-0.68,3.1,0,3.35c3.6,1.34,6.63,3.61,9.72,6.06" stroke-dasharray="36.99" stroke-dashoffset="36.99"><animate id="0" attributeName="stroke-dashoffset" values="36.99;0" dur="0.37s" fill="freeze" begin="0s;7d39.click" /></path><path d="M41.3,25.43c0.45,1.07,0.45,2.32-0.25,3.34c-6.14,8.96-13.36,18.59-20.99,26.66c-2.73,2.89-1.02,4.08,2.29,3.14c5.42-1.54,14.62-3.4,20.41-4.79" stroke-dasharray="65.46" stroke-dashoffset="65.46"><animate attributeName="stroke-dashoffset" values="65.46" fill="freeze" begin="7d39.click" /><animate id="1" attributeName="stroke-dashoffset" values="65.46;0" dur="0.49s" fill="freeze" begin="0.end" /></path><path d="M39.38,47.13c2.34,2.36,6.04,9.69,6.62,13.35" stroke-dasharray="15.04" stroke-dashoffset="15.04"><animate attributeName="stroke-dashoffset" values="15.04" fill="freeze" begin="7d39.click" /><animate id="2" attributeName="stroke-dashoffset" values="15.04;0" dur="0.15s" fill="freeze" begin="1.end" /></path><path d="M30.9,59.41c1,1,1.23,2.26,1.23,4.09c0,9.64,0.02,18.95,0.03,25c0.01,2.46,0.01,4.53,0.01,6.17" stroke-dasharray="35.57" stroke-dashoffset="35.57"><animate attributeName="stroke-dashoffset" values="35.57" fill="freeze" begin="7d39.click" /><animate id="3" attributeName="stroke-dashoffset" values="35.57;0" dur="0.36s" fill="freeze" begin="2.end" /></path><path d="M22.6,69.1c0.16,0.94-0.12,2.54-0.41,3.22c-1.87,4.39-6.55,12.85-9.2,16.62" stroke-dasharray="22.29" stroke-dashoffset="22.29"><animate attributeName="stroke-dashoffset" values="22.29" fill="freeze" begin="7d39.click" /><animate id="4" attributeName="stroke-dashoffset" values="22.29;0" dur="0.22s" fill="freeze" begin="3.end" /></path><path d="M40.05,68.04c2.68,3.83,4.74,12.72,5.37,16.19" stroke-dasharray="17.15" stroke-dashoffset="17.15"><animate attributeName="stroke-dashoffset" values="17.15" fill="freeze" begin="7d39.click" /><animate id="5" attributeName="stroke-dashoffset" values="17.15;0" dur="0.17s" fill="freeze" begin="4.end" /></path></g><g p4:phon="召" xmlns:p4="http://kanjivg.tagaini.net"><g><path d="M52.79,22.42c1.99,1.01,4.85,0.82,6.96,0.6c10.22-1.04,18.97-2.91,25.52-3.58c5.28-0.54,7.41,0.08,6.73,5.55c-0.88,7-2.12,14.25-6.69,23.74c-3.99,8.31-6.96,1.51-7.95,0.53" stroke-dasharray="80.26" stroke-dashoffset="80.26"><animate attributeName="stroke-dashoffset" values="80.26" fill="freeze" begin="7d39.click" /><animate id="6" attributeName="stroke-dashoffset" values="80.26;0" dur="0.6s" fill="freeze" begin="5.end" /></path><path d="M69.98,24.89c0.05,0.68-0.04,1.76-0.36,2.73C66.75,36.38,62.5,45,51.42,55.1" stroke-dasharray="36.15" stroke-dashoffset="36.15"><animate attributeName="stroke-dashoffset" values="36.15" fill="freeze" begin="7d39.click" /><animate id="7" attributeName="stroke-dashoffset" values="36.15;0" dur="0.36s" fill="freeze" begin="6.end" /></path></g><g><path d="M54.64,63.17c0.84,0.84,1.57,1.97,1.75,3.42c0.74,5.91,1.53,12.8,2.46,21.42c0.19,1.75,0.26,3.44,0.38,4.99" stroke-dasharray="30.48" stroke-dashoffset="30.48"><animate attributeName="stroke-dashoffset" values="30.48" fill="freeze" begin="7d39.click" /><animate id="8" attributeName="stroke-dashoffset" values="30.48;0" dur="0.3s" fill="freeze" begin="7.end" /></path><path d="M57.12,64.97c11.05-1.45,19.43-2.36,28.34-2.94c2.95-0.19,5.48,0.57,4.53,5.27c-1.37,6.82-2.24,10.82-4.35,20.19" stroke-dasharray="57.82" stroke-dashoffset="57.82"><animate attributeName="stroke-dashoffset" values="57.82" fill="freeze" begin="7d39.click" /><animate id="9" attributeName="stroke-dashoffset" values="57.82;0" dur="0.58s" fill="freeze" begin="8.end" /></path><path d="M60.21,90.62c9.04-1,13.01-1.42,22.54-2c1.54-0.09,3.18-0.17,4.94-0.24" stroke-dasharray="27.58" stroke-dashoffset="27.58"><animate attributeName="stroke-dashoffset" values="27.58" fill="freeze" begin="7d39.click" /><animate id="10" attributeName="stroke-dashoffset" values="27.58;0" dur="0.28s" fill="freeze" begin="9.end" /></path></g></g></g></g></svg>