<svg xmlns="http://www.w3.org/2000/svg" width="109" height="109" viewBox="0 0 109 109" id="7d4e"><g fill="none" stroke="#666" stroke-width="9" stroke-linecap="round" stroke-linejoin="round"><g><g><path d="M26.4,12.92c0.36,1.42,0.38,2.47-0.18,4.01c-2.46,6.81-7.46,12.56-12.28,18.01c-0.67,0.75-0.72,3.27,0,3.54c3.81,1.42,7.64,3.28,10.91,5.88" /><path d="M36.86,24.18c0.29,0.58,0.36,2.46,0,3.09C31.28,37,21.48,49.94,13.8,58.21c-1.76,1.89,0.44,2.98,1.58,2.59c4.8-1.61,16.21-4.49,22.39-6.03" /><path d="M32.5,47.25c2.91,2.34,7.52,9.61,8.25,13.25" /><path d="M26.14,60.87c0.07,0.36,0.91,1.85,0.98,4.09c0.31,10.79-0.2,29.79-0.2,33.46" /><path d="M17.85,71.1c0.16,0.94,0.13,2.79-0.16,3.47c-1.87,4.39-6.55,12.85-9.2,16.62" /><path d="M34.93,70.04c3.5,3.47,6.18,11.54,6.99,14.69" /></g><g><g><path d="M57.39,16.25c0.04,0.52,0.2,1.46-0.08,2.1c-2,4.54-7.25,12.43-14.57,20.1" /><g><path d="M60.43,35.52c0.05,0.64,0.17,1.73-0.09,2.55c-2.06,6.58-8.19,15.5-16.59,24.42" /><path d="M52.76,56.12c0.23,0.25,0.81,2.17,0.86,2.68c0.05,0.51,0,34.55-0.05,37.7" /></g></g><g><path d="M67.59,26.09c0.66,0.31,3.48,0.85,4.14,0.74c5.11-0.86,17.29-3.1,20.33-2.97c1.1,0.05,1.76,0.15,2.31,0.3" /><path d="M64.59,46.77c0.78,0.28,2.21,0.34,3,0.28c10.02-0.76,19.6-2.68,30.3-2.56c1.3,0.01,2.08,0.13,2.74,0.27" /><path d="M82.69,47.66c0.06,0.47,0.83,2.46,0.89,5.46c0.29,14.41-0.18,36.27-0.18,41.17c0,7.95-6.11-0.99-7.18-2.23" /></g></g></g></g><g fill="none" stroke="#000" stroke-width="5" stroke-linecap="round" stroke-linejoin="round"><g><g><path d="M26.4,12.92c0.36,1.42,0.38,2.47-0.18,4.01c-2.46,6.81-7.46,12.56-12.28,18.01c-0.67,0.75-0.72,3.27,0,3.54c3.81,1.42,7.64,3.28,10.91,5.88" stroke-dasharray="42.27" stroke-dashoffset="42.27"><animate id="0" attributeName="stroke-dashoffset" values="42.27;0" dur="0.42s" fill="freeze" begin="0s;7d4e.click" /></path><path d="M36.86,24.18c0.29,0.58,0.36,2.46,0,3.09C31.28,37,21.48,49.94,13.8,58.21c-1.76,1.89,0.44,2.98,1.58,2.59c4.8-1.61,16.21-4.49,22.39-6.03" stroke-dasharray="69.45" stroke-dashoffset="69.45"><animate attributeName="stroke-dashoffset" values="69.45" fill="freeze" begin="7d4e.click" /><animate id="1" attributeName="stroke-dashoffset" values="69.45;0" dur="0.52s" fill="freeze" begin="0.end" /></path><path d="M32.5,47.25c2.91,2.34,7.52,9.61,8.25,13.25" stroke-dasharray="15.79" stroke-dashoffset="15.79"><animate attributeName="stroke-dashoffset" values="15.79" fill="freeze" begin="7d4e.click" /><animate id="2" attributeName="stroke-dashoffset" values="15.79;0" dur="0.16s" fill="freeze" begin="1.end" /></path><path d="M26.14,60.87c0.07,0.36,0.91,1.85,0.98,4.09c0.31,10.79-0.2,29.79-0.2,33.46" stroke-dasharray="37.69" stroke-dashoffset="37.69"><animate attributeName="stroke-dashoffset" values="37.69" fill="freeze" begin="7d4e.click" /><animate id="3" attributeName="stroke-dashoffset" values="37.69;0" dur="0.38s" fill="freeze" begin="2.end" /></path><path d="M17.85,71.1c0.16,0.94,0.13,2.79-0.16,3.47c-1.87,4.39-6.55,12.85-9.2,16.62" stroke-dasharray="22.52" stroke-dashoffset="22.52"><animate attributeName="stroke-dashoffset" values="22.52" fill="freeze" begin="7d4e.click" /><animate id="4" attributeName="stroke-dashoffset" values="22.52;0" dur="0.23s" fill="freeze" begin="3.end" /></path><path d="M34.93,70.04c3.5,3.47,6.18,11.54,6.99,14.69" stroke-dasharray="16.41" stroke-dashoffset="16.41"><animate attributeName="stroke-dashoffset" values="16.41" fill="freeze" begin="7d4e.click" /><animate id="5" attributeName="stroke-dashoffset" values="16.41;0" dur="0.16s" fill="freeze" begin="4.end" /></path></g><g><g><path d="M57.39,16.25c0.04,0.52,0.2,1.46-0.08,2.1c-2,4.54-7.25,12.43-14.57,20.1" stroke-dasharray="27.05" stroke-dashoffset="27.05"><animate attributeName="stroke-dashoffset" values="27.05" fill="freeze" begin="7d4e.click" /><animate id="6" attributeName="stroke-dashoffset" values="27.05;0" dur="0.27s" fill="freeze" begin="5.end" /></path><g><path d="M60.43,35.52c0.05,0.64,0.17,1.73-0.09,2.55c-2.06,6.58-8.19,15.5-16.59,24.42" stroke-dasharray="32.3" stroke-dashoffset="32.3"><animate attributeName="stroke-dashoffset" values="32.3" fill="freeze" begin="7d4e.click" /><animate id="7" attributeName="stroke-dashoffset" values="32.3;0" dur="0.32s" fill="freeze" begin="6.end" /></path><path d="M52.76,56.12c0.23,0.25,0.81,2.17,0.86,2.68c0.05,0.51,0,34.55-0.05,37.7" stroke-dasharray="40.53" stroke-dashoffset="40.53"><animate attributeName="stroke-dashoffset" values="40.53" fill="freeze" begin="7d4e.click" /><animate id="8" attributeName="stroke-dashoffset" values="40.53;0" dur="0.41s" fill="freeze" begin="7.end" /></path></g></g><g><path d="M67.59,26.09c0.66,0.31,3.48,0.85,4.14,0.74c5.11-0.86,17.29-3.1,20.33-2.97c1.1,0.05,1.76,0.15,2.31,0.3" stroke-dasharray="27.12" stroke-dashoffset="27.12"><animate attributeName="stroke-dashoffset" values="27.12" fill="freeze" begin="7d4e.click" /><animate id="9" attributeName="stroke-dashoffset" values="27.12;0" dur="0.27s" fill="freeze" begin="8.end" /></path><path d="M64.59,46.77c0.78,0.28,2.21,0.34,3,0.28c10.02-0.76,19.6-2.68,30.3-2.56c1.3,0.01,2.08,0.13,2.74,0.27" stroke-dasharray="36.21" stroke-dashoffset="36.21"><animate attributeName="stroke-dashoffset" values="36.21" fill="freeze" begin="7d4e.click" /><animate id="10" attributeName="stroke-dashoffset" values="36.21;0" dur="0.36s" fill="freeze" begin="9.end" /></path><path d="M82.69,47.66c0.06,0.47,0.83,2.46,0.89,5.46c0.29,14.41-0.18,36.27-0.18,41.17c0,7.95-6.11-0.99-7.18-2.23" stroke-dasharray="58.75" stroke-dashoffset="58.75"><animate attributeName="stroke-dashoffset" values="58.75" fill="freeze" begin="7d4e.click" /><animate id="11" attributeName="stroke-dashoffset" values="58.75;0" dur="0.59s" fill="freeze" begin="10.end" /></path></g></g></g></g></svg>