<svg xmlns="http://www.w3.org/2000/svg" width="109" height="109" viewBox="0 0 109 109" id="7d93"><g fill="none" stroke="#666" stroke-width="9" stroke-linecap="round" stroke-linejoin="round"><g><g><path d="M26.4,14.25c0.31,1.21,0.47,2.18-0.16,3.44c-2.99,6.06-8.71,15.46-11.82,18.29c-0.64,0.58-0.62,2.81,0,3.04c3.26,1.21,8.34,2.74,11.14,4.97" /><path d="M36.03,25.19c0.29,0.66,0.38,2.82,0,3.52C30.5,39.05,22.75,48.93,15.15,58.36c-1.74,2.16,0.43,3.4,1.57,2.96c4.75-1.84,13.62-4.32,19.73-6.08" /><path d="M31.5,49c2.82,1.99,7.29,8.16,8,11.25" /><path d="M26.01,60.26c0.08,0.29,1.05,1.48,1.12,3.28c0.36,8.64-0.23,31.27-0.23,34.21" /><path d="M17.25,72.5c0.12,0.9,0.1,2.68-0.13,3.32c-1.5,4.21-5.25,12.32-7.37,15.93" /><path d="M34.25,70c3.38,3.07,5.97,10.21,6.75,13" /></g><g><g><path d="M46.75,20.47c1.6,0.17,3.18,0.4,4.38,0.34c8.74-0.4,23.5-2.84,35.91-2.86c2,0,3.2,0.16,4.21,0.33" /></g><g><path d="M55.03,30.57c0.25,0.92,0.32,1.54-0.01,2.3c-1.98,4.51-3.68,7.75-7.57,12.56c-0.75,0.93-0.35,0.91,0,1.2c4.03,3.28,6.94,7.72,9.8,13.37" /><path d="M71.16,29.62c0.43,0.83,0.38,2.44-0.01,3.12c-2.12,3.66-3.33,7.1-7.32,11.38c-0.43,0.47-0.24,0.97,0.15,1.24c4.76,3.3,7.02,7.03,9.48,13.49" /><path d="M86.72,29.77c0.4,0.64,0.33,1.85-0.02,2.5c-1.82,3.42-3.39,6.06-6.85,10.28c-0.38,0.46-0.19,0.87,0.14,1.16c4.43,3.85,7.94,7.7,10.25,13.79" /></g><g><path d="M49.56,69.48c0.76,0.31,3.25,0.35,4.02,0.31c6.22-0.3,30.15-2.37,36.18-2.69c1.17-0.06,2.25,0.06,3.22,0.32" /><path d="M68.86,68.81c1.65,1.35,1.65,2.17,1.65,3.25c0,7.58-0.05,5.78-0.05,18.77" /><path d="M43.25,92.73c0.76,0.16,3.48,0.33,4.76,0.25c13.88-0.78,33.01-2.36,45.64-2.6c2.07-0.04,4.56,0.27,5.59,0.52" /></g></g></g></g><g fill="none" stroke="#000" stroke-width="5" stroke-linecap="round" stroke-linejoin="round"><path d="M26.4,14.25c0.31,1.21,0.47,2.18-0.16,3.44c-2.99,6.06-8.71,15.46-11.82,18.29c-0.64,0.58-0.62,2.81,0,3.04c3.26,1.21,8.34,2.74,11.14,4.97" stroke-dasharray="40.925" stroke-dashoffset="40.925"><animate attributeName="stroke-dashoffset" values="40.925;40.925;0" dur="0.409s" fill="freeze" begin="0s;7d93.click" /></path><path d="M36.03,25.19c0.29,0.66,0.38,2.82,0,3.52C30.5,39.05,22.75,48.93,15.15,58.36c-1.74,2.16,0.43,3.4,1.57,2.96c4.75-1.84,13.62-4.32,19.73-6.08" stroke-dasharray="65.3" stroke-dashoffset="65.3"><animate attributeName="stroke-dashoffset" values="65.3" fill="freeze" begin="7d93.click" /><animate attributeName="stroke-dashoffset" values="65.3;65.3;0" keyTimes="0;0.454;1" dur="0.9s" fill="freeze" begin="0s;7d93.click" /></path><path d="M31.5,49c2.82,1.99,7.29,8.16,8,11.25" stroke-dasharray="13.98" stroke-dashoffset="13.98"><animate attributeName="stroke-dashoffset" values="13.98" fill="freeze" begin="7d93.click" /><animate attributeName="stroke-dashoffset" values="13.98;13.98;0" keyTimes="0;0.865;1" dur="1.04s" fill="freeze" begin="0s;7d93.click" /></path><path d="M26.01,60.26c0.08,0.29,1.05,1.48,1.12,3.28c0.36,8.64-0.23,31.27-0.23,34.21" stroke-dasharray="37.719" stroke-dashoffset="37.719"><animate attributeName="stroke-dashoffset" values="37.719" fill="freeze" begin="7d93.click" /><animate attributeName="stroke-dashoffset" values="37.719;37.719;0" keyTimes="0;0.734;1" dur="1.417s" fill="freeze" begin="0s;7d93.click" /></path><path d="M17.25,72.5c0.12,0.9,0.1,2.68-0.13,3.32c-1.5,4.21-5.25,12.32-7.37,15.93" stroke-dasharray="20.909" stroke-dashoffset="20.909"><animate attributeName="stroke-dashoffset" values="20.909" fill="freeze" begin="7d93.click" /><animate attributeName="stroke-dashoffset" values="20.909;20.909;0" keyTimes="0;0.871;1" dur="1.626s" fill="freeze" begin="0s;7d93.click" /></path><path d="M34.25,70c3.38,3.07,5.97,10.21,6.75,13" stroke-dasharray="14.795" stroke-dashoffset="14.795"><animate attributeName="stroke-dashoffset" values="14.795" fill="freeze" begin="7d93.click" /><animate attributeName="stroke-dashoffset" values="14.795;14.795;0" keyTimes="0;0.917;1" dur="1.774s" fill="freeze" begin="0s;7d93.click" /></path><path d="M46.75,20.47c1.6,0.17,3.18,0.4,4.38,0.34c8.74-0.4,23.5-2.84,35.91-2.86c2,0,3.2,0.16,4.21,0.33" stroke-dasharray="44.665" stroke-dashoffset="44.665"><animate attributeName="stroke-dashoffset" values="44.665" fill="freeze" begin="7d93.click" /><animate attributeName="stroke-dashoffset" values="44.665;44.665;0" keyTimes="0;0.799;1" dur="2.221s" fill="freeze" begin="0s;7d93.click" /></path><path d="M55.03,30.57c0.25,0.92,0.32,1.54-0.01,2.3c-1.98,4.51-3.68,7.75-7.57,12.56c-0.75,0.93-0.35,0.91,0,1.2c4.03,3.28,6.94,7.72,9.8,13.37" stroke-dasharray="35.296" stroke-dashoffset="35.296"><animate attributeName="stroke-dashoffset" values="35.296" fill="freeze" begin="7d93.click" /><animate attributeName="stroke-dashoffset" values="35.296;35.296;0" keyTimes="0;0.863;1" dur="2.574s" fill="freeze" begin="0s;7d93.click" /></path><path d="M71.16,29.62c0.43,0.83,0.38,2.44-0.01,3.12c-2.12,3.66-3.33,7.1-7.32,11.38c-0.43,0.47-0.24,0.97,0.15,1.24c4.76,3.3,7.02,7.03,9.48,13.49" stroke-dasharray="35.022" stroke-dashoffset="35.022"><animate attributeName="stroke-dashoffset" values="35.022" fill="freeze" begin="7d93.click" /><animate attributeName="stroke-dashoffset" values="35.022;35.022;0" keyTimes="0;0.88;1" dur="2.924s" fill="freeze" begin="0s;7d93.click" /></path><path d="M86.72,29.77c0.4,0.64,0.33,1.85-0.02,2.5c-1.82,3.42-3.39,6.06-6.85,10.28c-0.38,0.46-0.19,0.87,0.14,1.16c4.43,3.85,7.94,7.7,10.25,13.79" stroke-dasharray="33.674" stroke-dashoffset="33.674"><animate attributeName="stroke-dashoffset" values="33.674" fill="freeze" begin="7d93.click" /><animate attributeName="stroke-dashoffset" values="33.674;33.674;0" keyTimes="0;0.897;1" dur="3.261s" fill="freeze" begin="0s;7d93.click" /></path><path d="M49.56,69.48c0.76,0.31,3.25,0.35,4.02,0.31c6.22-0.3,30.15-2.37,36.18-2.69c1.17-0.06,2.25,0.06,3.22,0.32" stroke-dasharray="43.578" stroke-dashoffset="43.578"><animate attributeName="stroke-dashoffset" values="43.578" fill="freeze" begin="7d93.click" /><animate attributeName="stroke-dashoffset" values="43.578;43.578;0" keyTimes="0;0.882;1" dur="3.697s" fill="freeze" begin="0s;7d93.click" /></path><path d="M68.86,68.81c1.65,1.35,1.65,2.17,1.65,3.25c0,7.58-0.05,5.78-0.05,18.77" stroke-dasharray="22.593" stroke-dashoffset="22.593"><animate attributeName="stroke-dashoffset" values="22.593" fill="freeze" begin="7d93.click" /><animate attributeName="stroke-dashoffset" values="22.593;22.593;0" keyTimes="0;0.942;1" dur="3.923s" fill="freeze" begin="0s;7d93.click" /></path><path d="M43.25,92.73c0.76,0.16,3.48,0.33,4.76,0.25c13.88-0.78,33.01-2.36,45.64-2.6c2.07-0.04,4.56,0.27,5.59,0.52" stroke-dasharray="56.117" stroke-dashoffset="56.117"><animate attributeName="stroke-dashoffset" values="56.117" fill="freeze" begin="7d93.click" /><animate attributeName="stroke-dashoffset" values="56.117;56.117;0" keyTimes="0;0.875;1" dur="4.484s" fill="freeze" begin="0s;7d93.click" /></path></g></svg>