<svg xmlns="http://www.w3.org/2000/svg" width="109" height="109" viewBox="0 0 109 109" id="7da2"><g fill="none" stroke="#666" stroke-width="9" stroke-linecap="round" stroke-linejoin="round"><g><g><path d="M27.65,12.67c0.36,1.42,0.38,2.47-0.18,4.01C25,23.5,21,28.25,16.18,33.69c-0.67,0.75-0.72,3.27,0,3.54c3.81,1.42,7.64,2.78,10.91,5.38" /><path d="M38.55,23.93c0.3,0.58,0.37,2.46,0,3.09c-5.8,9.73-15.49,21.18-23.48,29.44c-1.83,1.89,0.46,2.98,1.65,2.59c5-1.61,16.87-4.49,23.29-6.03" /><path d="M35.38,44.38c2.78,2.71,7.18,11.14,7.87,15.35" /><path d="M28.89,58.62c0.07,0.34,0.91,1.75,0.98,3.87c0.31,10.2-0.2,31.21-0.2,34.69" /><path d="M18.6,68.35c0.17,0.93,0.08,2.73-0.17,3.42c-1.68,4.73-5.68,11.98-9.93,16.41" /><path d="M36.68,67.04c3,3.53,5.3,11.74,5.99,14.94" /></g><g><g><path d="M50.58,17.07c0.45,1.23,1.06,3.16,1.06,5.4c0,3.45,0.01,6.66,0.01,22.95c0,18.22-0.33,41.72-8.64,49.83" /><path d="M51.49,19.46c5.92-0.94,37.99-3.71,39.18-3.71c2.2,0,3.43,2.25,3.43,4.48c0,2.36,0.16,64.27,0.16,69.69c0,8.48-3.12,7.08-8.09,1.34" /></g><g><g><path d="M58.98,34.47c0.94,0.37,2.66,0.26,3.6,0.22c5.08-0.19,16.12-2.27,19.88-2.44c1.57-0.07,2.51,0.06,3.29,0.23" /><path d="M57.56,47.65c0.98,0.19,2.78,0.19,3.76,0.1c5.36-0.5,16.26-2.25,22.66-2.4c1.63-0.04,2.61,0.02,3.43,0.1" /><path d="M71.26,23.39c0.61,0.33,0.97,1.61,1.09,2.34c0.12,0.74,0.01,25.14-0.11,29.8" /></g><g><path d="M59.92,60.93c0.2,0.36,0.4,0.66,0.49,1.11c0.69,3.55,2.02,12.34,2.49,18.72" /><path d="M60.7,62.69c5.79-1.19,17.92-2.34,20.9-2.52c1.09-0.06,2.66,1.88,2.47,2.86c-0.81,4.07-2.03,8.54-3.65,14.36" /><path d="M63.59,78.91c6.66-0.16,14.9-1.3,18.83-1.41" /></g></g></g></g></g><g fill="none" stroke="#000" stroke-width="5" stroke-linecap="round" stroke-linejoin="round"><g><g><path d="M27.65,12.67c0.36,1.42,0.38,2.47-0.18,4.01C25,23.5,21,28.25,16.18,33.69c-0.67,0.75-0.72,3.27,0,3.54c3.81,1.42,7.64,2.78,10.91,5.38" stroke-dasharray="40.67" stroke-dashoffset="40.67"><animate id="0" attributeName="stroke-dashoffset" values="40.67;0" dur="0.41s" fill="freeze" begin="0s;7da2.click" /></path><path d="M38.55,23.93c0.3,0.58,0.37,2.46,0,3.09c-5.8,9.73-15.49,21.18-23.48,29.44c-1.83,1.89,0.46,2.98,1.65,2.59c5-1.61,16.87-4.49,23.29-6.03" stroke-dasharray="69.5" stroke-dashoffset="69.5"><animate attributeName="stroke-dashoffset" values="69.5" fill="freeze" begin="7da2.click" /><animate id="1" attributeName="stroke-dashoffset" values="69.5;0" dur="0.52s" fill="freeze" begin="0.end" /></path><path d="M35.38,44.38c2.78,2.71,7.18,11.14,7.87,15.35" stroke-dasharray="17.41" stroke-dashoffset="17.41"><animate attributeName="stroke-dashoffset" values="17.41" fill="freeze" begin="7da2.click" /><animate id="2" attributeName="stroke-dashoffset" values="17.41;0" dur="0.17s" fill="freeze" begin="1.end" /></path><path d="M28.89,58.62c0.07,0.34,0.91,1.75,0.98,3.87c0.31,10.2-0.2,31.21-0.2,34.69" stroke-dasharray="38.71" stroke-dashoffset="38.71"><animate attributeName="stroke-dashoffset" values="38.71" fill="freeze" begin="7da2.click" /><animate id="3" attributeName="stroke-dashoffset" values="38.71;0" dur="0.39s" fill="freeze" begin="2.end" /></path><path d="M18.6,68.35c0.17,0.93,0.08,2.73-0.17,3.42c-1.68,4.73-5.68,11.98-9.93,16.41" stroke-dasharray="22.74" stroke-dashoffset="22.74"><animate attributeName="stroke-dashoffset" values="22.74" fill="freeze" begin="7da2.click" /><animate id="4" attributeName="stroke-dashoffset" values="22.74;0" dur="0.23s" fill="freeze" begin="3.end" /></path><path d="M36.68,67.04c3,3.53,5.3,11.74,5.99,14.94" stroke-dasharray="16.21" stroke-dashoffset="16.21"><animate attributeName="stroke-dashoffset" values="16.21" fill="freeze" begin="7da2.click" /><animate id="5" attributeName="stroke-dashoffset" values="16.21;0" dur="0.16s" fill="freeze" begin="4.end" /></path></g><g><g><path d="M50.58,17.07c0.45,1.23,1.06,3.16,1.06,5.4c0,3.45,0.01,6.66,0.01,22.95c0,18.22-0.33,41.72-8.64,49.83" stroke-dasharray="80" stroke-dashoffset="80"><animate attributeName="stroke-dashoffset" values="80" fill="freeze" begin="7da2.click" /><animate id="6" attributeName="stroke-dashoffset" values="80;0" dur="0.6s" fill="freeze" begin="5.end" /></path><path d="M51.49,19.46c5.92-0.94,37.99-3.71,39.18-3.71c2.2,0,3.43,2.25,3.43,4.48c0,2.36,0.16,64.27,0.16,69.69c0,8.48-3.12,7.08-8.09,1.34" stroke-dasharray="129.95" stroke-dashoffset="129.95"><animate attributeName="stroke-dashoffset" values="129.95" fill="freeze" begin="7da2.click" /><animate id="7" attributeName="stroke-dashoffset" values="129.95;0" dur="0.98s" fill="freeze" begin="6.end" /></path></g><g><g><path d="M58.98,34.47c0.94,0.37,2.66,0.26,3.6,0.22c5.08-0.19,16.12-2.27,19.88-2.44c1.57-0.07,2.51,0.06,3.29,0.23" stroke-dasharray="26.97" stroke-dashoffset="26.97"><animate attributeName="stroke-dashoffset" values="26.97" fill="freeze" begin="7da2.click" /><animate id="8" attributeName="stroke-dashoffset" values="26.97;0" dur="0.27s" fill="freeze" begin="7.end" /></path><path d="M57.56,47.65c0.98,0.19,2.78,0.19,3.76,0.1c5.36-0.5,16.26-2.25,22.66-2.4c1.63-0.04,2.61,0.02,3.43,0.1" stroke-dasharray="30" stroke-dashoffset="30"><animate attributeName="stroke-dashoffset" values="30" fill="freeze" begin="7da2.click" /><animate id="9" attributeName="stroke-dashoffset" values="30;0" dur="0.3s" fill="freeze" begin="8.end" /></path><path d="M71.26,23.39c0.61,0.33,0.97,1.61,1.09,2.34c0.12,0.74,0.01,25.14-0.11,29.8" stroke-dasharray="32.45" stroke-dashoffset="32.45"><animate attributeName="stroke-dashoffset" values="32.45" fill="freeze" begin="7da2.click" /><animate id="10" attributeName="stroke-dashoffset" values="32.45;0" dur="0.32s" fill="freeze" begin="9.end" /></path></g><g><path d="M59.92,60.93c0.2,0.36,0.4,0.66,0.49,1.11c0.69,3.55,2.02,12.34,2.49,18.72" stroke-dasharray="20.11" stroke-dashoffset="20.11"><animate attributeName="stroke-dashoffset" values="20.11" fill="freeze" begin="7da2.click" /><animate id="11" attributeName="stroke-dashoffset" values="20.11;0" dur="0.2s" fill="freeze" begin="10.end" /></path><path d="M60.7,62.69c5.79-1.19,17.92-2.34,20.9-2.52c1.09-0.06,2.66,1.88,2.47,2.86c-0.81,4.07-2.03,8.54-3.65,14.36" stroke-dasharray="39.97" stroke-dashoffset="39.97"><animate attributeName="stroke-dashoffset" values="39.97" fill="freeze" begin="7da2.click" /><animate id="12" attributeName="stroke-dashoffset" values="39.97;0" dur="0.4s" fill="freeze" begin="11.end" /></path><path d="M63.59,78.91c6.66-0.16,14.9-1.3,18.83-1.41" stroke-dasharray="18.89" stroke-dashoffset="18.89"><animate attributeName="stroke-dashoffset" values="18.89" fill="freeze" begin="7da2.click" /><animate id="13" attributeName="stroke-dashoffset" values="18.89;0" dur="0.19s" fill="freeze" begin="12.end" /></path></g></g></g></g></g></svg>