<svg xmlns="http://www.w3.org/2000/svg" width="109" height="109" viewBox="0 0 109 109" id="7db2"><g fill="none" stroke="#666" stroke-width="6" stroke-linecap="round" stroke-linejoin="round"><g><g><path d="M28.88,14.17c0.34,1.34,0.29,2.41-0.42,3.8c-3.08,6.03-6.24,12.07-10.8,17.22c-1.41,1.59-1.24,2.89,0,3.35c3.6,1.34,5.47,1.95,9.72,4.56" /><path d="M38.8,26.18c0.32,0.95,0.07,2.2-0.5,3.09c-6.11,9.54-12.68,17.86-20.98,27.44c-1.73,1.99,0.46,2.98,1.65,2.59c5-1.61,13.62-4.24,20.04-5.78" /><path d="M36.25,46.88c2.29,2.18,5.92,8.96,6.5,12.35" /><path d="M28.64,59.62c1,1,1.23,2.38,1.23,3.84c0,7.49-0.1,17.54-0.1,25.54c0,3.13-0.02,5.87-0.02,7" /><path d="M21.35,68.85c0.16,0.94-0.15,2.28-0.41,2.97c-1.7,4.56-5.2,11.44-9.2,16.62" /><path d="M36.68,67.54c2.75,3.12,4.85,10.36,5.49,13.19" /></g><g p4:phon="罔" xmlns:p4="http://kanjivg.tagaini.net"><g><g><path d="M48.76,21.59c1.01,1.01,1.16,2.54,1.16,4.64c0,1.65,0.05,40.07,0.13,58.27c0.02,5.01,0.04,8.49,0.04,9.25" /><path d="M50.91,23.42c5.39-0.81,30.08-3.63,37.46-4.3c3.51-0.32,4.99,0.78,4.99,4.59c-0.02,9.83-0.03,58.13-0.03,63.16c0,10.87-4.7,3.75-7,1.4" /></g><path d="M58,27.75c2.08,1.45,5.38,5.96,5.91,8.21" /><path d="M79.38,24.55c0.08,0.77,0.02,1.77-0.29,2.47c-1.35,3.1-2.67,5.7-5.78,10.34" /><path d="M52.35,42.51c2.27-0.01,4.11-0.24,6.03-0.45c6.86-0.75,18.7-2.25,25.87-2.91c1.84-0.17,4.38-0.27,6.29,0.08" /></g><g><g><path d="M70.12,43.76c0.87,0.87,1.1,1.87,1.1,3.39c0,2.81-0.01,4.98-0.01,7.55" /><g><path d="M56.02,56.75c1.85,0.63,3.56,0.5,5.45,0.23c5.5-0.79,14.69-2.03,20.65-2.45c1.21-0.09,3.31-0.51,4.5,0.09" /></g></g><g><path d="M63.36,59.51c0.63,0.63,0.75,1.62,0.75,2.78c0,1.84,0,5.09,0,6.46c0,4,0.89,5.24,9.14,5.24c6,0,9.06-1.07,9.87-1.34" /></g></g></g></g></g><g fill="none" stroke="#000" stroke-width="3" stroke-linecap="round" stroke-linejoin="round"><path d="M28.88,14.17c0.34,1.34,0.29,2.41-0.42,3.8c-3.08,6.03-6.24,12.07-10.8,17.22c-1.41,1.59-1.24,2.89,0,3.35c3.6,1.34,5.47,1.95,9.72,4.56" stroke-dasharray="39.15" stroke-dashoffset="39.15"><animate attributeName="stroke-dashoffset" values="39.15;39.15;0" dur="0.391s" fill="freeze" begin="0s;7db2.click" /></path><path d="M38.8,26.18c0.32,0.95,0.07,2.2-0.5,3.09c-6.11,9.54-12.68,17.86-20.98,27.44c-1.73,1.99,0.46,2.98,1.65,2.59c5-1.61,13.62-4.24,20.04-5.78" stroke-dasharray="63.176" stroke-dashoffset="63.176"><animate attributeName="stroke-dashoffset" values="63.176" fill="freeze" begin="7db2.click" /><animate attributeName="stroke-dashoffset" values="63.176;63.176;0" keyTimes="0;0.452;1" dur="0.866s" fill="freeze" begin="0s;7db2.click" /></path><path d="M36.25,46.88c2.29,2.18,5.92,8.96,6.5,12.35" stroke-dasharray="14.092" stroke-dashoffset="14.092"><animate attributeName="stroke-dashoffset" values="14.092" fill="freeze" begin="7db2.click" /><animate attributeName="stroke-dashoffset" values="14.092;14.092;0" keyTimes="0;0.86;1" dur="1.007s" fill="freeze" begin="0s;7db2.click" /></path><path d="M28.64,59.62c1,1,1.23,2.38,1.23,3.84c0,7.49-0.1,17.54-0.1,25.54c0,3.13-0.02,5.87-0.02,7" stroke-dasharray="36.685" stroke-dashoffset="36.685"><animate attributeName="stroke-dashoffset" values="36.685" fill="freeze" begin="7db2.click" /><animate attributeName="stroke-dashoffset" values="36.685;36.685;0" keyTimes="0;0.733;1" dur="1.374s" fill="freeze" begin="0s;7db2.click" /></path><path d="M21.35,68.85c0.16,0.94-0.15,2.28-0.41,2.97c-1.7,4.56-5.2,11.44-9.2,16.62" stroke-dasharray="22.084" stroke-dashoffset="22.084"><animate attributeName="stroke-dashoffset" values="22.084" fill="freeze" begin="7db2.click" /><animate attributeName="stroke-dashoffset" values="22.084;22.084;0" keyTimes="0;0.861;1" dur="1.595s" fill="freeze" begin="0s;7db2.click" /></path><path d="M36.68,67.54c2.75,3.12,4.85,10.36,5.49,13.19" stroke-dasharray="14.396" stroke-dashoffset="14.396"><animate attributeName="stroke-dashoffset" values="14.396" fill="freeze" begin="7db2.click" /><animate attributeName="stroke-dashoffset" values="14.396;14.396;0" keyTimes="0;0.917;1" dur="1.739s" fill="freeze" begin="0s;7db2.click" /></path><path d="M48.76,21.59c1.01,1.01,1.16,2.54,1.16,4.64c0,1.65,0.05,40.07,0.13,58.27c0.02,5.01,0.04,8.49,0.04,9.25" stroke-dasharray="72.432" stroke-dashoffset="72.432"><animate attributeName="stroke-dashoffset" values="72.432" fill="freeze" begin="7db2.click" /><animate attributeName="stroke-dashoffset" values="72.432;72.432;0" keyTimes="0;0.761;1" dur="2.284s" fill="freeze" begin="0s;7db2.click" /></path><path d="M50.91,23.42c5.39-0.81,30.08-3.63,37.46-4.3c3.51-0.32,4.99,0.78,4.99,4.59c-0.02,9.83-0.03,58.13-0.03,63.16c0,10.87-4.7,3.75-7,1.4" stroke-dasharray="122.557" stroke-dashoffset="122.557"><animate attributeName="stroke-dashoffset" values="122.557" fill="freeze" begin="7db2.click" /><animate attributeName="stroke-dashoffset" values="122.557;122.557;0" keyTimes="0;0.713;1" dur="3.205s" fill="freeze" begin="0s;7db2.click" /></path><path d="M58,27.75c2.08,1.45,5.38,5.96,5.91,8.21" stroke-dasharray="10.245" stroke-dashoffset="10.245"><animate attributeName="stroke-dashoffset" values="10.245" fill="freeze" begin="7db2.click" /><animate attributeName="stroke-dashoffset" values="10.245;10.245;0" keyTimes="0;0.969;1" dur="3.307s" fill="freeze" begin="0s;7db2.click" /></path><path d="M79.38,24.55c0.08,0.77,0.02,1.77-0.29,2.47c-1.35,3.1-2.67,5.7-5.78,10.34" stroke-dasharray="14.378" stroke-dashoffset="14.378"><animate attributeName="stroke-dashoffset" values="14.378" fill="freeze" begin="7db2.click" /><animate attributeName="stroke-dashoffset" values="14.378;14.378;0" keyTimes="0;0.958;1" dur="3.451s" fill="freeze" begin="0s;7db2.click" /></path><path d="M52.35,42.51c2.27-0.01,4.11-0.24,6.03-0.45c6.86-0.75,18.7-2.25,25.87-2.91c1.84-0.17,4.38-0.27,6.29,0.08" stroke-dasharray="38.393" stroke-dashoffset="38.393"><animate attributeName="stroke-dashoffset" values="38.393" fill="freeze" begin="7db2.click" /><animate attributeName="stroke-dashoffset" values="38.393;38.393;0" keyTimes="0;0.9;1" dur="3.835s" fill="freeze" begin="0s;7db2.click" /></path><path d="M70.12,43.76c0.87,0.87,1.1,1.87,1.1,3.39c0,2.81-0.01,4.98-0.01,7.55" stroke-dasharray="11.223" stroke-dashoffset="11.223"><animate attributeName="stroke-dashoffset" values="11.223" fill="freeze" begin="7db2.click" /><animate attributeName="stroke-dashoffset" values="11.223;11.223;0" keyTimes="0;0.972;1" dur="3.947s" fill="freeze" begin="0s;7db2.click" /></path><path d="M56.02,56.75c1.85,0.63,3.56,0.5,5.45,0.23c5.5-0.79,14.69-2.03,20.65-2.45c1.21-0.09,3.31-0.51,4.5,0.09" stroke-dasharray="30.865" stroke-dashoffset="30.865"><animate attributeName="stroke-dashoffset" values="30.865" fill="freeze" begin="7db2.click" /><animate attributeName="stroke-dashoffset" values="30.865;30.865;0" keyTimes="0;0.927;1" dur="4.256s" fill="freeze" begin="0s;7db2.click" /></path><path d="M63.36,59.51c0.63,0.63,0.75,1.62,0.75,2.78c0,1.84,0,5.09,0,6.46c0,4,0.89,5.24,9.14,5.24c6,0,9.06-1.07,9.87-1.34" stroke-dasharray="31.838" stroke-dashoffset="31.838"><animate attributeName="stroke-dashoffset" values="31.838" fill="freeze" begin="7db2.click" /><animate attributeName="stroke-dashoffset" values="31.838;31.838;0" keyTimes="0;0.93;1" dur="4.574s" fill="freeze" begin="0s;7db2.click" /></path></g></svg>