<svg xmlns="http://www.w3.org/2000/svg" width="109" height="109" viewBox="0 0 109 109" id="7db4"><g fill="none" stroke="#666" stroke-width="9" stroke-linecap="round" stroke-linejoin="round"><g><g><path d="M25.4,15.25c0.31,1.21,0.42,2.16-0.16,3.44c-2.74,6.06-6.71,15.46-9.82,18.29c-0.64,0.58-0.62,2.81,0,3.04c3.26,1.21,5.84,2.24,8.64,4.47" /><path d="M34.53,26.19c0.29,0.55,0.38,2.35,0,2.94C29,37.75,22.25,50.25,14.65,58.11c-1.74,1.8,0.43,2.83,1.57,2.47c4.75-1.53,11.62-3.77,17.73-5.24" /><path d="M30.5,49.25c2.12,1.94,5.47,7.98,6,11" /><path d="M25.33,60.26c0.05,0.29,0.73,1.48,0.78,3.28c0.25,8.64-0.16,28.77-0.16,31.71" /><path d="M16.02,68.25c0.09,0.85,0.08,2.54-0.09,3.15c-1.1,3.99-3.86,11.68-5.43,15.1" /><path d="M33.5,66.75c2.5,3.67,4.42,12.18,5,15.5" /></g><g><g><g><path d="M41.32,19.56c0.24,0.03,1.54,0.26,2.22,0.19c3.07-0.33,11.68-3.07,14.9-3.91c2.21-0.58,2.83,0.66,2.27,2.24C57.62,26.7,52.25,37,39.5,45.5" /><path d="M42.9,26.74C48.75,30,55.25,36,58.14,41.1" /></g><g><path d="M69.32,18.31c0.24,0.03,2.54,0.26,3.22,0.19c3.07-0.33,11.68-3.07,14.9-3.91c2.21-0.58,2.83,0.66,2.27,2.24c-3.09,8.63-12.46,23.43-25.21,30.43" /><path d="M71.14,26.49c7.1,3.6,14.99,10.22,18.49,15.86" /></g></g><g><g><path d="M42.07,59.06c0.24,0.03,1.54,0.26,2.22,0.19c3.07-0.33,10.68-2.07,13.9-2.91c2.21-0.58,2.83,0.66,2.27,2.24c-3.09,8.63-8.21,21.68-21.71,31.93" /><path d="M42.14,66.99c6.62,3.77,13.98,10.71,17.24,16.61" /></g><g><path d="M68.63,55.61c0.38,0.04,2.43,0.35,3.52,0.25c4.86-0.45,11.74-2.59,16.84-3.72c3.5-0.77,4.58,0.92,3.6,2.99C86.75,67.5,78,81,59.75,91.75" /><path d="M68.75,62.25c3.56,4.64,19.71,22.26,24.51,26.5c1.43,1.27,2.59,1.88,3.99,2.25" /></g></g></g></g></g><g fill="none" stroke="#000" stroke-width="5" stroke-linecap="round" stroke-linejoin="round"><g><g><path d="M25.4,15.25c0.31,1.21,0.42,2.16-0.16,3.44c-2.74,6.06-6.71,15.46-9.82,18.29c-0.64,0.58-0.62,2.81,0,3.04c3.26,1.21,5.84,2.24,8.64,4.47" stroke-dasharray="37.44" stroke-dashoffset="37.44"><animate id="0" attributeName="stroke-dashoffset" values="37.44;0" dur="0.37s" fill="freeze" begin="0s;7db4.click" /></path><path d="M34.53,26.19c0.29,0.55,0.38,2.35,0,2.94C29,37.75,22.25,50.25,14.65,58.11c-1.74,1.8,0.43,2.83,1.57,2.47c4.75-1.53,11.62-3.77,17.73-5.24" stroke-dasharray="61.04" stroke-dashoffset="61.04"><animate attributeName="stroke-dashoffset" values="61.04" fill="freeze" begin="7db4.click" /><animate id="1" attributeName="stroke-dashoffset" values="61.04;0" dur="0.46s" fill="freeze" begin="0.end" /></path><path d="M30.5,49.25c2.12,1.94,5.47,7.98,6,11" stroke-dasharray="12.66" stroke-dashoffset="12.66"><animate attributeName="stroke-dashoffset" values="12.66" fill="freeze" begin="7db4.click" /><animate id="2" attributeName="stroke-dashoffset" values="12.66;0" dur="0.13s" fill="freeze" begin="1.end" /></path><path d="M25.33,60.26c0.05,0.29,0.73,1.48,0.78,3.28c0.25,8.64-0.16,28.77-0.16,31.71" stroke-dasharray="35.1" stroke-dashoffset="35.1"><animate attributeName="stroke-dashoffset" values="35.1" fill="freeze" begin="7db4.click" /><animate id="3" attributeName="stroke-dashoffset" values="35.1;0" dur="0.35s" fill="freeze" begin="2.end" /></path><path d="M16.02,68.25c0.09,0.85,0.08,2.54-0.09,3.15c-1.1,3.99-3.86,11.68-5.43,15.1" stroke-dasharray="19.22" stroke-dashoffset="19.22"><animate attributeName="stroke-dashoffset" values="19.22" fill="freeze" begin="7db4.click" /><animate id="4" attributeName="stroke-dashoffset" values="19.22;0" dur="0.19s" fill="freeze" begin="3.end" /></path><path d="M33.5,66.75c2.5,3.67,4.42,12.18,5,15.5" stroke-dasharray="16.37" stroke-dashoffset="16.37"><animate attributeName="stroke-dashoffset" values="16.37" fill="freeze" begin="7db4.click" /><animate id="5" attributeName="stroke-dashoffset" values="16.37;0" dur="0.16s" fill="freeze" begin="4.end" /></path></g><g><g><g><path d="M41.32,19.56c0.24,0.03,1.54,0.26,2.22,0.19c3.07-0.33,11.68-3.07,14.9-3.91c2.21-0.58,2.83,0.66,2.27,2.24C57.62,26.7,52.25,37,39.5,45.5" stroke-dasharray="57.3" stroke-dashoffset="57.3"><animate attributeName="stroke-dashoffset" values="57.3" fill="freeze" begin="7db4.click" /><animate id="6" attributeName="stroke-dashoffset" values="57.3;0" dur="0.57s" fill="freeze" begin="5.end" /></path><path d="M42.9,26.74C48.75,30,55.25,36,58.14,41.1" stroke-dasharray="21.15" stroke-dashoffset="21.15"><animate attributeName="stroke-dashoffset" values="21.15" fill="freeze" begin="7db4.click" /><animate id="7" attributeName="stroke-dashoffset" values="21.15;0" dur="0.21s" fill="freeze" begin="6.end" /></path></g><g><path d="M69.32,18.31c0.24,0.03,2.54,0.26,3.22,0.19c3.07-0.33,11.68-3.07,14.9-3.91c2.21-0.58,2.83,0.66,2.27,2.24c-3.09,8.63-12.46,23.43-25.21,30.43" stroke-dasharray="63.22" stroke-dashoffset="63.22"><animate attributeName="stroke-dashoffset" values="63.22" fill="freeze" begin="7db4.click" /><animate id="8" attributeName="stroke-dashoffset" values="63.22;0" dur="0.48s" fill="freeze" begin="7.end" /></path><path d="M71.14,26.49c7.1,3.6,14.99,10.22,18.49,15.86" stroke-dasharray="24.61" stroke-dashoffset="24.61"><animate attributeName="stroke-dashoffset" values="24.61" fill="freeze" begin="7db4.click" /><animate id="9" attributeName="stroke-dashoffset" values="24.61;0" dur="0.25s" fill="freeze" begin="8.end" /></path></g></g><g><g><path d="M42.07,59.06c0.24,0.03,1.54,0.26,2.22,0.19c3.07-0.33,10.68-2.07,13.9-2.91c2.21-0.58,2.83,0.66,2.27,2.24c-3.09,8.63-8.21,21.68-21.71,31.93" stroke-dasharray="59.99" stroke-dashoffset="59.99"><animate attributeName="stroke-dashoffset" values="59.99" fill="freeze" begin="7db4.click" /><animate id="10" attributeName="stroke-dashoffset" values="59.99;0" dur="0.6s" fill="freeze" begin="9.end" /></path><path d="M42.14,66.99c6.62,3.77,13.98,10.71,17.24,16.61" stroke-dasharray="24.19" stroke-dashoffset="24.19"><animate attributeName="stroke-dashoffset" values="24.19" fill="freeze" begin="7db4.click" /><animate id="11" attributeName="stroke-dashoffset" values="24.19;0" dur="0.24s" fill="freeze" begin="10.end" /></path></g><g><path d="M68.63,55.61c0.38,0.04,2.43,0.35,3.52,0.25c4.86-0.45,11.74-2.59,16.84-3.72c3.5-0.77,4.58,0.92,3.6,2.99C86.75,67.5,78,81,59.75,91.75" stroke-dasharray="77.18" stroke-dashoffset="77.18"><animate attributeName="stroke-dashoffset" values="77.18" fill="freeze" begin="7db4.click" /><animate id="12" attributeName="stroke-dashoffset" values="77.18;0" dur="0.58s" fill="freeze" begin="11.end" /></path><path d="M68.75,62.25c3.56,4.64,19.71,22.26,24.51,26.5c1.43,1.27,2.59,1.88,3.99,2.25" stroke-dasharray="40.74" stroke-dashoffset="40.74"><animate attributeName="stroke-dashoffset" values="40.74" fill="freeze" begin="7db4.click" /><animate id="13" attributeName="stroke-dashoffset" values="40.74;0" dur="0.41s" fill="freeze" begin="12.end" /></path></g></g></g></g></g></svg>