<svg xmlns="http://www.w3.org/2000/svg" width="109" height="109" viewBox="0 0 109 109" id="7dec"><g fill="none" stroke="#666" stroke-width="9" stroke-linecap="round" stroke-linejoin="round"><g><g><path d="M27.9,14.75c0.31,1.21,0.59,2.24-0.16,3.44c-3.26,5.27-9.71,14.96-12.82,17.79c-0.64,0.58-0.62,2.81,0,3.04c3.26,1.21,7.84,3.24,10.64,5.47" /><path d="M37.03,26.69c0.29,0.55,0.38,2.35,0,2.94c-5.53,8.62-14.28,20.12-21.88,27.98c-1.74,1.8,0.43,2.83,1.57,2.47c4.75-1.53,14.62-4.27,20.73-5.74" /><path d="M33.75,48.5c2.56,2.07,6.61,8.52,7.25,11.75" /><path d="M27.33,59.76c0.05,0.29,0.73,1.48,0.78,3.28c0.25,8.64-0.16,32.27-0.16,35.21" /><path d="M17.5,70.75c0.12,0.89,0.1,2.64-0.12,3.28c-1.45,4.15-5.08,12.16-7.13,15.72" /><path d="M35.5,69.75c2.75,3.07,4.86,10.21,5.5,13" /></g><g><path d="M42.28,18.07c1.28,0.46,3.63,1,4.91,0.96c8.32-0.28,31.05-3.81,45.53-4.02c2.13-0.03,3.41,0.22,4.48,0.45" /><path d="M66.24,20.68c0.02,0.44,0.04,1.13-0.04,1.75c-0.53,3.7-3.54,11.81-7.66,16.78" /><path d="M45.75,41.06c0.72,1.01,1.03,1.78,1.13,3.12C48,59,48.75,76,49.25,95" /><path d="M46.92,42.77c11.66-1.36,35.66-3.82,43.09-4.13c3.08-0.12,4.69,2.77,4.46,5.68c-0.93,12.02-1.73,30.93-3.73,48.29" /><path d="M61.3,42.96c0.48,0.79,0.95,2.11,0.95,3.17c0,1.06,1.13,45.51,1.13,45.51" /><path d="M77.3,40.32c0.48,1.32,0.95,2.11,0.95,3.17c0,1.06-1.11,44.69-1.11,47.33" /><path d="M62.73,57.16c1.58,0,12.99-1.35,14.58-1.35" /><path d="M63.2,72.79c4.55-0.29,11.72-1.08,13.94-1.35" /><path d="M49.53,92.28c3.33-0.27,36.6-1.67,40.56-1.67" /></g></g></g><g fill="none" stroke="#000" stroke-width="5" stroke-linecap="round" stroke-linejoin="round"><g><g><path d="M27.9,14.75c0.31,1.21,0.59,2.24-0.16,3.44c-3.26,5.27-9.71,14.96-12.82,17.79c-0.64,0.58-0.62,2.81,0,3.04c3.26,1.21,7.84,3.24,10.64,5.47" stroke-dasharray="40.83" stroke-dashoffset="40.83"><animate attributeName="stroke-dashoffset" values="40.83;40.83;0" dur="0.408s" fill="freeze" begin="0s;7dec.click" /></path><path d="M37.03,26.69c0.29,0.55,0.38,2.35,0,2.94c-5.53,8.62-14.28,20.12-21.88,27.98c-1.74,1.8,0.43,2.83,1.57,2.47c4.75-1.53,14.62-4.27,20.73-5.74" stroke-dasharray="64.424" stroke-dashoffset="64.424"><animate attributeName="stroke-dashoffset" values="64.424" fill="freeze" begin="7dec.click" /><animate attributeName="stroke-dashoffset" values="64.424;64.424;0" keyTimes="0;0.457;1" dur="0.892s" fill="freeze" begin="0s;7dec.click" /></path><path d="M33.75,48.5c2.56,2.07,6.61,8.52,7.25,11.75" stroke-dasharray="13.966" stroke-dashoffset="13.966"><animate attributeName="stroke-dashoffset" values="13.966" fill="freeze" begin="7dec.click" /><animate attributeName="stroke-dashoffset" values="13.966;13.966;0" keyTimes="0;0.864;1" dur="1.032s" fill="freeze" begin="0s;7dec.click" /></path><path d="M27.33,59.76c0.05,0.29,0.73,1.48,0.78,3.28c0.25,8.64-0.16,32.27-0.16,35.21" stroke-dasharray="38.604" stroke-dashoffset="38.604"><animate attributeName="stroke-dashoffset" values="38.604" fill="freeze" begin="7dec.click" /><animate attributeName="stroke-dashoffset" values="38.604;38.604;0" keyTimes="0;0.728;1" dur="1.418s" fill="freeze" begin="0s;7dec.click" /></path><path d="M17.5,70.75c0.12,0.89,0.1,2.64-0.12,3.28c-1.45,4.15-5.08,12.16-7.13,15.72" stroke-dasharray="20.576" stroke-dashoffset="20.576"><animate attributeName="stroke-dashoffset" values="20.576" fill="freeze" begin="7dec.click" /><animate attributeName="stroke-dashoffset" values="20.576;20.576;0" keyTimes="0;0.873;1" dur="1.624s" fill="freeze" begin="0s;7dec.click" /></path><path d="M35.5,69.75c2.75,3.07,4.86,10.21,5.5,13" stroke-dasharray="14.226" stroke-dashoffset="14.226"><animate attributeName="stroke-dashoffset" values="14.226" fill="freeze" begin="7dec.click" /><animate attributeName="stroke-dashoffset" values="14.226;14.226;0" keyTimes="0;0.92;1" dur="1.766s" fill="freeze" begin="0s;7dec.click" /></path></g><g><path d="M42.28,18.07c1.28,0.46,3.63,1,4.91,0.96c8.32-0.28,31.05-3.81,45.53-4.02c2.13-0.03,3.41,0.22,4.48,0.45" stroke-dasharray="55.26" stroke-dashoffset="55.26"><animate attributeName="stroke-dashoffset" values="55.26" fill="freeze" begin="7dec.click" /><animate attributeName="stroke-dashoffset" values="55.26;55.26;0" keyTimes="0;0.762;1" dur="2.319s" fill="freeze" begin="0s;7dec.click" /></path><path d="M66.24,20.68c0.02,0.44,0.04,1.13-0.04,1.75c-0.53,3.7-3.54,11.81-7.66,16.78" stroke-dasharray="20.368" stroke-dashoffset="20.368"><animate attributeName="stroke-dashoffset" values="20.368" fill="freeze" begin="7dec.click" /><animate attributeName="stroke-dashoffset" values="20.368;20.368;0" keyTimes="0;0.919;1" dur="2.523s" fill="freeze" begin="0s;7dec.click" /></path><path d="M45.75,41.06c0.72,1.01,1.03,1.78,1.13,3.12C48,59,48.75,76,49.25,95" stroke-dasharray="54.251" stroke-dashoffset="54.251"><animate attributeName="stroke-dashoffset" values="54.251" fill="freeze" begin="7dec.click" /><animate attributeName="stroke-dashoffset" values="54.251;54.251;0" keyTimes="0;0.823;1" dur="3.066s" fill="freeze" begin="0s;7dec.click" /></path><path d="M46.92,42.77c11.66-1.36,35.66-3.82,43.09-4.13c3.08-0.12,4.69,2.77,4.46,5.68c-0.93,12.02-1.73,30.93-3.73,48.29" stroke-dasharray="99.952" stroke-dashoffset="99.952"><animate attributeName="stroke-dashoffset" values="99.952" fill="freeze" begin="7dec.click" /><animate attributeName="stroke-dashoffset" values="99.952;99.952;0" keyTimes="0;0.803;1" dur="3.818s" fill="freeze" begin="0s;7dec.click" /></path><path d="M61.3,42.96c0.48,0.79,0.95,2.11,0.95,3.17c0,1.06,1.13,45.51,1.13,45.51" stroke-dasharray="48.869" stroke-dashoffset="48.869"><animate attributeName="stroke-dashoffset" values="48.869" fill="freeze" begin="7dec.click" /><animate attributeName="stroke-dashoffset" values="48.869;48.869;0" keyTimes="0;0.886;1" dur="4.307s" fill="freeze" begin="0s;7dec.click" /></path><path d="M77.3,40.32c0.48,1.32,0.95,2.11,0.95,3.17c0,1.06-1.11,44.69-1.11,47.33" stroke-dasharray="50.674" stroke-dashoffset="50.674"><animate attributeName="stroke-dashoffset" values="50.674" fill="freeze" begin="7dec.click" /><animate attributeName="stroke-dashoffset" values="50.674;50.674;0" keyTimes="0;0.895;1" dur="4.814s" fill="freeze" begin="0s;7dec.click" /></path><path d="M62.73,57.16c1.58,0,12.99-1.35,14.58-1.35" stroke-dasharray="14.645" stroke-dashoffset="14.645"><animate attributeName="stroke-dashoffset" values="14.645" fill="freeze" begin="7dec.click" /><animate attributeName="stroke-dashoffset" values="14.645;14.645;0" keyTimes="0;0.971;1" dur="4.96s" fill="freeze" begin="0s;7dec.click" /></path><path d="M63.2,72.79c4.55-0.29,11.72-1.08,13.94-1.35" stroke-dasharray="14.008" stroke-dashoffset="14.008"><animate attributeName="stroke-dashoffset" values="14.008" fill="freeze" begin="7dec.click" /><animate attributeName="stroke-dashoffset" values="14.008;14.008;0" keyTimes="0;0.973;1" dur="5.1s" fill="freeze" begin="0s;7dec.click" /></path><path d="M49.53,92.28c3.33-0.27,36.6-1.67,40.56-1.67" stroke-dasharray="40.597" stroke-dashoffset="40.597"><animate attributeName="stroke-dashoffset" values="40.597" fill="freeze" begin="7dec.click" /><animate attributeName="stroke-dashoffset" values="40.597;40.597;0" keyTimes="0;0.926;1" dur="5.506s" fill="freeze" begin="0s;7dec.click" /></path></g></g></g></svg>