<svg xmlns="http://www.w3.org/2000/svg" width="109" height="109" viewBox="0 0 109 109" id="7e0a"><g fill="none" stroke="#666" stroke-width="9" stroke-linecap="round" stroke-linejoin="round"><g><g><path d="M23.52,13.67c0.3,1.35,0.31,2.35-0.15,3.83c-2.02,6.5-7.34,13.42-11.28,18.62c-0.55,0.72-0.59,3.12,0,3.38c3.12,1.35,7.9,3.13,10.57,5.61" /><path d="M33.54,26.93c0.27,0.53,0.34,2.24,0,2.81c-5.28,8.86-14.1,20.19-21.37,27.71c-1.67,1.72,0.41,2.71,1.5,2.36c4.55-1.47,15.36-4.09,21.2-5.49" /><path d="M29.38,47.38c3.31,2.18,8.54,8.96,9.37,12.35" /><path d="M24.39,60.62c0.07,0.36,0.91,1.85,0.98,4.09c0.31,10.79-0.2,29.79-0.2,33.46" /><path d="M16.63,71.35c0.12,0.85,0.1,2.52-0.11,3.12c-1.38,3.95-4.82,11.57-6.76,14.96" /><path d="M32.68,69.29c2.75,3.47,4.85,11.54,5.49,14.69" /></g><g><g><g><g><path d="M55.9,15.64c0.04,0.48,0.08,1.24-0.08,1.94C54.9,21.66,49.03,30.62,41.8,36.1" /></g><g><path d="M68.38,11.56C70.57,12,83.92,28.68,90.39,32.4c2.5,1.44,3.4,2.21,5.83,2.68" /></g></g><path d="M53.27,33.3c0.82,0.4,2.32,0.45,3.15,0.4c3.83-0.2,16.33-2.2,20.22-2.67c1.36-0.16,2.19-0.31,2.87-0.11" /><g><g><path d="M58.29,42.94c0.29,0.65-0.04,1.38-0.41,2.18c-2.4,5.24-11.41,16.79-16.89,19.48" /></g><g><path d="M71.63,40.56c2.06,0.39,14.56,15.3,20.63,18.63c2.35,1.29,3.19,1.98,5.46,2.39" /></g></g></g><g><path d="M47.21,66.4c0.56,0.67,1.79,2.34,1.91,2.91c0.94,4.53,1.72,15.46,2.36,23.59" /><path d="M49.48,67.82c10.05-0.94,34.18-2.43,37.81-2.72c1.33-0.11,2.26,1.11,1.94,2.76c-1.03,5.23-2.42,16.79-3.37,22.72" /><path d="M61.08,68.46c0.23,0.43,0.57,1.78,0.57,2.33c0,6.71,0.32,12.46,0.32,21.23" /><path d="M73.76,68.21c0.58,1.28,0.89,2.06,0.83,3.14c-0.32,6.01-0.49,12.43-1.32,20.54" /><path d="M37.89,94.48c1.12,0.3,3.16,0.35,4.28,0.3c11.62-0.51,38.79-3.48,52.95-3.33c1.86,0.02,2.98,0.14,3.91,0.3" /></g></g></g></g><g fill="none" stroke="#000" stroke-width="5" stroke-linecap="round" stroke-linejoin="round"><path d="M23.52,13.67c0.3,1.35,0.31,2.35-0.15,3.83c-2.02,6.5-7.34,13.42-11.28,18.62c-0.55,0.72-0.59,3.12,0,3.38c3.12,1.35,7.9,3.13,10.57,5.61" stroke-dasharray="41.358" stroke-dashoffset="41.358"><animate attributeName="stroke-dashoffset" values="41.358;41.358;0" dur="0.414s" fill="freeze" begin="0s;7e0a.click" /></path><path d="M33.54,26.93c0.27,0.53,0.34,2.24,0,2.81c-5.28,8.86-14.1,20.19-21.37,27.71c-1.67,1.72,0.41,2.71,1.5,2.36c4.55-1.47,15.36-4.09,21.2-5.49" stroke-dasharray="63.978" stroke-dashoffset="63.978"><animate attributeName="stroke-dashoffset" values="63.978" fill="freeze" begin="7e0a.click" /><animate attributeName="stroke-dashoffset" values="63.978;63.978;0" keyTimes="0;0.463;1" dur="0.895s" fill="freeze" begin="0s;7e0a.click" /></path><path d="M29.38,47.38c3.31,2.18,8.54,8.96,9.37,12.35" stroke-dasharray="15.709" stroke-dashoffset="15.709"><animate attributeName="stroke-dashoffset" values="15.709" fill="freeze" begin="7e0a.click" /><animate attributeName="stroke-dashoffset" values="15.709;15.709;0" keyTimes="0;0.851;1" dur="1.052s" fill="freeze" begin="0s;7e0a.click" /></path><path d="M24.39,60.62c0.07,0.36,0.91,1.85,0.98,4.09c0.31,10.79-0.2,29.79-0.2,33.46" stroke-dasharray="37.694" stroke-dashoffset="37.694"><animate attributeName="stroke-dashoffset" values="37.694" fill="freeze" begin="7e0a.click" /><animate attributeName="stroke-dashoffset" values="37.694;37.694;0" keyTimes="0;0.736;1" dur="1.429s" fill="freeze" begin="0s;7e0a.click" /></path><path d="M16.63,71.35c0.12,0.85,0.1,2.52-0.11,3.12c-1.38,3.95-4.82,11.57-6.76,14.96" stroke-dasharray="19.57" stroke-dashoffset="19.57"><animate attributeName="stroke-dashoffset" values="19.57" fill="freeze" begin="7e0a.click" /><animate attributeName="stroke-dashoffset" values="19.57;19.57;0" keyTimes="0;0.879;1" dur="1.625s" fill="freeze" begin="0s;7e0a.click" /></path><path d="M32.68,69.29c2.75,3.47,4.85,11.54,5.49,14.69" stroke-dasharray="15.786" stroke-dashoffset="15.786"><animate attributeName="stroke-dashoffset" values="15.786" fill="freeze" begin="7e0a.click" /><animate attributeName="stroke-dashoffset" values="15.786;15.786;0" keyTimes="0;0.911;1" dur="1.783s" fill="freeze" begin="0s;7e0a.click" /></path><path d="M55.9,15.64c0.04,0.48,0.08,1.24-0.08,1.94C54.9,21.66,49.03,30.62,41.8,36.1" stroke-dasharray="25.495" stroke-dashoffset="25.495"><animate attributeName="stroke-dashoffset" values="25.495" fill="freeze" begin="7e0a.click" /><animate attributeName="stroke-dashoffset" values="25.495;25.495;0" keyTimes="0;0.875;1" dur="2.038s" fill="freeze" begin="0s;7e0a.click" /></path><path d="M68.38,11.56C70.57,12,83.92,28.68,90.39,32.4c2.5,1.44,3.4,2.21,5.83,2.68" stroke-dasharray="36.865" stroke-dashoffset="36.865"><animate attributeName="stroke-dashoffset" values="36.865" fill="freeze" begin="7e0a.click" /><animate attributeName="stroke-dashoffset" values="36.865;36.865;0" keyTimes="0;0.847;1" dur="2.407s" fill="freeze" begin="0s;7e0a.click" /></path><path d="M53.27,33.3c0.82,0.4,2.32,0.45,3.15,0.4c3.83-0.2,16.33-2.2,20.22-2.67c1.36-0.16,2.19-0.31,2.87-0.11" stroke-dasharray="26.492" stroke-dashoffset="26.492"><animate attributeName="stroke-dashoffset" values="26.492" fill="freeze" begin="7e0a.click" /><animate attributeName="stroke-dashoffset" values="26.492;26.492;0" keyTimes="0;0.901;1" dur="2.672s" fill="freeze" begin="0s;7e0a.click" /></path><path d="M58.29,42.94c0.29,0.65-0.04,1.38-0.41,2.18c-2.4,5.24-11.41,16.79-16.89,19.48" stroke-dasharray="28.351" stroke-dashoffset="28.351"><animate attributeName="stroke-dashoffset" values="28.351" fill="freeze" begin="7e0a.click" /><animate attributeName="stroke-dashoffset" values="28.351;28.351;0" keyTimes="0;0.904;1" dur="2.956s" fill="freeze" begin="0s;7e0a.click" /></path><path d="M71.63,40.56c2.06,0.39,14.56,15.3,20.63,18.63c2.35,1.29,3.19,1.98,5.46,2.39" stroke-dasharray="33.882" stroke-dashoffset="33.882"><animate attributeName="stroke-dashoffset" values="33.882" fill="freeze" begin="7e0a.click" /><animate attributeName="stroke-dashoffset" values="33.882;33.882;0" keyTimes="0;0.897;1" dur="3.295s" fill="freeze" begin="0s;7e0a.click" /></path><path d="M47.21,66.4c0.56,0.67,1.79,2.34,1.91,2.91c0.94,4.53,1.72,15.46,2.36,23.59" stroke-dasharray="27.214" stroke-dashoffset="27.214"><animate attributeName="stroke-dashoffset" values="27.214" fill="freeze" begin="7e0a.click" /><animate attributeName="stroke-dashoffset" values="27.214;27.214;0" keyTimes="0;0.924;1" dur="3.567s" fill="freeze" begin="0s;7e0a.click" /></path><path d="M49.48,67.82c10.05-0.94,34.18-2.43,37.81-2.72c1.33-0.11,2.26,1.11,1.94,2.76c-1.03,5.23-2.42,16.79-3.37,22.72" stroke-dasharray="64.835" stroke-dashoffset="64.835"><animate attributeName="stroke-dashoffset" values="64.835" fill="freeze" begin="7e0a.click" /><animate attributeName="stroke-dashoffset" values="64.835;64.835;0" keyTimes="0;0.88;1" dur="4.054s" fill="freeze" begin="0s;7e0a.click" /></path><path d="M61.08,68.46c0.23,0.43,0.57,1.78,0.57,2.33c0,6.71,0.32,12.46,0.32,21.23" stroke-dasharray="23.645" stroke-dashoffset="23.645"><animate attributeName="stroke-dashoffset" values="23.645" fill="freeze" begin="7e0a.click" /><animate attributeName="stroke-dashoffset" values="23.645;23.645;0" keyTimes="0;0.945;1" dur="4.29s" fill="freeze" begin="0s;7e0a.click" /></path><path d="M73.76,68.21c0.58,1.28,0.89,2.06,0.83,3.14c-0.32,6.01-0.49,12.43-1.32,20.54" stroke-dasharray="23.871" stroke-dashoffset="23.871"><animate attributeName="stroke-dashoffset" values="23.871" fill="freeze" begin="7e0a.click" /><animate attributeName="stroke-dashoffset" values="23.871;23.871;0" keyTimes="0;0.947;1" dur="4.529s" fill="freeze" begin="0s;7e0a.click" /></path><path d="M37.89,94.48c1.12,0.3,3.16,0.35,4.28,0.3c11.62-0.51,38.79-3.48,52.95-3.33c1.86,0.02,2.98,0.14,3.91,0.3" stroke-dasharray="61.296" stroke-dashoffset="61.296"><animate attributeName="stroke-dashoffset" values="61.296" fill="freeze" begin="7e0a.click" /><animate attributeName="stroke-dashoffset" values="61.296;61.296;0" keyTimes="0;0.908;1" dur="4.99s" fill="freeze" begin="0s;7e0a.click" /></path></g></svg>