<svg xmlns="http://www.w3.org/2000/svg" width="109" height="109" viewBox="0 0 109 109" id="7e35"><g fill="none" stroke="#666" stroke-width="6" stroke-linecap="round" stroke-linejoin="round"><g><g><path d="M29.15,11.67c0.36,1.42,0.38,2.47-0.18,4.01C26.5,22.5,21.5,29.75,16.68,35.19c-0.67,0.75-0.72,3.27,0,3.54c3.81,1.42,8.14,2.78,11.41,5.38" /><path d="M40.05,24.43c0.3,0.58,0.37,2.46,0,3.09c-5.8,9.73-14.99,21.68-22.98,29.94c-1.83,1.89,0.46,2.98,1.65,2.59c5-1.61,16.87-3.99,23.29-5.53" /><path d="M36.88,44.63c3.13,3.02,8.09,12.42,8.87,17.12" /><path d="M29.12,60.62c0.05,0.36,0.74,1.85,0.79,4.09c0.25,10.79-0.16,28.79-0.16,32.46" /><path d="M19.77,70c0.18,0.88,0.15,2.61-0.18,3.24c-2.1,4.1-7.37,12-10.35,15.51" /><path d="M38.68,68.29c2.75,3.59,4.85,11.93,5.49,15.19" /></g><g><g><path d="M53.83,14.15c0.25,0.44,0.85,1.73,0.9,2.3c0.52,5.8,2.23,15.23,2.94,23.75" /><path d="M55.17,15.91c7.31-0.96,20.92-3.08,26.38-3.88c2.01-0.3,3.1,0.97,2.93,3.29c-0.29,3.84-1.03,16.76-1.94,23.16" /><path d="M56.5,26.51c2.32-0.21,25.11-2.24,27.03-2.32" /><path d="M57.66,38c5.3-0.46,17.06-1.83,24.37-2.59" /></g><g><g><path d="M49.53,46.25c0.27,0.26,0.54,0.48,0.66,0.81c0.93,2.6,1.92,10.27,2.56,14.94" /><path d="M50.5,48.33c5.09-0.96,39.32-4.03,42.03-4.35c0.99-0.12,2.33,0.83,2.07,2.22c-0.55,2.89-2.41,9.85-3.89,13.97" /><path d="M64.17,47.25c0.16,1.52,0.6,8.95,0.75,10.66" /><path d="M78.32,45.41C78.16,48.15,77.7,53.95,77.4,57" /><path d="M52.86,60.76c3.13-0.27,33.34-1.95,37.64-2.36" /></g><g><path d="M55.03,69.34c1.33,0.27,1.5,0.68,4.15,0.27c2.66-0.41,20.54-3.5,22.37-3.91c1.83-0.41,3.13,1.61,1.77,3.46C72.34,84.1,60.26,93.37,44.02,99" /><path d="M53.5,73.5c3.84,0.6,22.59,16.59,35.95,23.15c2.08,1.02,3.6,1.7,5.53,2.04" /></g></g></g></g></g><g fill="none" stroke="#000" stroke-width="3" stroke-linecap="round" stroke-linejoin="round"><path d="M29.15,11.67c0.36,1.42,0.38,2.47-0.18,4.01C26.5,22.5,21.5,29.75,16.68,35.19c-0.67,0.75-0.72,3.27,0,3.54c3.81,1.42,8.14,2.78,11.41,5.38" stroke-dasharray="43.749" stroke-dashoffset="43.749"><animate attributeName="stroke-dashoffset" values="43.749;43.749;0" dur="0.437s" fill="freeze" begin="0s;7e35.click" /></path><path d="M40.05,24.43c0.3,0.58,0.37,2.46,0,3.09c-5.8,9.73-14.99,21.68-22.98,29.94c-1.83,1.89,0.46,2.98,1.65,2.59c5-1.61,16.87-3.99,23.29-5.53" stroke-dasharray="69.465" stroke-dashoffset="69.465"><animate attributeName="stroke-dashoffset" values="69.465" fill="freeze" begin="7e35.click" /><animate attributeName="stroke-dashoffset" values="69.465;69.465;0" keyTimes="0;0.456;1" dur="0.959s" fill="freeze" begin="0s;7e35.click" /></path><path d="M36.88,44.63c3.13,3.02,8.09,12.42,8.87,17.12" stroke-dasharray="19.467" stroke-dashoffset="19.467"><animate attributeName="stroke-dashoffset" values="19.467" fill="freeze" begin="7e35.click" /><animate attributeName="stroke-dashoffset" values="19.467;19.467;0" keyTimes="0;0.831;1" dur="1.154s" fill="freeze" begin="0s;7e35.click" /></path><path d="M29.12,60.62c0.05,0.36,0.74,1.85,0.79,4.09c0.25,10.79-0.16,28.79-0.16,32.46" stroke-dasharray="36.645" stroke-dashoffset="36.645"><animate attributeName="stroke-dashoffset" values="36.645" fill="freeze" begin="7e35.click" /><animate attributeName="stroke-dashoffset" values="36.645;36.645;0" keyTimes="0;0.759;1" dur="1.52s" fill="freeze" begin="0s;7e35.click" /></path><path d="M19.77,70c0.18,0.88,0.15,2.61-0.18,3.24c-2.1,4.1-7.37,12-10.35,15.51" stroke-dasharray="21.955" stroke-dashoffset="21.955"><animate attributeName="stroke-dashoffset" values="21.955" fill="freeze" begin="7e35.click" /><animate attributeName="stroke-dashoffset" values="21.955;21.955;0" keyTimes="0;0.874;1" dur="1.74s" fill="freeze" begin="0s;7e35.click" /></path><path d="M38.68,68.29c2.75,3.59,4.85,11.93,5.49,15.19" stroke-dasharray="16.253" stroke-dashoffset="16.253"><animate attributeName="stroke-dashoffset" values="16.253" fill="freeze" begin="7e35.click" /><animate attributeName="stroke-dashoffset" values="16.253;16.253;0" keyTimes="0;0.914;1" dur="1.903s" fill="freeze" begin="0s;7e35.click" /></path><path d="M53.83,14.15c0.25,0.44,0.85,1.73,0.9,2.3c0.52,5.8,2.23,15.23,2.94,23.75" stroke-dasharray="26.416" stroke-dashoffset="26.416"><animate attributeName="stroke-dashoffset" values="26.416" fill="freeze" begin="7e35.click" /><animate attributeName="stroke-dashoffset" values="26.416;26.416;0" keyTimes="0;0.878;1" dur="2.167s" fill="freeze" begin="0s;7e35.click" /></path><path d="M55.17,15.91c7.31-0.96,20.92-3.08,26.38-3.88c2.01-0.3,3.1,0.97,2.93,3.29c-0.29,3.84-1.03,16.76-1.94,23.16" stroke-dasharray="55.171" stroke-dashoffset="55.171"><animate attributeName="stroke-dashoffset" values="55.171" fill="freeze" begin="7e35.click" /><animate attributeName="stroke-dashoffset" values="55.171;55.171;0" keyTimes="0;0.797;1" dur="2.719s" fill="freeze" begin="0s;7e35.click" /></path><path d="M56.5,26.51c2.32-0.21,25.11-2.24,27.03-2.32" stroke-dasharray="27.131" stroke-dashoffset="27.131"><animate attributeName="stroke-dashoffset" values="27.131" fill="freeze" begin="7e35.click" /><animate attributeName="stroke-dashoffset" values="27.131;27.131;0" keyTimes="0;0.909;1" dur="2.99s" fill="freeze" begin="0s;7e35.click" /></path><path d="M57.66,38c5.3-0.46,17.06-1.83,24.37-2.59" stroke-dasharray="24.509" stroke-dashoffset="24.509"><animate attributeName="stroke-dashoffset" values="24.509" fill="freeze" begin="7e35.click" /><animate attributeName="stroke-dashoffset" values="24.509;24.509;0" keyTimes="0;0.924;1" dur="3.235s" fill="freeze" begin="0s;7e35.click" /></path><path d="M49.53,46.25c0.27,0.26,0.54,0.48,0.66,0.81c0.93,2.6,1.92,10.27,2.56,14.94" stroke-dasharray="16.229" stroke-dashoffset="16.229"><animate attributeName="stroke-dashoffset" values="16.229" fill="freeze" begin="7e35.click" /><animate attributeName="stroke-dashoffset" values="16.229;16.229;0" keyTimes="0;0.952;1" dur="3.397s" fill="freeze" begin="0s;7e35.click" /></path><path d="M50.5,48.33c5.09-0.96,39.32-4.03,42.03-4.35c0.99-0.12,2.33,0.83,2.07,2.22c-0.55,2.89-2.41,9.85-3.89,13.97" stroke-dasharray="60.267" stroke-dashoffset="60.267"><animate attributeName="stroke-dashoffset" values="60.267" fill="freeze" begin="7e35.click" /><animate attributeName="stroke-dashoffset" values="60.267;60.267;0" keyTimes="0;0.882;1" dur="3.85s" fill="freeze" begin="0s;7e35.click" /></path><path d="M64.17,47.25c0.16,1.52,0.6,8.95,0.75,10.66" stroke-dasharray="10.688" stroke-dashoffset="10.688"><animate attributeName="stroke-dashoffset" values="10.688" fill="freeze" begin="7e35.click" /><animate attributeName="stroke-dashoffset" values="10.688;10.688;0" keyTimes="0;0.973;1" dur="3.957s" fill="freeze" begin="0s;7e35.click" /></path><path d="M78.32,45.41C78.16,48.15,77.7,53.95,77.4,57" stroke-dasharray="11.628" stroke-dashoffset="11.628"><animate attributeName="stroke-dashoffset" values="11.628" fill="freeze" begin="7e35.click" /><animate attributeName="stroke-dashoffset" values="11.628;11.628;0" keyTimes="0;0.972;1" dur="4.073s" fill="freeze" begin="0s;7e35.click" /></path><path d="M52.86,60.76c3.13-0.27,33.34-1.95,37.64-2.36" stroke-dasharray="37.715" stroke-dashoffset="37.715"><animate attributeName="stroke-dashoffset" values="37.715" fill="freeze" begin="7e35.click" /><animate attributeName="stroke-dashoffset" values="37.715;37.715;0" keyTimes="0;0.915;1" dur="4.45s" fill="freeze" begin="0s;7e35.click" /></path><path d="M55.03,69.34c1.33,0.27,1.5,0.68,4.15,0.27c2.66-0.41,20.54-3.5,22.37-3.91c1.83-0.41,3.13,1.61,1.77,3.46C72.34,84.1,60.26,93.37,44.02,99" stroke-dasharray="82.273" stroke-dashoffset="82.273"><animate attributeName="stroke-dashoffset" values="82.273" fill="freeze" begin="7e35.click" /><animate attributeName="stroke-dashoffset" values="82.273;82.273;0" keyTimes="0;0.878;1" dur="5.069s" fill="freeze" begin="0s;7e35.click" /></path><path d="M53.5,73.5c3.84,0.6,22.59,16.59,35.95,23.15c2.08,1.02,3.6,1.7,5.53,2.04" stroke-dasharray="48.756" stroke-dashoffset="48.756"><animate attributeName="stroke-dashoffset" values="48.756" fill="freeze" begin="7e35.click" /><animate attributeName="stroke-dashoffset" values="48.756;48.756;0" keyTimes="0;0.912;1" dur="5.557s" fill="freeze" begin="0s;7e35.click" /></path></g></svg>