<svg xmlns="http://www.w3.org/2000/svg" width="109" height="109" viewBox="0 0 109 109" id="7e41"><g fill="none" stroke="#666" stroke-width="9" stroke-linecap="round" stroke-linejoin="round"><g><g><g p5:phon="䋣1" xmlns:p5="http://kanjivg.tagaini.net"><g><g><path d="M28.55,10.5c0.03,0.41,0.15,1.08-0.06,1.64C27,16,22.38,22.88,16.44,27.86" /></g><path d="M27.7,19.06c0.65,0.15,2.53,0.24,3.16,0.15c3.04-0.42,9.44-1.67,14.06-2.6c1.69-0.34,3.06-0.59,4.78-0.35" /></g><g p5:partial><path d="M26.51,26.43c0.49,1.07,0.5,2.03,0.2,3.37c-1.36,5.94-3.46,13.45-5.36,17.89c-0.79,1.83-0.02,2.4,1.06,2.4c4.79,0,7.89,0.14,11.83,0.31c3.14,0.13,7.64,0.6,11.11,1.6" /><path d="M28.47,28.3c0.78,0.08,1.52,0.07,1.98,0c4.7-0.62,9.92-1.55,13.26-1.98c1.99-0.25,3.23,1.29,2.87,3.04c-1.83,9.13-2.83,18.13-8.81,26.97c-1.92,2.83-2.94-0.37-3.47-1.01" /><path d="M35.8,30.56c0.26,0.57,0.34,1.36,0.23,2.09c-0.79,4.88-3.19,11.01-4.63,15.61" /><path d="M15.88,39.83c0.58,1.18,1.5,1.42,2.74,1.18c6.1-1.19,15.26-3.26,31.05-6.73" /></g></g><g><g><path d="M65.01,15.04c0.06,0.93,0.06,1.75-0.22,2.64c-1.7,5.36-5.34,12.93-10.74,20.23" /><path d="M63.53,26.51c0.86,0.19,2.46,0,2.93-0.03c4.12-0.26,10.36-2.14,15.45-3.24c1.47-0.32,2.58-0.62,4.03-0.21" /></g><g p6:phon="䋣2" xmlns:p6="http://kanjivg.tagaini.net"><g><path d="M77.62,28.01c0.13,0.99,0.06,1.96-0.32,2.88C73.5,40,70.75,43,61.17,49.72" /></g><path d="M60.85,33.4C63.67,33.94,75.58,44,83.42,49c1.95,1.25,4.1,2.65,6.33,3.35" /></g></g></g><g><path d="M53.78,49.75c0.09,1.12-0.42,1.94-1.15,2.66c-3.26,3.22-7.63,7.09-10.72,9.42c-0.57,0.43-0.35,1.76,0.25,1.91c3.18,0.76,5.42,1.78,8.15,3.18" /><path d="M66.34,54.43c0.03,0.82-0.24,1.68-1.14,2.39C56.25,64,46.75,71,36.83,78.24c-1.27,0.92-0.77,1.73,0.78,1.39c8.52-1.88,23.15-5.13,32.48-7.15" /><path d="M66.15,67.14c3.58,2.11,9.24,8.67,10.14,11.95" /><path d="M53.49,79.19c0.66,0.66,1.13,1.44,1.13,2.69c0,6.26,0,11.04,0,14.75c0,1.7-0.12,3.49-0.12,4.25" /><path d="M40.3,86.72c0.2,1.03-0.05,1.91-1.01,2.82c-2.94,2.8-10.32,7.7-14.7,9.95" /><path d="M69.37,86.09c4.24,2.29,11.52,8.41,13.03,10.7" /></g></g></g><g fill="none" stroke="#000" stroke-width="5" stroke-linecap="round" stroke-linejoin="round"><g><g><g p5:phon="䋣1" xmlns:p5="http://kanjivg.tagaini.net"><g><g><path d="M28.55,10.5c0.03,0.41,0.15,1.08-0.06,1.64C27,16,22.38,22.88,16.44,27.86" stroke-dasharray="21.63" stroke-dashoffset="21.63"><animate attributeName="stroke-dashoffset" values="21.63;21.63;0" dur="0.216s" fill="freeze" begin="0s;7e41.click" /></path></g><path d="M27.7,19.06c0.65,0.15,2.53,0.24,3.16,0.15c3.04-0.42,9.44-1.67,14.06-2.6c1.69-0.34,3.06-0.59,4.78-0.35" stroke-dasharray="22.292" stroke-dashoffset="22.292"><animate attributeName="stroke-dashoffset" values="22.292" fill="freeze" begin="7e41.click" /><animate attributeName="stroke-dashoffset" values="22.292;22.292;0" keyTimes="0;0.492;1" dur="0.439s" fill="freeze" begin="0s;7e41.click" /></path></g><g p5:partial><path d="M26.51,26.43c0.49,1.07,0.5,2.03,0.2,3.37c-1.36,5.94-3.46,13.45-5.36,17.89c-0.79,1.83-0.02,2.4,1.06,2.4c4.79,0,7.89,0.14,11.83,0.31c3.14,0.13,7.64,0.6,11.11,1.6" stroke-dasharray="48.582" stroke-dashoffset="48.582"><animate attributeName="stroke-dashoffset" values="48.582" fill="freeze" begin="7e41.click" /><animate attributeName="stroke-dashoffset" values="48.582;48.582;0" keyTimes="0;0.475;1" dur="0.925s" fill="freeze" begin="0s;7e41.click" /></path><path d="M28.47,28.3c0.78,0.08,1.52,0.07,1.98,0c4.7-0.62,9.92-1.55,13.26-1.98c1.99-0.25,3.23,1.29,2.87,3.04c-1.83,9.13-2.83,18.13-8.81,26.97c-1.92,2.83-2.94-0.37-3.47-1.01" stroke-dasharray="53.967" stroke-dashoffset="53.967"><animate attributeName="stroke-dashoffset" values="53.967" fill="freeze" begin="7e41.click" /><animate attributeName="stroke-dashoffset" values="53.967;53.967;0" keyTimes="0;0.631;1" dur="1.465s" fill="freeze" begin="0s;7e41.click" /></path><path d="M35.8,30.56c0.26,0.57,0.34,1.36,0.23,2.09c-0.79,4.88-3.19,11.01-4.63,15.61" stroke-dasharray="18.429" stroke-dashoffset="18.429"><animate attributeName="stroke-dashoffset" values="18.429" fill="freeze" begin="7e41.click" /><animate attributeName="stroke-dashoffset" values="18.429;18.429;0" keyTimes="0;0.888;1" dur="1.649s" fill="freeze" begin="0s;7e41.click" /></path><path d="M15.88,39.83c0.58,1.18,1.5,1.42,2.74,1.18c6.1-1.19,15.26-3.26,31.05-6.73" stroke-dasharray="35.039" stroke-dashoffset="35.039"><animate attributeName="stroke-dashoffset" values="35.039" fill="freeze" begin="7e41.click" /><animate attributeName="stroke-dashoffset" values="35.039;35.039;0" keyTimes="0;0.825;1" dur="1.999s" fill="freeze" begin="0s;7e41.click" /></path></g></g><g><g><path d="M65.01,15.04c0.06,0.93,0.06,1.75-0.22,2.64c-1.7,5.36-5.34,12.93-10.74,20.23" stroke-dasharray="25.665" stroke-dashoffset="25.665"><animate attributeName="stroke-dashoffset" values="25.665" fill="freeze" begin="7e41.click" /><animate attributeName="stroke-dashoffset" values="25.665;25.665;0" keyTimes="0;0.886;1" dur="2.256s" fill="freeze" begin="0s;7e41.click" /></path><path d="M63.53,26.51c0.86,0.19,2.46,0,2.93-0.03c4.12-0.26,10.36-2.14,15.45-3.24c1.47-0.32,2.58-0.62,4.03-0.21" stroke-dasharray="22.828" stroke-dashoffset="22.828"><animate attributeName="stroke-dashoffset" values="22.828" fill="freeze" begin="7e41.click" /><animate attributeName="stroke-dashoffset" values="22.828;22.828;0" keyTimes="0;0.908;1" dur="2.484s" fill="freeze" begin="0s;7e41.click" /></path></g><g p6:phon="䋣2" xmlns:p6="http://kanjivg.tagaini.net"><g><path d="M77.62,28.01c0.13,0.99,0.06,1.96-0.32,2.88C73.5,40,70.75,43,61.17,49.72" stroke-dasharray="28.213" stroke-dashoffset="28.213"><animate attributeName="stroke-dashoffset" values="28.213" fill="freeze" begin="7e41.click" /><animate attributeName="stroke-dashoffset" values="28.213;28.213;0" keyTimes="0;0.898;1" dur="2.766s" fill="freeze" begin="0s;7e41.click" /></path></g><path d="M60.85,33.4C63.67,33.94,75.58,44,83.42,49c1.95,1.25,4.1,2.65,6.33,3.35" stroke-dasharray="34.671" stroke-dashoffset="34.671"><animate attributeName="stroke-dashoffset" values="34.671" fill="freeze" begin="7e41.click" /><animate attributeName="stroke-dashoffset" values="34.671;34.671;0" keyTimes="0;0.889;1" dur="3.113s" fill="freeze" begin="0s;7e41.click" /></path></g></g></g><g><path d="M53.78,49.75c0.09,1.12-0.42,1.94-1.15,2.66c-3.26,3.22-7.63,7.09-10.72,9.42c-0.57,0.43-0.35,1.76,0.25,1.91c3.18,0.76,5.42,1.78,8.15,3.18" stroke-dasharray="28.289" stroke-dashoffset="28.289"><animate attributeName="stroke-dashoffset" values="28.289" fill="freeze" begin="7e41.click" /><animate attributeName="stroke-dashoffset" values="28.289;28.289;0" keyTimes="0;0.917;1" dur="3.396s" fill="freeze" begin="0s;7e41.click" /></path><path d="M66.34,54.43c0.03,0.82-0.24,1.68-1.14,2.39C56.25,64,46.75,71,36.83,78.24c-1.27,0.92-0.77,1.73,0.78,1.39c8.52-1.88,23.15-5.13,32.48-7.15" stroke-dasharray="74.568" stroke-dashoffset="74.568"><animate attributeName="stroke-dashoffset" values="74.568" fill="freeze" begin="7e41.click" /><animate attributeName="stroke-dashoffset" values="74.568;74.568;0" keyTimes="0;0.858;1" dur="3.957s" fill="freeze" begin="0s;7e41.click" /></path><path d="M66.15,67.14c3.58,2.11,9.24,8.67,10.14,11.95" stroke-dasharray="15.892" stroke-dashoffset="15.892"><animate attributeName="stroke-dashoffset" values="15.892" fill="freeze" begin="7e41.click" /><animate attributeName="stroke-dashoffset" values="15.892;15.892;0" keyTimes="0;0.961;1" dur="4.116s" fill="freeze" begin="0s;7e41.click" /></path><path d="M53.49,79.19c0.66,0.66,1.13,1.44,1.13,2.69c0,6.26,0,11.04,0,14.75c0,1.7-0.12,3.49-0.12,4.25" stroke-dasharray="22.008" stroke-dashoffset="22.008"><animate attributeName="stroke-dashoffset" values="22.008" fill="freeze" begin="7e41.click" /><animate attributeName="stroke-dashoffset" values="22.008;22.008;0" keyTimes="0;0.949;1" dur="4.336s" fill="freeze" begin="0s;7e41.click" /></path><path d="M40.3,86.72c0.2,1.03-0.05,1.91-1.01,2.82c-2.94,2.8-10.32,7.7-14.7,9.95" stroke-dasharray="20.938" stroke-dashoffset="20.938"><animate attributeName="stroke-dashoffset" values="20.938" fill="freeze" begin="7e41.click" /><animate attributeName="stroke-dashoffset" values="20.938;20.938;0" keyTimes="0;0.954;1" dur="4.545s" fill="freeze" begin="0s;7e41.click" /></path><path d="M69.37,86.09c4.24,2.29,11.52,8.41,13.03,10.7" stroke-dasharray="16.942" stroke-dashoffset="16.942"><animate attributeName="stroke-dashoffset" values="16.942" fill="freeze" begin="7e41.click" /><animate attributeName="stroke-dashoffset" values="16.942;16.942;0" keyTimes="0;0.964;1" dur="4.714s" fill="freeze" begin="0s;7e41.click" /></path></g></g></g></svg>