<svg xmlns="http://www.w3.org/2000/svg" viewBox="0 0 109 109" id="7e4d"><g fill="none" stroke="#666" stroke-width="6" stroke-linecap="round" stroke-linejoin="round"><g><g><path d="M25.65,14.5c0,1.12-0.21,1.96-0.91,3.19c-3,5.3-6.39,11.46-9.29,14.74c-1.28,1.45-1.81,3.57,0.53,4.49c3.14,1.23,5.65,2.32,8.27,4.2" /><path d="M34.53,25.44c0,1.18-0.28,2.18-1,3.44c-5.18,9.08-12.91,20.24-20.88,29.73c-1.61,1.92,0.43,2.83,1.57,2.47c4.75-1.53,14.16-4.33,21.28-6.58" /><path d="M34.75,49c2.21,2.25,5.7,9.25,6.25,12.75" /><path d="M25.77,60.76c0.8,0.8,1.13,1.99,1.13,3.37c0,6.09-0.01,18.39-0.02,26.5c0,3.72-0.01,6.55-0.01,7.5" /><path d="M17.75,69.25c0.11,0.9-0.18,1.92-0.36,2.57c-1.52,5.55-4.02,11.43-7.14,16.68" /><path d="M33.5,67.75c3.12,4.02,5.27,12.86,6,16.5" /></g><g><g p5:partial xmlns:p5="http://kanjivg.tagaini.net"><g><path d="M47.97,22.15c2.66,0.46,5.36,0.81,8.03,0.46c9-1.17,20.29-2.67,27.5-3.14c4.2-0.28,4.89,0.61,4.15,4.31c-0.71,3.53-1.49,8.45-2.03,13.72" /><path d="M41.5,32.3c4.75,0.57,7.56-0.04,11.75-0.46c13.25-1.34,25.6-2.7,36.51-3.41c3.35-0.5,6.68-0.37,9.99,0.37" /><path d="M48.72,41.38c2.77,0.34,5.53,0.29,8.28-0.18c8.09-0.71,15.62-1.7,23.76-2.16c2.72-0.15,5.37-0.56,8.06-0.21" /></g><g><path d="M67.61,12c1.13,1.13,1.32,2,1.32,3.21c0,0.81-0.11,47.4-0.16,70.66c-0.01,5.46-0.02,9.63-0.02,11.62" /></g></g><g p5:partial xmlns:p5="http://kanjivg.tagaini.net"><path d="M55.21,50.64c2.26,1.8,5.67,7.12,6.24,9.91" /><path d="M83.61,48.85c0.02,0.3,0.04,0.77-0.04,1.19c-0.5,2.51-3.38,8.02-7.31,11.39" /><path d="M49.62,66.91c13.13-0.91,29.26-1.79,42.52-2.19" /><path d="M68.36,66.45c0,1.42-1.23,4.06-2.02,5.54c-3.86,7.24-10.29,15.09-16.32,18.94" /><path d="M72.55,73.54c5.7,3.21,10.7,8.21,14.18,13.64" /></g><path d="M47.42,48.52c0.78,0.78,1.08,1.98,1.08,3.54c0,14.24,1,34.2-7.4,43.18" /><path d="M91.97,45.34c1.1,1.1,1.32,2.16,1.32,3.46c0,0.73,0.04,22.44,0.06,36.57c0.01,5.25,0.01,9.45,0.01,11.15" /></g></g></g><g fill="none" stroke="#000" stroke-width="3" stroke-linecap="round" stroke-linejoin="round"><path d="M25.65,14.5c0,1.12-0.21,1.96-0.91,3.19c-3,5.3-6.39,11.46-9.29,14.74c-1.28,1.45-1.81,3.57,0.53,4.49c3.14,1.23,5.65,2.32,8.27,4.2" stroke-dasharray="35.64" stroke-dashoffset="35.64"><animate attributeName="stroke-dashoffset" values="35.64;35.64;0" dur="0.356s" fill="freeze" begin="0s;7e4d.click" /></path><path d="M34.53,25.44c0,1.18-0.28,2.18-1,3.44c-5.18,9.08-12.91,20.24-20.88,29.73c-1.61,1.92,0.43,2.83,1.57,2.47c4.75-1.53,14.16-4.33,21.28-6.58" stroke-dasharray="66.559" stroke-dashoffset="66.559"><animate attributeName="stroke-dashoffset" values="66.559" fill="freeze" begin="7e4d.click" /><animate attributeName="stroke-dashoffset" values="66.559;66.559;0" keyTimes="0;0.416;1" dur="0.856s" fill="freeze" begin="0s;7e4d.click" /></path><path d="M34.75,49c2.21,2.25,5.7,9.25,6.25,12.75" stroke-dasharray="14.328" stroke-dashoffset="14.328"><animate attributeName="stroke-dashoffset" values="14.328" fill="freeze" begin="7e4d.click" /><animate attributeName="stroke-dashoffset" values="14.328;14.328;0" keyTimes="0;0.857;1" dur="0.999s" fill="freeze" begin="0s;7e4d.click" /></path><path d="M25.77,60.76c0.8,0.8,1.13,1.99,1.13,3.37c0,6.09-0.01,18.39-0.02,26.5c0,3.72-0.01,6.55-0.01,7.5" stroke-dasharray="37.649" stroke-dashoffset="37.649"><animate attributeName="stroke-dashoffset" values="37.649" fill="freeze" begin="7e4d.click" /><animate attributeName="stroke-dashoffset" values="37.649;37.649;0" keyTimes="0;0.727;1" dur="1.375s" fill="freeze" begin="0s;7e4d.click" /></path><path d="M17.75,69.25c0.11,0.9-0.18,1.92-0.36,2.57c-1.52,5.55-4.02,11.43-7.14,16.68" stroke-dasharray="20.81" stroke-dashoffset="20.81"><animate attributeName="stroke-dashoffset" values="20.81" fill="freeze" begin="7e4d.click" /><animate attributeName="stroke-dashoffset" values="20.81;20.81;0" keyTimes="0;0.869;1" dur="1.583s" fill="freeze" begin="0s;7e4d.click" /></path><path d="M33.5,67.75c3.12,4.02,5.27,12.86,6,16.5" stroke-dasharray="17.675" stroke-dashoffset="17.675"><animate attributeName="stroke-dashoffset" values="17.675" fill="freeze" begin="7e4d.click" /><animate attributeName="stroke-dashoffset" values="17.675;17.675;0" keyTimes="0;0.899;1" dur="1.76s" fill="freeze" begin="0s;7e4d.click" /></path><path d="M47.97,22.15c2.66,0.46,5.36,0.81,8.03,0.46c9-1.17,20.29-2.67,27.5-3.14c4.2-0.28,4.89,0.61,4.15,4.31c-0.71,3.53-1.49,8.45-2.03,13.72" stroke-dasharray="57.507" stroke-dashoffset="57.507"><animate attributeName="stroke-dashoffset" values="57.507" fill="freeze" begin="7e4d.click" /><animate attributeName="stroke-dashoffset" values="57.507;57.507;0" keyTimes="0;0.754;1" dur="2.335s" fill="freeze" begin="0s;7e4d.click" /></path><path d="M41.5,32.3c4.75,0.57,7.56-0.04,11.75-0.46c13.25-1.34,25.6-2.7,36.51-3.41c3.35-0.5,6.68-0.37,9.99,0.37" stroke-dasharray="58.52" stroke-dashoffset="58.52"><animate attributeName="stroke-dashoffset" values="58.52" fill="freeze" begin="7e4d.click" /><animate attributeName="stroke-dashoffset" values="58.52;58.52;0" keyTimes="0;0.8;1" dur="2.92s" fill="freeze" begin="0s;7e4d.click" /></path><path d="M48.72,41.38c2.77,0.34,5.53,0.29,8.28-0.18c8.09-0.71,15.62-1.7,23.76-2.16c2.72-0.15,5.37-0.56,8.06-0.21" stroke-dasharray="40.25" stroke-dashoffset="40.25"><animate attributeName="stroke-dashoffset" values="40.25" fill="freeze" begin="7e4d.click" /><animate attributeName="stroke-dashoffset" values="40.25;40.25;0" keyTimes="0;0.879;1" dur="3.322s" fill="freeze" begin="0s;7e4d.click" /></path><path d="M67.61,12c1.13,1.13,1.32,2,1.32,3.21c0,0.81-0.11,47.4-0.16,70.66c-0.01,5.46-0.02,9.63-0.02,11.62" stroke-dasharray="85.869" stroke-dashoffset="85.869"><animate attributeName="stroke-dashoffset" values="85.869" fill="freeze" begin="7e4d.click" /><animate attributeName="stroke-dashoffset" values="85.869;85.869;0" keyTimes="0;0.837;1" dur="3.968s" fill="freeze" begin="0s;7e4d.click" /></path><path d="M55.21,50.64c2.26,1.8,5.67,7.12,6.24,9.91" stroke-dasharray="11.853" stroke-dashoffset="11.853"><animate attributeName="stroke-dashoffset" values="11.853" fill="freeze" begin="7e4d.click" /><animate attributeName="stroke-dashoffset" values="11.853;11.853;0" keyTimes="0;0.971;1" dur="4.087s" fill="freeze" begin="0s;7e4d.click" /></path><path d="M83.61,48.85c0.02,0.3,0.04,0.77-0.04,1.19c-0.5,2.51-3.38,8.02-7.31,11.39" stroke-dasharray="14.908" stroke-dashoffset="14.908"><animate attributeName="stroke-dashoffset" values="14.908" fill="freeze" begin="7e4d.click" /><animate attributeName="stroke-dashoffset" values="14.908;14.908;0" keyTimes="0;0.965;1" dur="4.236s" fill="freeze" begin="0s;7e4d.click" /></path><path d="M49.62,66.91c13.13-0.91,29.26-1.79,42.52-2.19" stroke-dasharray="42.58" stroke-dashoffset="42.58"><animate attributeName="stroke-dashoffset" values="42.58" fill="freeze" begin="7e4d.click" /><animate attributeName="stroke-dashoffset" values="42.58;42.58;0" keyTimes="0;0.909;1" dur="4.662s" fill="freeze" begin="0s;7e4d.click" /></path><path d="M68.36,66.45c0,1.42-1.23,4.06-2.02,5.54c-3.86,7.24-10.29,15.09-16.32,18.94" stroke-dasharray="31.173" stroke-dashoffset="31.173"><animate attributeName="stroke-dashoffset" values="31.173" fill="freeze" begin="7e4d.click" /><animate attributeName="stroke-dashoffset" values="31.173;31.173;0" keyTimes="0;0.937;1" dur="4.974s" fill="freeze" begin="0s;7e4d.click" /></path><path d="M72.55,73.54c5.7,3.21,10.7,8.21,14.18,13.64" stroke-dasharray="19.866" stroke-dashoffset="19.866"><animate attributeName="stroke-dashoffset" values="19.866" fill="freeze" begin="7e4d.click" /><animate attributeName="stroke-dashoffset" values="19.866;19.866;0" keyTimes="0;0.962;1" dur="5.173s" fill="freeze" begin="0s;7e4d.click" /></path><path d="M47.42,48.52c0.78,0.78,1.08,1.98,1.08,3.54c0,14.24,1,34.2-7.4,43.18" stroke-dasharray="48.512" stroke-dashoffset="48.512"><animate attributeName="stroke-dashoffset" values="48.512" fill="freeze" begin="7e4d.click" /><animate attributeName="stroke-dashoffset" values="48.512;48.512;0" keyTimes="0;0.914;1" dur="5.658s" fill="freeze" begin="0s;7e4d.click" /></path><path d="M91.97,45.34c1.1,1.1,1.32,2.16,1.32,3.46c0,0.73,0.04,22.44,0.06,36.57c0.01,5.25,0.01,9.45,0.01,11.15" stroke-dasharray="51.541" stroke-dashoffset="51.541"><animate attributeName="stroke-dashoffset" values="51.541" fill="freeze" begin="7e4d.click" /><animate attributeName="stroke-dashoffset" values="51.541;51.541;0" keyTimes="0;0.917;1" dur="6.173s" fill="freeze" begin="0s;7e4d.click" /></path></g></svg>