<svg xmlns="http://www.w3.org/2000/svg" viewBox="0 0 109 109" id="7e5e"><g fill="none" stroke="#666" stroke-width="6" stroke-linecap="round" stroke-linejoin="round"><g><g><path d="M28.28,12.5c0.31,1.33,0.33,2.31-0.16,3.76c-2.15,6.38-8.31,13.68-12.51,18.78c-0.58,0.71-0.63,3.07,0,3.32c3.32,1.33,8.4,2.57,11.25,5.01" /><path d="M37.4,26.18c0.28,0.54,0.35,2.31,0,2.9C32,38.2,21.97,49.87,14.53,57.62c-1.71,1.78,0.42,2.79,1.54,2.43c4.66-1.51,15.72-4.21,21.7-5.66" /><path d="M33.75,47c2.21,2.33,5.7,9.6,6.25,13.23" /><path d="M26.89,60.12c0.07,0.36,0.91,1.85,0.98,4.09C28.18,75,27.67,93,27.67,96.67" /><path d="M17.26,70.25c0.16,0.9,0.14,2.68-0.16,3.32c-1.95,4.21-6.83,12.32-9.6,15.93" /><path d="M35.25,68.75c2.34,3.72,4.13,12.35,4.67,15.72" /></g><g><g><g><path d="M52.93,22.28c0.59,0.32,1.68,0.36,2.28,0.32c6.29-0.36,20.23-2.42,27.92-2.71c0.99-0.04,1.58,0.15,2.08,0.31" /><path d="M67.92,11.87c0.07,0.23,1.01,1.22,1.01,2.71c0,1.67,0.29,9.42,0.29,16.38" /><path d="M50.6,33.57C51.35,34,52.74,34.1,53.49,34c9.32-1.2,26.48-3.07,34.82-3.63c1.25-0.09,2.01,0.2,2.63,0.42" /></g><g><g><path d="M46.19,48.21c0.43,0.24,1.26,0.25,1.69,0.23c2.81-0.16,11.41-0.88,14.42-1.27c0.7-0.09,1.47-0.12,1.83,0.01" /><path d="M55.85,39.5c0.46,0.47,0.82,2.08,0.82,3.03c0,6.77,0.01,7.43,0.01,17.47" /><path d="M46.34,62.85c0.53,0.62,1.61,1.5,3.21,0.68c4.46-2.27,12.49-5.76,16.94-8.03" /></g><g><path d="M71.61,46.55c0.61,0.3,1.73,0.31,2.34,0.3c5.67-0.1,13.57-1.48,19.12-1.57c1.02-0.02,1.63,0.14,2.13,0.29" /><path d="M81.17,38.37c0.06,0.23,0.92,1.19,0.92,2.65c0,1.64-0.19,10.68-0.19,17.48" /><path d="M70.02,60.4c0.64,0.27,2.13,0.32,2.77,0.27c5.67-0.47,15.04-1.35,20.74-1.71c1.06-0.07,1.7,0.13,2.22,0.26" /></g></g></g><g><g><path d="M45.77,71.78c1.21,0.32,3.43,0.36,4.65,0.32c8.44-0.24,29.57-3.36,41.09-3.36c2.02,0,3.23,0.16,4.24,0.32" /></g><g><g><path d="M59.3,74.5c0.05,0.55,0.09,1.41-0.1,2.2c-1.36,5.42-7.26,17.09-18.2,21.05" /></g><path d="M72.84,73.16c0.57,1.14,1.05,2.49,1.05,4.25c0,2.36-0.02,4.9-0.02,10.25c0,7.84,1.13,9.58,12.7,9.58c10.09,0,11.72-2.19,11.72-9.73" /></g></g></g></g></g><g fill="none" stroke="#000" stroke-width="3" stroke-linecap="round" stroke-linejoin="round"><path d="M28.28,12.5c0.31,1.33,0.33,2.31-0.16,3.76c-2.15,6.38-8.31,13.68-12.51,18.78c-0.58,0.71-0.63,3.07,0,3.32c3.32,1.33,8.4,2.57,11.25,5.01" stroke-dasharray="42.419" stroke-dashoffset="42.419"><animate attributeName="stroke-dashoffset" values="42.419;42.419;0" dur="0.424s" fill="freeze" begin="0s;7e5e.click" /></path><path d="M37.4,26.18c0.28,0.54,0.35,2.31,0,2.9C32,38.2,21.97,49.87,14.53,57.62c-1.71,1.78,0.42,2.79,1.54,2.43c4.66-1.51,15.72-4.21,21.7-5.66" stroke-dasharray="66.294" stroke-dashoffset="66.294"><animate attributeName="stroke-dashoffset" values="66.294" fill="freeze" begin="7e5e.click" /><animate attributeName="stroke-dashoffset" values="66.294;66.294;0" keyTimes="0;0.46;1" dur="0.922s" fill="freeze" begin="0s;7e5e.click" /></path><path d="M33.75,47c2.21,2.33,5.7,9.6,6.25,13.23" stroke-dasharray="14.759" stroke-dashoffset="14.759"><animate attributeName="stroke-dashoffset" values="14.759" fill="freeze" begin="7e5e.click" /><animate attributeName="stroke-dashoffset" values="14.759;14.759;0" keyTimes="0;0.862;1" dur="1.07s" fill="freeze" begin="0s;7e5e.click" /></path><path d="M26.89,60.12c0.07,0.36,0.91,1.85,0.98,4.09C28.18,75,27.67,93,27.67,96.67" stroke-dasharray="36.694" stroke-dashoffset="36.694"><animate attributeName="stroke-dashoffset" values="36.694" fill="freeze" begin="7e5e.click" /><animate attributeName="stroke-dashoffset" values="36.694;36.694;0" keyTimes="0;0.745;1" dur="1.437s" fill="freeze" begin="0s;7e5e.click" /></path><path d="M17.26,70.25c0.16,0.9,0.14,2.68-0.16,3.32c-1.95,4.21-6.83,12.32-9.6,15.93" stroke-dasharray="21.977" stroke-dashoffset="21.977"><animate attributeName="stroke-dashoffset" values="21.977" fill="freeze" begin="7e5e.click" /><animate attributeName="stroke-dashoffset" values="21.977;21.977;0" keyTimes="0;0.867;1" dur="1.657s" fill="freeze" begin="0s;7e5e.click" /></path><path d="M35.25,68.75c2.34,3.72,4.13,12.35,4.67,15.72" stroke-dasharray="16.476" stroke-dashoffset="16.476"><animate attributeName="stroke-dashoffset" values="16.476" fill="freeze" begin="7e5e.click" /><animate attributeName="stroke-dashoffset" values="16.476;16.476;0" keyTimes="0;0.909;1" dur="1.822s" fill="freeze" begin="0s;7e5e.click" /></path><path d="M52.93,22.28c0.59,0.32,1.68,0.36,2.28,0.32c6.29-0.36,20.23-2.42,27.92-2.71c0.99-0.04,1.58,0.15,2.08,0.31" stroke-dasharray="32.499" stroke-dashoffset="32.499"><animate attributeName="stroke-dashoffset" values="32.499" fill="freeze" begin="7e5e.click" /><animate attributeName="stroke-dashoffset" values="32.499;32.499;0" keyTimes="0;0.849;1" dur="2.147s" fill="freeze" begin="0s;7e5e.click" /></path><path d="M67.92,11.87c0.07,0.23,1.01,1.22,1.01,2.71c0,1.67,0.29,9.42,0.29,16.38" stroke-dasharray="19.323" stroke-dashoffset="19.323"><animate attributeName="stroke-dashoffset" values="19.323" fill="freeze" begin="7e5e.click" /><animate attributeName="stroke-dashoffset" values="19.323;19.323;0" keyTimes="0;0.918;1" dur="2.34s" fill="freeze" begin="0s;7e5e.click" /></path><path d="M50.6,33.57C51.35,34,52.74,34.1,53.49,34c9.32-1.2,26.48-3.07,34.82-3.63c1.25-0.09,2.01,0.2,2.63,0.42" stroke-dasharray="40.661" stroke-dashoffset="40.661"><animate attributeName="stroke-dashoffset" values="40.661" fill="freeze" begin="7e5e.click" /><animate attributeName="stroke-dashoffset" values="40.661;40.661;0" keyTimes="0;0.852;1" dur="2.747s" fill="freeze" begin="0s;7e5e.click" /></path><path d="M46.19,48.21c0.43,0.24,1.26,0.25,1.69,0.23c2.81-0.16,11.41-0.88,14.42-1.27c0.7-0.09,1.47-0.12,1.83,0.01" stroke-dasharray="18.043" stroke-dashoffset="18.043"><animate attributeName="stroke-dashoffset" values="18.043" fill="freeze" begin="7e5e.click" /><animate attributeName="stroke-dashoffset" values="18.043;18.043;0" keyTimes="0;0.939;1" dur="2.927s" fill="freeze" begin="0s;7e5e.click" /></path><path d="M55.85,39.5c0.46,0.47,0.82,2.08,0.82,3.03c0,6.77,0.01,7.43,0.01,17.47" stroke-dasharray="20.656" stroke-dashoffset="20.656"><animate attributeName="stroke-dashoffset" values="20.656" fill="freeze" begin="7e5e.click" /><animate attributeName="stroke-dashoffset" values="20.656;20.656;0" keyTimes="0;0.934;1" dur="3.134s" fill="freeze" begin="0s;7e5e.click" /></path><path d="M46.34,62.85c0.53,0.62,1.61,1.5,3.21,0.68c4.46-2.27,12.49-5.76,16.94-8.03" stroke-dasharray="22.334" stroke-dashoffset="22.334"><animate attributeName="stroke-dashoffset" values="22.334" fill="freeze" begin="7e5e.click" /><animate attributeName="stroke-dashoffset" values="22.334;22.334;0" keyTimes="0;0.934;1" dur="3.357s" fill="freeze" begin="0s;7e5e.click" /></path><path d="M71.61,46.55c0.61,0.3,1.73,0.31,2.34,0.3c5.67-0.1,13.57-1.48,19.12-1.57c1.02-0.02,1.63,0.14,2.13,0.29" stroke-dasharray="23.729" stroke-dashoffset="23.729"><animate attributeName="stroke-dashoffset" values="23.729" fill="freeze" begin="7e5e.click" /><animate attributeName="stroke-dashoffset" values="23.729;23.729;0" keyTimes="0;0.934;1" dur="3.594s" fill="freeze" begin="0s;7e5e.click" /></path><path d="M81.17,38.37c0.06,0.23,0.92,1.19,0.92,2.65c0,1.64-0.19,10.68-0.19,17.48" stroke-dasharray="20.328" stroke-dashoffset="20.328"><animate attributeName="stroke-dashoffset" values="20.328" fill="freeze" begin="7e5e.click" /><animate attributeName="stroke-dashoffset" values="20.328;20.328;0" keyTimes="0;0.947;1" dur="3.797s" fill="freeze" begin="0s;7e5e.click" /></path><path d="M70.02,60.4c0.64,0.27,2.13,0.32,2.77,0.27c5.67-0.47,15.04-1.35,20.74-1.71c1.06-0.07,1.7,0.13,2.22,0.26" stroke-dasharray="25.859" stroke-dashoffset="25.859"><animate attributeName="stroke-dashoffset" values="25.859" fill="freeze" begin="7e5e.click" /><animate attributeName="stroke-dashoffset" values="25.859;25.859;0" keyTimes="0;0.936;1" dur="4.056s" fill="freeze" begin="0s;7e5e.click" /></path><path d="M45.77,71.78c1.21,0.32,3.43,0.36,4.65,0.32c8.44-0.24,29.57-3.36,41.09-3.36c2.02,0,3.23,0.16,4.24,0.32" stroke-dasharray="50.172" stroke-dashoffset="50.172"><animate attributeName="stroke-dashoffset" values="50.172" fill="freeze" begin="7e5e.click" /><animate attributeName="stroke-dashoffset" values="50.172;50.172;0" keyTimes="0;0.89;1" dur="4.558s" fill="freeze" begin="0s;7e5e.click" /></path><path d="M59.3,74.5c0.05,0.55,0.09,1.41-0.1,2.2c-1.36,5.42-7.26,17.09-18.2,21.05" stroke-dasharray="31.029" stroke-dashoffset="31.029"><animate attributeName="stroke-dashoffset" values="31.029" fill="freeze" begin="7e5e.click" /><animate attributeName="stroke-dashoffset" values="31.029;31.029;0" keyTimes="0;0.936;1" dur="4.868s" fill="freeze" begin="0s;7e5e.click" /></path><path d="M72.84,73.16c0.57,1.14,1.05,2.49,1.05,4.25c0,2.36-0.02,4.9-0.02,10.25c0,7.84,1.13,9.58,12.7,9.58c10.09,0,11.72-2.19,11.72-9.73" stroke-dasharray="52.204" stroke-dashoffset="52.204"><animate attributeName="stroke-dashoffset" values="52.204" fill="freeze" begin="7e5e.click" /><animate attributeName="stroke-dashoffset" values="52.204;52.204;0" keyTimes="0;0.903;1" dur="5.39s" fill="freeze" begin="0s;7e5e.click" /></path></g></svg>