<svg xmlns="http://www.w3.org/2000/svg" width="109" height="109" viewBox="0 0 109 109" id="7e69"><g fill="none" stroke="#666" stroke-width="6" stroke-linecap="round" stroke-linejoin="round"><g><g><path d="M28.4,13.42c0.36,1.23,0.38,2.15-0.18,3.5c-2.46,5.93-8.96,13.75-13.78,18.49c-0.67,0.66-0.72,2.85,0,3.08c3.81,1.23,9.64,2.86,12.91,5.12" /><path d="M38.32,26.18c0.3,0.53,0.37,2.27,0,2.85c-5.75,8.99-15.34,20.99-23.25,28.63c-1.81,1.75,0.45,2.75,1.63,2.4c4.95-1.49,14.69-3.13,21.05-4.56" /><path d="M33.38,46.88c2.69,2.63,6.95,10.79,7.62,14.87" /><path d="M26.39,60.62c0.07,0.36,0.91,1.85,0.98,4.09c0.31,10.79-0.2,28.79-0.2,32.46" /><path d="M17.61,70.35c0.15,0.85,0.12,2.53-0.15,3.13c-1.77,3.97-6.2,11.62-8.71,15.02" /><path d="M35.18,69.04c2.16,3.6,3.82,11.95,4.32,15.21" /></g><g><path d="M45.95,18.33c0.7,0.8,0.8,1.32,1.11,2.36c1.04,3.57,2.36,11.22,3.37,15.92" /><path d="M47.56,20.18c7.94-0.93,37.19-3.68,42.27-3.78c1.7-0.03,3.13,1.12,2.9,2.6c-0.96,6.02-1.98,10-3.23,14.25" /><path d="M50.01,33.9c1.96,0,12.14-0.76,13.74-0.76" /><path d="M76,32.84c2.86-0.61,11.29-1.54,13-1.54" /><path d="M74.85,18c0.41,0.48,0.15,3.67,0.23,4.64c0.08,0.96,0,59.09-0.08,65.11" /><path d="M63.85,19.12c0,1.88,0.01,2.67,0.01,4.56c0,12.83-0.02,52.68-0.02,58.41c0,11.91,2.14,14.43,17.75,14.43c14.66,0,17.05-2.33,17.05-11.96" /><path d="M56.95,43.38c0.02,0.15,0.08,0.44-0.04,0.61c-1.46,2.13-3.61,4.09-7.41,5.81" /><path d="M46.97,50c0.53,1,0.83,2.15,0.88,3.1c0.13,2.86-0.34,23.65-0.34,32.9" /><path d="M48.75,64.93c1.7,0,12.68-1.11,14.07-1.11" /><path d="M48.15,82.85c1.98,0,13.84-1.45,15.46-1.45" /><path d="M75.28,47.29c6.22-1.04,10.74-1.15,14.94-2.15c1.54-0.37,2.35,0.93,2.25,2.23c-0.54,6.99-0.6,27.62-1.23,34.63" /><path d="M75.45,62.72c2.05,0,14.55-1.19,16.23-1.19" /><path d="M75.15,80.6c2.21,0,13.69-0.96,15.5-0.96" /></g></g></g><g fill="none" stroke="#000" stroke-width="3" stroke-linecap="round" stroke-linejoin="round"><path d="M28.4,13.42c0.36,1.23,0.38,2.15-0.18,3.5c-2.46,5.93-8.96,13.75-13.78,18.49c-0.67,0.66-0.72,2.85,0,3.08c3.81,1.23,9.64,2.86,12.91,5.12" stroke-dasharray="44.079" stroke-dashoffset="44.079"><animate attributeName="stroke-dashoffset" values="44.079;44.079;0" dur="0.441s" fill="freeze" begin="0s;7e69.click" /></path><path d="M38.32,26.18c0.3,0.53,0.37,2.27,0,2.85c-5.75,8.99-15.34,20.99-23.25,28.63c-1.81,1.75,0.45,2.75,1.63,2.4c4.95-1.49,14.69-3.13,21.05-4.56" stroke-dasharray="65.78" stroke-dashoffset="65.78"><animate attributeName="stroke-dashoffset" values="65.78" fill="freeze" begin="7e69.click" /><animate attributeName="stroke-dashoffset" values="65.78;65.78;0" keyTimes="0;0.471;1" dur="0.936s" fill="freeze" begin="0s;7e69.click" /></path><path d="M33.38,46.88c2.69,2.63,6.95,10.79,7.62,14.87" stroke-dasharray="16.867" stroke-dashoffset="16.867"><animate attributeName="stroke-dashoffset" values="16.867" fill="freeze" begin="7e69.click" /><animate attributeName="stroke-dashoffset" values="16.867;16.867;0" keyTimes="0;0.847;1" dur="1.105s" fill="freeze" begin="0s;7e69.click" /></path><path d="M26.39,60.62c0.07,0.36,0.91,1.85,0.98,4.09c0.31,10.79-0.2,28.79-0.2,32.46" stroke-dasharray="36.694" stroke-dashoffset="36.694"><animate attributeName="stroke-dashoffset" values="36.694" fill="freeze" begin="7e69.click" /><animate attributeName="stroke-dashoffset" values="36.694;36.694;0" keyTimes="0;0.751;1" dur="1.472s" fill="freeze" begin="0s;7e69.click" /></path><path d="M17.61,70.35c0.15,0.85,0.12,2.53-0.15,3.13c-1.77,3.97-6.2,11.62-8.71,15.02" stroke-dasharray="20.545" stroke-dashoffset="20.545"><animate attributeName="stroke-dashoffset" values="20.545" fill="freeze" begin="7e69.click" /><animate attributeName="stroke-dashoffset" values="20.545;20.545;0" keyTimes="0;0.878;1" dur="1.677s" fill="freeze" begin="0s;7e69.click" /></path><path d="M35.18,69.04c2.16,3.6,3.82,11.95,4.32,15.21" stroke-dasharray="15.88" stroke-dashoffset="15.88"><animate attributeName="stroke-dashoffset" values="15.88" fill="freeze" begin="7e69.click" /><animate attributeName="stroke-dashoffset" values="15.88;15.88;0" keyTimes="0;0.913;1" dur="1.836s" fill="freeze" begin="0s;7e69.click" /></path><path d="M45.95,18.33c0.7,0.8,0.8,1.32,1.11,2.36c1.04,3.57,2.36,11.22,3.37,15.92" stroke-dasharray="18.914" stroke-dashoffset="18.914"><animate attributeName="stroke-dashoffset" values="18.914" fill="freeze" begin="7e69.click" /><animate attributeName="stroke-dashoffset" values="18.914;18.914;0" keyTimes="0;0.907;1" dur="2.025s" fill="freeze" begin="0s;7e69.click" /></path><path d="M47.56,20.18c7.94-0.93,37.19-3.68,42.27-3.78c1.7-0.03,3.13,1.12,2.9,2.6c-0.96,6.02-1.98,10-3.23,14.25" stroke-dasharray="61.507" stroke-dashoffset="61.507"><animate attributeName="stroke-dashoffset" values="61.507" fill="freeze" begin="7e69.click" /><animate attributeName="stroke-dashoffset" values="61.507;61.507;0" keyTimes="0;0.814;1" dur="2.487s" fill="freeze" begin="0s;7e69.click" /></path><path d="M50.01,33.9c1.96,0,12.14-0.76,13.74-0.76" stroke-dasharray="13.763" stroke-dashoffset="13.763"><animate attributeName="stroke-dashoffset" values="13.763" fill="freeze" begin="7e69.click" /><animate attributeName="stroke-dashoffset" values="13.763;13.763;0" keyTimes="0;0.947;1" dur="2.625s" fill="freeze" begin="0s;7e69.click" /></path><path d="M76,32.84c2.86-0.61,11.29-1.54,13-1.54" stroke-dasharray="13.1" stroke-dashoffset="13.1"><animate attributeName="stroke-dashoffset" values="13.1" fill="freeze" begin="7e69.click" /><animate attributeName="stroke-dashoffset" values="13.1;13.1;0" keyTimes="0;0.952;1" dur="2.756s" fill="freeze" begin="0s;7e69.click" /></path><path d="M74.85,18c0.41,0.48,0.15,3.67,0.23,4.64c0.08,0.96,0,59.09-0.08,65.11" stroke-dasharray="69.786" stroke-dashoffset="69.786"><animate attributeName="stroke-dashoffset" values="69.786" fill="freeze" begin="7e69.click" /><animate attributeName="stroke-dashoffset" values="69.786;69.786;0" keyTimes="0;0.84;1" dur="3.281s" fill="freeze" begin="0s;7e69.click" /></path><path d="M63.85,19.12c0,1.88,0.01,2.67,0.01,4.56c0,12.83-0.02,52.68-0.02,58.41c0,11.91,2.14,14.43,17.75,14.43c14.66,0,17.05-2.33,17.05-11.96" stroke-dasharray="115.537" stroke-dashoffset="115.537"><animate attributeName="stroke-dashoffset" values="115.537" fill="freeze" begin="7e69.click" /><animate attributeName="stroke-dashoffset" values="115.537;115.537;0" keyTimes="0;0.791;1" dur="4.15s" fill="freeze" begin="0s;7e69.click" /></path><path d="M56.95,43.38c0.02,0.15,0.08,0.44-0.04,0.61c-1.46,2.13-3.61,4.09-7.41,5.81" stroke-dasharray="10.167" stroke-dashoffset="10.167"><animate attributeName="stroke-dashoffset" values="10.167" fill="freeze" begin="7e69.click" /><animate attributeName="stroke-dashoffset" values="10.167;10.167;0" keyTimes="0;0.976;1" dur="4.252s" fill="freeze" begin="0s;7e69.click" /></path><path d="M46.97,50c0.53,1,0.83,2.15,0.88,3.1c0.13,2.86-0.34,23.65-0.34,32.9" stroke-dasharray="36.15" stroke-dashoffset="36.15"><animate attributeName="stroke-dashoffset" values="36.15" fill="freeze" begin="7e69.click" /><animate attributeName="stroke-dashoffset" values="36.15;36.15;0" keyTimes="0;0.922;1" dur="4.614s" fill="freeze" begin="0s;7e69.click" /></path><path d="M48.75,64.93c1.7,0,12.68-1.11,14.07-1.11" stroke-dasharray="14.116" stroke-dashoffset="14.116"><animate attributeName="stroke-dashoffset" values="14.116" fill="freeze" begin="7e69.click" /><animate attributeName="stroke-dashoffset" values="14.116;14.116;0" keyTimes="0;0.97;1" dur="4.755s" fill="freeze" begin="0s;7e69.click" /></path><path d="M48.15,82.85c1.98,0,13.84-1.45,15.46-1.45" stroke-dasharray="15.531" stroke-dashoffset="15.531"><animate attributeName="stroke-dashoffset" values="15.531" fill="freeze" begin="7e69.click" /><animate attributeName="stroke-dashoffset" values="15.531;15.531;0" keyTimes="0;0.968;1" dur="4.91s" fill="freeze" begin="0s;7e69.click" /></path><path d="M75.28,47.29c6.22-1.04,10.74-1.15,14.94-2.15c1.54-0.37,2.35,0.93,2.25,2.23c-0.54,6.99-0.6,27.62-1.23,34.63" stroke-dasharray="53.526" stroke-dashoffset="53.526"><animate attributeName="stroke-dashoffset" values="53.526" fill="freeze" begin="7e69.click" /><animate attributeName="stroke-dashoffset" values="53.526;53.526;0" keyTimes="0;0.902;1" dur="5.445s" fill="freeze" begin="0s;7e69.click" /></path><path d="M75.45,62.72c2.05,0,14.55-1.19,16.23-1.19" stroke-dasharray="16.276" stroke-dashoffset="16.276"><animate attributeName="stroke-dashoffset" values="16.276" fill="freeze" begin="7e69.click" /><animate attributeName="stroke-dashoffset" values="16.276;16.276;0" keyTimes="0;0.971;1" dur="5.608s" fill="freeze" begin="0s;7e69.click" /></path><path d="M75.15,80.6c2.21,0,13.69-0.96,15.5-0.96" stroke-dasharray="15.532" stroke-dashoffset="15.532"><animate attributeName="stroke-dashoffset" values="15.532" fill="freeze" begin="7e69.click" /><animate attributeName="stroke-dashoffset" values="15.532;15.532;0" keyTimes="0;0.973;1" dur="5.763s" fill="freeze" begin="0s;7e69.click" /></path></g></svg>