<svg xmlns="http://www.w3.org/2000/svg" width="109" height="109" viewBox="0 0 109 109" id="7e7c"><g fill="none" stroke="#666" stroke-width="9" stroke-linecap="round" stroke-linejoin="round"><g><g><path d="M27.69,12.92c0.3,1.33,0.31,2.32-0.15,3.77c-2.05,6.4-7.44,12.71-11.44,17.82c-0.55,0.71-0.6,3.08,0,3.33c3.16,1.33,8.01,3.08,10.72,5.52" /><path d="M37.64,24.68c0.28,0.54,0.35,2.31,0,2.9c-5.46,9.13-14.08,22.8-21.61,30.55c-1.72,1.78,0.43,2.79,1.55,2.43c4.71-1.51,12.87-4.11,18.91-5.56" /><path d="M32.63,49.63c2.87,2.05,7.4,8.43,8.12,11.62" /><path d="M26.55,61.62c0.05,0.33,0.64,1.71,0.69,3.79c0.22,10-0.14,26.68-0.14,30.09" /><path d="M17.39,72.85c0.1,0.87,0.08,2.6-0.1,3.22C16.11,80.14,13.17,88,11.5,91.5" /><path d="M34.43,70.54c3.16,3.54,5.58,11.76,6.32,14.96" /></g><g><path d="M63.17,15.02c0.22,0.75,0.24,1.26-0.11,2.13c-1.47,3.64-4.77,6.9-7.14,9.38c-0.4,0.42-0.25,1.32,0.18,1.46c2.29,0.75,5.24,1.46,8.35,2.87" /><g><path d="M68.73,23.27c0.22,0.38,0.08,1.77-0.18,2.21c-3.15,5.45-5.48,9.31-10.7,15.44c-0.7,0.82-0.45,1.82,0.44,1.62c4.73-1.07,7.65-1.84,12.33-2.84" /><path d="M68,34.5c1.5,1.56,3.86,6.4,4.24,8.82" /><path d="M84.05,15.5c0.16,0.68,0.17,1.15-0.08,1.93c-1.05,3.3-3.94,7.38-5.63,9.64c-0.29,0.38-0.18,1.2,0.13,1.33c1.63,0.68,3.49,2,5.71,3.28" /></g><g><path d="M89.9,22.98c0.19,0.33,0.07,1.55-0.16,1.94c-2.77,4.79-7.52,9.41-12.11,14.8c-0.62,0.73-0.39,1.6,0.38,1.43c4.16-0.94,7.82-2.21,11.93-3.09" /><path d="M88.12,33.66c1.81,1.69,4.68,6.96,5.13,9.59" /><path d="M49.63,53.25c8.87-0.5,30.62-2,40.85-2c1.74,0,3.18,0.25,4.26,0.5" /></g><path d="M62.41,60.02c0.17,0.63,0.19,1.06-0.08,1.78c-1.16,3.05-3.85,7.11-5.71,9.19c-0.32,0.35-0.2,1.1,0.14,1.22c1.79,0.63,3.75,1.79,5.94,3.9" /><g><path d="M67.84,66c0.17,0.32,0.06,1.49-0.14,1.87c-2.48,4.6-6.57,10.39-10.69,15.57c-0.55,0.7-0.35,1.54,0.34,1.37c3.73-0.91,8-2.9,11.68-3.74" /><path d="M68,76.75c1.76,1.63,4.56,6.71,5,9.25" /><path d="M83.3,57.37c0.13,0.74,0.14,1.24-0.07,2.09c-0.87,3.58-3.27,7.45-4.67,9.9c-0.24,0.41-0.15,1.3,0.11,1.44c1.35,0.74,3.49,1.82,5.33,3.21" /></g><g><path d="M89.15,64.73c0.19,0.36,0.06,1.7-0.16,2.13c-2.72,5.25-5.87,8.31-10.37,14.22c-0.61,0.8-0.38,1.76,0.37,1.57c4.08-1.04,6.67-1.42,10.7-2.39" /><path d="M89.62,77.16c1.55,1.33,4.01,5.49,4.4,7.56" /><path d="M47.12,17.5c1.09,0.5,1.74,2.25,1.96,3.25c0.22,1-0.72,64.25-0.72,70.5c0,1.75,0.39,3,1.89,3s36-3,38.25-3s5.25,0,7,0.5" /></g></g></g></g><g fill="none" stroke="#000" stroke-width="5" stroke-linecap="round" stroke-linejoin="round"><g><g><path d="M27.69,12.92c0.3,1.33,0.31,2.32-0.15,3.77c-2.05,6.4-7.44,12.71-11.44,17.82c-0.55,0.71-0.6,3.08,0,3.33c3.16,1.33,8.01,3.08,10.72,5.52" stroke-dasharray="40.76" stroke-dashoffset="40.76"><animate id="0" attributeName="stroke-dashoffset" values="40.76;0" dur="0.41s" fill="freeze" begin="0s;7e7c.click" /></path><path d="M37.64,24.68c0.28,0.54,0.35,2.31,0,2.9c-5.46,9.13-14.08,22.8-21.61,30.55c-1.72,1.78,0.43,2.79,1.55,2.43c4.71-1.51,12.87-4.11,18.91-5.56" stroke-dasharray="64.44" stroke-dashoffset="64.44"><animate attributeName="stroke-dashoffset" values="64.44" fill="freeze" begin="7e7c.click" /><animate id="1" attributeName="stroke-dashoffset" values="64.44;0" dur="0.48s" fill="freeze" begin="0.end" /></path><path d="M32.63,49.63c2.87,2.05,7.4,8.43,8.12,11.62" stroke-dasharray="14.35" stroke-dashoffset="14.35"><animate attributeName="stroke-dashoffset" values="14.35" fill="freeze" begin="7e7c.click" /><animate id="2" attributeName="stroke-dashoffset" values="14.35;0" dur="0.14s" fill="freeze" begin="1.end" /></path><path d="M26.55,61.62c0.05,0.33,0.64,1.71,0.69,3.79c0.22,10-0.14,26.68-0.14,30.09" stroke-dasharray="33.96" stroke-dashoffset="33.96"><animate attributeName="stroke-dashoffset" values="33.96" fill="freeze" begin="7e7c.click" /><animate id="3" attributeName="stroke-dashoffset" values="33.96;0" dur="0.34s" fill="freeze" begin="2.end" /></path><path d="M17.39,72.85c0.1,0.87,0.08,2.6-0.1,3.22C16.11,80.14,13.17,88,11.5,91.5" stroke-dasharray="19.72" stroke-dashoffset="19.72"><animate attributeName="stroke-dashoffset" values="19.72" fill="freeze" begin="7e7c.click" /><animate id="4" attributeName="stroke-dashoffset" values="19.72;0" dur="0.2s" fill="freeze" begin="3.end" /></path><path d="M34.43,70.54c3.16,3.54,5.58,11.76,6.32,14.96" stroke-dasharray="16.36" stroke-dashoffset="16.36"><animate attributeName="stroke-dashoffset" values="16.36" fill="freeze" begin="7e7c.click" /><animate id="5" attributeName="stroke-dashoffset" values="16.36;0" dur="0.16s" fill="freeze" begin="4.end" /></path></g><g><path d="M63.17,15.02c0.22,0.75,0.24,1.26-0.11,2.13c-1.47,3.64-4.77,6.9-7.14,9.38c-0.4,0.42-0.25,1.32,0.18,1.46c2.29,0.75,5.24,1.46,8.35,2.87" stroke-dasharray="24.55" stroke-dashoffset="24.55"><animate attributeName="stroke-dashoffset" values="24.55" fill="freeze" begin="7e7c.click" /><animate id="6" attributeName="stroke-dashoffset" values="24.55;0" dur="0.25s" fill="freeze" begin="5.end" /></path><g><path d="M68.73,23.27c0.22,0.38,0.08,1.77-0.18,2.21c-3.15,5.45-5.48,9.31-10.7,15.44c-0.7,0.82-0.45,1.82,0.44,1.62c4.73-1.07,7.65-1.84,12.33-2.84" stroke-dasharray="36.07" stroke-dashoffset="36.07"><animate attributeName="stroke-dashoffset" values="36.07" fill="freeze" begin="7e7c.click" /><animate id="7" attributeName="stroke-dashoffset" values="36.07;0" dur="0.36s" fill="freeze" begin="6.end" /></path><path d="M68,34.5c1.5,1.56,3.86,6.4,4.24,8.82" stroke-dasharray="9.87" stroke-dashoffset="9.87"><animate attributeName="stroke-dashoffset" values="9.87" fill="freeze" begin="7e7c.click" /><animate id="8" attributeName="stroke-dashoffset" values="9.87;0" dur="0.1s" fill="freeze" begin="7.end" /></path><path d="M84.05,15.5c0.16,0.68,0.17,1.15-0.08,1.93c-1.05,3.3-3.94,7.38-5.63,9.64c-0.29,0.38-0.18,1.2,0.13,1.33c1.63,0.68,3.49,2,5.71,3.28" stroke-dasharray="21.22" stroke-dashoffset="21.22"><animate attributeName="stroke-dashoffset" values="21.22" fill="freeze" begin="7e7c.click" /><animate id="9" attributeName="stroke-dashoffset" values="21.22;0" dur="0.21s" fill="freeze" begin="8.end" /></path></g><g><path d="M89.9,22.98c0.19,0.33,0.07,1.55-0.16,1.94c-2.77,4.79-7.52,9.41-12.11,14.8c-0.62,0.73-0.39,1.6,0.38,1.43c4.16-0.94,7.82-2.21,11.93-3.09" stroke-dasharray="35.51" stroke-dashoffset="35.51"><animate attributeName="stroke-dashoffset" values="35.51" fill="freeze" begin="7e7c.click" /><animate id="10" attributeName="stroke-dashoffset" values="35.51;0" dur="0.36s" fill="freeze" begin="9.end" /></path><path d="M88.12,33.66c1.81,1.69,4.68,6.96,5.13,9.59" stroke-dasharray="10.98" stroke-dashoffset="10.98"><animate attributeName="stroke-dashoffset" values="10.98" fill="freeze" begin="7e7c.click" /><animate id="11" attributeName="stroke-dashoffset" values="10.98;0" dur="0.11s" fill="freeze" begin="10.end" /></path><path d="M49.63,53.25c8.87-0.5,30.62-2,40.85-2c1.74,0,3.18,0.25,4.26,0.5" stroke-dasharray="45.2" stroke-dashoffset="45.2"><animate attributeName="stroke-dashoffset" values="45.2" fill="freeze" begin="7e7c.click" /><animate id="12" attributeName="stroke-dashoffset" values="45.2;0" dur="0.45s" fill="freeze" begin="11.end" /></path></g><path d="M62.41,60.02c0.17,0.63,0.19,1.06-0.08,1.78c-1.16,3.05-3.85,7.11-5.71,9.19c-0.32,0.35-0.2,1.1,0.14,1.22c1.79,0.63,3.75,1.79,5.94,3.9" stroke-dasharray="21.23" stroke-dashoffset="21.23"><animate attributeName="stroke-dashoffset" values="21.23" fill="freeze" begin="7e7c.click" /><animate id="13" attributeName="stroke-dashoffset" values="21.23;0" dur="0.21s" fill="freeze" begin="12.end" /></path><g><path d="M67.84,66c0.17,0.32,0.06,1.49-0.14,1.87c-2.48,4.6-6.57,10.39-10.69,15.57c-0.55,0.7-0.35,1.54,0.34,1.37c3.73-0.91,8-2.9,11.68-3.74" stroke-dasharray="35" stroke-dashoffset="35"><animate attributeName="stroke-dashoffset" values="35" fill="freeze" begin="7e7c.click" /><animate id="14" attributeName="stroke-dashoffset" values="35;0" dur="0.35s" fill="freeze" begin="13.end" /></path><path d="M68,76.75c1.76,1.63,4.56,6.71,5,9.25" stroke-dasharray="10.62" stroke-dashoffset="10.62"><animate attributeName="stroke-dashoffset" values="10.62" fill="freeze" begin="7e7c.click" /><animate id="15" attributeName="stroke-dashoffset" values="10.62;0" dur="0.11s" fill="freeze" begin="14.end" /></path><path d="M83.3,57.37c0.13,0.74,0.14,1.24-0.07,2.09c-0.87,3.58-3.27,7.45-4.67,9.9c-0.24,0.41-0.15,1.3,0.11,1.44c1.35,0.74,3.49,1.82,5.33,3.21" stroke-dasharray="20.85" stroke-dashoffset="20.85"><animate attributeName="stroke-dashoffset" values="20.85" fill="freeze" begin="7e7c.click" /><animate id="16" attributeName="stroke-dashoffset" values="20.85;0" dur="0.21s" fill="freeze" begin="15.end" /></path></g><g><path d="M89.15,64.73c0.19,0.36,0.06,1.7-0.16,2.13c-2.72,5.25-5.87,8.31-10.37,14.22c-0.61,0.8-0.38,1.76,0.37,1.57c4.08-1.04,6.67-1.42,10.7-2.39" stroke-dasharray="32.92" stroke-dashoffset="32.92"><animate attributeName="stroke-dashoffset" values="32.92" fill="freeze" begin="7e7c.click" /><animate id="17" attributeName="stroke-dashoffset" values="32.92;0" dur="0.33s" fill="freeze" begin="16.end" /></path><path d="M89.62,77.16c1.55,1.33,4.01,5.49,4.4,7.56" stroke-dasharray="8.84" stroke-dashoffset="8.84"><animate attributeName="stroke-dashoffset" values="8.84" fill="freeze" begin="7e7c.click" /><animate id="18" attributeName="stroke-dashoffset" values="8.84;0" dur="0.09s" fill="freeze" begin="17.end" /></path><path d="M47.12,17.5c1.09,0.5,1.74,2.25,1.96,3.25c0.22,1-0.72,64.25-0.72,70.5c0,1.75,0.39,3,1.89,3s36-3,38.25-3s5.25,0,7,0.5" stroke-dasharray="123.86" stroke-dashoffset="123.86"><animate attributeName="stroke-dashoffset" values="123.86" fill="freeze" begin="7e7c.click" /><animate id="19" attributeName="stroke-dashoffset" values="123.86;0" dur="0.93s" fill="freeze" begin="18.end" /></path></g></g></g></g></svg>