<svg xmlns="http://www.w3.org/2000/svg" width="109" height="109" viewBox="0 0 109 109" id="7e7d"><g fill="none" stroke="#666" stroke-width="6" stroke-linecap="round" stroke-linejoin="round"><g><g><path d="M28.94,14.67c0.29,1.28,0.31,2.22-0.15,3.62c-2,6.14-7.79,12.68-11.71,17.58c-0.54,0.68-0.59,2.95,0,3.19c3.1,1.28,7.35,2.46,10,4.8" /><path d="M37.46,28.68c0.27,0.51,0.33,2.17,0,2.72c-5.18,8.59-14.83,19.57-21.96,26.87c-1.64,1.67,0.41,2.63,1.47,2.29c4.46-1.42,15.06-3.96,20.79-5.33" /><path d="M33.25,48c2.29,2.12,5.93,8.71,6.5,12" /><path d="M27.42,60.62c0.05,0.36,0.65,1.85,0.69,4.09c0.22,10.79-0.14,28.79-0.14,32.46" /><path d="M18.36,70.35c0.14,0.86,0.12,2.56-0.14,3.18c-1.72,4.02-6.03,11.78-8.47,15.23" /><path d="M35,67.5c3.37,3.96,5.96,13.16,6.75,16.75" /></g><g><g><g><path d="M67.98,11.05c0.6,0.35,1.45,2.06,1.43,3.07c-0.04,3.17-0.04,5.25-0.05,8.14" /><g><path d="M49.1,21.75c0,2.63-2.09,10.75-2.88,12.5" /><path d="M49.5,23.95c6.13-0.79,35.84-2.6,40.81-2.9c7.77-0.47,1.65,6.2-0.29,7.89" /></g></g><path d="M54.5,32.22c1.03,0.27,2.9,0.3,3.94,0.27c7-0.19,15.98-1.59,21.68-1.85c1.71-0.08,2.74,0.13,3.59,0.26" /><g><g p7:partial xmlns:p7="http://kanjivg.tagaini.net"><path d="M67.94,32.86c0.04,0.25,0.58,1.28,0.62,2.84c0.2,7.5-0.13,6.84-0.13,9.4c0,7.25-3.56,0.77-4.31,0.13" /><path d="M55.7,40.04c0.03,0.27,0.11,0.71-0.06,1.08c-1.2,2.7-6.27,7.89-10.39,10.38" /></g><g><path d="M84.75,38c0.12,0.57,0.01,2.02-0.7,2.74c-6.45,6.48-22.58,15.1-42.8,21.51" /></g></g></g><g><g><path d="M56.36,57.5c0.37,0.9,0.55,1.54,0.55,3.02c0,3.35-0.17,14.85-0.17,24.53" /><path d="M58.26,56.6c2.71-0.2,23.32-1.66,25.79-1.89c2.05-0.2,3.15,1.09,3.15,2.58c0,3.63-0.61,25.7-0.61,26.89" /><path d="M57.52,64.7c4.88-0.12,23.82-1.32,28.01-1.32" /><path d="M58.74,73.51c7.23-0.52,19.65-1.58,27.32-1.68" /><path d="M58.39,82.55c7.17-0.48,20.88-1.75,27.42-1.75" /></g><g><path d="M63.95,87.09c0.05,1.41,0,1.7-1,2.38c-3.03,2.07-10.86,7.15-16.92,9.59" /><path d="M80,87.61c5.97,3.07,13.03,8.64,14.66,11.33" /></g></g></g></g></g><g fill="none" stroke="#000" stroke-width="3" stroke-linecap="round" stroke-linejoin="round"><path d="M28.94,14.67c0.29,1.28,0.31,2.22-0.15,3.62c-2,6.14-7.79,12.68-11.71,17.58c-0.54,0.68-0.59,2.95,0,3.19c3.1,1.28,7.35,2.46,10,4.8" stroke-dasharray="39.454" stroke-dashoffset="39.454"><animate attributeName="stroke-dashoffset" values="39.454;39.454;0" dur="0.395s" fill="freeze" begin="0s;7e7d.click" /></path><path d="M37.46,28.68c0.27,0.51,0.33,2.17,0,2.72c-5.18,8.59-14.83,19.57-21.96,26.87c-1.64,1.67,0.41,2.63,1.47,2.29c4.46-1.42,15.06-3.96,20.79-5.33" stroke-dasharray="63.057" stroke-dashoffset="63.057"><animate attributeName="stroke-dashoffset" values="63.057" fill="freeze" begin="7e7d.click" /><animate attributeName="stroke-dashoffset" values="63.057;63.057;0" keyTimes="0;0.455;1" dur="0.869s" fill="freeze" begin="0s;7e7d.click" /></path><path d="M33.25,48c2.29,2.12,5.93,8.71,6.5,12" stroke-dasharray="13.785" stroke-dashoffset="13.785"><animate attributeName="stroke-dashoffset" values="13.785" fill="freeze" begin="7e7d.click" /><animate attributeName="stroke-dashoffset" values="13.785;13.785;0" keyTimes="0;0.863;1" dur="1.007s" fill="freeze" begin="0s;7e7d.click" /></path><path d="M27.42,60.62c0.05,0.36,0.65,1.85,0.69,4.09c0.22,10.79-0.14,28.79-0.14,32.46" stroke-dasharray="36.624" stroke-dashoffset="36.624"><animate attributeName="stroke-dashoffset" values="36.624" fill="freeze" begin="7e7d.click" /><animate attributeName="stroke-dashoffset" values="36.624;36.624;0" keyTimes="0;0.733;1" dur="1.373s" fill="freeze" begin="0s;7e7d.click" /></path><path d="M18.36,70.35c0.14,0.86,0.12,2.56-0.14,3.18c-1.72,4.02-6.03,11.78-8.47,15.23" stroke-dasharray="20.654" stroke-dashoffset="20.654"><animate attributeName="stroke-dashoffset" values="20.654" fill="freeze" begin="7e7d.click" /><animate attributeName="stroke-dashoffset" values="20.654;20.654;0" keyTimes="0;0.869;1" dur="1.58s" fill="freeze" begin="0s;7e7d.click" /></path><path d="M35,67.5c3.37,3.96,5.96,13.16,6.75,16.75" stroke-dasharray="18.189" stroke-dashoffset="18.189"><animate attributeName="stroke-dashoffset" values="18.189" fill="freeze" begin="7e7d.click" /><animate attributeName="stroke-dashoffset" values="18.189;18.189;0" keyTimes="0;0.897;1" dur="1.762s" fill="freeze" begin="0s;7e7d.click" /></path><path d="M67.98,11.05c0.6,0.35,1.45,2.06,1.43,3.07c-0.04,3.17-0.04,5.25-0.05,8.14" stroke-dasharray="11.619" stroke-dashoffset="11.619"><animate attributeName="stroke-dashoffset" values="11.619" fill="freeze" begin="7e7d.click" /><animate attributeName="stroke-dashoffset" values="11.619;11.619;0" keyTimes="0;0.938;1" dur="1.878s" fill="freeze" begin="0s;7e7d.click" /></path><path d="M49.1,21.75c0,2.63-2.09,10.75-2.88,12.5" stroke-dasharray="12.864" stroke-dashoffset="12.864"><animate attributeName="stroke-dashoffset" values="12.864" fill="freeze" begin="7e7d.click" /><animate attributeName="stroke-dashoffset" values="12.864;12.864;0" keyTimes="0;0.936;1" dur="2.007s" fill="freeze" begin="0s;7e7d.click" /></path><path d="M49.5,23.95c6.13-0.79,35.84-2.6,40.81-2.9c7.77-0.47,1.65,6.2-0.29,7.89" stroke-dasharray="53.21" stroke-dashoffset="53.21"><animate attributeName="stroke-dashoffset" values="53.21" fill="freeze" begin="7e7d.click" /><animate attributeName="stroke-dashoffset" values="53.21;53.21;0" keyTimes="0;0.79;1" dur="2.539s" fill="freeze" begin="0s;7e7d.click" /></path><path d="M54.5,32.22c1.03,0.27,2.9,0.3,3.94,0.27c7-0.19,15.98-1.59,21.68-1.85c1.71-0.08,2.74,0.13,3.59,0.26" stroke-dasharray="29.331" stroke-dashoffset="29.331"><animate attributeName="stroke-dashoffset" values="29.331" fill="freeze" begin="7e7d.click" /><animate attributeName="stroke-dashoffset" values="29.331;29.331;0" keyTimes="0;0.897;1" dur="2.832s" fill="freeze" begin="0s;7e7d.click" /></path><path d="M67.94,32.86c0.04,0.25,0.58,1.28,0.62,2.84c0.2,7.5-0.13,6.84-0.13,9.4c0,7.25-3.56,0.77-4.31,0.13" stroke-dasharray="20.867" stroke-dashoffset="20.867"><animate attributeName="stroke-dashoffset" values="20.867" fill="freeze" begin="7e7d.click" /><animate attributeName="stroke-dashoffset" values="20.867;20.867;0" keyTimes="0;0.931;1" dur="3.041s" fill="freeze" begin="0s;7e7d.click" /></path><path d="M55.7,40.04c0.03,0.27,0.11,0.71-0.06,1.08c-1.2,2.7-6.27,7.89-10.39,10.38" stroke-dasharray="15.926" stroke-dashoffset="15.926"><animate attributeName="stroke-dashoffset" values="15.926" fill="freeze" begin="7e7d.click" /><animate attributeName="stroke-dashoffset" values="15.926;15.926;0" keyTimes="0;0.95;1" dur="3.2s" fill="freeze" begin="0s;7e7d.click" /></path><path d="M84.75,38c0.12,0.57,0.01,2.02-0.7,2.74c-6.45,6.48-22.58,15.1-42.8,21.51" stroke-dasharray="51.156" stroke-dashoffset="51.156"><animate attributeName="stroke-dashoffset" values="51.156" fill="freeze" begin="7e7d.click" /><animate attributeName="stroke-dashoffset" values="51.156;51.156;0" keyTimes="0;0.862;1" dur="3.712s" fill="freeze" begin="0s;7e7d.click" /></path><path d="M56.36,57.5c0.37,0.9,0.55,1.54,0.55,3.02c0,3.35-0.17,14.85-0.17,24.53" stroke-dasharray="27.627" stroke-dashoffset="27.627"><animate attributeName="stroke-dashoffset" values="27.627" fill="freeze" begin="7e7d.click" /><animate attributeName="stroke-dashoffset" values="27.627;27.627;0" keyTimes="0;0.931;1" dur="3.988s" fill="freeze" begin="0s;7e7d.click" /></path><path d="M58.26,56.6c2.71-0.2,23.32-1.66,25.79-1.89c2.05-0.2,3.15,1.09,3.15,2.58c0,3.63-0.61,25.7-0.61,26.89" stroke-dasharray="57.413" stroke-dashoffset="57.413"><animate attributeName="stroke-dashoffset" values="57.413" fill="freeze" begin="7e7d.click" /><animate attributeName="stroke-dashoffset" values="57.413;57.413;0" keyTimes="0;0.874;1" dur="4.562s" fill="freeze" begin="0s;7e7d.click" /></path><path d="M57.52,64.7c4.88-0.12,23.82-1.32,28.01-1.32" stroke-dasharray="28.043" stroke-dashoffset="28.043"><animate attributeName="stroke-dashoffset" values="28.043" fill="freeze" begin="7e7d.click" /><animate attributeName="stroke-dashoffset" values="28.043;28.043;0" keyTimes="0;0.942;1" dur="4.842s" fill="freeze" begin="0s;7e7d.click" /></path><path d="M58.74,73.51c7.23-0.52,19.65-1.58,27.32-1.68" stroke-dasharray="27.376" stroke-dashoffset="27.376"><animate attributeName="stroke-dashoffset" values="27.376" fill="freeze" begin="7e7d.click" /><animate attributeName="stroke-dashoffset" values="27.376;27.376;0" keyTimes="0;0.946;1" dur="5.116s" fill="freeze" begin="0s;7e7d.click" /></path><path d="M58.39,82.55c7.17-0.48,20.88-1.75,27.42-1.75" stroke-dasharray="27.481" stroke-dashoffset="27.481"><animate attributeName="stroke-dashoffset" values="27.481" fill="freeze" begin="7e7d.click" /><animate attributeName="stroke-dashoffset" values="27.481;27.481;0" keyTimes="0;0.949;1" dur="5.391s" fill="freeze" begin="0s;7e7d.click" /></path><path d="M63.95,87.09c0.05,1.41,0,1.7-1,2.38c-3.03,2.07-10.86,7.15-16.92,9.59" stroke-dasharray="22.258" stroke-dashoffset="22.258"><animate attributeName="stroke-dashoffset" values="22.258" fill="freeze" begin="7e7d.click" /><animate attributeName="stroke-dashoffset" values="22.258;22.258;0" keyTimes="0;0.96;1" dur="5.614s" fill="freeze" begin="0s;7e7d.click" /></path><path d="M80,87.61c5.97,3.07,13.03,8.64,14.66,11.33" stroke-dasharray="18.661" stroke-dashoffset="18.661"><animate attributeName="stroke-dashoffset" values="18.661" fill="freeze" begin="7e7d.click" /><animate attributeName="stroke-dashoffset" values="18.661;18.661;0" keyTimes="0;0.968;1" dur="5.801s" fill="freeze" begin="0s;7e7d.click" /></path></g></svg>