<svg xmlns="http://www.w3.org/2000/svg" width="109" height="109" viewBox="0 0 109 109" id="7e9b"><g fill="none" stroke="#666" stroke-width="9" stroke-linecap="round" stroke-linejoin="round"><g><g><g><g p6:part="1" xmlns:p6="http://kanjivg.tagaini.net"><g><path d="M25.8,15.36c1.13,0.32,3.21,0.45,4.34,0.44c8.17-0.12,40.08-2.92,47.12-3.11c1.88-0.05,2.66,0.03,3.66,0.11" /></g><path d="M52.29,6.72c0.54,0.14,1.29,2.25,1.29,2.5c0,3.46,0.25,13.26,0.3,17.15" /><g p6:part="2"><g><path d="M27.84,21.67c1.02,0.29,2.9,0.42,3.92,0.42c7.37-0.01,36.17-3.22,42.53-3.3c1.7-0.02,2.95,0.08,3.85,0.16" /></g><g><path d="M16.38,28.43c1.42,0.29,4.01,0.52,5.42,0.47c13.13-0.43,52.99-4.18,66.14-4.15c2.34,0.01,4.17-0.12,5.81,0.19" /></g></g></g><g p6:partial xmlns:p6="http://kanjivg.tagaini.net"><path d="M34.75,32.5c0.98,0.41,1.27,1.91,1,3c-1,4-1.75,8-4.61,12.08c-1.16,1.65-0.46,2.21,1.41,2.09c3.55-0.21,42.74-5.15,47.45-1.92" /><path d="M36.75,34.06c14.5-1.06,30.6-2.15,35.41-2.44c2.09-0.12,3.48,1.67,3.28,2.9C74.5,40.25,74,44,72.37,48.09c-2.19,5.48-3.62,3.66-5.71,2.2" /><path d="M53.38,33.81c0.15,0.28,0.41,0.91,0.37,1.27c-0.29,2.68-1.08,6.44-2.5,12.17" /><path d="M16.88,41.76c1.51,0.58,4.29,0.72,5.81,0.58c17.57-1.59,47.6-3.91,65.02-4.51c2.52-0.09,4.04,0.28,5.3,0.57" /></g></g></g><g><g><g><g><path d="M27.19,55.56c0.13,0.48,0.32,1.35,0.32,1.99c0,0.64,0.58,17.51,0.58,17.82s0.04,0.32,0.09,0.96" /><path d="M28.01,56.48c1.81-0.07,16.2-1.02,17.85-1.11c1.38-0.07,2.46,0.41,2.35,0.96c-0.15,0.69-0.53,18.98-0.64,19.42" /><path d="M28.52,62.04c3.5-0.1,15.03-0.96,17.87-0.96" /><path d="M28.14,68.23c4.91-0.23,13.55-0.83,18.32-0.83" /><path d="M29.5,75.59c4.01,0,12.44-1.39,17.63-1.39" /></g><path d="M18.57,61.74c0.45,0.57,1.05,1,1.05,2c0,1-0.27,15.48-0.27,16.76c0,1.9,1.12,2.24,2.77,2.1c1.65-0.14,25.35-1.5,26.7-1.5c1.35,0,3-0.14,4.06,0" /></g><g><path d="M35.11,82.04c0.09,0.25,1.28,1.28,1.28,2.85c0,7.61-0.26,11.15-0.26,15.86" /><path d="M25.3,87.78c0.03,0.23,0.07,0.6-0.07,0.93c-0.82,1.97-5.51,6.29-11.93,8.93" /><path d="M43.29,86.89c2.51,1.36,6.49,5.58,7.11,7.69" /></g></g><g><g><path d="M85.39,47.6c0.08,0.22,0.17,0.57-0.17,0.89c-1.98,1.88-13.37,6.01-28.95,8.54" /></g><g><path d="M70.82,54.39c0.3,0.89,0.04,1.62-0.65,2.51c-2.51,3.23-6.16,5.99-10.96,9.83c-0.58,0.47,0.41,1.24,1.04,1.27c3.79,0.17,5.75,1.5,8.5,2" /><path d="M83.12,55.4c0.38,0.85-0.06,2.28-0.5,2.74C75.89,65,70.11,70.33,61.13,77.71c-1.08,0.89-0.65,2.04,0.66,1.76C67.25,78.3,79.47,76.12,86.5,75" /><path d="M81.25,68.25c3.71,2.12,9.58,8.69,10.51,11.98" /><path d="M73.19,77.6c0.08,0.14,1.16,0.75,1.25,1.66c0.4,4.38-0.25,19.7-0.25,21.19" /><path d="M65.85,85.19c0.4,0.81-0.09,2.43-0.44,2.81c-2.27,2.48-8.2,7.13-11.41,9.26" /><path d="M82.88,85.69C87.67,87.9,92.93,93.73,94.25,96" /></g></g></g></g></g><g fill="none" stroke="#000" stroke-width="5" stroke-linecap="round" stroke-linejoin="round"><g><g><g><g p6:part="1" xmlns:p6="http://kanjivg.tagaini.net"><g><path d="M25.8,15.36c1.13,0.32,3.21,0.45,4.34,0.44c8.17-0.12,40.08-2.92,47.12-3.11c1.88-0.05,2.66,0.03,3.66,0.11" stroke-dasharray="55.26" stroke-dashoffset="55.26"><animate id="0" attributeName="stroke-dashoffset" values="55.26;0" dur="0.55s" fill="freeze" begin="0s;7e9b.click" /></path></g><path d="M52.29,6.72c0.54,0.14,1.29,2.25,1.29,2.5c0,3.46,0.25,13.26,0.3,17.15" stroke-dasharray="20.03" stroke-dashoffset="20.03"><animate attributeName="stroke-dashoffset" values="20.03" fill="freeze" begin="7e9b.click" /><animate id="1" attributeName="stroke-dashoffset" values="20.03;0" dur="0.2s" fill="freeze" begin="0.end" /></path><g p6:part="2"><g><path d="M27.84,21.67c1.02,0.29,2.9,0.42,3.92,0.42c7.37-0.01,36.17-3.22,42.53-3.3c1.7-0.02,2.95,0.08,3.85,0.16" stroke-dasharray="50.47" stroke-dashoffset="50.47"><animate attributeName="stroke-dashoffset" values="50.47" fill="freeze" begin="7e9b.click" /><animate id="2" attributeName="stroke-dashoffset" values="50.47;0" dur="0.5s" fill="freeze" begin="1.end" /></path></g><g><path d="M16.38,28.43c1.42,0.29,4.01,0.52,5.42,0.47c13.13-0.43,52.99-4.18,66.14-4.15c2.34,0.01,4.17-0.12,5.81,0.19" stroke-dasharray="77.55" stroke-dashoffset="77.55"><animate attributeName="stroke-dashoffset" values="77.55" fill="freeze" begin="7e9b.click" /><animate id="3" attributeName="stroke-dashoffset" values="77.55;0" dur="0.58s" fill="freeze" begin="2.end" /></path></g></g></g><g p6:partial xmlns:p6="http://kanjivg.tagaini.net"><path d="M34.75,32.5c0.98,0.41,1.27,1.91,1,3c-1,4-1.75,8-4.61,12.08c-1.16,1.65-0.46,2.21,1.41,2.09c3.55-0.21,42.74-5.15,47.45-1.92" stroke-dasharray="67.97" stroke-dashoffset="67.97"><animate attributeName="stroke-dashoffset" values="67.97" fill="freeze" begin="7e9b.click" /><animate id="4" attributeName="stroke-dashoffset" values="67.97;0" dur="0.51s" fill="freeze" begin="3.end" /></path><path d="M36.75,34.06c14.5-1.06,30.6-2.15,35.41-2.44c2.09-0.12,3.48,1.67,3.28,2.9C74.5,40.25,74,44,72.37,48.09c-2.19,5.48-3.62,3.66-5.71,2.2" stroke-dasharray="62.53" stroke-dashoffset="62.53"><animate attributeName="stroke-dashoffset" values="62.53" fill="freeze" begin="7e9b.click" /><animate id="5" attributeName="stroke-dashoffset" values="62.53;0" dur="0.47s" fill="freeze" begin="4.end" /></path><path d="M53.38,33.81c0.15,0.28,0.41,0.91,0.37,1.27c-0.29,2.68-1.08,6.44-2.5,12.17" stroke-dasharray="13.77" stroke-dashoffset="13.77"><animate attributeName="stroke-dashoffset" values="13.77" fill="freeze" begin="7e9b.click" /><animate id="6" attributeName="stroke-dashoffset" values="13.77;0" dur="0.14s" fill="freeze" begin="5.end" /></path><path d="M16.88,41.76c1.51,0.58,4.29,0.72,5.81,0.58c17.57-1.59,47.6-3.91,65.02-4.51c2.52-0.09,4.04,0.28,5.3,0.57" stroke-dasharray="76.41" stroke-dashoffset="76.41"><animate attributeName="stroke-dashoffset" values="76.41" fill="freeze" begin="7e9b.click" /><animate id="7" attributeName="stroke-dashoffset" values="76.41;0" dur="0.57s" fill="freeze" begin="6.end" /></path></g></g></g><g><g><g><g><path d="M27.19,55.56c0.13,0.48,0.32,1.35,0.32,1.99c0,0.64,0.58,17.51,0.58,17.82s0.04,0.32,0.09,0.96" stroke-dasharray="20.81" stroke-dashoffset="20.81"><animate attributeName="stroke-dashoffset" values="20.81" fill="freeze" begin="7e9b.click" /><animate id="8" attributeName="stroke-dashoffset" values="20.81;0" dur="0.21s" fill="freeze" begin="7.end" /></path><path d="M28.01,56.48c1.81-0.07,16.2-1.02,17.85-1.11c1.38-0.07,2.46,0.41,2.35,0.96c-0.15,0.69-0.53,18.98-0.64,19.42" stroke-dasharray="40.1" stroke-dashoffset="40.1"><animate attributeName="stroke-dashoffset" values="40.1" fill="freeze" begin="7e9b.click" /><animate id="9" attributeName="stroke-dashoffset" values="40.1;0" dur="0.4s" fill="freeze" begin="8.end" /></path><path d="M28.52,62.04c3.5-0.1,15.03-0.96,17.87-0.96" stroke-dasharray="17.9" stroke-dashoffset="17.9"><animate attributeName="stroke-dashoffset" values="17.9" fill="freeze" begin="7e9b.click" /><animate id="10" attributeName="stroke-dashoffset" values="17.9;0" dur="0.18s" fill="freeze" begin="9.end" /></path><path d="M28.14,68.23c4.91-0.23,13.55-0.83,18.32-0.83" stroke-dasharray="18.34" stroke-dashoffset="18.34"><animate attributeName="stroke-dashoffset" values="18.34" fill="freeze" begin="7e9b.click" /><animate id="11" attributeName="stroke-dashoffset" values="18.34;0" dur="0.18s" fill="freeze" begin="10.end" /></path><path d="M29.5,75.59c4.01,0,12.44-1.39,17.63-1.39" stroke-dasharray="17.69" stroke-dashoffset="17.69"><animate attributeName="stroke-dashoffset" values="17.69" fill="freeze" begin="7e9b.click" /><animate id="12" attributeName="stroke-dashoffset" values="17.69;0" dur="0.18s" fill="freeze" begin="11.end" /></path></g><path d="M18.57,61.74c0.45,0.57,1.05,1,1.05,2c0,1-0.27,15.48-0.27,16.76c0,1.9,1.12,2.24,2.77,2.1c1.65-0.14,25.35-1.5,26.7-1.5c1.35,0,3-0.14,4.06,0" stroke-dasharray="54.01" stroke-dashoffset="54.01"><animate attributeName="stroke-dashoffset" values="54.01" fill="freeze" begin="7e9b.click" /><animate id="13" attributeName="stroke-dashoffset" values="54.01;0" dur="0.54s" fill="freeze" begin="12.end" /></path></g><g><path d="M35.11,82.04c0.09,0.25,1.28,1.28,1.28,2.85c0,7.61-0.26,11.15-0.26,15.86" stroke-dasharray="19.05" stroke-dashoffset="19.05"><animate attributeName="stroke-dashoffset" values="19.05" fill="freeze" begin="7e9b.click" /><animate id="14" attributeName="stroke-dashoffset" values="19.05;0" dur="0.19s" fill="freeze" begin="13.end" /></path><path d="M25.3,87.78c0.03,0.23,0.07,0.6-0.07,0.93c-0.82,1.97-5.51,6.29-11.93,8.93" stroke-dasharray="16.08" stroke-dashoffset="16.08"><animate attributeName="stroke-dashoffset" values="16.08" fill="freeze" begin="7e9b.click" /><animate id="15" attributeName="stroke-dashoffset" values="16.08;0" dur="0.16s" fill="freeze" begin="14.end" /></path><path d="M43.29,86.89c2.51,1.36,6.49,5.58,7.11,7.69" stroke-dasharray="10.62" stroke-dashoffset="10.62"><animate attributeName="stroke-dashoffset" values="10.62" fill="freeze" begin="7e9b.click" /><animate id="16" attributeName="stroke-dashoffset" values="10.62;0" dur="0.11s" fill="freeze" begin="15.end" /></path></g></g><g><g><path d="M85.39,47.6c0.08,0.22,0.17,0.57-0.17,0.89c-1.98,1.88-13.37,6.01-28.95,8.54" stroke-dasharray="31.33" stroke-dashoffset="31.33"><animate attributeName="stroke-dashoffset" values="31.33" fill="freeze" begin="7e9b.click" /><animate id="17" attributeName="stroke-dashoffset" values="31.33;0" dur="0.31s" fill="freeze" begin="16.end" /></path></g><g><path d="M70.82,54.39c0.3,0.89,0.04,1.62-0.65,2.51c-2.51,3.23-6.16,5.99-10.96,9.83c-0.58,0.47,0.41,1.24,1.04,1.27c3.79,0.17,5.75,1.5,8.5,2" stroke-dasharray="28.27" stroke-dashoffset="28.27"><animate attributeName="stroke-dashoffset" values="28.27" fill="freeze" begin="7e9b.click" /><animate id="18" attributeName="stroke-dashoffset" values="28.27;0" dur="0.28s" fill="freeze" begin="17.end" /></path><path d="M83.12,55.4c0.38,0.85-0.06,2.28-0.5,2.74C75.89,65,70.11,70.33,61.13,77.71c-1.08,0.89-0.65,2.04,0.66,1.76C67.25,78.3,79.47,76.12,86.5,75" stroke-dasharray="60.05" stroke-dashoffset="60.05"><animate attributeName="stroke-dashoffset" values="60.05" fill="freeze" begin="7e9b.click" /><animate id="19" attributeName="stroke-dashoffset" values="60.05;0" dur="0.45s" fill="freeze" begin="18.end" /></path><path d="M81.25,68.25c3.71,2.12,9.58,8.69,10.51,11.98" stroke-dasharray="16.16" stroke-dashoffset="16.16"><animate attributeName="stroke-dashoffset" values="16.16" fill="freeze" begin="7e9b.click" /><animate id="20" attributeName="stroke-dashoffset" values="16.16;0" dur="0.16s" fill="freeze" begin="19.end" /></path><path d="M73.19,77.6c0.08,0.14,1.16,0.75,1.25,1.66c0.4,4.38-0.25,19.7-0.25,21.19" stroke-dasharray="23.33" stroke-dashoffset="23.33"><animate attributeName="stroke-dashoffset" values="23.33" fill="freeze" begin="7e9b.click" /><animate id="21" attributeName="stroke-dashoffset" values="23.33;0" dur="0.23s" fill="freeze" begin="20.end" /></path><path d="M65.85,85.19c0.4,0.81-0.09,2.43-0.44,2.81c-2.27,2.48-8.2,7.13-11.41,9.26" stroke-dasharray="17.66" stroke-dashoffset="17.66"><animate attributeName="stroke-dashoffset" values="17.66" fill="freeze" begin="7e9b.click" /><animate id="22" attributeName="stroke-dashoffset" values="17.66;0" dur="0.18s" fill="freeze" begin="21.end" /></path><path d="M82.88,85.69C87.67,87.9,92.93,93.73,94.25,96" stroke-dasharray="15.51" stroke-dashoffset="15.51"><animate attributeName="stroke-dashoffset" values="15.51" fill="freeze" begin="7e9b.click" /><animate id="23" attributeName="stroke-dashoffset" values="15.51;0" dur="0.16s" fill="freeze" begin="22.end" /></path></g></g></g></g></g></svg>