<svg xmlns="http://www.w3.org/2000/svg" width="109" height="109" viewBox="0 0 109 109" id="7f51"><g fill="none" stroke="#666" stroke-width="9" stroke-linecap="round" stroke-linejoin="round"><g><g><path d="M19.5,20.5c0.75,1.21,1.25,3.15,1,5.32s0.25,66.3,0.25,69.93" /><path d="M20.5,23c9.5-1,62.63-3.65,64.5-4c4-0.75,6,2.75,6,4c0,4.5-3.09,52.05-4.25,60c-2,13.75-5.75,5.25-8.75,2" /></g><g><g><path d="M49,27.84c0.37,1.26,0.68,2.21,0.19,4.45C44.79,52.25,36.81,70.14,26,79" /></g><path d="M29.75,40.5c8.17,6.53,17.16,18.95,21.49,28.81" /></g><g><g><path d="M75.76,27.5c0.46,1.4,0.83,2.47,0.23,4.98C70.75,54.5,60.75,72.75,47.22,84.73" /></g><path d="M55.75,41c8.65,6.75,18.17,19.57,22.75,29.75" /></g></g></g><g fill="none" stroke="#000" stroke-width="5" stroke-linecap="round" stroke-linejoin="round"><g><g><path d="M19.5,20.5c0.75,1.21,1.25,3.15,1,5.32s0.25,66.3,0.25,69.93" stroke-dasharray="75.441" stroke-dashoffset="75.441"><animate attributeName="stroke-dashoffset" values="75.441;75.441;0" dur="0.567s" fill="freeze" begin="0s;7f51.click" /></path><path d="M20.5,23c9.5-1,62.63-3.65,64.5-4c4-0.75,6,2.75,6,4c0,4.5-3.09,52.05-4.25,60c-2,13.75-5.75,5.25-8.75,2" stroke-dasharray="149.556" stroke-dashoffset="149.556"><animate attributeName="stroke-dashoffset" values="149.556" fill="freeze" begin="7f51.click" /><animate attributeName="stroke-dashoffset" values="149.556;149.556;0" keyTimes="0;0.335;1" dur="1.691s" fill="freeze" begin="0s;7f51.click" /></path></g><g><g><path d="M49,27.84c0.37,1.26,0.68,2.21,0.19,4.45C44.79,52.25,36.81,70.14,26,79" stroke-dasharray="57.534" stroke-dashoffset="57.534"><animate attributeName="stroke-dashoffset" values="57.534" fill="freeze" begin="7f51.click" /><animate attributeName="stroke-dashoffset" values="57.534;57.534;0" keyTimes="0;0.746;1" dur="2.266s" fill="freeze" begin="0s;7f51.click" /></path></g><path d="M29.75,40.5c8.17,6.53,17.16,18.95,21.49,28.81" stroke-dasharray="36.226" stroke-dashoffset="36.226"><animate attributeName="stroke-dashoffset" values="36.226" fill="freeze" begin="7f51.click" /><animate attributeName="stroke-dashoffset" values="36.226;36.226;0" keyTimes="0;0.862;1" dur="2.628s" fill="freeze" begin="0s;7f51.click" /></path></g><g><g><path d="M75.76,27.5c0.46,1.4,0.83,2.47,0.23,4.98C70.75,54.5,60.75,72.75,47.22,84.73" stroke-dasharray="65.648" stroke-dashoffset="65.648"><animate attributeName="stroke-dashoffset" values="65.648" fill="freeze" begin="7f51.click" /><animate attributeName="stroke-dashoffset" values="65.648;65.648;0" keyTimes="0;0.842;1" dur="3.122s" fill="freeze" begin="0s;7f51.click" /></path></g><path d="M55.75,41c8.65,6.75,18.17,19.57,22.75,29.75" stroke-dasharray="37.751" stroke-dashoffset="37.751"><animate attributeName="stroke-dashoffset" values="37.751" fill="freeze" begin="7f51.click" /><animate attributeName="stroke-dashoffset" values="37.751;37.751;0" keyTimes="0;0.892;1" dur="3.5s" fill="freeze" begin="0s;7f51.click" /></path></g></g></g></svg>