<svg xmlns="http://www.w3.org/2000/svg" width="109" height="109" viewBox="0 0 109 109" id="7f69"><g fill="none" stroke="#666" stroke-width="6" stroke-linecap="round" stroke-linejoin="round"><g><g><path d="M21.93,13.57c0.23,0.27,0.46,0.49,0.56,0.82c0.79,2.64,2.96,11.37,3.5,16.11" /><path d="M23.72,15.36C32.75,14,77,11,83.61,10.73c2.15-0.09,3.64,1.02,3.55,3.38c-0.12,3.14-2.4,9.35-3.86,13.77" /><path d="M42.42,14.61c0.2,1.72,1.62,9.65,1.82,11.58" /><path d="M64.81,12.79c-0.1,2.86-0.58,10.33-0.77,12.09" /><path d="M27.36,28c3.08-0.43,49.89-3.75,56.81-3.76" /></g><g><g><path d="M51.38,30.13c1.1,0.23,1.93,2.71,2.15,3.17c0.22,0.46,0.08,9.65-0.14,12.5" /><path d="M53.66,37.35c2.4,0,14.54-0.88,21.55-1.81c2.51-0.33,3.62-0.15,5.12-0.23" /></g><g><g><path d="M30.16,46.83c0.66,0.9,1.54,1.19,1.75,2.4c0.57,3.3,3.09,15.75,3.11,18.52" /><path d="M32.59,47.87c4.58-0.15,39.52-3.28,43.66-2.91c1.64,0.15,2.84,1.69,2.59,3.27C78,53.5,76.87,60.04,74.72,65" /><path d="M33.26,55.69c7.82-0.33,35.99-2.1,43-2.1" /><path d="M35.82,65.15c11.12-0.67,32.03-2.14,37.68-2.14" /></g><g><path d="M17.13,79.88c1.76,0.3,5,0.46,6.74,0.3c18.38-1.68,47.29-2.95,61.6-2.93c2.93,0,4.69,0.15,6.16,0.3" /><path d="M52.98,65.5c0.44,0.51,0.88,2.34,0.97,3.37c0.09,1.03-0.06,25.22-0.15,31.63" /></g></g></g></g></g><g fill="none" stroke="#000" stroke-width="3" stroke-linecap="round" stroke-linejoin="round"><path d="M21.93,13.57c0.23,0.27,0.46,0.49,0.56,0.82c0.79,2.64,2.96,11.37,3.5,16.11" stroke-dasharray="17.501" stroke-dashoffset="17.501"><animate attributeName="stroke-dashoffset" values="17.501;17.501;0" dur="0.175s" fill="freeze" begin="0s;7f69.click" /></path><path d="M23.72,15.36C32.75,14,77,11,83.61,10.73c2.15-0.09,3.64,1.02,3.55,3.38c-0.12,3.14-2.4,9.35-3.86,13.77" stroke-dasharray="80.073" stroke-dashoffset="80.073"><animate attributeName="stroke-dashoffset" values="80.073" fill="freeze" begin="7f69.click" /><animate attributeName="stroke-dashoffset" values="80.073;80.073;0" keyTimes="0;0.225;1" dur="0.777s" fill="freeze" begin="0s;7f69.click" /></path><path d="M42.42,14.61c0.2,1.72,1.62,9.65,1.82,11.58" stroke-dasharray="11.724" stroke-dashoffset="11.724"><animate attributeName="stroke-dashoffset" values="11.724" fill="freeze" begin="7f69.click" /><animate attributeName="stroke-dashoffset" values="11.724;11.724;0" keyTimes="0;0.869;1" dur="0.894s" fill="freeze" begin="0s;7f69.click" /></path><path d="M64.81,12.79c-0.1,2.86-0.58,10.33-0.77,12.09" stroke-dasharray="12.117" stroke-dashoffset="12.117"><animate attributeName="stroke-dashoffset" values="12.117" fill="freeze" begin="7f69.click" /><animate attributeName="stroke-dashoffset" values="12.117;12.117;0" keyTimes="0;0.881;1" dur="1.015s" fill="freeze" begin="0s;7f69.click" /></path><path d="M27.36,28c3.08-0.43,49.89-3.75,56.81-3.76" stroke-dasharray="56.94" stroke-dashoffset="56.94"><animate attributeName="stroke-dashoffset" values="56.94" fill="freeze" begin="7f69.click" /><animate attributeName="stroke-dashoffset" values="56.94;56.94;0" keyTimes="0;0.641;1" dur="1.584s" fill="freeze" begin="0s;7f69.click" /></path><path d="M51.38,30.13c1.1,0.23,1.93,2.71,2.15,3.17c0.22,0.46,0.08,9.65-0.14,12.5" stroke-dasharray="16.455" stroke-dashoffset="16.455"><animate attributeName="stroke-dashoffset" values="16.455" fill="freeze" begin="7f69.click" /><animate attributeName="stroke-dashoffset" values="16.455;16.455;0" keyTimes="0;0.906;1" dur="1.749s" fill="freeze" begin="0s;7f69.click" /></path><path d="M53.66,37.35c2.4,0,14.54-0.88,21.55-1.81c2.51-0.33,3.62-0.15,5.12-0.23" stroke-dasharray="26.763" stroke-dashoffset="26.763"><animate attributeName="stroke-dashoffset" values="26.763" fill="freeze" begin="7f69.click" /><animate attributeName="stroke-dashoffset" values="26.763;26.763;0" keyTimes="0;0.867;1" dur="2.017s" fill="freeze" begin="0s;7f69.click" /></path><path d="M30.16,46.83c0.66,0.9,1.54,1.19,1.75,2.4c0.57,3.3,3.09,15.75,3.11,18.52" stroke-dasharray="21.816" stroke-dashoffset="21.816"><animate attributeName="stroke-dashoffset" values="21.816" fill="freeze" begin="7f69.click" /><animate attributeName="stroke-dashoffset" values="21.816;21.816;0" keyTimes="0;0.902;1" dur="2.235s" fill="freeze" begin="0s;7f69.click" /></path><path d="M32.59,47.87c4.58-0.15,39.52-3.28,43.66-2.91c1.64,0.15,2.84,1.69,2.59,3.27C78,53.5,76.87,60.04,74.72,65" stroke-dasharray="65.742" stroke-dashoffset="65.742"><animate attributeName="stroke-dashoffset" values="65.742" fill="freeze" begin="7f69.click" /><animate attributeName="stroke-dashoffset" values="65.742;65.742;0" keyTimes="0;0.819;1" dur="2.729s" fill="freeze" begin="0s;7f69.click" /></path><path d="M33.26,55.69c7.82-0.33,35.99-2.1,43-2.1" stroke-dasharray="43.054" stroke-dashoffset="43.054"><animate attributeName="stroke-dashoffset" values="43.054" fill="freeze" begin="7f69.click" /><animate attributeName="stroke-dashoffset" values="43.054;43.054;0" keyTimes="0;0.864;1" dur="3.16s" fill="freeze" begin="0s;7f69.click" /></path><path d="M35.82,65.15c11.12-0.67,32.03-2.14,37.68-2.14" stroke-dasharray="37.744" stroke-dashoffset="37.744"><animate attributeName="stroke-dashoffset" values="37.744" fill="freeze" begin="7f69.click" /><animate attributeName="stroke-dashoffset" values="37.744;37.744;0" keyTimes="0;0.893;1" dur="3.537s" fill="freeze" begin="0s;7f69.click" /></path><path d="M17.13,79.88c1.76,0.3,5,0.46,6.74,0.3c18.38-1.68,47.29-2.95,61.6-2.93c2.93,0,4.69,0.15,6.16,0.3" stroke-dasharray="74.616" stroke-dashoffset="74.616"><animate attributeName="stroke-dashoffset" values="74.616" fill="freeze" begin="7f69.click" /><animate attributeName="stroke-dashoffset" values="74.616;74.616;0" keyTimes="0;0.863;1" dur="4.098s" fill="freeze" begin="0s;7f69.click" /></path><path d="M52.98,65.5c0.44,0.51,0.88,2.34,0.97,3.37c0.09,1.03-0.06,25.22-0.15,31.63" stroke-dasharray="35.169" stroke-dashoffset="35.169"><animate attributeName="stroke-dashoffset" values="35.169" fill="freeze" begin="7f69.click" /><animate attributeName="stroke-dashoffset" values="35.169;35.169;0" keyTimes="0;0.921;1" dur="4.45s" fill="freeze" begin="0s;7f69.click" /></path></g></svg>