<svg xmlns="http://www.w3.org/2000/svg" width="109" height="109" viewBox="0 0 109 109" id="7f6e"><g fill="none" stroke="#666" stroke-width="6" stroke-linecap="round" stroke-linejoin="round"><g><g><path d="M24,16.46c0.65,0.65,1.25,1.55,1.34,1.96c0.71,3.37,1.88,8.19,2.75,12.77c0.25,1.3,0.47,2.59,0.65,3.81" /><path d="M26.37,18.04c7.83-0.84,46.64-4.08,57.51-4.71c3.02-0.17,5.61,0.58,4.7,4.22c-0.62,2.44-1.73,5.73-3.25,9.73c-0.38,1.01-0.79,2.07-1.23,3.17" /><path d="M45.5,17.75c0.56,0.56,0.89,1.34,1,2.39c0.37,3.24,0.97,8.31,1.11,10.03" /><path d="M65.81,15.79c0.44,0.71,0.49,1.52,0.36,2.24c-0.79,4.44-1.53,7.83-2.19,10.85" /><path d="M29.56,32.82c10.82-1.07,44.94-3.7,54.08-4" /></g><g p4:phon="直" xmlns:p4="http://kanjivg.tagaini.net"><g><path d="M28.34,44.27c1.62,0.34,4.57,0.15,6.19,0c14.21-1.27,29.84-3.14,44.2-3.97c2.7-0.16,4.31-0.1,5.65,0.03" /><path d="M53.36,34.55c0.86,0.86,1.31,2.04,1.24,2.82c-0.35,3.89-1.1,7.39-2.13,14.62" /></g><g><path d="M38.39,52.99c1.06,1.06,1.39,1.88,1.39,3.42c0,0.83,0.12,16.04,0.15,25.96c0.01,1.57,0.01,3,0.01,4.23" /><path d="M40.8,54.38c3.37-0.22,26.81-3.12,29.91-3.36c2.43-0.19,4.14,1.11,4.14,3.68c0,1-0.3,13.62-0.38,23.93c-0.01,1.72-0.02,3.38-0.02,4.91" /><path d="M40.93,64.05c8.07-0.8,27.25-3.06,32.49-3.21" /><path d="M41.2,73.79c9.3-1.04,23.05-2.66,32.35-3.1" /><path d="M41.1,83.9c5.95-0.53,27.96-3.03,32.25-3.15" /></g><path d="M21.78,64.8c0.99,0.92,1.49,2.53,1.49,4.43s-1.2,22.31-1.45,24.07c-0.32,2.2,0.68,3.07,3.22,2.75c20.28-2.61,43.09-3.67,61.29-3.8c2.72-0.02,5.19,0.42,7.17,0.93" /></g></g></g><g fill="none" stroke="#000" stroke-width="3" stroke-linecap="round" stroke-linejoin="round"><path d="M24,16.46c0.65,0.65,1.25,1.55,1.34,1.96c0.71,3.37,1.88,8.19,2.75,12.77c0.25,1.3,0.47,2.59,0.65,3.81" stroke-dasharray="19.323" stroke-dashoffset="19.323"><animate attributeName="stroke-dashoffset" values="19.323;19.323;0" dur="0.193s" fill="freeze" begin="0s;7f6e.click" /></path><path d="M26.37,18.04c7.83-0.84,46.64-4.08,57.51-4.71c3.02-0.17,5.61,0.58,4.7,4.22c-0.62,2.44-1.73,5.73-3.25,9.73c-0.38,1.01-0.79,2.07-1.23,3.17" stroke-dasharray="79.224" stroke-dashoffset="79.224"><animate attributeName="stroke-dashoffset" values="79.224" fill="freeze" begin="7f6e.click" /><animate attributeName="stroke-dashoffset" values="79.224;79.224;0" keyTimes="0;0.245;1" dur="0.789s" fill="freeze" begin="0s;7f6e.click" /></path><path d="M45.5,17.75c0.56,0.56,0.89,1.34,1,2.39c0.37,3.24,0.97,8.31,1.11,10.03" stroke-dasharray="12.736" stroke-dashoffset="12.736"><animate attributeName="stroke-dashoffset" values="12.736" fill="freeze" begin="7f6e.click" /><animate attributeName="stroke-dashoffset" values="12.736;12.736;0" keyTimes="0;0.861;1" dur="0.916s" fill="freeze" begin="0s;7f6e.click" /></path><path d="M65.81,15.79c0.44,0.71,0.49,1.52,0.36,2.24c-0.79,4.44-1.53,7.83-2.19,10.85" stroke-dasharray="13.392" stroke-dashoffset="13.392"><animate attributeName="stroke-dashoffset" values="13.392" fill="freeze" begin="7f6e.click" /><animate attributeName="stroke-dashoffset" values="13.392;13.392;0" keyTimes="0;0.872;1" dur="1.05s" fill="freeze" begin="0s;7f6e.click" /></path><path d="M29.56,32.82c10.82-1.07,44.94-3.7,54.08-4" stroke-dasharray="54.232" stroke-dashoffset="54.232"><animate attributeName="stroke-dashoffset" values="54.232" fill="freeze" begin="7f6e.click" /><animate attributeName="stroke-dashoffset" values="54.232;54.232;0" keyTimes="0;0.66;1" dur="1.592s" fill="freeze" begin="0s;7f6e.click" /></path><path d="M28.34,44.27c1.62,0.34,4.57,0.15,6.19,0c14.21-1.27,29.84-3.14,44.2-3.97c2.7-0.16,4.31-0.1,5.65,0.03" stroke-dasharray="56.245" stroke-dashoffset="56.245"><animate attributeName="stroke-dashoffset" values="56.245" fill="freeze" begin="7f6e.click" /><animate attributeName="stroke-dashoffset" values="56.245;56.245;0" keyTimes="0;0.739;1" dur="2.154s" fill="freeze" begin="0s;7f6e.click" /></path><path d="M53.36,34.55c0.86,0.86,1.31,2.04,1.24,2.82c-0.35,3.89-1.1,7.39-2.13,14.62" stroke-dasharray="17.943" stroke-dashoffset="17.943"><animate attributeName="stroke-dashoffset" values="17.943" fill="freeze" begin="7f6e.click" /><animate attributeName="stroke-dashoffset" values="17.943;17.943;0" keyTimes="0;0.923;1" dur="2.333s" fill="freeze" begin="0s;7f6e.click" /></path><path d="M38.39,52.99c1.06,1.06,1.39,1.88,1.39,3.42c0,0.83,0.12,16.04,0.15,25.96c0.01,1.57,0.01,3,0.01,4.23" stroke-dasharray="34.01" stroke-dashoffset="34.01"><animate attributeName="stroke-dashoffset" values="34.01" fill="freeze" begin="7f6e.click" /><animate attributeName="stroke-dashoffset" values="34.01;34.01;0" keyTimes="0;0.873;1" dur="2.673s" fill="freeze" begin="0s;7f6e.click" /></path><path d="M40.8,54.38c3.37-0.22,26.81-3.12,29.91-3.36c2.43-0.19,4.14,1.11,4.14,3.68c0,1-0.3,13.62-0.38,23.93c-0.01,1.72-0.02,3.38-0.02,4.91" stroke-dasharray="65.314" stroke-dashoffset="65.314"><animate attributeName="stroke-dashoffset" values="65.314" fill="freeze" begin="7f6e.click" /><animate attributeName="stroke-dashoffset" values="65.314;65.314;0" keyTimes="0;0.845;1" dur="3.164s" fill="freeze" begin="0s;7f6e.click" /></path><path d="M40.93,64.05c8.07-0.8,27.25-3.06,32.49-3.21" stroke-dasharray="32.653" stroke-dashoffset="32.653"><animate attributeName="stroke-dashoffset" values="32.653" fill="freeze" begin="7f6e.click" /><animate attributeName="stroke-dashoffset" values="32.653;32.653;0" keyTimes="0;0.906;1" dur="3.491s" fill="freeze" begin="0s;7f6e.click" /></path><path d="M41.2,73.79c9.3-1.04,23.05-2.66,32.35-3.1" stroke-dasharray="32.504" stroke-dashoffset="32.504"><animate attributeName="stroke-dashoffset" values="32.504" fill="freeze" begin="7f6e.click" /><animate attributeName="stroke-dashoffset" values="32.504;32.504;0" keyTimes="0;0.915;1" dur="3.816s" fill="freeze" begin="0s;7f6e.click" /></path><path d="M41.1,83.9c5.95-0.53,27.96-3.03,32.25-3.15" stroke-dasharray="32.407" stroke-dashoffset="32.407"><animate attributeName="stroke-dashoffset" values="32.407" fill="freeze" begin="7f6e.click" /><animate attributeName="stroke-dashoffset" values="32.407;32.407;0" keyTimes="0;0.922;1" dur="4.14s" fill="freeze" begin="0s;7f6e.click" /></path><path d="M21.78,64.8c0.99,0.92,1.49,2.53,1.49,4.43s-1.2,22.31-1.45,24.07c-0.32,2.2,0.68,3.07,3.22,2.75c20.28-2.61,43.09-3.67,61.29-3.8c2.72-0.02,5.19,0.42,7.17,0.93" stroke-dasharray="102.89" stroke-dashoffset="102.89"><animate attributeName="stroke-dashoffset" values="102.89" fill="freeze" begin="7f6e.click" /><animate attributeName="stroke-dashoffset" values="102.89;102.89;0" keyTimes="0;0.842;1" dur="4.914s" fill="freeze" begin="0s;7f6e.click" /></path></g></svg>