<svg xmlns="http://www.w3.org/2000/svg" width="109" height="109" viewBox="0 0 109 109" id="7f72"><g fill="none" stroke="#666" stroke-width="9" stroke-linecap="round" stroke-linejoin="round"><g><g><path d="M23.62,12.94c0.78,0.78,1.13,1.56,1.5,2.65c0.88,2.61,1.89,6.58,2.74,10.58c0.3,1.39,0.55,2.7,0.72,3.83" /><path d="M25.85,14.83c12.5-1.6,43.09-3.8,53.78-4.28c3.04-0.13,5.15,0.44,4.21,3.88c-0.69,2.52-1.79,5.86-3.06,9.08c-0.4,1.02-0.81,2.02-1.23,2.98" /><path d="M42.55,14.28c0.59,0.59,0.94,1.37,1.12,2.49c0.52,3.28,1.15,6.92,1.31,8.48" /><path d="M62.15,12.87c0.55,0.55,0.62,1.47,0.52,2.42c-0.4,3.61-0.92,6.46-1.23,9.06" /><path d="M29.33,27.74c9.54-0.86,42.54-2.99,50.23-3.36" /></g><g p4:phon="者" xmlns:p4="http://kanjivg.tagaini.net"><g p4:partial><g><path d="M31.5,40.85c1.6,0.53,4.07,0.46,5.75,0.34c8.87-0.63,21.25-2.19,29.17-2.66c1.29-0.08,2.06,0.12,2.71,0.25" /><path d="M51.17,28.12c0.67,0.67,1.27,1.88,1.27,3.18c0,7.58-0.19,17.08-0.19,23.1" /><path d="M16.5,57.79c3.65,0.77,7.08,0.45,10.75,0.11c13.07-1.21,42.37-4.02,58-4.66c3.41-0.14,6.76-0.12,10.12,0.59" /></g><path d="M81.59,34.02c0,0.98-0.57,2.44-1.84,3.67c-16.41,15.81-36,30.19-63.44,42.21" /></g><g><path d="M39.02,69.98c0.75,0.75,1.16,1.81,1.16,2.75c0,3.85,0,15.42,0,23.39c0,1.64,0,3.14,0,4.38" /><path d="M40.93,70.85c2.56-0.12,27.67-2.61,30-2.75c1.94-0.12,3.04,0.65,3.04,2.5c0,1.88-0.03,15.55-0.05,23.15c0,2.07-0.01,3.7-0.01,4.5" /><path d="M41.13,83.85c7.62-0.6,25.62-2.1,31.94-2.28" /><path d="M41.22,97.11c7.05-0.51,22.81-1.36,31.59-1.79" /></g></g></g></g><g fill="none" stroke="#000" stroke-width="5" stroke-linecap="round" stroke-linejoin="round"><g><g><path d="M23.62,12.94c0.78,0.78,1.13,1.56,1.5,2.65c0.88,2.61,1.89,6.58,2.74,10.58c0.3,1.39,0.55,2.7,0.72,3.83" stroke-dasharray="17.909" stroke-dashoffset="17.909"><animate attributeName="stroke-dashoffset" values="17.909;17.909;0" dur="0.179s" fill="freeze" begin="0s;7f72.click" /></path><path d="M25.85,14.83c12.5-1.6,43.09-3.8,53.78-4.28c3.04-0.13,5.15,0.44,4.21,3.88c-0.69,2.52-1.79,5.86-3.06,9.08c-0.4,1.02-0.81,2.02-1.23,2.98" stroke-dasharray="74.047" stroke-dashoffset="74.047"><animate attributeName="stroke-dashoffset" values="74.047" fill="freeze" begin="7f72.click" /><animate attributeName="stroke-dashoffset" values="74.047;74.047;0" keyTimes="0;0.243;1" dur="0.736s" fill="freeze" begin="0s;7f72.click" /></path><path d="M42.55,14.28c0.59,0.59,0.94,1.37,1.12,2.49c0.52,3.28,1.15,6.92,1.31,8.48" stroke-dasharray="11.36" stroke-dashoffset="11.36"><animate attributeName="stroke-dashoffset" values="11.36" fill="freeze" begin="7f72.click" /><animate attributeName="stroke-dashoffset" values="11.36;11.36;0" keyTimes="0;0.866;1" dur="0.85s" fill="freeze" begin="0s;7f72.click" /></path><path d="M62.15,12.87c0.55,0.55,0.62,1.47,0.52,2.42c-0.4,3.61-0.92,6.46-1.23,9.06" stroke-dasharray="11.701" stroke-dashoffset="11.701"><animate attributeName="stroke-dashoffset" values="11.701" fill="freeze" begin="7f72.click" /><animate attributeName="stroke-dashoffset" values="11.701;11.701;0" keyTimes="0;0.879;1" dur="0.967s" fill="freeze" begin="0s;7f72.click" /></path><path d="M29.33,27.74c9.54-0.86,42.54-2.99,50.23-3.36" stroke-dasharray="50.345" stroke-dashoffset="50.345"><animate attributeName="stroke-dashoffset" values="50.345" fill="freeze" begin="7f72.click" /><animate attributeName="stroke-dashoffset" values="50.345;50.345;0" keyTimes="0;0.658;1" dur="1.47s" fill="freeze" begin="0s;7f72.click" /></path></g><g p4:phon="者" xmlns:p4="http://kanjivg.tagaini.net"><g p4:partial><g><path d="M31.5,40.85c1.6,0.53,4.07,0.46,5.75,0.34c8.87-0.63,21.25-2.19,29.17-2.66c1.29-0.08,2.06,0.12,2.71,0.25" stroke-dasharray="37.817" stroke-dashoffset="37.817"><animate attributeName="stroke-dashoffset" values="37.817" fill="freeze" begin="7f72.click" /><animate attributeName="stroke-dashoffset" values="37.817;37.817;0" keyTimes="0;0.795;1" dur="1.848s" fill="freeze" begin="0s;7f72.click" /></path><path d="M51.17,28.12c0.67,0.67,1.27,1.88,1.27,3.18c0,7.58-0.19,17.08-0.19,23.1" stroke-dasharray="26.608" stroke-dashoffset="26.608"><animate attributeName="stroke-dashoffset" values="26.608" fill="freeze" begin="7f72.click" /><animate attributeName="stroke-dashoffset" values="26.608;26.608;0" keyTimes="0;0.874;1" dur="2.114s" fill="freeze" begin="0s;7f72.click" /></path><path d="M16.5,57.79c3.65,0.77,7.08,0.45,10.75,0.11c13.07-1.21,42.37-4.02,58-4.66c3.41-0.14,6.76-0.12,10.12,0.59" stroke-dasharray="79.153" stroke-dashoffset="79.153"><animate attributeName="stroke-dashoffset" values="79.153" fill="freeze" begin="7f72.click" /><animate attributeName="stroke-dashoffset" values="79.153;79.153;0" keyTimes="0;0.78;1" dur="2.709s" fill="freeze" begin="0s;7f72.click" /></path></g><path d="M81.59,34.02c0,0.98-0.57,2.44-1.84,3.67c-16.41,15.81-36,30.19-63.44,42.21" stroke-dasharray="80.825" stroke-dashoffset="80.825"><animate attributeName="stroke-dashoffset" values="80.825" fill="freeze" begin="7f72.click" /><animate attributeName="stroke-dashoffset" values="80.825;80.825;0" keyTimes="0;0.817;1" dur="3.317s" fill="freeze" begin="0s;7f72.click" /></path></g><g><path d="M39.02,69.98c0.75,0.75,1.16,1.81,1.16,2.75c0,3.85,0,15.42,0,23.39c0,1.64,0,3.14,0,4.38" stroke-dasharray="30.83" stroke-dashoffset="30.83"><animate attributeName="stroke-dashoffset" values="30.83" fill="freeze" begin="7f72.click" /><animate attributeName="stroke-dashoffset" values="30.83;30.83;0" keyTimes="0;0.915;1" dur="3.625s" fill="freeze" begin="0s;7f72.click" /></path><path d="M40.93,70.85c2.56-0.12,27.67-2.61,30-2.75c1.94-0.12,3.04,0.65,3.04,2.5c0,1.88-0.03,15.55-0.05,23.15c0,2.07-0.01,3.7-0.01,4.5" stroke-dasharray="62.352" stroke-dashoffset="62.352"><animate attributeName="stroke-dashoffset" values="62.352" fill="freeze" begin="7f72.click" /><animate attributeName="stroke-dashoffset" values="62.352;62.352;0" keyTimes="0;0.885;1" dur="4.094s" fill="freeze" begin="0s;7f72.click" /></path><path d="M41.13,83.85c7.62-0.6,25.62-2.1,31.94-2.28" stroke-dasharray="32.024" stroke-dashoffset="32.024"><animate attributeName="stroke-dashoffset" values="32.024" fill="freeze" begin="7f72.click" /><animate attributeName="stroke-dashoffset" values="32.024;32.024;0" keyTimes="0;0.928;1" dur="4.414s" fill="freeze" begin="0s;7f72.click" /></path><path d="M41.22,97.11c7.05-0.51,22.81-1.36,31.59-1.79" stroke-dasharray="31.642" stroke-dashoffset="31.642"><animate attributeName="stroke-dashoffset" values="31.642" fill="freeze" begin="7f72.click" /><animate attributeName="stroke-dashoffset" values="31.642;31.642;0" keyTimes="0;0.933;1" dur="4.73s" fill="freeze" begin="0s;7f72.click" /></path></g></g></g></g></svg>