<svg xmlns="http://www.w3.org/2000/svg" width="109" height="109" viewBox="0 0 109 109" id="7f72"><g fill="none" stroke="#666" stroke-width="9" stroke-linecap="round" stroke-linejoin="round"><g><g><path d="M23.62,12.94c0.78,0.78,1.13,1.56,1.5,2.65c0.88,2.61,1.89,6.58,2.74,10.58c0.3,1.39,0.55,2.7,0.72,3.83" /><path d="M25.85,14.83c12.5-1.6,43.09-3.8,53.78-4.28c3.04-0.13,5.15,0.44,4.21,3.88c-0.69,2.52-1.79,5.86-3.06,9.08c-0.4,1.02-0.81,2.02-1.23,2.98" /><path d="M42.55,14.28c0.59,0.59,0.94,1.37,1.12,2.49c0.52,3.28,1.15,6.92,1.31,8.48" /><path d="M62.15,12.87c0.55,0.55,0.62,1.47,0.52,2.42c-0.4,3.61-0.92,6.46-1.23,9.06" /><path d="M29.33,27.74c9.54-0.86,42.54-2.99,50.23-3.36" /></g><g p4:phon="者" xmlns:p4="http://kanjivg.tagaini.net"><g p4:partial><g><path d="M31.5,40.85c1.6,0.53,4.07,0.46,5.75,0.34c8.87-0.63,21.25-2.19,29.17-2.66c1.29-0.08,2.06,0.12,2.71,0.25" /><path d="M51.17,28.12c0.67,0.67,1.27,1.88,1.27,3.18c0,7.58-0.19,17.08-0.19,23.1" /><path d="M16.5,57.79c3.65,0.77,7.08,0.45,10.75,0.11c13.07-1.21,42.37-4.02,58-4.66c3.41-0.14,6.76-0.12,10.12,0.59" /></g><path d="M81.59,34.02c0,0.98-0.57,2.44-1.84,3.67c-16.41,15.81-36,30.19-63.44,42.21" /></g><g><path d="M39.02,69.98c0.75,0.75,1.16,1.81,1.16,2.75c0,3.85,0,15.42,0,23.39c0,1.64,0,3.14,0,4.38" /><path d="M40.93,70.85c2.56-0.12,27.67-2.61,30-2.75c1.94-0.12,3.04,0.65,3.04,2.5c0,1.88-0.03,15.55-0.05,23.15c0,2.07-0.01,3.7-0.01,4.5" /><path d="M41.13,83.85c7.62-0.6,25.62-2.1,31.94-2.28" /><path d="M41.22,97.11c7.05-0.51,22.81-1.36,31.59-1.79" /></g></g></g></g><g fill="none" stroke="#000" stroke-width="5" stroke-linecap="round" stroke-linejoin="round"><g><g><path d="M23.62,12.94c0.78,0.78,1.13,1.56,1.5,2.65c0.88,2.61,1.89,6.58,2.74,10.58c0.3,1.39,0.55,2.7,0.72,3.83" stroke-dasharray="17.91" stroke-dashoffset="17.91"><animate id="0" attributeName="stroke-dashoffset" values="17.91;0" dur="0.18s" fill="freeze" begin="0s;7f72.click" /></path><path d="M25.85,14.83c12.5-1.6,43.09-3.8,53.78-4.28c3.04-0.13,5.15,0.44,4.21,3.88c-0.69,2.52-1.79,5.86-3.06,9.08c-0.4,1.02-0.81,2.02-1.23,2.98" stroke-dasharray="74.05" stroke-dashoffset="74.05"><animate attributeName="stroke-dashoffset" values="74.05" fill="freeze" begin="7f72.click" /><animate id="1" attributeName="stroke-dashoffset" values="74.05;0" dur="0.56s" fill="freeze" begin="0.end" /></path><path d="M42.55,14.28c0.59,0.59,0.94,1.37,1.12,2.49c0.52,3.28,1.15,6.92,1.31,8.48" stroke-dasharray="11.36" stroke-dashoffset="11.36"><animate attributeName="stroke-dashoffset" values="11.36" fill="freeze" begin="7f72.click" /><animate id="2" attributeName="stroke-dashoffset" values="11.36;0" dur="0.11s" fill="freeze" begin="1.end" /></path><path d="M62.15,12.87c0.55,0.55,0.62,1.47,0.52,2.42c-0.4,3.61-0.92,6.46-1.23,9.06" stroke-dasharray="11.7" stroke-dashoffset="11.7"><animate attributeName="stroke-dashoffset" values="11.7" fill="freeze" begin="7f72.click" /><animate id="3" attributeName="stroke-dashoffset" values="11.7;0" dur="0.12s" fill="freeze" begin="2.end" /></path><path d="M29.33,27.74c9.54-0.86,42.54-2.99,50.23-3.36" stroke-dasharray="50.34" stroke-dashoffset="50.34"><animate attributeName="stroke-dashoffset" values="50.34" fill="freeze" begin="7f72.click" /><animate id="4" attributeName="stroke-dashoffset" values="50.34;0" dur="0.5s" fill="freeze" begin="3.end" /></path></g><g p4:phon="者" xmlns:p4="http://kanjivg.tagaini.net"><g p4:partial><g><path d="M31.5,40.85c1.6,0.53,4.07,0.46,5.75,0.34c8.87-0.63,21.25-2.19,29.17-2.66c1.29-0.08,2.06,0.12,2.71,0.25" stroke-dasharray="37.82" stroke-dashoffset="37.82"><animate attributeName="stroke-dashoffset" values="37.82" fill="freeze" begin="7f72.click" /><animate id="5" attributeName="stroke-dashoffset" values="37.82;0" dur="0.38s" fill="freeze" begin="4.end" /></path><path d="M51.17,28.12c0.67,0.67,1.27,1.88,1.27,3.18c0,7.58-0.19,17.08-0.19,23.1" stroke-dasharray="26.61" stroke-dashoffset="26.61"><animate attributeName="stroke-dashoffset" values="26.61" fill="freeze" begin="7f72.click" /><animate id="6" attributeName="stroke-dashoffset" values="26.61;0" dur="0.27s" fill="freeze" begin="5.end" /></path><path d="M16.5,57.79c3.65,0.77,7.08,0.45,10.75,0.11c13.07-1.21,42.37-4.02,58-4.66c3.41-0.14,6.76-0.12,10.12,0.59" stroke-dasharray="79.15" stroke-dashoffset="79.15"><animate attributeName="stroke-dashoffset" values="79.15" fill="freeze" begin="7f72.click" /><animate id="7" attributeName="stroke-dashoffset" values="79.15;0" dur="0.6s" fill="freeze" begin="6.end" /></path></g><path d="M81.59,34.02c0,0.98-0.57,2.44-1.84,3.67c-16.41,15.81-36,30.19-63.44,42.21" stroke-dasharray="80.82" stroke-dashoffset="80.82"><animate attributeName="stroke-dashoffset" values="80.82" fill="freeze" begin="7f72.click" /><animate id="8" attributeName="stroke-dashoffset" values="80.82;0" dur="0.61s" fill="freeze" begin="7.end" /></path></g><g><path d="M39.02,69.98c0.75,0.75,1.16,1.81,1.16,2.75c0,3.85,0,15.42,0,23.39c0,1.64,0,3.14,0,4.38" stroke-dasharray="30.83" stroke-dashoffset="30.83"><animate attributeName="stroke-dashoffset" values="30.83" fill="freeze" begin="7f72.click" /><animate id="9" attributeName="stroke-dashoffset" values="30.83;0" dur="0.31s" fill="freeze" begin="8.end" /></path><path d="M40.93,70.85c2.56-0.12,27.67-2.61,30-2.75c1.94-0.12,3.04,0.65,3.04,2.5c0,1.88-0.03,15.55-0.05,23.15c0,2.07-0.01,3.7-0.01,4.5" stroke-dasharray="62.35" stroke-dashoffset="62.35"><animate attributeName="stroke-dashoffset" values="62.35" fill="freeze" begin="7f72.click" /><animate id="10" attributeName="stroke-dashoffset" values="62.35;0" dur="0.47s" fill="freeze" begin="9.end" /></path><path d="M41.13,83.85c7.62-0.6,25.62-2.1,31.94-2.28" stroke-dasharray="32.02" stroke-dashoffset="32.02"><animate attributeName="stroke-dashoffset" values="32.02" fill="freeze" begin="7f72.click" /><animate id="11" attributeName="stroke-dashoffset" values="32.02;0" dur="0.32s" fill="freeze" begin="10.end" /></path><path d="M41.22,97.11c7.05-0.51,22.81-1.36,31.59-1.79" stroke-dasharray="31.64" stroke-dashoffset="31.64"><animate attributeName="stroke-dashoffset" values="31.64" fill="freeze" begin="7f72.click" /><animate id="12" attributeName="stroke-dashoffset" values="31.64;0" dur="0.32s" fill="freeze" begin="11.end" /></path></g></g></g></g></svg>