<svg xmlns="http://www.w3.org/2000/svg" width="109" height="109" viewBox="0 0 109 109" id="7f86"><g fill="none" stroke="#666" stroke-width="9" stroke-linecap="round" stroke-linejoin="round"><g><g><g p5:radicalForm xmlns:p5="http://kanjivg.tagaini.net"><path d="M21.83,13.76c0.37,0.29,1.25,1.03,1.41,1.39C24.52,18,26.06,25.87,26.94,31" /><path d="M23.13,15.06C33.5,13.75,73,11.75,83.37,11.23c1.42-0.07,3.34,0.94,2.96,2.49c-0.8,3.25-2.75,8.82-4.86,13.45" /><path d="M43.72,14.1c0.23,1.76,1.84,10.33,2.08,12.31" /><path d="M63.46,12.66c-0.19,2.91-1.12,10.53-1.49,12.32" /><path d="M28.35,27.96c4.54-0.37,47.26-2.68,53.5-3.25" /></g></g><g><g><g><g><path d="M33.77,31.19c0.29,0.28,0.15,2.03-0.02,2.39c-2.11,4.5-5.72,7.56-9.66,10.72c-1.25,1-0.75,2.22,1.08,2c3.83-0.47,18.26-4.02,24.02-4.52" /><path d="M43.75,35.75c3.53,2.21,9.12,9.07,10,12.5" /></g><g><path d="M26.15,51.67c0.45,0.36,0.89,0.89,0.91,1.63c0.05,2.08,0.08,26.29,0.15,25.38" /><path d="M28.68,53.24c1.58-0.09,16.07-2.11,17.24-2.21c2.11-0.18,2.9,1.17,2.63,1.71c-0.25,0.52-0.4,16.08-0.4,23.35c0,4.67-3.66,0.11-4.98-0.69" /><path d="M28.68,60.8c5.4-0.39,14.22-1.48,18.95-1.67" /><path d="M28.57,68.05c4.33-0.17,13.79-1.18,18.8-1.29" /></g><g><g><path d="M79.12,32.91c0.13,0.15,0.22,0.58-0.12,0.81c-2.23,1.48-9.53,5.56-16.72,7.08" /><path d="M60.42,31.68c0.52,0.32,1.22,1.8,1.22,2.26c0,2.77,0.17,10.81,0.17,12.15c0,3.82,1.28,4.5,12.91,4.5c4.61,0,8.93-0.18,10.67-1.14c1.74-0.96,1.52-2.08,1.7-3.04" /></g><g><path d="M81.76,58c0.15,0.18,0.25,0.71-0.14,0.99c-2.54,1.81-10.88,6.8-19.1,8.65" /><path d="M60.74,55.67c0.54,0.31,1.18,1.58,1.18,2.6c0,3.67,0.18,12.4,0.18,13.68c0,4.44,1.94,5.2,13.22,5.25c4.72,0.02,8.64-0.17,10.42-1.1c1.78-0.92,1.56-2,1.74-2.93" /></g></g></g></g><g><path d="M23,84.25c0,5.07-4.56,12.55-5.75,14" /><path d="M41.25,85.75c2.68,2.11,5.23,7.91,5.9,11.19" /><path d="M62,85.25c2.29,2.12,5.93,8.71,6.5,12" /><path d="M81.5,84.25c4.19,2.46,10.82,10.11,11.87,13.94" /></g></g></g></g><g fill="none" stroke="#000" stroke-width="5" stroke-linecap="round" stroke-linejoin="round"><path d="M21.83,13.76c0.37,0.29,1.25,1.03,1.41,1.39C24.52,18,26.06,25.87,26.94,31" stroke-dasharray="18.292" stroke-dashoffset="18.292"><animate attributeName="stroke-dashoffset" values="18.292;18.292;0" dur="0.183s" fill="freeze" begin="0s;7f86.click" /></path><path d="M23.13,15.06C33.5,13.75,73,11.75,83.37,11.23c1.42-0.07,3.34,0.94,2.96,2.49c-0.8,3.25-2.75,8.82-4.86,13.45" stroke-dasharray="79.128" stroke-dashoffset="79.128"><animate attributeName="stroke-dashoffset" values="79.128" fill="freeze" begin="7f86.click" /><animate attributeName="stroke-dashoffset" values="79.128;79.128;0" keyTimes="0;0.235;1" dur="0.778s" fill="freeze" begin="0s;7f86.click" /></path><path d="M43.72,14.1c0.23,1.76,1.84,10.33,2.08,12.31" stroke-dasharray="12.486" stroke-dashoffset="12.486"><animate attributeName="stroke-dashoffset" values="12.486" fill="freeze" begin="7f86.click" /><animate attributeName="stroke-dashoffset" values="12.486;12.486;0" keyTimes="0;0.862;1" dur="0.903s" fill="freeze" begin="0s;7f86.click" /></path><path d="M63.46,12.66c-0.19,2.91-1.12,10.53-1.49,12.32" stroke-dasharray="12.415" stroke-dashoffset="12.415"><animate attributeName="stroke-dashoffset" values="12.415" fill="freeze" begin="7f86.click" /><animate attributeName="stroke-dashoffset" values="12.415;12.415;0" keyTimes="0;0.879;1" dur="1.027s" fill="freeze" begin="0s;7f86.click" /></path><path d="M28.35,27.96c4.54-0.37,47.26-2.68,53.5-3.25" stroke-dasharray="53.6" stroke-dashoffset="53.6"><animate attributeName="stroke-dashoffset" values="53.6" fill="freeze" begin="7f86.click" /><animate attributeName="stroke-dashoffset" values="53.6;53.6;0" keyTimes="0;0.657;1" dur="1.563s" fill="freeze" begin="0s;7f86.click" /></path><path d="M33.77,31.19c0.29,0.28,0.15,2.03-0.02,2.39c-2.11,4.5-5.72,7.56-9.66,10.72c-1.25,1-0.75,2.22,1.08,2c3.83-0.47,18.26-4.02,24.02-4.52" stroke-dasharray="45.054" stroke-dashoffset="45.054"><animate attributeName="stroke-dashoffset" values="45.054" fill="freeze" begin="7f86.click" /><animate attributeName="stroke-dashoffset" values="45.054;45.054;0" keyTimes="0;0.776;1" dur="2.014s" fill="freeze" begin="0s;7f86.click" /></path><path d="M43.75,35.75c3.53,2.21,9.12,9.07,10,12.5" stroke-dasharray="16.227" stroke-dashoffset="16.227"><animate attributeName="stroke-dashoffset" values="16.227" fill="freeze" begin="7f86.click" /><animate attributeName="stroke-dashoffset" values="16.227;16.227;0" keyTimes="0;0.926;1" dur="2.176s" fill="freeze" begin="0s;7f86.click" /></path><path d="M26.15,51.67c0.45,0.36,0.89,0.89,0.91,1.63c0.05,2.08,0.08,26.29,0.15,25.38" stroke-dasharray="27.357" stroke-dashoffset="27.357"><animate attributeName="stroke-dashoffset" values="27.357" fill="freeze" begin="7f86.click" /><animate attributeName="stroke-dashoffset" values="27.357;27.357;0" keyTimes="0;0.888;1" dur="2.45s" fill="freeze" begin="0s;7f86.click" /></path><path d="M28.68,53.24c1.58-0.09,16.07-2.11,17.24-2.21c2.11-0.18,2.9,1.17,2.63,1.71c-0.25,0.52-0.4,16.08-0.4,23.35c0,4.67-3.66,0.11-4.98-0.69" stroke-dasharray="51.839" stroke-dashoffset="51.839"><animate attributeName="stroke-dashoffset" values="51.839" fill="freeze" begin="7f86.click" /><animate attributeName="stroke-dashoffset" values="51.839;51.839;0" keyTimes="0;0.825;1" dur="2.968s" fill="freeze" begin="0s;7f86.click" /></path><path d="M28.68,60.8c5.4-0.39,14.22-1.48,18.95-1.67" stroke-dasharray="19.026" stroke-dashoffset="19.026"><animate attributeName="stroke-dashoffset" values="19.026" fill="freeze" begin="7f86.click" /><animate attributeName="stroke-dashoffset" values="19.026;19.026;0" keyTimes="0;0.94;1" dur="3.158s" fill="freeze" begin="0s;7f86.click" /></path><path d="M28.57,68.05c4.33-0.17,13.79-1.18,18.8-1.29" stroke-dasharray="18.847" stroke-dashoffset="18.847"><animate attributeName="stroke-dashoffset" values="18.847" fill="freeze" begin="7f86.click" /><animate attributeName="stroke-dashoffset" values="18.847;18.847;0" keyTimes="0;0.944;1" dur="3.346s" fill="freeze" begin="0s;7f86.click" /></path><path d="M79.12,32.91c0.13,0.15,0.22,0.58-0.12,0.81c-2.23,1.48-9.53,5.56-16.72,7.08" stroke-dasharray="19.16" stroke-dashoffset="19.16"><animate attributeName="stroke-dashoffset" values="19.16" fill="freeze" begin="7f86.click" /><animate attributeName="stroke-dashoffset" values="19.16;19.16;0" keyTimes="0;0.946;1" dur="3.538s" fill="freeze" begin="0s;7f86.click" /></path><path d="M60.42,31.68c0.52,0.32,1.22,1.8,1.22,2.26c0,2.77,0.17,10.81,0.17,12.15c0,3.82,1.28,4.5,12.91,4.5c4.61,0,8.93-0.18,10.67-1.14c1.74-0.96,1.52-2.08,1.7-3.04" stroke-dasharray="44.758" stroke-dashoffset="44.758"><animate attributeName="stroke-dashoffset" values="44.758" fill="freeze" begin="7f86.click" /><animate attributeName="stroke-dashoffset" values="44.758;44.758;0" keyTimes="0;0.888;1" dur="3.986s" fill="freeze" begin="0s;7f86.click" /></path><path d="M81.76,58c0.15,0.18,0.25,0.71-0.14,0.99c-2.54,1.81-10.88,6.8-19.1,8.65" stroke-dasharray="22.185" stroke-dashoffset="22.185"><animate attributeName="stroke-dashoffset" values="22.185" fill="freeze" begin="7f86.click" /><animate attributeName="stroke-dashoffset" values="22.185;22.185;0" keyTimes="0;0.947;1" dur="4.208s" fill="freeze" begin="0s;7f86.click" /></path><path d="M60.74,55.67c0.54,0.31,1.18,1.58,1.18,2.6c0,3.67,0.18,12.4,0.18,13.68c0,4.44,1.94,5.2,13.22,5.25c4.72,0.02,8.64-0.17,10.42-1.1c1.78-0.92,1.56-2,1.74-2.93" stroke-dasharray="47.011" stroke-dashoffset="47.011"><animate attributeName="stroke-dashoffset" values="47.011" fill="freeze" begin="7f86.click" /><animate attributeName="stroke-dashoffset" values="47.011;47.011;0" keyTimes="0;0.9;1" dur="4.678s" fill="freeze" begin="0s;7f86.click" /></path><path d="M23,84.25c0,5.07-4.56,12.55-5.75,14" stroke-dasharray="15.327" stroke-dashoffset="15.327"><animate attributeName="stroke-dashoffset" values="15.327" fill="freeze" begin="7f86.click" /><animate attributeName="stroke-dashoffset" values="15.327;15.327;0" keyTimes="0;0.968;1" dur="4.831s" fill="freeze" begin="0s;7f86.click" /></path><path d="M41.25,85.75c2.68,2.11,5.23,7.91,5.9,11.19" stroke-dasharray="12.832" stroke-dashoffset="12.832"><animate attributeName="stroke-dashoffset" values="12.832" fill="freeze" begin="7f86.click" /><animate attributeName="stroke-dashoffset" values="12.832;12.832;0" keyTimes="0;0.974;1" dur="4.959s" fill="freeze" begin="0s;7f86.click" /></path><path d="M62,85.25c2.29,2.12,5.93,8.71,6.5,12" stroke-dasharray="13.785" stroke-dashoffset="13.785"><animate attributeName="stroke-dashoffset" values="13.785" fill="freeze" begin="7f86.click" /><animate attributeName="stroke-dashoffset" values="13.785;13.785;0" keyTimes="0;0.973;1" dur="5.097s" fill="freeze" begin="0s;7f86.click" /></path><path d="M81.5,84.25c4.19,2.46,10.82,10.11,11.87,13.94" stroke-dasharray="18.567" stroke-dashoffset="18.567"><animate attributeName="stroke-dashoffset" values="18.567" fill="freeze" begin="7f86.click" /><animate attributeName="stroke-dashoffset" values="18.567;18.567;0" keyTimes="0;0.965;1" dur="5.283s" fill="freeze" begin="0s;7f86.click" /></path></g></svg>