<svg xmlns="http://www.w3.org/2000/svg" viewBox="0 0 109 109" id="7fa9"><g fill="none" stroke="#666" stroke-width="6" stroke-linecap="round" stroke-linejoin="round"><g><g><path d="M34.53,11.15c3.36,1.79,8.68,7.35,9.52,10.13" /><path d="M66.87,9.64c0.12,0.61,0.02,1.43-0.25,1.96c-1.75,3.4-4.38,6.51-8.92,10.68" /><path d="M31,26.78c2,0.47,4.55,0.36,6.51,0.17c8.24-0.79,26.18-2.79,34.75-3.39c1.96-0.14,4.78-0.35,6.71,0.07" /><path d="M53.1,27.44c0.79,0.79,1.11,1.93,1.11,3.31c0,3.37-0.18,9.12-0.18,14.49" /><path d="M34.86,37.2c2.01,0.42,4.43,0.06,6.4-0.16c7.81-0.87,20.85-2.51,27.87-2.95c1.84-0.12,3.76-0.27,5.58,0.12" /><path d="M24.75,47.52c2.44,0.77,5.61,0.4,8.12,0.15c9.29-0.91,31.49-2.93,44.01-3.79c2.98-0.2,6.17-0.32,9.11,0.24" /></g><g p4:phon="我" xmlns:p4="http://kanjivg.tagaini.net"><g><path d="M43.76,50.91c-0.01,0.96-0.66,1.78-1.44,2.29c-3.69,2.42-8.81,4.42-17.76,7.66" /></g><g><g><path d="M17,68.51c4.25,0.74,7.82,0.35,11.52-0.15c13.73-1.86,37.73-4.61,54.74-5.77c3.52-0.24,7-0.19,10.5,0.44" /></g></g><g><path d="M39.77,58.78c0.79,0.79,1.26,2.09,1.26,3.17c0,9.02-0.01,30.62-0.01,33.68c0,7.86-5.21-0.07-6.71-0.84" /></g><path d="M17.02,85.17c0.98,0.69,2.06,0.85,3.77,0.23c1.48-0.54,21.29-8.68,27.59-11.27" /><g><path d="M59,49.25c1.35,1.1,2.38,2.66,2.69,5.02c2.56,19.48,11.56,35.48,25.68,44.49c4.99,3.18,4.55,0.47,3.87-4.4" /><g><path d="M80.72,68.71c-0.09,1.04-0.3,1.99-0.87,2.86C76.29,77,65.5,86.71,48.81,94.2" /></g><g><g><path d="M70.25,49.75c3.34,1.5,8.69,4.94,10.25,7.52" /></g></g></g></g></g></g><g fill="none" stroke="#000" stroke-width="3" stroke-linecap="round" stroke-linejoin="round"><path d="M34.53,11.15c3.36,1.79,8.68,7.35,9.52,10.13" stroke-dasharray="14.102" stroke-dashoffset="14.102"><animate attributeName="stroke-dashoffset" values="14.102;14.102;0" dur="0.282s" fill="freeze" begin="0s;7fa9.click" /></path><path d="M66.87,9.64c0.12,0.61,0.02,1.43-0.25,1.96c-1.75,3.4-4.38,6.51-8.92,10.68" stroke-dasharray="15.997" stroke-dashoffset="15.997"><animate attributeName="stroke-dashoffset" values="15.997" fill="freeze" begin="7fa9.click" /><animate attributeName="stroke-dashoffset" values="15.997;15.997;0" keyTimes="0;0.638;1" dur="0.442s" fill="freeze" begin="0s;7fa9.click" /></path><path d="M31,26.78c2,0.47,4.55,0.36,6.51,0.17c8.24-0.79,26.18-2.79,34.75-3.39c1.96-0.14,4.78-0.35,6.71,0.07" stroke-dasharray="48.187" stroke-dashoffset="48.187"><animate attributeName="stroke-dashoffset" values="48.187" fill="freeze" begin="7fa9.click" /><animate attributeName="stroke-dashoffset" values="48.187;48.187;0" keyTimes="0;0.478;1" dur="0.924s" fill="freeze" begin="0s;7fa9.click" /></path><path d="M53.1,27.44c0.79,0.79,1.11,1.93,1.11,3.31c0,3.37-0.18,9.12-0.18,14.49" stroke-dasharray="18.077" stroke-dashoffset="18.077"><animate attributeName="stroke-dashoffset" values="18.077" fill="freeze" begin="7fa9.click" /><animate attributeName="stroke-dashoffset" values="18.077;18.077;0" keyTimes="0;0.836;1" dur="1.105s" fill="freeze" begin="0s;7fa9.click" /></path><path d="M34.86,37.2c2.01,0.42,4.43,0.06,6.4-0.16c7.81-0.87,20.85-2.51,27.87-2.95c1.84-0.12,3.76-0.27,5.58,0.12" stroke-dasharray="40.059" stroke-dashoffset="40.059"><animate attributeName="stroke-dashoffset" values="40.059" fill="freeze" begin="7fa9.click" /><animate attributeName="stroke-dashoffset" values="40.059;40.059;0" keyTimes="0;0.734;1" dur="1.506s" fill="freeze" begin="0s;7fa9.click" /></path><path d="M24.75,47.52c2.44,0.77,5.61,0.4,8.12,0.15c9.29-0.91,31.49-2.93,44.01-3.79c2.98-0.2,6.17-0.32,9.11,0.24" stroke-dasharray="61.489" stroke-dashoffset="61.489"><animate attributeName="stroke-dashoffset" values="61.489" fill="freeze" begin="7fa9.click" /><animate attributeName="stroke-dashoffset" values="61.489;61.489;0" keyTimes="0;0.765;1" dur="1.968s" fill="freeze" begin="0s;7fa9.click" /></path><path d="M43.76,50.91c-0.01,0.96-0.66,1.78-1.44,2.29c-3.69,2.42-8.81,4.42-17.76,7.66" stroke-dasharray="22.197" stroke-dashoffset="22.197"><animate attributeName="stroke-dashoffset" values="22.197" fill="freeze" begin="7fa9.click" /><animate attributeName="stroke-dashoffset" values="22.197;22.197;0" keyTimes="0;0.899;1" dur="2.19s" fill="freeze" begin="0s;7fa9.click" /></path><path d="M17,68.51c4.25,0.74,7.82,0.35,11.52-0.15c13.73-1.86,37.73-4.61,54.74-5.77c3.52-0.24,7-0.19,10.5,0.44" stroke-dasharray="77.161" stroke-dashoffset="77.161"><animate attributeName="stroke-dashoffset" values="77.161" fill="freeze" begin="7fa9.click" /><animate attributeName="stroke-dashoffset" values="77.161;77.161;0" keyTimes="0;0.791;1" dur="2.77s" fill="freeze" begin="0s;7fa9.click" /></path><path d="M39.77,58.78c0.79,0.79,1.26,2.09,1.26,3.17c0,9.02-0.01,30.62-0.01,33.68c0,7.86-5.21-0.07-6.71-0.84" stroke-dasharray="48.185" stroke-dashoffset="48.185"><animate attributeName="stroke-dashoffset" values="48.185" fill="freeze" begin="7fa9.click" /><animate attributeName="stroke-dashoffset" values="48.185;48.185;0" keyTimes="0;0.852;1" dur="3.252s" fill="freeze" begin="0s;7fa9.click" /></path><path d="M17.02,85.17c0.98,0.69,2.06,0.85,3.77,0.23c1.48-0.54,21.29-8.68,27.59-11.27" stroke-dasharray="33.755" stroke-dashoffset="33.755"><animate attributeName="stroke-dashoffset" values="33.755" fill="freeze" begin="7fa9.click" /><animate attributeName="stroke-dashoffset" values="33.755;33.755;0" keyTimes="0;0.906;1" dur="3.59s" fill="freeze" begin="0s;7fa9.click" /></path><path d="M59,49.25c1.35,1.1,2.38,2.66,2.69,5.02c2.56,19.48,11.56,35.48,25.68,44.49c4.99,3.18,4.55,0.47,3.87-4.4" stroke-dasharray="68.772" stroke-dashoffset="68.772"><animate attributeName="stroke-dashoffset" values="68.772" fill="freeze" begin="7fa9.click" /><animate attributeName="stroke-dashoffset" values="68.772;68.772;0" keyTimes="0;0.874;1" dur="4.107s" fill="freeze" begin="0s;7fa9.click" /></path><path d="M80.72,68.71c-0.09,1.04-0.3,1.99-0.87,2.86C76.29,77,65.5,86.71,48.81,94.2" stroke-dasharray="41.833" stroke-dashoffset="41.833"><animate attributeName="stroke-dashoffset" values="41.833" fill="freeze" begin="7fa9.click" /><animate attributeName="stroke-dashoffset" values="41.833;41.833;0" keyTimes="0;0.908;1" dur="4.525s" fill="freeze" begin="0s;7fa9.click" /></path><path d="M70.25,49.75c3.34,1.5,8.69,4.94,10.25,7.52" stroke-dasharray="12.841" stroke-dashoffset="12.841"><animate attributeName="stroke-dashoffset" values="12.841" fill="freeze" begin="7fa9.click" /><animate attributeName="stroke-dashoffset" values="12.841;12.841;0" keyTimes="0;0.946;1" dur="4.782s" fill="freeze" begin="0s;7fa9.click" /></path></g></svg>