<svg xmlns="http://www.w3.org/2000/svg" width="109" height="109" viewBox="0 0 109 109" id="7faf"><g fill="none" stroke="#666" stroke-width="9" stroke-linecap="round" stroke-linejoin="round"><g><g><path d="M15.75,14.75c3.43,2.53,8.85,10.41,9.71,14.35" /><path d="M43,14.25c0.02,0.38,0.05,0.97-0.05,1.51c-0.58,3.19-3.9,10.2-8.46,14.49" /><path d="M12.21,35.1c0.85,0.35,2.41,0.39,3.27,0.35C21.5,35.2,38,32.49,45.63,31.64c1.42-0.16,2.27,0.17,2.98,0.34" /><path d="M13.93,49.71c0.66,0.25,1.88,0.29,2.55,0.25c5.59-0.34,19.51-2.21,26.2-3c1.1-0.13,1.77,0.12,2.32,0.24" /><path d="M12,70.76c0.7,1.13,1.98,1.33,2.67,1.13c5.36-1.54,21.56-9.66,30.23-13.47" /><path d="M30.65,34.56c0.6,0.69,0.77,1.75,0.77,2.56C31.5,73.25,27.75,82.5,19.25,93.5" /></g><g><g><path d="M55.61,16.28c0.32,0.44,0.33,0.75,0.5,1.31c1.43,4.6,2.48,14.66,3.37,23.24" /><path d="M56.74,17.98c7.21-0.88,20.25-3.1,27.12-3.69c2.01-0.17,2.91,2.08,2.81,3.05c-0.38,3.58-1.78,15.75-2.7,21.73" /><path d="M58.39,28.57c4.1-0.45,23.9-3.05,25.98-3.18" /><path d="M60.25,39.59c9-1.34,16.35-1.97,23.52-2.19" /></g><g><g><g><path d="M62.31,43.46c0.06,0.56,0.24,1.47-0.1,2.23C59.6,51.38,53.68,59.72,43.75,67" /></g><path d="M61.76,52.63c0.84,0.52,2.01,0.69,3.35,0.35c1.34-0.35,22.43-2.7,25.77-3.11c2.06-0.26,3.51,1.36,3.16,4.99c-1.23,12.53-4.12,26.18-9.46,37.89c-2.07,4.53-6.12,4.64-8.32-0.5" /></g><g><path d="M69.74,57.5c0.27,0.28-0.04,1.74-0.22,2.27c-1.83,5.34-3.66,9.85-10.22,16.28" /><path d="M68.79,66.89c3.79,1.76,8.62,6.43,10.46,10.86" /></g><path d="M53.64,64.79c0.53,0.42,0.85,1.89,0.96,2.73c0.1,0.76-0.37,6.05-0.37,13.49c0,1.71,0.94,2.8,2.4,2.61c3.41-0.44,12.87-1.37,20.3-1.12c1.31,0.04,2.35,0.35,2.99,0.35" /></g></g></g></g><g fill="none" stroke="#000" stroke-width="5" stroke-linecap="round" stroke-linejoin="round"><g><g><path d="M15.75,14.75c3.43,2.53,8.85,10.41,9.71,14.35" stroke-dasharray="17.54" stroke-dashoffset="17.54"><animate id="0" attributeName="stroke-dashoffset" values="17.54;0" dur="0.18s" fill="freeze" begin="0s;7faf.click" /></path><path d="M43,14.25c0.02,0.38,0.05,0.97-0.05,1.51c-0.58,3.19-3.9,10.2-8.46,14.49" stroke-dasharray="18.5" stroke-dashoffset="18.5"><animate attributeName="stroke-dashoffset" values="18.5" fill="freeze" begin="7faf.click" /><animate id="1" attributeName="stroke-dashoffset" values="18.5;0" dur="0.18s" fill="freeze" begin="0.end" /></path><path d="M12.21,35.1c0.85,0.35,2.41,0.39,3.27,0.35C21.5,35.2,38,32.49,45.63,31.64c1.42-0.16,2.27,0.17,2.98,0.34" stroke-dasharray="36.73" stroke-dashoffset="36.73"><animate attributeName="stroke-dashoffset" values="36.73" fill="freeze" begin="7faf.click" /><animate id="2" attributeName="stroke-dashoffset" values="36.73;0" dur="0.37s" fill="freeze" begin="1.end" /></path><path d="M13.93,49.71c0.66,0.25,1.88,0.29,2.55,0.25c5.59-0.34,19.51-2.21,26.2-3c1.1-0.13,1.77,0.12,2.32,0.24" stroke-dasharray="31.3" stroke-dashoffset="31.3"><animate attributeName="stroke-dashoffset" values="31.3" fill="freeze" begin="7faf.click" /><animate id="3" attributeName="stroke-dashoffset" values="31.3;0" dur="0.31s" fill="freeze" begin="2.end" /></path><path d="M12,70.76c0.7,1.13,1.98,1.33,2.67,1.13c5.36-1.54,21.56-9.66,30.23-13.47" stroke-dasharray="36.21" stroke-dashoffset="36.21"><animate attributeName="stroke-dashoffset" values="36.21" fill="freeze" begin="7faf.click" /><animate id="4" attributeName="stroke-dashoffset" values="36.21;0" dur="0.36s" fill="freeze" begin="3.end" /></path><path d="M30.65,34.56c0.6,0.69,0.77,1.75,0.77,2.56C31.5,73.25,27.75,82.5,19.25,93.5" stroke-dasharray="61.66" stroke-dashoffset="61.66"><animate attributeName="stroke-dashoffset" values="61.66" fill="freeze" begin="7faf.click" /><animate id="5" attributeName="stroke-dashoffset" values="61.66;0" dur="0.46s" fill="freeze" begin="4.end" /></path></g><g><g><path d="M55.61,16.28c0.32,0.44,0.33,0.75,0.5,1.31c1.43,4.6,2.48,14.66,3.37,23.24" stroke-dasharray="24.92" stroke-dashoffset="24.92"><animate attributeName="stroke-dashoffset" values="24.92" fill="freeze" begin="7faf.click" /><animate id="6" attributeName="stroke-dashoffset" values="24.92;0" dur="0.25s" fill="freeze" begin="5.end" /></path><path d="M56.74,17.98c7.21-0.88,20.25-3.1,27.12-3.69c2.01-0.17,2.91,2.08,2.81,3.05c-0.38,3.58-1.78,15.75-2.7,21.73" stroke-dasharray="53.93" stroke-dashoffset="53.93"><animate attributeName="stroke-dashoffset" values="53.93" fill="freeze" begin="7faf.click" /><animate id="7" attributeName="stroke-dashoffset" values="53.93;0" dur="0.54s" fill="freeze" begin="6.end" /></path><path d="M58.39,28.57c4.1-0.45,23.9-3.05,25.98-3.18" stroke-dasharray="26.17" stroke-dashoffset="26.17"><animate attributeName="stroke-dashoffset" values="26.17" fill="freeze" begin="7faf.click" /><animate id="8" attributeName="stroke-dashoffset" values="26.17;0" dur="0.26s" fill="freeze" begin="7.end" /></path><path d="M60.25,39.59c9-1.34,16.35-1.97,23.52-2.19" stroke-dasharray="23.64" stroke-dashoffset="23.64"><animate attributeName="stroke-dashoffset" values="23.64" fill="freeze" begin="7faf.click" /><animate id="9" attributeName="stroke-dashoffset" values="23.64;0" dur="0.24s" fill="freeze" begin="8.end" /></path></g><g><g><g><path d="M62.31,43.46c0.06,0.56,0.24,1.47-0.1,2.23C59.6,51.38,53.68,59.72,43.75,67" stroke-dasharray="30.74" stroke-dashoffset="30.74"><animate attributeName="stroke-dashoffset" values="30.74" fill="freeze" begin="7faf.click" /><animate id="10" attributeName="stroke-dashoffset" values="30.74;0" dur="0.31s" fill="freeze" begin="9.end" /></path></g><path d="M61.76,52.63c0.84,0.52,2.01,0.69,3.35,0.35c1.34-0.35,22.43-2.7,25.77-3.11c2.06-0.26,3.51,1.36,3.16,4.99c-1.23,12.53-4.12,26.18-9.46,37.89c-2.07,4.53-6.12,4.64-8.32-0.5" stroke-dasharray="87.24" stroke-dashoffset="87.24"><animate attributeName="stroke-dashoffset" values="87.24" fill="freeze" begin="7faf.click" /><animate id="11" attributeName="stroke-dashoffset" values="87.24;0" dur="0.66s" fill="freeze" begin="10.end" /></path></g><g><path d="M69.74,57.5c0.27,0.28-0.04,1.74-0.22,2.27c-1.83,5.34-3.66,9.85-10.22,16.28" stroke-dasharray="21.77" stroke-dashoffset="21.77"><animate attributeName="stroke-dashoffset" values="21.77" fill="freeze" begin="7faf.click" /><animate id="12" attributeName="stroke-dashoffset" values="21.77;0" dur="0.22s" fill="freeze" begin="11.end" /></path><path d="M68.79,66.89c3.79,1.76,8.62,6.43,10.46,10.86" stroke-dasharray="15.36" stroke-dashoffset="15.36"><animate attributeName="stroke-dashoffset" values="15.36" fill="freeze" begin="7faf.click" /><animate id="13" attributeName="stroke-dashoffset" values="15.36;0" dur="0.15s" fill="freeze" begin="12.end" /></path></g><path d="M53.64,64.79c0.53,0.42,0.85,1.89,0.96,2.73c0.1,0.76-0.37,6.05-0.37,13.49c0,1.71,0.94,2.8,2.4,2.61c3.41-0.44,12.87-1.37,20.3-1.12c1.31,0.04,2.35,0.35,2.99,0.35" stroke-dasharray="43.89" stroke-dashoffset="43.89"><animate attributeName="stroke-dashoffset" values="43.89" fill="freeze" begin="7faf.click" /><animate id="14" attributeName="stroke-dashoffset" values="43.89;0" dur="0.44s" fill="freeze" begin="13.end" /></path></g></g></g></g></svg>