<svg xmlns="http://www.w3.org/2000/svg" width="109" height="109" viewBox="0 0 109 109" id="8001"><g fill="none" stroke="#666" stroke-width="9" stroke-linecap="round" stroke-linejoin="round"><g><g p4:partial xmlns:p4="http://kanjivg.tagaini.net"><g><path d="M31,30.7c2.25,0.42,4.66,0.35,6.64,0.02c8.86-1.47,18.48-2.6,26.86-3.64c1.85-0.23,3.75-0.08,5.63,0.27" /><path d="M49.67,12.37c0.86,0.85,1.52,2.27,1.52,4.14c0,9.37,0.06,23.25,0.06,28.5" /><path d="M17,49.03c3.12,0.72,5.75,0.84,8.78,0.44c20.06-2.66,37.22-5.22,60.09-6.43c3.8-0.2,6.11,0.08,8.01,0.43" /></g><path d="M79.84,16.98c0.18,1.61-0.3,3.55-1.6,5.45C61.56,46.85,44.5,65.25,16.81,83.97" /></g><g><path d="M80.19,58.64c-0.11,1.45-0.89,2.79-1.93,3.62c-5.62,4.52-13.24,8.82-22.01,12.49" /><path d="M50.6,62c0.78,0.84,1.35,2.12,1.35,3.51c0,1.15,0.01,15.74,0.01,20.46c0,8.29,1.78,10.07,19.44,10.07c16.34,0,17.88-1.66,17.88-11.92" /></g></g></g><g fill="none" stroke="#000" stroke-width="5" stroke-linecap="round" stroke-linejoin="round"><g><g p4:partial xmlns:p4="http://kanjivg.tagaini.net"><g><path d="M31,30.7c2.25,0.42,4.66,0.35,6.64,0.02c8.86-1.47,18.48-2.6,26.86-3.64c1.85-0.23,3.75-0.08,5.63,0.27" stroke-dasharray="39.44" stroke-dashoffset="39.44"><animate id="0" attributeName="stroke-dashoffset" values="39.44;0" dur="0.39s" fill="freeze" begin="0s;8001.click" /></path><path d="M49.67,12.37c0.86,0.85,1.52,2.27,1.52,4.14c0,9.37,0.06,23.25,0.06,28.5" stroke-dasharray="33.03" stroke-dashoffset="33.03"><animate attributeName="stroke-dashoffset" values="33.03" fill="freeze" begin="8001.click" /><animate id="1" attributeName="stroke-dashoffset" values="33.03;0" dur="0.33s" fill="freeze" begin="0.end" /></path><path d="M17,49.03c3.12,0.72,5.75,0.84,8.78,0.44c20.06-2.66,37.22-5.22,60.09-6.43c3.8-0.2,6.11,0.08,8.01,0.43" stroke-dasharray="77.34" stroke-dashoffset="77.34"><animate attributeName="stroke-dashoffset" values="77.34" fill="freeze" begin="8001.click" /><animate id="2" attributeName="stroke-dashoffset" values="77.34;0" dur="0.58s" fill="freeze" begin="1.end" /></path></g><path d="M79.84,16.98c0.18,1.61-0.3,3.55-1.6,5.45C61.56,46.85,44.5,65.25,16.81,83.97" stroke-dasharray="93.34" stroke-dashoffset="93.34"><animate attributeName="stroke-dashoffset" values="93.34" fill="freeze" begin="8001.click" /><animate id="3" attributeName="stroke-dashoffset" values="93.34;0" dur="0.7s" fill="freeze" begin="2.end" /></path></g><g><path d="M80.19,58.64c-0.11,1.45-0.89,2.79-1.93,3.62c-5.62,4.52-13.24,8.82-22.01,12.49" stroke-dasharray="29.6" stroke-dashoffset="29.6"><animate attributeName="stroke-dashoffset" values="29.6" fill="freeze" begin="8001.click" /><animate id="4" attributeName="stroke-dashoffset" values="29.6;0" dur="0.3s" fill="freeze" begin="3.end" /></path><path d="M50.6,62c0.78,0.84,1.35,2.12,1.35,3.51c0,1.15,0.01,15.74,0.01,20.46c0,8.29,1.78,10.07,19.44,10.07c16.34,0,17.88-1.66,17.88-11.92" stroke-dasharray="76.12" stroke-dashoffset="76.12"><animate attributeName="stroke-dashoffset" values="76.12" fill="freeze" begin="8001.click" /><animate id="5" attributeName="stroke-dashoffset" values="76.12;0" dur="0.57s" fill="freeze" begin="4.end" /></path></g></g></g></svg>