<svg xmlns="http://www.w3.org/2000/svg" width="109" height="109" viewBox="0 0 109 109" id="8002"><g fill="none" stroke="#666" stroke-width="9" stroke-linecap="round" stroke-linejoin="round"><g p3:partial xmlns:p3="http://kanjivg.tagaini.net"><g><path d="M25.25,33.59c2.05,0.95,5.76,0.86,7.88,0.59c10.24-1.31,21.19-2.92,33.12-4.5c2.42-0.32,4.74-0.65,7.12,0.01" /><path d="M51.17,14.62c1.04,1.04,1.27,2.38,1.27,3.89c0,8.95-0.07,26.62-0.07,29.75" /><path d="M9.88,53.01c4.38,1.74,9.19,0.85,13.48,0.22c15.9-2.35,39.02-5.23,65.53-6.46c3.92-0.18,8.3-0.38,12.13,0.7" /></g><path d="M86.84,22.6c-0.11,2.06-1.33,4.57-2.92,6.38C63.48,52.19,39,71.88,8,86.75" /></g></g><g fill="none" stroke="#000" stroke-width="5" stroke-linecap="round" stroke-linejoin="round"><g p3:partial xmlns:p3="http://kanjivg.tagaini.net"><g><path d="M25.25,33.59c2.05,0.95,5.76,0.86,7.88,0.59c10.24-1.31,21.19-2.92,33.12-4.5c2.42-0.32,4.74-0.65,7.12,0.01" stroke-dasharray="48.58" stroke-dashoffset="48.58"><animate id="0" attributeName="stroke-dashoffset" values="48.58;0" dur="0.49s" fill="freeze" begin="0s;8002.click" /></path><path d="M51.17,14.62c1.04,1.04,1.27,2.38,1.27,3.89c0,8.95-0.07,26.62-0.07,29.75" stroke-dasharray="33.96" stroke-dashoffset="33.96"><animate attributeName="stroke-dashoffset" values="33.96" fill="freeze" begin="8002.click" /><animate id="1" attributeName="stroke-dashoffset" values="33.96;0" dur="0.34s" fill="freeze" begin="0.end" /></path><path d="M9.88,53.01c4.38,1.74,9.19,0.85,13.48,0.22c15.9-2.35,39.02-5.23,65.53-6.46c3.92-0.18,8.3-0.38,12.13,0.7" stroke-dasharray="91.73" stroke-dashoffset="91.73"><animate attributeName="stroke-dashoffset" values="91.73" fill="freeze" begin="8002.click" /><animate id="2" attributeName="stroke-dashoffset" values="91.73;0" dur="0.69s" fill="freeze" begin="1.end" /></path></g><path d="M86.84,22.6c-0.11,2.06-1.33,4.57-2.92,6.38C63.48,52.19,39,71.88,8,86.75" stroke-dasharray="103.2" stroke-dashoffset="103.2"><animate attributeName="stroke-dashoffset" values="103.2" fill="freeze" begin="8002.click" /><animate id="3" attributeName="stroke-dashoffset" values="103.2;0" dur="0.78s" fill="freeze" begin="2.end" /></path></g></g></svg>