<svg xmlns="http://www.w3.org/2000/svg" width="109" height="109" viewBox="0 0 109 109" id="8003"><g fill="none" stroke="#666" stroke-width="9" stroke-linecap="round" stroke-linejoin="round"><g><g p4:partial xmlns:p4="http://kanjivg.tagaini.net"><g><path d="M35,24.52c1.5,0.27,4.25,0.38,5.76,0.27c9.12-0.64,17.37-2.13,24.11-2.52c2.49-0.14,4.01,0.13,5.26,0.26" /><path d="M52.17,10.87c0.98,0.98,1.77,2.38,1.77,3.89c0,6.96,0.13,18.42,0.08,23.5" /><path d="M13.25,42.28c2.79,0.69,7.32,0.7,10.11,0.44c22.93-2.1,39.09-4.6,63.81-5.43c4.63-0.16,7.14,0.08,9.46,0.43" /></g><path d="M81.59,14.23c0.19,1.38-0.08,3.39-1.47,5.03C63,39.62,46.88,55.25,14.62,72.75" /></g><g p4:phon="丂" xmlns:p4="http://kanjivg.tagaini.net"><g><path d="M76.26,48.75c-0.26,1.12-0.94,2.24-2.61,3.04C68.75,54.12,62,56.38,54.5,58.5" /></g><path d="M53.25,50.25c0.5,1.25-0.22,3.1-1.73,5.58c-1.77,2.92-4.76,6.83-5.26,7.45c-2.01,2.47-1.51,4.36,1.14,4.25c3.47-0.15,23.72-2.52,29.51-3.24c3.35-0.42,4.84,1.97,3.93,4.6c-2.3,6.72-7.79,21.33-12.08,26.38c-2.52,2.98-5.27,0.73-7.54-2.57" /></g></g></g><g fill="none" stroke="#000" stroke-width="5" stroke-linecap="round" stroke-linejoin="round"><g><g p4:partial xmlns:p4="http://kanjivg.tagaini.net"><g><path d="M35,24.52c1.5,0.27,4.25,0.38,5.76,0.27c9.12-0.64,17.37-2.13,24.11-2.52c2.49-0.14,4.01,0.13,5.26,0.26" stroke-dasharray="35.3" stroke-dashoffset="35.3"><animate id="0" attributeName="stroke-dashoffset" values="35.3;0" dur="0.35s" fill="freeze" begin="0s;8003.click" /></path><path d="M52.17,10.87c0.98,0.98,1.77,2.38,1.77,3.89c0,6.96,0.13,18.42,0.08,23.5" stroke-dasharray="27.88" stroke-dashoffset="27.88"><animate attributeName="stroke-dashoffset" values="27.88" fill="freeze" begin="8003.click" /><animate id="1" attributeName="stroke-dashoffset" values="27.88;0" dur="0.28s" fill="freeze" begin="0.end" /></path><path d="M13.25,42.28c2.79,0.69,7.32,0.7,10.11,0.44c22.93-2.1,39.09-4.6,63.81-5.43c4.63-0.16,7.14,0.08,9.46,0.43" stroke-dasharray="83.7" stroke-dashoffset="83.7"><animate attributeName="stroke-dashoffset" values="83.7" fill="freeze" begin="8003.click" /><animate id="2" attributeName="stroke-dashoffset" values="83.7;0" dur="0.63s" fill="freeze" begin="1.end" /></path></g><path d="M81.59,14.23c0.19,1.38-0.08,3.39-1.47,5.03C63,39.62,46.88,55.25,14.62,72.75" stroke-dasharray="90.56" stroke-dashoffset="90.56"><animate attributeName="stroke-dashoffset" values="90.56" fill="freeze" begin="8003.click" /><animate id="3" attributeName="stroke-dashoffset" values="90.56;0" dur="0.68s" fill="freeze" begin="2.end" /></path></g><g p4:phon="丂" xmlns:p4="http://kanjivg.tagaini.net"><g><path d="M76.26,48.75c-0.26,1.12-0.94,2.24-2.61,3.04C68.75,54.12,62,56.38,54.5,58.5" stroke-dasharray="24.47" stroke-dashoffset="24.47"><animate attributeName="stroke-dashoffset" values="24.47" fill="freeze" begin="8003.click" /><animate id="4" attributeName="stroke-dashoffset" values="24.47;0" dur="0.24s" fill="freeze" begin="3.end" /></path></g><path d="M53.25,50.25c0.5,1.25-0.22,3.1-1.73,5.58c-1.77,2.92-4.76,6.83-5.26,7.45c-2.01,2.47-1.51,4.36,1.14,4.25c3.47-0.15,23.72-2.52,29.51-3.24c3.35-0.42,4.84,1.97,3.93,4.6c-2.3,6.72-7.79,21.33-12.08,26.38c-2.52,2.98-5.27,0.73-7.54-2.57" stroke-dasharray="97.31" stroke-dashoffset="97.31"><animate attributeName="stroke-dashoffset" values="97.31" fill="freeze" begin="8003.click" /><animate id="5" attributeName="stroke-dashoffset" values="97.31;0" dur="0.73s" fill="freeze" begin="4.end" /></path></g></g></g></svg>