<svg xmlns="http://www.w3.org/2000/svg" width="109" height="109" viewBox="0 0 109 109" id="8005"><g fill="none" stroke="#666" stroke-width="9" stroke-linecap="round" stroke-linejoin="round"><g><g p4:partial xmlns:p4="http://kanjivg.tagaini.net"><g><path d="M29.5,25.95c1.26,0.33,3.56,0.45,4.82,0.33c9.18-0.91,20.31-2.28,30.41-3c2.09-0.15,3.35,0.16,4.4,0.32" /><path d="M51.17,10.12c0.79,0.79,1.52,2.13,1.52,3.64c0,12,0.06,25.45,0.06,28.5" /><path d="M12.5,46.03c2.76,0.47,5.51,0.85,9.48,0.44c16.9-1.72,50.65-5.6,66.75-5.93c4.12-0.09,6.59,0.33,8.65,0.68" /></g><path d="M82.75,15.25c0,1.5-0.57,4.02-1.89,5.61C63.81,41.23,47.5,56.38,16.25,74.12" /></g><g><path d="M41.27,60.38c0.93,0.93,1.41,2.34,1.41,3.53c0,2.05-0.03,23.14-0.05,32.09c0,2.34-0.01,3.84-0.01,3.97" /><path d="M43.68,61.53c2.31-0.13,23.39-3.17,29.2-3.89c3.03-0.38,4.39,0.78,4.24,3.73c-0.24,4.91-0.35,20.99-0.35,32.51c0,1.34-0.15,4.43-0.15,5.32" /><path d="M44.13,78.14C52.62,77.25,70,75,75.57,74.7" /><path d="M43.97,95.41c8.91-0.78,22.81-2.1,31.59-2.65" /></g></g></g><g fill="none" stroke="#000" stroke-width="5" stroke-linecap="round" stroke-linejoin="round"><g><g p4:partial xmlns:p4="http://kanjivg.tagaini.net"><g><path d="M29.5,25.95c1.26,0.33,3.56,0.45,4.82,0.33c9.18-0.91,20.31-2.28,30.41-3c2.09-0.15,3.35,0.16,4.4,0.32" stroke-dasharray="39.83" stroke-dashoffset="39.83"><animate id="0" attributeName="stroke-dashoffset" values="39.83;0" dur="0.4s" fill="freeze" begin="0s;8005.click" /></path><path d="M51.17,10.12c0.79,0.79,1.52,2.13,1.52,3.64c0,12,0.06,25.45,0.06,28.5" stroke-dasharray="32.54" stroke-dashoffset="32.54"><animate attributeName="stroke-dashoffset" values="32.54" fill="freeze" begin="8005.click" /><animate id="1" attributeName="stroke-dashoffset" values="32.54;0" dur="0.33s" fill="freeze" begin="0.end" /></path><path d="M12.5,46.03c2.76,0.47,5.51,0.85,9.48,0.44c16.9-1.72,50.65-5.6,66.75-5.93c4.12-0.09,6.59,0.33,8.65,0.68" stroke-dasharray="85.24" stroke-dashoffset="85.24"><animate attributeName="stroke-dashoffset" values="85.24" fill="freeze" begin="8005.click" /><animate id="2" attributeName="stroke-dashoffset" values="85.24;0" dur="0.64s" fill="freeze" begin="1.end" /></path></g><path d="M82.75,15.25c0,1.5-0.57,4.02-1.89,5.61C63.81,41.23,47.5,56.38,16.25,74.12" stroke-dasharray="90.28" stroke-dashoffset="90.28"><animate attributeName="stroke-dashoffset" values="90.28" fill="freeze" begin="8005.click" /><animate id="3" attributeName="stroke-dashoffset" values="90.28;0" dur="0.68s" fill="freeze" begin="2.end" /></path></g><g><path d="M41.27,60.38c0.93,0.93,1.41,2.34,1.41,3.53c0,2.05-0.03,23.14-0.05,32.09c0,2.34-0.01,3.84-0.01,3.97" stroke-dasharray="39.95" stroke-dashoffset="39.95"><animate attributeName="stroke-dashoffset" values="39.95" fill="freeze" begin="8005.click" /><animate id="4" attributeName="stroke-dashoffset" values="39.95;0" dur="0.4s" fill="freeze" begin="3.end" /></path><path d="M43.68,61.53c2.31-0.13,23.39-3.17,29.2-3.89c3.03-0.38,4.39,0.78,4.24,3.73c-0.24,4.91-0.35,20.99-0.35,32.51c0,1.34-0.15,4.43-0.15,5.32" stroke-dasharray="74.13" stroke-dashoffset="74.13"><animate attributeName="stroke-dashoffset" values="74.13" fill="freeze" begin="8005.click" /><animate id="5" attributeName="stroke-dashoffset" values="74.13;0" dur="0.56s" fill="freeze" begin="4.end" /></path><path d="M44.13,78.14C52.62,77.25,70,75,75.57,74.7" stroke-dasharray="31.63" stroke-dashoffset="31.63"><animate attributeName="stroke-dashoffset" values="31.63" fill="freeze" begin="8005.click" /><animate id="6" attributeName="stroke-dashoffset" values="31.63;0" dur="0.32s" fill="freeze" begin="5.end" /></path><path d="M43.97,95.41c8.91-0.78,22.81-2.1,31.59-2.65" stroke-dasharray="31.7" stroke-dashoffset="31.7"><animate attributeName="stroke-dashoffset" values="31.7" fill="freeze" begin="8005.click" /><animate id="7" attributeName="stroke-dashoffset" values="31.7;0" dur="0.32s" fill="freeze" begin="6.end" /></path></g></g></g></svg>