<svg xmlns="http://www.w3.org/2000/svg" width="109" height="109" viewBox="0 0 109 109" id="8006"><g fill="none" stroke="#666" stroke-width="6" stroke-linecap="round" stroke-linejoin="round"><g><g><g p5:partial xmlns:p5="http://kanjivg.tagaini.net"><g><path d="M27.75,26.47c0.77,0.21,2.19,0.23,2.96,0.21c8.79-0.33,25.79-2.72,33.21-3.17c1.28-0.08,2.06,0.1,2.71,0.2" /><path d="M47.17,12.12c0.12,0.18,1.65,0.96,1.77,2.13c0.57,5.61,0.31,20.95,0.31,22.86" /><path d="M13.5,40.79c1.57,0.43,4.46,0.62,6.01,0.43c16.24-1.97,47.24-5.97,69.37-8.01c2.6-0.24,4.18,0.21,5.49,0.43" /></g><path d="M79.34,14.88c0.18,1.01-0.05,2.85-1.35,4.05C61.31,34.26,41.25,49.96,13.56,61.71" /></g><g><path d="M71.84,41.5c0.4,0.35,0.72,1.43-0.37,1.93c-7.7,3.48-20.6,8.07-31.47,10.09" /><path d="M37.85,44.92c0.9,0.36,0.96,0.59,1.26,1.07c0.3,0.47,0.3,6.38,0.3,7.87c0,6.39,11.99,5.22,22.2,5.22c11.14,0,19.89-0.58,19.93-5.64" /></g></g><g><path d="M36.52,68.69c0.39,0.78,1.28,2.18,1.28,3.22c0,1.04,2.87,25.29,3,26.34" /><path d="M38.44,70.32c2.2-0.13,32.91-3.17,34.92-3.33c1.67-0.13,3.74,2.45,3.61,3.22c-0.26,1.57-3.52,26.23-3.52,27.01" /><path d="M39.33,81.98c2.97,0,32.36-2.31,35.72-2.31" /><path d="M42.19,95.31c6.06-0.56,22.81-1.06,30.35-1.54" /></g></g></g><g fill="none" stroke="#000" stroke-width="3" stroke-linecap="round" stroke-linejoin="round"><path d="M27.75,26.47c0.77,0.21,2.19,0.23,2.96,0.21c8.79-0.33,25.79-2.72,33.21-3.17c1.28-0.08,2.06,0.1,2.71,0.2" stroke-dasharray="39.067" stroke-dashoffset="39.067"><animate attributeName="stroke-dashoffset" values="39.067;39.067;0" dur="0.391s" fill="freeze" begin="0s;8006.click" /></path><path d="M47.17,12.12c0.12,0.18,1.65,0.96,1.77,2.13c0.57,5.61,0.31,20.95,0.31,22.86" stroke-dasharray="25.723" stroke-dashoffset="25.723"><animate attributeName="stroke-dashoffset" values="25.723" fill="freeze" begin="8006.click" /><animate attributeName="stroke-dashoffset" values="25.723;25.723;0" keyTimes="0;0.603;1" dur="0.648s" fill="freeze" begin="0s;8006.click" /></path><path d="M13.5,40.79c1.57,0.43,4.46,0.62,6.01,0.43c16.24-1.97,47.24-5.97,69.37-8.01c2.6-0.24,4.18,0.21,5.49,0.43" stroke-dasharray="81.416" stroke-dashoffset="81.416"><animate attributeName="stroke-dashoffset" values="81.416" fill="freeze" begin="8006.click" /><animate attributeName="stroke-dashoffset" values="81.416;81.416;0" keyTimes="0;0.514;1" dur="1.26s" fill="freeze" begin="0s;8006.click" /></path><path d="M79.34,14.88c0.18,1.01-0.05,2.85-1.35,4.05C61.31,34.26,41.25,49.96,13.56,61.71" stroke-dasharray="82.178" stroke-dashoffset="82.178"><animate attributeName="stroke-dashoffset" values="82.178" fill="freeze" begin="8006.click" /><animate attributeName="stroke-dashoffset" values="82.178;82.178;0" keyTimes="0;0.671;1" dur="1.878s" fill="freeze" begin="0s;8006.click" /></path><path d="M71.84,41.5c0.4,0.35,0.72,1.43-0.37,1.93c-7.7,3.48-20.6,8.07-31.47,10.09" stroke-dasharray="35.465" stroke-dashoffset="35.465"><animate attributeName="stroke-dashoffset" values="35.465" fill="freeze" begin="8006.click" /><animate attributeName="stroke-dashoffset" values="35.465;35.465;0" keyTimes="0;0.841;1" dur="2.233s" fill="freeze" begin="0s;8006.click" /></path><path d="M37.85,44.92c0.9,0.36,0.96,0.59,1.26,1.07c0.3,0.47,0.3,6.38,0.3,7.87c0,6.39,11.99,5.22,22.2,5.22c11.14,0,19.89-0.58,19.93-5.64" stroke-dasharray="56.592" stroke-dashoffset="56.592"><animate attributeName="stroke-dashoffset" values="56.592" fill="freeze" begin="8006.click" /><animate attributeName="stroke-dashoffset" values="56.592;56.592;0" keyTimes="0;0.798;1" dur="2.799s" fill="freeze" begin="0s;8006.click" /></path><path d="M36.52,68.69c0.39,0.78,1.28,2.18,1.28,3.22c0,1.04,2.87,25.29,3,26.34" stroke-dasharray="30.008" stroke-dashoffset="30.008"><animate attributeName="stroke-dashoffset" values="30.008" fill="freeze" begin="8006.click" /><animate attributeName="stroke-dashoffset" values="30.008;30.008;0" keyTimes="0;0.903;1" dur="3.099s" fill="freeze" begin="0s;8006.click" /></path><path d="M38.44,70.32c2.2-0.13,32.91-3.17,34.92-3.33c1.67-0.13,3.74,2.45,3.61,3.22c-0.26,1.57-3.52,26.23-3.52,27.01" stroke-dasharray="67.49" stroke-dashoffset="67.49"><animate attributeName="stroke-dashoffset" values="67.49" fill="freeze" begin="8006.click" /><animate attributeName="stroke-dashoffset" values="67.49;67.49;0" keyTimes="0;0.859;1" dur="3.606s" fill="freeze" begin="0s;8006.click" /></path><path d="M39.33,81.98c2.97,0,32.36-2.31,35.72-2.31" stroke-dasharray="35.797" stroke-dashoffset="35.797"><animate attributeName="stroke-dashoffset" values="35.797" fill="freeze" begin="8006.click" /><animate attributeName="stroke-dashoffset" values="35.797;35.797;0" keyTimes="0;0.91;1" dur="3.964s" fill="freeze" begin="0s;8006.click" /></path><path d="M42.19,95.31c6.06-0.56,22.81-1.06,30.35-1.54" stroke-dasharray="30.392" stroke-dashoffset="30.392"><animate attributeName="stroke-dashoffset" values="30.392" fill="freeze" begin="8006.click" /><animate attributeName="stroke-dashoffset" values="30.392;30.392;0" keyTimes="0;0.929;1" dur="4.268s" fill="freeze" begin="0s;8006.click" /></path></g></svg>