<svg xmlns="http://www.w3.org/2000/svg" width="109" height="109" viewBox="0 0 109 109" id="800b"><g fill="none" stroke="#666" stroke-width="9" stroke-linecap="round" stroke-linejoin="round"><g><g><g p5:partial xmlns:p5="http://kanjivg.tagaini.net"><g><path d="M26,21.97c1.08,0.27,3.07,0.31,4.16,0.27c12.33-0.44,23.63-1.77,34.04-2.38c1.8-0.1,2.9,0.13,3.8,0.27" /><path d="M48.67,10.87c0.83,0.63,1.77,1.38,1.77,3.64c0,10-0.19,15.12-0.19,16.6" /><path d="M15.5,33.17c1.68,0.29,4.78,0.41,6.45,0.29c17.4-1.3,40.82-2.93,64.55-4.27c2.79-0.16,4.48,0.14,5.88,0.28" /></g><path d="M79.76,10.25c0.17,0.89-0.2,2.38-1.34,3.57C63.75,29,45.5,43.5,16.06,51.46" /></g><g><path d="M77.72,35.75c0.39,0.27,0.65,0.94-0.37,1.48C70.25,41,59.5,43.5,46.25,45" /><path d="M41.25,38.25c0.96,0.35,1.02,0.58,1.35,1.04c0.32,0.46,0.32,5.24,0.32,6.69c0,4.27,4.58,5.1,21.78,5.1c18.55,0,21.84-0.83,21.84-8.01" /></g></g><g><path d="M23.35,60.79c1.55,0.31,4.4,0.4,5.95,0.31c14.71-0.85,33.46-2.35,50.28-2.53c2.58-0.03,4.14,0.15,5.43,0.3" /><g><path d="M44,62.75c0,0.75-0.45,2.06-0.76,2.36c-3.54,3.45-4.4,4.67-9.28,7.99c-1.57,1.07-1.69,2.79,0.84,2.48c5.89-0.74,30.91-4.86,40.2-6.08" /><path d="M66.25,63c5.74,2.65,14.82,10.88,16.25,15" /></g><g><path d="M24.63,85.62c1.2,0.25,3.4,0.31,4.6,0.25c12.35-0.62,38.28-1.62,50.46-2.47c1.99-0.14,3.2,0.12,4.19,0.25" /><path d="M51.33,74.12c1.42,0.63,2.1,1.63,2.1,2.89c0,10.75,0.16,15.25,0.16,18.75" /><path d="M17.63,97.04c1.68,0.29,4.77,0.37,6.44,0.29C40.75,96.5,67,94.75,88.5,94.87c2.8,0.02,4.48,0.14,5.88,0.28" /></g></g></g></g><g fill="none" stroke="#000" stroke-width="5" stroke-linecap="round" stroke-linejoin="round"><g><g><g p5:partial xmlns:p5="http://kanjivg.tagaini.net"><g><path d="M26,21.97c1.08,0.27,3.07,0.31,4.16,0.27c12.33-0.44,23.63-1.77,34.04-2.38c1.8-0.1,2.9,0.13,3.8,0.27" stroke-dasharray="42.12" stroke-dashoffset="42.12"><animate id="0" attributeName="stroke-dashoffset" values="42.12;0" dur="0.42s" fill="freeze" begin="0s;800b.click" /></path><path d="M48.67,10.87c0.83,0.63,1.77,1.38,1.77,3.64c0,10-0.19,15.12-0.19,16.6" stroke-dasharray="20.84" stroke-dashoffset="20.84"><animate attributeName="stroke-dashoffset" values="20.84" fill="freeze" begin="800b.click" /><animate id="1" attributeName="stroke-dashoffset" values="20.84;0" dur="0.21s" fill="freeze" begin="0.end" /></path><path d="M15.5,33.17c1.68,0.29,4.78,0.41,6.45,0.29c17.4-1.3,40.82-2.93,64.55-4.27c2.79-0.16,4.48,0.14,5.88,0.28" stroke-dasharray="77.06" stroke-dashoffset="77.06"><animate attributeName="stroke-dashoffset" values="77.06" fill="freeze" begin="800b.click" /><animate id="2" attributeName="stroke-dashoffset" values="77.06;0" dur="0.58s" fill="freeze" begin="1.end" /></path></g><path d="M79.76,10.25c0.17,0.89-0.2,2.38-1.34,3.57C63.75,29,45.5,43.5,16.06,51.46" stroke-dasharray="77.76" stroke-dashoffset="77.76"><animate attributeName="stroke-dashoffset" values="77.76" fill="freeze" begin="800b.click" /><animate id="3" attributeName="stroke-dashoffset" values="77.76;0" dur="0.58s" fill="freeze" begin="2.end" /></path></g><g><path d="M77.72,35.75c0.39,0.27,0.65,0.94-0.37,1.48C70.25,41,59.5,43.5,46.25,45" stroke-dasharray="34.13" stroke-dashoffset="34.13"><animate attributeName="stroke-dashoffset" values="34.13" fill="freeze" begin="800b.click" /><animate id="4" attributeName="stroke-dashoffset" values="34.13;0" dur="0.34s" fill="freeze" begin="3.end" /></path><path d="M41.25,38.25c0.96,0.35,1.02,0.58,1.35,1.04c0.32,0.46,0.32,5.24,0.32,6.69c0,4.27,4.58,5.1,21.78,5.1c18.55,0,21.84-0.83,21.84-8.01" stroke-dasharray="59.01" stroke-dashoffset="59.01"><animate attributeName="stroke-dashoffset" values="59.01" fill="freeze" begin="800b.click" /><animate id="5" attributeName="stroke-dashoffset" values="59.01;0" dur="0.59s" fill="freeze" begin="4.end" /></path></g></g><g><path d="M23.35,60.79c1.55,0.31,4.4,0.4,5.95,0.31c14.71-0.85,33.46-2.35,50.28-2.53c2.58-0.03,4.14,0.15,5.43,0.3" stroke-dasharray="61.76" stroke-dashoffset="61.76"><animate attributeName="stroke-dashoffset" values="61.76" fill="freeze" begin="800b.click" /><animate id="6" attributeName="stroke-dashoffset" values="61.76;0" dur="0.46s" fill="freeze" begin="5.end" /></path><g><path d="M44,62.75c0,0.75-0.45,2.06-0.76,2.36c-3.54,3.45-4.4,4.67-9.28,7.99c-1.57,1.07-1.69,2.79,0.84,2.48c5.89-0.74,30.91-4.86,40.2-6.08" stroke-dasharray="59.92" stroke-dashoffset="59.92"><animate attributeName="stroke-dashoffset" values="59.92" fill="freeze" begin="800b.click" /><animate id="7" attributeName="stroke-dashoffset" values="59.92;0" dur="0.6s" fill="freeze" begin="6.end" /></path><path d="M66.25,63c5.74,2.65,14.82,10.88,16.25,15" stroke-dasharray="22.44" stroke-dashoffset="22.44"><animate attributeName="stroke-dashoffset" values="22.44" fill="freeze" begin="800b.click" /><animate id="8" attributeName="stroke-dashoffset" values="22.44;0" dur="0.22s" fill="freeze" begin="7.end" /></path></g><g><path d="M24.63,85.62c1.2,0.25,3.4,0.31,4.6,0.25c12.35-0.62,38.28-1.62,50.46-2.47c1.99-0.14,3.2,0.12,4.19,0.25" stroke-dasharray="59.34" stroke-dashoffset="59.34"><animate attributeName="stroke-dashoffset" values="59.34" fill="freeze" begin="800b.click" /><animate id="9" attributeName="stroke-dashoffset" values="59.34;0" dur="0.59s" fill="freeze" begin="8.end" /></path><path d="M51.33,74.12c1.42,0.63,2.1,1.63,2.1,2.89c0,10.75,0.16,15.25,0.16,18.75" stroke-dasharray="22.55" stroke-dashoffset="22.55"><animate attributeName="stroke-dashoffset" values="22.55" fill="freeze" begin="800b.click" /><animate id="10" attributeName="stroke-dashoffset" values="22.55;0" dur="0.23s" fill="freeze" begin="9.end" /></path><path d="M17.63,97.04c1.68,0.29,4.77,0.37,6.44,0.29C40.75,96.5,67,94.75,88.5,94.87c2.8,0.02,4.48,0.14,5.88,0.28" stroke-dasharray="76.83" stroke-dashoffset="76.83"><animate attributeName="stroke-dashoffset" values="76.83" fill="freeze" begin="800b.click" /><animate id="11" attributeName="stroke-dashoffset" values="76.83;0" dur="0.58s" fill="freeze" begin="10.end" /></path></g></g></g></g></svg>