<svg xmlns="http://www.w3.org/2000/svg" width="109" height="109" viewBox="0 0 109 109" id="8033"><g fill="none" stroke="#666" stroke-width="6" stroke-linecap="round" stroke-linejoin="round"><g><path d="M20.25,20c3.03,0.85,6.17,0.58,9.24,0.21c14.62-1.76,31.45-3.95,48.12-5.06c3.33-0.22,6.59-0.2,9.89,0.35" /><path d="M36.68,22.5c1.1,1.1,1.64,2.71,1.64,4.73c0,1.6-0.33,40.02-0.33,41.52" /><path d="M39.5,35.5c6.75-0.88,24-2.75,32.25-3.25" /><path d="M39.25,51.25c7-0.5,24.62-2.75,32.25-3" /><path d="M17.25,71c0.75,1.12,2.01,1.81,3.75,1.5c7-1.25,48-8.75,58.75-10.75" /><path d="M71,18.5c1,1,1.75,2.5,1.75,4.25c0,1.05,0.18,44.73,0.23,64.75c0.01,3.74,0.02,6.64,0.02,8.25" /></g></g><g fill="none" stroke="#000" stroke-width="3" stroke-linecap="round" stroke-linejoin="round"><path d="M20.25,20c3.03,0.85,6.17,0.58,9.24,0.21c14.62-1.76,31.45-3.95,48.12-5.06c3.33-0.22,6.59-0.2,9.89,0.35" stroke-dasharray="67.617" stroke-dashoffset="67.617"><animate attributeName="stroke-dashoffset" values="67.617;67.617;0" dur="0.508s" fill="freeze" begin="0s;8033.click" /></path><path d="M36.68,22.5c1.1,1.1,1.64,2.71,1.64,4.73c0,1.6-0.33,40.02-0.33,41.52" stroke-dasharray="46.662" stroke-dashoffset="46.662"><animate attributeName="stroke-dashoffset" values="46.662" fill="freeze" begin="8033.click" /><animate attributeName="stroke-dashoffset" values="46.662;46.662;0" keyTimes="0;0.521;1" dur="0.975s" fill="freeze" begin="0s;8033.click" /></path><path d="M39.5,35.5c6.75-0.88,24-2.75,32.25-3.25" stroke-dasharray="32.418" stroke-dashoffset="32.418"><animate attributeName="stroke-dashoffset" values="32.418" fill="freeze" begin="8033.click" /><animate attributeName="stroke-dashoffset" values="32.418;32.418;0" keyTimes="0;0.751;1" dur="1.299s" fill="freeze" begin="0s;8033.click" /></path><path d="M39.25,51.25c7-0.5,24.62-2.75,32.25-3" stroke-dasharray="32.394" stroke-dashoffset="32.394"><animate attributeName="stroke-dashoffset" values="32.394" fill="freeze" begin="8033.click" /><animate attributeName="stroke-dashoffset" values="32.394;32.394;0" keyTimes="0;0.8;1" dur="1.623s" fill="freeze" begin="0s;8033.click" /></path><path d="M17.25,71c0.75,1.12,2.01,1.81,3.75,1.5c7-1.25,48-8.75,58.75-10.75" stroke-dasharray="64.022" stroke-dashoffset="64.022"><animate attributeName="stroke-dashoffset" values="64.022" fill="freeze" begin="8033.click" /><animate attributeName="stroke-dashoffset" values="64.022;64.022;0" keyTimes="0;0.771;1" dur="2.104s" fill="freeze" begin="0s;8033.click" /></path><path d="M71,18.5c1,1,1.75,2.5,1.75,4.25c0,1.05,0.18,44.73,0.23,64.75c0.01,3.74,0.02,6.64,0.02,8.25" stroke-dasharray="77.717" stroke-dashoffset="77.717"><animate attributeName="stroke-dashoffset" values="77.717" fill="freeze" begin="8033.click" /><animate attributeName="stroke-dashoffset" values="77.717;77.717;0" keyTimes="0;0.783;1" dur="2.688s" fill="freeze" begin="0s;8033.click" /></path></g></svg>