<svg xmlns="http://www.w3.org/2000/svg" width="109" height="109" viewBox="0 0 109 109" id="8036"><g fill="none" stroke="#666" stroke-width="9" stroke-linecap="round" stroke-linejoin="round"><g><g><path d="M13.94,19.79c2.23,1.06,5.87,0.85,8.22,0.58c7.16-0.82,16.35-2,26.09-3.49c2.61-0.4,5.25-0.63,7.75-0.17" /><path d="M24.68,23.32c0.88,0.88,1.03,2.08,1.03,3.47c0,1.39-0.08,40.1-0.08,45.09" /><path d="M26.55,37.48c9.2-1.73,11.45-2.23,19.58-3.08" /><path d="M26.74,51.7c7.51-1.2,10.26-1.95,19.42-2.8" /><path d="M13.5,76.24c1.5,0.88,2.75,1.13,4.17,0.52c3.39-1.46,21.02-9.81,26.21-12.17" /><path d="M46,20.25c1.09,1.09,1.1,2.43,1.1,3.88c-0.01,5.94-0.07,43.46-0.09,62.37c0,3.98-0.01,7.14-0.01,9" /></g><g><path d="M63.92,17.42c2.33,0.58,3.92,0.6,6.08,0.21c5.62-1.02,14-3,17.42-4.21c2.98-1.05,5.22,1.48,3.92,3.83c-2.08,3.75-8.21,14-11.83,19" /><path d="M79.5,36.25c21.62,13.25,16,42.25,2.48,33.66" /><path d="M66.33,18.5c0.83,0.84,1,2.08,1,3.87c0,11.95,0.02,48.06,0.03,65.5c0,4.04,0,7.1,0,8.63" /></g></g></g><g fill="none" stroke="#000" stroke-width="5" stroke-linecap="round" stroke-linejoin="round"><g><g><path d="M13.94,19.79c2.23,1.06,5.87,0.85,8.22,0.58c7.16-0.82,16.35-2,26.09-3.49c2.61-0.4,5.25-0.63,7.75-0.17" stroke-dasharray="42.44" stroke-dashoffset="42.44"><animate id="0" attributeName="stroke-dashoffset" values="42.44;0" dur="0.42s" fill="freeze" begin="0s;8036.click" /></path><path d="M24.68,23.32c0.88,0.88,1.03,2.08,1.03,3.47c0,1.39-0.08,40.1-0.08,45.09" stroke-dasharray="48.81" stroke-dashoffset="48.81"><animate attributeName="stroke-dashoffset" values="48.81" fill="freeze" begin="8036.click" /><animate id="1" attributeName="stroke-dashoffset" values="48.81;0" dur="0.49s" fill="freeze" begin="0.end" /></path><path d="M26.55,37.48c9.2-1.73,11.45-2.23,19.58-3.08" stroke-dasharray="19.83" stroke-dashoffset="19.83"><animate attributeName="stroke-dashoffset" values="19.83" fill="freeze" begin="8036.click" /><animate id="2" attributeName="stroke-dashoffset" values="19.83;0" dur="0.2s" fill="freeze" begin="1.end" /></path><path d="M26.74,51.7c7.51-1.2,10.26-1.95,19.42-2.8" stroke-dasharray="19.63" stroke-dashoffset="19.63"><animate attributeName="stroke-dashoffset" values="19.63" fill="freeze" begin="8036.click" /><animate id="3" attributeName="stroke-dashoffset" values="19.63;0" dur="0.2s" fill="freeze" begin="2.end" /></path><path d="M13.5,76.24c1.5,0.88,2.75,1.13,4.17,0.52c3.39-1.46,21.02-9.81,26.21-12.17" stroke-dasharray="33.28" stroke-dashoffset="33.28"><animate attributeName="stroke-dashoffset" values="33.28" fill="freeze" begin="8036.click" /><animate id="4" attributeName="stroke-dashoffset" values="33.28;0" dur="0.33s" fill="freeze" begin="3.end" /></path><path d="M46,20.25c1.09,1.09,1.1,2.43,1.1,3.88c-0.01,5.94-0.07,43.46-0.09,62.37c0,3.98-0.01,7.14-0.01,9" stroke-dasharray="75.53" stroke-dashoffset="75.53"><animate attributeName="stroke-dashoffset" values="75.53" fill="freeze" begin="8036.click" /><animate id="5" attributeName="stroke-dashoffset" values="75.53;0" dur="0.57s" fill="freeze" begin="4.end" /></path></g><g><path d="M63.92,17.42c2.33,0.58,3.92,0.6,6.08,0.21c5.62-1.02,14-3,17.42-4.21c2.98-1.05,5.22,1.48,3.92,3.83c-2.08,3.75-8.21,14-11.83,19" stroke-dasharray="53.74" stroke-dashoffset="53.74"><animate attributeName="stroke-dashoffset" values="53.74" fill="freeze" begin="8036.click" /><animate id="6" attributeName="stroke-dashoffset" values="53.74;0" dur="0.54s" fill="freeze" begin="5.end" /></path><path d="M79.5,36.25c21.62,13.25,16,42.25,2.48,33.66" stroke-dasharray="49.09" stroke-dashoffset="49.09"><animate attributeName="stroke-dashoffset" values="49.09" fill="freeze" begin="8036.click" /><animate id="7" attributeName="stroke-dashoffset" values="49.09;0" dur="0.49s" fill="freeze" begin="6.end" /></path><path d="M66.33,18.5c0.83,0.84,1,2.08,1,3.87c0,11.95,0.02,48.06,0.03,65.5c0,4.04,0,7.1,0,8.63" stroke-dasharray="78.23" stroke-dashoffset="78.23"><animate attributeName="stroke-dashoffset" values="78.23" fill="freeze" begin="8036.click" /><animate id="8" attributeName="stroke-dashoffset" values="78.23;0" dur="0.59s" fill="freeze" begin="7.end" /></path></g></g></g></svg>