<svg xmlns="http://www.w3.org/2000/svg" width="109" height="109" viewBox="0 0 109 109" id="8058"><g fill="none" stroke="#666" stroke-width="9" stroke-linecap="round" stroke-linejoin="round"><g><g><path d="M10.25,20.77c0.83,0.47,2.36,0.53,3.2,0.47c6.63-0.44,19.8-3,29.62-3.82c1.39-0.12,2.23,0.22,2.92,0.46" /><path d="M19.86,24.07c0.39,1.18,1.01,2.4,1.01,3.82c0,1.43-0.12,42.48-0.12,47.61" /><path d="M21.96,38.53c5.29-1.03,9.61-1.45,16.29-2.28" /><path d="M22.71,53.49c5.79-0.74,8.11-1.36,15.18-1.88" /><path d="M11.75,78.84c0.72,0.41,2.05,0.51,2.65,0.22c2.44-1.18,18.09-9.42,21.85-11.3" /><path d="M38.01,21.5c0.77,1.25,0.85,2.46,0.85,3.85s0.12,59.03,0.12,70.4" /></g><g><g><g p6:part="1" p6:partial xmlns:p6="http://kanjivg.tagaini.net"><path d="M49.25,24c0.75,0.59,1.33,1.19,1.5,1.71c1.43,4.21,2.66,13.79,3.5,21.54" /><path d="M51.75,24.75c10-1.5,27.53-4.24,35.07-4.62c2.77-0.14,3.81,2,3.66,3.06c-0.55,3.88-2.72,14.53-4.46,20.91" /></g><g><path d="M67.7,11.75c0.97,0.44,1.55,2.07,1.55,2.65c0.03,5.71,0.18,26.59,0.18,28.08" /></g><g p6:part="2" p6:partial xmlns:p6="http://kanjivg.tagaini.net"><path d="M53.99,34.53c3.18-0.41,30.99-3.8,33.62-3.8" /><path d="M54.88,45.36c10.37-1.11,21.18-2.55,31.12-2.7" /></g></g><g><path d="M46.29,56.51c1.22,0.37,3.45,0.42,4.67,0.37c9.43-0.34,27.98-3.79,41.53-4.31c2.03-0.08,3.25,0.18,4.26,0.37" /><path d="M62.54,57.77c0.3,0.59,0.47,1.34,0.06,2.18c-1.14,2.34-2.93,7.17-4.45,9.52c-0.86,1.33-0.28,2.56,1.79,2.18c3.76-0.69,17.37-3.2,22.03-4.06c4.52-0.83,4.49,1.67,3.93,4.82c-1.18,6.67-4.74,15.3-9.04,21.19c-3.76,5.15-5.96,1.65-7.73-1.21" /></g></g></g></g><g fill="none" stroke="#000" stroke-width="5" stroke-linecap="round" stroke-linejoin="round"><g><g><path d="M10.25,20.77c0.83,0.47,2.36,0.53,3.2,0.47c6.63-0.44,19.8-3,29.62-3.82c1.39-0.12,2.23,0.22,2.92,0.46" stroke-dasharray="36.13" stroke-dashoffset="36.13"><animate id="0" attributeName="stroke-dashoffset" values="36.13;0" dur="0.36s" fill="freeze" begin="0s;8058.click" /></path><path d="M19.86,24.07c0.39,1.18,1.01,2.4,1.01,3.82c0,1.43-0.12,42.48-0.12,47.61" stroke-dasharray="51.58" stroke-dashoffset="51.58"><animate attributeName="stroke-dashoffset" values="51.58" fill="freeze" begin="8058.click" /><animate id="1" attributeName="stroke-dashoffset" values="51.58;0" dur="0.52s" fill="freeze" begin="0.end" /></path><path d="M21.96,38.53c5.29-1.03,9.61-1.45,16.29-2.28" stroke-dasharray="16.45" stroke-dashoffset="16.45"><animate attributeName="stroke-dashoffset" values="16.45" fill="freeze" begin="8058.click" /><animate id="2" attributeName="stroke-dashoffset" values="16.45;0" dur="0.16s" fill="freeze" begin="1.end" /></path><path d="M22.71,53.49c5.79-0.74,8.11-1.36,15.18-1.88" stroke-dasharray="15.3" stroke-dashoffset="15.3"><animate attributeName="stroke-dashoffset" values="15.3" fill="freeze" begin="8058.click" /><animate id="3" attributeName="stroke-dashoffset" values="15.3;0" dur="0.15s" fill="freeze" begin="2.end" /></path><path d="M11.75,78.84c0.72,0.41,2.05,0.51,2.65,0.22c2.44-1.18,18.09-9.42,21.85-11.3" stroke-dasharray="27.33" stroke-dashoffset="27.33"><animate attributeName="stroke-dashoffset" values="27.33" fill="freeze" begin="8058.click" /><animate id="4" attributeName="stroke-dashoffset" values="27.33;0" dur="0.27s" fill="freeze" begin="3.end" /></path><path d="M38.01,21.5c0.77,1.25,0.85,2.46,0.85,3.85s0.12,59.03,0.12,70.4" stroke-dasharray="74.4" stroke-dashoffset="74.4"><animate attributeName="stroke-dashoffset" values="74.4" fill="freeze" begin="8058.click" /><animate id="5" attributeName="stroke-dashoffset" values="74.4;0" dur="0.56s" fill="freeze" begin="4.end" /></path></g><g><g><g p6:part="1" p6:partial xmlns:p6="http://kanjivg.tagaini.net"><path d="M49.25,24c0.75,0.59,1.33,1.19,1.5,1.71c1.43,4.21,2.66,13.79,3.5,21.54" stroke-dasharray="24.15" stroke-dashoffset="24.15"><animate attributeName="stroke-dashoffset" values="24.15" fill="freeze" begin="8058.click" /><animate id="6" attributeName="stroke-dashoffset" values="24.15;0" dur="0.24s" fill="freeze" begin="5.end" /></path><path d="M51.75,24.75c10-1.5,27.53-4.24,35.07-4.62c2.77-0.14,3.81,2,3.66,3.06c-0.55,3.88-2.72,14.53-4.46,20.91" stroke-dasharray="62.17" stroke-dashoffset="62.17"><animate attributeName="stroke-dashoffset" values="62.17" fill="freeze" begin="8058.click" /><animate id="7" attributeName="stroke-dashoffset" values="62.17;0" dur="0.47s" fill="freeze" begin="6.end" /></path></g><g><path d="M67.7,11.75c0.97,0.44,1.55,2.07,1.55,2.65c0.03,5.71,0.18,26.59,0.18,28.08" stroke-dasharray="31.27" stroke-dashoffset="31.27"><animate attributeName="stroke-dashoffset" values="31.27" fill="freeze" begin="8058.click" /><animate id="8" attributeName="stroke-dashoffset" values="31.27;0" dur="0.31s" fill="freeze" begin="7.end" /></path></g><g p6:part="2" p6:partial xmlns:p6="http://kanjivg.tagaini.net"><path d="M53.99,34.53c3.18-0.41,30.99-3.8,33.62-3.8" stroke-dasharray="33.84" stroke-dashoffset="33.84"><animate attributeName="stroke-dashoffset" values="33.84" fill="freeze" begin="8058.click" /><animate id="9" attributeName="stroke-dashoffset" values="33.84;0" dur="0.34s" fill="freeze" begin="8.end" /></path><path d="M54.88,45.36c10.37-1.11,21.18-2.55,31.12-2.7" stroke-dasharray="31.25" stroke-dashoffset="31.25"><animate attributeName="stroke-dashoffset" values="31.25" fill="freeze" begin="8058.click" /><animate id="10" attributeName="stroke-dashoffset" values="31.25;0" dur="0.31s" fill="freeze" begin="9.end" /></path></g></g><g><path d="M46.29,56.51c1.22,0.37,3.45,0.42,4.67,0.37c9.43-0.34,27.98-3.79,41.53-4.31c2.03-0.08,3.25,0.18,4.26,0.37" stroke-dasharray="50.76" stroke-dashoffset="50.76"><animate attributeName="stroke-dashoffset" values="50.76" fill="freeze" begin="8058.click" /><animate id="11" attributeName="stroke-dashoffset" values="50.76;0" dur="0.51s" fill="freeze" begin="10.end" /></path><path d="M62.54,57.77c0.3,0.59,0.47,1.34,0.06,2.18c-1.14,2.34-2.93,7.17-4.45,9.52c-0.86,1.33-0.28,2.56,1.79,2.18c3.76-0.69,17.37-3.2,22.03-4.06c4.52-0.83,4.49,1.67,3.93,4.82c-1.18,6.67-4.74,15.3-9.04,21.19c-3.76,5.15-5.96,1.65-7.73-1.21" stroke-dasharray="81.12" stroke-dashoffset="81.12"><animate attributeName="stroke-dashoffset" values="81.12" fill="freeze" begin="8058.click" /><animate id="12" attributeName="stroke-dashoffset" values="81.12;0" dur="0.61s" fill="freeze" begin="11.end" /></path></g></g></g></g></svg>