<svg xmlns="http://www.w3.org/2000/svg" width="109" height="109" viewBox="0 0 109 109" id="806f"><g fill="none" stroke="#666" stroke-width="9" stroke-linecap="round" stroke-linejoin="round"><g><g><path d="M11.24,23.97c0.74,0.4,2.1,0.44,2.85,0.4c5.89-0.37,17.61-2.92,26.34-3.61c1.23-0.1,1.98,0.19,2.6,0.39" /><path d="M18.42,26.15c0.24,1.1,0.97,2.17,0.97,3.45c0,1.29-0.12,38.37-0.12,43.01" /><path d="M20.21,40.05c2.79-0.3,11.04-2.3,14.98-2.13" /><path d="M19.97,53.99c2.53,0,12.28-1.83,14.87-1.83" /><path d="M11.97,73.24c0.78,0.51,2.41,0.8,2.98,0.63c2.28-0.7,16.88-5.63,20.38-6.76" /><path d="M34.72,23.77c0.76,1.16,0.83,1.36,0.83,2.65c0,1.29,0.12,59.27,0.12,69.83" /></g><g><g><g><path d="M53.54,13.87c0.25,0.92,0.28,1.55-0.12,2.61c-1.69,4.46-6.4,12.68-9.12,15.73c-0.46,0.52-0.29,1.62,0.21,1.79c2.62,0.92,5.62,1.4,9.19,3.12" /><path d="M63.7,21.2c0.25,0.46,0.09,2.17-0.21,2.71c-3.62,6.68-12.19,20.13-18.18,27.65c-0.81,1.01-0.51,2.24,0.5,1.99c5.43-1.32,11.52-3.48,16.89-4.71" /><path d="M58.63,43.15c2.29,1.66,5.91,6.84,6.48,9.42" /></g><g><path d="M81.04,13.12c0.25,0.92,0.28,1.55-0.12,2.61c-1.69,4.46-7.4,14.18-10.12,17.23c-0.46,0.52-0.29,1.62,0.21,1.79c2.62,0.92,5.62,1.4,9.19,3.12" /><path d="M91.7,20.45c0.25,0.46,0.09,2.17-0.21,2.71c-3.62,6.68-12.19,19.13-18.18,26.65c-0.81,1.01-0.51,2.24,0.5,1.99c5.43-1.32,13.02-3.48,18.39-4.71" /><path d="M87.88,41.15c2.55,1.97,6.59,8.11,7.23,11.17" /></g></g><g><g><path d="M46.86,63.99c0.61,0.4,1.03,1.87,1.08,3.2c0.09,2.4-0.17,6.24-0.56,11.05c-0.08,0.94,0.5,1.58,1.78,1.2c4.09-1.2,9.76-2.1,11.44-2.2" /><g><path d="M60.7,59.7c0.74,0.77,1.11,2.32,1.11,3.6c0,14.45-0.32,24.45-13.74,33.92" /></g></g><g><g><path d="M89.68,61.33c0.61,0.4,1.08,1.87,1.08,3.2c0,3.67,0.06,10,0.06,14.93" /></g><path d="M76.11,76.91C78.12,76.91,87.28,76.04,89.9,75.82" /><path d="M74.59,59.83c0.61,0.4,1.03,1.87,1.08,3.2c0.09,2.4,0.06,29.04,0.06,35.5" /></g></g></g></g></g><g fill="none" stroke="#000" stroke-width="5" stroke-linecap="round" stroke-linejoin="round"><path d="M11.24,23.97c0.74,0.4,2.1,0.44,2.85,0.4c5.89-0.37,17.61-2.92,26.34-3.61c1.23-0.1,1.98,0.19,2.6,0.39" stroke-dasharray="32.153" stroke-dashoffset="32.153"><animate attributeName="stroke-dashoffset" values="32.153;32.153;0" dur="0.322s" fill="freeze" begin="0s;806f.click" /></path><path d="M18.42,26.15c0.24,1.1,0.97,2.17,0.97,3.45c0,1.29-0.12,38.37-0.12,43.01" stroke-dasharray="46.613" stroke-dashoffset="46.613"><animate attributeName="stroke-dashoffset" values="46.613" fill="freeze" begin="806f.click" /><animate attributeName="stroke-dashoffset" values="46.613;46.613;0" keyTimes="0;0.409;1" dur="0.788s" fill="freeze" begin="0s;806f.click" /></path><path d="M20.21,40.05c2.79-0.3,11.04-2.3,14.98-2.13" stroke-dasharray="15.153" stroke-dashoffset="15.153"><animate attributeName="stroke-dashoffset" values="15.153" fill="freeze" begin="806f.click" /><animate attributeName="stroke-dashoffset" values="15.153;15.153;0" keyTimes="0;0.838;1" dur="0.94s" fill="freeze" begin="0s;806f.click" /></path><path d="M19.97,53.99c2.53,0,12.28-1.83,14.87-1.83" stroke-dasharray="14.991" stroke-dashoffset="14.991"><animate attributeName="stroke-dashoffset" values="14.991" fill="freeze" begin="806f.click" /><animate attributeName="stroke-dashoffset" values="14.991;14.991;0" keyTimes="0;0.862;1" dur="1.09s" fill="freeze" begin="0s;806f.click" /></path><path d="M11.97,73.24c0.78,0.51,2.41,0.8,2.98,0.63c2.28-0.7,16.88-5.63,20.38-6.76" stroke-dasharray="24.574" stroke-dashoffset="24.574"><animate attributeName="stroke-dashoffset" values="24.574" fill="freeze" begin="806f.click" /><animate attributeName="stroke-dashoffset" values="24.574;24.574;0" keyTimes="0;0.816;1" dur="1.336s" fill="freeze" begin="0s;806f.click" /></path><path d="M34.72,23.77c0.76,1.16,0.83,1.36,0.83,2.65c0,1.29,0.12,59.27,0.12,69.83" stroke-dasharray="72.677" stroke-dashoffset="72.677"><animate attributeName="stroke-dashoffset" values="72.677" fill="freeze" begin="806f.click" /><animate attributeName="stroke-dashoffset" values="72.677;72.677;0" keyTimes="0;0.71;1" dur="1.882s" fill="freeze" begin="0s;806f.click" /></path><path d="M53.54,13.87c0.25,0.92,0.28,1.55-0.12,2.61c-1.69,4.46-6.4,12.68-9.12,15.73c-0.46,0.52-0.29,1.62,0.21,1.79c2.62,0.92,5.62,1.4,9.19,3.12" stroke-dasharray="32.657" stroke-dashoffset="32.657"><animate attributeName="stroke-dashoffset" values="32.657" fill="freeze" begin="806f.click" /><animate attributeName="stroke-dashoffset" values="32.657;32.657;0" keyTimes="0;0.852;1" dur="2.209s" fill="freeze" begin="0s;806f.click" /></path><path d="M63.7,21.2c0.25,0.46,0.09,2.17-0.21,2.71c-3.62,6.68-12.19,20.13-18.18,27.65c-0.81,1.01-0.51,2.24,0.5,1.99c5.43-1.32,11.52-3.48,16.89-4.71" stroke-dasharray="56.218" stroke-dashoffset="56.218"><animate attributeName="stroke-dashoffset" values="56.218" fill="freeze" begin="806f.click" /><animate attributeName="stroke-dashoffset" values="56.218;56.218;0" keyTimes="0;0.797;1" dur="2.771s" fill="freeze" begin="0s;806f.click" /></path><path d="M58.63,43.15c2.29,1.66,5.91,6.84,6.48,9.42" stroke-dasharray="11.578" stroke-dashoffset="11.578"><animate attributeName="stroke-dashoffset" values="11.578" fill="freeze" begin="806f.click" /><animate attributeName="stroke-dashoffset" values="11.578;11.578;0" keyTimes="0;0.96;1" dur="2.887s" fill="freeze" begin="0s;806f.click" /></path><path d="M81.04,13.12c0.25,0.92,0.28,1.55-0.12,2.61c-1.69,4.46-7.4,14.18-10.12,17.23c-0.46,0.52-0.29,1.62,0.21,1.79c2.62,0.92,5.62,1.4,9.19,3.12" stroke-dasharray="34.453" stroke-dashoffset="34.453"><animate attributeName="stroke-dashoffset" values="34.453" fill="freeze" begin="806f.click" /><animate attributeName="stroke-dashoffset" values="34.453;34.453;0" keyTimes="0;0.893;1" dur="3.232s" fill="freeze" begin="0s;806f.click" /></path><path d="M91.7,20.45c0.25,0.46,0.09,2.17-0.21,2.71c-3.62,6.68-12.19,19.13-18.18,26.65c-0.81,1.01-0.51,2.24,0.5,1.99c5.43-1.32,13.02-3.48,18.39-4.71" stroke-dasharray="56.834" stroke-dashoffset="56.834"><animate attributeName="stroke-dashoffset" values="56.834" fill="freeze" begin="806f.click" /><animate attributeName="stroke-dashoffset" values="56.834;56.834;0" keyTimes="0;0.851;1" dur="3.8s" fill="freeze" begin="0s;806f.click" /></path><path d="M87.88,41.15c2.55,1.97,6.59,8.11,7.23,11.17" stroke-dasharray="13.464" stroke-dashoffset="13.464"><animate attributeName="stroke-dashoffset" values="13.464" fill="freeze" begin="806f.click" /><animate attributeName="stroke-dashoffset" values="13.464;13.464;0" keyTimes="0;0.966;1" dur="3.935s" fill="freeze" begin="0s;806f.click" /></path><path d="M46.86,63.99c0.61,0.4,1.03,1.87,1.08,3.2c0.09,2.4-0.17,6.24-0.56,11.05c-0.08,0.94,0.5,1.58,1.78,1.2c4.09-1.2,9.76-2.1,11.44-2.2" stroke-dasharray="28.867" stroke-dashoffset="28.867"><animate attributeName="stroke-dashoffset" values="28.867" fill="freeze" begin="806f.click" /><animate attributeName="stroke-dashoffset" values="28.867;28.867;0" keyTimes="0;0.932;1" dur="4.224s" fill="freeze" begin="0s;806f.click" /></path><path d="M60.7,59.7c0.74,0.77,1.11,2.32,1.11,3.6c0,14.45-0.32,24.45-13.74,33.92" stroke-dasharray="42.426" stroke-dashoffset="42.426"><animate attributeName="stroke-dashoffset" values="42.426" fill="freeze" begin="806f.click" /><animate attributeName="stroke-dashoffset" values="42.426;42.426;0" keyTimes="0;0.909;1" dur="4.648s" fill="freeze" begin="0s;806f.click" /></path><path d="M89.68,61.33c0.61,0.4,1.08,1.87,1.08,3.2c0,3.67,0.06,10,0.06,14.93" stroke-dasharray="18.405" stroke-dashoffset="18.405"><animate attributeName="stroke-dashoffset" values="18.405" fill="freeze" begin="806f.click" /><animate attributeName="stroke-dashoffset" values="18.405;18.405;0" keyTimes="0;0.962;1" dur="4.832s" fill="freeze" begin="0s;806f.click" /></path><path d="M76.11,76.91C78.12,76.91,87.28,76.04,89.9,75.82" stroke-dasharray="13.836" stroke-dashoffset="13.836"><animate attributeName="stroke-dashoffset" values="13.836" fill="freeze" begin="806f.click" /><animate attributeName="stroke-dashoffset" values="13.836;13.836;0" keyTimes="0;0.972;1" dur="4.97s" fill="freeze" begin="0s;806f.click" /></path><path d="M74.59,59.83c0.61,0.4,1.03,1.87,1.08,3.2c0.09,2.4,0.06,29.04,0.06,35.5" stroke-dasharray="38.967" stroke-dashoffset="38.967"><animate attributeName="stroke-dashoffset" values="38.967" fill="freeze" begin="806f.click" /><animate attributeName="stroke-dashoffset" values="38.967;38.967;0" keyTimes="0;0.927;1" dur="5.36s" fill="freeze" begin="0s;806f.click" /></path></g></svg>