<svg xmlns="http://www.w3.org/2000/svg" width="109" height="109" viewBox="0 0 109 109" id="8070"><g fill="none" stroke="#666" stroke-width="9" stroke-linecap="round" stroke-linejoin="round"><g><g><path d="M9.5,20.81c0.77,0.27,3.74,0.68,4.52,0.65c6.15-0.26,17.89-3.03,27.01-3.51c1.29-0.07,3.82,0.57,4.46,0.71" /><path d="M18.25,24.42c1,0.58,1.14,1.98,1.14,3.37c0,1.39-0.08,39.3-0.08,44.29" /><path d="M20.75,36.42c8.17-1.33,8.33-1,15.83-2" /><path d="M20.25,50.42c6.17-0.88,8.33-1.17,15.67-2.17" /><path d="M11.25,75.78c0.73,0.47,1.88,0.8,2.5,0.47c2.48-1.35,19.07-11.5,22.88-13.66" /><path d="M35.58,22.08c0.67,0.67,1.37,1.38,1.37,2.77s-0.04,59.37-0.04,70.73" /></g><g><g><path d="M69,12.75c0.03,0.34,0.07,0.88-0.07,1.37c-0.8,2.89-6.18,8.13-11.18,13.29" /><path d="M50.92,27.25c1.58,0.75,1.73,1.76,1.83,2.5c0.84,6.1,1.15,22.62,1.67,34" /><path d="M53,29.1c9.93-1.54,26-3.6,34.77-4.46c2.75-0.27,4.12,1.2,3.98,2.89c-0.51,6.17-2.5,24.17-4.34,34.22" /><path d="M70.09,29.92c0.12,0.24-0.05,1.77-0.27,2.22c-0.72,1.5-7.38,10.08-10.58,12.12" /><path d="M71.58,34.42c0.92,0.33,2.2,0.38,2.67,0.33c1.53-0.17,4.63-0.69,6.67-1.33c1.46-0.46,1.95,0.88,1.5,1.83c-3.58,7.6-11.08,16.24-21.92,20.5" /><path d="M60.25,38.5c8.02,2.65,20.49,11.13,22.5,15.25" /><path d="M55.58,61.1c6.73-0.6,20.35-1.74,31-2.03" /></g><g><path d="M49.52,76.33c0.17,2.17-1.73,10.85-3.13,14.47" /><path d="M54.5,70.75C62.25,84,66,94.5,86.08,95.42c9.4,0.43,9.01-0.78,1.17-6.83" /><path d="M69.58,73.42c1.61,4.12,3.69,9.01,5.42,2.7" /><path d="M84,68.75c5.56,2.3,9.57,4.72,14.08,11.83" /></g></g></g></g><g fill="none" stroke="#000" stroke-width="5" stroke-linecap="round" stroke-linejoin="round"><g><g><path d="M9.5,20.81c0.77,0.27,3.74,0.68,4.52,0.65c6.15-0.26,17.89-3.03,27.01-3.51c1.29-0.07,3.82,0.57,4.46,0.71" stroke-dasharray="36.35" stroke-dashoffset="36.35"><animate id="0" attributeName="stroke-dashoffset" values="36.35;0" dur="0.36s" fill="freeze" begin="0s;8070.click" /></path><path d="M18.25,24.42c1,0.58,1.14,1.98,1.14,3.37c0,1.39-0.08,39.3-0.08,44.29" stroke-dasharray="48.01" stroke-dashoffset="48.01"><animate attributeName="stroke-dashoffset" values="48.01" fill="freeze" begin="8070.click" /><animate id="1" attributeName="stroke-dashoffset" values="48.01;0" dur="0.48s" fill="freeze" begin="0.end" /></path><path d="M20.75,36.42c8.17-1.33,8.33-1,15.83-2" stroke-dasharray="15.96" stroke-dashoffset="15.96"><animate attributeName="stroke-dashoffset" values="15.96" fill="freeze" begin="8070.click" /><animate id="2" attributeName="stroke-dashoffset" values="15.96;0" dur="0.16s" fill="freeze" begin="1.end" /></path><path d="M20.25,50.42c6.17-0.88,8.33-1.17,15.67-2.17" stroke-dasharray="15.82" stroke-dashoffset="15.82"><animate attributeName="stroke-dashoffset" values="15.82" fill="freeze" begin="8070.click" /><animate id="3" attributeName="stroke-dashoffset" values="15.82;0" dur="0.16s" fill="freeze" begin="2.end" /></path><path d="M11.25,75.78c0.73,0.47,1.88,0.8,2.5,0.47c2.48-1.35,19.07-11.5,22.88-13.66" stroke-dasharray="29.29" stroke-dashoffset="29.29"><animate attributeName="stroke-dashoffset" values="29.29" fill="freeze" begin="8070.click" /><animate id="4" attributeName="stroke-dashoffset" values="29.29;0" dur="0.29s" fill="freeze" begin="3.end" /></path><path d="M35.58,22.08c0.67,0.67,1.37,1.38,1.37,2.77s-0.04,59.37-0.04,70.73" stroke-dasharray="73.92" stroke-dashoffset="73.92"><animate attributeName="stroke-dashoffset" values="73.92" fill="freeze" begin="8070.click" /><animate id="5" attributeName="stroke-dashoffset" values="73.92;0" dur="0.56s" fill="freeze" begin="4.end" /></path></g><g><g><path d="M69,12.75c0.03,0.34,0.07,0.88-0.07,1.37c-0.8,2.89-6.18,8.13-11.18,13.29" stroke-dasharray="18.85" stroke-dashoffset="18.85"><animate attributeName="stroke-dashoffset" values="18.85" fill="freeze" begin="8070.click" /><animate id="6" attributeName="stroke-dashoffset" values="18.85;0" dur="0.19s" fill="freeze" begin="5.end" /></path><path d="M50.92,27.25c1.58,0.75,1.73,1.76,1.83,2.5c0.84,6.1,1.15,22.62,1.67,34" stroke-dasharray="37.32" stroke-dashoffset="37.32"><animate attributeName="stroke-dashoffset" values="37.32" fill="freeze" begin="8070.click" /><animate id="7" attributeName="stroke-dashoffset" values="37.32;0" dur="0.37s" fill="freeze" begin="6.end" /></path><path d="M53,29.1c9.93-1.54,26-3.6,34.77-4.46c2.75-0.27,4.12,1.2,3.98,2.89c-0.51,6.17-2.5,24.17-4.34,34.22" stroke-dasharray="75.26" stroke-dashoffset="75.26"><animate attributeName="stroke-dashoffset" values="75.26" fill="freeze" begin="8070.click" /><animate id="8" attributeName="stroke-dashoffset" values="75.26;0" dur="0.57s" fill="freeze" begin="7.end" /></path><path d="M70.09,29.92c0.12,0.24-0.05,1.77-0.27,2.22c-0.72,1.5-7.38,10.08-10.58,12.12" stroke-dasharray="18.42" stroke-dashoffset="18.42"><animate attributeName="stroke-dashoffset" values="18.42" fill="freeze" begin="8070.click" /><animate id="9" attributeName="stroke-dashoffset" values="18.42;0" dur="0.18s" fill="freeze" begin="8.end" /></path><path d="M71.58,34.42c0.92,0.33,2.2,0.38,2.67,0.33c1.53-0.17,4.63-0.69,6.67-1.33c1.46-0.46,1.95,0.88,1.5,1.83c-3.58,7.6-11.08,16.24-21.92,20.5" stroke-dasharray="43.37" stroke-dashoffset="43.37"><animate attributeName="stroke-dashoffset" values="43.37" fill="freeze" begin="8070.click" /><animate id="10" attributeName="stroke-dashoffset" values="43.37;0" dur="0.43s" fill="freeze" begin="9.end" /></path><path d="M60.25,38.5c8.02,2.65,20.49,11.13,22.5,15.25" stroke-dasharray="27.54" stroke-dashoffset="27.54"><animate attributeName="stroke-dashoffset" values="27.54" fill="freeze" begin="8070.click" /><animate id="11" attributeName="stroke-dashoffset" values="27.54;0" dur="0.28s" fill="freeze" begin="10.end" /></path><path d="M55.58,61.1c6.73-0.6,20.35-1.74,31-2.03" stroke-dasharray="31.07" stroke-dashoffset="31.07"><animate attributeName="stroke-dashoffset" values="31.07" fill="freeze" begin="8070.click" /><animate id="12" attributeName="stroke-dashoffset" values="31.07;0" dur="0.31s" fill="freeze" begin="11.end" /></path></g><g><path d="M49.52,76.33c0.17,2.17-1.73,10.85-3.13,14.47" stroke-dasharray="14.85" stroke-dashoffset="14.85"><animate attributeName="stroke-dashoffset" values="14.85" fill="freeze" begin="8070.click" /><animate id="13" attributeName="stroke-dashoffset" values="14.85;0" dur="0.15s" fill="freeze" begin="12.end" /></path><path d="M54.5,70.75C62.25,84,66,94.5,86.08,95.42c9.4,0.43,9.01-0.78,1.17-6.83" stroke-dasharray="58.6" stroke-dashoffset="58.6"><animate attributeName="stroke-dashoffset" values="58.6" fill="freeze" begin="8070.click" /><animate id="14" attributeName="stroke-dashoffset" values="58.6;0" dur="0.59s" fill="freeze" begin="13.end" /></path><path d="M69.58,73.42c1.61,4.12,3.69,9.01,5.42,2.7" stroke-dasharray="10.69" stroke-dashoffset="10.69"><animate attributeName="stroke-dashoffset" values="10.69" fill="freeze" begin="8070.click" /><animate id="15" attributeName="stroke-dashoffset" values="10.69;0" dur="0.11s" fill="freeze" begin="14.end" /></path><path d="M84,68.75c5.56,2.3,9.57,4.72,14.08,11.83" stroke-dasharray="18.76" stroke-dashoffset="18.76"><animate attributeName="stroke-dashoffset" values="18.76" fill="freeze" begin="8070.click" /><animate id="16" attributeName="stroke-dashoffset" values="18.76;0" dur="0.19s" fill="freeze" begin="15.end" /></path></g></g></g></g></svg>