<svg xmlns="http://www.w3.org/2000/svg" width="109" height="109" viewBox="0 0 109 109" id="807e"><g fill="none" stroke="#666" stroke-width="9" stroke-linecap="round" stroke-linejoin="round"><g><g><g><g><g><path d="M32.23,10.25c0.61,0.38,1.54,1.22,1.54,2.18c0,1.32,0,2.09,0,4.18" /><path d="M16.17,17.92c0.66,0.19,2.95,0.21,3.61,0.19c3.75-0.16,25.07-2.25,30.73-2.38c1.11-0.03,1.77,0.09,2.32,0.18" /></g><g><path d="M23.91,20.32c2.26,2.42,3.29,4.91,3.49,6.5" /><path d="M44.21,18.14c0.53,0.27,0.59,1.02,0.53,1.24c-0.42,1.54-4.82,6.13-5.88,7.31" /><path d="M11.81,29.32c0.8,0.26,1.73,0.29,2.53,0.26c9.5-0.38,28.66-2.9,38.74-3.43c1.33-0.07,2.13,0.12,2.8,0.25" /></g></g><g><path d="M21.75,34.48c0.47,0.38,0.78,0.77,0.94,1.15c0.15,0.38,0.22,21.83,0.15,22.69" /><path d="M23.62,35.36c1.87-0.1,19.55-1.71,20.94-1.82c2.5-0.19,3.43,1.24,3.12,1.82c-0.3,0.55-0.47,10.27-0.47,18.02c0,6.87-2.38,3.86-5.81,1.78" /><path d="M23.62,41.92c6.4-0.57,17.35-1.13,22.97-1.42" /><path d="M24.09,48.87c4.99-0.29,16.42-1.15,22.19-1.34" /></g></g><g><path d="M64.52,12.96c4.59-0.32,14.98-1.52,20.17-2.12c1.18-0.13,1.92,0.09,2.52,0.18" /><path d="M61.53,7.89c1.34,0.65,1.72,2.22,1.74,3.13c0.04,1.91-0.2,6.36-0.33,8.99c-0.03,0.57,0.27,1.27,2.71,1c5.38-0.59,14.21-1.35,20.14-2.13c3.35-0.44,3.45,0.49,2.92,1.48c-1.02,1.89-1.66,4.64-2.7,7.95" /><path d="M63.57,30.34c4.59-0.32,14.72-2.02,21.12-2.31" /><path d="M61.87,28.38c0.71,0.72,1.28,1.58,1.33,2.7c0.19,4.99-0.01,15.52-0.01,18.92c0,7.93,8.58,7.03,17.04,7.03c13.5,0,14.35-1.69,14.35-5.56" /><path d="M64.31,36.8c4.59-0.32,15.94-1.22,21.14-1.81c1.18-0.13,1.92,0.09,2.52,0.18" /><path d="M64.07,42.57c4.59-0.32,16.39-0.92,21.58-1.51c1.18-0.13,1.92,0.09,2.52,0.18" /><path d="M63.59,48.67c4.59-0.32,17.83-0.72,23.03-1.31c1.18-0.13,1.92,0.09,2.52,0.18" /></g></g><g><path d="M25.52,65.4c1.09,0.28,3.09,0.33,4.18,0.28C42.75,65,58.12,63.82,80.02,63c1.81-0.07,2.91,0.13,3.82,0.27" /><path d="M35.42,67.14c0.95,0.41,1.45,1.5,1.45,2.61c0,1.12,0.21,17.22,0.21,21.23" /><path d="M37.37,73.33c4.31,0,24.79-1.66,32.16-1.66" /><path d="M36.93,81.04c5.32,0,24.68-2.02,32.44-2.02" /><path d="M19.41,90.35c0.59,0.9,2.67,2.13,4.33,1.93c6.66-0.78,49.66-5.44,59.89-6.68" /><path d="M68.59,64.93c0.44,0.55,1.11,1.24,1.11,1.93c0,0.69,0.22,28.97,0.22,34.64" /></g></g></g><g fill="none" stroke="#000" stroke-width="5" stroke-linecap="round" stroke-linejoin="round"><path d="M32.23,10.25c0.61,0.38,1.54,1.22,1.54,2.18c0,1.32,0,2.09,0,4.18" stroke-dasharray="6.956" stroke-dashoffset="6.956"><animate attributeName="stroke-dashoffset" values="6.956;6.956;0" dur="0.07s" fill="freeze" begin="0s;807e.click" /></path><path d="M16.17,17.92c0.66,0.19,2.95,0.21,3.61,0.19c3.75-0.16,25.07-2.25,30.73-2.38c1.11-0.03,1.77,0.09,2.32,0.18" stroke-dasharray="36.778" stroke-dashoffset="36.778"><animate attributeName="stroke-dashoffset" values="36.778" fill="freeze" begin="807e.click" /><animate attributeName="stroke-dashoffset" values="36.778;36.778;0" keyTimes="0;0.16;1" dur="0.438s" fill="freeze" begin="0s;807e.click" /></path><path d="M23.91,20.32c2.26,2.42,3.29,4.91,3.49,6.5" stroke-dasharray="7.487" stroke-dashoffset="7.487"><animate attributeName="stroke-dashoffset" values="7.487" fill="freeze" begin="807e.click" /><animate attributeName="stroke-dashoffset" values="7.487;7.487;0" keyTimes="0;0.854;1" dur="0.513s" fill="freeze" begin="0s;807e.click" /></path><path d="M44.21,18.14c0.53,0.27,0.59,1.02,0.53,1.24c-0.42,1.54-4.82,6.13-5.88,7.31" stroke-dasharray="10.855" stroke-dashoffset="10.855"><animate attributeName="stroke-dashoffset" values="10.855" fill="freeze" begin="807e.click" /><animate attributeName="stroke-dashoffset" values="10.855;10.855;0" keyTimes="0;0.825;1" dur="0.622s" fill="freeze" begin="0s;807e.click" /></path><path d="M11.81,29.32c0.8,0.26,1.73,0.29,2.53,0.26c9.5-0.38,28.66-2.9,38.74-3.43c1.33-0.07,2.13,0.12,2.8,0.25" stroke-dasharray="44.274" stroke-dashoffset="44.274"><animate attributeName="stroke-dashoffset" values="44.274" fill="freeze" begin="807e.click" /><animate attributeName="stroke-dashoffset" values="44.274;44.274;0" keyTimes="0;0.584;1" dur="1.065s" fill="freeze" begin="0s;807e.click" /></path><path d="M21.75,34.48c0.47,0.38,0.78,0.77,0.94,1.15c0.15,0.38,0.22,21.83,0.15,22.69" stroke-dasharray="24.194" stroke-dashoffset="24.194"><animate attributeName="stroke-dashoffset" values="24.194" fill="freeze" begin="807e.click" /><animate attributeName="stroke-dashoffset" values="24.194;24.194;0" keyTimes="0;0.815;1" dur="1.307s" fill="freeze" begin="0s;807e.click" /></path><path d="M23.62,35.36c1.87-0.1,19.55-1.71,20.94-1.82c2.5-0.19,3.43,1.24,3.12,1.82c-0.3,0.55-0.47,10.27-0.47,18.02c0,6.87-2.38,3.86-5.81,1.78" stroke-dasharray="53.164" stroke-dashoffset="53.164"><animate attributeName="stroke-dashoffset" values="53.164" fill="freeze" begin="807e.click" /><animate attributeName="stroke-dashoffset" values="53.164;53.164;0" keyTimes="0;0.711;1" dur="1.839s" fill="freeze" begin="0s;807e.click" /></path><path d="M23.62,41.92c6.4-0.57,17.35-1.13,22.97-1.42" stroke-dasharray="23.016" stroke-dashoffset="23.016"><animate attributeName="stroke-dashoffset" values="23.016" fill="freeze" begin="807e.click" /><animate attributeName="stroke-dashoffset" values="23.016;23.016;0" keyTimes="0;0.889;1" dur="2.069s" fill="freeze" begin="0s;807e.click" /></path><path d="M24.09,48.87c4.99-0.29,16.42-1.15,22.19-1.34" stroke-dasharray="22.232" stroke-dashoffset="22.232"><animate attributeName="stroke-dashoffset" values="22.232" fill="freeze" begin="807e.click" /><animate attributeName="stroke-dashoffset" values="22.232;22.232;0" keyTimes="0;0.903;1" dur="2.291s" fill="freeze" begin="0s;807e.click" /></path><path d="M64.52,12.96c4.59-0.32,14.98-1.52,20.17-2.12c1.18-0.13,1.92,0.09,2.52,0.18" stroke-dasharray="22.821" stroke-dashoffset="22.821"><animate attributeName="stroke-dashoffset" values="22.821" fill="freeze" begin="807e.click" /><animate attributeName="stroke-dashoffset" values="22.821;22.821;0" keyTimes="0;0.909;1" dur="2.519s" fill="freeze" begin="0s;807e.click" /></path><path d="M61.53,7.89c1.34,0.65,1.72,2.22,1.74,3.13c0.04,1.91-0.2,6.36-0.33,8.99c-0.03,0.57,0.27,1.27,2.71,1c5.38-0.59,14.21-1.35,20.14-2.13c3.35-0.44,3.45,0.49,2.92,1.48c-1.02,1.89-1.66,4.64-2.7,7.95" stroke-dasharray="49.095" stroke-dashoffset="49.095"><animate attributeName="stroke-dashoffset" values="49.095" fill="freeze" begin="807e.click" /><animate attributeName="stroke-dashoffset" values="49.095;49.095;0" keyTimes="0;0.837;1" dur="3.01s" fill="freeze" begin="0s;807e.click" /></path><path d="M63.57,30.34c4.59-0.32,14.72-2.02,21.12-2.31" stroke-dasharray="21.252" stroke-dashoffset="21.252"><animate attributeName="stroke-dashoffset" values="21.252" fill="freeze" begin="807e.click" /><animate attributeName="stroke-dashoffset" values="21.252;21.252;0" keyTimes="0;0.934;1" dur="3.223s" fill="freeze" begin="0s;807e.click" /></path><path d="M61.87,28.38c0.71,0.72,1.28,1.58,1.33,2.7c0.19,4.99-0.01,15.52-0.01,18.92c0,7.93,8.58,7.03,17.04,7.03c13.5,0,14.35-1.69,14.35-5.56" stroke-dasharray="60.437" stroke-dashoffset="60.437"><animate attributeName="stroke-dashoffset" values="60.437" fill="freeze" begin="807e.click" /><animate attributeName="stroke-dashoffset" values="60.437;60.437;0" keyTimes="0;0.877;1" dur="3.677s" fill="freeze" begin="0s;807e.click" /></path><path d="M64.31,36.8c4.59-0.32,15.94-1.22,21.14-1.81c1.18-0.13,1.92,0.09,2.52,0.18" stroke-dasharray="23.757" stroke-dashoffset="23.757"><animate attributeName="stroke-dashoffset" values="23.757" fill="freeze" begin="807e.click" /><animate attributeName="stroke-dashoffset" values="23.757;23.757;0" keyTimes="0;0.939;1" dur="3.915s" fill="freeze" begin="0s;807e.click" /></path><path d="M64.07,42.57c4.59-0.32,16.39-0.92,21.58-1.51c1.18-0.13,1.92,0.09,2.52,0.18" stroke-dasharray="24.173" stroke-dashoffset="24.173"><animate attributeName="stroke-dashoffset" values="24.173" fill="freeze" begin="807e.click" /><animate attributeName="stroke-dashoffset" values="24.173;24.173;0" keyTimes="0;0.942;1" dur="4.157s" fill="freeze" begin="0s;807e.click" /></path><path d="M63.59,48.67c4.59-0.32,17.83-0.72,23.03-1.31c1.18-0.13,1.92,0.09,2.52,0.18" stroke-dasharray="25.608" stroke-dashoffset="25.608"><animate attributeName="stroke-dashoffset" values="25.608" fill="freeze" begin="807e.click" /><animate attributeName="stroke-dashoffset" values="25.608;25.608;0" keyTimes="0;0.942;1" dur="4.413s" fill="freeze" begin="0s;807e.click" /></path><path d="M25.52,65.4c1.09,0.28,3.09,0.33,4.18,0.28C42.75,65,58.12,63.82,80.02,63c1.81-0.07,2.91,0.13,3.82,0.27" stroke-dasharray="58.431" stroke-dashoffset="58.431"><animate attributeName="stroke-dashoffset" values="58.431" fill="freeze" begin="807e.click" /><animate attributeName="stroke-dashoffset" values="58.431;58.431;0" keyTimes="0;0.883;1" dur="4.997s" fill="freeze" begin="0s;807e.click" /></path><path d="M35.42,67.14c0.95,0.41,1.45,1.5,1.45,2.61c0,1.12,0.21,17.22,0.21,21.23" stroke-dasharray="24.39" stroke-dashoffset="24.39"><animate attributeName="stroke-dashoffset" values="24.39" fill="freeze" begin="807e.click" /><animate attributeName="stroke-dashoffset" values="24.39;24.39;0" keyTimes="0;0.953;1" dur="5.241s" fill="freeze" begin="0s;807e.click" /></path><path d="M37.37,73.33c4.31,0,24.79-1.66,32.16-1.66" stroke-dasharray="32.207" stroke-dashoffset="32.207"><animate attributeName="stroke-dashoffset" values="32.207" fill="freeze" begin="807e.click" /><animate attributeName="stroke-dashoffset" values="32.207;32.207;0" keyTimes="0;0.942;1" dur="5.563s" fill="freeze" begin="0s;807e.click" /></path><path d="M36.93,81.04c5.32,0,24.68-2.02,32.44-2.02" stroke-dasharray="32.51" stroke-dashoffset="32.51"><animate attributeName="stroke-dashoffset" values="32.51" fill="freeze" begin="807e.click" /><animate attributeName="stroke-dashoffset" values="32.51;32.51;0" keyTimes="0;0.945;1" dur="5.888s" fill="freeze" begin="0s;807e.click" /></path><path d="M19.41,90.35c0.59,0.9,2.67,2.13,4.33,1.93c6.66-0.78,49.66-5.44,59.89-6.68" stroke-dasharray="65.183" stroke-dashoffset="65.183"><animate attributeName="stroke-dashoffset" values="65.183" fill="freeze" begin="807e.click" /><animate attributeName="stroke-dashoffset" values="65.183;65.183;0" keyTimes="0;0.923;1" dur="6.378s" fill="freeze" begin="0s;807e.click" /></path><path d="M68.59,64.93c0.44,0.55,1.11,1.24,1.11,1.93c0,0.69,0.22,28.97,0.22,34.64" stroke-dasharray="36.91" stroke-dashoffset="36.91"><animate attributeName="stroke-dashoffset" values="36.91" fill="freeze" begin="807e.click" /><animate attributeName="stroke-dashoffset" values="36.91;36.91;0" keyTimes="0;0.945;1" dur="6.747s" fill="freeze" begin="0s;807e.click" /></path></g></svg>