<svg xmlns="http://www.w3.org/2000/svg" width="109" height="109" viewBox="0 0 109 109" id="807f"><g fill="none" stroke="#666" stroke-width="6" stroke-linecap="round" stroke-linejoin="round"><g><g><path d="M27.25,25.5c2.5,0.25,3.2,0.66,5.5,0.5c10.5-0.75,32-3.75,42-4.25c3.25-0.16,5.47,1.22,5,3.75c-0.75,4-2.25,9.75-4,21" /><path d="M15,38.75c2.25,0.5,4.01,0.73,6.5,0.5c21.75-2,48.25-5.5,65.5-6.25c2.76-0.12,5,0.5,6.25,0.75" /><path d="M28.25,51.75c1.25,0.25,3.51,0.39,5,0.25C47,50.75,61,49.5,73.5,48.25c1.99-0.2,3.25,0,4.75,0.25" /></g><path d="M26.13,65.42c1.15,0.38,3.24,0.42,4.39,0.38c11.91-0.44,38.73-3.55,50.36-4.38c1.9-0.14,3.05,0.18,4.01,0.37" /><path d="M17.13,79.73c1.52,0.54,4.31,0.71,5.82,0.54c17.8-2.02,49.8-4.77,63.61-5.23c2.53-0.08,4.05,0.26,5.31,0.53" /><g><path d="M52.12,10.5c1.09,0.5,1.74,2.25,1.96,3.25c0.22,1,0,79.75-0.22,86" /></g></g></g><g fill="none" stroke="#000" stroke-width="3" stroke-linecap="round" stroke-linejoin="round"><path d="M27.25,25.5c2.5,0.25,3.2,0.66,5.5,0.5c10.5-0.75,32-3.75,42-4.25c3.25-0.16,5.47,1.22,5,3.75c-0.75,4-2.25,9.75-4,21" stroke-dasharray="76.479" stroke-dashoffset="76.479"><animate attributeName="stroke-dashoffset" values="76.479;76.479;0" dur="0.575s" fill="freeze" begin="0s;807f.click" /></path><path d="M15,38.75c2.25,0.5,4.01,0.73,6.5,0.5c21.75-2,48.25-5.5,65.5-6.25c2.76-0.12,5,0.5,6.25,0.75" stroke-dasharray="78.672" stroke-dashoffset="78.672"><animate attributeName="stroke-dashoffset" values="78.672" fill="freeze" begin="807f.click" /><animate attributeName="stroke-dashoffset" values="78.672;78.672;0" keyTimes="0;0.493;1" dur="1.167s" fill="freeze" begin="0s;807f.click" /></path><path d="M28.25,51.75c1.25,0.25,3.51,0.39,5,0.25C47,50.75,61,49.5,73.5,48.25c1.99-0.2,3.25,0,4.75,0.25" stroke-dasharray="50.219" stroke-dashoffset="50.219"><animate attributeName="stroke-dashoffset" values="50.219" fill="freeze" begin="807f.click" /><animate attributeName="stroke-dashoffset" values="50.219;50.219;0" keyTimes="0;0.699;1" dur="1.669s" fill="freeze" begin="0s;807f.click" /></path><path d="M26.13,65.42c1.15,0.38,3.24,0.42,4.39,0.38c11.91-0.44,38.73-3.55,50.36-4.38c1.9-0.14,3.05,0.18,4.01,0.37" stroke-dasharray="59.023" stroke-dashoffset="59.023"><animate attributeName="stroke-dashoffset" values="59.023" fill="freeze" begin="807f.click" /><animate attributeName="stroke-dashoffset" values="59.023;59.023;0" keyTimes="0;0.739;1" dur="2.259s" fill="freeze" begin="0s;807f.click" /></path><path d="M17.13,79.73c1.52,0.54,4.31,0.71,5.82,0.54c17.8-2.02,49.8-4.77,63.61-5.23c2.53-0.08,4.05,0.26,5.31,0.53" stroke-dasharray="75.069" stroke-dashoffset="75.069"><animate attributeName="stroke-dashoffset" values="75.069" fill="freeze" begin="807f.click" /><animate attributeName="stroke-dashoffset" values="75.069;75.069;0" keyTimes="0;0.8;1" dur="2.823s" fill="freeze" begin="0s;807f.click" /></path><path d="M52.12,10.5c1.09,0.5,1.74,2.25,1.96,3.25c0.22,1,0,79.75-0.22,86" stroke-dasharray="89.912" stroke-dashoffset="89.912"><animate attributeName="stroke-dashoffset" values="89.912" fill="freeze" begin="807f.click" /><animate attributeName="stroke-dashoffset" values="89.912;89.912;0" keyTimes="0;0.807;1" dur="3.499s" fill="freeze" begin="0s;807f.click" /></path></g></svg>