<svg xmlns="http://www.w3.org/2000/svg" width="109" height="109" viewBox="0 0 109 109" id="808c"><g fill="none" stroke="#666" stroke-width="9" stroke-linecap="round" stroke-linejoin="round"><g><g><path d="M18.71,19.97c0.85,0.85,0.98,2.09,1,3.01c0.54,37.27-3.55,53.97-10.21,67.41" /><path d="M20.71,22.01c3.08-0.63,8.54-2.01,12.45-2.62c2.68-0.42,3.88,0.34,3.88,3.23c0,6.85,0,43.98,0,61.03c0,12.77-4.63,5.58-7.23,2.5" /><path d="M20.71,40.41c5.36-0.69,10.18-1.42,15.22-2.04" /><path d="M19.4,57.12c4.6-0.37,11.55-1.01,16.44-1.42" /></g><g p4:phon="几" xmlns:p4="http://kanjivg.tagaini.net"><g><path d="M55.22,18.5c1.14,1.14,1.34,2.25,1.36,4.25C56.88,51.12,57.75,78,42.2,91.25" /></g><path d="M57.7,20.75c3.75-0.75,12.5-2.5,15.5-3.25s4.75,0.5,4.75,3.25c0,3.82,0,58.75,0,61.5c0,6.58,1.38,8.5,9.3,8.5c7.25,0,8.45-1.33,8.45-9.75" /></g></g></g><g fill="none" stroke="#000" stroke-width="5" stroke-linecap="round" stroke-linejoin="round"><g><g><path d="M18.71,19.97c0.85,0.85,0.98,2.09,1,3.01c0.54,37.27-3.55,53.97-10.21,67.41" stroke-dasharray="72.09" stroke-dashoffset="72.09"><animate id="0" attributeName="stroke-dashoffset" values="72.09;0" dur="0.54s" fill="freeze" begin="0s;808c.click" /></path><path d="M20.71,22.01c3.08-0.63,8.54-2.01,12.45-2.62c2.68-0.42,3.88,0.34,3.88,3.23c0,6.85,0,43.98,0,61.03c0,12.77-4.63,5.58-7.23,2.5" stroke-dasharray="95.23" stroke-dashoffset="95.23"><animate attributeName="stroke-dashoffset" values="95.23" fill="freeze" begin="808c.click" /><animate id="1" attributeName="stroke-dashoffset" values="95.23;0" dur="0.72s" fill="freeze" begin="0.end" /></path><path d="M20.71,40.41c5.36-0.69,10.18-1.42,15.22-2.04" stroke-dasharray="15.36" stroke-dashoffset="15.36"><animate attributeName="stroke-dashoffset" values="15.36" fill="freeze" begin="808c.click" /><animate id="2" attributeName="stroke-dashoffset" values="15.36;0" dur="0.15s" fill="freeze" begin="1.end" /></path><path d="M19.4,57.12c4.6-0.37,11.55-1.01,16.44-1.42" stroke-dasharray="16.5" stroke-dashoffset="16.5"><animate attributeName="stroke-dashoffset" values="16.5" fill="freeze" begin="808c.click" /><animate id="3" attributeName="stroke-dashoffset" values="16.5;0" dur="0.16s" fill="freeze" begin="2.end" /></path></g><g p4:phon="几" xmlns:p4="http://kanjivg.tagaini.net"><g><path d="M55.22,18.5c1.14,1.14,1.34,2.25,1.36,4.25C56.88,51.12,57.75,78,42.2,91.25" stroke-dasharray="76.75" stroke-dashoffset="76.75"><animate attributeName="stroke-dashoffset" values="76.75" fill="freeze" begin="808c.click" /><animate id="4" attributeName="stroke-dashoffset" values="76.75;0" dur="0.58s" fill="freeze" begin="3.end" /></path></g><path d="M57.7,20.75c3.75-0.75,12.5-2.5,15.5-3.25s4.75,0.5,4.75,3.25c0,3.82,0,58.75,0,61.5c0,6.58,1.38,8.5,9.3,8.5c7.25,0,8.45-1.33,8.45-9.75" stroke-dasharray="115.08" stroke-dashoffset="115.08"><animate attributeName="stroke-dashoffset" values="115.08" fill="freeze" begin="808c.click" /><animate id="5" attributeName="stroke-dashoffset" values="115.08;0" dur="0.87s" fill="freeze" begin="4.end" /></path></g></g></g></svg>