<svg xmlns="http://www.w3.org/2000/svg" width="109" height="109" viewBox="0 0 109 109" id="8098"><g fill="none" stroke="#666" stroke-width="6" stroke-linecap="round" stroke-linejoin="round"><g><g><path d="M18.97,19.74c0.52,0.95,0.88,1.88,1.05,2.8c0.17,0.92,0.15,25.9-0.41,33.63c-0.8,11-1.61,22.08-9.11,34.72" /><path d="M21.07,20.81c2.1-0.06,12.65-2.34,14.21-2.46c2.8-0.23,3.5,1.31,3.5,2.67c0,3.23-0.53,46.22-0.53,64.55c0,12.61-5.91,3.55-7.7,2.04" /><path d="M21.07,40.7c4.61-0.35,13.03-1.54,17.08-1.57" /><path d="M20.01,58.65c3.79-0.08,13.14-0.78,18.29-1.2" /></g><g><path d="M46.53,39.83c0.93,0.51,2.61,0.54,3.54,0.47c7.68-0.55,32.22-4.86,43.66-5.83c1.53-0.13,2.46,0.22,3.23,0.47" /><path d="M77.64,14.33c0.09,0.48,1.26,2.49,1.26,5.52c0,20.4-0.26,63.16-0.26,68.12c0,12.03-5.89,4.53-9.21,1.25" /><path d="M55.08,52.62c3.18,2.29,8.21,9.43,9,13" /></g></g></g><g fill="none" stroke="#000" stroke-width="3" stroke-linecap="round" stroke-linejoin="round"><path d="M18.97,19.74c0.52,0.95,0.88,1.88,1.05,2.8c0.17,0.92,0.15,25.9-0.41,33.63c-0.8,11-1.61,22.08-9.11,34.72" stroke-dasharray="72.93" stroke-dashoffset="72.93"><animate attributeName="stroke-dashoffset" values="72.93;72.93;0" dur="0.548s" fill="freeze" begin="0s;8098.click" /></path><path d="M21.07,20.81c2.1-0.06,12.65-2.34,14.21-2.46c2.8-0.23,3.5,1.31,3.5,2.67c0,3.23-0.53,46.22-0.53,64.55c0,12.61-5.91,3.55-7.7,2.04" stroke-dasharray="98.873" stroke-dashoffset="98.873"><animate attributeName="stroke-dashoffset" values="98.873" fill="freeze" begin="8098.click" /><animate attributeName="stroke-dashoffset" values="98.873;98.873;0" keyTimes="0;0.424;1" dur="1.291s" fill="freeze" begin="0s;8098.click" /></path><path d="M21.07,40.7c4.61-0.35,13.03-1.54,17.08-1.57" stroke-dasharray="17.157" stroke-dashoffset="17.157"><animate attributeName="stroke-dashoffset" values="17.157" fill="freeze" begin="8098.click" /><animate attributeName="stroke-dashoffset" values="17.157;17.157;0" keyTimes="0;0.882;1" dur="1.463s" fill="freeze" begin="0s;8098.click" /></path><path d="M20.01,58.65c3.79-0.08,13.14-0.78,18.29-1.2" stroke-dasharray="18.332" stroke-dashoffset="18.332"><animate attributeName="stroke-dashoffset" values="18.332" fill="freeze" begin="8098.click" /><animate attributeName="stroke-dashoffset" values="18.332;18.332;0" keyTimes="0;0.889;1" dur="1.646s" fill="freeze" begin="0s;8098.click" /></path><path d="M46.53,39.83c0.93,0.51,2.61,0.54,3.54,0.47c7.68-0.55,32.22-4.86,43.66-5.83c1.53-0.13,2.46,0.22,3.23,0.47" stroke-dasharray="50.958" stroke-dashoffset="50.958"><animate attributeName="stroke-dashoffset" values="50.958" fill="freeze" begin="8098.click" /><animate attributeName="stroke-dashoffset" values="50.958;50.958;0" keyTimes="0;0.763;1" dur="2.156s" fill="freeze" begin="0s;8098.click" /></path><path d="M77.64,14.33c0.09,0.48,1.26,2.49,1.26,5.52c0,20.4-0.26,63.16-0.26,68.12c0,12.03-5.89,4.53-9.21,1.25" stroke-dasharray="90.249" stroke-dashoffset="90.249"><animate attributeName="stroke-dashoffset" values="90.249" fill="freeze" begin="8098.click" /><animate attributeName="stroke-dashoffset" values="90.249;90.249;0" keyTimes="0;0.76;1" dur="2.835s" fill="freeze" begin="0s;8098.click" /></path><path d="M55.08,52.62c3.18,2.29,8.21,9.43,9,13" stroke-dasharray="16.012" stroke-dashoffset="16.012"><animate attributeName="stroke-dashoffset" values="16.012" fill="freeze" begin="8098.click" /><animate attributeName="stroke-dashoffset" values="16.012;16.012;0" keyTimes="0;0.947;1" dur="2.995s" fill="freeze" begin="0s;8098.click" /></path></g></svg>