<svg xmlns="http://www.w3.org/2000/svg" width="109" height="109" viewBox="0 0 109 109" id="809d"><g fill="none" stroke="#666" stroke-width="9" stroke-linecap="round" stroke-linejoin="round"><g><g><path d="M19.41,17.74c0.8,0.8,1.2,2.01,1.2,3.55c0,40.46-1.61,53.46-9.61,67.1" /><path d="M21.56,19.56c4.73-1.14,12.33-2.99,16.57-3.55c3.21-0.43,4.16,0.95,4.16,3.99c-0.01,8.26-0.1,44.7-0.1,61.55c0,12.95-3.66,6.17-6.78,3.04" /><path d="M21.81,37.2c7.44-1.08,13.44-1.95,19.49-2.58" /><path d="M21,55.16c6-0.66,14.28-1.53,20.15-1.95" /></g><g p4:phon="干" xmlns:p4="http://kanjivg.tagaini.net"><path d="M55.87,21.16c2.25,0.47,4.39,0.2,6.13-0.01c5.43-0.66,15.22-1.92,21.76-2.53c1.9-0.18,3.85-0.29,5.71,0.25" /><g><path d="M49.63,44.48c2.32,0.74,4.9,0.23,7.25-0.01c9.72-0.98,24.58-2.42,33.51-3.08c2.22-0.16,4.3-0.3,6.49,0.12" /><path d="M72.06,22.63c1.09,1.09,1.54,2.62,1.54,4.33c0,2.92-0.06,45.71-0.08,62.29c0,3.5-0.01,5.83-0.01,6.38" /></g></g></g></g><g fill="none" stroke="#000" stroke-width="5" stroke-linecap="round" stroke-linejoin="round"><g><g><path d="M19.41,17.74c0.8,0.8,1.2,2.01,1.2,3.55c0,40.46-1.61,53.46-9.61,67.1" stroke-dasharray="72.456" stroke-dashoffset="72.456"><animate attributeName="stroke-dashoffset" values="72.456;72.456;0" dur="0.545s" fill="freeze" begin="0s;809d.click" /></path><path d="M21.56,19.56c4.73-1.14,12.33-2.99,16.57-3.55c3.21-0.43,4.16,0.95,4.16,3.99c-0.01,8.26-0.1,44.7-0.1,61.55c0,12.95-3.66,6.17-6.78,3.04" stroke-dasharray="100.628" stroke-dashoffset="100.628"><animate attributeName="stroke-dashoffset" values="100.628" fill="freeze" begin="809d.click" /><animate attributeName="stroke-dashoffset" values="100.628;100.628;0" keyTimes="0;0.419;1" dur="1.302s" fill="freeze" begin="0s;809d.click" /></path><path d="M21.81,37.2c7.44-1.08,13.44-1.95,19.49-2.58" stroke-dasharray="19.662" stroke-dashoffset="19.662"><animate attributeName="stroke-dashoffset" values="19.662" fill="freeze" begin="809d.click" /><animate attributeName="stroke-dashoffset" values="19.662;19.662;0" keyTimes="0;0.869;1" dur="1.499s" fill="freeze" begin="0s;809d.click" /></path><path d="M21,55.16c6-0.66,14.28-1.53,20.15-1.95" stroke-dasharray="20.246" stroke-dashoffset="20.246"><animate attributeName="stroke-dashoffset" values="20.246" fill="freeze" begin="809d.click" /><animate attributeName="stroke-dashoffset" values="20.246;20.246;0" keyTimes="0;0.881;1" dur="1.701s" fill="freeze" begin="0s;809d.click" /></path></g><g p4:phon="干" xmlns:p4="http://kanjivg.tagaini.net"><path d="M55.87,21.16c2.25,0.47,4.39,0.2,6.13-0.01c5.43-0.66,15.22-1.92,21.76-2.53c1.9-0.18,3.85-0.29,5.71,0.25" stroke-dasharray="33.82" stroke-dashoffset="33.82"><animate attributeName="stroke-dashoffset" values="33.82" fill="freeze" begin="809d.click" /><animate attributeName="stroke-dashoffset" values="33.82;33.82;0" keyTimes="0;0.834;1" dur="2.039s" fill="freeze" begin="0s;809d.click" /></path><g><path d="M49.63,44.48c2.32,0.74,4.9,0.23,7.25-0.01c9.72-0.98,24.58-2.42,33.51-3.08c2.22-0.16,4.3-0.3,6.49,0.12" stroke-dasharray="47.472" stroke-dashoffset="47.472"><animate attributeName="stroke-dashoffset" values="47.472" fill="freeze" begin="809d.click" /><animate attributeName="stroke-dashoffset" values="47.472;47.472;0" keyTimes="0;0.811;1" dur="2.514s" fill="freeze" begin="0s;809d.click" /></path><path d="M72.06,22.63c1.09,1.09,1.54,2.62,1.54,4.33c0,2.92-0.06,45.71-0.08,62.29c0,3.5-0.01,5.83-0.01,6.38" stroke-dasharray="73.39" stroke-dashoffset="73.39"><animate attributeName="stroke-dashoffset" values="73.39" fill="freeze" begin="809d.click" /><animate attributeName="stroke-dashoffset" values="73.39;73.39;0" keyTimes="0;0.82;1" dur="3.066s" fill="freeze" begin="0s;809d.click" /></path></g></g></g></g></svg>