<svg xmlns="http://www.w3.org/2000/svg" width="109" height="109" viewBox="0 0 109 109" id="80a1"><g fill="none" stroke="#666" stroke-width="9" stroke-linecap="round" stroke-linejoin="round"><g><g><path d="M20.22,18.74c0.77,0.77,0.79,2.14,0.8,3.05C21.38,62,20.62,75,11.5,89.39" /><path d="M22.07,19.81c3.77-1.1,9.16-2.22,12.2-2.86c3.38-0.71,5.27,0.34,5.27,3.92c0,7.56-0.02,45.68-0.02,63.19c0,12.61-6.16,3.55-7.95,2.04" /><path d="M22.07,38.45c5.55-0.7,11.05-1.33,16.83-2.07" /><path d="M21.76,56.4c4.49-0.4,11.64-1.53,16.79-1.95" /></g><g><g><g><path d="M54.92,17.35c0.68,0.68,1,1.82,0.95,2.84c-0.5,11.94-1.75,21.06-8.09,27.17" /></g><path d="M56.85,19.53C63.12,18.5,68,17.5,72.75,16.39c2.74-0.64,4.08,0.56,3.33,3.62c-1.2,4.87-1.71,10.75-1.71,14.37c0,7.01,1.19,8.64,9.03,8.64c7.6,0,8.53-1.01,8.53-9.36" /></g><g><path d="M52.75,55.69c1.53,0.37,3.47,0.42,6.54-0.13c2.35-0.42,14-3.33,17.75-4.28c3.64-0.92,5.11,1.99,3.32,4.95C70.88,71.88,61.62,84.25,44,93.17" /><path d="M51.98,62.15c5.52,1.35,18.39,14.6,31.63,24.99c3.43,2.7,6.54,5.14,10.67,6.54" /></g></g></g></g><g fill="none" stroke="#000" stroke-width="5" stroke-linecap="round" stroke-linejoin="round"><path d="M20.22,18.74c0.77,0.77,0.79,2.14,0.8,3.05C21.38,62,20.62,75,11.5,89.39" stroke-dasharray="72.505" stroke-dashoffset="72.505"><animate attributeName="stroke-dashoffset" values="72.505;72.505;0" dur="0.545s" fill="freeze" begin="0s;80a1.click" /></path><path d="M22.07,19.81c3.77-1.1,9.16-2.22,12.2-2.86c3.38-0.71,5.27,0.34,5.27,3.92c0,7.56-0.02,45.68-0.02,63.19c0,12.61-6.16,3.55-7.95,2.04" stroke-dasharray="98.702" stroke-dashoffset="98.702"><animate attributeName="stroke-dashoffset" values="98.702" fill="freeze" begin="80a1.click" /><animate attributeName="stroke-dashoffset" values="98.702;98.702;0" keyTimes="0;0.423;1" dur="1.287s" fill="freeze" begin="0s;80a1.click" /></path><path d="M22.07,38.45c5.55-0.7,11.05-1.33,16.83-2.07" stroke-dasharray="16.958" stroke-dashoffset="16.958"><animate attributeName="stroke-dashoffset" values="16.958" fill="freeze" begin="80a1.click" /><animate attributeName="stroke-dashoffset" values="16.958;16.958;0" keyTimes="0;0.883;1" dur="1.457s" fill="freeze" begin="0s;80a1.click" /></path><path d="M21.76,56.4c4.49-0.4,11.64-1.53,16.79-1.95" stroke-dasharray="16.905" stroke-dashoffset="16.905"><animate attributeName="stroke-dashoffset" values="16.905" fill="freeze" begin="80a1.click" /><animate attributeName="stroke-dashoffset" values="16.905;16.905;0" keyTimes="0;0.896;1" dur="1.626s" fill="freeze" begin="0s;80a1.click" /></path><path d="M54.92,17.35c0.68,0.68,1,1.82,0.95,2.84c-0.5,11.94-1.75,21.06-8.09,27.17" stroke-dasharray="32.153" stroke-dashoffset="32.153"><animate attributeName="stroke-dashoffset" values="32.153" fill="freeze" begin="80a1.click" /><animate attributeName="stroke-dashoffset" values="32.153;32.153;0" keyTimes="0;0.835;1" dur="1.948s" fill="freeze" begin="0s;80a1.click" /></path><path d="M56.85,19.53C63.12,18.5,68,17.5,72.75,16.39c2.74-0.64,4.08,0.56,3.33,3.62c-1.2,4.87-1.71,10.75-1.71,14.37c0,7.01,1.19,8.64,9.03,8.64c7.6,0,8.53-1.01,8.53-9.36" stroke-dasharray="67.89" stroke-dashoffset="67.89"><animate attributeName="stroke-dashoffset" values="67.89" fill="freeze" begin="80a1.click" /><animate attributeName="stroke-dashoffset" values="67.89;67.89;0" keyTimes="0;0.793;1" dur="2.458s" fill="freeze" begin="0s;80a1.click" /></path><path d="M52.75,55.69c1.53,0.37,3.47,0.42,6.54-0.13c2.35-0.42,14-3.33,17.75-4.28c3.64-0.92,5.11,1.99,3.32,4.95C70.88,71.88,61.62,84.25,44,93.17" stroke-dasharray="85.733" stroke-dashoffset="85.733"><animate attributeName="stroke-dashoffset" values="85.733" fill="freeze" begin="80a1.click" /><animate attributeName="stroke-dashoffset" values="85.733;85.733;0" keyTimes="0;0.792;1" dur="3.103s" fill="freeze" begin="0s;80a1.click" /></path><path d="M51.98,62.15c5.52,1.35,18.39,14.6,31.63,24.99c3.43,2.7,6.54,5.14,10.67,6.54" stroke-dasharray="53.028" stroke-dashoffset="53.028"><animate attributeName="stroke-dashoffset" values="53.028" fill="freeze" begin="80a1.click" /><animate attributeName="stroke-dashoffset" values="53.028;53.028;0" keyTimes="0;0.854;1" dur="3.633s" fill="freeze" begin="0s;80a1.click" /></path></g></svg>