<svg xmlns="http://www.w3.org/2000/svg" width="109" height="109" viewBox="0 0 109 109" id="80c4"><g fill="none" stroke="#666" stroke-width="6" stroke-linecap="round" stroke-linejoin="round"><g><g><g p5:partial xmlns:p5="http://kanjivg.tagaini.net"><path d="M25.58,19.92c0.54,0.67,1.54,2.25,1.67,2.83c1.03,4.82,2.39,14.97,3,23.83" /><path d="M27.42,21.42c17.95-1.08,40.97-3.67,52.33-3.67c2.75,0,4.25,1.5,4,4.33c-0.38,4.31-2.05,14.84-4.67,21.83" /></g><g><path d="M52.45,8.36c1.05,0.89,1.45,2.73,1.45,3.39c0.04,6.55,0.23,28.48,0.23,30.19" /></g><g p5:partial xmlns:p5="http://kanjivg.tagaini.net"><path d="M29.42,32.08c4.86-0.45,48.48-3.83,52.5-3.83" /><path d="M30.58,43.92c11.93-0.64,30.98-2.88,48.17-3.17" /></g></g><g><path d="M34.58,54.08c1.14,0.67,2,2.17,2,3.83c0,6.33,0.32,41.39,0.17,42.94" /><path d="M37.08,55.58c3.01-0.21,31.58-2.5,33.83-2.5c2.33,0,3.73,1.42,3.73,3.8c0,2.46-0.23,23.71-0.23,36.87c0,10.54-5.16,2.3-6.17,1.5" /><path d="M36.92,67.75c10.32-1.14,27.93-2.04,37-2.67" /><path d="M36.75,79.75c7.91-0.43,28.69-1.84,37.83-2.17" /></g></g></g><g fill="none" stroke="#000" stroke-width="3" stroke-linecap="round" stroke-linejoin="round"><path d="M25.58,19.92c0.54,0.67,1.54,2.25,1.67,2.83c1.03,4.82,2.39,14.97,3,23.83" stroke-dasharray="27.333" stroke-dashoffset="27.333"><animate attributeName="stroke-dashoffset" values="27.333;27.333;0" dur="0.273s" fill="freeze" begin="0s;80c4.click" /></path><path d="M27.42,21.42c17.95-1.08,40.97-3.67,52.33-3.67c2.75,0,4.25,1.5,4,4.33c-0.38,4.31-2.05,14.84-4.67,21.83" stroke-dasharray="81.698" stroke-dashoffset="81.698"><animate attributeName="stroke-dashoffset" values="81.698" fill="freeze" begin="80c4.click" /><animate attributeName="stroke-dashoffset" values="81.698;81.698;0" keyTimes="0;0.308;1" dur="0.887s" fill="freeze" begin="0s;80c4.click" /></path><path d="M52.45,8.36c1.05,0.89,1.45,2.73,1.45,3.39c0.04,6.55,0.23,28.48,0.23,30.19" stroke-dasharray="33.968" stroke-dashoffset="33.968"><animate attributeName="stroke-dashoffset" values="33.968" fill="freeze" begin="80c4.click" /><animate attributeName="stroke-dashoffset" values="33.968;33.968;0" keyTimes="0;0.723;1" dur="1.227s" fill="freeze" begin="0s;80c4.click" /></path><path d="M29.42,32.08c4.86-0.45,48.48-3.83,52.5-3.83" stroke-dasharray="52.643" stroke-dashoffset="52.643"><animate attributeName="stroke-dashoffset" values="52.643" fill="freeze" begin="80c4.click" /><animate attributeName="stroke-dashoffset" values="52.643;52.643;0" keyTimes="0;0.7;1" dur="1.753s" fill="freeze" begin="0s;80c4.click" /></path><path d="M30.58,43.92c11.93-0.64,30.98-2.88,48.17-3.17" stroke-dasharray="48.283" stroke-dashoffset="48.283"><animate attributeName="stroke-dashoffset" values="48.283" fill="freeze" begin="80c4.click" /><animate attributeName="stroke-dashoffset" values="48.283;48.283;0" keyTimes="0;0.784;1" dur="2.236s" fill="freeze" begin="0s;80c4.click" /></path><path d="M34.58,54.08c1.14,0.67,2,2.17,2,3.83c0,6.33,0.32,41.39,0.17,42.94" stroke-dasharray="47.451" stroke-dashoffset="47.451"><animate attributeName="stroke-dashoffset" values="47.451" fill="freeze" begin="80c4.click" /><animate attributeName="stroke-dashoffset" values="47.451;47.451;0" keyTimes="0;0.825;1" dur="2.711s" fill="freeze" begin="0s;80c4.click" /></path><path d="M37.08,55.58c3.01-0.21,31.58-2.5,33.83-2.5c2.33,0,3.73,1.42,3.73,3.8c0,2.46-0.23,23.71-0.23,36.87c0,10.54-5.16,2.3-6.17,1.5" stroke-dasharray="88.832" stroke-dashoffset="88.832"><animate attributeName="stroke-dashoffset" values="88.832" fill="freeze" begin="80c4.click" /><animate attributeName="stroke-dashoffset" values="88.832;88.832;0" keyTimes="0;0.802;1" dur="3.379s" fill="freeze" begin="0s;80c4.click" /></path><path d="M36.92,67.75c10.32-1.14,27.93-2.04,37-2.67" stroke-dasharray="37.1" stroke-dashoffset="37.1"><animate attributeName="stroke-dashoffset" values="37.1" fill="freeze" begin="80c4.click" /><animate attributeName="stroke-dashoffset" values="37.1;37.1;0" keyTimes="0;0.901;1" dur="3.75s" fill="freeze" begin="0s;80c4.click" /></path><path d="M36.75,79.75c7.91-0.43,28.69-1.84,37.83-2.17" stroke-dasharray="37.894" stroke-dashoffset="37.894"><animate attributeName="stroke-dashoffset" values="37.894" fill="freeze" begin="80c4.click" /><animate attributeName="stroke-dashoffset" values="37.894;37.894;0" keyTimes="0;0.908;1" dur="4.129s" fill="freeze" begin="0s;80c4.click" /></path></g></svg>