<svg xmlns="http://www.w3.org/2000/svg" width="109" height="109" viewBox="0 0 109 109" id="80db"><g fill="none" stroke="#666" stroke-width="9" stroke-linecap="round" stroke-linejoin="round"><g><g><path d="M19.22,19.99c0.52,0.95,0.88,1.88,1.05,2.8c0.17,0.92,0.15,25.9-0.41,33.63c-0.8,11-2.61,22.08-8.61,34.72" /><path d="M20.82,21.06c2.1-0.06,11.65-2.34,13.21-2.46c2.8-0.23,3.5,1.31,3.5,2.67c0,3.23-0.53,46.22-0.53,64.55c0,10.69-4.41,3.05-6.2,1.54" /><path d="M20.82,39.95c4.61-0.35,12.03-2.04,16.08-2.07" /><path d="M20.26,57.4c3.79-0.08,11.64-1.28,16.79-1.7" /></g><g><g p5:partial xmlns:p5="http://kanjivg.tagaini.net"><path d="M48.2,20.56c0.31,0.66,1.33,2.6,1.49,3.41c1.56,8.28,3.15,21.23,3.97,33.53" /><path d="M49.67,22c12.02-1.52,31.07-4.11,39.34-4.77c3.04-0.24,4.86,1.17,4.75,3.94C93.52,27.76,91,51.25,89.8,55.3" /><path d="M52.15,37.2C59,36.25,83,34.25,92.29,34.05" /><path d="M53.74,53.88C65.75,53,78.96,51.46,90.4,50.83" /></g><g><path d="M69.36,22.19c0.89,0.56,1.44,2.03,1.44,3.81c-0.03,8.98,0.3,66.54,0.3,69.47" /></g></g></g></g><g fill="none" stroke="#000" stroke-width="5" stroke-linecap="round" stroke-linejoin="round"><g><g><path d="M19.22,19.99c0.52,0.95,0.88,1.88,1.05,2.8c0.17,0.92,0.15,25.9-0.41,33.63c-0.8,11-2.61,22.08-8.61,34.72" stroke-dasharray="72.64" stroke-dashoffset="72.64"><animate id="0" attributeName="stroke-dashoffset" values="72.64;0" dur="0.55s" fill="freeze" begin="0s;80db.click" /></path><path d="M20.82,21.06c2.1-0.06,11.65-2.34,13.21-2.46c2.8-0.23,3.5,1.31,3.5,2.67c0,3.23-0.53,46.22-0.53,64.55c0,10.69-4.41,3.05-6.2,1.54" stroke-dasharray="95.54" stroke-dashoffset="95.54"><animate attributeName="stroke-dashoffset" values="95.54" fill="freeze" begin="80db.click" /><animate id="1" attributeName="stroke-dashoffset" values="95.54;0" dur="0.72s" fill="freeze" begin="0.end" /></path><path d="M20.82,39.95c4.61-0.35,12.03-2.04,16.08-2.07" stroke-dasharray="16.22" stroke-dashoffset="16.22"><animate attributeName="stroke-dashoffset" values="16.22" fill="freeze" begin="80db.click" /><animate id="2" attributeName="stroke-dashoffset" values="16.22;0" dur="0.16s" fill="freeze" begin="1.end" /></path><path d="M20.26,57.4c3.79-0.08,11.64-1.28,16.79-1.7" stroke-dasharray="16.88" stroke-dashoffset="16.88"><animate attributeName="stroke-dashoffset" values="16.88" fill="freeze" begin="80db.click" /><animate id="3" attributeName="stroke-dashoffset" values="16.88;0" dur="0.17s" fill="freeze" begin="2.end" /></path></g><g><g p5:partial xmlns:p5="http://kanjivg.tagaini.net"><path d="M48.2,20.56c0.31,0.66,1.33,2.6,1.49,3.41c1.56,8.28,3.15,21.23,3.97,33.53" stroke-dasharray="37.51" stroke-dashoffset="37.51"><animate attributeName="stroke-dashoffset" values="37.51" fill="freeze" begin="80db.click" /><animate id="4" attributeName="stroke-dashoffset" values="37.51;0" dur="0.38s" fill="freeze" begin="3.end" /></path><path d="M49.67,22c12.02-1.52,31.07-4.11,39.34-4.77c3.04-0.24,4.86,1.17,4.75,3.94C93.52,27.76,91,51.25,89.8,55.3" stroke-dasharray="81.21" stroke-dashoffset="81.21"><animate attributeName="stroke-dashoffset" values="81.21" fill="freeze" begin="80db.click" /><animate id="5" attributeName="stroke-dashoffset" values="81.21;0" dur="0.61s" fill="freeze" begin="4.end" /></path><path d="M52.15,37.2C59,36.25,83,34.25,92.29,34.05" stroke-dasharray="40.27" stroke-dashoffset="40.27"><animate attributeName="stroke-dashoffset" values="40.27" fill="freeze" begin="80db.click" /><animate id="6" attributeName="stroke-dashoffset" values="40.27;0" dur="0.4s" fill="freeze" begin="5.end" /></path><path d="M53.74,53.88C65.75,53,78.96,51.46,90.4,50.83" stroke-dasharray="36.79" stroke-dashoffset="36.79"><animate attributeName="stroke-dashoffset" values="36.79" fill="freeze" begin="80db.click" /><animate id="7" attributeName="stroke-dashoffset" values="36.79;0" dur="0.37s" fill="freeze" begin="6.end" /></path></g><g><path d="M69.36,22.19c0.89,0.56,1.44,2.03,1.44,3.81c-0.03,8.98,0.3,66.54,0.3,69.47" stroke-dasharray="73.7" stroke-dashoffset="73.7"><animate attributeName="stroke-dashoffset" values="73.7" fill="freeze" begin="80db.click" /><animate id="8" attributeName="stroke-dashoffset" values="73.7;0" dur="0.55s" fill="freeze" begin="7.end" /></path></g></g></g></g></svg>