<svg xmlns="http://www.w3.org/2000/svg" width="109" height="109" viewBox="0 0 109 109" id="8155"><g fill="none" stroke="#666" stroke-width="9" stroke-linecap="round" stroke-linejoin="round"><g><g><path d="M17,20c0.88,0.88,0.96,1.97,1,3c1.5,37.75-1.38,56.62-7.75,69" /><path d="M19,22.25c4.07-0.79,9.61-1.8,12.26-2.34c2.22-0.46,4.24,0.54,4.24,3.09c0,6.75,0,43.75,0,64c0,10.75-4.75,5.25-7.5,2.25" /><path d="M19.5,40.75c4.75-0.5,8.25-0.88,15-1.5" /><path d="M18.75,58.75c5.25-0.75,9.5-1.25,15.5-1.5" /></g><g p4:phon="宛" xmlns:p4="http://kanjivg.tagaini.net"><g><path d="M67.15,13.8c0.96,0.96,1.35,2.25,1.35,3.7c0,3.05,0.11,6.45,0.11,9.22" /><g><path d="M48.08,27.49c0,3.68-2.87,13.79-4.17,16.25" /><path d="M48.94,29.35c8.18-1.1,32.93-3.6,42-3.82c9.81-0.24,0.35,6.34-1.64,7.99" /></g></g><g><g><path d="M54.42,39.17c0.15,0.53,0.13,1.92-0.22,2.92c-2.7,7.79-7.75,16.06-14.81,25.85" /><path d="M54.06,50.7c0.57,0.18,1.41,0.19,2.06,0.13c2.01-0.2,4.26-0.7,7.17-1.56c2.11-0.63,3.4,0.77,2.61,2.94C61.88,63.25,52,82.5,38.75,93.75" /><path d="M47.62,61.25c2.31,1.55,5.97,6.38,6.54,8.79" /></g><g><path d="M71.24,45.96c1.64,0.54,3.53,0.21,4.6,0.07c3.91-0.53,10.61-2.08,12.04-2.38c2.49-0.52,3.72,0.87,3.63,3.43c-0.14,4.35-1.73,17.56-4.05,24.64c-2.22,6.78-4.22,2.53-5.45-0.39" /><path d="M71.89,46.75c0.93,0.93,1.28,2,1.28,3.33c0,12.3-0.01,20.3-0.01,29.2c0,12.97,0.58,14.47,12.28,14.47c10.68,0,11.7-2,11.7-10.9" /></g></g></g></g></g><g fill="none" stroke="#000" stroke-width="5" stroke-linecap="round" stroke-linejoin="round"><g><g><path d="M17,20c0.88,0.88,0.96,1.97,1,3c1.5,37.75-1.38,56.62-7.75,69" stroke-dasharray="73.35" stroke-dashoffset="73.35"><animate id="0" attributeName="stroke-dashoffset" values="73.35;0" dur="0.55s" fill="freeze" begin="0s;8155.click" /></path><path d="M19,22.25c4.07-0.79,9.61-1.8,12.26-2.34c2.22-0.46,4.24,0.54,4.24,3.09c0,6.75,0,43.75,0,64c0,10.75-4.75,5.25-7.5,2.25" stroke-dasharray="96.75" stroke-dashoffset="96.75"><animate attributeName="stroke-dashoffset" values="96.75" fill="freeze" begin="8155.click" /><animate id="1" attributeName="stroke-dashoffset" values="96.75;0" dur="0.73s" fill="freeze" begin="0.end" /></path><path d="M19.5,40.75c4.75-0.5,8.25-0.88,15-1.5" stroke-dasharray="15.07" stroke-dashoffset="15.07"><animate attributeName="stroke-dashoffset" values="15.07" fill="freeze" begin="8155.click" /><animate id="2" attributeName="stroke-dashoffset" values="15.07;0" dur="0.15s" fill="freeze" begin="1.end" /></path><path d="M18.75,58.75c5.25-0.75,9.5-1.25,15.5-1.5" stroke-dasharray="15.58" stroke-dashoffset="15.58"><animate attributeName="stroke-dashoffset" values="15.58" fill="freeze" begin="8155.click" /><animate id="3" attributeName="stroke-dashoffset" values="15.58;0" dur="0.16s" fill="freeze" begin="2.end" /></path></g><g p4:phon="宛" xmlns:p4="http://kanjivg.tagaini.net"><g><path d="M67.15,13.8c0.96,0.96,1.35,2.25,1.35,3.7c0,3.05,0.11,6.45,0.11,9.22" stroke-dasharray="13.27" stroke-dashoffset="13.27"><animate attributeName="stroke-dashoffset" values="13.27" fill="freeze" begin="8155.click" /><animate id="4" attributeName="stroke-dashoffset" values="13.27;0" dur="0.13s" fill="freeze" begin="3.end" /></path><g><path d="M48.08,27.49c0,3.68-2.87,13.79-4.17,16.25" stroke-dasharray="16.85" stroke-dashoffset="16.85"><animate attributeName="stroke-dashoffset" values="16.85" fill="freeze" begin="8155.click" /><animate id="5" attributeName="stroke-dashoffset" values="16.85;0" dur="0.17s" fill="freeze" begin="4.end" /></path><path d="M48.94,29.35c8.18-1.1,32.93-3.6,42-3.82c9.81-0.24,0.35,6.34-1.64,7.99" stroke-dasharray="56.24" stroke-dashoffset="56.24"><animate attributeName="stroke-dashoffset" values="56.24" fill="freeze" begin="8155.click" /><animate id="6" attributeName="stroke-dashoffset" values="56.24;0" dur="0.56s" fill="freeze" begin="5.end" /></path></g></g><g><g><path d="M54.42,39.17c0.15,0.53,0.13,1.92-0.22,2.92c-2.7,7.79-7.75,16.06-14.81,25.85" stroke-dasharray="32.85" stroke-dashoffset="32.85"><animate attributeName="stroke-dashoffset" values="32.85" fill="freeze" begin="8155.click" /><animate id="7" attributeName="stroke-dashoffset" values="32.85;0" dur="0.33s" fill="freeze" begin="6.end" /></path><path d="M54.06,50.7c0.57,0.18,1.41,0.19,2.06,0.13c2.01-0.2,4.26-0.7,7.17-1.56c2.11-0.63,3.4,0.77,2.61,2.94C61.88,63.25,52,82.5,38.75,93.75" stroke-dasharray="64.75" stroke-dashoffset="64.75"><animate attributeName="stroke-dashoffset" values="64.75" fill="freeze" begin="8155.click" /><animate id="8" attributeName="stroke-dashoffset" values="64.75;0" dur="0.49s" fill="freeze" begin="7.end" /></path><path d="M47.62,61.25c2.31,1.55,5.97,6.38,6.54,8.79" stroke-dasharray="11.1" stroke-dashoffset="11.1"><animate attributeName="stroke-dashoffset" values="11.1" fill="freeze" begin="8155.click" /><animate id="9" attributeName="stroke-dashoffset" values="11.1;0" dur="0.11s" fill="freeze" begin="8.end" /></path></g><g><path d="M71.24,45.96c1.64,0.54,3.53,0.21,4.6,0.07c3.91-0.53,10.61-2.08,12.04-2.38c2.49-0.52,3.72,0.87,3.63,3.43c-0.14,4.35-1.73,17.56-4.05,24.64c-2.22,6.78-4.22,2.53-5.45-0.39" stroke-dasharray="57.79" stroke-dashoffset="57.79"><animate attributeName="stroke-dashoffset" values="57.79" fill="freeze" begin="8155.click" /><animate id="10" attributeName="stroke-dashoffset" values="57.79;0" dur="0.58s" fill="freeze" begin="9.end" /></path><path d="M71.89,46.75c0.93,0.93,1.28,2,1.28,3.33c0,12.3-0.01,20.3-0.01,29.2c0,12.97,0.58,14.47,12.28,14.47c10.68,0,11.7-2,11.7-10.9" stroke-dasharray="75.9" stroke-dashoffset="75.9"><animate attributeName="stroke-dashoffset" values="75.9" fill="freeze" begin="8155.click" /><animate id="11" attributeName="stroke-dashoffset" values="75.9;0" dur="0.57s" fill="freeze" begin="10.end" /></path></g></g></g></g></g></svg>