<svg xmlns="http://www.w3.org/2000/svg" width="109" height="109" viewBox="0 0 109 109" id="8180"><g fill="none" stroke="#666" stroke-width="9" stroke-linecap="round" stroke-linejoin="round"><g><g><path d="M19.08,18.25c0.58,0.97,1,2.71,1,3.67c0,3.08,0.01,23.81-0.6,31.69C18.6,64.81,17.7,76.1,9.42,88.97" /><path d="M20.82,19.56c1.8-0.06,10.39-1.83,11.72-1.96c2.39-0.23,2.99,1.3,2.99,2.66c0,3.22-0.45,45.61-0.45,63.9c0,12.58-5.81,5.27-7.34,3.76" /><path d="M20.99,39.01c3.8-0.26,10.75-1.49,14.08-1.51" /><path d="M20.1,57.51c3.23-0.07,9.9-1.19,14.29-1.59" /></g><g><g><g p6:partial xmlns:p6="http://kanjivg.tagaini.net"><g><path d="M65.25,11.92c1,0.83,1.92,1.75,1.92,2.94c0,1.88,0,1.15,0,6.26" /><path d="M46.42,23.96c2.08,0.54,4.96,0.76,5.83,0.62c7-1.08,25-3.33,33.5-4.17c1.46-0.14,4.27,0.24,5,0.48" /></g><g><path d="M55.19,27.74c2.27,2.73,3.35,6.54,3.56,8.34" /><path d="M80.21,23.5c0.16,0.89-0.21,2.12-0.33,2.36c-1.24,2.41-2.57,6.74-3.46,8.22" /></g></g><g><path d="M46.2,36.73c-0.09,3.53-2.15,12.77-2.88,14.88" /><path d="M45.75,40.92c6.95-0.84,31.47-4.98,45-5.33c8.27-0.22,3.09,4.7,0,8" /></g></g><g><g><path d="M65.25,42.75c0.98,0.53,3.17,2.96,3.17,4c0,3.85-0.38,4.58-0.2,7.84" /><path d="M45.92,55.58c1.58,0.42,3.83,0.92,6.33,0.83c6.65-0.22,28.89-2.98,37.83-3.67c1.38-0.11,4.14,0.1,5.17,0.67" /></g><g><path d="M67.16,61.75c3.34,2.75,11.58,4.64,14.76,5.34c1.43,0.32,2.35,1.89,2,3.67c-1.18,5.91-5.93,16.19-10.33,22c-2.63,3.46-6.25-1.76-6.83-2.33" /><path d="M65.58,57.92c0.35,0.93,0.43,2.68,0.02,3.72c-3.86,9.86-8.36,20.86-20.69,27.14" /></g></g></g></g></g><g fill="none" stroke="#000" stroke-width="5" stroke-linecap="round" stroke-linejoin="round"><g><g><path d="M19.08,18.25c0.58,0.97,1,2.71,1,3.67c0,3.08,0.01,23.81-0.6,31.69C18.6,64.81,17.7,76.1,9.42,88.97" stroke-dasharray="72.76" stroke-dashoffset="72.76"><animate id="0" attributeName="stroke-dashoffset" values="72.76;0" dur="0.55s" fill="freeze" begin="0s;8180.click" /></path><path d="M20.82,19.56c1.8-0.06,10.39-1.83,11.72-1.96c2.39-0.23,2.99,1.3,2.99,2.66c0,3.22-0.45,45.61-0.45,63.9c0,12.58-5.81,5.27-7.34,3.76" stroke-dasharray="94.82" stroke-dashoffset="94.82"><animate attributeName="stroke-dashoffset" values="94.82" fill="freeze" begin="8180.click" /><animate id="1" attributeName="stroke-dashoffset" values="94.82;0" dur="0.71s" fill="freeze" begin="0.end" /></path><path d="M20.99,39.01c3.8-0.26,10.75-1.49,14.08-1.51" stroke-dasharray="14.17" stroke-dashoffset="14.17"><animate attributeName="stroke-dashoffset" values="14.17" fill="freeze" begin="8180.click" /><animate id="2" attributeName="stroke-dashoffset" values="14.17;0" dur="0.14s" fill="freeze" begin="1.end" /></path><path d="M20.1,57.51c3.23-0.07,9.9-1.19,14.29-1.59" stroke-dasharray="14.38" stroke-dashoffset="14.38"><animate attributeName="stroke-dashoffset" values="14.38" fill="freeze" begin="8180.click" /><animate id="3" attributeName="stroke-dashoffset" values="14.38;0" dur="0.14s" fill="freeze" begin="2.end" /></path></g><g><g><g p6:partial xmlns:p6="http://kanjivg.tagaini.net"><g><path d="M65.25,11.92c1,0.83,1.92,1.75,1.92,2.94c0,1.88,0,1.15,0,6.26" stroke-dasharray="9.89" stroke-dashoffset="9.89"><animate attributeName="stroke-dashoffset" values="9.89" fill="freeze" begin="8180.click" /><animate id="4" attributeName="stroke-dashoffset" values="9.89;0" dur="0.1s" fill="freeze" begin="3.end" /></path><path d="M46.42,23.96c2.08,0.54,4.96,0.76,5.83,0.62c7-1.08,25-3.33,33.5-4.17c1.46-0.14,4.27,0.24,5,0.48" stroke-dasharray="44.69" stroke-dashoffset="44.69"><animate attributeName="stroke-dashoffset" values="44.69" fill="freeze" begin="8180.click" /><animate id="5" attributeName="stroke-dashoffset" values="44.69;0" dur="0.45s" fill="freeze" begin="4.end" /></path></g><g><path d="M55.19,27.74c2.27,2.73,3.35,6.54,3.56,8.34" stroke-dasharray="9.17" stroke-dashoffset="9.17"><animate attributeName="stroke-dashoffset" values="9.17" fill="freeze" begin="8180.click" /><animate id="6" attributeName="stroke-dashoffset" values="9.17;0" dur="0.09s" fill="freeze" begin="5.end" /></path><path d="M80.21,23.5c0.16,0.89-0.21,2.12-0.33,2.36c-1.24,2.41-2.57,6.74-3.46,8.22" stroke-dasharray="11.33" stroke-dashoffset="11.33"><animate attributeName="stroke-dashoffset" values="11.33" fill="freeze" begin="8180.click" /><animate id="7" attributeName="stroke-dashoffset" values="11.33;0" dur="0.11s" fill="freeze" begin="6.end" /></path></g></g><g><path d="M46.2,36.73c-0.09,3.53-2.15,12.77-2.88,14.88" stroke-dasharray="15.18" stroke-dashoffset="15.18"><animate attributeName="stroke-dashoffset" values="15.18" fill="freeze" begin="8180.click" /><animate id="8" attributeName="stroke-dashoffset" values="15.18;0" dur="0.15s" fill="freeze" begin="7.end" /></path><path d="M45.75,40.92c6.95-0.84,31.47-4.98,45-5.33c8.27-0.22,3.09,4.7,0,8" stroke-dasharray="58.42" stroke-dashoffset="58.42"><animate attributeName="stroke-dashoffset" values="58.42" fill="freeze" begin="8180.click" /><animate id="9" attributeName="stroke-dashoffset" values="58.42;0" dur="0.58s" fill="freeze" begin="8.end" /></path></g></g><g><g><path d="M65.25,42.75c0.98,0.53,3.17,2.96,3.17,4c0,3.85-0.38,4.58-0.2,7.84" stroke-dasharray="13.06" stroke-dashoffset="13.06"><animate attributeName="stroke-dashoffset" values="13.06" fill="freeze" begin="8180.click" /><animate id="10" attributeName="stroke-dashoffset" values="13.06;0" dur="0.13s" fill="freeze" begin="9.end" /></path><path d="M45.92,55.58c1.58,0.42,3.83,0.92,6.33,0.83c6.65-0.22,28.89-2.98,37.83-3.67c1.38-0.11,4.14,0.1,5.17,0.67" stroke-dasharray="49.68" stroke-dashoffset="49.68"><animate attributeName="stroke-dashoffset" values="49.68" fill="freeze" begin="8180.click" /><animate id="11" attributeName="stroke-dashoffset" values="49.68;0" dur="0.5s" fill="freeze" begin="10.end" /></path></g><g><path d="M67.16,61.75c3.34,2.75,11.58,4.64,14.76,5.34c1.43,0.32,2.35,1.89,2,3.67c-1.18,5.91-5.93,16.19-10.33,22c-2.63,3.46-6.25-1.76-6.83-2.33" stroke-dasharray="53.44" stroke-dashoffset="53.44"><animate attributeName="stroke-dashoffset" values="53.44" fill="freeze" begin="8180.click" /><animate id="12" attributeName="stroke-dashoffset" values="53.44;0" dur="0.53s" fill="freeze" begin="11.end" /></path><path d="M65.58,57.92c0.35,0.93,0.43,2.68,0.02,3.72c-3.86,9.86-8.36,20.86-20.69,27.14" stroke-dasharray="38.8" stroke-dashoffset="38.8"><animate attributeName="stroke-dashoffset" values="38.8" fill="freeze" begin="8180.click" /><animate id="13" attributeName="stroke-dashoffset" values="38.8;0" dur="0.39s" fill="freeze" begin="12.end" /></path></g></g></g></g></g></svg>