<svg xmlns="http://www.w3.org/2000/svg" width="109" height="109" viewBox="0 0 109 109" id="8182"><g fill="none" stroke="#666" stroke-width="9" stroke-linecap="round" stroke-linejoin="round"><g><g><g><g><path d="M29.79,11.35c0.99,0.35,1.61,2.22,1.61,2.93c0,2.6-0.16,3.61,0.02,5.8" /><path d="M14.75,21.92c1.5,0.58,3.51,1.22,4.33,1.17c6.63-0.42,19.75-2.45,24.5-2.83c1.38-0.11,5.31-0.17,6.83-0.17" /></g><g><path d="M33.08,28.42c0.93,0.27,7,3.83,7.5,4.5c0.8,1.06,0.74,1.49,0.5,2.83c-0.83,4.75-3.33,10.75-7.17,14.83c-1.84,1.96-4.63-0.07-5.17-0.5" /><path d="M31.92,24.58c0.05,0.57,0.25,2.03,0.03,2.85C30.3,33.51,26.22,43,15.42,49.25" /></g></g><g><path d="M61.37,9.75c0.04,0.45,0.17,1.18-0.07,1.82c-1.51,3.93-6.17,12.05-12.46,17.41" /><path d="M60.75,19.08c2,0.42,4.06,0.53,5.5,0.33c5.47-0.73,11.57-1.8,15.83-2.67c0.9-0.18,3.24-0.32,4.17-0.17" /><g><path d="M74.58,20.92c-0.08,1.08-0.89,2.7-1.17,3c-1.69,1.84-6.6,5.54-13.5,7.5" /><path d="M55.58,29.58c0.08,0.2,1.45,1.69,1.53,2.96c0.37,6.08,0.43,14.43,0.26,16.5c-0.07,0.83,0.83,1.16,2.02,0.66c1.19-0.5,8.53-5.12,10.02-5.79" /></g><path d="M86.26,26.38c0.03,0.2,0.06,0.52-0.05,0.81c-0.67,1.72-4.55,5.49-9.85,7.8" /><path d="M65.91,31.71c3.81,1.41,16.51,12.21,20,14.37c1.18,0.73,4.48,1.46,5.67,1.67" /></g></g><g><path d="M33.25,57.92c0.67,0.53,1.5,2.79,1.5,3.37c0,7.21-0.08,36.08-0.17,37.3" /><path d="M34.58,60.08c3.11-0.17,33.69-3.49,36-3.67c4.15-0.32,4.73,1.87,4.73,2.78c0,2.04-0.08,20.87-0.08,31.82c0,8.76-7.7,1.43-8.74,0.77" /><path d="M36.46,70.87c10.49-1.02,27.63-2.57,36.85-3.13" /><path d="M36.83,80.38c8.5-0.52,28.26-2.24,38.09-2.63" /></g></g></g><g fill="none" stroke="#000" stroke-width="5" stroke-linecap="round" stroke-linejoin="round"><g><g><g><g><path d="M29.79,11.35c0.99,0.35,1.61,2.22,1.61,2.93c0,2.6-0.16,3.61,0.02,5.8" stroke-dasharray="9.291" stroke-dashoffset="9.291"><animate attributeName="stroke-dashoffset" values="9.291;9.291;0" dur="0.093s" fill="freeze" begin="0s;8182.click" /></path><path d="M14.75,21.92c1.5,0.58,3.51,1.22,4.33,1.17c6.63-0.42,19.75-2.45,24.5-2.83c1.38-0.11,5.31-0.17,6.83-0.17" stroke-dasharray="36.005" stroke-dashoffset="36.005"><animate attributeName="stroke-dashoffset" values="36.005" fill="freeze" begin="8182.click" /><animate attributeName="stroke-dashoffset" values="36.005;36.005;0" keyTimes="0;0.205;1" dur="0.453s" fill="freeze" begin="0s;8182.click" /></path></g><g><path d="M33.08,28.42c0.93,0.27,7,3.83,7.5,4.5c0.8,1.06,0.74,1.49,0.5,2.83c-0.83,4.75-3.33,10.75-7.17,14.83c-1.84,1.96-4.63-0.07-5.17-0.5" stroke-dasharray="34.195" stroke-dashoffset="34.195"><animate attributeName="stroke-dashoffset" values="34.195" fill="freeze" begin="8182.click" /><animate attributeName="stroke-dashoffset" values="34.195;34.195;0" keyTimes="0;0.57;1" dur="0.795s" fill="freeze" begin="0s;8182.click" /></path><path d="M31.92,24.58c0.05,0.57,0.25,2.03,0.03,2.85C30.3,33.51,26.22,43,15.42,49.25" stroke-dasharray="30.974" stroke-dashoffset="30.974"><animate attributeName="stroke-dashoffset" values="30.974" fill="freeze" begin="8182.click" /><animate attributeName="stroke-dashoffset" values="30.974;30.974;0" keyTimes="0;0.719;1" dur="1.105s" fill="freeze" begin="0s;8182.click" /></path></g></g><g><path d="M61.37,9.75c0.04,0.45,0.17,1.18-0.07,1.82c-1.51,3.93-6.17,12.05-12.46,17.41" stroke-dasharray="23.428" stroke-dashoffset="23.428"><animate attributeName="stroke-dashoffset" values="23.428" fill="freeze" begin="8182.click" /><animate attributeName="stroke-dashoffset" values="23.428;23.428;0" keyTimes="0;0.825;1" dur="1.339s" fill="freeze" begin="0s;8182.click" /></path><path d="M60.75,19.08c2,0.42,4.06,0.53,5.5,0.33c5.47-0.73,11.57-1.8,15.83-2.67c0.9-0.18,3.24-0.32,4.17-0.17" stroke-dasharray="25.777" stroke-dashoffset="25.777"><animate attributeName="stroke-dashoffset" values="25.777" fill="freeze" begin="8182.click" /><animate attributeName="stroke-dashoffset" values="25.777;25.777;0" keyTimes="0;0.838;1" dur="1.597s" fill="freeze" begin="0s;8182.click" /></path><g><path d="M74.58,20.92c-0.08,1.08-0.89,2.7-1.17,3c-1.69,1.84-6.6,5.54-13.5,7.5" stroke-dasharray="18.854" stroke-dashoffset="18.854"><animate attributeName="stroke-dashoffset" values="18.854" fill="freeze" begin="8182.click" /><animate attributeName="stroke-dashoffset" values="18.854;18.854;0" keyTimes="0;0.894;1" dur="1.786s" fill="freeze" begin="0s;8182.click" /></path><path d="M55.58,29.58c0.08,0.2,1.45,1.69,1.53,2.96c0.37,6.08,0.43,14.43,0.26,16.5c-0.07,0.83,0.83,1.16,2.02,0.66c1.19-0.5,8.53-5.12,10.02-5.79" stroke-dasharray="34.058" stroke-dashoffset="34.058"><animate attributeName="stroke-dashoffset" values="34.058" fill="freeze" begin="8182.click" /><animate attributeName="stroke-dashoffset" values="34.058;34.058;0" keyTimes="0;0.84;1" dur="2.127s" fill="freeze" begin="0s;8182.click" /></path></g><path d="M86.26,26.38c0.03,0.2,0.06,0.52-0.05,0.81c-0.67,1.72-4.55,5.49-9.85,7.8" stroke-dasharray="13.587" stroke-dashoffset="13.587"><animate attributeName="stroke-dashoffset" values="13.587" fill="freeze" begin="8182.click" /><animate attributeName="stroke-dashoffset" values="13.587;13.587;0" keyTimes="0;0.94;1" dur="2.263s" fill="freeze" begin="0s;8182.click" /></path><path d="M65.91,31.71c3.81,1.41,16.51,12.21,20,14.37c1.18,0.73,4.48,1.46,5.67,1.67" stroke-dasharray="30.596" stroke-dashoffset="30.596"><animate attributeName="stroke-dashoffset" values="30.596" fill="freeze" begin="8182.click" /><animate attributeName="stroke-dashoffset" values="30.596;30.596;0" keyTimes="0;0.881;1" dur="2.569s" fill="freeze" begin="0s;8182.click" /></path></g></g><g><path d="M33.25,57.92c0.67,0.53,1.5,2.79,1.5,3.37c0,7.21-0.08,36.08-0.17,37.3" stroke-dasharray="41.043" stroke-dashoffset="41.043"><animate attributeName="stroke-dashoffset" values="41.043" fill="freeze" begin="8182.click" /><animate attributeName="stroke-dashoffset" values="41.043;41.043;0" keyTimes="0;0.862;1" dur="2.979s" fill="freeze" begin="0s;8182.click" /></path><path d="M34.58,60.08c3.11-0.17,33.69-3.49,36-3.67c4.15-0.32,4.73,1.87,4.73,2.78c0,2.04-0.08,20.87-0.08,31.82c0,8.76-7.7,1.43-8.74,0.77" stroke-dasharray="87.073" stroke-dashoffset="87.073"><animate attributeName="stroke-dashoffset" values="87.073" fill="freeze" begin="8182.click" /><animate attributeName="stroke-dashoffset" values="87.073;87.073;0" keyTimes="0;0.82;1" dur="3.634s" fill="freeze" begin="0s;8182.click" /></path><path d="M36.46,70.87c10.49-1.02,27.63-2.57,36.85-3.13" stroke-dasharray="36.985" stroke-dashoffset="36.985"><animate attributeName="stroke-dashoffset" values="36.985" fill="freeze" begin="8182.click" /><animate attributeName="stroke-dashoffset" values="36.985;36.985;0" keyTimes="0;0.908;1" dur="4.004s" fill="freeze" begin="0s;8182.click" /></path><path d="M36.83,80.38c8.5-0.52,28.26-2.24,38.09-2.63" stroke-dasharray="38.183" stroke-dashoffset="38.183"><animate attributeName="stroke-dashoffset" values="38.183" fill="freeze" begin="8182.click" /><animate attributeName="stroke-dashoffset" values="38.183;38.183;0" keyTimes="0;0.913;1" dur="4.386s" fill="freeze" begin="0s;8182.click" /></path></g></g></g></svg>