<svg xmlns="http://www.w3.org/2000/svg" width="109" height="109" viewBox="0 0 109 109" id="818f"><g fill="none" stroke="#666" stroke-width="9" stroke-linecap="round" stroke-linejoin="round"><g><g><g><g><path d="M52.97,9.5c0.89,0.89,1.23,2.25,1.23,3.47c0,1.03-0.08,2.49-0.08,4.16" /><path d="M24.9,19.95c3.29,0.62,6.52,0.31,9.85-0.02c10.31-1.01,27.31-2.2,38.89-2.74c3.41-0.32,6.82-0.27,10.22,0.14" /></g><g><path d="M37.8,25.91c0.77,0.77,1.1,1.75,1.26,2.83c0.27,1.84,0.52,3.21,0.77,4.62c0.16,0.9,0.33,1.82,0.52,2.89" /><path d="M40.1,27.04c10.38-1.19,19.75-2.39,25.65-2.74c2.68-0.16,3.91,1.01,3.21,3.22c-0.4,1.27-0.97,2.1-1.47,3.35" /><path d="M41.08,34.28c6.56-0.61,13.94-1.21,22.05-1.84c2.15-0.17,4.34-0.33,6.59-0.5" /></g></g><g><g><path d="M20.34,40.5c-0.12,3.72-1.72,10.75-3.34,14.43" /><path d="M20.97,44.35c23.53-2.72,39.4-4.47,63.01-5.33c11.01-0.4,3.98,5.47-0.13,8.56" /></g><g><path d="M37.19,49.65c0.83,0.83,1.24,1.73,1.39,2.74c0.48,2.33,0.75,4.02,1.02,5.74c0.18,1.13,0.37,2.28,0.62,3.62" /><path d="M39.16,50.57c9.97-1.04,20.58-2.16,27.35-2.96c3.01-0.35,4.15,0.89,2.88,3.64c-0.4,0.87-1.27,2.99-1.87,4.85" /><path d="M40.96,59.4c7.28-0.64,16.25-1.77,24.66-2.42c1.74-0.13,3.45-0.24,5.12-0.33" /></g></g></g><g><path d="M34.25,65.45c0.96,0.96,1.02,2.05,1.02,2.95c0,0.72,0,14.29,0,23.48c0,3.77,0,6.76,0,7.74" /><path d="M36.54,67.91c11.79-1.13,20.05-2.59,32.47-3.59c3.65-0.29,5.51,0.97,5.5,4.55c-0.02,5.51-0.01,13.03-0.01,22.38c0,12.76-4.32,5.17-6.85,2.96" /><path d="M36.54,77.31c10.38-1.47,26.21-3.18,36.94-3.67" /><path d="M36.55,85.94c8.1-0.74,25.58-2.44,37.18-3.19" /></g></g></g><g fill="none" stroke="#000" stroke-width="5" stroke-linecap="round" stroke-linejoin="round"><path d="M52.97,9.5c0.89,0.89,1.23,2.25,1.23,3.47c0,1.03-0.08,2.49-0.08,4.16" stroke-dasharray="7.937" stroke-dashoffset="7.937"><animate attributeName="stroke-dashoffset" values="7.937;7.937;0" dur="0.079s" fill="freeze" begin="0s;818f.click" /></path><path d="M24.9,19.95c3.29,0.62,6.52,0.31,9.85-0.02c10.31-1.01,27.31-2.2,38.89-2.74c3.41-0.32,6.82-0.27,10.22,0.14" stroke-dasharray="59.117" stroke-dashoffset="59.117"><animate attributeName="stroke-dashoffset" values="59.117" fill="freeze" begin="818f.click" /><animate attributeName="stroke-dashoffset" values="59.117;59.117;0" keyTimes="0;0.118;1" dur="0.67s" fill="freeze" begin="0s;818f.click" /></path><path d="M37.8,25.91c0.77,0.77,1.1,1.75,1.26,2.83c0.27,1.84,0.52,3.21,0.77,4.62c0.16,0.9,0.33,1.82,0.52,2.89" stroke-dasharray="10.776" stroke-dashoffset="10.776"><animate attributeName="stroke-dashoffset" values="10.776" fill="freeze" begin="818f.click" /><animate attributeName="stroke-dashoffset" values="10.776;10.776;0" keyTimes="0;0.861;1" dur="0.778s" fill="freeze" begin="0s;818f.click" /></path><path d="M40.1,27.04c10.38-1.19,19.75-2.39,25.65-2.74c2.68-0.16,3.91,1.01,3.21,3.22c-0.4,1.27-0.97,2.1-1.47,3.35" stroke-dasharray="35.166" stroke-dashoffset="35.166"><animate attributeName="stroke-dashoffset" values="35.166" fill="freeze" begin="818f.click" /><animate attributeName="stroke-dashoffset" values="35.166;35.166;0" keyTimes="0;0.688;1" dur="1.13s" fill="freeze" begin="0s;818f.click" /></path><path d="M41.08,34.28c6.56-0.61,13.94-1.21,22.05-1.84c2.15-0.17,4.34-0.33,6.59-0.5" stroke-dasharray="28.737" stroke-dashoffset="28.737"><animate attributeName="stroke-dashoffset" values="28.737" fill="freeze" begin="818f.click" /><animate attributeName="stroke-dashoffset" values="28.737;28.737;0" keyTimes="0;0.797;1" dur="1.417s" fill="freeze" begin="0s;818f.click" /></path><path d="M20.34,40.5c-0.12,3.72-1.72,10.75-3.34,14.43" stroke-dasharray="14.873" stroke-dashoffset="14.873"><animate attributeName="stroke-dashoffset" values="14.873" fill="freeze" begin="818f.click" /><animate attributeName="stroke-dashoffset" values="14.873;14.873;0" keyTimes="0;0.905;1" dur="1.566s" fill="freeze" begin="0s;818f.click" /></path><path d="M20.97,44.35c23.53-2.72,39.4-4.47,63.01-5.33c11.01-0.4,3.98,5.47-0.13,8.56" stroke-dasharray="79.176" stroke-dashoffset="79.176"><animate attributeName="stroke-dashoffset" values="79.176" fill="freeze" begin="818f.click" /><animate attributeName="stroke-dashoffset" values="79.176;79.176;0" keyTimes="0;0.725;1" dur="2.161s" fill="freeze" begin="0s;818f.click" /></path><path d="M37.19,49.65c0.83,0.83,1.24,1.73,1.39,2.74c0.48,2.33,0.75,4.02,1.02,5.74c0.18,1.13,0.37,2.28,0.62,3.62" stroke-dasharray="12.633" stroke-dashoffset="12.633"><animate attributeName="stroke-dashoffset" values="12.633" fill="freeze" begin="818f.click" /><animate attributeName="stroke-dashoffset" values="12.633;12.633;0" keyTimes="0;0.945;1" dur="2.287s" fill="freeze" begin="0s;818f.click" /></path><path d="M39.16,50.57c9.97-1.04,20.58-2.16,27.35-2.96c3.01-0.35,4.15,0.89,2.88,3.64c-0.4,0.87-1.27,2.99-1.87,4.85" stroke-dasharray="39.091" stroke-dashoffset="39.091"><animate attributeName="stroke-dashoffset" values="39.091" fill="freeze" begin="818f.click" /><animate attributeName="stroke-dashoffset" values="39.091;39.091;0" keyTimes="0;0.854;1" dur="2.678s" fill="freeze" begin="0s;818f.click" /></path><path d="M40.96,59.4c7.28-0.64,16.25-1.77,24.66-2.42c1.74-0.13,3.45-0.24,5.12-0.33" stroke-dasharray="29.911" stroke-dashoffset="29.911"><animate attributeName="stroke-dashoffset" values="29.911" fill="freeze" begin="818f.click" /><animate attributeName="stroke-dashoffset" values="29.911;29.911;0" keyTimes="0;0.9;1" dur="2.977s" fill="freeze" begin="0s;818f.click" /></path><path d="M34.25,65.45c0.96,0.96,1.02,2.05,1.02,2.95c0,0.72,0,14.29,0,23.48c0,3.77,0,6.76,0,7.74" stroke-dasharray="34.438" stroke-dashoffset="34.438"><animate attributeName="stroke-dashoffset" values="34.438" fill="freeze" begin="818f.click" /><animate attributeName="stroke-dashoffset" values="34.438;34.438;0" keyTimes="0;0.896;1" dur="3.321s" fill="freeze" begin="0s;818f.click" /></path><path d="M36.54,67.91c11.79-1.13,20.05-2.59,32.47-3.59c3.65-0.29,5.51,0.97,5.5,4.55c-0.02,5.51-0.01,13.03-0.01,22.38c0,12.76-4.32,5.17-6.85,2.96" stroke-dasharray="78.031" stroke-dashoffset="78.031"><animate attributeName="stroke-dashoffset" values="78.031" fill="freeze" begin="818f.click" /><animate attributeName="stroke-dashoffset" values="78.031;78.031;0" keyTimes="0;0.85;1" dur="3.908s" fill="freeze" begin="0s;818f.click" /></path><path d="M36.54,77.31c10.38-1.47,26.21-3.18,36.94-3.67" stroke-dasharray="37.134" stroke-dashoffset="37.134"><animate attributeName="stroke-dashoffset" values="37.134" fill="freeze" begin="818f.click" /><animate attributeName="stroke-dashoffset" values="37.134;37.134;0" keyTimes="0;0.913;1" dur="4.279s" fill="freeze" begin="0s;818f.click" /></path><path d="M36.55,85.94c8.1-0.74,25.58-2.44,37.18-3.19" stroke-dasharray="37.319" stroke-dashoffset="37.319"><animate attributeName="stroke-dashoffset" values="37.319" fill="freeze" begin="818f.click" /><animate attributeName="stroke-dashoffset" values="37.319;37.319;0" keyTimes="0;0.92;1" dur="4.652s" fill="freeze" begin="0s;818f.click" /></path></g></svg>