<svg xmlns="http://www.w3.org/2000/svg" width="109" height="109" viewBox="0 0 109 109" id="819d"><g fill="none" stroke="#666" stroke-width="9" stroke-linecap="round" stroke-linejoin="round"><g><g><path d="M17.47,21.24c0.52,0.95,0.88,1.88,1.05,2.8c0.17,0.92,0.15,25.9-0.41,33.63c-0.8,11-1.61,22.08-9.11,34.72" /><path d="M19.57,22.31c2.1-0.06,12.15-2.34,13.71-2.46c2.8-0.23,3.5,1.31,3.5,2.67c0,3.23-0.53,46.22-0.53,64.55c0,12.61-5.91,3.55-7.7,2.04" /><path d="M19.57,41.2c4.61-0.35,13.03-2.04,17.08-2.07" /><path d="M19.51,58.15c3.79-0.08,11.64-1.28,16.79-1.7" /></g><g><g><path d="M45.41,26.62c1.11,0.36,2.37,0.48,3.64,0.36c6.5-0.59,25.85-3.65,35.67-4.35c1.26-0.09,2.06,0.06,3.33,0.32" /><path d="M65.49,13.25c0.88,0.52,1.59,2.32,1.59,3.4c0,10.99,0.5,17.31,0.32,23.85" /><path d="M66.95,24.19c-4.02,6.79-14.78,17.17-23.14,21.01" /><path d="M69.5,28.75c8.25,2,17.25,7.5,22,14.25" /></g><path d="M64.74,44.25c0.06,0.54,0.22,1.43-0.12,2.15c-2.22,4.65-9.73,14.18-21.65,20.6" /><path d="M65.49,46.24c4.16,3.54,22.09,15.09,26.68,17.68c1.56,0.88,3.56,1.25,5.11,1.5" /><g><path d="M67.3,56.58c0.07,0.39,0.96,2.04,1.03,4.53c0.33,11.96-0.21,23.42-0.21,27.49c0,9.64-4.42,2.23-5.65,1.21" /><path d="M52.56,65.64c1.94,1.13,5,4.64,5.48,6.39" /><path d="M46.1,85.24c1.41,1.23,2.58,1.76,3.99,0.71c0.83-0.62,7.5-6.16,11.02-9.16" /><path d="M81.33,63.18c0.02,0.19,0.04,0.5-0.04,0.77c-0.44,1.63-2.98,5.21-6.45,7.4" /><path d="M75.21,76.32c3.35,1.12,12.05,9.88,13.33,13.45" /></g></g></g></g><g fill="none" stroke="#000" stroke-width="5" stroke-linecap="round" stroke-linejoin="round"><g><g><path d="M17.47,21.24c0.52,0.95,0.88,1.88,1.05,2.8c0.17,0.92,0.15,25.9-0.41,33.63c-0.8,11-1.61,22.08-9.11,34.72" stroke-dasharray="72.93" stroke-dashoffset="72.93"><animate id="0" attributeName="stroke-dashoffset" values="72.93;0" dur="0.55s" fill="freeze" begin="0s;819d.click" /></path><path d="M19.57,22.31c2.1-0.06,12.15-2.34,13.71-2.46c2.8-0.23,3.5,1.31,3.5,2.67c0,3.23-0.53,46.22-0.53,64.55c0,12.61-5.91,3.55-7.7,2.04" stroke-dasharray="98.38" stroke-dashoffset="98.38"><animate attributeName="stroke-dashoffset" values="98.38" fill="freeze" begin="819d.click" /><animate id="1" attributeName="stroke-dashoffset" values="98.38;0" dur="0.74s" fill="freeze" begin="0.end" /></path><path d="M19.57,41.2c4.61-0.35,13.03-2.04,17.08-2.07" stroke-dasharray="17.21" stroke-dashoffset="17.21"><animate attributeName="stroke-dashoffset" values="17.21" fill="freeze" begin="819d.click" /><animate id="2" attributeName="stroke-dashoffset" values="17.21;0" dur="0.17s" fill="freeze" begin="1.end" /></path><path d="M19.51,58.15c3.79-0.08,11.64-1.28,16.79-1.7" stroke-dasharray="16.88" stroke-dashoffset="16.88"><animate attributeName="stroke-dashoffset" values="16.88" fill="freeze" begin="819d.click" /><animate id="3" attributeName="stroke-dashoffset" values="16.88;0" dur="0.17s" fill="freeze" begin="2.end" /></path></g><g><g><path d="M45.41,26.62c1.11,0.36,2.37,0.48,3.64,0.36c6.5-0.59,25.85-3.65,35.67-4.35c1.26-0.09,2.06,0.06,3.33,0.32" stroke-dasharray="42.98" stroke-dashoffset="42.98"><animate attributeName="stroke-dashoffset" values="42.98" fill="freeze" begin="819d.click" /><animate id="4" attributeName="stroke-dashoffset" values="42.98;0" dur="0.43s" fill="freeze" begin="3.end" /></path><path d="M65.49,13.25c0.88,0.52,1.59,2.32,1.59,3.4c0,10.99,0.5,17.31,0.32,23.85" stroke-dasharray="27.73" stroke-dashoffset="27.73"><animate attributeName="stroke-dashoffset" values="27.73" fill="freeze" begin="819d.click" /><animate id="5" attributeName="stroke-dashoffset" values="27.73;0" dur="0.28s" fill="freeze" begin="4.end" /></path><path d="M66.95,24.19c-4.02,6.79-14.78,17.17-23.14,21.01" stroke-dasharray="31.6" stroke-dashoffset="31.6"><animate attributeName="stroke-dashoffset" values="31.6" fill="freeze" begin="819d.click" /><animate id="6" attributeName="stroke-dashoffset" values="31.6;0" dur="0.32s" fill="freeze" begin="5.end" /></path><path d="M69.5,28.75c8.25,2,17.25,7.5,22,14.25" stroke-dasharray="26.72" stroke-dashoffset="26.72"><animate attributeName="stroke-dashoffset" values="26.72" fill="freeze" begin="819d.click" /><animate id="7" attributeName="stroke-dashoffset" values="26.72;0" dur="0.27s" fill="freeze" begin="6.end" /></path></g><path d="M64.74,44.25c0.06,0.54,0.22,1.43-0.12,2.15c-2.22,4.65-9.73,14.18-21.65,20.6" stroke-dasharray="32.47" stroke-dashoffset="32.47"><animate attributeName="stroke-dashoffset" values="32.47" fill="freeze" begin="819d.click" /><animate id="8" attributeName="stroke-dashoffset" values="32.47;0" dur="0.32s" fill="freeze" begin="7.end" /></path><path d="M65.49,46.24c4.16,3.54,22.09,15.09,26.68,17.68c1.56,0.88,3.56,1.25,5.11,1.5" stroke-dasharray="37.38" stroke-dashoffset="37.38"><animate attributeName="stroke-dashoffset" values="37.38" fill="freeze" begin="819d.click" /><animate id="9" attributeName="stroke-dashoffset" values="37.38;0" dur="0.37s" fill="freeze" begin="8.end" /></path><g><path d="M67.3,56.58c0.07,0.39,0.96,2.04,1.03,4.53c0.33,11.96-0.21,23.42-0.21,27.49c0,9.64-4.42,2.23-5.65,1.21" stroke-dasharray="43.3" stroke-dashoffset="43.3"><animate attributeName="stroke-dashoffset" values="43.3" fill="freeze" begin="819d.click" /><animate id="10" attributeName="stroke-dashoffset" values="43.3;0" dur="0.43s" fill="freeze" begin="9.end" /></path><path d="M52.56,65.64c1.94,1.13,5,4.64,5.48,6.39" stroke-dasharray="8.54" stroke-dashoffset="8.54"><animate attributeName="stroke-dashoffset" values="8.54" fill="freeze" begin="819d.click" /><animate id="11" attributeName="stroke-dashoffset" values="8.54;0" dur="0.09s" fill="freeze" begin="10.end" /></path><path d="M46.1,85.24c1.41,1.23,2.58,1.76,3.99,0.71c0.83-0.62,7.5-6.16,11.02-9.16" stroke-dasharray="18.82" stroke-dashoffset="18.82"><animate attributeName="stroke-dashoffset" values="18.82" fill="freeze" begin="819d.click" /><animate id="12" attributeName="stroke-dashoffset" values="18.82;0" dur="0.19s" fill="freeze" begin="11.end" /></path><path d="M81.33,63.18c0.02,0.19,0.04,0.5-0.04,0.77c-0.44,1.63-2.98,5.21-6.45,7.4" stroke-dasharray="10.75" stroke-dashoffset="10.75"><animate attributeName="stroke-dashoffset" values="10.75" fill="freeze" begin="819d.click" /><animate id="13" attributeName="stroke-dashoffset" values="10.75;0" dur="0.11s" fill="freeze" begin="12.end" /></path><path d="M75.21,76.32c3.35,1.12,12.05,9.88,13.33,13.45" stroke-dasharray="19.19" stroke-dashoffset="19.19"><animate attributeName="stroke-dashoffset" values="19.19" fill="freeze" begin="819d.click" /><animate id="14" attributeName="stroke-dashoffset" values="19.19;0" dur="0.19s" fill="freeze" begin="13.end" /></path></g></g></g></g></svg>