<svg xmlns="http://www.w3.org/2000/svg" width="109" height="109" viewBox="0 0 109 109" id="81c6"><g fill="none" stroke="#666" stroke-width="6" stroke-linecap="round" stroke-linejoin="round"><g><g><path d="M18.59,19.79c0.81,0.81,0.99,1.94,1,2.92c0.28,26.17,1.16,53.54-9.59,72.13" /><path d="M20.34,21.91c5.66-1.29,8.91-2.04,12.85-2.56c2.66-0.36,3.34,0.65,3.34,2.77c0,3.36,0,45.59,0,64.67c0,13.12-5.64,3.7-7.35,2.12" /><path d="M20.34,41.57c5.78-1.07,9.37-1.62,14.91-2.07" /><path d="M20.04,60.51c5.21-0.64,9.96-1.14,16.03-1.77" /></g><g><g><g><g><path d="M63.6,13.95c1.04,1.04,1.53,2.43,1.53,3.49c0,3.81-0.01,3.92-0.01,7.18" /><path d="M47.92,27.48c2.05,0.16,4.08,0.05,6.1-0.33c6.72-0.86,17.73-2.52,24.73-3.42c2.22-0.29,4.33-0.46,6.54-0.04" /></g><g><path d="M54,31.12c3.32,2.91,4.64,5.84,5.12,8" /><path d="M76,27.75c0.17,1.15,0,1.88-0.31,2.76c-1.14,3.27-2.72,6.31-3.82,8.11" /><path d="M42.84,44.43c2.75,0.3,5.47,0.15,8.17-0.43c12.53-1.8,24.01-3.84,35.5-5.12c2.73-0.38,5.46-0.52,8.22-0.4" /></g></g><g><path d="M50.55,52.76c0.72,0.72,1.01,2.31,1.12,2.97c0.49,2.98,1.7,10.43,2.39,14.78c0.32,1.72,0.55,3.45,0.68,5.19" /><path d="M52.34,53.85c2.31-0.4,22.91-3.85,26.83-4.4c3.17-0.44,4.45,1.28,4.05,4.18c-0.46,3.38-1.23,8.78-2.1,13.64c-0.3,1.71-0.62,3.34-0.94,4.8" /><path d="M53.98,63.19c3.12-0.44,24.17-3.51,27.7-4" /><path d="M55.75,72.58c4.61-0.65,17.91-2.11,23.87-2.94" /></g></g><g><path d="M47.91,83.34c0.23,1.59-2.24,8.99-4.06,11.88" /><path d="M55.92,81.81c7.08,10.44,12.6,13.7,30.06,14.46c10.29,0.45,9.52-2.52,1.31-7.39" /><path d="M70.88,79.13c2.37,4.37,5.11,4.84,5.79,1.85" /><path d="M90.31,74.5c3.51,1.61,6.01,3.93,9.02,8.91" /></g></g></g></g><g fill="none" stroke="#000" stroke-width="3" stroke-linecap="round" stroke-linejoin="round"><path d="M18.59,19.79c0.81,0.81,0.99,1.94,1,2.92c0.28,26.17,1.16,53.54-9.59,72.13" stroke-dasharray="76.773" stroke-dashoffset="76.773"><animate attributeName="stroke-dashoffset" values="76.773;76.773;0" dur="0.577s" fill="freeze" begin="0s;81c6.click" /></path><path d="M20.34,21.91c5.66-1.29,8.91-2.04,12.85-2.56c2.66-0.36,3.34,0.65,3.34,2.77c0,3.36,0,45.59,0,64.67c0,13.12-5.64,3.7-7.35,2.12" stroke-dasharray="97.979" stroke-dashoffset="97.979"><animate attributeName="stroke-dashoffset" values="97.979" fill="freeze" begin="81c6.click" /><animate attributeName="stroke-dashoffset" values="97.979;97.979;0" keyTimes="0;0.439;1" dur="1.314s" fill="freeze" begin="0s;81c6.click" /></path><path d="M20.34,41.57c5.78-1.07,9.37-1.62,14.91-2.07" stroke-dasharray="15.062" stroke-dashoffset="15.062"><animate attributeName="stroke-dashoffset" values="15.062" fill="freeze" begin="81c6.click" /><animate attributeName="stroke-dashoffset" values="15.062;15.062;0" keyTimes="0;0.897;1" dur="1.465s" fill="freeze" begin="0s;81c6.click" /></path><path d="M20.04,60.51c5.21-0.64,9.96-1.14,16.03-1.77" stroke-dasharray="16.129" stroke-dashoffset="16.129"><animate attributeName="stroke-dashoffset" values="16.129" fill="freeze" begin="81c6.click" /><animate attributeName="stroke-dashoffset" values="16.129;16.129;0" keyTimes="0;0.901;1" dur="1.626s" fill="freeze" begin="0s;81c6.click" /></path><path d="M63.6,13.95c1.04,1.04,1.53,2.43,1.53,3.49c0,3.81-0.01,3.92-0.01,7.18" stroke-dasharray="11.084" stroke-dashoffset="11.084"><animate attributeName="stroke-dashoffset" values="11.084" fill="freeze" begin="81c6.click" /><animate attributeName="stroke-dashoffset" values="11.084;11.084;0" keyTimes="0;0.936;1" dur="1.737s" fill="freeze" begin="0s;81c6.click" /></path><path d="M47.92,27.48c2.05,0.16,4.08,0.05,6.1-0.33c6.72-0.86,17.73-2.52,24.73-3.42c2.22-0.29,4.33-0.46,6.54-0.04" stroke-dasharray="37.663" stroke-dashoffset="37.663"><animate attributeName="stroke-dashoffset" values="37.663" fill="freeze" begin="81c6.click" /><animate attributeName="stroke-dashoffset" values="37.663;37.663;0" keyTimes="0;0.822;1" dur="2.114s" fill="freeze" begin="0s;81c6.click" /></path><path d="M54,31.12c3.32,2.91,4.64,5.84,5.12,8" stroke-dasharray="9.659" stroke-dashoffset="9.659"><animate attributeName="stroke-dashoffset" values="9.659" fill="freeze" begin="81c6.click" /><animate attributeName="stroke-dashoffset" values="9.659;9.659;0" keyTimes="0;0.956;1" dur="2.211s" fill="freeze" begin="0s;81c6.click" /></path><path d="M76,27.75c0.17,1.15,0,1.88-0.31,2.76c-1.14,3.27-2.72,6.31-3.82,8.11" stroke-dasharray="11.792" stroke-dashoffset="11.792"><animate attributeName="stroke-dashoffset" values="11.792" fill="freeze" begin="81c6.click" /><animate attributeName="stroke-dashoffset" values="11.792;11.792;0" keyTimes="0;0.949;1" dur="2.329s" fill="freeze" begin="0s;81c6.click" /></path><path d="M42.84,44.43c2.75,0.3,5.47,0.15,8.17-0.43c12.53-1.8,24.01-3.84,35.5-5.12c2.73-0.38,5.46-0.52,8.22-0.4" stroke-dasharray="52.329" stroke-dashoffset="52.329"><animate attributeName="stroke-dashoffset" values="52.329" fill="freeze" begin="81c6.click" /><animate attributeName="stroke-dashoffset" values="52.329;52.329;0" keyTimes="0;0.817;1" dur="2.852s" fill="freeze" begin="0s;81c6.click" /></path><path d="M50.55,52.76c0.72,0.72,1.01,2.31,1.12,2.97c0.49,2.98,1.7,10.43,2.39,14.78c0.32,1.72,0.55,3.45,0.68,5.19" stroke-dasharray="23.428" stroke-dashoffset="23.428"><animate attributeName="stroke-dashoffset" values="23.428" fill="freeze" begin="81c6.click" /><animate attributeName="stroke-dashoffset" values="23.428;23.428;0" keyTimes="0;0.924;1" dur="3.086s" fill="freeze" begin="0s;81c6.click" /></path><path d="M52.34,53.85c2.31-0.4,22.91-3.85,26.83-4.4c3.17-0.44,4.45,1.28,4.05,4.18c-0.46,3.38-1.23,8.78-2.1,13.64c-0.3,1.71-0.62,3.34-0.94,4.8" stroke-dasharray="53.014" stroke-dashoffset="53.014"><animate attributeName="stroke-dashoffset" values="53.014" fill="freeze" begin="81c6.click" /><animate attributeName="stroke-dashoffset" values="53.014;53.014;0" keyTimes="0;0.853;1" dur="3.616s" fill="freeze" begin="0s;81c6.click" /></path><path d="M53.98,63.19c3.12-0.44,24.17-3.51,27.7-4" stroke-dasharray="27.988" stroke-dashoffset="27.988"><animate attributeName="stroke-dashoffset" values="27.988" fill="freeze" begin="81c6.click" /><animate attributeName="stroke-dashoffset" values="27.988;27.988;0" keyTimes="0;0.928;1" dur="3.896s" fill="freeze" begin="0s;81c6.click" /></path><path d="M55.75,72.58c4.61-0.65,17.91-2.11,23.87-2.94" stroke-dasharray="24.052" stroke-dashoffset="24.052"><animate attributeName="stroke-dashoffset" values="24.052" fill="freeze" begin="81c6.click" /><animate attributeName="stroke-dashoffset" values="24.052;24.052;0" keyTimes="0;0.942;1" dur="4.137s" fill="freeze" begin="0s;81c6.click" /></path><path d="M47.91,83.34c0.23,1.59-2.24,8.99-4.06,11.88" stroke-dasharray="12.647" stroke-dashoffset="12.647"><animate attributeName="stroke-dashoffset" values="12.647" fill="freeze" begin="81c6.click" /><animate attributeName="stroke-dashoffset" values="12.647;12.647;0" keyTimes="0;0.97;1" dur="4.263s" fill="freeze" begin="0s;81c6.click" /></path><path d="M55.92,81.81c7.08,10.44,12.6,13.7,30.06,14.46c10.29,0.45,9.52-2.52,1.31-7.39" stroke-dasharray="52.106" stroke-dashoffset="52.106"><animate attributeName="stroke-dashoffset" values="52.106" fill="freeze" begin="81c6.click" /><animate attributeName="stroke-dashoffset" values="52.106;52.106;0" keyTimes="0;0.891;1" dur="4.784s" fill="freeze" begin="0s;81c6.click" /></path><path d="M70.88,79.13c2.37,4.37,5.11,4.84,5.79,1.85" stroke-dasharray="8.542" stroke-dashoffset="8.542"><animate attributeName="stroke-dashoffset" values="8.542" fill="freeze" begin="81c6.click" /><animate attributeName="stroke-dashoffset" values="8.542;8.542;0" keyTimes="0;0.983;1" dur="4.869s" fill="freeze" begin="0s;81c6.click" /></path><path d="M90.31,74.5c3.51,1.61,6.01,3.93,9.02,8.91" stroke-dasharray="12.897" stroke-dashoffset="12.897"><animate attributeName="stroke-dashoffset" values="12.897" fill="freeze" begin="81c6.click" /><animate attributeName="stroke-dashoffset" values="12.897;12.897;0" keyTimes="0;0.974;1" dur="4.998s" fill="freeze" begin="0s;81c6.click" /></path></g></svg>