<svg xmlns="http://www.w3.org/2000/svg" viewBox="0 0 109 109" id="81c8"><g fill="none" stroke="#666" stroke-width="6" stroke-linecap="round" stroke-linejoin="round"><g><g><path d="M16.92,18.75c0.83,1,1.47,3.21,1.67,4.17c0.2,0.96-0.21,26.08-0.83,34.17c-0.89,11.51,0.02,19.24-7.83,36.4" /><path d="M19.2,20.82c3.3-0.82,10.88-1.77,12.41-1.89c2.74-0.22,3.42,1.27,3.42,2.59c0,3.13-0.04,43.86-0.04,61.66c0,12.23-3.33,6.37-5.08,4.91" /><path d="M18.7,39.92c4.28-0.37,12.1-1.64,15.86-1.67" /><path d="M18.25,56.75c3.32-0.11,10.99-0.74,15.5-1.33" /></g><g><g><path d="M43.42,23.08c0.9,0.35,4.53,0.16,5.44,0.09c8.29-0.64,31.64-3.17,41.74-3.99c1.5-0.12,3.57-0.11,4.32,0.06" /><path d="M53.75,12.25c1.75,0.5,2.53,1.56,2.67,2.17c1.3,5.67,1.83,9.83,2.24,13.73" /><path d="M79.73,9.6c0.23,0.85,0.53,1.48,0.27,2.53c-1.49,6.14-2.17,9.21-3.8,14.99" /></g><g><g><g p7:partial xmlns:p7="http://kanjivg.tagaini.net"><g><path d="M48.08,33.08c0.34,0.35,2.19,1.87,2.29,2.34c1.38,7.08,2.67,11.77,3.62,18.61" /><path d="M49.75,34.42c8.97-0.81,27.61-3.52,35.9-4.05c2.47-0.16,2.96,1.43,2.84,2.32c-0.46,3.24-2.95,14.31-4.07,19.73" /><path d="M53.08,42.92c5.05-0.45,30.61-3.04,33.17-3.17" /><path d="M55.25,52.25c8.37-0.43,20.43-1.97,28.83-2.17" /></g></g><g><g><g><path d="M57.31,55.54c0.04,0.47,0.2,1.25-0.08,1.89c-2.16,4.82-7.08,11.9-15.31,18.07" /></g><path d="M56.9,63.28c0.89,0.42,2.14,0.56,3.58,0.28c1.43-0.28,26.62-3.49,30.18-3.82c2.21-0.21,3.75,1.1,3.37,4.03C92.72,73.89,90.25,83,85.25,94.08c-1.76,3.9-4.97,4.74-7.31,0.6" /></g><g><g><path d="M67.7,66.79c0.3,0.24-0.04,1.49-0.25,1.95c-2.08,4.59-4.15,8.46-11.59,13.99" /><path d="M67.8,73.76c2.91,1.2,6.63,4.41,8.05,7.45" /></g><path d="M50.75,71.75c0.59,0.35,1.47,1.99,1.47,2.71c0,2.79-0.42,5.29-0.42,11.19c0,1.44,0.48,2.36,2.11,2.2c3.79-0.37,15.39-1.45,22.01-1.93c1.44-0.11,3.62,0.33,4.33,0.33" /></g></g></g></g></g></g></g><g fill="none" stroke="#000" stroke-width="3" stroke-linecap="round" stroke-linejoin="round"><path d="M16.92,18.75c0.83,1,1.47,3.21,1.67,4.17c0.2,0.96-0.21,26.08-0.83,34.17c-0.89,11.51,0.02,19.24-7.83,36.4" stroke-dasharray="76.263" stroke-dashoffset="76.263"><animate attributeName="stroke-dashoffset" values="76.263;76.263;0" dur="0.573s" fill="freeze" begin="0s;81c8.click" /></path><path d="M19.2,20.82c3.3-0.82,10.88-1.77,12.41-1.89c2.74-0.22,3.42,1.27,3.42,2.59c0,3.13-0.04,43.86-0.04,61.66c0,12.23-3.33,6.37-5.08,4.91" stroke-dasharray="91.743" stroke-dashoffset="91.743"><animate attributeName="stroke-dashoffset" values="91.743" fill="freeze" begin="81c8.click" /><animate attributeName="stroke-dashoffset" values="91.743;91.743;0" keyTimes="0;0.454;1" dur="1.263s" fill="freeze" begin="0s;81c8.click" /></path><path d="M18.7,39.92c4.28-0.37,12.1-1.64,15.86-1.67" stroke-dasharray="15.954" stroke-dashoffset="15.954"><animate attributeName="stroke-dashoffset" values="15.954" fill="freeze" begin="81c8.click" /><animate attributeName="stroke-dashoffset" values="15.954;15.954;0" keyTimes="0;0.888;1" dur="1.423s" fill="freeze" begin="0s;81c8.click" /></path><path d="M18.25,56.75c3.32-0.11,10.99-0.74,15.5-1.33" stroke-dasharray="15.562" stroke-dashoffset="15.562"><animate attributeName="stroke-dashoffset" values="15.562" fill="freeze" begin="81c8.click" /><animate attributeName="stroke-dashoffset" values="15.562;15.562;0" keyTimes="0;0.901;1" dur="1.579s" fill="freeze" begin="0s;81c8.click" /></path><path d="M43.42,23.08c0.9,0.35,4.53,0.16,5.44,0.09c8.29-0.64,31.64-3.17,41.74-3.99c1.5-0.12,3.57-0.11,4.32,0.06" stroke-dasharray="51.722" stroke-dashoffset="51.722"><animate attributeName="stroke-dashoffset" values="51.722" fill="freeze" begin="81c8.click" /><animate attributeName="stroke-dashoffset" values="51.722;51.722;0" keyTimes="0;0.753;1" dur="2.096s" fill="freeze" begin="0s;81c8.click" /></path><path d="M53.75,12.25c1.75,0.5,2.53,1.56,2.67,2.17c1.3,5.67,1.83,9.83,2.24,13.73" stroke-dasharray="17.505" stroke-dashoffset="17.505"><animate attributeName="stroke-dashoffset" values="17.505" fill="freeze" begin="81c8.click" /><animate attributeName="stroke-dashoffset" values="17.505;17.505;0" keyTimes="0;0.923;1" dur="2.271s" fill="freeze" begin="0s;81c8.click" /></path><path d="M79.73,9.6c0.23,0.85,0.53,1.48,0.27,2.53c-1.49,6.14-2.17,9.21-3.8,14.99" stroke-dasharray="18.05" stroke-dashoffset="18.05"><animate attributeName="stroke-dashoffset" values="18.05" fill="freeze" begin="81c8.click" /><animate attributeName="stroke-dashoffset" values="18.05;18.05;0" keyTimes="0;0.926;1" dur="2.452s" fill="freeze" begin="0s;81c8.click" /></path><path d="M48.08,33.08c0.34,0.35,2.19,1.87,2.29,2.34c1.38,7.08,2.67,11.77,3.62,18.61" stroke-dasharray="22.256" stroke-dashoffset="22.256"><animate attributeName="stroke-dashoffset" values="22.256" fill="freeze" begin="81c8.click" /><animate attributeName="stroke-dashoffset" values="22.256;22.256;0" keyTimes="0;0.917;1" dur="2.675s" fill="freeze" begin="0s;81c8.click" /></path><path d="M49.75,34.42c8.97-0.81,27.61-3.52,35.9-4.05c2.47-0.16,2.96,1.43,2.84,2.32c-0.46,3.24-2.95,14.31-4.07,19.73" stroke-dasharray="60.548" stroke-dashoffset="60.548"><animate attributeName="stroke-dashoffset" values="60.548" fill="freeze" begin="81c8.click" /><animate attributeName="stroke-dashoffset" values="60.548;60.548;0" keyTimes="0;0.855;1" dur="3.13s" fill="freeze" begin="0s;81c8.click" /></path><path d="M53.08,42.92c5.05-0.45,30.61-3.04,33.17-3.17" stroke-dasharray="33.323" stroke-dashoffset="33.323"><animate attributeName="stroke-dashoffset" values="33.323" fill="freeze" begin="81c8.click" /><animate attributeName="stroke-dashoffset" values="33.323;33.323;0" keyTimes="0;0.904;1" dur="3.463s" fill="freeze" begin="0s;81c8.click" /></path><path d="M55.25,52.25c8.37-0.43,20.43-1.97,28.83-2.17" stroke-dasharray="28.917" stroke-dashoffset="28.917"><animate attributeName="stroke-dashoffset" values="28.917" fill="freeze" begin="81c8.click" /><animate attributeName="stroke-dashoffset" values="28.917;28.917;0" keyTimes="0;0.923;1" dur="3.752s" fill="freeze" begin="0s;81c8.click" /></path><path d="M57.31,55.54c0.04,0.47,0.2,1.25-0.08,1.89c-2.16,4.82-7.08,11.9-15.31,18.07" stroke-dasharray="25.833" stroke-dashoffset="25.833"><animate attributeName="stroke-dashoffset" values="25.833" fill="freeze" begin="81c8.click" /><animate attributeName="stroke-dashoffset" values="25.833;25.833;0" keyTimes="0;0.936;1" dur="4.01s" fill="freeze" begin="0s;81c8.click" /></path><path d="M56.9,63.28c0.89,0.42,2.14,0.56,3.58,0.28c1.43-0.28,26.62-3.49,30.18-3.82c2.21-0.21,3.75,1.1,3.37,4.03C92.72,73.89,90.25,83,85.25,94.08c-1.76,3.9-4.97,4.74-7.31,0.6" stroke-dasharray="82.019" stroke-dashoffset="82.019"><animate attributeName="stroke-dashoffset" values="82.019" fill="freeze" begin="81c8.click" /><animate attributeName="stroke-dashoffset" values="82.019;82.019;0" keyTimes="0;0.867;1" dur="4.627s" fill="freeze" begin="0s;81c8.click" /></path><path d="M67.7,66.79c0.3,0.24-0.04,1.49-0.25,1.95c-2.08,4.59-4.15,8.46-11.59,13.99" stroke-dasharray="20.45" stroke-dashoffset="20.45"><animate attributeName="stroke-dashoffset" values="20.45" fill="freeze" begin="81c8.click" /><animate attributeName="stroke-dashoffset" values="20.45;20.45;0" keyTimes="0;0.958;1" dur="4.832s" fill="freeze" begin="0s;81c8.click" /></path><path d="M67.8,73.76c2.91,1.2,6.63,4.41,8.05,7.45" stroke-dasharray="11.172" stroke-dashoffset="11.172"><animate attributeName="stroke-dashoffset" values="11.172" fill="freeze" begin="81c8.click" /><animate attributeName="stroke-dashoffset" values="11.172;11.172;0" keyTimes="0;0.977;1" dur="4.944s" fill="freeze" begin="0s;81c8.click" /></path><path d="M50.75,71.75c0.59,0.35,1.47,1.99,1.47,2.71c0,2.79-0.42,5.29-0.42,11.19c0,1.44,0.48,2.36,2.11,2.2c3.79-0.37,15.39-1.45,22.01-1.93c1.44-0.11,3.62,0.33,4.33,0.33" stroke-dasharray="44.404" stroke-dashoffset="44.404"><animate attributeName="stroke-dashoffset" values="44.404" fill="freeze" begin="81c8.click" /><animate attributeName="stroke-dashoffset" values="44.404;44.404;0" keyTimes="0;0.918;1" dur="5.388s" fill="freeze" begin="0s;81c8.click" /></path></g></svg>