<svg xmlns="http://www.w3.org/2000/svg" width="109" height="109" viewBox="0 0 109 109" id="81f4"><g fill="none" stroke="#666" stroke-width="6" stroke-linecap="round" stroke-linejoin="round"><g><g p4:phon="至" xmlns:p4="http://kanjivg.tagaini.net"><path d="M13,26.44c1.56,0.79,4.41,0.34,6.03,0.13c7.15-0.92,16.3-2.5,24.36-3.1c1.77-0.13,3.64-0.16,5.37,0.37" /><g><path d="M31.67,28c0.45,0.88,0.4,1.8-0.29,2.79c-3.88,5.59-7.76,11.09-12.98,17.19c-1.48,1.74-0.97,2.62,1.24,2c8.35-2.35,15.72-4.73,25.39-7.64" /><path d="M40.15,34.99c3.08,2.17,7.97,8.91,8.74,12.28" /></g><g><path d="M15.44,66.12c1.84,0.22,3.61,0.29,5.45,0.13c6.63-0.61,15.37-2.57,21.14-3.35c0.97-0.13,2.35-0.15,3.55,0" /><path d="M31.19,53.28c0.89,0.89,1.28,1.97,1.28,3.78c0,10.44-0.1,20.67-0.1,24.06" /><path d="M14.1,89.67c1.15,0.83,2.4,0.96,4.05,0.12c9.18-4.63,16.59-8.54,29.08-15.17" /></g></g><g><g><path d="M64,19.39c0.04,0.82,0.21,2.16-0.08,3.31c-2.13,8.33-6.93,22.45-14.3,32.5" /><path d="M60.37,41.53c1.35,0.29,3.12,0.32,3.85,0.21c4.56-0.67,12.91-2.24,18.43-3.63c1.47-0.37,3.41-0.73,4.91-0.3" /></g><g><g><path d="M74.27,44.71c0.57,1.17,0.63,2.25,0.03,4.38C68.89,68.46,58.38,83.88,38.72,92.5" /></g><path d="M54.43,54.67c3.11,0.07,21.64,23.59,32.87,33.29c2.21,1.9,4.24,3.62,6.84,4.92" /></g></g></g></g><g fill="none" stroke="#000" stroke-width="3" stroke-linecap="round" stroke-linejoin="round"><path d="M13,26.44c1.56,0.79,4.41,0.34,6.03,0.13c7.15-0.92,16.3-2.5,24.36-3.1c1.77-0.13,3.64-0.16,5.37,0.37" stroke-dasharray="36.085" stroke-dashoffset="36.085"><animate attributeName="stroke-dashoffset" values="36.085;36.085;0" dur="0.361s" fill="freeze" begin="0s;81f4.click" /></path><path d="M31.67,28c0.45,0.88,0.4,1.8-0.29,2.79c-3.88,5.59-7.76,11.09-12.98,17.19c-1.48,1.74-0.97,2.62,1.24,2c8.35-2.35,15.72-4.73,25.39-7.64" stroke-dasharray="55.292" stroke-dashoffset="55.292"><animate attributeName="stroke-dashoffset" values="55.292" fill="freeze" begin="81f4.click" /><animate attributeName="stroke-dashoffset" values="55.292;55.292;0" keyTimes="0;0.395;1" dur="0.914s" fill="freeze" begin="0s;81f4.click" /></path><path d="M40.15,34.99c3.08,2.17,7.97,8.91,8.74,12.28" stroke-dasharray="15.266" stroke-dashoffset="15.266"><animate attributeName="stroke-dashoffset" values="15.266" fill="freeze" begin="81f4.click" /><animate attributeName="stroke-dashoffset" values="15.266;15.266;0" keyTimes="0;0.857;1" dur="1.067s" fill="freeze" begin="0s;81f4.click" /></path><path d="M15.44,66.12c1.84,0.22,3.61,0.29,5.45,0.13c6.63-0.61,15.37-2.57,21.14-3.35c0.97-0.13,2.35-0.15,3.55,0" stroke-dasharray="30.43" stroke-dashoffset="30.43"><animate attributeName="stroke-dashoffset" values="30.43" fill="freeze" begin="81f4.click" /><animate attributeName="stroke-dashoffset" values="30.43;30.43;0" keyTimes="0;0.778;1" dur="1.371s" fill="freeze" begin="0s;81f4.click" /></path><path d="M31.19,53.28c0.89,0.89,1.28,1.97,1.28,3.78c0,10.44-0.1,20.67-0.1,24.06" stroke-dasharray="28.17" stroke-dashoffset="28.17"><animate attributeName="stroke-dashoffset" values="28.17" fill="freeze" begin="81f4.click" /><animate attributeName="stroke-dashoffset" values="28.17;28.17;0" keyTimes="0;0.829;1" dur="1.653s" fill="freeze" begin="0s;81f4.click" /></path><path d="M14.1,89.67c1.15,0.83,2.4,0.96,4.05,0.12c9.18-4.63,16.59-8.54,29.08-15.17" stroke-dasharray="37.101" stroke-dashoffset="37.101"><animate attributeName="stroke-dashoffset" values="37.101" fill="freeze" begin="81f4.click" /><animate attributeName="stroke-dashoffset" values="37.101;37.101;0" keyTimes="0;0.817;1" dur="2.024s" fill="freeze" begin="0s;81f4.click" /></path><path d="M64,19.39c0.04,0.82,0.21,2.16-0.08,3.31c-2.13,8.33-6.93,22.45-14.3,32.5" stroke-dasharray="39.026" stroke-dashoffset="39.026"><animate attributeName="stroke-dashoffset" values="39.026" fill="freeze" begin="81f4.click" /><animate attributeName="stroke-dashoffset" values="39.026;39.026;0" keyTimes="0;0.838;1" dur="2.414s" fill="freeze" begin="0s;81f4.click" /></path><path d="M60.37,41.53c1.35,0.29,3.12,0.32,3.85,0.21c4.56-0.67,12.91-2.24,18.43-3.63c1.47-0.37,3.41-0.73,4.91-0.3" stroke-dasharray="27.633" stroke-dashoffset="27.633"><animate attributeName="stroke-dashoffset" values="27.633" fill="freeze" begin="81f4.click" /><animate attributeName="stroke-dashoffset" values="27.633;27.633;0" keyTimes="0;0.897;1" dur="2.69s" fill="freeze" begin="0s;81f4.click" /></path><path d="M74.27,44.71c0.57,1.17,0.63,2.25,0.03,4.38C68.89,68.46,58.38,83.88,38.72,92.5" stroke-dasharray="62.688" stroke-dashoffset="62.688"><animate attributeName="stroke-dashoffset" values="62.688" fill="freeze" begin="81f4.click" /><animate attributeName="stroke-dashoffset" values="62.688;62.688;0" keyTimes="0;0.851;1" dur="3.161s" fill="freeze" begin="0s;81f4.click" /></path><path d="M54.43,54.67c3.11,0.07,21.64,23.59,32.87,33.29c2.21,1.9,4.24,3.62,6.84,4.92" stroke-dasharray="55.369" stroke-dashoffset="55.369"><animate attributeName="stroke-dashoffset" values="55.369" fill="freeze" begin="81f4.click" /><animate attributeName="stroke-dashoffset" values="55.369;55.369;0" keyTimes="0;0.851;1" dur="3.715s" fill="freeze" begin="0s;81f4.click" /></path></g></svg>