<svg xmlns="http://www.w3.org/2000/svg" width="109" height="109" viewBox="0 0 109 109" id="81fc"><g fill="none" stroke="#666" stroke-width="9" stroke-linecap="round" stroke-linejoin="round"><g><path d="M48.55,18.21c-0.29,1.43-0.99,2.55-2.11,3.36c-6.01,5.4-12.97,10.31-23.94,15.67" /><path d="M19.78,35.73c1.06,1.1,1.55,3.55,1.76,5.8c1.2,13.03,2.58,29.47,3.8,41.37c0.42,4.08,0.7,7.62,0.91,10.1" /><path d="M60,31.75c2.17,0.67,4.34,0.85,6.52,0.53c4.85-0.52,14.99-1.82,18.6-2.37c3.51-0.54,4.76,0.46,4.47,4.21c-0.88,11.34-2.96,31.9-4.14,45.38c-0.42,4.83-0.76,8.68-0.95,10.75" /><path d="M24.25,60.25c4.97-0.47,10.83-1.62,18.86-2.59c1.78-0.26,3.58-0.32,5.39-0.16" /><path d="M60.5,57c2.17,0.49,4.34,0.59,6.51,0.31c5.46-0.5,17.62-1.86,19.24-2.06" /><path d="M27,88.75c18.62-1.38,39.62-2.75,56.5-3.5" /></g></g><g fill="none" stroke="#000" stroke-width="5" stroke-linecap="round" stroke-linejoin="round"><path d="M48.55,18.21c-0.29,1.43-0.99,2.55-2.11,3.36c-6.01,5.4-12.97,10.31-23.94,15.67" stroke-dasharray="32.778" stroke-dashoffset="32.778"><animate attributeName="stroke-dashoffset" values="32.778;32.778;0" dur="0.328s" fill="freeze" begin="0s;81fc.click" /></path><path d="M19.78,35.73c1.06,1.1,1.55,3.55,1.76,5.8c1.2,13.03,2.58,29.47,3.8,41.37c0.42,4.08,0.7,7.62,0.91,10.1" stroke-dasharray="57.84" stroke-dashoffset="57.84"><animate attributeName="stroke-dashoffset" values="57.84" fill="freeze" begin="81fc.click" /><animate attributeName="stroke-dashoffset" values="57.84;57.84;0" keyTimes="0;0.362;1" dur="0.906s" fill="freeze" begin="0s;81fc.click" /></path><path d="M60,31.75c2.17,0.67,4.34,0.85,6.52,0.53c4.85-0.52,14.99-1.82,18.6-2.37c3.51-0.54,4.76,0.46,4.47,4.21c-0.88,11.34-2.96,31.9-4.14,45.38c-0.42,4.83-0.76,8.68-0.95,10.75" stroke-dasharray="89.449" stroke-dashoffset="89.449"><animate attributeName="stroke-dashoffset" values="89.449" fill="freeze" begin="81fc.click" /><animate attributeName="stroke-dashoffset" values="89.449;89.449;0" keyTimes="0;0.574;1" dur="1.579s" fill="freeze" begin="0s;81fc.click" /></path><path d="M24.25,60.25c4.97-0.47,10.83-1.62,18.86-2.59c1.78-0.26,3.58-0.32,5.39-0.16" stroke-dasharray="24.444" stroke-dashoffset="24.444"><animate attributeName="stroke-dashoffset" values="24.444" fill="freeze" begin="81fc.click" /><animate attributeName="stroke-dashoffset" values="24.444;24.444;0" keyTimes="0;0.866;1" dur="1.823s" fill="freeze" begin="0s;81fc.click" /></path><path d="M60.5,57c2.17,0.49,4.34,0.59,6.51,0.31c5.46-0.5,17.62-1.86,19.24-2.06" stroke-dasharray="25.903" stroke-dashoffset="25.903"><animate attributeName="stroke-dashoffset" values="25.903" fill="freeze" begin="81fc.click" /><animate attributeName="stroke-dashoffset" values="25.903;25.903;0" keyTimes="0;0.876;1" dur="2.082s" fill="freeze" begin="0s;81fc.click" /></path><path d="M27,88.75c18.62-1.38,39.62-2.75,56.5-3.5" stroke-dasharray="56.611" stroke-dashoffset="56.611"><animate attributeName="stroke-dashoffset" values="56.611" fill="freeze" begin="81fc.click" /><animate attributeName="stroke-dashoffset" values="56.611;56.611;0" keyTimes="0;0.786;1" dur="2.648s" fill="freeze" begin="0s;81fc.click" /></path></g></svg>