<svg xmlns="http://www.w3.org/2000/svg" width="109" height="109" viewBox="0 0 109 109" id="8229"><g fill="none" stroke="#666" stroke-width="9" stroke-linecap="round" stroke-linejoin="round"><g><g><path d="M29.11,11.67c0.39,1.08,0.25,2.48-0.31,3.93c-1.05,2.66-0.98,2.69-5.13,9.16" /><path d="M17.58,26.58c1.67,1.17,1.65,3.16,1.65,4.84c0,1.68,0.17,23.84,0.2,26.86c0.15,19.63-4.35,27.36-9.69,36.47" /><path d="M20,28.17c3.63-0.64,11.46-2.28,14.75-2.92c3.29-0.64,4.45,0.68,4.45,2.92c0,2.24-0.35,56.63-0.35,59.83c0,10-5.8,2.56-6.5,1.92" /><path d="M25.7,34.19c1.25,1.96,4.36,7.18,4.67,9.47" /><path d="M28.08,57.92c0.78,1.59,0.67,2.9,0.67,4.17c0,1.27,0.15,14.67-0.17,17.83" /><path d="M9.75,59.25c1.5,1.25,3.78,0.92,5.04,0.46c1.26-0.45,26.96-11.46,30.54-13.38" /></g><g><g><path d="M59.91,32.06c0.24,0.7-0.01,1.51-0.33,2.34c-2.32,6.06-6.69,15.06-13.72,20.92" /><path d="M66.4,22.42c5.96,2.98,18.33,24.34,24.85,28.83c2.89,1.99,4.5,2.53,7.31,3.17" /></g><g><path d="M64.25,54.92c0.25,1.33,0.47,2.89,0.14,3.65C60,68.78,58.25,73.94,52.38,86.1c-1.28,2.66-0.61,3.39,1.87,2.58c8.5-2.76,25.27-7.38,31.17-8.6" /><path d="M78.28,69.76c4.59,3.79,11.87,15.59,13.02,21.49" /></g></g></g></g><g fill="none" stroke="#000" stroke-width="5" stroke-linecap="round" stroke-linejoin="round"><g><g><path d="M29.11,11.67c0.39,1.08,0.25,2.48-0.31,3.93c-1.05,2.66-0.98,2.69-5.13,9.16" stroke-dasharray="14.55" stroke-dashoffset="14.55"><animate id="0" attributeName="stroke-dashoffset" values="14.55;0" dur="0.15s" fill="freeze" begin="0s;8229.click" /></path><path d="M17.58,26.58c1.67,1.17,1.65,3.16,1.65,4.84c0,1.68,0.17,23.84,0.2,26.86c0.15,19.63-4.35,27.36-9.69,36.47" stroke-dasharray="70.57" stroke-dashoffset="70.57"><animate attributeName="stroke-dashoffset" values="70.57" fill="freeze" begin="8229.click" /><animate id="1" attributeName="stroke-dashoffset" values="70.57;0" dur="0.53s" fill="freeze" begin="0.end" /></path><path d="M20,28.17c3.63-0.64,11.46-2.28,14.75-2.92c3.29-0.64,4.45,0.68,4.45,2.92c0,2.24-0.35,56.63-0.35,59.83c0,10-5.8,2.56-6.5,1.92" stroke-dasharray="93" stroke-dashoffset="93"><animate attributeName="stroke-dashoffset" values="93" fill="freeze" begin="8229.click" /><animate id="2" attributeName="stroke-dashoffset" values="93;0" dur="0.7s" fill="freeze" begin="1.end" /></path><path d="M25.7,34.19c1.25,1.96,4.36,7.18,4.67,9.47" stroke-dasharray="10.61" stroke-dashoffset="10.61"><animate attributeName="stroke-dashoffset" values="10.61" fill="freeze" begin="8229.click" /><animate id="3" attributeName="stroke-dashoffset" values="10.61;0" dur="0.11s" fill="freeze" begin="2.end" /></path><path d="M28.08,57.92c0.78,1.59,0.67,2.9,0.67,4.17c0,1.27,0.15,14.67-0.17,17.83" stroke-dasharray="22.11" stroke-dashoffset="22.11"><animate attributeName="stroke-dashoffset" values="22.11" fill="freeze" begin="8229.click" /><animate id="4" attributeName="stroke-dashoffset" values="22.11;0" dur="0.22s" fill="freeze" begin="3.end" /></path><path d="M9.75,59.25c1.5,1.25,3.78,0.92,5.04,0.46c1.26-0.45,26.96-11.46,30.54-13.38" stroke-dasharray="38.63" stroke-dashoffset="38.63"><animate attributeName="stroke-dashoffset" values="38.63" fill="freeze" begin="8229.click" /><animate id="5" attributeName="stroke-dashoffset" values="38.63;0" dur="0.39s" fill="freeze" begin="4.end" /></path></g><g><g><path d="M59.91,32.06c0.24,0.7-0.01,1.51-0.33,2.34c-2.32,6.06-6.69,15.06-13.72,20.92" stroke-dasharray="27.69" stroke-dashoffset="27.69"><animate attributeName="stroke-dashoffset" values="27.69" fill="freeze" begin="8229.click" /><animate id="6" attributeName="stroke-dashoffset" values="27.69;0" dur="0.28s" fill="freeze" begin="5.end" /></path><path d="M66.4,22.42c5.96,2.98,18.33,24.34,24.85,28.83c2.89,1.99,4.5,2.53,7.31,3.17" stroke-dasharray="46.26" stroke-dashoffset="46.26"><animate attributeName="stroke-dashoffset" values="46.26" fill="freeze" begin="8229.click" /><animate id="7" attributeName="stroke-dashoffset" values="46.26;0" dur="0.46s" fill="freeze" begin="6.end" /></path></g><g><path d="M64.25,54.92c0.25,1.33,0.47,2.89,0.14,3.65C60,68.78,58.25,73.94,52.38,86.1c-1.28,2.66-0.61,3.39,1.87,2.58c8.5-2.76,25.27-7.38,31.17-8.6" stroke-dasharray="71.28" stroke-dashoffset="71.28"><animate attributeName="stroke-dashoffset" values="71.28" fill="freeze" begin="8229.click" /><animate id="8" attributeName="stroke-dashoffset" values="71.28;0" dur="0.54s" fill="freeze" begin="7.end" /></path><path d="M78.28,69.76c4.59,3.79,11.87,15.59,13.02,21.49" stroke-dasharray="25.41" stroke-dashoffset="25.41"><animate attributeName="stroke-dashoffset" values="25.41" fill="freeze" begin="8229.click" /><animate id="9" attributeName="stroke-dashoffset" values="25.41;0" dur="0.25s" fill="freeze" begin="8.end" /></path></g></g></g></g></svg>