<svg xmlns="http://www.w3.org/2000/svg" viewBox="0 0 109 109" id="8235"><g fill="none" stroke="#666" stroke-width="6" stroke-linecap="round" stroke-linejoin="round"><g><g><path d="M34.45,13.5c0,1.12-0.24,2.35-0.75,3.22c-1.83,3.16-3.46,6.41-6.96,11.28" /><path d="M19.4,30.22c1,1,1.25,2.5,1.25,4.09c0,23.45,1.6,46.2-9.15,59.95" /><path d="M21.75,32.06c3.82-0.58,12.43-2.47,16.9-3.29c3.44-0.63,4.81,0.51,4.78,3.98c-0.06,9.17-0.06,51.93-0.06,57.12c0,7.05-4.38,3.12-7.02,0.34" /><path d="M28.67,38.27c1.95,2.48,4.23,7.5,4.55,9.97" /><path d="M30.55,58.39c0.97,0.97,1.2,2.61,1.2,3.81c0,0.9,0.05,8.39,0.08,13.92c0.01,2.31,0.02,4.28,0.02,5.29" /><path d="M11.75,59.07c1,0.93,2.31,1.1,3.65,0.66C26.75,56,44.88,50.38,49.25,48.75" /></g><g><g><path d="M70.48,14.24c1.01,1.01,1.32,2.26,1.32,3.47c0,3.59-0.04,8.02-0.04,11.29" /><g><path d="M53.63,31.24c0,3.62-1.85,10.59-2.92,13.01" /><path d="M54.62,32.75c13.38-2.62,28.12-4.25,34.75-4.5c8.78-0.33,2.65,5.18-0.17,7.89" /></g></g><g><path d="M87.54,47.51c0.17,0.36,0.28,1.41-0.16,1.96c-2.85,3.59-12.62,13.48-21.83,17.15" /><path d="M62.5,41.38c0.93,0.93,0.97,2.12,0.97,3.38c0,1.41-0.09,33.48-0.09,37.83c0,9.85,1.96,11.18,16.52,11.18c13.47,0,15.15-1.35,15.15-13.6" /></g></g></g></g><g fill="none" stroke="#000" stroke-width="3" stroke-linecap="round" stroke-linejoin="round"><path d="M34.45,13.5c0,1.12-0.24,2.35-0.75,3.22c-1.83,3.16-3.46,6.41-6.96,11.28" stroke-dasharray="16.606" stroke-dashoffset="16.606"><animate attributeName="stroke-dashoffset" values="16.606;16.606;0" dur="0.166s" fill="freeze" begin="0s;8235.click" /></path><path d="M19.4,30.22c1,1,1.25,2.5,1.25,4.09c0,23.45,1.6,46.2-9.15,59.95" stroke-dasharray="66.114" stroke-dashoffset="66.114"><animate attributeName="stroke-dashoffset" values="66.114" fill="freeze" begin="8235.click" /><animate attributeName="stroke-dashoffset" values="66.114;66.114;0" keyTimes="0;0.25;1" dur="0.663s" fill="freeze" begin="0s;8235.click" /></path><path d="M21.75,32.06c3.82-0.58,12.43-2.47,16.9-3.29c3.44-0.63,4.81,0.51,4.78,3.98c-0.06,9.17-0.06,51.93-0.06,57.12c0,7.05-4.38,3.12-7.02,0.34" stroke-dasharray="93.281" stroke-dashoffset="93.281"><animate attributeName="stroke-dashoffset" values="93.281" fill="freeze" begin="8235.click" /><animate attributeName="stroke-dashoffset" values="93.281;93.281;0" keyTimes="0;0.486;1" dur="1.364s" fill="freeze" begin="0s;8235.click" /></path><path d="M28.67,38.27c1.95,2.48,4.23,7.5,4.55,9.97" stroke-dasharray="11.044" stroke-dashoffset="11.044"><animate attributeName="stroke-dashoffset" values="11.044" fill="freeze" begin="8235.click" /><animate attributeName="stroke-dashoffset" values="11.044;11.044;0" keyTimes="0;0.861;1" dur="1.585s" fill="freeze" begin="0s;8235.click" /></path><path d="M30.55,58.39c0.97,0.97,1.2,2.61,1.2,3.81c0,0.9,0.05,8.39,0.08,13.92c0.01,2.31,0.02,4.28,0.02,5.29" stroke-dasharray="23.304" stroke-dashoffset="23.304"><animate attributeName="stroke-dashoffset" values="23.304" fill="freeze" begin="8235.click" /><animate attributeName="stroke-dashoffset" values="23.304;23.304;0" keyTimes="0;0.872;1" dur="1.818s" fill="freeze" begin="0s;8235.click" /></path><path d="M11.75,59.07c1,0.93,2.31,1.1,3.65,0.66C26.75,56,44.88,50.38,49.25,48.75" stroke-dasharray="39.492" stroke-dashoffset="39.492"><animate attributeName="stroke-dashoffset" values="39.492" fill="freeze" begin="8235.click" /><animate attributeName="stroke-dashoffset" values="39.492;39.492;0" keyTimes="0;0.822;1" dur="2.213s" fill="freeze" begin="0s;8235.click" /></path><path d="M70.48,14.24c1.01,1.01,1.32,2.26,1.32,3.47c0,3.59-0.04,8.02-0.04,11.29" stroke-dasharray="15.107" stroke-dashoffset="15.107"><animate attributeName="stroke-dashoffset" values="15.107" fill="freeze" begin="8235.click" /><animate attributeName="stroke-dashoffset" values="15.107;15.107;0" keyTimes="0;0.936;1" dur="2.364s" fill="freeze" begin="0s;8235.click" /></path><path d="M53.63,31.24c0,3.62-1.85,10.59-2.92,13.01" stroke-dasharray="13.391" stroke-dashoffset="13.391"><animate attributeName="stroke-dashoffset" values="13.391" fill="freeze" begin="8235.click" /><animate attributeName="stroke-dashoffset" values="13.391;13.391;0" keyTimes="0;0.898;1" dur="2.632s" fill="freeze" begin="0s;8235.click" /></path><path d="M54.62,32.75c13.38-2.62,28.12-4.25,34.75-4.5c8.78-0.33,2.65,5.18-0.17,7.89" stroke-dasharray="48.342" stroke-dashoffset="48.342"><animate attributeName="stroke-dashoffset" values="48.342" fill="freeze" begin="8235.click" /><animate attributeName="stroke-dashoffset" values="48.342;48.342;0" keyTimes="0;0.845;1" dur="3.115s" fill="freeze" begin="0s;8235.click" /></path><path d="M87.54,47.51c0.17,0.36,0.28,1.41-0.16,1.96c-2.85,3.59-12.62,13.48-21.83,17.15" stroke-dasharray="30.04" stroke-dashoffset="30.04"><animate attributeName="stroke-dashoffset" values="30.04" fill="freeze" begin="8235.click" /><animate attributeName="stroke-dashoffset" values="30.04;30.04;0" keyTimes="0;0.912;1" dur="3.415s" fill="freeze" begin="0s;8235.click" /></path><path d="M62.5,41.38c0.93,0.93,0.97,2.12,0.97,3.38c0,1.41-0.09,33.48-0.09,37.83c0,9.85,1.96,11.18,16.52,11.18c13.47,0,15.15-1.35,15.15-13.6" stroke-dasharray="90.614" stroke-dashoffset="90.614"><animate attributeName="stroke-dashoffset" values="90.614" fill="freeze" begin="8235.click" /><animate attributeName="stroke-dashoffset" values="90.614;90.614;0" keyTimes="0;0.834;1" dur="4.096s" fill="freeze" begin="0s;8235.click" /></path></g></svg>