<svg xmlns="http://www.w3.org/2000/svg" width="109" height="109" viewBox="0 0 109 109" id="8239"><g fill="none" stroke="#666" stroke-width="6" stroke-linecap="round" stroke-linejoin="round"><g><g><path d="M33.2,13.5c0.42,1.12,0.44,2.21,0,3.72c-0.96,3.28-2.46,6.16-4.46,9.78" /><path d="M19.4,29.72c1.19,1.19,1.69,3,1.75,4.59C22.5,71.5,17.5,87.75,11.5,95" /><path d="M22.02,31.15c4.96-0.93,14.89-2.67,17.83-3.09c3.02-0.44,4.1,1.19,4.1,4c0,2.22-0.4,55.71-0.4,58.89c0,7.8-4.05,3.3-6.7,1.02" /><path d="M30.28,39.52C32.25,42,33,44.5,33.62,46.49" /><path d="M30.55,56.64c1.09,1.09,1.7,3.04,1.7,4.31c0,4.3-0.17,10.67-0.17,16.55c0,1.75,0.02,3,0.02,4.41" /><path d="M10,56.5c0.88,1.25,2.35,1.31,3.75,1s28.5-7,35.5-8.75" /></g><g p4:phon="㕣" xmlns:p4="http://kanjivg.tagaini.net"><g><path d="M64.75,25c0.62,1.12,0.5,2.62-0.03,4.13c-1.89,5.41-7.1,17.24-10.72,22.49" /><path d="M72.5,19.75c5.37,0.38,12,18.38,19.46,25.45c2.12,2.01,3.66,2.93,5.41,3.8" /></g><g><path d="M57.1,63.97c1.09,1.09,1.66,2.35,1.86,3.72c0.91,6.06,1.91,11.61,2.8,18.73c0.17,1.39,0.34,2.76,0.49,4.07" /><path d="M59.25,64.99c9.25-1.24,22.91-2.59,28.18-2.76c2.15-0.07,3.45,1.4,3.07,3.22c-0.96,4.71-3.25,12.3-4.87,19.58" /><path d="M63.33,87.53c7.3-0.53,13.64-0.86,21.43-1.2c1.09-0.05,2.19-0.09,3.3-0.14" /></g></g></g></g><g fill="none" stroke="#000" stroke-width="3" stroke-linecap="round" stroke-linejoin="round"><path d="M33.2,13.5c0.42,1.12,0.44,2.21,0,3.72c-0.96,3.28-2.46,6.16-4.46,9.78" stroke-dasharray="14.566" stroke-dashoffset="14.566"><animate attributeName="stroke-dashoffset" values="14.566;14.566;0" dur="0.146s" fill="freeze" begin="0s;8239.click" /></path><path d="M19.4,29.72c1.19,1.19,1.69,3,1.75,4.59C22.5,71.5,17.5,87.75,11.5,95" stroke-dasharray="67.502" stroke-dashoffset="67.502"><animate attributeName="stroke-dashoffset" values="67.502" fill="freeze" begin="8239.click" /><animate attributeName="stroke-dashoffset" values="67.502;67.502;0" keyTimes="0;0.223;1" dur="0.654s" fill="freeze" begin="0s;8239.click" /></path><path d="M22.02,31.15c4.96-0.93,14.89-2.67,17.83-3.09c3.02-0.44,4.1,1.19,4.1,4c0,2.22-0.4,55.71-0.4,58.89c0,7.8-4.05,3.3-6.7,1.02" stroke-dasharray="95.089" stroke-dashoffset="95.089"><animate attributeName="stroke-dashoffset" values="95.089" fill="freeze" begin="8239.click" /><animate attributeName="stroke-dashoffset" values="95.089;95.089;0" keyTimes="0;0.478;1" dur="1.369s" fill="freeze" begin="0s;8239.click" /></path><path d="M30.28,39.52C32.25,42,33,44.5,33.62,46.49" stroke-dasharray="7.782" stroke-dashoffset="7.782"><animate attributeName="stroke-dashoffset" values="7.782" fill="freeze" begin="8239.click" /><animate attributeName="stroke-dashoffset" values="7.782;7.782;0" keyTimes="0;0.946;1" dur="1.447s" fill="freeze" begin="0s;8239.click" /></path><path d="M30.55,56.64c1.09,1.09,1.7,3.04,1.7,4.31c0,4.3-0.17,10.67-0.17,16.55c0,1.75,0.02,3,0.02,4.41" stroke-dasharray="25.695" stroke-dashoffset="25.695"><animate attributeName="stroke-dashoffset" values="25.695" fill="freeze" begin="8239.click" /><animate attributeName="stroke-dashoffset" values="25.695;25.695;0" keyTimes="0;0.849;1" dur="1.704s" fill="freeze" begin="0s;8239.click" /></path><path d="M10,56.5c0.88,1.25,2.35,1.31,3.75,1s28.5-7,35.5-8.75" stroke-dasharray="40.702" stroke-dashoffset="40.702"><animate attributeName="stroke-dashoffset" values="40.702" fill="freeze" begin="8239.click" /><animate attributeName="stroke-dashoffset" values="40.702;40.702;0" keyTimes="0;0.807;1" dur="2.111s" fill="freeze" begin="0s;8239.click" /></path><path d="M64.75,25c0.62,1.12,0.5,2.62-0.03,4.13c-1.89,5.41-7.1,17.24-10.72,22.49" stroke-dasharray="29.214" stroke-dashoffset="29.214"><animate attributeName="stroke-dashoffset" values="29.214" fill="freeze" begin="8239.click" /><animate attributeName="stroke-dashoffset" values="29.214;29.214;0" keyTimes="0;0.878;1" dur="2.403s" fill="freeze" begin="0s;8239.click" /></path><path d="M72.5,19.75c5.37,0.38,12,18.38,19.46,25.45c2.12,2.01,3.66,2.93,5.41,3.8" stroke-dasharray="39.121" stroke-dashoffset="39.121"><animate attributeName="stroke-dashoffset" values="39.121" fill="freeze" begin="8239.click" /><animate attributeName="stroke-dashoffset" values="39.121;39.121;0" keyTimes="0;0.86;1" dur="2.794s" fill="freeze" begin="0s;8239.click" /></path><path d="M57.1,63.97c1.09,1.09,1.66,2.35,1.86,3.72c0.91,6.06,1.91,11.61,2.8,18.73c0.17,1.39,0.34,2.76,0.49,4.07" stroke-dasharray="27.274" stroke-dashoffset="27.274"><animate attributeName="stroke-dashoffset" values="27.274" fill="freeze" begin="8239.click" /><animate attributeName="stroke-dashoffset" values="27.274;27.274;0" keyTimes="0;0.911;1" dur="3.067s" fill="freeze" begin="0s;8239.click" /></path><path d="M59.25,64.99c9.25-1.24,22.91-2.59,28.18-2.76c2.15-0.07,3.45,1.4,3.07,3.22c-0.96,4.71-3.25,12.3-4.87,19.58" stroke-dasharray="53.714" stroke-dashoffset="53.714"><animate attributeName="stroke-dashoffset" values="53.714" fill="freeze" begin="8239.click" /><animate attributeName="stroke-dashoffset" values="53.714;53.714;0" keyTimes="0;0.851;1" dur="3.604s" fill="freeze" begin="0s;8239.click" /></path><path d="M63.33,87.53c7.3-0.53,13.64-0.86,21.43-1.2c1.09-0.05,2.19-0.09,3.3-0.14" stroke-dasharray="24.768" stroke-dashoffset="24.768"><animate attributeName="stroke-dashoffset" values="24.768" fill="freeze" begin="8239.click" /><animate attributeName="stroke-dashoffset" values="24.768;24.768;0" keyTimes="0;0.936;1" dur="3.852s" fill="freeze" begin="0s;8239.click" /></path></g></svg>