<svg xmlns="http://www.w3.org/2000/svg" width="109" height="109" viewBox="0 0 109 109" id="8272"><g fill="none" stroke="#666" stroke-width="9" stroke-linecap="round" stroke-linejoin="round"><g><g><path d="M45.25,13.25c0.17,1.43-0.1,2.57-0.83,3.84c-3.13,5.47-13.88,15.19-21.17,20.16" /><path d="M45,18.63c1,0.37,2.33,0.44,4.03,0.25c5.6-0.63,11.85-1.63,15.41-1.89c2.57-0.19,3.31,1.14,1.81,2.76C61.69,24.69,55.75,32.25,51,39" /></g><g><g><path d="M26.86,42.28c1.64,1.35,5.23,0.67,6.68,0.46c14.93-2.18,31.33-4.39,39.68-5.21c2.79-0.27,3.92,1.73,3.69,3.81c-0.4,3.68-1.02,8.04-1.65,13.54c-0.12,1.09-0.38,2.12-0.38,3.5" /><path d="M50.66,42.39c0.91,0.91,1.62,2.37,1.45,3.91c-0.6,5.45-0.85,7.45-1.1,11.7" /></g><g><path d="M30.1,61.37c4.1-0.3,32.05-3.82,43.4-5.11" /><path d="M28.11,43.28c0.64,0.72,0.97,1.42,0.97,2.95c0,9.03-0.08,27.91-0.08,33.28c0,14.5,3.25,15.87,29.84,15.87c29.16,0,30.18-2.62,30.18-13.12" /></g></g></g></g><g fill="none" stroke="#000" stroke-width="5" stroke-linecap="round" stroke-linejoin="round"><g><g><path d="M45.25,13.25c0.17,1.43-0.1,2.57-0.83,3.84c-3.13,5.47-13.88,15.19-21.17,20.16" stroke-dasharray="33.395" stroke-dashoffset="33.395"><animate attributeName="stroke-dashoffset" values="33.395;33.395;0" dur="0.334s" fill="freeze" begin="0s;8272.click" /></path><path d="M45,18.63c1,0.37,2.33,0.44,4.03,0.25c5.6-0.63,11.85-1.63,15.41-1.89c2.57-0.19,3.31,1.14,1.81,2.76C61.69,24.69,55.75,32.25,51,39" stroke-dasharray="49.126" stroke-dashoffset="49.126"><animate attributeName="stroke-dashoffset" values="49.126" fill="freeze" begin="8272.click" /><animate attributeName="stroke-dashoffset" values="49.126;49.126;0" keyTimes="0;0.405;1" dur="0.825s" fill="freeze" begin="0s;8272.click" /></path></g><g><g><path d="M26.86,42.28c1.64,1.35,5.23,0.67,6.68,0.46c14.93-2.18,31.33-4.39,39.68-5.21c2.79-0.27,3.92,1.73,3.69,3.81c-0.4,3.68-1.02,8.04-1.65,13.54c-0.12,1.09-0.38,2.12-0.38,3.5" stroke-dasharray="70.294" stroke-dashoffset="70.294"><animate attributeName="stroke-dashoffset" values="70.294" fill="freeze" begin="8272.click" /><animate attributeName="stroke-dashoffset" values="70.294;70.294;0" keyTimes="0;0.609;1" dur="1.354s" fill="freeze" begin="0s;8272.click" /></path><path d="M50.66,42.39c0.91,0.91,1.62,2.37,1.45,3.91c-0.6,5.45-0.85,7.45-1.1,11.7" stroke-dasharray="16.062" stroke-dashoffset="16.062"><animate attributeName="stroke-dashoffset" values="16.062" fill="freeze" begin="8272.click" /><animate attributeName="stroke-dashoffset" values="16.062;16.062;0" keyTimes="0;0.894;1" dur="1.515s" fill="freeze" begin="0s;8272.click" /></path></g><g><path d="M30.1,61.37c4.1-0.3,32.05-3.82,43.4-5.11" stroke-dasharray="43.702" stroke-dashoffset="43.702"><animate attributeName="stroke-dashoffset" values="43.702" fill="freeze" begin="8272.click" /><animate attributeName="stroke-dashoffset" values="43.702;43.702;0" keyTimes="0;0.776;1" dur="1.952s" fill="freeze" begin="0s;8272.click" /></path><path d="M28.11,43.28c0.64,0.72,0.97,1.42,0.97,2.95c0,9.03-0.08,27.91-0.08,33.28c0,14.5,3.25,15.87,29.84,15.87c29.16,0,30.18-2.62,30.18-13.12" stroke-dasharray="115.13" stroke-dashoffset="115.13"><animate attributeName="stroke-dashoffset" values="115.13" fill="freeze" begin="8272.click" /><animate attributeName="stroke-dashoffset" values="115.13;115.13;0" keyTimes="0;0.693;1" dur="2.818s" fill="freeze" begin="0s;8272.click" /></path></g></g></g></g></svg>