<svg xmlns="http://www.w3.org/2000/svg" width="109" height="109" viewBox="0 0 109 109" id="828d"><g fill="none" stroke="#666" stroke-width="6" stroke-linecap="round" stroke-linejoin="round"><g><g><path d="M17.75,26.25c1.32,0.64,5.68,0.58,7,0.46c12.1-1.17,47.55-4.2,61.5-4.29c2.19-0.01,6.07,0.51,7.17,0.83" /><path d="M35.58,11.42c1.17,1.08,2.17,2.04,2.3,2.96c1.37,9.62,2.39,16.66,3.04,19.71" /><path d="M67.92,9.42c1.12,1,1.94,2.6,1.58,4.08c-1.25,5.25-1.5,11.25-2.92,18.75" /></g><g><g><g><path d="M35.58,35.08c0.06,0.72,0.14,2.76-0.33,3.7c-3,5.96-12.11,21.38-20.09,26.96" /></g><path d="M34.92,46.08c1.24,0.58,5.6,0.7,7.67,0.5c9.69-0.93,34.23-4.49,39.2-4.68s5.98,1.98,5.13,6.02c-1.17,5.58-5.86,40.18-12,45.67c-3.54,3.16-5.92,0.67-8.2-1.22" /></g><g><path d="M35.92,60.16c7.01,3.45,17.61,13.69,19.36,19.06" /></g></g></g></g><g fill="none" stroke="#000" stroke-width="3" stroke-linecap="round" stroke-linejoin="round"><path d="M17.75,26.25c1.32,0.64,5.68,0.58,7,0.46c12.1-1.17,47.55-4.2,61.5-4.29c2.19-0.01,6.07,0.51,7.17,0.83" stroke-dasharray="75.95" stroke-dashoffset="75.95"><animate attributeName="stroke-dashoffset" values="75.95;75.95;0" dur="0.571s" fill="freeze" begin="0s;828d.click" /></path><path d="M35.58,11.42c1.17,1.08,2.17,2.04,2.3,2.96c1.37,9.62,2.39,16.66,3.04,19.71" stroke-dasharray="23.757" stroke-dashoffset="23.757"><animate attributeName="stroke-dashoffset" values="23.757" fill="freeze" begin="828d.click" /><animate attributeName="stroke-dashoffset" values="23.757;23.757;0" keyTimes="0;0.706;1" dur="0.809s" fill="freeze" begin="0s;828d.click" /></path><path d="M67.92,9.42c1.12,1,1.94,2.6,1.58,4.08c-1.25,5.25-1.5,11.25-2.92,18.75" stroke-dasharray="23.568" stroke-dashoffset="23.568"><animate attributeName="stroke-dashoffset" values="23.568" fill="freeze" begin="828d.click" /><animate attributeName="stroke-dashoffset" values="23.568;23.568;0" keyTimes="0;0.774;1" dur="1.045s" fill="freeze" begin="0s;828d.click" /></path><path d="M35.58,35.08c0.06,0.72,0.14,2.76-0.33,3.7c-3,5.96-12.11,21.38-20.09,26.96" stroke-dasharray="37.614" stroke-dashoffset="37.614"><animate attributeName="stroke-dashoffset" values="37.614" fill="freeze" begin="828d.click" /><animate attributeName="stroke-dashoffset" values="37.614;37.614;0" keyTimes="0;0.735;1" dur="1.421s" fill="freeze" begin="0s;828d.click" /></path><path d="M34.92,46.08c1.24,0.58,5.6,0.7,7.67,0.5c9.69-0.93,34.23-4.49,39.2-4.68s5.98,1.98,5.13,6.02c-1.17,5.58-5.86,40.18-12,45.67c-3.54,3.16-5.92,0.67-8.2-1.22" stroke-dasharray="114.139" stroke-dashoffset="114.139"><animate attributeName="stroke-dashoffset" values="114.139" fill="freeze" begin="828d.click" /><animate attributeName="stroke-dashoffset" values="114.139;114.139;0" keyTimes="0;0.624;1" dur="2.279s" fill="freeze" begin="0s;828d.click" /></path><path d="M35.92,60.16c7.01,3.45,17.61,13.69,19.36,19.06" stroke-dasharray="27.581" stroke-dashoffset="27.581"><animate attributeName="stroke-dashoffset" values="27.581" fill="freeze" begin="828d.click" /><animate attributeName="stroke-dashoffset" values="27.581;27.581;0" keyTimes="0;0.892;1" dur="2.555s" fill="freeze" begin="0s;828d.click" /></path></g></svg>