<svg xmlns="http://www.w3.org/2000/svg" width="109" height="109" viewBox="0 0 109 109" id="82ac"><g fill="none" stroke="#666" stroke-width="9" stroke-linecap="round" stroke-linejoin="round"><g><g><path d="M16.42,22.42c1.29,0.53,4.33,0.83,7.43,0.63c11.91-0.78,46.9-3.99,60.62-4.03c3.53-0.01,6.7,0.97,7.78,1.24" /><path d="M35.58,11.42c1.67,0.83,2.55,2.06,2.67,2.83c1.25,8,2,12.25,2.17,15.33" /><path d="M67.25,9.42c1.21,0.85,1.37,2.91,1,4.17c-1.5,5.17-1.8,10.13-3.55,15" /></g><g><g><path d="M36.86,42.3c0.44,0.76-0.1,1.62-0.61,2.57c-4.25,7.84-16.23,19.63-25.16,22.97" /><path d="M53.44,32.95C65.2,35.73,76.46,52.86,86.26,57.3c3.79,1.72,5.15,2.64,8.82,3.2" /></g><g><path d="M33.58,58.75c1.21,0.47,4.17,1.25,6.67,1c8.67-0.87,23.39-3.19,28.17-3.67c3.1-0.31,4.83,0.39,4.66,2.56c-0.46,5.76-5.33,27.51-9.16,34.44c-4.2,7.58-5.55,2.45-9-0.83" /><path d="M47.24,61.56c0.08,0.81,0.27,2.14-0.17,3.27C42.24,77.42,35.74,87.4,19.92,97.61" /></g></g></g></g><g fill="none" stroke="#000" stroke-width="5" stroke-linecap="round" stroke-linejoin="round"><g><g><path d="M16.42,22.42c1.29,0.53,4.33,0.83,7.43,0.63c11.91-0.78,46.9-3.99,60.62-4.03c3.53-0.01,6.7,0.97,7.78,1.24" stroke-dasharray="76.167" stroke-dashoffset="76.167"><animate attributeName="stroke-dashoffset" values="76.167;76.167;0" dur="0.573s" fill="freeze" begin="0s;82ac.click" /></path><path d="M35.58,11.42c1.67,0.83,2.55,2.06,2.67,2.83c1.25,8,2,12.25,2.17,15.33" stroke-dasharray="19.502" stroke-dashoffset="19.502"><animate attributeName="stroke-dashoffset" values="19.502" fill="freeze" begin="82ac.click" /><animate attributeName="stroke-dashoffset" values="19.502;19.502;0" keyTimes="0;0.746;1" dur="0.768s" fill="freeze" begin="0s;82ac.click" /></path><path d="M67.25,9.42c1.21,0.85,1.37,2.91,1,4.17c-1.5,5.17-1.8,10.13-3.55,15" stroke-dasharray="19.963" stroke-dashoffset="19.963"><animate attributeName="stroke-dashoffset" values="19.963" fill="freeze" begin="82ac.click" /><animate attributeName="stroke-dashoffset" values="19.963;19.963;0" keyTimes="0;0.793;1" dur="0.968s" fill="freeze" begin="0s;82ac.click" /></path></g><g><g><path d="M36.86,42.3c0.44,0.76-0.1,1.62-0.61,2.57c-4.25,7.84-16.23,19.63-25.16,22.97" stroke-dasharray="37.345" stroke-dashoffset="37.345"><animate attributeName="stroke-dashoffset" values="37.345" fill="freeze" begin="82ac.click" /><animate attributeName="stroke-dashoffset" values="37.345;37.345;0" keyTimes="0;0.722;1" dur="1.341s" fill="freeze" begin="0s;82ac.click" /></path><path d="M53.44,32.95C65.2,35.73,76.46,52.86,86.26,57.3c3.79,1.72,5.15,2.64,8.82,3.2" stroke-dasharray="50.644" stroke-dashoffset="50.644"><animate attributeName="stroke-dashoffset" values="50.644" fill="freeze" begin="82ac.click" /><animate attributeName="stroke-dashoffset" values="50.644;50.644;0" keyTimes="0;0.726;1" dur="1.847s" fill="freeze" begin="0s;82ac.click" /></path></g><g><path d="M33.58,58.75c1.21,0.47,4.17,1.25,6.67,1c8.67-0.87,23.39-3.19,28.17-3.67c3.1-0.31,4.83,0.39,4.66,2.56c-0.46,5.76-5.33,27.51-9.16,34.44c-4.2,7.58-5.55,2.45-9-0.83" stroke-dasharray="90.102" stroke-dashoffset="90.102"><animate attributeName="stroke-dashoffset" values="90.102" fill="freeze" begin="82ac.click" /><animate attributeName="stroke-dashoffset" values="90.102;90.102;0" keyTimes="0;0.732;1" dur="2.524s" fill="freeze" begin="0s;82ac.click" /></path><path d="M47.24,61.56c0.08,0.81,0.27,2.14-0.17,3.27C42.24,77.42,35.74,87.4,19.92,97.61" stroke-dasharray="46.718" stroke-dashoffset="46.718"><animate attributeName="stroke-dashoffset" values="46.718" fill="freeze" begin="82ac.click" /><animate attributeName="stroke-dashoffset" values="46.718;46.718;0" keyTimes="0;0.844;1" dur="2.991s" fill="freeze" begin="0s;82ac.click" /></path></g></g></g></g></svg>