<svg xmlns="http://www.w3.org/2000/svg" width="109" height="109" viewBox="0 0 109 109" id="82ad"><g fill="none" stroke="#666" stroke-width="9" stroke-linecap="round" stroke-linejoin="round"><g><g><path d="M17,27.89c1.39,0.56,3,0.68,4.39,0.56c12.76-1.03,50.29-4.78,65-4.86c2.31-0.01,3.7,0.27,4.86,0.55" /><path d="M36.75,15.5c1.75,1.43,2.4,1.85,2.5,2.75c1,8.75,1.25,13.5,1.25,18.25" /><path d="M68.75,11.75c1.12,1,1.87,2.52,1.5,4c-1.12,4.5-1.88,12-3.5,17.75" /></g><g><g p5:part="1" xmlns:p5="http://kanjivg.tagaini.net"><path d="M30.49,45.65c15.82-2.32,38.71-4.33,48.47-5.17c3.57-0.3,4.62,2.8,4.19,4.62C81.5,52,80.17,58.15,78.57,63.34" /><path d="M53.34,43.95c0.77,0.47,1.53,3.47,1.53,4.41c0,5.88-0.25,10.32-0.25,13.88" /></g><g p5:part="2" xmlns:p5="http://kanjivg.tagaini.net"><path d="M30.79,64.57c6.46-0.57,41.19-3.1,47.27-3.61" /><path d="M28.88,42.77c0.84,1.4,1.51,3.06,1.56,5.22c0.23,9.65-0.43,17.85-0.43,24.37c0,20.23,2.24,23.14,31.9,23.14C93.25,95.5,92,90.75,92,81.6" /></g></g></g></g><g fill="none" stroke="#000" stroke-width="5" stroke-linecap="round" stroke-linejoin="round"><g><g><path d="M17,27.89c1.39,0.56,3,0.68,4.39,0.56c12.76-1.03,50.29-4.78,65-4.86c2.31-0.01,3.7,0.27,4.86,0.55" stroke-dasharray="74.56" stroke-dashoffset="74.56"><animate id="0" attributeName="stroke-dashoffset" values="74.56;0" dur="0.56s" fill="freeze" begin="0s;82ad.click" /></path><path d="M36.75,15.5c1.75,1.43,2.4,1.85,2.5,2.75c1,8.75,1.25,13.5,1.25,18.25" stroke-dasharray="22.11" stroke-dashoffset="22.11"><animate attributeName="stroke-dashoffset" values="22.11" fill="freeze" begin="82ad.click" /><animate id="1" attributeName="stroke-dashoffset" values="22.11;0" dur="0.22s" fill="freeze" begin="0.end" /></path><path d="M68.75,11.75c1.12,1,1.87,2.52,1.5,4c-1.12,4.5-1.88,12-3.5,17.75" stroke-dasharray="22.59" stroke-dashoffset="22.59"><animate attributeName="stroke-dashoffset" values="22.59" fill="freeze" begin="82ad.click" /><animate id="2" attributeName="stroke-dashoffset" values="22.59;0" dur="0.23s" fill="freeze" begin="1.end" /></path></g><g><g p5:part="1" xmlns:p5="http://kanjivg.tagaini.net"><path d="M30.49,45.65c15.82-2.32,38.71-4.33,48.47-5.17c3.57-0.3,4.62,2.8,4.19,4.62C81.5,52,80.17,58.15,78.57,63.34" stroke-dasharray="74.91" stroke-dashoffset="74.91"><animate attributeName="stroke-dashoffset" values="74.91" fill="freeze" begin="82ad.click" /><animate id="3" attributeName="stroke-dashoffset" values="74.91;0" dur="0.56s" fill="freeze" begin="2.end" /></path><path d="M53.34,43.95c0.77,0.47,1.53,3.47,1.53,4.41c0,5.88-0.25,10.32-0.25,13.88" stroke-dasharray="18.64" stroke-dashoffset="18.64"><animate attributeName="stroke-dashoffset" values="18.64" fill="freeze" begin="82ad.click" /><animate id="4" attributeName="stroke-dashoffset" values="18.64;0" dur="0.19s" fill="freeze" begin="3.end" /></path></g><g p5:part="2" xmlns:p5="http://kanjivg.tagaini.net"><path d="M30.79,64.57c6.46-0.57,41.19-3.1,47.27-3.61" stroke-dasharray="47.41" stroke-dashoffset="47.41"><animate attributeName="stroke-dashoffset" values="47.41" fill="freeze" begin="82ad.click" /><animate id="5" attributeName="stroke-dashoffset" values="47.41;0" dur="0.47s" fill="freeze" begin="4.end" /></path><path d="M28.88,42.77c0.84,1.4,1.51,3.06,1.56,5.22c0.23,9.65-0.43,17.85-0.43,24.37c0,20.23,2.24,23.14,31.9,23.14C93.25,95.5,92,90.75,92,81.6" stroke-dasharray="116.85" stroke-dashoffset="116.85"><animate attributeName="stroke-dashoffset" values="116.85" fill="freeze" begin="82ad.click" /><animate id="6" attributeName="stroke-dashoffset" values="116.85;0" dur="0.88s" fill="freeze" begin="5.end" /></path></g></g></g></g></svg>