<svg xmlns="http://www.w3.org/2000/svg" width="109" height="109" viewBox="0 0 109 109" id="82bd"><g fill="none" stroke="#666" stroke-width="9" stroke-linecap="round" stroke-linejoin="round"><g><g><path d="M19.75,24.02c3.25,0.48,5.96,0.38,8.76,0.1c13.55-1.31,40.4-4.37,54.62-4.99c2.96-0.13,5.97-0.32,8.88,0.39" /><path d="M37.75,12c1.68,1.37,2.22,1.79,2.4,2.63c1.68,7.88,2.37,15.01,2.85,17.87" /><path d="M68.58,9.5c0.54,1.12,0.75,2.19,0.51,3.39c-1.41,7.01-1.8,10.02-3.34,16.61" /></g><g p4:phon="⽛V" xmlns:p4="http://kanjivg.tagaini.net"><path d="M31,40.9c3.12,0.35,5.6,0.02,8.27-0.29c7.48-0.86,23.96-3.23,33.1-4.15c2.33-0.23,4.58-0.35,6.88,0.16" /><path d="M37.75,42c0.88,0.88,1.25,2.16,1.25,3.25c-0.01,4.98-0.25,12.5-0.25,16" /><path d="M21.25,62.9c3.12,0.6,5.67,0.45,8.26,0.17c12.58-1.36,39.39-4.54,52.74-5.52c3.12-0.23,6.4-0.6,9.5,0.07" /><g><path d="M66.27,39.58c1.2,1.2,1.76,2.54,1.76,4.27c0,14.56-0.26,42.91-0.26,47.87c0,8.12-4.91,3.42-8.71,0.25" /></g><g><path d="M61.88,60.25c0,1.12-0.5,1.98-1.33,3.15C54.74,71.58,38,85.07,16.75,93.75" /></g></g></g></g><g fill="none" stroke="#000" stroke-width="5" stroke-linecap="round" stroke-linejoin="round"><g><g><path d="M19.75,24.02c3.25,0.48,5.96,0.38,8.76,0.1c13.55-1.31,40.4-4.37,54.62-4.99c2.96-0.13,5.97-0.32,8.88,0.39" stroke-dasharray="72.56" stroke-dashoffset="72.56"><animate id="0" attributeName="stroke-dashoffset" values="72.56;0" dur="0.55s" fill="freeze" begin="0s;82bd.click" /></path><path d="M37.75,12c1.68,1.37,2.22,1.79,2.4,2.63c1.68,7.88,2.37,15.01,2.85,17.87" stroke-dasharray="21.73" stroke-dashoffset="21.73"><animate attributeName="stroke-dashoffset" values="21.73" fill="freeze" begin="82bd.click" /><animate id="1" attributeName="stroke-dashoffset" values="21.73;0" dur="0.22s" fill="freeze" begin="0.end" /></path><path d="M68.58,9.5c0.54,1.12,0.75,2.19,0.51,3.39c-1.41,7.01-1.8,10.02-3.34,16.61" stroke-dasharray="20.44" stroke-dashoffset="20.44"><animate attributeName="stroke-dashoffset" values="20.44" fill="freeze" begin="82bd.click" /><animate id="2" attributeName="stroke-dashoffset" values="20.44;0" dur="0.2s" fill="freeze" begin="1.end" /></path></g><g p4:phon="⽛V" xmlns:p4="http://kanjivg.tagaini.net"><path d="M31,40.9c3.12,0.35,5.6,0.02,8.27-0.29c7.48-0.86,23.96-3.23,33.1-4.15c2.33-0.23,4.58-0.35,6.88,0.16" stroke-dasharray="48.57" stroke-dashoffset="48.57"><animate attributeName="stroke-dashoffset" values="48.57" fill="freeze" begin="82bd.click" /><animate id="3" attributeName="stroke-dashoffset" values="48.57;0" dur="0.49s" fill="freeze" begin="2.end" /></path><path d="M37.75,42c0.88,0.88,1.25,2.16,1.25,3.25c-0.01,4.98-0.25,12.5-0.25,16" stroke-dasharray="19.57" stroke-dashoffset="19.57"><animate attributeName="stroke-dashoffset" values="19.57" fill="freeze" begin="82bd.click" /><animate id="4" attributeName="stroke-dashoffset" values="19.57;0" dur="0.2s" fill="freeze" begin="3.end" /></path><path d="M21.25,62.9c3.12,0.6,5.67,0.45,8.26,0.17c12.58-1.36,39.39-4.54,52.74-5.52c3.12-0.23,6.4-0.6,9.5,0.07" stroke-dasharray="70.86" stroke-dashoffset="70.86"><animate attributeName="stroke-dashoffset" values="70.86" fill="freeze" begin="82bd.click" /><animate id="5" attributeName="stroke-dashoffset" values="70.86;0" dur="0.53s" fill="freeze" begin="4.end" /></path><g><path d="M66.27,39.58c1.2,1.2,1.76,2.54,1.76,4.27c0,14.56-0.26,42.91-0.26,47.87c0,8.12-4.91,3.42-8.71,0.25" stroke-dasharray="66.12" stroke-dashoffset="66.12"><animate attributeName="stroke-dashoffset" values="66.12" fill="freeze" begin="82bd.click" /><animate id="6" attributeName="stroke-dashoffset" values="66.12;0" dur="0.5s" fill="freeze" begin="5.end" /></path></g><g><path d="M61.88,60.25c0,1.12-0.5,1.98-1.33,3.15C54.74,71.58,38,85.07,16.75,93.75" stroke-dasharray="57.31" stroke-dashoffset="57.31"><animate attributeName="stroke-dashoffset" values="57.31" fill="freeze" begin="82bd.click" /><animate id="7" attributeName="stroke-dashoffset" values="57.31;0" dur="0.57s" fill="freeze" begin="6.end" /></path></g></g></g></g></svg>