<svg xmlns="http://www.w3.org/2000/svg" width="109" height="109" viewBox="0 0 109 109" id="82e5"><g fill="none" stroke="#666" stroke-width="9" stroke-linecap="round" stroke-linejoin="round"><g><g><path d="M18.75,28.85c2.88,0.77,6.08,0.66,8.75,0.39c15.87-1.62,38.37-3.62,54.25-4.39c2.88-0.14,6.2-0.02,9,0.66" /><path d="M36.23,15.33c0.91,0.91,1.77,2.17,2.05,3.8c1.43,8.47,3.31,17.05,3.82,20.11" /><path d="M70.16,11.77c0.34,0.98,0.4,2.15,0.08,3.67c-1.84,8.92-2.5,12.19-4.44,21.27" /></g><g><path d="M49.75,42.75c0.37,1,0.43,2.33,0.04,3.61C46.5,57.25,38.25,73,24.25,82.75" /><path d="M12,56.9c3.25,0.85,6.39,1.01,9.39,0.66c19.3-2.24,48.36-5.3,63.12-5.99c3.56-0.17,7-0.2,10.49,0.68" /><g><path d="M39.25,73.25c0.94,0.94,1.38,2.25,1.57,3.51c0.8,5.24,1.47,11.39,1.98,16.49c0.28,2.74,0.46,4.91,0.46,5.75" /><path d="M41.5,74.83c8.12-1.21,26.75-3.46,34.13-4.11c4.1-0.36,6.12,1.53,5.25,5.28c-1.1,4.71-3.24,11.31-4.44,16" /><path d="M44.25,95.25c6.17-0.21,21.23-1.55,30.52-2.1C76.4,93.06,77.84,93,79,93" /></g></g></g></g><g fill="none" stroke="#000" stroke-width="5" stroke-linecap="round" stroke-linejoin="round"><g><g><path d="M18.75,28.85c2.88,0.77,6.08,0.66,8.75,0.39c15.87-1.62,38.37-3.62,54.25-4.39c2.88-0.14,6.2-0.02,9,0.66" stroke-dasharray="72.29" stroke-dashoffset="72.29"><animate id="0" attributeName="stroke-dashoffset" values="72.29;0" dur="0.54s" fill="freeze" begin="0s;82e5.click" /></path><path d="M36.23,15.33c0.91,0.91,1.77,2.17,2.05,3.8c1.43,8.47,3.31,17.05,3.82,20.11" stroke-dasharray="24.86" stroke-dashoffset="24.86"><animate attributeName="stroke-dashoffset" values="24.86" fill="freeze" begin="82e5.click" /><animate id="1" attributeName="stroke-dashoffset" values="24.86;0" dur="0.25s" fill="freeze" begin="0.end" /></path><path d="M70.16,11.77c0.34,0.98,0.4,2.15,0.08,3.67c-1.84,8.92-2.5,12.19-4.44,21.27" stroke-dasharray="25.45" stroke-dashoffset="25.45"><animate attributeName="stroke-dashoffset" values="25.45" fill="freeze" begin="82e5.click" /><animate id="2" attributeName="stroke-dashoffset" values="25.45;0" dur="0.25s" fill="freeze" begin="1.end" /></path></g><g><path d="M49.75,42.75c0.37,1,0.43,2.33,0.04,3.61C46.5,57.25,38.25,73,24.25,82.75" stroke-dasharray="48.91" stroke-dashoffset="48.91"><animate attributeName="stroke-dashoffset" values="48.91" fill="freeze" begin="82e5.click" /><animate id="3" attributeName="stroke-dashoffset" values="48.91;0" dur="0.49s" fill="freeze" begin="2.end" /></path><path d="M12,56.9c3.25,0.85,6.39,1.01,9.39,0.66c19.3-2.24,48.36-5.3,63.12-5.99c3.56-0.17,7-0.2,10.49,0.68" stroke-dasharray="83.43" stroke-dashoffset="83.43"><animate attributeName="stroke-dashoffset" values="83.43" fill="freeze" begin="82e5.click" /><animate id="4" attributeName="stroke-dashoffset" values="83.43;0" dur="0.63s" fill="freeze" begin="3.end" /></path><g><path d="M39.25,73.25c0.94,0.94,1.38,2.25,1.57,3.51c0.8,5.24,1.47,11.39,1.98,16.49c0.28,2.74,0.46,4.91,0.46,5.75" stroke-dasharray="26.29" stroke-dashoffset="26.29"><animate attributeName="stroke-dashoffset" values="26.29" fill="freeze" begin="82e5.click" /><animate id="5" attributeName="stroke-dashoffset" values="26.29;0" dur="0.26s" fill="freeze" begin="4.end" /></path><path d="M41.5,74.83c8.12-1.21,26.75-3.46,34.13-4.11c4.1-0.36,6.12,1.53,5.25,5.28c-1.1,4.71-3.24,11.31-4.44,16" stroke-dasharray="60.2" stroke-dashoffset="60.2"><animate attributeName="stroke-dashoffset" values="60.2" fill="freeze" begin="82e5.click" /><animate id="6" attributeName="stroke-dashoffset" values="60.2;0" dur="0.45s" fill="freeze" begin="5.end" /></path><path d="M44.25,95.25c6.17-0.21,21.23-1.55,30.52-2.1C76.4,93.06,77.84,93,79,93" stroke-dasharray="34.83" stroke-dashoffset="34.83"><animate attributeName="stroke-dashoffset" values="34.83" fill="freeze" begin="82e5.click" /><animate id="7" attributeName="stroke-dashoffset" values="34.83;0" dur="0.35s" fill="freeze" begin="6.end" /></path></g></g></g></g></svg>