<svg xmlns="http://www.w3.org/2000/svg" width="109" height="109" viewBox="0 0 109 109" id="8302"><g fill="none" stroke="#666" stroke-width="9" stroke-linecap="round" stroke-linejoin="round"><g><g><path d="M18.5,27.02c2.4,0.97,5.72,0.96,8.24,0.66c13.13-1.56,35.49-4.17,49.64-4.96c3.42-0.19,7.03-0.02,10.37,0.8" /><path d="M33.75,16c0.94,0.94,1.31,2.12,1.5,3c1.75,8.25,3,15,3.5,18" /><path d="M70.5,11.5c0.42,1.18,0.35,2.27,0,3.75C69,21.5,68,27.75,66.5,35" /></g><g p4:phon="戊" xmlns:p4="http://kanjivg.tagaini.net"><g><g><path d="M24.98,51.08c0.97,0.97,1.21,2.36,1.18,3.83c-0.32,13.63-2.03,29.22-12.1,40.45" /></g></g><g><g><g><path d="M25.75,51.53c2.33,0.22,4.7-0.13,7-0.45c12.98-1.81,25.13-3.71,39.13-4.91c3.27-0.28,6.03-0.07,9.39,0.51" /></g><path d="M52.92,34.75c1.79,1.37,2.36,3.24,2.65,6.19c2.29,23.05,13.19,45.43,34.21,54.55c6.95,3.01,5.68,1.09,4.79-4.97" /></g><g><path d="M76.98,56.3c0.11,0.83-0.15,1.95-0.72,3.09C72.5,67,61.75,82.12,40.39,92.49" /></g><g><g><path d="M81.61,33.82c3.26,2.11,8.46,6.94,9.98,10.56" /></g></g></g></g></g></g><g fill="none" stroke="#000" stroke-width="5" stroke-linecap="round" stroke-linejoin="round"><path d="M18.5,27.02c2.4,0.97,5.72,0.96,8.24,0.66c13.13-1.56,35.49-4.17,49.64-4.96c3.42-0.19,7.03-0.02,10.37,0.8" stroke-dasharray="68.678" stroke-dashoffset="68.678"><animate attributeName="stroke-dashoffset" values="68.678;68.678;0" dur="0.516s" fill="freeze" begin="0s;8302.click" /></path><path d="M33.75,16c0.94,0.94,1.31,2.12,1.5,3c1.75,8.25,3,15,3.5,18" stroke-dasharray="21.741" stroke-dashoffset="21.741"><animate attributeName="stroke-dashoffset" values="21.741" fill="freeze" begin="8302.click" /><animate attributeName="stroke-dashoffset" values="21.741;21.741;0" keyTimes="0;0.704;1" dur="0.733s" fill="freeze" begin="0s;8302.click" /></path><path d="M70.5,11.5c0.42,1.18,0.35,2.27,0,3.75C69,21.5,68,27.75,66.5,35" stroke-dasharray="23.962" stroke-dashoffset="23.962"><animate attributeName="stroke-dashoffset" values="23.962" fill="freeze" begin="8302.click" /><animate attributeName="stroke-dashoffset" values="23.962;23.962;0" keyTimes="0;0.753;1" dur="0.973s" fill="freeze" begin="0s;8302.click" /></path><path d="M24.98,51.08c0.97,0.97,1.21,2.36,1.18,3.83c-0.32,13.63-2.03,29.22-12.1,40.45" stroke-dasharray="47.274" stroke-dashoffset="47.274"><animate attributeName="stroke-dashoffset" values="47.274" fill="freeze" begin="8302.click" /><animate attributeName="stroke-dashoffset" values="47.274;47.274;0" keyTimes="0;0.673;1" dur="1.446s" fill="freeze" begin="0s;8302.click" /></path><path d="M25.75,51.53c2.33,0.22,4.7-0.13,7-0.45c12.98-1.81,25.13-3.71,39.13-4.91c3.27-0.28,6.03-0.07,9.39,0.51" stroke-dasharray="55.907" stroke-dashoffset="55.907"><animate attributeName="stroke-dashoffset" values="55.907" fill="freeze" begin="8302.click" /><animate attributeName="stroke-dashoffset" values="55.907;55.907;0" keyTimes="0;0.721;1" dur="2.005s" fill="freeze" begin="0s;8302.click" /></path><path d="M52.92,34.75c1.79,1.37,2.36,3.24,2.65,6.19c2.29,23.05,13.19,45.43,34.21,54.55c6.95,3.01,5.68,1.09,4.79-4.97" stroke-dasharray="86.208" stroke-dashoffset="86.208"><animate attributeName="stroke-dashoffset" values="86.208" fill="freeze" begin="8302.click" /><animate attributeName="stroke-dashoffset" values="86.208;86.208;0" keyTimes="0;0.756;1" dur="2.653s" fill="freeze" begin="0s;8302.click" /></path><path d="M76.98,56.3c0.11,0.83-0.15,1.95-0.72,3.09C72.5,67,61.75,82.12,40.39,92.49" stroke-dasharray="52.843" stroke-dashoffset="52.843"><animate attributeName="stroke-dashoffset" values="52.843" fill="freeze" begin="8302.click" /><animate attributeName="stroke-dashoffset" values="52.843;52.843;0" keyTimes="0;0.834;1" dur="3.181s" fill="freeze" begin="0s;8302.click" /></path><path d="M81.61,33.82c3.26,2.11,8.46,6.94,9.98,10.56" stroke-dasharray="14.685" stroke-dashoffset="14.685"><animate attributeName="stroke-dashoffset" values="14.685" fill="freeze" begin="8302.click" /><animate attributeName="stroke-dashoffset" values="14.685;14.685;0" keyTimes="0;0.956;1" dur="3.328s" fill="freeze" begin="0s;8302.click" /></path></g></svg>