<svg xmlns="http://www.w3.org/2000/svg" viewBox="0 0 109 109" id="8305"><g fill="none" stroke="#666" stroke-width="6" stroke-linecap="round" stroke-linejoin="round"><g><g><path d="M20.25,24.02c3.12,0.48,6.18,0.46,8.87,0.15c14.75-1.67,37.19-3.69,51.25-4.28c3.34-0.14,6.37-0.17,9.62,0.63" /><path d="M38.75,12.25c1.19,1.19,1.6,2.61,1.75,3.5c1,6,1.75,11.5,2.25,14.5" /><path d="M67.75,10.5c0.42,1.18,0.41,2.28,0,3.75c-1.25,4.5-2.5,10.5-3.25,13" /></g><g><g><g><path d="M33.06,36.09c2.42,0.64,4.75,0.6,7.18,0.28c7.2-0.94,26.77-3.55,29.62-3.89c3.29-0.39,3.86,1.57,1.95,2.93c-4.19,2.97-12.17,8.93-14.37,10.58" /><path d="M48.04,42.2c2.55,1,9.16,4.87,10.37,7.5" /></g><g><path d="M22.35,55.61c3.01,0.8,5.86,0.46,8.88-0.02C47.75,53,68.5,50.88,82.39,50.65c7.74-0.13,0.38,7.02-2.6,8.55" /><g><path d="M56.2,55.64c4.05,5.61,6.3,22.61,2.45,36.28c-1.92,6.81-7.15,2.08-9.57-0.05" /></g></g></g><g><path d="M55.05,53.89c0.19,1.54-0.84,2.81-1.7,3.94c-6.43,8.46-17.23,20.42-34.71,29.75" /></g></g></g></g><g fill="none" stroke="#000" stroke-width="3" stroke-linecap="round" stroke-linejoin="round"><path d="M20.25,24.02c3.12,0.48,6.18,0.46,8.87,0.15c14.75-1.67,37.19-3.69,51.25-4.28c3.34-0.14,6.37-0.17,9.62,0.63" stroke-dasharray="70.011" stroke-dashoffset="70.011"><animate attributeName="stroke-dashoffset" values="70.011;70.011;0" dur="0.526s" fill="freeze" begin="0s;8305.click" /></path><path d="M38.75,12.25c1.19,1.19,1.6,2.61,1.75,3.5c1,6,1.75,11.5,2.25,14.5" stroke-dasharray="18.651" stroke-dashoffset="18.651"><animate attributeName="stroke-dashoffset" values="18.651" fill="freeze" begin="8305.click" /><animate attributeName="stroke-dashoffset" values="18.651;18.651;0" keyTimes="0;0.738;1" dur="0.713s" fill="freeze" begin="0s;8305.click" /></path><path d="M67.75,10.5c0.42,1.18,0.41,2.28,0,3.75c-1.25,4.5-2.5,10.5-3.25,13" stroke-dasharray="17.219" stroke-dashoffset="17.219"><animate attributeName="stroke-dashoffset" values="17.219" fill="freeze" begin="8305.click" /><animate attributeName="stroke-dashoffset" values="17.219;17.219;0" keyTimes="0;0.806;1" dur="0.885s" fill="freeze" begin="0s;8305.click" /></path><path d="M33.06,36.09c2.42,0.64,4.75,0.6,7.18,0.28c7.2-0.94,26.77-3.55,29.62-3.89c3.29-0.39,3.86,1.57,1.95,2.93c-4.19,2.97-12.17,8.93-14.37,10.58" stroke-dasharray="60.699" stroke-dashoffset="60.699"><animate attributeName="stroke-dashoffset" values="60.699" fill="freeze" begin="8305.click" /><animate attributeName="stroke-dashoffset" values="60.699;60.699;0" keyTimes="0;0.66;1" dur="1.341s" fill="freeze" begin="0s;8305.click" /></path><path d="M48.04,42.2c2.55,1,9.16,4.87,10.37,7.5" stroke-dasharray="12.967" stroke-dashoffset="12.967"><animate attributeName="stroke-dashoffset" values="12.967" fill="freeze" begin="8305.click" /><animate attributeName="stroke-dashoffset" values="12.967;12.967;0" keyTimes="0;0.838;1" dur="1.6s" fill="freeze" begin="0s;8305.click" /></path><path d="M22.35,55.61c3.01,0.8,5.86,0.46,8.88-0.02C47.75,53,68.5,50.88,82.39,50.65c7.74-0.13,0.38,7.02-2.6,8.55" stroke-dasharray="74.048" stroke-dashoffset="74.048"><animate attributeName="stroke-dashoffset" values="74.048" fill="freeze" begin="8305.click" /><animate attributeName="stroke-dashoffset" values="74.048;74.048;0" keyTimes="0;0.742;1" dur="2.157s" fill="freeze" begin="0s;8305.click" /></path><path d="M56.2,55.64c4.05,5.61,6.3,22.61,2.45,36.28c-1.92,6.81-7.15,2.08-9.57-0.05" stroke-dasharray="49.771" stroke-dashoffset="49.771"><animate attributeName="stroke-dashoffset" values="49.771" fill="freeze" begin="8305.click" /><animate attributeName="stroke-dashoffset" values="49.771;49.771;0" keyTimes="0;0.812;1" dur="2.655s" fill="freeze" begin="0s;8305.click" /></path><path d="M55.05,53.89c0.19,1.54-0.84,2.81-1.7,3.94c-6.43,8.46-17.23,20.42-34.71,29.75" stroke-dasharray="50.491" stroke-dashoffset="50.491"><animate attributeName="stroke-dashoffset" values="50.491" fill="freeze" begin="8305.click" /><animate attributeName="stroke-dashoffset" values="50.491;50.491;0" keyTimes="0;0.84;1" dur="3.16s" fill="freeze" begin="0s;8305.click" /></path></g></svg>