<svg xmlns="http://www.w3.org/2000/svg" width="109" height="109" viewBox="0 0 109 109" id="8332"><g fill="none" stroke="#666" stroke-width="9" stroke-linecap="round" stroke-linejoin="round"><g><g><g p5:part="1" p5:number="1" p5:partial xmlns:p5="http://kanjivg.tagaini.net"><g p5:partial><path d="M18.5,28.77c1.29,0.53,2.8,0.63,4.1,0.53c11.9-0.96,51.9-3.46,65.62-3.53c2.16-0.01,3.45,0.25,4.53,0.51" /></g></g><path d="M36.75,16c1.75,1.43,2.31,1.87,2.5,2.75C41,27,41.5,34.5,42,37.5" /><path d="M68.25,13.75c0.42,1.18,0.84,2.02,0.5,3.5C67.07,24.64,66,29.5,64.25,36.5" /></g><g><g p5:part="2" p5:number="1" p5:partial xmlns:p5="http://kanjivg.tagaini.net"><g><path d="M34.63,39.87c0.3,1.1,0.39,1.94-0.15,3.13C32,48.5,30,52.75,24.85,58.27c-0.55,0.59-0.63,2.69,0,2.76c3.9,0.47,10.87,2.95,13.59,4.97" /><path d="M49.79,47.62c0.42,1.38,0.18,4.23-0.39,5C41.64,63.25,32.09,75.5,20.75,89.37c-1.3,1.59-0.78,2.45,0.78,2c10.72-3.12,17.47-4.62,26.75-7.5" /><path d="M42.04,74.12c3.5,3.26,9.04,13.42,9.91,18.5" /></g></g><g p5:part="1" p5:number="2" p5:partial xmlns:p5="http://kanjivg.tagaini.net"><g><path d="M70.62,40.62c0.34,1.18,0.41,2.05-0.17,3.34C67.75,50,63,56.75,58.59,61.71c-0.59,0.67-0.67,2.72,0,2.95c3.53,1.18,12.63,2.78,15.66,4.94" /><path d="M84.66,50.36c0.37,1.3,0.15,3.98-0.34,4.71c-6.57,9.68-14.7,22.06-24.66,35.12c-1.14,1.5-0.71,2.21,0.69,1.88c8.42-1.99,19.4-5.71,26.76-7.59" /><path d="M80.91,75.57c3.63,3.36,9.39,13.82,10.29,19.05" /></g></g></g></g></g><g fill="none" stroke="#000" stroke-width="5" stroke-linecap="round" stroke-linejoin="round"><g><g><g p5:part="1" p5:number="1" p5:partial xmlns:p5="http://kanjivg.tagaini.net"><g p5:partial><path d="M18.5,28.77c1.29,0.53,2.8,0.63,4.1,0.53c11.9-0.96,51.9-3.46,65.62-3.53c2.16-0.01,3.45,0.25,4.53,0.51" stroke-dasharray="74.46" stroke-dashoffset="74.46"><animate id="0" attributeName="stroke-dashoffset" values="74.46;0" dur="0.56s" fill="freeze" begin="0s;8332.click" /></path></g></g><path d="M36.75,16c1.75,1.43,2.31,1.87,2.5,2.75C41,27,41.5,34.5,42,37.5" stroke-dasharray="22.75" stroke-dashoffset="22.75"><animate attributeName="stroke-dashoffset" values="22.75" fill="freeze" begin="8332.click" /><animate id="1" attributeName="stroke-dashoffset" values="22.75;0" dur="0.23s" fill="freeze" begin="0.end" /></path><path d="M68.25,13.75c0.42,1.18,0.84,2.02,0.5,3.5C67.07,24.64,66,29.5,64.25,36.5" stroke-dasharray="23.37" stroke-dashoffset="23.37"><animate attributeName="stroke-dashoffset" values="23.37" fill="freeze" begin="8332.click" /><animate id="2" attributeName="stroke-dashoffset" values="23.37;0" dur="0.23s" fill="freeze" begin="1.end" /></path></g><g><g p5:part="2" p5:number="1" p5:partial xmlns:p5="http://kanjivg.tagaini.net"><g><path d="M34.63,39.87c0.3,1.1,0.39,1.94-0.15,3.13C32,48.5,30,52.75,24.85,58.27c-0.55,0.59-0.63,2.69,0,2.76c3.9,0.47,10.87,2.95,13.59,4.97" stroke-dasharray="38.96" stroke-dashoffset="38.96"><animate attributeName="stroke-dashoffset" values="38.96" fill="freeze" begin="8332.click" /><animate id="3" attributeName="stroke-dashoffset" values="38.96;0" dur="0.39s" fill="freeze" begin="2.end" /></path><path d="M49.79,47.62c0.42,1.38,0.18,4.23-0.39,5C41.64,63.25,32.09,75.5,20.75,89.37c-1.3,1.59-0.78,2.45,0.78,2c10.72-3.12,17.47-4.62,26.75-7.5" stroke-dasharray="83.07" stroke-dashoffset="83.07"><animate attributeName="stroke-dashoffset" values="83.07" fill="freeze" begin="8332.click" /><animate id="4" attributeName="stroke-dashoffset" values="83.07;0" dur="0.62s" fill="freeze" begin="3.end" /></path><path d="M42.04,74.12c3.5,3.26,9.04,13.42,9.91,18.5" stroke-dasharray="21.2" stroke-dashoffset="21.2"><animate attributeName="stroke-dashoffset" values="21.2" fill="freeze" begin="8332.click" /><animate id="5" attributeName="stroke-dashoffset" values="21.2;0" dur="0.21s" fill="freeze" begin="4.end" /></path></g></g><g p5:part="1" p5:number="2" p5:partial xmlns:p5="http://kanjivg.tagaini.net"><g><path d="M70.62,40.62c0.34,1.18,0.41,2.05-0.17,3.34C67.75,50,63,56.75,58.59,61.71c-0.59,0.67-0.67,2.72,0,2.95c3.53,1.18,12.63,2.78,15.66,4.94" stroke-dasharray="44.54" stroke-dashoffset="44.54"><animate attributeName="stroke-dashoffset" values="44.54" fill="freeze" begin="8332.click" /><animate id="6" attributeName="stroke-dashoffset" values="44.54;0" dur="0.45s" fill="freeze" begin="5.end" /></path><path d="M84.66,50.36c0.37,1.3,0.15,3.98-0.34,4.71c-6.57,9.68-14.7,22.06-24.66,35.12c-1.14,1.5-0.71,2.21,0.69,1.88c8.42-1.99,19.4-5.71,26.76-7.59" stroke-dasharray="78.77" stroke-dashoffset="78.77"><animate attributeName="stroke-dashoffset" values="78.77" fill="freeze" begin="8332.click" /><animate id="7" attributeName="stroke-dashoffset" values="78.77;0" dur="0.59s" fill="freeze" begin="6.end" /></path><path d="M80.91,75.57c3.63,3.36,9.39,13.82,10.29,19.05" stroke-dasharray="21.87" stroke-dashoffset="21.87"><animate attributeName="stroke-dashoffset" values="21.87" fill="freeze" begin="8332.click" /><animate id="8" attributeName="stroke-dashoffset" values="21.87;0" dur="0.22s" fill="freeze" begin="7.end" /></path></g></g></g></g></g></svg>