<svg xmlns="http://www.w3.org/2000/svg" width="109" height="109" viewBox="0 0 109 109" id="8332"><g fill="none" stroke="#666" stroke-width="6" stroke-linecap="round" stroke-linejoin="round"><g><g><g p5:number="1" p5:partial xmlns:p5="http://kanjivg.tagaini.net"><g p5:partial><path d="M18.5,28.77c1.29,0.53,2.8,0.63,4.1,0.53c11.9-0.96,51.9-3.46,65.62-3.53c2.16-0.01,3.45,0.25,4.53,0.51" /></g></g><path d="M36.75,16c1.75,1.43,2.31,1.87,2.5,2.75C41,27,41.5,34.5,42,37.5" /><path d="M68.25,13.75c0.42,1.18,0.84,2.02,0.5,3.5C67.07,24.64,66,29.5,64.25,36.5" /></g><g><g p5:number="1" p5:partial xmlns:p5="http://kanjivg.tagaini.net"><g><path d="M34.63,39.87c0.3,1.1,0.39,1.94-0.15,3.13C32,48.5,30,52.75,24.85,58.27c-0.55,0.59-0.63,2.69,0,2.76c3.9,0.47,10.87,2.95,13.59,4.97" /><path d="M49.79,47.62c0.42,1.38,0.18,4.23-0.39,5C41.64,63.25,32.09,75.5,20.75,89.37c-1.3,1.59-0.78,2.45,0.78,2c10.72-3.12,17.47-4.62,26.75-7.5" /><path d="M42.04,74.12c3.5,3.26,9.04,13.42,9.91,18.5" /></g></g><g p5:number="2" p5:partial xmlns:p5="http://kanjivg.tagaini.net"><g><path d="M70.62,40.62c0.34,1.18,0.41,2.05-0.17,3.34C67.75,50,63,56.75,58.59,61.71c-0.59,0.67-0.67,2.72,0,2.95c3.53,1.18,12.63,2.78,15.66,4.94" /><path d="M84.66,50.36c0.37,1.3,0.15,3.98-0.34,4.71c-6.57,9.68-14.7,22.06-24.66,35.12c-1.14,1.5-0.71,2.21,0.69,1.88c8.42-1.99,19.4-5.71,26.76-7.59" /><path d="M80.91,75.57c3.63,3.36,9.39,13.82,10.29,19.05" /></g></g></g></g></g><g fill="none" stroke="#000" stroke-width="3" stroke-linecap="round" stroke-linejoin="round"><path d="M18.5,28.77c1.29,0.53,2.8,0.63,4.1,0.53c11.9-0.96,51.9-3.46,65.62-3.53c2.16-0.01,3.45,0.25,4.53,0.51" stroke-dasharray="74.465" stroke-dashoffset="74.465"><animate attributeName="stroke-dashoffset" values="74.465;74.465;0" dur="0.56s" fill="freeze" begin="0s;8332.click" /></path><path d="M36.75,16c1.75,1.43,2.31,1.87,2.5,2.75C41,27,41.5,34.5,42,37.5" stroke-dasharray="22.747" stroke-dashoffset="22.747"><animate attributeName="stroke-dashoffset" values="22.747" fill="freeze" begin="8332.click" /><animate attributeName="stroke-dashoffset" values="22.747;22.747;0" keyTimes="0;0.712;1" dur="0.787s" fill="freeze" begin="0s;8332.click" /></path><path d="M68.25,13.75c0.42,1.18,0.84,2.02,0.5,3.5C67.07,24.64,66,29.5,64.25,36.5" stroke-dasharray="23.373" stroke-dashoffset="23.373"><animate attributeName="stroke-dashoffset" values="23.373" fill="freeze" begin="8332.click" /><animate attributeName="stroke-dashoffset" values="23.373;23.373;0" keyTimes="0;0.771;1" dur="1.021s" fill="freeze" begin="0s;8332.click" /></path><path d="M34.63,39.87c0.3,1.1,0.39,1.94-0.15,3.13C32,48.5,30,52.75,24.85,58.27c-0.55,0.59-0.63,2.69,0,2.76c3.9,0.47,10.87,2.95,13.59,4.97" stroke-dasharray="38.962" stroke-dashoffset="38.962"><animate attributeName="stroke-dashoffset" values="38.962" fill="freeze" begin="8332.click" /><animate attributeName="stroke-dashoffset" values="38.962;38.962;0" keyTimes="0;0.724;1" dur="1.411s" fill="freeze" begin="0s;8332.click" /></path><path d="M49.79,47.62c0.42,1.38,0.18,4.23-0.39,5C41.64,63.25,32.09,75.5,20.75,89.37c-1.3,1.59-0.78,2.45,0.78,2c10.72-3.12,17.47-4.62,26.75-7.5" stroke-dasharray="83.075" stroke-dashoffset="83.075"><animate attributeName="stroke-dashoffset" values="83.075" fill="freeze" begin="8332.click" /><animate attributeName="stroke-dashoffset" values="83.075;83.075;0" keyTimes="0;0.693;1" dur="2.036s" fill="freeze" begin="0s;8332.click" /></path><path d="M42.04,74.12c3.5,3.26,9.04,13.42,9.91,18.5" stroke-dasharray="21.197" stroke-dashoffset="21.197"><animate attributeName="stroke-dashoffset" values="21.197" fill="freeze" begin="8332.click" /><animate attributeName="stroke-dashoffset" values="21.197;21.197;0" keyTimes="0;0.906;1" dur="2.248s" fill="freeze" begin="0s;8332.click" /></path><path d="M70.62,40.62c0.34,1.18,0.41,2.05-0.17,3.34C67.75,50,63,56.75,58.59,61.71c-0.59,0.67-0.67,2.72,0,2.95c3.53,1.18,12.63,2.78,15.66,4.94" stroke-dasharray="44.536" stroke-dashoffset="44.536"><animate attributeName="stroke-dashoffset" values="44.536" fill="freeze" begin="8332.click" /><animate attributeName="stroke-dashoffset" values="44.536;44.536;0" keyTimes="0;0.835;1" dur="2.693s" fill="freeze" begin="0s;8332.click" /></path><path d="M84.66,50.36c0.37,1.3,0.15,3.98-0.34,4.71c-6.57,9.68-14.7,22.06-24.66,35.12c-1.14,1.5-0.71,2.21,0.69,1.88c8.42-1.99,19.4-5.71,26.76-7.59" stroke-dasharray="78.767" stroke-dashoffset="78.767"><animate attributeName="stroke-dashoffset" values="78.767" fill="freeze" begin="8332.click" /><animate attributeName="stroke-dashoffset" values="78.767;78.767;0" keyTimes="0;0.82;1" dur="3.285s" fill="freeze" begin="0s;8332.click" /></path><path d="M80.91,75.57c3.63,3.36,9.39,13.82,10.29,19.05" stroke-dasharray="21.87" stroke-dashoffset="21.87"><animate attributeName="stroke-dashoffset" values="21.87" fill="freeze" begin="8332.click" /><animate attributeName="stroke-dashoffset" values="21.87;21.87;0" keyTimes="0;0.938;1" dur="3.504s" fill="freeze" begin="0s;8332.click" /></path></g></svg>