<svg xmlns="http://www.w3.org/2000/svg" width="109" height="109" viewBox="0 0 109 109" id="8373"><g fill="none" stroke="#666" stroke-width="9" stroke-linecap="round" stroke-linejoin="round"><g><g><path d="M17.67,23.67c1.29,0.53,5.54,0.8,6.83,0.67C37,23,71.12,20.74,84.83,20.67c2.16-0.01,6.92,0.4,8,0.67" /><path d="M36.5,12c2.67,0.83,3.8,2.47,4,3.33c1.86,8.06,2.13,14.4,2.67,17.33" /><path d="M66.17,10.5c1.33,1,2.06,2.4,1.77,3.86c-0.86,4.43-1.36,11.65-2.6,17.31" /></g><g><g><path d="M25.17,38c1.04,0.49,3.58,1,7.17,0.83C43.1,38.33,61,37,79.17,36c1.72-0.09,5.14-0.08,6,0.17" /></g><g><g><path d="M32.33,48.83c0.58,0.34,1.57,2.29,1.68,2.74c0.79,3.28,2.1,9.97,3.15,16.59" /><path d="M34,50.17c7.77-0.65,32.2-2.23,37.5-2.33c2.19-0.04,3.71,1.23,3.51,3.17c-0.34,3.33-2.5,8.49-4.17,13.33" /><path d="M38,66.17c5.82,0,27.47-1.57,35.5-1.67" /></g><path d="M35,72.8c2.87,2.83,7.42,11.63,8.14,16.03" /><path d="M71.11,68.87c0.02,0.51,0.22,1.86-0.05,2.54c-1.81,4.59-3.93,13.26-8.51,19.06" /><path d="M19.17,94.33c1.47,0.38,4.22,1.31,5.69,1.2c17.25-1.25,45.31-3.03,62.13-2.63c2.45,0.06,4.79,1.07,6.02,1.26" /></g></g></g></g><g fill="none" stroke="#000" stroke-width="5" stroke-linecap="round" stroke-linejoin="round"><path d="M17.67,23.67c1.29,0.53,5.54,0.8,6.83,0.67C37,23,71.12,20.74,84.83,20.67c2.16-0.01,6.92,0.4,8,0.67" stroke-dasharray="75.385" stroke-dashoffset="75.385"><animate attributeName="stroke-dashoffset" values="75.385;75.385;0" dur="0.567s" fill="freeze" begin="0s;8373.click" /></path><path d="M36.5,12c2.67,0.83,3.8,2.47,4,3.33c1.86,8.06,2.13,14.4,2.67,17.33" stroke-dasharray="22.953" stroke-dashoffset="22.953"><animate attributeName="stroke-dashoffset" values="22.953" fill="freeze" begin="8373.click" /><animate attributeName="stroke-dashoffset" values="22.953;22.953;0" keyTimes="0;0.711;1" dur="0.797s" fill="freeze" begin="0s;8373.click" /></path><path d="M66.17,10.5c1.33,1,2.06,2.4,1.77,3.86c-0.86,4.43-1.36,11.65-2.6,17.31" stroke-dasharray="21.997" stroke-dashoffset="21.997"><animate attributeName="stroke-dashoffset" values="21.997" fill="freeze" begin="8373.click" /><animate attributeName="stroke-dashoffset" values="21.997;21.997;0" keyTimes="0;0.784;1" dur="1.017s" fill="freeze" begin="0s;8373.click" /></path><path d="M25.17,38c1.04,0.49,3.58,1,7.17,0.83C43.1,38.33,61,37,79.17,36c1.72-0.09,5.14-0.08,6,0.17" stroke-dasharray="60.201" stroke-dashoffset="60.201"><animate attributeName="stroke-dashoffset" values="60.201" fill="freeze" begin="8373.click" /><animate attributeName="stroke-dashoffset" values="60.201;60.201;0" keyTimes="0;0.692;1" dur="1.47s" fill="freeze" begin="0s;8373.click" /></path><path d="M32.33,48.83c0.58,0.34,1.57,2.29,1.68,2.74c0.79,3.28,2.1,9.97,3.15,16.59" stroke-dasharray="20.139" stroke-dashoffset="20.139"><animate attributeName="stroke-dashoffset" values="20.139" fill="freeze" begin="8373.click" /><animate attributeName="stroke-dashoffset" values="20.139;20.139;0" keyTimes="0;0.88;1" dur="1.671s" fill="freeze" begin="0s;8373.click" /></path><path d="M34,50.17c7.77-0.65,32.2-2.23,37.5-2.33c2.19-0.04,3.71,1.23,3.51,3.17c-0.34,3.33-2.5,8.49-4.17,13.33" stroke-dasharray="56.996" stroke-dashoffset="56.996"><animate attributeName="stroke-dashoffset" values="56.996" fill="freeze" begin="8373.click" /><animate attributeName="stroke-dashoffset" values="56.996;56.996;0" keyTimes="0;0.746;1" dur="2.241s" fill="freeze" begin="0s;8373.click" /></path><path d="M38,66.17c5.82,0,27.47-1.57,35.5-1.67" stroke-dasharray="35.543" stroke-dashoffset="35.543"><animate attributeName="stroke-dashoffset" values="35.543" fill="freeze" begin="8373.click" /><animate attributeName="stroke-dashoffset" values="35.543;35.543;0" keyTimes="0;0.863;1" dur="2.596s" fill="freeze" begin="0s;8373.click" /></path><path d="M35,72.8c2.87,2.83,7.42,11.63,8.14,16.03" stroke-dasharray="18.147" stroke-dashoffset="18.147"><animate attributeName="stroke-dashoffset" values="18.147" fill="freeze" begin="8373.click" /><animate attributeName="stroke-dashoffset" values="18.147;18.147;0" keyTimes="0;0.935;1" dur="2.777s" fill="freeze" begin="0s;8373.click" /></path><path d="M71.11,68.87c0.02,0.51,0.22,1.86-0.05,2.54c-1.81,4.59-3.93,13.26-8.51,19.06" stroke-dasharray="23.532" stroke-dashoffset="23.532"><animate attributeName="stroke-dashoffset" values="23.532" fill="freeze" begin="8373.click" /><animate attributeName="stroke-dashoffset" values="23.532;23.532;0" keyTimes="0;0.922;1" dur="3.012s" fill="freeze" begin="0s;8373.click" /></path><path d="M19.17,94.33c1.47,0.38,4.22,1.31,5.69,1.2c17.25-1.25,45.31-3.03,62.13-2.63c2.45,0.06,4.79,1.07,6.02,1.26" stroke-dasharray="74.209" stroke-dashoffset="74.209"><animate attributeName="stroke-dashoffset" values="74.209" fill="freeze" begin="8373.click" /><animate attributeName="stroke-dashoffset" values="74.209;74.209;0" keyTimes="0;0.844;1" dur="3.57s" fill="freeze" begin="0s;8373.click" /></path></g></svg>