<svg xmlns="http://www.w3.org/2000/svg" viewBox="0 0 109 109" id="839e"><g fill="none" stroke="#666" stroke-width="6" stroke-linecap="round" stroke-linejoin="round"><g><g><path d="M20.25,24.02c3.25,0.73,6.23,0.44,9.11,0.1c15.89-1.87,38.03-3.71,51.76-4.24c3.12-0.12,6.31-0.1,9.38,0.65" /><path d="M38.62,12.12c1,0.75,1.64,1.61,1.92,3.12c1.15,6.35,2.13,12.7,2.46,15.01" /><path d="M67.58,10.5c0.42,1,0.5,1.96,0.26,2.99c-1.41,6.05-2.05,8.57-3.59,14.26" /></g><g><g><path d="M52.76,28.5c0.93,0.93,1.27,2.25,1.27,3.47c0,1.16-0.03,4.13-0.03,5.53" /><g><path d="M25.6,38.52c0,3.41-2.22,10.36-4.51,15.07" /><path d="M26.35,41.6c13.03-1.1,39.65-4.35,55.31-5.31c9.83-0.6-0.32,8.25-1.86,9.1" /></g></g><g><g><path d="M37.32,52.18c2.03,0.5,4.02,0.42,6.05,0.14c6.68-0.9,13.25-1.95,19.38-2.58c1.91-0.2,3.64-0.28,5.54,0" /><path d="M28.08,66.67c2.92,0.58,5.97,0.26,8.68-0.06c8.66-1,23.17-3.18,33.61-3.99c2.86-0.22,5.72-0.5,8.54,0.11" /></g><g><g><path d="M44.99,69.5c0.14,1.34-0.02,2.54-0.5,3.8c-2.4,6.27-11.26,18.78-24.83,25.12" /></g><path d="M59.99,66.87c0.95,0.95,1.12,2.59,1.12,4.43c0,3.7-0.03,9.45-0.03,13.45c0,9,1.17,11.28,16.17,11.28c14.75,0,16.39-1.53,16.39-8.87" /></g></g></g></g></g><g fill="none" stroke="#000" stroke-width="3" stroke-linecap="round" stroke-linejoin="round"><path d="M20.25,24.02c3.25,0.73,6.23,0.44,9.11,0.1c15.89-1.87,38.03-3.71,51.76-4.24c3.12-0.12,6.31-0.1,9.38,0.65" stroke-dasharray="70.537" stroke-dashoffset="70.537"><animate attributeName="stroke-dashoffset" values="70.537;70.537;0" dur="0.53s" fill="freeze" begin="0s;839e.click" /></path><path d="M38.62,12.12c1,0.75,1.64,1.61,1.92,3.12c1.15,6.35,2.13,12.7,2.46,15.01" stroke-dasharray="18.976" stroke-dashoffset="18.976"><animate attributeName="stroke-dashoffset" values="18.976" fill="freeze" begin="839e.click" /><animate attributeName="stroke-dashoffset" values="18.976;18.976;0" keyTimes="0;0.736;1" dur="0.72s" fill="freeze" begin="0s;839e.click" /></path><path d="M67.58,10.5c0.42,1,0.5,1.96,0.26,2.99c-1.41,6.05-2.05,8.57-3.59,14.26" stroke-dasharray="17.762" stroke-dashoffset="17.762"><animate attributeName="stroke-dashoffset" values="17.762" fill="freeze" begin="839e.click" /><animate attributeName="stroke-dashoffset" values="17.762;17.762;0" keyTimes="0;0.802;1" dur="0.898s" fill="freeze" begin="0s;839e.click" /></path><path d="M52.76,28.5c0.93,0.93,1.27,2.25,1.27,3.47c0,1.16-0.03,4.13-0.03,5.53" stroke-dasharray="9.323" stroke-dashoffset="9.323"><animate attributeName="stroke-dashoffset" values="9.323" fill="freeze" begin="839e.click" /><animate attributeName="stroke-dashoffset" values="9.323;9.323;0" keyTimes="0;0.828;1" dur="1.084s" fill="freeze" begin="0s;839e.click" /></path><path d="M25.6,38.52c0,3.41-2.22,10.36-4.51,15.07" stroke-dasharray="15.821" stroke-dashoffset="15.821"><animate attributeName="stroke-dashoffset" values="15.821" fill="freeze" begin="839e.click" /><animate attributeName="stroke-dashoffset" values="15.821;15.821;0" keyTimes="0;0.873;1" dur="1.242s" fill="freeze" begin="0s;839e.click" /></path><path d="M26.35,41.6c13.03-1.1,39.65-4.35,55.31-5.31c9.83-0.6-0.32,8.25-1.86,9.1" stroke-dasharray="70.471" stroke-dashoffset="70.471"><animate attributeName="stroke-dashoffset" values="70.471" fill="freeze" begin="839e.click" /><animate attributeName="stroke-dashoffset" values="70.471;70.471;0" keyTimes="0;0.701;1" dur="1.772s" fill="freeze" begin="0s;839e.click" /></path><path d="M37.32,52.18c2.03,0.5,4.02,0.42,6.05,0.14c6.68-0.9,13.25-1.95,19.38-2.58c1.91-0.2,3.64-0.28,5.54,0" stroke-dasharray="31.198" stroke-dashoffset="31.198"><animate attributeName="stroke-dashoffset" values="31.198" fill="freeze" begin="839e.click" /><animate attributeName="stroke-dashoffset" values="31.198;31.198;0" keyTimes="0;0.85;1" dur="2.084s" fill="freeze" begin="0s;839e.click" /></path><path d="M28.08,66.67c2.92,0.58,5.97,0.26,8.68-0.06c8.66-1,23.17-3.18,33.61-3.99c2.86-0.22,5.72-0.5,8.54,0.11" stroke-dasharray="51.141" stroke-dashoffset="51.141"><animate attributeName="stroke-dashoffset" values="51.141" fill="freeze" begin="839e.click" /><animate attributeName="stroke-dashoffset" values="51.141;51.141;0" keyTimes="0;0.803;1" dur="2.595s" fill="freeze" begin="0s;839e.click" /></path><path d="M44.99,69.5c0.14,1.34-0.02,2.54-0.5,3.8c-2.4,6.27-11.26,18.78-24.83,25.12" stroke-dasharray="39.911" stroke-dashoffset="39.911"><animate attributeName="stroke-dashoffset" values="39.911" fill="freeze" begin="839e.click" /><animate attributeName="stroke-dashoffset" values="39.911;39.911;0" keyTimes="0;0.867;1" dur="2.994s" fill="freeze" begin="0s;839e.click" /></path><path d="M59.99,66.87c0.95,0.95,1.12,2.59,1.12,4.43c0,3.7-0.03,9.45-0.03,13.45c0,9,1.17,11.28,16.17,11.28c14.75,0,16.39-1.53,16.39-8.87" stroke-dasharray="63.95" stroke-dashoffset="63.95"><animate attributeName="stroke-dashoffset" values="63.95" fill="freeze" begin="839e.click" /><animate attributeName="stroke-dashoffset" values="63.95;63.95;0" keyTimes="0;0.862;1" dur="3.475s" fill="freeze" begin="0s;839e.click" /></path></g></svg>