<svg xmlns="http://www.w3.org/2000/svg" width="109" height="109" viewBox="0 0 109 109" id="83d8"><g fill="none" stroke="#666" stroke-width="9" stroke-linecap="round" stroke-linejoin="round"><g><g><path d="M15.33,23.83c1.38,0.6,5.17,1.17,8.17,1c12.73-0.71,49.44-4.66,64.08-4.74c2.3-0.01,4.77,0.44,5.92,0.74" /><path d="M36.67,13.33c1.33,0.67,2.38,1.83,2.53,2.62c1.36,7.35,1.75,14.04,2.14,16.71" /><path d="M68.33,11.5c1.12,1,1.54,2.36,1.17,3.83c-1.12,4.5-2.54,9.75-4.17,15.5" /></g><g><g><path d="M15.67,50.5c0.34,0.18,2.33,1.25,4.67,1c3.86-0.41,19.12-1.89,25.34-2.78c0.9-0.13,4.09,0.27,4.66,0.44" /><path d="M35.5,33.83c0.84,0.36,2.33,2.42,2.33,4.67c0,0.74,0.17,54.18,0,58.67" /><path d="M36.92,52.31c-8.26,15.14-14.67,25.44-24.65,34.78" /><path d="M40.8,58.93c2.26,1.69,5.99,7.16,7.9,10.43" /></g><g><g><path d="M61.74,35.18c0.21,0.73,0.47,2.09,0.19,2.97c-2.04,6.32-5.89,15.17-12.08,21.29" /><path d="M71.05,32.53C75.5,33.5,85.02,50.5,90.63,54.52c2.17,1.55,2.95,2.39,5.05,2.89" /></g><g><path d="M68.17,57.67c0.41,0.62,1,2.53,0.66,3.28c-4.51,10.14-7.62,17.28-14.04,27.38c-1.56,2.46-1.05,4.73,1.5,3.97C64,90,77.28,86.01,84.83,84.5" /><path d="M78.08,73.12c4.9,4.14,12.1,16.45,13.33,22.89" /></g></g></g></g></g><g fill="none" stroke="#000" stroke-width="5" stroke-linecap="round" stroke-linejoin="round"><path d="M15.33,23.83c1.38,0.6,5.17,1.17,8.17,1c12.73-0.71,49.44-4.66,64.08-4.74c2.3-0.01,4.77,0.44,5.92,0.74" stroke-dasharray="78.525" stroke-dashoffset="78.525"><animate attributeName="stroke-dashoffset" values="78.525;78.525;0" dur="0.59s" fill="freeze" begin="0s;83d8.click" /></path><path d="M36.67,13.33c1.33,0.67,2.38,1.83,2.53,2.62c1.36,7.35,1.75,14.04,2.14,16.71" stroke-dasharray="20.592" stroke-dashoffset="20.592"><animate attributeName="stroke-dashoffset" values="20.592" fill="freeze" begin="83d8.click" /><animate attributeName="stroke-dashoffset" values="20.592;20.592;0" keyTimes="0;0.741;1" dur="0.796s" fill="freeze" begin="0s;83d8.click" /></path><path d="M68.33,11.5c1.12,1,1.54,2.36,1.17,3.83c-1.12,4.5-2.54,9.75-4.17,15.5" stroke-dasharray="20.278" stroke-dashoffset="20.278"><animate attributeName="stroke-dashoffset" values="20.278" fill="freeze" begin="83d8.click" /><animate attributeName="stroke-dashoffset" values="20.278;20.278;0" keyTimes="0;0.797;1" dur="0.999s" fill="freeze" begin="0s;83d8.click" /></path><path d="M15.67,50.5c0.34,0.18,2.33,1.25,4.67,1c3.86-0.41,19.12-1.89,25.34-2.78c0.9-0.13,4.09,0.27,4.66,0.44" stroke-dasharray="35.032" stroke-dashoffset="35.032"><animate attributeName="stroke-dashoffset" values="35.032" fill="freeze" begin="83d8.click" /><animate attributeName="stroke-dashoffset" values="35.032;35.032;0" keyTimes="0;0.741;1" dur="1.349s" fill="freeze" begin="0s;83d8.click" /></path><path d="M35.5,33.83c0.84,0.36,2.33,2.42,2.33,4.67c0,0.74,0.17,54.18,0,58.67" stroke-dasharray="64.095" stroke-dashoffset="64.095"><animate attributeName="stroke-dashoffset" values="64.095" fill="freeze" begin="83d8.click" /><animate attributeName="stroke-dashoffset" values="64.095;64.095;0" keyTimes="0;0.737;1" dur="1.831s" fill="freeze" begin="0s;83d8.click" /></path><path d="M36.92,52.31c-8.26,15.14-14.67,25.44-24.65,34.78" stroke-dasharray="42.831" stroke-dashoffset="42.831"><animate attributeName="stroke-dashoffset" values="42.831" fill="freeze" begin="83d8.click" /><animate attributeName="stroke-dashoffset" values="42.831;42.831;0" keyTimes="0;0.811;1" dur="2.259s" fill="freeze" begin="0s;83d8.click" /></path><path d="M40.8,58.93c2.26,1.69,5.99,7.16,7.9,10.43" stroke-dasharray="13.138" stroke-dashoffset="13.138"><animate attributeName="stroke-dashoffset" values="13.138" fill="freeze" begin="83d8.click" /><animate attributeName="stroke-dashoffset" values="13.138;13.138;0" keyTimes="0;0.945;1" dur="2.39s" fill="freeze" begin="0s;83d8.click" /></path><path d="M61.74,35.18c0.21,0.73,0.47,2.09,0.19,2.97c-2.04,6.32-5.89,15.17-12.08,21.29" stroke-dasharray="27.713" stroke-dashoffset="27.713"><animate attributeName="stroke-dashoffset" values="27.713" fill="freeze" begin="83d8.click" /><animate attributeName="stroke-dashoffset" values="27.713;27.713;0" keyTimes="0;0.896;1" dur="2.667s" fill="freeze" begin="0s;83d8.click" /></path><path d="M71.05,32.53C75.5,33.5,85.02,50.5,90.63,54.52c2.17,1.55,2.95,2.39,5.05,2.89" stroke-dasharray="35.53" stroke-dashoffset="35.53"><animate attributeName="stroke-dashoffset" values="35.53" fill="freeze" begin="83d8.click" /><animate attributeName="stroke-dashoffset" values="35.53;35.53;0" keyTimes="0;0.883;1" dur="3.022s" fill="freeze" begin="0s;83d8.click" /></path><path d="M68.17,57.67c0.41,0.62,1,2.53,0.66,3.28c-4.51,10.14-7.62,17.28-14.04,27.38c-1.56,2.46-1.05,4.73,1.5,3.97C64,90,77.28,86.01,84.83,84.5" stroke-dasharray="69.931" stroke-dashoffset="69.931"><animate attributeName="stroke-dashoffset" values="69.931" fill="freeze" begin="83d8.click" /><animate attributeName="stroke-dashoffset" values="69.931;69.931;0" keyTimes="0;0.852;1" dur="3.548s" fill="freeze" begin="0s;83d8.click" /></path><path d="M78.08,73.12c4.9,4.14,12.1,16.45,13.33,22.89" stroke-dasharray="26.793" stroke-dashoffset="26.793"><animate attributeName="stroke-dashoffset" values="26.793" fill="freeze" begin="83d8.click" /><animate attributeName="stroke-dashoffset" values="26.793;26.793;0" keyTimes="0;0.93;1" dur="3.816s" fill="freeze" begin="0s;83d8.click" /></path></g></svg>