<svg xmlns="http://www.w3.org/2000/svg" width="109" height="109" viewBox="0 0 109 109" id="83df"><g fill="none" stroke="#666" stroke-width="9" stroke-linecap="round" stroke-linejoin="round"><g><g><path d="M19,21.89c1.32,0.41,2.86,0.49,4.19,0.41c12.16-0.75,47.92-3.49,61.93-3.54c2.2-0.01,3.53,0.2,4.63,0.4" /><path d="M39.75,10.5c1.25,1.15,1.65,1.5,1.79,2.21c1.25,6.62,1.61,12.64,1.96,15.04" /><path d="M68.12,9.75c0.89,0.79,1.48,2,1.19,3.17c-0.89,3.57-1.49,9.52-2.78,14.08" /></g><g><g><g><g><g><path d="M48.13,30.4c0.07,0.44,0.14,1.15-0.14,1.79c-1.66,3.77-10.71,12.03-23.79,17.09" /><path d="M45.11,37.29c2.77,0,15.56-1.93,18.47-2.14c2.5-0.18,2.7,2.38,1.74,3.38C62,42,59.5,45,54.87,51.24" /></g><path d="M27.39,53.26c0.35,0.43,0.71,0.79,0.86,1.33c1.21,4.29,1.6,9.48,2.42,17.18" /><path d="M29.95,54.06c12.69-1.58,42.72-2.15,49.26-2.69c2.39-0.19,3.83,1.96,3.49,3.11c-1.42,4.74-2.94,10.27-4.07,13.65" /><path d="M53.35,53.77c0.77,0.81,1.07,2.42,1.07,3.43c0,3.84,0,8.08,0,9.69" /><path d="M31.12,69.32c5.13-0.4,42.16-2.12,47.81-2.33" /></g><g><g><path d="M45.11,71.23c0.08,0.68,0.17,1.75-0.16,2.73c-1.94,5.76-11.11,19.9-28.28,26.13" /></g><g><path d="M58.49,69.82c0.69,0.89,1.27,1.94,1.27,3.32c0,5.36,0.01,12.84,0.01,17.01c0,9.74,7.75,8.64,15.87,8.64c8.57,0,14.21-1.26,15.41-1.96c2.55-1.5,1.85-2.25,2.08-4.87" /></g></g></g></g><g><path d="M69.27,77.33c3.54,1.83,9.16,7.53,10.04,10.38" /></g></g></g></g><g fill="none" stroke="#000" stroke-width="5" stroke-linecap="round" stroke-linejoin="round"><g><g><path d="M19,21.89c1.32,0.41,2.86,0.49,4.19,0.41c12.16-0.75,47.92-3.49,61.93-3.54c2.2-0.01,3.53,0.2,4.63,0.4" stroke-dasharray="70.925" stroke-dashoffset="70.925"><animate attributeName="stroke-dashoffset" values="70.925;70.925;0" dur="0.533s" fill="freeze" begin="0s;83df.click" /></path><path d="M39.75,10.5c1.25,1.15,1.65,1.5,1.79,2.21c1.25,6.62,1.61,12.64,1.96,15.04" stroke-dasharray="18.068" stroke-dashoffset="18.068"><animate attributeName="stroke-dashoffset" values="18.068" fill="freeze" begin="83df.click" /><animate attributeName="stroke-dashoffset" values="18.068;18.068;0" keyTimes="0;0.746;1" dur="0.714s" fill="freeze" begin="0s;83df.click" /></path><path d="M68.12,9.75c0.89,0.79,1.48,2,1.19,3.17c-0.89,3.57-1.49,9.52-2.78,14.08" stroke-dasharray="17.915" stroke-dashoffset="17.915"><animate attributeName="stroke-dashoffset" values="17.915" fill="freeze" begin="83df.click" /><animate attributeName="stroke-dashoffset" values="17.915;17.915;0" keyTimes="0;0.8;1" dur="0.893s" fill="freeze" begin="0s;83df.click" /></path></g><g><g><g><g><g><path d="M48.13,30.4c0.07,0.44,0.14,1.15-0.14,1.79c-1.66,3.77-10.71,12.03-23.79,17.09" stroke-dasharray="31.583" stroke-dashoffset="31.583"><animate attributeName="stroke-dashoffset" values="31.583" fill="freeze" begin="83df.click" /><animate attributeName="stroke-dashoffset" values="31.583;31.583;0" keyTimes="0;0.739;1" dur="1.209s" fill="freeze" begin="0s;83df.click" /></path><path d="M45.11,37.29c2.77,0,15.56-1.93,18.47-2.14c2.5-0.18,2.7,2.38,1.74,3.38C62,42,59.5,45,54.87,51.24" stroke-dasharray="40.057" stroke-dashoffset="40.057"><animate attributeName="stroke-dashoffset" values="40.057" fill="freeze" begin="83df.click" /><animate attributeName="stroke-dashoffset" values="40.057;40.057;0" keyTimes="0;0.751;1" dur="1.61s" fill="freeze" begin="0s;83df.click" /></path></g><path d="M27.39,53.26c0.35,0.43,0.71,0.79,0.86,1.33c1.21,4.29,1.6,9.48,2.42,17.18" stroke-dasharray="18.968" stroke-dashoffset="18.968"><animate attributeName="stroke-dashoffset" values="18.968" fill="freeze" begin="83df.click" /><animate attributeName="stroke-dashoffset" values="18.968;18.968;0" keyTimes="0;0.894;1" dur="1.8s" fill="freeze" begin="0s;83df.click" /></path><path d="M29.95,54.06c12.69-1.58,42.72-2.15,49.26-2.69c2.39-0.19,3.83,1.96,3.49,3.11c-1.42,4.74-2.94,10.27-4.07,13.65" stroke-dasharray="68.925" stroke-dashoffset="68.925"><animate attributeName="stroke-dashoffset" values="68.925" fill="freeze" begin="83df.click" /><animate attributeName="stroke-dashoffset" values="68.925;68.925;0" keyTimes="0;0.777;1" dur="2.318s" fill="freeze" begin="0s;83df.click" /></path><path d="M53.35,53.77c0.77,0.81,1.07,2.42,1.07,3.43c0,3.84,0,8.08,0,9.69" stroke-dasharray="13.356" stroke-dashoffset="13.356"><animate attributeName="stroke-dashoffset" values="13.356" fill="freeze" begin="83df.click" /><animate attributeName="stroke-dashoffset" values="13.356;13.356;0" keyTimes="0;0.945;1" dur="2.452s" fill="freeze" begin="0s;83df.click" /></path><path d="M31.12,69.32c5.13-0.4,42.16-2.12,47.81-2.33" stroke-dasharray="47.868" stroke-dashoffset="47.868"><animate attributeName="stroke-dashoffset" values="47.868" fill="freeze" begin="83df.click" /><animate attributeName="stroke-dashoffset" values="47.868;47.868;0" keyTimes="0;0.837;1" dur="2.931s" fill="freeze" begin="0s;83df.click" /></path></g><g><g><path d="M45.11,71.23c0.08,0.68,0.17,1.75-0.16,2.73c-1.94,5.76-11.11,19.9-28.28,26.13" stroke-dasharray="42.342" stroke-dashoffset="42.342"><animate attributeName="stroke-dashoffset" values="42.342" fill="freeze" begin="83df.click" /><animate attributeName="stroke-dashoffset" values="42.342;42.342;0" keyTimes="0;0.874;1" dur="3.354s" fill="freeze" begin="0s;83df.click" /></path></g><g><path d="M58.49,69.82c0.69,0.89,1.27,1.94,1.27,3.32c0,5.36,0.01,12.84,0.01,17.01c0,9.74,7.75,8.64,15.87,8.64c8.57,0,14.21-1.26,15.41-1.96c2.55-1.5,1.85-2.25,2.08-4.87" stroke-dasharray="63.157" stroke-dashoffset="63.157"><animate attributeName="stroke-dashoffset" values="63.157" fill="freeze" begin="83df.click" /><animate attributeName="stroke-dashoffset" values="63.157;63.157;0" keyTimes="0;0.876;1" dur="3.829s" fill="freeze" begin="0s;83df.click" /></path></g></g></g></g><g><path d="M69.27,77.33c3.54,1.83,9.16,7.53,10.04,10.38" stroke-dasharray="14.652" stroke-dashoffset="14.652"><animate attributeName="stroke-dashoffset" values="14.652" fill="freeze" begin="83df.click" /><animate attributeName="stroke-dashoffset" values="14.652;14.652;0" keyTimes="0;0.963;1" dur="3.976s" fill="freeze" begin="0s;83df.click" /></path></g></g></g></g></svg>