<svg xmlns="http://www.w3.org/2000/svg" width="109" height="109" viewBox="0 0 109 109" id="83e0"><g fill="none" stroke="#666" stroke-width="9" stroke-linecap="round" stroke-linejoin="round"><g><g><path d="M15.83,23.83c1.29,0.53,7.04,0.27,8.33,0.17c11.9-0.96,48.11-4.43,61.83-4.5c2.16-0.01,6.26,0.57,7.33,0.83" /><path d="M35.17,12c2.33,0.5,2.82,2.15,3,3c1.69,7.99,2.08,13.5,2.33,18.17" /><path d="M67.83,10.5c1.32,0.89,1.35,3.13,1.04,4.49C67.75,20,67.5,22,65.27,29.33" /></g><g><g><path d="M21.93,35.69c3.89,1.68,10.04,5.78,11.01,8.39" /><path d="M16.3,55.82c4.09,1.2,10.57,5.46,11.59,7.32" /><path d="M15.75,94.74c2.75,0.76,3.33,0.75,4.92-1.57c4.63-6.77,10.99-16.33,15.2-24.96" /></g><g><path d="M45.33,46c0.6,0.98,0.82,2.46,0.83,4.5c0.19,24.53-4.92,36.75-12.2,47.36" /><path d="M46.83,47c11.67-2,31.21-3.95,36.6-4.04c9.17-0.16,6.75,3.44,1.24,7.54" /><path d="M63.67,33.83c0.93,0.34,1.83,2.67,1.83,4.33c0,0.71-0.08,16.26-0.08,23.23" /><path d="M49.17,64.17c1.27,0.37,2.08,0.39,4.67,0c3.81-0.58,21.85-3.11,23.67-3.5c4.55-0.97,5,1.08,3.04,4.58c-7.93,14.15-25.04,29-41.37,34.75" /><path d="M53.98,68.4c3.32,0.77,19.52,19.85,32.19,27.1c1.93,1.11,5.19,2,6.86,2.43" /></g></g></g></g><g fill="none" stroke="#000" stroke-width="5" stroke-linecap="round" stroke-linejoin="round"><g><g><path d="M15.83,23.83c1.29,0.53,7.04,0.27,8.33,0.17c11.9-0.96,48.11-4.43,61.83-4.5c2.16-0.01,6.26,0.57,7.33,0.83" stroke-dasharray="77.75" stroke-dashoffset="77.75"><animate id="0" attributeName="stroke-dashoffset" values="77.75;0" dur="0.58s" fill="freeze" begin="0s;83e0.click" /></path><path d="M35.17,12c2.33,0.5,2.82,2.15,3,3c1.69,7.99,2.08,13.5,2.33,18.17" stroke-dasharray="22.87" stroke-dashoffset="22.87"><animate attributeName="stroke-dashoffset" values="22.87" fill="freeze" begin="83e0.click" /><animate id="1" attributeName="stroke-dashoffset" values="22.87;0" dur="0.23s" fill="freeze" begin="0.end" /></path><path d="M67.83,10.5c1.32,0.89,1.35,3.13,1.04,4.49C67.75,20,67.5,22,65.27,29.33" stroke-dasharray="19.65" stroke-dashoffset="19.65"><animate attributeName="stroke-dashoffset" values="19.65" fill="freeze" begin="83e0.click" /><animate id="2" attributeName="stroke-dashoffset" values="19.65;0" dur="0.2s" fill="freeze" begin="1.end" /></path></g><g><g><path d="M21.93,35.69c3.89,1.68,10.04,5.78,11.01,8.39" stroke-dasharray="14.05" stroke-dashoffset="14.05"><animate attributeName="stroke-dashoffset" values="14.05" fill="freeze" begin="83e0.click" /><animate id="3" attributeName="stroke-dashoffset" values="14.05;0" dur="0.14s" fill="freeze" begin="2.end" /></path><path d="M16.3,55.82c4.09,1.2,10.57,5.46,11.59,7.32" stroke-dasharray="13.87" stroke-dashoffset="13.87"><animate attributeName="stroke-dashoffset" values="13.87" fill="freeze" begin="83e0.click" /><animate id="4" attributeName="stroke-dashoffset" values="13.87;0" dur="0.14s" fill="freeze" begin="3.end" /></path><path d="M15.75,94.74c2.75,0.76,3.33,0.75,4.92-1.57c4.63-6.77,10.99-16.33,15.2-24.96" stroke-dasharray="35.06" stroke-dashoffset="35.06"><animate attributeName="stroke-dashoffset" values="35.06" fill="freeze" begin="83e0.click" /><animate id="5" attributeName="stroke-dashoffset" values="35.06;0" dur="0.35s" fill="freeze" begin="4.end" /></path></g><g><path d="M45.33,46c0.6,0.98,0.82,2.46,0.83,4.5c0.19,24.53-4.92,36.75-12.2,47.36" stroke-dasharray="54.4" stroke-dashoffset="54.4"><animate attributeName="stroke-dashoffset" values="54.4" fill="freeze" begin="83e0.click" /><animate id="6" attributeName="stroke-dashoffset" values="54.4;0" dur="0.54s" fill="freeze" begin="5.end" /></path><path d="M46.83,47c11.67-2,31.21-3.95,36.6-4.04c9.17-0.16,6.75,3.44,1.24,7.54" stroke-dasharray="51.39" stroke-dashoffset="51.39"><animate attributeName="stroke-dashoffset" values="51.39" fill="freeze" begin="83e0.click" /><animate id="7" attributeName="stroke-dashoffset" values="51.39;0" dur="0.51s" fill="freeze" begin="6.end" /></path><path d="M63.67,33.83c0.93,0.34,1.83,2.67,1.83,4.33c0,0.71-0.08,16.26-0.08,23.23" stroke-dasharray="28.11" stroke-dashoffset="28.11"><animate attributeName="stroke-dashoffset" values="28.11" fill="freeze" begin="83e0.click" /><animate id="8" attributeName="stroke-dashoffset" values="28.11;0" dur="0.28s" fill="freeze" begin="7.end" /></path><path d="M49.17,64.17c1.27,0.37,2.08,0.39,4.67,0c3.81-0.58,21.85-3.11,23.67-3.5c4.55-0.97,5,1.08,3.04,4.58c-7.93,14.15-25.04,29-41.37,34.75" stroke-dasharray="92.16" stroke-dashoffset="92.16"><animate attributeName="stroke-dashoffset" values="92.16" fill="freeze" begin="83e0.click" /><animate id="9" attributeName="stroke-dashoffset" values="92.16;0" dur="0.69s" fill="freeze" begin="8.end" /></path><path d="M53.98,68.4c3.32,0.77,19.52,19.85,32.19,27.1c1.93,1.11,5.19,2,6.86,2.43" stroke-dasharray="49.5" stroke-dashoffset="49.5"><animate attributeName="stroke-dashoffset" values="49.5" fill="freeze" begin="83e0.click" /><animate id="10" attributeName="stroke-dashoffset" values="49.5;0" dur="0.5s" fill="freeze" begin="9.end" /></path></g></g></g></g></svg>