<svg xmlns="http://www.w3.org/2000/svg" viewBox="0 0 109 109" id="83f4"><g fill="none" stroke="#666" stroke-width="6" stroke-linecap="round" stroke-linejoin="round"><g><g><path d="M18.5,20.67c1.29,0.53,5,0.58,8,0.5c11.94-0.33,42.8-3.3,56.5-4c3.25-0.17,6.59,0.57,7.67,0.83" /><path d="M36.17,10.33c1.83,0.5,2.74,2.19,2.79,3.08c0.29,5.08,1.37,14.08,1.71,17.08" /><path d="M68.5,9c1.18,0.93,1.61,2.41,1.5,3.83c-0.34,4.2-1.67,10.33-3,16.33" /></g><g><g><path d="M16.83,39c1.22,0.64,4.42,1.25,9.83,1c17.56-0.81,39.5-2.86,55.19-3.78c2.7-0.16,7.38-0.39,9.81,0.11" /><path d="M49.93,24.25c0.41,1.1-0.06,2.73-0.56,3.99C43.75,42.25,26,60.75,12.25,68.46" /><path d="M63.97,38.47C70,46.5,75,52.75,88.09,60.12c1.92,1.08,2.55,1.34,3.41,1.46" /></g><g><g><path d="M29.67,57.5c0.37,0.52,1.19,2.85,1.29,3.59c0.29,2.16,2.58,21.84,2.71,22.57" /><path d="M31.67,59.67c3.46-0.36,35.85-3.14,39-3.5c2.62-0.3,3.41,2.55,3.17,4.33c-0.5,3.64-1.78,11.46-3.33,20.17" /><path d="M34.26,68.88c4.65-0.28,32.98-2.9,38.24-3.21" /><path d="M34.17,80.83c7.66-0.74,30.15-2.74,36.17-3.17" /></g><path d="M51.5,43.83c1.5,0.67,1.63,2.39,1.67,4.17c0.18,7.94-0.43,36.96-0.43,42.36c0,9.22,4.52,9.5,19.21,9.5c13.51,0,15.41-1.97,15.41-10.79" /></g></g></g></g><g fill="none" stroke="#000" stroke-width="3" stroke-linecap="round" stroke-linejoin="round"><path d="M18.5,20.67c1.29,0.53,5,0.58,8,0.5c11.94-0.33,42.8-3.3,56.5-4c3.25-0.17,6.59,0.57,7.67,0.83" stroke-dasharray="72.433" stroke-dashoffset="72.433"><animate attributeName="stroke-dashoffset" values="72.433;72.433;0" dur="0.545s" fill="freeze" begin="0s;83f4.click" /></path><path d="M36.17,10.33c1.83,0.5,2.74,2.19,2.79,3.08c0.29,5.08,1.37,14.08,1.71,17.08" stroke-dasharray="21.563" stroke-dashoffset="21.563"><animate attributeName="stroke-dashoffset" values="21.563" fill="freeze" begin="83f4.click" /><animate attributeName="stroke-dashoffset" values="21.563;21.563;0" keyTimes="0;0.716;1" dur="0.761s" fill="freeze" begin="0s;83f4.click" /></path><path d="M68.5,9c1.18,0.93,1.61,2.41,1.5,3.83c-0.34,4.2-1.67,10.33-3,16.33" stroke-dasharray="20.901" stroke-dashoffset="20.901"><animate attributeName="stroke-dashoffset" values="20.901" fill="freeze" begin="83f4.click" /><animate attributeName="stroke-dashoffset" values="20.901;20.901;0" keyTimes="0;0.785;1" dur="0.97s" fill="freeze" begin="0s;83f4.click" /></path><path d="M16.83,39c1.22,0.64,4.42,1.25,9.83,1c17.56-0.81,39.5-2.86,55.19-3.78c2.7-0.16,7.38-0.39,9.81,0.11" stroke-dasharray="75.111" stroke-dashoffset="75.111"><animate attributeName="stroke-dashoffset" values="75.111" fill="freeze" begin="83f4.click" /><animate attributeName="stroke-dashoffset" values="75.111;75.111;0" keyTimes="0;0.632;1" dur="1.535s" fill="freeze" begin="0s;83f4.click" /></path><path d="M49.93,24.25c0.41,1.1-0.06,2.73-0.56,3.99C43.75,42.25,26,60.75,12.25,68.46" stroke-dasharray="59.62" stroke-dashoffset="59.62"><animate attributeName="stroke-dashoffset" values="59.62" fill="freeze" begin="83f4.click" /><animate attributeName="stroke-dashoffset" values="59.62;59.62;0" keyTimes="0;0.72;1" dur="2.131s" fill="freeze" begin="0s;83f4.click" /></path><path d="M63.97,38.47C70,46.5,75,52.75,88.09,60.12c1.92,1.08,2.55,1.34,3.41,1.46" stroke-dasharray="36.449" stroke-dashoffset="36.449"><animate attributeName="stroke-dashoffset" values="36.449" fill="freeze" begin="83f4.click" /><animate attributeName="stroke-dashoffset" values="36.449;36.449;0" keyTimes="0;0.854;1" dur="2.495s" fill="freeze" begin="0s;83f4.click" /></path><path d="M29.67,57.5c0.37,0.52,1.19,2.85,1.29,3.59c0.29,2.16,2.58,21.84,2.71,22.57" stroke-dasharray="26.562" stroke-dashoffset="26.562"><animate attributeName="stroke-dashoffset" values="26.562" fill="freeze" begin="83f4.click" /><animate attributeName="stroke-dashoffset" values="26.562;26.562;0" keyTimes="0;0.904;1" dur="2.761s" fill="freeze" begin="0s;83f4.click" /></path><path d="M31.67,59.67c3.46-0.36,35.85-3.14,39-3.5c2.62-0.3,3.41,2.55,3.17,4.33c-0.5,3.64-1.78,11.46-3.33,20.17" stroke-dasharray="65.839" stroke-dashoffset="65.839"><animate attributeName="stroke-dashoffset" values="65.839" fill="freeze" begin="83f4.click" /><animate attributeName="stroke-dashoffset" values="65.839;65.839;0" keyTimes="0;0.848;1" dur="3.256s" fill="freeze" begin="0s;83f4.click" /></path><path d="M34.26,68.88c4.65-0.28,32.98-2.9,38.24-3.21" stroke-dasharray="38.376" stroke-dashoffset="38.376"><animate attributeName="stroke-dashoffset" values="38.376" fill="freeze" begin="83f4.click" /><animate attributeName="stroke-dashoffset" values="38.376;38.376;0" keyTimes="0;0.895;1" dur="3.64s" fill="freeze" begin="0s;83f4.click" /></path><path d="M34.17,80.83c7.66-0.74,30.15-2.74,36.17-3.17" stroke-dasharray="36.31" stroke-dashoffset="36.31"><animate attributeName="stroke-dashoffset" values="36.31" fill="freeze" begin="83f4.click" /><animate attributeName="stroke-dashoffset" values="36.31;36.31;0" keyTimes="0;0.909;1" dur="4.003s" fill="freeze" begin="0s;83f4.click" /></path><path d="M51.5,43.83c1.5,0.67,1.63,2.39,1.67,4.17c0.18,7.94-0.43,36.96-0.43,42.36c0,9.22,4.52,9.5,19.21,9.5c13.51,0,15.41-1.97,15.41-10.79" stroke-dasharray="94.79" stroke-dashoffset="94.79"><animate attributeName="stroke-dashoffset" values="94.79" fill="freeze" begin="83f4.click" /><animate attributeName="stroke-dashoffset" values="94.79;94.79;0" keyTimes="0;0.849;1" dur="4.716s" fill="freeze" begin="0s;83f4.click" /></path></g></svg>