<svg xmlns="http://www.w3.org/2000/svg" width="109" height="109" viewBox="0 0 109 109" id="8446"><g fill="none" stroke="#666" stroke-width="6" stroke-linecap="round" stroke-linejoin="round"><g><g><path d="M16.83,22.5c1.29,0.53,5.42,1,8.33,0.67c11.86-1.35,44.48-3.23,58.17-4.17c3.67-0.25,6.59,0.4,7.67,0.67" /><path d="M36.75,11.67c1,0.58,1.9,1.69,2.08,2.5c1.67,7.5,2,12,2.67,16.5" /><path d="M67.17,9.67c0.33,0.83,0.7,2.86,0.33,4.33c-1.12,4.5-3.04,9.42-4.67,15.17" /></g><g><g><path d="M35.32,33.71c0.26,1.44-0.26,3.26-0.9,4.55C30.44,46.27,26.07,54.53,14,64.07" /><path d="M27.33,52.5c0.54,0.57,1.56,2.56,1.62,3.73c0.51,10.93-0.94,37.4-0.5,44.11" /></g><g><g><path d="M43.83,35.67c0.37,0.34,1.92,2.38,2,2.83c0.67,4,1.29,8.72,2.17,14.83" /><path d="M46.83,36.33c9.21-1.04,25.66-2.87,29.73-3.32c1.49-0.16,2.39,0.97,2.17,1.93c-0.88,3.97-2.36,8.32-3.67,13.81" /><path d="M48.5,51.67c4.91-0.5,22.25-1.72,29-2.5" /></g><g><path d="M35.83,64.83c2.17,0.42,4.17,0.46,7,0.17c9.67-1,31.56-3.38,41.33-3.83c3.58-0.17,5.76,0.27,6.67,0.5" /><path d="M59.25,53c0.79,0.43,2.28,1.75,2.28,4c0,5.98,0,37.43-0.16,42.76" /><path d="M58.41,64.54c-4.4,7.85-13.9,18.47-23.05,22.91" /><path d="M64.06,64.56C68,70.5,81.25,83.5,89.96,88.05c1.67,0.87,2.74,1.67,4.21,2" /></g></g></g></g></g><g fill="none" stroke="#000" stroke-width="3" stroke-linecap="round" stroke-linejoin="round"><path d="M16.83,22.5c1.29,0.53,5.42,1,8.33,0.67c11.86-1.35,44.48-3.23,58.17-4.17c3.67-0.25,6.59,0.4,7.67,0.67" stroke-dasharray="74.461" stroke-dashoffset="74.461"><animate attributeName="stroke-dashoffset" values="74.461;74.461;0" dur="0.56s" fill="freeze" begin="0s;8446.click" /></path><path d="M36.75,11.67c1,0.58,1.9,1.69,2.08,2.5c1.67,7.5,2,12,2.67,16.5" stroke-dasharray="20.049" stroke-dashoffset="20.049"><animate attributeName="stroke-dashoffset" values="20.049" fill="freeze" begin="8446.click" /><animate attributeName="stroke-dashoffset" values="20.049;20.049;0" keyTimes="0;0.737;1" dur="0.76s" fill="freeze" begin="0s;8446.click" /></path><path d="M67.17,9.67c0.33,0.83,0.7,2.86,0.33,4.33c-1.12,4.5-3.04,9.42-4.67,15.17" stroke-dasharray="20.272" stroke-dashoffset="20.272"><animate attributeName="stroke-dashoffset" values="20.272" fill="freeze" begin="8446.click" /><animate attributeName="stroke-dashoffset" values="20.272;20.272;0" keyTimes="0;0.789;1" dur="0.963s" fill="freeze" begin="0s;8446.click" /></path><path d="M35.32,33.71c0.26,1.44-0.26,3.26-0.9,4.55C30.44,46.27,26.07,54.53,14,64.07" stroke-dasharray="37.952" stroke-dashoffset="37.952"><animate attributeName="stroke-dashoffset" values="37.952" fill="freeze" begin="8446.click" /><animate attributeName="stroke-dashoffset" values="37.952;37.952;0" keyTimes="0;0.717;1" dur="1.343s" fill="freeze" begin="0s;8446.click" /></path><path d="M27.33,52.5c0.54,0.57,1.56,2.56,1.62,3.73c0.51,10.93-0.94,37.4-0.5,44.11" stroke-dasharray="48.238" stroke-dashoffset="48.238"><animate attributeName="stroke-dashoffset" values="48.238" fill="freeze" begin="8446.click" /><animate attributeName="stroke-dashoffset" values="48.238;48.238;0" keyTimes="0;0.736;1" dur="1.825s" fill="freeze" begin="0s;8446.click" /></path><path d="M43.83,35.67c0.37,0.34,1.92,2.38,2,2.83c0.67,4,1.29,8.72,2.17,14.83" stroke-dasharray="18.47" stroke-dashoffset="18.47"><animate attributeName="stroke-dashoffset" values="18.47" fill="freeze" begin="8446.click" /><animate attributeName="stroke-dashoffset" values="18.47;18.47;0" keyTimes="0;0.908;1" dur="2.01s" fill="freeze" begin="0s;8446.click" /></path><path d="M46.83,36.33c9.21-1.04,25.66-2.87,29.73-3.32c1.49-0.16,2.39,0.97,2.17,1.93c-0.88,3.97-2.36,8.32-3.67,13.81" stroke-dasharray="47.597" stroke-dashoffset="47.597"><animate attributeName="stroke-dashoffset" values="47.597" fill="freeze" begin="8446.click" /><animate attributeName="stroke-dashoffset" values="47.597;47.597;0" keyTimes="0;0.809;1" dur="2.486s" fill="freeze" begin="0s;8446.click" /></path><path d="M48.5,51.67c4.91-0.5,22.25-1.72,29-2.5" stroke-dasharray="29.109" stroke-dashoffset="29.109"><animate attributeName="stroke-dashoffset" values="29.109" fill="freeze" begin="8446.click" /><animate attributeName="stroke-dashoffset" values="29.109;29.109;0" keyTimes="0;0.895;1" dur="2.777s" fill="freeze" begin="0s;8446.click" /></path><path d="M35.83,64.83c2.17,0.42,4.17,0.46,7,0.17c9.67-1,31.56-3.38,41.33-3.83c3.58-0.17,5.76,0.27,6.67,0.5" stroke-dasharray="55.253" stroke-dashoffset="55.253"><animate attributeName="stroke-dashoffset" values="55.253" fill="freeze" begin="8446.click" /><animate attributeName="stroke-dashoffset" values="55.253;55.253;0" keyTimes="0;0.834;1" dur="3.33s" fill="freeze" begin="0s;8446.click" /></path><path d="M59.25,53c0.79,0.43,2.28,1.75,2.28,4c0,5.98,0,37.43-0.16,42.76" stroke-dasharray="47.585" stroke-dashoffset="47.585"><animate attributeName="stroke-dashoffset" values="47.585" fill="freeze" begin="8446.click" /><animate attributeName="stroke-dashoffset" values="47.585;47.585;0" keyTimes="0;0.875;1" dur="3.806s" fill="freeze" begin="0s;8446.click" /></path><path d="M58.41,64.54c-4.4,7.85-13.9,18.47-23.05,22.91" stroke-dasharray="32.909" stroke-dashoffset="32.909"><animate attributeName="stroke-dashoffset" values="32.909" fill="freeze" begin="8446.click" /><animate attributeName="stroke-dashoffset" values="32.909;32.909;0" keyTimes="0;0.92;1" dur="4.135s" fill="freeze" begin="0s;8446.click" /></path><path d="M64.06,64.56C68,70.5,81.25,83.5,89.96,88.05c1.67,0.87,2.74,1.67,4.21,2" stroke-dasharray="39.866" stroke-dashoffset="39.866"><animate attributeName="stroke-dashoffset" values="39.866" fill="freeze" begin="8446.click" /><animate attributeName="stroke-dashoffset" values="39.866;39.866;0" keyTimes="0;0.912;1" dur="4.534s" fill="freeze" begin="0s;8446.click" /></path></g></svg>