<svg xmlns="http://www.w3.org/2000/svg" width="109" height="109" viewBox="0 0 109 109" id="8449"><g fill="none" stroke="#666" stroke-width="9" stroke-linecap="round" stroke-linejoin="round"><g><g><path d="M22,22.52c2.62,0.48,5.49,0.42,8.12,0.19c12.52-1.09,36.01-3.56,49.76-4.08c3.04-0.11,6-0.12,9.12,0.4" /><path d="M39.38,12.5c1.16,1.13,1.53,1.47,1.65,2.17c1.16,6.51,1.9,12.96,2.23,15.33" /><path d="M69.19,10.75c0.43,1.2,0.54,2.48,0.14,3.7c-1.83,5.7-2.5,8-4.58,13.55" /></g><g p4:phon="世+木" xmlns:p4="http://kanjivg.tagaini.net"><g><g><g><g><path d="M13.66,43.22c3.72,0.53,7.37,0.26,10.61,0.02c14.48-1.06,46.23-3.85,62.24-4.6c3.18-0.15,6.12-0.26,9.59,0.23" /></g><path d="M52.8,31.3c0.95,0.95,1.49,2.2,1.51,3.26c0.05,2.52,0.21,7.29,0.37,12.94c0.04,1.52,0.08,3.06,0.12,4.59" /></g><path d="M73.49,29.75c0.64,1.12,0.95,2.37,0.77,3.76c-0.5,3.86-1,8.61-2.1,14.58" /><path d="M55.3,50.75c3.11-0.27,10.67-0.95,15.33-1.31c1.83-0.14,3.2-0.23,3.69-0.23" /></g><path d="M34.33,33.07c0.86,0.86,1.48,1.97,1.51,2.76c0.28,6.54,0.28,14.04,0.28,19.86c0,2.91,0.75,3.98,3.15,3.83c11.91-0.72,25.56-1.63,35.85-2.06c2.54-0.11,4.98-0.12,7.48,0.38" /></g><g><path d="M23.75,73c3.25,0.75,6.03,0.59,9.25,0.27c11.43-1.15,31.42-2.5,45.25-3.29c2.9-0.17,5.19-0.04,8,0.53" /><path d="M53.25,61.5c0.94,0.94,1.25,2.47,1.25,3.5c0,2.31,0,19.48-0.13,29.38c-0.03,2.42-0.07,4.4-0.12,5.62" /><path d="M51.5,72.5c0,1.25-0.88,2.25-1.71,3.16c-7.15,7.98-20.6,17.83-33.04,22.09" /><path d="M55.38,72c4.21,2.92,19.04,14.22,26.22,19.23c2.4,1.68,4.28,2.9,7.16,3.65" /></g></g></g></g><g fill="none" stroke="#000" stroke-width="5" stroke-linecap="round" stroke-linejoin="round"><g><g><path d="M22,22.52c2.62,0.48,5.49,0.42,8.12,0.19c12.52-1.09,36.01-3.56,49.76-4.08c3.04-0.11,6-0.12,9.12,0.4" stroke-dasharray="67.22" stroke-dashoffset="67.22"><animate id="0" attributeName="stroke-dashoffset" values="67.22;0" dur="0.51s" fill="freeze" begin="0s;8449.click" /></path><path d="M39.38,12.5c1.16,1.13,1.53,1.47,1.65,2.17c1.16,6.51,1.9,12.96,2.23,15.33" stroke-dasharray="18.27" stroke-dashoffset="18.27"><animate attributeName="stroke-dashoffset" values="18.27" fill="freeze" begin="8449.click" /><animate id="1" attributeName="stroke-dashoffset" values="18.27;0" dur="0.18s" fill="freeze" begin="0.end" /></path><path d="M69.19,10.75c0.43,1.2,0.54,2.48,0.14,3.7c-1.83,5.7-2.5,8-4.58,13.55" stroke-dasharray="18.08" stroke-dashoffset="18.08"><animate attributeName="stroke-dashoffset" values="18.08" fill="freeze" begin="8449.click" /><animate id="2" attributeName="stroke-dashoffset" values="18.08;0" dur="0.18s" fill="freeze" begin="1.end" /></path></g><g p4:phon="世+木" xmlns:p4="http://kanjivg.tagaini.net"><g><g><g><g><path d="M13.66,43.22c3.72,0.53,7.37,0.26,10.61,0.02c14.48-1.06,46.23-3.85,62.24-4.6c3.18-0.15,6.12-0.26,9.59,0.23" stroke-dasharray="82.65" stroke-dashoffset="82.65"><animate attributeName="stroke-dashoffset" values="82.65" fill="freeze" begin="8449.click" /><animate id="3" attributeName="stroke-dashoffset" values="82.65;0" dur="0.62s" fill="freeze" begin="2.end" /></path></g><path d="M52.8,31.3c0.95,0.95,1.49,2.2,1.51,3.26c0.05,2.52,0.21,7.29,0.37,12.94c0.04,1.52,0.08,3.06,0.12,4.59" stroke-dasharray="21.21" stroke-dashoffset="21.21"><animate attributeName="stroke-dashoffset" values="21.21" fill="freeze" begin="8449.click" /><animate id="4" attributeName="stroke-dashoffset" values="21.21;0" dur="0.21s" fill="freeze" begin="3.end" /></path></g><path d="M73.49,29.75c0.64,1.12,0.95,2.37,0.77,3.76c-0.5,3.86-1,8.61-2.1,14.58" stroke-dasharray="18.64" stroke-dashoffset="18.64"><animate attributeName="stroke-dashoffset" values="18.64" fill="freeze" begin="8449.click" /><animate id="5" attributeName="stroke-dashoffset" values="18.64;0" dur="0.19s" fill="freeze" begin="4.end" /></path><path d="M55.3,50.75c3.11-0.27,10.67-0.95,15.33-1.31c1.83-0.14,3.2-0.23,3.69-0.23" stroke-dasharray="19.08" stroke-dashoffset="19.08"><animate attributeName="stroke-dashoffset" values="19.08" fill="freeze" begin="8449.click" /><animate id="6" attributeName="stroke-dashoffset" values="19.08;0" dur="0.19s" fill="freeze" begin="5.end" /></path></g><path d="M34.33,33.07c0.86,0.86,1.48,1.97,1.51,2.76c0.28,6.54,0.28,14.04,0.28,19.86c0,2.91,0.75,3.98,3.15,3.83c11.91-0.72,25.56-1.63,35.85-2.06c2.54-0.11,4.98-0.12,7.48,0.38" stroke-dasharray="72.38" stroke-dashoffset="72.38"><animate attributeName="stroke-dashoffset" values="72.38" fill="freeze" begin="8449.click" /><animate id="7" attributeName="stroke-dashoffset" values="72.38;0" dur="0.54s" fill="freeze" begin="6.end" /></path></g><g><path d="M23.75,73c3.25,0.75,6.03,0.59,9.25,0.27c11.43-1.15,31.42-2.5,45.25-3.29c2.9-0.17,5.19-0.04,8,0.53" stroke-dasharray="62.72" stroke-dashoffset="62.72"><animate attributeName="stroke-dashoffset" values="62.72" fill="freeze" begin="8449.click" /><animate id="8" attributeName="stroke-dashoffset" values="62.72;0" dur="0.47s" fill="freeze" begin="7.end" /></path><path d="M53.25,61.5c0.94,0.94,1.25,2.47,1.25,3.5c0,2.31,0,19.48-0.13,29.38c-0.03,2.42-0.07,4.4-0.12,5.62" stroke-dasharray="38.81" stroke-dashoffset="38.81"><animate attributeName="stroke-dashoffset" values="38.81" fill="freeze" begin="8449.click" /><animate id="9" attributeName="stroke-dashoffset" values="38.81;0" dur="0.39s" fill="freeze" begin="8.end" /></path><path d="M51.5,72.5c0,1.25-0.88,2.25-1.71,3.16c-7.15,7.98-20.6,17.83-33.04,22.09" stroke-dasharray="43.79" stroke-dashoffset="43.79"><animate attributeName="stroke-dashoffset" values="43.79" fill="freeze" begin="8449.click" /><animate id="10" attributeName="stroke-dashoffset" values="43.79;0" dur="0.44s" fill="freeze" begin="9.end" /></path><path d="M55.38,72c4.21,2.92,19.04,14.22,26.22,19.23c2.4,1.68,4.28,2.9,7.16,3.65" stroke-dasharray="40.6" stroke-dashoffset="40.6"><animate attributeName="stroke-dashoffset" values="40.6" fill="freeze" begin="8449.click" /><animate id="11" attributeName="stroke-dashoffset" values="40.6;0" dur="0.41s" fill="freeze" begin="10.end" /></path></g></g></g></g></svg>