<svg xmlns="http://www.w3.org/2000/svg" viewBox="0 0 109 109" id="8494"><g fill="none" stroke="#666" stroke-width="6" stroke-linecap="round" stroke-linejoin="round"><g><g><path d="M18.75,20.95c3.37,0.89,7.24,0.83,10.64,0.44c14.49-1.65,37.25-3.21,51.11-3.75c3.41-0.13,6.87-0.08,10.25,0.46" /><path d="M38,11c0.88,0.88,1.11,1.88,1.2,2.66c0.67,5.71,1.71,14.2,2.05,16.84" /><path d="M66.37,9.5c0.34,1.18,0.46,2.27,0.16,3.75c-1.02,5-2.41,12-3.02,15.25" /></g><g><g><path d="M17.04,40.71c0.94,0.94,1.16,2.26,1.16,3.6s0,32.07,0,40.7" /><path d="M19.03,42.09c1.55-0.14,10.48-1.54,14.39-2.11c2.96-0.44,4.32,0.16,4.31,3.4c-0.01,8.66-0.1,40.17-0.1,41.12" /><path d="M19.62,61.22c3.88-0.65,14.01-1.78,16.65-1.78" /><path d="M19.49,82.73c6.51-0.98,9.76-1.11,17.32-1.77" /></g><g><g><path d="M52.44,39.78c1.41,0.65,3.94,0.71,5.45,0.57c6.45-0.56,15.96-1.72,23.49-2.19c1.78-0.11,3.63-0.29,5.85-0.08" /><path d="M67.34,30.62c0.83,0.83,1.09,2.13,1.09,3.5c0,7.26-0.06,15.79-0.06,18.26" /><path d="M44.88,54.85c2.5,0.4,6.26,0.18,8.89-0.08c8.65-0.84,22.36-2.14,32.62-2.74c2.73-0.16,5.57-0.56,8.24,0.19" /></g><g><path d="M44.25,67.24c2.37,0.64,5.81,0.5,8.12,0.27c10.62-1.01,24-2.26,35.5-2.86c2.78-0.14,5.82-0.44,8.54,0.34" /><path d="M78.32,55.83c1.11,1.11,1.21,2.54,1.21,4.06c0,14.06,0.09,29.18,0.09,31.48c0,9.83-5.86,2.01-7.1,0.75" /><path d="M57.25,74.25c2.48,1.54,5.9,6.35,6.52,8.75" /></g></g></g></g></g><g fill="none" stroke="#000" stroke-width="3" stroke-linecap="round" stroke-linejoin="round"><path d="M18.75,20.95c3.37,0.89,7.24,0.83,10.64,0.44c14.49-1.65,37.25-3.21,51.11-3.75c3.41-0.13,6.87-0.08,10.25,0.46" stroke-dasharray="72.243" stroke-dashoffset="72.243"><animate attributeName="stroke-dashoffset" values="72.243;72.243;0" dur="0.543s" fill="freeze" begin="0s;8494.click" /></path><path d="M38,11c0.88,0.88,1.11,1.88,1.2,2.66c0.67,5.71,1.71,14.2,2.05,16.84" stroke-dasharray="19.944" stroke-dashoffset="19.944"><animate attributeName="stroke-dashoffset" values="19.944" fill="freeze" begin="8494.click" /><animate attributeName="stroke-dashoffset" values="19.944;19.944;0" keyTimes="0;0.732;1" dur="0.742s" fill="freeze" begin="0s;8494.click" /></path><path d="M66.37,9.5c0.34,1.18,0.46,2.27,0.16,3.75c-1.02,5-2.41,12-3.02,15.25" stroke-dasharray="19.342" stroke-dashoffset="19.342"><animate attributeName="stroke-dashoffset" values="19.342" fill="freeze" begin="8494.click" /><animate attributeName="stroke-dashoffset" values="19.342;19.342;0" keyTimes="0;0.794;1" dur="0.935s" fill="freeze" begin="0s;8494.click" /></path><path d="M17.04,40.71c0.94,0.94,1.16,2.26,1.16,3.6s0,32.07,0,40.7" stroke-dasharray="44.587" stroke-dashoffset="44.587"><animate attributeName="stroke-dashoffset" values="44.587" fill="freeze" begin="8494.click" /><animate attributeName="stroke-dashoffset" values="44.587;44.587;0" keyTimes="0;0.677;1" dur="1.381s" fill="freeze" begin="0s;8494.click" /></path><path d="M19.03,42.09c1.55-0.14,10.48-1.54,14.39-2.11c2.96-0.44,4.32,0.16,4.31,3.4c-0.01,8.66-0.1,40.17-0.1,41.12" stroke-dasharray="62.404" stroke-dashoffset="62.404"><animate attributeName="stroke-dashoffset" values="62.404" fill="freeze" begin="8494.click" /><animate attributeName="stroke-dashoffset" values="62.404;62.404;0" keyTimes="0;0.746;1" dur="1.85s" fill="freeze" begin="0s;8494.click" /></path><path d="M19.62,61.22c3.88-0.65,14.01-1.78,16.65-1.78" stroke-dasharray="16.754" stroke-dashoffset="16.754"><animate attributeName="stroke-dashoffset" values="16.754" fill="freeze" begin="8494.click" /><animate attributeName="stroke-dashoffset" values="16.754;16.754;0" keyTimes="0;0.917;1" dur="2.018s" fill="freeze" begin="0s;8494.click" /></path><path d="M19.49,82.73c6.51-0.98,9.76-1.11,17.32-1.77" stroke-dasharray="17.415" stroke-dashoffset="17.415"><animate attributeName="stroke-dashoffset" values="17.415" fill="freeze" begin="8494.click" /><animate attributeName="stroke-dashoffset" values="17.415;17.415;0" keyTimes="0;0.921;1" dur="2.192s" fill="freeze" begin="0s;8494.click" /></path><path d="M52.44,39.78c1.41,0.65,3.94,0.71,5.45,0.57c6.45-0.56,15.96-1.72,23.49-2.19c1.78-0.11,3.63-0.29,5.85-0.08" stroke-dasharray="34.98" stroke-dashoffset="34.98"><animate attributeName="stroke-dashoffset" values="34.98" fill="freeze" begin="8494.click" /><animate attributeName="stroke-dashoffset" values="34.98;34.98;0" keyTimes="0;0.862;1" dur="2.542s" fill="freeze" begin="0s;8494.click" /></path><path d="M67.34,30.62c0.83,0.83,1.09,2.13,1.09,3.5c0,7.26-0.06,15.79-0.06,18.26" stroke-dasharray="22.022" stroke-dashoffset="22.022"><animate attributeName="stroke-dashoffset" values="22.022" fill="freeze" begin="8494.click" /><animate attributeName="stroke-dashoffset" values="22.022;22.022;0" keyTimes="0;0.92;1" dur="2.762s" fill="freeze" begin="0s;8494.click" /></path><path d="M44.88,54.85c2.5,0.4,6.26,0.18,8.89-0.08c8.65-0.84,22.36-2.14,32.62-2.74c2.73-0.16,5.57-0.56,8.24,0.19" stroke-dasharray="49.934" stroke-dashoffset="49.934"><animate attributeName="stroke-dashoffset" values="49.934" fill="freeze" begin="8494.click" /><animate attributeName="stroke-dashoffset" values="49.934;49.934;0" keyTimes="0;0.847;1" dur="3.261s" fill="freeze" begin="0s;8494.click" /></path><path d="M44.25,67.24c2.37,0.64,5.81,0.5,8.12,0.27c10.62-1.01,24-2.26,35.5-2.86c2.78-0.14,5.82-0.44,8.54,0.34" stroke-dasharray="52.37" stroke-dashoffset="52.37"><animate attributeName="stroke-dashoffset" values="52.37" fill="freeze" begin="8494.click" /><animate attributeName="stroke-dashoffset" values="52.37;52.37;0" keyTimes="0;0.862;1" dur="3.785s" fill="freeze" begin="0s;8494.click" /></path><path d="M78.32,55.83c1.11,1.11,1.21,2.54,1.21,4.06c0,14.06,0.09,29.18,0.09,31.48c0,9.83-5.86,2.01-7.1,0.75" stroke-dasharray="48.352" stroke-dashoffset="48.352"><animate attributeName="stroke-dashoffset" values="48.352" fill="freeze" begin="8494.click" /><animate attributeName="stroke-dashoffset" values="48.352;48.352;0" keyTimes="0;0.887;1" dur="4.269s" fill="freeze" begin="0s;8494.click" /></path><path d="M57.25,74.25c2.48,1.54,5.9,6.35,6.52,8.75" stroke-dasharray="11.071" stroke-dashoffset="11.071"><animate attributeName="stroke-dashoffset" values="11.071" fill="freeze" begin="8494.click" /><animate attributeName="stroke-dashoffset" values="11.071;11.071;0" keyTimes="0;0.975;1" dur="4.38s" fill="freeze" begin="0s;8494.click" /></path></g></svg>