<svg xmlns="http://www.w3.org/2000/svg" width="109" height="109" viewBox="0 0 109 109" id="849c"><g fill="none" stroke="#666" stroke-width="9" stroke-linecap="round" stroke-linejoin="round"><g><g><path d="M21,24.27c1.29,0.53,2.8,0.63,4.1,0.53C37,23.83,72,20.33,85.72,20.26c2.16-0.01,3.45,0.25,4.53,0.51" /><path d="M38.25,13c1.75,1.43,2.31,1.87,2.5,2.75C42.5,24,42.5,30,43,33" /><path d="M68.75,10.75c1.12,1,1.87,2.52,1.5,4c-1.12,4.5-2.88,10.5-4.5,16.25" /></g><g><g><g><path d="M21.85,42.99c0.67,0.27,1.89,0.35,2.56,0.27c4.25-0.47,14.37-3.19,18.88-3.26c1.11-0.02,1.78,0.13,2.34,0.27" /><path d="M16.08,58.92c1.08,0.39,3.06,0.46,4.14,0.39c8.14-0.56,18.28-3.81,27.12-4.67c1.79-0.17,2.88,0.18,3.78,0.38" /></g><g><path d="M34.36,60.09c0.07,0.37,1.36,1.92,1.42,4.27c0.31,11.26,0.25,24.05,0.25,27.89c0,8.15-3.5,2.93-6.74,0.19" /><path d="M25,70.67c0.03,0.5,0.07,1.29-0.07,2.02c-0.81,4.25-6.65,12.55-13,18.25" /><path d="M43.9,69.93c2.51,2.22,6.61,8.89,7.24,12.34" /></g></g><g><g><path d="M63.35,39.49c0.67,0.27,1.89,0.35,2.56,0.27c4.25-0.47,13.37-2.19,17.88-2.26c1.11-0.02,1.78,0.13,2.34,0.27" /><path d="M57.08,56.92c1.08,0.39,3.06,0.46,4.14,0.39c8.14-0.56,21.28-2.56,29.12-3.17c1.79-0.14,2.88,0.18,3.78,0.38" /></g><g><path d="M74.36,58.59c0.07,0.37,1.36,1.92,1.42,4.27c0.31,11.26,0.25,27.05,0.25,30.89c0,8.15-3.5,2.93-6.74,0.19" /><path d="M64.5,68.67c0.03,0.51,0.06,1.33-0.06,2.07c-0.74,4.35-6.15,12.86-12,18.71" /><path d="M84.4,69.18c3.9,3.44,10.26,13.75,11.24,19.09" /></g></g></g></g></g><g fill="none" stroke="#000" stroke-width="5" stroke-linecap="round" stroke-linejoin="round"><path d="M21,24.27c1.29,0.53,2.8,0.63,4.1,0.53C37,23.83,72,20.33,85.72,20.26c2.16-0.01,3.45,0.25,4.53,0.51" stroke-dasharray="69.543" stroke-dashoffset="69.543"><animate attributeName="stroke-dashoffset" values="69.543;69.543;0" dur="0.523s" fill="freeze" begin="0s;849c.click" /></path><path d="M38.25,13c1.75,1.43,2.31,1.87,2.5,2.75C42.5,24,42.5,30,43,33" stroke-dasharray="21.197" stroke-dashoffset="21.197"><animate attributeName="stroke-dashoffset" values="21.197" fill="freeze" begin="849c.click" /><animate attributeName="stroke-dashoffset" values="21.197;21.197;0" keyTimes="0;0.712;1" dur="0.735s" fill="freeze" begin="0s;849c.click" /></path><path d="M68.75,10.75c1.12,1,1.87,2.52,1.5,4c-1.12,4.5-2.88,10.5-4.5,16.25" stroke-dasharray="21.35" stroke-dashoffset="21.35"><animate attributeName="stroke-dashoffset" values="21.35" fill="freeze" begin="849c.click" /><animate attributeName="stroke-dashoffset" values="21.35;21.35;0" keyTimes="0;0.775;1" dur="0.948s" fill="freeze" begin="0s;849c.click" /></path><path d="M21.85,42.99c0.67,0.27,1.89,0.35,2.56,0.27c4.25-0.47,14.37-3.19,18.88-3.26c1.11-0.02,1.78,0.13,2.34,0.27" stroke-dasharray="24.134" stroke-dashoffset="24.134"><animate attributeName="stroke-dashoffset" values="24.134" fill="freeze" begin="849c.click" /><animate attributeName="stroke-dashoffset" values="24.134;24.134;0" keyTimes="0;0.797;1" dur="1.189s" fill="freeze" begin="0s;849c.click" /></path><path d="M16.08,58.92c1.08,0.39,3.06,0.46,4.14,0.39c8.14-0.56,18.28-3.81,27.12-4.67c1.79-0.17,2.88,0.18,3.78,0.38" stroke-dasharray="35.54" stroke-dashoffset="35.54"><animate attributeName="stroke-dashoffset" values="35.54" fill="freeze" begin="849c.click" /><animate attributeName="stroke-dashoffset" values="35.54;35.54;0" keyTimes="0;0.77;1" dur="1.544s" fill="freeze" begin="0s;849c.click" /></path><path d="M34.36,60.09c0.07,0.37,1.36,1.92,1.42,4.27c0.31,11.26,0.25,24.05,0.25,27.89c0,8.15-3.5,2.93-6.74,0.19" stroke-dasharray="44.264" stroke-dashoffset="44.264"><animate attributeName="stroke-dashoffset" values="44.264" fill="freeze" begin="849c.click" /><animate attributeName="stroke-dashoffset" values="44.264;44.264;0" keyTimes="0;0.777;1" dur="1.987s" fill="freeze" begin="0s;849c.click" /></path><path d="M25,70.67c0.03,0.5,0.07,1.29-0.07,2.02c-0.81,4.25-6.65,12.55-13,18.25" stroke-dasharray="24.691" stroke-dashoffset="24.691"><animate attributeName="stroke-dashoffset" values="24.691" fill="freeze" begin="849c.click" /><animate attributeName="stroke-dashoffset" values="24.691;24.691;0" keyTimes="0;0.889;1" dur="2.234s" fill="freeze" begin="0s;849c.click" /></path><path d="M43.9,69.93c2.51,2.22,6.61,8.89,7.24,12.34" stroke-dasharray="14.461" stroke-dashoffset="14.461"><animate attributeName="stroke-dashoffset" values="14.461" fill="freeze" begin="849c.click" /><animate attributeName="stroke-dashoffset" values="14.461;14.461;0" keyTimes="0;0.939;1" dur="2.379s" fill="freeze" begin="0s;849c.click" /></path><path d="M63.35,39.49c0.67,0.27,1.89,0.35,2.56,0.27c4.25-0.47,13.37-2.19,17.88-2.26c1.11-0.02,1.78,0.13,2.34,0.27" stroke-dasharray="22.989" stroke-dashoffset="22.989"><animate attributeName="stroke-dashoffset" values="22.989" fill="freeze" begin="849c.click" /><animate attributeName="stroke-dashoffset" values="22.989;22.989;0" keyTimes="0;0.912;1" dur="2.609s" fill="freeze" begin="0s;849c.click" /></path><path d="M57.08,56.92c1.08,0.39,3.06,0.46,4.14,0.39c8.14-0.56,21.28-2.56,29.12-3.17c1.79-0.14,2.88,0.18,3.78,0.38" stroke-dasharray="37.294" stroke-dashoffset="37.294"><animate attributeName="stroke-dashoffset" values="37.294" fill="freeze" begin="849c.click" /><animate attributeName="stroke-dashoffset" values="37.294;37.294;0" keyTimes="0;0.875;1" dur="2.982s" fill="freeze" begin="0s;849c.click" /></path><path d="M74.36,58.59c0.07,0.37,1.36,1.92,1.42,4.27c0.31,11.26,0.25,27.05,0.25,30.89c0,8.15-3.5,2.93-6.74,0.19" stroke-dasharray="47.263" stroke-dashoffset="47.263"><animate attributeName="stroke-dashoffset" values="47.263" fill="freeze" begin="849c.click" /><animate attributeName="stroke-dashoffset" values="47.263;47.263;0" keyTimes="0;0.863;1" dur="3.455s" fill="freeze" begin="0s;849c.click" /></path><path d="M64.5,68.67c0.03,0.51,0.06,1.33-0.06,2.07c-0.74,4.35-6.15,12.86-12,18.71" stroke-dasharray="24.536" stroke-dashoffset="24.536"><animate attributeName="stroke-dashoffset" values="24.536" fill="freeze" begin="849c.click" /><animate attributeName="stroke-dashoffset" values="24.536;24.536;0" keyTimes="0;0.934;1" dur="3.7s" fill="freeze" begin="0s;849c.click" /></path><path d="M84.4,69.18c3.9,3.44,10.26,13.75,11.24,19.09" stroke-dasharray="22.391" stroke-dashoffset="22.391"><animate attributeName="stroke-dashoffset" values="22.391" fill="freeze" begin="849c.click" /><animate attributeName="stroke-dashoffset" values="22.391;22.391;0" keyTimes="0;0.943;1" dur="3.924s" fill="freeze" begin="0s;849c.click" /></path></g></svg>