<svg xmlns="http://www.w3.org/2000/svg" width="109" height="109" viewBox="0 0 109 109" id="84a1"><g fill="none" stroke="#666" stroke-width="9" stroke-linecap="round" stroke-linejoin="round"><g><g><path d="M18.5,19.8c1.76,0.72,3.81,0.86,5.57,0.72c16.18-1.31,43.37-4.39,62.02-4.48c2.93-0.02,4.69,0.34,6.16,0.7" /><path d="M37.27,9.75c1.4,1.15,1.85,1.5,2.01,2.21c1.4,6.62,1.8,12.64,2.21,15.04" /><path d="M69.37,7.5c0.93,0.83,1.05,2.09,0.74,3.31c-0.93,3.72-2.05,9.93-3.4,14.69" /></g><g><g><g p6:partial xmlns:p6="http://kanjivg.tagaini.net"><g><path d="M52.75,22.5c0.6,0.51,1.51,1.66,1.51,2.97c0,2.08,0-0.22,0,5.42" /><path d="M25.5,33.28c1.35,0.38,2.94,0.44,4.29,0.38c7.64-0.33,36.68-3.51,48.23-3.79c2.25-0.05,3.61,0.18,4.74,0.37" /></g><g><path d="M37.94,35.56c2.93,2.98,4.8,6.57,5.06,8.53" /><path d="M68.61,33.71c0.18,0.82,0.33,1.49,0.19,1.71c-1.4,2.21-3.8,6.4-4.8,7.76" /></g></g><g><path d="M21.02,46.33c-0.15,3.62-3.75,13.09-5.02,15.25" /><path d="M20.71,49.31c10.02-1,46.29-4.6,65.79-5.03c11.93-0.26,3.77,5-0.69,8.92" /></g></g><g><g><path d="M51.9,50.7c0.9,0.41,2.38,1.99,2.38,2.8c0,2.99-0.28,4.79-0.12,7.33" /><path d="M23.97,63.38c1.32,0.08,4.35,0.54,5.63,0.43c10.4-0.9,37.61-2.68,51.75-3.3c2.18-0.1,3.3,0.04,4.92,0.55" /></g><g><path d="M53.46,68.19c3.64,1.05,11.79,2.31,16.81,2.82c2.39,0.24,3.32,0.94,2.92,2.27c-1.94,6.46-6.43,16.28-12.09,23.08c-3.85,4.63-7.85,1.38-9.37-2.06" /><path d="M52.18,64.9c0.44,0.89,0.35,1.88-0.17,2.88c-3.59,6.87-13.99,20.76-30.14,27.26" /></g></g></g></g></g><g fill="none" stroke="#000" stroke-width="5" stroke-linecap="round" stroke-linejoin="round"><g><g><path d="M18.5,19.8c1.76,0.72,3.81,0.86,5.57,0.72c16.18-1.31,43.37-4.39,62.02-4.48c2.93-0.02,4.69,0.34,6.16,0.7" stroke-dasharray="74.08" stroke-dashoffset="74.08"><animate id="0" attributeName="stroke-dashoffset" values="74.08;0" dur="0.56s" fill="freeze" begin="0s;84a1.click" /></path><path d="M37.27,9.75c1.4,1.15,1.85,1.5,2.01,2.21c1.4,6.62,1.8,12.64,2.21,15.04" stroke-dasharray="18.25" stroke-dashoffset="18.25"><animate attributeName="stroke-dashoffset" values="18.25" fill="freeze" begin="84a1.click" /><animate id="1" attributeName="stroke-dashoffset" values="18.25;0" dur="0.18s" fill="freeze" begin="0.end" /></path><path d="M69.37,7.5c0.93,0.83,1.05,2.09,0.74,3.31c-0.93,3.72-2.05,9.93-3.4,14.69" stroke-dasharray="18.66" stroke-dashoffset="18.66"><animate attributeName="stroke-dashoffset" values="18.66" fill="freeze" begin="84a1.click" /><animate id="2" attributeName="stroke-dashoffset" values="18.66;0" dur="0.19s" fill="freeze" begin="1.end" /></path></g><g><g><g p6:partial xmlns:p6="http://kanjivg.tagaini.net"><g><path d="M52.75,22.5c0.6,0.51,1.51,1.66,1.51,2.97c0,2.08,0-0.22,0,5.42" stroke-dasharray="8.85" stroke-dashoffset="8.85"><animate attributeName="stroke-dashoffset" values="8.85" fill="freeze" begin="84a1.click" /><animate id="3" attributeName="stroke-dashoffset" values="8.85;0" dur="0.09s" fill="freeze" begin="2.end" /></path><path d="M25.5,33.28c1.35,0.38,2.94,0.44,4.29,0.38c7.64-0.33,36.68-3.51,48.23-3.79c2.25-0.05,3.61,0.18,4.74,0.37" stroke-dasharray="57.47" stroke-dashoffset="57.47"><animate attributeName="stroke-dashoffset" values="57.47" fill="freeze" begin="84a1.click" /><animate id="4" attributeName="stroke-dashoffset" values="57.47;0" dur="0.57s" fill="freeze" begin="3.end" /></path></g><g><path d="M37.94,35.56c2.93,2.98,4.8,6.57,5.06,8.53" stroke-dasharray="10.05" stroke-dashoffset="10.05"><animate attributeName="stroke-dashoffset" values="10.05" fill="freeze" begin="84a1.click" /><animate id="5" attributeName="stroke-dashoffset" values="10.05;0" dur="0.1s" fill="freeze" begin="4.end" /></path><path d="M68.61,33.71c0.18,0.82,0.33,1.49,0.19,1.71c-1.4,2.21-3.8,6.4-4.8,7.76" stroke-dasharray="10.87" stroke-dashoffset="10.87"><animate attributeName="stroke-dashoffset" values="10.87" fill="freeze" begin="84a1.click" /><animate id="6" attributeName="stroke-dashoffset" values="10.87;0" dur="0.11s" fill="freeze" begin="5.end" /></path></g></g><g><path d="M21.02,46.33c-0.15,3.62-3.75,13.09-5.02,15.25" stroke-dasharray="16.12" stroke-dashoffset="16.12"><animate attributeName="stroke-dashoffset" values="16.12" fill="freeze" begin="84a1.click" /><animate id="7" attributeName="stroke-dashoffset" values="16.12;0" dur="0.16s" fill="freeze" begin="6.end" /></path><path d="M20.71,49.31c10.02-1,46.29-4.6,65.79-5.03c11.93-0.26,3.77,5-0.69,8.92" stroke-dasharray="83.03" stroke-dashoffset="83.03"><animate attributeName="stroke-dashoffset" values="83.03" fill="freeze" begin="84a1.click" /><animate id="8" attributeName="stroke-dashoffset" values="83.03;0" dur="0.62s" fill="freeze" begin="7.end" /></path></g></g><g><g><path d="M51.9,50.7c0.9,0.41,2.38,1.99,2.38,2.8c0,2.99-0.28,4.79-0.12,7.33" stroke-dasharray="11.12" stroke-dashoffset="11.12"><animate attributeName="stroke-dashoffset" values="11.12" fill="freeze" begin="84a1.click" /><animate id="9" attributeName="stroke-dashoffset" values="11.12;0" dur="0.11s" fill="freeze" begin="8.end" /></path><path d="M23.97,63.38c1.32,0.08,4.35,0.54,5.63,0.43c10.4-0.9,37.61-2.68,51.75-3.3c2.18-0.1,3.3,0.04,4.92,0.55" stroke-dasharray="62.49" stroke-dashoffset="62.49"><animate attributeName="stroke-dashoffset" values="62.49" fill="freeze" begin="84a1.click" /><animate id="10" attributeName="stroke-dashoffset" values="62.49;0" dur="0.47s" fill="freeze" begin="9.end" /></path></g><g><path d="M53.46,68.19c3.64,1.05,11.79,2.31,16.81,2.82c2.39,0.24,3.32,0.94,2.92,2.27c-1.94,6.46-6.43,16.28-12.09,23.08c-3.85,4.63-7.85,1.38-9.37-2.06" stroke-dasharray="59.68" stroke-dashoffset="59.68"><animate attributeName="stroke-dashoffset" values="59.68" fill="freeze" begin="84a1.click" /><animate id="11" attributeName="stroke-dashoffset" values="59.68;0" dur="0.6s" fill="freeze" begin="10.end" /></path><path d="M52.18,64.9c0.44,0.89,0.35,1.88-0.17,2.88c-3.59,6.87-13.99,20.76-30.14,27.26" stroke-dasharray="44.4" stroke-dashoffset="44.4"><animate attributeName="stroke-dashoffset" values="44.4" fill="freeze" begin="84a1.click" /><animate id="12" attributeName="stroke-dashoffset" values="44.4;0" dur="0.44s" fill="freeze" begin="11.end" /></path></g></g></g></g></g></svg>