<svg xmlns="http://www.w3.org/2000/svg" width="109" height="109" viewBox="0 0 109 109" id="84b2"><g fill="none" stroke="#666" stroke-width="9" stroke-linecap="round" stroke-linejoin="round"><g><g><path d="M23.75,25.02c3.39,0.67,6.81,0.76,10.25,0.25c13.61-1.46,33.25-3.04,45.74-3.42c3.02-0.26,6.02-0.11,9,0.43" /><path d="M40.75,14.75c1,1,1.43,2.35,1.5,3.25c0.5,6.5,1,11.5,1.25,15.5" /><path d="M69.85,11.25c0.65,1.5,0.25,2.83-0.25,4.22c-1.85,5.15-2.85,8.28-4.5,13.53" /></g><g><g><path d="M20.63,36.04c3.57,1.41,9.22,5.79,10.12,7.98" /><path d="M17.5,53.66c4.07,1.51,9.98,5.73,11,8.07" /><path d="M18,90.76c1.88,0.86,3.06-0.2,4-1.44c2.75-3.64,5.5-8.44,8.75-13.69" /></g><g><path d="M45.58,45c2.23,0.45,4.46,0.47,6.69,0.04c6.5-1.01,17.3-2.46,25.49-3.24c2.39-0.38,4.78-0.36,7.16,0.07" /><g><path d="M45.57,55.29c0.88,0.88,1.11,1.83,1.11,3.09c0,2.89,0.01,16.49,0.03,26.37c0.01,4.63,0.01,8.45,0.02,9.97" /><path d="M47.79,57.19c8.35-0.74,28.22-3.14,33.08-3.69c4.14-0.47,4.69,1.44,4.66,5c-0.06,6.58,0.08,23.56,0.08,33.57c0,8.62-6.43,0.79-7.45,0.27" /><path d="M47.79,68.89c10.46-0.99,29.82-2.66,36.49-3.06" /><path d="M47.96,81.64c8.29-0.91,28.29-2.73,36.57-2.93" /><path d="M63.97,33.53c0.88,0.88,1.3,2.15,1.3,3.02c0,3,0.03,31.62,0.04,48.45c0,5.32,0.01,9.44,0.01,11.16" /></g><g><path d="M82.84,30.47c3.64,1.46,9.41,6.01,10.32,8.28" /></g></g></g></g></g><g fill="none" stroke="#000" stroke-width="5" stroke-linecap="round" stroke-linejoin="round"><path d="M23.75,25.02c3.39,0.67,6.81,0.76,10.25,0.25c13.61-1.46,33.25-3.04,45.74-3.42c3.02-0.26,6.02-0.11,9,0.43" stroke-dasharray="65.218" stroke-dashoffset="65.218"><animate attributeName="stroke-dashoffset" values="65.218;65.218;0" dur="0.49s" fill="freeze" begin="0s;84b2.click" /></path><path d="M40.75,14.75c1,1,1.43,2.35,1.5,3.25c0.5,6.5,1,11.5,1.25,15.5" stroke-dasharray="19.201" stroke-dashoffset="19.201"><animate attributeName="stroke-dashoffset" values="19.201" fill="freeze" begin="84b2.click" /><animate attributeName="stroke-dashoffset" values="19.201;19.201;0" keyTimes="0;0.718;1" dur="0.682s" fill="freeze" begin="0s;84b2.click" /></path><path d="M69.85,11.25c0.65,1.5,0.25,2.83-0.25,4.22c-1.85,5.15-2.85,8.28-4.5,13.53" stroke-dasharray="18.607" stroke-dashoffset="18.607"><animate attributeName="stroke-dashoffset" values="18.607" fill="freeze" begin="84b2.click" /><animate attributeName="stroke-dashoffset" values="18.607;18.607;0" keyTimes="0;0.786;1" dur="0.868s" fill="freeze" begin="0s;84b2.click" /></path><path d="M20.63,36.04c3.57,1.41,9.22,5.79,10.12,7.98" stroke-dasharray="13.069" stroke-dashoffset="13.069"><animate attributeName="stroke-dashoffset" values="13.069" fill="freeze" begin="84b2.click" /><animate attributeName="stroke-dashoffset" values="13.069;13.069;0" keyTimes="0;0.869;1" dur="0.999s" fill="freeze" begin="0s;84b2.click" /></path><path d="M17.5,53.66c4.07,1.51,9.98,5.73,11,8.07" stroke-dasharray="13.845" stroke-dashoffset="13.845"><animate attributeName="stroke-dashoffset" values="13.845" fill="freeze" begin="84b2.click" /><animate attributeName="stroke-dashoffset" values="13.845;13.845;0" keyTimes="0;0.879;1" dur="1.137s" fill="freeze" begin="0s;84b2.click" /></path><path d="M18,90.76c1.88,0.86,3.06-0.2,4-1.44c2.75-3.64,5.5-8.44,8.75-13.69" stroke-dasharray="20.946" stroke-dashoffset="20.946"><animate attributeName="stroke-dashoffset" values="20.946" fill="freeze" begin="84b2.click" /><animate attributeName="stroke-dashoffset" values="20.946;20.946;0" keyTimes="0;0.845;1" dur="1.346s" fill="freeze" begin="0s;84b2.click" /></path><path d="M45.58,45c2.23,0.45,4.46,0.47,6.69,0.04c6.5-1.01,17.3-2.46,25.49-3.24c2.39-0.38,4.78-0.36,7.16,0.07" stroke-dasharray="39.627" stroke-dashoffset="39.627"><animate attributeName="stroke-dashoffset" values="39.627" fill="freeze" begin="84b2.click" /><animate attributeName="stroke-dashoffset" values="39.627;39.627;0" keyTimes="0;0.773;1" dur="1.742s" fill="freeze" begin="0s;84b2.click" /></path><path d="M45.57,55.29c0.88,0.88,1.11,1.83,1.11,3.09c0,2.89,0.01,16.49,0.03,26.37c0.01,4.63,0.01,8.45,0.02,9.97" stroke-dasharray="39.725" stroke-dashoffset="39.725"><animate attributeName="stroke-dashoffset" values="39.725" fill="freeze" begin="84b2.click" /><animate attributeName="stroke-dashoffset" values="39.725;39.725;0" keyTimes="0;0.814;1" dur="2.139s" fill="freeze" begin="0s;84b2.click" /></path><path d="M47.79,57.19c8.35-0.74,28.22-3.14,33.08-3.69c4.14-0.47,4.69,1.44,4.66,5c-0.06,6.58,0.08,23.56,0.08,33.57c0,8.62-6.43,0.79-7.45,0.27" stroke-dasharray="86.964" stroke-dashoffset="86.964"><animate attributeName="stroke-dashoffset" values="86.964" fill="freeze" begin="84b2.click" /><animate attributeName="stroke-dashoffset" values="86.964;86.964;0" keyTimes="0;0.766;1" dur="2.793s" fill="freeze" begin="0s;84b2.click" /></path><path d="M47.79,68.89c10.46-0.99,29.82-2.66,36.49-3.06" stroke-dasharray="36.62" stroke-dashoffset="36.62"><animate attributeName="stroke-dashoffset" values="36.62" fill="freeze" begin="84b2.click" /><animate attributeName="stroke-dashoffset" values="36.62;36.62;0" keyTimes="0;0.884;1" dur="3.159s" fill="freeze" begin="0s;84b2.click" /></path><path d="M47.96,81.64c8.29-0.91,28.29-2.73,36.57-2.93" stroke-dasharray="36.695" stroke-dashoffset="36.695"><animate attributeName="stroke-dashoffset" values="36.695" fill="freeze" begin="84b2.click" /><animate attributeName="stroke-dashoffset" values="36.695;36.695;0" keyTimes="0;0.896;1" dur="3.526s" fill="freeze" begin="0s;84b2.click" /></path><path d="M63.97,33.53c0.88,0.88,1.3,2.15,1.3,3.02c0,3,0.03,31.62,0.04,48.45c0,5.32,0.01,9.44,0.01,11.16" stroke-dasharray="62.975" stroke-dashoffset="62.975"><animate attributeName="stroke-dashoffset" values="62.975" fill="freeze" begin="84b2.click" /><animate attributeName="stroke-dashoffset" values="62.975;62.975;0" keyTimes="0;0.882;1" dur="3.999s" fill="freeze" begin="0s;84b2.click" /></path><path d="M82.84,30.47c3.64,1.46,9.41,6.01,10.32,8.28" stroke-dasharray="13.419" stroke-dashoffset="13.419"><animate attributeName="stroke-dashoffset" values="13.419" fill="freeze" begin="84b2.click" /><animate attributeName="stroke-dashoffset" values="13.419;13.419;0" keyTimes="0;0.968;1" dur="4.133s" fill="freeze" begin="0s;84b2.click" /></path></g></svg>