<svg xmlns="http://www.w3.org/2000/svg" width="109" height="109" viewBox="0 0 109 109" id="84b8"><g fill="none" stroke="#666" stroke-width="9" stroke-linecap="round" stroke-linejoin="round"><g><g><path d="M23.6,23.07c2.65,0.56,5.52,0.37,7.89,0.15c12.44-1.2,35.91-2.97,48.76-3.37c2.63-0.08,5.59,0.02,8.15,0.64" /><path d="M40.33,12.5c0.77,0.77,1.55,1.86,1.67,2.63c1.25,8.49,1.82,13.52,2.25,16.12" /><path d="M71.09,10.5c0.33,0.92,0.51,2.11,0.14,3.24C69.08,20.4,68.35,22.73,66,29" /></g><g p4:phon="烝" xmlns:p4="http://kanjivg.tagaini.net"><g><g><g><path d="M36.72,37.38c1.66,0.87,4.34,0.8,6.16,0.54c5.88-0.83,17.99-2.55,21.65-3.13c1.65-0.26,2.99,1.73,1.17,3.1c-4.61,3.46-7.2,5.65-12.61,9.35" /><g><path d="M51.09,47.16c5.66,2.84,7.66,12.09,3.82,21.85c-1.62,4.1-4.78,0.12-6.09-1.62" /></g></g><g p4:partial><path d="M22.38,54.34c1.6,0.18,2.95,0.32,4.55-0.05c2.32-0.29,11.9-3.18,13.92-3.92s3.92,1.15,2.56,3.15c-4.91,7.23-15.28,17.1-26.07,21.72" /><path d="M83.02,40.95c-0.02,0.8-0.18,1.9-0.75,2.43c-3.89,3.62-7.89,6.37-14.73,9.71" /><path d="M62.3,53.29C64.73,53.66,77.1,63.81,85,68.87c1.39,0.89,4.62,2.75,6.62,3.65" /></g></g><g><path d="M31.9,79.04c2.6,0.46,5.08,0.3,7.47,0.08c8.93-0.83,20.59-2.68,30.25-2.94c2.11-0.06,4.23-0.09,6.31,0.3" /></g></g><g><path d="M23.08,85.68c0,4.91-6.61,12.16-8.33,13.57" /><path d="M39.13,85.87c2.65,2.33,5.16,8.75,5.82,12.38" /><path d="M58.18,85.55c3.06,2.26,7.89,9.3,8.66,12.82" /><path d="M80.42,84.52c3.94,2.59,10.17,10.66,11.16,14.7" /></g></g></g></g><g fill="none" stroke="#000" stroke-width="5" stroke-linecap="round" stroke-linejoin="round"><g><g><path d="M23.6,23.07c2.65,0.56,5.52,0.37,7.89,0.15c12.44-1.2,35.91-2.97,48.76-3.37c2.63-0.08,5.59,0.02,8.15,0.64" stroke-dasharray="65" stroke-dashoffset="65"><animate id="0" attributeName="stroke-dashoffset" values="65;0" dur="0.49s" fill="freeze" begin="0s;84b8.click" /></path><path d="M40.33,12.5c0.77,0.77,1.55,1.86,1.67,2.63c1.25,8.49,1.82,13.52,2.25,16.12" stroke-dasharray="19.43" stroke-dashoffset="19.43"><animate attributeName="stroke-dashoffset" values="19.43" fill="freeze" begin="84b8.click" /><animate id="1" attributeName="stroke-dashoffset" values="19.43;0" dur="0.19s" fill="freeze" begin="0.end" /></path><path d="M71.09,10.5c0.33,0.92,0.51,2.11,0.14,3.24C69.08,20.4,68.35,22.73,66,29" stroke-dasharray="19.44" stroke-dashoffset="19.44"><animate attributeName="stroke-dashoffset" values="19.44" fill="freeze" begin="84b8.click" /><animate id="2" attributeName="stroke-dashoffset" values="19.44;0" dur="0.19s" fill="freeze" begin="1.end" /></path></g><g p4:phon="烝" xmlns:p4="http://kanjivg.tagaini.net"><g><g><g><path d="M36.72,37.38c1.66,0.87,4.34,0.8,6.16,0.54c5.88-0.83,17.99-2.55,21.65-3.13c1.65-0.26,2.99,1.73,1.17,3.1c-4.61,3.46-7.2,5.65-12.61,9.35" stroke-dasharray="48.58" stroke-dashoffset="48.58"><animate attributeName="stroke-dashoffset" values="48.58" fill="freeze" begin="84b8.click" /><animate id="3" attributeName="stroke-dashoffset" values="48.58;0" dur="0.49s" fill="freeze" begin="2.end" /></path><g><path d="M51.09,47.16c5.66,2.84,7.66,12.09,3.82,21.85c-1.62,4.1-4.78,0.12-6.09-1.62" stroke-dasharray="32.46" stroke-dashoffset="32.46"><animate attributeName="stroke-dashoffset" values="32.46" fill="freeze" begin="84b8.click" /><animate id="4" attributeName="stroke-dashoffset" values="32.46;0" dur="0.32s" fill="freeze" begin="3.end" /></path></g></g><g p4:partial><path d="M22.38,54.34c1.6,0.18,2.95,0.32,4.55-0.05c2.32-0.29,11.9-3.18,13.92-3.92s3.92,1.15,2.56,3.15c-4.91,7.23-15.28,17.1-26.07,21.72" stroke-dasharray="58.95" stroke-dashoffset="58.95"><animate attributeName="stroke-dashoffset" values="58.95" fill="freeze" begin="84b8.click" /><animate id="5" attributeName="stroke-dashoffset" values="58.95;0" dur="0.59s" fill="freeze" begin="4.end" /></path><path d="M83.02,40.95c-0.02,0.8-0.18,1.9-0.75,2.43c-3.89,3.62-7.89,6.37-14.73,9.71" stroke-dasharray="20.32" stroke-dashoffset="20.32"><animate attributeName="stroke-dashoffset" values="20.32" fill="freeze" begin="84b8.click" /><animate id="6" attributeName="stroke-dashoffset" values="20.32;0" dur="0.2s" fill="freeze" begin="5.end" /></path><path d="M62.3,53.29C64.73,53.66,77.1,63.81,85,68.87c1.39,0.89,4.62,2.75,6.62,3.65" stroke-dasharray="35.14" stroke-dashoffset="35.14"><animate attributeName="stroke-dashoffset" values="35.14" fill="freeze" begin="84b8.click" /><animate id="7" attributeName="stroke-dashoffset" values="35.14;0" dur="0.35s" fill="freeze" begin="6.end" /></path></g></g><g><path d="M31.9,79.04c2.6,0.46,5.08,0.3,7.47,0.08c8.93-0.83,20.59-2.68,30.25-2.94c2.11-0.06,4.23-0.09,6.31,0.3" stroke-dasharray="44.23" stroke-dashoffset="44.23"><animate attributeName="stroke-dashoffset" values="44.23" fill="freeze" begin="84b8.click" /><animate id="8" attributeName="stroke-dashoffset" values="44.23;0" dur="0.44s" fill="freeze" begin="7.end" /></path></g></g><g><path d="M23.08,85.68c0,4.91-6.61,12.16-8.33,13.57" stroke-dasharray="16.26" stroke-dashoffset="16.26"><animate attributeName="stroke-dashoffset" values="16.26" fill="freeze" begin="84b8.click" /><animate id="9" attributeName="stroke-dashoffset" values="16.26;0" dur="0.16s" fill="freeze" begin="8.end" /></path><path d="M39.13,85.87c2.65,2.33,5.16,8.75,5.82,12.38" stroke-dasharray="13.85" stroke-dashoffset="13.85"><animate attributeName="stroke-dashoffset" values="13.85" fill="freeze" begin="84b8.click" /><animate id="10" attributeName="stroke-dashoffset" values="13.85;0" dur="0.14s" fill="freeze" begin="9.end" /></path><path d="M58.18,85.55c3.06,2.26,7.89,9.3,8.66,12.82" stroke-dasharray="15.66" stroke-dashoffset="15.66"><animate attributeName="stroke-dashoffset" values="15.66" fill="freeze" begin="84b8.click" /><animate id="11" attributeName="stroke-dashoffset" values="15.66;0" dur="0.16s" fill="freeze" begin="10.end" /></path><path d="M80.42,84.52c3.94,2.59,10.17,10.66,11.16,14.7" stroke-dasharray="18.7" stroke-dashoffset="18.7"><animate attributeName="stroke-dashoffset" values="18.7" fill="freeze" begin="84b8.click" /><animate id="12" attributeName="stroke-dashoffset" values="18.7;0" dur="0.19s" fill="freeze" begin="11.end" /></path></g></g></g></g></svg>