<svg xmlns="http://www.w3.org/2000/svg" width="109" height="109" viewBox="0 0 109 109" id="84c6"><g fill="none" stroke="#666" stroke-width="9" stroke-linecap="round" stroke-linejoin="round"><g><g><path d="M21,19.27c1.72,0.53,3.73,0.63,5.45,0.53c15.83-0.96,36.28-3.46,54.52-3.53c2.87-0.01,4.59,0.25,6.03,0.51" /><path d="M34.25,9.5c1.75,1.43,2.31,1.87,2.5,2.75C38.5,20.5,39,24,39.5,27" /><path d="M68.18,8c0.95,0.85,1.58,2.14,1.27,3.39C68.5,15.2,66.94,21.13,65.56,26" /></g><g><g><g><path d="M52.18,22.88c0.64,0.35,2,2.62,2.13,3.32c0.13,0.7,0.07,3.32-0.06,7.69" /><g><path d="M22.7,35.95c1.61,0.44,4.57,0.51,6.18,0.44c16.78-0.74,33.36-2.89,52.27-3.31c2.69-0.06,4.3,0.21,5.64,0.43" /><path d="M26.54,37.07c0.05,1.38,0.04,3.56-0.1,5.55c-1.2,17.26-2.69,40.88-17.06,52.73" /></g></g><g><g><path d="M30.97,47.77c1.31,0.23,3.71,0.27,5.01,0.23c6.83-0.21,27.81-2.62,42.84-3.16c2.18-0.08,3.49,0.11,4.58,0.23" /><path d="M42.96,41.12c0.79,0.34,1.35,1.5,1.42,2.22c0.56,5.45,1.12,11.44,1.54,16.48" /></g><path d="M66.06,38.92c0.55,0.24,1.04,2.03,0.99,2.54c-0.64,6.32-1.3,9.54-2.26,13.82" /><path d="M46.13,57.68c3,0,17.66-1.81,20.36-1.91" /></g><g><path d="M32.02,67.31c0.47,0.28,1.47,2.09,1.57,2.65c0.66,3.87,0.67,12.04,1.38,22.12" /><path d="M34,70.09c2.96-0.2,43.35-4.53,45.55-4.65c2.59-0.14,3.16,2.46,3.06,3.73c-0.47,6.41-2.29,13.67-4.58,19.71c-2.04,5.38-3.79,1.38-5.14-0.93" /><path d="M54.16,59.95c0.47,0.28,1.47,2.09,1.57,2.65c0.09,0.56-0.06,34.91-0.16,38.4" /></g></g></g></g></g><g fill="none" stroke="#000" stroke-width="5" stroke-linecap="round" stroke-linejoin="round"><g><g><path d="M21,19.27c1.72,0.53,3.73,0.63,5.45,0.53c15.83-0.96,36.28-3.46,54.52-3.53c2.87-0.01,4.59,0.25,6.03,0.51" stroke-dasharray="66.213" stroke-dashoffset="66.213"><animate attributeName="stroke-dashoffset" values="66.213;66.213;0" dur="0.498s" fill="freeze" begin="0s;84c6.click" /></path><path d="M34.25,9.5c1.75,1.43,2.31,1.87,2.5,2.75C38.5,20.5,39,24,39.5,27" stroke-dasharray="18.795" stroke-dashoffset="18.795"><animate attributeName="stroke-dashoffset" values="18.795" fill="freeze" begin="84c6.click" /><animate attributeName="stroke-dashoffset" values="18.795;18.795;0" keyTimes="0;0.726;1" dur="0.686s" fill="freeze" begin="0s;84c6.click" /></path><path d="M68.18,8c0.95,0.85,1.58,2.14,1.27,3.39C68.5,15.2,66.94,21.13,65.56,26" stroke-dasharray="18.921" stroke-dashoffset="18.921"><animate attributeName="stroke-dashoffset" values="18.921" fill="freeze" begin="84c6.click" /><animate attributeName="stroke-dashoffset" values="18.921;18.921;0" keyTimes="0;0.784;1" dur="0.875s" fill="freeze" begin="0s;84c6.click" /></path></g><g><g><g><path d="M52.18,22.88c0.64,0.35,2,2.62,2.13,3.32c0.13,0.7,0.07,3.32-0.06,7.69" stroke-dasharray="11.688" stroke-dashoffset="11.688"><animate attributeName="stroke-dashoffset" values="11.688" fill="freeze" begin="84c6.click" /><animate attributeName="stroke-dashoffset" values="11.688;11.688;0" keyTimes="0;0.882;1" dur="0.992s" fill="freeze" begin="0s;84c6.click" /></path><g><path d="M22.7,35.95c1.61,0.44,4.57,0.51,6.18,0.44c16.78-0.74,33.36-2.89,52.27-3.31c2.69-0.06,4.3,0.21,5.64,0.43" stroke-dasharray="64.262" stroke-dashoffset="64.262"><animate attributeName="stroke-dashoffset" values="64.262" fill="freeze" begin="84c6.click" /><animate attributeName="stroke-dashoffset" values="64.262;64.262;0" keyTimes="0;0.673;1" dur="1.475s" fill="freeze" begin="0s;84c6.click" /></path><path d="M26.54,37.07c0.05,1.38,0.04,3.56-0.1,5.55c-1.2,17.26-2.69,40.88-17.06,52.73" stroke-dasharray="62.516" stroke-dashoffset="62.516"><animate attributeName="stroke-dashoffset" values="62.516" fill="freeze" begin="84c6.click" /><animate attributeName="stroke-dashoffset" values="62.516;62.516;0" keyTimes="0;0.758;1" dur="1.945s" fill="freeze" begin="0s;84c6.click" /></path></g></g><g><g><path d="M30.97,47.77c1.31,0.23,3.71,0.27,5.01,0.23c6.83-0.21,27.81-2.62,42.84-3.16c2.18-0.08,3.49,0.11,4.58,0.23" stroke-dasharray="52.575" stroke-dashoffset="52.575"><animate attributeName="stroke-dashoffset" values="52.575" fill="freeze" begin="84c6.click" /><animate attributeName="stroke-dashoffset" values="52.575;52.575;0" keyTimes="0;0.787;1" dur="2.471s" fill="freeze" begin="0s;84c6.click" /></path><path d="M42.96,41.12c0.79,0.34,1.35,1.5,1.42,2.22c0.56,5.45,1.12,11.44,1.54,16.48" stroke-dasharray="19.289" stroke-dashoffset="19.289"><animate attributeName="stroke-dashoffset" values="19.289" fill="freeze" begin="84c6.click" /><animate attributeName="stroke-dashoffset" values="19.289;19.289;0" keyTimes="0;0.928;1" dur="2.664s" fill="freeze" begin="0s;84c6.click" /></path></g><path d="M66.06,38.92c0.55,0.24,1.04,2.03,0.99,2.54c-0.64,6.32-1.3,9.54-2.26,13.82" stroke-dasharray="16.821" stroke-dashoffset="16.821"><animate attributeName="stroke-dashoffset" values="16.821" fill="freeze" begin="84c6.click" /><animate attributeName="stroke-dashoffset" values="16.821;16.821;0" keyTimes="0;0.941;1" dur="2.832s" fill="freeze" begin="0s;84c6.click" /></path><path d="M46.13,57.68c3,0,17.66-1.81,20.36-1.91" stroke-dasharray="20.454" stroke-dashoffset="20.454"><animate attributeName="stroke-dashoffset" values="20.454" fill="freeze" begin="84c6.click" /><animate attributeName="stroke-dashoffset" values="20.454;20.454;0" keyTimes="0;0.932;1" dur="3.037s" fill="freeze" begin="0s;84c6.click" /></path></g><g><path d="M32.02,67.31c0.47,0.28,1.47,2.09,1.57,2.65c0.66,3.87,0.67,12.04,1.38,22.12" stroke-dasharray="25.285" stroke-dashoffset="25.285"><animate attributeName="stroke-dashoffset" values="25.285" fill="freeze" begin="84c6.click" /><animate attributeName="stroke-dashoffset" values="25.285;25.285;0" keyTimes="0;0.923;1" dur="3.29s" fill="freeze" begin="0s;84c6.click" /></path><path d="M34,70.09c2.96-0.2,43.35-4.53,45.55-4.65c2.59-0.14,3.16,2.46,3.06,3.73c-0.47,6.41-2.29,13.67-4.58,19.71c-2.04,5.38-3.79,1.38-5.14-0.93" stroke-dasharray="80.062" stroke-dashoffset="80.062"><animate attributeName="stroke-dashoffset" values="80.062" fill="freeze" begin="84c6.click" /><animate attributeName="stroke-dashoffset" values="80.062;80.062;0" keyTimes="0;0.845;1" dur="3.892s" fill="freeze" begin="0s;84c6.click" /></path><path d="M54.16,59.95c0.47,0.28,1.47,2.09,1.57,2.65c0.09,0.56-0.06,34.91-0.16,38.4" stroke-dasharray="41.517" stroke-dashoffset="41.517"><animate attributeName="stroke-dashoffset" values="41.517" fill="freeze" begin="84c6.click" /><animate attributeName="stroke-dashoffset" values="41.517;41.517;0" keyTimes="0;0.904;1" dur="4.307s" fill="freeze" begin="0s;84c6.click" /></path></g></g></g></g></g></svg>