<svg xmlns="http://www.w3.org/2000/svg" width="109" height="109" viewBox="0 0 109 109" id="84cd"><g fill="none" stroke="#666" stroke-width="6" stroke-linecap="round" stroke-linejoin="round"><g><g><path d="M18.5,20.77c1.81,0.53,3.9,0.6,5.71,0.53c18.92-0.8,37.18-3.05,58.97-3.53c3.01-0.07,4.81,0.25,6.32,0.51" /><path d="M38.33,11.75c1.36,1.12,1.8,1.46,1.95,2.14c1.36,6.43,1.75,12.27,2.14,14.61" /><path d="M66.19,10c0.78,0.74,1.29,1.86,1.03,2.94c-0.78,3.31-1.29,8.83-2.41,13.06" /></g><g><g><g p6:partial xmlns:p6="http://kanjivg.tagaini.net"><g><path d="M30.51,36.18c0.98,0.17,2.76,0.2,3.75,0.17c11.1-0.28,19.11-1.78,28.49-2.16c1.62-0.07,2.61,0.08,3.42,0.17" /><path d="M51.57,25.12c0.11,0.15,1.49,0.81,1.6,1.79c0.51,4.71,0.28,17.6,0.28,19.21" /><path d="M18.12,48.21c1.8,0.36,5.12,0.52,6.9,0.36c18.62-1.65,35.79-3.52,61.18-5.23c2.98-0.2,4.8,0.17,6.3,0.36" /></g><path d="M75.25,27.02c0,1.73-0.14,2.9-1.31,3.9c-15.08,12.88-32.22,26-57.26,35.87" /></g><g><path d="M76.04,48.81c-0.29,1.19-0.39,1.89-1.31,2.37c-6.43,3.37-16.21,7.31-25.29,9.26" /><path d="M47.39,52.12c0.76,0.34,0.81,0.57,1.06,1.03c0.25,0.46,0.25,6.18,0.25,7.62c0,6.18,10.16,5.05,18.81,5.05c9.43,0,16.85-0.56,16.88-5.46" /></g></g><g><path d="M35.43,73.66c0.4,0.66,1.34,1.83,1.33,2.71C36.75,79,37.75,91.25,38.39,98.5" /><path d="M37.44,75.53c2.29-0.11,35.27-2.67,37.36-2.8c1.73-0.11,2.85,1.22,2.72,1.87c-0.27,1.32-3.66,22.38-3.66,23.04" /><path d="M37.86,84.83c3.09,0,34.16-1.94,37.66-1.94" /><path d="M39.84,96.03c6.3-0.47,25.22-0.89,33.07-1.3" /></g></g></g></g><g fill="none" stroke="#000" stroke-width="3" stroke-linecap="round" stroke-linejoin="round"><path d="M18.5,20.77c1.81,0.53,3.9,0.6,5.71,0.53c18.92-0.8,37.18-3.05,58.97-3.53c3.01-0.07,4.81,0.25,6.32,0.51" stroke-dasharray="71.195" stroke-dashoffset="71.195"><animate attributeName="stroke-dashoffset" values="71.195;71.195;0" dur="0.535s" fill="freeze" begin="0s;84cd.click" /></path><path d="M38.33,11.75c1.36,1.12,1.8,1.46,1.95,2.14c1.36,6.43,1.75,12.27,2.14,14.61" stroke-dasharray="17.722" stroke-dashoffset="17.722"><animate attributeName="stroke-dashoffset" values="17.722" fill="freeze" begin="84cd.click" /><animate attributeName="stroke-dashoffset" values="17.722;17.722;0" keyTimes="0;0.751;1" dur="0.712s" fill="freeze" begin="0s;84cd.click" /></path><path d="M66.19,10c0.78,0.74,1.29,1.86,1.03,2.94c-0.78,3.31-1.29,8.83-2.41,13.06" stroke-dasharray="16.546" stroke-dashoffset="16.546"><animate attributeName="stroke-dashoffset" values="16.546" fill="freeze" begin="84cd.click" /><animate attributeName="stroke-dashoffset" values="16.546;16.546;0" keyTimes="0;0.812;1" dur="0.877s" fill="freeze" begin="0s;84cd.click" /></path><path d="M30.51,36.18c0.98,0.17,2.76,0.2,3.75,0.17c11.1-0.28,19.11-1.78,28.49-2.16c1.62-0.07,2.61,0.08,3.42,0.17" stroke-dasharray="35.767" stroke-dashoffset="35.767"><animate attributeName="stroke-dashoffset" values="35.767" fill="freeze" begin="84cd.click" /><animate attributeName="stroke-dashoffset" values="35.767;35.767;0" keyTimes="0;0.71;1" dur="1.235s" fill="freeze" begin="0s;84cd.click" /></path><path d="M51.57,25.12c0.11,0.15,1.49,0.81,1.6,1.79c0.51,4.71,0.28,17.6,0.28,19.21" stroke-dasharray="21.695" stroke-dashoffset="21.695"><animate attributeName="stroke-dashoffset" values="21.695" fill="freeze" begin="84cd.click" /><animate attributeName="stroke-dashoffset" values="21.695;21.695;0" keyTimes="0;0.851;1" dur="1.452s" fill="freeze" begin="0s;84cd.click" /></path><path d="M18.12,48.21c1.8,0.36,5.12,0.52,6.9,0.36c18.62-1.65,35.79-3.52,61.18-5.23c2.98-0.2,4.8,0.17,6.3,0.36" stroke-dasharray="74.656" stroke-dashoffset="74.656"><animate attributeName="stroke-dashoffset" values="74.656" fill="freeze" begin="84cd.click" /><animate attributeName="stroke-dashoffset" values="74.656;74.656;0" keyTimes="0;0.721;1" dur="2.013s" fill="freeze" begin="0s;84cd.click" /></path><path d="M75.25,27.02c0,1.73-0.14,2.9-1.31,3.9c-15.08,12.88-32.22,26-57.26,35.87" stroke-dasharray="72.187" stroke-dashoffset="72.187"><animate attributeName="stroke-dashoffset" values="72.187" fill="freeze" begin="84cd.click" /><animate attributeName="stroke-dashoffset" values="72.187;72.187;0" keyTimes="0;0.788;1" dur="2.556s" fill="freeze" begin="0s;84cd.click" /></path><path d="M76.04,48.81c-0.29,1.19-0.39,1.89-1.31,2.37c-6.43,3.37-16.21,7.31-25.29,9.26" stroke-dasharray="29.825" stroke-dashoffset="29.825"><animate attributeName="stroke-dashoffset" values="29.825" fill="freeze" begin="84cd.click" /><animate attributeName="stroke-dashoffset" values="29.825;29.825;0" keyTimes="0;0.896;1" dur="2.854s" fill="freeze" begin="0s;84cd.click" /></path><path d="M47.39,52.12c0.76,0.34,0.81,0.57,1.06,1.03c0.25,0.46,0.25,6.18,0.25,7.62c0,6.18,10.16,5.05,18.81,5.05c9.43,0,16.85-0.56,16.88-5.46" stroke-dasharray="49.828" stroke-dashoffset="49.828"><animate attributeName="stroke-dashoffset" values="49.828" fill="freeze" begin="84cd.click" /><animate attributeName="stroke-dashoffset" values="49.828;49.828;0" keyTimes="0;0.851;1" dur="3.352s" fill="freeze" begin="0s;84cd.click" /></path><path d="M35.43,73.66c0.4,0.66,1.34,1.83,1.33,2.71C36.75,79,37.75,91.25,38.39,98.5" stroke-dasharray="25.25" stroke-dashoffset="25.25"><animate attributeName="stroke-dashoffset" values="25.25" fill="freeze" begin="84cd.click" /><animate attributeName="stroke-dashoffset" values="25.25;25.25;0" keyTimes="0;0.93;1" dur="3.604s" fill="freeze" begin="0s;84cd.click" /></path><path d="M37.44,75.53c2.29-0.11,35.27-2.67,37.36-2.8c1.73-0.11,2.85,1.22,2.72,1.87c-0.27,1.32-3.66,22.38-3.66,23.04" stroke-dasharray="64.451" stroke-dashoffset="64.451"><animate attributeName="stroke-dashoffset" values="64.451" fill="freeze" begin="84cd.click" /><animate attributeName="stroke-dashoffset" values="64.451;64.451;0" keyTimes="0;0.881;1" dur="4.089s" fill="freeze" begin="0s;84cd.click" /></path><path d="M37.86,84.83c3.09,0,34.16-1.94,37.66-1.94" stroke-dasharray="37.712" stroke-dashoffset="37.712"><animate attributeName="stroke-dashoffset" values="37.712" fill="freeze" begin="84cd.click" /><animate attributeName="stroke-dashoffset" values="37.712;37.712;0" keyTimes="0;0.916;1" dur="4.466s" fill="freeze" begin="0s;84cd.click" /></path><path d="M39.84,96.03c6.3-0.47,25.22-0.89,33.07-1.3" stroke-dasharray="33.098" stroke-dashoffset="33.098"><animate attributeName="stroke-dashoffset" values="33.098" fill="freeze" begin="84cd.click" /><animate attributeName="stroke-dashoffset" values="33.098;33.098;0" keyTimes="0;0.931;1" dur="4.797s" fill="freeze" begin="0s;84cd.click" /></path></g></svg>