<svg xmlns="http://www.w3.org/2000/svg" width="109" height="109" viewBox="0 0 109 109" id="84d0"><g fill="none" stroke="#666" stroke-width="9" stroke-linecap="round" stroke-linejoin="round"><g><g><path d="M19,20.55c1.67,0.68,3.61,0.81,5.29,0.68c15.36-1.24,41.66-2.82,59.36-2.92c2.78-0.02,4.46,0.32,5.85,0.66" /><path d="M37.75,9.5c1.75,1.43,2.31,1.87,2.5,2.75C42,20.5,41.5,24,42,27" /><path d="M65.69,8.5c0.8,0.71,1.33,1.8,1.07,2.85c-0.8,3.21-1.34,8.55-2.49,12.65" /></g><g><g><g><path d="M26.37,30.74c1.51,0.4,4.29,0.99,5.8,0.9c12.25-0.75,40.91-2.23,47.44-2.57c2.51-0.13,4.03,0.19,5.29,0.39" /><path d="M29.6,32.26c0.03,1.06-0.06,2.72-0.06,4.24c0,9.77-3.28,25.21-11.78,34.85" /></g><path d="M37.01,39.06c1.01,0.22,2.86,0.28,3.87,0.22c6.44-0.39,21.62-1.91,28.04-2.27c1.68-0.09,2.7,0.11,3.54,0.22" /><path d="M31.28,47.58c0.91,0.27,2.58,0.35,3.49,0.27c5.8-0.47,37.81-3.25,44.08-3.33c1.52-0.02,4.37,0.13,5.13,0.27" /><path d="M39.23,47.92c1.45,1.25,1.35,1.78,1.35,3.56c0,8.41-0.44,11.25-0.44,12.68s1.54,2.11,3.62,1.16c3.48-1.57,6.48-2.57,13.82-5.27" /><path d="M70.42,47.63c0.02,0.16,0.04,0.42-0.04,0.66c-0.5,1.39-3.39,4.45-7.35,6.32" /><path d="M48.46,48.97c8.29,3.78,24.04,11.78,31.43,13.77c1.86,0.5,3.32,1.04,5.11,1.25" /></g><g><path d="M19.19,77.14c1.7,0.63,4.78,0.73,6.5,0.63C39.5,77,67,74.25,86.88,74.36c2.82,0.01,4.52,0.3,5.93,0.62" /><path d="M67.43,63.39c0.07,0.35,1.05,1.82,1.05,4.04c0,14.94,0.25,23.21,0.25,26.84c0,8.81-4.73,2.48-6.64,0.68" /><path d="M41.58,82.68c3.55,1.6,9.17,6.58,10.06,9.07" /></g></g></g></g><g fill="none" stroke="#000" stroke-width="5" stroke-linecap="round" stroke-linejoin="round"><g><g><path d="M19,20.55c1.67,0.68,3.61,0.81,5.29,0.68c15.36-1.24,41.66-2.82,59.36-2.92c2.78-0.02,4.46,0.32,5.85,0.66" stroke-dasharray="70.73" stroke-dashoffset="70.73"><animate id="0" attributeName="stroke-dashoffset" values="70.73;0" dur="0.53s" fill="freeze" begin="0s;84d0.click" /></path><path d="M37.75,9.5c1.75,1.43,2.31,1.87,2.5,2.75C42,20.5,41.5,24,42,27" stroke-dasharray="18.66" stroke-dashoffset="18.66"><animate attributeName="stroke-dashoffset" values="18.66" fill="freeze" begin="84d0.click" /><animate id="1" attributeName="stroke-dashoffset" values="18.66;0" dur="0.19s" fill="freeze" begin="0.end" /></path><path d="M65.69,8.5c0.8,0.71,1.33,1.8,1.07,2.85c-0.8,3.21-1.34,8.55-2.49,12.65" stroke-dasharray="16.09" stroke-dashoffset="16.09"><animate attributeName="stroke-dashoffset" values="16.09" fill="freeze" begin="84d0.click" /><animate id="2" attributeName="stroke-dashoffset" values="16.09;0" dur="0.16s" fill="freeze" begin="1.end" /></path></g><g><g><g><path d="M26.37,30.74c1.51,0.4,4.29,0.99,5.8,0.9c12.25-0.75,40.91-2.23,47.44-2.57c2.51-0.13,4.03,0.19,5.29,0.39" stroke-dasharray="58.71" stroke-dashoffset="58.71"><animate attributeName="stroke-dashoffset" values="58.71" fill="freeze" begin="84d0.click" /><animate id="3" attributeName="stroke-dashoffset" values="58.71;0" dur="0.59s" fill="freeze" begin="2.end" /></path><path d="M29.6,32.26c0.03,1.06-0.06,2.72-0.06,4.24c0,9.77-3.28,25.21-11.78,34.85" stroke-dasharray="41.73" stroke-dashoffset="41.73"><animate attributeName="stroke-dashoffset" values="41.73" fill="freeze" begin="84d0.click" /><animate id="4" attributeName="stroke-dashoffset" values="41.73;0" dur="0.42s" fill="freeze" begin="3.end" /></path></g><path d="M37.01,39.06c1.01,0.22,2.86,0.28,3.87,0.22c6.44-0.39,21.62-1.91,28.04-2.27c1.68-0.09,2.7,0.11,3.54,0.22" stroke-dasharray="35.57" stroke-dashoffset="35.57"><animate attributeName="stroke-dashoffset" values="35.57" fill="freeze" begin="84d0.click" /><animate id="5" attributeName="stroke-dashoffset" values="35.57;0" dur="0.36s" fill="freeze" begin="4.end" /></path><path d="M31.28,47.58c0.91,0.27,2.58,0.35,3.49,0.27c5.8-0.47,37.81-3.25,44.08-3.33c1.52-0.02,4.37,0.13,5.13,0.27" stroke-dasharray="52.86" stroke-dashoffset="52.86"><animate attributeName="stroke-dashoffset" values="52.86" fill="freeze" begin="84d0.click" /><animate id="6" attributeName="stroke-dashoffset" values="52.86;0" dur="0.53s" fill="freeze" begin="5.end" /></path><path d="M39.23,47.92c1.45,1.25,1.35,1.78,1.35,3.56c0,8.41-0.44,11.25-0.44,12.68s1.54,2.11,3.62,1.16c3.48-1.57,6.48-2.57,13.82-5.27" stroke-dasharray="36.1" stroke-dashoffset="36.1"><animate attributeName="stroke-dashoffset" values="36.1" fill="freeze" begin="84d0.click" /><animate id="7" attributeName="stroke-dashoffset" values="36.1;0" dur="0.36s" fill="freeze" begin="6.end" /></path><path d="M70.42,47.63c0.02,0.16,0.04,0.42-0.04,0.66c-0.5,1.39-3.39,4.45-7.35,6.32" stroke-dasharray="10.52" stroke-dashoffset="10.52"><animate attributeName="stroke-dashoffset" values="10.52" fill="freeze" begin="84d0.click" /><animate id="8" attributeName="stroke-dashoffset" values="10.52;0" dur="0.11s" fill="freeze" begin="7.end" /></path><path d="M48.46,48.97c8.29,3.78,24.04,11.78,31.43,13.77c1.86,0.5,3.32,1.04,5.11,1.25" stroke-dasharray="39.61" stroke-dashoffset="39.61"><animate attributeName="stroke-dashoffset" values="39.61" fill="freeze" begin="84d0.click" /><animate id="9" attributeName="stroke-dashoffset" values="39.61;0" dur="0.4s" fill="freeze" begin="8.end" /></path></g><g><path d="M19.19,77.14c1.7,0.63,4.78,0.73,6.5,0.63C39.5,77,67,74.25,86.88,74.36c2.82,0.01,4.52,0.3,5.93,0.62" stroke-dasharray="73.84" stroke-dashoffset="73.84"><animate attributeName="stroke-dashoffset" values="73.84" fill="freeze" begin="84d0.click" /><animate id="10" attributeName="stroke-dashoffset" values="73.84;0" dur="0.56s" fill="freeze" begin="9.end" /></path><path d="M67.43,63.39c0.07,0.35,1.05,1.82,1.05,4.04c0,14.94,0.25,23.21,0.25,26.84c0,8.81-4.73,2.48-6.64,0.68" stroke-dasharray="42.75" stroke-dashoffset="42.75"><animate attributeName="stroke-dashoffset" values="42.75" fill="freeze" begin="84d0.click" /><animate id="11" attributeName="stroke-dashoffset" values="42.75;0" dur="0.43s" fill="freeze" begin="10.end" /></path><path d="M41.58,82.68c3.55,1.6,9.17,6.58,10.06,9.07" stroke-dasharray="13.74" stroke-dashoffset="13.74"><animate attributeName="stroke-dashoffset" values="13.74" fill="freeze" begin="84d0.click" /><animate id="12" attributeName="stroke-dashoffset" values="13.74;0" dur="0.14s" fill="freeze" begin="11.end" /></path></g></g></g></g></svg>