<svg xmlns="http://www.w3.org/2000/svg" width="109" height="109" viewBox="0 0 109 109" id="8506"><g fill="none" stroke="#666" stroke-width="9" stroke-linecap="round" stroke-linejoin="round"><g><g><path d="M16.75,20.27c1.4,0.29,3.03,0.35,4.44,0.29c12.89-0.53,50.8-3.26,65.65-3.3c2.34-0.01,3.74,0.14,4.91,0.28" /><path d="M38.25,10.5c1.12,1.11,1.48,1.45,1.6,2.14c1.12,6.42,2.08,13.03,2.4,15.36" /><path d="M71.13,10.75c0.19,0.76,0.43,1.33,0.22,2.27c-1.22,5.52-1.77,8.28-3.1,13.48" /></g><g><g><path d="M22.28,29.25c3.92,1.05,10.13,4.31,11.11,5.94" /><g p6:part="1" xmlns:p6="http://kanjivg.tagaini.net"><g p6:partial><path d="M18.5,49.84c3.39,1.02,8.75,4.21,9.59,5.8" /><path d="M16.61,91.33c1.43,1.15,3.15,1.2,4.05-0.22c2.62-4.13,5.25-9.18,7.63-14.45" /></g></g></g><g p5:part="2" xmlns:p5="http://kanjivg.tagaini.net"><g><g><path d="M42.2,40.47c0.83,0.27,3.86,0.34,4.69,0.27c10.69-0.92,23.73-2.49,34.91-3.17c1.38-0.08,3.22,0.13,3.91,0.26" /><path d="M60.66,28.12c0.12,0.23,1.71,1.2,1.71,2.68c0,4.64,0.25,12.71,0.25,19.69" /><path d="M37.56,51.76c1.81,0.74,4.4,0.95,5.42,0.87c12.66-1.02,33.21-3.05,44.53-3.53c1.7-0.07,2.73,0.17,3.58,0.36" /></g><g><g><path d="M52.92,54.65c0.04,0.41,0.09,1.05-0.08,1.63c-1.01,3.45-6.35,11.66-14.77,15.63" /></g><g><path d="M71.54,51.92c0.42,0.38,0.75,0.82,0.78,1.4c0.11,2.6-0.3,5.12-0.3,6.88c0,4.12,5.02,3.66,9.97,3.66c5.22,0,8.66-0.53,9.39-0.83" /></g></g></g><g><path d="M57.5,62.71c0.05,0.54,0.27,1.46-0.1,2.17C55,69.53,49.02,78.13,38.99,86.11" /><path d="M55.6,72.69c0.28,0.02,1.77,0.25,2.56,0.15c4.72-0.59,13.21-2.17,16.91-2.84c2.54-0.46,3.26,0.53,2.61,1.79c-3.56,6.89-20.97,22.9-38.95,27.71" /><path d="M50.6,77.1c5,3.49,27.65,16.77,34.39,19.96c2.01,0.95,3.63,1.42,5.59,1.7" /></g></g></g></g></g><g fill="none" stroke="#000" stroke-width="5" stroke-linecap="round" stroke-linejoin="round"><g><g><path d="M16.75,20.27c1.4,0.29,3.03,0.35,4.44,0.29c12.89-0.53,50.8-3.26,65.65-3.3c2.34-0.01,3.74,0.14,4.91,0.28" stroke-dasharray="75.12" stroke-dashoffset="75.12"><animate id="0" attributeName="stroke-dashoffset" values="75.12;0" dur="0.56s" fill="freeze" begin="0s;8506.click" /></path><path d="M38.25,10.5c1.12,1.11,1.48,1.45,1.6,2.14c1.12,6.42,2.08,13.03,2.4,15.36" stroke-dasharray="18.27" stroke-dashoffset="18.27"><animate attributeName="stroke-dashoffset" values="18.27" fill="freeze" begin="8506.click" /><animate id="1" attributeName="stroke-dashoffset" values="18.27;0" dur="0.18s" fill="freeze" begin="0.end" /></path><path d="M71.13,10.75c0.19,0.76,0.43,1.33,0.22,2.27c-1.22,5.52-1.77,8.28-3.1,13.48" stroke-dasharray="16.14" stroke-dashoffset="16.14"><animate attributeName="stroke-dashoffset" values="16.14" fill="freeze" begin="8506.click" /><animate id="2" attributeName="stroke-dashoffset" values="16.14;0" dur="0.16s" fill="freeze" begin="1.end" /></path></g><g><g><path d="M22.28,29.25c3.92,1.05,10.13,4.31,11.11,5.94" stroke-dasharray="12.73" stroke-dashoffset="12.73"><animate attributeName="stroke-dashoffset" values="12.73" fill="freeze" begin="8506.click" /><animate id="3" attributeName="stroke-dashoffset" values="12.73;0" dur="0.13s" fill="freeze" begin="2.end" /></path><g p6:part="1" xmlns:p6="http://kanjivg.tagaini.net"><g p6:partial><path d="M18.5,49.84c3.39,1.02,8.75,4.21,9.59,5.8" stroke-dasharray="11.34" stroke-dashoffset="11.34"><animate attributeName="stroke-dashoffset" values="11.34" fill="freeze" begin="8506.click" /><animate id="4" attributeName="stroke-dashoffset" values="11.34;0" dur="0.11s" fill="freeze" begin="3.end" /></path><path d="M16.61,91.33c1.43,1.15,3.15,1.2,4.05-0.22c2.62-4.13,5.25-9.18,7.63-14.45" stroke-dasharray="21" stroke-dashoffset="21"><animate attributeName="stroke-dashoffset" values="21" fill="freeze" begin="8506.click" /><animate id="5" attributeName="stroke-dashoffset" values="21;0" dur="0.21s" fill="freeze" begin="4.end" /></path></g></g></g><g p5:part="2" xmlns:p5="http://kanjivg.tagaini.net"><g><g><path d="M42.2,40.47c0.83,0.27,3.86,0.34,4.69,0.27c10.69-0.92,23.73-2.49,34.91-3.17c1.38-0.08,3.22,0.13,3.91,0.26" stroke-dasharray="43.69" stroke-dashoffset="43.69"><animate attributeName="stroke-dashoffset" values="43.69" fill="freeze" begin="8506.click" /><animate id="6" attributeName="stroke-dashoffset" values="43.69;0" dur="0.44s" fill="freeze" begin="5.end" /></path><path d="M60.66,28.12c0.12,0.23,1.71,1.2,1.71,2.68c0,4.64,0.25,12.71,0.25,19.69" stroke-dasharray="22.97" stroke-dashoffset="22.97"><animate attributeName="stroke-dashoffset" values="22.97" fill="freeze" begin="8506.click" /><animate id="7" attributeName="stroke-dashoffset" values="22.97;0" dur="0.23s" fill="freeze" begin="6.end" /></path><path d="M37.56,51.76c1.81,0.74,4.4,0.95,5.42,0.87c12.66-1.02,33.21-3.05,44.53-3.53c1.7-0.07,2.73,0.17,3.58,0.36" stroke-dasharray="53.81" stroke-dashoffset="53.81"><animate attributeName="stroke-dashoffset" values="53.81" fill="freeze" begin="8506.click" /><animate id="8" attributeName="stroke-dashoffset" values="53.81;0" dur="0.54s" fill="freeze" begin="7.end" /></path></g><g><g><path d="M52.92,54.65c0.04,0.41,0.09,1.05-0.08,1.63c-1.01,3.45-6.35,11.66-14.77,15.63" stroke-dasharray="23.64" stroke-dashoffset="23.64"><animate attributeName="stroke-dashoffset" values="23.64" fill="freeze" begin="8506.click" /><animate id="9" attributeName="stroke-dashoffset" values="23.64;0" dur="0.24s" fill="freeze" begin="8.end" /></path></g><g><path d="M71.54,51.92c0.42,0.38,0.75,0.82,0.78,1.4c0.11,2.6-0.3,5.12-0.3,6.88c0,4.12,5.02,3.66,9.97,3.66c5.22,0,8.66-0.53,9.39-0.83" stroke-dasharray="29.92" stroke-dashoffset="29.92"><animate attributeName="stroke-dashoffset" values="29.92" fill="freeze" begin="8506.click" /><animate id="10" attributeName="stroke-dashoffset" values="29.92;0" dur="0.3s" fill="freeze" begin="9.end" /></path></g></g></g><g><path d="M57.5,62.71c0.05,0.54,0.27,1.46-0.1,2.17C55,69.53,49.02,78.13,38.99,86.11" stroke-dasharray="30.49" stroke-dashoffset="30.49"><animate attributeName="stroke-dashoffset" values="30.49" fill="freeze" begin="8506.click" /><animate id="11" attributeName="stroke-dashoffset" values="30.49;0" dur="0.3s" fill="freeze" begin="10.end" /></path><path d="M55.6,72.69c0.28,0.02,1.77,0.25,2.56,0.15c4.72-0.59,13.21-2.17,16.91-2.84c2.54-0.46,3.26,0.53,2.61,1.79c-3.56,6.89-20.97,22.9-38.95,27.71" stroke-dasharray="72.69" stroke-dashoffset="72.69"><animate attributeName="stroke-dashoffset" values="72.69" fill="freeze" begin="8506.click" /><animate id="12" attributeName="stroke-dashoffset" values="72.69;0" dur="0.55s" fill="freeze" begin="11.end" /></path><path d="M50.6,77.1c5,3.49,27.65,16.77,34.39,19.96c2.01,0.95,3.63,1.42,5.59,1.7" stroke-dasharray="45.65" stroke-dashoffset="45.65"><animate attributeName="stroke-dashoffset" values="45.65" fill="freeze" begin="8506.click" /><animate id="13" attributeName="stroke-dashoffset" values="45.65;0" dur="0.46s" fill="freeze" begin="12.end" /></path></g></g></g></g></g></svg>