<svg xmlns="http://www.w3.org/2000/svg" width="109" height="109" viewBox="0 0 109 109" id="8517"><g fill="none" stroke="#666" stroke-width="9" stroke-linecap="round" stroke-linejoin="round"><g><g><path d="M24.5,21.77c1.64,0.53,3.55,0.63,5.2,0.53c15.1-0.96,34.14-3.46,51.55-3.53c2.74-0.01,4.38,0.25,5.75,0.51" /><path d="M35.71,11.5c1.59,1.3,2.1,1.69,2.27,2.49c1.59,7.48,2.04,14.29,2.49,17.01" /><path d="M69.21,10.5c0.9,0.8,1.5,2.03,1.21,3.22c-0.91,3.62-2.01,9.66-3.32,14.28" /></g><g><g><path d="M52.01,24.88c0.62,0.32,1.94,2.37,2.07,3.01c0.12,0.63,0.06,3.33-0.06,7.29" /><g><path d="M23.61,36.47C25.09,37,27.8,37.06,29.27,37c12.98-0.5,37.73-2.25,52.29-3.06c2.46-0.14,3.94,0.25,5.17,0.52" /><path d="M28.01,37.42c0.05,1.33,0.02,3.43-0.1,5.35c-0.66,10.73-3.66,36.48-16.39,50.79" /></g></g><g><g><path d="M31.14,51.51c1.42,0.63,4.02,0.74,5.44,0.63c11.09-0.86,29.22-2.57,44.55-3.43c2.36-0.13,3.78,0.3,4.96,0.62" /><path d="M42.9,40.98c1.1,0.44,1.76,1.98,1.98,2.86C45.1,44.72,46,61.75,46.6,68.5" /></g><path d="M67.2,38.72c1.1,0.44,1.76,1.98,1.98,2.86c0.22,0.88-2.18,15.17-3.04,23.2" /><path d="M46.54,66.52c4.93,0,17.65-1.06,22.08-1.26" /></g><g><path d="M34.12,79.51c0,5.25-5.28,12.99-6.66,14.49" /><path d="M47.24,78.45c2.2,3.46,4.29,12.97,4.83,18.36" /><path d="M62.02,76.79c3,3.52,7.74,14.5,8.49,19.98" /><path d="M78.28,76.19c5.05,3.55,13.06,14.61,14.32,20.14" /></g></g></g></g><g fill="none" stroke="#000" stroke-width="5" stroke-linecap="round" stroke-linejoin="round"><g><g><path d="M24.5,21.77c1.64,0.53,3.55,0.63,5.2,0.53c15.1-0.96,34.14-3.46,51.55-3.53c2.74-0.01,4.38,0.25,5.75,0.51" stroke-dasharray="62.724" stroke-dashoffset="62.724"><animate attributeName="stroke-dashoffset" values="62.724;62.724;0" dur="0.472s" fill="freeze" begin="0s;8517.click" /></path><path d="M35.71,11.5c1.59,1.3,2.1,1.69,2.27,2.49c1.59,7.48,2.04,14.29,2.49,17.01" stroke-dasharray="20.634" stroke-dashoffset="20.634"><animate attributeName="stroke-dashoffset" values="20.634" fill="freeze" begin="8517.click" /><animate attributeName="stroke-dashoffset" values="20.634;20.634;0" keyTimes="0;0.696;1" dur="0.678s" fill="freeze" begin="0s;8517.click" /></path><path d="M69.21,10.5c0.9,0.8,1.5,2.03,1.21,3.22c-0.91,3.62-2.01,9.66-3.32,14.28" stroke-dasharray="18.274" stroke-dashoffset="18.274"><animate attributeName="stroke-dashoffset" values="18.274" fill="freeze" begin="8517.click" /><animate attributeName="stroke-dashoffset" values="18.274;18.274;0" keyTimes="0;0.787;1" dur="0.861s" fill="freeze" begin="0s;8517.click" /></path></g><g><g><path d="M52.01,24.88c0.62,0.32,1.94,2.37,2.07,3.01c0.12,0.63,0.06,3.33-0.06,7.29" stroke-dasharray="10.994" stroke-dashoffset="10.994"><animate attributeName="stroke-dashoffset" values="10.994" fill="freeze" begin="8517.click" /><animate attributeName="stroke-dashoffset" values="10.994;10.994;0" keyTimes="0;0.887;1" dur="0.971s" fill="freeze" begin="0s;8517.click" /></path><g><path d="M23.61,36.47C25.09,37,27.8,37.06,29.27,37c12.98-0.5,37.73-2.25,52.29-3.06c2.46-0.14,3.94,0.25,5.17,0.52" stroke-dasharray="63.31" stroke-dashoffset="63.31"><animate attributeName="stroke-dashoffset" values="63.31" fill="freeze" begin="8517.click" /><animate attributeName="stroke-dashoffset" values="63.31;63.31;0" keyTimes="0;0.671;1" dur="1.447s" fill="freeze" begin="0s;8517.click" /></path><path d="M28.01,37.42c0.05,1.33,0.02,3.43-0.1,5.35c-0.66,10.73-3.66,36.48-16.39,50.79" stroke-dasharray="59.603" stroke-dashoffset="59.603"><animate attributeName="stroke-dashoffset" values="59.603" fill="freeze" begin="8517.click" /><animate attributeName="stroke-dashoffset" values="59.603;59.603;0" keyTimes="0;0.708;1" dur="2.043s" fill="freeze" begin="0s;8517.click" /></path></g></g><g><g><path d="M31.14,51.51c1.42,0.63,4.02,0.74,5.44,0.63c11.09-0.86,29.22-2.57,44.55-3.43c2.36-0.13,3.78,0.3,4.96,0.62" stroke-dasharray="55.228" stroke-dashoffset="55.228"><animate attributeName="stroke-dashoffset" values="55.228" fill="freeze" begin="8517.click" /><animate attributeName="stroke-dashoffset" values="55.228;55.228;0" keyTimes="0;0.787;1" dur="2.595s" fill="freeze" begin="0s;8517.click" /></path><path d="M42.9,40.98c1.1,0.44,1.76,1.98,1.98,2.86C45.1,44.72,46,61.75,46.6,68.5" stroke-dasharray="28.315" stroke-dashoffset="28.315"><animate attributeName="stroke-dashoffset" values="28.315" fill="freeze" begin="8517.click" /><animate attributeName="stroke-dashoffset" values="28.315;28.315;0" keyTimes="0;0.902;1" dur="2.878s" fill="freeze" begin="0s;8517.click" /></path></g><path d="M67.2,38.72c1.1,0.44,1.76,1.98,1.98,2.86c0.22,0.88-2.18,15.17-3.04,23.2" stroke-dasharray="26.999" stroke-dashoffset="26.999"><animate attributeName="stroke-dashoffset" values="26.999" fill="freeze" begin="8517.click" /><animate attributeName="stroke-dashoffset" values="26.999;26.999;0" keyTimes="0;0.914;1" dur="3.148s" fill="freeze" begin="0s;8517.click" /></path><path d="M46.54,66.52c4.93,0,17.65-1.06,22.08-1.26" stroke-dasharray="22.119" stroke-dashoffset="22.119"><animate attributeName="stroke-dashoffset" values="22.119" fill="freeze" begin="8517.click" /><animate attributeName="stroke-dashoffset" values="22.119;22.119;0" keyTimes="0;0.934;1" dur="3.369s" fill="freeze" begin="0s;8517.click" /></path></g><g><path d="M34.12,79.51c0,5.25-5.28,12.99-6.66,14.49" stroke-dasharray="16.185" stroke-dashoffset="16.185"><animate attributeName="stroke-dashoffset" values="16.185" fill="freeze" begin="8517.click" /><animate attributeName="stroke-dashoffset" values="16.185;16.185;0" keyTimes="0;0.954;1" dur="3.531s" fill="freeze" begin="0s;8517.click" /></path><path d="M47.24,78.45c2.2,3.46,4.29,12.97,4.83,18.36" stroke-dasharray="19.089" stroke-dashoffset="19.089"><animate attributeName="stroke-dashoffset" values="19.089" fill="freeze" begin="8517.click" /><animate attributeName="stroke-dashoffset" values="19.089;19.089;0" keyTimes="0;0.949;1" dur="3.722s" fill="freeze" begin="0s;8517.click" /></path><path d="M62.02,76.79c3,3.52,7.74,14.5,8.49,19.98" stroke-dasharray="21.872" stroke-dashoffset="21.872"><animate attributeName="stroke-dashoffset" values="21.872" fill="freeze" begin="8517.click" /><animate attributeName="stroke-dashoffset" values="21.872;21.872;0" keyTimes="0;0.944;1" dur="3.941s" fill="freeze" begin="0s;8517.click" /></path><path d="M78.28,76.19c5.05,3.55,13.06,14.61,14.32,20.14" stroke-dasharray="25.029" stroke-dashoffset="25.029"><animate attributeName="stroke-dashoffset" values="25.029" fill="freeze" begin="8517.click" /><animate attributeName="stroke-dashoffset" values="25.029;25.029;0" keyTimes="0;0.94;1" dur="4.191s" fill="freeze" begin="0s;8517.click" /></path></g></g></g></g></svg>