<svg xmlns="http://www.w3.org/2000/svg" viewBox="0 0 109 109" id="8518"><g fill="none" stroke="#666" stroke-width="6" stroke-linecap="round" stroke-linejoin="round"><g><g><path d="M20,20.27c1.65,0.53,3.56,0.63,5.21,0.53c15.14-0.96,40.58-3.46,58.02-3.53c2.75-0.01,4.39,0.25,5.76,0.51" /><path d="M35.56,10.5c1.55,1.27,2.04,1.65,2.21,2.43c1.55,7.29,1.99,13.92,2.43,16.57" /><path d="M68.16,8c0.6,0.85,0.99,2.15,0.8,3.4c-0.6,3.83-1.5,10.21-2.36,15.1" /></g><g><g><g><path d="M51.27,22.75c0.08,0.93-0.11,1.7-0.35,2.05c-3.36,4.93-6.01,7.91-9.94,11.72c-1.3,1.26-1.17,2.99,0.8,2.55c6.44-1.43,14.48-4.15,21.46-5.73" /><path d="M59.19,28.77c2.74,1.61,7.07,6.64,7.75,9.15" /></g><g><g><path d="M30.22,39.75c0.23,0.31,0.37,1.3,0.23,1.71c-1.72,5.02-6.3,10.15-9.5,13.67c-1.01,1.12-0.02,2.83,1.4,2.21c4.87-2.12,13.19-5.83,18.88-8.02" /><path d="M37.76,45.2c2.4,1.29,6.2,5.29,6.8,7.29" /></g><g><path d="M75.65,34.18c0.27,0.23-0.07,0.98-0.23,1.29c-1.99,3.79-7.16,10.12-10.88,12.78c-1.18,0.84-0.64,2.09,1.04,1.73c5.41-1.15,14.16-3.37,20.53-4.58" /><path d="M81.36,40.01c3.51,1.94,9.07,7.98,9.94,11" /></g></g></g><g><path d="M52.76,46.93c0.1,0.74,0.45,2.04-0.21,2.98C46,59.25,34.75,70.75,15.5,78.43" /><path d="M54,49.81c5.04,4.25,26.75,18.11,32.31,21.22c1.89,1.05,4.31,1.5,6.19,1.8" /><g><g><path d="M60.37,61.29c0.1,0.51,0.37,1.39-0.21,2.06c-3.8,4.39-17.54,12.95-35.42,18.94" /></g><g><path d="M69.74,70.3c0.12,0.51,0.44,1.39-0.24,2.04c-4.67,4.45-19.28,14.58-42.82,19.5" /></g><g><path d="M79.89,78.92c0.16,0.56,0.32,1.45-0.3,2.26c-3.66,4.75-24.67,15.18-53.42,21.57" /></g></g></g></g></g></g><g fill="none" stroke="#000" stroke-width="3" stroke-linecap="round" stroke-linejoin="round"><path d="M20,20.27c1.65,0.53,3.56,0.63,5.21,0.53c15.14-0.96,40.58-3.46,58.02-3.53c2.75-0.01,4.39,0.25,5.76,0.51" stroke-dasharray="69.197" stroke-dashoffset="69.197"><animate attributeName="stroke-dashoffset" values="69.197;69.197;0" dur="0.52s" fill="freeze" begin="0s;8518.click" /></path><path d="M35.56,10.5c1.55,1.27,2.04,1.65,2.21,2.43c1.55,7.29,1.99,13.92,2.43,16.57" stroke-dasharray="20.102" stroke-dashoffset="20.102"><animate attributeName="stroke-dashoffset" values="20.102" fill="freeze" begin="8518.click" /><animate attributeName="stroke-dashoffset" values="20.102;20.102;0" keyTimes="0;0.721;1" dur="0.721s" fill="freeze" begin="0s;8518.click" /></path><path d="M68.16,8c0.6,0.85,0.99,2.15,0.8,3.4c-0.6,3.83-1.5,10.21-2.36,15.1" stroke-dasharray="18.858" stroke-dashoffset="18.858"><animate attributeName="stroke-dashoffset" values="18.858" fill="freeze" begin="8518.click" /><animate attributeName="stroke-dashoffset" values="18.858;18.858;0" keyTimes="0;0.792;1" dur="0.91s" fill="freeze" begin="0s;8518.click" /></path><path d="M51.27,22.75c0.08,0.93-0.11,1.7-0.35,2.05c-3.36,4.93-6.01,7.91-9.94,11.72c-1.3,1.26-1.17,2.99,0.8,2.55c6.44-1.43,14.48-4.15,21.46-5.73" stroke-dasharray="43.857" stroke-dashoffset="43.857"><animate attributeName="stroke-dashoffset" values="43.857" fill="freeze" begin="8518.click" /><animate attributeName="stroke-dashoffset" values="43.857;43.857;0" keyTimes="0;0.675;1" dur="1.349s" fill="freeze" begin="0s;8518.click" /></path><path d="M59.19,28.77c2.74,1.61,7.07,6.64,7.75,9.15" stroke-dasharray="12.161" stroke-dashoffset="12.161"><animate attributeName="stroke-dashoffset" values="12.161" fill="freeze" begin="8518.click" /><animate attributeName="stroke-dashoffset" values="12.161;12.161;0" keyTimes="0;0.917;1" dur="1.471s" fill="freeze" begin="0s;8518.click" /></path><path d="M30.22,39.75c0.23,0.31,0.37,1.3,0.23,1.71c-1.72,5.02-6.3,10.15-9.5,13.67c-1.01,1.12-0.02,2.83,1.4,2.21c4.87-2.12,13.19-5.83,18.88-8.02" stroke-dasharray="42.773" stroke-dashoffset="42.773"><animate attributeName="stroke-dashoffset" values="42.773" fill="freeze" begin="8518.click" /><animate attributeName="stroke-dashoffset" values="42.773;42.773;0" keyTimes="0;0.775;1" dur="1.899s" fill="freeze" begin="0s;8518.click" /></path><path d="M37.76,45.2c2.4,1.29,6.2,5.29,6.8,7.29" stroke-dasharray="10.113" stroke-dashoffset="10.113"><animate attributeName="stroke-dashoffset" values="10.113" fill="freeze" begin="8518.click" /><animate attributeName="stroke-dashoffset" values="10.113;10.113;0" keyTimes="0;0.95;1" dur="2s" fill="freeze" begin="0s;8518.click" /></path><path d="M75.65,34.18c0.27,0.23-0.07,0.98-0.23,1.29c-1.99,3.79-7.16,10.12-10.88,12.78c-1.18,0.84-0.64,2.09,1.04,1.73c5.41-1.15,14.16-3.37,20.53-4.58" stroke-dasharray="42.62" stroke-dashoffset="42.62"><animate attributeName="stroke-dashoffset" values="42.62" fill="freeze" begin="8518.click" /><animate attributeName="stroke-dashoffset" values="42.62;42.62;0" keyTimes="0;0.824;1" dur="2.426s" fill="freeze" begin="0s;8518.click" /></path><path d="M81.36,40.01c3.51,1.94,9.07,7.98,9.94,11" stroke-dasharray="15.04" stroke-dashoffset="15.04"><animate attributeName="stroke-dashoffset" values="15.04" fill="freeze" begin="8518.click" /><animate attributeName="stroke-dashoffset" values="15.04;15.04;0" keyTimes="0;0.942;1" dur="2.576s" fill="freeze" begin="0s;8518.click" /></path><path d="M52.76,46.93c0.1,0.74,0.45,2.04-0.21,2.98C46,59.25,34.75,70.75,15.5,78.43" stroke-dasharray="50.499" stroke-dashoffset="50.499"><animate attributeName="stroke-dashoffset" values="50.499" fill="freeze" begin="8518.click" /><animate attributeName="stroke-dashoffset" values="50.499;50.499;0" keyTimes="0;0.836;1" dur="3.081s" fill="freeze" begin="0s;8518.click" /></path><path d="M54,49.81c5.04,4.25,26.75,18.11,32.31,21.22c1.89,1.05,4.31,1.5,6.19,1.8" stroke-dasharray="45.155" stroke-dashoffset="45.155"><animate attributeName="stroke-dashoffset" values="45.155" fill="freeze" begin="8518.click" /><animate attributeName="stroke-dashoffset" values="45.155;45.155;0" keyTimes="0;0.872;1" dur="3.533s" fill="freeze" begin="0s;8518.click" /></path><path d="M60.37,61.29c0.1,0.51,0.37,1.39-0.21,2.06c-3.8,4.39-17.54,12.95-35.42,18.94" stroke-dasharray="42.622" stroke-dashoffset="42.622"><animate attributeName="stroke-dashoffset" values="42.622" fill="freeze" begin="8518.click" /><animate attributeName="stroke-dashoffset" values="42.622;42.622;0" keyTimes="0;0.892;1" dur="3.959s" fill="freeze" begin="0s;8518.click" /></path><path d="M69.74,70.3c0.12,0.51,0.44,1.39-0.24,2.04c-4.67,4.45-19.28,14.58-42.82,19.5" stroke-dasharray="49.72" stroke-dashoffset="49.72"><animate attributeName="stroke-dashoffset" values="49.72" fill="freeze" begin="8518.click" /><animate attributeName="stroke-dashoffset" values="49.72;49.72;0" keyTimes="0;0.888;1" dur="4.456s" fill="freeze" begin="0s;8518.click" /></path><path d="M79.89,78.92c0.16,0.56,0.32,1.45-0.3,2.26c-3.66,4.75-24.67,15.18-53.42,21.57" stroke-dasharray="60.5" stroke-dashoffset="60.5"><animate attributeName="stroke-dashoffset" values="60.5" fill="freeze" begin="8518.click" /><animate attributeName="stroke-dashoffset" values="60.5;60.5;0" keyTimes="0;0.907;1" dur="4.911s" fill="freeze" begin="0s;8518.click" /></path></g></svg>