<svg xmlns="http://www.w3.org/2000/svg" viewBox="0 0 109 109" id="8523"><g fill="none" stroke="#666" stroke-width="6" stroke-linecap="round" stroke-linejoin="round"><g><g><path d="M20.5,21.27c1.29,0.53,2.8,0.63,4.1,0.53c11.9-0.96,43.9-2.96,57.62-3.03c2.16-0.01,3.45,0.25,4.53,0.51" /><path d="M38.25,11.5c1.75,1.43,2.44,1.85,2.5,2.75C41.38,23.12,41.5,28,42,31" /><path d="M65.25,9.25c1.12,1,1.87,2.52,1.5,4c-1.12,4.5-2.88,10-4.5,15.75" /></g><g><g><path d="M36,35.57c1.09,1.11,1.79,3.01,1.79,4.31c0,12.52-0.04,54.72-0.04,58.98" /><path d="M21.06,39.56c1.24,0.51,1.19,2.38,1.3,4.09c0.16,2.55-0.67,7.65-1.06,10.33c-0.12,0.85,0.22,2.19,2.06,1.99c3.29-0.35,11.19-2.22,13.96-2.54" /><path d="M13.65,70.59c1.21,0.12,1.46,0.46,2.87,0.38c6.04-0.34,16.82-3.23,21.03-3.42" /><path d="M24.94,73.06c0.03,0.64,0.55,1.63,0.52,2.56c-0.28,8.23-4.44,17.72-11.23,24.45" /></g><g><g><path d="M66.02,29.75c0.19,1.27,0.08,2.67-0.56,3.73c-3.15,5.28-8.6,11.77-17.9,18.22" /><path d="M64.86,38.07c1.2,0.33,2.11,0.57,3.84,0.42c5.34-0.46,9.36-1.06,12.08-1.63c2.18-0.45,3.17,0.73,1.98,2.18c-6.94,8.42-19.14,18.55-38.32,25.94" /><path d="M60.44,43.83c0.91,0.43,4.55,3.02,6.37,5.6" /><path d="M52.46,49.21c1.31,1.05,5.22,5.52,6.31,7.89" /></g><g><path d="M44.12,70.6c0.93,0.51,2.62,0.57,3.56,0.51c10.29-0.62,31.26-3.09,42.6-3.86c1.54-0.11,2.47,0.24,3.25,0.5" /><path d="M79.66,52.5c0.07,0.28,0.99,1.44,0.99,3.2c0,11.83-0.2,33.49-0.2,36.37c0,12.95-5.34,2.89-7.67,0.15" /><path d="M55.1,76.89c2.81,1.73,7.26,7.11,7.96,9.81" /></g></g></g></g></g><g fill="none" stroke="#000" stroke-width="3" stroke-linecap="round" stroke-linejoin="round"><path d="M20.5,21.27c1.29,0.53,2.8,0.63,4.1,0.53c11.9-0.96,43.9-2.96,57.62-3.03c2.16-0.01,3.45,0.25,4.53,0.51" stroke-dasharray="66.45" stroke-dashoffset="66.45"><animate attributeName="stroke-dashoffset" values="66.45;66.45;0" dur="0.5s" fill="freeze" begin="0s;8523.click" /></path><path d="M38.25,11.5c1.75,1.43,2.44,1.85,2.5,2.75C41.38,23.12,41.5,28,42,31" stroke-dasharray="20.619" stroke-dashoffset="20.619"><animate attributeName="stroke-dashoffset" values="20.619" fill="freeze" begin="8523.click" /><animate attributeName="stroke-dashoffset" values="20.619;20.619;0" keyTimes="0;0.708;1" dur="0.706s" fill="freeze" begin="0s;8523.click" /></path><path d="M65.25,9.25c1.12,1,1.87,2.52,1.5,4c-1.12,4.5-2.88,10-4.5,15.75" stroke-dasharray="20.869" stroke-dashoffset="20.869"><animate attributeName="stroke-dashoffset" values="20.869" fill="freeze" begin="8523.click" /><animate attributeName="stroke-dashoffset" values="20.869;20.869;0" keyTimes="0;0.772;1" dur="0.915s" fill="freeze" begin="0s;8523.click" /></path><path d="M36,35.57c1.09,1.11,1.79,3.01,1.79,4.31c0,12.52-0.04,54.72-0.04,58.98" stroke-dasharray="63.746" stroke-dashoffset="63.746"><animate attributeName="stroke-dashoffset" values="63.746" fill="freeze" begin="8523.click" /><animate attributeName="stroke-dashoffset" values="63.746;63.746;0" keyTimes="0;0.656;1" dur="1.394s" fill="freeze" begin="0s;8523.click" /></path><path d="M21.06,39.56c1.24,0.51,1.19,2.38,1.3,4.09c0.16,2.55-0.67,7.65-1.06,10.33c-0.12,0.85,0.22,2.19,2.06,1.99c3.29-0.35,11.19-2.22,13.96-2.54" stroke-dasharray="32.519" stroke-dashoffset="32.519"><animate attributeName="stroke-dashoffset" values="32.519" fill="freeze" begin="8523.click" /><animate attributeName="stroke-dashoffset" values="32.519;32.519;0" keyTimes="0;0.811;1" dur="1.719s" fill="freeze" begin="0s;8523.click" /></path><path d="M13.65,70.59c1.21,0.12,1.46,0.46,2.87,0.38c6.04-0.34,16.82-3.23,21.03-3.42" stroke-dasharray="24.23" stroke-dashoffset="24.23"><animate attributeName="stroke-dashoffset" values="24.23" fill="freeze" begin="8523.click" /><animate attributeName="stroke-dashoffset" values="24.23;24.23;0" keyTimes="0;0.877;1" dur="1.961s" fill="freeze" begin="0s;8523.click" /></path><path d="M24.94,73.06c0.03,0.64,0.55,1.63,0.52,2.56c-0.28,8.23-4.44,17.72-11.23,24.45" stroke-dasharray="30.134" stroke-dashoffset="30.134"><animate attributeName="stroke-dashoffset" values="30.134" fill="freeze" begin="8523.click" /><animate attributeName="stroke-dashoffset" values="30.134;30.134;0" keyTimes="0;0.867;1" dur="2.262s" fill="freeze" begin="0s;8523.click" /></path><path d="M66.02,29.75c0.19,1.27,0.08,2.67-0.56,3.73c-3.15,5.28-8.6,11.77-17.9,18.22" stroke-dasharray="29.579" stroke-dashoffset="29.579"><animate attributeName="stroke-dashoffset" values="29.579" fill="freeze" begin="8523.click" /><animate attributeName="stroke-dashoffset" values="29.579;29.579;0" keyTimes="0;0.884;1" dur="2.558s" fill="freeze" begin="0s;8523.click" /></path><path d="M64.86,38.07c1.2,0.33,2.11,0.57,3.84,0.42c5.34-0.46,9.36-1.06,12.08-1.63c2.18-0.45,3.17,0.73,1.98,2.18c-6.94,8.42-19.14,18.55-38.32,25.94" stroke-dasharray="67.231" stroke-dashoffset="67.231"><animate attributeName="stroke-dashoffset" values="67.231" fill="freeze" begin="8523.click" /><animate attributeName="stroke-dashoffset" values="67.231;67.231;0" keyTimes="0;0.835;1" dur="3.063s" fill="freeze" begin="0s;8523.click" /></path><path d="M60.44,43.83c0.91,0.43,4.55,3.02,6.37,5.6" stroke-dasharray="8.537" stroke-dashoffset="8.537"><animate attributeName="stroke-dashoffset" values="8.537" fill="freeze" begin="8523.click" /><animate attributeName="stroke-dashoffset" values="8.537;8.537;0" keyTimes="0;0.947;1" dur="3.234s" fill="freeze" begin="0s;8523.click" /></path><path d="M52.46,49.21c1.31,1.05,5.22,5.52,6.31,7.89" stroke-dasharray="10.149" stroke-dashoffset="10.149"><animate attributeName="stroke-dashoffset" values="10.149" fill="freeze" begin="8523.click" /><animate attributeName="stroke-dashoffset" values="10.149;10.149;0" keyTimes="0;0.941;1" dur="3.437s" fill="freeze" begin="0s;8523.click" /></path><path d="M44.12,70.6c0.93,0.51,2.62,0.57,3.56,0.51c10.29-0.62,31.26-3.09,42.6-3.86c1.54-0.11,2.47,0.24,3.25,0.5" stroke-dasharray="49.727" stroke-dashoffset="49.727"><animate attributeName="stroke-dashoffset" values="49.727" fill="freeze" begin="8523.click" /><animate attributeName="stroke-dashoffset" values="49.727;49.727;0" keyTimes="0;0.874;1" dur="3.934s" fill="freeze" begin="0s;8523.click" /></path><path d="M79.66,52.5c0.07,0.28,0.99,1.44,0.99,3.2c0,11.83-0.2,33.49-0.2,36.37c0,12.95-5.34,2.89-7.67,0.15" stroke-dasharray="55.691" stroke-dashoffset="55.691"><animate attributeName="stroke-dashoffset" values="55.691" fill="freeze" begin="8523.click" /><animate attributeName="stroke-dashoffset" values="55.691;55.691;0" keyTimes="0;0.876;1" dur="4.491s" fill="freeze" begin="0s;8523.click" /></path><path d="M55.1,76.89c2.81,1.73,7.26,7.11,7.96,9.81" stroke-dasharray="12.809" stroke-dashoffset="12.809"><animate attributeName="stroke-dashoffset" values="12.809" fill="freeze" begin="8523.click" /><animate attributeName="stroke-dashoffset" values="12.809;12.809;0" keyTimes="0;0.946;1" dur="4.747s" fill="freeze" begin="0s;8523.click" /></path></g></svg>