<svg xmlns="http://www.w3.org/2000/svg" width="109" height="109" viewBox="0 0 109 109" id="8597"><g fill="none" stroke="#666" stroke-width="9" stroke-linecap="round" stroke-linejoin="round"><g><g><path d="M18.25,23.52c3.87,0.45,7.7,0.38,11.5-0.22c14.46-1.94,35.38-3.65,49-4.31c4.02-0.48,8.02-0.39,12,0.28" /><path d="M37.75,12.25c0.88,0.75,1.4,2.1,1.5,3C40,21.75,40.38,24.5,41,29" /><path d="M66.86,10c0.2,0.84,0.21,1.96-0.01,2.99c-1.32,6.05-1.6,7.39-2.85,13.51" /></g><g><g p5:part="1" xmlns:p5="http://kanjivg.tagaini.net"><path d="M22.03,34.91c0.84,1.09,1.12,2.51,1.12,4.05c0,11.94,0.06,37.51,0.15,51.67c0.02,3.39,0.04,6.63,0.06,8.38" /><path d="M23.72,37.44c19.43-2.5,42.39-4.88,57.91-6.1c4.56-0.36,5.62,1.48,5.62,5.91c0.01,12.12,0.1,35.1,0.03,49.62c-0.02,3.97-0.03,7.31-0.03,9.61" /></g><g><g><path d="M37.66,43.24c2.37,0.31,4.72,0.28,7.06-0.08c5.5-0.64,12.95-1.66,19.53-2.52c2.15-0.33,4.31-0.3,6.49,0.11" /><path d="M52.76,36.78c0.73,0.73,0.83,1.68,0.89,2.72c0.37,5.86,0.1,8.89,0.1,10.89" /><g p7:part="1" p7:partial xmlns:p7="http://kanjivg.tagaini.net"><g p7:partial><path d="M30.06,53.09c3.17,0.18,6.31,0.02,9.42-0.47c10-1.41,20.73-3.13,30.77-4.22c3-0.37,6.01-0.41,9.04-0.11" /></g></g></g><g><g><path d="M39.83,59.2c0.8,0.55,1.05,1.3,1.25,2.11c0.33,1.36,0.81,3.52,1.33,5.94c0.21,0.97,0.43,1.99,0.65,3.02" /><path d="M41.39,60.08c7.73-1.37,17.79-2.99,24.25-4.02c1.58-0.25,3.37,0.42,2.88,2.35c-0.5,1.97-0.86,3.66-1.46,6.3" /><path d="M44.53,68.44c4.09-0.51,12.54-1.76,19.46-2.52c1.54-0.17,3.01-0.32,4.34-0.43" /></g><g p7:part="2" p7:partial xmlns:p7="http://kanjivg.tagaini.net"><path d="M53.91,70.23c-0.21,1.08-0.69,1.99-1.45,2.73C49.13,76.65,41.89,82.3,32.13,87" /><path d="M53.75,74.27c0.63,0.98,0.88,1.97,0.87,3.11c-0.08,5.73-0.05,7.93-0.02,10.38c0.01,1.23,0.03,2.53,0.03,4.37" /><path d="M71.15,69.99c-0.03,0.82-0.22,1.59-0.57,2.3c-0.81,1.58-3.02,3.6-6.14,6.63" /><path d="M56.27,75.57c4.25,2.27,11.23,7,16.37,9.43c1.48,0.7,3.8,1.71,4.87,1.91" /></g></g></g><g p5:part="2" xmlns:p5="http://kanjivg.tagaini.net"><path d="M24.4,96.6c16.97-0.97,45.3-2.52,61.85-2.85" /></g></g></g></g><g fill="none" stroke="#000" stroke-width="5" stroke-linecap="round" stroke-linejoin="round"><g><g><path d="M18.25,23.52c3.87,0.45,7.7,0.38,11.5-0.22c14.46-1.94,35.38-3.65,49-4.31c4.02-0.48,8.02-0.39,12,0.28" stroke-dasharray="72.78" stroke-dashoffset="72.78"><animate id="0" attributeName="stroke-dashoffset" values="72.78;0" dur="0.55s" fill="freeze" begin="0s;8597.click" /></path><path d="M37.75,12.25c0.88,0.75,1.4,2.1,1.5,3C40,21.75,40.38,24.5,41,29" stroke-dasharray="17.28" stroke-dashoffset="17.28"><animate attributeName="stroke-dashoffset" values="17.28" fill="freeze" begin="8597.click" /><animate id="1" attributeName="stroke-dashoffset" values="17.28;0" dur="0.17s" fill="freeze" begin="0.end" /></path><path d="M66.86,10c0.2,0.84,0.21,1.96-0.01,2.99c-1.32,6.05-1.6,7.39-2.85,13.51" stroke-dasharray="16.82" stroke-dashoffset="16.82"><animate attributeName="stroke-dashoffset" values="16.82" fill="freeze" begin="8597.click" /><animate id="2" attributeName="stroke-dashoffset" values="16.82;0" dur="0.17s" fill="freeze" begin="1.end" /></path></g><g><g p5:part="1" xmlns:p5="http://kanjivg.tagaini.net"><path d="M22.03,34.91c0.84,1.09,1.12,2.51,1.12,4.05c0,11.94,0.06,37.51,0.15,51.67c0.02,3.39,0.04,6.63,0.06,8.38" stroke-dasharray="64.33" stroke-dashoffset="64.33"><animate attributeName="stroke-dashoffset" values="64.33" fill="freeze" begin="8597.click" /><animate id="3" attributeName="stroke-dashoffset" values="64.33;0" dur="0.48s" fill="freeze" begin="2.end" /></path><path d="M23.72,37.44c19.43-2.5,42.39-4.88,57.91-6.1c4.56-0.36,5.62,1.48,5.62,5.91c0.01,12.12,0.1,35.1,0.03,49.62c-0.02,3.97-0.03,7.31-0.03,9.61" stroke-dasharray="127.28" stroke-dashoffset="127.28"><animate attributeName="stroke-dashoffset" values="127.28" fill="freeze" begin="8597.click" /><animate id="4" attributeName="stroke-dashoffset" values="127.28;0" dur="0.96s" fill="freeze" begin="3.end" /></path></g><g><g><path d="M37.66,43.24c2.37,0.31,4.72,0.28,7.06-0.08c5.5-0.64,12.95-1.66,19.53-2.52c2.15-0.33,4.31-0.3,6.49,0.11" stroke-dasharray="33.3" stroke-dashoffset="33.3"><animate attributeName="stroke-dashoffset" values="33.3" fill="freeze" begin="8597.click" /><animate id="5" attributeName="stroke-dashoffset" values="33.3;0" dur="0.33s" fill="freeze" begin="4.end" /></path><path d="M52.76,36.78c0.73,0.73,0.83,1.68,0.89,2.72c0.37,5.86,0.1,8.89,0.1,10.89" stroke-dasharray="13.83" stroke-dashoffset="13.83"><animate attributeName="stroke-dashoffset" values="13.83" fill="freeze" begin="8597.click" /><animate id="6" attributeName="stroke-dashoffset" values="13.83;0" dur="0.14s" fill="freeze" begin="5.end" /></path><g p7:part="1" p7:partial xmlns:p7="http://kanjivg.tagaini.net"><g p7:partial><path d="M30.06,53.09c3.17,0.18,6.31,0.02,9.42-0.47c10-1.41,20.73-3.13,30.77-4.22c3-0.37,6.01-0.41,9.04-0.11" stroke-dasharray="49.57" stroke-dashoffset="49.57"><animate attributeName="stroke-dashoffset" values="49.57" fill="freeze" begin="8597.click" /><animate id="7" attributeName="stroke-dashoffset" values="49.57;0" dur="0.5s" fill="freeze" begin="6.end" /></path></g></g></g><g><g><path d="M39.83,59.2c0.8,0.55,1.05,1.3,1.25,2.11c0.33,1.36,0.81,3.52,1.33,5.94c0.21,0.97,0.43,1.99,0.65,3.02" stroke-dasharray="11.69" stroke-dashoffset="11.69"><animate attributeName="stroke-dashoffset" values="11.69" fill="freeze" begin="8597.click" /><animate id="8" attributeName="stroke-dashoffset" values="11.69;0" dur="0.12s" fill="freeze" begin="7.end" /></path><path d="M41.39,60.08c7.73-1.37,17.79-2.99,24.25-4.02c1.58-0.25,3.37,0.42,2.88,2.35c-0.5,1.97-0.86,3.66-1.46,6.3" stroke-dasharray="35.6" stroke-dashoffset="35.6"><animate attributeName="stroke-dashoffset" values="35.6" fill="freeze" begin="8597.click" /><animate id="9" attributeName="stroke-dashoffset" values="35.6;0" dur="0.36s" fill="freeze" begin="8.end" /></path><path d="M44.53,68.44c4.09-0.51,12.54-1.76,19.46-2.52c1.54-0.17,3.01-0.32,4.34-0.43" stroke-dasharray="23.98" stroke-dashoffset="23.98"><animate attributeName="stroke-dashoffset" values="23.98" fill="freeze" begin="8597.click" /><animate id="10" attributeName="stroke-dashoffset" values="23.98;0" dur="0.24s" fill="freeze" begin="9.end" /></path></g><g p7:part="2" p7:partial xmlns:p7="http://kanjivg.tagaini.net"><path d="M53.91,70.23c-0.21,1.08-0.69,1.99-1.45,2.73C49.13,76.65,41.89,82.3,32.13,87" stroke-dasharray="27.98" stroke-dashoffset="27.98"><animate attributeName="stroke-dashoffset" values="27.98" fill="freeze" begin="8597.click" /><animate id="11" attributeName="stroke-dashoffset" values="27.98;0" dur="0.28s" fill="freeze" begin="10.end" /></path><path d="M53.75,74.27c0.63,0.98,0.88,1.97,0.87,3.11c-0.08,5.73-0.05,7.93-0.02,10.38c0.01,1.23,0.03,2.53,0.03,4.37" stroke-dasharray="18.03" stroke-dashoffset="18.03"><animate attributeName="stroke-dashoffset" values="18.03" fill="freeze" begin="8597.click" /><animate id="12" attributeName="stroke-dashoffset" values="18.03;0" dur="0.18s" fill="freeze" begin="11.end" /></path><path d="M71.15,69.99c-0.03,0.82-0.22,1.59-0.57,2.3c-0.81,1.58-3.02,3.6-6.14,6.63" stroke-dasharray="11.45" stroke-dashoffset="11.45"><animate attributeName="stroke-dashoffset" values="11.45" fill="freeze" begin="8597.click" /><animate id="13" attributeName="stroke-dashoffset" values="11.45;0" dur="0.11s" fill="freeze" begin="12.end" /></path><path d="M56.27,75.57c4.25,2.27,11.23,7,16.37,9.43c1.48,0.7,3.8,1.71,4.87,1.91" stroke-dasharray="24.14" stroke-dashoffset="24.14"><animate attributeName="stroke-dashoffset" values="24.14" fill="freeze" begin="8597.click" /><animate id="14" attributeName="stroke-dashoffset" values="24.14;0" dur="0.24s" fill="freeze" begin="13.end" /></path></g></g></g><g p5:part="2" xmlns:p5="http://kanjivg.tagaini.net"><path d="M24.4,96.6c16.97-0.97,45.3-2.52,61.85-2.85" stroke-dasharray="61.92" stroke-dashoffset="61.92"><animate attributeName="stroke-dashoffset" values="61.92" fill="freeze" begin="8597.click" /><animate id="15" attributeName="stroke-dashoffset" values="61.92;0" dur="0.47s" fill="freeze" begin="14.end" /></path></g></g></g></g></svg>