<svg xmlns="http://www.w3.org/2000/svg" width="109" height="109" viewBox="0 0 109 109" id="85af"><g fill="none" stroke="#666" stroke-width="9" stroke-linecap="round" stroke-linejoin="round"><g><g><path d="M20.5,19.27c4.01,0.74,8.04,0.8,12.11,0.18c14.98-1.51,36.35-2.8,49.27-3.12c3.06,0.02,6.1,0.25,9.12,0.69" /><path d="M39.5,11.5c0.88,0.88,1.2,1.84,1.29,2.48c0.9,6.44,1.28,9.89,1.71,12.52" /><path d="M67.2,9.25c0.55,1.12,0.65,2.14,0.38,3.25c-0.84,3.38-1.16,8.25-2.38,12.56" /></g><g><g><path d="M27.62,31.65c0.79,0.56,1.26,1.34,1.4,2.34c0.73,1.98,1.49,4.18,2.18,6.61c0.34,1.19,0.67,2.44,0.97,3.75" /><path d="M29.9,32.36c18.73-1.61,33.85-2.49,49.35-3.25c3.02-0.15,4.93,0.86,3.78,3.9c-0.67,1.77-1.28,3.37-1.96,4.95c-0.5,1.15-1.02,2.29-1.63,3.48" /><path d="M45.94,32.54c0.63,0.63,0.66,1.21,0.77,2.19c0.29,2.44,0.44,4,0.49,5.5" /><path d="M63.94,31.25c0.44,0.87,0.51,1.38,0.32,2.37C64,35,63.62,37.5,63.37,39.16" /><path d="M32.64,42.4c18.74-1.15,26.99-1.9,46.52-2.56" /></g><g><g p6:partial xmlns:p6="http://kanjivg.tagaini.net"><g><path d="M33.75,53.14c2.54,0.61,5.13,0.75,7.75,0.4c6.91-0.54,15.8-1.24,22.25-1.57c1.8-0.18,3.59-0.15,5.38,0.11" /><path d="M52.17,45.89c0.84,0.84,1.27,1.61,1.27,3.09c0,5.53-0.07,12.4-0.07,14.27" /><path d="M19.5,65.66c3.62,0.52,7.25,0.57,10.88,0.12C42.4,65.08,68.13,63.48,81.25,63c3.82-0.15,7.61,0.1,11.38,0.75" /></g><path d="M80.59,47.51c-0.26,1.84-1.08,3.23-2.45,4.18c-16.3,12.9-36.46,25.56-62.34,34.04" /></g><path d="M  68.843657,67.803125 c 1.510522,0.384313 2.732823,1.798704 3.548958,3.070834" /><g><path d="M42.27,76.19c0.86,0.68,1.23,1.68,1.41,3.2c0.26,2.28,1.03,9.26,1.6,14.25c0.33,2.89,0.59,5.11,0.65,5.36" /><path d="M44.43,77.78c7.63-0.64,23.17-2.12,29.82-2.69c3.16-0.27,6.25,0.37,5.82,4.3c-0.31,2.89-1.05,8.49-1.64,12.74c-0.45,3.27-0.81,5.75-0.81,5.56" /><path d="M45.63,86.37C57.5,85.62,67.38,85,79.07,84.79" /><path d="M46.72,96.22c9.56-0.5,19.91-0.6,29.84-0.8" /></g></g></g></g></g><g fill="none" stroke="#000" stroke-width="5" stroke-linecap="round" stroke-linejoin="round"><g><g><path d="M20.5,19.27c4.01,0.74,8.04,0.8,12.11,0.18c14.98-1.51,36.35-2.8,49.27-3.12c3.06,0.02,6.1,0.25,9.12,0.69" stroke-dasharray="70.7" stroke-dashoffset="70.7"><animate id="0" attributeName="stroke-dashoffset" values="70.7;0" dur="0.53s" fill="freeze" begin="0s;85af.click" /></path><path d="M39.5,11.5c0.88,0.88,1.2,1.84,1.29,2.48c0.9,6.44,1.28,9.89,1.71,12.52" stroke-dasharray="15.48" stroke-dashoffset="15.48"><animate attributeName="stroke-dashoffset" values="15.48" fill="freeze" begin="85af.click" /><animate id="1" attributeName="stroke-dashoffset" values="15.48;0" dur="0.15s" fill="freeze" begin="0.end" /></path><path d="M67.2,9.25c0.55,1.12,0.65,2.14,0.38,3.25c-0.84,3.38-1.16,8.25-2.38,12.56" stroke-dasharray="16.14" stroke-dashoffset="16.14"><animate attributeName="stroke-dashoffset" values="16.14" fill="freeze" begin="85af.click" /><animate id="2" attributeName="stroke-dashoffset" values="16.14;0" dur="0.16s" fill="freeze" begin="1.end" /></path></g><g><g><path d="M27.62,31.65c0.79,0.56,1.26,1.34,1.4,2.34c0.73,1.98,1.49,4.18,2.18,6.61c0.34,1.19,0.67,2.44,0.97,3.75" stroke-dasharray="13.64" stroke-dashoffset="13.64"><animate attributeName="stroke-dashoffset" values="13.64" fill="freeze" begin="85af.click" /><animate id="3" attributeName="stroke-dashoffset" values="13.64;0" dur="0.14s" fill="freeze" begin="2.end" /></path><path d="M29.9,32.36c18.73-1.61,33.85-2.49,49.35-3.25c3.02-0.15,4.93,0.86,3.78,3.9c-0.67,1.77-1.28,3.37-1.96,4.95c-0.5,1.15-1.02,2.29-1.63,3.48" stroke-dasharray="65.63" stroke-dashoffset="65.63"><animate attributeName="stroke-dashoffset" values="65.63" fill="freeze" begin="85af.click" /><animate id="4" attributeName="stroke-dashoffset" values="65.63;0" dur="0.49s" fill="freeze" begin="3.end" /></path><path d="M45.94,32.54c0.63,0.63,0.66,1.21,0.77,2.19c0.29,2.44,0.44,4,0.49,5.5" stroke-dasharray="7.9" stroke-dashoffset="7.9"><animate attributeName="stroke-dashoffset" values="7.9" fill="freeze" begin="85af.click" /><animate id="5" attributeName="stroke-dashoffset" values="7.9;0" dur="0.08s" fill="freeze" begin="4.end" /></path><path d="M63.94,31.25c0.44,0.87,0.51,1.38,0.32,2.37C64,35,63.62,37.5,63.37,39.16" stroke-dasharray="8.06" stroke-dashoffset="8.06"><animate attributeName="stroke-dashoffset" values="8.06" fill="freeze" begin="85af.click" /><animate id="6" attributeName="stroke-dashoffset" values="8.06;0" dur="0.08s" fill="freeze" begin="5.end" /></path><path d="M32.64,42.4c18.74-1.15,26.99-1.9,46.52-2.56" stroke-dasharray="46.59" stroke-dashoffset="46.59"><animate attributeName="stroke-dashoffset" values="46.59" fill="freeze" begin="85af.click" /><animate id="7" attributeName="stroke-dashoffset" values="46.59;0" dur="0.47s" fill="freeze" begin="6.end" /></path></g><g><g p6:partial xmlns:p6="http://kanjivg.tagaini.net"><g><path d="M33.75,53.14c2.54,0.61,5.13,0.75,7.75,0.4c6.91-0.54,15.8-1.24,22.25-1.57c1.8-0.18,3.59-0.15,5.38,0.11" stroke-dasharray="35.51" stroke-dashoffset="35.51"><animate attributeName="stroke-dashoffset" values="35.51" fill="freeze" begin="85af.click" /><animate id="8" attributeName="stroke-dashoffset" values="35.51;0" dur="0.36s" fill="freeze" begin="7.end" /></path><path d="M52.17,45.89c0.84,0.84,1.27,1.61,1.27,3.09c0,5.53-0.07,12.4-0.07,14.27" stroke-dasharray="17.72" stroke-dashoffset="17.72"><animate attributeName="stroke-dashoffset" values="17.72" fill="freeze" begin="85af.click" /><animate id="9" attributeName="stroke-dashoffset" values="17.72;0" dur="0.18s" fill="freeze" begin="8.end" /></path><path d="M19.5,65.66c3.62,0.52,7.25,0.57,10.88,0.12C42.4,65.08,68.13,63.48,81.25,63c3.82-0.15,7.61,0.1,11.38,0.75" stroke-dasharray="73.29" stroke-dashoffset="73.29"><animate attributeName="stroke-dashoffset" values="73.29" fill="freeze" begin="85af.click" /><animate id="10" attributeName="stroke-dashoffset" values="73.29;0" dur="0.55s" fill="freeze" begin="9.end" /></path></g><path d="M80.59,47.51c-0.26,1.84-1.08,3.23-2.45,4.18c-16.3,12.9-36.46,25.56-62.34,34.04" stroke-dasharray="76.4" stroke-dashoffset="76.4"><animate attributeName="stroke-dashoffset" values="76.4" fill="freeze" begin="85af.click" /><animate id="11" attributeName="stroke-dashoffset" values="76.4;0" dur="0.57s" fill="freeze" begin="10.end" /></path></g><path d="M  68.843657,67.803125 c 1.510522,0.384313 2.732823,1.798704 3.548958,3.070834" stroke-dasharray="4.8" stroke-dashoffset="4.8"><animate attributeName="stroke-dashoffset" values="4.8" fill="freeze" begin="85af.click" /><animate id="12" attributeName="stroke-dashoffset" values="4.8;0" dur="0.05s" fill="freeze" begin="11.end" /></path><g><path d="M42.27,76.19c0.86,0.68,1.23,1.68,1.41,3.2c0.26,2.28,1.03,9.26,1.6,14.25c0.33,2.89,0.59,5.11,0.65,5.36" stroke-dasharray="23.33" stroke-dashoffset="23.33"><animate attributeName="stroke-dashoffset" values="23.33" fill="freeze" begin="85af.click" /><animate id="13" attributeName="stroke-dashoffset" values="23.33;0" dur="0.23s" fill="freeze" begin="12.end" /></path><path d="M44.43,77.78c7.63-0.64,23.17-2.12,29.82-2.69c3.16-0.27,6.25,0.37,5.82,4.3c-0.31,2.89-1.05,8.49-1.64,12.74c-0.45,3.27-0.81,5.75-0.81,5.56" stroke-dasharray="57.09" stroke-dashoffset="57.09"><animate attributeName="stroke-dashoffset" values="57.09" fill="freeze" begin="85af.click" /><animate id="14" attributeName="stroke-dashoffset" values="57.09;0" dur="0.57s" fill="freeze" begin="13.end" /></path><path d="M45.63,86.37C57.5,85.62,67.38,85,79.07,84.79" stroke-dasharray="33.48" stroke-dashoffset="33.48"><animate attributeName="stroke-dashoffset" values="33.48" fill="freeze" begin="85af.click" /><animate id="15" attributeName="stroke-dashoffset" values="33.48;0" dur="0.33s" fill="freeze" begin="14.end" /></path><path d="M46.72,96.22c9.56-0.5,19.91-0.6,29.84-0.8" stroke-dasharray="29.85" stroke-dashoffset="29.85"><animate attributeName="stroke-dashoffset" values="29.85" fill="freeze" begin="85af.click" /><animate id="16" attributeName="stroke-dashoffset" values="29.85;0" dur="0.3s" fill="freeze" begin="15.end" /></path></g></g></g></g></g></svg>