<svg xmlns="http://www.w3.org/2000/svg" width="109" height="109" viewBox="0 0 109 109" id="85d0"><g fill="none" stroke="#666" stroke-width="9" stroke-linecap="round" stroke-linejoin="round"><g><g><path d="M17.5,21.39c1.71,0.41,3.71,0.49,5.43,0.41c15.75-0.75,42.92-3.49,61.08-3.54c2.86-0.01,4.57,0.2,6,0.4" /><path d="M37.75,10.5c1.58,1.13,2.09,1.48,2.26,2.17c1.58,6.52,2.04,12.45,2.49,14.83" /><path d="M66.58,10c0.9,0.8,1.5,2.02,1.2,3.2c-0.9,3.6-1.5,9.59-2.8,14.19" /></g><g><g><path d="M37.62,28.96c0.06,0.37,0.24,1.07-0.12,1.49C33.05,35.69,26.48,40.5,14.9,44.72" /><path d="M18.75,46.42c1.78,1.33,4.59,5.49,5.04,7.57" /><path d="M29.7,40.26c1.88,0.98,4.84,4.03,5.31,5.56" /><path d="M43.49,40.03c0.07,0.9-0.16,1.94-0.64,2.5c-6.37,7.53-13.94,13.19-27.27,19.36" /><path d="M32.1,54.72c8.62,6.05,13.06,23.87,6.62,38.76c-3.76,8.69-7.5,0.8-8.47,0.04" /><path d="M34.14,59.7c0.05,0.35,0.1,0.9-0.1,1.4c-1.18,2.95-7.97,9.44-17.25,13.41" /><path d="M37.84,68.31c0.06,0.52,0.27,1.4-0.13,2.07c-2.94,4.97-10.91,13.29-22.25,19.85" /></g><g><g><g><path d="M69.42,27.75c0.26,0.42,0.12,1.68,0,2.02c-0.86,2.54-3.31,6.57-6.21,9.46" /></g><g><path d="M51.83,40.35c0.53,0.61,0.98,1.71,1.08,2.51c0.35,3.06,2.84,18.65,3.06,22.64" /><path d="M53.22,41.78c3.03-0.1,27.69-3.2,30.45-3.36c2.83-0.17,4.58,1.58,4.46,3.94c-0.14,2.79-2.99,15.28-4.18,21.73" /><path d="M54.59,52.11c6.35-0.31,26.4-2.29,31.03-2.29" /><path d="M56.28,63.55c7.6-0.33,19.99-1.89,28.09-2.04" /></g></g><g><g><g><path d="M61.45,66.91c0.05,0.76,0.02,1.97-0.1,3.08C60.5,78,55.5,93.75,44.22,99.42" /></g><g><path d="M71.8,64.96c0.51,1.04,0.91,2.27,0.94,3.88c0.14,7.17,0,15.41,0,20.28c0,8.63,1.27,9.16,11.52,9.16c8.75,0,9.88-1.83,9.88-8.05" /></g></g></g></g></g></g></g><g fill="none" stroke="#000" stroke-width="5" stroke-linecap="round" stroke-linejoin="round"><g><g><path d="M17.5,21.39c1.71,0.41,3.71,0.49,5.43,0.41c15.75-0.75,42.92-3.49,61.08-3.54c2.86-0.01,4.57,0.2,6,0.4" stroke-dasharray="72.675" stroke-dashoffset="72.675"><animate attributeName="stroke-dashoffset" values="72.675;72.675;0" dur="0.546s" fill="freeze" begin="0s;85d0.click" /></path><path d="M37.75,10.5c1.58,1.13,2.09,1.48,2.26,2.17c1.58,6.52,2.04,12.45,2.49,14.83" stroke-dasharray="18.242" stroke-dashoffset="18.242"><animate attributeName="stroke-dashoffset" values="18.242" fill="freeze" begin="85d0.click" /><animate attributeName="stroke-dashoffset" values="18.242;18.242;0" keyTimes="0;0.75;1" dur="0.728s" fill="freeze" begin="0s;85d0.click" /></path><path d="M66.58,10c0.9,0.8,1.5,2.02,1.2,3.2c-0.9,3.6-1.5,9.59-2.8,14.19" stroke-dasharray="18.062" stroke-dashoffset="18.062"><animate attributeName="stroke-dashoffset" values="18.062" fill="freeze" begin="85d0.click" /><animate attributeName="stroke-dashoffset" values="18.062;18.062;0" keyTimes="0;0.801;1" dur="0.909s" fill="freeze" begin="0s;85d0.click" /></path></g><g><g><path d="M37.62,28.96c0.06,0.37,0.24,1.07-0.12,1.49C33.05,35.69,26.48,40.5,14.9,44.72" stroke-dasharray="28.583" stroke-dashoffset="28.583"><animate attributeName="stroke-dashoffset" values="28.583" fill="freeze" begin="85d0.click" /><animate attributeName="stroke-dashoffset" values="28.583;28.583;0" keyTimes="0;0.761;1" dur="1.195s" fill="freeze" begin="0s;85d0.click" /></path><path d="M18.75,46.42c1.78,1.33,4.59,5.49,5.04,7.57" stroke-dasharray="9.206" stroke-dashoffset="9.206"><animate attributeName="stroke-dashoffset" values="9.206" fill="freeze" begin="85d0.click" /><animate attributeName="stroke-dashoffset" values="9.206;9.206;0" keyTimes="0;0.929;1" dur="1.287s" fill="freeze" begin="0s;85d0.click" /></path><path d="M29.7,40.26c1.88,0.98,4.84,4.03,5.31,5.56" stroke-dasharray="7.801" stroke-dashoffset="7.801"><animate attributeName="stroke-dashoffset" values="7.801" fill="freeze" begin="85d0.click" /><animate attributeName="stroke-dashoffset" values="7.801;7.801;0" keyTimes="0;0.943;1" dur="1.365s" fill="freeze" begin="0s;85d0.click" /></path><path d="M43.49,40.03c0.07,0.9-0.16,1.94-0.64,2.5c-6.37,7.53-13.94,13.19-27.27,19.36" stroke-dasharray="36.374" stroke-dashoffset="36.374"><animate attributeName="stroke-dashoffset" values="36.374" fill="freeze" begin="85d0.click" /><animate attributeName="stroke-dashoffset" values="36.374;36.374;0" keyTimes="0;0.789;1" dur="1.729s" fill="freeze" begin="0s;85d0.click" /></path><path d="M32.1,54.72c8.62,6.05,13.06,23.87,6.62,38.76c-3.76,8.69-7.5,0.8-8.47,0.04" stroke-dasharray="54.173" stroke-dashoffset="54.173"><animate attributeName="stroke-dashoffset" values="54.173" fill="freeze" begin="85d0.click" /><animate attributeName="stroke-dashoffset" values="54.173;54.173;0" keyTimes="0;0.761;1" dur="2.271s" fill="freeze" begin="0s;85d0.click" /></path><path d="M34.14,59.7c0.05,0.35,0.1,0.9-0.1,1.4c-1.18,2.95-7.97,9.44-17.25,13.41" stroke-dasharray="23.616" stroke-dashoffset="23.616"><animate attributeName="stroke-dashoffset" values="23.616" fill="freeze" begin="85d0.click" /><animate attributeName="stroke-dashoffset" values="23.616;23.616;0" keyTimes="0;0.906;1" dur="2.507s" fill="freeze" begin="0s;85d0.click" /></path><path d="M37.84,68.31c0.06,0.52,0.27,1.4-0.13,2.07c-2.94,4.97-10.91,13.29-22.25,19.85" stroke-dasharray="32.199" stroke-dashoffset="32.199"><animate attributeName="stroke-dashoffset" values="32.199" fill="freeze" begin="85d0.click" /><animate attributeName="stroke-dashoffset" values="32.199;32.199;0" keyTimes="0;0.886;1" dur="2.829s" fill="freeze" begin="0s;85d0.click" /></path></g><g><g><g><path d="M69.42,27.75c0.26,0.42,0.12,1.68,0,2.02c-0.86,2.54-3.31,6.57-6.21,9.46" stroke-dasharray="13.452" stroke-dashoffset="13.452"><animate attributeName="stroke-dashoffset" values="13.452" fill="freeze" begin="85d0.click" /><animate attributeName="stroke-dashoffset" values="13.452;13.452;0" keyTimes="0;0.954;1" dur="2.964s" fill="freeze" begin="0s;85d0.click" /></path></g><g><path d="M51.83,40.35c0.53,0.61,0.98,1.71,1.08,2.51c0.35,3.06,2.84,18.65,3.06,22.64" stroke-dasharray="25.615" stroke-dashoffset="25.615"><animate attributeName="stroke-dashoffset" values="25.615" fill="freeze" begin="85d0.click" /><animate attributeName="stroke-dashoffset" values="25.615;25.615;0" keyTimes="0;0.92;1" dur="3.22s" fill="freeze" begin="0s;85d0.click" /></path><path d="M53.22,41.78c3.03-0.1,27.69-3.2,30.45-3.36c2.83-0.17,4.58,1.58,4.46,3.94c-0.14,2.79-2.99,15.28-4.18,21.73" stroke-dasharray="59.591" stroke-dashoffset="59.591"><animate attributeName="stroke-dashoffset" values="59.591" fill="freeze" begin="85d0.click" /><animate attributeName="stroke-dashoffset" values="59.591;59.591;0" keyTimes="0;0.844;1" dur="3.816s" fill="freeze" begin="0s;85d0.click" /></path><path d="M54.59,52.11c6.35-0.31,26.4-2.29,31.03-2.29" stroke-dasharray="31.118" stroke-dashoffset="31.118"><animate attributeName="stroke-dashoffset" values="31.118" fill="freeze" begin="85d0.click" /><animate attributeName="stroke-dashoffset" values="31.118;31.118;0" keyTimes="0;0.925;1" dur="4.127s" fill="freeze" begin="0s;85d0.click" /></path><path d="M56.28,63.55c7.6-0.33,19.99-1.89,28.09-2.04" stroke-dasharray="28.169" stroke-dashoffset="28.169"><animate attributeName="stroke-dashoffset" values="28.169" fill="freeze" begin="85d0.click" /><animate attributeName="stroke-dashoffset" values="28.169;28.169;0" keyTimes="0;0.936;1" dur="4.409s" fill="freeze" begin="0s;85d0.click" /></path></g></g><g><g><g><path d="M61.45,66.91c0.05,0.76,0.02,1.97-0.1,3.08C60.5,78,55.5,93.75,44.22,99.42" stroke-dasharray="38.394" stroke-dashoffset="38.394"><animate attributeName="stroke-dashoffset" values="38.394" fill="freeze" begin="85d0.click" /><animate attributeName="stroke-dashoffset" values="38.394;38.394;0" keyTimes="0;0.92;1" dur="4.793s" fill="freeze" begin="0s;85d0.click" /></path></g><g><path d="M71.8,64.96c0.51,1.04,0.91,2.27,0.94,3.88c0.14,7.17,0,15.41,0,20.28c0,8.63,1.27,9.16,11.52,9.16c8.75,0,9.88-1.83,9.88-8.05" stroke-dasharray="57.782" stroke-dashoffset="57.782"><animate attributeName="stroke-dashoffset" values="57.782" fill="freeze" begin="85d0.click" /><animate attributeName="stroke-dashoffset" values="57.782;57.782;0" keyTimes="0;0.892;1" dur="5.371s" fill="freeze" begin="0s;85d0.click" /></path></g></g></g></g></g></g></g></svg>