<svg xmlns="http://www.w3.org/2000/svg" width="109" height="109" viewBox="0 0 109 109" id="8606"><g fill="none" stroke="#666" stroke-width="9" stroke-linecap="round" stroke-linejoin="round"><g><g><path d="M21,21.27c1.56,0.53,3.37,0.63,4.93,0.53c14.31-0.96,39.37-3.96,55.87-4.03c2.6-0.01,4.15,0.25,5.45,0.51" /><path d="M36.33,12.25c1.36,1.12,1.8,1.46,1.95,2.14c1.36,6.43,1.75,12.27,2.14,14.61" /><path d="M66.63,10.25c0.75,0.75,0.99,1.84,0.77,2.99C66.5,18,65.47,21.7,63.76,26" /></g><g><g><path d="M50.83,24.58c0.95,0.76,1.69,1.64,1.69,4.15c0,4.88-0.02,5.54-0.02,9.64" /><path d="M54.04,31.42c5.91-0.64,14.35-1.47,20.34-1.97c1.97-0.17,3.18,0.15,4.17,0.31" /><path d="M26.23,39.06c0.63,0.52,0.84,3.38,0.69,5.26C25.25,65.75,25,82.5,12.95,98.05" /><path d="M27.24,41.47c1.2,0.22,2.37,0.05,4.35-0.09c9.66-0.64,38.3-4.4,50.22-4.59c12.57-0.2,4.2,6.05,1.07,8.52" /><g><g><path d="M33.83,49.14c0.89,0.3,3.06,0.35,3.95,0.3c8.85-0.46,24.69-3.43,34.26-4.18c1.47-0.11,2.36,0.15,3.1,0.3" /></g><path d="M51.64,39.76c0.61,0.99,0.44,2.11,0.44,2.7c0,4.74-0.12,3.42-0.12,5.53c0,6.29,3.43,5.82,12.28,5.82c3.3,0,12.98-0.48,15.82-1.33" /></g></g><g><path d="M36.47,61.54c0.28,0.34,0.8,1.47,0.95,1.88c1.23,3.41,2.34,7.78,3.07,14.06" /><path d="M38.29,62.51c11.87-1,30.76-3.22,38.09-3.11c1.79,0.03,2.87,1.66,2.87,2.73c0,3.38-1.83,7.94-3.74,14.21" /><path d="M56,61.99c0.83,0.69,1.15,1.19,1.14,1.79c-0.02,3.96,0.11,10.37,0.11,11.8" /><path d="M40.04,69.43c3.2-0.16,34.37-2.09,37.01-2.09" /><path d="M41,76.14c7.06,0,23.84-1.67,33.58-1.76" /></g><g><path d="M34.46,83.12c0.62,0.65,1.42,1.36,1.55,1.91c1.04,4.4,0.59,5.72,1.54,11.54" /><path d="M35.99,85c11.09-0.91,40.99-3.54,45.01-3.42c1.74,0.05,2.27,1.66,2.04,3.39c-0.34,2.55-1.03,6.81-2.32,10.25" /><path d="M49.46,84.03c0.26,0.42,0.63,0.76,0.63,1.29c0,3.75,1.25,7.45,1.25,10.89" /><path d="M65.45,83.09c0.47,0.5,0.96,1.36,0.84,2c-0.71,3.75-0.95,7.29-1.24,10.44" /><path d="M23.46,97.5c1.82,0.44,5.17,0.61,6.99,0.44c14.8-1.41,39.8-2.37,58.35-2.19c3.04,0.03,4.86,0.21,6.38,0.43" /></g></g></g></g><g fill="none" stroke="#000" stroke-width="5" stroke-linecap="round" stroke-linejoin="round"><g><g><path d="M21,21.27c1.56,0.53,3.37,0.63,4.93,0.53c14.31-0.96,39.37-3.96,55.87-4.03c2.6-0.01,4.15,0.25,5.45,0.51" stroke-dasharray="66.5" stroke-dashoffset="66.5"><animate id="0" attributeName="stroke-dashoffset" values="66.5;0" dur="0.5s" fill="freeze" begin="0s;8606.click" /></path><path d="M36.33,12.25c1.36,1.12,1.8,1.46,1.95,2.14c1.36,6.43,1.75,12.27,2.14,14.61" stroke-dasharray="17.72" stroke-dashoffset="17.72"><animate attributeName="stroke-dashoffset" values="17.72" fill="freeze" begin="8606.click" /><animate id="1" attributeName="stroke-dashoffset" values="17.72;0" dur="0.18s" fill="freeze" begin="0.end" /></path><path d="M66.63,10.25c0.75,0.75,0.99,1.84,0.77,2.99C66.5,18,65.47,21.7,63.76,26" stroke-dasharray="16.51" stroke-dashoffset="16.51"><animate attributeName="stroke-dashoffset" values="16.51" fill="freeze" begin="8606.click" /><animate id="2" attributeName="stroke-dashoffset" values="16.51;0" dur="0.17s" fill="freeze" begin="1.end" /></path></g><g><g><path d="M50.83,24.58c0.95,0.76,1.69,1.64,1.69,4.15c0,4.88-0.02,5.54-0.02,9.64" stroke-dasharray="14.31" stroke-dashoffset="14.31"><animate attributeName="stroke-dashoffset" values="14.31" fill="freeze" begin="8606.click" /><animate id="3" attributeName="stroke-dashoffset" values="14.31;0" dur="0.14s" fill="freeze" begin="2.end" /></path><path d="M54.04,31.42c5.91-0.64,14.35-1.47,20.34-1.97c1.97-0.17,3.18,0.15,4.17,0.31" stroke-dasharray="24.63" stroke-dashoffset="24.63"><animate attributeName="stroke-dashoffset" values="24.63" fill="freeze" begin="8606.click" /><animate id="4" attributeName="stroke-dashoffset" values="24.63;0" dur="0.25s" fill="freeze" begin="3.end" /></path><path d="M26.23,39.06c0.63,0.52,0.84,3.38,0.69,5.26C25.25,65.75,25,82.5,12.95,98.05" stroke-dasharray="61.85" stroke-dashoffset="61.85"><animate attributeName="stroke-dashoffset" values="61.85" fill="freeze" begin="8606.click" /><animate id="5" attributeName="stroke-dashoffset" values="61.85;0" dur="0.47s" fill="freeze" begin="4.end" /></path><path d="M27.24,41.47c1.2,0.22,2.37,0.05,4.35-0.09c9.66-0.64,38.3-4.4,50.22-4.59c12.57-0.2,4.2,6.05,1.07,8.52" stroke-dasharray="71.11" stroke-dashoffset="71.11"><animate attributeName="stroke-dashoffset" values="71.11" fill="freeze" begin="8606.click" /><animate id="6" attributeName="stroke-dashoffset" values="71.11;0" dur="0.53s" fill="freeze" begin="5.end" /></path><g><g><path d="M33.83,49.14c0.89,0.3,3.06,0.35,3.95,0.3c8.85-0.46,24.69-3.43,34.26-4.18c1.47-0.11,2.36,0.15,3.1,0.3" stroke-dasharray="41.63" stroke-dashoffset="41.63"><animate attributeName="stroke-dashoffset" values="41.63" fill="freeze" begin="8606.click" /><animate id="7" attributeName="stroke-dashoffset" values="41.63;0" dur="0.42s" fill="freeze" begin="6.end" /></path></g><path d="M51.64,39.76c0.61,0.99,0.44,2.11,0.44,2.7c0,4.74-0.12,3.42-0.12,5.53c0,6.29,3.43,5.82,12.28,5.82c3.3,0,12.98-0.48,15.82-1.33" stroke-dasharray="40.2" stroke-dashoffset="40.2"><animate attributeName="stroke-dashoffset" values="40.2" fill="freeze" begin="8606.click" /><animate id="8" attributeName="stroke-dashoffset" values="40.2;0" dur="0.4s" fill="freeze" begin="7.end" /></path></g></g><g><path d="M36.47,61.54c0.28,0.34,0.8,1.47,0.95,1.88c1.23,3.41,2.34,7.78,3.07,14.06" stroke-dasharray="16.53" stroke-dashoffset="16.53"><animate attributeName="stroke-dashoffset" values="16.53" fill="freeze" begin="8606.click" /><animate id="9" attributeName="stroke-dashoffset" values="16.53;0" dur="0.17s" fill="freeze" begin="8.end" /></path><path d="M38.29,62.51c11.87-1,30.76-3.22,38.09-3.11c1.79,0.03,2.87,1.66,2.87,2.73c0,3.38-1.83,7.94-3.74,14.21" stroke-dasharray="57.31" stroke-dashoffset="57.31"><animate attributeName="stroke-dashoffset" values="57.31" fill="freeze" begin="8606.click" /><animate id="10" attributeName="stroke-dashoffset" values="57.31;0" dur="0.57s" fill="freeze" begin="9.end" /></path><path d="M56,61.99c0.83,0.69,1.15,1.19,1.14,1.79c-0.02,3.96,0.11,10.37,0.11,11.8" stroke-dasharray="14" stroke-dashoffset="14"><animate attributeName="stroke-dashoffset" values="14" fill="freeze" begin="8606.click" /><animate id="11" attributeName="stroke-dashoffset" values="14;0" dur="0.14s" fill="freeze" begin="10.end" /></path><path d="M40.04,69.43c3.2-0.16,34.37-2.09,37.01-2.09" stroke-dasharray="37.07" stroke-dashoffset="37.07"><animate attributeName="stroke-dashoffset" values="37.07" fill="freeze" begin="8606.click" /><animate id="12" attributeName="stroke-dashoffset" values="37.07;0" dur="0.37s" fill="freeze" begin="11.end" /></path><path d="M41,76.14c7.06,0,23.84-1.67,33.58-1.76" stroke-dasharray="33.63" stroke-dashoffset="33.63"><animate attributeName="stroke-dashoffset" values="33.63" fill="freeze" begin="8606.click" /><animate id="13" attributeName="stroke-dashoffset" values="33.63;0" dur="0.34s" fill="freeze" begin="12.end" /></path></g><g><path d="M34.46,83.12c0.62,0.65,1.42,1.36,1.55,1.91c1.04,4.4,0.59,5.72,1.54,11.54" stroke-dasharray="14.13" stroke-dashoffset="14.13"><animate attributeName="stroke-dashoffset" values="14.13" fill="freeze" begin="8606.click" /><animate id="14" attributeName="stroke-dashoffset" values="14.13;0" dur="0.14s" fill="freeze" begin="13.end" /></path><path d="M35.99,85c11.09-0.91,40.99-3.54,45.01-3.42c1.74,0.05,2.27,1.66,2.04,3.39c-0.34,2.55-1.03,6.81-2.32,10.25" stroke-dasharray="60.22" stroke-dashoffset="60.22"><animate attributeName="stroke-dashoffset" values="60.22" fill="freeze" begin="8606.click" /><animate id="15" attributeName="stroke-dashoffset" values="60.22;0" dur="0.45s" fill="freeze" begin="14.end" /></path><path d="M49.46,84.03c0.26,0.42,0.63,0.76,0.63,1.29c0,3.75,1.25,7.45,1.25,10.89" stroke-dasharray="12.44" stroke-dashoffset="12.44"><animate attributeName="stroke-dashoffset" values="12.44" fill="freeze" begin="8606.click" /><animate id="16" attributeName="stroke-dashoffset" values="12.44;0" dur="0.12s" fill="freeze" begin="15.end" /></path><path d="M65.45,83.09c0.47,0.5,0.96,1.36,0.84,2c-0.71,3.75-0.95,7.29-1.24,10.44" stroke-dasharray="12.75" stroke-dashoffset="12.75"><animate attributeName="stroke-dashoffset" values="12.75" fill="freeze" begin="8606.click" /><animate id="17" attributeName="stroke-dashoffset" values="12.75;0" dur="0.13s" fill="freeze" begin="16.end" /></path><path d="M23.46,97.5c1.82,0.44,5.17,0.61,6.99,0.44c14.8-1.41,39.8-2.37,58.35-2.19c3.04,0.03,4.86,0.21,6.38,0.43" stroke-dasharray="71.84" stroke-dashoffset="71.84"><animate attributeName="stroke-dashoffset" values="71.84" fill="freeze" begin="8606.click" /><animate id="18" attributeName="stroke-dashoffset" values="71.84;0" dur="0.54s" fill="freeze" begin="17.end" /></path></g></g></g></g></svg>