<svg xmlns="http://www.w3.org/2000/svg" width="109" height="109" viewBox="0 0 109 109" id="8607"><g fill="none" stroke="#666" stroke-width="9" stroke-linecap="round" stroke-linejoin="round"><g><g><path d="M20,24.27c2.89,0.59,5.8,0.73,8.73,0.37c14.14-1.76,34.4-3.66,47.39-4.27c3.06-0.14,6.1,0.19,9.12,0.66" /><path d="M37.5,14.25c0.81,0.81,1.2,1.95,1.29,2.64c0.96,7.48,0.84,9.48,1.21,13.36" /><path d="M65.08,10c0.8,1.5,0.64,2.99,0.31,4.38C64.12,19.75,63.75,21,61.58,29" /></g><g><g><g><path d="M27.07,37c0.11,0.94,0,1.84-0.33,2.7c-1.36,3.97-6.13,10.4-12.72,16.61" /><path d="M27.35,42.42c1.36,0,7.57-1.15,10.15-1.55c2.81-0.44,3.66,0.61,2.01,2.86c-2.3,3.13-4.43,6.18-6.88,10.42" /></g><g><g><path d="M18.18,55.28c0.77,0.77,0.95,1.72,1.1,2.84c0.43,3.3,1.11,9.52,1.65,15.13c0.18,1.9,0.35,3.73,0.48,5.35" /><path d="M19.65,56.29c6.56-0.87,17.62-2.78,23.63-3.63c2.62-0.37,4.76,0.71,4.49,3.59c-0.32,3.38-1.25,9.02-2.04,14.03c-0.29,1.83-0.56,3.57-0.77,5.08" /><path d="M32.46,56c0.64,0.64,0.75,1.62,0.75,2.87c0,4.98-0.08,11.95-0.08,15" /><path d="M21.25,65.87c5.88-0.74,18-2.12,24.25-2.62" /><path d="M21.77,76.31c7.1-0.56,15.89-1.72,21.93-2.28" /></g><g><path d="M16.78,87.72c0,3.72-2.62,9.22-3.3,10.28" /><path d="M24.72,85.36c1.64,1.96,3.2,6.83,3.61,9.88" /><path d="M34.05,84.72c1.82,1.65,4.19,6.52,4.64,9.08" /><path d="M43.68,83.46c2.16,1.55,5.09,6.14,5.63,8.55" /></g></g></g><g><g><path d="M79.86,32.75c-0.36,1.12-0.73,1.71-1.61,2.38c-3.02,3.2-10.8,7.86-22.39,11.3" /></g><g><path d="M54.81,59.48c2.37,0.4,4.7,0.16,7.09-0.18c6.36-0.92,15.18-1.78,21.85-2.26c2.14-0.34,4.27-0.29,6.39,0.16" /><path d="M71.92,44.11c0.92,0.92,1.11,1.89,1.11,2.97c0,0.54-0.02,28.34-0.03,42.29c0,3.83,0,6.61,0,7.5" /><path d="M71.91,58.74c0,1.39-0.8,3.49-1.76,5.2c-4.53,8.1-9.78,17.06-17.4,22.63" /><path d="M74.25,60.88c6.5,8.75,8.12,11.25,13.54,17.45c2.45,2.8,4.95,5.33,8.21,7" /></g></g></g></g></g><g fill="none" stroke="#000" stroke-width="5" stroke-linecap="round" stroke-linejoin="round"><g><g><path d="M20,24.27c2.89,0.59,5.8,0.73,8.73,0.37c14.14-1.76,34.4-3.66,47.39-4.27c3.06-0.14,6.1,0.19,9.12,0.66" stroke-dasharray="65.53" stroke-dashoffset="65.53"><animate id="0" attributeName="stroke-dashoffset" values="65.53;0" dur="0.49s" fill="freeze" begin="0s;8607.click" /></path><path d="M37.5,14.25c0.81,0.81,1.2,1.95,1.29,2.64c0.96,7.48,0.84,9.48,1.21,13.36" stroke-dasharray="16.4" stroke-dashoffset="16.4"><animate attributeName="stroke-dashoffset" values="16.4" fill="freeze" begin="8607.click" /><animate id="1" attributeName="stroke-dashoffset" values="16.4;0" dur="0.16s" fill="freeze" begin="0.end" /></path><path d="M65.08,10c0.8,1.5,0.64,2.99,0.31,4.38C64.12,19.75,63.75,21,61.58,29" stroke-dasharray="19.61" stroke-dashoffset="19.61"><animate attributeName="stroke-dashoffset" values="19.61" fill="freeze" begin="8607.click" /><animate id="2" attributeName="stroke-dashoffset" values="19.61;0" dur="0.2s" fill="freeze" begin="1.end" /></path></g><g><g><g><path d="M27.07,37c0.11,0.94,0,1.84-0.33,2.7c-1.36,3.97-6.13,10.4-12.72,16.61" stroke-dasharray="23.82" stroke-dashoffset="23.82"><animate attributeName="stroke-dashoffset" values="23.82" fill="freeze" begin="8607.click" /><animate id="3" attributeName="stroke-dashoffset" values="23.82;0" dur="0.24s" fill="freeze" begin="2.end" /></path><path d="M27.35,42.42c1.36,0,7.57-1.15,10.15-1.55c2.81-0.44,3.66,0.61,2.01,2.86c-2.3,3.13-4.43,6.18-6.88,10.42" stroke-dasharray="28.27" stroke-dashoffset="28.27"><animate attributeName="stroke-dashoffset" values="28.27" fill="freeze" begin="8607.click" /><animate id="4" attributeName="stroke-dashoffset" values="28.27;0" dur="0.28s" fill="freeze" begin="3.end" /></path></g><g><g><path d="M18.18,55.28c0.77,0.77,0.95,1.72,1.1,2.84c0.43,3.3,1.11,9.52,1.65,15.13c0.18,1.9,0.35,3.73,0.48,5.35" stroke-dasharray="23.7" stroke-dashoffset="23.7"><animate attributeName="stroke-dashoffset" values="23.7" fill="freeze" begin="8607.click" /><animate id="5" attributeName="stroke-dashoffset" values="23.7;0" dur="0.24s" fill="freeze" begin="4.end" /></path><path d="M19.65,56.29c6.56-0.87,17.62-2.78,23.63-3.63c2.62-0.37,4.76,0.71,4.49,3.59c-0.32,3.38-1.25,9.02-2.04,14.03c-0.29,1.83-0.56,3.57-0.77,5.08" stroke-dasharray="50.08" stroke-dashoffset="50.08"><animate attributeName="stroke-dashoffset" values="50.08" fill="freeze" begin="8607.click" /><animate id="6" attributeName="stroke-dashoffset" values="50.08;0" dur="0.5s" fill="freeze" begin="5.end" /></path><path d="M32.46,56c0.64,0.64,0.75,1.62,0.75,2.87c0,4.98-0.08,11.95-0.08,15" stroke-dasharray="18.05" stroke-dashoffset="18.05"><animate attributeName="stroke-dashoffset" values="18.05" fill="freeze" begin="8607.click" /><animate id="7" attributeName="stroke-dashoffset" values="18.05;0" dur="0.18s" fill="freeze" begin="6.end" /></path><path d="M21.25,65.87c5.88-0.74,18-2.12,24.25-2.62" stroke-dasharray="24.39" stroke-dashoffset="24.39"><animate attributeName="stroke-dashoffset" values="24.39" fill="freeze" begin="8607.click" /><animate id="8" attributeName="stroke-dashoffset" values="24.39;0" dur="0.24s" fill="freeze" begin="7.end" /></path><path d="M21.77,76.31c7.1-0.56,15.89-1.72,21.93-2.28" stroke-dasharray="22.05" stroke-dashoffset="22.05"><animate attributeName="stroke-dashoffset" values="22.05" fill="freeze" begin="8607.click" /><animate id="9" attributeName="stroke-dashoffset" values="22.05;0" dur="0.22s" fill="freeze" begin="8.end" /></path></g><g><path d="M16.78,87.72c0,3.72-2.62,9.22-3.3,10.28" stroke-dasharray="10.89" stroke-dashoffset="10.89"><animate attributeName="stroke-dashoffset" values="10.89" fill="freeze" begin="8607.click" /><animate id="10" attributeName="stroke-dashoffset" values="10.89;0" dur="0.11s" fill="freeze" begin="9.end" /></path><path d="M24.72,85.36c1.64,1.96,3.2,6.83,3.61,9.88" stroke-dasharray="10.61" stroke-dashoffset="10.61"><animate attributeName="stroke-dashoffset" values="10.61" fill="freeze" begin="8607.click" /><animate id="11" attributeName="stroke-dashoffset" values="10.61;0" dur="0.11s" fill="freeze" begin="10.end" /></path><path d="M34.05,84.72c1.82,1.65,4.19,6.52,4.64,9.08" stroke-dasharray="10.31" stroke-dashoffset="10.31"><animate attributeName="stroke-dashoffset" values="10.31" fill="freeze" begin="8607.click" /><animate id="12" attributeName="stroke-dashoffset" values="10.31;0" dur="0.1s" fill="freeze" begin="11.end" /></path><path d="M43.68,83.46c2.16,1.55,5.09,6.14,5.63,8.55" stroke-dasharray="10.38" stroke-dashoffset="10.38"><animate attributeName="stroke-dashoffset" values="10.38" fill="freeze" begin="8607.click" /><animate id="13" attributeName="stroke-dashoffset" values="10.38;0" dur="0.1s" fill="freeze" begin="12.end" /></path></g></g></g><g><g><path d="M79.86,32.75c-0.36,1.12-0.73,1.71-1.61,2.38c-3.02,3.2-10.8,7.86-22.39,11.3" stroke-dasharray="28.23" stroke-dashoffset="28.23"><animate attributeName="stroke-dashoffset" values="28.23" fill="freeze" begin="8607.click" /><animate id="14" attributeName="stroke-dashoffset" values="28.23;0" dur="0.28s" fill="freeze" begin="13.end" /></path></g><g><path d="M54.81,59.48c2.37,0.4,4.7,0.16,7.09-0.18c6.36-0.92,15.18-1.78,21.85-2.26c2.14-0.34,4.27-0.29,6.39,0.16" stroke-dasharray="35.52" stroke-dashoffset="35.52"><animate attributeName="stroke-dashoffset" values="35.52" fill="freeze" begin="8607.click" /><animate id="15" attributeName="stroke-dashoffset" values="35.52;0" dur="0.36s" fill="freeze" begin="14.end" /></path><path d="M71.92,44.11c0.92,0.92,1.11,1.89,1.11,2.97c0,0.54-0.02,28.34-0.03,42.29c0,3.83,0,6.61,0,7.5" stroke-dasharray="53.06" stroke-dashoffset="53.06"><animate attributeName="stroke-dashoffset" values="53.06" fill="freeze" begin="8607.click" /><animate id="16" attributeName="stroke-dashoffset" values="53.06;0" dur="0.53s" fill="freeze" begin="15.end" /></path><path d="M71.91,58.74c0,1.39-0.8,3.49-1.76,5.2c-4.53,8.1-9.78,17.06-17.4,22.63" stroke-dasharray="34.31" stroke-dashoffset="34.31"><animate attributeName="stroke-dashoffset" values="34.31" fill="freeze" begin="8607.click" /><animate id="17" attributeName="stroke-dashoffset" values="34.31;0" dur="0.34s" fill="freeze" begin="16.end" /></path><path d="M74.25,60.88c6.5,8.75,8.12,11.25,13.54,17.45c2.45,2.8,4.95,5.33,8.21,7" stroke-dasharray="32.95" stroke-dashoffset="32.95"><animate attributeName="stroke-dashoffset" values="32.95" fill="freeze" begin="8607.click" /><animate id="18" attributeName="stroke-dashoffset" values="32.95;0" dur="0.33s" fill="freeze" begin="17.end" /></path></g></g></g></g></g></svg>