<svg xmlns="http://www.w3.org/2000/svg" viewBox="0 0 109 109" id="86b0"><g fill="none" stroke="#666" stroke-width="6" stroke-linecap="round" stroke-linejoin="round"><g><g><g><g><path d="M13.76,36.9c0.44,0.51,0.98,1.4,1.08,2.06c0.83,5.79,1.79,13.29,3,21.93" /><path d="M15.64,38.98c6.66-0.97,20.74-2.83,25.56-3.2c1.88-0.14,2.74,1.38,2.51,2.83c-0.8,4.98-1.9,8.84-3.2,17.12" /><path d="M18.08,58.43c5.36-0.98,17.24-1.98,24.73-2.89" /></g><g><path d="M27.42,16.75c1.08,1,2.26,2.75,2.26,4.47c0,4.78-0.2,44.78-0.2,58.16" /></g></g><path d="M14.07,85.27c0.6,1.16,2.46,1.11,3.06,0.82c0.6-0.29,22.04-11.65,25.76-13.97" /><path d="M38.5,64c2.67,2.72,6.89,11.17,7.56,15.39" /></g><g><g p5:partial xmlns:p5="http://kanjivg.tagaini.net"><path d="M53,39.67c0.75,1.36,1.33,2.76,1.5,3.94c1.43,9.72,1.16,33.19,2.01,51.1" /><path d="M55.52,42.3c13.44-2.43,25.08-2.77,33.58-3.72c3.12-0.35,4.29,2.47,4.12,5.07c-0.62,9.55-0.5,32.58-2.47,48.31" /></g><g><path d="M70.86,13.11c1.16,1.14,1.85,2.79,1.85,4.29c0.04,14.85,0.21,69.08,0.21,72.95" /></g><g p5:partial xmlns:p5="http://kanjivg.tagaini.net"><path d="M56.04,65.03c3.71-0.47,33.15-3.37,36.22-3.37" /><path d="M57.11,92.28c9.39-0.69,22.43-2.66,33.75-2.92" /></g></g></g></g><g fill="none" stroke="#000" stroke-width="3" stroke-linecap="round" stroke-linejoin="round"><path d="M13.76,36.9c0.44,0.51,0.98,1.4,1.08,2.06c0.83,5.79,1.79,13.29,3,21.93" stroke-dasharray="24.485" stroke-dashoffset="24.485"><animate attributeName="stroke-dashoffset" values="24.485;24.485;0" dur="0.245s" fill="freeze" begin="0s;86b0.click" /></path><path d="M15.64,38.98c6.66-0.97,20.74-2.83,25.56-3.2c1.88-0.14,2.74,1.38,2.51,2.83c-0.8,4.98-1.9,8.84-3.2,17.12" stroke-dasharray="47.604" stroke-dashoffset="47.604"><animate attributeName="stroke-dashoffset" values="47.604" fill="freeze" begin="86b0.click" /><animate attributeName="stroke-dashoffset" values="47.604;47.604;0" keyTimes="0;0.34;1" dur="0.721s" fill="freeze" begin="0s;86b0.click" /></path><path d="M18.08,58.43c5.36-0.98,17.24-1.98,24.73-2.89" stroke-dasharray="24.903" stroke-dashoffset="24.903"><animate attributeName="stroke-dashoffset" values="24.903" fill="freeze" begin="86b0.click" /><animate attributeName="stroke-dashoffset" values="24.903;24.903;0" keyTimes="0;0.743;1" dur="0.97s" fill="freeze" begin="0s;86b0.click" /></path><path d="M27.42,16.75c1.08,1,2.26,2.75,2.26,4.47c0,4.78-0.2,44.78-0.2,58.16" stroke-dasharray="63.3" stroke-dashoffset="63.3"><animate attributeName="stroke-dashoffset" values="63.3" fill="freeze" begin="86b0.click" /><animate attributeName="stroke-dashoffset" values="63.3;63.3;0" keyTimes="0;0.671;1" dur="1.446s" fill="freeze" begin="0s;86b0.click" /></path><path d="M14.07,85.27c0.6,1.16,2.46,1.11,3.06,0.82c0.6-0.29,22.04-11.65,25.76-13.97" stroke-dasharray="32.734" stroke-dashoffset="32.734"><animate attributeName="stroke-dashoffset" values="32.734" fill="freeze" begin="86b0.click" /><animate attributeName="stroke-dashoffset" values="32.734;32.734;0" keyTimes="0;0.816;1" dur="1.773s" fill="freeze" begin="0s;86b0.click" /></path><path d="M38.5,64c2.67,2.72,6.89,11.17,7.56,15.39" stroke-dasharray="17.301" stroke-dashoffset="17.301"><animate attributeName="stroke-dashoffset" values="17.301" fill="freeze" begin="86b0.click" /><animate attributeName="stroke-dashoffset" values="17.301;17.301;0" keyTimes="0;0.911;1" dur="1.946s" fill="freeze" begin="0s;86b0.click" /></path><path d="M53,39.67c0.75,1.36,1.33,2.76,1.5,3.94c1.43,9.72,1.16,33.19,2.01,51.1" stroke-dasharray="55.393" stroke-dashoffset="55.393"><animate attributeName="stroke-dashoffset" values="55.393" fill="freeze" begin="86b0.click" /><animate attributeName="stroke-dashoffset" values="55.393;55.393;0" keyTimes="0;0.778;1" dur="2.5s" fill="freeze" begin="0s;86b0.click" /></path><path d="M55.52,42.3c13.44-2.43,25.08-2.77,33.58-3.72c3.12-0.35,4.29,2.47,4.12,5.07c-0.62,9.55-0.5,32.58-2.47,48.31" stroke-dasharray="89.782" stroke-dashoffset="89.782"><animate attributeName="stroke-dashoffset" values="89.782" fill="freeze" begin="86b0.click" /><animate attributeName="stroke-dashoffset" values="89.782;89.782;0" keyTimes="0;0.787;1" dur="3.175s" fill="freeze" begin="0s;86b0.click" /></path><path d="M70.86,13.11c1.16,1.14,1.85,2.79,1.85,4.29c0.04,14.85,0.21,69.08,0.21,72.95" stroke-dasharray="77.741" stroke-dashoffset="77.741"><animate attributeName="stroke-dashoffset" values="77.741" fill="freeze" begin="86b0.click" /><animate attributeName="stroke-dashoffset" values="77.741;77.741;0" keyTimes="0;0.844;1" dur="3.76s" fill="freeze" begin="0s;86b0.click" /></path><path d="M56.04,65.03c3.71-0.47,33.15-3.37,36.22-3.37" stroke-dasharray="36.381" stroke-dashoffset="36.381"><animate attributeName="stroke-dashoffset" values="36.381" fill="freeze" begin="86b0.click" /><animate attributeName="stroke-dashoffset" values="36.381;36.381;0" keyTimes="0;0.912;1" dur="4.124s" fill="freeze" begin="0s;86b0.click" /></path><path d="M57.11,92.28c9.39-0.69,22.43-2.66,33.75-2.92" stroke-dasharray="33.886" stroke-dashoffset="33.886"><animate attributeName="stroke-dashoffset" values="33.886" fill="freeze" begin="86b0.click" /><animate attributeName="stroke-dashoffset" values="33.886;33.886;0" keyTimes="0;0.924;1" dur="4.463s" fill="freeze" begin="0s;86b0.click" /></path></g></svg>