<svg xmlns="http://www.w3.org/2000/svg" width="109" height="109" viewBox="0 0 109 109" id="86b0"><g fill="none" stroke="#666" stroke-width="9" stroke-linecap="round" stroke-linejoin="round"><g><g><g><g><path d="M13.76,36.9c0.44,0.51,0.98,1.4,1.08,2.06c0.83,5.79,1.79,13.29,3,21.93" /><path d="M15.64,38.98c6.66-0.97,20.74-2.83,25.56-3.2c1.88-0.14,2.74,1.38,2.51,2.83c-0.8,4.98-1.9,8.84-3.2,17.12" /><path d="M18.08,58.43c5.36-0.98,17.24-1.98,24.73-2.89" /></g><g><path d="M27.42,16.75c1.08,1,2.26,2.75,2.26,4.47c0,4.78-0.2,44.78-0.2,58.16" /></g></g><path d="M14.07,85.27c0.6,1.16,2.46,1.11,3.06,0.82c0.6-0.29,22.04-11.65,25.76-13.97" /><path d="M38.5,64c2.67,2.72,6.89,11.17,7.56,15.39" /></g><g><g p5:part="1" p5:partial xmlns:p5="http://kanjivg.tagaini.net"><path d="M53,39.67c0.75,1.36,1.33,2.76,1.5,3.94c1.43,9.72,1.16,33.19,2.01,51.1" /><path d="M55.52,42.3c13.44-2.43,25.08-2.77,33.58-3.72c3.12-0.35,4.29,2.47,4.12,5.07c-0.62,9.55-0.5,32.58-2.47,48.31" /></g><g><path d="M70.86,13.11c1.16,1.14,1.85,2.79,1.85,4.29c0.04,14.85,0.21,69.08,0.21,72.95" /></g><g p5:part="2" p5:partial xmlns:p5="http://kanjivg.tagaini.net"><path d="M56.04,65.03c3.71-0.47,33.15-3.37,36.22-3.37" /><path d="M57.11,92.28c9.39-0.69,22.43-2.66,33.75-2.92" /></g></g></g></g><g fill="none" stroke="#000" stroke-width="5" stroke-linecap="round" stroke-linejoin="round"><g><g><g><g><path d="M13.76,36.9c0.44,0.51,0.98,1.4,1.08,2.06c0.83,5.79,1.79,13.29,3,21.93" stroke-dasharray="24.48" stroke-dashoffset="24.48"><animate id="0" attributeName="stroke-dashoffset" values="24.48;0" dur="0.24s" fill="freeze" begin="0s;86b0.click" /></path><path d="M15.64,38.98c6.66-0.97,20.74-2.83,25.56-3.2c1.88-0.14,2.74,1.38,2.51,2.83c-0.8,4.98-1.9,8.84-3.2,17.12" stroke-dasharray="47.6" stroke-dashoffset="47.6"><animate attributeName="stroke-dashoffset" values="47.6" fill="freeze" begin="86b0.click" /><animate id="1" attributeName="stroke-dashoffset" values="47.6;0" dur="0.48s" fill="freeze" begin="0.end" /></path><path d="M18.08,58.43c5.36-0.98,17.24-1.98,24.73-2.89" stroke-dasharray="24.9" stroke-dashoffset="24.9"><animate attributeName="stroke-dashoffset" values="24.9" fill="freeze" begin="86b0.click" /><animate id="2" attributeName="stroke-dashoffset" values="24.9;0" dur="0.25s" fill="freeze" begin="1.end" /></path></g><g><path d="M27.42,16.75c1.08,1,2.26,2.75,2.26,4.47c0,4.78-0.2,44.78-0.2,58.16" stroke-dasharray="63.3" stroke-dashoffset="63.3"><animate attributeName="stroke-dashoffset" values="63.3" fill="freeze" begin="86b0.click" /><animate id="3" attributeName="stroke-dashoffset" values="63.3;0" dur="0.48s" fill="freeze" begin="2.end" /></path></g></g><path d="M14.07,85.27c0.6,1.16,2.46,1.11,3.06,0.82c0.6-0.29,22.04-11.65,25.76-13.97" stroke-dasharray="32.73" stroke-dashoffset="32.73"><animate attributeName="stroke-dashoffset" values="32.73" fill="freeze" begin="86b0.click" /><animate id="4" attributeName="stroke-dashoffset" values="32.73;0" dur="0.33s" fill="freeze" begin="3.end" /></path><path d="M38.5,64c2.67,2.72,6.89,11.17,7.56,15.39" stroke-dasharray="17.3" stroke-dashoffset="17.3"><animate attributeName="stroke-dashoffset" values="17.3" fill="freeze" begin="86b0.click" /><animate id="5" attributeName="stroke-dashoffset" values="17.3;0" dur="0.17s" fill="freeze" begin="4.end" /></path></g><g><g p5:part="1" p5:partial xmlns:p5="http://kanjivg.tagaini.net"><path d="M53,39.67c0.75,1.36,1.33,2.76,1.5,3.94c1.43,9.72,1.16,33.19,2.01,51.1" stroke-dasharray="55.39" stroke-dashoffset="55.39"><animate attributeName="stroke-dashoffset" values="55.39" fill="freeze" begin="86b0.click" /><animate id="6" attributeName="stroke-dashoffset" values="55.39;0" dur="0.55s" fill="freeze" begin="5.end" /></path><path d="M55.52,42.3c13.44-2.43,25.08-2.77,33.58-3.72c3.12-0.35,4.29,2.47,4.12,5.07c-0.62,9.55-0.5,32.58-2.47,48.31" stroke-dasharray="89.78" stroke-dashoffset="89.78"><animate attributeName="stroke-dashoffset" values="89.78" fill="freeze" begin="86b0.click" /><animate id="7" attributeName="stroke-dashoffset" values="89.78;0" dur="0.68s" fill="freeze" begin="6.end" /></path></g><g><path d="M70.86,13.11c1.16,1.14,1.85,2.79,1.85,4.29c0.04,14.85,0.21,69.08,0.21,72.95" stroke-dasharray="77.74" stroke-dashoffset="77.74"><animate attributeName="stroke-dashoffset" values="77.74" fill="freeze" begin="86b0.click" /><animate id="8" attributeName="stroke-dashoffset" values="77.74;0" dur="0.58s" fill="freeze" begin="7.end" /></path></g><g p5:part="2" p5:partial xmlns:p5="http://kanjivg.tagaini.net"><path d="M56.04,65.03c3.71-0.47,33.15-3.37,36.22-3.37" stroke-dasharray="36.38" stroke-dashoffset="36.38"><animate attributeName="stroke-dashoffset" values="36.38" fill="freeze" begin="86b0.click" /><animate id="9" attributeName="stroke-dashoffset" values="36.38;0" dur="0.36s" fill="freeze" begin="8.end" /></path><path d="M57.11,92.28c9.39-0.69,22.43-2.66,33.75-2.92" stroke-dasharray="33.88" stroke-dashoffset="33.88"><animate attributeName="stroke-dashoffset" values="33.88" fill="freeze" begin="86b0.click" /><animate id="10" attributeName="stroke-dashoffset" values="33.88;0" dur="0.34s" fill="freeze" begin="9.end" /></path></g></g></g></g></svg>