<svg xmlns="http://www.w3.org/2000/svg" width="109" height="109" viewBox="0 0 109 109" id="86ef"><g fill="none" stroke="#666" stroke-width="9" stroke-linecap="round" stroke-linejoin="round"><g><g><g><g><path d="M12.55,37.85c0.42,0.5,0.95,1.38,1.04,2.05c0.81,5.74,1.74,13.18,2.91,21.76" /><path d="M14.37,39.92c6.46-0.96,18.63-3.26,23.3-3.63c1.82-0.14,2.66,1.37,2.44,2.81c-0.78,4.94-1.84,9.76-3.1,17.97" /><path d="M16.74,60.25c5.2-0.97,15.23-2.46,22.5-3.36" /></g><g><path d="M24.7,20.5c1,0.92,2.09,2.54,2.09,4.13c0,4.42-0.18,42.21-0.18,54.56" /></g></g><path d="M12.4,84.76c0.57,0.88,2.33,0.84,2.9,0.62c0.57-0.22,20.25-7.6,23.77-9.36" /><path d="M34.61,70.26c3.04,2.18,7.86,8.95,8.62,12.33" /></g><g><g p5:partial xmlns:p5="http://kanjivg.tagaini.net"><g><path d="M52.03,31.8c0.69,0.31,1.96,0.36,2.66,0.31c7.88-0.51,15.12-1.9,21.77-2.6c1.15-0.12,1.85,0.15,2.43,0.31" /><path d="M65.05,14.37c0.11,0.28,1.48,1.47,1.59,3.27c0.51,8.61,0.27,25.26,0.27,28.19" /><path d="M47.08,48.95c1.41,0.67,3.98,0.38,5.39,0.17C63,47.5,78.5,45.5,93.08,44.19c2.33-0.21,3.75,0.32,4.92,0.65" /></g><path d="M88.78,19.35c0.12,1.26,0.15,3.07-0.74,4.56C76.64,43.07,66.5,58.75,46.56,72.38" /></g><g><path d="M90.2,59.73c0.05,0.77-0.05,2.05-0.73,2.59c-4.78,3.77-12.3,8.24-19.05,10.43" /><path d="M66.36,58.95c0.6,0.87,0.64,1.46,0.84,2.62c0.2,1.17,0.2,20.63,0.2,24.28c0,6.14,1.35,7.92,14.92,7.92c11.18,0,13.72-1.78,13.72-11.42" /></g></g></g></g><g fill="none" stroke="#000" stroke-width="5" stroke-linecap="round" stroke-linejoin="round"><g><g><g><g><path d="M12.55,37.85c0.42,0.5,0.95,1.38,1.04,2.05c0.81,5.74,1.74,13.18,2.91,21.76" stroke-dasharray="24.28" stroke-dashoffset="24.28"><animate id="0" attributeName="stroke-dashoffset" values="24.28;0" dur="0.24s" fill="freeze" begin="0s;86ef.click" /></path><path d="M14.37,39.92c6.46-0.96,18.63-3.26,23.3-3.63c1.82-0.14,2.66,1.37,2.44,2.81c-0.78,4.94-1.84,9.76-3.1,17.97" stroke-dasharray="46.17" stroke-dashoffset="46.17"><animate attributeName="stroke-dashoffset" values="46.17" fill="freeze" begin="86ef.click" /><animate id="1" attributeName="stroke-dashoffset" values="46.17;0" dur="0.46s" fill="freeze" begin="0.end" /></path><path d="M16.74,60.25c5.2-0.97,15.23-2.46,22.5-3.36" stroke-dasharray="22.75" stroke-dashoffset="22.75"><animate attributeName="stroke-dashoffset" values="22.75" fill="freeze" begin="86ef.click" /><animate id="2" attributeName="stroke-dashoffset" values="22.75;0" dur="0.23s" fill="freeze" begin="1.end" /></path></g><g><path d="M24.7,20.5c1,0.92,2.09,2.54,2.09,4.13c0,4.42-0.18,42.21-0.18,54.56" stroke-dasharray="59.31" stroke-dashoffset="59.31"><animate attributeName="stroke-dashoffset" values="59.31" fill="freeze" begin="86ef.click" /><animate id="3" attributeName="stroke-dashoffset" values="59.31;0" dur="0.59s" fill="freeze" begin="2.end" /></path></g></g><path d="M12.4,84.76c0.57,0.88,2.33,0.84,2.9,0.62c0.57-0.22,20.25-7.6,23.77-9.36" stroke-dasharray="28.69" stroke-dashoffset="28.69"><animate attributeName="stroke-dashoffset" values="28.69" fill="freeze" begin="86ef.click" /><animate id="4" attributeName="stroke-dashoffset" values="28.69;0" dur="0.29s" fill="freeze" begin="3.end" /></path><path d="M34.61,70.26c3.04,2.18,7.86,8.95,8.62,12.33" stroke-dasharray="15.23" stroke-dashoffset="15.23"><animate attributeName="stroke-dashoffset" values="15.23" fill="freeze" begin="86ef.click" /><animate id="5" attributeName="stroke-dashoffset" values="15.23;0" dur="0.15s" fill="freeze" begin="4.end" /></path></g><g><g p5:partial xmlns:p5="http://kanjivg.tagaini.net"><g><path d="M52.03,31.8c0.69,0.31,1.96,0.36,2.66,0.31c7.88-0.51,15.12-1.9,21.77-2.6c1.15-0.12,1.85,0.15,2.43,0.31" stroke-dasharray="27.1" stroke-dashoffset="27.1"><animate attributeName="stroke-dashoffset" values="27.1" fill="freeze" begin="86ef.click" /><animate id="6" attributeName="stroke-dashoffset" values="27.1;0" dur="0.27s" fill="freeze" begin="5.end" /></path><path d="M65.05,14.37c0.11,0.28,1.48,1.47,1.59,3.27c0.51,8.61,0.27,25.26,0.27,28.19" stroke-dasharray="31.9" stroke-dashoffset="31.9"><animate attributeName="stroke-dashoffset" values="31.9" fill="freeze" begin="86ef.click" /><animate id="7" attributeName="stroke-dashoffset" values="31.9;0" dur="0.32s" fill="freeze" begin="6.end" /></path><path d="M47.08,48.95c1.41,0.67,3.98,0.38,5.39,0.17C63,47.5,78.5,45.5,93.08,44.19c2.33-0.21,3.75,0.32,4.92,0.65" stroke-dasharray="51.37" stroke-dashoffset="51.37"><animate attributeName="stroke-dashoffset" values="51.37" fill="freeze" begin="86ef.click" /><animate id="8" attributeName="stroke-dashoffset" values="51.37;0" dur="0.51s" fill="freeze" begin="7.end" /></path></g><path d="M88.78,19.35c0.12,1.26,0.15,3.07-0.74,4.56C76.64,43.07,66.5,58.75,46.56,72.38" stroke-dasharray="69.09" stroke-dashoffset="69.09"><animate attributeName="stroke-dashoffset" values="69.09" fill="freeze" begin="86ef.click" /><animate id="9" attributeName="stroke-dashoffset" values="69.09;0" dur="0.52s" fill="freeze" begin="8.end" /></path></g><g><path d="M90.2,59.73c0.05,0.77-0.05,2.05-0.73,2.59c-4.78,3.77-12.3,8.24-19.05,10.43" stroke-dasharray="24.6" stroke-dashoffset="24.6"><animate attributeName="stroke-dashoffset" values="24.6" fill="freeze" begin="86ef.click" /><animate id="10" attributeName="stroke-dashoffset" values="24.6;0" dur="0.25s" fill="freeze" begin="9.end" /></path><path d="M66.36,58.95c0.6,0.87,0.64,1.46,0.84,2.62c0.2,1.17,0.2,20.63,0.2,24.28c0,6.14,1.35,7.92,14.92,7.92c11.18,0,13.72-1.78,13.72-11.42" stroke-dasharray="68.36" stroke-dashoffset="68.36"><animate attributeName="stroke-dashoffset" values="68.36" fill="freeze" begin="86ef.click" /><animate id="11" attributeName="stroke-dashoffset" values="68.36;0" dur="0.51s" fill="freeze" begin="10.end" /></path></g></g></g></g></svg>