<svg xmlns="http://www.w3.org/2000/svg" width="109" height="109" viewBox="0 0 109 109" id="86fb"><g fill="none" stroke="#666" stroke-width="9" stroke-linecap="round" stroke-linejoin="round"><g><g><g><g><path d="M12.22,36.4c0.43,0.51,0.95,1.4,1.05,2.06c0.81,5.79,1.75,13.29,2.92,21.93" /><path d="M14.05,38.48c6.49-0.97,20.22-3.83,24.91-4.2c1.83-0.14,2.68,1.38,2.45,2.83c-0.78,4.98-1.85,10.84-3.12,19.12" /><path d="M16.42,58.43c6.08-0.68,15.83-1.68,23.61-2.39" /></g><g><path d="M25.53,16.75c1.01,1,2.12,2.75,2.12,4.47c0,4.78-0.18,43.78-0.18,57.16" /></g></g><path d="M11.57,85.77c0.56,1.16,2.3,1.11,2.86,0.82c0.56-0.29,22.96-12.65,26.44-14.97" /><path d="M35.83,63.75c2.99,3.03,7.73,12.44,8.47,17.14" /></g><g><g><g><path d="M60.45,18.21c0.04,0.43,0.08,1.12-0.07,1.74c-0.92,3.68-4.88,10.08-11.93,16.69" /></g><g><path d="M69.73,13c2.15,0.23,17.94,18.21,20.49,20.57c1.06,0.98,1.96,1.4,3.02,1.68" /></g></g><g><g><path d="M53.28,39.74c0.34,0.64,0.73,1.08,0.85,1.58c0.84,3.62,1.37,13.44,1.56,21" /><path d="M54.24,41.7c6.02-1.24,23.17-2.35,27.46-3.21c1.47-0.29,2.82,1.5,2.54,3.31c-0.71,4.59-2.44,11.24-3.41,17.17" /><path d="M56.35,60.69c4.45-0.38,19.84-1.1,25.99-1.73" /></g><g><g><path d="M62.06,64.46c0.06,0.74,0.12,1.92-0.11,2.98C60.56,73.74,55.25,89,41.82,96" /></g><path d="M72.5,62.25c0.54,0.66,0.85,1.82,0.88,3.64c0.08,5-0.26,11.76-0.26,17.96c0,10.6,1.16,11.7,11.22,11.7c11.66,0,11.83-2.04,11.83-9" /></g></g></g></g></g><g fill="none" stroke="#000" stroke-width="5" stroke-linecap="round" stroke-linejoin="round"><path d="M12.22,36.4c0.43,0.51,0.95,1.4,1.05,2.06c0.81,5.79,1.75,13.29,2.92,21.93" stroke-dasharray="24.46" stroke-dashoffset="24.46"><animate attributeName="stroke-dashoffset" values="24.46;24.46;0" dur="0.245s" fill="freeze" begin="0s;86fb.click" /></path><path d="M14.05,38.48c6.49-0.97,20.22-3.83,24.91-4.2c1.83-0.14,2.68,1.38,2.45,2.83c-0.78,4.98-1.85,10.84-3.12,19.12" stroke-dasharray="49.014" stroke-dashoffset="49.014"><animate attributeName="stroke-dashoffset" values="49.014" fill="freeze" begin="86fb.click" /><animate attributeName="stroke-dashoffset" values="49.014;49.014;0" keyTimes="0;0.333;1" dur="0.735s" fill="freeze" begin="0s;86fb.click" /></path><path d="M16.42,58.43c6.08-0.68,15.83-1.68,23.61-2.39" stroke-dasharray="23.732" stroke-dashoffset="23.732"><animate attributeName="stroke-dashoffset" values="23.732" fill="freeze" begin="86fb.click" /><animate attributeName="stroke-dashoffset" values="23.732;23.732;0" keyTimes="0;0.756;1" dur="0.972s" fill="freeze" begin="0s;86fb.click" /></path><path d="M25.53,16.75c1.01,1,2.12,2.75,2.12,4.47c0,4.78-0.18,43.78-0.18,57.16" stroke-dasharray="62.227" stroke-dashoffset="62.227"><animate attributeName="stroke-dashoffset" values="62.227" fill="freeze" begin="86fb.click" /><animate attributeName="stroke-dashoffset" values="62.227;62.227;0" keyTimes="0;0.675;1" dur="1.44s" fill="freeze" begin="0s;86fb.click" /></path><path d="M11.57,85.77c0.56,1.16,2.3,1.11,2.86,0.82c0.56-0.29,22.96-12.65,26.44-14.97" stroke-dasharray="33.632" stroke-dashoffset="33.632"><animate attributeName="stroke-dashoffset" values="33.632" fill="freeze" begin="86fb.click" /><animate attributeName="stroke-dashoffset" values="33.632;33.632;0" keyTimes="0;0.811;1" dur="1.776s" fill="freeze" begin="0s;86fb.click" /></path><path d="M35.83,63.75c2.99,3.03,7.73,12.44,8.47,17.14" stroke-dasharray="19.293" stroke-dashoffset="19.293"><animate attributeName="stroke-dashoffset" values="19.293" fill="freeze" begin="86fb.click" /><animate attributeName="stroke-dashoffset" values="19.293;19.293;0" keyTimes="0;0.902;1" dur="1.969s" fill="freeze" begin="0s;86fb.click" /></path><path d="M60.45,18.21c0.04,0.43,0.08,1.12-0.07,1.74c-0.92,3.68-4.88,10.08-11.93,16.69" stroke-dasharray="22.482" stroke-dashoffset="22.482"><animate attributeName="stroke-dashoffset" values="22.482" fill="freeze" begin="86fb.click" /><animate attributeName="stroke-dashoffset" values="22.482;22.482;0" keyTimes="0;0.897;1" dur="2.194s" fill="freeze" begin="0s;86fb.click" /></path><path d="M69.73,13c2.15,0.23,17.94,18.21,20.49,20.57c1.06,0.98,1.96,1.4,3.02,1.68" stroke-dasharray="32.605" stroke-dashoffset="32.605"><animate attributeName="stroke-dashoffset" values="32.605" fill="freeze" begin="86fb.click" /><animate attributeName="stroke-dashoffset" values="32.605;32.605;0" keyTimes="0;0.871;1" dur="2.52s" fill="freeze" begin="0s;86fb.click" /></path><path d="M53.28,39.74c0.34,0.64,0.73,1.08,0.85,1.58c0.84,3.62,1.37,13.44,1.56,21" stroke-dasharray="22.879" stroke-dashoffset="22.879"><animate attributeName="stroke-dashoffset" values="22.879" fill="freeze" begin="86fb.click" /><animate attributeName="stroke-dashoffset" values="22.879;22.879;0" keyTimes="0;0.917;1" dur="2.749s" fill="freeze" begin="0s;86fb.click" /></path><path d="M54.24,41.7c6.02-1.24,23.17-2.35,27.46-3.21c1.47-0.29,2.82,1.5,2.54,3.31c-0.71,4.59-2.44,11.24-3.41,17.17" stroke-dasharray="49.978" stroke-dashoffset="49.978"><animate attributeName="stroke-dashoffset" values="49.978" fill="freeze" begin="86fb.click" /><animate attributeName="stroke-dashoffset" values="49.978;49.978;0" keyTimes="0;0.846;1" dur="3.249s" fill="freeze" begin="0s;86fb.click" /></path><path d="M56.35,60.69c4.45-0.38,19.84-1.1,25.99-1.73" stroke-dasharray="26.05" stroke-dashoffset="26.05"><animate attributeName="stroke-dashoffset" values="26.05" fill="freeze" begin="86fb.click" /><animate attributeName="stroke-dashoffset" values="26.05;26.05;0" keyTimes="0;0.926;1" dur="3.51s" fill="freeze" begin="0s;86fb.click" /></path><path d="M62.06,64.46c0.06,0.74,0.12,1.92-0.11,2.98C60.56,73.74,55.25,89,41.82,96" stroke-dasharray="38.997" stroke-dashoffset="38.997"><animate attributeName="stroke-dashoffset" values="38.997" fill="freeze" begin="86fb.click" /><animate attributeName="stroke-dashoffset" values="38.997;38.997;0" keyTimes="0;0.9;1" dur="3.9s" fill="freeze" begin="0s;86fb.click" /></path><path d="M72.5,62.25c0.54,0.66,0.85,1.82,0.88,3.64c0.08,5-0.26,11.76-0.26,17.96c0,10.6,1.16,11.7,11.22,11.7c11.66,0,11.83-2.04,11.83-9" stroke-dasharray="59.908" stroke-dashoffset="59.908"><animate attributeName="stroke-dashoffset" values="59.908" fill="freeze" begin="86fb.click" /><animate attributeName="stroke-dashoffset" values="59.908;59.908;0" keyTimes="0;0.867;1" dur="4.499s" fill="freeze" begin="0s;86fb.click" /></path></g></svg>