<svg xmlns="http://www.w3.org/2000/svg" width="109" height="109" viewBox="0 0 109 109" id="873b"><g fill="none" stroke="#666" stroke-width="9" stroke-linecap="round" stroke-linejoin="round"><g><g><g><g><path d="M12.76,33.9c0.54,0.62,1.2,1.72,1.32,2.54c1.02,7.12,1.92,15.82,3.17,26.46" /><path d="M14.22,35.98c6.93-0.97,20.11-2.83,25.13-3.2c1.96-0.14,2.86,1.38,2.62,2.83c-0.83,4.98-2.48,14.84-3.83,23.12" /><path d="M17.76,60.93c5.99-0.68,12.99-1.43,22.26-1.89" /></g><g><path d="M24.92,12.75c1.08,1,2.26,2.75,2.26,4.47c0,4.78-0.2,50.78-0.2,64.16" /></g></g><path d="M14.57,85.95c0.51,0.95,2.11,0.91,2.62,0.67c0.51-0.24,18.31-9.12,23.7-11.25" /><path d="M35.75,66.25c2.93,3.11,7.57,12.8,8.31,17.64" /></g><g><g><path d="M51.62,23.35c1.28,0.34,3.62,0.41,4.9,0.34c9.22-0.49,24.89-2.02,32.84-2.55c2.12-0.14,3-0.08,4.13-0.02" /><path d="M68.12,11.88c1.13,1.12,2.15,3.2,2.15,3.68c0,7.68,0.37,22.08,0.45,29.41" /><path d="M53.21,34.82c1.35,0.25,3.82,0.3,5.17,0.25c9.72-0.36,17.88-1.64,26.27-2.03c2.24-0.1,3.89-0.06,5.08-0.02" /><path d="M46.88,46.14c1.54,0.27,4.37,0.38,5.91,0.27C66,45.5,77,44.75,90.11,44.23c2.55-0.1,6.29-0.23,8.14,0.43" /></g><g><g><g><path d="M54.56,54.28c0.71,0.55,1.18,2.1,1.41,2.65c0.23,0.55,0.13,24.58,0.13,40.32" /><path d="M56.39,56.33c5.36-0.58,26.26-2.11,28.37-2.11c2.49,0,3.71,1.78,3.71,3.61c0,4.18-0.1,22.24-0.21,33.35c-0.1,9.82-4.77,3.82-6.8,1.73" /></g><path d="M69.89,55.36c1.11,0.39,1,1.67,0.99,2.64c-0.03,4.89-0.13,10.21-0.13,12.5" /><path d="M56.6,72.24c9.65-0.74,21.65-1.74,31.47-1.92" /></g></g></g></g></g><g fill="none" stroke="#000" stroke-width="5" stroke-linecap="round" stroke-linejoin="round"><path d="M12.76,33.9c0.54,0.62,1.2,1.72,1.32,2.54c1.02,7.12,1.92,15.82,3.17,26.46" stroke-dasharray="29.544" stroke-dashoffset="29.544"><animate attributeName="stroke-dashoffset" values="29.544;29.544;0" dur="0.295s" fill="freeze" begin="0s;873b.click" /></path><path d="M14.22,35.98c6.93-0.97,20.11-2.83,25.13-3.2c1.96-0.14,2.86,1.38,2.62,2.83c-0.83,4.98-2.48,14.84-3.83,23.12" stroke-dasharray="53.284" stroke-dashoffset="53.284"><animate attributeName="stroke-dashoffset" values="53.284" fill="freeze" begin="873b.click" /><animate attributeName="stroke-dashoffset" values="53.284;53.284;0" keyTimes="0;0.356;1" dur="0.828s" fill="freeze" begin="0s;873b.click" /></path><path d="M17.76,60.93c5.99-0.68,12.99-1.43,22.26-1.89" stroke-dasharray="22.345" stroke-dashoffset="22.345"><animate attributeName="stroke-dashoffset" values="22.345" fill="freeze" begin="873b.click" /><animate attributeName="stroke-dashoffset" values="22.345;22.345;0" keyTimes="0;0.788;1" dur="1.051s" fill="freeze" begin="0s;873b.click" /></path><path d="M24.92,12.75c1.08,1,2.26,2.75,2.26,4.47c0,4.78-0.2,50.78-0.2,64.16" stroke-dasharray="69.3" stroke-dashoffset="69.3"><animate attributeName="stroke-dashoffset" values="69.3" fill="freeze" begin="873b.click" /><animate attributeName="stroke-dashoffset" values="69.3;69.3;0" keyTimes="0;0.669;1" dur="1.572s" fill="freeze" begin="0s;873b.click" /></path><path d="M14.57,85.95c0.51,0.95,2.11,0.91,2.62,0.67c0.51-0.24,18.31-9.12,23.7-11.25" stroke-dasharray="29.151" stroke-dashoffset="29.151"><animate attributeName="stroke-dashoffset" values="29.151" fill="freeze" begin="873b.click" /><animate attributeName="stroke-dashoffset" values="29.151;29.151;0" keyTimes="0;0.843;1" dur="1.864s" fill="freeze" begin="0s;873b.click" /></path><path d="M35.75,66.25c2.93,3.11,7.57,12.8,8.31,17.64" stroke-dasharray="19.666" stroke-dashoffset="19.666"><animate attributeName="stroke-dashoffset" values="19.666" fill="freeze" begin="873b.click" /><animate attributeName="stroke-dashoffset" values="19.666;19.666;0" keyTimes="0;0.904;1" dur="2.061s" fill="freeze" begin="0s;873b.click" /></path><path d="M51.62,23.35c1.28,0.34,3.62,0.41,4.9,0.34c9.22-0.49,24.89-2.02,32.84-2.55c2.12-0.14,3-0.08,4.13-0.02" stroke-dasharray="42" stroke-dashoffset="42"><animate attributeName="stroke-dashoffset" values="42" fill="freeze" begin="873b.click" /><animate attributeName="stroke-dashoffset" values="42;42;0" keyTimes="0;0.831;1" dur="2.481s" fill="freeze" begin="0s;873b.click" /></path><path d="M68.12,11.88c1.13,1.12,2.15,3.2,2.15,3.68c0,7.68,0.37,22.08,0.45,29.41" stroke-dasharray="33.723" stroke-dashoffset="33.723"><animate attributeName="stroke-dashoffset" values="33.723" fill="freeze" begin="873b.click" /><animate attributeName="stroke-dashoffset" values="33.723;33.723;0" keyTimes="0;0.88;1" dur="2.818s" fill="freeze" begin="0s;873b.click" /></path><path d="M53.21,34.82c1.35,0.25,3.82,0.3,5.17,0.25c9.72-0.36,17.88-1.64,26.27-2.03c2.24-0.1,3.89-0.06,5.08-0.02" stroke-dasharray="36.618" stroke-dashoffset="36.618"><animate attributeName="stroke-dashoffset" values="36.618" fill="freeze" begin="873b.click" /><animate attributeName="stroke-dashoffset" values="36.618;36.618;0" keyTimes="0;0.885;1" dur="3.184s" fill="freeze" begin="0s;873b.click" /></path><path d="M46.88,46.14c1.54,0.27,4.37,0.38,5.91,0.27C66,45.5,77,44.75,90.11,44.23c2.55-0.1,6.29-0.23,8.14,0.43" stroke-dasharray="51.5" stroke-dashoffset="51.5"><animate attributeName="stroke-dashoffset" values="51.5" fill="freeze" begin="873b.click" /><animate attributeName="stroke-dashoffset" values="51.5;51.5;0" keyTimes="0;0.861;1" dur="3.699s" fill="freeze" begin="0s;873b.click" /></path><path d="M54.56,54.28c0.71,0.55,1.18,2.1,1.41,2.65c0.23,0.55,0.13,24.58,0.13,40.32" stroke-dasharray="43.358" stroke-dashoffset="43.358"><animate attributeName="stroke-dashoffset" values="43.358" fill="freeze" begin="873b.click" /><animate attributeName="stroke-dashoffset" values="43.358;43.358;0" keyTimes="0;0.895;1" dur="4.133s" fill="freeze" begin="0s;873b.click" /></path><path d="M56.39,56.33c5.36-0.58,26.26-2.11,28.37-2.11c2.49,0,3.71,1.78,3.71,3.61c0,4.18-0.1,22.24-0.21,33.35c-0.1,9.82-4.77,3.82-6.8,1.73" stroke-dasharray="80.118" stroke-dashoffset="80.118"><animate attributeName="stroke-dashoffset" values="80.118" fill="freeze" begin="873b.click" /><animate attributeName="stroke-dashoffset" values="80.118;80.118;0" keyTimes="0;0.873;1" dur="4.735s" fill="freeze" begin="0s;873b.click" /></path><path d="M69.89,55.36c1.11,0.39,1,1.67,0.99,2.64c-0.03,4.89-0.13,10.21-0.13,12.5" stroke-dasharray="15.549" stroke-dashoffset="15.549"><animate attributeName="stroke-dashoffset" values="15.549" fill="freeze" begin="873b.click" /><animate attributeName="stroke-dashoffset" values="15.549;15.549;0" keyTimes="0;0.968;1" dur="4.89s" fill="freeze" begin="0s;873b.click" /></path><path d="M56.6,72.24c9.65-0.74,21.65-1.74,31.47-1.92" stroke-dasharray="31.534" stroke-dashoffset="31.534"><animate attributeName="stroke-dashoffset" values="31.534" fill="freeze" begin="873b.click" /><animate attributeName="stroke-dashoffset" values="31.534;31.534;0" keyTimes="0;0.939;1" dur="5.205s" fill="freeze" begin="0s;873b.click" /></path></g></svg>