<svg xmlns="http://www.w3.org/2000/svg" width="109" height="109" viewBox="0 0 109 109" id="8749"><g fill="none" stroke="#666" stroke-width="9" stroke-linecap="round" stroke-linejoin="round"><g><g><g><g><path d="M13.26,40.59c0.89,0.89,1.28,2.25,1.44,3.4c0.69,4.83,1.29,9.36,1.88,14.38c0.19,1.62,0.38,3.29,0.57,5.03" /><path d="M15.31,41.86c5.68-0.84,17.01-2.74,22.68-3.4c2.62-0.3,4.47,1.16,3.99,3.94c-0.74,4.34-1.71,8.7-2.84,15.97" /><path d="M17.65,61.49c4.09-0.76,12.14-1.83,18.87-2.69c1.72-0.22,3.36-0.42,4.83-0.6" /></g><g><path d="M26.17,18.5c1.35,1.35,1.51,2.75,1.51,4.47c0,4.78,0.05,41.28,0.05,54.66" /></g></g><path d="M12.57,83.77c1.41,1.09,2.62,1.05,3.95,0.39C30.88,77,33.75,75.5,40.38,72.12" /><path d="M36.75,65c3.5,3.5,6.62,12.05,7.31,16.89" /></g><g><g><path d="M47.7,18.49c3.68,3.79,7.12,10.42,7.64,12.32" /><path d="M64.29,13.89c1.87,2.64,6.09,9.57,6.83,13.87" /><path d="M91.19,12.28c0,0.97-0.41,2.05-0.91,3c-2.65,4.98-6.67,11.2-8.62,13.63" /></g><g p5:part="1" xmlns:p5="http://kanjivg.tagaini.net"><g p5:partial><path d="M51.2,37.15c0.82,0.82,1.17,1.6,1.41,2.78c0.71,3.55,1.76,9.89,2.93,17.33c0.33,2.1,0.67,4.29,1.01,6.53" /><path d="M53.66,38.16c9.13-1.42,24.85-2.85,32.23-3.66c3.43-0.37,5.4,0.72,5,4.25c-0.42,3.74-1.69,10.5-2.71,15.76c-0.59,3.04-1.09,5.58-1.3,6.73" /><path d="M55.32,49.92c12.43-1.67,21.93-2.55,33.35-3.28" /><path d="M57.25,61.22C68.75,60,74.5,59.5,86.45,58.64" /></g><g><path d="M48.03,74.78c3.52,0.62,7.03,0.23,10.6-0.14c12.25-1.27,20.87-2.14,31.25-2.76c3.17-0.19,6.26-0.25,9.34,0.55" /></g><g p5:part="2"><g><path d="M70.13,36.67c0.73,0.73,1.05,1.83,1.05,2.85c0,4.28-0.03,35.54-0.05,51.23c0,4.96-0.01,8.37-0.01,8.88" /></g></g></g></g></g></g><g fill="none" stroke="#000" stroke-width="5" stroke-linecap="round" stroke-linejoin="round"><g><g><g><g><path d="M13.26,40.59c0.89,0.89,1.28,2.25,1.44,3.4c0.69,4.83,1.29,9.36,1.88,14.38c0.19,1.62,0.38,3.29,0.57,5.03" stroke-dasharray="23.32" stroke-dashoffset="23.32"><animate id="0" attributeName="stroke-dashoffset" values="23.32;0" dur="0.23s" fill="freeze" begin="0s;8749.click" /></path><path d="M15.31,41.86c5.68-0.84,17.01-2.74,22.68-3.4c2.62-0.3,4.47,1.16,3.99,3.94c-0.74,4.34-1.71,8.7-2.84,15.97" stroke-dasharray="45.9" stroke-dashoffset="45.9"><animate attributeName="stroke-dashoffset" values="45.9" fill="freeze" begin="8749.click" /><animate id="1" attributeName="stroke-dashoffset" values="45.9;0" dur="0.46s" fill="freeze" begin="0.end" /></path><path d="M17.65,61.49c4.09-0.76,12.14-1.83,18.87-2.69c1.72-0.22,3.36-0.42,4.83-0.6" stroke-dasharray="23.93" stroke-dashoffset="23.93"><animate attributeName="stroke-dashoffset" values="23.93" fill="freeze" begin="8749.click" /><animate id="2" attributeName="stroke-dashoffset" values="23.93;0" dur="0.24s" fill="freeze" begin="1.end" /></path></g><g><path d="M26.17,18.5c1.35,1.35,1.51,2.75,1.51,4.47c0,4.78,0.05,41.28,0.05,54.66" stroke-dasharray="59.53" stroke-dashoffset="59.53"><animate attributeName="stroke-dashoffset" values="59.53" fill="freeze" begin="8749.click" /><animate id="3" attributeName="stroke-dashoffset" values="59.53;0" dur="0.6s" fill="freeze" begin="2.end" /></path></g></g><path d="M12.57,83.77c1.41,1.09,2.62,1.05,3.95,0.39C30.88,77,33.75,75.5,40.38,72.12" stroke-dasharray="30.96" stroke-dashoffset="30.96"><animate attributeName="stroke-dashoffset" values="30.96" fill="freeze" begin="8749.click" /><animate id="4" attributeName="stroke-dashoffset" values="30.96;0" dur="0.31s" fill="freeze" begin="3.end" /></path><path d="M36.75,65c3.5,3.5,6.62,12.05,7.31,16.89" stroke-dasharray="18.63" stroke-dashoffset="18.63"><animate attributeName="stroke-dashoffset" values="18.63" fill="freeze" begin="8749.click" /><animate id="5" attributeName="stroke-dashoffset" values="18.63;0" dur="0.19s" fill="freeze" begin="4.end" /></path></g><g><g><path d="M47.7,18.49c3.68,3.79,7.12,10.42,7.64,12.32" stroke-dasharray="14.58" stroke-dashoffset="14.58"><animate attributeName="stroke-dashoffset" values="14.58" fill="freeze" begin="8749.click" /><animate id="6" attributeName="stroke-dashoffset" values="14.58;0" dur="0.15s" fill="freeze" begin="5.end" /></path><path d="M64.29,13.89c1.87,2.64,6.09,9.57,6.83,13.87" stroke-dasharray="15.55" stroke-dashoffset="15.55"><animate attributeName="stroke-dashoffset" values="15.55" fill="freeze" begin="8749.click" /><animate id="7" attributeName="stroke-dashoffset" values="15.55;0" dur="0.16s" fill="freeze" begin="6.end" /></path><path d="M91.19,12.28c0,0.97-0.41,2.05-0.91,3c-2.65,4.98-6.67,11.2-8.62,13.63" stroke-dasharray="19.31" stroke-dashoffset="19.31"><animate attributeName="stroke-dashoffset" values="19.31" fill="freeze" begin="8749.click" /><animate id="8" attributeName="stroke-dashoffset" values="19.31;0" dur="0.19s" fill="freeze" begin="7.end" /></path></g><g p5:part="1" xmlns:p5="http://kanjivg.tagaini.net"><g p5:partial><path d="M51.2,37.15c0.82,0.82,1.17,1.6,1.41,2.78c0.71,3.55,1.76,9.89,2.93,17.33c0.33,2.1,0.67,4.29,1.01,6.53" stroke-dasharray="27.35" stroke-dashoffset="27.35"><animate attributeName="stroke-dashoffset" values="27.35" fill="freeze" begin="8749.click" /><animate id="9" attributeName="stroke-dashoffset" values="27.35;0" dur="0.27s" fill="freeze" begin="8.end" /></path><path d="M53.66,38.16c9.13-1.42,24.85-2.85,32.23-3.66c3.43-0.37,5.4,0.72,5,4.25c-0.42,3.74-1.69,10.5-2.71,15.76c-0.59,3.04-1.09,5.58-1.3,6.73" stroke-dasharray="63.29" stroke-dashoffset="63.29"><animate attributeName="stroke-dashoffset" values="63.29" fill="freeze" begin="8749.click" /><animate id="10" attributeName="stroke-dashoffset" values="63.29;0" dur="0.48s" fill="freeze" begin="9.end" /></path><path d="M55.32,49.92c12.43-1.67,21.93-2.55,33.35-3.28" stroke-dasharray="33.52" stroke-dashoffset="33.52"><animate attributeName="stroke-dashoffset" values="33.52" fill="freeze" begin="8749.click" /><animate id="11" attributeName="stroke-dashoffset" values="33.52;0" dur="0.34s" fill="freeze" begin="10.end" /></path><path d="M57.25,61.22C68.75,60,74.5,59.5,86.45,58.64" stroke-dasharray="29.32" stroke-dashoffset="29.32"><animate attributeName="stroke-dashoffset" values="29.32" fill="freeze" begin="8749.click" /><animate id="12" attributeName="stroke-dashoffset" values="29.32;0" dur="0.29s" fill="freeze" begin="11.end" /></path></g><g><path d="M48.03,74.78c3.52,0.62,7.03,0.23,10.6-0.14c12.25-1.27,20.87-2.14,31.25-2.76c3.17-0.19,6.26-0.25,9.34,0.55" stroke-dasharray="51.41" stroke-dashoffset="51.41"><animate attributeName="stroke-dashoffset" values="51.41" fill="freeze" begin="8749.click" /><animate id="13" attributeName="stroke-dashoffset" values="51.41;0" dur="0.51s" fill="freeze" begin="12.end" /></path></g><g p5:part="2"><g><path d="M70.13,36.67c0.73,0.73,1.05,1.83,1.05,2.85c0,4.28-0.03,35.54-0.05,51.23c0,4.96-0.01,8.37-0.01,8.88" stroke-dasharray="63.22" stroke-dashoffset="63.22"><animate attributeName="stroke-dashoffset" values="63.22" fill="freeze" begin="8749.click" /><animate id="14" attributeName="stroke-dashoffset" values="63.22;0" dur="0.48s" fill="freeze" begin="13.end" /></path></g></g></g></g></g></g></svg>