<svg xmlns="http://www.w3.org/2000/svg" width="109" height="109" viewBox="0 0 109 109" id="8757"><g fill="none" stroke="#666" stroke-width="9" stroke-linecap="round" stroke-linejoin="round"><g><g><g><g><path d="M11.76,35.4c0.51,0.62,1.14,1.72,1.25,2.54c0.97,7.12,2.09,16.34,3.49,26.96" /><path d="M13.22,37.48c6.93-0.97,21.61-2.83,26.63-3.2c1.96-0.14,2.86,1.38,2.62,2.83c-0.83,4.98-1.98,13.84-3.33,22.12" /><path d="M16.26,61.16c5.25-0.53,16.91-1.36,24.26-1.85" /></g><g><path d="M24.92,13.25c1.08,1,2.26,2.75,2.26,4.47c0,4.78-0.2,52.28-0.2,65.66" /></g></g><path d="M13.07,88.77c0.6,1.16,2.46,1.11,3.06,0.82c0.6-0.29,20.54-11.15,24.26-13.47" /><path d="M36.25,68.5c2.75,2.72,7.12,11.17,7.81,15.39" /></g><g><g><g><path d="M68.56,10.5c0.3,0.49,0.35,1.08,0.28,1.51c-0.43,2.51-4.11,8.51-7.46,11.88" /></g><g><path d="M49.05,24.44c0.7,0.7,1.22,1.99,1.4,2.89c1.05,5.17,4.07,18.99,4.35,23.56" /><path d="M50.87,26.08c9.72-1.25,33.66-4.02,37.24-4.47c1.72-0.22,2.84,1.84,2.46,3.76c-0.84,4.25-2.23,14.6-3.9,22.76" /><path d="M53.81,37.09c8.84-1.71,29.28-3.55,35.32-3.55" /><path d="M54.97,48.32c10.09-0.79,23.13-2.62,31.46-2.86" /></g></g><g p5:partial xmlns:p5="http://kanjivg.tagaini.net"><path d="M52.5,59.63c0.86,0.51,3.64,0.02,4.52,0.03c6.48,0.09,18.73-1.16,29.27-2.22c1.32-0.13,2.52,0.1,3.62,0.53" /><path d="M69.61,60.65c1.29,2.08,1.29,3.33,1.29,5c0,11.67-0.07,11.45-0.07,25.97" /><path d="M53.25,75.08c0.72,0.57,3.58,0.78,4.32,0.75c7.93-0.33,18.37-0.94,27.35-1.95c0.9-0.1,2.87-0.23,4.21,0.26" /><path d="M43.34,93.42c0.85,0.38,5.31,0.82,6.75,0.63c13.66-1.8,30.41-3.05,40.01-2.78c3.64,0.1,5.32,0.31,7.8,0.49" /></g></g></g></g><g fill="none" stroke="#000" stroke-width="5" stroke-linecap="round" stroke-linejoin="round"><g><g><g><g><path d="M11.76,35.4c0.51,0.62,1.14,1.72,1.25,2.54c0.97,7.12,2.09,16.34,3.49,26.96" stroke-dasharray="30.04" stroke-dashoffset="30.04"><animate id="0" attributeName="stroke-dashoffset" values="30.04;0" dur="0.3s" fill="freeze" begin="0s;8757.click" /></path><path d="M13.22,37.48c6.93-0.97,21.61-2.83,26.63-3.2c1.96-0.14,2.86,1.38,2.62,2.83c-0.83,4.98-1.98,13.84-3.33,22.12" stroke-dasharray="53.71" stroke-dashoffset="53.71"><animate attributeName="stroke-dashoffset" values="53.71" fill="freeze" begin="8757.click" /><animate id="1" attributeName="stroke-dashoffset" values="53.71;0" dur="0.54s" fill="freeze" begin="0.end" /></path><path d="M16.26,61.16c5.25-0.53,16.91-1.36,24.26-1.85" stroke-dasharray="24.33" stroke-dashoffset="24.33"><animate attributeName="stroke-dashoffset" values="24.33" fill="freeze" begin="8757.click" /><animate id="2" attributeName="stroke-dashoffset" values="24.33;0" dur="0.24s" fill="freeze" begin="1.end" /></path></g><g><path d="M24.92,13.25c1.08,1,2.26,2.75,2.26,4.47c0,4.78-0.2,52.28-0.2,65.66" stroke-dasharray="70.8" stroke-dashoffset="70.8"><animate attributeName="stroke-dashoffset" values="70.8" fill="freeze" begin="8757.click" /><animate id="3" attributeName="stroke-dashoffset" values="70.8;0" dur="0.53s" fill="freeze" begin="2.end" /></path></g></g><path d="M13.07,88.77c0.6,1.16,2.46,1.11,3.06,0.82c0.6-0.29,20.54-11.15,24.26-13.47" stroke-dasharray="31.18" stroke-dashoffset="31.18"><animate attributeName="stroke-dashoffset" values="31.18" fill="freeze" begin="8757.click" /><animate id="4" attributeName="stroke-dashoffset" values="31.18;0" dur="0.31s" fill="freeze" begin="3.end" /></path><path d="M36.25,68.5c2.75,2.72,7.12,11.17,7.81,15.39" stroke-dasharray="17.42" stroke-dashoffset="17.42"><animate attributeName="stroke-dashoffset" values="17.42" fill="freeze" begin="8757.click" /><animate id="5" attributeName="stroke-dashoffset" values="17.42;0" dur="0.17s" fill="freeze" begin="4.end" /></path></g><g><g><g><path d="M68.56,10.5c0.3,0.49,0.35,1.08,0.28,1.51c-0.43,2.51-4.11,8.51-7.46,11.88" stroke-dasharray="15.72" stroke-dashoffset="15.72"><animate attributeName="stroke-dashoffset" values="15.72" fill="freeze" begin="8757.click" /><animate id="6" attributeName="stroke-dashoffset" values="15.72;0" dur="0.16s" fill="freeze" begin="5.end" /></path></g><g><path d="M49.05,24.44c0.7,0.7,1.22,1.99,1.4,2.89c1.05,5.17,4.07,18.99,4.35,23.56" stroke-dasharray="27.22" stroke-dashoffset="27.22"><animate attributeName="stroke-dashoffset" values="27.22" fill="freeze" begin="8757.click" /><animate id="7" attributeName="stroke-dashoffset" values="27.22;0" dur="0.27s" fill="freeze" begin="6.end" /></path><path d="M50.87,26.08c9.72-1.25,33.66-4.02,37.24-4.47c1.72-0.22,2.84,1.84,2.46,3.76c-0.84,4.25-2.23,14.6-3.9,22.76" stroke-dasharray="65.81" stroke-dashoffset="65.81"><animate attributeName="stroke-dashoffset" values="65.81" fill="freeze" begin="8757.click" /><animate id="8" attributeName="stroke-dashoffset" values="65.81;0" dur="0.49s" fill="freeze" begin="7.end" /></path><path d="M53.81,37.09c8.84-1.71,29.28-3.55,35.32-3.55" stroke-dasharray="35.52" stroke-dashoffset="35.52"><animate attributeName="stroke-dashoffset" values="35.52" fill="freeze" begin="8757.click" /><animate id="9" attributeName="stroke-dashoffset" values="35.52;0" dur="0.36s" fill="freeze" begin="8.end" /></path><path d="M54.97,48.32c10.09-0.79,23.13-2.62,31.46-2.86" stroke-dasharray="31.59" stroke-dashoffset="31.59"><animate attributeName="stroke-dashoffset" values="31.59" fill="freeze" begin="8757.click" /><animate id="10" attributeName="stroke-dashoffset" values="31.59;0" dur="0.32s" fill="freeze" begin="9.end" /></path></g></g><g p5:partial xmlns:p5="http://kanjivg.tagaini.net"><path d="M52.5,59.63c0.86,0.51,3.64,0.02,4.52,0.03c6.48,0.09,18.73-1.16,29.27-2.22c1.32-0.13,2.52,0.1,3.62,0.53" stroke-dasharray="37.62" stroke-dashoffset="37.62"><animate attributeName="stroke-dashoffset" values="37.62" fill="freeze" begin="8757.click" /><animate id="11" attributeName="stroke-dashoffset" values="37.62;0" dur="0.38s" fill="freeze" begin="10.end" /></path><path d="M69.61,60.65c1.29,2.08,1.29,3.33,1.29,5c0,11.67-0.07,11.45-0.07,25.97" stroke-dasharray="31.23" stroke-dashoffset="31.23"><animate attributeName="stroke-dashoffset" values="31.23" fill="freeze" begin="8757.click" /><animate id="12" attributeName="stroke-dashoffset" values="31.23;0" dur="0.31s" fill="freeze" begin="11.end" /></path><path d="M53.25,75.08c0.72,0.57,3.58,0.78,4.32,0.75c7.93-0.33,18.37-0.94,27.35-1.95c0.9-0.1,2.87-0.23,4.21,0.26" stroke-dasharray="36.1" stroke-dashoffset="36.1"><animate attributeName="stroke-dashoffset" values="36.1" fill="freeze" begin="8757.click" /><animate id="13" attributeName="stroke-dashoffset" values="36.1;0" dur="0.36s" fill="freeze" begin="12.end" /></path><path d="M43.34,93.42c0.85,0.38,5.31,0.82,6.75,0.63c13.66-1.8,30.41-3.05,40.01-2.78c3.64,0.1,5.32,0.31,7.8,0.49" stroke-dasharray="54.76" stroke-dashoffset="54.76"><animate attributeName="stroke-dashoffset" values="54.76" fill="freeze" begin="8757.click" /><animate id="14" attributeName="stroke-dashoffset" values="54.76;0" dur="0.55s" fill="freeze" begin="13.end" /></path></g></g></g></g></svg>