<svg xmlns="http://www.w3.org/2000/svg" width="109" height="109" viewBox="0 0 109 109" id="87c4"><g fill="none" stroke="#666" stroke-width="6" stroke-linecap="round" stroke-linejoin="round"><g><g><g><g><g><path d="M20.16,19.04c0.98,0.35,2.78,0.4,3.77,0.35C30.9,18.99,41.5,18,48.78,17.12c1.62-0.2,2.62,0.17,3.44,0.34" /><path d="M35.99,10.77c0.1,0.22,1.5,1.17,1.5,2.6c0,9.3-0.16,12.08-0.16,14.42" /><path d="M15.11,29.1c1.28,0.42,3.63,0.44,4.92,0.42C32,29.25,43,27.25,51.51,26.27c2.13-0.25,3.42,0.2,4.49,0.41" /></g><path d="M27.81,31.66c1.18,1.13,3.05,4.67,3.35,6.43" /><path d="M46.04,29.54c0.01,0.18,0.02,0.47-0.02,0.73c-0.24,1.55-1.59,4.64-3.78,7.62" /></g><g><path d="M14.85,41.65c0.82,0.34,3.64,0.34,4.47,0.3c11.72-0.55,18.07-1.84,31.98-2.54c1.37-0.07,4.23-0.21,4.92-0.04" /><g><path d="M20.66,51.78c0.92,0.27,2.61,0.34,3.53,0.27c7.74-0.65,18.07-2.3,25.99-2.71c1.53-0.08,2.46,0.13,3.22,0.26" /><path d="M36.63,41.67c0.35,0.3,1.08,1.64,1.15,2.23c0.07,0.59-0.04,15.12-0.11,18.83" /></g></g></g><g><g><path d="M71.06,10.68c0.29,0.35,0.73,1.11,0.7,1.74c-0.74,19.97-4.91,30.8-12.91,39.17" /><g><path d="M57.71,22.61c0.91,0.38,3.38,1.13,4.52,1c1.14-0.13,14.98-2.3,18.55-3.06c2.62-0.56,3.59,0.72,2.9,2.15c-1.02,2.1-2.96,21.1,5.26,29.78c8.32,8.78,6.32,1.03,5.33-4.96" /></g></g><g><path d="M61.03,32.89c6.92,2.31,14.03,10.56,15.39,14.36" /></g></g></g><g><g><g><path d="M28.95,66.81c0.82,0.53,1.4,1.85,1.55,2.55c1.11,5.09,1.25,4.29,2.8,13.93" /><path d="M31.11,68.86c12.44-1.02,38.67-3.95,47.67-4.34c3.51-0.15,3.92,1.68,3.32,3.88c-0.85,3.1-1.6,5.1-2.72,8.97" /><path d="M33.77,81.24c10.01-1.02,33.21-3.1,47.21-4.06" /></g><g><path d="M53.98,57.25c1,0.39,1.6,1.75,1.8,2.52c0.2,0.78,0,27.59-0.2,32.44" /></g></g><path d="M24.35,95.49c1.21,0.52,1.93,1.16,3.14,1.03c1.21-0.13,46.31-6.05,53.79-7.08" /><path d="M72.36,82.25c5.74,2.78,14.82,11.42,16.25,15.74" /></g></g></g><g fill="none" stroke="#000" stroke-width="3" stroke-linecap="round" stroke-linejoin="round"><path d="M20.16,19.04c0.98,0.35,2.78,0.4,3.77,0.35C30.9,18.99,41.5,18,48.78,17.12c1.62-0.2,2.62,0.17,3.44,0.34" stroke-dasharray="32.243" stroke-dashoffset="32.243"><animate attributeName="stroke-dashoffset" values="32.243;32.243;0" dur="0.322s" fill="freeze" begin="0s;87c4.click" /></path><path d="M35.99,10.77c0.1,0.22,1.5,1.17,1.5,2.6c0,9.3-0.16,12.08-0.16,14.42" stroke-dasharray="17.511" stroke-dashoffset="17.511"><animate attributeName="stroke-dashoffset" values="17.511" fill="freeze" begin="87c4.click" /><animate attributeName="stroke-dashoffset" values="17.511;17.511;0" keyTimes="0;0.648;1" dur="0.497s" fill="freeze" begin="0s;87c4.click" /></path><path d="M15.11,29.1c1.28,0.42,3.63,0.44,4.92,0.42C32,29.25,43,27.25,51.51,26.27c2.13-0.25,3.42,0.2,4.49,0.41" stroke-dasharray="41.158" stroke-dashoffset="41.158"><animate attributeName="stroke-dashoffset" values="41.158" fill="freeze" begin="87c4.click" /><animate attributeName="stroke-dashoffset" values="41.158;41.158;0" keyTimes="0;0.547;1" dur="0.909s" fill="freeze" begin="0s;87c4.click" /></path><path d="M27.81,31.66c1.18,1.13,3.05,4.67,3.35,6.43" stroke-dasharray="7.32" stroke-dashoffset="7.32"><animate attributeName="stroke-dashoffset" values="7.32" fill="freeze" begin="87c4.click" /><animate attributeName="stroke-dashoffset" values="7.32;7.32;0" keyTimes="0;0.926;1" dur="0.982s" fill="freeze" begin="0s;87c4.click" /></path><path d="M46.04,29.54c0.01,0.18,0.02,0.47-0.02,0.73c-0.24,1.55-1.59,4.64-3.78,7.62" stroke-dasharray="9.299" stroke-dashoffset="9.299"><animate attributeName="stroke-dashoffset" values="9.299" fill="freeze" begin="87c4.click" /><animate attributeName="stroke-dashoffset" values="9.299;9.299;0" keyTimes="0;0.913;1" dur="1.075s" fill="freeze" begin="0s;87c4.click" /></path><path d="M14.85,41.65c0.82,0.34,3.64,0.34,4.47,0.3c11.72-0.55,18.07-1.84,31.98-2.54c1.37-0.07,4.23-0.21,4.92-0.04" stroke-dasharray="41.51" stroke-dashoffset="41.51"><animate attributeName="stroke-dashoffset" values="41.51" fill="freeze" begin="87c4.click" /><animate attributeName="stroke-dashoffset" values="41.51;41.51;0" keyTimes="0;0.721;1" dur="1.49s" fill="freeze" begin="0s;87c4.click" /></path><path d="M20.66,51.78c0.92,0.27,2.61,0.34,3.53,0.27c7.74-0.65,18.07-2.3,25.99-2.71c1.53-0.08,2.46,0.13,3.22,0.26" stroke-dasharray="32.929" stroke-dashoffset="32.929"><animate attributeName="stroke-dashoffset" values="32.929" fill="freeze" begin="87c4.click" /><animate attributeName="stroke-dashoffset" values="32.929;32.929;0" keyTimes="0;0.819;1" dur="1.819s" fill="freeze" begin="0s;87c4.click" /></path><path d="M36.63,41.67c0.35,0.3,1.08,1.64,1.15,2.23c0.07,0.59-0.04,15.12-0.11,18.83" stroke-dasharray="21.368" stroke-dashoffset="21.368"><animate attributeName="stroke-dashoffset" values="21.368" fill="freeze" begin="87c4.click" /><animate attributeName="stroke-dashoffset" values="21.368;21.368;0" keyTimes="0;0.895;1" dur="2.033s" fill="freeze" begin="0s;87c4.click" /></path><path d="M71.06,10.68c0.29,0.35,0.73,1.11,0.7,1.74c-0.74,19.97-4.91,30.8-12.91,39.17" stroke-dasharray="44.154" stroke-dashoffset="44.154"><animate attributeName="stroke-dashoffset" values="44.154" fill="freeze" begin="87c4.click" /><animate attributeName="stroke-dashoffset" values="44.154;44.154;0" keyTimes="0;0.821;1" dur="2.475s" fill="freeze" begin="0s;87c4.click" /></path><path d="M57.71,22.61c0.91,0.38,3.38,1.13,4.52,1c1.14-0.13,14.98-2.3,18.55-3.06c2.62-0.56,3.59,0.72,2.9,2.15c-1.02,2.1-2.96,21.1,5.26,29.78c8.32,8.78,6.32,1.03,5.33-4.96" stroke-dasharray="75.665" stroke-dashoffset="75.665"><animate attributeName="stroke-dashoffset" values="75.665" fill="freeze" begin="87c4.click" /><animate attributeName="stroke-dashoffset" values="75.665;75.665;0" keyTimes="0;0.813;1" dur="3.044s" fill="freeze" begin="0s;87c4.click" /></path><path d="M61.03,32.89c6.92,2.31,14.03,10.56,15.39,14.36" stroke-dasharray="21.529" stroke-dashoffset="21.529"><animate attributeName="stroke-dashoffset" values="21.529" fill="freeze" begin="87c4.click" /><animate attributeName="stroke-dashoffset" values="21.529;21.529;0" keyTimes="0;0.934;1" dur="3.259s" fill="freeze" begin="0s;87c4.click" /></path><path d="M28.95,66.81c0.82,0.53,1.4,1.85,1.55,2.55c1.11,5.09,1.25,4.29,2.8,13.93" stroke-dasharray="17.261" stroke-dashoffset="17.261"><animate attributeName="stroke-dashoffset" values="17.261" fill="freeze" begin="87c4.click" /><animate attributeName="stroke-dashoffset" values="17.261;17.261;0" keyTimes="0;0.95;1" dur="3.432s" fill="freeze" begin="0s;87c4.click" /></path><path d="M31.11,68.86c12.44-1.02,38.67-3.95,47.67-4.34c3.51-0.15,3.92,1.68,3.32,3.88c-0.85,3.1-1.6,5.1-2.72,8.97" stroke-dasharray="63.676" stroke-dashoffset="63.676"><animate attributeName="stroke-dashoffset" values="63.676" fill="freeze" begin="87c4.click" /><animate attributeName="stroke-dashoffset" values="63.676;63.676;0" keyTimes="0;0.878;1" dur="3.911s" fill="freeze" begin="0s;87c4.click" /></path><path d="M33.77,81.24c10.01-1.02,33.21-3.1,47.21-4.06" stroke-dasharray="47.387" stroke-dashoffset="47.387"><animate attributeName="stroke-dashoffset" values="47.387" fill="freeze" begin="87c4.click" /><animate attributeName="stroke-dashoffset" values="47.387;47.387;0" keyTimes="0;0.892;1" dur="4.385s" fill="freeze" begin="0s;87c4.click" /></path><path d="M53.98,57.25c1,0.39,1.6,1.75,1.8,2.52c0.2,0.78,0,27.59-0.2,32.44" stroke-dasharray="35.644" stroke-dashoffset="35.644"><animate attributeName="stroke-dashoffset" values="35.644" fill="freeze" begin="87c4.click" /><animate attributeName="stroke-dashoffset" values="35.644;35.644;0" keyTimes="0;0.925;1" dur="4.741s" fill="freeze" begin="0s;87c4.click" /></path><path d="M24.35,95.49c1.21,0.52,1.93,1.16,3.14,1.03c1.21-0.13,46.31-6.05,53.79-7.08" stroke-dasharray="57.612" stroke-dashoffset="57.612"><animate attributeName="stroke-dashoffset" values="57.612" fill="freeze" begin="87c4.click" /><animate attributeName="stroke-dashoffset" values="57.612;57.612;0" keyTimes="0;0.892;1" dur="5.317s" fill="freeze" begin="0s;87c4.click" /></path><path d="M72.36,82.25c5.74,2.78,14.82,11.42,16.25,15.74" stroke-dasharray="22.954" stroke-dashoffset="22.954"><animate attributeName="stroke-dashoffset" values="22.954" fill="freeze" begin="87c4.click" /><animate attributeName="stroke-dashoffset" values="22.954;22.954;0" keyTimes="0;0.959;1" dur="5.547s" fill="freeze" begin="0s;87c4.click" /></path></g></svg>