<svg xmlns="http://www.w3.org/2000/svg" width="109" height="109" viewBox="0 0 109 109" id="87d2"><g fill="none" stroke="#666" stroke-width="9" stroke-linecap="round" stroke-linejoin="round"><g><g><g><g><path d="M11.76,36.4c0.43,0.57,0.96,1.56,1.05,2.3c0.82,6.45,1.76,14.81,2.94,24.45" /><path d="M13.22,38.98c6.93-0.97,17.11-2.83,22.13-3.2c1.96-0.14,2.86,1.38,2.62,2.83c-0.83,4.98-1.98,11.84-3.33,20.12" /><path d="M15.76,60.93c7.74-0.68,11.99-1.18,20.76-1.89" /></g><g><path d="M22.92,18.25c1.08,1,2.26,2.75,2.26,4.47c0,4.78-0.2,45.28-0.2,58.66" /></g></g><path d="M11.07,87c0.49,0.89,2.01,0.86,2.5,0.63c0.49-0.22,20.03-9.73,23.07-11.51" /><path d="M32,68c3.02,2.81,7.8,11.53,8.56,15.89" /></g><g><g><path d="M42.21,24.1c1.23,0.67,2.66,0.8,3.9,0.67c11.31-1.22,32.89-3.89,45.93-3.98c2.05-0.01,3.28,0.32,4.31,0.65" /><path d="M53.51,13.5c1.31,1.43,1.73,1.87,1.87,2.75c1.31,8.25,0.86,12,1.06,15.75" /><path d="M77.87,12.25c0.84,1,1.4,2.52,1.12,4c-0.84,4.5-0.91,8.5-2.12,14.25" /></g><g><g><path d="M44.37,40.11c1.4,0.39,3.08,0.77,4.88,0.61c13.57-1.22,27.62-3.22,38.48-4.14c1.87-0.16,3.37-0.08,5.06,0.42" /><path d="M65.95,28.25c0.24,1.21,0.24,1.95-0.11,2.93c-5.54,15.3-13.87,26.23-24.62,33.32" /><path d="M70.81,39c5.13,4.44,17.09,15.77,22.21,18.74c1.74,1.01,2.35,1.16,3.14,1.26" /></g><g><g p7:part="1" xmlns:p7="http://kanjivg.tagaini.net"><path d="M44.88,69.98c1.14,0.54,3.22,0.63,4.36,0.54c11.84-0.91,28.26-2.27,41.91-3.23c1.89-0.13,3.03,0.26,3.98,0.53" /></g><g><path d="M60.72,57.5c0.41,0.85,0.83,1.74,0.83,2.99c0,16.01-1.3,28.26-14.15,36.76" /></g><g p7:part="2" xmlns:p7="http://kanjivg.tagaini.net"><path d="M78.7,55.25c0.52,0.72,1.47,1.75,1.47,3.25c0,6.75,0,33.75-0.16,40" /></g></g></g></g></g></g><g fill="none" stroke="#000" stroke-width="5" stroke-linecap="round" stroke-linejoin="round"><g><g><g><g><path d="M11.76,36.4c0.43,0.57,0.96,1.56,1.05,2.3c0.82,6.45,1.76,14.81,2.94,24.45" stroke-dasharray="27.18" stroke-dashoffset="27.18"><animate id="0" attributeName="stroke-dashoffset" values="27.18;0" dur="0.27s" fill="freeze" begin="0s;87d2.click" /></path><path d="M13.22,38.98c6.93-0.97,17.11-2.83,22.13-3.2c1.96-0.14,2.86,1.38,2.62,2.83c-0.83,4.98-1.98,11.84-3.33,20.12" stroke-dasharray="47.27" stroke-dashoffset="47.27"><animate attributeName="stroke-dashoffset" values="47.27" fill="freeze" begin="87d2.click" /><animate id="1" attributeName="stroke-dashoffset" values="47.27;0" dur="0.47s" fill="freeze" begin="0.end" /></path><path d="M15.76,60.93c7.74-0.68,11.99-1.18,20.76-1.89" stroke-dasharray="20.85" stroke-dashoffset="20.85"><animate attributeName="stroke-dashoffset" values="20.85" fill="freeze" begin="87d2.click" /><animate id="2" attributeName="stroke-dashoffset" values="20.85;0" dur="0.21s" fill="freeze" begin="1.end" /></path></g><g><path d="M22.92,18.25c1.08,1,2.26,2.75,2.26,4.47c0,4.78-0.2,45.28-0.2,58.66" stroke-dasharray="63.8" stroke-dashoffset="63.8"><animate attributeName="stroke-dashoffset" values="63.8" fill="freeze" begin="87d2.click" /><animate id="3" attributeName="stroke-dashoffset" values="63.8;0" dur="0.48s" fill="freeze" begin="2.end" /></path></g></g><path d="M11.07,87c0.49,0.89,2.01,0.86,2.5,0.63c0.49-0.22,20.03-9.73,23.07-11.51" stroke-dasharray="28.56" stroke-dashoffset="28.56"><animate attributeName="stroke-dashoffset" values="28.56" fill="freeze" begin="87d2.click" /><animate id="4" attributeName="stroke-dashoffset" values="28.56;0" dur="0.29s" fill="freeze" begin="3.end" /></path><path d="M32,68c3.02,2.81,7.8,11.53,8.56,15.89" stroke-dasharray="18.23" stroke-dashoffset="18.23"><animate attributeName="stroke-dashoffset" values="18.23" fill="freeze" begin="87d2.click" /><animate id="5" attributeName="stroke-dashoffset" values="18.23;0" dur="0.18s" fill="freeze" begin="4.end" /></path></g><g><g><path d="M42.21,24.1c1.23,0.67,2.66,0.8,3.9,0.67c11.31-1.22,32.89-3.89,45.93-3.98c2.05-0.01,3.28,0.32,4.31,0.65" stroke-dasharray="54.52" stroke-dashoffset="54.52"><animate attributeName="stroke-dashoffset" values="54.52" fill="freeze" begin="87d2.click" /><animate id="6" attributeName="stroke-dashoffset" values="54.52;0" dur="0.55s" fill="freeze" begin="5.end" /></path><path d="M53.51,13.5c1.31,1.43,1.73,1.87,1.87,2.75c1.31,8.25,0.86,12,1.06,15.75" stroke-dasharray="19.18" stroke-dashoffset="19.18"><animate attributeName="stroke-dashoffset" values="19.18" fill="freeze" begin="87d2.click" /><animate id="7" attributeName="stroke-dashoffset" values="19.18;0" dur="0.19s" fill="freeze" begin="6.end" /></path><path d="M77.87,12.25c0.84,1,1.4,2.52,1.12,4c-0.84,4.5-0.91,8.5-2.12,14.25" stroke-dasharray="18.7" stroke-dashoffset="18.7"><animate attributeName="stroke-dashoffset" values="18.7" fill="freeze" begin="87d2.click" /><animate id="8" attributeName="stroke-dashoffset" values="18.7;0" dur="0.19s" fill="freeze" begin="7.end" /></path></g><g><g><path d="M44.37,40.11c1.4,0.39,3.08,0.77,4.88,0.61c13.57-1.22,27.62-3.22,38.48-4.14c1.87-0.16,3.37-0.08,5.06,0.42" stroke-dasharray="48.76" stroke-dashoffset="48.76"><animate attributeName="stroke-dashoffset" values="48.76" fill="freeze" begin="87d2.click" /><animate id="9" attributeName="stroke-dashoffset" values="48.76;0" dur="0.49s" fill="freeze" begin="8.end" /></path><path d="M65.95,28.25c0.24,1.21,0.24,1.95-0.11,2.93c-5.54,15.3-13.87,26.23-24.62,33.32" stroke-dasharray="45.14" stroke-dashoffset="45.14"><animate attributeName="stroke-dashoffset" values="45.14" fill="freeze" begin="87d2.click" /><animate id="10" attributeName="stroke-dashoffset" values="45.14;0" dur="0.45s" fill="freeze" begin="9.end" /></path><path d="M70.81,39c5.13,4.44,17.09,15.77,22.21,18.74c1.74,1.01,2.35,1.16,3.14,1.26" stroke-dasharray="32.5" stroke-dashoffset="32.5"><animate attributeName="stroke-dashoffset" values="32.5" fill="freeze" begin="87d2.click" /><animate id="11" attributeName="stroke-dashoffset" values="32.5;0" dur="0.32s" fill="freeze" begin="10.end" /></path></g><g><g p7:part="1" xmlns:p7="http://kanjivg.tagaini.net"><path d="M44.88,69.98c1.14,0.54,3.22,0.63,4.36,0.54c11.84-0.91,28.26-2.27,41.91-3.23c1.89-0.13,3.03,0.26,3.98,0.53" stroke-dasharray="50.51" stroke-dashoffset="50.51"><animate attributeName="stroke-dashoffset" values="50.51" fill="freeze" begin="87d2.click" /><animate id="12" attributeName="stroke-dashoffset" values="50.51;0" dur="0.51s" fill="freeze" begin="11.end" /></path></g><g><path d="M60.72,57.5c0.41,0.85,0.83,1.74,0.83,2.99c0,16.01-1.3,28.26-14.15,36.76" stroke-dasharray="44.54" stroke-dashoffset="44.54"><animate attributeName="stroke-dashoffset" values="44.54" fill="freeze" begin="87d2.click" /><animate id="13" attributeName="stroke-dashoffset" values="44.54;0" dur="0.45s" fill="freeze" begin="12.end" /></path></g><g p7:part="2" xmlns:p7="http://kanjivg.tagaini.net"><path d="M78.7,55.25c0.52,0.72,1.47,1.75,1.47,3.25c0,6.75,0,33.75-0.16,40" stroke-dasharray="43.64" stroke-dashoffset="43.64"><animate attributeName="stroke-dashoffset" values="43.64" fill="freeze" begin="87d2.click" /><animate id="14" attributeName="stroke-dashoffset" values="43.64;0" dur="0.44s" fill="freeze" begin="13.end" /></path></g></g></g></g></g></g></svg>