<svg xmlns="http://www.w3.org/2000/svg" width="109" height="109" viewBox="0 0 109 109" id="8861"><g fill="none" stroke="#666" stroke-width="9" stroke-linecap="round" stroke-linejoin="round"><g><g p4:phon="行1" xmlns:p4="http://kanjivg.tagaini.net"><g><path d="M28.94,14.25c0.1,0.97-0.29,1.76-0.79,2.54c-2.57,4-8.37,10.39-16.29,16.62" /><g><path d="M28.53,35.99c0.09,1.09-0.25,2.19-0.64,3.19c-2.36,6.06-8.69,13.85-16.9,21.86" /><path d="M21.9,53.15c0.72,0.72,1.08,1.72,1.08,2.56c0,0.4-0.03,24.41-0.03,36.03c0,2.47-0.02,4.2-0.03,4.75" /></g></g></g><g p4:partial xmlns:p4="http://kanjivg.tagaini.net"><g><path d="M47.56,11.5c0.1,1.13-0.34,2.08-0.87,3.04c-2.33,4.22-7.43,11.1-13.05,15.54" /><path d="M44.49,19.74c1.95,0,11.75-1.39,13.8-1.59c1.76-0.18,1.66,1.41,0.93,2.29c-3.08,3.71-8.01,9.3-11.27,14.31" /></g><g><path d="M36.57,35.98c0.66,0.66,1.18,1.52,1.31,2.45c0.54,3.67,1.51,12.03,2.05,19.32c0.09,1.19,0.17,2.35,0.25,3.46" /><path d="M38.26,37.05c7.32-1.4,16.34-2.64,22.14-3.53c3.52-0.54,5.86,0.98,5.34,4.36c-0.63,4.17-1.56,10.8-2.37,16.64c-0.21,1.51-0.65,2.95-0.81,4.24" /><path d="M49.81,37.14c0.65,0.65,1.06,1.36,1.06,2.35c0,5.98,0.06,14.51,0.06,17.8" /><path d="M40.31,47.72C46,46.88,57.88,45,63.66,44.59" /><path d="M41.3,59.31C49,58,53,57.75,61.8,56.97" /></g><g><path d="M33.59,75.06c1.68,0.59,4.37,0.18,6.05-0.12c7.19-1.28,17.78-2.79,25.11-3.72c1.89-0.24,3.85-0.11,5.7,0.25" /><path d="M51.19,63.68c0.63,0.63,0.77,1.68,0.68,2.59c-1.38,13.98-6.63,23.6-18.28,30.16" /><path d="M52.38,78.12c5.18,2.32,13.38,9.53,14.68,13.13" /></g></g><g p4:phon="行2" xmlns:p4="http://kanjivg.tagaini.net"><path d="M75.3,23.58c1.63,0.43,3.79,0.74,5.48,0.49c4.25-0.61,10.36-1.97,12.55-2.14c1.71-0.14,2.75,0.13,3.61,0.27" /><path d="M72.38,42.6c1.59,0.64,4.06,0.6,5.75,0.42c6.15-0.64,13.37-2.38,18.39-3.12c1.47-0.22,2.87-0.08,3.61,0.1" /><path d="M86.52,44.55c1.09,1.1,1.51,2.44,1.51,4.44c0,13.68-0.01,40.08-0.01,44.74c0,9.77-4.71,1.53-6.21,0.36" /></g></g></g><g fill="none" stroke="#000" stroke-width="5" stroke-linecap="round" stroke-linejoin="round"><g><g p4:phon="行1" xmlns:p4="http://kanjivg.tagaini.net"><g><path d="M28.94,14.25c0.1,0.97-0.29,1.76-0.79,2.54c-2.57,4-8.37,10.39-16.29,16.62" stroke-dasharray="26.077" stroke-dashoffset="26.077"><animate attributeName="stroke-dashoffset" values="26.077;26.077;0" dur="0.261s" fill="freeze" begin="0s;8861.click" /></path><g><path d="M28.53,35.99c0.09,1.09-0.25,2.19-0.64,3.19c-2.36,6.06-8.69,13.85-16.9,21.86" stroke-dasharray="31.088" stroke-dashoffset="31.088"><animate attributeName="stroke-dashoffset" values="31.088" fill="freeze" begin="8861.click" /><animate attributeName="stroke-dashoffset" values="31.088;31.088;0" keyTimes="0;0.456;1" dur="0.572s" fill="freeze" begin="0s;8861.click" /></path><path d="M21.9,53.15c0.72,0.72,1.08,1.72,1.08,2.56c0,0.4-0.03,24.41-0.03,36.03c0,2.47-0.02,4.2-0.03,4.75" stroke-dasharray="43.628" stroke-dashoffset="43.628"><animate attributeName="stroke-dashoffset" values="43.628" fill="freeze" begin="8861.click" /><animate attributeName="stroke-dashoffset" values="43.628;43.628;0" keyTimes="0;0.567;1" dur="1.008s" fill="freeze" begin="0s;8861.click" /></path></g></g></g><g p4:partial xmlns:p4="http://kanjivg.tagaini.net"><g><path d="M47.56,11.5c0.1,1.13-0.34,2.08-0.87,3.04c-2.33,4.22-7.43,11.1-13.05,15.54" stroke-dasharray="23.619" stroke-dashoffset="23.619"><animate attributeName="stroke-dashoffset" values="23.619" fill="freeze" begin="8861.click" /><animate attributeName="stroke-dashoffset" values="23.619;23.619;0" keyTimes="0;0.81;1" dur="1.244s" fill="freeze" begin="0s;8861.click" /></path><path d="M44.49,19.74c1.95,0,11.75-1.39,13.8-1.59c1.76-0.18,1.66,1.41,0.93,2.29c-3.08,3.71-8.01,9.3-11.27,14.31" stroke-dasharray="35.543" stroke-dashoffset="35.543"><animate attributeName="stroke-dashoffset" values="35.543" fill="freeze" begin="8861.click" /><animate attributeName="stroke-dashoffset" values="35.543;35.543;0" keyTimes="0;0.778;1" dur="1.599s" fill="freeze" begin="0s;8861.click" /></path></g><g><path d="M36.57,35.98c0.66,0.66,1.18,1.52,1.31,2.45c0.54,3.67,1.51,12.03,2.05,19.32c0.09,1.19,0.17,2.35,0.25,3.46" stroke-dasharray="25.728" stroke-dashoffset="25.728"><animate attributeName="stroke-dashoffset" values="25.728" fill="freeze" begin="8861.click" /><animate attributeName="stroke-dashoffset" values="25.728;25.728;0" keyTimes="0;0.862;1" dur="1.856s" fill="freeze" begin="0s;8861.click" /></path><path d="M38.26,37.05c7.32-1.4,16.34-2.64,22.14-3.53c3.52-0.54,5.86,0.98,5.34,4.36c-0.63,4.17-1.56,10.8-2.37,16.64c-0.21,1.51-0.65,2.95-0.81,4.24" stroke-dasharray="51.936" stroke-dashoffset="51.936"><animate attributeName="stroke-dashoffset" values="51.936" fill="freeze" begin="8861.click" /><animate attributeName="stroke-dashoffset" values="51.936;51.936;0" keyTimes="0;0.781;1" dur="2.375s" fill="freeze" begin="0s;8861.click" /></path><path d="M49.81,37.14c0.65,0.65,1.06,1.36,1.06,2.35c0,5.98,0.06,14.51,0.06,17.8" stroke-dasharray="20.455" stroke-dashoffset="20.455"><animate attributeName="stroke-dashoffset" values="20.455" fill="freeze" begin="8861.click" /><animate attributeName="stroke-dashoffset" values="20.455;20.455;0" keyTimes="0;0.921;1" dur="2.58s" fill="freeze" begin="0s;8861.click" /></path><path d="M40.31,47.72C46,46.88,57.88,45,63.66,44.59" stroke-dasharray="23.564" stroke-dashoffset="23.564"><animate attributeName="stroke-dashoffset" values="23.564" fill="freeze" begin="8861.click" /><animate attributeName="stroke-dashoffset" values="23.564;23.564;0" keyTimes="0;0.916;1" dur="2.816s" fill="freeze" begin="0s;8861.click" /></path><path d="M41.3,59.31C49,58,53,57.75,61.8,56.97" stroke-dasharray="20.642" stroke-dashoffset="20.642"><animate attributeName="stroke-dashoffset" values="20.642" fill="freeze" begin="8861.click" /><animate attributeName="stroke-dashoffset" values="20.642;20.642;0" keyTimes="0;0.932;1" dur="3.022s" fill="freeze" begin="0s;8861.click" /></path></g><g><path d="M33.59,75.06c1.68,0.59,4.37,0.18,6.05-0.12c7.19-1.28,17.78-2.79,25.11-3.72c1.89-0.24,3.85-0.11,5.7,0.25" stroke-dasharray="37.225" stroke-dashoffset="37.225"><animate attributeName="stroke-dashoffset" values="37.225" fill="freeze" begin="8861.click" /><animate attributeName="stroke-dashoffset" values="37.225;37.225;0" keyTimes="0;0.89;1" dur="3.394s" fill="freeze" begin="0s;8861.click" /></path><path d="M51.19,63.68c0.63,0.63,0.77,1.68,0.68,2.59c-1.38,13.98-6.63,23.6-18.28,30.16" stroke-dasharray="39.645" stroke-dashoffset="39.645"><animate attributeName="stroke-dashoffset" values="39.645" fill="freeze" begin="8861.click" /><animate attributeName="stroke-dashoffset" values="39.645;39.645;0" keyTimes="0;0.896;1" dur="3.79s" fill="freeze" begin="0s;8861.click" /></path><path d="M52.38,78.12c5.18,2.32,13.38,9.53,14.68,13.13" stroke-dasharray="19.98" stroke-dashoffset="19.98"><animate attributeName="stroke-dashoffset" values="19.98" fill="freeze" begin="8861.click" /><animate attributeName="stroke-dashoffset" values="19.98;19.98;0" keyTimes="0;0.95;1" dur="3.99s" fill="freeze" begin="0s;8861.click" /></path></g></g><g p4:phon="行2" xmlns:p4="http://kanjivg.tagaini.net"><path d="M75.3,23.58c1.63,0.43,3.79,0.74,5.48,0.49c4.25-0.61,10.36-1.97,12.55-2.14c1.71-0.14,2.75,0.13,3.61,0.27" stroke-dasharray="21.903" stroke-dashoffset="21.903"><animate attributeName="stroke-dashoffset" values="21.903" fill="freeze" begin="8861.click" /><animate attributeName="stroke-dashoffset" values="21.903;21.903;0" keyTimes="0;0.948;1" dur="4.209s" fill="freeze" begin="0s;8861.click" /></path><path d="M72.38,42.6c1.59,0.64,4.06,0.6,5.75,0.42c6.15-0.64,13.37-2.38,18.39-3.12c1.47-0.22,2.87-0.08,3.61,0.1" stroke-dasharray="28.103" stroke-dashoffset="28.103"><animate attributeName="stroke-dashoffset" values="28.103" fill="freeze" begin="8861.click" /><animate attributeName="stroke-dashoffset" values="28.103;28.103;0" keyTimes="0;0.937;1" dur="4.49s" fill="freeze" begin="0s;8861.click" /></path><path d="M86.52,44.55c1.09,1.1,1.51,2.44,1.51,4.44c0,13.68-0.01,40.08-0.01,44.74c0,9.77-4.71,1.53-6.21,0.36" stroke-dasharray="61.428" stroke-dashoffset="61.428"><animate attributeName="stroke-dashoffset" values="61.428" fill="freeze" begin="8861.click" /><animate attributeName="stroke-dashoffset" values="61.428;61.428;0" keyTimes="0;0.907;1" dur="4.952s" fill="freeze" begin="0s;8861.click" /></path></g></g></g></svg>