<svg xmlns="http://www.w3.org/2000/svg" width="109" height="109" viewBox="0 0 109 109" id="8868"><g fill="none" stroke="#666" stroke-width="9" stroke-linecap="round" stroke-linejoin="round"><g><g><g p5:part="1" xmlns:p5="http://kanjivg.tagaini.net"><path d="M30,23.9c3,0.47,6.01,0.11,8.76-0.22c8.42-1.02,22.68-2.69,31.62-3.38c2.87-0.22,5.78-0.55,8.62,0.07" /></g><g><path d="M52.37,9.75c1.09,0.5,1.74,2.25,1.96,3.25c0.22,1,0.5,27.25,0.28,33.5" /></g><g p5:part="2" xmlns:p5="http://kanjivg.tagaini.net"><path d="M32.25,35.64c3.25,0.36,5.53,0.16,8-0.13c7.56-0.91,21.31-2.59,29.75-3.53c3-0.33,6-0.6,8.75-0.21" /></g></g><g p4:partial xmlns:p4="http://kanjivg.tagaini.net"><g p4:partial><path d="M16.25,49.7c3.62,0.68,7.5,0.39,11.01,0.02c13.06-1.36,39.13-4.27,54.49-5.38c3.64-0.26,7.16-0.57,10.75,0.2" /></g><g><path d="M44.72,51.64c0.09,0.82-0.16,2.32-0.93,3.29C36.8,63.81,28.35,72.41,13.25,80.5" /><path d="M37.5,65.75c0.81,0.81,1.25,1.88,1.25,3c0,12.12-0.07,19.71-0.07,22.19c0,2,1.43,2.89,2.93,1.39s13.6-12.09,15.6-13.59" /><path d="M77.25,52.14c0.12,0.98-0.18,2.05-0.5,2.61c-2,3.5-5,6.5-11.5,11.25" /><path d="M50.75,60.75C54.5,61,75.96,78.82,85.14,85.86c2.79,2.14,5.36,3.76,8.49,4.76" /></g></g></g></g><g fill="none" stroke="#000" stroke-width="5" stroke-linecap="round" stroke-linejoin="round"><g><g><g p5:part="1" xmlns:p5="http://kanjivg.tagaini.net"><path d="M30,23.9c3,0.47,6.01,0.11,8.76-0.22c8.42-1.02,22.68-2.69,31.62-3.38c2.87-0.22,5.78-0.55,8.62,0.07" stroke-dasharray="49.25" stroke-dashoffset="49.25"><animate id="0" attributeName="stroke-dashoffset" values="49.25;0" dur="0.49s" fill="freeze" begin="0s;8868.click" /></path></g><g><path d="M52.37,9.75c1.09,0.5,1.74,2.25,1.96,3.25c0.22,1,0.5,27.25,0.28,33.5" stroke-dasharray="37.41" stroke-dashoffset="37.41"><animate attributeName="stroke-dashoffset" values="37.41" fill="freeze" begin="8868.click" /><animate id="1" attributeName="stroke-dashoffset" values="37.41;0" dur="0.37s" fill="freeze" begin="0.end" /></path></g><g p5:part="2" xmlns:p5="http://kanjivg.tagaini.net"><path d="M32.25,35.64c3.25,0.36,5.53,0.16,8-0.13c7.56-0.91,21.31-2.59,29.75-3.53c3-0.33,6-0.6,8.75-0.21" stroke-dasharray="46.76" stroke-dashoffset="46.76"><animate attributeName="stroke-dashoffset" values="46.76" fill="freeze" begin="8868.click" /><animate id="2" attributeName="stroke-dashoffset" values="46.76;0" dur="0.47s" fill="freeze" begin="1.end" /></path></g></g><g p4:partial xmlns:p4="http://kanjivg.tagaini.net"><g p4:partial><path d="M16.25,49.7c3.62,0.68,7.5,0.39,11.01,0.02c13.06-1.36,39.13-4.27,54.49-5.38c3.64-0.26,7.16-0.57,10.75,0.2" stroke-dasharray="76.6" stroke-dashoffset="76.6"><animate attributeName="stroke-dashoffset" values="76.6" fill="freeze" begin="8868.click" /><animate id="3" attributeName="stroke-dashoffset" values="76.6;0" dur="0.58s" fill="freeze" begin="2.end" /></path></g><g><path d="M44.72,51.64c0.09,0.82-0.16,2.32-0.93,3.29C36.8,63.81,28.35,72.41,13.25,80.5" stroke-dasharray="43.64" stroke-dashoffset="43.64"><animate attributeName="stroke-dashoffset" values="43.64" fill="freeze" begin="8868.click" /><animate id="4" attributeName="stroke-dashoffset" values="43.64;0" dur="0.44s" fill="freeze" begin="3.end" /></path><path d="M37.5,65.75c0.81,0.81,1.25,1.88,1.25,3c0,12.12-0.07,19.71-0.07,22.19c0,2,1.43,2.89,2.93,1.39s13.6-12.09,15.6-13.59" stroke-dasharray="50.8" stroke-dashoffset="50.8"><animate attributeName="stroke-dashoffset" values="50.8" fill="freeze" begin="8868.click" /><animate id="5" attributeName="stroke-dashoffset" values="50.8;0" dur="0.51s" fill="freeze" begin="4.end" /></path><path d="M77.25,52.14c0.12,0.98-0.18,2.05-0.5,2.61c-2,3.5-5,6.5-11.5,11.25" stroke-dasharray="18.91" stroke-dashoffset="18.91"><animate attributeName="stroke-dashoffset" values="18.91" fill="freeze" begin="8868.click" /><animate id="6" attributeName="stroke-dashoffset" values="18.91;0" dur="0.19s" fill="freeze" begin="5.end" /></path><path d="M50.75,60.75C54.5,61,75.96,78.82,85.14,85.86c2.79,2.14,5.36,3.76,8.49,4.76" stroke-dasharray="52.48" stroke-dashoffset="52.48"><animate attributeName="stroke-dashoffset" values="52.48" fill="freeze" begin="8868.click" /><animate id="7" attributeName="stroke-dashoffset" values="52.48;0" dur="0.52s" fill="freeze" begin="6.end" /></path></g></g></g></g></svg>