<svg xmlns="http://www.w3.org/2000/svg" width="109" height="109" viewBox="0 0 109 109" id="8877"><g fill="none" stroke="#666" stroke-width="6" stroke-linecap="round" stroke-linejoin="round"><g><g><g p5:partial xmlns:p5="http://kanjivg.tagaini.net"><g p5:partial><path d="M20,26.11c3.38,0.51,6.42,0.32,9.63-0.04c12.74-1.44,35.17-3.36,49.86-4.54c3.4-0.27,6.91-0.31,10.26,0.37" /></g></g><g p5:phon="中" xmlns:p5="http://kanjivg.tagaini.net"><g><path d="M29,37.04c0.92,0.92,1.64,2.25,1.74,2.67c1.16,5.03,1.72,7.96,2.39,11.76c0.2,1.14,0.41,2.36,0.65,3.73" /><path d="M31.39,38.32c11.75-1.18,35-3.85,42.73-4.47c3.44-0.28,4.67,0.85,3.86,4.15C77,42,76.33,44.87,75.42,48.31" /><path d="M34.29,52.75c6.19-0.39,25.46-2.59,37.22-3.35c2.46-0.16,4.6-0.29,6.24-0.37" /></g><g><path d="M52.75,11.75c1.06,1.06,1.5,2.62,1.5,4c0,10.5,0,25.75,0,34.25" /></g></g></g><g p4:partial xmlns:p4="http://kanjivg.tagaini.net"><path d="M50.97,54.13c0.09,0.69,0.02,1.71-0.68,2.53C45,62.88,36.5,71.75,18.06,83.06" /><path d="M42.62,69.33c0.73,0.73,1,1.45,1,2.67c0,9.85,0.05,19.15,0.05,20.81c0,1.67,1.18,2.61,2.68,1.36c1.5-1.25,10.52-9.3,14.6-12.62" /><path d="M78.63,54.42c0.03,0.3-0.39,1.2-0.59,1.6c-1.27,2.48-5.25,6.02-11.73,10.96" /><path d="M55.25,60.88c1.4,0.7,18.58,15.2,27.53,22.12c2.86,2.21,6.72,4.25,9.22,5.16" /></g></g></g><g fill="none" stroke="#000" stroke-width="3" stroke-linecap="round" stroke-linejoin="round"><path d="M20,26.11c3.38,0.51,6.42,0.32,9.63-0.04c12.74-1.44,35.17-3.36,49.86-4.54c3.4-0.27,6.91-0.31,10.26,0.37" stroke-dasharray="70.029" stroke-dashoffset="70.029"><animate attributeName="stroke-dashoffset" values="70.029;70.029;0" dur="0.527s" fill="freeze" begin="0s;8877.click" /></path><path d="M29,37.04c0.92,0.92,1.64,2.25,1.74,2.67c1.16,5.03,1.72,7.96,2.39,11.76c0.2,1.14,0.41,2.36,0.65,3.73" stroke-dasharray="19" stroke-dashoffset="19"><animate attributeName="stroke-dashoffset" values="19" fill="freeze" begin="8877.click" /><animate attributeName="stroke-dashoffset" values="19;19;0" keyTimes="0;0.735;1" dur="0.717s" fill="freeze" begin="0s;8877.click" /></path><path d="M31.39,38.32c11.75-1.18,35-3.85,42.73-4.47c3.44-0.28,4.67,0.85,3.86,4.15C77,42,76.33,44.87,75.42,48.31" stroke-dasharray="60.877" stroke-dashoffset="60.877"><animate attributeName="stroke-dashoffset" values="60.877" fill="freeze" begin="8877.click" /><animate attributeName="stroke-dashoffset" values="60.877;60.877;0" keyTimes="0;0.61;1" dur="1.175s" fill="freeze" begin="0s;8877.click" /></path><path d="M34.29,52.75c6.19-0.39,25.46-2.59,37.22-3.35c2.46-0.16,4.6-0.29,6.24-0.37" stroke-dasharray="43.624" stroke-dashoffset="43.624"><animate attributeName="stroke-dashoffset" values="43.624" fill="freeze" begin="8877.click" /><animate attributeName="stroke-dashoffset" values="43.624;43.624;0" keyTimes="0;0.729;1" dur="1.611s" fill="freeze" begin="0s;8877.click" /></path><path d="M52.75,11.75c1.06,1.06,1.5,2.62,1.5,4c0,10.5,0,25.75,0,34.25" stroke-dasharray="38.631" stroke-dashoffset="38.631"><animate attributeName="stroke-dashoffset" values="38.631" fill="freeze" begin="8877.click" /><animate attributeName="stroke-dashoffset" values="38.631;38.631;0" keyTimes="0;0.807;1" dur="1.997s" fill="freeze" begin="0s;8877.click" /></path><path d="M50.97,54.13c0.09,0.69,0.02,1.71-0.68,2.53C45,62.88,36.5,71.75,18.06,83.06" stroke-dasharray="44.544" stroke-dashoffset="44.544"><animate attributeName="stroke-dashoffset" values="44.544" fill="freeze" begin="8877.click" /><animate attributeName="stroke-dashoffset" values="44.544;44.544;0" keyTimes="0;0.818;1" dur="2.442s" fill="freeze" begin="0s;8877.click" /></path><path d="M42.62,69.33c0.73,0.73,1,1.45,1,2.67c0,9.85,0.05,19.15,0.05,20.81c0,1.67,1.18,2.61,2.68,1.36c1.5-1.25,10.52-9.3,14.6-12.62" stroke-dasharray="47.156" stroke-dashoffset="47.156"><animate attributeName="stroke-dashoffset" values="47.156" fill="freeze" begin="8877.click" /><animate attributeName="stroke-dashoffset" values="47.156;47.156;0" keyTimes="0;0.838;1" dur="2.914s" fill="freeze" begin="0s;8877.click" /></path><path d="M78.63,54.42c0.03,0.3-0.39,1.2-0.59,1.6c-1.27,2.48-5.25,6.02-11.73,10.96" stroke-dasharray="17.859" stroke-dashoffset="17.859"><animate attributeName="stroke-dashoffset" values="17.859" fill="freeze" begin="8877.click" /><animate attributeName="stroke-dashoffset" values="17.859;17.859;0" keyTimes="0;0.942;1" dur="3.093s" fill="freeze" begin="0s;8877.click" /></path><path d="M55.25,60.88c1.4,0.7,18.58,15.2,27.53,22.12c2.86,2.21,6.72,4.25,9.22,5.16" stroke-dasharray="45.921" stroke-dashoffset="45.921"><animate attributeName="stroke-dashoffset" values="45.921" fill="freeze" begin="8877.click" /><animate attributeName="stroke-dashoffset" values="45.921;45.921;0" keyTimes="0;0.871;1" dur="3.552s" fill="freeze" begin="0s;8877.click" /></path></g></svg>