<svg xmlns="http://www.w3.org/2000/svg" width="109" height="109" viewBox="0 0 109 109" id="8877"><g fill="none" stroke="#666" stroke-width="9" stroke-linecap="round" stroke-linejoin="round"><g><g><g p5:part="1" p5:partial xmlns:p5="http://kanjivg.tagaini.net"><g p5:partial><path d="M20,26.11c3.38,0.51,6.42,0.32,9.63-0.04c12.74-1.44,35.17-3.36,49.86-4.54c3.4-0.27,6.91-0.31,10.26,0.37" /></g></g><g p5:phon="中" xmlns:p5="http://kanjivg.tagaini.net"><g><path d="M29,37.04c0.92,0.92,1.64,2.25,1.74,2.67c1.16,5.03,1.72,7.96,2.39,11.76c0.2,1.14,0.41,2.36,0.65,3.73" /><path d="M31.39,38.32c11.75-1.18,35-3.85,42.73-4.47c3.44-0.28,4.67,0.85,3.86,4.15C77,42,76.33,44.87,75.42,48.31" /><path d="M34.29,52.75c6.19-0.39,25.46-2.59,37.22-3.35c2.46-0.16,4.6-0.29,6.24-0.37" /></g><g><path d="M52.75,11.75c1.06,1.06,1.5,2.62,1.5,4c0,10.5,0,25.75,0,34.25" /></g></g></g><g p4:part="2" p4:partial xmlns:p4="http://kanjivg.tagaini.net"><path d="M50.97,54.13c0.09,0.69,0.02,1.71-0.68,2.53C45,62.88,36.5,71.75,18.06,83.06" /><path d="M42.62,69.33c0.73,0.73,1,1.45,1,2.67c0,9.85,0.05,19.15,0.05,20.81c0,1.67,1.18,2.61,2.68,1.36c1.5-1.25,10.52-9.3,14.6-12.62" /><path d="M78.63,54.42c0.03,0.3-0.39,1.2-0.59,1.6c-1.27,2.48-5.25,6.02-11.73,10.96" /><path d="M55.25,60.88c1.4,0.7,18.58,15.2,27.53,22.12c2.86,2.21,6.72,4.25,9.22,5.16" /></g></g></g><g fill="none" stroke="#000" stroke-width="5" stroke-linecap="round" stroke-linejoin="round"><g><g><g p5:part="1" p5:partial xmlns:p5="http://kanjivg.tagaini.net"><g p5:partial><path d="M20,26.11c3.38,0.51,6.42,0.32,9.63-0.04c12.74-1.44,35.17-3.36,49.86-4.54c3.4-0.27,6.91-0.31,10.26,0.37" stroke-dasharray="70.03" stroke-dashoffset="70.03"><animate id="0" attributeName="stroke-dashoffset" values="70.03;0" dur="0.53s" fill="freeze" begin="0s;8877.click" /></path></g></g><g p5:phon="中" xmlns:p5="http://kanjivg.tagaini.net"><g><path d="M29,37.04c0.92,0.92,1.64,2.25,1.74,2.67c1.16,5.03,1.72,7.96,2.39,11.76c0.2,1.14,0.41,2.36,0.65,3.73" stroke-dasharray="19" stroke-dashoffset="19"><animate attributeName="stroke-dashoffset" values="19" fill="freeze" begin="8877.click" /><animate id="1" attributeName="stroke-dashoffset" values="19;0" dur="0.19s" fill="freeze" begin="0.end" /></path><path d="M31.39,38.32c11.75-1.18,35-3.85,42.73-4.47c3.44-0.28,4.67,0.85,3.86,4.15C77,42,76.33,44.87,75.42,48.31" stroke-dasharray="60.88" stroke-dashoffset="60.88"><animate attributeName="stroke-dashoffset" values="60.88" fill="freeze" begin="8877.click" /><animate id="2" attributeName="stroke-dashoffset" values="60.88;0" dur="0.46s" fill="freeze" begin="1.end" /></path><path d="M34.29,52.75c6.19-0.39,25.46-2.59,37.22-3.35c2.46-0.16,4.6-0.29,6.24-0.37" stroke-dasharray="43.62" stroke-dashoffset="43.62"><animate attributeName="stroke-dashoffset" values="43.62" fill="freeze" begin="8877.click" /><animate id="3" attributeName="stroke-dashoffset" values="43.62;0" dur="0.44s" fill="freeze" begin="2.end" /></path></g><g><path d="M52.75,11.75c1.06,1.06,1.5,2.62,1.5,4c0,10.5,0,25.75,0,34.25" stroke-dasharray="38.63" stroke-dashoffset="38.63"><animate attributeName="stroke-dashoffset" values="38.63" fill="freeze" begin="8877.click" /><animate id="4" attributeName="stroke-dashoffset" values="38.63;0" dur="0.39s" fill="freeze" begin="3.end" /></path></g></g></g><g p4:part="2" p4:partial xmlns:p4="http://kanjivg.tagaini.net"><path d="M50.97,54.13c0.09,0.69,0.02,1.71-0.68,2.53C45,62.88,36.5,71.75,18.06,83.06" stroke-dasharray="44.54" stroke-dashoffset="44.54"><animate attributeName="stroke-dashoffset" values="44.54" fill="freeze" begin="8877.click" /><animate id="5" attributeName="stroke-dashoffset" values="44.54;0" dur="0.45s" fill="freeze" begin="4.end" /></path><path d="M42.62,69.33c0.73,0.73,1,1.45,1,2.67c0,9.85,0.05,19.15,0.05,20.81c0,1.67,1.18,2.61,2.68,1.36c1.5-1.25,10.52-9.3,14.6-12.62" stroke-dasharray="47.16" stroke-dashoffset="47.16"><animate attributeName="stroke-dashoffset" values="47.16" fill="freeze" begin="8877.click" /><animate id="6" attributeName="stroke-dashoffset" values="47.16;0" dur="0.47s" fill="freeze" begin="5.end" /></path><path d="M78.63,54.42c0.03,0.3-0.39,1.2-0.59,1.6c-1.27,2.48-5.25,6.02-11.73,10.96" stroke-dasharray="17.86" stroke-dashoffset="17.86"><animate attributeName="stroke-dashoffset" values="17.86" fill="freeze" begin="8877.click" /><animate id="7" attributeName="stroke-dashoffset" values="17.86;0" dur="0.18s" fill="freeze" begin="6.end" /></path><path d="M55.25,60.88c1.4,0.7,18.58,15.2,27.53,22.12c2.86,2.21,6.72,4.25,9.22,5.16" stroke-dasharray="45.92" stroke-dashoffset="45.92"><animate attributeName="stroke-dashoffset" values="45.92" fill="freeze" begin="8877.click" /><animate id="8" attributeName="stroke-dashoffset" values="45.92;0" dur="0.46s" fill="freeze" begin="7.end" /></path></g></g></g></svg>