<svg xmlns="http://www.w3.org/2000/svg" width="109" height="109" viewBox="0 0 109 109" id="8896"><g fill="none" stroke="#666" stroke-width="9" stroke-linecap="round" stroke-linejoin="round"><g><g><path d="M23.83,16.5c3.42,2.59,7.07,6.22,10,10.75" /><path d="M13.2,39.86c2.56,0.86,5.01,0.55,7.62-0.12c5.81-1.49,15.04-4.02,16.79-4.51c3.39-0.96,4.06,1.62,2.69,3.71C32.6,50.62,22.75,64,11.5,74" /><path d="M30,56.11c0.88,0.88,1.27,2.01,1.27,3.64c0,6.56,0.03,21.2,0.05,29.75c0.01,3.12,0.01,5.43,0.01,6.25" /><path d="M43.08,51.39c0,0.74-0.13,1.37-0.46,1.98c-1,1.88-1.7,3.8-3.17,5.63" /><path d="M35.08,60c3.5,2.18,6,4.19,9,8" /></g><g><g p5:partial xmlns:p5="http://kanjivg.tagaini.net"><path d="M50.5,47.33c1.02,1.02,1.38,2.12,1.5,3.15c1.2,10.31,2.32,20.21,3.68,33.01c0.34,3.21,0.7,6.6,1.08,10.22" /><path d="M52.52,49.6c14.83-1.89,28.85-3.48,37.48-4.34c4.04-0.4,5.43,1.79,5.13,5.5c-0.7,8.82-2.13,26.37-4.12,40.07" /></g><g><path d="M70.86,15.86c1.33,1.33,1.85,2.77,1.85,4.1c0,14.16-0.04,64.55-0.04,68.58" /></g><g p5:partial xmlns:p5="http://kanjivg.tagaini.net"><path d="M55.04,68.87c13.09-1.74,23.84-2.49,37.97-3.53" /><path d="M57.36,90.61c13.52-0.98,21.68-1.8,33-2.02" /></g></g></g></g><g fill="none" stroke="#000" stroke-width="5" stroke-linecap="round" stroke-linejoin="round"><g><g><path d="M23.83,16.5c3.42,2.59,7.07,6.22,10,10.75" stroke-dasharray="14.756" stroke-dashoffset="14.756"><animate attributeName="stroke-dashoffset" values="14.756;14.756;0" dur="0.148s" fill="freeze" begin="0s;8896.click" /></path><path d="M13.2,39.86c2.56,0.86,5.01,0.55,7.62-0.12c5.81-1.49,15.04-4.02,16.79-4.51c3.39-0.96,4.06,1.62,2.69,3.71C32.6,50.62,22.75,64,11.5,74" stroke-dasharray="77.27" stroke-dashoffset="77.27"><animate attributeName="stroke-dashoffset" values="77.27" fill="freeze" begin="8896.click" /><animate attributeName="stroke-dashoffset" values="77.27;77.27;0" keyTimes="0;0.203;1" dur="0.729s" fill="freeze" begin="0s;8896.click" /></path><path d="M30,56.11c0.88,0.88,1.27,2.01,1.27,3.64c0,6.56,0.03,21.2,0.05,29.75c0.01,3.12,0.01,5.43,0.01,6.25" stroke-dasharray="39.967" stroke-dashoffset="39.967"><animate attributeName="stroke-dashoffset" values="39.967" fill="freeze" begin="8896.click" /><animate attributeName="stroke-dashoffset" values="39.967;39.967;0" keyTimes="0;0.646;1" dur="1.129s" fill="freeze" begin="0s;8896.click" /></path><path d="M43.08,51.39c0,0.74-0.13,1.37-0.46,1.98c-1,1.88-1.7,3.8-3.17,5.63" stroke-dasharray="8.531" stroke-dashoffset="8.531"><animate attributeName="stroke-dashoffset" values="8.531" fill="freeze" begin="8896.click" /><animate attributeName="stroke-dashoffset" values="8.531;8.531;0" keyTimes="0;0.93;1" dur="1.214s" fill="freeze" begin="0s;8896.click" /></path><path d="M35.08,60c3.5,2.18,6,4.19,9,8" stroke-dasharray="12.115" stroke-dashoffset="12.115"><animate attributeName="stroke-dashoffset" values="12.115" fill="freeze" begin="8896.click" /><animate attributeName="stroke-dashoffset" values="12.115;12.115;0" keyTimes="0;0.909;1" dur="1.335s" fill="freeze" begin="0s;8896.click" /></path></g><g><g p5:partial xmlns:p5="http://kanjivg.tagaini.net"><path d="M50.5,47.33c1.02,1.02,1.38,2.12,1.5,3.15c1.2,10.31,2.32,20.21,3.68,33.01c0.34,3.21,0.7,6.6,1.08,10.22" stroke-dasharray="47.053" stroke-dashoffset="47.053"><animate attributeName="stroke-dashoffset" values="47.053" fill="freeze" begin="8896.click" /><animate attributeName="stroke-dashoffset" values="47.053;47.053;0" keyTimes="0;0.739;1" dur="1.806s" fill="freeze" begin="0s;8896.click" /></path><path d="M52.52,49.6c14.83-1.89,28.85-3.48,37.48-4.34c4.04-0.4,5.43,1.79,5.13,5.5c-0.7,8.82-2.13,26.37-4.12,40.07" stroke-dasharray="87.068" stroke-dashoffset="87.068"><animate attributeName="stroke-dashoffset" values="87.068" fill="freeze" begin="8896.click" /><animate attributeName="stroke-dashoffset" values="87.068;87.068;0" keyTimes="0;0.734;1" dur="2.461s" fill="freeze" begin="0s;8896.click" /></path></g><g><path d="M70.86,15.86c1.33,1.33,1.85,2.77,1.85,4.1c0,14.16-0.04,64.55-0.04,68.58" stroke-dasharray="73.2" stroke-dashoffset="73.2"><animate attributeName="stroke-dashoffset" values="73.2" fill="freeze" begin="8896.click" /><animate attributeName="stroke-dashoffset" values="73.2;73.2;0" keyTimes="0;0.817;1" dur="3.011s" fill="freeze" begin="0s;8896.click" /></path></g><g p5:partial xmlns:p5="http://kanjivg.tagaini.net"><path d="M55.04,68.87c13.09-1.74,23.84-2.49,37.97-3.53" stroke-dasharray="38.141" stroke-dashoffset="38.141"><animate attributeName="stroke-dashoffset" values="38.141" fill="freeze" begin="8896.click" /><animate attributeName="stroke-dashoffset" values="38.141;38.141;0" keyTimes="0;0.888;1" dur="3.392s" fill="freeze" begin="0s;8896.click" /></path><path d="M57.36,90.61c13.52-0.98,21.68-1.8,33-2.02" stroke-dasharray="33.068" stroke-dashoffset="33.068"><animate attributeName="stroke-dashoffset" values="33.068" fill="freeze" begin="8896.click" /><animate attributeName="stroke-dashoffset" values="33.068;33.068;0" keyTimes="0;0.911;1" dur="3.723s" fill="freeze" begin="0s;8896.click" /></path></g></g></g></g></svg>