<svg xmlns="http://www.w3.org/2000/svg" width="109" height="109" viewBox="0 0 109 109" id="88fe"><g fill="none" stroke="#666" stroke-width="9" stroke-linecap="round" stroke-linejoin="round"><g><g><path d="M23.58,14.5c2.65,2.18,6.05,5.5,7.75,9.25" /><path d="M13.7,34.11c2.26,0.76,4.52,0.81,6.78,0.18c4.98-1.16,14.55-3.79,16.37-4.31c2.74-0.78,4.38,1.14,2.92,3.36C32.06,45.04,21.73,58.4,10.5,67.25" /><path d="M28.5,51.36c0.94,0.94,1.27,2.14,1.27,3.64c0,6.75,0.03,24.93,0.05,34.75c0,3.19,0.01,5.5,0.01,6.25" /><path d="M42,45.64c0.08,1.21-0.24,2.26-0.97,3.13c-1.29,1.81-3.42,4.15-5.54,6.1" /><path d="M33.08,56.25C37,58.89,41.5,64,43.08,67" /></g><g><g><path d="M50.09,21.23c2.08,0.8,4.17,1.03,6.3,0.78c8.61-1.01,23-2.98,28.85-3.67c2.85-0.34,4.65,1.47,3.87,4.32c-0.94,3.46-1.6,6.15-2.57,10.91" /><path d="M54.04,38.94c6.09-0.57,18.25-2.13,27.96-3.07c2.5-0.24,4.75-0.45,6.56-0.6" /><path d="M52.63,22.54c0.67,0.67,0.84,1.68,0.82,3.33c-0.32,25.63-3.19,50.01-15.14,63.19" /></g><g><g><path d="M54.32,58.65c2.51,0.75,4.94,0.11,7.57-0.31c8.25-1.3,20.61-2.9,28.34-3.44c2.23-0.31,4.46-0.29,6.67,0.06" /><path d="M70.97,42.69c0.98,0.98,1.66,2.31,1.66,4.14c0,11.68,0.12,20.05,0.12,25.54" /></g><g><path d="M57.2,74.74c1.09,1.09,1.53,2.36,1.76,3.64c0.79,4.37,2.23,11.02,2.96,17.12" /><path d="M58.86,75.52c6.52-1.02,20.52-2.95,27.01-3.65c3.38-0.37,4.88,0.78,4.21,3.78c-0.9,4.06-1.97,9.57-2.86,14.5" /><path d="M62.26,93.23c5.12-0.48,14.45-1.29,21.73-1.92c1.96-0.17,3.7-0.3,5.05-0.39" /></g></g></g></g></g><g fill="none" stroke="#000" stroke-width="5" stroke-linecap="round" stroke-linejoin="round"><g><g><path d="M23.58,14.5c2.65,2.18,6.05,5.5,7.75,9.25" stroke-dasharray="12.17" stroke-dashoffset="12.17"><animate id="0" attributeName="stroke-dashoffset" values="12.17;0" dur="0.12s" fill="freeze" begin="0s;88fe.click" /></path><path d="M13.7,34.11c2.26,0.76,4.52,0.81,6.78,0.18c4.98-1.16,14.55-3.79,16.37-4.31c2.74-0.78,4.38,1.14,2.92,3.36C32.06,45.04,21.73,58.4,10.5,67.25" stroke-dasharray="75.07" stroke-dashoffset="75.07"><animate attributeName="stroke-dashoffset" values="75.07" fill="freeze" begin="88fe.click" /><animate id="1" attributeName="stroke-dashoffset" values="75.07;0" dur="0.56s" fill="freeze" begin="0.end" /></path><path d="M28.5,51.36c0.94,0.94,1.27,2.14,1.27,3.64c0,6.75,0.03,24.93,0.05,34.75c0,3.19,0.01,5.5,0.01,6.25" stroke-dasharray="44.96" stroke-dashoffset="44.96"><animate attributeName="stroke-dashoffset" values="44.96" fill="freeze" begin="88fe.click" /><animate id="2" attributeName="stroke-dashoffset" values="44.96;0" dur="0.45s" fill="freeze" begin="1.end" /></path><path d="M42,45.64c0.08,1.21-0.24,2.26-0.97,3.13c-1.29,1.81-3.42,4.15-5.54,6.1" stroke-dasharray="11.62" stroke-dashoffset="11.62"><animate attributeName="stroke-dashoffset" values="11.62" fill="freeze" begin="88fe.click" /><animate id="3" attributeName="stroke-dashoffset" values="11.62;0" dur="0.12s" fill="freeze" begin="2.end" /></path><path d="M33.08,56.25C37,58.89,41.5,64,43.08,67" stroke-dasharray="14.79" stroke-dashoffset="14.79"><animate attributeName="stroke-dashoffset" values="14.79" fill="freeze" begin="88fe.click" /><animate id="4" attributeName="stroke-dashoffset" values="14.79;0" dur="0.15s" fill="freeze" begin="3.end" /></path></g><g><g><path d="M50.09,21.23c2.08,0.8,4.17,1.03,6.3,0.78c8.61-1.01,23-2.98,28.85-3.67c2.85-0.34,4.65,1.47,3.87,4.32c-0.94,3.46-1.6,6.15-2.57,10.91" stroke-dasharray="53.83" stroke-dashoffset="53.83"><animate attributeName="stroke-dashoffset" values="53.83" fill="freeze" begin="88fe.click" /><animate id="5" attributeName="stroke-dashoffset" values="53.83;0" dur="0.54s" fill="freeze" begin="4.end" /></path><path d="M54.04,38.94c6.09-0.57,18.25-2.13,27.96-3.07c2.5-0.24,4.75-0.45,6.56-0.6" stroke-dasharray="34.72" stroke-dashoffset="34.72"><animate attributeName="stroke-dashoffset" values="34.72" fill="freeze" begin="88fe.click" /><animate id="6" attributeName="stroke-dashoffset" values="34.72;0" dur="0.35s" fill="freeze" begin="5.end" /></path><path d="M52.63,22.54c0.67,0.67,0.84,1.68,0.82,3.33c-0.32,25.63-3.19,50.01-15.14,63.19" stroke-dasharray="69.78" stroke-dashoffset="69.78"><animate attributeName="stroke-dashoffset" values="69.78" fill="freeze" begin="88fe.click" /><animate id="7" attributeName="stroke-dashoffset" values="69.78;0" dur="0.52s" fill="freeze" begin="6.end" /></path></g><g><g><path d="M54.32,58.65c2.51,0.75,4.94,0.11,7.57-0.31c8.25-1.3,20.61-2.9,28.34-3.44c2.23-0.31,4.46-0.29,6.67,0.06" stroke-dasharray="42.9" stroke-dashoffset="42.9"><animate attributeName="stroke-dashoffset" values="42.9" fill="freeze" begin="88fe.click" /><animate id="8" attributeName="stroke-dashoffset" values="42.9;0" dur="0.43s" fill="freeze" begin="7.end" /></path><path d="M70.97,42.69c0.98,0.98,1.66,2.31,1.66,4.14c0,11.68,0.12,20.05,0.12,25.54" stroke-dasharray="30.12" stroke-dashoffset="30.12"><animate attributeName="stroke-dashoffset" values="30.12" fill="freeze" begin="88fe.click" /><animate id="9" attributeName="stroke-dashoffset" values="30.12;0" dur="0.3s" fill="freeze" begin="8.end" /></path></g><g><path d="M57.2,74.74c1.09,1.09,1.53,2.36,1.76,3.64c0.79,4.37,2.23,11.02,2.96,17.12" stroke-dasharray="21.49" stroke-dashoffset="21.49"><animate attributeName="stroke-dashoffset" values="21.49" fill="freeze" begin="88fe.click" /><animate id="10" attributeName="stroke-dashoffset" values="21.49;0" dur="0.21s" fill="freeze" begin="9.end" /></path><path d="M58.86,75.52c6.52-1.02,20.52-2.95,27.01-3.65c3.38-0.37,4.88,0.78,4.21,3.78c-0.9,4.06-1.97,9.57-2.86,14.5" stroke-dasharray="49.19" stroke-dashoffset="49.19"><animate attributeName="stroke-dashoffset" values="49.19" fill="freeze" begin="88fe.click" /><animate id="11" attributeName="stroke-dashoffset" values="49.19;0" dur="0.49s" fill="freeze" begin="10.end" /></path><path d="M62.26,93.23c5.12-0.48,14.45-1.29,21.73-1.92c1.96-0.17,3.7-0.3,5.05-0.39" stroke-dasharray="26.88" stroke-dashoffset="26.88"><animate attributeName="stroke-dashoffset" values="26.88" fill="freeze" begin="88fe.click" /><animate id="12" attributeName="stroke-dashoffset" values="26.88;0" dur="0.27s" fill="freeze" begin="11.end" /></path></g></g></g></g></g></svg>