<svg xmlns="http://www.w3.org/2000/svg" width="109" height="109" viewBox="0 0 109 109" id="891d"><g fill="none" stroke="#666" stroke-width="9" stroke-linecap="round" stroke-linejoin="round"><g><g><path d="M21.83,10c3.41,2.29,7.07,5.74,10,9.75" /><path d="M9.2,33.36c0.94,0.39,2.38,0.93,3.96,0.61c3.59-0.72,20.37-4.33,22.69-4.99c2.33-0.66,3.58,0.83,2.26,2.85C30.36,43.65,21.4,55.02,10,64" /><path d="M28,49.11c0.12,0.29,1.65,1.53,1.77,3.39c0.57,8.93,0.06,40.7,0.06,43.75" /><path d="M42.25,42.39c0.2,0.85,0.4,1.08,0,1.7c-1.2,1.87-4.9,6.45-7.3,8.66" /><path d="M32.58,53.25c3.59,2.18,7.43,5.44,10.5,9.25" /></g><g><g><path d="M49.55,13.03c3.07,4.03,6.36,11.09,6.8,13.11" /><path d="M64.27,8.14c1.7,2.81,5.79,10.19,6.47,14.75" /><path d="M89.17,10.41c0.59,0.86,1.19,1.73,0.89,3.45c-0.29,1.73-6.83,9.79-8.91,12.38" /></g><g p5:part="1" xmlns:p5="http://kanjivg.tagaini.net"><g p5:partial><path d="M51.95,34.48c0.27,0.46,0.28,0.78,0.43,1.36c1.24,4.77,3.42,16.78,4.2,25.64" /><path d="M53.23,35.82c10.32-1.6,28.27-3.22,35.37-4.04c2.61-0.3,4.19,0.65,4.11,2.66c-0.18,4.78-4.48,21.02-4.94,23.01" /><path d="M55.8,47c3.1-0.38,32.38-4.17,34.94-4.29" /><path d="M57.06,59.29c8.99-1.52,20.96-2.34,30.79-3.28" /></g><g><path d="M45.92,75.04c1.38,0.52,3.92,0.73,5.29,0.52c10.72-1.65,29.09-3.75,43.8-5.12c2.28-0.21,3.68,0.25,4.83,0.51" /></g><g p5:part="2"><g><path d="M71.02,35.56c0.52,0.35,0.84,1.32,0.85,2.5c0.03,6,0.15,59.84,0.17,61.79" /></g></g></g></g></g></g><g fill="none" stroke="#000" stroke-width="5" stroke-linecap="round" stroke-linejoin="round"><g><g><path d="M21.83,10c3.41,2.29,7.07,5.74,10,9.75" stroke-dasharray="14.03" stroke-dashoffset="14.03"><animate id="0" attributeName="stroke-dashoffset" values="14.03;0" dur="0.14s" fill="freeze" begin="0s;891d.click" /></path><path d="M9.2,33.36c0.94,0.39,2.38,0.93,3.96,0.61c3.59-0.72,20.37-4.33,22.69-4.99c2.33-0.66,3.58,0.83,2.26,2.85C30.36,43.65,21.4,55.02,10,64" stroke-dasharray="75.5" stroke-dashoffset="75.5"><animate attributeName="stroke-dashoffset" values="75.5" fill="freeze" begin="891d.click" /><animate id="1" attributeName="stroke-dashoffset" values="75.5;0" dur="0.57s" fill="freeze" begin="0.end" /></path><path d="M28,49.11c0.12,0.29,1.65,1.53,1.77,3.39c0.57,8.93,0.06,40.7,0.06,43.75" stroke-dasharray="47.66" stroke-dashoffset="47.66"><animate attributeName="stroke-dashoffset" values="47.66" fill="freeze" begin="891d.click" /><animate id="2" attributeName="stroke-dashoffset" values="47.66;0" dur="0.48s" fill="freeze" begin="1.end" /></path><path d="M42.25,42.39c0.2,0.85,0.4,1.08,0,1.7c-1.2,1.87-4.9,6.45-7.3,8.66" stroke-dasharray="13.12" stroke-dashoffset="13.12"><animate attributeName="stroke-dashoffset" values="13.12" fill="freeze" begin="891d.click" /><animate id="3" attributeName="stroke-dashoffset" values="13.12;0" dur="0.13s" fill="freeze" begin="2.end" /></path><path d="M32.58,53.25c3.59,2.18,7.43,5.44,10.5,9.25" stroke-dasharray="14.06" stroke-dashoffset="14.06"><animate attributeName="stroke-dashoffset" values="14.06" fill="freeze" begin="891d.click" /><animate id="4" attributeName="stroke-dashoffset" values="14.06;0" dur="0.14s" fill="freeze" begin="3.end" /></path></g><g><g><path d="M49.55,13.03c3.07,4.03,6.36,11.09,6.8,13.11" stroke-dasharray="14.83" stroke-dashoffset="14.83"><animate attributeName="stroke-dashoffset" values="14.83" fill="freeze" begin="891d.click" /><animate id="5" attributeName="stroke-dashoffset" values="14.83;0" dur="0.15s" fill="freeze" begin="4.end" /></path><path d="M64.27,8.14c1.7,2.81,5.79,10.19,6.47,14.75" stroke-dasharray="16.18" stroke-dashoffset="16.18"><animate attributeName="stroke-dashoffset" values="16.18" fill="freeze" begin="891d.click" /><animate id="6" attributeName="stroke-dashoffset" values="16.18;0" dur="0.16s" fill="freeze" begin="5.end" /></path><path d="M89.17,10.41c0.59,0.86,1.19,1.73,0.89,3.45c-0.29,1.73-6.83,9.79-8.91,12.38" stroke-dasharray="18.98" stroke-dashoffset="18.98"><animate attributeName="stroke-dashoffset" values="18.98" fill="freeze" begin="891d.click" /><animate id="7" attributeName="stroke-dashoffset" values="18.98;0" dur="0.19s" fill="freeze" begin="6.end" /></path></g><g p5:part="1" xmlns:p5="http://kanjivg.tagaini.net"><g p5:partial><path d="M51.95,34.48c0.27,0.46,0.28,0.78,0.43,1.36c1.24,4.77,3.42,16.78,4.2,25.64" stroke-dasharray="27.44" stroke-dashoffset="27.44"><animate attributeName="stroke-dashoffset" values="27.44" fill="freeze" begin="891d.click" /><animate id="8" attributeName="stroke-dashoffset" values="27.44;0" dur="0.27s" fill="freeze" begin="7.end" /></path><path d="M53.23,35.82c10.32-1.6,28.27-3.22,35.37-4.04c2.61-0.3,4.19,0.65,4.11,2.66c-0.18,4.78-4.48,21.02-4.94,23.01" stroke-dasharray="64.87" stroke-dashoffset="64.87"><animate attributeName="stroke-dashoffset" values="64.87" fill="freeze" begin="891d.click" /><animate id="9" attributeName="stroke-dashoffset" values="64.87;0" dur="0.49s" fill="freeze" begin="8.end" /></path><path d="M55.8,47c3.1-0.38,32.38-4.17,34.94-4.29" stroke-dasharray="35.2" stroke-dashoffset="35.2"><animate attributeName="stroke-dashoffset" values="35.2" fill="freeze" begin="891d.click" /><animate id="10" attributeName="stroke-dashoffset" values="35.2;0" dur="0.35s" fill="freeze" begin="9.end" /></path><path d="M57.06,59.29c8.99-1.52,20.96-2.34,30.79-3.28" stroke-dasharray="30.97" stroke-dashoffset="30.97"><animate attributeName="stroke-dashoffset" values="30.97" fill="freeze" begin="891d.click" /><animate id="11" attributeName="stroke-dashoffset" values="30.97;0" dur="0.31s" fill="freeze" begin="10.end" /></path></g><g><path d="M45.92,75.04c1.38,0.52,3.92,0.73,5.29,0.52c10.72-1.65,29.09-3.75,43.8-5.12c2.28-0.21,3.68,0.25,4.83,0.51" stroke-dasharray="54.34" stroke-dashoffset="54.34"><animate attributeName="stroke-dashoffset" values="54.34" fill="freeze" begin="891d.click" /><animate id="12" attributeName="stroke-dashoffset" values="54.34;0" dur="0.54s" fill="freeze" begin="11.end" /></path></g><g p5:part="2"><g><path d="M71.02,35.56c0.52,0.35,0.84,1.32,0.85,2.5c0.03,6,0.15,59.84,0.17,61.79" stroke-dasharray="64.52" stroke-dashoffset="64.52"><animate attributeName="stroke-dashoffset" values="64.52" fill="freeze" begin="891d.click" /><animate id="13" attributeName="stroke-dashoffset" values="64.52;0" dur="0.49s" fill="freeze" begin="12.end" /></path></g></g></g></g></g></g></svg>