<svg xmlns="http://www.w3.org/2000/svg" width="109" height="109" viewBox="0 0 109 109" id="8943"><g fill="none" stroke="#666" stroke-width="9" stroke-linecap="round" stroke-linejoin="round"><g><g p4:part="1" xmlns:p4="http://kanjivg.tagaini.net"><g><path d="M52.29,9.75c0.66,0.35,1.75,1.59,1.75,2.42c0,1.35-0.09,5.27-0.09,6.76" /><path d="M23.5,20.75c1.42,0.06,4.64,0.43,6.02,0.33C44.5,20,65.5,18,80.26,17.24c2.33-0.12,3.52,0.03,5.26,0.43" /></g></g><g><g><path d="M36.96,26c0.03,0.25,0.11,0.71-0.06,0.99c-2.06,3.46-5.15,6.51-10.46,9.43" /><path d="M23.3,35.97c0.9,0.41,1.44,1.86,1.62,2.69c0.18,0.83,0.08,20.59-0.17,28.59" /><path d="M25.6,45.37c3.4-0.41,7.25-1.17,10.15-1.65c1.51-0.25,2.77-0.42,3.57-0.42" /><path d="M25.22,60.96c4.14-0.33,7.29-1.07,10.62-1.47c1.36-0.16,2.58-0.27,3.61-0.27" /></g><g><g><path d="M52.35,26.85c0.31,0.25,0.64,0.46,0.78,0.78c1.09,2.5,2.31,8.04,3.06,12.52" /><path d="M53.86,28.5c8.34-0.76,21.8-2.93,25.49-3.26c1.35-0.12,2.16,0.71,1.97,1.42c-0.8,2.92-2.14,5.61-3.32,9.65" /><path d="M56.83,38.55c4.33-0.37,17.36-1.81,23.31-2.38" /></g><g><path d="M46.74,47.02c1.42,0,3.56,0.33,5.44,0.21c8.59-0.54,22.45-2.41,35.47-3.45c1.88-0.15,2.37-0.21,3.55,0" /><path d="M66.76,39.23c0.9,0.3,1.62,1.96,1.62,2.58c0,4.25,0,19.13-0.18,22.93" /><path d="M64.26,46.39c0.05,0.36,0.1,0.93-0.1,1.45c-1.17,3.06-7.9,9.77-17.1,13.87" /><path d="M72.02,49.33c5.75,1.74,14.85,7.17,16.29,9.88" /></g></g><g p5:part="2" xmlns:p5="http://kanjivg.tagaini.net"><path d="M49.93,63.66c0.09,0.57,0.35,1.52-0.17,2.29c-3.37,4.98-17.5,15.8-31.2,21.94" /><path d="M39.22,80.17c0.45,0.31,0.94,1.62,0.94,2.16c-0.03,6.85-0.3,12.67-0.3,13.83c0,1.16,1.11,1.82,2.52,0.95c1.41-0.87,9.63-6.86,17.34-11.24" /><path d="M78.96,67.12c0.03,0.26,0.35,1.27,0.15,1.62c-1.23,2.17-5.07,5.28-11.34,9.61" /><path d="M55.04,70.33c1.66,0.79,4.3,3.04,4.76,3.37c6.76,5,23.21,17.77,27.78,20.72c1.72,1.11,3.19,1.59,4.92,1.9" /></g></g></g></g><g fill="none" stroke="#000" stroke-width="5" stroke-linecap="round" stroke-linejoin="round"><g><g p4:part="1" xmlns:p4="http://kanjivg.tagaini.net"><g><path d="M52.29,9.75c0.66,0.35,1.75,1.59,1.75,2.42c0,1.35-0.09,5.27-0.09,6.76" stroke-dasharray="9.84" stroke-dashoffset="9.84"><animate id="0" attributeName="stroke-dashoffset" values="9.84;0" dur="0.1s" fill="freeze" begin="0s;8943.click" /></path><path d="M23.5,20.75c1.42,0.06,4.64,0.43,6.02,0.33C44.5,20,65.5,18,80.26,17.24c2.33-0.12,3.52,0.03,5.26,0.43" stroke-dasharray="62.22" stroke-dashoffset="62.22"><animate attributeName="stroke-dashoffset" values="62.22" fill="freeze" begin="8943.click" /><animate id="1" attributeName="stroke-dashoffset" values="62.22;0" dur="0.47s" fill="freeze" begin="0.end" /></path></g></g><g><g><path d="M36.96,26c0.03,0.25,0.11,0.71-0.06,0.99c-2.06,3.46-5.15,6.51-10.46,9.43" stroke-dasharray="15.27" stroke-dashoffset="15.27"><animate attributeName="stroke-dashoffset" values="15.27" fill="freeze" begin="8943.click" /><animate id="2" attributeName="stroke-dashoffset" values="15.27;0" dur="0.15s" fill="freeze" begin="1.end" /></path><path d="M23.3,35.97c0.9,0.41,1.44,1.86,1.62,2.69c0.18,0.83,0.08,20.59-0.17,28.59" stroke-dasharray="31.83" stroke-dashoffset="31.83"><animate attributeName="stroke-dashoffset" values="31.83" fill="freeze" begin="8943.click" /><animate id="3" attributeName="stroke-dashoffset" values="31.83;0" dur="0.32s" fill="freeze" begin="2.end" /></path><path d="M25.6,45.37c3.4-0.41,7.25-1.17,10.15-1.65c1.51-0.25,2.77-0.42,3.57-0.42" stroke-dasharray="13.88" stroke-dashoffset="13.88"><animate attributeName="stroke-dashoffset" values="13.88" fill="freeze" begin="8943.click" /><animate id="4" attributeName="stroke-dashoffset" values="13.88;0" dur="0.14s" fill="freeze" begin="3.end" /></path><path d="M25.22,60.96c4.14-0.33,7.29-1.07,10.62-1.47c1.36-0.16,2.58-0.27,3.61-0.27" stroke-dasharray="14.35" stroke-dashoffset="14.35"><animate attributeName="stroke-dashoffset" values="14.35" fill="freeze" begin="8943.click" /><animate id="5" attributeName="stroke-dashoffset" values="14.35;0" dur="0.14s" fill="freeze" begin="4.end" /></path></g><g><g><path d="M52.35,26.85c0.31,0.25,0.64,0.46,0.78,0.78c1.09,2.5,2.31,8.04,3.06,12.52" stroke-dasharray="14.02" stroke-dashoffset="14.02"><animate attributeName="stroke-dashoffset" values="14.02" fill="freeze" begin="8943.click" /><animate id="6" attributeName="stroke-dashoffset" values="14.02;0" dur="0.14s" fill="freeze" begin="5.end" /></path><path d="M53.86,28.5c8.34-0.76,21.8-2.93,25.49-3.26c1.35-0.12,2.16,0.71,1.97,1.42c-0.8,2.92-2.14,5.61-3.32,9.65" stroke-dasharray="38.72" stroke-dashoffset="38.72"><animate attributeName="stroke-dashoffset" values="38.72" fill="freeze" begin="8943.click" /><animate id="7" attributeName="stroke-dashoffset" values="38.72;0" dur="0.39s" fill="freeze" begin="6.end" /></path><path d="M56.83,38.55c4.33-0.37,17.36-1.81,23.31-2.38" stroke-dasharray="23.43" stroke-dashoffset="23.43"><animate attributeName="stroke-dashoffset" values="23.43" fill="freeze" begin="8943.click" /><animate id="8" attributeName="stroke-dashoffset" values="23.43;0" dur="0.23s" fill="freeze" begin="7.end" /></path></g><g><path d="M46.74,47.02c1.42,0,3.56,0.33,5.44,0.21c8.59-0.54,22.45-2.41,35.47-3.45c1.88-0.15,2.37-0.21,3.55,0" stroke-dasharray="44.65" stroke-dashoffset="44.65"><animate attributeName="stroke-dashoffset" values="44.65" fill="freeze" begin="8943.click" /><animate id="9" attributeName="stroke-dashoffset" values="44.65;0" dur="0.45s" fill="freeze" begin="8.end" /></path><path d="M66.76,39.23c0.9,0.3,1.62,1.96,1.62,2.58c0,4.25,0,19.13-0.18,22.93" stroke-dasharray="26.1" stroke-dashoffset="26.1"><animate attributeName="stroke-dashoffset" values="26.1" fill="freeze" begin="8943.click" /><animate id="10" attributeName="stroke-dashoffset" values="26.1;0" dur="0.26s" fill="freeze" begin="9.end" /></path><path d="M64.26,46.39c0.05,0.36,0.1,0.93-0.1,1.45c-1.17,3.06-7.9,9.77-17.1,13.87" stroke-dasharray="23.84" stroke-dashoffset="23.84"><animate attributeName="stroke-dashoffset" values="23.84" fill="freeze" begin="8943.click" /><animate id="11" attributeName="stroke-dashoffset" values="23.84;0" dur="0.24s" fill="freeze" begin="10.end" /></path><path d="M72.02,49.33c5.75,1.74,14.85,7.17,16.29,9.88" stroke-dasharray="19.28" stroke-dashoffset="19.28"><animate attributeName="stroke-dashoffset" values="19.28" fill="freeze" begin="8943.click" /><animate id="12" attributeName="stroke-dashoffset" values="19.28;0" dur="0.19s" fill="freeze" begin="11.end" /></path></g></g><g p5:part="2" xmlns:p5="http://kanjivg.tagaini.net"><path d="M49.93,63.66c0.09,0.57,0.35,1.52-0.17,2.29c-3.37,4.98-17.5,15.8-31.2,21.94" stroke-dasharray="40.79" stroke-dashoffset="40.79"><animate attributeName="stroke-dashoffset" values="40.79" fill="freeze" begin="8943.click" /><animate id="13" attributeName="stroke-dashoffset" values="40.79;0" dur="0.41s" fill="freeze" begin="12.end" /></path><path d="M39.22,80.17c0.45,0.31,0.94,1.62,0.94,2.16c-0.03,6.85-0.3,12.67-0.3,13.83c0,1.16,1.11,1.82,2.52,0.95c1.41-0.87,9.63-6.86,17.34-11.24" stroke-dasharray="40.32" stroke-dashoffset="40.32"><animate attributeName="stroke-dashoffset" values="40.32" fill="freeze" begin="8943.click" /><animate id="14" attributeName="stroke-dashoffset" values="40.32;0" dur="0.4s" fill="freeze" begin="13.end" /></path><path d="M78.96,67.12c0.03,0.26,0.35,1.27,0.15,1.62c-1.23,2.17-5.07,5.28-11.34,9.61" stroke-dasharray="16.6" stroke-dashoffset="16.6"><animate attributeName="stroke-dashoffset" values="16.6" fill="freeze" begin="8943.click" /><animate id="15" attributeName="stroke-dashoffset" values="16.6;0" dur="0.17s" fill="freeze" begin="14.end" /></path><path d="M55.04,70.33c1.66,0.79,4.3,3.04,4.76,3.37c6.76,5,23.21,17.77,27.78,20.72c1.72,1.11,3.19,1.59,4.92,1.9" stroke-dasharray="45.81" stroke-dashoffset="45.81"><animate attributeName="stroke-dashoffset" values="45.81" fill="freeze" begin="8943.click" /><animate id="16" attributeName="stroke-dashoffset" values="45.81;0" dur="0.46s" fill="freeze" begin="15.end" /></path></g></g></g></g></svg>