<svg xmlns="http://www.w3.org/2000/svg" width="109" height="109" viewBox="0 0 109 109" id="8944"><g fill="none" stroke="#666" stroke-width="9" stroke-linecap="round" stroke-linejoin="round"><g><g p4:part="1" xmlns:p4="http://kanjivg.tagaini.net"><g><path d="M51.89,10.5c0.77,0.39,2.03,1.74,2.03,2.64c0,1.48-0.1,4.76-0.1,6.38" /><path d="M21.25,21.72c1.21,0.08,3.97,0.52,5.15,0.44c13.12-0.92,42.43-3.18,55.35-3.41c2-0.04,3.01,0.04,4.5,0.56" /></g></g><g><path d="M28.25,27.87c0.3,0.21,0.65,0.37,0.75,0.64c1,2.74,1.81,7.27,2.53,10.99" /><path d="M30.14,29.27c6.2-1.08,13.75-1.77,17.3-2.04c1.3-0.1,2.08,0.59,1.89,1.17c-0.77,2.42-1.67,3.83-2.81,7.17" /><path d="M31.67,37.69c4.17-0.31,10.42-1.34,16.15-1.81" /></g><g><path d="M57.75,26.53c0.3,0.19,0.61,0.35,0.75,0.6c1.05,1.91,1.81,7.19,2.53,10.62" /><path d="M59.64,27.83c6.2-1,15.75-2.1,19.3-2.35c1.3-0.09,2.08,0.54,1.89,1.08c-0.77,2.23-2.17,4.43-3.31,7.52" /><path d="M61.17,36.07c4.17-0.28,12.92-1.27,18.65-1.71" /></g><g p4:part="1" xmlns:p4="http://kanjivg.tagaini.net"><g><path d="M26.41,48.69c0.96,0.27,3.73,0.32,4.69,0.27c8.75-0.51,37.88-2.97,47.28-3.56c1.59-0.1,2.55,0.13,3.35,0.26" /></g></g><path d="M41.31,41.44c1.46,0.46,2.13,2.5,2.13,3.46c0,3.1,1.05,13.1,1.05,20.51" /><path d="M65.31,40.75c1.18,0.91,1.09,2,0.96,3.42c-0.52,5.58-0.77,12.33-1.47,19.46" /><g p4:part="2" xmlns:p4="http://kanjivg.tagaini.net"><g><path d="M25.91,57.05c1.11,0.36,4.31,0.44,5.42,0.36c10.11-0.7,34.4-3.52,45.27-4.33c1.84-0.14,2.95,0.17,3.88,0.35" /></g><g><path d="M16.25,67.17c1.62,0.35,4.58,0.49,6.2,0.35c14.8-1.27,47.05-4.27,61.89-4.45c2.69-0.03,4.31,0.17,5.66,0.34" /></g></g><g p4:partial xmlns:p4="http://kanjivg.tagaini.net"><path d="M44.97,67.14c0.09,0.53,0.35,1.4-0.18,2.12c-3.43,4.6-14.58,13-31.74,20.27" /><path d="M38.25,78.15c0.48,0.29,1,1.58,1,2.08c-0.03,6.4-0.32,14.93-0.32,16.02c0,1.08,1.18,1.7,2.68,0.89s12.64-9.39,15.85-11.23" /><path d="M73.93,67.2c0.03,0.24,0.28,1.17,0.12,1.48c-1,1.99-4.14,4.84-9.24,8.81" /><path d="M52.25,71.91c1.65,0.72,4.28,2.74,4.73,3.05c6.73,4.52,23.08,16.06,27.63,18.72c1.71,1,3.18,1.43,4.89,1.72" /></g></g></g><g fill="none" stroke="#000" stroke-width="5" stroke-linecap="round" stroke-linejoin="round"><g><g p4:part="1" xmlns:p4="http://kanjivg.tagaini.net"><g><path d="M51.89,10.5c0.77,0.39,2.03,1.74,2.03,2.64c0,1.48-0.1,4.76-0.1,6.38" stroke-dasharray="9.82" stroke-dashoffset="9.82"><animate id="0" attributeName="stroke-dashoffset" values="9.82;0" dur="0.1s" fill="freeze" begin="0s;8944.click" /></path><path d="M21.25,21.72c1.21,0.08,3.97,0.52,5.15,0.44c13.12-0.92,42.43-3.18,55.35-3.41c2-0.04,3.01,0.04,4.5,0.56" stroke-dasharray="65.2" stroke-dashoffset="65.2"><animate attributeName="stroke-dashoffset" values="65.2" fill="freeze" begin="8944.click" /><animate id="1" attributeName="stroke-dashoffset" values="65.2;0" dur="0.49s" fill="freeze" begin="0.end" /></path></g></g><g><path d="M28.25,27.87c0.3,0.21,0.65,0.37,0.75,0.64c1,2.74,1.81,7.27,2.53,10.99" stroke-dasharray="12.29" stroke-dashoffset="12.29"><animate attributeName="stroke-dashoffset" values="12.29" fill="freeze" begin="8944.click" /><animate id="2" attributeName="stroke-dashoffset" values="12.29;0" dur="0.12s" fill="freeze" begin="1.end" /></path><path d="M30.14,29.27c6.2-1.08,13.75-1.77,17.3-2.04c1.3-0.1,2.08,0.59,1.89,1.17c-0.77,2.42-1.67,3.83-2.81,7.17" stroke-dasharray="27.69" stroke-dashoffset="27.69"><animate attributeName="stroke-dashoffset" values="27.69" fill="freeze" begin="8944.click" /><animate id="3" attributeName="stroke-dashoffset" values="27.69;0" dur="0.28s" fill="freeze" begin="2.end" /></path><path d="M31.67,37.69c4.17-0.31,10.42-1.34,16.15-1.81" stroke-dasharray="16.25" stroke-dashoffset="16.25"><animate attributeName="stroke-dashoffset" values="16.25" fill="freeze" begin="8944.click" /><animate id="4" attributeName="stroke-dashoffset" values="16.25;0" dur="0.16s" fill="freeze" begin="3.end" /></path></g><g><path d="M57.75,26.53c0.3,0.19,0.61,0.35,0.75,0.6c1.05,1.91,1.81,7.19,2.53,10.62" stroke-dasharray="11.91" stroke-dashoffset="11.91"><animate attributeName="stroke-dashoffset" values="11.91" fill="freeze" begin="8944.click" /><animate id="5" attributeName="stroke-dashoffset" values="11.91;0" dur="0.12s" fill="freeze" begin="4.end" /></path><path d="M59.64,27.83c6.2-1,15.75-2.1,19.3-2.35c1.3-0.09,2.08,0.54,1.89,1.08c-0.77,2.23-2.17,4.43-3.31,7.52" stroke-dasharray="30.16" stroke-dashoffset="30.16"><animate attributeName="stroke-dashoffset" values="30.16" fill="freeze" begin="8944.click" /><animate id="6" attributeName="stroke-dashoffset" values="30.16;0" dur="0.3s" fill="freeze" begin="5.end" /></path><path d="M61.17,36.07c4.17-0.28,12.92-1.27,18.65-1.71" stroke-dasharray="18.73" stroke-dashoffset="18.73"><animate attributeName="stroke-dashoffset" values="18.73" fill="freeze" begin="8944.click" /><animate id="7" attributeName="stroke-dashoffset" values="18.73;0" dur="0.19s" fill="freeze" begin="6.end" /></path></g><g p4:part="1" xmlns:p4="http://kanjivg.tagaini.net"><g><path d="M26.41,48.69c0.96,0.27,3.73,0.32,4.69,0.27c8.75-0.51,37.88-2.97,47.28-3.56c1.59-0.1,2.55,0.13,3.35,0.26" stroke-dasharray="55.49" stroke-dashoffset="55.49"><animate attributeName="stroke-dashoffset" values="55.49" fill="freeze" begin="8944.click" /><animate id="8" attributeName="stroke-dashoffset" values="55.49;0" dur="0.55s" fill="freeze" begin="7.end" /></path></g></g><path d="M41.31,41.44c1.46,0.46,2.13,2.5,2.13,3.46c0,3.1,1.05,13.1,1.05,20.51" stroke-dasharray="24.83" stroke-dashoffset="24.83"><animate attributeName="stroke-dashoffset" values="24.83" fill="freeze" begin="8944.click" /><animate id="9" attributeName="stroke-dashoffset" values="24.83;0" dur="0.25s" fill="freeze" begin="8.end" /></path><path d="M65.31,40.75c1.18,0.91,1.09,2,0.96,3.42c-0.52,5.58-0.77,12.33-1.47,19.46" stroke-dasharray="23.27" stroke-dashoffset="23.27"><animate attributeName="stroke-dashoffset" values="23.27" fill="freeze" begin="8944.click" /><animate id="10" attributeName="stroke-dashoffset" values="23.27;0" dur="0.23s" fill="freeze" begin="9.end" /></path><g p4:part="2" xmlns:p4="http://kanjivg.tagaini.net"><g><path d="M25.91,57.05c1.11,0.36,4.31,0.44,5.42,0.36c10.11-0.7,34.4-3.52,45.27-4.33c1.84-0.14,2.95,0.17,3.88,0.35" stroke-dasharray="54.84" stroke-dashoffset="54.84"><animate attributeName="stroke-dashoffset" values="54.84" fill="freeze" begin="8944.click" /><animate id="11" attributeName="stroke-dashoffset" values="54.84;0" dur="0.55s" fill="freeze" begin="10.end" /></path></g><g><path d="M16.25,67.17c1.62,0.35,4.58,0.49,6.2,0.35c14.8-1.27,47.05-4.27,61.89-4.45c2.69-0.03,4.31,0.17,5.66,0.34" stroke-dasharray="73.96" stroke-dashoffset="73.96"><animate attributeName="stroke-dashoffset" values="73.96" fill="freeze" begin="8944.click" /><animate id="12" attributeName="stroke-dashoffset" values="73.96;0" dur="0.56s" fill="freeze" begin="11.end" /></path></g></g><g p4:partial xmlns:p4="http://kanjivg.tagaini.net"><path d="M44.97,67.14c0.09,0.53,0.35,1.4-0.18,2.12c-3.43,4.6-14.58,13-31.74,20.27" stroke-dasharray="40.16" stroke-dashoffset="40.16"><animate attributeName="stroke-dashoffset" values="40.16" fill="freeze" begin="8944.click" /><animate id="13" attributeName="stroke-dashoffset" values="40.16;0" dur="0.4s" fill="freeze" begin="12.end" /></path><path d="M38.25,78.15c0.48,0.29,1,1.58,1,2.08c-0.03,6.4-0.32,14.93-0.32,16.02c0,1.08,1.18,1.7,2.68,0.89s12.64-9.39,15.85-11.23" stroke-dasharray="41.28" stroke-dashoffset="41.28"><animate attributeName="stroke-dashoffset" values="41.28" fill="freeze" begin="8944.click" /><animate id="14" attributeName="stroke-dashoffset" values="41.28;0" dur="0.41s" fill="freeze" begin="13.end" /></path><path d="M73.93,67.2c0.03,0.24,0.28,1.17,0.12,1.48c-1,1.99-4.14,4.84-9.24,8.81" stroke-dasharray="14.34" stroke-dashoffset="14.34"><animate attributeName="stroke-dashoffset" values="14.34" fill="freeze" begin="8944.click" /><animate id="15" attributeName="stroke-dashoffset" values="14.34;0" dur="0.14s" fill="freeze" begin="14.end" /></path><path d="M52.25,71.91c1.65,0.72,4.28,2.74,4.73,3.05c6.73,4.52,23.08,16.06,27.63,18.72c1.71,1,3.18,1.43,4.89,1.72" stroke-dasharray="44.23" stroke-dashoffset="44.23"><animate attributeName="stroke-dashoffset" values="44.23" fill="freeze" begin="8944.click" /><animate id="16" attributeName="stroke-dashoffset" values="44.23;0" dur="0.44s" fill="freeze" begin="15.end" /></path></g></g></g></svg>