<svg xmlns="http://www.w3.org/2000/svg" viewBox="0 0 109 109" id="894c"><g fill="none" stroke="#666" stroke-width="6" stroke-linecap="round" stroke-linejoin="round"><g><g><path d="M19.83,12c3.93,2.41,8.14,6.03,11.5,10.25" /><path d="M11.7,34.36c0.94,0.39,3.36,0.33,4.96,0.11C20,34,32.52,30.13,34.85,29.47c2.33-0.66,4.58,0.83,3.26,2.85C30.36,44.15,23.75,57,12,67.5" /><path d="M26.5,50.61c0.12,0.29,1.65,1.53,1.77,3.39c0.57,8.93,0.06,39.7,0.06,42.75" /><path d="M41.25,45.39c0.2,0.85,0.4,1.08,0,1.7c-1.2,1.87-4.9,6.45-7.3,8.66" /><path d="M31.33,55.25c3.5,2.65,7.25,6.62,10.25,11.25" /></g><g><g><g><path d="M47,16.06c0.31,0.29,0.66,0.51,0.75,0.89c0.87,3.3,2.47,8.92,3.34,13.77" /><path d="M48.91,17.62c5.65-0.7,10.52-1.71,15.73-2.42c1.31-0.17,2.1,0.81,1.91,1.62c-0.78,3.34-1.07,4.86-2.46,10.41" /><path d="M51.74,29.43c4.22-0.42,8.27-1.13,14.06-1.79" /></g><g><path d="M72.79,14.7c0.27,0.31,1.07,1.45,1.15,1.86c0.77,3.57,1.13,7.6,1.91,12.85" /><path d="M74.19,15.99c6.38-0.83,13.55-1.86,18.16-2.62c1.16-0.19,1.85,0.88,1.69,1.75c-0.69,3.61-2.49,6.96-3.4,10.86" /><path d="M75.64,27.53c4.9-0.29,9.81-0.96,17.03-1.08" /></g></g><g><g><g p7:partial xmlns:p7="http://kanjivg.tagaini.net"><path d="M49.77,38.46c0.29,0.56,0.82,1.53,0.98,2.23c1.3,5.74,2.96,16.77,3.78,27.41" /><path d="M51.64,40.63c10.86-1.92,28.79-3.94,36.26-4.92c2.75-0.36,4.41,0.78,4.32,3.19c-0.19,5.74-3.13,24.03-3.62,26.43" /><path d="M53.29,52.87c3.26-0.46,32.85-3.72,37.39-3.4" /><path d="M54.93,66.35c11.2-1.54,23.42-2.19,33.76-3.31" /></g></g><g><path d="M44.44,79.38c1.2,0.51,3.41,0.6,4.62,0.51c6.69-0.46,31.02-3.27,46.04-3.97c2.01-0.09,3.21,0.25,4.22,0.5" /></g><g><g><path d="M69.39,39.99c0.53,0.36,0.86,1.36,0.87,2.58c0.03,6.19,0.16,55.42,0.17,57.44" /></g></g></g></g></g></g><g fill="none" stroke="#000" stroke-width="3" stroke-linecap="round" stroke-linejoin="round"><path d="M19.83,12c3.93,2.41,8.14,6.03,11.5,10.25" stroke-dasharray="15.48" stroke-dashoffset="15.48"><animate attributeName="stroke-dashoffset" values="15.48;15.48;0" dur="0.155s" fill="freeze" begin="0s;894c.click" /></path><path d="M11.7,34.36c0.94,0.39,3.36,0.33,4.96,0.11C20,34,32.52,30.13,34.85,29.47c2.33-0.66,4.58,0.83,3.26,2.85C30.36,44.15,23.75,57,12,67.5" stroke-dasharray="73.7" stroke-dashoffset="73.7"><animate attributeName="stroke-dashoffset" values="73.7" fill="freeze" begin="894c.click" /><animate attributeName="stroke-dashoffset" values="73.7;73.7;0" keyTimes="0;0.219;1" dur="0.709s" fill="freeze" begin="0s;894c.click" /></path><path d="M26.5,50.61c0.12,0.29,1.65,1.53,1.77,3.39c0.57,8.93,0.06,39.7,0.06,42.75" stroke-dasharray="46.656" stroke-dashoffset="46.656"><animate attributeName="stroke-dashoffset" values="46.656" fill="freeze" begin="894c.click" /><animate attributeName="stroke-dashoffset" values="46.656;46.656;0" keyTimes="0;0.603;1" dur="1.176s" fill="freeze" begin="0s;894c.click" /></path><path d="M41.25,45.39c0.2,0.85,0.4,1.08,0,1.7c-1.2,1.87-4.9,6.45-7.3,8.66" stroke-dasharray="13.123" stroke-dashoffset="13.123"><animate attributeName="stroke-dashoffset" values="13.123" fill="freeze" begin="894c.click" /><animate attributeName="stroke-dashoffset" values="13.123;13.123;0" keyTimes="0;0.9;1" dur="1.307s" fill="freeze" begin="0s;894c.click" /></path><path d="M31.33,55.25c3.5,2.65,7.25,6.62,10.25,11.25" stroke-dasharray="15.293" stroke-dashoffset="15.293"><animate attributeName="stroke-dashoffset" values="15.293" fill="freeze" begin="894c.click" /><animate attributeName="stroke-dashoffset" values="15.293;15.293;0" keyTimes="0;0.895;1" dur="1.46s" fill="freeze" begin="0s;894c.click" /></path><path d="M47,16.06c0.31,0.29,0.66,0.51,0.75,0.89c0.87,3.3,2.47,8.92,3.34,13.77" stroke-dasharray="15.358" stroke-dashoffset="15.358"><animate attributeName="stroke-dashoffset" values="15.358" fill="freeze" begin="894c.click" /><animate attributeName="stroke-dashoffset" values="15.358;15.358;0" keyTimes="0;0.905;1" dur="1.614s" fill="freeze" begin="0s;894c.click" /></path><path d="M48.91,17.62c5.65-0.7,10.52-1.71,15.73-2.42c1.31-0.17,2.1,0.81,1.91,1.62c-0.78,3.34-1.07,4.86-2.46,10.41" stroke-dasharray="29.548" stroke-dashoffset="29.548"><animate attributeName="stroke-dashoffset" values="29.548" fill="freeze" begin="894c.click" /><animate attributeName="stroke-dashoffset" values="29.548;29.548;0" keyTimes="0;0.845;1" dur="1.909s" fill="freeze" begin="0s;894c.click" /></path><path d="M51.74,29.43c4.22-0.42,8.27-1.13,14.06-1.79" stroke-dasharray="14.175" stroke-dashoffset="14.175"><animate attributeName="stroke-dashoffset" values="14.175" fill="freeze" begin="894c.click" /><animate attributeName="stroke-dashoffset" values="14.175;14.175;0" keyTimes="0;0.931;1" dur="2.051s" fill="freeze" begin="0s;894c.click" /></path><path d="M72.79,14.7c0.27,0.31,1.07,1.45,1.15,1.86c0.77,3.57,1.13,7.6,1.91,12.85" stroke-dasharray="15.193" stroke-dashoffset="15.193"><animate attributeName="stroke-dashoffset" values="15.193" fill="freeze" begin="894c.click" /><animate attributeName="stroke-dashoffset" values="15.193;15.193;0" keyTimes="0;0.931;1" dur="2.203s" fill="freeze" begin="0s;894c.click" /></path><path d="M74.19,15.99c6.38-0.83,13.55-1.86,18.16-2.62c1.16-0.19,1.85,0.88,1.69,1.75c-0.69,3.61-2.49,6.96-3.4,10.86" stroke-dasharray="32.594" stroke-dashoffset="32.594"><animate attributeName="stroke-dashoffset" values="32.594" fill="freeze" begin="894c.click" /><animate attributeName="stroke-dashoffset" values="32.594;32.594;0" keyTimes="0;0.871;1" dur="2.529s" fill="freeze" begin="0s;894c.click" /></path><path d="M75.64,27.53c4.9-0.29,9.81-0.96,17.03-1.08" stroke-dasharray="17.069" stroke-dashoffset="17.069"><animate attributeName="stroke-dashoffset" values="17.069" fill="freeze" begin="894c.click" /><animate attributeName="stroke-dashoffset" values="17.069;17.069;0" keyTimes="0;0.937;1" dur="2.7s" fill="freeze" begin="0s;894c.click" /></path><path d="M49.77,38.46c0.29,0.56,0.82,1.53,0.98,2.23c1.3,5.74,2.96,16.77,3.78,27.41" stroke-dasharray="30.131" stroke-dashoffset="30.131"><animate attributeName="stroke-dashoffset" values="30.131" fill="freeze" begin="894c.click" /><animate attributeName="stroke-dashoffset" values="30.131;30.131;0" keyTimes="0;0.9;1" dur="3.001s" fill="freeze" begin="0s;894c.click" /></path><path d="M51.64,40.63c10.86-1.92,28.79-3.94,36.26-4.92c2.75-0.36,4.41,0.78,4.32,3.19c-0.19,5.74-3.13,24.03-3.62,26.43" stroke-dasharray="69.613" stroke-dashoffset="69.613"><animate attributeName="stroke-dashoffset" values="69.613" fill="freeze" begin="894c.click" /><animate attributeName="stroke-dashoffset" values="69.613;69.613;0" keyTimes="0;0.852;1" dur="3.524s" fill="freeze" begin="0s;894c.click" /></path><path d="M53.29,52.87c3.26-0.46,32.85-3.72,37.39-3.4" stroke-dasharray="37.56" stroke-dashoffset="37.56"><animate attributeName="stroke-dashoffset" values="37.56" fill="freeze" begin="894c.click" /><animate attributeName="stroke-dashoffset" values="37.56;37.56;0" keyTimes="0;0.904;1" dur="3.9s" fill="freeze" begin="0s;894c.click" /></path><path d="M54.93,66.35c11.2-1.54,23.42-2.19,33.76-3.31" stroke-dasharray="33.926" stroke-dashoffset="33.926"><animate attributeName="stroke-dashoffset" values="33.926" fill="freeze" begin="894c.click" /><animate attributeName="stroke-dashoffset" values="33.926;33.926;0" keyTimes="0;0.92;1" dur="4.239s" fill="freeze" begin="0s;894c.click" /></path><path d="M44.44,79.38c1.2,0.51,3.41,0.6,4.62,0.51c6.69-0.46,31.02-3.27,46.04-3.97c2.01-0.09,3.21,0.25,4.22,0.5" stroke-dasharray="55.165" stroke-dashoffset="55.165"><animate attributeName="stroke-dashoffset" values="55.165" fill="freeze" begin="894c.click" /><animate attributeName="stroke-dashoffset" values="55.165;55.165;0" keyTimes="0;0.885;1" dur="4.791s" fill="freeze" begin="0s;894c.click" /></path><path d="M69.39,39.99c0.53,0.36,0.86,1.36,0.87,2.58c0.03,6.19,0.16,55.42,0.17,57.44" stroke-dasharray="60.252" stroke-dashoffset="60.252"><animate attributeName="stroke-dashoffset" values="60.252" fill="freeze" begin="894c.click" /><animate attributeName="stroke-dashoffset" values="60.252;60.252;0" keyTimes="0;0.914;1" dur="5.244s" fill="freeze" begin="0s;894c.click" /></path></g></svg>