<svg xmlns="http://www.w3.org/2000/svg" width="109" height="109" viewBox="0 0 109 109" id="894c"><g fill="none" stroke="#666" stroke-width="9" stroke-linecap="round" stroke-linejoin="round"><g><g><path d="M19.83,12c3.93,2.41,8.14,6.03,11.5,10.25" /><path d="M11.7,34.36c0.94,0.39,3.36,0.33,4.96,0.11C20,34,32.52,30.13,34.85,29.47c2.33-0.66,4.58,0.83,3.26,2.85C30.36,44.15,23.75,57,12,67.5" /><path d="M26.5,50.61c0.12,0.29,1.65,1.53,1.77,3.39c0.57,8.93,0.06,39.7,0.06,42.75" /><path d="M41.25,45.39c0.2,0.85,0.4,1.08,0,1.7c-1.2,1.87-4.9,6.45-7.3,8.66" /><path d="M31.33,55.25c3.5,2.65,7.25,6.62,10.25,11.25" /></g><g><g><g><path d="M47,16.06c0.31,0.29,0.66,0.51,0.75,0.89c0.87,3.3,2.47,8.92,3.34,13.77" /><path d="M48.91,17.62c5.65-0.7,10.52-1.71,15.73-2.42c1.31-0.17,2.1,0.81,1.91,1.62c-0.78,3.34-1.07,4.86-2.46,10.41" /><path d="M51.74,29.43c4.22-0.42,8.27-1.13,14.06-1.79" /></g><g><path d="M72.79,14.7c0.27,0.31,1.07,1.45,1.15,1.86c0.77,3.57,1.13,7.6,1.91,12.85" /><path d="M74.19,15.99c6.38-0.83,13.55-1.86,18.16-2.62c1.16-0.19,1.85,0.88,1.69,1.75c-0.69,3.61-2.49,6.96-3.4,10.86" /><path d="M75.64,27.53c4.9-0.29,9.81-0.96,17.03-1.08" /></g></g><g><g p6:part="1" xmlns:p6="http://kanjivg.tagaini.net"><g p6:partial><path d="M49.77,38.46c0.29,0.56,0.82,1.53,0.98,2.23c1.3,5.74,2.96,16.77,3.78,27.41" /><path d="M51.64,40.63c10.86-1.92,28.79-3.94,36.26-4.92c2.75-0.36,4.41,0.78,4.32,3.19c-0.19,5.74-3.13,24.03-3.62,26.43" /><path d="M53.29,52.87c3.26-0.46,32.85-3.72,37.39-3.4" /><path d="M54.93,66.35c11.2-1.54,23.42-2.19,33.76-3.31" /></g></g><g><path d="M44.44,79.38c1.2,0.51,3.41,0.6,4.62,0.51c6.69-0.46,31.02-3.27,46.04-3.97c2.01-0.09,3.21,0.25,4.22,0.5" /></g><g p6:part="2" xmlns:p6="http://kanjivg.tagaini.net"><g><path d="M69.39,39.99c0.53,0.36,0.86,1.36,0.87,2.58c0.03,6.19,0.16,55.42,0.17,57.44" /></g></g></g></g></g></g><g fill="none" stroke="#000" stroke-width="5" stroke-linecap="round" stroke-linejoin="round"><g><g><path d="M19.83,12c3.93,2.41,8.14,6.03,11.5,10.25" stroke-dasharray="15.48" stroke-dashoffset="15.48"><animate id="0" attributeName="stroke-dashoffset" values="15.48;0" dur="0.15s" fill="freeze" begin="0s;894c.click" /></path><path d="M11.7,34.36c0.94,0.39,3.36,0.33,4.96,0.11C20,34,32.52,30.13,34.85,29.47c2.33-0.66,4.58,0.83,3.26,2.85C30.36,44.15,23.75,57,12,67.5" stroke-dasharray="73.7" stroke-dashoffset="73.7"><animate attributeName="stroke-dashoffset" values="73.7" fill="freeze" begin="894c.click" /><animate id="1" attributeName="stroke-dashoffset" values="73.7;0" dur="0.55s" fill="freeze" begin="0.end" /></path><path d="M26.5,50.61c0.12,0.29,1.65,1.53,1.77,3.39c0.57,8.93,0.06,39.7,0.06,42.75" stroke-dasharray="46.66" stroke-dashoffset="46.66"><animate attributeName="stroke-dashoffset" values="46.66" fill="freeze" begin="894c.click" /><animate id="2" attributeName="stroke-dashoffset" values="46.66;0" dur="0.47s" fill="freeze" begin="1.end" /></path><path d="M41.25,45.39c0.2,0.85,0.4,1.08,0,1.7c-1.2,1.87-4.9,6.45-7.3,8.66" stroke-dasharray="13.12" stroke-dashoffset="13.12"><animate attributeName="stroke-dashoffset" values="13.12" fill="freeze" begin="894c.click" /><animate id="3" attributeName="stroke-dashoffset" values="13.12;0" dur="0.13s" fill="freeze" begin="2.end" /></path><path d="M31.33,55.25c3.5,2.65,7.25,6.62,10.25,11.25" stroke-dasharray="15.29" stroke-dashoffset="15.29"><animate attributeName="stroke-dashoffset" values="15.29" fill="freeze" begin="894c.click" /><animate id="4" attributeName="stroke-dashoffset" values="15.29;0" dur="0.15s" fill="freeze" begin="3.end" /></path></g><g><g><g><path d="M47,16.06c0.31,0.29,0.66,0.51,0.75,0.89c0.87,3.3,2.47,8.92,3.34,13.77" stroke-dasharray="15.36" stroke-dashoffset="15.36"><animate attributeName="stroke-dashoffset" values="15.36" fill="freeze" begin="894c.click" /><animate id="5" attributeName="stroke-dashoffset" values="15.36;0" dur="0.15s" fill="freeze" begin="4.end" /></path><path d="M48.91,17.62c5.65-0.7,10.52-1.71,15.73-2.42c1.31-0.17,2.1,0.81,1.91,1.62c-0.78,3.34-1.07,4.86-2.46,10.41" stroke-dasharray="29.55" stroke-dashoffset="29.55"><animate attributeName="stroke-dashoffset" values="29.55" fill="freeze" begin="894c.click" /><animate id="6" attributeName="stroke-dashoffset" values="29.55;0" dur="0.3s" fill="freeze" begin="5.end" /></path><path d="M51.74,29.43c4.22-0.42,8.27-1.13,14.06-1.79" stroke-dasharray="14.17" stroke-dashoffset="14.17"><animate attributeName="stroke-dashoffset" values="14.17" fill="freeze" begin="894c.click" /><animate id="7" attributeName="stroke-dashoffset" values="14.17;0" dur="0.14s" fill="freeze" begin="6.end" /></path></g><g><path d="M72.79,14.7c0.27,0.31,1.07,1.45,1.15,1.86c0.77,3.57,1.13,7.6,1.91,12.85" stroke-dasharray="15.19" stroke-dashoffset="15.19"><animate attributeName="stroke-dashoffset" values="15.19" fill="freeze" begin="894c.click" /><animate id="8" attributeName="stroke-dashoffset" values="15.19;0" dur="0.15s" fill="freeze" begin="7.end" /></path><path d="M74.19,15.99c6.38-0.83,13.55-1.86,18.16-2.62c1.16-0.19,1.85,0.88,1.69,1.75c-0.69,3.61-2.49,6.96-3.4,10.86" stroke-dasharray="32.59" stroke-dashoffset="32.59"><animate attributeName="stroke-dashoffset" values="32.59" fill="freeze" begin="894c.click" /><animate id="9" attributeName="stroke-dashoffset" values="32.59;0" dur="0.33s" fill="freeze" begin="8.end" /></path><path d="M75.64,27.53c4.9-0.29,9.81-0.96,17.03-1.08" stroke-dasharray="17.07" stroke-dashoffset="17.07"><animate attributeName="stroke-dashoffset" values="17.07" fill="freeze" begin="894c.click" /><animate id="10" attributeName="stroke-dashoffset" values="17.07;0" dur="0.17s" fill="freeze" begin="9.end" /></path></g></g><g><g p6:part="1" xmlns:p6="http://kanjivg.tagaini.net"><g p6:partial><path d="M49.77,38.46c0.29,0.56,0.82,1.53,0.98,2.23c1.3,5.74,2.96,16.77,3.78,27.41" stroke-dasharray="30.13" stroke-dashoffset="30.13"><animate attributeName="stroke-dashoffset" values="30.13" fill="freeze" begin="894c.click" /><animate id="11" attributeName="stroke-dashoffset" values="30.13;0" dur="0.3s" fill="freeze" begin="10.end" /></path><path d="M51.64,40.63c10.86-1.92,28.79-3.94,36.26-4.92c2.75-0.36,4.41,0.78,4.32,3.19c-0.19,5.74-3.13,24.03-3.62,26.43" stroke-dasharray="69.61" stroke-dashoffset="69.61"><animate attributeName="stroke-dashoffset" values="69.61" fill="freeze" begin="894c.click" /><animate id="12" attributeName="stroke-dashoffset" values="69.61;0" dur="0.52s" fill="freeze" begin="11.end" /></path><path d="M53.29,52.87c3.26-0.46,32.85-3.72,37.39-3.4" stroke-dasharray="37.56" stroke-dashoffset="37.56"><animate attributeName="stroke-dashoffset" values="37.56" fill="freeze" begin="894c.click" /><animate id="13" attributeName="stroke-dashoffset" values="37.56;0" dur="0.38s" fill="freeze" begin="12.end" /></path><path d="M54.93,66.35c11.2-1.54,23.42-2.19,33.76-3.31" stroke-dasharray="33.93" stroke-dashoffset="33.93"><animate attributeName="stroke-dashoffset" values="33.93" fill="freeze" begin="894c.click" /><animate id="14" attributeName="stroke-dashoffset" values="33.93;0" dur="0.34s" fill="freeze" begin="13.end" /></path></g></g><g><path d="M44.44,79.38c1.2,0.51,3.41,0.6,4.62,0.51c6.69-0.46,31.02-3.27,46.04-3.97c2.01-0.09,3.21,0.25,4.22,0.5" stroke-dasharray="55.16" stroke-dashoffset="55.16"><animate attributeName="stroke-dashoffset" values="55.16" fill="freeze" begin="894c.click" /><animate id="15" attributeName="stroke-dashoffset" values="55.16;0" dur="0.55s" fill="freeze" begin="14.end" /></path></g><g p6:part="2" xmlns:p6="http://kanjivg.tagaini.net"><g><path d="M69.39,39.99c0.53,0.36,0.86,1.36,0.87,2.58c0.03,6.19,0.16,55.42,0.17,57.44" stroke-dasharray="60.25" stroke-dashoffset="60.25"><animate attributeName="stroke-dashoffset" values="60.25" fill="freeze" begin="894c.click" /><animate id="16" attributeName="stroke-dashoffset" values="60.25;0" dur="0.45s" fill="freeze" begin="15.end" /></path></g></g></g></g></g></g></svg>