<svg xmlns="http://www.w3.org/2000/svg" width="109" height="109" viewBox="0 0 109 109" id="8977"><g fill="none" stroke="#666" stroke-width="9" stroke-linecap="round" stroke-linejoin="round"><g><g><path d="M16.33,14.5c3.59,2.76,7.43,6.91,10.5,11.75" /><path d="M8.73,35.06c0.73,0.36,2.84,0.88,4.07,0.57c3.45-0.87,15.07-2.55,16.87-3.16c1.8-0.61,3.55,0.77,2.52,2.64c-6,10.96-14.11,23.33-22.94,31.65" /><path d="M21.5,53.61c0.12,0.29,1.65,1.53,1.77,3.39c0.57,8.93,0.06,37.7,0.06,40.75" /><path d="M35.75,45.39c0.2,0.85,0.4,1.08,0,1.7c-1.2,1.87-4.9,6.45-7.3,8.66" /><path d="M24.83,55.25c3.16,3,6.54,7.5,9.25,12.75" /></g><g><g><g><path d="M63.2,18.55c2.8-0.55,4.55-1.05,6.95-1.74c0.76-0.22,1.53,0.08,1.92,0.16" /><path d="M63.34,12.05c0.69,0.73,0.46,2.69,0.14,3.89c-0.97,3.56-1.11,4.81-2.2,9.24c-0.47,1.94,0.21,2.31,2.27,1.83c1.46-0.34,1.55-0.36,5.25-0.75c1.54-0.16,2.77,0.68,2.51,2.01c-1.38,6.8-2.06,12.83-3.15,21.14" /><path d="M58.53,32.14c0.95,0.38,1.67,1.67,1.71,2.44c0.15,3.17-0.74,8.42-1.57,15.79" /><g><path d="M54.63,14.39c0.02,0.15,0.09,0.42-0.05,0.59c-1.68,2.06-5.66,5.46-10.04,7.12" /><path d="M41.97,22.06c0.74,0.38,1.24,1.68,1.34,2.45c0.29,2.26,2.98,19.84,3.5,26.81" /><path d="M45.2,31.07c2.71-0.35,4.97-1.03,7.19-1.41c0.98-0.17,2.17-0.28,2.71-0.28" /><path d="M45.79,41.69c3.12-0.34,5-1.41,7.38-1.58c0.84-0.06,1.96-0.1,2.52-0.1" /><path d="M76.56,19.89c1.19,0.36,2.57,1.04,4.19,0.59c3.51-0.98,9.25-3.12,9.75-3.12c1.4,0,2.14,0.89,1.84,2.06C91,24.61,88.25,41.1,87.38,48.25" /><path d="M77.41,28.81c0.62,0.12,1.9,0.53,2.84,0.51c3.37-0.08,8.96-1.51,9.82-1.51" /><path d="M75.97,38.53c0.54,0.1,2,0.53,2.62,0.55c2.85,0.1,6.98-0.86,9.6-1.05" /></g><path d="M38,51.25c1.37,0.48,3.88,0.57,5.25,0.48c10.75-0.66,33.17-2.84,50.46-3.28c2.28-0.06,3.65,0.23,4.79,0.47" /></g><g><g><path d="M53.44,51.19c0.06,0.56,0.25,1.53-0.11,2.27C50.8,58.6,44.1,66.43,33.17,75.22" /></g><g><path d="M74.2,49.5c2.78,2.84,15.82,17.08,18.83,19.88c1.02,0.95,1.9,1.35,2.92,1.62" /></g></g></g><g><path d="M74.1,55.5c0.06,0.22,0.13,0.58-0.12,0.9c-1.46,1.9-9.85,6.06-21.32,8.61" /><path d="M47.81,69.86c0.82,0.32,2.32,0.4,3.14,0.32c10.28-0.89,13-0.79,28.79-2.13c1.36-0.12,3.58-0.13,4.26,0.03" /><path d="M43.54,78.13c1.13,0.35,3.21,0.43,4.34,0.35c8.54-0.59,23.75-2.32,39.56-2.67c1.89-0.04,3.02,0.17,3.96,0.35" /><path d="M64.53,61.72c5.72,6.53,6.72,20.53,5.13,30.6c-1.33,8.43-5.74,3.93-8.63,0.89" /></g></g></g></g><g fill="none" stroke="#000" stroke-width="5" stroke-linecap="round" stroke-linejoin="round"><path d="M16.33,14.5c3.59,2.76,7.43,6.91,10.5,11.75" stroke-dasharray="15.835" stroke-dashoffset="15.835"><animate attributeName="stroke-dashoffset" values="15.835;15.835;0" dur="0.158s" fill="freeze" begin="0s;8977.click" /></path><path d="M8.73,35.06c0.73,0.36,2.84,0.88,4.07,0.57c3.45-0.87,15.07-2.55,16.87-3.16c1.8-0.61,3.55,0.77,2.52,2.64c-6,10.96-14.11,23.33-22.94,31.65" stroke-dasharray="65.489" stroke-dashoffset="65.489"><animate attributeName="stroke-dashoffset" values="65.489" fill="freeze" begin="8977.click" /><animate attributeName="stroke-dashoffset" values="65.489;65.489;0" keyTimes="0;0.243;1" dur="0.65s" fill="freeze" begin="0s;8977.click" /></path><path d="M21.5,53.61c0.12,0.29,1.65,1.53,1.77,3.39c0.57,8.93,0.06,37.7,0.06,40.75" stroke-dasharray="44.656" stroke-dashoffset="44.656"><animate attributeName="stroke-dashoffset" values="44.656" fill="freeze" begin="8977.click" /><animate attributeName="stroke-dashoffset" values="44.656;44.656;0" keyTimes="0;0.593;1" dur="1.097s" fill="freeze" begin="0s;8977.click" /></path><path d="M35.75,45.39c0.2,0.85,0.4,1.08,0,1.7c-1.2,1.87-4.9,6.45-7.3,8.66" stroke-dasharray="13.123" stroke-dashoffset="13.123"><animate attributeName="stroke-dashoffset" values="13.123" fill="freeze" begin="8977.click" /><animate attributeName="stroke-dashoffset" values="13.123;13.123;0" keyTimes="0;0.893;1" dur="1.228s" fill="freeze" begin="0s;8977.click" /></path><path d="M24.83,55.25c3.16,3,6.54,7.5,9.25,12.75" stroke-dasharray="15.822" stroke-dashoffset="15.822"><animate attributeName="stroke-dashoffset" values="15.822" fill="freeze" begin="8977.click" /><animate attributeName="stroke-dashoffset" values="15.822;15.822;0" keyTimes="0;0.886;1" dur="1.386s" fill="freeze" begin="0s;8977.click" /></path><path d="M63.2,18.55c2.8-0.55,4.55-1.05,6.95-1.74c0.76-0.22,1.53,0.08,1.92,0.16" stroke-dasharray="9.121" stroke-dashoffset="9.121"><animate attributeName="stroke-dashoffset" values="9.121" fill="freeze" begin="8977.click" /><animate attributeName="stroke-dashoffset" values="9.121;9.121;0" keyTimes="0;0.938;1" dur="1.477s" fill="freeze" begin="0s;8977.click" /></path><path d="M63.34,12.05c0.69,0.73,0.46,2.69,0.14,3.89c-0.97,3.56-1.11,4.81-2.2,9.24c-0.47,1.94,0.21,2.31,2.27,1.83c1.46-0.34,1.55-0.36,5.25-0.75c1.54-0.16,2.77,0.68,2.51,2.01c-1.38,6.8-2.06,12.83-3.15,21.14" stroke-dasharray="48.064" stroke-dashoffset="48.064"><animate attributeName="stroke-dashoffset" values="48.064" fill="freeze" begin="8977.click" /><animate attributeName="stroke-dashoffset" values="48.064;48.064;0" keyTimes="0;0.754;1" dur="1.958s" fill="freeze" begin="0s;8977.click" /></path><path d="M58.53,32.14c0.95,0.38,1.67,1.67,1.71,2.44c0.15,3.17-0.74,8.42-1.57,15.79" stroke-dasharray="18.987" stroke-dashoffset="18.987"><animate attributeName="stroke-dashoffset" values="18.987" fill="freeze" begin="8977.click" /><animate attributeName="stroke-dashoffset" values="18.987;18.987;0" keyTimes="0;0.912;1" dur="2.148s" fill="freeze" begin="0s;8977.click" /></path><path d="M54.63,14.39c0.02,0.15,0.09,0.42-0.05,0.59c-1.68,2.06-5.66,5.46-10.04,7.12" stroke-dasharray="13.037" stroke-dashoffset="13.037"><animate attributeName="stroke-dashoffset" values="13.037" fill="freeze" begin="8977.click" /><animate attributeName="stroke-dashoffset" values="13.037;13.037;0" keyTimes="0;0.943;1" dur="2.278s" fill="freeze" begin="0s;8977.click" /></path><path d="M41.97,22.06c0.74,0.38,1.24,1.68,1.34,2.45c0.29,2.26,2.98,19.84,3.5,26.81" stroke-dasharray="29.919" stroke-dashoffset="29.919"><animate attributeName="stroke-dashoffset" values="29.919" fill="freeze" begin="8977.click" /><animate attributeName="stroke-dashoffset" values="29.919;29.919;0" keyTimes="0;0.884;1" dur="2.577s" fill="freeze" begin="0s;8977.click" /></path><path d="M45.2,31.07c2.71-0.35,4.97-1.03,7.19-1.41c0.98-0.17,2.17-0.28,2.71-0.28" stroke-dasharray="10.057" stroke-dashoffset="10.057"><animate attributeName="stroke-dashoffset" values="10.057" fill="freeze" begin="8977.click" /><animate attributeName="stroke-dashoffset" values="10.057;10.057;0" keyTimes="0;0.962;1" dur="2.678s" fill="freeze" begin="0s;8977.click" /></path><path d="M45.79,41.69c3.12-0.34,5-1.41,7.38-1.58c0.84-0.06,1.96-0.1,2.52-0.1" stroke-dasharray="10.083" stroke-dashoffset="10.083"><animate attributeName="stroke-dashoffset" values="10.083" fill="freeze" begin="8977.click" /><animate attributeName="stroke-dashoffset" values="10.083;10.083;0" keyTimes="0;0.964;1" dur="2.779s" fill="freeze" begin="0s;8977.click" /></path><path d="M76.56,19.89c1.19,0.36,2.57,1.04,4.19,0.59c3.51-0.98,9.25-3.12,9.75-3.12c1.4,0,2.14,0.89,1.84,2.06C91,24.61,88.25,41.1,87.38,48.25" stroke-dasharray="47.087" stroke-dashoffset="47.087"><animate attributeName="stroke-dashoffset" values="47.087" fill="freeze" begin="8977.click" /><animate attributeName="stroke-dashoffset" values="47.087;47.087;0" keyTimes="0;0.855;1" dur="3.25s" fill="freeze" begin="0s;8977.click" /></path><path d="M77.41,28.81c0.62,0.12,1.9,0.53,2.84,0.51c3.37-0.08,8.96-1.51,9.82-1.51" stroke-dasharray="12.84" stroke-dashoffset="12.84"><animate attributeName="stroke-dashoffset" values="12.84" fill="freeze" begin="8977.click" /><animate attributeName="stroke-dashoffset" values="12.84;12.84;0" keyTimes="0;0.962;1" dur="3.378s" fill="freeze" begin="0s;8977.click" /></path><path d="M75.97,38.53c0.54,0.1,2,0.53,2.62,0.55c2.85,0.1,6.98-0.86,9.6-1.05" stroke-dasharray="12.348" stroke-dashoffset="12.348"><animate attributeName="stroke-dashoffset" values="12.348" fill="freeze" begin="8977.click" /><animate attributeName="stroke-dashoffset" values="12.348;12.348;0" keyTimes="0;0.965;1" dur="3.501s" fill="freeze" begin="0s;8977.click" /></path><path d="M38,51.25c1.37,0.48,3.88,0.57,5.25,0.48c10.75-0.66,33.17-2.84,50.46-3.28c2.28-0.06,3.65,0.23,4.79,0.47" stroke-dasharray="60.697" stroke-dashoffset="60.697"><animate attributeName="stroke-dashoffset" values="60.697" fill="freeze" begin="8977.click" /><animate attributeName="stroke-dashoffset" values="60.697;60.697;0" keyTimes="0;0.885;1" dur="3.957s" fill="freeze" begin="0s;8977.click" /></path><path d="M53.44,51.19c0.06,0.56,0.25,1.53-0.11,2.27C50.8,58.6,44.1,66.43,33.17,75.22" stroke-dasharray="32.157" stroke-dashoffset="32.157"><animate attributeName="stroke-dashoffset" values="32.157" fill="freeze" begin="8977.click" /><animate attributeName="stroke-dashoffset" values="32.157;32.157;0" keyTimes="0;0.925;1" dur="4.279s" fill="freeze" begin="0s;8977.click" /></path><path d="M74.2,49.5c2.78,2.84,15.82,17.08,18.83,19.88c1.02,0.95,1.9,1.35,2.92,1.62" stroke-dasharray="30.763" stroke-dashoffset="30.763"><animate attributeName="stroke-dashoffset" values="30.763" fill="freeze" begin="8977.click" /><animate attributeName="stroke-dashoffset" values="30.763;30.763;0" keyTimes="0;0.933;1" dur="4.587s" fill="freeze" begin="0s;8977.click" /></path><path d="M74.1,55.5c0.06,0.22,0.13,0.58-0.12,0.9c-1.46,1.9-9.85,6.06-21.32,8.61" stroke-dasharray="24.146" stroke-dashoffset="24.146"><animate attributeName="stroke-dashoffset" values="24.146" fill="freeze" begin="8977.click" /><animate attributeName="stroke-dashoffset" values="24.146;24.146;0" keyTimes="0;0.95;1" dur="4.828s" fill="freeze" begin="0s;8977.click" /></path><path d="M47.81,69.86c0.82,0.32,2.32,0.4,3.14,0.32c10.28-0.89,13-0.79,28.79-2.13c1.36-0.12,3.58-0.13,4.26,0.03" stroke-dasharray="36.317" stroke-dashoffset="36.317"><animate attributeName="stroke-dashoffset" values="36.317" fill="freeze" begin="8977.click" /><animate attributeName="stroke-dashoffset" values="36.317;36.317;0" keyTimes="0;0.93;1" dur="5.191s" fill="freeze" begin="0s;8977.click" /></path><path d="M43.54,78.13c1.13,0.35,3.21,0.43,4.34,0.35c8.54-0.59,23.75-2.32,39.56-2.67c1.89-0.04,3.02,0.17,3.96,0.35" stroke-dasharray="48.014" stroke-dashoffset="48.014"><animate attributeName="stroke-dashoffset" values="48.014" fill="freeze" begin="8977.click" /><animate attributeName="stroke-dashoffset" values="48.014;48.014;0" keyTimes="0;0.915;1" dur="5.671s" fill="freeze" begin="0s;8977.click" /></path><path d="M64.53,61.72c5.72,6.53,6.72,20.53,5.13,30.6c-1.33,8.43-5.74,3.93-8.63,0.89" stroke-dasharray="45.027" stroke-dashoffset="45.027"><animate attributeName="stroke-dashoffset" values="45.027" fill="freeze" begin="8977.click" /><animate attributeName="stroke-dashoffset" values="45.027;45.027;0" keyTimes="0;0.926;1" dur="6.121s" fill="freeze" begin="0s;8977.click" /></path></g></svg>