<svg xmlns="http://www.w3.org/2000/svg" width="109" height="109" viewBox="0 0 109 109" id="8983"><g fill="none" stroke="#666" stroke-width="9" stroke-linecap="round" stroke-linejoin="round"><g><g><g><path d="M21.64,16.16c1.44,0.45,4.07,0.51,5.52,0.45c12.08-0.57,43.09-3.11,51.29-4.03c2.38-0.27,3.84-0.29,5.04-0.07" /><path d="M19.5,24.74c0.5,0.84,1.13,1.53,1.24,2.6C21,30,22.5,35.5,22.75,39.75" /><path d="M20.63,26.72c10.3-1.36,58.32-4.46,63.63-4.92c1.94-0.17,2.83,1.66,2.83,2.68c0,2.76-1.59,8.26-2.27,12.33" /><path d="M40.05,17.01c0.32,0.25,0.54,1.11,0.58,1.62C41,23,42.02,29.24,42.23,33.98" /><path d="M62.9,14.08c0.32,0.25,0.46,1.14,0.46,2.28c-0.01,4.56-0.07,9.64-0.07,15.02" /><path d="M42.26,32.92C46,32.75,60.75,32,64.39,31.52" /></g></g><g><g><path d="M30.6,42.9c0.57,1.07,0.85,1.6,1.51,2.85c0.94,1.78,2.51,18.31,3.42,19.92" /><path d="M31.45,44c3.22-0.17,41.28-3.44,44.18-3.02c1.16,0.17,2.26,1.49,1.82,3.19c-0.83,3.19-3.01,14.6-4.52,20.32" /><path d="M34.03,53.57c4.36,0,35.7-2.99,40.63-2.99" /><path d="M35.47,63.7c6.44,0,33.61-2.13,37.63-2.13" /></g><g><path d="M16.85,77.47c1.51,0.44,4.28,0.56,5.77,0.44c13.03-1.06,50.51-4.33,62.77-4.29c2.51,0.01,4.02,0.21,5.27,0.43" /><path d="M53.42,65.28c0.33,0.37,1.04,2.75,1.1,3.48c0.07,0.73-0.04,25.66-0.11,30.24" /></g></g></g></g><g fill="none" stroke="#000" stroke-width="5" stroke-linecap="round" stroke-linejoin="round"><g><g><g><path d="M21.64,16.16c1.44,0.45,4.07,0.51,5.52,0.45c12.08-0.57,43.09-3.11,51.29-4.03c2.38-0.27,3.84-0.29,5.04-0.07" stroke-dasharray="62.07" stroke-dashoffset="62.07"><animate id="0" attributeName="stroke-dashoffset" values="62.07;0" dur="0.47s" fill="freeze" begin="0s;8983.click" /></path><path d="M19.5,24.74c0.5,0.84,1.13,1.53,1.24,2.6C21,30,22.5,35.5,22.75,39.75" stroke-dasharray="15.49" stroke-dashoffset="15.49"><animate attributeName="stroke-dashoffset" values="15.49" fill="freeze" begin="8983.click" /><animate id="1" attributeName="stroke-dashoffset" values="15.49;0" dur="0.15s" fill="freeze" begin="0.end" /></path><path d="M20.63,26.72c10.3-1.36,58.32-4.46,63.63-4.92c1.94-0.17,2.83,1.66,2.83,2.68c0,2.76-1.59,8.26-2.27,12.33" stroke-dasharray="80.74" stroke-dashoffset="80.74"><animate attributeName="stroke-dashoffset" values="80.74" fill="freeze" begin="8983.click" /><animate id="2" attributeName="stroke-dashoffset" values="80.74;0" dur="0.61s" fill="freeze" begin="1.end" /></path><path d="M40.05,17.01c0.32,0.25,0.54,1.11,0.58,1.62C41,23,42.02,29.24,42.23,33.98" stroke-dasharray="17.19" stroke-dashoffset="17.19"><animate attributeName="stroke-dashoffset" values="17.19" fill="freeze" begin="8983.click" /><animate id="3" attributeName="stroke-dashoffset" values="17.19;0" dur="0.17s" fill="freeze" begin="2.end" /></path><path d="M62.9,14.08c0.32,0.25,0.46,1.14,0.46,2.28c-0.01,4.56-0.07,9.64-0.07,15.02" stroke-dasharray="17.4" stroke-dashoffset="17.4"><animate attributeName="stroke-dashoffset" values="17.4" fill="freeze" begin="8983.click" /><animate id="4" attributeName="stroke-dashoffset" values="17.4;0" dur="0.17s" fill="freeze" begin="3.end" /></path><path d="M42.26,32.92C46,32.75,60.75,32,64.39,31.52" stroke-dasharray="22.18" stroke-dashoffset="22.18"><animate attributeName="stroke-dashoffset" values="22.18" fill="freeze" begin="8983.click" /><animate id="5" attributeName="stroke-dashoffset" values="22.18;0" dur="0.22s" fill="freeze" begin="4.end" /></path></g></g><g><g><path d="M30.6,42.9c0.57,1.07,0.85,1.6,1.51,2.85c0.94,1.78,2.51,18.31,3.42,19.92" stroke-dasharray="23.47" stroke-dashoffset="23.47"><animate attributeName="stroke-dashoffset" values="23.47" fill="freeze" begin="8983.click" /><animate id="6" attributeName="stroke-dashoffset" values="23.47;0" dur="0.23s" fill="freeze" begin="5.end" /></path><path d="M31.45,44c3.22-0.17,41.28-3.44,44.18-3.02c1.16,0.17,2.26,1.49,1.82,3.19c-0.83,3.19-3.01,14.6-4.52,20.32" stroke-dasharray="69.24" stroke-dashoffset="69.24"><animate attributeName="stroke-dashoffset" values="69.24" fill="freeze" begin="8983.click" /><animate id="7" attributeName="stroke-dashoffset" values="69.24;0" dur="0.52s" fill="freeze" begin="6.end" /></path><path d="M34.03,53.57c4.36,0,35.7-2.99,40.63-2.99" stroke-dasharray="40.74" stroke-dashoffset="40.74"><animate attributeName="stroke-dashoffset" values="40.74" fill="freeze" begin="8983.click" /><animate id="8" attributeName="stroke-dashoffset" values="40.74;0" dur="0.41s" fill="freeze" begin="7.end" /></path><path d="M35.47,63.7c6.44,0,33.61-2.13,37.63-2.13" stroke-dasharray="37.69" stroke-dashoffset="37.69"><animate attributeName="stroke-dashoffset" values="37.69" fill="freeze" begin="8983.click" /><animate id="9" attributeName="stroke-dashoffset" values="37.69;0" dur="0.38s" fill="freeze" begin="8.end" /></path></g><g><path d="M16.85,77.47c1.51,0.44,4.28,0.56,5.77,0.44c13.03-1.06,50.51-4.33,62.77-4.29c2.51,0.01,4.02,0.21,5.27,0.43" stroke-dasharray="74.03" stroke-dashoffset="74.03"><animate attributeName="stroke-dashoffset" values="74.03" fill="freeze" begin="8983.click" /><animate id="10" attributeName="stroke-dashoffset" values="74.03;0" dur="0.56s" fill="freeze" begin="9.end" /></path><path d="M53.42,65.28c0.33,0.37,1.04,2.75,1.1,3.48c0.07,0.73-0.04,25.66-0.11,30.24" stroke-dasharray="33.91" stroke-dashoffset="33.91"><animate attributeName="stroke-dashoffset" values="33.91" fill="freeze" begin="8983.click" /><animate id="11" attributeName="stroke-dashoffset" values="33.91;0" dur="0.34s" fill="freeze" begin="10.end" /></path></g></g></g></g></svg>