<svg xmlns="http://www.w3.org/2000/svg" width="109" height="109" viewBox="0 0 109 109" id="899a"><g fill="none" stroke="#666" stroke-width="9" stroke-linecap="round" stroke-linejoin="round"><g><g p4:phon="Ёжеп" xmlns:p4="http://kanjivg.tagaini.net"><g><path d="M30.5,16.5c3.5,3.23,7.25,8.88,7.75,10.5" /><path d="M49.25,13c1.64,2,5.59,7.25,6.25,10.5" /><path d="M78.06,10.25c0.44,1.12,0.29,2.02-0.33,3C76,16,71.16,21.75,69,24" /></g><g><path d="M22.67,33.25c-0.3,5.62-2.05,11.75-4.59,17.25" /><path d="M24,35.5c21.75-2.38,44.88-4.88,61.5-5.75c11.76-0.62,4.75,5.25,1.5,8" /></g></g><g><g><path d="M36.28,42.83c0.53,0.75,1.31,2.79,1.31,3.83c0,0.81,0,18.28,0,26.84c0,2.4,0,4.09,0,4.54" /><path d="M38.22,44.28c3-0.25,25.64-3.34,28.38-3.61c2.28-0.22,3.89,1.08,3.89,3.01c0,4.02-0.17,18.98-0.26,27.19c-0.03,2.76-0.05,4.75-0.05,5.32" /><path d="M38.92,54.45c3.8-0.43,23.46-2.57,31.02-3.11" /><path d="M39.16,64.17c6.71-0.67,22.7-2.71,30.42-3.04" /><path d="M38.94,74.82c6.94-0.7,22.45-2.22,30.17-2.54" /></g><g><path d="M46.76,78.4c0.07,0.52,0.23,1.38-0.14,2.08c-2.49,4.65-11.86,12.77-25.49,19.9" /><path d="M59.19,76.27c0.61,0.82,1.12,1.79,1.12,3.06c0,4.32-0.07,7.83-0.07,10.67c0,6,1.63,7.96,15.03,7.96c14.97,0,16.39-0.59,16.39-8.54" /></g></g></g></g><g fill="none" stroke="#000" stroke-width="5" stroke-linecap="round" stroke-linejoin="round"><g><g p4:phon="Ёжеп" xmlns:p4="http://kanjivg.tagaini.net"><g><path d="M30.5,16.5c3.5,3.23,7.25,8.88,7.75,10.5" stroke-dasharray="13.12" stroke-dashoffset="13.12"><animate id="0" attributeName="stroke-dashoffset" values="13.12;0" dur="0.13s" fill="freeze" begin="0s;899a.click" /></path><path d="M49.25,13c1.64,2,5.59,7.25,6.25,10.5" stroke-dasharray="12.3" stroke-dashoffset="12.3"><animate attributeName="stroke-dashoffset" values="12.3" fill="freeze" begin="899a.click" /><animate id="1" attributeName="stroke-dashoffset" values="12.3;0" dur="0.12s" fill="freeze" begin="0.end" /></path><path d="M78.06,10.25c0.44,1.12,0.29,2.02-0.33,3C76,16,71.16,21.75,69,24" stroke-dasharray="17.01" stroke-dashoffset="17.01"><animate attributeName="stroke-dashoffset" values="17.01" fill="freeze" begin="899a.click" /><animate id="2" attributeName="stroke-dashoffset" values="17.01;0" dur="0.17s" fill="freeze" begin="1.end" /></path></g><g><path d="M22.67,33.25c-0.3,5.62-2.05,11.75-4.59,17.25" stroke-dasharray="17.95" stroke-dashoffset="17.95"><animate attributeName="stroke-dashoffset" values="17.95" fill="freeze" begin="899a.click" /><animate id="3" attributeName="stroke-dashoffset" values="17.95;0" dur="0.18s" fill="freeze" begin="2.end" /></path><path d="M24,35.5c21.75-2.38,44.88-4.88,61.5-5.75c11.76-0.62,4.75,5.25,1.5,8" stroke-dasharray="77.27" stroke-dashoffset="77.27"><animate attributeName="stroke-dashoffset" values="77.27" fill="freeze" begin="899a.click" /><animate id="4" attributeName="stroke-dashoffset" values="77.27;0" dur="0.58s" fill="freeze" begin="3.end" /></path></g></g><g><g><path d="M36.28,42.83c0.53,0.75,1.31,2.79,1.31,3.83c0,0.81,0,18.28,0,26.84c0,2.4,0,4.09,0,4.54" stroke-dasharray="35.47" stroke-dashoffset="35.47"><animate attributeName="stroke-dashoffset" values="35.47" fill="freeze" begin="899a.click" /><animate id="5" attributeName="stroke-dashoffset" values="35.47;0" dur="0.35s" fill="freeze" begin="4.end" /></path><path d="M38.22,44.28c3-0.25,25.64-3.34,28.38-3.61c2.28-0.22,3.89,1.08,3.89,3.01c0,4.02-0.17,18.98-0.26,27.19c-0.03,2.76-0.05,4.75-0.05,5.32" stroke-dasharray="66.73" stroke-dashoffset="66.73"><animate attributeName="stroke-dashoffset" values="66.73" fill="freeze" begin="899a.click" /><animate id="6" attributeName="stroke-dashoffset" values="66.73;0" dur="0.5s" fill="freeze" begin="5.end" /></path><path d="M38.92,54.45c3.8-0.43,23.46-2.57,31.02-3.11" stroke-dasharray="31.18" stroke-dashoffset="31.18"><animate attributeName="stroke-dashoffset" values="31.18" fill="freeze" begin="899a.click" /><animate id="7" attributeName="stroke-dashoffset" values="31.18;0" dur="0.31s" fill="freeze" begin="6.end" /></path><path d="M39.16,64.17c6.71-0.67,22.7-2.71,30.42-3.04" stroke-dasharray="30.58" stroke-dashoffset="30.58"><animate attributeName="stroke-dashoffset" values="30.58" fill="freeze" begin="899a.click" /><animate id="8" attributeName="stroke-dashoffset" values="30.58;0" dur="0.31s" fill="freeze" begin="7.end" /></path><path d="M38.94,74.82c6.94-0.7,22.45-2.22,30.17-2.54" stroke-dasharray="30.28" stroke-dashoffset="30.28"><animate attributeName="stroke-dashoffset" values="30.28" fill="freeze" begin="899a.click" /><animate id="9" attributeName="stroke-dashoffset" values="30.28;0" dur="0.3s" fill="freeze" begin="8.end" /></path></g><g><path d="M46.76,78.4c0.07,0.52,0.23,1.38-0.14,2.08c-2.49,4.65-11.86,12.77-25.49,19.9" stroke-dasharray="34.78" stroke-dashoffset="34.78"><animate attributeName="stroke-dashoffset" values="34.78" fill="freeze" begin="899a.click" /><animate id="10" attributeName="stroke-dashoffset" values="34.78;0" dur="0.35s" fill="freeze" begin="9.end" /></path><path d="M59.19,76.27c0.61,0.82,1.12,1.79,1.12,3.06c0,4.32-0.07,7.83-0.07,10.67c0,6,1.63,7.96,15.03,7.96c14.97,0,16.39-0.59,16.39-8.54" stroke-dasharray="55.96" stroke-dashoffset="55.96"><animate attributeName="stroke-dashoffset" values="55.96" fill="freeze" begin="899a.click" /><animate id="11" attributeName="stroke-dashoffset" values="55.96;0" dur="0.56s" fill="freeze" begin="10.end" /></path></g></g></g></g></svg>