<svg xmlns="http://www.w3.org/2000/svg" width="109" height="109" viewBox="0 0 109 109" id="89a7"><g fill="none" stroke="#666" stroke-width="9" stroke-linecap="round" stroke-linejoin="round"><g><g p4:phon="監T" xmlns:p4="http://kanjivg.tagaini.net"><g><path d="M20.16,13.89c0.66,0.66,0.81,1.61,0.81,2.57c0,0.33,0.03,16.91-0.03,25.8c-0.02,2.44,0.08,4.46,0.06,5" /><path d="M22.07,15.15c3.88-0.13,13.67-1.5,20.68-2.04c1.55-0.12,3.43-0.48,4.96-0.16" /><path d="M32.73,15.28c0.68,0.68,0.86,1.65,0.86,2.5c0.01,1.8-0.07,2.46-0.07,4.5" /><path d="M22.25,24.62c7.12-0.74,15.99-1.52,20.93-2.03c2-0.21,2.56,0.63,2.28,1.72c-0.5,1.98-1.25,4.81-1.76,7.19" /><path d="M22.03,33.98c3.6-0.23,14.22-1.36,19.99-1.76c1.25-0.09,2.21-0.15,2.71-0.19" /><path d="M32.95,33.84c0.67,0.67,0.8,1.28,0.8,2.16c0,2.3,0,3.96,0,6.38" /><path d="M22.07,44.77c4.84-0.47,14.92-1.46,22.06-2.07c1.47-0.12,3.19-0.48,4.65-0.18" /></g><g><path d="M64.27,10.39c0.06,0.93-0.01,1.98-0.33,2.83c-1.94,5.03-5.56,11.28-11.63,18" /><path d="M63,21.39c1.12,0.24,2.66,0.24,3.6,0.13c5.1-0.56,12.46-2,18.66-2.94c2.09-0.32,3.95-0.32,5.99,0.18" /><path d="M62,35.64c1.75,0.36,3.9,0.54,5.5,0.35c4.4-0.54,9.76-1.35,14.07-1.99c2.01-0.3,3.67-0.3,5.68,0.07" /></g></g><g><g><path d="M35.99,49.9C36.6,50.58,37,52.08,37,52.98c0,3.09,0.06,16.51,0.08,23.52c0,1.54,0.01,2.77,0.01,3.51" /><path d="M38.03,51.31c3.12-0.1,25.79-2.84,32.51-3.45c3.65-0.33,4.41,1.51,4.41,4.64c0,3.33,0,13.26,0,21.25c0,1.91,0,3.7,0,5.27" /><path d="M37.97,59.96c10.78-1.09,26.91-2.59,35.58-3.08" /><path d="M38.25,68.52c9.87-1.02,26-2.27,35.64-2.85" /><path d="M38.15,78.1c12.22-1.1,25.1-2.47,35.89-2.85" /></g><g><path d="M45.1,80.75c0.18,1.21-0.06,2.15-0.81,3.1c-3.78,4.78-9.91,10.03-24.37,16.57" /><path d="M58.25,78.72c0.83,0.83,1.26,2.03,1.26,4.09c0,3.69,0.04,0.36,0.04,5.82c0,8.87,1.33,9.54,16.52,9.54c16.44,0,18.19-1.92,18.19-8.94" /></g></g></g></g><g fill="none" stroke="#000" stroke-width="5" stroke-linecap="round" stroke-linejoin="round"><g><g p4:phon="監T" xmlns:p4="http://kanjivg.tagaini.net"><g><path d="M20.16,13.89c0.66,0.66,0.81,1.61,0.81,2.57c0,0.33,0.03,16.91-0.03,25.8c-0.02,2.44,0.08,4.46,0.06,5" stroke-dasharray="33.57" stroke-dashoffset="33.57"><animate id="0" attributeName="stroke-dashoffset" values="33.57;0" dur="0.34s" fill="freeze" begin="0s;89a7.click" /></path><path d="M22.07,15.15c3.88-0.13,13.67-1.5,20.68-2.04c1.55-0.12,3.43-0.48,4.96-0.16" stroke-dasharray="25.76" stroke-dashoffset="25.76"><animate attributeName="stroke-dashoffset" values="25.76" fill="freeze" begin="89a7.click" /><animate id="1" attributeName="stroke-dashoffset" values="25.76;0" dur="0.26s" fill="freeze" begin="0.end" /></path><path d="M32.73,15.28c0.68,0.68,0.86,1.65,0.86,2.5c0.01,1.8-0.07,2.46-0.07,4.5" stroke-dasharray="7.21" stroke-dashoffset="7.21"><animate attributeName="stroke-dashoffset" values="7.21" fill="freeze" begin="89a7.click" /><animate id="2" attributeName="stroke-dashoffset" values="7.21;0" dur="0.07s" fill="freeze" begin="1.end" /></path><path d="M22.25,24.62c7.12-0.74,15.99-1.52,20.93-2.03c2-0.21,2.56,0.63,2.28,1.72c-0.5,1.98-1.25,4.81-1.76,7.19" stroke-dasharray="31.97" stroke-dashoffset="31.97"><animate attributeName="stroke-dashoffset" values="31.97" fill="freeze" begin="89a7.click" /><animate id="3" attributeName="stroke-dashoffset" values="31.97;0" dur="0.32s" fill="freeze" begin="2.end" /></path><path d="M22.03,33.98c3.6-0.23,14.22-1.36,19.99-1.76c1.25-0.09,2.21-0.15,2.71-0.19" stroke-dasharray="22.78" stroke-dashoffset="22.78"><animate attributeName="stroke-dashoffset" values="22.78" fill="freeze" begin="89a7.click" /><animate id="4" attributeName="stroke-dashoffset" values="22.78;0" dur="0.23s" fill="freeze" begin="3.end" /></path><path d="M32.95,33.84c0.67,0.67,0.8,1.28,0.8,2.16c0,2.3,0,3.96,0,6.38" stroke-dasharray="8.76" stroke-dashoffset="8.76"><animate attributeName="stroke-dashoffset" values="8.76" fill="freeze" begin="89a7.click" /><animate id="5" attributeName="stroke-dashoffset" values="8.76;0" dur="0.09s" fill="freeze" begin="4.end" /></path><path d="M22.07,44.77c4.84-0.47,14.92-1.46,22.06-2.07c1.47-0.12,3.19-0.48,4.65-0.18" stroke-dasharray="26.83" stroke-dashoffset="26.83"><animate attributeName="stroke-dashoffset" values="26.83" fill="freeze" begin="89a7.click" /><animate id="6" attributeName="stroke-dashoffset" values="26.83;0" dur="0.27s" fill="freeze" begin="5.end" /></path></g><g><path d="M64.27,10.39c0.06,0.93-0.01,1.98-0.33,2.83c-1.94,5.03-5.56,11.28-11.63,18" stroke-dasharray="24.42" stroke-dashoffset="24.42"><animate attributeName="stroke-dashoffset" values="24.42" fill="freeze" begin="89a7.click" /><animate id="7" attributeName="stroke-dashoffset" values="24.42;0" dur="0.24s" fill="freeze" begin="6.end" /></path><path d="M63,21.39c1.12,0.24,2.66,0.24,3.6,0.13c5.1-0.56,12.46-2,18.66-2.94c2.09-0.32,3.95-0.32,5.99,0.18" stroke-dasharray="28.54" stroke-dashoffset="28.54"><animate attributeName="stroke-dashoffset" values="28.54" fill="freeze" begin="89a7.click" /><animate id="8" attributeName="stroke-dashoffset" values="28.54;0" dur="0.29s" fill="freeze" begin="7.end" /></path><path d="M62,35.64c1.75,0.36,3.9,0.54,5.5,0.35c4.4-0.54,9.76-1.35,14.07-1.99c2.01-0.3,3.67-0.3,5.68,0.07" stroke-dasharray="25.45" stroke-dashoffset="25.45"><animate attributeName="stroke-dashoffset" values="25.45" fill="freeze" begin="89a7.click" /><animate id="9" attributeName="stroke-dashoffset" values="25.45;0" dur="0.25s" fill="freeze" begin="8.end" /></path></g></g><g><g><path d="M35.99,49.9C36.6,50.58,37,52.08,37,52.98c0,3.09,0.06,16.51,0.08,23.52c0,1.54,0.01,2.77,0.01,3.51" stroke-dasharray="30.32" stroke-dashoffset="30.32"><animate attributeName="stroke-dashoffset" values="30.32" fill="freeze" begin="89a7.click" /><animate id="10" attributeName="stroke-dashoffset" values="30.32;0" dur="0.3s" fill="freeze" begin="9.end" /></path><path d="M38.03,51.31c3.12-0.1,25.79-2.84,32.51-3.45c3.65-0.33,4.41,1.51,4.41,4.64c0,3.33,0,13.26,0,21.25c0,1.91,0,3.7,0,5.27" stroke-dasharray="66.87" stroke-dashoffset="66.87"><animate attributeName="stroke-dashoffset" values="66.87" fill="freeze" begin="89a7.click" /><animate id="11" attributeName="stroke-dashoffset" values="66.87;0" dur="0.5s" fill="freeze" begin="10.end" /></path><path d="M37.97,59.96c10.78-1.09,26.91-2.59,35.58-3.08" stroke-dasharray="35.72" stroke-dashoffset="35.72"><animate attributeName="stroke-dashoffset" values="35.72" fill="freeze" begin="89a7.click" /><animate id="12" attributeName="stroke-dashoffset" values="35.72;0" dur="0.36s" fill="freeze" begin="11.end" /></path><path d="M38.25,68.52c9.87-1.02,26-2.27,35.64-2.85" stroke-dasharray="35.76" stroke-dashoffset="35.76"><animate attributeName="stroke-dashoffset" values="35.76" fill="freeze" begin="89a7.click" /><animate id="13" attributeName="stroke-dashoffset" values="35.76;0" dur="0.36s" fill="freeze" begin="12.end" /></path><path d="M38.15,78.1c12.22-1.1,25.1-2.47,35.89-2.85" stroke-dasharray="36.01" stroke-dashoffset="36.01"><animate attributeName="stroke-dashoffset" values="36.01" fill="freeze" begin="89a7.click" /><animate id="14" attributeName="stroke-dashoffset" values="36.01;0" dur="0.36s" fill="freeze" begin="13.end" /></path></g><g><path d="M45.1,80.75c0.18,1.21-0.06,2.15-0.81,3.1c-3.78,4.78-9.91,10.03-24.37,16.57" stroke-dasharray="33.05" stroke-dashoffset="33.05"><animate attributeName="stroke-dashoffset" values="33.05" fill="freeze" begin="89a7.click" /><animate id="15" attributeName="stroke-dashoffset" values="33.05;0" dur="0.33s" fill="freeze" begin="14.end" /></path><path d="M58.25,78.72c0.83,0.83,1.26,2.03,1.26,4.09c0,3.69,0.04,0.36,0.04,5.82c0,8.87,1.33,9.54,16.52,9.54c16.44,0,18.19-1.92,18.19-8.94" stroke-dasharray="56.93" stroke-dashoffset="56.93"><animate attributeName="stroke-dashoffset" values="56.93" fill="freeze" begin="89a7.click" /><animate id="16" attributeName="stroke-dashoffset" values="56.93;0" dur="0.57s" fill="freeze" begin="15.end" /></path></g></g></g></g></svg>