<svg xmlns="http://www.w3.org/2000/svg" width="109" height="109" viewBox="0 0 109 109" id="8a02"><g fill="none" stroke="#666" stroke-width="9" stroke-linecap="round" stroke-linejoin="round"><g><g><path d="M24.3,13.88c2.69,1.52,6.96,6.26,7.63,8.62" /><path d="M11.37,33.33c1.79,0.59,4.31,0.25,6.13,0.1c7.63-0.61,15-1.93,22.12-2.91c1.48-0.2,3.49-0.39,4.97-0.1" /><path d="M18.18,46.81c1.25,0.36,2.92,0.27,4.2,0.09C27,46.25,31.86,45.42,36,44.78c1.25-0.2,2.75-0.49,4.01-0.28" /><path d="M18.8,59.08c1.3,0.4,3.27,0.14,4.59,0.01c4.04-0.38,9.85-1.65,13.58-1.99c1.12-0.1,2.49-0.33,3.6-0.14" /><g><path d="M17.26,70.9c0.85,0.85,1.02,1.79,1.24,2.78c0.84,3.65,1.82,9.66,2.7,14.82c0.23,1.32,0.45,2.59,0.66,3.74" /><path d="M19.19,72.12c6.61-0.82,12.59-2.11,18.67-3.02c3.52-0.52,4.36,0.48,3.61,3.86c-0.82,3.69-1.67,7.79-3.16,13.75" /><path d="M22.67,89.8c4.43-0.45,8.56-1.07,14.09-1.65c1.18-0.12,2.41-0.26,3.71-0.4" /></g></g><g p4:phon="丁" xmlns:p4="http://kanjivg.tagaini.net"><g><path d="M50.25,27.55c3,0.83,5.95,0.56,8.38,0.28c10.04-1.19,20.29-2.82,30.99-3.49c2.73-0.17,5.21-0.17,7.88,0.57" /></g><g><path d="M75.66,28.55c1.14,1.15,1.55,2.58,1.55,4.52c0,14.57,0.03,53.85,0.03,58.81c0,11.24-6.88,1.61-8.13,0.35" /></g></g></g></g><g fill="none" stroke="#000" stroke-width="5" stroke-linecap="round" stroke-linejoin="round"><g><g><path d="M24.3,13.88c2.69,1.52,6.96,6.26,7.63,8.62" stroke-dasharray="11.67" stroke-dashoffset="11.67"><animate id="0" attributeName="stroke-dashoffset" values="11.67;0" dur="0.12s" fill="freeze" begin="0s;8a02.click" /></path><path d="M11.37,33.33c1.79,0.59,4.31,0.25,6.13,0.1c7.63-0.61,15-1.93,22.12-2.91c1.48-0.2,3.49-0.39,4.97-0.1" stroke-dasharray="33.48" stroke-dashoffset="33.48"><animate attributeName="stroke-dashoffset" values="33.48" fill="freeze" begin="8a02.click" /><animate id="1" attributeName="stroke-dashoffset" values="33.48;0" dur="0.33s" fill="freeze" begin="0.end" /></path><path d="M18.18,46.81c1.25,0.36,2.92,0.27,4.2,0.09C27,46.25,31.86,45.42,36,44.78c1.25-0.2,2.75-0.49,4.01-0.28" stroke-dasharray="22.05" stroke-dashoffset="22.05"><animate attributeName="stroke-dashoffset" values="22.05" fill="freeze" begin="8a02.click" /><animate id="2" attributeName="stroke-dashoffset" values="22.05;0" dur="0.22s" fill="freeze" begin="1.end" /></path><path d="M18.8,59.08c1.3,0.4,3.27,0.14,4.59,0.01c4.04-0.38,9.85-1.65,13.58-1.99c1.12-0.1,2.49-0.33,3.6-0.14" stroke-dasharray="21.96" stroke-dashoffset="21.96"><animate attributeName="stroke-dashoffset" values="21.96" fill="freeze" begin="8a02.click" /><animate id="3" attributeName="stroke-dashoffset" values="21.96;0" dur="0.22s" fill="freeze" begin="2.end" /></path><g><path d="M17.26,70.9c0.85,0.85,1.02,1.79,1.24,2.78c0.84,3.65,1.82,9.66,2.7,14.82c0.23,1.32,0.45,2.59,0.66,3.74" stroke-dasharray="21.96" stroke-dashoffset="21.96"><animate attributeName="stroke-dashoffset" values="21.96" fill="freeze" begin="8a02.click" /><animate id="4" attributeName="stroke-dashoffset" values="21.96;0" dur="0.22s" fill="freeze" begin="3.end" /></path><path d="M19.19,72.12c6.61-0.82,12.59-2.11,18.67-3.02c3.52-0.52,4.36,0.48,3.61,3.86c-0.82,3.69-1.67,7.79-3.16,13.75" stroke-dasharray="40.1" stroke-dashoffset="40.1"><animate attributeName="stroke-dashoffset" values="40.1" fill="freeze" begin="8a02.click" /><animate id="5" attributeName="stroke-dashoffset" values="40.1;0" dur="0.4s" fill="freeze" begin="4.end" /></path><path d="M22.67,89.8c4.43-0.45,8.56-1.07,14.09-1.65c1.18-0.12,2.41-0.26,3.71-0.4" stroke-dasharray="17.92" stroke-dashoffset="17.92"><animate attributeName="stroke-dashoffset" values="17.92" fill="freeze" begin="8a02.click" /><animate id="6" attributeName="stroke-dashoffset" values="17.92;0" dur="0.18s" fill="freeze" begin="5.end" /></path></g></g><g p4:phon="丁" xmlns:p4="http://kanjivg.tagaini.net"><g><path d="M50.25,27.55c3,0.83,5.95,0.56,8.38,0.28c10.04-1.19,20.29-2.82,30.99-3.49c2.73-0.17,5.21-0.17,7.88,0.57" stroke-dasharray="47.57" stroke-dashoffset="47.57"><animate attributeName="stroke-dashoffset" values="47.57" fill="freeze" begin="8a02.click" /><animate id="7" attributeName="stroke-dashoffset" values="47.57;0" dur="0.48s" fill="freeze" begin="6.end" /></path></g><g><path d="M75.66,28.55c1.14,1.15,1.55,2.58,1.55,4.52c0,14.57,0.03,53.85,0.03,58.81c0,11.24-6.88,1.61-8.13,0.35" stroke-dasharray="78.06" stroke-dashoffset="78.06"><animate attributeName="stroke-dashoffset" values="78.06" fill="freeze" begin="8a02.click" /><animate id="8" attributeName="stroke-dashoffset" values="78.06;0" dur="0.59s" fill="freeze" begin="7.end" /></path></g></g></g></g></svg>