<svg xmlns="http://www.w3.org/2000/svg" width="109" height="109" viewBox="0 0 109 109" id="8a13"><g fill="none" stroke="#666" stroke-width="9" stroke-linecap="round" stroke-linejoin="round"><g><g><path d="M23.88,13.25c3.4,1.72,8.78,7.07,9.62,9.75" /><path d="M13.62,31.58c1.52,0.56,3.7,0.24,5.27,0.13c7.06-0.52,16.37-1.97,21.88-2.61c1.54-0.18,3.05-0.51,4.58-0.18" /><path d="M18.98,44.56c1.17,0.37,2.81,0.15,4.02,0.07c3.83-0.25,10.63-1.25,13.93-2.04c1.45-0.34,2.99-0.63,4.46-0.35" /><path d="M19.48,56.08c0.98,0.34,2.36,0.15,3.4,0.08c3.24-0.22,9.07-1.21,12.76-1.49c1.5-0.11,3.24-0.3,4.89-0.21" /><g><path d="M18.64,69.4c0.72,0.62,1.1,1.4,1.12,2.34c0.74,3.72,1.33,9.34,1.77,15c0.08,1,0.15,2.01,0.22,3" /><path d="M20.56,70.87c5.99-0.83,10.99-1.72,16.44-2.56c2.72-0.42,3.65,0.73,3.17,3.34c-0.71,3.82-1.07,7.68-2.5,14.06" /><path d="M22.47,87.8c4.18-0.47,7.64-0.92,13.78-1.36c0.91-0.07,1.88-0.13,2.91-0.2" /></g></g><g p4:phon="川" xmlns:p4="http://kanjivg.tagaini.net"><path d="M54.72,20.18c1.12,1.12,1.69,2.7,1.69,4.62C56.5,70.5,53.5,81.25,41.5,93" /><path d="M71.75,18.88c1.06,1.06,1.41,2.37,1.41,3.65c0,0.58-0.04,31.38-0.09,45.84c-0.01,3.56-0.03,6.12-0.05,7.01" /><path d="M89.81,15.13c1.09,1.09,1.51,2.49,1.51,4c0,0.79,0,50.1,0,69.12c0,2.96,0,5.19,0,6.38" /></g></g></g><g fill="none" stroke="#000" stroke-width="5" stroke-linecap="round" stroke-linejoin="round"><g><g><path d="M23.88,13.25c3.4,1.72,8.78,7.07,9.62,9.75" stroke-dasharray="13.9" stroke-dashoffset="13.9"><animate id="0" attributeName="stroke-dashoffset" values="13.9;0" dur="0.14s" fill="freeze" begin="0s;8a13.click" /></path><path d="M13.62,31.58c1.52,0.56,3.7,0.24,5.27,0.13c7.06-0.52,16.37-1.97,21.88-2.61c1.54-0.18,3.05-0.51,4.58-0.18" stroke-dasharray="31.96" stroke-dashoffset="31.96"><animate attributeName="stroke-dashoffset" values="31.96" fill="freeze" begin="8a13.click" /><animate id="1" attributeName="stroke-dashoffset" values="31.96;0" dur="0.32s" fill="freeze" begin="0.end" /></path><path d="M18.98,44.56c1.17,0.37,2.81,0.15,4.02,0.07c3.83-0.25,10.63-1.25,13.93-2.04c1.45-0.34,2.99-0.63,4.46-0.35" stroke-dasharray="22.64" stroke-dashoffset="22.64"><animate attributeName="stroke-dashoffset" values="22.64" fill="freeze" begin="8a13.click" /><animate id="2" attributeName="stroke-dashoffset" values="22.64;0" dur="0.23s" fill="freeze" begin="1.end" /></path><path d="M19.48,56.08c0.98,0.34,2.36,0.15,3.4,0.08c3.24-0.22,9.07-1.21,12.76-1.49c1.5-0.11,3.24-0.3,4.89-0.21" stroke-dasharray="21.17" stroke-dashoffset="21.17"><animate attributeName="stroke-dashoffset" values="21.17" fill="freeze" begin="8a13.click" /><animate id="3" attributeName="stroke-dashoffset" values="21.17;0" dur="0.21s" fill="freeze" begin="2.end" /></path><g><path d="M18.64,69.4c0.72,0.62,1.1,1.4,1.12,2.34c0.74,3.72,1.33,9.34,1.77,15c0.08,1,0.15,2.01,0.22,3" stroke-dasharray="20.8" stroke-dashoffset="20.8"><animate attributeName="stroke-dashoffset" values="20.8" fill="freeze" begin="8a13.click" /><animate id="4" attributeName="stroke-dashoffset" values="20.8;0" dur="0.21s" fill="freeze" begin="3.end" /></path><path d="M20.56,70.87c5.99-0.83,10.99-1.72,16.44-2.56c2.72-0.42,3.65,0.73,3.17,3.34c-0.71,3.82-1.07,7.68-2.5,14.06" stroke-dasharray="36.8" stroke-dashoffset="36.8"><animate attributeName="stroke-dashoffset" values="36.8" fill="freeze" begin="8a13.click" /><animate id="5" attributeName="stroke-dashoffset" values="36.8;0" dur="0.37s" fill="freeze" begin="4.end" /></path><path d="M22.47,87.8c4.18-0.47,7.64-0.92,13.78-1.36c0.91-0.07,1.88-0.13,2.91-0.2" stroke-dasharray="16.77" stroke-dashoffset="16.77"><animate attributeName="stroke-dashoffset" values="16.77" fill="freeze" begin="8a13.click" /><animate id="6" attributeName="stroke-dashoffset" values="16.77;0" dur="0.17s" fill="freeze" begin="5.end" /></path></g></g><g p4:phon="川" xmlns:p4="http://kanjivg.tagaini.net"><path d="M54.72,20.18c1.12,1.12,1.69,2.7,1.69,4.62C56.5,70.5,53.5,81.25,41.5,93" stroke-dasharray="76.96" stroke-dashoffset="76.96"><animate attributeName="stroke-dashoffset" values="76.96" fill="freeze" begin="8a13.click" /><animate id="7" attributeName="stroke-dashoffset" values="76.96;0" dur="0.58s" fill="freeze" begin="6.end" /></path><path d="M71.75,18.88c1.06,1.06,1.41,2.37,1.41,3.65c0,0.58-0.04,31.38-0.09,45.84c-0.01,3.56-0.03,6.12-0.05,7.01" stroke-dasharray="56.87" stroke-dashoffset="56.87"><animate attributeName="stroke-dashoffset" values="56.87" fill="freeze" begin="8a13.click" /><animate id="8" attributeName="stroke-dashoffset" values="56.87;0" dur="0.57s" fill="freeze" begin="7.end" /></path><path d="M89.81,15.13c1.09,1.09,1.51,2.49,1.51,4c0,0.79,0,50.1,0,69.12c0,2.96,0,5.19,0,6.38" stroke-dasharray="79.89" stroke-dashoffset="79.89"><animate attributeName="stroke-dashoffset" values="79.89" fill="freeze" begin="8a13.click" /><animate id="9" attributeName="stroke-dashoffset" values="79.89;0" dur="0.6s" fill="freeze" begin="8.end" /></path></g></g></g></svg>