<svg xmlns="http://www.w3.org/2000/svg" viewBox="0 0 109 109" id="8a1d"><g fill="none" stroke="#666" stroke-width="6" stroke-linecap="round" stroke-linejoin="round"><g><g><path d="M23.13,14.75c3.57,1.5,9.23,6.17,10.12,8.5" /><path d="M12.12,32.48c0.7,0.19,3.37,0.22,4.07,0.19c8.66-0.34,17.84-2.67,24.14-2.83c1.17-0.03,2.93,0.09,3.51,0.19" /><path d="M16.73,44.06c0.38,0.12,2.71,0.13,3.1,0.12C23.8,44.05,32,43,36.54,42.63c0.63-0.05,3.29,0.06,3.61,0.12" /><path d="M16.23,57.33c0.34,0.12,2.42,0.13,2.77,0.12c3.55-0.13,13.75-1.7,17.81-2.09c0.56-0.05,2.94,0.06,3.22,0.11" /><g><path d="M17.14,70.4c0.35,0.36,0.75,0.65,0.86,1.13c0.99,4.21,2.25,13.54,3.25,19.71" /><path d="M17.81,71.66c7.17-0.99,13.34-2.28,19.96-3.29c1.66-0.25,2.66,1.15,2.43,2.29c-0.99,4.73-1.35,7.92-3.11,15.8" /><path d="M20.97,89.05c4.8-0.54,11.6-1.47,18.19-2.31" /></g></g><g><path d="M51.5,20.97c1.21,0.62,3.42,0.74,4.63,0.62c8.62-0.84,24.12-3.84,33.23-3.76c2.01,0.02,3.22,0.3,4.22,0.61" /><path d="M54.23,27.49c1.29,1.2,1.39,2.71,1.38,4.07c-0.95,7.19-2.31,11.96-3.62,15.56c-0.97,2.67,0.41,2.95,2.38,2.4c5.15-1.44,30.84-5.03,39.53-4.42c1.51,0.11,2.42,0.22,3.17,0.46" /><g><path d="M76.44,21.5c0.99,1.04,1.83,2.52,1.9,6.19c0.35,17.65-0.22,56.04-0.22,62.05c0,12.02-5.58,3.01-7.8,0.76" /></g><g><path d="M75.82,46.63c0.72,0.47,0.46,2,0.05,2.86c-4.16,8.74-14.12,22.76-31.68,33.74" /></g></g></g></g><g fill="none" stroke="#000" stroke-width="3" stroke-linecap="round" stroke-linejoin="round"><path d="M23.13,14.75c3.57,1.5,9.23,6.17,10.12,8.5" stroke-dasharray="13.406" stroke-dashoffset="13.406"><animate attributeName="stroke-dashoffset" values="13.406;13.406;0" dur="0.134s" fill="freeze" begin="0s;8a1d.click" /></path><path d="M12.12,32.48c0.7,0.19,3.37,0.22,4.07,0.19c8.66-0.34,17.84-2.67,24.14-2.83c1.17-0.03,2.93,0.09,3.51,0.19" stroke-dasharray="31.92" stroke-dashoffset="31.92"><animate attributeName="stroke-dashoffset" values="31.92" fill="freeze" begin="8a1d.click" /><animate attributeName="stroke-dashoffset" values="31.92;31.92;0" keyTimes="0;0.296;1" dur="0.453s" fill="freeze" begin="0s;8a1d.click" /></path><path d="M16.73,44.06c0.38,0.12,2.71,0.13,3.1,0.12C23.8,44.05,32,43,36.54,42.63c0.63-0.05,3.29,0.06,3.61,0.12" stroke-dasharray="23.505" stroke-dashoffset="23.505"><animate attributeName="stroke-dashoffset" values="23.505" fill="freeze" begin="8a1d.click" /><animate attributeName="stroke-dashoffset" values="23.505;23.505;0" keyTimes="0;0.658;1" dur="0.688s" fill="freeze" begin="0s;8a1d.click" /></path><path d="M16.23,57.33c0.34,0.12,2.42,0.13,2.77,0.12c3.55-0.13,13.75-1.7,17.81-2.09c0.56-0.05,2.94,0.06,3.22,0.11" stroke-dasharray="23.937" stroke-dashoffset="23.937"><animate attributeName="stroke-dashoffset" values="23.937" fill="freeze" begin="8a1d.click" /><animate attributeName="stroke-dashoffset" values="23.937;23.937;0" keyTimes="0;0.742;1" dur="0.927s" fill="freeze" begin="0s;8a1d.click" /></path><path d="M17.14,70.4c0.35,0.36,0.75,0.65,0.86,1.13c0.99,4.21,2.25,13.54,3.25,19.71" stroke-dasharray="21.422" stroke-dashoffset="21.422"><animate attributeName="stroke-dashoffset" values="21.422" fill="freeze" begin="8a1d.click" /><animate attributeName="stroke-dashoffset" values="21.422;21.422;0" keyTimes="0;0.812;1" dur="1.141s" fill="freeze" begin="0s;8a1d.click" /></path><path d="M17.81,71.66c7.17-0.99,13.34-2.28,19.96-3.29c1.66-0.25,2.66,1.15,2.43,2.29c-0.99,4.73-1.35,7.92-3.11,15.8" stroke-dasharray="40.25" stroke-dashoffset="40.25"><animate attributeName="stroke-dashoffset" values="40.25" fill="freeze" begin="8a1d.click" /><animate attributeName="stroke-dashoffset" values="40.25;40.25;0" keyTimes="0;0.739;1" dur="1.544s" fill="freeze" begin="0s;8a1d.click" /></path><path d="M20.97,89.05c4.8-0.54,11.6-1.47,18.19-2.31" stroke-dasharray="18.337" stroke-dashoffset="18.337"><animate attributeName="stroke-dashoffset" values="18.337" fill="freeze" begin="8a1d.click" /><animate attributeName="stroke-dashoffset" values="18.337;18.337;0" keyTimes="0;0.894;1" dur="1.727s" fill="freeze" begin="0s;8a1d.click" /></path><path d="M51.5,20.97c1.21,0.62,3.42,0.74,4.63,0.62c8.62-0.84,24.12-3.84,33.23-3.76c2.01,0.02,3.22,0.3,4.22,0.61" stroke-dasharray="42.465" stroke-dashoffset="42.465"><animate attributeName="stroke-dashoffset" values="42.465" fill="freeze" begin="8a1d.click" /><animate attributeName="stroke-dashoffset" values="42.465;42.465;0" keyTimes="0;0.803;1" dur="2.152s" fill="freeze" begin="0s;8a1d.click" /></path><path d="M54.23,27.49c1.29,1.2,1.39,2.71,1.38,4.07c-0.95,7.19-2.31,11.96-3.62,15.56c-0.97,2.67,0.41,2.95,2.38,2.4c5.15-1.44,30.84-5.03,39.53-4.42c1.51,0.11,2.42,0.22,3.17,0.46" stroke-dasharray="68.445" stroke-dashoffset="68.445"><animate attributeName="stroke-dashoffset" values="68.445" fill="freeze" begin="8a1d.click" /><animate attributeName="stroke-dashoffset" values="68.445;68.445;0" keyTimes="0;0.807;1" dur="2.667s" fill="freeze" begin="0s;8a1d.click" /></path><path d="M76.44,21.5c0.99,1.04,1.83,2.52,1.9,6.19c0.35,17.65-0.22,56.04-0.22,62.05c0,12.02-5.58,3.01-7.8,0.76" stroke-dasharray="83.68" stroke-dashoffset="83.68"><animate attributeName="stroke-dashoffset" values="83.68" fill="freeze" begin="8a1d.click" /><animate attributeName="stroke-dashoffset" values="83.68;83.68;0" keyTimes="0;0.809;1" dur="3.296s" fill="freeze" begin="0s;8a1d.click" /></path><path d="M75.82,46.63c0.72,0.47,0.46,2,0.05,2.86c-4.16,8.74-14.12,22.76-31.68,33.74" stroke-dasharray="49.92" stroke-dashoffset="49.92"><animate attributeName="stroke-dashoffset" values="49.92" fill="freeze" begin="8a1d.click" /><animate attributeName="stroke-dashoffset" values="49.92;49.92;0" keyTimes="0;0.869;1" dur="3.795s" fill="freeze" begin="0s;8a1d.click" /></path></g></svg>