<svg xmlns="http://www.w3.org/2000/svg" width="109" height="109" viewBox="0 0 109 109" id="8a3b"><g fill="none" stroke="#666" stroke-width="9" stroke-linecap="round" stroke-linejoin="round"><g><g><path d="M23.13,15.62c2.78,1.7,7.18,6.98,7.87,9.62" /><path d="M10.37,35.08c1.91,0.7,4.7,0.19,6.64,0.02c6.07-0.52,13.48-1.58,18.75-2.14c2.25-0.24,4.32-0.79,6.58-0.29" /><path d="M17.73,48.56c1.24,0.39,3.13,0.16,4.41,0.02c3.54-0.39,7.24-0.84,11.49-1.67c1.41-0.28,3.11-0.43,4.52-0.16" /><path d="M18.98,61.08c1.12,0.38,2.86,0.14,4.01,0.03c3.58-0.35,8.95-1.32,12.56-2.01c0.83-0.16,2.36-0.06,3.22,0.11" /><g><path d="M17.64,73.9c0.74,0.65,1.12,1.46,1.15,2.44c0.78,3.63,1.68,9,2.47,13.9c0.17,1.03,0.33,2.04,0.49,3" /><path d="M19.31,74.87c6.43-1.25,11.49-2.38,16.83-3.25c2.68-0.44,4.13,0.11,3.52,3.01c-0.79,3.74-1.31,6.69-2.74,13.08" /><path d="M22.47,90.67c4.78-0.77,7.11-0.89,11.5-1.45c1.3-0.16,2.69-0.33,4.19-0.49" /></g></g><g><g><path d="M67.75,15.75c1,1.26,1.25,2.39,1.25,4.67c0,2.83,0,8.96,0,10.61" /></g><g p5:partial xmlns:p5="http://kanjivg.tagaini.net"><path d="M49.5,34c1.83,1.01,5.31-0.01,7.27-0.27c9.07-1.2,18.55-2.48,28.36-3.87c2.13-0.3,4.31-0.35,6.38,0.4" /><path d="M69.25,32.89c1.3,1.3,1.5,2.89,1.5,5.17c0,7.05,0,42.44,0,49.59" /><path d="M52.25,60.33c2.38,0.67,5.05,0.25,6.89,0.02c9.56-1.21,17.99-2.1,23.74-2.61c2.25-0.2,4.67-0.47,6.88,0.17" /><path d="M46.25,89.74c3.16,1.1,6.9,0.23,10.13-0.08c11.62-1.12,24.05-2.08,34.37-2.41c2.94-0.09,6.71-0.66,9.5,0.46" /></g></g></g></g><g fill="none" stroke="#000" stroke-width="5" stroke-linecap="round" stroke-linejoin="round"><g><g><path d="M23.13,15.62c2.78,1.7,7.18,6.98,7.87,9.62" stroke-dasharray="12.6" stroke-dashoffset="12.6"><animate id="0" attributeName="stroke-dashoffset" values="12.6;0" dur="0.13s" fill="freeze" begin="0s;8a3b.click" /></path><path d="M10.37,35.08c1.91,0.7,4.7,0.19,6.64,0.02c6.07-0.52,13.48-1.58,18.75-2.14c2.25-0.24,4.32-0.79,6.58-0.29" stroke-dasharray="32.19" stroke-dashoffset="32.19"><animate attributeName="stroke-dashoffset" values="32.19" fill="freeze" begin="8a3b.click" /><animate id="1" attributeName="stroke-dashoffset" values="32.19;0" dur="0.32s" fill="freeze" begin="0.end" /></path><path d="M17.73,48.56c1.24,0.39,3.13,0.16,4.41,0.02c3.54-0.39,7.24-0.84,11.49-1.67c1.41-0.28,3.11-0.43,4.52-0.16" stroke-dasharray="20.6" stroke-dashoffset="20.6"><animate attributeName="stroke-dashoffset" values="20.6" fill="freeze" begin="8a3b.click" /><animate id="2" attributeName="stroke-dashoffset" values="20.6;0" dur="0.21s" fill="freeze" begin="1.end" /></path><path d="M18.98,61.08c1.12,0.38,2.86,0.14,4.01,0.03c3.58-0.35,8.95-1.32,12.56-2.01c0.83-0.16,2.36-0.06,3.22,0.11" stroke-dasharray="20" stroke-dashoffset="20"><animate attributeName="stroke-dashoffset" values="20" fill="freeze" begin="8a3b.click" /><animate id="3" attributeName="stroke-dashoffset" values="20;0" dur="0.2s" fill="freeze" begin="2.end" /></path><g><path d="M17.64,73.9c0.74,0.65,1.12,1.46,1.15,2.44c0.78,3.63,1.68,9,2.47,13.9c0.17,1.03,0.33,2.04,0.49,3" stroke-dasharray="19.94" stroke-dashoffset="19.94"><animate attributeName="stroke-dashoffset" values="19.94" fill="freeze" begin="8a3b.click" /><animate id="4" attributeName="stroke-dashoffset" values="19.94;0" dur="0.2s" fill="freeze" begin="3.end" /></path><path d="M19.31,74.87c6.43-1.25,11.49-2.38,16.83-3.25c2.68-0.44,4.13,0.11,3.52,3.01c-0.79,3.74-1.31,6.69-2.74,13.08" stroke-dasharray="36.55" stroke-dashoffset="36.55"><animate attributeName="stroke-dashoffset" values="36.55" fill="freeze" begin="8a3b.click" /><animate id="5" attributeName="stroke-dashoffset" values="36.55;0" dur="0.37s" fill="freeze" begin="4.end" /></path><path d="M22.47,90.67c4.78-0.77,7.11-0.89,11.5-1.45c1.3-0.16,2.69-0.33,4.19-0.49" stroke-dasharray="15.81" stroke-dashoffset="15.81"><animate attributeName="stroke-dashoffset" values="15.81" fill="freeze" begin="8a3b.click" /><animate id="6" attributeName="stroke-dashoffset" values="15.81;0" dur="0.16s" fill="freeze" begin="5.end" /></path></g></g><g><g><path d="M67.75,15.75c1,1.26,1.25,2.39,1.25,4.67c0,2.83,0,8.96,0,10.61" stroke-dasharray="15.56" stroke-dashoffset="15.56"><animate attributeName="stroke-dashoffset" values="15.56" fill="freeze" begin="8a3b.click" /><animate id="7" attributeName="stroke-dashoffset" values="15.56;0" dur="0.16s" fill="freeze" begin="6.end" /></path></g><g p5:partial xmlns:p5="http://kanjivg.tagaini.net"><path d="M49.5,34c1.83,1.01,5.31-0.01,7.27-0.27c9.07-1.2,18.55-2.48,28.36-3.87c2.13-0.3,4.31-0.35,6.38,0.4" stroke-dasharray="42.47" stroke-dashoffset="42.47"><animate attributeName="stroke-dashoffset" values="42.47" fill="freeze" begin="8a3b.click" /><animate id="8" attributeName="stroke-dashoffset" values="42.47;0" dur="0.42s" fill="freeze" begin="7.end" /></path><path d="M69.25,32.89c1.3,1.3,1.5,2.89,1.5,5.17c0,7.05,0,42.44,0,49.59" stroke-dasharray="55.13" stroke-dashoffset="55.13"><animate attributeName="stroke-dashoffset" values="55.13" fill="freeze" begin="8a3b.click" /><animate id="9" attributeName="stroke-dashoffset" values="55.13;0" dur="0.55s" fill="freeze" begin="8.end" /></path><path d="M52.25,60.33c2.38,0.67,5.05,0.25,6.89,0.02c9.56-1.21,17.99-2.1,23.74-2.61c2.25-0.2,4.67-0.47,6.88,0.17" stroke-dasharray="37.75" stroke-dashoffset="37.75"><animate attributeName="stroke-dashoffset" values="37.75" fill="freeze" begin="8a3b.click" /><animate id="10" attributeName="stroke-dashoffset" values="37.75;0" dur="0.38s" fill="freeze" begin="9.end" /></path><path d="M46.25,89.74c3.16,1.1,6.9,0.23,10.13-0.08c11.62-1.12,24.05-2.08,34.37-2.41c2.94-0.09,6.71-0.66,9.5,0.46" stroke-dasharray="54.27" stroke-dashoffset="54.27"><animate attributeName="stroke-dashoffset" values="54.27" fill="freeze" begin="8a3b.click" /><animate id="11" attributeName="stroke-dashoffset" values="54.27;0" dur="0.54s" fill="freeze" begin="10.end" /></path></g></g></g></g></svg>