<svg xmlns="http://www.w3.org/2000/svg" viewBox="0 0 109 109" id="8a3b"><g fill="none" stroke="#666" stroke-width="6" stroke-linecap="round" stroke-linejoin="round"><g><g><path d="M23.13,15.62c2.78,1.7,7.18,6.98,7.87,9.62" /><path d="M10.37,35.08c1.91,0.7,4.7,0.19,6.64,0.02c6.07-0.52,13.48-1.58,18.75-2.14c2.25-0.24,4.32-0.79,6.58-0.29" /><path d="M17.73,48.56c1.24,0.39,3.13,0.16,4.41,0.02c3.54-0.39,7.24-0.84,11.49-1.67c1.41-0.28,3.11-0.43,4.52-0.16" /><path d="M18.98,61.08c1.12,0.38,2.86,0.14,4.01,0.03c3.58-0.35,8.95-1.32,12.56-2.01c0.83-0.16,2.36-0.06,3.22,0.11" /><g><path d="M17.64,73.9c0.74,0.65,1.12,1.46,1.15,2.44c0.78,3.63,1.68,9,2.47,13.9c0.17,1.03,0.33,2.04,0.49,3" /><path d="M19.31,74.87c6.43-1.25,11.49-2.38,16.83-3.25c2.68-0.44,4.13,0.11,3.52,3.01c-0.79,3.74-1.31,6.69-2.74,13.08" /><path d="M22.47,90.67c4.78-0.77,7.11-0.89,11.5-1.45c1.3-0.16,2.69-0.33,4.19-0.49" /></g></g><g><g><path d="M67.75,15.75c1,1.26,1.25,2.39,1.25,4.67c0,2.83,0,8.96,0,10.61" /></g><g p5:partial xmlns:p5="http://kanjivg.tagaini.net"><path d="M49.5,34c1.83,1.01,5.31-0.01,7.27-0.27c9.07-1.2,18.55-2.48,28.36-3.87c2.13-0.3,4.31-0.35,6.38,0.4" /><path d="M69.25,32.89c1.3,1.3,1.5,2.89,1.5,5.17c0,7.05,0,42.44,0,49.59" /><path d="M52.25,60.33c2.38,0.67,5.05,0.25,6.89,0.02c9.56-1.21,17.99-2.1,23.74-2.61c2.25-0.2,4.67-0.47,6.88,0.17" /><path d="M46.25,89.74c3.16,1.1,6.9,0.23,10.13-0.08c11.62-1.12,24.05-2.08,34.37-2.41c2.94-0.09,6.71-0.66,9.5,0.46" /></g></g></g></g><g fill="none" stroke="#000" stroke-width="3" stroke-linecap="round" stroke-linejoin="round"><path d="M23.13,15.62c2.78,1.7,7.18,6.98,7.87,9.62" stroke-dasharray="12.602" stroke-dashoffset="12.602"><animate attributeName="stroke-dashoffset" values="12.602;12.602;0" dur="0.126s" fill="freeze" begin="0s;8a3b.click" /></path><path d="M10.37,35.08c1.91,0.7,4.7,0.19,6.64,0.02c6.07-0.52,13.48-1.58,18.75-2.14c2.25-0.24,4.32-0.79,6.58-0.29" stroke-dasharray="32.192" stroke-dashoffset="32.192"><animate attributeName="stroke-dashoffset" values="32.192" fill="freeze" begin="8a3b.click" /><animate attributeName="stroke-dashoffset" values="32.192;32.192;0" keyTimes="0;0.281;1" dur="0.448s" fill="freeze" begin="0s;8a3b.click" /></path><path d="M17.73,48.56c1.24,0.39,3.13,0.16,4.41,0.02c3.54-0.39,7.24-0.84,11.49-1.67c1.41-0.28,3.11-0.43,4.52-0.16" stroke-dasharray="20.603" stroke-dashoffset="20.603"><animate attributeName="stroke-dashoffset" values="20.603" fill="freeze" begin="8a3b.click" /><animate attributeName="stroke-dashoffset" values="20.603;20.603;0" keyTimes="0;0.685;1" dur="0.654s" fill="freeze" begin="0s;8a3b.click" /></path><path d="M18.98,61.08c1.12,0.38,2.86,0.14,4.01,0.03c3.58-0.35,8.95-1.32,12.56-2.01c0.83-0.16,2.36-0.06,3.22,0.11" stroke-dasharray="19.998" stroke-dashoffset="19.998"><animate attributeName="stroke-dashoffset" values="19.998" fill="freeze" begin="8a3b.click" /><animate attributeName="stroke-dashoffset" values="19.998;19.998;0" keyTimes="0;0.766;1" dur="0.854s" fill="freeze" begin="0s;8a3b.click" /></path><path d="M17.64,73.9c0.74,0.65,1.12,1.46,1.15,2.44c0.78,3.63,1.68,9,2.47,13.9c0.17,1.03,0.33,2.04,0.49,3" stroke-dasharray="19.94" stroke-dashoffset="19.94"><animate attributeName="stroke-dashoffset" values="19.94" fill="freeze" begin="8a3b.click" /><animate attributeName="stroke-dashoffset" values="19.94;19.94;0" keyTimes="0;0.811;1" dur="1.053s" fill="freeze" begin="0s;8a3b.click" /></path><path d="M19.31,74.87c6.43-1.25,11.49-2.38,16.83-3.25c2.68-0.44,4.13,0.11,3.52,3.01c-0.79,3.74-1.31,6.69-2.74,13.08" stroke-dasharray="36.553" stroke-dashoffset="36.553"><animate attributeName="stroke-dashoffset" values="36.553" fill="freeze" begin="8a3b.click" /><animate attributeName="stroke-dashoffset" values="36.553;36.553;0" keyTimes="0;0.742;1" dur="1.419s" fill="freeze" begin="0s;8a3b.click" /></path><path d="M22.47,90.67c4.78-0.77,7.11-0.89,11.5-1.45c1.3-0.16,2.69-0.33,4.19-0.49" stroke-dasharray="15.812" stroke-dashoffset="15.812"><animate attributeName="stroke-dashoffset" values="15.812" fill="freeze" begin="8a3b.click" /><animate attributeName="stroke-dashoffset" values="15.812;15.812;0" keyTimes="0;0.9;1" dur="1.577s" fill="freeze" begin="0s;8a3b.click" /></path><path d="M67.75,15.75c1,1.26,1.25,2.39,1.25,4.67c0,2.83,0,8.96,0,10.61" stroke-dasharray="15.558" stroke-dashoffset="15.558"><animate attributeName="stroke-dashoffset" values="15.558" fill="freeze" begin="8a3b.click" /><animate attributeName="stroke-dashoffset" values="15.558;15.558;0" keyTimes="0;0.91;1" dur="1.733s" fill="freeze" begin="0s;8a3b.click" /></path><path d="M49.5,34c1.83,1.01,5.31-0.01,7.27-0.27c9.07-1.2,18.55-2.48,28.36-3.87c2.13-0.3,4.31-0.35,6.38,0.4" stroke-dasharray="42.474" stroke-dashoffset="42.474"><animate attributeName="stroke-dashoffset" values="42.474" fill="freeze" begin="8a3b.click" /><animate attributeName="stroke-dashoffset" values="42.474;42.474;0" keyTimes="0;0.803;1" dur="2.158s" fill="freeze" begin="0s;8a3b.click" /></path><path d="M69.25,32.89c1.3,1.3,1.5,2.89,1.5,5.17c0,7.05,0,42.44,0,49.59" stroke-dasharray="55.135" stroke-dashoffset="55.135"><animate attributeName="stroke-dashoffset" values="55.135" fill="freeze" begin="8a3b.click" /><animate attributeName="stroke-dashoffset" values="55.135;55.135;0" keyTimes="0;0.797;1" dur="2.709s" fill="freeze" begin="0s;8a3b.click" /></path><path d="M52.25,60.33c2.38,0.67,5.05,0.25,6.89,0.02c9.56-1.21,17.99-2.1,23.74-2.61c2.25-0.2,4.67-0.47,6.88,0.17" stroke-dasharray="37.749" stroke-dashoffset="37.749"><animate attributeName="stroke-dashoffset" values="37.749" fill="freeze" begin="8a3b.click" /><animate attributeName="stroke-dashoffset" values="37.749;37.749;0" keyTimes="0;0.878;1" dur="3.086s" fill="freeze" begin="0s;8a3b.click" /></path><path d="M46.25,89.74c3.16,1.1,6.9,0.23,10.13-0.08c11.62-1.12,24.05-2.08,34.37-2.41c2.94-0.09,6.71-0.66,9.5,0.46" stroke-dasharray="54.267" stroke-dashoffset="54.267"><animate attributeName="stroke-dashoffset" values="54.267" fill="freeze" begin="8a3b.click" /><animate attributeName="stroke-dashoffset" values="54.267;54.267;0" keyTimes="0;0.85;1" dur="3.629s" fill="freeze" begin="0s;8a3b.click" /></path></g></svg>