<svg xmlns="http://www.w3.org/2000/svg" width="109" height="109" viewBox="0 0 109 109" id="8a50"><g fill="none" stroke="#666" stroke-width="9" stroke-linecap="round" stroke-linejoin="round"><g><g><path d="M25.5,14.75c3.15,1.81,8.14,7.44,8.93,10.25" /><path d="M11.12,36.08c1.93,0.63,4.52,0.23,6.5,0.08c8.25-0.64,19.81-2.52,26.63-3.35c1.47-0.18,3.12-0.43,4.59-0.14" /><path d="M20.18,48.81c1.18,0.34,2.76,0.23,3.96,0.04c4.53-0.73,8.6-1.5,12.61-2.08c1.34-0.19,2.92-0.5,4.26-0.27" /><path d="M19.8,61.83c1.19,0.36,2.87,0.16,4.1,0.05c3.79-0.33,9.4-1.74,13.1-2.41c1.19-0.21,2.64-0.47,3.83-0.26" /><g><path d="M17.01,75.15c0.73,0.6,0.99,1.48,1.22,2.35c0.8,3.07,1.72,8.4,2.56,12.99c0.28,1.54,0.56,3,0.82,4.26" /><path d="M18.94,76.94c8.69-1.89,13.23-2.8,18.82-3.99c3.54-0.75,5.71-0.98,4.62,3.3c-0.8,3.16-1.64,6.7-3.08,11.76" /><path d="M22.42,92.25c6.19-1.27,9.94-2.18,15.85-3.09c1.08-0.17,2.22-0.33,3.46-0.5" /></g></g><g p4:phon="乍" xmlns:p4="http://kanjivg.tagaini.net"><g><path d="M66,13.5c0.05,0.83,0.24,2.16-0.1,3.31C63.75,24.25,57.75,37.25,48.56,48" /></g><path d="M62.5,31.72c2.12,0.28,3.89-0.14,5.28-0.32c9.85-1.27,14.22-2.52,21.48-4.26c2.25-0.54,5-0.89,6.96-0.52" /><path d="M70.16,34.21c0.94,0.94,1.28,2.17,1.28,3.63c0,5.04,0.02,35.54,0.02,51.79c0,3.43-0.06,5.94-0.09,7" /><path d="M72.82,51.94C78,51,83.62,50.12,89.86,48.81c1.36-0.29,2.89-0.43,4.37-0.07" /><path d="M72.49,71.69c3.49-0.41,9.26-1.32,17.78-2.67c1.61-0.26,3.35-0.41,4.97-0.04" /></g></g></g><g fill="none" stroke="#000" stroke-width="5" stroke-linecap="round" stroke-linejoin="round"><g><g><path d="M25.5,14.75c3.15,1.81,8.14,7.44,8.93,10.25" stroke-dasharray="13.79" stroke-dashoffset="13.79"><animate id="0" attributeName="stroke-dashoffset" values="13.79;0" dur="0.14s" fill="freeze" begin="0s;8a50.click" /></path><path d="M11.12,36.08c1.93,0.63,4.52,0.23,6.5,0.08c8.25-0.64,19.81-2.52,26.63-3.35c1.47-0.18,3.12-0.43,4.59-0.14" stroke-dasharray="38" stroke-dashoffset="38"><animate attributeName="stroke-dashoffset" values="38" fill="freeze" begin="8a50.click" /><animate id="1" attributeName="stroke-dashoffset" values="38;0" dur="0.38s" fill="freeze" begin="0.end" /></path><path d="M20.18,48.81c1.18,0.34,2.76,0.23,3.96,0.04c4.53-0.73,8.6-1.5,12.61-2.08c1.34-0.19,2.92-0.5,4.26-0.27" stroke-dasharray="21.06" stroke-dashoffset="21.06"><animate attributeName="stroke-dashoffset" values="21.06" fill="freeze" begin="8a50.click" /><animate id="2" attributeName="stroke-dashoffset" values="21.06;0" dur="0.21s" fill="freeze" begin="1.end" /></path><path d="M19.8,61.83c1.19,0.36,2.87,0.16,4.1,0.05c3.79-0.33,9.4-1.74,13.1-2.41c1.19-0.21,2.64-0.47,3.83-0.26" stroke-dasharray="21.31" stroke-dashoffset="21.31"><animate attributeName="stroke-dashoffset" values="21.31" fill="freeze" begin="8a50.click" /><animate id="3" attributeName="stroke-dashoffset" values="21.31;0" dur="0.21s" fill="freeze" begin="2.end" /></path><g><path d="M17.01,75.15c0.73,0.6,0.99,1.48,1.22,2.35c0.8,3.07,1.72,8.4,2.56,12.99c0.28,1.54,0.56,3,0.82,4.26" stroke-dasharray="20.28" stroke-dashoffset="20.28"><animate attributeName="stroke-dashoffset" values="20.28" fill="freeze" begin="8a50.click" /><animate id="4" attributeName="stroke-dashoffset" values="20.28;0" dur="0.2s" fill="freeze" begin="3.end" /></path><path d="M18.94,76.94c8.69-1.89,13.23-2.8,18.82-3.99c3.54-0.75,5.71-0.98,4.62,3.3c-0.8,3.16-1.64,6.7-3.08,11.76" stroke-dasharray="39.39" stroke-dashoffset="39.39"><animate attributeName="stroke-dashoffset" values="39.39" fill="freeze" begin="8a50.click" /><animate id="5" attributeName="stroke-dashoffset" values="39.39;0" dur="0.39s" fill="freeze" begin="4.end" /></path><path d="M22.42,92.25c6.19-1.27,9.94-2.18,15.85-3.09c1.08-0.17,2.22-0.33,3.46-0.5" stroke-dasharray="19.65" stroke-dashoffset="19.65"><animate attributeName="stroke-dashoffset" values="19.65" fill="freeze" begin="8a50.click" /><animate id="6" attributeName="stroke-dashoffset" values="19.65;0" dur="0.2s" fill="freeze" begin="5.end" /></path></g></g><g p4:phon="乍" xmlns:p4="http://kanjivg.tagaini.net"><g><path d="M66,13.5c0.05,0.83,0.24,2.16-0.1,3.31C63.75,24.25,57.75,37.25,48.56,48" stroke-dasharray="39.25" stroke-dashoffset="39.25"><animate attributeName="stroke-dashoffset" values="39.25" fill="freeze" begin="8a50.click" /><animate id="7" attributeName="stroke-dashoffset" values="39.25;0" dur="0.39s" fill="freeze" begin="6.end" /></path></g><path d="M62.5,31.72c2.12,0.28,3.89-0.14,5.28-0.32c9.85-1.27,14.22-2.52,21.48-4.26c2.25-0.54,5-0.89,6.96-0.52" stroke-dasharray="34.25" stroke-dashoffset="34.25"><animate attributeName="stroke-dashoffset" values="34.25" fill="freeze" begin="8a50.click" /><animate id="8" attributeName="stroke-dashoffset" values="34.25;0" dur="0.34s" fill="freeze" begin="7.end" /></path><path d="M70.16,34.21c0.94,0.94,1.28,2.17,1.28,3.63c0,5.04,0.02,35.54,0.02,51.79c0,3.43-0.06,5.94-0.09,7" stroke-dasharray="62.75" stroke-dashoffset="62.75"><animate attributeName="stroke-dashoffset" values="62.75" fill="freeze" begin="8a50.click" /><animate id="9" attributeName="stroke-dashoffset" values="62.75;0" dur="0.47s" fill="freeze" begin="8.end" /></path><path d="M72.82,51.94C78,51,83.62,50.12,89.86,48.81c1.36-0.29,2.89-0.43,4.37-0.07" stroke-dasharray="21.73" stroke-dashoffset="21.73"><animate attributeName="stroke-dashoffset" values="21.73" fill="freeze" begin="8a50.click" /><animate id="10" attributeName="stroke-dashoffset" values="21.73;0" dur="0.22s" fill="freeze" begin="9.end" /></path><path d="M72.49,71.69c3.49-0.41,9.26-1.32,17.78-2.67c1.61-0.26,3.35-0.41,4.97-0.04" stroke-dasharray="22.98" stroke-dashoffset="22.98"><animate attributeName="stroke-dashoffset" values="22.98" fill="freeze" begin="8a50.click" /><animate id="11" attributeName="stroke-dashoffset" values="22.98;0" dur="0.23s" fill="freeze" begin="10.end" /></path></g></g></g></svg>