<svg xmlns="http://www.w3.org/2000/svg" width="109" height="109" viewBox="0 0 109 109" id="8a6e"><g fill="none" stroke="#666" stroke-width="9" stroke-linecap="round" stroke-linejoin="round"><g><g><path d="M24.38,15.75c2.25,1.5,5.81,6.17,6.37,8.5" /><path d="M11.37,34.08c0.63,0.23,3.04,0.27,3.67,0.23c7.8-0.42,17.97-2.67,23.64-2.87c1.05-0.04,2.64,0.11,3.16,0.23" /><path d="M17.73,47.06c0.38,0.12,2.71,0.13,3.1,0.12c3.97-0.14,9.8-1.56,13.71-1.55c0.63,0,3.29,0.06,3.61,0.12" /><path d="M18.73,60.33c0.34,0.12,2.42,0.13,2.77,0.12c3.55-0.13,9.32-2.11,12.81-2.09c0.57,0,2.94,0.06,3.22,0.11" /><g><path d="M17.14,72.4c0.35,0.36,0.75,0.65,0.86,1.13c0.99,4.21,2.25,13.04,3.25,19.21" /><path d="M18.31,73.87c6.44-0.89,13.48-2.1,19.42-3c1.49-0.22,2.39,1.04,2.18,2.06c-0.89,4.25-1.66,8.22-3.24,15.28" /><path d="M21.47,90.05c4.8-0.54,10.6-0.97,17.19-1.81" /></g></g><g><g><path d="M66.5,20.25c0.07,0.75,0.26,1.97-0.14,3.01C63.9,29.7,55.47,43.38,42,52.02" /><path d="M60.25,13.25c1.98,0.66,3.36,1.61,4.09,2.37c7.21,7.53,21.22,24.22,25.91,28.3c1.75,1.52,4,2.18,5.75,2.61" /></g><g p5:partial xmlns:p5="http://kanjivg.tagaini.net"><path d="M51.22,49.91c0.69,0.5,2.94,0.18,3.64,0.03c3.25-0.68,17.2-2.05,25.02-2.57c1.07-0.07,2.03,0.1,2.91,0.52" /><path d="M66.74,51.42c0.74,1.24,0.74,1.98,0.74,2.97c0,6.92,0.37,28.52,0.19,35.44" /><path d="M51.27,69.5c0.75,0.48,3.24,0.29,4.02,0.21c8.03-0.84,15.68-1.59,25.11-2.46c0.94-0.09,3.01-0.2,4.42,0.23" /><path d="M45.19,91.52c0.62,0.27,3.82,0.05,4.87,0c12.68-0.53,25.06-2.31,40.7-2.97c1.68-0.07,3.7,0.45,4.54,0.87" /></g></g></g></g><g fill="none" stroke="#000" stroke-width="5" stroke-linecap="round" stroke-linejoin="round"><g><g><path d="M24.38,15.75c2.25,1.5,5.81,6.17,6.37,8.5" stroke-dasharray="10.76" stroke-dashoffset="10.76"><animate id="0" attributeName="stroke-dashoffset" values="10.76;0" dur="0.11s" fill="freeze" begin="0s;8a6e.click" /></path><path d="M11.37,34.08c0.63,0.23,3.04,0.27,3.67,0.23c7.8-0.42,17.97-2.67,23.64-2.87c1.05-0.04,2.64,0.11,3.16,0.23" stroke-dasharray="30.69" stroke-dashoffset="30.69"><animate attributeName="stroke-dashoffset" values="30.69" fill="freeze" begin="8a6e.click" /><animate id="1" attributeName="stroke-dashoffset" values="30.69;0" dur="0.31s" fill="freeze" begin="0.end" /></path><path d="M17.73,47.06c0.38,0.12,2.71,0.13,3.1,0.12c3.97-0.14,9.8-1.56,13.71-1.55c0.63,0,3.29,0.06,3.61,0.12" stroke-dasharray="20.53" stroke-dashoffset="20.53"><animate attributeName="stroke-dashoffset" values="20.53" fill="freeze" begin="8a6e.click" /><animate id="2" attributeName="stroke-dashoffset" values="20.53;0" dur="0.21s" fill="freeze" begin="1.end" /></path><path d="M18.73,60.33c0.34,0.12,2.42,0.13,2.77,0.12c3.55-0.13,9.32-2.11,12.81-2.09c0.57,0,2.94,0.06,3.22,0.11" stroke-dasharray="19" stroke-dashoffset="19"><animate attributeName="stroke-dashoffset" values="19" fill="freeze" begin="8a6e.click" /><animate id="3" attributeName="stroke-dashoffset" values="19;0" dur="0.19s" fill="freeze" begin="2.end" /></path><g><path d="M17.14,72.4c0.35,0.36,0.75,0.65,0.86,1.13c0.99,4.21,2.25,13.04,3.25,19.21" stroke-dasharray="20.93" stroke-dashoffset="20.93"><animate attributeName="stroke-dashoffset" values="20.93" fill="freeze" begin="8a6e.click" /><animate id="4" attributeName="stroke-dashoffset" values="20.93;0" dur="0.21s" fill="freeze" begin="3.end" /></path><path d="M18.31,73.87c6.44-0.89,13.48-2.1,19.42-3c1.49-0.22,2.39,1.04,2.18,2.06c-0.89,4.25-1.66,8.22-3.24,15.28" stroke-dasharray="38.78" stroke-dashoffset="38.78"><animate attributeName="stroke-dashoffset" values="38.78" fill="freeze" begin="8a6e.click" /><animate id="5" attributeName="stroke-dashoffset" values="38.78;0" dur="0.39s" fill="freeze" begin="4.end" /></path><path d="M21.47,90.05c4.8-0.54,10.6-0.97,17.19-1.81" stroke-dasharray="17.29" stroke-dashoffset="17.29"><animate attributeName="stroke-dashoffset" values="17.29" fill="freeze" begin="8a6e.click" /><animate id="6" attributeName="stroke-dashoffset" values="17.29;0" dur="0.17s" fill="freeze" begin="5.end" /></path></g></g><g><g><path d="M66.5,20.25c0.07,0.75,0.26,1.97-0.14,3.01C63.9,29.7,55.47,43.38,42,52.02" stroke-dasharray="41.26" stroke-dashoffset="41.26"><animate attributeName="stroke-dashoffset" values="41.26" fill="freeze" begin="8a6e.click" /><animate id="7" attributeName="stroke-dashoffset" values="41.26;0" dur="0.41s" fill="freeze" begin="6.end" /></path><path d="M60.25,13.25c1.98,0.66,3.36,1.61,4.09,2.37c7.21,7.53,21.22,24.22,25.91,28.3c1.75,1.52,4,2.18,5.75,2.61" stroke-dasharray="49.53" stroke-dashoffset="49.53"><animate attributeName="stroke-dashoffset" values="49.53" fill="freeze" begin="8a6e.click" /><animate id="8" attributeName="stroke-dashoffset" values="49.53;0" dur="0.5s" fill="freeze" begin="7.end" /></path></g><g p5:partial xmlns:p5="http://kanjivg.tagaini.net"><path d="M51.22,49.91c0.69,0.5,2.94,0.18,3.64,0.03c3.25-0.68,17.2-2.05,25.02-2.57c1.07-0.07,2.03,0.1,2.91,0.52" stroke-dasharray="31.85" stroke-dashoffset="31.85"><animate attributeName="stroke-dashoffset" values="31.85" fill="freeze" begin="8a6e.click" /><animate id="9" attributeName="stroke-dashoffset" values="31.85;0" dur="0.32s" fill="freeze" begin="8.end" /></path><path d="M66.74,51.42c0.74,1.24,0.74,1.98,0.74,2.97c0,6.92,0.37,28.52,0.19,35.44" stroke-dasharray="38.55" stroke-dashoffset="38.55"><animate attributeName="stroke-dashoffset" values="38.55" fill="freeze" begin="8a6e.click" /><animate id="10" attributeName="stroke-dashoffset" values="38.55;0" dur="0.39s" fill="freeze" begin="9.end" /></path><path d="M51.27,69.5c0.75,0.48,3.24,0.29,4.02,0.21c8.03-0.84,15.68-1.59,25.11-2.46c0.94-0.09,3.01-0.2,4.42,0.23" stroke-dasharray="33.75" stroke-dashoffset="33.75"><animate attributeName="stroke-dashoffset" values="33.75" fill="freeze" begin="8a6e.click" /><animate id="11" attributeName="stroke-dashoffset" values="33.75;0" dur="0.34s" fill="freeze" begin="10.end" /></path><path d="M45.19,91.52c0.62,0.27,3.82,0.05,4.87,0c12.68-0.53,25.06-2.31,40.7-2.97c1.68-0.07,3.7,0.45,4.54,0.87" stroke-dasharray="50.36" stroke-dashoffset="50.36"><animate attributeName="stroke-dashoffset" values="50.36" fill="freeze" begin="8a6e.click" /><animate id="12" attributeName="stroke-dashoffset" values="50.36;0" dur="0.5s" fill="freeze" begin="11.end" /></path></g></g></g></g></svg>