<svg xmlns="http://www.w3.org/2000/svg" width="109" height="109" viewBox="0 0 109 109" id="8a70"><g fill="none" stroke="#666" stroke-width="9" stroke-linecap="round" stroke-linejoin="round"><g><g><path d="M23.12,14.62c2.84,1.61,7.35,6.62,8.06,9.12" /><path d="M10.87,34.08c1.83,0.6,4.41,0.23,6.27,0.1c8.11-0.56,16.67-2.25,22.91-2.99c1.17-0.14,2.95-0.14,3.54-0.02" /><path d="M18.68,47.56c1.35,0.38,3.08,0.14,4.45-0.02C27.75,47,30.6,46.38,34.9,45.5c1.35-0.28,3-0.48,4.37-0.25" /><path d="M19.05,60.33c1.19,0.36,2.85,0.15,4.08,0.06c3.67-0.26,8.14-1.28,12.86-1.97c1.16-0.17,2.44-0.16,3.59,0.04" /><g><path d="M17.26,72.97c0.89,0.83,1.07,2.2,1.29,3.29c0.63,3.16,1.26,7.83,2.07,12.21c0.31,1.65,0.59,3.21,0.83,4.55" /><path d="M18.83,74.07c5.94-0.73,12.53-1.67,18.18-2.45c3.17-0.44,4.51-0.06,3.81,3.28c-0.73,3.45-1.61,7.27-3.01,12.87" /><path d="M22.24,90.61c3.98-0.4,8.33-0.99,13.51-1.5c1.25-0.12,2.53-0.26,3.85-0.41" /></g></g><g p4:phon="吉" xmlns:p4="http://kanjivg.tagaini.net"><g><path d="M47.74,35.83c2.13,0.55,5.46,0.4,7.64,0.1c9.49-1.3,23.12-2.8,33.62-3.32c2.55-0.12,5.29-0.31,7.74,0.44" /><path d="M68.98,13.26c1.13,1.13,1.51,2.37,1.51,3.89c0,6.35,0.01,23.35,0.01,36.05" /><path d="M51.31,55.44c1.83,0.64,4.29,0.53,6.19,0.33c8.52-0.88,17.35-1.94,29.24-2.79c2-0.14,4.01,0.07,5.96,0.44" /></g><g><path d="M53.98,68.06c0.98,0.98,1.26,2.1,1.48,3.46c0.91,5.61,1.89,10.89,2.66,16.95c0.27,2.11,0.51,4.15,0.72,6" /><path d="M56.17,69.87c9.05-1.13,21.31-2.38,28.08-3.14c4.06-0.46,6.72-0.14,5.85,4.68c-0.92,5.15-1.6,9.34-3.33,17.56" /><path d="M59.74,92.46c6.95-0.8,15.41-1.64,24.3-2.38c1.68-0.14,3.36-0.02,5.04-0.15" /></g></g></g></g><g fill="none" stroke="#000" stroke-width="5" stroke-linecap="round" stroke-linejoin="round"><g><g><path d="M23.12,14.62c2.84,1.61,7.35,6.62,8.06,9.12" stroke-dasharray="12.34" stroke-dashoffset="12.34"><animate id="0" attributeName="stroke-dashoffset" values="12.34;0" dur="0.12s" fill="freeze" begin="0s;8a70.click" /></path><path d="M10.87,34.08c1.83,0.6,4.41,0.23,6.27,0.1c8.11-0.56,16.67-2.25,22.91-2.99c1.17-0.14,2.95-0.14,3.54-0.02" stroke-dasharray="32.97" stroke-dashoffset="32.97"><animate attributeName="stroke-dashoffset" values="32.97" fill="freeze" begin="8a70.click" /><animate id="1" attributeName="stroke-dashoffset" values="32.97;0" dur="0.33s" fill="freeze" begin="0.end" /></path><path d="M18.68,47.56c1.35,0.38,3.08,0.14,4.45-0.02C27.75,47,30.6,46.38,34.9,45.5c1.35-0.28,3-0.48,4.37-0.25" stroke-dasharray="20.83" stroke-dashoffset="20.83"><animate attributeName="stroke-dashoffset" values="20.83" fill="freeze" begin="8a70.click" /><animate id="2" attributeName="stroke-dashoffset" values="20.83;0" dur="0.21s" fill="freeze" begin="1.end" /></path><path d="M19.05,60.33c1.19,0.36,2.85,0.15,4.08,0.06c3.67-0.26,8.14-1.28,12.86-1.97c1.16-0.17,2.44-0.16,3.59,0.04" stroke-dasharray="20.72" stroke-dashoffset="20.72"><animate attributeName="stroke-dashoffset" values="20.72" fill="freeze" begin="8a70.click" /><animate id="3" attributeName="stroke-dashoffset" values="20.72;0" dur="0.21s" fill="freeze" begin="2.end" /></path><g><path d="M17.26,72.97c0.89,0.83,1.07,2.2,1.29,3.29c0.63,3.16,1.26,7.83,2.07,12.21c0.31,1.65,0.59,3.21,0.83,4.55" stroke-dasharray="20.61" stroke-dashoffset="20.61"><animate attributeName="stroke-dashoffset" values="20.61" fill="freeze" begin="8a70.click" /><animate id="4" attributeName="stroke-dashoffset" values="20.61;0" dur="0.21s" fill="freeze" begin="3.end" /></path><path d="M18.83,74.07c5.94-0.73,12.53-1.67,18.18-2.45c3.17-0.44,4.51-0.06,3.81,3.28c-0.73,3.45-1.61,7.27-3.01,12.87" stroke-dasharray="38.26" stroke-dashoffset="38.26"><animate attributeName="stroke-dashoffset" values="38.26" fill="freeze" begin="8a70.click" /><animate id="5" attributeName="stroke-dashoffset" values="38.26;0" dur="0.38s" fill="freeze" begin="4.end" /></path><path d="M22.24,90.61c3.98-0.4,8.33-0.99,13.51-1.5c1.25-0.12,2.53-0.26,3.85-0.41" stroke-dasharray="17.47" stroke-dashoffset="17.47"><animate attributeName="stroke-dashoffset" values="17.47" fill="freeze" begin="8a70.click" /><animate id="6" attributeName="stroke-dashoffset" values="17.47;0" dur="0.17s" fill="freeze" begin="5.end" /></path></g></g><g p4:phon="吉" xmlns:p4="http://kanjivg.tagaini.net"><g><path d="M47.74,35.83c2.13,0.55,5.46,0.4,7.64,0.1c9.49-1.3,23.12-2.8,33.62-3.32c2.55-0.12,5.29-0.31,7.74,0.44" stroke-dasharray="49.27" stroke-dashoffset="49.27"><animate attributeName="stroke-dashoffset" values="49.27" fill="freeze" begin="8a70.click" /><animate id="7" attributeName="stroke-dashoffset" values="49.27;0" dur="0.49s" fill="freeze" begin="6.end" /></path><path d="M68.98,13.26c1.13,1.13,1.51,2.37,1.51,3.89c0,6.35,0.01,23.35,0.01,36.05" stroke-dasharray="40.35" stroke-dashoffset="40.35"><animate attributeName="stroke-dashoffset" values="40.35" fill="freeze" begin="8a70.click" /><animate id="8" attributeName="stroke-dashoffset" values="40.35;0" dur="0.4s" fill="freeze" begin="7.end" /></path><path d="M51.31,55.44c1.83,0.64,4.29,0.53,6.19,0.33c8.52-0.88,17.35-1.94,29.24-2.79c2-0.14,4.01,0.07,5.96,0.44" stroke-dasharray="41.61" stroke-dashoffset="41.61"><animate attributeName="stroke-dashoffset" values="41.61" fill="freeze" begin="8a70.click" /><animate id="9" attributeName="stroke-dashoffset" values="41.61;0" dur="0.42s" fill="freeze" begin="8.end" /></path></g><g><path d="M53.98,68.06c0.98,0.98,1.26,2.1,1.48,3.46c0.91,5.61,1.89,10.89,2.66,16.95c0.27,2.11,0.51,4.15,0.72,6" stroke-dasharray="27.04" stroke-dashoffset="27.04"><animate attributeName="stroke-dashoffset" values="27.04" fill="freeze" begin="8a70.click" /><animate id="10" attributeName="stroke-dashoffset" values="27.04;0" dur="0.27s" fill="freeze" begin="9.end" /></path><path d="M56.17,69.87c9.05-1.13,21.31-2.38,28.08-3.14c4.06-0.46,6.72-0.14,5.85,4.68c-0.92,5.15-1.6,9.34-3.33,17.56" stroke-dasharray="55.75" stroke-dashoffset="55.75"><animate attributeName="stroke-dashoffset" values="55.75" fill="freeze" begin="8a70.click" /><animate id="11" attributeName="stroke-dashoffset" values="55.75;0" dur="0.56s" fill="freeze" begin="10.end" /></path><path d="M59.74,92.46c6.95-0.8,15.41-1.64,24.3-2.38c1.68-0.14,3.36-0.02,5.04-0.15" stroke-dasharray="29.46" stroke-dashoffset="29.46"><animate attributeName="stroke-dashoffset" values="29.46" fill="freeze" begin="8a70.click" /><animate id="12" attributeName="stroke-dashoffset" values="29.46;0" dur="0.29s" fill="freeze" begin="11.end" /></path></g></g></g></g></svg>