<svg xmlns="http://www.w3.org/2000/svg" viewBox="0 0 109 109" id="8a98"><g fill="none" stroke="#666" stroke-width="6" stroke-linecap="round" stroke-linejoin="round"><g><g><path d="M21.8,14.75c2.52,1.5,6.25,6.42,6.88,8.75" /><path d="M11.12,32.68c1.57,0.68,4.17,0.51,5.77,0.36c7.18-0.69,14.21-2.76,19.03-3.74c1.04-0.21,2.4-0.12,2.92,0.02" /><path d="M15.93,46.06c1.4,0.4,3.03,0.19,4.47,0c5.06-0.65,10.31-2.22,13.34-2.68c0.99-0.15,2.28-0.56,3.29-0.38" /><path d="M17.55,58.13c0.98,0.37,2.79,0.52,3.83,0.33c4.37-0.83,9.12-2.26,12.27-2.92c0.91-0.19,2.26-0.57,3.19-0.37" /><g><path d="M16.51,73.28c0.77,0.81,0.93,2.05,1.12,3.08c0.62,3.3,1.31,8.55,1.96,13.14c0.24,1.72,0.48,3.36,0.71,4.76" /><path d="M18.54,74.9c6.8-1.51,11.18-2.72,16.6-3.74c2.78-0.52,4.17,0,3.5,2.98c-0.78,3.51-1.59,7.58-2.98,13.46" /><path d="M20.83,91.27c3.74-0.4,8.04-1.34,12.88-2.11c1.35-0.21,2.75-0.42,4.19-0.59" /></g></g><g p4:phon="秀" xmlns:p4="http://kanjivg.tagaini.net"><g><g><path d="M79.8,11.75c-0.17,0.88-0.92,1.69-1.79,2.14c-5.57,2.89-14.3,5.81-25.41,8.55" /></g><g><path d="M45.61,33.29c1.64,0.68,5.01,0.3,6.78,0.05c8.85-1.25,23.86-3.59,34.38-4.73c2.09-0.23,4.53-0.24,6.57,0.27" /><path d="M68.07,20.7c0.87,0.87,1.2,1.93,1.2,3.16c0,0.61,0.07,11.66,0.07,19.16c0,2.32-0.06,4.29-0.09,5.48" /><path d="M66.6,31.32c0,0.81-0.64,2.63-1.53,3.87C60,42.25,54.53,48.63,45.23,53.86" /><path d="M71.62,32.12c2.58,1.82,10.41,8.31,16.12,12.32c1.87,1.31,3.51,2.31,6.02,3.1" /></g></g><g><g><path d="M65.01,58.27c0.41,0.76,0.4,2.01-0.04,3.2C61.25,71.5,56.25,84.5,42.85,95.17" /></g><path d="M54.1,54.95c1.7,0.78,4.38,0.74,6.19,0.39c6.96-1.34,11.21-2.22,18.1-3.56c1.81-0.35,2.21,1.48,1.71,2.74C72.5,73.75,69,69,88.07,65.62c2.66-0.47,3.43,1.63,2.9,3.73c-1.83,7.39-6.44,18.84-11.72,24.97c-3.15,3.65-5.63,2.3-7.87-0.85" /></g></g></g></g><g fill="none" stroke="#000" stroke-width="3" stroke-linecap="round" stroke-linejoin="round"><path d="M21.8,14.75c2.52,1.5,6.25,6.42,6.88,8.75" stroke-dasharray="11.288" stroke-dashoffset="11.288"><animate attributeName="stroke-dashoffset" values="11.288;11.288;0" dur="0.226s" fill="freeze" begin="0s;8a98.click" /></path><path d="M11.12,32.68c1.57,0.68,4.17,0.51,5.77,0.36c7.18-0.69,14.21-2.76,19.03-3.74c1.04-0.21,2.4-0.12,2.92,0.02" stroke-dasharray="28.181" stroke-dashoffset="28.181"><animate attributeName="stroke-dashoffset" values="28.181" fill="freeze" begin="8a98.click" /><animate attributeName="stroke-dashoffset" values="28.181;28.181;0" keyTimes="0;0.445;1" dur="0.508s" fill="freeze" begin="0s;8a98.click" /></path><path d="M15.93,46.06c1.4,0.4,3.03,0.19,4.47,0c5.06-0.65,10.31-2.22,13.34-2.68c0.99-0.15,2.28-0.56,3.29-0.38" stroke-dasharray="21.444" stroke-dashoffset="21.444"><animate attributeName="stroke-dashoffset" values="21.444" fill="freeze" begin="8a98.click" /><animate attributeName="stroke-dashoffset" values="21.444;21.444;0" keyTimes="0;0.704;1" dur="0.722s" fill="freeze" begin="0s;8a98.click" /></path><path d="M17.55,58.13c0.98,0.37,2.79,0.52,3.83,0.33c4.37-0.83,9.12-2.26,12.27-2.92c0.91-0.19,2.26-0.57,3.19-0.37" stroke-dasharray="19.727" stroke-dashoffset="19.727"><animate attributeName="stroke-dashoffset" values="19.727" fill="freeze" begin="8a98.click" /><animate attributeName="stroke-dashoffset" values="19.727;19.727;0" keyTimes="0;0.786;1" dur="0.919s" fill="freeze" begin="0s;8a98.click" /></path><path d="M16.51,73.28c0.77,0.81,0.93,2.05,1.12,3.08c0.62,3.3,1.31,8.55,1.96,13.14c0.24,1.72,0.48,3.36,0.71,4.76" stroke-dasharray="21.427" stroke-dashoffset="21.427"><animate attributeName="stroke-dashoffset" values="21.427" fill="freeze" begin="8a98.click" /><animate attributeName="stroke-dashoffset" values="21.427;21.427;0" keyTimes="0;0.811;1" dur="1.133s" fill="freeze" begin="0s;8a98.click" /></path><path d="M18.54,74.9c6.8-1.51,11.18-2.72,16.6-3.74c2.78-0.52,4.17,0,3.5,2.98c-0.78,3.51-1.59,7.58-2.98,13.46" stroke-dasharray="36.933" stroke-dashoffset="36.933"><animate attributeName="stroke-dashoffset" values="36.933" fill="freeze" begin="8a98.click" /><animate attributeName="stroke-dashoffset" values="36.933;36.933;0" keyTimes="0;0.754;1" dur="1.502s" fill="freeze" begin="0s;8a98.click" /></path><path d="M20.83,91.27c3.74-0.4,8.04-1.34,12.88-2.11c1.35-0.21,2.75-0.42,4.19-0.59" stroke-dasharray="17.286" stroke-dashoffset="17.286"><animate attributeName="stroke-dashoffset" values="17.286" fill="freeze" begin="8a98.click" /><animate attributeName="stroke-dashoffset" values="17.286;17.286;0" keyTimes="0;0.897;1" dur="1.675s" fill="freeze" begin="0s;8a98.click" /></path><path d="M79.8,11.75c-0.17,0.88-0.92,1.69-1.79,2.14c-5.57,2.89-14.3,5.81-25.41,8.55" stroke-dasharray="29.745" stroke-dashoffset="29.745"><animate attributeName="stroke-dashoffset" values="29.745" fill="freeze" begin="8a98.click" /><animate attributeName="stroke-dashoffset" values="29.745;29.745;0" keyTimes="0;0.849;1" dur="1.972s" fill="freeze" begin="0s;8a98.click" /></path><path d="M45.61,33.29c1.64,0.68,5.01,0.3,6.78,0.05c8.85-1.25,23.86-3.59,34.38-4.73c2.09-0.23,4.53-0.24,6.57,0.27" stroke-dasharray="48.154" stroke-dashoffset="48.154"><animate attributeName="stroke-dashoffset" values="48.154" fill="freeze" begin="8a98.click" /><animate attributeName="stroke-dashoffset" values="48.154;48.154;0" keyTimes="0;0.804;1" dur="2.454s" fill="freeze" begin="0s;8a98.click" /></path><path d="M68.07,20.7c0.87,0.87,1.2,1.93,1.2,3.16c0,0.61,0.07,11.66,0.07,19.16c0,2.32-0.06,4.29-0.09,5.48" stroke-dasharray="28.118" stroke-dashoffset="28.118"><animate attributeName="stroke-dashoffset" values="28.118" fill="freeze" begin="8a98.click" /><animate attributeName="stroke-dashoffset" values="28.118;28.118;0" keyTimes="0;0.897;1" dur="2.735s" fill="freeze" begin="0s;8a98.click" /></path><path d="M66.6,31.32c0,0.81-0.64,2.63-1.53,3.87C60,42.25,54.53,48.63,45.23,53.86" stroke-dasharray="31.696" stroke-dashoffset="31.696"><animate attributeName="stroke-dashoffset" values="31.696" fill="freeze" begin="8a98.click" /><animate attributeName="stroke-dashoffset" values="31.696;31.696;0" keyTimes="0;0.896;1" dur="3.052s" fill="freeze" begin="0s;8a98.click" /></path><path d="M71.62,32.12c2.58,1.82,10.41,8.31,16.12,12.32c1.87,1.31,3.51,2.31,6.02,3.1" stroke-dasharray="27.094" stroke-dashoffset="27.094"><animate attributeName="stroke-dashoffset" values="27.094" fill="freeze" begin="8a98.click" /><animate attributeName="stroke-dashoffset" values="27.094;27.094;0" keyTimes="0;0.918;1" dur="3.323s" fill="freeze" begin="0s;8a98.click" /></path><path d="M65.01,58.27c0.41,0.76,0.4,2.01-0.04,3.2C61.25,71.5,56.25,84.5,42.85,95.17" stroke-dasharray="44.178" stroke-dashoffset="44.178"><animate attributeName="stroke-dashoffset" values="44.178" fill="freeze" begin="8a98.click" /><animate attributeName="stroke-dashoffset" values="44.178;44.178;0" keyTimes="0;0.883;1" dur="3.765s" fill="freeze" begin="0s;8a98.click" /></path><path d="M54.1,54.95c1.7,0.78,4.38,0.74,6.19,0.39c6.96-1.34,11.21-2.22,18.1-3.56c1.81-0.35,2.21,1.48,1.71,2.74C72.5,73.75,69,69,88.07,65.62c2.66-0.47,3.43,1.63,2.9,3.73c-1.83,7.39-6.44,18.84-11.72,24.97c-3.15,3.65-5.63,2.3-7.87-0.85" stroke-dasharray="102.03" stroke-dashoffset="102.03"><animate attributeName="stroke-dashoffset" values="102.03" fill="freeze" begin="8a98.click" /><animate attributeName="stroke-dashoffset" values="102.03;102.03;0" keyTimes="0;0.831;1" dur="4.532s" fill="freeze" begin="0s;8a98.click" /></path></g></svg>