<svg xmlns="http://www.w3.org/2000/svg" width="109" height="109" viewBox="0 0 109 109" id="8aa4"><g fill="none" stroke="#666" stroke-width="6" stroke-linecap="round" stroke-linejoin="round"><g><g><path d="M22.75,11.5c3.15,1.85,8.14,7.62,8.93,10.5" /><path d="M11.62,32.08c0.71,0.23,3.4,0.31,4.1,0.23c9.15-1.06,17.03-2.44,23.83-3.37c1.17-0.16,2.95-0.14,3.54-0.02" /><path d="M15.68,45.06c0.95,0.19,1.95,0.31,3.47,0.12c5.22-0.66,10.17-1.3,14.59-2.3c1.14-0.26,2.64-0.38,4.04-0.13" /><path d="M16.3,58.08c1.2,0.17,2.21,0.22,3.1,0.12c5.11-0.58,11.23-1.7,15.33-2.34c0.63-0.1,2.54-0.19,2.85-0.14" /><g><path d="M15.26,71.9c0.9,0.84,1.21,2.33,1.36,3.47c0.75,5.88,1.23,9.84,1.8,15.34c0.14,1.39,0.29,2.75,0.44,4.04" /><path d="M17.19,73.62c6.43-0.79,11.37-1.79,17.19-2.69c3.34-0.51,4.93-0.13,4.18,3.43c-0.85,4.04-2.06,8.64-3.25,15.11" /><path d="M19.92,92.05c4.52-0.46,8.7-0.83,14.61-1.44c1.12-0.11,2.27-0.24,3.44-0.37" /></g></g><g p4:phon="呉" xmlns:p4="http://kanjivg.tagaini.net"><g><g><path d="M57.96,16.45c0.92,0.92,1.36,1.85,1.49,2.9c0.67,5.27,1.48,9.76,2.16,14.91c0.2,1.51,0.38,2.94,0.54,4.2" /><path d="M60.31,17.65c8.06-1.22,18.66-2.18,24.19-2.67c2.78-0.25,4.97,0.73,4.23,3.8c-0.99,4.12-2.59,8.41-4.01,14.66" /><path d="M62.5,35.9c4.11-0.46,14.02-1.11,21.26-1.33c1.58-0.05,3.05-0.08,4.32-0.08" /></g><path d="M50.75,32.49c0.94,0.95,1.41,2.15,1.42,3.63c0.04,3.13,0.04,10.38-0.02,14.71c-0.03,1.93,0.6,2.49,2.6,2.14c6.99-1.22,24.33-3.39,29.26-3.74c3.11-0.22,4.11,0.53,3.14,4.17c-0.94,3.5-2.15,6.85-2.78,10.85" /></g><g><path d="M43.25,67.7c2.38,0.68,5.33,0.49,7.75,0.31c14.84-1.13,29.05-2.54,41-2.92c2.37-0.08,4.69-0.17,7,0.46" /><g><g><path d="M61.96,76.64c0.04,0.86-0.17,2.08-0.71,2.86c-2.75,4-7.87,9.62-15.73,16.46" /></g><g><path d="M80.07,75.58c5.5,3.24,14.71,13.84,16.09,18.88" /></g></g></g></g></g></g><g fill="none" stroke="#000" stroke-width="3" stroke-linecap="round" stroke-linejoin="round"><path d="M22.75,11.5c3.15,1.85,8.14,7.62,8.93,10.5" stroke-dasharray="13.978" stroke-dashoffset="13.978"><animate attributeName="stroke-dashoffset" values="13.978;13.978;0" dur="0.14s" fill="freeze" begin="0s;8aa4.click" /></path><path d="M11.62,32.08c0.71,0.23,3.4,0.31,4.1,0.23c9.15-1.06,17.03-2.44,23.83-3.37c1.17-0.16,2.95-0.14,3.54-0.02" stroke-dasharray="31.737" stroke-dashoffset="31.737"><animate attributeName="stroke-dashoffset" values="31.737" fill="freeze" begin="8aa4.click" /><animate attributeName="stroke-dashoffset" values="31.737;31.737;0" keyTimes="0;0.306;1" dur="0.457s" fill="freeze" begin="0s;8aa4.click" /></path><path d="M15.68,45.06c0.95,0.19,1.95,0.31,3.47,0.12c5.22-0.66,10.17-1.3,14.59-2.3c1.14-0.26,2.64-0.38,4.04-0.13" stroke-dasharray="22.334" stroke-dashoffset="22.334"><animate attributeName="stroke-dashoffset" values="22.334" fill="freeze" begin="8aa4.click" /><animate attributeName="stroke-dashoffset" values="22.334;22.334;0" keyTimes="0;0.672;1" dur="0.68s" fill="freeze" begin="0s;8aa4.click" /></path><path d="M16.3,58.08c1.2,0.17,2.21,0.22,3.1,0.12c5.11-0.58,11.23-1.7,15.33-2.34c0.63-0.1,2.54-0.19,2.85-0.14" stroke-dasharray="21.477" stroke-dashoffset="21.477"><animate attributeName="stroke-dashoffset" values="21.477" fill="freeze" begin="8aa4.click" /><animate attributeName="stroke-dashoffset" values="21.477;21.477;0" keyTimes="0;0.76;1" dur="0.895s" fill="freeze" begin="0s;8aa4.click" /></path><path d="M15.26,71.9c0.9,0.84,1.21,2.33,1.36,3.47c0.75,5.88,1.23,9.84,1.8,15.34c0.14,1.39,0.29,2.75,0.44,4.04" stroke-dasharray="23.309" stroke-dashoffset="23.309"><animate attributeName="stroke-dashoffset" values="23.309" fill="freeze" begin="8aa4.click" /><animate attributeName="stroke-dashoffset" values="23.309;23.309;0" keyTimes="0;0.793;1" dur="1.128s" fill="freeze" begin="0s;8aa4.click" /></path><path d="M17.19,73.62c6.43-0.79,11.37-1.79,17.19-2.69c3.34-0.51,4.93-0.13,4.18,3.43c-0.85,4.04-2.06,8.64-3.25,15.11" stroke-dasharray="40.048" stroke-dashoffset="40.048"><animate attributeName="stroke-dashoffset" values="40.048" fill="freeze" begin="8aa4.click" /><animate attributeName="stroke-dashoffset" values="40.048;40.048;0" keyTimes="0;0.738;1" dur="1.528s" fill="freeze" begin="0s;8aa4.click" /></path><path d="M19.92,92.05c4.52-0.46,8.7-0.83,14.61-1.44c1.12-0.11,2.27-0.24,3.44-0.37" stroke-dasharray="18.142" stroke-dashoffset="18.142"><animate attributeName="stroke-dashoffset" values="18.142" fill="freeze" begin="8aa4.click" /><animate attributeName="stroke-dashoffset" values="18.142;18.142;0" keyTimes="0;0.894;1" dur="1.709s" fill="freeze" begin="0s;8aa4.click" /></path><path d="M57.96,16.45c0.92,0.92,1.36,1.85,1.49,2.9c0.67,5.27,1.48,9.76,2.16,14.91c0.2,1.51,0.38,2.94,0.54,4.2" stroke-dasharray="22.627" stroke-dashoffset="22.627"><animate attributeName="stroke-dashoffset" values="22.627" fill="freeze" begin="8aa4.click" /><animate attributeName="stroke-dashoffset" values="22.627;22.627;0" keyTimes="0;0.883;1" dur="1.935s" fill="freeze" begin="0s;8aa4.click" /></path><path d="M60.31,17.65c8.06-1.22,18.66-2.18,24.19-2.67c2.78-0.25,4.97,0.73,4.23,3.8c-0.99,4.12-2.59,8.41-4.01,14.66" stroke-dasharray="46.568" stroke-dashoffset="46.568"><animate attributeName="stroke-dashoffset" values="46.568" fill="freeze" begin="8aa4.click" /><animate attributeName="stroke-dashoffset" values="46.568;46.568;0" keyTimes="0;0.806;1" dur="2.401s" fill="freeze" begin="0s;8aa4.click" /></path><path d="M62.5,35.9c4.11-0.46,14.02-1.11,21.26-1.33c1.58-0.05,3.05-0.08,4.32-0.08" stroke-dasharray="25.627" stroke-dashoffset="25.627"><animate attributeName="stroke-dashoffset" values="25.627" fill="freeze" begin="8aa4.click" /><animate attributeName="stroke-dashoffset" values="25.627;25.627;0" keyTimes="0;0.904;1" dur="2.657s" fill="freeze" begin="0s;8aa4.click" /></path><path d="M50.75,32.49c0.94,0.95,1.41,2.15,1.42,3.63c0.04,3.13,0.04,10.38-0.02,14.71c-0.03,1.93,0.6,2.49,2.6,2.14c6.99-1.22,24.33-3.39,29.26-3.74c3.11-0.22,4.11,0.53,3.14,4.17c-0.94,3.5-2.15,6.85-2.78,10.85" stroke-dasharray="70.553" stroke-dashoffset="70.553"><animate attributeName="stroke-dashoffset" values="70.553" fill="freeze" begin="8aa4.click" /><animate attributeName="stroke-dashoffset" values="70.553;70.553;0" keyTimes="0;0.834;1" dur="3.187s" fill="freeze" begin="0s;8aa4.click" /></path><path d="M43.25,67.7c2.38,0.68,5.33,0.49,7.75,0.31c14.84-1.13,29.05-2.54,41-2.92c2.37-0.08,4.69-0.17,7,0.46" stroke-dasharray="55.948" stroke-dashoffset="55.948"><animate attributeName="stroke-dashoffset" values="55.948" fill="freeze" begin="8aa4.click" /><animate attributeName="stroke-dashoffset" values="55.948;55.948;0" keyTimes="0;0.851;1" dur="3.746s" fill="freeze" begin="0s;8aa4.click" /></path><path d="M61.96,76.64c0.04,0.86-0.17,2.08-0.71,2.86c-2.75,4-7.87,9.62-15.73,16.46" stroke-dasharray="25.813" stroke-dashoffset="25.813"><animate attributeName="stroke-dashoffset" values="25.813" fill="freeze" begin="8aa4.click" /><animate attributeName="stroke-dashoffset" values="25.813;25.813;0" keyTimes="0;0.936;1" dur="4.004s" fill="freeze" begin="0s;8aa4.click" /></path><path d="M80.07,75.58c5.5,3.24,14.71,13.84,16.09,18.88" stroke-dasharray="25.138" stroke-dashoffset="25.138"><animate attributeName="stroke-dashoffset" values="25.138" fill="freeze" begin="8aa4.click" /><animate attributeName="stroke-dashoffset" values="25.138;25.138;0" keyTimes="0;0.941;1" dur="4.255s" fill="freeze" begin="0s;8aa4.click" /></path></g></svg>