<svg xmlns="http://www.w3.org/2000/svg" width="109" height="109" viewBox="0 0 109 109" id="8abf"><g fill="none" stroke="#666" stroke-width="9" stroke-linecap="round" stroke-linejoin="round"><g><g><path d="M23.12,15.62c2.43,1.43,6.27,5.89,6.88,8.12" /><path d="M11.12,33.08c1.51,0.56,3.69,0.25,5.26,0.13c6.51-0.49,13.87-1.33,19.48-2.35c1.77-0.32,3.89-0.48,5.49-0.19" /><path d="M17.23,46.81c1.09,0.35,2.54,0.15,3.67,0.05c4.06-0.36,9.18-1.45,12.49-2.06c1.24-0.23,2.51-0.29,3.76-0.05" /><path d="M17.48,59.33c1.09,0.37,2.76,0.14,3.89,0.04c3.35-0.28,9.19-1.22,12.04-1.83c1.33-0.28,2.77-0.35,4.12-0.08" /><g><path d="M16.64,72.15c0.79,0.79,1.27,1.99,1.32,2.83c0.71,3.51,1.31,8.41,2,13.15c0.18,1.23,0.36,2.44,0.55,3.62" /><path d="M18.31,73.12c6.44-0.89,12.23-2.1,18.17-3c1.49-0.22,2.64,1.29,2.43,2.31c-0.89,4.25-1.66,6.72-3.24,13.78" /><path d="M21.22,89.05c4.1-0.46,8.02-1.03,13.18-1.7c0.88-0.12,1.8-0.23,2.77-0.35" /></g></g><g p4:phon="周" xmlns:p4="http://kanjivg.tagaini.net"><g><path d="M50.38,21.13c0.75,0.75,1.39,1.99,1.42,3.48C52.5,63.12,50,80.25,39.5,93.25" /><path d="M52.6,22.85c5.93-0.84,28.45-3.6,35.02-4.43c4.26-0.54,5.7,0.83,5.7,4.59c0,2.42,0.18,62.17,0.18,67.73c0,11.13-5,4.76-8.32,1.34" /></g><g><g><path d="M59.91,39.07c0.96,0.36,2.71,0.31,3.67,0.22c3.1-0.28,13.36-2.23,17.19-2.4c1.6-0.07,2.56,0.06,3.36,0.23" /><path d="M70.71,26.37c0.69,0.34,1.11,1.65,1.25,2.4c0.14,0.75,0.01,17.58-0.13,22.36" /><path d="M57.33,52.75c1.29,0.5,3.02,0.53,4.56,0.34c6.46-0.8,15.56-2.46,21.22-2.8c1.33-0.08,2.79-0.23,4.11,0.05" /></g><g><path d="M60.28,61.82c0.97,0.68,1.68,1.61,2,2.92c0.76,3.19,1.49,6.96,2.34,11.88c0.14,0.83,0.29,1.69,0.45,2.59" /><path d="M62.29,62.79c6.11-1.27,13.13-2.33,16.96-2.77c2.42-0.28,3.5,1.1,3.21,2.88c-0.58,3.6-1.28,6.46-2.64,11.78" /><path d="M65.26,76.92c3.98-0.53,9.49-1.02,13.5-1.25c1.02-0.06,1.96-0.1,2.77-0.12" /></g></g></g></g></g><g fill="none" stroke="#000" stroke-width="5" stroke-linecap="round" stroke-linejoin="round"><g><g><path d="M23.12,15.62c2.43,1.43,6.27,5.89,6.88,8.12" stroke-dasharray="10.793" stroke-dashoffset="10.793"><animate attributeName="stroke-dashoffset" values="10.793;10.793;0" dur="0.108s" fill="freeze" begin="0s;8abf.click" /></path><path d="M11.12,33.08c1.51,0.56,3.69,0.25,5.26,0.13c6.51-0.49,13.87-1.33,19.48-2.35c1.77-0.32,3.89-0.48,5.49-0.19" stroke-dasharray="30.452" stroke-dashoffset="30.452"><animate attributeName="stroke-dashoffset" values="30.452" fill="freeze" begin="8abf.click" /><animate attributeName="stroke-dashoffset" values="30.452;30.452;0" keyTimes="0;0.262;1" dur="0.413s" fill="freeze" begin="0s;8abf.click" /></path><path d="M17.23,46.81c1.09,0.35,2.54,0.15,3.67,0.05c4.06-0.36,9.18-1.45,12.49-2.06c1.24-0.23,2.51-0.29,3.76-0.05" stroke-dasharray="20.142" stroke-dashoffset="20.142"><animate attributeName="stroke-dashoffset" values="20.142" fill="freeze" begin="8abf.click" /><animate attributeName="stroke-dashoffset" values="20.142;20.142;0" keyTimes="0;0.673;1" dur="0.614s" fill="freeze" begin="0s;8abf.click" /></path><path d="M17.48,59.33c1.09,0.37,2.76,0.14,3.89,0.04c3.35-0.28,9.19-1.22,12.04-1.83c1.33-0.28,2.77-0.35,4.12-0.08" stroke-dasharray="20.25" stroke-dashoffset="20.25"><animate attributeName="stroke-dashoffset" values="20.25" fill="freeze" begin="8abf.click" /><animate attributeName="stroke-dashoffset" values="20.25;20.25;0" keyTimes="0;0.752;1" dur="0.816s" fill="freeze" begin="0s;8abf.click" /></path><g><path d="M16.64,72.15c0.79,0.79,1.27,1.99,1.32,2.83c0.71,3.51,1.31,8.41,2,13.15c0.18,1.23,0.36,2.44,0.55,3.62" stroke-dasharray="20.148" stroke-dashoffset="20.148"><animate attributeName="stroke-dashoffset" values="20.148" fill="freeze" begin="8abf.click" /><animate attributeName="stroke-dashoffset" values="20.148;20.148;0" keyTimes="0;0.802;1" dur="1.017s" fill="freeze" begin="0s;8abf.click" /></path><path d="M18.31,73.12c6.44-0.89,12.23-2.1,18.17-3c1.49-0.22,2.64,1.29,2.43,2.31c-0.89,4.25-1.66,6.72-3.24,13.78" stroke-dasharray="36.414" stroke-dashoffset="36.414"><animate attributeName="stroke-dashoffset" values="36.414" fill="freeze" begin="8abf.click" /><animate attributeName="stroke-dashoffset" values="36.414;36.414;0" keyTimes="0;0.736;1" dur="1.381s" fill="freeze" begin="0s;8abf.click" /></path><path d="M21.22,89.05c4.1-0.46,8.02-1.03,13.18-1.7c0.88-0.12,1.8-0.23,2.77-0.35" stroke-dasharray="16.082" stroke-dashoffset="16.082"><animate attributeName="stroke-dashoffset" values="16.082" fill="freeze" begin="8abf.click" /><animate attributeName="stroke-dashoffset" values="16.082;16.082;0" keyTimes="0;0.896;1" dur="1.542s" fill="freeze" begin="0s;8abf.click" /></path></g></g><g p4:phon="周" xmlns:p4="http://kanjivg.tagaini.net"><g><path d="M50.38,21.13c0.75,0.75,1.39,1.99,1.42,3.48C52.5,63.12,50,80.25,39.5,93.25" stroke-dasharray="74.982" stroke-dashoffset="74.982"><animate attributeName="stroke-dashoffset" values="74.982" fill="freeze" begin="8abf.click" /><animate attributeName="stroke-dashoffset" values="74.982;74.982;0" keyTimes="0;0.732;1" dur="2.106s" fill="freeze" begin="0s;8abf.click" /></path><path d="M52.6,22.85c5.93-0.84,28.45-3.6,35.02-4.43c4.26-0.54,5.7,0.83,5.7,4.59c0,2.42,0.18,62.17,0.18,67.73c0,11.13-5,4.76-8.32,1.34" stroke-dasharray="127.112" stroke-dashoffset="127.112"><animate attributeName="stroke-dashoffset" values="127.112" fill="freeze" begin="8abf.click" /><animate attributeName="stroke-dashoffset" values="127.112;127.112;0" keyTimes="0;0.688;1" dur="3.062s" fill="freeze" begin="0s;8abf.click" /></path></g><g><g><path d="M59.91,39.07c0.96,0.36,2.71,0.31,3.67,0.22c3.1-0.28,13.36-2.23,17.19-2.4c1.6-0.07,2.56,0.06,3.36,0.23" stroke-dasharray="24.441" stroke-dashoffset="24.441"><animate attributeName="stroke-dashoffset" values="24.441" fill="freeze" begin="8abf.click" /><animate attributeName="stroke-dashoffset" values="24.441;24.441;0" keyTimes="0;0.926;1" dur="3.306s" fill="freeze" begin="0s;8abf.click" /></path><path d="M70.71,26.37c0.69,0.34,1.11,1.65,1.25,2.4c0.14,0.75,0.01,17.58-0.13,22.36" stroke-dasharray="25.145" stroke-dashoffset="25.145"><animate attributeName="stroke-dashoffset" values="25.145" fill="freeze" begin="8abf.click" /><animate attributeName="stroke-dashoffset" values="25.145;25.145;0" keyTimes="0;0.929;1" dur="3.557s" fill="freeze" begin="0s;8abf.click" /></path><path d="M57.33,52.75c1.29,0.5,3.02,0.53,4.56,0.34c6.46-0.8,15.56-2.46,21.22-2.8c1.33-0.08,2.79-0.23,4.11,0.05" stroke-dasharray="30.149" stroke-dashoffset="30.149"><animate attributeName="stroke-dashoffset" values="30.149" fill="freeze" begin="8abf.click" /><animate attributeName="stroke-dashoffset" values="30.149;30.149;0" keyTimes="0;0.922;1" dur="3.858s" fill="freeze" begin="0s;8abf.click" /></path></g><g><path d="M60.28,61.82c0.97,0.68,1.68,1.61,2,2.92c0.76,3.19,1.49,6.96,2.34,11.88c0.14,0.83,0.29,1.69,0.45,2.59" stroke-dasharray="18.362" stroke-dashoffset="18.362"><animate attributeName="stroke-dashoffset" values="18.362" fill="freeze" begin="8abf.click" /><animate attributeName="stroke-dashoffset" values="18.362;18.362;0" keyTimes="0;0.954;1" dur="4.042s" fill="freeze" begin="0s;8abf.click" /></path><path d="M62.29,62.79c6.11-1.27,13.13-2.33,16.96-2.77c2.42-0.28,3.5,1.1,3.21,2.88c-0.58,3.6-1.28,6.46-2.64,11.78" stroke-dasharray="34.446" stroke-dashoffset="34.446"><animate attributeName="stroke-dashoffset" values="34.446" fill="freeze" begin="8abf.click" /><animate attributeName="stroke-dashoffset" values="34.446;34.446;0" keyTimes="0;0.922;1" dur="4.386s" fill="freeze" begin="0s;8abf.click" /></path><path d="M65.26,76.92c3.98-0.53,9.49-1.02,13.5-1.25c1.02-0.06,1.96-0.1,2.77-0.12" stroke-dasharray="16.334" stroke-dashoffset="16.334"><animate attributeName="stroke-dashoffset" values="16.334" fill="freeze" begin="8abf.click" /><animate attributeName="stroke-dashoffset" values="16.334;16.334;0" keyTimes="0;0.964;1" dur="4.549s" fill="freeze" begin="0s;8abf.click" /></path></g></g></g></g></g></svg>