<svg xmlns="http://www.w3.org/2000/svg" width="109" height="109" viewBox="0 0 109 109" id="8adc"><g fill="none" stroke="#666" stroke-width="9" stroke-linecap="round" stroke-linejoin="round"><g><g><path d="M22.88,16.75c2.25,1.5,5.81,6.17,6.37,8.5" /><path d="M10.37,35.08c0.63,0.23,3.04,0.27,3.67,0.23c7.8-0.42,15.47-2.67,21.14-2.87c1.05-0.04,2.64,0.11,3.16,0.23" /><path d="M16.73,48.06c0.38,0.12,2.71,0.13,3.1,0.12c3.97-0.14,9.8-2.06,13.71-2.05c0.63,0,3.29,0.06,3.61,0.12" /><path d="M17.73,60.33c0.34,0.12,2.42,0.13,2.77,0.12c3.55-0.13,9.32-2.11,12.81-2.09c0.57,0,2.94,0.06,3.22,0.11" /><g><path d="M15.64,72.4c0.35,0.36,0.75,0.65,0.86,1.13c0.99,4.21,2.25,13.04,3.25,19.21" /><path d="M16.81,73.87c6.44-0.89,13.48-2.1,19.42-3c1.49-0.22,2.39,1.04,2.18,2.06c-0.89,4.25-1.66,7.22-3.24,14.28" /><path d="M20.97,90.05c4.8-0.54,9.1-1.47,15.69-2.31" /></g></g><g><g><g><g><g><path d="M41.25,29.88c0.94,0.34,2.66,0.38,3.6,0.34c7.23-0.31,35.4-3.96,46.61-4.59c1.56-0.09,2.5,0.16,3.29,0.33" /></g><path d="M63.89,13c0.67,0.31,1.08,1.41,1.21,2.03s1.43,23.7,1.29,27.61" /></g><path d="M79.55,11.25c0.67,0.31,1.08,1.41,1.21,2.03c0.13,0.63-1.79,19.35-2.18,25.92" /><path d="M66.79,40.64c2.48,0,12.84-1.25,14.24-1.25" /></g><path d="M50,19.07c0.67,0.31,1.08,1.41,1.21,2.03s0.5,18.83,0.02,26.02c-0.15,2.35-0.24,4.12,2.32,3.91C64.42,50.16,75.25,49,85.97,48.7c2.02-0.06,3.71,0.13,4.49,0.28" /></g><g><path d="M42.49,65.65c1.36,0.45,2.91,0.59,4.47,0.45c7.96-0.73,31.58-2.28,43.62-3.14c1.55-0.11,2.53,0.08,4.08,0.39" /><path d="M66.32,54.5c0.72,0.29,1.29,1.29,1.29,1.88c0,6.09,0,38.49-0.14,42.12" /><path d="M65.1,64.73c-3.59,7.68-13.2,19.42-20.66,23.77" /><path d="M67.18,65.09c3.78,3.14,21.54,18.91,25.65,22c1.39,1.05,2.58,1.5,3.98,1.8" /></g></g></g></g><g fill="none" stroke="#000" stroke-width="5" stroke-linecap="round" stroke-linejoin="round"><g><g><path d="M22.88,16.75c2.25,1.5,5.81,6.17,6.37,8.5" stroke-dasharray="10.76" stroke-dashoffset="10.76"><animate id="0" attributeName="stroke-dashoffset" values="10.76;0" dur="0.11s" fill="freeze" begin="0s;8adc.click" /></path><path d="M10.37,35.08c0.63,0.23,3.04,0.27,3.67,0.23c7.8-0.42,15.47-2.67,21.14-2.87c1.05-0.04,2.64,0.11,3.16,0.23" stroke-dasharray="28.21" stroke-dashoffset="28.21"><animate attributeName="stroke-dashoffset" values="28.21" fill="freeze" begin="8adc.click" /><animate id="1" attributeName="stroke-dashoffset" values="28.21;0" dur="0.28s" fill="freeze" begin="0.end" /></path><path d="M16.73,48.06c0.38,0.12,2.71,0.13,3.1,0.12c3.97-0.14,9.8-2.06,13.71-2.05c0.63,0,3.29,0.06,3.61,0.12" stroke-dasharray="20.6" stroke-dashoffset="20.6"><animate attributeName="stroke-dashoffset" values="20.6" fill="freeze" begin="8adc.click" /><animate id="2" attributeName="stroke-dashoffset" values="20.6;0" dur="0.21s" fill="freeze" begin="1.end" /></path><path d="M17.73,60.33c0.34,0.12,2.42,0.13,2.77,0.12c3.55-0.13,9.32-2.11,12.81-2.09c0.57,0,2.94,0.06,3.22,0.11" stroke-dasharray="19" stroke-dashoffset="19"><animate attributeName="stroke-dashoffset" values="19" fill="freeze" begin="8adc.click" /><animate id="3" attributeName="stroke-dashoffset" values="19;0" dur="0.19s" fill="freeze" begin="2.end" /></path><g><path d="M15.64,72.4c0.35,0.36,0.75,0.65,0.86,1.13c0.99,4.21,2.25,13.04,3.25,19.21" stroke-dasharray="20.93" stroke-dashoffset="20.93"><animate attributeName="stroke-dashoffset" values="20.93" fill="freeze" begin="8adc.click" /><animate id="4" attributeName="stroke-dashoffset" values="20.93;0" dur="0.21s" fill="freeze" begin="3.end" /></path><path d="M16.81,73.87c6.44-0.89,13.48-2.1,19.42-3c1.49-0.22,2.39,1.04,2.18,2.06c-0.89,4.25-1.66,7.22-3.24,14.28" stroke-dasharray="37.81" stroke-dashoffset="37.81"><animate attributeName="stroke-dashoffset" values="37.81" fill="freeze" begin="8adc.click" /><animate id="5" attributeName="stroke-dashoffset" values="37.81;0" dur="0.38s" fill="freeze" begin="4.end" /></path><path d="M20.97,90.05c4.8-0.54,9.1-1.47,15.69-2.31" stroke-dasharray="15.86" stroke-dashoffset="15.86"><animate attributeName="stroke-dashoffset" values="15.86" fill="freeze" begin="8adc.click" /><animate id="6" attributeName="stroke-dashoffset" values="15.86;0" dur="0.16s" fill="freeze" begin="5.end" /></path></g></g><g><g><g><g><g><path d="M41.25,29.88c0.94,0.34,2.66,0.38,3.6,0.34c7.23-0.31,35.4-3.96,46.61-4.59c1.56-0.09,2.5,0.16,3.29,0.33" stroke-dasharray="53.79" stroke-dashoffset="53.79"><animate attributeName="stroke-dashoffset" values="53.79" fill="freeze" begin="8adc.click" /><animate id="7" attributeName="stroke-dashoffset" values="53.79;0" dur="0.54s" fill="freeze" begin="6.end" /></path></g><path d="M63.89,13c0.67,0.31,1.08,1.41,1.21,2.03s1.43,23.7,1.29,27.61" stroke-dasharray="30.08" stroke-dashoffset="30.08"><animate attributeName="stroke-dashoffset" values="30.08" fill="freeze" begin="8adc.click" /><animate id="8" attributeName="stroke-dashoffset" values="30.08;0" dur="0.3s" fill="freeze" begin="7.end" /></path></g><path d="M79.55,11.25c0.67,0.31,1.08,1.41,1.21,2.03c0.13,0.63-1.79,19.35-2.18,25.92" stroke-dasharray="28.45" stroke-dashoffset="28.45"><animate attributeName="stroke-dashoffset" values="28.45" fill="freeze" begin="8adc.click" /><animate id="9" attributeName="stroke-dashoffset" values="28.45;0" dur="0.28s" fill="freeze" begin="8.end" /></path><path d="M66.79,40.64c2.48,0,12.84-1.25,14.24-1.25" stroke-dasharray="14.3" stroke-dashoffset="14.3"><animate attributeName="stroke-dashoffset" values="14.3" fill="freeze" begin="8adc.click" /><animate id="10" attributeName="stroke-dashoffset" values="14.3;0" dur="0.14s" fill="freeze" begin="9.end" /></path></g><path d="M50,19.07c0.67,0.31,1.08,1.41,1.21,2.03s0.5,18.83,0.02,26.02c-0.15,2.35-0.24,4.12,2.32,3.91C64.42,50.16,75.25,49,85.97,48.7c2.02-0.06,3.71,0.13,4.49,0.28" stroke-dasharray="71.01" stroke-dashoffset="71.01"><animate attributeName="stroke-dashoffset" values="71.01" fill="freeze" begin="8adc.click" /><animate id="11" attributeName="stroke-dashoffset" values="71.01;0" dur="0.53s" fill="freeze" begin="10.end" /></path></g><g><path d="M42.49,65.65c1.36,0.45,2.91,0.59,4.47,0.45c7.96-0.73,31.58-2.28,43.62-3.14c1.55-0.11,2.53,0.08,4.08,0.39" stroke-dasharray="52.37" stroke-dashoffset="52.37"><animate attributeName="stroke-dashoffset" values="52.37" fill="freeze" begin="8adc.click" /><animate id="12" attributeName="stroke-dashoffset" values="52.37;0" dur="0.52s" fill="freeze" begin="11.end" /></path><path d="M66.32,54.5c0.72,0.29,1.29,1.29,1.29,1.88c0,6.09,0,38.49-0.14,42.12" stroke-dasharray="44.5" stroke-dashoffset="44.5"><animate attributeName="stroke-dashoffset" values="44.5" fill="freeze" begin="8adc.click" /><animate id="13" attributeName="stroke-dashoffset" values="44.5;0" dur="0.44s" fill="freeze" begin="12.end" /></path><path d="M65.1,64.73c-3.59,7.68-13.2,19.42-20.66,23.77" stroke-dasharray="31.83" stroke-dashoffset="31.83"><animate attributeName="stroke-dashoffset" values="31.83" fill="freeze" begin="8adc.click" /><animate id="14" attributeName="stroke-dashoffset" values="31.83;0" dur="0.32s" fill="freeze" begin="13.end" /></path><path d="M67.18,65.09c3.78,3.14,21.54,18.91,25.65,22c1.39,1.05,2.58,1.5,3.98,1.8" stroke-dasharray="38.2" stroke-dashoffset="38.2"><animate attributeName="stroke-dashoffset" values="38.2" fill="freeze" begin="8adc.click" /><animate id="15" attributeName="stroke-dashoffset" values="38.2;0" dur="0.38s" fill="freeze" begin="14.end" /></path></g></g></g></g></svg>