<svg xmlns="http://www.w3.org/2000/svg" width="109" height="109" viewBox="0 0 109 109" id="8af8"><g fill="none" stroke="#666" stroke-width="6" stroke-linecap="round" stroke-linejoin="round"><g><g><path d="M24.55,15.75c2.6,1.72,6.73,7.07,7.38,9.75" /><path d="M11.87,34.83c0.71,0.23,3.4,0.27,4.1,0.23c8.73-0.42,15.28-1.69,22.58-2.37c1.18-0.11,3.2,0.11,3.79,0.23" /><path d="M17.18,48.56c1.26,0.36,2.9,0.25,4.2,0.09c4.37-0.53,7.66-0.85,11.62-1.42c1.42-0.2,3.1-0.48,4.52-0.23" /><path d="M16.55,60.58c1.19,0.36,2.84,0.4,4.07,0.32c3.71-0.24,9.13-1.11,12.77-1.46c1.45-0.14,3.25-0.48,4.69-0.23" /><g><path d="M16.01,72.82c0.71,0.71,1.3,1.58,1.52,2.58c0.83,3.68,1.73,10.25,2.5,15.38c0.19,1.25,0.38,2.42,0.58,3.47" /><path d="M18.44,74.73c4.47-0.66,9.71-1.97,15.7-2.85c2.84-0.42,4.68-0.17,3.99,3.02c-0.8,3.7-1.29,7.73-2.57,14.08" /><path d="M21.42,92.2c4.47-0.43,7.71-1.14,13.09-1.82c1.08-0.14,2.23-0.28,3.47-0.41" /></g></g><g p4:phon="者" xmlns:p4="http://kanjivg.tagaini.net"><g p4:partial><g><path d="M52.45,30.48c1.68,0.4,3.45,0.48,4.68,0.38c7.67-0.63,16.21-1.73,22.01-2.1c1.19-0.07,2.36-0.25,3.44-0.02" /><path d="M66.27,14.12c0.75,0.74,1.29,1.88,1.29,3.23c0,8.54-0.03,24.32-0.03,27.22" /><path d="M44.13,47.81c2.12,0.19,4.23,0.24,6.08,0.01c8.12-1,29.92-3.13,39.16-3.76C91.63,43.91,94,43.88,96,44.2" /></g><path d="M90.68,21.27c0.13,1.25-0.32,2.8-1.25,4.28C77.5,44.63,65.5,59.25,44.04,75.64" /></g><g><path d="M60.86,62.79c0.8,0.8,0.92,1.92,0.92,2.97c0,2.1,0,17.61,0,25.87c0,2.04,0,3.61,0,4.38" /><path d="M62.08,63.17c1.88-0.13,20.86-2.41,22.57-2.57c1.43-0.13,2.34,1.49,2.23,2.28C86.72,64.1,87.05,81.21,86.98,90c-0.02,2.85-0.04,4.8-0.04,5" /><path d="M62.91,77.29c2.54,0,20.14-1.86,23.01-1.86" /><path d="M63.05,92.82c5.17-0.56,16.17-1.13,22.62-1.62" /></g></g></g></g><g fill="none" stroke="#000" stroke-width="3" stroke-linecap="round" stroke-linejoin="round"><path d="M24.55,15.75c2.6,1.72,6.73,7.07,7.38,9.75" stroke-dasharray="12.391" stroke-dashoffset="12.391"><animate attributeName="stroke-dashoffset" values="12.391;12.391;0" dur="0.124s" fill="freeze" begin="0s;8af8.click" /></path><path d="M11.87,34.83c0.71,0.23,3.4,0.27,4.1,0.23c8.73-0.42,15.28-1.69,22.58-2.37c1.18-0.11,3.2,0.11,3.79,0.23" stroke-dasharray="30.632" stroke-dashoffset="30.632"><animate attributeName="stroke-dashoffset" values="30.632" fill="freeze" begin="8af8.click" /><animate attributeName="stroke-dashoffset" values="30.632;30.632;0" keyTimes="0;0.288;1" dur="0.43s" fill="freeze" begin="0s;8af8.click" /></path><path d="M17.18,48.56c1.26,0.36,2.9,0.25,4.2,0.09c4.37-0.53,7.66-0.85,11.62-1.42c1.42-0.2,3.1-0.48,4.52-0.23" stroke-dasharray="20.48" stroke-dashoffset="20.48"><animate attributeName="stroke-dashoffset" values="20.48" fill="freeze" begin="8af8.click" /><animate attributeName="stroke-dashoffset" values="20.48;20.48;0" keyTimes="0;0.677;1" dur="0.635s" fill="freeze" begin="0s;8af8.click" /></path><path d="M16.55,60.58c1.19,0.36,2.84,0.4,4.07,0.32c3.71-0.24,9.13-1.11,12.77-1.46c1.45-0.14,3.25-0.48,4.69-0.23" stroke-dasharray="21.669" stroke-dashoffset="21.669"><animate attributeName="stroke-dashoffset" values="21.669" fill="freeze" begin="8af8.click" /><animate attributeName="stroke-dashoffset" values="21.669;21.669;0" keyTimes="0;0.745;1" dur="0.852s" fill="freeze" begin="0s;8af8.click" /></path><path d="M16.01,72.82c0.71,0.71,1.3,1.58,1.52,2.58c0.83,3.68,1.73,10.25,2.5,15.38c0.19,1.25,0.38,2.42,0.58,3.47" stroke-dasharray="22.139" stroke-dashoffset="22.139"><animate attributeName="stroke-dashoffset" values="22.139" fill="freeze" begin="8af8.click" /><animate attributeName="stroke-dashoffset" values="22.139;22.139;0" keyTimes="0;0.794;1" dur="1.073s" fill="freeze" begin="0s;8af8.click" /></path><path d="M18.44,74.73c4.47-0.66,9.71-1.97,15.7-2.85c2.84-0.42,4.68-0.17,3.99,3.02c-0.8,3.7-1.29,7.73-2.57,14.08" stroke-dasharray="36.811" stroke-dashoffset="36.811"><animate attributeName="stroke-dashoffset" values="36.811" fill="freeze" begin="8af8.click" /><animate attributeName="stroke-dashoffset" values="36.811;36.811;0" keyTimes="0;0.745;1" dur="1.441s" fill="freeze" begin="0s;8af8.click" /></path><path d="M21.42,92.2c4.47-0.43,7.71-1.14,13.09-1.82c1.08-0.14,2.23-0.28,3.47-0.41" stroke-dasharray="16.713" stroke-dashoffset="16.713"><animate attributeName="stroke-dashoffset" values="16.713" fill="freeze" begin="8af8.click" /><animate attributeName="stroke-dashoffset" values="16.713;16.713;0" keyTimes="0;0.896;1" dur="1.608s" fill="freeze" begin="0s;8af8.click" /></path><path d="M52.45,30.48c1.68,0.4,3.45,0.48,4.68,0.38c7.67-0.63,16.21-1.73,22.01-2.1c1.19-0.07,2.36-0.25,3.44-0.02" stroke-dasharray="30.277" stroke-dashoffset="30.277"><animate attributeName="stroke-dashoffset" values="30.277" fill="freeze" begin="8af8.click" /><animate attributeName="stroke-dashoffset" values="30.277;30.277;0" keyTimes="0;0.841;1" dur="1.911s" fill="freeze" begin="0s;8af8.click" /></path><path d="M66.27,14.12c0.75,0.74,1.29,1.88,1.29,3.23c0,8.54-0.03,24.32-0.03,27.22" stroke-dasharray="30.791" stroke-dashoffset="30.791"><animate attributeName="stroke-dashoffset" values="30.791" fill="freeze" begin="8af8.click" /><animate attributeName="stroke-dashoffset" values="30.791;30.791;0" keyTimes="0;0.861;1" dur="2.219s" fill="freeze" begin="0s;8af8.click" /></path><path d="M44.13,47.81c2.12,0.19,4.23,0.24,6.08,0.01c8.12-1,29.92-3.13,39.16-3.76C91.63,43.91,94,43.88,96,44.2" stroke-dasharray="52.08" stroke-dashoffset="52.08"><animate attributeName="stroke-dashoffset" values="52.08" fill="freeze" begin="8af8.click" /><animate attributeName="stroke-dashoffset" values="52.08;52.08;0" keyTimes="0;0.81;1" dur="2.74s" fill="freeze" begin="0s;8af8.click" /></path><path d="M90.68,21.27c0.13,1.25-0.32,2.8-1.25,4.28C77.5,44.63,65.5,59.25,44.04,75.64" stroke-dasharray="72.557" stroke-dashoffset="72.557"><animate attributeName="stroke-dashoffset" values="72.557" fill="freeze" begin="8af8.click" /><animate attributeName="stroke-dashoffset" values="72.557;72.557;0" keyTimes="0;0.834;1" dur="3.286s" fill="freeze" begin="0s;8af8.click" /></path><path d="M60.86,62.79c0.8,0.8,0.92,1.92,0.92,2.97c0,2.1,0,17.61,0,25.87c0,2.04,0,3.61,0,4.38" stroke-dasharray="33.447" stroke-dashoffset="33.447"><animate attributeName="stroke-dashoffset" values="33.447" fill="freeze" begin="8af8.click" /><animate attributeName="stroke-dashoffset" values="33.447;33.447;0" keyTimes="0;0.908;1" dur="3.62s" fill="freeze" begin="0s;8af8.click" /></path><path d="M62.08,63.17c1.88-0.13,20.86-2.41,22.57-2.57c1.43-0.13,2.34,1.49,2.23,2.28C86.72,64.1,87.05,81.21,86.98,90c-0.02,2.85-0.04,4.8-0.04,5" stroke-dasharray="58.406" stroke-dashoffset="58.406"><animate attributeName="stroke-dashoffset" values="58.406" fill="freeze" begin="8af8.click" /><animate attributeName="stroke-dashoffset" values="58.406;58.406;0" keyTimes="0;0.861;1" dur="4.204s" fill="freeze" begin="0s;8af8.click" /></path><path d="M62.91,77.29c2.54,0,20.14-1.86,23.01-1.86" stroke-dasharray="23.089" stroke-dashoffset="23.089"><animate attributeName="stroke-dashoffset" values="23.089" fill="freeze" begin="8af8.click" /><animate attributeName="stroke-dashoffset" values="23.089;23.089;0" keyTimes="0;0.948;1" dur="4.435s" fill="freeze" begin="0s;8af8.click" /></path><path d="M63.05,92.82c5.17-0.56,16.17-1.13,22.62-1.62" stroke-dasharray="22.68" stroke-dashoffset="22.68"><animate attributeName="stroke-dashoffset" values="22.68" fill="freeze" begin="8af8.click" /><animate attributeName="stroke-dashoffset" values="22.68;22.68;0" keyTimes="0;0.951;1" dur="4.662s" fill="freeze" begin="0s;8af8.click" /></path></g></svg>