<svg xmlns="http://www.w3.org/2000/svg" viewBox="0 0 109 109" id="8b00"><g fill="none" stroke="#666" stroke-width="6" stroke-linecap="round" stroke-linejoin="round"><g><g><path d="M20.5,15c2.89,1.54,7.46,6.35,8.18,8.75" /><path d="M10.62,33.91c1.98,0.6,4.33,1.08,6.39,0.79c6.86-0.95,12.21-2.27,17.12-2.71c1.54-0.14,3.18-0.17,4.71,0.11" /><path d="M15.18,46.81c1.35,0.38,3.08,0.18,4.45-0.02c4.28-0.62,8.46-1.44,12.37-2.02c1.34-0.2,2.92-0.5,4.27-0.27" /><path d="M15.3,59.33c1.22,0.37,2.7,0.4,3.97,0.32c3.78-0.24,9.8-1.65,13.99-2.36c1.27-0.21,2.54-0.56,3.82-0.33" /><g><path d="M14.51,72.51c0.78,0.71,1,1.77,1.2,2.75c0.68,3.29,1.28,8.75,1.93,13.47c0.23,1.64,0.46,3.18,0.71,4.52" /><path d="M16.87,74.12c6.89-0.98,10.47-1.71,15.49-2.44c2.8-0.41,4.96-0.51,4.29,2.92c-0.7,3.52-1.19,7.5-2.68,13.33" /><path d="M19.25,90.35c3.93-0.46,7.81-0.6,12.65-1.19c1.23-0.15,2.47-0.25,3.9-0.25" /></g></g><g p4:phon="某" xmlns:p4="http://kanjivg.tagaini.net"><g><g><g><path d="M45.18,26.61c2.54,0.63,4.74,0.93,7.33,0.69c8.83-0.83,22.37-2.79,32.36-3.91c2.53-0.28,4.94-0.63,7.44-0.01" /><path d="M55.3,15c0.9,0.9,1.2,2,1.2,3.62c0,5.03,0.09,19.04,0.09,29.61c0,2.24-0.05,3.94-0.07,4.75" /></g><path d="M77.17,11.58c1,1,1.25,2.29,1.25,4.04c0,4.8,0.03,21.25-0.02,30.45c-0.01,2.28-0.02,4.07-0.02,5.05" /></g><path d="M57.81,38.67c2.6-0.35,17.4-2.12,19.23-2.12" /><g><path d="M57.56,50.75c5.19-0.38,15.91-1.57,19.58-1.75" /></g></g><g><path d="M43.83,62.92c2.81,0.85,5.45,0.72,8.3,0.32c9.62-1.34,25.27-2.24,36.24-2.62c2.49-0.09,4.63,0.02,7.08,0.47" /><path d="M66.64,53.8c0.97,0.97,1.33,2.45,1.33,4.2c0,9.1,0.06,21.82-0.01,33.49c-0.02,2.64-0.03,5.22-0.03,7.7" /><path d="M66.21,62.8c0,1.7-0.97,2.96-2.06,4.7C58.28,76.9,51.84,84.24,41.5,90.37" /><path d="M68.61,63.79c3.27,3.71,13.17,13.09,19.64,19.34c2,1.93,4.41,4.12,6.75,5.65" /></g></g></g></g><g fill="none" stroke="#000" stroke-width="3" stroke-linecap="round" stroke-linejoin="round"><path d="M20.5,15c2.89,1.54,7.46,6.35,8.18,8.75" stroke-dasharray="12.152" stroke-dashoffset="12.152"><animate attributeName="stroke-dashoffset" values="12.152;12.152;0" dur="0.243s" fill="freeze" begin="0s;8b00.click" /></path><path d="M10.62,33.91c1.98,0.6,4.33,1.08,6.39,0.79c6.86-0.95,12.21-2.27,17.12-2.71c1.54-0.14,3.18-0.17,4.71,0.11" stroke-dasharray="28.551" stroke-dashoffset="28.551"><animate attributeName="stroke-dashoffset" values="28.551" fill="freeze" begin="8b00.click" /><animate attributeName="stroke-dashoffset" values="28.551;28.551;0" keyTimes="0;0.459;1" dur="0.529s" fill="freeze" begin="0s;8b00.click" /></path><path d="M15.18,46.81c1.35,0.38,3.08,0.18,4.45-0.02c4.28-0.62,8.46-1.44,12.37-2.02c1.34-0.2,2.92-0.5,4.27-0.27" stroke-dasharray="21.314" stroke-dashoffset="21.314"><animate attributeName="stroke-dashoffset" values="21.314" fill="freeze" begin="8b00.click" /><animate attributeName="stroke-dashoffset" values="21.314;21.314;0" keyTimes="0;0.713;1" dur="0.742s" fill="freeze" begin="0s;8b00.click" /></path><path d="M15.3,59.33c1.22,0.37,2.7,0.4,3.97,0.32c3.78-0.24,9.8-1.65,13.99-2.36c1.27-0.21,2.54-0.56,3.82-0.33" stroke-dasharray="22.055" stroke-dashoffset="22.055"><animate attributeName="stroke-dashoffset" values="22.055" fill="freeze" begin="8b00.click" /><animate attributeName="stroke-dashoffset" values="22.055;22.055;0" keyTimes="0;0.771;1" dur="0.963s" fill="freeze" begin="0s;8b00.click" /></path><path d="M14.51,72.51c0.78,0.71,1,1.77,1.2,2.75c0.68,3.29,1.28,8.75,1.93,13.47c0.23,1.64,0.46,3.18,0.71,4.52" stroke-dasharray="21.242" stroke-dashoffset="21.242"><animate attributeName="stroke-dashoffset" values="21.242" fill="freeze" begin="8b00.click" /><animate attributeName="stroke-dashoffset" values="21.242;21.242;0" keyTimes="0;0.82;1" dur="1.175s" fill="freeze" begin="0s;8b00.click" /></path><path d="M16.87,74.12c6.89-0.98,10.47-1.71,15.49-2.44c2.8-0.41,4.96-0.51,4.29,2.92c-0.7,3.52-1.19,7.5-2.68,13.33" stroke-dasharray="36.057" stroke-dashoffset="36.057"><animate attributeName="stroke-dashoffset" values="36.057" fill="freeze" begin="8b00.click" /><animate attributeName="stroke-dashoffset" values="36.057;36.057;0" keyTimes="0;0.765;1" dur="1.536s" fill="freeze" begin="0s;8b00.click" /></path><path d="M19.25,90.35c3.93-0.46,7.81-0.6,12.65-1.19c1.23-0.15,2.47-0.25,3.9-0.25" stroke-dasharray="16.618" stroke-dashoffset="16.618"><animate attributeName="stroke-dashoffset" values="16.618" fill="freeze" begin="8b00.click" /><animate attributeName="stroke-dashoffset" values="16.618;16.618;0" keyTimes="0;0.902;1" dur="1.702s" fill="freeze" begin="0s;8b00.click" /></path><path d="M45.18,26.61c2.54,0.63,4.74,0.93,7.33,0.69c8.83-0.83,22.37-2.79,32.36-3.91c2.53-0.28,4.94-0.63,7.44-0.01" stroke-dasharray="47.482" stroke-dashoffset="47.482"><animate attributeName="stroke-dashoffset" values="47.482" fill="freeze" begin="8b00.click" /><animate attributeName="stroke-dashoffset" values="47.482;47.482;0" keyTimes="0;0.782;1" dur="2.177s" fill="freeze" begin="0s;8b00.click" /></path><path d="M55.3,15c0.9,0.9,1.2,2,1.2,3.62c0,5.03,0.09,19.04,0.09,29.61c0,2.24-0.05,3.94-0.07,4.75" stroke-dasharray="38.288" stroke-dashoffset="38.288"><animate attributeName="stroke-dashoffset" values="38.288" fill="freeze" begin="8b00.click" /><animate attributeName="stroke-dashoffset" values="38.288;38.288;0" keyTimes="0;0.85;1" dur="2.56s" fill="freeze" begin="0s;8b00.click" /></path><path d="M77.17,11.58c1,1,1.25,2.29,1.25,4.04c0,4.8,0.03,21.25-0.02,30.45c-0.01,2.28-0.02,4.07-0.02,5.05" stroke-dasharray="39.852" stroke-dashoffset="39.852"><animate attributeName="stroke-dashoffset" values="39.852" fill="freeze" begin="8b00.click" /><animate attributeName="stroke-dashoffset" values="39.852;39.852;0" keyTimes="0;0.865;1" dur="2.959s" fill="freeze" begin="0s;8b00.click" /></path><path d="M57.81,38.67c2.6-0.35,17.4-2.12,19.23-2.12" stroke-dasharray="19.35" stroke-dashoffset="19.35"><animate attributeName="stroke-dashoffset" values="19.35" fill="freeze" begin="8b00.click" /><animate attributeName="stroke-dashoffset" values="19.35;19.35;0" keyTimes="0;0.939;1" dur="3.152s" fill="freeze" begin="0s;8b00.click" /></path><path d="M57.56,50.75c5.19-0.38,15.91-1.57,19.58-1.75" stroke-dasharray="19.66" stroke-dashoffset="19.66"><animate attributeName="stroke-dashoffset" values="19.66" fill="freeze" begin="8b00.click" /><animate attributeName="stroke-dashoffset" values="19.66;19.66;0" keyTimes="0;0.941;1" dur="3.349s" fill="freeze" begin="0s;8b00.click" /></path><path d="M43.83,62.92c2.81,0.85,5.45,0.72,8.3,0.32c9.62-1.34,25.27-2.24,36.24-2.62c2.49-0.09,4.63,0.02,7.08,0.47" stroke-dasharray="51.836" stroke-dashoffset="51.836"><animate attributeName="stroke-dashoffset" values="51.836" fill="freeze" begin="8b00.click" /><animate attributeName="stroke-dashoffset" values="51.836;51.836;0" keyTimes="0;0.866;1" dur="3.867s" fill="freeze" begin="0s;8b00.click" /></path><path d="M66.64,53.8c0.97,0.97,1.33,2.45,1.33,4.2c0,9.1,0.06,21.82-0.01,33.49c-0.02,2.64-0.03,5.22-0.03,7.7" stroke-dasharray="45.712" stroke-dashoffset="45.712"><animate attributeName="stroke-dashoffset" values="45.712" fill="freeze" begin="8b00.click" /><animate attributeName="stroke-dashoffset" values="45.712;45.712;0" keyTimes="0;0.894;1" dur="4.324s" fill="freeze" begin="0s;8b00.click" /></path><path d="M66.21,62.8c0,1.7-0.97,2.96-2.06,4.7C58.28,76.9,51.84,84.24,41.5,90.37" stroke-dasharray="37.74" stroke-dashoffset="37.74"><animate attributeName="stroke-dashoffset" values="37.74" fill="freeze" begin="8b00.click" /><animate attributeName="stroke-dashoffset" values="37.74;37.74;0" keyTimes="0;0.92;1" dur="4.701s" fill="freeze" begin="0s;8b00.click" /></path><path d="M68.61,63.79c3.27,3.71,13.17,13.09,19.64,19.34c2,1.93,4.41,4.12,6.75,5.65" stroke-dasharray="36.384" stroke-dashoffset="36.384"><animate attributeName="stroke-dashoffset" values="36.384" fill="freeze" begin="8b00.click" /><animate attributeName="stroke-dashoffset" values="36.384;36.384;0" keyTimes="0;0.928;1" dur="5.065s" fill="freeze" begin="0s;8b00.click" /></path></g></svg>