<svg xmlns="http://www.w3.org/2000/svg" width="109" height="109" viewBox="0 0 109 109" id="8b17"><g fill="none" stroke="#666" stroke-width="9" stroke-linecap="round" stroke-linejoin="round"><g><g><path d="M18.8,13.5c3.66,2.16,9.46,8.89,10.38,12.25" /><path d="M8.62,34.58c0.71,0.23,3.4,0.27,4.1,0.23c8.73-0.42,17.03-2.06,23.33-3.37c1.16-0.24,2.95,0.11,3.54,0.23" /><path d="M15.18,46.56c0.43,0.12,3.04,0.13,3.47,0.12c4.44-0.14,8.86-1.43,13.34-2.05c0.7-0.1,3.68,0.06,4.04,0.12" /><path d="M14.3,59.83c0.38,0.12,2.71,0.13,3.1,0.12c3.97-0.13,10.36-1.2,14.83-2.09c0.62-0.12,3.29,0.06,3.6,0.11" /><g><path d="M14.01,73.24c0.35,0.33,0.74,1.06,0.85,1.5c0.99,3.86,1.69,13.35,2.68,19.02" /><path d="M15.29,74.58c6.41-0.82,12.82-1.89,18.73-2.71c1.48-0.2,2.38,0.95,2.17,1.89c-0.88,3.9-1.21,8-2.78,14.49" /><path d="M17.83,90.85c4.78-0.5,10.5-0.89,17.07-1.66" /></g></g><g><g><g p6:partial xmlns:p6="http://kanjivg.tagaini.net"><g><path d="M68.95,11.75c0.46,0.6,1.15,2,1.15,3.49c0,3.54,0,4.01,0,6.63" /><path d="M48.98,23.07c1.19,0.43,3.58,0.5,4.76,0.43c6.7-0.37,23.15-1.68,33.28-2c1.98-0.06,3.17,0.21,4.16,0.43" /></g><g><path d="M55.52,28.33c2.46,3.36,4.03,7.4,4.25,9.61" /><path d="M83.54,25.09c0.22,1.13,0.41,2.06,0.24,2.36c-1.72,3.06-4.67,8.86-5.91,10.73" /></g></g><g><path d="M45.77,39.73c-0.14,3.36-3.56,12.13-4.77,14.13" /><path d="M45.61,43.29c7.25-0.89,31-3.61,45.12-3.98c8.63-0.23,2.78,5.95-1,8.35" /></g></g><g><g><path d="M66.81,46.62c0.68,0.48,1.81,2.33,1.81,3.29c0,3.51-0.21,4.13-0.09,7.1" /><path d="M46.05,59.88c1.22,0.09,4.02,0.6,5.21,0.47c9.61-1,25.65-2.73,38.71-3.42c2.02-0.11,3.05,0.04,4.55,0.61" /></g><g><path d="M66.57,66C70,68.25,80,71.25,84.02,71.87c1.81,0.28,2.34,2.17,1.72,3.67C83.5,81,78.53,89.28,73.43,94.87c-4.68,5.13-6.93,0.38-7.85-2.65" /><path d="M67.45,61.2c0.41,0.87,0.33,1.85-0.16,2.83c-3.33,6.75-12.98,20.37-27.96,26.75" /></g></g></g></g></g><g fill="none" stroke="#000" stroke-width="5" stroke-linecap="round" stroke-linejoin="round"><g><g><path d="M18.8,13.5c3.66,2.16,9.46,8.89,10.38,12.25" stroke-dasharray="16.281" stroke-dashoffset="16.281"><animate attributeName="stroke-dashoffset" values="16.281;16.281;0" dur="0.163s" fill="freeze" begin="0s;8b17.click" /></path><path d="M8.62,34.58c0.71,0.23,3.4,0.27,4.1,0.23c8.73-0.42,17.03-2.06,23.33-3.37c1.16-0.24,2.95,0.11,3.54,0.23" stroke-dasharray="31.283" stroke-dashoffset="31.283"><animate attributeName="stroke-dashoffset" values="31.283" fill="freeze" begin="8b17.click" /><animate attributeName="stroke-dashoffset" values="31.283;31.283;0" keyTimes="0;0.342;1" dur="0.476s" fill="freeze" begin="0s;8b17.click" /></path><path d="M15.18,46.56c0.43,0.12,3.04,0.13,3.47,0.12c4.44-0.14,8.86-1.43,13.34-2.05c0.7-0.1,3.68,0.06,4.04,0.12" stroke-dasharray="21.031" stroke-dashoffset="21.031"><animate attributeName="stroke-dashoffset" values="21.031" fill="freeze" begin="8b17.click" /><animate attributeName="stroke-dashoffset" values="21.031;21.031;0" keyTimes="0;0.694;1" dur="0.686s" fill="freeze" begin="0s;8b17.click" /></path><path d="M14.3,59.83c0.38,0.12,2.71,0.13,3.1,0.12c3.97-0.13,10.36-1.2,14.83-2.09c0.62-0.12,3.29,0.06,3.6,0.11" stroke-dasharray="21.704" stroke-dashoffset="21.704"><animate attributeName="stroke-dashoffset" values="21.704" fill="freeze" begin="8b17.click" /><animate attributeName="stroke-dashoffset" values="21.704;21.704;0" keyTimes="0;0.76;1" dur="0.903s" fill="freeze" begin="0s;8b17.click" /></path><g><path d="M14.01,73.24c0.35,0.33,0.74,1.06,0.85,1.5c0.99,3.86,1.69,13.35,2.68,19.02" stroke-dasharray="20.957" stroke-dashoffset="20.957"><animate attributeName="stroke-dashoffset" values="20.957" fill="freeze" begin="8b17.click" /><animate attributeName="stroke-dashoffset" values="20.957;20.957;0" keyTimes="0;0.811;1" dur="1.113s" fill="freeze" begin="0s;8b17.click" /></path><path d="M15.29,74.58c6.41-0.82,12.82-1.89,18.73-2.71c1.48-0.2,2.38,0.95,2.17,1.89c-0.88,3.9-1.21,8-2.78,14.49" stroke-dasharray="37.052" stroke-dashoffset="37.052"><animate attributeName="stroke-dashoffset" values="37.052" fill="freeze" begin="8b17.click" /><animate attributeName="stroke-dashoffset" values="37.052;37.052;0" keyTimes="0;0.75;1" dur="1.484s" fill="freeze" begin="0s;8b17.click" /></path><path d="M17.83,90.85c4.78-0.5,10.5-0.89,17.07-1.66" stroke-dasharray="17.152" stroke-dashoffset="17.152"><animate attributeName="stroke-dashoffset" values="17.152" fill="freeze" begin="8b17.click" /><animate attributeName="stroke-dashoffset" values="17.152;17.152;0" keyTimes="0;0.896;1" dur="1.656s" fill="freeze" begin="0s;8b17.click" /></path></g></g><g><g><g p6:partial xmlns:p6="http://kanjivg.tagaini.net"><g><path d="M68.95,11.75c0.46,0.6,1.15,2,1.15,3.49c0,3.54,0,4.01,0,6.63" stroke-dasharray="10.362" stroke-dashoffset="10.362"><animate attributeName="stroke-dashoffset" values="10.362" fill="freeze" begin="8b17.click" /><animate attributeName="stroke-dashoffset" values="10.362;10.362;0" keyTimes="0;0.941;1" dur="1.76s" fill="freeze" begin="0s;8b17.click" /></path><path d="M48.98,23.07c1.19,0.43,3.58,0.5,4.76,0.43c6.7-0.37,23.15-1.68,33.28-2c1.98-0.06,3.17,0.21,4.16,0.43" stroke-dasharray="42.34" stroke-dashoffset="42.34"><animate attributeName="stroke-dashoffset" values="42.34" fill="freeze" begin="8b17.click" /><animate attributeName="stroke-dashoffset" values="42.34;42.34;0" keyTimes="0;0.806;1" dur="2.183s" fill="freeze" begin="0s;8b17.click" /></path></g><g><path d="M55.52,28.33c2.46,3.36,4.03,7.4,4.25,9.61" stroke-dasharray="10.605" stroke-dashoffset="10.605"><animate attributeName="stroke-dashoffset" values="10.605" fill="freeze" begin="8b17.click" /><animate attributeName="stroke-dashoffset" values="10.605;10.605;0" keyTimes="0;0.954;1" dur="2.289s" fill="freeze" begin="0s;8b17.click" /></path><path d="M83.54,25.09c0.22,1.13,0.41,2.06,0.24,2.36c-1.72,3.06-4.67,8.86-5.91,10.73" stroke-dasharray="14.648" stroke-dashoffset="14.648"><animate attributeName="stroke-dashoffset" values="14.648" fill="freeze" begin="8b17.click" /><animate attributeName="stroke-dashoffset" values="14.648;14.648;0" keyTimes="0;0.94;1" dur="2.435s" fill="freeze" begin="0s;8b17.click" /></path></g></g><g><path d="M45.77,39.73c-0.14,3.36-3.56,12.13-4.77,14.13" stroke-dasharray="14.983" stroke-dashoffset="14.983"><animate attributeName="stroke-dashoffset" values="14.983" fill="freeze" begin="8b17.click" /><animate attributeName="stroke-dashoffset" values="14.983;14.983;0" keyTimes="0;0.942;1" dur="2.585s" fill="freeze" begin="0s;8b17.click" /></path><path d="M45.61,43.29c7.25-0.89,31-3.61,45.12-3.98c8.63-0.23,2.78,5.95-1,8.35" stroke-dasharray="59.376" stroke-dashoffset="59.376"><animate attributeName="stroke-dashoffset" values="59.376" fill="freeze" begin="8b17.click" /><animate attributeName="stroke-dashoffset" values="59.376;59.376;0" keyTimes="0;0.813;1" dur="3.179s" fill="freeze" begin="0s;8b17.click" /></path></g></g><g><g><path d="M66.81,46.62c0.68,0.48,1.81,2.33,1.81,3.29c0,3.51-0.21,4.13-0.09,7.1" stroke-dasharray="10.939" stroke-dashoffset="10.939"><animate attributeName="stroke-dashoffset" values="10.939" fill="freeze" begin="8b17.click" /><animate attributeName="stroke-dashoffset" values="10.939;10.939;0" keyTimes="0;0.967;1" dur="3.288s" fill="freeze" begin="0s;8b17.click" /></path><path d="M46.05,59.88c1.22,0.09,4.02,0.6,5.21,0.47c9.61-1,25.65-2.73,38.71-3.42c2.02-0.11,3.05,0.04,4.55,0.61" stroke-dasharray="48.738" stroke-dashoffset="48.738"><animate attributeName="stroke-dashoffset" values="48.738" fill="freeze" begin="8b17.click" /><animate attributeName="stroke-dashoffset" values="48.738;48.738;0" keyTimes="0;0.871;1" dur="3.775s" fill="freeze" begin="0s;8b17.click" /></path></g><g><path d="M66.57,66C70,68.25,80,71.25,84.02,71.87c1.81,0.28,2.34,2.17,1.72,3.67C83.5,81,78.53,89.28,73.43,94.87c-4.68,5.13-6.93,0.38-7.85-2.65" stroke-dasharray="57.54" stroke-dashoffset="57.54"><animate attributeName="stroke-dashoffset" values="57.54" fill="freeze" begin="8b17.click" /><animate attributeName="stroke-dashoffset" values="57.54;57.54;0" keyTimes="0;0.868;1" dur="4.35s" fill="freeze" begin="0s;8b17.click" /></path><path d="M67.45,61.2c0.41,0.87,0.33,1.85-0.16,2.83c-3.33,6.75-12.98,20.37-27.96,26.75" stroke-dasharray="42.365" stroke-dashoffset="42.365"><animate attributeName="stroke-dashoffset" values="42.365" fill="freeze" begin="8b17.click" /><animate attributeName="stroke-dashoffset" values="42.365;42.365;0" keyTimes="0;0.911;1" dur="4.774s" fill="freeze" begin="0s;8b17.click" /></path></g></g></g></g></g></svg>