<svg xmlns="http://www.w3.org/2000/svg" width="109" height="109" viewBox="0 0 109 109" id="8b20"><g fill="none" stroke="#666" stroke-width="9" stroke-linecap="round" stroke-linejoin="round"><g><g><path d="M21.88,14.5c3.66,1.81,9.46,7.44,10.37,10.25" /><path d="M12.37,35.08c0.63,0.23,3.04,0.27,3.67,0.23c7.8-0.42,15.97-2.17,21.64-2.37c1.05-0.04,2.64,0.11,3.16,0.23" /><path d="M17.73,47.06c0.38,0.12,2.71,0.13,3.1,0.12c3.97-0.14,9.42-1.18,13.71-1.55c0.63-0.05,3.29,0.06,3.61,0.12" /><path d="M17.73,59.83c0.34,0.12,2.42,0.13,2.77,0.12c3.55-0.13,10-1.7,13.81-2.09c0.56-0.06,2.94,0.06,3.22,0.11" /><g><path d="M16.14,73.9c0.39,0.43,0.84,0.78,0.96,1.34c1.11,4.98,2.53,15.44,3.65,22.75" /><path d="M17.31,74.87c6.44-0.89,13.48-2.1,19.42-3c1.49-0.22,2.39,1.04,2.18,2.06c-0.89,4.25-2.16,11.07-3.24,18.28" /><path d="M20.47,95.05c4.8-0.54,10.6-1.47,17.19-2.31" /></g></g><g><g><path d="M65.42,11c-0.17,0.75,0.08,2.01-0.54,3.02C61.5,19.5,54,30.25,44.61,36.7" /><path d="M63.94,20.56c0.31,0.19,1.35,0.9,2.71,0.55C71,20,76.63,18.36,79.61,17.6c2.39-0.6,3.43,0.83,2.17,2.9c-5.53,9-18.53,28.5-39.01,37.33" /><path d="M59.22,28.01c1.09,0.52,5.43,3.62,7.6,6.73" /><path d="M51.01,36.96c1.29,1.03,5.14,5.42,6.21,7.74" /></g><g><path d="M61.95,48.64c0.03,0.32,0.13,0.86-0.05,1.3c-1.4,3.31-4.15,7.56-9.09,12.42" /><path d="M61.37,52.44c0.67,0.24,1.89,0.29,2.56,0.24c8.18-0.65,14.11-1.71,21.46-2.54c1.1-0.12,1.78,0.11,2.33,0.23" /><path d="M45.63,69.89c1.31,0.34,3.71,0.47,5.01,0.34C63,69,79.75,66.75,92.55,66.16c2.17-0.1,3.48,0.16,4.57,0.33" /><path d="M68.72,52.88c0.67,0.85,1.43,1.47,1.43,2.65c0,4.12-0.07,32.88-0.18,36.36" /><path d="M53.1,77.5c0.54,0.28,1.08,1.46,1.08,2.03c-0.05,3.5-0.68,6.97-1.5,13.03c-0.17,1.27-0.25,2.64,1.07,2.34c11.51-2.64,28.41-4.65,35.16-4.8" /><path d="M88.17,73.42c0.54,0.28,1.16,2.09,1.08,2.65c-0.53,3.43,0.01,11.93-0.45,19.07" /></g></g></g></g><g fill="none" stroke="#000" stroke-width="5" stroke-linecap="round" stroke-linejoin="round"><g><g><path d="M21.88,14.5c3.66,1.81,9.46,7.44,10.37,10.25" stroke-dasharray="14.79" stroke-dashoffset="14.79"><animate id="0" attributeName="stroke-dashoffset" values="14.79;0" dur="0.15s" fill="freeze" begin="0s;8b20.click" /></path><path d="M12.37,35.08c0.63,0.23,3.04,0.27,3.67,0.23c7.8-0.42,15.97-2.17,21.64-2.37c1.05-0.04,2.64,0.11,3.16,0.23" stroke-dasharray="28.64" stroke-dashoffset="28.64"><animate attributeName="stroke-dashoffset" values="28.64" fill="freeze" begin="8b20.click" /><animate id="1" attributeName="stroke-dashoffset" values="28.64;0" dur="0.29s" fill="freeze" begin="0.end" /></path><path d="M17.73,47.06c0.38,0.12,2.71,0.13,3.1,0.12c3.97-0.14,9.42-1.18,13.71-1.55c0.63-0.05,3.29,0.06,3.61,0.12" stroke-dasharray="20.52" stroke-dashoffset="20.52"><animate attributeName="stroke-dashoffset" values="20.52" fill="freeze" begin="8b20.click" /><animate id="2" attributeName="stroke-dashoffset" values="20.52;0" dur="0.21s" fill="freeze" begin="1.end" /></path><path d="M17.73,59.83c0.34,0.12,2.42,0.13,2.77,0.12c3.55-0.13,10-1.7,13.81-2.09c0.56-0.06,2.94,0.06,3.22,0.11" stroke-dasharray="19.98" stroke-dashoffset="19.98"><animate attributeName="stroke-dashoffset" values="19.98" fill="freeze" begin="8b20.click" /><animate id="3" attributeName="stroke-dashoffset" values="19.98;0" dur="0.2s" fill="freeze" begin="2.end" /></path><g><path d="M16.14,73.9c0.39,0.43,0.84,0.78,0.96,1.34c1.11,4.98,2.53,15.44,3.65,22.75" stroke-dasharray="24.72" stroke-dashoffset="24.72"><animate attributeName="stroke-dashoffset" values="24.72" fill="freeze" begin="8b20.click" /><animate id="4" attributeName="stroke-dashoffset" values="24.72;0" dur="0.25s" fill="freeze" begin="3.end" /></path><path d="M17.31,74.87c6.44-0.89,13.48-2.1,19.42-3c1.49-0.22,2.39,1.04,2.18,2.06c-0.89,4.25-2.16,11.07-3.24,18.28" stroke-dasharray="41.73" stroke-dashoffset="41.73"><animate attributeName="stroke-dashoffset" values="41.73" fill="freeze" begin="8b20.click" /><animate id="5" attributeName="stroke-dashoffset" values="41.73;0" dur="0.42s" fill="freeze" begin="4.end" /></path><path d="M20.47,95.05c4.8-0.54,10.6-1.47,17.19-2.31" stroke-dasharray="17.34" stroke-dashoffset="17.34"><animate attributeName="stroke-dashoffset" values="17.34" fill="freeze" begin="8b20.click" /><animate id="6" attributeName="stroke-dashoffset" values="17.34;0" dur="0.17s" fill="freeze" begin="5.end" /></path></g></g><g><g><path d="M65.42,11c-0.17,0.75,0.08,2.01-0.54,3.02C61.5,19.5,54,30.25,44.61,36.7" stroke-dasharray="33.72" stroke-dashoffset="33.72"><animate attributeName="stroke-dashoffset" values="33.72" fill="freeze" begin="8b20.click" /><animate id="7" attributeName="stroke-dashoffset" values="33.72;0" dur="0.34s" fill="freeze" begin="6.end" /></path><path d="M63.94,20.56c0.31,0.19,1.35,0.9,2.71,0.55C71,20,76.63,18.36,79.61,17.6c2.39-0.6,3.43,0.83,2.17,2.9c-5.53,9-18.53,28.5-39.01,37.33" stroke-dasharray="76.37" stroke-dashoffset="76.37"><animate attributeName="stroke-dashoffset" values="76.37" fill="freeze" begin="8b20.click" /><animate id="8" attributeName="stroke-dashoffset" values="76.37;0" dur="0.57s" fill="freeze" begin="7.end" /></path><path d="M59.22,28.01c1.09,0.52,5.43,3.62,7.6,6.73" stroke-dasharray="10.22" stroke-dashoffset="10.22"><animate attributeName="stroke-dashoffset" values="10.22" fill="freeze" begin="8b20.click" /><animate id="9" attributeName="stroke-dashoffset" values="10.22;0" dur="0.1s" fill="freeze" begin="8.end" /></path><path d="M51.01,36.96c1.29,1.03,5.14,5.42,6.21,7.74" stroke-dasharray="9.97" stroke-dashoffset="9.97"><animate attributeName="stroke-dashoffset" values="9.97" fill="freeze" begin="8b20.click" /><animate id="10" attributeName="stroke-dashoffset" values="9.97;0" dur="0.1s" fill="freeze" begin="9.end" /></path></g><g><path d="M61.95,48.64c0.03,0.32,0.13,0.86-0.05,1.3c-1.4,3.31-4.15,7.56-9.09,12.42" stroke-dasharray="16.8" stroke-dashoffset="16.8"><animate attributeName="stroke-dashoffset" values="16.8" fill="freeze" begin="8b20.click" /><animate id="11" attributeName="stroke-dashoffset" values="16.8;0" dur="0.17s" fill="freeze" begin="10.end" /></path><path d="M61.37,52.44c0.67,0.24,1.89,0.29,2.56,0.24c8.18-0.65,14.11-1.71,21.46-2.54c1.1-0.12,1.78,0.11,2.33,0.23" stroke-dasharray="26.55" stroke-dashoffset="26.55"><animate attributeName="stroke-dashoffset" values="26.55" fill="freeze" begin="8b20.click" /><animate id="12" attributeName="stroke-dashoffset" values="26.55;0" dur="0.27s" fill="freeze" begin="11.end" /></path><path d="M45.63,69.89c1.31,0.34,3.71,0.47,5.01,0.34C63,69,79.75,66.75,92.55,66.16c2.17-0.1,3.48,0.16,4.57,0.33" stroke-dasharray="51.75" stroke-dashoffset="51.75"><animate attributeName="stroke-dashoffset" values="51.75" fill="freeze" begin="8b20.click" /><animate id="13" attributeName="stroke-dashoffset" values="51.75;0" dur="0.52s" fill="freeze" begin="12.end" /></path><path d="M68.72,52.88c0.67,0.85,1.43,1.47,1.43,2.65c0,4.12-0.07,32.88-0.18,36.36" stroke-dasharray="39.45" stroke-dashoffset="39.45"><animate attributeName="stroke-dashoffset" values="39.45" fill="freeze" begin="8b20.click" /><animate id="14" attributeName="stroke-dashoffset" values="39.45;0" dur="0.39s" fill="freeze" begin="13.end" /></path><path d="M53.1,77.5c0.54,0.28,1.08,1.46,1.08,2.03c-0.05,3.5-0.68,6.97-1.5,13.03c-0.17,1.27-0.25,2.64,1.07,2.34c11.51-2.64,28.41-4.65,35.16-4.8" stroke-dasharray="54.2" stroke-dashoffset="54.2"><animate attributeName="stroke-dashoffset" values="54.2" fill="freeze" begin="8b20.click" /><animate id="15" attributeName="stroke-dashoffset" values="54.2;0" dur="0.54s" fill="freeze" begin="14.end" /></path><path d="M88.17,73.42c0.54,0.28,1.16,2.09,1.08,2.65c-0.53,3.43,0.01,11.93-0.45,19.07" stroke-dasharray="22.02" stroke-dashoffset="22.02"><animate attributeName="stroke-dashoffset" values="22.02" fill="freeze" begin="8b20.click" /><animate id="16" attributeName="stroke-dashoffset" values="22.02;0" dur="0.22s" fill="freeze" begin="15.end" /></path></g></g></g></g></svg>