<svg xmlns="http://www.w3.org/2000/svg" width="109" height="109" viewBox="0 0 109 109" id="8b28"><g fill="none" stroke="#666" stroke-width="9" stroke-linecap="round" stroke-linejoin="round"><g><g><path d="M18.55,17c3.58,1.72,9.23,7.07,10.13,9.75" /><path d="M9.62,36.08c0.71,0.23,3.4,0.27,4.1,0.23c8.73-0.42,16.48-2.67,22.83-2.87c1.18-0.04,2.95,0.11,3.54,0.23" /><path d="M15.68,50.56c0.43,0.12,3.04,0.13,3.47,0.12c4.44-0.14,9.86-1.43,14.34-2.05c0.7-0.1,2.68,0.06,3.04,0.12" /><path d="M14.8,63.33c0.38,0.12,2.71,0.13,3.1,0.12c3.97-0.13,12.36-1.7,16.33-2.59c0.62-0.14,2.79,0.06,3.1,0.11" /><g><path d="M13.51,75.9c0.39,0.36,0.83,1.15,0.96,1.63c1.11,4.21,2.02,10.54,3.14,16.71" /><path d="M14.44,77.37c7.2-0.89,15.9-2.6,22.55-3.5c1.67-0.22,2.68,1.04,2.44,2.06c-0.99,4.25-2.36,5.72-4.12,12.78" /><path d="M17.92,90.55C23.3,90,29.1,89.57,36.48,88.74" /></g></g><g><g><path d="M44.64,27.27c1.38,0.55,2.97,0.65,4.35,0.55c7.75-0.57,31.25-2.32,40.52-3.05c2.29-0.18,3.67,0.26,4.81,0.53" /><path d="M57.35,15.93c1.22,1.3,1.62,1.69,1.75,2.49c1.22,7.48,1.57,12.83,1.92,15.55" /><path d="M80.66,14.34c0.29,1.07,0.7,1.86,0.35,3.17c-1.51,5.74-3.26,9.24-5.14,15.6" /></g><g><g><path d="M49.99,39.72c0.41,0.52,1.14,2.25,1.22,2.94c0.55,5.23,3.1,18.56,3.1,18.9" /><path d="M50.89,41.78c6.21-0.97,30.76-4.03,32.86-4.16C85.71,37.5,87,39,87,40.56c0,4.21-1.35,14.94-2.32,19.23" /><path d="M53.3,49.66c3.13,0,28.67-2.83,32.21-2.83" /><path d="m54.74,58.64c6.37,-0.37,21.84,-1.85,29.78,-2.17" /></g><g><path d="M45.31,72.31c1.65,0.51,3.49,0.2,4.57,0.14c10.56-0.52,25.86-1.65,41.56-2.86c1.36-0.11,3.56-0.1,5.31,0.39" /><path d="M67.29,62.42c0.21,0.58,0.45,1.54,0.25,2.53C64.25,82,55.75,91.5,42.25,96.66" /><path d="M66.2,71.94c5.69,5.35,18.03,17.96,23.71,21.54c1.93,1.22,2.61,1.4,3.49,1.51" /></g></g></g></g></g><g fill="none" stroke="#000" stroke-width="5" stroke-linecap="round" stroke-linejoin="round"><g><g><path d="M18.55,17c3.58,1.72,9.23,7.07,10.13,9.75" stroke-dasharray="14.26" stroke-dashoffset="14.26"><animate id="0" attributeName="stroke-dashoffset" values="14.26;0" dur="0.14s" fill="freeze" begin="0s;8b28.click" /></path><path d="M9.62,36.08c0.71,0.23,3.4,0.27,4.1,0.23c8.73-0.42,16.48-2.67,22.83-2.87c1.18-0.04,2.95,0.11,3.54,0.23" stroke-dasharray="30.69" stroke-dashoffset="30.69"><animate attributeName="stroke-dashoffset" values="30.69" fill="freeze" begin="8b28.click" /><animate id="1" attributeName="stroke-dashoffset" values="30.69;0" dur="0.31s" fill="freeze" begin="0.end" /></path><path d="M15.68,50.56c0.43,0.12,3.04,0.13,3.47,0.12c4.44-0.14,9.86-1.43,14.34-2.05c0.7-0.1,2.68,0.06,3.04,0.12" stroke-dasharray="21.02" stroke-dashoffset="21.02"><animate attributeName="stroke-dashoffset" values="21.02" fill="freeze" begin="8b28.click" /><animate id="2" attributeName="stroke-dashoffset" values="21.02;0" dur="0.21s" fill="freeze" begin="1.end" /></path><path d="M14.8,63.33c0.38,0.12,2.71,0.13,3.1,0.12c3.97-0.13,12.36-1.7,16.33-2.59c0.62-0.14,2.79,0.06,3.1,0.11" stroke-dasharray="22.77" stroke-dashoffset="22.77"><animate attributeName="stroke-dashoffset" values="22.77" fill="freeze" begin="8b28.click" /><animate id="3" attributeName="stroke-dashoffset" values="22.77;0" dur="0.23s" fill="freeze" begin="2.end" /></path><g><path d="M13.51,75.9c0.39,0.36,0.83,1.15,0.96,1.63c1.11,4.21,2.02,10.54,3.14,16.71" stroke-dasharray="18.92" stroke-dashoffset="18.92"><animate attributeName="stroke-dashoffset" values="18.92" fill="freeze" begin="8b28.click" /><animate id="4" attributeName="stroke-dashoffset" values="18.92;0" dur="0.19s" fill="freeze" begin="3.end" /></path><path d="M14.44,77.37c7.2-0.89,15.9-2.6,22.55-3.5c1.67-0.22,2.68,1.04,2.44,2.06c-0.99,4.25-2.36,5.72-4.12,12.78" stroke-dasharray="40" stroke-dashoffset="40"><animate attributeName="stroke-dashoffset" values="40" fill="freeze" begin="8b28.click" /><animate id="5" attributeName="stroke-dashoffset" values="40;0" dur="0.4s" fill="freeze" begin="4.end" /></path><path d="M17.92,90.55C23.3,90,29.1,89.57,36.48,88.74" stroke-dasharray="18.65" stroke-dashoffset="18.65"><animate attributeName="stroke-dashoffset" values="18.65" fill="freeze" begin="8b28.click" /><animate id="6" attributeName="stroke-dashoffset" values="18.65;0" dur="0.19s" fill="freeze" begin="5.end" /></path></g></g><g><g><path d="M44.64,27.27c1.38,0.55,2.97,0.65,4.35,0.55c7.75-0.57,31.25-2.32,40.52-3.05c2.29-0.18,3.67,0.26,4.81,0.53" stroke-dasharray="49.92" stroke-dashoffset="49.92"><animate attributeName="stroke-dashoffset" values="49.92" fill="freeze" begin="8b28.click" /><animate id="7" attributeName="stroke-dashoffset" values="49.92;0" dur="0.5s" fill="freeze" begin="6.end" /></path><path d="M57.35,15.93c1.22,1.3,1.62,1.69,1.75,2.49c1.22,7.48,1.57,12.83,1.92,15.55" stroke-dasharray="18.76" stroke-dashoffset="18.76"><animate attributeName="stroke-dashoffset" values="18.76" fill="freeze" begin="8b28.click" /><animate id="8" attributeName="stroke-dashoffset" values="18.76;0" dur="0.19s" fill="freeze" begin="7.end" /></path><path d="M80.66,14.34c0.29,1.07,0.7,1.86,0.35,3.17c-1.51,5.74-3.26,9.24-5.14,15.6" stroke-dasharray="19.67" stroke-dashoffset="19.67"><animate attributeName="stroke-dashoffset" values="19.67" fill="freeze" begin="8b28.click" /><animate id="9" attributeName="stroke-dashoffset" values="19.67;0" dur="0.2s" fill="freeze" begin="8.end" /></path></g><g><g><path d="M49.99,39.72c0.41,0.52,1.14,2.25,1.22,2.94c0.55,5.23,3.1,18.56,3.1,18.9" stroke-dasharray="22.36" stroke-dashoffset="22.36"><animate attributeName="stroke-dashoffset" values="22.36" fill="freeze" begin="8b28.click" /><animate id="10" attributeName="stroke-dashoffset" values="22.36;0" dur="0.22s" fill="freeze" begin="9.end" /></path><path d="M50.89,41.78c6.21-0.97,30.76-4.03,32.86-4.16C85.71,37.5,87,39,87,40.56c0,4.21-1.35,14.94-2.32,19.23" stroke-dasharray="57.44" stroke-dashoffset="57.44"><animate attributeName="stroke-dashoffset" values="57.44" fill="freeze" begin="8b28.click" /><animate id="11" attributeName="stroke-dashoffset" values="57.44;0" dur="0.57s" fill="freeze" begin="10.end" /></path><path d="M53.3,49.66c3.13,0,28.67-2.83,32.21-2.83" stroke-dasharray="32.34" stroke-dashoffset="32.34"><animate attributeName="stroke-dashoffset" values="32.34" fill="freeze" begin="8b28.click" /><animate id="12" attributeName="stroke-dashoffset" values="32.34;0" dur="0.32s" fill="freeze" begin="11.end" /></path><path d="m54.74,58.64c6.37,-0.37,21.84,-1.85,29.78,-2.17" stroke-dasharray="29.86" stroke-dashoffset="29.86"><animate attributeName="stroke-dashoffset" values="29.86" fill="freeze" begin="8b28.click" /><animate id="13" attributeName="stroke-dashoffset" values="29.86;0" dur="0.3s" fill="freeze" begin="12.end" /></path></g><g><path d="M45.31,72.31c1.65,0.51,3.49,0.2,4.57,0.14c10.56-0.52,25.86-1.65,41.56-2.86c1.36-0.11,3.56-0.1,5.31,0.39" stroke-dasharray="51.61" stroke-dashoffset="51.61"><animate attributeName="stroke-dashoffset" values="51.61" fill="freeze" begin="8b28.click" /><animate id="14" attributeName="stroke-dashoffset" values="51.61;0" dur="0.52s" fill="freeze" begin="13.end" /></path><path d="M67.29,62.42c0.21,0.58,0.45,1.54,0.25,2.53C64.25,82,55.75,91.5,42.25,96.66" stroke-dasharray="45.22" stroke-dashoffset="45.22"><animate attributeName="stroke-dashoffset" values="45.22" fill="freeze" begin="8b28.click" /><animate id="15" attributeName="stroke-dashoffset" values="45.22;0" dur="0.45s" fill="freeze" begin="14.end" /></path><path d="M66.2,71.94c5.69,5.35,18.03,17.96,23.71,21.54c1.93,1.22,2.61,1.4,3.49,1.51" stroke-dasharray="35.91" stroke-dashoffset="35.91"><animate attributeName="stroke-dashoffset" values="35.91" fill="freeze" begin="8b28.click" /><animate id="16" attributeName="stroke-dashoffset" values="35.91;0" dur="0.36s" fill="freeze" begin="15.end" /></path></g></g></g></g></g></svg>