<svg xmlns="http://www.w3.org/2000/svg" width="109" height="109" viewBox="0 0 109 109" id="8b5f"><g fill="none" stroke="#666" stroke-width="9" stroke-linecap="round" stroke-linejoin="round"><g><g><path d="M20.63,14c3.57,1.89,9.23,7.76,10.12,10.7" /><path d="M10.37,34.17c0.65,0.21,3.14,0.25,3.79,0.21c8.06-0.39,17.54-2.46,23.41-2.65c1.09-0.03,2.73,0.1,3.27,0.21" /><path d="M14.73,45.75c0.38,0.13,2.71,0.14,3.1,0.13c3.97-0.14,13.92-1.38,17.21-2.16c0.62-0.15,2.79,0.06,3.11,0.12" /><path d="M14.73,57.17c0.34,0.12,2.42,0.11,2.77,0.12c5,0.21,12.5-0.79,16.81-1.21c0.56-0.05,2.94,0.06,3.22,0.12" /><g><path d="M15.39,71.33c0.37,0.42,0.79,0.75,0.91,1.3c1.05,4.84,2.39,15.01,3.45,22.12" /><path d="M16.81,72.92c6.44-0.94,12.48-2.69,18.42-3.63c1.49-0.23,2.39,1.09,2.18,2.17c-0.89,4.47-1.16,11.05-2.74,18.49" /><path d="M19.97,91.93c4.8-0.57,10.6-1.05,17.19-1.93" /></g></g><g><g><g><path d="M51.54,14.82c0.36,0.29,0.73,0.53,0.89,0.89c1.25,2.87,2.2,10.48,3.06,15.63" /><path d="M53.41,16.75c7.4-1.49,22.24-3.38,26.48-3.76c1.55-0.14,2.48,1.09,2.26,1.9c-0.92,3.35-1.71,7.4-3.08,12.03" /><path d="M56.67,29.4c4.98-0.43,17.34-1.42,24.18-2.07" /></g><g><g><path d="M44.75,39.39c0.31,0.28,0.62,0.52,0.75,0.87c1.06,2.79,1.61,9.47,2.33,14.49" /><path d="M46.65,40.22c7.72-1.02,13.37-1.98,16.94-2.35c1.31-0.13,2.09,0.79,1.9,1.58c-0.77,3.26-1.68,7.47-2.83,11.98" /><path d="M47.98,52.83c4.2-0.42,9.14-0.38,16.96-0.99" /></g><g><path d="M72.92,37.7c0.26,0.3,0.53,0.56,0.65,0.94c0.91,3.01,1.45,8.78,2.08,14.19" /><path d="M74.56,39.26c8.49-0.99,14.5-2.2,18.42-2.56c1.44-0.13,2.3,0.77,2.09,1.54c-0.85,3.17-2.34,7.79-3.61,12.17" /><path d="M76.05,51.24c5.05-0.35,9.68-0.48,17.55-0.94" /></g></g></g><g><path d="M45.15,67.05c1.35,0.41,2.89,0.54,4.44,0.41c7.92-0.67,30.9-2.03,42.88-2.82c1.54-0.1,2.51,0.07,4.06,0.36" /><path d="M66.54,55.67c1.35,0.54,2.43,2.4,2.43,3.51c0,11.34,0,32.91-0.27,39.66" /><path d="M68.3,66.93c-4.78,8.3-17.6,20.97-27.55,25.67" /><path d="M69.79,66.75c3.25,3.04,18.51,18.29,22.04,21.28c1.2,1.01,2.22,1.45,3.42,1.74" /></g></g></g></g><g fill="none" stroke="#000" stroke-width="5" stroke-linecap="round" stroke-linejoin="round"><g><g><path d="M20.63,14c3.57,1.89,9.23,7.76,10.12,10.7" stroke-dasharray="14.94" stroke-dashoffset="14.94"><animate id="0" attributeName="stroke-dashoffset" values="14.94;0" dur="0.15s" fill="freeze" begin="0s;8b5f.click" /></path><path d="M10.37,34.17c0.65,0.21,3.14,0.25,3.79,0.21c8.06-0.39,17.54-2.46,23.41-2.65c1.09-0.03,2.73,0.1,3.27,0.21" stroke-dasharray="30.65" stroke-dashoffset="30.65"><animate attributeName="stroke-dashoffset" values="30.65" fill="freeze" begin="8b5f.click" /><animate id="1" attributeName="stroke-dashoffset" values="30.65;0" dur="0.31s" fill="freeze" begin="0.end" /></path><path d="M14.73,45.75c0.38,0.13,2.71,0.14,3.1,0.13c3.97-0.14,13.92-1.38,17.21-2.16c0.62-0.15,2.79,0.06,3.11,0.12" stroke-dasharray="23.59" stroke-dashoffset="23.59"><animate attributeName="stroke-dashoffset" values="23.59" fill="freeze" begin="8b5f.click" /><animate id="2" attributeName="stroke-dashoffset" values="23.59;0" dur="0.24s" fill="freeze" begin="1.end" /></path><path d="M14.73,57.17c0.34,0.12,2.42,0.11,2.77,0.12c5,0.21,12.5-0.79,16.81-1.21c0.56-0.05,2.94,0.06,3.22,0.12" stroke-dasharray="22.87" stroke-dashoffset="22.87"><animate attributeName="stroke-dashoffset" values="22.87" fill="freeze" begin="8b5f.click" /><animate id="3" attributeName="stroke-dashoffset" values="22.87;0" dur="0.23s" fill="freeze" begin="2.end" /></path><g><path d="M15.39,71.33c0.37,0.42,0.79,0.75,0.91,1.3c1.05,4.84,2.39,15.01,3.45,22.12" stroke-dasharray="24" stroke-dashoffset="24"><animate attributeName="stroke-dashoffset" values="24" fill="freeze" begin="8b5f.click" /><animate id="4" attributeName="stroke-dashoffset" values="24;0" dur="0.24s" fill="freeze" begin="3.end" /></path><path d="M16.81,72.92c6.44-0.94,12.48-2.69,18.42-3.63c1.49-0.23,2.39,1.09,2.18,2.17c-0.89,4.47-1.16,11.05-2.74,18.49" stroke-dasharray="41.08" stroke-dashoffset="41.08"><animate attributeName="stroke-dashoffset" values="41.08" fill="freeze" begin="8b5f.click" /><animate id="5" attributeName="stroke-dashoffset" values="41.08;0" dur="0.41s" fill="freeze" begin="4.end" /></path><path d="M19.97,91.93c4.8-0.57,10.6-1.05,17.19-1.93" stroke-dasharray="17.3" stroke-dashoffset="17.3"><animate attributeName="stroke-dashoffset" values="17.3" fill="freeze" begin="8b5f.click" /><animate id="6" attributeName="stroke-dashoffset" values="17.3;0" dur="0.17s" fill="freeze" begin="5.end" /></path></g></g><g><g><g><path d="M51.54,14.82c0.36,0.29,0.73,0.53,0.89,0.89c1.25,2.87,2.2,10.48,3.06,15.63" stroke-dasharray="17.22" stroke-dashoffset="17.22"><animate attributeName="stroke-dashoffset" values="17.22" fill="freeze" begin="8b5f.click" /><animate id="7" attributeName="stroke-dashoffset" values="17.22;0" dur="0.17s" fill="freeze" begin="6.end" /></path><path d="M53.41,16.75c7.4-1.49,22.24-3.38,26.48-3.76c1.55-0.14,2.48,1.09,2.26,1.9c-0.92,3.35-1.71,7.4-3.08,12.03" stroke-dasharray="42.57" stroke-dashoffset="42.57"><animate attributeName="stroke-dashoffset" values="42.57" fill="freeze" begin="8b5f.click" /><animate id="8" attributeName="stroke-dashoffset" values="42.57;0" dur="0.43s" fill="freeze" begin="7.end" /></path><path d="M56.67,29.4c4.98-0.43,17.34-1.42,24.18-2.07" stroke-dasharray="24.27" stroke-dashoffset="24.27"><animate attributeName="stroke-dashoffset" values="24.27" fill="freeze" begin="8b5f.click" /><animate id="9" attributeName="stroke-dashoffset" values="24.27;0" dur="0.24s" fill="freeze" begin="8.end" /></path></g><g><g><path d="M44.75,39.39c0.31,0.28,0.62,0.52,0.75,0.87c1.06,2.79,1.61,9.47,2.33,14.49" stroke-dasharray="15.86" stroke-dashoffset="15.86"><animate attributeName="stroke-dashoffset" values="15.86" fill="freeze" begin="8b5f.click" /><animate id="10" attributeName="stroke-dashoffset" values="15.86;0" dur="0.16s" fill="freeze" begin="9.end" /></path><path d="M46.65,40.22c7.72-1.02,13.37-1.98,16.94-2.35c1.31-0.13,2.09,0.79,1.9,1.58c-0.77,3.26-1.68,7.47-2.83,11.98" stroke-dasharray="32.3" stroke-dashoffset="32.3"><animate attributeName="stroke-dashoffset" values="32.3" fill="freeze" begin="8b5f.click" /><animate id="11" attributeName="stroke-dashoffset" values="32.3;0" dur="0.32s" fill="freeze" begin="10.end" /></path><path d="M47.98,52.83c4.2-0.42,9.14-0.38,16.96-0.99" stroke-dasharray="16.99" stroke-dashoffset="16.99"><animate attributeName="stroke-dashoffset" values="16.99" fill="freeze" begin="8b5f.click" /><animate id="12" attributeName="stroke-dashoffset" values="16.99;0" dur="0.17s" fill="freeze" begin="11.end" /></path></g><g><path d="M72.92,37.7c0.26,0.3,0.53,0.56,0.65,0.94c0.91,3.01,1.45,8.78,2.08,14.19" stroke-dasharray="15.51" stroke-dashoffset="15.51"><animate attributeName="stroke-dashoffset" values="15.51" fill="freeze" begin="8b5f.click" /><animate id="13" attributeName="stroke-dashoffset" values="15.51;0" dur="0.16s" fill="freeze" begin="12.end" /></path><path d="M74.56,39.26c8.49-0.99,14.5-2.2,18.42-2.56c1.44-0.13,2.3,0.77,2.09,1.54c-0.85,3.17-2.34,7.79-3.61,12.17" stroke-dasharray="34.31" stroke-dashoffset="34.31"><animate attributeName="stroke-dashoffset" values="34.31" fill="freeze" begin="8b5f.click" /><animate id="14" attributeName="stroke-dashoffset" values="34.31;0" dur="0.34s" fill="freeze" begin="13.end" /></path><path d="M76.05,51.24c5.05-0.35,9.68-0.48,17.55-0.94" stroke-dasharray="17.58" stroke-dashoffset="17.58"><animate attributeName="stroke-dashoffset" values="17.58" fill="freeze" begin="8b5f.click" /><animate id="15" attributeName="stroke-dashoffset" values="17.58;0" dur="0.18s" fill="freeze" begin="14.end" /></path></g></g></g><g><path d="M45.15,67.05c1.35,0.41,2.89,0.54,4.44,0.41c7.92-0.67,30.9-2.03,42.88-2.82c1.54-0.1,2.51,0.07,4.06,0.36" stroke-dasharray="51.55" stroke-dashoffset="51.55"><animate attributeName="stroke-dashoffset" values="51.55" fill="freeze" begin="8b5f.click" /><animate id="16" attributeName="stroke-dashoffset" values="51.55;0" dur="0.52s" fill="freeze" begin="15.end" /></path><path d="M66.54,55.67c1.35,0.54,2.43,2.4,2.43,3.51c0,11.34,0,32.91-0.27,39.66" stroke-dasharray="44.13" stroke-dashoffset="44.13"><animate attributeName="stroke-dashoffset" values="44.13" fill="freeze" begin="8b5f.click" /><animate id="17" attributeName="stroke-dashoffset" values="44.13;0" dur="0.44s" fill="freeze" begin="16.end" /></path><path d="M68.3,66.93c-4.78,8.3-17.6,20.97-27.55,25.67" stroke-dasharray="38.07" stroke-dashoffset="38.07"><animate attributeName="stroke-dashoffset" values="38.07" fill="freeze" begin="8b5f.click" /><animate id="18" attributeName="stroke-dashoffset" values="38.07;0" dur="0.38s" fill="freeze" begin="17.end" /></path><path d="M69.79,66.75c3.25,3.04,18.51,18.29,22.04,21.28c1.2,1.01,2.22,1.45,3.42,1.74" stroke-dasharray="34.52" stroke-dashoffset="34.52"><animate attributeName="stroke-dashoffset" values="34.52" fill="freeze" begin="8b5f.click" /><animate id="19" attributeName="stroke-dashoffset" values="34.52;0" dur="0.35s" fill="freeze" begin="18.end" /></path></g></g></g></g></svg>