<svg xmlns="http://www.w3.org/2000/svg" viewBox="0 0 109 109" id="8b6b"><g fill="none" stroke="#666" stroke-width="6" stroke-linecap="round" stroke-linejoin="round"><g><g><path d="M20.38,13c4.01,2.07,10.37,8.52,11.37,11.75" /><path d="M11.37,32.58c0.63,0.23,3.04,0.27,3.67,0.23c7.8-0.42,16.97-2.17,22.64-2.37c1.05-0.04,2.64,0.11,3.16,0.23" /><path d="M15.73,44.56c0.38,0.12,2.71,0.13,3.1,0.12c3.97-0.14,11.67-0.93,15.71-1.55c0.63-0.1,3.29,0.06,3.61,0.12" /><path d="M14.73,57.83c0.34,0.12,2.42,0.13,2.77,0.12c3.55-0.13,13.82-1.11,17.31-1.09c0.57,0,2.94,0.06,3.22,0.11" /><g><path d="M15.14,71.42c0.35,0.44,0.75,0.78,0.86,1.35c0.99,5.03,1.25,15.6,2.25,22.98" /><path d="M17.31,74.37c6.44-1.07,11.98-1.91,17.92-2.99c1.49-0.26,2.39,1.24,2.18,2.46c-0.89,5.08-1.66,7.94-3.24,16.39" /><path d="M18.97,92.61c6.78-0.61,11.01-0.74,18.19-1.26" /></g></g><g><g><path d="M60.77,11.25c0.05,0.48,0.09,1.25-0.09,1.94C59.6,17.28,53.44,26.26,45,31.75" /><path d="M58.5,17.87c7.75-0.37,14.5-2.12,20.49-3.64c1.73-0.44,2.44,1.21,1.21,2.87c-3.45,4.65-7.2,10.15-10.27,14.65" /></g><path d="M48.13,33.73c1.52,0.54,3.3,0.62,4.82,0.54c10.55-0.52,27.3-3.02,38.11-4.23c2.51-0.28,4.05,0.26,5.31,0.53" /><path d="M52,34.5c0.04,1.46,0.08,3.76-0.08,5.86c-0.92,12.35-2.98,42.31-12.87,55.61" /><path d="M67.01,33.5c0.24,0.75,0.65,1.09,0.38,1.67c-2.64,5.58-4.89,9.33-11.14,14.58" /><path d="M78.25,32.25c0.66,0.73,1.22,1.58,1.22,2.7c0,1.51-0.2,4.33-0.2,5.41c0,2.93,0.47,3.64,6.06,3.64c3.9,0,7.27,0,8.92-0.95" /><g><path d="M68.63,45.25c2.51,1.11,6.49,4.57,7.12,6.3" /><path d="M55.87,57.01c0.88,0.21,3.69,0.18,4.57,0.21c9.09,0.29,21.92-1.85,29.79-2.03c1.46-0.03,3.64,0.1,4.37,0.2" /><path d="M61.73,65.68c0.53,0.1,3.78,0.11,4.31,0.1c5.53-0.11,9.64-1.22,15.08-1.21c0.88,0,4.58,0.05,5.02,0.1" /><path d="M61.23,74.46c0.49,0.12,2.52,0.13,3.02,0.12C69.4,74.44,77.5,74,82.86,72.94c0.81-0.16,3.76,0.06,4.18,0.12" /><g><path d="M59.14,82.67c0.35,0.31,0.75,0.55,0.86,0.95c0.99,3.53,0.75,8.45,1.75,13.63" /><path d="M60.81,83.74c6.44-0.75,19.48-1.84,25.42-2.6c1.49-0.19,2.89,0.87,2.68,1.73c-0.89,3.57-1.16,5.22-2.74,11.16" /><path d="M62.47,96.4c4.8-0.46,19.1-1.24,25.69-1.94" /></g></g></g></g></g><g fill="none" stroke="#000" stroke-width="3" stroke-linecap="round" stroke-linejoin="round"><path d="M20.38,13c4.01,2.07,10.37,8.52,11.37,11.75" stroke-dasharray="16.589" stroke-dashoffset="16.589"><animate attributeName="stroke-dashoffset" values="16.589;16.589;0" dur="0.166s" fill="freeze" begin="0s;8b6b.click" /></path><path d="M11.37,32.58c0.63,0.23,3.04,0.27,3.67,0.23c7.8-0.42,16.97-2.17,22.64-2.37c1.05-0.04,2.64,0.11,3.16,0.23" stroke-dasharray="29.633" stroke-dashoffset="29.633"><animate attributeName="stroke-dashoffset" values="29.633" fill="freeze" begin="8b6b.click" /><animate attributeName="stroke-dashoffset" values="29.633;29.633;0" keyTimes="0;0.359;1" dur="0.462s" fill="freeze" begin="0s;8b6b.click" /></path><path d="M15.73,44.56c0.38,0.12,2.71,0.13,3.1,0.12c3.97-0.14,11.67-0.93,15.71-1.55c0.63-0.1,3.29,0.06,3.61,0.12" stroke-dasharray="22.516" stroke-dashoffset="22.516"><animate attributeName="stroke-dashoffset" values="22.516" fill="freeze" begin="8b6b.click" /><animate attributeName="stroke-dashoffset" values="22.516;22.516;0" keyTimes="0;0.672;1" dur="0.687s" fill="freeze" begin="0s;8b6b.click" /></path><path d="M14.73,57.83c0.34,0.12,2.42,0.13,2.77,0.12c3.55-0.13,13.82-1.11,17.31-1.09c0.57,0,2.94,0.06,3.22,0.11" stroke-dasharray="23.347" stroke-dashoffset="23.347"><animate attributeName="stroke-dashoffset" values="23.347" fill="freeze" begin="8b6b.click" /><animate attributeName="stroke-dashoffset" values="23.347;23.347;0" keyTimes="0;0.747;1" dur="0.92s" fill="freeze" begin="0s;8b6b.click" /></path><path d="M15.14,71.42c0.35,0.44,0.75,0.78,0.86,1.35c0.99,5.03,1.25,15.6,2.25,22.98" stroke-dasharray="24.719" stroke-dashoffset="24.719"><animate attributeName="stroke-dashoffset" values="24.719" fill="freeze" begin="8b6b.click" /><animate attributeName="stroke-dashoffset" values="24.719;24.719;0" keyTimes="0;0.788;1" dur="1.167s" fill="freeze" begin="0s;8b6b.click" /></path><path d="M17.31,74.37c6.44-1.07,11.98-1.91,17.92-2.99c1.49-0.26,2.39,1.24,2.18,2.46c-0.89,5.08-1.66,7.94-3.24,16.39" stroke-dasharray="38.725" stroke-dashoffset="38.725"><animate attributeName="stroke-dashoffset" values="38.725" fill="freeze" begin="8b6b.click" /><animate attributeName="stroke-dashoffset" values="38.725;38.725;0" keyTimes="0;0.751;1" dur="1.554s" fill="freeze" begin="0s;8b6b.click" /></path><path d="M18.97,92.61c6.78-0.61,11.01-0.74,18.19-1.26" stroke-dasharray="18.235" stroke-dashoffset="18.235"><animate attributeName="stroke-dashoffset" values="18.235" fill="freeze" begin="8b6b.click" /><animate attributeName="stroke-dashoffset" values="18.235;18.235;0" keyTimes="0;0.895;1" dur="1.736s" fill="freeze" begin="0s;8b6b.click" /></path><path d="M60.77,11.25c0.05,0.48,0.09,1.25-0.09,1.94C59.6,17.28,53.44,26.26,45,31.75" stroke-dasharray="26.633" stroke-dashoffset="26.633"><animate attributeName="stroke-dashoffset" values="26.633" fill="freeze" begin="8b6b.click" /><animate attributeName="stroke-dashoffset" values="26.633;26.633;0" keyTimes="0;0.867;1" dur="2.002s" fill="freeze" begin="0s;8b6b.click" /></path><path d="M58.5,17.87c7.75-0.37,14.5-2.12,20.49-3.64c1.73-0.44,2.44,1.21,1.21,2.87c-3.45,4.65-7.2,10.15-10.27,14.65" stroke-dasharray="43.135" stroke-dashoffset="43.135"><animate attributeName="stroke-dashoffset" values="43.135" fill="freeze" begin="8b6b.click" /><animate attributeName="stroke-dashoffset" values="43.135;43.135;0" keyTimes="0;0.823;1" dur="2.433s" fill="freeze" begin="0s;8b6b.click" /></path><path d="M48.13,33.73c1.52,0.54,3.3,0.62,4.82,0.54c10.55-0.52,27.3-3.02,38.11-4.23c2.51-0.28,4.05,0.26,5.31,0.53" stroke-dasharray="48.604" stroke-dashoffset="48.604"><animate attributeName="stroke-dashoffset" values="48.604" fill="freeze" begin="8b6b.click" /><animate attributeName="stroke-dashoffset" values="48.604;48.604;0" keyTimes="0;0.834;1" dur="2.919s" fill="freeze" begin="0s;8b6b.click" /></path><path d="M52,34.5c0.04,1.46,0.08,3.76-0.08,5.86c-0.92,12.35-2.98,42.31-12.87,55.61" stroke-dasharray="63.555" stroke-dashoffset="63.555"><animate attributeName="stroke-dashoffset" values="63.555" fill="freeze" begin="8b6b.click" /><animate attributeName="stroke-dashoffset" values="63.555;63.555;0" keyTimes="0;0.859;1" dur="3.397s" fill="freeze" begin="0s;8b6b.click" /></path><path d="M67.01,33.5c0.24,0.75,0.65,1.09,0.38,1.67c-2.64,5.58-4.89,9.33-11.14,14.58" stroke-dasharray="20.307" stroke-dashoffset="20.307"><animate attributeName="stroke-dashoffset" values="20.307" fill="freeze" begin="8b6b.click" /><animate attributeName="stroke-dashoffset" values="20.307;20.307;0" keyTimes="0;0.944;1" dur="3.6s" fill="freeze" begin="0s;8b6b.click" /></path><path d="M78.25,32.25c0.66,0.73,1.22,1.58,1.22,2.7c0,1.51-0.2,4.33-0.2,5.41c0,2.93,0.47,3.64,6.06,3.64c3.9,0,7.27,0,8.92-0.95" stroke-dasharray="25.934" stroke-dashoffset="25.934"><animate attributeName="stroke-dashoffset" values="25.934" fill="freeze" begin="8b6b.click" /><animate attributeName="stroke-dashoffset" values="25.934;25.934;0" keyTimes="0;0.933;1" dur="3.859s" fill="freeze" begin="0s;8b6b.click" /></path><path d="M68.63,45.25c2.51,1.11,6.49,4.57,7.12,6.3" stroke-dasharray="9.645" stroke-dashoffset="9.645"><animate attributeName="stroke-dashoffset" values="9.645" fill="freeze" begin="8b6b.click" /><animate attributeName="stroke-dashoffset" values="9.645;9.645;0" keyTimes="0;0.976;1" dur="3.955s" fill="freeze" begin="0s;8b6b.click" /></path><path d="M55.87,57.01c0.88,0.21,3.69,0.18,4.57,0.21c9.09,0.29,21.92-1.85,29.79-2.03c1.46-0.03,3.64,0.1,4.37,0.2" stroke-dasharray="38.833" stroke-dashoffset="38.833"><animate attributeName="stroke-dashoffset" values="38.833" fill="freeze" begin="8b6b.click" /><animate attributeName="stroke-dashoffset" values="38.833;38.833;0" keyTimes="0;0.911;1" dur="4.343s" fill="freeze" begin="0s;8b6b.click" /></path><path d="M61.73,65.68c0.53,0.1,3.78,0.11,4.31,0.1c5.53-0.11,9.64-1.22,15.08-1.21c0.88,0,4.58,0.05,5.02,0.1" stroke-dasharray="24.473" stroke-dashoffset="24.473"><animate attributeName="stroke-dashoffset" values="24.473" fill="freeze" begin="8b6b.click" /><animate attributeName="stroke-dashoffset" values="24.473;24.473;0" keyTimes="0;0.947;1" dur="4.588s" fill="freeze" begin="0s;8b6b.click" /></path><path d="M61.23,74.46c0.49,0.12,2.52,0.13,3.02,0.12C69.4,74.44,77.5,74,82.86,72.94c0.81-0.16,3.76,0.06,4.18,0.12" stroke-dasharray="25.916" stroke-dashoffset="25.916"><animate attributeName="stroke-dashoffset" values="25.916" fill="freeze" begin="8b6b.click" /><animate attributeName="stroke-dashoffset" values="25.916;25.916;0" keyTimes="0;0.947;1" dur="4.847s" fill="freeze" begin="0s;8b6b.click" /></path><path d="M59.14,82.67c0.35,0.31,0.75,0.55,0.86,0.95c0.99,3.53,0.75,8.45,1.75,13.63" stroke-dasharray="15.059" stroke-dashoffset="15.059"><animate attributeName="stroke-dashoffset" values="15.059" fill="freeze" begin="8b6b.click" /><animate attributeName="stroke-dashoffset" values="15.059;15.059;0" keyTimes="0;0.97;1" dur="4.998s" fill="freeze" begin="0s;8b6b.click" /></path><path d="M60.81,83.74c6.44-0.75,19.48-1.84,25.42-2.6c1.49-0.19,2.89,0.87,2.68,1.73c-0.89,3.57-1.16,5.22-2.74,11.16" stroke-dasharray="40.653" stroke-dashoffset="40.653"><animate attributeName="stroke-dashoffset" values="40.653" fill="freeze" begin="8b6b.click" /><animate attributeName="stroke-dashoffset" values="40.653;40.653;0" keyTimes="0;0.925;1" dur="5.405s" fill="freeze" begin="0s;8b6b.click" /></path><path d="M62.47,96.4c4.8-0.46,19.1-1.24,25.69-1.94" stroke-dasharray="25.765" stroke-dashoffset="25.765"><animate attributeName="stroke-dashoffset" values="25.765" fill="freeze" begin="8b6b.click" /><animate attributeName="stroke-dashoffset" values="25.765;25.765;0" keyTimes="0;0.954;1" dur="5.663s" fill="freeze" begin="0s;8b6b.click" /></path></g></svg>