<svg xmlns="http://www.w3.org/2000/svg" width="109" height="109" viewBox="0 0 109 109" id="8b74"><g fill="none" stroke="#666" stroke-width="9" stroke-linecap="round" stroke-linejoin="round"><g><g><path d="M19.8,14c3.31,1.99,8.55,8.16,9.38,11.25" /><path d="M8.62,32.08c0.71,0.23,3.4,0.27,4.1,0.23c8.73-0.42,16.48-2.17,22.83-2.37c1.18-0.04,2.95,0.11,3.54,0.23" /><path d="M15.18,44.06c0.43,0.12,3.04,0.13,3.47,0.12c4.44-0.14,9.36-0.93,13.84-1.55c0.7-0.1,2.18,0.06,2.54,0.12" /><path d="M14.3,58.83c0.38,0.12,2.71,0.13,3.1,0.12c3.97-0.13,11.36-1.2,14.33-2.09c0.61-0.18,2.29,0.06,2.6,0.11" /><g><path d="M14.51,71.4c0.39,0.36,0.83,1.15,0.96,1.63c1.11,4.21,2.28,13.71,3.14,20.71" /><path d="M15.44,72.87c7.2-0.89,10.9-2.1,17.55-3c1.67-0.22,2.68,1.04,2.44,2.06c-0.99,4.25-1.36,8.72-3.12,15.78" /><path d="M18.42,89.55c5.37-0.54,8.68-0.47,16.06-1.31" /></g></g><g><g><g><path d="M62.89,18.56c0.21,0.13,0.63,0.93,0.7,1.24c0.48,2.27,1.06,5.3,1.73,9.59" /><path d="M64.08,19.28c6.19-1.08,21.05-2.64,24.95-2.81c1.52-0.07,2.27,0.49,1.86,2.18c-0.51,2.1-1.41,4.65-2.21,6.48" /><path d="M65.62,27.8c4.34-0.46,19.38-1.51,25.29-2.33" /></g><g><path d="M75.49,12c0.68,1,1.22,2.32,1.22,3.18c0,3.82,0.19,11.82,0.19,18.57" /></g></g><path d="M56.68,34.88c0.84,0.38,2.38,0.44,3.23,0.38c10.04-0.76,29.2-2.49,34.65-2.86c1.4-0.09,2.25,0.18,2.95,0.37" /><path d="M65.51,42.24c0.3,0.57,1.04,1.68,1.04,2.82c0,0.56,0.1,34.58-0.01,38" /><path d="M67.22,44.24c6.78-0.99,18.55-2.52,21.24-2.99c0.98-0.17,1.58,0.95,1.44,1.58c-0.57,2.6-1.73,7.35-2.96,11.12" /><path d="M66.67,55.88c8.08-0.63,18.46-1.13,22.47-1.74" /><path d="M66.65,65.99C76,65,88.37,63.63,89.47,63.43c1.11-0.2,1.78,1.13,1.63,1.87c-0.65,3.06-2.39,8.72-3.78,13.17" /><path d="M66.66,79.64c6.59-0.39,16.59-0.89,23.47-0.96" /><g><path d="M43.93,18.5c3.68,1.35,9.5,5.54,10.42,7.63" /><path d="M41.43,37.25c3.32,1.26,8.59,5.18,9.42,7.13" /><path d="M40,59.99c1.63,0.85,3.19,0.78,3.94,0.66c2.81-0.44,8.56-4.49,9.65-4.91c1.08-0.42,2.21,1.06,1.49,2.32s-4.39,8.68-4.94,9.74c-0.54,1.06-0.56,2.33,0.72,3.54c1.63,1.53,2.71,2.83,3.98,3.94c0.95,0.83,0.54,2.32-0.54,3.38c-1.08,1.06-11.46,6.92-12.54,7.34" /><path d="M39.18,86.76c2.16-0.36,6.4-0.99,9.71-0.54c7.14,0.98,18.35,4.12,24.81,5.74c10.28,2.58,15.28,2.81,21.76,1.55" /></g></g></g></g><g fill="none" stroke="#000" stroke-width="5" stroke-linecap="round" stroke-linejoin="round"><path d="M19.8,14c3.31,1.99,8.55,8.16,9.38,11.25" stroke-dasharray="14.852" stroke-dashoffset="14.852"><animate attributeName="stroke-dashoffset" values="14.852;14.852;0" dur="0.149s" fill="freeze" begin="0s;8b74.click" /></path><path d="M8.62,32.08c0.71,0.23,3.4,0.27,4.1,0.23c8.73-0.42,16.48-2.17,22.83-2.37c1.18-0.04,2.95,0.11,3.54,0.23" stroke-dasharray="30.631" stroke-dashoffset="30.631"><animate attributeName="stroke-dashoffset" values="30.631" fill="freeze" begin="8b74.click" /><animate attributeName="stroke-dashoffset" values="30.631;30.631;0" keyTimes="0;0.327;1" dur="0.455s" fill="freeze" begin="0s;8b74.click" /></path><path d="M15.18,44.06c0.43,0.12,3.04,0.13,3.47,0.12c4.44-0.14,9.36-0.93,13.84-1.55c0.7-0.1,2.18,0.06,2.54,0.12" stroke-dasharray="19.959" stroke-dashoffset="19.959"><animate attributeName="stroke-dashoffset" values="19.959" fill="freeze" begin="8b74.click" /><animate attributeName="stroke-dashoffset" values="19.959;19.959;0" keyTimes="0;0.695;1" dur="0.655s" fill="freeze" begin="0s;8b74.click" /></path><path d="M14.3,58.83c0.38,0.12,2.71,0.13,3.1,0.12c3.97-0.13,11.36-1.2,14.33-2.09c0.61-0.18,2.29,0.06,2.6,0.11" stroke-dasharray="20.227" stroke-dashoffset="20.227"><animate attributeName="stroke-dashoffset" values="20.227" fill="freeze" begin="8b74.click" /><animate attributeName="stroke-dashoffset" values="20.227;20.227;0" keyTimes="0;0.764;1" dur="0.857s" fill="freeze" begin="0s;8b74.click" /></path><path d="M14.51,71.4c0.39,0.36,0.83,1.15,0.96,1.63c1.11,4.21,2.28,13.71,3.14,20.71" stroke-dasharray="22.867" stroke-dashoffset="22.867"><animate attributeName="stroke-dashoffset" values="22.867" fill="freeze" begin="8b74.click" /><animate attributeName="stroke-dashoffset" values="22.867;22.867;0" keyTimes="0;0.789;1" dur="1.086s" fill="freeze" begin="0s;8b74.click" /></path><path d="M15.44,72.87c7.2-0.89,10.9-2.1,17.55-3c1.67-0.22,2.68,1.04,2.44,2.06c-0.99,4.25-1.36,8.72-3.12,15.78" stroke-dasharray="37.636" stroke-dashoffset="37.636"><animate attributeName="stroke-dashoffset" values="37.636" fill="freeze" begin="8b74.click" /><animate attributeName="stroke-dashoffset" values="37.636;37.636;0" keyTimes="0;0.743;1" dur="1.462s" fill="freeze" begin="0s;8b74.click" /></path><path d="M18.42,89.55c5.37-0.54,8.68-0.47,16.06-1.31" stroke-dasharray="16.116" stroke-dashoffset="16.116"><animate attributeName="stroke-dashoffset" values="16.116" fill="freeze" begin="8b74.click" /><animate attributeName="stroke-dashoffset" values="16.116;16.116;0" keyTimes="0;0.901;1" dur="1.623s" fill="freeze" begin="0s;8b74.click" /></path><path d="M62.89,18.56c0.21,0.13,0.63,0.93,0.7,1.24c0.48,2.27,1.06,5.3,1.73,9.59" stroke-dasharray="11.186" stroke-dashoffset="11.186"><animate attributeName="stroke-dashoffset" values="11.186" fill="freeze" begin="8b74.click" /><animate attributeName="stroke-dashoffset" values="11.186;11.186;0" keyTimes="0;0.935;1" dur="1.735s" fill="freeze" begin="0s;8b74.click" /></path><path d="M64.08,19.28c6.19-1.08,21.05-2.64,24.95-2.81c1.52-0.07,2.27,0.49,1.86,2.18c-0.51,2.1-1.41,4.65-2.21,6.48" stroke-dasharray="35.567" stroke-dashoffset="35.567"><animate attributeName="stroke-dashoffset" values="35.567" fill="freeze" begin="8b74.click" /><animate attributeName="stroke-dashoffset" values="35.567;35.567;0" keyTimes="0;0.83;1" dur="2.091s" fill="freeze" begin="0s;8b74.click" /></path><path d="M65.62,27.8c4.34-0.46,19.38-1.51,25.29-2.33" stroke-dasharray="25.4" stroke-dashoffset="25.4"><animate attributeName="stroke-dashoffset" values="25.4" fill="freeze" begin="8b74.click" /><animate attributeName="stroke-dashoffset" values="25.4;25.4;0" keyTimes="0;0.892;1" dur="2.345s" fill="freeze" begin="0s;8b74.click" /></path><path d="M75.49,12c0.68,1,1.22,2.32,1.22,3.18c0,3.82,0.19,11.82,0.19,18.57" stroke-dasharray="22.019" stroke-dashoffset="22.019"><animate attributeName="stroke-dashoffset" values="22.019" fill="freeze" begin="8b74.click" /><animate attributeName="stroke-dashoffset" values="22.019;22.019;0" keyTimes="0;0.914;1" dur="2.565s" fill="freeze" begin="0s;8b74.click" /></path><path d="M56.68,34.88c0.84,0.38,2.38,0.44,3.23,0.38c10.04-0.76,29.2-2.49,34.65-2.86c1.4-0.09,2.25,0.18,2.95,0.37" stroke-dasharray="41.037" stroke-dashoffset="41.037"><animate attributeName="stroke-dashoffset" values="41.037" fill="freeze" begin="8b74.click" /><animate attributeName="stroke-dashoffset" values="41.037;41.037;0" keyTimes="0;0.862;1" dur="2.975s" fill="freeze" begin="0s;8b74.click" /></path><path d="M65.51,42.24c0.3,0.57,1.04,1.68,1.04,2.82c0,0.56,0.1,34.58-0.01,38" stroke-dasharray="41.042" stroke-dashoffset="41.042"><animate attributeName="stroke-dashoffset" values="41.042" fill="freeze" begin="8b74.click" /><animate attributeName="stroke-dashoffset" values="41.042;41.042;0" keyTimes="0;0.879;1" dur="3.385s" fill="freeze" begin="0s;8b74.click" /></path><path d="M67.22,44.24c6.78-0.99,18.55-2.52,21.24-2.99c0.98-0.17,1.58,0.95,1.44,1.58c-0.57,2.6-1.73,7.35-2.96,11.12" stroke-dasharray="35.434" stroke-dashoffset="35.434"><animate attributeName="stroke-dashoffset" values="35.434" fill="freeze" begin="8b74.click" /><animate attributeName="stroke-dashoffset" values="35.434;35.434;0" keyTimes="0;0.905;1" dur="3.739s" fill="freeze" begin="0s;8b74.click" /></path><path d="M66.67,55.88c8.08-0.63,18.46-1.13,22.47-1.74" stroke-dasharray="22.541" stroke-dashoffset="22.541"><animate attributeName="stroke-dashoffset" values="22.541" fill="freeze" begin="8b74.click" /><animate attributeName="stroke-dashoffset" values="22.541;22.541;0" keyTimes="0;0.943;1" dur="3.964s" fill="freeze" begin="0s;8b74.click" /></path><path d="M66.65,65.99C76,65,88.37,63.63,89.47,63.43c1.11-0.2,1.78,1.13,1.63,1.87c-0.65,3.06-2.39,8.72-3.78,13.17" stroke-dasharray="39.532" stroke-dashoffset="39.532"><animate attributeName="stroke-dashoffset" values="39.532" fill="freeze" begin="8b74.click" /><animate attributeName="stroke-dashoffset" values="39.532;39.532;0" keyTimes="0;0.909;1" dur="4.359s" fill="freeze" begin="0s;8b74.click" /></path><path d="M66.66,79.64c6.59-0.39,16.59-0.89,23.47-0.96" stroke-dasharray="23.493" stroke-dashoffset="23.493"><animate attributeName="stroke-dashoffset" values="23.493" fill="freeze" begin="8b74.click" /><animate attributeName="stroke-dashoffset" values="23.493;23.493;0" keyTimes="0;0.949;1" dur="4.594s" fill="freeze" begin="0s;8b74.click" /></path><path d="M43.93,18.5c3.68,1.35,9.5,5.54,10.42,7.63" stroke-dasharray="13.091" stroke-dashoffset="13.091"><animate attributeName="stroke-dashoffset" values="13.091" fill="freeze" begin="8b74.click" /><animate attributeName="stroke-dashoffset" values="13.091;13.091;0" keyTimes="0;0.972;1" dur="4.725s" fill="freeze" begin="0s;8b74.click" /></path><path d="M41.43,37.25c3.32,1.26,8.59,5.18,9.42,7.13" stroke-dasharray="11.977" stroke-dashoffset="11.977"><animate attributeName="stroke-dashoffset" values="11.977" fill="freeze" begin="8b74.click" /><animate attributeName="stroke-dashoffset" values="11.977;11.977;0" keyTimes="0;0.975;1" dur="4.845s" fill="freeze" begin="0s;8b74.click" /></path><path d="M40,59.99c1.63,0.85,3.19,0.78,3.94,0.66c2.81-0.44,8.56-4.49,9.65-4.91c1.08-0.42,2.21,1.06,1.49,2.32s-4.39,8.68-4.94,9.74c-0.54,1.06-0.56,2.33,0.72,3.54c1.63,1.53,2.71,2.83,3.98,3.94c0.95,0.83,0.54,2.32-0.54,3.38c-1.08,1.06-11.46,6.92-12.54,7.34" stroke-dasharray="57.292" stroke-dashoffset="57.292"><animate attributeName="stroke-dashoffset" values="57.292" fill="freeze" begin="8b74.click" /><animate attributeName="stroke-dashoffset" values="57.292;57.292;0" keyTimes="0;0.894;1" dur="5.418s" fill="freeze" begin="0s;8b74.click" /></path><path d="M39.18,86.76c2.16-0.36,6.4-0.99,9.71-0.54c7.14,0.98,18.35,4.12,24.81,5.74c10.28,2.58,15.28,2.81,21.76,1.55" stroke-dasharray="57.263" stroke-dashoffset="57.263"><animate attributeName="stroke-dashoffset" values="57.263" fill="freeze" begin="8b74.click" /><animate attributeName="stroke-dashoffset" values="57.263;57.263;0" keyTimes="0;0.904;1" dur="5.991s" fill="freeze" begin="0s;8b74.click" /></path></g></svg>