<svg xmlns="http://www.w3.org/2000/svg" width="109" height="109" viewBox="0 0 109 109" id="8b77"><g fill="none" stroke="#666" stroke-width="9" stroke-linecap="round" stroke-linejoin="round"><g><g><path d="M26,14.12c2.45,1.3,6.32,5.35,6.93,7.38" /><path d="M12.62,31.83c1.13,0.3,2.76,0.34,4.1,0.23c6.78-0.56,15.03-1.81,23.08-3.12c1.17-0.19,2.95-0.14,3.54-0.02" /><path d="M17.43,44.56c1.15,0.33,2.54,0.14,3.7-0.01c3.37-0.43,9.74-1.61,13.88-2.27c1.25-0.2,2.75-0.49,4.01-0.28" /><path d="M17.55,56.83c1.18,0.36,2.76,0.16,3.97,0.02c3.91-0.46,10.3-1.31,13.86-1.67c1.28-0.13,2.68-0.44,3.95-0.21" /><g><path d="M18.9,71.06c0.8,0.71,0.99,1.85,1.23,2.82c0.72,2.94,1.6,7.3,2.36,11.25c0.25,1.28,0.48,2.52,0.7,3.65" /><path d="M20.67,71.81c7.44-1.43,11.65-2.27,16.84-3.03c2.87-0.42,3.79,0.29,3.19,3.12c-0.65,3.06-1.33,5.96-2.67,11.09" /><path d="M23.71,85.89c4.05-0.39,8.01-1.03,13.02-1.68c0.89-0.12,1.82-0.23,2.79-0.35" /></g></g><g p4:phon="蒦" xmlns:p4="http://kanjivg.tagaini.net"><g><path d="M47.5,19.78c2.5,0.47,4.33,0.28,6.37,0.09c8.95-0.85,23.74-2.27,33-2.58c1.89-0.06,3.78-0.37,5.63,0.08" /><path d="M59.58,9.57c0.92,0.92,1.49,2.2,1.59,2.89c0.94,6.41,1.49,12.27,1.76,14.6" /><path d="M81.7,9.19c0.55,0.94,0.76,2.23,0.51,3.28c-1.44,6.14-1.59,7.66-2.92,13.24" /></g><g><g><g><path d="M57.87,30.37c0.14,0.92-0.04,2.13-0.49,2.91c-2.85,5.02-6.46,9.28-12.99,15.4" /><path d="M54.23,39.49c0.58,0.58,0.75,1.51,0.75,2.63c0,5.53-0.01,14.01-0.02,19.38c0,1.9,0,3.4,0,4.25" /></g><path d="M73.08,27.75c0.04,0.36-0.01,0.83-0.13,1.14c-0.77,1.96-1.5,2.97-3.26,5.36" /><path d="M55.68,37.41c5.27-0.44,21.87-2.26,30.21-3.17c2.3-0.25,3.97-0.44,4.6-0.5" /><path d="M69.85,37.45c0.66,0.66,1.08,1.92,1.08,3.45c0,5.86-0.04,10.35-0.04,20.75" /><path d="M56.38,46.28c5.06-0.37,18.84-1.78,25.89-2.46c1.79-0.17,3.09-0.3,3.64-0.35" /><path d="M56.23,54.3c5.26-0.31,18.65-1.59,26.14-2.23c2.02-0.17,3.52-0.3,4.18-0.35" /><path d="M56.31,63.38c5.24-0.44,20.78-1.67,29.07-2.34c2.34-0.19,4.05-0.33,4.68-0.4" /></g><g><path d="M54.69,71.54c1.31,0.46,2.55,0.37,5.04,0.09c2.5-0.28,17.3-3.25,19.02-3.53c2.88-0.48,4.11,2.08,2.48,3.95C71.25,83.5,58.25,92.38,43,97.5" /><path d="M53.53,77.42c7.09,0.18,20.43,10.7,32.3,16.18c2.55,1.18,5.25,2.37,8.05,2.77" /></g></g></g></g></g><g fill="none" stroke="#000" stroke-width="5" stroke-linecap="round" stroke-linejoin="round"><g><g><path d="M26,14.12c2.45,1.3,6.32,5.35,6.93,7.38" stroke-dasharray="10.27" stroke-dashoffset="10.27"><animate id="0" attributeName="stroke-dashoffset" values="10.27;0" dur="0.1s" fill="freeze" begin="0s;8b77.click" /></path><path d="M12.62,31.83c1.13,0.3,2.76,0.34,4.1,0.23c6.78-0.56,15.03-1.81,23.08-3.12c1.17-0.19,2.95-0.14,3.54-0.02" stroke-dasharray="30.97" stroke-dashoffset="30.97"><animate attributeName="stroke-dashoffset" values="30.97" fill="freeze" begin="8b77.click" /><animate id="1" attributeName="stroke-dashoffset" values="30.97;0" dur="0.31s" fill="freeze" begin="0.end" /></path><path d="M17.43,44.56c1.15,0.33,2.54,0.14,3.7-0.01c3.37-0.43,9.74-1.61,13.88-2.27c1.25-0.2,2.75-0.49,4.01-0.28" stroke-dasharray="21.83" stroke-dashoffset="21.83"><animate attributeName="stroke-dashoffset" values="21.83" fill="freeze" begin="8b77.click" /><animate id="2" attributeName="stroke-dashoffset" values="21.83;0" dur="0.22s" fill="freeze" begin="1.end" /></path><path d="M17.55,56.83c1.18,0.36,2.76,0.16,3.97,0.02c3.91-0.46,10.3-1.31,13.86-1.67c1.28-0.13,2.68-0.44,3.95-0.21" stroke-dasharray="21.93" stroke-dashoffset="21.93"><animate attributeName="stroke-dashoffset" values="21.93" fill="freeze" begin="8b77.click" /><animate id="3" attributeName="stroke-dashoffset" values="21.93;0" dur="0.22s" fill="freeze" begin="2.end" /></path><g><path d="M18.9,71.06c0.8,0.71,0.99,1.85,1.23,2.82c0.72,2.94,1.6,7.3,2.36,11.25c0.25,1.28,0.48,2.52,0.7,3.65" stroke-dasharray="18.34" stroke-dashoffset="18.34"><animate attributeName="stroke-dashoffset" values="18.34" fill="freeze" begin="8b77.click" /><animate id="4" attributeName="stroke-dashoffset" values="18.34;0" dur="0.18s" fill="freeze" begin="3.end" /></path><path d="M20.67,71.81c7.44-1.43,11.65-2.27,16.84-3.03c2.87-0.42,3.79,0.29,3.19,3.12c-0.65,3.06-1.33,5.96-2.67,11.09" stroke-dasharray="34.44" stroke-dashoffset="34.44"><animate attributeName="stroke-dashoffset" values="34.44" fill="freeze" begin="8b77.click" /><animate id="5" attributeName="stroke-dashoffset" values="34.44;0" dur="0.34s" fill="freeze" begin="4.end" /></path><path d="M23.71,85.89c4.05-0.39,8.01-1.03,13.02-1.68c0.89-0.12,1.82-0.23,2.79-0.35" stroke-dasharray="15.94" stroke-dashoffset="15.94"><animate attributeName="stroke-dashoffset" values="15.94" fill="freeze" begin="8b77.click" /><animate id="6" attributeName="stroke-dashoffset" values="15.94;0" dur="0.16s" fill="freeze" begin="5.end" /></path></g></g><g p4:phon="蒦" xmlns:p4="http://kanjivg.tagaini.net"><g><path d="M47.5,19.78c2.5,0.47,4.33,0.28,6.37,0.09c8.95-0.85,23.74-2.27,33-2.58c1.89-0.06,3.78-0.37,5.63,0.08" stroke-dasharray="45.15" stroke-dashoffset="45.15"><animate attributeName="stroke-dashoffset" values="45.15" fill="freeze" begin="8b77.click" /><animate id="7" attributeName="stroke-dashoffset" values="45.15;0" dur="0.45s" fill="freeze" begin="6.end" /></path><path d="M59.58,9.57c0.92,0.92,1.49,2.2,1.59,2.89c0.94,6.41,1.49,12.27,1.76,14.6" stroke-dasharray="18.05" stroke-dashoffset="18.05"><animate attributeName="stroke-dashoffset" values="18.05" fill="freeze" begin="8b77.click" /><animate id="8" attributeName="stroke-dashoffset" values="18.05;0" dur="0.18s" fill="freeze" begin="7.end" /></path><path d="M81.7,9.19c0.55,0.94,0.76,2.23,0.51,3.28c-1.44,6.14-1.59,7.66-2.92,13.24" stroke-dasharray="16.95" stroke-dashoffset="16.95"><animate attributeName="stroke-dashoffset" values="16.95" fill="freeze" begin="8b77.click" /><animate id="9" attributeName="stroke-dashoffset" values="16.95;0" dur="0.17s" fill="freeze" begin="8.end" /></path></g><g><g><g><path d="M57.87,30.37c0.14,0.92-0.04,2.13-0.49,2.91c-2.85,5.02-6.46,9.28-12.99,15.4" stroke-dasharray="23.23" stroke-dashoffset="23.23"><animate attributeName="stroke-dashoffset" values="23.23" fill="freeze" begin="8b77.click" /><animate id="10" attributeName="stroke-dashoffset" values="23.23;0" dur="0.23s" fill="freeze" begin="9.end" /></path><path d="M54.23,39.49c0.58,0.58,0.75,1.51,0.75,2.63c0,5.53-0.01,14.01-0.02,19.38c0,1.9,0,3.4,0,4.25" stroke-dasharray="26.44" stroke-dashoffset="26.44"><animate attributeName="stroke-dashoffset" values="26.44" fill="freeze" begin="8b77.click" /><animate id="11" attributeName="stroke-dashoffset" values="26.44;0" dur="0.26s" fill="freeze" begin="10.end" /></path></g><path d="M73.08,27.75c0.04,0.36-0.01,0.83-0.13,1.14c-0.77,1.96-1.5,2.97-3.26,5.36" stroke-dasharray="7.45" stroke-dashoffset="7.45"><animate attributeName="stroke-dashoffset" values="7.45" fill="freeze" begin="8b77.click" /><animate id="12" attributeName="stroke-dashoffset" values="7.45;0" dur="0.07s" fill="freeze" begin="11.end" /></path><path d="M55.68,37.41c5.27-0.44,21.87-2.26,30.21-3.17c2.3-0.25,3.97-0.44,4.6-0.5" stroke-dasharray="35" stroke-dashoffset="35"><animate attributeName="stroke-dashoffset" values="35" fill="freeze" begin="8b77.click" /><animate id="13" attributeName="stroke-dashoffset" values="35;0" dur="0.35s" fill="freeze" begin="12.end" /></path><path d="M69.85,37.45c0.66,0.66,1.08,1.92,1.08,3.45c0,5.86-0.04,10.35-0.04,20.75" stroke-dasharray="24.45" stroke-dashoffset="24.45"><animate attributeName="stroke-dashoffset" values="24.45" fill="freeze" begin="8b77.click" /><animate id="14" attributeName="stroke-dashoffset" values="24.45;0" dur="0.24s" fill="freeze" begin="13.end" /></path><path d="M56.38,46.28c5.06-0.37,18.84-1.78,25.89-2.46c1.79-0.17,3.09-0.3,3.64-0.35" stroke-dasharray="29.66" stroke-dashoffset="29.66"><animate attributeName="stroke-dashoffset" values="29.66" fill="freeze" begin="8b77.click" /><animate id="15" attributeName="stroke-dashoffset" values="29.66;0" dur="0.3s" fill="freeze" begin="14.end" /></path><path d="M56.23,54.3c5.26-0.31,18.65-1.59,26.14-2.23c2.02-0.17,3.52-0.3,4.18-0.35" stroke-dasharray="30.43" stroke-dashoffset="30.43"><animate attributeName="stroke-dashoffset" values="30.43" fill="freeze" begin="8b77.click" /><animate id="16" attributeName="stroke-dashoffset" values="30.43;0" dur="0.3s" fill="freeze" begin="15.end" /></path><path d="M56.31,63.38c5.24-0.44,20.78-1.67,29.07-2.34c2.34-0.19,4.05-0.33,4.68-0.4" stroke-dasharray="33.86" stroke-dashoffset="33.86"><animate attributeName="stroke-dashoffset" values="33.86" fill="freeze" begin="8b77.click" /><animate id="17" attributeName="stroke-dashoffset" values="33.86;0" dur="0.34s" fill="freeze" begin="16.end" /></path></g><g><path d="M54.69,71.54c1.31,0.46,2.55,0.37,5.04,0.09c2.5-0.28,17.3-3.25,19.02-3.53c2.88-0.48,4.11,2.08,2.48,3.95C71.25,83.5,58.25,92.38,43,97.5" stroke-dasharray="77.33" stroke-dashoffset="77.33"><animate attributeName="stroke-dashoffset" values="77.33" fill="freeze" begin="8b77.click" /><animate id="18" attributeName="stroke-dashoffset" values="77.33;0" dur="0.58s" fill="freeze" begin="17.end" /></path><path d="M53.53,77.42c7.09,0.18,20.43,10.7,32.3,16.18c2.55,1.18,5.25,2.37,8.05,2.77" stroke-dasharray="44.86" stroke-dashoffset="44.86"><animate attributeName="stroke-dashoffset" values="44.86" fill="freeze" begin="8b77.click" /><animate id="19" attributeName="stroke-dashoffset" values="44.86;0" dur="0.45s" fill="freeze" begin="18.end" /></path></g></g></g></g></g></svg>