<svg xmlns="http://www.w3.org/2000/svg" width="109" height="109" viewBox="0 0 109 109" id="8c3f"><g fill="none" stroke="#666" stroke-width="9" stroke-linecap="round" stroke-linejoin="round"><g><g><g><g><path d="M40,13.39c0.07,0.27,0.25,0.8-0.14,1.1C36.25,17.25,25.75,22,13.32,24.5" /><path d="M16.76,27.53c0.02,0.35,0.05,0.9-0.04,1.41c-0.53,2.96-3.04,8.26-7.39,13.89" /><path d="M26.92,26.36c2.37,1.79,6.11,7.35,6.7,10.13" /><path d="M38.07,22.97c3.09,1.79,7.98,7.35,8.75,10.14" /></g><g><path d="M24.64,35.6c0.29,0.98,0.45,1.67-0.15,2.78c-1.14,2.12-3.34,4.54-5.26,7.34c-0.48,0.7-0.31,1.93,0.29,2.02c3.48,0.51,7.01,1.31,9.64,3.11" /><path d="M40.31,38.51c0.17,1.52-0.43,2.57-0.88,3.05c-6.14,6.71-14.5,13.3-21.4,20.39c-0.98,1.01-0.58,1.64,0.58,1.31c4.89-1.37,17.07-4.19,23.35-5.5" /><path d="M39.19,52.79c1.91,1.88,4.94,7.72,5.41,10.64" /></g></g><g><path d="M9.89,73.95c0.71,0.33,2.59,0.73,4.09,0.58c10.13-1,20.44-2.99,29.54-3.47c1.56-0.08,2.82-0.04,4.23,0.22" /><path d="M29.81,65.34c0.3,0.42,0.29,1.32,0.19,2.21c-1.65,13.51-8.16,23.72-18.75,28.24" /><path d="M29.76,77.96c6.63,2.81,13.96,10.56,16.43,15.47" /></g></g><g><g><path d="M65.23,15.48c0.03,0.45,0.07,1.17-0.07,1.82c-0.81,3.84-5.43,12.28-11.76,17.45" /><path d="M79.08,15.08C84.9,19,91.99,26.49,93.98,30.5" /></g><g><path d="M74.13,27.75c0.06,0.86,0.3,2.3-0.13,3.45c-3.58,9.68-10.25,23.55-22.59,33.05" /><path d="M73.96,34.33c5.08,8.4,14.55,20.4,19.21,24.86c1.16,1.11,2.49,1.83,3.58,2.2" /><g><path d="M59.59,66.86c0.31,0.46,0.62,0.84,0.75,1.41c1.06,4.53,1.83,18.04,2.55,26.18" /><path d="M61.02,68.75c9.23-1.25,18.61-2.14,23.71-3.04c1.74-0.31,2.81,2.08,2.54,3.43c-1.27,6.48-2.72,11.29-3.89,19.25" /><path d="M63.71,90.66c6.71-0.62,14.49-1.06,23.23-1.79" /></g></g></g></g></g><g fill="none" stroke="#000" stroke-width="5" stroke-linecap="round" stroke-linejoin="round"><path d="M40,13.39c0.07,0.27,0.25,0.8-0.14,1.1C36.25,17.25,25.75,22,13.32,24.5" stroke-dasharray="29.72" stroke-dashoffset="29.72"><animate attributeName="stroke-dashoffset" values="29.72;29.72;0" dur="0.297s" fill="freeze" begin="0s;8c3f.click" /></path><path d="M16.76,27.53c0.02,0.35,0.05,0.9-0.04,1.41c-0.53,2.96-3.04,8.26-7.39,13.89" stroke-dasharray="17.265" stroke-dashoffset="17.265"><animate attributeName="stroke-dashoffset" values="17.265" fill="freeze" begin="8c3f.click" /><animate attributeName="stroke-dashoffset" values="17.265;17.265;0" keyTimes="0;0.632;1" dur="0.47s" fill="freeze" begin="0s;8c3f.click" /></path><path d="M26.92,26.36c2.37,1.79,6.11,7.35,6.7,10.13" stroke-dasharray="12.294" stroke-dashoffset="12.294"><animate attributeName="stroke-dashoffset" values="12.294" fill="freeze" begin="8c3f.click" /><animate attributeName="stroke-dashoffset" values="12.294;12.294;0" keyTimes="0;0.793;1" dur="0.593s" fill="freeze" begin="0s;8c3f.click" /></path><path d="M38.07,22.97c3.09,1.79,7.98,7.35,8.75,10.14" stroke-dasharray="13.584" stroke-dashoffset="13.584"><animate attributeName="stroke-dashoffset" values="13.584" fill="freeze" begin="8c3f.click" /><animate attributeName="stroke-dashoffset" values="13.584;13.584;0" keyTimes="0;0.813;1" dur="0.729s" fill="freeze" begin="0s;8c3f.click" /></path><path d="M24.64,35.6c0.29,0.98,0.45,1.67-0.15,2.78c-1.14,2.12-3.34,4.54-5.26,7.34c-0.48,0.7-0.31,1.93,0.29,2.02c3.48,0.51,7.01,1.31,9.64,3.11" stroke-dasharray="24.451" stroke-dashoffset="24.451"><animate attributeName="stroke-dashoffset" values="24.451" fill="freeze" begin="8c3f.click" /><animate attributeName="stroke-dashoffset" values="24.451;24.451;0" keyTimes="0;0.748;1" dur="0.974s" fill="freeze" begin="0s;8c3f.click" /></path><path d="M40.31,38.51c0.17,1.52-0.43,2.57-0.88,3.05c-6.14,6.71-14.5,13.3-21.4,20.39c-0.98,1.01-0.58,1.64,0.58,1.31c4.89-1.37,17.07-4.19,23.35-5.5" stroke-dasharray="59.349" stroke-dashoffset="59.349"><animate attributeName="stroke-dashoffset" values="59.349" fill="freeze" begin="8c3f.click" /><animate attributeName="stroke-dashoffset" values="59.349;59.349;0" keyTimes="0;0.622;1" dur="1.567s" fill="freeze" begin="0s;8c3f.click" /></path><path d="M39.19,52.79c1.91,1.88,4.94,7.72,5.41,10.64" stroke-dasharray="12.05" stroke-dashoffset="12.05"><animate attributeName="stroke-dashoffset" values="12.05" fill="freeze" begin="8c3f.click" /><animate attributeName="stroke-dashoffset" values="12.05;12.05;0" keyTimes="0;0.928;1" dur="1.688s" fill="freeze" begin="0s;8c3f.click" /></path><path d="M9.89,73.95c0.71,0.33,2.59,0.73,4.09,0.58c10.13-1,20.44-2.99,29.54-3.47c1.56-0.08,2.82-0.04,4.23,0.22" stroke-dasharray="38.163" stroke-dashoffset="38.163"><animate attributeName="stroke-dashoffset" values="38.163" fill="freeze" begin="8c3f.click" /><animate attributeName="stroke-dashoffset" values="38.163;38.163;0" keyTimes="0;0.815;1" dur="2.07s" fill="freeze" begin="0s;8c3f.click" /></path><path d="M29.81,65.34c0.3,0.42,0.29,1.32,0.19,2.21c-1.65,13.51-8.16,23.72-18.75,28.24" stroke-dasharray="37.825" stroke-dashoffset="37.825"><animate attributeName="stroke-dashoffset" values="37.825" fill="freeze" begin="8c3f.click" /><animate attributeName="stroke-dashoffset" values="37.825;37.825;0" keyTimes="0;0.846;1" dur="2.448s" fill="freeze" begin="0s;8c3f.click" /></path><path d="M29.76,77.96c6.63,2.81,13.96,10.56,16.43,15.47" stroke-dasharray="22.914" stroke-dashoffset="22.914"><animate attributeName="stroke-dashoffset" values="22.914" fill="freeze" begin="8c3f.click" /><animate attributeName="stroke-dashoffset" values="22.914;22.914;0" keyTimes="0;0.914;1" dur="2.677s" fill="freeze" begin="0s;8c3f.click" /></path><path d="M65.23,15.48c0.03,0.45,0.07,1.17-0.07,1.82c-0.81,3.84-5.43,12.28-11.76,17.45" stroke-dasharray="23.161" stroke-dashoffset="23.161"><animate attributeName="stroke-dashoffset" values="23.161" fill="freeze" begin="8c3f.click" /><animate attributeName="stroke-dashoffset" values="23.161;23.161;0" keyTimes="0;0.92;1" dur="2.909s" fill="freeze" begin="0s;8c3f.click" /></path><path d="M79.08,15.08C84.9,19,91.99,26.49,93.98,30.5" stroke-dasharray="21.599" stroke-dashoffset="21.599"><animate attributeName="stroke-dashoffset" values="21.599" fill="freeze" begin="8c3f.click" /><animate attributeName="stroke-dashoffset" values="21.599;21.599;0" keyTimes="0;0.931;1" dur="3.125s" fill="freeze" begin="0s;8c3f.click" /></path><path d="M74.13,27.75c0.06,0.86,0.3,2.3-0.13,3.45c-3.58,9.68-10.25,23.55-22.59,33.05" stroke-dasharray="44.045" stroke-dashoffset="44.045"><animate attributeName="stroke-dashoffset" values="44.045" fill="freeze" begin="8c3f.click" /><animate attributeName="stroke-dashoffset" values="44.045;44.045;0" keyTimes="0;0.877;1" dur="3.565s" fill="freeze" begin="0s;8c3f.click" /></path><path d="M73.96,34.33c5.08,8.4,14.55,20.4,19.21,24.86c1.16,1.11,2.49,1.83,3.58,2.2" stroke-dasharray="35.71" stroke-dashoffset="35.71"><animate attributeName="stroke-dashoffset" values="35.71" fill="freeze" begin="8c3f.click" /><animate attributeName="stroke-dashoffset" values="35.71;35.71;0" keyTimes="0;0.909;1" dur="3.922s" fill="freeze" begin="0s;8c3f.click" /></path><path d="M59.59,66.86c0.31,0.46,0.62,0.84,0.75,1.41c1.06,4.53,1.83,18.04,2.55,26.18" stroke-dasharray="27.926" stroke-dashoffset="27.926"><animate attributeName="stroke-dashoffset" values="27.926" fill="freeze" begin="8c3f.click" /><animate attributeName="stroke-dashoffset" values="27.926;27.926;0" keyTimes="0;0.934;1" dur="4.201s" fill="freeze" begin="0s;8c3f.click" /></path><path d="M61.02,68.75c9.23-1.25,18.61-2.14,23.71-3.04c1.74-0.31,2.81,2.08,2.54,3.43c-1.27,6.48-2.72,11.29-3.89,19.25" stroke-dasharray="48.447" stroke-dashoffset="48.447"><animate attributeName="stroke-dashoffset" values="48.447" fill="freeze" begin="8c3f.click" /><animate attributeName="stroke-dashoffset" values="48.447;48.447;0" keyTimes="0;0.897;1" dur="4.685s" fill="freeze" begin="0s;8c3f.click" /></path><path d="M63.71,90.66c6.71-0.62,14.49-1.06,23.23-1.79" stroke-dasharray="23.3" stroke-dashoffset="23.3"><animate attributeName="stroke-dashoffset" values="23.3" fill="freeze" begin="8c3f.click" /><animate attributeName="stroke-dashoffset" values="23.3;23.3;0" keyTimes="0;0.953;1" dur="4.918s" fill="freeze" begin="0s;8c3f.click" /></path></g></svg>