<svg xmlns="http://www.w3.org/2000/svg" width="109" height="109" viewBox="0 0 109 109" id="8c5a"><g fill="none" stroke="#666" stroke-width="9" stroke-linecap="round" stroke-linejoin="round"><g><g><path d="M18.97,21.74c0.77,0.77,1.02,1.87,1.05,2.8c1.23,34.46,0.1,51.21-9.52,65.85" /><path d="M20.82,23.31c4.05-0.94,12.4-2.84,13.96-2.96c2.79-0.23,3.5,1.38,3.5,3.78c0,7.46-0.03,44.81-0.03,61.93c0,12.61-4.91,4.05-6.7,2.54" /><path d="M21.07,42.7c5.43-0.95,11.68-2.08,16.08-2.57" /><path d="M21.01,61.4c5.49-0.9,10.64-1.78,15.79-2.2" /></g><g><path d="M46.69,22.98c1.8,0.35,3.52,0.22,5.32-0.02c6.03-0.82,17.61-2.5,25.12-3.3c1.97-0.21,3.72-0.26,5.65,0.27" /><path d="M63.82,24.5c0.06,0.44,0.02,1.23-0.36,1.78c-2.97,4.29-8.7,10.22-19.23,16.6" /><path d="M56.88,36.38c10.88,9.88,15.62,29.38,9.62,52.87c-2.22,8.67-8.9,0.51-9.99-0.45" /><path d="M60.64,44.42c0.12,1.06-0.03,1.53-0.63,2.43c-2.7,4.01-7.81,9.39-15.3,13.9" /><path d="M64.53,56.71c0.1,0.87,0.03,1.69-0.31,2.5c-1.82,4.35-9.57,12.66-20.01,18.05" /><path d="M83.35,36.87c0.11,0.88-0.11,1.67-0.66,2.37c-2.32,2.89-5.82,5.89-13.03,11.01" /><path d="M67.79,52.25c4.46,5.13,14.97,17.72,21.32,24.52c1.76,1.89,3.61,3.3,5.57,4.92" /></g></g></g><g fill="none" stroke="#000" stroke-width="5" stroke-linecap="round" stroke-linejoin="round"><g><g><path d="M18.97,21.74c0.77,0.77,1.02,1.87,1.05,2.8c1.23,34.46,0.1,51.21-9.52,65.85" stroke-dasharray="70.69" stroke-dashoffset="70.69"><animate id="0" attributeName="stroke-dashoffset" values="70.69;0" dur="0.53s" fill="freeze" begin="0s;8c5a.click" /></path><path d="M20.82,23.31c4.05-0.94,12.4-2.84,13.96-2.96c2.79-0.23,3.5,1.38,3.5,3.78c0,7.46-0.03,44.81-0.03,61.93c0,12.61-4.91,4.05-6.7,2.54" stroke-dasharray="96.31" stroke-dashoffset="96.31"><animate attributeName="stroke-dashoffset" values="96.31" fill="freeze" begin="8c5a.click" /><animate id="1" attributeName="stroke-dashoffset" values="96.31;0" dur="0.72s" fill="freeze" begin="0.end" /></path><path d="M21.07,42.7c5.43-0.95,11.68-2.08,16.08-2.57" stroke-dasharray="16.29" stroke-dashoffset="16.29"><animate attributeName="stroke-dashoffset" values="16.29" fill="freeze" begin="8c5a.click" /><animate id="2" attributeName="stroke-dashoffset" values="16.29;0" dur="0.16s" fill="freeze" begin="1.end" /></path><path d="M21.01,61.4c5.49-0.9,10.64-1.78,15.79-2.2" stroke-dasharray="15.95" stroke-dashoffset="15.95"><animate attributeName="stroke-dashoffset" values="15.95" fill="freeze" begin="8c5a.click" /><animate id="3" attributeName="stroke-dashoffset" values="15.95;0" dur="0.16s" fill="freeze" begin="2.end" /></path></g><g><path d="M46.69,22.98c1.8,0.35,3.52,0.22,5.32-0.02c6.03-0.82,17.61-2.5,25.12-3.3c1.97-0.21,3.72-0.26,5.65,0.27" stroke-dasharray="36.37" stroke-dashoffset="36.37"><animate attributeName="stroke-dashoffset" values="36.37" fill="freeze" begin="8c5a.click" /><animate id="4" attributeName="stroke-dashoffset" values="36.37;0" dur="0.36s" fill="freeze" begin="3.end" /></path><path d="M63.82,24.5c0.06,0.44,0.02,1.23-0.36,1.78c-2.97,4.29-8.7,10.22-19.23,16.6" stroke-dasharray="27.43" stroke-dashoffset="27.43"><animate attributeName="stroke-dashoffset" values="27.43" fill="freeze" begin="8c5a.click" /><animate id="5" attributeName="stroke-dashoffset" values="27.43;0" dur="0.27s" fill="freeze" begin="4.end" /></path><path d="M56.88,36.38c10.88,9.88,15.62,29.38,9.62,52.87c-2.22,8.67-8.9,0.51-9.99-0.45" stroke-dasharray="70.05" stroke-dashoffset="70.05"><animate attributeName="stroke-dashoffset" values="70.05" fill="freeze" begin="8c5a.click" /><animate id="6" attributeName="stroke-dashoffset" values="70.05;0" dur="0.53s" fill="freeze" begin="5.end" /></path><path d="M60.64,44.42c0.12,1.06-0.03,1.53-0.63,2.43c-2.7,4.01-7.81,9.39-15.3,13.9" stroke-dasharray="23.41" stroke-dashoffset="23.41"><animate attributeName="stroke-dashoffset" values="23.41" fill="freeze" begin="8c5a.click" /><animate id="7" attributeName="stroke-dashoffset" values="23.41;0" dur="0.23s" fill="freeze" begin="6.end" /></path><path d="M64.53,56.71c0.1,0.87,0.03,1.69-0.31,2.5c-1.82,4.35-9.57,12.66-20.01,18.05" stroke-dasharray="29.88" stroke-dashoffset="29.88"><animate attributeName="stroke-dashoffset" values="29.88" fill="freeze" begin="8c5a.click" /><animate id="8" attributeName="stroke-dashoffset" values="29.88;0" dur="0.3s" fill="freeze" begin="7.end" /></path><path d="M83.35,36.87c0.11,0.88-0.11,1.67-0.66,2.37c-2.32,2.89-5.82,5.89-13.03,11.01" stroke-dasharray="19.64" stroke-dashoffset="19.64"><animate attributeName="stroke-dashoffset" values="19.64" fill="freeze" begin="8c5a.click" /><animate id="9" attributeName="stroke-dashoffset" values="19.64;0" dur="0.2s" fill="freeze" begin="8.end" /></path><path d="M67.79,52.25c4.46,5.13,14.97,17.72,21.32,24.52c1.76,1.89,3.61,3.3,5.57,4.92" stroke-dasharray="39.93" stroke-dashoffset="39.93"><animate attributeName="stroke-dashoffset" values="39.93" fill="freeze" begin="8c5a.click" /><animate id="10" attributeName="stroke-dashoffset" values="39.93;0" dur="0.4s" fill="freeze" begin="9.end" /></path></g></g></g></svg>