<svg xmlns="http://www.w3.org/2000/svg" width="109" height="109" viewBox="0 0 109 109" id="8c7a"><g fill="none" stroke="#666" stroke-width="9" stroke-linecap="round" stroke-linejoin="round"><g><g><path d="M39.89,12.5c0.07,0.46,0.28,1.34-0.14,1.87c-5.28,6.56-13.08,12.58-26.84,17.86" /><path d="M15.31,34.98c2.9,2.06,7.48,8.47,8.2,11.67" /><path d="M28.74,27.67c2.73,1.57,7.04,6.45,7.72,8.89" /><path d="M46.66,28.51c0.09,0.63,0.44,1.88-0.18,2.52C38,39.75,28.5,47.25,12.86,55.11" /><path d="M32.94,45.42c9.56,7.08,14.83,29.39,7.52,47.43c-4.26,10.52-9.01,0.96-10.11,0.05" /><path d="M36.1,50.17c0.07,0.49,0.29,1.35-0.14,1.98C33,56.5,23.25,65,10.8,71.16" /><path d="M39.39,62.14c0.07,0.58,0.32,1.57-0.15,2.32c-3.5,5.56-12.99,14.38-26.49,21.73" /></g><g><g><path d="M49.75,36c1.1,0,3,0.45,5.16,0.25c8.09-0.75,23.6-2.75,38.52-4c2.16-0.18,2.71-0.25,4.07,0" /><g><path d="M78.77,11.83c1.23,0.92,2.17,2.49,2.26,5.52c0.4,14.55-0.26,69.16-0.26,74.12c0,12.53-6.71,1-8.21-0.25" /></g><path d="M77.3,41.5c0.08,0.81,0.42,2.2-0.15,3.26C72.25,53.75,65,64,49.62,75.94" /></g></g></g></g><g fill="none" stroke="#000" stroke-width="5" stroke-linecap="round" stroke-linejoin="round"><path d="M39.89,12.5c0.07,0.46,0.28,1.34-0.14,1.87c-5.28,6.56-13.08,12.58-26.84,17.86" stroke-dasharray="34.56" stroke-dashoffset="34.56"><animate attributeName="stroke-dashoffset" values="34.56;34.56;0" dur="0.346s" fill="freeze" begin="0s;8c7a.click" /></path><path d="M15.31,34.98c2.9,2.06,7.48,8.47,8.2,11.67" stroke-dasharray="14.445" stroke-dashoffset="14.445"><animate attributeName="stroke-dashoffset" values="14.445" fill="freeze" begin="8c7a.click" /><animate attributeName="stroke-dashoffset" values="14.445;14.445;0" keyTimes="0;0.706;1" dur="0.49s" fill="freeze" begin="0s;8c7a.click" /></path><path d="M28.74,27.67c2.73,1.57,7.04,6.45,7.72,8.89" stroke-dasharray="11.942" stroke-dashoffset="11.942"><animate attributeName="stroke-dashoffset" values="11.942" fill="freeze" begin="8c7a.click" /><animate attributeName="stroke-dashoffset" values="11.942;11.942;0" keyTimes="0;0.805;1" dur="0.609s" fill="freeze" begin="0s;8c7a.click" /></path><path d="M46.66,28.51c0.09,0.63,0.44,1.88-0.18,2.52C38,39.75,28.5,47.25,12.86,55.11" stroke-dasharray="44.187" stroke-dashoffset="44.187"><animate attributeName="stroke-dashoffset" values="44.187" fill="freeze" begin="8c7a.click" /><animate attributeName="stroke-dashoffset" values="44.187;44.187;0" keyTimes="0;0.579;1" dur="1.051s" fill="freeze" begin="0s;8c7a.click" /></path><path d="M32.94,45.42c9.56,7.08,14.83,29.39,7.52,47.43c-4.26,10.52-9.01,0.96-10.11,0.05" stroke-dasharray="65.508" stroke-dashoffset="65.508"><animate attributeName="stroke-dashoffset" values="65.508" fill="freeze" begin="8c7a.click" /><animate attributeName="stroke-dashoffset" values="65.508;65.508;0" keyTimes="0;0.681;1" dur="1.544s" fill="freeze" begin="0s;8c7a.click" /></path><path d="M36.1,50.17c0.07,0.49,0.29,1.35-0.14,1.98C33,56.5,23.25,65,10.8,71.16" stroke-dasharray="33.816" stroke-dashoffset="33.816"><animate attributeName="stroke-dashoffset" values="33.816" fill="freeze" begin="8c7a.click" /><animate attributeName="stroke-dashoffset" values="33.816;33.816;0" keyTimes="0;0.82;1" dur="1.882s" fill="freeze" begin="0s;8c7a.click" /></path><path d="M39.39,62.14c0.07,0.58,0.32,1.57-0.15,2.32c-3.5,5.56-12.99,14.38-26.49,21.73" stroke-dasharray="36.933" stroke-dashoffset="36.933"><animate attributeName="stroke-dashoffset" values="36.933" fill="freeze" begin="8c7a.click" /><animate attributeName="stroke-dashoffset" values="36.933;36.933;0" keyTimes="0;0.836;1" dur="2.251s" fill="freeze" begin="0s;8c7a.click" /></path><path d="M49.75,36c1.1,0,3,0.45,5.16,0.25c8.09-0.75,23.6-2.75,38.52-4c2.16-0.18,2.71-0.25,4.07,0" stroke-dasharray="47.991" stroke-dashoffset="47.991"><animate attributeName="stroke-dashoffset" values="47.991" fill="freeze" begin="8c7a.click" /><animate attributeName="stroke-dashoffset" values="47.991;47.991;0" keyTimes="0;0.824;1" dur="2.731s" fill="freeze" begin="0s;8c7a.click" /></path><path d="M78.77,11.83c1.23,0.92,2.17,2.49,2.26,5.52c0.4,14.55-0.26,69.16-0.26,74.12c0,12.53-6.71,1-8.21-0.25" stroke-dasharray="95.77" stroke-dashoffset="95.77"><animate attributeName="stroke-dashoffset" values="95.77" fill="freeze" begin="8c7a.click" /><animate attributeName="stroke-dashoffset" values="95.77;95.77;0" keyTimes="0;0.791;1" dur="3.451s" fill="freeze" begin="0s;8c7a.click" /></path><path d="M77.3,41.5c0.08,0.81,0.42,2.2-0.15,3.26C72.25,53.75,65,64,49.62,75.94" stroke-dasharray="45.233" stroke-dashoffset="45.233"><animate attributeName="stroke-dashoffset" values="45.233" fill="freeze" begin="8c7a.click" /><animate attributeName="stroke-dashoffset" values="45.233;45.233;0" keyTimes="0;0.884;1" dur="3.903s" fill="freeze" begin="0s;8c7a.click" /></path></g></svg>