<svg xmlns="http://www.w3.org/2000/svg" width="109" height="109" viewBox="0 0 109 109" id="8cb3"><g fill="none" stroke="#666" stroke-width="6" stroke-linecap="round" stroke-linejoin="round"><g><g><g><path d="M12.75,32.2c1.52,0.54,4.31,0.69,5.82,0.54C29,31.75,69,27.75,82.69,26.51c2.52-0.23,4.05,0.26,5.31,0.53" /></g><g><path d="M24.95,41.1c0.99,0.09,2.35,0.4,3.34,0.38c6.04-0.14,8.37-1.22,16.67-1.84c1.64-0.12,2.64,0.04,3.46,0.09" /><path d="M20.5,49.18c1.16,0.29,3.3,0.28,4.46,0.29c6.79,0.04,17.54-1.96,25.47-2.79c1.93-0.2,3.1,0.14,4.07,0.28" /></g></g><g><g><path d="M23.11,57.74c0.45,0.88,1.1,1.53,1.1,2.7c0,1.17,0.21,19.71-0.33,24.61" /><path d="M24.96,58.76c2.53-0.15,21.79-2.02,24.1-2.19c1.92-0.15,2.95,0.81,2.95,1.9c0,2.67-0.57,24.79-0.57,25.67" /><path d="M24.26,66.6c4.73-0.33,23.06-2.37,27.11-2.37" /><path d="M24.47,75.18c7.13-0.64,19.37-1.95,26.93-2.08" /><path d="M24.14,82.75C31.27,82.27,44.9,81,51.4,81" /></g><g><path d="M32.28,86.17c0.34,1.05-0.26,2.07-0.92,2.83c-2.02,2.3-7.32,7.21-11.35,9.93" /><path d="M44.81,88.09c4.18,2.62,9.12,7.38,10.26,9.67" /></g></g><g><g><path d="M60.5,10.5c1.56,1.87,2.3,2.38,2.54,6.4C65,49.25,70.5,80.5,91.4,96.88c5.83,4.58,6.28-0.2,5.5-8.46" /><g><path d="M75.25,10.5c3.34,1.95,8.69,6.41,10.25,9.75" /></g></g></g></g></g><g fill="none" stroke="#000" stroke-width="3" stroke-linecap="round" stroke-linejoin="round"><path d="M12.75,32.2c1.52,0.54,4.31,0.69,5.82,0.54C29,31.75,69,27.75,82.69,26.51c2.52-0.23,4.05,0.26,5.31,0.53" stroke-dasharray="75.667" stroke-dashoffset="75.667"><animate attributeName="stroke-dashoffset" values="75.667;75.667;0" dur="0.569s" fill="freeze" begin="0s;8cb3.click" /></path><path d="M24.95,41.1c0.99,0.09,2.35,0.4,3.34,0.38c6.04-0.14,8.37-1.22,16.67-1.84c1.64-0.12,2.64,0.04,3.46,0.09" stroke-dasharray="23.613" stroke-dashoffset="23.613"><animate attributeName="stroke-dashoffset" values="23.613" fill="freeze" begin="8cb3.click" /><animate attributeName="stroke-dashoffset" values="23.613;23.613;0" keyTimes="0;0.707;1" dur="0.805s" fill="freeze" begin="0s;8cb3.click" /></path><path d="M20.5,49.18c1.16,0.29,3.3,0.28,4.46,0.29c6.79,0.04,17.54-1.96,25.47-2.79c1.93-0.2,3.1,0.14,4.07,0.28" stroke-dasharray="34.213" stroke-dashoffset="34.213"><animate attributeName="stroke-dashoffset" values="34.213" fill="freeze" begin="8cb3.click" /><animate attributeName="stroke-dashoffset" values="34.213;34.213;0" keyTimes="0;0.702;1" dur="1.147s" fill="freeze" begin="0s;8cb3.click" /></path><path d="M23.11,57.74c0.45,0.88,1.1,1.53,1.1,2.7c0,1.17,0.21,19.71-0.33,24.61" stroke-dasharray="27.578" stroke-dashoffset="27.578"><animate attributeName="stroke-dashoffset" values="27.578" fill="freeze" begin="8cb3.click" /><animate attributeName="stroke-dashoffset" values="27.578;27.578;0" keyTimes="0;0.806;1" dur="1.423s" fill="freeze" begin="0s;8cb3.click" /></path><path d="M24.96,58.76c2.53-0.15,21.79-2.02,24.1-2.19c1.92-0.15,2.95,0.81,2.95,1.9c0,2.67-0.57,24.79-0.57,25.67" stroke-dasharray="53.838" stroke-dashoffset="53.838"><animate attributeName="stroke-dashoffset" values="53.838" fill="freeze" begin="8cb3.click" /><animate attributeName="stroke-dashoffset" values="53.838;53.838;0" keyTimes="0;0.726;1" dur="1.961s" fill="freeze" begin="0s;8cb3.click" /></path><path d="M24.26,66.6c4.73-0.33,23.06-2.37,27.11-2.37" stroke-dasharray="27.218" stroke-dashoffset="27.218"><animate attributeName="stroke-dashoffset" values="27.218" fill="freeze" begin="8cb3.click" /><animate attributeName="stroke-dashoffset" values="27.218;27.218;0" keyTimes="0;0.878;1" dur="2.233s" fill="freeze" begin="0s;8cb3.click" /></path><path d="M24.47,75.18c7.13-0.64,19.37-1.95,26.93-2.08" stroke-dasharray="27.017" stroke-dashoffset="27.017"><animate attributeName="stroke-dashoffset" values="27.017" fill="freeze" begin="8cb3.click" /><animate attributeName="stroke-dashoffset" values="27.017;27.017;0" keyTimes="0;0.892;1" dur="2.503s" fill="freeze" begin="0s;8cb3.click" /></path><path d="M24.14,82.75C31.27,82.27,44.9,81,51.4,81" stroke-dasharray="27.322" stroke-dashoffset="27.322"><animate attributeName="stroke-dashoffset" values="27.322" fill="freeze" begin="8cb3.click" /><animate attributeName="stroke-dashoffset" values="27.322;27.322;0" keyTimes="0;0.902;1" dur="2.776s" fill="freeze" begin="0s;8cb3.click" /></path><path d="M32.28,86.17c0.34,1.05-0.26,2.07-0.92,2.83c-2.02,2.3-7.32,7.21-11.35,9.93" stroke-dasharray="18.226" stroke-dashoffset="18.226"><animate attributeName="stroke-dashoffset" values="18.226" fill="freeze" begin="8cb3.click" /><animate attributeName="stroke-dashoffset" values="18.226;18.226;0" keyTimes="0;0.938;1" dur="2.958s" fill="freeze" begin="0s;8cb3.click" /></path><path d="M44.81,88.09c4.18,2.62,9.12,7.38,10.26,9.67" stroke-dasharray="14.204" stroke-dashoffset="14.204"><animate attributeName="stroke-dashoffset" values="14.204" fill="freeze" begin="8cb3.click" /><animate attributeName="stroke-dashoffset" values="14.204;14.204;0" keyTimes="0;0.954;1" dur="3.1s" fill="freeze" begin="0s;8cb3.click" /></path><path d="M60.5,10.5c1.56,1.87,2.3,2.38,2.54,6.4C65,49.25,70.5,80.5,91.4,96.88c5.83,4.58,6.28-0.2,5.5-8.46" stroke-dasharray="109.822" stroke-dashoffset="109.822"><animate attributeName="stroke-dashoffset" values="109.822" fill="freeze" begin="8cb3.click" /><animate attributeName="stroke-dashoffset" values="109.822;109.822;0" keyTimes="0;0.79;1" dur="3.926s" fill="freeze" begin="0s;8cb3.click" /></path><path d="M75.25,10.5c3.34,1.95,8.69,6.41,10.25,9.75" stroke-dasharray="14.298" stroke-dashoffset="14.298"><animate attributeName="stroke-dashoffset" values="14.298" fill="freeze" begin="8cb3.click" /><animate attributeName="stroke-dashoffset" values="14.298;14.298;0" keyTimes="0;0.965;1" dur="4.069s" fill="freeze" begin="0s;8cb3.click" /></path></g></svg>