<svg xmlns="http://www.w3.org/2000/svg" width="109" height="109" viewBox="0 0 109 109" id="8cca"><g fill="none" stroke="#666" stroke-width="9" stroke-linecap="round" stroke-linejoin="round"><g><g><g><path d="M18.12,24.12c1.07,1.07,1.27,2.27,1.27,3.76c0,1.14,0.07,24.49,0.07,36.62c0,3.78-0.03,6.33-0.03,6.51" /><path d="M20.16,25.7c1.41-0.04,10.18-1.87,14.59-2.69c3.15-0.58,4.67-0.02,4.67,3.49c0.01,5.56,0.04,23.44-0.01,38.25c-0.01,1.88-0.01,3.69-0.01,5.39" /><path d="M20.76,39.73C27,39,31.5,38.25,38.31,37.52" /><path d="M20.53,53.75c6.85-0.88,10.72-1.63,17.82-2.19" /><path d="M20.74,68.92c4.51-0.67,10.76-1.79,17.57-2.19" /></g><g><path d="M25.03,76.03c0.29,1.52,0.08,2.7-0.5,3.74c-1.74,3.14-7.73,9.91-11.21,13.51" /><path d="M34.83,75.75c3,3.39,6.54,9.42,7.36,12.28" /></g></g><g><g p5:part="1" xmlns:p5="http://kanjivg.tagaini.net"><g p5:part="1"><path d="M47,37.13c2.5,0.62,4.57,0.25,6.63-0.08c7.65-1.26,22-4.05,30.27-5.1c2.31-0.29,4.54-0.66,6.81,0.02" /></g></g><g><path d="M45.07,59.29c0.93,0.21,2.56,0.18,3.48,0.1C53.25,59,56.5,58,62.59,57.02c0.73-0.12,1.91-0.27,2.91-0.02" /><path d="M55.39,45.73c1,1,1.38,2.15,1.38,3.83c0,12.32,0.01,20.06,0.01,28.19c0,1.88-0.03,3.78-0.03,5.75" /></g><g p5:part="2" xmlns:p5="http://kanjivg.tagaini.net"><g p5:part="2"><path d="M63.39,16c1.33,1.63,1.8,3.09,2.08,6.6C67.8,51.98,77.5,77.25,91.91,90.12c4.7,4.2,4.49,0.7,3.82-6.53" /></g><g><path d="M86.99,44.58c0.26,1.04,0.01,2.43-0.38,3.87C83.62,59.5,76.16,77.19,63.98,88.87" /></g><g p5:part="3"><g><path d="M78.08,15.75c2.6,1.77,6.75,5.81,7.97,8.84" /></g></g></g></g></g></g><g fill="none" stroke="#000" stroke-width="5" stroke-linecap="round" stroke-linejoin="round"><g><g><g><path d="M18.12,24.12c1.07,1.07,1.27,2.27,1.27,3.76c0,1.14,0.07,24.49,0.07,36.62c0,3.78-0.03,6.33-0.03,6.51" stroke-dasharray="47.22" stroke-dashoffset="47.22"><animate id="0" attributeName="stroke-dashoffset" values="47.22;0" dur="0.47s" fill="freeze" begin="0s;8cca.click" /></path><path d="M20.16,25.7c1.41-0.04,10.18-1.87,14.59-2.69c3.15-0.58,4.67-0.02,4.67,3.49c0.01,5.56,0.04,23.44-0.01,38.25c-0.01,1.88-0.01,3.69-0.01,5.39" stroke-dasharray="65.7" stroke-dashoffset="65.7"><animate attributeName="stroke-dashoffset" values="65.7" fill="freeze" begin="8cca.click" /><animate id="1" attributeName="stroke-dashoffset" values="65.7;0" dur="0.49s" fill="freeze" begin="0.end" /></path><path d="M20.76,39.73C27,39,31.5,38.25,38.31,37.52" stroke-dasharray="17.69" stroke-dashoffset="17.69"><animate attributeName="stroke-dashoffset" values="17.69" fill="freeze" begin="8cca.click" /><animate id="2" attributeName="stroke-dashoffset" values="17.69;0" dur="0.18s" fill="freeze" begin="1.end" /></path><path d="M20.53,53.75c6.85-0.88,10.72-1.63,17.82-2.19" stroke-dasharray="17.96" stroke-dashoffset="17.96"><animate attributeName="stroke-dashoffset" values="17.96" fill="freeze" begin="8cca.click" /><animate id="3" attributeName="stroke-dashoffset" values="17.96;0" dur="0.18s" fill="freeze" begin="2.end" /></path><path d="M20.74,68.92c4.51-0.67,10.76-1.79,17.57-2.19" stroke-dasharray="17.71" stroke-dashoffset="17.71"><animate attributeName="stroke-dashoffset" values="17.71" fill="freeze" begin="8cca.click" /><animate id="4" attributeName="stroke-dashoffset" values="17.71;0" dur="0.18s" fill="freeze" begin="3.end" /></path></g><g><path d="M25.03,76.03c0.29,1.52,0.08,2.7-0.5,3.74c-1.74,3.14-7.73,9.91-11.21,13.51" stroke-dasharray="21.44" stroke-dashoffset="21.44"><animate attributeName="stroke-dashoffset" values="21.44" fill="freeze" begin="8cca.click" /><animate id="5" attributeName="stroke-dashoffset" values="21.44;0" dur="0.21s" fill="freeze" begin="4.end" /></path><path d="M34.83,75.75c3,3.39,6.54,9.42,7.36,12.28" stroke-dasharray="14.39" stroke-dashoffset="14.39"><animate attributeName="stroke-dashoffset" values="14.39" fill="freeze" begin="8cca.click" /><animate id="6" attributeName="stroke-dashoffset" values="14.39;0" dur="0.14s" fill="freeze" begin="5.end" /></path></g></g><g><g p5:part="1" xmlns:p5="http://kanjivg.tagaini.net"><g p5:part="1"><path d="M47,37.13c2.5,0.62,4.57,0.25,6.63-0.08c7.65-1.26,22-4.05,30.27-5.1c2.31-0.29,4.54-0.66,6.81,0.02" stroke-dasharray="44.25" stroke-dashoffset="44.25"><animate attributeName="stroke-dashoffset" values="44.25" fill="freeze" begin="8cca.click" /><animate id="7" attributeName="stroke-dashoffset" values="44.25;0" dur="0.44s" fill="freeze" begin="6.end" /></path></g></g><g><path d="M45.07,59.29c0.93,0.21,2.56,0.18,3.48,0.1C53.25,59,56.5,58,62.59,57.02c0.73-0.12,1.91-0.27,2.91-0.02" stroke-dasharray="20.67" stroke-dashoffset="20.67"><animate attributeName="stroke-dashoffset" values="20.67" fill="freeze" begin="8cca.click" /><animate id="8" attributeName="stroke-dashoffset" values="20.67;0" dur="0.21s" fill="freeze" begin="7.end" /></path><path d="M55.39,45.73c1,1,1.38,2.15,1.38,3.83c0,12.32,0.01,20.06,0.01,28.19c0,1.88-0.03,3.78-0.03,5.75" stroke-dasharray="38.13" stroke-dashoffset="38.13"><animate attributeName="stroke-dashoffset" values="38.13" fill="freeze" begin="8cca.click" /><animate id="9" attributeName="stroke-dashoffset" values="38.13;0" dur="0.38s" fill="freeze" begin="8.end" /></path></g><g p5:part="2" xmlns:p5="http://kanjivg.tagaini.net"><g p5:part="2"><path d="M63.39,16c1.33,1.63,1.8,3.09,2.08,6.6C67.8,51.98,77.5,77.25,91.91,90.12c4.7,4.2,4.49,0.7,3.82-6.53" stroke-dasharray="93.62" stroke-dashoffset="93.62"><animate attributeName="stroke-dashoffset" values="93.62" fill="freeze" begin="8cca.click" /><animate id="10" attributeName="stroke-dashoffset" values="93.62;0" dur="0.7s" fill="freeze" begin="9.end" /></path></g><g><path d="M86.99,44.58c0.26,1.04,0.01,2.43-0.38,3.87C83.62,59.5,76.16,77.19,63.98,88.87" stroke-dasharray="50.76" stroke-dashoffset="50.76"><animate attributeName="stroke-dashoffset" values="50.76" fill="freeze" begin="8cca.click" /><animate id="11" attributeName="stroke-dashoffset" values="50.76;0" dur="0.51s" fill="freeze" begin="10.end" /></path></g><g p5:part="3"><g><path d="M78.08,15.75c2.6,1.77,6.75,5.81,7.97,8.84" stroke-dasharray="12.03" stroke-dashoffset="12.03"><animate attributeName="stroke-dashoffset" values="12.03" fill="freeze" begin="8cca.click" /><animate id="12" attributeName="stroke-dashoffset" values="12.03;0" dur="0.12s" fill="freeze" begin="11.end" /></path></g></g></g></g></g></g></svg>