<svg xmlns="http://www.w3.org/2000/svg" width="109" height="109" viewBox="0 0 109 109" id="8cdb"><g fill="none" stroke="#666" stroke-width="9" stroke-linecap="round" stroke-linejoin="round"><g><g><g><path d="M22.1,21.82c0.94,0.38,2.68,0.27,3.65,0.2c5.25-0.39,12.62-1.27,18.49-2.19c1.04-0.16,2.68-0.15,3.7,0.1" /><g><path d="M18.47,34.32c1,0.41,3.02,0.47,4.03,0.32c5.28-0.79,18.33-2.87,24.12-3.38c1.24-0.11,2.58-0.27,3.8,0.03" /><path d="M36.28,13c0.29,0.61,0.4,1.18,0.4,2.37C36.75,33.5,30.75,48.25,19.75,53" /><path d="M37.13,35.88c4.29,1.51,8.96,6.23,10.62,8.56" /></g></g><g><path d="M58.85,20.5c1.4,0.37,2.9,0.39,3.9,0.33c4.93-0.3,14.64-1.72,19.66-2.42c1.22-0.17,2.6-0.23,3.81,0.06" /><g><path d="M56.38,32.45c0.97,0.4,3.19,0.13,4.13,0c6.01-0.88,20.53-2.83,26.36-3.35c1.14-0.1,2.62,0,3.76,0.27" /><path d="M71.75,11.5c0.63,0.63,0.86,1.73,0.85,2.72C72.5,29.75,68.23,40.32,57.76,45" /><path d="M72.1,30.92c4.16,4.33,11.13,11.56,16.23,14.85c1.17,0.75,2.93,1.86,4.68,2.57" /></g></g></g><g><g><path d="M38.51,49.87c0.75,0.75,1.09,2.11,1.09,3.16c0,6.1-0.1,27.3-0.1,28.1c0,0.88,0.1,2.25,0.1,3.4" /><path d="M40.25,50.94c4.75-0.44,26.74-2.3,29.54-2.45c2.33-0.13,3.48,1.01,3.48,3.19c0,1.25,0.09,17.38,0.1,28.85c0,1.18,0.07,2.19,0.07,2.98" /><path d="M40.7,61.2c6.93-0.45,24.68-2.08,31.47-2.12" /><path d="M40.7,71.29c8.3-0.54,22.17-1.79,31.35-2.06" /><path d="M40.74,81.85c8.13-0.6,23.45-1.56,31.35-1.56" /></g><g><path d="M45.33,87.37c0.3,1.13-0.17,2.21-1.25,2.91c-3.26,2.1-12.05,6.74-18.56,9.22" /><path d="M65.02,86.52c7.52,3.21,16.41,9.03,18.46,11.84" /></g></g></g></g><g fill="none" stroke="#000" stroke-width="5" stroke-linecap="round" stroke-linejoin="round"><g><g><g><path d="M22.1,21.82c0.94,0.38,2.68,0.27,3.65,0.2c5.25-0.39,12.62-1.27,18.49-2.19c1.04-0.16,2.68-0.15,3.7,0.1" stroke-dasharray="26.02" stroke-dashoffset="26.02"><animate id="0" attributeName="stroke-dashoffset" values="26.02;0" dur="0.26s" fill="freeze" begin="0s;8cdb.click" /></path><g><path d="M18.47,34.32c1,0.41,3.02,0.47,4.03,0.32c5.28-0.79,18.33-2.87,24.12-3.38c1.24-0.11,2.58-0.27,3.8,0.03" stroke-dasharray="32.25" stroke-dashoffset="32.25"><animate attributeName="stroke-dashoffset" values="32.25" fill="freeze" begin="8cdb.click" /><animate id="1" attributeName="stroke-dashoffset" values="32.25;0" dur="0.32s" fill="freeze" begin="0.end" /></path><path d="M36.28,13c0.29,0.61,0.4,1.18,0.4,2.37C36.75,33.5,30.75,48.25,19.75,53" stroke-dasharray="45.96" stroke-dashoffset="45.96"><animate attributeName="stroke-dashoffset" values="45.96" fill="freeze" begin="8cdb.click" /><animate id="2" attributeName="stroke-dashoffset" values="45.96;0" dur="0.46s" fill="freeze" begin="1.end" /></path><path d="M37.13,35.88c4.29,1.51,8.96,6.23,10.62,8.56" stroke-dasharray="13.8" stroke-dashoffset="13.8"><animate attributeName="stroke-dashoffset" values="13.8" fill="freeze" begin="8cdb.click" /><animate id="3" attributeName="stroke-dashoffset" values="13.8;0" dur="0.14s" fill="freeze" begin="2.end" /></path></g></g><g><path d="M58.85,20.5c1.4,0.37,2.9,0.39,3.9,0.33c4.93-0.3,14.64-1.72,19.66-2.42c1.22-0.17,2.6-0.23,3.81,0.06" stroke-dasharray="27.57" stroke-dashoffset="27.57"><animate attributeName="stroke-dashoffset" values="27.57" fill="freeze" begin="8cdb.click" /><animate id="4" attributeName="stroke-dashoffset" values="27.57;0" dur="0.28s" fill="freeze" begin="3.end" /></path><g><path d="M56.38,32.45c0.97,0.4,3.19,0.13,4.13,0c6.01-0.88,20.53-2.83,26.36-3.35c1.14-0.1,2.62,0,3.76,0.27" stroke-dasharray="34.52" stroke-dashoffset="34.52"><animate attributeName="stroke-dashoffset" values="34.52" fill="freeze" begin="8cdb.click" /><animate id="5" attributeName="stroke-dashoffset" values="34.52;0" dur="0.35s" fill="freeze" begin="4.end" /></path><path d="M71.75,11.5c0.63,0.63,0.86,1.73,0.85,2.72C72.5,29.75,68.23,40.32,57.76,45" stroke-dasharray="39.22" stroke-dashoffset="39.22"><animate attributeName="stroke-dashoffset" values="39.22" fill="freeze" begin="8cdb.click" /><animate id="6" attributeName="stroke-dashoffset" values="39.22;0" dur="0.39s" fill="freeze" begin="5.end" /></path><path d="M72.1,30.92c4.16,4.33,11.13,11.56,16.23,14.85c1.17,0.75,2.93,1.86,4.68,2.57" stroke-dasharray="27.39" stroke-dashoffset="27.39"><animate attributeName="stroke-dashoffset" values="27.39" fill="freeze" begin="8cdb.click" /><animate id="7" attributeName="stroke-dashoffset" values="27.39;0" dur="0.27s" fill="freeze" begin="6.end" /></path></g></g></g><g><g><path d="M38.51,49.87c0.75,0.75,1.09,2.11,1.09,3.16c0,6.1-0.1,27.3-0.1,28.1c0,0.88,0.1,2.25,0.1,3.4" stroke-dasharray="34.92" stroke-dashoffset="34.92"><animate attributeName="stroke-dashoffset" values="34.92" fill="freeze" begin="8cdb.click" /><animate id="8" attributeName="stroke-dashoffset" values="34.92;0" dur="0.35s" fill="freeze" begin="7.end" /></path><path d="M40.25,50.94c4.75-0.44,26.74-2.3,29.54-2.45c2.33-0.13,3.48,1.01,3.48,3.19c0,1.25,0.09,17.38,0.1,28.85c0,1.18,0.07,2.19,0.07,2.98" stroke-dasharray="66.95" stroke-dashoffset="66.95"><animate attributeName="stroke-dashoffset" values="66.95" fill="freeze" begin="8cdb.click" /><animate id="9" attributeName="stroke-dashoffset" values="66.95;0" dur="0.5s" fill="freeze" begin="8.end" /></path><path d="M40.7,61.2c6.93-0.45,24.68-2.08,31.47-2.12" stroke-dasharray="31.55" stroke-dashoffset="31.55"><animate attributeName="stroke-dashoffset" values="31.55" fill="freeze" begin="8cdb.click" /><animate id="10" attributeName="stroke-dashoffset" values="31.55;0" dur="0.32s" fill="freeze" begin="9.end" /></path><path d="M40.7,71.29c8.3-0.54,22.17-1.79,31.35-2.06" stroke-dasharray="31.42" stroke-dashoffset="31.42"><animate attributeName="stroke-dashoffset" values="31.42" fill="freeze" begin="8cdb.click" /><animate id="11" attributeName="stroke-dashoffset" values="31.42;0" dur="0.31s" fill="freeze" begin="10.end" /></path><path d="M40.74,81.85c8.13-0.6,23.45-1.56,31.35-1.56" stroke-dasharray="31.39" stroke-dashoffset="31.39"><animate attributeName="stroke-dashoffset" values="31.39" fill="freeze" begin="8cdb.click" /><animate id="12" attributeName="stroke-dashoffset" values="31.39;0" dur="0.31s" fill="freeze" begin="11.end" /></path></g><g><path d="M45.33,87.37c0.3,1.13-0.17,2.21-1.25,2.91c-3.26,2.1-12.05,6.74-18.56,9.22" stroke-dasharray="24.15" stroke-dashoffset="24.15"><animate attributeName="stroke-dashoffset" values="24.15" fill="freeze" begin="8cdb.click" /><animate id="13" attributeName="stroke-dashoffset" values="24.15;0" dur="0.24s" fill="freeze" begin="12.end" /></path><path d="M65.02,86.52c7.52,3.21,16.41,9.03,18.46,11.84" stroke-dasharray="22.07" stroke-dashoffset="22.07"><animate attributeName="stroke-dashoffset" values="22.07" fill="freeze" begin="8cdb.click" /><animate id="14" attributeName="stroke-dashoffset" values="22.07;0" dur="0.22s" fill="freeze" begin="13.end" /></path></g></g></g></g></svg>