<svg xmlns="http://www.w3.org/2000/svg" viewBox="0 0 109 109" id="8ce2"><g fill="none" stroke="#666" stroke-width="6" stroke-linecap="round" stroke-linejoin="round"><g><g p4:phon="臤" xmlns:p4="http://kanjivg.tagaini.net"><g><path d="M23.54,15.08c0.69,0.69,0.9,1.54,0.9,2.58c0,4.97,0.03,20.05,0.03,28.58c0,1.89,0,3.9,0,4.82" /><path d="M25.28,16.09c6.34-0.84,13.72-1.81,20.99-2.55c1.59-0.16,3.1-0.33,4.7-0.08" /><path d="M37.34,15.89c0.63,0.63,0.9,1.36,0.9,2.08c0,2.03-0.07,3.89-0.11,6.53" /><path d="M25.66,27.47c7.01-1.06,15.05-2.29,20.36-3.06c2.37-0.34,4.25-0.5,3.56,2.36c-0.48,2-1.59,4.79-2.03,6.96" /><path d="M25.63,37.72c2.44-0.36,12.51-1.73,18.89-2.5c1.95-0.24,3.46-0.42,4.16-0.5" /><path d="M37.8,36.86c0.6,0.6,0.65,1.39,0.65,2.33c0,1.43-0.07,2.99-0.07,6.06" /><path d="M25.63,48.26c2.85-0.42,11.74-1.64,18.88-2.44c1.51-0.17,3.26-0.58,4.77-0.35" /></g><g><path d="M58.83,16.69c1.96,0.44,3.94,0.28,5.92-0.15c3.98-0.86,10.42-2.52,13.38-3.25c2.31-0.58,4.32,0.75,3.12,3.27c-5.5,11.56-13.87,21.69-24.75,27.91" /><path d="M57.52,23.04C60.47,23.56,72.25,35,82.55,42.62c2.07,1.53,3.92,2.74,6.2,3.9" /></g></g><g><g><path d="M37.34,51.85c0.78,0.78,1.08,1.85,1.08,2.88c0,3.38-0.07,16.96-0.1,25.02c-0.01,2.42-0.02,4.33-0.02,5.33" /><path d="M39.32,53.17c4.93-0.67,25.36-3.03,28.15-3.18c2.32-0.13,3.96,1.01,3.96,3.18c0,2.77-0.01,15.96-0.04,23.82c-0.01,3.04-0.01,5.17-0.01,5.39" /><path d="M39.52,63.31c9.86-1.06,24.11-2.69,30.57-3.09" /><path d="M39.52,73.05c8.9-1.04,20.48-2.05,30.71-2.8" /><path d="M39.56,83.24c9.44-0.99,21.32-2.12,30.71-2.55" /></g><g><path d="M43.05,86.72c0,0.91-0.48,1.92-1.25,2.6c-2.33,2.03-9.26,6.03-13.92,8.43" /><path d="M64.62,86.75c5.7,2.81,12.44,7.9,14,10.36" /></g></g></g></g><g fill="none" stroke="#000" stroke-width="3" stroke-linecap="round" stroke-linejoin="round"><path d="M23.54,15.08c0.69,0.69,0.9,1.54,0.9,2.58c0,4.97,0.03,20.05,0.03,28.58c0,1.89,0,3.9,0,4.82" stroke-dasharray="36.212" stroke-dashoffset="36.212"><animate attributeName="stroke-dashoffset" values="36.212;36.212;0" dur="0.362s" fill="freeze" begin="0s;8ce2.click" /></path><path d="M25.28,16.09c6.34-0.84,13.72-1.81,20.99-2.55c1.59-0.16,3.1-0.33,4.7-0.08" stroke-dasharray="25.861" stroke-dashoffset="25.861"><animate attributeName="stroke-dashoffset" values="25.861" fill="freeze" begin="8ce2.click" /><animate attributeName="stroke-dashoffset" values="25.861;25.861;0" keyTimes="0;0.583;1" dur="0.621s" fill="freeze" begin="0s;8ce2.click" /></path><path d="M37.34,15.89c0.63,0.63,0.9,1.36,0.9,2.08c0,2.03-0.07,3.89-0.11,6.53" stroke-dasharray="8.86" stroke-dashoffset="8.86"><animate attributeName="stroke-dashoffset" values="8.86" fill="freeze" begin="8ce2.click" /><animate attributeName="stroke-dashoffset" values="8.86;8.86;0" keyTimes="0;0.875;1" dur="0.71s" fill="freeze" begin="0s;8ce2.click" /></path><path d="M25.66,27.47c7.01-1.06,15.05-2.29,20.36-3.06c2.37-0.34,4.25-0.5,3.56,2.36c-0.48,2-1.59,4.79-2.03,6.96" stroke-dasharray="33.511" stroke-dashoffset="33.511"><animate attributeName="stroke-dashoffset" values="33.511" fill="freeze" begin="8ce2.click" /><animate attributeName="stroke-dashoffset" values="33.511;33.511;0" keyTimes="0;0.679;1" dur="1.045s" fill="freeze" begin="0s;8ce2.click" /></path><path d="M25.63,37.72c2.44-0.36,12.51-1.73,18.89-2.5c1.95-0.24,3.46-0.42,4.16-0.5" stroke-dasharray="23.246" stroke-dashoffset="23.246"><animate attributeName="stroke-dashoffset" values="23.246" fill="freeze" begin="8ce2.click" /><animate attributeName="stroke-dashoffset" values="23.246;23.246;0" keyTimes="0;0.818;1" dur="1.277s" fill="freeze" begin="0s;8ce2.click" /></path><path d="M37.8,36.86c0.6,0.6,0.65,1.39,0.65,2.33c0,1.43-0.07,2.99-0.07,6.06" stroke-dasharray="8.551" stroke-dashoffset="8.551"><animate attributeName="stroke-dashoffset" values="8.551" fill="freeze" begin="8ce2.click" /><animate attributeName="stroke-dashoffset" values="8.551;8.551;0" keyTimes="0;0.937;1" dur="1.363s" fill="freeze" begin="0s;8ce2.click" /></path><path d="M25.63,48.26c2.85-0.42,11.74-1.64,18.88-2.44c1.51-0.17,3.26-0.58,4.77-0.35" stroke-dasharray="23.838" stroke-dashoffset="23.838"><animate attributeName="stroke-dashoffset" values="23.838" fill="freeze" begin="8ce2.click" /><animate attributeName="stroke-dashoffset" values="23.838;23.838;0" keyTimes="0;0.851;1" dur="1.601s" fill="freeze" begin="0s;8ce2.click" /></path><path d="M58.83,16.69c1.96,0.44,3.94,0.28,5.92-0.15c3.98-0.86,10.42-2.52,13.38-3.25c2.31-0.58,4.32,0.75,3.12,3.27c-5.5,11.56-13.87,21.69-24.75,27.91" stroke-dasharray="63.675" stroke-dashoffset="63.675"><animate attributeName="stroke-dashoffset" values="63.675" fill="freeze" begin="8ce2.click" /><animate attributeName="stroke-dashoffset" values="63.675;63.675;0" keyTimes="0;0.77;1" dur="2.08s" fill="freeze" begin="0s;8ce2.click" /></path><path d="M57.52,23.04C60.47,23.56,72.25,35,82.55,42.62c2.07,1.53,3.92,2.74,6.2,3.9" stroke-dasharray="39.184" stroke-dashoffset="39.184"><animate attributeName="stroke-dashoffset" values="39.184" fill="freeze" begin="8ce2.click" /><animate attributeName="stroke-dashoffset" values="39.184;39.184;0" keyTimes="0;0.841;1" dur="2.472s" fill="freeze" begin="0s;8ce2.click" /></path><path d="M37.34,51.85c0.78,0.78,1.08,1.85,1.08,2.88c0,3.38-0.07,16.96-0.1,25.02c-0.01,2.42-0.02,4.33-0.02,5.33" stroke-dasharray="33.509" stroke-dashoffset="33.509"><animate attributeName="stroke-dashoffset" values="33.509" fill="freeze" begin="8ce2.click" /><animate attributeName="stroke-dashoffset" values="33.509;33.509;0" keyTimes="0;0.881;1" dur="2.807s" fill="freeze" begin="0s;8ce2.click" /></path><path d="M39.32,53.17c4.93-0.67,25.36-3.03,28.15-3.18c2.32-0.13,3.96,1.01,3.96,3.18c0,2.77-0.01,15.96-0.04,23.82c-0.01,3.04-0.01,5.17-0.01,5.39" stroke-dasharray="63.339" stroke-dashoffset="63.339"><animate attributeName="stroke-dashoffset" values="63.339" fill="freeze" begin="8ce2.click" /><animate attributeName="stroke-dashoffset" values="63.339;63.339;0" keyTimes="0;0.855;1" dur="3.283s" fill="freeze" begin="0s;8ce2.click" /></path><path d="M39.52,63.31c9.86-1.06,24.11-2.69,30.57-3.09" stroke-dasharray="30.729" stroke-dashoffset="30.729"><animate attributeName="stroke-dashoffset" values="30.729" fill="freeze" begin="8ce2.click" /><animate attributeName="stroke-dashoffset" values="30.729;30.729;0" keyTimes="0;0.914;1" dur="3.59s" fill="freeze" begin="0s;8ce2.click" /></path><path d="M39.52,73.05c8.9-1.04,20.48-2.05,30.71-2.8" stroke-dasharray="30.841" stroke-dashoffset="30.841"><animate attributeName="stroke-dashoffset" values="30.841" fill="freeze" begin="8ce2.click" /><animate attributeName="stroke-dashoffset" values="30.841;30.841;0" keyTimes="0;0.921;1" dur="3.898s" fill="freeze" begin="0s;8ce2.click" /></path><path d="M39.56,83.24c9.44-0.99,21.32-2.12,30.71-2.55" stroke-dasharray="30.821" stroke-dashoffset="30.821"><animate attributeName="stroke-dashoffset" values="30.821" fill="freeze" begin="8ce2.click" /><animate attributeName="stroke-dashoffset" values="30.821;30.821;0" keyTimes="0;0.927;1" dur="4.206s" fill="freeze" begin="0s;8ce2.click" /></path><path d="M43.05,86.72c0,0.91-0.48,1.92-1.25,2.6c-2.33,2.03-9.26,6.03-13.92,8.43" stroke-dasharray="19.265" stroke-dashoffset="19.265"><animate attributeName="stroke-dashoffset" values="19.265" fill="freeze" begin="8ce2.click" /><animate attributeName="stroke-dashoffset" values="19.265;19.265;0" keyTimes="0;0.956;1" dur="4.399s" fill="freeze" begin="0s;8ce2.click" /></path><path d="M64.62,86.75c5.7,2.81,12.44,7.9,14,10.36" stroke-dasharray="17.538" stroke-dashoffset="17.538"><animate attributeName="stroke-dashoffset" values="17.538" fill="freeze" begin="8ce2.click" /><animate attributeName="stroke-dashoffset" values="17.538;17.538;0" keyTimes="0;0.962;1" dur="4.574s" fill="freeze" begin="0s;8ce2.click" /></path></g></svg>