<svg xmlns="http://www.w3.org/2000/svg" width="109" height="109" viewBox="0 0 109 109" id="8cea"><g fill="none" stroke="#666" stroke-width="9" stroke-linecap="round" stroke-linejoin="round"><g><g><g><path d="M43.05,11.84c-0.05,1.04-0.57,1.92-1.2,2.53c-3,2.89-6.23,4.88-13.9,7.93" /><path d="M25.96,21.62c0.8,0.88,1.29,2.21,1.29,3.16c0.01,15.46-2.62,20.34-8.18,25.21" /><path d="M29.22,29.63c0.83-0.03,2.06-0.15,3.53-0.34c4.46-0.57,11.15-1.69,15.77-2.27c1.26-0.16,2.37-0.27,3.24-0.32" /><path d="M39.41,28.55c0.73,0.73,1.22,2.31,1.22,3.3c0,0.79-0.12,2.42-0.08,10.4c0.01,2.12,0.04,3.54,0.08,3.75" /></g><g><path d="M76.8,11.09c0.14,0.93-0.08,1.75-0.79,2.42c-3.76,3.49-6.88,5.99-13.3,8.79" /><path d="M60.58,21.62c0.57,0.73,0.89,1.84,0.91,2.64c0.26,9.11-0.12,15.49-5.43,21.23" /><path d="M63.47,27.88c0.65-0.02,1.71-0.12,3.04-0.26c5.56-0.61,15.93-2.13,21.98-2.83c1.47-0.17,2.68-0.29,3.51-0.34" /><path d="M76.25,26.62c0.73,0.73,1.22,2.31,1.22,3.3c0,0.79-0.12,2.42-0.08,10.4c0.01,2.12,0.04,3.54,0.08,3.75" /></g></g><g><g><path d="M35.12,51.3c0.73,0.73,1.22,2.31,1.22,3.3c0,0.79-0.12,19.17-0.08,27.15c0.01,2.12,0.04,3.54,0.08,3.75" /><path d="M37.08,53.11c6.04-0.48,29.35-2.67,32.43-2.87c3.74-0.24,4.37,1.26,4.37,4.37c0,4.14-0.06,15.94,0,24.89c0.01,1.69,0.03,3.23,0.06,4.5" /><path d="M37.28,63.13C45.25,62.5,62,61,72.8,60.36" /><path d="M37.55,72.8c11.2-1.05,24.2-2.05,34.85-2.75" /><path d="M37.67,83.38c9.08-0.88,22.95-2,34.85-2.75" /></g><g><path d="M40.73,87.75c0.02,1-0.23,2.25-1.25,2.97c-3.08,2.16-11.58,6.73-17.73,9.28" /><path d="M66.5,87.5c7.74,2.98,16.89,8.39,19,11" /></g></g></g></g><g fill="none" stroke="#000" stroke-width="5" stroke-linecap="round" stroke-linejoin="round"><g><g><g><path d="M43.05,11.84c-0.05,1.04-0.57,1.92-1.2,2.53c-3,2.89-6.23,4.88-13.9,7.93" stroke-dasharray="18.98" stroke-dashoffset="18.98"><animate id="0" attributeName="stroke-dashoffset" values="18.98;0" dur="0.19s" fill="freeze" begin="0s;8cea.click" /></path><path d="M25.96,21.62c0.8,0.88,1.29,2.21,1.29,3.16c0.01,15.46-2.62,20.34-8.18,25.21" stroke-dasharray="31" stroke-dashoffset="31"><animate attributeName="stroke-dashoffset" values="31" fill="freeze" begin="8cea.click" /><animate id="1" attributeName="stroke-dashoffset" values="31;0" dur="0.31s" fill="freeze" begin="0.end" /></path><path d="M29.22,29.63c0.83-0.03,2.06-0.15,3.53-0.34c4.46-0.57,11.15-1.69,15.77-2.27c1.26-0.16,2.37-0.27,3.24-0.32" stroke-dasharray="22.74" stroke-dashoffset="22.74"><animate attributeName="stroke-dashoffset" values="22.74" fill="freeze" begin="8cea.click" /><animate id="2" attributeName="stroke-dashoffset" values="22.74;0" dur="0.23s" fill="freeze" begin="1.end" /></path><path d="M39.41,28.55c0.73,0.73,1.22,2.31,1.22,3.3c0,0.79-0.12,2.42-0.08,10.4c0.01,2.12,0.04,3.54,0.08,3.75" stroke-dasharray="17.74" stroke-dashoffset="17.74"><animate attributeName="stroke-dashoffset" values="17.74" fill="freeze" begin="8cea.click" /><animate id="3" attributeName="stroke-dashoffset" values="17.74;0" dur="0.18s" fill="freeze" begin="2.end" /></path></g><g><path d="M76.8,11.09c0.14,0.93-0.08,1.75-0.79,2.42c-3.76,3.49-6.88,5.99-13.3,8.79" stroke-dasharray="18.69" stroke-dashoffset="18.69"><animate attributeName="stroke-dashoffset" values="18.69" fill="freeze" begin="8cea.click" /><animate id="4" attributeName="stroke-dashoffset" values="18.69;0" dur="0.19s" fill="freeze" begin="3.end" /></path><path d="M60.58,21.62c0.57,0.73,0.89,1.84,0.91,2.64c0.26,9.11-0.12,15.49-5.43,21.23" stroke-dasharray="25.41" stroke-dashoffset="25.41"><animate attributeName="stroke-dashoffset" values="25.41" fill="freeze" begin="8cea.click" /><animate id="5" attributeName="stroke-dashoffset" values="25.41;0" dur="0.25s" fill="freeze" begin="4.end" /></path><path d="M63.47,27.88c0.65-0.02,1.71-0.12,3.04-0.26c5.56-0.61,15.93-2.13,21.98-2.83c1.47-0.17,2.68-0.29,3.51-0.34" stroke-dasharray="28.74" stroke-dashoffset="28.74"><animate attributeName="stroke-dashoffset" values="28.74" fill="freeze" begin="8cea.click" /><animate id="6" attributeName="stroke-dashoffset" values="28.74;0" dur="0.29s" fill="freeze" begin="5.end" /></path><path d="M76.25,26.62c0.73,0.73,1.22,2.31,1.22,3.3c0,0.79-0.12,2.42-0.08,10.4c0.01,2.12,0.04,3.54,0.08,3.75" stroke-dasharray="17.74" stroke-dashoffset="17.74"><animate attributeName="stroke-dashoffset" values="17.74" fill="freeze" begin="8cea.click" /><animate id="7" attributeName="stroke-dashoffset" values="17.74;0" dur="0.18s" fill="freeze" begin="6.end" /></path></g></g><g><g><path d="M35.12,51.3c0.73,0.73,1.22,2.31,1.22,3.3c0,0.79-0.12,19.17-0.08,27.15c0.01,2.12,0.04,3.54,0.08,3.75" stroke-dasharray="34.49" stroke-dashoffset="34.49"><animate attributeName="stroke-dashoffset" values="34.49" fill="freeze" begin="8cea.click" /><animate id="8" attributeName="stroke-dashoffset" values="34.49;0" dur="0.34s" fill="freeze" begin="7.end" /></path><path d="M37.08,53.11c6.04-0.48,29.35-2.67,32.43-2.87c3.74-0.24,4.37,1.26,4.37,4.37c0,4.14-0.06,15.94,0,24.89c0.01,1.69,0.03,3.23,0.06,4.5" stroke-dasharray="69.39" stroke-dashoffset="69.39"><animate attributeName="stroke-dashoffset" values="69.39" fill="freeze" begin="8cea.click" /><animate id="9" attributeName="stroke-dashoffset" values="69.39;0" dur="0.52s" fill="freeze" begin="8.end" /></path><path d="M37.28,63.13C45.25,62.5,62,61,72.8,60.36" stroke-dasharray="35.63" stroke-dashoffset="35.63"><animate attributeName="stroke-dashoffset" values="35.63" fill="freeze" begin="8cea.click" /><animate id="10" attributeName="stroke-dashoffset" values="35.63;0" dur="0.36s" fill="freeze" begin="9.end" /></path><path d="M37.55,72.8c11.2-1.05,24.2-2.05,34.85-2.75" stroke-dasharray="34.96" stroke-dashoffset="34.96"><animate attributeName="stroke-dashoffset" values="34.96" fill="freeze" begin="8cea.click" /><animate id="11" attributeName="stroke-dashoffset" values="34.96;0" dur="0.35s" fill="freeze" begin="10.end" /></path><path d="M37.67,83.38c9.08-0.88,22.95-2,34.85-2.75" stroke-dasharray="34.96" stroke-dashoffset="34.96"><animate attributeName="stroke-dashoffset" values="34.96" fill="freeze" begin="8cea.click" /><animate id="12" attributeName="stroke-dashoffset" values="34.96;0" dur="0.35s" fill="freeze" begin="11.end" /></path></g><g><path d="M40.73,87.75c0.02,1-0.23,2.25-1.25,2.97c-3.08,2.16-11.58,6.73-17.73,9.28" stroke-dasharray="23.39" stroke-dashoffset="23.39"><animate attributeName="stroke-dashoffset" values="23.39" fill="freeze" begin="8cea.click" /><animate id="13" attributeName="stroke-dashoffset" values="23.39;0" dur="0.23s" fill="freeze" begin="12.end" /></path><path d="M66.5,87.5c7.74,2.98,16.89,8.39,19,11" stroke-dasharray="22.08" stroke-dashoffset="22.08"><animate attributeName="stroke-dashoffset" values="22.08" fill="freeze" begin="8cea.click" /><animate id="14" attributeName="stroke-dashoffset" values="22.08;0" dur="0.22s" fill="freeze" begin="13.end" /></path></g></g></g></g></svg>