<svg xmlns="http://www.w3.org/2000/svg" width="109" height="109" viewBox="0 0 109 109" id="8ced"><g fill="none" stroke="#666" stroke-width="9" stroke-linecap="round" stroke-linejoin="round"><g><g><g><path d="M19.4,21.87c0.31,1.14,0.77,1.99,0.77,3.51c0,1.52-0.34,40.97-0.21,45.99" /><path d="M20.69,23.34c1.77-0.19,15.26-2.62,16.87-2.85c1.34-0.19,2.4,1.06,2.29,2.47c-0.14,1.79-0.56,35.57-0.9,46.99" /><path d="M20.66,37.42c4.34-0.17,15.39-1.6,18.23-1.6" /><path d="M20.3,52.37c3.95-0.37,13.45-1.62,18.49-1.78" /><path d="M20.76,68.5c3.52,0,13.55-1.28,18.1-1.28" /></g><g><path d="M24.21,76.59c0.29,1.1,0.59,1.4,0,2.2c-1.77,2.42-8.24,9.86-11.79,12.71" /><path d="M34.16,76.08c3.02,3.61,6.59,10.14,7.41,13.3" /></g></g><g><g p5:partial xmlns:p5="http://kanjivg.tagaini.net"><g><path d="M52.15,31.37c0.63,0.25,1.79,0.29,2.42,0.25c7.19-0.41,20.48-2.35,27.57-2.52c1.05-0.03,1.69,0.12,2.21,0.25" /><path d="M65.7,13.37c0.1,0.29,1.32,1.53,1.42,3.4c0.45,8.95,0.24,25.26,0.24,28.31" /><path d="M46.25,46.16c1.12,0.45,2.83,0.7,3.85,0.66c7.65-0.32,38.52-4.68,45.01-4.88c1.67-0.05,2.68,0.32,3.51,0.65" /></g><path d="M89.79,22.27c0.12,1.16,0.67,2.79-0.25,4.17c-11.8,17.7-20.79,30.81-44.92,47.2" /></g><path d="M75.52,51.08c1.94,1.04,5,4.29,5.48,5.92" /><g><path d="M61.51,60.58c0.29,0.85,0.58,1.28,0.58,2.42c0,1.13-0.1,32.37,0,33.5" /><path d="M62.57,62.22c4.43-0.47,22.69-2.45,24.19-2.62c1.24-0.14,2.04,1.57,1.95,2.41c-0.19,1.7-0.38,31.93-0.38,32.78" /><path d="M62.36,76.6c2.22,0,23.28-1.55,25.79-1.55" /><path d="M62.26,92.31c5.99-0.31,18.99-1.06,25.88-1.26" /></g></g></g></g><g fill="none" stroke="#000" stroke-width="5" stroke-linecap="round" stroke-linejoin="round"><g><g><g><path d="M19.4,21.87c0.31,1.14,0.77,1.99,0.77,3.51c0,1.52-0.34,40.97-0.21,45.99" stroke-dasharray="49.6" stroke-dashoffset="49.6"><animate id="0" attributeName="stroke-dashoffset" values="49.6;0" dur="0.5s" fill="freeze" begin="0s;8ced.click" /></path><path d="M20.69,23.34c1.77-0.19,15.26-2.62,16.87-2.85c1.34-0.19,2.4,1.06,2.29,2.47c-0.14,1.79-0.56,35.57-0.9,46.99" stroke-dasharray="67.97" stroke-dashoffset="67.97"><animate attributeName="stroke-dashoffset" values="67.97" fill="freeze" begin="8ced.click" /><animate id="1" attributeName="stroke-dashoffset" values="67.97;0" dur="0.51s" fill="freeze" begin="0.end" /></path><path d="M20.66,37.42c4.34-0.17,15.39-1.6,18.23-1.6" stroke-dasharray="18.3" stroke-dashoffset="18.3"><animate attributeName="stroke-dashoffset" values="18.3" fill="freeze" begin="8ced.click" /><animate id="2" attributeName="stroke-dashoffset" values="18.3;0" dur="0.18s" fill="freeze" begin="1.end" /></path><path d="M20.3,52.37c3.95-0.37,13.45-1.62,18.49-1.78" stroke-dasharray="18.58" stroke-dashoffset="18.58"><animate attributeName="stroke-dashoffset" values="18.58" fill="freeze" begin="8ced.click" /><animate id="3" attributeName="stroke-dashoffset" values="18.58;0" dur="0.19s" fill="freeze" begin="2.end" /></path><path d="M20.76,68.5c3.52,0,13.55-1.28,18.1-1.28" stroke-dasharray="18.15" stroke-dashoffset="18.15"><animate attributeName="stroke-dashoffset" values="18.15" fill="freeze" begin="8ced.click" /><animate id="4" attributeName="stroke-dashoffset" values="18.15;0" dur="0.18s" fill="freeze" begin="3.end" /></path></g><g><path d="M24.21,76.59c0.29,1.1,0.59,1.4,0,2.2c-1.77,2.42-8.24,9.86-11.79,12.71" stroke-dasharray="19.69" stroke-dashoffset="19.69"><animate attributeName="stroke-dashoffset" values="19.69" fill="freeze" begin="8ced.click" /><animate id="5" attributeName="stroke-dashoffset" values="19.69;0" dur="0.2s" fill="freeze" begin="4.end" /></path><path d="M34.16,76.08c3.02,3.61,6.59,10.14,7.41,13.3" stroke-dasharray="15.31" stroke-dashoffset="15.31"><animate attributeName="stroke-dashoffset" values="15.31" fill="freeze" begin="8ced.click" /><animate id="6" attributeName="stroke-dashoffset" values="15.31;0" dur="0.15s" fill="freeze" begin="5.end" /></path></g></g><g><g p5:partial xmlns:p5="http://kanjivg.tagaini.net"><g><path d="M52.15,31.37c0.63,0.25,1.79,0.29,2.42,0.25c7.19-0.41,20.48-2.35,27.57-2.52c1.05-0.03,1.69,0.12,2.21,0.25" stroke-dasharray="32.37" stroke-dashoffset="32.37"><animate attributeName="stroke-dashoffset" values="32.37" fill="freeze" begin="8ced.click" /><animate id="7" attributeName="stroke-dashoffset" values="32.37;0" dur="0.32s" fill="freeze" begin="6.end" /></path><path d="M65.7,13.37c0.1,0.29,1.32,1.53,1.42,3.4c0.45,8.95,0.24,25.26,0.24,28.31" stroke-dasharray="32.05" stroke-dashoffset="32.05"><animate attributeName="stroke-dashoffset" values="32.05" fill="freeze" begin="8ced.click" /><animate id="8" attributeName="stroke-dashoffset" values="32.05;0" dur="0.32s" fill="freeze" begin="7.end" /></path><path d="M46.25,46.16c1.12,0.45,2.83,0.7,3.85,0.66c7.65-0.32,38.52-4.68,45.01-4.88c1.67-0.05,2.68,0.32,3.51,0.65" stroke-dasharray="52.81" stroke-dashoffset="52.81"><animate attributeName="stroke-dashoffset" values="52.81" fill="freeze" begin="8ced.click" /><animate id="9" attributeName="stroke-dashoffset" values="52.81;0" dur="0.53s" fill="freeze" begin="8.end" /></path></g><path d="M89.79,22.27c0.12,1.16,0.67,2.79-0.25,4.17c-11.8,17.7-20.79,30.81-44.92,47.2" stroke-dasharray="69.99" stroke-dashoffset="69.99"><animate attributeName="stroke-dashoffset" values="69.99" fill="freeze" begin="8ced.click" /><animate id="10" attributeName="stroke-dashoffset" values="69.99;0" dur="0.53s" fill="freeze" begin="9.end" /></path></g><path d="M75.52,51.08c1.94,1.04,5,4.29,5.48,5.92" stroke-dasharray="8.18" stroke-dashoffset="8.18"><animate attributeName="stroke-dashoffset" values="8.18" fill="freeze" begin="8ced.click" /><animate id="11" attributeName="stroke-dashoffset" values="8.18;0" dur="0.08s" fill="freeze" begin="10.end" /></path><g><path d="M61.51,60.58c0.29,0.85,0.58,1.28,0.58,2.42c0,1.13-0.1,32.37,0,33.5" stroke-dasharray="36.01" stroke-dashoffset="36.01"><animate attributeName="stroke-dashoffset" values="36.01" fill="freeze" begin="8ced.click" /><animate id="12" attributeName="stroke-dashoffset" values="36.01;0" dur="0.36s" fill="freeze" begin="11.end" /></path><path d="M62.57,62.22c4.43-0.47,22.69-2.45,24.19-2.62c1.24-0.14,2.04,1.57,1.95,2.41c-0.19,1.7-0.38,31.93-0.38,32.78" stroke-dasharray="60.57" stroke-dashoffset="60.57"><animate attributeName="stroke-dashoffset" values="60.57" fill="freeze" begin="8ced.click" /><animate id="13" attributeName="stroke-dashoffset" values="60.57;0" dur="0.46s" fill="freeze" begin="12.end" /></path><path d="M62.36,76.6c2.22,0,23.28-1.55,25.79-1.55" stroke-dasharray="25.84" stroke-dashoffset="25.84"><animate attributeName="stroke-dashoffset" values="25.84" fill="freeze" begin="8ced.click" /><animate id="14" attributeName="stroke-dashoffset" values="25.84;0" dur="0.26s" fill="freeze" begin="13.end" /></path><path d="M62.26,92.31c5.99-0.31,18.99-1.06,25.88-1.26" stroke-dasharray="25.91" stroke-dashoffset="25.91"><animate attributeName="stroke-dashoffset" values="25.91" fill="freeze" begin="8ced.click" /><animate id="15" attributeName="stroke-dashoffset" values="25.91;0" dur="0.26s" fill="freeze" begin="14.end" /></path></g></g></g></g></svg>