<svg xmlns="http://www.w3.org/2000/svg" viewBox="0 0 109 109" id="8ced"><g fill="none" stroke="#666" stroke-width="6" stroke-linecap="round" stroke-linejoin="round"><g><g><g><path d="M19.4,21.87c0.31,1.14,0.77,1.99,0.77,3.51c0,1.52-0.34,40.97-0.21,45.99" /><path d="M20.69,23.34c1.77-0.19,15.26-2.62,16.87-2.85c1.34-0.19,2.4,1.06,2.29,2.47c-0.14,1.79-0.56,35.57-0.9,46.99" /><path d="M20.66,37.42c4.34-0.17,15.39-1.6,18.23-1.6" /><path d="M20.3,52.37c3.95-0.37,13.45-1.62,18.49-1.78" /><path d="M20.76,68.5c3.52,0,13.55-1.28,18.1-1.28" /></g><g><path d="M24.21,76.59c0.29,1.1,0.59,1.4,0,2.2c-1.77,2.42-8.24,9.86-11.79,12.71" /><path d="M34.16,76.08c3.02,3.61,6.59,10.14,7.41,13.3" /></g></g><g><g p5:partial xmlns:p5="http://kanjivg.tagaini.net"><g><path d="M52.15,31.37c0.63,0.25,1.79,0.29,2.42,0.25c7.19-0.41,20.48-2.35,27.57-2.52c1.05-0.03,1.69,0.12,2.21,0.25" /><path d="M65.7,13.37c0.1,0.29,1.32,1.53,1.42,3.4c0.45,8.95,0.24,25.26,0.24,28.31" /><path d="M46.25,46.16c1.12,0.45,2.83,0.7,3.85,0.66c7.65-0.32,38.52-4.68,45.01-4.88c1.67-0.05,2.68,0.32,3.51,0.65" /></g><path d="M89.79,22.27c0.12,1.16,0.67,2.79-0.25,4.17c-11.8,17.7-20.79,30.81-44.92,47.2" /></g><path d="M75.52,51.08c1.94,1.04,5,4.29,5.48,5.92" /><g><path d="M61.51,60.58c0.29,0.85,0.58,1.28,0.58,2.42c0,1.13-0.1,32.37,0,33.5" /><path d="M62.57,62.22c4.43-0.47,22.69-2.45,24.19-2.62c1.24-0.14,2.04,1.57,1.95,2.41c-0.19,1.7-0.38,31.93-0.38,32.78" /><path d="M62.36,76.6c2.22,0,23.28-1.55,25.79-1.55" /><path d="M62.26,92.31c5.99-0.31,18.99-1.06,25.88-1.26" /></g></g></g></g><g fill="none" stroke="#000" stroke-width="3" stroke-linecap="round" stroke-linejoin="round"><path d="M19.4,21.87c0.31,1.14,0.77,1.99,0.77,3.51c0,1.52-0.34,40.97-0.21,45.99" stroke-dasharray="49.604" stroke-dashoffset="49.604"><animate attributeName="stroke-dashoffset" values="49.604;49.604;0" dur="0.496s" fill="freeze" begin="0s;8ced.click" /></path><path d="M20.69,23.34c1.77-0.19,15.26-2.62,16.87-2.85c1.34-0.19,2.4,1.06,2.29,2.47c-0.14,1.79-0.56,35.57-0.9,46.99" stroke-dasharray="67.975" stroke-dashoffset="67.975"><animate attributeName="stroke-dashoffset" values="67.975" fill="freeze" begin="8ced.click" /><animate attributeName="stroke-dashoffset" values="67.975;67.975;0" keyTimes="0;0.493;1" dur="1.007s" fill="freeze" begin="0s;8ced.click" /></path><path d="M20.66,37.42c4.34-0.17,15.39-1.6,18.23-1.6" stroke-dasharray="18.304" stroke-dashoffset="18.304"><animate attributeName="stroke-dashoffset" values="18.304" fill="freeze" begin="8ced.click" /><animate attributeName="stroke-dashoffset" values="18.304;18.304;0" keyTimes="0;0.846;1" dur="1.19s" fill="freeze" begin="0s;8ced.click" /></path><path d="M20.3,52.37c3.95-0.37,13.45-1.62,18.49-1.78" stroke-dasharray="18.58" stroke-dashoffset="18.58"><animate attributeName="stroke-dashoffset" values="18.58" fill="freeze" begin="8ced.click" /><animate attributeName="stroke-dashoffset" values="18.58;18.58;0" keyTimes="0;0.865;1" dur="1.376s" fill="freeze" begin="0s;8ced.click" /></path><path d="M20.76,68.5c3.52,0,13.55-1.28,18.1-1.28" stroke-dasharray="18.151" stroke-dashoffset="18.151"><animate attributeName="stroke-dashoffset" values="18.151" fill="freeze" begin="8ced.click" /><animate attributeName="stroke-dashoffset" values="18.151;18.151;0" keyTimes="0;0.883;1" dur="1.558s" fill="freeze" begin="0s;8ced.click" /></path><path d="M24.21,76.59c0.29,1.1,0.59,1.4,0,2.2c-1.77,2.42-8.24,9.86-11.79,12.71" stroke-dasharray="19.692" stroke-dashoffset="19.692"><animate attributeName="stroke-dashoffset" values="19.692" fill="freeze" begin="8ced.click" /><animate attributeName="stroke-dashoffset" values="19.692;19.692;0" keyTimes="0;0.888;1" dur="1.755s" fill="freeze" begin="0s;8ced.click" /></path><path d="M34.16,76.08c3.02,3.61,6.59,10.14,7.41,13.3" stroke-dasharray="15.306" stroke-dashoffset="15.306"><animate attributeName="stroke-dashoffset" values="15.306" fill="freeze" begin="8ced.click" /><animate attributeName="stroke-dashoffset" values="15.306;15.306;0" keyTimes="0;0.92;1" dur="1.908s" fill="freeze" begin="0s;8ced.click" /></path><path d="M52.15,31.37c0.63,0.25,1.79,0.29,2.42,0.25c7.19-0.41,20.48-2.35,27.57-2.52c1.05-0.03,1.69,0.12,2.21,0.25" stroke-dasharray="32.371" stroke-dashoffset="32.371"><animate attributeName="stroke-dashoffset" values="32.371" fill="freeze" begin="8ced.click" /><animate attributeName="stroke-dashoffset" values="32.371;32.371;0" keyTimes="0;0.855;1" dur="2.232s" fill="freeze" begin="0s;8ced.click" /></path><path d="M65.7,13.37c0.1,0.29,1.32,1.53,1.42,3.4c0.45,8.95,0.24,25.26,0.24,28.31" stroke-dasharray="32.054" stroke-dashoffset="32.054"><animate attributeName="stroke-dashoffset" values="32.054" fill="freeze" begin="8ced.click" /><animate attributeName="stroke-dashoffset" values="32.054;32.054;0" keyTimes="0;0.874;1" dur="2.553s" fill="freeze" begin="0s;8ced.click" /></path><path d="M46.25,46.16c1.12,0.45,2.83,0.7,3.85,0.66c7.65-0.32,38.52-4.68,45.01-4.88c1.67-0.05,2.68,0.32,3.51,0.65" stroke-dasharray="52.809" stroke-dashoffset="52.809"><animate attributeName="stroke-dashoffset" values="52.809" fill="freeze" begin="8ced.click" /><animate attributeName="stroke-dashoffset" values="52.809;52.809;0" keyTimes="0;0.829;1" dur="3.081s" fill="freeze" begin="0s;8ced.click" /></path><path d="M89.79,22.27c0.12,1.16,0.67,2.79-0.25,4.17c-11.8,17.7-20.79,30.81-44.92,47.2" stroke-dasharray="69.988" stroke-dashoffset="69.988"><animate attributeName="stroke-dashoffset" values="69.988" fill="freeze" begin="8ced.click" /><animate attributeName="stroke-dashoffset" values="69.988;69.988;0" keyTimes="0;0.854;1" dur="3.607s" fill="freeze" begin="0s;8ced.click" /></path><path d="M75.52,51.08c1.94,1.04,5,4.29,5.48,5.92" stroke-dasharray="8.186" stroke-dashoffset="8.186"><animate attributeName="stroke-dashoffset" values="8.186" fill="freeze" begin="8ced.click" /><animate attributeName="stroke-dashoffset" values="8.186;8.186;0" keyTimes="0;0.957;1" dur="3.771s" fill="freeze" begin="0s;8ced.click" /></path><path d="M61.51,60.58c0.29,0.85,0.58,1.28,0.58,2.42c0,1.13-0.1,32.37,0,33.5" stroke-dasharray="36.009" stroke-dashoffset="36.009"><animate attributeName="stroke-dashoffset" values="36.009" fill="freeze" begin="8ced.click" /><animate attributeName="stroke-dashoffset" values="36.009;36.009;0" keyTimes="0;0.913;1" dur="4.131s" fill="freeze" begin="0s;8ced.click" /></path><path d="M62.57,62.22c4.43-0.47,22.69-2.45,24.19-2.62c1.24-0.14,2.04,1.57,1.95,2.41c-0.19,1.7-0.38,31.93-0.38,32.78" stroke-dasharray="60.574" stroke-dashoffset="60.574"><animate attributeName="stroke-dashoffset" values="60.574" fill="freeze" begin="8ced.click" /><animate attributeName="stroke-dashoffset" values="60.574;60.574;0" keyTimes="0;0.901;1" dur="4.586s" fill="freeze" begin="0s;8ced.click" /></path><path d="M62.36,76.6c2.22,0,23.28-1.55,25.79-1.55" stroke-dasharray="25.839" stroke-dashoffset="25.839"><animate attributeName="stroke-dashoffset" values="25.839" fill="freeze" begin="8ced.click" /><animate attributeName="stroke-dashoffset" values="25.839;25.839;0" keyTimes="0;0.947;1" dur="4.844s" fill="freeze" begin="0s;8ced.click" /></path><path d="M62.26,92.31c5.99-0.31,18.99-1.06,25.88-1.26" stroke-dasharray="25.912" stroke-dashoffset="25.912"><animate attributeName="stroke-dashoffset" values="25.912" fill="freeze" begin="8ced.click" /><animate attributeName="stroke-dashoffset" values="25.912;25.912;0" keyTimes="0;0.949;1" dur="5.103s" fill="freeze" begin="0s;8ced.click" /></path></g></svg>