<svg xmlns="http://www.w3.org/2000/svg" width="109" height="109" viewBox="0 0 109 109" id="8cfa"><g fill="none" stroke="#666" stroke-width="9" stroke-linecap="round" stroke-linejoin="round"><g><g><g><path d="M15.86,18.05c0.28,0.97,0.68,1.7,0.68,2.99s-0.3,50.08-0.18,54.36" /><path d="M17,19.95c1.56-0.16,13.45-2.73,14.87-2.93c1.18-0.16,2.12,0.91,2.02,2.11c-0.13,1.52-0.23,46.37-0.23,55.99" /><path d="M16.97,37.31c4.9-0.51,13.56-1.72,16.07-1.72" /><path d="M17.1,53.56c5.96-0.79,8.86-0.7,15.41-1.44" /><path d="M17.5,72.81c3.1,0,12.06-1.44,16.07-1.44" /></g><g><path d="M20.65,79.93c0.26,1.38,0.51,1.76,0,2.77c-1.54,3.04-7.15,12.42-10.22,16.02" /><path d="M27.85,79.82c2.84,4.31,6.2,12.11,6.97,15.89" /></g></g><g><path d="M61.73,11.88c0.05,0.29,0.09,0.74-0.09,1.15c-1.13,2.42-7.56,7.74-16.37,10.99" /><path d="M80.07,11.39c0.05,0.28,0.09,0.72-0.09,1.12c-1.11,2.37-7.44,7.57-16.11,10.76" /><path d="M41.36,33.37c1.13,0.35,3.2,0.43,4.33,0.35c7.59-0.5,31.8-3.35,43.09-4.05c1.88-0.12,3.01,0.17,3.95,0.34" /><g><path d="M44.63,42.29c1.61,0.22,2.5,0.68,4.6,0.44c11.5-1.31,25.35-3.49,35.71-4.15c2.06-0.13,3.22,1.53,2.76,3.71c-1.2,5.71-1.6,12.09-2.57,17.06" /><path d="M39,51.52c1.79,0.18,3.2,0.54,5.18,0.37c17.32-1.48,34.44-3.08,48.37-4.21c2.19-0.18,3.98,0.37,4.98,0.56" /><path d="M44.77,61.88c1.17,0.11,3.3,0.43,4.69,0.33c10.38-0.78,23.46-1.96,33.91-2.73c1.86-0.13,3.05,0,4.46,0.11" /></g><g><path d="M55.63,22.94c0.92,0.48,1.47,2.14,1.65,3.08c0.18,0.95,0,66.05-0.18,71.99" /></g><g><path d="M69.35,23.45c0.91,0.47,1.47,2.14,1.65,3.08c0.18,0.95,0,65.55-0.19,71.49" /></g><g><g><path d="M56.62,62.23c-3.43,7.7-12.35,18.61-19.49,22.97" /></g><g><path d="M71.16,61.37c4.59,6.13,14.59,19.88,21.97,25.02c1.45,1.01,2.32,1.77,3.57,2.13" /></g></g></g></g></g><g fill="none" stroke="#000" stroke-width="5" stroke-linecap="round" stroke-linejoin="round"><path d="M15.86,18.05c0.28,0.97,0.68,1.7,0.68,2.99s-0.3,50.08-0.18,54.36" stroke-dasharray="57.445" stroke-dashoffset="57.445"><animate attributeName="stroke-dashoffset" values="57.445;57.445;0" dur="0.574s" fill="freeze" begin="0s;8cfa.click" /></path><path d="M17,19.95c1.56-0.16,13.45-2.73,14.87-2.93c1.18-0.16,2.12,0.91,2.02,2.11c-0.13,1.52-0.23,46.37-0.23,55.99" stroke-dasharray="74.5" stroke-dashoffset="74.5"><animate attributeName="stroke-dashoffset" values="74.5" fill="freeze" begin="8cfa.click" /><animate attributeName="stroke-dashoffset" values="74.5;74.5;0" keyTimes="0;0.506;1" dur="1.134s" fill="freeze" begin="0s;8cfa.click" /></path><path d="M16.97,37.31c4.9-0.51,13.56-1.72,16.07-1.72" stroke-dasharray="16.166" stroke-dashoffset="16.166"><animate attributeName="stroke-dashoffset" values="16.166" fill="freeze" begin="8cfa.click" /><animate attributeName="stroke-dashoffset" values="16.166;16.166;0" keyTimes="0;0.875;1" dur="1.296s" fill="freeze" begin="0s;8cfa.click" /></path><path d="M17.1,53.56c5.96-0.79,8.86-0.7,15.41-1.44" stroke-dasharray="15.48" stroke-dashoffset="15.48"><animate attributeName="stroke-dashoffset" values="15.48" fill="freeze" begin="8cfa.click" /><animate attributeName="stroke-dashoffset" values="15.48;15.48;0" keyTimes="0;0.893;1" dur="1.451s" fill="freeze" begin="0s;8cfa.click" /></path><path d="M17.5,72.81c3.1,0,12.06-1.44,16.07-1.44" stroke-dasharray="16.142" stroke-dashoffset="16.142"><animate attributeName="stroke-dashoffset" values="16.142" fill="freeze" begin="8cfa.click" /><animate attributeName="stroke-dashoffset" values="16.142;16.142;0" keyTimes="0;0.9;1" dur="1.612s" fill="freeze" begin="0s;8cfa.click" /></path><path d="M20.65,79.93c0.26,1.38,0.51,1.76,0,2.77c-1.54,3.04-7.15,12.42-10.22,16.02" stroke-dasharray="21.876" stroke-dashoffset="21.876"><animate attributeName="stroke-dashoffset" values="21.876" fill="freeze" begin="8cfa.click" /><animate attributeName="stroke-dashoffset" values="21.876;21.876;0" keyTimes="0;0.88;1" dur="1.831s" fill="freeze" begin="0s;8cfa.click" /></path><path d="M27.85,79.82c2.84,4.31,6.2,12.11,6.97,15.89" stroke-dasharray="17.421" stroke-dashoffset="17.421"><animate attributeName="stroke-dashoffset" values="17.421" fill="freeze" begin="8cfa.click" /><animate attributeName="stroke-dashoffset" values="17.421;17.421;0" keyTimes="0;0.913;1" dur="2.005s" fill="freeze" begin="0s;8cfa.click" /></path><path d="M61.73,11.88c0.05,0.29,0.09,0.74-0.09,1.15c-1.13,2.42-7.56,7.74-16.37,10.99" stroke-dasharray="21.178" stroke-dashoffset="21.178"><animate attributeName="stroke-dashoffset" values="21.178" fill="freeze" begin="8cfa.click" /><animate attributeName="stroke-dashoffset" values="21.178;21.178;0" keyTimes="0;0.904;1" dur="2.217s" fill="freeze" begin="0s;8cfa.click" /></path><path d="M80.07,11.39c0.05,0.28,0.09,0.72-0.09,1.12c-1.11,2.37-7.44,7.57-16.11,10.76" stroke-dasharray="20.798" stroke-dashoffset="20.798"><animate attributeName="stroke-dashoffset" values="20.798" fill="freeze" begin="8cfa.click" /><animate attributeName="stroke-dashoffset" values="20.798;20.798;0" keyTimes="0;0.914;1" dur="2.425s" fill="freeze" begin="0s;8cfa.click" /></path><path d="M41.36,33.37c1.13,0.35,3.2,0.43,4.33,0.35c7.59-0.5,31.8-3.35,43.09-4.05c1.88-0.12,3.01,0.17,3.95,0.34" stroke-dasharray="51.623" stroke-dashoffset="51.623"><animate attributeName="stroke-dashoffset" values="51.623" fill="freeze" begin="8cfa.click" /><animate attributeName="stroke-dashoffset" values="51.623;51.623;0" keyTimes="0;0.825;1" dur="2.941s" fill="freeze" begin="0s;8cfa.click" /></path><path d="M44.63,42.29c1.61,0.22,2.5,0.68,4.6,0.44c11.5-1.31,25.35-3.49,35.71-4.15c2.06-0.13,3.22,1.53,2.76,3.71c-1.2,5.71-1.6,12.09-2.57,17.06" stroke-dasharray="63.338" stroke-dashoffset="63.338"><animate attributeName="stroke-dashoffset" values="63.338" fill="freeze" begin="8cfa.click" /><animate attributeName="stroke-dashoffset" values="63.338;63.338;0" keyTimes="0;0.861;1" dur="3.417s" fill="freeze" begin="0s;8cfa.click" /></path><path d="M39,51.52c1.79,0.18,3.2,0.54,5.18,0.37c17.32-1.48,34.44-3.08,48.37-4.21c2.19-0.18,3.98,0.37,4.98,0.56" stroke-dasharray="58.793" stroke-dashoffset="58.793"><animate attributeName="stroke-dashoffset" values="58.793" fill="freeze" begin="8cfa.click" /><animate attributeName="stroke-dashoffset" values="58.793;58.793;0" keyTimes="0;0.853;1" dur="4.005s" fill="freeze" begin="0s;8cfa.click" /></path><path d="M44.77,61.88c1.17,0.11,3.3,0.43,4.69,0.33c10.38-0.78,23.46-1.96,33.91-2.73c1.86-0.13,3.05,0,4.46,0.11" stroke-dasharray="43.195" stroke-dashoffset="43.195"><animate attributeName="stroke-dashoffset" values="43.195" fill="freeze" begin="8cfa.click" /><animate attributeName="stroke-dashoffset" values="43.195;43.195;0" keyTimes="0;0.903;1" dur="4.437s" fill="freeze" begin="0s;8cfa.click" /></path><path d="M55.63,22.94c0.92,0.48,1.47,2.14,1.65,3.08c0.18,0.95,0,66.05-0.18,71.99" stroke-dasharray="75.581" stroke-dashoffset="75.581"><animate attributeName="stroke-dashoffset" values="75.581" fill="freeze" begin="8cfa.click" /><animate attributeName="stroke-dashoffset" values="75.581;75.581;0" keyTimes="0;0.887;1" dur="5.005s" fill="freeze" begin="0s;8cfa.click" /></path><path d="M69.35,23.45c0.91,0.47,1.47,2.14,1.65,3.08c0.18,0.95,0,65.55-0.19,71.49" stroke-dasharray="75.081" stroke-dashoffset="75.081"><animate attributeName="stroke-dashoffset" values="75.081" fill="freeze" begin="8cfa.click" /><animate attributeName="stroke-dashoffset" values="75.081;75.081;0" keyTimes="0;0.899;1" dur="5.57s" fill="freeze" begin="0s;8cfa.click" /></path><path d="M56.62,62.23c-3.43,7.7-12.35,18.61-19.49,22.97" stroke-dasharray="30.462" stroke-dashoffset="30.462"><animate attributeName="stroke-dashoffset" values="30.462" fill="freeze" begin="8cfa.click" /><animate attributeName="stroke-dashoffset" values="30.462;30.462;0" keyTimes="0;0.948;1" dur="5.875s" fill="freeze" begin="0s;8cfa.click" /></path><path d="M71.16,61.37c4.59,6.13,14.59,19.88,21.97,25.02c1.45,1.01,2.32,1.77,3.57,2.13" stroke-dasharray="37.588" stroke-dashoffset="37.588"><animate attributeName="stroke-dashoffset" values="37.588" fill="freeze" begin="8cfa.click" /><animate attributeName="stroke-dashoffset" values="37.588;37.588;0" keyTimes="0;0.94;1" dur="6.251s" fill="freeze" begin="0s;8cfa.click" /></path></g></svg>