<svg xmlns="http://www.w3.org/2000/svg" width="109" height="109" viewBox="0 0 109 109" id="8d0a"><g fill="none" stroke="#666" stroke-width="9" stroke-linecap="round" stroke-linejoin="round"><g><g><g><g><path d="M29.56,12.87c0.05,0.37,0.14,0.98-0.1,1.49C28,17.5,24.5,23.75,20.59,27.4" /><path d="M27.19,20.97c0.41,0.16,2.36,0.2,2.78,0.16c3.88-0.33,12.25-1.34,16.64-1.85c0.68-0.08,2.3,0.08,2.64,0.16" /><path d="M35.77,9.63c0.38,0.21,1.17,1.61,1.25,2.04c0.08,0.43,0.04,13.68-0.04,16.37" /><path d="M17.14,32.09c0.93,0.27,2.65,0.36,3.57,0.27c7.8-0.81,17.71-2.89,27.64-3.76c1.55-0.14,2.49,0.13,3.26,0.26" /></g><g><g><path d="M31.35,33.65c0.03,0.34,0.07,0.87-0.07,1.36c-0.82,2.87-5.04,9.15-11.48,13" /></g><path d="M40.84,29.65c0.27,0.64,0.49,1.39,0.51,2.38c0.04,2.57-0.1,5.93-0.1,8.97c0,1.69,1.07,1.65,2.25,1c4.5-2.5,5.5-3.5,8.5-5.5" /></g></g><g><g><path d="M62.57,11.62c0.04,0.34,0.13,0.9-0.07,1.37C61,16.5,58.25,21.5,55.84,24.9" /><path d="M62.19,19.4c0.47,0.17,2.69,0.21,3.16,0.17c4.4-0.35,13.92-1.45,18.91-1.99c0.78-0.08,2.61,0.08,3,0.17" /><path d="M70.83,9.38c0.34,0.19,1.06,1.46,1.13,1.85c0.07,0.39,0.04,12.38-0.03,14.81" /><path d="M56.64,28.96c0.92,0.32,2.61,0.35,3.53,0.32c7.34-0.26,22.58-3.03,28.22-3.61c1.53-0.16,2.46,0.15,3.22,0.31" /></g><g><g><path d="M67.6,30.65c0.03,0.31,0.07,0.8-0.07,1.24c-0.82,2.62-5.04,8.36-11.48,11.87" /></g><path d="M75.34,27.9c0.3,0.51,0.54,1.11,0.56,1.9c0.05,2.05-0.23,4.99-0.23,7.42c0,4.25,0.17,5.55,6.98,5.56c10.4,0.01,8.63-2.41,8.74-3.92" /></g></g></g><g><g><path d="M33.31,48.31c0.65,1.28,1.61,2.24,1.61,3.95s0.3,27-0.48,34.16" /><path d="M36.01,50.8c3.7-0.21,31.88-2.95,35.25-3.21c2.81-0.21,4.31,1.18,4.31,2.78c0,3.91-0.83,33.44-0.83,34.72" /><path d="M34.99,61.35c6.92-0.49,33.73-2.97,39.66-2.97" /><path d="M35.29,72.56c10.43-0.94,28.34-2.85,39.4-3.04" /><path d="M34.81,84.07c10.43-0.7,30.37-2.56,39.88-2.56" /></g><g><path d="M43.54,87.03c0.54,1.21-0.41,2.39-1.49,3.27c-3.25,2.66-11.8,8.32-18.3,11.46" /><path d="M63.78,86.3c7.32,3.65,15.98,10.27,17.97,13.46" /></g></g></g></g><g fill="none" stroke="#000" stroke-width="5" stroke-linecap="round" stroke-linejoin="round"><g><g><g><g><path d="M29.56,12.87c0.05,0.37,0.14,0.98-0.1,1.49C28,17.5,24.5,23.75,20.59,27.4" stroke-dasharray="17.367" stroke-dashoffset="17.367"><animate attributeName="stroke-dashoffset" values="17.367;17.367;0" dur="0.174s" fill="freeze" begin="0s;8d0a.click" /></path><path d="M27.19,20.97c0.41,0.16,2.36,0.2,2.78,0.16c3.88-0.33,12.25-1.34,16.64-1.85c0.68-0.08,2.3,0.08,2.64,0.16" stroke-dasharray="22.187" stroke-dashoffset="22.187"><animate attributeName="stroke-dashoffset" values="22.187" fill="freeze" begin="8d0a.click" /><animate attributeName="stroke-dashoffset" values="22.187;22.187;0" keyTimes="0;0.439;1" dur="0.396s" fill="freeze" begin="0s;8d0a.click" /></path><path d="M35.77,9.63c0.38,0.21,1.17,1.61,1.25,2.04c0.08,0.43,0.04,13.68-0.04,16.37" stroke-dasharray="18.793" stroke-dashoffset="18.793"><animate attributeName="stroke-dashoffset" values="18.793" fill="freeze" begin="8d0a.click" /><animate attributeName="stroke-dashoffset" values="18.793;18.793;0" keyTimes="0;0.678;1" dur="0.584s" fill="freeze" begin="0s;8d0a.click" /></path><path d="M17.14,32.09c0.93,0.27,2.65,0.36,3.57,0.27c7.8-0.81,17.71-2.89,27.64-3.76c1.55-0.14,2.49,0.13,3.26,0.26" stroke-dasharray="34.78" stroke-dashoffset="34.78"><animate attributeName="stroke-dashoffset" values="34.78" fill="freeze" begin="8d0a.click" /><animate attributeName="stroke-dashoffset" values="34.78;34.78;0" keyTimes="0;0.627;1" dur="0.932s" fill="freeze" begin="0s;8d0a.click" /></path></g><g><g><path d="M31.35,33.65c0.03,0.34,0.07,0.87-0.07,1.36c-0.82,2.87-5.04,9.15-11.48,13" stroke-dasharray="19.018" stroke-dashoffset="19.018"><animate attributeName="stroke-dashoffset" values="19.018" fill="freeze" begin="8d0a.click" /><animate attributeName="stroke-dashoffset" values="19.018;19.018;0" keyTimes="0;0.831;1" dur="1.122s" fill="freeze" begin="0s;8d0a.click" /></path></g><path d="M40.84,29.65c0.27,0.64,0.49,1.39,0.51,2.38c0.04,2.57-0.1,5.93-0.1,8.97c0,1.69,1.07,1.65,2.25,1c4.5-2.5,5.5-3.5,8.5-5.5" stroke-dasharray="24.858" stroke-dashoffset="24.858"><animate attributeName="stroke-dashoffset" values="24.858" fill="freeze" begin="8d0a.click" /><animate attributeName="stroke-dashoffset" values="24.858;24.858;0" keyTimes="0;0.818;1" dur="1.371s" fill="freeze" begin="0s;8d0a.click" /></path></g></g><g><g><path d="M62.57,11.62c0.04,0.34,0.13,0.9-0.07,1.37C61,16.5,58.25,21.5,55.84,24.9" stroke-dasharray="15.056" stroke-dashoffset="15.056"><animate attributeName="stroke-dashoffset" values="15.056" fill="freeze" begin="8d0a.click" /><animate attributeName="stroke-dashoffset" values="15.056;15.056;0" keyTimes="0;0.901;1" dur="1.522s" fill="freeze" begin="0s;8d0a.click" /></path><path d="M62.19,19.4c0.47,0.17,2.69,0.21,3.16,0.17c4.4-0.35,13.92-1.45,18.91-1.99c0.78-0.08,2.61,0.08,3,0.17" stroke-dasharray="25.199" stroke-dashoffset="25.199"><animate attributeName="stroke-dashoffset" values="25.199" fill="freeze" begin="8d0a.click" /><animate attributeName="stroke-dashoffset" values="25.199;25.199;0" keyTimes="0;0.858;1" dur="1.774s" fill="freeze" begin="0s;8d0a.click" /></path><path d="M70.83,9.38c0.34,0.19,1.06,1.46,1.13,1.85c0.07,0.39,0.04,12.38-0.03,14.81" stroke-dasharray="17.006" stroke-dashoffset="17.006"><animate attributeName="stroke-dashoffset" values="17.006" fill="freeze" begin="8d0a.click" /><animate attributeName="stroke-dashoffset" values="17.006;17.006;0" keyTimes="0;0.913;1" dur="1.944s" fill="freeze" begin="0s;8d0a.click" /></path><path d="M56.64,28.96c0.92,0.32,2.61,0.35,3.53,0.32c7.34-0.26,22.58-3.03,28.22-3.61c1.53-0.16,2.46,0.15,3.22,0.31" stroke-dasharray="35.274" stroke-dashoffset="35.274"><animate attributeName="stroke-dashoffset" values="35.274" fill="freeze" begin="8d0a.click" /><animate attributeName="stroke-dashoffset" values="35.274;35.274;0" keyTimes="0;0.846;1" dur="2.297s" fill="freeze" begin="0s;8d0a.click" /></path></g><g><g><path d="M67.6,30.65c0.03,0.31,0.07,0.8-0.07,1.24c-0.82,2.62-5.04,8.36-11.48,11.87" stroke-dasharray="18.061" stroke-dashoffset="18.061"><animate attributeName="stroke-dashoffset" values="18.061" fill="freeze" begin="8d0a.click" /><animate attributeName="stroke-dashoffset" values="18.061;18.061;0" keyTimes="0;0.927;1" dur="2.478s" fill="freeze" begin="0s;8d0a.click" /></path></g><path d="M75.34,27.9c0.3,0.51,0.54,1.11,0.56,1.9c0.05,2.05-0.23,4.99-0.23,7.42c0,4.25,0.17,5.55,6.98,5.56c10.4,0.01,8.63-2.41,8.74-3.92" stroke-dasharray="31.466" stroke-dashoffset="31.466"><animate attributeName="stroke-dashoffset" values="31.466" fill="freeze" begin="8d0a.click" /><animate attributeName="stroke-dashoffset" values="31.466;31.466;0" keyTimes="0;0.887;1" dur="2.793s" fill="freeze" begin="0s;8d0a.click" /></path></g></g></g><g><g><path d="M33.31,48.31c0.65,1.28,1.61,2.24,1.61,3.95s0.3,27-0.48,34.16" stroke-dasharray="38.502" stroke-dashoffset="38.502"><animate attributeName="stroke-dashoffset" values="38.502" fill="freeze" begin="8d0a.click" /><animate attributeName="stroke-dashoffset" values="38.502;38.502;0" keyTimes="0;0.879;1" dur="3.178s" fill="freeze" begin="0s;8d0a.click" /></path><path d="M36.01,50.8c3.7-0.21,31.88-2.95,35.25-3.21c2.81-0.21,4.31,1.18,4.31,2.78c0,3.91-0.83,33.44-0.83,34.72" stroke-dasharray="75.917" stroke-dashoffset="75.917"><animate attributeName="stroke-dashoffset" values="75.917" fill="freeze" begin="8d0a.click" /><animate attributeName="stroke-dashoffset" values="75.917;75.917;0" keyTimes="0;0.848;1" dur="3.749s" fill="freeze" begin="0s;8d0a.click" /></path><path d="M34.99,61.35c6.92-0.49,33.73-2.97,39.66-2.97" stroke-dasharray="39.776" stroke-dashoffset="39.776"><animate attributeName="stroke-dashoffset" values="39.776" fill="freeze" begin="8d0a.click" /><animate attributeName="stroke-dashoffset" values="39.776;39.776;0" keyTimes="0;0.904;1" dur="4.147s" fill="freeze" begin="0s;8d0a.click" /></path><path d="M35.29,72.56c10.43-0.94,28.34-2.85,39.4-3.04" stroke-dasharray="39.526" stroke-dashoffset="39.526"><animate attributeName="stroke-dashoffset" values="39.526" fill="freeze" begin="8d0a.click" /><animate attributeName="stroke-dashoffset" values="39.526;39.526;0" keyTimes="0;0.913;1" dur="4.542s" fill="freeze" begin="0s;8d0a.click" /></path><path d="M34.81,84.07c10.43-0.7,30.37-2.56,39.88-2.56" stroke-dasharray="39.97" stroke-dashoffset="39.97"><animate attributeName="stroke-dashoffset" values="39.97" fill="freeze" begin="8d0a.click" /><animate attributeName="stroke-dashoffset" values="39.97;39.97;0" keyTimes="0;0.919;1" dur="4.942s" fill="freeze" begin="0s;8d0a.click" /></path></g><g><path d="M43.54,87.03c0.54,1.21-0.41,2.39-1.49,3.27c-3.25,2.66-11.8,8.32-18.3,11.46" stroke-dasharray="25.5" stroke-dashoffset="25.5"><animate attributeName="stroke-dashoffset" values="25.5" fill="freeze" begin="8d0a.click" /><animate attributeName="stroke-dashoffset" values="25.5;25.5;0" keyTimes="0;0.951;1" dur="5.197s" fill="freeze" begin="0s;8d0a.click" /></path><path d="M63.78,86.3c7.32,3.65,15.98,10.27,17.97,13.46" stroke-dasharray="22.611" stroke-dashoffset="22.611"><animate attributeName="stroke-dashoffset" values="22.611" fill="freeze" begin="8d0a.click" /><animate attributeName="stroke-dashoffset" values="22.611;22.611;0" keyTimes="0;0.958;1" dur="5.423s" fill="freeze" begin="0s;8d0a.click" /></path></g></g></g></g></svg>