<svg xmlns="http://www.w3.org/2000/svg" width="109" height="109" viewBox="0 0 109 109" id="8dbe"><g fill="none" stroke="#666" stroke-width="9" stroke-linecap="round" stroke-linejoin="round"><g><g><g><path d="M15.28,21.24c0.39,0.37,0.79,0.67,0.97,1.13c1.36,3.62,2.49,15.12,3.42,21.63" /><path d="M17.22,23.19c9.28-1.94,17.79-2.98,22.38-3.46c1.68-0.17,2.69,1.03,2.45,2.05c-1.11,4.71-2.28,11.32-3.64,16.7" /><path d="M20.34,41.32c5.4-0.54,12.34-0.97,19.74-1.8" /></g><path d="M27.87,41.74c1.09,0.5,1.96,2.23,1.96,3.25c0,5.51,0.28,27.51,0.28,37.5" /><path d="M30.38,58.24c3.37-0.49,6.37-1.24,9.85-1.5c1.74-0.13,2.18-0.25,3.26,0" /><path d="M15.37,53.99c1.09,0.5,1.74,2.25,1.96,3.25c0.22,1,0.92,20.51,0.92,32.26" /><path d="M11,90.57c0.34,0.8,2.87,1.85,3.7,1.4C22.91,87.5,30.94,82.5,40,77.49" /></g><g><g><path d="M69.22,16.25c1.17,0.55,1.87,2.49,2.11,3.6c0.23,1.11,0,63.31-0.23,70.24" /><path d="M71.43,52.23c5.5-1.11,14.92-2.94,19.6-3.22c1.81-0.11,2.26-0.28,3.39,0" /></g><path d="M52.33,46.95c1.17,0.55,1.87,2.49,2.11,3.6c0.23,1.11,0,33.6-0.23,40.53" /><path d="M38.25,92.17c0.71,0.19,2.61,0.75,4.49,0.58c12.43-1.12,35.49-3.5,48.44-3.5c1.89,0,4.72,0.28,6.57,1.11" /></g></g></g><g fill="none" stroke="#000" stroke-width="5" stroke-linecap="round" stroke-linejoin="round"><g><g><g><path d="M15.28,21.24c0.39,0.37,0.79,0.67,0.97,1.13c1.36,3.62,2.49,15.12,3.42,21.63" stroke-dasharray="23.43" stroke-dashoffset="23.43"><animate id="0" attributeName="stroke-dashoffset" values="23.43;0" dur="0.23s" fill="freeze" begin="0s;8dbe.click" /></path><path d="M17.22,23.19c9.28-1.94,17.79-2.98,22.38-3.46c1.68-0.17,2.69,1.03,2.45,2.05c-1.11,4.71-2.28,11.32-3.64,16.7" stroke-dasharray="43.47" stroke-dashoffset="43.47"><animate attributeName="stroke-dashoffset" values="43.47" fill="freeze" begin="8dbe.click" /><animate id="1" attributeName="stroke-dashoffset" values="43.47;0" dur="0.43s" fill="freeze" begin="0.end" /></path><path d="M20.34,41.32c5.4-0.54,12.34-0.97,19.74-1.8" stroke-dasharray="19.82" stroke-dashoffset="19.82"><animate attributeName="stroke-dashoffset" values="19.82" fill="freeze" begin="8dbe.click" /><animate id="2" attributeName="stroke-dashoffset" values="19.82;0" dur="0.2s" fill="freeze" begin="1.end" /></path></g><path d="M27.87,41.74c1.09,0.5,1.96,2.23,1.96,3.25c0,5.51,0.28,27.51,0.28,37.5" stroke-dasharray="41.45" stroke-dashoffset="41.45"><animate attributeName="stroke-dashoffset" values="41.45" fill="freeze" begin="8dbe.click" /><animate id="3" attributeName="stroke-dashoffset" values="41.45;0" dur="0.41s" fill="freeze" begin="2.end" /></path><path d="M30.38,58.24c3.37-0.49,6.37-1.24,9.85-1.5c1.74-0.13,2.18-0.25,3.26,0" stroke-dasharray="13.24" stroke-dashoffset="13.24"><animate attributeName="stroke-dashoffset" values="13.24" fill="freeze" begin="8dbe.click" /><animate id="4" attributeName="stroke-dashoffset" values="13.24;0" dur="0.13s" fill="freeze" begin="3.end" /></path><path d="M15.37,53.99c1.09,0.5,1.74,2.25,1.96,3.25c0.22,1,0.92,20.51,0.92,32.26" stroke-dasharray="36.19" stroke-dashoffset="36.19"><animate attributeName="stroke-dashoffset" values="36.19" fill="freeze" begin="8dbe.click" /><animate id="5" attributeName="stroke-dashoffset" values="36.19;0" dur="0.36s" fill="freeze" begin="4.end" /></path><path d="M11,90.57c0.34,0.8,2.87,1.85,3.7,1.4C22.91,87.5,30.94,82.5,40,77.49" stroke-dasharray="33.32" stroke-dashoffset="33.32"><animate attributeName="stroke-dashoffset" values="33.32" fill="freeze" begin="8dbe.click" /><animate id="6" attributeName="stroke-dashoffset" values="33.32;0" dur="0.33s" fill="freeze" begin="5.end" /></path></g><g><g><path d="M69.22,16.25c1.17,0.55,1.87,2.49,2.11,3.6c0.23,1.11,0,63.31-0.23,70.24" stroke-dasharray="74.54" stroke-dashoffset="74.54"><animate attributeName="stroke-dashoffset" values="74.54" fill="freeze" begin="8dbe.click" /><animate id="7" attributeName="stroke-dashoffset" values="74.54;0" dur="0.56s" fill="freeze" begin="6.end" /></path><path d="M71.43,52.23c5.5-1.11,14.92-2.94,19.6-3.22c1.81-0.11,2.26-0.28,3.39,0" stroke-dasharray="23.28" stroke-dashoffset="23.28"><animate attributeName="stroke-dashoffset" values="23.28" fill="freeze" begin="8dbe.click" /><animate id="8" attributeName="stroke-dashoffset" values="23.28;0" dur="0.23s" fill="freeze" begin="7.end" /></path></g><path d="M52.33,46.95c1.17,0.55,1.87,2.49,2.11,3.6c0.23,1.11,0,33.6-0.23,40.53" stroke-dasharray="44.83" stroke-dashoffset="44.83"><animate attributeName="stroke-dashoffset" values="44.83" fill="freeze" begin="8dbe.click" /><animate id="9" attributeName="stroke-dashoffset" values="44.83;0" dur="0.45s" fill="freeze" begin="8.end" /></path><path d="M38.25,92.17c0.71,0.19,2.61,0.75,4.49,0.58c12.43-1.12,35.49-3.5,48.44-3.5c1.89,0,4.72,0.28,6.57,1.11" stroke-dasharray="59.84" stroke-dashoffset="59.84"><animate attributeName="stroke-dashoffset" values="59.84" fill="freeze" begin="8dbe.click" /><animate id="10" attributeName="stroke-dashoffset" values="59.84;0" dur="0.6s" fill="freeze" begin="9.end" /></path></g></g></g></svg>