<svg xmlns="http://www.w3.org/2000/svg" width="109" height="109" viewBox="0 0 109 109" id="8dff"><g fill="none" stroke="#666" stroke-width="9" stroke-linecap="round" stroke-linejoin="round"><g><g><g><path d="M14.78,20.67c0.37,0.31,0.75,0.57,0.91,0.95c1.28,3.06,2.85,14.88,3.73,20.37" /><path d="M16.61,22.33c8.76-1.64,17.29-2.94,21.63-3.34c1.58-0.15,2.54,0.87,2.31,1.73c-1.04,3.98-2.15,11.59-3.43,16.14" /><path d="M20.06,39.74c5.09-0.45,11.65-1.32,18.64-2.02" /></g><path d="M26.37,41.24c1.09,0.5,1.96,2.23,1.96,3.25c0,5.51,0.28,24.51,0.28,34.5" /><path d="M28.88,57.74c3.37-0.49,6.37-1.74,9.85-2c1.74-0.13,2.18-0.25,3.26,0" /><path d="M14.37,55.49c1.09,0.5,1.74,2.25,1.96,3.25c0.22,1,0.42,15.01,0.42,26.76" /><path d="M10,86.42c0.36,0.88,3.04,2.04,3.92,1.54c8.7-4.93,17.22-10.44,26.83-15.97" /></g><g><g><path d="M51.02,33.1c1.04,0.51,2.95,0.62,3.99,0.51C65,32.5,77.25,30.75,87.35,30.1c1.73-0.11,2.78,0.24,3.64,0.5" /><path d="M68.2,13.12c0.11,0.29,1.48,1.53,1.59,3.39c0.51,8.93,0.27,29.2,0.27,32.25" /><path d="M47.05,50.8c1.32,0.69,3.73,0.85,5.07,0.69c8.39-0.99,25.64-3.49,38.76-3.7c2.2-0.04,3.52,0.33,4.63,0.68" /></g><g><path d="M68.55,50.25c0.98,0.5,1.56,2.25,1.76,3.25c0.19,1,0.12,22.5-0.07,28.75" /><path d="M70.76,67.25c5.39-0.5,15.53-2.34,17.85-2.34c1.41,0,2.25,0.18,2.95,0.37" /><path d="M55.58,59.25c0.05,0.86,0.11,2.22-0.11,3.45C54.21,69.98,47.56,87.49,37,95.75" /><path d="M52.7,72.25c7.54,2.83,29.62,19.23,36.76,21.89c2.19,0.82,4.9,1.55,7.04,1.86" /></g></g></g></g><g fill="none" stroke="#000" stroke-width="5" stroke-linecap="round" stroke-linejoin="round"><g><g><g><path d="M14.78,20.67c0.37,0.31,0.75,0.57,0.91,0.95c1.28,3.06,2.85,14.88,3.73,20.37" stroke-dasharray="22.06" stroke-dashoffset="22.06"><animate id="0" attributeName="stroke-dashoffset" values="22.06;0" dur="0.22s" fill="freeze" begin="0s;8dff.click" /></path><path d="M16.61,22.33c8.76-1.64,17.29-2.94,21.63-3.34c1.58-0.15,2.54,0.87,2.31,1.73c-1.04,3.98-2.15,11.59-3.43,16.14" stroke-dasharray="41.75" stroke-dashoffset="41.75"><animate attributeName="stroke-dashoffset" values="41.75" fill="freeze" begin="8dff.click" /><animate id="1" attributeName="stroke-dashoffset" values="41.75;0" dur="0.42s" fill="freeze" begin="0.end" /></path><path d="M20.06,39.74c5.09-0.45,11.65-1.32,18.64-2.02" stroke-dasharray="18.75" stroke-dashoffset="18.75"><animate attributeName="stroke-dashoffset" values="18.75" fill="freeze" begin="8dff.click" /><animate id="2" attributeName="stroke-dashoffset" values="18.75;0" dur="0.19s" fill="freeze" begin="1.end" /></path></g><path d="M26.37,41.24c1.09,0.5,1.96,2.23,1.96,3.25c0,5.51,0.28,24.51,0.28,34.5" stroke-dasharray="38.45" stroke-dashoffset="38.45"><animate attributeName="stroke-dashoffset" values="38.45" fill="freeze" begin="8dff.click" /><animate id="3" attributeName="stroke-dashoffset" values="38.45;0" dur="0.38s" fill="freeze" begin="2.end" /></path><path d="M28.88,57.74c3.37-0.49,6.37-1.74,9.85-2c1.74-0.13,2.18-0.25,3.26,0" stroke-dasharray="13.34" stroke-dashoffset="13.34"><animate attributeName="stroke-dashoffset" values="13.34" fill="freeze" begin="8dff.click" /><animate id="4" attributeName="stroke-dashoffset" values="13.34;0" dur="0.13s" fill="freeze" begin="3.end" /></path><path d="M14.37,55.49c1.09,0.5,1.74,2.25,1.96,3.25c0.22,1,0.42,15.01,0.42,26.76" stroke-dasharray="30.68" stroke-dashoffset="30.68"><animate attributeName="stroke-dashoffset" values="30.68" fill="freeze" begin="8dff.click" /><animate id="5" attributeName="stroke-dashoffset" values="30.68;0" dur="0.31s" fill="freeze" begin="4.end" /></path><path d="M10,86.42c0.36,0.88,3.04,2.04,3.92,1.54c8.7-4.93,17.22-10.44,26.83-15.97" stroke-dasharray="35.68" stroke-dashoffset="35.68"><animate attributeName="stroke-dashoffset" values="35.68" fill="freeze" begin="8dff.click" /><animate id="6" attributeName="stroke-dashoffset" values="35.68;0" dur="0.36s" fill="freeze" begin="5.end" /></path></g><g><g><path d="M51.02,33.1c1.04,0.51,2.95,0.62,3.99,0.51C65,32.5,77.25,30.75,87.35,30.1c1.73-0.11,2.78,0.24,3.64,0.5" stroke-dasharray="40.29" stroke-dashoffset="40.29"><animate attributeName="stroke-dashoffset" values="40.29" fill="freeze" begin="8dff.click" /><animate id="7" attributeName="stroke-dashoffset" values="40.29;0" dur="0.4s" fill="freeze" begin="6.end" /></path><path d="M68.2,13.12c0.11,0.29,1.48,1.53,1.59,3.39c0.51,8.93,0.27,29.2,0.27,32.25" stroke-dasharray="36.06" stroke-dashoffset="36.06"><animate attributeName="stroke-dashoffset" values="36.06" fill="freeze" begin="8dff.click" /><animate id="8" attributeName="stroke-dashoffset" values="36.06;0" dur="0.36s" fill="freeze" begin="7.end" /></path><path d="M47.05,50.8c1.32,0.69,3.73,0.85,5.07,0.69c8.39-0.99,25.64-3.49,38.76-3.7c2.2-0.04,3.52,0.33,4.63,0.68" stroke-dasharray="48.83" stroke-dashoffset="48.83"><animate attributeName="stroke-dashoffset" values="48.83" fill="freeze" begin="8dff.click" /><animate id="9" attributeName="stroke-dashoffset" values="48.83;0" dur="0.49s" fill="freeze" begin="8.end" /></path></g><g><path d="M68.55,50.25c0.98,0.5,1.56,2.25,1.76,3.25c0.19,1,0.12,22.5-0.07,28.75" stroke-dasharray="32.55" stroke-dashoffset="32.55"><animate attributeName="stroke-dashoffset" values="32.55" fill="freeze" begin="8dff.click" /><animate id="10" attributeName="stroke-dashoffset" values="32.55;0" dur="0.33s" fill="freeze" begin="9.end" /></path><path d="M70.76,67.25c5.39-0.5,15.53-2.34,17.85-2.34c1.41,0,2.25,0.18,2.95,0.37" stroke-dasharray="20.99" stroke-dashoffset="20.99"><animate attributeName="stroke-dashoffset" values="20.99" fill="freeze" begin="8dff.click" /><animate id="11" attributeName="stroke-dashoffset" values="20.99;0" dur="0.21s" fill="freeze" begin="10.end" /></path><path d="M55.58,59.25c0.05,0.86,0.11,2.22-0.11,3.45C54.21,69.98,47.56,87.49,37,95.75" stroke-dasharray="41.97" stroke-dashoffset="41.97"><animate attributeName="stroke-dashoffset" values="41.97" fill="freeze" begin="8dff.click" /><animate id="12" attributeName="stroke-dashoffset" values="41.97;0" dur="0.42s" fill="freeze" begin="11.end" /></path><path d="M52.7,72.25c7.54,2.83,29.62,19.23,36.76,21.89c2.19,0.82,4.9,1.55,7.04,1.86" stroke-dasharray="50.13" stroke-dashoffset="50.13"><animate attributeName="stroke-dashoffset" values="50.13" fill="freeze" begin="8dff.click" /><animate id="13" attributeName="stroke-dashoffset" values="50.13;0" dur="0.5s" fill="freeze" begin="12.end" /></path></g></g></g></g></svg>