<svg xmlns="http://www.w3.org/2000/svg" width="109" height="109" viewBox="0 0 109 109" id="8e08"><g fill="none" stroke="#666" stroke-width="9" stroke-linecap="round" stroke-linejoin="round"><g><g><g><path d="M14.78,20.21c0.37,0.32,0.75,0.58,0.91,0.97c1.28,3.13,2.35,15.2,3.23,20.82" /><path d="M16.61,21.9c8.76-1.68,16.79-3,21.13-3.41c1.58-0.15,2.54,0.89,2.31,1.77c-1.04,4.06-2.15,12.35-3.43,17" /><path d="M19.56,39.69c5.09-0.46,11.65-0.84,18.64-1.55" /></g><path d="M25.87,41.24c1.09,0.5,1.96,2.23,1.96,3.25c0,5.51,0.28,26.01,0.28,36" /><path d="M28.38,57.74c3.37-0.49,9.37-1.74,12.85-2c1.74-0.13,2.18-0.25,3.26,0" /><path d="M14.87,52.49c1.09,0.5,1.74,2.25,1.96,3.25c0.22,1,0.42,20.01,0.42,31.76" /><path d="M10.5,87.87c0.35,0.91,2.97,2.1,3.83,1.59c8.49-5.08,16.8-10.77,26.17-16.46" /></g><g><g p5:part="1" xmlns:p5="http://kanjivg.tagaini.net"><path d="M47.97,26.99c1.09,0.5,3.09,0.58,4.18,0.5c9.18-0.68,25.93-2.68,35.76-3.15c1.82-0.09,2.33-0.08,3.82-0.02" /></g><g><path d="M49.24,37.95c0.26,0.4,0.52,0.73,0.63,1.23c0.88,3.94,2.79,14.19,3.39,21.27" /><path d="M50.13,39.69c11.62-1.94,33.39-3.53,36.94-3.85c2.21-0.2,3.61,2.07,3.02,3.92c-1.57,4.96-2.09,9.98-3.18,13.95" /><path d="M53.16,56.81c10.09-0.56,28.86-2.04,37.05-2.64" /></g><g p5:part="2" xmlns:p5="http://kanjivg.tagaini.net"><path d="M66.75,13.25c1.25,0.5,2,2.25,2.25,3.25s0,76.75-0.25,83" /><path d="M68.92,55.32C63.5,66.78,49.39,83.01,38.11,89.5" /><path d="M68.99,55.1c3.52,4.39,18.63,25.73,22.45,30.04c1.29,1.46,2.41,2.09,3.7,2.51" /></g></g></g></g><g fill="none" stroke="#000" stroke-width="5" stroke-linecap="round" stroke-linejoin="round"><g><g><g><path d="M14.78,20.21c0.37,0.32,0.75,0.58,0.91,0.97c1.28,3.13,2.35,15.2,3.23,20.82" stroke-dasharray="22.44" stroke-dashoffset="22.44"><animate id="0" attributeName="stroke-dashoffset" values="22.44;0" dur="0.22s" fill="freeze" begin="0s;8e08.click" /></path><path d="M16.61,21.9c8.76-1.68,16.79-3,21.13-3.41c1.58-0.15,2.54,0.89,2.31,1.77c-1.04,4.06-2.15,12.35-3.43,17" stroke-dasharray="42.14" stroke-dashoffset="42.14"><animate attributeName="stroke-dashoffset" values="42.14" fill="freeze" begin="8e08.click" /><animate id="1" attributeName="stroke-dashoffset" values="42.14;0" dur="0.42s" fill="freeze" begin="0.end" /></path><path d="M19.56,39.69c5.09-0.46,11.65-0.84,18.64-1.55" stroke-dasharray="18.7" stroke-dashoffset="18.7"><animate attributeName="stroke-dashoffset" values="18.7" fill="freeze" begin="8e08.click" /><animate id="2" attributeName="stroke-dashoffset" values="18.7;0" dur="0.19s" fill="freeze" begin="1.end" /></path></g><path d="M25.87,41.24c1.09,0.5,1.96,2.23,1.96,3.25c0,5.51,0.28,26.01,0.28,36" stroke-dasharray="39.95" stroke-dashoffset="39.95"><animate attributeName="stroke-dashoffset" values="39.95" fill="freeze" begin="8e08.click" /><animate id="3" attributeName="stroke-dashoffset" values="39.95;0" dur="0.4s" fill="freeze" begin="2.end" /></path><path d="M28.38,57.74c3.37-0.49,9.37-1.74,12.85-2c1.74-0.13,2.18-0.25,3.26,0" stroke-dasharray="16.29" stroke-dashoffset="16.29"><animate attributeName="stroke-dashoffset" values="16.29" fill="freeze" begin="8e08.click" /><animate id="4" attributeName="stroke-dashoffset" values="16.29;0" dur="0.16s" fill="freeze" begin="3.end" /></path><path d="M14.87,52.49c1.09,0.5,1.74,2.25,1.96,3.25c0.22,1,0.42,20.01,0.42,31.76" stroke-dasharray="35.67" stroke-dashoffset="35.67"><animate attributeName="stroke-dashoffset" values="35.67" fill="freeze" begin="8e08.click" /><animate id="5" attributeName="stroke-dashoffset" values="35.67;0" dur="0.36s" fill="freeze" begin="4.end" /></path><path d="M10.5,87.87c0.35,0.91,2.97,2.1,3.83,1.59c8.49-5.08,16.8-10.77,26.17-16.46" stroke-dasharray="35.32" stroke-dashoffset="35.32"><animate attributeName="stroke-dashoffset" values="35.32" fill="freeze" begin="8e08.click" /><animate id="6" attributeName="stroke-dashoffset" values="35.32;0" dur="0.35s" fill="freeze" begin="5.end" /></path></g><g><g p5:part="1" xmlns:p5="http://kanjivg.tagaini.net"><path d="M47.97,26.99c1.09,0.5,3.09,0.58,4.18,0.5c9.18-0.68,25.93-2.68,35.76-3.15c1.82-0.09,2.33-0.08,3.82-0.02" stroke-dasharray="43.97" stroke-dashoffset="43.97"><animate attributeName="stroke-dashoffset" values="43.97" fill="freeze" begin="8e08.click" /><animate id="7" attributeName="stroke-dashoffset" values="43.97;0" dur="0.44s" fill="freeze" begin="6.end" /></path></g><g><path d="M49.24,37.95c0.26,0.4,0.52,0.73,0.63,1.23c0.88,3.94,2.79,14.19,3.39,21.27" stroke-dasharray="22.94" stroke-dashoffset="22.94"><animate attributeName="stroke-dashoffset" values="22.94" fill="freeze" begin="8e08.click" /><animate id="8" attributeName="stroke-dashoffset" values="22.94;0" dur="0.23s" fill="freeze" begin="7.end" /></path><path d="M50.13,39.69c11.62-1.94,33.39-3.53,36.94-3.85c2.21-0.2,3.61,2.07,3.02,3.92c-1.57,4.96-2.09,9.98-3.18,13.95" stroke-dasharray="57.29" stroke-dashoffset="57.29"><animate attributeName="stroke-dashoffset" values="57.29" fill="freeze" begin="8e08.click" /><animate id="9" attributeName="stroke-dashoffset" values="57.29;0" dur="0.57s" fill="freeze" begin="8.end" /></path><path d="M53.16,56.81c10.09-0.56,28.86-2.04,37.05-2.64" stroke-dasharray="37.14" stroke-dashoffset="37.14"><animate attributeName="stroke-dashoffset" values="37.14" fill="freeze" begin="8e08.click" /><animate id="10" attributeName="stroke-dashoffset" values="37.14;0" dur="0.37s" fill="freeze" begin="9.end" /></path></g><g p5:part="2" xmlns:p5="http://kanjivg.tagaini.net"><path d="M66.75,13.25c1.25,0.5,2,2.25,2.25,3.25s0,76.75-0.25,83" stroke-dasharray="87.09" stroke-dashoffset="87.09"><animate attributeName="stroke-dashoffset" values="87.09" fill="freeze" begin="8e08.click" /><animate id="11" attributeName="stroke-dashoffset" values="87.09;0" dur="0.65s" fill="freeze" begin="10.end" /></path><path d="M68.92,55.32C63.5,66.78,49.39,83.01,38.11,89.5" stroke-dasharray="46.54" stroke-dashoffset="46.54"><animate attributeName="stroke-dashoffset" values="46.54" fill="freeze" begin="8e08.click" /><animate id="12" attributeName="stroke-dashoffset" values="46.54;0" dur="0.47s" fill="freeze" begin="11.end" /></path><path d="M68.99,55.1c3.52,4.39,18.63,25.73,22.45,30.04c1.29,1.46,2.41,2.09,3.7,2.51" stroke-dasharray="42.04" stroke-dashoffset="42.04"><animate attributeName="stroke-dashoffset" values="42.04" fill="freeze" begin="8e08.click" /><animate id="13" attributeName="stroke-dashoffset" values="42.04;0" dur="0.42s" fill="freeze" begin="12.end" /></path></g></g></g></g></svg>