<svg xmlns="http://www.w3.org/2000/svg" width="109" height="109" viewBox="0 0 109 109" id="8e10"><g fill="none" stroke="#666" stroke-width="9" stroke-linecap="round" stroke-linejoin="round"><g><g><g><path d="M12.78,18.71c0.44,0.33,0.89,0.6,1.08,1.02c1.52,3.27,2.77,15.9,3.81,21.77" /><path d="M14.61,20.4c9.7-1.68,18.08-4,22.88-4.41c1.75-0.15,2.81,0.89,2.56,1.77c-1.16,4.06-2.38,13.35-3.8,18" /><path d="M17.56,38.19c5.09-0.46,14.15-1.84,21.14-2.55" /></g><path d="M26.87,39.24c1.09,0.5,1.96,2.23,1.96,3.25c0,5.51,0.28,35.01,0.28,45" /><path d="M29.38,58.24c3.37-0.49,8.37-1.74,11.85-2c1.74-0.13,2.18-0.25,3.26,0" /><path d="M14.87,60.49c1.09,0.5,1.74,2.25,1.96,3.25c0.22,1,0.42,18.01,0.42,29.76" /><path d="M12,94.07c0.34,0.8,2.87,1.85,3.7,1.4C23.91,91,33.94,84.5,43,79.49" /></g><g><g><g><path d="M48.22,25.22c0.87,0.66,2.99,0.83,3.85,0.66C60.75,24.25,76,21,83.8,18.95c1.42-0.37,2.83-0.18,3.56,0.15" /><path d="M58.81,11.5c1.32,0.76,1.92,1.86,2.2,3.5c2.3,13.74,11.19,27.66,27.31,32.79c5.17,1.65,5.09-0.28,3.78-5.7" /></g><g><path d="M80.43,25.7c-0.18,0.67-0.36,1.35-0.78,1.97C75.93,32.99,67,41.75,50.57,46.95" /></g><g><g><path d="M69.92,10.93c2.6,1,6.77,3.29,7.99,5" /></g></g></g><g><g><path d="M47.77,61.13c0.96,0.44,3.73,0.6,4.69,0.44c11.29-1.82,28.04-4.32,35.68-5.93c1.57-0.33,2.57-0.29,3.37-0.07" /><path d="M60.26,47.67c1.43,0.94,2.04,1.67,2.34,3.69c2.5,16.98,10.65,33.88,26.7,42.88c5.21,2.92,5.95,1.25,4.6-6.77" /></g><g><path d="M82.15,62.28c0.1,0.74-0.15,1.96-0.71,2.95c-3.69,6.52-16.36,20.55-36.39,28.9" /></g><g><g><path d="M69.92,45.87c2.6,1.25,6.77,4.11,7.99,6.25" /></g></g></g></g></g></g><g fill="none" stroke="#000" stroke-width="5" stroke-linecap="round" stroke-linejoin="round"><path d="M12.78,18.71c0.44,0.33,0.89,0.6,1.08,1.02c1.52,3.27,2.77,15.9,3.81,21.77" stroke-dasharray="23.637" stroke-dashoffset="23.637"><animate attributeName="stroke-dashoffset" values="23.637;23.637;0" dur="0.236s" fill="freeze" begin="0s;8e10.click" /></path><path d="M14.61,20.4c9.7-1.68,18.08-4,22.88-4.41c1.75-0.15,2.81,0.89,2.56,1.77c-1.16,4.06-2.38,13.35-3.8,18" stroke-dasharray="45.316" stroke-dashoffset="45.316"><animate attributeName="stroke-dashoffset" values="45.316" fill="freeze" begin="8e10.click" /><animate attributeName="stroke-dashoffset" values="45.316;45.316;0" keyTimes="0;0.343;1" dur="0.689s" fill="freeze" begin="0s;8e10.click" /></path><path d="M17.56,38.19c5.09-0.46,14.15-1.84,21.14-2.55" stroke-dasharray="21.295" stroke-dashoffset="21.295"><animate attributeName="stroke-dashoffset" values="21.295" fill="freeze" begin="8e10.click" /><animate attributeName="stroke-dashoffset" values="21.295;21.295;0" keyTimes="0;0.764;1" dur="0.902s" fill="freeze" begin="0s;8e10.click" /></path><path d="M26.87,39.24c1.09,0.5,1.96,2.23,1.96,3.25c0,5.51,0.28,35.01,0.28,45" stroke-dasharray="48.952" stroke-dashoffset="48.952"><animate attributeName="stroke-dashoffset" values="48.952" fill="freeze" begin="8e10.click" /><animate attributeName="stroke-dashoffset" values="48.952;48.952;0" keyTimes="0;0.648;1" dur="1.392s" fill="freeze" begin="0s;8e10.click" /></path><path d="M29.38,58.24c3.37-0.49,8.37-1.74,11.85-2c1.74-0.13,2.18-0.25,3.26,0" stroke-dasharray="15.301" stroke-dashoffset="15.301"><animate attributeName="stroke-dashoffset" values="15.301" fill="freeze" begin="8e10.click" /><animate attributeName="stroke-dashoffset" values="15.301;15.301;0" keyTimes="0;0.901;1" dur="1.545s" fill="freeze" begin="0s;8e10.click" /></path><path d="M14.87,60.49c1.09,0.5,1.74,2.25,1.96,3.25c0.22,1,0.42,18.01,0.42,29.76" stroke-dasharray="33.676" stroke-dashoffset="33.676"><animate attributeName="stroke-dashoffset" values="33.676" fill="freeze" begin="8e10.click" /><animate attributeName="stroke-dashoffset" values="33.676;33.676;0" keyTimes="0;0.821;1" dur="1.882s" fill="freeze" begin="0s;8e10.click" /></path><path d="M12,94.07c0.34,0.8,2.87,1.85,3.7,1.4C23.91,91,33.94,84.5,43,79.49" stroke-dasharray="35.806" stroke-dashoffset="35.806"><animate attributeName="stroke-dashoffset" values="35.806" fill="freeze" begin="8e10.click" /><animate attributeName="stroke-dashoffset" values="35.806;35.806;0" keyTimes="0;0.84;1" dur="2.24s" fill="freeze" begin="0s;8e10.click" /></path><path d="M48.22,25.22c0.87,0.66,2.99,0.83,3.85,0.66C60.75,24.25,76,21,83.8,18.95c1.42-0.37,2.83-0.18,3.56,0.15" stroke-dasharray="40.086" stroke-dashoffset="40.086"><animate attributeName="stroke-dashoffset" values="40.086" fill="freeze" begin="8e10.click" /><animate attributeName="stroke-dashoffset" values="40.086;40.086;0" keyTimes="0;0.848;1" dur="2.641s" fill="freeze" begin="0s;8e10.click" /></path><path d="M58.81,11.5c1.32,0.76,1.92,1.86,2.2,3.5c2.3,13.74,11.19,27.66,27.31,32.79c5.17,1.65,5.09-0.28,3.78-5.7" stroke-dasharray="59.505" stroke-dashoffset="59.505"><animate attributeName="stroke-dashoffset" values="59.505" fill="freeze" begin="8e10.click" /><animate attributeName="stroke-dashoffset" values="59.505;59.505;0" keyTimes="0;0.816;1" dur="3.236s" fill="freeze" begin="0s;8e10.click" /></path><path d="M80.43,25.7c-0.18,0.67-0.36,1.35-0.78,1.97C75.93,32.99,67,41.75,50.57,46.95" stroke-dasharray="37.604" stroke-dashoffset="37.604"><animate attributeName="stroke-dashoffset" values="37.604" fill="freeze" begin="8e10.click" /><animate attributeName="stroke-dashoffset" values="37.604;37.604;0" keyTimes="0;0.896;1" dur="3.612s" fill="freeze" begin="0s;8e10.click" /></path><path d="M69.92,10.93c2.6,1,6.77,3.29,7.99,5" stroke-dasharray="9.511" stroke-dashoffset="9.511"><animate attributeName="stroke-dashoffset" values="9.511" fill="freeze" begin="8e10.click" /><animate attributeName="stroke-dashoffset" values="9.511;9.511;0" keyTimes="0;0.974;1" dur="3.707s" fill="freeze" begin="0s;8e10.click" /></path><path d="M47.77,61.13c0.96,0.44,3.73,0.6,4.69,0.44c11.29-1.82,28.04-4.32,35.68-5.93c1.57-0.33,2.57-0.29,3.37-0.07" stroke-dasharray="44.321" stroke-dashoffset="44.321"><animate attributeName="stroke-dashoffset" values="44.321" fill="freeze" begin="8e10.click" /><animate attributeName="stroke-dashoffset" values="44.321;44.321;0" keyTimes="0;0.893;1" dur="4.15s" fill="freeze" begin="0s;8e10.click" /></path><path d="M60.26,47.67c1.43,0.94,2.04,1.67,2.34,3.69c2.5,16.98,10.65,33.88,26.7,42.88c5.21,2.92,5.95,1.25,4.6-6.77" stroke-dasharray="69.748" stroke-dashoffset="69.748"><animate attributeName="stroke-dashoffset" values="69.748" fill="freeze" begin="8e10.click" /><animate attributeName="stroke-dashoffset" values="69.748;69.748;0" keyTimes="0;0.888;1" dur="4.674s" fill="freeze" begin="0s;8e10.click" /></path><path d="M82.15,62.28c0.1,0.74-0.15,1.96-0.71,2.95c-3.69,6.52-16.36,20.55-36.39,28.9" stroke-dasharray="50.23" stroke-dashoffset="50.23"><animate attributeName="stroke-dashoffset" values="50.23" fill="freeze" begin="8e10.click" /><animate attributeName="stroke-dashoffset" values="50.23;50.23;0" keyTimes="0;0.903;1" dur="5.176s" fill="freeze" begin="0s;8e10.click" /></path><path d="M69.92,45.87c2.6,1.25,6.77,4.11,7.99,6.25" stroke-dasharray="10.248" stroke-dashoffset="10.248"><animate attributeName="stroke-dashoffset" values="10.248" fill="freeze" begin="8e10.click" /><animate attributeName="stroke-dashoffset" values="10.248;10.248;0" keyTimes="0;0.981;1" dur="5.278s" fill="freeze" begin="0s;8e10.click" /></path></g></svg>