<svg xmlns="http://www.w3.org/2000/svg" width="109" height="109" viewBox="0 0 109 109" id="8e1e"><g fill="none" stroke="#666" stroke-width="6" stroke-linecap="round" stroke-linejoin="round"><g><g><g><path d="M13.78,18.23c0.38,0.32,0.78,0.58,0.95,0.98c1.33,3.16,2.44,15.36,3.35,21.04" /><path d="M15.68,19.94c9.11-1.7,17.96-3.04,22.46-3.45c1.65-0.15,2.64,0.9,2.4,1.79c-1.09,4.1-2.23,12.48-3.57,17.18" /><path d="M18.75,37.91c5.29-0.47,12.61-0.84,19.88-1.57" /></g><path d="M26.37,39.24c1.09,0.5,1.96,2.23,1.96,3.25c0,5.51,0.28,32.01,0.28,42" /><path d="M28.88,59.74c3.37-0.49,6.87-1.74,10.35-2c1.74-0.13,2.18-0.25,3.26,0" /><path d="M14.37,57.49c1.09,0.5,1.74,2.25,1.96,3.25c0.22,1,0.42,18.51,0.42,30.26" /><path d="M11,91.57c1.5,0.93,3,1.68,5.2,0.4c8.08-4.7,14.74-8.47,23.8-13.48" /></g><g><g><path d="M50.09,16.73c1.29,0.52,3.8,0.99,5.17,0.88c7.4-0.58,31.54-3.25,34.51-3.46c1.47-0.1,2.81,1.33,2.5,2.85c-0.77,3.74-2.84,8.02-3.97,13.57" /><path d="M54.29,33.44c3.71-0.17,27.82-2,36.02-3.17" /><path d="M53.64,18.29c0,3.1,0.17,9.4,0.15,12.31C53.59,51.62,52,78.25,40.31,91.81" /></g><g><g><path d="M55.32,52.18c0.68,0.26,2.52,0.45,4.34,0.27c7.48-0.77,23.58-2.7,33.06-3.22c1.83-0.1,2.29-0.26,3.43,0" /><path d="M71.97,35.94c0.63,0.35,1.91,2.09,1.91,4.14c0,12.3-0.13,27.17-0.13,31.79" /></g><g><path d="M57.7,72.67c0.24,0.75,1.06,2.43,1.14,3c0.61,4.14,1.98,13.73,2.83,21.57" /><path d="M58.93,73.88c6.8-0.83,26.89-3.53,31.53-3.66c1.92-0.05,2.64,1.75,2.38,2.98c-1.01,4.75-2.77,11.96-3.81,18.29" /><path d="M62.04,94.09c5.62-0.35,21.9-1.54,28.65-1.98" /></g></g></g></g></g><g fill="none" stroke="#000" stroke-width="3" stroke-linecap="round" stroke-linejoin="round"><path d="M13.78,18.23c0.38,0.32,0.78,0.58,0.95,0.98c1.33,3.16,2.44,15.36,3.35,21.04" stroke-dasharray="22.711" stroke-dashoffset="22.711"><animate attributeName="stroke-dashoffset" values="22.711;22.711;0" dur="0.227s" fill="freeze" begin="0s;8e1e.click" /></path><path d="M15.68,19.94c9.11-1.7,17.96-3.04,22.46-3.45c1.65-0.15,2.64,0.9,2.4,1.79c-1.09,4.1-2.23,12.48-3.57,17.18" stroke-dasharray="43.762" stroke-dashoffset="43.762"><animate attributeName="stroke-dashoffset" values="43.762" fill="freeze" begin="8e1e.click" /><animate attributeName="stroke-dashoffset" values="43.762;43.762;0" keyTimes="0;0.341;1" dur="0.665s" fill="freeze" begin="0s;8e1e.click" /></path><path d="M18.75,37.91c5.29-0.47,12.61-0.84,19.88-1.57" stroke-dasharray="19.944" stroke-dashoffset="19.944"><animate attributeName="stroke-dashoffset" values="19.944" fill="freeze" begin="8e1e.click" /><animate attributeName="stroke-dashoffset" values="19.944;19.944;0" keyTimes="0;0.77;1" dur="0.864s" fill="freeze" begin="0s;8e1e.click" /></path><path d="M26.37,39.24c1.09,0.5,1.96,2.23,1.96,3.25c0,5.51,0.28,32.01,0.28,42" stroke-dasharray="45.952" stroke-dashoffset="45.952"><animate attributeName="stroke-dashoffset" values="45.952" fill="freeze" begin="8e1e.click" /><animate attributeName="stroke-dashoffset" values="45.952;45.952;0" keyTimes="0;0.653;1" dur="1.324s" fill="freeze" begin="0s;8e1e.click" /></path><path d="M28.88,59.74c3.37-0.49,6.87-1.74,10.35-2c1.74-0.13,2.18-0.25,3.26,0" stroke-dasharray="13.829" stroke-dashoffset="13.829"><animate attributeName="stroke-dashoffset" values="13.829" fill="freeze" begin="8e1e.click" /><animate attributeName="stroke-dashoffset" values="13.829;13.829;0" keyTimes="0;0.906;1" dur="1.462s" fill="freeze" begin="0s;8e1e.click" /></path><path d="M14.37,57.49c1.09,0.5,1.74,2.25,1.96,3.25c0.22,1,0.42,18.51,0.42,30.26" stroke-dasharray="34.176" stroke-dashoffset="34.176"><animate attributeName="stroke-dashoffset" values="34.176" fill="freeze" begin="8e1e.click" /><animate attributeName="stroke-dashoffset" values="34.176;34.176;0" keyTimes="0;0.81;1" dur="1.804s" fill="freeze" begin="0s;8e1e.click" /></path><path d="M11,91.57c1.5,0.93,3,1.68,5.2,0.4c8.08-4.7,14.74-8.47,23.8-13.48" stroke-dasharray="32.919" stroke-dashoffset="32.919"><animate attributeName="stroke-dashoffset" values="32.919" fill="freeze" begin="8e1e.click" /><animate attributeName="stroke-dashoffset" values="32.919;32.919;0" keyTimes="0;0.846;1" dur="2.133s" fill="freeze" begin="0s;8e1e.click" /></path><path d="M50.09,16.73c1.29,0.52,3.8,0.99,5.17,0.88c7.4-0.58,31.54-3.25,34.51-3.46c1.47-0.1,2.81,1.33,2.5,2.85c-0.77,3.74-2.84,8.02-3.97,13.57" stroke-dasharray="58.461" stroke-dashoffset="58.461"><animate attributeName="stroke-dashoffset" values="58.461" fill="freeze" begin="8e1e.click" /><animate attributeName="stroke-dashoffset" values="58.461;58.461;0" keyTimes="0;0.785;1" dur="2.718s" fill="freeze" begin="0s;8e1e.click" /></path><path d="M54.29,33.44c3.71-0.17,27.82-2,36.02-3.17" stroke-dasharray="36.165" stroke-dashoffset="36.165"><animate attributeName="stroke-dashoffset" values="36.165" fill="freeze" begin="8e1e.click" /><animate attributeName="stroke-dashoffset" values="36.165;36.165;0" keyTimes="0;0.882;1" dur="3.08s" fill="freeze" begin="0s;8e1e.click" /></path><path d="M53.64,18.29c0,3.1,0.17,9.4,0.15,12.31C53.59,51.62,52,78.25,40.31,91.81" stroke-dasharray="76.114" stroke-dashoffset="76.114"><animate attributeName="stroke-dashoffset" values="76.114" fill="freeze" begin="8e1e.click" /><animate attributeName="stroke-dashoffset" values="76.114;76.114;0" keyTimes="0;0.843;1" dur="3.652s" fill="freeze" begin="0s;8e1e.click" /></path><path d="M55.32,52.18c0.68,0.26,2.52,0.45,4.34,0.27c7.48-0.77,23.58-2.7,33.06-3.22c1.83-0.1,2.29-0.26,3.43,0" stroke-dasharray="41.04" stroke-dashoffset="41.04"><animate attributeName="stroke-dashoffset" values="41.04" fill="freeze" begin="8e1e.click" /><animate attributeName="stroke-dashoffset" values="41.04;41.04;0" keyTimes="0;0.899;1" dur="4.062s" fill="freeze" begin="0s;8e1e.click" /></path><path d="M71.97,35.94c0.63,0.35,1.91,2.09,1.91,4.14c0,12.3-0.13,27.17-0.13,31.79" stroke-dasharray="36.503" stroke-dashoffset="36.503"><animate attributeName="stroke-dashoffset" values="36.503" fill="freeze" begin="8e1e.click" /><animate attributeName="stroke-dashoffset" values="36.503;36.503;0" keyTimes="0;0.918;1" dur="4.427s" fill="freeze" begin="0s;8e1e.click" /></path><path d="M57.7,72.67c0.24,0.75,1.06,2.43,1.14,3c0.61,4.14,1.98,13.73,2.83,21.57" stroke-dasharray="24.97" stroke-dashoffset="24.97"><animate attributeName="stroke-dashoffset" values="24.97" fill="freeze" begin="8e1e.click" /><animate attributeName="stroke-dashoffset" values="24.97;24.97;0" keyTimes="0;0.947;1" dur="4.677s" fill="freeze" begin="0s;8e1e.click" /></path><path d="M58.93,73.88c6.8-0.83,26.89-3.53,31.53-3.66c1.92-0.05,2.64,1.75,2.38,2.98c-1.01,4.75-2.77,11.96-3.81,18.29" stroke-dasharray="54.842" stroke-dashoffset="54.842"><animate attributeName="stroke-dashoffset" values="54.842" fill="freeze" begin="8e1e.click" /><animate attributeName="stroke-dashoffset" values="54.842;54.842;0" keyTimes="0;0.895;1" dur="5.225s" fill="freeze" begin="0s;8e1e.click" /></path><path d="M62.04,94.09c5.62-0.35,21.9-1.54,28.65-1.98" stroke-dasharray="28.719" stroke-dashoffset="28.719"><animate attributeName="stroke-dashoffset" values="28.719" fill="freeze" begin="8e1e.click" /><animate attributeName="stroke-dashoffset" values="28.719;28.719;0" keyTimes="0;0.948;1" dur="5.512s" fill="freeze" begin="0s;8e1e.click" /></path></g></svg>