<svg xmlns="http://www.w3.org/2000/svg" width="109" height="109" viewBox="0 0 109 109" id="8e50"><g fill="none" stroke="#666" stroke-width="9" stroke-linecap="round" stroke-linejoin="round"><g><g><g><path d="M13.28,20.21c0.37,0.32,0.75,0.58,0.91,0.97c1.28,3.13,2.85,15.7,3.73,21.32" /><path d="M15.11,21.9c8.76-1.68,16.79-3,21.13-3.41c1.58-0.15,2.54,0.89,2.31,1.77c-1.04,4.06-2.15,12.35-3.43,17" /><path d="M18.56,40.19c5.09-0.46,12.65-1.34,19.64-2.05" /></g><path d="M26.37,41.24c1.09,0.5,1.96,2.23,1.96,3.25c0,5.51,0.28,28.01,0.28,38" /><path d="M28.38,58.24c3.37-0.49,5.87-1.24,9.35-1.5c1.74-0.13,2.18-0.25,3.26,0" /><path d="M15.87,54.49c1.09,0.5,1.74,2.25,1.96,3.25c0.22,1,0.42,19.01,0.42,30.76" /><path d="M11.5,90.6c0.34,0.77,2.87,0.82,3.7,0.38c8.21-4.32,16.24-9.15,25.3-13.99" /></g><g><g><g><path d="M67.96,14.25c0.17,1.17,0.34,2.73,0.19,4.28C66.5,35.25,62,52,43,60" /><path d="M66.5,30.5c5.5,3,20.52,19.07,24.88,22.35c1.48,1.11,3.88,1.59,5.37,1.9" /></g><g><g><path d="M45.94,24.35c0.52,0.13,1.48,0.12,2.01,0.13c4.97,0.02,8.87-1.44,12.1-1.3c0.87,0.04,1.4,0.06,1.83,0.12" /></g><g><path d="M44.38,35.06c0.58,0.17,1.63,0.16,2.21,0.17c5.45,0.03,8.24-1.24,11.79-1.04c0.96,0.05,1.54,0.08,2.01,0.16" /></g></g><g><g><path d="M75.12,22.1c0.67,0.13,1.91,0.12,2.58,0.13c6.37,0.02,9.05-1.44,13.2-1.3c1.12,0.04,1.79,0.06,2.36,0.12" /></g><g><path d="M76.46,32.85c0.67,0.13,1.9,0.12,2.58,0.13c6.37,0.02,8.97-1.44,13.12-1.3c1.12,0.04,1.8,0.06,2.35,0.12" /></g></g></g><g><path d="M54.64,55.7c0.56,0.8,0.93,1.61,1.11,2.41c0.19,0.8,0.26,37.93,0.19,39.74" /><path d="M56.37,57.81c2.22-0.2,22.17-3.09,23.82-3.32c2.97-0.4,4.08,2.61,3.71,3.82c-0.36,1.16-0.06,15.06-0.06,31.33c0,10.44-4.45,3.61-6.3,1.81" /><path d="M56.87,67.77c6.02-0.77,20.06-2.01,26.73-2.62" /><path d="M56.5,79.14c5.93-0.6,19.79-1.91,26.65-2.31" /></g></g></g></g><g fill="none" stroke="#000" stroke-width="5" stroke-linecap="round" stroke-linejoin="round"><g><g><g><path d="M13.28,20.21c0.37,0.32,0.75,0.58,0.91,0.97c1.28,3.13,2.85,15.7,3.73,21.32" stroke-dasharray="23.01" stroke-dashoffset="23.01"><animate id="0" attributeName="stroke-dashoffset" values="23.01;0" dur="0.23s" fill="freeze" begin="0s;8e50.click" /></path><path d="M15.11,21.9c8.76-1.68,16.79-3,21.13-3.41c1.58-0.15,2.54,0.89,2.31,1.77c-1.04,4.06-2.15,12.35-3.43,17" stroke-dasharray="42.14" stroke-dashoffset="42.14"><animate attributeName="stroke-dashoffset" values="42.14" fill="freeze" begin="8e50.click" /><animate id="1" attributeName="stroke-dashoffset" values="42.14;0" dur="0.42s" fill="freeze" begin="0.end" /></path><path d="M18.56,40.19c5.09-0.46,12.65-1.34,19.64-2.05" stroke-dasharray="19.75" stroke-dashoffset="19.75"><animate attributeName="stroke-dashoffset" values="19.75" fill="freeze" begin="8e50.click" /><animate id="2" attributeName="stroke-dashoffset" values="19.75;0" dur="0.2s" fill="freeze" begin="1.end" /></path></g><path d="M26.37,41.24c1.09,0.5,1.96,2.23,1.96,3.25c0,5.51,0.28,28.01,0.28,38" stroke-dasharray="41.95" stroke-dashoffset="41.95"><animate attributeName="stroke-dashoffset" values="41.95" fill="freeze" begin="8e50.click" /><animate id="3" attributeName="stroke-dashoffset" values="41.95;0" dur="0.42s" fill="freeze" begin="2.end" /></path><path d="M28.38,58.24c3.37-0.49,5.87-1.24,9.35-1.5c1.74-0.13,2.18-0.25,3.26,0" stroke-dasharray="12.75" stroke-dashoffset="12.75"><animate attributeName="stroke-dashoffset" values="12.75" fill="freeze" begin="8e50.click" /><animate id="4" attributeName="stroke-dashoffset" values="12.75;0" dur="0.13s" fill="freeze" begin="3.end" /></path><path d="M15.87,54.49c1.09,0.5,1.74,2.25,1.96,3.25c0.22,1,0.42,19.01,0.42,30.76" stroke-dasharray="34.67" stroke-dashoffset="34.67"><animate attributeName="stroke-dashoffset" values="34.67" fill="freeze" begin="8e50.click" /><animate id="5" attributeName="stroke-dashoffset" values="34.67;0" dur="0.35s" fill="freeze" begin="4.end" /></path><path d="M11.5,90.6c0.34,0.77,2.87,0.82,3.7,0.38c8.21-4.32,16.24-9.15,25.3-13.99" stroke-dasharray="32.84" stroke-dashoffset="32.84"><animate attributeName="stroke-dashoffset" values="32.84" fill="freeze" begin="8e50.click" /><animate id="6" attributeName="stroke-dashoffset" values="32.84;0" dur="0.33s" fill="freeze" begin="5.end" /></path></g><g><g><g><path d="M67.96,14.25c0.17,1.17,0.34,2.73,0.19,4.28C66.5,35.25,62,52,43,60" stroke-dasharray="55.64" stroke-dashoffset="55.64"><animate attributeName="stroke-dashoffset" values="55.64" fill="freeze" begin="8e50.click" /><animate id="7" attributeName="stroke-dashoffset" values="55.64;0" dur="0.56s" fill="freeze" begin="6.end" /></path><path d="M66.5,30.5c5.5,3,20.52,19.07,24.88,22.35c1.48,1.11,3.88,1.59,5.37,1.9" stroke-dasharray="39.23" stroke-dashoffset="39.23"><animate attributeName="stroke-dashoffset" values="39.23" fill="freeze" begin="8e50.click" /><animate id="8" attributeName="stroke-dashoffset" values="39.23;0" dur="0.39s" fill="freeze" begin="7.end" /></path></g><g><g><path d="M45.94,24.35c0.52,0.13,1.48,0.12,2.01,0.13c4.97,0.02,8.87-1.44,12.1-1.3c0.87,0.04,1.4,0.06,1.83,0.12" stroke-dasharray="16.04" stroke-dashoffset="16.04"><animate attributeName="stroke-dashoffset" values="16.04" fill="freeze" begin="8e50.click" /><animate id="9" attributeName="stroke-dashoffset" values="16.04;0" dur="0.16s" fill="freeze" begin="8.end" /></path></g><g><path d="M44.38,35.06c0.58,0.17,1.63,0.16,2.21,0.17c5.45,0.03,8.24-1.24,11.79-1.04c0.96,0.05,1.54,0.08,2.01,0.16" stroke-dasharray="16.09" stroke-dashoffset="16.09"><animate attributeName="stroke-dashoffset" values="16.09" fill="freeze" begin="8e50.click" /><animate id="10" attributeName="stroke-dashoffset" values="16.09;0" dur="0.16s" fill="freeze" begin="9.end" /></path></g></g><g><g><path d="M75.12,22.1c0.67,0.13,1.91,0.12,2.58,0.13c6.37,0.02,9.05-1.44,13.2-1.3c1.12,0.04,1.79,0.06,2.36,0.12" stroke-dasharray="18.24" stroke-dashoffset="18.24"><animate attributeName="stroke-dashoffset" values="18.24" fill="freeze" begin="8e50.click" /><animate id="11" attributeName="stroke-dashoffset" values="18.24;0" dur="0.18s" fill="freeze" begin="10.end" /></path></g><g><path d="M76.46,32.85c0.67,0.13,1.9,0.12,2.58,0.13c6.37,0.02,8.97-1.44,13.12-1.3c1.12,0.04,1.8,0.06,2.35,0.12" stroke-dasharray="18.15" stroke-dashoffset="18.15"><animate attributeName="stroke-dashoffset" values="18.15" fill="freeze" begin="8e50.click" /><animate id="12" attributeName="stroke-dashoffset" values="18.15;0" dur="0.18s" fill="freeze" begin="11.end" /></path></g></g></g><g><path d="M54.64,55.7c0.56,0.8,0.93,1.61,1.11,2.41c0.19,0.8,0.26,37.93,0.19,39.74" stroke-dasharray="42.41" stroke-dashoffset="42.41"><animate attributeName="stroke-dashoffset" values="42.41" fill="freeze" begin="8e50.click" /><animate id="13" attributeName="stroke-dashoffset" values="42.41;0" dur="0.42s" fill="freeze" begin="12.end" /></path><path d="M56.37,57.81c2.22-0.2,22.17-3.09,23.82-3.32c2.97-0.4,4.08,2.61,3.71,3.82c-0.36,1.16-0.06,15.06-0.06,31.33c0,10.44-4.45,3.61-6.3,1.81" stroke-dasharray="74.05" stroke-dashoffset="74.05"><animate attributeName="stroke-dashoffset" values="74.05" fill="freeze" begin="8e50.click" /><animate id="14" attributeName="stroke-dashoffset" values="74.05;0" dur="0.56s" fill="freeze" begin="13.end" /></path><path d="M56.87,67.77c6.02-0.77,20.06-2.01,26.73-2.62" stroke-dasharray="26.86" stroke-dashoffset="26.86"><animate attributeName="stroke-dashoffset" values="26.86" fill="freeze" begin="8e50.click" /><animate id="15" attributeName="stroke-dashoffset" values="26.86;0" dur="0.27s" fill="freeze" begin="14.end" /></path><path d="M56.5,79.14c5.93-0.6,19.79-1.91,26.65-2.31" stroke-dasharray="26.75" stroke-dashoffset="26.75"><animate attributeName="stroke-dashoffset" values="26.75" fill="freeze" begin="8e50.click" /><animate id="16" attributeName="stroke-dashoffset" values="26.75;0" dur="0.27s" fill="freeze" begin="15.end" /></path></g></g></g></g></svg>