<svg xmlns="http://www.w3.org/2000/svg" width="109" height="109" viewBox="0 0 109 109" id="8e74"><g fill="none" stroke="#666" stroke-width="9" stroke-linecap="round" stroke-linejoin="round"><g><g><g><path d="M11.78,23.45c0.77,0.52,1.23,1.25,1.36,2.17c0.72,3.93,1.14,7.8,1.83,11.76c0.25,1.45,0.51,2.92,0.78,4.4" /><path d="M13.65,24.85c8.03-1.29,13.57-2.23,17.74-2.77c3.49-0.45,5.32,0.34,4.51,3.8c-0.84,3.58-1.14,6.12-2.09,10.77" /><path d="M16.41,40.19c4.29-0.63,9.28-1.42,14.59-1.95c1.61-0.16,3.25-0.32,4.91-0.48" /></g><path d="M25.62,41.52c0.93,0.93,0.96,2.23,0.96,3.5c0,1.02-0.08,31.33-0.08,38.1" /><path d="M27.88,56.27c3.37-0.49,4.99-0.77,8.35-1.25c1.73-0.25,2.18-0.25,3.26,0" /><path d="M14.12,55.27c0.99,0.99,1.15,2.48,1.21,4c0.3,7.23,0.92,19.26,1.67,30.01" /><path d="M10.75,91.1c0.88,0.65,3.02,0.35,3.82-0.1C22.5,86.53,29.25,82.28,38,77.27" /></g><g><g><g><path d="M53.06,15.5c1.03,1.03,1.3,2.25,1.3,3.71c0,4.05-0.07,5.91-0.07,9.56" /><path d="M40.38,30.48c2.11,0.42,4.24,0.69,6.38,0.44c5.74-0.67,9.99-1.55,16.75-1.98c1.99-0.13,3.76-0.65,5.62,0.03" /></g><g><g><path d="M43.36,40.87c0.82,0.82,0.98,1.48,1.13,2.36c0.55,3.31,1.17,6.33,1.96,10.01c0.29,1.35,0.61,2.79,0.95,4.37" /><path d="M45.25,41.63c6.37-1.21,12.53-2.37,16.13-2.96c2.45-0.41,3.96,0.92,3.31,3.8c-0.59,2.61-2.04,6.82-2.86,10.44" /><path d="M48.25,55.34c4.83-0.48,7.56-0.9,12.75-1.33c1.25-0.1,2.65-0.21,4.26-0.32" /></g><g><path d="M54.74,57.28c0.99,0.99,1.17,2.47,1.17,4.3c0,4.71,0.06,23.54,0.06,27.86c0,8.52-5.5,0.73-6.6-0.47" /><path d="M48.32,67.57c0.1,1.11-0.31,2.18-0.73,3.21c-2.59,4.84-5.25,9.4-10.02,15.16" /><path d="M63,67.82c1.59,2.13,4.04,7.57,4.44,10.88" /></g></g></g><g><g><path d="M72.01,40.28c1.9,0.29,3.83,0.66,5.75,0.43c4.99-0.58,10.99-1.58,15.97-2.31c1.48-0.22,2.83-0.49,4.31-0.06" /><g><g><path d="M81.61,16.72c0.64,1.28,0.73,2.66,0.62,4.13c-2.11,28.78-5.11,53.03-17.18,72.35" /></g><path d="M82.17,51.48c1.11,1.11,1.27,2.52,1.27,4.1c0,8.96,0.05,21.17,0.05,27.26c0,8.75,1.59,9.87,6.87,9.87c5.09,0,6.32-0.78,6.32-9.99" /></g></g><g><path d="M89.57,22.43c1.94,1.64,5.26,6.74,5.74,9.28" /></g></g></g></g></g><g fill="none" stroke="#000" stroke-width="5" stroke-linecap="round" stroke-linejoin="round"><g><g><g><path d="M11.78,23.45c0.77,0.52,1.23,1.25,1.36,2.17c0.72,3.93,1.14,7.8,1.83,11.76c0.25,1.45,0.51,2.92,0.78,4.4" stroke-dasharray="19.01" stroke-dashoffset="19.01"><animate id="0" attributeName="stroke-dashoffset" values="19.01;0" dur="0.19s" fill="freeze" begin="0s;8e74.click" /></path><path d="M13.65,24.85c8.03-1.29,13.57-2.23,17.74-2.77c3.49-0.45,5.32,0.34,4.51,3.8c-0.84,3.58-1.14,6.12-2.09,10.77" stroke-dasharray="36.54" stroke-dashoffset="36.54"><animate attributeName="stroke-dashoffset" values="36.54" fill="freeze" begin="8e74.click" /><animate id="1" attributeName="stroke-dashoffset" values="36.54;0" dur="0.37s" fill="freeze" begin="0.end" /></path><path d="M16.41,40.19c4.29-0.63,9.28-1.42,14.59-1.95c1.61-0.16,3.25-0.32,4.91-0.48" stroke-dasharray="19.65" stroke-dashoffset="19.65"><animate attributeName="stroke-dashoffset" values="19.65" fill="freeze" begin="8e74.click" /><animate id="2" attributeName="stroke-dashoffset" values="19.65;0" dur="0.2s" fill="freeze" begin="1.end" /></path></g><path d="M25.62,41.52c0.93,0.93,0.96,2.23,0.96,3.5c0,1.02-0.08,31.33-0.08,38.1" stroke-dasharray="41.83" stroke-dashoffset="41.83"><animate attributeName="stroke-dashoffset" values="41.83" fill="freeze" begin="8e74.click" /><animate id="3" attributeName="stroke-dashoffset" values="41.83;0" dur="0.42s" fill="freeze" begin="2.end" /></path><path d="M27.88,56.27c3.37-0.49,4.99-0.77,8.35-1.25c1.73-0.25,2.18-0.25,3.26,0" stroke-dasharray="11.73" stroke-dashoffset="11.73"><animate attributeName="stroke-dashoffset" values="11.73" fill="freeze" begin="8e74.click" /><animate id="4" attributeName="stroke-dashoffset" values="11.73;0" dur="0.12s" fill="freeze" begin="3.end" /></path><path d="M14.12,55.27c0.99,0.99,1.15,2.48,1.21,4c0.3,7.23,0.92,19.26,1.67,30.01" stroke-dasharray="34.34" stroke-dashoffset="34.34"><animate attributeName="stroke-dashoffset" values="34.34" fill="freeze" begin="8e74.click" /><animate id="5" attributeName="stroke-dashoffset" values="34.34;0" dur="0.34s" fill="freeze" begin="4.end" /></path><path d="M10.75,91.1c0.88,0.65,3.02,0.35,3.82-0.1C22.5,86.53,29.25,82.28,38,77.27" stroke-dasharray="31.12" stroke-dashoffset="31.12"><animate attributeName="stroke-dashoffset" values="31.12" fill="freeze" begin="8e74.click" /><animate id="6" attributeName="stroke-dashoffset" values="31.12;0" dur="0.31s" fill="freeze" begin="5.end" /></path></g><g><g><g><path d="M53.06,15.5c1.03,1.03,1.3,2.25,1.3,3.71c0,4.05-0.07,5.91-0.07,9.56" stroke-dasharray="13.61" stroke-dashoffset="13.61"><animate attributeName="stroke-dashoffset" values="13.61" fill="freeze" begin="8e74.click" /><animate id="7" attributeName="stroke-dashoffset" values="13.61;0" dur="0.14s" fill="freeze" begin="6.end" /></path><path d="M40.38,30.48c2.11,0.42,4.24,0.69,6.38,0.44c5.74-0.67,9.99-1.55,16.75-1.98c1.99-0.13,3.76-0.65,5.62,0.03" stroke-dasharray="28.97" stroke-dashoffset="28.97"><animate attributeName="stroke-dashoffset" values="28.97" fill="freeze" begin="8e74.click" /><animate id="8" attributeName="stroke-dashoffset" values="28.97;0" dur="0.29s" fill="freeze" begin="7.end" /></path></g><g><g><path d="M43.36,40.87c0.82,0.82,0.98,1.48,1.13,2.36c0.55,3.31,1.17,6.33,1.96,10.01c0.29,1.35,0.61,2.79,0.95,4.37" stroke-dasharray="17.34" stroke-dashoffset="17.34"><animate attributeName="stroke-dashoffset" values="17.34" fill="freeze" begin="8e74.click" /><animate id="9" attributeName="stroke-dashoffset" values="17.34;0" dur="0.17s" fill="freeze" begin="8.end" /></path><path d="M45.25,41.63c6.37-1.21,12.53-2.37,16.13-2.96c2.45-0.41,3.96,0.92,3.31,3.8c-0.59,2.61-2.04,6.82-2.86,10.44" stroke-dasharray="33.54" stroke-dashoffset="33.54"><animate attributeName="stroke-dashoffset" values="33.54" fill="freeze" begin="8e74.click" /><animate id="10" attributeName="stroke-dashoffset" values="33.54;0" dur="0.34s" fill="freeze" begin="9.end" /></path><path d="M48.25,55.34c4.83-0.48,7.56-0.9,12.75-1.33c1.25-0.1,2.65-0.21,4.26-0.32" stroke-dasharray="17.09" stroke-dashoffset="17.09"><animate attributeName="stroke-dashoffset" values="17.09" fill="freeze" begin="8e74.click" /><animate id="11" attributeName="stroke-dashoffset" values="17.09;0" dur="0.17s" fill="freeze" begin="10.end" /></path></g><g><path d="M54.74,57.28c0.99,0.99,1.17,2.47,1.17,4.3c0,4.71,0.06,23.54,0.06,27.86c0,8.52-5.5,0.73-6.6-0.47" stroke-dasharray="43.9" stroke-dashoffset="43.9"><animate attributeName="stroke-dashoffset" values="43.9" fill="freeze" begin="8e74.click" /><animate id="12" attributeName="stroke-dashoffset" values="43.9;0" dur="0.44s" fill="freeze" begin="11.end" /></path><path d="M48.32,67.57c0.1,1.11-0.31,2.18-0.73,3.21c-2.59,4.84-5.25,9.4-10.02,15.16" stroke-dasharray="21.53" stroke-dashoffset="21.53"><animate attributeName="stroke-dashoffset" values="21.53" fill="freeze" begin="8e74.click" /><animate id="13" attributeName="stroke-dashoffset" values="21.53;0" dur="0.22s" fill="freeze" begin="12.end" /></path><path d="M63,67.82c1.59,2.13,4.04,7.57,4.44,10.88" stroke-dasharray="11.84" stroke-dashoffset="11.84"><animate attributeName="stroke-dashoffset" values="11.84" fill="freeze" begin="8e74.click" /><animate id="14" attributeName="stroke-dashoffset" values="11.84;0" dur="0.12s" fill="freeze" begin="13.end" /></path></g></g></g><g><g><path d="M72.01,40.28c1.9,0.29,3.83,0.66,5.75,0.43c4.99-0.58,10.99-1.58,15.97-2.31c1.48-0.22,2.83-0.49,4.31-0.06" stroke-dasharray="26.27" stroke-dashoffset="26.27"><animate attributeName="stroke-dashoffset" values="26.27" fill="freeze" begin="8e74.click" /><animate id="15" attributeName="stroke-dashoffset" values="26.27;0" dur="0.26s" fill="freeze" begin="14.end" /></path><g><g><path d="M81.61,16.72c0.64,1.28,0.73,2.66,0.62,4.13c-2.11,28.78-5.11,53.03-17.18,72.35" stroke-dasharray="79.34" stroke-dashoffset="79.34"><animate attributeName="stroke-dashoffset" values="79.34" fill="freeze" begin="8e74.click" /><animate id="16" attributeName="stroke-dashoffset" values="79.34;0" dur="0.6s" fill="freeze" begin="15.end" /></path></g><path d="M82.17,51.48c1.11,1.11,1.27,2.52,1.27,4.1c0,8.96,0.05,21.17,0.05,27.26c0,8.75,1.59,9.87,6.87,9.87c5.09,0,6.32-0.78,6.32-9.99" stroke-dasharray="60.19" stroke-dashoffset="60.19"><animate attributeName="stroke-dashoffset" values="60.19" fill="freeze" begin="8e74.click" /><animate id="17" attributeName="stroke-dashoffset" values="60.19;0" dur="0.45s" fill="freeze" begin="16.end" /></path></g></g><g><path d="M89.57,22.43c1.94,1.64,5.26,6.74,5.74,9.28" stroke-dasharray="11.03" stroke-dashoffset="11.03"><animate attributeName="stroke-dashoffset" values="11.03" fill="freeze" begin="8e74.click" /><animate id="18" attributeName="stroke-dashoffset" values="11.03;0" dur="0.11s" fill="freeze" begin="17.end" /></path></g></g></g></g></g></svg>