<svg xmlns="http://www.w3.org/2000/svg" width="109" height="109" viewBox="0 0 109 109" id="8e87"><g fill="none" stroke="#666" stroke-width="9" stroke-linecap="round" stroke-linejoin="round"><g><g><g><path d="M13.28,19.71c0.37,0.32,0.75,0.58,0.91,0.97c1.28,3.13,2.35,15.2,3.23,20.82" /><path d="M15.11,21.4c8.76-1.68,16.79-3,21.13-3.41c1.58-0.15,2.54,0.89,2.31,1.77c-1.04,4.06-2.15,12.35-3.43,17" /><path d="M18.06,39.19c5.09-0.46,11.65-0.84,18.64-1.55" /></g><path d="M25.87,40.74c1.09,0.5,1.96,2.23,1.96,3.25c0,5.51,0.28,28.01,0.28,38" /><path d="M28.38,58.24c3.37-0.49,6.12-1.99,9.35-2.5c1.72-0.27,2.18-0.25,3.26,0" /><path d="M14.87,56.49c1.09,0.5,1.74,2.25,1.96,3.25c0.22,1,0.42,16.51,0.42,28.26" /><path d="M11,89.37c0.36,0.91,2.5,1.63,4.39,0.59c8.77-4.84,16.58-9.77,26.11-15.46" /></g><g><g><path d="M45.75,21.26c1.28,0.41,2.77,0.49,4.05,0.41c11.76-0.75,29.2-2.43,40.97-3.23c2.13-0.14,3.41,0.2,4.48,0.4" /><path d="M55.24,11.58c1.37,1.12,1.81,1.46,1.96,2.15c1.37,6.46,2.05,12.62,2.44,14.97" /><path d="M79.4,10.54c0.33,0.92,0.51,1.56,0.39,2.74c-0.54,5.47-1.04,8.22-1.48,14.76" /></g><g><g p6:partial xmlns:p6="http://kanjivg.tagaini.net"><g><path d="M51.24,40.47c0.8,0.33,2.27,0.38,3.08,0.33c9.13-0.54,14.68-1.8,22.2-2.81c1.33-0.18,2.14-0.34,2.81-0.18" /><path d="M65.72,27.87c0.08,0.2,1.12,1.06,1.2,2.36c0.38,6.23,0.21,19.04,0.21,21.16" /><path d="M43.72,53.4c1.54,0.39,3.91,0.73,5.3,0.58c7.69-0.82,34.85-3.95,43.78-4.13c2.3-0.05,3.69,0.28,4.84,0.57" /></g><path d="M87.69,33.6c0.13,1.03,0.25,2.45-0.68,3.67c-11.9,15.61-23.13,27.21-44.84,41.63" /></g><path d="M76.67,55.12c2.78,1.27,7.17,5.22,7.87,7.2" /><g><path d="M61.54,67.87c0.3,0.75,0.61,1.13,0.61,2.13c0,1-0.2,29.27-0.2,29.78" /><path d="M62.66,70.24c1.73-0.13,22.15-2.67,23.73-2.82c1.31-0.12,2.16,1.39,2.06,2.13c-0.21,1.5-0.31,18.14-0.3,29.16" /><path d="M62.47,81.99c5.33,0,22.7-1.38,25.35-1.38" /><path d="M62.37,96.72c6.42,0,18.19-1.11,25.45-1.13" /></g></g></g></g></g><g fill="none" stroke="#000" stroke-width="5" stroke-linecap="round" stroke-linejoin="round"><g><g><g><path d="M13.28,19.71c0.37,0.32,0.75,0.58,0.91,0.97c1.28,3.13,2.35,15.2,3.23,20.82" stroke-dasharray="22.44" stroke-dashoffset="22.44"><animate id="0" attributeName="stroke-dashoffset" values="22.44;0" dur="0.22s" fill="freeze" begin="0s;8e87.click" /></path><path d="M15.11,21.4c8.76-1.68,16.79-3,21.13-3.41c1.58-0.15,2.54,0.89,2.31,1.77c-1.04,4.06-2.15,12.35-3.43,17" stroke-dasharray="42.14" stroke-dashoffset="42.14"><animate attributeName="stroke-dashoffset" values="42.14" fill="freeze" begin="8e87.click" /><animate id="1" attributeName="stroke-dashoffset" values="42.14;0" dur="0.42s" fill="freeze" begin="0.end" /></path><path d="M18.06,39.19c5.09-0.46,11.65-0.84,18.64-1.55" stroke-dasharray="18.7" stroke-dashoffset="18.7"><animate attributeName="stroke-dashoffset" values="18.7" fill="freeze" begin="8e87.click" /><animate id="2" attributeName="stroke-dashoffset" values="18.7;0" dur="0.19s" fill="freeze" begin="1.end" /></path></g><path d="M25.87,40.74c1.09,0.5,1.96,2.23,1.96,3.25c0,5.51,0.28,28.01,0.28,38" stroke-dasharray="41.95" stroke-dashoffset="41.95"><animate attributeName="stroke-dashoffset" values="41.95" fill="freeze" begin="8e87.click" /><animate id="3" attributeName="stroke-dashoffset" values="41.95;0" dur="0.42s" fill="freeze" begin="2.end" /></path><path d="M28.38,58.24c3.37-0.49,6.12-1.99,9.35-2.5c1.72-0.27,2.18-0.25,3.26,0" stroke-dasharray="12.98" stroke-dashoffset="12.98"><animate attributeName="stroke-dashoffset" values="12.98" fill="freeze" begin="8e87.click" /><animate id="4" attributeName="stroke-dashoffset" values="12.98;0" dur="0.13s" fill="freeze" begin="3.end" /></path><path d="M14.87,56.49c1.09,0.5,1.74,2.25,1.96,3.25c0.22,1,0.42,16.51,0.42,28.26" stroke-dasharray="32.18" stroke-dashoffset="32.18"><animate attributeName="stroke-dashoffset" values="32.18" fill="freeze" begin="8e87.click" /><animate id="5" attributeName="stroke-dashoffset" values="32.18;0" dur="0.32s" fill="freeze" begin="4.end" /></path><path d="M11,89.37c0.36,0.91,2.5,1.63,4.39,0.59c8.77-4.84,16.58-9.77,26.11-15.46" stroke-dasharray="35.2" stroke-dashoffset="35.2"><animate attributeName="stroke-dashoffset" values="35.2" fill="freeze" begin="8e87.click" /><animate id="6" attributeName="stroke-dashoffset" values="35.2;0" dur="0.35s" fill="freeze" begin="5.end" /></path></g><g><g><path d="M45.75,21.26c1.28,0.41,2.77,0.49,4.05,0.41c11.76-0.75,29.2-2.43,40.97-3.23c2.13-0.14,3.41,0.2,4.48,0.4" stroke-dasharray="49.71" stroke-dashoffset="49.71"><animate attributeName="stroke-dashoffset" values="49.71" fill="freeze" begin="8e87.click" /><animate id="7" attributeName="stroke-dashoffset" values="49.71;0" dur="0.5s" fill="freeze" begin="6.end" /></path><path d="M55.24,11.58c1.37,1.12,1.81,1.46,1.96,2.15c1.37,6.46,2.05,12.62,2.44,14.97" stroke-dasharray="18.14" stroke-dashoffset="18.14"><animate attributeName="stroke-dashoffset" values="18.14" fill="freeze" begin="8e87.click" /><animate id="8" attributeName="stroke-dashoffset" values="18.14;0" dur="0.18s" fill="freeze" begin="7.end" /></path><path d="M79.4,10.54c0.33,0.92,0.51,1.56,0.39,2.74c-0.54,5.47-1.04,8.22-1.48,14.76" stroke-dasharray="17.63" stroke-dashoffset="17.63"><animate attributeName="stroke-dashoffset" values="17.63" fill="freeze" begin="8e87.click" /><animate id="9" attributeName="stroke-dashoffset" values="17.63;0" dur="0.18s" fill="freeze" begin="8.end" /></path></g><g><g p6:partial xmlns:p6="http://kanjivg.tagaini.net"><g><path d="M51.24,40.47c0.8,0.33,2.27,0.38,3.08,0.33c9.13-0.54,14.68-1.8,22.2-2.81c1.33-0.18,2.14-0.34,2.81-0.18" stroke-dasharray="28.33" stroke-dashoffset="28.33"><animate attributeName="stroke-dashoffset" values="28.33" fill="freeze" begin="8e87.click" /><animate id="10" attributeName="stroke-dashoffset" values="28.33;0" dur="0.28s" fill="freeze" begin="9.end" /></path><path d="M65.72,27.87c0.08,0.2,1.12,1.06,1.2,2.36c0.38,6.23,0.21,19.04,0.21,21.16" stroke-dasharray="23.86" stroke-dashoffset="23.86"><animate attributeName="stroke-dashoffset" values="23.86" fill="freeze" begin="8e87.click" /><animate id="11" attributeName="stroke-dashoffset" values="23.86;0" dur="0.24s" fill="freeze" begin="10.end" /></path><path d="M43.72,53.4c1.54,0.39,3.91,0.73,5.3,0.58c7.69-0.82,34.85-3.95,43.78-4.13c2.3-0.05,3.69,0.28,4.84,0.57" stroke-dasharray="54.23" stroke-dashoffset="54.23"><animate attributeName="stroke-dashoffset" values="54.23" fill="freeze" begin="8e87.click" /><animate id="12" attributeName="stroke-dashoffset" values="54.23;0" dur="0.54s" fill="freeze" begin="11.end" /></path></g><path d="M87.69,33.6c0.13,1.03,0.25,2.45-0.68,3.67c-11.9,15.61-23.13,27.21-44.84,41.63" stroke-dasharray="65.36" stroke-dashoffset="65.36"><animate attributeName="stroke-dashoffset" values="65.36" fill="freeze" begin="8e87.click" /><animate id="13" attributeName="stroke-dashoffset" values="65.36;0" dur="0.49s" fill="freeze" begin="12.end" /></path></g><path d="M76.67,55.12c2.78,1.27,7.17,5.22,7.87,7.2" stroke-dasharray="10.82" stroke-dashoffset="10.82"><animate attributeName="stroke-dashoffset" values="10.82" fill="freeze" begin="8e87.click" /><animate id="14" attributeName="stroke-dashoffset" values="10.82;0" dur="0.11s" fill="freeze" begin="13.end" /></path><g><path d="M61.54,67.87c0.3,0.75,0.61,1.13,0.61,2.13c0,1-0.2,29.27-0.2,29.78" stroke-dasharray="32.02" stroke-dashoffset="32.02"><animate attributeName="stroke-dashoffset" values="32.02" fill="freeze" begin="8e87.click" /><animate id="15" attributeName="stroke-dashoffset" values="32.02;0" dur="0.32s" fill="freeze" begin="14.end" /></path><path d="M62.66,70.24c1.73-0.13,22.15-2.67,23.73-2.82c1.31-0.12,2.16,1.39,2.06,2.13c-0.21,1.5-0.31,18.14-0.3,29.16" stroke-dasharray="56.37" stroke-dashoffset="56.37"><animate attributeName="stroke-dashoffset" values="56.37" fill="freeze" begin="8e87.click" /><animate id="16" attributeName="stroke-dashoffset" values="56.37;0" dur="0.56s" fill="freeze" begin="15.end" /></path><path d="M62.47,81.99c5.33,0,22.7-1.38,25.35-1.38" stroke-dasharray="25.39" stroke-dashoffset="25.39"><animate attributeName="stroke-dashoffset" values="25.39" fill="freeze" begin="8e87.click" /><animate id="17" attributeName="stroke-dashoffset" values="25.39;0" dur="0.25s" fill="freeze" begin="16.end" /></path><path d="M62.37,96.72c6.42,0,18.19-1.11,25.45-1.13" stroke-dasharray="25.48" stroke-dashoffset="25.48"><animate attributeName="stroke-dashoffset" values="25.48" fill="freeze" begin="8e87.click" /><animate id="18" attributeName="stroke-dashoffset" values="25.48;0" dur="0.25s" fill="freeze" begin="17.end" /></path></g></g></g></g></g></svg>