<svg xmlns="http://www.w3.org/2000/svg" width="109" height="109" viewBox="0 0 109 109" id="8ef8"><g fill="none" stroke="#666" stroke-width="9" stroke-linecap="round" stroke-linejoin="round"><g><g><path d="M13.83,30.27c1.92,0.78,4.84,0.73,6.83,0.44c6.21-0.9,15.1-2.25,22.99-3.18c1.67-0.2,3.11-0.27,4.53-0.1" /><path d="M14.31,43.02c0.83,0.83,1.06,1.85,1.3,2.85c0.81,3.42,1.3,9.12,2.35,16.14c0.22,1.46,0.42,2.89,0.59,4.25" /><path d="M15.85,44.6c9.02-1.74,21.63-4.35,28.29-5.05c3.73-0.39,5.31,0.08,4.88,4.07c-0.42,3.79-1.09,9.08-2.28,14.43c-0.26,1.18-0.54,2.37-0.83,3.55" /><path d="M18.24,54.28C28,52.75,36,51.25,47.11,50.28" /><path d="M19.6,64.71c7.77-1.58,14.76-2.85,25.05-3.97" /><path d="M9.53,78.33c2.22,0.3,4.28,0.37,6.47,0.01c10.92-1.79,21.48-3.25,30.5-4.02c1.49-0.13,3.01-0.25,4.48,0.17" /><path d="M31.55,15.88c0.84,0.84,1.23,2.24,1.23,3.9c0,0.96,0.01,48.71,0.01,69.21c0,3.78-0.03,6.5-0.05,7.63" /></g><g p4:phon="由" xmlns:p4="http://kanjivg.tagaini.net"><g p4:part="1" p4:partial><path d="M54.93,51.2c1.06,1.06,1.38,2.29,1.46,3.86C57,68,57.23,73.1,57.73,84.25c0.08,1.79,0.17,3.62,0.28,5.5" /><path d="M56.3,52.07c10.91-1.66,24-3.89,32.95-4.66c4.39-0.38,6.77,0.59,6.42,5.35c-0.49,6.61-1.51,18.16-2.77,28.76c-0.24,1.99-0.49,3.95-0.77,5.83" /></g><g><path d="M72.99,20.82c1.26,1.18,2,2.88,2.01,4.43c0.04,15.3-0.02,54.95-0.02,58.94" /></g><g p4:part="2" p4:partial><path d="M58.28,68.27C67.5,66.75,87,64.5,93.34,64.21" /><path d="M58.54,87.03c9.83-0.9,19.83-2.4,32.93-3.15" /></g></g></g></g><g fill="none" stroke="#000" stroke-width="5" stroke-linecap="round" stroke-linejoin="round"><g><g><path d="M13.83,30.27c1.92,0.78,4.84,0.73,6.83,0.44c6.21-0.9,15.1-2.25,22.99-3.18c1.67-0.2,3.11-0.27,4.53-0.1" stroke-dasharray="34.66" stroke-dashoffset="34.66"><animate id="0" attributeName="stroke-dashoffset" values="34.66;0" dur="0.35s" fill="freeze" begin="0s;8ef8.click" /></path><path d="M14.31,43.02c0.83,0.83,1.06,1.85,1.3,2.85c0.81,3.42,1.3,9.12,2.35,16.14c0.22,1.46,0.42,2.89,0.59,4.25" stroke-dasharray="23.78" stroke-dashoffset="23.78"><animate attributeName="stroke-dashoffset" values="23.78" fill="freeze" begin="8ef8.click" /><animate id="1" attributeName="stroke-dashoffset" values="23.78;0" dur="0.24s" fill="freeze" begin="0.end" /></path><path d="M15.85,44.6c9.02-1.74,21.63-4.35,28.29-5.05c3.73-0.39,5.31,0.08,4.88,4.07c-0.42,3.79-1.09,9.08-2.28,14.43c-0.26,1.18-0.54,2.37-0.83,3.55" stroke-dasharray="55.07" stroke-dashoffset="55.07"><animate attributeName="stroke-dashoffset" values="55.07" fill="freeze" begin="8ef8.click" /><animate id="2" attributeName="stroke-dashoffset" values="55.07;0" dur="0.55s" fill="freeze" begin="1.end" /></path><path d="M18.24,54.28C28,52.75,36,51.25,47.11,50.28" stroke-dasharray="29.15" stroke-dashoffset="29.15"><animate attributeName="stroke-dashoffset" values="29.15" fill="freeze" begin="8ef8.click" /><animate id="3" attributeName="stroke-dashoffset" values="29.15;0" dur="0.29s" fill="freeze" begin="2.end" /></path><path d="M19.6,64.71c7.77-1.58,14.76-2.85,25.05-3.97" stroke-dasharray="25.37" stroke-dashoffset="25.37"><animate attributeName="stroke-dashoffset" values="25.37" fill="freeze" begin="8ef8.click" /><animate id="4" attributeName="stroke-dashoffset" values="25.37;0" dur="0.25s" fill="freeze" begin="3.end" /></path><path d="M9.53,78.33c2.22,0.3,4.28,0.37,6.47,0.01c10.92-1.79,21.48-3.25,30.5-4.02c1.49-0.13,3.01-0.25,4.48,0.17" stroke-dasharray="41.78" stroke-dashoffset="41.78"><animate attributeName="stroke-dashoffset" values="41.78" fill="freeze" begin="8ef8.click" /><animate id="5" attributeName="stroke-dashoffset" values="41.78;0" dur="0.42s" fill="freeze" begin="4.end" /></path><path d="M31.55,15.88c0.84,0.84,1.23,2.24,1.23,3.9c0,0.96,0.01,48.71,0.01,69.21c0,3.78-0.03,6.5-0.05,7.63" stroke-dasharray="81.03" stroke-dashoffset="81.03"><animate attributeName="stroke-dashoffset" values="81.03" fill="freeze" begin="8ef8.click" /><animate id="6" attributeName="stroke-dashoffset" values="81.03;0" dur="0.61s" fill="freeze" begin="5.end" /></path></g><g p4:phon="由" xmlns:p4="http://kanjivg.tagaini.net"><g p4:part="1" p4:partial><path d="M54.93,51.2c1.06,1.06,1.38,2.29,1.46,3.86C57,68,57.23,73.1,57.73,84.25c0.08,1.79,0.17,3.62,0.28,5.5" stroke-dasharray="38.96" stroke-dashoffset="38.96"><animate attributeName="stroke-dashoffset" values="38.96" fill="freeze" begin="8ef8.click" /><animate id="7" attributeName="stroke-dashoffset" values="38.96;0" dur="0.39s" fill="freeze" begin="6.end" /></path><path d="M56.3,52.07c10.91-1.66,24-3.89,32.95-4.66c4.39-0.38,6.77,0.59,6.42,5.35c-0.49,6.61-1.51,18.16-2.77,28.76c-0.24,1.99-0.49,3.95-0.77,5.83" stroke-dasharray="78.25" stroke-dashoffset="78.25"><animate attributeName="stroke-dashoffset" values="78.25" fill="freeze" begin="8ef8.click" /><animate id="8" attributeName="stroke-dashoffset" values="78.25;0" dur="0.59s" fill="freeze" begin="7.end" /></path></g><g><path d="M72.99,20.82c1.26,1.18,2,2.88,2.01,4.43c0.04,15.3-0.02,54.95-0.02,58.94" stroke-dasharray="63.93" stroke-dashoffset="63.93"><animate attributeName="stroke-dashoffset" values="63.93" fill="freeze" begin="8ef8.click" /><animate id="9" attributeName="stroke-dashoffset" values="63.93;0" dur="0.48s" fill="freeze" begin="8.end" /></path></g><g p4:part="2" p4:partial><path d="M58.28,68.27C67.5,66.75,87,64.5,93.34,64.21" stroke-dasharray="35.3" stroke-dashoffset="35.3"><animate attributeName="stroke-dashoffset" values="35.3" fill="freeze" begin="8ef8.click" /><animate id="10" attributeName="stroke-dashoffset" values="35.3;0" dur="0.35s" fill="freeze" begin="9.end" /></path><path d="M58.54,87.03c9.83-0.9,19.83-2.4,32.93-3.15" stroke-dasharray="33.08" stroke-dashoffset="33.08"><animate attributeName="stroke-dashoffset" values="33.08" fill="freeze" begin="8ef8.click" /><animate id="11" attributeName="stroke-dashoffset" values="33.08;0" dur="0.33s" fill="freeze" begin="10.end" /></path></g></g></g></g></svg>