<svg xmlns="http://www.w3.org/2000/svg" width="109" height="109" viewBox="0 0 109 109" id="8ef8"><g fill="none" stroke="#666" stroke-width="6" stroke-linecap="round" stroke-linejoin="round"><g><g><path d="M13.83,30.27c1.92,0.78,4.84,0.73,6.83,0.44c6.21-0.9,15.1-2.25,22.99-3.18c1.67-0.2,3.11-0.27,4.53-0.1" /><path d="M14.31,43.02c0.83,0.83,1.06,1.85,1.3,2.85c0.81,3.42,1.3,9.12,2.35,16.14c0.22,1.46,0.42,2.89,0.59,4.25" /><path d="M15.85,44.6c9.02-1.74,21.63-4.35,28.29-5.05c3.73-0.39,5.31,0.08,4.88,4.07c-0.42,3.79-1.09,9.08-2.28,14.43c-0.26,1.18-0.54,2.37-0.83,3.55" /><path d="M18.24,54.28C28,52.75,36,51.25,47.11,50.28" /><path d="M19.6,64.71c7.77-1.58,14.76-2.85,25.05-3.97" /><path d="M9.53,78.33c2.22,0.3,4.28,0.37,6.47,0.01c10.92-1.79,21.48-3.25,30.5-4.02c1.49-0.13,3.01-0.25,4.48,0.17" /><path d="M31.55,15.88c0.84,0.84,1.23,2.24,1.23,3.9c0,0.96,0.01,48.71,0.01,69.21c0,3.78-0.03,6.5-0.05,7.63" /></g><g p4:phon="由" xmlns:p4="http://kanjivg.tagaini.net"><g p4:partial><path d="M54.93,51.2c1.06,1.06,1.38,2.29,1.46,3.86C57,68,57.23,73.1,57.73,84.25c0.08,1.79,0.17,3.62,0.28,5.5" /><path d="M56.3,52.07c10.91-1.66,24-3.89,32.95-4.66c4.39-0.38,6.77,0.59,6.42,5.35c-0.49,6.61-1.51,18.16-2.77,28.76c-0.24,1.99-0.49,3.95-0.77,5.83" /></g><g><path d="M72.99,20.82c1.26,1.18,2,2.88,2.01,4.43c0.04,15.3-0.02,54.95-0.02,58.94" /></g><g p4:partial><path d="M58.28,68.27C67.5,66.75,87,64.5,93.34,64.21" /><path d="M58.54,87.03c9.83-0.9,19.83-2.4,32.93-3.15" /></g></g></g></g><g fill="none" stroke="#000" stroke-width="3" stroke-linecap="round" stroke-linejoin="round"><path d="M13.83,30.27c1.92,0.78,4.84,0.73,6.83,0.44c6.21-0.9,15.1-2.25,22.99-3.18c1.67-0.2,3.11-0.27,4.53-0.1" stroke-dasharray="34.665" stroke-dashoffset="34.665"><animate attributeName="stroke-dashoffset" values="34.665;34.665;0" dur="0.347s" fill="freeze" begin="0s;8ef8.click" /></path><path d="M14.31,43.02c0.83,0.83,1.06,1.85,1.3,2.85c0.81,3.42,1.3,9.12,2.35,16.14c0.22,1.46,0.42,2.89,0.59,4.25" stroke-dasharray="23.785" stroke-dashoffset="23.785"><animate attributeName="stroke-dashoffset" values="23.785" fill="freeze" begin="8ef8.click" /><animate attributeName="stroke-dashoffset" values="23.785;23.785;0" keyTimes="0;0.593;1" dur="0.585s" fill="freeze" begin="0s;8ef8.click" /></path><path d="M15.85,44.6c9.02-1.74,21.63-4.35,28.29-5.05c3.73-0.39,5.31,0.08,4.88,4.07c-0.42,3.79-1.09,9.08-2.28,14.43c-0.26,1.18-0.54,2.37-0.83,3.55" stroke-dasharray="55.066" stroke-dashoffset="55.066"><animate attributeName="stroke-dashoffset" values="55.066" fill="freeze" begin="8ef8.click" /><animate attributeName="stroke-dashoffset" values="55.066;55.066;0" keyTimes="0;0.515;1" dur="1.136s" fill="freeze" begin="0s;8ef8.click" /></path><path d="M18.24,54.28C28,52.75,36,51.25,47.11,50.28" stroke-dasharray="29.155" stroke-dashoffset="29.155"><animate attributeName="stroke-dashoffset" values="29.155" fill="freeze" begin="8ef8.click" /><animate attributeName="stroke-dashoffset" values="29.155;29.155;0" keyTimes="0;0.796;1" dur="1.428s" fill="freeze" begin="0s;8ef8.click" /></path><path d="M19.6,64.71c7.77-1.58,14.76-2.85,25.05-3.97" stroke-dasharray="25.374" stroke-dashoffset="25.374"><animate attributeName="stroke-dashoffset" values="25.374" fill="freeze" begin="8ef8.click" /><animate attributeName="stroke-dashoffset" values="25.374;25.374;0" keyTimes="0;0.849;1" dur="1.682s" fill="freeze" begin="0s;8ef8.click" /></path><path d="M9.53,78.33c2.22,0.3,4.28,0.37,6.47,0.01c10.92-1.79,21.48-3.25,30.5-4.02c1.49-0.13,3.01-0.25,4.48,0.17" stroke-dasharray="41.777" stroke-dashoffset="41.777"><animate attributeName="stroke-dashoffset" values="41.777" fill="freeze" begin="8ef8.click" /><animate attributeName="stroke-dashoffset" values="41.777;41.777;0" keyTimes="0;0.801;1" dur="2.1s" fill="freeze" begin="0s;8ef8.click" /></path><path d="M31.55,15.88c0.84,0.84,1.23,2.24,1.23,3.9c0,0.96,0.01,48.71,0.01,69.21c0,3.78-0.03,6.5-0.05,7.63" stroke-dasharray="81.033" stroke-dashoffset="81.033"><animate attributeName="stroke-dashoffset" values="81.033" fill="freeze" begin="8ef8.click" /><animate attributeName="stroke-dashoffset" values="81.033;81.033;0" keyTimes="0;0.775;1" dur="2.709s" fill="freeze" begin="0s;8ef8.click" /></path><path d="M54.93,51.2c1.06,1.06,1.38,2.29,1.46,3.86C57,68,57.23,73.1,57.73,84.25c0.08,1.79,0.17,3.62,0.28,5.5" stroke-dasharray="38.963" stroke-dashoffset="38.963"><animate attributeName="stroke-dashoffset" values="38.963" fill="freeze" begin="8ef8.click" /><animate attributeName="stroke-dashoffset" values="38.963;38.963;0" keyTimes="0;0.874;1" dur="3.099s" fill="freeze" begin="0s;8ef8.click" /></path><path d="M56.3,52.07c10.91-1.66,24-3.89,32.95-4.66c4.39-0.38,6.77,0.59,6.42,5.35c-0.49,6.61-1.51,18.16-2.77,28.76c-0.24,1.99-0.49,3.95-0.77,5.83" stroke-dasharray="78.247" stroke-dashoffset="78.247"><animate attributeName="stroke-dashoffset" values="78.247" fill="freeze" begin="8ef8.click" /><animate attributeName="stroke-dashoffset" values="78.247;78.247;0" keyTimes="0;0.841;1" dur="3.687s" fill="freeze" begin="0s;8ef8.click" /></path><path d="M72.99,20.82c1.26,1.18,2,2.88,2.01,4.43c0.04,15.3-0.02,54.95-0.02,58.94" stroke-dasharray="63.935" stroke-dashoffset="63.935"><animate attributeName="stroke-dashoffset" values="63.935" fill="freeze" begin="8ef8.click" /><animate attributeName="stroke-dashoffset" values="63.935;63.935;0" keyTimes="0;0.885;1" dur="4.168s" fill="freeze" begin="0s;8ef8.click" /></path><path d="M58.28,68.27C67.5,66.75,87,64.5,93.34,64.21" stroke-dasharray="35.305" stroke-dashoffset="35.305"><animate attributeName="stroke-dashoffset" values="35.305" fill="freeze" begin="8ef8.click" /><animate attributeName="stroke-dashoffset" values="35.305;35.305;0" keyTimes="0;0.922;1" dur="4.521s" fill="freeze" begin="0s;8ef8.click" /></path><path d="M58.54,87.03c9.83-0.9,19.83-2.4,32.93-3.15" stroke-dasharray="33.085" stroke-dashoffset="33.085"><animate attributeName="stroke-dashoffset" values="33.085" fill="freeze" begin="8ef8.click" /><animate attributeName="stroke-dashoffset" values="33.085;33.085;0" keyTimes="0;0.932;1" dur="4.852s" fill="freeze" begin="0s;8ef8.click" /></path></g></svg>