<svg xmlns="http://www.w3.org/2000/svg" width="109" height="109" viewBox="0 0 109 109" id="8efd"><g fill="none" stroke="#666" stroke-width="9" stroke-linecap="round" stroke-linejoin="round"><g><g><path d="M13.25,28.56c1.77,0.56,3.81,0.35,5.62,0.22c8.22-0.6,15-2.04,22.52-2.88c1.77-0.2,3.59-0.42,5.36-0.09" /><path d="M13,39.69c0.9,0.9,1.5,1.81,1.67,2.89c0.56,3.52,1.82,10.42,2.76,17.28c0.21,1.56,0.41,3.12,0.58,4.64" /><path d="M15.09,42.08c8.16-1.33,22.1-4.21,27.05-4.34c2.05-0.06,3.22,1.43,3.13,2.79c-0.25,3.83-1.28,10.12-2.84,16.39c-0.34,1.36-0.7,2.71-1.08,4.04" /><path d="M17.55,52.12c7.58-1.5,17.95-3.12,25.28-3.62" /><path d="M18.8,62.4c6.36-0.9,13.95-2.4,21.8-3.09" /><path d="M10,75.99c1.5,0.51,4.17,0.53,5.64,0.34c10.61-1.39,18.48-2.46,26.36-3.36c2.43-0.28,4.27-0.1,5.5,0.19" /><path d="M28.56,11.63c1.4,1.4,1.76,3.49,1.76,5.91c0,1.07-0.08,55.34-0.2,72.71c-0.02,2.19-0.03,3.79-0.05,4.63" /></g><g p4:phon="圣" xmlns:p4="http://kanjivg.tagaini.net"><g><path d="M55.73,23.74c1.28,0.28,2.44,0.45,4.99,0.03c2.56-0.42,16.43-3.25,18.18-3.71c2.6-0.68,3.72,0.94,2.65,3.31C73.43,41.22,62.62,53.75,47.91,61.1" /><path d="M56,32.12c3.38,0.66,18.3,16.24,30.49,24.56c2.29,1.57,4.76,3.31,7.51,3.92" /></g><g><path d="M53.36,71.83c1.13,0.28,3.19,0.38,4.31,0.28c8.32-0.74,17.2-1.86,25.02-2.39c1.87-0.13,3,0.13,3.94,0.28" /><path d="M68.63,56.87c1.07,1.07,1.52,2.01,1.52,3.66c0,7.68-0.06,19.48-0.06,27.23" /><path d="M46.22,89.75c1.63,0.58,4.62,0.72,6.24,0.58c14.75-1.28,20.03-1.94,36.25-2.36c2.71-0.07,4.34,0.28,5.7,0.57" /></g></g></g></g><g fill="none" stroke="#000" stroke-width="5" stroke-linecap="round" stroke-linejoin="round"><g><g><path d="M13.25,28.56c1.77,0.56,3.81,0.35,5.62,0.22c8.22-0.6,15-2.04,22.52-2.88c1.77-0.2,3.59-0.42,5.36-0.09" stroke-dasharray="33.75" stroke-dashoffset="33.75"><animate id="0" attributeName="stroke-dashoffset" values="33.75;0" dur="0.34s" fill="freeze" begin="0s;8efd.click" /></path><path d="M13,39.69c0.9,0.9,1.5,1.81,1.67,2.89c0.56,3.52,1.82,10.42,2.76,17.28c0.21,1.56,0.41,3.12,0.58,4.64" stroke-dasharray="25.57" stroke-dashoffset="25.57"><animate attributeName="stroke-dashoffset" values="25.57" fill="freeze" begin="8efd.click" /><animate id="1" attributeName="stroke-dashoffset" values="25.57;0" dur="0.26s" fill="freeze" begin="0.end" /></path><path d="M15.09,42.08c8.16-1.33,22.1-4.21,27.05-4.34c2.05-0.06,3.22,1.43,3.13,2.79c-0.25,3.83-1.28,10.12-2.84,16.39c-0.34,1.36-0.7,2.71-1.08,4.04" stroke-dasharray="52.97" stroke-dashoffset="52.97"><animate attributeName="stroke-dashoffset" values="52.97" fill="freeze" begin="8efd.click" /><animate id="2" attributeName="stroke-dashoffset" values="52.97;0" dur="0.53s" fill="freeze" begin="1.end" /></path><path d="M17.55,52.12c7.58-1.5,17.95-3.12,25.28-3.62" stroke-dasharray="25.55" stroke-dashoffset="25.55"><animate attributeName="stroke-dashoffset" values="25.55" fill="freeze" begin="8efd.click" /><animate id="3" attributeName="stroke-dashoffset" values="25.55;0" dur="0.26s" fill="freeze" begin="2.end" /></path><path d="M18.8,62.4c6.36-0.9,13.95-2.4,21.8-3.09" stroke-dasharray="22.02" stroke-dashoffset="22.02"><animate attributeName="stroke-dashoffset" values="22.02" fill="freeze" begin="8efd.click" /><animate id="4" attributeName="stroke-dashoffset" values="22.02;0" dur="0.22s" fill="freeze" begin="3.end" /></path><path d="M10,75.99c1.5,0.51,4.17,0.53,5.64,0.34c10.61-1.39,18.48-2.46,26.36-3.36c2.43-0.28,4.27-0.1,5.5,0.19" stroke-dasharray="37.79" stroke-dashoffset="37.79"><animate attributeName="stroke-dashoffset" values="37.79" fill="freeze" begin="8efd.click" /><animate id="5" attributeName="stroke-dashoffset" values="37.79;0" dur="0.38s" fill="freeze" begin="4.end" /></path><path d="M28.56,11.63c1.4,1.4,1.76,3.49,1.76,5.91c0,1.07-0.08,55.34-0.2,72.71c-0.02,2.19-0.03,3.79-0.05,4.63" stroke-dasharray="83.67" stroke-dashoffset="83.67"><animate attributeName="stroke-dashoffset" values="83.67" fill="freeze" begin="8efd.click" /><animate id="6" attributeName="stroke-dashoffset" values="83.67;0" dur="0.63s" fill="freeze" begin="5.end" /></path></g><g p4:phon="圣" xmlns:p4="http://kanjivg.tagaini.net"><g><path d="M55.73,23.74c1.28,0.28,2.44,0.45,4.99,0.03c2.56-0.42,16.43-3.25,18.18-3.71c2.6-0.68,3.72,0.94,2.65,3.31C73.43,41.22,62.62,53.75,47.91,61.1" stroke-dasharray="81.02" stroke-dashoffset="81.02"><animate attributeName="stroke-dashoffset" values="81.02" fill="freeze" begin="8efd.click" /><animate id="7" attributeName="stroke-dashoffset" values="81.02;0" dur="0.61s" fill="freeze" begin="6.end" /></path><path d="M56,32.12c3.38,0.66,18.3,16.24,30.49,24.56c2.29,1.57,4.76,3.31,7.51,3.92" stroke-dasharray="47.76" stroke-dashoffset="47.76"><animate attributeName="stroke-dashoffset" values="47.76" fill="freeze" begin="8efd.click" /><animate id="8" attributeName="stroke-dashoffset" values="47.76;0" dur="0.48s" fill="freeze" begin="7.end" /></path></g><g><path d="M53.36,71.83c1.13,0.28,3.19,0.38,4.31,0.28c8.32-0.74,17.2-1.86,25.02-2.39c1.87-0.13,3,0.13,3.94,0.28" stroke-dasharray="33.43" stroke-dashoffset="33.43"><animate attributeName="stroke-dashoffset" values="33.43" fill="freeze" begin="8efd.click" /><animate id="9" attributeName="stroke-dashoffset" values="33.43;0" dur="0.33s" fill="freeze" begin="8.end" /></path><path d="M68.63,56.87c1.07,1.07,1.52,2.01,1.52,3.66c0,7.68-0.06,19.48-0.06,27.23" stroke-dasharray="31.32" stroke-dashoffset="31.32"><animate attributeName="stroke-dashoffset" values="31.32" fill="freeze" begin="8efd.click" /><animate id="10" attributeName="stroke-dashoffset" values="31.32;0" dur="0.31s" fill="freeze" begin="9.end" /></path><path d="M46.22,89.75c1.63,0.58,4.62,0.72,6.24,0.58c14.75-1.28,20.03-1.94,36.25-2.36c2.71-0.07,4.34,0.28,5.7,0.57" stroke-dasharray="48.38" stroke-dashoffset="48.38"><animate attributeName="stroke-dashoffset" values="48.38" fill="freeze" begin="8efd.click" /><animate id="11" attributeName="stroke-dashoffset" values="48.38;0" dur="0.48s" fill="freeze" begin="10.end" /></path></g></g></g></g></svg>