<svg xmlns="http://www.w3.org/2000/svg" width="109" height="109" viewBox="0 0 109 109" id="8f09"><g fill="none" stroke="#666" stroke-width="9" stroke-linecap="round" stroke-linejoin="round"><g><g p4:phon="土戈1" xmlns:p4="http://kanjivg.tagaini.net"><g><path d="M23.88,26.13c1.79,0.48,3.81,0.28,5.63,0.13c6.53-0.53,14.56-1.92,20.43-2.45c1.62-0.14,2.87-0.12,3.68,0.01" /><path d="M38.17,13.37c0.12,0.29,1.77,1.52,1.77,3.39c0,6,0.06,14.51,0.06,18.87" /></g><g p4:part="1"><g p4:part="1"><path d="M16.13,37.98c3.87,0.77,7.3,0.45,10.49,0.07c18.04-2.15,39.72-4.73,55.39-5.72c3.59-0.23,7.08-0.51,10.62,0.24" /></g></g></g><g><path d="M23.81,47.91c1.82,0.47,3.78,0.45,5.32,0.21c5.75-0.87,12.25-1.87,20.27-3.11c1.14-0.18,2.65-0.43,3.8-0.13" /><path d="M23.06,56.12c0.72,0.72,0.98,1.25,1.19,2.16c1,4.34,1.54,8.28,2.38,14.49c0.17,1.22,0.33,2.42,0.48,3.54" /><path d="M25.67,56.98c6.68-0.84,18.23-2.52,24.59-3.07c3.44-0.29,5.4-0.41,5.05,3.47c-0.29,3.21-0.82,7.83-1.73,12.37c-0.25,1.24-0.53,2.48-0.84,3.68" /><path d="M26.66,65.46C36.5,64.25,45,63,53.49,62.41" /><path d="M28.16,74.68c6.45-0.75,14.47-1.93,23.59-2.49" /><path d="M16.16,84.57c1.96,0.56,5.12,0.32,6.83,0.02c8.38-1.46,19.01-2.73,27.63-3.36c2.18-0.16,4.13-0.36,6.47,0.09" /><path d="M38.17,40.38c1.04,1.04,1.42,2.62,1.42,4.02c0,0.66-0.03,31.97-0.03,46.47c0,2.92-0.04,5.03-0.06,5.88" /></g><g p4:part="2" p4:phon="土戈2" xmlns:p4="http://kanjivg.tagaini.net"><g p4:part="2"><path d="M61.25,12.75c1.56,1.56,1.9,3.27,2.18,7.09c2.17,29.62,10.03,61.66,23.98,73.89c4.71,4.13,4.22,0.76,3.59-7.11" /></g><g><path d="M83.22,46.64c0.09,1.04-0.21,2.45-0.67,3.92C79.58,60,69.89,79.17,53.31,90.97" /></g><g p4:part="3"><g><path d="M74.75,14.75c3.02,2,7.34,6.82,8.75,10.25" /></g></g></g></g></g><g fill="none" stroke="#000" stroke-width="5" stroke-linecap="round" stroke-linejoin="round"><g><g p4:phon="土戈1" xmlns:p4="http://kanjivg.tagaini.net"><g><path d="M23.88,26.13c1.79,0.48,3.81,0.28,5.63,0.13c6.53-0.53,14.56-1.92,20.43-2.45c1.62-0.14,2.87-0.12,3.68,0.01" stroke-dasharray="29.93" stroke-dashoffset="29.93"><animate id="0" attributeName="stroke-dashoffset" values="29.93;0" dur="0.3s" fill="freeze" begin="0s;8f09.click" /></path><path d="M38.17,13.37c0.12,0.29,1.77,1.52,1.77,3.39c0,6,0.06,14.51,0.06,18.87" stroke-dasharray="22.79" stroke-dashoffset="22.79"><animate attributeName="stroke-dashoffset" values="22.79" fill="freeze" begin="8f09.click" /><animate id="1" attributeName="stroke-dashoffset" values="22.79;0" dur="0.23s" fill="freeze" begin="0.end" /></path></g><g p4:part="1"><g p4:part="1"><path d="M16.13,37.98c3.87,0.77,7.3,0.45,10.49,0.07c18.04-2.15,39.72-4.73,55.39-5.72c3.59-0.23,7.08-0.51,10.62,0.24" stroke-dasharray="76.89" stroke-dashoffset="76.89"><animate attributeName="stroke-dashoffset" values="76.89" fill="freeze" begin="8f09.click" /><animate id="2" attributeName="stroke-dashoffset" values="76.89;0" dur="0.58s" fill="freeze" begin="1.end" /></path></g></g></g><g><path d="M23.81,47.91c1.82,0.47,3.78,0.45,5.32,0.21c5.75-0.87,12.25-1.87,20.27-3.11c1.14-0.18,2.65-0.43,3.8-0.13" stroke-dasharray="29.69" stroke-dashoffset="29.69"><animate attributeName="stroke-dashoffset" values="29.69" fill="freeze" begin="8f09.click" /><animate id="3" attributeName="stroke-dashoffset" values="29.69;0" dur="0.3s" fill="freeze" begin="2.end" /></path><path d="M23.06,56.12c0.72,0.72,0.98,1.25,1.19,2.16c1,4.34,1.54,8.28,2.38,14.49c0.17,1.22,0.33,2.42,0.48,3.54" stroke-dasharray="20.77" stroke-dashoffset="20.77"><animate attributeName="stroke-dashoffset" values="20.77" fill="freeze" begin="8f09.click" /><animate id="4" attributeName="stroke-dashoffset" values="20.77;0" dur="0.21s" fill="freeze" begin="3.end" /></path><path d="M25.67,56.98c6.68-0.84,18.23-2.52,24.59-3.07c3.44-0.29,5.4-0.41,5.05,3.47c-0.29,3.21-0.82,7.83-1.73,12.37c-0.25,1.24-0.53,2.48-0.84,3.68" stroke-dasharray="48.76" stroke-dashoffset="48.76"><animate attributeName="stroke-dashoffset" values="48.76" fill="freeze" begin="8f09.click" /><animate id="5" attributeName="stroke-dashoffset" values="48.76;0" dur="0.49s" fill="freeze" begin="4.end" /></path><path d="M26.66,65.46C36.5,64.25,45,63,53.49,62.41" stroke-dasharray="27.01" stroke-dashoffset="27.01"><animate attributeName="stroke-dashoffset" values="27.01" fill="freeze" begin="8f09.click" /><animate id="6" attributeName="stroke-dashoffset" values="27.01;0" dur="0.27s" fill="freeze" begin="5.end" /></path><path d="M28.16,74.68c6.45-0.75,14.47-1.93,23.59-2.49" stroke-dasharray="23.73" stroke-dashoffset="23.73"><animate attributeName="stroke-dashoffset" values="23.73" fill="freeze" begin="8f09.click" /><animate id="7" attributeName="stroke-dashoffset" values="23.73;0" dur="0.24s" fill="freeze" begin="6.end" /></path><path d="M16.16,84.57c1.96,0.56,5.12,0.32,6.83,0.02c8.38-1.46,19.01-2.73,27.63-3.36c2.18-0.16,4.13-0.36,6.47,0.09" stroke-dasharray="41.21" stroke-dashoffset="41.21"><animate attributeName="stroke-dashoffset" values="41.21" fill="freeze" begin="8f09.click" /><animate id="8" attributeName="stroke-dashoffset" values="41.21;0" dur="0.41s" fill="freeze" begin="7.end" /></path><path d="M38.17,40.38c1.04,1.04,1.42,2.62,1.42,4.02c0,0.66-0.03,31.97-0.03,46.47c0,2.92-0.04,5.03-0.06,5.88" stroke-dasharray="56.72" stroke-dashoffset="56.72"><animate attributeName="stroke-dashoffset" values="56.72" fill="freeze" begin="8f09.click" /><animate id="9" attributeName="stroke-dashoffset" values="56.72;0" dur="0.57s" fill="freeze" begin="8.end" /></path></g><g p4:part="2" p4:phon="土戈2" xmlns:p4="http://kanjivg.tagaini.net"><g p4:part="2"><path d="M61.25,12.75c1.56,1.56,1.9,3.27,2.18,7.09c2.17,29.62,10.03,61.66,23.98,73.89c4.71,4.13,4.22,0.76,3.59-7.11" stroke-dasharray="99.65" stroke-dashoffset="99.65"><animate attributeName="stroke-dashoffset" values="99.65" fill="freeze" begin="8f09.click" /><animate id="10" attributeName="stroke-dashoffset" values="99.65;0" dur="0.75s" fill="freeze" begin="9.end" /></path></g><g><path d="M83.22,46.64c0.09,1.04-0.21,2.45-0.67,3.92C79.58,60,69.89,79.17,53.31,90.97" stroke-dasharray="54.64" stroke-dashoffset="54.64"><animate attributeName="stroke-dashoffset" values="54.64" fill="freeze" begin="8f09.click" /><animate id="11" attributeName="stroke-dashoffset" values="54.64;0" dur="0.55s" fill="freeze" begin="10.end" /></path></g><g p4:part="3"><g><path d="M74.75,14.75c3.02,2,7.34,6.82,8.75,10.25" stroke-dasharray="13.62" stroke-dashoffset="13.62"><animate attributeName="stroke-dashoffset" values="13.62" fill="freeze" begin="8f09.click" /><animate id="12" attributeName="stroke-dashoffset" values="13.62;0" dur="0.14s" fill="freeze" begin="11.end" /></path></g></g></g></g></g></svg>