<svg xmlns="http://www.w3.org/2000/svg" width="109" height="109" viewBox="0 0 109 109" id="8f0a"><g fill="none" stroke="#666" stroke-width="9" stroke-linecap="round" stroke-linejoin="round"><g><g><path d="M10.25,26c1.03,0.38,2.93,0.45,3.96,0.38C23.75,25.75,33.25,26,41.89,25c1.71-0.2,2.75,0.18,3.61,0.37" /><path d="M11.75,38.15c0.48,0.46,1.08,0.81,1.17,1.41c0.65,4.38,1.93,15.15,2.84,23.44" /><path d="M13.09,39.74c7.26-0.84,23.6-2.38,28.55-2.51c2.05-0.05,2.47,1.15,2.38,2.47c-0.3,4.53-1.52,12.35-3.17,21.31" /><path d="M14.8,50.24c7.45-0.61,20.2-1.81,27.53-2.29" /><path d="M15.8,61.2c6.36-0.87,16.7-1.36,24.55-2.04" /><path d="M9.5,75.04c1.47,0.77,4.15,0.93,5.64,0.77C25,74.75,33.15,74,41,73.25c2.44-0.23,4.27-0.13,5.5,0.25" /><path d="M25.56,12.13c0.76,0.6,2.51,2.87,2.51,5.66c0,1.2-0.1,72.63-0.25,80.09" /></g><g><path d="M50.75,20.16c1.24,0.4,3.5,0.5,4.74,0.4c6.76-0.55,25.01-1.3,33.5-1.76c2.06-0.11,3.3,0.19,4.33,0.39" /><g><path d="M68.71,22.65c0.46,0.55,0.63,2.29,0.28,2.94c-4.07,7.47-7.87,11.78-13.49,18.98c-1.81,2.32-1.97,3.74,0.97,3.2c8.28-1.52,18.28-2.77,32.39-5.51" /><path d="M79.56,32.66c4.7,2.8,12.13,11.5,13.3,15.85" /></g><g><path d="M52.71,70.4c1.09,0.33,3.1,0.4,4.19,0.33c11.25-0.8,21.38-2.18,31.62-2.18c1.82,0,2.91,0.15,3.82,0.32" /><path d="M69.14,51.56c0.14,0.38,2.14,1.97,2.1,4.38C71,69.7,70.89,88.84,70.89,92.78" /><path d="M43.38,94.83c1.36,0.46,3.88,0.59,5.23,0.46c10.89-1.04,33.14-2.79,45.24-2.89c2.27-0.02,3.64,0.22,4.78,0.45" /></g></g></g></g><g fill="none" stroke="#000" stroke-width="5" stroke-linecap="round" stroke-linejoin="round"><g><g><path d="M10.25,26c1.03,0.38,2.93,0.45,3.96,0.38C23.75,25.75,33.25,26,41.89,25c1.71-0.2,2.75,0.18,3.61,0.37" stroke-dasharray="35.38" stroke-dashoffset="35.38"><animate id="0" attributeName="stroke-dashoffset" values="35.38;0" dur="0.35s" fill="freeze" begin="0s;8f0a.click" /></path><path d="M11.75,38.15c0.48,0.46,1.08,0.81,1.17,1.41c0.65,4.38,1.93,15.15,2.84,23.44" stroke-dasharray="25.48" stroke-dashoffset="25.48"><animate attributeName="stroke-dashoffset" values="25.48" fill="freeze" begin="8f0a.click" /><animate id="1" attributeName="stroke-dashoffset" values="25.48;0" dur="0.25s" fill="freeze" begin="0.end" /></path><path d="M13.09,39.74c7.26-0.84,23.6-2.38,28.55-2.51c2.05-0.05,2.47,1.15,2.38,2.47c-0.3,4.53-1.52,12.35-3.17,21.31" stroke-dasharray="54.25" stroke-dashoffset="54.25"><animate attributeName="stroke-dashoffset" values="54.25" fill="freeze" begin="8f0a.click" /><animate id="2" attributeName="stroke-dashoffset" values="54.25;0" dur="0.54s" fill="freeze" begin="1.end" /></path><path d="M14.8,50.24c7.45-0.61,20.2-1.81,27.53-2.29" stroke-dasharray="27.63" stroke-dashoffset="27.63"><animate attributeName="stroke-dashoffset" values="27.63" fill="freeze" begin="8f0a.click" /><animate id="3" attributeName="stroke-dashoffset" values="27.63;0" dur="0.28s" fill="freeze" begin="2.end" /></path><path d="M15.8,61.2c6.36-0.87,16.7-1.36,24.55-2.04" stroke-dasharray="24.64" stroke-dashoffset="24.64"><animate attributeName="stroke-dashoffset" values="24.64" fill="freeze" begin="8f0a.click" /><animate id="4" attributeName="stroke-dashoffset" values="24.64;0" dur="0.25s" fill="freeze" begin="3.end" /></path><path d="M9.5,75.04c1.47,0.77,4.15,0.93,5.64,0.77C25,74.75,33.15,74,41,73.25c2.44-0.23,4.27-0.13,5.5,0.25" stroke-dasharray="37.28" stroke-dashoffset="37.28"><animate attributeName="stroke-dashoffset" values="37.28" fill="freeze" begin="8f0a.click" /><animate id="5" attributeName="stroke-dashoffset" values="37.28;0" dur="0.37s" fill="freeze" begin="4.end" /></path><path d="M25.56,12.13c0.76,0.6,2.51,2.87,2.51,5.66c0,1.2-0.1,72.63-0.25,80.09" stroke-dasharray="86.45" stroke-dashoffset="86.45"><animate attributeName="stroke-dashoffset" values="86.45" fill="freeze" begin="8f0a.click" /><animate id="6" attributeName="stroke-dashoffset" values="86.45;0" dur="0.65s" fill="freeze" begin="5.end" /></path></g><g><path d="M50.75,20.16c1.24,0.4,3.5,0.5,4.74,0.4c6.76-0.55,25.01-1.3,33.5-1.76c2.06-0.11,3.3,0.19,4.33,0.39" stroke-dasharray="42.69" stroke-dashoffset="42.69"><animate attributeName="stroke-dashoffset" values="42.69" fill="freeze" begin="8f0a.click" /><animate id="7" attributeName="stroke-dashoffset" values="42.69;0" dur="0.43s" fill="freeze" begin="6.end" /></path><g><path d="M68.71,22.65c0.46,0.55,0.63,2.29,0.28,2.94c-4.07,7.47-7.87,11.78-13.49,18.98c-1.81,2.32-1.97,3.74,0.97,3.2c8.28-1.52,18.28-2.77,32.39-5.51" stroke-dasharray="64.83" stroke-dashoffset="64.83"><animate attributeName="stroke-dashoffset" values="64.83" fill="freeze" begin="8f0a.click" /><animate id="8" attributeName="stroke-dashoffset" values="64.83;0" dur="0.49s" fill="freeze" begin="7.end" /></path><path d="M79.56,32.66c4.7,2.8,12.13,11.5,13.3,15.85" stroke-dasharray="20.98" stroke-dashoffset="20.98"><animate attributeName="stroke-dashoffset" values="20.98" fill="freeze" begin="8f0a.click" /><animate id="9" attributeName="stroke-dashoffset" values="20.98;0" dur="0.21s" fill="freeze" begin="8.end" /></path></g><g><path d="M52.71,70.4c1.09,0.33,3.1,0.4,4.19,0.33c11.25-0.8,21.38-2.18,31.62-2.18c1.82,0,2.91,0.15,3.82,0.32" stroke-dasharray="39.76" stroke-dashoffset="39.76"><animate attributeName="stroke-dashoffset" values="39.76" fill="freeze" begin="8f0a.click" /><animate id="10" attributeName="stroke-dashoffset" values="39.76;0" dur="0.4s" fill="freeze" begin="9.end" /></path><path d="M69.14,51.56c0.14,0.38,2.14,1.97,2.1,4.38C71,69.7,70.89,88.84,70.89,92.78" stroke-dasharray="41.82" stroke-dashoffset="41.82"><animate attributeName="stroke-dashoffset" values="41.82" fill="freeze" begin="8f0a.click" /><animate id="11" attributeName="stroke-dashoffset" values="41.82;0" dur="0.42s" fill="freeze" begin="10.end" /></path><path d="M43.38,94.83c1.36,0.46,3.88,0.59,5.23,0.46c10.89-1.04,33.14-2.79,45.24-2.89c2.27-0.02,3.64,0.22,4.78,0.45" stroke-dasharray="55.43" stroke-dashoffset="55.43"><animate attributeName="stroke-dashoffset" values="55.43" fill="freeze" begin="8f0a.click" /><animate id="12" attributeName="stroke-dashoffset" values="55.43;0" dur="0.55s" fill="freeze" begin="11.end" /></path></g></g></g></g></svg>