<svg xmlns="http://www.w3.org/2000/svg" width="109" height="109" viewBox="0 0 109 109" id="8f0c"><g fill="none" stroke="#666" stroke-width="9" stroke-linecap="round" stroke-linejoin="round"><g><g><path d="M10.25,27.5c1.03,0.38,2.93,0.95,3.96,0.88C23.75,27.75,26.75,27,35.39,26c1.71-0.2,2.75,0.18,3.61,0.37" /><path d="M12.25,39.84c0.43,0.49,0.98,0.86,1.06,1.5c0.58,4.65,1.7,16.11,2.52,24.91" /><path d="M13.91,41.6c6.57-0.93,17.96-2.72,22.45-2.86c1.86-0.06,2.24,1.27,2.16,2.73c-0.27,5.01-1.02,13.78-2.82,22.43" /><path d="M14.87,52.21c6.75-0.67,16.44-1.59,23.07-2.12" /><path d="M15.87,63.8c5.76-0.96,12.72-1.62,19.83-2.36" /><path d="M9.5,77.01c1.29,0.67,3.64,1.25,4.95,1.17c7.55-0.43,16.35-1.65,23.23-2.31c2.14-0.2,3.75-0.12,4.82,0.22" /><path d="M23.24,12.88c0.65,0.51,2.03,3.85,2.16,4.87c0.13,1.03-0.08,73.71-0.22,80.13" /></g><g><g><path d="M43.46,18.39c1.52,0.36,4.32,0.42,5.85,0.36c8.22-0.33,27.19-2.5,40.25-3.49c2.53-0.19,4.07,0.17,5.34,0.35" /></g><g><path d="M47.27,36.65c0.96,0.85,1.28,2.17,1.28,3.74c0,11.86,0.24,51.56,0.24,54.11" /><path d="M49.1,38.25c5.82-0.78,38.41-3.17,39.58-3.27c2.57-0.23,3.59,1.02,3.59,4.55c0,4.05-0.13,35.22-0.13,46.41C92.14,99,86,91,84.43,89.3" /></g><g><path d="M67.79,17c0.33,0.45,1.03,3.35,1.09,4.25c0.07,0.9,0.96,47.15,0.89,52.75" /><path d="M58.23,50.5c0.51,0.45,1.09,2.35,1.01,3.25c-0.33,4,0.15,11.25-0.6,19.5c-0.38,4.25,0.9,4.14,2.25,3.75c5.27-1.5,12.12-2.75,19.67-3.5" /><path d="M80.47,49.25c0.35,0.45,0.7,3.34,0.7,4.25c0,6.75-0.07,16.25-0.48,23" /></g></g></g></g><g fill="none" stroke="#000" stroke-width="5" stroke-linecap="round" stroke-linejoin="round"><g><g><path d="M10.25,27.5c1.03,0.38,2.93,0.95,3.96,0.88C23.75,27.75,26.75,27,35.39,26c1.71-0.2,2.75,0.18,3.61,0.37" stroke-dasharray="29.05" stroke-dashoffset="29.05"><animate id="0" attributeName="stroke-dashoffset" values="29.05;0" dur="0.29s" fill="freeze" begin="0s;8f0c.click" /></path><path d="M12.25,39.84c0.43,0.49,0.98,0.86,1.06,1.5c0.58,4.65,1.7,16.11,2.52,24.91" stroke-dasharray="26.91" stroke-dashoffset="26.91"><animate attributeName="stroke-dashoffset" values="26.91" fill="freeze" begin="8f0c.click" /><animate id="1" attributeName="stroke-dashoffset" values="26.91;0" dur="0.27s" fill="freeze" begin="0.end" /></path><path d="M13.91,41.6c6.57-0.93,17.96-2.72,22.45-2.86c1.86-0.06,2.24,1.27,2.16,2.73c-0.27,5.01-1.02,13.78-2.82,22.43" stroke-dasharray="49.34" stroke-dashoffset="49.34"><animate attributeName="stroke-dashoffset" values="49.34" fill="freeze" begin="8f0c.click" /><animate id="2" attributeName="stroke-dashoffset" values="49.34;0" dur="0.49s" fill="freeze" begin="1.end" /></path><path d="M14.87,52.21c6.75-0.67,16.44-1.59,23.07-2.12" stroke-dasharray="23.17" stroke-dashoffset="23.17"><animate attributeName="stroke-dashoffset" values="23.17" fill="freeze" begin="8f0c.click" /><animate id="3" attributeName="stroke-dashoffset" values="23.17;0" dur="0.23s" fill="freeze" begin="2.end" /></path><path d="M15.87,63.8c5.76-0.96,12.72-1.62,19.83-2.36" stroke-dasharray="19.97" stroke-dashoffset="19.97"><animate attributeName="stroke-dashoffset" values="19.97" fill="freeze" begin="8f0c.click" /><animate id="4" attributeName="stroke-dashoffset" values="19.97;0" dur="0.2s" fill="freeze" begin="3.end" /></path><path d="M9.5,77.01c1.29,0.67,3.64,1.25,4.95,1.17c7.55-0.43,16.35-1.65,23.23-2.31c2.14-0.2,3.75-0.12,4.82,0.22" stroke-dasharray="33.33" stroke-dashoffset="33.33"><animate attributeName="stroke-dashoffset" values="33.33" fill="freeze" begin="8f0c.click" /><animate id="5" attributeName="stroke-dashoffset" values="33.33;0" dur="0.33s" fill="freeze" begin="4.end" /></path><path d="M23.24,12.88c0.65,0.51,2.03,3.85,2.16,4.87c0.13,1.03-0.08,73.71-0.22,80.13" stroke-dasharray="85.5" stroke-dashoffset="85.5"><animate attributeName="stroke-dashoffset" values="85.5" fill="freeze" begin="8f0c.click" /><animate id="6" attributeName="stroke-dashoffset" values="85.5;0" dur="0.64s" fill="freeze" begin="5.end" /></path></g><g><g><path d="M43.46,18.39c1.52,0.36,4.32,0.42,5.85,0.36c8.22-0.33,27.19-2.5,40.25-3.49c2.53-0.19,4.07,0.17,5.34,0.35" stroke-dasharray="51.64" stroke-dashoffset="51.64"><animate attributeName="stroke-dashoffset" values="51.64" fill="freeze" begin="8f0c.click" /><animate id="7" attributeName="stroke-dashoffset" values="51.64;0" dur="0.52s" fill="freeze" begin="6.end" /></path></g><g><path d="M47.27,36.65c0.96,0.85,1.28,2.17,1.28,3.74c0,11.86,0.24,51.56,0.24,54.11" stroke-dasharray="58.19" stroke-dashoffset="58.19"><animate attributeName="stroke-dashoffset" values="58.19" fill="freeze" begin="8f0c.click" /><animate id="8" attributeName="stroke-dashoffset" values="58.19;0" dur="0.58s" fill="freeze" begin="7.end" /></path><path d="M49.1,38.25c5.82-0.78,38.41-3.17,39.58-3.27c2.57-0.23,3.59,1.02,3.59,4.55c0,4.05-0.13,35.22-0.13,46.41C92.14,99,86,91,84.43,89.3" stroke-dasharray="108.06" stroke-dashoffset="108.06"><animate attributeName="stroke-dashoffset" values="108.06" fill="freeze" begin="8f0c.click" /><animate id="9" attributeName="stroke-dashoffset" values="108.06;0" dur="0.81s" fill="freeze" begin="8.end" /></path></g><g><path d="M67.79,17c0.33,0.45,1.03,3.35,1.09,4.25c0.07,0.9,0.96,47.15,0.89,52.75" stroke-dasharray="57.16" stroke-dashoffset="57.16"><animate attributeName="stroke-dashoffset" values="57.16" fill="freeze" begin="8f0c.click" /><animate id="10" attributeName="stroke-dashoffset" values="57.16;0" dur="0.57s" fill="freeze" begin="9.end" /></path><path d="M58.23,50.5c0.51,0.45,1.09,2.35,1.01,3.25c-0.33,4,0.15,11.25-0.6,19.5c-0.38,4.25,0.9,4.14,2.25,3.75c5.27-1.5,12.12-2.75,19.67-3.5" stroke-dasharray="48.6" stroke-dashoffset="48.6"><animate attributeName="stroke-dashoffset" values="48.6" fill="freeze" begin="8f0c.click" /><animate id="11" attributeName="stroke-dashoffset" values="48.6;0" dur="0.49s" fill="freeze" begin="10.end" /></path><path d="M80.47,49.25c0.35,0.45,0.7,3.34,0.7,4.25c0,6.75-0.07,16.25-0.48,23" stroke-dasharray="27.34" stroke-dashoffset="27.34"><animate attributeName="stroke-dashoffset" values="27.34" fill="freeze" begin="8f0c.click" /><animate id="12" attributeName="stroke-dashoffset" values="27.34;0" dur="0.27s" fill="freeze" begin="11.end" /></path></g></g></g></g></svg>