<svg xmlns="http://www.w3.org/2000/svg" width="109" height="109" viewBox="0 0 109 109" id="8f26"><g fill="none" stroke="#666" stroke-width="9" stroke-linecap="round" stroke-linejoin="round"><g><g><g><path d="M23.1,18.57c0.59,0.17,2.19,0.73,2.78,0.67c4.62-0.49,12.87-1.24,18.48-1.72c0.99-0.09,1.59,0.08,2.08,0.17" /><g><path d="M17.47,29.32c0.91,0.17,2.59,0.7,3.49,0.67c7.54-0.24,18.29-0.99,26.28-2.11c1.5-0.21,2.43,0.08,3.19,0.17" /><path d="M36.19,10c0.35,0.6,0.48,1.15,0.49,2.31C36.76,29.99,29.52,44.37,16.25,49" /><path d="M36.38,32.88c3.38,1.51,7.06,6.23,8.37,8.56" /></g></g><g><path d="M59.6,16.75c0.92,0.16,2.6,0.13,3.52,0.16C67,17,76,16.25,80.76,15.83c1.51-0.13,2.45,0.07,3.21,0.15" /><g><path d="M56.63,27.7c0.97,0.16,3.26,0.66,4.23,0.66c3.89,0,16.89-1.11,25.87-2.39c1.61-0.23,2.59,0.07,3.41,0.15" /><path d="M72.25,7.75c0.25,0.51,0.35,0.98,0.35,1.97c0,18.03-2.85,24.78-13.34,32.78" /><path d="M71.1,26.92c4.85,5.04,13.84,14.02,18.8,16.12c1.67,0.7,1.95,1.2,2.61,1.3" /></g></g></g><g><path d="M28.04,53.65c1.25,0.22,3.55,0.31,4.79,0.22c12.42-0.87,25.53-1.94,43.26-2.52c2.08-0.07,3.33,0.1,4.38,0.21" /><path d="M30.43,61.38c0.63,0.36,1.44,1.72,1.56,2.19c0.86,3.46,1.89,10.91,3.1,17.47" /><path d="M32.87,62.59c9.64-0.64,34.75-2.56,41.33-2.66c2.72-0.04,3.28,0.88,3.16,1.88c-0.4,3.45-1.88,10.09-4.04,15.74" /><path d="M35.15,70.57c7.27-0.17,26.95-2.49,40.64-2.49" /><path d="M35.15,78.54c8.45-0.67,27.68-2.66,38.68-2.66" /><path d="M19.97,87.93c1.59,0.54,4.48,0.67,6.09,0.54c20.34-1.63,38.95-2.75,57.67-3.11c2.65-0.05,4.24,0.26,5.56,0.53" /><path d="M52.66,44.25c0.6,0.4,1.89,3.01,2,3.82c0.12,0.81-0.08,48.65-0.2,53.68" /></g></g></g><g fill="none" stroke="#000" stroke-width="5" stroke-linecap="round" stroke-linejoin="round"><path d="M23.1,18.57c0.59,0.17,2.19,0.73,2.78,0.67c4.62-0.49,12.87-1.24,18.48-1.72c0.99-0.09,1.59,0.08,2.08,0.17" stroke-dasharray="23.528" stroke-dashoffset="23.528"><animate attributeName="stroke-dashoffset" values="23.528;23.528;0" dur="0.235s" fill="freeze" begin="0s;8f26.click" /></path><path d="M17.47,29.32c0.91,0.17,2.59,0.7,3.49,0.67c7.54-0.24,18.29-0.99,26.28-2.11c1.5-0.21,2.43,0.08,3.19,0.17" stroke-dasharray="33.148" stroke-dashoffset="33.148"><animate attributeName="stroke-dashoffset" values="33.148" fill="freeze" begin="8f26.click" /><animate attributeName="stroke-dashoffset" values="33.148;33.148;0" keyTimes="0;0.415;1" dur="0.566s" fill="freeze" begin="0s;8f26.click" /></path><path d="M36.19,10c0.35,0.6,0.48,1.15,0.49,2.31C36.76,29.99,29.52,44.37,16.25,49" stroke-dasharray="47.252" stroke-dashoffset="47.252"><animate attributeName="stroke-dashoffset" values="47.252" fill="freeze" begin="8f26.click" /><animate attributeName="stroke-dashoffset" values="47.252;47.252;0" keyTimes="0;0.545;1" dur="1.039s" fill="freeze" begin="0s;8f26.click" /></path><path d="M36.38,32.88c3.38,1.51,7.06,6.23,8.37,8.56" stroke-dasharray="12.124" stroke-dashoffset="12.124"><animate attributeName="stroke-dashoffset" values="12.124" fill="freeze" begin="8f26.click" /><animate attributeName="stroke-dashoffset" values="12.124;12.124;0" keyTimes="0;0.896;1" dur="1.16s" fill="freeze" begin="0s;8f26.click" /></path><path d="M59.6,16.75c0.92,0.16,2.6,0.13,3.52,0.16C67,17,76,16.25,80.76,15.83c1.51-0.13,2.45,0.07,3.21,0.15" stroke-dasharray="24.428" stroke-dashoffset="24.428"><animate attributeName="stroke-dashoffset" values="24.428" fill="freeze" begin="8f26.click" /><animate attributeName="stroke-dashoffset" values="24.428;24.428;0" keyTimes="0;0.826;1" dur="1.404s" fill="freeze" begin="0s;8f26.click" /></path><path d="M56.63,27.7c0.97,0.16,3.26,0.66,4.23,0.66c3.89,0,16.89-1.11,25.87-2.39c1.61-0.23,2.59,0.07,3.41,0.15" stroke-dasharray="33.706" stroke-dashoffset="33.706"><animate attributeName="stroke-dashoffset" values="33.706" fill="freeze" begin="8f26.click" /><animate attributeName="stroke-dashoffset" values="33.706;33.706;0" keyTimes="0;0.806;1" dur="1.741s" fill="freeze" begin="0s;8f26.click" /></path><path d="M72.25,7.75c0.25,0.51,0.35,0.98,0.35,1.97c0,18.03-2.85,24.78-13.34,32.78" stroke-dasharray="39.184" stroke-dashoffset="39.184"><animate attributeName="stroke-dashoffset" values="39.184" fill="freeze" begin="8f26.click" /><animate attributeName="stroke-dashoffset" values="39.184;39.184;0" keyTimes="0;0.816;1" dur="2.133s" fill="freeze" begin="0s;8f26.click" /></path><path d="M71.1,26.92c4.85,5.04,13.84,14.02,18.8,16.12c1.67,0.7,1.95,1.2,2.61,1.3" stroke-dasharray="27.799" stroke-dashoffset="27.799"><animate attributeName="stroke-dashoffset" values="27.799" fill="freeze" begin="8f26.click" /><animate attributeName="stroke-dashoffset" values="27.799;27.799;0" keyTimes="0;0.885;1" dur="2.411s" fill="freeze" begin="0s;8f26.click" /></path><path d="M28.04,53.65c1.25,0.22,3.55,0.31,4.79,0.22c12.42-0.87,25.53-1.94,43.26-2.52c2.08-0.07,3.33,0.1,4.38,0.21" stroke-dasharray="52.531" stroke-dashoffset="52.531"><animate attributeName="stroke-dashoffset" values="52.531" fill="freeze" begin="8f26.click" /><animate attributeName="stroke-dashoffset" values="52.531;52.531;0" keyTimes="0;0.821;1" dur="2.936s" fill="freeze" begin="0s;8f26.click" /></path><path d="M30.43,61.38c0.63,0.36,1.44,1.72,1.56,2.19c0.86,3.46,1.89,10.91,3.1,17.47" stroke-dasharray="20.474" stroke-dashoffset="20.474"><animate attributeName="stroke-dashoffset" values="20.474" fill="freeze" begin="8f26.click" /><animate attributeName="stroke-dashoffset" values="20.474;20.474;0" keyTimes="0;0.935;1" dur="3.141s" fill="freeze" begin="0s;8f26.click" /></path><path d="M32.87,62.59c9.64-0.64,34.75-2.56,41.33-2.66c2.72-0.04,3.28,0.88,3.16,1.88c-0.4,3.45-1.88,10.09-4.04,15.74" stroke-dasharray="61.949" stroke-dashoffset="61.949"><animate attributeName="stroke-dashoffset" values="61.949" fill="freeze" begin="8f26.click" /><animate attributeName="stroke-dashoffset" values="61.949;61.949;0" keyTimes="0;0.871;1" dur="3.607s" fill="freeze" begin="0s;8f26.click" /></path><path d="M35.15,70.57c7.27-0.17,26.95-2.49,40.64-2.49" stroke-dasharray="40.727" stroke-dashoffset="40.727"><animate attributeName="stroke-dashoffset" values="40.727" fill="freeze" begin="8f26.click" /><animate attributeName="stroke-dashoffset" values="40.727;40.727;0" keyTimes="0;0.899;1" dur="4.014s" fill="freeze" begin="0s;8f26.click" /></path><path d="M35.15,78.54c8.45-0.67,27.68-2.66,38.68-2.66" stroke-dasharray="38.782" stroke-dashoffset="38.782"><animate attributeName="stroke-dashoffset" values="38.782" fill="freeze" begin="8f26.click" /><animate attributeName="stroke-dashoffset" values="38.782;38.782;0" keyTimes="0;0.912;1" dur="4.402s" fill="freeze" begin="0s;8f26.click" /></path><path d="M19.97,87.93c1.59,0.54,4.48,0.67,6.09,0.54c20.34-1.63,38.95-2.75,57.67-3.11c2.65-0.05,4.24,0.26,5.56,0.53" stroke-dasharray="69.507" stroke-dashoffset="69.507"><animate attributeName="stroke-dashoffset" values="69.507" fill="freeze" begin="8f26.click" /><animate attributeName="stroke-dashoffset" values="69.507;69.507;0" keyTimes="0;0.894;1" dur="4.925s" fill="freeze" begin="0s;8f26.click" /></path><path d="M52.66,44.25c0.6,0.4,1.89,3.01,2,3.82c0.12,0.81-0.08,48.65-0.2,53.68" stroke-dasharray="58.04" stroke-dashoffset="58.04"><animate attributeName="stroke-dashoffset" values="58.04" fill="freeze" begin="8f26.click" /><animate attributeName="stroke-dashoffset" values="58.04;58.04;0" keyTimes="0;0.895;1" dur="5.505s" fill="freeze" begin="0s;8f26.click" /></path></g></svg>