<svg xmlns="http://www.w3.org/2000/svg" width="109" height="109" viewBox="0 0 109 109" id="8f3b"><g fill="none" stroke="#666" stroke-width="9" stroke-linecap="round" stroke-linejoin="round"><g><g><path d="M10.25,27.84c1.14,0.19,3.73,0.73,4.87,0.69c10.55-0.32,18.34-1.19,27.88-1.69c1.89-0.1,3.04,0.09,3.99,0.19" /><path d="M11.75,40.19c0.48,0.45,1.08,0.8,1.17,1.39c0.65,4.32,2.43,14.98,3.34,23.16" /><path d="M13.59,42.33c8.11-0.87,24.24-2.96,29.77-3.09c2.29-0.06,2.76,1.18,2.66,2.54c-0.34,4.66-0.77,12.22-2.1,20.43" /><path d="M15.12,53.12c8.32-0.62,20.89-2.87,29.07-3.37" /><path d="M16.62,62.9c7.1-0.9,18.54-2.4,27.3-3.09" /><path d="M11,76.54c1.47,0.77,4.15,0.92,5.64,0.77C24.5,76.5,35.15,75,43,74.25c2.44-0.23,4.27-0.13,5.5,0.25" /><path d="M26.75,13.63c0.65,0.51,2.14,2.87,2.14,4.82c0,1.02-0.08,73.08-0.21,79.43" /></g><g><g><path d="M53.25,19.89c0.94,0.38,2.66,0.49,3.6,0.38C66,19.25,79.5,18.5,86.46,18.39c1.56-0.03,2.5,0.18,3.29,0.37" /></g><g><path d="M54.53,34.12c0.33,0.31,0.68,0.57,0.82,0.96c1.16,3.09,2.54,12.1,3.33,17.64" /><path d="M56.61,35.18c7.39-0.68,26.6-2.49,30.82-2.93c1.54-0.16,2.47,1.61,2.25,2.55c-0.91,3.89-2.46,8.73-4.42,14.33" /><path d="M59.02,51.68c4.95-0.49,22.5-1.57,28.78-2.07" /></g><g><path d="M51.61,64.03c0.29,0.59,0.8,1.99,0.95,2.72c1.29,6,2.46,18.96,3.22,30" /><path d="M52.98,65.92c13.43-1.94,31.36-3.11,39.03-3.7c2.82-0.21,4.25,1.52,4.1,3.13c-0.56,5.89-2.09,16.74-3.58,28.29" /><path d="M71.28,64.26c1.1,0.46,1.95,1.35,1.95,2.95c-0.01,7.37,0.19,22.82,0.19,25.21" /><path d="M54.81,79.81c3.35-0.29,36.22-3.02,38.99-3.02" /><path d="M56.32,94.2c12.08-1.17,23.78-1.42,36.29-2.49" /></g></g></g></g><g fill="none" stroke="#000" stroke-width="5" stroke-linecap="round" stroke-linejoin="round"><g><g><path d="M10.25,27.84c1.14,0.19,3.73,0.73,4.87,0.69c10.55-0.32,18.34-1.19,27.88-1.69c1.89-0.1,3.04,0.09,3.99,0.19" stroke-dasharray="36.86" stroke-dashoffset="36.86"><animate id="0" attributeName="stroke-dashoffset" values="36.86;0" dur="0.37s" fill="freeze" begin="0s;8f3b.click" /></path><path d="M11.75,40.19c0.48,0.45,1.08,0.8,1.17,1.39c0.65,4.32,2.43,14.98,3.34,23.16" stroke-dasharray="25.26" stroke-dashoffset="25.26"><animate attributeName="stroke-dashoffset" values="25.26" fill="freeze" begin="8f3b.click" /><animate id="1" attributeName="stroke-dashoffset" values="25.26;0" dur="0.25s" fill="freeze" begin="0.end" /></path><path d="M13.59,42.33c8.11-0.87,24.24-2.96,29.77-3.09c2.29-0.06,2.76,1.18,2.66,2.54c-0.34,4.66-0.77,12.22-2.1,20.43" stroke-dasharray="54.81" stroke-dashoffset="54.81"><animate attributeName="stroke-dashoffset" values="54.81" fill="freeze" begin="8f3b.click" /><animate id="2" attributeName="stroke-dashoffset" values="54.81;0" dur="0.55s" fill="freeze" begin="1.end" /></path><path d="M15.12,53.12c8.32-0.62,20.89-2.87,29.07-3.37" stroke-dasharray="29.27" stroke-dashoffset="29.27"><animate attributeName="stroke-dashoffset" values="29.27" fill="freeze" begin="8f3b.click" /><animate id="3" attributeName="stroke-dashoffset" values="29.27;0" dur="0.29s" fill="freeze" begin="2.end" /></path><path d="M16.62,62.9c7.1-0.9,18.54-2.4,27.3-3.09" stroke-dasharray="27.48" stroke-dashoffset="27.48"><animate attributeName="stroke-dashoffset" values="27.48" fill="freeze" begin="8f3b.click" /><animate id="4" attributeName="stroke-dashoffset" values="27.48;0" dur="0.27s" fill="freeze" begin="3.end" /></path><path d="M11,76.54c1.47,0.77,4.15,0.92,5.64,0.77C24.5,76.5,35.15,75,43,74.25c2.44-0.23,4.27-0.13,5.5,0.25" stroke-dasharray="37.83" stroke-dashoffset="37.83"><animate attributeName="stroke-dashoffset" values="37.83" fill="freeze" begin="8f3b.click" /><animate id="5" attributeName="stroke-dashoffset" values="37.83;0" dur="0.38s" fill="freeze" begin="4.end" /></path><path d="M26.75,13.63c0.65,0.51,2.14,2.87,2.14,4.82c0,1.02-0.08,73.08-0.21,79.43" stroke-dasharray="84.82" stroke-dashoffset="84.82"><animate attributeName="stroke-dashoffset" values="84.82" fill="freeze" begin="8f3b.click" /><animate id="6" attributeName="stroke-dashoffset" values="84.82;0" dur="0.64s" fill="freeze" begin="5.end" /></path></g><g><g><path d="M53.25,19.89c0.94,0.38,2.66,0.49,3.6,0.38C66,19.25,79.5,18.5,86.46,18.39c1.56-0.03,2.5,0.18,3.29,0.37" stroke-dasharray="36.65" stroke-dashoffset="36.65"><animate attributeName="stroke-dashoffset" values="36.65" fill="freeze" begin="8f3b.click" /><animate id="7" attributeName="stroke-dashoffset" values="36.65;0" dur="0.37s" fill="freeze" begin="6.end" /></path></g><g><path d="M54.53,34.12c0.33,0.31,0.68,0.57,0.82,0.96c1.16,3.09,2.54,12.1,3.33,17.64" stroke-dasharray="19.25" stroke-dashoffset="19.25"><animate attributeName="stroke-dashoffset" values="19.25" fill="freeze" begin="8f3b.click" /><animate id="8" attributeName="stroke-dashoffset" values="19.25;0" dur="0.19s" fill="freeze" begin="7.end" /></path><path d="M56.61,35.18c7.39-0.68,26.6-2.49,30.82-2.93c1.54-0.16,2.47,1.61,2.25,2.55c-0.91,3.89-2.46,8.73-4.42,14.33" stroke-dasharray="49.84" stroke-dashoffset="49.84"><animate attributeName="stroke-dashoffset" values="49.84" fill="freeze" begin="8f3b.click" /><animate id="9" attributeName="stroke-dashoffset" values="49.84;0" dur="0.5s" fill="freeze" begin="8.end" /></path><path d="M59.02,51.68c4.95-0.49,22.5-1.57,28.78-2.07" stroke-dasharray="28.85" stroke-dashoffset="28.85"><animate attributeName="stroke-dashoffset" values="28.85" fill="freeze" begin="8f3b.click" /><animate id="10" attributeName="stroke-dashoffset" values="28.85;0" dur="0.29s" fill="freeze" begin="9.end" /></path></g><g><path d="M51.61,64.03c0.29,0.59,0.8,1.99,0.95,2.72c1.29,6,2.46,18.96,3.22,30" stroke-dasharray="33.08" stroke-dashoffset="33.08"><animate attributeName="stroke-dashoffset" values="33.08" fill="freeze" begin="8f3b.click" /><animate id="11" attributeName="stroke-dashoffset" values="33.08;0" dur="0.33s" fill="freeze" begin="10.end" /></path><path d="M52.98,65.92c13.43-1.94,31.36-3.11,39.03-3.7c2.82-0.21,4.25,1.52,4.1,3.13c-0.56,5.89-2.09,16.74-3.58,28.29" stroke-dasharray="73.63" stroke-dashoffset="73.63"><animate attributeName="stroke-dashoffset" values="73.63" fill="freeze" begin="8f3b.click" /><animate id="12" attributeName="stroke-dashoffset" values="73.63;0" dur="0.55s" fill="freeze" begin="11.end" /></path><path d="M71.28,64.26c1.1,0.46,1.95,1.35,1.95,2.95c-0.01,7.37,0.19,22.82,0.19,25.21" stroke-dasharray="28.99" stroke-dashoffset="28.99"><animate attributeName="stroke-dashoffset" values="28.99" fill="freeze" begin="8f3b.click" /><animate id="13" attributeName="stroke-dashoffset" values="28.99;0" dur="0.29s" fill="freeze" begin="12.end" /></path><path d="M54.81,79.81c3.35-0.29,36.22-3.02,38.99-3.02" stroke-dasharray="39.11" stroke-dashoffset="39.11"><animate attributeName="stroke-dashoffset" values="39.11" fill="freeze" begin="8f3b.click" /><animate id="14" attributeName="stroke-dashoffset" values="39.11;0" dur="0.39s" fill="freeze" begin="13.end" /></path><path d="M56.32,94.2c12.08-1.17,23.78-1.42,36.29-2.49" stroke-dasharray="36.38" stroke-dashoffset="36.38"><animate attributeName="stroke-dashoffset" values="36.38" fill="freeze" begin="8f3b.click" /><animate id="15" attributeName="stroke-dashoffset" values="36.38;0" dur="0.36s" fill="freeze" begin="14.end" /></path></g></g></g></g></svg>