<svg xmlns="http://www.w3.org/2000/svg" width="109" height="109" viewBox="0 0 109 109" id="8f45"><g fill="none" stroke="#666" stroke-width="9" stroke-linecap="round" stroke-linejoin="round"><g><g><path d="M11.58,27.3c1.17,0.45,2.72,0.91,3.34,0.86c8.59-0.67,18.5-1.23,27.13-2.18c1.01-0.11,1.62,0.17,2.13,0.35" /><path d="M11.81,39.77c0.49,0.47,1.12,0.84,1.21,1.46c0.67,4.53,2.5,15.7,3.44,24.28" /><path d="M13.1,41.35c7.07-0.84,24.18-2.84,29.01-2.97c2-0.05,2.41,1.14,2.32,2.46c-0.29,4.5-2.01,14.88-3.6,22.26" /><path d="M15.77,52.28c7.98-1.03,16.23-1.53,27.5-2.26" /><path d="M16.75,63.29c6.33-0.6,14.84-1.62,24.08-2.39" /><path d="M10.03,75.21c1.22,0.54,2.95,1.05,3.83,0.97C21.5,75.5,36.75,74,44.18,73.62c1.45-0.07,2.32,0.22,3.04,0.46" /><path d="M26.3,11.63c0.45,0.57,1.89,2.26,1.98,3.4c0.09,1.14-0.06,75.75-0.15,82.85" /></g><g><g><path d="M49.86,21.44C50.89,22,52.75,22.01,53.8,22c7.36-0.07,18.95-1.29,33.12-1.79c1.71-0.06,2.74,0.27,3.59,0.55" /><path d="M67.69,10.12c0.11,0.36,1.42,1.86,1.52,4.12c0.49,10.87,0.14,16.42,0.14,20.13" /><g p6:part="1" p6:partial xmlns:p6="http://kanjivg.tagaini.net"><g p6:partial><path d="M51.9,35.23c1.07,0.54,3.03,0.59,4.12,0.54C62.5,35.5,76,34.25,83.98,33.54c1.79-0.16,2.86,0.26,3.76,0.53" /></g></g></g><g><g><path d="M53.37,44.64c0.44,0.3,1.01,1.53,1.09,1.93c0.6,2.88,2.33,8.98,3.17,14.44" /><path d="M54.58,46.13c7.88-1.38,22.92-2.88,28.85-3.14c1.91-0.08,2.19,1.76,2.03,2.69c-0.58,3.32-1.66,5.73-2.4,10.29" /><path d="M57.48,58.28c6.75-0.64,19.22-1.88,27.68-2.4" /></g><g p6:part="2" p6:partial xmlns:p6="http://kanjivg.tagaini.net"><path d="M67.95,59.89c0.08,0.61,0.34,1.71-0.15,2.44c-3.73,5.65-12.15,13.63-26.49,23.38" /><path d="M56.66,75.86c0.33,0.31,0.68,0.61,0.68,1.15c-0.02,6.8-0.22,17.01-0.22,18.16s0.81,1.8,1.83,0.94c1.02-0.86,11.3-10.37,14.75-12.37" /><path d="M87.3,61.67c0.03,0.27,0.3,1.31,0.13,1.66c-1.08,2.23-4.44,5.42-9.93,9.87" /><path d="M69.59,65.98c1.02,0.8,2.66,3.06,2.94,3.4c4.18,5.05,14.35,17.93,17.17,20.9c1.06,1.12,1.98,1.6,3.04,1.92" /></g></g></g></g></g><g fill="none" stroke="#000" stroke-width="5" stroke-linecap="round" stroke-linejoin="round"><g><g><path d="M11.58,27.3c1.17,0.45,2.72,0.91,3.34,0.86c8.59-0.67,18.5-1.23,27.13-2.18c1.01-0.11,1.62,0.17,2.13,0.35" stroke-dasharray="32.87" stroke-dashoffset="32.87"><animate id="0" attributeName="stroke-dashoffset" values="32.87;0" dur="0.33s" fill="freeze" begin="0s;8f45.click" /></path><path d="M11.81,39.77c0.49,0.47,1.12,0.84,1.21,1.46c0.67,4.53,2.5,15.7,3.44,24.28" stroke-dasharray="26.46" stroke-dashoffset="26.46"><animate attributeName="stroke-dashoffset" values="26.46" fill="freeze" begin="8f45.click" /><animate id="1" attributeName="stroke-dashoffset" values="26.46;0" dur="0.26s" fill="freeze" begin="0.end" /></path><path d="M13.1,41.35c7.07-0.84,24.18-2.84,29.01-2.97c2-0.05,2.41,1.14,2.32,2.46c-0.29,4.5-2.01,14.88-3.6,22.26" stroke-dasharray="55.7" stroke-dashoffset="55.7"><animate attributeName="stroke-dashoffset" values="55.7" fill="freeze" begin="8f45.click" /><animate id="2" attributeName="stroke-dashoffset" values="55.7;0" dur="0.56s" fill="freeze" begin="1.end" /></path><path d="M15.77,52.28c7.98-1.03,16.23-1.53,27.5-2.26" stroke-dasharray="27.6" stroke-dashoffset="27.6"><animate attributeName="stroke-dashoffset" values="27.6" fill="freeze" begin="8f45.click" /><animate id="3" attributeName="stroke-dashoffset" values="27.6;0" dur="0.28s" fill="freeze" begin="2.end" /></path><path d="M16.75,63.29c6.33-0.6,14.84-1.62,24.08-2.39" stroke-dasharray="24.2" stroke-dashoffset="24.2"><animate attributeName="stroke-dashoffset" values="24.2" fill="freeze" begin="8f45.click" /><animate id="4" attributeName="stroke-dashoffset" values="24.2;0" dur="0.24s" fill="freeze" begin="3.end" /></path><path d="M10.03,75.21c1.22,0.54,2.95,1.05,3.83,0.97C21.5,75.5,36.75,74,44.18,73.62c1.45-0.07,2.32,0.22,3.04,0.46" stroke-dasharray="37.51" stroke-dashoffset="37.51"><animate attributeName="stroke-dashoffset" values="37.51" fill="freeze" begin="8f45.click" /><animate id="5" attributeName="stroke-dashoffset" values="37.51;0" dur="0.38s" fill="freeze" begin="4.end" /></path><path d="M26.3,11.63c0.45,0.57,1.89,2.26,1.98,3.4c0.09,1.14-0.06,75.75-0.15,82.85" stroke-dasharray="86.83" stroke-dashoffset="86.83"><animate attributeName="stroke-dashoffset" values="86.83" fill="freeze" begin="8f45.click" /><animate id="6" attributeName="stroke-dashoffset" values="86.83;0" dur="0.65s" fill="freeze" begin="5.end" /></path></g><g><g><path d="M49.86,21.44C50.89,22,52.75,22.01,53.8,22c7.36-0.07,18.95-1.29,33.12-1.79c1.71-0.06,2.74,0.27,3.59,0.55" stroke-dasharray="40.84" stroke-dashoffset="40.84"><animate attributeName="stroke-dashoffset" values="40.84" fill="freeze" begin="8f45.click" /><animate id="7" attributeName="stroke-dashoffset" values="40.84;0" dur="0.41s" fill="freeze" begin="6.end" /></path><path d="M67.69,10.12c0.11,0.36,1.42,1.86,1.52,4.12c0.49,10.87,0.14,16.42,0.14,20.13" stroke-dasharray="24.58" stroke-dashoffset="24.58"><animate attributeName="stroke-dashoffset" values="24.58" fill="freeze" begin="8f45.click" /><animate id="8" attributeName="stroke-dashoffset" values="24.58;0" dur="0.25s" fill="freeze" begin="7.end" /></path><g p6:part="1" p6:partial xmlns:p6="http://kanjivg.tagaini.net"><g p6:partial><path d="M51.9,35.23c1.07,0.54,3.03,0.59,4.12,0.54C62.5,35.5,76,34.25,83.98,33.54c1.79-0.16,2.86,0.26,3.76,0.53" stroke-dasharray="36.07" stroke-dashoffset="36.07"><animate attributeName="stroke-dashoffset" values="36.07" fill="freeze" begin="8f45.click" /><animate id="9" attributeName="stroke-dashoffset" values="36.07;0" dur="0.36s" fill="freeze" begin="8.end" /></path></g></g></g><g><g><path d="M53.37,44.64c0.44,0.3,1.01,1.53,1.09,1.93c0.6,2.88,2.33,8.98,3.17,14.44" stroke-dasharray="17.03" stroke-dashoffset="17.03"><animate attributeName="stroke-dashoffset" values="17.03" fill="freeze" begin="8f45.click" /><animate id="10" attributeName="stroke-dashoffset" values="17.03;0" dur="0.17s" fill="freeze" begin="9.end" /></path><path d="M54.58,46.13c7.88-1.38,22.92-2.88,28.85-3.14c1.91-0.08,2.19,1.76,2.03,2.69c-0.58,3.32-1.66,5.73-2.4,10.29" stroke-dasharray="43.54" stroke-dashoffset="43.54"><animate attributeName="stroke-dashoffset" values="43.54" fill="freeze" begin="8f45.click" /><animate id="11" attributeName="stroke-dashoffset" values="43.54;0" dur="0.44s" fill="freeze" begin="10.end" /></path><path d="M57.48,58.28c6.75-0.64,19.22-1.88,27.68-2.4" stroke-dasharray="27.79" stroke-dashoffset="27.79"><animate attributeName="stroke-dashoffset" values="27.79" fill="freeze" begin="8f45.click" /><animate id="12" attributeName="stroke-dashoffset" values="27.79;0" dur="0.28s" fill="freeze" begin="11.end" /></path></g><g p6:part="2" p6:partial xmlns:p6="http://kanjivg.tagaini.net"><path d="M67.95,59.89c0.08,0.61,0.34,1.71-0.15,2.44c-3.73,5.65-12.15,13.63-26.49,23.38" stroke-dasharray="38.02" stroke-dashoffset="38.02"><animate attributeName="stroke-dashoffset" values="38.02" fill="freeze" begin="8f45.click" /><animate id="13" attributeName="stroke-dashoffset" values="38.02;0" dur="0.38s" fill="freeze" begin="12.end" /></path><path d="M56.66,75.86c0.33,0.31,0.68,0.61,0.68,1.15c-0.02,6.8-0.22,17.01-0.22,18.16s0.81,1.8,1.83,0.94c1.02-0.86,11.3-10.37,14.75-12.37" stroke-dasharray="41.63" stroke-dashoffset="41.63"><animate attributeName="stroke-dashoffset" values="41.63" fill="freeze" begin="8f45.click" /><animate id="14" attributeName="stroke-dashoffset" values="41.63;0" dur="0.42s" fill="freeze" begin="13.end" /></path><path d="M87.3,61.67c0.03,0.27,0.3,1.31,0.13,1.66c-1.08,2.23-4.44,5.42-9.93,9.87" stroke-dasharray="15.76" stroke-dashoffset="15.76"><animate attributeName="stroke-dashoffset" values="15.76" fill="freeze" begin="8f45.click" /><animate id="15" attributeName="stroke-dashoffset" values="15.76;0" dur="0.16s" fill="freeze" begin="14.end" /></path><path d="M69.59,65.98c1.02,0.8,2.66,3.06,2.94,3.4c4.18,5.05,14.35,17.93,17.17,20.9c1.06,1.12,1.98,1.6,3.04,1.92" stroke-dasharray="35.2" stroke-dashoffset="35.2"><animate attributeName="stroke-dashoffset" values="35.2" fill="freeze" begin="8f45.click" /><animate id="16" attributeName="stroke-dashoffset" values="35.2;0" dur="0.35s" fill="freeze" begin="15.end" /></path></g></g></g></g></g></svg>