<svg xmlns="http://www.w3.org/2000/svg" width="109" height="109" viewBox="0 0 109 109" id="8f9c"><g fill="none" stroke="#666" stroke-width="6" stroke-linecap="round" stroke-linejoin="round"><g><g><g><path d="M21.55,18.24c0.93,0.33,3.44,0.69,5.92,0.5c14.26-1.06,39.69-4.14,54.35-4.14c2.5,0,4.62,0.17,6.18,0.5" /><path d="M51.15,7c1.43,0.66,2.58,2.93,2.58,4.28c0,3.72-0.29,12.47-0.29,14.83" /></g><g><path d="M32.04,26.89c0.25,0.8,0.5,1.37,0.63,1.97c0.83,3.89,2.08,8.14,2.4,10.89" /><path d="M33.31,28.69c7.02-0.89,34.48-4.17,39.27-4.31c1.98-0.06,3.29,1.31,2.88,2.62c-0.71,2.26-2.46,5.51-3,7.68" /><path d="M35.44,38.47c5.81-0.38,32.67-2.65,39.65-3.13" /></g></g><g><g><g><path d="M51.54,38.09c1.5,0.99,2.25,0.99,2.25,3.31c0,2.32,0,3.3,0,6.34" /><path d="M24.46,49.91c1.5,0.44,3.25,0.51,4.74,0.44c8.44-0.38,38.26-3.77,51.02-4.09c2.49-0.06,3.99,0.21,5.23,0.43" /></g><g><path d="M36.67,53.77c3.4,2.92,4.94,5.91,5.25,7.83" /><path d="M68.88,50.79c0.13,0.79,0.15,1.6,0.03,1.9c-1.16,2.81-4.21,7.13-5.48,8.64" /><path d="M16.47,65.83c2.07,0.54,4.49,0.73,6.55,0.54c14.72-1.37,48.5-3.89,63.94-4.2c3.45-0.07,5.52,0.26,7.24,0.53" /></g></g><g><path d="M24.33,79.64c1.56,0.35,4.42,0.44,5.98,0.35c19.81-1.15,31.94-2.83,50.31-3.57c2.59-0.1,4.16,0.17,5.45,0.34" /><path d="M52.25,65.6c0.44,0.3,1.37,2.26,1.46,2.87c0.51,3.46-0.12,32.18-0.15,33.08" /></g></g></g></g><g fill="none" stroke="#000" stroke-width="3" stroke-linecap="round" stroke-linejoin="round"><path d="M21.55,18.24c0.93,0.33,3.44,0.69,5.92,0.5c14.26-1.06,39.69-4.14,54.35-4.14c2.5,0,4.62,0.17,6.18,0.5" stroke-dasharray="66.704" stroke-dashoffset="66.704"><animate attributeName="stroke-dashoffset" values="66.704;66.704;0" dur="0.502s" fill="freeze" begin="0s;8f9c.click" /></path><path d="M51.15,7c1.43,0.66,2.58,2.93,2.58,4.28c0,3.72-0.29,12.47-0.29,14.83" stroke-dasharray="20.035" stroke-dashoffset="20.035"><animate attributeName="stroke-dashoffset" values="20.035" fill="freeze" begin="8f9c.click" /><animate attributeName="stroke-dashoffset" values="20.035;20.035;0" keyTimes="0;0.715;1" dur="0.702s" fill="freeze" begin="0s;8f9c.click" /></path><path d="M32.04,26.89c0.25,0.8,0.5,1.37,0.63,1.97c0.83,3.89,2.08,8.14,2.4,10.89" stroke-dasharray="13.226" stroke-dashoffset="13.226"><animate attributeName="stroke-dashoffset" values="13.226" fill="freeze" begin="8f9c.click" /><animate attributeName="stroke-dashoffset" values="13.226;13.226;0" keyTimes="0;0.842;1" dur="0.834s" fill="freeze" begin="0s;8f9c.click" /></path><path d="M33.31,28.69c7.02-0.89,34.48-4.17,39.27-4.31c1.98-0.06,3.29,1.31,2.88,2.62c-0.71,2.26-2.46,5.51-3,7.68" stroke-dasharray="52.305" stroke-dashoffset="52.305"><animate attributeName="stroke-dashoffset" values="52.305" fill="freeze" begin="8f9c.click" /><animate attributeName="stroke-dashoffset" values="52.305;52.305;0" keyTimes="0;0.615;1" dur="1.357s" fill="freeze" begin="0s;8f9c.click" /></path><path d="M35.44,38.47c5.81-0.38,32.67-2.65,39.65-3.13" stroke-dasharray="39.775" stroke-dashoffset="39.775"><animate attributeName="stroke-dashoffset" values="39.775" fill="freeze" begin="8f9c.click" /><animate attributeName="stroke-dashoffset" values="39.775;39.775;0" keyTimes="0;0.773;1" dur="1.755s" fill="freeze" begin="0s;8f9c.click" /></path><path d="M51.54,38.09c1.5,0.99,2.25,0.99,2.25,3.31c0,2.32,0,3.3,0,6.34" stroke-dasharray="10.671" stroke-dashoffset="10.671"><animate attributeName="stroke-dashoffset" values="10.671" fill="freeze" begin="8f9c.click" /><animate attributeName="stroke-dashoffset" values="10.671;10.671;0" keyTimes="0;0.943;1" dur="1.862s" fill="freeze" begin="0s;8f9c.click" /></path><path d="M24.46,49.91c1.5,0.44,3.25,0.51,4.74,0.44c8.44-0.38,38.26-3.77,51.02-4.09c2.49-0.06,3.99,0.21,5.23,0.43" stroke-dasharray="61.231" stroke-dashoffset="61.231"><animate attributeName="stroke-dashoffset" values="61.231" fill="freeze" begin="8f9c.click" /><animate attributeName="stroke-dashoffset" values="61.231;61.231;0" keyTimes="0;0.802;1" dur="2.322s" fill="freeze" begin="0s;8f9c.click" /></path><path d="M36.67,53.77c3.4,2.92,4.94,5.91,5.25,7.83" stroke-dasharray="9.598" stroke-dashoffset="9.598"><animate attributeName="stroke-dashoffset" values="9.598" fill="freeze" begin="8f9c.click" /><animate attributeName="stroke-dashoffset" values="9.598;9.598;0" keyTimes="0;0.96;1" dur="2.418s" fill="freeze" begin="0s;8f9c.click" /></path><path d="M68.88,50.79c0.13,0.79,0.15,1.6,0.03,1.9c-1.16,2.81-4.21,7.13-5.48,8.64" stroke-dasharray="12.173" stroke-dashoffset="12.173"><animate attributeName="stroke-dashoffset" values="12.173" fill="freeze" begin="8f9c.click" /><animate attributeName="stroke-dashoffset" values="12.173;12.173;0" keyTimes="0;0.952;1" dur="2.54s" fill="freeze" begin="0s;8f9c.click" /></path><path d="M16.47,65.83c2.07,0.54,4.49,0.73,6.55,0.54c14.72-1.37,48.5-3.89,63.94-4.2c3.45-0.07,5.52,0.26,7.24,0.53" stroke-dasharray="77.961" stroke-dashoffset="77.961"><animate attributeName="stroke-dashoffset" values="77.961" fill="freeze" begin="8f9c.click" /><animate attributeName="stroke-dashoffset" values="77.961;77.961;0" keyTimes="0;0.813;1" dur="3.126s" fill="freeze" begin="0s;8f9c.click" /></path><path d="M24.33,79.64c1.56,0.35,4.42,0.44,5.98,0.35c19.81-1.15,31.94-2.83,50.31-3.57c2.59-0.1,4.16,0.17,5.45,0.34" stroke-dasharray="61.914" stroke-dashoffset="61.914"><animate attributeName="stroke-dashoffset" values="61.914" fill="freeze" begin="8f9c.click" /><animate attributeName="stroke-dashoffset" values="61.914;61.914;0" keyTimes="0;0.87;1" dur="3.592s" fill="freeze" begin="0s;8f9c.click" /></path><path d="M52.25,65.6c0.44,0.3,1.37,2.26,1.46,2.87c0.51,3.46-0.12,32.18-0.15,33.08" stroke-dasharray="36.342" stroke-dashoffset="36.342"><animate attributeName="stroke-dashoffset" values="36.342" fill="freeze" begin="8f9c.click" /><animate attributeName="stroke-dashoffset" values="36.342;36.342;0" keyTimes="0;0.908;1" dur="3.955s" fill="freeze" begin="0s;8f9c.click" /></path></g></svg>