<svg xmlns="http://www.w3.org/2000/svg" width="109" height="109" viewBox="0 0 109 109" id="8fae"><g fill="none" stroke="#666" stroke-width="9" stroke-linecap="round" stroke-linejoin="round"><g><g><g><g><path d="M25.37,12c1.01,1.31,1.51,1.31,1.51,4.35c0,3.05,0,6.65,0,10.65" /><path d="M12.6,29.67c0.76,0.23,1.65,0.26,2.41,0.23c4.3-0.19,16.32-2.08,22.82-2.25c1.27-0.03,2.03,0.11,2.67,0.22" /></g><g><path d="M16.5,36c3.5,4.47,5.09,9.05,5.41,12" /><path d="M35.47,32.5c0.58,0.51,0.65,1.71,0.58,2.13c-0.46,2.9-4.38,11.15-5.55,13.37" /><path d="M10.5,53.26c0.98,0.28,2.13,0.37,3.1,0.28c4.92-0.49,17.94-2.26,23.72-2.47c1.63-0.06,2.61,0.13,3.43,0.27" /></g></g><g><path d="M12.25,72.29c0.61,0.67,1.74,0.84,2.36,0.67c7.81-2.19,17.45-5.67,23.39-7.71" /><path d="M25.72,52.38c0.62,0.57,1.36,2.09,1.39,3.24c0.17,8.91,0.14,29.88-12.36,40.88" /></g></g><g><g><path d="M55.16,14.5c0.29,1.31,0.55,2.43-0.15,3.72c-3.07,5.69-8.2,14.01-11.12,17.08c-0.6,0.63-0.58,3.03,0,3.28c3.07,1.31,6.44,2.5,9.07,4.91" /><g><path d="M62.26,28.75c0.28,0.51,0.37,2.18,0,2.72c-5.4,7.99-11.45,16.29-18.87,23.58c-1.7,1.67,0.42,2.63,1.53,2.29c4.64-1.42,10.83-2.07,16.79-3.43" /><path d="M58,44.25c3,2.74,7.75,11.24,8.5,15.5" /></g><path d="M52.92,58.01c0.07,0.29,1,1.48,1.07,3.28c0.34,8.64-0.22,31.27-0.22,34.21" /><path d="M45.45,67.5c0.2,1.03,0.17,3.06-0.2,3.8c-2.39,4.81-8.37,14.08-11.75,18.2" /><path d="M60.75,69.5c3.75,3.9,6.63,12.96,7.5,16.5" /></g><g><g><g><path d="M79.08,12c1.06,1.31,1.59,1.31,1.59,4.35c0,3.05,0,5.65,0,9.65" /><path d="M67.33,28.15c0.68,0.25,1.48,0.29,2.16,0.25c3.84-0.22,18.95-1.57,24.76-1.76c1.13-0.04,1.81,0.12,2.38,0.25" /></g><g><path d="M72,33.25c3.56,5.13,5.18,10.37,5.5,13.75" /><path d="M90.29,28.75c0.65,0.6,0.72,2.01,0.65,2.51c-0.52,3.41-4.89,13.13-6.19,15.74" /><path d="M68,51.61c0.77,0.19,1.67,0.23,2.44,0.19c6.44-0.33,17.54-1.79,24.61-1.7c1.29,0.02,2.05,0.09,2.7,0.18" /></g></g><g><path d="M67.13,68.17c0.98,0.43,2.78,0.49,3.77,0.43c6.74-0.39,15.69-1.07,22.83-1.51c1.64-0.1,2.62,0.21,3.44,0.42" /><path d="M79.39,51.63c0.66,0.49,1.68,2.47,1.68,4.69c0,5.71-0.19,40.36-0.22,41.81" /></g></g></g></g></g><g fill="none" stroke="#000" stroke-width="5" stroke-linecap="round" stroke-linejoin="round"><g><g><g><g><path d="M25.37,12c1.01,1.31,1.51,1.31,1.51,4.35c0,3.05,0,6.65,0,10.65" stroke-dasharray="15.43" stroke-dashoffset="15.43"><animate id="0" attributeName="stroke-dashoffset" values="15.43;0" dur="0.15s" fill="freeze" begin="0s;8fae.click" /></path><path d="M12.6,29.67c0.76,0.23,1.65,0.26,2.41,0.23c4.3-0.19,16.32-2.08,22.82-2.25c1.27-0.03,2.03,0.11,2.67,0.22" stroke-dasharray="28.05" stroke-dashoffset="28.05"><animate attributeName="stroke-dashoffset" values="28.05" fill="freeze" begin="8fae.click" /><animate id="1" attributeName="stroke-dashoffset" values="28.05;0" dur="0.28s" fill="freeze" begin="0.end" /></path></g><g><path d="M16.5,36c3.5,4.47,5.09,9.05,5.41,12" stroke-dasharray="13.32" stroke-dashoffset="13.32"><animate attributeName="stroke-dashoffset" values="13.32" fill="freeze" begin="8fae.click" /><animate id="2" attributeName="stroke-dashoffset" values="13.32;0" dur="0.13s" fill="freeze" begin="1.end" /></path><path d="M35.47,32.5c0.58,0.51,0.65,1.71,0.58,2.13c-0.46,2.9-4.38,11.15-5.55,13.37" stroke-dasharray="16.79" stroke-dashoffset="16.79"><animate attributeName="stroke-dashoffset" values="16.79" fill="freeze" begin="8fae.click" /><animate id="3" attributeName="stroke-dashoffset" values="16.79;0" dur="0.17s" fill="freeze" begin="2.end" /></path><path d="M10.5,53.26c0.98,0.28,2.13,0.37,3.1,0.28c4.92-0.49,17.94-2.26,23.72-2.47c1.63-0.06,2.61,0.13,3.43,0.27" stroke-dasharray="30.43" stroke-dashoffset="30.43"><animate attributeName="stroke-dashoffset" values="30.43" fill="freeze" begin="8fae.click" /><animate id="4" attributeName="stroke-dashoffset" values="30.43;0" dur="0.3s" fill="freeze" begin="3.end" /></path></g></g><g><path d="M12.25,72.29c0.61,0.67,1.74,0.84,2.36,0.67c7.81-2.19,17.45-5.67,23.39-7.71" stroke-dasharray="27.19" stroke-dashoffset="27.19"><animate attributeName="stroke-dashoffset" values="27.19" fill="freeze" begin="8fae.click" /><animate id="5" attributeName="stroke-dashoffset" values="27.19;0" dur="0.27s" fill="freeze" begin="4.end" /></path><path d="M25.72,52.38c0.62,0.57,1.36,2.09,1.39,3.24c0.17,8.91,0.14,29.88-12.36,40.88" stroke-dasharray="47.65" stroke-dashoffset="47.65"><animate attributeName="stroke-dashoffset" values="47.65" fill="freeze" begin="8fae.click" /><animate id="6" attributeName="stroke-dashoffset" values="47.65;0" dur="0.48s" fill="freeze" begin="5.end" /></path></g></g><g><g><path d="M55.16,14.5c0.29,1.31,0.55,2.43-0.15,3.72c-3.07,5.69-8.2,14.01-11.12,17.08c-0.6,0.63-0.58,3.03,0,3.28c3.07,1.31,6.44,2.5,9.07,4.91" stroke-dasharray="38.1" stroke-dashoffset="38.1"><animate attributeName="stroke-dashoffset" values="38.1" fill="freeze" begin="8fae.click" /><animate id="7" attributeName="stroke-dashoffset" values="38.1;0" dur="0.38s" fill="freeze" begin="6.end" /></path><g><path d="M62.26,28.75c0.28,0.51,0.37,2.18,0,2.72c-5.4,7.99-11.45,16.29-18.87,23.58c-1.7,1.67,0.42,2.63,1.53,2.29c4.64-1.42,10.83-2.07,16.79-3.43" stroke-dasharray="54.32" stroke-dashoffset="54.32"><animate attributeName="stroke-dashoffset" values="54.32" fill="freeze" begin="8fae.click" /><animate id="8" attributeName="stroke-dashoffset" values="54.32;0" dur="0.54s" fill="freeze" begin="7.end" /></path><path d="M58,44.25c3,2.74,7.75,11.24,8.5,15.5" stroke-dasharray="17.86" stroke-dashoffset="17.86"><animate attributeName="stroke-dashoffset" values="17.86" fill="freeze" begin="8fae.click" /><animate id="9" attributeName="stroke-dashoffset" values="17.86;0" dur="0.18s" fill="freeze" begin="8.end" /></path></g><path d="M52.92,58.01c0.07,0.29,1,1.48,1.07,3.28c0.34,8.64-0.22,31.27-0.22,34.21" stroke-dasharray="37.7" stroke-dashoffset="37.7"><animate attributeName="stroke-dashoffset" values="37.7" fill="freeze" begin="8fae.click" /><animate id="10" attributeName="stroke-dashoffset" values="37.7;0" dur="0.38s" fill="freeze" begin="9.end" /></path><path d="M45.45,67.5c0.2,1.03,0.17,3.06-0.2,3.8c-2.39,4.81-8.37,14.08-11.75,18.2" stroke-dasharray="25.54" stroke-dashoffset="25.54"><animate attributeName="stroke-dashoffset" values="25.54" fill="freeze" begin="8fae.click" /><animate id="11" attributeName="stroke-dashoffset" values="25.54;0" dur="0.26s" fill="freeze" begin="10.end" /></path><path d="M60.75,69.5c3.75,3.9,6.63,12.96,7.5,16.5" stroke-dasharray="18.28" stroke-dashoffset="18.28"><animate attributeName="stroke-dashoffset" values="18.28" fill="freeze" begin="8fae.click" /><animate id="12" attributeName="stroke-dashoffset" values="18.28;0" dur="0.18s" fill="freeze" begin="11.end" /></path></g><g><g><g><path d="M79.08,12c1.06,1.31,1.59,1.31,1.59,4.35c0,3.05,0,5.65,0,9.65" stroke-dasharray="14.47" stroke-dashoffset="14.47"><animate attributeName="stroke-dashoffset" values="14.47" fill="freeze" begin="8fae.click" /><animate id="13" attributeName="stroke-dashoffset" values="14.47;0" dur="0.14s" fill="freeze" begin="12.end" /></path><path d="M67.33,28.15c0.68,0.25,1.48,0.29,2.16,0.25c3.84-0.22,18.95-1.57,24.76-1.76c1.13-0.04,1.81,0.12,2.38,0.25" stroke-dasharray="29.41" stroke-dashoffset="29.41"><animate attributeName="stroke-dashoffset" values="29.41" fill="freeze" begin="8fae.click" /><animate id="14" attributeName="stroke-dashoffset" values="29.41;0" dur="0.29s" fill="freeze" begin="13.end" /></path></g><g><path d="M72,33.25c3.56,5.13,5.18,10.37,5.5,13.75" stroke-dasharray="14.96" stroke-dashoffset="14.96"><animate attributeName="stroke-dashoffset" values="14.96" fill="freeze" begin="8fae.click" /><animate id="15" attributeName="stroke-dashoffset" values="14.96;0" dur="0.15s" fill="freeze" begin="14.end" /></path><path d="M90.29,28.75c0.65,0.6,0.72,2.01,0.65,2.51c-0.52,3.41-4.89,13.13-6.19,15.74" stroke-dasharray="19.62" stroke-dashoffset="19.62"><animate attributeName="stroke-dashoffset" values="19.62" fill="freeze" begin="8fae.click" /><animate id="16" attributeName="stroke-dashoffset" values="19.62;0" dur="0.2s" fill="freeze" begin="15.end" /></path><path d="M68,51.61c0.77,0.19,1.67,0.23,2.44,0.19c6.44-0.33,17.54-1.79,24.61-1.7c1.29,0.02,2.05,0.09,2.7,0.18" stroke-dasharray="29.84" stroke-dashoffset="29.84"><animate attributeName="stroke-dashoffset" values="29.84" fill="freeze" begin="8fae.click" /><animate id="17" attributeName="stroke-dashoffset" values="29.84;0" dur="0.3s" fill="freeze" begin="16.end" /></path></g></g><g><path d="M67.13,68.17c0.98,0.43,2.78,0.49,3.77,0.43c6.74-0.39,15.69-1.07,22.83-1.51c1.64-0.1,2.62,0.21,3.44,0.42" stroke-dasharray="30.19" stroke-dashoffset="30.19"><animate attributeName="stroke-dashoffset" values="30.19" fill="freeze" begin="8fae.click" /><animate id="18" attributeName="stroke-dashoffset" values="30.19;0" dur="0.3s" fill="freeze" begin="17.end" /></path><path d="M79.39,51.63c0.66,0.49,1.68,2.47,1.68,4.69c0,5.71-0.19,40.36-0.22,41.81" stroke-dasharray="46.92" stroke-dashoffset="46.92"><animate attributeName="stroke-dashoffset" values="46.92" fill="freeze" begin="8fae.click" /><animate id="19" attributeName="stroke-dashoffset" values="46.92;0" dur="0.47s" fill="freeze" begin="18.end" /></path></g></g></g></g></g></svg>