<svg xmlns="http://www.w3.org/2000/svg" width="109" height="109" viewBox="0 0 109 109" id="8fe5"><g fill="none" stroke="#666" stroke-width="9" stroke-linecap="round" stroke-linejoin="round"><g><g><path d="M43.67,17.53c0.55,1.21,0.92,1.7,0.73,3.88c-0.18,2.18,0.18,53.35,0.18,56.98" /><path d="M44.63,19.33c6.31-0.82,36.99-3.58,38.37-3.71c5.78-0.56,5.5,2.09,5.29,5.98c-0.11,2.06,0.17,50.72,0.17,55.46c0,8.31-4.35,4.56-7.7,0.66" /></g><g><path d="M55.1,34.77c0.3,0.47,0.62,0.85,0.75,1.44c1.06,4.62,1.83,17.35,2.56,25.63" /><path d="M56,36.53c6.5-1.03,13.9-1.52,17.49-2.18c1.31-0.24,2.1,1.44,1.91,2.86c-0.78,5.89-1.69,12.98-2.84,21.13" /><path d="M58.56,59.05c4.28-0.19,10.19-0.51,16.07-0.8" /></g><g><path d="M16.46,14c4.43,1.74,11.44,7.17,12.54,9.88" /><path d="M13.71,34c4.07,1.44,10.53,5.9,11.54,8.13" /><path d="M10,55.94c2.25,0.85,3.75,0.43,4.75,0.21c1-0.21,8.5-2.49,10-2.92c1.5-0.43,3.75,1.07,2.75,2.35s-4.5,6.19-5.25,7.26c-0.75,1.07-0.5,2.99,1,4.48s3.25,3.7,4,4.98C28,73.59,28,74.66,26.5,75.73c-1.5,1.07-9.5,6.54-11,6.97" /><path d="M11.25,84.65c3.02-0.5,8.99-1.4,13.59-0.76c7.91,1.1,30.77,7.27,35.22,8.57C72.13,96,81.44,97.01,90.5,95.24" /></g></g></g><g fill="none" stroke="#000" stroke-width="5" stroke-linecap="round" stroke-linejoin="round"><g><g><path d="M43.67,17.53c0.55,1.21,0.92,1.7,0.73,3.88c-0.18,2.18,0.18,53.35,0.18,56.98" stroke-dasharray="61" stroke-dashoffset="61"><animate id="0" attributeName="stroke-dashoffset" values="61;0" dur="0.46s" fill="freeze" begin="0s;8fe5.click" /></path><path d="M44.63,19.33c6.31-0.82,36.99-3.58,38.37-3.71c5.78-0.56,5.5,2.09,5.29,5.98c-0.11,2.06,0.17,50.72,0.17,55.46c0,8.31-4.35,4.56-7.7,0.66" stroke-dasharray="117.26" stroke-dashoffset="117.26"><animate attributeName="stroke-dashoffset" values="117.26" fill="freeze" begin="8fe5.click" /><animate id="1" attributeName="stroke-dashoffset" values="117.26;0" dur="0.88s" fill="freeze" begin="0.end" /></path></g><g><path d="M55.1,34.77c0.3,0.47,0.62,0.85,0.75,1.44c1.06,4.62,1.83,17.35,2.56,25.63" stroke-dasharray="27.4" stroke-dashoffset="27.4"><animate attributeName="stroke-dashoffset" values="27.4" fill="freeze" begin="8fe5.click" /><animate id="2" attributeName="stroke-dashoffset" values="27.4;0" dur="0.27s" fill="freeze" begin="1.end" /></path><path d="M56,36.53c6.5-1.03,13.9-1.52,17.49-2.18c1.31-0.24,2.1,1.44,1.91,2.86c-0.78,5.89-1.69,12.98-2.84,21.13" stroke-dasharray="42.91" stroke-dashoffset="42.91"><animate attributeName="stroke-dashoffset" values="42.91" fill="freeze" begin="8fe5.click" /><animate id="3" attributeName="stroke-dashoffset" values="42.91;0" dur="0.43s" fill="freeze" begin="2.end" /></path><path d="M58.56,59.05c4.28-0.19,10.19-0.51,16.07-0.8" stroke-dasharray="16.09" stroke-dashoffset="16.09"><animate attributeName="stroke-dashoffset" values="16.09" fill="freeze" begin="8fe5.click" /><animate id="4" attributeName="stroke-dashoffset" values="16.09;0" dur="0.16s" fill="freeze" begin="3.end" /></path></g><g><path d="M16.46,14c4.43,1.74,11.44,7.17,12.54,9.88" stroke-dasharray="16.19" stroke-dashoffset="16.19"><animate attributeName="stroke-dashoffset" values="16.19" fill="freeze" begin="8fe5.click" /><animate id="5" attributeName="stroke-dashoffset" values="16.19;0" dur="0.16s" fill="freeze" begin="4.end" /></path><path d="M13.71,34c4.07,1.44,10.53,5.9,11.54,8.13" stroke-dasharray="14.3" stroke-dashoffset="14.3"><animate attributeName="stroke-dashoffset" values="14.3" fill="freeze" begin="8fe5.click" /><animate id="6" attributeName="stroke-dashoffset" values="14.3;0" dur="0.14s" fill="freeze" begin="5.end" /></path><path d="M10,55.94c2.25,0.85,3.75,0.43,4.75,0.21c1-0.21,8.5-2.49,10-2.92c1.5-0.43,3.75,1.07,2.75,2.35s-4.5,6.19-5.25,7.26c-0.75,1.07-0.5,2.99,1,4.48s3.25,3.7,4,4.98C28,73.59,28,74.66,26.5,75.73c-1.5,1.07-9.5,6.54-11,6.97" stroke-dasharray="57.17" stroke-dashoffset="57.17"><animate attributeName="stroke-dashoffset" values="57.17" fill="freeze" begin="8fe5.click" /><animate id="7" attributeName="stroke-dashoffset" values="57.17;0" dur="0.57s" fill="freeze" begin="6.end" /></path><path d="M11.25,84.65c3.02-0.5,8.99-1.4,13.59-0.76c7.91,1.1,30.77,7.27,35.22,8.57C72.13,96,81.44,97.01,90.5,95.24" stroke-dasharray="80.8" stroke-dashoffset="80.8"><animate attributeName="stroke-dashoffset" values="80.8" fill="freeze" begin="8fe5.click" /><animate id="8" attributeName="stroke-dashoffset" values="80.8;0" dur="0.61s" fill="freeze" begin="7.end" /></path></g></g></g></svg>