<svg xmlns="http://www.w3.org/2000/svg" width="109" height="109" viewBox="0 0 109 109" id="8fe6"><g fill="none" stroke="#666" stroke-width="9" stroke-linecap="round" stroke-linejoin="round"><g><g><g><path d="M36.04,34.37c1.67,0.92,3.96,0.31,5.68-0.01c5.33-1.01,13.17-2.67,17.03-3.44c3.72-0.74,5.16,0.47,4.85,4.34c-0.68,8.6-4.62,31.79-8.61,40.07c-3.46,7.18-6.49,1.42-7.06-0.18" /><path d="M50.62,13.68c0.71,1.33,0.66,3,0.58,4.45C50.25,34.33,46.5,61,34.4,76.07" /></g><g><path d="M70.06,31.27c0.9,0.9,1.43,2.43,1.52,3.73c0.79,11.25,2.27,25.12,2.96,38.49c0.1,2,0.2,3.92,0.27,5.72" /><path d="M72.19,33.22c6.87-1.02,12.15-1.87,16.43-2.24c3.56-0.31,5.16,0.54,4.8,4.26c-0.63,6.41-2.51,24.44-3.62,38.56" /><path d="M76,76.45c4.25-0.29,7.34-0.91,12.04-1.37c1.22-0.12,2.53-0.23,3.98-0.32" /></g></g><g><path d="M18.71,10c3.63,1.74,9.38,7.17,10.29,9.88" /><path d="M11.96,32.5c4.34,0.99,11.21,4.09,12.29,5.63" /><path d="M10.5,54.44c2.25,0.85,3.75,0.43,4.75,0.21c1-0.21,8-2.99,9.5-3.42c1.5-0.43,3.75,1.07,2.75,2.35s-4,6.19-4.75,7.26c-0.75,1.07-0.5,2.99,1,4.48s2.75,3.2,3.5,4.48C28,71.09,28,72.16,26.5,73.23c-1.5,1.07-9,7.04-10.5,7.47" /><path d="M11.75,82.28c2.99-0.56,8.97-1.97,13.46-0.84C29.54,82.53,52.93,88.33,58,90c11.96,3.93,20.25,4.6,31,6" /></g></g></g><g fill="none" stroke="#000" stroke-width="5" stroke-linecap="round" stroke-linejoin="round"><g><g><g><path d="M36.04,34.37c1.67,0.92,3.96,0.31,5.68-0.01c5.33-1.01,13.17-2.67,17.03-3.44c3.72-0.74,5.16,0.47,4.85,4.34c-0.68,8.6-4.62,31.79-8.61,40.07c-3.46,7.18-6.49,1.42-7.06-0.18" stroke-dasharray="83.14" stroke-dashoffset="83.14"><animate id="0" attributeName="stroke-dashoffset" values="83.14;0" dur="0.63s" fill="freeze" begin="0s;8fe6.click" /></path><path d="M50.62,13.68c0.71,1.33,0.66,3,0.58,4.45C50.25,34.33,46.5,61,34.4,76.07" stroke-dasharray="65.71" stroke-dashoffset="65.71"><animate attributeName="stroke-dashoffset" values="65.71" fill="freeze" begin="8fe6.click" /><animate id="1" attributeName="stroke-dashoffset" values="65.71;0" dur="0.49s" fill="freeze" begin="0.end" /></path></g><g><path d="M70.06,31.27c0.9,0.9,1.43,2.43,1.52,3.73c0.79,11.25,2.27,25.12,2.96,38.49c0.1,2,0.2,3.92,0.27,5.72" stroke-dasharray="48.44" stroke-dashoffset="48.44"><animate attributeName="stroke-dashoffset" values="48.44" fill="freeze" begin="8fe6.click" /><animate id="2" attributeName="stroke-dashoffset" values="48.44;0" dur="0.48s" fill="freeze" begin="1.end" /></path><path d="M72.19,33.22c6.87-1.02,12.15-1.87,16.43-2.24c3.56-0.31,5.16,0.54,4.8,4.26c-0.63,6.41-2.51,24.44-3.62,38.56" stroke-dasharray="63.24" stroke-dashoffset="63.24"><animate attributeName="stroke-dashoffset" values="63.24" fill="freeze" begin="8fe6.click" /><animate id="3" attributeName="stroke-dashoffset" values="63.24;0" dur="0.48s" fill="freeze" begin="2.end" /></path><path d="M76,76.45c4.25-0.29,7.34-0.91,12.04-1.37c1.22-0.12,2.53-0.23,3.98-0.32" stroke-dasharray="16.11" stroke-dashoffset="16.11"><animate attributeName="stroke-dashoffset" values="16.11" fill="freeze" begin="8fe6.click" /><animate id="4" attributeName="stroke-dashoffset" values="16.11;0" dur="0.16s" fill="freeze" begin="3.end" /></path></g></g><g><path d="M18.71,10c3.63,1.74,9.38,7.17,10.29,9.88" stroke-dasharray="14.47" stroke-dashoffset="14.47"><animate attributeName="stroke-dashoffset" values="14.47" fill="freeze" begin="8fe6.click" /><animate id="5" attributeName="stroke-dashoffset" values="14.47;0" dur="0.14s" fill="freeze" begin="4.end" /></path><path d="M11.96,32.5c4.34,0.99,11.21,4.09,12.29,5.63" stroke-dasharray="13.64" stroke-dashoffset="13.64"><animate attributeName="stroke-dashoffset" values="13.64" fill="freeze" begin="8fe6.click" /><animate id="6" attributeName="stroke-dashoffset" values="13.64;0" dur="0.14s" fill="freeze" begin="5.end" /></path><path d="M10.5,54.44c2.25,0.85,3.75,0.43,4.75,0.21c1-0.21,8-2.99,9.5-3.42c1.5-0.43,3.75,1.07,2.75,2.35s-4,6.19-4.75,7.26c-0.75,1.07-0.5,2.99,1,4.48s2.75,3.2,3.5,4.48C28,71.09,28,72.16,26.5,73.23c-1.5,1.07-9,7.04-10.5,7.47" stroke-dasharray="55.73" stroke-dashoffset="55.73"><animate attributeName="stroke-dashoffset" values="55.73" fill="freeze" begin="8fe6.click" /><animate id="7" attributeName="stroke-dashoffset" values="55.73;0" dur="0.56s" fill="freeze" begin="6.end" /></path><path d="M11.75,82.28c2.99-0.56,8.97-1.97,13.46-0.84C29.54,82.53,52.93,88.33,58,90c11.96,3.93,20.25,4.6,31,6" stroke-dasharray="79.12" stroke-dashoffset="79.12"><animate attributeName="stroke-dashoffset" values="79.12" fill="freeze" begin="8fe6.click" /><animate id="8" attributeName="stroke-dashoffset" values="79.12;0" dur="0.59s" fill="freeze" begin="7.end" /></path></g></g></g></svg>