<svg xmlns="http://www.w3.org/2000/svg" width="109" height="109" viewBox="0 0 109 109" id="8fea"><g fill="none" stroke="#666" stroke-width="9" stroke-linecap="round" stroke-linejoin="round"><g><g><g p5:partial xmlns:p5="http://kanjivg.tagaini.net"><path d="M42.74,34.73c1.01,1.01,1.56,2.51,1.72,4.14c1.04,10.53,2.11,21.66,3.08,32.13c0.23,2.46,0.45,4.88,0.67,7.24" /><path d="M45.18,36.21c10.5-1.24,27.41-2.52,36.33-3.34c4.24-0.39,6.61,0.9,6.12,5.38c-0.92,8.48-2.35,20.47-3.66,31.26c-0.29,2.41-0.58,4.76-0.86,7" /></g><g><path d="M62.96,11.32c1.11,1.11,1.67,2.3,1.67,4.43c0,12.72-0.06,54.47-0.06,57.79" /></g><g p5:partial xmlns:p5="http://kanjivg.tagaini.net"><path d="M46.96,55.3c8.29-0.8,28.16-2.05,37.98-2.39" /><path d="M49.27,75.27c8.87-0.43,22.24-1.28,32.94-1.44" /></g></g><g><path d="M15.71,17.75c3.63,1.74,9.38,7.17,10.29,9.88" /><path d="M11.25,52.5c1.93,0.86,4.39,0.51,6.41-0.02c3.71-0.98,8.72-3.01,9.84-3.48c2.38-1,3.96,1.22,3,2.75C20.62,67.5,20.12,62.62,29,71c1.22,1.15,1.21,2.45-0.25,3.75c-2.25,2-7.88,6.62-11,9" /><path d="M12.75,84.99c3.38-0.86,9.79-0.99,14.38-0.58c6.5,0.59,30.36,5.68,34.83,6.67c12.12,2.69,18.79,3.54,29.29,3.61" /></g></g></g><g fill="none" stroke="#000" stroke-width="5" stroke-linecap="round" stroke-linejoin="round"><path d="M42.74,34.73c1.01,1.01,1.56,2.51,1.72,4.14c1.04,10.53,2.11,21.66,3.08,32.13c0.23,2.46,0.45,4.88,0.67,7.24" stroke-dasharray="44.12" stroke-dashoffset="44.12"><animate attributeName="stroke-dashoffset" values="44.12;44.12;0" dur="0.441s" fill="freeze" begin="0s;8fea.click" /></path><path d="M45.18,36.21c10.5-1.24,27.41-2.52,36.33-3.34c4.24-0.39,6.61,0.9,6.12,5.38c-0.92,8.48-2.35,20.47-3.66,31.26c-0.29,2.41-0.58,4.76-0.86,7" stroke-dasharray="84.947" stroke-dashoffset="84.947"><animate attributeName="stroke-dashoffset" values="84.947" fill="freeze" begin="8fea.click" /><animate attributeName="stroke-dashoffset" values="84.947;84.947;0" keyTimes="0;0.408;1" dur="1.08s" fill="freeze" begin="0s;8fea.click" /></path><path d="M62.96,11.32c1.11,1.11,1.67,2.3,1.67,4.43c0,12.72-0.06,54.47-0.06,57.79" stroke-dasharray="62.673" stroke-dashoffset="62.673"><animate attributeName="stroke-dashoffset" values="62.673" fill="freeze" begin="8fea.click" /><animate attributeName="stroke-dashoffset" values="62.673;62.673;0" keyTimes="0;0.696;1" dur="1.551s" fill="freeze" begin="0s;8fea.click" /></path><path d="M46.96,55.3c8.29-0.8,28.16-2.05,37.98-2.39" stroke-dasharray="38.06" stroke-dashoffset="38.06"><animate attributeName="stroke-dashoffset" values="38.06" fill="freeze" begin="8fea.click" /><animate attributeName="stroke-dashoffset" values="38.06;38.06;0" keyTimes="0;0.803;1" dur="1.932s" fill="freeze" begin="0s;8fea.click" /></path><path d="M49.27,75.27c8.87-0.43,22.24-1.28,32.94-1.44" stroke-dasharray="32.974" stroke-dashoffset="32.974"><animate attributeName="stroke-dashoffset" values="32.974" fill="freeze" begin="8fea.click" /><animate attributeName="stroke-dashoffset" values="32.974;32.974;0" keyTimes="0;0.854;1" dur="2.262s" fill="freeze" begin="0s;8fea.click" /></path><path d="M15.71,17.75c3.63,1.74,9.38,7.17,10.29,9.88" stroke-dasharray="14.474" stroke-dashoffset="14.474"><animate attributeName="stroke-dashoffset" values="14.474" fill="freeze" begin="8fea.click" /><animate attributeName="stroke-dashoffset" values="14.474;14.474;0" keyTimes="0;0.94;1" dur="2.407s" fill="freeze" begin="0s;8fea.click" /></path><path d="M11.25,52.5c1.93,0.86,4.39,0.51,6.41-0.02c3.71-0.98,8.72-3.01,9.84-3.48c2.38-1,3.96,1.22,3,2.75C20.62,67.5,20.12,62.62,29,71c1.22,1.15,1.21,2.45-0.25,3.75c-2.25,2-7.88,6.62-11,9" stroke-dasharray="65.293" stroke-dashoffset="65.293"><animate attributeName="stroke-dashoffset" values="65.293" fill="freeze" begin="8fea.click" /><animate attributeName="stroke-dashoffset" values="65.293;65.293;0" keyTimes="0;0.831;1" dur="2.898s" fill="freeze" begin="0s;8fea.click" /></path><path d="M12.75,84.99c3.38-0.86,9.79-0.99,14.38-0.58c6.5,0.59,30.36,5.68,34.83,6.67c12.12,2.69,18.79,3.54,29.29,3.61" stroke-dasharray="79.497" stroke-dashoffset="79.497"><animate attributeName="stroke-dashoffset" values="79.497" fill="freeze" begin="8fea.click" /><animate attributeName="stroke-dashoffset" values="79.497;79.497;0" keyTimes="0;0.829;1" dur="3.496s" fill="freeze" begin="0s;8fea.click" /></path></g></svg>