<svg xmlns="http://www.w3.org/2000/svg" width="109" height="109" viewBox="0 0 109 109" id="8ff7"><g fill="none" stroke="#666" stroke-width="9" stroke-linecap="round" stroke-linejoin="round"><g><g p4:phon="米" xmlns:p4="http://kanjivg.tagaini.net"><path d="M44.32,24.39c3.24,2.4,8.12,9.18,8.93,12.91" /><path d="M85.76,21.47c0.08,0.82,0.04,1.63-0.35,2.35c-1.66,3.06-4.79,7.33-8.84,11.48" /><path d="M40.35,47.23c2.15,0.39,4.7,0.36,6.9,0.03c10.19-1.5,27.19-3.32,36.64-4.23c2.47-0.24,5.03-0.35,7.47,0.27" /><path d="M64.77,11.96c0.88,0.88,1.34,2.29,1.34,3.69c0,5.22-0.08,55.47-0.08,60.6c0,4.36-0.06,7.48-0.1,8.54" /><path d="M62.27,46.71c0,0.91-0.35,1.92-1.19,3.47c-4.94,9.08-13.79,19.5-21.83,24.3" /><path d="M70.62,51.32c7.61,5.13,14.2,11.26,19.9,20.9" /></g><g><path d="M18.21,20.25c3.63,1.74,9.38,7.17,10.29,9.88" /><path d="M12.5,56.25c1.62,0.5,3.77,0.54,4.75,0.23c3.12-0.98,7.79-3.53,10-4.49c2-0.87,3.48,0.05,2.25,2.57c-6.5,13.31-7.88,7.56-0.25,17.01c1,1.24,1,2.82-0.5,3.99s-6.88,5.56-10.25,7.93" /><path d="M13.5,85.25c3-0.5,9.17-0.78,13.75-0.25c7.5,0.88,30.07,6.96,34.5,8.25c12,3.5,18.38,3.88,26,4.25" /></g></g></g><g fill="none" stroke="#000" stroke-width="5" stroke-linecap="round" stroke-linejoin="round"><g><g p4:phon="米" xmlns:p4="http://kanjivg.tagaini.net"><path d="M44.32,24.39c3.24,2.4,8.12,9.18,8.93,12.91" stroke-dasharray="15.9" stroke-dashoffset="15.9"><animate id="0" attributeName="stroke-dashoffset" values="15.9;0" dur="0.16s" fill="freeze" begin="0s;8ff7.click" /></path><path d="M85.76,21.47c0.08,0.82,0.04,1.63-0.35,2.35c-1.66,3.06-4.79,7.33-8.84,11.48" stroke-dasharray="16.94" stroke-dashoffset="16.94"><animate attributeName="stroke-dashoffset" values="16.94" fill="freeze" begin="8ff7.click" /><animate id="1" attributeName="stroke-dashoffset" values="16.94;0" dur="0.17s" fill="freeze" begin="0.end" /></path><path d="M40.35,47.23c2.15,0.39,4.7,0.36,6.9,0.03c10.19-1.5,27.19-3.32,36.64-4.23c2.47-0.24,5.03-0.35,7.47,0.27" stroke-dasharray="51.33" stroke-dashoffset="51.33"><animate attributeName="stroke-dashoffset" values="51.33" fill="freeze" begin="8ff7.click" /><animate id="2" attributeName="stroke-dashoffset" values="51.33;0" dur="0.51s" fill="freeze" begin="1.end" /></path><path d="M64.77,11.96c0.88,0.88,1.34,2.29,1.34,3.69c0,5.22-0.08,55.47-0.08,60.6c0,4.36-0.06,7.48-0.1,8.54" stroke-dasharray="73.16" stroke-dashoffset="73.16"><animate attributeName="stroke-dashoffset" values="73.16" fill="freeze" begin="8ff7.click" /><animate id="3" attributeName="stroke-dashoffset" values="73.16;0" dur="0.55s" fill="freeze" begin="2.end" /></path><path d="M62.27,46.71c0,0.91-0.35,1.92-1.19,3.47c-4.94,9.08-13.79,19.5-21.83,24.3" stroke-dasharray="36.69" stroke-dashoffset="36.69"><animate attributeName="stroke-dashoffset" values="36.69" fill="freeze" begin="8ff7.click" /><animate id="4" attributeName="stroke-dashoffset" values="36.69;0" dur="0.37s" fill="freeze" begin="3.end" /></path><path d="M70.62,51.32c7.61,5.13,14.2,11.26,19.9,20.9" stroke-dasharray="29.12" stroke-dashoffset="29.12"><animate attributeName="stroke-dashoffset" values="29.12" fill="freeze" begin="8ff7.click" /><animate id="5" attributeName="stroke-dashoffset" values="29.12;0" dur="0.29s" fill="freeze" begin="4.end" /></path></g><g><path d="M18.21,20.25c3.63,1.74,9.38,7.17,10.29,9.88" stroke-dasharray="14.47" stroke-dashoffset="14.47"><animate attributeName="stroke-dashoffset" values="14.47" fill="freeze" begin="8ff7.click" /><animate id="6" attributeName="stroke-dashoffset" values="14.47;0" dur="0.14s" fill="freeze" begin="5.end" /></path><path d="M12.5,56.25c1.62,0.5,3.77,0.54,4.75,0.23c3.12-0.98,7.79-3.53,10-4.49c2-0.87,3.48,0.05,2.25,2.57c-6.5,13.31-7.88,7.56-0.25,17.01c1,1.24,1,2.82-0.5,3.99s-6.88,5.56-10.25,7.93" stroke-dasharray="58.74" stroke-dashoffset="58.74"><animate attributeName="stroke-dashoffset" values="58.74" fill="freeze" begin="8ff7.click" /><animate id="7" attributeName="stroke-dashoffset" values="58.74;0" dur="0.59s" fill="freeze" begin="6.end" /></path><path d="M13.5,85.25c3-0.5,9.17-0.78,13.75-0.25c7.5,0.88,30.07,6.96,34.5,8.25c12,3.5,18.38,3.88,26,4.25" stroke-dasharray="75.7" stroke-dashoffset="75.7"><animate attributeName="stroke-dashoffset" values="75.7" fill="freeze" begin="8ff7.click" /><animate id="8" attributeName="stroke-dashoffset" values="75.7;0" dur="0.57s" fill="freeze" begin="7.end" /></path></g></g></g></svg>