<svg xmlns="http://www.w3.org/2000/svg" width="109" height="109" viewBox="0 0 109 109" id="900e"><g fill="none" stroke="#666" stroke-width="9" stroke-linecap="round" stroke-linejoin="round"><g><g><g p5:part="1" xmlns:p5="http://kanjivg.tagaini.net"><path d="M37.99,16.1c1.58,0.39,4.45,0.48,6.04,0.39c13.98-0.78,31.94-1.6,40.6-1.81c2.62-0.06,4.2,0.19,5.52,0.38" /><path d="M40.79,32.13c0.62,1.18,0.86,4.02,0.86,5.59c0,1.57,0.04,42.16,0.04,42.62" /><path d="M42,34.56c3.52-0.2,39.9-2.36,42.9-2.49c2.5-0.11,3.8,1.95,3.8,4.54c0,1.45-0.94,32.64-1.99,42.78" /><path d="M56.68,19.33c0.36,1.24,0.86,2.31,0.84,3.65c-0.27,13.78-1.77,23.28-8.87,29.77" /><path d="M68.59,18.33c0.54,1.14,0.97,2.48,1,4.22c0.1,5.56-0.24,16.89-0.28,23.75c-0.04,5.96,1.51,6.7,6.65,6.7c3.26,0,8.99-0.74,9.36-1.41" /></g><g><path d="M42.25,65.64c4.53,0,40.15-2,45.26-2" /></g><g p5:part="2" xmlns:p5="http://kanjivg.tagaini.net"><path d="M42.47,77.71c9.22-0.31,33.32-1.88,44.79-2.15" /></g></g><g><path d="M17.21,12.25c3.99,1.74,10.3,7.17,11.29,9.88" /><path d="M16.71,31.5c3.9,1.66,10.07,6.81,11.04,9.38" /><path d="M11.5,53.19c2.25,0.85,3.75,0.43,4.75,0.21c1-0.21,7.5-1.99,9-2.42c1.5-0.43,3.75,1.07,2.75,2.35s-4.5,6.69-5.25,7.76c-0.75,1.07-0.5,2.99,1,4.48s2.75,2.7,3.5,3.98C28,70.84,28,71.91,26.5,72.98c-1.5,1.07-7.75,7.02-11,9.47" /><path d="M11.75,83.9c4.25-1.4,11.65-1.76,15.98-0.76c8.02,1.85,25.92,7.77,30.18,9.07c11.54,3.53,20.44,4.54,29.09,2.77" /></g></g></g><g fill="none" stroke="#000" stroke-width="5" stroke-linecap="round" stroke-linejoin="round"><g><g><g p5:part="1" xmlns:p5="http://kanjivg.tagaini.net"><path d="M37.99,16.1c1.58,0.39,4.45,0.48,6.04,0.39c13.98-0.78,31.94-1.6,40.6-1.81c2.62-0.06,4.2,0.19,5.52,0.38" stroke-dasharray="52.25" stroke-dashoffset="52.25"><animate id="0" attributeName="stroke-dashoffset" values="52.25;0" dur="0.52s" fill="freeze" begin="0s;900e.click" /></path><path d="M40.79,32.13c0.62,1.18,0.86,4.02,0.86,5.59c0,1.57,0.04,42.16,0.04,42.62" stroke-dasharray="48.31" stroke-dashoffset="48.31"><animate attributeName="stroke-dashoffset" values="48.31" fill="freeze" begin="900e.click" /><animate id="1" attributeName="stroke-dashoffset" values="48.31;0" dur="0.48s" fill="freeze" begin="0.end" /></path><path d="M42,34.56c3.52-0.2,39.9-2.36,42.9-2.49c2.5-0.11,3.8,1.95,3.8,4.54c0,1.45-0.94,32.64-1.99,42.78" stroke-dasharray="92.52" stroke-dashoffset="92.52"><animate attributeName="stroke-dashoffset" values="92.52" fill="freeze" begin="900e.click" /><animate id="2" attributeName="stroke-dashoffset" values="92.52;0" dur="0.7s" fill="freeze" begin="1.end" /></path><path d="M56.68,19.33c0.36,1.24,0.86,2.31,0.84,3.65c-0.27,13.78-1.77,23.28-8.87,29.77" stroke-dasharray="35.75" stroke-dashoffset="35.75"><animate attributeName="stroke-dashoffset" values="35.75" fill="freeze" begin="900e.click" /><animate id="3" attributeName="stroke-dashoffset" values="35.75;0" dur="0.36s" fill="freeze" begin="2.end" /></path><path d="M68.59,18.33c0.54,1.14,0.97,2.48,1,4.22c0.1,5.56-0.24,16.89-0.28,23.75c-0.04,5.96,1.51,6.7,6.65,6.7c3.26,0,8.99-0.74,9.36-1.41" stroke-dasharray="49.08" stroke-dashoffset="49.08"><animate attributeName="stroke-dashoffset" values="49.08" fill="freeze" begin="900e.click" /><animate id="4" attributeName="stroke-dashoffset" values="49.08;0" dur="0.49s" fill="freeze" begin="3.end" /></path></g><g><path d="M42.25,65.64c4.53,0,40.15-2,45.26-2" stroke-dasharray="45.31" stroke-dashoffset="45.31"><animate attributeName="stroke-dashoffset" values="45.31" fill="freeze" begin="900e.click" /><animate id="5" attributeName="stroke-dashoffset" values="45.31;0" dur="0.45s" fill="freeze" begin="4.end" /></path></g><g p5:part="2" xmlns:p5="http://kanjivg.tagaini.net"><path d="M42.47,77.71c9.22-0.31,33.32-1.88,44.79-2.15" stroke-dasharray="44.84" stroke-dashoffset="44.84"><animate attributeName="stroke-dashoffset" values="44.84" fill="freeze" begin="900e.click" /><animate id="6" attributeName="stroke-dashoffset" values="44.84;0" dur="0.45s" fill="freeze" begin="5.end" /></path></g></g><g><path d="M17.21,12.25c3.99,1.74,10.3,7.17,11.29,9.88" stroke-dasharray="15.22" stroke-dashoffset="15.22"><animate attributeName="stroke-dashoffset" values="15.22" fill="freeze" begin="900e.click" /><animate id="7" attributeName="stroke-dashoffset" values="15.22;0" dur="0.15s" fill="freeze" begin="6.end" /></path><path d="M16.71,31.5c3.9,1.66,10.07,6.81,11.04,9.38" stroke-dasharray="14.69" stroke-dashoffset="14.69"><animate attributeName="stroke-dashoffset" values="14.69" fill="freeze" begin="900e.click" /><animate id="8" attributeName="stroke-dashoffset" values="14.69;0" dur="0.15s" fill="freeze" begin="7.end" /></path><path d="M11.5,53.19c2.25,0.85,3.75,0.43,4.75,0.21c1-0.21,7.5-1.99,9-2.42c1.5-0.43,3.75,1.07,2.75,2.35s-4.5,6.69-5.25,7.76c-0.75,1.07-0.5,2.99,1,4.48s2.75,2.7,3.5,3.98C28,70.84,28,71.91,26.5,72.98c-1.5,1.07-7.75,7.02-11,9.47" stroke-dasharray="56.87" stroke-dashoffset="56.87"><animate attributeName="stroke-dashoffset" values="56.87" fill="freeze" begin="900e.click" /><animate id="9" attributeName="stroke-dashoffset" values="56.87;0" dur="0.57s" fill="freeze" begin="8.end" /></path><path d="M11.75,83.9c4.25-1.4,11.65-1.76,15.98-0.76c8.02,1.85,25.92,7.77,30.18,9.07c11.54,3.53,20.44,4.54,29.09,2.77" stroke-dasharray="77.21" stroke-dashoffset="77.21"><animate attributeName="stroke-dashoffset" values="77.21" fill="freeze" begin="900e.click" /><animate id="10" attributeName="stroke-dashoffset" values="77.21;0" dur="0.58s" fill="freeze" begin="9.end" /></path></g></g></g></svg>