<svg xmlns="http://www.w3.org/2000/svg" width="109" height="109" viewBox="0 0 109 109" id="901e"><g fill="none" stroke="#666" stroke-width="9" stroke-linecap="round" stroke-linejoin="round"><g><g><g><path d="M44.73,16.42c0.45,0.4,0.92,0.74,1.12,1.24c1.57,3.99,2.3,11.69,3.99,21.16" /><path d="M46.59,18.04c8.16-0.54,28.96-2.56,33.75-3.02c1.75-0.17,2.8,1.69,2.55,2.68c-1.04,4.09-2.15,10.3-3.95,16.6" /><path d="M50.21,36.47c6.05-0.33,23.05-1.64,30.74-1.97" /></g><g p5:partial xmlns:p5="http://kanjivg.tagaini.net"><path d="M45.95,47.05c0.73,0.42,3.1,0.06,3.85,0.03c6.7-0.33,23.68-1.56,31.95-2c1.13-0.06,2.15,0.08,3.08,0.44" /><path d="M63.62,49.08c0.77,1.02,0.77,1.63,0.77,2.44c0,5.71,0.19,19.56,0,25.26" /><path d="M46.64,62.32c0.72,0.46,3.11,0.28,3.85,0.2c7.7-0.81,20.87-1.44,29.91-2.27c0.9-0.08,2.89-0.19,4.24,0.22" /><path d="M37.75,78.03c0.71,0.26,4.38,0.56,5.58,0.5C54,78,70,76.75,88.3,76.54c1.92-0.02,4.23,0.43,5.2,0.84" /></g></g><g><path d="M17.21,14c3.99,1.48,10.3,6.08,11.29,8.38" /><path d="M13.71,33.5c4.07,1.52,10.53,6.26,11.54,8.63" /><path d="M10.5,55.94c2.25,0.85,4.75,0.43,5.75,0.21c1-0.21,7-2.99,8.5-3.42c1.5-0.43,3.75,1.07,2.75,2.35s-4,6.19-4.75,7.26c-0.75,1.07-0.5,2.99,1,4.48s2.75,3.2,3.5,4.48C28,72.59,28,73.66,26.5,74.73c-1.5,1.07-9,7.04-10.5,7.47" /><path d="M11.25,84.65c3.01-0.5,11.67-1.06,16.25-0.4c7,1,27.46,7.42,31.9,8.72c12.04,3.53,21.32,4.54,30.35,2.77" /></g></g></g><g fill="none" stroke="#000" stroke-width="5" stroke-linecap="round" stroke-linejoin="round"><g><g><g><path d="M44.73,16.42c0.45,0.4,0.92,0.74,1.12,1.24c1.57,3.99,2.3,11.69,3.99,21.16" stroke-dasharray="23.25" stroke-dashoffset="23.25"><animate id="0" attributeName="stroke-dashoffset" values="23.25;0" dur="0.23s" fill="freeze" begin="0s;901e.click" /></path><path d="M46.59,18.04c8.16-0.54,28.96-2.56,33.75-3.02c1.75-0.17,2.8,1.69,2.55,2.68c-1.04,4.09-2.15,10.3-3.95,16.6" stroke-dasharray="55.18" stroke-dashoffset="55.18"><animate attributeName="stroke-dashoffset" values="55.18" fill="freeze" begin="901e.click" /><animate id="1" attributeName="stroke-dashoffset" values="55.18;0" dur="0.55s" fill="freeze" begin="0.end" /></path><path d="M50.21,36.47c6.05-0.33,23.05-1.64,30.74-1.97" stroke-dasharray="30.8" stroke-dashoffset="30.8"><animate attributeName="stroke-dashoffset" values="30.8" fill="freeze" begin="901e.click" /><animate id="2" attributeName="stroke-dashoffset" values="30.8;0" dur="0.31s" fill="freeze" begin="1.end" /></path></g><g p5:partial xmlns:p5="http://kanjivg.tagaini.net"><path d="M45.95,47.05c0.73,0.42,3.1,0.06,3.85,0.03c6.7-0.33,23.68-1.56,31.95-2c1.13-0.06,2.15,0.08,3.08,0.44" stroke-dasharray="39.03" stroke-dashoffset="39.03"><animate attributeName="stroke-dashoffset" values="39.03" fill="freeze" begin="901e.click" /><animate id="3" attributeName="stroke-dashoffset" values="39.03;0" dur="0.39s" fill="freeze" begin="2.end" /></path><path d="M63.62,49.08c0.77,1.02,0.77,1.63,0.77,2.44c0,5.71,0.19,19.56,0,25.26" stroke-dasharray="27.88" stroke-dashoffset="27.88"><animate attributeName="stroke-dashoffset" values="27.88" fill="freeze" begin="901e.click" /><animate id="4" attributeName="stroke-dashoffset" values="27.88;0" dur="0.28s" fill="freeze" begin="3.end" /></path><path d="M46.64,62.32c0.72,0.46,3.11,0.28,3.85,0.2c7.7-0.81,20.87-1.44,29.91-2.27c0.9-0.08,2.89-0.19,4.24,0.22" stroke-dasharray="38.16" stroke-dashoffset="38.16"><animate attributeName="stroke-dashoffset" values="38.16" fill="freeze" begin="901e.click" /><animate id="5" attributeName="stroke-dashoffset" values="38.16;0" dur="0.38s" fill="freeze" begin="4.end" /></path><path d="M37.75,78.03c0.71,0.26,4.38,0.56,5.58,0.5C54,78,70,76.75,88.3,76.54c1.92-0.02,4.23,0.43,5.2,0.84" stroke-dasharray="55.93" stroke-dashoffset="55.93"><animate attributeName="stroke-dashoffset" values="55.93" fill="freeze" begin="901e.click" /><animate id="6" attributeName="stroke-dashoffset" values="55.93;0" dur="0.56s" fill="freeze" begin="5.end" /></path></g></g><g><path d="M17.21,14c3.99,1.48,10.3,6.08,11.29,8.38" stroke-dasharray="14.25" stroke-dashoffset="14.25"><animate attributeName="stroke-dashoffset" values="14.25" fill="freeze" begin="901e.click" /><animate id="7" attributeName="stroke-dashoffset" values="14.25;0" dur="0.14s" fill="freeze" begin="6.end" /></path><path d="M13.71,33.5c4.07,1.52,10.53,6.26,11.54,8.63" stroke-dasharray="14.61" stroke-dashoffset="14.61"><animate attributeName="stroke-dashoffset" values="14.61" fill="freeze" begin="901e.click" /><animate id="8" attributeName="stroke-dashoffset" values="14.61;0" dur="0.15s" fill="freeze" begin="7.end" /></path><path d="M10.5,55.94c2.25,0.85,4.75,0.43,5.75,0.21c1-0.21,7-2.99,8.5-3.42c1.5-0.43,3.75,1.07,2.75,2.35s-4,6.19-4.75,7.26c-0.75,1.07-0.5,2.99,1,4.48s2.75,3.2,3.5,4.48C28,72.59,28,73.66,26.5,74.73c-1.5,1.07-9,7.04-10.5,7.47" stroke-dasharray="55.79" stroke-dashoffset="55.79"><animate attributeName="stroke-dashoffset" values="55.79" fill="freeze" begin="901e.click" /><animate id="9" attributeName="stroke-dashoffset" values="55.79;0" dur="0.56s" fill="freeze" begin="8.end" /></path><path d="M11.25,84.65c3.01-0.5,11.67-1.06,16.25-0.4c7,1,27.46,7.42,31.9,8.72c12.04,3.53,21.32,4.54,30.35,2.77" stroke-dasharray="80.17" stroke-dashoffset="80.17"><animate attributeName="stroke-dashoffset" values="80.17" fill="freeze" begin="901e.click" /><animate id="10" attributeName="stroke-dashoffset" values="80.17;0" dur="0.6s" fill="freeze" begin="9.end" /></path></g></g></g></svg>