<svg xmlns="http://www.w3.org/2000/svg" width="109" height="109" viewBox="0 0 109 109" id="9045"><g fill="none" stroke="#666" stroke-width="9" stroke-linecap="round" stroke-linejoin="round"><g><g><path d="M45.78,16.09c1.27,0.47,3.75,0.89,5.1,0.79c6.18-0.44,24.04-2.32,31.14-3c3.22-0.31,5.73-0.05,4.12,3.8c-1.12,2.7-1.84,4.72-2.79,9" /><path d="M50.66,30.35c2.83-0.12,19.2-1.46,28.58-2.13c2.75-0.2,4.84-0.34,5.71-0.37" /><path d="M48.43,17.25c0.82,0.75,1.25,2.09,1.24,3c-0.23,26.39-3.29,43.63-12.91,57.5" /></g><g><path d="M59.79,35.59c1.65,1.19,4.26,4.91,4.68,6.77" /><path d="M79.89,32.39c0.05,0.71-0.01,1.4-0.29,2.05c-1.35,3.06-2.85,5.43-5.67,9.01" /><path d="M53.71,47.39c2.04,0.48,4.18,0.15,6.05-0.05c6.13-0.64,17.05-2.23,23.73-2.73c2.02-0.15,4.11-0.31,6.12,0.06" /><path d="M55.18,58.44c1.52,0.62,3.62,0.15,5.18-0.01c5.92-0.58,16.37-1.83,22.26-2.15c1.55-0.08,3.19-0.21,4.71,0.17" /><path d="M50.25,70.63c2.24,0.8,4.83,0.45,7.12,0.2c8.04-0.87,22.05-2.81,31.01-3.13c2.03-0.07,4.13-0.16,6.12,0.27" /><path d="M70.65,48.56c0.83,0.83,1.02,2.06,1.02,3.56c0,6.51,0.14,15.5,0.07,28.88c-0.01,1.91-0.02,3.76-0.02,5.5" /></g><g><path d="M20.25,18.75c3.88,1.88,10.03,7.71,11,10.63" /><path d="M13.25,50.75c2.25,1,3.75,0.5,4.75,0.25s8.75-3.5,10.25-4s3.59,1.16,2.75,2.75c-7.25,13.75-8,9.25-0.25,19c1.04,1.31,0.75,2.75-0.75,4S21,81,19.5,81.5" /><path d="M15.25,83.5c3-0.5,8.96-1.55,13.5-0.75c8.5,1.5,28.75,7,34.5,8.5c12.1,3.16,17.25,4.25,27.25,4.5" /></g></g></g><g fill="none" stroke="#000" stroke-width="5" stroke-linecap="round" stroke-linejoin="round"><path d="M45.78,16.09c1.27,0.47,3.75,0.89,5.1,0.79c6.18-0.44,24.04-2.32,31.14-3c3.22-0.31,5.73-0.05,4.12,3.8c-1.12,2.7-1.84,4.72-2.79,9" stroke-dasharray="53.653" stroke-dashoffset="53.653"><animate attributeName="stroke-dashoffset" values="53.653;53.653;0" dur="0.537s" fill="freeze" begin="0s;9045.click" /></path><path d="M50.66,30.35c2.83-0.12,19.2-1.46,28.58-2.13c2.75-0.2,4.84-0.34,5.71-0.37" stroke-dasharray="34.383" stroke-dashoffset="34.383"><animate attributeName="stroke-dashoffset" values="34.383" fill="freeze" begin="9045.click" /><animate attributeName="stroke-dashoffset" values="34.383;34.383;0" keyTimes="0;0.61;1" dur="0.881s" fill="freeze" begin="0s;9045.click" /></path><path d="M48.43,17.25c0.82,0.75,1.25,2.09,1.24,3c-0.23,26.39-3.29,43.63-12.91,57.5" stroke-dasharray="63.178" stroke-dashoffset="63.178"><animate attributeName="stroke-dashoffset" values="63.178" fill="freeze" begin="9045.click" /><animate attributeName="stroke-dashoffset" values="63.178;63.178;0" keyTimes="0;0.65;1" dur="1.356s" fill="freeze" begin="0s;9045.click" /></path><path d="M59.79,35.59c1.65,1.19,4.26,4.91,4.68,6.77" stroke-dasharray="8.334" stroke-dashoffset="8.334"><animate attributeName="stroke-dashoffset" values="8.334" fill="freeze" begin="9045.click" /><animate attributeName="stroke-dashoffset" values="8.334;8.334;0" keyTimes="0;0.942;1" dur="1.439s" fill="freeze" begin="0s;9045.click" /></path><path d="M79.89,32.39c0.05,0.71-0.01,1.4-0.29,2.05c-1.35,3.06-2.85,5.43-5.67,9.01" stroke-dasharray="12.769" stroke-dashoffset="12.769"><animate attributeName="stroke-dashoffset" values="12.769" fill="freeze" begin="9045.click" /><animate attributeName="stroke-dashoffset" values="12.769;12.769;0" keyTimes="0;0.918;1" dur="1.567s" fill="freeze" begin="0s;9045.click" /></path><path d="M53.71,47.39c2.04,0.48,4.18,0.15,6.05-0.05c6.13-0.64,17.05-2.23,23.73-2.73c2.02-0.15,4.11-0.31,6.12,0.06" stroke-dasharray="36.11" stroke-dashoffset="36.11"><animate attributeName="stroke-dashoffset" values="36.11" fill="freeze" begin="9045.click" /><animate attributeName="stroke-dashoffset" values="36.11;36.11;0" keyTimes="0;0.813;1" dur="1.928s" fill="freeze" begin="0s;9045.click" /></path><path d="M55.18,58.44c1.52,0.62,3.62,0.15,5.18-0.01c5.92-0.58,16.37-1.83,22.26-2.15c1.55-0.08,3.19-0.21,4.71,0.17" stroke-dasharray="32.333" stroke-dashoffset="32.333"><animate attributeName="stroke-dashoffset" values="32.333" fill="freeze" begin="9045.click" /><animate attributeName="stroke-dashoffset" values="32.333;32.333;0" keyTimes="0;0.857;1" dur="2.251s" fill="freeze" begin="0s;9045.click" /></path><path d="M50.25,70.63c2.24,0.8,4.83,0.45,7.12,0.2c8.04-0.87,22.05-2.81,31.01-3.13c2.03-0.07,4.13-0.16,6.12,0.27" stroke-dasharray="44.506" stroke-dashoffset="44.506"><animate attributeName="stroke-dashoffset" values="44.506" fill="freeze" begin="9045.click" /><animate attributeName="stroke-dashoffset" values="44.506;44.506;0" keyTimes="0;0.835;1" dur="2.696s" fill="freeze" begin="0s;9045.click" /></path><path d="M70.65,48.56c0.83,0.83,1.02,2.06,1.02,3.56c0,6.51,0.14,15.5,0.07,28.88c-0.01,1.91-0.02,3.76-0.02,5.5" stroke-dasharray="38.185" stroke-dashoffset="38.185"><animate attributeName="stroke-dashoffset" values="38.185" fill="freeze" begin="9045.click" /><animate attributeName="stroke-dashoffset" values="38.185;38.185;0" keyTimes="0;0.876;1" dur="3.078s" fill="freeze" begin="0s;9045.click" /></path><path d="M20.25,18.75c3.88,1.88,10.03,7.71,11,10.63" stroke-dasharray="15.52" stroke-dashoffset="15.52"><animate attributeName="stroke-dashoffset" values="15.52" fill="freeze" begin="9045.click" /><animate attributeName="stroke-dashoffset" values="15.52;15.52;0" keyTimes="0;0.952;1" dur="3.233s" fill="freeze" begin="0s;9045.click" /></path><path d="M13.25,50.75c2.25,1,3.75,0.5,4.75,0.25s8.75-3.5,10.25-4s3.59,1.16,2.75,2.75c-7.25,13.75-8,9.25-0.25,19c1.04,1.31,0.75,2.75-0.75,4S21,81,19.5,81.5" stroke-dasharray="61.327" stroke-dashoffset="61.327"><animate attributeName="stroke-dashoffset" values="61.327" fill="freeze" begin="9045.click" /><animate attributeName="stroke-dashoffset" values="61.327;61.327;0" keyTimes="0;0.875;1" dur="3.694s" fill="freeze" begin="0s;9045.click" /></path><path d="M15.25,83.5c3-0.5,8.96-1.55,13.5-0.75c8.5,1.5,28.75,7,34.5,8.5c12.1,3.16,17.25,4.25,27.25,4.5" stroke-dasharray="76.824" stroke-dashoffset="76.824"><animate attributeName="stroke-dashoffset" values="76.824" fill="freeze" begin="9045.click" /><animate attributeName="stroke-dashoffset" values="76.824;76.824;0" keyTimes="0;0.865;1" dur="4.272s" fill="freeze" begin="0s;9045.click" /></path></g></svg>