<svg xmlns="http://www.w3.org/2000/svg" width="109" height="109" viewBox="0 0 109 109" id="904e"><g fill="none" stroke="#666" stroke-width="9" stroke-linecap="round" stroke-linejoin="round"><g><g p4:phon="咼" xmlns:p4="http://kanjivg.tagaini.net"><path d="M48.8,15.94c1,1,1.32,2.56,1.55,4.2c0.95,6.89,1.65,15.93,2.18,24.55" /><path d="M50.35,17.12c5.51-0.7,20.88-2.44,27.67-3.18c3.68-0.4,5.23,0.68,4.91,4.44c-0.48,5.57-1.69,18.42-2.32,23.71" /><path d="M64.14,27.29c0.85,0.85,1.37,2.08,1.37,3.23c0,0.85-0.06,7.1-0.06,12.87" /><path d="M66.38,28.88c2.45-0.21,11.1-1.43,14.6-1.85" /><g><path d="M41.75,44.69c1.15,1.15,1.46,2.74,1.65,4.62c0.86,8.55,1.73,17.44,2.52,24.69c0.22,2.02,0.43,3.92,0.63,5.65" /><path d="M44.15,46.8c5.59-0.71,32-3.05,41.1-3.95c4.66-0.46,7.02,0.75,6.71,5.78c-0.43,7.04-2.43,22.39-4.93,29.24c-2.89,7.91-5.23,2.74-7.33,0.01" /></g><g><path d="M56,55.77c0.8,0.8,0.99,1.52,1.15,2.47c0.55,3.33,0.9,5.72,1.51,9c0.19,1.03,0.41,2.14,0.67,3.4" /><path d="M57.99,56.82c7.14-0.94,12.18-1.58,15.64-2.02c2.54-0.32,3.5,0.38,2.93,2.97c-0.68,3.08-1.42,5.13-2.22,8.12" /><path d="M60.22,68.44c3.26-0.39,7.78-0.85,12.32-1.4c1.11-0.14,2.22-0.28,3.32-0.42" /></g></g><g><path d="M20.38,19.12c3.84,1.77,9.92,7.26,10.88,10.01" /><path d="M12.75,50.75c2.25,1,3.75,0.5,4.75,0.25s9.75-3.75,11.25-4.25s3.16,0.57,2.25,2.5c-6.75,14.25-7.38,9.75-0.25,19c1.48,1.92,1.25,3.25-0.25,4.5S21.5,81,20,81.5" /><path d="M15.25,83.25c3-0.5,8.94-1.17,13.5-0.5c6,0.88,30.07,7.21,34.5,8.5c12,3.5,17.38,4.38,26.75,4.5" /></g></g></g><g fill="none" stroke="#000" stroke-width="5" stroke-linecap="round" stroke-linejoin="round"><g><g p4:phon="咼" xmlns:p4="http://kanjivg.tagaini.net"><path d="M48.8,15.94c1,1,1.32,2.56,1.55,4.2c0.95,6.89,1.65,15.93,2.18,24.55" stroke-dasharray="29.21" stroke-dashoffset="29.21"><animate id="0" attributeName="stroke-dashoffset" values="29.21;0" dur="0.29s" fill="freeze" begin="0s;904e.click" /></path><path d="M50.35,17.12c5.51-0.7,20.88-2.44,27.67-3.18c3.68-0.4,5.23,0.68,4.91,4.44c-0.48,5.57-1.69,18.42-2.32,23.71" stroke-dasharray="59.84" stroke-dashoffset="59.84"><animate attributeName="stroke-dashoffset" values="59.84" fill="freeze" begin="904e.click" /><animate id="1" attributeName="stroke-dashoffset" values="59.84;0" dur="0.6s" fill="freeze" begin="0.end" /></path><path d="M64.14,27.29c0.85,0.85,1.37,2.08,1.37,3.23c0,0.85-0.06,7.1-0.06,12.87" stroke-dasharray="16.47" stroke-dashoffset="16.47"><animate attributeName="stroke-dashoffset" values="16.47" fill="freeze" begin="904e.click" /><animate id="2" attributeName="stroke-dashoffset" values="16.47;0" dur="0.16s" fill="freeze" begin="1.end" /></path><path d="M66.38,28.88c2.45-0.21,11.1-1.43,14.6-1.85" stroke-dasharray="14.72" stroke-dashoffset="14.72"><animate attributeName="stroke-dashoffset" values="14.72" fill="freeze" begin="904e.click" /><animate id="3" attributeName="stroke-dashoffset" values="14.72;0" dur="0.15s" fill="freeze" begin="2.end" /></path><g><path d="M41.75,44.69c1.15,1.15,1.46,2.74,1.65,4.62c0.86,8.55,1.73,17.44,2.52,24.69c0.22,2.02,0.43,3.92,0.63,5.65" stroke-dasharray="35.51" stroke-dashoffset="35.51"><animate attributeName="stroke-dashoffset" values="35.51" fill="freeze" begin="904e.click" /><animate id="4" attributeName="stroke-dashoffset" values="35.51;0" dur="0.36s" fill="freeze" begin="3.end" /></path><path d="M44.15,46.8c5.59-0.71,32-3.05,41.1-3.95c4.66-0.46,7.02,0.75,6.71,5.78c-0.43,7.04-2.43,22.39-4.93,29.24c-2.89,7.91-5.23,2.74-7.33,0.01" stroke-dasharray="93.4" stroke-dashoffset="93.4"><animate attributeName="stroke-dashoffset" values="93.4" fill="freeze" begin="904e.click" /><animate id="5" attributeName="stroke-dashoffset" values="93.4;0" dur="0.7s" fill="freeze" begin="4.end" /></path></g><g><path d="M56,55.77c0.8,0.8,0.99,1.52,1.15,2.47c0.55,3.33,0.9,5.72,1.51,9c0.19,1.03,0.41,2.14,0.67,3.4" stroke-dasharray="15.37" stroke-dashoffset="15.37"><animate attributeName="stroke-dashoffset" values="15.37" fill="freeze" begin="904e.click" /><animate id="6" attributeName="stroke-dashoffset" values="15.37;0" dur="0.15s" fill="freeze" begin="5.end" /></path><path d="M57.99,56.82c7.14-0.94,12.18-1.58,15.64-2.02c2.54-0.32,3.5,0.38,2.93,2.97c-0.68,3.08-1.42,5.13-2.22,8.12" stroke-dasharray="29.64" stroke-dashoffset="29.64"><animate attributeName="stroke-dashoffset" values="29.64" fill="freeze" begin="904e.click" /><animate id="7" attributeName="stroke-dashoffset" values="29.64;0" dur="0.3s" fill="freeze" begin="6.end" /></path><path d="M60.22,68.44c3.26-0.39,7.78-0.85,12.32-1.4c1.11-0.14,2.22-0.28,3.32-0.42" stroke-dasharray="15.75" stroke-dashoffset="15.75"><animate attributeName="stroke-dashoffset" values="15.75" fill="freeze" begin="904e.click" /><animate id="8" attributeName="stroke-dashoffset" values="15.75;0" dur="0.16s" fill="freeze" begin="7.end" /></path></g></g><g><path d="M20.38,19.12c3.84,1.77,9.92,7.26,10.88,10.01" stroke-dasharray="15" stroke-dashoffset="15"><animate attributeName="stroke-dashoffset" values="15" fill="freeze" begin="904e.click" /><animate id="9" attributeName="stroke-dashoffset" values="15;0" dur="0.15s" fill="freeze" begin="8.end" /></path><path d="M12.75,50.75c2.25,1,3.75,0.5,4.75,0.25s9.75-3.75,11.25-4.25s3.16,0.57,2.25,2.5c-6.75,14.25-7.38,9.75-0.25,19c1.48,1.92,1.25,3.25-0.25,4.5S21.5,81,20,81.5" stroke-dasharray="62.17" stroke-dashoffset="62.17"><animate attributeName="stroke-dashoffset" values="62.17" fill="freeze" begin="904e.click" /><animate id="10" attributeName="stroke-dashoffset" values="62.17;0" dur="0.47s" fill="freeze" begin="9.end" /></path><path d="M15.25,83.25c3-0.5,8.94-1.17,13.5-0.5c6,0.88,30.07,7.21,34.5,8.5c12,3.5,17.38,4.38,26.75,4.5" stroke-dasharray="76.33" stroke-dashoffset="76.33"><animate attributeName="stroke-dashoffset" values="76.33" fill="freeze" begin="904e.click" /><animate id="11" attributeName="stroke-dashoffset" values="76.33;0" dur="0.57s" fill="freeze" begin="10.end" /></path></g></g></g></svg>