<svg xmlns="http://www.w3.org/2000/svg" width="109" height="109" viewBox="0 0 109 109" id="9051"><g fill="none" stroke="#666" stroke-width="9" stroke-linecap="round" stroke-linejoin="round"><g><g><g><g><path d="M67.01,10.25c0.23,0.39,0.27,0.86,0.21,1.19c-0.33,1.99-3.15,6.74-5.72,9.4" /></g><g><path d="M47.19,20.74c0.67,0.6,1.2,1.72,1.34,2.5c0.8,4.39,3.44,15.83,3.71,19.79" /><path d="M48.43,22.66c9.32-1.09,31.33-2.98,34.77-3.38c1.65-0.19,2.72,1.6,2.36,3.26c-0.8,3.69-2.14,11.65-3.74,18.72" /><path d="M50.81,32.71c8.47-1.48,27.08-3.08,32.87-3.08" /><path d="M51.93,41.44c9.68-0.68,21.68-2.27,29.67-2.48" /></g></g><g p5:partial xmlns:p5="http://kanjivg.tagaini.net"><path d="M45.03,51.86c0.85,0.46,1.97,0.64,4.47,0.53c4.03-0.17,25.69-1.42,35.29-1.91c1.31-0.07,2.5,0.09,3.58,0.48" /><path d="M66.25,53.33c1.16,1.88,1.16,3.01,1.16,4.52c0,4.15-0.07,17.65-0.07,22.33" /><path d="M48.43,66.01c0.7,0.51,3.02,0.75,3.74,0.72c7.58-0.23,17.98-0.75,26.77-1.66c0.88-0.09,2.81-0.21,4.12,0.24" /><path d="M41.83,81.53c0.63,0.28,3.93,0.56,5,0.47c12.85-1.15,26.67-2.5,41.54-2.74c2.7-0.04,4.63-0.02,6.8,0.5" /></g></g><g><path d="M19.71,12.75c4.16,1.7,10.75,6.99,11.79,9.63" /><path d="M14.21,34.25c4.78,1.57,12.35,6.45,13.54,8.88" /><path d="M13,60.44c2.25,0.85,3.75,0.43,4.75,0.21c1-0.21,9-2.99,10.5-3.42c1.5-0.43,3.75,1.07,2.75,2.35s-5,7.69-5.75,8.76c-0.75,1.07-0.5,2.99,1,4.48s4.25,2.7,5,3.98C32,78.09,32,79.16,30.5,80.23c-1.5,1.07-10.5,6.04-12,6.47" /><path d="M12.75,88.26c4.5-1.01,10.8-1.16,15.2-0.5c4.4,0.66,27.4,5.1,31.73,5.95c11.73,2.31,20.77,2.97,29.57,1.82" /></g></g></g><g fill="none" stroke="#000" stroke-width="5" stroke-linecap="round" stroke-linejoin="round"><path d="M67.01,10.25c0.23,0.39,0.27,0.86,0.21,1.19c-0.33,1.99-3.15,6.74-5.72,9.4" stroke-dasharray="12.334" stroke-dashoffset="12.334"><animate attributeName="stroke-dashoffset" values="12.334;12.334;0" dur="0.123s" fill="freeze" begin="0s;9051.click" /></path><path d="M47.19,20.74c0.67,0.6,1.2,1.72,1.34,2.5c0.8,4.39,3.44,15.83,3.71,19.79" stroke-dasharray="23.023" stroke-dashoffset="23.023"><animate attributeName="stroke-dashoffset" values="23.023" fill="freeze" begin="9051.click" /><animate attributeName="stroke-dashoffset" values="23.023;23.023;0" keyTimes="0;0.348;1" dur="0.353s" fill="freeze" begin="0s;9051.click" /></path><path d="M48.43,22.66c9.32-1.09,31.33-2.98,34.77-3.38c1.65-0.19,2.72,1.6,2.36,3.26c-0.8,3.69-2.14,11.65-3.74,18.72" stroke-dasharray="58.717" stroke-dashoffset="58.717"><animate attributeName="stroke-dashoffset" values="58.717" fill="freeze" begin="9051.click" /><animate attributeName="stroke-dashoffset" values="58.717;58.717;0" keyTimes="0;0.376;1" dur="0.94s" fill="freeze" begin="0s;9051.click" /></path><path d="M50.81,32.71c8.47-1.48,27.08-3.08,32.87-3.08" stroke-dasharray="33.035" stroke-dashoffset="33.035"><animate attributeName="stroke-dashoffset" values="33.035" fill="freeze" begin="9051.click" /><animate attributeName="stroke-dashoffset" values="33.035;33.035;0" keyTimes="0;0.74;1" dur="1.27s" fill="freeze" begin="0s;9051.click" /></path><path d="M51.93,41.44c9.68-0.68,21.68-2.27,29.67-2.48" stroke-dasharray="29.779" stroke-dashoffset="29.779"><animate attributeName="stroke-dashoffset" values="29.779" fill="freeze" begin="9051.click" /><animate attributeName="stroke-dashoffset" values="29.779;29.779;0" keyTimes="0;0.81;1" dur="1.568s" fill="freeze" begin="0s;9051.click" /></path><path d="M45.03,51.86c0.85,0.46,1.97,0.64,4.47,0.53c4.03-0.17,25.69-1.42,35.29-1.91c1.31-0.07,2.5,0.09,3.58,0.48" stroke-dasharray="43.532" stroke-dashoffset="43.532"><animate attributeName="stroke-dashoffset" values="43.532" fill="freeze" begin="9051.click" /><animate attributeName="stroke-dashoffset" values="43.532;43.532;0" keyTimes="0;0.783;1" dur="2.003s" fill="freeze" begin="0s;9051.click" /></path><path d="M66.25,53.33c1.16,1.88,1.16,3.01,1.16,4.52c0,4.15-0.07,17.65-0.07,22.33" stroke-dasharray="27.08" stroke-dashoffset="27.08"><animate attributeName="stroke-dashoffset" values="27.08" fill="freeze" begin="9051.click" /><animate attributeName="stroke-dashoffset" values="27.08;27.08;0" keyTimes="0;0.881;1" dur="2.274s" fill="freeze" begin="0s;9051.click" /></path><path d="M48.43,66.01c0.7,0.51,3.02,0.75,3.74,0.72c7.58-0.23,17.98-0.75,26.77-1.66c0.88-0.09,2.81-0.21,4.12,0.24" stroke-dasharray="34.828" stroke-dashoffset="34.828"><animate attributeName="stroke-dashoffset" values="34.828" fill="freeze" begin="9051.click" /><animate attributeName="stroke-dashoffset" values="34.828;34.828;0" keyTimes="0;0.867;1" dur="2.622s" fill="freeze" begin="0s;9051.click" /></path><path d="M41.83,81.53c0.63,0.28,3.93,0.56,5,0.47c12.85-1.15,26.67-2.5,41.54-2.74c2.7-0.04,4.63-0.02,6.8,0.5" stroke-dasharray="53.519" stroke-dashoffset="53.519"><animate attributeName="stroke-dashoffset" values="53.519" fill="freeze" begin="9051.click" /><animate attributeName="stroke-dashoffset" values="53.519;53.519;0" keyTimes="0;0.831;1" dur="3.157s" fill="freeze" begin="0s;9051.click" /></path><path d="M19.71,12.75c4.16,1.7,10.75,6.99,11.79,9.63" stroke-dasharray="15.44" stroke-dashoffset="15.44"><animate attributeName="stroke-dashoffset" values="15.44" fill="freeze" begin="9051.click" /><animate attributeName="stroke-dashoffset" values="15.44;15.44;0" keyTimes="0;0.953;1" dur="3.311s" fill="freeze" begin="0s;9051.click" /></path><path d="M14.21,34.25c4.78,1.57,12.35,6.45,13.54,8.88" stroke-dasharray="16.4" stroke-dashoffset="16.4"><animate attributeName="stroke-dashoffset" values="16.4" fill="freeze" begin="9051.click" /><animate attributeName="stroke-dashoffset" values="16.4;16.4;0" keyTimes="0;0.953;1" dur="3.475s" fill="freeze" begin="0s;9051.click" /></path><path d="M13,60.44c2.25,0.85,3.75,0.43,4.75,0.21c1-0.21,9-2.99,10.5-3.42c1.5-0.43,3.75,1.07,2.75,2.35s-5,7.69-5.75,8.76c-0.75,1.07-0.5,2.99,1,4.48s4.25,2.7,5,3.98C32,78.09,32,79.16,30.5,80.23c-1.5,1.07-10.5,6.04-12,6.47" stroke-dasharray="59.941" stroke-dashoffset="59.941"><animate attributeName="stroke-dashoffset" values="59.941" fill="freeze" begin="9051.click" /><animate attributeName="stroke-dashoffset" values="59.941;59.941;0" keyTimes="0;0.853;1" dur="4.074s" fill="freeze" begin="0s;9051.click" /></path><path d="M12.75,88.26c4.5-1.01,10.8-1.16,15.2-0.5c4.4,0.66,27.4,5.1,31.73,5.95c11.73,2.31,20.77,2.97,29.57,1.82" stroke-dasharray="77.326" stroke-dashoffset="77.326"><animate attributeName="stroke-dashoffset" values="77.326" fill="freeze" begin="9051.click" /><animate attributeName="stroke-dashoffset" values="77.326;77.326;0" keyTimes="0;0.875;1" dur="4.655s" fill="freeze" begin="0s;9051.click" /></path></g></svg>