<svg xmlns="http://www.w3.org/2000/svg" width="109" height="109" viewBox="0 0 109 109" id="9056"><g fill="none" stroke="#666" stroke-width="9" stroke-linecap="round" stroke-linejoin="round"><g><g><g><path d="M38.17,22.23c1.71,0.18,3.97,0.23,5.91,0.13c8.76-0.43,34.18-1.64,43.42-2.09c1.94-0.1,3.93,0.36,5.15,0.5" /><path d="M62.33,11.25c0.85,0.42,1.53,1.86,1.53,2.73c0,5.83,0,14.65,0,21.87" /></g><g><g><path d="M42.41,36.04c0.51,1.12,0.95,2.9,1.02,4.92c0.17,4.7-0.15,38.18-0.15,40.24" /><path d="M43.27,37.38c6.46-0.9,40.19-2.32,41.49-2.32c2.49,0,3.74,1.57,3.74,4.6c0,4.7,0.17,29.82,0.17,34.97c0,6.89-3.37,6.01-7.45,1.09" /></g><path d="M54.98,41.6c1.64,1.25,4.22,5.13,4.63,7.07" /><path d="M73.03,40.33c0.01,0.23,0.03,0.61-0.02,0.94c-0.33,1.99-2.2,6.35-4.76,9.02" /><g><path d="M51.35,52.65c0.84,0.41,2.38,0.45,3.22,0.41c8.76-0.46,12.02-0.95,21.88-2.2c1.4-0.18,2.24,0.19,2.95,0.4" /><g><path d="M49.66,64.08c0.56,0.23,3.08,0.3,3.63,0.23c6.96-0.81,17.21-2.56,26.68-2.61c0.93,0,1.48,0.11,1.95,0.23" /><path d="M64.03,54.53c0.97,0.8,1.5,2.81,1.49,3.92c-0.03,7.22-0.16,17.97-0.16,20.49" /></g></g></g></g><g><path d="M18.46,14.75c3.72,1.61,9.61,6.63,10.54,9.13" /><path d="M13.46,33.75c4.69,1.48,12.12,6.08,13.29,8.38" /><path d="M11,57.66c2.25,0.78,3.75,0.39,4.75,0.2c1-0.2,8-2.74,9.5-3.13c1.5-0.39,3.75,0.98,2.75,2.15s-4,5.67-4.75,6.64s-0.5,2.74,1,4.1s2.75,2.93,3.5,4.1c0.75,1.17,0.75,2.15-0.75,3.13s-9,6.45-10.5,6.84" /><path d="M10.25,84.18c3.04-0.51,9.11-1.8,13.67-0.77c4.56,1.03,30.46,7.92,34.94,9.25c12.15,3.6,21.52,4.62,30.64,2.82" /></g></g></g><g fill="none" stroke="#000" stroke-width="5" stroke-linecap="round" stroke-linejoin="round"><g><g><g><path d="M38.17,22.23c1.71,0.18,3.97,0.23,5.91,0.13c8.76-0.43,34.18-1.64,43.42-2.09c1.94-0.1,3.93,0.36,5.15,0.5" stroke-dasharray="54.572" stroke-dashoffset="54.572"><animate attributeName="stroke-dashoffset" values="54.572;54.572;0" dur="0.546s" fill="freeze" begin="0s;9056.click" /></path><path d="M62.33,11.25c0.85,0.42,1.53,1.86,1.53,2.73c0,5.83,0,14.65,0,21.87" stroke-dasharray="25.121" stroke-dashoffset="25.121"><animate attributeName="stroke-dashoffset" values="25.121" fill="freeze" begin="9056.click" /><animate attributeName="stroke-dashoffset" values="25.121;25.121;0" keyTimes="0;0.685;1" dur="0.797s" fill="freeze" begin="0s;9056.click" /></path></g><g><g><path d="M42.41,36.04c0.51,1.12,0.95,2.9,1.02,4.92c0.17,4.7-0.15,38.18-0.15,40.24" stroke-dasharray="45.296" stroke-dashoffset="45.296"><animate attributeName="stroke-dashoffset" values="45.296" fill="freeze" begin="9056.click" /><animate attributeName="stroke-dashoffset" values="45.296;45.296;0" keyTimes="0;0.638;1" dur="1.25s" fill="freeze" begin="0s;9056.click" /></path><path d="M43.27,37.38c6.46-0.9,40.19-2.32,41.49-2.32c2.49,0,3.74,1.57,3.74,4.6c0,4.7,0.17,29.82,0.17,34.97c0,6.89-3.37,6.01-7.45,1.09" stroke-dasharray="95.977" stroke-dashoffset="95.977"><animate attributeName="stroke-dashoffset" values="95.977" fill="freeze" begin="9056.click" /><animate attributeName="stroke-dashoffset" values="95.977;95.977;0" keyTimes="0;0.634;1" dur="1.972s" fill="freeze" begin="0s;9056.click" /></path></g><path d="M54.98,41.6c1.64,1.25,4.22,5.13,4.63,7.07" stroke-dasharray="8.554" stroke-dashoffset="8.554"><animate attributeName="stroke-dashoffset" values="8.554" fill="freeze" begin="9056.click" /><animate attributeName="stroke-dashoffset" values="8.554;8.554;0" keyTimes="0;0.958;1" dur="2.058s" fill="freeze" begin="0s;9056.click" /></path><path d="M73.03,40.33c0.01,0.23,0.03,0.61-0.02,0.94c-0.33,1.99-2.2,6.35-4.76,9.02" stroke-dasharray="11.253" stroke-dashoffset="11.253"><animate attributeName="stroke-dashoffset" values="11.253" fill="freeze" begin="9056.click" /><animate attributeName="stroke-dashoffset" values="11.253;11.253;0" keyTimes="0;0.948;1" dur="2.171s" fill="freeze" begin="0s;9056.click" /></path><g><path d="M51.35,52.65c0.84,0.41,2.38,0.45,3.22,0.41c8.76-0.46,12.02-0.95,21.88-2.2c1.4-0.18,2.24,0.19,2.95,0.4" stroke-dasharray="28.279" stroke-dashoffset="28.279"><animate attributeName="stroke-dashoffset" values="28.279" fill="freeze" begin="9056.click" /><animate attributeName="stroke-dashoffset" values="28.279;28.279;0" keyTimes="0;0.885;1" dur="2.454s" fill="freeze" begin="0s;9056.click" /></path><g><path d="M49.66,64.08c0.56,0.23,3.08,0.3,3.63,0.23c6.96-0.81,17.21-2.56,26.68-2.61c0.93,0,1.48,0.11,1.95,0.23" stroke-dasharray="32.446" stroke-dashoffset="32.446"><animate attributeName="stroke-dashoffset" values="32.446" fill="freeze" begin="9056.click" /><animate attributeName="stroke-dashoffset" values="32.446;32.446;0" keyTimes="0;0.883;1" dur="2.778s" fill="freeze" begin="0s;9056.click" /></path><path d="M64.03,54.53c0.97,0.8,1.5,2.81,1.49,3.92c-0.03,7.22-0.16,17.97-0.16,20.49" stroke-dasharray="24.79" stroke-dashoffset="24.79"><animate attributeName="stroke-dashoffset" values="24.79" fill="freeze" begin="9056.click" /><animate attributeName="stroke-dashoffset" values="24.79;24.79;0" keyTimes="0;0.918;1" dur="3.026s" fill="freeze" begin="0s;9056.click" /></path></g></g></g></g><g><path d="M18.46,14.75c3.72,1.61,9.61,6.63,10.54,9.13" stroke-dasharray="14.146" stroke-dashoffset="14.146"><animate attributeName="stroke-dashoffset" values="14.146" fill="freeze" begin="9056.click" /><animate attributeName="stroke-dashoffset" values="14.146;14.146;0" keyTimes="0;0.955;1" dur="3.167s" fill="freeze" begin="0s;9056.click" /></path><path d="M13.46,33.75c4.69,1.48,12.12,6.08,13.29,8.38" stroke-dasharray="15.908" stroke-dashoffset="15.908"><animate attributeName="stroke-dashoffset" values="15.908" fill="freeze" begin="9056.click" /><animate attributeName="stroke-dashoffset" values="15.908;15.908;0" keyTimes="0;0.952;1" dur="3.326s" fill="freeze" begin="0s;9056.click" /></path><path d="M11,57.66c2.25,0.78,3.75,0.39,4.75,0.2c1-0.2,8-2.74,9.5-3.13c1.5-0.39,3.75,0.98,2.75,2.15s-4,5.67-4.75,6.64s-0.5,2.74,1,4.1s2.75,2.93,3.5,4.1c0.75,1.17,0.75,2.15-0.75,3.13s-9,6.45-10.5,6.84" stroke-dasharray="53.694" stroke-dashoffset="53.694"><animate attributeName="stroke-dashoffset" values="53.694" fill="freeze" begin="9056.click" /><animate attributeName="stroke-dashoffset" values="53.694;53.694;0" keyTimes="0;0.861;1" dur="3.863s" fill="freeze" begin="0s;9056.click" /></path><path d="M10.25,84.18c3.04-0.51,9.11-1.8,13.67-0.77c4.56,1.03,30.46,7.92,34.94,9.25c12.15,3.6,21.52,4.62,30.64,2.82" stroke-dasharray="81.01" stroke-dashoffset="81.01"><animate attributeName="stroke-dashoffset" values="81.01" fill="freeze" begin="9056.click" /><animate attributeName="stroke-dashoffset" values="81.01;81.01;0" keyTimes="0;0.864;1" dur="4.472s" fill="freeze" begin="0s;9056.click" /></path></g></g></g></svg>