<svg xmlns="http://www.w3.org/2000/svg" width="109" height="109" viewBox="0 0 109 109" id="9060"><g fill="none" stroke="#666" stroke-width="9" stroke-linecap="round" stroke-linejoin="round"><g><g p4:phon="袁" xmlns:p4="http://kanjivg.tagaini.net"><g><path d="M45.82,23.35c1.16,0.32,3.27,0.47,4.43,0.32c6.16-0.8,16.04-2.18,22.01-2.9c1.92-0.23,3.08,0.16,4.04,0.32" /><path d="M59.23,10.62c0.89,0.89,1.61,2.38,1.61,4.07c0,9.57-0.06,16.66-0.06,17.81" /><g p4:part="1" p4:partial><g p4:partial><path d="M36.89,35.45c1.67,0.46,4.5,0.41,6.15,0.21C54.88,34.25,67,32.88,82.4,31.44c2.77-0.26,4.45,0.22,5.84,0.45" /></g></g></g><g><g><path d="M46.56,43.29c0.76,0.76,1.19,1.84,1.34,2.54c0.4,1.86,1.29,4.33,2.16,8.42c0.28,1.33,0.54,2.12,0.75,3.27" /><path d="M48.53,44.19c6.72-1.06,20.53-3.37,25.47-3.55c1.9-0.07,3.25,0.99,2.77,2.79c-0.48,1.77-2.39,5.97-3.1,8.13" /><path d="M51.65,55.3c4.76-0.7,12.6-1.37,19.15-2.18c1.62-0.2,3.2-0.5,4.42-0.27" /></g><g p4:part="2" p4:partial><path d="M59.6,56.21c0.15,1.17-0.21,2.4-1.38,3.79c-4.47,5.25-10.72,10.63-18.91,16.22" /><path d="M59.51,62.57c0.74,0.93,1,2.06,1,3.43c0,4.73-0.01,10.15-0.01,14.63c0,1.55,0,2.99,0,4.25" /><path d="M78.35,58.42c-0.1,0.95-0.35,1.83-1.38,2.91c-1.48,1.56-3.6,3.3-7.64,6.1" /><path d="M64.75,66.6C70.72,68.69,80.24,75.04,84.5,81" /></g></g></g><g><path d="M20.71,19.25c3.63,1.74,9.38,7.17,10.29,9.88" /><path d="M13.25,50.5c1.62,0.5,3.76,0.53,4.75,0.25c2.62-0.75,6.62-2.38,9.75-3.5c3.38-1.22,4.95,0.06,2.61,3.74C24,61,24,61.25,29.75,67.13c2.85,2.92,2.5,4,0,6.37c-1.42,1.34-8.75,7.5-10.25,8" /><path d="M15.25,83c3-0.5,9-1.75,13.5-0.75s30.07,7.71,34.5,9c12,3.5,21.25,4.5,30.25,2.75" /></g></g></g><g fill="none" stroke="#000" stroke-width="5" stroke-linecap="round" stroke-linejoin="round"><g><g p4:phon="袁" xmlns:p4="http://kanjivg.tagaini.net"><g><path d="M45.82,23.35c1.16,0.32,3.27,0.47,4.43,0.32c6.16-0.8,16.04-2.18,22.01-2.9c1.92-0.23,3.08,0.16,4.04,0.32" stroke-dasharray="30.74" stroke-dashoffset="30.74"><animate id="0" attributeName="stroke-dashoffset" values="30.74;0" dur="0.31s" fill="freeze" begin="0s;9060.click" /></path><path d="M59.23,10.62c0.89,0.89,1.61,2.38,1.61,4.07c0,9.57-0.06,16.66-0.06,17.81" stroke-dasharray="22.3" stroke-dashoffset="22.3"><animate attributeName="stroke-dashoffset" values="22.3" fill="freeze" begin="9060.click" /><animate id="1" attributeName="stroke-dashoffset" values="22.3;0" dur="0.22s" fill="freeze" begin="0.end" /></path><g p4:part="1" p4:partial><g p4:partial><path d="M36.89,35.45c1.67,0.46,4.5,0.41,6.15,0.21C54.88,34.25,67,32.88,82.4,31.44c2.77-0.26,4.45,0.22,5.84,0.45" stroke-dasharray="51.65" stroke-dashoffset="51.65"><animate attributeName="stroke-dashoffset" values="51.65" fill="freeze" begin="9060.click" /><animate id="2" attributeName="stroke-dashoffset" values="51.65;0" dur="0.52s" fill="freeze" begin="1.end" /></path></g></g></g><g><g><path d="M46.56,43.29c0.76,0.76,1.19,1.84,1.34,2.54c0.4,1.86,1.29,4.33,2.16,8.42c0.28,1.33,0.54,2.12,0.75,3.27" stroke-dasharray="14.96" stroke-dashoffset="14.96"><animate attributeName="stroke-dashoffset" values="14.96" fill="freeze" begin="9060.click" /><animate id="3" attributeName="stroke-dashoffset" values="14.96;0" dur="0.15s" fill="freeze" begin="2.end" /></path><path d="M48.53,44.19c6.72-1.06,20.53-3.37,25.47-3.55c1.9-0.07,3.25,0.99,2.77,2.79c-0.48,1.77-2.39,5.97-3.1,8.13" stroke-dasharray="39.14" stroke-dashoffset="39.14"><animate attributeName="stroke-dashoffset" values="39.14" fill="freeze" begin="9060.click" /><animate id="4" attributeName="stroke-dashoffset" values="39.14;0" dur="0.39s" fill="freeze" begin="3.end" /></path><path d="M51.65,55.3c4.76-0.7,12.6-1.37,19.15-2.18c1.62-0.2,3.2-0.5,4.42-0.27" stroke-dasharray="23.72" stroke-dashoffset="23.72"><animate attributeName="stroke-dashoffset" values="23.72" fill="freeze" begin="9060.click" /><animate id="5" attributeName="stroke-dashoffset" values="23.72;0" dur="0.24s" fill="freeze" begin="4.end" /></path></g><g p4:part="2" p4:partial><path d="M59.6,56.21c0.15,1.17-0.21,2.4-1.38,3.79c-4.47,5.25-10.72,10.63-18.91,16.22" stroke-dasharray="29.14" stroke-dashoffset="29.14"><animate attributeName="stroke-dashoffset" values="29.14" fill="freeze" begin="9060.click" /><animate id="6" attributeName="stroke-dashoffset" values="29.14;0" dur="0.29s" fill="freeze" begin="5.end" /></path><path d="M59.51,62.57c0.74,0.93,1,2.06,1,3.43c0,4.73-0.01,10.15-0.01,14.63c0,1.55,0,2.99,0,4.25" stroke-dasharray="22.52" stroke-dashoffset="22.52"><animate attributeName="stroke-dashoffset" values="22.52" fill="freeze" begin="9060.click" /><animate id="7" attributeName="stroke-dashoffset" values="22.52;0" dur="0.23s" fill="freeze" begin="6.end" /></path><path d="M78.35,58.42c-0.1,0.95-0.35,1.83-1.38,2.91c-1.48,1.56-3.6,3.3-7.64,6.1" stroke-dasharray="13.08" stroke-dashoffset="13.08"><animate attributeName="stroke-dashoffset" values="13.08" fill="freeze" begin="9060.click" /><animate id="8" attributeName="stroke-dashoffset" values="13.08;0" dur="0.13s" fill="freeze" begin="7.end" /></path><path d="M64.75,66.6C70.72,68.69,80.24,75.04,84.5,81" stroke-dasharray="24.73" stroke-dashoffset="24.73"><animate attributeName="stroke-dashoffset" values="24.73" fill="freeze" begin="9060.click" /><animate id="9" attributeName="stroke-dashoffset" values="24.73;0" dur="0.25s" fill="freeze" begin="8.end" /></path></g></g></g><g><path d="M20.71,19.25c3.63,1.74,9.38,7.17,10.29,9.88" stroke-dasharray="14.47" stroke-dashoffset="14.47"><animate attributeName="stroke-dashoffset" values="14.47" fill="freeze" begin="9060.click" /><animate id="10" attributeName="stroke-dashoffset" values="14.47;0" dur="0.14s" fill="freeze" begin="9.end" /></path><path d="M13.25,50.5c1.62,0.5,3.76,0.53,4.75,0.25c2.62-0.75,6.62-2.38,9.75-3.5c3.38-1.22,4.95,0.06,2.61,3.74C24,61,24,61.25,29.75,67.13c2.85,2.92,2.5,4,0,6.37c-1.42,1.34-8.75,7.5-10.25,8" stroke-dasharray="62.42" stroke-dashoffset="62.42"><animate attributeName="stroke-dashoffset" values="62.42" fill="freeze" begin="9060.click" /><animate id="11" attributeName="stroke-dashoffset" values="62.42;0" dur="0.47s" fill="freeze" begin="10.end" /></path><path d="M15.25,83c3-0.5,9-1.75,13.5-0.75s30.07,7.71,34.5,9c12,3.5,21.25,4.5,30.25,2.75" stroke-dasharray="79.94" stroke-dashoffset="79.94"><animate attributeName="stroke-dashoffset" values="79.94" fill="freeze" begin="9060.click" /><animate id="12" attributeName="stroke-dashoffset" values="79.94;0" dur="0.6s" fill="freeze" begin="11.end" /></path></g></g></g></svg>