<svg xmlns="http://www.w3.org/2000/svg" width="109" height="109" viewBox="0 0 109 109" id="906f"><g fill="none" stroke="#666" stroke-width="9" stroke-linecap="round" stroke-linejoin="round"><g><g><g><path d="M40.08,17.51c0.41,0.82,0.68,1.63,0.81,2.43c0.13,0.8,0.12,22.44-0.31,29.14c-0.62,9.53-1.83,22.18-7.04,30.08" /><path d="M41.21,18.44c1.62-0.05,9.39-2.52,10.6-2.63c2.16-0.2,2.71,1.13,2.71,2.31c0,2.8-0.41,40.74-0.41,56.62c0,10.92-4.41,4.01-5.79,2.7" /><path d="M41.21,35.67c4.04-0.42,9.57-0.77,12.7-0.79" /><path d="M40.66,52.65c4.59-0.15,8.99-0.61,12.97-0.97" /></g><g><path d="M61.01,16.81c1.42,0.24,3.29,0.47,3.89,0.43c7.71-0.49,17.27-1.52,26.03-2.25c0.98-0.08,2.57,0.02,4.23,0.42" /><path d="M77.84,18.26c0.05,0.4,0.24,1.12-0.1,1.62c-2.61,3.91-7.96,9.95-17.07,15.14" /><path d="M70.32,28.38c9.93,13.37,12.33,35.89,7.06,52.06c-2.87,8.82-6.37,3.07-8.52,0.08" /><path d="M72.31,36.75c0.04,0.38,0.17,1.07-0.07,1.54c-1.97,3.95-5.49,10.21-12.37,14.73" /><path d="M76.01,50.23c0.04,0.44,0.09,1.14-0.09,1.77c-1.06,3.73-7.17,12.25-15.53,17.27" /><path d="M93.16,27.78c0.03,0.32,0.07,0.83-0.07,1.3c-0.81,2.74-5.46,8.75-11.83,12.43" /><path d="M81.66,52.23c5.84,4.52,12.7,15.26,14.29,22.19" /></g></g><g><path d="M17.71,17c3.81,1.52,9.84,6.26,10.79,8.63" /><path d="M15.96,36.5c3.63,1.48,9.39,6.08,10.29,8.38" /><path d="M11.5,60.19c2.25,0.85,3.75,0.43,4.75,0.21c1-0.21,8-3.49,9.5-3.92c1.5-0.43,2.75,1.07,1.75,2.35s-3.5,7.19-4.25,8.26c-0.75,1.07-0.5,2.99,1,4.48s2.25,2.2,3,3.48C28,76.34,28,77.41,26.5,78.48C25,79.54,18.75,83,16,85.45" /><path d="M11.25,86.27c3.03-0.45,9.03-1.23,13.63-0.67c9.37,1.15,30.36,5.88,34.83,7.03c12.12,3.12,24.29,3.61,30.54,3.45" /></g></g></g><g fill="none" stroke="#000" stroke-width="5" stroke-linecap="round" stroke-linejoin="round"><g><g><g><path d="M40.08,17.51c0.41,0.82,0.68,1.63,0.81,2.43c0.13,0.8,0.12,22.44-0.31,29.14c-0.62,9.53-1.83,22.18-7.04,30.08" stroke-dasharray="62.931" stroke-dashoffset="62.931"><animate attributeName="stroke-dashoffset" values="62.931;62.931;0" dur="0.473s" fill="freeze" begin="0s;906f.click" /></path><path d="M41.21,18.44c1.62-0.05,9.39-2.52,10.6-2.63c2.16-0.2,2.71,1.13,2.71,2.31c0,2.8-0.41,40.74-0.41,56.62c0,10.92-4.41,4.01-5.79,2.7" stroke-dasharray="83.781" stroke-dashoffset="83.781"><animate attributeName="stroke-dashoffset" values="83.781" fill="freeze" begin="906f.click" /><animate attributeName="stroke-dashoffset" values="83.781;83.781;0" keyTimes="0;0.429;1" dur="1.103s" fill="freeze" begin="0s;906f.click" /></path><path d="M41.21,35.67c4.04-0.42,9.57-0.77,12.7-0.79" stroke-dasharray="12.729" stroke-dashoffset="12.729"><animate attributeName="stroke-dashoffset" values="12.729" fill="freeze" begin="906f.click" /><animate attributeName="stroke-dashoffset" values="12.729;12.729;0" keyTimes="0;0.897;1" dur="1.23s" fill="freeze" begin="0s;906f.click" /></path><path d="M40.66,52.65c4.59-0.15,8.99-0.61,12.97-0.97" stroke-dasharray="13.009" stroke-dashoffset="13.009"><animate attributeName="stroke-dashoffset" values="13.009" fill="freeze" begin="906f.click" /><animate attributeName="stroke-dashoffset" values="13.009;13.009;0" keyTimes="0;0.904;1" dur="1.36s" fill="freeze" begin="0s;906f.click" /></path></g><g><path d="M61.01,16.81c1.42,0.24,3.29,0.47,3.89,0.43c7.71-0.49,17.27-1.52,26.03-2.25c0.98-0.08,2.57,0.02,4.23,0.42" stroke-dasharray="34.313" stroke-dashoffset="34.313"><animate attributeName="stroke-dashoffset" values="34.313" fill="freeze" begin="906f.click" /><animate attributeName="stroke-dashoffset" values="34.313;34.313;0" keyTimes="0;0.799;1" dur="1.703s" fill="freeze" begin="0s;906f.click" /></path><path d="M77.84,18.26c0.05,0.4,0.24,1.12-0.1,1.62c-2.61,3.91-7.96,9.95-17.07,15.14" stroke-dasharray="24.677" stroke-dashoffset="24.677"><animate attributeName="stroke-dashoffset" values="24.677" fill="freeze" begin="906f.click" /><animate attributeName="stroke-dashoffset" values="24.677;24.677;0" keyTimes="0;0.873;1" dur="1.95s" fill="freeze" begin="0s;906f.click" /></path><path d="M70.32,28.38c9.93,13.37,12.33,35.89,7.06,52.06c-2.87,8.82-6.37,3.07-8.52,0.08" stroke-dasharray="67.518" stroke-dashoffset="67.518"><animate attributeName="stroke-dashoffset" values="67.518" fill="freeze" begin="906f.click" /><animate attributeName="stroke-dashoffset" values="67.518;67.518;0" keyTimes="0;0.793;1" dur="2.458s" fill="freeze" begin="0s;906f.click" /></path><path d="M72.31,36.75c0.04,0.38,0.17,1.07-0.07,1.54c-1.97,3.95-5.49,10.21-12.37,14.73" stroke-dasharray="21.038" stroke-dashoffset="21.038"><animate attributeName="stroke-dashoffset" values="21.038" fill="freeze" begin="906f.click" /><animate attributeName="stroke-dashoffset" values="21.038;21.038;0" keyTimes="0;0.921;1" dur="2.668s" fill="freeze" begin="0s;906f.click" /></path><path d="M76.01,50.23c0.04,0.44,0.09,1.14-0.09,1.77c-1.06,3.73-7.17,12.25-15.53,17.27" stroke-dasharray="25.386" stroke-dashoffset="25.386"><animate attributeName="stroke-dashoffset" values="25.386" fill="freeze" begin="906f.click" /><animate attributeName="stroke-dashoffset" values="25.386;25.386;0" keyTimes="0;0.913;1" dur="2.922s" fill="freeze" begin="0s;906f.click" /></path><path d="M93.16,27.78c0.03,0.32,0.07,0.83-0.07,1.3c-0.81,2.74-5.46,8.75-11.83,12.43" stroke-dasharray="18.751" stroke-dashoffset="18.751"><animate attributeName="stroke-dashoffset" values="18.751" fill="freeze" begin="906f.click" /><animate attributeName="stroke-dashoffset" values="18.751;18.751;0" keyTimes="0;0.94;1" dur="3.11s" fill="freeze" begin="0s;906f.click" /></path><path d="M81.66,52.23c5.84,4.52,12.7,15.26,14.29,22.19" stroke-dasharray="26.763" stroke-dashoffset="26.763"><animate attributeName="stroke-dashoffset" values="26.763" fill="freeze" begin="906f.click" /><animate attributeName="stroke-dashoffset" values="26.763;26.763;0" keyTimes="0;0.921;1" dur="3.378s" fill="freeze" begin="0s;906f.click" /></path></g></g><g><path d="M17.71,17c3.81,1.52,9.84,6.26,10.79,8.63" stroke-dasharray="14.014" stroke-dashoffset="14.014"><animate attributeName="stroke-dashoffset" values="14.014" fill="freeze" begin="906f.click" /><animate attributeName="stroke-dashoffset" values="14.014;14.014;0" keyTimes="0;0.96;1" dur="3.518s" fill="freeze" begin="0s;906f.click" /></path><path d="M15.96,36.5c3.63,1.48,9.39,6.08,10.29,8.38" stroke-dasharray="13.461" stroke-dashoffset="13.461"><animate attributeName="stroke-dashoffset" values="13.461" fill="freeze" begin="906f.click" /><animate attributeName="stroke-dashoffset" values="13.461;13.461;0" keyTimes="0;0.963;1" dur="3.653s" fill="freeze" begin="0s;906f.click" /></path><path d="M11.5,60.19c2.25,0.85,3.75,0.43,4.75,0.21c1-0.21,8-3.49,9.5-3.92c1.5-0.43,2.75,1.07,1.75,2.35s-3.5,7.19-4.25,8.26c-0.75,1.07-0.5,2.99,1,4.48s2.25,2.2,3,3.48C28,76.34,28,77.41,26.5,78.48C25,79.54,18.75,83,16,85.45" stroke-dasharray="54.564" stroke-dashoffset="54.564"><animate attributeName="stroke-dashoffset" values="54.564" fill="freeze" begin="906f.click" /><animate attributeName="stroke-dashoffset" values="54.564;54.564;0" keyTimes="0;0.87;1" dur="4.199s" fill="freeze" begin="0s;906f.click" /></path><path d="M11.25,86.27c3.03-0.45,9.03-1.23,13.63-0.67c9.37,1.15,30.36,5.88,34.83,7.03c12.12,3.12,24.29,3.61,30.54,3.45" stroke-dasharray="80.053" stroke-dashoffset="80.053"><animate attributeName="stroke-dashoffset" values="80.053" fill="freeze" begin="906f.click" /><animate attributeName="stroke-dashoffset" values="80.053;80.053;0" keyTimes="0;0.875;1" dur="4.801s" fill="freeze" begin="0s;906f.click" /></path></g></g></g></svg>