<svg xmlns="http://www.w3.org/2000/svg" width="109" height="109" viewBox="0 0 109 109" id="9080"><g fill="none" stroke="#666" stroke-width="9" stroke-linecap="round" stroke-linejoin="round"><g><g><g><path d="M50.32,12c0.18,0.38,0.21,0.85,0.16,1.18c-0.25,1.96-2.44,6.65-4.42,9.29" /></g><g><path d="M38.5,22.5c0.36,0.53,0.73,0.8,0.73,1.5c0,0.71,2.24,16.01,2.39,19.5" /><path d="M39.45,23.75c2.06-0.09,18.23-2.41,20.11-2.51c1.57-0.09,3.77,0.79,3.45,2.62c-0.76,4.4-1.51,10.15-2.76,18.52" /><path d="M41.31,32.85C47,32.25,55.5,31,61.18,30.19" /><path d="M43.23,42.03c6.02-0.78,9.77-1.28,16.43-1.98" /></g></g><g p4:part="1" xmlns:p4="http://kanjivg.tagaini.net"><g><g><path d="M49.58,44.75c0.67,0.36,1.78,1.76,1.78,2.48c0,2.66-0.21,4-0.09,6.25" /><path d="M34.94,54.19c0.85,0.06,2.79,0.41,3.61,0.33c6.67-0.69,16.95-1.52,24.35-2.2c1.39-0.13,2.11,0.03,3.16,0.42" /></g><g><path d="M50.65,59.77c3.1,0.73,6.1,1.48,9.23,2.29c1.98,0.51,2.39,1.85,1.99,3.02c-1.62,4.67-6.32,12.04-8.86,14.67c-2.76,2.86-4.6-0.61-5.42-0.99" /><path d="M50.02,55.98c0.04,0.53,0.21,1.4-0.09,2.12C47.5,64,43.25,71,34.13,78.44" /></g></g></g><g p4:part="2" xmlns:p4="http://kanjivg.tagaini.net"><g><g><path d="M77.77,13.64c0.03,0.76,0.15,1.99-0.07,3.04c-1.39,6.71-4.99,19.8-12.2,29.07" /><path d="M76.53,31.45c0.59,0.14,1.67,0.2,2.25,0.14C84,31,90.25,29.9,96.07,29.62c1.04-0.05,1.69-0.01,1.96,0.03" /></g><g><g><path d="M88.73,33.93c0.42,1.23,0.65,2.12,0.21,4.38C84.91,58.81,76.75,76,62.48,84.25" /></g><path d="M70.5,44.4c4.65,7,16.06,29.89,22.98,37.77c1.33,1.52,2.18,1.77,3.27,1.93" /></g></g></g><g><path d="M17.21,13.75c3.99,1.52,10.3,6.26,11.29,8.63" /><path d="M13.96,33.25c3.99,1.57,10.3,6.45,11.29,8.88" /><path d="M10.5,55.94c2.25,0.85,3.75,0.43,4.75,0.21c1-0.21,8.5-2.99,10-3.42c1.5-0.43,3.75,1.07,2.75,2.35s-5,7.19-5.75,8.26c-0.75,1.07-0.5,2.99,1,4.48s2.75,3.2,3.5,4.48c0.75,1.28,0.75,2.35-0.75,3.42c-1.5,1.07-8.5,6.04-10,6.47" /><path d="M11.25,84.65c2.92-0.5,8.66-0.67,13.16-0.76c7.84-0.15,29.31,7.27,33.62,8.57C69.72,96,77.25,96.75,87.5,97.24" /></g></g></g><g fill="none" stroke="#000" stroke-width="5" stroke-linecap="round" stroke-linejoin="round"><g><g><g><path d="M50.32,12c0.18,0.38,0.21,0.85,0.16,1.18c-0.25,1.96-2.44,6.65-4.42,9.29" stroke-dasharray="11.56" stroke-dashoffset="11.56"><animate id="0" attributeName="stroke-dashoffset" values="11.56;0" dur="0.12s" fill="freeze" begin="0s;9080.click" /></path></g><g><path d="M38.5,22.5c0.36,0.53,0.73,0.8,0.73,1.5c0,0.71,2.24,16.01,2.39,19.5" stroke-dasharray="21.36" stroke-dashoffset="21.36"><animate attributeName="stroke-dashoffset" values="21.36" fill="freeze" begin="9080.click" /><animate id="1" attributeName="stroke-dashoffset" values="21.36;0" dur="0.21s" fill="freeze" begin="0.end" /></path><path d="M39.45,23.75c2.06-0.09,18.23-2.41,20.11-2.51c1.57-0.09,3.77,0.79,3.45,2.62c-0.76,4.4-1.51,10.15-2.76,18.52" stroke-dasharray="43.96" stroke-dashoffset="43.96"><animate attributeName="stroke-dashoffset" values="43.96" fill="freeze" begin="9080.click" /><animate id="2" attributeName="stroke-dashoffset" values="43.96;0" dur="0.44s" fill="freeze" begin="1.end" /></path><path d="M41.31,32.85C47,32.25,55.5,31,61.18,30.19" stroke-dasharray="20.05" stroke-dashoffset="20.05"><animate attributeName="stroke-dashoffset" values="20.05" fill="freeze" begin="9080.click" /><animate id="3" attributeName="stroke-dashoffset" values="20.05;0" dur="0.2s" fill="freeze" begin="2.end" /></path><path d="M43.23,42.03c6.02-0.78,9.77-1.28,16.43-1.98" stroke-dasharray="16.55" stroke-dashoffset="16.55"><animate attributeName="stroke-dashoffset" values="16.55" fill="freeze" begin="9080.click" /><animate id="4" attributeName="stroke-dashoffset" values="16.55;0" dur="0.17s" fill="freeze" begin="3.end" /></path></g></g><g p4:part="1" xmlns:p4="http://kanjivg.tagaini.net"><g><g><path d="M49.58,44.75c0.67,0.36,1.78,1.76,1.78,2.48c0,2.66-0.21,4-0.09,6.25" stroke-dasharray="9.39" stroke-dashoffset="9.39"><animate attributeName="stroke-dashoffset" values="9.39" fill="freeze" begin="9080.click" /><animate id="5" attributeName="stroke-dashoffset" values="9.39;0" dur="0.09s" fill="freeze" begin="4.end" /></path><path d="M34.94,54.19c0.85,0.06,2.79,0.41,3.61,0.33c6.67-0.69,16.95-1.52,24.35-2.2c1.39-0.13,2.11,0.03,3.16,0.42" stroke-dasharray="31.3" stroke-dashoffset="31.3"><animate attributeName="stroke-dashoffset" values="31.3" fill="freeze" begin="9080.click" /><animate id="6" attributeName="stroke-dashoffset" values="31.3;0" dur="0.31s" fill="freeze" begin="5.end" /></path></g><g><path d="M50.65,59.77c3.1,0.73,6.1,1.48,9.23,2.29c1.98,0.51,2.39,1.85,1.99,3.02c-1.62,4.67-6.32,12.04-8.86,14.67c-2.76,2.86-4.6-0.61-5.42-0.99" stroke-dasharray="37.37" stroke-dashoffset="37.37"><animate attributeName="stroke-dashoffset" values="37.37" fill="freeze" begin="9080.click" /><animate id="7" attributeName="stroke-dashoffset" values="37.37;0" dur="0.37s" fill="freeze" begin="6.end" /></path><path d="M50.02,55.98c0.04,0.53,0.21,1.4-0.09,2.12C47.5,64,43.25,71,34.13,78.44" stroke-dasharray="28.18" stroke-dashoffset="28.18"><animate attributeName="stroke-dashoffset" values="28.18" fill="freeze" begin="9080.click" /><animate id="8" attributeName="stroke-dashoffset" values="28.18;0" dur="0.28s" fill="freeze" begin="7.end" /></path></g></g></g><g p4:part="2" xmlns:p4="http://kanjivg.tagaini.net"><g><g><path d="M77.77,13.64c0.03,0.76,0.15,1.99-0.07,3.04c-1.39,6.71-4.99,19.8-12.2,29.07" stroke-dasharray="34.83" stroke-dashoffset="34.83"><animate attributeName="stroke-dashoffset" values="34.83" fill="freeze" begin="9080.click" /><animate id="9" attributeName="stroke-dashoffset" values="34.83;0" dur="0.35s" fill="freeze" begin="8.end" /></path><path d="M76.53,31.45c0.59,0.14,1.67,0.2,2.25,0.14C84,31,90.25,29.9,96.07,29.62c1.04-0.05,1.69-0.01,1.96,0.03" stroke-dasharray="21.63" stroke-dashoffset="21.63"><animate attributeName="stroke-dashoffset" values="21.63" fill="freeze" begin="9080.click" /><animate id="10" attributeName="stroke-dashoffset" values="21.63;0" dur="0.22s" fill="freeze" begin="9.end" /></path></g><g><g><path d="M88.73,33.93c0.42,1.23,0.65,2.12,0.21,4.38C84.91,58.81,76.75,76,62.48,84.25" stroke-dasharray="59.08" stroke-dashoffset="59.08"><animate attributeName="stroke-dashoffset" values="59.08" fill="freeze" begin="9080.click" /><animate id="11" attributeName="stroke-dashoffset" values="59.08;0" dur="0.59s" fill="freeze" begin="10.end" /></path></g><path d="M70.5,44.4c4.65,7,16.06,29.89,22.98,37.77c1.33,1.52,2.18,1.77,3.27,1.93" stroke-dasharray="48.16" stroke-dashoffset="48.16"><animate attributeName="stroke-dashoffset" values="48.16" fill="freeze" begin="9080.click" /><animate id="12" attributeName="stroke-dashoffset" values="48.16;0" dur="0.48s" fill="freeze" begin="11.end" /></path></g></g></g><g><path d="M17.21,13.75c3.99,1.52,10.3,6.26,11.29,8.63" stroke-dasharray="14.41" stroke-dashoffset="14.41"><animate attributeName="stroke-dashoffset" values="14.41" fill="freeze" begin="9080.click" /><animate id="13" attributeName="stroke-dashoffset" values="14.41;0" dur="0.14s" fill="freeze" begin="12.end" /></path><path d="M13.96,33.25c3.99,1.57,10.3,6.45,11.29,8.88" stroke-dasharray="14.57" stroke-dashoffset="14.57"><animate attributeName="stroke-dashoffset" values="14.57" fill="freeze" begin="9080.click" /><animate id="14" attributeName="stroke-dashoffset" values="14.57;0" dur="0.15s" fill="freeze" begin="13.end" /></path><path d="M10.5,55.94c2.25,0.85,3.75,0.43,4.75,0.21c1-0.21,8.5-2.99,10-3.42c1.5-0.43,3.75,1.07,2.75,2.35s-5,7.19-5.75,8.26c-0.75,1.07-0.5,2.99,1,4.48s2.75,3.2,3.5,4.48c0.75,1.28,0.75,2.35-0.75,3.42c-1.5,1.07-8.5,6.04-10,6.47" stroke-dasharray="56.6" stroke-dashoffset="56.6"><animate attributeName="stroke-dashoffset" values="56.6" fill="freeze" begin="9080.click" /><animate id="15" attributeName="stroke-dashoffset" values="56.6;0" dur="0.57s" fill="freeze" begin="14.end" /></path><path d="M11.25,84.65c2.92-0.5,8.66-0.67,13.16-0.76c7.84-0.15,29.31,7.27,33.62,8.57C69.72,96,77.25,96.75,87.5,97.24" stroke-dasharray="77.93" stroke-dashoffset="77.93"><animate attributeName="stroke-dashoffset" values="77.93" fill="freeze" begin="9080.click" /><animate id="16" attributeName="stroke-dashoffset" values="77.93;0" dur="0.59s" fill="freeze" begin="15.end" /></path></g></g></g></svg>