<svg xmlns="http://www.w3.org/2000/svg" width="109" height="109" viewBox="0 0 109 109" id="9081"><g fill="none" stroke="#666" stroke-width="9" stroke-linecap="round" stroke-linejoin="round"><g><g><g><path d="M39.78,17.77c1.36,0.65,2.94,0.71,4.32,0.65c9.8-0.42,27.8-2.07,42.25-2.16c2.27-0.01,3.64,0.31,4.77,0.63" /><path d="M53.89,10.36c1.1,1.21,1.44,1.58,1.57,2.32c0.8,4.56,0.61,7.24,1.22,12.32" /><path d="M72.72,9.89c0.7,0.84,1.17,2.13,0.94,3.38c-0.61,3.32-1.41,6.24-2.19,9.48" /></g><g><g><g p7:part="1" xmlns:p7="http://kanjivg.tagaini.net"><path d="M46.6,29.78c0.24,0.37,0.24,0.62,0.37,1.08c1.06,3.79,1.97,13.54,2.59,20.59" /><path d="M47.72,30.66c8.41-0.76,25.48-2.62,31.76-3.28c2.31-0.24,3.33,1.65,3.14,4c-0.3,3.8-1.4,10.77-2.76,18.24" /><path d="M48.9,40.49c2.74-0.31,30.19-2.79,32.46-2.89" /><path d="M49.68,49.26c8.82-0.51,21.89-1.44,30.24-1.92" /></g></g><g><path d="M42.02,57.69c0.69,0.35,1.18,1.38,1.23,2.07c0.24,3.4,0.76,17.49,1,22.76" /><path d="M43.25,59.8c5.48-0.81,42.01-4.17,43.1-4.23c1.65-0.08,3,1.08,3.04,3.21c0.12,5.97-1.13,15.22-2.11,22.96c-0.71,5.66-4.24,1.7-6.28-1.34" /><g p7:part="2" xmlns:p7="http://kanjivg.tagaini.net"><path d="M63.87,31.36c0.36,0.62,0.92,1.22,0.92,2.35c-0.01,4.92,0.15,34.16,0.15,35.67" /></g><path d="M54.22,72.42c1.02,0.75,2.16,1.14,3.07,0.83c2.55-0.88,13.05-4.89,18.4-6.51" /><path d="M71.94,64.3c2.78,1.4,7.19,5.85,7.88,8.11" /></g></g></g><g><path d="M16.46,11.25C21.24,13.04,28.81,18.6,30,21.38" /><path d="M16.46,31.25c4.52,1.48,11.67,6.08,12.79,8.38" /><path d="M14.5,54.83c2.25,0.95,3.75,0.48,4.75,0.24c1-0.24,8.5-2.84,10-3.32c1.5-0.48,3.75,1.19,2.75,2.63c-1,1.43-4.36,5.21-6.75,7.62c-1.75,1.76-1.5,3.01,1,5.01c1.75,1.41,4.25,3.08,5,4.51C32,72.95,32,74.15,30.5,75.34c-1.5,1.2-9,8.38-10.5,8.86" /><path d="M15.25,85.55c2.86-0.46,8.49-1.07,12.85-0.68c7.15,0.64,28.63,7.03,32.85,8.21c11.42,3.19,16.05,3.68,25.3,4.51" /></g></g></g><g fill="none" stroke="#000" stroke-width="5" stroke-linecap="round" stroke-linejoin="round"><g><g><g><path d="M39.78,17.77c1.36,0.65,2.94,0.71,4.32,0.65c9.8-0.42,27.8-2.07,42.25-2.16c2.27-0.01,3.64,0.31,4.77,0.63" stroke-dasharray="51.55" stroke-dashoffset="51.55"><animate id="0" attributeName="stroke-dashoffset" values="51.55;0" dur="0.52s" fill="freeze" begin="0s;9081.click" /></path><path d="M53.89,10.36c1.1,1.21,1.44,1.58,1.57,2.32c0.8,4.56,0.61,7.24,1.22,12.32" stroke-dasharray="15.23" stroke-dashoffset="15.23"><animate attributeName="stroke-dashoffset" values="15.23" fill="freeze" begin="9081.click" /><animate id="1" attributeName="stroke-dashoffset" values="15.23;0" dur="0.15s" fill="freeze" begin="0.end" /></path><path d="M72.72,9.89c0.7,0.84,1.17,2.13,0.94,3.38c-0.61,3.32-1.41,6.24-2.19,9.48" stroke-dasharray="13.35" stroke-dashoffset="13.35"><animate attributeName="stroke-dashoffset" values="13.35" fill="freeze" begin="9081.click" /><animate id="2" attributeName="stroke-dashoffset" values="13.35;0" dur="0.13s" fill="freeze" begin="1.end" /></path></g><g><g><g p7:part="1" xmlns:p7="http://kanjivg.tagaini.net"><path d="M46.6,29.78c0.24,0.37,0.24,0.62,0.37,1.08c1.06,3.79,1.97,13.54,2.59,20.59" stroke-dasharray="21.92" stroke-dashoffset="21.92"><animate attributeName="stroke-dashoffset" values="21.92" fill="freeze" begin="9081.click" /><animate id="3" attributeName="stroke-dashoffset" values="21.92;0" dur="0.22s" fill="freeze" begin="2.end" /></path><path d="M47.72,30.66c8.41-0.76,25.48-2.62,31.76-3.28c2.31-0.24,3.33,1.65,3.14,4c-0.3,3.8-1.4,10.77-2.76,18.24" stroke-dasharray="56.33" stroke-dashoffset="56.33"><animate attributeName="stroke-dashoffset" values="56.33" fill="freeze" begin="9081.click" /><animate id="4" attributeName="stroke-dashoffset" values="56.33;0" dur="0.56s" fill="freeze" begin="3.end" /></path><path d="M48.9,40.49c2.74-0.31,30.19-2.79,32.46-2.89" stroke-dasharray="32.59" stroke-dashoffset="32.59"><animate attributeName="stroke-dashoffset" values="32.59" fill="freeze" begin="9081.click" /><animate id="5" attributeName="stroke-dashoffset" values="32.59;0" dur="0.33s" fill="freeze" begin="4.end" /></path><path d="M49.68,49.26c8.82-0.51,21.89-1.44,30.24-1.92" stroke-dasharray="30.3" stroke-dashoffset="30.3"><animate attributeName="stroke-dashoffset" values="30.3" fill="freeze" begin="9081.click" /><animate id="6" attributeName="stroke-dashoffset" values="30.3;0" dur="0.3s" fill="freeze" begin="5.end" /></path></g></g><g><path d="M42.02,57.69c0.69,0.35,1.18,1.38,1.23,2.07c0.24,3.4,0.76,17.49,1,22.76" stroke-dasharray="25.28" stroke-dashoffset="25.28"><animate attributeName="stroke-dashoffset" values="25.28" fill="freeze" begin="9081.click" /><animate id="7" attributeName="stroke-dashoffset" values="25.28;0" dur="0.25s" fill="freeze" begin="6.end" /></path><path d="M43.25,59.8c5.48-0.81,42.01-4.17,43.1-4.23c1.65-0.08,3,1.08,3.04,3.21c0.12,5.97-1.13,15.22-2.11,22.96c-0.71,5.66-4.24,1.7-6.28-1.34" stroke-dasharray="81.38" stroke-dashoffset="81.38"><animate attributeName="stroke-dashoffset" values="81.38" fill="freeze" begin="9081.click" /><animate id="8" attributeName="stroke-dashoffset" values="81.38;0" dur="0.61s" fill="freeze" begin="7.end" /></path><g p7:part="2" xmlns:p7="http://kanjivg.tagaini.net"><path d="M63.87,31.36c0.36,0.62,0.92,1.22,0.92,2.35c-0.01,4.92,0.15,34.16,0.15,35.67" stroke-dasharray="38.24" stroke-dashoffset="38.24"><animate attributeName="stroke-dashoffset" values="38.24" fill="freeze" begin="9081.click" /><animate id="9" attributeName="stroke-dashoffset" values="38.24;0" dur="0.38s" fill="freeze" begin="8.end" /></path></g><path d="M54.22,72.42c1.02,0.75,2.16,1.14,3.07,0.83c2.55-0.88,13.05-4.89,18.4-6.51" stroke-dasharray="22.82" stroke-dashoffset="22.82"><animate attributeName="stroke-dashoffset" values="22.82" fill="freeze" begin="9081.click" /><animate id="10" attributeName="stroke-dashoffset" values="22.82;0" dur="0.23s" fill="freeze" begin="9.end" /></path><path d="M71.94,64.3c2.78,1.4,7.19,5.85,7.88,8.11" stroke-dasharray="11.48" stroke-dashoffset="11.48"><animate attributeName="stroke-dashoffset" values="11.48" fill="freeze" begin="9081.click" /><animate id="11" attributeName="stroke-dashoffset" values="11.48;0" dur="0.11s" fill="freeze" begin="10.end" /></path></g></g></g><g><path d="M16.46,11.25C21.24,13.04,28.81,18.6,30,21.38" stroke-dasharray="17.14" stroke-dashoffset="17.14"><animate attributeName="stroke-dashoffset" values="17.14" fill="freeze" begin="9081.click" /><animate id="12" attributeName="stroke-dashoffset" values="17.14;0" dur="0.17s" fill="freeze" begin="11.end" /></path><path d="M16.46,31.25c4.52,1.48,11.67,6.08,12.79,8.38" stroke-dasharray="15.49" stroke-dashoffset="15.49"><animate attributeName="stroke-dashoffset" values="15.49" fill="freeze" begin="9081.click" /><animate id="13" attributeName="stroke-dashoffset" values="15.49;0" dur="0.15s" fill="freeze" begin="12.end" /></path><path d="M14.5,54.83c2.25,0.95,3.75,0.48,4.75,0.24c1-0.24,8.5-2.84,10-3.32c1.5-0.48,3.75,1.19,2.75,2.63c-1,1.43-4.36,5.21-6.75,7.62c-1.75,1.76-1.5,3.01,1,5.01c1.75,1.41,4.25,3.08,5,4.51C32,72.95,32,74.15,30.5,75.34c-1.5,1.2-9,8.38-10.5,8.86" stroke-dasharray="61.41" stroke-dashoffset="61.41"><animate attributeName="stroke-dashoffset" values="61.41" fill="freeze" begin="9081.click" /><animate id="14" attributeName="stroke-dashoffset" values="61.41;0" dur="0.46s" fill="freeze" begin="13.end" /></path><path d="M15.25,85.55c2.86-0.46,8.49-1.07,12.85-0.68c7.15,0.64,28.63,7.03,32.85,8.21c11.42,3.19,16.05,3.68,25.3,4.51" stroke-dasharray="72.53" stroke-dashoffset="72.53"><animate attributeName="stroke-dashoffset" values="72.53" fill="freeze" begin="9081.click" /><animate id="15" attributeName="stroke-dashoffset" values="72.53;0" dur="0.55s" fill="freeze" begin="14.end" /></path></g></g></g></svg>