<svg xmlns="http://www.w3.org/2000/svg" width="109" height="109" viewBox="0 0 109 109" id="90a6"><g fill="none" stroke="#666" stroke-width="9" stroke-linecap="round" stroke-linejoin="round"><g><g p4:phon="丰" xmlns:p4="http://kanjivg.tagaini.net"><g><g><path d="M16.76,31.2c2.16,0.87,4.82,0.96,7.12,0.69c9.61-1.11,16.62-2.54,24.39-3.56c1.71-0.22,3.51-0.5,5.21-0.03" /></g><g><g><path d="M18.61,46.71c2.34,0.69,4.51,1.05,6.89,0.67c9.67-1.54,14.43-2.67,21.89-3.67c1.51-0.2,3.36-0.68,4.87-0.27" /></g><g><path d="M13.09,65.81c2.51,1.15,6.3,0.76,8.91,0.18c9.5-2.12,17.38-3.74,28.24-4.94c2.56-0.28,4.12-0.16,5.41,0.19" /></g></g></g><g><path d="M35.69,12c0.97,0.97,1.17,2.5,1.17,4.72c0,27.15,3.51,64.78-20.55,82.5" /></g></g><g><path d="M63.92,20.81c1.96,0.94,3.48,0.97,5.46,0.59c5.45-1.06,14.09-3.3,16.39-4.07c3.24-1.08,6.06,1.49,4.78,4.1C88.5,25.62,84,34.5,80.7,39.87" /><path d="M81,40c18.38,12.38,11.62,38.38-0.06,28.82" /><path d="M66.08,22.25c0.9,0.9,1.07,2,1.07,3.75c0,12.2,0.06,52.5,0.06,64.75c0,4.05-0.05,7.31-0.09,8.38" /></g></g></g><g fill="none" stroke="#000" stroke-width="5" stroke-linecap="round" stroke-linejoin="round"><path d="M16.76,31.2c2.16,0.87,4.82,0.96,7.12,0.69c9.61-1.11,16.62-2.54,24.39-3.56c1.71-0.22,3.51-0.5,5.21-0.03" stroke-dasharray="37.123" stroke-dashoffset="37.123"><animate attributeName="stroke-dashoffset" values="37.123;37.123;0" dur="0.371s" fill="freeze" begin="0s;90a6.click" /></path><path d="M18.61,46.71c2.34,0.69,4.51,1.05,6.89,0.67c9.67-1.54,14.43-2.67,21.89-3.67c1.51-0.2,3.36-0.68,4.87-0.27" stroke-dasharray="34.096" stroke-dashoffset="34.096"><animate attributeName="stroke-dashoffset" values="34.096" fill="freeze" begin="90a6.click" /><animate attributeName="stroke-dashoffset" values="34.096;34.096;0" keyTimes="0;0.521;1" dur="0.712s" fill="freeze" begin="0s;90a6.click" /></path><path d="M13.09,65.81c2.51,1.15,6.3,0.76,8.91,0.18c9.5-2.12,17.38-3.74,28.24-4.94c2.56-0.28,4.12-0.16,5.41,0.19" stroke-dasharray="43.181" stroke-dashoffset="43.181"><animate attributeName="stroke-dashoffset" values="43.181" fill="freeze" begin="90a6.click" /><animate attributeName="stroke-dashoffset" values="43.181;43.181;0" keyTimes="0;0.622;1" dur="1.144s" fill="freeze" begin="0s;90a6.click" /></path><path d="M35.69,12c0.97,0.97,1.17,2.5,1.17,4.72c0,27.15,3.51,64.78-20.55,82.5" stroke-dasharray="93.396" stroke-dashoffset="93.396"><animate attributeName="stroke-dashoffset" values="93.396" fill="freeze" begin="90a6.click" /><animate attributeName="stroke-dashoffset" values="93.396;93.396;0" keyTimes="0;0.62;1" dur="1.846s" fill="freeze" begin="0s;90a6.click" /></path><path d="M63.92,20.81c1.96,0.94,3.48,0.97,5.46,0.59c5.45-1.06,14.09-3.3,16.39-4.07c3.24-1.08,6.06,1.49,4.78,4.1C88.5,25.62,84,34.5,80.7,39.87" stroke-dasharray="51.527" stroke-dashoffset="51.527"><animate attributeName="stroke-dashoffset" values="51.527" fill="freeze" begin="90a6.click" /><animate attributeName="stroke-dashoffset" values="51.527;51.527;0" keyTimes="0;0.782;1" dur="2.361s" fill="freeze" begin="0s;90a6.click" /></path><path d="M81,40c18.38,12.38,11.62,38.38-0.06,28.82" stroke-dasharray="43.382" stroke-dashoffset="43.382"><animate attributeName="stroke-dashoffset" values="43.382" fill="freeze" begin="90a6.click" /><animate attributeName="stroke-dashoffset" values="43.382;43.382;0" keyTimes="0;0.845;1" dur="2.795s" fill="freeze" begin="0s;90a6.click" /></path><path d="M66.08,22.25c0.9,0.9,1.07,2,1.07,3.75c0,12.2,0.06,52.5,0.06,64.75c0,4.05-0.05,7.31-0.09,8.38" stroke-dasharray="77.147" stroke-dashoffset="77.147"><animate attributeName="stroke-dashoffset" values="77.147" fill="freeze" begin="90a6.click" /><animate attributeName="stroke-dashoffset" values="77.147;77.147;0" keyTimes="0;0.828;1" dur="3.375s" fill="freeze" begin="0s;90a6.click" /></path></g></svg>