<svg xmlns="http://www.w3.org/2000/svg" width="109" height="109" viewBox="0 0 109 109" id="90b1"><g fill="none" stroke="#666" stroke-width="6" stroke-linecap="round" stroke-linejoin="round"><g><g><g><path d="M47.24,9c0.07,0.34,0.25,0.97-0.13,1.35c-4.73,4.74-11.72,9.08-24.04,12.9" /><path d="M18.37,22.63c1.38,0.87,1.94,2.67,1.98,5.26C20.5,39.25,20.25,66.5,20.52,77" /><path d="M20.28,39.81c6.32-1.08,22.09-3.13,29.76-4.49c1.14-0.2,3.15-0.17,3.87,0" /><path d="M42.14,36.8c0.43,0.58,0.8,2.57,0.78,3.75c-0.21,11.82-0.14,19.7-0.14,29.45" /></g><g><path d="M11.25,78.58c0.73,1.18,2.08,1.4,2.78,1.18C23,77,46.1,69.63,53.84,67.49" /></g></g><g><path d="M64.67,17.56c0.85,0.09,2.36,0.7,3.45,0.49c4.71-0.91,17.92-2.94,20.4-3.85c3.05-1.12,6.11,1.12,4.75,3.73s-10.63,19.99-13,23.72" /><path d="M79.76,42.21C101.25,54.5,92.75,92,80.04,76.35" /><path d="M66.89,19.05c0.22,1.12,0,74.2-0.22,81.2" /></g></g></g><g fill="none" stroke="#000" stroke-width="3" stroke-linecap="round" stroke-linejoin="round"><path d="M47.24,9c0.07,0.34,0.25,0.97-0.13,1.35c-4.73,4.74-11.72,9.08-24.04,12.9" stroke-dasharray="28.973" stroke-dashoffset="28.973"><animate attributeName="stroke-dashoffset" values="28.973;28.973;0" dur="0.29s" fill="freeze" begin="0s;90b1.click" /></path><path d="M18.37,22.63c1.38,0.87,1.94,2.67,1.98,5.26C20.5,39.25,20.25,66.5,20.52,77" stroke-dasharray="54.969" stroke-dashoffset="54.969"><animate attributeName="stroke-dashoffset" values="54.969" fill="freeze" begin="90b1.click" /><animate attributeName="stroke-dashoffset" values="54.969;54.969;0" keyTimes="0;0.345;1" dur="0.84s" fill="freeze" begin="0s;90b1.click" /></path><path d="M20.28,39.81c6.32-1.08,22.09-3.13,29.76-4.49c1.14-0.2,3.15-0.17,3.87,0" stroke-dasharray="33.984" stroke-dashoffset="33.984"><animate attributeName="stroke-dashoffset" values="33.984" fill="freeze" begin="90b1.click" /><animate attributeName="stroke-dashoffset" values="33.984;33.984;0" keyTimes="0;0.712;1" dur="1.18s" fill="freeze" begin="0s;90b1.click" /></path><path d="M42.14,36.8c0.43,0.58,0.8,2.57,0.78,3.75c-0.21,11.82-0.14,19.7-0.14,29.45" stroke-dasharray="33.319" stroke-dashoffset="33.319"><animate attributeName="stroke-dashoffset" values="33.319" fill="freeze" begin="90b1.click" /><animate attributeName="stroke-dashoffset" values="33.319;33.319;0" keyTimes="0;0.78;1" dur="1.513s" fill="freeze" begin="0s;90b1.click" /></path><path d="M11.25,78.58c0.73,1.18,2.08,1.4,2.78,1.18C23,77,46.1,69.63,53.84,67.49" stroke-dasharray="44.889" stroke-dashoffset="44.889"><animate attributeName="stroke-dashoffset" values="44.889" fill="freeze" begin="90b1.click" /><animate attributeName="stroke-dashoffset" values="44.889;44.889;0" keyTimes="0;0.771;1" dur="1.962s" fill="freeze" begin="0s;90b1.click" /></path><path d="M64.67,17.56c0.85,0.09,2.36,0.7,3.45,0.49c4.71-0.91,17.92-2.94,20.4-3.85c3.05-1.12,6.11,1.12,4.75,3.73s-10.63,19.99-13,23.72" stroke-dasharray="59.218" stroke-dashoffset="59.218"><animate attributeName="stroke-dashoffset" values="59.218" fill="freeze" begin="90b1.click" /><animate attributeName="stroke-dashoffset" values="59.218;59.218;0" keyTimes="0;0.768;1" dur="2.554s" fill="freeze" begin="0s;90b1.click" /></path><path d="M79.76,42.21C101.25,54.5,92.75,92,80.04,76.35" stroke-dasharray="52.828" stroke-dashoffset="52.828"><animate attributeName="stroke-dashoffset" values="52.828" fill="freeze" begin="90b1.click" /><animate attributeName="stroke-dashoffset" values="52.828;52.828;0" keyTimes="0;0.829;1" dur="3.082s" fill="freeze" begin="0s;90b1.click" /></path><path d="M66.89,19.05c0.22,1.12,0,74.2-0.22,81.2" stroke-dasharray="81.203" stroke-dashoffset="81.203"><animate attributeName="stroke-dashoffset" values="81.203" fill="freeze" begin="90b1.click" /><animate attributeName="stroke-dashoffset" values="81.203;81.203;0" keyTimes="0;0.835;1" dur="3.693s" fill="freeze" begin="0s;90b1.click" /></path></g></svg>