<svg xmlns="http://www.w3.org/2000/svg" width="109" height="109" viewBox="0 0 109 109" id="90e2"><g fill="none" stroke="#666" stroke-width="9" stroke-linecap="round" stroke-linejoin="round"><g><g><g><path d="M18.54,14.06c0.35,0.4,0.71,0.73,0.87,1.22c1.22,3.92,2.2,12.48,3.51,21.79" /><path d="M20.73,15.41c9.27-0.66,23.43-2.34,27.88-2.89c1.63-0.2,2.6,2.04,2.37,3.24c-0.96,4.94-2.14,6.62-3.77,16.32" /><path d="M23.27,34.48c5.22-0.63,19.44-1.66,26.07-2.29" /></g><g p5:partial xmlns:p5="http://kanjivg.tagaini.net"><g><g><path d="M49.2,39.25c0.08,0.26,0.31,0.75-0.16,1.04c-5.85,3.67-14.5,7.04-29.75,10" /></g><g><path d="M11.34,64.18c0.97,0.77,4.16,0.37,5.16,0.33c7.25-0.26,23.67-2.22,35.8-3.59c1.21-0.14,2.63-0.31,4.44,0.36" /><path d="M35.37,49.65c0.74,1.28,0.74,2.05,0.74,3.07c0,7.16,0.19,22.55,0,29.72" /><path d="M16,87.45c0.57,1.25,3.5,1.4,4.51,1.02c9.99-3.72,21.52-8.16,32.23-12.57" /></g></g></g></g><g><path d="M64.17,17.08c0.88,0.09,2.43,0.6,3.57,0.49c5.76-0.57,18.43-2.46,21-3.37c3.16-1.13,5.31,1.63,3.91,4.26c-1.4,2.63-8.89,18.08-11.35,21.84" /><path d="M80.77,41.36c19.48,12.89,12.48,52.14-0.1,35.35" /><path d="M66.52,18.58c0.02,0.1,0.04,1.77,0.05,2.91c0.14,11.72-0.07,72.34-0.28,78.76" /></g></g></g><g fill="none" stroke="#000" stroke-width="5" stroke-linecap="round" stroke-linejoin="round"><path d="M18.54,14.06c0.35,0.4,0.71,0.73,0.87,1.22c1.22,3.92,2.2,12.48,3.51,21.79" stroke-dasharray="23.598" stroke-dashoffset="23.598"><animate attributeName="stroke-dashoffset" values="23.598;23.598;0" dur="0.236s" fill="freeze" begin="0s;90e2.click" /></path><path d="M20.73,15.41c9.27-0.66,23.43-2.34,27.88-2.89c1.63-0.2,2.6,2.04,2.37,3.24c-0.96,4.94-2.14,6.62-3.77,16.32" stroke-dasharray="49.345" stroke-dashoffset="49.345"><animate attributeName="stroke-dashoffset" values="49.345" fill="freeze" begin="90e2.click" /><animate attributeName="stroke-dashoffset" values="49.345;49.345;0" keyTimes="0;0.324;1" dur="0.729s" fill="freeze" begin="0s;90e2.click" /></path><path d="M23.27,34.48c5.22-0.63,19.44-1.66,26.07-2.29" stroke-dasharray="26.172" stroke-dashoffset="26.172"><animate attributeName="stroke-dashoffset" values="26.172" fill="freeze" begin="90e2.click" /><animate attributeName="stroke-dashoffset" values="26.172;26.172;0" keyTimes="0;0.736;1" dur="0.991s" fill="freeze" begin="0s;90e2.click" /></path><path d="M49.2,39.25c0.08,0.26,0.31,0.75-0.16,1.04c-5.85,3.67-14.5,7.04-29.75,10" stroke-dasharray="32.718" stroke-dashoffset="32.718"><animate attributeName="stroke-dashoffset" values="32.718" fill="freeze" begin="90e2.click" /><animate attributeName="stroke-dashoffset" values="32.718;32.718;0" keyTimes="0;0.752;1" dur="1.318s" fill="freeze" begin="0s;90e2.click" /></path><path d="M11.34,64.18c0.97,0.77,4.16,0.37,5.16,0.33c7.25-0.26,23.67-2.22,35.8-3.59c1.21-0.14,2.63-0.31,4.44,0.36" stroke-dasharray="45.736" stroke-dashoffset="45.736"><animate attributeName="stroke-dashoffset" values="45.736" fill="freeze" begin="90e2.click" /><animate attributeName="stroke-dashoffset" values="45.736;45.736;0" keyTimes="0;0.743;1" dur="1.775s" fill="freeze" begin="0s;90e2.click" /></path><path d="M35.37,49.65c0.74,1.28,0.74,2.05,0.74,3.07c0,7.16,0.19,22.55,0,29.72" stroke-dasharray="32.929" stroke-dashoffset="32.929"><animate attributeName="stroke-dashoffset" values="32.929" fill="freeze" begin="90e2.click" /><animate attributeName="stroke-dashoffset" values="32.929;32.929;0" keyTimes="0;0.844;1" dur="2.104s" fill="freeze" begin="0s;90e2.click" /></path><path d="M16,87.45c0.57,1.25,3.5,1.4,4.51,1.02c9.99-3.72,21.52-8.16,32.23-12.57" stroke-dasharray="39.501" stroke-dashoffset="39.501"><animate attributeName="stroke-dashoffset" values="39.501" fill="freeze" begin="90e2.click" /><animate attributeName="stroke-dashoffset" values="39.501;39.501;0" keyTimes="0;0.842;1" dur="2.499s" fill="freeze" begin="0s;90e2.click" /></path><path d="M64.17,17.08c0.88,0.09,2.43,0.6,3.57,0.49c5.76-0.57,18.43-2.46,21-3.37c3.16-1.13,5.31,1.63,3.91,4.26c-1.4,2.63-8.89,18.08-11.35,21.84" stroke-dasharray="57.276" stroke-dashoffset="57.276"><animate attributeName="stroke-dashoffset" values="57.276" fill="freeze" begin="90e2.click" /><animate attributeName="stroke-dashoffset" values="57.276;57.276;0" keyTimes="0;0.813;1" dur="3.072s" fill="freeze" begin="0s;90e2.click" /></path><path d="M80.77,41.36c19.48,12.89,12.48,52.14-0.1,35.35" stroke-dasharray="53.404" stroke-dashoffset="53.404"><animate attributeName="stroke-dashoffset" values="53.404" fill="freeze" begin="90e2.click" /><animate attributeName="stroke-dashoffset" values="53.404;53.404;0" keyTimes="0;0.852;1" dur="3.606s" fill="freeze" begin="0s;90e2.click" /></path><path d="M66.52,18.58c0.02,0.1,0.04,1.77,0.05,2.91c0.14,11.72-0.07,72.34-0.28,78.76" stroke-dasharray="81.673" stroke-dashoffset="81.673"><animate attributeName="stroke-dashoffset" values="81.673" fill="freeze" begin="90e2.click" /><animate attributeName="stroke-dashoffset" values="81.673;81.673;0" keyTimes="0;0.855;1" dur="4.22s" fill="freeze" begin="0s;90e2.click" /></path></g></svg>