<svg xmlns="http://www.w3.org/2000/svg" width="109" height="109" viewBox="0 0 109 109" id="90f7"><g fill="none" stroke="#666" stroke-width="6" stroke-linecap="round" stroke-linejoin="round"><g><g p4:phon="卿" xmlns:p4="http://kanjivg.tagaini.net"><g><path d="M25.47,18.62c0.28,1.01,0.31,2.33-0.42,3.79c-2.68,5.34-7.1,12.84-10.77,17.27c-0.62,0.75-0.39,2.35,0.28,2.61c3.53,1.34,5.69,2.58,10.13,5.54" /><path d="M34.03,31.4c0.35,1.1,0.1,2.23-0.46,3.18c-3.81,6.5-12.8,20.38-18.85,27.8c-0.81,1,0,2.76,1,2.46C22,63,25.62,61.88,31.79,60.2" /><path d="M33.52,50.25c0.35,1,0.52,2.33,0.42,3.63c-0.69,8.37-4.44,27.37-15.02,35.28" /></g><g p4:partial><path d="M42.87,22.01c1.88,0.99,2.78,1.06,4.92,0.7c3.51-0.6,8.93-1.4,11.98-1.83c3.62-0.52,5.29-0.14,4.74,3.88c-0.71,5.3-1.32,11.97-2.16,18.51c-0.2,1.59-0.42,3.18-0.66,4.77" /><path d="M45.46,35.53c5.17-0.66,12.29-2.03,17.03-2.66" /><path d="M45.62,48.1c4.11-0.43,9.38-1.23,15.46-1.97" /><path d="M42.87,22.01c0.85,0.46,1.53,2.05,1.53,2.99c0,4,0.17,45.5,0.17,51.22c0,2.08,0.77,2.89,2.81,1.28c2.04-1.61,12.38-8.75,16.62-11.25" /><path d="M59.88,57.12C62.3,60.05,66.11,67.83,67.5,74" /></g></g><g><path d="M73.42,23.67c0.99,0.34,2.14,0.73,3.32,0.53c5.51-0.95,8.51-1.57,11.93-2.28c3.1-0.64,4.96,1.11,3.92,3.58c-1.58,3.75-5.83,12.75-8.83,18" /><path d="M83.75,43.5c13.62,8.62,14.5,37.25,1.92,29" /><path d="M74.62,24.5c0.88,0.88,1.21,1.73,1.21,2.75c0,8.25-0.12,37.75-0.12,61c0,3.08-0.07,5.29-0.1,6.25" /></g></g></g><g fill="none" stroke="#000" stroke-width="3" stroke-linecap="round" stroke-linejoin="round"><path d="M25.47,18.62c0.28,1.01,0.31,2.33-0.42,3.79c-2.68,5.34-7.1,12.84-10.77,17.27c-0.62,0.75-0.39,2.35,0.28,2.61c3.53,1.34,5.69,2.58,10.13,5.54" stroke-dasharray="38.776" stroke-dashoffset="38.776"><animate attributeName="stroke-dashoffset" values="38.776;38.776;0" dur="0.388s" fill="freeze" begin="0s;90f7.click" /></path><path d="M34.03,31.4c0.35,1.1,0.1,2.23-0.46,3.18c-3.81,6.5-12.8,20.38-18.85,27.8c-0.81,1,0,2.76,1,2.46C22,63,25.62,61.88,31.79,60.2" stroke-dasharray="56.993" stroke-dashoffset="56.993"><animate attributeName="stroke-dashoffset" values="56.993" fill="freeze" begin="90f7.click" /><animate attributeName="stroke-dashoffset" values="56.993;56.993;0" keyTimes="0;0.405;1" dur="0.958s" fill="freeze" begin="0s;90f7.click" /></path><path d="M33.52,50.25c0.35,1,0.52,2.33,0.42,3.63c-0.69,8.37-4.44,27.37-15.02,35.28" stroke-dasharray="42.995" stroke-dashoffset="42.995"><animate attributeName="stroke-dashoffset" values="42.995" fill="freeze" begin="90f7.click" /><animate attributeName="stroke-dashoffset" values="42.995;42.995;0" keyTimes="0;0.69;1" dur="1.388s" fill="freeze" begin="0s;90f7.click" /></path><path d="M42.87,22.01c1.88,0.99,2.78,1.06,4.92,0.7c3.51-0.6,8.93-1.4,11.98-1.83c3.62-0.52,5.29-0.14,4.74,3.88c-0.71,5.3-1.32,11.97-2.16,18.51c-0.2,1.59-0.42,3.18-0.66,4.77" stroke-dasharray="48.617" stroke-dashoffset="48.617"><animate attributeName="stroke-dashoffset" values="48.617" fill="freeze" begin="90f7.click" /><animate attributeName="stroke-dashoffset" values="48.617;48.617;0" keyTimes="0;0.741;1" dur="1.874s" fill="freeze" begin="0s;90f7.click" /></path><path d="M45.46,35.53c5.17-0.66,12.29-2.03,17.03-2.66" stroke-dasharray="17.238" stroke-dashoffset="17.238"><animate attributeName="stroke-dashoffset" values="17.238" fill="freeze" begin="90f7.click" /><animate attributeName="stroke-dashoffset" values="17.238;17.238;0" keyTimes="0;0.916;1" dur="2.046s" fill="freeze" begin="0s;90f7.click" /></path><path d="M45.62,48.1c4.11-0.43,9.38-1.23,15.46-1.97" stroke-dasharray="15.586" stroke-dashoffset="15.586"><animate attributeName="stroke-dashoffset" values="15.586" fill="freeze" begin="90f7.click" /><animate attributeName="stroke-dashoffset" values="15.586;15.586;0" keyTimes="0;0.929;1" dur="2.202s" fill="freeze" begin="0s;90f7.click" /></path><path d="M42.87,22.01c0.85,0.46,1.53,2.05,1.53,2.99c0,4,0.17,45.5,0.17,51.22c0,2.08,0.77,2.89,2.81,1.28c2.04-1.61,12.38-8.75,16.62-11.25" stroke-dasharray="79.397" stroke-dashoffset="79.397"><animate attributeName="stroke-dashoffset" values="79.397" fill="freeze" begin="90f7.click" /><animate attributeName="stroke-dashoffset" values="79.397;79.397;0" keyTimes="0;0.787;1" dur="2.799s" fill="freeze" begin="0s;90f7.click" /></path><path d="M59.88,57.12C62.3,60.05,66.11,67.83,67.5,74" stroke-dasharray="18.637" stroke-dashoffset="18.637"><animate attributeName="stroke-dashoffset" values="18.637" fill="freeze" begin="90f7.click" /><animate attributeName="stroke-dashoffset" values="18.637;18.637;0" keyTimes="0;0.938;1" dur="2.985s" fill="freeze" begin="0s;90f7.click" /></path><path d="M73.42,23.67c0.99,0.34,2.14,0.73,3.32,0.53c5.51-0.95,8.51-1.57,11.93-2.28c3.1-0.64,4.96,1.11,3.92,3.58c-1.58,3.75-5.83,12.75-8.83,18" stroke-dasharray="42.497" stroke-dashoffset="42.497"><animate attributeName="stroke-dashoffset" values="42.497" fill="freeze" begin="90f7.click" /><animate attributeName="stroke-dashoffset" values="42.497;42.497;0" keyTimes="0;0.875;1" dur="3.41s" fill="freeze" begin="0s;90f7.click" /></path><path d="M83.75,43.5c13.62,8.62,14.5,37.25,1.92,29" stroke-dasharray="40.662" stroke-dashoffset="40.662"><animate attributeName="stroke-dashoffset" values="40.662" fill="freeze" begin="90f7.click" /><animate attributeName="stroke-dashoffset" values="40.662;40.662;0" keyTimes="0;0.893;1" dur="3.817s" fill="freeze" begin="0s;90f7.click" /></path><path d="M74.62,24.5c0.88,0.88,1.21,1.73,1.21,2.75c0,8.25-0.12,37.75-0.12,61c0,3.08-0.07,5.29-0.1,6.25" stroke-dasharray="70.346" stroke-dashoffset="70.346"><animate attributeName="stroke-dashoffset" values="70.346" fill="freeze" begin="90f7.click" /><animate attributeName="stroke-dashoffset" values="70.346;70.346;0" keyTimes="0;0.878;1" dur="4.346s" fill="freeze" begin="0s;90f7.click" /></path></g></svg>