<svg xmlns="http://www.w3.org/2000/svg" width="109" height="109" viewBox="0 0 109 109" id="90fd"><g fill="none" stroke="#666" stroke-width="9" stroke-linecap="round" stroke-linejoin="round"><g><g p4:phon="者" xmlns:p4="http://kanjivg.tagaini.net"><g p4:partial><g><path d="M20.68,27.91c1.04,0.36,3.12,0.38,4.18,0.25C30.25,27.5,37.25,26.88,43,26.3c1.41-0.14,3.62-0.34,5-0.05" /><path d="M34.63,11.67c1.04,1.04,1.45,2.37,1.54,4.05c0.41,8.04,0.22,21.42,0.22,24.16" /><path d="M10.25,43.27c2.55,0.38,4.97,0.14,7.51-0.08c9.37-0.82,26.46-2.77,35.48-3.53c2.39-0.2,4.57-0.43,6.89,0.33" /></g><path d="M55.13,17.1c0.11,1.16-0.12,2.78-0.98,4.15C43,39.12,31.12,54.88,13.42,68.52" /></g><g><path d="M28.12,56.89c0.31,0.76,0.62,1.89,0.62,2.9c0,0.78,0.13,16.5,0.07,24.7c-0.02,2.44-0.03,4.06-0.03,4.18" /><path d="M30.02,55.52c1.54-0.11,14.72-1.61,19.11-2.09c2.37-0.26,3.43,0.55,3.33,2.94c-0.14,3.26-0.22,16.07-0.24,26c0,1.87-0.01,3.63,0,5.21" /><path d="M29.83,69.75c4.3-0.5,17.17-2,21.06-2.22" /><path d="M29.97,84.6c4.85-0.55,15.12-1.5,21.16-1.97" /></g></g><g><path d="M66.52,22.39c1.35,0.48,2.84,0.61,4.12,0.44c5.23-0.7,11.6-2.33,14.94-3.11c3.26-0.76,5.42,0.53,3.92,4.53c-1,2.66-6.38,14.46-8.85,17.98" /><path d="M80.65,42.48c18.23,12.39,17.6,39.27,2.4,32.13" /><path d="M67.87,23.64c0.87,0.87,1.57,2.23,1.57,3.44c0,0.92,0.01,45.03,0.02,64.29c0,3.47,0,6.13,0,7.59" /></g></g></g><g fill="none" stroke="#000" stroke-width="5" stroke-linecap="round" stroke-linejoin="round"><g><g p4:phon="者" xmlns:p4="http://kanjivg.tagaini.net"><g p4:partial><g><path d="M20.68,27.91c1.04,0.36,3.12,0.38,4.18,0.25C30.25,27.5,37.25,26.88,43,26.3c1.41-0.14,3.62-0.34,5-0.05" stroke-dasharray="27.46" stroke-dashoffset="27.46"><animate id="0" attributeName="stroke-dashoffset" values="27.46;0" dur="0.27s" fill="freeze" begin="0s;90fd.click" /></path><path d="M34.63,11.67c1.04,1.04,1.45,2.37,1.54,4.05c0.41,8.04,0.22,21.42,0.22,24.16" stroke-dasharray="28.6" stroke-dashoffset="28.6"><animate attributeName="stroke-dashoffset" values="28.6" fill="freeze" begin="90fd.click" /><animate id="1" attributeName="stroke-dashoffset" values="28.6;0" dur="0.29s" fill="freeze" begin="0.end" /></path><path d="M10.25,43.27c2.55,0.38,4.97,0.14,7.51-0.08c9.37-0.82,26.46-2.77,35.48-3.53c2.39-0.2,4.57-0.43,6.89,0.33" stroke-dasharray="50.14" stroke-dashoffset="50.14"><animate attributeName="stroke-dashoffset" values="50.14" fill="freeze" begin="90fd.click" /><animate id="2" attributeName="stroke-dashoffset" values="50.14;0" dur="0.5s" fill="freeze" begin="1.end" /></path></g><path d="M55.13,17.1c0.11,1.16-0.12,2.78-0.98,4.15C43,39.12,31.12,54.88,13.42,68.52" stroke-dasharray="67.09" stroke-dashoffset="67.09"><animate attributeName="stroke-dashoffset" values="67.09" fill="freeze" begin="90fd.click" /><animate id="3" attributeName="stroke-dashoffset" values="67.09;0" dur="0.5s" fill="freeze" begin="2.end" /></path></g><g><path d="M28.12,56.89c0.31,0.76,0.62,1.89,0.62,2.9c0,0.78,0.13,16.5,0.07,24.7c-0.02,2.44-0.03,4.06-0.03,4.18" stroke-dasharray="31.86" stroke-dashoffset="31.86"><animate attributeName="stroke-dashoffset" values="31.86" fill="freeze" begin="90fd.click" /><animate id="4" attributeName="stroke-dashoffset" values="31.86;0" dur="0.32s" fill="freeze" begin="3.end" /></path><path d="M30.02,55.52c1.54-0.11,14.72-1.61,19.11-2.09c2.37-0.26,3.43,0.55,3.33,2.94c-0.14,3.26-0.22,16.07-0.24,26c0,1.87-0.01,3.63,0,5.21" stroke-dasharray="55.81" stroke-dashoffset="55.81"><animate attributeName="stroke-dashoffset" values="55.81" fill="freeze" begin="90fd.click" /><animate id="5" attributeName="stroke-dashoffset" values="55.81;0" dur="0.56s" fill="freeze" begin="4.end" /></path><path d="M29.83,69.75c4.3-0.5,17.17-2,21.06-2.22" stroke-dasharray="21.18" stroke-dashoffset="21.18"><animate attributeName="stroke-dashoffset" values="21.18" fill="freeze" begin="90fd.click" /><animate id="6" attributeName="stroke-dashoffset" values="21.18;0" dur="0.21s" fill="freeze" begin="5.end" /></path><path d="M29.97,84.6c4.85-0.55,15.12-1.5,21.16-1.97" stroke-dasharray="21.25" stroke-dashoffset="21.25"><animate attributeName="stroke-dashoffset" values="21.25" fill="freeze" begin="90fd.click" /><animate id="7" attributeName="stroke-dashoffset" values="21.25;0" dur="0.21s" fill="freeze" begin="6.end" /></path></g></g><g><path d="M66.52,22.39c1.35,0.48,2.84,0.61,4.12,0.44c5.23-0.7,11.6-2.33,14.94-3.11c3.26-0.76,5.42,0.53,3.92,4.53c-1,2.66-6.38,14.46-8.85,17.98" stroke-dasharray="47.72" stroke-dashoffset="47.72"><animate attributeName="stroke-dashoffset" values="47.72" fill="freeze" begin="90fd.click" /><animate id="8" attributeName="stroke-dashoffset" values="47.72;0" dur="0.48s" fill="freeze" begin="7.end" /></path><path d="M80.65,42.48c18.23,12.39,17.6,39.27,2.4,32.13" stroke-dasharray="46.41" stroke-dashoffset="46.41"><animate attributeName="stroke-dashoffset" values="46.41" fill="freeze" begin="90fd.click" /><animate id="9" attributeName="stroke-dashoffset" values="46.41;0" dur="0.46s" fill="freeze" begin="8.end" /></path><path d="M67.87,23.64c0.87,0.87,1.57,2.23,1.57,3.44c0,0.92,0.01,45.03,0.02,64.29c0,3.47,0,6.13,0,7.59" stroke-dasharray="75.75" stroke-dashoffset="75.75"><animate attributeName="stroke-dashoffset" values="75.75" fill="freeze" begin="90fd.click" /><animate id="10" attributeName="stroke-dashoffset" values="75.75;0" dur="0.57s" fill="freeze" begin="9.end" /></path></g></g></g></svg>