<svg xmlns="http://www.w3.org/2000/svg" width="109" height="109" viewBox="0 0 109 109" id="90fd"><g fill="none" stroke="#666" stroke-width="9" stroke-linecap="round" stroke-linejoin="round"><g><g p4:phon="者" xmlns:p4="http://kanjivg.tagaini.net"><g p4:partial><g><path d="M20.68,27.91c1.04,0.36,3.12,0.38,4.18,0.25C30.25,27.5,37.25,26.88,43,26.3c1.41-0.14,3.62-0.34,5-0.05" /><path d="M34.63,11.67c1.04,1.04,1.45,2.37,1.54,4.05c0.41,8.04,0.22,21.42,0.22,24.16" /><path d="M10.25,43.27c2.55,0.38,4.97,0.14,7.51-0.08c9.37-0.82,26.46-2.77,35.48-3.53c2.39-0.2,4.57-0.43,6.89,0.33" /></g><path d="M55.13,17.1c0.11,1.16-0.12,2.78-0.98,4.15C43,39.12,31.12,54.88,13.42,68.52" /></g><g><path d="M28.12,56.89c0.31,0.76,0.62,1.89,0.62,2.9c0,0.78,0.13,16.5,0.07,24.7c-0.02,2.44-0.03,4.06-0.03,4.18" /><path d="M30.02,55.52c1.54-0.11,14.72-1.61,19.11-2.09c2.37-0.26,3.43,0.55,3.33,2.94c-0.14,3.26-0.22,16.07-0.24,26c0,1.87-0.01,3.63,0,5.21" /><path d="M29.83,69.75c4.3-0.5,17.17-2,21.06-2.22" /><path d="M29.97,84.6c4.85-0.55,15.12-1.5,21.16-1.97" /></g></g><g><path d="M66.52,22.39c1.35,0.48,2.84,0.61,4.12,0.44c5.23-0.7,11.6-2.33,14.94-3.11c3.26-0.76,5.42,0.53,3.92,4.53c-1,2.66-6.38,14.46-8.85,17.98" /><path d="M80.65,42.48c18.23,12.39,17.6,39.27,2.4,32.13" /><path d="M67.87,23.64c0.87,0.87,1.57,2.23,1.57,3.44c0,0.92,0.01,45.03,0.02,64.29c0,3.47,0,6.13,0,7.59" /></g></g></g><g fill="none" stroke="#000" stroke-width="5" stroke-linecap="round" stroke-linejoin="round"><g><g p4:phon="者" xmlns:p4="http://kanjivg.tagaini.net"><g p4:partial><g><path d="M20.68,27.91c1.04,0.36,3.12,0.38,4.18,0.25C30.25,27.5,37.25,26.88,43,26.3c1.41-0.14,3.62-0.34,5-0.05" stroke-dasharray="27.465" stroke-dashoffset="27.465"><animate attributeName="stroke-dashoffset" values="27.465;27.465;0" dur="0.275s" fill="freeze" begin="0s;90fd.click" /></path><path d="M34.63,11.67c1.04,1.04,1.45,2.37,1.54,4.05c0.41,8.04,0.22,21.42,0.22,24.16" stroke-dasharray="28.604" stroke-dashoffset="28.604"><animate attributeName="stroke-dashoffset" values="28.604" fill="freeze" begin="90fd.click" /><animate attributeName="stroke-dashoffset" values="28.604;28.604;0" keyTimes="0;0.49;1" dur="0.561s" fill="freeze" begin="0s;90fd.click" /></path><path d="M10.25,43.27c2.55,0.38,4.97,0.14,7.51-0.08c9.37-0.82,26.46-2.77,35.48-3.53c2.39-0.2,4.57-0.43,6.89,0.33" stroke-dasharray="50.137" stroke-dashoffset="50.137"><animate attributeName="stroke-dashoffset" values="50.137" fill="freeze" begin="90fd.click" /><animate attributeName="stroke-dashoffset" values="50.137;50.137;0" keyTimes="0;0.528;1" dur="1.062s" fill="freeze" begin="0s;90fd.click" /></path></g><path d="M55.13,17.1c0.11,1.16-0.12,2.78-0.98,4.15C43,39.12,31.12,54.88,13.42,68.52" stroke-dasharray="67.092" stroke-dashoffset="67.092"><animate attributeName="stroke-dashoffset" values="67.092" fill="freeze" begin="90fd.click" /><animate attributeName="stroke-dashoffset" values="67.092;67.092;0" keyTimes="0;0.678;1" dur="1.566s" fill="freeze" begin="0s;90fd.click" /></path></g><g><path d="M28.12,56.89c0.31,0.76,0.62,1.89,0.62,2.9c0,0.78,0.13,16.5,0.07,24.7c-0.02,2.44-0.03,4.06-0.03,4.18" stroke-dasharray="31.864" stroke-dashoffset="31.864"><animate attributeName="stroke-dashoffset" values="31.864" fill="freeze" begin="90fd.click" /><animate attributeName="stroke-dashoffset" values="31.864;31.864;0" keyTimes="0;0.831;1" dur="1.885s" fill="freeze" begin="0s;90fd.click" /></path><path d="M30.02,55.52c1.54-0.11,14.72-1.61,19.11-2.09c2.37-0.26,3.43,0.55,3.33,2.94c-0.14,3.26-0.22,16.07-0.24,26c0,1.87-0.01,3.63,0,5.21" stroke-dasharray="55.807" stroke-dashoffset="55.807"><animate attributeName="stroke-dashoffset" values="55.807" fill="freeze" begin="90fd.click" /><animate attributeName="stroke-dashoffset" values="55.807;55.807;0" keyTimes="0;0.772;1" dur="2.443s" fill="freeze" begin="0s;90fd.click" /></path><path d="M29.83,69.75c4.3-0.5,17.17-2,21.06-2.22" stroke-dasharray="21.179" stroke-dashoffset="21.179"><animate attributeName="stroke-dashoffset" values="21.179" fill="freeze" begin="90fd.click" /><animate attributeName="stroke-dashoffset" values="21.179;21.179;0" keyTimes="0;0.92;1" dur="2.655s" fill="freeze" begin="0s;90fd.click" /></path><path d="M29.97,84.6c4.85-0.55,15.12-1.5,21.16-1.97" stroke-dasharray="21.253" stroke-dashoffset="21.253"><animate attributeName="stroke-dashoffset" values="21.253" fill="freeze" begin="90fd.click" /><animate attributeName="stroke-dashoffset" values="21.253;21.253;0" keyTimes="0;0.926;1" dur="2.868s" fill="freeze" begin="0s;90fd.click" /></path></g></g><g><path d="M66.52,22.39c1.35,0.48,2.84,0.61,4.12,0.44c5.23-0.7,11.6-2.33,14.94-3.11c3.26-0.76,5.42,0.53,3.92,4.53c-1,2.66-6.38,14.46-8.85,17.98" stroke-dasharray="47.723" stroke-dashoffset="47.723"><animate attributeName="stroke-dashoffset" values="47.723" fill="freeze" begin="90fd.click" /><animate attributeName="stroke-dashoffset" values="47.723;47.723;0" keyTimes="0;0.857;1" dur="3.345s" fill="freeze" begin="0s;90fd.click" /></path><path d="M80.65,42.48c18.23,12.39,17.6,39.27,2.4,32.13" stroke-dasharray="46.413" stroke-dashoffset="46.413"><animate attributeName="stroke-dashoffset" values="46.413" fill="freeze" begin="90fd.click" /><animate attributeName="stroke-dashoffset" values="46.413;46.413;0" keyTimes="0;0.878;1" dur="3.809s" fill="freeze" begin="0s;90fd.click" /></path><path d="M67.87,23.64c0.87,0.87,1.57,2.23,1.57,3.44c0,0.92,0.01,45.03,0.02,64.29c0,3.47,0,6.13,0,7.59" stroke-dasharray="75.751" stroke-dashoffset="75.751"><animate attributeName="stroke-dashoffset" values="75.751" fill="freeze" begin="90fd.click" /><animate attributeName="stroke-dashoffset" values="75.751;75.751;0" keyTimes="0;0.87;1" dur="4.379s" fill="freeze" begin="0s;90fd.click" /></path></g></g></g></svg>