<svg xmlns="http://www.w3.org/2000/svg" width="109" height="109" viewBox="0 0 109 109" id="9152"><g fill="none" stroke="#666" stroke-width="6" stroke-linecap="round" stroke-linejoin="round"><g><g><path d="M20.21,16.92c3.72,1.26,9.61,5.68,10.54,7.65" /><path d="M15.71,39.29c4.15,1.39,8.54,4.46,10.76,7.65" /><path d="M14.25,84.1c2.12,0.53,3.47-0.08,4.53-1.47c3.09-4.03,6.19-8.96,9-14.1" /></g><g><g><path d="M38.53,21.81c1.75,0.31,4.56,0.45,6.3,0.26c10.92-1.2,29.17-3.95,41.69-4.45c2.9-0.12,6.08,0.11,7.53,0.26" /><path d="M42.95,39.12c0.65,0.68,1.15,2.1,1.16,3.03c0,0.93,0.02,44.72,0.02,45.18c0,0.46-0.06,2.92-0.06,3.88" /><path d="M45.17,40.77c3.66-0.19,39.62-4.79,42.96-4.99c2.78-0.17,4.76,1.01,4.77,3.64c0.01,1.47-0.16,35.31-0.16,45.5c0,1.96,0,3.96-0.21,6.2" /><path d="M56.58,23.06c0.75,0.75,1.13,1.61,1.2,3.13c0.72,16.56-1.03,28.94-9.57,36.05" /><path d="M71.59,21.21c1.04,1.04,1.46,2.44,1.46,4.18c0,5.65,0.12,15.97,0.12,22.1c0,6.51,0.83,7.66,7.45,7.66c5.17,0,7.38-1.03,8.83-1.98" /></g><g><path d="M45.96,72.79c9.54-0.54,35.79-3.04,45.31-3.42" /></g><g><path d="M46.05,87.82c10.08-0.71,32.71-2.01,45.27-2.7" /></g></g></g></g><g fill="none" stroke="#000" stroke-width="3" stroke-linecap="round" stroke-linejoin="round"><path d="M20.21,16.92c3.72,1.26,9.61,5.68,10.54,7.65" stroke-dasharray="13.195" stroke-dashoffset="13.195"><animate attributeName="stroke-dashoffset" values="13.195;13.195;0" dur="0.132s" fill="freeze" begin="0s;9152.click" /></path><path d="M15.71,39.29c4.15,1.39,8.54,4.46,10.76,7.65" stroke-dasharray="13.4" stroke-dashoffset="13.4"><animate attributeName="stroke-dashoffset" values="13.4" fill="freeze" begin="9152.click" /><animate attributeName="stroke-dashoffset" values="13.4;13.4;0" keyTimes="0;0.496;1" dur="0.266s" fill="freeze" begin="0s;9152.click" /></path><path d="M14.25,84.1c2.12,0.53,3.47-0.08,4.53-1.47c3.09-4.03,6.19-8.96,9-14.1" stroke-dasharray="21.848" stroke-dashoffset="21.848"><animate attributeName="stroke-dashoffset" values="21.848" fill="freeze" begin="9152.click" /><animate attributeName="stroke-dashoffset" values="21.848;21.848;0" keyTimes="0;0.55;1" dur="0.484s" fill="freeze" begin="0s;9152.click" /></path><path d="M38.53,21.81c1.75,0.31,4.56,0.45,6.3,0.26c10.92-1.2,29.17-3.95,41.69-4.45c2.9-0.12,6.08,0.11,7.53,0.26" stroke-dasharray="55.8" stroke-dashoffset="55.8"><animate attributeName="stroke-dashoffset" values="55.8" fill="freeze" begin="9152.click" /><animate attributeName="stroke-dashoffset" values="55.8;55.8;0" keyTimes="0;0.464;1" dur="1.042s" fill="freeze" begin="0s;9152.click" /></path><path d="M42.95,39.12c0.65,0.68,1.15,2.1,1.16,3.03c0,0.93,0.02,44.72,0.02,45.18c0,0.46-0.06,2.92-0.06,3.88" stroke-dasharray="52.365" stroke-dashoffset="52.365"><animate attributeName="stroke-dashoffset" values="52.365" fill="freeze" begin="9152.click" /><animate attributeName="stroke-dashoffset" values="52.365;52.365;0" keyTimes="0;0.665;1" dur="1.566s" fill="freeze" begin="0s;9152.click" /></path><path d="M45.17,40.77c3.66-0.19,39.62-4.79,42.96-4.99c2.78-0.17,4.76,1.01,4.77,3.64c0.01,1.47-0.16,35.31-0.16,45.5c0,1.96,0,3.96-0.21,6.2" stroke-dasharray="101.835" stroke-dashoffset="101.835"><animate attributeName="stroke-dashoffset" values="101.835" fill="freeze" begin="9152.click" /><animate attributeName="stroke-dashoffset" values="101.835;101.835;0" keyTimes="0;0.672;1" dur="2.332s" fill="freeze" begin="0s;9152.click" /></path><path d="M56.58,23.06c0.75,0.75,1.13,1.61,1.2,3.13c0.72,16.56-1.03,28.94-9.57,36.05" stroke-dasharray="42.094" stroke-dashoffset="42.094"><animate attributeName="stroke-dashoffset" values="42.094" fill="freeze" begin="9152.click" /><animate attributeName="stroke-dashoffset" values="42.094;42.094;0" keyTimes="0;0.847;1" dur="2.753s" fill="freeze" begin="0s;9152.click" /></path><path d="M71.59,21.21c1.04,1.04,1.46,2.44,1.46,4.18c0,5.65,0.12,15.97,0.12,22.1c0,6.51,0.83,7.66,7.45,7.66c5.17,0,7.38-1.03,8.83-1.98" stroke-dasharray="48.885" stroke-dashoffset="48.885"><animate attributeName="stroke-dashoffset" values="48.885" fill="freeze" begin="9152.click" /><animate attributeName="stroke-dashoffset" values="48.885;48.885;0" keyTimes="0;0.849;1" dur="3.242s" fill="freeze" begin="0s;9152.click" /></path><path d="M45.96,72.79c9.54-0.54,35.79-3.04,45.31-3.42" stroke-dasharray="45.442" stroke-dashoffset="45.442"><animate attributeName="stroke-dashoffset" values="45.442" fill="freeze" begin="9152.click" /><animate attributeName="stroke-dashoffset" values="45.442;45.442;0" keyTimes="0;0.877;1" dur="3.696s" fill="freeze" begin="0s;9152.click" /></path><path d="M46.05,87.82c10.08-0.71,32.71-2.01,45.27-2.7" stroke-dasharray="45.352" stroke-dashoffset="45.352"><animate attributeName="stroke-dashoffset" values="45.352" fill="freeze" begin="9152.click" /><animate attributeName="stroke-dashoffset" values="45.352;45.352;0" keyTimes="0;0.891;1" dur="4.15s" fill="freeze" begin="0s;9152.click" /></path></g></svg>