<svg xmlns="http://www.w3.org/2000/svg" width="109" height="109" viewBox="0 0 109 109" id="9172"><g fill="none" stroke="#666" stroke-width="9" stroke-linecap="round" stroke-linejoin="round"><g><g><g p5:part="1" xmlns:p5="http://kanjivg.tagaini.net"><path d="M11.24,20.59c0.62,0.4,3.7,0.98,4.33,0.92c6.47-0.57,21.58-1.23,24.31-1.5c1.55-0.15,3.37-0.51,4.62-0.14" /><path d="M12.88,36.88c0.41,0.72,0.57,2.46,0.57,3.42c0,0.96-0.14,49.99,0,50.95" /><path d="M13.65,38.87c2.35-0.12,24.11-2.21,26.23-2.52c2.21-0.31,4.04,1.15,4.04,3.87c0,1.52-0.34,49.26-0.34,49.98" /><path d="M23.56,23.58c0.65,1.22,1.05,2.9,0.95,4.57c-0.88,15.52-2.68,24.55-6.56,32.07" /><path d="M31.59,23.44c0.42,1.18,0.75,2.57,0.77,4.39c0.08,5.78-0.18,14.13-0.22,21.26c-0.03,6.2,1.81,7.48,4.75,7.48c2.98,0,5.03-0.21,5.32-0.91" /></g><g><path d="M14.06,71.57c3.18,0,25.48-1.65,29.07-1.65" /></g><g p5:part="2" xmlns:p5="http://kanjivg.tagaini.net"><path d="M13.92,88.03c6.47-0.52,21.15-1.41,29.2-1.85" /></g></g><g><g><path d="M55.01,17.16c0.41,0.41,0.83,0.75,1.01,1.27c1.42,4.08,1.97,10.46,3.5,20.14" /><path d="M57.06,18.56c10.44-1.31,25.67-1.97,30.83-2.55c1.89-0.21,3.02,2.13,2.75,3.37c-1.12,5.13-0.9,3.86-2.8,13.95" /><path d="M59.43,35.88c6.07-0.65,22.61-1.25,30.31-1.9" /></g><g p5:partial xmlns:p5="http://kanjivg.tagaini.net"><g><g><path d="M86.27,40.75c0.08,0.35,0.33,1.01-0.17,1.4c-6.17,4.92-15.28,9.43-31.35,13.39" /></g><g><path d="M52.46,70.27c1.03,0.58,4.44,0.35,5.5,0.25c11.01-1.02,18.62-1.57,31.55-2.61c1.29-0.1,2.8-0.24,4.73,0.28" /><path d="M71.74,52.65c1.11,1.71,1.11,2.74,1.11,4.11c0,9.58,0,24.25,0,34.93" /><path d="M48.25,93.74c0.76,0.32,4.73,0.12,6.02,0.01c10.98-1,25.98-2.25,38.37-2.88c2.07-0.11,4.57,0.54,5.61,1.05" /></g></g></g></g></g></g><g fill="none" stroke="#000" stroke-width="5" stroke-linecap="round" stroke-linejoin="round"><g><g><g p5:part="1" xmlns:p5="http://kanjivg.tagaini.net"><path d="M11.24,20.59c0.62,0.4,3.7,0.98,4.33,0.92c6.47-0.57,21.58-1.23,24.31-1.5c1.55-0.15,3.37-0.51,4.62-0.14" stroke-dasharray="33.46" stroke-dashoffset="33.46"><animate id="0" attributeName="stroke-dashoffset" values="33.46;0" dur="0.33s" fill="freeze" begin="0s;9172.click" /></path><path d="M12.88,36.88c0.41,0.72,0.57,2.46,0.57,3.42c0,0.96-0.14,49.99,0,50.95" stroke-dasharray="54.44" stroke-dashoffset="54.44"><animate attributeName="stroke-dashoffset" values="54.44" fill="freeze" begin="9172.click" /><animate id="1" attributeName="stroke-dashoffset" values="54.44;0" dur="0.54s" fill="freeze" begin="0.end" /></path><path d="M13.65,38.87c2.35-0.12,24.11-2.21,26.23-2.52c2.21-0.31,4.04,1.15,4.04,3.87c0,1.52-0.34,49.26-0.34,49.98" stroke-dasharray="82.78" stroke-dashoffset="82.78"><animate attributeName="stroke-dashoffset" values="82.78" fill="freeze" begin="9172.click" /><animate id="2" attributeName="stroke-dashoffset" values="82.78;0" dur="0.62s" fill="freeze" begin="1.end" /></path><path d="M23.56,23.58c0.65,1.22,1.05,2.9,0.95,4.57c-0.88,15.52-2.68,24.55-6.56,32.07" stroke-dasharray="37.7" stroke-dashoffset="37.7"><animate attributeName="stroke-dashoffset" values="37.7" fill="freeze" begin="9172.click" /><animate id="3" attributeName="stroke-dashoffset" values="37.7;0" dur="0.38s" fill="freeze" begin="2.end" /></path><path d="M31.59,23.44c0.42,1.18,0.75,2.57,0.77,4.39c0.08,5.78-0.18,14.13-0.22,21.26c-0.03,6.2,1.81,7.48,4.75,7.48c2.98,0,5.03-0.21,5.32-0.91" stroke-dasharray="41.49" stroke-dashoffset="41.49"><animate attributeName="stroke-dashoffset" values="41.49" fill="freeze" begin="9172.click" /><animate id="4" attributeName="stroke-dashoffset" values="41.49;0" dur="0.41s" fill="freeze" begin="3.end" /></path></g><g><path d="M14.06,71.57c3.18,0,25.48-1.65,29.07-1.65" stroke-dasharray="29.12" stroke-dashoffset="29.12"><animate attributeName="stroke-dashoffset" values="29.12" fill="freeze" begin="9172.click" /><animate id="5" attributeName="stroke-dashoffset" values="29.12;0" dur="0.29s" fill="freeze" begin="4.end" /></path></g><g p5:part="2" xmlns:p5="http://kanjivg.tagaini.net"><path d="M13.92,88.03c6.47-0.52,21.15-1.41,29.2-1.85" stroke-dasharray="29.26" stroke-dashoffset="29.26"><animate attributeName="stroke-dashoffset" values="29.26" fill="freeze" begin="9172.click" /><animate id="6" attributeName="stroke-dashoffset" values="29.26;0" dur="0.29s" fill="freeze" begin="5.end" /></path></g></g><g><g><path d="M55.01,17.16c0.41,0.41,0.83,0.75,1.01,1.27c1.42,4.08,1.97,10.46,3.5,20.14" stroke-dasharray="22.1" stroke-dashoffset="22.1"><animate attributeName="stroke-dashoffset" values="22.1" fill="freeze" begin="9172.click" /><animate id="7" attributeName="stroke-dashoffset" values="22.1;0" dur="0.22s" fill="freeze" begin="6.end" /></path><path d="M57.06,18.56c10.44-1.31,25.67-1.97,30.83-2.55c1.89-0.21,3.02,2.13,2.75,3.37c-1.12,5.13-0.9,3.86-2.8,13.95" stroke-dasharray="50.12" stroke-dashoffset="50.12"><animate attributeName="stroke-dashoffset" values="50.12" fill="freeze" begin="9172.click" /><animate id="8" attributeName="stroke-dashoffset" values="50.12;0" dur="0.5s" fill="freeze" begin="7.end" /></path><path d="M59.43,35.88c6.07-0.65,22.61-1.25,30.31-1.9" stroke-dasharray="30.37" stroke-dashoffset="30.37"><animate attributeName="stroke-dashoffset" values="30.37" fill="freeze" begin="9172.click" /><animate id="9" attributeName="stroke-dashoffset" values="30.37;0" dur="0.3s" fill="freeze" begin="8.end" /></path></g><g p5:partial xmlns:p5="http://kanjivg.tagaini.net"><g><g><path d="M86.27,40.75c0.08,0.35,0.33,1.01-0.17,1.4c-6.17,4.92-15.28,9.43-31.35,13.39" stroke-dasharray="35.86" stroke-dashoffset="35.86"><animate attributeName="stroke-dashoffset" values="35.86" fill="freeze" begin="9172.click" /><animate id="10" attributeName="stroke-dashoffset" values="35.86;0" dur="0.36s" fill="freeze" begin="9.end" /></path></g><g><path d="M52.46,70.27c1.03,0.58,4.44,0.35,5.5,0.25c11.01-1.02,18.62-1.57,31.55-2.61c1.29-0.1,2.8-0.24,4.73,0.28" stroke-dasharray="41.98" stroke-dashoffset="41.98"><animate attributeName="stroke-dashoffset" values="41.98" fill="freeze" begin="9172.click" /><animate id="11" attributeName="stroke-dashoffset" values="41.98;0" dur="0.42s" fill="freeze" begin="10.end" /></path><path d="M71.74,52.65c1.11,1.71,1.11,2.74,1.11,4.11c0,9.58,0,24.25,0,34.93" stroke-dasharray="39.27" stroke-dashoffset="39.27"><animate attributeName="stroke-dashoffset" values="39.27" fill="freeze" begin="9172.click" /><animate id="12" attributeName="stroke-dashoffset" values="39.27;0" dur="0.39s" fill="freeze" begin="11.end" /></path><path d="M48.25,93.74c0.76,0.32,4.73,0.12,6.02,0.01c10.98-1,25.98-2.25,38.37-2.88c2.07-0.11,4.57,0.54,5.61,1.05" stroke-dasharray="50.27" stroke-dashoffset="50.27"><animate attributeName="stroke-dashoffset" values="50.27" fill="freeze" begin="9172.click" /><animate id="13" attributeName="stroke-dashoffset" values="50.27;0" dur="0.5s" fill="freeze" begin="12.end" /></path></g></g></g></g></g></g></svg>