<svg xmlns="http://www.w3.org/2000/svg" width="109" height="109" viewBox="0 0 109 109" id="9178"><g fill="none" stroke="#666" stroke-width="9" stroke-linecap="round" stroke-linejoin="round"><g><g><g><path d="M11.29,23.16c1.96,0.71,3.94,0.69,5.83,0.49c7.18-0.76,21.06-3.17,23.64-3.4c1.57-0.15,3.34-0.62,4.68-0.13" /><path d="M12.13,39.64c0.87,0.87,1.33,2.36,1.33,3.73c0,0.91-0.03,43.06-0.03,43.52c0,0.46,0.03,2.86,0.03,4.36" /><path d="M14.16,41.31c8.34-1.18,20.84-2.93,26.1-3.51c2.25-0.25,4.09,1.09,4.09,3.67c0,1.44-0.47,32.83-0.46,42.81c0,1.03,0.11,3.97,0.11,4.66" /><path d="M23.47,25.49c0.83,0.83,1.27,2.57,1.19,4.06C24,42.38,23,53.5,17.27,63.7" /><path d="M31.38,23.66c0.86,0.86,1.29,2.18,1.29,3.9c0,5.81,0.06,16.23,0.02,22.98c-0.03,5.86,1.06,6.82,4.04,6.82c3.02,0,4.65-0.11,5.39-0.86" /></g><g><path d="M14.33,72.95c10.67-1.58,19.8-2.83,28.47-3.19" /></g><g><path d="M14.43,87.95c7.82-0.82,20.19-2.29,28.36-2.71" /></g></g><g p4:phon="夋" xmlns:p4="http://kanjivg.tagaini.net"><g><g><path d="M66.66,12c0.34,1,0.21,2.31-0.1,2.83c-3.43,5.8-7.43,11.05-11.24,16.07c-1.48,1.94-1.9,3.48,0.88,3.02C62.96,32.8,76,29.62,84.8,27.5" /><path d="M78.4,20.51c4.2,2.36,10.85,9.7,11.91,13.37" /></g><g><g><path d="M61.56,39.36c0.1,1.02-0.07,1.98-0.51,2.9c-1.43,3.46-5.31,8.8-10.61,12.66" /></g><g><path d="M76.73,33.05c0.67,0.67,1.16,1.95,1.16,3.27c0,3.73,0,5.86,0,8.4c0,5.93,4.26,5.26,8.45,5.26c4.42,0,7.17-0.72,7.95-2.2" /></g></g></g><g><path d="M65.35,51.5c0.28,0.75,0.34,1.87,0.16,2.77c-1.06,5.31-7.15,16.96-15.48,24.09" /><path d="M66.75,59.81c0.25,0.03,1.33,0,2.05-0.09c2.37-0.29,9.21-2.61,12.59-3.5c2.32-0.61,3.87,1.21,2.64,3.6C78.12,71.25,65,88.38,49.67,95.5" /><path d="M60.81,67.18C67.88,73,78.69,82.92,86.48,88.95c2.53,1.95,4.52,3.3,7.52,4.68" /></g></g></g></g><g fill="none" stroke="#000" stroke-width="5" stroke-linecap="round" stroke-linejoin="round"><path d="M11.29,23.16c1.96,0.71,3.94,0.69,5.83,0.49c7.18-0.76,21.06-3.17,23.64-3.4c1.57-0.15,3.34-0.62,4.68-0.13" stroke-dasharray="34.514" stroke-dashoffset="34.514"><animate attributeName="stroke-dashoffset" values="34.514;34.514;0" dur="0.345s" fill="freeze" begin="0s;9178.click" /></path><path d="M12.13,39.64c0.87,0.87,1.33,2.36,1.33,3.73c0,0.91-0.03,43.06-0.03,43.52c0,0.46,0.03,2.86,0.03,4.36" stroke-dasharray="51.936" stroke-dashoffset="51.936"><animate attributeName="stroke-dashoffset" values="51.936" fill="freeze" begin="9178.click" /><animate attributeName="stroke-dashoffset" values="51.936;51.936;0" keyTimes="0;0.399;1" dur="0.864s" fill="freeze" begin="0s;9178.click" /></path><path d="M14.16,41.31c8.34-1.18,20.84-2.93,26.1-3.51c2.25-0.25,4.09,1.09,4.09,3.67c0,1.44-0.47,32.83-0.46,42.81c0,1.03,0.11,3.97,0.11,4.66" stroke-dasharray="80.125" stroke-dashoffset="80.125"><animate attributeName="stroke-dashoffset" values="80.125" fill="freeze" begin="9178.click" /><animate attributeName="stroke-dashoffset" values="80.125;80.125;0" keyTimes="0;0.589;1" dur="1.466s" fill="freeze" begin="0s;9178.click" /></path><path d="M23.47,25.49c0.83,0.83,1.27,2.57,1.19,4.06C24,42.38,23,53.5,17.27,63.7" stroke-dasharray="39.614" stroke-dashoffset="39.614"><animate attributeName="stroke-dashoffset" values="39.614" fill="freeze" begin="9178.click" /><animate attributeName="stroke-dashoffset" values="39.614;39.614;0" keyTimes="0;0.787;1" dur="1.862s" fill="freeze" begin="0s;9178.click" /></path><path d="M31.38,23.66c0.86,0.86,1.29,2.18,1.29,3.9c0,5.81,0.06,16.23,0.02,22.98c-0.03,5.86,1.06,6.82,4.04,6.82c3.02,0,4.65-0.11,5.39-0.86" stroke-dasharray="42.04" stroke-dashoffset="42.04"><animate attributeName="stroke-dashoffset" values="42.04" fill="freeze" begin="9178.click" /><animate attributeName="stroke-dashoffset" values="42.04;42.04;0" keyTimes="0;0.816;1" dur="2.282s" fill="freeze" begin="0s;9178.click" /></path><path d="M14.33,72.95c10.67-1.58,19.8-2.83,28.47-3.19" stroke-dasharray="28.663" stroke-dashoffset="28.663"><animate attributeName="stroke-dashoffset" values="28.663" fill="freeze" begin="9178.click" /><animate attributeName="stroke-dashoffset" values="28.663;28.663;0" keyTimes="0;0.888;1" dur="2.569s" fill="freeze" begin="0s;9178.click" /></path><path d="M14.43,87.95c7.82-0.82,20.19-2.29,28.36-2.71" stroke-dasharray="28.493" stroke-dashoffset="28.493"><animate attributeName="stroke-dashoffset" values="28.493" fill="freeze" begin="9178.click" /><animate attributeName="stroke-dashoffset" values="28.493;28.493;0" keyTimes="0;0.9;1" dur="2.854s" fill="freeze" begin="0s;9178.click" /></path><path d="M66.66,12c0.34,1,0.21,2.31-0.1,2.83c-3.43,5.8-7.43,11.05-11.24,16.07c-1.48,1.94-1.9,3.48,0.88,3.02C62.96,32.8,76,29.62,84.8,27.5" stroke-dasharray="56.938" stroke-dashoffset="56.938"><animate attributeName="stroke-dashoffset" values="56.938" fill="freeze" begin="9178.click" /><animate attributeName="stroke-dashoffset" values="56.938;56.938;0" keyTimes="0;0.834;1" dur="3.423s" fill="freeze" begin="0s;9178.click" /></path><path d="M78.4,20.51c4.2,2.36,10.85,9.7,11.91,13.37" stroke-dasharray="18.16" stroke-dashoffset="18.16"><animate attributeName="stroke-dashoffset" values="18.16" fill="freeze" begin="9178.click" /><animate attributeName="stroke-dashoffset" values="18.16;18.16;0" keyTimes="0;0.95;1" dur="3.605s" fill="freeze" begin="0s;9178.click" /></path><path d="M61.56,39.36c0.1,1.02-0.07,1.98-0.51,2.9c-1.43,3.46-5.31,8.8-10.61,12.66" stroke-dasharray="19.677" stroke-dashoffset="19.677"><animate attributeName="stroke-dashoffset" values="19.677" fill="freeze" begin="9178.click" /><animate attributeName="stroke-dashoffset" values="19.677;19.677;0" keyTimes="0;0.948;1" dur="3.802s" fill="freeze" begin="0s;9178.click" /></path><path d="M76.73,33.05c0.67,0.67,1.16,1.95,1.16,3.27c0,3.73,0,5.86,0,8.4c0,5.93,4.26,5.26,8.45,5.26c4.42,0,7.17-0.72,7.95-2.2" stroke-dasharray="32.301" stroke-dashoffset="32.301"><animate attributeName="stroke-dashoffset" values="32.301" fill="freeze" begin="9178.click" /><animate attributeName="stroke-dashoffset" values="32.301;32.301;0" keyTimes="0;0.922;1" dur="4.125s" fill="freeze" begin="0s;9178.click" /></path><path d="M65.35,51.5c0.28,0.75,0.34,1.87,0.16,2.77c-1.06,5.31-7.15,16.96-15.48,24.09" stroke-dasharray="31.822" stroke-dashoffset="31.822"><animate attributeName="stroke-dashoffset" values="31.822" fill="freeze" begin="9178.click" /><animate attributeName="stroke-dashoffset" values="31.822;31.822;0" keyTimes="0;0.928;1" dur="4.443s" fill="freeze" begin="0s;9178.click" /></path><path d="M66.75,59.81c0.25,0.03,1.33,0,2.05-0.09c2.37-0.29,9.21-2.61,12.59-3.5c2.32-0.61,3.87,1.21,2.64,3.6C78.12,71.25,65,88.38,49.67,95.5" stroke-dasharray="71.431" stroke-dashoffset="71.431"><animate attributeName="stroke-dashoffset" values="71.431" fill="freeze" begin="9178.click" /><animate attributeName="stroke-dashoffset" values="71.431;71.431;0" keyTimes="0;0.892;1" dur="4.98s" fill="freeze" begin="0s;9178.click" /></path><path d="M60.81,67.18C67.88,73,78.69,82.92,86.48,88.95c2.53,1.95,4.52,3.3,7.52,4.68" stroke-dasharray="42.542" stroke-dashoffset="42.542"><animate attributeName="stroke-dashoffset" values="42.542" fill="freeze" begin="9178.click" /><animate attributeName="stroke-dashoffset" values="42.542;42.542;0" keyTimes="0;0.921;1" dur="5.405s" fill="freeze" begin="0s;9178.click" /></path></g></svg>