<svg xmlns="http://www.w3.org/2000/svg" width="109" height="109" viewBox="0 0 109 109" id="91c9"><g fill="none" stroke="#666" stroke-width="9" stroke-linecap="round" stroke-linejoin="round"><g><g><g><path d="M43.75,12.14c0.08,0.3-0.23,1.37-0.65,1.72C37.5,18.5,29,21.5,16.47,24.26" /></g><g><path d="M16.67,31.19c2.37,1.97,5.95,7.55,6.54,10.62" /><path d="M48.19,25.3c0.02,0.37,0.13,0.99-0.05,1.49c-1.38,4.01-3.6,8.73-8.17,14.24" /><path d="M11.5,47.45c0.59,0.35,2.18,0.73,3.75,0.54c6.51-0.83,21.52-2.59,31.29-2.63c1.58-0.01,1.97-0.35,2.96,0" /><path d="M31.91,23.29c0.7,0.49,1.12,2.2,1.25,3.17c0.14,0.98,0,65.18-0.14,71.28" /><path d="M32.66,46.65C28.43,58.84,18.15,75.96,8.64,82.99" /><path d="M36.31,54.61c3.08,1.53,9.92,9.5,11.11,12.75" /></g></g><g><g p5:part="1" p5:partial xmlns:p5="http://kanjivg.tagaini.net"><path d="M55.25,41.85c0.72,1.29,1.29,2.62,1.45,3.74c1.39,9.23,2.02,31.63,2.84,48.63" /><path d="M57.68,44.34c13-2.31,27.08-2.53,35.3-3.43c3.02-0.33,4.15,2.34,3.99,4.81c-0.6,9.06-2.92,31.45-4.82,46.38" /></g><g><path d="M73.36,16.36c1.16,1.09,1.85,2.66,1.85,4.1c0.04,14.16,0.21,65.88,0.21,69.58" /></g><g p5:part="2" p5:partial xmlns:p5="http://kanjivg.tagaini.net"><path d="M58.64,65.96c3.59-0.45,33.45-2.65,36.42-2.65" /><path d="M60.12,91.9c9.08-0.65,21.19-2.03,32.13-2.27" /></g></g></g></g><g fill="none" stroke="#000" stroke-width="5" stroke-linecap="round" stroke-linejoin="round"><g><g><g><path d="M43.75,12.14c0.08,0.3-0.23,1.37-0.65,1.72C37.5,18.5,29,21.5,16.47,24.26" stroke-dasharray="30.73" stroke-dashoffset="30.73"><animate id="0" attributeName="stroke-dashoffset" values="30.73;0" dur="0.31s" fill="freeze" begin="0s;91c9.click" /></path></g><g><path d="M16.67,31.19c2.37,1.97,5.95,7.55,6.54,10.62" stroke-dasharray="12.62" stroke-dashoffset="12.62"><animate attributeName="stroke-dashoffset" values="12.62" fill="freeze" begin="91c9.click" /><animate id="1" attributeName="stroke-dashoffset" values="12.62;0" dur="0.13s" fill="freeze" begin="0.end" /></path><path d="M48.19,25.3c0.02,0.37,0.13,0.99-0.05,1.49c-1.38,4.01-3.6,8.73-8.17,14.24" stroke-dasharray="18.01" stroke-dashoffset="18.01"><animate attributeName="stroke-dashoffset" values="18.01" fill="freeze" begin="91c9.click" /><animate id="2" attributeName="stroke-dashoffset" values="18.01;0" dur="0.18s" fill="freeze" begin="1.end" /></path><path d="M11.5,47.45c0.59,0.35,2.18,0.73,3.75,0.54c6.51-0.83,21.52-2.59,31.29-2.63c1.58-0.01,1.97-0.35,2.96,0" stroke-dasharray="38.24" stroke-dashoffset="38.24"><animate attributeName="stroke-dashoffset" values="38.24" fill="freeze" begin="91c9.click" /><animate id="3" attributeName="stroke-dashoffset" values="38.24;0" dur="0.38s" fill="freeze" begin="2.end" /></path><path d="M31.91,23.29c0.7,0.49,1.12,2.2,1.25,3.17c0.14,0.98,0,65.18-0.14,71.28" stroke-dasharray="74.76" stroke-dashoffset="74.76"><animate attributeName="stroke-dashoffset" values="74.76" fill="freeze" begin="91c9.click" /><animate id="4" attributeName="stroke-dashoffset" values="74.76;0" dur="0.56s" fill="freeze" begin="3.end" /></path><path d="M32.66,46.65C28.43,58.84,18.15,75.96,8.64,82.99" stroke-dasharray="44.05" stroke-dashoffset="44.05"><animate attributeName="stroke-dashoffset" values="44.05" fill="freeze" begin="91c9.click" /><animate id="5" attributeName="stroke-dashoffset" values="44.05;0" dur="0.44s" fill="freeze" begin="4.end" /></path><path d="M36.31,54.61c3.08,1.53,9.92,9.5,11.11,12.75" stroke-dasharray="17.09" stroke-dashoffset="17.09"><animate attributeName="stroke-dashoffset" values="17.09" fill="freeze" begin="91c9.click" /><animate id="6" attributeName="stroke-dashoffset" values="17.09;0" dur="0.17s" fill="freeze" begin="5.end" /></path></g></g><g><g p5:part="1" p5:partial xmlns:p5="http://kanjivg.tagaini.net"><path d="M55.25,41.85c0.72,1.29,1.29,2.62,1.45,3.74c1.39,9.23,2.02,31.63,2.84,48.63" stroke-dasharray="52.76" stroke-dashoffset="52.76"><animate attributeName="stroke-dashoffset" values="52.76" fill="freeze" begin="91c9.click" /><animate id="7" attributeName="stroke-dashoffset" values="52.76;0" dur="0.53s" fill="freeze" begin="6.end" /></path><path d="M57.68,44.34c13-2.31,27.08-2.53,35.3-3.43c3.02-0.33,4.15,2.34,3.99,4.81c-0.6,9.06-2.92,31.45-4.82,46.38" stroke-dasharray="89.38" stroke-dashoffset="89.38"><animate attributeName="stroke-dashoffset" values="89.38" fill="freeze" begin="91c9.click" /><animate id="8" attributeName="stroke-dashoffset" values="89.38;0" dur="0.67s" fill="freeze" begin="7.end" /></path></g><g><path d="M73.36,16.36c1.16,1.09,1.85,2.66,1.85,4.1c0.04,14.16,0.21,65.88,0.21,69.58" stroke-dasharray="74.2" stroke-dashoffset="74.2"><animate attributeName="stroke-dashoffset" values="74.2" fill="freeze" begin="91c9.click" /><animate id="9" attributeName="stroke-dashoffset" values="74.2;0" dur="0.56s" fill="freeze" begin="8.end" /></path></g><g p5:part="2" p5:partial xmlns:p5="http://kanjivg.tagaini.net"><path d="M58.64,65.96c3.59-0.45,33.45-2.65,36.42-2.65" stroke-dasharray="36.52" stroke-dashoffset="36.52"><animate attributeName="stroke-dashoffset" values="36.52" fill="freeze" begin="91c9.click" /><animate id="10" attributeName="stroke-dashoffset" values="36.52;0" dur="0.37s" fill="freeze" begin="9.end" /></path><path d="M60.12,91.9c9.08-0.65,21.19-2.03,32.13-2.27" stroke-dasharray="32.22" stroke-dashoffset="32.22"><animate attributeName="stroke-dashoffset" values="32.22" fill="freeze" begin="91c9.click" /><animate id="11" attributeName="stroke-dashoffset" values="32.22;0" dur="0.32s" fill="freeze" begin="10.end" /></path></g></g></g></g></svg>