<svg xmlns="http://www.w3.org/2000/svg" width="109" height="109" viewBox="0 0 109 109" id="91df"><g fill="none" stroke="#666" stroke-width="9" stroke-linecap="round" stroke-linejoin="round"><g><g><path d="M31.75,12.49c0,0.92,0.06,1.65-0.17,2.75c-1.19,5.74-12.46,24.89-22.11,33.38" /><path d="M32.89,20.96C37,22.75,43.75,28.5,45.75,33" /><path d="M20,41.5c1.5,0,2.18,0.09,2.67,0.06C27,41.24,33,40.03,38.1,39.8c0.74-0.03,0.9-0.05,2.15-0.05" /><path d="M12.09,54.81c0.59,0.33,2.56,0.43,3.17,0.43c5.49,0.01,17.99-1.99,24.78-2.67c0.74-0.07,2.38-0.13,3.49,0.15" /><path d="M27.95,43.19c1.24,0.78,1.24,2.52,1.24,3.14c0,4.35,0.62,32.63,0.31,36.98" /><path d="M13.39,66.26c4.08,5.23,6.07,10.89,6.9,13.94" /><path d="M42.79,60.55c0.23,0.71,0.35,1.75,0.26,2.35c-0.23,1.54-2.55,6.61-6.13,10.88" /><path d="M11.75,90.15c0.55,0.28,1.61,1.6,2.75,1.08C15.83,90.64,27,86,41.75,78.75" /></g><g><g><path d="M59.82,35.52c0.32,1.71,0.32,3.69,0.05,5.74C58,55.5,53.5,80,41,92.5" /></g><g><path d="M64.9,16c0.61,0.31,1.98,1.2,2.38,2.79c3.47,13.71,9.86,46.89,19.63,63.88C89.58,87.3,91.25,89,94,92.35" /></g></g></g></g><g fill="none" stroke="#000" stroke-width="5" stroke-linecap="round" stroke-linejoin="round"><g><g><path d="M31.75,12.49c0,0.92,0.06,1.65-0.17,2.75c-1.19,5.74-12.46,24.89-22.11,33.38" stroke-dasharray="43.146" stroke-dashoffset="43.146"><animate attributeName="stroke-dashoffset" values="43.146;43.146;0" dur="0.431s" fill="freeze" begin="0s;91df.click" /></path><path d="M32.89,20.96C37,22.75,43.75,28.5,45.75,33" stroke-dasharray="17.895" stroke-dashoffset="17.895"><animate attributeName="stroke-dashoffset" values="17.895" fill="freeze" begin="91df.click" /><animate attributeName="stroke-dashoffset" values="17.895;17.895;0" keyTimes="0;0.707;1" dur="0.61s" fill="freeze" begin="0s;91df.click" /></path><path d="M20,41.5c1.5,0,2.18,0.09,2.67,0.06C27,41.24,33,40.03,38.1,39.8c0.74-0.03,0.9-0.05,2.15-0.05" stroke-dasharray="20.358" stroke-dashoffset="20.358"><animate attributeName="stroke-dashoffset" values="20.358" fill="freeze" begin="91df.click" /><animate attributeName="stroke-dashoffset" values="20.358;20.358;0" keyTimes="0;0.749;1" dur="0.814s" fill="freeze" begin="0s;91df.click" /></path><path d="M12.09,54.81c0.59,0.33,2.56,0.43,3.17,0.43c5.49,0.01,17.99-1.99,24.78-2.67c0.74-0.07,2.38-0.13,3.49,0.15" stroke-dasharray="31.658" stroke-dashoffset="31.658"><animate attributeName="stroke-dashoffset" values="31.658" fill="freeze" begin="91df.click" /><animate attributeName="stroke-dashoffset" values="31.658;31.658;0" keyTimes="0;0.72;1" dur="1.131s" fill="freeze" begin="0s;91df.click" /></path><path d="M27.95,43.19c1.24,0.78,1.24,2.52,1.24,3.14c0,4.35,0.62,32.63,0.31,36.98" stroke-dasharray="40.515" stroke-dashoffset="40.515"><animate attributeName="stroke-dashoffset" values="40.515" fill="freeze" begin="91df.click" /><animate attributeName="stroke-dashoffset" values="40.515;40.515;0" keyTimes="0;0.736;1" dur="1.536s" fill="freeze" begin="0s;91df.click" /></path><path d="M13.39,66.26c4.08,5.23,6.07,10.89,6.9,13.94" stroke-dasharray="15.653" stroke-dashoffset="15.653"><animate attributeName="stroke-dashoffset" values="15.653" fill="freeze" begin="91df.click" /><animate attributeName="stroke-dashoffset" values="15.653;15.653;0" keyTimes="0;0.907;1" dur="1.693s" fill="freeze" begin="0s;91df.click" /></path><path d="M42.79,60.55c0.23,0.71,0.35,1.75,0.26,2.35c-0.23,1.54-2.55,6.61-6.13,10.88" stroke-dasharray="14.958" stroke-dashoffset="14.958"><animate attributeName="stroke-dashoffset" values="14.958" fill="freeze" begin="91df.click" /><animate attributeName="stroke-dashoffset" values="14.958;14.958;0" keyTimes="0;0.919;1" dur="1.843s" fill="freeze" begin="0s;91df.click" /></path><path d="M11.75,90.15c0.55,0.28,1.61,1.6,2.75,1.08C15.83,90.64,27,86,41.75,78.75" stroke-dasharray="33.094" stroke-dashoffset="33.094"><animate attributeName="stroke-dashoffset" values="33.094" fill="freeze" begin="91df.click" /><animate attributeName="stroke-dashoffset" values="33.094;33.094;0" keyTimes="0;0.848;1" dur="2.174s" fill="freeze" begin="0s;91df.click" /></path></g><g><g><path d="M59.82,35.52c0.32,1.71,0.32,3.69,0.05,5.74C58,55.5,53.5,80,41,92.5" stroke-dasharray="61.244" stroke-dashoffset="61.244"><animate attributeName="stroke-dashoffset" values="61.244" fill="freeze" begin="91df.click" /><animate attributeName="stroke-dashoffset" values="61.244;61.244;0" keyTimes="0;0.825;1" dur="2.634s" fill="freeze" begin="0s;91df.click" /></path></g><g><path d="M64.9,16c0.61,0.31,1.98,1.2,2.38,2.79c3.47,13.71,9.86,46.89,19.63,63.88C89.58,87.3,91.25,89,94,92.35" stroke-dasharray="82.825" stroke-dashoffset="82.825"><animate attributeName="stroke-dashoffset" values="82.825" fill="freeze" begin="91df.click" /><animate attributeName="stroke-dashoffset" values="82.825;82.825;0" keyTimes="0;0.809;1" dur="3.257s" fill="freeze" begin="0s;91df.click" /></path></g></g></g></g></svg>