<svg xmlns="http://www.w3.org/2000/svg" width="109" height="109" viewBox="0 0 109 109" id="91e1"><g fill="none" stroke="#666" stroke-width="9" stroke-linecap="round" stroke-linejoin="round"><g><g><g><path d="M42.3,13.5c0.06,0.47,0.25,1.34-0.13,1.87c-4.61,6.58-11.42,12.61-23.43,17.92" /></g><g><path d="M66.02,12.08c6.81,3.11,17.59,12.79,19.29,17.63" /></g></g><g><g><path d="M54,30c0,0.67,0.12,1.21-0.34,2.01c-2.4,4.2-21.4,20.74-42.9,26.02" /><path d="M52.75,33.55c9.25,5.2,32.04,19.4,34.87,20.51c2.89,1.13,3.83,1.33,5.13,1.44" /></g><g><path d="M38.27,54.66c0.67,0.25,2.85,0.33,3.53,0.26c3.15-0.34,13.82-0.91,26.88-1.79c1.03-0.07,1.97,0.05,2.83,0.26" /><path d="M26.3,67.37c1.06,0.4,4.59,0.62,5.67,0.53c6.24-0.53,25.45-1.96,45.74-2.88c1.33-0.06,4.26-0.16,6.24,0.19" /><path d="M52.97,56.46c0.89,0.69,0.89,2.23,0.89,2.78c0,3.84,0.44,28.35,0.22,32.19" /><path d="M31.5,76.92c5.02,3.79,7.48,7.9,8.5,10.11" /><path d="M75.51,73.78c0.41,0.74,0.62,1.81,0.46,2.43c-0.41,1.59-7.22,9.54-10.97,13.21" /><path d="M18.5,93.79c0.79,0.23,4.76,0.86,6.51,0.72c8.49-0.67,36.11-2.32,61.07-2.32c2.38,0,5.23,0.29,6.42,0.56" /></g></g></g></g><g fill="none" stroke="#000" stroke-width="5" stroke-linecap="round" stroke-linejoin="round"><g><g><g><path d="M42.3,13.5c0.06,0.47,0.25,1.34-0.13,1.87c-4.61,6.58-11.42,12.61-23.43,17.92" stroke-dasharray="31.8" stroke-dashoffset="31.8"><animate id="0" attributeName="stroke-dashoffset" values="31.8;0" dur="0.32s" fill="freeze" begin="0s;91e1.click" /></path></g><g><path d="M66.02,12.08c6.81,3.11,17.59,12.79,19.29,17.63" stroke-dasharray="26.51" stroke-dashoffset="26.51"><animate attributeName="stroke-dashoffset" values="26.51" fill="freeze" begin="91e1.click" /><animate id="1" attributeName="stroke-dashoffset" values="26.51;0" dur="0.27s" fill="freeze" begin="0.end" /></path></g></g><g><g><path d="M54,30c0,0.67,0.12,1.21-0.34,2.01c-2.4,4.2-21.4,20.74-42.9,26.02" stroke-dasharray="52.98" stroke-dashoffset="52.98"><animate attributeName="stroke-dashoffset" values="52.98" fill="freeze" begin="91e1.click" /><animate id="2" attributeName="stroke-dashoffset" values="52.98;0" dur="0.53s" fill="freeze" begin="1.end" /></path><path d="M52.75,33.55c9.25,5.2,32.04,19.4,34.87,20.51c2.89,1.13,3.83,1.33,5.13,1.44" stroke-dasharray="45.81" stroke-dashoffset="45.81"><animate attributeName="stroke-dashoffset" values="45.81" fill="freeze" begin="91e1.click" /><animate id="3" attributeName="stroke-dashoffset" values="45.81;0" dur="0.46s" fill="freeze" begin="2.end" /></path></g><g><path d="M38.27,54.66c0.67,0.25,2.85,0.33,3.53,0.26c3.15-0.34,13.82-0.91,26.88-1.79c1.03-0.07,1.97,0.05,2.83,0.26" stroke-dasharray="33.35" stroke-dashoffset="33.35"><animate attributeName="stroke-dashoffset" values="33.35" fill="freeze" begin="91e1.click" /><animate id="4" attributeName="stroke-dashoffset" values="33.35;0" dur="0.33s" fill="freeze" begin="3.end" /></path><path d="M26.3,67.37c1.06,0.4,4.59,0.62,5.67,0.53c6.24-0.53,25.45-1.96,45.74-2.88c1.33-0.06,4.26-0.16,6.24,0.19" stroke-dasharray="57.8" stroke-dashoffset="57.8"><animate attributeName="stroke-dashoffset" values="57.8" fill="freeze" begin="91e1.click" /><animate id="5" attributeName="stroke-dashoffset" values="57.8;0" dur="0.58s" fill="freeze" begin="4.end" /></path><path d="M52.97,56.46c0.89,0.69,0.89,2.23,0.89,2.78c0,3.84,0.44,28.35,0.22,32.19" stroke-dasharray="35.21" stroke-dashoffset="35.21"><animate attributeName="stroke-dashoffset" values="35.21" fill="freeze" begin="91e1.click" /><animate id="6" attributeName="stroke-dashoffset" values="35.21;0" dur="0.35s" fill="freeze" begin="5.end" /></path><path d="M31.5,76.92c5.02,3.79,7.48,7.9,8.5,10.11" stroke-dasharray="13.34" stroke-dashoffset="13.34"><animate attributeName="stroke-dashoffset" values="13.34" fill="freeze" begin="91e1.click" /><animate id="7" attributeName="stroke-dashoffset" values="13.34;0" dur="0.13s" fill="freeze" begin="6.end" /></path><path d="M75.51,73.78c0.41,0.74,0.62,1.81,0.46,2.43c-0.41,1.59-7.22,9.54-10.97,13.21" stroke-dasharray="19.74" stroke-dashoffset="19.74"><animate attributeName="stroke-dashoffset" values="19.74" fill="freeze" begin="91e1.click" /><animate id="8" attributeName="stroke-dashoffset" values="19.74;0" dur="0.2s" fill="freeze" begin="7.end" /></path><path d="M18.5,93.79c0.79,0.23,4.76,0.86,6.51,0.72c8.49-0.67,36.11-2.32,61.07-2.32c2.38,0,5.23,0.29,6.42,0.56" stroke-dasharray="74.15" stroke-dashoffset="74.15"><animate attributeName="stroke-dashoffset" values="74.15" fill="freeze" begin="91e1.click" /><animate id="9" attributeName="stroke-dashoffset" values="74.15;0" dur="0.56s" fill="freeze" begin="8.end" /></path></g></g></g></g></svg>