<svg xmlns="http://www.w3.org/2000/svg" width="109" height="109" viewBox="0 0 109 109" id="923f"><g fill="none" stroke="#666" stroke-width="9" stroke-linecap="round" stroke-linejoin="round"><g><g><path d="M31.75,15.24c0,0.77,0.05,1.39-0.16,2.32c-1.12,4.83-11.76,20.93-20.87,28.07" /><path d="M32.39,21.46c4.47,2.03,11.18,8.42,13.36,13.54" /><path d="M19,42.5c1.71,0,2.49,0.09,3.05,0.06c4.95-0.31,10.67-1.53,16.5-1.75c0.84-0.03,1.02-0.05,2.45-0.05" /><path d="M13.09,56.81c0.59,0.33,2.56,0.48,3.17,0.43c5.49-0.49,17.74-1.99,25.28-2.67c0.74-0.07,2.38-0.13,3.49,0.15" /><path d="M29.45,45.19c1.24,0.78,1.24,2.52,1.24,3.14c0,4.35,0.62,32.63,0.31,36.98" /><path d="M14.39,67.51c4.67,4.76,6.95,9.91,7.9,12.69" /><path d="M43.51,62.55c0.45,0.74,0.33,1.88,0.01,2.45c-1.27,2.25-3.53,4.55-8.6,9.28" /><path d="M13.5,92.25c1.25,1,2.75,0.75,4.5,0.25c1.29-0.37,11.25-5.75,24.25-11.75" /></g><g><path d="M52,24.73c0.3,1.13,1.23,2.93,1.28,4.33c0.57,14.07,1.28,39.95,1.7,62.69" /><path d="M53.39,26.84c10.37-1.26,28.39-3.53,36.2-4.09c3.41-0.25,4.79,2.16,4.64,5.5C93.66,40.48,92,72,90.78,90.15" /><path d="M70.45,26.2c0.65,0.61,1.09,2.42,1.08,4.44c-0.05,13.27,0.25,51.53,0.25,56.35" /><path d="M54.42,55.86c3.4-0.55,35.27-2.86,38.08-2.86" /><path d="M55.12,88.78c7.5,0,25.17-2,35.53-2.3" /></g></g></g><g fill="none" stroke="#000" stroke-width="5" stroke-linecap="round" stroke-linejoin="round"><g><g><path d="M31.75,15.24c0,0.77,0.05,1.39-0.16,2.32c-1.12,4.83-11.76,20.93-20.87,28.07" stroke-dasharray="37.64" stroke-dashoffset="37.64"><animate id="0" attributeName="stroke-dashoffset" values="37.64;0" dur="0.38s" fill="freeze" begin="0s;923f.click" /></path><path d="M32.39,21.46c4.47,2.03,11.18,8.42,13.36,13.54" stroke-dasharray="19.33" stroke-dashoffset="19.33"><animate attributeName="stroke-dashoffset" values="19.33" fill="freeze" begin="923f.click" /><animate id="1" attributeName="stroke-dashoffset" values="19.33;0" dur="0.19s" fill="freeze" begin="0.end" /></path><path d="M19,42.5c1.71,0,2.49,0.09,3.05,0.06c4.95-0.31,10.67-1.53,16.5-1.75c0.84-0.03,1.02-0.05,2.45-0.05" stroke-dasharray="22.1" stroke-dashoffset="22.1"><animate attributeName="stroke-dashoffset" values="22.1" fill="freeze" begin="923f.click" /><animate id="2" attributeName="stroke-dashoffset" values="22.1;0" dur="0.22s" fill="freeze" begin="1.end" /></path><path d="M13.09,56.81c0.59,0.33,2.56,0.48,3.17,0.43c5.49-0.49,17.74-1.99,25.28-2.67c0.74-0.07,2.38-0.13,3.49,0.15" stroke-dasharray="32.15" stroke-dashoffset="32.15"><animate attributeName="stroke-dashoffset" values="32.15" fill="freeze" begin="923f.click" /><animate id="3" attributeName="stroke-dashoffset" values="32.15;0" dur="0.32s" fill="freeze" begin="2.end" /></path><path d="M29.45,45.19c1.24,0.78,1.24,2.52,1.24,3.14c0,4.35,0.62,32.63,0.31,36.98" stroke-dasharray="40.51" stroke-dashoffset="40.51"><animate attributeName="stroke-dashoffset" values="40.51" fill="freeze" begin="923f.click" /><animate id="4" attributeName="stroke-dashoffset" values="40.51;0" dur="0.41s" fill="freeze" begin="3.end" /></path><path d="M14.39,67.51c4.67,4.76,6.95,9.91,7.9,12.69" stroke-dasharray="15.07" stroke-dashoffset="15.07"><animate attributeName="stroke-dashoffset" values="15.07" fill="freeze" begin="923f.click" /><animate id="5" attributeName="stroke-dashoffset" values="15.07;0" dur="0.15s" fill="freeze" begin="4.end" /></path><path d="M43.51,62.55c0.45,0.74,0.33,1.88,0.01,2.45c-1.27,2.25-3.53,4.55-8.6,9.28" stroke-dasharray="15.24" stroke-dashoffset="15.24"><animate attributeName="stroke-dashoffset" values="15.24" fill="freeze" begin="923f.click" /><animate id="6" attributeName="stroke-dashoffset" values="15.24;0" dur="0.15s" fill="freeze" begin="5.end" /></path><path d="M13.5,92.25c1.25,1,2.75,0.75,4.5,0.25c1.29-0.37,11.25-5.75,24.25-11.75" stroke-dasharray="31.65" stroke-dashoffset="31.65"><animate attributeName="stroke-dashoffset" values="31.65" fill="freeze" begin="923f.click" /><animate id="7" attributeName="stroke-dashoffset" values="31.65;0" dur="0.32s" fill="freeze" begin="6.end" /></path></g><g><path d="M52,24.73c0.3,1.13,1.23,2.93,1.28,4.33c0.57,14.07,1.28,39.95,1.7,62.69" stroke-dasharray="67.25" stroke-dashoffset="67.25"><animate attributeName="stroke-dashoffset" values="67.25" fill="freeze" begin="923f.click" /><animate id="8" attributeName="stroke-dashoffset" values="67.25;0" dur="0.51s" fill="freeze" begin="7.end" /></path><path d="M53.39,26.84c10.37-1.26,28.39-3.53,36.2-4.09c3.41-0.25,4.79,2.16,4.64,5.5C93.66,40.48,92,72,90.78,90.15" stroke-dasharray="106.82" stroke-dashoffset="106.82"><animate attributeName="stroke-dashoffset" values="106.82" fill="freeze" begin="923f.click" /><animate id="9" attributeName="stroke-dashoffset" values="106.82;0" dur="0.8s" fill="freeze" begin="8.end" /></path><path d="M70.45,26.2c0.65,0.61,1.09,2.42,1.08,4.44c-0.05,13.27,0.25,51.53,0.25,56.35" stroke-dasharray="61.01" stroke-dashoffset="61.01"><animate attributeName="stroke-dashoffset" values="61.01" fill="freeze" begin="923f.click" /><animate id="10" attributeName="stroke-dashoffset" values="61.01;0" dur="0.46s" fill="freeze" begin="9.end" /></path><path d="M54.42,55.86c3.4-0.55,35.27-2.86,38.08-2.86" stroke-dasharray="38.19" stroke-dashoffset="38.19"><animate attributeName="stroke-dashoffset" values="38.19" fill="freeze" begin="923f.click" /><animate id="11" attributeName="stroke-dashoffset" values="38.19;0" dur="0.38s" fill="freeze" begin="10.end" /></path><path d="M55.12,88.78c7.5,0,25.17-2,35.53-2.3" stroke-dasharray="35.61" stroke-dashoffset="35.61"><animate attributeName="stroke-dashoffset" values="35.61" fill="freeze" begin="923f.click" /><animate id="12" attributeName="stroke-dashoffset" values="35.61;0" dur="0.36s" fill="freeze" begin="11.end" /></path></g></g></g></svg>