<svg xmlns="http://www.w3.org/2000/svg" viewBox="0 0 109 109" id="9245"><g fill="none" stroke="#666" stroke-width="6" stroke-linecap="round" stroke-linejoin="round"><g><g><path d="M30.25,12.24c0,0.8,0.05,1.44-0.14,2.41c-1.01,5.02-10.64,21.79-18.88,29.22" /><path d="M30.89,19.21c5.19,2.07,11.83,7.57,14.36,12.79" /><path d="M18,41.19c1.83,0,2.66,0.11,3.26,0.07c5.29-0.38,11.89-1.37,18.12-1.64c0.9-0.04,1.09-0.06,2.62-0.06" /><path d="M11.09,56.54c0.66,0.41,2.84,0.6,3.52,0.54c6.1-0.62,18.89-2.33,25.29-3.33c0.82-0.13,2.64-0.17,3.87,0.19" /><path d="M27.95,43.19c1.24,0.78,1.24,2.52,1.24,3.14c0,4.35,0.62,35.13,0.31,39.48" /><path d="M13.89,67.76c4.37,4.48,6.51,9.32,7.4,11.94" /><path d="M42.7,61.05c0.3,0.84,0.46,2.06,0.34,2.76c-0.3,1.81-2.71,5.13-6.12,10.47" /><path d="M12,91.75c1.25,1,2.75,0.75,4.5,0.25c1.29-0.37,14.75-6.75,27.75-12.75" /></g><g><g><path d="M53.04,20.76c0.97,0.43,1.56,1.94,1.75,2.8c0.2,0.86,0,61.81-0.2,67.19" /></g><g><path d="M 46.431323,20.634276 c 7.57,-0.64 35.648677,-2.46 44.548677,-3.64 2.63,-0.35 4.27,-0.21 5.6,0.03" /></g><path d="M55.39,45.66c15.39-1.52,23.46-2.91,34.16-3.74c2.62-0.2,4.05,1.39,3.49,3.98c-0.89,4.09-2.67,10.22-3.78,15.08" /><path d="M55.98,65.27c6.43-0.64,29.93-3.22,35.98-3.61" /><g><g><path d="M 46.648518,92.25 c 1.75,0 3.16,-0.21 4.49,-0.34 8.93,-0.87 27.551482,-2.32 43.031482,-2.98 2.69,-0.12 4.31,-0.25 5.66,0.03" /></g></g></g></g></g><g fill="none" stroke="#000" stroke-width="3" stroke-linecap="round" stroke-linejoin="round"><path d="M30.25,12.24c0,0.8,0.05,1.44-0.14,2.41c-1.01,5.02-10.64,21.79-18.88,29.22" stroke-dasharray="37.503" stroke-dashoffset="37.503"><animate attributeName="stroke-dashoffset" values="37.503;37.503;0" dur="0.375s" fill="freeze" begin="0s;9245.click" /></path><path d="M30.89,19.21c5.19,2.07,11.83,7.57,14.36,12.79" stroke-dasharray="19.583" stroke-dashoffset="19.583"><animate attributeName="stroke-dashoffset" values="19.583" fill="freeze" begin="9245.click" /><animate attributeName="stroke-dashoffset" values="19.583;19.583;0" keyTimes="0;0.657;1" dur="0.571s" fill="freeze" begin="0s;9245.click" /></path><path d="M18,41.19c1.83,0,2.66,0.11,3.26,0.07c5.29-0.38,11.89-1.37,18.12-1.64c0.9-0.04,1.09-0.06,2.62-0.06" stroke-dasharray="24.08" stroke-dashoffset="24.08"><animate attributeName="stroke-dashoffset" values="24.08" fill="freeze" begin="9245.click" /><animate attributeName="stroke-dashoffset" values="24.08;24.08;0" keyTimes="0;0.703;1" dur="0.812s" fill="freeze" begin="0s;9245.click" /></path><path d="M11.09,56.54c0.66,0.41,2.84,0.6,3.52,0.54c6.1-0.62,18.89-2.33,25.29-3.33c0.82-0.13,2.64-0.17,3.87,0.19" stroke-dasharray="33" stroke-dashoffset="33"><animate attributeName="stroke-dashoffset" values="33" fill="freeze" begin="9245.click" /><animate attributeName="stroke-dashoffset" values="33;33;0" keyTimes="0;0.711;1" dur="1.142s" fill="freeze" begin="0s;9245.click" /></path><path d="M27.95,43.19c1.24,0.78,1.24,2.52,1.24,3.14c0,4.35,0.62,35.13,0.31,39.48" stroke-dasharray="43.015" stroke-dashoffset="43.015"><animate attributeName="stroke-dashoffset" values="43.015" fill="freeze" begin="9245.click" /><animate attributeName="stroke-dashoffset" values="43.015;43.015;0" keyTimes="0;0.726;1" dur="1.572s" fill="freeze" begin="0s;9245.click" /></path><path d="M13.89,67.76c4.37,4.48,6.51,9.32,7.4,11.94" stroke-dasharray="14.16" stroke-dashoffset="14.16"><animate attributeName="stroke-dashoffset" values="14.16" fill="freeze" begin="9245.click" /><animate attributeName="stroke-dashoffset" values="14.16;14.16;0" keyTimes="0;0.847;1" dur="1.855s" fill="freeze" begin="0s;9245.click" /></path><path d="M42.7,61.05c0.3,0.84,0.46,2.06,0.34,2.76c-0.3,1.81-2.71,5.13-6.12,10.47" stroke-dasharray="14.975" stroke-dashoffset="14.975"><animate attributeName="stroke-dashoffset" values="14.975" fill="freeze" begin="9245.click" /><animate attributeName="stroke-dashoffset" values="14.975;14.975;0" keyTimes="0;0.861;1" dur="2.154s" fill="freeze" begin="0s;9245.click" /></path><path d="M12,91.75c1.25,1,2.75,0.75,4.5,0.25c1.29-0.37,14.75-6.75,27.75-12.75" stroke-dasharray="35.245" stroke-dashoffset="35.245"><animate attributeName="stroke-dashoffset" values="35.245" fill="freeze" begin="9245.click" /><animate attributeName="stroke-dashoffset" values="35.245;35.245;0" keyTimes="0;0.86;1" dur="2.506s" fill="freeze" begin="0s;9245.click" /></path><path d="M53.04,20.76c0.97,0.43,1.56,1.94,1.75,2.8c0.2,0.86,0,61.81-0.2,67.19" stroke-dasharray="70.597" stroke-dashoffset="70.597"><animate attributeName="stroke-dashoffset" values="70.597" fill="freeze" begin="9245.click" /><animate attributeName="stroke-dashoffset" values="70.597;70.597;0" keyTimes="0;0.825;1" dur="3.037s" fill="freeze" begin="0s;9245.click" /></path><path d="M 46.431323,20.634276 c 7.57,-0.64 35.648677,-2.46 44.548677,-3.64 2.63,-0.35 4.27,-0.21 5.6,0.03" stroke-dasharray="50.326" stroke-dashoffset="50.326"><animate attributeName="stroke-dashoffset" values="50.326" fill="freeze" begin="9245.click" /><animate attributeName="stroke-dashoffset" values="50.326;50.326;0" keyTimes="0;0.858;1" dur="3.54s" fill="freeze" begin="0s;9245.click" /></path><path d="M55.39,45.66c15.39-1.52,23.46-2.91,34.16-3.74c2.62-0.2,4.05,1.39,3.49,3.98c-0.89,4.09-2.67,10.22-3.78,15.08" stroke-dasharray="56.318" stroke-dashoffset="56.318"><animate attributeName="stroke-dashoffset" values="56.318" fill="freeze" begin="9245.click" /><animate attributeName="stroke-dashoffset" values="56.318;56.318;0" keyTimes="0;0.863;1" dur="4.103s" fill="freeze" begin="0s;9245.click" /></path><path d="M55.98,65.27c6.43-0.64,29.93-3.22,35.98-3.61" stroke-dasharray="36.163" stroke-dashoffset="36.163"><animate attributeName="stroke-dashoffset" values="36.163" fill="freeze" begin="9245.click" /><animate attributeName="stroke-dashoffset" values="36.163;36.163;0" keyTimes="0;0.919;1" dur="4.465s" fill="freeze" begin="0s;9245.click" /></path><path d="M 46.648518,92.25 c 1.75,0 3.16,-0.21 4.49,-0.34 8.93,-0.87 27.551482,-2.32 43.031482,-2.98 2.69,-0.12 4.31,-0.25 5.66,0.03" stroke-dasharray="53.318" stroke-dashoffset="53.318"><animate attributeName="stroke-dashoffset" values="53.318" fill="freeze" begin="9245.click" /><animate attributeName="stroke-dashoffset" values="53.318;53.318;0" keyTimes="0;0.893;1" dur="4.998s" fill="freeze" begin="0s;9245.click" /></path></g></svg>