<svg xmlns="http://www.w3.org/2000/svg" width="109" height="109" viewBox="0 0 109 109" id="9262"><g fill="none" stroke="#666" stroke-width="9" stroke-linecap="round" stroke-linejoin="round"><g><g><path d="M29,16.99c0,0.78,0.15,1.43-0.15,2.33c-2.72,8.17-10.17,21.1-18.63,28.3" /><path d="M31.14,22.71c4.36,2.41,8.86,6.66,11.61,11.54" /><path d="M19.25,42.75c1.37,0,2.65,0.07,4.02-0.05c3.7-0.33,7.96-1.22,12.12-1.72c1.24-0.15,2.37-0.22,3.62-0.22" /><path d="M12.09,56.06c2.04,0.44,4.35,0.32,5.91,0.15c5.95-0.65,15.35-2.14,21.79-3.14c0.74-0.11,2.38-0.38,3.49-0.1" /><path d="M27.95,44.44c0.99,0.99,1.24,2.06,1.24,3.64c0,4.35,0.06,31.67,0.06,36.98" /><path d="M14.75,68.5c2.98,4.48,4.43,9.33,5.04,11.95" /><path d="M41.04,61.3c0.23,0.71,0.27,1.8,0.01,2.35c-0.93,1.98-2.05,4.11-4.63,8.63" /><path d="M13.5,90.5c1,1,2.67,0.93,3.75,0.5c1.25-0.5,14.25-5.75,24.5-10.25" /></g><g p4:phon="朮V/本" xmlns:p4="http://kanjivg.tagaini.net"><g><path d="M48.41,37.93c2.34,0.44,4.99,0.3,7.47,0.03c8.99-0.96,20.36-2.21,30.74-2.85c2.24-0.14,4.81-0.01,6.97,0.56" /><path d="M68.67,15.5c1.04,1.04,1.37,2.38,1.37,3.81c0,0.65,0.04,49.83,0.03,69.19c0,4.62-0.01,7.56-0.01,7.75" /><path d="M68.58,37.89c0,1.49-1.14,3.92-1.85,5.45C61.39,55.02,54,66.62,44.25,74.89" /><path d="M70.64,38.87c4.95,8.79,14.24,22.03,19.54,28.93c1.8,2.35,3.62,4.21,5.81,6.17" /></g><path d="M54.92,73.87c1.12,0.53,3.36,0.5,4.58,0.45c5.78-0.27,13.08-1.25,20.75-1.8c1.24-0.09,2.35-0.18,3.56,0.17" /></g></g></g><g fill="none" stroke="#000" stroke-width="5" stroke-linecap="round" stroke-linejoin="round"><path d="M29,16.99c0,0.78,0.15,1.43-0.15,2.33c-2.72,8.17-10.17,21.1-18.63,28.3" stroke-dasharray="36.57" stroke-dashoffset="36.57"><animate attributeName="stroke-dashoffset" values="36.57;36.57;0" dur="0.366s" fill="freeze" begin="0s;9262.click" /></path><path d="M31.14,22.71c4.36,2.41,8.86,6.66,11.61,11.54" stroke-dasharray="16.565" stroke-dashoffset="16.565"><animate attributeName="stroke-dashoffset" values="16.565" fill="freeze" begin="9262.click" /><animate attributeName="stroke-dashoffset" values="16.565;16.565;0" keyTimes="0;0.688;1" dur="0.532s" fill="freeze" begin="0s;9262.click" /></path><path d="M19.25,42.75c1.37,0,2.65,0.07,4.02-0.05c3.7-0.33,7.96-1.22,12.12-1.72c1.24-0.15,2.37-0.22,3.62-0.22" stroke-dasharray="19.895" stroke-dashoffset="19.895"><animate attributeName="stroke-dashoffset" values="19.895" fill="freeze" begin="9262.click" /><animate attributeName="stroke-dashoffset" values="19.895;19.895;0" keyTimes="0;0.728;1" dur="0.731s" fill="freeze" begin="0s;9262.click" /></path><path d="M12.09,56.06c2.04,0.44,4.35,0.32,5.91,0.15c5.95-0.65,15.35-2.14,21.79-3.14c0.74-0.11,2.38-0.38,3.49-0.1" stroke-dasharray="31.466" stroke-dashoffset="31.466"><animate attributeName="stroke-dashoffset" values="31.466" fill="freeze" begin="9262.click" /><animate attributeName="stroke-dashoffset" values="31.466;31.466;0" keyTimes="0;0.699;1" dur="1.046s" fill="freeze" begin="0s;9262.click" /></path><path d="M27.95,44.44c0.99,0.99,1.24,2.06,1.24,3.64c0,4.35,0.06,31.67,0.06,36.98" stroke-dasharray="40.946" stroke-dashoffset="40.946"><animate attributeName="stroke-dashoffset" values="40.946" fill="freeze" begin="9262.click" /><animate attributeName="stroke-dashoffset" values="40.946;40.946;0" keyTimes="0;0.719;1" dur="1.455s" fill="freeze" begin="0s;9262.click" /></path><path d="M14.75,68.5c2.98,4.48,4.43,9.33,5.04,11.95" stroke-dasharray="13.037" stroke-dashoffset="13.037"><animate attributeName="stroke-dashoffset" values="13.037" fill="freeze" begin="9262.click" /><animate attributeName="stroke-dashoffset" values="13.037;13.037;0" keyTimes="0;0.918;1" dur="1.585s" fill="freeze" begin="0s;9262.click" /></path><path d="M41.04,61.3c0.23,0.71,0.27,1.8,0.01,2.35c-0.93,1.98-2.05,4.11-4.63,8.63" stroke-dasharray="12.189" stroke-dashoffset="12.189"><animate attributeName="stroke-dashoffset" values="12.189" fill="freeze" begin="9262.click" /><animate attributeName="stroke-dashoffset" values="12.189;12.189;0" keyTimes="0;0.929;1" dur="1.707s" fill="freeze" begin="0s;9262.click" /></path><path d="M13.5,90.5c1,1,2.67,0.93,3.75,0.5c1.25-0.5,14.25-5.75,24.5-10.25" stroke-dasharray="30.551" stroke-dashoffset="30.551"><animate attributeName="stroke-dashoffset" values="30.551" fill="freeze" begin="9262.click" /><animate attributeName="stroke-dashoffset" values="30.551;30.551;0" keyTimes="0;0.848;1" dur="2.013s" fill="freeze" begin="0s;9262.click" /></path><path d="M48.41,37.93c2.34,0.44,4.99,0.3,7.47,0.03c8.99-0.96,20.36-2.21,30.74-2.85c2.24-0.14,4.81-0.01,6.97,0.56" stroke-dasharray="45.393" stroke-dashoffset="45.393"><animate attributeName="stroke-dashoffset" values="45.393" fill="freeze" begin="9262.click" /><animate attributeName="stroke-dashoffset" values="45.393;45.393;0" keyTimes="0;0.816;1" dur="2.467s" fill="freeze" begin="0s;9262.click" /></path><path d="M68.67,15.5c1.04,1.04,1.37,2.38,1.37,3.81c0,0.65,0.04,49.83,0.03,69.19c0,4.62-0.01,7.56-0.01,7.75" stroke-dasharray="81.103" stroke-dashoffset="81.103"><animate attributeName="stroke-dashoffset" values="81.103" fill="freeze" begin="9262.click" /><animate attributeName="stroke-dashoffset" values="81.103;81.103;0" keyTimes="0;0.802;1" dur="3.077s" fill="freeze" begin="0s;9262.click" /></path><path d="M68.58,37.89c0,1.49-1.14,3.92-1.85,5.45C61.39,55.02,54,66.62,44.25,74.89" stroke-dasharray="44.837" stroke-dashoffset="44.837"><animate attributeName="stroke-dashoffset" values="44.837" fill="freeze" begin="9262.click" /><animate attributeName="stroke-dashoffset" values="44.837;44.837;0" keyTimes="0;0.873;1" dur="3.525s" fill="freeze" begin="0s;9262.click" /></path><path d="M70.64,38.87c4.95,8.79,14.24,22.03,19.54,28.93c1.8,2.35,3.62,4.21,5.81,6.17" stroke-dasharray="43.422" stroke-dashoffset="43.422"><animate attributeName="stroke-dashoffset" values="43.422" fill="freeze" begin="9262.click" /><animate attributeName="stroke-dashoffset" values="43.422;43.422;0" keyTimes="0;0.89;1" dur="3.959s" fill="freeze" begin="0s;9262.click" /></path><path d="M54.92,73.87c1.12,0.53,3.36,0.5,4.58,0.45c5.78-0.27,13.08-1.25,20.75-1.8c1.24-0.09,2.35-0.18,3.56,0.17" stroke-dasharray="29.052" stroke-dashoffset="29.052"><animate attributeName="stroke-dashoffset" values="29.052" fill="freeze" begin="9262.click" /><animate attributeName="stroke-dashoffset" values="29.052;29.052;0" keyTimes="0;0.932;1" dur="4.25s" fill="freeze" begin="0s;9262.click" /></path></g></svg>