<svg xmlns="http://www.w3.org/2000/svg" width="109" height="109" viewBox="0 0 109 109" id="9293"><g fill="none" stroke="#666" stroke-width="9" stroke-linecap="round" stroke-linejoin="round"><g><g><path d="M30.75,14.74c0,0.78,0.05,1.41-0.14,2.35C29.59,22,19.96,38.37,11.72,45.63" /><path d="M33.89,21.96c4.47,2.03,10.68,7.42,12.86,12.54" /><path d="M19.75,42c1.68,0,2.44,0.09,2.98,0.06c4.84-0.31,11.02-0.56,16.12-1.75c0.8-0.19,1-0.05,2.4-0.05" /><path d="M14.09,57.81c0.59,0.33,2.56,0.48,3.17,0.43c5.49-0.49,16.74-1.74,23.78-2.67c0.74-0.1,2.38-0.13,3.49,0.15" /><path d="M29.45,44.19c1.24,0.78,1.24,2.52,1.24,3.14c0,6.35,0.31,33.92,0.31,39.98" /><path d="M15.39,68.76c4.08,4.85,6.07,10.11,6.9,12.94" /><path d="M43.2,64.55c0.3,0.84,0.46,2.06,0.34,2.76c-0.3,1.81-2.71,5.13-6.12,10.47" /><path d="M16,91.42c1.2,0.75,2.63,0.57,4.3,0.19c1.24-0.28,10.76-4.33,23.2-8.86" /></g><g><g><g><path d="M69.77,13.5c0.06,0.85,0.22,2.25-0.12,3.44c-2.06,7.38-9.12,23.04-20.4,32.92" /><path d="M69.43,18.88c4.25,5.01,18.46,22.15,22.3,25.95c1.3,1.29,2.97,1.84,4.27,2.21" /></g></g><g p5:partial xmlns:p5="http://kanjivg.tagaini.net"><path d="M56.74,50.24c0.68,0.45,2.89,0.07,3.59,0.03c4.92-0.27,13.45-1.26,21.16-1.72c1.05-0.06,2,0.09,2.87,0.46" /><path d="M69.31,50.94c0.7,1.23,0.7,1.96,0.7,2.94c0,6.87,0.35,29.29,0.18,36.15" /><path d="M54.77,69.73c0.71,0.49,3.06,0.3,3.79,0.21c7.58-0.86,16.02-1.12,24.92-1.99c0.89-0.09,2.84-0.2,4.17,0.23" /><path d="M46.01,92.08c0.62,0.22,3.88,0.12,4.93,0c14.8-1.56,26.37-2.32,42.19-2.86c1.7-0.06,3.74,0.37,4.59,0.72" /></g></g></g></g><g fill="none" stroke="#000" stroke-width="5" stroke-linecap="round" stroke-linejoin="round"><g><g><path d="M30.75,14.74c0,0.78,0.05,1.41-0.14,2.35C29.59,22,19.96,38.37,11.72,45.63" stroke-dasharray="36.88" stroke-dashoffset="36.88"><animate id="0" attributeName="stroke-dashoffset" values="36.88;0" dur="0.37s" fill="freeze" begin="0s;9293.click" /></path><path d="M33.89,21.96c4.47,2.03,10.68,7.42,12.86,12.54" stroke-dasharray="18.29" stroke-dashoffset="18.29"><animate attributeName="stroke-dashoffset" values="18.29" fill="freeze" begin="9293.click" /><animate id="1" attributeName="stroke-dashoffset" values="18.29;0" dur="0.18s" fill="freeze" begin="0.end" /></path><path d="M19.75,42c1.68,0,2.44,0.09,2.98,0.06c4.84-0.31,11.02-0.56,16.12-1.75c0.8-0.19,1-0.05,2.4-0.05" stroke-dasharray="21.62" stroke-dashoffset="21.62"><animate attributeName="stroke-dashoffset" values="21.62" fill="freeze" begin="9293.click" /><animate id="2" attributeName="stroke-dashoffset" values="21.62;0" dur="0.22s" fill="freeze" begin="1.end" /></path><path d="M14.09,57.81c0.59,0.33,2.56,0.48,3.17,0.43c5.49-0.49,16.74-1.74,23.78-2.67c0.74-0.1,2.38-0.13,3.49,0.15" stroke-dasharray="30.66" stroke-dashoffset="30.66"><animate attributeName="stroke-dashoffset" values="30.66" fill="freeze" begin="9293.click" /><animate id="3" attributeName="stroke-dashoffset" values="30.66;0" dur="0.31s" fill="freeze" begin="2.end" /></path><path d="M29.45,44.19c1.24,0.78,1.24,2.52,1.24,3.14c0,6.35,0.31,33.92,0.31,39.98" stroke-dasharray="43.51" stroke-dashoffset="43.51"><animate attributeName="stroke-dashoffset" values="43.51" fill="freeze" begin="9293.click" /><animate id="4" attributeName="stroke-dashoffset" values="43.51;0" dur="0.44s" fill="freeze" begin="3.end" /></path><path d="M15.39,68.76c4.08,4.85,6.07,10.11,6.9,12.94" stroke-dasharray="14.77" stroke-dashoffset="14.77"><animate attributeName="stroke-dashoffset" values="14.77" fill="freeze" begin="9293.click" /><animate id="5" attributeName="stroke-dashoffset" values="14.77;0" dur="0.15s" fill="freeze" begin="4.end" /></path><path d="M43.2,64.55c0.3,0.84,0.46,2.06,0.34,2.76c-0.3,1.81-2.71,5.13-6.12,10.47" stroke-dasharray="14.97" stroke-dashoffset="14.97"><animate attributeName="stroke-dashoffset" values="14.97" fill="freeze" begin="9293.click" /><animate id="6" attributeName="stroke-dashoffset" values="14.97;0" dur="0.15s" fill="freeze" begin="5.end" /></path><path d="M16,91.42c1.2,0.75,2.63,0.57,4.3,0.19c1.24-0.28,10.76-4.33,23.2-8.86" stroke-dasharray="29.26" stroke-dashoffset="29.26"><animate attributeName="stroke-dashoffset" values="29.26" fill="freeze" begin="9293.click" /><animate id="7" attributeName="stroke-dashoffset" values="29.26;0" dur="0.29s" fill="freeze" begin="6.end" /></path></g><g><g><g><path d="M69.77,13.5c0.06,0.85,0.22,2.25-0.12,3.44c-2.06,7.38-9.12,23.04-20.4,32.92" stroke-dasharray="42.64" stroke-dashoffset="42.64"><animate attributeName="stroke-dashoffset" values="42.64" fill="freeze" begin="9293.click" /><animate id="8" attributeName="stroke-dashoffset" values="42.64;0" dur="0.43s" fill="freeze" begin="7.end" /></path><path d="M69.43,18.88c4.25,5.01,18.46,22.15,22.3,25.95c1.3,1.29,2.97,1.84,4.27,2.21" stroke-dasharray="39.08" stroke-dashoffset="39.08"><animate attributeName="stroke-dashoffset" values="39.08" fill="freeze" begin="9293.click" /><animate id="9" attributeName="stroke-dashoffset" values="39.08;0" dur="0.39s" fill="freeze" begin="8.end" /></path></g></g><g p5:partial xmlns:p5="http://kanjivg.tagaini.net"><path d="M56.74,50.24c0.68,0.45,2.89,0.07,3.59,0.03c4.92-0.27,13.45-1.26,21.16-1.72c1.05-0.06,2,0.09,2.87,0.46" stroke-dasharray="27.8" stroke-dashoffset="27.8"><animate attributeName="stroke-dashoffset" values="27.8" fill="freeze" begin="9293.click" /><animate id="10" attributeName="stroke-dashoffset" values="27.8;0" dur="0.28s" fill="freeze" begin="9.end" /></path><path d="M69.31,50.94c0.7,1.23,0.7,1.96,0.7,2.94c0,6.87,0.35,29.29,0.18,36.15" stroke-dasharray="39.22" stroke-dashoffset="39.22"><animate attributeName="stroke-dashoffset" values="39.22" fill="freeze" begin="9293.click" /><animate id="11" attributeName="stroke-dashoffset" values="39.22;0" dur="0.39s" fill="freeze" begin="10.end" /></path><path d="M54.77,69.73c0.71,0.49,3.06,0.3,3.79,0.21c7.58-0.86,16.02-1.12,24.92-1.99c0.89-0.09,2.84-0.2,4.17,0.23" stroke-dasharray="33.05" stroke-dashoffset="33.05"><animate attributeName="stroke-dashoffset" values="33.05" fill="freeze" begin="9293.click" /><animate id="12" attributeName="stroke-dashoffset" values="33.05;0" dur="0.33s" fill="freeze" begin="11.end" /></path><path d="M46.01,92.08c0.62,0.22,3.88,0.12,4.93,0c14.8-1.56,26.37-2.32,42.19-2.86c1.7-0.06,3.74,0.37,4.59,0.72" stroke-dasharray="51.91" stroke-dashoffset="51.91"><animate attributeName="stroke-dashoffset" values="51.91" fill="freeze" begin="9293.click" /><animate id="13" attributeName="stroke-dashoffset" values="51.91;0" dur="0.52s" fill="freeze" begin="12.end" /></path></g></g></g></g></svg>