<svg xmlns="http://www.w3.org/2000/svg" width="109" height="109" viewBox="0 0 109 109" id="9295"><g fill="none" stroke="#666" stroke-width="9" stroke-linecap="round" stroke-linejoin="round"><g><g><path d="M29.75,13.24c0,0.89,0.05,1.59-0.15,2.66c-1.08,5.54-11.34,24.03-20.12,32.23" /><path d="M30.89,20.46c4.47,2.03,10.18,7.42,12.36,12.54" /><path d="M19.5,41.5c1.5,0,2.18,0.09,2.67,0.06C26.5,41.24,33,40.03,38.1,39.8c0.74-0.03,0.9-0.05,2.15-0.05" /><path d="M12.09,55.68c0.64,0.37,2.73,0.54,3.38,0.48c5.87-0.55,16.53-1.66,24.33-3c0.79-0.13,2.54-0.15,3.73,0.17" /><path d="M27.45,43.19c1.24,0.78,1.24,2.52,1.24,3.14c0,3.43,0.19,22.08,0.27,32.42c0.02,2.77,0.04,4.94,0.04,6.06" /><path d="M13,66c4.01,5.14,5.97,10.7,6.79,13.7" /><path d="M42.2,60.05c0.3,0.84,0.15,2.62-0.16,3.26c-1.29,2.69-2.71,5.63-6.12,10.97" /><path d="M11,90.25c1.25,1,2.75,0.75,4.5,0.25c1.29-0.37,14.25-5.25,27.25-11.25" /></g><g><g p5:part="1" xmlns:p5="http://kanjivg.tagaini.net"><path d="M49.45,26.25c1.15,0.48,3.26,0.58,4.41,0.48C61.64,26.1,83.75,24,94.4,23.01c1.91-0.18,3.07,0.23,4.03,0.47" /></g><g><path d="M50.49,36.8c1.01,0.45,2.7,1.04,4.49,0.91c6.02-0.45,28.02-3.86,34.69-4.3c2.33-0.15,3.82,1.53,2.99,3.48c-0.58,1.37-1.01,3.52-1.35,5.59c-0.19,1.14-0.35,2.26-0.49,3.21" /><path d="M57.12,48.9c6.88-0.4,22.82-2.47,32.03-2.69c1.46-0.04,2.34,0.18,3.07,0.36" /><path d="M55.51,47.82c1.07,0.92,0.91,2.4,0.21,3.85c-0.8,1.66-4.11,8.39-4.72,9.08c-1.42,1.58-0.75,3.25,2.08,2.75c3.92-0.7,35.38-4.02,41.09-4.7c2.91-0.35,4.6,1.09,3.91,4.37c-1.04,4.92-2.81,8.66-5.18,11.87c-3.59,4.88-4.51,1.25-6.14-0.52" /></g><g p5:part="2" xmlns:p5="http://kanjivg.tagaini.net"><path d="M70.88,13.55c1.15,1.62,1.54,2.58,1.54,5.35c0,29.1-2.67,61.85-28.11,76.28" /><path d="M67.03,65.26c3.89,5.29,20.65,22.57,24.94,26.44c1.46,1.31,3.32,1.88,4.78,2.25" /></g></g></g></g><g fill="none" stroke="#000" stroke-width="5" stroke-linecap="round" stroke-linejoin="round"><g><g><path d="M29.75,13.24c0,0.89,0.05,1.59-0.15,2.66c-1.08,5.54-11.34,24.03-20.12,32.23" stroke-dasharray="40.97" stroke-dashoffset="40.97"><animate id="0" attributeName="stroke-dashoffset" values="40.97;0" dur="0.41s" fill="freeze" begin="0s;9295.click" /></path><path d="M30.89,20.46c4.47,2.03,10.18,7.42,12.36,12.54" stroke-dasharray="17.93" stroke-dashoffset="17.93"><animate attributeName="stroke-dashoffset" values="17.93" fill="freeze" begin="9295.click" /><animate id="1" attributeName="stroke-dashoffset" values="17.93;0" dur="0.18s" fill="freeze" begin="0.end" /></path><path d="M19.5,41.5c1.5,0,2.18,0.09,2.67,0.06C26.5,41.24,33,40.03,38.1,39.8c0.74-0.03,0.9-0.05,2.15-0.05" stroke-dasharray="20.85" stroke-dashoffset="20.85"><animate attributeName="stroke-dashoffset" values="20.85" fill="freeze" begin="9295.click" /><animate id="2" attributeName="stroke-dashoffset" values="20.85;0" dur="0.21s" fill="freeze" begin="1.end" /></path><path d="M12.09,55.68c0.64,0.37,2.73,0.54,3.38,0.48c5.87-0.55,16.53-1.66,24.33-3c0.79-0.13,2.54-0.15,3.73,0.17" stroke-dasharray="31.71" stroke-dashoffset="31.71"><animate attributeName="stroke-dashoffset" values="31.71" fill="freeze" begin="9295.click" /><animate id="3" attributeName="stroke-dashoffset" values="31.71;0" dur="0.32s" fill="freeze" begin="2.end" /></path><path d="M27.45,43.19c1.24,0.78,1.24,2.52,1.24,3.14c0,3.43,0.19,22.08,0.27,32.42c0.02,2.77,0.04,4.94,0.04,6.06" stroke-dasharray="42.01" stroke-dashoffset="42.01"><animate attributeName="stroke-dashoffset" values="42.01" fill="freeze" begin="9295.click" /><animate id="4" attributeName="stroke-dashoffset" values="42.01;0" dur="0.42s" fill="freeze" begin="3.end" /></path><path d="M13,66c4.01,5.14,5.97,10.7,6.79,13.7" stroke-dasharray="15.39" stroke-dashoffset="15.39"><animate attributeName="stroke-dashoffset" values="15.39" fill="freeze" begin="9295.click" /><animate id="5" attributeName="stroke-dashoffset" values="15.39;0" dur="0.15s" fill="freeze" begin="4.end" /></path><path d="M42.2,60.05c0.3,0.84,0.15,2.62-0.16,3.26c-1.29,2.69-2.71,5.63-6.12,10.97" stroke-dasharray="15.89" stroke-dashoffset="15.89"><animate attributeName="stroke-dashoffset" values="15.89" fill="freeze" begin="9295.click" /><animate id="6" attributeName="stroke-dashoffset" values="15.89;0" dur="0.16s" fill="freeze" begin="5.end" /></path><path d="M11,90.25c1.25,1,2.75,0.75,4.5,0.25c1.29-0.37,14.25-5.25,27.25-11.25" stroke-dasharray="34.19" stroke-dashoffset="34.19"><animate attributeName="stroke-dashoffset" values="34.19" fill="freeze" begin="9295.click" /><animate id="7" attributeName="stroke-dashoffset" values="34.19;0" dur="0.34s" fill="freeze" begin="6.end" /></path></g><g><g p5:part="1" xmlns:p5="http://kanjivg.tagaini.net"><path d="M49.45,26.25c1.15,0.48,3.26,0.58,4.41,0.48C61.64,26.1,83.75,24,94.4,23.01c1.91-0.18,3.07,0.23,4.03,0.47" stroke-dasharray="49.26" stroke-dashoffset="49.26"><animate attributeName="stroke-dashoffset" values="49.26" fill="freeze" begin="9295.click" /><animate id="8" attributeName="stroke-dashoffset" values="49.26;0" dur="0.49s" fill="freeze" begin="7.end" /></path></g><g><path d="M50.49,36.8c1.01,0.45,2.7,1.04,4.49,0.91c6.02-0.45,28.02-3.86,34.69-4.3c2.33-0.15,3.82,1.53,2.99,3.48c-0.58,1.37-1.01,3.52-1.35,5.59c-0.19,1.14-0.35,2.26-0.49,3.21" stroke-dasharray="54.23" stroke-dashoffset="54.23"><animate attributeName="stroke-dashoffset" values="54.23" fill="freeze" begin="9295.click" /><animate id="9" attributeName="stroke-dashoffset" values="54.23;0" dur="0.54s" fill="freeze" begin="8.end" /></path><path d="M57.12,48.9c6.88-0.4,22.82-2.47,32.03-2.69c1.46-0.04,2.34,0.18,3.07,0.36" stroke-dasharray="35.25" stroke-dashoffset="35.25"><animate attributeName="stroke-dashoffset" values="35.25" fill="freeze" begin="9295.click" /><animate id="10" attributeName="stroke-dashoffset" values="35.25;0" dur="0.35s" fill="freeze" begin="9.end" /></path><path d="M55.51,47.82c1.07,0.92,0.91,2.4,0.21,3.85c-0.8,1.66-4.11,8.39-4.72,9.08c-1.42,1.58-0.75,3.25,2.08,2.75c3.92-0.7,35.38-4.02,41.09-4.7c2.91-0.35,4.6,1.09,3.91,4.37c-1.04,4.92-2.81,8.66-5.18,11.87c-3.59,4.88-4.51,1.25-6.14-0.52" stroke-dasharray="89.78" stroke-dashoffset="89.78"><animate attributeName="stroke-dashoffset" values="89.78" fill="freeze" begin="9295.click" /><animate id="11" attributeName="stroke-dashoffset" values="89.78;0" dur="0.68s" fill="freeze" begin="10.end" /></path></g><g p5:part="2" xmlns:p5="http://kanjivg.tagaini.net"><path d="M70.88,13.55c1.15,1.62,1.54,2.58,1.54,5.35c0,29.1-2.67,61.85-28.11,76.28" stroke-dasharray="91.08" stroke-dashoffset="91.08"><animate attributeName="stroke-dashoffset" values="91.08" fill="freeze" begin="9295.click" /><animate id="12" attributeName="stroke-dashoffset" values="91.08;0" dur="0.68s" fill="freeze" begin="11.end" /></path><path d="M67.03,65.26c3.89,5.29,20.65,22.57,24.94,26.44c1.46,1.31,3.32,1.88,4.78,2.25" stroke-dasharray="41.71" stroke-dashoffset="41.71"><animate attributeName="stroke-dashoffset" values="41.71" fill="freeze" begin="9295.click" /><animate id="13" attributeName="stroke-dashoffset" values="41.71;0" dur="0.42s" fill="freeze" begin="12.end" /></path></g></g></g></g></svg>