<svg xmlns="http://www.w3.org/2000/svg" width="109" height="109" viewBox="0 0 109 109" id="9326"><g fill="none" stroke="#666" stroke-width="9" stroke-linecap="round" stroke-linejoin="round"><g><g><path d="M31.75,14.99c0,1.11-0.05,2.14-0.42,3.2c-1.91,5.6-11.14,19.97-19.11,26.56" /><path d="M34.14,21.46c4.61,2.54,9.48,5.79,12.36,10.79" /><path d="M21.5,41c1.26,0,2.62,0.12,3.88-0.07c4.49-0.68,7.92-1.54,12.74-2.48c1.21-0.24,2.89-0.45,4.13-0.45" /><path d="M15.84,54.81c1.66,0.56,4.02,0.63,5.68,0.42c6.08-0.76,13.59-2.65,19.25-3.51c1.49-0.23,2.99-0.5,4.51-0.25" /><path d="M30.95,43.94c0.99,0.99,1.24,2.06,1.24,3.39c0,4.35,0.06,24.54,0.06,31.48" /><path d="M16.39,64.51c3.93,3.73,5.85,7.76,6.65,9.94" /><path d="M45.15,58.3c-0.03,0.95-0.27,1.81-0.61,2.41c-1.41,2.42-2.79,4.69-6.62,9.82" /><path d="M14.5,85.5c1.2,1.5,2.58,1.41,4.5,0.5c7.12-3.38,12-5.5,25-11.5" /></g><g><g><g><path d="M69.61,12.25c0.02,1-0.18,1.65-0.51,2.27c-1.6,3.1-3.16,5.78-4.86,8.24" /></g><g><path d="M54.23,25.5c0.64,0.64,1.05,1.7,1.22,2.96c0.46,3.38,1.57,9.5,2.46,16.77c0.17,1.42,0.34,2.89,0.49,4.38" /><path d="M55.99,26.51C62.5,25.5,79.88,23,85.75,22.57c2.08-0.15,3.83,1.03,3.75,3.39c-0.06,1.7-1.06,8.79-3.09,17.02c-0.32,1.29-0.67,2.63-1.06,3.99" /><path d="M57.76,36.89c9.12-1.14,20.87-2.76,29.29-3.05" /><path d="M59.63,47.36c9.85-1.08,17.42-2.02,24.99-2.53" /></g></g><g><path d="M53.37,57.9c0.99,0.99,1.08,2.22,1.08,3.9c0,5.45,0.01,11.7,0.01,18.96c0,1.96-0.07,3.9-0.04,5.79" /><path d="M55.25,60.54c2.75-0.26,32.87-4.01,34.92-4.17c2.41-0.19,4.2,1.25,3.84,4.92c-0.82,8.41-2.29,15.7-4.53,22.12c-1.86,5.34-4.2,0.76-5.78-1.23" /><path d="M70.92,50.99c1.04,1.04,1.31,2.51,1.31,3.99c0,0.57-0.11,27.27-0.11,35.52c0,4,0,6,0,8.25" /></g></g></g></g><g fill="none" stroke="#000" stroke-width="5" stroke-linecap="round" stroke-linejoin="round"><g><g><path d="M31.75,14.99c0,1.11-0.05,2.14-0.42,3.2c-1.91,5.6-11.14,19.97-19.11,26.56" stroke-dasharray="36.21" stroke-dashoffset="36.21"><animate id="0" attributeName="stroke-dashoffset" values="36.21;0" dur="0.36s" fill="freeze" begin="0s;9326.click" /></path><path d="M34.14,21.46c4.61,2.54,9.48,5.79,12.36,10.79" stroke-dasharray="16.62" stroke-dashoffset="16.62"><animate attributeName="stroke-dashoffset" values="16.62" fill="freeze" begin="9326.click" /><animate id="1" attributeName="stroke-dashoffset" values="16.62;0" dur="0.17s" fill="freeze" begin="0.end" /></path><path d="M21.5,41c1.26,0,2.62,0.12,3.88-0.07c4.49-0.68,7.92-1.54,12.74-2.48c1.21-0.24,2.89-0.45,4.13-0.45" stroke-dasharray="21.03" stroke-dashoffset="21.03"><animate attributeName="stroke-dashoffset" values="21.03" fill="freeze" begin="9326.click" /><animate id="2" attributeName="stroke-dashoffset" values="21.03;0" dur="0.21s" fill="freeze" begin="1.end" /></path><path d="M15.84,54.81c1.66,0.56,4.02,0.63,5.68,0.42c6.08-0.76,13.59-2.65,19.25-3.51c1.49-0.23,2.99-0.5,4.51-0.25" stroke-dasharray="29.85" stroke-dashoffset="29.85"><animate attributeName="stroke-dashoffset" values="29.85" fill="freeze" begin="9326.click" /><animate id="3" attributeName="stroke-dashoffset" values="29.85;0" dur="0.3s" fill="freeze" begin="2.end" /></path><path d="M30.95,43.94c0.99,0.99,1.24,2.06,1.24,3.39c0,4.35,0.06,24.54,0.06,31.48" stroke-dasharray="35.2" stroke-dashoffset="35.2"><animate attributeName="stroke-dashoffset" values="35.2" fill="freeze" begin="9326.click" /><animate id="4" attributeName="stroke-dashoffset" values="35.2;0" dur="0.35s" fill="freeze" begin="3.end" /></path><path d="M16.39,64.51c3.93,3.73,5.85,7.76,6.65,9.94" stroke-dasharray="12.06" stroke-dashoffset="12.06"><animate attributeName="stroke-dashoffset" values="12.06" fill="freeze" begin="9326.click" /><animate id="5" attributeName="stroke-dashoffset" values="12.06;0" dur="0.12s" fill="freeze" begin="4.end" /></path><path d="M45.15,58.3c-0.03,0.95-0.27,1.81-0.61,2.41c-1.41,2.42-2.79,4.69-6.62,9.82" stroke-dasharray="14.36" stroke-dashoffset="14.36"><animate attributeName="stroke-dashoffset" values="14.36" fill="freeze" begin="9326.click" /><animate id="6" attributeName="stroke-dashoffset" values="14.36;0" dur="0.14s" fill="freeze" begin="5.end" /></path><path d="M14.5,85.5c1.2,1.5,2.58,1.41,4.5,0.5c7.12-3.38,12-5.5,25-11.5" stroke-dasharray="32.51" stroke-dashoffset="32.51"><animate attributeName="stroke-dashoffset" values="32.51" fill="freeze" begin="9326.click" /><animate id="7" attributeName="stroke-dashoffset" values="32.51;0" dur="0.33s" fill="freeze" begin="6.end" /></path></g><g><g><g><path d="M69.61,12.25c0.02,1-0.18,1.65-0.51,2.27c-1.6,3.1-3.16,5.78-4.86,8.24" stroke-dasharray="11.93" stroke-dashoffset="11.93"><animate attributeName="stroke-dashoffset" values="11.93" fill="freeze" begin="9326.click" /><animate id="8" attributeName="stroke-dashoffset" values="11.93;0" dur="0.12s" fill="freeze" begin="7.end" /></path></g><g><path d="M54.23,25.5c0.64,0.64,1.05,1.7,1.22,2.96c0.46,3.38,1.57,9.5,2.46,16.77c0.17,1.42,0.34,2.89,0.49,4.38" stroke-dasharray="24.61" stroke-dashoffset="24.61"><animate attributeName="stroke-dashoffset" values="24.61" fill="freeze" begin="9326.click" /><animate id="9" attributeName="stroke-dashoffset" values="24.61;0" dur="0.25s" fill="freeze" begin="8.end" /></path><path d="M55.99,26.51C62.5,25.5,79.88,23,85.75,22.57c2.08-0.15,3.83,1.03,3.75,3.39c-0.06,1.7-1.06,8.79-3.09,17.02c-0.32,1.29-0.67,2.63-1.06,3.99" stroke-dasharray="57.27" stroke-dashoffset="57.27"><animate attributeName="stroke-dashoffset" values="57.27" fill="freeze" begin="9326.click" /><animate id="10" attributeName="stroke-dashoffset" values="57.27;0" dur="0.57s" fill="freeze" begin="9.end" /></path><path d="M57.76,36.89c9.12-1.14,20.87-2.76,29.29-3.05" stroke-dasharray="29.46" stroke-dashoffset="29.46"><animate attributeName="stroke-dashoffset" values="29.46" fill="freeze" begin="9326.click" /><animate id="11" attributeName="stroke-dashoffset" values="29.46;0" dur="0.29s" fill="freeze" begin="10.end" /></path><path d="M59.63,47.36c9.85-1.08,17.42-2.02,24.99-2.53" stroke-dasharray="25.12" stroke-dashoffset="25.12"><animate attributeName="stroke-dashoffset" values="25.12" fill="freeze" begin="9326.click" /><animate id="12" attributeName="stroke-dashoffset" values="25.12;0" dur="0.25s" fill="freeze" begin="11.end" /></path></g></g><g><path d="M53.37,57.9c0.99,0.99,1.08,2.22,1.08,3.9c0,5.45,0.01,11.7,0.01,18.96c0,1.96-0.07,3.9-0.04,5.79" stroke-dasharray="28.92" stroke-dashoffset="28.92"><animate attributeName="stroke-dashoffset" values="28.92" fill="freeze" begin="9326.click" /><animate id="13" attributeName="stroke-dashoffset" values="28.92;0" dur="0.29s" fill="freeze" begin="12.end" /></path><path d="M55.25,60.54c2.75-0.26,32.87-4.01,34.92-4.17c2.41-0.19,4.2,1.25,3.84,4.92c-0.82,8.41-2.29,15.7-4.53,22.12c-1.86,5.34-4.2,0.76-5.78-1.23" stroke-dasharray="74" stroke-dashoffset="74"><animate attributeName="stroke-dashoffset" values="74" fill="freeze" begin="9326.click" /><animate id="14" attributeName="stroke-dashoffset" values="74;0" dur="0.56s" fill="freeze" begin="13.end" /></path><path d="M70.92,50.99c1.04,1.04,1.31,2.51,1.31,3.99c0,0.57-0.11,27.27-0.11,35.52c0,4,0,6,0,8.25" stroke-dasharray="48.08" stroke-dashoffset="48.08"><animate attributeName="stroke-dashoffset" values="48.08" fill="freeze" begin="9326.click" /><animate id="15" attributeName="stroke-dashoffset" values="48.08;0" dur="0.48s" fill="freeze" begin="14.end" /></path></g></g></g></g></svg>