<svg xmlns="http://www.w3.org/2000/svg" width="109" height="109" viewBox="0 0 109 109" id="934d"><g fill="none" stroke="#666" stroke-width="9" stroke-linecap="round" stroke-linejoin="round"><g><g><path d="M29.75,17.49c0,0.78,0.05,1.4-0.15,2.33c-1.04,4.87-10.92,21.1-19.38,28.3" /><path d="M31.89,22.71c4.47,1.91,10.18,6.98,12.36,11.79" /><path d="M21,43c1.5,0,2.18,0.09,2.67,0.06C28,42.74,33,41.53,38.1,41.3c0.74-0.03,0.9-0.05,2.15-0.05" /><path d="M14.59,55.81c0.59,0.33,2.56,0.48,3.17,0.43c5.49-0.49,15.74-2.49,22.78-2.67c0.75-0.02,2.38-0.13,3.49,0.15" /><path d="M28.45,43.69c1.24,0.78,1.24,2.52,1.24,3.14c0,4.35,0.62,32.63,0.31,36.98" /><path d="M14.89,66.26c3.78,5.04,5.63,10.5,6.4,13.44" /><path d="M43.17,60.55c0.33,0.85,0.5,2.09,0.37,2.82c-0.33,1.85-2.93,5.23-6.62,10.66" /><path d="M12.5,89.83c1.5,1.42,3.13,1.09,4.28,0.68c1.34-0.48,11.55-5.01,25.47-10.75" /></g><g><g><path d="M71.52,15.13c0.53,0.35,1.64,2.63,1.75,3.34c0.11,0.7,0.05,3.75-0.05,8.14" /><g><path d="M51.62,28.41c1.05,0.49,2.99,0.57,4.04,0.49c10.98-0.83,23.32-2.93,35.52-3.81c1.75-0.13,2.81,0.24,3.69,0.48" /><path d="M54,29.94c0.25,1.31,0.52,4.74,0.44,6.83C53.81,52.87,56.5,76,40.96,91.59" /></g></g><g><g><path d="M58.24,42.13c1.01,0.4,2.86,0.47,3.87,0.4c5.26-0.36,23.09-3.05,28.59-3.27c1.68-0.07,2.69,0.19,3.53,0.39" /><path d="M66.32,33.63c0.83,0.37,1.33,1.66,1.49,2.4c0.17,0.74,1.2,11.48,1.72,17.42" /></g><path d="M81.52,31.71c0.83,0.37,1.33,1.66,1.49,2.4c0.17,0.74-1.48,9.76-1.98,16.6" /><path d="M69.53,52.17c3.22-0.42,8.22-1.17,13.22-1.49" /></g><g><path d="M63.25,61.91c1.2,0.23,1.35,0.58,3.75,0.23c2.4-0.35,16.89-2.29,18.54-2.64c1.65-0.35,2.98,1.35,2.25,2.56C79,76.75,65.15,87.42,51.79,92.5" /><path d="M62.19,66.23c3.35,0.62,19.72,17.21,31.39,24.01c1.82,1.06,3.14,1.76,4.83,2.12" /></g></g></g></g><g fill="none" stroke="#000" stroke-width="5" stroke-linecap="round" stroke-linejoin="round"><g><g><path d="M29.75,17.49c0,0.78,0.05,1.4-0.15,2.33c-1.04,4.87-10.92,21.1-19.38,28.3" stroke-dasharray="36.94" stroke-dashoffset="36.94"><animate id="0" attributeName="stroke-dashoffset" values="36.94;0" dur="0.37s" fill="freeze" begin="0s;934d.click" /></path><path d="M31.89,22.71c4.47,1.91,10.18,6.98,12.36,11.79" stroke-dasharray="17.4" stroke-dashoffset="17.4"><animate attributeName="stroke-dashoffset" values="17.4" fill="freeze" begin="934d.click" /><animate id="1" attributeName="stroke-dashoffset" values="17.4;0" dur="0.17s" fill="freeze" begin="0.end" /></path><path d="M21,43c1.5,0,2.18,0.09,2.67,0.06C28,42.74,33,41.53,38.1,41.3c0.74-0.03,0.9-0.05,2.15-0.05" stroke-dasharray="19.37" stroke-dashoffset="19.37"><animate attributeName="stroke-dashoffset" values="19.37" fill="freeze" begin="934d.click" /><animate id="2" attributeName="stroke-dashoffset" values="19.37;0" dur="0.19s" fill="freeze" begin="1.end" /></path><path d="M14.59,55.81c0.59,0.33,2.56,0.48,3.17,0.43c5.49-0.49,15.74-2.49,22.78-2.67c0.75-0.02,2.38-0.13,3.49,0.15" stroke-dasharray="29.67" stroke-dashoffset="29.67"><animate attributeName="stroke-dashoffset" values="29.67" fill="freeze" begin="934d.click" /><animate id="3" attributeName="stroke-dashoffset" values="29.67;0" dur="0.3s" fill="freeze" begin="2.end" /></path><path d="M28.45,43.69c1.24,0.78,1.24,2.52,1.24,3.14c0,4.35,0.62,32.63,0.31,36.98" stroke-dasharray="40.51" stroke-dashoffset="40.51"><animate attributeName="stroke-dashoffset" values="40.51" fill="freeze" begin="934d.click" /><animate id="4" attributeName="stroke-dashoffset" values="40.51;0" dur="0.41s" fill="freeze" begin="3.end" /></path><path d="M14.89,66.26c3.78,5.04,5.63,10.5,6.4,13.44" stroke-dasharray="14.98" stroke-dashoffset="14.98"><animate attributeName="stroke-dashoffset" values="14.98" fill="freeze" begin="934d.click" /><animate id="5" attributeName="stroke-dashoffset" values="14.98;0" dur="0.15s" fill="freeze" begin="4.end" /></path><path d="M43.17,60.55c0.33,0.85,0.5,2.09,0.37,2.82c-0.33,1.85-2.93,5.23-6.62,10.66" stroke-dasharray="15.47" stroke-dashoffset="15.47"><animate attributeName="stroke-dashoffset" values="15.47" fill="freeze" begin="934d.click" /><animate id="6" attributeName="stroke-dashoffset" values="15.47;0" dur="0.15s" fill="freeze" begin="5.end" /></path><path d="M12.5,89.83c1.5,1.42,3.13,1.09,4.28,0.68c1.34-0.48,11.55-5.01,25.47-10.75" stroke-dasharray="32.24" stroke-dashoffset="32.24"><animate attributeName="stroke-dashoffset" values="32.24" fill="freeze" begin="934d.click" /><animate id="7" attributeName="stroke-dashoffset" values="32.24;0" dur="0.32s" fill="freeze" begin="6.end" /></path></g><g><g><path d="M71.52,15.13c0.53,0.35,1.64,2.63,1.75,3.34c0.11,0.7,0.05,3.75-0.05,8.14" stroke-dasharray="11.95" stroke-dashoffset="11.95"><animate attributeName="stroke-dashoffset" values="11.95" fill="freeze" begin="934d.click" /><animate id="8" attributeName="stroke-dashoffset" values="11.95;0" dur="0.12s" fill="freeze" begin="7.end" /></path><g><path d="M51.62,28.41c1.05,0.49,2.99,0.57,4.04,0.49c10.98-0.83,23.32-2.93,35.52-3.81c1.75-0.13,2.81,0.24,3.69,0.48" stroke-dasharray="43.58" stroke-dashoffset="43.58"><animate attributeName="stroke-dashoffset" values="43.58" fill="freeze" begin="934d.click" /><animate id="9" attributeName="stroke-dashoffset" values="43.58;0" dur="0.44s" fill="freeze" begin="8.end" /></path><path d="M54,29.94c0.25,1.31,0.52,4.74,0.44,6.83C53.81,52.87,56.5,76,40.96,91.59" stroke-dasharray="64.93" stroke-dashoffset="64.93"><animate attributeName="stroke-dashoffset" values="64.93" fill="freeze" begin="934d.click" /><animate id="10" attributeName="stroke-dashoffset" values="64.93;0" dur="0.49s" fill="freeze" begin="9.end" /></path></g></g><g><g><path d="M58.24,42.13c1.01,0.4,2.86,0.47,3.87,0.4c5.26-0.36,23.09-3.05,28.59-3.27c1.68-0.07,2.69,0.19,3.53,0.39" stroke-dasharray="36.26" stroke-dashoffset="36.26"><animate attributeName="stroke-dashoffset" values="36.26" fill="freeze" begin="934d.click" /><animate id="11" attributeName="stroke-dashoffset" values="36.26;0" dur="0.36s" fill="freeze" begin="10.end" /></path><path d="M66.32,33.63c0.83,0.37,1.33,1.66,1.49,2.4c0.17,0.74,1.2,11.48,1.72,17.42" stroke-dasharray="20.42" stroke-dashoffset="20.42"><animate attributeName="stroke-dashoffset" values="20.42" fill="freeze" begin="934d.click" /><animate id="12" attributeName="stroke-dashoffset" values="20.42;0" dur="0.2s" fill="freeze" begin="11.end" /></path></g><path d="M81.52,31.71c0.83,0.37,1.33,1.66,1.49,2.4c0.17,0.74-1.48,9.76-1.98,16.6" stroke-dasharray="19.64" stroke-dashoffset="19.64"><animate attributeName="stroke-dashoffset" values="19.64" fill="freeze" begin="934d.click" /><animate id="13" attributeName="stroke-dashoffset" values="19.64;0" dur="0.2s" fill="freeze" begin="12.end" /></path><path d="M69.53,52.17c3.22-0.42,8.22-1.17,13.22-1.49" stroke-dasharray="13.31" stroke-dashoffset="13.31"><animate attributeName="stroke-dashoffset" values="13.31" fill="freeze" begin="934d.click" /><animate id="14" attributeName="stroke-dashoffset" values="13.31;0" dur="0.13s" fill="freeze" begin="13.end" /></path></g><g><path d="M63.25,61.91c1.2,0.23,1.35,0.58,3.75,0.23c2.4-0.35,16.89-2.29,18.54-2.64c1.65-0.35,2.98,1.35,2.25,2.56C79,76.75,65.15,87.42,51.79,92.5" stroke-dasharray="74.77" stroke-dashoffset="74.77"><animate attributeName="stroke-dashoffset" values="74.77" fill="freeze" begin="934d.click" /><animate id="15" attributeName="stroke-dashoffset" values="74.77;0" dur="0.56s" fill="freeze" begin="14.end" /></path><path d="M62.19,66.23c3.35,0.62,19.72,17.21,31.39,24.01c1.82,1.06,3.14,1.76,4.83,2.12" stroke-dasharray="44.9" stroke-dashoffset="44.9"><animate attributeName="stroke-dashoffset" values="44.9" fill="freeze" begin="934d.click" /><animate id="16" attributeName="stroke-dashoffset" values="44.9;0" dur="0.45s" fill="freeze" begin="15.end" /></path></g></g></g></g></svg>