<svg xmlns="http://www.w3.org/2000/svg" width="109" height="109" viewBox="0 0 109 109" id="9360"><g fill="none" stroke="#666" stroke-width="9" stroke-linecap="round" stroke-linejoin="round"><g><g><path d="M30.75,14.74c0,0.78,0.05,1.41-0.15,2.35C29.53,22,19.4,38.37,10.72,45.63" /><path d="M32.39,20.96c4.47,2.03,10.18,7.42,12.36,12.54" /><path d="M20.5,40.5c1.5,0,2.18,0.09,2.67,0.06c4.33-0.31,9.33-1.03,14.44-1.25c0.74-0.03,0.9-0.05,2.15-0.05" /><path d="M13.09,54.81c0.65,0.33,2.78,0.4,3.44,0.43c6.22,0.26,17.08-1.99,24.71-2.17c0.81-0.02,2.58-0.13,3.78,0.15" /><path d="M27.95,43.19c1.24,0.78,1.24,2.52,1.24,3.14c0,4.35-0.19,34.42-0.19,38.98" /><path d="M13.89,65.26c4.08,4.85,6.07,10.11,6.9,12.94" /><path d="M41.7,61.05c0.3,0.84,0.46,2.06,0.34,2.76c-0.3,1.81-2.71,5.13-6.12,10.47" /><path d="M12.5,89.88c1.26,0.82,2.77,0.61,4.54,0.2c1.31-0.3,11.35-4.69,24.46-9.58" /></g><g><g><g><path d="M70.71,11.5c0.29,0.4,0.33,0.88,0.26,1.23c-0.4,2.04-3.86,6.92-7.01,9.66" /></g><g><path d="M51.1,24.35c0.82,0.63,1.47,1.79,1.65,2.61c0.98,4.58,3.6,18.06,3.94,22.18" /><path d="M52.67,25.33c9.57-1.13,31.65-2.63,35.17-3.04c1.7-0.2,3.29,1.17,2.92,2.89c-0.83,3.84-2.7,15.19-4.34,22.55" /><path d="M54.91,36.27c8.09-0.52,28.68-2.21,33.88-2.21" /><path d="M56.91,47.42c8.68-0.71,22.89-1.37,30.06-1.58" /></g></g><g p5:partial xmlns:p5="http://kanjivg.tagaini.net"><path d="M52.75,60.79c0.89,0.63,3.78,0.11,4.7,0.04c6.66-0.5,20.35-0.96,30.45-1.61c1.37-0.09,2.62,0.12,3.76,0.66" /><path d="M69.61,60.65c1.29,2.08,1.29,3.33,1.29,5c0,11.67-0.07,11.95-0.07,26.47" /><path d="M53.75,76.08c0.72,0.57,3.08,0.34,3.82,0.25c7.65-0.99,18.87-0.94,27.85-1.95c0.9-0.1,2.87-0.23,4.21,0.26" /><path d="M41.84,93.73c0.7,0.31,4.35,0.62,5.54,0.52c14.23-1.28,36.11-2,44.5-2.19c2.99-0.07,4.61,0.44,6.76,1" /></g></g></g></g><g fill="none" stroke="#000" stroke-width="5" stroke-linecap="round" stroke-linejoin="round"><g><g><path d="M30.75,14.74c0,0.78,0.05,1.41-0.15,2.35C29.53,22,19.4,38.37,10.72,45.63" stroke-dasharray="37.45" stroke-dashoffset="37.45"><animate id="0" attributeName="stroke-dashoffset" values="37.45;0" dur="0.37s" fill="freeze" begin="0s;9360.click" /></path><path d="M32.39,20.96c4.47,2.03,10.18,7.42,12.36,12.54" stroke-dasharray="17.93" stroke-dashoffset="17.93"><animate attributeName="stroke-dashoffset" values="17.93" fill="freeze" begin="9360.click" /><animate id="1" attributeName="stroke-dashoffset" values="17.93;0" dur="0.18s" fill="freeze" begin="0.end" /></path><path d="M20.5,40.5c1.5,0,2.18,0.09,2.67,0.06c4.33-0.31,9.33-1.03,14.44-1.25c0.74-0.03,0.9-0.05,2.15-0.05" stroke-dasharray="19.32" stroke-dashoffset="19.32"><animate attributeName="stroke-dashoffset" values="19.32" fill="freeze" begin="9360.click" /><animate id="2" attributeName="stroke-dashoffset" values="19.32;0" dur="0.19s" fill="freeze" begin="1.end" /></path><path d="M13.09,54.81c0.65,0.33,2.78,0.4,3.44,0.43c6.22,0.26,17.08-1.99,24.71-2.17c0.81-0.02,2.58-0.13,3.78,0.15" stroke-dasharray="32.1" stroke-dashoffset="32.1"><animate attributeName="stroke-dashoffset" values="32.1" fill="freeze" begin="9360.click" /><animate id="3" attributeName="stroke-dashoffset" values="32.1;0" dur="0.32s" fill="freeze" begin="2.end" /></path><path d="M27.95,43.19c1.24,0.78,1.24,2.52,1.24,3.14c0,4.35-0.19,34.42-0.19,38.98" stroke-dasharray="42.51" stroke-dashoffset="42.51"><animate attributeName="stroke-dashoffset" values="42.51" fill="freeze" begin="9360.click" /><animate id="4" attributeName="stroke-dashoffset" values="42.51;0" dur="0.43s" fill="freeze" begin="3.end" /></path><path d="M13.89,65.26c4.08,4.85,6.07,10.11,6.9,12.94" stroke-dasharray="14.77" stroke-dashoffset="14.77"><animate attributeName="stroke-dashoffset" values="14.77" fill="freeze" begin="9360.click" /><animate id="5" attributeName="stroke-dashoffset" values="14.77;0" dur="0.15s" fill="freeze" begin="4.end" /></path><path d="M41.7,61.05c0.3,0.84,0.46,2.06,0.34,2.76c-0.3,1.81-2.71,5.13-6.12,10.47" stroke-dasharray="14.97" stroke-dashoffset="14.97"><animate attributeName="stroke-dashoffset" values="14.97" fill="freeze" begin="9360.click" /><animate id="6" attributeName="stroke-dashoffset" values="14.97;0" dur="0.15s" fill="freeze" begin="5.end" /></path><path d="M12.5,89.88c1.26,0.82,2.77,0.61,4.54,0.2c1.31-0.3,11.35-4.69,24.46-9.58" stroke-dasharray="30.95" stroke-dashoffset="30.95"><animate attributeName="stroke-dashoffset" values="30.95" fill="freeze" begin="9360.click" /><animate id="7" attributeName="stroke-dashoffset" values="30.95;0" dur="0.31s" fill="freeze" begin="6.end" /></path></g><g><g><g><path d="M70.71,11.5c0.29,0.4,0.33,0.88,0.26,1.23c-0.4,2.04-3.86,6.92-7.01,9.66" stroke-dasharray="13.35" stroke-dashoffset="13.35"><animate attributeName="stroke-dashoffset" values="13.35" fill="freeze" begin="9360.click" /><animate id="8" attributeName="stroke-dashoffset" values="13.35;0" dur="0.13s" fill="freeze" begin="7.end" /></path></g><g><path d="M51.1,24.35c0.82,0.63,1.47,1.79,1.65,2.61c0.98,4.58,3.6,18.06,3.94,22.18" stroke-dasharray="25.67" stroke-dashoffset="25.67"><animate attributeName="stroke-dashoffset" values="25.67" fill="freeze" begin="9360.click" /><animate id="9" attributeName="stroke-dashoffset" values="25.67;0" dur="0.26s" fill="freeze" begin="8.end" /></path><path d="M52.67,25.33c9.57-1.13,31.65-2.63,35.17-3.04c1.7-0.2,3.29,1.17,2.92,2.89c-0.83,3.84-2.7,15.19-4.34,22.55" stroke-dasharray="63.07" stroke-dashoffset="63.07"><animate attributeName="stroke-dashoffset" values="63.07" fill="freeze" begin="9360.click" /><animate id="10" attributeName="stroke-dashoffset" values="63.07;0" dur="0.47s" fill="freeze" begin="9.end" /></path><path d="M54.91,36.27c8.09-0.52,28.68-2.21,33.88-2.21" stroke-dasharray="33.95" stroke-dashoffset="33.95"><animate attributeName="stroke-dashoffset" values="33.95" fill="freeze" begin="9360.click" /><animate id="11" attributeName="stroke-dashoffset" values="33.95;0" dur="0.34s" fill="freeze" begin="10.end" /></path><path d="M56.91,47.42c8.68-0.71,22.89-1.37,30.06-1.58" stroke-dasharray="30.1" stroke-dashoffset="30.1"><animate attributeName="stroke-dashoffset" values="30.1" fill="freeze" begin="9360.click" /><animate id="12" attributeName="stroke-dashoffset" values="30.1;0" dur="0.3s" fill="freeze" begin="11.end" /></path></g></g><g p5:partial xmlns:p5="http://kanjivg.tagaini.net"><path d="M52.75,60.79c0.89,0.63,3.78,0.11,4.7,0.04c6.66-0.5,20.35-0.96,30.45-1.61c1.37-0.09,2.62,0.12,3.76,0.66" stroke-dasharray="39.12" stroke-dashoffset="39.12"><animate attributeName="stroke-dashoffset" values="39.12" fill="freeze" begin="9360.click" /><animate id="13" attributeName="stroke-dashoffset" values="39.12;0" dur="0.39s" fill="freeze" begin="12.end" /></path><path d="M69.61,60.65c1.29,2.08,1.29,3.33,1.29,5c0,11.67-0.07,11.95-0.07,26.47" stroke-dasharray="31.73" stroke-dashoffset="31.73"><animate attributeName="stroke-dashoffset" values="31.73" fill="freeze" begin="9360.click" /><animate id="14" attributeName="stroke-dashoffset" values="31.73;0" dur="0.32s" fill="freeze" begin="13.end" /></path><path d="M53.75,76.08c0.72,0.57,3.08,0.34,3.82,0.25c7.65-0.99,18.87-0.94,27.85-1.95c0.9-0.1,2.87-0.23,4.21,0.26" stroke-dasharray="36.06" stroke-dashoffset="36.06"><animate attributeName="stroke-dashoffset" values="36.06" fill="freeze" begin="9360.click" /><animate id="15" attributeName="stroke-dashoffset" values="36.06;0" dur="0.36s" fill="freeze" begin="14.end" /></path><path d="M41.84,93.73c0.7,0.31,4.35,0.62,5.54,0.52c14.23-1.28,36.11-2,44.5-2.19c2.99-0.07,4.61,0.44,6.76,1" stroke-dasharray="57.01" stroke-dashoffset="57.01"><animate attributeName="stroke-dashoffset" values="57.01" fill="freeze" begin="9360.click" /><animate id="16" attributeName="stroke-dashoffset" values="57.01;0" dur="0.57s" fill="freeze" begin="15.end" /></path></g></g></g></g></svg>