<svg xmlns="http://www.w3.org/2000/svg" width="109" height="109" viewBox="0 0 109 109" id="9394"><g fill="none" stroke="#666" stroke-width="9" stroke-linecap="round" stroke-linejoin="round"><g><g><path d="M29.25,12.74c0,0.73,0.05,1.31-0.15,2.18c-1.05,4.55-11.06,19.72-19.63,26.45" /><path d="M31.39,20.46c4.47,2.03,10.18,7.42,12.36,12.54" /><path d="M18,39.36c1.71,0,2.49,0.06,3.05,0.04c4.95-0.21,10.67-1.05,16.5-1.21c0.84-0.02,1.02-0.04,2.45-0.04" /><path d="M12.09,54.58c0.63,0.24,2.71,0.36,3.36,0.32c5.82-0.37,16.68-1.87,24.13-2c0.79-0.01,2.52-0.1,3.7,0.11" /><path d="M26.45,41.19c1.24,0.78,1.24,2.52,1.24,3.14c0,4.35,0.62,35.63,0.31,39.98" /><path d="M13.39,64.76c4.08,4.85,6.07,10.11,6.9,12.94" /><path d="M40.7,60.05c0.3,0.84,0.46,2.06,0.34,2.76c-0.3,1.81-2.71,5.13-6.12,10.47" /><path d="M12,89.32c1.27,0.9,2.8,0.67,4.58,0.22C17.9,89.21,28.02,84.38,41.25,79" /></g><g><g><path d="M68.44,12.16c1.21,0.39,2.93,2.32,2.9,3.45c-0.09,3.57-0.09,6.37-0.09,9.62" /><g><path d="M52.97,26.82c0,3.19-2.96,11.95-3.85,14.07" /><path d="M54.16,28.83c5.24-0.91,31.21-2.94,35.47-2.99c7.73-0.09,1.41,6.56-0.25,8.5" /></g></g><g><g><path d="M64.35,36.32c0.04,0.4,0.18,1.08-0.08,1.59c-1.96,4.01-6.11,9.58-13.59,15.22" /><path d="M75.92,36.08c5.99,3.64,13.29,10.6,15.35,14.33" /></g><g><path d="M71.53,45c0.07,0.61,0.3,1.64-0.14,2.45c-3.9,7.17-11.88,15.65-25.55,24.22" /><path d="M70.16,49.65c5.78,6.23,16.54,15.12,21.83,18.43c1.31,0.82,2.83,1.36,4.07,1.63" /><g><path d="M54.54,71.96c0.35,0.38,0.7,1.26,0.85,1.74c1.2,3.76,2.24,14.76,3.06,21.51" /><path d="M56.16,74.09c9.45-1.73,20.92-2.17,26.71-2.92c1.98-0.26,3.18,1.72,2.88,2.84c-1.44,5.37-3.51,10.74-4.84,17.33" /><path d="M59.38,92.73c7.61-0.52,16.18-0.57,24.92-1.38" /></g></g></g></g></g></g><g fill="none" stroke="#000" stroke-width="5" stroke-linecap="round" stroke-linejoin="round"><g><g><path d="M29.25,12.74c0,0.73,0.05,1.31-0.15,2.18c-1.05,4.55-11.06,19.72-19.63,26.45" stroke-dasharray="35.439" stroke-dashoffset="35.439"><animate attributeName="stroke-dashoffset" values="35.439;35.439;0" dur="0.354s" fill="freeze" begin="0s;9394.click" /></path><path d="M31.39,20.46c4.47,2.03,10.18,7.42,12.36,12.54" stroke-dasharray="17.934" stroke-dashoffset="17.934"><animate attributeName="stroke-dashoffset" values="17.934" fill="freeze" begin="9394.click" /><animate attributeName="stroke-dashoffset" values="17.934;17.934;0" keyTimes="0;0.664;1" dur="0.533s" fill="freeze" begin="0s;9394.click" /></path><path d="M18,39.36c1.71,0,2.49,0.06,3.05,0.04c4.95-0.21,10.67-1.05,16.5-1.21c0.84-0.02,1.02-0.04,2.45-0.04" stroke-dasharray="22.049" stroke-dashoffset="22.049"><animate attributeName="stroke-dashoffset" values="22.049" fill="freeze" begin="9394.click" /><animate attributeName="stroke-dashoffset" values="22.049;22.049;0" keyTimes="0;0.708;1" dur="0.753s" fill="freeze" begin="0s;9394.click" /></path><path d="M12.09,54.58c0.63,0.24,2.71,0.36,3.36,0.32c5.82-0.37,16.68-1.87,24.13-2c0.79-0.01,2.52-0.1,3.7,0.11" stroke-dasharray="31.313" stroke-dashoffset="31.313"><animate attributeName="stroke-dashoffset" values="31.313" fill="freeze" begin="9394.click" /><animate attributeName="stroke-dashoffset" values="31.313;31.313;0" keyTimes="0;0.706;1" dur="1.066s" fill="freeze" begin="0s;9394.click" /></path><path d="M26.45,41.19c1.24,0.78,1.24,2.52,1.24,3.14c0,4.35,0.62,35.63,0.31,39.98" stroke-dasharray="43.515" stroke-dashoffset="43.515"><animate attributeName="stroke-dashoffset" values="43.515" fill="freeze" begin="9394.click" /><animate attributeName="stroke-dashoffset" values="43.515;43.515;0" keyTimes="0;0.71;1" dur="1.501s" fill="freeze" begin="0s;9394.click" /></path><path d="M13.39,64.76c4.08,4.85,6.07,10.11,6.9,12.94" stroke-dasharray="14.767" stroke-dashoffset="14.767"><animate attributeName="stroke-dashoffset" values="14.767" fill="freeze" begin="9394.click" /><animate attributeName="stroke-dashoffset" values="14.767;14.767;0" keyTimes="0;0.91;1" dur="1.649s" fill="freeze" begin="0s;9394.click" /></path><path d="M40.7,60.05c0.3,0.84,0.46,2.06,0.34,2.76c-0.3,1.81-2.71,5.13-6.12,10.47" stroke-dasharray="14.975" stroke-dashoffset="14.975"><animate attributeName="stroke-dashoffset" values="14.975" fill="freeze" begin="9394.click" /><animate attributeName="stroke-dashoffset" values="14.975;14.975;0" keyTimes="0;0.917;1" dur="1.799s" fill="freeze" begin="0s;9394.click" /></path><path d="M12,89.32c1.27,0.9,2.8,0.67,4.58,0.22C17.9,89.21,28.02,84.38,41.25,79" stroke-dasharray="31.575" stroke-dashoffset="31.575"><animate attributeName="stroke-dashoffset" values="31.575" fill="freeze" begin="9394.click" /><animate attributeName="stroke-dashoffset" values="31.575;31.575;0" keyTimes="0;0.851;1" dur="2.115s" fill="freeze" begin="0s;9394.click" /></path></g><g><g><path d="M68.44,12.16c1.21,0.39,2.93,2.32,2.9,3.45c-0.09,3.57-0.09,6.37-0.09,9.62" stroke-dasharray="14.322" stroke-dashoffset="14.322"><animate attributeName="stroke-dashoffset" values="14.322" fill="freeze" begin="9394.click" /><animate attributeName="stroke-dashoffset" values="14.322;14.322;0" keyTimes="0;0.937;1" dur="2.258s" fill="freeze" begin="0s;9394.click" /></path><g><path d="M52.97,26.82c0,3.19-2.96,11.95-3.85,14.07" stroke-dasharray="14.634" stroke-dashoffset="14.634"><animate attributeName="stroke-dashoffset" values="14.634" fill="freeze" begin="9394.click" /><animate attributeName="stroke-dashoffset" values="14.634;14.634;0" keyTimes="0;0.939;1" dur="2.404s" fill="freeze" begin="0s;9394.click" /></path><path d="M54.16,28.83c5.24-0.91,31.21-2.94,35.47-2.99c7.73-0.09,1.41,6.56-0.25,8.5" stroke-dasharray="48.141" stroke-dashoffset="48.141"><animate attributeName="stroke-dashoffset" values="48.141" fill="freeze" begin="9394.click" /><animate attributeName="stroke-dashoffset" values="48.141;48.141;0" keyTimes="0;0.833;1" dur="2.885s" fill="freeze" begin="0s;9394.click" /></path></g></g><g><g><path d="M64.35,36.32c0.04,0.4,0.18,1.08-0.08,1.59c-1.96,4.01-6.11,9.58-13.59,15.22" stroke-dasharray="22.198" stroke-dashoffset="22.198"><animate attributeName="stroke-dashoffset" values="22.198" fill="freeze" begin="9394.click" /><animate attributeName="stroke-dashoffset" values="22.198;22.198;0" keyTimes="0;0.929;1" dur="3.107s" fill="freeze" begin="0s;9394.click" /></path><path d="M75.92,36.08c5.99,3.64,13.29,10.6,15.35,14.33" stroke-dasharray="21.152" stroke-dashoffset="21.152"><animate attributeName="stroke-dashoffset" values="21.152" fill="freeze" begin="9394.click" /><animate attributeName="stroke-dashoffset" values="21.152;21.152;0" keyTimes="0;0.936;1" dur="3.319s" fill="freeze" begin="0s;9394.click" /></path></g><g><path d="M71.53,45c0.07,0.61,0.3,1.64-0.14,2.45c-3.9,7.17-11.88,15.65-25.55,24.22" stroke-dasharray="38.064" stroke-dashoffset="38.064"><animate attributeName="stroke-dashoffset" values="38.064" fill="freeze" begin="9394.click" /><animate attributeName="stroke-dashoffset" values="38.064;38.064;0" keyTimes="0;0.897;1" dur="3.7s" fill="freeze" begin="0s;9394.click" /></path><path d="M70.16,49.65c5.78,6.23,16.54,15.12,21.83,18.43c1.31,0.82,2.83,1.36,4.07,1.63" stroke-dasharray="33.029" stroke-dashoffset="33.029"><animate attributeName="stroke-dashoffset" values="33.029" fill="freeze" begin="9394.click" /><animate attributeName="stroke-dashoffset" values="33.029;33.029;0" keyTimes="0;0.918;1" dur="4.03s" fill="freeze" begin="0s;9394.click" /></path><g><path d="M54.54,71.96c0.35,0.38,0.7,1.26,0.85,1.74c1.2,3.76,2.24,14.76,3.06,21.51" stroke-dasharray="23.693" stroke-dashoffset="23.693"><animate attributeName="stroke-dashoffset" values="23.693" fill="freeze" begin="9394.click" /><animate attributeName="stroke-dashoffset" values="23.693;23.693;0" keyTimes="0;0.944;1" dur="4.267s" fill="freeze" begin="0s;9394.click" /></path><path d="M56.16,74.09c9.45-1.73,20.92-2.17,26.71-2.92c1.98-0.26,3.18,1.72,2.88,2.84c-1.44,5.37-3.51,10.74-4.84,17.33" stroke-dasharray="49.553" stroke-dashoffset="49.553"><animate attributeName="stroke-dashoffset" values="49.553" fill="freeze" begin="9394.click" /><animate attributeName="stroke-dashoffset" values="49.553;49.553;0" keyTimes="0;0.896;1" dur="4.763s" fill="freeze" begin="0s;9394.click" /></path><path d="M59.38,92.73c7.61-0.52,16.18-0.57,24.92-1.38" stroke-dasharray="24.962" stroke-dashoffset="24.962"><animate attributeName="stroke-dashoffset" values="24.962" fill="freeze" begin="9394.click" /><animate attributeName="stroke-dashoffset" values="24.962;24.962;0" keyTimes="0;0.95;1" dur="5.013s" fill="freeze" begin="0s;9394.click" /></path></g></g></g></g></g></g></svg>