<svg xmlns="http://www.w3.org/2000/svg" width="109" height="109" viewBox="0 0 109 109" id="93ac"><g fill="none" stroke="#666" stroke-width="6" stroke-linecap="round" stroke-linejoin="round"><g><g><path d="M29.75,13.74c0,0.78,0.05,1.41-0.14,2.35C28.64,21,19.39,37.37,11.47,44.63" /><path d="M32.39,20.71c4.65,2.15,10.6,7.87,12.86,13.29" /><path d="M19.5,41.11c1.69,0,2.46,0.1,3.01,0.06c4.9-0.35,10.55-1.73,16.31-1.98c0.83-0.04,1.01-0.06,2.43-0.06" /><path d="M13.59,56.25c0.65,0.44,2.78,0.64,3.44,0.57c5.96-0.66,15.72-2.57,23.71-3.56c0.8-0.1,2.58-0.18,3.78,0.2" /><path d="M28.45,43.19c1.24,0.78,1.24,2.52,1.24,3.14c0,4.35,0.62,35.13,0.31,39.48" /><path d="M13.89,65.26c4.08,4.85,6.57,11.11,7.4,13.94" /><path d="M41.7,61.05c0.3,0.84,0.46,2.06,0.34,2.76c-0.3,1.81-2.71,5.13-6.12,10.47" /><path d="M12.5,90.41c1.25,0.77,2.75,0.58,4.5,0.19c1.29-0.29,11.25-4.45,24.25-9.1" /></g><g><g><g><path d="M69.37,11.73c0.65,0.46,1.72,2.26,1.72,3.18c0,3.41-0.21,6-0.08,8.88" /><path d="M49.89,25.48c1.06,0.04,3.47,0.28,4.5,0.22c8.31-0.47,24.2-2.38,35.49-2.5c1.74-0.02,2.63,0.02,3.93,0.28" /></g><g><path d="M57.8,33.89c0.38,0.3,0.76,0.54,0.93,0.91c1.31,2.94,1.49,10.03,2.38,15.31" /><path d="M60.15,35.88c8.1-1.13,18.9-2.72,23.32-3.11c1.61-0.14,2.58,1.75,2.35,2.58c-0.96,3.43-1.07,4.89-1.8,9.48" /><path d="M61.29,47.54c5.19-0.44,17.22-1.61,24.34-2.28" /></g></g><g><g><path d="M50.25,57.69c0.5,1.15,1.2,2.52,1.36,4.59c0.37,4.82,0.93,25.89,1.45,33.24" /><path d="M51.58,58.94c6.85-0.46,38.86-2.99,40.15-2.97c2.02,0.03,4.26,2.27,4.33,5.62C96.25,70.5,96,81.5,94.25,90.66c-1.18,6.15-5.4,1.61-7.23,0" /></g><g><path d="M61.46,67c0.27,0.29,0.54,0.52,0.65,0.88c0.92,2.83,2.02,9.13,2.65,14.21" /><path d="M62.61,68.42c5.89-0.67,14.33-1.95,17.42-2.48c1.25-0.21,2.47,1.16,2.35,2.52c-0.31,3.4-1.46,6.38-2.46,10.94" /><path d="M64.88,80.11c3.64-0.42,11.12-0.61,17.67-0.79" /></g></g></g></g></g><g fill="none" stroke="#000" stroke-width="3" stroke-linecap="round" stroke-linejoin="round"><path d="M29.75,13.74c0,0.78,0.05,1.41-0.14,2.35C28.64,21,19.39,37.37,11.47,44.63" stroke-dasharray="36.46" stroke-dashoffset="36.46"><animate attributeName="stroke-dashoffset" values="36.46;36.46;0" dur="0.365s" fill="freeze" begin="0s;93ac.click" /></path><path d="M32.39,20.71c4.65,2.15,10.6,7.87,12.86,13.29" stroke-dasharray="18.836" stroke-dashoffset="18.836"><animate attributeName="stroke-dashoffset" values="18.836" fill="freeze" begin="93ac.click" /><animate attributeName="stroke-dashoffset" values="18.836;18.836;0" keyTimes="0;0.66;1" dur="0.553s" fill="freeze" begin="0s;93ac.click" /></path><path d="M19.5,41.11c1.69,0,2.46,0.1,3.01,0.06c4.9-0.35,10.55-1.73,16.31-1.98c0.83-0.04,1.01-0.06,2.43-0.06" stroke-dasharray="21.881" stroke-dashoffset="21.881"><animate attributeName="stroke-dashoffset" values="21.881" fill="freeze" begin="93ac.click" /><animate attributeName="stroke-dashoffset" values="21.881;21.881;0" keyTimes="0;0.716;1" dur="0.772s" fill="freeze" begin="0s;93ac.click" /></path><path d="M13.59,56.25c0.65,0.44,2.78,0.64,3.44,0.57c5.96-0.66,15.72-2.57,23.71-3.56c0.8-0.1,2.58-0.18,3.78,0.2" stroke-dasharray="31.309" stroke-dashoffset="31.309"><animate attributeName="stroke-dashoffset" values="31.309" fill="freeze" begin="93ac.click" /><animate attributeName="stroke-dashoffset" values="31.309;31.309;0" keyTimes="0;0.712;1" dur="1.085s" fill="freeze" begin="0s;93ac.click" /></path><path d="M28.45,43.19c1.24,0.78,1.24,2.52,1.24,3.14c0,4.35,0.62,35.13,0.31,39.48" stroke-dasharray="43.015" stroke-dashoffset="43.015"><animate attributeName="stroke-dashoffset" values="43.015" fill="freeze" begin="93ac.click" /><animate attributeName="stroke-dashoffset" values="43.015;43.015;0" keyTimes="0;0.716;1" dur="1.515s" fill="freeze" begin="0s;93ac.click" /></path><path d="M13.89,65.26c4.08,4.85,6.57,11.11,7.4,13.94" stroke-dasharray="15.88" stroke-dashoffset="15.88"><animate attributeName="stroke-dashoffset" values="15.88" fill="freeze" begin="93ac.click" /><animate attributeName="stroke-dashoffset" values="15.88;15.88;0" keyTimes="0;0.905;1" dur="1.674s" fill="freeze" begin="0s;93ac.click" /></path><path d="M41.7,61.05c0.3,0.84,0.46,2.06,0.34,2.76c-0.3,1.81-2.71,5.13-6.12,10.47" stroke-dasharray="14.975" stroke-dashoffset="14.975"><animate attributeName="stroke-dashoffset" values="14.975" fill="freeze" begin="93ac.click" /><animate attributeName="stroke-dashoffset" values="14.975;14.975;0" keyTimes="0;0.918;1" dur="1.824s" fill="freeze" begin="0s;93ac.click" /></path><path d="M12.5,90.41c1.25,0.77,2.75,0.58,4.5,0.19c1.29-0.29,11.25-4.45,24.25-9.1" stroke-dasharray="30.528" stroke-dashoffset="30.528"><animate attributeName="stroke-dashoffset" values="30.528" fill="freeze" begin="93ac.click" /><animate attributeName="stroke-dashoffset" values="30.528;30.528;0" keyTimes="0;0.857;1" dur="2.129s" fill="freeze" begin="0s;93ac.click" /></path><path d="M69.37,11.73c0.65,0.46,1.72,2.26,1.72,3.18c0,3.41-0.21,6-0.08,8.88" stroke-dasharray="12.575" stroke-dashoffset="12.575"><animate attributeName="stroke-dashoffset" values="12.575" fill="freeze" begin="93ac.click" /><animate attributeName="stroke-dashoffset" values="12.575;12.575;0" keyTimes="0;0.944;1" dur="2.255s" fill="freeze" begin="0s;93ac.click" /></path><path d="M49.89,25.48c1.06,0.04,3.47,0.28,4.5,0.22c8.31-0.47,24.2-2.38,35.49-2.5c1.74-0.02,2.63,0.02,3.93,0.28" stroke-dasharray="44.042" stroke-dashoffset="44.042"><animate attributeName="stroke-dashoffset" values="44.042" fill="freeze" begin="93ac.click" /><animate attributeName="stroke-dashoffset" values="44.042;44.042;0" keyTimes="0;0.837;1" dur="2.695s" fill="freeze" begin="0s;93ac.click" /></path><path d="M57.8,33.89c0.38,0.3,0.76,0.54,0.93,0.91c1.31,2.94,1.49,10.03,2.38,15.31" stroke-dasharray="16.843" stroke-dashoffset="16.843"><animate attributeName="stroke-dashoffset" values="16.843" fill="freeze" begin="93ac.click" /><animate attributeName="stroke-dashoffset" values="16.843;16.843;0" keyTimes="0;0.941;1" dur="2.863s" fill="freeze" begin="0s;93ac.click" /></path><path d="M60.15,35.88c8.1-1.13,18.9-2.72,23.32-3.11c1.61-0.14,2.58,1.75,2.35,2.58c-0.96,3.43-1.07,4.89-1.8,9.48" stroke-dasharray="37.139" stroke-dashoffset="37.139"><animate attributeName="stroke-dashoffset" values="37.139" fill="freeze" begin="93ac.click" /><animate attributeName="stroke-dashoffset" values="37.139;37.139;0" keyTimes="0;0.885;1" dur="3.234s" fill="freeze" begin="0s;93ac.click" /></path><path d="M61.29,47.54c5.19-0.44,17.22-1.61,24.34-2.28" stroke-dasharray="24.448" stroke-dashoffset="24.448"><animate attributeName="stroke-dashoffset" values="24.448" fill="freeze" begin="93ac.click" /><animate attributeName="stroke-dashoffset" values="24.448;24.448;0" keyTimes="0;0.93;1" dur="3.478s" fill="freeze" begin="0s;93ac.click" /></path><path d="M50.25,57.69c0.5,1.15,1.2,2.52,1.36,4.59c0.37,4.82,0.93,25.89,1.45,33.24" stroke-dasharray="38.09" stroke-dashoffset="38.09"><animate attributeName="stroke-dashoffset" values="38.09" fill="freeze" begin="93ac.click" /><animate attributeName="stroke-dashoffset" values="38.09;38.09;0" keyTimes="0;0.901;1" dur="3.859s" fill="freeze" begin="0s;93ac.click" /></path><path d="M51.58,58.94c6.85-0.46,38.86-2.99,40.15-2.97c2.02,0.03,4.26,2.27,4.33,5.62C96.25,70.5,96,81.5,94.25,90.66c-1.18,6.15-5.4,1.61-7.23,0" stroke-dasharray="87.373" stroke-dashoffset="87.373"><animate attributeName="stroke-dashoffset" values="87.373" fill="freeze" begin="93ac.click" /><animate attributeName="stroke-dashoffset" values="87.373;87.373;0" keyTimes="0;0.855;1" dur="4.516s" fill="freeze" begin="0s;93ac.click" /></path><path d="M61.46,67c0.27,0.29,0.54,0.52,0.65,0.88c0.92,2.83,2.02,9.13,2.65,14.21" stroke-dasharray="15.576" stroke-dashoffset="15.576"><animate attributeName="stroke-dashoffset" values="15.576" fill="freeze" begin="93ac.click" /><animate attributeName="stroke-dashoffset" values="15.576;15.576;0" keyTimes="0;0.967;1" dur="4.672s" fill="freeze" begin="0s;93ac.click" /></path><path d="M62.61,68.42c5.89-0.67,14.33-1.95,17.42-2.48c1.25-0.21,2.47,1.16,2.35,2.52c-0.31,3.4-1.46,6.38-2.46,10.94" stroke-dasharray="32.737" stroke-dashoffset="32.737"><animate attributeName="stroke-dashoffset" values="32.737" fill="freeze" begin="93ac.click" /><animate attributeName="stroke-dashoffset" values="32.737;32.737;0" keyTimes="0;0.935;1" dur="4.999s" fill="freeze" begin="0s;93ac.click" /></path><path d="M64.88,80.11c3.64-0.42,11.12-0.61,17.67-0.79" stroke-dasharray="17.692" stroke-dashoffset="17.692"><animate attributeName="stroke-dashoffset" values="17.692" fill="freeze" begin="93ac.click" /><animate attributeName="stroke-dashoffset" values="17.692;17.692;0" keyTimes="0;0.966;1" dur="5.176s" fill="freeze" begin="0s;93ac.click" /></path></g></svg>