<svg xmlns="http://www.w3.org/2000/svg" viewBox="0 0 109 109" id="9414"><g fill="none" stroke="#666" stroke-width="6" stroke-linecap="round" stroke-linejoin="round"><g><g><path d="M29.25,15.24c0,0.73,0.05,1.32-0.16,2.2c-1.12,4.59-11.76,19.89-20.87,26.68" /><path d="M30.39,20.46c4.47,2.03,10.18,7.42,12.36,12.54" /><path d="M17.5,40.62c1.71,0,2.49,0.1,3.05,0.06c4.95-0.35,10.67-1.75,16.5-2c0.84-0.04,1.02-0.06,2.45-0.06" /><path d="M11.59,55.31c0.59,0.33,2.56,0.48,3.17,0.43C20.25,55.25,33,53,39.54,52.58c0.74-0.05,2.38-0.13,3.49,0.15" /><path d="M25.95,40.69c1.24,0.78,1.24,2.52,1.24,3.14c0,4.35,0.62,35.63,0.31,39.98" /><path d="M12.64,64.76c3.63,5.6,5.41,11.67,6.15,14.94" /><path d="M39.7,58.55c0.3,0.84,0.46,2.06,0.34,2.76c-0.3,1.81-2.71,5.13-6.12,10.47" /><path d="M11.5,89.75c1.25,1,2.75,0.75,4.5,0.25c1.29-0.37,11.25-5.75,24.25-11.75" /></g><g><g><g><path d="M45.39,14.54c1.38,0.43,3.89,0.53,5.27,0.43c7.73-0.58,31.42-2.23,39.49-2.39c2.29-0.05,3.67-0.28,4.81-0.06" /><path d="M45.75,25.15c0.48,0.81,1.08,1.46,1.18,2.49c0.25,2.54,1.66,7.18,1.9,11.24" /><path d="M46.33,26.04c9.84-1.3,39.91-2.28,44.98-2.72c1.86-0.16,2.71,1.58,2.71,2.56c0,2.64-1,6.33-2.12,10.69" /><path d="M59.91,16.76c0.65,0.5,1.17,2.21,1.17,3.23c0,3.52,0.3,12.77,0.3,16.77" /><path d="M76.52,15.67c0.51,0.39,1.05,1.82,0.72,3.6C76.5,23.25,76.25,33,76.19,35.7" /><path d="M49.35,37.63c3.57-0.16,37.92-1.77,42.59-1.75" /></g></g><g><g><path d="M51.78,47.39c0.44,0.92,0.65,1.39,1.16,2.46c0.72,1.54,1.93,15.83,2.62,17.21" /><path d="M52.43,48.34c2.47-0.15,32.65-2.48,34.88-2.11c0.89,0.15,1.74,1.29,1.4,2.76c-0.64,2.76-1.31,11.12-2.47,16.06" /><path d="M54.41,56.61c3.34,0,28.88-1.58,32.66-1.58" /><path d="M55.52,65.37c4.94,0,27.77-1.84,30.85-1.84" /></g><g><path d="M47.55,77.43c1.44,0.42,4.09,0.54,5.52,0.42c12.45-1.01,28.83-3.18,40.54-3.15c2.4,0.01,3.84,0.2,5.04,0.42" /><path d="M70.04,64.69c0.32,0.35,0.99,2.62,1.06,3.32c0.06,0.7-0.04,28.1-0.1,32.48" /></g></g></g></g></g><g fill="none" stroke="#000" stroke-width="3" stroke-linecap="round" stroke-linejoin="round"><path d="M29.25,15.24c0,0.73,0.05,1.32-0.16,2.2c-1.12,4.59-11.76,19.89-20.87,26.68" stroke-dasharray="36.413" stroke-dashoffset="36.413"><animate attributeName="stroke-dashoffset" values="36.413;36.413;0" dur="0.364s" fill="freeze" begin="0s;9414.click" /></path><path d="M30.39,20.46c4.47,2.03,10.18,7.42,12.36,12.54" stroke-dasharray="17.934" stroke-dashoffset="17.934"><animate attributeName="stroke-dashoffset" values="17.934" fill="freeze" begin="9414.click" /><animate attributeName="stroke-dashoffset" values="17.934;17.934;0" keyTimes="0;0.67;1" dur="0.543s" fill="freeze" begin="0s;9414.click" /></path><path d="M17.5,40.62c1.71,0,2.49,0.1,3.05,0.06c4.95-0.35,10.67-1.75,16.5-2c0.84-0.04,1.02-0.06,2.45-0.06" stroke-dasharray="22.132" stroke-dashoffset="22.132"><animate attributeName="stroke-dashoffset" values="22.132" fill="freeze" begin="9414.click" /><animate attributeName="stroke-dashoffset" values="22.132;22.132;0" keyTimes="0;0.711;1" dur="0.764s" fill="freeze" begin="0s;9414.click" /></path><path d="M11.59,55.31c0.59,0.33,2.56,0.48,3.17,0.43C20.25,55.25,33,53,39.54,52.58c0.74-0.05,2.38-0.13,3.49,0.15" stroke-dasharray="31.713" stroke-dashoffset="31.713"><animate attributeName="stroke-dashoffset" values="31.713" fill="freeze" begin="9414.click" /><animate attributeName="stroke-dashoffset" values="31.713;31.713;0" keyTimes="0;0.707;1" dur="1.081s" fill="freeze" begin="0s;9414.click" /></path><path d="M25.95,40.69c1.24,0.78,1.24,2.52,1.24,3.14c0,4.35,0.62,35.63,0.31,39.98" stroke-dasharray="43.515" stroke-dashoffset="43.515"><animate attributeName="stroke-dashoffset" values="43.515" fill="freeze" begin="9414.click" /><animate attributeName="stroke-dashoffset" values="43.515;43.515;0" keyTimes="0;0.713;1" dur="1.516s" fill="freeze" begin="0s;9414.click" /></path><path d="M12.64,64.76c3.63,5.6,5.41,11.67,6.15,14.94" stroke-dasharray="16.237" stroke-dashoffset="16.237"><animate attributeName="stroke-dashoffset" values="16.237" fill="freeze" begin="9414.click" /><animate attributeName="stroke-dashoffset" values="16.237;16.237;0" keyTimes="0;0.903;1" dur="1.678s" fill="freeze" begin="0s;9414.click" /></path><path d="M39.7,58.55c0.3,0.84,0.46,2.06,0.34,2.76c-0.3,1.81-2.71,5.13-6.12,10.47" stroke-dasharray="14.975" stroke-dashoffset="14.975"><animate attributeName="stroke-dashoffset" values="14.975" fill="freeze" begin="9414.click" /><animate attributeName="stroke-dashoffset" values="14.975;14.975;0" keyTimes="0;0.918;1" dur="1.828s" fill="freeze" begin="0s;9414.click" /></path><path d="M11.5,89.75c1.25,1,2.75,0.75,4.5,0.25c1.29-0.37,11.25-5.75,24.25-11.75" stroke-dasharray="31.654" stroke-dashoffset="31.654"><animate attributeName="stroke-dashoffset" values="31.654" fill="freeze" begin="9414.click" /><animate attributeName="stroke-dashoffset" values="31.654;31.654;0" keyTimes="0;0.852;1" dur="2.145s" fill="freeze" begin="0s;9414.click" /></path><path d="M45.39,14.54c1.38,0.43,3.89,0.53,5.27,0.43c7.73-0.58,31.42-2.23,39.49-2.39c2.29-0.05,3.67-0.28,4.81-0.06" stroke-dasharray="49.695" stroke-dashoffset="49.695"><animate attributeName="stroke-dashoffset" values="49.695" fill="freeze" begin="9414.click" /><animate attributeName="stroke-dashoffset" values="49.695;49.695;0" keyTimes="0;0.812;1" dur="2.642s" fill="freeze" begin="0s;9414.click" /></path><path d="M45.75,25.15c0.48,0.81,1.08,1.46,1.18,2.49c0.25,2.54,1.66,7.18,1.9,11.24" stroke-dasharray="14.196" stroke-dashoffset="14.196"><animate attributeName="stroke-dashoffset" values="14.196" fill="freeze" begin="9414.click" /><animate attributeName="stroke-dashoffset" values="14.196;14.196;0" keyTimes="0;0.949;1" dur="2.784s" fill="freeze" begin="0s;9414.click" /></path><path d="M46.33,26.04c9.84-1.3,39.91-2.28,44.98-2.72c1.86-0.16,2.71,1.58,2.71,2.56c0,2.64-1,6.33-2.12,10.69" stroke-dasharray="60.173" stroke-dashoffset="60.173"><animate attributeName="stroke-dashoffset" values="60.173" fill="freeze" begin="9414.click" /><animate attributeName="stroke-dashoffset" values="60.173;60.173;0" keyTimes="0;0.86;1" dur="3.236s" fill="freeze" begin="0s;9414.click" /></path><path d="M59.91,16.76c0.65,0.5,1.17,2.21,1.17,3.23c0,3.52,0.3,12.77,0.3,16.77" stroke-dasharray="20.287" stroke-dashoffset="20.287"><animate attributeName="stroke-dashoffset" values="20.287" fill="freeze" begin="9414.click" /><animate attributeName="stroke-dashoffset" values="20.287;20.287;0" keyTimes="0;0.941;1" dur="3.439s" fill="freeze" begin="0s;9414.click" /></path><path d="M76.52,15.67c0.51,0.39,1.05,1.82,0.72,3.6C76.5,23.25,76.25,33,76.19,35.7" stroke-dasharray="20.284" stroke-dashoffset="20.284"><animate attributeName="stroke-dashoffset" values="20.284" fill="freeze" begin="9414.click" /><animate attributeName="stroke-dashoffset" values="20.284;20.284;0" keyTimes="0;0.944;1" dur="3.642s" fill="freeze" begin="0s;9414.click" /></path><path d="M49.35,37.63c3.57-0.16,37.92-1.77,42.59-1.75" stroke-dasharray="42.628" stroke-dashoffset="42.628"><animate attributeName="stroke-dashoffset" values="42.628" fill="freeze" begin="9414.click" /><animate attributeName="stroke-dashoffset" values="42.628;42.628;0" keyTimes="0;0.895;1" dur="4.068s" fill="freeze" begin="0s;9414.click" /></path><path d="M51.78,47.39c0.44,0.92,0.65,1.39,1.16,2.46c0.72,1.54,1.93,15.83,2.62,17.21" stroke-dasharray="20.15" stroke-dashoffset="20.15"><animate attributeName="stroke-dashoffset" values="20.15" fill="freeze" begin="9414.click" /><animate attributeName="stroke-dashoffset" values="20.15;20.15;0" keyTimes="0;0.953;1" dur="4.27s" fill="freeze" begin="0s;9414.click" /></path><path d="M52.43,48.34c2.47-0.15,32.65-2.48,34.88-2.11c0.89,0.15,1.74,1.29,1.4,2.76c-0.64,2.76-1.31,11.12-2.47,16.06" stroke-dasharray="54.651" stroke-dashoffset="54.651"><animate attributeName="stroke-dashoffset" values="54.651" fill="freeze" begin="9414.click" /><animate attributeName="stroke-dashoffset" values="54.651;54.651;0" keyTimes="0;0.886;1" dur="4.817s" fill="freeze" begin="0s;9414.click" /></path><path d="M54.41,56.61c3.34,0,28.88-1.58,32.66-1.58" stroke-dasharray="32.7" stroke-dashoffset="32.7"><animate attributeName="stroke-dashoffset" values="32.7" fill="freeze" begin="9414.click" /><animate attributeName="stroke-dashoffset" values="32.7;32.7;0" keyTimes="0;0.936;1" dur="5.144s" fill="freeze" begin="0s;9414.click" /></path><path d="M55.52,65.37c4.94,0,27.77-1.84,30.85-1.84" stroke-dasharray="30.908" stroke-dashoffset="30.908"><animate attributeName="stroke-dashoffset" values="30.908" fill="freeze" begin="9414.click" /><animate attributeName="stroke-dashoffset" values="30.908;30.908;0" keyTimes="0;0.943;1" dur="5.453s" fill="freeze" begin="0s;9414.click" /></path><path d="M47.55,77.43c1.44,0.42,4.09,0.54,5.52,0.42c12.45-1.01,28.83-3.18,40.54-3.15c2.4,0.01,3.84,0.2,5.04,0.42" stroke-dasharray="51.3" stroke-dashoffset="51.3"><animate attributeName="stroke-dashoffset" values="51.3" fill="freeze" begin="9414.click" /><animate attributeName="stroke-dashoffset" values="51.3;51.3;0" keyTimes="0;0.914;1" dur="5.966s" fill="freeze" begin="0s;9414.click" /></path><path d="M70.04,64.69c0.32,0.35,0.99,2.62,1.06,3.32c0.06,0.7-0.04,28.1-0.1,32.48" stroke-dasharray="35.985" stroke-dashoffset="35.985"><animate attributeName="stroke-dashoffset" values="35.985" fill="freeze" begin="9414.click" /><animate attributeName="stroke-dashoffset" values="35.985;35.985;0" keyTimes="0;0.943;1" dur="6.326s" fill="freeze" begin="0s;9414.click" /></path></g></svg>