<svg xmlns="http://www.w3.org/2000/svg" width="109" height="109" viewBox="0 0 109 109" id="9421"><g fill="none" stroke="#666" stroke-width="9" stroke-linecap="round" stroke-linejoin="round"><g><g><path d="M28.25,16.74c0,0.7,0.04,1.26-0.13,2.11c-0.92,4.39-9.66,19.03-17.15,25.53" /><path d="M29.64,21.96c4.02,1.46,9.15,5.35,11.11,9.04" /><path d="M18,43c1.5,0,2.18,0.09,2.67,0.06C25,42.74,30,41.03,35.1,40.8c0.74-0.03,0.9-0.05,2.15-0.05" /><path d="M12.09,57.31c0.59,0.33,2.56,0.48,3.17,0.43c5.49-0.49,15.74-2.99,22.78-3.17c0.75-0.02,2.38-0.13,3.49,0.15" /><path d="M26.45,45.19c1.24,0.78,1.24,2.52,1.24,3.14c0,4.35,0.62,33.63,0.31,37.98" /><path d="M12.89,67.26c4.08,4.85,6.07,10.11,6.9,12.94" /><path d="M40.7,61.55c0.3,0.84,0.46,2.06,0.34,2.76c-0.3,1.81-2.71,5.13-6.12,10.47" /><path d="M11.5,91.79c1.25,0.94,2.75,0.7,4.5,0.24c1.29-0.35,11.25-5.4,24.25-11.03" /></g><g><g p5:part="1" xmlns:p5="http://kanjivg.tagaini.net"><g p5:part="1"><path d="M46.63,28.5c0.73,0.21,2.06,0.25,2.8,0.21c5.1-0.3,11.79-1.77,16.58-2.22c1.21-0.11,1.95,0.1,2.55,0.2" /><path d="M57.07,14.51c0.08,0.28,1.23,1.47,1.23,3.27c0,11.59,0.1,5.31,0.1,20.63" /></g><g p5:part="1"><g p5:part="1"><g p5:part="1"><g p5:part="2"><path d="M42.38,39.92c1.05,0.29,2.99,0.39,4.03,0.29c14.4-1.37,35.87-4.1,47.51-4.48c1.75-0.06,2.8,0.14,3.68,0.29" /></g></g></g><g p5:part="2"><g p5:part="2"><g><path d="M47.25,47.63c0.31,0.26,0.62,0.47,0.76,0.79c1.06,2.54,2.34,9.53,3.06,14.08" /><path d="M49.16,49.46c6.27-1.37,13.91-2.88,17.51-3.23c1.31-0.13,2.1,0.75,1.91,1.49c-0.78,3.07-1.69,6.77-2.84,11.01" /><path d="M51.21,60.78c4.22-0.39,10.04-1.06,15.83-1.66" /></g></g><g><path d="M50.02,68.28c1.67,2.23,4.32,9.15,4.74,12.61" /><path d="M65.79,64.64c0.02,0.45,0.04,1.16-0.04,1.8c-0.43,3.81-2.87,12.16-6.22,17.27" /><path d="M45,88.96c0.7,0.79,2.11,1.2,4.22,0.17c5.86-2.88,16.42-8.01,22.28-10.88" /></g></g></g><g p5:part="2"><g p5:part="2"><path d="M72.72,14.5c0.93,1.68,1.69,2.14,1.81,5.75c0.98,30.5,5.23,59,18.41,70.9c3.89,3.51,3.14,0.72,2.67-6.71" /></g><g><path d="M90.88,44.72c0.07,1.09,0.23,2.83-0.14,4.37c-2.4,9.9-10.24,30.01-23.67,42.38" /></g><g p5:part="3"><g><path d="M83.93,20.09c2.61,1.79,6.78,5.87,8,8.93" /></g></g></g></g></g></g></g><g fill="none" stroke="#000" stroke-width="5" stroke-linecap="round" stroke-linejoin="round"><g><g><path d="M28.25,16.74c0,0.7,0.04,1.26-0.13,2.11c-0.92,4.39-9.66,19.03-17.15,25.53" stroke-dasharray="33.14" stroke-dashoffset="33.14"><animate id="0" attributeName="stroke-dashoffset" values="33.14;0" dur="0.33s" fill="freeze" begin="0s;9421.click" /></path><path d="M29.64,21.96c4.02,1.46,9.15,5.35,11.11,9.04" stroke-dasharray="14.58" stroke-dashoffset="14.58"><animate attributeName="stroke-dashoffset" values="14.58" fill="freeze" begin="9421.click" /><animate id="1" attributeName="stroke-dashoffset" values="14.58;0" dur="0.15s" fill="freeze" begin="0.end" /></path><path d="M18,43c1.5,0,2.18,0.09,2.67,0.06C25,42.74,30,41.03,35.1,40.8c0.74-0.03,0.9-0.05,2.15-0.05" stroke-dasharray="19.44" stroke-dashoffset="19.44"><animate attributeName="stroke-dashoffset" values="19.44" fill="freeze" begin="9421.click" /><animate id="2" attributeName="stroke-dashoffset" values="19.44;0" dur="0.19s" fill="freeze" begin="1.end" /></path><path d="M12.09,57.31c0.59,0.33,2.56,0.48,3.17,0.43c5.49-0.49,15.74-2.99,22.78-3.17c0.75-0.02,2.38-0.13,3.49,0.15" stroke-dasharray="29.74" stroke-dashoffset="29.74"><animate attributeName="stroke-dashoffset" values="29.74" fill="freeze" begin="9421.click" /><animate id="3" attributeName="stroke-dashoffset" values="29.74;0" dur="0.3s" fill="freeze" begin="2.end" /></path><path d="M26.45,45.19c1.24,0.78,1.24,2.52,1.24,3.14c0,4.35,0.62,33.63,0.31,37.98" stroke-dasharray="41.51" stroke-dashoffset="41.51"><animate attributeName="stroke-dashoffset" values="41.51" fill="freeze" begin="9421.click" /><animate id="4" attributeName="stroke-dashoffset" values="41.51;0" dur="0.42s" fill="freeze" begin="3.end" /></path><path d="M12.89,67.26c4.08,4.85,6.07,10.11,6.9,12.94" stroke-dasharray="14.77" stroke-dashoffset="14.77"><animate attributeName="stroke-dashoffset" values="14.77" fill="freeze" begin="9421.click" /><animate id="5" attributeName="stroke-dashoffset" values="14.77;0" dur="0.15s" fill="freeze" begin="4.end" /></path><path d="M40.7,61.55c0.3,0.84,0.46,2.06,0.34,2.76c-0.3,1.81-2.71,5.13-6.12,10.47" stroke-dasharray="14.97" stroke-dashoffset="14.97"><animate attributeName="stroke-dashoffset" values="14.97" fill="freeze" begin="9421.click" /><animate id="6" attributeName="stroke-dashoffset" values="14.97;0" dur="0.15s" fill="freeze" begin="5.end" /></path><path d="M11.5,91.79c1.25,0.94,2.75,0.7,4.5,0.24c1.29-0.35,11.25-5.4,24.25-11.03" stroke-dasharray="31.32" stroke-dashoffset="31.32"><animate attributeName="stroke-dashoffset" values="31.32" fill="freeze" begin="9421.click" /><animate id="7" attributeName="stroke-dashoffset" values="31.32;0" dur="0.31s" fill="freeze" begin="6.end" /></path></g><g><g p5:part="1" xmlns:p5="http://kanjivg.tagaini.net"><g p5:part="1"><path d="M46.63,28.5c0.73,0.21,2.06,0.25,2.8,0.21c5.1-0.3,11.79-1.77,16.58-2.22c1.21-0.11,1.95,0.1,2.55,0.2" stroke-dasharray="22.12" stroke-dashoffset="22.12"><animate attributeName="stroke-dashoffset" values="22.12" fill="freeze" begin="9421.click" /><animate id="8" attributeName="stroke-dashoffset" values="22.12;0" dur="0.22s" fill="freeze" begin="7.end" /></path><path d="M57.07,14.51c0.08,0.28,1.23,1.47,1.23,3.27c0,11.59,0.1,5.31,0.1,20.63" stroke-dasharray="24.18" stroke-dashoffset="24.18"><animate attributeName="stroke-dashoffset" values="24.18" fill="freeze" begin="9421.click" /><animate id="9" attributeName="stroke-dashoffset" values="24.18;0" dur="0.24s" fill="freeze" begin="8.end" /></path></g><g p5:part="1"><g p5:part="1"><g p5:part="1"><g p5:part="2"><path d="M42.38,39.92c1.05,0.29,2.99,0.39,4.03,0.29c14.4-1.37,35.87-4.1,47.51-4.48c1.75-0.06,2.8,0.14,3.68,0.29" stroke-dasharray="55.48" stroke-dashoffset="55.48"><animate attributeName="stroke-dashoffset" values="55.48" fill="freeze" begin="9421.click" /><animate id="10" attributeName="stroke-dashoffset" values="55.48;0" dur="0.55s" fill="freeze" begin="9.end" /></path></g></g></g><g p5:part="2"><g p5:part="2"><g><path d="M47.25,47.63c0.31,0.26,0.62,0.47,0.76,0.79c1.06,2.54,2.34,9.53,3.06,14.08" stroke-dasharray="15.54" stroke-dashoffset="15.54"><animate attributeName="stroke-dashoffset" values="15.54" fill="freeze" begin="9421.click" /><animate id="11" attributeName="stroke-dashoffset" values="15.54;0" dur="0.16s" fill="freeze" begin="10.end" /></path><path d="M49.16,49.46c6.27-1.37,13.91-2.88,17.51-3.23c1.31-0.13,2.1,0.75,1.91,1.49c-0.78,3.07-1.69,6.77-2.84,11.01" stroke-dasharray="32" stroke-dashoffset="32"><animate attributeName="stroke-dashoffset" values="32" fill="freeze" begin="9421.click" /><animate id="12" attributeName="stroke-dashoffset" values="32;0" dur="0.32s" fill="freeze" begin="11.end" /></path><path d="M51.21,60.78c4.22-0.39,10.04-1.06,15.83-1.66" stroke-dasharray="15.92" stroke-dashoffset="15.92"><animate attributeName="stroke-dashoffset" values="15.92" fill="freeze" begin="9421.click" /><animate id="13" attributeName="stroke-dashoffset" values="15.92;0" dur="0.16s" fill="freeze" begin="12.end" /></path></g></g><g><path d="M50.02,68.28c1.67,2.23,4.32,9.15,4.74,12.61" stroke-dasharray="13.56" stroke-dashoffset="13.56"><animate attributeName="stroke-dashoffset" values="13.56" fill="freeze" begin="9421.click" /><animate id="14" attributeName="stroke-dashoffset" values="13.56;0" dur="0.14s" fill="freeze" begin="13.end" /></path><path d="M65.79,64.64c0.02,0.45,0.04,1.16-0.04,1.8c-0.43,3.81-2.87,12.16-6.22,17.27" stroke-dasharray="20.28" stroke-dashoffset="20.28"><animate attributeName="stroke-dashoffset" values="20.28" fill="freeze" begin="9421.click" /><animate id="15" attributeName="stroke-dashoffset" values="20.28;0" dur="0.2s" fill="freeze" begin="14.end" /></path><path d="M45,88.96c0.7,0.79,2.11,1.2,4.22,0.17c5.86-2.88,16.42-8.01,22.28-10.88" stroke-dasharray="29.33" stroke-dashoffset="29.33"><animate attributeName="stroke-dashoffset" values="29.33" fill="freeze" begin="9421.click" /><animate id="16" attributeName="stroke-dashoffset" values="29.33;0" dur="0.29s" fill="freeze" begin="15.end" /></path></g></g></g><g p5:part="2"><g p5:part="2"><path d="M72.72,14.5c0.93,1.68,1.69,2.14,1.81,5.75c0.98,30.5,5.23,59,18.41,70.9c3.89,3.51,3.14,0.72,2.67-6.71" stroke-dasharray="92.36" stroke-dashoffset="92.36"><animate attributeName="stroke-dashoffset" values="92.36" fill="freeze" begin="9421.click" /><animate id="17" attributeName="stroke-dashoffset" values="92.36;0" dur="0.69s" fill="freeze" begin="16.end" /></path></g><g><path d="M90.88,44.72c0.07,1.09,0.23,2.83-0.14,4.37c-2.4,9.9-10.24,30.01-23.67,42.38" stroke-dasharray="53.53" stroke-dashoffset="53.53"><animate attributeName="stroke-dashoffset" values="53.53" fill="freeze" begin="9421.click" /><animate id="18" attributeName="stroke-dashoffset" values="53.53;0" dur="0.54s" fill="freeze" begin="17.end" /></path></g><g p5:part="3"><g><path d="M83.93,20.09c2.61,1.79,6.78,5.87,8,8.93" stroke-dasharray="12.11" stroke-dashoffset="12.11"><animate attributeName="stroke-dashoffset" values="12.11" fill="freeze" begin="9421.click" /><animate id="19" attributeName="stroke-dashoffset" values="12.11;0" dur="0.12s" fill="freeze" begin="18.end" /></path></g></g></g></g></g></g></g></svg>