<svg xmlns="http://www.w3.org/2000/svg" width="109" height="109" viewBox="0 0 109 109" id="945b"><g fill="none" stroke="#666" stroke-width="9" stroke-linecap="round" stroke-linejoin="round"><g><g><path d="M28.25,13.24c0,0.76,0.05,1.36-0.14,2.28c-0.95,4.75-9.94,20.58-17.64,27.61" /><path d="M29.89,18.96c4.47,1.7,10.18,6.24,12.36,10.54" /><path d="M19.5,40.5c1.5,0,2.18,0.09,2.67,0.06C26.5,40.24,32,38.53,37.1,38.3c0.74-0.03,0.9-0.05,2.15-0.05" /><path d="M14.09,54.81c0.59,0.33,2.56,0.48,3.17,0.43c5.49-0.49,14.74-2.49,22.78-3.67c0.74-0.11,2.38-0.13,3.49,0.15" /><path d="M27.95,40.19c1.24,0.78,1.24,2.52,1.24,3.14c0,4.35,0.62,36.13,0.31,40.48" /><path d="M14.64,64.51c4.22,5.13,6.29,10.69,7.15,13.69" /><path d="M41.7,59.55c0.3,0.84,0.46,2.06,0.34,2.76c-0.3,1.81-2.71,5.13-6.12,10.47" /><path d="M14,89.25c1.25,1,2.75,0.75,4.5,0.25c1.29-0.37,8.25-4.25,21.25-10.25" /></g><g><g><path d="M71.13,10.88c0.45,0.32,1.4,2.37,1.49,3.01s0.05,4.96-0.04,8.92" /><g><path d="M49.07,24.53c1.19,0.45,3.38,0.53,4.57,0.45c12.41-0.76,27.47-3.22,39.5-3.82c1.99-0.1,3.18,0.22,4.17,0.44" /><path d="M52.26,24.94c0.21,1.45,0.41,4.06,0.36,6.32c-0.36,15.17-1.11,41.98-12.81,60.03" /></g></g><g><path d="M56.72,37.46c0.85,0.28,2.4,0.33,3.25,0.28c10.36-0.62,22.39-3.04,31.78-3.65C93.15,34,94,34.23,94.7,34.37" /><path d="M65.28,30.37c0.34,0.24,1.06,1.77,1.08,2.26c0.1,3.25,0.68,7.5,1.83,14.39" /><path d="M81.4,28.04c0.34,0.28,0.74,2.08,0.68,2.63c-0.34,3.41-0.63,7.18-1.2,13.53" /><path d="M67.97,45.79c2.22,0,12.41-1.25,14.9-1.25" /><path d="M54.72,53.66c0.95,0.32,2.71,0.39,3.66,0.32c8.83-0.65,24.96-2.6,35.71-2.73c1.59-0.02,2.54,0.15,3.34,0.31" /><path d="M57.5,63.05c0.51,0.36,1.22,1.9,1.26,2.37c0.33,3.66,2.02,12.77,2.62,19.85" /><path d="M59.48,64.6c9.36-1.75,26.22-2.3,31.56-2.41c2.21-0.05,3.02,1.46,2.9,2.49c-0.44,3.77-1.2,11.1-3.54,19.19" /><path d="M74.57,55.54c0.49,0.32,0.91,1.94,0.91,2.33c0.01,6.56,0.11,22.43,0.11,24.19" /><path d="M60.71,73.77c2.62-0.19,28.73-2.33,30.89-2.33" /><path d="M62.11,83.78c7.58-1.31,19.44-1.51,28.36-1.98" /><path d="M67.2,87.74c0.04,0.28,0.09,0.72-0.09,1.12c-1.08,2.36-7.29,6.73-15.78,9.9" /><path d="M80.21,87.37c5.15,2.01,13.3,8.28,14.59,11.41" /></g></g></g></g><g fill="none" stroke="#000" stroke-width="5" stroke-linecap="round" stroke-linejoin="round"><g><g><path d="M28.25,13.24c0,0.76,0.05,1.36-0.14,2.28c-0.95,4.75-9.94,20.58-17.64,27.61" stroke-dasharray="35.33" stroke-dashoffset="35.33"><animate id="0" attributeName="stroke-dashoffset" values="35.33;0" dur="0.35s" fill="freeze" begin="0s;945b.click" /></path><path d="M29.89,18.96c4.47,1.7,10.18,6.24,12.36,10.54" stroke-dasharray="16.54" stroke-dashoffset="16.54"><animate attributeName="stroke-dashoffset" values="16.54" fill="freeze" begin="945b.click" /><animate id="1" attributeName="stroke-dashoffset" values="16.54;0" dur="0.17s" fill="freeze" begin="0.end" /></path><path d="M19.5,40.5c1.5,0,2.18,0.09,2.67,0.06C26.5,40.24,32,38.53,37.1,38.3c0.74-0.03,0.9-0.05,2.15-0.05" stroke-dasharray="19.93" stroke-dashoffset="19.93"><animate attributeName="stroke-dashoffset" values="19.93" fill="freeze" begin="945b.click" /><animate id="2" attributeName="stroke-dashoffset" values="19.93;0" dur="0.2s" fill="freeze" begin="1.end" /></path><path d="M14.09,54.81c0.59,0.33,2.56,0.48,3.17,0.43c5.49-0.49,14.74-2.49,22.78-3.67c0.74-0.11,2.38-0.13,3.49,0.15" stroke-dasharray="29.81" stroke-dashoffset="29.81"><animate attributeName="stroke-dashoffset" values="29.81" fill="freeze" begin="945b.click" /><animate id="3" attributeName="stroke-dashoffset" values="29.81;0" dur="0.3s" fill="freeze" begin="2.end" /></path><path d="M27.95,40.19c1.24,0.78,1.24,2.52,1.24,3.14c0,4.35,0.62,36.13,0.31,40.48" stroke-dasharray="44.01" stroke-dashoffset="44.01"><animate attributeName="stroke-dashoffset" values="44.01" fill="freeze" begin="945b.click" /><animate id="4" attributeName="stroke-dashoffset" values="44.01;0" dur="0.44s" fill="freeze" begin="3.end" /></path><path d="M14.64,64.51c4.22,5.13,6.29,10.69,7.15,13.69" stroke-dasharray="15.55" stroke-dashoffset="15.55"><animate attributeName="stroke-dashoffset" values="15.55" fill="freeze" begin="945b.click" /><animate id="5" attributeName="stroke-dashoffset" values="15.55;0" dur="0.16s" fill="freeze" begin="4.end" /></path><path d="M41.7,59.55c0.3,0.84,0.46,2.06,0.34,2.76c-0.3,1.81-2.71,5.13-6.12,10.47" stroke-dasharray="14.97" stroke-dashoffset="14.97"><animate attributeName="stroke-dashoffset" values="14.97" fill="freeze" begin="945b.click" /><animate id="6" attributeName="stroke-dashoffset" values="14.97;0" dur="0.15s" fill="freeze" begin="5.end" /></path><path d="M14,89.25c1.25,1,2.75,0.75,4.5,0.25c1.29-0.37,8.25-4.25,21.25-10.25" stroke-dasharray="28.3" stroke-dashoffset="28.3"><animate attributeName="stroke-dashoffset" values="28.3" fill="freeze" begin="945b.click" /><animate id="7" attributeName="stroke-dashoffset" values="28.3;0" dur="0.28s" fill="freeze" begin="6.end" /></path></g><g><g><path d="M71.13,10.88c0.45,0.32,1.4,2.37,1.49,3.01s0.05,4.96-0.04,8.92" stroke-dasharray="12.31" stroke-dashoffset="12.31"><animate attributeName="stroke-dashoffset" values="12.31" fill="freeze" begin="945b.click" /><animate id="8" attributeName="stroke-dashoffset" values="12.31;0" dur="0.12s" fill="freeze" begin="7.end" /></path><g><path d="M49.07,24.53c1.19,0.45,3.38,0.53,4.57,0.45c12.41-0.76,27.47-3.22,39.5-3.82c1.99-0.1,3.18,0.22,4.17,0.44" stroke-dasharray="48.52" stroke-dashoffset="48.52"><animate attributeName="stroke-dashoffset" values="48.52" fill="freeze" begin="945b.click" /><animate id="9" attributeName="stroke-dashoffset" values="48.52;0" dur="0.49s" fill="freeze" begin="8.end" /></path><path d="M52.26,24.94c0.21,1.45,0.41,4.06,0.36,6.32c-0.36,15.17-1.11,41.98-12.81,60.03" stroke-dasharray="68.48" stroke-dashoffset="68.48"><animate attributeName="stroke-dashoffset" values="68.48" fill="freeze" begin="945b.click" /><animate id="10" attributeName="stroke-dashoffset" values="68.48;0" dur="0.51s" fill="freeze" begin="9.end" /></path></g></g><g><path d="M56.72,37.46c0.85,0.28,2.4,0.33,3.25,0.28c10.36-0.62,22.39-3.04,31.78-3.65C93.15,34,94,34.23,94.7,34.37" stroke-dasharray="38.25" stroke-dashoffset="38.25"><animate attributeName="stroke-dashoffset" values="38.25" fill="freeze" begin="945b.click" /><animate id="11" attributeName="stroke-dashoffset" values="38.25;0" dur="0.38s" fill="freeze" begin="10.end" /></path><path d="M65.28,30.37c0.34,0.24,1.06,1.77,1.08,2.26c0.1,3.25,0.68,7.5,1.83,14.39" stroke-dasharray="17.05" stroke-dashoffset="17.05"><animate attributeName="stroke-dashoffset" values="17.05" fill="freeze" begin="945b.click" /><animate id="12" attributeName="stroke-dashoffset" values="17.05;0" dur="0.17s" fill="freeze" begin="11.end" /></path><path d="M81.4,28.04c0.34,0.28,0.74,2.08,0.68,2.63c-0.34,3.41-0.63,7.18-1.2,13.53" stroke-dasharray="16.34" stroke-dashoffset="16.34"><animate attributeName="stroke-dashoffset" values="16.34" fill="freeze" begin="945b.click" /><animate id="13" attributeName="stroke-dashoffset" values="16.34;0" dur="0.16s" fill="freeze" begin="12.end" /></path><path d="M67.97,45.79c2.22,0,12.41-1.25,14.9-1.25" stroke-dasharray="14.96" stroke-dashoffset="14.96"><animate attributeName="stroke-dashoffset" values="14.96" fill="freeze" begin="945b.click" /><animate id="14" attributeName="stroke-dashoffset" values="14.96;0" dur="0.15s" fill="freeze" begin="13.end" /></path><path d="M54.72,53.66c0.95,0.32,2.71,0.39,3.66,0.32c8.83-0.65,24.96-2.6,35.71-2.73c1.59-0.02,2.54,0.15,3.34,0.31" stroke-dasharray="42.88" stroke-dashoffset="42.88"><animate attributeName="stroke-dashoffset" values="42.88" fill="freeze" begin="945b.click" /><animate id="15" attributeName="stroke-dashoffset" values="42.88;0" dur="0.43s" fill="freeze" begin="14.end" /></path><path d="M57.5,63.05c0.51,0.36,1.22,1.9,1.26,2.37c0.33,3.66,2.02,12.77,2.62,19.85" stroke-dasharray="22.75" stroke-dashoffset="22.75"><animate attributeName="stroke-dashoffset" values="22.75" fill="freeze" begin="945b.click" /><animate id="16" attributeName="stroke-dashoffset" values="22.75;0" dur="0.23s" fill="freeze" begin="15.end" /></path><path d="M59.48,64.6c9.36-1.75,26.22-2.3,31.56-2.41c2.21-0.05,3.02,1.46,2.9,2.49c-0.44,3.77-1.2,11.1-3.54,19.19" stroke-dasharray="55.57" stroke-dashoffset="55.57"><animate attributeName="stroke-dashoffset" values="55.57" fill="freeze" begin="945b.click" /><animate id="17" attributeName="stroke-dashoffset" values="55.57;0" dur="0.56s" fill="freeze" begin="16.end" /></path><path d="M74.57,55.54c0.49,0.32,0.91,1.94,0.91,2.33c0.01,6.56,0.11,22.43,0.11,24.19" stroke-dasharray="26.74" stroke-dashoffset="26.74"><animate attributeName="stroke-dashoffset" values="26.74" fill="freeze" begin="945b.click" /><animate id="18" attributeName="stroke-dashoffset" values="26.74;0" dur="0.27s" fill="freeze" begin="17.end" /></path><path d="M60.71,73.77c2.62-0.19,28.73-2.33,30.89-2.33" stroke-dasharray="30.98" stroke-dashoffset="30.98"><animate attributeName="stroke-dashoffset" values="30.98" fill="freeze" begin="945b.click" /><animate id="19" attributeName="stroke-dashoffset" values="30.98;0" dur="0.31s" fill="freeze" begin="18.end" /></path><path d="M62.11,83.78c7.58-1.31,19.44-1.51,28.36-1.98" stroke-dasharray="28.44" stroke-dashoffset="28.44"><animate attributeName="stroke-dashoffset" values="28.44" fill="freeze" begin="945b.click" /><animate id="20" attributeName="stroke-dashoffset" values="28.44;0" dur="0.28s" fill="freeze" begin="19.end" /></path><path d="M67.2,87.74c0.04,0.28,0.09,0.72-0.09,1.12c-1.08,2.36-7.29,6.73-15.78,9.9" stroke-dasharray="20.03" stroke-dashoffset="20.03"><animate attributeName="stroke-dashoffset" values="20.03" fill="freeze" begin="945b.click" /><animate id="21" attributeName="stroke-dashoffset" values="20.03;0" dur="0.2s" fill="freeze" begin="20.end" /></path><path d="M80.21,87.37c5.15,2.01,13.3,8.28,14.59,11.41" stroke-dasharray="18.78" stroke-dashoffset="18.78"><animate attributeName="stroke-dashoffset" values="18.78" fill="freeze" begin="945b.click" /><animate id="22" attributeName="stroke-dashoffset" values="18.78;0" dur="0.19s" fill="freeze" begin="21.end" /></path></g></g></g></g></svg>