<svg xmlns="http://www.w3.org/2000/svg" width="109" height="109" viewBox="0 0 109 109" id="958f"><g fill="none" stroke="#666" stroke-width="9" stroke-linecap="round" stroke-linejoin="round"><g><g><g><path d="M17.64,16.72c1.19,1.19,1.51,2.78,1.51,4.25c0,1.32,0,46.88,0,67.28c0,4.66,0,8.01,0,9.22" /><path d="M19.86,18.82c2.26-0.1,14.08-1.92,18.15-2.5c3.11-0.44,4.07,0.43,4.07,3.56c0,3.55-0.1,12.25-0.15,18.88c-0.02,2.48-0.03,4.67-0.03,6.19" /><path d="M20.06,32.18c7.07-0.93,14.07-1.93,21.16-2.65" /><path d="M20.11,45.82c8.39-1.32,12.89-2.07,20.3-2.67" /></g><g><path d="M64.46,14.62c0.77,0.77,0.92,2.05,0.92,2.92c0,3.47,0.11,13.88,0.16,20.7c0.02,2.44,0.03,4.41,0.03,5.45" /><path d="M66.38,15.3c7.12-1.3,17.95-3.18,20.3-3.31c2.65,0.39,3.02,1.59,3.02,3.88c0,12.63,0.04,52.37,0.04,74.91c0,10.34-6.49,4.09-10.24,0.34" /><path d="M67.09,27.69c6.41-0.94,14.66-1.94,21.5-2.62" /><path d="M66.63,41.56c8.87-1.18,13.87-2.06,21.4-2.66" /></g></g><g p4:partial xmlns:p4="http://kanjivg.tagaini.net"><path d="M35.76,54.81c1.74,0.44,3.58,0.33,5.35,0.03c5.13-0.57,17.32-1.74,24.51-2.22c1.85-0.28,3.7-0.22,5.53,0.17" /><path d="M52.76,55.04c1.1,1.1,1.17,2.34,1.17,3.52c0,4.44-0.01,18.44-0.01,23.87" /><path d="M36.6,69.23c1.93,0.24,3.86,0.22,5.78-0.07c6.12-0.58,14.83-1.7,21.61-2.28c2.06,0.02,4.64-0.01,6.41,0.46" /><path d="M29.86,84.57c2.23,0.77,4.77,0.47,7.03,0.24c11.42-1.16,21.89-2.16,33.98-2.65c2.45-0.29,4.87-0.12,7.26,0.51" /></g></g></g><g fill="none" stroke="#000" stroke-width="5" stroke-linecap="round" stroke-linejoin="round"><g><g><g><path d="M17.64,16.72c1.19,1.19,1.51,2.78,1.51,4.25c0,1.32,0,46.88,0,67.28c0,4.66,0,8.01,0,9.22" stroke-dasharray="81.13" stroke-dashoffset="81.13"><animate id="0" attributeName="stroke-dashoffset" values="81.13;0" dur="0.61s" fill="freeze" begin="0s;958f.click" /></path><path d="M19.86,18.82c2.26-0.1,14.08-1.92,18.15-2.5c3.11-0.44,4.07,0.43,4.07,3.56c0,3.55-0.1,12.25-0.15,18.88c-0.02,2.48-0.03,4.67-0.03,6.19" stroke-dasharray="50.05" stroke-dashoffset="50.05"><animate attributeName="stroke-dashoffset" values="50.05" fill="freeze" begin="958f.click" /><animate id="1" attributeName="stroke-dashoffset" values="50.05;0" dur="0.5s" fill="freeze" begin="0.end" /></path><path d="M20.06,32.18c7.07-0.93,14.07-1.93,21.16-2.65" stroke-dasharray="21.33" stroke-dashoffset="21.33"><animate attributeName="stroke-dashoffset" values="21.33" fill="freeze" begin="958f.click" /><animate id="2" attributeName="stroke-dashoffset" values="21.33;0" dur="0.21s" fill="freeze" begin="1.end" /></path><path d="M20.11,45.82c8.39-1.32,12.89-2.07,20.3-2.67" stroke-dasharray="20.48" stroke-dashoffset="20.48"><animate attributeName="stroke-dashoffset" values="20.48" fill="freeze" begin="958f.click" /><animate id="3" attributeName="stroke-dashoffset" values="20.48;0" dur="0.2s" fill="freeze" begin="2.end" /></path></g><g><path d="M64.46,14.62c0.77,0.77,0.92,2.05,0.92,2.92c0,3.47,0.11,13.88,0.16,20.7c0.02,2.44,0.03,4.41,0.03,5.45" stroke-dasharray="29.29" stroke-dashoffset="29.29"><animate attributeName="stroke-dashoffset" values="29.29" fill="freeze" begin="958f.click" /><animate id="4" attributeName="stroke-dashoffset" values="29.29;0" dur="0.29s" fill="freeze" begin="3.end" /></path><path d="M66.38,15.3c7.12-1.3,17.95-3.18,20.3-3.31c2.65,0.39,3.02,1.59,3.02,3.88c0,12.63,0.04,52.37,0.04,74.91c0,10.34-6.49,4.09-10.24,0.34" stroke-dasharray="117.48" stroke-dashoffset="117.48"><animate attributeName="stroke-dashoffset" values="117.48" fill="freeze" begin="958f.click" /><animate id="5" attributeName="stroke-dashoffset" values="117.48;0" dur="0.88s" fill="freeze" begin="4.end" /></path><path d="M67.09,27.69c6.41-0.94,14.66-1.94,21.5-2.62" stroke-dasharray="21.66" stroke-dashoffset="21.66"><animate attributeName="stroke-dashoffset" values="21.66" fill="freeze" begin="958f.click" /><animate id="6" attributeName="stroke-dashoffset" values="21.66;0" dur="0.22s" fill="freeze" begin="5.end" /></path><path d="M66.63,41.56c8.87-1.18,13.87-2.06,21.4-2.66" stroke-dasharray="21.57" stroke-dashoffset="21.57"><animate attributeName="stroke-dashoffset" values="21.57" fill="freeze" begin="958f.click" /><animate id="7" attributeName="stroke-dashoffset" values="21.57;0" dur="0.22s" fill="freeze" begin="6.end" /></path></g></g><g p4:partial xmlns:p4="http://kanjivg.tagaini.net"><path d="M35.76,54.81c1.74,0.44,3.58,0.33,5.35,0.03c5.13-0.57,17.32-1.74,24.51-2.22c1.85-0.28,3.7-0.22,5.53,0.17" stroke-dasharray="35.56" stroke-dashoffset="35.56"><animate attributeName="stroke-dashoffset" values="35.56" fill="freeze" begin="958f.click" /><animate id="8" attributeName="stroke-dashoffset" values="35.56;0" dur="0.36s" fill="freeze" begin="7.end" /></path><path d="M52.76,55.04c1.1,1.1,1.17,2.34,1.17,3.52c0,4.44-0.01,18.44-0.01,23.87" stroke-dasharray="27.7" stroke-dashoffset="27.7"><animate attributeName="stroke-dashoffset" values="27.7" fill="freeze" begin="958f.click" /><animate id="9" attributeName="stroke-dashoffset" values="27.7;0" dur="0.28s" fill="freeze" begin="8.end" /></path><path d="M36.6,69.23c1.93,0.24,3.86,0.22,5.78-0.07c6.12-0.58,14.83-1.7,21.61-2.28c2.06,0.02,4.64-0.01,6.41,0.46" stroke-dasharray="33.97" stroke-dashoffset="33.97"><animate attributeName="stroke-dashoffset" values="33.97" fill="freeze" begin="958f.click" /><animate id="10" attributeName="stroke-dashoffset" values="33.97;0" dur="0.34s" fill="freeze" begin="9.end" /></path><path d="M29.86,84.57c2.23,0.77,4.77,0.47,7.03,0.24c11.42-1.16,21.89-2.16,33.98-2.65c2.45-0.29,4.87-0.12,7.26,0.51" stroke-dasharray="48.5" stroke-dashoffset="48.5"><animate attributeName="stroke-dashoffset" values="48.5" fill="freeze" begin="958f.click" /><animate id="11" attributeName="stroke-dashoffset" values="48.5;0" dur="0.48s" fill="freeze" begin="10.end" /></path></g></g></g></svg>