<svg xmlns="http://www.w3.org/2000/svg" width="109" height="109" viewBox="0 0 109 109" id="9598"><g fill="none" stroke="#666" stroke-width="9" stroke-linecap="round" stroke-linejoin="round"><g><g><g><path d="M18.39,15.29c0.73,0.46,1.28,3.48,1.43,4.4c0.15,0.93-0.09,70.64-0.24,76.44" /><path d="M20.02,16.58c2.44-0.1,17.27-2.16,19.49-2.28c1.85-0.1,2.81,0.91,2.9,1.71c0.14,1.23-1.54,25.82-1.54,26.42" /><path d="M20.45,28.89c5.99-0.59,14.62-2.12,20.38-2.76" /><path d="M20.02,41.98c8.11-1.15,12.39-2.03,19.56-2.56" /></g><g><path d="M64.44,13.51c0.44,0.55,0.88,1.74,0.88,2.48c0,0.74,0.21,24.31,0.21,24.67" /><path d="M66.05,15.16c2.49-0.11,19.71-2.79,21.99-2.92c1.9-0.11,2.98,1.15,2.97,1.8c-0.49,19.46-0.5,62.79-0.5,76.9c0,12.31-6.51,3.31-8.4,1.36" /><path d="M66.49,26.22c3.38,0,19.09-1.74,22.9-1.74" /><path d="M66.05,37.76c4.99,0,16.59-1.56,23.05-1.56" /></g></g><g><g p5:partial xmlns:p5="http://kanjivg.tagaini.net"><path d="M33.66,48.68c0.26,0.4,0.7,1.26,0.83,1.75c1.31,4.99,3.06,14.3,3.75,21.71" /><path d="M35.32,50.14c10.08-0.92,26.56-2.78,33.5-3.17c2.55-0.14,4.08,0.71,3.99,2.38c-0.22,3.97-2.33,18.43-3.33,20.87" /><path d="M37.4,59.91c3.03-0.19,31.67-2.5,34.17-2.5" /><path d="M38.73,70.26c8.78-0.9,21.65-1.76,31.25-2.14" /></g><g><path d="M52.6,50.2c0.66,0.36,1.07,1.32,1.06,2.48c-0.02,5.84,0.22,42.64,0.22,44.54" /></g></g></g></g><g fill="none" stroke="#000" stroke-width="5" stroke-linecap="round" stroke-linejoin="round"><g><g><g><path d="M18.39,15.29c0.73,0.46,1.28,3.48,1.43,4.4c0.15,0.93-0.09,70.64-0.24,76.44" stroke-dasharray="81.13" stroke-dashoffset="81.13"><animate id="0" attributeName="stroke-dashoffset" values="81.13;0" dur="0.61s" fill="freeze" begin="0s;9598.click" /></path><path d="M20.02,16.58c2.44-0.1,17.27-2.16,19.49-2.28c1.85-0.1,2.81,0.91,2.9,1.71c0.14,1.23-1.54,25.82-1.54,26.42" stroke-dasharray="49.78" stroke-dashoffset="49.78"><animate attributeName="stroke-dashoffset" values="49.78" fill="freeze" begin="9598.click" /><animate id="1" attributeName="stroke-dashoffset" values="49.78;0" dur="0.5s" fill="freeze" begin="0.end" /></path><path d="M20.45,28.89c5.99-0.59,14.62-2.12,20.38-2.76" stroke-dasharray="20.57" stroke-dashoffset="20.57"><animate attributeName="stroke-dashoffset" values="20.57" fill="freeze" begin="9598.click" /><animate id="2" attributeName="stroke-dashoffset" values="20.57;0" dur="0.21s" fill="freeze" begin="1.end" /></path><path d="M20.02,41.98c8.11-1.15,12.39-2.03,19.56-2.56" stroke-dasharray="19.73" stroke-dashoffset="19.73"><animate attributeName="stroke-dashoffset" values="19.73" fill="freeze" begin="9598.click" /><animate id="3" attributeName="stroke-dashoffset" values="19.73;0" dur="0.2s" fill="freeze" begin="2.end" /></path></g><g><path d="M64.44,13.51c0.44,0.55,0.88,1.74,0.88,2.48c0,0.74,0.21,24.31,0.21,24.67" stroke-dasharray="27.34" stroke-dashoffset="27.34"><animate attributeName="stroke-dashoffset" values="27.34" fill="freeze" begin="9598.click" /><animate id="4" attributeName="stroke-dashoffset" values="27.34;0" dur="0.27s" fill="freeze" begin="3.end" /></path><path d="M66.05,15.16c2.49-0.11,19.71-2.79,21.99-2.92c1.9-0.11,2.98,1.15,2.97,1.8c-0.49,19.46-0.5,62.79-0.5,76.9c0,12.31-6.51,3.31-8.4,1.36" stroke-dasharray="118.27" stroke-dashoffset="118.27"><animate attributeName="stroke-dashoffset" values="118.27" fill="freeze" begin="9598.click" /><animate id="5" attributeName="stroke-dashoffset" values="118.27;0" dur="0.89s" fill="freeze" begin="4.end" /></path><path d="M66.49,26.22c3.38,0,19.09-1.74,22.9-1.74" stroke-dasharray="22.97" stroke-dashoffset="22.97"><animate attributeName="stroke-dashoffset" values="22.97" fill="freeze" begin="9598.click" /><animate id="6" attributeName="stroke-dashoffset" values="22.97;0" dur="0.23s" fill="freeze" begin="5.end" /></path><path d="M66.05,37.76c4.99,0,16.59-1.56,23.05-1.56" stroke-dasharray="23.11" stroke-dashoffset="23.11"><animate attributeName="stroke-dashoffset" values="23.11" fill="freeze" begin="9598.click" /><animate id="7" attributeName="stroke-dashoffset" values="23.11;0" dur="0.23s" fill="freeze" begin="6.end" /></path></g></g><g><g p5:partial xmlns:p5="http://kanjivg.tagaini.net"><path d="M33.66,48.68c0.26,0.4,0.7,1.26,0.83,1.75c1.31,4.99,3.06,14.3,3.75,21.71" stroke-dasharray="23.99" stroke-dashoffset="23.99"><animate attributeName="stroke-dashoffset" values="23.99" fill="freeze" begin="9598.click" /><animate id="8" attributeName="stroke-dashoffset" values="23.99;0" dur="0.24s" fill="freeze" begin="7.end" /></path><path d="M35.32,50.14c10.08-0.92,26.56-2.78,33.5-3.17c2.55-0.14,4.08,0.71,3.99,2.38c-0.22,3.97-2.33,18.43-3.33,20.87" stroke-dasharray="60.13" stroke-dashoffset="60.13"><animate attributeName="stroke-dashoffset" values="60.13" fill="freeze" begin="9598.click" /><animate id="9" attributeName="stroke-dashoffset" values="60.13;0" dur="0.45s" fill="freeze" begin="8.end" /></path><path d="M37.4,59.91c3.03-0.19,31.67-2.5,34.17-2.5" stroke-dasharray="34.26" stroke-dashoffset="34.26"><animate attributeName="stroke-dashoffset" values="34.26" fill="freeze" begin="9598.click" /><animate id="10" attributeName="stroke-dashoffset" values="34.26;0" dur="0.34s" fill="freeze" begin="9.end" /></path><path d="M38.73,70.26c8.78-0.9,21.65-1.76,31.25-2.14" stroke-dasharray="31.33" stroke-dashoffset="31.33"><animate attributeName="stroke-dashoffset" values="31.33" fill="freeze" begin="9598.click" /><animate id="11" attributeName="stroke-dashoffset" values="31.33;0" dur="0.31s" fill="freeze" begin="10.end" /></path></g><g><path d="M52.6,50.2c0.66,0.36,1.07,1.32,1.06,2.48c-0.02,5.84,0.22,42.64,0.22,44.54" stroke-dasharray="47.36" stroke-dashoffset="47.36"><animate attributeName="stroke-dashoffset" values="47.36" fill="freeze" begin="9598.click" /><animate id="12" attributeName="stroke-dashoffset" values="47.36;0" dur="0.47s" fill="freeze" begin="11.end" /></path></g></g></g></g></svg>