<svg xmlns="http://www.w3.org/2000/svg" width="109" height="109" viewBox="0 0 109 109" id="95a0"><g fill="none" stroke="#666" stroke-width="9" stroke-linecap="round" stroke-linejoin="round"><g><g><g><path d="M18.39,15.29c0.73,0.46,1.28,2.98,1.43,3.9c0.15,0.93-0.09,72.14-0.24,77.94" /><path d="M20.02,16.81c2.21-0.11,17.5-2.38,19.51-2.51c1.68-0.11,2.55,1,2.63,1.88c0.12,1.35-1.4,25.49-1.4,26.16" /><path d="M20.41,29.17c5.43-0.65,15.09-1.83,20.32-2.53" /><path d="M20.52,41.98c7.36-1.26,13.06-1.72,19.57-2.3" /></g><g><path d="M64.44,14.51c0.44,0.55,0.88,1.74,0.88,2.48c0,0.74-0.15,22.54,0,23.28" /><path d="M66.05,15.66c2.49-0.11,19.71-2.79,21.99-2.92c1.9-0.11,2.98,1.15,2.97,1.8c-0.49,19.46-0.5,62.79-0.5,76.9c0,10.81-7.45,2.16-8.9,0.86" /><path d="M66.49,26.22c3.38,0,19.09-2.24,22.9-2.24" /><path d="M66.05,37.76c4.99,0,16.59-2.06,23.05-2.06" /></g></g><g><g p5:partial xmlns:p5="http://kanjivg.tagaini.net"><path d="M36.6,54.51c0.65,0.23,2.76,0.3,3.42,0.23c8.37-0.84,16.05-1.75,28.69-2.56c1-0.06,1.91,0.05,2.74,0.24" /><path d="M52.93,55.08c0.55,0.55,1.09,1.09,1.09,2c0,3.08,0.27,22.21,0.14,25.29" /><path d="M37.74,68.36c0.63,0.25,2.7,0.39,3.33,0.33c6.34-0.61,19.51-2.08,26.01-2.44c0.78-0.04,2.5-0.1,3.67,0.12" /><path d="M30.28,83.93c0.71,0.14,3.45,0.19,4.65,0.11c11.2-0.68,24.94-2.15,38.3-2.2c1.94-0.01,4.27,0.23,5.24,0.45" /></g><g><path d="M61.85,72.43c2.96,1.24,5.51,3.88,6.14,5.44" /></g></g></g></g><g fill="none" stroke="#000" stroke-width="5" stroke-linecap="round" stroke-linejoin="round"><g><g><g><path d="M18.39,15.29c0.73,0.46,1.28,2.98,1.43,3.9c0.15,0.93-0.09,72.14-0.24,77.94" stroke-dasharray="82.16" stroke-dashoffset="82.16"><animate id="0" attributeName="stroke-dashoffset" values="82.16;0" dur="0.62s" fill="freeze" begin="0s;95a0.click" /></path><path d="M20.02,16.81c2.21-0.11,17.5-2.38,19.51-2.51c1.68-0.11,2.55,1,2.63,1.88c0.12,1.35-1.4,25.49-1.4,26.16" stroke-dasharray="49.45" stroke-dashoffset="49.45"><animate attributeName="stroke-dashoffset" values="49.45" fill="freeze" begin="95a0.click" /><animate id="1" attributeName="stroke-dashoffset" values="49.45;0" dur="0.49s" fill="freeze" begin="0.end" /></path><path d="M20.41,29.17c5.43-0.65,15.09-1.83,20.32-2.53" stroke-dasharray="20.48" stroke-dashoffset="20.48"><animate attributeName="stroke-dashoffset" values="20.48" fill="freeze" begin="95a0.click" /><animate id="2" attributeName="stroke-dashoffset" values="20.48;0" dur="0.2s" fill="freeze" begin="1.end" /></path><path d="M20.52,41.98c7.36-1.26,13.06-1.72,19.57-2.3" stroke-dasharray="19.71" stroke-dashoffset="19.71"><animate attributeName="stroke-dashoffset" values="19.71" fill="freeze" begin="95a0.click" /><animate id="3" attributeName="stroke-dashoffset" values="19.71;0" dur="0.2s" fill="freeze" begin="2.end" /></path></g><g><path d="M64.44,14.51c0.44,0.55,0.88,1.74,0.88,2.48c0,0.74-0.15,22.54,0,23.28" stroke-dasharray="25.95" stroke-dashoffset="25.95"><animate attributeName="stroke-dashoffset" values="25.95" fill="freeze" begin="95a0.click" /><animate id="4" attributeName="stroke-dashoffset" values="25.95;0" dur="0.26s" fill="freeze" begin="3.end" /></path><path d="M66.05,15.66c2.49-0.11,19.71-2.79,21.99-2.92c1.9-0.11,2.98,1.15,2.97,1.8c-0.49,19.46-0.5,62.79-0.5,76.9c0,10.81-7.45,2.16-8.9,0.86" stroke-dasharray="117.42" stroke-dashoffset="117.42"><animate attributeName="stroke-dashoffset" values="117.42" fill="freeze" begin="95a0.click" /><animate id="5" attributeName="stroke-dashoffset" values="117.42;0" dur="0.88s" fill="freeze" begin="4.end" /></path><path d="M66.49,26.22c3.38,0,19.09-2.24,22.9-2.24" stroke-dasharray="23.02" stroke-dashoffset="23.02"><animate attributeName="stroke-dashoffset" values="23.02" fill="freeze" begin="95a0.click" /><animate id="6" attributeName="stroke-dashoffset" values="23.02;0" dur="0.23s" fill="freeze" begin="5.end" /></path><path d="M66.05,37.76c4.99,0,16.59-2.06,23.05-2.06" stroke-dasharray="23.15" stroke-dashoffset="23.15"><animate attributeName="stroke-dashoffset" values="23.15" fill="freeze" begin="95a0.click" /><animate id="7" attributeName="stroke-dashoffset" values="23.15;0" dur="0.23s" fill="freeze" begin="6.end" /></path></g></g><g><g p5:partial xmlns:p5="http://kanjivg.tagaini.net"><path d="M36.6,54.51c0.65,0.23,2.76,0.3,3.42,0.23c8.37-0.84,16.05-1.75,28.69-2.56c1-0.06,1.91,0.05,2.74,0.24" stroke-dasharray="35.01" stroke-dashoffset="35.01"><animate attributeName="stroke-dashoffset" values="35.01" fill="freeze" begin="95a0.click" /><animate id="8" attributeName="stroke-dashoffset" values="35.01;0" dur="0.35s" fill="freeze" begin="7.end" /></path><path d="M52.93,55.08c0.55,0.55,1.09,1.09,1.09,2c0,3.08,0.27,22.21,0.14,25.29" stroke-dasharray="27.64" stroke-dashoffset="27.64"><animate attributeName="stroke-dashoffset" values="27.64" fill="freeze" begin="95a0.click" /><animate id="9" attributeName="stroke-dashoffset" values="27.64;0" dur="0.28s" fill="freeze" begin="8.end" /></path><path d="M37.74,68.36c0.63,0.25,2.7,0.39,3.33,0.33c6.34-0.61,19.51-2.08,26.01-2.44c0.78-0.04,2.5-0.1,3.67,0.12" stroke-dasharray="33.17" stroke-dashoffset="33.17"><animate attributeName="stroke-dashoffset" values="33.17" fill="freeze" begin="95a0.click" /><animate id="10" attributeName="stroke-dashoffset" values="33.17;0" dur="0.33s" fill="freeze" begin="9.end" /></path><path d="M30.28,83.93c0.71,0.14,3.45,0.19,4.65,0.11c11.2-0.68,24.94-2.15,38.3-2.2c1.94-0.01,4.27,0.23,5.24,0.45" stroke-dasharray="48.29" stroke-dashoffset="48.29"><animate attributeName="stroke-dashoffset" values="48.29" fill="freeze" begin="95a0.click" /><animate id="11" attributeName="stroke-dashoffset" values="48.29;0" dur="0.48s" fill="freeze" begin="10.end" /></path></g><g><path d="M61.85,72.43c2.96,1.24,5.51,3.88,6.14,5.44" stroke-dasharray="8.36" stroke-dashoffset="8.36"><animate attributeName="stroke-dashoffset" values="8.36" fill="freeze" begin="95a0.click" /><animate id="12" attributeName="stroke-dashoffset" values="8.36;0" dur="0.08s" fill="freeze" begin="11.end" /></path></g></g></g></g></svg>