<svg xmlns="http://www.w3.org/2000/svg" width="109" height="109" viewBox="0 0 109 109" id="95a2"><g fill="none" stroke="#666" stroke-width="9" stroke-linecap="round" stroke-linejoin="round"><g><g><g><path d="M18.39,15.29c0.91,0.91,1.43,2.47,1.43,3.4c0,3.03,0.01,51.35,0.01,70.18c0,3.28,0,5.66,0,6.76" /><path d="M20.02,17.08c2.11-0.09,15.2-2.02,20.11-2.62c2.68-0.32,4.58,0.07,4.55,3.04c-0.04,3.63-0.39,12.69-0.67,19.52c-0.04,0.91-0.14,1.81-0.14,2.41" /><path d="M20.95,27.39c6.67-0.89,15.67-2.14,22.38-2.76" /><path d="M21.02,38.98c8.11-1.15,14.64-2.03,21.81-2.56" /></g><g><path d="M63.69,13.01c0.84,0.84,1.13,1.74,1.13,2.98c0,0.56-0.02,13.04-0.04,19.14c0,1.92-0.01,3.2-0.01,3.29" /><path d="M65.55,14.66c3.51-0.46,15.87-2.38,20.6-2.99c3.21-0.41,4.62,0.61,4.55,3.96c-0.41,20.46,0.05,63.63,0.05,77.57c0,9.05-5.14,3-8.65-0.14" /><path d="M65.99,24.72c4.76-0.22,19.09-1.99,22.9-1.99" /><path d="M66.05,36.26c6.7-0.76,14.2-1.76,23.05-2.06" /></g></g><g p4:phon="关" xmlns:p4="http://kanjivg.tagaini.net"><path d="M41.85,44.67c1.66,1.34,4.28,5.52,4.69,7.61" /><path d="M61.7,42.39c0.02,0.24,0.11,0.63-0.03,0.95c-1.17,2.65-2.57,5.44-6.01,9.12" /><g><path d="M37.1,57.11c1.59,0.61,3.52,0.24,5.15,0.06c5.84-0.65,17.04-2.26,22.52-2.75c1.53-0.14,2.95-0.2,4.45,0.15" /><g><path d="M33.29,69.54c1.59,0.64,3.57,0.21,5.2,0.05c7.32-0.73,21.74-2.29,29.12-2.85c2.31-0.17,4.37-0.49,6.64,0.02" /><path d="M52.6,58.34c0.52,0.78,0.75,1.71,0.6,2.65c-2.7,16.76-10.45,24.88-21.78,30.13" /><path d="M53.99,69.34c3.44,3.79,10.28,11.95,14.75,16.17c1.26,1.19,2.76,2.36,4.63,3.11" /></g></g></g></g></g><g fill="none" stroke="#000" stroke-width="5" stroke-linecap="round" stroke-linejoin="round"><g><g><g><path d="M18.39,15.29c0.91,0.91,1.43,2.47,1.43,3.4c0,3.03,0.01,51.35,0.01,70.18c0,3.28,0,5.66,0,6.76" stroke-dasharray="80.71" stroke-dashoffset="80.71"><animate id="0" attributeName="stroke-dashoffset" values="80.71;0" dur="0.61s" fill="freeze" begin="0s;95a2.click" /></path><path d="M20.02,17.08c2.11-0.09,15.2-2.02,20.11-2.62c2.68-0.32,4.58,0.07,4.55,3.04c-0.04,3.63-0.39,12.69-0.67,19.52c-0.04,0.91-0.14,1.81-0.14,2.41" stroke-dasharray="48.78" stroke-dashoffset="48.78"><animate attributeName="stroke-dashoffset" values="48.78" fill="freeze" begin="95a2.click" /><animate id="1" attributeName="stroke-dashoffset" values="48.78;0" dur="0.49s" fill="freeze" begin="0.end" /></path><path d="M20.95,27.39c6.67-0.89,15.67-2.14,22.38-2.76" stroke-dasharray="22.55" stroke-dashoffset="22.55"><animate attributeName="stroke-dashoffset" values="22.55" fill="freeze" begin="95a2.click" /><animate id="2" attributeName="stroke-dashoffset" values="22.55;0" dur="0.23s" fill="freeze" begin="1.end" /></path><path d="M21.02,38.98c8.11-1.15,14.64-2.03,21.81-2.56" stroke-dasharray="21.96" stroke-dashoffset="21.96"><animate attributeName="stroke-dashoffset" values="21.96" fill="freeze" begin="95a2.click" /><animate id="3" attributeName="stroke-dashoffset" values="21.96;0" dur="0.22s" fill="freeze" begin="2.end" /></path></g><g><path d="M63.69,13.01c0.84,0.84,1.13,1.74,1.13,2.98c0,0.56-0.02,13.04-0.04,19.14c0,1.92-0.01,3.2-0.01,3.29" stroke-dasharray="25.71" stroke-dashoffset="25.71"><animate attributeName="stroke-dashoffset" values="25.71" fill="freeze" begin="95a2.click" /><animate id="4" attributeName="stroke-dashoffset" values="25.71;0" dur="0.26s" fill="freeze" begin="3.end" /></path><path d="M65.55,14.66c3.51-0.46,15.87-2.38,20.6-2.99c3.21-0.41,4.62,0.61,4.55,3.96c-0.41,20.46,0.05,63.63,0.05,77.57c0,9.05-5.14,3-8.65-0.14" stroke-dasharray="119.79" stroke-dashoffset="119.79"><animate attributeName="stroke-dashoffset" values="119.79" fill="freeze" begin="95a2.click" /><animate id="5" attributeName="stroke-dashoffset" values="119.79;0" dur="0.9s" fill="freeze" begin="4.end" /></path><path d="M65.99,24.72c4.76-0.22,19.09-1.99,22.9-1.99" stroke-dasharray="22.99" stroke-dashoffset="22.99"><animate attributeName="stroke-dashoffset" values="22.99" fill="freeze" begin="95a2.click" /><animate id="6" attributeName="stroke-dashoffset" values="22.99;0" dur="0.23s" fill="freeze" begin="5.end" /></path><path d="M66.05,36.26c6.7-0.76,14.2-1.76,23.05-2.06" stroke-dasharray="23.15" stroke-dashoffset="23.15"><animate attributeName="stroke-dashoffset" values="23.15" fill="freeze" begin="95a2.click" /><animate id="7" attributeName="stroke-dashoffset" values="23.15;0" dur="0.23s" fill="freeze" begin="6.end" /></path></g></g><g p4:phon="关" xmlns:p4="http://kanjivg.tagaini.net"><path d="M41.85,44.67c1.66,1.34,4.28,5.52,4.69,7.61" stroke-dasharray="9.04" stroke-dashoffset="9.04"><animate attributeName="stroke-dashoffset" values="9.04" fill="freeze" begin="95a2.click" /><animate id="8" attributeName="stroke-dashoffset" values="9.04;0" dur="0.09s" fill="freeze" begin="7.end" /></path><path d="M61.7,42.39c0.02,0.24,0.11,0.63-0.03,0.95c-1.17,2.65-2.57,5.44-6.01,9.12" stroke-dasharray="11.95" stroke-dashoffset="11.95"><animate attributeName="stroke-dashoffset" values="11.95" fill="freeze" begin="95a2.click" /><animate id="9" attributeName="stroke-dashoffset" values="11.95;0" dur="0.12s" fill="freeze" begin="8.end" /></path><g><path d="M37.1,57.11c1.59,0.61,3.52,0.24,5.15,0.06c5.84-0.65,17.04-2.26,22.52-2.75c1.53-0.14,2.95-0.2,4.45,0.15" stroke-dasharray="32.36" stroke-dashoffset="32.36"><animate attributeName="stroke-dashoffset" values="32.36" fill="freeze" begin="95a2.click" /><animate id="10" attributeName="stroke-dashoffset" values="32.36;0" dur="0.32s" fill="freeze" begin="9.end" /></path><g><path d="M33.29,69.54c1.59,0.64,3.57,0.21,5.2,0.05c7.32-0.73,21.74-2.29,29.12-2.85c2.31-0.17,4.37-0.49,6.64,0.02" stroke-dasharray="41.19" stroke-dashoffset="41.19"><animate attributeName="stroke-dashoffset" values="41.19" fill="freeze" begin="95a2.click" /><animate id="11" attributeName="stroke-dashoffset" values="41.19;0" dur="0.41s" fill="freeze" begin="10.end" /></path><path d="M52.6,58.34c0.52,0.78,0.75,1.71,0.6,2.65c-2.7,16.76-10.45,24.88-21.78,30.13" stroke-dasharray="41.77" stroke-dashoffset="41.77"><animate attributeName="stroke-dashoffset" values="41.77" fill="freeze" begin="95a2.click" /><animate id="12" attributeName="stroke-dashoffset" values="41.77;0" dur="0.42s" fill="freeze" begin="11.end" /></path><path d="M53.99,69.34c3.44,3.79,10.28,11.95,14.75,16.17c1.26,1.19,2.76,2.36,4.63,3.11" stroke-dasharray="27.5" stroke-dashoffset="27.5"><animate attributeName="stroke-dashoffset" values="27.5" fill="freeze" begin="95a2.click" /><animate id="13" attributeName="stroke-dashoffset" values="27.5;0" dur="0.28s" fill="freeze" begin="12.end" /></path></g></g></g></g></g></svg>