<svg xmlns="http://www.w3.org/2000/svg" width="109" height="109" viewBox="0 0 109 109" id="95b9"><g fill="none" stroke="#666" stroke-width="9" stroke-linecap="round" stroke-linejoin="round"><g><g><g><path d="M18.39,14.79c0.73,0.46,1.28,2.98,1.43,3.9c0.15,0.93-0.09,72.64-0.24,78.44" /><path d="M20.02,17.58c2.44-0.1,18.27-2.66,20.49-2.78c1.85-0.1,2.81,0.91,2.9,1.71c0.14,1.23-1.54,21.32-1.54,21.92" /><path d="M20.45,27.39c5.99-0.59,15.62-1.62,21.38-2.26" /><path d="M20.02,38.48c8.11-1.15,13.39-2.03,20.56-2.56" /></g><g><path d="M64.44,14.01c0.44,0.55,0.88,1.74,0.88,2.48c0,0.74,0.35,21.04,0.5,21.78" /><path d="M65.55,15.16c2.49-0.11,20.21-2.79,22.49-2.92c1.9-0.11,2.98,1.15,2.97,1.8c-0.49,19.46-0.5,62.79-0.5,76.9c0,13.56-6.95,3.66-8.4,2.36" /><path d="M65.99,24.72c3.38,0,19.59-1.74,23.4-1.74" /><path d="M66.55,34.76c4.99,0,17.09-1.06,23.55-1.06" /></g></g><g><g><path d="M31.24,46.38c0.82,0.4,3,0.87,4.74,0.7c11.77-1.2,26.26-3.21,36.82-3.79c1.82-0.1,3.28,0.26,4.92,0.58" /><path d="M52.97,37.25c0.28,0.72,0.01,1.81-0.39,2.62C46.71,51.7,39.5,59.36,26.75,66.29" /><path d="M57.86,44.84c4.48,3.91,14.92,13.85,19.39,16.47c1.52,0.89,2.05,1.02,2.74,1.11" /></g><g><g><path d="M38.44,61.46c0.43,0.43,0.85,1.35,0.86,1.97c0.01,0.62,2.75,18.56,2.9,19.17" /><path d="M39.99,62.43c2.39-0.29,24.1-2.17,26.27-2.46c1.81-0.24,2.7,1.08,2.53,2.52c-0.34,2.94-1.29,10.49-2.36,17.53" /><path d="M41.07,70.96c3.23-0.29,22.76-2.38,26.42-2.7" /><path d="M42.61,79.99c4.98-0.6,19.44-1.82,23.35-2.17" /></g><path d="M52.67,52.59c0.54,0.75,0.97,1.63,1,2.78c0.14,5.15,0.12,26,0.12,29.5c0,5.97,1.71,7.16,10.78,7.16c7.68,0,9.66-1.28,9.66-6.99" /></g></g></g></g><g fill="none" stroke="#000" stroke-width="5" stroke-linecap="round" stroke-linejoin="round"><g><g><g><path d="M18.39,14.79c0.73,0.46,1.28,2.98,1.43,3.9c0.15,0.93-0.09,72.64-0.24,78.44" stroke-dasharray="82.66" stroke-dashoffset="82.66"><animate id="0" attributeName="stroke-dashoffset" values="82.66;0" dur="0.62s" fill="freeze" begin="0s;95b9.click" /></path><path d="M20.02,17.58c2.44-0.1,18.27-2.66,20.49-2.78c1.85-0.1,2.81,0.91,2.9,1.71c0.14,1.23-1.54,21.32-1.54,21.92" stroke-dasharray="46.34" stroke-dashoffset="46.34"><animate attributeName="stroke-dashoffset" values="46.34" fill="freeze" begin="95b9.click" /><animate id="1" attributeName="stroke-dashoffset" values="46.34;0" dur="0.46s" fill="freeze" begin="0.end" /></path><path d="M20.45,27.39c5.99-0.59,15.62-1.62,21.38-2.26" stroke-dasharray="21.5" stroke-dashoffset="21.5"><animate attributeName="stroke-dashoffset" values="21.5" fill="freeze" begin="95b9.click" /><animate id="2" attributeName="stroke-dashoffset" values="21.5;0" dur="0.22s" fill="freeze" begin="1.end" /></path><path d="M20.02,38.48c8.11-1.15,13.39-2.03,20.56-2.56" stroke-dasharray="20.72" stroke-dashoffset="20.72"><animate attributeName="stroke-dashoffset" values="20.72" fill="freeze" begin="95b9.click" /><animate id="3" attributeName="stroke-dashoffset" values="20.72;0" dur="0.21s" fill="freeze" begin="2.end" /></path></g><g><path d="M64.44,14.01c0.44,0.55,0.88,1.74,0.88,2.48c0,0.74,0.35,21.04,0.5,21.78" stroke-dasharray="24.45" stroke-dashoffset="24.45"><animate attributeName="stroke-dashoffset" values="24.45" fill="freeze" begin="95b9.click" /><animate id="4" attributeName="stroke-dashoffset" values="24.45;0" dur="0.24s" fill="freeze" begin="3.end" /></path><path d="M65.55,15.16c2.49-0.11,20.21-2.79,22.49-2.92c1.9-0.11,2.98,1.15,2.97,1.8c-0.49,19.46-0.5,62.79-0.5,76.9c0,13.56-6.95,3.66-8.4,2.36" stroke-dasharray="119.2" stroke-dashoffset="119.2"><animate attributeName="stroke-dashoffset" values="119.2" fill="freeze" begin="95b9.click" /><animate id="5" attributeName="stroke-dashoffset" values="119.2;0" dur="0.9s" fill="freeze" begin="4.end" /></path><path d="M65.99,24.72c3.38,0,19.59-1.74,23.4-1.74" stroke-dasharray="23.47" stroke-dashoffset="23.47"><animate attributeName="stroke-dashoffset" values="23.47" fill="freeze" begin="95b9.click" /><animate id="6" attributeName="stroke-dashoffset" values="23.47;0" dur="0.23s" fill="freeze" begin="5.end" /></path><path d="M66.55,34.76c4.99,0,17.09-1.06,23.55-1.06" stroke-dasharray="23.58" stroke-dashoffset="23.58"><animate attributeName="stroke-dashoffset" values="23.58" fill="freeze" begin="95b9.click" /><animate id="7" attributeName="stroke-dashoffset" values="23.58;0" dur="0.24s" fill="freeze" begin="6.end" /></path></g></g><g><g><path d="M31.24,46.38c0.82,0.4,3,0.87,4.74,0.7c11.77-1.2,26.26-3.21,36.82-3.79c1.82-0.1,3.28,0.26,4.92,0.58" stroke-dasharray="46.82" stroke-dashoffset="46.82"><animate attributeName="stroke-dashoffset" values="46.82" fill="freeze" begin="95b9.click" /><animate id="8" attributeName="stroke-dashoffset" values="46.82;0" dur="0.47s" fill="freeze" begin="7.end" /></path><path d="M52.97,37.25c0.28,0.72,0.01,1.81-0.39,2.62C46.71,51.7,39.5,59.36,26.75,66.29" stroke-dasharray="40.34" stroke-dashoffset="40.34"><animate attributeName="stroke-dashoffset" values="40.34" fill="freeze" begin="95b9.click" /><animate id="9" attributeName="stroke-dashoffset" values="40.34;0" dur="0.4s" fill="freeze" begin="8.end" /></path><path d="M57.86,44.84c4.48,3.91,14.92,13.85,19.39,16.47c1.52,0.89,2.05,1.02,2.74,1.11" stroke-dasharray="28.45" stroke-dashoffset="28.45"><animate attributeName="stroke-dashoffset" values="28.45" fill="freeze" begin="95b9.click" /><animate id="10" attributeName="stroke-dashoffset" values="28.45;0" dur="0.28s" fill="freeze" begin="9.end" /></path></g><g><g><path d="M38.44,61.46c0.43,0.43,0.85,1.35,0.86,1.97c0.01,0.62,2.75,18.56,2.9,19.17" stroke-dasharray="21.58" stroke-dashoffset="21.58"><animate attributeName="stroke-dashoffset" values="21.58" fill="freeze" begin="95b9.click" /><animate id="11" attributeName="stroke-dashoffset" values="21.58;0" dur="0.22s" fill="freeze" begin="10.end" /></path><path d="M39.99,62.43c2.39-0.29,24.1-2.17,26.27-2.46c1.81-0.24,2.7,1.08,2.53,2.52c-0.34,2.94-1.29,10.49-2.36,17.53" stroke-dasharray="48.29" stroke-dashoffset="48.29"><animate attributeName="stroke-dashoffset" values="48.29" fill="freeze" begin="95b9.click" /><animate id="12" attributeName="stroke-dashoffset" values="48.29;0" dur="0.48s" fill="freeze" begin="11.end" /></path><path d="M41.07,70.96c3.23-0.29,22.76-2.38,26.42-2.7" stroke-dasharray="26.56" stroke-dashoffset="26.56"><animate attributeName="stroke-dashoffset" values="26.56" fill="freeze" begin="95b9.click" /><animate id="13" attributeName="stroke-dashoffset" values="26.56;0" dur="0.27s" fill="freeze" begin="12.end" /></path><path d="M42.61,79.99c4.98-0.6,19.44-1.82,23.35-2.17" stroke-dasharray="23.45" stroke-dashoffset="23.45"><animate attributeName="stroke-dashoffset" values="23.45" fill="freeze" begin="95b9.click" /><animate id="14" attributeName="stroke-dashoffset" values="23.45;0" dur="0.23s" fill="freeze" begin="13.end" /></path></g><path d="M52.67,52.59c0.54,0.75,0.97,1.63,1,2.78c0.14,5.15,0.12,26,0.12,29.5c0,5.97,1.71,7.16,10.78,7.16c7.68,0,9.66-1.28,9.66-6.99" stroke-dasharray="62.07" stroke-dashoffset="62.07"><animate attributeName="stroke-dashoffset" values="62.07" fill="freeze" begin="95b9.click" /><animate id="15" attributeName="stroke-dashoffset" values="62.07;0" dur="0.47s" fill="freeze" begin="14.end" /></path></g></g></g></g></svg>