<svg xmlns="http://www.w3.org/2000/svg" width="109" height="109" viewBox="0 0 109 109" id="95e1"><g fill="none" stroke="#666" stroke-width="9" stroke-linecap="round" stroke-linejoin="round"><g><g><g><path d="M17.89,14.79c0.7,0.44,1.68,3.32,1.82,4.2c0.14,0.89-0.09,72.86-0.23,78.4" /><path d="M19.9,17.45c2.32-0.1,18.88-2.56,21-2.68c1.76-0.1,2.68,0.87,2.76,1.63c0.13,1.17-1.01,12.17-1.33,20.04" /><path d="M20.31,26.76c5.71-0.56,16.85-1.52,22.35-2.13" /><path d="M19.9,36.76c7.73-1.1,14.72-1.93,21.56-2.44" /></g><g><path d="M64.44,14.01c0.44,0.55,0.88,1.74,0.88,2.48c0,0.74,0.21,18.31,0.21,18.67" /><path d="M66.05,15.66c2.49-0.11,19.71-2.79,21.99-2.92c1.9-0.11,2.98,1.15,2.97,1.8c-0.49,19.46-0.5,64.29-0.5,78.4c0,10.56-6.95,1.66-8.4,0.36" /><path d="M65.49,24.72c3.38,0,21.09-1.74,24.9-1.74" /><path d="M66.05,34.26c4.99,0,18.09-1.06,24.55-1.06" /></g></g><g><g><g><path d="M33.64,42.45c0.26,0.2,0.56,0.35,0.64,0.61c0.74,2.27,2.11,6.12,2.86,9.45" /><path d="M35.27,43.17c4.83-0.48,8.99-0.83,13.44-1.31c1.12-0.12,1.79,0.56,1.63,1.11c-0.67,2.29-0.92,3.34-2.1,7.15" /><path d="M37.69,51.62c3.6-0.29,7.07-0.78,12.02-1.23" /></g><g><path d="M56.24,41.41c0.23,0.21,0.92,0.99,0.99,1.27c0.66,2.44,1.33,4.69,2,8.28" /><path d="M57.44,41.96c5.48-0.57,10.72-1.09,14.68-1.61c0.99-0.13,1.59,0.6,1.45,1.2c-0.59,2.46-1.71,4.41-2.49,7.08" /><path d="M59.05,49.68c4.21-0.2,7.57-0.66,13.78-0.74" /></g></g><g><g p6:part="1" xmlns:p6="http://kanjivg.tagaini.net"><g p6:partial><path d="M36.65,57.48c0.26,0.34,0.74,0.93,0.88,1.35c1.17,3.47,1.65,10.45,2.39,16.89" /><path d="M38.33,58.3c9.74-1.16,23.83-2.38,30.53-2.98c2.46-0.22,3.95,1.47,3.88,2.93c-0.17,3.47-2.81,14.24-3.25,15.69" /><path d="M39.81,66.21c2.93-0.28,27.48-2.25,31.55-2.06" /><path d="M40.27,74.07c10.05-0.93,20.01-1.33,29.29-2" /></g></g><g><path d="M29.44,83.33c1.4,0.49,3.98,0.57,5.38,0.49c7.79-0.45,23.82-2.66,41.33-3.34c2.34-0.09,3.74,0.24,4.91,0.48" /></g><g p6:part="2" xmlns:p6="http://kanjivg.tagaini.net"><g><path d="M53.5,58.19c0.5,0.26,0.82,0.98,0.82,1.86c0.03,4.46,0.15,36.46,0.16,37.91" /></g></g></g></g></g></g><g fill="none" stroke="#000" stroke-width="5" stroke-linecap="round" stroke-linejoin="round"><g><g><g><path d="M17.89,14.79c0.7,0.44,1.68,3.32,1.82,4.2c0.14,0.89-0.09,72.86-0.23,78.4" stroke-dasharray="83.03" stroke-dashoffset="83.03"><animate id="0" attributeName="stroke-dashoffset" values="83.03;0" dur="0.62s" fill="freeze" begin="0s;95e1.click" /></path><path d="M19.9,17.45c2.32-0.1,18.88-2.56,21-2.68c1.76-0.1,2.68,0.87,2.76,1.63c0.13,1.17-1.01,12.17-1.33,20.04" stroke-dasharray="44.77" stroke-dashoffset="44.77"><animate attributeName="stroke-dashoffset" values="44.77" fill="freeze" begin="95e1.click" /><animate id="1" attributeName="stroke-dashoffset" values="44.77;0" dur="0.45s" fill="freeze" begin="0.end" /></path><path d="M20.31,26.76c5.71-0.56,16.85-1.52,22.35-2.13" stroke-dasharray="22.45" stroke-dashoffset="22.45"><animate attributeName="stroke-dashoffset" values="22.45" fill="freeze" begin="95e1.click" /><animate id="2" attributeName="stroke-dashoffset" values="22.45;0" dur="0.22s" fill="freeze" begin="1.end" /></path><path d="M19.9,36.76c7.73-1.1,14.72-1.93,21.56-2.44" stroke-dasharray="21.7" stroke-dashoffset="21.7"><animate attributeName="stroke-dashoffset" values="21.7" fill="freeze" begin="95e1.click" /><animate id="3" attributeName="stroke-dashoffset" values="21.7;0" dur="0.22s" fill="freeze" begin="2.end" /></path></g><g><path d="M64.44,14.01c0.44,0.55,0.88,1.74,0.88,2.48c0,0.74,0.21,18.31,0.21,18.67" stroke-dasharray="21.34" stroke-dashoffset="21.34"><animate attributeName="stroke-dashoffset" values="21.34" fill="freeze" begin="95e1.click" /><animate id="4" attributeName="stroke-dashoffset" values="21.34;0" dur="0.21s" fill="freeze" begin="3.end" /></path><path d="M66.05,15.66c2.49-0.11,19.71-2.79,21.99-2.92c1.9-0.11,2.98,1.15,2.97,1.8c-0.49,19.46-0.5,64.29-0.5,78.4c0,10.56-6.95,1.66-8.4,0.36" stroke-dasharray="118.46" stroke-dashoffset="118.46"><animate attributeName="stroke-dashoffset" values="118.46" fill="freeze" begin="95e1.click" /><animate id="5" attributeName="stroke-dashoffset" values="118.46;0" dur="0.89s" fill="freeze" begin="4.end" /></path><path d="M65.49,24.72c3.38,0,21.09-1.74,24.9-1.74" stroke-dasharray="24.96" stroke-dashoffset="24.96"><animate attributeName="stroke-dashoffset" values="24.96" fill="freeze" begin="95e1.click" /><animate id="6" attributeName="stroke-dashoffset" values="24.96;0" dur="0.25s" fill="freeze" begin="5.end" /></path><path d="M66.05,34.26c4.99,0,18.09-1.06,24.55-1.06" stroke-dasharray="24.58" stroke-dashoffset="24.58"><animate attributeName="stroke-dashoffset" values="24.58" fill="freeze" begin="95e1.click" /><animate id="7" attributeName="stroke-dashoffset" values="24.58;0" dur="0.25s" fill="freeze" begin="6.end" /></path></g></g><g><g><g><path d="M33.64,42.45c0.26,0.2,0.56,0.35,0.64,0.61c0.74,2.27,2.11,6.12,2.86,9.45" stroke-dasharray="10.78" stroke-dashoffset="10.78"><animate attributeName="stroke-dashoffset" values="10.78" fill="freeze" begin="95e1.click" /><animate id="8" attributeName="stroke-dashoffset" values="10.78;0" dur="0.11s" fill="freeze" begin="7.end" /></path><path d="M35.27,43.17c4.83-0.48,8.99-0.83,13.44-1.31c1.12-0.12,1.79,0.56,1.63,1.11c-0.67,2.29-0.92,3.34-2.1,7.15" stroke-dasharray="23.25" stroke-dashoffset="23.25"><animate attributeName="stroke-dashoffset" values="23.25" fill="freeze" begin="95e1.click" /><animate id="9" attributeName="stroke-dashoffset" values="23.25;0" dur="0.23s" fill="freeze" begin="8.end" /></path><path d="M37.69,51.62c3.6-0.29,7.07-0.78,12.02-1.23" stroke-dasharray="12.08" stroke-dashoffset="12.08"><animate attributeName="stroke-dashoffset" values="12.08" fill="freeze" begin="95e1.click" /><animate id="10" attributeName="stroke-dashoffset" values="12.08;0" dur="0.12s" fill="freeze" begin="9.end" /></path></g><g><path d="M56.24,41.41c0.23,0.21,0.92,0.99,0.99,1.27c0.66,2.44,1.33,4.69,2,8.28" stroke-dasharray="10.14" stroke-dashoffset="10.14"><animate attributeName="stroke-dashoffset" values="10.14" fill="freeze" begin="95e1.click" /><animate id="11" attributeName="stroke-dashoffset" values="10.14;0" dur="0.1s" fill="freeze" begin="10.end" /></path><path d="M57.44,41.96c5.48-0.57,10.72-1.09,14.68-1.61c0.99-0.13,1.59,0.6,1.45,1.2c-0.59,2.46-1.71,4.41-2.49,7.08" stroke-dasharray="24.48" stroke-dashoffset="24.48"><animate attributeName="stroke-dashoffset" values="24.48" fill="freeze" begin="95e1.click" /><animate id="12" attributeName="stroke-dashoffset" values="24.48;0" dur="0.24s" fill="freeze" begin="11.end" /></path><path d="M59.05,49.68c4.21-0.2,7.57-0.66,13.78-0.74" stroke-dasharray="13.8" stroke-dashoffset="13.8"><animate attributeName="stroke-dashoffset" values="13.8" fill="freeze" begin="95e1.click" /><animate id="13" attributeName="stroke-dashoffset" values="13.8;0" dur="0.14s" fill="freeze" begin="12.end" /></path></g></g><g><g p6:part="1" xmlns:p6="http://kanjivg.tagaini.net"><g p6:partial><path d="M36.65,57.48c0.26,0.34,0.74,0.93,0.88,1.35c1.17,3.47,1.65,10.45,2.39,16.89" stroke-dasharray="18.7" stroke-dashoffset="18.7"><animate attributeName="stroke-dashoffset" values="18.7" fill="freeze" begin="95e1.click" /><animate id="14" attributeName="stroke-dashoffset" values="18.7;0" dur="0.19s" fill="freeze" begin="13.end" /></path><path d="M38.33,58.3c9.74-1.16,23.83-2.38,30.53-2.98c2.46-0.22,3.95,1.47,3.88,2.93c-0.17,3.47-2.81,14.24-3.25,15.69" stroke-dasharray="52.2" stroke-dashoffset="52.2"><animate attributeName="stroke-dashoffset" values="52.2" fill="freeze" begin="95e1.click" /><animate id="15" attributeName="stroke-dashoffset" values="52.2;0" dur="0.52s" fill="freeze" begin="14.end" /></path><path d="M39.81,66.21c2.93-0.28,27.48-2.25,31.55-2.06" stroke-dasharray="31.62" stroke-dashoffset="31.62"><animate attributeName="stroke-dashoffset" values="31.62" fill="freeze" begin="95e1.click" /><animate id="16" attributeName="stroke-dashoffset" values="31.62;0" dur="0.32s" fill="freeze" begin="15.end" /></path><path d="M40.27,74.07c10.05-0.93,20.01-1.33,29.29-2" stroke-dasharray="29.36" stroke-dashoffset="29.36"><animate attributeName="stroke-dashoffset" values="29.36" fill="freeze" begin="95e1.click" /><animate id="17" attributeName="stroke-dashoffset" values="29.36;0" dur="0.29s" fill="freeze" begin="16.end" /></path></g></g><g><path d="M29.44,83.33c1.4,0.49,3.98,0.57,5.38,0.49c7.79-0.45,23.82-2.66,41.33-3.34c2.34-0.09,3.74,0.24,4.91,0.48" stroke-dasharray="51.85" stroke-dashoffset="51.85"><animate attributeName="stroke-dashoffset" values="51.85" fill="freeze" begin="95e1.click" /><animate id="18" attributeName="stroke-dashoffset" values="51.85;0" dur="0.52s" fill="freeze" begin="17.end" /></path></g><g p6:part="2" xmlns:p6="http://kanjivg.tagaini.net"><g><path d="M53.5,58.19c0.5,0.26,0.82,0.98,0.82,1.86c0.03,4.46,0.15,36.46,0.16,37.91" stroke-dasharray="40.04" stroke-dashoffset="40.04"><animate attributeName="stroke-dashoffset" values="40.04" fill="freeze" begin="95e1.click" /><animate id="19" attributeName="stroke-dashoffset" values="40.04;0" dur="0.4s" fill="freeze" begin="18.end" /></path></g></g></g></g></g></g></svg>