<svg xmlns="http://www.w3.org/2000/svg" width="109" height="109" viewBox="0 0 109 109" id="964c"><g fill="none" stroke="#666" stroke-width="9" stroke-linecap="round" stroke-linejoin="round"><g><g><path d="M16.25,18.25c1.02,0.36,2.35,0.64,3.76,0.4c5.49-0.9,9.8-1.58,12.12-2.45c3.06-1.15,5.62,1.15,4.26,3.83c-1.36,2.68-6.63,16.71-9.01,20.55" /><path d="M27.38,40.59C42,49.5,41,80.5,29.58,72.43" /><path d="M18.04,19.53c0.46,0.97,0.28,2.59,0.5,3.74c0.22,1.15,0,67.8-0.22,74.99" /></g><g><g><path d="M46.96,18.92c1.15,0.47,3.26,0.59,4.41,0.47c10.63-1.14,22.79-2.56,37.64-3.52c1.91-0.12,3.07,0.22,4.03,0.46" /></g><g><g><path d="M67.98,20.88c0.21,0.65,0.25,1.45,0.19,2.02c-0.3,3.36-2.88,12.46-5.23,16.97" /></g><g><path d="M50.76,41.32c0.61,1.3,1.04,1.96,1.22,3.69c1.06,10.49,0.23,41.69,0.48,50.24" /><path d="M52.34,43.39c3.44-0.22,28.89-2.68,32.02-2.94c2.61-0.22,4.29,1.45,4.08,2.74c-0.41,2.6-1.95,35.94-2.27,49.79" /><path d="M52.78,65.2C67,63.75,76.5,63.5,86.73,63.13" /><path d="M53.47,92.37c11.28-0.87,22.28-1.62,32.89-1.64" /></g></g></g></g></g><g fill="none" stroke="#000" stroke-width="5" stroke-linecap="round" stroke-linejoin="round"><g><g><path d="M16.25,18.25c1.02,0.36,2.35,0.64,3.76,0.4c5.49-0.9,9.8-1.58,12.12-2.45c3.06-1.15,5.62,1.15,4.26,3.83c-1.36,2.68-6.63,16.71-9.01,20.55" stroke-dasharray="46.32" stroke-dashoffset="46.32"><animate id="0" attributeName="stroke-dashoffset" values="46.32;0" dur="0.46s" fill="freeze" begin="0s;964c.click" /></path><path d="M27.38,40.59C42,49.5,41,80.5,29.58,72.43" stroke-dasharray="42.79" stroke-dashoffset="42.79"><animate attributeName="stroke-dashoffset" values="42.79" fill="freeze" begin="964c.click" /><animate id="1" attributeName="stroke-dashoffset" values="42.79;0" dur="0.43s" fill="freeze" begin="0.end" /></path><path d="M18.04,19.53c0.46,0.97,0.28,2.59,0.5,3.74c0.22,1.15,0,67.8-0.22,74.99" stroke-dasharray="78.78" stroke-dashoffset="78.78"><animate attributeName="stroke-dashoffset" values="78.78" fill="freeze" begin="964c.click" /><animate id="2" attributeName="stroke-dashoffset" values="78.78;0" dur="0.59s" fill="freeze" begin="1.end" /></path></g><g><g><path d="M46.96,18.92c1.15,0.47,3.26,0.59,4.41,0.47c10.63-1.14,22.79-2.56,37.64-3.52c1.91-0.12,3.07,0.22,4.03,0.46" stroke-dasharray="46.35" stroke-dashoffset="46.35"><animate attributeName="stroke-dashoffset" values="46.35" fill="freeze" begin="964c.click" /><animate id="3" attributeName="stroke-dashoffset" values="46.35;0" dur="0.46s" fill="freeze" begin="2.end" /></path></g><g><g><path d="M67.98,20.88c0.21,0.65,0.25,1.45,0.19,2.02c-0.3,3.36-2.88,12.46-5.23,16.97" stroke-dasharray="19.86" stroke-dashoffset="19.86"><animate attributeName="stroke-dashoffset" values="19.86" fill="freeze" begin="964c.click" /><animate id="4" attributeName="stroke-dashoffset" values="19.86;0" dur="0.2s" fill="freeze" begin="3.end" /></path></g><g><path d="M50.76,41.32c0.61,1.3,1.04,1.96,1.22,3.69c1.06,10.49,0.23,41.69,0.48,50.24" stroke-dasharray="54.17" stroke-dashoffset="54.17"><animate attributeName="stroke-dashoffset" values="54.17" fill="freeze" begin="964c.click" /><animate id="5" attributeName="stroke-dashoffset" values="54.17;0" dur="0.54s" fill="freeze" begin="4.end" /></path><path d="M52.34,43.39c3.44-0.22,28.89-2.68,32.02-2.94c2.61-0.22,4.29,1.45,4.08,2.74c-0.41,2.6-1.95,35.94-2.27,49.79" stroke-dasharray="87.55" stroke-dashoffset="87.55"><animate attributeName="stroke-dashoffset" values="87.55" fill="freeze" begin="964c.click" /><animate id="6" attributeName="stroke-dashoffset" values="87.55;0" dur="0.66s" fill="freeze" begin="5.end" /></path><path d="M52.78,65.2C67,63.75,76.5,63.5,86.73,63.13" stroke-dasharray="34.02" stroke-dashoffset="34.02"><animate attributeName="stroke-dashoffset" values="34.02" fill="freeze" begin="964c.click" /><animate id="7" attributeName="stroke-dashoffset" values="34.02;0" dur="0.34s" fill="freeze" begin="6.end" /></path><path d="M53.47,92.37c11.28-0.87,22.28-1.62,32.89-1.64" stroke-dasharray="32.94" stroke-dashoffset="32.94"><animate attributeName="stroke-dashoffset" values="32.94" fill="freeze" begin="964c.click" /><animate id="8" attributeName="stroke-dashoffset" values="32.94;0" dur="0.33s" fill="freeze" begin="7.end" /></path></g></g></g></g></g></svg>