<svg xmlns="http://www.w3.org/2000/svg" width="109" height="109" viewBox="0 0 109 109" id="9662"><g fill="none" stroke="#666" stroke-width="9" stroke-linecap="round" stroke-linejoin="round"><g><g><path d="M12.17,21.67c1.12,0.14,2.26,0.34,3.33,0.13c6.75-1.3,11.37-2.5,13.92-3.13c3.71-0.92,5.09,1.67,3.92,4.08C31.75,26,26.33,36.17,24,39.5" /><path d="M24,39.5c13.33,8.33,12.25,36,1.67,28.5" /><path d="M13.37,22c0.88,0.88,1.46,2.12,1.46,3.25c0,0.88,0.05,47.33-0.13,64.25c-0.03,2.83-0.06,4.86-0.09,5.75" /></g><g p4:phon="完" xmlns:p4="http://kanjivg.tagaini.net"><g><path d="M62.28,13.92c0.96,0.96,1.44,2.38,1.42,3.5c-0.06,3.51-0.06,5.73-0.06,8.93" /><g><path d="M43.51,28.14c-0.01,4.65-1.62,10.71-3.13,14.23" /><path d="M45,29.25C59,27,77.81,24.5,85.52,24.47c6.73-0.02-0.6,7.57-1.77,8.35" /></g></g><g><g><path d="M51.98,41.59c1.09,0.2,3.09,0.3,4.19,0.2c5.67-0.54,10.33-1.54,14.08-1.89c1.79-0.17,2.92-0.16,3.83-0.06" /><path d="M42.08,56.82c1.56,0.31,4.17,0.5,5.72,0.31c9.69-1.13,24.94-3.76,33.57-4.1c2.59-0.1,4.16,0.15,5.46,0.31" /></g><g><g><path d="M57,59.5c0.62,1,0.64,2.54,0.38,3.67C55.38,72,51.38,85.12,37.67,94" /></g><path d="M67.44,57.87c1.03,1.03,1.51,2.38,1.54,4.06c0.15,7.52-0.15,15.82-0.15,20.93c0,7.88,1.17,10.58,13.44,10.58c11.48,0,13.37-1.7,13.37-8.38" /></g></g></g></g></g><g fill="none" stroke="#000" stroke-width="5" stroke-linecap="round" stroke-linejoin="round"><g><g><path d="M12.17,21.67c1.12,0.14,2.26,0.34,3.33,0.13c6.75-1.3,11.37-2.5,13.92-3.13c3.71-0.92,5.09,1.67,3.92,4.08C31.75,26,26.33,36.17,24,39.5" stroke-dasharray="44.37" stroke-dashoffset="44.37"><animate attributeName="stroke-dashoffset" values="44.37;44.37;0" dur="0.444s" fill="freeze" begin="0s;9662.click" /></path><path d="M24,39.5c13.33,8.33,12.25,36,1.67,28.5" stroke-dasharray="38.742" stroke-dashoffset="38.742"><animate attributeName="stroke-dashoffset" values="38.742" fill="freeze" begin="9662.click" /><animate attributeName="stroke-dashoffset" values="38.742;38.742;0" keyTimes="0;0.534;1" dur="0.831s" fill="freeze" begin="0s;9662.click" /></path><path d="M13.37,22c0.88,0.88,1.46,2.12,1.46,3.25c0,0.88,0.05,47.33-0.13,64.25c-0.03,2.83-0.06,4.86-0.09,5.75" stroke-dasharray="73.652" stroke-dashoffset="73.652"><animate attributeName="stroke-dashoffset" values="73.652" fill="freeze" begin="9662.click" /><animate attributeName="stroke-dashoffset" values="73.652;73.652;0" keyTimes="0;0.6;1" dur="1.385s" fill="freeze" begin="0s;9662.click" /></path></g><g p4:phon="完" xmlns:p4="http://kanjivg.tagaini.net"><g><path d="M62.28,13.92c0.96,0.96,1.44,2.38,1.42,3.5c-0.06,3.51-0.06,5.73-0.06,8.93" stroke-dasharray="12.803" stroke-dashoffset="12.803"><animate attributeName="stroke-dashoffset" values="12.803" fill="freeze" begin="9662.click" /><animate attributeName="stroke-dashoffset" values="12.803;12.803;0" keyTimes="0;0.915;1" dur="1.513s" fill="freeze" begin="0s;9662.click" /></path><g><path d="M43.51,28.14c-0.01,4.65-1.62,10.71-3.13,14.23" stroke-dasharray="14.651" stroke-dashoffset="14.651"><animate attributeName="stroke-dashoffset" values="14.651" fill="freeze" begin="9662.click" /><animate attributeName="stroke-dashoffset" values="14.651;14.651;0" keyTimes="0;0.911;1" dur="1.66s" fill="freeze" begin="0s;9662.click" /></path><path d="M45,29.25C59,27,77.81,24.5,85.52,24.47c6.73-0.02-0.6,7.57-1.77,8.35" stroke-dasharray="52.774" stroke-dashoffset="52.774"><animate attributeName="stroke-dashoffset" values="52.774" fill="freeze" begin="9662.click" /><animate attributeName="stroke-dashoffset" values="52.774;52.774;0" keyTimes="0;0.759;1" dur="2.188s" fill="freeze" begin="0s;9662.click" /></path></g></g><g><g><path d="M51.98,41.59c1.09,0.2,3.09,0.3,4.19,0.2c5.67-0.54,10.33-1.54,14.08-1.89c1.79-0.17,2.92-0.16,3.83-0.06" stroke-dasharray="22.25" stroke-dashoffset="22.25"><animate attributeName="stroke-dashoffset" values="22.25" fill="freeze" begin="9662.click" /><animate attributeName="stroke-dashoffset" values="22.25;22.25;0" keyTimes="0;0.908;1" dur="2.411s" fill="freeze" begin="0s;9662.click" /></path><path d="M42.08,56.82c1.56,0.31,4.17,0.5,5.72,0.31c9.69-1.13,24.94-3.76,33.57-4.1c2.59-0.1,4.16,0.15,5.46,0.31" stroke-dasharray="45.053" stroke-dashoffset="45.053"><animate attributeName="stroke-dashoffset" values="45.053" fill="freeze" begin="9662.click" /><animate attributeName="stroke-dashoffset" values="45.053;45.053;0" keyTimes="0;0.842;1" dur="2.862s" fill="freeze" begin="0s;9662.click" /></path></g><g><g><path d="M57,59.5c0.62,1,0.64,2.54,0.38,3.67C55.38,72,51.38,85.12,37.67,94" stroke-dasharray="41.396" stroke-dashoffset="41.396"><animate attributeName="stroke-dashoffset" values="41.396" fill="freeze" begin="9662.click" /><animate attributeName="stroke-dashoffset" values="41.396;41.396;0" keyTimes="0;0.874;1" dur="3.276s" fill="freeze" begin="0s;9662.click" /></path></g><path d="M67.44,57.87c1.03,1.03,1.51,2.38,1.54,4.06c0.15,7.52-0.15,15.82-0.15,20.93c0,7.88,1.17,10.58,13.44,10.58c11.48,0,13.37-1.7,13.37-8.38" stroke-dasharray="64.623" stroke-dashoffset="64.623"><animate attributeName="stroke-dashoffset" values="64.623" fill="freeze" begin="9662.click" /><animate attributeName="stroke-dashoffset" values="64.623;64.623;0" keyTimes="0;0.871;1" dur="3.762s" fill="freeze" begin="0s;9662.click" /></path></g></g></g></g></g></svg>