<svg xmlns="http://www.w3.org/2000/svg" width="109" height="109" viewBox="0 0 109 109" id="9665"><g fill="none" stroke="#666" stroke-width="6" stroke-linecap="round" stroke-linejoin="round"><g><g><path d="M16.92,21.17c1.58,0.33,3.27,0.16,4.65-0.16c3.65-0.87,8.17-2.11,10.35-2.84c3-1,5.15,1.08,4.17,3.58C35,24.5,30.88,33.62,28,38.5" /><path d="M28,38.5c15.25,10,8.75,37.25-0.08,27.25" /><path d="M17.87,21.5c0.69,0.69,0.96,1.73,0.96,2.75c0,5.8,0.02,46.81,0.03,63.38c0,3.44,0,5.83,0,6.62" /></g><g p4:phon="勹+旧" xmlns:p4="http://kanjivg.tagaini.net"><g><path d="M61.77,16.25c0.05,0.65-0.18,1.76-0.6,2.63C57.12,27.12,52.5,34.5,43.5,43.75" /><path d="M62.43,23.21c2.58,0,18.08-2.17,20.8-2.43c3.02-0.29,4.5,1.15,2.81,3.94C81,33,77.25,37.88,68,46" /></g><g><g><path d="M48.13,51.96c0.83,0.83,1,1.92,1,3.25c0,3.99,0.02,21.29,0.03,32.29c0,2.92,0,5.38,0,7" /></g><g><path d="M62.58,51.8c0.75,0.75,1.06,2.08,1.06,3.68c0,1.26-0.02,34.64-0.02,35.27s-0.19,1.56-0.05,2.82" /><path d="M64.67,52.95c1.88-0.13,13.54-2.09,18.84-2.89c3.22-0.48,4.64-0.3,4.64,3.2c0,5.21-0.03,21.25-0.03,33.37c0,1.81,0,3.54,0,5.12" /><path d="M65,69.72c5.36-0.46,18.49-1.89,21.98-1.89" /><path d="M64.92,89.66c8.71-0.78,14.58-1.53,22.11-1.82" /></g></g></g></g></g><g fill="none" stroke="#000" stroke-width="3" stroke-linecap="round" stroke-linejoin="round"><path d="M16.92,21.17c1.58,0.33,3.27,0.16,4.65-0.16c3.65-0.87,8.17-2.11,10.35-2.84c3-1,5.15,1.08,4.17,3.58C35,24.5,30.88,33.62,28,38.5" stroke-dasharray="41.19" stroke-dashoffset="41.19"><animate attributeName="stroke-dashoffset" values="41.19;41.19;0" dur="0.412s" fill="freeze" begin="0s;9665.click" /></path><path d="M28,38.5c15.25,10,8.75,37.25-0.08,27.25" stroke-dasharray="39.255" stroke-dashoffset="39.255"><animate attributeName="stroke-dashoffset" values="39.255" fill="freeze" begin="9665.click" /><animate attributeName="stroke-dashoffset" values="39.255;39.255;0" keyTimes="0;0.512;1" dur="0.805s" fill="freeze" begin="0s;9665.click" /></path><path d="M17.87,21.5c0.69,0.69,0.96,1.73,0.96,2.75c0,5.8,0.02,46.81,0.03,63.38c0,3.44,0,5.83,0,6.62" stroke-dasharray="72.989" stroke-dashoffset="72.989"><animate attributeName="stroke-dashoffset" values="72.989" fill="freeze" begin="9665.click" /><animate attributeName="stroke-dashoffset" values="72.989;72.989;0" keyTimes="0;0.595;1" dur="1.354s" fill="freeze" begin="0s;9665.click" /></path><path d="M61.77,16.25c0.05,0.65-0.18,1.76-0.6,2.63C57.12,27.12,52.5,34.5,43.5,43.75" stroke-dasharray="33.375" stroke-dashoffset="33.375"><animate attributeName="stroke-dashoffset" values="33.375" fill="freeze" begin="9665.click" /><animate attributeName="stroke-dashoffset" values="33.375;33.375;0" keyTimes="0;0.802;1" dur="1.688s" fill="freeze" begin="0s;9665.click" /></path><path d="M62.43,23.21c2.58,0,18.08-2.17,20.8-2.43c3.02-0.29,4.5,1.15,2.81,3.94C81,33,77.25,37.88,68,46" stroke-dasharray="55.733" stroke-dashoffset="55.733"><animate attributeName="stroke-dashoffset" values="55.733" fill="freeze" begin="9665.click" /><animate attributeName="stroke-dashoffset" values="55.733;55.733;0" keyTimes="0;0.752;1" dur="2.245s" fill="freeze" begin="0s;9665.click" /></path><path d="M48.13,51.96c0.83,0.83,1,1.92,1,3.25c0,3.99,0.02,21.29,0.03,32.29c0,2.92,0,5.38,0,7" stroke-dasharray="42.789" stroke-dashoffset="42.789"><animate attributeName="stroke-dashoffset" values="42.789" fill="freeze" begin="9665.click" /><animate attributeName="stroke-dashoffset" values="42.789;42.789;0" keyTimes="0;0.84;1" dur="2.673s" fill="freeze" begin="0s;9665.click" /></path><path d="M62.58,51.8c0.75,0.75,1.06,2.08,1.06,3.68c0,1.26-0.02,34.64-0.02,35.27s-0.19,1.56-0.05,2.82" stroke-dasharray="42.019" stroke-dashoffset="42.019"><animate attributeName="stroke-dashoffset" values="42.019" fill="freeze" begin="9665.click" /><animate attributeName="stroke-dashoffset" values="42.019;42.019;0" keyTimes="0;0.864;1" dur="3.093s" fill="freeze" begin="0s;9665.click" /></path><path d="M64.67,52.95c1.88-0.13,13.54-2.09,18.84-2.89c3.22-0.48,4.64-0.3,4.64,3.2c0,5.21-0.03,21.25-0.03,33.37c0,1.81,0,3.54,0,5.12" stroke-dasharray="64.584" stroke-dashoffset="64.584"><animate attributeName="stroke-dashoffset" values="64.584" fill="freeze" begin="9665.click" /><animate attributeName="stroke-dashoffset" values="64.584;64.584;0" keyTimes="0;0.864;1" dur="3.579s" fill="freeze" begin="0s;9665.click" /></path><path d="M65,69.72c5.36-0.46,18.49-1.89,21.98-1.89" stroke-dasharray="22.065" stroke-dashoffset="22.065"><animate attributeName="stroke-dashoffset" values="22.065" fill="freeze" begin="9665.click" /><animate attributeName="stroke-dashoffset" values="22.065;22.065;0" keyTimes="0;0.942;1" dur="3.8s" fill="freeze" begin="0s;9665.click" /></path><path d="M64.92,89.66c8.71-0.78,14.58-1.53,22.11-1.82" stroke-dasharray="22.189" stroke-dashoffset="22.189"><animate attributeName="stroke-dashoffset" values="22.189" fill="freeze" begin="9665.click" /><animate attributeName="stroke-dashoffset" values="22.189;22.189;0" keyTimes="0;0.945;1" dur="4.022s" fill="freeze" begin="0s;9665.click" /></path></g></svg>