<svg xmlns="http://www.w3.org/2000/svg" width="109" height="109" viewBox="0 0 109 109" id="966a"><g fill="none" stroke="#666" stroke-width="6" stroke-linecap="round" stroke-linejoin="round"><g><g><path d="M17.42,21.67c1.54,0.74,3.21,0.56,4.75,0.26c5.34-1.05,8.71-1.8,13-2.76c3.09-0.69,4.38,1.44,3.17,3.83c-1.83,3.62-6.21,11.25-8.58,15.5" /><path d="M29.75,38.5c14.5,11.25,9.88,35.88-0.34,26.27" /><path d="M18.62,22.75c1,1,1.21,2,1.21,3.75c0,3.84,0.02,43.8,0.03,60.62c0,4.27,0,7.05,0,7.38" /></g><g p4:phon="立口/否V" xmlns:p4="http://kanjivg.tagaini.net"><g><g><path d="M68.21,16c1.04,1.01,1.57,2.37,1.57,3.42c0,2.39,0,3.91,0,10.4" /><path d="M51.25,31.75c1.9,0.53,3.94,0.67,5.87,0.44c8.75-1.06,18.88-2.43,29.05-3.33c1.93-0.17,3.1-0.1,4.07,0.07" /></g><g><path d="M56.38,39c3.96,4.4,5.76,8.9,6.12,11.8" /><path d="M82.46,34.26c0.41,0.99,0.38,1.72,0.04,2.62c-1.88,4.99-4.5,10.87-7,14.65" /><path d="M45.75,57.26c2.72,0.72,5.4,0.31,8.14,0c11.32-1.32,21.81-3.11,37.12-3.92c2.62-0.14,5.14,0.09,7.74,0.5" /></g></g><g><path d="M54.5,69.61c0.85,0.67,1.33,1.55,1.44,2.63c0.69,4.39,1.27,9.57,1.84,15.24c0.17,1.72,0.33,3.42,0.49,5.03" /><path d="M57,71.19c7.17-1.03,19.58-2.76,26.01-3.55c4.25-0.52,5.67,0.27,4.64,4.65c-1.03,4.38-2.56,9.96-3.78,14.78" /><path d="M59.21,90.45c4.73-0.47,14.11-1.32,23.03-1.87c1.49-0.09,2.95-0.17,4.35-0.23" /></g></g></g></g><g fill="none" stroke="#000" stroke-width="3" stroke-linecap="round" stroke-linejoin="round"><path d="M17.42,21.67c1.54,0.74,3.21,0.56,4.75,0.26c5.34-1.05,8.71-1.8,13-2.76c3.09-0.69,4.38,1.44,3.17,3.83c-1.83,3.62-6.21,11.25-8.58,15.5" stroke-dasharray="42.562" stroke-dashoffset="42.562"><animate attributeName="stroke-dashoffset" values="42.562;42.562;0" dur="0.426s" fill="freeze" begin="0s;966a.click" /></path><path d="M29.75,38.5c14.5,11.25,9.88,35.88-0.34,26.27" stroke-dasharray="38.662" stroke-dashoffset="38.662"><animate attributeName="stroke-dashoffset" values="38.662" fill="freeze" begin="966a.click" /><animate attributeName="stroke-dashoffset" values="38.662;38.662;0" keyTimes="0;0.524;1" dur="0.813s" fill="freeze" begin="0s;966a.click" /></path><path d="M18.62,22.75c1,1,1.21,2,1.21,3.75c0,3.84,0.02,43.8,0.03,60.62c0,4.27,0,7.05,0,7.38" stroke-dasharray="72.069" stroke-dashoffset="72.069"><animate attributeName="stroke-dashoffset" values="72.069" fill="freeze" begin="966a.click" /><animate attributeName="stroke-dashoffset" values="72.069;72.069;0" keyTimes="0;0.6;1" dur="1.355s" fill="freeze" begin="0s;966a.click" /></path><path d="M68.21,16c1.04,1.01,1.57,2.37,1.57,3.42c0,2.39,0,3.91,0,10.4" stroke-dasharray="14.258" stroke-dashoffset="14.258"><animate attributeName="stroke-dashoffset" values="14.258" fill="freeze" begin="966a.click" /><animate attributeName="stroke-dashoffset" values="14.258;14.258;0" keyTimes="0;0.905;1" dur="1.498s" fill="freeze" begin="0s;966a.click" /></path><path d="M51.25,31.75c1.9,0.53,3.94,0.67,5.87,0.44c8.75-1.06,18.88-2.43,29.05-3.33c1.93-0.17,3.1-0.1,4.07,0.07" stroke-dasharray="39.249" stroke-dashoffset="39.249"><animate attributeName="stroke-dashoffset" values="39.249" fill="freeze" begin="966a.click" /><animate attributeName="stroke-dashoffset" values="39.249;39.249;0" keyTimes="0;0.793;1" dur="1.89s" fill="freeze" begin="0s;966a.click" /></path><path d="M56.38,39c3.96,4.4,5.76,8.9,6.12,11.8" stroke-dasharray="13.479" stroke-dashoffset="13.479"><animate attributeName="stroke-dashoffset" values="13.479" fill="freeze" begin="966a.click" /><animate attributeName="stroke-dashoffset" values="13.479;13.479;0" keyTimes="0;0.933;1" dur="2.025s" fill="freeze" begin="0s;966a.click" /></path><path d="M82.46,34.26c0.41,0.99,0.38,1.72,0.04,2.62c-1.88,4.99-4.5,10.87-7,14.65" stroke-dasharray="18.963" stroke-dashoffset="18.963"><animate attributeName="stroke-dashoffset" values="18.963" fill="freeze" begin="966a.click" /><animate attributeName="stroke-dashoffset" values="18.963;18.963;0" keyTimes="0;0.914;1" dur="2.215s" fill="freeze" begin="0s;966a.click" /></path><path d="M45.75,57.26c2.72,0.72,5.4,0.31,8.14,0c11.32-1.32,21.81-3.11,37.12-3.92c2.62-0.14,5.14,0.09,7.74,0.5" stroke-dasharray="53.302" stroke-dashoffset="53.302"><animate attributeName="stroke-dashoffset" values="53.302" fill="freeze" begin="966a.click" /><animate attributeName="stroke-dashoffset" values="53.302;53.302;0" keyTimes="0;0.806;1" dur="2.748s" fill="freeze" begin="0s;966a.click" /></path><path d="M54.5,69.61c0.85,0.67,1.33,1.55,1.44,2.63c0.69,4.39,1.27,9.57,1.84,15.24c0.17,1.72,0.33,3.42,0.49,5.03" stroke-dasharray="23.493" stroke-dashoffset="23.493"><animate attributeName="stroke-dashoffset" values="23.493" fill="freeze" begin="966a.click" /><animate attributeName="stroke-dashoffset" values="23.493;23.493;0" keyTimes="0;0.921;1" dur="2.983s" fill="freeze" begin="0s;966a.click" /></path><path d="M57,71.19c7.17-1.03,19.58-2.76,26.01-3.55c4.25-0.52,5.67,0.27,4.64,4.65c-1.03,4.38-2.56,9.96-3.78,14.78" stroke-dasharray="50.315" stroke-dashoffset="50.315"><animate attributeName="stroke-dashoffset" values="50.315" fill="freeze" begin="966a.click" /><animate attributeName="stroke-dashoffset" values="50.315;50.315;0" keyTimes="0;0.856;1" dur="3.486s" fill="freeze" begin="0s;966a.click" /></path><path d="M59.21,90.45c4.73-0.47,14.11-1.32,23.03-1.87c1.49-0.09,2.95-0.17,4.35-0.23" stroke-dasharray="27.464" stroke-dashoffset="27.464"><animate attributeName="stroke-dashoffset" values="27.464" fill="freeze" begin="966a.click" /><animate attributeName="stroke-dashoffset" values="27.464;27.464;0" keyTimes="0;0.927;1" dur="3.761s" fill="freeze" begin="0s;966a.click" /></path></g></svg>