<svg xmlns="http://www.w3.org/2000/svg" width="109" height="109" viewBox="0 0 109 109" id="966c"><g fill="none" stroke="#666" stroke-width="9" stroke-linecap="round" stroke-linejoin="round"><g><g><path d="M14.87,15.97c0.77,0.25,1.55,0.57,2.36,0.54c6.52-0.26,10.77-1.76,14.88-2.78c3.49-0.87,6.25,0.75,4.75,3.66c-1.5,2.91-6.36,16.11-9.5,22.7" /><path d="M26.88,40.09c13.59,9.58,11.62,45.66,0.2,33.84" /><path d="M16.04,17.53c0.21,1.47,0.28,2.59,0.5,3.74c0.22,1.15,0,68.8-0.22,75.99" /></g><g><g><path d="M43.34,18.75c0.93,0.33,2.62,0.38,3.55,0.33c10.79-0.6,32.34-3.24,42.37-3.39c1.54-0.02,2.47,0.16,3.24,0.32" /><path d="M47.11,20.26c0.32,0.94,1.26,1.84,1.26,2.94c0,1.1-0.15,47.84-0.15,51.79" /><path d="M48.44,37.38c3.56,0,10.56-1.4,13.51-1.4" /><path d="M48.14,53.8c2.11,0,9.86-1.05,13.6-0.97" /><path d="M38.27,77.32c1.73,0.93,3,1.05,3.95,0.62c3.82-1.76,13.81-6.21,19.67-9.03" /><path d="M60.78,18.23c0.98,0.99,1.08,1.16,1.08,2.25c0,1.2,0.15,69.27,0.15,78.27" /></g><g><path d="M68.49,34.36c1.17,0.28,1.28,0.49,3.64,0.28c4.36-0.39,14.65-2.1,16.25-2.52c1.6-0.42,3.09,1,2.69,2.61C86.25,54,80.75,75.75,66.95,89.28" /><path d="M68.09,40.44c2.57,2,14.19,35.33,23.67,46.59c1.46,1.73,2.37,3.3,3.64,3.96" /></g></g></g></g><g fill="none" stroke="#000" stroke-width="5" stroke-linecap="round" stroke-linejoin="round"><g><g><path d="M14.87,15.97c0.77,0.25,1.55,0.57,2.36,0.54c6.52-0.26,10.77-1.76,14.88-2.78c3.49-0.87,6.25,0.75,4.75,3.66c-1.5,2.91-6.36,16.11-9.5,22.7" stroke-dasharray="50.24" stroke-dashoffset="50.24"><animate id="0" attributeName="stroke-dashoffset" values="50.24;0" dur="0.5s" fill="freeze" begin="0s;966c.click" /></path><path d="M26.88,40.09c13.59,9.58,11.62,45.66,0.2,33.84" stroke-dasharray="45.92" stroke-dashoffset="45.92"><animate attributeName="stroke-dashoffset" values="45.92" fill="freeze" begin="966c.click" /><animate id="1" attributeName="stroke-dashoffset" values="45.92;0" dur="0.46s" fill="freeze" begin="0.end" /></path><path d="M16.04,17.53c0.21,1.47,0.28,2.59,0.5,3.74c0.22,1.15,0,68.8-0.22,75.99" stroke-dasharray="79.77" stroke-dashoffset="79.77"><animate attributeName="stroke-dashoffset" values="79.77" fill="freeze" begin="966c.click" /><animate id="2" attributeName="stroke-dashoffset" values="79.77;0" dur="0.6s" fill="freeze" begin="1.end" /></path></g><g><g><path d="M43.34,18.75c0.93,0.33,2.62,0.38,3.55,0.33c10.79-0.6,32.34-3.24,42.37-3.39c1.54-0.02,2.47,0.16,3.24,0.32" stroke-dasharray="49.36" stroke-dashoffset="49.36"><animate attributeName="stroke-dashoffset" values="49.36" fill="freeze" begin="966c.click" /><animate id="3" attributeName="stroke-dashoffset" values="49.36;0" dur="0.49s" fill="freeze" begin="2.end" /></path><path d="M47.11,20.26c0.32,0.94,1.26,1.84,1.26,2.94c0,1.1-0.15,47.84-0.15,51.79" stroke-dasharray="55.02" stroke-dashoffset="55.02"><animate attributeName="stroke-dashoffset" values="55.02" fill="freeze" begin="966c.click" /><animate id="4" attributeName="stroke-dashoffset" values="55.02;0" dur="0.55s" fill="freeze" begin="3.end" /></path><path d="M48.44,37.38c3.56,0,10.56-1.4,13.51-1.4" stroke-dasharray="13.59" stroke-dashoffset="13.59"><animate attributeName="stroke-dashoffset" values="13.59" fill="freeze" begin="966c.click" /><animate id="5" attributeName="stroke-dashoffset" values="13.59;0" dur="0.14s" fill="freeze" begin="4.end" /></path><path d="M48.14,53.8c2.11,0,9.86-1.05,13.6-0.97" stroke-dasharray="13.64" stroke-dashoffset="13.64"><animate attributeName="stroke-dashoffset" values="13.64" fill="freeze" begin="966c.click" /><animate id="6" attributeName="stroke-dashoffset" values="13.64;0" dur="0.14s" fill="freeze" begin="5.end" /></path><path d="M38.27,77.32c1.73,0.93,3,1.05,3.95,0.62c3.82-1.76,13.81-6.21,19.67-9.03" stroke-dasharray="25.79" stroke-dashoffset="25.79"><animate attributeName="stroke-dashoffset" values="25.79" fill="freeze" begin="966c.click" /><animate id="7" attributeName="stroke-dashoffset" values="25.79;0" dur="0.26s" fill="freeze" begin="6.end" /></path><path d="M60.78,18.23c0.98,0.99,1.08,1.16,1.08,2.25c0,1.2,0.15,69.27,0.15,78.27" stroke-dasharray="80.88" stroke-dashoffset="80.88"><animate attributeName="stroke-dashoffset" values="80.88" fill="freeze" begin="966c.click" /><animate id="8" attributeName="stroke-dashoffset" values="80.88;0" dur="0.61s" fill="freeze" begin="7.end" /></path></g><g><path d="M68.49,34.36c1.17,0.28,1.28,0.49,3.64,0.28c4.36-0.39,14.65-2.1,16.25-2.52c1.6-0.42,3.09,1,2.69,2.61C86.25,54,80.75,75.75,66.95,89.28" stroke-dasharray="85.06" stroke-dashoffset="85.06"><animate attributeName="stroke-dashoffset" values="85.06" fill="freeze" begin="966c.click" /><animate id="9" attributeName="stroke-dashoffset" values="85.06;0" dur="0.64s" fill="freeze" begin="8.end" /></path><path d="M68.09,40.44c2.57,2,14.19,35.33,23.67,46.59c1.46,1.73,2.37,3.3,3.64,3.96" stroke-dasharray="57.81" stroke-dashoffset="57.81"><animate attributeName="stroke-dashoffset" values="57.81" fill="freeze" begin="966c.click" /><animate id="10" attributeName="stroke-dashoffset" values="57.81;0" dur="0.58s" fill="freeze" begin="9.end" /></path></g></g></g></g></svg>