<svg xmlns="http://www.w3.org/2000/svg" width="109" height="109" viewBox="0 0 109 109" id="9672"><g fill="none" stroke="#666" stroke-width="9" stroke-linecap="round" stroke-linejoin="round"><g><g><path d="M14.5,20.75c0.81,0.44,2.06,0.81,3.46,0.58c5.04-0.83,10.38-1.76,12.67-2.62c3.06-1.15,6.12,1.15,4.76,3.83c-1.36,2.68-7.13,15.71-9.51,19.55" /><path d="M25.38,43.09c13.59,9.58,12.37,41.16,1.2,32.84" /><path d="M16.04,21.53c0.21,1.47,0.28,2.59,0.5,3.74c0.22,1.15,0,65.8-0.22,72.99" /></g><g><g p5:part="1" xmlns:p5="http://kanjivg.tagaini.net"><g><path d="M83.95,11.5c0.09,0.32,0.35,0.92-0.18,1.28c-6.62,4.5-16.42,8.63-33.68,12.26" /></g><g p5:part="1"><path d="M42.56,36.08c1.17,0.62,3.31,0.68,4.5,0.62c10.4-0.49,32.19-3.82,40.63-3.74c1.95,0.02,3.13,0.3,4.11,0.61" /></g></g><path d="M40,53.2c1.43,0.76,3.09,0.91,4.52,0.76c13.14-1.38,32.65-3.31,48.06-4.37c2.38-0.16,3.81,0.36,5,0.74" /><path d="M48.92,37.75c1.13,1.48,1.49,1.93,1.61,2.84c1.13,8.52,1.72,26.16,1.91,31.41" /><path d="M84.76,34.75c0.2,1.15,0.27,1.99,0.24,3.43C84.75,48,84,62,82.69,70" /><g p5:part="1" xmlns:p5="http://kanjivg.tagaini.net"><path d="M43.12,72.79c1.24,0.45,3.51,0.56,4.76,0.45c12.12-0.99,31.35-3.14,40.29-3.08c2.07,0.01,3.31,0.21,4.35,0.44" /></g><g p5:part="2" xmlns:p5="http://kanjivg.tagaini.net"><g p5:part="2"><g p5:part="2"><path d="M65.75,23.25c0.96,0.5,1.53,2.25,1.72,3.25s0.19,56,0.19,66" /></g></g><path d="M41.52,94.38c1.44,0.54,4.07,0.69,5.51,0.54c16.21-1.67,32.7-3.15,44.68-3.69c2.39-0.11,4.33,0.26,5.53,0.53" /></g></g></g></g><g fill="none" stroke="#000" stroke-width="5" stroke-linecap="round" stroke-linejoin="round"><g><g><path d="M14.5,20.75c0.81,0.44,2.06,0.81,3.46,0.58c5.04-0.83,10.38-1.76,12.67-2.62c3.06-1.15,6.12,1.15,4.76,3.83c-1.36,2.68-7.13,15.71-9.51,19.55" stroke-dasharray="46.26" stroke-dashoffset="46.26"><animate id="0" attributeName="stroke-dashoffset" values="46.26;0" dur="0.46s" fill="freeze" begin="0s;9672.click" /></path><path d="M25.38,43.09c13.59,9.58,12.37,41.16,1.2,32.84" stroke-dasharray="43.21" stroke-dashoffset="43.21"><animate attributeName="stroke-dashoffset" values="43.21" fill="freeze" begin="9672.click" /><animate id="1" attributeName="stroke-dashoffset" values="43.21;0" dur="0.43s" fill="freeze" begin="0.end" /></path><path d="M16.04,21.53c0.21,1.47,0.28,2.59,0.5,3.74c0.22,1.15,0,65.8-0.22,72.99" stroke-dasharray="76.77" stroke-dashoffset="76.77"><animate attributeName="stroke-dashoffset" values="76.77" fill="freeze" begin="9672.click" /><animate id="2" attributeName="stroke-dashoffset" values="76.77;0" dur="0.58s" fill="freeze" begin="1.end" /></path></g><g><g p5:part="1" xmlns:p5="http://kanjivg.tagaini.net"><g><path d="M83.95,11.5c0.09,0.32,0.35,0.92-0.18,1.28c-6.62,4.5-16.42,8.63-33.68,12.26" stroke-dasharray="37.47" stroke-dashoffset="37.47"><animate attributeName="stroke-dashoffset" values="37.47" fill="freeze" begin="9672.click" /><animate id="3" attributeName="stroke-dashoffset" values="37.47;0" dur="0.37s" fill="freeze" begin="2.end" /></path></g><g p5:part="1"><path d="M42.56,36.08c1.17,0.62,3.31,0.68,4.5,0.62c10.4-0.49,32.19-3.82,40.63-3.74c1.95,0.02,3.13,0.3,4.11,0.61" stroke-dasharray="49.57" stroke-dashoffset="49.57"><animate attributeName="stroke-dashoffset" values="49.57" fill="freeze" begin="9672.click" /><animate id="4" attributeName="stroke-dashoffset" values="49.57;0" dur="0.5s" fill="freeze" begin="3.end" /></path></g></g><path d="M40,53.2c1.43,0.76,3.09,0.91,4.52,0.76c13.14-1.38,32.65-3.31,48.06-4.37c2.38-0.16,3.81,0.36,5,0.74" stroke-dasharray="58" stroke-dashoffset="58"><animate attributeName="stroke-dashoffset" values="58" fill="freeze" begin="9672.click" /><animate id="5" attributeName="stroke-dashoffset" values="58;0" dur="0.58s" fill="freeze" begin="4.end" /></path><path d="M48.92,37.75c1.13,1.48,1.49,1.93,1.61,2.84c1.13,8.52,1.72,26.16,1.91,31.41" stroke-dasharray="34.78" stroke-dashoffset="34.78"><animate attributeName="stroke-dashoffset" values="34.78" fill="freeze" begin="9672.click" /><animate id="6" attributeName="stroke-dashoffset" values="34.78;0" dur="0.35s" fill="freeze" begin="5.end" /></path><path d="M84.76,34.75c0.2,1.15,0.27,1.99,0.24,3.43C84.75,48,84,62,82.69,70" stroke-dasharray="35.37" stroke-dashoffset="35.37"><animate attributeName="stroke-dashoffset" values="35.37" fill="freeze" begin="9672.click" /><animate id="7" attributeName="stroke-dashoffset" values="35.37;0" dur="0.35s" fill="freeze" begin="6.end" /></path><g p5:part="1" xmlns:p5="http://kanjivg.tagaini.net"><path d="M43.12,72.79c1.24,0.45,3.51,0.56,4.76,0.45c12.12-0.99,31.35-3.14,40.29-3.08c2.07,0.01,3.31,0.21,4.35,0.44" stroke-dasharray="49.61" stroke-dashoffset="49.61"><animate attributeName="stroke-dashoffset" values="49.61" fill="freeze" begin="9672.click" /><animate id="8" attributeName="stroke-dashoffset" values="49.61;0" dur="0.5s" fill="freeze" begin="7.end" /></path></g><g p5:part="2" xmlns:p5="http://kanjivg.tagaini.net"><g p5:part="2"><g p5:part="2"><path d="M65.75,23.25c0.96,0.5,1.53,2.25,1.72,3.25s0.19,56,0.19,66" stroke-dasharray="69.78" stroke-dashoffset="69.78"><animate attributeName="stroke-dashoffset" values="69.78" fill="freeze" begin="9672.click" /><animate id="9" attributeName="stroke-dashoffset" values="69.78;0" dur="0.52s" fill="freeze" begin="8.end" /></path></g></g><path d="M41.52,94.38c1.44,0.54,4.07,0.69,5.51,0.54c16.21-1.67,32.7-3.15,44.68-3.69c2.39-0.11,4.33,0.26,5.53,0.53" stroke-dasharray="55.98" stroke-dashoffset="55.98"><animate attributeName="stroke-dashoffset" values="55.98" fill="freeze" begin="9672.click" /><animate id="10" attributeName="stroke-dashoffset" values="55.98;0" dur="0.56s" fill="freeze" begin="9.end" /></path></g></g></g></g></svg>