<svg xmlns="http://www.w3.org/2000/svg" viewBox="0 0 109 109" id="967a"><g fill="none" stroke="#666" stroke-width="6" stroke-linecap="round" stroke-linejoin="round"><g><g><path d="M13.25,19.75c0.88,0.38,2.1,0.6,3.14,0.36c5.86-1.36,11.75-2.93,14.27-3.71c3-0.93,4.6,1.35,3.42,3.6c-1.71,3.25-5.71,10.87-8.58,15.58" /><path d="M25.5,35.58c14.25,7.17,11.88,32.3,0.67,26" /><path d="M15.37,20.37c0.69,0.69,0.96,1.75,0.96,2.53c0,0.81,0.02,47.42,0.03,66.35c0,3.31,0,5.77,0,7" /></g><g p4:partial p4:phon="僉V" xmlns:p4="http://kanjivg.tagaini.net"><g><path d="M62.87,10.75c0.07,0.78,0.08,1.83-0.38,2.88C59.75,19.82,53.25,33,40.96,44.6" /><path d="M61.78,16.3c4.85,3.58,18.01,15.32,24.71,21.22c2.15,1.89,4.21,3.55,6.81,4.79" /></g><g><g><path d="M49.28,43.59c1.35,0.66,3.37,0.35,4.61,0.2c4.47-0.55,13.33-2.2,20-2.91c1.27-0.13,3.49-0.51,4.63-0.14" /></g><g><path d="M43.68,55.68c0.76,0.76,1.2,1.82,1.33,2.52c1.04,5.58,1.53,8.41,2.27,13.06c0.19,1.17,0.39,2.45,0.61,3.92" /><path d="M45.66,57.06c9.99-1.28,26.51-3.15,33.22-3.78c3-0.28,4.75,1.34,4.12,3.67c-1.07,3.95-2.57,7.69-3.97,12.08" /><path d="M48.83,72.51c5.45-0.44,19.11-1.78,28.43-2.59c1.82-0.16,3.45-0.29,4.79-0.38" /></g><g><path d="M61.79,45.07c0.95,0.94,1.36,2.54,1.36,4.4c0,24.76-4.27,38.28-25.15,49.28" /><path d="M62.5,72.53c4.62,4.1,17.21,16.16,22.97,20.88c1.67,1.37,3.43,2.99,5.53,3.65" /></g></g></g></g></g><g fill="none" stroke="#000" stroke-width="3" stroke-linecap="round" stroke-linejoin="round"><path d="M13.25,19.75c0.88,0.38,2.1,0.6,3.14,0.36c5.86-1.36,11.75-2.93,14.27-3.71c3-0.93,4.6,1.35,3.42,3.6c-1.71,3.25-5.71,10.87-8.58,15.58" stroke-dasharray="42.463" stroke-dashoffset="42.463"><animate attributeName="stroke-dashoffset" values="42.463;42.463;0" dur="0.425s" fill="freeze" begin="0s;967a.click" /></path><path d="M25.5,35.58c14.25,7.17,11.88,32.3,0.67,26" stroke-dasharray="37.051" stroke-dashoffset="37.051"><animate attributeName="stroke-dashoffset" values="37.051" fill="freeze" begin="967a.click" /><animate attributeName="stroke-dashoffset" values="37.051;37.051;0" keyTimes="0;0.534;1" dur="0.796s" fill="freeze" begin="0s;967a.click" /></path><path d="M15.37,20.37c0.69,0.69,0.96,1.75,0.96,2.53c0,0.81,0.02,47.42,0.03,66.35c0,3.31,0,5.77,0,7" stroke-dasharray="76.123" stroke-dashoffset="76.123"><animate attributeName="stroke-dashoffset" values="76.123" fill="freeze" begin="967a.click" /><animate attributeName="stroke-dashoffset" values="76.123;76.123;0" keyTimes="0;0.582;1" dur="1.368s" fill="freeze" begin="0s;967a.click" /></path><path d="M62.87,10.75c0.07,0.78,0.08,1.83-0.38,2.88C59.75,19.82,53.25,33,40.96,44.6" stroke-dasharray="40.904" stroke-dashoffset="40.904"><animate attributeName="stroke-dashoffset" values="40.904" fill="freeze" begin="967a.click" /><animate attributeName="stroke-dashoffset" values="40.904;40.904;0" keyTimes="0;0.77;1" dur="1.777s" fill="freeze" begin="0s;967a.click" /></path><path d="M61.78,16.3c4.85,3.58,18.01,15.32,24.71,21.22c2.15,1.89,4.21,3.55,6.81,4.79" stroke-dasharray="40.932" stroke-dashoffset="40.932"><animate attributeName="stroke-dashoffset" values="40.932" fill="freeze" begin="967a.click" /><animate attributeName="stroke-dashoffset" values="40.932;40.932;0" keyTimes="0;0.813;1" dur="2.186s" fill="freeze" begin="0s;967a.click" /></path><path d="M49.28,43.59c1.35,0.66,3.37,0.35,4.61,0.2c4.47-0.55,13.33-2.2,20-2.91c1.27-0.13,3.49-0.51,4.63-0.14" stroke-dasharray="29.55" stroke-dashoffset="29.55"><animate attributeName="stroke-dashoffset" values="29.55" fill="freeze" begin="967a.click" /><animate attributeName="stroke-dashoffset" values="29.55;29.55;0" keyTimes="0;0.881;1" dur="2.482s" fill="freeze" begin="0s;967a.click" /></path><path d="M43.68,55.68c0.76,0.76,1.2,1.82,1.33,2.52c1.04,5.58,1.53,8.41,2.27,13.06c0.19,1.17,0.39,2.45,0.61,3.92" stroke-dasharray="20.112" stroke-dashoffset="20.112"><animate attributeName="stroke-dashoffset" values="20.112" fill="freeze" begin="967a.click" /><animate attributeName="stroke-dashoffset" values="20.112;20.112;0" keyTimes="0;0.925;1" dur="2.683s" fill="freeze" begin="0s;967a.click" /></path><path d="M45.66,57.06c9.99-1.28,26.51-3.15,33.22-3.78c3-0.28,4.75,1.34,4.12,3.67c-1.07,3.95-2.57,7.69-3.97,12.08" stroke-dasharray="52.842" stroke-dashoffset="52.842"><animate attributeName="stroke-dashoffset" values="52.842" fill="freeze" begin="967a.click" /><animate attributeName="stroke-dashoffset" values="52.842;52.842;0" keyTimes="0;0.836;1" dur="3.211s" fill="freeze" begin="0s;967a.click" /></path><path d="M48.83,72.51c5.45-0.44,19.11-1.78,28.43-2.59c1.82-0.16,3.45-0.29,4.79-0.38" stroke-dasharray="33.354" stroke-dashoffset="33.354"><animate attributeName="stroke-dashoffset" values="33.354" fill="freeze" begin="967a.click" /><animate attributeName="stroke-dashoffset" values="33.354;33.354;0" keyTimes="0;0.906;1" dur="3.545s" fill="freeze" begin="0s;967a.click" /></path><path d="M61.79,45.07c0.95,0.94,1.36,2.54,1.36,4.4c0,24.76-4.27,38.28-25.15,49.28" stroke-dasharray="63.881" stroke-dashoffset="63.881"><animate attributeName="stroke-dashoffset" values="63.881" fill="freeze" begin="967a.click" /><animate attributeName="stroke-dashoffset" values="63.881;63.881;0" keyTimes="0;0.881;1" dur="4.025s" fill="freeze" begin="0s;967a.click" /></path><path d="M62.5,72.53c4.62,4.1,17.21,16.16,22.97,20.88c1.67,1.37,3.43,2.99,5.53,3.65" stroke-dasharray="37.716" stroke-dashoffset="37.716"><animate attributeName="stroke-dashoffset" values="37.716" fill="freeze" begin="967a.click" /><animate attributeName="stroke-dashoffset" values="37.716;37.716;0" keyTimes="0;0.914;1" dur="4.402s" fill="freeze" begin="0s;967a.click" /></path></g></svg>