<svg xmlns="http://www.w3.org/2000/svg" width="109" height="109" viewBox="0 0 109 109" id="96b0"><g fill="none" stroke="#666" stroke-width="9" stroke-linecap="round" stroke-linejoin="round"><g><g><path d="M13.37,14.16c1.22,0.47,2.54,0.75,3.88,0.67c5.5-0.32,11.02-1.23,13.39-2.12c3.06-1.15,5.91,1.06,4.76,3.83c-1.65,3.96-7.63,17.71-10.01,21.55" /><path d="M25.38,38.09C38.5,51,36.25,81.25,25.08,70.43" /><path d="M15.04,15.53c0.46,0.72,0.5,3.97,0.5,5.24c0,1.17,0,69.8-0.22,76.99" /></g><g><g><path d="M46.44,13.14c0.28,0.4,0.29,0.67,0.44,1.17c1.26,4.11,2.45,14.48,3.23,22.15" /><path d="M47.74,14.19c9.76-1.03,27-1.29,34.29-2.16c2.68-0.32,4.05,1.81,3.91,2.94c-0.5,4.14-2.25,13.92-3.47,20.84" /><path d="M49.56,24.32c3.18-0.4,31.12-1.87,33.75-2.03" /><path d="M50.6,35.34c7.03-0.44,22.16-1.28,31.87-2" /></g><g><g><g><path d="M48.66,41.6c0.24,0.73,0.31,1.25-0.12,2.06c-1.79,3.34-3.79,6.76-6.22,8.46c-0.5,0.35-0.48,1.68,0,1.82c3.62,1.03,7.45,1.82,9.02,2.78" /><path d="M60.48,44.21c0.25,0.45,0.35,1.93,0,2.41c-5.21,7.1-14.28,17.6-20.04,24.61c-0.81,0.99-0.5,1.51,0.5,1.2c4.22-1.26,16.2-3.89,21.62-5.09" /><path d="M57.33,61.05c2.87,2.15,7.41,8.84,8.12,12.19" /></g><g><path d="M79.66,40.1c0.24,0.73,0.31,1.25-0.12,2.06c-1.79,3.34-5.29,7.59-8.22,9.96c-0.47,0.38-0.48,1.68,0,1.82c2.55,0.73,7.84,1.94,10.02,3.28" /><path d="M91.48,44.21c0.25,0.45,0.35,1.93,0,2.41c-5.21,7.1-14.28,15.6-20.04,22.61c-0.81,0.99-0.5,1.51,0.5,1.2c4.22-1.26,15.2-2.89,20.62-4.09" /><path d="M87.08,59.3c3.13,2.46,8.09,10.11,8.87,13.94" /></g></g><g><path d="M40.64,82.5c0,5.25-4.52,13-5.7,14.5" /><path d="M54.92,81.58c2.48,2.76,4.83,10.34,5.45,14.63" /><path d="M71.78,81.08c2.74,2.63,6.08,11.3,6.77,15.38" /><path d="M87.48,80.83c3.18,2.93,8.22,12.07,9.02,16.63" /></g></g></g></g></g><g fill="none" stroke="#000" stroke-width="5" stroke-linecap="round" stroke-linejoin="round"><path d="M13.37,14.16c1.22,0.47,2.54,0.75,3.88,0.67c5.5-0.32,11.02-1.23,13.39-2.12c3.06-1.15,5.91,1.06,4.76,3.83c-1.65,3.96-7.63,17.71-10.01,21.55" stroke-dasharray="49.25" stroke-dashoffset="49.25"><animate attributeName="stroke-dashoffset" values="49.25;49.25;0" dur="0.492s" fill="freeze" begin="0s;96b0.click" /></path><path d="M25.38,38.09C38.5,51,36.25,81.25,25.08,70.43" stroke-dasharray="44.066" stroke-dashoffset="44.066"><animate attributeName="stroke-dashoffset" values="44.066" fill="freeze" begin="96b0.click" /><animate attributeName="stroke-dashoffset" values="44.066;44.066;0" keyTimes="0;0.527;1" dur="0.933s" fill="freeze" begin="0s;96b0.click" /></path><path d="M15.04,15.53c0.46,0.72,0.5,3.97,0.5,5.24c0,1.17,0,69.8-0.22,76.99" stroke-dasharray="82.285" stroke-dashoffset="82.285"><animate attributeName="stroke-dashoffset" values="82.285" fill="freeze" begin="96b0.click" /><animate attributeName="stroke-dashoffset" values="82.285;82.285;0" keyTimes="0;0.601;1" dur="1.552s" fill="freeze" begin="0s;96b0.click" /></path><path d="M46.44,13.14c0.28,0.4,0.29,0.67,0.44,1.17c1.26,4.11,2.45,14.48,3.23,22.15" stroke-dasharray="23.665" stroke-dashoffset="23.665"><animate attributeName="stroke-dashoffset" values="23.665" fill="freeze" begin="96b0.click" /><animate attributeName="stroke-dashoffset" values="23.665;23.665;0" keyTimes="0;0.868;1" dur="1.789s" fill="freeze" begin="0s;96b0.click" /></path><path d="M47.74,14.19c9.76-1.03,27-1.29,34.29-2.16c2.68-0.32,4.05,1.81,3.91,2.94c-0.5,4.14-2.25,13.92-3.47,20.84" stroke-dasharray="61.029" stroke-dashoffset="61.029"><animate attributeName="stroke-dashoffset" values="61.029" fill="freeze" begin="96b0.click" /><animate attributeName="stroke-dashoffset" values="61.029;61.029;0" keyTimes="0;0.796;1" dur="2.248s" fill="freeze" begin="0s;96b0.click" /></path><path d="M49.56,24.32c3.18-0.4,31.12-1.87,33.75-2.03" stroke-dasharray="33.813" stroke-dashoffset="33.813"><animate attributeName="stroke-dashoffset" values="33.813" fill="freeze" begin="96b0.click" /><animate attributeName="stroke-dashoffset" values="33.813;33.813;0" keyTimes="0;0.869;1" dur="2.586s" fill="freeze" begin="0s;96b0.click" /></path><path d="M50.6,35.34c7.03-0.44,22.16-1.28,31.87-2" stroke-dasharray="31.934" stroke-dashoffset="31.934"><animate attributeName="stroke-dashoffset" values="31.934" fill="freeze" begin="96b0.click" /><animate attributeName="stroke-dashoffset" values="31.934;31.934;0" keyTimes="0;0.89;1" dur="2.905s" fill="freeze" begin="0s;96b0.click" /></path><path d="M48.66,41.6c0.24,0.73,0.31,1.25-0.12,2.06c-1.79,3.34-3.79,6.76-6.22,8.46c-0.5,0.35-0.48,1.68,0,1.82c3.62,1.03,7.45,1.82,9.02,2.78" stroke-dasharray="24.24" stroke-dashoffset="24.24"><animate attributeName="stroke-dashoffset" values="24.24" fill="freeze" begin="96b0.click" /><animate attributeName="stroke-dashoffset" values="24.24;24.24;0" keyTimes="0;0.923;1" dur="3.147s" fill="freeze" begin="0s;96b0.click" /></path><path d="M60.48,44.21c0.25,0.45,0.35,1.93,0,2.41c-5.21,7.1-14.28,17.6-20.04,24.61c-0.81,0.99-0.5,1.51,0.5,1.2c4.22-1.26,16.2-3.89,21.62-5.09" stroke-dasharray="58.664" stroke-dashoffset="58.664"><animate attributeName="stroke-dashoffset" values="58.664" fill="freeze" begin="96b0.click" /><animate attributeName="stroke-dashoffset" values="58.664;58.664;0" keyTimes="0;0.843;1" dur="3.734s" fill="freeze" begin="0s;96b0.click" /></path><path d="M57.33,61.05c2.87,2.15,7.41,8.84,8.12,12.19" stroke-dasharray="14.828" stroke-dashoffset="14.828"><animate attributeName="stroke-dashoffset" values="14.828" fill="freeze" begin="96b0.click" /><animate attributeName="stroke-dashoffset" values="14.828;14.828;0" keyTimes="0;0.962;1" dur="3.882s" fill="freeze" begin="0s;96b0.click" /></path><path d="M79.66,40.1c0.24,0.73,0.31,1.25-0.12,2.06c-1.79,3.34-5.29,7.59-8.22,9.96c-0.47,0.38-0.48,1.68,0,1.82c2.55,0.73,7.84,1.94,10.02,3.28" stroke-dasharray="27.733" stroke-dashoffset="27.733"><animate attributeName="stroke-dashoffset" values="27.733" fill="freeze" begin="96b0.click" /><animate attributeName="stroke-dashoffset" values="27.733;27.733;0" keyTimes="0;0.933;1" dur="4.159s" fill="freeze" begin="0s;96b0.click" /></path><path d="M91.48,44.21c0.25,0.45,0.35,1.93,0,2.41c-5.21,7.1-14.28,15.6-20.04,22.61c-0.81,0.99-0.5,1.51,0.5,1.2c4.22-1.26,15.2-2.89,20.62-4.09" stroke-dasharray="55.962" stroke-dashoffset="55.962"><animate attributeName="stroke-dashoffset" values="55.962" fill="freeze" begin="96b0.click" /><animate attributeName="stroke-dashoffset" values="55.962;55.962;0" keyTimes="0;0.881;1" dur="4.719s" fill="freeze" begin="0s;96b0.click" /></path><path d="M87.08,59.3c3.13,2.46,8.09,10.11,8.87,13.94" stroke-dasharray="16.718" stroke-dashoffset="16.718"><animate attributeName="stroke-dashoffset" values="16.718" fill="freeze" begin="96b0.click" /><animate attributeName="stroke-dashoffset" values="16.718;16.718;0" keyTimes="0;0.966;1" dur="4.886s" fill="freeze" begin="0s;96b0.click" /></path><path d="M40.64,82.5c0,5.25-4.52,13-5.7,14.5" stroke-dasharray="15.766" stroke-dashoffset="15.766"><animate attributeName="stroke-dashoffset" values="15.766" fill="freeze" begin="96b0.click" /><animate attributeName="stroke-dashoffset" values="15.766;15.766;0" keyTimes="0;0.969;1" dur="5.044s" fill="freeze" begin="0s;96b0.click" /></path><path d="M54.92,81.58c2.48,2.76,4.83,10.34,5.45,14.63" stroke-dasharray="15.758" stroke-dashoffset="15.758"><animate attributeName="stroke-dashoffset" values="15.758" fill="freeze" begin="96b0.click" /><animate attributeName="stroke-dashoffset" values="15.758;15.758;0" keyTimes="0;0.97;1" dur="5.202s" fill="freeze" begin="0s;96b0.click" /></path><path d="M71.78,81.08c2.74,2.63,6.08,11.3,6.77,15.38" stroke-dasharray="16.967" stroke-dashoffset="16.967"><animate attributeName="stroke-dashoffset" values="16.967" fill="freeze" begin="96b0.click" /><animate attributeName="stroke-dashoffset" values="16.967;16.967;0" keyTimes="0;0.968;1" dur="5.372s" fill="freeze" begin="0s;96b0.click" /></path><path d="M87.48,80.83c3.18,2.93,8.22,12.07,9.02,16.63" stroke-dasharray="19.109" stroke-dashoffset="19.109"><animate attributeName="stroke-dashoffset" values="19.109" fill="freeze" begin="96b0.click" /><animate attributeName="stroke-dashoffset" values="19.109;19.109;0" keyTimes="0;0.966;1" dur="5.563s" fill="freeze" begin="0s;96b0.click" /></path></g></svg>