<svg xmlns="http://www.w3.org/2000/svg" width="109" height="109" viewBox="0 0 109 109" id="96bc"><g fill="none" stroke="#666" stroke-width="9" stroke-linecap="round" stroke-linejoin="round"><g><g><g><path d="M38.27,10.25c0.22,1.29-0.06,2.98-0.76,4.09c-4.46,7.06-9.89,12.53-20.08,22.12" /><path d="M32.06,25.71c0.87,0.87,0.9,2.17,0.9,3.83c0,5.59,0,17.15,0.01,24.72c0,2.61,0,4.75,0,6" /></g><path d="M59.18,9.75c0.06,0.69-0.02,1.59-0.22,2.18c-1.29,3.76-2.17,5.42-5.12,9.99" /><path d="M33.49,26.12c6.55-0.52,27.56-2.48,39.53-3.61c4.18-0.4,7.26-0.69,8.24-0.79" /><path d="M54.67,26.14c0.78,0.78,1.02,1.73,1.02,3.13c0,4.87-0.06,21-0.06,25.97" /><path d="M34.18,36.35c6.39-0.45,26.1-2.14,36.57-3.05c3.19-0.28,5.51-0.48,6.35-0.56" /><path d="M34.16,46.23c6.64-0.37,25.65-1.75,36.21-2.51c3.44-0.25,5.98-0.44,6.91-0.5" /><path d="M34.16,57.6c6.63-0.53,29.4-1.95,41.96-2.67c4.19-0.24,7.25-0.43,8.19-0.52" /></g><g><path d="M15.38,72.98c4,0.77,7.56,0.38,11.11,0.07c17.04-1.5,42.08-3.23,56.39-3.82c3.83-0.16,7.97-0.22,11.75,0.59" /><path d="M53.09,59.63c0.95,0.95,0.98,2.12,0.98,3.62c0,0.55-0.04,18.95-0.06,29.5C54,95.86,54,98.29,54,99.38" /></g></g></g><g fill="none" stroke="#000" stroke-width="5" stroke-linecap="round" stroke-linejoin="round"><g><g><g><path d="M38.27,10.25c0.22,1.29-0.06,2.98-0.76,4.09c-4.46,7.06-9.89,12.53-20.08,22.12" stroke-dasharray="34.202" stroke-dashoffset="34.202"><animate attributeName="stroke-dashoffset" values="34.202;34.202;0" dur="0.342s" fill="freeze" begin="0s;96bc.click" /></path><path d="M32.06,25.71c0.87,0.87,0.9,2.17,0.9,3.83c0,5.59,0,17.15,0.01,24.72c0,2.61,0,4.75,0,6" stroke-dasharray="34.763" stroke-dashoffset="34.763"><animate attributeName="stroke-dashoffset" values="34.763" fill="freeze" begin="96bc.click" /><animate attributeName="stroke-dashoffset" values="34.763;34.763;0" keyTimes="0;0.496;1" dur="0.69s" fill="freeze" begin="0s;96bc.click" /></path></g><path d="M59.18,9.75c0.06,0.69-0.02,1.59-0.22,2.18c-1.29,3.76-2.17,5.42-5.12,9.99" stroke-dasharray="13.469" stroke-dashoffset="13.469"><animate attributeName="stroke-dashoffset" values="13.469" fill="freeze" begin="96bc.click" /><animate attributeName="stroke-dashoffset" values="13.469;13.469;0" keyTimes="0;0.836;1" dur="0.825s" fill="freeze" begin="0s;96bc.click" /></path><path d="M33.49,26.12c6.55-0.52,27.56-2.48,39.53-3.61c4.18-0.4,7.26-0.69,8.24-0.79" stroke-dasharray="47.973" stroke-dashoffset="47.973"><animate attributeName="stroke-dashoffset" values="47.973" fill="freeze" begin="96bc.click" /><animate attributeName="stroke-dashoffset" values="47.973;47.973;0" keyTimes="0;0.632;1" dur="1.305s" fill="freeze" begin="0s;96bc.click" /></path><path d="M54.67,26.14c0.78,0.78,1.02,1.73,1.02,3.13c0,4.87-0.06,21-0.06,25.97" stroke-dasharray="29.36" stroke-dashoffset="29.36"><animate attributeName="stroke-dashoffset" values="29.36" fill="freeze" begin="96bc.click" /><animate attributeName="stroke-dashoffset" values="29.36;29.36;0" keyTimes="0;0.816;1" dur="1.599s" fill="freeze" begin="0s;96bc.click" /></path><path d="M34.18,36.35c6.39-0.45,26.1-2.14,36.57-3.05c3.19-0.28,5.51-0.48,6.35-0.56" stroke-dasharray="43.073" stroke-dashoffset="43.073"><animate attributeName="stroke-dashoffset" values="43.073" fill="freeze" begin="96bc.click" /><animate attributeName="stroke-dashoffset" values="43.073;43.073;0" keyTimes="0;0.788;1" dur="2.03s" fill="freeze" begin="0s;96bc.click" /></path><path d="M34.16,46.23c6.64-0.37,25.65-1.75,36.21-2.51c3.44-0.25,5.98-0.44,6.91-0.5" stroke-dasharray="43.226" stroke-dashoffset="43.226"><animate attributeName="stroke-dashoffset" values="43.226" fill="freeze" begin="96bc.click" /><animate attributeName="stroke-dashoffset" values="43.226;43.226;0" keyTimes="0;0.825;1" dur="2.462s" fill="freeze" begin="0s;96bc.click" /></path><path d="M34.16,57.6c6.63-0.53,29.4-1.95,41.96-2.67c4.19-0.24,7.25-0.43,8.19-0.52" stroke-dasharray="50.253" stroke-dashoffset="50.253"><animate attributeName="stroke-dashoffset" values="50.253" fill="freeze" begin="96bc.click" /><animate attributeName="stroke-dashoffset" values="50.253;50.253;0" keyTimes="0;0.83;1" dur="2.965s" fill="freeze" begin="0s;96bc.click" /></path></g><g><path d="M15.38,72.98c4,0.77,7.56,0.38,11.11,0.07c17.04-1.5,42.08-3.23,56.39-3.82c3.83-0.16,7.97-0.22,11.75,0.59" stroke-dasharray="79.472" stroke-dashoffset="79.472"><animate attributeName="stroke-dashoffset" values="79.472" fill="freeze" begin="96bc.click" /><animate attributeName="stroke-dashoffset" values="79.472;79.472;0" keyTimes="0;0.832;1" dur="3.563s" fill="freeze" begin="0s;96bc.click" /></path><path d="M53.09,59.63c0.95,0.95,0.98,2.12,0.98,3.62c0,0.55-0.04,18.95-0.06,29.5C54,95.86,54,98.29,54,99.38" stroke-dasharray="39.996" stroke-dashoffset="39.996"><animate attributeName="stroke-dashoffset" values="39.996" fill="freeze" begin="96bc.click" /><animate attributeName="stroke-dashoffset" values="39.996;39.996;0" keyTimes="0;0.899;1" dur="3.963s" fill="freeze" begin="0s;96bc.click" /></path></g></g></g></svg>