<svg xmlns="http://www.w3.org/2000/svg" width="109" height="109" viewBox="0 0 109 109" id="96cd"><g fill="none" stroke="#666" stroke-width="9" stroke-linecap="round" stroke-linejoin="round"><g><g><path d="M52.43,10.25c0.97,0.44,2.56,2.12,2.56,2.98c0,3.19-0.3,6.72-0.13,9.42" /><path d="M16.22,26.24c2.16,0.31,4.07,0.65,6.55,0.43c14.8-1.31,45.52-4.26,62.78-4.89c2.54-0.09,3.83,0.04,5.73,0.55" /></g><g><g><path d="M29.97,31.12c0.33,0.98,0.36,1.65-0.16,2.78c-2.22,4.76-7.43,10.83-11,14.09c-0.61,0.55-0.38,1.73,0.27,1.91c3.44,0.98,6.67,2.6,10.05,4.83" /><path d="M40.48,37.38c0.33,0.49,0.11,2.31-0.27,2.89c-4.74,7.13-14.3,20.03-22.16,28.05c-1.06,1.08-0.67,2.39,0.66,2.12c7.12-1.41,12.55-3.2,19.74-5.02" /><path d="M39.81,58.5c0.06,0.88,0.17,2.53-0.12,3.55C36.25,74,31.75,88.5,17.5,96.04" /></g><g><g><path d="M60.85,29.5c0.16,1.35-0.04,3.12-0.54,4.28c-3.19,7.39-7.24,13.64-14.56,22.63" /><path d="M54.98,47.26c0.59,0.76,1.04,2.44,1.08,3.62c0.35,10.54-0.48,40.88-0.19,46.37" /></g><path d="M77.6,28c0.06,0.84-0.02,1.94-0.2,2.66c-1.19,4.59-2.71,8.15-5.44,13.74" /><path d="M55.89,46.99c7.61-0.74,32.22-2.88,35.14-3.42" /><path d="M72.97,46.12c0.33,0.39,0.59,0.92,0.59,1.59c0,6.84,0.04,31.31-0.16,42.08" /><path d="M56.8,60.46c8.95-0.46,28.81-2.21,31.56-2.66" /><path d="M56.02,74.34c6.78-0.69,31.84-2.1,34.75-2.48" /><path d="M56.02,91.08c8.23,0,34.56-1.89,37.49-2.43" /></g></g></g></g><g fill="none" stroke="#000" stroke-width="5" stroke-linecap="round" stroke-linejoin="round"><g><g><path d="M52.43,10.25c0.97,0.44,2.56,2.12,2.56,2.98c0,3.19-0.3,6.72-0.13,9.42" stroke-dasharray="13.47" stroke-dashoffset="13.47"><animate id="0" attributeName="stroke-dashoffset" values="13.47;0" dur="0.13s" fill="freeze" begin="0s;96cd.click" /></path><path d="M16.22,26.24c2.16,0.31,4.07,0.65,6.55,0.43c14.8-1.31,45.52-4.26,62.78-4.89c2.54-0.09,3.83,0.04,5.73,0.55" stroke-dasharray="75.34" stroke-dashoffset="75.34"><animate attributeName="stroke-dashoffset" values="75.34" fill="freeze" begin="96cd.click" /><animate id="1" attributeName="stroke-dashoffset" values="75.34;0" dur="0.57s" fill="freeze" begin="0.end" /></path></g><g><g><path d="M29.97,31.12c0.33,0.98,0.36,1.65-0.16,2.78c-2.22,4.76-7.43,10.83-11,14.09c-0.61,0.55-0.38,1.73,0.27,1.91c3.44,0.98,6.67,2.6,10.05,4.83" stroke-dasharray="34.3" stroke-dashoffset="34.3"><animate attributeName="stroke-dashoffset" values="34.3" fill="freeze" begin="96cd.click" /><animate id="2" attributeName="stroke-dashoffset" values="34.3;0" dur="0.34s" fill="freeze" begin="1.end" /></path><path d="M40.48,37.38c0.33,0.49,0.11,2.31-0.27,2.89c-4.74,7.13-14.3,20.03-22.16,28.05c-1.06,1.08-0.67,2.39,0.66,2.12c7.12-1.41,12.55-3.2,19.74-5.02" stroke-dasharray="62.37" stroke-dashoffset="62.37"><animate attributeName="stroke-dashoffset" values="62.37" fill="freeze" begin="96cd.click" /><animate id="3" attributeName="stroke-dashoffset" values="62.37;0" dur="0.47s" fill="freeze" begin="2.end" /></path><path d="M39.81,58.5c0.06,0.88,0.17,2.53-0.12,3.55C36.25,74,31.75,88.5,17.5,96.04" stroke-dasharray="45.42" stroke-dashoffset="45.42"><animate attributeName="stroke-dashoffset" values="45.42" fill="freeze" begin="96cd.click" /><animate id="4" attributeName="stroke-dashoffset" values="45.42;0" dur="0.45s" fill="freeze" begin="3.end" /></path></g><g><g><path d="M60.85,29.5c0.16,1.35-0.04,3.12-0.54,4.28c-3.19,7.39-7.24,13.64-14.56,22.63" stroke-dasharray="31.36" stroke-dashoffset="31.36"><animate attributeName="stroke-dashoffset" values="31.36" fill="freeze" begin="96cd.click" /><animate id="5" attributeName="stroke-dashoffset" values="31.36;0" dur="0.31s" fill="freeze" begin="4.end" /></path><path d="M54.98,47.26c0.59,0.76,1.04,2.44,1.08,3.62c0.35,10.54-0.48,40.88-0.19,46.37" stroke-dasharray="50.2" stroke-dashoffset="50.2"><animate attributeName="stroke-dashoffset" values="50.2" fill="freeze" begin="96cd.click" /><animate id="6" attributeName="stroke-dashoffset" values="50.2;0" dur="0.5s" fill="freeze" begin="5.end" /></path></g><path d="M77.6,28c0.06,0.84-0.02,1.94-0.2,2.66c-1.19,4.59-2.71,8.15-5.44,13.74" stroke-dasharray="17.48" stroke-dashoffset="17.48"><animate attributeName="stroke-dashoffset" values="17.48" fill="freeze" begin="96cd.click" /><animate id="7" attributeName="stroke-dashoffset" values="17.48;0" dur="0.17s" fill="freeze" begin="6.end" /></path><path d="M55.89,46.99c7.61-0.74,32.22-2.88,35.14-3.42" stroke-dasharray="35.31" stroke-dashoffset="35.31"><animate attributeName="stroke-dashoffset" values="35.31" fill="freeze" begin="96cd.click" /><animate id="8" attributeName="stroke-dashoffset" values="35.31;0" dur="0.35s" fill="freeze" begin="7.end" /></path><path d="M72.97,46.12c0.33,0.39,0.59,0.92,0.59,1.59c0,6.84,0.04,31.31-0.16,42.08" stroke-dasharray="43.81" stroke-dashoffset="43.81"><animate attributeName="stroke-dashoffset" values="43.81" fill="freeze" begin="96cd.click" /><animate id="9" attributeName="stroke-dashoffset" values="43.81;0" dur="0.44s" fill="freeze" begin="8.end" /></path><path d="M56.8,60.46c8.95-0.46,28.81-2.21,31.56-2.66" stroke-dasharray="31.68" stroke-dashoffset="31.68"><animate attributeName="stroke-dashoffset" values="31.68" fill="freeze" begin="96cd.click" /><animate id="10" attributeName="stroke-dashoffset" values="31.68;0" dur="0.32s" fill="freeze" begin="9.end" /></path><path d="M56.02,74.34c6.78-0.69,31.84-2.1,34.75-2.48" stroke-dasharray="34.84" stroke-dashoffset="34.84"><animate attributeName="stroke-dashoffset" values="34.84" fill="freeze" begin="96cd.click" /><animate id="11" attributeName="stroke-dashoffset" values="34.84;0" dur="0.35s" fill="freeze" begin="10.end" /></path><path d="M56.02,91.08c8.23,0,34.56-1.89,37.49-2.43" stroke-dasharray="37.58" stroke-dashoffset="37.58"><animate attributeName="stroke-dashoffset" values="37.58" fill="freeze" begin="96cd.click" /><animate id="12" attributeName="stroke-dashoffset" values="37.58;0" dur="0.38s" fill="freeze" begin="11.end" /></path></g></g></g></g></svg>