<svg xmlns="http://www.w3.org/2000/svg" width="109" height="109" viewBox="0 0 109 109" id="96d5"><g fill="none" stroke="#666" stroke-width="9" stroke-linecap="round" stroke-linejoin="round"><g><g><g><path d="M16.99,19.7c0.34,1.13,0.8,2.91,0.8,4.96c0,3.18,0,6.13,0,21.11c0,16.76-1.75,40.37-8.04,47.84" /><path d="M17.68,21c4.36-0.91,29.31-3.5,30.18-3.5c1.62,0,2.52,1.17,2.52,3.31c0,2.27-0.38,61.89-0.38,67.11c0,8.17-3.19,7.27-6.85,1.73" /></g><g><g><path d="M23.03,34.03c0.74,0.35,2.11,0.25,2.86,0.21c4.03-0.19,12.79-2.16,15.77-2.33c1.24-0.07,1.99,0.06,2.61,0.22" /><path d="M21.31,46.74c0.78,0.18,2.2,0.18,2.98,0.09c4.25-0.48,13.88-2.65,18.96-2.8c1.29-0.04,2.07,0.02,2.72,0.1" /><path d="M32.47,24.36c0.48,0.32,0.77,1.55,0.87,2.26c0.1,0.71,1,24.71,0.91,29.2" /></g><g><path d="M24.77,60.92c0.15,0.33,0.3,0.6,0.37,1.02c0.52,3.27,2.13,14.14,2.49,20.01" /><path d="M25.35,62.54c3.83-1.1,13.35-2.12,15.33-2.29c0.72-0.06,1.1,1.73,0.97,2.63c-0.54,3.75-1.63,9.71-2.71,15.07" /><path d="M27.77,79.33c3.97-0.61,11.01-1.16,13.95-1.26" /></g></g></g><g><g><path d="M66.92,14.5c0.13,1.64-0.04,3.79-0.46,5.2C63.72,28.67,60.26,36.26,54,47.18" /><path d="M62.34,36.65c0.59,0.88,1.05,2.8,1.09,4.16c0.35,12.12-0.48,48.63-0.19,54.94" /></g><path d="M84.59,14.5c0.05,0.92-0.01,2.12-0.19,2.9c-1.1,5-2.49,8.87-5.01,14.96" /><path d="M62.26,36.41c8.37-1.16,31.79-3.46,34.76-4.09" /><path d="M79.63,37.33c0.33,0.45,0.6,1.06,0.6,1.83c0,7.86,0.04,35-0.16,47.38" /><path d="M63.69,52.82c6.52-0.94,28.42-2.69,31.22-3.21" /><path d="M63.9,69.79c6.88-0.8,29.49-2.41,32.44-2.85" /><path d="M63.9,88.68c6.91-1.14,33.64-2.32,36.6-2.95" /></g></g></g><g fill="none" stroke="#000" stroke-width="5" stroke-linecap="round" stroke-linejoin="round"><path d="M16.99,19.7c0.34,1.13,0.8,2.91,0.8,4.96c0,3.18,0,6.13,0,21.11c0,16.76-1.75,40.37-8.04,47.84" stroke-dasharray="75.26" stroke-dashoffset="75.26"><animate attributeName="stroke-dashoffset" values="75.26;75.26;0" dur="0.566s" fill="freeze" begin="0s;96d5.click" /></path><path d="M17.68,21c4.36-0.91,29.31-3.5,30.18-3.5c1.62,0,2.52,1.17,2.52,3.31c0,2.27-0.38,61.89-0.38,67.11c0,8.17-3.19,7.27-6.85,1.73" stroke-dasharray="115.667" stroke-dashoffset="115.667"><animate attributeName="stroke-dashoffset" values="115.667" fill="freeze" begin="96d5.click" /><animate attributeName="stroke-dashoffset" values="115.667;115.667;0" keyTimes="0;0.394;1" dur="1.436s" fill="freeze" begin="0s;96d5.click" /></path><path d="M23.03,34.03c0.74,0.35,2.11,0.25,2.86,0.21c4.03-0.19,12.79-2.16,15.77-2.33c1.24-0.07,1.99,0.06,2.61,0.22" stroke-dasharray="21.473" stroke-dashoffset="21.473"><animate attributeName="stroke-dashoffset" values="21.473" fill="freeze" begin="96d5.click" /><animate attributeName="stroke-dashoffset" values="21.473;21.473;0" keyTimes="0;0.87;1" dur="1.651s" fill="freeze" begin="0s;96d5.click" /></path><path d="M21.31,46.74c0.78,0.18,2.2,0.18,2.98,0.09c4.25-0.48,13.88-2.65,18.96-2.8c1.29-0.04,2.07,0.02,2.72,0.1" stroke-dasharray="24.894" stroke-dashoffset="24.894"><animate attributeName="stroke-dashoffset" values="24.894" fill="freeze" begin="96d5.click" /><animate attributeName="stroke-dashoffset" values="24.894;24.894;0" keyTimes="0;0.869;1" dur="1.9s" fill="freeze" begin="0s;96d5.click" /></path><path d="M32.47,24.36c0.48,0.32,0.77,1.55,0.87,2.26c0.1,0.71,1,24.71,0.91,29.2" stroke-dasharray="31.687" stroke-dashoffset="31.687"><animate attributeName="stroke-dashoffset" values="31.687" fill="freeze" begin="96d5.click" /><animate attributeName="stroke-dashoffset" values="31.687;31.687;0" keyTimes="0;0.857;1" dur="2.217s" fill="freeze" begin="0s;96d5.click" /></path><path d="M24.77,60.92c0.15,0.33,0.3,0.6,0.37,1.02c0.52,3.27,2.13,14.14,2.49,20.01" stroke-dasharray="21.26" stroke-dashoffset="21.26"><animate attributeName="stroke-dashoffset" values="21.26" fill="freeze" begin="96d5.click" /><animate attributeName="stroke-dashoffset" values="21.26;21.26;0" keyTimes="0;0.912;1" dur="2.43s" fill="freeze" begin="0s;96d5.click" /></path><path d="M25.35,62.54c3.83-1.1,13.35-2.12,15.33-2.29c0.72-0.06,1.1,1.73,0.97,2.63c-0.54,3.75-1.63,9.71-2.71,15.07" stroke-dasharray="33.861" stroke-dashoffset="33.861"><animate attributeName="stroke-dashoffset" values="33.861" fill="freeze" begin="96d5.click" /><animate attributeName="stroke-dashoffset" values="33.861;33.861;0" keyTimes="0;0.878;1" dur="2.769s" fill="freeze" begin="0s;96d5.click" /></path><path d="M27.77,79.33c3.97-0.61,11.01-1.16,13.95-1.26" stroke-dasharray="14.013" stroke-dashoffset="14.013"><animate attributeName="stroke-dashoffset" values="14.013" fill="freeze" begin="96d5.click" /><animate attributeName="stroke-dashoffset" values="14.013;14.013;0" keyTimes="0;0.952;1" dur="2.909s" fill="freeze" begin="0s;96d5.click" /></path><path d="M66.92,14.5c0.13,1.64-0.04,3.79-0.46,5.2C63.72,28.67,60.26,36.26,54,47.18" stroke-dasharray="35.489" stroke-dashoffset="35.489"><animate attributeName="stroke-dashoffset" values="35.489" fill="freeze" begin="96d5.click" /><animate attributeName="stroke-dashoffset" values="35.489;35.489;0" keyTimes="0;0.891;1" dur="3.264s" fill="freeze" begin="0s;96d5.click" /></path><path d="M62.34,36.65c0.59,0.88,1.05,2.8,1.09,4.16c0.35,12.12-0.48,48.63-0.19,54.94" stroke-dasharray="59.285" stroke-dashoffset="59.285"><animate attributeName="stroke-dashoffset" values="59.285" fill="freeze" begin="96d5.click" /><animate attributeName="stroke-dashoffset" values="59.285;59.285;0" keyTimes="0;0.846;1" dur="3.857s" fill="freeze" begin="0s;96d5.click" /></path><path d="M84.59,14.5c0.05,0.92-0.01,2.12-0.19,2.9c-1.1,5-2.49,8.87-5.01,14.96" stroke-dasharray="18.715" stroke-dashoffset="18.715"><animate attributeName="stroke-dashoffset" values="18.715" fill="freeze" begin="96d5.click" /><animate attributeName="stroke-dashoffset" values="18.715;18.715;0" keyTimes="0;0.954;1" dur="4.044s" fill="freeze" begin="0s;96d5.click" /></path><path d="M62.26,36.41c8.37-1.16,31.79-3.46,34.76-4.09" stroke-dasharray="35.003" stroke-dashoffset="35.003"><animate attributeName="stroke-dashoffset" values="35.003" fill="freeze" begin="96d5.click" /><animate attributeName="stroke-dashoffset" values="35.003;35.003;0" keyTimes="0;0.92;1" dur="4.394s" fill="freeze" begin="0s;96d5.click" /></path><path d="M79.63,37.33c0.33,0.45,0.6,1.06,0.6,1.83c0,7.86,0.04,35-0.16,47.38" stroke-dasharray="49.341" stroke-dashoffset="49.341"><animate attributeName="stroke-dashoffset" values="49.341" fill="freeze" begin="96d5.click" /><animate attributeName="stroke-dashoffset" values="49.341;49.341;0" keyTimes="0;0.899;1" dur="4.887s" fill="freeze" begin="0s;96d5.click" /></path><path d="M63.69,52.82c6.52-0.94,28.42-2.69,31.22-3.21" stroke-dasharray="31.388" stroke-dashoffset="31.388"><animate attributeName="stroke-dashoffset" values="31.388" fill="freeze" begin="96d5.click" /><animate attributeName="stroke-dashoffset" values="31.388;31.388;0" keyTimes="0;0.94;1" dur="5.201s" fill="freeze" begin="0s;96d5.click" /></path><path d="M63.9,69.79c6.88-0.8,29.49-2.41,32.44-2.85" stroke-dasharray="32.567" stroke-dashoffset="32.567"><animate attributeName="stroke-dashoffset" values="32.567" fill="freeze" begin="96d5.click" /><animate attributeName="stroke-dashoffset" values="32.567;32.567;0" keyTimes="0;0.941;1" dur="5.527s" fill="freeze" begin="0s;96d5.click" /></path><path d="M63.9,88.68c6.91-1.14,33.64-2.32,36.6-2.95" stroke-dasharray="36.728" stroke-dashoffset="36.728"><animate attributeName="stroke-dashoffset" values="36.728" fill="freeze" begin="96d5.click" /><animate attributeName="stroke-dashoffset" values="36.728;36.728;0" keyTimes="0;0.938;1" dur="5.894s" fill="freeze" begin="0s;96d5.click" /></path></g></svg>