<svg xmlns="http://www.w3.org/2000/svg" width="109" height="109" viewBox="0 0 109 109" id="96f9"><g fill="none" stroke="#666" stroke-width="9" stroke-linecap="round" stroke-linejoin="round"><g><g><path d="M33.16,14.04c1.84,0.46,3.81,0.78,5.12,0.69c6.97-0.49,24.97-2.74,31.25-2.87c1.83-0.04,2.35-0.18,4.03,0.12" /><path d="M19.39,27.67c-0.18,6.12-1.78,12.91-2.96,19.09" /><path d="M19.35,29.82c7.4-1.02,53.84-5.34,69.55-5.34c9.1,0,0.17,7.83-1.28,9.43" /><path d="M52.92,17.32c0.91,1.36,1.31,2.26,1.33,3.6c0.01,0.48-0.27,25.27-0.27,26.59" /><path d="M34,35.93c2.99,0.68,7.08,2.71,8.71,3.83" /><path d="M33,44.01c3.08,0.72,7.84,3.37,9.52,4.57" /><path d="M67.25,32.22c3.56,1.11,7.6,3.32,9.03,4.24" /><path d="M66.29,39.73c3.33,0.88,7.88,3.5,9.7,4.96" /></g><g><g><g><path d="M34.75,49.5c0.04,0.52,0.23,1.39-0.08,2.1c-2.02,4.62-7.51,13.31-15.06,20.06" /></g><path d="M35.79,55.52c1.13,0.41,2.72,0.54,4.54,0.27c1.82-0.27,34.64-3.83,39.16-4.07c2.15-0.11,4.08,1.74,3.98,3.25c-0.31,4.56-2.72,16.28-5.57,23.79c-1.13,2.98-3.65,3.23-6.26-0.68" /></g><g><g><path d="M32.97,64.98c1.48,0.62,2.75,0.62,4.92,0.42c4.42-0.42,20.69-2.66,22.04-2.74c1.78-0.1,3.18,1.18,2.54,2.79c-0.19,0.48-0.98,4.05-2.78,9.28" /><path d="M36.6,78.62c4.78-0.3,18.38-2.68,25.17-2.94" /><path d="M36.04,66.08c0.21,0.92,0.26,3.08,0.25,4.2c-0.03,3.59,0.16,12.6,0.16,15.74c0,8.72,0.8,9.66,26.72,9.66c29.08,0,30.47-2.19,30.47-12.03" /></g></g></g></g></g><g fill="none" stroke="#000" stroke-width="5" stroke-linecap="round" stroke-linejoin="round"><g><g><path d="M33.16,14.04c1.84,0.46,3.81,0.78,5.12,0.69c6.97-0.49,24.97-2.74,31.25-2.87c1.83-0.04,2.35-0.18,4.03,0.12" stroke-dasharray="40.61" stroke-dashoffset="40.61"><animate id="0" attributeName="stroke-dashoffset" values="40.61;0" dur="0.41s" fill="freeze" begin="0s;96f9.click" /></path><path d="M19.39,27.67c-0.18,6.12-1.78,12.91-2.96,19.09" stroke-dasharray="19.34" stroke-dashoffset="19.34"><animate attributeName="stroke-dashoffset" values="19.34" fill="freeze" begin="96f9.click" /><animate id="1" attributeName="stroke-dashoffset" values="19.34;0" dur="0.19s" fill="freeze" begin="0.end" /></path><path d="M19.35,29.82c7.4-1.02,53.84-5.34,69.55-5.34c9.1,0,0.17,7.83-1.28,9.43" stroke-dasharray="84.07" stroke-dashoffset="84.07"><animate attributeName="stroke-dashoffset" values="84.07" fill="freeze" begin="96f9.click" /><animate id="2" attributeName="stroke-dashoffset" values="84.07;0" dur="0.63s" fill="freeze" begin="1.end" /></path><path d="M52.92,17.32c0.91,1.36,1.31,2.26,1.33,3.6c0.01,0.48-0.27,25.27-0.27,26.59" stroke-dasharray="30.49" stroke-dashoffset="30.49"><animate attributeName="stroke-dashoffset" values="30.49" fill="freeze" begin="96f9.click" /><animate id="3" attributeName="stroke-dashoffset" values="30.49;0" dur="0.3s" fill="freeze" begin="2.end" /></path><path d="M34,35.93c2.99,0.68,7.08,2.71,8.71,3.83" stroke-dasharray="9.55" stroke-dashoffset="9.55"><animate attributeName="stroke-dashoffset" values="9.55" fill="freeze" begin="96f9.click" /><animate id="4" attributeName="stroke-dashoffset" values="9.55;0" dur="0.1s" fill="freeze" begin="3.end" /></path><path d="M33,44.01c3.08,0.72,7.84,3.37,9.52,4.57" stroke-dasharray="10.6" stroke-dashoffset="10.6"><animate attributeName="stroke-dashoffset" values="10.6" fill="freeze" begin="96f9.click" /><animate id="5" attributeName="stroke-dashoffset" values="10.6;0" dur="0.11s" fill="freeze" begin="4.end" /></path><path d="M67.25,32.22c3.56,1.11,7.6,3.32,9.03,4.24" stroke-dasharray="10" stroke-dashoffset="10"><animate attributeName="stroke-dashoffset" values="10" fill="freeze" begin="96f9.click" /><animate id="6" attributeName="stroke-dashoffset" values="10;0" dur="0.1s" fill="freeze" begin="5.end" /></path><path d="M66.29,39.73c3.33,0.88,7.88,3.5,9.7,4.96" stroke-dasharray="10.95" stroke-dashoffset="10.95"><animate attributeName="stroke-dashoffset" values="10.95" fill="freeze" begin="96f9.click" /><animate id="7" attributeName="stroke-dashoffset" values="10.95;0" dur="0.11s" fill="freeze" begin="6.end" /></path></g><g><g><g><path d="M34.75,49.5c0.04,0.52,0.23,1.39-0.08,2.1c-2.02,4.62-7.51,13.31-15.06,20.06" stroke-dasharray="27.37" stroke-dashoffset="27.37"><animate attributeName="stroke-dashoffset" values="27.37" fill="freeze" begin="96f9.click" /><animate id="8" attributeName="stroke-dashoffset" values="27.37;0" dur="0.27s" fill="freeze" begin="7.end" /></path></g><path d="M35.79,55.52c1.13,0.41,2.72,0.54,4.54,0.27c1.82-0.27,34.64-3.83,39.16-4.07c2.15-0.11,4.08,1.74,3.98,3.25c-0.31,4.56-2.72,16.28-5.57,23.79c-1.13,2.98-3.65,3.23-6.26-0.68" stroke-dasharray="82.66" stroke-dashoffset="82.66"><animate attributeName="stroke-dashoffset" values="82.66" fill="freeze" begin="96f9.click" /><animate id="9" attributeName="stroke-dashoffset" values="82.66;0" dur="0.62s" fill="freeze" begin="8.end" /></path></g><g><g><path d="M32.97,64.98c1.48,0.62,2.75,0.62,4.92,0.42c4.42-0.42,20.69-2.66,22.04-2.74c1.78-0.1,3.18,1.18,2.54,2.79c-0.19,0.48-0.98,4.05-2.78,9.28" stroke-dasharray="41.47" stroke-dashoffset="41.47"><animate attributeName="stroke-dashoffset" values="41.47" fill="freeze" begin="96f9.click" /><animate id="10" attributeName="stroke-dashoffset" values="41.47;0" dur="0.41s" fill="freeze" begin="9.end" /></path><path d="M36.6,78.62c4.78-0.3,18.38-2.68,25.17-2.94" stroke-dasharray="25.35" stroke-dashoffset="25.35"><animate attributeName="stroke-dashoffset" values="25.35" fill="freeze" begin="96f9.click" /><animate id="11" attributeName="stroke-dashoffset" values="25.35;0" dur="0.25s" fill="freeze" begin="10.end" /></path><path d="M36.04,66.08c0.21,0.92,0.26,3.08,0.25,4.2c-0.03,3.59,0.16,12.6,0.16,15.74c0,8.72,0.8,9.66,26.72,9.66c29.08,0,30.47-2.19,30.47-12.03" stroke-dasharray="90.63" stroke-dashoffset="90.63"><animate attributeName="stroke-dashoffset" values="90.63" fill="freeze" begin="96f9.click" /><animate id="12" attributeName="stroke-dashoffset" values="90.63;0" dur="0.68s" fill="freeze" begin="11.end" /></path></g></g></g></g></g></svg>