<svg xmlns="http://www.w3.org/2000/svg" viewBox="0 0 109 109" id="96fb"><g fill="none" stroke="#666" stroke-width="6" stroke-linecap="round" stroke-linejoin="round"><g><g><path d="M34.66,16.19c2.31,0.7,4.78,0.25,7.11-0.04c6.03-0.75,16.15-1.97,23.49-2.76c2.19-0.23,4.03-0.14,6.05,0.1" /><path d="M19.51,29.11c-0.2,5.55-1.93,11.7-3.21,17.3" /><path d="M20.85,32.18C37.62,30.38,70,25.62,86.4,25.2c9.1-0.24,2.35,6.05-0.78,9.53" /><path d="M50.92,17.26c1.1,1.1,1.83,2.49,1.83,3.76c0,3.98-0.16,17.08-0.23,23.73c-0.02,2.1-0.04,3.56-0.04,3.89" /><path d="M32.75,36.46c3.42,0.53,8.09,2.12,9.96,3" /><path d="M31.25,45c3.16,0.57,8.05,2.68,9.77,3.64" /><path d="M65.5,33.47c3.66,0.79,7.81,2.37,9.28,3.03" /><path d="M65.54,41.89c2.82,0.77,6.67,3.06,8.21,4.34" /></g><g p4:phon="申V" xmlns:p4="http://kanjivg.tagaini.net"><g><path d="M25.86,55.87c0.89,1.04,1.07,1.52,1.21,2.88c0.47,4.62,2.55,21.84,2.55,22.22c0,0.43,0.19,1.93,0.37,2.79" /><path d="M28.04,57.11c10.79-1,41.49-4.23,43.85-4.37c4.11-0.24,5.36,1.76,4.73,4.82c-0.27,1.31-2.37,9.94-4.05,17.74c-0.2,0.95-0.69,2.39-0.69,3.04" /><path d="M29.46,68.34c7.42-0.97,36.17-3.47,44.14-3.8" /><path d="M31.02,80.34C42.25,79,59.5,77.75,71.25,76.75" /></g><path d="M48.42,57.62c1.08,1.13,1.45,2.8,1.45,4.78c0,4.85-0.1,12.75-0.1,18.85c0,12.75,1.48,14.5,20.5,14.5c19.23,0,20.18-2.75,20.18-10.82" /></g></g></g><g fill="none" stroke="#000" stroke-width="3" stroke-linecap="round" stroke-linejoin="round"><path d="M34.66,16.19c2.31,0.7,4.78,0.25,7.11-0.04c6.03-0.75,16.15-1.97,23.49-2.76c2.19-0.23,4.03-0.14,6.05,0.1" stroke-dasharray="36.885" stroke-dashoffset="36.885"><animate attributeName="stroke-dashoffset" values="36.885;36.885;0" dur="0.369s" fill="freeze" begin="0s;96fb.click" /></path><path d="M19.51,29.11c-0.2,5.55-1.93,11.7-3.21,17.3" stroke-dasharray="17.625" stroke-dashoffset="17.625"><animate attributeName="stroke-dashoffset" values="17.625" fill="freeze" begin="96fb.click" /><animate attributeName="stroke-dashoffset" values="17.625;17.625;0" keyTimes="0;0.677;1" dur="0.545s" fill="freeze" begin="0s;96fb.click" /></path><path d="M20.85,32.18C37.62,30.38,70,25.62,86.4,25.2c9.1-0.24,2.35,6.05-0.78,9.53" stroke-dasharray="80.882" stroke-dashoffset="80.882"><animate attributeName="stroke-dashoffset" values="80.882" fill="freeze" begin="96fb.click" /><animate attributeName="stroke-dashoffset" values="80.882;80.882;0" keyTimes="0;0.473;1" dur="1.153s" fill="freeze" begin="0s;96fb.click" /></path><path d="M50.92,17.26c1.1,1.1,1.83,2.49,1.83,3.76c0,3.98-0.16,17.08-0.23,23.73c-0.02,2.1-0.04,3.56-0.04,3.89" stroke-dasharray="31.907" stroke-dashoffset="31.907"><animate attributeName="stroke-dashoffset" values="31.907" fill="freeze" begin="96fb.click" /><animate attributeName="stroke-dashoffset" values="31.907;31.907;0" keyTimes="0;0.783;1" dur="1.472s" fill="freeze" begin="0s;96fb.click" /></path><path d="M32.75,36.46c3.42,0.53,8.09,2.12,9.96,3" stroke-dasharray="10.428" stroke-dashoffset="10.428"><animate attributeName="stroke-dashoffset" values="10.428" fill="freeze" begin="96fb.click" /><animate attributeName="stroke-dashoffset" values="10.428;10.428;0" keyTimes="0;0.934;1" dur="1.576s" fill="freeze" begin="0s;96fb.click" /></path><path d="M31.25,45c3.16,0.57,8.05,2.68,9.77,3.64" stroke-dasharray="10.458" stroke-dashoffset="10.458"><animate attributeName="stroke-dashoffset" values="10.458" fill="freeze" begin="96fb.click" /><animate attributeName="stroke-dashoffset" values="10.458;10.458;0" keyTimes="0;0.938;1" dur="1.681s" fill="freeze" begin="0s;96fb.click" /></path><path d="M65.5,33.47c3.66,0.79,7.81,2.37,9.28,3.03" stroke-dasharray="9.777" stroke-dashoffset="9.777"><animate attributeName="stroke-dashoffset" values="9.777" fill="freeze" begin="96fb.click" /><animate attributeName="stroke-dashoffset" values="9.777;9.777;0" keyTimes="0;0.945;1" dur="1.779s" fill="freeze" begin="0s;96fb.click" /></path><path d="M65.54,41.89c2.82,0.77,6.67,3.06,8.21,4.34" stroke-dasharray="9.337" stroke-dashoffset="9.337"><animate attributeName="stroke-dashoffset" values="9.337" fill="freeze" begin="96fb.click" /><animate attributeName="stroke-dashoffset" values="9.337;9.337;0" keyTimes="0;0.95;1" dur="1.872s" fill="freeze" begin="0s;96fb.click" /></path><path d="M25.86,55.87c0.89,1.04,1.07,1.52,1.21,2.88c0.47,4.62,2.55,21.84,2.55,22.22c0,0.43,0.19,1.93,0.37,2.79" stroke-dasharray="28.38" stroke-dashoffset="28.38"><animate attributeName="stroke-dashoffset" values="28.38" fill="freeze" begin="96fb.click" /><animate attributeName="stroke-dashoffset" values="28.38;28.38;0" keyTimes="0;0.868;1" dur="2.156s" fill="freeze" begin="0s;96fb.click" /></path><path d="M28.04,57.11c10.79-1,41.49-4.23,43.85-4.37c4.11-0.24,5.36,1.76,4.73,4.82c-0.27,1.31-2.37,9.94-4.05,17.74c-0.2,0.95-0.69,2.39-0.69,3.04" stroke-dasharray="73.672" stroke-dashoffset="73.672"><animate attributeName="stroke-dashoffset" values="73.672" fill="freeze" begin="96fb.click" /><animate attributeName="stroke-dashoffset" values="73.672;73.672;0" keyTimes="0;0.796;1" dur="2.71s" fill="freeze" begin="0s;96fb.click" /></path><path d="M29.46,68.34c7.42-0.97,36.17-3.47,44.14-3.8" stroke-dasharray="44.309" stroke-dashoffset="44.309"><animate attributeName="stroke-dashoffset" values="44.309" fill="freeze" begin="96fb.click" /><animate attributeName="stroke-dashoffset" values="44.309;44.309;0" keyTimes="0;0.859;1" dur="3.153s" fill="freeze" begin="0s;96fb.click" /></path><path d="M31.02,80.34C42.25,79,59.5,77.75,71.25,76.75" stroke-dasharray="40.393" stroke-dashoffset="40.393"><animate attributeName="stroke-dashoffset" values="40.393" fill="freeze" begin="96fb.click" /><animate attributeName="stroke-dashoffset" values="40.393;40.393;0" keyTimes="0;0.886;1" dur="3.557s" fill="freeze" begin="0s;96fb.click" /></path><path d="M48.42,57.62c1.08,1.13,1.45,2.8,1.45,4.78c0,4.85-0.1,12.75-0.1,18.85c0,12.75,1.48,14.5,20.5,14.5c19.23,0,20.18-2.75,20.18-10.82" stroke-dasharray="81.647" stroke-dashoffset="81.647"><animate attributeName="stroke-dashoffset" values="81.647" fill="freeze" begin="96fb.click" /><animate attributeName="stroke-dashoffset" values="81.647;81.647;0" keyTimes="0;0.853;1" dur="4.171s" fill="freeze" begin="0s;96fb.click" /></path></g></svg>