<svg xmlns="http://www.w3.org/2000/svg" width="109" height="109" viewBox="0 0 109 109" id="9706"><g fill="none" stroke="#666" stroke-width="9" stroke-linecap="round" stroke-linejoin="round"><g><g><path d="M30.91,12.56c1.59,0.44,4.27,0.78,5.72,0.65c7.79-0.71,27.91-2.47,34.92-2.56c2.05-0.03,2.63-0.14,4.51,0.1" /><path d="M19.18,22.42c-0.26,5.08-2.57,10.71-4.28,15.84" /><path d="M19.35,24.32c7.4-1.02,52.34-4.84,68.05-4.84c9.1,0,1.17,6.33-0.28,7.93" /><path d="M52.92,14.32c0.91,1.36,1.31,2.26,1.33,3.6c0.01,0.48-0.27,23.77-0.27,25.09" /><path d="M33.75,28.44c3.42,0.76,8.09,3.05,9.96,4.31" /><path d="M30,38.01c4.05,0.96,10.31,4.48,12.52,6.07" /><path d="M67.25,26.3c3.96,1.46,8.44,4.37,10.03,5.58" /><path d="M66.04,35.48c3.59,1.1,8.49,4.38,10.45,6.21" /></g><g><g><g><path d="M84.48,43.89c0.08,0.26,0.17,0.68-0.16,1.06c-1.97,2.24-13.28,7.15-28.76,10.15" /></g><g><path d="M50.13,65.79c1.39,0.54,3.93,0.67,5.31,0.54c8.26-0.77,25.83-3.27,34.33-3.24c2.31,0.01,3.7,0.26,4.85,0.53" /><path d="M70.9,53.33c0.62,0.33,1,1.48,1.12,2.13s0.25,21.16,0.12,25.25" /><path d="M55.5,81.35c1.18,0.24,3.34,0.28,4.53,0.24c7.18-0.24,16.83-1.56,26.72-1.69c1.97-0.03,3.15,0.12,4.13,0.24" /></g></g><g><path d="M18.25,52.33c1.25,0.45,3.25,0.75,5,0.45c1.75-0.3,8-2.01,11.5-2.61c3.5-0.6,4.5,0.02,2.5,2.19C35.41,54.36,28,63.25,24.5,68" /><path d="M24.75,69.1c4-1.16,10.25-3.15,14.25-4.16c3.04-0.76,4.51,0.38,3.75,3.06C40.25,76.78,32.5,89.1,16,97.67" /><path d="M22,75.95c5.06-0.14,33,15.3,51.36,20.09c2.64,0.69,5.89,1.21,9.89,1.97" /></g></g></g></g><g fill="none" stroke="#000" stroke-width="5" stroke-linecap="round" stroke-linejoin="round"><g><g><path d="M30.91,12.56c1.59,0.44,4.27,0.78,5.72,0.65c7.79-0.71,27.91-2.47,34.92-2.56c2.05-0.03,2.63-0.14,4.51,0.1" stroke-dasharray="45.31" stroke-dashoffset="45.31"><animate id="0" attributeName="stroke-dashoffset" values="45.31;0" dur="0.45s" fill="freeze" begin="0s;9706.click" /></path><path d="M19.18,22.42c-0.26,5.08-2.57,10.71-4.28,15.84" stroke-dasharray="16.46" stroke-dashoffset="16.46"><animate attributeName="stroke-dashoffset" values="16.46" fill="freeze" begin="9706.click" /><animate id="1" attributeName="stroke-dashoffset" values="16.46;0" dur="0.16s" fill="freeze" begin="0.end" /></path><path d="M19.35,24.32c7.4-1.02,52.34-4.84,68.05-4.84c9.1,0,1.17,6.33-0.28,7.93" stroke-dasharray="81.14" stroke-dashoffset="81.14"><animate attributeName="stroke-dashoffset" values="81.14" fill="freeze" begin="9706.click" /><animate id="2" attributeName="stroke-dashoffset" values="81.14;0" dur="0.61s" fill="freeze" begin="1.end" /></path><path d="M52.92,14.32c0.91,1.36,1.31,2.26,1.33,3.6c0.01,0.48-0.27,23.77-0.27,25.09" stroke-dasharray="28.99" stroke-dashoffset="28.99"><animate attributeName="stroke-dashoffset" values="28.99" fill="freeze" begin="9706.click" /><animate id="3" attributeName="stroke-dashoffset" values="28.99;0" dur="0.29s" fill="freeze" begin="2.end" /></path><path d="M33.75,28.44c3.42,0.76,8.09,3.05,9.96,4.31" stroke-dasharray="10.9" stroke-dashoffset="10.9"><animate attributeName="stroke-dashoffset" values="10.9" fill="freeze" begin="9706.click" /><animate id="4" attributeName="stroke-dashoffset" values="10.9;0" dur="0.11s" fill="freeze" begin="3.end" /></path><path d="M30,38.01c4.05,0.96,10.31,4.48,12.52,6.07" stroke-dasharray="13.97" stroke-dashoffset="13.97"><animate attributeName="stroke-dashoffset" values="13.97" fill="freeze" begin="9706.click" /><animate id="5" attributeName="stroke-dashoffset" values="13.97;0" dur="0.14s" fill="freeze" begin="4.end" /></path><path d="M67.25,26.3c3.96,1.46,8.44,4.37,10.03,5.58" stroke-dasharray="11.51" stroke-dashoffset="11.51"><animate attributeName="stroke-dashoffset" values="11.51" fill="freeze" begin="9706.click" /><animate id="6" attributeName="stroke-dashoffset" values="11.51;0" dur="0.12s" fill="freeze" begin="5.end" /></path><path d="M66.04,35.48c3.59,1.1,8.49,4.38,10.45,6.21" stroke-dasharray="12.23" stroke-dashoffset="12.23"><animate attributeName="stroke-dashoffset" values="12.23" fill="freeze" begin="9706.click" /><animate id="7" attributeName="stroke-dashoffset" values="12.23;0" dur="0.12s" fill="freeze" begin="6.end" /></path></g><g><g><g><path d="M84.48,43.89c0.08,0.26,0.17,0.68-0.16,1.06c-1.97,2.24-13.28,7.15-28.76,10.15" stroke-dasharray="31.85" stroke-dashoffset="31.85"><animate attributeName="stroke-dashoffset" values="31.85" fill="freeze" begin="9706.click" /><animate id="8" attributeName="stroke-dashoffset" values="31.85;0" dur="0.32s" fill="freeze" begin="7.end" /></path></g><g><path d="M50.13,65.79c1.39,0.54,3.93,0.67,5.31,0.54c8.26-0.77,25.83-3.27,34.33-3.24c2.31,0.01,3.7,0.26,4.85,0.53" stroke-dasharray="44.76" stroke-dashoffset="44.76"><animate attributeName="stroke-dashoffset" values="44.76" fill="freeze" begin="9706.click" /><animate id="9" attributeName="stroke-dashoffset" values="44.76;0" dur="0.45s" fill="freeze" begin="8.end" /></path><path d="M70.9,53.33c0.62,0.33,1,1.48,1.12,2.13s0.25,21.16,0.12,25.25" stroke-dasharray="27.72" stroke-dashoffset="27.72"><animate attributeName="stroke-dashoffset" values="27.72" fill="freeze" begin="9706.click" /><animate id="10" attributeName="stroke-dashoffset" values="27.72;0" dur="0.28s" fill="freeze" begin="9.end" /></path><path d="M55.5,81.35c1.18,0.24,3.34,0.28,4.53,0.24c7.18-0.24,16.83-1.56,26.72-1.69c1.97-0.03,3.15,0.12,4.13,0.24" stroke-dasharray="35.46" stroke-dashoffset="35.46"><animate attributeName="stroke-dashoffset" values="35.46" fill="freeze" begin="9706.click" /><animate id="11" attributeName="stroke-dashoffset" values="35.46;0" dur="0.35s" fill="freeze" begin="10.end" /></path></g></g><g><path d="M18.25,52.33c1.25,0.45,3.25,0.75,5,0.45c1.75-0.3,8-2.01,11.5-2.61c3.5-0.6,4.5,0.02,2.5,2.19C35.41,54.36,28,63.25,24.5,68" stroke-dasharray="42.94" stroke-dashoffset="42.94"><animate attributeName="stroke-dashoffset" values="42.94" fill="freeze" begin="9706.click" /><animate id="12" attributeName="stroke-dashoffset" values="42.94;0" dur="0.43s" fill="freeze" begin="11.end" /></path><path d="M24.75,69.1c4-1.16,10.25-3.15,14.25-4.16c3.04-0.76,4.51,0.38,3.75,3.06C40.25,76.78,32.5,89.1,16,97.67" stroke-dasharray="62.32" stroke-dashoffset="62.32"><animate attributeName="stroke-dashoffset" values="62.32" fill="freeze" begin="9706.click" /><animate id="13" attributeName="stroke-dashoffset" values="62.32;0" dur="0.47s" fill="freeze" begin="12.end" /></path><path d="M22,75.95c5.06-0.14,33,15.3,51.36,20.09c2.64,0.69,5.89,1.21,9.89,1.97" stroke-dasharray="65.34" stroke-dashoffset="65.34"><animate attributeName="stroke-dashoffset" values="65.34" fill="freeze" begin="9706.click" /><animate id="14" attributeName="stroke-dashoffset" values="65.34;0" dur="0.49s" fill="freeze" begin="13.end" /></path></g></g></g></g></svg>