<svg xmlns="http://www.w3.org/2000/svg" width="109" height="109" viewBox="0 0 109 109" id="9708"><g fill="none" stroke="#666" stroke-width="9" stroke-linecap="round" stroke-linejoin="round"><g><g><path d="M30.16,12.22c1.53,0.06,4.35,0.2,5.85,0.17c7.74-0.14,29.02-2.32,36.2-2.43c2.09-0.03,2.69-0.16,4.61,0.11" /><path d="M18.18,21.42c-0.26,5.08-2.57,10.71-4.28,15.84" /><path d="M18.35,23.82c7.4-1.02,52.34-4.34,68.05-4.34c9.1,0,1.17,6.33-0.28,7.93" /><path d="M52.92,13.32c0.91,1.36,1.31,2.26,1.33,3.6c0.01,0.48-0.27,22.77-0.27,24.09" /><path d="M32.5,26.94c4.03,0.76,9.51,3.05,11.71,4.31" /><path d="M29.5,34.26c3.08,1,7.84,4.66,9.52,6.32" /><path d="M66.75,25.22c4.16,1.11,8.86,3.32,10.53,4.24" /><path d="M66.04,32.73c3.59,1.32,8.49,5.27,10.45,7.46" /></g><g><g><path d="M21.63,44.79c3.04,1.27,7.86,5.22,8.62,7.2" /><path d="M14.75,57.28c3.79,1.21,9.8,4.99,10.75,6.88" /><path d="M15.25,92.08c1.65,1.1,3.64,1.15,4.68-0.21c3.03-3.98,6.06-8.84,8.82-13.91" /></g><g><g p6:partial xmlns:p6="http://kanjivg.tagaini.net"><path d="M38.75,52.26c1.16,0.09,3.81,0.6,4.94,0.48c9.12-1,35.86-3.77,48.25-4.03c1.91-0.04,2.89,0.04,4.31,0.61" /></g><g><path d="M43.67,62.62c0.84,0.37,2.14,2.38,2.3,3.12c0.17,0.74,1.39,22.85,1.22,27.49" /><path d="M45.99,65.3c3.68-0.24,37.96-4.08,40.69-4.32c2.32-0.2,3.95,1.45,3.81,3.02c-0.74,8.25-1.74,14-2.95,22.21c-1.05,7.15-4.07,2.77-6.4,0.04" /><path d="M 65.07,39.723958 c 0.5,0.29 1.66,1.7 1.66,2.78 0,0.59 0.23,54.476042 0.13,58.136042" /></g></g></g></g></g><g fill="none" stroke="#000" stroke-width="5" stroke-linecap="round" stroke-linejoin="round"><g><g><path d="M30.16,12.22c1.53,0.06,4.35,0.2,5.85,0.17c7.74-0.14,29.02-2.32,36.2-2.43c2.09-0.03,2.69-0.16,4.61,0.11" stroke-dasharray="46.76" stroke-dashoffset="46.76"><animate id="0" attributeName="stroke-dashoffset" values="46.76;0" dur="0.47s" fill="freeze" begin="0s;9708.click" /></path><path d="M18.18,21.42c-0.26,5.08-2.57,10.71-4.28,15.84" stroke-dasharray="16.46" stroke-dashoffset="16.46"><animate attributeName="stroke-dashoffset" values="16.46" fill="freeze" begin="9708.click" /><animate id="1" attributeName="stroke-dashoffset" values="16.46;0" dur="0.16s" fill="freeze" begin="0.end" /></path><path d="M18.35,23.82c7.4-1.02,52.34-4.34,68.05-4.34c9.1,0,1.17,6.33-0.28,7.93" stroke-dasharray="81.11" stroke-dashoffset="81.11"><animate attributeName="stroke-dashoffset" values="81.11" fill="freeze" begin="9708.click" /><animate id="2" attributeName="stroke-dashoffset" values="81.11;0" dur="0.61s" fill="freeze" begin="1.end" /></path><path d="M52.92,13.32c0.91,1.36,1.31,2.26,1.33,3.6c0.01,0.48-0.27,22.77-0.27,24.09" stroke-dasharray="27.99" stroke-dashoffset="27.99"><animate attributeName="stroke-dashoffset" values="27.99" fill="freeze" begin="9708.click" /><animate id="3" attributeName="stroke-dashoffset" values="27.99;0" dur="0.28s" fill="freeze" begin="2.end" /></path><path d="M32.5,26.94c4.03,0.76,9.51,3.05,11.71,4.31" stroke-dasharray="12.52" stroke-dashoffset="12.52"><animate attributeName="stroke-dashoffset" values="12.52" fill="freeze" begin="9708.click" /><animate id="4" attributeName="stroke-dashoffset" values="12.52;0" dur="0.13s" fill="freeze" begin="3.end" /></path><path d="M29.5,34.26c3.08,1,7.84,4.66,9.52,6.32" stroke-dasharray="11.49" stroke-dashoffset="11.49"><animate attributeName="stroke-dashoffset" values="11.49" fill="freeze" begin="9708.click" /><animate id="5" attributeName="stroke-dashoffset" values="11.49;0" dur="0.11s" fill="freeze" begin="4.end" /></path><path d="M66.75,25.22c4.16,1.11,8.86,3.32,10.53,4.24" stroke-dasharray="11.37" stroke-dashoffset="11.37"><animate attributeName="stroke-dashoffset" values="11.37" fill="freeze" begin="9708.click" /><animate id="6" attributeName="stroke-dashoffset" values="11.37;0" dur="0.11s" fill="freeze" begin="5.end" /></path><path d="M66.04,32.73c3.59,1.32,8.49,5.27,10.45,7.46" stroke-dasharray="12.93" stroke-dashoffset="12.93"><animate attributeName="stroke-dashoffset" values="12.93" fill="freeze" begin="9708.click" /><animate id="7" attributeName="stroke-dashoffset" values="12.93;0" dur="0.13s" fill="freeze" begin="6.end" /></path></g><g><g><path d="M21.63,44.79c3.04,1.27,7.86,5.22,8.62,7.2" stroke-dasharray="11.39" stroke-dashoffset="11.39"><animate attributeName="stroke-dashoffset" values="11.39" fill="freeze" begin="9708.click" /><animate id="8" attributeName="stroke-dashoffset" values="11.39;0" dur="0.11s" fill="freeze" begin="7.end" /></path><path d="M14.75,57.28c3.79,1.21,9.8,4.99,10.75,6.88" stroke-dasharray="12.92" stroke-dashoffset="12.92"><animate attributeName="stroke-dashoffset" values="12.92" fill="freeze" begin="9708.click" /><animate id="9" attributeName="stroke-dashoffset" values="12.92;0" dur="0.13s" fill="freeze" begin="8.end" /></path><path d="M15.25,92.08c1.65,1.1,3.64,1.15,4.68-0.21c3.03-3.98,6.06-8.84,8.82-13.91" stroke-dasharray="21.65" stroke-dashoffset="21.65"><animate attributeName="stroke-dashoffset" values="21.65" fill="freeze" begin="9708.click" /><animate id="10" attributeName="stroke-dashoffset" values="21.65;0" dur="0.22s" fill="freeze" begin="9.end" /></path></g><g><g p6:partial xmlns:p6="http://kanjivg.tagaini.net"><path d="M38.75,52.26c1.16,0.09,3.81,0.6,4.94,0.48c9.12-1,35.86-3.77,48.25-4.03c1.91-0.04,2.89,0.04,4.31,0.61" stroke-dasharray="57.79" stroke-dashoffset="57.79"><animate attributeName="stroke-dashoffset" values="57.79" fill="freeze" begin="9708.click" /><animate id="11" attributeName="stroke-dashoffset" values="57.79;0" dur="0.58s" fill="freeze" begin="10.end" /></path></g><g><path d="M43.67,62.62c0.84,0.37,2.14,2.38,2.3,3.12c0.17,0.74,1.39,22.85,1.22,27.49" stroke-dasharray="31.47" stroke-dashoffset="31.47"><animate attributeName="stroke-dashoffset" values="31.47" fill="freeze" begin="9708.click" /><animate id="12" attributeName="stroke-dashoffset" values="31.47;0" dur="0.31s" fill="freeze" begin="11.end" /></path><path d="M45.99,65.3c3.68-0.24,37.96-4.08,40.69-4.32c2.32-0.2,3.95,1.45,3.81,3.02c-0.74,8.25-1.74,14-2.95,22.21c-1.05,7.15-4.07,2.77-6.4,0.04" stroke-dasharray="79.48" stroke-dashoffset="79.48"><animate attributeName="stroke-dashoffset" values="79.48" fill="freeze" begin="9708.click" /><animate id="13" attributeName="stroke-dashoffset" values="79.48;0" dur="0.6s" fill="freeze" begin="12.end" /></path><path d="M 65.07,39.723958 c 0.5,0.29 1.66,1.7 1.66,2.78 0,0.59 0.23,54.476042 0.13,58.136042" stroke-dasharray="61.47" stroke-dashoffset="61.47"><animate attributeName="stroke-dashoffset" values="61.47" fill="freeze" begin="9708.click" /><animate id="14" attributeName="stroke-dashoffset" values="61.47;0" dur="0.46s" fill="freeze" begin="13.end" /></path></g></g></g></g></g></svg>