<svg xmlns="http://www.w3.org/2000/svg" viewBox="0 0 109 109" id="9711"><g fill="none" stroke="#666" stroke-width="6" stroke-linecap="round" stroke-linejoin="round"><g><g><path d="M30.16,14.35c1.59,0.07,4.53,0.35,6.07,0.18c8.26-0.89,29.61-3.08,37.05-3.21c2.17-0.04,2.79-0.17,4.78,0.12" /><path d="M20.18,24.92C19.91,30,18.1,35.63,16.4,40.77" /><path d="M20.35,26.82c7.4-1.02,50.84-4.84,66.55-4.84c9.1,0,0.67,5.83-0.78,7.43" /><path d="M51.42,14.32c0.91,1.36,1.31,2.26,1.33,3.6c0.01,0.48-0.27,24.77-0.27,26.09" /><path d="M31.5,30.95c3.51,0.85,8.3,3.38,10.21,4.79" /><path d="M28.5,39.76c3.57,0.92,9.07,4.29,11.02,5.82" /><path d="M66.5,28.27c3.66,1.34,7.81,4.02,9.28,5.13" /><path d="M65.04,38.23c3.76,0.96,8.9,3.86,10.95,5.46" /></g><g><g><path d="M24,50.34c4.01,1.37,10.36,5.64,11.36,7.77" /><path d="M16.71,63.11c3.71,1.4,9.57,5.74,10.5,7.91" /><path d="M18.25,92.86c1.57,0.75,3.46,0.78,4.45-0.14c2.88-2.69,16.3-20.8,18.92-24.23" /></g><g><g><path d="M63.62,46.38c0.56,0.3,1.73,2.23,1.85,2.82c0.11,0.59-0.18,18.14-0.18,26.86" /><path d="M65.68,59.92c8.66-0.75,16.07-1.92,19.49-2.74c1.17-0.28,3.37,0,4.33,0.25" /></g><g><path d="M47.74,77.36c0.36,0.38,0.73,0.7,0.88,1.18c1.25,3.8,2.24,14.29,3.09,21.11" /><path d="M49.33,78.73c9.58-1.41,30.39-4.31,34.95-4.61c1.97-0.13,3.47,1.37,2.92,3.64c-1.15,4.75-2.71,10.59-4.07,16.66" /><path d="M52.07,97.22c8.93-0.97,24.7-2.39,33.61-2.62" /></g></g></g></g></g><g fill="none" stroke="#000" stroke-width="3" stroke-linecap="round" stroke-linejoin="round"><path d="M30.16,14.35c1.59,0.07,4.53,0.35,6.07,0.18c8.26-0.89,29.61-3.08,37.05-3.21c2.17-0.04,2.79-0.17,4.78,0.12" stroke-dasharray="48.065" stroke-dashoffset="48.065"><animate attributeName="stroke-dashoffset" values="48.065;48.065;0" dur="0.481s" fill="freeze" begin="0s;9711.click" /></path><path d="M20.18,24.92C19.91,30,18.1,35.63,16.4,40.77" stroke-dasharray="16.343" stroke-dashoffset="16.343"><animate attributeName="stroke-dashoffset" values="16.343" fill="freeze" begin="9711.click" /><animate attributeName="stroke-dashoffset" values="16.343;16.343;0" keyTimes="0;0.747;1" dur="0.644s" fill="freeze" begin="0s;9711.click" /></path><path d="M20.35,26.82c7.4-1.02,50.84-4.84,66.55-4.84c9.1,0,0.67,5.83-0.78,7.43" stroke-dasharray="79.393" stroke-dashoffset="79.393"><animate attributeName="stroke-dashoffset" values="79.393" fill="freeze" begin="9711.click" /><animate attributeName="stroke-dashoffset" values="79.393;79.393;0" keyTimes="0;0.519;1" dur="1.241s" fill="freeze" begin="0s;9711.click" /></path><path d="M51.42,14.32c0.91,1.36,1.31,2.26,1.33,3.6c0.01,0.48-0.27,24.77-0.27,26.09" stroke-dasharray="29.995" stroke-dashoffset="29.995"><animate attributeName="stroke-dashoffset" values="29.995" fill="freeze" begin="9711.click" /><animate attributeName="stroke-dashoffset" values="29.995;29.995;0" keyTimes="0;0.805;1" dur="1.541s" fill="freeze" begin="0s;9711.click" /></path><path d="M31.5,30.95c3.51,0.85,8.3,3.38,10.21,4.79" stroke-dasharray="11.331" stroke-dashoffset="11.331"><animate attributeName="stroke-dashoffset" values="11.331" fill="freeze" begin="9711.click" /><animate attributeName="stroke-dashoffset" values="11.331;11.331;0" keyTimes="0;0.932;1" dur="1.654s" fill="freeze" begin="0s;9711.click" /></path><path d="M28.5,39.76c3.57,0.92,9.07,4.29,11.02,5.82" stroke-dasharray="12.522" stroke-dashoffset="12.522"><animate attributeName="stroke-dashoffset" values="12.522" fill="freeze" begin="9711.click" /><animate attributeName="stroke-dashoffset" values="12.522;12.522;0" keyTimes="0;0.93;1" dur="1.779s" fill="freeze" begin="0s;9711.click" /></path><path d="M66.5,28.27c3.66,1.34,7.81,4.02,9.28,5.13" stroke-dasharray="10.634" stroke-dashoffset="10.634"><animate attributeName="stroke-dashoffset" values="10.634" fill="freeze" begin="9711.click" /><animate attributeName="stroke-dashoffset" values="10.634;10.634;0" keyTimes="0;0.944;1" dur="1.885s" fill="freeze" begin="0s;9711.click" /></path><path d="M65.04,38.23c3.76,0.96,8.9,3.86,10.95,5.46" stroke-dasharray="12.298" stroke-dashoffset="12.298"><animate attributeName="stroke-dashoffset" values="12.298" fill="freeze" begin="9711.click" /><animate attributeName="stroke-dashoffset" values="12.298;12.298;0" keyTimes="0;0.939;1" dur="2.008s" fill="freeze" begin="0s;9711.click" /></path><path d="M24,50.34c4.01,1.37,10.36,5.64,11.36,7.77" stroke-dasharray="13.945" stroke-dashoffset="13.945"><animate attributeName="stroke-dashoffset" values="13.945" fill="freeze" begin="9711.click" /><animate attributeName="stroke-dashoffset" values="13.945;13.945;0" keyTimes="0;0.935;1" dur="2.147s" fill="freeze" begin="0s;9711.click" /></path><path d="M16.71,63.11c3.71,1.4,9.57,5.74,10.5,7.91" stroke-dasharray="13.328" stroke-dashoffset="13.328"><animate attributeName="stroke-dashoffset" values="13.328" fill="freeze" begin="9711.click" /><animate attributeName="stroke-dashoffset" values="13.328;13.328;0" keyTimes="0;0.942;1" dur="2.28s" fill="freeze" begin="0s;9711.click" /></path><path d="M18.25,92.86c1.57,0.75,3.46,0.78,4.45-0.14c2.88-2.69,16.3-20.8,18.92-24.23" stroke-dasharray="35.454" stroke-dashoffset="35.454"><animate attributeName="stroke-dashoffset" values="35.454" fill="freeze" begin="9711.click" /><animate attributeName="stroke-dashoffset" values="35.454;35.454;0" keyTimes="0;0.865;1" dur="2.635s" fill="freeze" begin="0s;9711.click" /></path><path d="M63.62,46.38c0.56,0.3,1.73,2.23,1.85,2.82c0.11,0.59-0.18,18.14-0.18,26.86" stroke-dasharray="30.276" stroke-dashoffset="30.276"><animate attributeName="stroke-dashoffset" values="30.276" fill="freeze" begin="9711.click" /><animate attributeName="stroke-dashoffset" values="30.276;30.276;0" keyTimes="0;0.897;1" dur="2.938s" fill="freeze" begin="0s;9711.click" /></path><path d="M65.68,59.92c8.66-0.75,16.07-1.92,19.49-2.74c1.17-0.28,3.37,0,4.33,0.25" stroke-dasharray="24.063" stroke-dashoffset="24.063"><animate attributeName="stroke-dashoffset" values="24.063" fill="freeze" begin="9711.click" /><animate attributeName="stroke-dashoffset" values="24.063;24.063;0" keyTimes="0;0.924;1" dur="3.179s" fill="freeze" begin="0s;9711.click" /></path><path d="M47.74,77.36c0.36,0.38,0.73,0.7,0.88,1.18c1.25,3.8,2.24,14.29,3.09,21.11" stroke-dasharray="22.843" stroke-dashoffset="22.843"><animate attributeName="stroke-dashoffset" values="22.843" fill="freeze" begin="9711.click" /><animate attributeName="stroke-dashoffset" values="22.843;22.843;0" keyTimes="0;0.933;1" dur="3.407s" fill="freeze" begin="0s;9711.click" /></path><path d="M49.33,78.73c9.58-1.41,30.39-4.31,34.95-4.61c1.97-0.13,3.47,1.37,2.92,3.64c-1.15,4.75-2.71,10.59-4.07,16.66" stroke-dasharray="57.956" stroke-dashoffset="57.956"><animate attributeName="stroke-dashoffset" values="57.956" fill="freeze" begin="9711.click" /><animate attributeName="stroke-dashoffset" values="57.956;57.956;0" keyTimes="0;0.855;1" dur="3.987s" fill="freeze" begin="0s;9711.click" /></path><path d="M52.07,97.22c8.93-0.97,24.7-2.39,33.61-2.62" stroke-dasharray="33.72" stroke-dashoffset="33.72"><animate attributeName="stroke-dashoffset" values="33.72" fill="freeze" begin="9711.click" /><animate attributeName="stroke-dashoffset" values="33.72;33.72;0" keyTimes="0;0.922;1" dur="4.324s" fill="freeze" begin="0s;9711.click" /></path></g></svg>