<svg xmlns="http://www.w3.org/2000/svg" viewBox="0 0 109 109" id="9719"><g fill="none" stroke="#666" stroke-width="6" stroke-linecap="round" stroke-linejoin="round"><g><g><path d="M32.66,12.56c1.34,0.05,3.82,0.28,5.12,0.15c6.97-0.71,24.97-1.97,31.25-2.06c1.83-0.03,2.35-0.14,4.03,0.1" /><path d="M18.68,22.92C18.41,28,17.1,34.13,15.4,39.27" /><path d="M18.85,24.82c7.4-1.02,52.84-4.84,68.55-4.84c9.1,0,1.17,6.33-0.28,7.93" /><path d="M52.92,12.82c0.91,1.36,1.31,2.26,1.33,3.6c0.01,0.48-0.27,25.27-0.27,26.59" /><path d="M34,27.93c2.99,0.68,7.08,2.71,8.71,3.83" /><path d="M29,35.51c3.08,0.72,7.84,3.37,9.52,4.57" /><path d="M64.5,25.3c4.25,1.46,9.07,4.37,10.78,5.58" /><path d="M65.29,33.98c3.51,1.1,8.29,4.38,10.2,6.21" /></g><g><g><path d="M20.5,52.37c1.56,0.48,3.38,0.57,4.95,0.48c14.37-0.87,41.52-4.29,58.08-4.35c2.61-0.01,4.17,0.23,5.47,0.46" /><path d="M38.5,45.05c1.54,0.97,2.03,1.26,2.2,1.85c1.54,5.56,1.8,9.35,2.3,12.95" /><path d="M67.46,42c0.29,0.75,0.49,1.27,0.34,2.24C67,49.5,66.5,53,65.5,57.49" /></g><g><path d="M30.82,65.92c1.06,0.64,1.2,1.14,1.35,1.92c1.08,5.47,1.82,9.61,2.09,10.5" /><path d="M32.28,66.32c3.6-0.26,38.02-3.34,42.89-3.72c4.87-0.39,4.82,0.58,4.79,2.71c-0.02,1.2-2.68,8.68-3.1,10.1" /><g><path d="M15.55,79.32c1.07,0.3,3.82,0.48,4.99,0.41c16.17-0.99,40.85-2.9,66.86-4.02c1.48-0.06,3.59,0.11,6.92,0.62" /><path d="M54.35,56.98c0.4,0.77,0.41,1.79,0.38,3.08c-0.48,22.2-14.5,34.27-36.67,40.95" /><path d="M54.51,77.59c7.3,6.6,22.3,16.34,29.59,20.75c2.48,1.5,3.34,1.72,4.47,1.87" /></g></g></g></g></g><g fill="none" stroke="#000" stroke-width="3" stroke-linecap="round" stroke-linejoin="round"><path d="M32.66,12.56c1.34,0.05,3.82,0.28,5.12,0.15c6.97-0.71,24.97-1.97,31.25-2.06c1.83-0.03,2.35-0.14,4.03,0.1" stroke-dasharray="40.488" stroke-dashoffset="40.488"><animate attributeName="stroke-dashoffset" values="40.488;40.488;0" dur="0.405s" fill="freeze" begin="0s;9719.click" /></path><path d="M18.68,22.92C18.41,28,17.1,34.13,15.4,39.27" stroke-dasharray="16.721" stroke-dashoffset="16.721"><animate attributeName="stroke-dashoffset" values="16.721" fill="freeze" begin="9719.click" /><animate attributeName="stroke-dashoffset" values="16.721;16.721;0" keyTimes="0;0.708;1" dur="0.572s" fill="freeze" begin="0s;9719.click" /></path><path d="M18.85,24.82c7.4-1.02,52.84-4.84,68.55-4.84c9.1,0,1.17,6.33-0.28,7.93" stroke-dasharray="81.645" stroke-dashoffset="81.645"><animate attributeName="stroke-dashoffset" values="81.645" fill="freeze" begin="9719.click" /><animate attributeName="stroke-dashoffset" values="81.645;81.645;0" keyTimes="0;0.482;1" dur="1.186s" fill="freeze" begin="0s;9719.click" /></path><path d="M52.92,12.82c0.91,1.36,1.31,2.26,1.33,3.6c0.01,0.48-0.27,25.27-0.27,26.59" stroke-dasharray="30.495" stroke-dashoffset="30.495"><animate attributeName="stroke-dashoffset" values="30.495" fill="freeze" begin="9719.click" /><animate attributeName="stroke-dashoffset" values="30.495;30.495;0" keyTimes="0;0.795;1" dur="1.491s" fill="freeze" begin="0s;9719.click" /></path><path d="M34,27.93c2.99,0.68,7.08,2.71,8.71,3.83" stroke-dasharray="9.556" stroke-dashoffset="9.556"><animate attributeName="stroke-dashoffset" values="9.556" fill="freeze" begin="9719.click" /><animate attributeName="stroke-dashoffset" values="9.556;9.556;0" keyTimes="0;0.94;1" dur="1.587s" fill="freeze" begin="0s;9719.click" /></path><path d="M29,35.51c3.08,0.72,7.84,3.37,9.52,4.57" stroke-dasharray="10.606" stroke-dashoffset="10.606"><animate attributeName="stroke-dashoffset" values="10.606" fill="freeze" begin="9719.click" /><animate attributeName="stroke-dashoffset" values="10.606;10.606;0" keyTimes="0;0.937;1" dur="1.693s" fill="freeze" begin="0s;9719.click" /></path><path d="M64.5,25.3c4.25,1.46,9.07,4.37,10.78,5.58" stroke-dasharray="12.171" stroke-dashoffset="12.171"><animate attributeName="stroke-dashoffset" values="12.171" fill="freeze" begin="9719.click" /><animate attributeName="stroke-dashoffset" values="12.171;12.171;0" keyTimes="0;0.933;1" dur="1.815s" fill="freeze" begin="0s;9719.click" /></path><path d="M65.29,33.98c3.51,1.1,8.29,4.38,10.2,6.21" stroke-dasharray="12.017" stroke-dashoffset="12.017"><animate attributeName="stroke-dashoffset" values="12.017" fill="freeze" begin="9719.click" /><animate attributeName="stroke-dashoffset" values="12.017;12.017;0" keyTimes="0;0.938;1" dur="1.935s" fill="freeze" begin="0s;9719.click" /></path><path d="M20.5,52.37c1.56,0.48,3.38,0.57,4.95,0.48c14.37-0.87,41.52-4.29,58.08-4.35c2.61-0.01,4.17,0.23,5.47,0.46" stroke-dasharray="68.754" stroke-dashoffset="68.754"><animate attributeName="stroke-dashoffset" values="68.754" fill="freeze" begin="9719.click" /><animate attributeName="stroke-dashoffset" values="68.754;68.754;0" keyTimes="0;0.789;1" dur="2.452s" fill="freeze" begin="0s;9719.click" /></path><path d="M38.5,45.05c1.54,0.97,2.03,1.26,2.2,1.85c1.54,5.56,1.8,9.35,2.3,12.95" stroke-dasharray="16.1" stroke-dashoffset="16.1"><animate attributeName="stroke-dashoffset" values="16.1" fill="freeze" begin="9719.click" /><animate attributeName="stroke-dashoffset" values="16.1;16.1;0" keyTimes="0;0.938;1" dur="2.613s" fill="freeze" begin="0s;9719.click" /></path><path d="M67.46,42c0.29,0.75,0.49,1.27,0.34,2.24C67,49.5,66.5,53,65.5,57.49" stroke-dasharray="15.753" stroke-dashoffset="15.753"><animate attributeName="stroke-dashoffset" values="15.753" fill="freeze" begin="9719.click" /><animate attributeName="stroke-dashoffset" values="15.753;15.753;0" keyTimes="0;0.943;1" dur="2.771s" fill="freeze" begin="0s;9719.click" /></path><path d="M30.82,65.92c1.06,0.64,1.2,1.14,1.35,1.92c1.08,5.47,1.82,9.61,2.09,10.5" stroke-dasharray="13.156" stroke-dashoffset="13.156"><animate attributeName="stroke-dashoffset" values="13.156" fill="freeze" begin="9719.click" /><animate attributeName="stroke-dashoffset" values="13.156;13.156;0" keyTimes="0;0.955;1" dur="2.903s" fill="freeze" begin="0s;9719.click" /></path><path d="M32.28,66.32c3.6-0.26,38.02-3.34,42.89-3.72c4.87-0.39,4.82,0.58,4.79,2.71c-0.02,1.2-2.68,8.68-3.1,10.1" stroke-dasharray="60.411" stroke-dashoffset="60.411"><animate attributeName="stroke-dashoffset" values="60.411" fill="freeze" begin="9719.click" /><animate attributeName="stroke-dashoffset" values="60.411;60.411;0" keyTimes="0;0.865;1" dur="3.357s" fill="freeze" begin="0s;9719.click" /></path><path d="M15.55,79.32c1.07,0.3,3.82,0.48,4.99,0.41c16.17-0.99,40.85-2.9,66.86-4.02c1.48-0.06,3.59,0.11,6.92,0.62" stroke-dasharray="78.96" stroke-dashoffset="78.96"><animate attributeName="stroke-dashoffset" values="78.96" fill="freeze" begin="9719.click" /><animate attributeName="stroke-dashoffset" values="78.96;78.96;0" keyTimes="0;0.85;1" dur="3.951s" fill="freeze" begin="0s;9719.click" /></path><path d="M54.35,56.98c0.4,0.77,0.41,1.79,0.38,3.08c-0.48,22.2-14.5,34.27-36.67,40.95" stroke-dasharray="62.625" stroke-dashoffset="62.625"><animate attributeName="stroke-dashoffset" values="62.625" fill="freeze" begin="9719.click" /><animate attributeName="stroke-dashoffset" values="62.625;62.625;0" keyTimes="0;0.893;1" dur="4.422s" fill="freeze" begin="0s;9719.click" /></path><path d="M54.51,77.59c7.3,6.6,22.3,16.34,29.59,20.75c2.48,1.5,3.34,1.72,4.47,1.87" stroke-dasharray="41.067" stroke-dashoffset="41.067"><animate attributeName="stroke-dashoffset" values="41.067" fill="freeze" begin="9719.click" /><animate attributeName="stroke-dashoffset" values="41.067;41.067;0" keyTimes="0;0.915;1" dur="4.833s" fill="freeze" begin="0s;9719.click" /></path></g></svg>