<svg xmlns="http://www.w3.org/2000/svg" width="109" height="109" viewBox="0 0 109 109" id="977a"><g fill="none" stroke="#666" stroke-width="6" stroke-linecap="round" stroke-linejoin="round"><g><g><g><g><path d="M10.4,25.23c0.87,0.37,2.46,0.44,3.33,0.37c4.54-0.34,20.76-1.6,30.68-3.24c1.43-0.24,2.32,0.18,3.04,0.36" /><path d="M17.35,15.46c0.47,0.33,1.25,1.98,1.34,2.64c0.81,5.9,1.23,10.94,1.73,18.4" /></g><path d="M36.05,11c0.52,0.37,1,1.63,0.93,2.37c-0.72,7.6-0.36,10.44-1.73,20.65" /><path d="M22.33,35.75c1.77,0,13.68-1.23,15.27-1.37" /></g><g><path d="M12.12,45.05c0.3,0.51,0.61,0.93,0.74,1.56c1.05,5.01,1.93,8.09,2.65,17.1" /><path d="M13.4,46.23c8.9-1.83,24.79-3.25,28.6-3.96c1.4-0.26,2.58,1.56,2.33,3.07c-0.5,3.1-1.85,7.36-2.94,12.75" /><path d="M15.28,61.47c4.48-0.8,20.11-2.06,27.51-2.59" /><path d="M9.75,75.7c0.86,0.54,2.92,0.49,3.79,0.54c4.71,0.26,19.46-1.99,30.45-3.73c1.41-0.22,2.29,0.26,3.01,0.53" /><path d="M27.96,37.25c0.36,1,0.54,2.23,0.54,3.25c0,8.5,0,52.25-0.12,58.5" /></g></g><g><path d="M47.93,31.4c1.08,0.49,3.05,0.58,4.13,0.49c5.44-0.45,33.03-3.86,39.36-4.07c1.79-0.06,2.87,0.23,3.77,0.48" /><g><path d="M51.42,49.69c0.66,0.28,2.44,0.42,4.21,0.28c9.36-0.73,24.39-2.64,33.93-3.21c1.77-0.11,2.22-0.28,3.32,0" /><path d="M68.3,12c1.2,0.48,1.92,2.15,2.15,3.11s0,77.9-0.24,83.89" /><path d="M70.16,48.8c-4.88,12.96-17.57,31.31-27.72,38.65" /><path d="M70.34,53.06c3.55,4.6,19.13,26.36,22.99,30.88c1.31,1.53,2.43,2.19,3.74,2.63" /></g></g></g></g><g fill="none" stroke="#000" stroke-width="3" stroke-linecap="round" stroke-linejoin="round"><path d="M10.4,25.23c0.87,0.37,2.46,0.44,3.33,0.37c4.54-0.34,20.76-1.6,30.68-3.24c1.43-0.24,2.32,0.18,3.04,0.36" stroke-dasharray="37.33" stroke-dashoffset="37.33"><animate attributeName="stroke-dashoffset" values="37.33;37.33;0" dur="0.373s" fill="freeze" begin="0s;977a.click" /></path><path d="M17.35,15.46c0.47,0.33,1.25,1.98,1.34,2.64c0.81,5.9,1.23,10.94,1.73,18.4" stroke-dasharray="21.485" stroke-dashoffset="21.485"><animate attributeName="stroke-dashoffset" values="21.485" fill="freeze" begin="977a.click" /><animate attributeName="stroke-dashoffset" values="21.485;21.485;0" keyTimes="0;0.634;1" dur="0.588s" fill="freeze" begin="0s;977a.click" /></path><path d="M36.05,11c0.52,0.37,1,1.63,0.93,2.37c-0.72,7.6-0.36,10.44-1.73,20.65" stroke-dasharray="23.353" stroke-dashoffset="23.353"><animate attributeName="stroke-dashoffset" values="23.353" fill="freeze" begin="977a.click" /><animate attributeName="stroke-dashoffset" values="23.353;23.353;0" keyTimes="0;0.715;1" dur="0.822s" fill="freeze" begin="0s;977a.click" /></path><path d="M22.33,35.75c1.77,0,13.68-1.23,15.27-1.37" stroke-dasharray="15.334" stroke-dashoffset="15.334"><animate attributeName="stroke-dashoffset" values="15.334" fill="freeze" begin="977a.click" /><animate attributeName="stroke-dashoffset" values="15.334;15.334;0" keyTimes="0;0.843;1" dur="0.975s" fill="freeze" begin="0s;977a.click" /></path><path d="M12.12,45.05c0.3,0.51,0.61,0.93,0.74,1.56c1.05,5.01,1.93,8.09,2.65,17.1" stroke-dasharray="19.061" stroke-dashoffset="19.061"><animate attributeName="stroke-dashoffset" values="19.061" fill="freeze" begin="977a.click" /><animate attributeName="stroke-dashoffset" values="19.061;19.061;0" keyTimes="0;0.836;1" dur="1.166s" fill="freeze" begin="0s;977a.click" /></path><path d="M13.4,46.23c8.9-1.83,24.79-3.25,28.6-3.96c1.4-0.26,2.58,1.56,2.33,3.07c-0.5,3.1-1.85,7.36-2.94,12.75" stroke-dasharray="46.388" stroke-dashoffset="46.388"><animate attributeName="stroke-dashoffset" values="46.388" fill="freeze" begin="977a.click" /><animate attributeName="stroke-dashoffset" values="46.388;46.388;0" keyTimes="0;0.715;1" dur="1.63s" fill="freeze" begin="0s;977a.click" /></path><path d="M15.28,61.47c4.48-0.8,20.11-2.06,27.51-2.59" stroke-dasharray="27.638" stroke-dashoffset="27.638"><animate attributeName="stroke-dashoffset" values="27.638" fill="freeze" begin="977a.click" /><animate attributeName="stroke-dashoffset" values="27.638;27.638;0" keyTimes="0;0.855;1" dur="1.906s" fill="freeze" begin="0s;977a.click" /></path><path d="M9.75,75.7c0.86,0.54,2.92,0.49,3.79,0.54c4.71,0.26,19.46-1.99,30.45-3.73c1.41-0.22,2.29,0.26,3.01,0.53" stroke-dasharray="37.671" stroke-dashoffset="37.671"><animate attributeName="stroke-dashoffset" values="37.671" fill="freeze" begin="977a.click" /><animate attributeName="stroke-dashoffset" values="37.671;37.671;0" keyTimes="0;0.835;1" dur="2.283s" fill="freeze" begin="0s;977a.click" /></path><path d="M27.96,37.25c0.36,1,0.54,2.23,0.54,3.25c0,8.5,0,52.25-0.12,58.5" stroke-dasharray="61.811" stroke-dashoffset="61.811"><animate attributeName="stroke-dashoffset" values="61.811" fill="freeze" begin="977a.click" /><animate attributeName="stroke-dashoffset" values="61.811;61.811;0" keyTimes="0;0.831;1" dur="2.748s" fill="freeze" begin="0s;977a.click" /></path><path d="M47.93,31.4c1.08,0.49,3.05,0.58,4.13,0.49c5.44-0.45,33.03-3.86,39.36-4.07c1.79-0.06,2.87,0.23,3.77,0.48" stroke-dasharray="47.585" stroke-dashoffset="47.585"><animate attributeName="stroke-dashoffset" values="47.585" fill="freeze" begin="977a.click" /><animate attributeName="stroke-dashoffset" values="47.585;47.585;0" keyTimes="0;0.852;1" dur="3.224s" fill="freeze" begin="0s;977a.click" /></path><path d="M51.42,49.69c0.66,0.28,2.44,0.42,4.21,0.28c9.36-0.73,24.39-2.64,33.93-3.21c1.77-0.11,2.22-0.28,3.32,0" stroke-dasharray="41.668" stroke-dashoffset="41.668"><animate attributeName="stroke-dashoffset" values="41.668" fill="freeze" begin="977a.click" /><animate attributeName="stroke-dashoffset" values="41.668;41.668;0" keyTimes="0;0.885;1" dur="3.641s" fill="freeze" begin="0s;977a.click" /></path><path d="M68.3,12c1.2,0.48,1.92,2.15,2.15,3.11s0,77.9-0.24,83.89" stroke-dasharray="87.801" stroke-dashoffset="87.801"><animate attributeName="stroke-dashoffset" values="87.801" fill="freeze" begin="977a.click" /><animate attributeName="stroke-dashoffset" values="87.801;87.801;0" keyTimes="0;0.847;1" dur="4.301s" fill="freeze" begin="0s;977a.click" /></path><path d="M70.16,48.8c-4.88,12.96-17.57,31.31-27.72,38.65" stroke-dasharray="48.055" stroke-dashoffset="48.055"><animate attributeName="stroke-dashoffset" values="48.055" fill="freeze" begin="977a.click" /><animate attributeName="stroke-dashoffset" values="48.055;48.055;0" keyTimes="0;0.899;1" dur="4.782s" fill="freeze" begin="0s;977a.click" /></path><path d="M70.34,53.06c3.55,4.6,19.13,26.36,22.99,30.88c1.31,1.53,2.43,2.19,3.74,2.63" stroke-dasharray="43.138" stroke-dashoffset="43.138"><animate attributeName="stroke-dashoffset" values="43.138" fill="freeze" begin="977a.click" /><animate attributeName="stroke-dashoffset" values="43.138;43.138;0" keyTimes="0;0.917;1" dur="5.213s" fill="freeze" begin="0s;977a.click" /></path></g></svg>