<svg xmlns="http://www.w3.org/2000/svg" width="109" height="109" viewBox="0 0 109 109" id="9790"><g fill="none" stroke="#666" stroke-width="9" stroke-linecap="round" stroke-linejoin="round"><g><g><g><g><path d="M9.9,24.66c0.9,0.38,2.55,0.45,3.45,0.38c4.7-0.35,21.65-2.29,31.21-3.13c1.5-0.13,2.4,0.18,3.15,0.38" /><path d="M18.21,13.96c0.51,0.36,0.82,1.62,0.92,2.34c0.89,6.46,1.9,12.03,2.44,20.2" /></g><path d="M36.92,12.75c0.55,0.33,1.07,1.47,0.99,2.14c-0.77,6.86-0.39,9.42-1.86,18.63" /><path d="M21.83,34.75c1.77,0,14.68-1.23,16.27-1.37" /></g><g><path d="M12.26,44.23c0.29,0.49,1.09,1.41,1.21,2.02c1.01,4.9,1.86,7.91,2.54,16.7" /><path d="M13.75,45.5c9-1.25,25.45-2.75,29.32-3.48c1.42-0.27,2.62,1.6,2.37,3.15c-0.51,3.18-1.88,7.06-2.99,12.61" /><path d="M15.91,61.77c4.56-0.82,21.95-2.13,29.46-2.68" /><path d="M10.75,76.2c0.86,0.54,2.42,0.57,3.29,0.54C22.25,76.5,35.5,74,44.99,73.01c1.42-0.15,2.29,0.26,3.01,0.53" /><path d="M28.96,36.75c0.36,1,0.54,2.23,0.54,3.25c0,8.5,0,52.25-0.12,58.5" /></g></g><g><g><g><path d="M68.34,11.38c0.57,0.36,1.76,2.72,1.87,3.44c0.11,0.73-0.07,21.71-0.19,26.25" /><path d="M70.2,26.53c2.05-0.19,17.37-2.74,18.49-2.74s2.63,0,3.54,0.19" /></g><g><path d="M52.11,42.28c0.99,0.28,2.81,0.34,3.79,0.28c8.6-0.6,22.85-2.56,37.63-3.43c1.65-0.1,2.64,0.13,3.46,0.27" /></g></g><g><g><path d="M51.75,57c0.6,0.2,3.08,0.85,4.12,0.75C69.5,56.5,82.5,55,93.25,54c1.24-0.12,3,0.25,4.25,0.75" /></g><g><path d="M69.47,57.75c0.93,1.07,1.06,2.8,1.06,4.8c0,10.53-0.29,23.2-0.29,36.45" /><path d="M74.08,65.92C79.25,67,89.5,74.5,92,79.62" /></g></g></g></g></g><g fill="none" stroke="#000" stroke-width="5" stroke-linecap="round" stroke-linejoin="round"><g><g><g><g><path d="M9.9,24.66c0.9,0.38,2.55,0.45,3.45,0.38c4.7-0.35,21.65-2.29,31.21-3.13c1.5-0.13,2.4,0.18,3.15,0.38" stroke-dasharray="38.06" stroke-dashoffset="38.06"><animate id="0" attributeName="stroke-dashoffset" values="38.06;0" dur="0.38s" fill="freeze" begin="0s;9790.click" /></path><path d="M18.21,13.96c0.51,0.36,0.82,1.62,0.92,2.34c0.89,6.46,1.9,12.03,2.44,20.2" stroke-dasharray="22.92" stroke-dashoffset="22.92"><animate attributeName="stroke-dashoffset" values="22.92" fill="freeze" begin="9790.click" /><animate id="1" attributeName="stroke-dashoffset" values="22.92;0" dur="0.23s" fill="freeze" begin="0.end" /></path></g><path d="M36.92,12.75c0.55,0.33,1.07,1.47,0.99,2.14c-0.77,6.86-0.39,9.42-1.86,18.63" stroke-dasharray="21.18" stroke-dashoffset="21.18"><animate attributeName="stroke-dashoffset" values="21.18" fill="freeze" begin="9790.click" /><animate id="2" attributeName="stroke-dashoffset" values="21.18;0" dur="0.21s" fill="freeze" begin="1.end" /></path><path d="M21.83,34.75c1.77,0,14.68-1.23,16.27-1.37" stroke-dasharray="16.33" stroke-dashoffset="16.33"><animate attributeName="stroke-dashoffset" values="16.33" fill="freeze" begin="9790.click" /><animate id="3" attributeName="stroke-dashoffset" values="16.33;0" dur="0.16s" fill="freeze" begin="2.end" /></path></g><g><path d="M12.26,44.23c0.29,0.49,1.09,1.41,1.21,2.02c1.01,4.9,1.86,7.91,2.54,16.7" stroke-dasharray="19.28" stroke-dashoffset="19.28"><animate attributeName="stroke-dashoffset" values="19.28" fill="freeze" begin="9790.click" /><animate id="4" attributeName="stroke-dashoffset" values="19.28;0" dur="0.19s" fill="freeze" begin="3.end" /></path><path d="M13.75,45.5c9-1.25,25.45-2.75,29.32-3.48c1.42-0.27,2.62,1.6,2.37,3.15c-0.51,3.18-1.88,7.06-2.99,12.61" stroke-dasharray="47.01" stroke-dashoffset="47.01"><animate attributeName="stroke-dashoffset" values="47.01" fill="freeze" begin="9790.click" /><animate id="5" attributeName="stroke-dashoffset" values="47.01;0" dur="0.47s" fill="freeze" begin="4.end" /></path><path d="M15.91,61.77c4.56-0.82,21.95-2.13,29.46-2.68" stroke-dasharray="29.59" stroke-dashoffset="29.59"><animate attributeName="stroke-dashoffset" values="29.59" fill="freeze" begin="9790.click" /><animate id="6" attributeName="stroke-dashoffset" values="29.59;0" dur="0.3s" fill="freeze" begin="5.end" /></path><path d="M10.75,76.2c0.86,0.54,2.42,0.57,3.29,0.54C22.25,76.5,35.5,74,44.99,73.01c1.42-0.15,2.29,0.26,3.01,0.53" stroke-dasharray="37.65" stroke-dashoffset="37.65"><animate attributeName="stroke-dashoffset" values="37.65" fill="freeze" begin="9790.click" /><animate id="7" attributeName="stroke-dashoffset" values="37.65;0" dur="0.38s" fill="freeze" begin="6.end" /></path><path d="M28.96,36.75c0.36,1,0.54,2.23,0.54,3.25c0,8.5,0,52.25-0.12,58.5" stroke-dasharray="61.81" stroke-dashoffset="61.81"><animate attributeName="stroke-dashoffset" values="61.81" fill="freeze" begin="9790.click" /><animate id="8" attributeName="stroke-dashoffset" values="61.81;0" dur="0.46s" fill="freeze" begin="7.end" /></path></g></g><g><g><g><path d="M68.34,11.38c0.57,0.36,1.76,2.72,1.87,3.44c0.11,0.73-0.07,21.71-0.19,26.25" stroke-dasharray="30.21" stroke-dashoffset="30.21"><animate attributeName="stroke-dashoffset" values="30.21" fill="freeze" begin="9790.click" /><animate id="9" attributeName="stroke-dashoffset" values="30.21;0" dur="0.3s" fill="freeze" begin="8.end" /></path><path d="M70.2,26.53c2.05-0.19,17.37-2.74,18.49-2.74s2.63,0,3.54,0.19" stroke-dasharray="22.24" stroke-dashoffset="22.24"><animate attributeName="stroke-dashoffset" values="22.24" fill="freeze" begin="9790.click" /><animate id="10" attributeName="stroke-dashoffset" values="22.24;0" dur="0.22s" fill="freeze" begin="9.end" /></path></g><g><path d="M52.11,42.28c0.99,0.28,2.81,0.34,3.79,0.28c8.6-0.6,22.85-2.56,37.63-3.43c1.65-0.1,2.64,0.13,3.46,0.27" stroke-dasharray="45.08" stroke-dashoffset="45.08"><animate attributeName="stroke-dashoffset" values="45.08" fill="freeze" begin="9790.click" /><animate id="11" attributeName="stroke-dashoffset" values="45.08;0" dur="0.45s" fill="freeze" begin="10.end" /></path></g></g><g><g><path d="M51.75,57c0.6,0.2,3.08,0.85,4.12,0.75C69.5,56.5,82.5,55,93.25,54c1.24-0.12,3,0.25,4.25,0.75" stroke-dasharray="46.12" stroke-dashoffset="46.12"><animate attributeName="stroke-dashoffset" values="46.12" fill="freeze" begin="9790.click" /><animate id="12" attributeName="stroke-dashoffset" values="46.12;0" dur="0.46s" fill="freeze" begin="11.end" /></path></g><g><path d="M69.47,57.75c0.93,1.07,1.06,2.8,1.06,4.8c0,10.53-0.29,23.2-0.29,36.45" stroke-dasharray="41.47" stroke-dashoffset="41.47"><animate attributeName="stroke-dashoffset" values="41.47" fill="freeze" begin="9790.click" /><animate id="13" attributeName="stroke-dashoffset" values="41.47;0" dur="0.41s" fill="freeze" begin="12.end" /></path><path d="M74.08,65.92C79.25,67,89.5,74.5,92,79.62" stroke-dasharray="23.01" stroke-dashoffset="23.01"><animate attributeName="stroke-dashoffset" values="23.01" fill="freeze" begin="9790.click" /><animate id="14" attributeName="stroke-dashoffset" values="23.01;0" dur="0.23s" fill="freeze" begin="13.end" /></path></g></g></g></g></g></svg>