<svg xmlns="http://www.w3.org/2000/svg" width="109" height="109" viewBox="0 0 109 109" id="97ee"><g fill="none" stroke="#666" stroke-width="6" stroke-linecap="round" stroke-linejoin="round"><g><g><path d="M20,26.77c1.29,0.53,2.8,0.63,4.1,0.53C36,26.33,71,22.83,84.72,22.76c2.16-0.01,3.45,0.25,4.53,0.51" /><path d="M37.75,13.5c1.75,1.43,2.31,1.87,2.5,2.75C42,24.5,42.5,32,43,35" /><path d="M66.25,11.75c1.12,1,1.87,2.52,1.5,4c-1.12,4.5-1.88,12-3.5,17.75" /></g><g><g><g><path d="M43.46,42.22c1.01,0.37,1.61,1.66,1.81,2.39c0.2,0.74,0,45.38-0.2,49.99" /><path d="M61.9,40.75c1.01,0.37,1.62,1.66,1.82,2.39c0.2,0.74,0,46.12-0.2,50.72" /><path d="M18.95,52.9c0.87,0.28,2.46,0.28,3.34,0.28c7.09-0.02,13.42-1.12,19.87-1.39c1.45-0.06,2.12-0.1,3.04-0.1" /><path d="M18.68,66.9c0.87,0.28,2.46,0.28,3.33,0.28c7.09-0.02,13.46-1.49,19.91-1.76c1.45-0.06,2.12-0.1,3.04-0.1" /></g><g><path d="M19.29,80.89c0.87,0.28,2.46,0.28,3.33,0.28c7.08-0.02,12.12-0.68,19.3-1.49c1.43-0.16,2.12-0.1,3.04-0.1" /><path d="M64.11,50.88c1.16,0,1.08-0.01,1.94-0.09c5.54-0.49,14.97-1.81,20.26-2.26c1.44-0.12,2.32,0.13,3.05,0.27" /><path d="M63.87,64.77c1.16,0,1.08-0.01,1.95-0.09c5.54-0.49,14.43-1.3,19.72-1.76c1.44-0.12,2.32,0.13,3.04,0.27" /><path d="M64.11,78.76c1.16,0,1.08-0.01,1.94-0.09c5.54-0.49,15.36-1.31,20.65-1.76c1.44-0.12,2.32,0.13,3.05,0.27" /></g></g><g><path d="M16.86,95.85c1.44,0.4,4.08,0.5,5.51,0.4c18.57-1.28,52.65-3.31,67.73-2.75c2.39,0.09,3.83,0.19,5.03,0.39" /></g></g></g></g><g fill="none" stroke="#000" stroke-width="3" stroke-linecap="round" stroke-linejoin="round"><path d="M20,26.77c1.29,0.53,2.8,0.63,4.1,0.53C36,26.33,71,22.83,84.72,22.76c2.16-0.01,3.45,0.25,4.53,0.51" stroke-dasharray="69.543" stroke-dashoffset="69.543"><animate attributeName="stroke-dashoffset" values="69.543;69.543;0" dur="0.523s" fill="freeze" begin="0s;97ee.click" /></path><path d="M37.75,13.5c1.75,1.43,2.31,1.87,2.5,2.75C42,24.5,42.5,32,43,35" stroke-dasharray="22.747" stroke-dashoffset="22.747"><animate attributeName="stroke-dashoffset" values="22.747" fill="freeze" begin="97ee.click" /><animate attributeName="stroke-dashoffset" values="22.747;22.747;0" keyTimes="0;0.697;1" dur="0.75s" fill="freeze" begin="0s;97ee.click" /></path><path d="M66.25,11.75c1.12,1,1.87,2.52,1.5,4c-1.12,4.5-1.88,12-3.5,17.75" stroke-dasharray="22.587" stroke-dashoffset="22.587"><animate attributeName="stroke-dashoffset" values="22.587" fill="freeze" begin="97ee.click" /><animate attributeName="stroke-dashoffset" values="22.587;22.587;0" keyTimes="0;0.768;1" dur="0.976s" fill="freeze" begin="0s;97ee.click" /></path><path d="M43.46,42.22c1.01,0.37,1.61,1.66,1.81,2.39c0.2,0.74,0,45.38-0.2,49.99" stroke-dasharray="53.094" stroke-dashoffset="53.094"><animate attributeName="stroke-dashoffset" values="53.094" fill="freeze" begin="97ee.click" /><animate attributeName="stroke-dashoffset" values="53.094;53.094;0" keyTimes="0;0.648;1" dur="1.507s" fill="freeze" begin="0s;97ee.click" /></path><path d="M61.9,40.75c1.01,0.37,1.62,1.66,1.82,2.39c0.2,0.74,0,46.12-0.2,50.72" stroke-dasharray="53.83" stroke-dashoffset="53.83"><animate attributeName="stroke-dashoffset" values="53.83" fill="freeze" begin="97ee.click" /><animate attributeName="stroke-dashoffset" values="53.83;53.83;0" keyTimes="0;0.737;1" dur="2.045s" fill="freeze" begin="0s;97ee.click" /></path><path d="M18.95,52.9c0.87,0.28,2.46,0.28,3.34,0.28c7.09-0.02,13.42-1.12,19.87-1.39c1.45-0.06,2.12-0.1,3.04-0.1" stroke-dasharray="26.33" stroke-dashoffset="26.33"><animate attributeName="stroke-dashoffset" values="26.33" fill="freeze" begin="97ee.click" /><animate attributeName="stroke-dashoffset" values="26.33;26.33;0" keyTimes="0;0.886;1" dur="2.308s" fill="freeze" begin="0s;97ee.click" /></path><path d="M18.68,66.9c0.87,0.28,2.46,0.28,3.33,0.28c7.09-0.02,13.46-1.49,19.91-1.76c1.45-0.06,2.12-0.1,3.04-0.1" stroke-dasharray="26.394" stroke-dashoffset="26.394"><animate attributeName="stroke-dashoffset" values="26.394" fill="freeze" begin="97ee.click" /><animate attributeName="stroke-dashoffset" values="26.394;26.394;0" keyTimes="0;0.897;1" dur="2.572s" fill="freeze" begin="0s;97ee.click" /></path><path d="M19.29,80.89c0.87,0.28,2.46,0.28,3.33,0.28c7.08-0.02,12.12-0.68,19.3-1.49c1.43-0.16,2.12-0.1,3.04-0.1" stroke-dasharray="25.768" stroke-dashoffset="25.768"><animate attributeName="stroke-dashoffset" values="25.768" fill="freeze" begin="97ee.click" /><animate attributeName="stroke-dashoffset" values="25.768;25.768;0" keyTimes="0;0.909;1" dur="2.83s" fill="freeze" begin="0s;97ee.click" /></path><path d="M64.11,50.88c1.16,0,1.08-0.01,1.94-0.09c5.54-0.49,14.97-1.81,20.26-2.26c1.44-0.12,2.32,0.13,3.05,0.27" stroke-dasharray="25.407" stroke-dashoffset="25.407"><animate attributeName="stroke-dashoffset" values="25.407" fill="freeze" begin="97ee.click" /><animate attributeName="stroke-dashoffset" values="25.407;25.407;0" keyTimes="0;0.918;1" dur="3.084s" fill="freeze" begin="0s;97ee.click" /></path><path d="M63.87,64.77c1.16,0,1.08-0.01,1.95-0.09c5.54-0.49,14.43-1.3,19.72-1.76c1.44-0.12,2.32,0.13,3.04,0.27" stroke-dasharray="24.819" stroke-dashoffset="24.819"><animate attributeName="stroke-dashoffset" values="24.819" fill="freeze" begin="97ee.click" /><animate attributeName="stroke-dashoffset" values="24.819;24.819;0" keyTimes="0;0.926;1" dur="3.332s" fill="freeze" begin="0s;97ee.click" /></path><path d="M64.11,78.76c1.16,0,1.08-0.01,1.94-0.09c5.54-0.49,15.36-1.31,20.65-1.76c1.44-0.12,2.32,0.13,3.05,0.27" stroke-dasharray="25.745" stroke-dashoffset="25.745"><animate attributeName="stroke-dashoffset" values="25.745" fill="freeze" begin="97ee.click" /><animate attributeName="stroke-dashoffset" values="25.745;25.745;0" keyTimes="0;0.928;1" dur="3.589s" fill="freeze" begin="0s;97ee.click" /></path><path d="M16.86,95.85c1.44,0.4,4.08,0.5,5.51,0.4c18.57-1.28,52.65-3.31,67.73-2.75c2.39,0.09,3.83,0.19,5.03,0.39" stroke-dasharray="78.399" stroke-dashoffset="78.399"><animate attributeName="stroke-dashoffset" values="78.399" fill="freeze" begin="97ee.click" /><animate attributeName="stroke-dashoffset" values="78.399;78.399;0" keyTimes="0;0.859;1" dur="4.178s" fill="freeze" begin="0s;97ee.click" /></path></g></svg>