<svg xmlns="http://www.w3.org/2000/svg" width="109" height="109" viewBox="0 0 109 109" id="97f2"><g fill="none" stroke="#666" stroke-width="9" stroke-linecap="round" stroke-linejoin="round"><g><g p4:partial xmlns:p4="http://kanjivg.tagaini.net"><g><path d="M52.32,9.75c0.78,0.42,2.07,2.05,2.07,2.89c0,3.09-0.25,4.5-0.1,7.12" /><path d="M17.33,22.04c2.24,0.44,4.19,0.76,6.77,0.61C39.79,21.8,69.17,19.69,87,18.8c2.62-0.13,3.96,0.05,5.92,0.78" /></g><g><path d="M43.77,24.83c2.49,1.48,6.42,6.08,7.04,8.38" /><path d="M63.29,24.14c0.02,0.27,0.04,0.69-0.04,1.07c-0.44,2.26-2.97,7.22-6.44,10.25" /><path d="M53.81,37.83c0.42,0.4,0.72,0.86,0.76,2.17c0.17,6.28-0.01,12.61-0.01,14.75" /><g><path d="M18.85,33.19c0.6,0.24,1.9,0.21,2.43,0.13c4.31-0.68,18.52-1.49,20.91-1.74c1.56-0.16,2.06,0.74,1.9,1.87c-0.9,6.3-3.26,12.55-5.99,17.34c-1.43,2.51-3.1,1.71-4.15-0.24" /><path d="M31.47,35.52c0.04,0.4,0.09,1.03-0.07,1.61c-1.24,4.24-6.52,10.23-13.25,15.38" /></g><path d="M84.46,23.89c0.04,0.22,0.08,0.56-0.07,0.87c-0.88,1.84-6.72,6.35-13.61,8.83" /><path d="M67.25,33.77c0.41,0.61,0.71,1.43,0.71,2.34c0,0.92-0.1,13.82-0.1,15.25c0,1.43,0.1,1.83,1.42,0.81c1.32-1.02,8.29-5.56,9.1-6.17" /><path d="M77.12,31.86C80,37.5,83,42.25,88.55,48.51c1.17,1.32,3.03,2.02,4.7,2.74" /></g></g><g><g><g><path d="M45.31,57.41c0.9,0.29,1.44,1.3,1.62,1.88c0.18,0.58,0,33.08-0.18,36.69" /><path d="M59.76,56.75c0.9,0.29,1.44,1.3,1.62,1.88c0.18,0.58,0,32.15-0.18,35.76" /><path d="M17.74,65.28c0.9,0.22,2.54,0.22,3.45,0.22c7.32-0.01,24.72-1.67,25.68-1.67" /><path d="M19.46,75.75c0.9,0.22,2.54,0.29,3.44,0.22c9.34-0.72,22.76-1.96,23.72-1.96" /></g><g><path d="M19.59,86.22c0.9,0.22,2.55,0.34,3.45,0.22c8.96-1.19,22.63-2.25,23.59-2.25" /><path d="M61.78,63.69c1.28,0,19.68-0.98,25.53-1.34c1.59-0.1,2.56,0.11,3.36,0.21" /><path d="M61.52,73.58c1.28,0,18.09-1.09,23.94-1.45c1.59-0.1,2.56,0.1,3.36,0.22" /><path d="M61.78,83.55c1.28,0,19.11-1.09,24.96-1.45c1.59-0.1,2.56,0.1,3.36,0.21" /></g></g><g p5:partial xmlns:p5="http://kanjivg.tagaini.net"><g><path d="M15.59,97.29c1.84,0.45,5.21,0.56,7.04,0.45c23.75-1.44,45.82-3.22,65.09-2.59c3.06,0.1,4.9,0.21,6.43,0.44" /></g></g></g></g></g><g fill="none" stroke="#000" stroke-width="5" stroke-linecap="round" stroke-linejoin="round"><g><g p4:partial xmlns:p4="http://kanjivg.tagaini.net"><g><path d="M52.32,9.75c0.78,0.42,2.07,2.05,2.07,2.89c0,3.09-0.25,4.5-0.1,7.12" stroke-dasharray="10.77" stroke-dashoffset="10.77"><animate id="0" attributeName="stroke-dashoffset" values="10.77;0" dur="0.11s" fill="freeze" begin="0s;97f2.click" /></path><path d="M17.33,22.04c2.24,0.44,4.19,0.76,6.77,0.61C39.79,21.8,69.17,19.69,87,18.8c2.62-0.13,3.96,0.05,5.92,0.78" stroke-dasharray="75.86" stroke-dashoffset="75.86"><animate attributeName="stroke-dashoffset" values="75.86" fill="freeze" begin="97f2.click" /><animate id="1" attributeName="stroke-dashoffset" values="75.86;0" dur="0.57s" fill="freeze" begin="0.end" /></path></g><g><path d="M43.77,24.83c2.49,1.48,6.42,6.08,7.04,8.38" stroke-dasharray="11.1" stroke-dashoffset="11.1"><animate attributeName="stroke-dashoffset" values="11.1" fill="freeze" begin="97f2.click" /><animate id="2" attributeName="stroke-dashoffset" values="11.1;0" dur="0.11s" fill="freeze" begin="1.end" /></path><path d="M63.29,24.14c0.02,0.27,0.04,0.69-0.04,1.07c-0.44,2.26-2.97,7.22-6.44,10.25" stroke-dasharray="13.34" stroke-dashoffset="13.34"><animate attributeName="stroke-dashoffset" values="13.34" fill="freeze" begin="97f2.click" /><animate id="3" attributeName="stroke-dashoffset" values="13.34;0" dur="0.13s" fill="freeze" begin="2.end" /></path><path d="M53.81,37.83c0.42,0.4,0.72,0.86,0.76,2.17c0.17,6.28-0.01,12.61-0.01,14.75" stroke-dasharray="17.12" stroke-dashoffset="17.12"><animate attributeName="stroke-dashoffset" values="17.12" fill="freeze" begin="97f2.click" /><animate id="4" attributeName="stroke-dashoffset" values="17.12;0" dur="0.17s" fill="freeze" begin="3.end" /></path><g><path d="M18.85,33.19c0.6,0.24,1.9,0.21,2.43,0.13c4.31-0.68,18.52-1.49,20.91-1.74c1.56-0.16,2.06,0.74,1.9,1.87c-0.9,6.3-3.26,12.55-5.99,17.34c-1.43,2.51-3.1,1.71-4.15-0.24" stroke-dasharray="50.72" stroke-dashoffset="50.72"><animate attributeName="stroke-dashoffset" values="50.72" fill="freeze" begin="97f2.click" /><animate id="5" attributeName="stroke-dashoffset" values="50.72;0" dur="0.51s" fill="freeze" begin="4.end" /></path><path d="M31.47,35.52c0.04,0.4,0.09,1.03-0.07,1.61c-1.24,4.24-6.52,10.23-13.25,15.38" stroke-dasharray="22.18" stroke-dashoffset="22.18"><animate attributeName="stroke-dashoffset" values="22.18" fill="freeze" begin="97f2.click" /><animate id="6" attributeName="stroke-dashoffset" values="22.18;0" dur="0.22s" fill="freeze" begin="5.end" /></path></g><path d="M84.46,23.89c0.04,0.22,0.08,0.56-0.07,0.87c-0.88,1.84-6.72,6.35-13.61,8.83" stroke-dasharray="17.32" stroke-dashoffset="17.32"><animate attributeName="stroke-dashoffset" values="17.32" fill="freeze" begin="97f2.click" /><animate id="7" attributeName="stroke-dashoffset" values="17.32;0" dur="0.17s" fill="freeze" begin="6.end" /></path><path d="M67.25,33.77c0.41,0.61,0.71,1.43,0.71,2.34c0,0.92-0.1,13.82-0.1,15.25c0,1.43,0.1,1.83,1.42,0.81c1.32-1.02,8.29-5.56,9.1-6.17" stroke-dasharray="31.48" stroke-dashoffset="31.48"><animate attributeName="stroke-dashoffset" values="31.48" fill="freeze" begin="97f2.click" /><animate id="8" attributeName="stroke-dashoffset" values="31.48;0" dur="0.31s" fill="freeze" begin="7.end" /></path><path d="M77.12,31.86C80,37.5,83,42.25,88.55,48.51c1.17,1.32,3.03,2.02,4.7,2.74" stroke-dasharray="25.74" stroke-dashoffset="25.74"><animate attributeName="stroke-dashoffset" values="25.74" fill="freeze" begin="97f2.click" /><animate id="9" attributeName="stroke-dashoffset" values="25.74;0" dur="0.26s" fill="freeze" begin="8.end" /></path></g></g><g><g><g><path d="M45.31,57.41c0.9,0.29,1.44,1.3,1.62,1.88c0.18,0.58,0,33.08-0.18,36.69" stroke-dasharray="39.26" stroke-dashoffset="39.26"><animate attributeName="stroke-dashoffset" values="39.26" fill="freeze" begin="97f2.click" /><animate id="10" attributeName="stroke-dashoffset" values="39.26;0" dur="0.39s" fill="freeze" begin="9.end" /></path><path d="M59.76,56.75c0.9,0.29,1.44,1.3,1.62,1.88c0.18,0.58,0,32.15-0.18,35.76" stroke-dasharray="38.33" stroke-dashoffset="38.33"><animate attributeName="stroke-dashoffset" values="38.33" fill="freeze" begin="97f2.click" /><animate id="11" attributeName="stroke-dashoffset" values="38.33;0" dur="0.38s" fill="freeze" begin="10.end" /></path><path d="M17.74,65.28c0.9,0.22,2.54,0.22,3.45,0.22c7.32-0.01,24.72-1.67,25.68-1.67" stroke-dasharray="29.2" stroke-dashoffset="29.2"><animate attributeName="stroke-dashoffset" values="29.2" fill="freeze" begin="97f2.click" /><animate id="12" attributeName="stroke-dashoffset" values="29.2;0" dur="0.29s" fill="freeze" begin="11.end" /></path><path d="M19.46,75.75c0.9,0.22,2.54,0.29,3.44,0.22c9.34-0.72,22.76-1.96,23.72-1.96" stroke-dasharray="27.26" stroke-dashoffset="27.26"><animate attributeName="stroke-dashoffset" values="27.26" fill="freeze" begin="97f2.click" /><animate id="13" attributeName="stroke-dashoffset" values="27.26;0" dur="0.27s" fill="freeze" begin="12.end" /></path></g><g><path d="M19.59,86.22c0.9,0.22,2.55,0.34,3.45,0.22c8.96-1.19,22.63-2.25,23.59-2.25" stroke-dasharray="27.17" stroke-dashoffset="27.17"><animate attributeName="stroke-dashoffset" values="27.17" fill="freeze" begin="97f2.click" /><animate id="14" attributeName="stroke-dashoffset" values="27.17;0" dur="0.27s" fill="freeze" begin="13.end" /></path><path d="M61.78,63.69c1.28,0,19.68-0.98,25.53-1.34c1.59-0.1,2.56,0.11,3.36,0.21" stroke-dasharray="28.94" stroke-dashoffset="28.94"><animate attributeName="stroke-dashoffset" values="28.94" fill="freeze" begin="97f2.click" /><animate id="15" attributeName="stroke-dashoffset" values="28.94;0" dur="0.29s" fill="freeze" begin="14.end" /></path><path d="M61.52,73.58c1.28,0,18.09-1.09,23.94-1.45c1.59-0.1,2.56,0.1,3.36,0.22" stroke-dasharray="27.36" stroke-dashoffset="27.36"><animate attributeName="stroke-dashoffset" values="27.36" fill="freeze" begin="97f2.click" /><animate id="16" attributeName="stroke-dashoffset" values="27.36;0" dur="0.27s" fill="freeze" begin="15.end" /></path><path d="M61.78,83.55c1.28,0,19.11-1.09,24.96-1.45c1.59-0.1,2.56,0.1,3.36,0.21" stroke-dasharray="28.38" stroke-dashoffset="28.38"><animate attributeName="stroke-dashoffset" values="28.38" fill="freeze" begin="97f2.click" /><animate id="17" attributeName="stroke-dashoffset" values="28.38;0" dur="0.28s" fill="freeze" begin="16.end" /></path></g></g><g p5:partial xmlns:p5="http://kanjivg.tagaini.net"><g><path d="M15.59,97.29c1.84,0.45,5.21,0.56,7.04,0.45c23.75-1.44,45.82-3.22,65.09-2.59c3.06,0.1,4.9,0.21,6.43,0.44" stroke-dasharray="78.69" stroke-dashoffset="78.69"><animate attributeName="stroke-dashoffset" values="78.69" fill="freeze" begin="97f2.click" /><animate id="18" attributeName="stroke-dashoffset" values="78.69;0" dur="0.59s" fill="freeze" begin="17.end" /></path></g></g></g></g></g></svg>