<svg xmlns="http://www.w3.org/2000/svg" width="109" height="109" viewBox="0 0 109 109" id="97fb"><g fill="none" stroke="#666" stroke-width="6" stroke-linecap="round" stroke-linejoin="round"><g><g><g><g><path d="M32.43,13.71c0.87,0.87,1.07,1.92,1.07,3.42c0,3.05-0.16,5.82-0.07,8.4" /><path d="M16.4,28.52c1.93,0.22,3.5,0.2,5.47-0.15c6.45-1.15,15.89-2.49,22.51-3.06c1.72-0.15,3.33-0.1,5.03-0.06" /></g><g><path d="M23.62,34.5c1.67,1.99,3.22,7.81,3.6,10.05" /><path d="M42.43,28.32c0.32,0.8,0.33,2.1,0.2,2.52c-1.23,4.32-3.14,9.41-5.1,12.84" /><path d="M13.02,49.27c2.04,0.15,4.08,0.24,6.12-0.1c8.86-1.48,18.77-3.34,26.73-3.98c1.7-0.14,4.14-0.31,5.64,0.04" /></g></g><g><path d="M19.11,57.16c0.62,0.62,0.99,1.43,1.16,2.35c0.56,3.02,1.93,16.1,2.57,22.71c0.21,2.14,0.34,3.6,0.34,3.82" /><path d="M21.19,58.63c2.16-0.22,15.36-2.32,20.56-3.22c2.92-0.51,4.06-0.09,3.96,3.09c-0.11,3.65-0.45,15.14-0.88,21.28c-0.15,2.14-0.28,3.63-0.37,3.9" /><path d="M22.86,70.34c7.02-1.34,17.82-2.92,21.36-3.11" /><path d="M24.2,83.55c5.3-0.55,12.42-1.67,19.25-2.39" /></g></g><g p4:phon="員" xmlns:p4="http://kanjivg.tagaini.net"><g><path d="M57.73,17.09c0.63,0.71,0.97,1.55,1.04,2.51c0.64,2.96,1.2,7.46,1.76,11.9c0.14,1.14,0.28,2.26,0.39,3.33" /><path d="M59.7,18.87c5.85-0.95,20.27-2.82,26.21-3.6c2.64-0.35,4.23-0.27,3.62,2.88c-0.65,3.35-1.4,5.78-2.32,10.61" /><path d="M61.8,32.99c3.19-0.42,16.17-2.21,23.47-3.06c1.38-0.16,2.36-0.18,3.37-0.18" /></g><g><g><path d="M59.02,41.48c0.75,0.75,0.93,1.74,0.93,2.88c0,0.93-0.05,23.14-0.06,31.64c0,1.93-0.01,3.15-0.01,3.26" /><path d="M60.76,42.83c2.72-0.14,22.47-3.19,24.95-3.38c2.55-0.2,3.52,1.05,3.52,2.85c0,1.77-0.07,18.01-0.09,30.2c0,2.11-0.01,4.1-0.01,5.88" /><path d="M60.71,54.11c6.67-0.61,21.04-2.36,27.43-2.56" /><path d="M61.18,64.84c7.07-0.59,19.94-2.22,26.89-2.46" /><path d="M61.38,77.18c6.87-0.56,18.87-1.93,26.64-2.21" /></g><g><path d="M67.1,82.43c0.28,1.07-0.12,2.15-1,3.09c-2.66,2.85-9.59,9.11-14.9,12.48" /><path d="M81.6,83.35c5.89,3.98,12.85,11.2,14.45,14.68" /></g></g></g></g></g><g fill="none" stroke="#000" stroke-width="3" stroke-linecap="round" stroke-linejoin="round"><path d="M32.43,13.71c0.87,0.87,1.07,1.92,1.07,3.42c0,3.05-0.16,5.82-0.07,8.4" stroke-dasharray="12.092" stroke-dashoffset="12.092"><animate attributeName="stroke-dashoffset" values="12.092;12.092;0" dur="0.121s" fill="freeze" begin="0s;97fb.click" /></path><path d="M16.4,28.52c1.93,0.22,3.5,0.2,5.47-0.15c6.45-1.15,15.89-2.49,22.51-3.06c1.72-0.15,3.33-0.1,5.03-0.06" stroke-dasharray="33.251" stroke-dashoffset="33.251"><animate attributeName="stroke-dashoffset" values="33.251" fill="freeze" begin="97fb.click" /><animate attributeName="stroke-dashoffset" values="33.251;33.251;0" keyTimes="0;0.267;1" dur="0.454s" fill="freeze" begin="0s;97fb.click" /></path><path d="M23.62,34.5c1.67,1.99,3.22,7.81,3.6,10.05" stroke-dasharray="10.751" stroke-dashoffset="10.751"><animate attributeName="stroke-dashoffset" values="10.751" fill="freeze" begin="97fb.click" /><animate attributeName="stroke-dashoffset" values="10.751;10.751;0" keyTimes="0;0.808;1" dur="0.562s" fill="freeze" begin="0s;97fb.click" /></path><path d="M42.43,28.32c0.32,0.8,0.33,2.1,0.2,2.52c-1.23,4.32-3.14,9.41-5.1,12.84" stroke-dasharray="16.403" stroke-dashoffset="16.403"><animate attributeName="stroke-dashoffset" values="16.403" fill="freeze" begin="97fb.click" /><animate attributeName="stroke-dashoffset" values="16.403;16.403;0" keyTimes="0;0.774;1" dur="0.726s" fill="freeze" begin="0s;97fb.click" /></path><path d="M13.02,49.27c2.04,0.15,4.08,0.24,6.12-0.1c8.86-1.48,18.77-3.34,26.73-3.98c1.7-0.14,4.14-0.31,5.64,0.04" stroke-dasharray="38.829" stroke-dashoffset="38.829"><animate attributeName="stroke-dashoffset" values="38.829" fill="freeze" begin="97fb.click" /><animate attributeName="stroke-dashoffset" values="38.829;38.829;0" keyTimes="0;0.652;1" dur="1.114s" fill="freeze" begin="0s;97fb.click" /></path><path d="M19.11,57.16c0.62,0.62,0.99,1.43,1.16,2.35c0.56,3.02,1.93,16.1,2.57,22.71c0.21,2.14,0.34,3.6,0.34,3.82" stroke-dasharray="29.356" stroke-dashoffset="29.356"><animate attributeName="stroke-dashoffset" values="29.356" fill="freeze" begin="97fb.click" /><animate attributeName="stroke-dashoffset" values="29.356;29.356;0" keyTimes="0;0.791;1" dur="1.408s" fill="freeze" begin="0s;97fb.click" /></path><path d="M21.19,58.63c2.16-0.22,15.36-2.32,20.56-3.22c2.92-0.51,4.06-0.09,3.96,3.09c-0.11,3.65-0.45,15.14-0.88,21.28c-0.15,2.14-0.28,3.63-0.37,3.9" stroke-dasharray="52.393" stroke-dashoffset="52.393"><animate attributeName="stroke-dashoffset" values="52.393" fill="freeze" begin="97fb.click" /><animate attributeName="stroke-dashoffset" values="52.393;52.393;0" keyTimes="0;0.729;1" dur="1.932s" fill="freeze" begin="0s;97fb.click" /></path><path d="M22.86,70.34c7.02-1.34,17.82-2.92,21.36-3.11" stroke-dasharray="21.595" stroke-dashoffset="21.595"><animate attributeName="stroke-dashoffset" values="21.595" fill="freeze" begin="97fb.click" /><animate attributeName="stroke-dashoffset" values="21.595;21.595;0" keyTimes="0;0.899;1" dur="2.148s" fill="freeze" begin="0s;97fb.click" /></path><path d="M24.2,83.55c5.3-0.55,12.42-1.67,19.25-2.39" stroke-dasharray="19.399" stroke-dashoffset="19.399"><animate attributeName="stroke-dashoffset" values="19.399" fill="freeze" begin="97fb.click" /><animate attributeName="stroke-dashoffset" values="19.399;19.399;0" keyTimes="0;0.917;1" dur="2.342s" fill="freeze" begin="0s;97fb.click" /></path><path d="M57.73,17.09c0.63,0.71,0.97,1.55,1.04,2.51c0.64,2.96,1.2,7.46,1.76,11.9c0.14,1.14,0.28,2.26,0.39,3.33" stroke-dasharray="18.154" stroke-dashoffset="18.154"><animate attributeName="stroke-dashoffset" values="18.154" fill="freeze" begin="97fb.click" /><animate attributeName="stroke-dashoffset" values="18.154;18.154;0" keyTimes="0;0.928;1" dur="2.524s" fill="freeze" begin="0s;97fb.click" /></path><path d="M59.7,18.87c5.85-0.95,20.27-2.82,26.21-3.6c2.64-0.35,4.23-0.27,3.62,2.88c-0.65,3.35-1.4,5.78-2.32,10.61" stroke-dasharray="43.406" stroke-dashoffset="43.406"><animate attributeName="stroke-dashoffset" values="43.406" fill="freeze" begin="97fb.click" /><animate attributeName="stroke-dashoffset" values="43.406;43.406;0" keyTimes="0;0.853;1" dur="2.958s" fill="freeze" begin="0s;97fb.click" /></path><path d="M61.8,32.99c3.19-0.42,16.17-2.21,23.47-3.06c1.38-0.16,2.36-0.18,3.37-0.18" stroke-dasharray="27.047" stroke-dashoffset="27.047"><animate attributeName="stroke-dashoffset" values="27.047" fill="freeze" begin="97fb.click" /><animate attributeName="stroke-dashoffset" values="27.047;27.047;0" keyTimes="0;0.916;1" dur="3.228s" fill="freeze" begin="0s;97fb.click" /></path><path d="M59.02,41.48c0.75,0.75,0.93,1.74,0.93,2.88c0,0.93-0.05,23.14-0.06,31.64c0,1.93-0.01,3.15-0.01,3.26" stroke-dasharray="38.013" stroke-dashoffset="38.013"><animate attributeName="stroke-dashoffset" values="38.013" fill="freeze" begin="97fb.click" /><animate attributeName="stroke-dashoffset" values="38.013;38.013;0" keyTimes="0;0.895;1" dur="3.608s" fill="freeze" begin="0s;97fb.click" /></path><path d="M60.76,42.83c2.72-0.14,22.47-3.19,24.95-3.38c2.55-0.2,3.52,1.05,3.52,2.85c0,1.77-0.07,18.01-0.09,30.2c0,2.11-0.01,4.1-0.01,5.88" stroke-dasharray="66.528" stroke-dashoffset="66.528"><animate attributeName="stroke-dashoffset" values="66.528" fill="freeze" begin="97fb.click" /><animate attributeName="stroke-dashoffset" values="66.528;66.528;0" keyTimes="0;0.878;1" dur="4.108s" fill="freeze" begin="0s;97fb.click" /></path><path d="M60.71,54.11c6.67-0.61,21.04-2.36,27.43-2.56" stroke-dasharray="27.554" stroke-dashoffset="27.554"><animate attributeName="stroke-dashoffset" values="27.554" fill="freeze" begin="97fb.click" /><animate attributeName="stroke-dashoffset" values="27.554;27.554;0" keyTimes="0;0.937;1" dur="4.384s" fill="freeze" begin="0s;97fb.click" /></path><path d="M61.18,64.84c7.07-0.59,19.94-2.22,26.89-2.46" stroke-dasharray="27.007" stroke-dashoffset="27.007"><animate attributeName="stroke-dashoffset" values="27.007" fill="freeze" begin="97fb.click" /><animate attributeName="stroke-dashoffset" values="27.007;27.007;0" keyTimes="0;0.942;1" dur="4.654s" fill="freeze" begin="0s;97fb.click" /></path><path d="M61.38,77.18c6.87-0.56,18.87-1.93,26.64-2.21" stroke-dasharray="26.736" stroke-dashoffset="26.736"><animate attributeName="stroke-dashoffset" values="26.736" fill="freeze" begin="97fb.click" /><animate attributeName="stroke-dashoffset" values="26.736;26.736;0" keyTimes="0;0.946;1" dur="4.921s" fill="freeze" begin="0s;97fb.click" /></path><path d="M67.1,82.43c0.28,1.07-0.12,2.15-1,3.09c-2.66,2.85-9.59,9.11-14.9,12.48" stroke-dasharray="22.87" stroke-dashoffset="22.87"><animate attributeName="stroke-dashoffset" values="22.87" fill="freeze" begin="97fb.click" /><animate attributeName="stroke-dashoffset" values="22.87;22.87;0" keyTimes="0;0.956;1" dur="5.15s" fill="freeze" begin="0s;97fb.click" /></path><path d="M81.6,83.35c5.89,3.98,12.85,11.2,14.45,14.68" stroke-dasharray="20.753" stroke-dashoffset="20.753"><animate attributeName="stroke-dashoffset" values="20.753" fill="freeze" begin="97fb.click" /><animate attributeName="stroke-dashoffset" values="20.753;20.753;0" keyTimes="0;0.961;1" dur="5.358s" fill="freeze" begin="0s;97fb.click" /></path></g></svg>