<svg xmlns="http://www.w3.org/2000/svg" width="109" height="109" viewBox="0 0 109 109" id="97ff"><g fill="none" stroke="#666" stroke-width="9" stroke-linecap="round" stroke-linejoin="round"><g><g p4:phon="郷" xmlns:p4="http://kanjivg.tagaini.net"><g><g><path d="M25.25,11.87c0.32,0.83,0.36,1.9-0.16,2.85c-2.18,4.02-4.34,6.28-6.32,8.35c-0.52,0.54-0.34,1.36,0.27,1.61c3.09,1.32,3.34,1.32,6.2,2.99" /><path d="M34.65,17.65c0.35,0.98,0.23,2.1-0.45,2.91c-3.15,3.76-9.82,10.26-15.45,14.94c-2.21,1.84-2.18,3.77,1.17,2.72c5.08-1.59,7.71-2.34,13.56-3.55" /><path d="M35.44,29.22c0.22,0.31,0.58,1.46,0.4,2.25C34.5,37.25,30.75,45,21.21,52.51" /></g><g p4:partial><path d="M42.61,14.18c1.39,0.57,3.41,0.69,5.13,0.5c3.64-0.4,9.91-1.05,12.52-1.34c3.06-0.35,4.24-0.11,3.72,3.01c-0.52,3.14-0.71,6.86-1.46,10.65c-0.2,1.01-0.41,2.02-0.64,3.03" /><path d="M45.87,22.3c4.63-0.43,11.38-1.3,16.02-1.65" /><path d="M45.78,30.09c4.85-0.59,10.47-1.21,15.5-1.53" /><path d="M43.61,15.18c0.73,0.73,0.96,1.82,0.96,2.85c0,4.34-0.08,20.23-0.08,23.97c0,1.38,0.5,1.88,2.16,1.15c2-0.88,7.85-3.78,11.92-5.33" /><path d="M56.75,33.65c2.28,1.71,5.87,6.29,7.17,9.91" /></g></g><g><path d="M72.39,13.71c1.36,0.29,2.41,0.31,3.35,0.21c4.75-0.49,8.68-0.98,10.95-1.46c2.72-0.58,3.84,1.59,2.98,3.2c-1.18,2.22-2.68,4.09-6.47,9.07" /><path d="M83.21,24.72C94.75,32.5,90,47.38,81.97,41.68" /><path d="M73.51,14.64c0.93,0.93,1.28,1.99,1.28,3.15c0,2.69-0.03,13.72-0.04,23.09c0,1.82,0,3.52,0,5" /></g></g><g><g><g><path d="M52.79,45.5c0.85,0.86,1.22,2,1.22,3.09c0,0.91-0.01,3.01-0.01,4.04" /><path d="M31.59,55.21c2.28,0.41,4.24,0.16,6.54-0.1c6.42-0.72,20.55-2.25,32.74-3.09c2.19-0.15,4.12,0.1,6.3,0.45" /></g><g><path d="M39.38,57c2.42,2.56,2.91,5.02,3.26,6.82" /><path d="M66.35,55.4c0.1,0.55-0.1,1.31-0.19,1.5c-0.92,1.91-2.1,4.01-2.78,5.1" /><path d="M16.25,68.2c3.25,0.67,6.42,0.67,9.37,0.29c20.25-2.61,39.04-4.37,57-4.95c5-0.16,8.25-0.04,11.12,0.68" /></g></g><g><path d="M35.03,74.06c0.83,0.83,1.22,1.81,1.53,3.08c0.36,1.48,1.77,11.04,2.58,16.59c0.34,2.28,0.57,3.88,0.57,3.97" /><path d="M37.2,75.12c6.05-0.87,29.84-3.59,32.53-3.46c2.02,0.09,3.77,0.84,3.41,3.6c-0.08,0.64-1.47,9.6-2.44,15.78c-0.25,1.6-0.49,3.04-0.69,4.15" /><path d="M38.73,84.32c8.52-0.7,24.02-2.2,32.34-2.6" /><path d="M40.2,94.88c7.42-0.5,18.67-1.63,29.02-2.2" /></g></g></g></g><g fill="none" stroke="#000" stroke-width="5" stroke-linecap="round" stroke-linejoin="round"><g><g p4:phon="郷" xmlns:p4="http://kanjivg.tagaini.net"><g><g><path d="M25.25,11.87c0.32,0.83,0.36,1.9-0.16,2.85c-2.18,4.02-4.34,6.28-6.32,8.35c-0.52,0.54-0.34,1.36,0.27,1.61c3.09,1.32,3.34,1.32,6.2,2.99" stroke-dasharray="22.27" stroke-dashoffset="22.27"><animate id="0" attributeName="stroke-dashoffset" values="22.27;0" dur="0.22s" fill="freeze" begin="0s;97ff.click" /></path><path d="M34.65,17.65c0.35,0.98,0.23,2.1-0.45,2.91c-3.15,3.76-9.82,10.26-15.45,14.94c-2.21,1.84-2.18,3.77,1.17,2.72c5.08-1.59,7.71-2.34,13.56-3.55" stroke-dasharray="44.55" stroke-dashoffset="44.55"><animate attributeName="stroke-dashoffset" values="44.55" fill="freeze" begin="97ff.click" /><animate id="1" attributeName="stroke-dashoffset" values="44.55;0" dur="0.45s" fill="freeze" begin="0.end" /></path><path d="M35.44,29.22c0.22,0.31,0.58,1.46,0.4,2.25C34.5,37.25,30.75,45,21.21,52.51" stroke-dasharray="28.45" stroke-dashoffset="28.45"><animate attributeName="stroke-dashoffset" values="28.45" fill="freeze" begin="97ff.click" /><animate id="2" attributeName="stroke-dashoffset" values="28.45;0" dur="0.28s" fill="freeze" begin="1.end" /></path></g><g p4:partial><path d="M42.61,14.18c1.39,0.57,3.41,0.69,5.13,0.5c3.64-0.4,9.91-1.05,12.52-1.34c3.06-0.35,4.24-0.11,3.72,3.01c-0.52,3.14-0.71,6.86-1.46,10.65c-0.2,1.01-0.41,2.02-0.64,3.03" stroke-dasharray="37.92" stroke-dashoffset="37.92"><animate attributeName="stroke-dashoffset" values="37.92" fill="freeze" begin="97ff.click" /><animate id="3" attributeName="stroke-dashoffset" values="37.92;0" dur="0.38s" fill="freeze" begin="2.end" /></path><path d="M45.87,22.3c4.63-0.43,11.38-1.3,16.02-1.65" stroke-dasharray="16.11" stroke-dashoffset="16.11"><animate attributeName="stroke-dashoffset" values="16.11" fill="freeze" begin="97ff.click" /><animate id="4" attributeName="stroke-dashoffset" values="16.11;0" dur="0.16s" fill="freeze" begin="3.end" /></path><path d="M45.78,30.09c4.85-0.59,10.47-1.21,15.5-1.53" stroke-dasharray="15.58" stroke-dashoffset="15.58"><animate attributeName="stroke-dashoffset" values="15.58" fill="freeze" begin="97ff.click" /><animate id="5" attributeName="stroke-dashoffset" values="15.58;0" dur="0.16s" fill="freeze" begin="4.end" /></path><path d="M43.61,15.18c0.73,0.73,0.96,1.82,0.96,2.85c0,4.34-0.08,20.23-0.08,23.97c0,1.38,0.5,1.88,2.16,1.15c2-0.88,7.85-3.78,11.92-5.33" stroke-dasharray="43.39" stroke-dashoffset="43.39"><animate attributeName="stroke-dashoffset" values="43.39" fill="freeze" begin="97ff.click" /><animate id="6" attributeName="stroke-dashoffset" values="43.39;0" dur="0.43s" fill="freeze" begin="5.end" /></path><path d="M56.75,33.65c2.28,1.71,5.87,6.29,7.17,9.91" stroke-dasharray="12.35" stroke-dashoffset="12.35"><animate attributeName="stroke-dashoffset" values="12.35" fill="freeze" begin="97ff.click" /><animate id="7" attributeName="stroke-dashoffset" values="12.35;0" dur="0.12s" fill="freeze" begin="6.end" /></path></g></g><g><path d="M72.39,13.71c1.36,0.29,2.41,0.31,3.35,0.21c4.75-0.49,8.68-0.98,10.95-1.46c2.72-0.58,3.84,1.59,2.98,3.2c-1.18,2.22-2.68,4.09-6.47,9.07" stroke-dasharray="31.24" stroke-dashoffset="31.24"><animate attributeName="stroke-dashoffset" values="31.24" fill="freeze" begin="97ff.click" /><animate id="8" attributeName="stroke-dashoffset" values="31.24;0" dur="0.31s" fill="freeze" begin="7.end" /></path><path d="M83.21,24.72C94.75,32.5,90,47.38,81.97,41.68" stroke-dasharray="26.79" stroke-dashoffset="26.79"><animate attributeName="stroke-dashoffset" values="26.79" fill="freeze" begin="97ff.click" /><animate id="9" attributeName="stroke-dashoffset" values="26.79;0" dur="0.27s" fill="freeze" begin="8.end" /></path><path d="M73.51,14.64c0.93,0.93,1.28,1.99,1.28,3.15c0,2.69-0.03,13.72-0.04,23.09c0,1.82,0,3.52,0,5" stroke-dasharray="31.59" stroke-dashoffset="31.59"><animate attributeName="stroke-dashoffset" values="31.59" fill="freeze" begin="97ff.click" /><animate id="10" attributeName="stroke-dashoffset" values="31.59;0" dur="0.32s" fill="freeze" begin="9.end" /></path></g></g><g><g><g><path d="M52.79,45.5c0.85,0.86,1.22,2,1.22,3.09c0,0.91-0.01,3.01-0.01,4.04" stroke-dasharray="7.45" stroke-dashoffset="7.45"><animate attributeName="stroke-dashoffset" values="7.45" fill="freeze" begin="97ff.click" /><animate id="11" attributeName="stroke-dashoffset" values="7.45;0" dur="0.07s" fill="freeze" begin="10.end" /></path><path d="M31.59,55.21c2.28,0.41,4.24,0.16,6.54-0.1c6.42-0.72,20.55-2.25,32.74-3.09c2.19-0.15,4.12,0.1,6.3,0.45" stroke-dasharray="45.79" stroke-dashoffset="45.79"><animate attributeName="stroke-dashoffset" values="45.79" fill="freeze" begin="97ff.click" /><animate id="12" attributeName="stroke-dashoffset" values="45.79;0" dur="0.46s" fill="freeze" begin="11.end" /></path></g><g><path d="M39.38,57c2.42,2.56,2.91,5.02,3.26,6.82" stroke-dasharray="7.68" stroke-dashoffset="7.68"><animate attributeName="stroke-dashoffset" values="7.68" fill="freeze" begin="97ff.click" /><animate id="13" attributeName="stroke-dashoffset" values="7.68;0" dur="0.08s" fill="freeze" begin="12.end" /></path><path d="M66.35,55.4c0.1,0.55-0.1,1.31-0.19,1.5c-0.92,1.91-2.1,4.01-2.78,5.1" stroke-dasharray="7.34" stroke-dashoffset="7.34"><animate attributeName="stroke-dashoffset" values="7.34" fill="freeze" begin="97ff.click" /><animate id="14" attributeName="stroke-dashoffset" values="7.34;0" dur="0.07s" fill="freeze" begin="13.end" /></path><path d="M16.25,68.2c3.25,0.67,6.42,0.67,9.37,0.29c20.25-2.61,39.04-4.37,57-4.95c5-0.16,8.25-0.04,11.12,0.68" stroke-dasharray="77.83" stroke-dashoffset="77.83"><animate attributeName="stroke-dashoffset" values="77.83" fill="freeze" begin="97ff.click" /><animate id="15" attributeName="stroke-dashoffset" values="77.83;0" dur="0.59s" fill="freeze" begin="14.end" /></path></g></g><g><path d="M35.03,74.06c0.83,0.83,1.22,1.81,1.53,3.08c0.36,1.48,1.77,11.04,2.58,16.59c0.34,2.28,0.57,3.88,0.57,3.97" stroke-dasharray="24.29" stroke-dashoffset="24.29"><animate attributeName="stroke-dashoffset" values="24.29" fill="freeze" begin="97ff.click" /><animate id="16" attributeName="stroke-dashoffset" values="24.29;0" dur="0.24s" fill="freeze" begin="15.end" /></path><path d="M37.2,75.12c6.05-0.87,29.84-3.59,32.53-3.46c2.02,0.09,3.77,0.84,3.41,3.6c-0.08,0.64-1.47,9.6-2.44,15.78c-0.25,1.6-0.49,3.04-0.69,4.15" stroke-dasharray="58.71" stroke-dashoffset="58.71"><animate attributeName="stroke-dashoffset" values="58.71" fill="freeze" begin="97ff.click" /><animate id="17" attributeName="stroke-dashoffset" values="58.71;0" dur="0.59s" fill="freeze" begin="16.end" /></path><path d="M38.73,84.32c8.52-0.7,24.02-2.2,32.34-2.6" stroke-dasharray="32.45" stroke-dashoffset="32.45"><animate attributeName="stroke-dashoffset" values="32.45" fill="freeze" begin="97ff.click" /><animate id="18" attributeName="stroke-dashoffset" values="32.45;0" dur="0.32s" fill="freeze" begin="17.end" /></path><path d="M40.2,94.88c7.42-0.5,18.67-1.63,29.02-2.2" stroke-dasharray="29.1" stroke-dashoffset="29.1"><animate attributeName="stroke-dashoffset" values="29.1" fill="freeze" begin="97ff.click" /><animate id="19" attributeName="stroke-dashoffset" values="29.1;0" dur="0.29s" fill="freeze" begin="18.end" /></path></g></g></g></g></svg>