<svg xmlns="http://www.w3.org/2000/svg" viewBox="0 0 109 109" id="9808"><g fill="none" stroke="#666" stroke-width="6" stroke-linecap="round" stroke-linejoin="round"><g><g><g><path d="M38.6,16.75c-0.1,1-0.75,1.96-1.24,2.58c-2.79,3.6-9.45,8.45-21.18,14.97" /></g><g><path d="M38.27,39.12c0.13,1.03-0.42,2.08-1.02,2.86c-3.66,4.71-9.11,10.5-18.65,16.37" /></g><g><path d="M39.01,66.23c0.14,1.15,0.12,2.23-0.5,3.2C35.12,74.75,27.62,83.12,16.5,90" /></g></g><g><g><path d="M50.63,17.92c2.87,0.71,5.73,0.55,8.39,0.24c9.24-1.08,16.76-2.37,24.99-2.85c2.55-0.15,4.75-0.06,7.37,0.26" /><path d="M69.77,20.41c0.05,0.69,0.02,1.38-0.24,2.01c-1.16,2.82-2.01,4.43-4.28,7.95" /></g><g><g><path d="M53.69,32.86c0.97,0.97,1.25,2.16,1.25,3.59c0,1.12-0.04,23.24-0.06,35.06c0,3.24-0.01,5.7-0.01,6.75" /><path d="M55.55,33.85c4.56-0.52,21.66-2.98,27.57-3.66c2.74-0.32,4.37,0.1,4.37,3.22c0,1.27-0.06,23.98-0.1,35.97c-0.01,4.12-0.02,6.98-0.02,7.25" /><path d="M56,46.43c5.02-0.61,24.36-2.58,30.53-2.74" /><path d="M56.11,60.29c6.64-0.66,22.45-2.77,30.32-2.98" /><path d="M56.24,74.43C65,73.5,77.92,72.44,86.31,72.2" /></g><g><path d="M60.67,82.7c-0.05,1.17-0.3,2.13-1.16,2.97c-3.14,3.07-8.51,7.01-15.26,10.19" /><path d="M79.62,82.12c4.94,3.55,11.17,11.45,12.51,14.45" /></g></g></g></g></g><g fill="none" stroke="#000" stroke-width="3" stroke-linecap="round" stroke-linejoin="round"><path d="M38.6,16.75c-0.1,1-0.75,1.96-1.24,2.58c-2.79,3.6-9.45,8.45-21.18,14.97" stroke-dasharray="28.966" stroke-dashoffset="28.966"><animate attributeName="stroke-dashoffset" values="28.966;28.966;0" dur="0.29s" fill="freeze" begin="0s;9808.click" /></path><path d="M38.27,39.12c0.13,1.03-0.42,2.08-1.02,2.86c-3.66,4.71-9.11,10.5-18.65,16.37" stroke-dasharray="28.068" stroke-dashoffset="28.068"><animate attributeName="stroke-dashoffset" values="28.068" fill="freeze" begin="9808.click" /><animate attributeName="stroke-dashoffset" values="28.068;28.068;0" keyTimes="0;0.508;1" dur="0.571s" fill="freeze" begin="0s;9808.click" /></path><path d="M39.01,66.23c0.14,1.15,0.12,2.23-0.5,3.2C35.12,74.75,27.62,83.12,16.5,90" stroke-dasharray="33.661" stroke-dashoffset="33.661"><animate attributeName="stroke-dashoffset" values="33.661" fill="freeze" begin="9808.click" /><animate attributeName="stroke-dashoffset" values="33.661;33.661;0" keyTimes="0;0.629;1" dur="0.908s" fill="freeze" begin="0s;9808.click" /></path><path d="M50.63,17.92c2.87,0.71,5.73,0.55,8.39,0.24c9.24-1.08,16.76-2.37,24.99-2.85c2.55-0.15,4.75-0.06,7.37,0.26" stroke-dasharray="40.984" stroke-dashoffset="40.984"><animate attributeName="stroke-dashoffset" values="40.984" fill="freeze" begin="9808.click" /><animate attributeName="stroke-dashoffset" values="40.984;40.984;0" keyTimes="0;0.689;1" dur="1.318s" fill="freeze" begin="0s;9808.click" /></path><path d="M69.77,20.41c0.05,0.69,0.02,1.38-0.24,2.01c-1.16,2.82-2.01,4.43-4.28,7.95" stroke-dasharray="11.089" stroke-dashoffset="11.089"><animate attributeName="stroke-dashoffset" values="11.089" fill="freeze" begin="9808.click" /><animate attributeName="stroke-dashoffset" values="11.089;11.089;0" keyTimes="0;0.922;1" dur="1.429s" fill="freeze" begin="0s;9808.click" /></path><path d="M53.69,32.86c0.97,0.97,1.25,2.16,1.25,3.59c0,1.12-0.04,23.24-0.06,35.06c0,3.24-0.01,5.7-0.01,6.75" stroke-dasharray="45.723" stroke-dashoffset="45.723"><animate attributeName="stroke-dashoffset" values="45.723" fill="freeze" begin="9808.click" /><animate attributeName="stroke-dashoffset" values="45.723;45.723;0" keyTimes="0;0.758;1" dur="1.886s" fill="freeze" begin="0s;9808.click" /></path><path d="M55.55,33.85c4.56-0.52,21.66-2.98,27.57-3.66c2.74-0.32,4.37,0.1,4.37,3.22c0,1.27-0.06,23.98-0.1,35.97c-0.01,4.12-0.02,6.98-0.02,7.25" stroke-dasharray="77.587" stroke-dashoffset="77.587"><animate attributeName="stroke-dashoffset" values="77.587" fill="freeze" begin="9808.click" /><animate attributeName="stroke-dashoffset" values="77.587;77.587;0" keyTimes="0;0.764;1" dur="2.469s" fill="freeze" begin="0s;9808.click" /></path><path d="M56,46.43c5.02-0.61,24.36-2.58,30.53-2.74" stroke-dasharray="30.659" stroke-dashoffset="30.659"><animate attributeName="stroke-dashoffset" values="30.659" fill="freeze" begin="9808.click" /><animate attributeName="stroke-dashoffset" values="30.659;30.659;0" keyTimes="0;0.889;1" dur="2.776s" fill="freeze" begin="0s;9808.click" /></path><path d="M56.11,60.29c6.64-0.66,22.45-2.77,30.32-2.98" stroke-dasharray="30.474" stroke-dashoffset="30.474"><animate attributeName="stroke-dashoffset" values="30.474" fill="freeze" begin="9808.click" /><animate attributeName="stroke-dashoffset" values="30.474;30.474;0" keyTimes="0;0.901;1" dur="3.081s" fill="freeze" begin="0s;9808.click" /></path><path d="M56.24,74.43C65,73.5,77.92,72.44,86.31,72.2" stroke-dasharray="30.159" stroke-dashoffset="30.159"><animate attributeName="stroke-dashoffset" values="30.159" fill="freeze" begin="9808.click" /><animate attributeName="stroke-dashoffset" values="30.159;30.159;0" keyTimes="0;0.911;1" dur="3.383s" fill="freeze" begin="0s;9808.click" /></path><path d="M60.67,82.7c-0.05,1.17-0.3,2.13-1.16,2.97c-3.14,3.07-8.51,7.01-15.26,10.19" stroke-dasharray="21.704" stroke-dashoffset="21.704"><animate attributeName="stroke-dashoffset" values="21.704" fill="freeze" begin="9808.click" /><animate attributeName="stroke-dashoffset" values="21.704;21.704;0" keyTimes="0;0.94;1" dur="3.6s" fill="freeze" begin="0s;9808.click" /></path><path d="M79.62,82.12c4.94,3.55,11.17,11.45,12.51,14.45" stroke-dasharray="19.241" stroke-dashoffset="19.241"><animate attributeName="stroke-dashoffset" values="19.241" fill="freeze" begin="9808.click" /><animate attributeName="stroke-dashoffset" values="19.241;19.241;0" keyTimes="0;0.949;1" dur="3.792s" fill="freeze" begin="0s;9808.click" /></path></g></svg>