<svg xmlns="http://www.w3.org/2000/svg" width="109" height="109" viewBox="0 0 109 109" id="9824"><g fill="none" stroke="#666" stroke-width="9" stroke-linecap="round" stroke-linejoin="round"><g><g><g p5:part="1" xmlns:p5="http://kanjivg.tagaini.net"><path d="M  13.43,19.93 c 0.32,1.06 0.41,2.55 0.65,3.97 0.24,1.42 -0.44,58.808586 -0.44,64.308586" /></g><path d="M10.25,19.44c1.13,0.46,3.18,0.52,4.32,0.46C23.22,19.44,34.4,18,45.22,17c1.87-0.17,3.9,0.22,4.83,0.45" /><path d="M23.5,38.61c0.48,0.83,1.19,2.44,1.19,3.37c0,10.34-0.51,16.56-0.51,22.87" /><path d="M 32.518711,20.734927 c 1.01975,0.679834 1.459674,0.769329 1.359668,2.039502 -0.352313,4.474716 -0.302681,9.355436 -0.679834,13.596673 -0.145451,1.635658 0.920351,2.249084 2.492723,2.039501 4.314117,-0.575032 5.343838,-0.765858 9.291061,-1.586279 1.685291,-0.350284 2.741802,0.341819 2.606028,1.81289 -0.442104,4.790069 -2.832639,18.128898 -2.832639,18.128898" /><path d="M34.45,58.92c2.6-0.35,7.89-1.73,12.58-2.29" /><g p5:part="2" xmlns:p5="http://kanjivg.tagaini.net"><path d="M 32.33,56.56 c 0.95,0.44 1.52,1.97 1.71,2.84 0.19,0.87 0,18.008854 -0.19,23.468854" /></g><path d="M 13.85,85.0 c 0.497149,0.222398 3.07430999,0.161878 3.51573499,0.141038 7.4685751,-0.684994 20.2100001,-2.12927 31.7500001,-2.74927 1.22,-0.07 3.514287,0.317138 4.084287,0.527138" /></g><g><g><path d="M54.95,16.5c1.14,0.38,3.22,0.43,4.36,0.38c9.39-0.44,27.31-2.69,34.62-2.87c1.89-0.05,3.03,0.18,3.98,0.37" /><path d="M74.23,18.43c0.01,0.29,0.02,0.75-0.02,1.17c-0.23,2.47-2.56,7.88-4.39,11.2" /></g><g><g><path d="M60.66,31.8c0.48,1.08,1.19,1.88,1.19,3.32c0,1.44-0.32,42.41-0.32,43.13" /><path d="M62.65,33.23c2.73-0.18,24.24-1.86,26.73-2.08c2.07-0.18,3.71,1.99,3.53,3.32c-0.22,1.69-0.96,41.25-0.96,42.33" /><path d="M62.61,46.32c3.9,0,23.09-0.92,28.93-1.31" /><path d="M62.83,60.44c9.74-0.48,20.22-1.05,27.68-1.55" /><path d="M62.53,75.79c6.29-1.07,20.73-1,28.68-1.54" /></g><g><path d="M67.15,81.48c0.41,1.25-0.2,2.59-1,3.5c-2.43,2.75-7.9,8.02-14.93,11.77" /><path d="M81.07,79.87c6.51,4.39,14.21,12.37,15.98,16.21" /></g></g></g></g></g><g fill="none" stroke="#000" stroke-width="5" stroke-linecap="round" stroke-linejoin="round"><g><g><g p5:part="1" xmlns:p5="http://kanjivg.tagaini.net"><path d="M  13.43,19.93 c 0.32,1.06 0.41,2.55 0.65,3.97 0.24,1.42 -0.44,58.808586 -0.44,64.308586" stroke-dasharray="68.34" stroke-dashoffset="68.34"><animate id="0" attributeName="stroke-dashoffset" values="68.34;0" dur="0.51s" fill="freeze" begin="0s;9824.click" /></path></g><path d="M10.25,19.44c1.13,0.46,3.18,0.52,4.32,0.46C23.22,19.44,34.4,18,45.22,17c1.87-0.17,3.9,0.22,4.83,0.45" stroke-dasharray="40.03" stroke-dashoffset="40.03"><animate attributeName="stroke-dashoffset" values="40.03" fill="freeze" begin="9824.click" /><animate id="1" attributeName="stroke-dashoffset" values="40.03;0" dur="0.4s" fill="freeze" begin="0.end" /></path><path d="M23.5,38.61c0.48,0.83,1.19,2.44,1.19,3.37c0,10.34-0.51,16.56-0.51,22.87" stroke-dasharray="26.48" stroke-dashoffset="26.48"><animate attributeName="stroke-dashoffset" values="26.48" fill="freeze" begin="9824.click" /><animate id="2" attributeName="stroke-dashoffset" values="26.48;0" dur="0.26s" fill="freeze" begin="1.end" /></path><path d="M 32.518711,20.734927 c 1.01975,0.679834 1.459674,0.769329 1.359668,2.039502 -0.352313,4.474716 -0.302681,9.355436 -0.679834,13.596673 -0.145451,1.635658 0.920351,2.249084 2.492723,2.039501 4.314117,-0.575032 5.343838,-0.765858 9.291061,-1.586279 1.685291,-0.350284 2.741802,0.341819 2.606028,1.81289 -0.442104,4.790069 -2.832639,18.128898 -2.832639,18.128898" stroke-dasharray="51.78" stroke-dashoffset="51.78"><animate attributeName="stroke-dashoffset" values="51.78" fill="freeze" begin="9824.click" /><animate id="3" attributeName="stroke-dashoffset" values="51.78;0" dur="0.52s" fill="freeze" begin="2.end" /></path><path d="M34.45,58.92c2.6-0.35,7.89-1.73,12.58-2.29" stroke-dasharray="12.79" stroke-dashoffset="12.79"><animate attributeName="stroke-dashoffset" values="12.79" fill="freeze" begin="9824.click" /><animate id="4" attributeName="stroke-dashoffset" values="12.79;0" dur="0.13s" fill="freeze" begin="3.end" /></path><g p5:part="2" xmlns:p5="http://kanjivg.tagaini.net"><path d="M 32.33,56.56 c 0.95,0.44 1.52,1.97 1.71,2.84 0.19,0.87 0,18.008854 -0.19,23.468854" stroke-dasharray="26.89" stroke-dashoffset="26.89"><animate attributeName="stroke-dashoffset" values="26.89" fill="freeze" begin="9824.click" /><animate id="5" attributeName="stroke-dashoffset" values="26.89;0" dur="0.27s" fill="freeze" begin="4.end" /></path></g><path d="M 13.85,85.0 c 0.497149,0.222398 3.07430999,0.161878 3.51573499,0.141038 7.4685751,-0.684994 20.2100001,-2.12927 31.7500001,-2.74927 1.22,-0.07 3.514287,0.317138 4.084287,0.527138" stroke-dasharray="39.53" stroke-dashoffset="39.53"><animate attributeName="stroke-dashoffset" values="39.53" fill="freeze" begin="9824.click" /><animate id="6" attributeName="stroke-dashoffset" values="39.53;0" dur="0.4s" fill="freeze" begin="5.end" /></path></g><g><g><path d="M54.95,16.5c1.14,0.38,3.22,0.43,4.36,0.38c9.39-0.44,27.31-2.69,34.62-2.87c1.89-0.05,3.03,0.18,3.98,0.37" stroke-dasharray="43.15" stroke-dashoffset="43.15"><animate attributeName="stroke-dashoffset" values="43.15" fill="freeze" begin="9824.click" /><animate id="7" attributeName="stroke-dashoffset" values="43.15;0" dur="0.43s" fill="freeze" begin="6.end" /></path><path d="M74.23,18.43c0.01,0.29,0.02,0.75-0.02,1.17c-0.23,2.47-2.56,7.88-4.39,11.2" stroke-dasharray="13.25" stroke-dashoffset="13.25"><animate attributeName="stroke-dashoffset" values="13.25" fill="freeze" begin="9824.click" /><animate id="8" attributeName="stroke-dashoffset" values="13.25;0" dur="0.13s" fill="freeze" begin="7.end" /></path></g><g><g><path d="M60.66,31.8c0.48,1.08,1.19,1.88,1.19,3.32c0,1.44-0.32,42.41-0.32,43.13" stroke-dasharray="46.7" stroke-dashoffset="46.7"><animate attributeName="stroke-dashoffset" values="46.7" fill="freeze" begin="9824.click" /><animate id="9" attributeName="stroke-dashoffset" values="46.7;0" dur="0.47s" fill="freeze" begin="8.end" /></path><path d="M62.65,33.23c2.73-0.18,24.24-1.86,26.73-2.08c2.07-0.18,3.71,1.99,3.53,3.32c-0.22,1.69-0.96,41.25-0.96,42.33" stroke-dasharray="74.56" stroke-dashoffset="74.56"><animate attributeName="stroke-dashoffset" values="74.56" fill="freeze" begin="9824.click" /><animate id="10" attributeName="stroke-dashoffset" values="74.56;0" dur="0.56s" fill="freeze" begin="9.end" /></path><path d="M62.61,46.32c3.9,0,23.09-0.92,28.93-1.31" stroke-dasharray="28.96" stroke-dashoffset="28.96"><animate attributeName="stroke-dashoffset" values="28.96" fill="freeze" begin="9824.click" /><animate id="11" attributeName="stroke-dashoffset" values="28.96;0" dur="0.29s" fill="freeze" begin="10.end" /></path><path d="M62.83,60.44c9.74-0.48,20.22-1.05,27.68-1.55" stroke-dasharray="27.72" stroke-dashoffset="27.72"><animate attributeName="stroke-dashoffset" values="27.72" fill="freeze" begin="9824.click" /><animate id="12" attributeName="stroke-dashoffset" values="27.72;0" dur="0.28s" fill="freeze" begin="11.end" /></path><path d="M62.53,75.79c6.29-1.07,20.73-1,28.68-1.54" stroke-dasharray="28.73" stroke-dashoffset="28.73"><animate attributeName="stroke-dashoffset" values="28.73" fill="freeze" begin="9824.click" /><animate id="13" attributeName="stroke-dashoffset" values="28.73;0" dur="0.29s" fill="freeze" begin="12.end" /></path></g><g><path d="M67.15,81.48c0.41,1.25-0.2,2.59-1,3.5c-2.43,2.75-7.9,8.02-14.93,11.77" stroke-dasharray="22.91" stroke-dashoffset="22.91"><animate attributeName="stroke-dashoffset" values="22.91" fill="freeze" begin="9824.click" /><animate id="14" attributeName="stroke-dashoffset" values="22.91;0" dur="0.23s" fill="freeze" begin="13.end" /></path><path d="M81.07,79.87c6.51,4.39,14.21,12.37,15.98,16.21" stroke-dasharray="22.93" stroke-dashoffset="22.93"><animate attributeName="stroke-dashoffset" values="22.93" fill="freeze" begin="9824.click" /><animate id="15" attributeName="stroke-dashoffset" values="22.93;0" dur="0.23s" fill="freeze" begin="14.end" /></path></g></g></g></g></g></svg>