<svg xmlns="http://www.w3.org/2000/svg" width="109" height="109" viewBox="0 0 109 109" id="9824"><g fill="none" stroke="#666" stroke-width="6" stroke-linecap="round" stroke-linejoin="round"><g><g><g><path d="M  13.43,19.93 c 0.32,1.06 0.41,2.55 0.65,3.97 0.24,1.42 -0.44,58.808586 -0.44,64.308586" /></g><path d="M10.25,19.44c1.13,0.46,3.18,0.52,4.32,0.46C23.22,19.44,34.4,18,45.22,17c1.87-0.17,3.9,0.22,4.83,0.45" /><path d="M23.5,38.61c0.48,0.83,1.19,2.44,1.19,3.37c0,10.34-0.51,16.56-0.51,22.87" /><path d="M 32.518711,20.734927 c 1.01975,0.679834 1.459674,0.769329 1.359668,2.039502 -0.352313,4.474716 -0.302681,9.355436 -0.679834,13.596673 -0.145451,1.635658 0.920351,2.249084 2.492723,2.039501 4.314117,-0.575032 5.343838,-0.765858 9.291061,-1.586279 1.685291,-0.350284 2.741802,0.341819 2.606028,1.81289 -0.442104,4.790069 -2.832639,18.128898 -2.832639,18.128898" /><path d="M34.45,58.92c2.6-0.35,7.89-1.73,12.58-2.29" /><g><path d="M 32.33,56.56 c 0.95,0.44 1.52,1.97 1.71,2.84 0.19,0.87 0,18.008854 -0.19,23.468854" /></g><path d="M 13.85,85.0 c 0.497149,0.222398 3.07430999,0.161878 3.51573499,0.141038 7.4685751,-0.684994 20.2100001,-2.12927 31.7500001,-2.74927 1.22,-0.07 3.514287,0.317138 4.084287,0.527138" /></g><g><g><path d="M54.95,16.5c1.14,0.38,3.22,0.43,4.36,0.38c9.39-0.44,27.31-2.69,34.62-2.87c1.89-0.05,3.03,0.18,3.98,0.37" /><path d="M74.23,18.43c0.01,0.29,0.02,0.75-0.02,1.17c-0.23,2.47-2.56,7.88-4.39,11.2" /></g><g><g><path d="M60.66,31.8c0.48,1.08,1.19,1.88,1.19,3.32c0,1.44-0.32,42.41-0.32,43.13" /><path d="M62.65,33.23c2.73-0.18,24.24-1.86,26.73-2.08c2.07-0.18,3.71,1.99,3.53,3.32c-0.22,1.69-0.96,41.25-0.96,42.33" /><path d="M62.61,46.32c3.9,0,23.09-0.92,28.93-1.31" /><path d="M62.83,60.44c9.74-0.48,20.22-1.05,27.68-1.55" /><path d="M62.53,75.79c6.29-1.07,20.73-1,28.68-1.54" /></g><g><path d="M67.15,81.48c0.41,1.25-0.2,2.59-1,3.5c-2.43,2.75-7.9,8.02-14.93,11.77" /><path d="M81.07,79.87c6.51,4.39,14.21,12.37,15.98,16.21" /></g></g></g></g></g><g fill="none" stroke="#000" stroke-width="3" stroke-linecap="round" stroke-linejoin="round"><path d="M  13.43,19.93 c 0.32,1.06 0.41,2.55 0.65,3.97 0.24,1.42 -0.44,58.808586 -0.44,64.308586" stroke-dasharray="68.339" stroke-dashoffset="68.339"><animate attributeName="stroke-dashoffset" values="68.339;68.339;0" dur="0.514s" fill="freeze" begin="0s;9824.click" /></path><path d="M10.25,19.44c1.13,0.46,3.18,0.52,4.32,0.46C23.22,19.44,34.4,18,45.22,17c1.87-0.17,3.9,0.22,4.83,0.45" stroke-dasharray="40.033" stroke-dashoffset="40.033"><animate attributeName="stroke-dashoffset" values="40.033" fill="freeze" begin="9824.click" /><animate attributeName="stroke-dashoffset" values="40.033;40.033;0" keyTimes="0;0.562;1" dur="0.914s" fill="freeze" begin="0s;9824.click" /></path><path d="M23.5,38.61c0.48,0.83,1.19,2.44,1.19,3.37c0,10.34-0.51,16.56-0.51,22.87" stroke-dasharray="26.481" stroke-dashoffset="26.481"><animate attributeName="stroke-dashoffset" values="26.481" fill="freeze" begin="9824.click" /><animate attributeName="stroke-dashoffset" values="26.481;26.481;0" keyTimes="0;0.775;1" dur="1.179s" fill="freeze" begin="0s;9824.click" /></path><path d="M 32.518711,20.734927 c 1.01975,0.679834 1.459674,0.769329 1.359668,2.039502 -0.352313,4.474716 -0.302681,9.355436 -0.679834,13.596673 -0.145451,1.635658 0.920351,2.249084 2.492723,2.039501 4.314117,-0.575032 5.343838,-0.765858 9.291061,-1.586279 1.685291,-0.350284 2.741802,0.341819 2.606028,1.81289 -0.442104,4.790069 -2.832639,18.128898 -2.832639,18.128898" stroke-dasharray="51.776" stroke-dashoffset="51.776"><animate attributeName="stroke-dashoffset" values="51.776" fill="freeze" begin="9824.click" /><animate attributeName="stroke-dashoffset" values="51.776;51.776;0" keyTimes="0;0.695;1" dur="1.697s" fill="freeze" begin="0s;9824.click" /></path><path d="M34.45,58.92c2.6-0.35,7.89-1.73,12.58-2.29" stroke-dasharray="12.791" stroke-dashoffset="12.791"><animate attributeName="stroke-dashoffset" values="12.791" fill="freeze" begin="9824.click" /><animate attributeName="stroke-dashoffset" values="12.791;12.791;0" keyTimes="0;0.93;1" dur="1.825s" fill="freeze" begin="0s;9824.click" /></path><path d="M 32.33,56.56 c 0.95,0.44 1.52,1.97 1.71,2.84 0.19,0.87 0,18.008854 -0.19,23.468854" stroke-dasharray="26.888" stroke-dashoffset="26.888"><animate attributeName="stroke-dashoffset" values="26.888" fill="freeze" begin="9824.click" /><animate attributeName="stroke-dashoffset" values="26.888;26.888;0" keyTimes="0;0.872;1" dur="2.094s" fill="freeze" begin="0s;9824.click" /></path><path d="M 13.85,85.0 c 0.497149,0.222398 3.07430999,0.161878 3.51573499,0.141038 7.4685751,-0.684994 20.2100001,-2.12927 31.7500001,-2.74927 1.22,-0.07 3.514287,0.317138 4.084287,0.527138" stroke-dasharray="39.535" stroke-dashoffset="39.535"><animate attributeName="stroke-dashoffset" values="39.535" fill="freeze" begin="9824.click" /><animate attributeName="stroke-dashoffset" values="39.535;39.535;0" keyTimes="0;0.841;1" dur="2.489s" fill="freeze" begin="0s;9824.click" /></path><path d="M54.95,16.5c1.14,0.38,3.22,0.43,4.36,0.38c9.39-0.44,27.31-2.69,34.62-2.87c1.89-0.05,3.03,0.18,3.98,0.37" stroke-dasharray="43.146" stroke-dashoffset="43.146"><animate attributeName="stroke-dashoffset" values="43.146" fill="freeze" begin="9824.click" /><animate attributeName="stroke-dashoffset" values="43.146;43.146;0" keyTimes="0;0.852;1" dur="2.92s" fill="freeze" begin="0s;9824.click" /></path><path d="M74.23,18.43c0.01,0.29,0.02,0.75-0.02,1.17c-0.23,2.47-2.56,7.88-4.39,11.2" stroke-dasharray="13.253" stroke-dashoffset="13.253"><animate attributeName="stroke-dashoffset" values="13.253" fill="freeze" begin="9824.click" /><animate attributeName="stroke-dashoffset" values="13.253;13.253;0" keyTimes="0;0.956;1" dur="3.053s" fill="freeze" begin="0s;9824.click" /></path><path d="M60.66,31.8c0.48,1.08,1.19,1.88,1.19,3.32c0,1.44-0.32,42.41-0.32,43.13" stroke-dasharray="46.701" stroke-dashoffset="46.701"><animate attributeName="stroke-dashoffset" values="46.701" fill="freeze" begin="9824.click" /><animate attributeName="stroke-dashoffset" values="46.701;46.701;0" keyTimes="0;0.867;1" dur="3.52s" fill="freeze" begin="0s;9824.click" /></path><path d="M62.65,33.23c2.73-0.18,24.24-1.86,26.73-2.08c2.07-0.18,3.71,1.99,3.53,3.32c-0.22,1.69-0.96,41.25-0.96,42.33" stroke-dasharray="74.564" stroke-dashoffset="74.564"><animate attributeName="stroke-dashoffset" values="74.564" fill="freeze" begin="9824.click" /><animate attributeName="stroke-dashoffset" values="74.564;74.564;0" keyTimes="0;0.863;1" dur="4.081s" fill="freeze" begin="0s;9824.click" /></path><path d="M62.61,46.32c3.9,0,23.09-0.92,28.93-1.31" stroke-dasharray="28.962" stroke-dashoffset="28.962"><animate attributeName="stroke-dashoffset" values="28.962" fill="freeze" begin="9824.click" /><animate attributeName="stroke-dashoffset" values="28.962;28.962;0" keyTimes="0;0.934;1" dur="4.371s" fill="freeze" begin="0s;9824.click" /></path><path d="M62.83,60.44c9.74-0.48,20.22-1.05,27.68-1.55" stroke-dasharray="27.725" stroke-dashoffset="27.725"><animate attributeName="stroke-dashoffset" values="27.725" fill="freeze" begin="9824.click" /><animate attributeName="stroke-dashoffset" values="27.725;27.725;0" keyTimes="0;0.94;1" dur="4.648s" fill="freeze" begin="0s;9824.click" /></path><path d="M62.53,75.79c6.29-1.07,20.73-1,28.68-1.54" stroke-dasharray="28.735" stroke-dashoffset="28.735"><animate attributeName="stroke-dashoffset" values="28.735" fill="freeze" begin="9824.click" /><animate attributeName="stroke-dashoffset" values="28.735;28.735;0" keyTimes="0;0.942;1" dur="4.935s" fill="freeze" begin="0s;9824.click" /></path><path d="M67.15,81.48c0.41,1.25-0.2,2.59-1,3.5c-2.43,2.75-7.9,8.02-14.93,11.77" stroke-dasharray="22.909" stroke-dashoffset="22.909"><animate attributeName="stroke-dashoffset" values="22.909" fill="freeze" begin="9824.click" /><animate attributeName="stroke-dashoffset" values="22.909;22.909;0" keyTimes="0;0.956;1" dur="5.164s" fill="freeze" begin="0s;9824.click" /></path><path d="M81.07,79.87c6.51,4.39,14.21,12.37,15.98,16.21" stroke-dasharray="22.933" stroke-dashoffset="22.933"><animate attributeName="stroke-dashoffset" values="22.933" fill="freeze" begin="9824.click" /><animate attributeName="stroke-dashoffset" values="22.933;22.933;0" keyTimes="0;0.958;1" dur="5.393s" fill="freeze" begin="0s;9824.click" /></path></g></svg>