<svg xmlns="http://www.w3.org/2000/svg" width="109" height="109" viewBox="0 0 109 109" id="9854"><g fill="none" stroke="#666" stroke-width="9" stroke-linecap="round" stroke-linejoin="round"><g><g><g><path d="M34.25,13.47c0.58,0.58,1.21,1.78,1.21,3.03c0,1.25,0,3.96,0,7.34" /><path d="M19.08,25.79c1.15,0.29,2.48,0.43,3.63,0.29c7.04-0.83,18.17-2.58,23.81-3.13c1.9-0.19,3.06,0.14,4.01,0.29" /><path d="M25.43,29.98C28.22,34.75,29.75,39.85,30,43" /><path d="M45.02,26.88c0.35,0.88,0.4,2,0.06,3.08c-1.33,4.29-3.64,8.72-5.46,11.67" /><g p6:part="1" xmlns:p6="http://kanjivg.tagaini.net"><path d="M17.9,46.27c0.85,0.23,4.62,0.32,5.46,0.23c10.28-1,13.4-1.75,25.42-2.98c1.39-0.14,3.64,0.11,4.35,0.23" /></g></g><g p5:part="2" xmlns:p5="http://kanjivg.tagaini.net"><path d="M20,47c0.56,0.56,0.83,1.88,0.83,3.59c0,17.91-4.22,36.21-10.08,41.91" /></g><g><g><path d="M44.38,51.38c0.11,0.81-0.11,1.77-0.66,2.38c-1.97,2.73-7.7,7.31-15.21,10.25" /></g><g><path d="M46.32,63.76c-0.07,0.86-0.17,1.86-0.88,2.58c-2.35,3.1-8.8,8.15-17.21,11.41" /></g><g><path d="M48.75,76.12c0,1.09-0.28,2.24-1.09,3.04C43.75,83,35.62,88.88,25.75,93.25" /></g></g></g><g p4:phon="頁" xmlns:p4="http://kanjivg.tagaini.net"><path d="M57.88,20.23c1.28,0.31,3.62,0.44,4.89,0.31c8.85-0.86,18.73-2.4,26.14-2.9c2.12-0.14,3.4,0.15,4.47,0.31" /><path d="M74.37,21.62c0.13,0.75-0.07,2.09-0.41,2.86c-0.92,2.36-2.62,5.14-4.8,7.71" /><g><g><path d="M61.78,33.8c0.41,0.99,1.02,1.72,1.02,3.04c0,1.13,0,25.27,0,34.92c0,1.56,0,2.74,0,3.38" /><path d="M63.54,35.19c6.07-0.85,20.97-2.96,22.66-3.11c1.78-0.16,3.28,0.92,3.28,3.04c0,1.44-0.17,19.7-0.19,33.88c0,1.16,0,2.29,0,3.38" /><path d="M64.2,46.59c6.3-0.84,19.08-2.22,24.1-2.58" /><path d="M64.14,58.44c8.11-1.19,17.37-1.67,23.77-2.13" /><path d="M64.24,72c6.01-0.62,16.7-1.79,23.52-2.29" /></g><path d="M68.87,78c0.25,1.5-0.15,2.55-0.91,3.6c-2.59,3.52-9.55,8.96-13.46,11.9" /><path d="M82.5,78.25c4.28,4.02,9.35,11.31,10.52,14.83" /></g></g></g></g><g fill="none" stroke="#000" stroke-width="5" stroke-linecap="round" stroke-linejoin="round"><g><g><g><path d="M34.25,13.47c0.58,0.58,1.21,1.78,1.21,3.03c0,1.25,0,3.96,0,7.34" stroke-dasharray="10.68" stroke-dashoffset="10.68"><animate id="0" attributeName="stroke-dashoffset" values="10.68;0" dur="0.11s" fill="freeze" begin="0s;9854.click" /></path><path d="M19.08,25.79c1.15,0.29,2.48,0.43,3.63,0.29c7.04-0.83,18.17-2.58,23.81-3.13c1.9-0.19,3.06,0.14,4.01,0.29" stroke-dasharray="31.71" stroke-dashoffset="31.71"><animate attributeName="stroke-dashoffset" values="31.71" fill="freeze" begin="9854.click" /><animate id="1" attributeName="stroke-dashoffset" values="31.71;0" dur="0.32s" fill="freeze" begin="0.end" /></path><path d="M25.43,29.98C28.22,34.75,29.75,39.85,30,43" stroke-dasharray="13.9" stroke-dashoffset="13.9"><animate attributeName="stroke-dashoffset" values="13.9" fill="freeze" begin="9854.click" /><animate id="2" attributeName="stroke-dashoffset" values="13.9;0" dur="0.14s" fill="freeze" begin="1.end" /></path><path d="M45.02,26.88c0.35,0.88,0.4,2,0.06,3.08c-1.33,4.29-3.64,8.72-5.46,11.67" stroke-dasharray="16.05" stroke-dashoffset="16.05"><animate attributeName="stroke-dashoffset" values="16.05" fill="freeze" begin="9854.click" /><animate id="3" attributeName="stroke-dashoffset" values="16.05;0" dur="0.16s" fill="freeze" begin="2.end" /></path><g p6:part="1" xmlns:p6="http://kanjivg.tagaini.net"><path d="M17.9,46.27c0.85,0.23,4.62,0.32,5.46,0.23c10.28-1,13.4-1.75,25.42-2.98c1.39-0.14,3.64,0.11,4.35,0.23" stroke-dasharray="35.43" stroke-dashoffset="35.43"><animate attributeName="stroke-dashoffset" values="35.43" fill="freeze" begin="9854.click" /><animate id="4" attributeName="stroke-dashoffset" values="35.43;0" dur="0.35s" fill="freeze" begin="3.end" /></path></g></g><g p5:part="2" xmlns:p5="http://kanjivg.tagaini.net"><path d="M20,47c0.56,0.56,0.83,1.88,0.83,3.59c0,17.91-4.22,36.21-10.08,41.91" stroke-dasharray="47.61" stroke-dashoffset="47.61"><animate attributeName="stroke-dashoffset" values="47.61" fill="freeze" begin="9854.click" /><animate id="5" attributeName="stroke-dashoffset" values="47.61;0" dur="0.48s" fill="freeze" begin="4.end" /></path></g><g><g><path d="M44.38,51.38c0.11,0.81-0.11,1.77-0.66,2.38c-1.97,2.73-7.7,7.31-15.21,10.25" stroke-dasharray="21.08" stroke-dashoffset="21.08"><animate attributeName="stroke-dashoffset" values="21.08" fill="freeze" begin="9854.click" /><animate id="6" attributeName="stroke-dashoffset" values="21.08;0" dur="0.21s" fill="freeze" begin="5.end" /></path></g><g><path d="M46.32,63.76c-0.07,0.86-0.17,1.86-0.88,2.58c-2.35,3.1-8.8,8.15-17.21,11.41" stroke-dasharray="23.64" stroke-dashoffset="23.64"><animate attributeName="stroke-dashoffset" values="23.64" fill="freeze" begin="9854.click" /><animate id="7" attributeName="stroke-dashoffset" values="23.64;0" dur="0.24s" fill="freeze" begin="6.end" /></path></g><g><path d="M48.75,76.12c0,1.09-0.28,2.24-1.09,3.04C43.75,83,35.62,88.88,25.75,93.25" stroke-dasharray="29.48" stroke-dashoffset="29.48"><animate attributeName="stroke-dashoffset" values="29.48" fill="freeze" begin="9854.click" /><animate id="8" attributeName="stroke-dashoffset" values="29.48;0" dur="0.29s" fill="freeze" begin="7.end" /></path></g></g></g><g p4:phon="頁" xmlns:p4="http://kanjivg.tagaini.net"><path d="M57.88,20.23c1.28,0.31,3.62,0.44,4.89,0.31c8.85-0.86,18.73-2.4,26.14-2.9c2.12-0.14,3.4,0.15,4.47,0.31" stroke-dasharray="35.71" stroke-dashoffset="35.71"><animate attributeName="stroke-dashoffset" values="35.71" fill="freeze" begin="9854.click" /><animate id="9" attributeName="stroke-dashoffset" values="35.71;0" dur="0.36s" fill="freeze" begin="8.end" /></path><path d="M74.37,21.62c0.13,0.75-0.07,2.09-0.41,2.86c-0.92,2.36-2.62,5.14-4.8,7.71" stroke-dasharray="12.04" stroke-dashoffset="12.04"><animate attributeName="stroke-dashoffset" values="12.04" fill="freeze" begin="9854.click" /><animate id="10" attributeName="stroke-dashoffset" values="12.04;0" dur="0.12s" fill="freeze" begin="9.end" /></path><g><g><path d="M61.78,33.8c0.41,0.99,1.02,1.72,1.02,3.04c0,1.13,0,25.27,0,34.92c0,1.56,0,2.74,0,3.38" stroke-dasharray="41.54" stroke-dashoffset="41.54"><animate attributeName="stroke-dashoffset" values="41.54" fill="freeze" begin="9854.click" /><animate id="11" attributeName="stroke-dashoffset" values="41.54;0" dur="0.42s" fill="freeze" begin="10.end" /></path><path d="M63.54,35.19c6.07-0.85,20.97-2.96,22.66-3.11c1.78-0.16,3.28,0.92,3.28,3.04c0,1.44-0.17,19.7-0.19,33.88c0,1.16,0,2.29,0,3.38" stroke-dasharray="65.25" stroke-dashoffset="65.25"><animate attributeName="stroke-dashoffset" values="65.25" fill="freeze" begin="9854.click" /><animate id="12" attributeName="stroke-dashoffset" values="65.25;0" dur="0.49s" fill="freeze" begin="11.end" /></path><path d="M64.2,46.59c6.3-0.84,19.08-2.22,24.1-2.58" stroke-dasharray="24.24" stroke-dashoffset="24.24"><animate attributeName="stroke-dashoffset" values="24.24" fill="freeze" begin="9854.click" /><animate id="13" attributeName="stroke-dashoffset" values="24.24;0" dur="0.24s" fill="freeze" begin="12.end" /></path><path d="M64.14,58.44c8.11-1.19,17.37-1.67,23.77-2.13" stroke-dasharray="23.87" stroke-dashoffset="23.87"><animate attributeName="stroke-dashoffset" values="23.87" fill="freeze" begin="9854.click" /><animate id="14" attributeName="stroke-dashoffset" values="23.87;0" dur="0.24s" fill="freeze" begin="13.end" /></path><path d="M64.24,72c6.01-0.62,16.7-1.79,23.52-2.29" stroke-dasharray="23.63" stroke-dashoffset="23.63"><animate attributeName="stroke-dashoffset" values="23.63" fill="freeze" begin="9854.click" /><animate id="15" attributeName="stroke-dashoffset" values="23.63;0" dur="0.24s" fill="freeze" begin="14.end" /></path></g><path d="M68.87,78c0.25,1.5-0.15,2.55-0.91,3.6c-2.59,3.52-9.55,8.96-13.46,11.9" stroke-dasharray="21.84" stroke-dashoffset="21.84"><animate attributeName="stroke-dashoffset" values="21.84" fill="freeze" begin="9854.click" /><animate id="16" attributeName="stroke-dashoffset" values="21.84;0" dur="0.22s" fill="freeze" begin="15.end" /></path><path d="M82.5,78.25c4.28,4.02,9.35,11.31,10.52,14.83" stroke-dasharray="18.3" stroke-dashoffset="18.3"><animate attributeName="stroke-dashoffset" values="18.3" fill="freeze" begin="9854.click" /><animate id="17" attributeName="stroke-dashoffset" values="18.3;0" dur="0.18s" fill="freeze" begin="16.end" /></path></g></g></g></g></svg>