<svg xmlns="http://www.w3.org/2000/svg" viewBox="0 0 109 109" id="9855"><g fill="none" stroke="#666" stroke-width="6" stroke-linecap="round" stroke-linejoin="round"><g><g p4:phon="㬎V" xmlns:p4="http://kanjivg.tagaini.net"><g><path d="M15.27,17.65c0.98,0.98,1.46,2.39,1.68,3.72c0.68,4.09,1.57,12.76,2.26,18.11C19.53,42,19.76,43.78,19.8,44" /><path d="M17.69,19.74c5.84-1.24,21.25-3.68,27.59-4.47c3.68-0.46,5.09,1.07,4.64,4.99c-0.52,4.5-1.13,9.97-1.69,15.26c-0.18,1.71-0.36,3.24-0.53,4.45" /><path d="M19.08,30.89C24,30,41.75,27.25,47.8,26.78" /><path d="M20.69,41.29c8.06-1.29,17.56-2.54,26.1-3.41" /></g><g><path d="M25.83,48.54c1.07,1.07,1.5,2.46,1.5,4.07c0,1.05,0.03,24.26,0.03,32.34" /><path d="M38.8,46.88c0.97,0.97,1.53,2.37,1.53,3.86c0,1.06,0.02,20.39,0.02,28.91" /><path d="M12.56,61.27c2.06,2.66,5.31,10.93,5.83,15.07" /><path d="M53.62,53.3c0.06,1.06-0.06,1.85-0.36,2.87c-1.13,3.79-2.8,6.85-7.16,13.76" /><path d="M14.75,88.24c1,1.01,2.38,1.76,4.03,1.1c7.35-2.96,21.35-8.34,31.46-12.01" /></g></g><g><g><path d="M56.5,16.39c2.27,0.48,4.62,0.34,6.89,0.11c6.27-0.64,18.66-2.14,25.86-2.64c2.18-0.15,4.32-0.25,6.49,0.04" /><path d="M73.78,19.18c0.06,0.87-0.05,1.72-0.34,2.54c-0.91,3.03-2.44,5.53-5.7,10.05" /></g><g><g><path d="M60.58,33.27c0.89,0.89,1.08,1.93,1.08,3.36c0,0.52-0.02,23.98-0.03,35.38c0,2.86,0,4.96,0,5.75" /><path d="M62.4,34.78c3.98-0.53,16.26-2.01,22.22-2.8c3.87-0.51,5.21,0.06,5.15,4.02c-0.08,5.51-0.02,22.77,0,34.13c0,2.23,0.01,4.24,0.01,5.88" /><path d="M62.85,47.91c4.34-0.57,20.48-2.86,25.82-2.96" /><path d="M62.74,61.3c5.75-0.6,19.33-2.06,26.15-2.21" /><path d="M62.66,74.98c5.75-0.76,18.89-2.04,26.15-2.2" /></g><g><path d="M65.29,80.07c0.21,1.05-0.02,2.33-0.93,3.43c-3.11,3.75-9.16,8.7-16.22,12.65" /><path d="M82.62,82c6.14,3.86,11.13,8.94,13.94,15.03" /></g></g></g></g></g><g fill="none" stroke="#000" stroke-width="3" stroke-linecap="round" stroke-linejoin="round"><path d="M15.27,17.65c0.98,0.98,1.46,2.39,1.68,3.72c0.68,4.09,1.57,12.76,2.26,18.11C19.53,42,19.76,43.78,19.8,44" stroke-dasharray="26.958" stroke-dashoffset="26.958"><animate attributeName="stroke-dashoffset" values="26.958;26.958;0" dur="0.27s" fill="freeze" begin="0s;9855.click" /></path><path d="M17.69,19.74c5.84-1.24,21.25-3.68,27.59-4.47c3.68-0.46,5.09,1.07,4.64,4.99c-0.52,4.5-1.13,9.97-1.69,15.26c-0.18,1.71-0.36,3.24-0.53,4.45" stroke-dasharray="56.239" stroke-dashoffset="56.239"><animate attributeName="stroke-dashoffset" values="56.239" fill="freeze" begin="9855.click" /><animate attributeName="stroke-dashoffset" values="56.239;56.239;0" keyTimes="0;0.325;1" dur="0.832s" fill="freeze" begin="0s;9855.click" /></path><path d="M19.08,30.89C24,30,41.75,27.25,47.8,26.78" stroke-dasharray="29.019" stroke-dashoffset="29.019"><animate attributeName="stroke-dashoffset" values="29.019" fill="freeze" begin="9855.click" /><animate attributeName="stroke-dashoffset" values="29.019;29.019;0" keyTimes="0;0.742;1" dur="1.122s" fill="freeze" begin="0s;9855.click" /></path><path d="M20.69,41.29c8.06-1.29,17.56-2.54,26.1-3.41" stroke-dasharray="26.326" stroke-dashoffset="26.326"><animate attributeName="stroke-dashoffset" values="26.326" fill="freeze" begin="9855.click" /><animate attributeName="stroke-dashoffset" values="26.326;26.326;0" keyTimes="0;0.81;1" dur="1.385s" fill="freeze" begin="0s;9855.click" /></path><path d="M25.83,48.54c1.07,1.07,1.5,2.46,1.5,4.07c0,1.05,0.03,24.26,0.03,32.34" stroke-dasharray="36.799" stroke-dashoffset="36.799"><animate attributeName="stroke-dashoffset" values="36.799" fill="freeze" begin="9855.click" /><animate attributeName="stroke-dashoffset" values="36.799;36.799;0" keyTimes="0;0.79;1" dur="1.753s" fill="freeze" begin="0s;9855.click" /></path><path d="M38.8,46.88c0.97,0.97,1.53,2.37,1.53,3.86c0,1.06,0.02,20.39,0.02,28.91" stroke-dasharray="33.171" stroke-dashoffset="33.171"><animate attributeName="stroke-dashoffset" values="33.171" fill="freeze" begin="9855.click" /><animate attributeName="stroke-dashoffset" values="33.171;33.171;0" keyTimes="0;0.841;1" dur="2.085s" fill="freeze" begin="0s;9855.click" /></path><path d="M12.56,61.27c2.06,2.66,5.31,10.93,5.83,15.07" stroke-dasharray="16.265" stroke-dashoffset="16.265"><animate attributeName="stroke-dashoffset" values="16.265" fill="freeze" begin="9855.click" /><animate attributeName="stroke-dashoffset" values="16.265;16.265;0" keyTimes="0;0.927;1" dur="2.248s" fill="freeze" begin="0s;9855.click" /></path><path d="M53.62,53.3c0.06,1.06-0.06,1.85-0.36,2.87c-1.13,3.79-2.8,6.85-7.16,13.76" stroke-dasharray="18.472" stroke-dashoffset="18.472"><animate attributeName="stroke-dashoffset" values="18.472" fill="freeze" begin="9855.click" /><animate attributeName="stroke-dashoffset" values="18.472;18.472;0" keyTimes="0;0.924;1" dur="2.433s" fill="freeze" begin="0s;9855.click" /></path><path d="M14.75,88.24c1,1.01,2.38,1.76,4.03,1.1c7.35-2.96,21.35-8.34,31.46-12.01" stroke-dasharray="38.132" stroke-dashoffset="38.132"><animate attributeName="stroke-dashoffset" values="38.132" fill="freeze" begin="9855.click" /><animate attributeName="stroke-dashoffset" values="38.132;38.132;0" keyTimes="0;0.865;1" dur="2.814s" fill="freeze" begin="0s;9855.click" /></path><path d="M56.5,16.39c2.27,0.48,4.62,0.34,6.89,0.11c6.27-0.64,18.66-2.14,25.86-2.64c2.18-0.15,4.32-0.25,6.49,0.04" stroke-dasharray="39.418" stroke-dashoffset="39.418"><animate attributeName="stroke-dashoffset" values="39.418" fill="freeze" begin="9855.click" /><animate attributeName="stroke-dashoffset" values="39.418;39.418;0" keyTimes="0;0.877;1" dur="3.208s" fill="freeze" begin="0s;9855.click" /></path><path d="M73.78,19.18c0.06,0.87-0.05,1.72-0.34,2.54c-0.91,3.03-2.44,5.53-5.7,10.05" stroke-dasharray="14.193" stroke-dashoffset="14.193"><animate attributeName="stroke-dashoffset" values="14.193" fill="freeze" begin="9855.click" /><animate attributeName="stroke-dashoffset" values="14.193;14.193;0" keyTimes="0;0.958;1" dur="3.35s" fill="freeze" begin="0s;9855.click" /></path><path d="M60.58,33.27c0.89,0.89,1.08,1.93,1.08,3.36c0,0.52-0.02,23.98-0.03,35.38c0,2.86,0,4.96,0,5.75" stroke-dasharray="44.767" stroke-dashoffset="44.767"><animate attributeName="stroke-dashoffset" values="44.767" fill="freeze" begin="9855.click" /><animate attributeName="stroke-dashoffset" values="44.767;44.767;0" keyTimes="0;0.882;1" dur="3.798s" fill="freeze" begin="0s;9855.click" /></path><path d="M62.4,34.78c3.98-0.53,16.26-2.01,22.22-2.8c3.87-0.51,5.21,0.06,5.15,4.02c-0.08,5.51-0.02,22.77,0,34.13c0,2.23,0.01,4.24,0.01,5.88" stroke-dasharray="70.552" stroke-dashoffset="70.552"><animate attributeName="stroke-dashoffset" values="70.552" fill="freeze" begin="9855.click" /><animate attributeName="stroke-dashoffset" values="70.552;70.552;0" keyTimes="0;0.878;1" dur="4.328s" fill="freeze" begin="0s;9855.click" /></path><path d="M62.85,47.91c4.34-0.57,20.48-2.86,25.82-2.96" stroke-dasharray="25.998" stroke-dashoffset="25.998"><animate attributeName="stroke-dashoffset" values="25.998" fill="freeze" begin="9855.click" /><animate attributeName="stroke-dashoffset" values="25.998;25.998;0" keyTimes="0;0.943;1" dur="4.588s" fill="freeze" begin="0s;9855.click" /></path><path d="M62.74,61.3c5.75-0.6,19.33-2.06,26.15-2.21" stroke-dasharray="26.25" stroke-dashoffset="26.25"><animate attributeName="stroke-dashoffset" values="26.25" fill="freeze" begin="9855.click" /><animate attributeName="stroke-dashoffset" values="26.25;26.25;0" keyTimes="0;0.946;1" dur="4.85s" fill="freeze" begin="0s;9855.click" /></path><path d="M62.66,74.98c5.75-0.76,18.89-2.04,26.15-2.2" stroke-dasharray="26.252" stroke-dashoffset="26.252"><animate attributeName="stroke-dashoffset" values="26.252" fill="freeze" begin="9855.click" /><animate attributeName="stroke-dashoffset" values="26.252;26.252;0" keyTimes="0;0.949;1" dur="5.113s" fill="freeze" begin="0s;9855.click" /></path><path d="M65.29,80.07c0.21,1.05-0.02,2.33-0.93,3.43c-3.11,3.75-9.16,8.7-16.22,12.65" stroke-dasharray="24.343" stroke-dashoffset="24.343"><animate attributeName="stroke-dashoffset" values="24.343" fill="freeze" begin="9855.click" /><animate attributeName="stroke-dashoffset" values="24.343;24.343;0" keyTimes="0;0.955;1" dur="5.356s" fill="freeze" begin="0s;9855.click" /></path><path d="M82.62,82c6.14,3.86,11.13,8.94,13.94,15.03" stroke-dasharray="20.787" stroke-dashoffset="20.787"><animate attributeName="stroke-dashoffset" values="20.787" fill="freeze" begin="9855.click" /><animate attributeName="stroke-dashoffset" values="20.787;20.787;0" keyTimes="0;0.963;1" dur="5.564s" fill="freeze" begin="0s;9855.click" /></path></g></svg>