<svg xmlns="http://www.w3.org/2000/svg" width="109" height="109" viewBox="0 0 109 109" id="98e0"><g fill="none" stroke="#666" stroke-width="9" stroke-linecap="round" stroke-linejoin="round"><g p3:partial xmlns:p3="http://kanjivg.tagaini.net"><path d="M54.54,8.38c0.13,1.4-0.48,3.12-1.15,4.31C48.5,21.38,41.25,29.88,29.5,39.25" /><path d="M57.88,14.12c5.25,2.62,11.41,7.58,14.38,13.12" /><path d="M53.15,28.17c1.03,1.03,0.98,2.08,0.98,3.47c0,1-0.01,5.9-0.01,8.36" /><path d="M39.18,41.58c1.69,0.67,4.22,0.9,5.86,0.63c4.93-0.81,14.5-2.26,18.09-2.78c3.57-0.52,4.76,0.57,4.24,4.07c-0.81,5.44-1.82,12.91-2.52,17.77c-0.31,2.14-0.56,3.78-0.7,4.52" /><path d="M42.65,54.22c7.42-1.1,13.97-1.93,22.75-3.13" /><path d="M42.79,66.37c5.58-0.74,13.46-1.87,20.66-2.68" /><path d="M40.27,42.56c0.96,0.96,1.23,2.19,1.23,3.7c0,1-0.01,35.61-0.01,42.61c0,3.5,1.03,4.17,4,2.25c6-3.88,12.12-7.88,19.11-12.53" /><path d="M60.56,73.06c3.86,2.79,9.93,10.24,12.14,16.14" /></g></g><g fill="none" stroke="#000" stroke-width="5" stroke-linecap="round" stroke-linejoin="round"><g p3:partial xmlns:p3="http://kanjivg.tagaini.net"><path d="M54.54,8.38c0.13,1.4-0.48,3.12-1.15,4.31C48.5,21.38,41.25,29.88,29.5,39.25" stroke-dasharray="40.47" stroke-dashoffset="40.47"><animate id="0" attributeName="stroke-dashoffset" values="40.47;0" dur="0.4s" fill="freeze" begin="0s;98e0.click" /></path><path d="M57.88,14.12c5.25,2.62,11.41,7.58,14.38,13.12" stroke-dasharray="19.74" stroke-dashoffset="19.74"><animate attributeName="stroke-dashoffset" values="19.74" fill="freeze" begin="98e0.click" /><animate id="1" attributeName="stroke-dashoffset" values="19.74;0" dur="0.2s" fill="freeze" begin="0.end" /></path><path d="M53.15,28.17c1.03,1.03,0.98,2.08,0.98,3.47c0,1-0.01,5.9-0.01,8.36" stroke-dasharray="12.09" stroke-dashoffset="12.09"><animate attributeName="stroke-dashoffset" values="12.09" fill="freeze" begin="98e0.click" /><animate id="2" attributeName="stroke-dashoffset" values="12.09;0" dur="0.12s" fill="freeze" begin="1.end" /></path><path d="M39.18,41.58c1.69,0.67,4.22,0.9,5.86,0.63c4.93-0.81,14.5-2.26,18.09-2.78c3.57-0.52,4.76,0.57,4.24,4.07c-0.81,5.44-1.82,12.91-2.52,17.77c-0.31,2.14-0.56,3.78-0.7,4.52" stroke-dasharray="54.31" stroke-dashoffset="54.31"><animate attributeName="stroke-dashoffset" values="54.31" fill="freeze" begin="98e0.click" /><animate id="3" attributeName="stroke-dashoffset" values="54.31;0" dur="0.54s" fill="freeze" begin="2.end" /></path><path d="M42.65,54.22c7.42-1.1,13.97-1.93,22.75-3.13" stroke-dasharray="22.96" stroke-dashoffset="22.96"><animate attributeName="stroke-dashoffset" values="22.96" fill="freeze" begin="98e0.click" /><animate id="4" attributeName="stroke-dashoffset" values="22.96;0" dur="0.23s" fill="freeze" begin="3.end" /></path><path d="M42.79,66.37c5.58-0.74,13.46-1.87,20.66-2.68" stroke-dasharray="20.83" stroke-dashoffset="20.83"><animate attributeName="stroke-dashoffset" values="20.83" fill="freeze" begin="98e0.click" /><animate id="5" attributeName="stroke-dashoffset" values="20.83;0" dur="0.21s" fill="freeze" begin="4.end" /></path><path d="M40.27,42.56c0.96,0.96,1.23,2.19,1.23,3.7c0,1-0.01,35.61-0.01,42.61c0,3.5,1.03,4.17,4,2.25c6-3.88,12.12-7.88,19.11-12.53" stroke-dasharray="76.26" stroke-dashoffset="76.26"><animate attributeName="stroke-dashoffset" values="76.26" fill="freeze" begin="98e0.click" /><animate id="6" attributeName="stroke-dashoffset" values="76.26;0" dur="0.57s" fill="freeze" begin="5.end" /></path><path d="M60.56,73.06c3.86,2.79,9.93,10.24,12.14,16.14" stroke-dasharray="20.4" stroke-dashoffset="20.4"><animate attributeName="stroke-dashoffset" values="20.4" fill="freeze" begin="98e0.click" /><animate id="7" attributeName="stroke-dashoffset" values="20.4;0" dur="0.2s" fill="freeze" begin="6.end" /></path></g></g></svg>