<svg xmlns="http://www.w3.org/2000/svg" viewBox="0 0 109 109" id="98e2"><g fill="none" stroke="#666" stroke-width="6" stroke-linecap="round" stroke-linejoin="round"><g><g p4:partial xmlns:p4="http://kanjivg.tagaini.net"><path d="M30.79,13.5c0.06,0.73,0.23,1.95-0.12,2.93C27.79,24.57,20.25,35.5,10.75,43.5" /><path d="M32.5,19.25c5.56,3.31,9.9,6.84,14.25,11.25" /><path d="M30.79,32.26c0.85,0.85,1.28,2.11,1.28,3.32c0,0.93-0.07,4.37-0.07,6.67" /><path d="M18.87,44.76c1.63,0.49,3.54,0.26,5.33-0.06c4.23-0.75,11.07-2.05,14.19-2.61c2.91-0.53,4.65,0,4.21,3.3c-0.67,4.98-1.12,10.62-1.69,15.63c-0.19,1.64-0.39,3.22-0.62,4.68" /><path d="M21.71,55.03c3.42-0.41,12.54-1.91,19.03-2.66" /><path d="M21.62,65.85c4.11-0.43,11.38-1.23,17.71-1.97" /><path d="M19.62,45.51c0.75,0.75,1.03,1.49,1.03,2.49c0,0.93-0.02,39.28-0.02,43.25c0,2.08,0.66,2.69,2.7,1.08c2.04-1.61,10.3-8.58,16.43-13.58" /><path d="M36.38,72c2.59,2.25,6.65,8.25,8.12,13" /></g><g p4:phon="хЗа" xmlns:p4="http://kanjivg.tagaini.net"><g><path d="M57.86,25.82c0.84,0.84,1.45,1.93,1.45,3.78c0,19.84,0.69,45.9-11.49,60.4" /></g><path d="M60.16,28.86c5.59-1.73,10.47-2.98,13.98-3.86c2.82-0.71,4.72,0.44,4.72,4.1c0,4.16-0.07,51.87-0.07,54.52c0,6.51,1.47,8.72,8.74,8.72c6.47,0,7.28-1.33,7.28-9.42" /></g></g></g><g fill="none" stroke="#000" stroke-width="3" stroke-linecap="round" stroke-linejoin="round"><path d="M30.79,13.5c0.06,0.73,0.23,1.95-0.12,2.93C27.79,24.57,20.25,35.5,10.75,43.5" stroke-dasharray="36.907" stroke-dashoffset="36.907"><animate attributeName="stroke-dashoffset" values="36.907;36.907;0" dur="0.369s" fill="freeze" begin="0s;98e2.click" /></path><path d="M32.5,19.25c5.56,3.31,9.9,6.84,14.25,11.25" stroke-dasharray="18.209" stroke-dashoffset="18.209"><animate attributeName="stroke-dashoffset" values="18.209" fill="freeze" begin="98e2.click" /><animate attributeName="stroke-dashoffset" values="18.209;18.209;0" keyTimes="0;0.67;1" dur="0.551s" fill="freeze" begin="0s;98e2.click" /></path><path d="M30.79,32.26c0.85,0.85,1.28,2.11,1.28,3.32c0,0.93-0.07,4.37-0.07,6.67" stroke-dasharray="10.32" stroke-dashoffset="10.32"><animate attributeName="stroke-dashoffset" values="10.32" fill="freeze" begin="98e2.click" /><animate attributeName="stroke-dashoffset" values="10.32;10.32;0" keyTimes="0;0.843;1" dur="0.654s" fill="freeze" begin="0s;98e2.click" /></path><path d="M18.87,44.76c1.63,0.49,3.54,0.26,5.33-0.06c4.23-0.75,11.07-2.05,14.19-2.61c2.91-0.53,4.65,0,4.21,3.3c-0.67,4.98-1.12,10.62-1.69,15.63c-0.19,1.64-0.39,3.22-0.62,4.68" stroke-dasharray="47.075" stroke-dashoffset="47.075"><animate attributeName="stroke-dashoffset" values="47.075" fill="freeze" begin="98e2.click" /><animate attributeName="stroke-dashoffset" values="47.075;47.075;0" keyTimes="0;0.581;1" dur="1.125s" fill="freeze" begin="0s;98e2.click" /></path><path d="M21.71,55.03c3.42-0.41,12.54-1.91,19.03-2.66" stroke-dasharray="19.217" stroke-dashoffset="19.217"><animate attributeName="stroke-dashoffset" values="19.217" fill="freeze" begin="98e2.click" /><animate attributeName="stroke-dashoffset" values="19.217;19.217;0" keyTimes="0;0.854;1" dur="1.317s" fill="freeze" begin="0s;98e2.click" /></path><path d="M21.62,65.85c4.11-0.43,11.38-1.23,17.71-1.97" stroke-dasharray="17.82" stroke-dashoffset="17.82"><animate attributeName="stroke-dashoffset" values="17.82" fill="freeze" begin="98e2.click" /><animate attributeName="stroke-dashoffset" values="17.82;17.82;0" keyTimes="0;0.881;1" dur="1.495s" fill="freeze" begin="0s;98e2.click" /></path><path d="M19.62,45.51c0.75,0.75,1.03,1.49,1.03,2.49c0,0.93-0.02,39.28-0.02,43.25c0,2.08,0.66,2.69,2.7,1.08c2.04-1.61,10.3-8.58,16.43-13.58" stroke-dasharray="71.819" stroke-dashoffset="71.819"><animate attributeName="stroke-dashoffset" values="71.819" fill="freeze" begin="98e2.click" /><animate attributeName="stroke-dashoffset" values="71.819;71.819;0" keyTimes="0;0.735;1" dur="2.035s" fill="freeze" begin="0s;98e2.click" /></path><path d="M36.38,72c2.59,2.25,6.65,8.25,8.12,13" stroke-dasharray="15.467" stroke-dashoffset="15.467"><animate attributeName="stroke-dashoffset" values="15.467" fill="freeze" begin="98e2.click" /><animate attributeName="stroke-dashoffset" values="15.467;15.467;0" keyTimes="0;0.929;1" dur="2.19s" fill="freeze" begin="0s;98e2.click" /></path><path d="M57.86,25.82c0.84,0.84,1.45,1.93,1.45,3.78c0,19.84,0.69,45.9-11.49,60.4" stroke-dasharray="66.85" stroke-dashoffset="66.85"><animate attributeName="stroke-dashoffset" values="66.85" fill="freeze" begin="98e2.click" /><animate attributeName="stroke-dashoffset" values="66.85;66.85;0" keyTimes="0;0.813;1" dur="2.693s" fill="freeze" begin="0s;98e2.click" /></path><path d="M60.16,28.86c5.59-1.73,10.47-2.98,13.98-3.86c2.82-0.71,4.72,0.44,4.72,4.1c0,4.16-0.07,51.87-0.07,54.52c0,6.51,1.47,8.72,8.74,8.72c6.47,0,7.28-1.33,7.28-9.42" stroke-dasharray="105.818" stroke-dashoffset="105.818"><animate attributeName="stroke-dashoffset" values="105.818" fill="freeze" begin="98e2.click" /><animate attributeName="stroke-dashoffset" values="105.818;105.818;0" keyTimes="0;0.772;1" dur="3.489s" fill="freeze" begin="0s;98e2.click" /></path></g></svg>