<svg xmlns="http://www.w3.org/2000/svg" width="109" height="109" viewBox="0 0 109 109" id="98fe"><g fill="none" stroke="#666" stroke-width="9" stroke-linecap="round" stroke-linejoin="round"><g><g p4:partial p4:phon="食" xmlns:p4="http://kanjivg.tagaini.net"><path d="M31.29,13.25c0.06,0.73,0.23,1.95-0.12,2.93c-2.88,8.14-11.44,18.55-20.42,25.57" /><path d="M33.75,19.12c4.71,2.45,9.84,5.45,12.5,10.62" /><path d="M32.04,31.76c0.85,0.85,1.03,2.13,1.03,3.07c0,2.79-0.07,3.51-0.07,5.92" /><path d="M18.2,43.01c0.8,0.61,2.3,0.86,4.51,0.49c5.01-0.84,12.67-2.25,16.19-2.88c3.6-0.64,4.88,0.23,4.34,4c-0.74,5.14-1.96,13.68-2.56,18.65c-0.29,2.42-0.48,4.08-0.48,4.26" /><path d="M21.21,54.78c6.17-0.78,14.54-2.03,19.78-2.66" /><path d="M21.37,66.85c4.11-0.43,11.38-1.35,17.96-1.72" /><path d="M19.12,44.01c0.81,0.81,1.03,1.86,1.03,3.24c0,0.93,0.11,41.69-0.08,43.97c-0.17,2.07-0.03,3.97,2.01,2.37C24.11,91.98,37.25,84,41.5,81.5" /><path d="M37.75,74.75c2.78,2.47,7.16,9.04,8.75,14.25" /></g><g><path d="M63.27,12.14c0.04,0.63-0.04,1.67-0.32,2.54c-2.32,7.07-5.57,15.44-12.64,24.29" /><path d="M61.5,27.64c1.88,0.36,3.63-0.09,5.38-0.36c5.12-0.78,13.57-2.63,19.27-3.82c1.96-0.41,3.42-0.43,5.35,0.04" /><g><path d="M54.51,46.5c1.12,1.12,1.12,2.38,1.12,4.14c0,0.43,0.05,16.17,0.08,25.24c0.01,2.99,0.01,5.26,0.01,6.01" /><path d="M56.32,48.75c2.69-0.22,25.46-2.86,32.44-3.59c3.29-0.35,5.27,0.96,5.05,4.59c-0.44,7.43-0.88,18.71-2.13,26.75c-0.9,5.82-2.73,5.82-5.73,1.19" /><path d="M71.81,29.63c1.28,1.28,1.51,2.74,1.51,4.5c0,0.74-0.02,39.56-0.16,57.12c-0.03,3.92-0.06,6.73-0.09,7.75" /></g></g></g></g><g fill="none" stroke="#000" stroke-width="5" stroke-linecap="round" stroke-linejoin="round"><g><g p4:partial p4:phon="食" xmlns:p4="http://kanjivg.tagaini.net"><path d="M31.29,13.25c0.06,0.73,0.23,1.95-0.12,2.93c-2.88,8.14-11.44,18.55-20.42,25.57" stroke-dasharray="36.04" stroke-dashoffset="36.04"><animate id="0" attributeName="stroke-dashoffset" values="36.04;0" dur="0.36s" fill="freeze" begin="0s;98fe.click" /></path><path d="M33.75,19.12c4.71,2.45,9.84,5.45,12.5,10.62" stroke-dasharray="16.68" stroke-dashoffset="16.68"><animate attributeName="stroke-dashoffset" values="16.68" fill="freeze" begin="98fe.click" /><animate id="1" attributeName="stroke-dashoffset" values="16.68;0" dur="0.17s" fill="freeze" begin="0.end" /></path><path d="M32.04,31.76c0.85,0.85,1.03,2.13,1.03,3.07c0,2.79-0.07,3.51-0.07,5.92" stroke-dasharray="9.24" stroke-dashoffset="9.24"><animate attributeName="stroke-dashoffset" values="9.24" fill="freeze" begin="98fe.click" /><animate id="2" attributeName="stroke-dashoffset" values="9.24;0" dur="0.09s" fill="freeze" begin="1.end" /></path><path d="M18.2,43.01c0.8,0.61,2.3,0.86,4.51,0.49c5.01-0.84,12.67-2.25,16.19-2.88c3.6-0.64,4.88,0.23,4.34,4c-0.74,5.14-1.96,13.68-2.56,18.65c-0.29,2.42-0.48,4.08-0.48,4.26" stroke-dasharray="51.91" stroke-dashoffset="51.91"><animate attributeName="stroke-dashoffset" values="51.91" fill="freeze" begin="98fe.click" /><animate id="3" attributeName="stroke-dashoffset" values="51.91;0" dur="0.52s" fill="freeze" begin="2.end" /></path><path d="M21.21,54.78c6.17-0.78,14.54-2.03,19.78-2.66" stroke-dasharray="19.96" stroke-dashoffset="19.96"><animate attributeName="stroke-dashoffset" values="19.96" fill="freeze" begin="98fe.click" /><animate id="4" attributeName="stroke-dashoffset" values="19.96;0" dur="0.2s" fill="freeze" begin="3.end" /></path><path d="M21.37,66.85c4.11-0.43,11.38-1.35,17.96-1.72" stroke-dasharray="18.04" stroke-dashoffset="18.04"><animate attributeName="stroke-dashoffset" values="18.04" fill="freeze" begin="98fe.click" /><animate id="5" attributeName="stroke-dashoffset" values="18.04;0" dur="0.18s" fill="freeze" begin="4.end" /></path><path d="M19.12,44.01c0.81,0.81,1.03,1.86,1.03,3.24c0,0.93,0.11,41.69-0.08,43.97c-0.17,2.07-0.03,3.97,2.01,2.37C24.11,91.98,37.25,84,41.5,81.5" stroke-dasharray="75.1" stroke-dashoffset="75.1"><animate attributeName="stroke-dashoffset" values="75.1" fill="freeze" begin="98fe.click" /><animate id="6" attributeName="stroke-dashoffset" values="75.1;0" dur="0.56s" fill="freeze" begin="5.end" /></path><path d="M37.75,74.75c2.78,2.47,7.16,9.04,8.75,14.25" stroke-dasharray="16.87" stroke-dashoffset="16.87"><animate attributeName="stroke-dashoffset" values="16.87" fill="freeze" begin="98fe.click" /><animate id="7" attributeName="stroke-dashoffset" values="16.87;0" dur="0.17s" fill="freeze" begin="6.end" /></path></g><g><path d="M63.27,12.14c0.04,0.63-0.04,1.67-0.32,2.54c-2.32,7.07-5.57,15.44-12.64,24.29" stroke-dasharray="30.12" stroke-dashoffset="30.12"><animate attributeName="stroke-dashoffset" values="30.12" fill="freeze" begin="98fe.click" /><animate id="8" attributeName="stroke-dashoffset" values="30.12;0" dur="0.3s" fill="freeze" begin="7.end" /></path><path d="M61.5,27.64c1.88,0.36,3.63-0.09,5.38-0.36c5.12-0.78,13.57-2.63,19.27-3.82c1.96-0.41,3.42-0.43,5.35,0.04" stroke-dasharray="30.47" stroke-dashoffset="30.47"><animate attributeName="stroke-dashoffset" values="30.47" fill="freeze" begin="98fe.click" /><animate id="9" attributeName="stroke-dashoffset" values="30.47;0" dur="0.3s" fill="freeze" begin="8.end" /></path><g><path d="M54.51,46.5c1.12,1.12,1.12,2.38,1.12,4.14c0,0.43,0.05,16.17,0.08,25.24c0.01,2.99,0.01,5.26,0.01,6.01" stroke-dasharray="35.68" stroke-dashoffset="35.68"><animate attributeName="stroke-dashoffset" values="35.68" fill="freeze" begin="98fe.click" /><animate id="10" attributeName="stroke-dashoffset" values="35.68;0" dur="0.36s" fill="freeze" begin="9.end" /></path><path d="M56.32,48.75c2.69-0.22,25.46-2.86,32.44-3.59c3.29-0.35,5.27,0.96,5.05,4.59c-0.44,7.43-0.88,18.71-2.13,26.75c-0.9,5.82-2.73,5.82-5.73,1.19" stroke-dasharray="77.99" stroke-dashoffset="77.99"><animate attributeName="stroke-dashoffset" values="77.99" fill="freeze" begin="98fe.click" /><animate id="11" attributeName="stroke-dashoffset" values="77.99;0" dur="0.59s" fill="freeze" begin="10.end" /></path><path d="M71.81,29.63c1.28,1.28,1.51,2.74,1.51,4.5c0,0.74-0.02,39.56-0.16,57.12c-0.03,3.92-0.06,6.73-0.09,7.75" stroke-dasharray="69.76" stroke-dashoffset="69.76"><animate attributeName="stroke-dashoffset" values="69.76" fill="freeze" begin="98fe.click" /><animate id="12" attributeName="stroke-dashoffset" values="69.76;0" dur="0.52s" fill="freeze" begin="11.end" /></path></g></g></g></g></svg>