<svg xmlns="http://www.w3.org/2000/svg" width="109" height="109" viewBox="0 0 109 109" id="9913"><g fill="none" stroke="#666" stroke-width="9" stroke-linecap="round" stroke-linejoin="round"><g><g p4:partial xmlns:p4="http://kanjivg.tagaini.net"><path d="M31.04,12.5c0.34,1.12,0.23,1.95-0.12,2.93C28.04,23.57,19.23,35.99,10.25,43" /><path d="M32.62,17.5c4.43,2.25,9.62,6.5,12.12,11.25" /><path d="M30.79,30.26c0.85,0.85,1.28,1.86,1.28,3.07c0,0.93-0.07,4.87-0.07,7.17" /><path d="M19.2,42.76c0.8,0.49,2.11,0.77,3.8,0.46c5.15-0.94,15.44-2.77,16.46-2.91c2.29-0.32,2.98,1.17,2.77,2.63c-0.81,5.62-1.63,12.56-2.44,18.31c-0.17,1.21-0.34,2.37-0.51,3.45" /><path d="M21.46,54.53c4.92-0.66,12.92-2.41,18.53-2.91" /><path d="M21.37,65.85c5.76-1.23,11.13-2.23,17.21-2.97" /><path d="M19.37,43.01c0.69,0.69,1.03,1.61,1.03,2.99c0,0.93-0.02,40.16-0.02,44.5c0,2.08,1.29,2.54,3.38,1c2.88-2.12,10-8,15-11.25" /><path d="M35.75,71.75c2.07,2.73,5.32,9.99,6.5,15.75" /></g><g p4:phon="我" xmlns:p4="http://kanjivg.tagaini.net"><g><path d="M64.38,18.89c0.12,0.95-0.2,1.74-0.84,2.47C60.38,25,57,27.38,48.5,33" /></g><g p4:part="1"><g p4:part="1"><path d="M48.36,44.14c2.51,0.48,5.41,0.54,7.5,0.14c10.02-1.91,24.19-4.5,33.03-5.39c2-0.2,3.89-0.36,5.86,0.15" /></g></g><g><path d="M57.99,30.33c1.02,1.02,1.5,2.67,1.5,4.27c0,14.56-0.09,47.69-0.11,52.65c-0.03,9.28-5.71,1-6.9-0.25" /></g><path d="M46.47,70.94c1.41,0.56,2.65,0.45,4-0.67c1.05-0.87,13.79-11.57,18.23-15.76" /><g p4:part="2"><path d="M72.57,13.25c1.34,1.34,1.44,3.08,1.5,7.04C74.62,52.75,82.06,86,94.97,95.92c4.45,3.42,3.65,1.54,3.1-6.59" /><g><path d="M92.36,50.64c0.06,0.71-0.16,1.66-0.62,2.61c-3.12,6.37-9.87,17.87-21.74,27.5" /></g><g p4:part="2"><g><path d="M83.86,19.25c2.52,1.9,6.55,6.24,7.72,9.5" /></g></g></g></g></g></g><g fill="none" stroke="#000" stroke-width="5" stroke-linecap="round" stroke-linejoin="round"><g><g p4:partial xmlns:p4="http://kanjivg.tagaini.net"><path d="M31.04,12.5c0.34,1.12,0.23,1.95-0.12,2.93C28.04,23.57,19.23,35.99,10.25,43" stroke-dasharray="37.81" stroke-dashoffset="37.81"><animate id="0" attributeName="stroke-dashoffset" values="37.81;0" dur="0.38s" fill="freeze" begin="0s;9913.click" /></path><path d="M32.62,17.5c4.43,2.25,9.62,6.5,12.12,11.25" stroke-dasharray="16.77" stroke-dashoffset="16.77"><animate attributeName="stroke-dashoffset" values="16.77" fill="freeze" begin="9913.click" /><animate id="1" attributeName="stroke-dashoffset" values="16.77;0" dur="0.17s" fill="freeze" begin="0.end" /></path><path d="M30.79,30.26c0.85,0.85,1.28,1.86,1.28,3.07c0,0.93-0.07,4.87-0.07,7.17" stroke-dasharray="10.59" stroke-dashoffset="10.59"><animate attributeName="stroke-dashoffset" values="10.59" fill="freeze" begin="9913.click" /><animate id="2" attributeName="stroke-dashoffset" values="10.59;0" dur="0.11s" fill="freeze" begin="1.end" /></path><path d="M19.2,42.76c0.8,0.49,2.11,0.77,3.8,0.46c5.15-0.94,15.44-2.77,16.46-2.91c2.29-0.32,2.98,1.17,2.77,2.63c-0.81,5.62-1.63,12.56-2.44,18.31c-0.17,1.21-0.34,2.37-0.51,3.45" stroke-dasharray="47.2" stroke-dashoffset="47.2"><animate attributeName="stroke-dashoffset" values="47.2" fill="freeze" begin="9913.click" /><animate id="3" attributeName="stroke-dashoffset" values="47.2;0" dur="0.47s" fill="freeze" begin="2.end" /></path><path d="M21.46,54.53c4.92-0.66,12.92-2.41,18.53-2.91" stroke-dasharray="18.76" stroke-dashoffset="18.76"><animate attributeName="stroke-dashoffset" values="18.76" fill="freeze" begin="9913.click" /><animate id="4" attributeName="stroke-dashoffset" values="18.76;0" dur="0.19s" fill="freeze" begin="3.end" /></path><path d="M21.37,65.85c5.76-1.23,11.13-2.23,17.21-2.97" stroke-dasharray="17.47" stroke-dashoffset="17.47"><animate attributeName="stroke-dashoffset" values="17.47" fill="freeze" begin="9913.click" /><animate id="5" attributeName="stroke-dashoffset" values="17.47;0" dur="0.17s" fill="freeze" begin="4.end" /></path><path d="M19.37,43.01c0.69,0.69,1.03,1.61,1.03,2.99c0,0.93-0.02,40.16-0.02,44.5c0,2.08,1.29,2.54,3.38,1c2.88-2.12,10-8,15-11.25" stroke-dasharray="71.43" stroke-dashoffset="71.43"><animate attributeName="stroke-dashoffset" values="71.43" fill="freeze" begin="9913.click" /><animate id="6" attributeName="stroke-dashoffset" values="71.43;0" dur="0.54s" fill="freeze" begin="5.end" /></path><path d="M35.75,71.75c2.07,2.73,5.32,9.99,6.5,15.75" stroke-dasharray="17.13" stroke-dashoffset="17.13"><animate attributeName="stroke-dashoffset" values="17.13" fill="freeze" begin="9913.click" /><animate id="7" attributeName="stroke-dashoffset" values="17.13;0" dur="0.17s" fill="freeze" begin="6.end" /></path></g><g p4:phon="我" xmlns:p4="http://kanjivg.tagaini.net"><g><path d="M64.38,18.89c0.12,0.95-0.2,1.74-0.84,2.47C60.38,25,57,27.38,48.5,33" stroke-dasharray="21.78" stroke-dashoffset="21.78"><animate attributeName="stroke-dashoffset" values="21.78" fill="freeze" begin="9913.click" /><animate id="8" attributeName="stroke-dashoffset" values="21.78;0" dur="0.22s" fill="freeze" begin="7.end" /></path></g><g p4:part="1"><g p4:part="1"><path d="M48.36,44.14c2.51,0.48,5.41,0.54,7.5,0.14c10.02-1.91,24.19-4.5,33.03-5.39c2-0.2,3.89-0.36,5.86,0.15" stroke-dasharray="46.91" stroke-dashoffset="46.91"><animate attributeName="stroke-dashoffset" values="46.91" fill="freeze" begin="9913.click" /><animate id="9" attributeName="stroke-dashoffset" values="46.91;0" dur="0.47s" fill="freeze" begin="8.end" /></path></g></g><g><path d="M57.99,30.33c1.02,1.02,1.5,2.67,1.5,4.27c0,14.56-0.09,47.69-0.11,52.65c-0.03,9.28-5.71,1-6.9-0.25" stroke-dasharray="69.47" stroke-dashoffset="69.47"><animate attributeName="stroke-dashoffset" values="69.47" fill="freeze" begin="9913.click" /><animate id="10" attributeName="stroke-dashoffset" values="69.47;0" dur="0.52s" fill="freeze" begin="9.end" /></path></g><path d="M46.47,70.94c1.41,0.56,2.65,0.45,4-0.67c1.05-0.87,13.79-11.57,18.23-15.76" stroke-dasharray="28.4" stroke-dashoffset="28.4"><animate attributeName="stroke-dashoffset" values="28.4" fill="freeze" begin="9913.click" /><animate id="11" attributeName="stroke-dashoffset" values="28.4;0" dur="0.28s" fill="freeze" begin="10.end" /></path><g p4:part="2"><path d="M72.57,13.25c1.34,1.34,1.44,3.08,1.5,7.04C74.62,52.75,82.06,86,94.97,95.92c4.45,3.42,3.65,1.54,3.1-6.59" stroke-dasharray="99.51" stroke-dashoffset="99.51"><animate attributeName="stroke-dashoffset" values="99.51" fill="freeze" begin="9913.click" /><animate id="12" attributeName="stroke-dashoffset" values="99.51;0" dur="0.75s" fill="freeze" begin="11.end" /></path><g><path d="M92.36,50.64c0.06,0.71-0.16,1.66-0.62,2.61c-3.12,6.37-9.87,17.87-21.74,27.5" stroke-dasharray="38.04" stroke-dashoffset="38.04"><animate attributeName="stroke-dashoffset" values="38.04" fill="freeze" begin="9913.click" /><animate id="13" attributeName="stroke-dashoffset" values="38.04;0" dur="0.38s" fill="freeze" begin="12.end" /></path></g><g p4:part="2"><g><path d="M83.86,19.25c2.52,1.9,6.55,6.24,7.72,9.5" stroke-dasharray="12.37" stroke-dashoffset="12.37"><animate attributeName="stroke-dashoffset" values="12.37" fill="freeze" begin="9913.click" /><animate id="14" attributeName="stroke-dashoffset" values="12.37;0" dur="0.12s" fill="freeze" begin="13.end" /></path></g></g></g></g></g></g></svg>