<svg xmlns="http://www.w3.org/2000/svg" width="109" height="109" viewBox="0 0 109 109" id="9914"><g fill="none" stroke="#666" stroke-width="9" stroke-linecap="round" stroke-linejoin="round"><g><g><path d="M29.76,10.64c0.05,0.78,0.27,2.09-0.11,3.15c-2.43,6.93-9.43,20.48-19.35,30.68" /><path d="M32.02,17.58c3.98,1.88,10.3,7.72,11.29,10.63" /><path d="M25.25,33.16c0.36,0.15,1.02,0.19,1.39,0.15c2.3-0.25,8.37-2.17,10.6-2c0.6,0.05,0.96,0.07,1.27,0.14" /><path d="M19.27,42.44c0.37,0.78,0.74,1.66,0.74,2.7c0,1.04-0.12,54.33,0,55.37" /><path d="M20.15,44.05c2.08-0.13,16.95-2.15,18.85-2.31c1.58-0.13,2.6,1.44,2.48,2.2c-0.25,1.56-1.82,17.89-2.34,21.33" /><path d="M20.51,54.12c2.82,0,16.42-1.79,19.61-1.79" /><path d="M20.38,65.36c5.75-0.56,11.68-1.54,18.84-2.02" /><path d="M20.33,77.75c3.53-0.25,15.14-2.64,18.57-2.47c0.92,0.04,1.48,0.07,1.94,0.14" /><path d="M20.8,90.88c3.54-0.25,15.62-2.15,19.04-1.98c0.92,0.04,1.48,0.07,1.94,0.14" /></g><g><path d="M49.75,26.57c1.17,0.55,3.32,0.64,4.5,0.55c9.63-0.77,25.2-2.5,38.4-2.98c1.95-0.07,3.13,0.26,4.11,0.54" /><g><path d="M52.91,38.86c0.53,0.73,0.88,1.47,1.06,2.2c0.18,0.74-0.21,51.44-0.19,58.06" /><path d="M55.02,41.3c5.92-0.31,32.9-2.81,34.47-3.01c2.81-0.37,3.86,2.39,3.51,3.49c-0.04,2.48-0.6,30.89-0.6,47.69c0,11.98-6.28,3.79-7.53,3.07" /><path d="M55.02,55.86c7.83-0.64,30.43-1.78,36.75-2.33" /><path d="M55.18,71.29c5.62-0.55,30.57-1.79,37.07-2.16" /><path d="M69.08,10.3c1.24,0.59,1.99,2.67,2.24,3.85c0.25,1.19,0,77.07-0.25,84.48" /></g><g><path d="M81,11.25c4.12,1.46,9.97,5.48,11,7.75" /></g></g></g></g><g fill="none" stroke="#000" stroke-width="5" stroke-linecap="round" stroke-linejoin="round"><path d="M29.76,10.64c0.05,0.78,0.27,2.09-0.11,3.15c-2.43,6.93-9.43,20.48-19.35,30.68" stroke-dasharray="39.687" stroke-dashoffset="39.687"><animate attributeName="stroke-dashoffset" values="39.687;39.687;0" dur="0.397s" fill="freeze" begin="0s;9914.click" /></path><path d="M32.02,17.58c3.98,1.88,10.3,7.72,11.29,10.63" stroke-dasharray="15.732" stroke-dashoffset="15.732"><animate attributeName="stroke-dashoffset" values="15.732" fill="freeze" begin="9914.click" /><animate attributeName="stroke-dashoffset" values="15.732;15.732;0" keyTimes="0;0.717;1" dur="0.554s" fill="freeze" begin="0s;9914.click" /></path><path d="M25.25,33.16c0.36,0.15,1.02,0.19,1.39,0.15c2.3-0.25,8.37-2.17,10.6-2c0.6,0.05,0.96,0.07,1.27,0.14" stroke-dasharray="13.497" stroke-dashoffset="13.497"><animate attributeName="stroke-dashoffset" values="13.497" fill="freeze" begin="9914.click" /><animate attributeName="stroke-dashoffset" values="13.497;13.497;0" keyTimes="0;0.804;1" dur="0.689s" fill="freeze" begin="0s;9914.click" /></path><path d="M19.27,42.44c0.37,0.78,0.74,1.66,0.74,2.7c0,1.04-0.12,54.33,0,55.37" stroke-dasharray="58.196" stroke-dashoffset="58.196"><animate attributeName="stroke-dashoffset" values="58.196" fill="freeze" begin="9914.click" /><animate attributeName="stroke-dashoffset" values="58.196;58.196;0" keyTimes="0;0.542;1" dur="1.271s" fill="freeze" begin="0s;9914.click" /></path><path d="M20.15,44.05c2.08-0.13,16.95-2.15,18.85-2.31c1.58-0.13,2.6,1.44,2.48,2.2c-0.25,1.56-1.82,17.89-2.34,21.33" stroke-dasharray="44.153" stroke-dashoffset="44.153"><animate attributeName="stroke-dashoffset" values="44.153" fill="freeze" begin="9914.click" /><animate attributeName="stroke-dashoffset" values="44.153;44.153;0" keyTimes="0;0.742;1" dur="1.713s" fill="freeze" begin="0s;9914.click" /></path><path d="M20.51,54.12c2.82,0,16.42-1.79,19.61-1.79" stroke-dasharray="19.697" stroke-dashoffset="19.697"><animate attributeName="stroke-dashoffset" values="19.697" fill="freeze" begin="9914.click" /><animate attributeName="stroke-dashoffset" values="19.697;19.697;0" keyTimes="0;0.897;1" dur="1.91s" fill="freeze" begin="0s;9914.click" /></path><path d="M20.38,65.36c5.75-0.56,11.68-1.54,18.84-2.02" stroke-dasharray="18.951" stroke-dashoffset="18.951"><animate attributeName="stroke-dashoffset" values="18.951" fill="freeze" begin="9914.click" /><animate attributeName="stroke-dashoffset" values="18.951;18.951;0" keyTimes="0;0.91;1" dur="2.1s" fill="freeze" begin="0s;9914.click" /></path><path d="M20.33,77.75c3.53-0.25,15.14-2.64,18.57-2.47c0.92,0.04,1.48,0.07,1.94,0.14" stroke-dasharray="20.695" stroke-dashoffset="20.695"><animate attributeName="stroke-dashoffset" values="20.695" fill="freeze" begin="9914.click" /><animate attributeName="stroke-dashoffset" values="20.695;20.695;0" keyTimes="0;0.91;1" dur="2.307s" fill="freeze" begin="0s;9914.click" /></path><path d="M20.8,90.88c3.54-0.25,15.62-2.15,19.04-1.98c0.92,0.04,1.48,0.07,1.94,0.14" stroke-dasharray="21.1" stroke-dashoffset="21.1"><animate attributeName="stroke-dashoffset" values="21.1" fill="freeze" begin="9914.click" /><animate attributeName="stroke-dashoffset" values="21.1;21.1;0" keyTimes="0;0.916;1" dur="2.518s" fill="freeze" begin="0s;9914.click" /></path><path d="M49.75,26.57c1.17,0.55,3.32,0.64,4.5,0.55c9.63-0.77,25.2-2.5,38.4-2.98c1.95-0.07,3.13,0.26,4.11,0.54" stroke-dasharray="47.258" stroke-dashoffset="47.258"><animate attributeName="stroke-dashoffset" values="47.258" fill="freeze" begin="9914.click" /><animate attributeName="stroke-dashoffset" values="47.258;47.258;0" keyTimes="0;0.842;1" dur="2.991s" fill="freeze" begin="0s;9914.click" /></path><path d="M52.91,38.86c0.53,0.73,0.88,1.47,1.06,2.2c0.18,0.74-0.21,51.44-0.19,58.06" stroke-dasharray="60.52" stroke-dashoffset="60.52"><animate attributeName="stroke-dashoffset" values="60.52" fill="freeze" begin="9914.click" /><animate attributeName="stroke-dashoffset" values="60.52;60.52;0" keyTimes="0;0.868;1" dur="3.446s" fill="freeze" begin="0s;9914.click" /></path><path d="M55.02,41.3c5.92-0.31,32.9-2.81,34.47-3.01c2.81-0.37,3.86,2.39,3.51,3.49c-0.04,2.48-0.6,30.89-0.6,47.69c0,11.98-6.28,3.79-7.53,3.07" stroke-dasharray="101.841" stroke-dashoffset="101.841"><animate attributeName="stroke-dashoffset" values="101.841" fill="freeze" begin="9914.click" /><animate attributeName="stroke-dashoffset" values="101.841;101.841;0" keyTimes="0;0.818;1" dur="4.212s" fill="freeze" begin="0s;9914.click" /></path><path d="M55.02,55.86c7.83-0.64,30.43-1.78,36.75-2.33" stroke-dasharray="36.825" stroke-dashoffset="36.825"><animate attributeName="stroke-dashoffset" values="36.825" fill="freeze" begin="9914.click" /><animate attributeName="stroke-dashoffset" values="36.825;36.825;0" keyTimes="0;0.92;1" dur="4.58s" fill="freeze" begin="0s;9914.click" /></path><path d="M55.18,71.29c5.62-0.55,30.57-1.79,37.07-2.16" stroke-dasharray="37.135" stroke-dashoffset="37.135"><animate attributeName="stroke-dashoffset" values="37.135" fill="freeze" begin="9914.click" /><animate attributeName="stroke-dashoffset" values="37.135;37.135;0" keyTimes="0;0.925;1" dur="4.951s" fill="freeze" begin="0s;9914.click" /></path><path d="M69.08,10.3c1.24,0.59,1.99,2.67,2.24,3.85c0.25,1.19,0,77.07-0.25,84.48" stroke-dasharray="89.067" stroke-dashoffset="89.067"><animate attributeName="stroke-dashoffset" values="89.067" fill="freeze" begin="9914.click" /><animate attributeName="stroke-dashoffset" values="89.067;89.067;0" keyTimes="0;0.881;1" dur="5.621s" fill="freeze" begin="0s;9914.click" /></path><path d="M81,11.25c4.12,1.46,9.97,5.48,11,7.75" stroke-dasharray="13.656" stroke-dashoffset="13.656"><animate attributeName="stroke-dashoffset" values="13.656" fill="freeze" begin="9914.click" /><animate attributeName="stroke-dashoffset" values="13.656;13.656;0" keyTimes="0;0.976;1" dur="5.758s" fill="freeze" begin="0s;9914.click" /></path></g></svg>