<svg xmlns="http://www.w3.org/2000/svg" width="109" height="109" viewBox="0 0 109 109" id="9918"><g fill="none" stroke="#666" stroke-width="9" stroke-linecap="round" stroke-linejoin="round"><g><g><path d="M28.26,12.14c0.05,0.65,0.26,1.72-0.1,2.59c-2.37,5.7-9.19,16.85-18.85,25.23" /><path d="M32.02,18.33c4.51,1.83,11.66,7.53,12.79,10.38" /><path d="M21,33.52c0.42,0.17,1.18,0.19,1.6,0.17c3.9-0.18,9.9-2.18,13.94-2.74c0.69-0.1,1.11,0.08,1.46,0.16" /><path d="M16.77,42.44c0.39,0.78,0.78,1.68,0.78,2.72c0,1.04-0.13,51.79,0,52.84" /><path d="M17.69,44.07c2.2-0.13,17.91-2.67,19.92-2.83c1.67-0.13,2.74,1.45,2.61,2.22c-0.26,1.57-1.97,18.54-2.52,22.01" /><path d="M18.08,54.73c2.97,0,17.36-2.31,20.72-2.31" /><path d="M17.94,66.06C24,65.5,30.25,64.5,37.79,64.02" /><path d="M17.89,79.06c3.73-0.25,15.96-2.17,19.57-1.99c0.97,0.04,1.56,0.07,2.05,0.14" /><path d="M17.89,91.81c3.73-0.25,14.96-1.67,18.57-1.49c0.97,0.04,1.56,0.07,2.05,0.14" /></g><g><g><path d="M66.32,11.5c0.07,0.77,0.27,2.05-0.15,3.11C63.52,21.19,57.5,35,45.71,44.32" /><path d="M66.54,13.99c4.32,5.65,24.49,24.9,28.75,29.11c1.45,1.43,3.3,2.04,4.75,2.45" /></g><g><path d="M56.5,43.18c0.63,0.26,1.78,0.3,2.41,0.26c6.07-0.43,14.01-2.72,19.11-3.06c0.94-0.06,1.51,0.12,1.98,0.25" /><path d="M46.99,59.78c1.17,0.65,3.35,0.84,4.53,0.7c12.14-1.42,25.73-3.1,37.25-3.52c2.24-0.08,3.58,0.21,4.7,0.42" /><g><path d="M68.54,44.8c0.08,0.46,1.21,2.39,1.21,5.3c0,18.93-0.25,34.76-0.25,39.52c0,10.8-5.96,1.92-7.4,0.72" /><path d="M57.23,69.75c0.04,0.38,0.17,1.04-0.08,1.54c-1.8,3.68-6.43,9.14-13.77,14.73" /><path d="M79.87,69.99c4.53,3.17,11.71,13.03,12.84,17.96" /></g></g></g></g></g><g fill="none" stroke="#000" stroke-width="5" stroke-linecap="round" stroke-linejoin="round"><g><g><path d="M28.26,12.14c0.05,0.65,0.26,1.72-0.1,2.59c-2.37,5.7-9.19,16.85-18.85,25.23" stroke-dasharray="34.35" stroke-dashoffset="34.35"><animate id="0" attributeName="stroke-dashoffset" values="34.35;0" dur="0.34s" fill="freeze" begin="0s;9918.click" /></path><path d="M32.02,18.33c4.51,1.83,11.66,7.53,12.79,10.38" stroke-dasharray="16.71" stroke-dashoffset="16.71"><animate attributeName="stroke-dashoffset" values="16.71" fill="freeze" begin="9918.click" /><animate id="1" attributeName="stroke-dashoffset" values="16.71;0" dur="0.17s" fill="freeze" begin="0.end" /></path><path d="M21,33.52c0.42,0.17,1.18,0.19,1.6,0.17c3.9-0.18,9.9-2.18,13.94-2.74c0.69-0.1,1.11,0.08,1.46,0.16" stroke-dasharray="17.32" stroke-dashoffset="17.32"><animate attributeName="stroke-dashoffset" values="17.32" fill="freeze" begin="9918.click" /><animate id="2" attributeName="stroke-dashoffset" values="17.32;0" dur="0.17s" fill="freeze" begin="1.end" /></path><path d="M16.77,42.44c0.39,0.78,0.78,1.68,0.78,2.72c0,1.04-0.13,51.79,0,52.84" stroke-dasharray="55.7" stroke-dashoffset="55.7"><animate attributeName="stroke-dashoffset" values="55.7" fill="freeze" begin="9918.click" /><animate id="3" attributeName="stroke-dashoffset" values="55.7;0" dur="0.56s" fill="freeze" begin="2.end" /></path><path d="M17.69,44.07c2.2-0.13,17.91-2.67,19.92-2.83c1.67-0.13,2.74,1.45,2.61,2.22c-0.26,1.57-1.97,18.54-2.52,22.01" stroke-dasharray="46.1" stroke-dashoffset="46.1"><animate attributeName="stroke-dashoffset" values="46.1" fill="freeze" begin="9918.click" /><animate id="4" attributeName="stroke-dashoffset" values="46.1;0" dur="0.46s" fill="freeze" begin="3.end" /></path><path d="M18.08,54.73c2.97,0,17.36-2.31,20.72-2.31" stroke-dasharray="20.86" stroke-dashoffset="20.86"><animate attributeName="stroke-dashoffset" values="20.86" fill="freeze" begin="9918.click" /><animate id="5" attributeName="stroke-dashoffset" values="20.86;0" dur="0.21s" fill="freeze" begin="4.end" /></path><path d="M17.94,66.06C24,65.5,30.25,64.5,37.79,64.02" stroke-dasharray="19.96" stroke-dashoffset="19.96"><animate attributeName="stroke-dashoffset" values="19.96" fill="freeze" begin="9918.click" /><animate id="6" attributeName="stroke-dashoffset" values="19.96;0" dur="0.2s" fill="freeze" begin="5.end" /></path><path d="M17.89,79.06c3.73-0.25,15.96-2.17,19.57-1.99c0.97,0.04,1.56,0.07,2.05,0.14" stroke-dasharray="21.74" stroke-dashoffset="21.74"><animate attributeName="stroke-dashoffset" values="21.74" fill="freeze" begin="9918.click" /><animate id="7" attributeName="stroke-dashoffset" values="21.74;0" dur="0.22s" fill="freeze" begin="6.end" /></path><path d="M17.89,91.81c3.73-0.25,14.96-1.67,18.57-1.49c0.97,0.04,1.56,0.07,2.05,0.14" stroke-dasharray="20.69" stroke-dashoffset="20.69"><animate attributeName="stroke-dashoffset" values="20.69" fill="freeze" begin="9918.click" /><animate id="8" attributeName="stroke-dashoffset" values="20.69;0" dur="0.21s" fill="freeze" begin="7.end" /></path></g><g><g><path d="M66.32,11.5c0.07,0.77,0.27,2.05-0.15,3.11C63.52,21.19,57.5,35,45.71,44.32" stroke-dasharray="39.63" stroke-dashoffset="39.63"><animate attributeName="stroke-dashoffset" values="39.63" fill="freeze" begin="9918.click" /><animate id="9" attributeName="stroke-dashoffset" values="39.63;0" dur="0.4s" fill="freeze" begin="8.end" /></path><path d="M66.54,13.99c4.32,5.65,24.49,24.9,28.75,29.11c1.45,1.43,3.3,2.04,4.75,2.45" stroke-dasharray="46.34" stroke-dashoffset="46.34"><animate attributeName="stroke-dashoffset" values="46.34" fill="freeze" begin="9918.click" /><animate id="10" attributeName="stroke-dashoffset" values="46.34;0" dur="0.46s" fill="freeze" begin="9.end" /></path></g><g><path d="M56.5,43.18c0.63,0.26,1.78,0.3,2.41,0.26c6.07-0.43,14.01-2.72,19.11-3.06c0.94-0.06,1.51,0.12,1.98,0.25" stroke-dasharray="23.81" stroke-dashoffset="23.81"><animate attributeName="stroke-dashoffset" values="23.81" fill="freeze" begin="9918.click" /><animate id="11" attributeName="stroke-dashoffset" values="23.81;0" dur="0.24s" fill="freeze" begin="10.end" /></path><path d="M46.99,59.78c1.17,0.65,3.35,0.84,4.53,0.7c12.14-1.42,25.73-3.1,37.25-3.52c2.24-0.08,3.58,0.21,4.7,0.42" stroke-dasharray="46.8" stroke-dashoffset="46.8"><animate attributeName="stroke-dashoffset" values="46.8" fill="freeze" begin="9918.click" /><animate id="12" attributeName="stroke-dashoffset" values="46.8;0" dur="0.47s" fill="freeze" begin="11.end" /></path><g><path d="M68.54,44.8c0.08,0.46,1.21,2.39,1.21,5.3c0,18.93-0.25,34.76-0.25,39.52c0,10.8-5.96,1.92-7.4,0.72" stroke-dasharray="58.38" stroke-dashoffset="58.38"><animate attributeName="stroke-dashoffset" values="58.38" fill="freeze" begin="9918.click" /><animate id="13" attributeName="stroke-dashoffset" values="58.38;0" dur="0.58s" fill="freeze" begin="12.end" /></path><path d="M57.23,69.75c0.04,0.38,0.17,1.04-0.08,1.54c-1.8,3.68-6.43,9.14-13.77,14.73" stroke-dasharray="21.88" stroke-dashoffset="21.88"><animate attributeName="stroke-dashoffset" values="21.88" fill="freeze" begin="9918.click" /><animate id="14" attributeName="stroke-dashoffset" values="21.88;0" dur="0.22s" fill="freeze" begin="13.end" /></path><path d="M79.87,69.99c4.53,3.17,11.71,13.03,12.84,17.96" stroke-dasharray="22.36" stroke-dashoffset="22.36"><animate attributeName="stroke-dashoffset" values="22.36" fill="freeze" begin="9918.click" /><animate id="15" attributeName="stroke-dashoffset" values="22.36;0" dur="0.22s" fill="freeze" begin="14.end" /></path></g></g></g></g></g></svg>