<svg xmlns="http://www.w3.org/2000/svg" width="109" height="109" viewBox="0 0 109 109" id="9928"><g fill="none" stroke="#666" stroke-width="9" stroke-linecap="round" stroke-linejoin="round"><g><g><g p5:partial xmlns:p5="http://kanjivg.tagaini.net"><path d="M33.82,12.92c0.06,0.72,0.25,1.91-0.13,2.88c-3.13,7.99-12.18,21.19-21.94,28.08" /><path d="M36.12,19.62c4.66,2.93,9.41,7.49,12.13,11.63" /><path d="M33.04,31.04c0.77,0.77,1.28,1.97,1.28,2.97c0,2.36-0.08,4.47-0.08,6.93" /><path d="M21.76,42.45c0.87,0.42,2.09,0.76,4,0.47c5.11-0.78,15.07-2.4,16.05-2.55c2.27-0.35,3.2,1.3,2.99,2.92c-0.73,5.68-1.77,17.36-2.25,23.09c-0.16,1.89-0.25,3.14-0.25,3.3" /><path d="M23.77,55.16c3.61-0.28,13.73-1.78,18.82-2.26" /><path d="M23.68,69.01c4.07-0.48,11.32-1.51,17.51-2.3" /><path d="M21.45,42.75c0.9,0.9,1.26,2.28,1.26,3.32c0,2.93-0.08,43.68-0.08,46.22c0,3.2,0.87,3.58,3.08,1.78c3.86-3.15,11.61-9.29,15.16-11.63" /><path d="M38.25,74.38c2.61,3.09,6.71,11.34,8.2,17.88" /></g></g><g p4:phon="官" xmlns:p4="http://kanjivg.tagaini.net"><g><path d="M70.2,12.54c1.01,1.01,1.85,2.21,1.85,3.71c0,3.51-0.06,8.14-0.06,10.97" /><g><path d="M54.75,29c-0.12,4.5-1.07,10.41-2.45,15.32" /><path d="M56.03,30.63c13.97-2.01,30.34-3.63,34.84-3.79c6-0.22,2.13,4.41-1.01,7.09" /></g></g><g><g><path d="M59.77,42.34c0.69,0.69,1.23,2.07,1.23,3.01c0,2.72-0.12,32.65-0.16,46.4c-0.01,2.22-0.01,4.02-0.01,5.21" /><path d="M61.81,44.25c7.09-1.22,15.84-2.71,20.33-3.35c2.13-0.3,3.53,1.02,3.15,3.12c-0.75,4.14-1.67,7.74-2.96,13.26" /><path d="M62.19,61.26c3.6-0.44,12.16-1.86,18.59-2.72c1.37-0.18,2.72-0.41,3.67-0.25" /></g><path d="M62.17,74.67c7.06-1.02,18.37-2.82,23.47-3.54c2.43-0.34,4.05,1.15,3.52,3.78c-0.8,4.02-1.92,7.59-3.48,13.55" /><path d="M61.81,91.71c4.64-0.51,15.31-1.94,23.07-2.65c1.12-0.1,2.25-0.18,3.16-0.03" /></g></g></g></g><g fill="none" stroke="#000" stroke-width="5" stroke-linecap="round" stroke-linejoin="round"><g><g><g p5:partial xmlns:p5="http://kanjivg.tagaini.net"><path d="M33.82,12.92c0.06,0.72,0.25,1.91-0.13,2.88c-3.13,7.99-12.18,21.19-21.94,28.08" stroke-dasharray="38.94" stroke-dashoffset="38.94"><animate id="0" attributeName="stroke-dashoffset" values="38.94;0" dur="0.39s" fill="freeze" begin="0s;9928.click" /></path><path d="M36.12,19.62c4.66,2.93,9.41,7.49,12.13,11.63" stroke-dasharray="16.92" stroke-dashoffset="16.92"><animate attributeName="stroke-dashoffset" values="16.92" fill="freeze" begin="9928.click" /><animate id="1" attributeName="stroke-dashoffset" values="16.92;0" dur="0.17s" fill="freeze" begin="0.end" /></path><path d="M33.04,31.04c0.77,0.77,1.28,1.97,1.28,2.97c0,2.36-0.08,4.47-0.08,6.93" stroke-dasharray="10.24" stroke-dashoffset="10.24"><animate attributeName="stroke-dashoffset" values="10.24" fill="freeze" begin="9928.click" /><animate id="2" attributeName="stroke-dashoffset" values="10.24;0" dur="0.1s" fill="freeze" begin="1.end" /></path><path d="M21.76,42.45c0.87,0.42,2.09,0.76,4,0.47c5.11-0.78,15.07-2.4,16.05-2.55c2.27-0.35,3.2,1.3,2.99,2.92c-0.73,5.68-1.77,17.36-2.25,23.09c-0.16,1.89-0.25,3.14-0.25,3.3" stroke-dasharray="51.84" stroke-dashoffset="51.84"><animate attributeName="stroke-dashoffset" values="51.84" fill="freeze" begin="9928.click" /><animate id="3" attributeName="stroke-dashoffset" values="51.84;0" dur="0.52s" fill="freeze" begin="2.end" /></path><path d="M23.77,55.16c3.61-0.28,13.73-1.78,18.82-2.26" stroke-dasharray="18.96" stroke-dashoffset="18.96"><animate attributeName="stroke-dashoffset" values="18.96" fill="freeze" begin="9928.click" /><animate id="4" attributeName="stroke-dashoffset" values="18.96;0" dur="0.19s" fill="freeze" begin="3.end" /></path><path d="M23.68,69.01c4.07-0.48,11.32-1.51,17.51-2.3" stroke-dasharray="17.66" stroke-dashoffset="17.66"><animate attributeName="stroke-dashoffset" values="17.66" fill="freeze" begin="9928.click" /><animate id="5" attributeName="stroke-dashoffset" values="17.66;0" dur="0.18s" fill="freeze" begin="4.end" /></path><path d="M21.45,42.75c0.9,0.9,1.26,2.28,1.26,3.32c0,2.93-0.08,43.68-0.08,46.22c0,3.2,0.87,3.58,3.08,1.78c3.86-3.15,11.61-9.29,15.16-11.63" stroke-dasharray="74.62" stroke-dashoffset="74.62"><animate attributeName="stroke-dashoffset" values="74.62" fill="freeze" begin="9928.click" /><animate id="6" attributeName="stroke-dashoffset" values="74.62;0" dur="0.56s" fill="freeze" begin="5.end" /></path><path d="M38.25,74.38c2.61,3.09,6.71,11.34,8.2,17.88" stroke-dasharray="19.8" stroke-dashoffset="19.8"><animate attributeName="stroke-dashoffset" values="19.8" fill="freeze" begin="9928.click" /><animate id="7" attributeName="stroke-dashoffset" values="19.8;0" dur="0.2s" fill="freeze" begin="6.end" /></path></g></g><g p4:phon="官" xmlns:p4="http://kanjivg.tagaini.net"><g><path d="M70.2,12.54c1.01,1.01,1.85,2.21,1.85,3.71c0,3.51-0.06,8.14-0.06,10.97" stroke-dasharray="15.23" stroke-dashoffset="15.23"><animate attributeName="stroke-dashoffset" values="15.23" fill="freeze" begin="9928.click" /><animate id="8" attributeName="stroke-dashoffset" values="15.23;0" dur="0.15s" fill="freeze" begin="7.end" /></path><g><path d="M54.75,29c-0.12,4.5-1.07,10.41-2.45,15.32" stroke-dasharray="15.55" stroke-dashoffset="15.55"><animate attributeName="stroke-dashoffset" values="15.55" fill="freeze" begin="9928.click" /><animate id="9" attributeName="stroke-dashoffset" values="15.55;0" dur="0.16s" fill="freeze" begin="8.end" /></path><path d="M56.03,30.63c13.97-2.01,30.34-3.63,34.84-3.79c6-0.22,2.13,4.41-1.01,7.09" stroke-dasharray="46.07" stroke-dashoffset="46.07"><animate attributeName="stroke-dashoffset" values="46.07" fill="freeze" begin="9928.click" /><animate id="10" attributeName="stroke-dashoffset" values="46.07;0" dur="0.46s" fill="freeze" begin="9.end" /></path></g></g><g><g><path d="M59.77,42.34c0.69,0.69,1.23,2.07,1.23,3.01c0,2.72-0.12,32.65-0.16,46.4c-0.01,2.22-0.01,4.02-0.01,5.21" stroke-dasharray="54.93" stroke-dashoffset="54.93"><animate attributeName="stroke-dashoffset" values="54.93" fill="freeze" begin="9928.click" /><animate id="11" attributeName="stroke-dashoffset" values="54.93;0" dur="0.55s" fill="freeze" begin="10.end" /></path><path d="M61.81,44.25c7.09-1.22,15.84-2.71,20.33-3.35c2.13-0.3,3.53,1.02,3.15,3.12c-0.75,4.14-1.67,7.74-2.96,13.26" stroke-dasharray="39.53" stroke-dashoffset="39.53"><animate attributeName="stroke-dashoffset" values="39.53" fill="freeze" begin="9928.click" /><animate id="12" attributeName="stroke-dashoffset" values="39.53;0" dur="0.4s" fill="freeze" begin="11.end" /></path><path d="M62.19,61.26c3.6-0.44,12.16-1.86,18.59-2.72c1.37-0.18,2.72-0.41,3.67-0.25" stroke-dasharray="22.48" stroke-dashoffset="22.48"><animate attributeName="stroke-dashoffset" values="22.48" fill="freeze" begin="9928.click" /><animate id="13" attributeName="stroke-dashoffset" values="22.48;0" dur="0.22s" fill="freeze" begin="12.end" /></path></g><path d="M62.17,74.67c7.06-1.02,18.37-2.82,23.47-3.54c2.43-0.34,4.05,1.15,3.52,3.78c-0.8,4.02-1.92,7.59-3.48,13.55" stroke-dasharray="44.01" stroke-dashoffset="44.01"><animate attributeName="stroke-dashoffset" values="44.01" fill="freeze" begin="9928.click" /><animate id="14" attributeName="stroke-dashoffset" values="44.01;0" dur="0.44s" fill="freeze" begin="13.end" /></path><path d="M61.81,91.71c4.64-0.51,15.31-1.94,23.07-2.65c1.12-0.1,2.25-0.18,3.16-0.03" stroke-dasharray="26.39" stroke-dashoffset="26.39"><animate attributeName="stroke-dashoffset" values="26.39" fill="freeze" begin="9928.click" /><animate id="15" attributeName="stroke-dashoffset" values="26.39;0" dur="0.26s" fill="freeze" begin="14.end" /></path></g></g></g></g></svg>