<svg xmlns="http://www.w3.org/2000/svg" width="109" height="109" viewBox="0 0 109 109" id="9957"><g fill="none" stroke="#666" stroke-width="9" stroke-linecap="round" stroke-linejoin="round"><g><g><g><g><path d="M26.46,10.87c0,0.88-0.52,1.91-1.17,2.76c-2.96,3.85-3.78,4.83-7.24,8.42c-1.32,1.37-0.89,2.42,0.83,2.91c2.37,0.67,5.12,1.79,7.05,2.8" /><path d="M36.53,17.9c0,0.6-0.04,1.33-0.71,2c-4.3,4.33-10.73,10.78-16.51,15.58c-1.62,1.35-0.89,2.69,1.09,2.33c5.72-1.05,7.97-1.3,13.39-2.37" /><path d="M36.24,28.66c0.26,0.84,0.31,1.48,0.19,2.31c-0.73,5.32-4.69,15.9-16.02,21.86" /></g><g p6:partial xmlns:p6="http://kanjivg.tagaini.net"><path d="M 45.37,14.31 c 0.66,0.66 0.7,1.57 0.7,2.64 0,2.8 -0.07,28.630417 -0.07,31.040417" /><path d="M 44.1,13.42 c 1.14,0.51 1.98,0.43 3.28,0.2 5.74,-0.99 14.38,-1.98 15.35,-2.07 2.18,-0.2 2.83,0.74 2.63,1.67 -0.135208,4.537083 -0.504583,7.287083 -0.83625,12.743542" /><path d="M 47.054167,19.82625 c 1.92,0 12.85,-1.27 16.4,-1.69" /><path d="M 47.645417,27.160833 c 3.9,-0.27 11.04,-1.06 15.39,-1.57" /><path d="M 47.758958,34 c 3.9,-0.27 13.424375,-1.06 17.774375,-1.57" /><path d="M 47.19125,40.838542 c 3.9,-0.27 14.105625,-1.06 18.455625,-1.57" /></g></g><g><path d="M73.56,14.38c0.94,0.12,1.62,0.34,2.42,0.27c4.54-0.44,9.9-1.63,12.06-2.07c3.21-0.66,3.7,0.99,2.23,2.83c-1.76,2.21-5.49,7.28-7.17,8.76" /><path d="M83.5,24.16c13.5,6.84,10.25,24.09,0.67,18" /><path d="M74.37,15.14c0.81,0.81,0.96,1.73,0.96,2.88c0,4.08,0.02,16.47,0.03,24.98c0,3.17,0.01,5.79,0.01,7.25" /></g></g><g><path d="M52.5,48c-0.12,1.25-0.31,1.8-0.97,2.59c-5.39,6.5-21.2,16.08-38.03,21.69" /><path d="M53.38,51.62c4.55,2.45,19.69,9.31,28.81,12.93c3.93,1.3,7.46,2.73,11.57,3.27" /><path d="M 46.85,62 c 0.36,0.15 1.02,0.19 1.39,0.15 2.3,-0.25 9.959583,-2.17 12.189583,-2 0.6,0.05 0.96,0.07 1.27,0.14" /><path d="M35.44,69.37c1.93,0.64,3.87,0.75,5.82,0.31c7.2-0.83,19.93-2.2,24.97-2.7c3.23-0.32,4.79,0.92,4.33,3.41c-0.39,2.13-0.8,4.51-1.4,7.5c-0.27,1.37-0.59,2.87-0.96,4.54" /><path d="M39.08,76.42c10.54-0.92,19.54-1.92,29.67-2.59" /><path d="M39.19,83.23c7.93-0.85,20.56-1.99,28.1-2.22" /><path d="M37,70.22c0.83,0.83,1,1.78,1,2.7c0,3.08,0,21.58,0,23.89c0,2.85,0.8,2.9,2.75,2.06c4.38-1.88,10.43-4.25,12.5-5.37" /><path d="M76.02,82.04c-0.15,1.33-0.65,1.96-1.77,2.74c-1.83,1.27-4.75,3.22-8.5,5.34" /><path d="M50.5,86.75c3.18,0,16.91,7.47,23.05,10.3c2.57,1.19,5.38,2.04,8.2,2.36" /></g></g></g><g fill="none" stroke="#000" stroke-width="5" stroke-linecap="round" stroke-linejoin="round"><g><g><g><g><path d="M26.46,10.87c0,0.88-0.52,1.91-1.17,2.76c-2.96,3.85-3.78,4.83-7.24,8.42c-1.32,1.37-0.89,2.42,0.83,2.91c2.37,0.67,5.12,1.79,7.05,2.8" stroke-dasharray="25.77" stroke-dashoffset="25.77"><animate id="0" attributeName="stroke-dashoffset" values="25.77;0" dur="0.26s" fill="freeze" begin="0s;9957.click" /></path><path d="M36.53,17.9c0,0.6-0.04,1.33-0.71,2c-4.3,4.33-10.73,10.78-16.51,15.58c-1.62,1.35-0.89,2.69,1.09,2.33c5.72-1.05,7.97-1.3,13.39-2.37" stroke-dasharray="42.72" stroke-dashoffset="42.72"><animate attributeName="stroke-dashoffset" values="42.72" fill="freeze" begin="9957.click" /><animate id="1" attributeName="stroke-dashoffset" values="42.72;0" dur="0.43s" fill="freeze" begin="0.end" /></path><path d="M36.24,28.66c0.26,0.84,0.31,1.48,0.19,2.31c-0.73,5.32-4.69,15.9-16.02,21.86" stroke-dasharray="30.43" stroke-dashoffset="30.43"><animate attributeName="stroke-dashoffset" values="30.43" fill="freeze" begin="9957.click" /><animate id="2" attributeName="stroke-dashoffset" values="30.43;0" dur="0.3s" fill="freeze" begin="1.end" /></path></g><g p6:partial xmlns:p6="http://kanjivg.tagaini.net"><path d="M 45.37,14.31 c 0.66,0.66 0.7,1.57 0.7,2.64 0,2.8 -0.07,28.630417 -0.07,31.040417" stroke-dasharray="33.85" stroke-dashoffset="33.85"><animate attributeName="stroke-dashoffset" values="33.85" fill="freeze" begin="9957.click" /><animate id="3" attributeName="stroke-dashoffset" values="33.85;0" dur="0.34s" fill="freeze" begin="2.end" /></path><path d="M 44.1,13.42 c 1.14,0.51 1.98,0.43 3.28,0.2 5.74,-0.99 14.38,-1.98 15.35,-2.07 2.18,-0.2 2.83,0.74 2.63,1.67 -0.135208,4.537083 -0.504583,7.287083 -0.83625,12.743542" stroke-dasharray="35.31" stroke-dashoffset="35.31"><animate attributeName="stroke-dashoffset" values="35.31" fill="freeze" begin="9957.click" /><animate id="4" attributeName="stroke-dashoffset" values="35.31;0" dur="0.35s" fill="freeze" begin="3.end" /></path><path d="M 47.054167,19.82625 c 1.92,0 12.85,-1.27 16.4,-1.69" stroke-dasharray="16.49" stroke-dashoffset="16.49"><animate attributeName="stroke-dashoffset" values="16.49" fill="freeze" begin="9957.click" /><animate id="5" attributeName="stroke-dashoffset" values="16.49;0" dur="0.16s" fill="freeze" begin="4.end" /></path><path d="M 47.645417,27.160833 c 3.9,-0.27 11.04,-1.06 15.39,-1.57" stroke-dasharray="15.47" stroke-dashoffset="15.47"><animate attributeName="stroke-dashoffset" values="15.47" fill="freeze" begin="9957.click" /><animate id="6" attributeName="stroke-dashoffset" values="15.47;0" dur="0.15s" fill="freeze" begin="5.end" /></path><path d="M 47.758958,34 c 3.9,-0.27 13.424375,-1.06 17.774375,-1.57" stroke-dasharray="17.84" stroke-dashoffset="17.84"><animate attributeName="stroke-dashoffset" values="17.84" fill="freeze" begin="9957.click" /><animate id="7" attributeName="stroke-dashoffset" values="17.84;0" dur="0.18s" fill="freeze" begin="6.end" /></path><path d="M 47.19125,40.838542 c 3.9,-0.27 14.105625,-1.06 18.455625,-1.57" stroke-dasharray="18.52" stroke-dashoffset="18.52"><animate attributeName="stroke-dashoffset" values="18.52" fill="freeze" begin="9957.click" /><animate id="8" attributeName="stroke-dashoffset" values="18.52;0" dur="0.19s" fill="freeze" begin="7.end" /></path></g></g><g><path d="M73.56,14.38c0.94,0.12,1.62,0.34,2.42,0.27c4.54-0.44,9.9-1.63,12.06-2.07c3.21-0.66,3.7,0.99,2.23,2.83c-1.76,2.21-5.49,7.28-7.17,8.76" stroke-dasharray="31.67" stroke-dashoffset="31.67"><animate attributeName="stroke-dashoffset" values="31.67" fill="freeze" begin="9957.click" /><animate id="9" attributeName="stroke-dashoffset" values="31.67;0" dur="0.32s" fill="freeze" begin="8.end" /></path><path d="M83.5,24.16c13.5,6.84,10.25,24.09,0.67,18" stroke-dasharray="29.35" stroke-dashoffset="29.35"><animate attributeName="stroke-dashoffset" values="29.35" fill="freeze" begin="9957.click" /><animate id="10" attributeName="stroke-dashoffset" values="29.35;0" dur="0.29s" fill="freeze" begin="9.end" /></path><path d="M74.37,15.14c0.81,0.81,0.96,1.73,0.96,2.88c0,4.08,0.02,16.47,0.03,24.98c0,3.17,0.01,5.79,0.01,7.25" stroke-dasharray="35.36" stroke-dashoffset="35.36"><animate attributeName="stroke-dashoffset" values="35.36" fill="freeze" begin="9957.click" /><animate id="11" attributeName="stroke-dashoffset" values="35.36;0" dur="0.35s" fill="freeze" begin="10.end" /></path></g></g><g><path d="M52.5,48c-0.12,1.25-0.31,1.8-0.97,2.59c-5.39,6.5-21.2,16.08-38.03,21.69" stroke-dasharray="47" stroke-dashoffset="47"><animate attributeName="stroke-dashoffset" values="47" fill="freeze" begin="9957.click" /><animate id="12" attributeName="stroke-dashoffset" values="47;0" dur="0.47s" fill="freeze" begin="11.end" /></path><path d="M53.38,51.62c4.55,2.45,19.69,9.31,28.81,12.93c3.93,1.3,7.46,2.73,11.57,3.27" stroke-dasharray="43.63" stroke-dashoffset="43.63"><animate attributeName="stroke-dashoffset" values="43.63" fill="freeze" begin="9957.click" /><animate id="13" attributeName="stroke-dashoffset" values="43.63;0" dur="0.44s" fill="freeze" begin="12.end" /></path><path d="M 46.85,62 c 0.36,0.15 1.02,0.19 1.39,0.15 2.3,-0.25 9.959583,-2.17 12.189583,-2 0.6,0.05 0.96,0.07 1.27,0.14" stroke-dasharray="15.06" stroke-dashoffset="15.06"><animate attributeName="stroke-dashoffset" values="15.06" fill="freeze" begin="9957.click" /><animate id="14" attributeName="stroke-dashoffset" values="15.06;0" dur="0.15s" fill="freeze" begin="13.end" /></path><path d="M35.44,69.37c1.93,0.64,3.87,0.75,5.82,0.31c7.2-0.83,19.93-2.2,24.97-2.7c3.23-0.32,4.79,0.92,4.33,3.41c-0.39,2.13-0.8,4.51-1.4,7.5c-0.27,1.37-0.59,2.87-0.96,4.54" stroke-dasharray="50.01" stroke-dashoffset="50.01"><animate attributeName="stroke-dashoffset" values="50.01" fill="freeze" begin="9957.click" /><animate id="15" attributeName="stroke-dashoffset" values="50.01;0" dur="0.5s" fill="freeze" begin="14.end" /></path><path d="M39.08,76.42c10.54-0.92,19.54-1.92,29.67-2.59" stroke-dasharray="29.78" stroke-dashoffset="29.78"><animate attributeName="stroke-dashoffset" values="29.78" fill="freeze" begin="9957.click" /><animate id="16" attributeName="stroke-dashoffset" values="29.78;0" dur="0.3s" fill="freeze" begin="15.end" /></path><path d="M39.19,83.23c7.93-0.85,20.56-1.99,28.1-2.22" stroke-dasharray="28.19" stroke-dashoffset="28.19"><animate attributeName="stroke-dashoffset" values="28.19" fill="freeze" begin="9957.click" /><animate id="17" attributeName="stroke-dashoffset" values="28.19;0" dur="0.28s" fill="freeze" begin="16.end" /></path><path d="M37,70.22c0.83,0.83,1,1.78,1,2.7c0,3.08,0,21.58,0,23.89c0,2.85,0.8,2.9,2.75,2.06c4.38-1.88,10.43-4.25,12.5-5.37" stroke-dasharray="45.26" stroke-dashoffset="45.26"><animate attributeName="stroke-dashoffset" values="45.26" fill="freeze" begin="9957.click" /><animate id="18" attributeName="stroke-dashoffset" values="45.26;0" dur="0.45s" fill="freeze" begin="17.end" /></path><path d="M76.02,82.04c-0.15,1.33-0.65,1.96-1.77,2.74c-1.83,1.27-4.75,3.22-8.5,5.34" stroke-dasharray="13.44" stroke-dashoffset="13.44"><animate attributeName="stroke-dashoffset" values="13.44" fill="freeze" begin="9957.click" /><animate id="19" attributeName="stroke-dashoffset" values="13.44;0" dur="0.13s" fill="freeze" begin="18.end" /></path><path d="M50.5,86.75c3.18,0,16.91,7.47,23.05,10.3c2.57,1.19,5.38,2.04,8.2,2.36" stroke-dasharray="33.88" stroke-dashoffset="33.88"><animate attributeName="stroke-dashoffset" values="33.88" fill="freeze" begin="9957.click" /><animate id="20" attributeName="stroke-dashoffset" values="33.88;0" dur="0.34s" fill="freeze" begin="19.end" /></path></g></g></g></svg>