<svg xmlns="http://www.w3.org/2000/svg" viewBox="0 0 109 109" id="9998"><g fill="none" stroke="#666" stroke-width="6" stroke-linecap="round" stroke-linejoin="round"><g><g><g><path d="M14.57,16.7c2.76,2.28,7.13,9.39,7.81,12.94" /><path d="M38.17,17.25c0.02,0.32,0.04,0.82-0.04,1.27c-0.48,2.69-3.22,8.58-6.97,12.18" /><path d="M10.81,34.86c0.96,0.48,2.73,0.56,3.69,0.48c10.02-0.8,10.82-1.33,26.08-1.73c1.6-0.04,2.57,0.23,3.37,0.47" /></g><g><path d="M26.5,35.28c0.28,0.12-0.26,2.14-0.43,2.49c-1.14,2.36-2.3,5.57-4.98,8.68" /><g><path d="M14.62,47.59c0.36,0.95,0.87,1.66,0.87,2.92c0,1.27-0.12,39.63,0,40.89" /><path d="M16.09,49.69c2.01-0.16,16.83-3.12,18.66-3.31c1.53-0.16,2.73,0.89,2.6,2.06c-0.17,1.49-0.59,40.64-0.71,41.58" /><path d="M16.05,60.37c3.96-0.21,16.98-1.88,20.2-1.88" /><path d="M16.22,72.78c5.33-0.53,14.63-1.77,19.8-1.77" /><path d="M16.41,87.89c4,0,14-1.22,19.17-1.22" /></g></g></g><g><g><g><path d="M48.5,33.66c1,0.18,2.83,0.25,3.82,0.18c7.66-0.58,29.13-2.64,38.1-2.89c1.66-0.05,2.65,0.09,3.48,0.18" /></g></g><g><path d="M47.34,45.74c0.23,0.31,0.5,0.55,0.57,0.96c0.66,3.56,2.5,11.82,3.17,17.05" /><path d="M48.79,46.83c4.29-0.75,10.46-1.33,15.94-2.47c0.99-0.2,1.59,0.88,1.45,1.75c-0.59,3.6-1.11,7.38-2.16,13.37" /><path d="M51.56,61.88c3.2-0.46,9.06-1.25,13.46-1.95" /></g><g><path d="M45.75,77.82c0.58,0.68,1.75,1.05,3.5,0.15c4.87-2.5,13.63-6.96,18.49-9.46" /></g><g><g><path d="M68.58,14.5c1.15,1.72,1.53,2.2,1.86,5.91C73,49,81.75,81,94.51,92.77c4.26,3.93,3.87,0.74,3.3-6.89" /></g><g><path d="M88.19,42.39c0.09,1.12,0.19,2.89-0.18,4.5c-2.17,9.48-14.76,33.36-31.65,44.08" /></g><g><g><path d="M80.16,16c3.18,1.9,8.27,6.24,9.75,9.5" /></g></g></g></g></g></g><g fill="none" stroke="#000" stroke-width="3" stroke-linecap="round" stroke-linejoin="round"><path d="M14.57,16.7c2.76,2.28,7.13,9.39,7.81,12.94" stroke-dasharray="15.286" stroke-dashoffset="15.286"><animate attributeName="stroke-dashoffset" values="15.286;15.286;0" dur="0.153s" fill="freeze" begin="0s;9998.click" /></path><path d="M38.17,17.25c0.02,0.32,0.04,0.82-0.04,1.27c-0.48,2.69-3.22,8.58-6.97,12.18" stroke-dasharray="15.476" stroke-dashoffset="15.476"><animate attributeName="stroke-dashoffset" values="15.476" fill="freeze" begin="9998.click" /><animate attributeName="stroke-dashoffset" values="15.476;15.476;0" keyTimes="0;0.497;1" dur="0.308s" fill="freeze" begin="0s;9998.click" /></path><path d="M10.81,34.86c0.96,0.48,2.73,0.56,3.69,0.48c10.02-0.8,10.82-1.33,26.08-1.73c1.6-0.04,2.57,0.23,3.37,0.47" stroke-dasharray="33.322" stroke-dashoffset="33.322"><animate attributeName="stroke-dashoffset" values="33.322" fill="freeze" begin="9998.click" /><animate attributeName="stroke-dashoffset" values="33.322;33.322;0" keyTimes="0;0.48;1" dur="0.641s" fill="freeze" begin="0s;9998.click" /></path><path d="M26.5,35.28c0.28,0.12-0.26,2.14-0.43,2.49c-1.14,2.36-2.3,5.57-4.98,8.68" stroke-dasharray="12.628" stroke-dashoffset="12.628"><animate attributeName="stroke-dashoffset" values="12.628" fill="freeze" begin="9998.click" /><animate attributeName="stroke-dashoffset" values="12.628;12.628;0" keyTimes="0;0.836;1" dur="0.767s" fill="freeze" begin="0s;9998.click" /></path><path d="M14.62,47.59c0.36,0.95,0.87,1.66,0.87,2.92c0,1.27-0.12,39.63,0,40.89" stroke-dasharray="43.965" stroke-dashoffset="43.965"><animate attributeName="stroke-dashoffset" values="43.965" fill="freeze" begin="9998.click" /><animate attributeName="stroke-dashoffset" values="43.965;43.965;0" keyTimes="0;0.635;1" dur="1.207s" fill="freeze" begin="0s;9998.click" /></path><path d="M16.09,49.69c2.01-0.16,16.83-3.12,18.66-3.31c1.53-0.16,2.73,0.89,2.6,2.06c-0.17,1.49-0.59,40.64-0.71,41.58" stroke-dasharray="64.333" stroke-dashoffset="64.333"><animate attributeName="stroke-dashoffset" values="64.333" fill="freeze" begin="9998.click" /><animate attributeName="stroke-dashoffset" values="64.333;64.333;0" keyTimes="0;0.714;1" dur="1.691s" fill="freeze" begin="0s;9998.click" /></path><path d="M16.05,60.37c3.96-0.21,16.98-1.88,20.2-1.88" stroke-dasharray="20.292" stroke-dashoffset="20.292"><animate attributeName="stroke-dashoffset" values="20.292" fill="freeze" begin="9998.click" /><animate attributeName="stroke-dashoffset" values="20.292;20.292;0" keyTimes="0;0.893;1" dur="1.894s" fill="freeze" begin="0s;9998.click" /></path><path d="M16.22,72.78c5.33-0.53,14.63-1.77,19.8-1.77" stroke-dasharray="19.888" stroke-dashoffset="19.888"><animate attributeName="stroke-dashoffset" values="19.888" fill="freeze" begin="9998.click" /><animate attributeName="stroke-dashoffset" values="19.888;19.888;0" keyTimes="0;0.905;1" dur="2.093s" fill="freeze" begin="0s;9998.click" /></path><path d="M16.41,87.89c4,0,14-1.22,19.17-1.22" stroke-dasharray="19.214" stroke-dashoffset="19.214"><animate attributeName="stroke-dashoffset" values="19.214" fill="freeze" begin="9998.click" /><animate attributeName="stroke-dashoffset" values="19.214;19.214;0" keyTimes="0;0.916;1" dur="2.285s" fill="freeze" begin="0s;9998.click" /></path><path d="M48.5,33.66c1,0.18,2.83,0.25,3.82,0.18c7.66-0.58,29.13-2.64,38.1-2.89c1.66-0.05,2.65,0.09,3.48,0.18" stroke-dasharray="45.533" stroke-dashoffset="45.533"><animate attributeName="stroke-dashoffset" values="45.533" fill="freeze" begin="9998.click" /><animate attributeName="stroke-dashoffset" values="45.533;45.533;0" keyTimes="0;0.834;1" dur="2.74s" fill="freeze" begin="0s;9998.click" /></path><path d="M47.34,45.74c0.23,0.31,0.5,0.55,0.57,0.96c0.66,3.56,2.5,11.82,3.17,17.05" stroke-dasharray="18.477" stroke-dashoffset="18.477"><animate attributeName="stroke-dashoffset" values="18.477" fill="freeze" begin="9998.click" /><animate attributeName="stroke-dashoffset" values="18.477;18.477;0" keyTimes="0;0.937;1" dur="2.925s" fill="freeze" begin="0s;9998.click" /></path><path d="M48.79,46.83c4.29-0.75,10.46-1.33,15.94-2.47c0.99-0.2,1.59,0.88,1.45,1.75c-0.59,3.6-1.11,7.38-2.16,13.37" stroke-dasharray="32.34" stroke-dashoffset="32.34"><animate attributeName="stroke-dashoffset" values="32.34" fill="freeze" begin="9998.click" /><animate attributeName="stroke-dashoffset" values="32.34;32.34;0" keyTimes="0;0.901;1" dur="3.248s" fill="freeze" begin="0s;9998.click" /></path><path d="M51.56,61.88c3.2-0.46,9.06-1.25,13.46-1.95" stroke-dasharray="13.602" stroke-dashoffset="13.602"><animate attributeName="stroke-dashoffset" values="13.602" fill="freeze" begin="9998.click" /><animate attributeName="stroke-dashoffset" values="13.602;13.602;0" keyTimes="0;0.96;1" dur="3.384s" fill="freeze" begin="0s;9998.click" /></path><path d="M45.75,77.82c0.58,0.68,1.75,1.05,3.5,0.15c4.87-2.5,13.63-6.96,18.49-9.46" stroke-dasharray="24.559" stroke-dashoffset="24.559"><animate attributeName="stroke-dashoffset" values="24.559" fill="freeze" begin="9998.click" /><animate attributeName="stroke-dashoffset" values="24.559;24.559;0" keyTimes="0;0.932;1" dur="3.63s" fill="freeze" begin="0s;9998.click" /></path><path d="M68.58,14.5c1.15,1.72,1.53,2.2,1.86,5.91C73,49,81.75,81,94.51,92.77c4.26,3.93,3.87,0.74,3.3-6.89" stroke-dasharray="96.049" stroke-dashoffset="96.049"><animate attributeName="stroke-dashoffset" values="96.049" fill="freeze" begin="9998.click" /><animate attributeName="stroke-dashoffset" values="96.049;96.049;0" keyTimes="0;0.834;1" dur="4.352s" fill="freeze" begin="0s;9998.click" /></path><path d="M88.19,42.39c0.09,1.12,0.19,2.89-0.18,4.5c-2.17,9.48-14.76,33.36-31.65,44.08" stroke-dasharray="59.773" stroke-dashoffset="59.773"><animate attributeName="stroke-dashoffset" values="59.773" fill="freeze" begin="9998.click" /><animate attributeName="stroke-dashoffset" values="59.773;59.773;0" keyTimes="0;0.879;1" dur="4.95s" fill="freeze" begin="0s;9998.click" /></path><path d="M80.16,16c3.18,1.9,8.27,6.24,9.75,9.5" stroke-dasharray="13.76" stroke-dashoffset="13.76"><animate attributeName="stroke-dashoffset" values="13.76" fill="freeze" begin="9998.click" /><animate attributeName="stroke-dashoffset" values="13.76;13.76;0" keyTimes="0;0.973;1" dur="5.088s" fill="freeze" begin="0s;9998.click" /></path></g></svg>