<svg xmlns="http://www.w3.org/2000/svg" width="109" height="109" viewBox="0 0 109 109" id="99b4"><g fill="none" stroke="#666" stroke-width="6" stroke-linecap="round" stroke-linejoin="round"><g><g><path d="M16.39,19.1c-0.01,5.12,0.3,37.38-0.44,40.36" /><path d="M14.24,18.88c0.76-0.02,3.11,0.44,4.11,0.37c7.44-0.52,18.92-2.31,21.17-2.66c0.89-0.14,2.41-0.24,2.86-0.03" /><path d="M28.36,19.3c0.24,0.37,0.91,0.87,0.91,1.48c-0.02,6.13-0.06,27.78-0.24,37.42" /><path d="M16.79,32.48C22.75,31.9,34.1,30.4,36.65,30c0.89-0.14,2.41-0.24,2.86-0.02" /><path d="M16.88,44.43c5.96-0.58,19.28-2.08,21.84-2.47c0.89-0.14,2.41-0.24,2.86-0.03" /><path d="M16.65,59.86c6.35-1.11,20.49-3.01,23.72-3.6c4.12-0.76,3.99,2.79,3.76,6.41c-0.64,10.28-2.3,21.69-5.35,28.35c-2.62,5.71-5.06,0.41-5.92-0.85" /><g><path d="M13.75,73.62c0,4.38-1,10.13-1.83,13.24" /><path d="M19.99,72.13c1.22,2.09,2.26,4.72,2.54,8.45" /><path d="M27.1,69.38c0.53,1.02,2.44,4.39,2.67,7.73" /><path d="M33.56,66.93c1.19,2,3.14,4.06,3.57,6.71" /></g></g><g><path d="M57.05,19.43c0.72,1.88,0.86,4.57,0.86,6.54c0,45.18-2.66,55.46-13.66,67.53" /><path d="M72.25,19.13c0.43,0.36,1.33,2.69,1.41,3.4c0.09,0.72-0.05,51.86-0.14,56.35" /><path d="M89.31,13.13c0.76,0.45,2.36,3.35,2.51,4.25c0.15,0.9-0.1,72.15-0.25,77.75" /></g></g></g><g fill="none" stroke="#000" stroke-width="3" stroke-linecap="round" stroke-linejoin="round"><path d="M16.39,19.1c-0.01,5.12,0.3,37.38-0.44,40.36" stroke-dasharray="40.378" stroke-dashoffset="40.378"><animate attributeName="stroke-dashoffset" values="40.378;40.378;0" dur="0.404s" fill="freeze" begin="0s;99b4.click" /></path><path d="M14.24,18.88c0.76-0.02,3.11,0.44,4.11,0.37c7.44-0.52,18.92-2.31,21.17-2.66c0.89-0.14,2.41-0.24,2.86-0.03" stroke-dasharray="28.355" stroke-dashoffset="28.355"><animate attributeName="stroke-dashoffset" values="28.355" fill="freeze" begin="99b4.click" /><animate attributeName="stroke-dashoffset" values="28.355;28.355;0" keyTimes="0;0.587;1" dur="0.688s" fill="freeze" begin="0s;99b4.click" /></path><path d="M28.36,19.3c0.24,0.37,0.91,0.87,0.91,1.48c-0.02,6.13-0.06,27.78-0.24,37.42" stroke-dasharray="39.195" stroke-dashoffset="39.195"><animate attributeName="stroke-dashoffset" values="39.195" fill="freeze" begin="99b4.click" /><animate attributeName="stroke-dashoffset" values="39.195;39.195;0" keyTimes="0;0.637;1" dur="1.08s" fill="freeze" begin="0s;99b4.click" /></path><path d="M16.79,32.48C22.75,31.9,34.1,30.4,36.65,30c0.89-0.14,2.41-0.24,2.86-0.02" stroke-dasharray="22.899" stroke-dashoffset="22.899"><animate attributeName="stroke-dashoffset" values="22.899" fill="freeze" begin="99b4.click" /><animate attributeName="stroke-dashoffset" values="22.899;22.899;0" keyTimes="0;0.825;1" dur="1.309s" fill="freeze" begin="0s;99b4.click" /></path><path d="M16.88,44.43c5.96-0.58,19.28-2.08,21.84-2.47c0.89-0.14,2.41-0.24,2.86-0.03" stroke-dasharray="24.862" stroke-dashoffset="24.862"><animate attributeName="stroke-dashoffset" values="24.862" fill="freeze" begin="99b4.click" /><animate attributeName="stroke-dashoffset" values="24.862;24.862;0" keyTimes="0;0.84;1" dur="1.558s" fill="freeze" begin="0s;99b4.click" /></path><path d="M16.65,59.86c6.35-1.11,20.49-3.01,23.72-3.6c4.12-0.76,3.99,2.79,3.76,6.41c-0.64,10.28-2.3,21.69-5.35,28.35c-2.62,5.71-5.06,0.41-5.92-0.85" stroke-dasharray="70.945" stroke-dashoffset="70.945"><animate attributeName="stroke-dashoffset" values="70.945" fill="freeze" begin="99b4.click" /><animate attributeName="stroke-dashoffset" values="70.945;70.945;0" keyTimes="0;0.745;1" dur="2.091s" fill="freeze" begin="0s;99b4.click" /></path><path d="M13.75,73.62c0,4.38-1,10.13-1.83,13.24" stroke-dasharray="13.397" stroke-dashoffset="13.397"><animate attributeName="stroke-dashoffset" values="13.397" fill="freeze" begin="99b4.click" /><animate attributeName="stroke-dashoffset" values="13.397;13.397;0" keyTimes="0;0.94;1" dur="2.225s" fill="freeze" begin="0s;99b4.click" /></path><path d="M19.99,72.13c1.22,2.09,2.26,4.72,2.54,8.45" stroke-dasharray="8.905" stroke-dashoffset="8.905"><animate attributeName="stroke-dashoffset" values="8.905" fill="freeze" begin="99b4.click" /><animate attributeName="stroke-dashoffset" values="8.905;8.905;0" keyTimes="0;0.962;1" dur="2.314s" fill="freeze" begin="0s;99b4.click" /></path><path d="M27.1,69.38c0.53,1.02,2.44,4.39,2.67,7.73" stroke-dasharray="8.24" stroke-dashoffset="8.24"><animate attributeName="stroke-dashoffset" values="8.24" fill="freeze" begin="99b4.click" /><animate attributeName="stroke-dashoffset" values="8.24;8.24;0" keyTimes="0;0.966;1" dur="2.396s" fill="freeze" begin="0s;99b4.click" /></path><path d="M33.56,66.93c1.19,2,3.14,4.06,3.57,6.71" stroke-dasharray="7.664" stroke-dashoffset="7.664"><animate attributeName="stroke-dashoffset" values="7.664" fill="freeze" begin="99b4.click" /><animate attributeName="stroke-dashoffset" values="7.664;7.664;0" keyTimes="0;0.969;1" dur="2.473s" fill="freeze" begin="0s;99b4.click" /></path><path d="M57.05,19.43c0.72,1.88,0.86,4.57,0.86,6.54c0,45.18-2.66,55.46-13.66,67.53" stroke-dasharray="77.296" stroke-dashoffset="77.296"><animate attributeName="stroke-dashoffset" values="77.296" fill="freeze" begin="99b4.click" /><animate attributeName="stroke-dashoffset" values="77.296;77.296;0" keyTimes="0;0.81;1" dur="3.054s" fill="freeze" begin="0s;99b4.click" /></path><path d="M72.25,19.13c0.43,0.36,1.33,2.69,1.41,3.4c0.09,0.72-0.05,51.86-0.14,56.35" stroke-dasharray="60.062" stroke-dashoffset="60.062"><animate attributeName="stroke-dashoffset" values="60.062" fill="freeze" begin="99b4.click" /><animate attributeName="stroke-dashoffset" values="60.062;60.062;0" keyTimes="0;0.871;1" dur="3.506s" fill="freeze" begin="0s;99b4.click" /></path><path d="M89.31,13.13c0.76,0.45,2.36,3.35,2.51,4.25c0.15,0.9-0.1,72.15-0.25,77.75" stroke-dasharray="82.746" stroke-dashoffset="82.746"><animate attributeName="stroke-dashoffset" values="82.746" fill="freeze" begin="99b4.click" /><animate attributeName="stroke-dashoffset" values="82.746;82.746;0" keyTimes="0;0.849;1" dur="4.128s" fill="freeze" begin="0s;99b4.click" /></path></g></svg>