<svg xmlns="http://www.w3.org/2000/svg" width="109" height="109" viewBox="0 0 109 109" id="99c6"><g fill="none" stroke="#666" stroke-width="9" stroke-linecap="round" stroke-linejoin="round"><g><g><path d="M16.99,16.37c0.88,0.88,1.24,2.01,1.24,3.63c0,7.35-0.32,24.13-0.42,34.5c-0.02,2.35-0.18,4.25-0.56,6.75" /><path d="M19.02,17.76c6.8-0.7,15.87-1.9,20.76-2.55c1.32-0.18,4.49-0.74,5.76-0.15" /><path d="M30.56,18.32c0.75,0.75,0.96,1.67,0.95,2.82c-0.02,11.73,0,26.11,0,35.83" /><path d="M19.38,32.75c5.13-0.45,15.26-2.14,19.88-2.87c1.35-0.21,3.25-0.63,4.85-0.32" /><path d="M19.26,46.12c5.29-0.5,15.27-1.65,19.99-2.24c1.37-0.17,3.5-0.64,4.94-0.28" /><path d="M18.74,60.15c6.89-0.9,19-2.86,22.43-3.13c3.33-0.26,4.83,1.24,4.45,5.95C44.79,73.3,42.87,83.51,39.25,90c-4.75,8.5-6.82,1.41-7.71,0.14" /><g><path d="M12.75,72.25c0.12,7-1.88,10.75-3.15,13.57" /><path d="M19,68.88c0.84,2.88,1.55,6.5,1.74,11.62" /><path d="M26.25,67.88c0.48,1.27,2.19,5.47,2.4,9.62" /><path d="M33.96,66c0.86,2.53,1.79,4.75,2.58,8.5" /></g></g><g p4:phon="区" xmlns:p4="http://kanjivg.tagaini.net"><g p4:part="1"><path d="M52.9,19.04c2.19,0.45,4.52,0.1,6.72-0.1c9.95-0.91,19.2-1.92,27.75-2.71c1.81-0.17,4.14-0.71,5.92-0.12" /></g><g><g><path d="M83.97,29.01c0.37,1.25,0.73,2.2,0.18,4.42c-4.53,18.2-10.78,34.32-22.73,46.94" /></g><path d="M62.75,38.75c11.18,6.88,21.39,22.14,26.69,34.73" /></g><g p4:part="2"><path d="M54.89,19.82c0.95,0.95,1.25,2.18,1.25,3.67c0,14.24,0,59.62,0,62.9c0,3.06,0.55,4.23,3.61,3.77c9.55-1.43,24.34-2.55,34.11-2.57c2.3-0.01,4.24,0.17,5.65,0.67" /></g></g></g></g><g fill="none" stroke="#000" stroke-width="5" stroke-linecap="round" stroke-linejoin="round"><g><g><path d="M16.99,16.37c0.88,0.88,1.24,2.01,1.24,3.63c0,7.35-0.32,24.13-0.42,34.5c-0.02,2.35-0.18,4.25-0.56,6.75" stroke-dasharray="45.23" stroke-dashoffset="45.23"><animate id="0" attributeName="stroke-dashoffset" values="45.23;0" dur="0.45s" fill="freeze" begin="0s;99c6.click" /></path><path d="M19.02,17.76c6.8-0.7,15.87-1.9,20.76-2.55c1.32-0.18,4.49-0.74,5.76-0.15" stroke-dasharray="26.73" stroke-dashoffset="26.73"><animate attributeName="stroke-dashoffset" values="26.73" fill="freeze" begin="99c6.click" /><animate id="1" attributeName="stroke-dashoffset" values="26.73;0" dur="0.27s" fill="freeze" begin="0.end" /></path><path d="M30.56,18.32c0.75,0.75,0.96,1.67,0.95,2.82c-0.02,11.73,0,26.11,0,35.83" stroke-dasharray="38.89" stroke-dashoffset="38.89"><animate attributeName="stroke-dashoffset" values="38.89" fill="freeze" begin="99c6.click" /><animate id="2" attributeName="stroke-dashoffset" values="38.89;0" dur="0.39s" fill="freeze" begin="1.end" /></path><path d="M19.38,32.75c5.13-0.45,15.26-2.14,19.88-2.87c1.35-0.21,3.25-0.63,4.85-0.32" stroke-dasharray="24.98" stroke-dashoffset="24.98"><animate attributeName="stroke-dashoffset" values="24.98" fill="freeze" begin="99c6.click" /><animate id="3" attributeName="stroke-dashoffset" values="24.98;0" dur="0.25s" fill="freeze" begin="2.end" /></path><path d="M19.26,46.12c5.29-0.5,15.27-1.65,19.99-2.24c1.37-0.17,3.5-0.64,4.94-0.28" stroke-dasharray="25.09" stroke-dashoffset="25.09"><animate attributeName="stroke-dashoffset" values="25.09" fill="freeze" begin="99c6.click" /><animate id="4" attributeName="stroke-dashoffset" values="25.09;0" dur="0.25s" fill="freeze" begin="3.end" /></path><path d="M18.74,60.15c6.89-0.9,19-2.86,22.43-3.13c3.33-0.26,4.83,1.24,4.45,5.95C44.79,73.3,42.87,83.51,39.25,90c-4.75,8.5-6.82,1.41-7.71,0.14" stroke-dasharray="71.23" stroke-dashoffset="71.23"><animate attributeName="stroke-dashoffset" values="71.23" fill="freeze" begin="99c6.click" /><animate id="5" attributeName="stroke-dashoffset" values="71.23;0" dur="0.54s" fill="freeze" begin="4.end" /></path><g><path d="M12.75,72.25c0.12,7-1.88,10.75-3.15,13.57" stroke-dasharray="14.08" stroke-dashoffset="14.08"><animate attributeName="stroke-dashoffset" values="14.08" fill="freeze" begin="99c6.click" /><animate id="6" attributeName="stroke-dashoffset" values="14.08;0" dur="0.14s" fill="freeze" begin="5.end" /></path><path d="M19,68.88c0.84,2.88,1.55,6.5,1.74,11.62" stroke-dasharray="11.78" stroke-dashoffset="11.78"><animate attributeName="stroke-dashoffset" values="11.78" fill="freeze" begin="99c6.click" /><animate id="7" attributeName="stroke-dashoffset" values="11.78;0" dur="0.12s" fill="freeze" begin="6.end" /></path><path d="M26.25,67.88c0.48,1.27,2.19,5.47,2.4,9.62" stroke-dasharray="9.96" stroke-dashoffset="9.96"><animate attributeName="stroke-dashoffset" values="9.96" fill="freeze" begin="99c6.click" /><animate id="8" attributeName="stroke-dashoffset" values="9.96;0" dur="0.1s" fill="freeze" begin="7.end" /></path><path d="M33.96,66c0.86,2.53,1.79,4.75,2.58,8.5" stroke-dasharray="8.89" stroke-dashoffset="8.89"><animate attributeName="stroke-dashoffset" values="8.89" fill="freeze" begin="99c6.click" /><animate id="9" attributeName="stroke-dashoffset" values="8.89;0" dur="0.09s" fill="freeze" begin="8.end" /></path></g></g><g p4:phon="区" xmlns:p4="http://kanjivg.tagaini.net"><g p4:part="1"><path d="M52.9,19.04c2.19,0.45,4.52,0.1,6.72-0.1c9.95-0.91,19.2-1.92,27.75-2.71c1.81-0.17,4.14-0.71,5.92-0.12" stroke-dasharray="40.6" stroke-dashoffset="40.6"><animate attributeName="stroke-dashoffset" values="40.6" fill="freeze" begin="99c6.click" /><animate id="10" attributeName="stroke-dashoffset" values="40.6;0" dur="0.41s" fill="freeze" begin="9.end" /></path></g><g><g><path d="M83.97,29.01c0.37,1.25,0.73,2.2,0.18,4.42c-4.53,18.2-10.78,34.32-22.73,46.94" stroke-dasharray="57.26" stroke-dashoffset="57.26"><animate attributeName="stroke-dashoffset" values="57.26" fill="freeze" begin="99c6.click" /><animate id="11" attributeName="stroke-dashoffset" values="57.26;0" dur="0.57s" fill="freeze" begin="10.end" /></path></g><path d="M62.75,38.75c11.18,6.88,21.39,22.14,26.69,34.73" stroke-dasharray="44.4" stroke-dashoffset="44.4"><animate attributeName="stroke-dashoffset" values="44.4" fill="freeze" begin="99c6.click" /><animate id="12" attributeName="stroke-dashoffset" values="44.4;0" dur="0.44s" fill="freeze" begin="11.end" /></path></g><g p4:part="2"><path d="M54.89,19.82c0.95,0.95,1.25,2.18,1.25,3.67c0,14.24,0,59.62,0,62.9c0,3.06,0.55,4.23,3.61,3.77c9.55-1.43,24.34-2.55,34.11-2.57c2.3-0.01,4.24,0.17,5.65,0.67" stroke-dasharray="113.31" stroke-dashoffset="113.31"><animate attributeName="stroke-dashoffset" values="113.31" fill="freeze" begin="99c6.click" /><animate id="13" attributeName="stroke-dashoffset" values="113.31;0" dur="0.85s" fill="freeze" begin="12.end" /></path></g></g></g></g></svg>