<svg xmlns="http://www.w3.org/2000/svg" width="109" height="109" viewBox="0 0 109 109" id="99d0"><g fill="none" stroke="#666" stroke-width="6" stroke-linecap="round" stroke-linejoin="round"><g><g><path d="M16.03,17.49c0.82,0.82,0.99,1.95,0.97,2.88c-0.12,7.23,0.1,24.75,0.1,34.88c0,2.83-0.1,4.84-0.1,5.5" /><path d="M18.02,18.76c7.91-0.99,18.55-2.02,22.62-2.5c1.68-0.2,4.29-0.45,5.89,0.3" /><path d="M30.56,18.82c0.81,0.81,0.95,1.93,0.95,3.24c0,6.17,0,29.44,0,34.91" /><path d="M18.16,33.09c5.1-0.48,15.67-1.74,20.86-2.4C40.48,30.51,43,30,44.6,30.32" /><path d="M18.26,45.62c6.26-0.59,20.5-2.35,23.19-2.74c0.94-0.14,2.53-0.25,3-0.03" /><path d="M17.74,59.9c8.42-1.46,19.4-2.91,24.16-3.64c3.85-0.59,5.93,0.22,5.57,4.37C46.5,71.5,45.75,81.12,41.75,91c-2.39,5.91-5.32,0.41-6.21-0.86" /><g><path d="M11.66,74.5c0.4,6.41-0.82,12.04-1.25,13.32" /><path d="M19.75,73c0.96,2.1,1.78,4.75,2,8.5" /><path d="M28.19,69.22c0.56,1.03,2.56,4.42,2.81,7.78" /><path d="M35.5,66.25c1.75,1.88,3.3,4.09,3.75,6.75" /></g></g><g p4:phon="主" xmlns:p4="http://kanjivg.tagaini.net"><g><path d="M65.52,13.33c3.97,2.19,9.8,8.36,10.79,11.77" /></g><g p4:partial><path d="M54.41,39.12c2.46,0.51,5.28-0.02,6.84-0.22c7.29-0.96,18.96-2.68,26-3.25c1.85-0.15,3.85-0.46,5.66,0.14" /><path d="M72.75,40.02c1,1.13,1.25,2.23,1.25,3.69c0,6.33,0,36.79,0,44.1" /><path d="M57.27,62.68c2.11,0.44,4.37,0.38,5.34,0.29c8.09-0.79,15.42-1.55,23.01-2.3c1.62-0.16,3.51-0.29,5.04,0.11" /><path d="M51.25,89.76c2.38,0.62,4.96,0.6,7.37,0.37c10.12-0.95,21.21-1.78,33.5-2.25c2.29-0.09,4.63-0.13,7.13,0.34" /></g></g></g></g><g fill="none" stroke="#000" stroke-width="3" stroke-linecap="round" stroke-linejoin="round"><path d="M16.03,17.49c0.82,0.82,0.99,1.95,0.97,2.88c-0.12,7.23,0.1,24.75,0.1,34.88c0,2.83-0.1,4.84-0.1,5.5" stroke-dasharray="43.508" stroke-dashoffset="43.508"><animate attributeName="stroke-dashoffset" values="43.508;43.508;0" dur="0.435s" fill="freeze" begin="0s;99d0.click" /></path><path d="M18.02,18.76c7.91-0.99,18.55-2.02,22.62-2.5c1.68-0.2,4.29-0.45,5.89,0.3" stroke-dasharray="28.724" stroke-dashoffset="28.724"><animate attributeName="stroke-dashoffset" values="28.724" fill="freeze" begin="99d0.click" /><animate attributeName="stroke-dashoffset" values="28.724;28.724;0" keyTimes="0;0.602;1" dur="0.722s" fill="freeze" begin="0s;99d0.click" /></path><path d="M30.56,18.82c0.81,0.81,0.95,1.93,0.95,3.24c0,6.17,0,29.44,0,34.91" stroke-dasharray="38.382" stroke-dashoffset="38.382"><animate attributeName="stroke-dashoffset" values="38.382" fill="freeze" begin="99d0.click" /><animate attributeName="stroke-dashoffset" values="38.382;38.382;0" keyTimes="0;0.653;1" dur="1.106s" fill="freeze" begin="0s;99d0.click" /></path><path d="M18.16,33.09c5.1-0.48,15.67-1.74,20.86-2.4C40.48,30.51,43,30,44.6,30.32" stroke-dasharray="26.615" stroke-dashoffset="26.615"><animate attributeName="stroke-dashoffset" values="26.615" fill="freeze" begin="99d0.click" /><animate attributeName="stroke-dashoffset" values="26.615;26.615;0" keyTimes="0;0.806;1" dur="1.372s" fill="freeze" begin="0s;99d0.click" /></path><path d="M18.26,45.62c6.26-0.59,20.5-2.35,23.19-2.74c0.94-0.14,2.53-0.25,3-0.03" stroke-dasharray="26.375" stroke-dashoffset="26.375"><animate attributeName="stroke-dashoffset" values="26.375" fill="freeze" begin="99d0.click" /><animate attributeName="stroke-dashoffset" values="26.375;26.375;0" keyTimes="0;0.839;1" dur="1.636s" fill="freeze" begin="0s;99d0.click" /></path><path d="M17.74,59.9c8.42-1.46,19.4-2.91,24.16-3.64c3.85-0.59,5.93,0.22,5.57,4.37C46.5,71.5,45.75,81.12,41.75,91c-2.39,5.91-5.32,0.41-6.21-0.86" stroke-dasharray="73.482" stroke-dashoffset="73.482"><animate attributeName="stroke-dashoffset" values="73.482" fill="freeze" begin="99d0.click" /><animate attributeName="stroke-dashoffset" values="73.482;73.482;0" keyTimes="0;0.748;1" dur="2.188s" fill="freeze" begin="0s;99d0.click" /></path><path d="M11.66,74.5c0.4,6.41-0.82,12.04-1.25,13.32" stroke-dasharray="13.437" stroke-dashoffset="13.437"><animate attributeName="stroke-dashoffset" values="13.437" fill="freeze" begin="99d0.click" /><animate attributeName="stroke-dashoffset" values="13.437;13.437;0" keyTimes="0;0.942;1" dur="2.322s" fill="freeze" begin="0s;99d0.click" /></path><path d="M19.75,73c0.96,2.1,1.78,4.75,2,8.5" stroke-dasharray="8.785" stroke-dashoffset="8.785"><animate attributeName="stroke-dashoffset" values="8.785" fill="freeze" begin="99d0.click" /><animate attributeName="stroke-dashoffset" values="8.785;8.785;0" keyTimes="0;0.963;1" dur="2.41s" fill="freeze" begin="0s;99d0.click" /></path><path d="M28.19,69.22c0.56,1.03,2.56,4.42,2.81,7.78" stroke-dasharray="8.338" stroke-dashoffset="8.338"><animate attributeName="stroke-dashoffset" values="8.338" fill="freeze" begin="99d0.click" /><animate attributeName="stroke-dashoffset" values="8.338;8.338;0" keyTimes="0;0.967;1" dur="2.493s" fill="freeze" begin="0s;99d0.click" /></path><path d="M35.5,66.25c1.75,1.88,3.3,4.09,3.75,6.75" stroke-dasharray="7.836" stroke-dashoffset="7.836"><animate attributeName="stroke-dashoffset" values="7.836" fill="freeze" begin="99d0.click" /><animate attributeName="stroke-dashoffset" values="7.836;7.836;0" keyTimes="0;0.97;1" dur="2.571s" fill="freeze" begin="0s;99d0.click" /></path><path d="M65.52,13.33c3.97,2.19,9.8,8.36,10.79,11.77" stroke-dasharray="16.215" stroke-dashoffset="16.215"><animate attributeName="stroke-dashoffset" values="16.215" fill="freeze" begin="99d0.click" /><animate attributeName="stroke-dashoffset" values="16.215;16.215;0" keyTimes="0;0.941;1" dur="2.733s" fill="freeze" begin="0s;99d0.click" /></path><path d="M54.41,39.12c2.46,0.51,5.28-0.02,6.84-0.22c7.29-0.96,18.96-2.68,26-3.25c1.85-0.15,3.85-0.46,5.66,0.14" stroke-dasharray="38.789" stroke-dashoffset="38.789"><animate attributeName="stroke-dashoffset" values="38.789" fill="freeze" begin="99d0.click" /><animate attributeName="stroke-dashoffset" values="38.789;38.789;0" keyTimes="0;0.876;1" dur="3.121s" fill="freeze" begin="0s;99d0.click" /></path><path d="M72.75,40.02c1,1.13,1.25,2.23,1.25,3.69c0,6.33,0,36.79,0,44.1" stroke-dasharray="48.099" stroke-dashoffset="48.099"><animate attributeName="stroke-dashoffset" values="48.099" fill="freeze" begin="99d0.click" /><animate attributeName="stroke-dashoffset" values="48.099;48.099;0" keyTimes="0;0.866;1" dur="3.602s" fill="freeze" begin="0s;99d0.click" /></path><path d="M57.27,62.68c2.11,0.44,4.37,0.38,5.34,0.29c8.09-0.79,15.42-1.55,23.01-2.3c1.62-0.16,3.51-0.29,5.04,0.11" stroke-dasharray="33.557" stroke-dashoffset="33.557"><animate attributeName="stroke-dashoffset" values="33.557" fill="freeze" begin="99d0.click" /><animate attributeName="stroke-dashoffset" values="33.557;33.557;0" keyTimes="0;0.915;1" dur="3.938s" fill="freeze" begin="0s;99d0.click" /></path><path d="M51.25,89.76c2.38,0.62,4.96,0.6,7.37,0.37c10.12-0.95,21.21-1.78,33.5-2.25c2.29-0.09,4.63-0.13,7.13,0.34" stroke-dasharray="48.152" stroke-dashoffset="48.152"><animate attributeName="stroke-dashoffset" values="48.152" fill="freeze" begin="99d0.click" /><animate attributeName="stroke-dashoffset" values="48.152;48.152;0" keyTimes="0;0.891;1" dur="4.42s" fill="freeze" begin="0s;99d0.click" /></path></g></svg>