<svg xmlns="http://www.w3.org/2000/svg" width="109" height="109" viewBox="0 0 109 109" id="99dd"><g fill="none" stroke="#666" stroke-width="9" stroke-linecap="round" stroke-linejoin="round"><g><g><path d="M16.04,18.23c0.71,0.52,0.99,1.8,0.98,3.27c-0.06,10.34-0.31,39.63-1.01,42.35" /><path d="M17.64,20.36C27,19,39.87,17.46,42.34,17.1c0.97-0.14,2.63-0.25,3.12-0.03" /><path d="M30.63,19.42c0.26,0.39,0.99,0.91,0.99,1.54c-0.02,6.39,0.43,28.95,0.24,39" /><path d="M16.98,34.68c6.51-0.61,21.06-2.65,23.86-3.06c0.98-0.14,2.63-0.25,3.12-0.03" /><path d="M17.58,47.18c6.51-0.61,21.08-2.67,23.88-3.08c0.98-0.14,2.63-0.25,3.12-0.03" /><path d="M16.78,63.23c6.43-1.46,21.95-4.18,25.48-4.8c4.51-0.79,4.82,2.97,4.11,6.68C44.25,76.25,43,84.75,39.02,92.66c-2.97,5.9-6.03,0.42-6.97-0.89" /><g><path d="M11.4,73.96c0.28,5.13-0.58,9.64-0.88,10.66" /><path d="M17.69,71.92c1.89,2.56,3.49,5.78,3.92,10.35" /><path d="M25.14,69.58c0.78,1.14,3.57,4.89,3.91,8.6" /><path d="M32.65,66.53c1.65,2.35,4.38,4.78,4.97,7.89" /></g></g><g><g><path d="M69.48,11.49c0.86,0.4,2.09,2.33,2.07,3.47c-0.06,3.59-0.06,8.7-0.07,11.96" /><g><path d="M54.13,27.74c0,3.62-1.85,11.09-2.92,13.51" /><path d="M54.17,30.11c12.58-2.11,32.96-4.56,38.29-4.34c7.04,0.29-0.51,6.69-2.26,8.37" /></g></g><g><path d="M90.03,44.51c0.18,0.35,0.29,1.37-0.17,1.91c-2.95,3.49-13.05,13.12-22.56,16.7" /><path d="M63,36.38c0.7,1.02,0.75,1.7,0.98,3.05c0.23,1.36-0.09,39.63-0.09,43.88c0,10.92,2.61,11.71,16.65,11.71c13.71,0,14.76-1.77,14.76-11.78" /></g></g></g></g><g fill="none" stroke="#000" stroke-width="5" stroke-linecap="round" stroke-linejoin="round"><g><g><path d="M16.04,18.23c0.71,0.52,0.99,1.8,0.98,3.27c-0.06,10.34-0.31,39.63-1.01,42.35" stroke-dasharray="45.9" stroke-dashoffset="45.9"><animate id="0" attributeName="stroke-dashoffset" values="45.9;0" dur="0.46s" fill="freeze" begin="0s;99dd.click" /></path><path d="M17.64,20.36C27,19,39.87,17.46,42.34,17.1c0.97-0.14,2.63-0.25,3.12-0.03" stroke-dasharray="28.06" stroke-dashoffset="28.06"><animate attributeName="stroke-dashoffset" values="28.06" fill="freeze" begin="99dd.click" /><animate id="1" attributeName="stroke-dashoffset" values="28.06;0" dur="0.28s" fill="freeze" begin="0.end" /></path><path d="M30.63,19.42c0.26,0.39,0.99,0.91,0.99,1.54c-0.02,6.39,0.43,28.95,0.24,39" stroke-dasharray="40.87" stroke-dashoffset="40.87"><animate attributeName="stroke-dashoffset" values="40.87" fill="freeze" begin="99dd.click" /><animate id="2" attributeName="stroke-dashoffset" values="40.87;0" dur="0.41s" fill="freeze" begin="1.end" /></path><path d="M16.98,34.68c6.51-0.61,21.06-2.65,23.86-3.06c0.98-0.14,2.63-0.25,3.12-0.03" stroke-dasharray="27.2" stroke-dashoffset="27.2"><animate attributeName="stroke-dashoffset" values="27.2" fill="freeze" begin="99dd.click" /><animate id="3" attributeName="stroke-dashoffset" values="27.2;0" dur="0.27s" fill="freeze" begin="2.end" /></path><path d="M17.58,47.18c6.51-0.61,21.08-2.67,23.88-3.08c0.98-0.14,2.63-0.25,3.12-0.03" stroke-dasharray="27.22" stroke-dashoffset="27.22"><animate attributeName="stroke-dashoffset" values="27.22" fill="freeze" begin="99dd.click" /><animate id="4" attributeName="stroke-dashoffset" values="27.22;0" dur="0.27s" fill="freeze" begin="3.end" /></path><path d="M16.78,63.23c6.43-1.46,21.95-4.18,25.48-4.8c4.51-0.79,4.82,2.97,4.11,6.68C44.25,76.25,43,84.75,39.02,92.66c-2.97,5.9-6.03,0.42-6.97-0.89" stroke-dasharray="74.15" stroke-dashoffset="74.15"><animate attributeName="stroke-dashoffset" values="74.15" fill="freeze" begin="99dd.click" /><animate id="5" attributeName="stroke-dashoffset" values="74.15;0" dur="0.56s" fill="freeze" begin="4.end" /></path><g><path d="M11.4,73.96c0.28,5.13-0.58,9.64-0.88,10.66" stroke-dasharray="10.73" stroke-dashoffset="10.73"><animate attributeName="stroke-dashoffset" values="10.73" fill="freeze" begin="99dd.click" /><animate id="6" attributeName="stroke-dashoffset" values="10.73;0" dur="0.11s" fill="freeze" begin="5.end" /></path><path d="M17.69,71.92c1.89,2.56,3.49,5.78,3.92,10.35" stroke-dasharray="11.21" stroke-dashoffset="11.21"><animate attributeName="stroke-dashoffset" values="11.21" fill="freeze" begin="99dd.click" /><animate id="7" attributeName="stroke-dashoffset" values="11.21;0" dur="0.11s" fill="freeze" begin="6.end" /></path><path d="M25.14,69.58c0.78,1.14,3.57,4.89,3.91,8.6" stroke-dasharray="9.55" stroke-dashoffset="9.55"><animate attributeName="stroke-dashoffset" values="9.55" fill="freeze" begin="99dd.click" /><animate id="8" attributeName="stroke-dashoffset" values="9.55;0" dur="0.1s" fill="freeze" begin="7.end" /></path><path d="M32.65,66.53c1.65,2.35,4.38,4.78,4.97,7.89" stroke-dasharray="9.42" stroke-dashoffset="9.42"><animate attributeName="stroke-dashoffset" values="9.42" fill="freeze" begin="99dd.click" /><animate id="9" attributeName="stroke-dashoffset" values="9.42;0" dur="0.09s" fill="freeze" begin="8.end" /></path></g></g><g><g><path d="M69.48,11.49c0.86,0.4,2.09,2.33,2.07,3.47c-0.06,3.59-0.06,8.7-0.07,11.96" stroke-dasharray="16.14" stroke-dashoffset="16.14"><animate attributeName="stroke-dashoffset" values="16.14" fill="freeze" begin="99dd.click" /><animate id="10" attributeName="stroke-dashoffset" values="16.14;0" dur="0.16s" fill="freeze" begin="9.end" /></path><g><path d="M54.13,27.74c0,3.62-1.85,11.09-2.92,13.51" stroke-dasharray="13.88" stroke-dashoffset="13.88"><animate attributeName="stroke-dashoffset" values="13.88" fill="freeze" begin="99dd.click" /><animate id="11" attributeName="stroke-dashoffset" values="13.88;0" dur="0.14s" fill="freeze" begin="10.end" /></path><path d="M54.17,30.11c12.58-2.11,32.96-4.56,38.29-4.34c7.04,0.29-0.51,6.69-2.26,8.37" stroke-dasharray="50.96" stroke-dashoffset="50.96"><animate attributeName="stroke-dashoffset" values="50.96" fill="freeze" begin="99dd.click" /><animate id="12" attributeName="stroke-dashoffset" values="50.96;0" dur="0.51s" fill="freeze" begin="11.end" /></path></g></g><g><path d="M90.03,44.51c0.18,0.35,0.29,1.37-0.17,1.91c-2.95,3.49-13.05,13.12-22.56,16.7" stroke-dasharray="30.3" stroke-dashoffset="30.3"><animate attributeName="stroke-dashoffset" values="30.3" fill="freeze" begin="99dd.click" /><animate id="13" attributeName="stroke-dashoffset" values="30.3;0" dur="0.3s" fill="freeze" begin="12.end" /></path><path d="M63,36.38c0.7,1.02,0.75,1.7,0.98,3.05c0.23,1.36-0.09,39.63-0.09,43.88c0,10.92,2.61,11.71,16.65,11.71c13.71,0,14.76-1.77,14.76-11.78" stroke-dasharray="94.95" stroke-dashoffset="94.95"><animate attributeName="stroke-dashoffset" values="94.95" fill="freeze" begin="99dd.click" /><animate id="14" attributeName="stroke-dashoffset" values="94.95;0" dur="0.71s" fill="freeze" begin="13.end" /></path></g></g></g></g></svg>