<svg xmlns="http://www.w3.org/2000/svg" viewBox="0 0 109 109" id="99df"><g fill="none" stroke="#666" stroke-width="6" stroke-linecap="round" stroke-linejoin="round"><g><g><path d="M15.24,18.12c0.76,1.13,0.99,1.85,0.98,3.38c-0.06,10.15,0.2,36.64-0.47,39.25" /><path d="M17.27,18.76c8.73-1.01,22.4-3.33,24.76-3.67c0.94-0.14,2.53-0.25,3-0.03" /><path d="M28.31,18.32c0.25,0.38,0.96,0.88,0.95,1.49c-0.02,6.17-0.06,27.96-0.25,37.66" /><path d="M16.66,33.2c6.26-0.99,20.75-3.7,23.44-4.36c0.94-0.23,2.53-0.41,3-0.04" /><path d="M17.26,45.12c6.26-0.59,21.25-3.1,23.94-3.49c0.94-0.14,2.53-0.25,3-0.03" /><path d="M16.49,60.15c6.17-1.41,21.54-4.54,24.93-5.13c4.33-0.76,4.19,2.81,3.95,6.45C44.7,71.81,40.96,84.8,37.75,91.5c-2.75,5.75-5.32,0.41-6.21-0.86" /><g><path d="M10.96,73.04c0.26,6.87-0.52,12.91-0.79,14.28" /><path d="M17.53,71.72c1.76,2.6,3.25,5.88,3.66,10.51" /><path d="M25.22,68.63c0.73,1.14,3.36,4.9,3.68,8.63" /><path d="M31.47,65.5c1.71,2.6,4.52,5.28,5.13,8.72" /></g></g><g><g><g><path d="M50.5,20.47c0.69,1.38,1.76,3.88,1.89,5.7c0.93,13.21,0.56,40.82,1.88,65.83" /><path d="M51.85,22.67c10.65-1.67,32.3-4.01,39.46-4.42c2.96-0.17,3.49,1.82,3.19,5.76c-1.01,13.39-1.5,44.01-3.05,67.04" /></g><g><g><path d="M65.38,23.49c0.87,1.01,0.85,2.91,0.9,4.58C66.75,43.5,66,63.75,57.67,68.05" /></g><path d="M77.28,22.47c1.22,1.28,0.88,2.31,0.91,4.65c0.07,5.6,0.05,28.37,0.05,32.64c0,6.25,1.01,7.02,5.51,7.02c1.62,0,6.22-0.46,6.56-1.35" /></g></g><g><path d="M54.83,88.97c9.17-0.72,26-2.1,36.71-2.5" /></g></g></g></g><g fill="none" stroke="#000" stroke-width="3" stroke-linecap="round" stroke-linejoin="round"><path d="M15.24,18.12c0.76,1.13,0.99,1.85,0.98,3.38c-0.06,10.15,0.2,36.64-0.47,39.25" stroke-dasharray="42.858" stroke-dashoffset="42.858"><animate attributeName="stroke-dashoffset" values="42.858;42.858;0" dur="0.429s" fill="freeze" begin="0s;99df.click" /></path><path d="M17.27,18.76c8.73-1.01,22.4-3.33,24.76-3.67c0.94-0.14,2.53-0.25,3-0.03" stroke-dasharray="28.055" stroke-dashoffset="28.055"><animate attributeName="stroke-dashoffset" values="28.055" fill="freeze" begin="99df.click" /><animate attributeName="stroke-dashoffset" values="28.055;28.055;0" keyTimes="0;0.604;1" dur="0.71s" fill="freeze" begin="0s;99df.click" /></path><path d="M28.31,18.32c0.25,0.38,0.96,0.88,0.95,1.49c-0.02,6.17-0.06,27.96-0.25,37.66" stroke-dasharray="39.468" stroke-dashoffset="39.468"><animate attributeName="stroke-dashoffset" values="39.468" fill="freeze" begin="99df.click" /><animate attributeName="stroke-dashoffset" values="39.468;39.468;0" keyTimes="0;0.643;1" dur="1.105s" fill="freeze" begin="0s;99df.click" /></path><path d="M16.66,33.2c6.26-0.99,20.75-3.7,23.44-4.36c0.94-0.23,2.53-0.41,3-0.04" stroke-dasharray="26.903" stroke-dashoffset="26.903"><animate attributeName="stroke-dashoffset" values="26.903" fill="freeze" begin="99df.click" /><animate attributeName="stroke-dashoffset" values="26.903;26.903;0" keyTimes="0;0.804;1" dur="1.374s" fill="freeze" begin="0s;99df.click" /></path><path d="M17.26,45.12c6.26-0.59,21.25-3.1,23.94-3.49c0.94-0.14,2.53-0.25,3-0.03" stroke-dasharray="27.218" stroke-dashoffset="27.218"><animate attributeName="stroke-dashoffset" values="27.218" fill="freeze" begin="99df.click" /><animate attributeName="stroke-dashoffset" values="27.218;27.218;0" keyTimes="0;0.835;1" dur="1.646s" fill="freeze" begin="0s;99df.click" /></path><path d="M16.49,60.15c6.17-1.41,21.54-4.54,24.93-5.13c4.33-0.76,4.19,2.81,3.95,6.45C44.7,71.81,40.96,84.8,37.75,91.5c-2.75,5.75-5.32,0.41-6.21-0.86" stroke-dasharray="74.991" stroke-dashoffset="74.991"><animate attributeName="stroke-dashoffset" values="74.991" fill="freeze" begin="99df.click" /><animate attributeName="stroke-dashoffset" values="74.991;74.991;0" keyTimes="0;0.745;1" dur="2.21s" fill="freeze" begin="0s;99df.click" /></path><path d="M10.96,73.04c0.26,6.87-0.52,12.91-0.79,14.28" stroke-dasharray="14.325" stroke-dashoffset="14.325"><animate attributeName="stroke-dashoffset" values="14.325" fill="freeze" begin="99df.click" /><animate attributeName="stroke-dashoffset" values="14.325;14.325;0" keyTimes="0;0.939;1" dur="2.353s" fill="freeze" begin="0s;99df.click" /></path><path d="M17.53,71.72c1.76,2.6,3.25,5.88,3.66,10.51" stroke-dasharray="11.257" stroke-dashoffset="11.257"><animate attributeName="stroke-dashoffset" values="11.257" fill="freeze" begin="99df.click" /><animate attributeName="stroke-dashoffset" values="11.257;11.257;0" keyTimes="0;0.954;1" dur="2.466s" fill="freeze" begin="0s;99df.click" /></path><path d="M25.22,68.63c0.73,1.14,3.36,4.9,3.68,8.63" stroke-dasharray="9.478" stroke-dashoffset="9.478"><animate attributeName="stroke-dashoffset" values="9.478" fill="freeze" begin="99df.click" /><animate attributeName="stroke-dashoffset" values="9.478;9.478;0" keyTimes="0;0.963;1" dur="2.561s" fill="freeze" begin="0s;99df.click" /></path><path d="M31.47,65.5c1.71,2.6,4.52,5.28,5.13,8.72" stroke-dasharray="10.213" stroke-dashoffset="10.213"><animate attributeName="stroke-dashoffset" values="10.213" fill="freeze" begin="99df.click" /><animate attributeName="stroke-dashoffset" values="10.213;10.213;0" keyTimes="0;0.962;1" dur="2.663s" fill="freeze" begin="0s;99df.click" /></path><path d="M50.5,20.47c0.69,1.38,1.76,3.88,1.89,5.7c0.93,13.21,0.56,40.82,1.88,65.83" stroke-dasharray="71.9" stroke-dashoffset="71.9"><animate attributeName="stroke-dashoffset" values="71.9" fill="freeze" begin="99df.click" /><animate attributeName="stroke-dashoffset" values="71.9;71.9;0" keyTimes="0;0.831;1" dur="3.204s" fill="freeze" begin="0s;99df.click" /></path><path d="M51.85,22.67c10.65-1.67,32.3-4.01,39.46-4.42c2.96-0.17,3.49,1.82,3.19,5.76c-1.01,13.39-1.5,44.01-3.05,67.04" stroke-dasharray="114.649" stroke-dashoffset="114.649"><animate attributeName="stroke-dashoffset" values="114.649" fill="freeze" begin="99df.click" /><animate attributeName="stroke-dashoffset" values="114.649;114.649;0" keyTimes="0;0.788;1" dur="4.066s" fill="freeze" begin="0s;99df.click" /></path><path d="M65.38,23.49c0.87,1.01,0.85,2.91,0.9,4.58C66.75,43.5,66,63.75,57.67,68.05" stroke-dasharray="47.104" stroke-dashoffset="47.104"><animate attributeName="stroke-dashoffset" values="47.104" fill="freeze" begin="99df.click" /><animate attributeName="stroke-dashoffset" values="47.104;47.104;0" keyTimes="0;0.896;1" dur="4.537s" fill="freeze" begin="0s;99df.click" /></path><path d="M77.28,22.47c1.22,1.28,0.88,2.31,0.91,4.65c0.07,5.6,0.05,28.37,0.05,32.64c0,6.25,1.01,7.02,5.51,7.02c1.62,0,6.22-0.46,6.56-1.35" stroke-dasharray="55.154" stroke-dashoffset="55.154"><animate attributeName="stroke-dashoffset" values="55.154" fill="freeze" begin="99df.click" /><animate attributeName="stroke-dashoffset" values="55.154;55.154;0" keyTimes="0;0.892;1" dur="5.089s" fill="freeze" begin="0s;99df.click" /></path><path d="M54.83,88.97c9.17-0.72,26-2.1,36.71-2.5" stroke-dasharray="36.798" stroke-dashoffset="36.798"><animate attributeName="stroke-dashoffset" values="36.798" fill="freeze" begin="99df.click" /><animate attributeName="stroke-dashoffset" values="36.798;36.798;0" keyTimes="0;0.933;1" dur="5.457s" fill="freeze" begin="0s;99df.click" /></path></g></svg>