<svg xmlns="http://www.w3.org/2000/svg" width="109" height="109" viewBox="0 0 109 109" id="9a01"><g fill="none" stroke="#666" stroke-width="6" stroke-linecap="round" stroke-linejoin="round"><g><g><path d="M14.94,16.8c0.81,0.7,0.99,3.01,0.99,4.2c-0.05,9.96-0.29,38.54-1,41.38" /><path d="M16.52,18.43c8.03-0.55,21.95-3.46,24.39-3.83c0.96-0.15,2.6-0.26,3.08-0.03" /><path d="M29.35,17.49c0.26,0.4,0.98,0.93,0.98,1.57c-0.02,6.53-0.07,29.58-0.26,39.85" /><path d="M16.37,32.05c6.43-0.62,18.79-2.69,21.55-3.11c0.96-0.15,2.6-0.26,3.08-0.03" /><path d="M16.47,45.85c6.43-0.62,19.81-3.22,22.56-3.63c0.96-0.15,2.6-0.26,3.08-0.03" /><path d="M15.68,62.24c6.34-1.49,22.62-3.92,26.13-4.4c2.44-0.33,4.3,1.47,4.06,5.33c-0.69,10.95-4.48,24.1-7.77,31.19c-2.83,6.08-6.46,0.43-7.38-0.91" /><g><path d="M11.42,73.14c0.36,6.42-0.74,12.06-1.12,13.35" /><path d="M17.46,72.06c1.39,2.78,2.57,6.28,2.89,11.24" /><path d="M25.28,69.31c0.68,1.29,3.12,5.53,3.43,9.73" /><path d="M33.17,66.41c1.04,2.35,2.76,4.78,3.13,7.89" /></g></g><g><g><g p6:partial xmlns:p6="http://kanjivg.tagaini.net"><path d="M52.31,20.45c0.57,0.73,1.01,1.48,1.14,2.12c1.09,5.23,3.16,16.51,3.8,26.15" /><path d="M54.28,22.99c9.17-1.19,29.52-3.41,35.32-3.88c2.13-0.17,2.93,1.21,2.81,2.49c-0.43,4.68-1.71,15.73-3.05,23.45" /></g><g><path d="M69.71,8.11c1.22,1.04,1.94,2.54,1.95,3.9c0.04,13.49,0.22,29.51,0.22,33.03" /></g><g p6:partial xmlns:p6="http://kanjivg.tagaini.net"><path d="M55.66,33.64c2.53-0.23,33.66-3.21,35.75-3.21" /><path d="M57.41,46.27c6.4-0.34,24.3-2.37,32.03-2.5" /></g></g><g><path d="M51.54,57.69c1.37,0.26,3.88,0.29,5.24,0.26c10.59-0.23,21.92-2.64,37.13-3c2.28-0.05,3.65,0.12,4.79,0.26" /><path d="M65.95,59.52c0.31,0.59,0.48,1.34,0.06,2.18c-1.17,2.34-5.04,6.17-6.6,8.52c-0.88,1.33-0.28,2.56,1.84,2.18c3.86-0.69,18.34-2.7,23.11-3.56C89,68,89.55,70.67,88.4,73.66c-2.65,6.84-6.65,15.59-13.79,22.69c-4.56,4.54-6.11,1.65-7.93-1.21" /></g></g></g></g><g fill="none" stroke="#000" stroke-width="3" stroke-linecap="round" stroke-linejoin="round"><path d="M14.94,16.8c0.81,0.7,0.99,3.01,0.99,4.2c-0.05,9.96-0.29,38.54-1,41.38" stroke-dasharray="45.812" stroke-dashoffset="45.812"><animate attributeName="stroke-dashoffset" values="45.812;45.812;0" dur="0.458s" fill="freeze" begin="0s;9a01.click" /></path><path d="M16.52,18.43c8.03-0.55,21.95-3.46,24.39-3.83c0.96-0.15,2.6-0.26,3.08-0.03" stroke-dasharray="27.804" stroke-dashoffset="27.804"><animate attributeName="stroke-dashoffset" values="27.804" fill="freeze" begin="9a01.click" /><animate attributeName="stroke-dashoffset" values="27.804;27.804;0" keyTimes="0;0.622;1" dur="0.736s" fill="freeze" begin="0s;9a01.click" /></path><path d="M29.35,17.49c0.26,0.4,0.98,0.93,0.98,1.57c-0.02,6.53-0.07,29.58-0.26,39.85" stroke-dasharray="41.741" stroke-dashoffset="41.741"><animate attributeName="stroke-dashoffset" values="41.741" fill="freeze" begin="9a01.click" /><animate attributeName="stroke-dashoffset" values="41.741;41.741;0" keyTimes="0;0.638;1" dur="1.153s" fill="freeze" begin="0s;9a01.click" /></path><path d="M16.37,32.05c6.43-0.62,18.79-2.69,21.55-3.11c0.96-0.15,2.6-0.26,3.08-0.03" stroke-dasharray="24.88" stroke-dashoffset="24.88"><animate attributeName="stroke-dashoffset" values="24.88" fill="freeze" begin="9a01.click" /><animate attributeName="stroke-dashoffset" values="24.88;24.88;0" keyTimes="0;0.822;1" dur="1.402s" fill="freeze" begin="0s;9a01.click" /></path><path d="M16.47,45.85c6.43-0.62,19.81-3.22,22.56-3.63c0.96-0.15,2.6-0.26,3.08-0.03" stroke-dasharray="25.959" stroke-dashoffset="25.959"><animate attributeName="stroke-dashoffset" values="25.959" fill="freeze" begin="9a01.click" /><animate attributeName="stroke-dashoffset" values="25.959;25.959;0" keyTimes="0;0.844;1" dur="1.662s" fill="freeze" begin="0s;9a01.click" /></path><path d="M15.68,62.24c6.34-1.49,22.62-3.92,26.13-4.4c2.44-0.33,4.3,1.47,4.06,5.33c-0.69,10.95-4.48,24.1-7.77,31.19c-2.83,6.08-6.46,0.43-7.38-0.91" stroke-dasharray="76.859" stroke-dashoffset="76.859"><animate attributeName="stroke-dashoffset" values="76.859" fill="freeze" begin="9a01.click" /><animate attributeName="stroke-dashoffset" values="76.859;76.859;0" keyTimes="0;0.742;1" dur="2.24s" fill="freeze" begin="0s;9a01.click" /></path><path d="M11.42,73.14c0.36,6.42-0.74,12.06-1.12,13.35" stroke-dasharray="13.443" stroke-dashoffset="13.443"><animate attributeName="stroke-dashoffset" values="13.443" fill="freeze" begin="9a01.click" /><animate attributeName="stroke-dashoffset" values="13.443;13.443;0" keyTimes="0;0.944;1" dur="2.374s" fill="freeze" begin="0s;9a01.click" /></path><path d="M17.46,72.06c1.39,2.78,2.57,6.28,2.89,11.24" stroke-dasharray="11.687" stroke-dashoffset="11.687"><animate attributeName="stroke-dashoffset" values="11.687" fill="freeze" begin="9a01.click" /><animate attributeName="stroke-dashoffset" values="11.687;11.687;0" keyTimes="0;0.953;1" dur="2.491s" fill="freeze" begin="0s;9a01.click" /></path><path d="M25.28,69.31c0.68,1.29,3.12,5.53,3.43,9.73" stroke-dasharray="10.395" stroke-dashoffset="10.395"><animate attributeName="stroke-dashoffset" values="10.395" fill="freeze" begin="9a01.click" /><animate attributeName="stroke-dashoffset" values="10.395;10.395;0" keyTimes="0;0.96;1" dur="2.595s" fill="freeze" begin="0s;9a01.click" /></path><path d="M33.17,66.41c1.04,2.35,2.76,4.78,3.13,7.89" stroke-dasharray="8.536" stroke-dashoffset="8.536"><animate attributeName="stroke-dashoffset" values="8.536" fill="freeze" begin="9a01.click" /><animate attributeName="stroke-dashoffset" values="8.536;8.536;0" keyTimes="0;0.968;1" dur="2.68s" fill="freeze" begin="0s;9a01.click" /></path><path d="M52.31,20.45c0.57,0.73,1.01,1.48,1.14,2.12c1.09,5.23,3.16,16.51,3.8,26.15" stroke-dasharray="28.871" stroke-dashoffset="28.871"><animate attributeName="stroke-dashoffset" values="28.871" fill="freeze" begin="9a01.click" /><animate attributeName="stroke-dashoffset" values="28.871;28.871;0" keyTimes="0;0.903;1" dur="2.969s" fill="freeze" begin="0s;9a01.click" /></path><path d="M54.28,22.99c9.17-1.19,29.52-3.41,35.32-3.88c2.13-0.17,2.93,1.21,2.81,2.49c-0.43,4.68-1.71,15.73-3.05,23.45" stroke-dasharray="63.558" stroke-dashoffset="63.558"><animate attributeName="stroke-dashoffset" values="63.558" fill="freeze" begin="9a01.click" /><animate attributeName="stroke-dashoffset" values="63.558;63.558;0" keyTimes="0;0.861;1" dur="3.447s" fill="freeze" begin="0s;9a01.click" /></path><path d="M69.71,8.11c1.22,1.04,1.94,2.54,1.95,3.9c0.04,13.49,0.22,29.51,0.22,33.03" stroke-dasharray="37.522" stroke-dashoffset="37.522"><animate attributeName="stroke-dashoffset" values="37.522" fill="freeze" begin="9a01.click" /><animate attributeName="stroke-dashoffset" values="37.522;37.522;0" keyTimes="0;0.902;1" dur="3.822s" fill="freeze" begin="0s;9a01.click" /></path><path d="M55.66,33.64c2.53-0.23,33.66-3.21,35.75-3.21" stroke-dasharray="35.896" stroke-dashoffset="35.896"><animate attributeName="stroke-dashoffset" values="35.896" fill="freeze" begin="9a01.click" /><animate attributeName="stroke-dashoffset" values="35.896;35.896;0" keyTimes="0;0.914;1" dur="4.181s" fill="freeze" begin="0s;9a01.click" /></path><path d="M57.41,46.27c6.4-0.34,24.3-2.37,32.03-2.5" stroke-dasharray="32.133" stroke-dashoffset="32.133"><animate attributeName="stroke-dashoffset" values="32.133" fill="freeze" begin="9a01.click" /><animate attributeName="stroke-dashoffset" values="32.133;32.133;0" keyTimes="0;0.929;1" dur="4.502s" fill="freeze" begin="0s;9a01.click" /></path><path d="M51.54,57.69c1.37,0.26,3.88,0.29,5.24,0.26c10.59-0.23,21.92-2.64,37.13-3c2.28-0.05,3.65,0.12,4.79,0.26" stroke-dasharray="47.321" stroke-dashoffset="47.321"><animate attributeName="stroke-dashoffset" values="47.321" fill="freeze" begin="9a01.click" /><animate attributeName="stroke-dashoffset" values="47.321;47.321;0" keyTimes="0;0.905;1" dur="4.975s" fill="freeze" begin="0s;9a01.click" /></path><path d="M65.95,59.52c0.31,0.59,0.48,1.34,0.06,2.18c-1.17,2.34-5.04,6.17-6.6,8.52c-0.88,1.33-0.28,2.56,1.84,2.18c3.86-0.69,18.34-2.7,23.11-3.56C89,68,89.55,70.67,88.4,73.66c-2.65,6.84-6.65,15.59-13.79,22.69c-4.56,4.54-6.11,1.65-7.93-1.21" stroke-dasharray="86.116" stroke-dashoffset="86.116"><animate attributeName="stroke-dashoffset" values="86.116" fill="freeze" begin="9a01.click" /><animate attributeName="stroke-dashoffset" values="86.116;86.116;0" keyTimes="0;0.885;1" dur="5.622s" fill="freeze" begin="0s;9a01.click" /></path></g></svg>