<svg xmlns="http://www.w3.org/2000/svg" width="109" height="109" viewBox="0 0 109 109" id="9a01"><g fill="none" stroke="#666" stroke-width="9" stroke-linecap="round" stroke-linejoin="round"><g><g><path d="M14.94,16.8c0.81,0.7,0.99,3.01,0.99,4.2c-0.05,9.96-0.29,38.54-1,41.38" /><path d="M16.52,18.43c8.03-0.55,21.95-3.46,24.39-3.83c0.96-0.15,2.6-0.26,3.08-0.03" /><path d="M29.35,17.49c0.26,0.4,0.98,0.93,0.98,1.57c-0.02,6.53-0.07,29.58-0.26,39.85" /><path d="M16.37,32.05c6.43-0.62,18.79-2.69,21.55-3.11c0.96-0.15,2.6-0.26,3.08-0.03" /><path d="M16.47,45.85c6.43-0.62,19.81-3.22,22.56-3.63c0.96-0.15,2.6-0.26,3.08-0.03" /><path d="M15.68,62.24c6.34-1.49,22.62-3.92,26.13-4.4c2.44-0.33,4.3,1.47,4.06,5.33c-0.69,10.95-4.48,24.1-7.77,31.19c-2.83,6.08-6.46,0.43-7.38-0.91" /><g><path d="M11.42,73.14c0.36,6.42-0.74,12.06-1.12,13.35" /><path d="M17.46,72.06c1.39,2.78,2.57,6.28,2.89,11.24" /><path d="M25.28,69.31c0.68,1.29,3.12,5.53,3.43,9.73" /><path d="M33.17,66.41c1.04,2.35,2.76,4.78,3.13,7.89" /></g></g><g><g><g p6:part="1" p6:partial xmlns:p6="http://kanjivg.tagaini.net"><path d="M52.31,20.45c0.57,0.73,1.01,1.48,1.14,2.12c1.09,5.23,3.16,16.51,3.8,26.15" /><path d="M54.28,22.99c9.17-1.19,29.52-3.41,35.32-3.88c2.13-0.17,2.93,1.21,2.81,2.49c-0.43,4.68-1.71,15.73-3.05,23.45" /></g><g><path d="M69.71,8.11c1.22,1.04,1.94,2.54,1.95,3.9c0.04,13.49,0.22,29.51,0.22,33.03" /></g><g p6:part="2" p6:partial xmlns:p6="http://kanjivg.tagaini.net"><path d="M55.66,33.64c2.53-0.23,33.66-3.21,35.75-3.21" /><path d="M57.41,46.27c6.4-0.34,24.3-2.37,32.03-2.5" /></g></g><g><path d="M51.54,57.69c1.37,0.26,3.88,0.29,5.24,0.26c10.59-0.23,21.92-2.64,37.13-3c2.28-0.05,3.65,0.12,4.79,0.26" /><path d="M65.95,59.52c0.31,0.59,0.48,1.34,0.06,2.18c-1.17,2.34-5.04,6.17-6.6,8.52c-0.88,1.33-0.28,2.56,1.84,2.18c3.86-0.69,18.34-2.7,23.11-3.56C89,68,89.55,70.67,88.4,73.66c-2.65,6.84-6.65,15.59-13.79,22.69c-4.56,4.54-6.11,1.65-7.93-1.21" /></g></g></g></g><g fill="none" stroke="#000" stroke-width="5" stroke-linecap="round" stroke-linejoin="round"><g><g><path d="M14.94,16.8c0.81,0.7,0.99,3.01,0.99,4.2c-0.05,9.96-0.29,38.54-1,41.38" stroke-dasharray="45.81" stroke-dashoffset="45.81"><animate id="0" attributeName="stroke-dashoffset" values="45.81;0" dur="0.46s" fill="freeze" begin="0s;9a01.click" /></path><path d="M16.52,18.43c8.03-0.55,21.95-3.46,24.39-3.83c0.96-0.15,2.6-0.26,3.08-0.03" stroke-dasharray="27.8" stroke-dashoffset="27.8"><animate attributeName="stroke-dashoffset" values="27.8" fill="freeze" begin="9a01.click" /><animate id="1" attributeName="stroke-dashoffset" values="27.8;0" dur="0.28s" fill="freeze" begin="0.end" /></path><path d="M29.35,17.49c0.26,0.4,0.98,0.93,0.98,1.57c-0.02,6.53-0.07,29.58-0.26,39.85" stroke-dasharray="41.74" stroke-dashoffset="41.74"><animate attributeName="stroke-dashoffset" values="41.74" fill="freeze" begin="9a01.click" /><animate id="2" attributeName="stroke-dashoffset" values="41.74;0" dur="0.42s" fill="freeze" begin="1.end" /></path><path d="M16.37,32.05c6.43-0.62,18.79-2.69,21.55-3.11c0.96-0.15,2.6-0.26,3.08-0.03" stroke-dasharray="24.88" stroke-dashoffset="24.88"><animate attributeName="stroke-dashoffset" values="24.88" fill="freeze" begin="9a01.click" /><animate id="3" attributeName="stroke-dashoffset" values="24.88;0" dur="0.25s" fill="freeze" begin="2.end" /></path><path d="M16.47,45.85c6.43-0.62,19.81-3.22,22.56-3.63c0.96-0.15,2.6-0.26,3.08-0.03" stroke-dasharray="25.96" stroke-dashoffset="25.96"><animate attributeName="stroke-dashoffset" values="25.96" fill="freeze" begin="9a01.click" /><animate id="4" attributeName="stroke-dashoffset" values="25.96;0" dur="0.26s" fill="freeze" begin="3.end" /></path><path d="M15.68,62.24c6.34-1.49,22.62-3.92,26.13-4.4c2.44-0.33,4.3,1.47,4.06,5.33c-0.69,10.95-4.48,24.1-7.77,31.19c-2.83,6.08-6.46,0.43-7.38-0.91" stroke-dasharray="76.86" stroke-dashoffset="76.86"><animate attributeName="stroke-dashoffset" values="76.86" fill="freeze" begin="9a01.click" /><animate id="5" attributeName="stroke-dashoffset" values="76.86;0" dur="0.58s" fill="freeze" begin="4.end" /></path><g><path d="M11.42,73.14c0.36,6.42-0.74,12.06-1.12,13.35" stroke-dasharray="13.44" stroke-dashoffset="13.44"><animate attributeName="stroke-dashoffset" values="13.44" fill="freeze" begin="9a01.click" /><animate id="6" attributeName="stroke-dashoffset" values="13.44;0" dur="0.13s" fill="freeze" begin="5.end" /></path><path d="M17.46,72.06c1.39,2.78,2.57,6.28,2.89,11.24" stroke-dasharray="11.69" stroke-dashoffset="11.69"><animate attributeName="stroke-dashoffset" values="11.69" fill="freeze" begin="9a01.click" /><animate id="7" attributeName="stroke-dashoffset" values="11.69;0" dur="0.12s" fill="freeze" begin="6.end" /></path><path d="M25.28,69.31c0.68,1.29,3.12,5.53,3.43,9.73" stroke-dasharray="10.39" stroke-dashoffset="10.39"><animate attributeName="stroke-dashoffset" values="10.39" fill="freeze" begin="9a01.click" /><animate id="8" attributeName="stroke-dashoffset" values="10.39;0" dur="0.1s" fill="freeze" begin="7.end" /></path><path d="M33.17,66.41c1.04,2.35,2.76,4.78,3.13,7.89" stroke-dasharray="8.54" stroke-dashoffset="8.54"><animate attributeName="stroke-dashoffset" values="8.54" fill="freeze" begin="9a01.click" /><animate id="9" attributeName="stroke-dashoffset" values="8.54;0" dur="0.09s" fill="freeze" begin="8.end" /></path></g></g><g><g><g p6:part="1" p6:partial xmlns:p6="http://kanjivg.tagaini.net"><path d="M52.31,20.45c0.57,0.73,1.01,1.48,1.14,2.12c1.09,5.23,3.16,16.51,3.8,26.15" stroke-dasharray="28.87" stroke-dashoffset="28.87"><animate attributeName="stroke-dashoffset" values="28.87" fill="freeze" begin="9a01.click" /><animate id="10" attributeName="stroke-dashoffset" values="28.87;0" dur="0.29s" fill="freeze" begin="9.end" /></path><path d="M54.28,22.99c9.17-1.19,29.52-3.41,35.32-3.88c2.13-0.17,2.93,1.21,2.81,2.49c-0.43,4.68-1.71,15.73-3.05,23.45" stroke-dasharray="63.56" stroke-dashoffset="63.56"><animate attributeName="stroke-dashoffset" values="63.56" fill="freeze" begin="9a01.click" /><animate id="11" attributeName="stroke-dashoffset" values="63.56;0" dur="0.48s" fill="freeze" begin="10.end" /></path></g><g><path d="M69.71,8.11c1.22,1.04,1.94,2.54,1.95,3.9c0.04,13.49,0.22,29.51,0.22,33.03" stroke-dasharray="37.52" stroke-dashoffset="37.52"><animate attributeName="stroke-dashoffset" values="37.52" fill="freeze" begin="9a01.click" /><animate id="12" attributeName="stroke-dashoffset" values="37.52;0" dur="0.38s" fill="freeze" begin="11.end" /></path></g><g p6:part="2" p6:partial xmlns:p6="http://kanjivg.tagaini.net"><path d="M55.66,33.64c2.53-0.23,33.66-3.21,35.75-3.21" stroke-dasharray="35.9" stroke-dashoffset="35.9"><animate attributeName="stroke-dashoffset" values="35.9" fill="freeze" begin="9a01.click" /><animate id="13" attributeName="stroke-dashoffset" values="35.9;0" dur="0.36s" fill="freeze" begin="12.end" /></path><path d="M57.41,46.27c6.4-0.34,24.3-2.37,32.03-2.5" stroke-dasharray="32.13" stroke-dashoffset="32.13"><animate attributeName="stroke-dashoffset" values="32.13" fill="freeze" begin="9a01.click" /><animate id="14" attributeName="stroke-dashoffset" values="32.13;0" dur="0.32s" fill="freeze" begin="13.end" /></path></g></g><g><path d="M51.54,57.69c1.37,0.26,3.88,0.29,5.24,0.26c10.59-0.23,21.92-2.64,37.13-3c2.28-0.05,3.65,0.12,4.79,0.26" stroke-dasharray="47.32" stroke-dashoffset="47.32"><animate attributeName="stroke-dashoffset" values="47.32" fill="freeze" begin="9a01.click" /><animate id="15" attributeName="stroke-dashoffset" values="47.32;0" dur="0.47s" fill="freeze" begin="14.end" /></path><path d="M65.95,59.52c0.31,0.59,0.48,1.34,0.06,2.18c-1.17,2.34-5.04,6.17-6.6,8.52c-0.88,1.33-0.28,2.56,1.84,2.18c3.86-0.69,18.34-2.7,23.11-3.56C89,68,89.55,70.67,88.4,73.66c-2.65,6.84-6.65,15.59-13.79,22.69c-4.56,4.54-6.11,1.65-7.93-1.21" stroke-dasharray="86.11" stroke-dashoffset="86.11"><animate attributeName="stroke-dashoffset" values="86.11" fill="freeze" begin="9a01.click" /><animate id="16" attributeName="stroke-dashoffset" values="86.11;0" dur="0.65s" fill="freeze" begin="15.end" /></path></g></g></g></g></svg>