<svg xmlns="http://www.w3.org/2000/svg" viewBox="0 0 109 109" id="9a13"><g fill="none" stroke="#666" stroke-width="6" stroke-linecap="round" stroke-linejoin="round"><g><g><path d="M16.49,17.62c0.76,0.76,1.25,1.82,1.24,3.38c-0.02,7.37-0.07,24.26-0.17,34.5c-0.02,2.35,0.07,3.75-0.56,5.75" /><path d="M18.02,19.51c7.48-1.26,17.66-2.93,22.01-3.17c1.59-0.09,2.96-0.21,4-0.03" /><path d="M28.81,20.57c1,1,1.45,2.18,1.45,3.49c0,6.17-0.06,24.21-0.25,33.91" /><path d="M18.16,33.34c6.26-0.58,16.75-2.85,19.44-3.24c0.94-0.14,2.53-0.24,3-0.02" /><path d="M18.26,45.62c6.26-0.59,15.75-2.35,18.44-2.74c0.94-0.14,2.53-0.25,3-0.03" /><path d="M17.74,60.65c6.17-1.41,18.79-4.07,22.18-4.63c3.08-0.51,4.58,1.49,4.2,6.45C43.33,72.8,41.55,84.12,38.75,91c-2.43,5.96-5,2.12-6.71-0.86" /><g><path d="M10.54,74.75c0.37,6.29-0.75,11.82-1.14,13.07" /><path d="M16.62,71.25c1.38,2.54,2.5,6.88,2.88,10.25" /><path d="M23.8,68.47c1.45,2.28,2.82,5.53,3.33,8.03" /><path d="M30.5,64.5c1.75,1.75,4.36,4.24,4.96,7" /></g></g><g p4:partial p4:phon="僉V" xmlns:p4="http://kanjivg.tagaini.net"><g><path d="M66.48,11.5c0.06,0.71,0.27,1.89-0.11,2.87c-2.69,6.92-9.61,18.97-20.22,27.5" /><path d="M66.9,14.12c2.71,4.05,15.43,16.09,20.95,21.39c1.79,1.73,3.39,3.23,5.77,3.86" /></g><g><g><path d="M56.48,40.4c1.52,0.23,2.76,0.31,3.79,0.12c5.48-1.01,10.48-1.76,15.14-2.2c1.18-0.11,3.34-0.18,4.63,0.01" /></g><g><path d="M50.39,52.87c0.78,0.6,1.24,1.38,1.37,2.35c0.95,3.27,1.88,9.24,2.62,14.27c0.18,1.23,0.36,2.41,0.52,3.48" /><path d="M52.77,54.03c10.35-1.28,26.78-2.78,31.61-3.26c1.77-0.17,2.83,1.76,2.57,2.79c-1.05,4.26-1.71,5.44-3.48,13.57" /><path d="M55.28,69.97c4.64-0.44,17.59-1.68,26.08-2.41c1.89-0.16,3.56-0.3,4.87-0.4" /></g><g><path d="M66.72,42.5c0.9,1.25,1.35,2.83,1.37,4.63c0.41,26.49-4.84,39.12-23.95,49.62" /><path d="M68.15,69.87c2.67,4.03,15.45,15.9,21.14,21.32c1.88,1.79,3.43,3.34,5.96,4.06" /></g></g></g></g></g><g fill="none" stroke="#000" stroke-width="3" stroke-linecap="round" stroke-linejoin="round"><path d="M16.49,17.62c0.76,0.76,1.25,1.82,1.24,3.38c-0.02,7.37-0.07,24.26-0.17,34.5c-0.02,2.35,0.07,3.75-0.56,5.75" stroke-dasharray="44.009" stroke-dashoffset="44.009"><animate attributeName="stroke-dashoffset" values="44.009;44.009;0" dur="0.44s" fill="freeze" begin="0s;9a13.click" /></path><path d="M18.02,19.51c7.48-1.26,17.66-2.93,22.01-3.17c1.59-0.09,2.96-0.21,4-0.03" stroke-dasharray="26.253" stroke-dashoffset="26.253"><animate attributeName="stroke-dashoffset" values="26.253" fill="freeze" begin="9a13.click" /><animate attributeName="stroke-dashoffset" values="26.253;26.253;0" keyTimes="0;0.626;1" dur="0.703s" fill="freeze" begin="0s;9a13.click" /></path><path d="M28.81,20.57c1,1,1.45,2.18,1.45,3.49c0,6.17-0.06,24.21-0.25,33.91" stroke-dasharray="37.797" stroke-dashoffset="37.797"><animate attributeName="stroke-dashoffset" values="37.797" fill="freeze" begin="9a13.click" /><animate attributeName="stroke-dashoffset" values="37.797;37.797;0" keyTimes="0;0.65;1" dur="1.081s" fill="freeze" begin="0s;9a13.click" /></path><path d="M18.16,33.34c6.26-0.58,16.75-2.85,19.44-3.24c0.94-0.14,2.53-0.24,3-0.02" stroke-dasharray="22.736" stroke-dashoffset="22.736"><animate attributeName="stroke-dashoffset" values="22.736" fill="freeze" begin="9a13.click" /><animate attributeName="stroke-dashoffset" values="22.736;22.736;0" keyTimes="0;0.826;1" dur="1.308s" fill="freeze" begin="0s;9a13.click" /></path><path d="M18.26,45.62c6.26-0.59,15.75-2.35,18.44-2.74c0.94-0.14,2.53-0.25,3-0.03" stroke-dasharray="21.668" stroke-dashoffset="21.668"><animate attributeName="stroke-dashoffset" values="21.668" fill="freeze" begin="9a13.click" /><animate attributeName="stroke-dashoffset" values="21.668;21.668;0" keyTimes="0;0.858;1" dur="1.525s" fill="freeze" begin="0s;9a13.click" /></path><path d="M17.74,60.65c6.17-1.41,18.79-4.07,22.18-4.63c3.08-0.51,4.58,1.49,4.2,6.45C43.33,72.8,41.55,84.12,38.75,91c-2.43,5.96-5,2.12-6.71-0.86" stroke-dasharray="71.262" stroke-dashoffset="71.262"><animate attributeName="stroke-dashoffset" values="71.262" fill="freeze" begin="9a13.click" /><animate attributeName="stroke-dashoffset" values="71.262;71.262;0" keyTimes="0;0.74;1" dur="2.061s" fill="freeze" begin="0s;9a13.click" /></path><path d="M10.54,74.75c0.37,6.29-0.75,11.82-1.14,13.07" stroke-dasharray="13.169" stroke-dashoffset="13.169"><animate attributeName="stroke-dashoffset" values="13.169" fill="freeze" begin="9a13.click" /><animate attributeName="stroke-dashoffset" values="13.169;13.169;0" keyTimes="0;0.94;1" dur="2.193s" fill="freeze" begin="0s;9a13.click" /></path><path d="M16.62,71.25c1.38,2.54,2.5,6.88,2.88,10.25" stroke-dasharray="10.701" stroke-dashoffset="10.701"><animate attributeName="stroke-dashoffset" values="10.701" fill="freeze" begin="9a13.click" /><animate attributeName="stroke-dashoffset" values="10.701;10.701;0" keyTimes="0;0.953;1" dur="2.3s" fill="freeze" begin="0s;9a13.click" /></path><path d="M23.8,68.47c1.45,2.28,2.82,5.53,3.33,8.03" stroke-dasharray="8.735" stroke-dashoffset="8.735"><animate attributeName="stroke-dashoffset" values="8.735" fill="freeze" begin="9a13.click" /><animate attributeName="stroke-dashoffset" values="8.735;8.735;0" keyTimes="0;0.964;1" dur="2.387s" fill="freeze" begin="0s;9a13.click" /></path><path d="M30.5,64.5c1.75,1.75,4.36,4.24,4.96,7" stroke-dasharray="8.697" stroke-dashoffset="8.697"><animate attributeName="stroke-dashoffset" values="8.697" fill="freeze" begin="9a13.click" /><animate attributeName="stroke-dashoffset" values="8.697;8.697;0" keyTimes="0;0.965;1" dur="2.474s" fill="freeze" begin="0s;9a13.click" /></path><path d="M66.48,11.5c0.06,0.71,0.27,1.89-0.11,2.87c-2.69,6.92-9.61,18.97-20.22,27.5" stroke-dasharray="37.38" stroke-dashoffset="37.38"><animate attributeName="stroke-dashoffset" values="37.38" fill="freeze" begin="9a13.click" /><animate attributeName="stroke-dashoffset" values="37.38;37.38;0" keyTimes="0;0.869;1" dur="2.848s" fill="freeze" begin="0s;9a13.click" /></path><path d="M66.9,14.12c2.71,4.05,15.43,16.09,20.95,21.39c1.79,1.73,3.39,3.23,5.77,3.86" stroke-dasharray="36.996" stroke-dashoffset="36.996"><animate attributeName="stroke-dashoffset" values="36.996" fill="freeze" begin="9a13.click" /><animate attributeName="stroke-dashoffset" values="36.996;36.996;0" keyTimes="0;0.885;1" dur="3.218s" fill="freeze" begin="0s;9a13.click" /></path><path d="M56.48,40.4c1.52,0.23,2.76,0.31,3.79,0.12c5.48-1.01,10.48-1.76,15.14-2.2c1.18-0.11,3.34-0.18,4.63,0.01" stroke-dasharray="23.752" stroke-dashoffset="23.752"><animate attributeName="stroke-dashoffset" values="23.752" fill="freeze" begin="9a13.click" /><animate attributeName="stroke-dashoffset" values="23.752;23.752;0" keyTimes="0;0.931;1" dur="3.456s" fill="freeze" begin="0s;9a13.click" /></path><path d="M50.39,52.87c0.78,0.6,1.24,1.38,1.37,2.35c0.95,3.27,1.88,9.24,2.62,14.27c0.18,1.23,0.36,2.41,0.52,3.48" stroke-dasharray="20.832" stroke-dashoffset="20.832"><animate attributeName="stroke-dashoffset" values="20.832" fill="freeze" begin="9a13.click" /><animate attributeName="stroke-dashoffset" values="20.832;20.832;0" keyTimes="0;0.943;1" dur="3.664s" fill="freeze" begin="0s;9a13.click" /></path><path d="M52.77,54.03c10.35-1.28,26.78-2.78,31.61-3.26c1.77-0.17,2.83,1.76,2.57,2.79c-1.05,4.26-1.71,5.44-3.48,13.57" stroke-dasharray="50.126" stroke-dashoffset="50.126"><animate attributeName="stroke-dashoffset" values="50.126" fill="freeze" begin="9a13.click" /><animate attributeName="stroke-dashoffset" values="50.126;50.126;0" keyTimes="0;0.88;1" dur="4.165s" fill="freeze" begin="0s;9a13.click" /></path><path d="M55.28,69.97c4.64-0.44,17.59-1.68,26.08-2.41c1.89-0.16,3.56-0.3,4.87-0.4" stroke-dasharray="31.079" stroke-dashoffset="31.079"><animate attributeName="stroke-dashoffset" values="31.079" fill="freeze" begin="9a13.click" /><animate attributeName="stroke-dashoffset" values="31.079;31.079;0" keyTimes="0;0.931;1" dur="4.476s" fill="freeze" begin="0s;9a13.click" /></path><path d="M66.72,42.5c0.9,1.25,1.35,2.83,1.37,4.63c0.41,26.49-4.84,39.12-23.95,49.62" stroke-dasharray="63.758" stroke-dashoffset="63.758"><animate attributeName="stroke-dashoffset" values="63.758" fill="freeze" begin="9a13.click" /><animate attributeName="stroke-dashoffset" values="63.758;63.758;0" keyTimes="0;0.903;1" dur="4.955s" fill="freeze" begin="0s;9a13.click" /></path><path d="M68.15,69.87c2.67,4.03,15.45,15.9,21.14,21.32c1.88,1.79,3.43,3.34,5.96,4.06" stroke-dasharray="37.349" stroke-dashoffset="37.349"><animate attributeName="stroke-dashoffset" values="37.349" fill="freeze" begin="9a13.click" /><animate attributeName="stroke-dashoffset" values="37.349;37.349;0" keyTimes="0;0.93;1" dur="5.328s" fill="freeze" begin="0s;9a13.click" /></path></g></svg>