<svg xmlns="http://www.w3.org/2000/svg" width="109" height="109" viewBox="0 0 109 109" id="9a28"><g fill="none" stroke="#666" stroke-width="6" stroke-linecap="round" stroke-linejoin="round"><g><g><path d="M16.74,19.12c-0.02,5.16-0.21,39.63-0.99,42.63" /><path d="M14.48,18.9c0.8-0.02,2.74-0.06,3.79-0.13c7.82-0.52,20.4-2.33,22.76-2.67c0.94-0.14,2.53-0.25,3-0.03" /><path d="M29.31,18.82c0.25,0.38,0.96,0.88,0.95,1.49c-0.02,6.17-0.06,28.46-0.25,38.16" /><path d="M17.16,32.59c6.26-0.58,19.75-1.6,22.44-1.99c0.94-0.14,2.53-0.24,3-0.02" /><path d="M17.26,45.62c6.26-0.59,20.25-2.1,22.94-2.49c0.94-0.14,2.53-0.25,3-0.03" /><path d="M16.49,61.15c6.17-1.41,20.04-3.54,23.43-4.13c4.33-0.76,4.69,2.31,4.45,5.95C43.7,73.31,41.46,84.8,38.25,91.5c-2.75,5.75-5.32,0.41-6.21-0.86" /><g><path d="M11.74,73.5c0.01,5-0.74,9.75-2.53,12.82" /><path d="M17.11,72.25c1.22,2.78,2.75,5.79,3.03,10.75" /><path d="M24.59,70.72c0.7,1.03,3.2,4.42,3.51,7.78" /><path d="M32.25,67.25c1.25,2.01,3.3,4.09,3.75,6.75" /></g></g><g><g><path d="M50.05,15.53c3.3,3.42,6.83,9.4,7.3,11.11" /><path d="M64.02,12.89c2.03,2.29,6.91,8.29,7.72,12" /><path d="M89.17,11.41c0.59,0.86,1.17,1.89,0.39,3.45c-1.81,3.63-6.33,9.79-8.41,12.38" /></g><g><g p6:partial xmlns:p6="http://kanjivg.tagaini.net"><path d="M50.7,32.98c0.29,0.46,0.29,0.78,0.45,1.36c1.29,4.77,3.56,16.78,4.38,25.64" /><path d="M52.04,34.32c10.76-1.6,29.48-3.22,36.89-4.04c2.73-0.3,4.37,0.65,4.29,2.66c-0.19,4.78-4.17,21.02-4.65,23.01" /><path d="M54.71,45.5c3.23-0.38,33.77-3.17,36.44-3.29" /><path d="M56.02,57.79c9.37-1.52,22.36-2.34,32.61-3.28" /></g><g><path d="M49.42,70.74c1.27,0.35,3.61,0.49,4.87,0.35c9.88-1.1,26.79-2.5,40.35-3.42c2.1-0.14,3.39,0.17,4.45,0.34" /></g><g><g><path d="M71.52,34.06c0.52,0.35,0.84,1.32,0.85,2.5c0.03,6,0.15,59.84,0.17,61.79" /></g></g></g></g></g></g><g fill="none" stroke="#000" stroke-width="3" stroke-linecap="round" stroke-linejoin="round"><path d="M16.74,19.12c-0.02,5.16-0.21,39.63-0.99,42.63" stroke-dasharray="42.657" stroke-dashoffset="42.657"><animate attributeName="stroke-dashoffset" values="42.657;42.657;0" dur="0.427s" fill="freeze" begin="0s;9a28.click" /></path><path d="M14.48,18.9c0.8-0.02,2.74-0.06,3.79-0.13c7.82-0.52,20.4-2.33,22.76-2.67c0.94-0.14,2.53-0.25,3-0.03" stroke-dasharray="29.735" stroke-dashoffset="29.735"><animate attributeName="stroke-dashoffset" values="29.735" fill="freeze" begin="9a28.click" /><animate attributeName="stroke-dashoffset" values="29.735;29.735;0" keyTimes="0;0.59;1" dur="0.724s" fill="freeze" begin="0s;9a28.click" /></path><path d="M29.31,18.82c0.25,0.38,0.96,0.88,0.95,1.49c-0.02,6.17-0.06,28.46-0.25,38.16" stroke-dasharray="39.968" stroke-dashoffset="39.968"><animate attributeName="stroke-dashoffset" values="39.968" fill="freeze" begin="9a28.click" /><animate attributeName="stroke-dashoffset" values="39.968;39.968;0" keyTimes="0;0.644;1" dur="1.124s" fill="freeze" begin="0s;9a28.click" /></path><path d="M17.16,32.59c6.26-0.58,19.75-1.6,22.44-1.99c0.94-0.14,2.53-0.24,3-0.02" stroke-dasharray="25.551" stroke-dashoffset="25.551"><animate attributeName="stroke-dashoffset" values="25.551" fill="freeze" begin="9a28.click" /><animate attributeName="stroke-dashoffset" values="25.551;25.551;0" keyTimes="0;0.814;1" dur="1.38s" fill="freeze" begin="0s;9a28.click" /></path><path d="M17.26,45.62c6.26-0.59,20.25-2.1,22.94-2.49c0.94-0.14,2.53-0.25,3-0.03" stroke-dasharray="26.098" stroke-dashoffset="26.098"><animate attributeName="stroke-dashoffset" values="26.098" fill="freeze" begin="9a28.click" /><animate attributeName="stroke-dashoffset" values="26.098;26.098;0" keyTimes="0;0.841;1" dur="1.641s" fill="freeze" begin="0s;9a28.click" /></path><path d="M16.49,61.15c6.17-1.41,20.04-3.54,23.43-4.13c4.33-0.76,4.69,2.31,4.45,5.95C43.7,73.31,41.46,84.8,38.25,91.5c-2.75,5.75-5.32,0.41-6.21-0.86" stroke-dasharray="71.377" stroke-dashoffset="71.377"><animate attributeName="stroke-dashoffset" values="71.377" fill="freeze" begin="9a28.click" /><animate attributeName="stroke-dashoffset" values="71.377;71.377;0" keyTimes="0;0.753;1" dur="2.178s" fill="freeze" begin="0s;9a28.click" /></path><path d="M11.74,73.5c0.01,5-0.74,9.75-2.53,12.82" stroke-dasharray="13.206" stroke-dashoffset="13.206"><animate attributeName="stroke-dashoffset" values="13.206" fill="freeze" begin="9a28.click" /><animate attributeName="stroke-dashoffset" values="13.206;13.206;0" keyTimes="0;0.943;1" dur="2.31s" fill="freeze" begin="0s;9a28.click" /></path><path d="M17.11,72.25c1.22,2.78,2.75,5.79,3.03,10.75" stroke-dasharray="11.248" stroke-dashoffset="11.248"><animate attributeName="stroke-dashoffset" values="11.248" fill="freeze" begin="9a28.click" /><animate attributeName="stroke-dashoffset" values="11.248;11.248;0" keyTimes="0;0.954;1" dur="2.422s" fill="freeze" begin="0s;9a28.click" /></path><path d="M24.59,70.72c0.7,1.03,3.2,4.42,3.51,7.78" stroke-dasharray="8.63" stroke-dashoffset="8.63"><animate attributeName="stroke-dashoffset" values="8.63" fill="freeze" begin="9a28.click" /><animate attributeName="stroke-dashoffset" values="8.63;8.63;0" keyTimes="0;0.966;1" dur="2.508s" fill="freeze" begin="0s;9a28.click" /></path><path d="M32.25,67.25c1.25,2.01,3.3,4.09,3.75,6.75" stroke-dasharray="7.79" stroke-dashoffset="7.79"><animate attributeName="stroke-dashoffset" values="7.79" fill="freeze" begin="9a28.click" /><animate attributeName="stroke-dashoffset" values="7.79;7.79;0" keyTimes="0;0.97;1" dur="2.586s" fill="freeze" begin="0s;9a28.click" /></path><path d="M50.05,15.53c3.3,3.42,6.83,9.4,7.3,11.11" stroke-dasharray="13.363" stroke-dashoffset="13.363"><animate attributeName="stroke-dashoffset" values="13.363" fill="freeze" begin="9a28.click" /><animate attributeName="stroke-dashoffset" values="13.363;13.363;0" keyTimes="0;0.951;1" dur="2.72s" fill="freeze" begin="0s;9a28.click" /></path><path d="M64.02,12.89c2.03,2.29,6.91,8.29,7.72,12" stroke-dasharray="14.377" stroke-dashoffset="14.377"><animate attributeName="stroke-dashoffset" values="14.377" fill="freeze" begin="9a28.click" /><animate attributeName="stroke-dashoffset" values="14.377;14.377;0" keyTimes="0;0.95;1" dur="2.864s" fill="freeze" begin="0s;9a28.click" /></path><path d="M89.17,11.41c0.59,0.86,1.17,1.89,0.39,3.45c-1.81,3.63-6.33,9.79-8.41,12.38" stroke-dasharray="18.676" stroke-dashoffset="18.676"><animate attributeName="stroke-dashoffset" values="18.676" fill="freeze" begin="9a28.click" /><animate attributeName="stroke-dashoffset" values="18.676;18.676;0" keyTimes="0;0.939;1" dur="3.051s" fill="freeze" begin="0s;9a28.click" /></path><path d="M50.7,32.98c0.29,0.46,0.29,0.78,0.45,1.36c1.29,4.77,3.56,16.78,4.38,25.64" stroke-dasharray="27.474" stroke-dashoffset="27.474"><animate attributeName="stroke-dashoffset" values="27.474" fill="freeze" begin="9a28.click" /><animate attributeName="stroke-dashoffset" values="27.474;27.474;0" keyTimes="0;0.917;1" dur="3.326s" fill="freeze" begin="0s;9a28.click" /></path><path d="M52.04,34.32c10.76-1.6,29.48-3.22,36.89-4.04c2.73-0.3,4.37,0.65,4.29,2.66c-0.19,4.78-4.17,21.02-4.65,23.01" stroke-dasharray="66.48" stroke-dashoffset="66.48"><animate attributeName="stroke-dashoffset" values="66.48" fill="freeze" begin="9a28.click" /><animate attributeName="stroke-dashoffset" values="66.48;66.48;0" keyTimes="0;0.869;1" dur="3.826s" fill="freeze" begin="0s;9a28.click" /></path><path d="M54.71,45.5c3.23-0.38,33.77-3.17,36.44-3.29" stroke-dasharray="36.59" stroke-dashoffset="36.59"><animate attributeName="stroke-dashoffset" values="36.59" fill="freeze" begin="9a28.click" /><animate attributeName="stroke-dashoffset" values="36.59;36.59;0" keyTimes="0;0.913;1" dur="4.192s" fill="freeze" begin="0s;9a28.click" /></path><path d="M56.02,57.79c9.37-1.52,22.36-2.34,32.61-3.28" stroke-dasharray="32.783" stroke-dashoffset="32.783"><animate attributeName="stroke-dashoffset" values="32.783" fill="freeze" begin="9a28.click" /><animate attributeName="stroke-dashoffset" values="32.783;32.783;0" keyTimes="0;0.927;1" dur="4.52s" fill="freeze" begin="0s;9a28.click" /></path><path d="M49.42,70.74c1.27,0.35,3.61,0.49,4.87,0.35c9.88-1.1,26.79-2.5,40.35-3.42c2.1-0.14,3.39,0.17,4.45,0.34" stroke-dasharray="49.877" stroke-dashoffset="49.877"><animate attributeName="stroke-dashoffset" values="49.877" fill="freeze" begin="9a28.click" /><animate attributeName="stroke-dashoffset" values="49.877;49.877;0" keyTimes="0;0.901;1" dur="5.019s" fill="freeze" begin="0s;9a28.click" /></path><path d="M71.52,34.06c0.52,0.35,0.84,1.32,0.85,2.5c0.03,6,0.15,59.84,0.17,61.79" stroke-dasharray="64.518" stroke-dashoffset="64.518"><animate attributeName="stroke-dashoffset" values="64.518" fill="freeze" begin="9a28.click" /><animate attributeName="stroke-dashoffset" values="64.518;64.518;0" keyTimes="0;0.912;1" dur="5.504s" fill="freeze" begin="0s;9a28.click" /></path></g></svg>