<svg xmlns="http://www.w3.org/2000/svg" width="109" height="109" viewBox="0 0 109 109" id="9a69"><g fill="none" stroke="#666" stroke-width="9" stroke-linecap="round" stroke-linejoin="round"><g><g><path d="M13.74,16.38c1.01,1.12,1,3.4,0.99,4.86c-0.05,10.36-0.29,39.9-0.98,42.8" /><path d="M15.27,18c7.82-0.57,21.4-2.52,23.76-2.9c0.94-0.15,2.53-0.27,3-0.03" /><path d="M27.31,18.06c0.25,0.41,0.96,0.95,0.95,1.61c-0.02,6.69-0.06,30.3-0.25,40.82" /><path d="M15.16,32.48c6.26-0.63,18.25-2.73,20.94-3.16c0.94-0.15,2.53-0.26,3-0.03" /><path d="M14.76,45.61c6.26-0.64,18.75-2.77,21.44-3.2c0.94-0.15,2.53-0.27,3-0.03" /><path d="M14.49,63.39c6.17-1.53,22.03-3.92,25.43-4.52c2.08-0.37,4.19,0.54,3.95,4.49C43.2,74.57,40,87.75,35.75,95.28c-3.35,5.93-5.32,0.44-6.21-0.93" /><g><path d="M12.49,75.65c0.42,5.86-1.36,10.52-1.81,11.69" /><path d="M19,73.28c1.08,2.28,2,5.15,2.25,9.21" /><path d="M25.94,70.68c0.56,1.11,2.56,4.79,2.81,8.43" /><path d="M32.75,66.96c1.25,2.18,3.3,4.43,3.75,7.32" /></g></g><g><g><path d="M46.13,19.62c1.35,0.55,2.91,0.66,4.26,0.55c12.37-1.01,28.63-3.86,42.9-3.93c2.24-0.01,3.59,0.26,4.71,0.54" /><path d="M60.11,11.48c0.93,0.96,1.23,1.25,1.33,1.85c0.93,5.54,0.73,11.25,1,13.26" /><path d="M81.26,10.28c0.16,0.81,0.38,1.41,0.2,2.41c-1.08,5.85-1.07,7.28-2.24,12.78" /></g><g><g><path d="M48.67,31.43c0.27,0.24,0.54,0.44,0.66,0.74c0.93,2.37,2.04,8.92,2.68,13.18" /><path d="M50.34,33.03c5.49-1.24,12.17-2.1,15.31-2.41c1.15-0.11,1.84,0.68,1.68,1.34c-0.68,2.77-1.48,5.61-2.49,9.45" /><path d="M52.14,43.26c3.69-0.35,9.86-1.47,14.93-2.01" /></g><g><path d="M72.75,28.22c0.26,0.26,0.53,0.48,0.65,0.8c0.91,2.57,2.01,8.6,2.63,13.22" /><path d="M74.39,29.96c5.39-1.34,13.96-2.29,17.04-2.63c1.13-0.12,1.81,0.73,1.65,1.46c-0.67,3-1.45,5.04-2.44,9.19" /><path d="M76.16,39.98c3.63-0.38,11.13-1.04,16.11-1.63" /></g><g><g><path d="M60.77,47.3c0.13,1.12-0.04,2.6-0.44,3.56C57.73,57,54.44,62.2,48.5,69.67" /><path d="M55.6,59.64c0.59,0.64,1.05,2.04,1.09,3.03C57.04,71.5,56.2,95.41,56.5,100" /></g><path d="M78.28,46.34c0.04,0.51-0.01,1.17-0.16,1.61c-0.94,2.77-2.14,4.91-4.3,8.28" /><path d="M56.52,59.83C63.4,59,92.1,56.58,95.06,56.13" /><path d="M73.79,58.68c0.33,0.32,0.6,0.77,0.6,1.33c0,5.73,0.04,26.21-0.16,35.23" /><path d="M57.44,70.76c6.5-0.69,31.51-3.26,34.3-3.63" /><path d="M57.22,83.38c6.86-0.58,32.5-2.83,35.44-3.14" /><path d="M56.65,97.16c6.89-0.83,38.38-2.55,41.34-3.01" /></g></g></g></g></g><g fill="none" stroke="#000" stroke-width="5" stroke-linecap="round" stroke-linejoin="round"><g><g><path d="M13.74,16.38c1.01,1.12,1,3.4,0.99,4.86c-0.05,10.36-0.29,39.9-0.98,42.8" stroke-dasharray="47.89" stroke-dashoffset="47.89"><animate id="0" attributeName="stroke-dashoffset" values="47.89;0" dur="0.48s" fill="freeze" begin="0s;9a69.click" /></path><path d="M15.27,18c7.82-0.57,21.4-2.52,23.76-2.9c0.94-0.15,2.53-0.27,3-0.03" stroke-dasharray="26.97" stroke-dashoffset="26.97"><animate attributeName="stroke-dashoffset" values="26.97" fill="freeze" begin="9a69.click" /><animate id="1" attributeName="stroke-dashoffset" values="26.97;0" dur="0.27s" fill="freeze" begin="0.end" /></path><path d="M27.31,18.06c0.25,0.41,0.96,0.95,0.95,1.61c-0.02,6.69-0.06,30.3-0.25,40.82" stroke-dasharray="42.73" stroke-dashoffset="42.73"><animate attributeName="stroke-dashoffset" values="42.73" fill="freeze" begin="9a69.click" /><animate id="2" attributeName="stroke-dashoffset" values="42.73;0" dur="0.43s" fill="freeze" begin="1.end" /></path><path d="M15.16,32.48c6.26-0.63,18.25-2.73,20.94-3.16c0.94-0.15,2.53-0.26,3-0.03" stroke-dasharray="24.2" stroke-dashoffset="24.2"><animate attributeName="stroke-dashoffset" values="24.2" fill="freeze" begin="9a69.click" /><animate id="3" attributeName="stroke-dashoffset" values="24.2;0" dur="0.24s" fill="freeze" begin="2.end" /></path><path d="M14.76,45.61c6.26-0.64,18.75-2.77,21.44-3.2c0.94-0.15,2.53-0.27,3-0.03" stroke-dasharray="24.71" stroke-dashoffset="24.71"><animate attributeName="stroke-dashoffset" values="24.71" fill="freeze" begin="9a69.click" /><animate id="4" attributeName="stroke-dashoffset" values="24.71;0" dur="0.25s" fill="freeze" begin="3.end" /></path><path d="M14.49,63.39c6.17-1.53,22.03-3.92,25.43-4.52c2.08-0.37,4.19,0.54,3.95,4.49C43.2,74.57,40,87.75,35.75,95.28c-3.35,5.93-5.32,0.44-6.21-0.93" stroke-dasharray="75.42" stroke-dashoffset="75.42"><animate attributeName="stroke-dashoffset" values="75.42" fill="freeze" begin="9a69.click" /><animate id="5" attributeName="stroke-dashoffset" values="75.42;0" dur="0.57s" fill="freeze" begin="4.end" /></path><g><path d="M12.49,75.65c0.42,5.86-1.36,10.52-1.81,11.69" stroke-dasharray="11.92" stroke-dashoffset="11.92"><animate attributeName="stroke-dashoffset" values="11.92" fill="freeze" begin="9a69.click" /><animate id="6" attributeName="stroke-dashoffset" values="11.92;0" dur="0.12s" fill="freeze" begin="5.end" /></path><path d="M19,73.28c1.08,2.28,2,5.15,2.25,9.21" stroke-dasharray="9.54" stroke-dashoffset="9.54"><animate attributeName="stroke-dashoffset" values="9.54" fill="freeze" begin="9a69.click" /><animate id="7" attributeName="stroke-dashoffset" values="9.54;0" dur="0.1s" fill="freeze" begin="6.end" /></path><path d="M25.94,70.68c0.56,1.11,2.56,4.79,2.81,8.43" stroke-dasharray="8.95" stroke-dashoffset="8.95"><animate attributeName="stroke-dashoffset" values="8.95" fill="freeze" begin="9a69.click" /><animate id="8" attributeName="stroke-dashoffset" values="8.95;0" dur="0.09s" fill="freeze" begin="7.end" /></path><path d="M32.75,66.96c1.25,2.18,3.3,4.43,3.75,7.32" stroke-dasharray="8.29" stroke-dashoffset="8.29"><animate attributeName="stroke-dashoffset" values="8.29" fill="freeze" begin="9a69.click" /><animate id="9" attributeName="stroke-dashoffset" values="8.29;0" dur="0.08s" fill="freeze" begin="8.end" /></path></g></g><g><g><path d="M46.13,19.62c1.35,0.55,2.91,0.66,4.26,0.55c12.37-1.01,28.63-3.86,42.9-3.93c2.24-0.01,3.59,0.26,4.71,0.54" stroke-dasharray="52.19" stroke-dashoffset="52.19"><animate attributeName="stroke-dashoffset" values="52.19" fill="freeze" begin="9a69.click" /><animate id="10" attributeName="stroke-dashoffset" values="52.19;0" dur="0.52s" fill="freeze" begin="9.end" /></path><path d="M60.11,11.48c0.93,0.96,1.23,1.25,1.33,1.85c0.93,5.54,0.73,11.25,1,13.26" stroke-dasharray="15.62" stroke-dashoffset="15.62"><animate attributeName="stroke-dashoffset" values="15.62" fill="freeze" begin="9a69.click" /><animate id="11" attributeName="stroke-dashoffset" values="15.62;0" dur="0.16s" fill="freeze" begin="10.end" /></path><path d="M81.26,10.28c0.16,0.81,0.38,1.41,0.2,2.41c-1.08,5.85-1.07,7.28-2.24,12.78" stroke-dasharray="15.42" stroke-dashoffset="15.42"><animate attributeName="stroke-dashoffset" values="15.42" fill="freeze" begin="9a69.click" /><animate id="12" attributeName="stroke-dashoffset" values="15.42;0" dur="0.15s" fill="freeze" begin="11.end" /></path></g><g><g><path d="M48.67,31.43c0.27,0.24,0.54,0.44,0.66,0.74c0.93,2.37,2.04,8.92,2.68,13.18" stroke-dasharray="14.47" stroke-dashoffset="14.47"><animate attributeName="stroke-dashoffset" values="14.47" fill="freeze" begin="9a69.click" /><animate id="13" attributeName="stroke-dashoffset" values="14.47;0" dur="0.14s" fill="freeze" begin="12.end" /></path><path d="M50.34,33.03c5.49-1.24,12.17-2.1,15.31-2.41c1.15-0.11,1.84,0.68,1.68,1.34c-0.68,2.77-1.48,5.61-2.49,9.45" stroke-dasharray="27.78" stroke-dashoffset="27.78"><animate attributeName="stroke-dashoffset" values="27.78" fill="freeze" begin="9a69.click" /><animate id="14" attributeName="stroke-dashoffset" values="27.78;0" dur="0.28s" fill="freeze" begin="13.end" /></path><path d="M52.14,43.26c3.69-0.35,9.86-1.47,14.93-2.01" stroke-dasharray="15.07" stroke-dashoffset="15.07"><animate attributeName="stroke-dashoffset" values="15.07" fill="freeze" begin="9a69.click" /><animate id="15" attributeName="stroke-dashoffset" values="15.07;0" dur="0.15s" fill="freeze" begin="14.end" /></path></g><g><path d="M72.75,28.22c0.26,0.26,0.53,0.48,0.65,0.8c0.91,2.57,2.01,8.6,2.63,13.22" stroke-dasharray="14.53" stroke-dashoffset="14.53"><animate attributeName="stroke-dashoffset" values="14.53" fill="freeze" begin="9a69.click" /><animate id="16" attributeName="stroke-dashoffset" values="14.53;0" dur="0.15s" fill="freeze" begin="15.end" /></path><path d="M74.39,29.96c5.39-1.34,13.96-2.29,17.04-2.63c1.13-0.12,1.81,0.73,1.65,1.46c-0.67,3-1.45,5.04-2.44,9.19" stroke-dasharray="29.33" stroke-dashoffset="29.33"><animate attributeName="stroke-dashoffset" values="29.33" fill="freeze" begin="9a69.click" /><animate id="17" attributeName="stroke-dashoffset" values="29.33;0" dur="0.29s" fill="freeze" begin="16.end" /></path><path d="M76.16,39.98c3.63-0.38,11.13-1.04,16.11-1.63" stroke-dasharray="16.19" stroke-dashoffset="16.19"><animate attributeName="stroke-dashoffset" values="16.19" fill="freeze" begin="9a69.click" /><animate id="18" attributeName="stroke-dashoffset" values="16.19;0" dur="0.16s" fill="freeze" begin="17.end" /></path></g><g><g><path d="M60.77,47.3c0.13,1.12-0.04,2.6-0.44,3.56C57.73,57,54.44,62.2,48.5,69.67" stroke-dasharray="25.92" stroke-dashoffset="25.92"><animate attributeName="stroke-dashoffset" values="25.92" fill="freeze" begin="9a69.click" /><animate id="19" attributeName="stroke-dashoffset" values="25.92;0" dur="0.26s" fill="freeze" begin="18.end" /></path><path d="M55.6,59.64c0.59,0.64,1.05,2.04,1.09,3.03C57.04,71.5,56.2,95.41,56.5,100" stroke-dasharray="40.61" stroke-dashoffset="40.61"><animate attributeName="stroke-dashoffset" values="40.61" fill="freeze" begin="9a69.click" /><animate id="20" attributeName="stroke-dashoffset" values="40.61;0" dur="0.41s" fill="freeze" begin="19.end" /></path></g><path d="M78.28,46.34c0.04,0.51-0.01,1.17-0.16,1.61c-0.94,2.77-2.14,4.91-4.3,8.28" stroke-dasharray="10.98" stroke-dashoffset="10.98"><animate attributeName="stroke-dashoffset" values="10.98" fill="freeze" begin="9a69.click" /><animate id="21" attributeName="stroke-dashoffset" values="10.98;0" dur="0.11s" fill="freeze" begin="20.end" /></path><path d="M56.52,59.83C63.4,59,92.1,56.58,95.06,56.13" stroke-dasharray="38.72" stroke-dashoffset="38.72"><animate attributeName="stroke-dashoffset" values="38.72" fill="freeze" begin="9a69.click" /><animate id="22" attributeName="stroke-dashoffset" values="38.72;0" dur="0.39s" fill="freeze" begin="21.end" /></path><path d="M73.79,58.68c0.33,0.32,0.6,0.77,0.6,1.33c0,5.73,0.04,26.21-0.16,35.23" stroke-dasharray="36.73" stroke-dashoffset="36.73"><animate attributeName="stroke-dashoffset" values="36.73" fill="freeze" begin="9a69.click" /><animate id="23" attributeName="stroke-dashoffset" values="36.73;0" dur="0.37s" fill="freeze" begin="22.end" /></path><path d="M57.44,70.76c6.5-0.69,31.51-3.26,34.3-3.63" stroke-dasharray="34.49" stroke-dashoffset="34.49"><animate attributeName="stroke-dashoffset" values="34.49" fill="freeze" begin="9a69.click" /><animate id="24" attributeName="stroke-dashoffset" values="34.49;0" dur="0.34s" fill="freeze" begin="23.end" /></path><path d="M57.22,83.38c6.86-0.58,32.5-2.83,35.44-3.14" stroke-dasharray="35.58" stroke-dashoffset="35.58"><animate attributeName="stroke-dashoffset" values="35.58" fill="freeze" begin="9a69.click" /><animate id="25" attributeName="stroke-dashoffset" values="35.58;0" dur="0.36s" fill="freeze" begin="24.end" /></path><path d="M56.65,97.16c6.89-0.83,38.38-2.55,41.34-3.01" stroke-dasharray="41.45" stroke-dashoffset="41.45"><animate attributeName="stroke-dashoffset" values="41.45" fill="freeze" begin="9a69.click" /><animate id="26" attributeName="stroke-dashoffset" values="41.45;0" dur="0.41s" fill="freeze" begin="25.end" /></path></g></g></g></g></g></svg>