<svg xmlns="http://www.w3.org/2000/svg" width="109" height="109" viewBox="0 0 109 109" id="9ade"><g fill="none" stroke="#666" stroke-width="9" stroke-linecap="round" stroke-linejoin="round"><g><g><g><g><path d="M26.92,13.75c0.51,0.49,1.36,2.38,1.36,3.35c0,3.58-0.16,3.68-0.07,6.71" /><path d="M10.15,25.95c0.84,0.08,2.74,0.46,3.57,0.44c6.9-0.14,22.96-3.25,31.91-3.48c1.38-0.04,2.09,0.04,3.12,0.56" /></g><g><path d="M17.18,36.11c0.3,0.25,0.6,0.46,0.73,0.77c1.03,2.46,2.67,8.75,3.38,13.17" /><path d="M19.04,37.78c6.08-1.28,16.44-3.7,19.93-4.03c1.27-0.12,2.04,1.47,1.86,2.16c-0.75,2.88-1.59,6.31-2.71,10.28" /><path d="M21.43,48.89c4.09-0.37,12.33-1.77,17.95-2.33" /></g></g><g><g><path d="M12.75,57.51c1,0.99,1.45,2.15,1.57,4.32c0.29,5.07,1.18,21.92,1.44,29.67" /><path d="M14.59,59.9c7.16-0.65,26.08-4.48,27.08-4.77c2.46-0.72,3.42,1.37,3.42,3.98c0,8.99-0.09,21.14-1.51,28.81c-1.18,6.34-4.18,1.69-5.63,0" /></g><g><path d="M21.71,67.49c0.2,0.24,0.4,0.44,0.49,0.74c0.69,2.39,2.01,8.48,2.48,12.76" /><path d="M22.95,69.11c4.06-1.24,8.98-2.99,11.3-3.44c0.94-0.18,1.85,0.98,1.76,2.13c-0.23,2.87-1.09,5.38-1.84,9.24" /><path d="M24.78,78.9c2.73-0.35,7.49-0.97,11.23-1.51" /></g></g></g><g><g><g><path d="M57.04,17.22c0.4,0.27,0.8,0.5,0.98,0.84c1.38,2.71,2.91,8.91,3.86,13.78" /><path d="M59.09,19.04c8.12-1.41,17.92-3.7,22.58-4.05c1.7-0.13,2.72,1.53,2.48,2.3c-1.01,3.17-1.38,5.99-2.88,10.37" /><path d="M63.17,30c5.46-0.4,12-1.34,19.5-1.96" /></g><g><g><path d="M49.75,40.85c0.25,0.27,0.51,0.5,0.62,0.84c0.88,2.71,2.66,8.19,3.26,13.06" /><path d="M51.32,42.15c6.39-0.99,11.65-2.42,14.6-2.78c1.08-0.13,1.73,0.77,1.58,1.54c-0.64,3.17-1.39,6.25-2.34,10.63" /><path d="M53.75,52.89c3.47-0.4,5.82-0.37,12.29-0.96" /></g><g><path d="M74.92,39.2c0.26,0.27,0.53,0.5,0.65,0.84c0.91,2.71,1.95,6.91,2.58,11.78" /><path d="M76.56,40.26c6.67-0.99,12.79-2.2,15.88-2.56c1.13-0.13,1.81,0.77,1.64,1.54c-0.67,3.17-1.45,5.79-2.44,10.17" /><path d="M78.55,50.74c5.05-0.35,7.18-0.48,15.05-0.94" /></g></g></g><g><path d="M50.15,66.05c1.41,0.41,3.02,0.54,4.64,0.41c8.27-0.67,24.48-3.53,37-4.32c1.61-0.1,2.62,0.07,4.24,0.36" /><path d="M69.04,54.67c1.35,0.54,2.43,2.4,2.43,3.51c0,11.34-0.27,31.82-0.27,39.16" /><path d="M68.3,65.43C64.6,72.83,54.69,84.16,47,88.35" /><path d="M71.79,65.25C75.5,70,88.5,83.75,93.62,86.53c1.37,0.74,2.2,1.45,3.38,1.74" /></g></g></g></g><g fill="none" stroke="#000" stroke-width="5" stroke-linecap="round" stroke-linejoin="round"><g><g><g><g><path d="M26.92,13.75c0.51,0.49,1.36,2.38,1.36,3.35c0,3.58-0.16,3.68-0.07,6.71" stroke-dasharray="10.38" stroke-dashoffset="10.38"><animate id="0" attributeName="stroke-dashoffset" values="10.38;0" dur="0.1s" fill="freeze" begin="0s;9ade.click" /></path><path d="M10.15,25.95c0.84,0.08,2.74,0.46,3.57,0.44c6.9-0.14,22.96-3.25,31.91-3.48c1.38-0.04,2.09,0.04,3.12,0.56" stroke-dasharray="38.93" stroke-dashoffset="38.93"><animate attributeName="stroke-dashoffset" values="38.93" fill="freeze" begin="9ade.click" /><animate id="1" attributeName="stroke-dashoffset" values="38.93;0" dur="0.39s" fill="freeze" begin="0.end" /></path></g><g><path d="M17.18,36.11c0.3,0.25,0.6,0.46,0.73,0.77c1.03,2.46,2.67,8.75,3.38,13.17" stroke-dasharray="14.69" stroke-dashoffset="14.69"><animate attributeName="stroke-dashoffset" values="14.69" fill="freeze" begin="9ade.click" /><animate id="2" attributeName="stroke-dashoffset" values="14.69;0" dur="0.15s" fill="freeze" begin="1.end" /></path><path d="M19.04,37.78c6.08-1.28,16.44-3.7,19.93-4.03c1.27-0.12,2.04,1.47,1.86,2.16c-0.75,2.88-1.59,6.31-2.71,10.28" stroke-dasharray="34.19" stroke-dashoffset="34.19"><animate attributeName="stroke-dashoffset" values="34.19" fill="freeze" begin="9ade.click" /><animate id="3" attributeName="stroke-dashoffset" values="34.19;0" dur="0.34s" fill="freeze" begin="2.end" /></path><path d="M21.43,48.89c4.09-0.37,12.33-1.77,17.95-2.33" stroke-dasharray="18.1" stroke-dashoffset="18.1"><animate attributeName="stroke-dashoffset" values="18.1" fill="freeze" begin="9ade.click" /><animate id="4" attributeName="stroke-dashoffset" values="18.1;0" dur="0.18s" fill="freeze" begin="3.end" /></path></g></g><g><g><path d="M12.75,57.51c1,0.99,1.45,2.15,1.57,4.32c0.29,5.07,1.18,21.92,1.44,29.67" stroke-dasharray="34.42" stroke-dashoffset="34.42"><animate attributeName="stroke-dashoffset" values="34.42" fill="freeze" begin="9ade.click" /><animate id="5" attributeName="stroke-dashoffset" values="34.42;0" dur="0.34s" fill="freeze" begin="4.end" /></path><path d="M14.59,59.9c7.16-0.65,26.08-4.48,27.08-4.77c2.46-0.72,3.42,1.37,3.42,3.98c0,8.99-0.09,21.14-1.51,28.81c-1.18,6.34-4.18,1.69-5.63,0" stroke-dasharray="71.78" stroke-dashoffset="71.78"><animate attributeName="stroke-dashoffset" values="71.78" fill="freeze" begin="9ade.click" /><animate id="6" attributeName="stroke-dashoffset" values="71.78;0" dur="0.54s" fill="freeze" begin="5.end" /></path></g><g><path d="M21.71,67.49c0.2,0.24,0.4,0.44,0.49,0.74c0.69,2.39,2.01,8.48,2.48,12.76" stroke-dasharray="13.9" stroke-dashoffset="13.9"><animate attributeName="stroke-dashoffset" values="13.9" fill="freeze" begin="9ade.click" /><animate id="7" attributeName="stroke-dashoffset" values="13.9;0" dur="0.14s" fill="freeze" begin="6.end" /></path><path d="M22.95,69.11c4.06-1.24,8.98-2.99,11.3-3.44c0.94-0.18,1.85,0.98,1.76,2.13c-0.23,2.87-1.09,5.38-1.84,9.24" stroke-dasharray="24.38" stroke-dashoffset="24.38"><animate attributeName="stroke-dashoffset" values="24.38" fill="freeze" begin="9ade.click" /><animate id="8" attributeName="stroke-dashoffset" values="24.38;0" dur="0.24s" fill="freeze" begin="7.end" /></path><path d="M24.78,78.9c2.73-0.35,7.49-0.97,11.23-1.51" stroke-dasharray="11.33" stroke-dashoffset="11.33"><animate attributeName="stroke-dashoffset" values="11.33" fill="freeze" begin="9ade.click" /><animate id="9" attributeName="stroke-dashoffset" values="11.33;0" dur="0.11s" fill="freeze" begin="8.end" /></path></g></g></g><g><g><g><path d="M57.04,17.22c0.4,0.27,0.8,0.5,0.98,0.84c1.38,2.71,2.91,8.91,3.86,13.78" stroke-dasharray="15.65" stroke-dashoffset="15.65"><animate attributeName="stroke-dashoffset" values="15.65" fill="freeze" begin="9ade.click" /><animate id="10" attributeName="stroke-dashoffset" values="15.65;0" dur="0.16s" fill="freeze" begin="9.end" /></path><path d="M59.09,19.04c8.12-1.41,17.92-3.7,22.58-4.05c1.7-0.13,2.72,1.53,2.48,2.3c-1.01,3.17-1.38,5.99-2.88,10.37" stroke-dasharray="37.56" stroke-dashoffset="37.56"><animate attributeName="stroke-dashoffset" values="37.56" fill="freeze" begin="9ade.click" /><animate id="11" attributeName="stroke-dashoffset" values="37.56;0" dur="0.38s" fill="freeze" begin="10.end" /></path><path d="M63.17,30c5.46-0.4,12-1.34,19.5-1.96" stroke-dasharray="19.6" stroke-dashoffset="19.6"><animate attributeName="stroke-dashoffset" values="19.6" fill="freeze" begin="9ade.click" /><animate id="12" attributeName="stroke-dashoffset" values="19.6;0" dur="0.2s" fill="freeze" begin="11.end" /></path></g><g><g><path d="M49.75,40.85c0.25,0.27,0.51,0.5,0.62,0.84c0.88,2.71,2.66,8.19,3.26,13.06" stroke-dasharray="14.53" stroke-dashoffset="14.53"><animate attributeName="stroke-dashoffset" values="14.53" fill="freeze" begin="9ade.click" /><animate id="13" attributeName="stroke-dashoffset" values="14.53;0" dur="0.15s" fill="freeze" begin="12.end" /></path><path d="M51.32,42.15c6.39-0.99,11.65-2.42,14.6-2.78c1.08-0.13,1.73,0.77,1.58,1.54c-0.64,3.17-1.39,6.25-2.34,10.63" stroke-dasharray="28.32" stroke-dashoffset="28.32"><animate attributeName="stroke-dashoffset" values="28.32" fill="freeze" begin="9ade.click" /><animate id="14" attributeName="stroke-dashoffset" values="28.32;0" dur="0.28s" fill="freeze" begin="13.end" /></path><path d="M53.75,52.89c3.47-0.4,5.82-0.37,12.29-0.96" stroke-dasharray="12.33" stroke-dashoffset="12.33"><animate attributeName="stroke-dashoffset" values="12.33" fill="freeze" begin="9ade.click" /><animate id="15" attributeName="stroke-dashoffset" values="12.33;0" dur="0.12s" fill="freeze" begin="14.end" /></path></g><g><path d="M74.92,39.2c0.26,0.27,0.53,0.5,0.65,0.84c0.91,2.71,1.95,6.91,2.58,11.78" stroke-dasharray="13.15" stroke-dashoffset="13.15"><animate attributeName="stroke-dashoffset" values="13.15" fill="freeze" begin="9ade.click" /><animate id="16" attributeName="stroke-dashoffset" values="13.15;0" dur="0.13s" fill="freeze" begin="15.end" /></path><path d="M76.56,40.26c6.67-0.99,12.79-2.2,15.88-2.56c1.13-0.13,1.81,0.77,1.64,1.54c-0.67,3.17-1.45,5.79-2.44,10.17" stroke-dasharray="29.18" stroke-dashoffset="29.18"><animate attributeName="stroke-dashoffset" values="29.18" fill="freeze" begin="9ade.click" /><animate id="17" attributeName="stroke-dashoffset" values="29.18;0" dur="0.29s" fill="freeze" begin="16.end" /></path><path d="M78.55,50.74c5.05-0.35,7.18-0.48,15.05-0.94" stroke-dasharray="15.08" stroke-dashoffset="15.08"><animate attributeName="stroke-dashoffset" values="15.08" fill="freeze" begin="9ade.click" /><animate id="18" attributeName="stroke-dashoffset" values="15.08;0" dur="0.15s" fill="freeze" begin="17.end" /></path></g></g></g><g><path d="M50.15,66.05c1.41,0.41,3.02,0.54,4.64,0.41c8.27-0.67,24.48-3.53,37-4.32c1.61-0.1,2.62,0.07,4.24,0.36" stroke-dasharray="46.21" stroke-dashoffset="46.21"><animate attributeName="stroke-dashoffset" values="46.21" fill="freeze" begin="9ade.click" /><animate id="19" attributeName="stroke-dashoffset" values="46.21;0" dur="0.46s" fill="freeze" begin="18.end" /></path><path d="M69.04,54.67c1.35,0.54,2.43,2.4,2.43,3.51c0,11.34-0.27,31.82-0.27,39.16" stroke-dasharray="43.62" stroke-dashoffset="43.62"><animate attributeName="stroke-dashoffset" values="43.62" fill="freeze" begin="9ade.click" /><animate id="20" attributeName="stroke-dashoffset" values="43.62;0" dur="0.44s" fill="freeze" begin="19.end" /></path><path d="M68.3,65.43C64.6,72.83,54.69,84.16,47,88.35" stroke-dasharray="31.63" stroke-dashoffset="31.63"><animate attributeName="stroke-dashoffset" values="31.63" fill="freeze" begin="9ade.click" /><animate id="21" attributeName="stroke-dashoffset" values="31.63;0" dur="0.32s" fill="freeze" begin="20.end" /></path><path d="M71.79,65.25C75.5,70,88.5,83.75,93.62,86.53c1.37,0.74,2.2,1.45,3.38,1.74" stroke-dasharray="34.4" stroke-dashoffset="34.4"><animate attributeName="stroke-dashoffset" values="34.4" fill="freeze" begin="9ade.click" /><animate id="22" attributeName="stroke-dashoffset" values="34.4;0" dur="0.34s" fill="freeze" begin="21.end" /></path></g></g></g></g></svg>