<svg xmlns="http://www.w3.org/2000/svg" width="109" height="109" viewBox="0 0 109 109" id="9aea"><g fill="none" stroke="#666" stroke-width="9" stroke-linecap="round" stroke-linejoin="round"><g><g><g><path d="M27.25,16.31c0.97,0.97,1.14,2.06,1.14,3.46c0,1.02-0.02,19.11-0.02,23.48" /><path d="M28.94,17.83c6.08-0.77,12.75-1.65,18.95-2.58c1.59-0.24,2.93-0.5,4.51-0.21" /><path d="M29.52,27.14c3.77-0.32,11.06-1.59,15.01-2.12c1.53-0.2,3.29-0.61,4.83-0.28" /><path d="M29.78,35.63c3.61-0.3,10.63-1.31,14.72-1.81c1.67-0.21,3.68-0.7,5.36-0.34" /><path d="M14.38,45.02c1.83,0.48,3.91,0.18,5.76,0.03c7.81-0.64,20.09-2.55,29.85-3.15c2.16-0.13,4.33-0.3,6.48,0.04" /><g><path d="M30.98,46.37c0.12,0.8-0.46,1.61-0.94,2.17c-2.69,3.1-4.41,4.7-7.18,7.47c-1.04,1.04-0.78,2.57,1.11,2.09c7.29-1.85,14.29-3.6,24.16-6.35" /><path d="M44.62,47.25c2.54,1.21,6.57,4.96,7.2,6.83" /></g></g><g><g><path d="M83.24,13c-0.37,0.88-0.74,1.45-1.47,2.04c-3.17,2.54-8.84,5.45-19.21,8.53" /></g><g><path d="M86.36,26.03c-0.11,0.84-0.78,1.65-1.38,2.1c-4.03,2.99-12.29,7.74-24.65,11.23" /></g><g><path d="M89.83,41.29c-0.21,0.83-0.86,1.69-1.45,2.02C83.62,46,76.75,49.75,61.43,53.5" /></g></g></g><g p4:phon="友" xmlns:p4="http://kanjivg.tagaini.net"><path d="M21.74,66.24c2.53,0.9,5.53,0.67,8.13,0.32c14.64-1.95,33.36-4.89,51.13-5.37c2.74-0.07,5.44-0.14,8.14,0.44" /><path d="M51.28,58.55c0.08,0.82,0.04,1.94-0.42,3.06C47.5,69.75,37.5,86,21,93.5" /><g><path d="M47.68,73.46c1.49,0.11,2.9,0,4.35-0.33c4.63-1.05,10.71-2.46,14.96-3.4c2.68-0.59,3.13,1.15,2.04,2.96c-3.92,6.5-18.91,21.07-36.99,25.82" /><path d="M43.28,78.16c3.85,1.34,23.42,12.34,33.05,16.8c3.05,1.42,6.52,2.99,9.88,3.41" /></g></g></g></g><g fill="none" stroke="#000" stroke-width="5" stroke-linecap="round" stroke-linejoin="round"><g><g><g><path d="M27.25,16.31c0.97,0.97,1.14,2.06,1.14,3.46c0,1.02-0.02,19.11-0.02,23.48" stroke-dasharray="27.236" stroke-dashoffset="27.236"><animate attributeName="stroke-dashoffset" values="27.236;27.236;0" dur="0.272s" fill="freeze" begin="0s;9aea.click" /></path><path d="M28.94,17.83c6.08-0.77,12.75-1.65,18.95-2.58c1.59-0.24,2.93-0.5,4.51-0.21" stroke-dasharray="23.666" stroke-dashoffset="23.666"><animate attributeName="stroke-dashoffset" values="23.666" fill="freeze" begin="9aea.click" /><animate attributeName="stroke-dashoffset" values="23.666;23.666;0" keyTimes="0;0.534;1" dur="0.509s" fill="freeze" begin="0s;9aea.click" /></path><path d="M29.52,27.14c3.77-0.32,11.06-1.59,15.01-2.12c1.53-0.2,3.29-0.61,4.83-0.28" stroke-dasharray="20.027" stroke-dashoffset="20.027"><animate attributeName="stroke-dashoffset" values="20.027" fill="freeze" begin="9aea.click" /><animate attributeName="stroke-dashoffset" values="20.027;20.027;0" keyTimes="0;0.718;1" dur="0.709s" fill="freeze" begin="0s;9aea.click" /></path><path d="M29.78,35.63c3.61-0.3,10.63-1.31,14.72-1.81c1.67-0.21,3.68-0.7,5.36-0.34" stroke-dasharray="20.232" stroke-dashoffset="20.232"><animate attributeName="stroke-dashoffset" values="20.232" fill="freeze" begin="9aea.click" /><animate attributeName="stroke-dashoffset" values="20.232;20.232;0" keyTimes="0;0.778;1" dur="0.911s" fill="freeze" begin="0s;9aea.click" /></path><path d="M14.38,45.02c1.83,0.48,3.91,0.18,5.76,0.03c7.81-0.64,20.09-2.55,29.85-3.15c2.16-0.13,4.33-0.3,6.48,0.04" stroke-dasharray="42.304" stroke-dashoffset="42.304"><animate attributeName="stroke-dashoffset" values="42.304" fill="freeze" begin="9aea.click" /><animate attributeName="stroke-dashoffset" values="42.304;42.304;0" keyTimes="0;0.683;1" dur="1.334s" fill="freeze" begin="0s;9aea.click" /></path><g><path d="M30.98,46.37c0.12,0.8-0.46,1.61-0.94,2.17c-2.69,3.1-4.41,4.7-7.18,7.47c-1.04,1.04-0.78,2.57,1.11,2.09c7.29-1.85,14.29-3.6,24.16-6.35" stroke-dasharray="41.466" stroke-dashoffset="41.466"><animate attributeName="stroke-dashoffset" values="41.466" fill="freeze" begin="9aea.click" /><animate attributeName="stroke-dashoffset" values="41.466;41.466;0" keyTimes="0;0.763;1" dur="1.749s" fill="freeze" begin="0s;9aea.click" /></path><path d="M44.62,47.25c2.54,1.21,6.57,4.96,7.2,6.83" stroke-dasharray="10.069" stroke-dashoffset="10.069"><animate attributeName="stroke-dashoffset" values="10.069" fill="freeze" begin="9aea.click" /><animate attributeName="stroke-dashoffset" values="10.069;10.069;0" keyTimes="0;0.945;1" dur="1.85s" fill="freeze" begin="0s;9aea.click" /></path></g></g><g><g><path d="M83.24,13c-0.37,0.88-0.74,1.45-1.47,2.04c-3.17,2.54-8.84,5.45-19.21,8.53" stroke-dasharray="23.678" stroke-dashoffset="23.678"><animate attributeName="stroke-dashoffset" values="23.678" fill="freeze" begin="9aea.click" /><animate attributeName="stroke-dashoffset" values="23.678;23.678;0" keyTimes="0;0.886;1" dur="2.087s" fill="freeze" begin="0s;9aea.click" /></path></g><g><path d="M86.36,26.03c-0.11,0.84-0.78,1.65-1.38,2.1c-4.03,2.99-12.29,7.74-24.65,11.23" stroke-dasharray="29.796" stroke-dashoffset="29.796"><animate attributeName="stroke-dashoffset" values="29.796" fill="freeze" begin="9aea.click" /><animate attributeName="stroke-dashoffset" values="29.796;29.796;0" keyTimes="0;0.875;1" dur="2.385s" fill="freeze" begin="0s;9aea.click" /></path></g><g><path d="M89.83,41.29c-0.21,0.83-0.86,1.69-1.45,2.02C83.62,46,76.75,49.75,61.43,53.5" stroke-dasharray="31.46" stroke-dashoffset="31.46"><animate attributeName="stroke-dashoffset" values="31.46" fill="freeze" begin="9aea.click" /><animate attributeName="stroke-dashoffset" values="31.46;31.46;0" keyTimes="0;0.883;1" dur="2.7s" fill="freeze" begin="0s;9aea.click" /></path></g></g></g><g p4:phon="友" xmlns:p4="http://kanjivg.tagaini.net"><path d="M21.74,66.24c2.53,0.9,5.53,0.67,8.13,0.32c14.64-1.95,33.36-4.89,51.13-5.37c2.74-0.07,5.44-0.14,8.14,0.44" stroke-dasharray="67.825" stroke-dashoffset="67.825"><animate attributeName="stroke-dashoffset" values="67.825" fill="freeze" begin="9aea.click" /><animate attributeName="stroke-dashoffset" values="67.825;67.825;0" keyTimes="0;0.841;1" dur="3.21s" fill="freeze" begin="0s;9aea.click" /></path><path d="M51.28,58.55c0.08,0.82,0.04,1.94-0.42,3.06C47.5,69.75,37.5,86,21,93.5" stroke-dasharray="47.746" stroke-dashoffset="47.746"><animate attributeName="stroke-dashoffset" values="47.746" fill="freeze" begin="9aea.click" /><animate attributeName="stroke-dashoffset" values="47.746;47.746;0" keyTimes="0;0.871;1" dur="3.687s" fill="freeze" begin="0s;9aea.click" /></path><g><path d="M47.68,73.46c1.49,0.11,2.9,0,4.35-0.33c4.63-1.05,10.71-2.46,14.96-3.4c2.68-0.59,3.13,1.15,2.04,2.96c-3.92,6.5-18.91,21.07-36.99,25.82" stroke-dasharray="70.877" stroke-dashoffset="70.877"><animate attributeName="stroke-dashoffset" values="70.877" fill="freeze" begin="9aea.click" /><animate attributeName="stroke-dashoffset" values="70.877;70.877;0" keyTimes="0;0.874;1" dur="4.22s" fill="freeze" begin="0s;9aea.click" /></path><path d="M43.28,78.16c3.85,1.34,23.42,12.34,33.05,16.8c3.05,1.42,6.52,2.99,9.88,3.41" stroke-dasharray="47.579" stroke-dashoffset="47.579"><animate attributeName="stroke-dashoffset" values="47.579" fill="freeze" begin="9aea.click" /><animate attributeName="stroke-dashoffset" values="47.579;47.579;0" keyTimes="0;0.899;1" dur="4.696s" fill="freeze" begin="0s;9aea.click" /></path></g></g></g></g></svg>