<svg xmlns="http://www.w3.org/2000/svg" viewBox="0 0 109 109" id="9aed"><g fill="none" stroke="#666" stroke-width="6" stroke-linecap="round" stroke-linejoin="round"><g><g><g><path d="M25.5,13.06c1.39,1.02,1.39,1.19,1.39,2.21s0.46,23.57,0.46,25.1" /><path d="M28.44,15.08C34,14.25,40.5,13,46.6,12.28c1.44-0.17,2.32,0.12,3.05,0.25" /><path d="M27.02,24.39c4.22-0.36,14.11-2.16,17.52-2.52c1.28-0.13,2.58-0.09,3.57,0.12" /><path d="M27.78,32.38c4.22-0.36,14.11-1.66,17.52-2.02c1.28-0.13,2.58-0.09,3.57,0.12" /><path d="M12.88,41.52c0.79,0.21,2.25,0.24,3.05,0.21c8.27-0.35,25.49-3.72,36.77-3.99c1.32-0.03,2.12,0.1,2.78,0.2" /><g><path d="M29.21,42.62c0.06,0.51-0.27,1.25-0.46,1.51c-2.53,3.45-3.26,5.53-6.75,9.38c-0.87,0.97-0.42,2.57,1.07,2.09c5.76-1.85,16.67-5.35,23.24-7.75" /><path d="M42.34,42.98c2.82,1.65,7.28,6.79,7.99,9.35" /></g></g><g><g><path d="M81.99,11c0.05,0.3,0.24,0.82-0.12,1.21c-2.78,2.96-8.95,7.25-20.07,11.11" /></g><g><path d="M84.64,24.78c0.06,0.28,0.28,0.8-0.11,1.14c-2.96,2.6-9.95,7.63-20.45,10.94" /></g><g><path d="M91.08,36.29c0.08,0.34,0.31,0.89-0.16,1.35c-3.18,3.11-13.16,9.05-28.49,12.86" /></g></g></g><g><g><g><path d="M36.32,57.01c1.01,0.28,1.62,1.78,1.82,2.34c0.2,0.57,0.43,24.78,0.43,30.88" /><path d="M38.65,72.02c4.5-0.43,7.82-1.78,12.24-2.2c1.1-0.11,1.38-0.14,2.06,0" /></g><path d="M21.45,68.45c1.01,0.28,1.82,1.76,1.82,2.34C23.25,75.25,24,88.5,24.53,95.27" /><path d="M16.1,97.1c0.43,0.64,2.42,0.89,3.51,0.48C29,94,43.7,89.34,53.29,85.7" /></g><g><path d="M88.56,60.9c0.17,0.26-0.23,1.53-0.66,1.93c-2.77,2.62-11.77,9.35-20.72,12.04" /><path d="M62.46,54.75c1,0.68,1.4,1.07,1.4,2.03c0,3.47,0.11,26.44,0.11,32.57c0,6.14,3.28,8.15,15.57,8.15c13.63,0,14.36-4.71,14.36-9.01" /></g></g></g></g><g fill="none" stroke="#000" stroke-width="3" stroke-linecap="round" stroke-linejoin="round"><path d="M25.5,13.06c1.39,1.02,1.39,1.19,1.39,2.21s0.46,23.57,0.46,25.1" stroke-dasharray="27.891" stroke-dashoffset="27.891"><animate attributeName="stroke-dashoffset" values="27.891;27.891;0" dur="0.279s" fill="freeze" begin="0s;9aed.click" /></path><path d="M28.44,15.08C34,14.25,40.5,13,46.6,12.28c1.44-0.17,2.32,0.12,3.05,0.25" stroke-dasharray="21.455" stroke-dashoffset="21.455"><animate attributeName="stroke-dashoffset" values="21.455" fill="freeze" begin="9aed.click" /><animate attributeName="stroke-dashoffset" values="21.455;21.455;0" keyTimes="0;0.565;1" dur="0.494s" fill="freeze" begin="0s;9aed.click" /></path><path d="M27.02,24.39c4.22-0.36,14.11-2.16,17.52-2.52c1.28-0.13,2.58-0.09,3.57,0.12" stroke-dasharray="21.289" stroke-dashoffset="21.289"><animate attributeName="stroke-dashoffset" values="21.289" fill="freeze" begin="9aed.click" /><animate attributeName="stroke-dashoffset" values="21.289;21.289;0" keyTimes="0;0.699;1" dur="0.707s" fill="freeze" begin="0s;9aed.click" /></path><path d="M27.78,32.38c4.22-0.36,14.11-1.66,17.52-2.02c1.28-0.13,2.58-0.09,3.57,0.12" stroke-dasharray="21.223" stroke-dashoffset="21.223"><animate attributeName="stroke-dashoffset" values="21.223" fill="freeze" begin="9aed.click" /><animate attributeName="stroke-dashoffset" values="21.223;21.223;0" keyTimes="0;0.769;1" dur="0.919s" fill="freeze" begin="0s;9aed.click" /></path><path d="M12.88,41.52c0.79,0.21,2.25,0.24,3.05,0.21c8.27-0.35,25.49-3.72,36.77-3.99c1.32-0.03,2.12,0.1,2.78,0.2" stroke-dasharray="42.86" stroke-dashoffset="42.86"><animate attributeName="stroke-dashoffset" values="42.86" fill="freeze" begin="9aed.click" /><animate attributeName="stroke-dashoffset" values="42.86;42.86;0" keyTimes="0;0.682;1" dur="1.348s" fill="freeze" begin="0s;9aed.click" /></path><path d="M29.21,42.62c0.06,0.51-0.27,1.25-0.46,1.51c-2.53,3.45-3.26,5.53-6.75,9.38c-0.87,0.97-0.42,2.57,1.07,2.09c5.76-1.85,16.67-5.35,23.24-7.75" stroke-dasharray="41.063" stroke-dashoffset="41.063"><animate attributeName="stroke-dashoffset" values="41.063" fill="freeze" begin="9aed.click" /><animate attributeName="stroke-dashoffset" values="41.063;41.063;0" keyTimes="0;0.766;1" dur="1.759s" fill="freeze" begin="0s;9aed.click" /></path><path d="M42.34,42.98c2.82,1.65,7.28,6.79,7.99,9.35" stroke-dasharray="12.471" stroke-dashoffset="12.471"><animate attributeName="stroke-dashoffset" values="12.471" fill="freeze" begin="9aed.click" /><animate attributeName="stroke-dashoffset" values="12.471;12.471;0" keyTimes="0;0.934;1" dur="1.884s" fill="freeze" begin="0s;9aed.click" /></path><path d="M81.99,11c0.05,0.3,0.24,0.82-0.12,1.21c-2.78,2.96-8.95,7.25-20.07,11.11" stroke-dasharray="24.401" stroke-dashoffset="24.401"><animate attributeName="stroke-dashoffset" values="24.401" fill="freeze" begin="9aed.click" /><animate attributeName="stroke-dashoffset" values="24.401;24.401;0" keyTimes="0;0.885;1" dur="2.128s" fill="freeze" begin="0s;9aed.click" /></path><path d="M84.64,24.78c0.06,0.28,0.28,0.8-0.11,1.14c-2.96,2.6-9.95,7.63-20.45,10.94" stroke-dasharray="24.564" stroke-dashoffset="24.564"><animate attributeName="stroke-dashoffset" values="24.564" fill="freeze" begin="9aed.click" /><animate attributeName="stroke-dashoffset" values="24.564;24.564;0" keyTimes="0;0.896;1" dur="2.374s" fill="freeze" begin="0s;9aed.click" /></path><path d="M91.08,36.29c0.08,0.34,0.31,0.89-0.16,1.35c-3.18,3.11-13.16,9.05-28.49,12.86" stroke-dasharray="32.963" stroke-dashoffset="32.963"><animate attributeName="stroke-dashoffset" values="32.963" fill="freeze" begin="9aed.click" /><animate attributeName="stroke-dashoffset" values="32.963;32.963;0" keyTimes="0;0.878;1" dur="2.704s" fill="freeze" begin="0s;9aed.click" /></path><path d="M36.32,57.01c1.01,0.28,1.62,1.78,1.82,2.34c0.2,0.57,0.43,24.78,0.43,30.88" stroke-dasharray="33.952" stroke-dashoffset="33.952"><animate attributeName="stroke-dashoffset" values="33.952" fill="freeze" begin="9aed.click" /><animate attributeName="stroke-dashoffset" values="33.952;33.952;0" keyTimes="0;0.888;1" dur="3.044s" fill="freeze" begin="0s;9aed.click" /></path><path d="M38.65,72.02c4.5-0.43,7.82-1.78,12.24-2.2c1.1-0.11,1.38-0.14,2.06,0" stroke-dasharray="14.518" stroke-dashoffset="14.518"><animate attributeName="stroke-dashoffset" values="14.518" fill="freeze" begin="9aed.click" /><animate attributeName="stroke-dashoffset" values="14.518;14.518;0" keyTimes="0;0.955;1" dur="3.189s" fill="freeze" begin="0s;9aed.click" /></path><path d="M21.45,68.45c1.01,0.28,1.82,1.76,1.82,2.34C23.25,75.25,24,88.5,24.53,95.27" stroke-dasharray="27.62" stroke-dashoffset="27.62"><animate attributeName="stroke-dashoffset" values="27.62" fill="freeze" begin="9aed.click" /><animate attributeName="stroke-dashoffset" values="27.62;27.62;0" keyTimes="0;0.92;1" dur="3.465s" fill="freeze" begin="0s;9aed.click" /></path><path d="M16.1,97.1c0.43,0.64,2.42,0.89,3.51,0.48C29,94,43.7,89.34,53.29,85.7" stroke-dasharray="39.418" stroke-dashoffset="39.418"><animate attributeName="stroke-dashoffset" values="39.418" fill="freeze" begin="9aed.click" /><animate attributeName="stroke-dashoffset" values="39.418;39.418;0" keyTimes="0;0.898;1" dur="3.859s" fill="freeze" begin="0s;9aed.click" /></path><path d="M88.56,60.9c0.17,0.26-0.23,1.53-0.66,1.93c-2.77,2.62-11.77,9.35-20.72,12.04" stroke-dasharray="26.236" stroke-dashoffset="26.236"><animate attributeName="stroke-dashoffset" values="26.236" fill="freeze" begin="9aed.click" /><animate attributeName="stroke-dashoffset" values="26.236;26.236;0" keyTimes="0;0.936;1" dur="4.121s" fill="freeze" begin="0s;9aed.click" /></path><path d="M62.46,54.75c1,0.68,1.4,1.07,1.4,2.03c0,3.47,0.11,26.44,0.11,32.57c0,6.14,3.28,8.15,15.57,8.15c13.63,0,14.36-4.71,14.36-9.01" stroke-dasharray="74.904" stroke-dashoffset="74.904"><animate attributeName="stroke-dashoffset" values="74.904" fill="freeze" begin="9aed.click" /><animate attributeName="stroke-dashoffset" values="74.904;74.904;0" keyTimes="0;0.88;1" dur="4.684s" fill="freeze" begin="0s;9aed.click" /></path></g></svg>