<svg xmlns="http://www.w3.org/2000/svg" width="109" height="109" viewBox="0 0 109 109" id="9b1a"><g fill="none" stroke="#666" stroke-width="9" stroke-linecap="round" stroke-linejoin="round"><g><g><g><path d="M27.51,11.43c1.31,0.96,1.31,1.12,1.31,2.08c0,0.96,0.44,21.28,0.44,22.72" /><path d="M30,12.95c4.5-0.17,13.87-2.09,19.73-2.16c1.37-0.02,2.19,0.12,2.87,0.24" /><path d="M30.85,21.74c3.97-0.34,12.79-2.07,16-2.4c1.21-0.13,2.43-0.09,3.36,0.11" /><path d="M29.63,28.74c3.97-0.34,14.29-2.07,17.5-2.4c1.21-0.13,2.43-0.09,3.36,0.11" /><path d="M13.62,38.13c0.91,0.24,2.59,0.28,3.5,0.24c9.5-0.4,23.2-4.28,36.17-4.59c1.52-0.04,2.44,0.11,3.2,0.23" /><g><path d="M31.93,39.83c0.07,0.48-0.37,1.14-0.55,1.42c-1.88,2.75-2.88,4.26-7.04,7.89c-1.04,0.91-0.5,2.42,1.28,1.97c6.86-1.75,16.28-4.1,24.1-6.36" /><path d="M43.79,39.85c2.85,1.45,7.36,5.97,8.07,8.23" /></g></g><g><g><path d="M81.99,10.5c0.06,0.3,0.25,0.82-0.12,1.21c-2.88,2.96-9.28,7.25-20.81,11.11" /></g><g><path d="M87.61,21.78c0.08,0.32,0.35,0.9-0.14,1.28C83.76,25.99,75,31.64,61.83,35.36" /></g><g><path d="M90.58,33.79c0.08,0.29,0.31,0.78-0.16,1.18c-3.18,2.72-13.16,7.94-28.49,11.28" /></g></g></g><g><g><g><path d="M40.48,53c0.06,0.35,0.28,0.96-0.13,1.4c-3.22,3.44-10.39,8.43-23.28,12.91" /></g><g><path d="M41.61,65.28c0.08,0.39,0.35,1.09-0.14,1.57c-3.67,3.57-12.35,10.47-25.39,15.01" /></g><g><path d="M43.09,78.29c0.08,0.44,0.28,1.17-0.14,1.77C40.05,84.16,30.94,91.98,16.93,97" /></g></g><g><g><path d="M49.99,52.21c1.19,0.36,3.39,0.47,4.58,0.36c13.21-1.19,21.82-3.27,33.26-3.75c1.99-0.08,3.18,0.17,4.18,0.36" /><path d="M68.7,52.06c0.01,0.17,0.02,0.45-0.02,0.69c-0.27,1.46-2.2,4.97-4.35,6.94" /></g><g><g><path d="M53.86,60.45c0.48,0.65,1.17,1.14,1.17,2.01c0,0.87-0.32,23.41-0.32,23.84c0,0.43,0.16,0.43,0.32,1.3" /><path d="M55.83,61.61c2.7-0.11,25.02-2.7,27.48-2.83c2.05-0.11,2.45,0.75,2.45,2.01c0,1.04-0.6,24.42-0.6,25.07" /><path d="M55.79,69.4c4.7-0.48,23.53-1.93,29.31-2.16" /><path d="M55.66,77.7c6.22-0.55,21.74-1.7,29.12-2" /><path d="M55.31,86.32c6.22-0.65,21.26-1.97,29.12-2.3" /></g><g><path d="M62.13,88.72c0.43,0.94-0.17,1.94-0.9,2.73c-2.39,2.58-8.26,6.04-14.84,8.79" /><path d="M75.79,88.96c6.05,2.48,13.68,8.12,15.33,10.28" /></g></g></g></g></g></g><g fill="none" stroke="#000" stroke-width="5" stroke-linecap="round" stroke-linejoin="round"><g><g><g><path d="M27.51,11.43c1.31,0.96,1.31,1.12,1.31,2.08c0,0.96,0.44,21.28,0.44,22.72" stroke-dasharray="25.35" stroke-dashoffset="25.35"><animate id="0" attributeName="stroke-dashoffset" values="25.35;0" dur="0.25s" fill="freeze" begin="0s;9b1a.click" /></path><path d="M30,12.95c4.5-0.17,13.87-2.09,19.73-2.16c1.37-0.02,2.19,0.12,2.87,0.24" stroke-dasharray="22.74" stroke-dashoffset="22.74"><animate attributeName="stroke-dashoffset" values="22.74" fill="freeze" begin="9b1a.click" /><animate id="1" attributeName="stroke-dashoffset" values="22.74;0" dur="0.23s" fill="freeze" begin="0.end" /></path><path d="M30.85,21.74c3.97-0.34,12.79-2.07,16-2.4c1.21-0.13,2.43-0.09,3.36,0.11" stroke-dasharray="19.56" stroke-dashoffset="19.56"><animate attributeName="stroke-dashoffset" values="19.56" fill="freeze" begin="9b1a.click" /><animate id="2" attributeName="stroke-dashoffset" values="19.56;0" dur="0.2s" fill="freeze" begin="1.end" /></path><path d="M29.63,28.74c3.97-0.34,14.29-2.07,17.5-2.4c1.21-0.13,2.43-0.09,3.36,0.11" stroke-dasharray="21.04" stroke-dashoffset="21.04"><animate attributeName="stroke-dashoffset" values="21.04" fill="freeze" begin="9b1a.click" /><animate id="3" attributeName="stroke-dashoffset" values="21.04;0" dur="0.21s" fill="freeze" begin="2.end" /></path><path d="M13.62,38.13c0.91,0.24,2.59,0.28,3.5,0.24c9.5-0.4,23.2-4.28,36.17-4.59c1.52-0.04,2.44,0.11,3.2,0.23" stroke-dasharray="43.22" stroke-dashoffset="43.22"><animate attributeName="stroke-dashoffset" values="43.22" fill="freeze" begin="9b1a.click" /><animate id="4" attributeName="stroke-dashoffset" values="43.22;0" dur="0.43s" fill="freeze" begin="3.end" /></path><g><path d="M31.93,39.83c0.07,0.48-0.37,1.14-0.55,1.42c-1.88,2.75-2.88,4.26-7.04,7.89c-1.04,0.91-0.5,2.42,1.28,1.97c6.86-1.75,16.28-4.1,24.1-6.36" stroke-dasharray="40.67" stroke-dashoffset="40.67"><animate attributeName="stroke-dashoffset" values="40.67" fill="freeze" begin="9b1a.click" /><animate id="5" attributeName="stroke-dashoffset" values="40.67;0" dur="0.41s" fill="freeze" begin="4.end" /></path><path d="M43.79,39.85c2.85,1.45,7.36,5.97,8.07,8.23" stroke-dasharray="11.69" stroke-dashoffset="11.69"><animate attributeName="stroke-dashoffset" values="11.69" fill="freeze" begin="9b1a.click" /><animate id="6" attributeName="stroke-dashoffset" values="11.69;0" dur="0.12s" fill="freeze" begin="5.end" /></path></g></g><g><g><path d="M81.99,10.5c0.06,0.3,0.25,0.82-0.12,1.21c-2.88,2.96-9.28,7.25-20.81,11.11" stroke-dasharray="25.05" stroke-dashoffset="25.05"><animate attributeName="stroke-dashoffset" values="25.05" fill="freeze" begin="9b1a.click" /><animate id="7" attributeName="stroke-dashoffset" values="25.05;0" dur="0.25s" fill="freeze" begin="6.end" /></path></g><g><path d="M87.61,21.78c0.08,0.32,0.35,0.9-0.14,1.28C83.76,25.99,75,31.64,61.83,35.36" stroke-dasharray="29.99" stroke-dashoffset="29.99"><animate attributeName="stroke-dashoffset" values="29.99" fill="freeze" begin="9b1a.click" /><animate id="8" attributeName="stroke-dashoffset" values="29.99;0" dur="0.3s" fill="freeze" begin="7.end" /></path></g><g><path d="M90.58,33.79c0.08,0.29,0.31,0.78-0.16,1.18c-3.18,2.72-13.16,7.94-28.49,11.28" stroke-dasharray="32.14" stroke-dashoffset="32.14"><animate attributeName="stroke-dashoffset" values="32.14" fill="freeze" begin="9b1a.click" /><animate id="9" attributeName="stroke-dashoffset" values="32.14;0" dur="0.32s" fill="freeze" begin="8.end" /></path></g></g></g><g><g><g><path d="M40.48,53c0.06,0.35,0.28,0.96-0.13,1.4c-3.22,3.44-10.39,8.43-23.28,12.91" stroke-dasharray="28.31" stroke-dashoffset="28.31"><animate attributeName="stroke-dashoffset" values="28.31" fill="freeze" begin="9b1a.click" /><animate id="10" attributeName="stroke-dashoffset" values="28.31;0" dur="0.28s" fill="freeze" begin="9.end" /></path></g><g><path d="M41.61,65.28c0.08,0.39,0.35,1.09-0.14,1.57c-3.67,3.57-12.35,10.47-25.39,15.01" stroke-dasharray="31.37" stroke-dashoffset="31.37"><animate attributeName="stroke-dashoffset" values="31.37" fill="freeze" begin="9b1a.click" /><animate id="11" attributeName="stroke-dashoffset" values="31.37;0" dur="0.31s" fill="freeze" begin="10.end" /></path></g><g><path d="M43.09,78.29c0.08,0.44,0.28,1.17-0.14,1.77C40.05,84.16,30.94,91.98,16.93,97" stroke-dasharray="33.25" stroke-dashoffset="33.25"><animate attributeName="stroke-dashoffset" values="33.25" fill="freeze" begin="9b1a.click" /><animate id="12" attributeName="stroke-dashoffset" values="33.25;0" dur="0.33s" fill="freeze" begin="11.end" /></path></g></g><g><g><path d="M49.99,52.21c1.19,0.36,3.39,0.47,4.58,0.36c13.21-1.19,21.82-3.27,33.26-3.75c1.99-0.08,3.18,0.17,4.18,0.36" stroke-dasharray="42.3" stroke-dashoffset="42.3"><animate attributeName="stroke-dashoffset" values="42.3" fill="freeze" begin="9b1a.click" /><animate id="13" attributeName="stroke-dashoffset" values="42.3;0" dur="0.42s" fill="freeze" begin="12.end" /></path><path d="M68.7,52.06c0.01,0.17,0.02,0.45-0.02,0.69c-0.27,1.46-2.2,4.97-4.35,6.94" stroke-dasharray="8.97" stroke-dashoffset="8.97"><animate attributeName="stroke-dashoffset" values="8.97" fill="freeze" begin="9b1a.click" /><animate id="14" attributeName="stroke-dashoffset" values="8.97;0" dur="0.09s" fill="freeze" begin="13.end" /></path></g><g><g><path d="M53.86,60.45c0.48,0.65,1.17,1.14,1.17,2.01c0,0.87-0.32,23.41-0.32,23.84c0,0.43,0.16,0.43,0.32,1.3" stroke-dasharray="27.57" stroke-dashoffset="27.57"><animate attributeName="stroke-dashoffset" values="27.57" fill="freeze" begin="9b1a.click" /><animate id="15" attributeName="stroke-dashoffset" values="27.57;0" dur="0.28s" fill="freeze" begin="14.end" /></path><path d="M55.83,61.61c2.7-0.11,25.02-2.7,27.48-2.83c2.05-0.11,2.45,0.75,2.45,2.01c0,1.04-0.6,24.42-0.6,25.07" stroke-dasharray="56.44" stroke-dashoffset="56.44"><animate attributeName="stroke-dashoffset" values="56.44" fill="freeze" begin="9b1a.click" /><animate id="16" attributeName="stroke-dashoffset" values="56.44;0" dur="0.56s" fill="freeze" begin="15.end" /></path><path d="M55.79,69.4c4.7-0.48,23.53-1.93,29.31-2.16" stroke-dasharray="29.39" stroke-dashoffset="29.39"><animate attributeName="stroke-dashoffset" values="29.39" fill="freeze" begin="9b1a.click" /><animate id="17" attributeName="stroke-dashoffset" values="29.39;0" dur="0.29s" fill="freeze" begin="16.end" /></path><path d="M55.66,77.7c6.22-0.55,21.74-1.7,29.12-2" stroke-dasharray="29.19" stroke-dashoffset="29.19"><animate attributeName="stroke-dashoffset" values="29.19" fill="freeze" begin="9b1a.click" /><animate id="18" attributeName="stroke-dashoffset" values="29.19;0" dur="0.29s" fill="freeze" begin="17.end" /></path><path d="M55.31,86.32c6.22-0.65,21.26-1.97,29.12-2.3" stroke-dasharray="29.21" stroke-dashoffset="29.21"><animate attributeName="stroke-dashoffset" values="29.21" fill="freeze" begin="9b1a.click" /><animate id="19" attributeName="stroke-dashoffset" values="29.21;0" dur="0.29s" fill="freeze" begin="18.end" /></path></g><g><path d="M62.13,88.72c0.43,0.94-0.17,1.94-0.9,2.73c-2.39,2.58-8.26,6.04-14.84,8.79" stroke-dasharray="20.4" stroke-dashoffset="20.4"><animate attributeName="stroke-dashoffset" values="20.4" fill="freeze" begin="9b1a.click" /><animate id="20" attributeName="stroke-dashoffset" values="20.4;0" dur="0.2s" fill="freeze" begin="19.end" /></path><path d="M75.79,88.96c6.05,2.48,13.68,8.12,15.33,10.28" stroke-dasharray="18.57" stroke-dashoffset="18.57"><animate attributeName="stroke-dashoffset" values="18.57" fill="freeze" begin="9b1a.click" /><animate id="21" attributeName="stroke-dashoffset" values="18.57;0" dur="0.19s" fill="freeze" begin="20.end" /></path></g></g></g></g></g></g></svg>