<svg xmlns="http://www.w3.org/2000/svg" viewBox="0 0 109 109" id="9b22"><g fill="none" stroke="#666" stroke-width="6" stroke-linecap="round" stroke-linejoin="round"><g><g><g><path d="M25,8.85c1.39,0.75,1.39,0.87,1.39,1.62c0,0.75,0.46,17.71,0.46,18.83" /><path d="M26.94,10.36c4.77-0.14,14.31-1.61,20.67-2.19c1.44-0.13,2.32,0.09,3.05,0.19" /><path d="M27.02,16.84c4.22-0.26,14.11-2.22,17.52-2.48c1.28-0.1,2.58-0.07,3.57,0.09" /><path d="M26.78,22.07c4.22-0.26,14.61-1.22,18.02-1.48c1.28-0.1,2.58-0.07,3.57,0.09" /><path d="M12.38,30.72c1,0.19,2.82,0.27,3.82,0.19c8.3-0.66,25.3-3.41,33.55-3.68c1.66-0.05,2.65,0.09,3.48,0.19" /><g><path d="M28.23,31.83c0.07,0.37-0.38,0.88-0.59,1.11c-1.64,1.81-3.14,3.56-5.54,5.65c-0.99,0.86-0.53,1.89,1.36,1.54c7.29-1.36,13.29-3.2,21.59-4.96" /><path d="M43.34,32.07c1.58,1.13,4.09,4.65,4.49,6.42" /></g></g><g><g><path d="M80.49,9.25c0.06,0.26,0.25,0.71-0.12,1.04c-2.88,2.54-9.28,6.24-20.81,9.56" /></g><g><path d="M84.13,17.93c0.07,0.28,0.3,0.77-0.12,1.11c-3.21,2.52-10.79,7.4-22.18,10.61" /></g><g><path d="M90.1,26.8c0.07,0.25,0.27,0.67-0.14,1.01c-2.82,2.34-11.67,6.82-25.27,9.68" /></g></g></g><g><g><g><path d="M53.43,36.55c1.16,0.24,1.83,1.94,1.8,2.64c-0.09,2.21-0.09,3.66-0.09,5.68" /><g><path d="M21.69,47.25c0,2.45-2.66,10.01-3.67,11.64" /><path d="M22.04,48.11c8.76-0.83,55.51-3.79,62.62-4.1c11.11-0.49,1.85,7-0.91,8.77" /></g></g><path d="M32.93,53.86c0.97,0.25,2.74,0.28,3.72,0.25c6.61-0.18,29.84-2,35.22-2.24c1.61-0.07,2.59,0.12,3.39,0.25" /><g><g p7:partial xmlns:p7="http://kanjivg.tagaini.net"><path d="M54.08,54.93c0.05,0.14,0.75,0.71,0.8,1.57c0.26,4.15-0.16,4.79-0.16,6.21c0,4.02-4.61,0.43-5.57,0.07" /><path d="M35.43,59.52c0.04,0.21,0.15,0.54-0.08,0.82c-1.67,2.05-8.7,6-14.42,7.89" /></g><g><path d="M71.7,57.71c0.14,0.4,0.02,1.41-0.85,1.92C63,64.17,43.38,70.21,18.78,74.71" /></g></g></g><g><g><path d="M36.08,68.46c1.03,0.74,1.06,1.77,1.06,2.99c0,2.76-0.46,12.24-0.46,20.22" /><path d="M38.19,70.34c3.59-0.15,34.44-2.42,37.71-2.6c2.72-0.15,3.68,1.34,3.68,2.48c0,2.78-0.3,19.09-0.3,20.01" /><path d="M37.2,76.57c6.71-0.23,36.23-2.14,41.99-2.14" /><path d="M37.5,83.56c10.12-0.44,31-1.84,41.73-1.93" /><path d="M37.03,90.28c10.13-0.33,32.97-2.21,42.2-2.21" /></g><g><path d="M45.99,93.06c0.51,0.66-0.5,1.83-1.5,2.31c-3.04,1.44-11.91,4.99-17.98,6.69" /><path d="M69.03,93.57c7.75,2.05,16.91,5.76,19.03,7.55" /></g></g></g></g></g><g fill="none" stroke="#000" stroke-width="3" stroke-linecap="round" stroke-linejoin="round"><path d="M25,8.85c1.39,0.75,1.39,0.87,1.39,1.62c0,0.75,0.46,17.71,0.46,18.83" stroke-dasharray="21.153" stroke-dashoffset="21.153"><animate attributeName="stroke-dashoffset" values="21.153;21.153;0" dur="0.212s" fill="freeze" begin="0s;9b22.click" /></path><path d="M26.94,10.36c4.77-0.14,14.31-1.61,20.67-2.19c1.44-0.13,2.32,0.09,3.05,0.19" stroke-dasharray="23.857" stroke-dashoffset="23.857"><animate attributeName="stroke-dashoffset" values="23.857" fill="freeze" begin="9b22.click" /><animate attributeName="stroke-dashoffset" values="23.857;23.857;0" keyTimes="0;0.47;1" dur="0.451s" fill="freeze" begin="0s;9b22.click" /></path><path d="M27.02,16.84c4.22-0.26,14.11-2.22,17.52-2.48c1.28-0.1,2.58-0.07,3.57,0.09" stroke-dasharray="21.279" stroke-dashoffset="21.279"><animate attributeName="stroke-dashoffset" values="21.279" fill="freeze" begin="9b22.click" /><animate attributeName="stroke-dashoffset" values="21.279;21.279;0" keyTimes="0;0.679;1" dur="0.664s" fill="freeze" begin="0s;9b22.click" /></path><path d="M26.78,22.07c4.22-0.26,14.61-1.22,18.02-1.48c1.28-0.1,2.58-0.07,3.57,0.09" stroke-dasharray="21.661" stroke-dashoffset="21.661"><animate attributeName="stroke-dashoffset" values="21.661" fill="freeze" begin="9b22.click" /><animate attributeName="stroke-dashoffset" values="21.661;21.661;0" keyTimes="0;0.754;1" dur="0.881s" fill="freeze" begin="0s;9b22.click" /></path><path d="M12.38,30.72c1,0.19,2.82,0.27,3.82,0.19c8.3-0.66,25.3-3.41,33.55-3.68c1.66-0.05,2.65,0.09,3.48,0.19" stroke-dasharray="41.082" stroke-dashoffset="41.082"><animate attributeName="stroke-dashoffset" values="41.082" fill="freeze" begin="9b22.click" /><animate attributeName="stroke-dashoffset" values="41.082;41.082;0" keyTimes="0;0.682;1" dur="1.292s" fill="freeze" begin="0s;9b22.click" /></path><path d="M28.23,31.83c0.07,0.37-0.38,0.88-0.59,1.11c-1.64,1.81-3.14,3.56-5.54,5.65c-0.99,0.86-0.53,1.89,1.36,1.54c7.29-1.36,13.29-3.2,21.59-4.96" stroke-dasharray="34.655" stroke-dashoffset="34.655"><animate attributeName="stroke-dashoffset" values="34.655" fill="freeze" begin="9b22.click" /><animate attributeName="stroke-dashoffset" values="34.655;34.655;0" keyTimes="0;0.788;1" dur="1.639s" fill="freeze" begin="0s;9b22.click" /></path><path d="M43.34,32.07c1.58,1.13,4.09,4.65,4.49,6.42" stroke-dasharray="7.934" stroke-dashoffset="7.934"><animate attributeName="stroke-dashoffset" values="7.934" fill="freeze" begin="9b22.click" /><animate attributeName="stroke-dashoffset" values="7.934;7.934;0" keyTimes="0;0.954;1" dur="1.718s" fill="freeze" begin="0s;9b22.click" /></path><path d="M80.49,9.25c0.06,0.26,0.25,0.71-0.12,1.04c-2.88,2.54-9.28,6.24-20.81,9.56" stroke-dasharray="24.17" stroke-dashoffset="24.17"><animate attributeName="stroke-dashoffset" values="24.17" fill="freeze" begin="9b22.click" /><animate attributeName="stroke-dashoffset" values="24.17;24.17;0" keyTimes="0;0.877;1" dur="1.96s" fill="freeze" begin="0s;9b22.click" /></path><path d="M84.13,17.93c0.07,0.28,0.3,0.77-0.12,1.11c-3.21,2.52-10.79,7.4-22.18,10.61" stroke-dasharray="25.932" stroke-dashoffset="25.932"><animate attributeName="stroke-dashoffset" values="25.932" fill="freeze" begin="9b22.click" /><animate attributeName="stroke-dashoffset" values="25.932;25.932;0" keyTimes="0;0.883;1" dur="2.219s" fill="freeze" begin="0s;9b22.click" /></path><path d="M90.1,26.8c0.07,0.25,0.27,0.67-0.14,1.01c-2.82,2.34-11.67,6.82-25.27,9.68" stroke-dasharray="28.346" stroke-dashoffset="28.346"><animate attributeName="stroke-dashoffset" values="28.346" fill="freeze" begin="9b22.click" /><animate attributeName="stroke-dashoffset" values="28.346;28.346;0" keyTimes="0;0.887;1" dur="2.502s" fill="freeze" begin="0s;9b22.click" /></path><path d="M53.43,36.55c1.16,0.24,1.83,1.94,1.8,2.64c-0.09,2.21-0.09,3.66-0.09,5.68" stroke-dasharray="9.081" stroke-dashoffset="9.081"><animate attributeName="stroke-dashoffset" values="9.081" fill="freeze" begin="9b22.click" /><animate attributeName="stroke-dashoffset" values="9.081;9.081;0" keyTimes="0;0.965;1" dur="2.593s" fill="freeze" begin="0s;9b22.click" /></path><path d="M21.69,47.25c0,2.45-2.66,10.01-3.67,11.64" stroke-dasharray="12.265" stroke-dashoffset="12.265"><animate attributeName="stroke-dashoffset" values="12.265" fill="freeze" begin="9b22.click" /><animate attributeName="stroke-dashoffset" values="12.265;12.265;0" keyTimes="0;0.955;1" dur="2.716s" fill="freeze" begin="0s;9b22.click" /></path><path d="M22.04,48.11c8.76-0.83,55.51-3.79,62.62-4.1c11.11-0.49,1.85,7-0.91,8.77" stroke-dasharray="78.494" stroke-dashoffset="78.494"><animate attributeName="stroke-dashoffset" values="78.494" fill="freeze" begin="9b22.click" /><animate attributeName="stroke-dashoffset" values="78.494;78.494;0" keyTimes="0;0.822;1" dur="3.306s" fill="freeze" begin="0s;9b22.click" /></path><path d="M32.93,53.86c0.97,0.25,2.74,0.28,3.72,0.25c6.61-0.18,29.84-2,35.22-2.24c1.61-0.07,2.59,0.12,3.39,0.25" stroke-dasharray="42.438" stroke-dashoffset="42.438"><animate attributeName="stroke-dashoffset" values="42.438" fill="freeze" begin="9b22.click" /><animate attributeName="stroke-dashoffset" values="42.438;42.438;0" keyTimes="0;0.886;1" dur="3.73s" fill="freeze" begin="0s;9b22.click" /></path><path d="M54.08,54.93c0.05,0.14,0.75,0.71,0.8,1.57c0.26,4.15-0.16,4.79-0.16,6.21c0,4.02-4.61,0.43-5.57,0.07" stroke-dasharray="15.299" stroke-dashoffset="15.299"><animate attributeName="stroke-dashoffset" values="15.299" fill="freeze" begin="9b22.click" /><animate attributeName="stroke-dashoffset" values="15.299;15.299;0" keyTimes="0;0.961;1" dur="3.883s" fill="freeze" begin="0s;9b22.click" /></path><path d="M35.43,59.52c0.04,0.21,0.15,0.54-0.08,0.82c-1.67,2.05-8.7,6-14.42,7.89" stroke-dasharray="17.415" stroke-dashoffset="17.415"><animate attributeName="stroke-dashoffset" values="17.415" fill="freeze" begin="9b22.click" /><animate attributeName="stroke-dashoffset" values="17.415;17.415;0" keyTimes="0;0.957;1" dur="4.057s" fill="freeze" begin="0s;9b22.click" /></path><path d="M71.7,57.71c0.14,0.4,0.02,1.41-0.85,1.92C63,64.17,43.38,70.21,18.78,74.71" stroke-dasharray="56.633" stroke-dashoffset="56.633"><animate attributeName="stroke-dashoffset" values="56.633" fill="freeze" begin="9b22.click" /><animate attributeName="stroke-dashoffset" values="56.633;56.633;0" keyTimes="0;0.878;1" dur="4.623s" fill="freeze" begin="0s;9b22.click" /></path><path d="M36.08,68.46c1.03,0.74,1.06,1.77,1.06,2.99c0,2.76-0.46,12.24-0.46,20.22" stroke-dasharray="23.55" stroke-dashoffset="23.55"><animate attributeName="stroke-dashoffset" values="23.55" fill="freeze" begin="9b22.click" /><animate attributeName="stroke-dashoffset" values="23.55;23.55;0" keyTimes="0;0.952;1" dur="4.858s" fill="freeze" begin="0s;9b22.click" /></path><path d="M38.19,70.34c3.59-0.15,34.44-2.42,37.71-2.6c2.72-0.15,3.68,1.34,3.68,2.48c0,2.78-0.3,19.09-0.3,20.01" stroke-dasharray="62.813" stroke-dashoffset="62.813"><animate attributeName="stroke-dashoffset" values="62.813" fill="freeze" begin="9b22.click" /><animate attributeName="stroke-dashoffset" values="62.813;62.813;0" keyTimes="0;0.911;1" dur="5.33s" fill="freeze" begin="0s;9b22.click" /></path><path d="M37.2,76.57c6.71-0.23,36.23-2.14,41.99-2.14" stroke-dasharray="42.047" stroke-dashoffset="42.047"><animate attributeName="stroke-dashoffset" values="42.047" fill="freeze" begin="9b22.click" /><animate attributeName="stroke-dashoffset" values="42.047;42.047;0" keyTimes="0;0.927;1" dur="5.75s" fill="freeze" begin="0s;9b22.click" /></path><path d="M37.5,83.56c10.12-0.44,31-1.84,41.73-1.93" stroke-dasharray="41.778" stroke-dashoffset="41.778"><animate attributeName="stroke-dashoffset" values="41.778" fill="freeze" begin="9b22.click" /><animate attributeName="stroke-dashoffset" values="41.778;41.778;0" keyTimes="0;0.932;1" dur="6.168s" fill="freeze" begin="0s;9b22.click" /></path><path d="M37.03,90.28c10.13-0.33,32.97-2.21,42.2-2.21" stroke-dasharray="42.263" stroke-dashoffset="42.263"><animate attributeName="stroke-dashoffset" values="42.263" fill="freeze" begin="9b22.click" /><animate attributeName="stroke-dashoffset" values="42.263;42.263;0" keyTimes="0;0.936;1" dur="6.591s" fill="freeze" begin="0s;9b22.click" /></path><path d="M45.99,93.06c0.51,0.66-0.5,1.83-1.5,2.31c-3.04,1.44-11.91,4.99-17.98,6.69" stroke-dasharray="22.251" stroke-dashoffset="22.251"><animate attributeName="stroke-dashoffset" values="22.251" fill="freeze" begin="9b22.click" /><animate attributeName="stroke-dashoffset" values="22.251;22.251;0" keyTimes="0;0.967;1" dur="6.814s" fill="freeze" begin="0s;9b22.click" /></path><path d="M69.03,93.57c7.75,2.05,16.91,5.76,19.03,7.55" stroke-dasharray="20.551" stroke-dashoffset="20.551"><animate attributeName="stroke-dashoffset" values="20.551" fill="freeze" begin="9b22.click" /><animate attributeName="stroke-dashoffset" values="20.551;20.551;0" keyTimes="0;0.971;1" dur="7.02s" fill="freeze" begin="0s;9b22.click" /></path></g></svg>