<svg xmlns="http://www.w3.org/2000/svg" width="109" height="109" viewBox="0 0 109 109" id="9b25"><g fill="none" stroke="#666" stroke-width="6" stroke-linecap="round" stroke-linejoin="round"><g><g><path d="M15.87,16.25c1.09,0.5,1.74,2.25,1.96,3.25c0.22,1,0,72.75-0.22,79" /><g p5:partial xmlns:p5="http://kanjivg.tagaini.net"><path d="M23.97,17.02c0.46,0.25,1.96,0.07,2.43,0.02c5.11-0.61,14.95-1.82,20.18-2.09c0.71-0.04,1.36,0.05,1.95,0.26" /><path d="M35.11,16.9c0.93,1.16,0.93,1.86,0.93,2.8c0,3.05,0.49,9.8,0.49,16.3" /><path d="M24.47,27.45c0.43,0.24,1.82,0.07,2.26,0.02c4.74-0.57,13.89-1.69,18.74-1.94c0.66-0.03,1.26,0.05,1.81,0.24" /><path d="M22.97,37.64c0.52,0.29,2.2,0.08,2.73,0.02c5.73-0.68,16.78-2.05,22.65-2.34c0.8-0.04,1.53,0.06,2.19,0.29" /></g></g><g><g p5:partial xmlns:p5="http://kanjivg.tagaini.net"><path d="M57.75,15.02c0.47,0.25,2.02,0.07,2.5,0.02c5.24-0.61,16.36-1.82,21.73-2.09c0.73-0.04,1.4,0.05,2,0.26" /><path d="M70.19,14.9c0.96,1.16,0.96,1.86,0.96,2.8c0,6.52,0.5,10.8,0.5,15.8" /><path d="M59.26,25.45c0.44,0.24,1.87,0.07,2.32,0.02c4.87-0.57,14.27-1.69,19.25-1.94c0.68-0.03,1.3,0.05,1.86,0.24" /><path d="M57.72,35.14c0.53,0.29,2.26,0.08,2.8,0.02c5.89-0.68,17.24-2.05,23.26-2.34c0.82-0.04,1.57,0.06,2.25,0.29" /></g><path d="M90.27,11.83c0.98,0.92,1.76,1.99,1.76,5.02c0,19.9,0.24,70.16,0.24,75.12c0,10.39-7.21,1.5-8.71,0.25" /></g></g></g><g fill="none" stroke="#000" stroke-width="3" stroke-linecap="round" stroke-linejoin="round"><path d="M15.87,16.25c1.09,0.5,1.74,2.25,1.96,3.25c0.22,1,0,72.75-0.22,79" stroke-dasharray="82.912" stroke-dashoffset="82.912"><animate attributeName="stroke-dashoffset" values="82.912;82.912;0" dur="0.623s" fill="freeze" begin="0s;9b25.click" /></path><path d="M23.97,17.02c0.46,0.25,1.96,0.07,2.43,0.02c5.11-0.61,14.95-1.82,20.18-2.09c0.71-0.04,1.36,0.05,1.95,0.26" stroke-dasharray="24.724" stroke-dashoffset="24.724"><animate attributeName="stroke-dashoffset" values="24.724" fill="freeze" begin="9b25.click" /><animate attributeName="stroke-dashoffset" values="24.724;24.724;0" keyTimes="0;0.716;1" dur="0.87s" fill="freeze" begin="0s;9b25.click" /></path><path d="M35.11,16.9c0.93,1.16,0.93,1.86,0.93,2.8c0,3.05,0.49,9.8,0.49,16.3" stroke-dasharray="19.34" stroke-dashoffset="19.34"><animate attributeName="stroke-dashoffset" values="19.34" fill="freeze" begin="9b25.click" /><animate attributeName="stroke-dashoffset" values="19.34;19.34;0" keyTimes="0;0.818;1" dur="1.063s" fill="freeze" begin="0s;9b25.click" /></path><path d="M24.47,27.45c0.43,0.24,1.82,0.07,2.26,0.02c4.74-0.57,13.89-1.69,18.74-1.94c0.66-0.03,1.26,0.05,1.81,0.24" stroke-dasharray="22.962" stroke-dashoffset="22.962"><animate attributeName="stroke-dashoffset" values="22.962" fill="freeze" begin="9b25.click" /><animate attributeName="stroke-dashoffset" values="22.962;22.962;0" keyTimes="0;0.822;1" dur="1.293s" fill="freeze" begin="0s;9b25.click" /></path><path d="M22.97,37.64c0.52,0.29,2.2,0.08,2.73,0.02c5.73-0.68,16.78-2.05,22.65-2.34c0.8-0.04,1.53,0.06,2.19,0.29" stroke-dasharray="27.754" stroke-dashoffset="27.754"><animate attributeName="stroke-dashoffset" values="27.754" fill="freeze" begin="9b25.click" /><animate attributeName="stroke-dashoffset" values="27.754;27.754;0" keyTimes="0;0.823;1" dur="1.571s" fill="freeze" begin="0s;9b25.click" /></path><path d="M57.75,15.02c0.47,0.25,2.02,0.07,2.5,0.02c5.24-0.61,16.36-1.82,21.73-2.09c0.73-0.04,1.4,0.05,2,0.26" stroke-dasharray="26.385" stroke-dashoffset="26.385"><animate attributeName="stroke-dashoffset" values="26.385" fill="freeze" begin="9b25.click" /><animate attributeName="stroke-dashoffset" values="26.385;26.385;0" keyTimes="0;0.856;1" dur="1.835s" fill="freeze" begin="0s;9b25.click" /></path><path d="M70.19,14.9c0.96,1.16,0.96,1.86,0.96,2.8c0,6.52,0.5,10.8,0.5,15.8" stroke-dasharray="18.855" stroke-dashoffset="18.855"><animate attributeName="stroke-dashoffset" values="18.855" fill="freeze" begin="9b25.click" /><animate attributeName="stroke-dashoffset" values="18.855;18.855;0" keyTimes="0;0.907;1" dur="2.024s" fill="freeze" begin="0s;9b25.click" /></path><path d="M59.26,25.45c0.44,0.24,1.87,0.07,2.32,0.02c4.87-0.57,14.27-1.69,19.25-1.94c0.68-0.03,1.3,0.05,1.86,0.24" stroke-dasharray="23.578" stroke-dashoffset="23.578"><animate attributeName="stroke-dashoffset" values="23.578" fill="freeze" begin="9b25.click" /><animate attributeName="stroke-dashoffset" values="23.578;23.578;0" keyTimes="0;0.896;1" dur="2.26s" fill="freeze" begin="0s;9b25.click" /></path><path d="M57.72,35.14c0.53,0.29,2.26,0.08,2.8,0.02c5.89-0.68,17.24-2.05,23.26-2.34c0.82-0.04,1.57,0.06,2.25,0.29" stroke-dasharray="28.489" stroke-dashoffset="28.489"><animate attributeName="stroke-dashoffset" values="28.489" fill="freeze" begin="9b25.click" /><animate attributeName="stroke-dashoffset" values="28.489;28.489;0" keyTimes="0;0.888;1" dur="2.545s" fill="freeze" begin="0s;9b25.click" /></path><path d="M90.27,11.83c0.98,0.92,1.76,1.99,1.76,5.02c0,19.9,0.24,70.16,0.24,75.12c0,10.39-7.21,1.5-8.71,0.25" stroke-dasharray="94.823" stroke-dashoffset="94.823"><animate attributeName="stroke-dashoffset" values="94.823" fill="freeze" begin="9b25.click" /><animate attributeName="stroke-dashoffset" values="94.823;94.823;0" keyTimes="0;0.781;1" dur="3.258s" fill="freeze" begin="0s;9b25.click" /></path></g></svg>