<svg xmlns="http://www.w3.org/2000/svg" width="109" height="109" viewBox="0 0 109 109" id="9b27"><g fill="none" stroke="#666" stroke-width="9" stroke-linecap="round" stroke-linejoin="round"><g><g><g><path d="M15.87,16.25c1.09,0.5,1.74,2.25,1.96,3.25c0.22,1,0,72.75-0.22,79" /><g p6:partial xmlns:p6="http://kanjivg.tagaini.net"><path d="M23.97,17.02c0.46,0.25,1.96,0.07,2.43,0.02c5.11-0.61,14.95-1.82,20.18-2.09c0.71-0.04,1.36,0.05,1.95,0.26" /><path d="M35.11,16.9c0.93,1.16,0.93,1.86,0.93,2.8c0,3.05,0.49,9.8,0.49,16.3" /><path d="M24.47,27.45c0.43,0.24,1.82,0.07,2.26,0.02c4.74-0.57,13.89-1.69,18.74-1.94c0.66-0.03,1.26,0.05,1.81,0.24" /><path d="M22.97,37.64c0.52,0.29,2.2,0.08,2.73,0.02c5.73-0.68,16.78-2.05,22.65-2.34c0.8-0.04,1.53,0.06,2.19,0.29" /></g></g><g><g p6:partial xmlns:p6="http://kanjivg.tagaini.net"><path d="M57.75,15.52c0.47,0.25,2.02,0.07,2.5,0.02c5.24-0.61,16.36-1.82,21.73-2.09c0.73-0.04,1.4,0.05,2,0.26" /><path d="M70.19,15.4c0.96,1.16,0.96,1.86,0.96,2.8c0,6.52,0.5,10.8,0.5,15.8" /><path d="M59.76,25.45c0.44,0.24,1.87,0.07,2.32,0.02c4.87-0.57,14.27-1.69,19.25-1.94c0.68-0.03,1.3,0.05,1.86,0.24" /><path d="M57.72,35.64c0.53,0.29,2.26,0.08,2.8,0.02c5.89-0.68,17.24-2.05,23.26-2.34c0.82-0.04,1.57,0.06,2.25,0.29" /></g><path d="M90.27,11.83c0.98,0.92,1.76,1.99,1.76,5.02c0,19.9,0.24,71.16,0.24,76.12c0,10.39-7.21,1.5-8.71,0.25" /></g></g><g><g><path d="M52.72,40.75c0.76,0.4,2,1.95,2,2.75c0,2.94-0.24,2.87-0.1,5.35" /><path d="M29.75,51.85c0.96,0.07,3.14,0.46,4.07,0.36c7.51-0.76,34.18-3.9,44.38-4.09c1.58-0.03,2.38,0.03,3.55,0.46" /></g><g><path d="M36.88,61.75c0.48,0.33,1.08,1.98,1.08,2.65c0,4.35-0.06,19.73-0.16,23.88" /><path d="M38.38,64.27c2.98-0.23,29.35-4.3,31.57-4.44c2.61-0.17,3.58,0.91,3.58,3.44c0,8.11-0.46,14.74-1.27,21.64c-0.51,4.34-4.18,0.55-5.17-0.61" /><path d="M53.07,52.91c0.5,0.28,1.56,2.09,1.66,2.65c0.1,0.56,0.23,39.84,0.13,43.33" /></g></g></g></g><g fill="none" stroke="#000" stroke-width="5" stroke-linecap="round" stroke-linejoin="round"><g><g><g><path d="M15.87,16.25c1.09,0.5,1.74,2.25,1.96,3.25c0.22,1,0,72.75-0.22,79" stroke-dasharray="82.91" stroke-dashoffset="82.91"><animate id="0" attributeName="stroke-dashoffset" values="82.91;0" dur="0.62s" fill="freeze" begin="0s;9b27.click" /></path><g p6:partial xmlns:p6="http://kanjivg.tagaini.net"><path d="M23.97,17.02c0.46,0.25,1.96,0.07,2.43,0.02c5.11-0.61,14.95-1.82,20.18-2.09c0.71-0.04,1.36,0.05,1.95,0.26" stroke-dasharray="24.72" stroke-dashoffset="24.72"><animate attributeName="stroke-dashoffset" values="24.72" fill="freeze" begin="9b27.click" /><animate id="1" attributeName="stroke-dashoffset" values="24.72;0" dur="0.25s" fill="freeze" begin="0.end" /></path><path d="M35.11,16.9c0.93,1.16,0.93,1.86,0.93,2.8c0,3.05,0.49,9.8,0.49,16.3" stroke-dasharray="19.34" stroke-dashoffset="19.34"><animate attributeName="stroke-dashoffset" values="19.34" fill="freeze" begin="9b27.click" /><animate id="2" attributeName="stroke-dashoffset" values="19.34;0" dur="0.19s" fill="freeze" begin="1.end" /></path><path d="M24.47,27.45c0.43,0.24,1.82,0.07,2.26,0.02c4.74-0.57,13.89-1.69,18.74-1.94c0.66-0.03,1.26,0.05,1.81,0.24" stroke-dasharray="22.96" stroke-dashoffset="22.96"><animate attributeName="stroke-dashoffset" values="22.96" fill="freeze" begin="9b27.click" /><animate id="3" attributeName="stroke-dashoffset" values="22.96;0" dur="0.23s" fill="freeze" begin="2.end" /></path><path d="M22.97,37.64c0.52,0.29,2.2,0.08,2.73,0.02c5.73-0.68,16.78-2.05,22.65-2.34c0.8-0.04,1.53,0.06,2.19,0.29" stroke-dasharray="27.75" stroke-dashoffset="27.75"><animate attributeName="stroke-dashoffset" values="27.75" fill="freeze" begin="9b27.click" /><animate id="4" attributeName="stroke-dashoffset" values="27.75;0" dur="0.28s" fill="freeze" begin="3.end" /></path></g></g><g><g p6:partial xmlns:p6="http://kanjivg.tagaini.net"><path d="M57.75,15.52c0.47,0.25,2.02,0.07,2.5,0.02c5.24-0.61,16.36-1.82,21.73-2.09c0.73-0.04,1.4,0.05,2,0.26" stroke-dasharray="26.38" stroke-dashoffset="26.38"><animate attributeName="stroke-dashoffset" values="26.38" fill="freeze" begin="9b27.click" /><animate id="5" attributeName="stroke-dashoffset" values="26.38;0" dur="0.26s" fill="freeze" begin="4.end" /></path><path d="M70.19,15.4c0.96,1.16,0.96,1.86,0.96,2.8c0,6.52,0.5,10.8,0.5,15.8" stroke-dasharray="18.85" stroke-dashoffset="18.85"><animate attributeName="stroke-dashoffset" values="18.85" fill="freeze" begin="9b27.click" /><animate id="6" attributeName="stroke-dashoffset" values="18.85;0" dur="0.19s" fill="freeze" begin="5.end" /></path><path d="M59.76,25.45c0.44,0.24,1.87,0.07,2.32,0.02c4.87-0.57,14.27-1.69,19.25-1.94c0.68-0.03,1.3,0.05,1.86,0.24" stroke-dasharray="23.58" stroke-dashoffset="23.58"><animate attributeName="stroke-dashoffset" values="23.58" fill="freeze" begin="9b27.click" /><animate id="7" attributeName="stroke-dashoffset" values="23.58;0" dur="0.24s" fill="freeze" begin="6.end" /></path><path d="M57.72,35.64c0.53,0.29,2.26,0.08,2.8,0.02c5.89-0.68,17.24-2.05,23.26-2.34c0.82-0.04,1.57,0.06,2.25,0.29" stroke-dasharray="28.49" stroke-dashoffset="28.49"><animate attributeName="stroke-dashoffset" values="28.49" fill="freeze" begin="9b27.click" /><animate id="8" attributeName="stroke-dashoffset" values="28.49;0" dur="0.28s" fill="freeze" begin="7.end" /></path></g><path d="M90.27,11.83c0.98,0.92,1.76,1.99,1.76,5.02c0,19.9,0.24,71.16,0.24,76.12c0,10.39-7.21,1.5-8.71,0.25" stroke-dasharray="95.82" stroke-dashoffset="95.82"><animate attributeName="stroke-dashoffset" values="95.82" fill="freeze" begin="9b27.click" /><animate id="9" attributeName="stroke-dashoffset" values="95.82;0" dur="0.72s" fill="freeze" begin="8.end" /></path></g></g><g><g><path d="M52.72,40.75c0.76,0.4,2,1.95,2,2.75c0,2.94-0.24,2.87-0.1,5.35" stroke-dasharray="8.85" stroke-dashoffset="8.85"><animate attributeName="stroke-dashoffset" values="8.85" fill="freeze" begin="9b27.click" /><animate id="10" attributeName="stroke-dashoffset" values="8.85;0" dur="0.09s" fill="freeze" begin="9.end" /></path><path d="M29.75,51.85c0.96,0.07,3.14,0.46,4.07,0.36c7.51-0.76,34.18-3.9,44.38-4.09c1.58-0.03,2.38,0.03,3.55,0.46" stroke-dasharray="52.27" stroke-dashoffset="52.27"><animate attributeName="stroke-dashoffset" values="52.27" fill="freeze" begin="9b27.click" /><animate id="11" attributeName="stroke-dashoffset" values="52.27;0" dur="0.52s" fill="freeze" begin="10.end" /></path></g><g><path d="M36.88,61.75c0.48,0.33,1.08,1.98,1.08,2.65c0,4.35-0.06,19.73-0.16,23.88" stroke-dasharray="26.8" stroke-dashoffset="26.8"><animate attributeName="stroke-dashoffset" values="26.8" fill="freeze" begin="9b27.click" /><animate id="12" attributeName="stroke-dashoffset" values="26.8;0" dur="0.27s" fill="freeze" begin="11.end" /></path><path d="M38.38,64.27c2.98-0.23,29.35-4.3,31.57-4.44c2.61-0.17,3.58,0.91,3.58,3.44c0,8.11-0.46,14.74-1.27,21.64c-0.51,4.34-4.18,0.55-5.17-0.61" stroke-dasharray="66.86" stroke-dashoffset="66.86"><animate attributeName="stroke-dashoffset" values="66.86" fill="freeze" begin="9b27.click" /><animate id="13" attributeName="stroke-dashoffset" values="66.86;0" dur="0.5s" fill="freeze" begin="12.end" /></path><path d="M53.07,52.91c0.5,0.28,1.56,2.09,1.66,2.65c0.1,0.56,0.23,39.84,0.13,43.33" stroke-dasharray="46.5" stroke-dashoffset="46.5"><animate attributeName="stroke-dashoffset" values="46.5" fill="freeze" begin="9b27.click" /><animate id="14" attributeName="stroke-dashoffset" values="46.5;0" dur="0.46s" fill="freeze" begin="13.end" /></path></g></g></g></g></svg>