<svg xmlns="http://www.w3.org/2000/svg" width="109" height="109" viewBox="0 0 109 109" id="9b28"><g fill="none" stroke="#666" stroke-width="9" stroke-linecap="round" stroke-linejoin="round"><g><g><g><path d="M15.87,16.25c1.09,0.5,1.74,2.25,1.96,3.25c0.22,1,0,72.75-0.22,79" /><g p6:partial xmlns:p6="http://kanjivg.tagaini.net"><path d="M23.97,17.02c0.46,0.25,1.96,0.07,2.43,0.02c5.11-0.61,14.95-1.82,20.18-2.09c0.71-0.04,1.36,0.05,1.95,0.26" /><path d="M35.11,16.9c0.93,1.16,0.93,1.86,0.93,2.8c0,3.05,0.49,9.8,0.49,16.3" /><path d="M24.47,27.45c0.43,0.24,1.82,0.07,2.26,0.02c4.74-0.57,13.89-1.69,18.74-1.94c0.66-0.03,1.26,0.05,1.81,0.24" /><path d="M22.97,37.64c0.52,0.29,2.2,0.08,2.73,0.02c5.73-0.68,16.78-2.05,22.65-2.34c0.8-0.04,1.53,0.06,2.19,0.29" /></g></g><g><g p6:partial xmlns:p6="http://kanjivg.tagaini.net"><path d="M58.25,15.52c0.47,0.25,2.02,0.07,2.5,0.02c5.24-0.61,16.36-1.82,21.73-2.09c0.73-0.04,1.4,0.05,2,0.26" /><path d="M70.19,15.4c0.96,1.16,0.96,1.86,0.96,2.8c0,6.52,0.5,10.8,0.5,15.8" /><path d="M59.76,25.45c0.44,0.24,1.87,0.07,2.32,0.02c4.87-0.57,14.27-1.69,19.25-1.94c0.68-0.03,1.3,0.05,1.86,0.24" /><path d="M58.22,35.64c0.53,0.29,2.26,0.08,2.8,0.02c5.89-0.68,17.24-2.05,23.26-2.34c0.82-0.04,1.57,0.06,2.25,0.29" /></g><path d="M90.27,11.83c0.98,0.92,1.76,1.99,1.76,5.02c0,19.9,0.24,71.16,0.24,76.12c0,10.39-7.21,1.5-8.71,0.25" /></g></g><g><g><path d="M35.9,54.6c0.93,0.23,2.64,0.28,3.56,0.23c6.11-0.33,24.44-2.5,33.28-2.5c1.55,0,2.48,0.11,3.25,0.22" /><path d="M43.91,44.28c0.68,0.31,1.2,1.37,1.22,1.99c0.11,4.45,1.38,17.06,1.7,22.12" /><path d="M65.38,41.75c0.68,0.31,1.29,1.37,1.22,1.99C65.5,53,64.75,58.5,62.46,67.32" /><path d="M28.9,69.51c1.25,0.33,3.54,0.42,4.78,0.33c8.15-0.61,33.14-2.64,43.56-2.94c2.08-0.06,3.33,0.16,4.36,0.33" /></g><g><path d="M46.85,75.39c0.04,0.38,0.09,0.97-0.08,1.52c-1,3.2-7.55,9.37-14.55,14.51" /><path d="M60.89,74.33c4.53,2.85,11.69,11.71,12.83,16.14" /></g></g></g></g><g fill="none" stroke="#000" stroke-width="5" stroke-linecap="round" stroke-linejoin="round"><g><g><g><path d="M15.87,16.25c1.09,0.5,1.74,2.25,1.96,3.25c0.22,1,0,72.75-0.22,79" stroke-dasharray="82.91" stroke-dashoffset="82.91"><animate id="0" attributeName="stroke-dashoffset" values="82.91;0" dur="0.62s" fill="freeze" begin="0s;9b28.click" /></path><g p6:partial xmlns:p6="http://kanjivg.tagaini.net"><path d="M23.97,17.02c0.46,0.25,1.96,0.07,2.43,0.02c5.11-0.61,14.95-1.82,20.18-2.09c0.71-0.04,1.36,0.05,1.95,0.26" stroke-dasharray="24.72" stroke-dashoffset="24.72"><animate attributeName="stroke-dashoffset" values="24.72" fill="freeze" begin="9b28.click" /><animate id="1" attributeName="stroke-dashoffset" values="24.72;0" dur="0.25s" fill="freeze" begin="0.end" /></path><path d="M35.11,16.9c0.93,1.16,0.93,1.86,0.93,2.8c0,3.05,0.49,9.8,0.49,16.3" stroke-dasharray="19.34" stroke-dashoffset="19.34"><animate attributeName="stroke-dashoffset" values="19.34" fill="freeze" begin="9b28.click" /><animate id="2" attributeName="stroke-dashoffset" values="19.34;0" dur="0.19s" fill="freeze" begin="1.end" /></path><path d="M24.47,27.45c0.43,0.24,1.82,0.07,2.26,0.02c4.74-0.57,13.89-1.69,18.74-1.94c0.66-0.03,1.26,0.05,1.81,0.24" stroke-dasharray="22.96" stroke-dashoffset="22.96"><animate attributeName="stroke-dashoffset" values="22.96" fill="freeze" begin="9b28.click" /><animate id="3" attributeName="stroke-dashoffset" values="22.96;0" dur="0.23s" fill="freeze" begin="2.end" /></path><path d="M22.97,37.64c0.52,0.29,2.2,0.08,2.73,0.02c5.73-0.68,16.78-2.05,22.65-2.34c0.8-0.04,1.53,0.06,2.19,0.29" stroke-dasharray="27.75" stroke-dashoffset="27.75"><animate attributeName="stroke-dashoffset" values="27.75" fill="freeze" begin="9b28.click" /><animate id="4" attributeName="stroke-dashoffset" values="27.75;0" dur="0.28s" fill="freeze" begin="3.end" /></path></g></g><g><g p6:partial xmlns:p6="http://kanjivg.tagaini.net"><path d="M58.25,15.52c0.47,0.25,2.02,0.07,2.5,0.02c5.24-0.61,16.36-1.82,21.73-2.09c0.73-0.04,1.4,0.05,2,0.26" stroke-dasharray="26.38" stroke-dashoffset="26.38"><animate attributeName="stroke-dashoffset" values="26.38" fill="freeze" begin="9b28.click" /><animate id="5" attributeName="stroke-dashoffset" values="26.38;0" dur="0.26s" fill="freeze" begin="4.end" /></path><path d="M70.19,15.4c0.96,1.16,0.96,1.86,0.96,2.8c0,6.52,0.5,10.8,0.5,15.8" stroke-dasharray="18.85" stroke-dashoffset="18.85"><animate attributeName="stroke-dashoffset" values="18.85" fill="freeze" begin="9b28.click" /><animate id="6" attributeName="stroke-dashoffset" values="18.85;0" dur="0.19s" fill="freeze" begin="5.end" /></path><path d="M59.76,25.45c0.44,0.24,1.87,0.07,2.32,0.02c4.87-0.57,14.27-1.69,19.25-1.94c0.68-0.03,1.3,0.05,1.86,0.24" stroke-dasharray="23.58" stroke-dashoffset="23.58"><animate attributeName="stroke-dashoffset" values="23.58" fill="freeze" begin="9b28.click" /><animate id="7" attributeName="stroke-dashoffset" values="23.58;0" dur="0.24s" fill="freeze" begin="6.end" /></path><path d="M58.22,35.64c0.53,0.29,2.26,0.08,2.8,0.02c5.89-0.68,17.24-2.05,23.26-2.34c0.82-0.04,1.57,0.06,2.25,0.29" stroke-dasharray="28.49" stroke-dashoffset="28.49"><animate attributeName="stroke-dashoffset" values="28.49" fill="freeze" begin="9b28.click" /><animate id="8" attributeName="stroke-dashoffset" values="28.49;0" dur="0.28s" fill="freeze" begin="7.end" /></path></g><path d="M90.27,11.83c0.98,0.92,1.76,1.99,1.76,5.02c0,19.9,0.24,71.16,0.24,76.12c0,10.39-7.21,1.5-8.71,0.25" stroke-dasharray="95.82" stroke-dashoffset="95.82"><animate attributeName="stroke-dashoffset" values="95.82" fill="freeze" begin="9b28.click" /><animate id="9" attributeName="stroke-dashoffset" values="95.82;0" dur="0.72s" fill="freeze" begin="8.end" /></path></g></g><g><g><path d="M35.9,54.6c0.93,0.23,2.64,0.28,3.56,0.23c6.11-0.33,24.44-2.5,33.28-2.5c1.55,0,2.48,0.11,3.25,0.22" stroke-dasharray="40.22" stroke-dashoffset="40.22"><animate attributeName="stroke-dashoffset" values="40.22" fill="freeze" begin="9b28.click" /><animate id="10" attributeName="stroke-dashoffset" values="40.22;0" dur="0.4s" fill="freeze" begin="9.end" /></path><path d="M43.91,44.28c0.68,0.31,1.2,1.37,1.22,1.99c0.11,4.45,1.38,17.06,1.7,22.12" stroke-dasharray="24.61" stroke-dashoffset="24.61"><animate attributeName="stroke-dashoffset" values="24.61" fill="freeze" begin="9b28.click" /><animate id="11" attributeName="stroke-dashoffset" values="24.61;0" dur="0.25s" fill="freeze" begin="10.end" /></path><path d="M65.38,41.75c0.68,0.31,1.29,1.37,1.22,1.99C65.5,53,64.75,58.5,62.46,67.32" stroke-dasharray="26.41" stroke-dashoffset="26.41"><animate attributeName="stroke-dashoffset" values="26.41" fill="freeze" begin="9b28.click" /><animate id="12" attributeName="stroke-dashoffset" values="26.41;0" dur="0.26s" fill="freeze" begin="11.end" /></path><path d="M28.9,69.51c1.25,0.33,3.54,0.42,4.78,0.33c8.15-0.61,33.14-2.64,43.56-2.94c2.08-0.06,3.33,0.16,4.36,0.33" stroke-dasharray="52.85" stroke-dashoffset="52.85"><animate attributeName="stroke-dashoffset" values="52.85" fill="freeze" begin="9b28.click" /><animate id="13" attributeName="stroke-dashoffset" values="52.85;0" dur="0.53s" fill="freeze" begin="12.end" /></path></g><g><path d="M46.85,75.39c0.04,0.38,0.09,0.97-0.08,1.52c-1,3.2-7.55,9.37-14.55,14.51" stroke-dasharray="22.27" stroke-dashoffset="22.27"><animate attributeName="stroke-dashoffset" values="22.27" fill="freeze" begin="9b28.click" /><animate id="14" attributeName="stroke-dashoffset" values="22.27;0" dur="0.22s" fill="freeze" begin="13.end" /></path><path d="M60.89,74.33c4.53,2.85,11.69,11.71,12.83,16.14" stroke-dasharray="20.9" stroke-dashoffset="20.9"><animate attributeName="stroke-dashoffset" values="20.9" fill="freeze" begin="9b28.click" /><animate id="15" attributeName="stroke-dashoffset" values="20.9;0" dur="0.21s" fill="freeze" begin="14.end" /></path></g></g></g></g></svg>