<svg xmlns="http://www.w3.org/2000/svg" viewBox="0 0 109 109" id="9b29"><g fill="none" stroke="#666" stroke-width="6" stroke-linecap="round" stroke-linejoin="round"><g><g><g><path d="M15.87,16.25c1.09,0.5,1.74,2.25,1.96,3.25c0.22,1,0,72.75-0.22,79" /><g p6:partial xmlns:p6="http://kanjivg.tagaini.net"><path d="M23.97,17.02c0.46,0.25,1.96,0.07,2.43,0.02c5.11-0.61,14.95-1.82,20.18-2.09c0.71-0.04,1.36,0.05,1.95,0.26" /><path d="M35.11,16.9c0.93,1.16,0.93,1.86,0.93,2.8c0,3.05,0.49,9.8,0.49,16.3" /><path d="M24.47,27.45c0.43,0.24,1.82,0.07,2.26,0.02c4.74-0.57,13.89-1.69,18.74-1.94c0.66-0.03,1.26,0.05,1.81,0.24" /><path d="M22.97,37.64c0.52,0.29,2.2,0.08,2.73,0.02c5.73-0.68,16.78-2.05,22.65-2.34c0.8-0.04,1.53,0.06,2.19,0.29" /></g></g><g><g p6:partial xmlns:p6="http://kanjivg.tagaini.net"><path d="M57.75,15.02c0.47,0.25,2.02,0.07,2.5,0.02c5.24-0.61,16.36-1.82,21.73-2.09c0.73-0.04,1.4,0.05,2,0.26" /><path d="M70.19,14.9c0.96,1.16,0.96,1.86,0.96,2.8c0,6.52,0.5,10.8,0.5,15.8" /><path d="M59.26,25.45c0.44,0.24,1.87,0.07,2.32,0.02c4.87-0.57,14.27-1.69,19.25-1.94c0.68-0.03,1.3,0.05,1.86,0.24" /><path d="M57.72,35.14c0.53,0.29,2.26,0.08,2.8,0.02c5.89-0.68,17.24-1.55,23.26-1.84c0.82-0.04,1.57,0.06,2.25,0.29" /></g><path d="M90.27,12.33c0.98,0.92,1.76,1.99,1.76,5.02c0,19.9,0.24,70.16,0.24,75.12c0,10.39-7.21,1.5-8.71,0.25" /></g></g><g><g><path d="M50.11,42.46c0.04,0.15-0.55,1.18-0.79,1.34c-3.1,2.2-5.93,4.32-13.44,7.17" /><path d="M34.35,50.34c0.6,0.46,0.84,1.5,0.99,2.44c0.54,3.46,2.25,15.55,2.79,20.23" /><path d="M57.47,46.12c0.7,0.1,1.27,0.32,2.25,0.32c0.98,0,11.03-1.26,12.16-1.37c1.12-0.11,2.48,0.69,2.32,1.88c-0.86,6.62-1.97,17.17-2.81,22.23c-0.12,0.73,0,1.16-0.14,1.58" /><path d="M36.9,59.81c3.18-0.45,10.95-1.75,11.71-1.75c0.76,0,1.82,0,2.42,0" /><path d="M57.03,57.29c0.71,0.11,1.27,0.32,2.25,0.32c0.98,0,12.03-1.21,13.16-1.31" /><path d="M38.27,71.22c3.51-0.21,30.31-2.46,32.42-2.56" /></g><g><g><g><path d="M46.77,73.87c0.05,0.53-0.01,1.35-0.1,2.13C46,82.25,40.25,93.25,29.7,96.42" /></g><g><path d="M57.85,72.37c0.4,0.63,0.71,1.37,0.74,2.34c0.11,4.33,0.08,10.65-0.02,13.58c-0.18,5.29,1.57,6.09,9.48,6.09c8.32,0,8.79-1.2,8.79-4.82" /></g></g></g></g></g></g><g fill="none" stroke="#000" stroke-width="3" stroke-linecap="round" stroke-linejoin="round"><path d="M15.87,16.25c1.09,0.5,1.74,2.25,1.96,3.25c0.22,1,0,72.75-0.22,79" stroke-dasharray="82.912" stroke-dashoffset="82.912"><animate attributeName="stroke-dashoffset" values="82.912;82.912;0" dur="0.623s" fill="freeze" begin="0s;9b29.click" /></path><path d="M23.97,17.02c0.46,0.25,1.96,0.07,2.43,0.02c5.11-0.61,14.95-1.82,20.18-2.09c0.71-0.04,1.36,0.05,1.95,0.26" stroke-dasharray="24.724" stroke-dashoffset="24.724"><animate attributeName="stroke-dashoffset" values="24.724" fill="freeze" begin="9b29.click" /><animate attributeName="stroke-dashoffset" values="24.724;24.724;0" keyTimes="0;0.716;1" dur="0.87s" fill="freeze" begin="0s;9b29.click" /></path><path d="M35.11,16.9c0.93,1.16,0.93,1.86,0.93,2.8c0,3.05,0.49,9.8,0.49,16.3" stroke-dasharray="19.34" stroke-dashoffset="19.34"><animate attributeName="stroke-dashoffset" values="19.34" fill="freeze" begin="9b29.click" /><animate attributeName="stroke-dashoffset" values="19.34;19.34;0" keyTimes="0;0.818;1" dur="1.063s" fill="freeze" begin="0s;9b29.click" /></path><path d="M24.47,27.45c0.43,0.24,1.82,0.07,2.26,0.02c4.74-0.57,13.89-1.69,18.74-1.94c0.66-0.03,1.26,0.05,1.81,0.24" stroke-dasharray="22.962" stroke-dashoffset="22.962"><animate attributeName="stroke-dashoffset" values="22.962" fill="freeze" begin="9b29.click" /><animate attributeName="stroke-dashoffset" values="22.962;22.962;0" keyTimes="0;0.822;1" dur="1.293s" fill="freeze" begin="0s;9b29.click" /></path><path d="M22.97,37.64c0.52,0.29,2.2,0.08,2.73,0.02c5.73-0.68,16.78-2.05,22.65-2.34c0.8-0.04,1.53,0.06,2.19,0.29" stroke-dasharray="27.754" stroke-dashoffset="27.754"><animate attributeName="stroke-dashoffset" values="27.754" fill="freeze" begin="9b29.click" /><animate attributeName="stroke-dashoffset" values="27.754;27.754;0" keyTimes="0;0.823;1" dur="1.571s" fill="freeze" begin="0s;9b29.click" /></path><path d="M57.75,15.02c0.47,0.25,2.02,0.07,2.5,0.02c5.24-0.61,16.36-1.82,21.73-2.09c0.73-0.04,1.4,0.05,2,0.26" stroke-dasharray="26.385" stroke-dashoffset="26.385"><animate attributeName="stroke-dashoffset" values="26.385" fill="freeze" begin="9b29.click" /><animate attributeName="stroke-dashoffset" values="26.385;26.385;0" keyTimes="0;0.856;1" dur="1.835s" fill="freeze" begin="0s;9b29.click" /></path><path d="M70.19,14.9c0.96,1.16,0.96,1.86,0.96,2.8c0,6.52,0.5,10.8,0.5,15.8" stroke-dasharray="18.855" stroke-dashoffset="18.855"><animate attributeName="stroke-dashoffset" values="18.855" fill="freeze" begin="9b29.click" /><animate attributeName="stroke-dashoffset" values="18.855;18.855;0" keyTimes="0;0.907;1" dur="2.024s" fill="freeze" begin="0s;9b29.click" /></path><path d="M59.26,25.45c0.44,0.24,1.87,0.07,2.32,0.02c4.87-0.57,14.27-1.69,19.25-1.94c0.68-0.03,1.3,0.05,1.86,0.24" stroke-dasharray="23.578" stroke-dashoffset="23.578"><animate attributeName="stroke-dashoffset" values="23.578" fill="freeze" begin="9b29.click" /><animate attributeName="stroke-dashoffset" values="23.578;23.578;0" keyTimes="0;0.896;1" dur="2.26s" fill="freeze" begin="0s;9b29.click" /></path><path d="M57.72,35.14c0.53,0.29,2.26,0.08,2.8,0.02c5.89-0.68,17.24-1.55,23.26-1.84c0.82-0.04,1.57,0.06,2.25,0.29" stroke-dasharray="28.444" stroke-dashoffset="28.444"><animate attributeName="stroke-dashoffset" values="28.444" fill="freeze" begin="9b29.click" /><animate attributeName="stroke-dashoffset" values="28.444;28.444;0" keyTimes="0;0.888;1" dur="2.544s" fill="freeze" begin="0s;9b29.click" /></path><path d="M90.27,12.33c0.98,0.92,1.76,1.99,1.76,5.02c0,19.9,0.24,70.16,0.24,75.12c0,10.39-7.21,1.5-8.71,0.25" stroke-dasharray="94.823" stroke-dashoffset="94.823"><animate attributeName="stroke-dashoffset" values="94.823" fill="freeze" begin="9b29.click" /><animate attributeName="stroke-dashoffset" values="94.823;94.823;0" keyTimes="0;0.781;1" dur="3.257s" fill="freeze" begin="0s;9b29.click" /></path><path d="M50.11,42.46c0.04,0.15-0.55,1.18-0.79,1.34c-3.1,2.2-5.93,4.32-13.44,7.17" stroke-dasharray="16.866" stroke-dashoffset="16.866"><animate attributeName="stroke-dashoffset" values="16.866" fill="freeze" begin="9b29.click" /><animate attributeName="stroke-dashoffset" values="16.866;16.866;0" keyTimes="0;0.951;1" dur="3.426s" fill="freeze" begin="0s;9b29.click" /></path><path d="M34.35,50.34c0.6,0.46,0.84,1.5,0.99,2.44c0.54,3.46,2.25,15.55,2.79,20.23" stroke-dasharray="23.113" stroke-dashoffset="23.113"><animate attributeName="stroke-dashoffset" values="23.113" fill="freeze" begin="9b29.click" /><animate attributeName="stroke-dashoffset" values="23.113;23.113;0" keyTimes="0;0.937;1" dur="3.657s" fill="freeze" begin="0s;9b29.click" /></path><path d="M57.47,46.12c0.7,0.1,1.27,0.32,2.25,0.32c0.98,0,11.03-1.26,12.16-1.37c1.12-0.11,2.48,0.69,2.32,1.88c-0.86,6.62-1.97,17.17-2.81,22.23c-0.12,0.73,0,1.16-0.14,1.58" stroke-dasharray="41.917" stroke-dashoffset="41.917"><animate attributeName="stroke-dashoffset" values="41.917" fill="freeze" begin="9b29.click" /><animate attributeName="stroke-dashoffset" values="41.917;41.917;0" keyTimes="0;0.897;1" dur="4.076s" fill="freeze" begin="0s;9b29.click" /></path><path d="M36.9,59.81c3.18-0.45,10.95-1.75,11.71-1.75c0.76,0,1.82,0,2.42,0" stroke-dasharray="14.262" stroke-dashoffset="14.262"><animate attributeName="stroke-dashoffset" values="14.262" fill="freeze" begin="9b29.click" /><animate attributeName="stroke-dashoffset" values="14.262;14.262;0" keyTimes="0;0.966;1" dur="4.219s" fill="freeze" begin="0s;9b29.click" /></path><path d="M57.03,57.29c0.71,0.11,1.27,0.32,2.25,0.32c0.98,0,12.03-1.21,13.16-1.31" stroke-dasharray="15.504" stroke-dashoffset="15.504"><animate attributeName="stroke-dashoffset" values="15.504" fill="freeze" begin="9b29.click" /><animate attributeName="stroke-dashoffset" values="15.504;15.504;0" keyTimes="0;0.965;1" dur="4.374s" fill="freeze" begin="0s;9b29.click" /></path><path d="M38.27,71.22c3.51-0.21,30.31-2.46,32.42-2.56" stroke-dasharray="32.522" stroke-dashoffset="32.522"><animate attributeName="stroke-dashoffset" values="32.522" fill="freeze" begin="9b29.click" /><animate attributeName="stroke-dashoffset" values="32.522;32.522;0" keyTimes="0;0.931;1" dur="4.699s" fill="freeze" begin="0s;9b29.click" /></path><path d="M46.77,73.87c0.05,0.53-0.01,1.35-0.1,2.13C46,82.25,40.25,93.25,29.7,96.42" stroke-dasharray="30.051" stroke-dashoffset="30.051"><animate attributeName="stroke-dashoffset" values="30.051" fill="freeze" begin="9b29.click" /><animate attributeName="stroke-dashoffset" values="30.051;30.051;0" keyTimes="0;0.94;1" dur="5s" fill="freeze" begin="0s;9b29.click" /></path><path d="M57.85,72.37c0.4,0.63,0.71,1.37,0.74,2.34c0.11,4.33,0.08,10.65-0.02,13.58c-0.18,5.29,1.57,6.09,9.48,6.09c8.32,0,8.79-1.2,8.79-4.82" stroke-dasharray="41.424" stroke-dashoffset="41.424"><animate attributeName="stroke-dashoffset" values="41.424" fill="freeze" begin="9b29.click" /><animate attributeName="stroke-dashoffset" values="41.424;41.424;0" keyTimes="0;0.924;1" dur="5.414s" fill="freeze" begin="0s;9b29.click" /></path></g></svg>