<svg xmlns="http://www.w3.org/2000/svg" width="109" height="109" viewBox="0 0 109 109" id="9b2a"><g fill="none" stroke="#666" stroke-width="9" stroke-linecap="round" stroke-linejoin="round"><g><g><g><path d="M15.87,16.25c1.09,0.5,1.74,2.25,1.96,3.25c0.22,1,0,72.75-0.22,79" /><g p6:partial xmlns:p6="http://kanjivg.tagaini.net"><path d="M23.97,17.02c0.46,0.25,1.96,0.07,2.43,0.02c5.11-0.61,14.95-1.82,20.18-2.09c0.71-0.04,1.36,0.05,1.95,0.26" /><path d="M35.11,16.9c0.93,1.16,0.93,1.86,0.93,2.8c0,3.05,0.49,9.8,0.49,16.3" /><path d="M24.47,27.45c0.43,0.24,1.82,0.07,2.26,0.02c4.74-0.57,13.89-1.69,18.74-1.94c0.66-0.03,1.26,0.05,1.81,0.24" /><path d="M22.97,37.64c0.52,0.29,2.2,0.08,2.73,0.02c5.73-0.68,16.78-2.05,22.65-2.34c0.8-0.04,1.53,0.06,2.19,0.29" /></g></g><g><g p6:partial xmlns:p6="http://kanjivg.tagaini.net"><path d="M57.75,15.52c0.47,0.25,2.02,0.07,2.5,0.02c5.24-0.61,16.36-1.82,21.73-2.09c0.73-0.04,1.4,0.05,2,0.26" /><path d="M70.19,15.4c0.96,1.16,0.96,1.86,0.96,2.8c0,6.52,0.5,10.8,0.5,15.8" /><path d="M59.26,25.45c0.44,0.24,1.87,0.07,2.32,0.02c4.87-0.57,14.27-1.69,19.25-1.94c0.68-0.03,1.3,0.05,1.86,0.24" /><path d="M57.72,35.64c0.53,0.29,2.26,0.08,2.8,0.02c5.89-0.68,17.24-2.05,23.26-2.34c0.82-0.04,1.57,0.06,2.25,0.29" /></g><path d="M90.27,11.83c0.98,0.92,1.76,1.99,1.76,5.02c0,19.9,0.24,71.16,0.24,76.12c0,10.39-7.21,1.5-8.71,0.25" /></g></g><g><g><path d="M27.13,47.1c2.37,0.4,1.62,0.5,3.79,0.31c6.34-0.54,9.84-1.18,18.51-2.24c0.77-0.09,2.24,0.12,2.63,0.24" /></g><g><g><path d="M29.34,54.83c0.29,0.24,0.66,0.98,0.72,1.3c0.4,2.33,1.48,7.87,2.37,12.51" /><path d="M30.46,55.78c4.43-0.47,16.16-2.05,19.18-2.12c1.25-0.03,2.1,0.61,1.82,1.97c-0.5,2.44-1.6,5.38-3.12,10.03" /><path d="M32.66,67.45c4.28-0.42,12.47-1.23,16.99-1.3" /></g><path d="M31.4,73.76c1.34,1.86,3.46,8.48,3.8,11.37" /><path d="M48.16,71.62c0.01,0.33,0.03,0.85-0.03,1.33c-0.33,2.8-2.23,8.94-4.83,12.7" /><path d="M28.22,91.58c0.78,0.92,1.89,1.17,3.14,0.73c5.89-2.05,14.02-4.8,21.06-7.74" /></g></g><g><path d="M56.89,56.96c1.05,0.49,2.98,0.63,4.04,0.49c6.67-0.93,13.18-1.93,20.75-2.39c1.75-0.11,2.81,0.23,3.69,0.48" /><path d="M72.02,43.71c0.05,0.33,0.77,1.74,0.77,3.85c0,14.25-0.16,39.99-0.16,43.46c0,8.4-4.6,1.24-5.95,0.17" /><path d="M58.82,66.58c2.03,1.57,5.24,6.46,5.75,8.91" /></g></g></g><g fill="none" stroke="#000" stroke-width="5" stroke-linecap="round" stroke-linejoin="round"><g><g><g><path d="M15.87,16.25c1.09,0.5,1.74,2.25,1.96,3.25c0.22,1,0,72.75-0.22,79" stroke-dasharray="82.91" stroke-dashoffset="82.91"><animate id="0" attributeName="stroke-dashoffset" values="82.91;0" dur="0.62s" fill="freeze" begin="0s;9b2a.click" /></path><g p6:partial xmlns:p6="http://kanjivg.tagaini.net"><path d="M23.97,17.02c0.46,0.25,1.96,0.07,2.43,0.02c5.11-0.61,14.95-1.82,20.18-2.09c0.71-0.04,1.36,0.05,1.95,0.26" stroke-dasharray="24.72" stroke-dashoffset="24.72"><animate attributeName="stroke-dashoffset" values="24.72" fill="freeze" begin="9b2a.click" /><animate id="1" attributeName="stroke-dashoffset" values="24.72;0" dur="0.25s" fill="freeze" begin="0.end" /></path><path d="M35.11,16.9c0.93,1.16,0.93,1.86,0.93,2.8c0,3.05,0.49,9.8,0.49,16.3" stroke-dasharray="19.34" stroke-dashoffset="19.34"><animate attributeName="stroke-dashoffset" values="19.34" fill="freeze" begin="9b2a.click" /><animate id="2" attributeName="stroke-dashoffset" values="19.34;0" dur="0.19s" fill="freeze" begin="1.end" /></path><path d="M24.47,27.45c0.43,0.24,1.82,0.07,2.26,0.02c4.74-0.57,13.89-1.69,18.74-1.94c0.66-0.03,1.26,0.05,1.81,0.24" stroke-dasharray="22.96" stroke-dashoffset="22.96"><animate attributeName="stroke-dashoffset" values="22.96" fill="freeze" begin="9b2a.click" /><animate id="3" attributeName="stroke-dashoffset" values="22.96;0" dur="0.23s" fill="freeze" begin="2.end" /></path><path d="M22.97,37.64c0.52,0.29,2.2,0.08,2.73,0.02c5.73-0.68,16.78-2.05,22.65-2.34c0.8-0.04,1.53,0.06,2.19,0.29" stroke-dasharray="27.75" stroke-dashoffset="27.75"><animate attributeName="stroke-dashoffset" values="27.75" fill="freeze" begin="9b2a.click" /><animate id="4" attributeName="stroke-dashoffset" values="27.75;0" dur="0.28s" fill="freeze" begin="3.end" /></path></g></g><g><g p6:partial xmlns:p6="http://kanjivg.tagaini.net"><path d="M57.75,15.52c0.47,0.25,2.02,0.07,2.5,0.02c5.24-0.61,16.36-1.82,21.73-2.09c0.73-0.04,1.4,0.05,2,0.26" stroke-dasharray="26.38" stroke-dashoffset="26.38"><animate attributeName="stroke-dashoffset" values="26.38" fill="freeze" begin="9b2a.click" /><animate id="5" attributeName="stroke-dashoffset" values="26.38;0" dur="0.26s" fill="freeze" begin="4.end" /></path><path d="M70.19,15.4c0.96,1.16,0.96,1.86,0.96,2.8c0,6.52,0.5,10.8,0.5,15.8" stroke-dasharray="18.85" stroke-dashoffset="18.85"><animate attributeName="stroke-dashoffset" values="18.85" fill="freeze" begin="9b2a.click" /><animate id="6" attributeName="stroke-dashoffset" values="18.85;0" dur="0.19s" fill="freeze" begin="5.end" /></path><path d="M59.26,25.45c0.44,0.24,1.87,0.07,2.32,0.02c4.87-0.57,14.27-1.69,19.25-1.94c0.68-0.03,1.3,0.05,1.86,0.24" stroke-dasharray="23.58" stroke-dashoffset="23.58"><animate attributeName="stroke-dashoffset" values="23.58" fill="freeze" begin="9b2a.click" /><animate id="7" attributeName="stroke-dashoffset" values="23.58;0" dur="0.24s" fill="freeze" begin="6.end" /></path><path d="M57.72,35.64c0.53,0.29,2.26,0.08,2.8,0.02c5.89-0.68,17.24-2.05,23.26-2.34c0.82-0.04,1.57,0.06,2.25,0.29" stroke-dasharray="28.49" stroke-dashoffset="28.49"><animate attributeName="stroke-dashoffset" values="28.49" fill="freeze" begin="9b2a.click" /><animate id="8" attributeName="stroke-dashoffset" values="28.49;0" dur="0.28s" fill="freeze" begin="7.end" /></path></g><path d="M90.27,11.83c0.98,0.92,1.76,1.99,1.76,5.02c0,19.9,0.24,71.16,0.24,76.12c0,10.39-7.21,1.5-8.71,0.25" stroke-dasharray="95.82" stroke-dashoffset="95.82"><animate attributeName="stroke-dashoffset" values="95.82" fill="freeze" begin="9b2a.click" /><animate id="9" attributeName="stroke-dashoffset" values="95.82;0" dur="0.72s" fill="freeze" begin="8.end" /></path></g></g><g><g><path d="M27.13,47.1c2.37,0.4,1.62,0.5,3.79,0.31c6.34-0.54,9.84-1.18,18.51-2.24c0.77-0.09,2.24,0.12,2.63,0.24" stroke-dasharray="25.13" stroke-dashoffset="25.13"><animate attributeName="stroke-dashoffset" values="25.13" fill="freeze" begin="9b2a.click" /><animate id="10" attributeName="stroke-dashoffset" values="25.13;0" dur="0.25s" fill="freeze" begin="9.end" /></path></g><g><g><path d="M29.34,54.83c0.29,0.24,0.66,0.98,0.72,1.3c0.4,2.33,1.48,7.87,2.37,12.51" stroke-dasharray="14.24" stroke-dashoffset="14.24"><animate attributeName="stroke-dashoffset" values="14.24" fill="freeze" begin="9b2a.click" /><animate id="11" attributeName="stroke-dashoffset" values="14.24;0" dur="0.14s" fill="freeze" begin="10.end" /></path><path d="M30.46,55.78c4.43-0.47,16.16-2.05,19.18-2.12c1.25-0.03,2.1,0.61,1.82,1.97c-0.5,2.44-1.6,5.38-3.12,10.03" stroke-dasharray="33.02" stroke-dashoffset="33.02"><animate attributeName="stroke-dashoffset" values="33.02" fill="freeze" begin="9b2a.click" /><animate id="12" attributeName="stroke-dashoffset" values="33.02;0" dur="0.33s" fill="freeze" begin="11.end" /></path><path d="M32.66,67.45c4.28-0.42,12.47-1.23,16.99-1.3" stroke-dasharray="17.04" stroke-dashoffset="17.04"><animate attributeName="stroke-dashoffset" values="17.04" fill="freeze" begin="9b2a.click" /><animate id="13" attributeName="stroke-dashoffset" values="17.04;0" dur="0.17s" fill="freeze" begin="12.end" /></path></g><path d="M31.4,73.76c1.34,1.86,3.46,8.48,3.8,11.37" stroke-dasharray="12.05" stroke-dashoffset="12.05"><animate attributeName="stroke-dashoffset" values="12.05" fill="freeze" begin="9b2a.click" /><animate id="14" attributeName="stroke-dashoffset" values="12.05;0" dur="0.12s" fill="freeze" begin="13.end" /></path><path d="M48.16,71.62c0.01,0.33,0.03,0.85-0.03,1.33c-0.33,2.8-2.23,8.94-4.83,12.7" stroke-dasharray="15.02" stroke-dashoffset="15.02"><animate attributeName="stroke-dashoffset" values="15.02" fill="freeze" begin="9b2a.click" /><animate id="15" attributeName="stroke-dashoffset" values="15.02;0" dur="0.15s" fill="freeze" begin="14.end" /></path><path d="M28.22,91.58c0.78,0.92,1.89,1.17,3.14,0.73c5.89-2.05,14.02-4.8,21.06-7.74" stroke-dasharray="25.89" stroke-dashoffset="25.89"><animate attributeName="stroke-dashoffset" values="25.89" fill="freeze" begin="9b2a.click" /><animate id="16" attributeName="stroke-dashoffset" values="25.89;0" dur="0.26s" fill="freeze" begin="15.end" /></path></g></g><g><path d="M56.89,56.96c1.05,0.49,2.98,0.63,4.04,0.49c6.67-0.93,13.18-1.93,20.75-2.39c1.75-0.11,2.81,0.23,3.69,0.48" stroke-dasharray="28.75" stroke-dashoffset="28.75"><animate attributeName="stroke-dashoffset" values="28.75" fill="freeze" begin="9b2a.click" /><animate id="17" attributeName="stroke-dashoffset" values="28.75;0" dur="0.29s" fill="freeze" begin="16.end" /></path><path d="M72.02,43.71c0.05,0.33,0.77,1.74,0.77,3.85c0,14.25-0.16,39.99-0.16,43.46c0,8.4-4.6,1.24-5.95,0.17" stroke-dasharray="58.1" stroke-dashoffset="58.1"><animate attributeName="stroke-dashoffset" values="58.1" fill="freeze" begin="9b2a.click" /><animate id="18" attributeName="stroke-dashoffset" values="58.1;0" dur="0.58s" fill="freeze" begin="17.end" /></path><path d="M58.82,66.58c2.03,1.57,5.24,6.46,5.75,8.91" stroke-dasharray="10.73" stroke-dashoffset="10.73"><animate attributeName="stroke-dashoffset" values="10.73" fill="freeze" begin="9b2a.click" /><animate id="19" attributeName="stroke-dashoffset" values="10.73;0" dur="0.11s" fill="freeze" begin="18.end" /></path></g></g></g></svg>