<svg xmlns="http://www.w3.org/2000/svg" width="109" height="109" viewBox="0 0 109 109" id="9b2e"><g fill="none" stroke="#666" stroke-width="9" stroke-linecap="round" stroke-linejoin="round"><g><g><g><path d="M15.87,15.75c1.09,0.5,1.74,2.25,1.96,3.25c0.22,1,0,72.75-0.22,79" /><g p6:partial xmlns:p6="http://kanjivg.tagaini.net"><path d="M23.97,16.82c0.46,0.23,1.96,0.06,2.43,0.01c5.11-0.55,14.95-1.64,20.18-1.88c0.71-0.03,1.36,0.05,1.95,0.24" /><path d="M35.11,16.71c0.93,1.05,0.93,1.68,0.93,2.52c0,2.75,0.49,8.84,0.49,14.7" /><path d="M24.47,26.22c0.43,0.21,1.82,0.06,2.26,0.01c4.74-0.51,13.89-1.53,18.74-1.75c0.66-0.03,1.26,0.04,1.81,0.22" /><path d="M22.97,35.4c0.52,0.26,2.2,0.07,2.73,0.02c5.73-0.62,16.78-1.85,22.65-2.11c0.8-0.04,1.53,0.05,2.19,0.26" /></g></g><g><g p6:partial xmlns:p6="http://kanjivg.tagaini.net"><path d="M57.75,15.52c0.47,0.25,2.02,0.07,2.5,0.02c5.24-0.61,16.36-1.82,21.73-2.09c0.73-0.04,1.4,0.05,2,0.26" /><path d="M70.19,15.4c0.96,1.16,0.96,1.86,0.96,2.8c0,6.52,0.5,8.8,0.5,13.8" /><path d="M59.26,24.45c0.44,0.24,1.87,0.07,2.32,0.02c4.87-0.57,14.27-2.19,19.25-2.44c0.68-0.03,1.3,0.05,1.86,0.24" /><path d="M57.72,33.64c0.53,0.29,2.26,0.08,2.8,0.02c5.89-0.68,17.24-2.05,23.26-2.34c0.82-0.04,1.57,0.06,2.25,0.29" /></g><path d="M90.27,12.33c0.98,0.92,1.76,1.99,1.76,5.02c0,19.9,0.24,70.16,0.24,75.12c0,10.39-7.21,1.5-8.71,0.25" /></g></g><g><g><path d="M43.63,35.75c0.05,0.32,0.1,0.84-0.09,1.3C42.4,39.8,35.9,45.82,26.98,49.5" /><path d="M41.46,40.47c3.44-0.2,10.47-0.71,13.6-1.88c2.4-0.9,3.48,0.19,1.67,2.27c-1.6,1.84-3.08,3.35-5.97,6.79" /></g><path d="M33.21,48.81c0.45,0.45,0.52,0.74,0.71,1.32c0.67,2.02,1.12,5.15,1.44,7.94" /><path d="M35.11,48.85c6.25-0.92,34.66-3.77,38.63-4.39c1.46-0.23,2.34,0.6,2.13,1.38c-0.85,3.19-1.36,3.92-1.96,6.16" /><path d="M35.29,56.73c1.87,0,11.54-1.12,13.07-1.12" /><path d="M59.07,54.7c3.4-0.32,13.91-1.53,15.95-1.53" /><path d="M48.94,48.47c0,8.01-0.02,37.24-0.02,40.82c0,7.7,2.5,9.2,14.91,9.2s14.72-0.5,14.72-7.66" /><path d="M57.96,47.8c0.15,0.64,0,41.3-0.15,45.32" /><g><path d="M28.39,62.47c1.13,0.42,1.28,0.75,2.28,0.58c4.1-0.7,5.91-1.25,10.86-1.79c0.83-0.09,1.69,0.91,1.47,2.01c-0.58,2.88-0.99,3.92-1.76,8.87" /><path d="M25.32,67.72c1.13,0.42,1.27,0.65,2.28,0.58c6.16-0.44,41.86-5.41,46.69-5.41c1.43,0,2.17,1.25,2.2,2.37c0.08,3.42-1.35,15.87-2.12,20.81" /><path d="M28.69,74.66c0.55,0.07,1.55,0.29,2.2,0.2c7.68-1.01,10.8-1.73,11.46-1.66" /></g><g><path d="M27.67,80.57c1.1,0.11,1.63,0.35,2.64,0.22c4.1-0.52,7.17-1.61,11.23-2.15c1.42-0.19,1.69,0.55,1.47,1.65c-0.58,2.88-0.99,7.54-1.76,12.49" /><path d="M24.75,86.83c0.97,0.31,2.49,0.68,3.58,0.58c9.56-0.88,37.2-3.35,46.45-4.2" /><path d="M27.6,93.92c0.55,0.07,1.54,0.24,2.2,0.2c4.6-0.29,10.39-0.83,12.63-1.01" /></g><path d="M69.71,66.62c0.02,0.33,0.05,0.84-0.05,1.31c-0.58,2.76-3.89,8.8-8.43,12.5" /><path d="M61.74,70.19c3.08,1.68,7.95,6.9,8.72,9.51" /></g></g></g><g fill="none" stroke="#000" stroke-width="5" stroke-linecap="round" stroke-linejoin="round"><g><g><g><path d="M15.87,15.75c1.09,0.5,1.74,2.25,1.96,3.25c0.22,1,0,72.75-0.22,79" stroke-dasharray="82.91" stroke-dashoffset="82.91"><animate id="0" attributeName="stroke-dashoffset" values="82.91;0" dur="0.62s" fill="freeze" begin="0s;9b2e.click" /></path><g p6:partial xmlns:p6="http://kanjivg.tagaini.net"><path d="M23.97,16.82c0.46,0.23,1.96,0.06,2.43,0.01c5.11-0.55,14.95-1.64,20.18-1.88c0.71-0.03,1.36,0.05,1.95,0.24" stroke-dasharray="24.69" stroke-dashoffset="24.69"><animate attributeName="stroke-dashoffset" values="24.69" fill="freeze" begin="9b2e.click" /><animate id="1" attributeName="stroke-dashoffset" values="24.69;0" dur="0.25s" fill="freeze" begin="0.end" /></path><path d="M35.11,16.71c0.93,1.05,0.93,1.68,0.93,2.52c0,2.75,0.49,8.84,0.49,14.7" stroke-dasharray="17.48" stroke-dashoffset="17.48"><animate attributeName="stroke-dashoffset" values="17.48" fill="freeze" begin="9b2e.click" /><animate id="2" attributeName="stroke-dashoffset" values="17.48;0" dur="0.17s" fill="freeze" begin="1.end" /></path><path d="M24.47,26.22c0.43,0.21,1.82,0.06,2.26,0.01c4.74-0.51,13.89-1.53,18.74-1.75c0.66-0.03,1.26,0.04,1.81,0.22" stroke-dasharray="22.93" stroke-dashoffset="22.93"><animate attributeName="stroke-dashoffset" values="22.93" fill="freeze" begin="9b2e.click" /><animate id="3" attributeName="stroke-dashoffset" values="22.93;0" dur="0.23s" fill="freeze" begin="2.end" /></path><path d="M22.97,35.4c0.52,0.26,2.2,0.07,2.73,0.02c5.73-0.62,16.78-1.85,22.65-2.11c0.8-0.04,1.53,0.05,2.19,0.26" stroke-dasharray="27.72" stroke-dashoffset="27.72"><animate attributeName="stroke-dashoffset" values="27.72" fill="freeze" begin="9b2e.click" /><animate id="4" attributeName="stroke-dashoffset" values="27.72;0" dur="0.28s" fill="freeze" begin="3.end" /></path></g></g><g><g p6:partial xmlns:p6="http://kanjivg.tagaini.net"><path d="M57.75,15.52c0.47,0.25,2.02,0.07,2.5,0.02c5.24-0.61,16.36-1.82,21.73-2.09c0.73-0.04,1.4,0.05,2,0.26" stroke-dasharray="26.38" stroke-dashoffset="26.38"><animate attributeName="stroke-dashoffset" values="26.38" fill="freeze" begin="9b2e.click" /><animate id="5" attributeName="stroke-dashoffset" values="26.38;0" dur="0.26s" fill="freeze" begin="4.end" /></path><path d="M70.19,15.4c0.96,1.16,0.96,1.86,0.96,2.8c0,6.52,0.5,8.8,0.5,13.8" stroke-dasharray="16.86" stroke-dashoffset="16.86"><animate attributeName="stroke-dashoffset" values="16.86" fill="freeze" begin="9b2e.click" /><animate id="6" attributeName="stroke-dashoffset" values="16.86;0" dur="0.17s" fill="freeze" begin="5.end" /></path><path d="M59.26,24.45c0.44,0.24,1.87,0.07,2.32,0.02c4.87-0.57,14.27-2.19,19.25-2.44c0.68-0.03,1.3,0.05,1.86,0.24" stroke-dasharray="23.64" stroke-dashoffset="23.64"><animate attributeName="stroke-dashoffset" values="23.64" fill="freeze" begin="9b2e.click" /><animate id="7" attributeName="stroke-dashoffset" values="23.64;0" dur="0.24s" fill="freeze" begin="6.end" /></path><path d="M57.72,33.64c0.53,0.29,2.26,0.08,2.8,0.02c5.89-0.68,17.24-2.05,23.26-2.34c0.82-0.04,1.57,0.06,2.25,0.29" stroke-dasharray="28.49" stroke-dashoffset="28.49"><animate attributeName="stroke-dashoffset" values="28.49" fill="freeze" begin="9b2e.click" /><animate id="8" attributeName="stroke-dashoffset" values="28.49;0" dur="0.28s" fill="freeze" begin="7.end" /></path></g><path d="M90.27,12.33c0.98,0.92,1.76,1.99,1.76,5.02c0,19.9,0.24,70.16,0.24,75.12c0,10.39-7.21,1.5-8.71,0.25" stroke-dasharray="94.82" stroke-dashoffset="94.82"><animate attributeName="stroke-dashoffset" values="94.82" fill="freeze" begin="9b2e.click" /><animate id="9" attributeName="stroke-dashoffset" values="94.82;0" dur="0.71s" fill="freeze" begin="8.end" /></path></g></g><g><g><path d="M43.63,35.75c0.05,0.32,0.1,0.84-0.09,1.3C42.4,39.8,35.9,45.82,26.98,49.5" stroke-dasharray="22.36" stroke-dashoffset="22.36"><animate attributeName="stroke-dashoffset" values="22.36" fill="freeze" begin="9b2e.click" /><animate id="10" attributeName="stroke-dashoffset" values="22.36;0" dur="0.22s" fill="freeze" begin="9.end" /></path><path d="M41.46,40.47c3.44-0.2,10.47-0.71,13.6-1.88c2.4-0.9,3.48,0.19,1.67,2.27c-1.6,1.84-3.08,3.35-5.97,6.79" stroke-dasharray="27.9" stroke-dashoffset="27.9"><animate attributeName="stroke-dashoffset" values="27.9" fill="freeze" begin="9b2e.click" /><animate id="11" attributeName="stroke-dashoffset" values="27.9;0" dur="0.28s" fill="freeze" begin="10.end" /></path></g><path d="M33.21,48.81c0.45,0.45,0.52,0.74,0.71,1.32c0.67,2.02,1.12,5.15,1.44,7.94" stroke-dasharray="9.6" stroke-dashoffset="9.6"><animate attributeName="stroke-dashoffset" values="9.6" fill="freeze" begin="9b2e.click" /><animate id="12" attributeName="stroke-dashoffset" values="9.6;0" dur="0.1s" fill="freeze" begin="11.end" /></path><path d="M35.11,48.85c6.25-0.92,34.66-3.77,38.63-4.39c1.46-0.23,2.34,0.6,2.13,1.38c-0.85,3.19-1.36,3.92-1.96,6.16" stroke-dasharray="48.34" stroke-dashoffset="48.34"><animate attributeName="stroke-dashoffset" values="48.34" fill="freeze" begin="9b2e.click" /><animate id="13" attributeName="stroke-dashoffset" values="48.34;0" dur="0.48s" fill="freeze" begin="12.end" /></path><path d="M35.29,56.73c1.87,0,11.54-1.12,13.07-1.12" stroke-dasharray="13.12" stroke-dashoffset="13.12"><animate attributeName="stroke-dashoffset" values="13.12" fill="freeze" begin="9b2e.click" /><animate id="14" attributeName="stroke-dashoffset" values="13.12;0" dur="0.13s" fill="freeze" begin="13.end" /></path><path d="M59.07,54.7c3.4-0.32,13.91-1.53,15.95-1.53" stroke-dasharray="16.03" stroke-dashoffset="16.03"><animate attributeName="stroke-dashoffset" values="16.03" fill="freeze" begin="9b2e.click" /><animate id="15" attributeName="stroke-dashoffset" values="16.03;0" dur="0.16s" fill="freeze" begin="14.end" /></path><path d="M48.94,48.47c0,8.01-0.02,37.24-0.02,40.82c0,7.7,2.5,9.2,14.91,9.2s14.72-0.5,14.72-7.66" stroke-dasharray="81.22" stroke-dashoffset="81.22"><animate attributeName="stroke-dashoffset" values="81.22" fill="freeze" begin="9b2e.click" /><animate id="16" attributeName="stroke-dashoffset" values="81.22;0" dur="0.61s" fill="freeze" begin="15.end" /></path><path d="M57.96,47.8c0.15,0.64,0,41.3-0.15,45.32" stroke-dasharray="45.32" stroke-dashoffset="45.32"><animate attributeName="stroke-dashoffset" values="45.32" fill="freeze" begin="9b2e.click" /><animate id="17" attributeName="stroke-dashoffset" values="45.32;0" dur="0.45s" fill="freeze" begin="16.end" /></path><g><path d="M28.39,62.47c1.13,0.42,1.28,0.75,2.28,0.58c4.1-0.7,5.91-1.25,10.86-1.79c0.83-0.09,1.69,0.91,1.47,2.01c-0.58,2.88-0.99,3.92-1.76,8.87" stroke-dasharray="25.31" stroke-dashoffset="25.31"><animate attributeName="stroke-dashoffset" values="25.31" fill="freeze" begin="9b2e.click" /><animate id="18" attributeName="stroke-dashoffset" values="25.31;0" dur="0.25s" fill="freeze" begin="17.end" /></path><path d="M25.32,67.72c1.13,0.42,1.27,0.65,2.28,0.58c6.16-0.44,41.86-5.41,46.69-5.41c1.43,0,2.17,1.25,2.2,2.37c0.08,3.42-1.35,15.87-2.12,20.81" stroke-dasharray="73.92" stroke-dashoffset="73.92"><animate attributeName="stroke-dashoffset" values="73.92" fill="freeze" begin="9b2e.click" /><animate id="19" attributeName="stroke-dashoffset" values="73.92;0" dur="0.56s" fill="freeze" begin="18.end" /></path><path d="M28.69,74.66c0.55,0.07,1.55,0.29,2.2,0.2c7.68-1.01,10.8-1.73,11.46-1.66" stroke-dasharray="13.8" stroke-dashoffset="13.8"><animate attributeName="stroke-dashoffset" values="13.8" fill="freeze" begin="9b2e.click" /><animate id="20" attributeName="stroke-dashoffset" values="13.8;0" dur="0.14s" fill="freeze" begin="19.end" /></path></g><g><path d="M27.67,80.57c1.1,0.11,1.63,0.35,2.64,0.22c4.1-0.52,7.17-1.61,11.23-2.15c1.42-0.19,1.69,0.55,1.47,1.65c-0.58,2.88-0.99,7.54-1.76,12.49" stroke-dasharray="29.53" stroke-dashoffset="29.53"><animate attributeName="stroke-dashoffset" values="29.53" fill="freeze" begin="9b2e.click" /><animate id="21" attributeName="stroke-dashoffset" values="29.53;0" dur="0.3s" fill="freeze" begin="20.end" /></path><path d="M24.75,86.83c0.97,0.31,2.49,0.68,3.58,0.58c9.56-0.88,37.2-3.35,46.45-4.2" stroke-dasharray="50.29" stroke-dashoffset="50.29"><animate attributeName="stroke-dashoffset" values="50.29" fill="freeze" begin="9b2e.click" /><animate id="22" attributeName="stroke-dashoffset" values="50.29;0" dur="0.5s" fill="freeze" begin="21.end" /></path><path d="M27.6,93.92c0.55,0.07,1.54,0.24,2.2,0.2c4.6-0.29,10.39-0.83,12.63-1.01" stroke-dasharray="14.88" stroke-dashoffset="14.88"><animate attributeName="stroke-dashoffset" values="14.88" fill="freeze" begin="9b2e.click" /><animate id="23" attributeName="stroke-dashoffset" values="14.88;0" dur="0.15s" fill="freeze" begin="22.end" /></path></g><path d="M69.71,66.62c0.02,0.33,0.05,0.84-0.05,1.31c-0.58,2.76-3.89,8.8-8.43,12.5" stroke-dasharray="16.6" stroke-dashoffset="16.6"><animate attributeName="stroke-dashoffset" values="16.6" fill="freeze" begin="9b2e.click" /><animate id="24" attributeName="stroke-dashoffset" values="16.6;0" dur="0.17s" fill="freeze" begin="23.end" /></path><path d="M61.74,70.19c3.08,1.68,7.95,6.9,8.72,9.51" stroke-dasharray="13.09" stroke-dashoffset="13.09"><animate attributeName="stroke-dashoffset" values="13.09" fill="freeze" begin="9b2e.click" /><animate id="25" attributeName="stroke-dashoffset" values="13.09;0" dur="0.13s" fill="freeze" begin="24.end" /></path></g></g></g></svg>