<svg xmlns="http://www.w3.org/2000/svg" viewBox="0 0 109 109" id="9b3c"><g fill="none" stroke="#666" stroke-width="6" stroke-linecap="round" stroke-linejoin="round"><g><g><path d="M50.85,11.25c0.08,1.12-0.04,1.7-0.53,2.73C47.86,19.2,46,21.62,40.25,27.75" /></g><g><path d="M25.83,30.12c0.78,0.78,1.43,2.19,1.58,3c1.22,6.88,2.46,13.28,3.36,21.33c0.22,2,0.42,3.98,0.59,5.87" /><path d="M28.17,31.95c12.95-1.7,31.45-4.7,42.95-5.53c3.28-0.24,4.63,1.83,4.28,4.12c-0.7,4.57-2.19,11.16-5.08,19.48c-0.51,1.47-1.07,3.01-1.69,4.61" /><path d="M49.58,30.87c0.65,0.65,1.03,1.88,1.03,3.07c0,8.31-0.05,15.87,0,19.13" /><path d="M30.56,44.82c8.57-1.57,34.19-4.57,41.65-5.12" /><path d="M32.23,56.89c13.52-2.14,23.52-3.64,36.49-5.12" /></g><g><g><g><path d="M40.5,60.5c0.25,0.75,0.44,1.97,0.12,3.18c-2.74,10.2-7.99,23.07-23.12,32.07" /></g><g><path d="M52.49,57.37c1.01,1.01,1.33,2.59,1.38,4.43c0.2,8.19,0.08,19.14,0.08,24.7c0,9.5,1.81,11.53,19.97,11.53c20.47,0,21.34-1.9,21.34-9.12" /></g></g></g><g><path d="M69.75,60.22c0.37,0.9,0.37,1.9-0.08,3.09c-2.48,6.51-4.62,11.46-8.07,16.23c-1.09,1.51-0.29,2.53,1.25,2.01c5.39-1.8,12.89-4.8,18.13-6.69" /><path d="M77.79,70.43c2.44,1.77,7.79,8.78,8.4,11.54" /></g></g></g><g fill="none" stroke="#000" stroke-width="3" stroke-linecap="round" stroke-linejoin="round"><path d="M50.85,11.25c0.08,1.12-0.04,1.7-0.53,2.73C47.86,19.2,46,21.62,40.25,27.75" stroke-dasharray="19.976" stroke-dashoffset="19.976"><animate attributeName="stroke-dashoffset" values="19.976;19.976;0" dur="0.2s" fill="freeze" begin="0s;9b3c.click" /></path><path d="M25.83,30.12c0.78,0.78,1.43,2.19,1.58,3c1.22,6.88,2.46,13.28,3.36,21.33c0.22,2,0.42,3.98,0.59,5.87" stroke-dasharray="30.928" stroke-dashoffset="30.928"><animate attributeName="stroke-dashoffset" values="30.928" fill="freeze" begin="9b3c.click" /><animate attributeName="stroke-dashoffset" values="30.928;30.928;0" keyTimes="0;0.393;1" dur="0.509s" fill="freeze" begin="0s;9b3c.click" /></path><path d="M28.17,31.95c12.95-1.7,31.45-4.7,42.95-5.53c3.28-0.24,4.63,1.83,4.28,4.12c-0.7,4.57-2.19,11.16-5.08,19.48c-0.51,1.47-1.07,3.01-1.69,4.61" stroke-dasharray="75.399" stroke-dashoffset="75.399"><animate attributeName="stroke-dashoffset" values="75.399" fill="freeze" begin="9b3c.click" /><animate attributeName="stroke-dashoffset" values="75.399;75.399;0" keyTimes="0;0.473;1" dur="1.076s" fill="freeze" begin="0s;9b3c.click" /></path><path d="M49.58,30.87c0.65,0.65,1.03,1.88,1.03,3.07c0,8.31-0.05,15.87,0,19.13" stroke-dasharray="22.444" stroke-dashoffset="22.444"><animate attributeName="stroke-dashoffset" values="22.444" fill="freeze" begin="9b3c.click" /><animate attributeName="stroke-dashoffset" values="22.444;22.444;0" keyTimes="0;0.828;1" dur="1.3s" fill="freeze" begin="0s;9b3c.click" /></path><path d="M30.56,44.82c8.57-1.57,34.19-4.57,41.65-5.12" stroke-dasharray="41.973" stroke-dashoffset="41.973"><animate attributeName="stroke-dashoffset" values="41.973" fill="freeze" begin="9b3c.click" /><animate attributeName="stroke-dashoffset" values="41.973;41.973;0" keyTimes="0;0.756;1" dur="1.72s" fill="freeze" begin="0s;9b3c.click" /></path><path d="M32.23,56.89c13.52-2.14,23.52-3.64,36.49-5.12" stroke-dasharray="36.852" stroke-dashoffset="36.852"><animate attributeName="stroke-dashoffset" values="36.852" fill="freeze" begin="9b3c.click" /><animate attributeName="stroke-dashoffset" values="36.852;36.852;0" keyTimes="0;0.823;1" dur="2.089s" fill="freeze" begin="0s;9b3c.click" /></path><path d="M40.5,60.5c0.25,0.75,0.44,1.97,0.12,3.18c-2.74,10.2-7.99,23.07-23.12,32.07" stroke-dasharray="43.87" stroke-dashoffset="43.87"><animate attributeName="stroke-dashoffset" values="43.87" fill="freeze" begin="9b3c.click" /><animate attributeName="stroke-dashoffset" values="43.87;43.87;0" keyTimes="0;0.826;1" dur="2.528s" fill="freeze" begin="0s;9b3c.click" /></path><path d="M52.49,57.37c1.01,1.01,1.33,2.59,1.38,4.43c0.2,8.19,0.08,19.14,0.08,24.7c0,9.5,1.81,11.53,19.97,11.53c20.47,0,21.34-1.9,21.34-9.12" stroke-dasharray="83.852" stroke-dashoffset="83.852"><animate attributeName="stroke-dashoffset" values="83.852" fill="freeze" begin="9b3c.click" /><animate attributeName="stroke-dashoffset" values="83.852;83.852;0" keyTimes="0;0.801;1" dur="3.158s" fill="freeze" begin="0s;9b3c.click" /></path><path d="M69.75,60.22c0.37,0.9,0.37,1.9-0.08,3.09c-2.48,6.51-4.62,11.46-8.07,16.23c-1.09,1.51-0.29,2.53,1.25,2.01c5.39-1.8,12.89-4.8,18.13-6.69" stroke-dasharray="44.337" stroke-dashoffset="44.337"><animate attributeName="stroke-dashoffset" values="44.337" fill="freeze" begin="9b3c.click" /><animate attributeName="stroke-dashoffset" values="44.337;44.337;0" keyTimes="0;0.877;1" dur="3.601s" fill="freeze" begin="0s;9b3c.click" /></path><path d="M77.79,70.43c2.44,1.77,7.79,8.78,8.4,11.54" stroke-dasharray="14.414" stroke-dashoffset="14.414"><animate attributeName="stroke-dashoffset" values="14.414" fill="freeze" begin="9b3c.click" /><animate attributeName="stroke-dashoffset" values="14.414;14.414;0" keyTimes="0;0.962;1" dur="3.745s" fill="freeze" begin="0s;9b3c.click" /></path></g></svg>