<svg xmlns="http://www.w3.org/2000/svg" width="109" height="109" viewBox="0 0 109 109" id="9b43"><g fill="none" stroke="#666" stroke-width="9" stroke-linecap="round" stroke-linejoin="round"><g><g><g><path d="M32.87,12.25c0.02,0.33,0.09,0.95-0.05,1.32c-1.73,4.65-4.3,8.92-8.82,12.68" /></g><g><path d="M14.83,28.12c0.23,0.54,0.74,1.41,0.87,2.07c1.04,5.5,2.83,16.24,3.45,26.38" /><path d="M15.93,29.45c8.3-0.56,23.57-2.49,29.77-3.03c2.28-0.2,3.21,1.58,2.96,3.87C48.09,35.67,47,45.5,45.64,53.13" /><path d="M 31.08,29.533721 c 0.78,0.78 0.85,1.63 0.85,3.07 0,9.06 0.04,16.516279 0.04,20.466279" /><path d="M17.41,41.07c2.7-0.27,23.84-2.57,29.73-2.87" /><path d="M19.57,54.14c10.18-1.39,16.43-1.39,26.14-2.38" /></g><g><g><path d="M25.12,57.75c0.17,0.76,0.29,2.21,0.25,3.48C25.12,69.66,19.6,86.39,9.25,94.5" /></g><g><path d="M32.99,54.87c0.74,1.19,1.33,2.59,1.38,4.43c0.2,8.19-0.42,17.64-0.42,23.2c0,10.75,0.81,12.03,32.47,12.03c27.34,0,29.34-1.28,29.34-14.12" /></g></g><g><path d="M44.71,58.97c0.23,0.44,0.06,2.39-0.07,2.95c-1.72,7.07-3.06,10.92-6.26,15.88c-1.01,1.57-0.97,3.11,0.47,2.57c5.01-1.87,7.92-2.49,12.78-4.46" /><path d="M48.17,70.07c1.64,1.8,5.25,8.95,5.66,11.76" /></g></g><g p4:part="1" xmlns:p4="http://kanjivg.tagaini.net"><g><path d="M54.85,34c0.93,0.32,2.63,0.39,3.56,0.32c6.09-0.44,26.16-3.2,31.89-2.83c1.54,0.1,2.48,0.15,3.25,0.31" /><path d="M69.03,13.25c0.46,0.91,0.95,1.3,0.89,2.96c-0.57,15.42-2.9,36.91-14.73,53.09" /><path d="M84.58,40.94c0.07,1,0.11,2.83-0.14,4.02C81.49,58.8,72.5,77.5,57.33,83.79" /></g></g><g><path d="M66.4,46c4.1,8,12.85,24.25,19.11,32.42c1.07,1.39,1.94,2.22,2.99,2.67" /></g><g p4:part="2" xmlns:p4="http://kanjivg.tagaini.net"><g><path d="M79.62,16.28c3.52,1.42,9.09,5.84,9.97,8.05" /></g></g></g></g><g fill="none" stroke="#000" stroke-width="5" stroke-linecap="round" stroke-linejoin="round"><g><g><g><path d="M32.87,12.25c0.02,0.33,0.09,0.95-0.05,1.32c-1.73,4.65-4.3,8.92-8.82,12.68" stroke-dasharray="16.96" stroke-dashoffset="16.96"><animate id="0" attributeName="stroke-dashoffset" values="16.96;0" dur="0.17s" fill="freeze" begin="0s;9b43.click" /></path></g><g><path d="M14.83,28.12c0.23,0.54,0.74,1.41,0.87,2.07c1.04,5.5,2.83,16.24,3.45,26.38" stroke-dasharray="28.87" stroke-dashoffset="28.87"><animate attributeName="stroke-dashoffset" values="28.87" fill="freeze" begin="9b43.click" /><animate id="1" attributeName="stroke-dashoffset" values="28.87;0" dur="0.29s" fill="freeze" begin="0.end" /></path><path d="M15.93,29.45c8.3-0.56,23.57-2.49,29.77-3.03c2.28-0.2,3.21,1.58,2.96,3.87C48.09,35.67,47,45.5,45.64,53.13" stroke-dasharray="58.71" stroke-dashoffset="58.71"><animate attributeName="stroke-dashoffset" values="58.71" fill="freeze" begin="9b43.click" /><animate id="2" attributeName="stroke-dashoffset" values="58.71;0" dur="0.59s" fill="freeze" begin="1.end" /></path><path d="M 31.08,29.533721 c 0.78,0.78 0.85,1.63 0.85,3.07 0,9.06 0.04,16.516279 0.04,20.466279" stroke-dasharray="23.75" stroke-dashoffset="23.75"><animate attributeName="stroke-dashoffset" values="23.75" fill="freeze" begin="9b43.click" /><animate id="3" attributeName="stroke-dashoffset" values="23.75;0" dur="0.24s" fill="freeze" begin="2.end" /></path><path d="M17.41,41.07c2.7-0.27,23.84-2.57,29.73-2.87" stroke-dasharray="29.87" stroke-dashoffset="29.87"><animate attributeName="stroke-dashoffset" values="29.87" fill="freeze" begin="9b43.click" /><animate id="4" attributeName="stroke-dashoffset" values="29.87;0" dur="0.3s" fill="freeze" begin="3.end" /></path><path d="M19.57,54.14c10.18-1.39,16.43-1.39,26.14-2.38" stroke-dasharray="26.25" stroke-dashoffset="26.25"><animate attributeName="stroke-dashoffset" values="26.25" fill="freeze" begin="9b43.click" /><animate id="5" attributeName="stroke-dashoffset" values="26.25;0" dur="0.26s" fill="freeze" begin="4.end" /></path></g><g><g><path d="M25.12,57.75c0.17,0.76,0.29,2.21,0.25,3.48C25.12,69.66,19.6,86.39,9.25,94.5" stroke-dasharray="41.41" stroke-dashoffset="41.41"><animate attributeName="stroke-dashoffset" values="41.41" fill="freeze" begin="9b43.click" /><animate id="6" attributeName="stroke-dashoffset" values="41.41;0" dur="0.41s" fill="freeze" begin="5.end" /></path></g><g><path d="M32.99,54.87c0.74,1.19,1.33,2.59,1.38,4.43c0.2,8.19-0.42,17.64-0.42,23.2c0,10.75,0.81,12.03,32.47,12.03c27.34,0,29.34-1.28,29.34-14.12" stroke-dasharray="106.71" stroke-dashoffset="106.71"><animate attributeName="stroke-dashoffset" values="106.71" fill="freeze" begin="9b43.click" /><animate id="7" attributeName="stroke-dashoffset" values="106.71;0" dur="0.8s" fill="freeze" begin="6.end" /></path></g></g><g><path d="M44.71,58.97c0.23,0.44,0.06,2.39-0.07,2.95c-1.72,7.07-3.06,10.92-6.26,15.88c-1.01,1.57-0.97,3.11,0.47,2.57c5.01-1.87,7.92-2.49,12.78-4.46" stroke-dasharray="37.41" stroke-dashoffset="37.41"><animate attributeName="stroke-dashoffset" values="37.41" fill="freeze" begin="9b43.click" /><animate id="8" attributeName="stroke-dashoffset" values="37.41;0" dur="0.37s" fill="freeze" begin="7.end" /></path><path d="M48.17,70.07c1.64,1.8,5.25,8.95,5.66,11.76" stroke-dasharray="13.14" stroke-dashoffset="13.14"><animate attributeName="stroke-dashoffset" values="13.14" fill="freeze" begin="9b43.click" /><animate id="9" attributeName="stroke-dashoffset" values="13.14;0" dur="0.13s" fill="freeze" begin="8.end" /></path></g></g><g p4:part="1" xmlns:p4="http://kanjivg.tagaini.net"><g><path d="M54.85,34c0.93,0.32,2.63,0.39,3.56,0.32c6.09-0.44,26.16-3.2,31.89-2.83c1.54,0.1,2.48,0.15,3.25,0.31" stroke-dasharray="38.89" stroke-dashoffset="38.89"><animate attributeName="stroke-dashoffset" values="38.89" fill="freeze" begin="9b43.click" /><animate id="10" attributeName="stroke-dashoffset" values="38.89;0" dur="0.39s" fill="freeze" begin="9.end" /></path><path d="M69.03,13.25c0.46,0.91,0.95,1.3,0.89,2.96c-0.57,15.42-2.9,36.91-14.73,53.09" stroke-dasharray="59.07" stroke-dashoffset="59.07"><animate attributeName="stroke-dashoffset" values="59.07" fill="freeze" begin="9b43.click" /><animate id="11" attributeName="stroke-dashoffset" values="59.07;0" dur="0.59s" fill="freeze" begin="10.end" /></path><path d="M84.58,40.94c0.07,1,0.11,2.83-0.14,4.02C81.49,58.8,72.5,77.5,57.33,83.79" stroke-dasharray="53.11" stroke-dashoffset="53.11"><animate attributeName="stroke-dashoffset" values="53.11" fill="freeze" begin="9b43.click" /><animate id="12" attributeName="stroke-dashoffset" values="53.11;0" dur="0.53s" fill="freeze" begin="11.end" /></path></g></g><g><path d="M66.4,46c4.1,8,12.85,24.25,19.11,32.42c1.07,1.39,1.94,2.22,2.99,2.67" stroke-dasharray="41.72" stroke-dashoffset="41.72"><animate attributeName="stroke-dashoffset" values="41.72" fill="freeze" begin="9b43.click" /><animate id="13" attributeName="stroke-dashoffset" values="41.72;0" dur="0.42s" fill="freeze" begin="12.end" /></path></g><g p4:part="2" xmlns:p4="http://kanjivg.tagaini.net"><g><path d="M79.62,16.28c3.52,1.42,9.09,5.84,9.97,8.05" stroke-dasharray="13" stroke-dashoffset="13"><animate attributeName="stroke-dashoffset" values="13" fill="freeze" begin="9b43.click" /><animate id="14" attributeName="stroke-dashoffset" values="13;0" dur="0.13s" fill="freeze" begin="13.end" /></path></g></g></g></g></svg>