<svg xmlns="http://www.w3.org/2000/svg" width="109" height="109" viewBox="0 0 109 109" id="9b54"><g fill="none" stroke="#666" stroke-width="6" stroke-linecap="round" stroke-linejoin="round"><g><g p4:phon="麻" xmlns:p4="http://kanjivg.tagaini.net"><g><path d="M56.06,8.63c1.28,1.28,1.26,2.62,1.26,4.15c0,0.79-0.07,2.96-0.07,5.96" /><g><path d="M23.13,21.73c3.37,0.65,6.66,0.56,9.76,0.3c16.99-1.41,34.01-2.49,50.24-3.42c3.11-0.18,6.19-0.2,9.25,0.46" /><path d="M25.24,22.75c0.94,0.94,1.19,2.13,1.16,3.55c-0.28,14.7-1.16,47.2-15.1,64.92" /></g></g><g><g><path d="M30.63,34.34c1.8,0.59,3.82,0.18,5.64-0.07C42,33.5,47.5,32.5,52.68,31.61c1.3-0.22,2.3-0.1,3.12,0.06" /><path d="M44.19,25.79c0.83,0.83,1.1,2.09,1.1,3.08c0,0.35,0.04,9.01,0.06,14.76c0.01,2.68,0,4.73-0.01,5.02" /><path d="M43.96,33.77c0,1.23-0.42,2.32-1.24,3.62c-3.17,5.02-8.65,10.56-12.54,12.92" /><path d="M47.72,35.72c3.05,1.16,6.31,3.49,8.05,5.53" /></g><g><path d="M61.5,31.47c1.77,0.57,3.58,0.52,5.38,0.23c6-0.95,10.88-1.86,19.29-2.94c1.32-0.17,2.48-0.16,3.31,0" /><path d="M74.41,24.11c0.93,0.93,1.1,2.14,1.1,3.08c0,3.79,0.12,10.29,0.07,15.81c-0.01,1.5-0.02,2.89-0.02,4.07" /><path d="M73.95,31.44c0,1.06-0.37,2.17-1.17,3.33c-2.91,4.16-7.71,8.66-11.49,10.59" /><path d="M76.75,31.62c3.14,3.6,7.28,7.98,10.52,10.63c1.21,0.99,2.73,2.24,4.3,3.12" /></g></g></g><g><g><path d="M53.56,46.25c0.02,0.25,0.09,0.73-0.05,1.02c-1.09,2.19-2.26,3.61-4.26,5.61" /></g><g><path d="M36.85,54.53c0.81,0.81,1.17,1.62,1.31,2.46c0.83,2.97,1.35,7.76,2.06,12.48c0.26,1.69,0.48,3.37,0.66,4.95" /><path d="M38.7,55.66c11.58-1.22,27.78-2.71,35.81-3.16c3.43-0.19,5.21,0.38,4.49,4c-0.5,2.53-1.11,5.62-1.98,10.5c-0.22,1.24-0.46,2.6-0.72,4.1" /><path d="M57.05,55.03c0.67,0.83,0.79,1.58,0.79,2.67c0,2.05-0.09,9.43-0.09,12.55" /><path d="M40.5,63.75c8.62-0.75,28.75-2.38,36.45-2.69" /><path d="M41.91,72.75c11.84-1,20.59-2,33.22-2.77" /></g><g><g><path d="M49.03,74.79c0.22,1.08-0.14,2.16-0.58,2.94C44,85.5,34.75,94,22.73,100.05" /></g><g><path d="M58.46,74.32c0.81,0.81,1.17,1.71,1.17,2.93c0,2.38,0.04,7.49,0.04,11.17c0,7.75,1.37,9.38,16.47,9.38c16.37,0,17.64-1.96,17.64-6.04" /></g></g><g><path d="M74.83,76.26c0.3,0.74-0.08,1.61-0.57,2.36c-2.31,3.57-4.19,5.84-7.1,8.96c-0.92,0.99-0.38,2.33,0.92,1.99c4.55-1.18,11.48-2.99,15.9-4.22" /><path d="M82,79.46c1.4,1.35,4.49,6.71,4.84,8.81" /></g></g></g></g><g fill="none" stroke="#000" stroke-width="3" stroke-linecap="round" stroke-linejoin="round"><path d="M56.06,8.63c1.28,1.28,1.26,2.62,1.26,4.15c0,0.79-0.07,2.96-0.07,5.96" stroke-dasharray="10.444" stroke-dashoffset="10.444"><animate attributeName="stroke-dashoffset" values="10.444;10.444;0" dur="0.104s" fill="freeze" begin="0s;9b54.click" /></path><path d="M23.13,21.73c3.37,0.65,6.66,0.56,9.76,0.3c16.99-1.41,34.01-2.49,50.24-3.42c3.11-0.18,6.19-0.2,9.25,0.46" stroke-dasharray="69.446" stroke-dashoffset="69.446"><animate attributeName="stroke-dashoffset" values="69.446" fill="freeze" begin="9b54.click" /><animate attributeName="stroke-dashoffset" values="69.446;69.446;0" keyTimes="0;0.166;1" dur="0.626s" fill="freeze" begin="0s;9b54.click" /></path><path d="M25.24,22.75c0.94,0.94,1.19,2.13,1.16,3.55c-0.28,14.7-1.16,47.2-15.1,64.92" stroke-dasharray="71.569" stroke-dashoffset="71.569"><animate attributeName="stroke-dashoffset" values="71.569" fill="freeze" begin="9b54.click" /><animate attributeName="stroke-dashoffset" values="71.569;71.569;0" keyTimes="0;0.538;1" dur="1.164s" fill="freeze" begin="0s;9b54.click" /></path><path d="M30.63,34.34c1.8,0.59,3.82,0.18,5.64-0.07C42,33.5,47.5,32.5,52.68,31.61c1.3-0.22,2.3-0.1,3.12,0.06" stroke-dasharray="25.459" stroke-dashoffset="25.459"><animate attributeName="stroke-dashoffset" values="25.459" fill="freeze" begin="9b54.click" /><animate attributeName="stroke-dashoffset" values="25.459;25.459;0" keyTimes="0;0.82;1" dur="1.419s" fill="freeze" begin="0s;9b54.click" /></path><path d="M44.19,25.79c0.83,0.83,1.1,2.09,1.1,3.08c0,0.35,0.04,9.01,0.06,14.76c0.01,2.68,0,4.73-0.01,5.02" stroke-dasharray="23.134" stroke-dashoffset="23.134"><animate attributeName="stroke-dashoffset" values="23.134" fill="freeze" begin="9b54.click" /><animate attributeName="stroke-dashoffset" values="23.134;23.134;0" keyTimes="0;0.86;1" dur="1.65s" fill="freeze" begin="0s;9b54.click" /></path><path d="M43.96,33.77c0,1.23-0.42,2.32-1.24,3.62c-3.17,5.02-8.65,10.56-12.54,12.92" stroke-dasharray="22.012" stroke-dashoffset="22.012"><animate attributeName="stroke-dashoffset" values="22.012" fill="freeze" begin="9b54.click" /><animate attributeName="stroke-dashoffset" values="22.012;22.012;0" keyTimes="0;0.882;1" dur="1.87s" fill="freeze" begin="0s;9b54.click" /></path><path d="M47.72,35.72c3.05,1.16,6.31,3.49,8.05,5.53" stroke-dasharray="9.854" stroke-dashoffset="9.854"><animate attributeName="stroke-dashoffset" values="9.854" fill="freeze" begin="9b54.click" /><animate attributeName="stroke-dashoffset" values="9.854;9.854;0" keyTimes="0;0.95;1" dur="1.969s" fill="freeze" begin="0s;9b54.click" /></path><path d="M61.5,31.47c1.77,0.57,3.58,0.52,5.38,0.23c6-0.95,10.88-1.86,19.29-2.94c1.32-0.17,2.48-0.16,3.31,0" stroke-dasharray="28.274" stroke-dashoffset="28.274"><animate attributeName="stroke-dashoffset" values="28.274" fill="freeze" begin="9b54.click" /><animate attributeName="stroke-dashoffset" values="28.274;28.274;0" keyTimes="0;0.874;1" dur="2.252s" fill="freeze" begin="0s;9b54.click" /></path><path d="M74.41,24.11c0.93,0.93,1.1,2.14,1.1,3.08c0,3.79,0.12,10.29,0.07,15.81c-0.01,1.5-0.02,2.89-0.02,4.07" stroke-dasharray="23.242" stroke-dashoffset="23.242"><animate attributeName="stroke-dashoffset" values="23.242" fill="freeze" begin="9b54.click" /><animate attributeName="stroke-dashoffset" values="23.242;23.242;0" keyTimes="0;0.907;1" dur="2.484s" fill="freeze" begin="0s;9b54.click" /></path><path d="M73.95,31.44c0,1.06-0.37,2.17-1.17,3.33c-2.91,4.16-7.71,8.66-11.49,10.59" stroke-dasharray="19.338" stroke-dashoffset="19.338"><animate attributeName="stroke-dashoffset" values="19.338" fill="freeze" begin="9b54.click" /><animate attributeName="stroke-dashoffset" values="19.338;19.338;0" keyTimes="0;0.928;1" dur="2.677s" fill="freeze" begin="0s;9b54.click" /></path><path d="M76.75,31.62c3.14,3.6,7.28,7.98,10.52,10.63c1.21,0.99,2.73,2.24,4.3,3.12" stroke-dasharray="20.291" stroke-dashoffset="20.291"><animate attributeName="stroke-dashoffset" values="20.291" fill="freeze" begin="9b54.click" /><animate attributeName="stroke-dashoffset" values="20.291;20.291;0" keyTimes="0;0.93;1" dur="2.88s" fill="freeze" begin="0s;9b54.click" /></path><path d="M53.56,46.25c0.02,0.25,0.09,0.73-0.05,1.02c-1.09,2.19-2.26,3.61-4.26,5.61" stroke-dasharray="8.114" stroke-dashoffset="8.114"><animate attributeName="stroke-dashoffset" values="8.114" fill="freeze" begin="9b54.click" /><animate attributeName="stroke-dashoffset" values="8.114;8.114;0" keyTimes="0;0.973;1" dur="2.961s" fill="freeze" begin="0s;9b54.click" /></path><path d="M36.85,54.53c0.81,0.81,1.17,1.62,1.31,2.46c0.83,2.97,1.35,7.76,2.06,12.48c0.26,1.69,0.48,3.37,0.66,4.95" stroke-dasharray="20.487" stroke-dashoffset="20.487"><animate attributeName="stroke-dashoffset" values="20.487" fill="freeze" begin="9b54.click" /><animate attributeName="stroke-dashoffset" values="20.487;20.487;0" keyTimes="0;0.935;1" dur="3.166s" fill="freeze" begin="0s;9b54.click" /></path><path d="M38.7,55.66c11.58-1.22,27.78-2.71,35.81-3.16c3.43-0.19,5.21,0.38,4.49,4c-0.5,2.53-1.11,5.62-1.98,10.5c-0.22,1.24-0.46,2.6-0.72,4.1" stroke-dasharray="58.412" stroke-dashoffset="58.412"><animate attributeName="stroke-dashoffset" values="58.412" fill="freeze" begin="9b54.click" /><animate attributeName="stroke-dashoffset" values="58.412;58.412;0" keyTimes="0;0.844;1" dur="3.75s" fill="freeze" begin="0s;9b54.click" /></path><path d="M57.05,55.03c0.67,0.83,0.79,1.58,0.79,2.67c0,2.05-0.09,9.43-0.09,12.55" stroke-dasharray="15.402" stroke-dashoffset="15.402"><animate attributeName="stroke-dashoffset" values="15.402" fill="freeze" begin="9b54.click" /><animate attributeName="stroke-dashoffset" values="15.402;15.402;0" keyTimes="0;0.961;1" dur="3.904s" fill="freeze" begin="0s;9b54.click" /></path><path d="M40.5,63.75c8.62-0.75,28.75-2.38,36.45-2.69" stroke-dasharray="36.552" stroke-dashoffset="36.552"><animate attributeName="stroke-dashoffset" values="36.552" fill="freeze" begin="9b54.click" /><animate attributeName="stroke-dashoffset" values="36.552;36.552;0" keyTimes="0;0.914;1" dur="4.27s" fill="freeze" begin="0s;9b54.click" /></path><path d="M41.91,72.75c11.84-1,20.59-2,33.22-2.77" stroke-dasharray="33.338" stroke-dashoffset="33.338"><animate attributeName="stroke-dashoffset" values="33.338" fill="freeze" begin="9b54.click" /><animate attributeName="stroke-dashoffset" values="33.338;33.338;0" keyTimes="0;0.928;1" dur="4.603s" fill="freeze" begin="0s;9b54.click" /></path><path d="M49.03,74.79c0.22,1.08-0.14,2.16-0.58,2.94C44,85.5,34.75,94,22.73,100.05" stroke-dasharray="37.559" stroke-dashoffset="37.559"><animate attributeName="stroke-dashoffset" values="37.559" fill="freeze" begin="9b54.click" /><animate attributeName="stroke-dashoffset" values="37.559;37.559;0" keyTimes="0;0.924;1" dur="4.979s" fill="freeze" begin="0s;9b54.click" /></path><path d="M58.46,74.32c0.81,0.81,1.17,1.71,1.17,2.93c0,2.38,0.04,7.49,0.04,11.17c0,7.75,1.37,9.38,16.47,9.38c16.37,0,17.64-1.96,17.64-6.04" stroke-dasharray="57.803" stroke-dashoffset="57.803"><animate attributeName="stroke-dashoffset" values="57.803" fill="freeze" begin="9b54.click" /><animate attributeName="stroke-dashoffset" values="57.803;57.803;0" keyTimes="0;0.896;1" dur="5.557s" fill="freeze" begin="0s;9b54.click" /></path><path d="M74.83,76.26c0.3,0.74-0.08,1.61-0.57,2.36c-2.31,3.57-4.19,5.84-7.1,8.96c-0.92,0.99-0.38,2.33,0.92,1.99c4.55-1.18,11.48-2.99,15.9-4.22" stroke-dasharray="33.57" stroke-dashoffset="33.57"><animate attributeName="stroke-dashoffset" values="33.57" fill="freeze" begin="9b54.click" /><animate attributeName="stroke-dashoffset" values="33.57;33.57;0" keyTimes="0;0.943;1" dur="5.893s" fill="freeze" begin="0s;9b54.click" /></path><path d="M82,79.46c1.4,1.35,4.49,6.71,4.84,8.81" stroke-dasharray="10.129" stroke-dashoffset="10.129"><animate attributeName="stroke-dashoffset" values="10.129" fill="freeze" begin="9b54.click" /><animate attributeName="stroke-dashoffset" values="10.129;10.129;0" keyTimes="0;0.983;1" dur="5.994s" fill="freeze" begin="0s;9b54.click" /></path></g></svg>