<svg xmlns="http://www.w3.org/2000/svg" width="109" height="109" viewBox="0 0 109 109" id="9bae"><g fill="none" stroke="#666" stroke-width="9" stroke-linecap="round" stroke-linejoin="round"><g><g><g><path d="M30.24,12c0.13,0.75,0.17,1.47-0.08,2.26C28.62,19,23.38,27.5,15.24,35.62" /><path d="M28.89,19.88c1.93,0,12.07-1.19,14.1-1.48c1.74-0.25,2.89,1.23,1.41,3.15c-3.67,4.77-6.64,7.57-11.95,15.15" /></g><g><g><path d="M16.72,39.14c0.88,0.88,1.25,2.39,1.4,3.36C19,49,19.95,56.65,20.53,64.02c0.11,1.36,0.2,2.67,0.29,3.91" /><path d="M18.78,40.52c7.03-1.05,18.9-2.76,25.62-3.83c3.69-0.58,5.63-0.52,5.34,3.7c-0.32,4.54-0.74,12.24-1.7,19.4c-0.2,1.51-0.43,3-0.69,4.43" /><path d="M33.06,39.98c0.92,0.92,1.08,2.01,1.11,3.54c0.12,6.73,0.03,14.52,0.03,17.85" /><path d="M20.26,51.98c2.58-0.46,25.76-3.12,27.89-3.31" /><path d="M21.73,64.15c6.89-1.03,17.36-2.37,25.24-3.2" /></g><g><path d="M18.29,77.12c0,5.57-2,13.78-2.52,15.38" /><path d="M26.95,75.33c0.91,2.36,1.77,8.87,1.99,12.54" /><path d="M35.88,73.38c1.35,2.03,3.48,8.36,3.82,11.53" /><path d="M44.75,70.38c1.85,1.9,4.79,7.82,5.25,10.78" /></g></g></g><g><path d="M58.62,16.99c3.16,1.94,8.16,7.96,8.95,10.98" /><path d="M85.46,13.14c0.06,0.87-0.02,1.51-0.31,2.33c-1.48,4.09-4.18,8.63-8.63,14.27" /><path d="M57.75,34.96c2.38,0.29,4.18,0.11,5.65-0.09c5.81-0.8,16.18-2.44,21.85-2.96c1.54-0.14,3.5-0.16,5.09,0.19" /><path d="M58.94,50.05c2.19,0.45,3.94,0.36,5.21,0.19c5.46-0.73,14.73-2.34,20.24-2.78c1.58-0.13,3.36-0.21,4.98,0.21" /><path d="M52.92,67.82c2.45,0.68,5.25,0.52,7.23,0.27c7.66-0.97,21.04-2.81,29.97-3.25c2.4-0.12,5.13-0.33,7.45,0.15" /><path d="M72.95,35.83c0.98,0.98,1.24,2.42,1.24,4.25c0,5.42-0.02,29.94-0.05,49.42c-0.01,3.33-0.01,6.32-0.01,8.75" /></g></g></g><g fill="none" stroke="#000" stroke-width="5" stroke-linecap="round" stroke-linejoin="round"><g><g><g><path d="M30.24,12c0.13,0.75,0.17,1.47-0.08,2.26C28.62,19,23.38,27.5,15.24,35.62" stroke-dasharray="28.53" stroke-dashoffset="28.53"><animate id="0" attributeName="stroke-dashoffset" values="28.53;0" dur="0.29s" fill="freeze" begin="0s;9bae.click" /></path><path d="M28.89,19.88c1.93,0,12.07-1.19,14.1-1.48c1.74-0.25,2.89,1.23,1.41,3.15c-3.67,4.77-6.64,7.57-11.95,15.15" stroke-dasharray="38.26" stroke-dashoffset="38.26"><animate attributeName="stroke-dashoffset" values="38.26" fill="freeze" begin="9bae.click" /><animate id="1" attributeName="stroke-dashoffset" values="38.26;0" dur="0.38s" fill="freeze" begin="0.end" /></path></g><g><g><path d="M16.72,39.14c0.88,0.88,1.25,2.39,1.4,3.36C19,49,19.95,56.65,20.53,64.02c0.11,1.36,0.2,2.67,0.29,3.91" stroke-dasharray="29.27" stroke-dashoffset="29.27"><animate attributeName="stroke-dashoffset" values="29.27" fill="freeze" begin="9bae.click" /><animate id="2" attributeName="stroke-dashoffset" values="29.27;0" dur="0.29s" fill="freeze" begin="1.end" /></path><path d="M18.78,40.52c7.03-1.05,18.9-2.76,25.62-3.83c3.69-0.58,5.63-0.52,5.34,3.7c-0.32,4.54-0.74,12.24-1.7,19.4c-0.2,1.51-0.43,3-0.69,4.43" stroke-dasharray="58.15" stroke-dashoffset="58.15"><animate attributeName="stroke-dashoffset" values="58.15" fill="freeze" begin="9bae.click" /><animate id="3" attributeName="stroke-dashoffset" values="58.15;0" dur="0.58s" fill="freeze" begin="2.end" /></path><path d="M33.06,39.98c0.92,0.92,1.08,2.01,1.11,3.54c0.12,6.73,0.03,14.52,0.03,17.85" stroke-dasharray="21.67" stroke-dashoffset="21.67"><animate attributeName="stroke-dashoffset" values="21.67" fill="freeze" begin="9bae.click" /><animate id="4" attributeName="stroke-dashoffset" values="21.67;0" dur="0.22s" fill="freeze" begin="3.end" /></path><path d="M20.26,51.98c2.58-0.46,25.76-3.12,27.89-3.31" stroke-dasharray="28.09" stroke-dashoffset="28.09"><animate attributeName="stroke-dashoffset" values="28.09" fill="freeze" begin="9bae.click" /><animate id="5" attributeName="stroke-dashoffset" values="28.09;0" dur="0.28s" fill="freeze" begin="4.end" /></path><path d="M21.73,64.15c6.89-1.03,17.36-2.37,25.24-3.2" stroke-dasharray="25.44" stroke-dashoffset="25.44"><animate attributeName="stroke-dashoffset" values="25.44" fill="freeze" begin="9bae.click" /><animate id="6" attributeName="stroke-dashoffset" values="25.44;0" dur="0.25s" fill="freeze" begin="5.end" /></path></g><g><path d="M18.29,77.12c0,5.57-2,13.78-2.52,15.38" stroke-dasharray="15.63" stroke-dashoffset="15.63"><animate attributeName="stroke-dashoffset" values="15.63" fill="freeze" begin="9bae.click" /><animate id="7" attributeName="stroke-dashoffset" values="15.63;0" dur="0.16s" fill="freeze" begin="6.end" /></path><path d="M26.95,75.33c0.91,2.36,1.77,8.87,1.99,12.54" stroke-dasharray="12.73" stroke-dashoffset="12.73"><animate attributeName="stroke-dashoffset" values="12.73" fill="freeze" begin="9bae.click" /><animate id="8" attributeName="stroke-dashoffset" values="12.73;0" dur="0.13s" fill="freeze" begin="7.end" /></path><path d="M35.88,73.38c1.35,2.03,3.48,8.36,3.82,11.53" stroke-dasharray="12.21" stroke-dashoffset="12.21"><animate attributeName="stroke-dashoffset" values="12.21" fill="freeze" begin="9bae.click" /><animate id="9" attributeName="stroke-dashoffset" values="12.21;0" dur="0.12s" fill="freeze" begin="8.end" /></path><path d="M44.75,70.38c1.85,1.9,4.79,7.82,5.25,10.78" stroke-dasharray="12.1" stroke-dashoffset="12.1"><animate attributeName="stroke-dashoffset" values="12.1" fill="freeze" begin="9bae.click" /><animate id="10" attributeName="stroke-dashoffset" values="12.1;0" dur="0.12s" fill="freeze" begin="9.end" /></path></g></g></g><g><path d="M58.62,16.99c3.16,1.94,8.16,7.96,8.95,10.98" stroke-dasharray="14.36" stroke-dashoffset="14.36"><animate attributeName="stroke-dashoffset" values="14.36" fill="freeze" begin="9bae.click" /><animate id="11" attributeName="stroke-dashoffset" values="14.36;0" dur="0.14s" fill="freeze" begin="10.end" /></path><path d="M85.46,13.14c0.06,0.87-0.02,1.51-0.31,2.33c-1.48,4.09-4.18,8.63-8.63,14.27" stroke-dasharray="19.12" stroke-dashoffset="19.12"><animate attributeName="stroke-dashoffset" values="19.12" fill="freeze" begin="9bae.click" /><animate id="12" attributeName="stroke-dashoffset" values="19.12;0" dur="0.19s" fill="freeze" begin="11.end" /></path><path d="M57.75,34.96c2.38,0.29,4.18,0.11,5.65-0.09c5.81-0.8,16.18-2.44,21.85-2.96c1.54-0.14,3.5-0.16,5.09,0.19" stroke-dasharray="32.83" stroke-dashoffset="32.83"><animate attributeName="stroke-dashoffset" values="32.83" fill="freeze" begin="9bae.click" /><animate id="13" attributeName="stroke-dashoffset" values="32.83;0" dur="0.33s" fill="freeze" begin="12.end" /></path><path d="M58.94,50.05c2.19,0.45,3.94,0.36,5.21,0.19c5.46-0.73,14.73-2.34,20.24-2.78c1.58-0.13,3.36-0.21,4.98,0.21" stroke-dasharray="30.68" stroke-dashoffset="30.68"><animate attributeName="stroke-dashoffset" values="30.68" fill="freeze" begin="9bae.click" /><animate id="14" attributeName="stroke-dashoffset" values="30.68;0" dur="0.31s" fill="freeze" begin="13.end" /></path><path d="M52.92,67.82c2.45,0.68,5.25,0.52,7.23,0.27c7.66-0.97,21.04-2.81,29.97-3.25c2.4-0.12,5.13-0.33,7.45,0.15" stroke-dasharray="44.91" stroke-dashoffset="44.91"><animate attributeName="stroke-dashoffset" values="44.91" fill="freeze" begin="9bae.click" /><animate id="15" attributeName="stroke-dashoffset" values="44.91;0" dur="0.45s" fill="freeze" begin="14.end" /></path><path d="M72.95,35.83c0.98,0.98,1.24,2.42,1.24,4.25c0,5.42-0.02,29.94-0.05,49.42c-0.01,3.33-0.01,6.32-0.01,8.75" stroke-dasharray="62.72" stroke-dashoffset="62.72"><animate attributeName="stroke-dashoffset" values="62.72" fill="freeze" begin="9bae.click" /><animate id="16" attributeName="stroke-dashoffset" values="62.72;0" dur="0.47s" fill="freeze" begin="15.end" /></path></g></g></g></svg>