<svg xmlns="http://www.w3.org/2000/svg" width="109" height="109" viewBox="0 0 109 109" id="9bf2"><g fill="none" stroke="#666" stroke-width="6" stroke-linecap="round" stroke-linejoin="round"><g><g><g><path d="M22.75,14.5c0.04,0.57,0.08,1.48-0.08,2.31c-0.9,4.86-6.09,15.53-13.19,22.06" /><path d="M20.64,23.52c1.73,0,9.95-2.2,11.77-2.46c1.56-0.22,1.92,1.95,1.27,3.07c-2.75,4.67-4.69,9.15-9.16,16.57" /></g><g><g><path d="M11.97,42.05c0.53,0.7,1.23,1.86,1.35,2.5c1.01,5.26,1.58,18.08,2.2,27.89" /><path d="M13.51,43.87c7.8-1.32,14.67-2.19,20.49-3.29c2.14-0.41,3.23,1.03,3.12,2.48c-0.4,5.3-1.26,16.71-2.98,26.64" /><path d="M23.58,42.31c0.88,0.66,1.56,2.8,1.59,4.49c0.12,7.49,0.03,18.11,0.03,21.82" /><path d="M15.46,56.35c2.54-0.51,18.37-2.81,20.47-3.02" /><path d="M15.93,70.9c5.62-0.56,10.34-1.42,18.09-2.34" /></g><g><path d="M12.89,82.07c0,4.77-2.37,11.82-2.99,13.18" /><path d="M18.04,80.83c1.51,1.94,2.94,7.27,3.31,10.29" /><path d="M25.87,80.19c1.55,1.71,4,7.05,4.38,9.71" /><path d="M33.53,79.62c1.75,0.93,4.53,3.83,4.96,5.28" /></g></g></g><g><g><g><path d="M52.48,13c0.66,0.54,1.73,2.64,1.73,3.72c0,3.98-0.09,9.03-0.09,14.35" /><path d="M40.68,32.95c0.56,0.26,1.75,0.43,2.27,0.37c5.13-0.64,12.52-2.02,19.49-3.44c0.87-0.18,1.67-0.36,2.33,0.08" /></g><g><path d="M53.65,43.98c1.45,0.77,7.53,1.22,9.73,2c0.77,0.27,1.35,2.04,1.21,3.51C63.5,61,59.75,78,56.74,87.3c-3.68,11.35-7.05,3.81-7.77,3.14" /><path d="M52.92,34.76c0.58,0.99,0.5,3.4,0.43,5.21c-0.6,14.03-3.6,36.78-12.83,49.34" /></g></g><g><path d="M79.81,13.25c0.03,0.88,0.04,2.29-0.05,3.52C79,27,76.5,41.25,70.43,50.5" /><path d="M79.77,19.25C81.99,25.29,90.25,44,94.02,49.43c0.98,1.41,1.9,2.14,2.73,2.57" /><g><g><path d="M75.87,55.08c4.04,1.83,10.43,7.53,11.44,10.38" /></g><g><path d="M71.11,81.58c6.81,2.45,17.6,10.07,19.31,13.88" /></g></g></g></g></g></g><g fill="none" stroke="#000" stroke-width="3" stroke-linecap="round" stroke-linejoin="round"><path d="M22.75,14.5c0.04,0.57,0.08,1.48-0.08,2.31c-0.9,4.86-6.09,15.53-13.19,22.06" stroke-dasharray="28.342" stroke-dashoffset="28.342"><animate attributeName="stroke-dashoffset" values="28.342;28.342;0" dur="0.283s" fill="freeze" begin="0s;9bf2.click" /></path><path d="M20.64,23.52c1.73,0,9.95-2.2,11.77-2.46c1.56-0.22,1.92,1.95,1.27,3.07c-2.75,4.67-4.69,9.15-9.16,16.57" stroke-dasharray="35.043" stroke-dashoffset="35.043"><animate attributeName="stroke-dashoffset" values="35.043" fill="freeze" begin="9bf2.click" /><animate attributeName="stroke-dashoffset" values="35.043;35.043;0" keyTimes="0;0.447;1" dur="0.633s" fill="freeze" begin="0s;9bf2.click" /></path><path d="M11.97,42.05c0.53,0.7,1.23,1.86,1.35,2.5c1.01,5.26,1.58,18.08,2.2,27.89" stroke-dasharray="30.847" stroke-dashoffset="30.847"><animate attributeName="stroke-dashoffset" values="30.847" fill="freeze" begin="9bf2.click" /><animate attributeName="stroke-dashoffset" values="30.847;30.847;0" keyTimes="0;0.673;1" dur="0.941s" fill="freeze" begin="0s;9bf2.click" /></path><path d="M13.51,43.87c7.8-1.32,14.67-2.19,20.49-3.29c2.14-0.41,3.23,1.03,3.12,2.48c-0.4,5.3-1.26,16.71-2.98,26.64" stroke-dasharray="52.267" stroke-dashoffset="52.267"><animate attributeName="stroke-dashoffset" values="52.267" fill="freeze" begin="9bf2.click" /><animate attributeName="stroke-dashoffset" values="52.267;52.267;0" keyTimes="0;0.643;1" dur="1.464s" fill="freeze" begin="0s;9bf2.click" /></path><path d="M23.58,42.31c0.88,0.66,1.56,2.8,1.59,4.49c0.12,7.49,0.03,18.11,0.03,21.82" stroke-dasharray="26.7" stroke-dashoffset="26.7"><animate attributeName="stroke-dashoffset" values="26.7" fill="freeze" begin="9bf2.click" /><animate attributeName="stroke-dashoffset" values="26.7;26.7;0" keyTimes="0;0.846;1" dur="1.731s" fill="freeze" begin="0s;9bf2.click" /></path><path d="M15.46,56.35c2.54-0.51,18.37-2.81,20.47-3.02" stroke-dasharray="20.694" stroke-dashoffset="20.694"><animate attributeName="stroke-dashoffset" values="20.694" fill="freeze" begin="9bf2.click" /><animate attributeName="stroke-dashoffset" values="20.694;20.694;0" keyTimes="0;0.893;1" dur="1.938s" fill="freeze" begin="0s;9bf2.click" /></path><path d="M15.93,70.9c5.62-0.56,10.34-1.42,18.09-2.34" stroke-dasharray="18.243" stroke-dashoffset="18.243"><animate attributeName="stroke-dashoffset" values="18.243" fill="freeze" begin="9bf2.click" /><animate attributeName="stroke-dashoffset" values="18.243;18.243;0" keyTimes="0;0.914;1" dur="2.12s" fill="freeze" begin="0s;9bf2.click" /></path><path d="M12.89,82.07c0,4.77-2.37,11.82-2.99,13.18" stroke-dasharray="13.58" stroke-dashoffset="13.58"><animate attributeName="stroke-dashoffset" values="13.58" fill="freeze" begin="9bf2.click" /><animate attributeName="stroke-dashoffset" values="13.58;13.58;0" keyTimes="0;0.94;1" dur="2.256s" fill="freeze" begin="0s;9bf2.click" /></path><path d="M18.04,80.83c1.51,1.94,2.94,7.27,3.31,10.29" stroke-dasharray="10.892" stroke-dashoffset="10.892"><animate attributeName="stroke-dashoffset" values="10.892" fill="freeze" begin="9bf2.click" /><animate attributeName="stroke-dashoffset" values="10.892;10.892;0" keyTimes="0;0.954;1" dur="2.365s" fill="freeze" begin="0s;9bf2.click" /></path><path d="M25.87,80.19c1.55,1.71,4,7.05,4.38,9.71" stroke-dasharray="10.74" stroke-dashoffset="10.74"><animate attributeName="stroke-dashoffset" values="10.74" fill="freeze" begin="9bf2.click" /><animate attributeName="stroke-dashoffset" values="10.74;10.74;0" keyTimes="0;0.957;1" dur="2.472s" fill="freeze" begin="0s;9bf2.click" /></path><path d="M33.53,79.62c1.75,0.93,4.53,3.83,4.96,5.28" stroke-dasharray="7.351" stroke-dashoffset="7.351"><animate attributeName="stroke-dashoffset" values="7.351" fill="freeze" begin="9bf2.click" /><animate attributeName="stroke-dashoffset" values="7.351;7.351;0" keyTimes="0;0.971;1" dur="2.546s" fill="freeze" begin="0s;9bf2.click" /></path><path d="M52.48,13c0.66,0.54,1.73,2.64,1.73,3.72c0,3.98-0.09,9.03-0.09,14.35" stroke-dasharray="18.527" stroke-dashoffset="18.527"><animate attributeName="stroke-dashoffset" values="18.527" fill="freeze" begin="9bf2.click" /><animate attributeName="stroke-dashoffset" values="18.527;18.527;0" keyTimes="0;0.932;1" dur="2.731s" fill="freeze" begin="0s;9bf2.click" /></path><path d="M40.68,32.95c0.56,0.26,1.75,0.43,2.27,0.37c5.13-0.64,12.52-2.02,19.49-3.44c0.87-0.18,1.67-0.36,2.33,0.08" stroke-dasharray="24.513" stroke-dashoffset="24.513"><animate attributeName="stroke-dashoffset" values="24.513" fill="freeze" begin="9bf2.click" /><animate attributeName="stroke-dashoffset" values="24.513;24.513;0" keyTimes="0;0.918;1" dur="2.976s" fill="freeze" begin="0s;9bf2.click" /></path><path d="M53.65,43.98c1.45,0.77,7.53,1.22,9.73,2c0.77,0.27,1.35,2.04,1.21,3.51C63.5,61,59.75,78,56.74,87.3c-3.68,11.35-7.05,3.81-7.77,3.14" stroke-dasharray="65.261" stroke-dashoffset="65.261"><animate attributeName="stroke-dashoffset" values="65.261" fill="freeze" begin="9bf2.click" /><animate attributeName="stroke-dashoffset" values="65.261;65.261;0" keyTimes="0;0.858;1" dur="3.467s" fill="freeze" begin="0s;9bf2.click" /></path><path d="M52.92,34.76c0.58,0.99,0.5,3.4,0.43,5.21c-0.6,14.03-3.6,36.78-12.83,49.34" stroke-dasharray="56.885" stroke-dashoffset="56.885"><animate attributeName="stroke-dashoffset" values="56.885" fill="freeze" begin="9bf2.click" /><animate attributeName="stroke-dashoffset" values="56.885;56.885;0" keyTimes="0;0.859;1" dur="4.036s" fill="freeze" begin="0s;9bf2.click" /></path><path d="M79.81,13.25c0.03,0.88,0.04,2.29-0.05,3.52C79,27,76.5,41.25,70.43,50.5" stroke-dasharray="38.853" stroke-dashoffset="38.853"><animate attributeName="stroke-dashoffset" values="38.853" fill="freeze" begin="9bf2.click" /><animate attributeName="stroke-dashoffset" values="38.853;38.853;0" keyTimes="0;0.912;1" dur="4.425s" fill="freeze" begin="0s;9bf2.click" /></path><path d="M79.77,19.25C81.99,25.29,90.25,44,94.02,49.43c0.98,1.41,1.9,2.14,2.73,2.57" stroke-dasharray="37.204" stroke-dashoffset="37.204"><animate attributeName="stroke-dashoffset" values="37.204" fill="freeze" begin="9bf2.click" /><animate attributeName="stroke-dashoffset" values="37.204;37.204;0" keyTimes="0;0.922;1" dur="4.797s" fill="freeze" begin="0s;9bf2.click" /></path><path d="M75.87,55.08c4.04,1.83,10.43,7.53,11.44,10.38" stroke-dasharray="15.673" stroke-dashoffset="15.673"><animate attributeName="stroke-dashoffset" values="15.673" fill="freeze" begin="9bf2.click" /><animate attributeName="stroke-dashoffset" values="15.673;15.673;0" keyTimes="0;0.968;1" dur="4.954s" fill="freeze" begin="0s;9bf2.click" /></path><path d="M71.11,81.58c6.81,2.45,17.6,10.07,19.31,13.88" stroke-dasharray="24.102" stroke-dashoffset="24.102"><animate attributeName="stroke-dashoffset" values="24.102" fill="freeze" begin="9bf2.click" /><animate attributeName="stroke-dashoffset" values="24.102;24.102;0" keyTimes="0;0.954;1" dur="5.195s" fill="freeze" begin="0s;9bf2.click" /></path></g></svg>