<svg xmlns="http://www.w3.org/2000/svg" viewBox="0 0 109 109" id="9c06"><g fill="none" stroke="#666" stroke-width="6" stroke-linecap="round" stroke-linejoin="round"><g><g><g><path d="M25.49,13.75c0.04,0.56,0.09,1.45-0.08,2.26c-1,4.76-6.91,15.74-15.17,24.11" /><path d="M23.39,22.88c1.93,0,14.32-2.94,16.35-3.23c1.74-0.25,2.8,1.78,1.91,2.9c-4.14,5.2-6.89,11.45-10.95,19.4" /></g><g><g><path d="M13.22,44.89c0.21,0.46,0.21,0.77,0.33,1.35c0.95,4.72,2.96,18.14,3.55,26.95" /><path d="M14.21,46.52c7.37-1.19,20.97-3.21,26.47-4.21c2.02-0.37,3.06,0.93,2.95,2.23c-0.38,4.76-1.67,17.76-3.29,26.67" /><path d="M27.52,45.23c0.83,0.59,1.47,2.51,1.5,4.04c0.11,6.73,0.02,16.27,0.02,19.6" /><path d="M16.55,58.23c2.4-0.46,23.49-2.87,25.48-3.06" /><path d="M17.49,70.9c5.31-0.51,15.88-1.12,23.21-1.95" /></g><g><path d="M14.58,82.82c0,5.13-2.85,12.71-3.6,14.18" /><path d="M22.79,81.83c1.27,2.65,2.48,9.93,2.8,14.04" /><path d="M31.48,80.19c1.54,2.2,3.97,9.04,4.36,12.46" /><path d="M41.8,80.12c2.01,1.95,5.2,8,5.7,11.03" /></g></g></g><g><g><g><g><path d="M52.96,24.46c0.91,0.43,2.57,0.46,3.48,0.43c12.01-0.5,20.48-2.67,32.23-3.2c1.51-0.07,2.42,0.2,3.18,0.42" /></g><g><g><path d="M54.71,34.32c0.71,0.37,2,0.39,2.71,0.37C65,34.5,76.5,32.5,86.32,31.94c1.18-0.07,1.89,0.18,2.48,0.36" /></g><g><g><path d="M50.46,46.16c1.15,0.52,3.25,0.61,4.39,0.52c11.92-0.88,26.4-2.93,38.66-3.47c1.91-0.08,3.05,0.25,4.01,0.51" /></g></g></g></g><g><g><path d="M70.1,13.5c0.4,0.84,0.53,1.29,0.28,3.17c-1.47,11.1-7.13,40.51-23.63,51.67" /><path d="M74.05,35.58c3.28,5.7,15.81,23.79,19.42,27.96c1.23,1.42,2.8,2.02,4.03,2.42" /></g></g></g><g><path d="M60.21,62.27c0.29,0.71,0.59,1.07,0.59,2.02c0,0.95-0.1,32.02,0,32.96" /><path d="M61.28,63.89c1.66-0.12,18.42-2.88,19.93-3.02c1.26-0.12,2.07,1.31,1.97,2.01c-0.2,1.42-0.39,32.82-0.39,33.53" /><path d="M61.57,77.23c2.24,0,18.5-1.55,21.04-1.55" /><path d="M61.47,94.09c4.57-0.51,14.94-1.37,20.63-1.81" /></g></g></g></g><g fill="none" stroke="#000" stroke-width="3" stroke-linecap="round" stroke-linejoin="round"><path d="M25.49,13.75c0.04,0.56,0.09,1.45-0.08,2.26c-1,4.76-6.91,15.74-15.17,24.11" stroke-dasharray="31.018" stroke-dashoffset="31.018"><animate attributeName="stroke-dashoffset" values="31.018;31.018;0" dur="0.31s" fill="freeze" begin="0s;9c06.click" /></path><path d="M23.39,22.88c1.93,0,14.32-2.94,16.35-3.23c1.74-0.25,2.8,1.78,1.91,2.9c-4.14,5.2-6.89,11.45-10.95,19.4" stroke-dasharray="43.37" stroke-dashoffset="43.37"><animate attributeName="stroke-dashoffset" values="43.37" fill="freeze" begin="9c06.click" /><animate attributeName="stroke-dashoffset" values="43.37;43.37;0" keyTimes="0;0.417;1" dur="0.744s" fill="freeze" begin="0s;9c06.click" /></path><path d="M13.22,44.89c0.21,0.46,0.21,0.77,0.33,1.35c0.95,4.72,2.96,18.14,3.55,26.95" stroke-dasharray="28.591" stroke-dashoffset="28.591"><animate attributeName="stroke-dashoffset" values="28.591" fill="freeze" begin="9c06.click" /><animate attributeName="stroke-dashoffset" values="28.591;28.591;0" keyTimes="0;0.722;1" dur="1.03s" fill="freeze" begin="0s;9c06.click" /></path><path d="M14.21,46.52c7.37-1.19,20.97-3.21,26.47-4.21c2.02-0.37,3.06,0.93,2.95,2.23c-0.38,4.76-1.67,17.76-3.29,26.67" stroke-dasharray="58.031" stroke-dashoffset="58.031"><animate attributeName="stroke-dashoffset" values="58.031" fill="freeze" begin="9c06.click" /><animate attributeName="stroke-dashoffset" values="58.031;58.031;0" keyTimes="0;0.64;1" dur="1.61s" fill="freeze" begin="0s;9c06.click" /></path><path d="M27.52,45.23c0.83,0.59,1.47,2.51,1.5,4.04c0.11,6.73,0.02,16.27,0.02,19.6" stroke-dasharray="24.023" stroke-dashoffset="24.023"><animate attributeName="stroke-dashoffset" values="24.023" fill="freeze" begin="9c06.click" /><animate attributeName="stroke-dashoffset" values="24.023;24.023;0" keyTimes="0;0.87;1" dur="1.85s" fill="freeze" begin="0s;9c06.click" /></path><path d="M16.55,58.23c2.4-0.46,23.49-2.87,25.48-3.06" stroke-dasharray="25.665" stroke-dashoffset="25.665"><animate attributeName="stroke-dashoffset" values="25.665" fill="freeze" begin="9c06.click" /><animate attributeName="stroke-dashoffset" values="25.665;25.665;0" keyTimes="0;0.878;1" dur="2.107s" fill="freeze" begin="0s;9c06.click" /></path><path d="M17.49,70.9c5.31-0.51,15.88-1.12,23.21-1.95" stroke-dasharray="23.294" stroke-dashoffset="23.294"><animate attributeName="stroke-dashoffset" values="23.294" fill="freeze" begin="9c06.click" /><animate attributeName="stroke-dashoffset" values="23.294;23.294;0" keyTimes="0;0.9;1" dur="2.34s" fill="freeze" begin="0s;9c06.click" /></path><path d="M14.58,82.82c0,5.13-2.85,12.71-3.6,14.18" stroke-dasharray="14.716" stroke-dashoffset="14.716"><animate attributeName="stroke-dashoffset" values="14.716" fill="freeze" begin="9c06.click" /><animate attributeName="stroke-dashoffset" values="14.716;14.716;0" keyTimes="0;0.941;1" dur="2.487s" fill="freeze" begin="0s;9c06.click" /></path><path d="M22.79,81.83c1.27,2.65,2.48,9.93,2.8,14.04" stroke-dasharray="14.364" stroke-dashoffset="14.364"><animate attributeName="stroke-dashoffset" values="14.364" fill="freeze" begin="9c06.click" /><animate attributeName="stroke-dashoffset" values="14.364;14.364;0" keyTimes="0;0.945;1" dur="2.631s" fill="freeze" begin="0s;9c06.click" /></path><path d="M31.48,80.19c1.54,2.2,3.97,9.04,4.36,12.46" stroke-dasharray="13.276" stroke-dashoffset="13.276"><animate attributeName="stroke-dashoffset" values="13.276" fill="freeze" begin="9c06.click" /><animate attributeName="stroke-dashoffset" values="13.276;13.276;0" keyTimes="0;0.952;1" dur="2.764s" fill="freeze" begin="0s;9c06.click" /></path><path d="M41.8,80.12c2.01,1.95,5.2,8,5.7,11.03" stroke-dasharray="12.535" stroke-dashoffset="12.535"><animate attributeName="stroke-dashoffset" values="12.535" fill="freeze" begin="9c06.click" /><animate attributeName="stroke-dashoffset" values="12.535;12.535;0" keyTimes="0;0.957;1" dur="2.889s" fill="freeze" begin="0s;9c06.click" /></path><path d="M52.96,24.46c0.91,0.43,2.57,0.46,3.48,0.43c12.01-0.5,20.48-2.67,32.23-3.2c1.51-0.07,2.42,0.2,3.18,0.42" stroke-dasharray="39.159" stroke-dashoffset="39.159"><animate attributeName="stroke-dashoffset" values="39.159" fill="freeze" begin="9c06.click" /><animate attributeName="stroke-dashoffset" values="39.159;39.159;0" keyTimes="0;0.881;1" dur="3.281s" fill="freeze" begin="0s;9c06.click" /></path><path d="M54.71,34.32c0.71,0.37,2,0.39,2.71,0.37C65,34.5,76.5,32.5,86.32,31.94c1.18-0.07,1.89,0.18,2.48,0.36" stroke-dasharray="34.321" stroke-dashoffset="34.321"><animate attributeName="stroke-dashoffset" values="34.321" fill="freeze" begin="9c06.click" /><animate attributeName="stroke-dashoffset" values="34.321;34.321;0" keyTimes="0;0.905;1" dur="3.624s" fill="freeze" begin="0s;9c06.click" /></path><path d="M50.46,46.16c1.15,0.52,3.25,0.61,4.39,0.52c11.92-0.88,26.4-2.93,38.66-3.47c1.91-0.08,3.05,0.25,4.01,0.51" stroke-dasharray="47.339" stroke-dashoffset="47.339"><animate attributeName="stroke-dashoffset" values="47.339" fill="freeze" begin="9c06.click" /><animate attributeName="stroke-dashoffset" values="47.339;47.339;0" keyTimes="0;0.885;1" dur="4.097s" fill="freeze" begin="0s;9c06.click" /></path><path d="M70.1,13.5c0.4,0.84,0.53,1.29,0.28,3.17c-1.47,11.1-7.13,40.51-23.63,51.67" stroke-dasharray="61.531" stroke-dashoffset="61.531"><animate attributeName="stroke-dashoffset" values="61.531" fill="freeze" begin="9c06.click" /><animate attributeName="stroke-dashoffset" values="61.531;61.531;0" keyTimes="0;0.898;1" dur="4.56s" fill="freeze" begin="0s;9c06.click" /></path><path d="M74.05,35.58c3.28,5.7,15.81,23.79,19.42,27.96c1.23,1.42,2.8,2.02,4.03,2.42" stroke-dasharray="38.826" stroke-dashoffset="38.826"><animate attributeName="stroke-dashoffset" values="38.826" fill="freeze" begin="9c06.click" /><animate attributeName="stroke-dashoffset" values="38.826;38.826;0" keyTimes="0;0.922;1" dur="4.948s" fill="freeze" begin="0s;9c06.click" /></path><path d="M60.21,62.27c0.29,0.71,0.59,1.07,0.59,2.02c0,0.95-0.1,32.02,0,32.96" stroke-dasharray="35.088" stroke-dashoffset="35.088"><animate attributeName="stroke-dashoffset" values="35.088" fill="freeze" begin="9c06.click" /><animate attributeName="stroke-dashoffset" values="35.088;35.088;0" keyTimes="0;0.934;1" dur="5.299s" fill="freeze" begin="0s;9c06.click" /></path><path d="M61.28,63.89c1.66-0.12,18.42-2.88,19.93-3.02c1.26-0.12,2.07,1.31,1.97,2.01c-0.2,1.42-0.39,32.82-0.39,33.53" stroke-dasharray="56.844" stroke-dashoffset="56.844"><animate attributeName="stroke-dashoffset" values="56.844" fill="freeze" begin="9c06.click" /><animate attributeName="stroke-dashoffset" values="56.844;56.844;0" keyTimes="0;0.903;1" dur="5.867s" fill="freeze" begin="0s;9c06.click" /></path><path d="M61.57,77.23c2.24,0,18.5-1.55,21.04-1.55" stroke-dasharray="21.1" stroke-dashoffset="21.1"><animate attributeName="stroke-dashoffset" values="21.1" fill="freeze" begin="9c06.click" /><animate attributeName="stroke-dashoffset" values="21.1;21.1;0" keyTimes="0;0.965;1" dur="6.078s" fill="freeze" begin="0s;9c06.click" /></path><path d="M61.47,94.09c4.57-0.51,14.94-1.37,20.63-1.81" stroke-dasharray="20.711" stroke-dashoffset="20.711"><animate attributeName="stroke-dashoffset" values="20.711" fill="freeze" begin="9c06.click" /><animate attributeName="stroke-dashoffset" values="20.711;20.711;0" keyTimes="0;0.967;1" dur="6.285s" fill="freeze" begin="0s;9c06.click" /></path></g></svg>