<svg xmlns="http://www.w3.org/2000/svg" viewBox="0 0 109 109" id="9c25"><g fill="none" stroke="#666" stroke-width="6" stroke-linecap="round" stroke-linejoin="round"><g><g><g><path d="M25.49,12.75c0.04,0.56,0.24,1.5-0.09,2.26C23,20.5,17.75,28.5,9.74,36.62" /><path d="M23.39,19.38c1.93,0,11.32-1.94,13.35-2.23c1.74-0.25,2.13,1.67,1.41,2.9c-3.05,5.19-3.98,8.16-8.95,16.4" /></g><g><g><path d="M14.62,38.58c0.19,0.55,0.2,0.93,0.31,1.61c0.88,5.64,2.35,19.84,2.92,30.25" /><path d="M15.52,40.59c6.72-0.74,18.65-3.11,23.66-3.79c1.84-0.25,2.79,1.37,2.7,2.88c-0.33,5.57-0.46,18.15-1.9,28.49" /><path d="M27.2,39.05c0.76,0.54,1.35,2.15,1.38,3.4c0.13,5.51,0.08,21.81,0.09,24.54" /><path d="M17.74,53.44c2.19-0.33,21.41-2.44,23.21-2.49" /><path d="M18.18,67.8c4.84-0.12,14.92-1.61,21.6-1.93" /></g><g><path d="M14.43,79.57c0,5.77-2.42,14.28-3.05,15.93" /><path d="M21.39,77.83c1.41,2.36,2.75,8.87,3.11,12.54" /><path d="M29.29,74.69c1.76,2.2,4.54,9.04,4.98,12.46" /><path d="M37.8,72.87c1.83,1.73,4.74,7.1,5.2,9.78" /></g></g></g><g><g><path d="M47.75,14.06c0.24,0.32,0.49,0.59,0.59,0.99c0.83,3.19,2.33,11.98,2.9,17.7" /><path d="M49.25,16.22c5.3-1.25,40.38-3.56,43.2-3.98c1.03-0.15,2.42,1.08,2.15,2.87c-0.58,3.74-1.99,10.15-3.52,15.49" /><path d="M63.14,14.44c0.16,2.12,1.29,12.47,1.46,14.86" /><path d="M78.35,13.11c-0.16,3.45-0.97,12.47-1.29,14.6" /><path d="M52,31.01c3.31-0.47,34.91-2.42,39.45-3.14" /></g><g><path d="M69.75,35.25C71,35.75,72,37.47,72,38.5c0,10.5,0,53.75-0.25,60" /><path d="M61.76,40.64c0.04,0.39,0.08,1.01-0.08,1.57c-0.97,3.31-6.52,10.56-14.13,15.01" /><path d="M64.5,60.39c0.06,0.64,0.24,1.7-0.11,2.59C62,69,54.5,79,44.06,87.72" /><path d="M81.77,41.83c4.6,2.36,11.89,9.71,13.04,13.38" /><path d="M72.5,50.25c3.28,4.42,18.72,26.62,22.29,30.97c1.21,1.47,2.25,2.11,3.46,2.53" /></g></g></g></g><g fill="none" stroke="#000" stroke-width="3" stroke-linecap="round" stroke-linejoin="round"><path d="M25.49,12.75c0.04,0.56,0.24,1.5-0.09,2.26C23,20.5,17.75,28.5,9.74,36.62" stroke-dasharray="29.109" stroke-dashoffset="29.109"><animate attributeName="stroke-dashoffset" values="29.109;29.109;0" dur="0.291s" fill="freeze" begin="0s;9c25.click" /></path><path d="M23.39,19.38c1.93,0,11.32-1.94,13.35-2.23c1.74-0.25,2.13,1.67,1.41,2.9c-3.05,5.19-3.98,8.16-8.95,16.4" stroke-dasharray="36.339" stroke-dashoffset="36.339"><animate attributeName="stroke-dashoffset" values="36.339" fill="freeze" begin="9c25.click" /><animate attributeName="stroke-dashoffset" values="36.339;36.339;0" keyTimes="0;0.445;1" dur="0.654s" fill="freeze" begin="0s;9c25.click" /></path><path d="M14.62,38.58c0.19,0.55,0.2,0.93,0.31,1.61c0.88,5.64,2.35,19.84,2.92,30.25" stroke-dasharray="32.042" stroke-dashoffset="32.042"><animate attributeName="stroke-dashoffset" values="32.042" fill="freeze" begin="9c25.click" /><animate attributeName="stroke-dashoffset" values="32.042;32.042;0" keyTimes="0;0.671;1" dur="0.974s" fill="freeze" begin="0s;9c25.click" /></path><path d="M15.52,40.59c6.72-0.74,18.65-3.11,23.66-3.79c1.84-0.25,2.79,1.37,2.7,2.88c-0.33,5.57-0.46,18.15-1.9,28.49" stroke-dasharray="57.094" stroke-dashoffset="57.094"><animate attributeName="stroke-dashoffset" values="57.094" fill="freeze" begin="9c25.click" /><animate attributeName="stroke-dashoffset" values="57.094;57.094;0" keyTimes="0;0.63;1" dur="1.545s" fill="freeze" begin="0s;9c25.click" /></path><path d="M27.2,39.05c0.76,0.54,1.35,2.15,1.38,3.4c0.13,5.51,0.08,21.81,0.09,24.54" stroke-dasharray="28.31" stroke-dashoffset="28.31"><animate attributeName="stroke-dashoffset" values="28.31" fill="freeze" begin="9c25.click" /><animate attributeName="stroke-dashoffset" values="28.31;28.31;0" keyTimes="0;0.845;1" dur="1.828s" fill="freeze" begin="0s;9c25.click" /></path><path d="M17.74,53.44c2.19-0.33,21.41-2.44,23.21-2.49" stroke-dasharray="23.346" stroke-dashoffset="23.346"><animate attributeName="stroke-dashoffset" values="23.346" fill="freeze" begin="9c25.click" /><animate attributeName="stroke-dashoffset" values="23.346;23.346;0" keyTimes="0;0.887;1" dur="2.061s" fill="freeze" begin="0s;9c25.click" /></path><path d="M18.18,67.8c4.84-0.12,14.92-1.61,21.6-1.93" stroke-dasharray="21.691" stroke-dashoffset="21.691"><animate attributeName="stroke-dashoffset" values="21.691" fill="freeze" begin="9c25.click" /><animate attributeName="stroke-dashoffset" values="21.691;21.691;0" keyTimes="0;0.905;1" dur="2.278s" fill="freeze" begin="0s;9c25.click" /></path><path d="M14.43,79.57c0,5.77-2.42,14.28-3.05,15.93" stroke-dasharray="16.276" stroke-dashoffset="16.276"><animate attributeName="stroke-dashoffset" values="16.276" fill="freeze" begin="9c25.click" /><animate attributeName="stroke-dashoffset" values="16.276;16.276;0" keyTimes="0;0.933;1" dur="2.441s" fill="freeze" begin="0s;9c25.click" /></path><path d="M21.39,77.83c1.41,2.36,2.75,8.87,3.11,12.54" stroke-dasharray="12.983" stroke-dashoffset="12.983"><animate attributeName="stroke-dashoffset" values="12.983" fill="freeze" begin="9c25.click" /><animate attributeName="stroke-dashoffset" values="12.983;12.983;0" keyTimes="0;0.904;1" dur="2.701s" fill="freeze" begin="0s;9c25.click" /></path><path d="M29.29,74.69c1.76,2.2,4.54,9.04,4.98,12.46" stroke-dasharray="13.511" stroke-dashoffset="13.511"><animate attributeName="stroke-dashoffset" values="13.511" fill="freeze" begin="9c25.click" /><animate attributeName="stroke-dashoffset" values="13.511;13.511;0" keyTimes="0;0.909;1" dur="2.971s" fill="freeze" begin="0s;9c25.click" /></path><path d="M37.8,72.87c1.83,1.73,4.74,7.1,5.2,9.78" stroke-dasharray="11.185" stroke-dashoffset="11.185"><animate attributeName="stroke-dashoffset" values="11.185" fill="freeze" begin="9c25.click" /><animate attributeName="stroke-dashoffset" values="11.185;11.185;0" keyTimes="0;0.93;1" dur="3.195s" fill="freeze" begin="0s;9c25.click" /></path><path d="M47.75,14.06c0.24,0.32,0.49,0.59,0.59,0.99c0.83,3.19,2.33,11.98,2.9,17.7" stroke-dasharray="19.11" stroke-dashoffset="19.11"><animate attributeName="stroke-dashoffset" values="19.11" fill="freeze" begin="9c25.click" /><animate attributeName="stroke-dashoffset" values="19.11;19.11;0" keyTimes="0;0.944;1" dur="3.386s" fill="freeze" begin="0s;9c25.click" /></path><path d="M49.25,16.22c5.3-1.25,40.38-3.56,43.2-3.98c1.03-0.15,2.42,1.08,2.15,2.87c-0.58,3.74-1.99,10.15-3.52,15.49" stroke-dasharray="63.386" stroke-dashoffset="63.386"><animate attributeName="stroke-dashoffset" values="63.386" fill="freeze" begin="9c25.click" /><animate attributeName="stroke-dashoffset" values="63.386;63.386;0" keyTimes="0;0.877;1" dur="3.863s" fill="freeze" begin="0s;9c25.click" /></path><path d="M63.14,14.44c0.16,2.12,1.29,12.47,1.46,14.86" stroke-dasharray="14.933" stroke-dashoffset="14.933"><animate attributeName="stroke-dashoffset" values="14.933" fill="freeze" begin="9c25.click" /><animate attributeName="stroke-dashoffset" values="14.933;14.933;0" keyTimes="0;0.928;1" dur="4.162s" fill="freeze" begin="0s;9c25.click" /></path><path d="M78.35,13.11c-0.16,3.45-0.97,12.47-1.29,14.6" stroke-dasharray="14.66" stroke-dashoffset="14.66"><animate attributeName="stroke-dashoffset" values="14.66" fill="freeze" begin="9c25.click" /><animate attributeName="stroke-dashoffset" values="14.66;14.66;0" keyTimes="0;0.934;1" dur="4.455s" fill="freeze" begin="0s;9c25.click" /></path><path d="M52,31.01c3.31-0.47,34.91-2.42,39.45-3.14" stroke-dasharray="39.579" stroke-dashoffset="39.579"><animate attributeName="stroke-dashoffset" values="39.579" fill="freeze" begin="9c25.click" /><animate attributeName="stroke-dashoffset" values="39.579;39.579;0" keyTimes="0;0.918;1" dur="4.851s" fill="freeze" begin="0s;9c25.click" /></path><path d="M69.75,35.25C71,35.75,72,37.47,72,38.5c0,10.5,0,53.75-0.25,60" stroke-dasharray="64.135" stroke-dashoffset="64.135"><animate attributeName="stroke-dashoffset" values="64.135" fill="freeze" begin="9c25.click" /><animate attributeName="stroke-dashoffset" values="64.135;64.135;0" keyTimes="0;0.91;1" dur="5.333s" fill="freeze" begin="0s;9c25.click" /></path><path d="M61.76,40.64c0.04,0.39,0.08,1.01-0.08,1.57c-0.97,3.31-6.52,10.56-14.13,15.01" stroke-dasharray="22.532" stroke-dashoffset="22.532"><animate attributeName="stroke-dashoffset" values="22.532" fill="freeze" begin="9c25.click" /><animate attributeName="stroke-dashoffset" values="22.532;22.532;0" keyTimes="0;0.96;1" dur="5.558s" fill="freeze" begin="0s;9c25.click" /></path><path d="M64.5,60.39c0.06,0.64,0.24,1.7-0.11,2.59C62,69,54.5,79,44.06,87.72" stroke-dasharray="34.899" stroke-dashoffset="34.899"><animate attributeName="stroke-dashoffset" values="34.899" fill="freeze" begin="9c25.click" /><animate attributeName="stroke-dashoffset" values="34.899;34.899;0" keyTimes="0;0.941;1" dur="5.907s" fill="freeze" begin="0s;9c25.click" /></path><path d="M81.77,41.83c4.6,2.36,11.89,9.71,13.04,13.38" stroke-dasharray="18.955" stroke-dashoffset="18.955"><animate attributeName="stroke-dashoffset" values="18.955" fill="freeze" begin="9c25.click" /><animate attributeName="stroke-dashoffset" values="18.955;18.955;0" keyTimes="0;0.969;1" dur="6.097s" fill="freeze" begin="0s;9c25.click" /></path><path d="M72.5,50.25c3.28,4.42,18.72,26.62,22.29,30.97c1.21,1.47,2.25,2.11,3.46,2.53" stroke-dasharray="42.509" stroke-dashoffset="42.509"><animate attributeName="stroke-dashoffset" values="42.509" fill="freeze" begin="9c25.click" /><animate attributeName="stroke-dashoffset" values="42.509;42.509;0" keyTimes="0;0.935;1" dur="6.522s" fill="freeze" begin="0s;9c25.click" /></path></g></svg>