<svg xmlns="http://www.w3.org/2000/svg" viewBox="0 0 109 109" id="9c2d"><g fill="none" stroke="#666" stroke-width="6" stroke-linecap="round" stroke-linejoin="round"><g><g><g><path d="M26.49,13.75c0.04,0.59,0.2,1.54-0.08,2.35c-2.16,6.15-6.66,14.65-14.67,22.52" /><path d="M24.39,21.88c1.93,0,13.82-2.44,15.85-2.73c1.74-0.25,2.63,1.17,1.91,2.4c-3.05,5.19-6.14,8.7-10.45,19.4" /></g><g><g><path d="M14.72,44.89c0.23,0.46,0.23,0.77,0.36,1.35c1.02,4.72,2.11,17.14,2.75,25.95" /><path d="M15.78,46.52c7.92-1.19,22.01-3.21,27.92-4.21c2.17-0.37,3.29,0.93,3.17,2.23c-0.41,4.76-2.29,16.26-4.03,25.17" /><path d="M29.56,44.23c0.9,0.59,1.58,2.51,1.61,4.04c0.12,6.73,0.03,16.27,0.03,19.6" /><path d="M17.76,57.73c2.58-0.46,25.26-2.87,27.39-3.06" /><path d="M18.23,70.4c5.71-0.51,17.61-1.62,25.49-2.45" /></g><g><path d="M16.48,81.07c0,6.13-3.1,15.18-3.91,16.93" /><path d="M23.76,79.33c1.42,2.93,2.76,10.99,3.11,15.54" /><path d="M33.48,78.19c1.54,2.46,3.97,10.13,4.36,13.96" /><path d="M42.55,77.12c2.28,2.39,5.88,9.82,6.45,13.53" /></g></g></g><g><g><g p6:partial xmlns:p6="http://kanjivg.tagaini.net"><g><path d="M54.36,24.72c0.63,0.21,1.78,0.23,2.41,0.21c7.16-0.33,14-1.72,20.05-2.17c1.05-0.08,1.68,0.1,2.21,0.2" /><path d="M66.68,12.37c0.1,0.18,1.35,0.96,1.44,2.13c0.46,5.61,0.25,19.95,0.25,21.86" /><path d="M48.75,38.04c1.28,0.43,3.64,0.68,4.9,0.43c8.85-1.72,25.6-4.97,38.01-6.01c2.12-0.18,3.41,0.21,4.47,0.43" /></g><path d="M88.16,16.13c0.1,0.79,0.53,2.25-0.19,3.19C78.74,31.42,67.63,44.2,52.3,53.46" /></g><g><path d="M85.69,40.25c0.25,0.35,0.39,1.34-0.24,1.93c-4.7,4.32-8.45,6.07-17.23,11.09" /><path d="M66.84,46.17c0.58,0.36,0.62,0.59,0.81,1.07c0.19,0.47,0.19,6.38,0.19,7.87c0,6.39,7.71,5.22,14.28,5.22c7.16,0,12.78-0.58,12.81-5.64" /></g></g><g><path d="M57,69.6c0.32,0.74,1.06,2.05,1.06,3.04c0,0.99,2.38,23.88,2.48,24.86" /><path d="M58.59,71.14c1.82-0.12,28.04-3,29.7-3.14c1.38-0.12,2.27,1.37,2.16,2.1c-0.22,1.48-3.41,24.71-3.41,25.45" /><path d="M59.32,82.14c2.46,0,26.76-2.18,29.54-2.18" /><path d="M61.69,94.73c5.01-0.53,18.36-1,24.6-1.46" /></g></g></g></g><g fill="none" stroke="#000" stroke-width="3" stroke-linecap="round" stroke-linejoin="round"><path d="M26.49,13.75c0.04,0.59,0.2,1.54-0.08,2.35c-2.16,6.15-6.66,14.65-14.67,22.52" stroke-dasharray="29.474" stroke-dashoffset="29.474"><animate attributeName="stroke-dashoffset" values="29.474;29.474;0" dur="0.295s" fill="freeze" begin="0s;9c2d.click" /></path><path d="M24.39,21.88c1.93,0,13.82-2.44,15.85-2.73c1.74-0.25,2.63,1.17,1.91,2.4c-3.05,5.19-6.14,8.7-10.45,19.4" stroke-dasharray="42.117" stroke-dashoffset="42.117"><animate attributeName="stroke-dashoffset" values="42.117" fill="freeze" begin="9c2d.click" /><animate attributeName="stroke-dashoffset" values="42.117;42.117;0" keyTimes="0;0.412;1" dur="0.716s" fill="freeze" begin="0s;9c2d.click" /></path><path d="M14.72,44.89c0.23,0.46,0.23,0.77,0.36,1.35c1.02,4.72,2.11,17.14,2.75,25.95" stroke-dasharray="27.511" stroke-dashoffset="27.511"><animate attributeName="stroke-dashoffset" values="27.511" fill="freeze" begin="9c2d.click" /><animate attributeName="stroke-dashoffset" values="27.511;27.511;0" keyTimes="0;0.723;1" dur="0.991s" fill="freeze" begin="0s;9c2d.click" /></path><path d="M15.78,46.52c7.92-1.19,22.01-3.21,27.92-4.21c2.17-0.37,3.29,0.93,3.17,2.23c-0.41,4.76-2.29,16.26-4.03,25.17" stroke-dasharray="58.27" stroke-dashoffset="58.27"><animate attributeName="stroke-dashoffset" values="58.27" fill="freeze" begin="9c2d.click" /><animate attributeName="stroke-dashoffset" values="58.27;58.27;0" keyTimes="0;0.63;1" dur="1.574s" fill="freeze" begin="0s;9c2d.click" /></path><path d="M29.56,44.23c0.9,0.59,1.58,2.51,1.61,4.04c0.12,6.73,0.03,16.27,0.03,19.6" stroke-dasharray="24.078" stroke-dashoffset="24.078"><animate attributeName="stroke-dashoffset" values="24.078" fill="freeze" begin="9c2d.click" /><animate attributeName="stroke-dashoffset" values="24.078;24.078;0" keyTimes="0;0.867;1" dur="1.815s" fill="freeze" begin="0s;9c2d.click" /></path><path d="M17.76,57.73c2.58-0.46,25.26-2.87,27.39-3.06" stroke-dasharray="27.563" stroke-dashoffset="27.563"><animate attributeName="stroke-dashoffset" values="27.563" fill="freeze" begin="9c2d.click" /><animate attributeName="stroke-dashoffset" values="27.563;27.563;0" keyTimes="0;0.868;1" dur="2.091s" fill="freeze" begin="0s;9c2d.click" /></path><path d="M18.23,70.4c5.71-0.51,17.61-1.62,25.49-2.45" stroke-dasharray="25.609" stroke-dashoffset="25.609"><animate attributeName="stroke-dashoffset" values="25.609" fill="freeze" begin="9c2d.click" /><animate attributeName="stroke-dashoffset" values="25.609;25.609;0" keyTimes="0;0.891;1" dur="2.347s" fill="freeze" begin="0s;9c2d.click" /></path><path d="M16.48,81.07c0,6.13-3.1,15.18-3.91,16.93" stroke-dasharray="17.462" stroke-dashoffset="17.462"><animate attributeName="stroke-dashoffset" values="17.462" fill="freeze" begin="9c2d.click" /><animate attributeName="stroke-dashoffset" values="17.462;17.462;0" keyTimes="0;0.931;1" dur="2.522s" fill="freeze" begin="0s;9c2d.click" /></path><path d="M23.76,79.33c1.42,2.93,2.76,10.99,3.11,15.54" stroke-dasharray="15.903" stroke-dashoffset="15.903"><animate attributeName="stroke-dashoffset" values="15.903" fill="freeze" begin="9c2d.click" /><animate attributeName="stroke-dashoffset" values="15.903;15.903;0" keyTimes="0;0.941;1" dur="2.681s" fill="freeze" begin="0s;9c2d.click" /></path><path d="M33.48,78.19c1.54,2.46,3.97,10.13,4.36,13.96" stroke-dasharray="14.694" stroke-dashoffset="14.694"><animate attributeName="stroke-dashoffset" values="14.694" fill="freeze" begin="9c2d.click" /><animate attributeName="stroke-dashoffset" values="14.694;14.694;0" keyTimes="0;0.901;1" dur="2.975s" fill="freeze" begin="0s;9c2d.click" /></path><path d="M42.55,77.12c2.28,2.39,5.88,9.82,6.45,13.53" stroke-dasharray="15.12" stroke-dashoffset="15.12"><animate attributeName="stroke-dashoffset" values="15.12" fill="freeze" begin="9c2d.click" /><animate attributeName="stroke-dashoffset" values="15.12;15.12;0" keyTimes="0;0.952;1" dur="3.126s" fill="freeze" begin="0s;9c2d.click" /></path><path d="M54.36,24.72c0.63,0.21,1.78,0.23,2.41,0.21c7.16-0.33,14-1.72,20.05-2.17c1.05-0.08,1.68,0.1,2.21,0.2" stroke-dasharray="24.831" stroke-dashoffset="24.831"><animate attributeName="stroke-dashoffset" values="24.831" fill="freeze" begin="9c2d.click" /><animate attributeName="stroke-dashoffset" values="24.831;24.831;0" keyTimes="0;0.926;1" dur="3.374s" fill="freeze" begin="0s;9c2d.click" /></path><path d="M66.68,12.37c0.1,0.18,1.35,0.96,1.44,2.13c0.46,5.61,0.25,19.95,0.25,21.86" stroke-dasharray="24.507" stroke-dashoffset="24.507"><animate attributeName="stroke-dashoffset" values="24.507" fill="freeze" begin="9c2d.click" /><animate attributeName="stroke-dashoffset" values="24.507;24.507;0" keyTimes="0;0.932;1" dur="3.619s" fill="freeze" begin="0s;9c2d.click" /></path><path d="M48.75,38.04c1.28,0.43,3.64,0.68,4.9,0.43c8.85-1.72,25.6-4.97,38.01-6.01c2.12-0.18,3.41,0.21,4.47,0.43" stroke-dasharray="47.971" stroke-dashoffset="47.971"><animate attributeName="stroke-dashoffset" values="47.971" fill="freeze" begin="9c2d.click" /><animate attributeName="stroke-dashoffset" values="47.971;47.971;0" keyTimes="0;0.883;1" dur="4.099s" fill="freeze" begin="0s;9c2d.click" /></path><path d="M88.16,16.13c0.1,0.79,0.53,2.25-0.19,3.19C78.74,31.42,67.63,44.2,52.3,53.46" stroke-dasharray="52.972" stroke-dashoffset="52.972"><animate attributeName="stroke-dashoffset" values="52.972" fill="freeze" begin="9c2d.click" /><animate attributeName="stroke-dashoffset" values="52.972;52.972;0" keyTimes="0;0.886;1" dur="4.629s" fill="freeze" begin="0s;9c2d.click" /></path><path d="M85.69,40.25c0.25,0.35,0.39,1.34-0.24,1.93c-4.7,4.32-8.45,6.07-17.23,11.09" stroke-dasharray="22.635" stroke-dashoffset="22.635"><animate attributeName="stroke-dashoffset" values="22.635" fill="freeze" begin="9c2d.click" /><animate attributeName="stroke-dashoffset" values="22.635;22.635;0" keyTimes="0;0.953;1" dur="4.855s" fill="freeze" begin="0s;9c2d.click" /></path><path d="M66.84,46.17c0.58,0.36,0.62,0.59,0.81,1.07c0.19,0.47,0.19,6.38,0.19,7.87c0,6.39,7.71,5.22,14.28,5.22c7.16,0,12.78-0.58,12.81-5.64" stroke-dasharray="42.135" stroke-dashoffset="42.135"><animate attributeName="stroke-dashoffset" values="42.135" fill="freeze" begin="9c2d.click" /><animate attributeName="stroke-dashoffset" values="42.135;42.135;0" keyTimes="0;0.92;1" dur="5.276s" fill="freeze" begin="0s;9c2d.click" /></path><path d="M57,69.6c0.32,0.74,1.06,2.05,1.06,3.04c0,0.99,2.38,23.88,2.48,24.86" stroke-dasharray="28.228" stroke-dashoffset="28.228"><animate attributeName="stroke-dashoffset" values="28.228" fill="freeze" begin="9c2d.click" /><animate attributeName="stroke-dashoffset" values="28.228;28.228;0" keyTimes="0;0.949;1" dur="5.558s" fill="freeze" begin="0s;9c2d.click" /></path><path d="M58.59,71.14c1.82-0.12,28.04-3,29.7-3.14c1.38-0.12,2.27,1.37,2.16,2.1c-0.22,1.48-3.41,24.71-3.41,25.45" stroke-dasharray="58.914" stroke-dashoffset="58.914"><animate attributeName="stroke-dashoffset" values="58.914" fill="freeze" begin="9c2d.click" /><animate attributeName="stroke-dashoffset" values="58.914;58.914;0" keyTimes="0;0.904;1" dur="6.147s" fill="freeze" begin="0s;9c2d.click" /></path><path d="M59.32,82.14c2.46,0,26.76-2.18,29.54-2.18" stroke-dasharray="29.623" stroke-dashoffset="29.623"><animate attributeName="stroke-dashoffset" values="29.623" fill="freeze" begin="9c2d.click" /><animate attributeName="stroke-dashoffset" values="29.623;29.623;0" keyTimes="0;0.954;1" dur="6.443s" fill="freeze" begin="0s;9c2d.click" /></path><path d="M61.69,94.73c5.01-0.53,18.36-1,24.6-1.46" stroke-dasharray="24.646" stroke-dashoffset="24.646"><animate attributeName="stroke-dashoffset" values="24.646" fill="freeze" begin="9c2d.click" /><animate attributeName="stroke-dashoffset" values="24.646;24.646;0" keyTimes="0;0.963;1" dur="6.689s" fill="freeze" begin="0s;9c2d.click" /></path></g></svg>