<svg xmlns="http://www.w3.org/2000/svg" width="109" height="109" viewBox="0 0 109 109" id="9c5a"><g fill="none" stroke="#666" stroke-width="9" stroke-linecap="round" stroke-linejoin="round"><g><g><g><path d="M26.99,12.75c0.04,0.56,0.09,1.45-0.08,2.26c-1,4.76-6.77,15.21-14.67,21.61" /><path d="M24.39,22.38c1.93,0,13.82-2.44,15.85-2.73c1.74-0.25,2.13,2.17,1.41,3.4c-3.05,5.19-7.98,10.16-12.95,18.4" /></g><g><g><path d="M14,41.87c0.22,0.5,0.22,0.83,0.34,1.45c0.98,5.06,1.99,18.24,2.58,27.57" /><path d="M15.02,43.68c7.69-0.57,21.35-2.54,27.09-3.08c2.11-0.2,3.18,1.26,3.07,2.62c-0.41,4.98-1.79,18.03-3.51,27.27" /><path d="M28.39,42.45c0.87,0.7,1.53,2.78,1.55,4.39c0.1,7.1-0.03,17.14-0.04,20.65" /><path d="M16.91,55.66c2.5-0.27,24.5-1.9,26.57-1.92" /><path d="M17.33,68.52c5.53-0.04,17.08-1.25,24.72-1.44" /></g><g><path d="M13.89,80.32c0,5.14-2.36,12.71-2.98,14.18" /><path d="M22.39,79.83c1.08,2.55,2.1,9.57,2.37,13.54" /><path d="M30.84,77.69c1.9,2.37,4.92,9.77,5.4,13.46" /><path d="M40.8,76.12c2.01,1.68,5.2,6.92,5.7,9.53" /></g></g></g><g><g><g><path d="M51.36,23.15c1.15,0.36,3.25,0.33,4.4,0.21c11.94-1.21,22.7-3.12,36.17-3.61c1.91-0.07,3.06,0.06,4.02,0.23" /><path d="M70.28,11.26c1.15,0.49,1.85,2.39,2.08,3.48c0.23,1.09,0.01,9.66-0.22,16.58" /><path d="M56.38,32.97c0.91,0.21,2.58,0.16,3.5,0.11c5.62-0.33,18.62-1.83,26.49-2.24c1.52-0.08,2.43,0.02,3.2,0.12" /></g><g><path d="M56.82,40.23c0.3,0.23,0.61,0.41,0.74,0.69c1.04,2.22,2.29,8.34,3,12.33" /><path d="M58.69,41.41c7.35-0.93,25.22-2.57,29.01-2.88c1.39-0.11,2.22,1.16,2.02,1.83c-0.82,2.79-1.38,4.73-3.14,8.76" /><path d="M60.85,51.78c4.45-0.35,21.85-1.96,27.5-2.31" /></g></g><g><path d="M58.68,56.94c2.1,1.41,5.42,5.78,5.94,7.97" /><path d="M84.25,54.71c0.01,0.24,0.03,0.62-0.03,0.97c-0.32,2.04-2.13,6.51-4.61,9.25" /><path d="M48.1,68.31c1.17,0.5,3.32,0.54,4.5,0.5c9.15-0.31,29.35-2.12,42.44-2.8c1.95-0.1,3.13,0.24,4.11,0.49" /><g><path d="M57.58,77.25c0.36,0.32,0.73,0.59,0.88,0.99c1.25,3.18,2.97,13.5,3.82,19.22" /><path d="M59.82,78.44c8.81-1.33,22.8-2.19,27.34-2.64c1.66-0.16,2.66,1.66,2.42,2.63c-0.99,4.01-1.65,7.91-3.76,13.69" /><path d="M62.64,94.86c5.34-0.51,18.53-1.22,25.31-1.73" /></g></g></g></g></g><g fill="none" stroke="#000" stroke-width="5" stroke-linecap="round" stroke-linejoin="round"><g><g><g><path d="M26.99,12.75c0.04,0.56,0.09,1.45-0.08,2.26c-1,4.76-6.77,15.21-14.67,21.61" stroke-dasharray="28.75" stroke-dashoffset="28.75"><animate id="0" attributeName="stroke-dashoffset" values="28.75;0" dur="0.29s" fill="freeze" begin="0s;9c5a.click" /></path><path d="M24.39,22.38c1.93,0,13.82-2.44,15.85-2.73c1.74-0.25,2.13,2.17,1.41,3.4c-3.05,5.19-7.98,10.16-12.95,18.4" stroke-dasharray="43.12" stroke-dashoffset="43.12"><animate attributeName="stroke-dashoffset" values="43.12" fill="freeze" begin="9c5a.click" /><animate id="1" attributeName="stroke-dashoffset" values="43.12;0" dur="0.43s" fill="freeze" begin="0.end" /></path></g><g><g><path d="M14,41.87c0.22,0.5,0.22,0.83,0.34,1.45c0.98,5.06,1.99,18.24,2.58,27.57" stroke-dasharray="29.2" stroke-dashoffset="29.2"><animate attributeName="stroke-dashoffset" values="29.2" fill="freeze" begin="9c5a.click" /><animate id="2" attributeName="stroke-dashoffset" values="29.2;0" dur="0.29s" fill="freeze" begin="1.end" /></path><path d="M15.02,43.68c7.69-0.57,21.35-2.54,27.09-3.08c2.11-0.2,3.18,1.26,3.07,2.62c-0.41,4.98-1.79,18.03-3.51,27.27" stroke-dasharray="59.42" stroke-dashoffset="59.42"><animate attributeName="stroke-dashoffset" values="59.42" fill="freeze" begin="9c5a.click" /><animate id="3" attributeName="stroke-dashoffset" values="59.42;0" dur="0.59s" fill="freeze" begin="2.end" /></path><path d="M28.39,42.45c0.87,0.7,1.53,2.78,1.55,4.39c0.1,7.1-0.03,17.14-0.04,20.65" stroke-dasharray="25.41" stroke-dashoffset="25.41"><animate attributeName="stroke-dashoffset" values="25.41" fill="freeze" begin="9c5a.click" /><animate id="4" attributeName="stroke-dashoffset" values="25.41;0" dur="0.25s" fill="freeze" begin="3.end" /></path><path d="M16.91,55.66c2.5-0.27,24.5-1.9,26.57-1.92" stroke-dasharray="26.64" stroke-dashoffset="26.64"><animate attributeName="stroke-dashoffset" values="26.64" fill="freeze" begin="9c5a.click" /><animate id="5" attributeName="stroke-dashoffset" values="26.64;0" dur="0.27s" fill="freeze" begin="4.end" /></path><path d="M17.33,68.52c5.53-0.04,17.08-1.25,24.72-1.44" stroke-dasharray="24.76" stroke-dashoffset="24.76"><animate attributeName="stroke-dashoffset" values="24.76" fill="freeze" begin="9c5a.click" /><animate id="6" attributeName="stroke-dashoffset" values="24.76;0" dur="0.25s" fill="freeze" begin="5.end" /></path></g><g><path d="M13.89,80.32c0,5.14-2.36,12.71-2.98,14.18" stroke-dasharray="14.55" stroke-dashoffset="14.55"><animate attributeName="stroke-dashoffset" values="14.55" fill="freeze" begin="9c5a.click" /><animate id="7" attributeName="stroke-dashoffset" values="14.55;0" dur="0.15s" fill="freeze" begin="6.end" /></path><path d="M22.39,79.83c1.08,2.55,2.1,9.57,2.37,13.54" stroke-dasharray="13.78" stroke-dashoffset="13.78"><animate attributeName="stroke-dashoffset" values="13.78" fill="freeze" begin="9c5a.click" /><animate id="8" attributeName="stroke-dashoffset" values="13.78;0" dur="0.14s" fill="freeze" begin="7.end" /></path><path d="M30.84,77.69c1.9,2.37,4.92,9.77,5.4,13.46" stroke-dasharray="14.6" stroke-dashoffset="14.6"><animate attributeName="stroke-dashoffset" values="14.6" fill="freeze" begin="9c5a.click" /><animate id="9" attributeName="stroke-dashoffset" values="14.6;0" dur="0.15s" fill="freeze" begin="8.end" /></path><path d="M40.8,76.12c2.01,1.68,5.2,6.92,5.7,9.53" stroke-dasharray="11.23" stroke-dashoffset="11.23"><animate attributeName="stroke-dashoffset" values="11.23" fill="freeze" begin="9c5a.click" /><animate id="10" attributeName="stroke-dashoffset" values="11.23;0" dur="0.11s" fill="freeze" begin="9.end" /></path></g></g></g><g><g><g><path d="M51.36,23.15c1.15,0.36,3.25,0.33,4.4,0.21c11.94-1.21,22.7-3.12,36.17-3.61c1.91-0.07,3.06,0.06,4.02,0.23" stroke-dasharray="44.82" stroke-dashoffset="44.82"><animate attributeName="stroke-dashoffset" values="44.82" fill="freeze" begin="9c5a.click" /><animate id="11" attributeName="stroke-dashoffset" values="44.82;0" dur="0.45s" fill="freeze" begin="10.end" /></path><path d="M70.28,11.26c1.15,0.49,1.85,2.39,2.08,3.48c0.23,1.09,0.01,9.66-0.22,16.58" stroke-dasharray="20.77" stroke-dashoffset="20.77"><animate attributeName="stroke-dashoffset" values="20.77" fill="freeze" begin="9c5a.click" /><animate id="12" attributeName="stroke-dashoffset" values="20.77;0" dur="0.21s" fill="freeze" begin="11.end" /></path><path d="M56.38,32.97c0.91,0.21,2.58,0.16,3.5,0.11c5.62-0.33,18.62-1.83,26.49-2.24c1.52-0.08,2.43,0.02,3.2,0.12" stroke-dasharray="33.3" stroke-dashoffset="33.3"><animate attributeName="stroke-dashoffset" values="33.3" fill="freeze" begin="9c5a.click" /><animate id="13" attributeName="stroke-dashoffset" values="33.3;0" dur="0.33s" fill="freeze" begin="12.end" /></path></g><g><path d="M56.82,40.23c0.3,0.23,0.61,0.41,0.74,0.69c1.04,2.22,2.29,8.34,3,12.33" stroke-dasharray="13.73" stroke-dashoffset="13.73"><animate attributeName="stroke-dashoffset" values="13.73" fill="freeze" begin="9c5a.click" /><animate id="14" attributeName="stroke-dashoffset" values="13.73;0" dur="0.14s" fill="freeze" begin="13.end" /></path><path d="M58.69,41.41c7.35-0.93,25.22-2.57,29.01-2.88c1.39-0.11,2.22,1.16,2.02,1.83c-0.82,2.79-1.38,4.73-3.14,8.76" stroke-dasharray="41.58" stroke-dashoffset="41.58"><animate attributeName="stroke-dashoffset" values="41.58" fill="freeze" begin="9c5a.click" /><animate id="15" attributeName="stroke-dashoffset" values="41.58;0" dur="0.42s" fill="freeze" begin="14.end" /></path><path d="M60.85,51.78c4.45-0.35,21.85-1.96,27.5-2.31" stroke-dasharray="27.6" stroke-dashoffset="27.6"><animate attributeName="stroke-dashoffset" values="27.6" fill="freeze" begin="9c5a.click" /><animate id="16" attributeName="stroke-dashoffset" values="27.6;0" dur="0.28s" fill="freeze" begin="15.end" /></path></g></g><g><path d="M58.68,56.94c2.1,1.41,5.42,5.78,5.94,7.97" stroke-dasharray="10.07" stroke-dashoffset="10.07"><animate attributeName="stroke-dashoffset" values="10.07" fill="freeze" begin="9c5a.click" /><animate id="17" attributeName="stroke-dashoffset" values="10.07;0" dur="0.1s" fill="freeze" begin="16.end" /></path><path d="M84.25,54.71c0.01,0.24,0.03,0.62-0.03,0.97c-0.32,2.04-2.13,6.51-4.61,9.25" stroke-dasharray="11.41" stroke-dashoffset="11.41"><animate attributeName="stroke-dashoffset" values="11.41" fill="freeze" begin="9c5a.click" /><animate id="18" attributeName="stroke-dashoffset" values="11.41;0" dur="0.11s" fill="freeze" begin="17.end" /></path><path d="M48.1,68.31c1.17,0.5,3.32,0.54,4.5,0.5c9.15-0.31,29.35-2.12,42.44-2.8c1.95-0.1,3.13,0.24,4.11,0.49" stroke-dasharray="51.25" stroke-dashoffset="51.25"><animate attributeName="stroke-dashoffset" values="51.25" fill="freeze" begin="9c5a.click" /><animate id="19" attributeName="stroke-dashoffset" values="51.25;0" dur="0.51s" fill="freeze" begin="18.end" /></path><g><path d="M57.58,77.25c0.36,0.32,0.73,0.59,0.88,0.99c1.25,3.18,2.97,13.5,3.82,19.22" stroke-dasharray="20.96" stroke-dashoffset="20.96"><animate attributeName="stroke-dashoffset" values="20.96" fill="freeze" begin="9c5a.click" /><animate id="20" attributeName="stroke-dashoffset" values="20.96;0" dur="0.21s" fill="freeze" begin="19.end" /></path><path d="M59.82,78.44c8.81-1.33,22.8-2.19,27.34-2.64c1.66-0.16,2.66,1.66,2.42,2.63c-0.99,4.01-1.65,7.91-3.76,13.69" stroke-dasharray="45.76" stroke-dashoffset="45.76"><animate attributeName="stroke-dashoffset" values="45.76" fill="freeze" begin="9c5a.click" /><animate id="21" attributeName="stroke-dashoffset" values="45.76;0" dur="0.46s" fill="freeze" begin="20.end" /></path><path d="M62.64,94.86c5.34-0.51,18.53-1.22,25.31-1.73" stroke-dasharray="25.37" stroke-dashoffset="25.37"><animate attributeName="stroke-dashoffset" values="25.37" fill="freeze" begin="9c5a.click" /><animate id="22" attributeName="stroke-dashoffset" values="25.37;0" dur="0.25s" fill="freeze" begin="21.end" /></path></g></g></g></g></g></svg>