<svg xmlns="http://www.w3.org/2000/svg" width="109" height="109" viewBox="0 0 109 109" id="9cec"><g fill="none" stroke="#666" stroke-width="9" stroke-linecap="round" stroke-linejoin="round"><g><g p4:partial xmlns:p4="http://kanjivg.tagaini.net"><path d="M50.22,8.68c0.02,0.25,0.04,0.64-0.04,0.99c-0.51,2.09-3.43,6.69-7.43,9.5" /><path d="M31.13,20.35c0.46,0.31,0.82,1.75,0.82,2.29c0,5.54,0.05,26.32-0.23,35.04" /><path d="M32.52,21.81c2.13-0.08,32.61-3.27,34.67-3.03c1.82,0.22,3.44,1.45,3.29,2.91C70.25,24,69.5,31.75,68.25,38.65" /><path d="M32.86,29.72c2.61,0,33.42-2.74,36.37-2.74" /><path d="M32.74,39.56c5.31-0.31,28.87-2.32,35.48-2.59" /><path d="M32.03,48.04c13.4-1.09,44.65-3.8,50.42-4.13c2.79-0.16,5.41,0.05,6.42,0.21" /><path d="M31.73,57.85c12.48-1.74,47.85-4.2,54.77-4.85c4.5-0.42,5.31,1.45,4.5,4.3c-2.25,7.93-4.32,14.82-8,19.86c-3.5,4.8-6.5,1.83-8.5-1.79" /></g><g><g><path d="M36.51,67.77c0.66,0.9,1.11,2.11,1.11,3.24c0,10.31-3.67,24.9-20.87,30.49" /></g><path d="M37.67,70.06c2.88-0.67,14.58-2.56,17.8-3.08c2.37-0.38,4.79,0.67,4.22,4.03c-0.58,3.36,0.15,17.25,0.12,19.71c-0.06,4.78,3.44,7.89,15.4,7.89c14.04,0,17.36-4.08,17.36-9.23" /></g></g></g><g fill="none" stroke="#000" stroke-width="5" stroke-linecap="round" stroke-linejoin="round"><path d="M50.22,8.68c0.02,0.25,0.04,0.64-0.04,0.99c-0.51,2.09-3.43,6.69-7.43,9.5" stroke-dasharray="13.24" stroke-dashoffset="13.24"><animate attributeName="stroke-dashoffset" values="13.24;13.24;0" dur="0.132s" fill="freeze" begin="0s;9cec.click" /></path><path d="M31.13,20.35c0.46,0.31,0.82,1.75,0.82,2.29c0,5.54,0.05,26.32-0.23,35.04" stroke-dasharray="37.526" stroke-dashoffset="37.526"><animate attributeName="stroke-dashoffset" values="37.526" fill="freeze" begin="9cec.click" /><animate attributeName="stroke-dashoffset" values="37.526;37.526;0" keyTimes="0;0.26;1" dur="0.507s" fill="freeze" begin="0s;9cec.click" /></path><path d="M32.52,21.81c2.13-0.08,32.61-3.27,34.67-3.03c1.82,0.22,3.44,1.45,3.29,2.91C70.25,24,69.5,31.75,68.25,38.65" stroke-dasharray="56.748" stroke-dashoffset="56.748"><animate attributeName="stroke-dashoffset" values="56.748" fill="freeze" begin="9cec.click" /><animate attributeName="stroke-dashoffset" values="56.748;56.748;0" keyTimes="0;0.472;1" dur="1.074s" fill="freeze" begin="0s;9cec.click" /></path><path d="M32.86,29.72c2.61,0,33.42-2.74,36.37-2.74" stroke-dasharray="36.476" stroke-dashoffset="36.476"><animate attributeName="stroke-dashoffset" values="36.476" fill="freeze" begin="9cec.click" /><animate attributeName="stroke-dashoffset" values="36.476;36.476;0" keyTimes="0;0.746;1" dur="1.439s" fill="freeze" begin="0s;9cec.click" /></path><path d="M32.74,39.56c5.31-0.31,28.87-2.32,35.48-2.59" stroke-dasharray="35.576" stroke-dashoffset="35.576"><animate attributeName="stroke-dashoffset" values="35.576" fill="freeze" begin="9cec.click" /><animate attributeName="stroke-dashoffset" values="35.576;35.576;0" keyTimes="0;0.802;1" dur="1.795s" fill="freeze" begin="0s;9cec.click" /></path><path d="M32.03,48.04c13.4-1.09,44.65-3.8,50.42-4.13c2.79-0.16,5.41,0.05,6.42,0.21" stroke-dasharray="57.023" stroke-dashoffset="57.023"><animate attributeName="stroke-dashoffset" values="57.023" fill="freeze" begin="9cec.click" /><animate attributeName="stroke-dashoffset" values="57.023;57.023;0" keyTimes="0;0.759;1" dur="2.365s" fill="freeze" begin="0s;9cec.click" /></path><path d="M31.73,57.85c12.48-1.74,47.85-4.2,54.77-4.85c4.5-0.42,5.31,1.45,4.5,4.3c-2.25,7.93-4.32,14.82-8,19.86c-3.5,4.8-6.5,1.83-8.5-1.79" stroke-dasharray="95.885" stroke-dashoffset="95.885"><animate attributeName="stroke-dashoffset" values="95.885" fill="freeze" begin="9cec.click" /><animate attributeName="stroke-dashoffset" values="95.885;95.885;0" keyTimes="0;0.766;1" dur="3.086s" fill="freeze" begin="0s;9cec.click" /></path><path d="M36.51,67.77c0.66,0.9,1.11,2.11,1.11,3.24c0,10.31-3.67,24.9-20.87,30.49" stroke-dasharray="43.291" stroke-dashoffset="43.291"><animate attributeName="stroke-dashoffset" values="43.291" fill="freeze" begin="9cec.click" /><animate attributeName="stroke-dashoffset" values="43.291;43.291;0" keyTimes="0;0.877;1" dur="3.519s" fill="freeze" begin="0s;9cec.click" /></path><path d="M37.67,70.06c2.88-0.67,14.58-2.56,17.8-3.08c2.37-0.38,4.79,0.67,4.22,4.03c-0.58,3.36,0.15,17.25,0.12,19.71c-0.06,4.78,3.44,7.89,15.4,7.89c14.04,0,17.36-4.08,17.36-9.23" stroke-dasharray="86.473" stroke-dashoffset="86.473"><animate attributeName="stroke-dashoffset" values="86.473" fill="freeze" begin="9cec.click" /><animate attributeName="stroke-dashoffset" values="86.473;86.473;0" keyTimes="0;0.844;1" dur="4.169s" fill="freeze" begin="0s;9cec.click" /></path></g></svg>