<svg xmlns="http://www.w3.org/2000/svg" width="109" height="109" viewBox="0 0 109 109" id="9d12"><g fill="none" stroke="#666" stroke-width="9" stroke-linecap="round" stroke-linejoin="round"><g><g><g><path d="M33.15,13c0.07,0.95,0.3,2.5-0.14,3.83c-2.76,8.4-11.51,25.56-21.76,35.76" /><path d="M32.67,20.04c7.64,2.9,17.07,12.28,19.14,18.05" /></g><g><g><path d="M28.45,40.83c3.7,1.74,9.57,7.17,10.49,9.88" /></g><g><path d="M14.69,58.87c1.07,0.88,3.33,1.31,4.55,1.08c2.41-0.44,25.25-4.31,27.79-4.75c2.54-0.44,3.18,1.04,1.35,3.38c-4.28,5.48-16.07,20.99-17.68,22.75" /><path d="M20.75,72.4c4.23,2.83,15.18,13.7,17.17,21.1" /></g></g></g><g><path d="M70.54,11.16c0.02,0.3,0.04,0.79-0.04,1.21c-0.48,2.52-3.2,7.93-6.92,11.08" /><path d="M57.8,23.42c0.33,0.43,1.1,2.02,1.1,2.73c0,7.23,0.04,32.01-0.17,43.38" /><path d="M59.31,25.75c1.55,0,22-3.17,23.51-3.06c2.24,0.16,3.33,2.15,3.13,4.02c-0.12,1.15-1.64,13.19-3.08,21.96" /><path d="M59.56,36.08c1.9,0.13,22.6-2.74,24.75-2.59" /><path d="M59.47,48.12c3.88-0.14,18.55-2.48,23.38-2.5" /><path d="M59.69,58.86c8.18-0.84,26.29-2.86,29.8-3.38c1.22-0.19,3.3-0.35,3.92-0.11" /><path d="M58.74,69.75c9.1-1.63,27.13-3.42,32.17-3.9c3.28-0.31,4.97,0.89,4.38,4.57C93.65,80.66,92.25,88,87.86,94.67c-3.81,5.8-6.47,1.04-7.8-0.24" /><g><path d="M52.77,78.98c0.62,5.58-0.95,12.77-2.78,16.19" /><path d="M59.57,78.49c1.95,2.62,3.8,9.52,4.29,13.37" /><path d="M68.99,77.04c1.76,1.83,4.54,7.32,4.98,10.01" /><path d="M78.16,75.73c1.89,1.67,4.88,6.69,5.36,9.14" /></g></g></g></g><g fill="none" stroke="#000" stroke-width="5" stroke-linecap="round" stroke-linejoin="round"><g><g><g><path d="M33.15,13c0.07,0.95,0.3,2.5-0.14,3.83c-2.76,8.4-11.51,25.56-21.76,35.76" stroke-dasharray="46.02" stroke-dashoffset="46.02"><animate id="0" attributeName="stroke-dashoffset" values="46.02;0" dur="0.46s" fill="freeze" begin="0s;9d12.click" /></path><path d="M32.67,20.04c7.64,2.9,17.07,12.28,19.14,18.05" stroke-dasharray="26.86" stroke-dashoffset="26.86"><animate attributeName="stroke-dashoffset" values="26.86" fill="freeze" begin="9d12.click" /><animate id="1" attributeName="stroke-dashoffset" values="26.86;0" dur="0.27s" fill="freeze" begin="0.end" /></path></g><g><g><path d="M28.45,40.83c3.7,1.74,9.57,7.17,10.49,9.88" stroke-dasharray="14.62" stroke-dashoffset="14.62"><animate attributeName="stroke-dashoffset" values="14.62" fill="freeze" begin="9d12.click" /><animate id="2" attributeName="stroke-dashoffset" values="14.62;0" dur="0.15s" fill="freeze" begin="1.end" /></path></g><g><path d="M14.69,58.87c1.07,0.88,3.33,1.31,4.55,1.08c2.41-0.44,25.25-4.31,27.79-4.75c2.54-0.44,3.18,1.04,1.35,3.38c-4.28,5.48-16.07,20.99-17.68,22.75" stroke-dasharray="67.4" stroke-dashoffset="67.4"><animate attributeName="stroke-dashoffset" values="67.4" fill="freeze" begin="9d12.click" /><animate id="3" attributeName="stroke-dashoffset" values="67.4;0" dur="0.51s" fill="freeze" begin="2.end" /></path><path d="M20.75,72.4c4.23,2.83,15.18,13.7,17.17,21.1" stroke-dasharray="27.56" stroke-dashoffset="27.56"><animate attributeName="stroke-dashoffset" values="27.56" fill="freeze" begin="9d12.click" /><animate id="4" attributeName="stroke-dashoffset" values="27.56;0" dur="0.28s" fill="freeze" begin="3.end" /></path></g></g></g><g><path d="M70.54,11.16c0.02,0.3,0.04,0.79-0.04,1.21c-0.48,2.52-3.2,7.93-6.92,11.08" stroke-dasharray="14.46" stroke-dashoffset="14.46"><animate attributeName="stroke-dashoffset" values="14.46" fill="freeze" begin="9d12.click" /><animate id="5" attributeName="stroke-dashoffset" values="14.46;0" dur="0.14s" fill="freeze" begin="4.end" /></path><path d="M57.8,23.42c0.33,0.43,1.1,2.02,1.1,2.73c0,7.23,0.04,32.01-0.17,43.38" stroke-dasharray="46.35" stroke-dashoffset="46.35"><animate attributeName="stroke-dashoffset" values="46.35" fill="freeze" begin="9d12.click" /><animate id="6" attributeName="stroke-dashoffset" values="46.35;0" dur="0.46s" fill="freeze" begin="5.end" /></path><path d="M59.31,25.75c1.55,0,22-3.17,23.51-3.06c2.24,0.16,3.33,2.15,3.13,4.02c-0.12,1.15-1.64,13.19-3.08,21.96" stroke-dasharray="51.61" stroke-dashoffset="51.61"><animate attributeName="stroke-dashoffset" values="51.61" fill="freeze" begin="9d12.click" /><animate id="7" attributeName="stroke-dashoffset" values="51.61;0" dur="0.52s" fill="freeze" begin="6.end" /></path><path d="M59.56,36.08c1.9,0.13,22.6-2.74,24.75-2.59" stroke-dasharray="24.89" stroke-dashoffset="24.89"><animate attributeName="stroke-dashoffset" values="24.89" fill="freeze" begin="9d12.click" /><animate id="8" attributeName="stroke-dashoffset" values="24.89;0" dur="0.25s" fill="freeze" begin="7.end" /></path><path d="M59.47,48.12c3.88-0.14,18.55-2.48,23.38-2.5" stroke-dasharray="23.52" stroke-dashoffset="23.52"><animate attributeName="stroke-dashoffset" values="23.52" fill="freeze" begin="9d12.click" /><animate id="9" attributeName="stroke-dashoffset" values="23.52;0" dur="0.24s" fill="freeze" begin="8.end" /></path><path d="M59.69,58.86c8.18-0.84,26.29-2.86,29.8-3.38c1.22-0.19,3.3-0.35,3.92-0.11" stroke-dasharray="33.94" stroke-dashoffset="33.94"><animate attributeName="stroke-dashoffset" values="33.94" fill="freeze" begin="9d12.click" /><animate id="10" attributeName="stroke-dashoffset" values="33.94;0" dur="0.34s" fill="freeze" begin="9.end" /></path><path d="M58.74,69.75c9.1-1.63,27.13-3.42,32.17-3.9c3.28-0.31,4.97,0.89,4.38,4.57C93.65,80.66,92.25,88,87.86,94.67c-3.81,5.8-6.47,1.04-7.8-0.24" stroke-dasharray="75.93" stroke-dashoffset="75.93"><animate attributeName="stroke-dashoffset" values="75.93" fill="freeze" begin="9d12.click" /><animate id="11" attributeName="stroke-dashoffset" values="75.93;0" dur="0.57s" fill="freeze" begin="10.end" /></path><g><path d="M52.77,78.98c0.62,5.58-0.95,12.77-2.78,16.19" stroke-dasharray="16.62" stroke-dashoffset="16.62"><animate attributeName="stroke-dashoffset" values="16.62" fill="freeze" begin="9d12.click" /><animate id="12" attributeName="stroke-dashoffset" values="16.62;0" dur="0.17s" fill="freeze" begin="11.end" /></path><path d="M59.57,78.49c1.95,2.62,3.8,9.52,4.29,13.37" stroke-dasharray="14.14" stroke-dashoffset="14.14"><animate attributeName="stroke-dashoffset" values="14.14" fill="freeze" begin="9d12.click" /><animate id="13" attributeName="stroke-dashoffset" values="14.14;0" dur="0.14s" fill="freeze" begin="12.end" /></path><path d="M68.99,77.04c1.76,1.83,4.54,7.32,4.98,10.01" stroke-dasharray="11.28" stroke-dashoffset="11.28"><animate attributeName="stroke-dashoffset" values="11.28" fill="freeze" begin="9d12.click" /><animate id="14" attributeName="stroke-dashoffset" values="11.28;0" dur="0.11s" fill="freeze" begin="13.end" /></path><path d="M78.16,75.73c1.89,1.67,4.88,6.69,5.36,9.14" stroke-dasharray="10.7" stroke-dashoffset="10.7"><animate attributeName="stroke-dashoffset" values="10.7" fill="freeze" begin="9d12.click" /><animate id="15" attributeName="stroke-dashoffset" values="10.7;0" dur="0.11s" fill="freeze" begin="14.end" /></path></g></g></g></g></svg>