<svg xmlns="http://www.w3.org/2000/svg" width="109" height="109" viewBox="0 0 109 109" id="9d28"><g fill="none" stroke="#666" stroke-width="9" stroke-linecap="round" stroke-linejoin="round"><g><g><g p5:partial xmlns:p5="http://kanjivg.tagaini.net"><path d="M11.5,22.49c0.88,0.88,1.38,2.04,1.47,2.84c0.86,7.84,1.78,17.64,2.7,28.05c0.18,2.09,0.37,4.22,0.55,6.37" /><path d="M13.69,24.37c8.22-1.4,20.54-2.6,26.96-3.27c3.55-0.37,4.79,1.29,4.48,4.78c-0.52,5.81-1.36,15.68-2.04,23.14c-0.3,3.27-0.56,6.08-0.75,7.87" /><path d="M15.48,40.18c7.64-1.06,22.63-2.37,27.41-2.8" /><path d="M17.14,56.96c8.11-1.08,15.82-2.1,24.13-2.72" /></g><g><path d="M27.36,24.44c1.16,1.16,1.44,2.28,1.44,4.06c-0.02,6.82,0.02,40.35,0.04,57.38c0.01,5.4,0.01,9.14,0.01,9.84" /></g></g><g><path d="M70.03,10.66c0.08,0.94-0.06,1.84-0.57,2.64c-1.84,2.95-3.72,5.07-7.88,8.9" /><path d="M57.55,24.17c0.76,0.76,0.98,1.91,0.85,2.95c0,6.43,0.02,20.75-0.06,32c-0.02,3.56-0.06,7.56-0.1,10.16" /><path d="M58.81,24.75c8.31-1.25,16.69-2.62,24.01-3.31c2.23-0.21,3.33,2.15,3.13,4.02c-0.1,0.9-1.02,6.98-1.89,13.68c-0.24,1.83-0.47,3.7-0.69,5.53" /><path d="M59.56,34.33c5.06-0.46,15.31-1.71,24.5-2.34" /><path d="M59.72,44.87c5.53-0.49,17.8-1.73,22.63-1.75" /><path d="M59.44,56.36c6.67-0.69,22.31-2.11,29.71-2.75c2.51-0.22,5-0.28,7.52-0.24" /><path d="M58.24,69.5c9.1-1.63,26.88-3.42,31.92-3.9c3.28-0.31,4.97,0.89,4.38,4.57c-1.66,10.37-3.92,17.57-7.68,23.75c-3.61,5.93-5.97,1.04-7.3-0.24" /><g><path d="M50.02,80.48c0.4,3.71-0.29,8.91-1.46,11.19" /><path d="M59.57,77.99c1.84,1.84,3.58,6.67,4.04,9.37" /><path d="M69.7,76.29c1.34,1.42,3.46,5.68,3.8,7.76" /><path d="M78.41,73.48c1.71,1.35,4.43,5.41,4.86,7.39" /></g></g></g></g><g fill="none" stroke="#000" stroke-width="5" stroke-linecap="round" stroke-linejoin="round"><g><g><g p5:partial xmlns:p5="http://kanjivg.tagaini.net"><path d="M11.5,22.49c0.88,0.88,1.38,2.04,1.47,2.84c0.86,7.84,1.78,17.64,2.7,28.05c0.18,2.09,0.37,4.22,0.55,6.37" stroke-dasharray="37.83" stroke-dashoffset="37.83"><animate id="0" attributeName="stroke-dashoffset" values="37.83;0" dur="0.38s" fill="freeze" begin="0s;9d28.click" /></path><path d="M13.69,24.37c8.22-1.4,20.54-2.6,26.96-3.27c3.55-0.37,4.79,1.29,4.48,4.78c-0.52,5.81-1.36,15.68-2.04,23.14c-0.3,3.27-0.56,6.08-0.75,7.87" stroke-dasharray="66.28" stroke-dashoffset="66.28"><animate attributeName="stroke-dashoffset" values="66.28" fill="freeze" begin="9d28.click" /><animate id="1" attributeName="stroke-dashoffset" values="66.28;0" dur="0.5s" fill="freeze" begin="0.end" /></path><path d="M15.48,40.18c7.64-1.06,22.63-2.37,27.41-2.8" stroke-dasharray="27.55" stroke-dashoffset="27.55"><animate attributeName="stroke-dashoffset" values="27.55" fill="freeze" begin="9d28.click" /><animate id="2" attributeName="stroke-dashoffset" values="27.55;0" dur="0.28s" fill="freeze" begin="1.end" /></path><path d="M17.14,56.96c8.11-1.08,15.82-2.1,24.13-2.72" stroke-dasharray="24.29" stroke-dashoffset="24.29"><animate attributeName="stroke-dashoffset" values="24.29" fill="freeze" begin="9d28.click" /><animate id="3" attributeName="stroke-dashoffset" values="24.29;0" dur="0.24s" fill="freeze" begin="2.end" /></path></g><g><path d="M27.36,24.44c1.16,1.16,1.44,2.28,1.44,4.06c-0.02,6.82,0.02,40.35,0.04,57.38c0.01,5.4,0.01,9.14,0.01,9.84" stroke-dasharray="71.67" stroke-dashoffset="71.67"><animate attributeName="stroke-dashoffset" values="71.67" fill="freeze" begin="9d28.click" /><animate id="4" attributeName="stroke-dashoffset" values="71.67;0" dur="0.54s" fill="freeze" begin="3.end" /></path></g></g><g><path d="M70.03,10.66c0.08,0.94-0.06,1.84-0.57,2.64c-1.84,2.95-3.72,5.07-7.88,8.9" stroke-dasharray="14.68" stroke-dashoffset="14.68"><animate attributeName="stroke-dashoffset" values="14.68" fill="freeze" begin="9d28.click" /><animate id="5" attributeName="stroke-dashoffset" values="14.68;0" dur="0.15s" fill="freeze" begin="4.end" /></path><path d="M57.55,24.17c0.76,0.76,0.98,1.91,0.85,2.95c0,6.43,0.02,20.75-0.06,32c-0.02,3.56-0.06,7.56-0.1,10.16" stroke-dasharray="45.34" stroke-dashoffset="45.34"><animate attributeName="stroke-dashoffset" values="45.34" fill="freeze" begin="9d28.click" /><animate id="6" attributeName="stroke-dashoffset" values="45.34;0" dur="0.45s" fill="freeze" begin="5.end" /></path><path d="M58.81,24.75c8.31-1.25,16.69-2.62,24.01-3.31c2.23-0.21,3.33,2.15,3.13,4.02c-0.1,0.9-1.02,6.98-1.89,13.68c-0.24,1.83-0.47,3.7-0.69,5.53" stroke-dasharray="49.46" stroke-dashoffset="49.46"><animate attributeName="stroke-dashoffset" values="49.46" fill="freeze" begin="9d28.click" /><animate id="7" attributeName="stroke-dashoffset" values="49.46;0" dur="0.49s" fill="freeze" begin="6.end" /></path><path d="M59.56,34.33c5.06-0.46,15.31-1.71,24.5-2.34" stroke-dasharray="24.61" stroke-dashoffset="24.61"><animate attributeName="stroke-dashoffset" values="24.61" fill="freeze" begin="9d28.click" /><animate id="8" attributeName="stroke-dashoffset" values="24.61;0" dur="0.25s" fill="freeze" begin="7.end" /></path><path d="M59.72,44.87c5.53-0.49,17.8-1.73,22.63-1.75" stroke-dasharray="22.7" stroke-dashoffset="22.7"><animate attributeName="stroke-dashoffset" values="22.7" fill="freeze" begin="9d28.click" /><animate id="9" attributeName="stroke-dashoffset" values="22.7;0" dur="0.23s" fill="freeze" begin="8.end" /></path><path d="M59.44,56.36c6.67-0.69,22.31-2.11,29.71-2.75c2.51-0.22,5-0.28,7.52-0.24" stroke-dasharray="37.36" stroke-dashoffset="37.36"><animate attributeName="stroke-dashoffset" values="37.36" fill="freeze" begin="9d28.click" /><animate id="10" attributeName="stroke-dashoffset" values="37.36;0" dur="0.37s" fill="freeze" begin="9.end" /></path><path d="M58.24,69.5c9.1-1.63,26.88-3.42,31.92-3.9c3.28-0.31,4.97,0.89,4.38,4.57c-1.66,10.37-3.92,17.57-7.68,23.75c-3.61,5.93-5.97,1.04-7.3-0.24" stroke-dasharray="74.91" stroke-dashoffset="74.91"><animate attributeName="stroke-dashoffset" values="74.91" fill="freeze" begin="9d28.click" /><animate id="11" attributeName="stroke-dashoffset" values="74.91;0" dur="0.56s" fill="freeze" begin="10.end" /></path><g><path d="M50.02,80.48c0.4,3.71-0.29,8.91-1.46,11.19" stroke-dasharray="11.4" stroke-dashoffset="11.4"><animate attributeName="stroke-dashoffset" values="11.4" fill="freeze" begin="9d28.click" /><animate id="12" attributeName="stroke-dashoffset" values="11.4;0" dur="0.11s" fill="freeze" begin="11.end" /></path><path d="M59.57,77.99c1.84,1.84,3.58,6.67,4.04,9.37" stroke-dasharray="10.31" stroke-dashoffset="10.31"><animate attributeName="stroke-dashoffset" values="10.31" fill="freeze" begin="9d28.click" /><animate id="13" attributeName="stroke-dashoffset" values="10.31;0" dur="0.1s" fill="freeze" begin="12.end" /></path><path d="M69.7,76.29c1.34,1.42,3.46,5.68,3.8,7.76" stroke-dasharray="8.71" stroke-dashoffset="8.71"><animate attributeName="stroke-dashoffset" values="8.71" fill="freeze" begin="9d28.click" /><animate id="14" attributeName="stroke-dashoffset" values="8.71;0" dur="0.09s" fill="freeze" begin="13.end" /></path><path d="M78.41,73.48c1.71,1.35,4.43,5.41,4.86,7.39" stroke-dasharray="8.94" stroke-dashoffset="8.94"><animate attributeName="stroke-dashoffset" values="8.94" fill="freeze" begin="9d28.click" /><animate id="15" attributeName="stroke-dashoffset" values="8.94;0" dur="0.09s" fill="freeze" begin="14.end" /></path></g></g></g></g></svg>