<svg xmlns="http://www.w3.org/2000/svg" viewBox="0 0 109 109" id="9d3e"><g fill="none" stroke="#666" stroke-width="6" stroke-linecap="round" stroke-linejoin="round"><g><g><g><path d="M30.78,11c0.32,0.46-0.08,2.18-0.32,2.72c-3.21,7.26-11.28,14.38-15.7,19.66c-1.4,1.67-1.38,2.25,0.65,1.67c5.47-1.57,22.34-5.11,29.69-6.56" /><path d="M39.88,21.85c3.12,2.07,8.05,8.5,8.83,11.72" /></g><g><path d="M21.56,44.79c0.02,0.45,0.04,1.15-0.04,1.8c-0.48,3.79-3.22,12.1-6.97,17.19" /><path d="M22.47,54.44c0.61,0.34,1.74,0.4,2.35,0.34c5.43-0.53,11.43-1.78,18.96-3.18c1.01-0.19,1.64,0.16,2.15,0.33" /><path d="M11.03,70.74c0.99,0.48,3.71,0.61,4.69,0.48c7.28-0.97,18.53-2.97,30.53-3.98c1.65-0.14,2.65,0.23,3.47,0.47" /><path d="M31.02,37.22c0.5,0.4,1.32,1.44,1.32,3.78c0,4.33-0.06,49.26-0.16,54.25" /></g></g><g><path d="M69.99,10.16c0.02,0.3,0.04,0.79-0.03,1.22c-0.42,2.53-2.81,7.95-6.08,11.1" /><path d="M57.34,23.93c0.36,0.42,0.64,0.98,0.64,1.66c0,6.93,0.04,34.05-0.18,44.95" /><path d="M58.42,25.2c1.66,0,21.43-3.03,23.04-2.93c2.39,0.15,3.56,2.06,3.34,3.85c-0.13,1.1-1.25,12.64-2.79,21.05" /><path d="M58.69,37.02c2.03,0.13,22.57-3.13,24.87-2.98" /><path d="M58.59,48.08c4.14-0.13,18.24-2.38,23.4-2.39" /><path d="M58.33,59.21c9.04-1.11,29.05-3.76,32.93-4.46c1.35-0.24,3.65-0.46,4.33-0.14" /><path d="M57.82,70.75c9.72-1.56,28.4-4.27,33.79-4.74c3.51-0.3,5.31,0.86,4.68,4.38c-1.75,9.81-3.36,18.62-6.4,24.66c-3.06,6.06-6.38,1-7.79-0.23" /><g><path d="M53.72,79.46c0.64,4.71-1.46,10.37-3.34,13.25" /><path d="M61.72,77.79c2.08,2.11,4.05,7.64,4.57,10.73" /><path d="M72.21,76.16c1.7,1.86,4.38,7.45,4.8,10.19" /><path d="M81.24,73.7c1.92,1.84,4.96,7.38,5.44,10.08" /></g></g></g></g><g fill="none" stroke="#000" stroke-width="3" stroke-linecap="round" stroke-linejoin="round"><path d="M30.78,11c0.32,0.46-0.08,2.18-0.32,2.72c-3.21,7.26-11.28,14.38-15.7,19.66c-1.4,1.67-1.38,2.25,0.65,1.67c5.47-1.57,22.34-5.11,29.69-6.56" stroke-dasharray="62.167" stroke-dashoffset="62.167"><animate attributeName="stroke-dashoffset" values="62.167;62.167;0" dur="0.467s" fill="freeze" begin="0s;9d3e.click" /></path><path d="M39.88,21.85c3.12,2.07,8.05,8.5,8.83,11.72" stroke-dasharray="14.87" stroke-dashoffset="14.87"><animate attributeName="stroke-dashoffset" values="14.87" fill="freeze" begin="9d3e.click" /><animate attributeName="stroke-dashoffset" values="14.87;14.87;0" keyTimes="0;0.758;1" dur="0.616s" fill="freeze" begin="0s;9d3e.click" /></path><path d="M21.56,44.79c0.02,0.45,0.04,1.15-0.04,1.8c-0.48,3.79-3.22,12.1-6.97,17.19" stroke-dasharray="20.497" stroke-dashoffset="20.497"><animate attributeName="stroke-dashoffset" values="20.497" fill="freeze" begin="9d3e.click" /><animate attributeName="stroke-dashoffset" values="20.497;20.497;0" keyTimes="0;0.75;1" dur="0.821s" fill="freeze" begin="0s;9d3e.click" /></path><path d="M22.47,54.44c0.61,0.34,1.74,0.4,2.35,0.34c5.43-0.53,11.43-1.78,18.96-3.18c1.01-0.19,1.64,0.16,2.15,0.33" stroke-dasharray="23.844" stroke-dashoffset="23.844"><animate attributeName="stroke-dashoffset" values="23.844" fill="freeze" begin="9d3e.click" /><animate attributeName="stroke-dashoffset" values="23.844;23.844;0" keyTimes="0;0.775;1" dur="1.059s" fill="freeze" begin="0s;9d3e.click" /></path><path d="M11.03,70.74c0.99,0.48,3.71,0.61,4.69,0.48c7.28-0.97,18.53-2.97,30.53-3.98c1.65-0.14,2.65,0.23,3.47,0.47" stroke-dasharray="39.074" stroke-dashoffset="39.074"><animate attributeName="stroke-dashoffset" values="39.074" fill="freeze" begin="9d3e.click" /><animate attributeName="stroke-dashoffset" values="39.074;39.074;0" keyTimes="0;0.73;1" dur="1.45s" fill="freeze" begin="0s;9d3e.click" /></path><path d="M31.02,37.22c0.5,0.4,1.32,1.44,1.32,3.78c0,4.33-0.06,49.26-0.16,54.25" stroke-dasharray="58.382" stroke-dashoffset="58.382"><animate attributeName="stroke-dashoffset" values="58.382" fill="freeze" begin="9d3e.click" /><animate attributeName="stroke-dashoffset" values="58.382;58.382;0" keyTimes="0;0.713;1" dur="2.034s" fill="freeze" begin="0s;9d3e.click" /></path><path d="M69.99,10.16c0.02,0.3,0.04,0.79-0.03,1.22c-0.42,2.53-2.81,7.95-6.08,11.1" stroke-dasharray="14.038" stroke-dashoffset="14.038"><animate attributeName="stroke-dashoffset" values="14.038" fill="freeze" begin="9d3e.click" /><animate attributeName="stroke-dashoffset" values="14.038;14.038;0" keyTimes="0;0.936;1" dur="2.174s" fill="freeze" begin="0s;9d3e.click" /></path><path d="M57.34,23.93c0.36,0.42,0.64,0.98,0.64,1.66c0,6.93,0.04,34.05-0.18,44.95" stroke-dasharray="46.77" stroke-dashoffset="46.77"><animate attributeName="stroke-dashoffset" values="46.77" fill="freeze" begin="9d3e.click" /><animate attributeName="stroke-dashoffset" values="46.77;46.77;0" keyTimes="0;0.823;1" dur="2.642s" fill="freeze" begin="0s;9d3e.click" /></path><path d="M58.42,25.2c1.66,0,21.43-3.03,23.04-2.93c2.39,0.15,3.56,2.06,3.34,3.85c-0.13,1.1-1.25,12.64-2.79,21.05" stroke-dasharray="50.219" stroke-dashoffset="50.219"><animate attributeName="stroke-dashoffset" values="50.219" fill="freeze" begin="9d3e.click" /><animate attributeName="stroke-dashoffset" values="50.219;50.219;0" keyTimes="0;0.84;1" dur="3.144s" fill="freeze" begin="0s;9d3e.click" /></path><path d="M58.69,37.02c2.03,0.13,22.57-3.13,24.87-2.98" stroke-dasharray="25.059" stroke-dashoffset="25.059"><animate attributeName="stroke-dashoffset" values="25.059" fill="freeze" begin="9d3e.click" /><animate attributeName="stroke-dashoffset" values="25.059;25.059;0" keyTimes="0;0.926;1" dur="3.395s" fill="freeze" begin="0s;9d3e.click" /></path><path d="M58.59,48.08c4.14-0.13,18.24-2.38,23.4-2.39" stroke-dasharray="23.531" stroke-dashoffset="23.531"><animate attributeName="stroke-dashoffset" values="23.531" fill="freeze" begin="9d3e.click" /><animate attributeName="stroke-dashoffset" values="23.531;23.531;0" keyTimes="0;0.935;1" dur="3.63s" fill="freeze" begin="0s;9d3e.click" /></path><path d="M58.33,59.21c9.04-1.11,29.05-3.76,32.93-4.46c1.35-0.24,3.65-0.46,4.33-0.14" stroke-dasharray="37.599" stroke-dashoffset="37.599"><animate attributeName="stroke-dashoffset" values="37.599" fill="freeze" begin="9d3e.click" /><animate attributeName="stroke-dashoffset" values="37.599;37.599;0" keyTimes="0;0.906;1" dur="4.006s" fill="freeze" begin="0s;9d3e.click" /></path><path d="M57.82,70.75c9.72-1.56,28.4-4.27,33.79-4.74c3.51-0.3,5.31,0.86,4.68,4.38c-1.75,9.81-3.36,18.62-6.4,24.66c-3.06,6.06-6.38,1-7.79-0.23" stroke-dasharray="77.892" stroke-dashoffset="77.892"><animate attributeName="stroke-dashoffset" values="77.892" fill="freeze" begin="9d3e.click" /><animate attributeName="stroke-dashoffset" values="77.892;77.892;0" keyTimes="0;0.872;1" dur="4.592s" fill="freeze" begin="0s;9d3e.click" /></path><path d="M53.72,79.46c0.64,4.71-1.46,10.37-3.34,13.25" stroke-dasharray="13.91" stroke-dashoffset="13.91"><animate attributeName="stroke-dashoffset" values="13.91" fill="freeze" begin="9d3e.click" /><animate attributeName="stroke-dashoffset" values="13.91;13.91;0" keyTimes="0;0.971;1" dur="4.731s" fill="freeze" begin="0s;9d3e.click" /></path><path d="M61.72,77.79c2.08,2.11,4.05,7.64,4.57,10.73" stroke-dasharray="11.786" stroke-dashoffset="11.786"><animate attributeName="stroke-dashoffset" values="11.786" fill="freeze" begin="9d3e.click" /><animate attributeName="stroke-dashoffset" values="11.786;11.786;0" keyTimes="0;0.976;1" dur="4.849s" fill="freeze" begin="0s;9d3e.click" /></path><path d="M72.21,76.16c1.7,1.86,4.38,7.45,4.8,10.19" stroke-dasharray="11.356" stroke-dashoffset="11.356"><animate attributeName="stroke-dashoffset" values="11.356" fill="freeze" begin="9d3e.click" /><animate attributeName="stroke-dashoffset" values="11.356;11.356;0" keyTimes="0;0.977;1" dur="4.963s" fill="freeze" begin="0s;9d3e.click" /></path><path d="M81.24,73.7c1.92,1.84,4.96,7.38,5.44,10.08" stroke-dasharray="11.562" stroke-dashoffset="11.562"><animate attributeName="stroke-dashoffset" values="11.562" fill="freeze" begin="9d3e.click" /><animate attributeName="stroke-dashoffset" values="11.562;11.562;0" keyTimes="0;0.977;1" dur="5.079s" fill="freeze" begin="0s;9d3e.click" /></path></g></svg>