<svg xmlns="http://www.w3.org/2000/svg" width="109" height="109" viewBox="0 0 109 109" id="9dc1"><g fill="none" stroke="#666" stroke-width="9" stroke-linecap="round" stroke-linejoin="round"><g><g><g><g><g><path d="M23.96,18.41c0.03,0.42,0.06,1.09-0.06,1.7c-0.73,3.59-5.4,11.47-11.15,16.29" /></g><g><path d="M31.65,14.82c1.49,0.35,10.55,13.6,14.94,16.56c1.7,1.15,2.31,1.76,3.96,2.13" /></g></g><path d="M18.88,36.94c0.65,0.35,1.84,0.39,2.5,0.35c3.05-0.17,12.99-1.93,16.09-2.35c1.08-0.14,1.74-0.27,2.29-0.09" /><g><g><path d="M23.38,46.92c0.2,0.55-0.03,1.17-0.29,1.84c-1.67,4.43-7.93,14.19-11.74,16.46" /></g><g><path d="M32.23,43.08c1.42,0.31,10.05,12.18,14.24,14.84c1.62,1.03,2.2,1.58,3.77,1.91" /></g></g></g><g><path d="M16.05,68.06c0.45,0.59,1.42,2.06,1.52,2.56c0.75,3.98,0.87,12.1,1.38,19.25" /><path d="M17.86,69.31c9.39-1.81,21.69-4.14,24.58-4.4c1.06-0.09,1.8,0.98,1.54,2.43c-0.82,4.6-1.42,7.77-2.18,12.98" /><path d="M26.08,67.87c0.19,0.38,0.46,1.57,0.46,2.05c0,5.9,0.26,8.96,0.26,16.67" /><path d="M34.68,66.15c0.46,1.13,0.71,1.81,0.66,2.76c-0.26,5.28-0.39,7.44-1.05,14.57" /><path d="M12.39,89.9c0.67,1.12,2.41,1.3,3.08,1.12c7.01-1.87,24.78-10.27,31.95-12.2" /></g></g><g><path d="M71.03,10.16c0.03,0.28,0.05,0.72-0.05,1.11c-0.58,2.32-3.88,7.29-8.41,10.18" /><path d="M58.3,22.92c0.33,0.43,0.6,1.02,0.6,1.73c0,7.23,0.04,33.51-0.17,44.88" /><path d="M59.31,24.25c1.55,0,23-3.17,24.51-3.06c2.24,0.16,3.33,2.15,3.13,4.02c-0.12,1.15-1.64,13.19-3.08,21.96" /><path d="M59.56,35.58c1.9,0.13,23.6-2.74,25.75-2.59" /><path d="M59.47,47.12c3.88-0.14,19.55-2.48,24.38-2.5" /><path d="M59.19,57.84c9.28-0.95,29.8-3.21,33.78-3.81c1.39-0.21,3.75-0.4,4.45-0.12" /><path d="M58.74,69.75c9.1-1.63,27.13-3.92,32.17-4.4c3.28-0.31,4.97,0.89,4.38,4.57c-1.64,10.24-3.58,18.46-6.43,24.75c-2.86,6.33-5.97,1.04-7.3-0.24" /><g><path d="M53.27,77.73c0.32,5.14-0.23,11.29-1.18,14.44" /><path d="M60.84,78.24c1.59,2.28,3.1,8.27,3.5,11.62" /><path d="M69.23,76.79c1.68,1.96,4.32,7.87,4.75,10.76" /><path d="M79.16,74.73c1.54,1.94,3.97,7.79,4.36,10.64" /></g></g></g></g><g fill="none" stroke="#000" stroke-width="5" stroke-linecap="round" stroke-linejoin="round"><g><g><g><g><g><path d="M23.96,18.41c0.03,0.42,0.06,1.09-0.06,1.7c-0.73,3.59-5.4,11.47-11.15,16.29" stroke-dasharray="21.7" stroke-dashoffset="21.7"><animate id="0" attributeName="stroke-dashoffset" values="21.7;0" dur="0.22s" fill="freeze" begin="0s;9dc1.click" /></path></g><g><path d="M31.65,14.82c1.49,0.35,10.55,13.6,14.94,16.56c1.7,1.15,2.31,1.76,3.96,2.13" stroke-dasharray="26.91" stroke-dashoffset="26.91"><animate attributeName="stroke-dashoffset" values="26.91" fill="freeze" begin="9dc1.click" /><animate id="1" attributeName="stroke-dashoffset" values="26.91;0" dur="0.27s" fill="freeze" begin="0.end" /></path></g></g><path d="M18.88,36.94c0.65,0.35,1.84,0.39,2.5,0.35c3.05-0.17,12.99-1.93,16.09-2.35c1.08-0.14,1.74-0.27,2.29-0.09" stroke-dasharray="21.12" stroke-dashoffset="21.12"><animate attributeName="stroke-dashoffset" values="21.12" fill="freeze" begin="9dc1.click" /><animate id="2" attributeName="stroke-dashoffset" values="21.12;0" dur="0.21s" fill="freeze" begin="1.end" /></path><g><g><path d="M23.38,46.92c0.2,0.55-0.03,1.17-0.29,1.84c-1.67,4.43-7.93,14.19-11.74,16.46" stroke-dasharray="22.32" stroke-dashoffset="22.32"><animate attributeName="stroke-dashoffset" values="22.32" fill="freeze" begin="9dc1.click" /><animate id="3" attributeName="stroke-dashoffset" values="22.32;0" dur="0.22s" fill="freeze" begin="2.end" /></path></g><g><path d="M32.23,43.08c1.42,0.31,10.05,12.18,14.24,14.84c1.62,1.03,2.2,1.58,3.77,1.91" stroke-dasharray="24.89" stroke-dashoffset="24.89"><animate attributeName="stroke-dashoffset" values="24.89" fill="freeze" begin="9dc1.click" /><animate id="4" attributeName="stroke-dashoffset" values="24.89;0" dur="0.25s" fill="freeze" begin="3.end" /></path></g></g></g><g><path d="M16.05,68.06c0.45,0.59,1.42,2.06,1.52,2.56c0.75,3.98,0.87,12.1,1.38,19.25" stroke-dasharray="22.3" stroke-dashoffset="22.3"><animate attributeName="stroke-dashoffset" values="22.3" fill="freeze" begin="9dc1.click" /><animate id="5" attributeName="stroke-dashoffset" values="22.3;0" dur="0.22s" fill="freeze" begin="4.end" /></path><path d="M17.86,69.31c9.39-1.81,21.69-4.14,24.58-4.4c1.06-0.09,1.8,0.98,1.54,2.43c-0.82,4.6-1.42,7.77-2.18,12.98" stroke-dasharray="41.48" stroke-dashoffset="41.48"><animate attributeName="stroke-dashoffset" values="41.48" fill="freeze" begin="9dc1.click" /><animate id="6" attributeName="stroke-dashoffset" values="41.48;0" dur="0.41s" fill="freeze" begin="5.end" /></path><path d="M26.08,67.87c0.19,0.38,0.46,1.57,0.46,2.05c0,5.9,0.26,8.96,0.26,16.67" stroke-dasharray="18.78" stroke-dashoffset="18.78"><animate attributeName="stroke-dashoffset" values="18.78" fill="freeze" begin="9dc1.click" /><animate id="7" attributeName="stroke-dashoffset" values="18.78;0" dur="0.19s" fill="freeze" begin="6.end" /></path><path d="M34.68,66.15c0.46,1.13,0.71,1.81,0.66,2.76c-0.26,5.28-0.39,7.44-1.05,14.57" stroke-dasharray="17.47" stroke-dashoffset="17.47"><animate attributeName="stroke-dashoffset" values="17.47" fill="freeze" begin="9dc1.click" /><animate id="8" attributeName="stroke-dashoffset" values="17.47;0" dur="0.17s" fill="freeze" begin="7.end" /></path><path d="M12.39,89.9c0.67,1.12,2.41,1.3,3.08,1.12c7.01-1.87,24.78-10.27,31.95-12.2" stroke-dasharray="37.68" stroke-dashoffset="37.68"><animate attributeName="stroke-dashoffset" values="37.68" fill="freeze" begin="9dc1.click" /><animate id="9" attributeName="stroke-dashoffset" values="37.68;0" dur="0.38s" fill="freeze" begin="8.end" /></path></g></g><g><path d="M71.03,10.16c0.03,0.28,0.05,0.72-0.05,1.11c-0.58,2.32-3.88,7.29-8.41,10.18" stroke-dasharray="14.55" stroke-dashoffset="14.55"><animate attributeName="stroke-dashoffset" values="14.55" fill="freeze" begin="9dc1.click" /><animate id="10" attributeName="stroke-dashoffset" values="14.55;0" dur="0.15s" fill="freeze" begin="9.end" /></path><path d="M58.3,22.92c0.33,0.43,0.6,1.02,0.6,1.73c0,7.23,0.04,33.51-0.17,44.88" stroke-dasharray="46.75" stroke-dashoffset="46.75"><animate attributeName="stroke-dashoffset" values="46.75" fill="freeze" begin="9dc1.click" /><animate id="11" attributeName="stroke-dashoffset" values="46.75;0" dur="0.47s" fill="freeze" begin="10.end" /></path><path d="M59.31,24.25c1.55,0,23-3.17,24.51-3.06c2.24,0.16,3.33,2.15,3.13,4.02c-0.12,1.15-1.64,13.19-3.08,21.96" stroke-dasharray="52.6" stroke-dashoffset="52.6"><animate attributeName="stroke-dashoffset" values="52.6" fill="freeze" begin="9dc1.click" /><animate id="12" attributeName="stroke-dashoffset" values="52.6;0" dur="0.53s" fill="freeze" begin="11.end" /></path><path d="M59.56,35.58c1.9,0.13,23.6-2.74,25.75-2.59" stroke-dasharray="25.89" stroke-dashoffset="25.89"><animate attributeName="stroke-dashoffset" values="25.89" fill="freeze" begin="9dc1.click" /><animate id="13" attributeName="stroke-dashoffset" values="25.89;0" dur="0.26s" fill="freeze" begin="12.end" /></path><path d="M59.47,47.12c3.88-0.14,19.55-2.48,24.38-2.5" stroke-dasharray="24.51" stroke-dashoffset="24.51"><animate attributeName="stroke-dashoffset" values="24.51" fill="freeze" begin="9dc1.click" /><animate id="14" attributeName="stroke-dashoffset" values="24.51;0" dur="0.25s" fill="freeze" begin="13.end" /></path><path d="M59.19,57.84c9.28-0.95,29.8-3.21,33.78-3.81c1.39-0.21,3.75-0.4,4.45-0.12" stroke-dasharray="38.47" stroke-dashoffset="38.47"><animate attributeName="stroke-dashoffset" values="38.47" fill="freeze" begin="9dc1.click" /><animate id="15" attributeName="stroke-dashoffset" values="38.47;0" dur="0.38s" fill="freeze" begin="14.end" /></path><path d="M58.74,69.75c9.1-1.63,27.13-3.92,32.17-4.4c3.28-0.31,4.97,0.89,4.38,4.57c-1.64,10.24-3.58,18.46-6.43,24.75c-2.86,6.33-5.97,1.04-7.3-0.24" stroke-dasharray="76.03" stroke-dashoffset="76.03"><animate attributeName="stroke-dashoffset" values="76.03" fill="freeze" begin="9dc1.click" /><animate id="16" attributeName="stroke-dashoffset" values="76.03;0" dur="0.57s" fill="freeze" begin="15.end" /></path><g><path d="M53.27,77.73c0.32,5.14-0.23,11.29-1.18,14.44" stroke-dasharray="14.55" stroke-dashoffset="14.55"><animate attributeName="stroke-dashoffset" values="14.55" fill="freeze" begin="9dc1.click" /><animate id="17" attributeName="stroke-dashoffset" values="14.55;0" dur="0.15s" fill="freeze" begin="16.end" /></path><path d="M60.84,78.24c1.59,2.28,3.1,8.27,3.5,11.62" stroke-dasharray="12.21" stroke-dashoffset="12.21"><animate attributeName="stroke-dashoffset" values="12.21" fill="freeze" begin="9dc1.click" /><animate id="18" attributeName="stroke-dashoffset" values="12.21;0" dur="0.12s" fill="freeze" begin="17.end" /></path><path d="M69.23,76.79c1.68,1.96,4.32,7.87,4.75,10.76" stroke-dasharray="11.85" stroke-dashoffset="11.85"><animate attributeName="stroke-dashoffset" values="11.85" fill="freeze" begin="9dc1.click" /><animate id="19" attributeName="stroke-dashoffset" values="11.85;0" dur="0.12s" fill="freeze" begin="18.end" /></path><path d="M79.16,74.73c1.54,1.94,3.97,7.79,4.36,10.64" stroke-dasharray="11.57" stroke-dashoffset="11.57"><animate attributeName="stroke-dashoffset" values="11.57" fill="freeze" begin="9dc1.click" /><animate id="20" attributeName="stroke-dashoffset" values="11.57;0" dur="0.12s" fill="freeze" begin="19.end" /></path></g></g></g></g></svg>