<svg xmlns="http://www.w3.org/2000/svg" viewBox="0 0 109 109" id="9dcf"><g fill="none" stroke="#666" stroke-width="6" stroke-linecap="round" stroke-linejoin="round"><g><g><g><path d="M12.82,25.05c1.07,0.62,3.01,0.71,4.08,0.62c13.17-1.14,22.27-3.24,31.61-3.48c1.78-0.05,2.84,0.3,3.73,0.61" /><path d="M31.83,13.25c0.29,0.28,0.99,2.11,0.97,2.68c-0.15,4.2,0.2,8.32,0.09,17.1" /></g><g><g><path d="M19.44,34.49c0.32,0.61,0.94,1.41,1,2.48c0.27,4.74,0.38,31.9,0.38,32.44" /><path d="M21.12,34.82c2.3-0.13,19.91-2.28,22-2.44c1.74-0.13,2.97,0.69,2.97,3.57c0,4.67-0.01,18.39-0.53,31.04" /><path d="M20.61,45.19c8.37-0.76,19.91-1.85,25.46-2.12" /><path d="M20.97,55.55c6.08-0.45,17.01-1.76,24.52-2.05" /><path d="M21.37,66.28c9.05-1.1,16.45-1.53,23.93-2.08" /></g><g><path d="M11.71,77.77c1.06,0.44,3.01,0.54,4.07,0.44c6.59-0.6,21.3-2.95,33.31-2.94c1.77,0,2.83,0.21,3.71,0.43" /><g><path d="M24.62,82.56c0.04,0.32,0.08,0.83-0.07,1.29c-0.91,2.72-6.1,8.71-13.21,12.36" /><path d="M38.35,81.16c3.62,2.1,9.36,8.65,10.27,11.92" /></g></g></g></g><g><path d="M72.08,11.16c0.02,0.28,0.04,0.72-0.03,1.12c-0.42,2.33-2.83,7.31-6.13,10.2" /><path d="M60.5,23.39c0.32,0.38,0.57,0.88,0.57,1.5c0,6.29,0.03,30.44-0.16,40.33" /><path d="M61.46,25.54c1.48,0,19.95-3.75,21.39-3.66c2.12,0.14,3.17,1.87,2.97,3.49c-0.12,1-0.56,10.47-1.93,18.1" /><path d="M61.7,34.27c1.81,0.12,20.52-2.88,22.57-2.75" /><path d="M61.62,43.8c3.68-0.12,17.67-2.66,22.26-2.67" /><path d="M61.82,53.84c8.26-0.91,26.54-3.1,30.08-3.68c1.24-0.2,3.33-0.38,3.96-0.11" /><path d="M60.92,65.92c10.83-1.42,26.32-3.88,31.12-4.38c3.12-0.33,4.72,0.93,4.16,4.78c-1.56,10.71-4.7,21.18-9.08,27.97c-3.89,6.01-5.67,1.09-6.93-0.25" /><g><path d="M57.41,78.65c0.56,4.87-1.4,10.71-3.05,13.69" /><path d="M65.12,76.12c0.97,2.32,1.89,8.43,2.13,11.84" /><path d="M71.71,72.88c1.71,2.04,4.41,8.19,4.84,11.2" /><path d="M81.33,70.76c1.58,1.93,4.42,7.74,4.96,10.57" /></g></g></g></g><g fill="none" stroke="#000" stroke-width="3" stroke-linecap="round" stroke-linejoin="round"><path d="M12.82,25.05c1.07,0.62,3.01,0.71,4.08,0.62c13.17-1.14,22.27-3.24,31.61-3.48c1.78-0.05,2.84,0.3,3.73,0.61" stroke-dasharray="39.796" stroke-dashoffset="39.796"><animate attributeName="stroke-dashoffset" values="39.796;39.796;0" dur="0.398s" fill="freeze" begin="0s;9dcf.click" /></path><path d="M31.83,13.25c0.29,0.28,0.99,2.11,0.97,2.68c-0.15,4.2,0.2,8.32,0.09,17.1" stroke-dasharray="19.98" stroke-dashoffset="19.98"><animate attributeName="stroke-dashoffset" values="19.98" fill="freeze" begin="9dcf.click" /><animate attributeName="stroke-dashoffset" values="19.98;19.98;0" keyTimes="0;0.666;1" dur="0.598s" fill="freeze" begin="0s;9dcf.click" /></path><path d="M19.44,34.49c0.32,0.61,0.94,1.41,1,2.48c0.27,4.74,0.38,31.9,0.38,32.44" stroke-dasharray="35.147" stroke-dashoffset="35.147"><animate attributeName="stroke-dashoffset" values="35.147" fill="freeze" begin="9dcf.click" /><animate attributeName="stroke-dashoffset" values="35.147;35.147;0" keyTimes="0;0.63;1" dur="0.949s" fill="freeze" begin="0s;9dcf.click" /></path><path d="M21.12,34.82c2.3-0.13,19.91-2.28,22-2.44c1.74-0.13,2.97,0.69,2.97,3.57c0,4.67-0.01,18.39-0.53,31.04" stroke-dasharray="58.599" stroke-dashoffset="58.599"><animate attributeName="stroke-dashoffset" values="58.599" fill="freeze" begin="9dcf.click" /><animate attributeName="stroke-dashoffset" values="58.599;58.599;0" keyTimes="0;0.618;1" dur="1.535s" fill="freeze" begin="0s;9dcf.click" /></path><path d="M20.61,45.19c8.37-0.76,19.91-1.85,25.46-2.12" stroke-dasharray="25.55" stroke-dashoffset="25.55"><animate attributeName="stroke-dashoffset" values="25.55" fill="freeze" begin="9dcf.click" /><animate attributeName="stroke-dashoffset" values="25.55;25.55;0" keyTimes="0;0.858;1" dur="1.79s" fill="freeze" begin="0s;9dcf.click" /></path><path d="M20.97,55.55c6.08-0.45,17.01-1.76,24.52-2.05" stroke-dasharray="24.609" stroke-dashoffset="24.609"><animate attributeName="stroke-dashoffset" values="24.609" fill="freeze" begin="9dcf.click" /><animate attributeName="stroke-dashoffset" values="24.609;24.609;0" keyTimes="0;0.879;1" dur="2.036s" fill="freeze" begin="0s;9dcf.click" /></path><path d="M21.37,66.28c9.05-1.1,16.45-1.53,23.93-2.08" stroke-dasharray="24.024" stroke-dashoffset="24.024"><animate attributeName="stroke-dashoffset" values="24.024" fill="freeze" begin="9dcf.click" /><animate attributeName="stroke-dashoffset" values="24.024;24.024;0" keyTimes="0;0.895;1" dur="2.276s" fill="freeze" begin="0s;9dcf.click" /></path><path d="M11.71,77.77c1.06,0.44,3.01,0.54,4.07,0.44c6.59-0.6,21.3-2.95,33.31-2.94c1.77,0,2.83,0.21,3.71,0.43" stroke-dasharray="41.329" stroke-dashoffset="41.329"><animate attributeName="stroke-dashoffset" values="41.329" fill="freeze" begin="9dcf.click" /><animate attributeName="stroke-dashoffset" values="41.329;41.329;0" keyTimes="0;0.846;1" dur="2.689s" fill="freeze" begin="0s;9dcf.click" /></path><path d="M24.62,82.56c0.04,0.32,0.08,0.83-0.07,1.29c-0.91,2.72-6.1,8.71-13.21,12.36" stroke-dasharray="19.691" stroke-dashoffset="19.691"><animate attributeName="stroke-dashoffset" values="19.691" fill="freeze" begin="9dcf.click" /><animate attributeName="stroke-dashoffset" values="19.691;19.691;0" keyTimes="0;0.932;1" dur="2.886s" fill="freeze" begin="0s;9dcf.click" /></path><path d="M38.35,81.16c3.62,2.1,9.36,8.65,10.27,11.92" stroke-dasharray="15.956" stroke-dashoffset="15.956"><animate attributeName="stroke-dashoffset" values="15.956" fill="freeze" begin="9dcf.click" /><animate attributeName="stroke-dashoffset" values="15.956;15.956;0" keyTimes="0;0.947;1" dur="3.046s" fill="freeze" begin="0s;9dcf.click" /></path><path d="M72.08,11.16c0.02,0.28,0.04,0.72-0.03,1.12c-0.42,2.33-2.83,7.31-6.13,10.2" stroke-dasharray="13.189" stroke-dashoffset="13.189"><animate attributeName="stroke-dashoffset" values="13.189" fill="freeze" begin="9dcf.click" /><animate attributeName="stroke-dashoffset" values="13.189;13.189;0" keyTimes="0;0.92;1" dur="3.31s" fill="freeze" begin="0s;9dcf.click" /></path><path d="M60.5,23.39c0.32,0.38,0.57,0.88,0.57,1.5c0,6.29,0.03,30.44-0.16,40.33" stroke-dasharray="41.971" stroke-dashoffset="41.971"><animate attributeName="stroke-dashoffset" values="41.971" fill="freeze" begin="9dcf.click" /><animate attributeName="stroke-dashoffset" values="41.971;41.971;0" keyTimes="0;0.887;1" dur="3.73s" fill="freeze" begin="0s;9dcf.click" /></path><path d="M61.46,25.54c1.48,0,19.95-3.75,21.39-3.66c2.12,0.14,3.17,1.87,2.97,3.49c-0.12,1-0.56,10.47-1.93,18.1" stroke-dasharray="45.084" stroke-dashoffset="45.084"><animate attributeName="stroke-dashoffset" values="45.084" fill="freeze" begin="9dcf.click" /><animate attributeName="stroke-dashoffset" values="45.084;45.084;0" keyTimes="0;0.892;1" dur="4.181s" fill="freeze" begin="0s;9dcf.click" /></path><path d="M61.7,34.27c1.81,0.12,20.52-2.88,22.57-2.75" stroke-dasharray="22.747" stroke-dashoffset="22.747"><animate attributeName="stroke-dashoffset" values="22.747" fill="freeze" begin="9dcf.click" /><animate attributeName="stroke-dashoffset" values="22.747;22.747;0" keyTimes="0;0.949;1" dur="4.408s" fill="freeze" begin="0s;9dcf.click" /></path><path d="M61.62,43.8c3.68-0.12,17.67-2.66,22.26-2.67" stroke-dasharray="22.43" stroke-dashoffset="22.43"><animate attributeName="stroke-dashoffset" values="22.43" fill="freeze" begin="9dcf.click" /><animate attributeName="stroke-dashoffset" values="22.43;22.43;0" keyTimes="0;0.952;1" dur="4.632s" fill="freeze" begin="0s;9dcf.click" /></path><path d="M61.82,53.84c8.26-0.91,26.54-3.1,30.08-3.68c1.24-0.2,3.33-0.38,3.96-0.11" stroke-dasharray="34.294" stroke-dashoffset="34.294"><animate attributeName="stroke-dashoffset" values="34.294" fill="freeze" begin="9dcf.click" /><animate attributeName="stroke-dashoffset" values="34.294;34.294;0" keyTimes="0;0.931;1" dur="4.975s" fill="freeze" begin="0s;9dcf.click" /></path><path d="M60.92,65.92c10.83-1.42,26.32-3.88,31.12-4.38c3.12-0.33,4.72,0.93,4.16,4.78c-1.56,10.71-4.7,21.18-9.08,27.97c-3.89,6.01-5.67,1.09-6.93-0.25" stroke-dasharray="78.436" stroke-dashoffset="78.436"><animate attributeName="stroke-dashoffset" values="78.436" fill="freeze" begin="9dcf.click" /><animate attributeName="stroke-dashoffset" values="78.436;78.436;0" keyTimes="0;0.894;1" dur="5.565s" fill="freeze" begin="0s;9dcf.click" /></path><path d="M57.41,78.65c0.56,4.87-1.4,10.71-3.05,13.69" stroke-dasharray="14.216" stroke-dashoffset="14.216"><animate attributeName="stroke-dashoffset" values="14.216" fill="freeze" begin="9dcf.click" /><animate attributeName="stroke-dashoffset" values="14.216;14.216;0" keyTimes="0;0.951;1" dur="5.849s" fill="freeze" begin="0s;9dcf.click" /></path><path d="M65.12,76.12c0.97,2.32,1.89,8.43,2.13,11.84" stroke-dasharray="12.062" stroke-dashoffset="12.062"><animate attributeName="stroke-dashoffset" values="12.062" fill="freeze" begin="9dcf.click" /><animate attributeName="stroke-dashoffset" values="12.062;12.062;0" keyTimes="0;0.96;1" dur="6.09s" fill="freeze" begin="0s;9dcf.click" /></path><path d="M71.71,72.88c1.71,2.04,4.41,8.19,4.84,11.2" stroke-dasharray="12.289" stroke-dashoffset="12.289"><animate attributeName="stroke-dashoffset" values="12.289" fill="freeze" begin="9dcf.click" /><animate attributeName="stroke-dashoffset" values="12.289;12.289;0" keyTimes="0;0.961;1" dur="6.336s" fill="freeze" begin="0s;9dcf.click" /></path><path d="M81.33,70.76c1.58,1.93,4.42,7.74,4.96,10.57" stroke-dasharray="11.743" stroke-dashoffset="11.743"><animate attributeName="stroke-dashoffset" values="11.743" fill="freeze" begin="9dcf.click" /><animate attributeName="stroke-dashoffset" values="11.743;11.743;0" keyTimes="0;0.964;1" dur="6.571s" fill="freeze" begin="0s;9dcf.click" /></path></g></svg>