<svg xmlns="http://www.w3.org/2000/svg" width="109" height="109" viewBox="0 0 109 109" id="9ded"><g fill="none" stroke="#666" stroke-width="9" stroke-linecap="round" stroke-linejoin="round"><g><g><g><g><path d="M41.78,13c0.08,0.31,0.1,0.75-0.14,1.25c-2.01,4.1-12.93,7.95-25.88,11.25" /></g><g><path d="M14.01,29.79c2.34,1.55,5.87,5.93,6.45,8.34" /><path d="M45.53,23.25c0.02,0.29,0.1,0.77-0.04,1.16c-1.11,3.14-2.88,6.83-6.53,11.14" /><path d="M10.27,42.75c0.7,0.13,2.58,0.49,4.44,0.38c8.5-0.52,22.98-2.39,31.22-3.48c1.84-0.24,2.34-0.13,3.51,0" /><path d="M29.15,25c1.11,0.31,2,1.36,2,2.02c0,4.49-0.22,25.24-0.22,35.37" /><path d="M30.5,41.75c-3.39,6.54-11.63,15.73-19.25,19.5" /><path d="M34.13,46.1c4.93,1.69,11.05,6.24,14.15,10.01" /></g></g><g><path d="M12.91,67.71c0.25,0.46,0.8,1.27,0.93,1.85c1.1,4.71,3.49,17.27,4.13,25.94" /><path d="M14.07,68.72c8.71-0.48,24.28-3.37,30.78-3.84c2.39-0.17,3.6,1.2,3.47,2.46c-0.54,5.21-1.58,17.75-3.4,25.75" /><path d="M30.2,68.29c0.52,0.89,0.7,1.25,0.7,2.49c-0.01,5.85,0.16,18.39,0.16,20.3" /><path d="M16.62,80c9.38-1,24.13-2.5,29.94-2.82" /><path d="M18.43,92.98c7.76-0.48,17.7-2.25,26.35-2.38" /></g></g><g><path d="M71.54,11.16c0.02,0.27,0.04,0.7-0.03,1.08c-0.41,2.24-2.74,7.04-5.93,9.84" /><path d="M60.8,23.03c0.33,0.42,0.6,0.98,0.6,1.67c0,6.99,0.04,33.35-0.17,44.34" /><path d="M61.81,24.31c1.55,0,21-3.06,22.51-2.96c2.24,0.15,3.33,2.08,3.13,3.88c-0.12,1.11-1.64,12.25-3.08,20.73" /><path d="M62.06,35.24c1.9,0.13,21.6-2.65,23.75-2.51" /><path d="M61.97,46.89c3.88-0.13,17.55-2.4,22.38-2.41" /><path d="M61.69,57.22c8.85-0.82,28.43-2.76,32.23-3.27c1.33-0.18,3.57-0.34,4.24-0.1" /><path d="M61.24,69.25c9.1-1.58,26.13-3.3,31.17-3.77c3.28-0.3,4.97,0.86,4.38,4.42c-1.64,9.89-3.54,17.6-7.93,23.88c-3.87,5.53-5.97,1.01-7.3-0.23" /><g><path d="M54.57,77.32c0.57,5.19-0.41,11.41-2.11,14.59" /><path d="M61.82,77.88c1.61,2.12,3.14,7.69,3.54,10.81" /><path d="M69.49,75.49c1.76,1.73,4.54,6.95,4.98,9.5" /><path d="M80.16,73.75c1.71,1.3,4.43,5.23,4.86,7.14" /></g></g></g></g><g fill="none" stroke="#000" stroke-width="5" stroke-linecap="round" stroke-linejoin="round"><g><g><g><g><path d="M41.78,13c0.08,0.31,0.1,0.75-0.14,1.25c-2.01,4.1-12.93,7.95-25.88,11.25" stroke-dasharray="29.98" stroke-dashoffset="29.98"><animate id="0" attributeName="stroke-dashoffset" values="29.98;0" dur="0.3s" fill="freeze" begin="0s;9ded.click" /></path></g><g><path d="M14.01,29.79c2.34,1.55,5.87,5.93,6.45,8.34" stroke-dasharray="10.69" stroke-dashoffset="10.69"><animate attributeName="stroke-dashoffset" values="10.69" fill="freeze" begin="9ded.click" /><animate id="1" attributeName="stroke-dashoffset" values="10.69;0" dur="0.11s" fill="freeze" begin="0.end" /></path><path d="M45.53,23.25c0.02,0.29,0.1,0.77-0.04,1.16c-1.11,3.14-2.88,6.83-6.53,11.14" stroke-dasharray="14.16" stroke-dashoffset="14.16"><animate attributeName="stroke-dashoffset" values="14.16" fill="freeze" begin="9ded.click" /><animate id="2" attributeName="stroke-dashoffset" values="14.16;0" dur="0.14s" fill="freeze" begin="1.end" /></path><path d="M10.27,42.75c0.7,0.13,2.58,0.49,4.44,0.38c8.5-0.52,22.98-2.39,31.22-3.48c1.84-0.24,2.34-0.13,3.51,0" stroke-dasharray="39.41" stroke-dashoffset="39.41"><animate attributeName="stroke-dashoffset" values="39.41" fill="freeze" begin="9ded.click" /><animate id="3" attributeName="stroke-dashoffset" values="39.41;0" dur="0.39s" fill="freeze" begin="2.end" /></path><path d="M29.15,25c1.11,0.31,2,1.36,2,2.02c0,4.49-0.22,25.24-0.22,35.37" stroke-dasharray="38.37" stroke-dashoffset="38.37"><animate attributeName="stroke-dashoffset" values="38.37" fill="freeze" begin="9ded.click" /><animate id="4" attributeName="stroke-dashoffset" values="38.37;0" dur="0.38s" fill="freeze" begin="3.end" /></path><path d="M30.5,41.75c-3.39,6.54-11.63,15.73-19.25,19.5" stroke-dasharray="27.76" stroke-dashoffset="27.76"><animate attributeName="stroke-dashoffset" values="27.76" fill="freeze" begin="9ded.click" /><animate id="5" attributeName="stroke-dashoffset" values="27.76;0" dur="0.28s" fill="freeze" begin="4.end" /></path><path d="M34.13,46.1c4.93,1.69,11.05,6.24,14.15,10.01" stroke-dasharray="17.51" stroke-dashoffset="17.51"><animate attributeName="stroke-dashoffset" values="17.51" fill="freeze" begin="9ded.click" /><animate id="6" attributeName="stroke-dashoffset" values="17.51;0" dur="0.18s" fill="freeze" begin="5.end" /></path></g></g><g><path d="M12.91,67.71c0.25,0.46,0.8,1.27,0.93,1.85c1.1,4.71,3.49,17.27,4.13,25.94" stroke-dasharray="28.36" stroke-dashoffset="28.36"><animate attributeName="stroke-dashoffset" values="28.36" fill="freeze" begin="9ded.click" /><animate id="7" attributeName="stroke-dashoffset" values="28.36;0" dur="0.28s" fill="freeze" begin="6.end" /></path><path d="M14.07,68.72c8.71-0.48,24.28-3.37,30.78-3.84c2.39-0.17,3.6,1.2,3.47,2.46c-0.54,5.21-1.58,17.75-3.4,25.75" stroke-dasharray="61.87" stroke-dashoffset="61.87"><animate attributeName="stroke-dashoffset" values="61.87" fill="freeze" begin="9ded.click" /><animate id="8" attributeName="stroke-dashoffset" values="61.87;0" dur="0.47s" fill="freeze" begin="7.end" /></path><path d="M30.2,68.29c0.52,0.89,0.7,1.25,0.7,2.49c-0.01,5.85,0.16,18.39,0.16,20.3" stroke-dasharray="22.93" stroke-dashoffset="22.93"><animate attributeName="stroke-dashoffset" values="22.93" fill="freeze" begin="9ded.click" /><animate id="9" attributeName="stroke-dashoffset" values="22.93;0" dur="0.23s" fill="freeze" begin="8.end" /></path><path d="M16.62,80c9.38-1,24.13-2.5,29.94-2.82" stroke-dasharray="30.07" stroke-dashoffset="30.07"><animate attributeName="stroke-dashoffset" values="30.07" fill="freeze" begin="9ded.click" /><animate id="10" attributeName="stroke-dashoffset" values="30.07;0" dur="0.3s" fill="freeze" begin="9.end" /></path><path d="M18.43,92.98c7.76-0.48,17.7-2.25,26.35-2.38" stroke-dasharray="26.47" stroke-dashoffset="26.47"><animate attributeName="stroke-dashoffset" values="26.47" fill="freeze" begin="9ded.click" /><animate id="11" attributeName="stroke-dashoffset" values="26.47;0" dur="0.26s" fill="freeze" begin="10.end" /></path></g></g><g><path d="M71.54,11.16c0.02,0.27,0.04,0.7-0.03,1.08c-0.41,2.24-2.74,7.04-5.93,9.84" stroke-dasharray="12.73" stroke-dashoffset="12.73"><animate attributeName="stroke-dashoffset" values="12.73" fill="freeze" begin="9ded.click" /><animate id="12" attributeName="stroke-dashoffset" values="12.73;0" dur="0.13s" fill="freeze" begin="11.end" /></path><path d="M60.8,23.03c0.33,0.42,0.6,0.98,0.6,1.67c0,6.99,0.04,33.35-0.17,44.34" stroke-dasharray="46.15" stroke-dashoffset="46.15"><animate attributeName="stroke-dashoffset" values="46.15" fill="freeze" begin="9ded.click" /><animate id="13" attributeName="stroke-dashoffset" values="46.15;0" dur="0.46s" fill="freeze" begin="12.end" /></path><path d="M61.81,24.31c1.55,0,21-3.06,22.51-2.96c2.24,0.15,3.33,2.08,3.13,3.88c-0.12,1.11-1.64,12.25-3.08,20.73" stroke-dasharray="49.27" stroke-dashoffset="49.27"><animate attributeName="stroke-dashoffset" values="49.27" fill="freeze" begin="9ded.click" /><animate id="14" attributeName="stroke-dashoffset" values="49.27;0" dur="0.49s" fill="freeze" begin="13.end" /></path><path d="M62.06,35.24c1.9,0.13,21.6-2.65,23.75-2.51" stroke-dasharray="23.89" stroke-dashoffset="23.89"><animate attributeName="stroke-dashoffset" values="23.89" fill="freeze" begin="9ded.click" /><animate id="15" attributeName="stroke-dashoffset" values="23.89;0" dur="0.24s" fill="freeze" begin="14.end" /></path><path d="M61.97,46.89c3.88-0.13,17.55-2.4,22.38-2.41" stroke-dasharray="22.52" stroke-dashoffset="22.52"><animate attributeName="stroke-dashoffset" values="22.52" fill="freeze" begin="9ded.click" /><animate id="16" attributeName="stroke-dashoffset" values="22.52;0" dur="0.23s" fill="freeze" begin="15.end" /></path><path d="M61.69,57.22c8.85-0.82,28.43-2.76,32.23-3.27c1.33-0.18,3.57-0.34,4.24-0.1" stroke-dasharray="36.66" stroke-dashoffset="36.66"><animate attributeName="stroke-dashoffset" values="36.66" fill="freeze" begin="9ded.click" /><animate id="17" attributeName="stroke-dashoffset" values="36.66;0" dur="0.37s" fill="freeze" begin="16.end" /></path><path d="M61.24,69.25c9.1-1.58,26.13-3.3,31.17-3.77c3.28-0.3,4.97,0.86,4.38,4.42c-1.64,9.89-3.54,17.6-7.93,23.88c-3.87,5.53-5.97,1.01-7.3-0.23" stroke-dasharray="74.01" stroke-dashoffset="74.01"><animate attributeName="stroke-dashoffset" values="74.01" fill="freeze" begin="9ded.click" /><animate id="18" attributeName="stroke-dashoffset" values="74.01;0" dur="0.56s" fill="freeze" begin="17.end" /></path><g><path d="M54.57,77.32c0.57,5.19-0.41,11.41-2.11,14.59" stroke-dasharray="14.92" stroke-dashoffset="14.92"><animate attributeName="stroke-dashoffset" values="14.92" fill="freeze" begin="9ded.click" /><animate id="19" attributeName="stroke-dashoffset" values="14.92;0" dur="0.15s" fill="freeze" begin="18.end" /></path><path d="M61.82,77.88c1.61,2.12,3.14,7.69,3.54,10.81" stroke-dasharray="11.46" stroke-dashoffset="11.46"><animate attributeName="stroke-dashoffset" values="11.46" fill="freeze" begin="9ded.click" /><animate id="20" attributeName="stroke-dashoffset" values="11.46;0" dur="0.11s" fill="freeze" begin="19.end" /></path><path d="M69.49,75.49c1.76,1.73,4.54,6.95,4.98,9.5" stroke-dasharray="10.82" stroke-dashoffset="10.82"><animate attributeName="stroke-dashoffset" values="10.82" fill="freeze" begin="9ded.click" /><animate id="21" attributeName="stroke-dashoffset" values="10.82;0" dur="0.11s" fill="freeze" begin="20.end" /></path><path d="M80.16,73.75c1.71,1.3,4.43,5.23,4.86,7.14" stroke-dasharray="8.74" stroke-dashoffset="8.74"><animate attributeName="stroke-dashoffset" values="8.74" fill="freeze" begin="9ded.click" /><animate id="22" attributeName="stroke-dashoffset" values="8.74;0" dur="0.09s" fill="freeze" begin="21.end" /></path></g></g></g></g></svg>