<svg xmlns="http://www.w3.org/2000/svg" width="109" height="109" viewBox="0 0 109 109" id="9e7d"><g fill="none" stroke="#666" stroke-width="9" stroke-linecap="round" stroke-linejoin="round"><g><g><g p5:phon="監1" xmlns:p5="http://kanjivg.tagaini.net"><path d="M17.87,16.95c0.49,0.29,0.79,1.29,0.89,1.86c0.1,0.57,0,41.36-0.1,44.94" /><path d="M18.87,18.38c3.49-0.42,19.41-2,27.53-2.42c1.23-0.06,1.97-0.14,2.58,0.02" /><path d="M31.49,17.24c0.49,0.29,0.79,1.29,0.89,1.86c0.1,0.57,0.06,7.73-0.04,11.31" /><path d="M19.06,33.12c7.8-1.05,18.08-3.14,23.49-3.86c2.19-0.29,2.8,0.89,2.5,2.43c-0.55,2.79-1.37,7.8-1.93,11.16" /><path d="M19.1,46c3.26-0.42,22.1-2.14,25.16-2.4" /><path d="M30.83,45.5c0.49,0.29,0.79,1.29,0.89,1.86c0.1,0.57,0.06,8.8-0.04,12.38" /><path d="M18.87,61.31c3.26-0.42,17.89-1.71,25.47-2.13c1.15-0.06,1.84-0.14,2.41,0.02" /></g><g><g p6:phon="監2" xmlns:p6="http://kanjivg.tagaini.net"><path d="M61.02,11.99c0.1,0.89-0.03,2.07-0.35,2.83c-2.07,4.89-4.68,9.02-9.42,14.97" /><path d="M59.3,19.51c0.92,0.09,2.73,0.48,4.36,0.39c7.6-0.42,20.37-2.85,25.4-3.27c1.42-0.12,2.73,0.15,3.44,0.31" /></g><g><g><path d="M65.78,19.91c0.47,0.21,1.48,1.57,1.57,1.99c0.09,0.42,0.29,10.12,0.2,12.75" /><path d="M67.95,26.83c1.88-0.12,15.06-1.88,17.05-2.13c1.02-0.13,2.41,0,3.25,0.13" /></g><g><g p8:part="1" xmlns:p8="http://kanjivg.tagaini.net"><path d="M53.2,34.79c0.39,0.63,0.95,1.11,0.96,1.95c0.07,6.32,0.07,16.16-0.16,28.23" /><path d="M54.99,35.83c10.55-0.66,30.49-2.12,32.12-2.12c1.77,0,2.39,1.1,2.37,2.44c-0.13,6.98-0.51,17.38-0.26,27.23" /></g><path d="M76.93,37.28c0.26,0.48,0.43,1.12-0.08,1.91c-4.96,7.71-9.39,12.93-16.36,17.75" /><path d="M62.93,41.69c6.71,3.17,14.09,9.21,17.64,14" /><path d="M67.54,37.33c0.88,0.73,1.86,2.11,2.32,3.21" /><path d="M59.43,45.48c1.44,0.78,3.03,2.25,3.8,3.42" /><path d="M80.28,45.62c1.5,0.88,3.16,2.55,3.96,3.88" /><path d="M69.41,54.99c1.54,0.91,3.24,2.64,4.06,4.01" /><g p8:part="2" xmlns:p8="http://kanjivg.tagaini.net"><path d="M54.48,63.15c6.73,0,24.94-1.93,34.23-2.11" /></g></g></g></g></g><g p4:phon="監3" xmlns:p4="http://kanjivg.tagaini.net"><path d="M24.84,72.95c0.69,0.97,1.66,2.17,1.73,3.01c0.67,8.04,1.17,10.79,1.45,18.83" /><path d="M27.65,75c12.23-1.34,47.66-3.62,52.79-4.14c1.78-0.18,2.85,1.08,2.59,2.15c-1.05,4.44-2.64,14.24-3.71,19.71" /><path d="M44.05,76.22c0.29,0.62,0.65,1.14,0.7,1.93C45.25,85,45,87.75,45,94.48" /><path d="M60.61,74.52c0.45,0.62,0.92,1.53,0.85,2.34c0.04,6.39,0.04,8.89-0.65,16.69" /><path d="M13.67,95.26c1.87,0.6,5.29,0.7,7.15,0.6c19.42-1,41.92-2.26,66.98-1.91c3.11,0.04,4.98,0.28,6.53,0.58" /></g></g></g><g fill="none" stroke="#000" stroke-width="5" stroke-linecap="round" stroke-linejoin="round"><g><g><g p5:phon="監1" xmlns:p5="http://kanjivg.tagaini.net"><path d="M17.87,16.95c0.49,0.29,0.79,1.29,0.89,1.86c0.1,0.57,0,41.36-0.1,44.94" stroke-dasharray="47.05" stroke-dashoffset="47.05"><animate id="0" attributeName="stroke-dashoffset" values="47.05;0" dur="0.47s" fill="freeze" begin="0s;9e7d.click" /></path><path d="M18.87,18.38c3.49-0.42,19.41-2,27.53-2.42c1.23-0.06,1.97-0.14,2.58,0.02" stroke-dasharray="30.23" stroke-dashoffset="30.23"><animate attributeName="stroke-dashoffset" values="30.23" fill="freeze" begin="9e7d.click" /><animate id="1" attributeName="stroke-dashoffset" values="30.23;0" dur="0.3s" fill="freeze" begin="0.end" /></path><path d="M31.49,17.24c0.49,0.29,0.79,1.29,0.89,1.86c0.1,0.57,0.06,7.73-0.04,11.31" stroke-dasharray="13.42" stroke-dashoffset="13.42"><animate attributeName="stroke-dashoffset" values="13.42" fill="freeze" begin="9e7d.click" /><animate id="2" attributeName="stroke-dashoffset" values="13.42;0" dur="0.13s" fill="freeze" begin="1.end" /></path><path d="M19.06,33.12c7.8-1.05,18.08-3.14,23.49-3.86c2.19-0.29,2.8,0.89,2.5,2.43c-0.55,2.79-1.37,7.8-1.93,11.16" stroke-dasharray="39.47" stroke-dashoffset="39.47"><animate attributeName="stroke-dashoffset" values="39.47" fill="freeze" begin="9e7d.click" /><animate id="3" attributeName="stroke-dashoffset" values="39.47;0" dur="0.39s" fill="freeze" begin="2.end" /></path><path d="M19.1,46c3.26-0.42,22.1-2.14,25.16-2.4" stroke-dasharray="25.27" stroke-dashoffset="25.27"><animate attributeName="stroke-dashoffset" values="25.27" fill="freeze" begin="9e7d.click" /><animate id="4" attributeName="stroke-dashoffset" values="25.27;0" dur="0.25s" fill="freeze" begin="3.end" /></path><path d="M30.83,45.5c0.49,0.29,0.79,1.29,0.89,1.86c0.1,0.57,0.06,8.8-0.04,12.38" stroke-dasharray="14.49" stroke-dashoffset="14.49"><animate attributeName="stroke-dashoffset" values="14.49" fill="freeze" begin="9e7d.click" /><animate id="5" attributeName="stroke-dashoffset" values="14.49;0" dur="0.14s" fill="freeze" begin="4.end" /></path><path d="M18.87,61.31c3.26-0.42,17.89-1.71,25.47-2.13c1.15-0.06,1.84-0.14,2.41,0.02" stroke-dasharray="27.98" stroke-dashoffset="27.98"><animate attributeName="stroke-dashoffset" values="27.98" fill="freeze" begin="9e7d.click" /><animate id="6" attributeName="stroke-dashoffset" values="27.98;0" dur="0.28s" fill="freeze" begin="5.end" /></path></g><g><g p6:phon="監2" xmlns:p6="http://kanjivg.tagaini.net"><path d="M61.02,11.99c0.1,0.89-0.03,2.07-0.35,2.83c-2.07,4.89-4.68,9.02-9.42,14.97" stroke-dasharray="20.62" stroke-dashoffset="20.62"><animate attributeName="stroke-dashoffset" values="20.62" fill="freeze" begin="9e7d.click" /><animate id="7" attributeName="stroke-dashoffset" values="20.62;0" dur="0.21s" fill="freeze" begin="6.end" /></path><path d="M59.3,19.51c0.92,0.09,2.73,0.48,4.36,0.39c7.6-0.42,20.37-2.85,25.4-3.27c1.42-0.12,2.73,0.15,3.44,0.31" stroke-dasharray="33.47" stroke-dashoffset="33.47"><animate attributeName="stroke-dashoffset" values="33.47" fill="freeze" begin="9e7d.click" /><animate id="8" attributeName="stroke-dashoffset" values="33.47;0" dur="0.33s" fill="freeze" begin="7.end" /></path></g><g><g><path d="M65.78,19.91c0.47,0.21,1.48,1.57,1.57,1.99c0.09,0.42,0.29,10.12,0.2,12.75" stroke-dasharray="15.32" stroke-dashoffset="15.32"><animate attributeName="stroke-dashoffset" values="15.32" fill="freeze" begin="9e7d.click" /><animate id="9" attributeName="stroke-dashoffset" values="15.32;0" dur="0.15s" fill="freeze" begin="8.end" /></path><path d="M67.95,26.83c1.88-0.12,15.06-1.88,17.05-2.13c1.02-0.13,2.41,0,3.25,0.13" stroke-dasharray="20.44" stroke-dashoffset="20.44"><animate attributeName="stroke-dashoffset" values="20.44" fill="freeze" begin="9e7d.click" /><animate id="10" attributeName="stroke-dashoffset" values="20.44;0" dur="0.2s" fill="freeze" begin="9.end" /></path></g><g><g p8:part="1" xmlns:p8="http://kanjivg.tagaini.net"><path d="M53.2,34.79c0.39,0.63,0.95,1.11,0.96,1.95c0.07,6.32,0.07,16.16-0.16,28.23" stroke-dasharray="30.44" stroke-dashoffset="30.44"><animate attributeName="stroke-dashoffset" values="30.44" fill="freeze" begin="9e7d.click" /><animate id="11" attributeName="stroke-dashoffset" values="30.44;0" dur="0.3s" fill="freeze" begin="10.end" /></path><path d="M54.99,35.83c10.55-0.66,30.49-2.12,32.12-2.12c1.77,0,2.39,1.1,2.37,2.44c-0.13,6.98-0.51,17.38-0.26,27.23" stroke-dasharray="63.32" stroke-dashoffset="63.32"><animate attributeName="stroke-dashoffset" values="63.32" fill="freeze" begin="9e7d.click" /><animate id="12" attributeName="stroke-dashoffset" values="63.32;0" dur="0.48s" fill="freeze" begin="11.end" /></path></g><path d="M76.93,37.28c0.26,0.48,0.43,1.12-0.08,1.91c-4.96,7.71-9.39,12.93-16.36,17.75" stroke-dasharray="26.34" stroke-dashoffset="26.34"><animate attributeName="stroke-dashoffset" values="26.34" fill="freeze" begin="9e7d.click" /><animate id="13" attributeName="stroke-dashoffset" values="26.34;0" dur="0.26s" fill="freeze" begin="12.end" /></path><path d="M62.93,41.69c6.71,3.17,14.09,9.21,17.64,14" stroke-dasharray="22.7" stroke-dashoffset="22.7"><animate attributeName="stroke-dashoffset" values="22.7" fill="freeze" begin="9e7d.click" /><animate id="14" attributeName="stroke-dashoffset" values="22.7;0" dur="0.23s" fill="freeze" begin="13.end" /></path><path d="M67.54,37.33c0.88,0.73,1.86,2.11,2.32,3.21" stroke-dasharray="3.99" stroke-dashoffset="3.99"><animate attributeName="stroke-dashoffset" values="3.99" fill="freeze" begin="9e7d.click" /><animate id="15" attributeName="stroke-dashoffset" values="3.99;0" dur="0.04s" fill="freeze" begin="14.end" /></path><path d="M59.43,45.48c1.44,0.78,3.03,2.25,3.8,3.42" stroke-dasharray="5.15" stroke-dashoffset="5.15"><animate attributeName="stroke-dashoffset" values="5.15" fill="freeze" begin="9e7d.click" /><animate id="16" attributeName="stroke-dashoffset" values="5.15;0" dur="0.05s" fill="freeze" begin="15.end" /></path><path d="M80.28,45.62c1.5,0.88,3.16,2.55,3.96,3.88" stroke-dasharray="5.59" stroke-dashoffset="5.59"><animate attributeName="stroke-dashoffset" values="5.59" fill="freeze" begin="9e7d.click" /><animate id="17" attributeName="stroke-dashoffset" values="5.59;0" dur="0.06s" fill="freeze" begin="16.end" /></path><path d="M69.41,54.99c1.54,0.91,3.24,2.64,4.06,4.01" stroke-dasharray="5.75" stroke-dashoffset="5.75"><animate attributeName="stroke-dashoffset" values="5.75" fill="freeze" begin="9e7d.click" /><animate id="18" attributeName="stroke-dashoffset" values="5.75;0" dur="0.06s" fill="freeze" begin="17.end" /></path><g p8:part="2" xmlns:p8="http://kanjivg.tagaini.net"><path d="M54.48,63.15c6.73,0,24.94-1.93,34.23-2.11" stroke-dasharray="34.3" stroke-dashoffset="34.3"><animate attributeName="stroke-dashoffset" values="34.3" fill="freeze" begin="9e7d.click" /><animate id="19" attributeName="stroke-dashoffset" values="34.3;0" dur="0.34s" fill="freeze" begin="18.end" /></path></g></g></g></g></g><g p4:phon="監3" xmlns:p4="http://kanjivg.tagaini.net"><path d="M24.84,72.95c0.69,0.97,1.66,2.17,1.73,3.01c0.67,8.04,1.17,10.79,1.45,18.83" stroke-dasharray="22.39" stroke-dashoffset="22.39"><animate attributeName="stroke-dashoffset" values="22.39" fill="freeze" begin="9e7d.click" /><animate id="20" attributeName="stroke-dashoffset" values="22.39;0" dur="0.22s" fill="freeze" begin="19.end" /></path><path d="M27.65,75c12.23-1.34,47.66-3.62,52.79-4.14c1.78-0.18,2.85,1.08,2.59,2.15c-1.05,4.44-2.64,14.24-3.71,19.71" stroke-dasharray="76.94" stroke-dashoffset="76.94"><animate attributeName="stroke-dashoffset" values="76.94" fill="freeze" begin="9e7d.click" /><animate id="21" attributeName="stroke-dashoffset" values="76.94;0" dur="0.58s" fill="freeze" begin="20.end" /></path><path d="M44.05,76.22c0.29,0.62,0.65,1.14,0.7,1.93C45.25,85,45,87.75,45,94.48" stroke-dasharray="18.41" stroke-dashoffset="18.41"><animate attributeName="stroke-dashoffset" values="18.41" fill="freeze" begin="9e7d.click" /><animate id="22" attributeName="stroke-dashoffset" values="18.41;0" dur="0.18s" fill="freeze" begin="21.end" /></path><path d="M60.61,74.52c0.45,0.62,0.92,1.53,0.85,2.34c0.04,6.39,0.04,8.89-0.65,16.69" stroke-dasharray="19.25" stroke-dashoffset="19.25"><animate attributeName="stroke-dashoffset" values="19.25" fill="freeze" begin="9e7d.click" /><animate id="23" attributeName="stroke-dashoffset" values="19.25;0" dur="0.19s" fill="freeze" begin="22.end" /></path><path d="M13.67,95.26c1.87,0.6,5.29,0.7,7.15,0.6c19.42-1,41.92-2.26,66.98-1.91c3.11,0.04,4.98,0.28,6.53,0.58" stroke-dasharray="80.79" stroke-dashoffset="80.79"><animate attributeName="stroke-dashoffset" values="80.79" fill="freeze" begin="9e7d.click" /><animate id="24" attributeName="stroke-dashoffset" values="80.79;0" dur="0.61s" fill="freeze" begin="23.end" /></path></g></g></g></svg>