<svg xmlns="http://www.w3.org/2000/svg" width="109" height="109" viewBox="0 0 109 109" id="9e88"><g fill="none" stroke="#666" stroke-width="9" stroke-linecap="round" stroke-linejoin="round"><g><g><g><path d="M53.27,10.63c0.69,0.31,2.16,2.32,2.3,2.94c0.14,0.62,0.07,2.94-0.07,6.81" /><g><path d="M20.2,23.27c1.53,0.53,4.35,0.62,5.89,0.53c15.97-0.89,42.8-4.51,56.92-5.54c2.55-0.19,4.09,0.25,5.37,0.52" /><path d="M24.7,24.02c0.04,1.68,0.08,4.35-0.08,6.77c-0.97,14.27-3.14,48.89-13.56,64.26" /></g></g><path d="M29.69,33.01c2.14,0.45,3.95,0.74,6.17,0.56c15.3-1.23,41.7-4.48,46-4.67c3.21-0.14,3.17,1.14,2.77,2.79c-0.63,2.57-1.5,4.73-2.95,7.88" /><path d="M44.26,26.42c0.8,0.23,1.29,1.45,1.45,1.92c0.16,0.47,0.62,9.4,1.07,12.64" /><path d="M63.69,24.05c0.8,0.23,1.49,1.44,1.45,1.92c-0.2,2.09-1.07,10.68-1.76,13.92" /><path d="M30.42,43.69c1.39,0.35,3.94,0.44,5.32,0.35c8.85-0.6,34.12-4.27,44.05-4.14c2.31,0.03,3.7,0.17,4.86,0.34" /><g><path d="M36.92,52.54c4.55-0.17,9.79-1.15,13.75-1.43c1.16-0.08,1.9-0.08,2.5-0.03" /><path d="M34.43,49.72c0.82,0.3,1.52,1.17,1.52,1.58c0,1.1-0.26,9.18-0.26,10.57c0,1.55,1.66,1.32,3.29,0.83c4.27-1.27,6.76-2.8,11.88-4.82" /><g><path d="M80.88,45.69c0.21,0.3,0.54,0.82,0.18,1.35c-0.51,0.75-11.03,4.21-17.45,5.87" /><path d="M61.53,43.85c0.83,0.29,1.15,1.4,1.15,2.13c0,0.96,0.43,9.12,0.41,10.25c-0.1,4.11,2.87,4.9,12.79,4.9c9.27,0,13.16-0.43,13.16-3.97" /></g></g></g><g><g><path d="M53.52,60.33c1.76,1.47,4.35,5.6,4.79,7.88" /></g><g p5:partial xmlns:p5="http://kanjivg.tagaini.net"><path d="M34,72.11c2.5,0.64,4.3,1.16,5.55,1.03c13.76-1.39,23.95-2.64,37.7-3.93c1.91-0.18,3.66,0.09,5.25,0.49" /><path d="M56.59,71.83c0.49,0.57,0.99,1.65,0.99,2.1c0,3.17,0.25,17.9,0.12,21.07" /><path d="M37,83.95c1.06,0.59,4.55,0.34,5.63,0.26c13.37-0.96,19.62-1.96,30.42-3.02c1.32-0.13,4.23-0.24,6.2,0.28" /><path d="M25,97.17c1.09,0.32,6.78,0.17,8.62,0.01c16.06-1.38,36.87-2.75,50.85-3.06c2.97-0.07,6.54,0.53,8.03,1.03" /></g></g></g></g><g fill="none" stroke="#000" stroke-width="5" stroke-linecap="round" stroke-linejoin="round"><g><g><g><path d="M53.27,10.63c0.69,0.31,2.16,2.32,2.3,2.94c0.14,0.62,0.07,2.94-0.07,6.81" stroke-dasharray="10.6" stroke-dashoffset="10.6"><animate id="0" attributeName="stroke-dashoffset" values="10.6;0" dur="0.11s" fill="freeze" begin="0s;9e88.click" /></path><g><path d="M20.2,23.27c1.53,0.53,4.35,0.62,5.89,0.53c15.97-0.89,42.8-4.51,56.92-5.54c2.55-0.19,4.09,0.25,5.37,0.52" stroke-dasharray="68.56" stroke-dashoffset="68.56"><animate attributeName="stroke-dashoffset" values="68.56" fill="freeze" begin="9e88.click" /><animate id="1" attributeName="stroke-dashoffset" values="68.56;0" dur="0.52s" fill="freeze" begin="0.end" /></path><path d="M24.7,24.02c0.04,1.68,0.08,4.35-0.08,6.77c-0.97,14.27-3.14,48.89-13.56,64.26" stroke-dasharray="73.05" stroke-dashoffset="73.05"><animate attributeName="stroke-dashoffset" values="73.05" fill="freeze" begin="9e88.click" /><animate id="2" attributeName="stroke-dashoffset" values="73.05;0" dur="0.55s" fill="freeze" begin="1.end" /></path></g></g><path d="M29.69,33.01c2.14,0.45,3.95,0.74,6.17,0.56c15.3-1.23,41.7-4.48,46-4.67c3.21-0.14,3.17,1.14,2.77,2.79c-0.63,2.57-1.5,4.73-2.95,7.88" stroke-dasharray="65.96" stroke-dashoffset="65.96"><animate attributeName="stroke-dashoffset" values="65.96" fill="freeze" begin="9e88.click" /><animate id="3" attributeName="stroke-dashoffset" values="65.96;0" dur="0.5s" fill="freeze" begin="2.end" /></path><path d="M44.26,26.42c0.8,0.23,1.29,1.45,1.45,1.92c0.16,0.47,0.62,9.4,1.07,12.64" stroke-dasharray="15.17" stroke-dashoffset="15.17"><animate attributeName="stroke-dashoffset" values="15.17" fill="freeze" begin="9e88.click" /><animate id="4" attributeName="stroke-dashoffset" values="15.17;0" dur="0.15s" fill="freeze" begin="3.end" /></path><path d="M63.69,24.05c0.8,0.23,1.49,1.44,1.45,1.92c-0.2,2.09-1.07,10.68-1.76,13.92" stroke-dasharray="16.56" stroke-dashoffset="16.56"><animate attributeName="stroke-dashoffset" values="16.56" fill="freeze" begin="9e88.click" /><animate id="5" attributeName="stroke-dashoffset" values="16.56;0" dur="0.17s" fill="freeze" begin="4.end" /></path><path d="M30.42,43.69c1.39,0.35,3.94,0.44,5.32,0.35c8.85-0.6,34.12-4.27,44.05-4.14c2.31,0.03,3.7,0.17,4.86,0.34" stroke-dasharray="54.48" stroke-dashoffset="54.48"><animate attributeName="stroke-dashoffset" values="54.48" fill="freeze" begin="9e88.click" /><animate id="6" attributeName="stroke-dashoffset" values="54.48;0" dur="0.54s" fill="freeze" begin="5.end" /></path><g><path d="M36.92,52.54c4.55-0.17,9.79-1.15,13.75-1.43c1.16-0.08,1.9-0.08,2.5-0.03" stroke-dasharray="16.33" stroke-dashoffset="16.33"><animate attributeName="stroke-dashoffset" values="16.33" fill="freeze" begin="9e88.click" /><animate id="7" attributeName="stroke-dashoffset" values="16.33;0" dur="0.16s" fill="freeze" begin="6.end" /></path><path d="M34.43,49.72c0.82,0.3,1.52,1.17,1.52,1.58c0,1.1-0.26,9.18-0.26,10.57c0,1.55,1.66,1.32,3.29,0.83c4.27-1.27,6.76-2.8,11.88-4.82" stroke-dasharray="29.73" stroke-dashoffset="29.73"><animate attributeName="stroke-dashoffset" values="29.73" fill="freeze" begin="9e88.click" /><animate id="8" attributeName="stroke-dashoffset" values="29.73;0" dur="0.3s" fill="freeze" begin="7.end" /></path><g><path d="M80.88,45.69c0.21,0.3,0.54,0.82,0.18,1.35c-0.51,0.75-11.03,4.21-17.45,5.87" stroke-dasharray="19.92" stroke-dashoffset="19.92"><animate attributeName="stroke-dashoffset" values="19.92" fill="freeze" begin="9e88.click" /><animate id="9" attributeName="stroke-dashoffset" values="19.92;0" dur="0.2s" fill="freeze" begin="8.end" /></path><path d="M61.53,43.85c0.83,0.29,1.15,1.4,1.15,2.13c0,0.96,0.43,9.12,0.41,10.25c-0.1,4.11,2.87,4.9,12.79,4.9c9.27,0,13.16-0.43,13.16-3.97" stroke-dasharray="43.34" stroke-dashoffset="43.34"><animate attributeName="stroke-dashoffset" values="43.34" fill="freeze" begin="9e88.click" /><animate id="10" attributeName="stroke-dashoffset" values="43.34;0" dur="0.43s" fill="freeze" begin="9.end" /></path></g></g></g><g><g><path d="M53.52,60.33c1.76,1.47,4.35,5.6,4.79,7.88" stroke-dasharray="9.33" stroke-dashoffset="9.33"><animate attributeName="stroke-dashoffset" values="9.33" fill="freeze" begin="9e88.click" /><animate id="11" attributeName="stroke-dashoffset" values="9.33;0" dur="0.09s" fill="freeze" begin="10.end" /></path></g><g p5:partial xmlns:p5="http://kanjivg.tagaini.net"><path d="M34,72.11c2.5,0.64,4.3,1.16,5.55,1.03c13.76-1.39,23.95-2.64,37.7-3.93c1.91-0.18,3.66,0.09,5.25,0.49" stroke-dasharray="48.87" stroke-dashoffset="48.87"><animate attributeName="stroke-dashoffset" values="48.87" fill="freeze" begin="9e88.click" /><animate id="12" attributeName="stroke-dashoffset" values="48.87;0" dur="0.49s" fill="freeze" begin="11.end" /></path><path d="M56.59,71.83c0.49,0.57,0.99,1.65,0.99,2.1c0,3.17,0.25,17.9,0.12,21.07" stroke-dasharray="23.42" stroke-dashoffset="23.42"><animate attributeName="stroke-dashoffset" values="23.42" fill="freeze" begin="9e88.click" /><animate id="13" attributeName="stroke-dashoffset" values="23.42;0" dur="0.23s" fill="freeze" begin="12.end" /></path><path d="M37,83.95c1.06,0.59,4.55,0.34,5.63,0.26c13.37-0.96,19.62-1.96,30.42-3.02c1.32-0.13,4.23-0.24,6.2,0.28" stroke-dasharray="42.49" stroke-dashoffset="42.49"><animate attributeName="stroke-dashoffset" values="42.49" fill="freeze" begin="9e88.click" /><animate id="14" attributeName="stroke-dashoffset" values="42.49;0" dur="0.42s" fill="freeze" begin="13.end" /></path><path d="M25,97.17c1.09,0.32,6.78,0.17,8.62,0.01c16.06-1.38,36.87-2.75,50.85-3.06c2.97-0.07,6.54,0.53,8.03,1.03" stroke-dasharray="67.71" stroke-dashoffset="67.71"><animate attributeName="stroke-dashoffset" values="67.71" fill="freeze" begin="9e88.click" /><animate id="15" attributeName="stroke-dashoffset" values="67.71;0" dur="0.51s" fill="freeze" begin="14.end" /></path></g></g></g></g></svg>