<svg xmlns="http://www.w3.org/2000/svg" width="109" height="109" viewBox="0 0 109 109" id="9e97"><g fill="none" stroke="#666" stroke-width="9" stroke-linecap="round" stroke-linejoin="round"><g><g><g><g><path d="M19.25,14.14c1.48,0.6,3.33,0.42,4.88,0.3c5.39-0.44,15.28-1.74,21.5-2.34c1.37-0.13,3.51-0.16,4.87,0.17" /></g><path d="M24.27,23.67c0.72,0.72,0.84,1.64,0.84,2.44c0,0.54-0.04,5.8-0.04,9.9c0,1.97,0.01,3.49,0.04,3.75" /><path d="M26.09,24.52c1.36-0.08,12.33-1.68,16.92-2.29c2.6-0.35,3.85-0.08,3.81,2.77c-0.03,2.19,0.03,6.46-0.03,9.51c-0.03,1.86-0.04,3.55-0.04,3.74" /><path d="M32.13,30.25c2.34,1.03,6.03,4.24,6.62,5.84" /></g><g><g><path d="M59,12.64c2.25,0.36,3.84,0.16,5.62-0.04c5.47-0.61,14.98-1.69,20.5-2.11c1.56-0.12,3.33-0.35,4.88,0.02" /></g><path d="M61.77,21.92c0.78,0.78,0.84,1.83,0.84,2.94c0,0.52-0.04,4.81-0.04,8.9c0,2.09,0.01,3.73,0.04,4" /><path d="M63.09,22.52c1.43-0.09,15.06-1.83,19.67-2.37c2.48-0.29,3.37,0,3.37,2.6c0,2.57,0,6.48,0.06,10.13c0.03,2.02,0.05,3.52,0.05,3.58" /><path d="M70.76,28.12c2.03,0.96,5.23,3.97,5.74,5.47" /></g></g><g><g><path d="M55.27,36.13c0.92,0.93,1.05,1.87,1.05,3.31c0,0.56-0.07,2.19-0.07,4.69" /><g><path d="M26.45,46.85c2.52,0.69,5.09,0.65,7.67,0.51c12.95-0.7,30.53-2.88,43.13-3.8c3.25-0.24,6.11-0.71,9.38-0.18" /><path d="M27.95,47.99c0.91,0.91,1.04,2.12,0.92,3.72c-0.74,10.04-2.62,31.79-14.06,44.42" /></g></g><path d="M33.94,57.08c1.83,0.44,3.38,0.73,5.28,0.56c13.09-1.22,30.4-3.13,38.95-3.89c2.74-0.24,3.12,1.66,2.73,3.26c-0.9,3.62-1.4,5.99-2.13,8.78" /><path d="M45.51,50.65c0.85,0.85,1.11,1.6,1.2,2.64c0.05,0.6,0.79,9.71,1.07,14.45" /><path d="M63.69,48.46c0.8,0.8,0.99,2.04,0.95,2.64c-0.2,2.6-1.01,9.41-2.01,15.43" /><path d="M32.67,69.82c2.34,0.72,5.13,0.35,7.49,0.11c8.68-0.89,26.32-2.79,34.59-3.29c2.12-0.13,4.29-0.25,6.4,0.14" /><g><path d="M37.67,82.25c5.7-0.75,10.04-1.68,14-2.02c1.16-0.1,1.9-0.1,2.5-0.04" /><path d="M36.18,76.14c0.78,0.78,0.77,1.61,0.77,2.71c0,1.18-0.01,11.61-0.01,15.65c0,2.55,0.78,3.29,3.29,2.36c4.27-1.58,8.01-3.23,12.38-4.61" /><g><path d="M83.38,76.48c-0.13,0.77-0.66,1.31-1.32,1.67c-3.82,2.1-8.44,3.98-15.95,6.54" /><path d="M63.03,72.2c0.89,0.89,1.04,1.93,1.04,3.47c0,1.31-0.06,11.68-0.06,13.21c0,6.88,1.38,8.71,14.29,8.71c12.71,0,14.99-1.83,14.99-6.65" /></g></g></g></g></g><g fill="none" stroke="#000" stroke-width="5" stroke-linecap="round" stroke-linejoin="round"><g><g><g><g><path d="M19.25,14.14c1.48,0.6,3.33,0.42,4.88,0.3c5.39-0.44,15.28-1.74,21.5-2.34c1.37-0.13,3.51-0.16,4.87,0.17" stroke-dasharray="31.45" stroke-dashoffset="31.45"><animate id="0" attributeName="stroke-dashoffset" values="31.45;0" dur="0.31s" fill="freeze" begin="0s;9e97.click" /></path></g><path d="M24.27,23.67c0.72,0.72,0.84,1.64,0.84,2.44c0,0.54-0.04,5.8-0.04,9.9c0,1.97,0.01,3.49,0.04,3.75" stroke-dasharray="16.3" stroke-dashoffset="16.3"><animate attributeName="stroke-dashoffset" values="16.3" fill="freeze" begin="9e97.click" /><animate id="1" attributeName="stroke-dashoffset" values="16.3;0" dur="0.16s" fill="freeze" begin="0.end" /></path><path d="M26.09,24.52c1.36-0.08,12.33-1.68,16.92-2.29c2.6-0.35,3.85-0.08,3.81,2.77c-0.03,2.19,0.03,6.46-0.03,9.51c-0.03,1.86-0.04,3.55-0.04,3.74" stroke-dasharray="36.15" stroke-dashoffset="36.15"><animate attributeName="stroke-dashoffset" values="36.15" fill="freeze" begin="9e97.click" /><animate id="2" attributeName="stroke-dashoffset" values="36.15;0" dur="0.36s" fill="freeze" begin="1.end" /></path><path d="M32.13,30.25c2.34,1.03,6.03,4.24,6.62,5.84" stroke-dasharray="8.95" stroke-dashoffset="8.95"><animate attributeName="stroke-dashoffset" values="8.95" fill="freeze" begin="9e97.click" /><animate id="3" attributeName="stroke-dashoffset" values="8.95;0" dur="0.09s" fill="freeze" begin="2.end" /></path></g><g><g><path d="M59,12.64c2.25,0.36,3.84,0.16,5.62-0.04c5.47-0.61,14.98-1.69,20.5-2.11c1.56-0.12,3.33-0.35,4.88,0.02" stroke-dasharray="31.15" stroke-dashoffset="31.15"><animate attributeName="stroke-dashoffset" values="31.15" fill="freeze" begin="9e97.click" /><animate id="4" attributeName="stroke-dashoffset" values="31.15;0" dur="0.31s" fill="freeze" begin="3.end" /></path></g><path d="M61.77,21.92c0.78,0.78,0.84,1.83,0.84,2.94c0,0.52-0.04,4.81-0.04,8.9c0,2.09,0.01,3.73,0.04,4" stroke-dasharray="16.05" stroke-dashoffset="16.05"><animate attributeName="stroke-dashoffset" values="16.05" fill="freeze" begin="9e97.click" /><animate id="5" attributeName="stroke-dashoffset" values="16.05;0" dur="0.16s" fill="freeze" begin="4.end" /></path><path d="M63.09,22.52c1.43-0.09,15.06-1.83,19.67-2.37c2.48-0.29,3.37,0,3.37,2.6c0,2.57,0,6.48,0.06,10.13c0.03,2.02,0.05,3.52,0.05,3.58" stroke-dasharray="38.8" stroke-dashoffset="38.8"><animate attributeName="stroke-dashoffset" values="38.8" fill="freeze" begin="9e97.click" /><animate id="6" attributeName="stroke-dashoffset" values="38.8;0" dur="0.39s" fill="freeze" begin="5.end" /></path><path d="M70.76,28.12c2.03,0.96,5.23,3.97,5.74,5.47" stroke-dasharray="8.04" stroke-dashoffset="8.04"><animate attributeName="stroke-dashoffset" values="8.04" fill="freeze" begin="9e97.click" /><animate id="7" attributeName="stroke-dashoffset" values="8.04;0" dur="0.08s" fill="freeze" begin="6.end" /></path></g></g><g><g><path d="M55.27,36.13c0.92,0.93,1.05,1.87,1.05,3.31c0,0.56-0.07,2.19-0.07,4.69" stroke-dasharray="8.27" stroke-dashoffset="8.27"><animate attributeName="stroke-dashoffset" values="8.27" fill="freeze" begin="9e97.click" /><animate id="8" attributeName="stroke-dashoffset" values="8.27;0" dur="0.08s" fill="freeze" begin="7.end" /></path><g><path d="M26.45,46.85c2.52,0.69,5.09,0.65,7.67,0.51c12.95-0.7,30.53-2.88,43.13-3.8c3.25-0.24,6.11-0.71,9.38-0.18" stroke-dasharray="60.43" stroke-dashoffset="60.43"><animate attributeName="stroke-dashoffset" values="60.43" fill="freeze" begin="9e97.click" /><animate id="9" attributeName="stroke-dashoffset" values="60.43;0" dur="0.45s" fill="freeze" begin="8.end" /></path><path d="M27.95,47.99c0.91,0.91,1.04,2.12,0.92,3.72c-0.74,10.04-2.62,31.79-14.06,44.42" stroke-dasharray="51.38" stroke-dashoffset="51.38"><animate attributeName="stroke-dashoffset" values="51.38" fill="freeze" begin="9e97.click" /><animate id="10" attributeName="stroke-dashoffset" values="51.38;0" dur="0.51s" fill="freeze" begin="9.end" /></path></g></g><path d="M33.94,57.08c1.83,0.44,3.38,0.73,5.28,0.56c13.09-1.22,30.4-3.13,38.95-3.89c2.74-0.24,3.12,1.66,2.73,3.26c-0.9,3.62-1.4,5.99-2.13,8.78" stroke-dasharray="58.76" stroke-dashoffset="58.76"><animate attributeName="stroke-dashoffset" values="58.76" fill="freeze" begin="9e97.click" /><animate id="11" attributeName="stroke-dashoffset" values="58.76;0" dur="0.59s" fill="freeze" begin="10.end" /></path><path d="M45.51,50.65c0.85,0.85,1.11,1.6,1.2,2.64c0.05,0.6,0.79,9.71,1.07,14.45" stroke-dasharray="17.46" stroke-dashoffset="17.46"><animate attributeName="stroke-dashoffset" values="17.46" fill="freeze" begin="9e97.click" /><animate id="12" attributeName="stroke-dashoffset" values="17.46;0" dur="0.17s" fill="freeze" begin="11.end" /></path><path d="M63.69,48.46c0.8,0.8,0.99,2.04,0.95,2.64c-0.2,2.6-1.01,9.41-2.01,15.43" stroke-dasharray="18.44" stroke-dashoffset="18.44"><animate attributeName="stroke-dashoffset" values="18.44" fill="freeze" begin="9e97.click" /><animate id="13" attributeName="stroke-dashoffset" values="18.44;0" dur="0.18s" fill="freeze" begin="12.end" /></path><path d="M32.67,69.82c2.34,0.72,5.13,0.35,7.49,0.11c8.68-0.89,26.32-2.79,34.59-3.29c2.12-0.13,4.29-0.25,6.4,0.14" stroke-dasharray="48.71" stroke-dashoffset="48.71"><animate attributeName="stroke-dashoffset" values="48.71" fill="freeze" begin="9e97.click" /><animate id="14" attributeName="stroke-dashoffset" values="48.71;0" dur="0.49s" fill="freeze" begin="13.end" /></path><g><path d="M37.67,82.25c5.7-0.75,10.04-1.68,14-2.02c1.16-0.1,1.9-0.1,2.5-0.04" stroke-dasharray="16.65" stroke-dashoffset="16.65"><animate attributeName="stroke-dashoffset" values="16.65" fill="freeze" begin="9e97.click" /><animate id="15" attributeName="stroke-dashoffset" values="16.65;0" dur="0.17s" fill="freeze" begin="14.end" /></path><path d="M36.18,76.14c0.78,0.78,0.77,1.61,0.77,2.71c0,1.18-0.01,11.61-0.01,15.65c0,2.55,0.78,3.29,3.29,2.36c4.27-1.58,8.01-3.23,12.38-4.61" stroke-dasharray="37.13" stroke-dashoffset="37.13"><animate attributeName="stroke-dashoffset" values="37.13" fill="freeze" begin="9e97.click" /><animate id="16" attributeName="stroke-dashoffset" values="37.13;0" dur="0.37s" fill="freeze" begin="15.end" /></path><g><path d="M83.38,76.48c-0.13,0.77-0.66,1.31-1.32,1.67c-3.82,2.1-8.44,3.98-15.95,6.54" stroke-dasharray="19.47" stroke-dashoffset="19.47"><animate attributeName="stroke-dashoffset" values="19.47" fill="freeze" begin="9e97.click" /><animate id="17" attributeName="stroke-dashoffset" values="19.47;0" dur="0.19s" fill="freeze" begin="16.end" /></path><path d="M63.03,72.2c0.89,0.89,1.04,1.93,1.04,3.47c0,1.31-0.06,11.68-0.06,13.21c0,6.88,1.38,8.71,14.29,8.71c12.71,0,14.99-1.83,14.99-6.65" stroke-dasharray="55.48" stroke-dashoffset="55.48"><animate attributeName="stroke-dashoffset" values="55.48" fill="freeze" begin="9e97.click" /><animate id="18" attributeName="stroke-dashoffset" values="55.48;0" dur="0.55s" fill="freeze" begin="17.end" /></path></g></g></g></g></g></svg>