<svg xmlns="http://www.w3.org/2000/svg" width="109" height="109" viewBox="0 0 109 109" id="9ea5"><g fill="none" stroke="#666" stroke-width="9" stroke-linecap="round" stroke-linejoin="round"><g><g><g><path d="M21.1,23.02c1.76,0.6,3.77,0.79,5.8,0.6c10.33-0.98,40.33-4.39,55.96-5.54c2.01-0.15,3.28,0.1,5.29,0.52" /></g><g><g><path d="M34.22,27.67c0,0.49,0.07,0.9-0.12,1.47c-1.76,5.31-6.99,11.93-14.69,17.8" /><path d="M34.32,36.2c3.09,1.2,7.04,4.39,8.55,7.41" /></g><g><path d="M73.6,24.85c0,0.36,0.08,0.68-0.08,1.09c-1.41,3.57-5.44,9.92-10.24,13.52" /><path d="M71.37,33.38c4.6,2.58,8.13,5.82,10.88,9.74" /></g></g><g><path d="M52.67,11.75c0.83,0.33,1.49,1.47,1.49,2.16c0,6.97,0,31.94-0.17,36.09" /><path d="M54,36.8c-6.23,9.12-22.93,23.06-35.89,28.23" /><path d="M54.16,37.63c5.03,3.25,28.71,19.53,34.18,22.72c1.85,1.08,3.45,1.54,5.3,1.85" /></g></g><g><path d="M50.64,53.25c0.07,0.66,0.15,1.71-0.14,2.66c-1.76,5.62-11.87,17.94-25.7,25.48" /><path d="M49.2,63.38c0.23,0.03,1.46,0.25,2.12,0.18c2.92-0.32,14.65-4,17.72-4.8c2.1-0.55,2.8,0.67,2.17,2.13C66,73,53,89.5,31.76,99" /><path d="M42.92,74.89c9.9,3.02,20.45,10.42,26.45,17.6" /></g></g></g><g fill="none" stroke="#000" stroke-width="5" stroke-linecap="round" stroke-linejoin="round"><path d="M21.1,23.02c1.76,0.6,3.77,0.79,5.8,0.6c10.33-0.98,40.33-4.39,55.96-5.54c2.01-0.15,3.28,0.1,5.29,0.52" stroke-dasharray="67.448" stroke-dashoffset="67.448"><animate attributeName="stroke-dashoffset" values="67.448;67.448;0" dur="0.507s" fill="freeze" begin="0s;9ea5.click" /></path><path d="M34.22,27.67c0,0.49,0.07,0.9-0.12,1.47c-1.76,5.31-6.99,11.93-14.69,17.8" stroke-dasharray="24.868" stroke-dashoffset="24.868"><animate attributeName="stroke-dashoffset" values="24.868" fill="freeze" begin="9ea5.click" /><animate attributeName="stroke-dashoffset" values="24.868;24.868;0" keyTimes="0;0.671;1" dur="0.756s" fill="freeze" begin="0s;9ea5.click" /></path><path d="M34.32,36.2c3.09,1.2,7.04,4.39,8.55,7.41" stroke-dasharray="11.52" stroke-dashoffset="11.52"><animate attributeName="stroke-dashoffset" values="11.52" fill="freeze" begin="9ea5.click" /><animate attributeName="stroke-dashoffset" values="11.52;11.52;0" keyTimes="0;0.868;1" dur="0.871s" fill="freeze" begin="0s;9ea5.click" /></path><path d="M73.6,24.85c0,0.36,0.08,0.68-0.08,1.09c-1.41,3.57-5.44,9.92-10.24,13.52" stroke-dasharray="18.236" stroke-dashoffset="18.236"><animate attributeName="stroke-dashoffset" values="18.236" fill="freeze" begin="9ea5.click" /><animate attributeName="stroke-dashoffset" values="18.236;18.236;0" keyTimes="0;0.827;1" dur="1.053s" fill="freeze" begin="0s;9ea5.click" /></path><path d="M71.37,33.38c4.6,2.58,8.13,5.82,10.88,9.74" stroke-dasharray="14.731" stroke-dashoffset="14.731"><animate attributeName="stroke-dashoffset" values="14.731" fill="freeze" begin="9ea5.click" /><animate attributeName="stroke-dashoffset" values="14.731;14.731;0" keyTimes="0;0.878;1" dur="1.2s" fill="freeze" begin="0s;9ea5.click" /></path><path d="M52.67,11.75c0.83,0.33,1.49,1.47,1.49,2.16c0,6.97,0,31.94-0.17,36.09" stroke-dasharray="38.837" stroke-dashoffset="38.837"><animate attributeName="stroke-dashoffset" values="38.837" fill="freeze" begin="9ea5.click" /><animate attributeName="stroke-dashoffset" values="38.837;38.837;0" keyTimes="0;0.756;1" dur="1.588s" fill="freeze" begin="0s;9ea5.click" /></path><path d="M54,36.8c-6.23,9.12-22.93,23.06-35.89,28.23" stroke-dasharray="46.137" stroke-dashoffset="46.137"><animate attributeName="stroke-dashoffset" values="46.137" fill="freeze" begin="9ea5.click" /><animate attributeName="stroke-dashoffset" values="46.137;46.137;0" keyTimes="0;0.775;1" dur="2.049s" fill="freeze" begin="0s;9ea5.click" /></path><path d="M54.16,37.63c5.03,3.25,28.71,19.53,34.18,22.72c1.85,1.08,3.45,1.54,5.3,1.85" stroke-dasharray="46.694" stroke-dashoffset="46.694"><animate attributeName="stroke-dashoffset" values="46.694" fill="freeze" begin="9ea5.click" /><animate attributeName="stroke-dashoffset" values="46.694;46.694;0" keyTimes="0;0.814;1" dur="2.516s" fill="freeze" begin="0s;9ea5.click" /></path><path d="M50.64,53.25c0.07,0.66,0.15,1.71-0.14,2.66c-1.76,5.62-11.87,17.94-25.7,25.48" stroke-dasharray="39.468" stroke-dashoffset="39.468"><animate attributeName="stroke-dashoffset" values="39.468" fill="freeze" begin="9ea5.click" /><animate attributeName="stroke-dashoffset" values="39.468;39.468;0" keyTimes="0;0.864;1" dur="2.911s" fill="freeze" begin="0s;9ea5.click" /></path><path d="M49.2,63.38c0.23,0.03,1.46,0.25,2.12,0.18c2.92-0.32,14.65-4,17.72-4.8c2.1-0.55,2.8,0.67,2.17,2.13C66,73,53,89.5,31.76,99" stroke-dasharray="80.709" stroke-dashoffset="80.709"><animate attributeName="stroke-dashoffset" values="80.709" fill="freeze" begin="9ea5.click" /><animate attributeName="stroke-dashoffset" values="80.709;80.709;0" keyTimes="0;0.827;1" dur="3.518s" fill="freeze" begin="0s;9ea5.click" /></path><path d="M42.92,74.89c9.9,3.02,20.45,10.42,26.45,17.6" stroke-dasharray="32.158" stroke-dashoffset="32.158"><animate attributeName="stroke-dashoffset" values="32.158" fill="freeze" begin="9ea5.click" /><animate attributeName="stroke-dashoffset" values="32.158;32.158;0" keyTimes="0;0.916;1" dur="3.84s" fill="freeze" begin="0s;9ea5.click" /></path></g></svg>