<svg xmlns="http://www.w3.org/2000/svg" viewBox="0 0 109 109" id="9ead"><g fill="none" stroke="#666" stroke-width="6" stroke-linecap="round" stroke-linejoin="round"><g><g><g><g><path d="M14.46,24.24c1.31,0.4,2.8,0.43,4.31,0.4c7.98-0.14,17.32-1.93,28.94-2.7c1.5-0.1,2.44,0.07,3.94,0.35" /></g><g><g><path d="M22.13,31.52c0,0.37,0.05,0.68-0.07,1.11c-1.1,4.02-4.37,9.02-9.19,13.47" /><path d="M20.1,38.26c1.96,0.9,4.47,3.29,5.43,5.56" /></g><g><path d="M46.3,28.61c0,0.28,0.05,0.52-0.05,0.83c-0.86,2.72-3.33,7.55-6.26,10.29" /><path d="M45.81,35.35c2.67,1.93,4.72,4.34,6.32,7.27" /></g></g><g><path d="M31.94,12.75c1.1,0.44,1.99,1.96,1.99,2.87c0,9.27-0.22,30.88-0.22,39.38" /><path d="M33.43,40.2C29.71,47.91,19.74,59.7,12,64.06" /><path d="M36.32,44.91c4.98,1.82,12.22,7.28,16.09,11.23" /></g></g><g><path d="M28.38,57.5c0.04,0.53,0.09,1.37-0.09,2.13c-1.05,4.5-7.06,14.38-15.29,20.42" /><path d="M30.07,64.27c0.26,0.03,1.67,0.29,2.42,0.2c3.34-0.36,7.72-1.71,11.22-2.62c2.4-0.63,3.08,0.72,2.47,2.44c-3.36,9.39-19.32,28.38-34.32,33.21" /><path d="M23.39,69.78c8.38,4.29,46.34,20.58,57.63,24.49c3.37,1.17,6.09,1.74,9.37,2.08" /></g></g><g><g><g><path d="M68.36,13.5c0.04,0.68,0.19,1.81-0.07,2.73c-1.67,6.03-6.2,17.36-12.44,26.17" /></g><path d="M66.48,28.19c0.74,0.49,1.78,0.65,2.97,0.33c1.19-0.33,17.88-3.41,20.84-3.7c1.4-0.13,3.09,0.9,2.93,2.72C92,41.25,90.62,53.1,86.1,64.92c-1.85,4.83-4.1,1.83-5.25-0.81" /></g><g><g><path d="M61.85,41.2c0.97,0.75,1.8,0.75,3.22,0.5c2.89-0.51,11.22-2.61,12.11-2.7c1.17-0.12,2.08,0.82,1.67,2.77c-0.12,0.58-2.23,9.02-3.62,14.19" /><path d="M62.39,57.24c3.12-0.36,10.04-1.43,14.48-1.74" /><path d="M60.72,39.89c0.62,0.88,1.15,1.91,1.14,3.26c-0.02,4.33,0.1,23.77,0.1,27.55c0,8.21,1.81,9.24,17.48,9.24c13.09,0,14.7-2.45,14.7-10.28" /></g></g></g></g></g><g fill="none" stroke="#000" stroke-width="3" stroke-linecap="round" stroke-linejoin="round"><path d="M14.46,24.24c1.31,0.4,2.8,0.43,4.31,0.4c7.98-0.14,17.32-1.93,28.94-2.7c1.5-0.1,2.44,0.07,3.94,0.35" stroke-dasharray="37.39" stroke-dashoffset="37.39"><animate attributeName="stroke-dashoffset" values="37.39;37.39;0" dur="0.374s" fill="freeze" begin="0s;9ead.click" /></path><path d="M22.13,31.52c0,0.37,0.05,0.68-0.07,1.11c-1.1,4.02-4.37,9.02-9.19,13.47" stroke-dasharray="17.615" stroke-dashoffset="17.615"><animate attributeName="stroke-dashoffset" values="17.615" fill="freeze" begin="9ead.click" /><animate attributeName="stroke-dashoffset" values="17.615;17.615;0" keyTimes="0;0.68;1" dur="0.55s" fill="freeze" begin="0s;9ead.click" /></path><path d="M20.1,38.26c1.96,0.9,4.47,3.29,5.43,5.56" stroke-dasharray="7.916" stroke-dashoffset="7.916"><animate attributeName="stroke-dashoffset" values="7.916" fill="freeze" begin="9ead.click" /><animate attributeName="stroke-dashoffset" values="7.916;7.916;0" keyTimes="0;0.874;1" dur="0.629s" fill="freeze" begin="0s;9ead.click" /></path><path d="M46.3,28.61c0,0.28,0.05,0.52-0.05,0.83c-0.86,2.72-3.33,7.55-6.26,10.29" stroke-dasharray="12.987" stroke-dashoffset="12.987"><animate attributeName="stroke-dashoffset" values="12.987" fill="freeze" begin="9ead.click" /><animate attributeName="stroke-dashoffset" values="12.987;12.987;0" keyTimes="0;0.829;1" dur="0.759s" fill="freeze" begin="0s;9ead.click" /></path><path d="M45.81,35.35c2.67,1.93,4.72,4.34,6.32,7.27" stroke-dasharray="9.717" stroke-dashoffset="9.717"><animate attributeName="stroke-dashoffset" values="9.717" fill="freeze" begin="9ead.click" /><animate attributeName="stroke-dashoffset" values="9.717;9.717;0" keyTimes="0;0.887;1" dur="0.856s" fill="freeze" begin="0s;9ead.click" /></path><path d="M31.94,12.75c1.1,0.44,1.99,1.96,1.99,2.87c0,9.27-0.22,30.88-0.22,39.38" stroke-dasharray="43.033" stroke-dashoffset="43.033"><animate attributeName="stroke-dashoffset" values="43.033" fill="freeze" begin="9ead.click" /><animate attributeName="stroke-dashoffset" values="43.033;43.033;0" keyTimes="0;0.666;1" dur="1.286s" fill="freeze" begin="0s;9ead.click" /></path><path d="M33.43,40.2C29.71,47.91,19.74,59.7,12,64.06" stroke-dasharray="32.423" stroke-dashoffset="32.423"><animate attributeName="stroke-dashoffset" values="32.423" fill="freeze" begin="9ead.click" /><animate attributeName="stroke-dashoffset" values="32.423;32.423;0" keyTimes="0;0.799;1" dur="1.61s" fill="freeze" begin="0s;9ead.click" /></path><path d="M36.32,44.91c4.98,1.82,12.22,7.28,16.09,11.23" stroke-dasharray="19.742" stroke-dashoffset="19.742"><animate attributeName="stroke-dashoffset" values="19.742" fill="freeze" begin="9ead.click" /><animate attributeName="stroke-dashoffset" values="19.742;19.742;0" keyTimes="0;0.891;1" dur="1.807s" fill="freeze" begin="0s;9ead.click" /></path><path d="M28.38,57.5c0.04,0.53,0.09,1.37-0.09,2.13c-1.05,4.5-7.06,14.38-15.29,20.42" stroke-dasharray="28.031" stroke-dashoffset="28.031"><animate attributeName="stroke-dashoffset" values="28.031" fill="freeze" begin="9ead.click" /><animate attributeName="stroke-dashoffset" values="28.031;28.031;0" keyTimes="0;0.866;1" dur="2.087s" fill="freeze" begin="0s;9ead.click" /></path><path d="M30.07,64.27c0.26,0.03,1.67,0.29,2.42,0.2c3.34-0.36,7.72-1.71,11.22-2.62c2.4-0.63,3.08,0.72,2.47,2.44c-3.36,9.39-19.32,28.38-34.32,33.21" stroke-dasharray="67.58" stroke-dashoffset="67.58"><animate attributeName="stroke-dashoffset" values="67.58" fill="freeze" begin="9ead.click" /><animate attributeName="stroke-dashoffset" values="67.58;67.58;0" keyTimes="0;0.804;1" dur="2.595s" fill="freeze" begin="0s;9ead.click" /></path><path d="M23.39,69.78c8.38,4.29,46.34,20.58,57.63,24.49c3.37,1.17,6.09,1.74,9.37,2.08" stroke-dasharray="72.258" stroke-dashoffset="72.258"><animate attributeName="stroke-dashoffset" values="72.258" fill="freeze" begin="9ead.click" /><animate attributeName="stroke-dashoffset" values="72.258;72.258;0" keyTimes="0;0.827;1" dur="3.138s" fill="freeze" begin="0s;9ead.click" /></path><path d="M68.36,13.5c0.04,0.68,0.19,1.81-0.07,2.73c-1.67,6.03-6.2,17.36-12.44,26.17" stroke-dasharray="31.843" stroke-dashoffset="31.843"><animate attributeName="stroke-dashoffset" values="31.843" fill="freeze" begin="9ead.click" /><animate attributeName="stroke-dashoffset" values="31.843;31.843;0" keyTimes="0;0.908;1" dur="3.456s" fill="freeze" begin="0s;9ead.click" /></path><path d="M66.48,28.19c0.74,0.49,1.78,0.65,2.97,0.33c1.19-0.33,17.88-3.41,20.84-3.7c1.4-0.13,3.09,0.9,2.93,2.72C92,41.25,90.62,53.1,86.1,64.92c-1.85,4.83-4.1,1.83-5.25-0.81" stroke-dasharray="75.315" stroke-dashoffset="75.315"><animate attributeName="stroke-dashoffset" values="75.315" fill="freeze" begin="9ead.click" /><animate attributeName="stroke-dashoffset" values="75.315;75.315;0" keyTimes="0;0.859;1" dur="4.022s" fill="freeze" begin="0s;9ead.click" /></path><path d="M61.85,41.2c0.97,0.75,1.8,0.75,3.22,0.5c2.89-0.51,11.22-2.61,12.11-2.7c1.17-0.12,2.08,0.82,1.67,2.77c-0.12,0.58-2.23,9.02-3.62,14.19" stroke-dasharray="34.302" stroke-dashoffset="34.302"><animate attributeName="stroke-dashoffset" values="34.302" fill="freeze" begin="9ead.click" /><animate attributeName="stroke-dashoffset" values="34.302;34.302;0" keyTimes="0;0.921;1" dur="4.365s" fill="freeze" begin="0s;9ead.click" /></path><path d="M62.39,57.24c3.12-0.36,10.04-1.43,14.48-1.74" stroke-dasharray="14.587" stroke-dashoffset="14.587"><animate attributeName="stroke-dashoffset" values="14.587" fill="freeze" begin="9ead.click" /><animate attributeName="stroke-dashoffset" values="14.587;14.587;0" keyTimes="0;0.968;1" dur="4.511s" fill="freeze" begin="0s;9ead.click" /></path><path d="M60.72,39.89c0.62,0.88,1.15,1.91,1.14,3.26c-0.02,4.33,0.1,23.77,0.1,27.55c0,8.21,1.81,9.24,17.48,9.24c13.09,0,14.7-2.45,14.7-10.28" stroke-dasharray="75.961" stroke-dashoffset="75.961"><animate attributeName="stroke-dashoffset" values="75.961" fill="freeze" begin="9ead.click" /><animate attributeName="stroke-dashoffset" values="75.961;75.961;0" keyTimes="0;0.888;1" dur="5.082s" fill="freeze" begin="0s;9ead.click" /></path></g></svg>