<svg xmlns="http://www.w3.org/2000/svg" width="109" height="109" viewBox="0 0 109 109" id="9eba"><g fill="none" stroke="#666" stroke-width="9" stroke-linecap="round" stroke-linejoin="round"><g><g><g><path d="M14.02,25.82c0.68,0.23,1.93,0.23,2.62,0.23c8.86-0.05,24.76-2.8,31-3.14c1.14-0.06,1.82,0.11,2.39,0.22" /><path d="M31.08,13.25c0.72,0.5,1.15,2.25,1.3,3.25c0.14,1-0.14,20-0.14,31" /><path d="M16.02,36.9c1.5,0.22,3,0.25,4.5,0.09c6.57-0.42,16.99-2.1,22.76-2.69c1.42-0.24,2.84-0.24,4.25,0" /><path d="M11.55,49.82c1.56,0.26,3.13,0.33,4.7,0.21c8.65-0.3,22.86-2.5,31.26-3.4c1.46-0.3,2.91-0.3,4.35,0" /></g><g><path d="M29.18,52.75c0.04,0.57,0.09,1.46-0.09,2.27c-1.04,4.79-6.98,15.29-15.12,21.73" /><path d="M29.2,63c1.05,0.25,2.06,0.28,2.83,0.07c2.73-0.75,9.61-2.2,11.74-2.93c1.75-0.6,2.64,0.58,1.86,2.97c-3,9.2-19.98,29.86-31.71,34.77" /><path d="M20.54,69.75C31.33,73.69,67.88,90.27,81.2,94.5c3.97,1.26,7.18,1.88,11.05,2.25" /></g></g><g><path d="M56.75,22.43c1.75,0.49,3.51,0.59,5.28,0.28c8.48-0.8,24.57-2.72,31.31-2.8c1.45-0.02,2.32,0.22,3.04,0.45" /><path d="M74.07,24.73c0.02,0.32,0.05,0.83-0.05,1.29c-0.56,2.71-3.79,8.67-8.21,12.32" /><path d="M56.75,38.86c0.59,0.81,0.81,1.42,0.92,2.48C58.83,52.54,59.5,68,59.52,80.6" /><path d="M57.71,41.01c9.55-1.09,28.03-4.14,34.12-4.38c2.52-0.1,3.84,2.21,3.66,4.52c-0.76,9.57-1.56,27.6-3.37,39.05" /><path d="M69.08,40.76c0.39,0.63,0.78,1.68,0.78,2.52s1.02,33.85,1.02,33.85" /><path d="M81.19,38.66c0.39,1.05,0.78,1.68,0.78,2.52c0,0.84-0.91,32.8-0.91,34.9" /><path d="M70.25,51.28c1.3,0,9.64-1.47,10.94-1.47" /><path d="M70.64,63.52c2.21-0.42,8.6-1.26,10.42-1.47" /><path d="M60.25,79.24c2.73-0.21,27.98-2.02,31.22-2.02" /></g></g></g><g fill="none" stroke="#000" stroke-width="5" stroke-linecap="round" stroke-linejoin="round"><g><g><g><path d="M14.02,25.82c0.68,0.23,1.93,0.23,2.62,0.23c8.86-0.05,24.76-2.8,31-3.14c1.14-0.06,1.82,0.11,2.39,0.22" stroke-dasharray="36.22" stroke-dashoffset="36.22"><animate id="0" attributeName="stroke-dashoffset" values="36.22;0" dur="0.36s" fill="freeze" begin="0s;9eba.click" /></path><path d="M31.08,13.25c0.72,0.5,1.15,2.25,1.3,3.25c0.14,1-0.14,20-0.14,31" stroke-dasharray="34.57" stroke-dashoffset="34.57"><animate attributeName="stroke-dashoffset" values="34.57" fill="freeze" begin="9eba.click" /><animate id="1" attributeName="stroke-dashoffset" values="34.57;0" dur="0.35s" fill="freeze" begin="0.end" /></path><path d="M16.02,36.9c1.5,0.22,3,0.25,4.5,0.09c6.57-0.42,16.99-2.1,22.76-2.69c1.42-0.24,2.84-0.24,4.25,0" stroke-dasharray="31.7" stroke-dashoffset="31.7"><animate attributeName="stroke-dashoffset" values="31.7" fill="freeze" begin="9eba.click" /><animate id="2" attributeName="stroke-dashoffset" values="31.7;0" dur="0.32s" fill="freeze" begin="1.end" /></path><path d="M11.55,49.82c1.56,0.26,3.13,0.33,4.7,0.21c8.65-0.3,22.86-2.5,31.26-3.4c1.46-0.3,2.91-0.3,4.35,0" stroke-dasharray="40.55" stroke-dashoffset="40.55"><animate attributeName="stroke-dashoffset" values="40.55" fill="freeze" begin="9eba.click" /><animate id="3" attributeName="stroke-dashoffset" values="40.55;0" dur="0.41s" fill="freeze" begin="2.end" /></path></g><g><path d="M29.18,52.75c0.04,0.57,0.09,1.46-0.09,2.27c-1.04,4.79-6.98,15.29-15.12,21.73" stroke-dasharray="29.13" stroke-dashoffset="29.13"><animate attributeName="stroke-dashoffset" values="29.13" fill="freeze" begin="9eba.click" /><animate id="4" attributeName="stroke-dashoffset" values="29.13;0" dur="0.29s" fill="freeze" begin="3.end" /></path><path d="M29.2,63c1.05,0.25,2.06,0.28,2.83,0.07c2.73-0.75,9.61-2.2,11.74-2.93c1.75-0.6,2.64,0.58,1.86,2.97c-3,9.2-19.98,29.86-31.71,34.77" stroke-dasharray="67.59" stroke-dashoffset="67.59"><animate attributeName="stroke-dashoffset" values="67.59" fill="freeze" begin="9eba.click" /><animate id="5" attributeName="stroke-dashoffset" values="67.59;0" dur="0.51s" fill="freeze" begin="4.end" /></path><path d="M20.54,69.75C31.33,73.69,67.88,90.27,81.2,94.5c3.97,1.26,7.18,1.88,11.05,2.25" stroke-dasharray="76.83" stroke-dashoffset="76.83"><animate attributeName="stroke-dashoffset" values="76.83" fill="freeze" begin="9eba.click" /><animate id="6" attributeName="stroke-dashoffset" values="76.83;0" dur="0.58s" fill="freeze" begin="5.end" /></path></g></g><g><path d="M56.75,22.43c1.75,0.49,3.51,0.59,5.28,0.28c8.48-0.8,24.57-2.72,31.31-2.8c1.45-0.02,2.32,0.22,3.04,0.45" stroke-dasharray="39.86" stroke-dashoffset="39.86"><animate attributeName="stroke-dashoffset" values="39.86" fill="freeze" begin="9eba.click" /><animate id="7" attributeName="stroke-dashoffset" values="39.86;0" dur="0.4s" fill="freeze" begin="6.end" /></path><path d="M74.07,24.73c0.02,0.32,0.05,0.83-0.05,1.29c-0.56,2.71-3.79,8.67-8.21,12.32" stroke-dasharray="16.3" stroke-dashoffset="16.3"><animate attributeName="stroke-dashoffset" values="16.3" fill="freeze" begin="9eba.click" /><animate id="8" attributeName="stroke-dashoffset" values="16.3;0" dur="0.16s" fill="freeze" begin="7.end" /></path><path d="M56.75,38.86c0.59,0.81,0.81,1.42,0.92,2.48C58.83,52.54,59.5,68,59.52,80.6" stroke-dasharray="42" stroke-dashoffset="42"><animate attributeName="stroke-dashoffset" values="42" fill="freeze" begin="9eba.click" /><animate id="9" attributeName="stroke-dashoffset" values="42;0" dur="0.42s" fill="freeze" begin="8.end" /></path><path d="M57.71,41.01c9.55-1.09,28.03-4.14,34.12-4.38c2.52-0.1,3.84,2.21,3.66,4.52c-0.76,9.57-1.56,27.6-3.37,39.05" stroke-dasharray="80.23" stroke-dashoffset="80.23"><animate attributeName="stroke-dashoffset" values="80.23" fill="freeze" begin="9eba.click" /><animate id="10" attributeName="stroke-dashoffset" values="80.23;0" dur="0.6s" fill="freeze" begin="9.end" /></path><path d="M69.08,40.76c0.39,0.63,0.78,1.68,0.78,2.52s1.02,33.85,1.02,33.85" stroke-dasharray="36.53" stroke-dashoffset="36.53"><animate attributeName="stroke-dashoffset" values="36.53" fill="freeze" begin="9eba.click" /><animate id="11" attributeName="stroke-dashoffset" values="36.53;0" dur="0.37s" fill="freeze" begin="10.end" /></path><path d="M81.19,38.66c0.39,1.05,0.78,1.68,0.78,2.52c0,0.84-0.91,32.8-0.91,34.9" stroke-dasharray="37.57" stroke-dashoffset="37.57"><animate attributeName="stroke-dashoffset" values="37.57" fill="freeze" begin="9eba.click" /><animate id="12" attributeName="stroke-dashoffset" values="37.57;0" dur="0.38s" fill="freeze" begin="11.end" /></path><path d="M70.25,51.28c1.3,0,9.64-1.47,10.94-1.47" stroke-dasharray="11.04" stroke-dashoffset="11.04"><animate attributeName="stroke-dashoffset" values="11.04" fill="freeze" begin="9eba.click" /><animate id="13" attributeName="stroke-dashoffset" values="11.04;0" dur="0.11s" fill="freeze" begin="12.end" /></path><path d="M70.64,63.52c2.21-0.42,8.6-1.26,10.42-1.47" stroke-dasharray="10.52" stroke-dashoffset="10.52"><animate attributeName="stroke-dashoffset" values="10.52" fill="freeze" begin="9eba.click" /><animate id="14" attributeName="stroke-dashoffset" values="10.52;0" dur="0.11s" fill="freeze" begin="13.end" /></path><path d="M60.25,79.24c2.73-0.21,27.98-2.02,31.22-2.02" stroke-dasharray="31.29" stroke-dashoffset="31.29"><animate attributeName="stroke-dashoffset" values="31.29" fill="freeze" begin="9eba.click" /><animate id="15" attributeName="stroke-dashoffset" values="31.29;0" dur="0.31s" fill="freeze" begin="14.end" /></path></g></g></g></svg>