<svg xmlns="http://www.w3.org/2000/svg" width="109" height="109" viewBox="0 0 109 109" id="9ed9"><g fill="none" stroke="#666" stroke-width="9" stroke-linecap="round" stroke-linejoin="round"><g><g><g p5:part="1" p5:tradForm p5:phon="黒1" xmlns:p5="http://kanjivg.tagaini.net"><g><path d="M15.41,16.21c0.75,0.75,1.27,2.09,1.46,3.04c1.12,5.62,2.08,11.64,2.94,18.49c0.15,1.2,0.28,2.38,0.38,3.51" /><path d="M17.36,17.66c8.14-1.29,20.06-2.51,27.26-3.4c3.56-0.44,6.23,0.02,5.85,4.12c-0.33,3.52-1.13,9.49-2.17,14.92c-0.33,1.75-0.69,3.44-1.07,4.98" /><path d="M19.69,28.51C22.44,28.12,43,25.5,48.1,25.37" /><path d="M21.34,39.35c7.04-0.97,16.4-1.87,24.79-2.56" /><path d="M32.99,18.2c0.94,0.94,1.01,2.06,1.01,3.43c0,9.62,0.05,36.97,0.05,40.36" /><path d="M17.92,50.64c1.54,0.75,3.85,0.55,5.47,0.41c5.5-0.47,13.34-2.03,20.24-3.03c1.49-0.22,2.62-0.26,4.28-0.04" /><path d="M15.38,66.54c1.07,1.17,2.56,1.13,3.88,0.76c9.07-2.54,19.68-5.66,30.83-8.52" /></g></g><g><g><path d="M56.15,34.58c1.53,0.8,4.79,0.87,6.47,0.65c6.29-0.83,14.77-2.1,20.99-2.83c1.54-0.18,2.86-0.4,4.38-0.04" /><path d="M69.65,13.5c0.6,0.78,1.02,1.56,1.05,3.12C71.12,35.62,66,58.62,49.32,68.75" /><path d="M70.75,35.62c4.38,7.75,11.51,17.78,17.66,24.73c1.17,1.32,2.88,3.53,5.52,5.4" /></g><g><path d="M79.93,16.35c2.7,1.9,5.5,5.25,6.83,8.04" /></g></g></g><g p4:part="2" p4:tradForm p4:phon="黒2" xmlns:p4="http://kanjivg.tagaini.net"><g><path d="M20.44,80.75c-1.19,6-6.9,13-8.44,14.5" /><path d="M37.88,79.62c1.77,2.75,4.39,10.07,3.88,14.62" /><path d="M60.75,78.75c2.75,2.56,6.75,9.98,6.75,14.5" /><path d="M83.33,78.08c3.43,2.93,8.86,12.07,9.72,16.63" /></g></g></g></g><g fill="none" stroke="#000" stroke-width="5" stroke-linecap="round" stroke-linejoin="round"><g><g><g p5:part="1" p5:tradForm p5:phon="黒1" xmlns:p5="http://kanjivg.tagaini.net"><g><path d="M15.41,16.21c0.75,0.75,1.27,2.09,1.46,3.04c1.12,5.62,2.08,11.64,2.94,18.49c0.15,1.2,0.28,2.38,0.38,3.51" stroke-dasharray="25.67" stroke-dashoffset="25.67"><animate id="0" attributeName="stroke-dashoffset" values="25.67;0" dur="0.26s" fill="freeze" begin="0s;9ed9.click" /></path><path d="M17.36,17.66c8.14-1.29,20.06-2.51,27.26-3.4c3.56-0.44,6.23,0.02,5.85,4.12c-0.33,3.52-1.13,9.49-2.17,14.92c-0.33,1.75-0.69,3.44-1.07,4.98" stroke-dasharray="56.43" stroke-dashoffset="56.43"><animate attributeName="stroke-dashoffset" values="56.43" fill="freeze" begin="9ed9.click" /><animate id="1" attributeName="stroke-dashoffset" values="56.43;0" dur="0.56s" fill="freeze" begin="0.end" /></path><path d="M19.69,28.51C22.44,28.12,43,25.5,48.1,25.37" stroke-dasharray="28.59" stroke-dashoffset="28.59"><animate attributeName="stroke-dashoffset" values="28.59" fill="freeze" begin="9ed9.click" /><animate id="2" attributeName="stroke-dashoffset" values="28.59;0" dur="0.29s" fill="freeze" begin="1.end" /></path><path d="M21.34,39.35c7.04-0.97,16.4-1.87,24.79-2.56" stroke-dasharray="24.92" stroke-dashoffset="24.92"><animate attributeName="stroke-dashoffset" values="24.92" fill="freeze" begin="9ed9.click" /><animate id="3" attributeName="stroke-dashoffset" values="24.92;0" dur="0.25s" fill="freeze" begin="2.end" /></path><path d="M32.99,18.2c0.94,0.94,1.01,2.06,1.01,3.43c0,9.62,0.05,36.97,0.05,40.36" stroke-dasharray="44.05" stroke-dashoffset="44.05"><animate attributeName="stroke-dashoffset" values="44.05" fill="freeze" begin="9ed9.click" /><animate id="4" attributeName="stroke-dashoffset" values="44.05;0" dur="0.44s" fill="freeze" begin="3.end" /></path><path d="M17.92,50.64c1.54,0.75,3.85,0.55,5.47,0.41c5.5-0.47,13.34-2.03,20.24-3.03c1.49-0.22,2.62-0.26,4.28-0.04" stroke-dasharray="30.31" stroke-dashoffset="30.31"><animate attributeName="stroke-dashoffset" values="30.31" fill="freeze" begin="9ed9.click" /><animate id="5" attributeName="stroke-dashoffset" values="30.31;0" dur="0.3s" fill="freeze" begin="4.end" /></path><path d="M15.38,66.54c1.07,1.17,2.56,1.13,3.88,0.76c9.07-2.54,19.68-5.66,30.83-8.52" stroke-dasharray="36.17" stroke-dashoffset="36.17"><animate attributeName="stroke-dashoffset" values="36.17" fill="freeze" begin="9ed9.click" /><animate id="6" attributeName="stroke-dashoffset" values="36.17;0" dur="0.36s" fill="freeze" begin="5.end" /></path></g></g><g><g><path d="M56.15,34.58c1.53,0.8,4.79,0.87,6.47,0.65c6.29-0.83,14.77-2.1,20.99-2.83c1.54-0.18,2.86-0.4,4.38-0.04" stroke-dasharray="32.16" stroke-dashoffset="32.16"><animate attributeName="stroke-dashoffset" values="32.16" fill="freeze" begin="9ed9.click" /><animate id="7" attributeName="stroke-dashoffset" values="32.16;0" dur="0.32s" fill="freeze" begin="6.end" /></path><path d="M69.65,13.5c0.6,0.78,1.02,1.56,1.05,3.12C71.12,35.62,66,58.62,49.32,68.75" stroke-dasharray="62.25" stroke-dashoffset="62.25"><animate attributeName="stroke-dashoffset" values="62.25" fill="freeze" begin="9ed9.click" /><animate id="8" attributeName="stroke-dashoffset" values="62.25;0" dur="0.47s" fill="freeze" begin="7.end" /></path><path d="M70.75,35.62c4.38,7.75,11.51,17.78,17.66,24.73c1.17,1.32,2.88,3.53,5.52,5.4" stroke-dasharray="38.18" stroke-dashoffset="38.18"><animate attributeName="stroke-dashoffset" values="38.18" fill="freeze" begin="9ed9.click" /><animate id="9" attributeName="stroke-dashoffset" values="38.18;0" dur="0.38s" fill="freeze" begin="8.end" /></path></g><g><path d="M79.93,16.35c2.7,1.9,5.5,5.25,6.83,8.04" stroke-dasharray="10.65" stroke-dashoffset="10.65"><animate attributeName="stroke-dashoffset" values="10.65" fill="freeze" begin="9ed9.click" /><animate id="10" attributeName="stroke-dashoffset" values="10.65;0" dur="0.11s" fill="freeze" begin="9.end" /></path></g></g></g><g p4:part="2" p4:tradForm p4:phon="黒2" xmlns:p4="http://kanjivg.tagaini.net"><g><path d="M20.44,80.75c-1.19,6-6.9,13-8.44,14.5" stroke-dasharray="16.96" stroke-dashoffset="16.96"><animate attributeName="stroke-dashoffset" values="16.96" fill="freeze" begin="9ed9.click" /><animate id="11" attributeName="stroke-dashoffset" values="16.96;0" dur="0.17s" fill="freeze" begin="10.end" /></path><path d="M37.88,79.62c1.77,2.75,4.39,10.07,3.88,14.62" stroke-dasharray="15.33" stroke-dashoffset="15.33"><animate attributeName="stroke-dashoffset" values="15.33" fill="freeze" begin="9ed9.click" /><animate id="12" attributeName="stroke-dashoffset" values="15.33;0" dur="0.15s" fill="freeze" begin="11.end" /></path><path d="M60.75,78.75c2.75,2.56,6.75,9.98,6.75,14.5" stroke-dasharray="16.29" stroke-dashoffset="16.29"><animate attributeName="stroke-dashoffset" values="16.29" fill="freeze" begin="9ed9.click" /><animate id="13" attributeName="stroke-dashoffset" values="16.29;0" dur="0.16s" fill="freeze" begin="12.end" /></path><path d="M83.33,78.08c3.43,2.93,8.86,12.07,9.72,16.63" stroke-dasharray="19.47" stroke-dashoffset="19.47"><animate attributeName="stroke-dashoffset" values="19.47" fill="freeze" begin="9ed9.click" /><animate id="14" attributeName="stroke-dashoffset" values="19.47;0" dur="0.19s" fill="freeze" begin="13.end" /></path></g></g></g></g></svg>