<svg xmlns="http://www.w3.org/2000/svg" width="109" height="109" viewBox="0 0 109 109" id="9ee0"><g fill="none" stroke="#666" stroke-width="9" stroke-linecap="round" stroke-linejoin="round"><g><g><g><path d="M11.5,20.21c0.29,0.42,0.66,1.63,0.82,2.16c1.33,4.33,3.08,12.24,3.91,20.33" /><path d="M12.12,21.17c9.44-0.99,30.85-4.14,37.9-4.97c2.59-0.31,3.9,1.21,3.78,2.78c-0.31,4-1.55,12.52-3.31,19.26" /><path d="M19.9,26.69c2.16,1.33,5.58,5.46,6.12,7.53" /><path d="M44.26,20.87c0.01,0.27,0.03,0.71-0.03,1.1c-0.32,2.33-2.14,7.44-4.63,10.56" /><path d="M16.39,40.3c6.8-0.42,24.43-2.61,33.82-3.3" /><path d="M30.41,21.05c0.52,0.63,0.77,1.01,0.79,1.78c0.24,8.9,0.1,39.88,0.1,43.01" /><path d="M14.15,53.07c1.1,0.43,2.53,0.41,3.25,0.37c7.46-0.43,19.85-1.95,30.05-3.56c1.18-0.19,1.91,0.18,2.51,0.36" /><path d="M13.01,70.56c0.82,0.87,2.89,1.13,3.68,0.87c10.95-3.52,19.57-6.62,31.06-10.93" /></g><g><path d="M14.07,81.08c-0.4,5.55-2.3,12.03-2.82,13.41" /><path d="M22.84,77.73c2.16,4.02,3.66,9.77,3.97,14.11" /><path d="M33.68,74.38c2.72,2.22,5.67,8.68,5.67,12.61" /><path d="M43.36,71.09c2.81,2.3,7.25,9.44,7.95,13.02" /></g></g><g><g><path d="M57.42,32.5c1.31,0.47,3.72,0.94,5.03,0.79C76.09,31.69,83.75,30.5,93,29.5c2.18-0.24,3.5,0.08,4.59,0.3" /><path d="M73.69,13.26c1.08,0.44,1.73,2.16,1.94,3.14c0.22,0.99,0.01,27.56-0.2,33.8" /><path d="M58.88,50.62c0.88,0.29,2.83,1.39,4.89,1.15C72.5,50.75,82.25,50,91.2,48.83c1.46-0.19,2.36,0.03,3.09,0.16" /></g><g><path d="M59.07,65.76c0.42,0.6,0.85,1.09,1.03,1.84c1.45,5.92,2.18,18.97,3.17,29.61" /><path d="M60.17,67.14c11.08-1.14,23.99-2.28,29.26-3.12c1.93-0.3,3.08,2.09,2.81,3.89c-1.14,7.46-2.74,16.75-3.89,23.66" /><path d="M63.68,93.3c7.32-0.63,16.57-1.11,27.09-1.8" /></g></g></g></g><g fill="none" stroke="#000" stroke-width="5" stroke-linecap="round" stroke-linejoin="round"><g><g><g><path d="M11.5,20.21c0.29,0.42,0.66,1.63,0.82,2.16c1.33,4.33,3.08,12.24,3.91,20.33" stroke-dasharray="23.05" stroke-dashoffset="23.05"><animate id="0" attributeName="stroke-dashoffset" values="23.05;0" dur="0.23s" fill="freeze" begin="0s;9ee0.click" /></path><path d="M12.12,21.17c9.44-0.99,30.85-4.14,37.9-4.97c2.59-0.31,3.9,1.21,3.78,2.78c-0.31,4-1.55,12.52-3.31,19.26" stroke-dasharray="63.22" stroke-dashoffset="63.22"><animate attributeName="stroke-dashoffset" values="63.22" fill="freeze" begin="9ee0.click" /><animate id="1" attributeName="stroke-dashoffset" values="63.22;0" dur="0.48s" fill="freeze" begin="0.end" /></path><path d="M19.9,26.69c2.16,1.33,5.58,5.46,6.12,7.53" stroke-dasharray="9.84" stroke-dashoffset="9.84"><animate attributeName="stroke-dashoffset" values="9.84" fill="freeze" begin="9ee0.click" /><animate id="2" attributeName="stroke-dashoffset" values="9.84;0" dur="0.1s" fill="freeze" begin="1.end" /></path><path d="M44.26,20.87c0.01,0.27,0.03,0.71-0.03,1.1c-0.32,2.33-2.14,7.44-4.63,10.56" stroke-dasharray="12.73" stroke-dashoffset="12.73"><animate attributeName="stroke-dashoffset" values="12.73" fill="freeze" begin="9ee0.click" /><animate id="3" attributeName="stroke-dashoffset" values="12.73;0" dur="0.13s" fill="freeze" begin="2.end" /></path><path d="M16.39,40.3c6.8-0.42,24.43-2.61,33.82-3.3" stroke-dasharray="33.98" stroke-dashoffset="33.98"><animate attributeName="stroke-dashoffset" values="33.98" fill="freeze" begin="9ee0.click" /><animate id="4" attributeName="stroke-dashoffset" values="33.98;0" dur="0.34s" fill="freeze" begin="3.end" /></path><path d="M30.41,21.05c0.52,0.63,0.77,1.01,0.79,1.78c0.24,8.9,0.1,39.88,0.1,43.01" stroke-dasharray="45.01" stroke-dashoffset="45.01"><animate attributeName="stroke-dashoffset" values="45.01" fill="freeze" begin="9ee0.click" /><animate id="5" attributeName="stroke-dashoffset" values="45.01;0" dur="0.45s" fill="freeze" begin="4.end" /></path><path d="M14.15,53.07c1.1,0.43,2.53,0.41,3.25,0.37c7.46-0.43,19.85-1.95,30.05-3.56c1.18-0.19,1.91,0.18,2.51,0.36" stroke-dasharray="36.13" stroke-dashoffset="36.13"><animate attributeName="stroke-dashoffset" values="36.13" fill="freeze" begin="9ee0.click" /><animate id="6" attributeName="stroke-dashoffset" values="36.13;0" dur="0.36s" fill="freeze" begin="5.end" /></path><path d="M13.01,70.56c0.82,0.87,2.89,1.13,3.68,0.87c10.95-3.52,19.57-6.62,31.06-10.93" stroke-dasharray="36.85" stroke-dashoffset="36.85"><animate attributeName="stroke-dashoffset" values="36.85" fill="freeze" begin="9ee0.click" /><animate id="7" attributeName="stroke-dashoffset" values="36.85;0" dur="0.37s" fill="freeze" begin="6.end" /></path></g><g><path d="M14.07,81.08c-0.4,5.55-2.3,12.03-2.82,13.41" stroke-dasharray="13.73" stroke-dashoffset="13.73"><animate attributeName="stroke-dashoffset" values="13.73" fill="freeze" begin="9ee0.click" /><animate id="8" attributeName="stroke-dashoffset" values="13.73;0" dur="0.14s" fill="freeze" begin="7.end" /></path><path d="M22.84,77.73c2.16,4.02,3.66,9.77,3.97,14.11" stroke-dasharray="14.75" stroke-dashoffset="14.75"><animate attributeName="stroke-dashoffset" values="14.75" fill="freeze" begin="9ee0.click" /><animate id="9" attributeName="stroke-dashoffset" values="14.75;0" dur="0.15s" fill="freeze" begin="8.end" /></path><path d="M33.68,74.38c2.72,2.22,5.67,8.68,5.67,12.61" stroke-dasharray="14.13" stroke-dashoffset="14.13"><animate attributeName="stroke-dashoffset" values="14.13" fill="freeze" begin="9ee0.click" /><animate id="10" attributeName="stroke-dashoffset" values="14.13;0" dur="0.14s" fill="freeze" begin="9.end" /></path><path d="M43.36,71.09c2.81,2.3,7.25,9.44,7.95,13.02" stroke-dasharray="15.43" stroke-dashoffset="15.43"><animate attributeName="stroke-dashoffset" values="15.43" fill="freeze" begin="9ee0.click" /><animate id="11" attributeName="stroke-dashoffset" values="15.43;0" dur="0.15s" fill="freeze" begin="10.end" /></path></g></g><g><g><path d="M57.42,32.5c1.31,0.47,3.72,0.94,5.03,0.79C76.09,31.69,83.75,30.5,93,29.5c2.18-0.24,3.5,0.08,4.59,0.3" stroke-dasharray="40.53" stroke-dashoffset="40.53"><animate attributeName="stroke-dashoffset" values="40.53" fill="freeze" begin="9ee0.click" /><animate id="12" attributeName="stroke-dashoffset" values="40.53;0" dur="0.41s" fill="freeze" begin="11.end" /></path><path d="M73.69,13.26c1.08,0.44,1.73,2.16,1.94,3.14c0.22,0.99,0.01,27.56-0.2,33.8" stroke-dasharray="37.62" stroke-dashoffset="37.62"><animate attributeName="stroke-dashoffset" values="37.62" fill="freeze" begin="9ee0.click" /><animate id="13" attributeName="stroke-dashoffset" values="37.62;0" dur="0.38s" fill="freeze" begin="12.end" /></path><path d="M58.88,50.62c0.88,0.29,2.83,1.39,4.89,1.15C72.5,50.75,82.25,50,91.2,48.83c1.46-0.19,2.36,0.03,3.09,0.16" stroke-dasharray="35.78" stroke-dashoffset="35.78"><animate attributeName="stroke-dashoffset" values="35.78" fill="freeze" begin="9ee0.click" /><animate id="14" attributeName="stroke-dashoffset" values="35.78;0" dur="0.36s" fill="freeze" begin="13.end" /></path></g><g><path d="M59.07,65.76c0.42,0.6,0.85,1.09,1.03,1.84c1.45,5.92,2.18,18.97,3.17,29.61" stroke-dasharray="31.92" stroke-dashoffset="31.92"><animate attributeName="stroke-dashoffset" values="31.92" fill="freeze" begin="9ee0.click" /><animate id="15" attributeName="stroke-dashoffset" values="31.92;0" dur="0.32s" fill="freeze" begin="14.end" /></path><path d="M60.17,67.14c11.08-1.14,23.99-2.28,29.26-3.12c1.93-0.3,3.08,2.09,2.81,3.89c-1.14,7.46-2.74,16.75-3.89,23.66" stroke-dasharray="58.93" stroke-dashoffset="58.93"><animate attributeName="stroke-dashoffset" values="58.93" fill="freeze" begin="9ee0.click" /><animate id="16" attributeName="stroke-dashoffset" values="58.93;0" dur="0.59s" fill="freeze" begin="15.end" /></path><path d="M63.68,93.3c7.32-0.63,16.57-1.11,27.09-1.8" stroke-dasharray="27.15" stroke-dashoffset="27.15"><animate attributeName="stroke-dashoffset" values="27.15" fill="freeze" begin="9ee0.click" /><animate id="17" attributeName="stroke-dashoffset" values="27.15;0" dur="0.27s" fill="freeze" begin="16.end" /></path></g></g></g></g></svg>