<svg xmlns="http://www.w3.org/2000/svg" width="109" height="109" viewBox="0 0 109 109" id="9efc"><g fill="none" stroke="#666" stroke-width="9" stroke-linecap="round" stroke-linejoin="round"><g><g><path d="M27.31,14.35c0.87,0.56,1.38,2.51,1.56,3.62c0.17,1.11-0.06,10.02-0.06,17.26" /><path d="M36.28,14c0.83,0.54,1.32,2.42,1.49,3.49c0.16,1.07-0.06,8.32-0.06,16.64" /><path d="M14.53,19.53c2.37,1.95,6.12,8,6.72,11.03" /><path d="M50.53,17.74c0.02,0.24,0.05,0.62-0.05,0.96c-0.56,2.02-3.77,6.45-8.17,9.16" /><path d="M13,36.15c0.89,0.54,2.51,0.59,3.41,0.54c7.59-0.44,24.09-2.44,32.73-3.76c1.46-0.22,2.37,0.26,3.11,0.53" /><path d="M24.09,41.53c0.03,0.32,0.07,0.81-0.07,1.27c-0.82,2.67-5.56,8.52-12.03,12.11" /><path d="M40.81,40.92c3.86,1.8,9.97,7.41,10.94,10.22" /><g><path d="M16.51,56.11c0.88,1.14,1.17,2.96,1.17,5.03c0,3.43,0.29,32.44,0.29,35.87" /><path d="M17.96,58.94C23.45,58.02,44.31,55,45.41,55c1.45,0,2.89,1.14,2.89,3.65c0,3.66-0.14,26.01-0.14,31.27c0,8.45-3.67,4.55-5.41,1.58" /></g><path d="M31.64,38.7c1.18,1.16,1.57,3.01,1.57,5.11c0,3.49-0.39,49.28-0.39,52.77" /><g><g><path d="M25.97,66.9c0.01,0.47,0.48,1.7,0.48,2.37c0,4.59-0.92,11.38-3.35,17.37" /></g><g><path d="M40.05,64c0.33,0.53,0.44,1.37,0.44,2.33c0,1.59,0.11,15.02,0.11,16.61" /></g></g></g><g><path d="M56.33,29.81c0.92,0.43,2.62,0.51,3.54,0.43c7.59-0.61,19.4-3.38,29.8-3.76c1.54-0.06,2.46,0.21,3.24,0.42" /><g><path d="M57.43,42.51c0.48,0.71,0.79,1.43,0.95,2.14c0.16,0.71-0.19,44.13-0.17,50.55" /><path d="M59.34,44.88c5.36-0.3,29.79-3.7,31.21-3.89c2.54-0.36,3.5,2.32,3.18,3.38c-0.03,2.4-0.54,29.97-0.54,46.27c0,11.63-5.24,1.73-6.37,1.04" /><path d="M59.34,59c7.09-0.62,27.55-2.7,33.28-3.23" /><path d="M59.49,72.97c5.09-0.54,27.68-2.71,33.56-3.06" /><path d="M71.65,12.59c1.17,0.54,1.88,2.42,2.11,3.5c0.23,1.08,0.5,73.32,0.27,80.05" /></g><g><path d="M83.74,13c2.73,1.28,6.59,4.82,7.27,6.82" /></g></g></g></g><g fill="none" stroke="#000" stroke-width="5" stroke-linecap="round" stroke-linejoin="round"><g><g><path d="M27.31,14.35c0.87,0.56,1.38,2.51,1.56,3.62c0.17,1.11-0.06,10.02-0.06,17.26" stroke-dasharray="21.29" stroke-dashoffset="21.29"><animate id="0" attributeName="stroke-dashoffset" values="21.29;0" dur="0.21s" fill="freeze" begin="0s;9efc.click" /></path><path d="M36.28,14c0.83,0.54,1.32,2.42,1.49,3.49c0.16,1.07-0.06,8.32-0.06,16.64" stroke-dasharray="20.52" stroke-dashoffset="20.52"><animate attributeName="stroke-dashoffset" values="20.52" fill="freeze" begin="9efc.click" /><animate id="1" attributeName="stroke-dashoffset" values="20.52;0" dur="0.21s" fill="freeze" begin="0.end" /></path><path d="M14.53,19.53c2.37,1.95,6.12,8,6.72,11.03" stroke-dasharray="13.06" stroke-dashoffset="13.06"><animate attributeName="stroke-dashoffset" values="13.06" fill="freeze" begin="9efc.click" /><animate id="2" attributeName="stroke-dashoffset" values="13.06;0" dur="0.13s" fill="freeze" begin="1.end" /></path><path d="M50.53,17.74c0.02,0.24,0.05,0.62-0.05,0.96c-0.56,2.02-3.77,6.45-8.17,9.16" stroke-dasharray="13.44" stroke-dashoffset="13.44"><animate attributeName="stroke-dashoffset" values="13.44" fill="freeze" begin="9efc.click" /><animate id="3" attributeName="stroke-dashoffset" values="13.44;0" dur="0.13s" fill="freeze" begin="2.end" /></path><path d="M13,36.15c0.89,0.54,2.51,0.59,3.41,0.54c7.59-0.44,24.09-2.44,32.73-3.76c1.46-0.22,2.37,0.26,3.11,0.53" stroke-dasharray="39.65" stroke-dashoffset="39.65"><animate attributeName="stroke-dashoffset" values="39.65" fill="freeze" begin="9efc.click" /><animate id="4" attributeName="stroke-dashoffset" values="39.65;0" dur="0.4s" fill="freeze" begin="3.end" /></path><path d="M24.09,41.53c0.03,0.32,0.07,0.81-0.07,1.27c-0.82,2.67-5.56,8.52-12.03,12.11" stroke-dasharray="18.63" stroke-dashoffset="18.63"><animate attributeName="stroke-dashoffset" values="18.63" fill="freeze" begin="9efc.click" /><animate id="5" attributeName="stroke-dashoffset" values="18.63;0" dur="0.19s" fill="freeze" begin="4.end" /></path><path d="M40.81,40.92c3.86,1.8,9.97,7.41,10.94,10.22" stroke-dasharray="15.19" stroke-dashoffset="15.19"><animate attributeName="stroke-dashoffset" values="15.19" fill="freeze" begin="9efc.click" /><animate id="6" attributeName="stroke-dashoffset" values="15.19;0" dur="0.15s" fill="freeze" begin="5.end" /></path><g><path d="M16.51,56.11c0.88,1.14,1.17,2.96,1.17,5.03c0,3.43,0.29,32.44,0.29,35.87" stroke-dasharray="41.12" stroke-dashoffset="41.12"><animate attributeName="stroke-dashoffset" values="41.12" fill="freeze" begin="9efc.click" /><animate id="7" attributeName="stroke-dashoffset" values="41.12;0" dur="0.41s" fill="freeze" begin="6.end" /></path><path d="M17.96,58.94C23.45,58.02,44.31,55,45.41,55c1.45,0,2.89,1.14,2.89,3.65c0,3.66-0.14,26.01-0.14,31.27c0,8.45-3.67,4.55-5.41,1.58" stroke-dasharray="75.31" stroke-dashoffset="75.31"><animate attributeName="stroke-dashoffset" values="75.31" fill="freeze" begin="9efc.click" /><animate id="8" attributeName="stroke-dashoffset" values="75.31;0" dur="0.57s" fill="freeze" begin="7.end" /></path></g><path d="M31.64,38.7c1.18,1.16,1.57,3.01,1.57,5.11c0,3.49-0.39,49.28-0.39,52.77" stroke-dasharray="58.26" stroke-dashoffset="58.26"><animate attributeName="stroke-dashoffset" values="58.26" fill="freeze" begin="9efc.click" /><animate id="9" attributeName="stroke-dashoffset" values="58.26;0" dur="0.58s" fill="freeze" begin="8.end" /></path><g><g><path d="M25.97,66.9c0.01,0.47,0.48,1.7,0.48,2.37c0,4.59-0.92,11.38-3.35,17.37" stroke-dasharray="20.21" stroke-dashoffset="20.21"><animate attributeName="stroke-dashoffset" values="20.21" fill="freeze" begin="9efc.click" /><animate id="10" attributeName="stroke-dashoffset" values="20.21;0" dur="0.2s" fill="freeze" begin="9.end" /></path></g><g><path d="M40.05,64c0.33,0.53,0.44,1.37,0.44,2.33c0,1.59,0.11,15.02,0.11,16.61" stroke-dasharray="19.01" stroke-dashoffset="19.01"><animate attributeName="stroke-dashoffset" values="19.01" fill="freeze" begin="9efc.click" /><animate id="11" attributeName="stroke-dashoffset" values="19.01;0" dur="0.19s" fill="freeze" begin="10.end" /></path></g></g></g><g><path d="M56.33,29.81c0.92,0.43,2.62,0.51,3.54,0.43c7.59-0.61,19.4-3.38,29.8-3.76c1.54-0.06,2.46,0.21,3.24,0.42" stroke-dasharray="36.93" stroke-dashoffset="36.93"><animate attributeName="stroke-dashoffset" values="36.93" fill="freeze" begin="9efc.click" /><animate id="12" attributeName="stroke-dashoffset" values="36.93;0" dur="0.37s" fill="freeze" begin="11.end" /></path><g><path d="M57.43,42.51c0.48,0.71,0.79,1.43,0.95,2.14c0.16,0.71-0.19,44.13-0.17,50.55" stroke-dasharray="52.91" stroke-dashoffset="52.91"><animate attributeName="stroke-dashoffset" values="52.91" fill="freeze" begin="9efc.click" /><animate id="13" attributeName="stroke-dashoffset" values="52.91;0" dur="0.53s" fill="freeze" begin="12.end" /></path><path d="M59.34,44.88c5.36-0.3,29.79-3.7,31.21-3.89c2.54-0.36,3.5,2.32,3.18,3.38c-0.03,2.4-0.54,29.97-0.54,46.27c0,11.63-5.24,1.73-6.37,1.04" stroke-dasharray="96.12" stroke-dashoffset="96.12"><animate attributeName="stroke-dashoffset" values="96.12" fill="freeze" begin="9efc.click" /><animate id="14" attributeName="stroke-dashoffset" values="96.12;0" dur="0.72s" fill="freeze" begin="13.end" /></path><path d="M59.34,59c7.09-0.62,27.55-2.7,33.28-3.23" stroke-dasharray="33.44" stroke-dashoffset="33.44"><animate attributeName="stroke-dashoffset" values="33.44" fill="freeze" begin="9efc.click" /><animate id="15" attributeName="stroke-dashoffset" values="33.44;0" dur="0.33s" fill="freeze" begin="14.end" /></path><path d="M59.49,72.97c5.09-0.54,27.68-2.71,33.56-3.06" stroke-dasharray="33.7" stroke-dashoffset="33.7"><animate attributeName="stroke-dashoffset" values="33.7" fill="freeze" begin="9efc.click" /><animate id="16" attributeName="stroke-dashoffset" values="33.7;0" dur="0.34s" fill="freeze" begin="15.end" /></path><path d="M71.65,12.59c1.17,0.54,1.88,2.42,2.11,3.5c0.23,1.08,0.5,73.32,0.27,80.05" stroke-dasharray="84.26" stroke-dashoffset="84.26"><animate attributeName="stroke-dashoffset" values="84.26" fill="freeze" begin="9efc.click" /><animate id="17" attributeName="stroke-dashoffset" values="84.26;0" dur="0.63s" fill="freeze" begin="16.end" /></path></g><g><path d="M83.74,13c2.73,1.28,6.59,4.82,7.27,6.82" stroke-dasharray="10.13" stroke-dashoffset="10.13"><animate attributeName="stroke-dashoffset" values="10.13" fill="freeze" begin="9efc.click" /><animate id="18" attributeName="stroke-dashoffset" values="10.13;0" dur="0.1s" fill="freeze" begin="17.end" /></path></g></g></g></g></svg>