<svg xmlns="http://www.w3.org/2000/svg" width="109" height="109" viewBox="0 0 109 109" id="9f21"><g fill="none" stroke="#666" stroke-width="9" stroke-linecap="round" stroke-linejoin="round"><g p3:radicalForm xmlns:p3="http://kanjivg.tagaini.net"><g><g><path d="M24.43,17.52c5.18,4.68,10.73,12.88,11.47,15.23" /><path d="M43.95,11.94c2.88,3.22,9.8,11.68,10.96,16.92" /><path d="M80.11,9.5c0.63,0.94,1.97,2.16,0.94,3.76c-2.55,3.99-9.71,13.66-11.9,16.48" /></g></g><g><path d="M27.47,39.39c1.03,0.81,1.72,1.62,2.06,2.43c0.34,0.81,0.34,21.36,0.34,23.18c0,15.19-7.11,29.39-16.37,35.25" /><path d="M29.75,42.5c11-1.75,41.75-5.75,45.75-5.75c2.25,0,5,1,5,3.75c0,18.5-1.92,37.7,7.5,54.25c5.07,8.91,5.75,3.5,6-3" /><path d="M30.24,58.91c12.26-0.91,38.51-4.2,50-4.2" /><path d="M29,76c8.79-0.78,41.83-3.73,52-4.25" /><path d="M52.37,41.75c1.09,0.5,1.74,2.25,1.96,3.25c0.22,1,0,46.75-0.22,53" /></g></g></g><g fill="none" stroke="#000" stroke-width="5" stroke-linecap="round" stroke-linejoin="round"><g p3:radicalForm xmlns:p3="http://kanjivg.tagaini.net"><g><g><path d="M24.43,17.52c5.18,4.68,10.73,12.88,11.47,15.23" stroke-dasharray="19.17" stroke-dashoffset="19.17"><animate id="0" attributeName="stroke-dashoffset" values="19.17;0" dur="0.19s" fill="freeze" begin="0s;9f21.click" /></path><path d="M43.95,11.94c2.88,3.22,9.8,11.68,10.96,16.92" stroke-dasharray="20.31" stroke-dashoffset="20.31"><animate attributeName="stroke-dashoffset" values="20.31" fill="freeze" begin="9f21.click" /><animate id="1" attributeName="stroke-dashoffset" values="20.31;0" dur="0.2s" fill="freeze" begin="0.end" /></path><path d="M80.11,9.5c0.63,0.94,1.97,2.16,0.94,3.76c-2.55,3.99-9.71,13.66-11.9,16.48" stroke-dasharray="24.54" stroke-dashoffset="24.54"><animate attributeName="stroke-dashoffset" values="24.54" fill="freeze" begin="9f21.click" /><animate id="2" attributeName="stroke-dashoffset" values="24.54;0" dur="0.25s" fill="freeze" begin="1.end" /></path></g></g><g><path d="M27.47,39.39c1.03,0.81,1.72,1.62,2.06,2.43c0.34,0.81,0.34,21.36,0.34,23.18c0,15.19-7.11,29.39-16.37,35.25" stroke-dasharray="66.78" stroke-dashoffset="66.78"><animate attributeName="stroke-dashoffset" values="66.78" fill="freeze" begin="9f21.click" /><animate id="3" attributeName="stroke-dashoffset" values="66.78;0" dur="0.5s" fill="freeze" begin="2.end" /></path><path d="M29.75,42.5c11-1.75,41.75-5.75,45.75-5.75c2.25,0,5,1,5,3.75c0,18.5-1.92,37.7,7.5,54.25c5.07,8.91,5.75,3.5,6-3" stroke-dasharray="123.29" stroke-dashoffset="123.29"><animate attributeName="stroke-dashoffset" values="123.29" fill="freeze" begin="9f21.click" /><animate id="4" attributeName="stroke-dashoffset" values="123.29;0" dur="0.93s" fill="freeze" begin="3.end" /></path><path d="M30.24,58.91c12.26-0.91,38.51-4.2,50-4.2" stroke-dasharray="50.19" stroke-dashoffset="50.19"><animate attributeName="stroke-dashoffset" values="50.19" fill="freeze" begin="9f21.click" /><animate id="5" attributeName="stroke-dashoffset" values="50.19;0" dur="0.5s" fill="freeze" begin="4.end" /></path><path d="M29,76c8.79-0.78,41.83-3.73,52-4.25" stroke-dasharray="52.17" stroke-dashoffset="52.17"><animate attributeName="stroke-dashoffset" values="52.17" fill="freeze" begin="9f21.click" /><animate id="6" attributeName="stroke-dashoffset" values="52.17;0" dur="0.52s" fill="freeze" begin="5.end" /></path><path d="M52.37,41.75c1.09,0.5,1.74,2.25,1.96,3.25c0.22,1,0,46.75-0.22,53" stroke-dasharray="56.91" stroke-dashoffset="56.91"><animate attributeName="stroke-dashoffset" values="56.91" fill="freeze" begin="9f21.click" /><animate id="7" attributeName="stroke-dashoffset" values="56.91;0" dur="0.57s" fill="freeze" begin="6.end" /></path></g></g></g></svg>