<svg xmlns="http://www.w3.org/2000/svg" width="109" height="109" viewBox="0 0 109 109" id="9f2c"><g fill="none" stroke="#666" stroke-width="9" stroke-linecap="round" stroke-linejoin="round"><g><g><g><path d="M29.38,14.41c0.03,0.23,0.15,0.68-0.07,0.93c-2.81,3.33-7.42,6.63-12.14,8.95" /><path d="M13.86,23.71c0.39,0.47,0.55,1.53,0.64,2.49c0.35,3.53,1.71,14.97,2.06,19.75" /><path d="M36.22,20.37c0.67,0.1,1.2,0.31,2.13,0.31s11.01-1.64,12.07-1.74c1.07-0.1,1.95,0.51,1.87,1.13c-0.8,5.95-2.37,18.44-3.17,23.37" /><path d="M16.11,33.87c3.55-1.03,9.82-2.33,10.48-2.33c0.67,0,1.6,0,2.13,0" /><path d="M35.23,31.24c0.75,0.12,1.35,0.35,2.4,0.35s11.87-0.93,13.07-1.04" /><path d="M17.08,44.26c7.42-1.19,22.87-2.13,31.59-2.6" /></g><g><path d="M14.94,51.71c0.6,0.42,0.97,1.87,1.09,2.7c0.11,0.75-0.07,29.47-0.07,36.83c0,1.95,0.74,1.87,1.44,1.23c2.45-2.23,6.78-6.35,10.88-9.29" /><path d="M22.87,53.22c1.91,1.22,4.94,5.04,5.41,6.95" /><path d="M22.58,67.39c1.73,1.18,4.48,4.86,4.91,6.7" /><path d="M32.38,49.74c0.6,0.42,0.97,1.87,1.09,2.7c0.11,0.75-0.07,30.39-0.07,37.76c0,1.95,0.74,1.87,1.44,1.23C37.3,89.2,45,82.23,47.72,80.19" /><path d="M39.35,55.52c1.82,0.92,4.71,3.77,5.16,5.2" /><path d="M38.53,69.31c2.01,1.2,5.19,4.92,5.7,6.78" /><path d="M48.79,48.5c0.77,0.9,1.26,1.15,1.24,3.1C49.75,88.75,53.75,95,91.19,94.21c5.48-0.12,4.94-0.08,4.27-9.13" /></g></g><g><g p5:part="1" p5:partial xmlns:p5="http://kanjivg.tagaini.net"><path d="M60.14,36.27c0.55,1.01,0.97,2.06,1.09,2.94c1.04,7.25,1.53,23.4,2.15,36.76" /><path d="M61.97,38.23c9.79-1.81,20.91-2.56,27.11-3.27c2.28-0.26,3.13,1.84,3,3.78c-0.46,7.12-0.82,23.44-2.25,35.17" /></g><g><path d="M73.76,12.36c0.94,0.88,2,1.64,2,3.82c0,11.47,0.17,53.36,0.17,56.36" /></g><g p5:part="2" p5:partial xmlns:p5="http://kanjivg.tagaini.net"><path d="M62.45,53.93c2.7-0.35,26.34-2.26,28.57-2.26" /><path d="M63.82,73.65c6.84-0.51,17.84-1.99,26.09-2.18" /></g></g></g></g><g fill="none" stroke="#000" stroke-width="5" stroke-linecap="round" stroke-linejoin="round"><g><g><g><path d="M29.38,14.41c0.03,0.23,0.15,0.68-0.07,0.93c-2.81,3.33-7.42,6.63-12.14,8.95" stroke-dasharray="16.14" stroke-dashoffset="16.14"><animate id="0" attributeName="stroke-dashoffset" values="16.14;0" dur="0.16s" fill="freeze" begin="0s;9f2c.click" /></path><path d="M13.86,23.71c0.39,0.47,0.55,1.53,0.64,2.49c0.35,3.53,1.71,14.97,2.06,19.75" stroke-dasharray="22.46" stroke-dashoffset="22.46"><animate attributeName="stroke-dashoffset" values="22.46" fill="freeze" begin="9f2c.click" /><animate id="1" attributeName="stroke-dashoffset" values="22.46;0" dur="0.22s" fill="freeze" begin="0.end" /></path><path d="M36.22,20.37c0.67,0.1,1.2,0.31,2.13,0.31s11.01-1.64,12.07-1.74c1.07-0.1,1.95,0.51,1.87,1.13c-0.8,5.95-2.37,18.44-3.17,23.37" stroke-dasharray="40.39" stroke-dashoffset="40.39"><animate attributeName="stroke-dashoffset" values="40.39" fill="freeze" begin="9f2c.click" /><animate id="2" attributeName="stroke-dashoffset" values="40.39;0" dur="0.4s" fill="freeze" begin="1.end" /></path><path d="M16.11,33.87c3.55-1.03,9.82-2.33,10.48-2.33c0.67,0,1.6,0,2.13,0" stroke-dasharray="12.87" stroke-dashoffset="12.87"><animate attributeName="stroke-dashoffset" values="12.87" fill="freeze" begin="9f2c.click" /><animate id="3" attributeName="stroke-dashoffset" values="12.87;0" dur="0.13s" fill="freeze" begin="2.end" /></path><path d="M35.23,31.24c0.75,0.12,1.35,0.35,2.4,0.35s11.87-0.93,13.07-1.04" stroke-dasharray="15.54" stroke-dashoffset="15.54"><animate attributeName="stroke-dashoffset" values="15.54" fill="freeze" begin="9f2c.click" /><animate id="4" attributeName="stroke-dashoffset" values="15.54;0" dur="0.16s" fill="freeze" begin="3.end" /></path><path d="M17.08,44.26c7.42-1.19,22.87-2.13,31.59-2.6" stroke-dasharray="31.71" stroke-dashoffset="31.71"><animate attributeName="stroke-dashoffset" values="31.71" fill="freeze" begin="9f2c.click" /><animate id="5" attributeName="stroke-dashoffset" values="31.71;0" dur="0.32s" fill="freeze" begin="4.end" /></path></g><g><path d="M14.94,51.71c0.6,0.42,0.97,1.87,1.09,2.7c0.11,0.75-0.07,29.47-0.07,36.83c0,1.95,0.74,1.87,1.44,1.23c2.45-2.23,6.78-6.35,10.88-9.29" stroke-dasharray="56.94" stroke-dashoffset="56.94"><animate attributeName="stroke-dashoffset" values="56.94" fill="freeze" begin="9f2c.click" /><animate id="6" attributeName="stroke-dashoffset" values="56.94;0" dur="0.57s" fill="freeze" begin="5.end" /></path><path d="M22.87,53.22c1.91,1.22,4.94,5.04,5.41,6.95" stroke-dasharray="8.93" stroke-dashoffset="8.93"><animate attributeName="stroke-dashoffset" values="8.93" fill="freeze" begin="9f2c.click" /><animate id="7" attributeName="stroke-dashoffset" values="8.93;0" dur="0.09s" fill="freeze" begin="6.end" /></path><path d="M22.58,67.39c1.73,1.18,4.48,4.86,4.91,6.7" stroke-dasharray="8.42" stroke-dashoffset="8.42"><animate attributeName="stroke-dashoffset" values="8.42" fill="freeze" begin="9f2c.click" /><animate id="8" attributeName="stroke-dashoffset" values="8.42;0" dur="0.08s" fill="freeze" begin="7.end" /></path><path d="M32.38,49.74c0.6,0.42,0.97,1.87,1.09,2.7c0.11,0.75-0.07,30.39-0.07,37.76c0,1.95,0.74,1.87,1.44,1.23C37.3,89.2,45,82.23,47.72,80.19" stroke-dasharray="60.65" stroke-dashoffset="60.65"><animate attributeName="stroke-dashoffset" values="60.65" fill="freeze" begin="9f2c.click" /><animate id="9" attributeName="stroke-dashoffset" values="60.65;0" dur="0.46s" fill="freeze" begin="8.end" /></path><path d="M39.35,55.52c1.82,0.92,4.71,3.77,5.16,5.2" stroke-dasharray="7.43" stroke-dashoffset="7.43"><animate attributeName="stroke-dashoffset" values="7.43" fill="freeze" begin="9f2c.click" /><animate id="10" attributeName="stroke-dashoffset" values="7.43;0" dur="0.07s" fill="freeze" begin="9.end" /></path><path d="M38.53,69.31c2.01,1.2,5.19,4.92,5.7,6.78" stroke-dasharray="8.98" stroke-dashoffset="8.98"><animate attributeName="stroke-dashoffset" values="8.98" fill="freeze" begin="9f2c.click" /><animate id="11" attributeName="stroke-dashoffset" values="8.98;0" dur="0.09s" fill="freeze" begin="10.end" /></path><path d="M48.79,48.5c0.77,0.9,1.26,1.15,1.24,3.1C49.75,88.75,53.75,95,91.19,94.21c5.48-0.12,4.94-0.08,4.27-9.13" stroke-dasharray="89.54" stroke-dashoffset="89.54"><animate attributeName="stroke-dashoffset" values="89.54" fill="freeze" begin="9f2c.click" /><animate id="12" attributeName="stroke-dashoffset" values="89.54;0" dur="0.67s" fill="freeze" begin="11.end" /></path></g></g><g><g p5:part="1" p5:partial xmlns:p5="http://kanjivg.tagaini.net"><path d="M60.14,36.27c0.55,1.01,0.97,2.06,1.09,2.94c1.04,7.25,1.53,23.4,2.15,36.76" stroke-dasharray="39.98" stroke-dashoffset="39.98"><animate attributeName="stroke-dashoffset" values="39.98" fill="freeze" begin="9f2c.click" /><animate id="13" attributeName="stroke-dashoffset" values="39.98;0" dur="0.4s" fill="freeze" begin="12.end" /></path><path d="M61.97,38.23c9.79-1.81,20.91-2.56,27.11-3.27c2.28-0.26,3.13,1.84,3,3.78c-0.46,7.12-0.82,23.44-2.25,35.17" stroke-dasharray="68.17" stroke-dashoffset="68.17"><animate attributeName="stroke-dashoffset" values="68.17" fill="freeze" begin="9f2c.click" /><animate id="14" attributeName="stroke-dashoffset" values="68.17;0" dur="0.51s" fill="freeze" begin="13.end" /></path></g><g><path d="M73.76,12.36c0.94,0.88,2,1.64,2,3.82c0,11.47,0.17,53.36,0.17,56.36" stroke-dasharray="60.85" stroke-dashoffset="60.85"><animate attributeName="stroke-dashoffset" values="60.85" fill="freeze" begin="9f2c.click" /><animate id="15" attributeName="stroke-dashoffset" values="60.85;0" dur="0.46s" fill="freeze" begin="14.end" /></path></g><g p5:part="2" p5:partial xmlns:p5="http://kanjivg.tagaini.net"><path d="M62.45,53.93c2.7-0.35,26.34-2.26,28.57-2.26" stroke-dasharray="28.66" stroke-dashoffset="28.66"><animate attributeName="stroke-dashoffset" values="28.66" fill="freeze" begin="9f2c.click" /><animate id="16" attributeName="stroke-dashoffset" values="28.66;0" dur="0.29s" fill="freeze" begin="15.end" /></path><path d="M63.82,73.65c6.84-0.51,17.84-1.99,26.09-2.18" stroke-dasharray="26.19" stroke-dashoffset="26.19"><animate attributeName="stroke-dashoffset" values="26.19" fill="freeze" begin="9f2c.click" /><animate id="17" attributeName="stroke-dashoffset" values="26.19;0" dur="0.26s" fill="freeze" begin="16.end" /></path></g></g></g></g></svg>