<svg xmlns="http://www.w3.org/2000/svg" viewBox="0 0 109 109" id="9f4f"><g fill="none" stroke="#666" stroke-width="6" stroke-linecap="round" stroke-linejoin="round"><g><g><g><path d="M50.82,8.75c0.78,0.42,2.07,2.05,2.07,2.89c0,3.09-0.25,4.5-0.1,7.12" /><path d="M17.83,21.19c1.73,0.34,3.25,0.59,5.25,0.48c12.16-0.67,48.66-3.18,62.49-3.88c2.03-0.1,3.07,0.04,4.59,0.61" /></g><g><path d="M43.77,24.08c1.78,0.99,4.6,4.09,5.04,5.63" /><path d="M60.29,24.14c0.02,0.21,0.04,0.54-0.03,0.83c-0.41,1.76-2.75,5.62-5.94,7.99" /><path d="M52.81,33.83c0.42,0.4,0.72,0.86,0.76,2.17c0.17,6.28-0.01,10.11-0.01,12.25" /><g><path d="M20.35,30.75c0.51,0.2,1.6,0.18,2.05,0.11c3.64-0.56,14.57-1.57,16.59-1.78c1.31-0.14,1.74,0.62,1.61,1.56c-0.76,5.24-2.33,10.44-4.64,14.42c-1.21,2.09-2.62,1.42-3.5-0.2" /><path d="M30.47,32.52c0.04,0.35,0.09,0.91-0.07,1.42c-1.2,3.74-6.28,9.02-12.75,13.57" /></g><path d="M80.96,21.39c0.04,0.22,0.08,0.56-0.07,0.87c-0.88,1.84-6.72,6.35-13.61,8.83" /><path d="M64.75,30.77c0.41,0.61,0.71,1.43,0.71,2.34c0,0.92-0.1,8.82-0.1,10.25c0,1.43,0.1,1.83,1.42,0.81c1.32-1.02,8.29-5.56,9.1-6.17" /><path d="M75.12,28.36c2.03,3.47,5.67,8.45,10.54,12.14c1.17,0.89,2.8,1.47,4.33,1.99" /><path d="M25.55,51.32c0.88,0.66,1.2,2.33,1.2,3.05c0,3.87-0.17,16.3-0.27,17.78c-0.58,8.52-2.81,20.09-11.52,27.31" /><g><path d="M38.3,52.82c1.95,0.18,3.1,0.31,4.46,0.23c8.74-0.54,19.36-1.57,27-2.22c1.95-0.17,3.37,0.22,4,0.17" /><path d="M32.29,60.63c0.87-0.03,2.91,0.37,5.68,0.21c9.17-0.52,26.31-2.57,35.28-3.06c2.26-0.12,4,0.29,4.96,0.26" /></g></g></g><g><g><g><path d="M47.75,64.92c0.66,0.23,1.06,2.04,1.19,2.5c0.13,0.46,0,26.43-0.13,29.31" /><path d="M59.38,64c0.66,0.23,1.06,1.54,1.2,2c0.13,0.46,0,27.89-0.13,30.77" /><path d="M31.62,71.11c0.57,0.18,1.62,0.18,2.19,0.18c4.66-0.01,14.47-0.43,15.08-0.43" /><path d="M31.45,79.38c0.57,0.18,1.62,0.18,2.19,0.18c4.66-0.01,14.49-0.66,15.1-0.66" /></g><g><path d="M31.35,87.65c0.57,0.18,1.62,0.18,2.19,0.18c4.66-0.01,14.09-1,14.7-1" /><path d="M60.83,69.34c0.76,0,11.13-1.19,14.61-1.47c0.95-0.08,1.53,0.08,2,0.17" /><path d="M60.68,78.04c0.76,0,10.78-1.37,14.26-1.65c0.95-0.08,1.53,0.08,2,0.17" /><path d="M60.83,86.31c0.76,0,10.88-1.37,14.36-1.65c0.95-0.08,1.53,0.08,2,0.17" /></g></g><g><path d="M29.75,97.52c1.33,0.25,3.77,0.25,5.1,0.25C43,97.75,66,96.25,74.34,96.05c2.21-0.05,3.55,0.12,4.66,0.24" /></g></g><g><path d="M82.72,48.01c0.69,0.56,1.83,2.71,1.83,3.83c0,4.4-0.02,44.65-0.09,47.8" /></g></g></g><g fill="none" stroke="#000" stroke-width="3" stroke-linecap="round" stroke-linejoin="round"><path d="M50.82,8.75c0.78,0.42,2.07,2.05,2.07,2.89c0,3.09-0.25,4.5-0.1,7.12" stroke-dasharray="10.776" stroke-dashoffset="10.776"><animate attributeName="stroke-dashoffset" values="10.776;10.776;0" dur="0.216s" fill="freeze" begin="0s;9f4f.click" /></path><path d="M17.83,21.19c1.73,0.34,3.25,0.59,5.25,0.48c12.16-0.67,48.66-3.18,62.49-3.88c2.03-0.1,3.07,0.04,4.59,0.61" stroke-dasharray="72.571" stroke-dashoffset="72.571"><animate attributeName="stroke-dashoffset" values="72.571" fill="freeze" begin="9f4f.click" /><animate attributeName="stroke-dashoffset" values="72.571;72.571;0" keyTimes="0;0.283;1" dur="0.762s" fill="freeze" begin="0s;9f4f.click" /></path><path d="M43.77,24.08c1.78,0.99,4.6,4.09,5.04,5.63" stroke-dasharray="7.666" stroke-dashoffset="7.666"><animate attributeName="stroke-dashoffset" values="7.666" fill="freeze" begin="9f4f.click" /><animate attributeName="stroke-dashoffset" values="7.666;7.666;0" keyTimes="0;0.833;1" dur="0.915s" fill="freeze" begin="0s;9f4f.click" /></path><path d="M60.29,24.14c0.02,0.21,0.04,0.54-0.03,0.83c-0.41,1.76-2.75,5.62-5.94,7.99" stroke-dasharray="10.937" stroke-dashoffset="10.937"><animate attributeName="stroke-dashoffset" values="10.937" fill="freeze" begin="9f4f.click" /><animate attributeName="stroke-dashoffset" values="10.937;10.937;0" keyTimes="0;0.807;1" dur="1.134s" fill="freeze" begin="0s;9f4f.click" /></path><path d="M52.81,33.83c0.42,0.4,0.72,0.86,0.76,2.17c0.17,6.28-0.01,10.11-0.01,12.25" stroke-dasharray="14.622" stroke-dashoffset="14.622"><animate attributeName="stroke-dashoffset" values="14.622" fill="freeze" begin="9f4f.click" /><animate attributeName="stroke-dashoffset" values="14.622;14.622;0" keyTimes="0;0.795;1" dur="1.426s" fill="freeze" begin="0s;9f4f.click" /></path><path d="M20.35,30.75c0.51,0.2,1.6,0.18,2.05,0.11c3.64-0.56,14.57-1.57,16.59-1.78c1.31-0.14,1.74,0.62,1.61,1.56c-0.76,5.24-2.33,10.44-4.64,14.42c-1.21,2.09-2.62,1.42-3.5-0.2" stroke-dasharray="41.4" stroke-dashoffset="41.4"><animate attributeName="stroke-dashoffset" values="41.4" fill="freeze" begin="9f4f.click" /><animate attributeName="stroke-dashoffset" values="41.4;41.4;0" keyTimes="0;0.775;1" dur="1.84s" fill="freeze" begin="0s;9f4f.click" /></path><path d="M30.47,32.52c0.04,0.35,0.09,0.91-0.07,1.42c-1.2,3.74-6.28,9.02-12.75,13.57" stroke-dasharray="20.296" stroke-dashoffset="20.296"><animate attributeName="stroke-dashoffset" values="20.296" fill="freeze" begin="9f4f.click" /><animate attributeName="stroke-dashoffset" values="20.296;20.296;0" keyTimes="0;0.901;1" dur="2.043s" fill="freeze" begin="0s;9f4f.click" /></path><path d="M80.96,21.39c0.04,0.22,0.08,0.56-0.07,0.87c-0.88,1.84-6.72,6.35-13.61,8.83" stroke-dasharray="17.322" stroke-dashoffset="17.322"><animate attributeName="stroke-dashoffset" values="17.322" fill="freeze" begin="9f4f.click" /><animate attributeName="stroke-dashoffset" values="17.322;17.322;0" keyTimes="0;0.922;1" dur="2.216s" fill="freeze" begin="0s;9f4f.click" /></path><path d="M64.75,30.77c0.41,0.61,0.71,1.43,0.71,2.34c0,0.92-0.1,8.82-0.1,10.25c0,1.43,0.1,1.83,1.42,0.81c1.32-1.02,8.29-5.56,9.1-6.17" stroke-dasharray="26.476" stroke-dashoffset="26.476"><animate attributeName="stroke-dashoffset" values="26.476" fill="freeze" begin="9f4f.click" /><animate attributeName="stroke-dashoffset" values="26.476;26.476;0" keyTimes="0;0.893;1" dur="2.481s" fill="freeze" begin="0s;9f4f.click" /></path><path d="M75.12,28.36c2.03,3.47,5.67,8.45,10.54,12.14c1.17,0.89,2.8,1.47,4.33,1.99" stroke-dasharray="20.961" stroke-dashoffset="20.961"><animate attributeName="stroke-dashoffset" values="20.961" fill="freeze" begin="9f4f.click" /><animate attributeName="stroke-dashoffset" values="20.961;20.961;0" keyTimes="0;0.922;1" dur="2.691s" fill="freeze" begin="0s;9f4f.click" /></path><path d="M25.55,51.32c0.88,0.66,1.2,2.33,1.2,3.05c0,3.87-0.17,16.3-0.27,17.78c-0.58,8.52-2.81,20.09-11.52,27.31" stroke-dasharray="51.638" stroke-dashoffset="51.638"><animate attributeName="stroke-dashoffset" values="51.638" fill="freeze" begin="9f4f.click" /><animate attributeName="stroke-dashoffset" values="51.638;51.638;0" keyTimes="0;0.839;1" dur="3.207s" fill="freeze" begin="0s;9f4f.click" /></path><path d="M38.3,52.82c1.95,0.18,3.1,0.31,4.46,0.23c8.74-0.54,19.36-1.57,27-2.22c1.95-0.17,3.37,0.22,4,0.17" stroke-dasharray="35.575" stroke-dashoffset="35.575"><animate attributeName="stroke-dashoffset" values="35.575" fill="freeze" begin="9f4f.click" /><animate attributeName="stroke-dashoffset" values="35.575;35.575;0" keyTimes="0;0.9;1" dur="3.563s" fill="freeze" begin="0s;9f4f.click" /></path><path d="M32.29,60.63c0.87-0.03,2.91,0.37,5.68,0.21c9.17-0.52,26.31-2.57,35.28-3.06c2.26-0.12,4,0.29,4.96,0.26" stroke-dasharray="46.078" stroke-dashoffset="46.078"><animate attributeName="stroke-dashoffset" values="46.078" fill="freeze" begin="9f4f.click" /><animate attributeName="stroke-dashoffset" values="46.078;46.078;0" keyTimes="0;0.885;1" dur="4.024s" fill="freeze" begin="0s;9f4f.click" /></path><path d="M47.75,64.92c0.66,0.23,1.06,2.04,1.19,2.5c0.13,0.46,0,26.43-0.13,29.31" stroke-dasharray="32.153" stroke-dashoffset="32.153"><animate attributeName="stroke-dashoffset" values="32.153" fill="freeze" begin="9f4f.click" /><animate attributeName="stroke-dashoffset" values="32.153;32.153;0" keyTimes="0;0.926;1" dur="4.346s" fill="freeze" begin="0s;9f4f.click" /></path><path d="M59.38,64c0.66,0.23,1.06,1.54,1.2,2c0.13,0.46,0,27.89-0.13,30.77" stroke-dasharray="33.174" stroke-dashoffset="33.174"><animate attributeName="stroke-dashoffset" values="33.174" fill="freeze" begin="9f4f.click" /><animate attributeName="stroke-dashoffset" values="33.174;33.174;0" keyTimes="0;0.929;1" dur="4.678s" fill="freeze" begin="0s;9f4f.click" /></path><path d="M31.62,71.11c0.57,0.18,1.62,0.18,2.19,0.18c4.66-0.01,14.47-0.43,15.08-0.43" stroke-dasharray="17.292" stroke-dashoffset="17.292"><animate attributeName="stroke-dashoffset" values="17.292" fill="freeze" begin="9f4f.click" /><animate attributeName="stroke-dashoffset" values="17.292;17.292;0" keyTimes="0;0.964;1" dur="4.851s" fill="freeze" begin="0s;9f4f.click" /></path><path d="M31.45,79.38c0.57,0.18,1.62,0.18,2.19,0.18c4.66-0.01,14.49-0.66,15.1-0.66" stroke-dasharray="17.321" stroke-dashoffset="17.321"><animate attributeName="stroke-dashoffset" values="17.321" fill="freeze" begin="9f4f.click" /><animate attributeName="stroke-dashoffset" values="17.321;17.321;0" keyTimes="0;0.966;1" dur="5.024s" fill="freeze" begin="0s;9f4f.click" /></path><path d="M31.35,87.65c0.57,0.18,1.62,0.18,2.19,0.18c4.66-0.01,14.09-1,14.7-1" stroke-dasharray="16.943" stroke-dashoffset="16.943"><animate attributeName="stroke-dashoffset" values="16.943" fill="freeze" begin="9f4f.click" /><animate attributeName="stroke-dashoffset" values="16.943;16.943;0" keyTimes="0;0.967;1" dur="5.193s" fill="freeze" begin="0s;9f4f.click" /></path><path d="M60.83,69.34c0.76,0,11.13-1.19,14.61-1.47c0.95-0.08,1.53,0.08,2,0.17" stroke-dasharray="16.701" stroke-dashoffset="16.701"><animate attributeName="stroke-dashoffset" values="16.701" fill="freeze" begin="9f4f.click" /><animate attributeName="stroke-dashoffset" values="16.701;16.701;0" keyTimes="0;0.969;1" dur="5.36s" fill="freeze" begin="0s;9f4f.click" /></path><path d="M60.68,78.04c0.76,0,10.78-1.37,14.26-1.65c0.95-0.08,1.53,0.08,2,0.17" stroke-dasharray="16.373" stroke-dashoffset="16.373"><animate attributeName="stroke-dashoffset" values="16.373" fill="freeze" begin="9f4f.click" /><animate attributeName="stroke-dashoffset" values="16.373;16.373;0" keyTimes="0;0.97;1" dur="5.524s" fill="freeze" begin="0s;9f4f.click" /></path><path d="M60.83,86.31c0.76,0,10.88-1.37,14.36-1.65c0.95-0.08,1.53,0.08,2,0.17" stroke-dasharray="16.473" stroke-dashoffset="16.473"><animate attributeName="stroke-dashoffset" values="16.473" fill="freeze" begin="9f4f.click" /><animate attributeName="stroke-dashoffset" values="16.473;16.473;0" keyTimes="0;0.971;1" dur="5.689s" fill="freeze" begin="0s;9f4f.click" /></path><path d="M29.75,97.52c1.33,0.25,3.77,0.25,5.1,0.25C43,97.75,66,96.25,74.34,96.05c2.21-0.05,3.55,0.12,4.66,0.24" stroke-dasharray="49.313" stroke-dashoffset="49.313"><animate attributeName="stroke-dashoffset" values="49.313" fill="freeze" begin="9f4f.click" /><animate attributeName="stroke-dashoffset" values="49.313;49.313;0" keyTimes="0;0.92;1" dur="6.182s" fill="freeze" begin="0s;9f4f.click" /></path><path d="M82.72,48.01c0.69,0.56,1.83,2.71,1.83,3.83c0,4.4-0.02,44.65-0.09,47.8" stroke-dasharray="52.123" stroke-dashoffset="52.123"><animate attributeName="stroke-dashoffset" values="52.123" fill="freeze" begin="9f4f.click" /><animate attributeName="stroke-dashoffset" values="52.123;52.123;0" keyTimes="0;0.922;1" dur="6.703s" fill="freeze" begin="0s;9f4f.click" /></path></g></svg>