<svg xmlns="http://www.w3.org/2000/svg" width="109" height="109" viewBox="0 0 109 109" id="9f67"><g fill="none" stroke="#666" stroke-width="9" stroke-linecap="round" stroke-linejoin="round"><g><g><g><g><g><path d="M15.59,18.31c0.71,0.33,3.07,0.48,3.8,0.43C25.99,18.25,37,17,44.34,16.08c0.89-0.11,2.86-0.13,4.19,0.15" /></g><g><g><path d="M19.59,28.31c0.59,0.33,2.56,0.48,3.17,0.43c5.49-0.49,14.24-2.24,20.28-3.17c0.74-0.11,2.38-0.13,3.49,0.15" /></g><g><path d="M16,39.7c0.8,0.55,2.41,0.84,4.82,0.12c6.69-2,18.74-5.57,25.43-7.57" /></g></g></g><path d="M30.37,10.25c1.09,0.5,1.69,2.26,1.96,3.25C33,16,33,33.5,33.5,42.5" /></g><g><path d="M56.4,14.93c1.1,0.32,2.86,0.78,3.57,0.67c5.86-0.88,22.72-3.23,25.96-3.56c2.11-0.21,3.2,1.45,3.08,2.94c-0.31,3.91-4.85,19.39-8.12,22.05c-3.05,2.48-5.15-0.28-6.63-2.32" /><path d="M68.6,16.56c0.03,0.43,0.1,1.11-0.07,1.72C67.25,23,63.75,30,55.64,36.25" /></g></g><g><g><g><path d="M52.83,41.5c1.01,0.32,1.83,1.41,1.83,2.06c0,3.32,0.27,9.51,0.27,12.68" /><path d="M55.15,48.93c6.63-0.47,12.33-1.77,19.3-2.08c1.62-0.07,2.03-0.16,3.04,0" /></g><path d="M36.69,46.93c1.01,0.32,1.62,1.42,1.83,2.06c0.2,0.63,0,4.9-0.2,8.86" /><path d="M16.94,58.21c0.81,0.21,2.99,0.71,5.16,0.63c11.7-0.42,50.67-3.77,61.76-3.77c2.18,0,5.95,0.42,7.19,0.63" /></g><g><g><g><path d="M43.38,60.73c0.17,0.14-0.09,1.47-0.22,1.79C41.7,66,37.9,71.7,32.5,74.97" /><path d="M42.25,67.04c2.91,0.98,6.64,3.59,8.05,6.06" /></g><g><path d="M67.49,59.92c0.16,0.12-0.08,1.27-0.2,1.55c-1.31,3-4.72,7.92-9.57,10.74" /><path d="M66.61,64.98c3.37,1.1,7.67,4.03,9.3,6.81" /></g></g><path d="M26.58,78.53c3.29,0,52.39-3.06,55.45-3.06" /><g><g><path d="M42.88,80.71c0.18,0.12-0.09,1.27-0.23,1.54c-1.53,2.99-5.5,7.88-11.15,10.7" /><path d="M42.75,86.21c2.94,1.01,6.69,3.71,8.11,6.27" /></g><g><path d="M68.59,79.95c0.14,0.12-0.07,1.21-0.18,1.47c-1.21,2.84-4.35,7.5-8.83,10.18" /><path d="M66.91,84.6c3.44,1.03,7.84,3.76,9.51,6.35" /></g></g><g><path d="M24.56,64.67c0.71,0.28,2.06,2.18,1.89,3.69c-0.06,0.57-0.4,26.6-0.47,27.47c-0.07,0.87,0.61,1.59,2.02,1.51c15.31-0.81,40.18-2.44,54.53-2.75" /><path d="M81.1,60.82c0.45,0.28,1.39,2.12,1.48,2.69c0.09,0.57-0.19,20.16-0.15,33.37" /></g></g></g></g></g><g fill="none" stroke="#000" stroke-width="5" stroke-linecap="round" stroke-linejoin="round"><g><g><g><g><g><path d="M15.59,18.31c0.71,0.33,3.07,0.48,3.8,0.43C25.99,18.25,37,17,44.34,16.08c0.89-0.11,2.86-0.13,4.19,0.15" stroke-dasharray="33.14" stroke-dashoffset="33.14"><animate id="0" attributeName="stroke-dashoffset" values="33.14;0" dur="0.33s" fill="freeze" begin="0s;9f67.click" /></path></g><g><g><path d="M19.59,28.31c0.59,0.33,2.56,0.48,3.17,0.43c5.49-0.49,14.24-2.24,20.28-3.17c0.74-0.11,2.38-0.13,3.49,0.15" stroke-dasharray="27.26" stroke-dashoffset="27.26"><animate attributeName="stroke-dashoffset" values="27.26" fill="freeze" begin="9f67.click" /><animate id="1" attributeName="stroke-dashoffset" values="27.26;0" dur="0.27s" fill="freeze" begin="0.end" /></path></g><g><path d="M16,39.7c0.8,0.55,2.41,0.84,4.82,0.12c6.69-2,18.74-5.57,25.43-7.57" stroke-dasharray="31.5" stroke-dashoffset="31.5"><animate attributeName="stroke-dashoffset" values="31.5" fill="freeze" begin="9f67.click" /><animate id="2" attributeName="stroke-dashoffset" values="31.5;0" dur="0.32s" fill="freeze" begin="1.end" /></path></g></g></g><path d="M30.37,10.25c1.09,0.5,1.69,2.26,1.96,3.25C33,16,33,33.5,33.5,42.5" stroke-dasharray="32.94" stroke-dashoffset="32.94"><animate attributeName="stroke-dashoffset" values="32.94" fill="freeze" begin="9f67.click" /><animate id="3" attributeName="stroke-dashoffset" values="32.94;0" dur="0.33s" fill="freeze" begin="2.end" /></path></g><g><path d="M56.4,14.93c1.1,0.32,2.86,0.78,3.57,0.67c5.86-0.88,22.72-3.23,25.96-3.56c2.11-0.21,3.2,1.45,3.08,2.94c-0.31,3.91-4.85,19.39-8.12,22.05c-3.05,2.48-5.15-0.28-6.63-2.32" stroke-dasharray="66.69" stroke-dashoffset="66.69"><animate attributeName="stroke-dashoffset" values="66.69" fill="freeze" begin="9f67.click" /><animate id="4" attributeName="stroke-dashoffset" values="66.69;0" dur="0.5s" fill="freeze" begin="3.end" /></path><path d="M68.6,16.56c0.03,0.43,0.1,1.11-0.07,1.72C67.25,23,63.75,30,55.64,36.25" stroke-dasharray="24.23" stroke-dashoffset="24.23"><animate attributeName="stroke-dashoffset" values="24.23" fill="freeze" begin="9f67.click" /><animate id="5" attributeName="stroke-dashoffset" values="24.23;0" dur="0.24s" fill="freeze" begin="4.end" /></path></g></g><g><g><g><path d="M52.83,41.5c1.01,0.32,1.83,1.41,1.83,2.06c0,3.32,0.27,9.51,0.27,12.68" stroke-dasharray="15.58" stroke-dashoffset="15.58"><animate attributeName="stroke-dashoffset" values="15.58" fill="freeze" begin="9f67.click" /><animate id="6" attributeName="stroke-dashoffset" values="15.58;0" dur="0.16s" fill="freeze" begin="5.end" /></path><path d="M55.15,48.93c6.63-0.47,12.33-1.77,19.3-2.08c1.62-0.07,2.03-0.16,3.04,0" stroke-dasharray="22.46" stroke-dashoffset="22.46"><animate attributeName="stroke-dashoffset" values="22.46" fill="freeze" begin="9f67.click" /><animate id="7" attributeName="stroke-dashoffset" values="22.46;0" dur="0.22s" fill="freeze" begin="6.end" /></path></g><path d="M36.69,46.93c1.01,0.32,1.62,1.42,1.83,2.06c0.2,0.63,0,4.9-0.2,8.86" stroke-dasharray="11.72" stroke-dashoffset="11.72"><animate attributeName="stroke-dashoffset" values="11.72" fill="freeze" begin="9f67.click" /><animate id="8" attributeName="stroke-dashoffset" values="11.72;0" dur="0.12s" fill="freeze" begin="7.end" /></path><path d="M16.94,58.21c0.81,0.21,2.99,0.71,5.16,0.63c11.7-0.42,50.67-3.77,61.76-3.77c2.18,0,5.95,0.42,7.19,0.63" stroke-dasharray="74.32" stroke-dashoffset="74.32"><animate attributeName="stroke-dashoffset" values="74.32" fill="freeze" begin="9f67.click" /><animate id="9" attributeName="stroke-dashoffset" values="74.32;0" dur="0.56s" fill="freeze" begin="8.end" /></path></g><g><g><g><path d="M43.38,60.73c0.17,0.14-0.09,1.47-0.22,1.79C41.7,66,37.9,71.7,32.5,74.97" stroke-dasharray="18.46" stroke-dashoffset="18.46"><animate attributeName="stroke-dashoffset" values="18.46" fill="freeze" begin="9f67.click" /><animate id="10" attributeName="stroke-dashoffset" values="18.46;0" dur="0.18s" fill="freeze" begin="9.end" /></path><path d="M42.25,67.04c2.91,0.98,6.64,3.59,8.05,6.06" stroke-dasharray="10.25" stroke-dashoffset="10.25"><animate attributeName="stroke-dashoffset" values="10.25" fill="freeze" begin="9f67.click" /><animate id="11" attributeName="stroke-dashoffset" values="10.25;0" dur="0.1s" fill="freeze" begin="10.end" /></path></g><g><path d="M67.49,59.92c0.16,0.12-0.08,1.27-0.2,1.55c-1.31,3-4.72,7.92-9.57,10.74" stroke-dasharray="16.19" stroke-dashoffset="16.19"><animate attributeName="stroke-dashoffset" values="16.19" fill="freeze" begin="9f67.click" /><animate id="12" attributeName="stroke-dashoffset" values="16.19;0" dur="0.16s" fill="freeze" begin="11.end" /></path><path d="M66.61,64.98c3.37,1.1,7.67,4.03,9.3,6.81" stroke-dasharray="11.72" stroke-dashoffset="11.72"><animate attributeName="stroke-dashoffset" values="11.72" fill="freeze" begin="9f67.click" /><animate id="13" attributeName="stroke-dashoffset" values="11.72;0" dur="0.12s" fill="freeze" begin="12.end" /></path></g></g><path d="M26.58,78.53c3.29,0,52.39-3.06,55.45-3.06" stroke-dasharray="55.54" stroke-dashoffset="55.54"><animate attributeName="stroke-dashoffset" values="55.54" fill="freeze" begin="9f67.click" /><animate id="14" attributeName="stroke-dashoffset" values="55.54;0" dur="0.56s" fill="freeze" begin="13.end" /></path><g><g><path d="M42.88,80.71c0.18,0.12-0.09,1.27-0.23,1.54c-1.53,2.99-5.5,7.88-11.15,10.7" stroke-dasharray="17.27" stroke-dashoffset="17.27"><animate attributeName="stroke-dashoffset" values="17.27" fill="freeze" begin="9f67.click" /><animate id="15" attributeName="stroke-dashoffset" values="17.27;0" dur="0.17s" fill="freeze" begin="14.end" /></path><path d="M42.75,86.21c2.94,1.01,6.69,3.71,8.11,6.27" stroke-dasharray="10.43" stroke-dashoffset="10.43"><animate attributeName="stroke-dashoffset" values="10.43" fill="freeze" begin="9f67.click" /><animate id="16" attributeName="stroke-dashoffset" values="10.43;0" dur="0.1s" fill="freeze" begin="15.end" /></path></g><g><path d="M68.59,79.95c0.14,0.12-0.07,1.21-0.18,1.47c-1.21,2.84-4.35,7.5-8.83,10.18" stroke-dasharray="15.18" stroke-dashoffset="15.18"><animate attributeName="stroke-dashoffset" values="15.18" fill="freeze" begin="9f67.click" /><animate id="17" attributeName="stroke-dashoffset" values="15.18;0" dur="0.15s" fill="freeze" begin="16.end" /></path><path d="M66.91,84.6c3.44,1.03,7.84,3.76,9.51,6.35" stroke-dasharray="11.62" stroke-dashoffset="11.62"><animate attributeName="stroke-dashoffset" values="11.62" fill="freeze" begin="9f67.click" /><animate id="18" attributeName="stroke-dashoffset" values="11.62;0" dur="0.12s" fill="freeze" begin="17.end" /></path></g></g><g><path d="M24.56,64.67c0.71,0.28,2.06,2.18,1.89,3.69c-0.06,0.57-0.4,26.6-0.47,27.47c-0.07,0.87,0.61,1.59,2.02,1.51c15.31-0.81,40.18-2.44,54.53-2.75" stroke-dasharray="89.31" stroke-dashoffset="89.31"><animate attributeName="stroke-dashoffset" values="89.31" fill="freeze" begin="9f67.click" /><animate id="19" attributeName="stroke-dashoffset" values="89.31;0" dur="0.67s" fill="freeze" begin="18.end" /></path><path d="M81.1,60.82c0.45,0.28,1.39,2.12,1.48,2.69c0.09,0.57-0.19,20.16-0.15,33.37" stroke-dasharray="36.48" stroke-dashoffset="36.48"><animate attributeName="stroke-dashoffset" values="36.48" fill="freeze" begin="9f67.click" /><animate id="20" attributeName="stroke-dashoffset" values="36.48;0" dur="0.36s" fill="freeze" begin="19.end" /></path></g></g></g></g></g></svg>