<svg xmlns="http://www.w3.org/2000/svg" width="109" height="109" viewBox="0 0 109 109" id="9f76"><g fill="none" stroke="#666" stroke-width="9" stroke-linecap="round" stroke-linejoin="round"><g><g><g><g><path d="M31.59,12.5c0.65,0.51,1.17,2.25,1.17,3.29c0,5.31,0.17,12.92,0.17,17.98" /><path d="M34.39,23.39c4.24-0.76,7.84-1.02,12.3-1.53c1.04-0.12,1.3-0.25,1.94,0" /></g><path d="M20.49,19.08c0.65,0.51,1.04,2.28,1.17,3.29c0.13,1.01,0,6.34-0.13,12.67" /><path d="M9.75,35.04c0.49,0.25,1.8,0.85,3.1,0.76c7.03-0.51,28.43-3.05,35.08-3.05c1.31,0,3.57,0.01,4.32,0.26" /></g><g><g><g><path d="M26.97,40.06c0.1,0.19-0.05,1.93-0.12,2.34c-0.79,4.55-2.86,12-5.8,16.28" /><path d="M26.27,48.16c1.86,0.95,4.23,3.49,5.13,5.89" /></g><g><path d="M40.09,40.56c0.13,0.19-0.07,1.98-0.17,2.4c-1.12,4.67-4.01,12.31-8.14,16.7" /><path d="M39.4,48.9c2.04,1.24,4.64,4.52,5.63,7.64" /></g></g><path d="M15.91,65.63c2.1,0,31.57-2.79,33.53-2.79" /><g><g><path d="M27.96,69.92c0.13,0.2-0.07,2-0.17,2.44c-1.13,4.73-4.06,12.48-8.24,16.93" /><path d="M27.02,78.26c1.37,0.87,3.11,3.18,3.78,5.37" /></g><g><path d="M40.69,69.4c0.15,0.21-0.08,2.19-0.19,2.66c-1.27,5.16-4.57,13.61-9.26,18.47" /><path d="M38.45,79.23c2.2,1.4,5.01,5.12,6.08,8.65" /></g></g><g><path d="M14.8,43.26c0.46,0.45,1.32,1.89,1.21,4.3c-0.04,0.92-0.26,45.15-0.3,46.53c-0.04,1.38,0.39,2.54,1.29,2.42c9.79-1.29,22.77-2.3,31.94-2.81" /><path d="M48.16,40.21c0.28,0.45,0.89,3.39,0.94,4.3s-0.12,32.25-0.09,53.38" /></g></g></g><g><g><g><path d="M55.67,14.95c0.22,0.32,0.74,1.54,0.83,1.94c0.76,3.17,1.21,9.91,1.73,15.6" /><path d="M57.03,16.6c6.18-1.85,11.94-2.22,13.01-2.4c0.94-0.15,1.5,0.9,1.37,1.8c-0.56,3.7-1.2,7.67-2.03,12.79" /><path d="M59.32,30.23c3.01-0.47,7.65-0.78,11.78-1.51" /></g><g><path d="M77.02,13.06c0.25,0.32,0.52,0.59,0.63,0.99c0.88,3.17,1.67,10.83,2.28,16.53" /><path d="M78.08,14.68c5.17-1.18,11.19-2.03,14.17-2.44c1.09-0.15,1.75,0.9,1.59,1.8c-0.65,3.7-1.71,7.72-2.67,12.84" /><path d="M80.04,28.84c3.5-0.47,7.71-0.84,13.56-1.01" /></g></g><g><g><g><path d="M60.6,41.57c0.64,0.42,1.81,0.46,2.46,0.42c4.44-0.24,20.7-1.64,24.66-1.14c1.07,0.13,1.71,0.2,2.25,0.41" /></g><g><path d="M54.4,54.33c0.97,0.52,2.76,0.59,3.73,0.52C70,54,83.22,53.09,91.84,52.52c1.62-0.11,2.6,0.25,3.41,0.51" /></g></g><path d="M66.91,54.66c0.8,1.43,1.17,2.34,0.55,3.85c-0.5,1.21-4.12,7.34-4.44,7.93c-1.29,2.36-0.44,2.97,1.27,2.99c1.07,0.02,18.31-3.76,21.05-4.41c2.14-0.51,3.29,0.71,3.05,3.28c-0.64,7.11-6.13,20.2-11.65,27.81c-3,4.13-4.13-1.21-4.83-2.46" /></g></g></g></g><g fill="none" stroke="#000" stroke-width="5" stroke-linecap="round" stroke-linejoin="round"><g><g><g><g><path d="M31.59,12.5c0.65,0.51,1.17,2.25,1.17,3.29c0,5.31,0.17,12.92,0.17,17.98" stroke-dasharray="21.55" stroke-dashoffset="21.55"><animate id="0" attributeName="stroke-dashoffset" values="21.55;0" dur="0.22s" fill="freeze" begin="0s;9f76.click" /></path><path d="M34.39,23.39c4.24-0.76,7.84-1.02,12.3-1.53c1.04-0.12,1.3-0.25,1.94,0" stroke-dasharray="14.37" stroke-dashoffset="14.37"><animate attributeName="stroke-dashoffset" values="14.37" fill="freeze" begin="9f76.click" /><animate id="1" attributeName="stroke-dashoffset" values="14.37;0" dur="0.14s" fill="freeze" begin="0.end" /></path></g><path d="M20.49,19.08c0.65,0.51,1.04,2.28,1.17,3.29c0.13,1.01,0,6.34-0.13,12.67" stroke-dasharray="16.22" stroke-dashoffset="16.22"><animate attributeName="stroke-dashoffset" values="16.22" fill="freeze" begin="9f76.click" /><animate id="2" attributeName="stroke-dashoffset" values="16.22;0" dur="0.16s" fill="freeze" begin="1.end" /></path><path d="M9.75,35.04c0.49,0.25,1.8,0.85,3.1,0.76c7.03-0.51,28.43-3.05,35.08-3.05c1.31,0,3.57,0.01,4.32,0.26" stroke-dasharray="42.79" stroke-dashoffset="42.79"><animate attributeName="stroke-dashoffset" values="42.79" fill="freeze" begin="9f76.click" /><animate id="3" attributeName="stroke-dashoffset" values="42.79;0" dur="0.43s" fill="freeze" begin="2.end" /></path></g><g><g><g><path d="M26.97,40.06c0.1,0.19-0.05,1.93-0.12,2.34c-0.79,4.55-2.86,12-5.8,16.28" stroke-dasharray="19.74" stroke-dashoffset="19.74"><animate attributeName="stroke-dashoffset" values="19.74" fill="freeze" begin="9f76.click" /><animate id="4" attributeName="stroke-dashoffset" values="19.74;0" dur="0.2s" fill="freeze" begin="3.end" /></path><path d="M26.27,48.16c1.86,0.95,4.23,3.49,5.13,5.89" stroke-dasharray="7.95" stroke-dashoffset="7.95"><animate attributeName="stroke-dashoffset" values="7.95" fill="freeze" begin="9f76.click" /><animate id="5" attributeName="stroke-dashoffset" values="7.95;0" dur="0.08s" fill="freeze" begin="4.end" /></path></g><g><path d="M40.09,40.56c0.13,0.19-0.07,1.98-0.17,2.4c-1.12,4.67-4.01,12.31-8.14,16.7" stroke-dasharray="21.17" stroke-dashoffset="21.17"><animate attributeName="stroke-dashoffset" values="21.17" fill="freeze" begin="9f76.click" /><animate id="6" attributeName="stroke-dashoffset" values="21.17;0" dur="0.21s" fill="freeze" begin="5.end" /></path><path d="M39.4,48.9c2.04,1.24,4.64,4.52,5.63,7.64" stroke-dasharray="9.65" stroke-dashoffset="9.65"><animate attributeName="stroke-dashoffset" values="9.65" fill="freeze" begin="9f76.click" /><animate id="7" attributeName="stroke-dashoffset" values="9.65;0" dur="0.1s" fill="freeze" begin="6.end" /></path></g></g><path d="M15.91,65.63c2.1,0,31.57-2.79,33.53-2.79" stroke-dasharray="33.65" stroke-dashoffset="33.65"><animate attributeName="stroke-dashoffset" values="33.65" fill="freeze" begin="9f76.click" /><animate id="8" attributeName="stroke-dashoffset" values="33.65;0" dur="0.34s" fill="freeze" begin="7.end" /></path><g><g><path d="M27.96,69.92c0.13,0.2-0.07,2-0.17,2.44c-1.13,4.73-4.06,12.48-8.24,16.93" stroke-dasharray="21.46" stroke-dashoffset="21.46"><animate attributeName="stroke-dashoffset" values="21.46" fill="freeze" begin="9f76.click" /><animate id="9" attributeName="stroke-dashoffset" values="21.46;0" dur="0.21s" fill="freeze" begin="8.end" /></path><path d="M27.02,78.26c1.37,0.87,3.11,3.18,3.78,5.37" stroke-dasharray="6.67" stroke-dashoffset="6.67"><animate attributeName="stroke-dashoffset" values="6.67" fill="freeze" begin="9f76.click" /><animate id="10" attributeName="stroke-dashoffset" values="6.67;0" dur="0.07s" fill="freeze" begin="9.end" /></path></g><g><path d="M40.69,69.4c0.15,0.21-0.08,2.19-0.19,2.66c-1.27,5.16-4.57,13.61-9.26,18.47" stroke-dasharray="23.54" stroke-dashoffset="23.54"><animate attributeName="stroke-dashoffset" values="23.54" fill="freeze" begin="9f76.click" /><animate id="11" attributeName="stroke-dashoffset" values="23.54;0" dur="0.24s" fill="freeze" begin="10.end" /></path><path d="M38.45,79.23c2.2,1.4,5.01,5.12,6.08,8.65" stroke-dasharray="10.75" stroke-dashoffset="10.75"><animate attributeName="stroke-dashoffset" values="10.75" fill="freeze" begin="9f76.click" /><animate id="12" attributeName="stroke-dashoffset" values="10.75;0" dur="0.11s" fill="freeze" begin="11.end" /></path></g></g><g><path d="M14.8,43.26c0.46,0.45,1.32,1.89,1.21,4.3c-0.04,0.92-0.26,45.15-0.3,46.53c-0.04,1.38,0.39,2.54,1.29,2.42c9.79-1.29,22.77-2.3,31.94-2.81" stroke-dasharray="86.27" stroke-dashoffset="86.27"><animate attributeName="stroke-dashoffset" values="86.27" fill="freeze" begin="9f76.click" /><animate id="13" attributeName="stroke-dashoffset" values="86.27;0" dur="0.65s" fill="freeze" begin="12.end" /></path><path d="M48.16,40.21c0.28,0.45,0.89,3.39,0.94,4.3s-0.12,32.25-0.09,53.38" stroke-dasharray="57.79" stroke-dashoffset="57.79"><animate attributeName="stroke-dashoffset" values="57.79" fill="freeze" begin="9f76.click" /><animate id="14" attributeName="stroke-dashoffset" values="57.79;0" dur="0.58s" fill="freeze" begin="13.end" /></path></g></g></g><g><g><g><path d="M55.67,14.95c0.22,0.32,0.74,1.54,0.83,1.94c0.76,3.17,1.21,9.91,1.73,15.6" stroke-dasharray="17.82" stroke-dashoffset="17.82"><animate attributeName="stroke-dashoffset" values="17.82" fill="freeze" begin="9f76.click" /><animate id="15" attributeName="stroke-dashoffset" values="17.82;0" dur="0.18s" fill="freeze" begin="14.end" /></path><path d="M57.03,16.6c6.18-1.85,11.94-2.22,13.01-2.4c0.94-0.15,1.5,0.9,1.37,1.8c-0.56,3.7-1.2,7.67-2.03,12.79" stroke-dasharray="28.82" stroke-dashoffset="28.82"><animate attributeName="stroke-dashoffset" values="28.82" fill="freeze" begin="9f76.click" /><animate id="16" attributeName="stroke-dashoffset" values="28.82;0" dur="0.29s" fill="freeze" begin="15.end" /></path><path d="M59.32,30.23c3.01-0.47,7.65-0.78,11.78-1.51" stroke-dasharray="11.88" stroke-dashoffset="11.88"><animate attributeName="stroke-dashoffset" values="11.88" fill="freeze" begin="9f76.click" /><animate id="17" attributeName="stroke-dashoffset" values="11.88;0" dur="0.12s" fill="freeze" begin="16.end" /></path></g><g><path d="M77.02,13.06c0.25,0.32,0.52,0.59,0.63,0.99c0.88,3.17,1.67,10.83,2.28,16.53" stroke-dasharray="17.88" stroke-dashoffset="17.88"><animate attributeName="stroke-dashoffset" values="17.88" fill="freeze" begin="9f76.click" /><animate id="18" attributeName="stroke-dashoffset" values="17.88;0" dur="0.18s" fill="freeze" begin="17.end" /></path><path d="M78.08,14.68c5.17-1.18,11.19-2.03,14.17-2.44c1.09-0.15,1.75,0.9,1.59,1.8c-0.65,3.7-1.71,7.72-2.67,12.84" stroke-dasharray="30.3" stroke-dashoffset="30.3"><animate attributeName="stroke-dashoffset" values="30.3" fill="freeze" begin="9f76.click" /><animate id="19" attributeName="stroke-dashoffset" values="30.3;0" dur="0.3s" fill="freeze" begin="18.end" /></path><path d="M80.04,28.84c3.5-0.47,7.71-0.84,13.56-1.01" stroke-dasharray="13.6" stroke-dashoffset="13.6"><animate attributeName="stroke-dashoffset" values="13.6" fill="freeze" begin="9f76.click" /><animate id="20" attributeName="stroke-dashoffset" values="13.6;0" dur="0.14s" fill="freeze" begin="19.end" /></path></g></g><g><g><g><path d="M60.6,41.57c0.64,0.42,1.81,0.46,2.46,0.42c4.44-0.24,20.7-1.64,24.66-1.14c1.07,0.13,1.71,0.2,2.25,0.41" stroke-dasharray="29.53" stroke-dashoffset="29.53"><animate attributeName="stroke-dashoffset" values="29.53" fill="freeze" begin="9f76.click" /><animate id="21" attributeName="stroke-dashoffset" values="29.53;0" dur="0.3s" fill="freeze" begin="20.end" /></path></g><g><path d="M54.4,54.33c0.97,0.52,2.76,0.59,3.73,0.52C70,54,83.22,53.09,91.84,52.52c1.62-0.11,2.6,0.25,3.41,0.51" stroke-dasharray="41.07" stroke-dashoffset="41.07"><animate attributeName="stroke-dashoffset" values="41.07" fill="freeze" begin="9f76.click" /><animate id="22" attributeName="stroke-dashoffset" values="41.07;0" dur="0.41s" fill="freeze" begin="21.end" /></path></g></g><path d="M66.91,54.66c0.8,1.43,1.17,2.34,0.55,3.85c-0.5,1.21-4.12,7.34-4.44,7.93c-1.29,2.36-0.44,2.97,1.27,2.99c1.07,0.02,18.31-3.76,21.05-4.41c2.14-0.51,3.29,0.71,3.05,3.28c-0.64,7.11-6.13,20.2-11.65,27.81c-3,4.13-4.13-1.21-4.83-2.46" stroke-dasharray="82.83" stroke-dashoffset="82.83"><animate attributeName="stroke-dashoffset" values="82.83" fill="freeze" begin="9f76.click" /><animate id="23" attributeName="stroke-dashoffset" values="82.83;0" dur="0.62s" fill="freeze" begin="22.end" /></path></g></g></g></g></svg>