<svg xmlns="http://www.w3.org/2000/svg" viewBox="0 0 109 109" id="3052"><g fill="none" stroke="#666" stroke-width="6" stroke-linecap="round" stroke-linejoin="round"><g><path d="M24.91,20.25c1.25,1.5,2.37,3.75,1.88,6.38c-3,15.88-6.5,29.5-4.88,44.62c2.02,18.84,2.25,4.75,6.75-3.5" /><path d="M53.67,39.12c2.12,1.38,4.28,1.89,6.88,1.5c8.25-1.25,15.39-2.57,20.62-4c2.75-0.75,5.25-1.12,6.88-1.12" /><path d="M71.67,14.62c2.12,1.38,2.87,3.61,2.87,5.38c0,11.62,0.12,20.38,0.12,30.12c0,20.75-0.62,30.88-12.5,42.25" /><path d="M86.17,13c2.75,1.75,6,5.38,7.75,8.5" /><path d="M92.54,8.12c3.06,1.57,6.68,4.82,8.62,7.62" /></g></g><g fill="none" stroke="#000" stroke-width="3" stroke-linecap="round" stroke-linejoin="round"><path d="M24.91,20.25c1.25,1.5,2.37,3.75,1.88,6.38c-3,15.88-6.5,29.5-4.88,44.62c2.02,18.84,2.25,4.75,6.75-3.5" stroke-dasharray="75.487" stroke-dashoffset="75.487"><animate attributeName="stroke-dashoffset" values="75.487;75.487;0" dur="0.568s" fill="freeze" begin="0s;3052.click" /></path><path d="M53.67,39.12c2.12,1.38,4.28,1.89,6.88,1.5c8.25-1.25,15.39-2.57,20.62-4c2.75-0.75,5.25-1.12,6.88-1.12" stroke-dasharray="35.219" stroke-dashoffset="35.219"><animate attributeName="stroke-dashoffset" values="35.219" fill="freeze" begin="3052.click" /><animate attributeName="stroke-dashoffset" values="35.219;35.219;0" keyTimes="0;0.617;1" dur="0.92s" fill="freeze" begin="0s;3052.click" /></path><path d="M71.67,14.62c2.12,1.38,2.87,3.61,2.87,5.38c0,11.62,0.12,20.38,0.12,30.12c0,20.75-0.62,30.88-12.5,42.25" stroke-dasharray="82.154" stroke-dashoffset="82.154"><animate attributeName="stroke-dashoffset" values="82.154" fill="freeze" begin="3052.click" /><animate attributeName="stroke-dashoffset" values="82.154;82.154;0" keyTimes="0;0.598;1" dur="1.538s" fill="freeze" begin="0s;3052.click" /></path><path d="M86.17,13c2.75,1.75,6,5.38,7.75,8.5" stroke-dasharray="11.599" stroke-dashoffset="11.599"><animate attributeName="stroke-dashoffset" values="11.599" fill="freeze" begin="3052.click" /><animate attributeName="stroke-dashoffset" values="11.599;11.599;0" keyTimes="0;0.869;1" dur="1.77s" fill="freeze" begin="0s;3052.click" /></path><path d="M92.54,8.12c3.06,1.57,6.68,4.82,8.62,7.62" stroke-dasharray="11.601" stroke-dashoffset="11.601"><animate attributeName="stroke-dashoffset" values="11.601" fill="freeze" begin="3052.click" /><animate attributeName="stroke-dashoffset" values="11.601;11.601;0" keyTimes="0;0.884;1" dur="2.002s" fill="freeze" begin="0s;3052.click" /></path></g></svg>