<svg xmlns="http://www.w3.org/2000/svg" viewBox="0 0 109 109" id="3075"><g fill="none" stroke="#666" stroke-width="6" stroke-linecap="round" stroke-linejoin="round"><g><path d="M42.63,15.62c3.62,3.38,7.5,5.38,12.74,6.13c9.59,1.37,3.5,3.38-1.88,6.12" /><path d="M43.63,46.88c1.88,4.62,7.5,9.41,14.25,17.5c10.62,12.74,0.49,30-19.13,21.62" /><path d="M16.5,73.38c0.75,4,1.88,8.12,5,10.12c1.16,0.74,0.12-3.38,13.25-9.12" /><path d="M80.13,61.88c5.12,3.38,10.28,7.49,11.38,8.88c6.75,8.5-0.25,4.62-4.62,7.12" /></g></g><g fill="none" stroke="#000" stroke-width="3" stroke-linecap="round" stroke-linejoin="round"><path d="M42.63,15.62c3.62,3.38,7.5,5.38,12.74,6.13c9.59,1.37,3.5,3.38-1.88,6.12" stroke-dasharray="28.269" stroke-dashoffset="28.269"><animate attributeName="stroke-dashoffset" values="28.269;28.269;0" dur="0.283s" fill="freeze" begin="0s;3075.click" /></path><path d="M43.63,46.88c1.88,4.62,7.5,9.41,14.25,17.5c10.62,12.74,0.49,30-19.13,21.62" stroke-dasharray="65.757" stroke-dashoffset="65.757"><animate attributeName="stroke-dashoffset" values="65.757" fill="freeze" begin="3075.click" /><animate attributeName="stroke-dashoffset" values="65.757;65.757;0" keyTimes="0;0.364;1" dur="0.777s" fill="freeze" begin="0s;3075.click" /></path><path d="M16.5,73.38c0.75,4,1.88,8.12,5,10.12c1.16,0.74,0.12-3.38,13.25-9.12" stroke-dasharray="28.033" stroke-dashoffset="28.033"><animate attributeName="stroke-dashoffset" values="28.033" fill="freeze" begin="3075.click" /><animate attributeName="stroke-dashoffset" values="28.033;28.033;0" keyTimes="0;0.735;1" dur="1.057s" fill="freeze" begin="0s;3075.click" /></path><path d="M80.13,61.88c5.12,3.38,10.28,7.49,11.38,8.88c6.75,8.5-0.25,4.62-4.62,7.12" stroke-dasharray="28.257" stroke-dashoffset="28.257"><animate attributeName="stroke-dashoffset" values="28.257" fill="freeze" begin="3075.click" /><animate attributeName="stroke-dashoffset" values="28.257;28.257;0" keyTimes="0;0.789;1" dur="1.34s" fill="freeze" begin="0s;3075.click" /></path></g></svg>