<svg xmlns="http://www.w3.org/2000/svg" viewBox="0 0 109 109" id="3076"><g fill="none" stroke="#666" stroke-width="6" stroke-linecap="round" stroke-linejoin="round"><g><path d="M42.12,15.62c3.62,3.38,7.5,5.38,12.75,6.12c9.59,1.37,3.5,3.38-1.88,6.12" /><path d="M43.12,46.88c1.88,4.62,7.5,9.41,14.25,17.5c10.62,12.75,0.5,30-19.12,21.62" /><path d="M16.5,73.88c0.75,4,1.88,8.12,5,10.12c1.16,0.74,0.12-3.38,13.25-9.12" /><path d="M79.62,61.88c5.5,3.38,10.28,7.49,11.38,8.88c6.75,8.5-0.25,4.62-4.62,7.12" /><path d="M73.62,16.25c2.75,1.75,6,5.38,7.75,8.5" /><path d="M80,11.38c3.06,1.57,6.68,4.82,8.62,7.62" /></g></g><g fill="none" stroke="#000" stroke-width="3" stroke-linecap="round" stroke-linejoin="round"><path d="M42.12,15.62c3.62,3.38,7.5,5.38,12.75,6.12c9.59,1.37,3.5,3.38-1.88,6.12" stroke-dasharray="28.276" stroke-dashoffset="28.276"><animate attributeName="stroke-dashoffset" values="28.276;28.276;0" dur="0.283s" fill="freeze" begin="0s;3076.click" /></path><path d="M43.12,46.88c1.88,4.62,7.5,9.41,14.25,17.5c10.62,12.75,0.5,30-19.12,21.62" stroke-dasharray="65.754" stroke-dashoffset="65.754"><animate attributeName="stroke-dashoffset" values="65.754" fill="freeze" begin="3076.click" /><animate attributeName="stroke-dashoffset" values="65.754;65.754;0" keyTimes="0;0.364;1" dur="0.777s" fill="freeze" begin="0s;3076.click" /></path><path d="M16.5,73.88c0.75,4,1.88,8.12,5,10.12c1.16,0.74,0.12-3.38,13.25-9.12" stroke-dasharray="28.033" stroke-dashoffset="28.033"><animate attributeName="stroke-dashoffset" values="28.033" fill="freeze" begin="3076.click" /><animate attributeName="stroke-dashoffset" values="28.033;28.033;0" keyTimes="0;0.735;1" dur="1.057s" fill="freeze" begin="0s;3076.click" /></path><path d="M79.62,61.88c5.5,3.38,10.28,7.49,11.38,8.88c6.75,8.5-0.25,4.62-4.62,7.12" stroke-dasharray="28.27" stroke-dashoffset="28.27"><animate attributeName="stroke-dashoffset" values="28.27" fill="freeze" begin="3076.click" /><animate attributeName="stroke-dashoffset" values="28.27;28.27;0" keyTimes="0;0.789;1" dur="1.34s" fill="freeze" begin="0s;3076.click" /></path><path d="M73.62,16.25c2.75,1.75,6,5.38,7.75,8.5" stroke-dasharray="11.599" stroke-dashoffset="11.599"><animate attributeName="stroke-dashoffset" values="11.599" fill="freeze" begin="3076.click" /><animate attributeName="stroke-dashoffset" values="11.599;11.599;0" keyTimes="0;0.852;1" dur="1.572s" fill="freeze" begin="0s;3076.click" /></path><path d="M80,11.38c3.06,1.57,6.68,4.82,8.62,7.62" stroke-dasharray="11.601" stroke-dashoffset="11.601"><animate attributeName="stroke-dashoffset" values="11.601" fill="freeze" begin="3076.click" /><animate attributeName="stroke-dashoffset" values="11.601;11.601;0" keyTimes="0;0.871;1" dur="1.804s" fill="freeze" begin="0s;3076.click" /></path></g></svg>