<svg xmlns="http://www.w3.org/2000/svg" viewBox="0 0 109 109" id="30e7"><g fill="none" stroke="#666" stroke-width="6" stroke-linecap="round" stroke-linejoin="round"><g><path d="M33.5,50.62c1.9,1.21,4.09,1.6,7.39,1.21c11.19-1.32,21.35-2.46,29.07-3.44c4.79-0.61,5.49,0.4,5.2,5.16c-0.79,12.56-1.5,24.79-2.4,34.21" /><path d="M33.6,69.04c1.9,1.21,4.09,1.6,7.39,1.21c8.39-0.99,18.23-1.85,24.86-2.47c2.21-0.2,4.21,0.04,6.21,0.44" /><path d="M29,90.06c2.2,1.05,3.79,1.36,7.29,1.05c9.99-0.88,23.47-2.35,33.07-2.35c2.7,0,4.49,0,7.49,0.44" /></g></g><g fill="none" stroke="#000" stroke-width="3" stroke-linecap="round" stroke-linejoin="round"><path d="M33.5,50.62c1.9,1.21,4.09,1.6,7.39,1.21c11.19-1.32,21.35-2.46,29.07-3.44c4.79-0.61,5.49,0.4,5.2,5.16c-0.79,12.56-1.5,24.79-2.4,34.21" stroke-dasharray="80.668" stroke-dashoffset="80.668"><animate attributeName="stroke-dashoffset" values="80.668;80.668;0" dur="0.607s" fill="freeze" begin="0s;30e7.click" /></path><path d="M33.6,69.04c1.9,1.21,4.09,1.6,7.39,1.21c8.39-0.99,18.23-1.85,24.86-2.47c2.21-0.2,4.21,0.04,6.21,0.44" stroke-dasharray="38.881" stroke-dashoffset="38.881"><animate attributeName="stroke-dashoffset" values="38.881" fill="freeze" begin="30e7.click" /><animate attributeName="stroke-dashoffset" values="38.881;38.881;0" keyTimes="0;0.609;1" dur="0.996s" fill="freeze" begin="0s;30e7.click" /></path><path d="M29,90.06c2.2,1.05,3.79,1.36,7.29,1.05c9.99-0.88,23.47-2.35,33.07-2.35c2.7,0,4.49,0,7.49,0.44" stroke-dasharray="48.155" stroke-dashoffset="48.155"><animate attributeName="stroke-dashoffset" values="48.155" fill="freeze" begin="30e7.click" /><animate attributeName="stroke-dashoffset" values="48.155;48.155;0" keyTimes="0;0.674;1" dur="1.478s" fill="freeze" begin="0s;30e7.click" /></path></g></svg>