<svg xmlns="http://www.w3.org/2000/svg" viewBox="0 0 109 109" id="30ef"><g fill="none" stroke="#666" stroke-width="6" stroke-linecap="round" stroke-linejoin="round"><g><path d="M25,23.62c1.5,1.25,2.16,3.14,2.38,5.38c0.96,10.07,0.89,8.17,1.89,19.38c0.31,3.4,0.59,6.58,0.86,9.38" /><path d="M27.75,26.38c3.12,0.38,5.16,0.22,8.23-0.06c13.77-1.29,27.15-2.32,41.65-3.7c8.04-0.76,9.44,0.51,8.38,6.62c-4.76,27.26-20.64,47.64-43.88,61.51" /></g></g><g fill="none" stroke="#000" stroke-width="3" stroke-linecap="round" stroke-linejoin="round"><path d="M25,23.62c1.5,1.25,2.16,3.14,2.38,5.38c0.96,10.07,0.89,8.17,1.89,19.38c0.31,3.4,0.59,6.58,0.86,9.38" stroke-dasharray="34.932" stroke-dashoffset="34.932"><animate attributeName="stroke-dashoffset" values="34.932;34.932;0" dur="0.349s" fill="freeze" begin="0s;30ef.click" /></path><path d="M27.75,26.38c3.12,0.38,5.16,0.22,8.23-0.06c13.77-1.29,27.15-2.32,41.65-3.7c8.04-0.76,9.44,0.51,8.38,6.62c-4.76,27.26-20.64,47.64-43.88,61.51" stroke-dasharray="142.149" stroke-dashoffset="142.149"><animate attributeName="stroke-dashoffset" values="142.149" fill="freeze" begin="30ef.click" /><animate attributeName="stroke-dashoffset" values="142.149;142.149;0" keyTimes="0;0.246;1" dur="1.418s" fill="freeze" begin="0s;30ef.click" /></path></g></svg>