<svg xmlns="http://www.w3.org/2000/svg" viewBox="0 0 109 109" id="4e08"><g fill="none" stroke="#666" stroke-width="6" stroke-linecap="round" stroke-linejoin="round"><g><g><path d="M19.25,38.23c3.07,1.12,6.86,0.63,10.02,0.24c15.11-1.84,33.86-4.18,47.24-4.94c3.41-0.2,6.88-0.37,10.24,0.36" /></g><g><g><path d="M52.77,15.18c1.21,1.21,1.48,2.57,1.55,5.42C55.25,56.75,49.75,78,16.5,95" /></g><path d="M27.25,51.25c5.44,1.3,30.3,22.94,48.57,34.71c4.6,2.96,9.37,5.71,14.43,7.79" /></g></g></g><g fill="none" stroke="#000" stroke-width="3" stroke-linecap="round" stroke-linejoin="round"><path d="M19.25,38.23c3.07,1.12,6.86,0.63,10.02,0.24c15.11-1.84,33.86-4.18,47.24-4.94c3.41-0.2,6.88-0.37,10.24,0.36" stroke-dasharray="67.904" stroke-dashoffset="67.904"><animate attributeName="stroke-dashoffset" values="67.904;67.904;0" dur="0.511s" fill="freeze" begin="0s;4e08.click" /></path><path d="M52.77,15.18c1.21,1.21,1.48,2.57,1.55,5.42C55.25,56.75,49.75,78,16.5,95" stroke-dasharray="95.539" stroke-dashoffset="95.539"><animate attributeName="stroke-dashoffset" values="95.539" fill="freeze" begin="4e08.click" /><animate attributeName="stroke-dashoffset" values="95.539;95.539;0" keyTimes="0;0.416;1" dur="1.229s" fill="freeze" begin="0s;4e08.click" /></path><path d="M27.25,51.25c5.44,1.3,30.3,22.94,48.57,34.71c4.6,2.96,9.37,5.71,14.43,7.79" stroke-dasharray="76.201" stroke-dashoffset="76.201"><animate attributeName="stroke-dashoffset" values="76.201" fill="freeze" begin="4e08.click" /><animate attributeName="stroke-dashoffset" values="76.201;76.201;0" keyTimes="0;0.682;1" dur="1.802s" fill="freeze" begin="0s;4e08.click" /></path></g></svg>