<svg xmlns="http://www.w3.org/2000/svg" viewBox="0 0 109 109" id="4e4d"><g fill="none" stroke="#666" stroke-width="6" stroke-linecap="round" stroke-linejoin="round"><g><g><path d="M41,10.5c0.08,0.95,0.17,2.45-0.16,3.81c-1.9,8.02-12.83,25.63-27.79,36.41" /></g><path d="M37.13,30.92c1.08,0.38,3.05,0.44,4.14,0.38c14.23-0.8,38.16-4.92,48.75-5.8c1.98-0.16,2.86-0.25,4.19-0.08" /><path d="M52.87,32.25c1.09,0.5,1.74,2.25,1.96,3.25c0.22,1,0,57.75-0.22,64" /><path d="M57.88,49.62c0.5,0.19,1.41,0.21,1.92,0.19c5.2-0.21,13.51-2.09,23.08-2.14c0.83,0,1.33,0.09,1.75,0.18" /><path d="M57.13,70.12c0.6,0.19,1.69,0.21,2.29,0.19c6.22-0.21,16.16-2.09,27.62-2.14c1,0,1.59,0.09,2.09,0.18" /></g></g><g fill="none" stroke="#000" stroke-width="3" stroke-linecap="round" stroke-linejoin="round"><path d="M41,10.5c0.08,0.95,0.17,2.45-0.16,3.81c-1.9,8.02-12.83,25.63-27.79,36.41" stroke-dasharray="50.323" stroke-dashoffset="50.323"><animate attributeName="stroke-dashoffset" values="50.323;50.323;0" dur="0.503s" fill="freeze" begin="0s;4e4d.click" /></path><path d="M37.13,30.92c1.08,0.38,3.05,0.44,4.14,0.38c14.23-0.8,38.16-4.92,48.75-5.8c1.98-0.16,2.86-0.25,4.19-0.08" stroke-dasharray="57.482" stroke-dashoffset="57.482"><animate attributeName="stroke-dashoffset" values="57.482" fill="freeze" begin="4e4d.click" /><animate attributeName="stroke-dashoffset" values="57.482;57.482;0" keyTimes="0;0.467;1" dur="1.078s" fill="freeze" begin="0s;4e4d.click" /></path><path d="M52.87,32.25c1.09,0.5,1.74,2.25,1.96,3.25c0.22,1,0,57.75-0.22,64" stroke-dasharray="67.912" stroke-dashoffset="67.912"><animate attributeName="stroke-dashoffset" values="67.912" fill="freeze" begin="4e4d.click" /><animate attributeName="stroke-dashoffset" values="67.912;67.912;0" keyTimes="0;0.678;1" dur="1.589s" fill="freeze" begin="0s;4e4d.click" /></path><path d="M57.88,49.62c0.5,0.19,1.41,0.21,1.92,0.19c5.2-0.21,13.51-2.09,23.08-2.14c0.83,0,1.33,0.09,1.75,0.18" stroke-dasharray="26.898" stroke-dashoffset="26.898"><animate attributeName="stroke-dashoffset" values="26.898" fill="freeze" begin="4e4d.click" /><animate attributeName="stroke-dashoffset" values="26.898;26.898;0" keyTimes="0;0.855;1" dur="1.858s" fill="freeze" begin="0s;4e4d.click" /></path><path d="M57.13,70.12c0.6,0.19,1.69,0.21,2.29,0.19c6.22-0.21,16.16-2.09,27.62-2.14c1,0,1.59,0.09,2.09,0.18" stroke-dasharray="32.124" stroke-dashoffset="32.124"><animate attributeName="stroke-dashoffset" values="32.124" fill="freeze" begin="4e4d.click" /><animate attributeName="stroke-dashoffset" values="32.124;32.124;0" keyTimes="0;0.853;1" dur="2.179s" fill="freeze" begin="0s;4e4d.click" /></path></g></svg>