<svg xmlns="http://www.w3.org/2000/svg" viewBox="0 0 109 109" id="4e91"><g fill="none" stroke="#666" stroke-width="6" stroke-linecap="round" stroke-linejoin="round"><g><g><path d="M29.25,23.2c3.43,0.48,6.61,0.59,10,0.06c8.9-1.4,18.6-2.01,28.76-2.88c3.15-0.37,6.31-0.14,9.49,0.2" /><path d="M15,47.97c4.14,0.62,8.28,1.04,12.38,0.51c17.24-2.23,38.6-3.32,54.1-4.25c4.17-0.33,8.34,0.03,12.51,0.59" /></g><g><path d="M50.15,50.62c0.49,2.19-0.38,3.73-1.72,5.7C39.88,68.88,34.48,74.43,25.9,84.89c-3.38,4.12-2.64,4.83,1.97,3.81c15.01-3.33,33.08-7.03,49.26-10.59" /><path d="M72.25,67.75c5.86,4.2,14.34,17.18,15.81,23.72" /></g></g></g><g fill="none" stroke="#000" stroke-width="3" stroke-linecap="round" stroke-linejoin="round"><path d="M29.25,23.2c3.43,0.48,6.61,0.59,10,0.06c8.9-1.4,18.6-2.01,28.76-2.88c3.15-0.37,6.31-0.14,9.49,0.2" stroke-dasharray="48.462" stroke-dashoffset="48.462"><animate attributeName="stroke-dashoffset" values="48.462;48.462;0" dur="0.485s" fill="freeze" begin="0s;4e91.click" /></path><path d="M15,47.97c4.14,0.62,8.28,1.04,12.38,0.51c17.24-2.23,38.6-3.32,54.1-4.25c4.17-0.33,8.34,0.03,12.51,0.59" stroke-dasharray="79.258" stroke-dashoffset="79.258"><animate attributeName="stroke-dashoffset" values="79.258" fill="freeze" begin="4e91.click" /><animate attributeName="stroke-dashoffset" values="79.258;79.258;0" keyTimes="0;0.449;1" dur="1.081s" fill="freeze" begin="0s;4e91.click" /></path><path d="M50.15,50.62c0.49,2.19-0.38,3.73-1.72,5.7C39.88,68.88,34.48,74.43,25.9,84.89c-3.38,4.12-2.64,4.83,1.97,3.81c15.01-3.33,33.08-7.03,49.26-10.59" stroke-dasharray="101.563" stroke-dashoffset="101.563"><animate attributeName="stroke-dashoffset" values="101.563" fill="freeze" begin="4e91.click" /><animate attributeName="stroke-dashoffset" values="101.563;101.563;0" keyTimes="0;0.586;1" dur="1.845s" fill="freeze" begin="0s;4e91.click" /></path><path d="M72.25,67.75c5.86,4.2,14.34,17.18,15.81,23.72" stroke-dasharray="28.877" stroke-dashoffset="28.877"><animate attributeName="stroke-dashoffset" values="28.877" fill="freeze" begin="4e91.click" /><animate attributeName="stroke-dashoffset" values="28.877;28.877;0" keyTimes="0;0.865;1" dur="2.134s" fill="freeze" begin="0s;4e91.click" /></path></g></svg>