<svg xmlns="http://www.w3.org/2000/svg" viewBox="0 0 109 109" id="4f11"><g fill="none" stroke="#666" stroke-width="6" stroke-linecap="round" stroke-linejoin="round"><g><g><path d="M35,16.5c0.25,1.75,0.25,4.25-0.88,6.8C28.91,35.01,22.37,46.02,10.5,60.29" /><path d="M26.28,42.5c0.72,1.25,1.26,3.48,1.26,4.75c0,12.75-0.07,29.88-0.26,42.25c-0.02,1.54-0.04,2.97-0.04,4.25" /></g><g><path d="M37.65,38.83c2.45,0.97,5.18,0.75,7.73,0.54c11.76-0.97,24.94-3.35,37.49-4.01c2.65-0.14,5.39-0.22,7.99,0.39" /><path d="M61.43,14c0.82,0.75,1.87,2.12,1.87,3.7c0,8.8,0.05,53.72-0.12,72.05c-0.03,2.88-0.06,4.91-0.08,5.75" /><path d="M62.43,38.32c0,2.18-1.1,4.31-1.9,6.04C54.57,57.4,44.96,71.84,35,78.75" /><path d="M64.12,38.08c4.45,8.37,16.21,25.33,24.99,33.19c1.96,1.76,4.35,4.18,6.9,5" /></g></g></g><g fill="none" stroke="#000" stroke-width="3" stroke-linecap="round" stroke-linejoin="round"><path d="M35,16.5c0.25,1.75,0.25,4.25-0.88,6.8C28.91,35.01,22.37,46.02,10.5,60.29" stroke-dasharray="50.987" stroke-dashoffset="50.987"><animate attributeName="stroke-dashoffset" values="50.987;50.987;0" dur="0.51s" fill="freeze" begin="0s;4f11.click" /></path><path d="M26.28,42.5c0.72,1.25,1.26,3.48,1.26,4.75c0,12.75-0.07,29.88-0.26,42.25c-0.02,1.54-0.04,2.97-0.04,4.25" stroke-dasharray="51.457" stroke-dashoffset="51.457"><animate attributeName="stroke-dashoffset" values="51.457" fill="freeze" begin="4f11.click" /><animate attributeName="stroke-dashoffset" values="51.457;51.457;0" keyTimes="0;0.498;1" dur="1.025s" fill="freeze" begin="0s;4f11.click" /></path><path d="M37.65,38.83c2.45,0.97,5.18,0.75,7.73,0.54c11.76-0.97,24.94-3.35,37.49-4.01c2.65-0.14,5.39-0.22,7.99,0.39" stroke-dasharray="53.561" stroke-dashoffset="53.561"><animate attributeName="stroke-dashoffset" values="53.561" fill="freeze" begin="4f11.click" /><animate attributeName="stroke-dashoffset" values="53.561;53.561;0" keyTimes="0;0.657;1" dur="1.561s" fill="freeze" begin="0s;4f11.click" /></path><path d="M61.43,14c0.82,0.75,1.87,2.12,1.87,3.7c0,8.8,0.05,53.72-0.12,72.05c-0.03,2.88-0.06,4.91-0.08,5.75" stroke-dasharray="82.064" stroke-dashoffset="82.064"><animate attributeName="stroke-dashoffset" values="82.064" fill="freeze" begin="4f11.click" /><animate attributeName="stroke-dashoffset" values="82.064;82.064;0" keyTimes="0;0.717;1" dur="2.178s" fill="freeze" begin="0s;4f11.click" /></path><path d="M62.43,38.32c0,2.18-1.1,4.31-1.9,6.04C54.57,57.4,44.96,71.84,35,78.75" stroke-dasharray="49.655" stroke-dashoffset="49.655"><animate attributeName="stroke-dashoffset" values="49.655" fill="freeze" begin="4f11.click" /><animate attributeName="stroke-dashoffset" values="49.655;49.655;0" keyTimes="0;0.814;1" dur="2.675s" fill="freeze" begin="0s;4f11.click" /></path><path d="M64.12,38.08c4.45,8.37,16.21,25.33,24.99,33.19c1.96,1.76,4.35,4.18,6.9,5" stroke-dasharray="50.277" stroke-dashoffset="50.277"><animate attributeName="stroke-dashoffset" values="50.277" fill="freeze" begin="4f11.click" /><animate attributeName="stroke-dashoffset" values="50.277;50.277;0" keyTimes="0;0.842;1" dur="3.178s" fill="freeze" begin="0s;4f11.click" /></path></g></svg>