<svg xmlns="http://www.w3.org/2000/svg" viewBox="0 0 109 109" id="4f2f"><g fill="none" stroke="#666" stroke-width="6" stroke-linecap="round" stroke-linejoin="round"><g><g><path d="M38.48,15.14c0.15,1.1,0.02,2.48-0.39,3.84c-2.55,8.56-12.15,25.38-24.03,36.98" /><path d="M29.01,39.75c0.94,0.93,1.31,2.37,1.31,3.73c0,11.86,0.03,34.6-0.04,47.02c-0.01,2.26-0.02,4.18-0.02,5.62" /></g><g p4:phon="白" xmlns:p4="http://kanjivg.tagaini.net"><g><path d="M72.38,16c0.25,1.12,0.03,2.11-0.27,2.84c-2.36,5.78-7.36,14.03-13.42,21.37" /></g><g><path d="M50.69,41.91c1.13,1.13,1.34,2.42,1.34,4.13c0,1.09-0.02,27.32-0.03,40.33c0,3.98,0,6.72,0,7.12" /><path d="M52.94,44.43c4.89-0.61,26.6-2.92,33.58-3.65c3.11-0.32,4.79,0.39,4.78,3.92c-0.01,3.96-0.02,25.42-0.02,40.82c0,2.45-0.03,4.27-0.03,6.48" /><path d="M53.14,66.15c9.61-1.02,29.73-3.02,37.04-3.26" /><path d="M53.15,90.47c9.49-0.69,26.75-2.33,36.87-2.64" /></g></g></g></g><g fill="none" stroke="#000" stroke-width="3" stroke-linecap="round" stroke-linejoin="round"><path d="M38.48,15.14c0.15,1.1,0.02,2.48-0.39,3.84c-2.55,8.56-12.15,25.38-24.03,36.98" stroke-dasharray="48.343" stroke-dashoffset="48.343"><animate attributeName="stroke-dashoffset" values="48.343;48.343;0" dur="0.483s" fill="freeze" begin="0s;4f2f.click" /></path><path d="M29.01,39.75c0.94,0.93,1.31,2.37,1.31,3.73c0,11.86,0.03,34.6-0.04,47.02c-0.01,2.26-0.02,4.18-0.02,5.62" stroke-dasharray="56.696" stroke-dashoffset="56.696"><animate attributeName="stroke-dashoffset" values="56.696" fill="freeze" begin="4f2f.click" /><animate attributeName="stroke-dashoffset" values="56.696;56.696;0" keyTimes="0;0.46;1" dur="1.05s" fill="freeze" begin="0s;4f2f.click" /></path><path d="M72.38,16c0.25,1.12,0.03,2.11-0.27,2.84c-2.36,5.78-7.36,14.03-13.42,21.37" stroke-dasharray="28.216" stroke-dashoffset="28.216"><animate attributeName="stroke-dashoffset" values="28.216" fill="freeze" begin="4f2f.click" /><animate attributeName="stroke-dashoffset" values="28.216;28.216;0" keyTimes="0;0.788;1" dur="1.332s" fill="freeze" begin="0s;4f2f.click" /></path><path d="M50.69,41.91c1.13,1.13,1.34,2.42,1.34,4.13c0,1.09-0.02,27.32-0.03,40.33c0,3.98,0,6.72,0,7.12" stroke-dasharray="51.926" stroke-dashoffset="51.926"><animate attributeName="stroke-dashoffset" values="51.926" fill="freeze" begin="4f2f.click" /><animate attributeName="stroke-dashoffset" values="51.926;51.926;0" keyTimes="0;0.72;1" dur="1.851s" fill="freeze" begin="0s;4f2f.click" /></path><path d="M52.94,44.43c4.89-0.61,26.6-2.92,33.58-3.65c3.11-0.32,4.79,0.39,4.78,3.92c-0.01,3.96-0.02,25.42-0.02,40.82c0,2.45-0.03,4.27-0.03,6.48" stroke-dasharray="88.511" stroke-dashoffset="88.511"><animate attributeName="stroke-dashoffset" values="88.511" fill="freeze" begin="4f2f.click" /><animate attributeName="stroke-dashoffset" values="88.511;88.511;0" keyTimes="0;0.736;1" dur="2.516s" fill="freeze" begin="0s;4f2f.click" /></path><path d="M53.14,66.15c9.61-1.02,29.73-3.02,37.04-3.26" stroke-dasharray="37.189" stroke-dashoffset="37.189"><animate attributeName="stroke-dashoffset" values="37.189" fill="freeze" begin="4f2f.click" /><animate attributeName="stroke-dashoffset" values="37.189;37.189;0" keyTimes="0;0.871;1" dur="2.888s" fill="freeze" begin="0s;4f2f.click" /></path><path d="M53.15,90.47c9.49-0.69,26.75-2.33,36.87-2.64" stroke-dasharray="36.968" stroke-dashoffset="36.968"><animate attributeName="stroke-dashoffset" values="36.968" fill="freeze" begin="4f2f.click" /><animate attributeName="stroke-dashoffset" values="36.968;36.968;0" keyTimes="0;0.886;1" dur="3.258s" fill="freeze" begin="0s;4f2f.click" /></path></g></svg>