<svg xmlns="http://www.w3.org/2000/svg" viewBox="0 0 109 109" id="4fc3"><g fill="none" stroke="#666" stroke-width="6" stroke-linecap="round" stroke-linejoin="round"><g><g><path d="M31.74,17.89c0.14,1.09,0.24,2.45-0.12,3.79C29.33,30.14,20.48,46.5,9.81,57.97" /><path d="M24.53,40c1.05,1.05,1.51,2.25,1.51,3.98c0,10.61-0.03,30.57-0.04,42.52c0,2.72,0,5,0,6.62" /></g><g p4:phon="足" xmlns:p4="http://kanjivg.tagaini.net"><g><path d="M43.95,22.02c0.6,0.46,1.34,1.71,1.49,2.31c1.32,5.3,2.02,8.63,3.33,14.42c0.36,1.59,0.75,3.25,1.17,4.99" /><path d="M45.63,22.77c9.52-1.49,25.48-3.9,33.87-4.8c3.73-0.4,6.19,0.7,5.29,4.85c-0.91,4.2-1.91,8.07-3.52,13.85" /><path d="M50.44,41.49c8.56-0.99,18.65-2.14,28.33-3.37c1.53-0.19,2.99-0.37,4.36-0.53" /></g><path d="M64.13,42.35c1.01,1.01,1.23,2.27,1.23,3.96c0,6.34-0.11,26.69-0.11,33.19" /><path d="M66.7,57.02C67.76,57.02,75.88,56,83.02,55.17C84.42,55.01,85.72,54.91,86.81,54.91" /><path d="M49.98,56.2c0.08,0.85,0.22,2.23-0.17,3.44c-3.62,11.14-8.68,23.48-15.47,30.01" /><path d="M46.44,70.83c3.07,0.16,15.81,9.79,34.31,17.09c3.37,1.33,5.99,1.96,10.15,2.83" /></g></g></g><g fill="none" stroke="#000" stroke-width="3" stroke-linecap="round" stroke-linejoin="round"><path d="M31.74,17.89c0.14,1.09,0.24,2.45-0.12,3.79C29.33,30.14,20.48,46.5,9.81,57.97" stroke-dasharray="46.463" stroke-dashoffset="46.463"><animate attributeName="stroke-dashoffset" values="46.463;46.463;0" dur="0.465s" fill="freeze" begin="0s;4fc3.click" /></path><path d="M24.53,40c1.05,1.05,1.51,2.25,1.51,3.98c0,10.61-0.03,30.57-0.04,42.52c0,2.72,0,5,0,6.62" stroke-dasharray="53.524" stroke-dashoffset="53.524"><animate attributeName="stroke-dashoffset" values="53.524" fill="freeze" begin="4fc3.click" /><animate attributeName="stroke-dashoffset" values="53.524;53.524;0" keyTimes="0;0.465;1" dur="1s" fill="freeze" begin="0s;4fc3.click" /></path><path d="M43.95,22.02c0.6,0.46,1.34,1.71,1.49,2.31c1.32,5.3,2.02,8.63,3.33,14.42c0.36,1.59,0.75,3.25,1.17,4.99" stroke-dasharray="22.707" stroke-dashoffset="22.707"><animate attributeName="stroke-dashoffset" values="22.707" fill="freeze" begin="4fc3.click" /><animate attributeName="stroke-dashoffset" values="22.707;22.707;0" keyTimes="0;0.815;1" dur="1.227s" fill="freeze" begin="0s;4fc3.click" /></path><path d="M45.63,22.77c9.52-1.49,25.48-3.9,33.87-4.8c3.73-0.4,6.19,0.7,5.29,4.85c-0.91,4.2-1.91,8.07-3.52,13.85" stroke-dasharray="57.522" stroke-dashoffset="57.522"><animate attributeName="stroke-dashoffset" values="57.522" fill="freeze" begin="4fc3.click" /><animate attributeName="stroke-dashoffset" values="57.522;57.522;0" keyTimes="0;0.681;1" dur="1.802s" fill="freeze" begin="0s;4fc3.click" /></path><path d="M50.44,41.49c8.56-0.99,18.65-2.14,28.33-3.37c1.53-0.19,2.99-0.37,4.36-0.53" stroke-dasharray="32.923" stroke-dashoffset="32.923"><animate attributeName="stroke-dashoffset" values="32.923" fill="freeze" begin="4fc3.click" /><animate attributeName="stroke-dashoffset" values="32.923;32.923;0" keyTimes="0;0.846;1" dur="2.131s" fill="freeze" begin="0s;4fc3.click" /></path><path d="M64.13,42.35c1.01,1.01,1.23,2.27,1.23,3.96c0,6.34-0.11,26.69-0.11,33.19" stroke-dasharray="37.46" stroke-dashoffset="37.46"><animate attributeName="stroke-dashoffset" values="37.46" fill="freeze" begin="4fc3.click" /><animate attributeName="stroke-dashoffset" values="37.46;37.46;0" keyTimes="0;0.85;1" dur="2.506s" fill="freeze" begin="0s;4fc3.click" /></path><path d="M66.7,57.02C67.76,57.02,75.88,56,83.02,55.17C84.42,55.01,85.72,54.91,86.81,54.91" stroke-dasharray="20.228" stroke-dashoffset="20.228"><animate attributeName="stroke-dashoffset" values="20.228" fill="freeze" begin="4fc3.click" /><animate attributeName="stroke-dashoffset" values="20.228;20.228;0" keyTimes="0;0.925;1" dur="2.708s" fill="freeze" begin="0s;4fc3.click" /></path><path d="M49.98,56.2c0.08,0.85,0.22,2.23-0.17,3.44c-3.62,11.14-8.68,23.48-15.47,30.01" stroke-dasharray="37.529" stroke-dashoffset="37.529"><animate attributeName="stroke-dashoffset" values="37.529" fill="freeze" begin="4fc3.click" /><animate attributeName="stroke-dashoffset" values="37.529;37.529;0" keyTimes="0;0.878;1" dur="3.083s" fill="freeze" begin="0s;4fc3.click" /></path><path d="M46.44,70.83c3.07,0.16,15.81,9.79,34.31,17.09c3.37,1.33,5.99,1.96,10.15,2.83" stroke-dasharray="48.952" stroke-dashoffset="48.952"><animate attributeName="stroke-dashoffset" values="48.952" fill="freeze" begin="4fc3.click" /><animate attributeName="stroke-dashoffset" values="48.952;48.952;0" keyTimes="0;0.863;1" dur="3.573s" fill="freeze" begin="0s;4fc3.click" /></path></g></svg>