<svg xmlns="http://www.w3.org/2000/svg" viewBox="0 0 109 109" id="4fe1"><g fill="none" stroke="#666" stroke-width="6" stroke-linecap="round" stroke-linejoin="round"><g><g><path d="M33.51,18.25c0.37,1.66,0.24,3.07-0.31,4.5C28.29,35.3,22.4,47.19,11.5,62.54" /><path d="M27.28,40.75c0.8,0.8,1.25,2.33,1.25,3.75c0,10.95-0.03,35.6-0.03,47.38c0,1.92,0,3.5,0,4.62" /></g><g><path d="M60.56,12.88c3.46,1.61,8.93,6.6,9.79,9.1" /><path d="M42.13,33.13c3.25,0.62,6.17,0.6,9,0.25c11.12-1.38,25.27-2.46,36.75-3.34c2.77-0.21,5.28-0.28,8,0.3" /><path d="M53.13,46.24c1.27,0.48,3.05,0.24,4.38,0.16c5.92-0.35,16.22-1.57,20.36-1.91c1.56-0.13,3.38-0.37,4.85-0.1" /><path d="M53.88,59.36c1.3,0.5,3.14,0.24,4.49,0.16c5.77-0.35,14.8-1.22,19.14-1.64c1.53-0.15,3.41-0.21,4.92,0.13" /><g><path d="M51.31,72.12c0.72,0.72,1.07,1.88,1.23,2.99c0.61,4,1.31,9.58,2.24,17.12c0.18,1.43,0.36,2.94,0.56,4.52" /><path d="M53.18,73.82c10.37-1.03,19.55-2.08,27.82-3.03c2.9-0.33,4.91,1.18,4.09,4.23c-1.19,4.46-2.58,9.29-4.29,15.12" /><path d="M56.08,93c7.92-0.67,14.91-1.13,23.68-1.6c1.12-0.06,2.26-0.12,3.44-0.18" /></g></g></g></g><g fill="none" stroke="#000" stroke-width="3" stroke-linecap="round" stroke-linejoin="round"><path d="M33.51,18.25c0.37,1.66,0.24,3.07-0.31,4.5C28.29,35.3,22.4,47.19,11.5,62.54" stroke-dasharray="50.03" stroke-dashoffset="50.03"><animate attributeName="stroke-dashoffset" values="50.03;50.03;0" dur="0.5s" fill="freeze" begin="0s;4fe1.click" /></path><path d="M27.28,40.75c0.8,0.8,1.25,2.33,1.25,3.75c0,10.95-0.03,35.6-0.03,47.38c0,1.92,0,3.5,0,4.62" stroke-dasharray="56.044" stroke-dashoffset="56.044"><animate attributeName="stroke-dashoffset" values="56.044" fill="freeze" begin="4fe1.click" /><animate attributeName="stroke-dashoffset" values="56.044;56.044;0" keyTimes="0;0.472;1" dur="1.06s" fill="freeze" begin="0s;4fe1.click" /></path><path d="M60.56,12.88c3.46,1.61,8.93,6.6,9.79,9.1" stroke-dasharray="13.562" stroke-dashoffset="13.562"><animate attributeName="stroke-dashoffset" values="13.562" fill="freeze" begin="4fe1.click" /><animate attributeName="stroke-dashoffset" values="13.562;13.562;0" keyTimes="0;0.796;1" dur="1.331s" fill="freeze" begin="0s;4fe1.click" /></path><path d="M42.13,33.13c3.25,0.62,6.17,0.6,9,0.25c11.12-1.38,25.27-2.46,36.75-3.34c2.77-0.21,5.28-0.28,8,0.3" stroke-dasharray="53.982" stroke-dashoffset="53.982"><animate attributeName="stroke-dashoffset" values="53.982" fill="freeze" begin="4fe1.click" /><animate attributeName="stroke-dashoffset" values="53.982;53.982;0" keyTimes="0;0.711;1" dur="1.871s" fill="freeze" begin="0s;4fe1.click" /></path><path d="M53.13,46.24c1.27,0.48,3.05,0.24,4.38,0.16c5.92-0.35,16.22-1.57,20.36-1.91c1.56-0.13,3.38-0.37,4.85-0.1" stroke-dasharray="29.733" stroke-dashoffset="29.733"><animate attributeName="stroke-dashoffset" values="29.733" fill="freeze" begin="4fe1.click" /><animate attributeName="stroke-dashoffset" values="29.733;29.733;0" keyTimes="0;0.863;1" dur="2.168s" fill="freeze" begin="0s;4fe1.click" /></path><path d="M53.88,59.36c1.3,0.5,3.14,0.24,4.49,0.16c5.77-0.35,14.8-1.22,19.14-1.64c1.53-0.15,3.41-0.21,4.92,0.13" stroke-dasharray="28.681" stroke-dashoffset="28.681"><animate attributeName="stroke-dashoffset" values="28.681" fill="freeze" begin="4fe1.click" /><animate attributeName="stroke-dashoffset" values="28.681;28.681;0" keyTimes="0;0.883;1" dur="2.455s" fill="freeze" begin="0s;4fe1.click" /></path><path d="M51.31,72.12c0.72,0.72,1.07,1.88,1.23,2.99c0.61,4,1.31,9.58,2.24,17.12c0.18,1.43,0.36,2.94,0.56,4.52" stroke-dasharray="25.109" stroke-dashoffset="25.109"><animate attributeName="stroke-dashoffset" values="25.109" fill="freeze" begin="4fe1.click" /><animate attributeName="stroke-dashoffset" values="25.109;25.109;0" keyTimes="0;0.907;1" dur="2.706s" fill="freeze" begin="0s;4fe1.click" /></path><path d="M53.18,73.82c10.37-1.03,19.55-2.08,27.82-3.03c2.9-0.33,4.91,1.18,4.09,4.23c-1.19,4.46-2.58,9.29-4.29,15.12" stroke-dasharray="50.983" stroke-dashoffset="50.983"><animate attributeName="stroke-dashoffset" values="50.983" fill="freeze" begin="4fe1.click" /><animate attributeName="stroke-dashoffset" values="50.983;50.983;0" keyTimes="0;0.841;1" dur="3.216s" fill="freeze" begin="0s;4fe1.click" /></path><path d="M56.08,93c7.92-0.67,14.91-1.13,23.68-1.6c1.12-0.06,2.26-0.12,3.44-0.18" stroke-dasharray="27.181" stroke-dashoffset="27.181"><animate attributeName="stroke-dashoffset" values="27.181" fill="freeze" begin="4fe1.click" /><animate attributeName="stroke-dashoffset" values="27.181;27.181;0" keyTimes="0;0.922;1" dur="3.488s" fill="freeze" begin="0s;4fe1.click" /></path></g></svg>