<svg xmlns="http://www.w3.org/2000/svg" viewBox="0 0 109 109" id="5116"><g fill="none" stroke="#666" stroke-width="6" stroke-linecap="round" stroke-linejoin="round"><g><g><path d="M31.94,16c0.13,1.2,0.23,2.7-0.12,4.17c-2.19,9.3-10.64,27.29-20.82,39.9" /><path d="M26.48,41.11c0.59,0.61,0.76,1.97,0.76,3.23c0,13.02-0.29,40.15-0.29,48.9" /></g><g><g><g><path d="M43.04,18.09c0.4,0.26,0.63,1.66,0.71,2.18c0.08,0.52,0,37.39-0.08,40.61" /><path d="M43.84,19.87c3.87-0.19,14.46-2.71,20.5-3.09c0.92-0.06,1.46-0.12,1.92,0.02" /><path d="M54.61,19.7c0.68,0.55,0.81,0.97,0.82,2.13c0.02,2.66-0.02,7.64-0.07,9.89" /><path d="M43.99,33.27c6.23-0.95,14.42-1.93,18.74-2.58c1.75-0.26,2.23,0.8,1.99,2.2c-0.44,2.52-1.59,7.04-2.04,10.07" /><path d="M44.02,46.23c2.6-0.38,17.13-2.38,19.57-2.62" /><path d="M54.89,46.19c0.21,0.65,0.82,1.1,0.82,2.01c0,2.97-0.02,6.47-0.07,8.7" /><path d="M44.27,58.95c4.75-0.67,14.14-1.63,20.33-2.25c0.91-0.09,1.47-0.12,1.92,0.02" /></g><g><path d="M79.52,13.5c0.03,0.61,0.2,1.65-0.06,2.46c-1.91,6-5.38,15.26-10.32,23.55" /><path d="M75.24,30.67c0.76,0.54,2.16,0.66,2.93,0.54c4.07-0.63,10.58-1.46,15.17-1.73c1.3-0.08,2.44-0.25,3.08,0.02" /><path d="M71.84,50.02c0.68,0.54,1.9,0.59,2.59,0.54c4.32-0.31,10.02-1.11,15.38-1.78c1.11-0.28,2.16-0.36,3.17-0.04" /></g></g><g><path d="M45.84,67.62c0.53,0.66,1.21,0.8,1.33,1.38c0.9,4.55,2.55,16.12,3.18,24.33" /><path d="M48.2,69.59C58.25,68.75,86.84,66,88.09,66c2.16,0,2.91,1.25,2.52,3.62c-0.88,5.38-2.32,13.84-4.04,21.01" /><path d="M60.38,71.07c0.22,0.43,0.52,0.78,0.54,1.33c0.31,7.4,0.76,12.79,1.31,20.54" /><path d="M75.52,69.67c0.4,0.51,0.79,1.39,0.73,2.06c-0.64,6.72-1.3,11.62-2.08,20.23" /><path d="M37.16,94.23c1.21,0.4,3.41,0.38,4.62,0.31c14.98-0.89,31.91-2.08,54.96-2.8c2-0.06,3.21,0.12,4.21,0.31" /></g></g></g></g><g fill="none" stroke="#000" stroke-width="3" stroke-linecap="round" stroke-linejoin="round"><path d="M31.94,16c0.13,1.2,0.23,2.7-0.12,4.17c-2.19,9.3-10.64,27.29-20.82,39.9" stroke-dasharray="49.478" stroke-dashoffset="49.478"><animate attributeName="stroke-dashoffset" values="49.478;49.478;0" dur="0.495s" fill="freeze" begin="0s;5116.click" /></path><path d="M26.48,41.11c0.59,0.61,0.76,1.97,0.76,3.23c0,13.02-0.29,40.15-0.29,48.9" stroke-dasharray="52.287" stroke-dashoffset="52.287"><animate attributeName="stroke-dashoffset" values="52.287" fill="freeze" begin="5116.click" /><animate attributeName="stroke-dashoffset" values="52.287;52.287;0" keyTimes="0;0.486;1" dur="1.018s" fill="freeze" begin="0s;5116.click" /></path><path d="M43.04,18.09c0.4,0.26,0.63,1.66,0.71,2.18c0.08,0.52,0,37.39-0.08,40.61" stroke-dasharray="42.941" stroke-dashoffset="42.941"><animate attributeName="stroke-dashoffset" values="42.941" fill="freeze" begin="5116.click" /><animate attributeName="stroke-dashoffset" values="42.941;42.941;0" keyTimes="0;0.704;1" dur="1.447s" fill="freeze" begin="0s;5116.click" /></path><path d="M43.84,19.87c3.87-0.19,14.46-2.71,20.5-3.09c0.92-0.06,1.46-0.12,1.92,0.02" stroke-dasharray="22.673" stroke-dashoffset="22.673"><animate attributeName="stroke-dashoffset" values="22.673" fill="freeze" begin="5116.click" /><animate attributeName="stroke-dashoffset" values="22.673;22.673;0" keyTimes="0;0.864;1" dur="1.674s" fill="freeze" begin="0s;5116.click" /></path><path d="M54.61,19.7c0.68,0.55,0.81,0.97,0.82,2.13c0.02,2.66-0.02,7.64-0.07,9.89" stroke-dasharray="12.281" stroke-dashoffset="12.281"><animate attributeName="stroke-dashoffset" values="12.281" fill="freeze" begin="5116.click" /><animate attributeName="stroke-dashoffset" values="12.281;12.281;0" keyTimes="0;0.872;1" dur="1.92s" fill="freeze" begin="0s;5116.click" /></path><path d="M43.99,33.27c6.23-0.95,14.42-1.93,18.74-2.58c1.75-0.26,2.23,0.8,1.99,2.2c-0.44,2.52-1.59,7.04-2.04,10.07" stroke-dasharray="32.88" stroke-dashoffset="32.88"><animate attributeName="stroke-dashoffset" values="32.88" fill="freeze" begin="5116.click" /><animate attributeName="stroke-dashoffset" values="32.88;32.88;0" keyTimes="0;0.854;1" dur="2.249s" fill="freeze" begin="0s;5116.click" /></path><path d="M44.02,46.23c2.6-0.38,17.13-2.38,19.57-2.62" stroke-dasharray="19.746" stroke-dashoffset="19.746"><animate attributeName="stroke-dashoffset" values="19.746" fill="freeze" begin="5116.click" /><animate attributeName="stroke-dashoffset" values="19.746;19.746;0" keyTimes="0;0.919;1" dur="2.446s" fill="freeze" begin="0s;5116.click" /></path><path d="M54.89,46.19c0.21,0.65,0.82,1.1,0.82,2.01c0,2.97-0.02,6.47-0.07,8.7" stroke-dasharray="10.901" stroke-dashoffset="10.901"><animate attributeName="stroke-dashoffset" values="10.901" fill="freeze" begin="5116.click" /><animate attributeName="stroke-dashoffset" values="10.901;10.901;0" keyTimes="0;0.918;1" dur="2.664s" fill="freeze" begin="0s;5116.click" /></path><path d="M44.27,58.95c4.75-0.67,14.14-1.63,20.33-2.25c0.91-0.09,1.47-0.12,1.92,0.02" stroke-dasharray="22.388" stroke-dashoffset="22.388"><animate attributeName="stroke-dashoffset" values="22.388" fill="freeze" begin="5116.click" /><animate attributeName="stroke-dashoffset" values="22.388;22.388;0" keyTimes="0;0.922;1" dur="2.888s" fill="freeze" begin="0s;5116.click" /></path><path d="M79.52,13.5c0.03,0.61,0.2,1.65-0.06,2.46c-1.91,6-5.38,15.26-10.32,23.55" stroke-dasharray="28.243" stroke-dashoffset="28.243"><animate attributeName="stroke-dashoffset" values="28.243" fill="freeze" begin="5116.click" /><animate attributeName="stroke-dashoffset" values="28.243;28.243;0" keyTimes="0;0.911;1" dur="3.17s" fill="freeze" begin="0s;5116.click" /></path><path d="M75.24,30.67c0.76,0.54,2.16,0.66,2.93,0.54c4.07-0.63,10.58-1.46,15.17-1.73c1.3-0.08,2.44-0.25,3.08,0.02" stroke-dasharray="21.413" stroke-dashoffset="21.413"><animate attributeName="stroke-dashoffset" values="21.413" fill="freeze" begin="5116.click" /><animate attributeName="stroke-dashoffset" values="21.413;21.413;0" keyTimes="0;0.937;1" dur="3.384s" fill="freeze" begin="0s;5116.click" /></path><path d="M71.84,50.02c0.68,0.54,1.9,0.59,2.59,0.54c4.32-0.31,10.02-1.11,15.38-1.78c1.11-0.28,2.16-0.36,3.17-0.04" stroke-dasharray="21.397" stroke-dashoffset="21.397"><animate attributeName="stroke-dashoffset" values="21.397" fill="freeze" begin="5116.click" /><animate attributeName="stroke-dashoffset" values="21.397;21.397;0" keyTimes="0;0.941;1" dur="3.598s" fill="freeze" begin="0s;5116.click" /></path><path d="M45.84,67.62c0.53,0.66,1.21,0.8,1.33,1.38c0.9,4.55,2.55,16.12,3.18,24.33" stroke-dasharray="26.497" stroke-dashoffset="26.497"><animate attributeName="stroke-dashoffset" values="26.497" fill="freeze" begin="5116.click" /><animate attributeName="stroke-dashoffset" values="26.497;26.497;0" keyTimes="0;0.931;1" dur="3.863s" fill="freeze" begin="0s;5116.click" /></path><path d="M48.2,69.59C58.25,68.75,86.84,66,88.09,66c2.16,0,2.91,1.25,2.52,3.62c-0.88,5.38-2.32,13.84-4.04,21.01" stroke-dasharray="66.735" stroke-dashoffset="66.735"><animate attributeName="stroke-dashoffset" values="66.735" fill="freeze" begin="5116.click" /><animate attributeName="stroke-dashoffset" values="66.735;66.735;0" keyTimes="0;0.885;1" dur="4.365s" fill="freeze" begin="0s;5116.click" /></path><path d="M60.38,71.07c0.22,0.43,0.52,0.78,0.54,1.33c0.31,7.4,0.76,12.79,1.31,20.54" stroke-dasharray="22.036" stroke-dashoffset="22.036"><animate attributeName="stroke-dashoffset" values="22.036" fill="freeze" begin="5116.click" /><animate attributeName="stroke-dashoffset" values="22.036;22.036;0" keyTimes="0;0.952;1" dur="4.585s" fill="freeze" begin="0s;5116.click" /></path><path d="M75.52,69.67c0.4,0.51,0.79,1.39,0.73,2.06c-0.64,6.72-1.3,11.62-2.08,20.23" stroke-dasharray="22.567" stroke-dashoffset="22.567"><animate attributeName="stroke-dashoffset" values="22.567" fill="freeze" begin="5116.click" /><animate attributeName="stroke-dashoffset" values="22.567;22.567;0" keyTimes="0;0.953;1" dur="4.811s" fill="freeze" begin="0s;5116.click" /></path><path d="M37.16,94.23c1.21,0.4,3.41,0.38,4.62,0.31c14.98-0.89,31.91-2.08,54.96-2.8c2-0.06,3.21,0.12,4.21,0.31" stroke-dasharray="63.917" stroke-dashoffset="63.917"><animate attributeName="stroke-dashoffset" values="63.917" fill="freeze" begin="5116.click" /><animate attributeName="stroke-dashoffset" values="63.917;63.917;0" keyTimes="0;0.909;1" dur="5.292s" fill="freeze" begin="0s;5116.click" /></path></g></svg>