<svg xmlns="http://www.w3.org/2000/svg" viewBox="0 0 109 109" id="5141"><g fill="none" stroke="#666" stroke-width="6" stroke-linecap="round" stroke-linejoin="round"><g><g><path d="M52.5,10.75c0.62,1.5,0.12,3-0.75,4.19c-7.33,10-15.99,20.11-26.25,27.9c-3.25,2.47-3.19,4.64,1.5,3.72c13.62-2.69,33.25-6.82,49.25-9.87" /><path d="M67.77,25.08c6.02,4.13,15.54,16.97,17.04,23.39" /></g><g><g><g><path d="M42.9,50.71c0.23,1.04,0.41,2.22,0.1,3.73c-1.81,8.92-12.58,30.94-27.61,41.23" /></g><g><path d="M58.78,46.12c1.05,1.05,1.32,2.88,1.32,4.72c0,12.91-0.01,22.36-0.01,29.56c0,13.35,2.41,14.66,16.96,14.66c14.96,0,17.62-2.31,17.62-11.55" /></g></g></g></g></g><g fill="none" stroke="#000" stroke-width="3" stroke-linecap="round" stroke-linejoin="round"><path d="M52.5,10.75c0.62,1.5,0.12,3-0.75,4.19c-7.33,10-15.99,20.11-26.25,27.9c-3.25,2.47-3.19,4.64,1.5,3.72c13.62-2.69,33.25-6.82,49.25-9.87" stroke-dasharray="101.191" stroke-dashoffset="101.191"><animate attributeName="stroke-dashoffset" values="101.191;101.191;0" dur="0.761s" fill="freeze" begin="0s;5141.click" /></path><path d="M67.77,25.08c6.02,4.13,15.54,16.97,17.04,23.39" stroke-dasharray="29.316" stroke-dashoffset="29.316"><animate attributeName="stroke-dashoffset" values="29.316" fill="freeze" begin="5141.click" /><animate attributeName="stroke-dashoffset" values="29.316;29.316;0" keyTimes="0;0.722;1" dur="1.054s" fill="freeze" begin="0s;5141.click" /></path><path d="M42.9,50.71c0.23,1.04,0.41,2.22,0.1,3.73c-1.81,8.92-12.58,30.94-27.61,41.23" stroke-dasharray="54.273" stroke-dashoffset="54.273"><animate attributeName="stroke-dashoffset" values="54.273" fill="freeze" begin="5141.click" /><animate attributeName="stroke-dashoffset" values="54.273;54.273;0" keyTimes="0;0.66;1" dur="1.597s" fill="freeze" begin="0s;5141.click" /></path><path d="M58.78,46.12c1.05,1.05,1.32,2.88,1.32,4.72c0,12.91-0.01,22.36-0.01,29.56c0,13.35,2.41,14.66,16.96,14.66c14.96,0,17.62-2.31,17.62-11.55" stroke-dasharray="87.032" stroke-dashoffset="87.032"><animate attributeName="stroke-dashoffset" values="87.032" fill="freeze" begin="5141.click" /><animate attributeName="stroke-dashoffset" values="87.032;87.032;0" keyTimes="0;0.709;1" dur="2.251s" fill="freeze" begin="0s;5141.click" /></path></g></svg>