<svg xmlns="http://www.w3.org/2000/svg" viewBox="0 0 109 109" id="516c"><g fill="none" stroke="#666" stroke-width="6" stroke-linecap="round" stroke-linejoin="round"><g><g><path d="M38,21.5c0.25,1.38-0.17,2.77-0.71,3.88C33.47,33.1,27.75,43,16,51.75" /><path d="M56.25,16c4.5,0.38,22.38,23.62,30.89,30.49c3.19,2.57,4.86,2.89,7.61,4.01" /></g><g><path d="M50.8,49.5c0.45,1.5,0.38,3.04-0.77,5.05c-6.41,11.2-10.79,17.7-20.09,29.36c-2.27,2.84-1.45,5.66,2.18,4.58C42.25,85.5,60,81.12,73.25,78.25" /><path d="M65.88,67.5c5.43,4.46,14.02,18.32,15.38,25.25" /></g></g></g><g fill="none" stroke="#000" stroke-width="3" stroke-linecap="round" stroke-linejoin="round"><path d="M38,21.5c0.25,1.38-0.17,2.77-0.71,3.88C33.47,33.1,27.75,43,16,51.75" stroke-dasharray="38.25" stroke-dashoffset="38.25"><animate attributeName="stroke-dashoffset" values="38.25;38.25;0" dur="0.382s" fill="freeze" begin="0s;516c.click" /></path><path d="M56.25,16c4.5,0.38,22.38,23.62,30.89,30.49c3.19,2.57,4.86,2.89,7.61,4.01" stroke-dasharray="52.256" stroke-dashoffset="52.256"><animate attributeName="stroke-dashoffset" values="52.256" fill="freeze" begin="516c.click" /><animate attributeName="stroke-dashoffset" values="52.256;52.256;0" keyTimes="0;0.422;1" dur="0.905s" fill="freeze" begin="0s;516c.click" /></path><path d="M50.8,49.5c0.45,1.5,0.38,3.04-0.77,5.05c-6.41,11.2-10.79,17.7-20.09,29.36c-2.27,2.84-1.45,5.66,2.18,4.58C42.25,85.5,60,81.12,73.25,78.25" stroke-dasharray="91.124" stroke-dashoffset="91.124"><animate attributeName="stroke-dashoffset" values="91.124" fill="freeze" begin="516c.click" /><animate attributeName="stroke-dashoffset" values="91.124;91.124;0" keyTimes="0;0.569;1" dur="1.59s" fill="freeze" begin="0s;516c.click" /></path><path d="M65.88,67.5c5.43,4.46,14.02,18.32,15.38,25.25" stroke-dasharray="29.899" stroke-dashoffset="29.899"><animate attributeName="stroke-dashoffset" values="29.899" fill="freeze" begin="516c.click" /><animate attributeName="stroke-dashoffset" values="29.899;29.899;0" keyTimes="0;0.842;1" dur="1.889s" fill="freeze" begin="0s;516c.click" /></path></g></svg>