<svg xmlns="http://www.w3.org/2000/svg" viewBox="0 0 109 109" id="516d"><g fill="none" stroke="#666" stroke-width="6" stroke-linecap="round" stroke-linejoin="round"><g><g><path d="M51.87,17.5c1.78,1.78,2.71,3.48,2.71,6.5c0,6.46,0.12,9.16,0.12,14.35" /><path d="M13.5,42.13c3.27,0.74,7.11,0.89,9.93,0.64c21.56-1.9,41.78-5.02,61.41-5.47c4.8-0.11,7.49,0.31,11.06,1.07" /></g><g><path d="M38.11,58.6c0.51,1.37,0.42,3.67-0.49,5.29C33.38,71.38,24,82.38,15.41,88.75" /><path d="M70.16,59.92c9.96,8.61,18.18,18.54,23.16,28.99" /></g></g></g><g fill="none" stroke="#000" stroke-width="3" stroke-linecap="round" stroke-linejoin="round"><path d="M51.87,17.5c1.78,1.78,2.71,3.48,2.71,6.5c0,6.46,0.12,9.16,0.12,14.35" stroke-dasharray="21.62" stroke-dashoffset="21.62"><animate attributeName="stroke-dashoffset" values="21.62;21.62;0" dur="0.216s" fill="freeze" begin="0s;516d.click" /></path><path d="M13.5,42.13c3.27,0.74,7.11,0.89,9.93,0.64c21.56-1.9,41.78-5.02,61.41-5.47c4.8-0.11,7.49,0.31,11.06,1.07" stroke-dasharray="82.8" stroke-dashoffset="82.8"><animate attributeName="stroke-dashoffset" values="82.8" fill="freeze" begin="516d.click" /><animate attributeName="stroke-dashoffset" values="82.8;82.8;0" keyTimes="0;0.257;1" dur="0.839s" fill="freeze" begin="0s;516d.click" /></path><path d="M38.11,58.6c0.51,1.37,0.42,3.67-0.49,5.29C33.38,71.38,24,82.38,15.41,88.75" stroke-dasharray="38.983" stroke-dashoffset="38.983"><animate attributeName="stroke-dashoffset" values="38.983" fill="freeze" begin="516d.click" /><animate attributeName="stroke-dashoffset" values="38.983;38.983;0" keyTimes="0;0.683;1" dur="1.229s" fill="freeze" begin="0s;516d.click" /></path><path d="M70.16,59.92c9.96,8.61,18.18,18.54,23.16,28.99" stroke-dasharray="37.365" stroke-dashoffset="37.365"><animate attributeName="stroke-dashoffset" values="37.365" fill="freeze" begin="516d.click" /><animate attributeName="stroke-dashoffset" values="37.365;37.365;0" keyTimes="0;0.767;1" dur="1.603s" fill="freeze" begin="0s;516d.click" /></path></g></svg>