<svg xmlns="http://www.w3.org/2000/svg" viewBox="0 0 109 109" id="5176"><g fill="none" stroke="#666" stroke-width="6" stroke-linecap="round" stroke-linejoin="round"><g><g><g><g><g><path d="M23,30.42c2.61,0.41,5.23,0.48,7.86,0.2c14.14-1.87,32.14-4,48.88-5.6c2.61-0.25,5.18-0.36,7.76,0.08" /><path d="M39.87,16.5c1,1,1.21,2.48,1.21,3.5c0,4,0.03,43.88,0.03,51.5" /></g><path d="M66.87,12.25c1.07,1.06,1.46,2.73,1.46,3.75c0,3.38,0.03,45.12,0.03,52.75" /></g><path d="M42,43.25c5.5-0.62,20.52-2.42,25.5-2.75" /><g><path d="M42.5,56.75c4.5-0.25,18.25-2,24.75-2.25" /></g></g><path d="M16.75,73.7c3.51,0.72,6.96,0.37,10.51,0.02c17.37-1.72,39.52-3.94,55.75-4.61c3.34-0.26,7.24-0.24,10.99,0.68" /></g><g><path d="M43.08,79.39c-0.11,1.33-0.55,2.52-1.4,3.51c-4.06,4.72-8.68,8.47-19.79,14.81" /><path d="M66.02,79.08c7.25,3.24,18.73,13.34,20.54,18.38" /></g></g></g><g fill="none" stroke="#000" stroke-width="3" stroke-linecap="round" stroke-linejoin="round"><path d="M23,30.42c2.61,0.41,5.23,0.48,7.86,0.2c14.14-1.87,32.14-4,48.88-5.6c2.61-0.25,5.18-0.36,7.76,0.08" stroke-dasharray="64.872" stroke-dashoffset="64.872"><animate attributeName="stroke-dashoffset" values="64.872;64.872;0" dur="0.488s" fill="freeze" begin="0s;5176.click" /></path><path d="M39.87,16.5c1,1,1.21,2.48,1.21,3.5c0,4,0.03,43.88,0.03,51.5" stroke-dasharray="55.3" stroke-dashoffset="55.3"><animate attributeName="stroke-dashoffset" values="55.3" fill="freeze" begin="5176.click" /><animate attributeName="stroke-dashoffset" values="55.3;55.3;0" keyTimes="0;0.469;1" dur="1.041s" fill="freeze" begin="0s;5176.click" /></path><path d="M66.87,12.25c1.07,1.06,1.46,2.73,1.46,3.75c0,3.38,0.03,45.12,0.03,52.75" stroke-dasharray="56.87" stroke-dashoffset="56.87"><animate attributeName="stroke-dashoffset" values="56.87" fill="freeze" begin="5176.click" /><animate attributeName="stroke-dashoffset" values="56.87;56.87;0" keyTimes="0;0.647;1" dur="1.61s" fill="freeze" begin="0s;5176.click" /></path><path d="M42,43.25c5.5-0.62,20.52-2.42,25.5-2.75" stroke-dasharray="25.65" stroke-dashoffset="25.65"><animate attributeName="stroke-dashoffset" values="25.65" fill="freeze" begin="5176.click" /><animate attributeName="stroke-dashoffset" values="25.65;25.65;0" keyTimes="0;0.863;1" dur="1.866s" fill="freeze" begin="0s;5176.click" /></path><path d="M42.5,56.75c4.5-0.25,18.25-2,24.75-2.25" stroke-dasharray="24.856" stroke-dashoffset="24.856"><animate attributeName="stroke-dashoffset" values="24.856" fill="freeze" begin="5176.click" /><animate attributeName="stroke-dashoffset" values="24.856;24.856;0" keyTimes="0;0.882;1" dur="2.115s" fill="freeze" begin="0s;5176.click" /></path><path d="M16.75,73.7c3.51,0.72,6.96,0.37,10.51,0.02c17.37-1.72,39.52-3.94,55.75-4.61c3.34-0.26,7.24-0.24,10.99,0.68" stroke-dasharray="77.559" stroke-dashoffset="77.559"><animate attributeName="stroke-dashoffset" values="77.559" fill="freeze" begin="5176.click" /><animate attributeName="stroke-dashoffset" values="77.559;77.559;0" keyTimes="0;0.784;1" dur="2.698s" fill="freeze" begin="0s;5176.click" /></path><path d="M43.08,79.39c-0.11,1.33-0.55,2.52-1.4,3.51c-4.06,4.72-8.68,8.47-19.79,14.81" stroke-dasharray="28.694" stroke-dashoffset="28.694"><animate attributeName="stroke-dashoffset" values="28.694" fill="freeze" begin="5176.click" /><animate attributeName="stroke-dashoffset" values="28.694;28.694;0" keyTimes="0;0.904;1" dur="2.985s" fill="freeze" begin="0s;5176.click" /></path><path d="M66.02,79.08c7.25,3.24,18.73,13.34,20.54,18.38" stroke-dasharray="27.964" stroke-dashoffset="27.964"><animate attributeName="stroke-dashoffset" values="27.964" fill="freeze" begin="5176.click" /><animate attributeName="stroke-dashoffset" values="27.964;27.964;0" keyTimes="0;0.914;1" dur="3.265s" fill="freeze" begin="0s;5176.click" /></path></g></svg>