<svg xmlns="http://www.w3.org/2000/svg" viewBox="0 0 109 109" id="5185"><g fill="none" stroke="#666" stroke-width="6" stroke-linecap="round" stroke-linejoin="round"><g><g><g><path d="M22.54,33.27c0.96,1.3,1.27,2.79,1.27,5.15c0,4.81-0.05,33.43,0.03,47.33c0.02,3.68,0.04,6.29,0.04,7.11" /></g><path d="M24.5,35.25c15.76-1.46,57.65-5.15,59.14-5.15c3.11,0,5.42,1.9,5.42,6.05c0,1.91-0.93,42.61-1.51,54.43c-0.51,10.41-6.79,2.92-9.19,0.54" /></g><g><path d="M53.71,11.88c0.77,0.76,1.65,2.41,1.64,4.49C55.25,36.5,50.5,59.5,29.64,72.9" /><path d="M55.5,45.5c7.7,3.74,19.88,15.39,21.81,21.22" /></g></g></g><g fill="none" stroke="#000" stroke-width="3" stroke-linecap="round" stroke-linejoin="round"><path d="M22.54,33.27c0.96,1.3,1.27,2.79,1.27,5.15c0,4.81-0.05,33.43,0.03,47.33c0.02,3.68,0.04,6.29,0.04,7.11" stroke-dasharray="59.844" stroke-dashoffset="59.844"><animate attributeName="stroke-dashoffset" values="59.844;59.844;0" dur="0.598s" fill="freeze" begin="0s;5185.click" /></path><path d="M24.5,35.25c15.76-1.46,57.65-5.15,59.14-5.15c3.11,0,5.42,1.9,5.42,6.05c0,1.91-0.93,42.61-1.51,54.43c-0.51,10.41-6.79,2.92-9.19,0.54" stroke-dasharray="137.901" stroke-dashoffset="137.901"><animate attributeName="stroke-dashoffset" values="137.901" fill="freeze" begin="5185.click" /><animate attributeName="stroke-dashoffset" values="137.901;137.901;0" keyTimes="0;0.366;1" dur="1.635s" fill="freeze" begin="0s;5185.click" /></path><path d="M53.71,11.88c0.77,0.76,1.65,2.41,1.64,4.49C55.25,36.5,50.5,59.5,29.64,72.9" stroke-dasharray="69.845" stroke-dashoffset="69.845"><animate attributeName="stroke-dashoffset" values="69.845" fill="freeze" begin="5185.click" /><animate attributeName="stroke-dashoffset" values="69.845;69.845;0" keyTimes="0;0.757;1" dur="2.16s" fill="freeze" begin="0s;5185.click" /></path><path d="M55.5,45.5c7.7,3.74,19.88,15.39,21.81,21.22" stroke-dasharray="30.874" stroke-dashoffset="30.874"><animate attributeName="stroke-dashoffset" values="30.874" fill="freeze" begin="5185.click" /><animate attributeName="stroke-dashoffset" values="30.874;30.874;0" keyTimes="0;0.875;1" dur="2.469s" fill="freeze" begin="0s;5185.click" /></path></g></svg>