<svg xmlns="http://www.w3.org/2000/svg" viewBox="0 0 109 109" id="51ac"><g fill="none" stroke="#666" stroke-width="6" stroke-linecap="round" stroke-linejoin="round"><g><g><path d="M44.62,15.25c0.14,1.46-0.19,2.53-0.9,3.84c-4.05,7.46-11.32,16.3-21.98,23.66" /><path d="M45.86,21.96c0.81,0.29,2.21,0.43,3.89,0.18c5.75-0.88,9.61-1.32,13.36-2.17c4.04-0.92,4.68,1.79,2.97,4.69C58.5,37.5,42.25,59.38,13.75,70.75" /><path d="M38.38,32.25c6.13,4.66,30.42,20.84,42.71,27.89c3.8,2.18,8.54,4.17,12.91,4.86" /></g><g><g><path d="M47.25,65c5.56,1.41,14.36,5.8,15.75,8" /></g><g><path d="M40.5,81.75c8.91,2.65,22.25,9.62,25.5,14" /></g></g></g></g><g fill="none" stroke="#000" stroke-width="3" stroke-linecap="round" stroke-linejoin="round"><path d="M44.62,15.25c0.14,1.46-0.19,2.53-0.9,3.84c-4.05,7.46-11.32,16.3-21.98,23.66" stroke-dasharray="36.593" stroke-dashoffset="36.593"><animate attributeName="stroke-dashoffset" values="36.593;36.593;0" dur="0.366s" fill="freeze" begin="0s;51ac.click" /></path><path d="M45.86,21.96c0.81,0.29,2.21,0.43,3.89,0.18c5.75-0.88,9.61-1.32,13.36-2.17c4.04-0.92,4.68,1.79,2.97,4.69C58.5,37.5,42.25,59.38,13.75,70.75" stroke-dasharray="96.512" stroke-dashoffset="96.512"><animate attributeName="stroke-dashoffset" values="96.512" fill="freeze" begin="51ac.click" /><animate attributeName="stroke-dashoffset" values="96.512;96.512;0" keyTimes="0;0.335;1" dur="1.092s" fill="freeze" begin="0s;51ac.click" /></path><path d="M38.38,32.25c6.13,4.66,30.42,20.84,42.71,27.89c3.8,2.18,8.54,4.17,12.91,4.86" stroke-dasharray="64.893" stroke-dashoffset="64.893"><animate attributeName="stroke-dashoffset" values="64.893" fill="freeze" begin="51ac.click" /><animate attributeName="stroke-dashoffset" values="64.893;64.893;0" keyTimes="0;0.691;1" dur="1.58s" fill="freeze" begin="0s;51ac.click" /></path><path d="M47.25,65c5.56,1.41,14.36,5.8,15.75,8" stroke-dasharray="17.849" stroke-dashoffset="17.849"><animate attributeName="stroke-dashoffset" values="17.849" fill="freeze" begin="51ac.click" /><animate attributeName="stroke-dashoffset" values="17.849;17.849;0" keyTimes="0;0.899;1" dur="1.758s" fill="freeze" begin="0s;51ac.click" /></path><path d="M40.5,81.75c8.91,2.65,22.25,9.62,25.5,14" stroke-dasharray="29.369" stroke-dashoffset="29.369"><animate attributeName="stroke-dashoffset" values="29.369" fill="freeze" begin="51ac.click" /><animate attributeName="stroke-dashoffset" values="29.369;29.369;0" keyTimes="0;0.857;1" dur="2.052s" fill="freeze" begin="0s;51ac.click" /></path></g></svg>