<svg xmlns="http://www.w3.org/2000/svg" viewBox="0 0 109 109" id="51cd"><g fill="none" stroke="#666" stroke-width="6" stroke-linecap="round" stroke-linejoin="round"><g><g><g><path d="M15.25,25.75c3.18,1.5,8.21,6.17,9,8.5" /></g><g><path d="M13.75,86.56c1.62,0.44,2.67-0.15,3.49-2.04c2.76-6.39,5.16-12.83,7.51-19.76" /></g></g><g p4:phon="東" xmlns:p4="http://kanjivg.tagaini.net"><g><path d="M37.62,26.64c2.38,0.23,5.19-0.06,7.42-0.39c9.38-1.39,20.55-3.46,29.97-4.26c2.39-0.2,4.88-0.52,7.23,0.14" /></g><g><path d="M36.53,38.78c0.97,0.97,1.34,1.6,1.71,2.96c0.18,0.68,2.7,13.52,3.91,19.44c0.35,1.71,0.73,3.4,0.88,4.31" /><path d="M38.76,40.33c10.05-1.95,28.99-5.08,40.37-6.17c2.83-0.27,5.25,0.87,4.81,3.99c-0.81,5.79-2.04,10.95-3.48,18.65c-0.31,1.64-0.88,3.39-1.23,5.27" /><path d="M41.14,51.13c13.11-2.25,30.11-4.5,40.37-5.13" /><path d="M43.86,63.18c10.52-1.68,24.77-3.68,35.26-4.46" /></g><g><path d="M58.8,9.5c1.22,1.22,1.57,2.62,1.57,4.42c0,0.71,0.04,55.34,0.03,77.71c0,5.58,0,9.15-0.01,9.38" /><path d="M57.4,62.03c0,1.34-1.42,3.65-2.69,5.58c-6.58,10.01-13.46,18.01-24.8,25.62" /><path d="M60.95,61.53C69,70.12,78.21,79.3,85.27,85.35c2.81,2.41,5.88,4.75,9.32,6.19" /></g></g></g></g><g fill="none" stroke="#000" stroke-width="3" stroke-linecap="round" stroke-linejoin="round"><path d="M15.25,25.75c3.18,1.5,8.21,6.17,9,8.5" stroke-dasharray="12.561" stroke-dashoffset="12.561"><animate attributeName="stroke-dashoffset" values="12.561;12.561;0" dur="0.251s" fill="freeze" begin="0s;51cd.click" /></path><path d="M13.75,86.56c1.62,0.44,2.67-0.15,3.49-2.04c2.76-6.39,5.16-12.83,7.51-19.76" stroke-dasharray="25.676" stroke-dashoffset="25.676"><animate attributeName="stroke-dashoffset" values="25.676" fill="freeze" begin="51cd.click" /><animate attributeName="stroke-dashoffset" values="25.676;25.676;0" keyTimes="0;0.494;1" dur="0.508s" fill="freeze" begin="0s;51cd.click" /></path><path d="M37.62,26.64c2.38,0.23,5.19-0.06,7.42-0.39c9.38-1.39,20.55-3.46,29.97-4.26c2.39-0.2,4.88-0.52,7.23,0.14" stroke-dasharray="45" stroke-dashoffset="45"><animate attributeName="stroke-dashoffset" values="45" fill="freeze" begin="51cd.click" /><animate attributeName="stroke-dashoffset" values="45;45;0" keyTimes="0;0.53;1" dur="0.958s" fill="freeze" begin="0s;51cd.click" /></path><path d="M36.53,38.78c0.97,0.97,1.34,1.6,1.71,2.96c0.18,0.68,2.7,13.52,3.91,19.44c0.35,1.71,0.73,3.4,0.88,4.31" stroke-dasharray="27.7" stroke-dashoffset="27.7"><animate attributeName="stroke-dashoffset" values="27.7" fill="freeze" begin="51cd.click" /><animate attributeName="stroke-dashoffset" values="27.7;27.7;0" keyTimes="0;0.776;1" dur="1.235s" fill="freeze" begin="0s;51cd.click" /></path><path d="M38.76,40.33c10.05-1.95,28.99-5.08,40.37-6.17c2.83-0.27,5.25,0.87,4.81,3.99c-0.81,5.79-2.04,10.95-3.48,18.65c-0.31,1.64-0.88,3.39-1.23,5.27" stroke-dasharray="72.685" stroke-dashoffset="72.685"><animate attributeName="stroke-dashoffset" values="72.685" fill="freeze" begin="51cd.click" /><animate attributeName="stroke-dashoffset" values="72.685;72.685;0" keyTimes="0;0.693;1" dur="1.782s" fill="freeze" begin="0s;51cd.click" /></path><path d="M41.14,51.13c13.11-2.25,30.11-4.5,40.37-5.13" stroke-dasharray="40.711" stroke-dashoffset="40.711"><animate attributeName="stroke-dashoffset" values="40.711" fill="freeze" begin="51cd.click" /><animate attributeName="stroke-dashoffset" values="40.711;40.711;0" keyTimes="0;0.814;1" dur="2.189s" fill="freeze" begin="0s;51cd.click" /></path><path d="M43.86,63.18c10.52-1.68,24.77-3.68,35.26-4.46" stroke-dasharray="35.551" stroke-dashoffset="35.551"><animate attributeName="stroke-dashoffset" values="35.551" fill="freeze" begin="51cd.click" /><animate attributeName="stroke-dashoffset" values="35.551;35.551;0" keyTimes="0;0.86;1" dur="2.545s" fill="freeze" begin="0s;51cd.click" /></path><path d="M58.8,9.5c1.22,1.22,1.57,2.62,1.57,4.42c0,0.71,0.04,55.34,0.03,77.71c0,5.58,0,9.15-0.01,9.38" stroke-dasharray="91.922" stroke-dashoffset="91.922"><animate attributeName="stroke-dashoffset" values="91.922" fill="freeze" begin="51cd.click" /><animate attributeName="stroke-dashoffset" values="91.922;91.922;0" keyTimes="0;0.786;1" dur="3.236s" fill="freeze" begin="0s;51cd.click" /></path><path d="M57.4,62.03c0,1.34-1.42,3.65-2.69,5.58c-6.58,10.01-13.46,18.01-24.8,25.62" stroke-dasharray="42.179" stroke-dashoffset="42.179"><animate attributeName="stroke-dashoffset" values="42.179" fill="freeze" begin="51cd.click" /><animate attributeName="stroke-dashoffset" values="42.179;42.179;0" keyTimes="0;0.885;1" dur="3.658s" fill="freeze" begin="0s;51cd.click" /></path><path d="M60.95,61.53C69,70.12,78.21,79.3,85.27,85.35c2.81,2.41,5.88,4.75,9.32,6.19" stroke-dasharray="45.292" stroke-dashoffset="45.292"><animate attributeName="stroke-dashoffset" values="45.292" fill="freeze" begin="51cd.click" /><animate attributeName="stroke-dashoffset" values="45.292;45.292;0" keyTimes="0;0.89;1" dur="4.111s" fill="freeze" begin="0s;51cd.click" /></path></g></svg>