<svg xmlns="http://www.w3.org/2000/svg" viewBox="0 0 109 109" id="5200"><g fill="none" stroke="#666" stroke-width="6" stroke-linecap="round" stroke-linejoin="round"><g><path d="M23.34,27.56c2.19,0.76,4.95,0.62,6.87,0.41c15.78-1.72,41.52-5.94,50.19-6.72c5.64-0.51,8.15,2.77,7.83,6.31c-0.83,9.35-7.98,45.4-15.67,56.15C67,91.5,63.75,89,59.54,83.94" /><path d="M49.81,29.06c0.7,2.01,0.74,3.8,0.37,5.63C46.59,52,36.12,73,16.62,86.88" /></g></g><g fill="none" stroke="#000" stroke-width="3" stroke-linecap="round" stroke-linejoin="round"><path d="M23.34,27.56c2.19,0.76,4.95,0.62,6.87,0.41c15.78-1.72,41.52-5.94,50.19-6.72c5.64-0.51,8.15,2.77,7.83,6.31c-0.83,9.35-7.98,45.4-15.67,56.15C67,91.5,63.75,89,59.54,83.94" stroke-dasharray="144.693" stroke-dashoffset="144.693"><animate attributeName="stroke-dashoffset" values="144.693;144.693;0" dur="1.088s" fill="freeze" begin="0s;5200.click" /></path><path d="M49.81,29.06c0.7,2.01,0.74,3.8,0.37,5.63C46.59,52,36.12,73,16.62,86.88" stroke-dasharray="69.188" stroke-dashoffset="69.188"><animate attributeName="stroke-dashoffset" values="69.188" fill="freeze" begin="5200.click" /><animate attributeName="stroke-dashoffset" values="69.188;69.188;0" keyTimes="0;0.677;1" dur="1.608s" fill="freeze" begin="0s;5200.click" /></path></g></svg>