<svg xmlns="http://www.w3.org/2000/svg" viewBox="0 0 109 109" id="5208"><g fill="none" stroke="#666" stroke-width="6" stroke-linecap="round" stroke-linejoin="round"><g><g p4:phon="乂" xmlns:p4="http://kanjivg.tagaini.net"><g><path d="M40.87,19.35c0.42,1.56,0.52,2.74-0.04,5.51C35.84,49.6,27.62,68.62,14.5,82" /></g><path d="M15.62,38c12.36,7.39,25.95,21.42,32.49,32.57" /></g><g><path d="M63.02,21.33c0.98,0.92,1.76,2.67,1.76,5.02c0,7.04-0.01,28.57-0.02,40.15c0,3.26,0,5.76,0,7" /><path d="M87.02,14.33c1.26,1.26,1.76,2.79,1.76,5.02c0,14.56-0.01,64.16-0.01,69.12c0,13.14-7.21,1.5-8.71,0.25" /></g></g></g><g fill="none" stroke="#000" stroke-width="3" stroke-linecap="round" stroke-linejoin="round"><path d="M40.87,19.35c0.42,1.56,0.52,2.74-0.04,5.51C35.84,49.6,27.62,68.62,14.5,82" stroke-dasharray="69.371" stroke-dashoffset="69.371"><animate attributeName="stroke-dashoffset" values="69.371;69.371;0" dur="0.522s" fill="freeze" begin="0s;5208.click" /></path><path d="M15.62,38c12.36,7.39,25.95,21.42,32.49,32.57" stroke-dasharray="46.399" stroke-dashoffset="46.399"><animate attributeName="stroke-dashoffset" values="46.399" fill="freeze" begin="5208.click" /><animate attributeName="stroke-dashoffset" values="46.399;46.399;0" keyTimes="0;0.529;1" dur="0.986s" fill="freeze" begin="0s;5208.click" /></path><path d="M63.02,21.33c0.98,0.92,1.76,2.67,1.76,5.02c0,7.04-0.01,28.57-0.02,40.15c0,3.26,0,5.76,0,7" stroke-dasharray="52.612" stroke-dashoffset="52.612"><animate attributeName="stroke-dashoffset" values="52.612" fill="freeze" begin="5208.click" /><animate attributeName="stroke-dashoffset" values="52.612;52.612;0" keyTimes="0;0.652;1" dur="1.512s" fill="freeze" begin="0s;5208.click" /></path><path d="M87.02,14.33c1.26,1.26,1.76,2.79,1.76,5.02c0,14.56-0.01,64.16-0.01,69.12c0,13.14-7.21,1.5-8.71,0.25" stroke-dasharray="90.729" stroke-dashoffset="90.729"><animate attributeName="stroke-dashoffset" values="90.729" fill="freeze" begin="5208.click" /><animate attributeName="stroke-dashoffset" values="90.729;90.729;0" keyTimes="0;0.689;1" dur="2.194s" fill="freeze" begin="0s;5208.click" /></path></g></svg>