<svg xmlns="http://www.w3.org/2000/svg" viewBox="0 0 109 109" id="5214"><g fill="none" stroke="#666" stroke-width="6" stroke-linecap="round" stroke-linejoin="round"><g><g><path d="M17.05,32.07c1.41,0.72,3.06,1.45,5.17,1.21c2.12-0.24,25.95-4.36,28.78-4.36c1.74,0,3.49,1.08,2.74,3.83c-1.2,4.4-2.25,12.5-2.75,18" /><g><path d="M12.12,55.03c0.91,0.42,3.25,0.7,4.24,0.59c12.13-1.37,28.87-4.01,40.04-4.94c2.09-0.17,4.09-0.17,5.87,0.39" /><g><path d="M34.91,15.25c0.59,1,1.61,2.08,1.7,4.17C38,50.5,34.25,78.5,15.5,93.25" /><path d="M38.56,60.96c6.29,4.27,14.04,14.4,17.55,21.67" /></g></g></g><g><path d="M70.27,24.33c0.98,0.92,1.67,1.99,1.76,5.02C72.42,43.91,72,61.04,72,66" /><path d="M88.77,13.33c0.98,0.92,1.67,1.99,1.76,5.02c0.4,14.55-0.26,65.16-0.26,70.12c0,13.14-7.21,1.5-8.71,0.25" /></g></g></g><g fill="none" stroke="#000" stroke-width="3" stroke-linecap="round" stroke-linejoin="round"><path d="M17.05,32.07c1.41,0.72,3.06,1.45,5.17,1.21c2.12-0.24,25.95-4.36,28.78-4.36c1.74,0,3.49,1.08,2.74,3.83c-1.2,4.4-2.25,12.5-2.75,18" stroke-dasharray="58.389" stroke-dashoffset="58.389"><animate attributeName="stroke-dashoffset" values="58.389;58.389;0" dur="0.584s" fill="freeze" begin="0s;5214.click" /></path><path d="M12.12,55.03c0.91,0.42,3.25,0.7,4.24,0.59c12.13-1.37,28.87-4.01,40.04-4.94c2.09-0.17,4.09-0.17,5.87,0.39" stroke-dasharray="50.578" stroke-dashoffset="50.578"><animate attributeName="stroke-dashoffset" values="50.578" fill="freeze" begin="5214.click" /><animate attributeName="stroke-dashoffset" values="50.578;50.578;0" keyTimes="0;0.536;1" dur="1.09s" fill="freeze" begin="0s;5214.click" /></path><path d="M34.91,15.25c0.59,1,1.61,2.08,1.7,4.17C38,50.5,34.25,78.5,15.5,93.25" stroke-dasharray="84.268" stroke-dashoffset="84.268"><animate attributeName="stroke-dashoffset" values="84.268" fill="freeze" begin="5214.click" /><animate attributeName="stroke-dashoffset" values="84.268;84.268;0" keyTimes="0;0.632;1" dur="1.724s" fill="freeze" begin="0s;5214.click" /></path><path d="M38.56,60.96c6.29,4.27,14.04,14.4,17.55,21.67" stroke-dasharray="28.125" stroke-dashoffset="28.125"><animate attributeName="stroke-dashoffset" values="28.125" fill="freeze" begin="5214.click" /><animate attributeName="stroke-dashoffset" values="28.125;28.125;0" keyTimes="0;0.86;1" dur="2.005s" fill="freeze" begin="0s;5214.click" /></path><path d="M70.27,24.33c0.98,0.92,1.67,1.99,1.76,5.02C72.42,43.91,72,61.04,72,66" stroke-dasharray="42.139" stroke-dashoffset="42.139"><animate attributeName="stroke-dashoffset" values="42.139" fill="freeze" begin="5214.click" /><animate attributeName="stroke-dashoffset" values="42.139;42.139;0" keyTimes="0;0.826;1" dur="2.426s" fill="freeze" begin="0s;5214.click" /></path><path d="M88.77,13.33c0.98,0.92,1.67,1.99,1.76,5.02c0.4,14.55-0.26,65.16-0.26,70.12c0,13.14-7.21,1.5-8.71,0.25" stroke-dasharray="91.742" stroke-dashoffset="91.742"><animate attributeName="stroke-dashoffset" values="91.742" fill="freeze" begin="5214.click" /><animate attributeName="stroke-dashoffset" values="91.742;91.742;0" keyTimes="0;0.779;1" dur="3.116s" fill="freeze" begin="0s;5214.click" /></path></g></svg>