<svg xmlns="http://www.w3.org/2000/svg" viewBox="0 0 109 109" id="522e"><g fill="none" stroke="#666" stroke-width="6" stroke-linecap="round" stroke-linejoin="round"><g><g><g><path d="M46.77,13.25c0.08,0.41-0.64,1.95-1.1,2.39c-3.53,3.35-12.48,9.49-28.12,14.15" /><path d="M10.03,48.06c1.06,0.45,3.69,0.58,4.75,0.45c9.35-1.11,35.47-5.07,42.5-5.65c1.76-0.15,2.82,0.22,3.7,0.44" /><path d="M34.71,26.87c0.44,0.35,1.35,2.63,1.44,3.33c0.16,1.31,0.45,33.67,0.36,38.19" /></g><g><path d="M18.18,70.09c0.43,0.45,0.86,0.82,1.05,1.38c1.47,4.44,3.74,15.79,4.75,23.77" /><path d="M20.55,71.35c11.2-1.34,23.85-3.41,30.15-3.96c2.3-0.2,2.97,2.04,2.64,3.23c-1.26,4.52-2.58,10.64-4.08,18.48" /><path d="M24.27,91.78c6.61-0.67,18.5-1.42,27.57-2.46" /></g></g><g><path d="M69.27,25.08c0.98,0.92,1.67,1.99,1.76,5.02C71.42,44.66,71,58.79,71,63.75" /><path d="M89.27,11.08c0.98,0.92,1.67,1.99,1.76,5.02c0.4,14.55-0.26,68.66-0.26,73.62c0,13.14-7.21,1.5-8.71,0.25" /></g></g></g><g fill="none" stroke="#000" stroke-width="3" stroke-linecap="round" stroke-linejoin="round"><path d="M46.77,13.25c0.08,0.41-0.64,1.95-1.1,2.39c-3.53,3.35-12.48,9.49-28.12,14.15" stroke-dasharray="34.395" stroke-dashoffset="34.395"><animate attributeName="stroke-dashoffset" values="34.395;34.395;0" dur="0.344s" fill="freeze" begin="0s;522e.click" /></path><path d="M10.03,48.06c1.06,0.45,3.69,0.58,4.75,0.45c9.35-1.11,35.47-5.07,42.5-5.65c1.76-0.15,2.82,0.22,3.7,0.44" stroke-dasharray="51.429" stroke-dashoffset="51.429"><animate attributeName="stroke-dashoffset" values="51.429" fill="freeze" begin="522e.click" /><animate attributeName="stroke-dashoffset" values="51.429;51.429;0" keyTimes="0;0.401;1" dur="0.858s" fill="freeze" begin="0s;522e.click" /></path><path d="M34.71,26.87c0.44,0.35,1.35,2.63,1.44,3.33c0.16,1.31,0.45,33.67,0.36,38.19" stroke-dasharray="41.852" stroke-dashoffset="41.852"><animate attributeName="stroke-dashoffset" values="41.852" fill="freeze" begin="522e.click" /><animate attributeName="stroke-dashoffset" values="41.852;41.852;0" keyTimes="0;0.672;1" dur="1.277s" fill="freeze" begin="0s;522e.click" /></path><path d="M18.18,70.09c0.43,0.45,0.86,0.82,1.05,1.38c1.47,4.44,3.74,15.79,4.75,23.77" stroke-dasharray="26.014" stroke-dashoffset="26.014"><animate attributeName="stroke-dashoffset" values="26.014" fill="freeze" begin="522e.click" /><animate attributeName="stroke-dashoffset" values="26.014;26.014;0" keyTimes="0;0.831;1" dur="1.537s" fill="freeze" begin="0s;522e.click" /></path><path d="M20.55,71.35c11.2-1.34,23.85-3.41,30.15-3.96c2.3-0.2,2.97,2.04,2.64,3.23c-1.26,4.52-2.58,10.64-4.08,18.48" stroke-dasharray="54.261" stroke-dashoffset="54.261"><animate attributeName="stroke-dashoffset" values="54.261" fill="freeze" begin="522e.click" /><animate attributeName="stroke-dashoffset" values="54.261;54.261;0" keyTimes="0;0.739;1" dur="2.08s" fill="freeze" begin="0s;522e.click" /></path><path d="M24.27,91.78c6.61-0.67,18.5-1.42,27.57-2.46" stroke-dasharray="27.682" stroke-dashoffset="27.682"><animate attributeName="stroke-dashoffset" values="27.682" fill="freeze" begin="522e.click" /><animate attributeName="stroke-dashoffset" values="27.682;27.682;0" keyTimes="0;0.882;1" dur="2.357s" fill="freeze" begin="0s;522e.click" /></path><path d="M69.27,25.08c0.98,0.92,1.67,1.99,1.76,5.02C71.42,44.66,71,58.79,71,63.75" stroke-dasharray="39.139" stroke-dashoffset="39.139"><animate attributeName="stroke-dashoffset" values="39.139" fill="freeze" begin="522e.click" /><animate attributeName="stroke-dashoffset" values="39.139;39.139;0" keyTimes="0;0.858;1" dur="2.748s" fill="freeze" begin="0s;522e.click" /></path><path d="M89.27,11.08c0.98,0.92,1.67,1.99,1.76,5.02c0.4,14.55-0.26,68.66-0.26,73.62c0,13.14-7.21,1.5-8.71,0.25" stroke-dasharray="95.242" stroke-dashoffset="95.242"><animate attributeName="stroke-dashoffset" values="95.242" fill="freeze" begin="522e.click" /><animate attributeName="stroke-dashoffset" values="95.242;95.242;0" keyTimes="0;0.793;1" dur="3.464s" fill="freeze" begin="0s;522e.click" /></path></g></svg>