<svg xmlns="http://www.w3.org/2000/svg" viewBox="0 0 109 109" id="524a"><g fill="none" stroke="#666" stroke-width="6" stroke-linecap="round" stroke-linejoin="round"><g><g p4:phon="肖" xmlns:p4="http://kanjivg.tagaini.net"><g><path d="M35.24,11.25c0.12,0.38,1.67,1.95,1.67,4.34c0,8.16-0.03,21.38-0.03,25.28" /><path d="M15.62,20.62c3.98,2.91,9.01,9.92,10.01,14.44" /><path d="M56.21,17.85c0.09,0.86-0.01,1.69-0.31,2.5c-1.11,3.41-4.49,8.22-8.27,11.67" /></g><g><path d="M21.86,42.44c0.85,0.85,1.35,1.93,1.35,3.28c0,0.73-0.03,30.34-0.04,44.02c0,3.92-0.01,6.62-0.03,7.08" /><path d="M23.81,43.37c4.06-0.62,19.42-3.12,23.23-3.44c2.21-0.18,4.18,1.19,4.18,4.4c0,9.99-0.05,26.65-0.05,45.42c0,11.25-4.97,2.58-6.62,0.96" /><path d="M24.06,56.94c8.56-1.19,18.31-2.56,26.24-3.28" /><path d="M24.26,71.61c5.89-0.7,19-2.57,25.81-3.03" /></g></g><g><path d="M70.27,26.83c0.98,0.92,1.76,2.42,1.76,4.52c0,10.53,0.15,23.4,0.05,30.9c-0.04,2.87-0.07,5.13-0.07,6.5" /><path d="M89.27,13.58c0.98,0.92,1.76,2.17,1.76,4.52c0,14.56-0.01,65.9-0.01,71.12c0,14.91-5.64,5.41-7.96,2.5" /></g></g></g><g fill="none" stroke="#000" stroke-width="3" stroke-linecap="round" stroke-linejoin="round"><path d="M35.24,11.25c0.12,0.38,1.67,1.95,1.67,4.34c0,8.16-0.03,21.38-0.03,25.28" stroke-dasharray="30.011" stroke-dashoffset="30.011"><animate attributeName="stroke-dashoffset" values="30.011;30.011;0" dur="0.3s" fill="freeze" begin="0s;524a.click" /></path><path d="M15.62,20.62c3.98,2.91,9.01,9.92,10.01,14.44" stroke-dasharray="17.837" stroke-dashoffset="17.837"><animate attributeName="stroke-dashoffset" values="17.837" fill="freeze" begin="524a.click" /><animate attributeName="stroke-dashoffset" values="17.837;17.837;0" keyTimes="0;0.628;1" dur="0.478s" fill="freeze" begin="0s;524a.click" /></path><path d="M56.21,17.85c0.09,0.86-0.01,1.69-0.31,2.5c-1.11,3.41-4.49,8.22-8.27,11.67" stroke-dasharray="16.975" stroke-dashoffset="16.975"><animate attributeName="stroke-dashoffset" values="16.975" fill="freeze" begin="524a.click" /><animate attributeName="stroke-dashoffset" values="16.975;16.975;0" keyTimes="0;0.738;1" dur="0.648s" fill="freeze" begin="0s;524a.click" /></path><path d="M21.86,42.44c0.85,0.85,1.35,1.93,1.35,3.28c0,0.73-0.03,30.34-0.04,44.02c0,3.92-0.01,6.62-0.03,7.08" stroke-dasharray="54.747" stroke-dashoffset="54.747"><animate attributeName="stroke-dashoffset" values="54.747" fill="freeze" begin="524a.click" /><animate attributeName="stroke-dashoffset" values="54.747;54.747;0" keyTimes="0;0.542;1" dur="1.195s" fill="freeze" begin="0s;524a.click" /></path><path d="M23.81,43.37c4.06-0.62,19.42-3.12,23.23-3.44c2.21-0.18,4.18,1.19,4.18,4.4c0,9.99-0.05,26.65-0.05,45.42c0,11.25-4.97,2.58-6.62,0.96" stroke-dasharray="89.153" stroke-dashoffset="89.153"><animate attributeName="stroke-dashoffset" values="89.153" fill="freeze" begin="524a.click" /><animate attributeName="stroke-dashoffset" values="89.153;89.153;0" keyTimes="0;0.641;1" dur="1.865s" fill="freeze" begin="0s;524a.click" /></path><path d="M24.06,56.94c8.56-1.19,18.31-2.56,26.24-3.28" stroke-dasharray="26.448" stroke-dashoffset="26.448"><animate attributeName="stroke-dashoffset" values="26.448" fill="freeze" begin="524a.click" /><animate attributeName="stroke-dashoffset" values="26.448;26.448;0" keyTimes="0;0.876;1" dur="2.129s" fill="freeze" begin="0s;524a.click" /></path><path d="M24.26,71.61c5.89-0.7,19-2.57,25.81-3.03" stroke-dasharray="25.991" stroke-dashoffset="25.991"><animate attributeName="stroke-dashoffset" values="25.991" fill="freeze" begin="524a.click" /><animate attributeName="stroke-dashoffset" values="25.991;25.991;0" keyTimes="0;0.891;1" dur="2.389s" fill="freeze" begin="0s;524a.click" /></path><path d="M70.27,26.83c0.98,0.92,1.76,2.42,1.76,4.52c0,10.53,0.15,23.4,0.05,30.9c-0.04,2.87-0.07,5.13-0.07,6.5" stroke-dasharray="42.391" stroke-dashoffset="42.391"><animate attributeName="stroke-dashoffset" values="42.391" fill="freeze" begin="524a.click" /><animate attributeName="stroke-dashoffset" values="42.391;42.391;0" keyTimes="0;0.849;1" dur="2.813s" fill="freeze" begin="0s;524a.click" /></path><path d="M89.27,13.58c0.98,0.92,1.76,2.17,1.76,4.52c0,14.56-0.01,65.9-0.01,71.12c0,14.91-5.64,5.41-7.96,2.5" stroke-dasharray="93.363" stroke-dashoffset="93.363"><animate attributeName="stroke-dashoffset" values="93.363" fill="freeze" begin="524a.click" /><animate attributeName="stroke-dashoffset" values="93.363;93.363;0" keyTimes="0;0.8;1" dur="3.515s" fill="freeze" begin="0s;524a.click" /></path></g></svg>