<svg xmlns="http://www.w3.org/2000/svg" viewBox="0 0 109 109" id="5254"><g fill="none" stroke="#666" stroke-width="6" stroke-linecap="round" stroke-linejoin="round"><g><g><g><path d="M22.15,15.91c0.41,0.65,1.24,1.92,1.33,2.79c0.52,5.55,3.37,27.39,3.51,28.27" /><path d="M24.16,17.45c2.33-0.11,23.87-2.83,25.99-2.96c1.77-0.11,2.83,2.59,2.77,3.26c-0.42,4.94-0.75,16.02-2.25,27.08" /><path d="M26.41,30.57c8.2-0.84,19.91-2.24,25.35-2.49" /><path d="M27.67,45.3c6.77-0.91,16.97-1.84,23.31-2.28" /></g><g><g><g><path d="M31.58,48.7c0.05,0.49,0.21,1.29-0.11,1.95C28.5,56.75,23,64,12.98,69.32" /></g><path d="M28.38,57.57c0.81,0.45,1.95,0.6,3.25,0.3c1.3-0.3,22.83-2.85,26.07-3c3.24-0.15,3.79,1.49,3.41,4.65c-1.1,9.23-2.63,21.7-8.79,33.9c-2.56,5.08-5.06,3.33-8.19-1.75" /></g><g><path d="M37.2,60.06c0.04,0.41,0.12,1.06-0.08,1.63c-1.99,5.62-9.72,13.98-17.55,18.59" /></g><g><path d="M49.59,58.65c0.08,0.79-0.14,2.12-0.65,3.18C45.25,69.5,37.5,81.75,23.16,92.26" /></g></g></g><g><path d="M70.27,23.83c0.98,0.92,1.67,1.99,1.76,5.02C72.42,43.41,72,64.54,72,69.5" /><path d="M88.27,12.33c0.98,0.92,1.67,1.99,1.76,5.02c0.4,14.55-0.26,66.16-0.26,71.12c0,13.14-7.21,1.5-8.71,0.25" /></g></g></g><g fill="none" stroke="#000" stroke-width="3" stroke-linecap="round" stroke-linejoin="round"><path d="M22.15,15.91c0.41,0.65,1.24,1.92,1.33,2.79c0.52,5.55,3.37,27.39,3.51,28.27" stroke-dasharray="31.602" stroke-dashoffset="31.602"><animate attributeName="stroke-dashoffset" values="31.602;31.602;0" dur="0.316s" fill="freeze" begin="0s;5254.click" /></path><path d="M24.16,17.45c2.33-0.11,23.87-2.83,25.99-2.96c1.77-0.11,2.83,2.59,2.77,3.26c-0.42,4.94-0.75,16.02-2.25,27.08" stroke-dasharray="57.997" stroke-dashoffset="57.997"><animate attributeName="stroke-dashoffset" values="57.997" fill="freeze" begin="5254.click" /><animate attributeName="stroke-dashoffset" values="57.997;57.997;0" keyTimes="0;0.353;1" dur="0.896s" fill="freeze" begin="0s;5254.click" /></path><path d="M26.41,30.57c8.2-0.84,19.91-2.24,25.35-2.49" stroke-dasharray="25.475" stroke-dashoffset="25.475"><animate attributeName="stroke-dashoffset" values="25.475" fill="freeze" begin="5254.click" /><animate attributeName="stroke-dashoffset" values="25.475;25.475;0" keyTimes="0;0.778;1" dur="1.151s" fill="freeze" begin="0s;5254.click" /></path><path d="M27.67,45.3c6.77-0.91,16.97-1.84,23.31-2.28" stroke-dasharray="23.425" stroke-dashoffset="23.425"><animate attributeName="stroke-dashoffset" values="23.425" fill="freeze" begin="5254.click" /><animate attributeName="stroke-dashoffset" values="23.425;23.425;0" keyTimes="0;0.831;1" dur="1.385s" fill="freeze" begin="0s;5254.click" /></path><path d="M31.58,48.7c0.05,0.49,0.21,1.29-0.11,1.95C28.5,56.75,23,64,12.98,69.32" stroke-dasharray="28.706" stroke-dashoffset="28.706"><animate attributeName="stroke-dashoffset" values="28.706" fill="freeze" begin="5254.click" /><animate attributeName="stroke-dashoffset" values="28.706;28.706;0" keyTimes="0;0.828;1" dur="1.672s" fill="freeze" begin="0s;5254.click" /></path><path d="M28.38,57.57c0.81,0.45,1.95,0.6,3.25,0.3c1.3-0.3,22.83-2.85,26.07-3c3.24-0.15,3.79,1.49,3.41,4.65c-1.1,9.23-2.63,21.7-8.79,33.9c-2.56,5.08-5.06,3.33-8.19-1.75" stroke-dasharray="83.654" stroke-dashoffset="83.654"><animate attributeName="stroke-dashoffset" values="83.654" fill="freeze" begin="5254.click" /><animate attributeName="stroke-dashoffset" values="83.654;83.654;0" keyTimes="0;0.727;1" dur="2.301s" fill="freeze" begin="0s;5254.click" /></path><path d="M37.2,60.06c0.04,0.41,0.12,1.06-0.08,1.63c-1.99,5.62-9.72,13.98-17.55,18.59" stroke-dasharray="27.6" stroke-dashoffset="27.6"><animate attributeName="stroke-dashoffset" values="27.6" fill="freeze" begin="5254.click" /><animate attributeName="stroke-dashoffset" values="27.6;27.6;0" keyTimes="0;0.893;1" dur="2.577s" fill="freeze" begin="0s;5254.click" /></path><path d="M49.59,58.65c0.08,0.79-0.14,2.12-0.65,3.18C45.25,69.5,37.5,81.75,23.16,92.26" stroke-dasharray="43.554" stroke-dashoffset="43.554"><animate attributeName="stroke-dashoffset" values="43.554" fill="freeze" begin="5254.click" /><animate attributeName="stroke-dashoffset" values="43.554;43.554;0" keyTimes="0;0.855;1" dur="3.013s" fill="freeze" begin="0s;5254.click" /></path><path d="M70.27,23.83c0.98,0.92,1.67,1.99,1.76,5.02C72.42,43.41,72,64.54,72,69.5" stroke-dasharray="46.139" stroke-dashoffset="46.139"><animate attributeName="stroke-dashoffset" values="46.139" fill="freeze" begin="5254.click" /><animate attributeName="stroke-dashoffset" values="46.139;46.139;0" keyTimes="0;0.867;1" dur="3.474s" fill="freeze" begin="0s;5254.click" /></path><path d="M88.27,12.33c0.98,0.92,1.67,1.99,1.76,5.02c0.4,14.55-0.26,66.16-0.26,71.12c0,13.14-7.21,1.5-8.71,0.25" stroke-dasharray="92.742" stroke-dashoffset="92.742"><animate attributeName="stroke-dashoffset" values="92.742" fill="freeze" begin="5254.click" /><animate attributeName="stroke-dashoffset" values="92.742;92.742;0" keyTimes="0;0.833;1" dur="4.171s" fill="freeze" begin="0s;5254.click" /></path></g></svg>