<svg xmlns="http://www.w3.org/2000/svg" viewBox="0 0 109 109" id="5274"><g fill="none" stroke="#666" stroke-width="6" stroke-linecap="round" stroke-linejoin="round"><g><g><g><path d="M35.91,11.5c0.58,0.34,1.81,2.58,1.93,3.26c0.12,0.69-0.07,13.6-0.19,17.9" /><path d="M19.6,20.57c0.58,0.34,1.21,1.8,1.16,2.5c-0.26,3.43-0.26,4.68-0.42,9.17c-0.06,1.58-0.29,3.11,1.15,2.88C31.5,33.5,48.5,31.2,55.8,31.01" /><path d="M55.94,16.16c0.58,0.35,1.26,2.57,1.16,3.26c-0.58,4.23-0.65,5.71-1.61,13.58" /></g><g><g><path d="M16.13,44.63c1.21,0.6,3.41,0.67,4.62,0.6c10.16-0.56,21.74-3.72,32.66-4.01c2.01-0.05,3.22,0.29,4.22,0.59" /></g><g><g><path d="M21.58,53.8c0.38,0.29,0.87,0.52,0.94,0.91c0.52,2.81,1.82,9.46,2.99,15.05" /><path d="M22.31,55.28c5.79-0.56,24.48-4.3,28.43-4.39c1.64-0.04,2.74,0.74,2.37,2.37c-0.66,2.94-1.72,7.23-2.98,11.41" /><path d="M25.82,68.83c5.43-0.83,18.93-3.33,26.4-3.57" /></g><path d="M25,74.42c1.7,2.11,4.38,8.68,4.81,11.97" /><path d="M49.11,69.56c0.02,0.31,0.03,0.81-0.03,1.26c-0.35,2.66-2.35,8.49-5.09,12.06" /><path d="M17.38,92.66c1.54,0.85,3.5,1.26,4.49,0.92c16.18-5.59,27.15-9.43,35.94-11.98" /></g></g></g><g><path d="M70.27,25.33c0.98,0.92,1.67,1.99,1.76,5.02C72.42,44.91,72,61.54,72,66.5" /><path d="M89.27,14.83c0.98,0.92,1.67,1.99,1.76,5.02c0.4,14.55-0.26,63.66-0.26,68.62c0,13.14-7.21,1.5-8.71,0.25" /></g></g></g><g fill="none" stroke="#000" stroke-width="3" stroke-linecap="round" stroke-linejoin="round"><path d="M35.91,11.5c0.58,0.34,1.81,2.58,1.93,3.26c0.12,0.69-0.07,13.6-0.19,17.9" stroke-dasharray="21.735" stroke-dashoffset="21.735"><animate attributeName="stroke-dashoffset" values="21.735;21.735;0" dur="0.217s" fill="freeze" begin="0s;5274.click" /></path><path d="M19.6,20.57c0.58,0.34,1.21,1.8,1.16,2.5c-0.26,3.43-0.26,4.68-0.42,9.17c-0.06,1.58-0.29,3.11,1.15,2.88C31.5,33.5,48.5,31.2,55.8,31.01" stroke-dasharray="50.277" stroke-dashoffset="50.277"><animate attributeName="stroke-dashoffset" values="50.277" fill="freeze" begin="5274.click" /><animate attributeName="stroke-dashoffset" values="50.277;50.277;0" keyTimes="0;0.301;1" dur="0.72s" fill="freeze" begin="0s;5274.click" /></path><path d="M55.94,16.16c0.58,0.35,1.26,2.57,1.16,3.26c-0.58,4.23-0.65,5.71-1.61,13.58" stroke-dasharray="17.217" stroke-dashoffset="17.217"><animate attributeName="stroke-dashoffset" values="17.217" fill="freeze" begin="5274.click" /><animate attributeName="stroke-dashoffset" values="17.217;17.217;0" keyTimes="0;0.807;1" dur="0.892s" fill="freeze" begin="0s;5274.click" /></path><path d="M16.13,44.63c1.21,0.6,3.41,0.67,4.62,0.6c10.16-0.56,21.74-3.72,32.66-4.01c2.01-0.05,3.22,0.29,4.22,0.59" stroke-dasharray="41.91" stroke-dashoffset="41.91"><animate attributeName="stroke-dashoffset" values="41.91" fill="freeze" begin="5274.click" /><animate attributeName="stroke-dashoffset" values="41.91;41.91;0" keyTimes="0;0.68;1" dur="1.311s" fill="freeze" begin="0s;5274.click" /></path><path d="M21.58,53.8c0.38,0.29,0.87,0.52,0.94,0.91c0.52,2.81,1.82,9.46,2.99,15.05" stroke-dasharray="16.685" stroke-dashoffset="16.685"><animate attributeName="stroke-dashoffset" values="16.685" fill="freeze" begin="5274.click" /><animate attributeName="stroke-dashoffset" values="16.685;16.685;0" keyTimes="0;0.887;1" dur="1.478s" fill="freeze" begin="0s;5274.click" /></path><path d="M22.31,55.28c5.79-0.56,24.48-4.3,28.43-4.39c1.64-0.04,2.74,0.74,2.37,2.37c-0.66,2.94-1.72,7.23-2.98,11.41" stroke-dasharray="44.595" stroke-dashoffset="44.595"><animate attributeName="stroke-dashoffset" values="44.595" fill="freeze" begin="5274.click" /><animate attributeName="stroke-dashoffset" values="44.595;44.595;0" keyTimes="0;0.768;1" dur="1.924s" fill="freeze" begin="0s;5274.click" /></path><path d="M25.82,68.83c5.43-0.83,18.93-3.33,26.4-3.57" stroke-dasharray="26.656" stroke-dashoffset="26.656"><animate attributeName="stroke-dashoffset" values="26.656" fill="freeze" begin="5274.click" /><animate attributeName="stroke-dashoffset" values="26.656;26.656;0" keyTimes="0;0.878;1" dur="2.191s" fill="freeze" begin="0s;5274.click" /></path><path d="M25,74.42c1.7,2.11,4.38,8.68,4.81,11.97" stroke-dasharray="12.99" stroke-dashoffset="12.99"><animate attributeName="stroke-dashoffset" values="12.99" fill="freeze" begin="5274.click" /><animate attributeName="stroke-dashoffset" values="12.99;12.99;0" keyTimes="0;0.894;1" dur="2.451s" fill="freeze" begin="0s;5274.click" /></path><path d="M49.11,69.56c0.02,0.31,0.03,0.81-0.03,1.26c-0.35,2.66-2.35,8.49-5.09,12.06" stroke-dasharray="14.462" stroke-dashoffset="14.462"><animate attributeName="stroke-dashoffset" values="14.462" fill="freeze" begin="5274.click" /><animate attributeName="stroke-dashoffset" values="14.462;14.462;0" keyTimes="0;0.895;1" dur="2.74s" fill="freeze" begin="0s;5274.click" /></path><path d="M17.38,92.66c1.54,0.85,3.5,1.26,4.49,0.92c16.18-5.59,27.15-9.43,35.94-11.98" stroke-dasharray="42.572" stroke-dashoffset="42.572"><animate attributeName="stroke-dashoffset" values="42.572" fill="freeze" begin="5274.click" /><animate attributeName="stroke-dashoffset" values="42.572;42.572;0" keyTimes="0;0.865;1" dur="3.166s" fill="freeze" begin="0s;5274.click" /></path><path d="M70.27,25.33c0.98,0.92,1.67,1.99,1.76,5.02C72.42,44.91,72,61.54,72,66.5" stroke-dasharray="41.639" stroke-dashoffset="41.639"><animate attributeName="stroke-dashoffset" values="41.639" fill="freeze" begin="5274.click" /><animate attributeName="stroke-dashoffset" values="41.639;41.639;0" keyTimes="0;0.884;1" dur="3.582s" fill="freeze" begin="0s;5274.click" /></path><path d="M89.27,14.83c0.98,0.92,1.67,1.99,1.76,5.02c0.4,14.55-0.26,63.66-0.26,68.62c0,13.14-7.21,1.5-8.71,0.25" stroke-dasharray="90.242" stroke-dashoffset="90.242"><animate attributeName="stroke-dashoffset" values="90.242" fill="freeze" begin="5274.click" /><animate attributeName="stroke-dashoffset" values="90.242;90.242;0" keyTimes="0;0.841;1" dur="4.261s" fill="freeze" begin="0s;5274.click" /></path></g></svg>