<svg xmlns="http://www.w3.org/2000/svg" viewBox="0 0 109 109" id="5275"><g fill="none" stroke="#666" stroke-width="6" stroke-linecap="round" stroke-linejoin="round"><g><g p4:phon="倉" xmlns:p4="http://kanjivg.tagaini.net"><g><path d="M39.52,12.75c0.07,0.93,0.13,1.98-0.4,3.24c-4,9.63-11.63,23.13-26.63,35.07" /><path d="M41.75,18.88c5.09,2.2,10.6,5.25,14.5,11.12" /></g><g><path d="M32.42,35.05c0.83,0.2,1.67,0.14,2.63-0.01c4.32-0.67,8.06-1.45,11.21-1.98c0.98-0.17,2.77-0.27,3.24-0.27" /><path d="M26.27,45.15c0.73,0.35,2.21,0.52,3.71,0.29c5.14-0.79,15.85-2.18,20.28-2.74c3.11-0.39,4.8,0.2,4.3,3.79c-0.41,2.87-1.23,7.92-2.1,13.26c-0.22,1.38-0.47,1.88-0.85,4.39" /><path d="M28.59,55.31c5.91-0.68,17.16-2.06,23.97-2.6" /><path d="M26.85,65.41c6.15-1.03,15.52-2.53,24.04-2.92" /><path d="M27.28,46.16c0.5,0.75,0.84,1.67,0.63,3.28C26.12,63.25,23,80.5,13.52,92.33" /><g><path d="M27.74,76.26c0.73,0.68,1.4,1.77,1.5,2.77c0.84,2.9,1.43,7.11,2.25,11.22c0.25,1.22,0.45,2.41,0.6,3.5" /><path d="M29.67,77.2c5.82-0.94,16.95-2.83,22.14-3.57c3.1-0.44,4.13,0.07,3.43,3.38c-0.69,3.28-1.49,6.49-2.46,10.62" /><path d="M32.99,91.2c4.58-0.49,12.26-1.44,17.76-2.18c1.32-0.18,2.37-0.21,3.59-0.21" /></g></g></g><g><path d="M69.27,31.83c0.95,0.95,1.51,2.42,1.51,4.52c0,7.4-0.01,16.82-0.02,22.9c0,2.26,0,4.16,0,5.5" /><path d="M90.02,15.83c1.45,1.45,1.76,3.04,1.76,5.27c0,18.9-0.01,61.91-0.01,66.87c0,13.14-7.21,1.5-8.71,0.25" /></g></g></g><g fill="none" stroke="#000" stroke-width="3" stroke-linecap="round" stroke-linejoin="round"><path d="M39.52,12.75c0.07,0.93,0.13,1.98-0.4,3.24c-4,9.63-11.63,23.13-26.63,35.07" stroke-dasharray="47.813" stroke-dashoffset="47.813"><animate attributeName="stroke-dashoffset" values="47.813;47.813;0" dur="0.478s" fill="freeze" begin="0s;5275.click" /></path><path d="M41.75,18.88c5.09,2.2,10.6,5.25,14.5,11.12" stroke-dasharray="18.549" stroke-dashoffset="18.549"><animate attributeName="stroke-dashoffset" values="18.549" fill="freeze" begin="5275.click" /><animate attributeName="stroke-dashoffset" values="18.549;18.549;0" keyTimes="0;0.721;1" dur="0.663s" fill="freeze" begin="0s;5275.click" /></path><path d="M32.42,35.05c0.83,0.2,1.67,0.14,2.63-0.01c4.32-0.67,8.06-1.45,11.21-1.98c0.98-0.17,2.77-0.27,3.24-0.27" stroke-dasharray="17.286" stroke-dashoffset="17.286"><animate attributeName="stroke-dashoffset" values="17.286" fill="freeze" begin="5275.click" /><animate attributeName="stroke-dashoffset" values="17.286;17.286;0" keyTimes="0;0.793;1" dur="0.836s" fill="freeze" begin="0s;5275.click" /></path><path d="M26.27,45.15c0.73,0.35,2.21,0.52,3.71,0.29c5.14-0.79,15.85-2.18,20.28-2.74c3.11-0.39,4.8,0.2,4.3,3.79c-0.41,2.87-1.23,7.92-2.1,13.26c-0.22,1.38-0.47,1.88-0.85,4.39" stroke-dasharray="49.389" stroke-dashoffset="49.389"><animate attributeName="stroke-dashoffset" values="49.389" fill="freeze" begin="5275.click" /><animate attributeName="stroke-dashoffset" values="49.389;49.389;0" keyTimes="0;0.629;1" dur="1.33s" fill="freeze" begin="0s;5275.click" /></path><path d="M28.59,55.31c5.91-0.68,17.16-2.06,23.97-2.6" stroke-dasharray="24.113" stroke-dashoffset="24.113"><animate attributeName="stroke-dashoffset" values="24.113" fill="freeze" begin="5275.click" /><animate attributeName="stroke-dashoffset" values="24.113;24.113;0" keyTimes="0;0.847;1" dur="1.571s" fill="freeze" begin="0s;5275.click" /></path><path d="M26.85,65.41c6.15-1.03,15.52-2.53,24.04-2.92" stroke-dasharray="24.232" stroke-dashoffset="24.232"><animate attributeName="stroke-dashoffset" values="24.232" fill="freeze" begin="5275.click" /><animate attributeName="stroke-dashoffset" values="24.232;24.232;0" keyTimes="0;0.867;1" dur="1.813s" fill="freeze" begin="0s;5275.click" /></path><path d="M27.28,46.16c0.5,0.75,0.84,1.67,0.63,3.28C26.12,63.25,23,80.5,13.52,92.33" stroke-dasharray="49.221" stroke-dashoffset="49.221"><animate attributeName="stroke-dashoffset" values="49.221" fill="freeze" begin="5275.click" /><animate attributeName="stroke-dashoffset" values="49.221;49.221;0" keyTimes="0;0.787;1" dur="2.305s" fill="freeze" begin="0s;5275.click" /></path><path d="M27.74,76.26c0.73,0.68,1.4,1.77,1.5,2.77c0.84,2.9,1.43,7.11,2.25,11.22c0.25,1.22,0.45,2.41,0.6,3.5" stroke-dasharray="18.211" stroke-dashoffset="18.211"><animate attributeName="stroke-dashoffset" values="18.211" fill="freeze" begin="5275.click" /><animate attributeName="stroke-dashoffset" values="18.211;18.211;0" keyTimes="0;0.927;1" dur="2.487s" fill="freeze" begin="0s;5275.click" /></path><path d="M29.67,77.2c5.82-0.94,16.95-2.83,22.14-3.57c3.1-0.44,4.13,0.07,3.43,3.38c-0.69,3.28-1.49,6.49-2.46,10.62" stroke-dasharray="39.811" stroke-dashoffset="39.811"><animate attributeName="stroke-dashoffset" values="39.811" fill="freeze" begin="5275.click" /><animate attributeName="stroke-dashoffset" values="39.811;39.811;0" keyTimes="0;0.862;1" dur="2.885s" fill="freeze" begin="0s;5275.click" /></path><path d="M32.99,91.2c4.58-0.49,12.26-1.44,17.76-2.18c1.32-0.18,2.37-0.21,3.59-0.21" stroke-dasharray="21.494" stroke-dashoffset="21.494"><animate attributeName="stroke-dashoffset" values="21.494" fill="freeze" begin="5275.click" /><animate attributeName="stroke-dashoffset" values="21.494;21.494;0" keyTimes="0;0.931;1" dur="3.1s" fill="freeze" begin="0s;5275.click" /></path><path d="M69.27,31.83c0.95,0.95,1.51,2.42,1.51,4.52c0,7.4-0.01,16.82-0.02,22.9c0,2.26,0,4.16,0,5.5" stroke-dasharray="33.293" stroke-dashoffset="33.293"><animate attributeName="stroke-dashoffset" values="33.293" fill="freeze" begin="5275.click" /><animate attributeName="stroke-dashoffset" values="33.293;33.293;0" keyTimes="0;0.903;1" dur="3.433s" fill="freeze" begin="0s;5275.click" /></path><path d="M90.02,15.83c1.45,1.45,1.76,3.04,1.76,5.27c0,18.9-0.01,61.91-0.01,66.87c0,13.14-7.21,1.5-8.71,0.25" stroke-dasharray="88.732" stroke-dashoffset="88.732"><animate attributeName="stroke-dashoffset" values="88.732" fill="freeze" begin="5275.click" /><animate attributeName="stroke-dashoffset" values="88.732;88.732;0" keyTimes="0;0.837;1" dur="4.1s" fill="freeze" begin="0s;5275.click" /></path></g></svg>