<svg xmlns="http://www.w3.org/2000/svg" viewBox="0 0 109 109" id="5289"><g fill="none" stroke="#666" stroke-width="6" stroke-linecap="round" stroke-linejoin="round"><g><g><g><g><path d="M32.56,12.91c0.03,0.24,0.13,0.69-0.07,0.96c-2.49,3.38-6.18,6.48-12.69,9.2" /><path d="M16.87,24.16c0.49,0.3,0.79,1.37,0.89,1.97c0.1,0.61,0.21,13.74,0.1,15.25c-0.1,1.37-0.89,3.95,0.3,2.89c1.18-1.06,9.38-7.71,13.78-10.21" /><g><path d="M27.04,27.84c3.86,2.45,6.32,6.08,7.79,9.65" /></g></g><g><path d="M40.51,20.08c0.86,0.31,2.4,0.27,3.15,0.17c6.14-0.87,13.56-2.55,16.96-2.87c2.21-0.21,2.77,1.8,2.64,3.26c-0.33,3.85-4.05,17.24-7.07,21.66c-2.19,3.21-3.46,2.18-5.12,0.1" /><path d="M50.15,22.68c0.03,0.4,0.19,1.09-0.06,1.62c-2.84,5.96-5.34,10.21-10.24,16.44" /></g></g><g><g><path d="M37.2,44.74c0,0.67,0.06,1.21-0.19,2.02c-1.32,4.21-13.83,18.27-24.54,24.5" /><path d="M39.17,48.4c7.26,1.77,16.54,6.48,20.08,10.93" /></g><g><path d="M26.48,64.58c1.73,0,2.52,0.13,3.07,0.04C35,63.75,44,61.5,48.17,60.86c0.84-0.13,1.03-0.04,2.47-0.04" /><path d="M20.6,74.87c0.68,0.24,2.95,0.35,3.65,0.31C30.57,74.83,44,71.5,52.47,70.4c0.85-0.11,2.74-0.1,4.02,0.11" /><path d="M37.2,65.02c1.43,0.56,1.43,1.81,1.43,2.26c0,3.12,0.72,22.74,0.36,25.87" /><path d="M22.12,81.52c4.29,2.9,6.39,6.04,7.27,7.73" /><path d="M51.9,76.17c0.33,0.95,0.5,2.33,0.37,3.13c-0.33,2.06-2.9,5.82-6.55,11.88" /><path d="M19,96.91c1.75,1.34,2.25,1.34,5.18,0.68c1.45-0.33,13.88-3.42,28.85-7.73" /></g></g></g><g><path d="M72.77,27.33c0.98,0.92,1.67,1.99,1.76,5.02C74.92,46.91,74.5,67.04,74.5,72" /><path d="M89.77,13.83c0.98,0.92,1.67,1.99,1.76,5.02c0.4,14.55-0.26,66.16-0.26,71.12c0,13.14-7.21,1.5-8.71,0.25" /></g></g></g><g fill="none" stroke="#000" stroke-width="3" stroke-linecap="round" stroke-linejoin="round"><path d="M32.56,12.91c0.03,0.24,0.13,0.69-0.07,0.96c-2.49,3.38-6.18,6.48-12.69,9.2" stroke-dasharray="16.862" stroke-dashoffset="16.862"><animate attributeName="stroke-dashoffset" values="16.862;16.862;0" dur="0.169s" fill="freeze" begin="0s;5289.click" /></path><path d="M16.87,24.16c0.49,0.3,0.79,1.37,0.89,1.97c0.1,0.61,0.21,13.74,0.1,15.25c-0.1,1.37-0.89,3.95,0.3,2.89c1.18-1.06,9.38-7.71,13.78-10.21" stroke-dasharray="38.407" stroke-dashoffset="38.407"><animate attributeName="stroke-dashoffset" values="38.407" fill="freeze" begin="5289.click" /><animate attributeName="stroke-dashoffset" values="38.407;38.407;0" keyTimes="0;0.306;1" dur="0.553s" fill="freeze" begin="0s;5289.click" /></path><path d="M27.04,27.84c3.86,2.45,6.32,6.08,7.79,9.65" stroke-dasharray="12.602" stroke-dashoffset="12.602"><animate attributeName="stroke-dashoffset" values="12.602" fill="freeze" begin="5289.click" /><animate attributeName="stroke-dashoffset" values="12.602;12.602;0" keyTimes="0;0.687;1" dur="0.805s" fill="freeze" begin="0s;5289.click" /></path><path d="M40.51,20.08c0.86,0.31,2.4,0.27,3.15,0.17c6.14-0.87,13.56-2.55,16.96-2.87c2.21-0.21,2.77,1.8,2.64,3.26c-0.33,3.85-4.05,17.24-7.07,21.66c-2.19,3.21-3.46,2.18-5.12,0.1" stroke-dasharray="54.899" stroke-dashoffset="54.899"><animate attributeName="stroke-dashoffset" values="54.899" fill="freeze" begin="5289.click" /><animate attributeName="stroke-dashoffset" values="54.899;54.899;0" keyTimes="0;0.595;1" dur="1.354s" fill="freeze" begin="0s;5289.click" /></path><path d="M50.15,22.68c0.03,0.4,0.19,1.09-0.06,1.62c-2.84,5.96-5.34,10.21-10.24,16.44" stroke-dasharray="21.06" stroke-dashoffset="21.06"><animate attributeName="stroke-dashoffset" values="21.06" fill="freeze" begin="5289.click" /><animate attributeName="stroke-dashoffset" values="21.06;21.06;0" keyTimes="0;0.865;1" dur="1.565s" fill="freeze" begin="0s;5289.click" /></path><path d="M37.2,44.74c0,0.67,0.06,1.21-0.19,2.02c-1.32,4.21-13.83,18.27-24.54,24.5" stroke-dasharray="37.076" stroke-dashoffset="37.076"><animate attributeName="stroke-dashoffset" values="37.076" fill="freeze" begin="5289.click" /><animate attributeName="stroke-dashoffset" values="37.076;37.076;0" keyTimes="0;0.808;1" dur="1.936s" fill="freeze" begin="0s;5289.click" /></path><path d="M39.17,48.4c7.26,1.77,16.54,6.48,20.08,10.93" stroke-dasharray="23.17" stroke-dashoffset="23.17"><animate attributeName="stroke-dashoffset" values="23.17" fill="freeze" begin="5289.click" /><animate attributeName="stroke-dashoffset" values="23.17;23.17;0" keyTimes="0;0.893;1" dur="2.168s" fill="freeze" begin="0s;5289.click" /></path><path d="M26.48,64.58c1.73,0,2.52,0.13,3.07,0.04C35,63.75,44,61.5,48.17,60.86c0.84-0.13,1.03-0.04,2.47-0.04" stroke-dasharray="24.546" stroke-dashoffset="24.546"><animate attributeName="stroke-dashoffset" values="24.546" fill="freeze" begin="5289.click" /><animate attributeName="stroke-dashoffset" values="24.546;24.546;0" keyTimes="0;0.898;1" dur="2.413s" fill="freeze" begin="0s;5289.click" /></path><path d="M20.6,74.87c0.68,0.24,2.95,0.35,3.65,0.31C30.57,74.83,44,71.5,52.47,70.4c0.85-0.11,2.74-0.1,4.02,0.11" stroke-dasharray="36.34" stroke-dashoffset="36.34"><animate attributeName="stroke-dashoffset" values="36.34" fill="freeze" begin="5289.click" /><animate attributeName="stroke-dashoffset" values="36.34;36.34;0" keyTimes="0;0.869;1" dur="2.776s" fill="freeze" begin="0s;5289.click" /></path><path d="M37.2,65.02c1.43,0.56,1.43,1.81,1.43,2.26c0,3.12,0.72,22.74,0.36,25.87" stroke-dasharray="28.754" stroke-dashoffset="28.754"><animate attributeName="stroke-dashoffset" values="28.754" fill="freeze" begin="5289.click" /><animate attributeName="stroke-dashoffset" values="28.754;28.754;0" keyTimes="0;0.906;1" dur="3.064s" fill="freeze" begin="0s;5289.click" /></path><path d="M22.12,81.52c4.29,2.9,6.39,6.04,7.27,7.73" stroke-dasharray="10.717" stroke-dashoffset="10.717"><animate attributeName="stroke-dashoffset" values="10.717" fill="freeze" begin="5289.click" /><animate attributeName="stroke-dashoffset" values="10.717;10.717;0" keyTimes="0;0.935;1" dur="3.278s" fill="freeze" begin="0s;5289.click" /></path><path d="M51.9,76.17c0.33,0.95,0.5,2.33,0.37,3.13c-0.33,2.06-2.9,5.82-6.55,11.88" stroke-dasharray="16.787" stroke-dashoffset="16.787"><animate attributeName="stroke-dashoffset" values="16.787" fill="freeze" begin="5289.click" /><animate attributeName="stroke-dashoffset" values="16.787;16.787;0" keyTimes="0;0.951;1" dur="3.446s" fill="freeze" begin="0s;5289.click" /></path><path d="M19,96.91c1.75,1.34,2.25,1.34,5.18,0.68c1.45-0.33,13.88-3.42,28.85-7.73" stroke-dasharray="35.384" stroke-dashoffset="35.384"><animate attributeName="stroke-dashoffset" values="35.384" fill="freeze" begin="5289.click" /><animate attributeName="stroke-dashoffset" values="35.384;35.384;0" keyTimes="0;0.907;1" dur="3.8s" fill="freeze" begin="0s;5289.click" /></path><path d="M72.77,27.33c0.98,0.92,1.67,1.99,1.76,5.02C74.92,46.91,74.5,67.04,74.5,72" stroke-dasharray="45.139" stroke-dashoffset="45.139"><animate attributeName="stroke-dashoffset" values="45.139" fill="freeze" begin="5289.click" /><animate attributeName="stroke-dashoffset" values="45.139;45.139;0" keyTimes="0;0.894;1" dur="4.251s" fill="freeze" begin="0s;5289.click" /></path><path d="M89.77,13.83c0.98,0.92,1.67,1.99,1.76,5.02c0.4,14.55-0.26,66.16-0.26,71.12c0,13.14-7.21,1.5-8.71,0.25" stroke-dasharray="92.742" stroke-dashoffset="92.742"><animate attributeName="stroke-dashoffset" values="92.742" fill="freeze" begin="5289.click" /><animate attributeName="stroke-dashoffset" values="92.742;92.742;0" keyTimes="0;0.859;1" dur="4.948s" fill="freeze" begin="0s;5289.click" /></path></g></svg>