<svg xmlns="http://www.w3.org/2000/svg" viewBox="0 0 109 109" id="52c1"><g fill="none" stroke="#666" stroke-width="6" stroke-linecap="round" stroke-linejoin="round"><g><g><g><path d="M13.5,21.39c2.34,0.95,5.46,0.49,7.88,0.24c7.34-0.75,19.02-2.17,26.12-2.75c2.5-0.2,5.04-0.47,7.5,0.13" /></g><g><path d="M22.23,30.27c0.27,1.11,0.12,2.1-0.1,2.72c-1.25,3.63-2.24,6.44-5.12,9.75c-1.37,1.57-1.38,2.48,0.26,3.49c2.1,1.3,3.42,2.5,4.78,4.35c0.97,1.32,1.82,2.85,2.66,4.66" /><path d="M35.73,27.77c0.27,0.98,0.12,2.1-0.1,2.72c-1.24,3.62-2.51,6.26-5.8,10.2c-0.91,1.09-1.33,2.06-0.02,2.97c2.38,1.65,4.46,3.54,5.99,5.64c0.8,1.1,1.45,2.25,1.91,3.45" /><path d="M50.23,26.52c0.4,0.98,0.18,2.12-0.1,2.72c-1.36,2.94-2.71,4.86-5.59,8.52c-1.38,1.76-1.67,1.59-0.07,2.9c2.36,1.94,4.29,3.98,5.69,6.04c0.92,1.36,1.62,2.72,2.05,4.06" /></g><g><path d="M15,62c2.38,0.62,4.77,0.48,6.62,0.23c7.38-0.98,17.63-2.1,25.13-3.32c1.49-0.24,3.38-0.41,5.5-0.16" /><path d="M32.57,62.52c1.02,1.02,1.23,1.98,1.23,3.73c0,5.95-0.05,9.43-0.05,15.75" /><path d="M14.75,87.51c1,0.87,1.97,1.16,3.9,0.51c7.85-2.65,19.1-6.52,29.85-10.27" /></g></g><g><path d="M56.15,35.81c2.06,1.24,5.79,0.44,8,0.03c7.99-1.47,18.92-3.06,24.37-3.87c4.11-0.62,5.82,0.26,5.49,4.62C93,50,85.88,78.88,79.85,88.76c-4.32,7.09-6.35,1.49-8.43-0.74" /><path d="M73.9,13.88c0.6,1.37,0.73,2.31,0.6,5C73.5,39,68,73.5,47.22,93.17" /></g></g></g><g fill="none" stroke="#000" stroke-width="3" stroke-linecap="round" stroke-linejoin="round"><path d="M13.5,21.39c2.34,0.95,5.46,0.49,7.88,0.24c7.34-0.75,19.02-2.17,26.12-2.75c2.5-0.2,5.04-0.47,7.5,0.13" stroke-dasharray="41.765" stroke-dashoffset="41.765"><animate attributeName="stroke-dashoffset" values="41.765;41.765;0" dur="0.418s" fill="freeze" begin="0s;52c1.click" /></path><path d="M22.23,30.27c0.27,1.11,0.12,2.1-0.1,2.72c-1.25,3.63-2.24,6.44-5.12,9.75c-1.37,1.57-1.38,2.48,0.26,3.49c2.1,1.3,3.42,2.5,4.78,4.35c0.97,1.32,1.82,2.85,2.66,4.66" stroke-dasharray="30.051" stroke-dashoffset="30.051"><animate attributeName="stroke-dashoffset" values="30.051" fill="freeze" begin="52c1.click" /><animate attributeName="stroke-dashoffset" values="30.051;30.051;0" keyTimes="0;0.581;1" dur="0.719s" fill="freeze" begin="0s;52c1.click" /></path><path d="M35.73,27.77c0.27,0.98,0.12,2.1-0.1,2.72c-1.24,3.62-2.51,6.26-5.8,10.2c-0.91,1.09-1.33,2.06-0.02,2.97c2.38,1.65,4.46,3.54,5.99,5.64c0.8,1.1,1.45,2.25,1.91,3.45" stroke-dasharray="30.313" stroke-dashoffset="30.313"><animate attributeName="stroke-dashoffset" values="30.313" fill="freeze" begin="52c1.click" /><animate attributeName="stroke-dashoffset" values="30.313;30.313;0" keyTimes="0;0.704;1" dur="1.022s" fill="freeze" begin="0s;52c1.click" /></path><path d="M50.23,26.52c0.4,0.98,0.18,2.12-0.1,2.72c-1.36,2.94-2.71,4.86-5.59,8.52c-1.38,1.76-1.67,1.59-0.07,2.9c2.36,1.94,4.29,3.98,5.69,6.04c0.92,1.36,1.62,2.72,2.05,4.06" stroke-dasharray="29.636" stroke-dashoffset="29.636"><animate attributeName="stroke-dashoffset" values="29.636" fill="freeze" begin="52c1.click" /><animate attributeName="stroke-dashoffset" values="29.636;29.636;0" keyTimes="0;0.775;1" dur="1.318s" fill="freeze" begin="0s;52c1.click" /></path><path d="M15,62c2.38,0.62,4.77,0.48,6.62,0.23c7.38-0.98,17.63-2.1,25.13-3.32c1.49-0.24,3.38-0.41,5.5-0.16" stroke-dasharray="37.537" stroke-dashoffset="37.537"><animate attributeName="stroke-dashoffset" values="37.537" fill="freeze" begin="52c1.click" /><animate attributeName="stroke-dashoffset" values="37.537;37.537;0" keyTimes="0;0.778;1" dur="1.693s" fill="freeze" begin="0s;52c1.click" /></path><path d="M32.57,62.52c1.02,1.02,1.23,1.98,1.23,3.73c0,5.95-0.05,9.43-0.05,15.75" stroke-dasharray="19.808" stroke-dashoffset="19.808"><animate attributeName="stroke-dashoffset" values="19.808" fill="freeze" begin="52c1.click" /><animate attributeName="stroke-dashoffset" values="19.808;19.808;0" keyTimes="0;0.895;1" dur="1.891s" fill="freeze" begin="0s;52c1.click" /></path><path d="M14.75,87.51c1,0.87,1.97,1.16,3.9,0.51c7.85-2.65,19.1-6.52,29.85-10.27" stroke-dasharray="35.738" stroke-dashoffset="35.738"><animate attributeName="stroke-dashoffset" values="35.738" fill="freeze" begin="52c1.click" /><animate attributeName="stroke-dashoffset" values="35.738;35.738;0" keyTimes="0;0.841;1" dur="2.248s" fill="freeze" begin="0s;52c1.click" /></path><path d="M56.15,35.81c2.06,1.24,5.79,0.44,8,0.03c7.99-1.47,18.92-3.06,24.37-3.87c4.11-0.62,5.82,0.26,5.49,4.62C93,50,85.88,78.88,79.85,88.76c-4.32,7.09-6.35,1.49-8.43-0.74" stroke-dasharray="108.003" stroke-dashoffset="108.003"><animate attributeName="stroke-dashoffset" values="108.003" fill="freeze" begin="52c1.click" /><animate attributeName="stroke-dashoffset" values="108.003;108.003;0" keyTimes="0;0.735;1" dur="3.06s" fill="freeze" begin="0s;52c1.click" /></path><path d="M73.9,13.88c0.6,1.37,0.73,2.31,0.6,5C73.5,39,68,73.5,47.22,93.17" stroke-dasharray="86.044" stroke-dashoffset="86.044"><animate attributeName="stroke-dashoffset" values="86.044" fill="freeze" begin="52c1.click" /><animate attributeName="stroke-dashoffset" values="86.044;86.044;0" keyTimes="0;0.825;1" dur="3.707s" fill="freeze" begin="0s;52c1.click" /></path></g></svg>