<svg xmlns="http://www.w3.org/2000/svg" viewBox="0 0 109 109" id="52c5"><g fill="none" stroke="#666" stroke-width="6" stroke-linecap="round" stroke-linejoin="round"><g><g><g><path d="M15.75,28.54c2.25,0.71,4.12,0.51,6.26,0.22c6.55-0.9,17-3.01,25.88-3.52c1.72-0.1,3.74-0.11,5.28,0.13" /></g><g><path d="M17.21,40.9c0.7,0.7,1.13,1.76,1.38,2.57c0.84,2.71,1.73,6.34,2.54,10.6c0.28,1.49,0.53,2.98,0.71,4.37" /><path d="M18.77,41.9c7.71-1.39,28.05-4.79,31.07-5.11c1.88-0.2,3.06,1.58,2.57,3.43c-1.33,4.97-1.4,6.67-2.45,10.47" /><path d="M22.49,55.05C31,54,40.73,52.94,48.01,52.06c1.4-0.17,2.68-0.31,3.8-0.41" /></g><g><path d="M34.2,14c1.21,1.21,1.48,2.62,1.48,3.72c0,0.83,0.01,46.78,0.01,68.04c0,4.73-0.06,6.87-0.06,8.99" /><path d="M34.62,55.55c0,1.2-0.66,2.61-1.34,3.96c-4.29,8.56-11.1,17.98-19.51,24.29" /><path d="M38.62,61.62c5,2.5,10.24,7.14,13.1,11.94" /></g></g><g><path d="M60.17,39.15c1.82,1.02,4.44,0.69,6.44,0.41C75.2,38.36,84.19,37.1,89,36.4c3.58-0.51,5.21,0.71,5.01,4.48c-0.45,8.28-7.55,41.04-11.59,47.22c-4.17,6.4-7.18,0.16-8.25-0.67" /><path d="M75.49,16.68c0.89,1.2,0.93,2.19,0.77,4.15C74.62,40.75,66.88,76,49.39,92.02" /></g></g></g><g fill="none" stroke="#000" stroke-width="3" stroke-linecap="round" stroke-linejoin="round"><path d="M15.75,28.54c2.25,0.71,4.12,0.51,6.26,0.22c6.55-0.9,17-3.01,25.88-3.52c1.72-0.1,3.74-0.11,5.28,0.13" stroke-dasharray="37.744" stroke-dashoffset="37.744"><animate attributeName="stroke-dashoffset" values="37.744;37.744;0" dur="0.377s" fill="freeze" begin="0s;52c5.click" /></path><path d="M17.21,40.9c0.7,0.7,1.13,1.76,1.38,2.57c0.84,2.71,1.73,6.34,2.54,10.6c0.28,1.49,0.53,2.98,0.71,4.37" stroke-dasharray="18.279" stroke-dashoffset="18.279"><animate attributeName="stroke-dashoffset" values="18.279" fill="freeze" begin="52c5.click" /><animate attributeName="stroke-dashoffset" values="18.279;18.279;0" keyTimes="0;0.673;1" dur="0.56s" fill="freeze" begin="0s;52c5.click" /></path><path d="M18.77,41.9c7.71-1.39,28.05-4.79,31.07-5.11c1.88-0.2,3.06,1.58,2.57,3.43c-1.33,4.97-1.4,6.67-2.45,10.47" stroke-dasharray="47.332" stroke-dashoffset="47.332"><animate attributeName="stroke-dashoffset" values="47.332" fill="freeze" begin="52c5.click" /><animate attributeName="stroke-dashoffset" values="47.332;47.332;0" keyTimes="0;0.542;1" dur="1.033s" fill="freeze" begin="0s;52c5.click" /></path><path d="M22.49,55.05C31,54,40.73,52.94,48.01,52.06c1.4-0.17,2.68-0.31,3.8-0.41" stroke-dasharray="29.518" stroke-dashoffset="29.518"><animate attributeName="stroke-dashoffset" values="29.518" fill="freeze" begin="52c5.click" /><animate attributeName="stroke-dashoffset" values="29.518;29.518;0" keyTimes="0;0.778;1" dur="1.328s" fill="freeze" begin="0s;52c5.click" /></path><path d="M34.2,14c1.21,1.21,1.48,2.62,1.48,3.72c0,0.83,0.01,46.78,0.01,68.04c0,4.73-0.06,6.87-0.06,8.99" stroke-dasharray="81.146" stroke-dashoffset="81.146"><animate attributeName="stroke-dashoffset" values="81.146" fill="freeze" begin="52c5.click" /><animate attributeName="stroke-dashoffset" values="81.146;81.146;0" keyTimes="0;0.685;1" dur="1.938s" fill="freeze" begin="0s;52c5.click" /></path><path d="M34.62,55.55c0,1.2-0.66,2.61-1.34,3.96c-4.29,8.56-11.1,17.98-19.51,24.29" stroke-dasharray="35.635" stroke-dashoffset="35.635"><animate attributeName="stroke-dashoffset" values="35.635" fill="freeze" begin="52c5.click" /><animate attributeName="stroke-dashoffset" values="35.635;35.635;0" keyTimes="0;0.845;1" dur="2.294s" fill="freeze" begin="0s;52c5.click" /></path><path d="M38.62,61.62c5,2.5,10.24,7.14,13.1,11.94" stroke-dasharray="17.941" stroke-dashoffset="17.941"><animate attributeName="stroke-dashoffset" values="17.941" fill="freeze" begin="52c5.click" /><animate attributeName="stroke-dashoffset" values="17.941;17.941;0" keyTimes="0;0.928;1" dur="2.473s" fill="freeze" begin="0s;52c5.click" /></path><path d="M60.17,39.15c1.82,1.02,4.44,0.69,6.44,0.41C75.2,38.36,84.19,37.1,89,36.4c3.58-0.51,5.21,0.71,5.01,4.48c-0.45,8.28-7.55,41.04-11.59,47.22c-4.17,6.4-7.18,0.16-8.25-0.67" stroke-dasharray="97.009" stroke-dashoffset="97.009"><animate attributeName="stroke-dashoffset" values="97.009" fill="freeze" begin="52c5.click" /><animate attributeName="stroke-dashoffset" values="97.009;97.009;0" keyTimes="0;0.772;1" dur="3.202s" fill="freeze" begin="0s;52c5.click" /></path><path d="M75.49,16.68c0.89,1.2,0.93,2.19,0.77,4.15C74.62,40.75,66.88,76,49.39,92.02" stroke-dasharray="81.887" stroke-dashoffset="81.887"><animate attributeName="stroke-dashoffset" values="81.887" fill="freeze" begin="52c5.click" /><animate attributeName="stroke-dashoffset" values="81.887;81.887;0" keyTimes="0;0.839;1" dur="3.818s" fill="freeze" begin="0s;52c5.click" /></path></g></svg>