<svg xmlns="http://www.w3.org/2000/svg" viewBox="0 0 109 109" id="52d7"><g fill="none" stroke="#666" stroke-width="6" stroke-linecap="round" stroke-linejoin="round"><g><g><path d="M27.16,15.24c0.36,0.38,0.87,1.14,1.07,1.62c1.56,3.76,3.63,13.72,4.65,21.1" /><path d="M29.34,16.27c12.56-0.99,37.09-3.66,46.47-4.48c3.44-0.31,4.21,2.77,4.03,3.85c-0.65,3.95-2.84,13.12-5.82,20.29" /><path d="M31.18,26.39c4.09-0.38,40.07-2.89,46.42-3.37" /><path d="M33.02,36.89c9.04-0.42,29-2.17,41.49-2.86" /></g><g><g><g><path d="M23.15,46.68c0.5,0.74,0.83,1.46,1,2.18c0.17,0.72,0.37,41.51,0.31,43.1" /><path d="M24.43,49.38c1.68-0.06,18.1-2.81,19.35-2.92c2.24-0.19,3.1,2.13,2.82,3.02c-0.27,0.86-0.13,19.62-0.21,31.86" /><path d="M24.49,62.22c5.76-0.72,14.26-2.42,21.68-3.03" /><path d="M24.83,75.03C31,74.16,40,72,46.3,71.36" /></g><g><path d="M16.25,93.18c1.22,1.49,1.95,1.43,4.62,0.49c1.9-0.67,20.91-8.19,28.88-11.87" /></g></g><g><path d="M53.83,54.41c1.07,0.47,2.94,0.4,3.91,0.25c8.77-1.26,22.3-3.84,26.64-4.32c2.83-0.32,4.93,1.42,4.73,3.64C88,65.75,83.5,82.5,77.43,93.51c-2.3,4.16-5.43,2.49-7.46-0.48" /><path d="M70.6,41.17c0.42,0.43,0.93,3.09,0.49,4.75C67.5,59.5,59.5,84.5,46.38,95.48" /></g></g></g></g><g fill="none" stroke="#000" stroke-width="3" stroke-linecap="round" stroke-linejoin="round"><path d="M27.16,15.24c0.36,0.38,0.87,1.14,1.07,1.62c1.56,3.76,3.63,13.72,4.65,21.1" stroke-dasharray="23.591" stroke-dashoffset="23.591"><animate attributeName="stroke-dashoffset" values="23.591;23.591;0" dur="0.236s" fill="freeze" begin="0s;52d7.click" /></path><path d="M29.34,16.27c12.56-0.99,37.09-3.66,46.47-4.48c3.44-0.31,4.21,2.77,4.03,3.85c-0.65,3.95-2.84,13.12-5.82,20.29" stroke-dasharray="74.26" stroke-dashoffset="74.26"><animate attributeName="stroke-dashoffset" values="74.26" fill="freeze" begin="52d7.click" /><animate attributeName="stroke-dashoffset" values="74.26;74.26;0" keyTimes="0;0.297;1" dur="0.794s" fill="freeze" begin="0s;52d7.click" /></path><path d="M31.18,26.39c4.09-0.38,40.07-2.89,46.42-3.37" stroke-dasharray="46.543" stroke-dashoffset="46.543"><animate attributeName="stroke-dashoffset" values="46.543" fill="freeze" begin="52d7.click" /><animate attributeName="stroke-dashoffset" values="46.543;46.543;0" keyTimes="0;0.631;1" dur="1.259s" fill="freeze" begin="0s;52d7.click" /></path><path d="M33.02,36.89c9.04-0.42,29-2.17,41.49-2.86" stroke-dasharray="41.59" stroke-dashoffset="41.59"><animate attributeName="stroke-dashoffset" values="41.59" fill="freeze" begin="52d7.click" /><animate attributeName="stroke-dashoffset" values="41.59;41.59;0" keyTimes="0;0.752;1" dur="1.675s" fill="freeze" begin="0s;52d7.click" /></path><path d="M23.15,46.68c0.5,0.74,0.83,1.46,1,2.18c0.17,0.72,0.37,41.51,0.31,43.1" stroke-dasharray="45.515" stroke-dashoffset="45.515"><animate attributeName="stroke-dashoffset" values="45.515" fill="freeze" begin="52d7.click" /><animate attributeName="stroke-dashoffset" values="45.515;45.515;0" keyTimes="0;0.786;1" dur="2.13s" fill="freeze" begin="0s;52d7.click" /></path><path d="M24.43,49.38c1.68-0.06,18.1-2.81,19.35-2.92c2.24-0.19,3.1,2.13,2.82,3.02c-0.27,0.86-0.13,19.62-0.21,31.86" stroke-dasharray="56.199" stroke-dashoffset="56.199"><animate attributeName="stroke-dashoffset" values="56.199" fill="freeze" begin="52d7.click" /><animate attributeName="stroke-dashoffset" values="56.199;56.199;0" keyTimes="0;0.791;1" dur="2.692s" fill="freeze" begin="0s;52d7.click" /></path><path d="M24.49,62.22c5.76-0.72,14.26-2.42,21.68-3.03" stroke-dasharray="21.896" stroke-dashoffset="21.896"><animate attributeName="stroke-dashoffset" values="21.896" fill="freeze" begin="52d7.click" /><animate attributeName="stroke-dashoffset" values="21.896;21.896;0" keyTimes="0;0.925;1" dur="2.911s" fill="freeze" begin="0s;52d7.click" /></path><path d="M24.83,75.03C31,74.16,40,72,46.3,71.36" stroke-dasharray="21.788" stroke-dashoffset="21.788"><animate attributeName="stroke-dashoffset" values="21.788" fill="freeze" begin="52d7.click" /><animate attributeName="stroke-dashoffset" values="21.788;21.788;0" keyTimes="0;0.93;1" dur="3.129s" fill="freeze" begin="0s;52d7.click" /></path><path d="M16.25,93.18c1.22,1.49,1.95,1.43,4.62,0.49c1.9-0.67,20.91-8.19,28.88-11.87" stroke-dasharray="36.354" stroke-dashoffset="36.354"><animate attributeName="stroke-dashoffset" values="36.354" fill="freeze" begin="52d7.click" /><animate attributeName="stroke-dashoffset" values="36.354;36.354;0" keyTimes="0;0.896;1" dur="3.493s" fill="freeze" begin="0s;52d7.click" /></path><path d="M53.83,54.41c1.07,0.47,2.94,0.4,3.91,0.25c8.77-1.26,22.3-3.84,26.64-4.32c2.83-0.32,4.93,1.42,4.73,3.64C88,65.75,83.5,82.5,77.43,93.51c-2.3,4.16-5.43,2.49-7.46-0.48" stroke-dasharray="88.92" stroke-dashoffset="88.92"><animate attributeName="stroke-dashoffset" values="88.92" fill="freeze" begin="52d7.click" /><animate attributeName="stroke-dashoffset" values="88.92;88.92;0" keyTimes="0;0.839;1" dur="4.162s" fill="freeze" begin="0s;52d7.click" /></path><path d="M70.6,41.17c0.42,0.43,0.93,3.09,0.49,4.75C67.5,59.5,59.5,84.5,46.38,95.48" stroke-dasharray="60.988" stroke-dashoffset="60.988"><animate attributeName="stroke-dashoffset" values="60.988" fill="freeze" begin="52d7.click" /><animate attributeName="stroke-dashoffset" values="60.988;60.988;0" keyTimes="0;0.901;1" dur="4.621s" fill="freeze" begin="0s;52d7.click" /></path></g></svg>