<svg xmlns="http://www.w3.org/2000/svg" viewBox="0 0 109 109" id="5316"><g fill="none" stroke="#666" stroke-width="6" stroke-linecap="round" stroke-linejoin="round"><g><g><path d="M37.25,20.25c0.24,1.93-0.07,4.46-0.83,6.12c-4.89,10.56-11.58,20.95-22.79,33.79" /><path d="M29.03,44.25c0.97,1.38,1.26,2.98,1.26,4.25c0,12.12,0.1,28.67-0.17,40C30.05,91.52,30,94.11,30,96" /></g><g><path d="M89.25,29.25c0,1.66-0.79,2.93-2.25,4.5c-4.62,4.98-15.38,12.5-25.5,15.98" /><path d="M56.75,15.25c1.25,1,1.75,2.65,1.75,4.21c0,3.66,0.07,36.46,0.07,54.49c0,19.3,1.18,19.87,18.93,19.87c16.25,0,17.75-1.7,17.75-11.57" /></g></g></g><g fill="none" stroke="#000" stroke-width="3" stroke-linecap="round" stroke-linejoin="round"><path d="M37.25,20.25c0.24,1.93-0.07,4.46-0.83,6.12c-4.89,10.56-11.58,20.95-22.79,33.79" stroke-dasharray="47.145" stroke-dashoffset="47.145"><animate attributeName="stroke-dashoffset" values="47.145;47.145;0" dur="0.471s" fill="freeze" begin="0s;5316.click" /></path><path d="M29.03,44.25c0.97,1.38,1.26,2.98,1.26,4.25c0,12.12,0.1,28.67-0.17,40C30.05,91.52,30,94.11,30,96" stroke-dasharray="52.006" stroke-dashoffset="52.006"><animate attributeName="stroke-dashoffset" values="52.006" fill="freeze" begin="5316.click" /><animate attributeName="stroke-dashoffset" values="52.006;52.006;0" keyTimes="0;0.475;1" dur="0.991s" fill="freeze" begin="0s;5316.click" /></path><path d="M89.25,29.25c0,1.66-0.79,2.93-2.25,4.5c-4.62,4.98-15.38,12.5-25.5,15.98" stroke-dasharray="35.494" stroke-dashoffset="35.494"><animate attributeName="stroke-dashoffset" values="35.494" fill="freeze" begin="5316.click" /><animate attributeName="stroke-dashoffset" values="35.494;35.494;0" keyTimes="0;0.736;1" dur="1.346s" fill="freeze" begin="0s;5316.click" /></path><path d="M56.75,15.25c1.25,1,1.75,2.65,1.75,4.21c0,3.66,0.07,36.46,0.07,54.49c0,19.3,1.18,19.87,18.93,19.87c16.25,0,17.75-1.7,17.75-11.57" stroke-dasharray="119.244" stroke-dashoffset="119.244"><animate attributeName="stroke-dashoffset" values="119.244" fill="freeze" begin="5316.click" /><animate attributeName="stroke-dashoffset" values="119.244;119.244;0" keyTimes="0;0.6;1" dur="2.243s" fill="freeze" begin="0s;5316.click" /></path></g></svg>