<svg xmlns="http://www.w3.org/2000/svg" viewBox="0 0 109 109" id="5321"><g fill="none" stroke="#666" stroke-width="6" stroke-linecap="round" stroke-linejoin="round"><g><g><path d="M16.63,21.23c3.09,1.1,7.07,0.6,10.26,0.24c15.24-1.72,33.69-3.46,48.86-4.06c3.7-0.15,7.48-0.12,11.13,0.66" /></g><g p4:partial xmlns:p4="http://kanjivg.tagaini.net"><path d="M34.49,35.07c2.09,0.79,5,0.45,7.13,0.23c7.55-0.77,19.09-2.25,27.01-2.86c2.39-0.18,4.94-0.52,7.3,0.06" /><path d="M54.35,35.75c1.31,1.33,1.31,2.5,1.31,4.19c0,7.45-0.01,19.01-0.01,30.95" /><path d="M37.07,53.57c2.05,0.43,4.51,0.58,6.3,0.39c6.48-0.68,16.41-1.83,23.63-2.48c2.36-0.21,4.59-0.4,6.92,0.14" /><path d="M31,73.33c2.76,0.78,5.71,0.77,8.5,0.44c12.75-1.52,23.21-2.5,36.13-3.01c2.98-0.12,5.75-0.24,8.62,0.69" /></g><g><path d="M20.77,22.63c1.06,1.06,1.24,2.45,1.23,4.25C21.92,38.78,22.01,72.25,22.01,86c0,4.68,0.26,6.41,5.11,5.79C41,90,66.5,88.38,80.75,87.98c4.13-0.11,8.74-0.23,12.75,0.77" /></g></g></g><g fill="none" stroke="#000" stroke-width="3" stroke-linecap="round" stroke-linejoin="round"><path d="M16.63,21.23c3.09,1.1,7.07,0.6,10.26,0.24c15.24-1.72,33.69-3.46,48.86-4.06c3.7-0.15,7.48-0.12,11.13,0.66" stroke-dasharray="70.57" stroke-dashoffset="70.57"><animate attributeName="stroke-dashoffset" values="70.57;70.57;0" dur="0.531s" fill="freeze" begin="0s;5321.click" /></path><path d="M34.49,35.07c2.09,0.79,5,0.45,7.13,0.23c7.55-0.77,19.09-2.25,27.01-2.86c2.39-0.18,4.94-0.52,7.3,0.06" stroke-dasharray="41.693" stroke-dashoffset="41.693"><animate attributeName="stroke-dashoffset" values="41.693" fill="freeze" begin="5321.click" /><animate attributeName="stroke-dashoffset" values="41.693;41.693;0" keyTimes="0;0.56;1" dur="0.948s" fill="freeze" begin="0s;5321.click" /></path><path d="M54.35,35.75c1.31,1.33,1.31,2.5,1.31,4.19c0,7.45-0.01,19.01-0.01,30.95" stroke-dasharray="35.493" stroke-dashoffset="35.493"><animate attributeName="stroke-dashoffset" values="35.493" fill="freeze" begin="5321.click" /><animate attributeName="stroke-dashoffset" values="35.493;35.493;0" keyTimes="0;0.728;1" dur="1.303s" fill="freeze" begin="0s;5321.click" /></path><path d="M37.07,53.57c2.05,0.43,4.51,0.58,6.3,0.39c6.48-0.68,16.41-1.83,23.63-2.48c2.36-0.21,4.59-0.4,6.92,0.14" stroke-dasharray="37.049" stroke-dashoffset="37.049"><animate attributeName="stroke-dashoffset" values="37.049" fill="freeze" begin="5321.click" /><animate attributeName="stroke-dashoffset" values="37.049;37.049;0" keyTimes="0;0.779;1" dur="1.673s" fill="freeze" begin="0s;5321.click" /></path><path d="M31,73.33c2.76,0.78,5.71,0.77,8.5,0.44c12.75-1.52,23.21-2.5,36.13-3.01c2.98-0.12,5.75-0.24,8.62,0.69" stroke-dasharray="53.531" stroke-dashoffset="53.531"><animate attributeName="stroke-dashoffset" values="53.531" fill="freeze" begin="5321.click" /><animate attributeName="stroke-dashoffset" values="53.531;53.531;0" keyTimes="0;0.758;1" dur="2.208s" fill="freeze" begin="0s;5321.click" /></path><path d="M20.77,22.63c1.06,1.06,1.24,2.45,1.23,4.25C21.92,38.78,22.01,72.25,22.01,86c0,4.68,0.26,6.41,5.11,5.79C41,90,66.5,88.38,80.75,87.98c4.13-0.11,8.74-0.23,12.75,0.77" stroke-dasharray="139.961" stroke-dashoffset="139.961"><animate attributeName="stroke-dashoffset" values="139.961" fill="freeze" begin="5321.click" /><animate attributeName="stroke-dashoffset" values="139.961;139.961;0" keyTimes="0;0.677;1" dur="3.26s" fill="freeze" begin="0s;5321.click" /></path></g></svg>