<svg xmlns="http://www.w3.org/2000/svg" viewBox="0 0 109 109" id="53ca"><g fill="none" stroke="#666" stroke-width="6" stroke-linecap="round" stroke-linejoin="round"><g><g><path d="M40.93,26.02c0.7,1.73,0.4,3.29,0.02,5.24C38.14,45.76,31,69.5,11.54,84.09" /></g><g><path d="M23.85,24.07c2.99,1.06,4.72,0.77,7.78,0.29c7.13-1.11,28.5-4.77,33.29-6.09c4.79-1.32,6.04,0.99,4.28,4.18C53.5,51,51.62,45.75,72.5,42.11c3.07-0.54,4.5,1.14,3.34,4.2c-7.87,20.78-21.09,37.44-43.09,45.44" /><path d="M38.48,49.63c7.57,5.89,28.17,27,39.47,35.85c3.41,2.67,6.67,5.06,10.65,6.76" /></g></g></g><g fill="none" stroke="#000" stroke-width="3" stroke-linecap="round" stroke-linejoin="round"><path d="M40.93,26.02c0.7,1.73,0.4,3.29,0.02,5.24C38.14,45.76,31,69.5,11.54,84.09" stroke-dasharray="67.178" stroke-dashoffset="67.178"><animate attributeName="stroke-dashoffset" values="67.178;67.178;0" dur="0.505s" fill="freeze" begin="0s;53ca.click" /></path><path d="M23.85,24.07c2.99,1.06,4.72,0.77,7.78,0.29c7.13-1.11,28.5-4.77,33.29-6.09c4.79-1.32,6.04,0.99,4.28,4.18C53.5,51,51.62,45.75,72.5,42.11c3.07-0.54,4.5,1.14,3.34,4.2c-7.87,20.78-21.09,37.44-43.09,45.44" stroke-dasharray="163.551" stroke-dashoffset="163.551"><animate attributeName="stroke-dashoffset" values="163.551" fill="freeze" begin="53ca.click" /><animate attributeName="stroke-dashoffset" values="163.551;163.551;0" keyTimes="0;0.291;1" dur="1.735s" fill="freeze" begin="0s;53ca.click" /></path><path d="M38.48,49.63c7.57,5.89,28.17,27,39.47,35.85c3.41,2.67,6.67,5.06,10.65,6.76" stroke-dasharray="65.99" stroke-dashoffset="65.99"><animate attributeName="stroke-dashoffset" values="65.99" fill="freeze" begin="53ca.click" /><animate attributeName="stroke-dashoffset" values="65.99;65.99;0" keyTimes="0;0.778;1" dur="2.231s" fill="freeze" begin="0s;53ca.click" /></path></g></svg>