<svg xmlns="http://www.w3.org/2000/svg" viewBox="0 0 109 109" id="5403"><g fill="none" stroke="#666" stroke-width="6" stroke-linecap="round" stroke-linejoin="round"><g><g><path d="M14.5,37.29c0.67,0.67,1.05,1.68,1.17,2.33c0.98,5.36,1.82,11.05,2.64,18.11c0.2,1.67,0.39,3.43,0.59,5.27" /><path d="M16.58,38.72c8.84-1.28,13.67-1.89,17.66-2.47c3.63-0.52,4.34,0.9,3.96,3.48c-0.83,5.56-0.99,10.6-2.33,18.38" /><path d="M19.57,61.05c4.24-0.62,8.08-0.93,14.05-1.39c1.26-0.1,2.61-0.2,4.08-0.31" /></g><g><g><path d="M61.49,12.5c0.05,0.74,0.23,2.14-0.09,2.96C56.88,26.75,51.62,36,44.25,43.75" /><path d="M56.75,33.32c2.22,0.21,4.43,0.1,6.63-0.31c5.47-0.76,12.5-2.28,19.62-3.52c2.14-0.49,4.3-0.62,6.5-0.39" /></g><g><path d="M45.75,55.8c2.79,0.72,4.88,0.86,7.65,0.19c5.81-1.42,15.94-3.94,19.41-4.75c2.25-0.53,3.46,0.65,2,2.29C63.62,66.12,59,72.38,53.62,80.5C46.26,91.64,55,95.91,72.76,95.91c10.87,0,20.56,0.21,20.56-8.74" /></g></g></g></g><g fill="none" stroke="#000" stroke-width="3" stroke-linecap="round" stroke-linejoin="round"><path d="M14.5,37.29c0.67,0.67,1.05,1.68,1.17,2.33c0.98,5.36,1.82,11.05,2.64,18.11c0.2,1.67,0.39,3.43,0.59,5.27" stroke-dasharray="26.251" stroke-dashoffset="26.251"><animate attributeName="stroke-dashoffset" values="26.251;26.251;0" dur="0.263s" fill="freeze" begin="0s;5403.click" /></path><path d="M16.58,38.72c8.84-1.28,13.67-1.89,17.66-2.47c3.63-0.52,4.34,0.9,3.96,3.48c-0.83,5.56-0.99,10.6-2.33,18.38" stroke-dasharray="43.064" stroke-dashoffset="43.064"><animate attributeName="stroke-dashoffset" values="43.064" fill="freeze" begin="5403.click" /><animate attributeName="stroke-dashoffset" values="43.064;43.064;0" keyTimes="0;0.379;1" dur="0.694s" fill="freeze" begin="0s;5403.click" /></path><path d="M19.57,61.05c4.24-0.62,8.08-0.93,14.05-1.39c1.26-0.1,2.61-0.2,4.08-0.31" stroke-dasharray="18.214" stroke-dashoffset="18.214"><animate attributeName="stroke-dashoffset" values="18.214" fill="freeze" begin="5403.click" /><animate attributeName="stroke-dashoffset" values="18.214;18.214;0" keyTimes="0;0.792;1" dur="0.876s" fill="freeze" begin="0s;5403.click" /></path><path d="M61.49,12.5c0.05,0.74,0.23,2.14-0.09,2.96C56.88,26.75,51.62,36,44.25,43.75" stroke-dasharray="36.273" stroke-dashoffset="36.273"><animate attributeName="stroke-dashoffset" values="36.273" fill="freeze" begin="5403.click" /><animate attributeName="stroke-dashoffset" values="36.273;36.273;0" keyTimes="0;0.707;1" dur="1.239s" fill="freeze" begin="0s;5403.click" /></path><path d="M56.75,33.32c2.22,0.21,4.43,0.1,6.63-0.31c5.47-0.76,12.5-2.28,19.62-3.52c2.14-0.49,4.3-0.62,6.5-0.39" stroke-dasharray="33.136" stroke-dashoffset="33.136"><animate attributeName="stroke-dashoffset" values="33.136" fill="freeze" begin="5403.click" /><animate attributeName="stroke-dashoffset" values="33.136;33.136;0" keyTimes="0;0.789;1" dur="1.57s" fill="freeze" begin="0s;5403.click" /></path><path d="M45.75,55.8c2.79,0.72,4.88,0.86,7.65,0.19c5.81-1.42,15.94-3.94,19.41-4.75c2.25-0.53,3.46,0.65,2,2.29C63.62,66.12,59,72.38,53.62,80.5C46.26,91.64,55,95.91,72.76,95.91c10.87,0,20.56,0.21,20.56-8.74" stroke-dasharray="125.008" stroke-dashoffset="125.008"><animate attributeName="stroke-dashoffset" values="125.008" fill="freeze" begin="5403.click" /><animate attributeName="stroke-dashoffset" values="125.008;125.008;0" keyTimes="0;0.625;1" dur="2.51s" fill="freeze" begin="0s;5403.click" /></path></g></svg>