<svg xmlns="http://www.w3.org/2000/svg" viewBox="0 0 109 109" id="5410"><g fill="none" stroke="#666" stroke-width="6" stroke-linecap="round" stroke-linejoin="round"><g><g><path d="M13,38.81c0.75,1.04,1,1.77,1.25,3.06c0.87,4.5,1.67,12.81,2.46,20.13c0.27,2.48,0.51,4.87,0.71,7" /><path d="M14.84,40.02c9.08-1.74,15.14-2.67,19.45-3.25c3.34-0.45,4.62,0.41,4.09,3.87c-0.84,5.58-1.5,13.48-2.28,19.65" /><path d="M17.85,63.27c4-0.59,9.76-1.21,15.45-2c1.66-0.23,3.83-0.49,5.16-0.49" /></g><g p4:phon="土" xmlns:p4="http://kanjivg.tagaini.net"><path d="M46.85,48.92c2.15,0.46,3.78,0.58,5.4,0.4c9.42-1.01,20.76-2.85,29.62-3.48c1.99-0.14,4.02-0.39,5.96,0.2" /><path d="M64.67,17.62c0.86,0.85,1.27,2.27,1.27,4.14c0,12-0.07,47.13-0.07,62.75" /><path d="M36.88,87.23c2.87,0.77,6.09,0.67,8.62,0.38c14.07-1.6,31.24-2.86,43.27-3.52c3.39-0.19,6.33-0.43,9.61,0.48" /></g></g></g><g fill="none" stroke="#000" stroke-width="3" stroke-linecap="round" stroke-linejoin="round"><path d="M13,38.81c0.75,1.04,1,1.77,1.25,3.06c0.87,4.5,1.67,12.81,2.46,20.13c0.27,2.48,0.51,4.87,0.71,7" stroke-dasharray="30.66" stroke-dashoffset="30.66"><animate attributeName="stroke-dashoffset" values="30.66;30.66;0" dur="0.307s" fill="freeze" begin="0s;5410.click" /></path><path d="M14.84,40.02c9.08-1.74,15.14-2.67,19.45-3.25c3.34-0.45,4.62,0.41,4.09,3.87c-0.84,5.58-1.5,13.48-2.28,19.65" stroke-dasharray="46.729" stroke-dashoffset="46.729"><animate attributeName="stroke-dashoffset" values="46.729" fill="freeze" begin="5410.click" /><animate attributeName="stroke-dashoffset" values="46.729;46.729;0" keyTimes="0;0.397;1" dur="0.774s" fill="freeze" begin="0s;5410.click" /></path><path d="M17.85,63.27c4-0.59,9.76-1.21,15.45-2c1.66-0.23,3.83-0.49,5.16-0.49" stroke-dasharray="20.767" stroke-dashoffset="20.767"><animate attributeName="stroke-dashoffset" values="20.767" fill="freeze" begin="5410.click" /><animate attributeName="stroke-dashoffset" values="20.767;20.767;0" keyTimes="0;0.788;1" dur="0.982s" fill="freeze" begin="0s;5410.click" /></path><path d="M46.85,48.92c2.15,0.46,3.78,0.58,5.4,0.4c9.42-1.01,20.76-2.85,29.62-3.48c1.99-0.14,4.02-0.39,5.96,0.2" stroke-dasharray="41.268" stroke-dashoffset="41.268"><animate attributeName="stroke-dashoffset" values="41.268" fill="freeze" begin="5410.click" /><animate attributeName="stroke-dashoffset" values="41.268;41.268;0" keyTimes="0;0.704;1" dur="1.395s" fill="freeze" begin="0s;5410.click" /></path><path d="M64.67,17.62c0.86,0.85,1.27,2.27,1.27,4.14c0,12-0.07,47.13-0.07,62.75" stroke-dasharray="67.193" stroke-dashoffset="67.193"><animate attributeName="stroke-dashoffset" values="67.193" fill="freeze" begin="5410.click" /><animate attributeName="stroke-dashoffset" values="67.193;67.193;0" keyTimes="0;0.734;1" dur="1.9s" fill="freeze" begin="0s;5410.click" /></path><path d="M36.88,87.23c2.87,0.77,6.09,0.67,8.62,0.38c14.07-1.6,31.24-2.86,43.27-3.52c3.39-0.19,6.33-0.43,9.61,0.48" stroke-dasharray="61.769" stroke-dashoffset="61.769"><animate attributeName="stroke-dashoffset" values="61.769" fill="freeze" begin="5410.click" /><animate attributeName="stroke-dashoffset" values="61.769;61.769;0" keyTimes="0;0.804;1" dur="2.364s" fill="freeze" begin="0s;5410.click" /></path></g></svg>