<svg xmlns="http://www.w3.org/2000/svg" viewBox="0 0 109 109" id="541f"><g fill="none" stroke="#666" stroke-width="6" stroke-linecap="round" stroke-linejoin="round"><g><g><path d="M11.39,34.69c0.66,0.99,0.92,1.73,1.15,2.9c1.1,5.72,2.2,13.3,3.11,20.92c0.22,1.87,0.44,3.71,0.64,5.49" /><path d="M13.71,36.23c6.48-0.89,11.28-1.77,16.82-2.96c3.26-0.69,4.49,0.51,3.97,3.85c-0.94,6.09-2.21,11.1-3.8,21.38" /><path d="M17.3,61.36c4.21-0.68,7.3-1.16,12.44-1.69c1.12-0.12,2.3-0.23,3.56-0.36" /></g><g p4:phon="ไป" xmlns:p4="http://kanjivg.tagaini.net"><g><path d="M64.16,16c0.07,0.99-0.08,2.65-0.64,3.97c-4.77,11.16-10.64,21.28-24.34,36.47" /><path d="M64.84,20.98C71,29.25,79.38,39.5,87.74,47.65c2.2,2.14,5.38,4.35,8.08,5.85" /></g><g><g><path d="M52.81,48c1.56,0.37,2.99,0.21,4.07,0.09c5.12-0.59,10.86-2.11,14.74-2.71c1.11-0.17,2.48-0.27,3.56,0.08" /></g><path d="M45.02,63.2c2.35,0.55,4.18,0.45,6.35,0.14c6.75-0.98,22.4-3.19,26.39-4.11c2.72-0.63,4.58,1.24,2.89,4.41c-4.9,9.23-12.49,23.17-16.4,31.6" /></g></g></g></g><g fill="none" stroke="#000" stroke-width="3" stroke-linecap="round" stroke-linejoin="round"><path d="M11.39,34.69c0.66,0.99,0.92,1.73,1.15,2.9c1.1,5.72,2.2,13.3,3.11,20.92c0.22,1.87,0.44,3.71,0.64,5.49" stroke-dasharray="29.827" stroke-dashoffset="29.827"><animate attributeName="stroke-dashoffset" values="29.827;29.827;0" dur="0.298s" fill="freeze" begin="0s;541f.click" /></path><path d="M13.71,36.23c6.48-0.89,11.28-1.77,16.82-2.96c3.26-0.69,4.49,0.51,3.97,3.85c-0.94,6.09-2.21,11.1-3.8,21.38" stroke-dasharray="45.974" stroke-dashoffset="45.974"><animate attributeName="stroke-dashoffset" values="45.974" fill="freeze" begin="541f.click" /><animate attributeName="stroke-dashoffset" values="45.974;45.974;0" keyTimes="0;0.393;1" dur="0.758s" fill="freeze" begin="0s;541f.click" /></path><path d="M17.3,61.36c4.21-0.68,7.3-1.16,12.44-1.69c1.12-0.12,2.3-0.23,3.56-0.36" stroke-dasharray="16.136" stroke-dashoffset="16.136"><animate attributeName="stroke-dashoffset" values="16.136" fill="freeze" begin="541f.click" /><animate attributeName="stroke-dashoffset" values="16.136;16.136;0" keyTimes="0;0.825;1" dur="0.919s" fill="freeze" begin="0s;541f.click" /></path><path d="M64.16,16c0.07,0.99-0.08,2.65-0.64,3.97c-4.77,11.16-10.64,21.28-24.34,36.47" stroke-dasharray="48.127" stroke-dashoffset="48.127"><animate attributeName="stroke-dashoffset" values="48.127" fill="freeze" begin="541f.click" /><animate attributeName="stroke-dashoffset" values="48.127;48.127;0" keyTimes="0;0.656;1" dur="1.4s" fill="freeze" begin="0s;541f.click" /></path><path d="M64.84,20.98C71,29.25,79.38,39.5,87.74,47.65c2.2,2.14,5.38,4.35,8.08,5.85" stroke-dasharray="45.188" stroke-dashoffset="45.188"><animate attributeName="stroke-dashoffset" values="45.188" fill="freeze" begin="541f.click" /><animate attributeName="stroke-dashoffset" values="45.188;45.188;0" keyTimes="0;0.756;1" dur="1.852s" fill="freeze" begin="0s;541f.click" /></path><path d="M52.81,48c1.56,0.37,2.99,0.21,4.07,0.09c5.12-0.59,10.86-2.11,14.74-2.71c1.11-0.17,2.48-0.27,3.56,0.08" stroke-dasharray="22.677" stroke-dashoffset="22.677"><animate attributeName="stroke-dashoffset" values="22.677" fill="freeze" begin="541f.click" /><animate attributeName="stroke-dashoffset" values="22.677;22.677;0" keyTimes="0;0.891;1" dur="2.079s" fill="freeze" begin="0s;541f.click" /></path><path d="M45.02,63.2c2.35,0.55,4.18,0.45,6.35,0.14c6.75-0.98,22.4-3.19,26.39-4.11c2.72-0.63,4.58,1.24,2.89,4.41c-4.9,9.23-12.49,23.17-16.4,31.6" stroke-dasharray="75.929" stroke-dashoffset="75.929"><animate attributeName="stroke-dashoffset" values="75.929" fill="freeze" begin="541f.click" /><animate attributeName="stroke-dashoffset" values="75.929;75.929;0" keyTimes="0;0.785;1" dur="2.65s" fill="freeze" begin="0s;541f.click" /></path></g></svg>