<svg xmlns="http://www.w3.org/2000/svg" viewBox="0 0 109 109" id="5426"><g fill="none" stroke="#666" stroke-width="6" stroke-linecap="round" stroke-linejoin="round"><g><g p4:phon="不" xmlns:p4="http://kanjivg.tagaini.net"><g><path d="M23.56,17.85c3.69,0.52,6.84,0.49,9.95,0.17c10.8-1.12,31.53-2.65,45.12-3.52c3.24-0.21,6.62-0.27,9.8,0.42" /></g><g><path d="M53.22,19.55c0.11,0.85,0.17,1.78-0.47,2.9C48.38,30.12,35.38,44,14.27,54.98" /></g><g><path d="M52.79,30.78c0.78,0.78,1.26,1.72,1.26,2.92c0,1.99,0.05,14.33,0.06,21.67c0,2.95,0,5.1-0.01,5.44" /></g><path d="M67.22,33.76c9.41,3.61,19.28,10.49,26.38,17.79" /></g><g><path d="M30,69.35c1.01,1.01,1.62,2.27,1.86,3.37c1.26,5.93,2.68,12.5,3.73,19.3c0.25,1.65,0.49,3.24,0.7,4.69" /><path d="M32.14,71.21c13.99-1.58,31.73-3.46,42.47-4.25c4.16-0.31,6.01,1.5,5.06,5.68c-1.07,4.71-1.56,7.65-3.76,17.38" /><path d="M36.29,93.63C46.5,93,57.5,92.25,72.25,91.26c2.02-0.14,3.96-0.19,5.75-0.26" /></g></g></g><g fill="none" stroke="#000" stroke-width="3" stroke-linecap="round" stroke-linejoin="round"><path d="M23.56,17.85c3.69,0.52,6.84,0.49,9.95,0.17c10.8-1.12,31.53-2.65,45.12-3.52c3.24-0.21,6.62-0.27,9.8,0.42" stroke-dasharray="65.078" stroke-dashoffset="65.078"><animate attributeName="stroke-dashoffset" values="65.078;65.078;0" dur="0.489s" fill="freeze" begin="0s;5426.click" /></path><path d="M53.22,19.55c0.11,0.85,0.17,1.78-0.47,2.9C48.38,30.12,35.38,44,14.27,54.98" stroke-dasharray="53.945" stroke-dashoffset="53.945"><animate attributeName="stroke-dashoffset" values="53.945" fill="freeze" begin="5426.click" /><animate attributeName="stroke-dashoffset" values="53.945;53.945;0" keyTimes="0;0.476;1" dur="1.028s" fill="freeze" begin="0s;5426.click" /></path><path d="M52.79,30.78c0.78,0.78,1.26,1.72,1.26,2.92c0,1.99,0.05,14.33,0.06,21.67c0,2.95,0,5.1-0.01,5.44" stroke-dasharray="30.381" stroke-dashoffset="30.381"><animate attributeName="stroke-dashoffset" values="30.381" fill="freeze" begin="5426.click" /><animate attributeName="stroke-dashoffset" values="30.381;30.381;0" keyTimes="0;0.772;1" dur="1.332s" fill="freeze" begin="0s;5426.click" /></path><path d="M67.22,33.76c9.41,3.61,19.28,10.49,26.38,17.79" stroke-dasharray="32.047" stroke-dashoffset="32.047"><animate attributeName="stroke-dashoffset" values="32.047" fill="freeze" begin="5426.click" /><animate attributeName="stroke-dashoffset" values="32.047;32.047;0" keyTimes="0;0.806;1" dur="1.652s" fill="freeze" begin="0s;5426.click" /></path><path d="M30,69.35c1.01,1.01,1.62,2.27,1.86,3.37c1.26,5.93,2.68,12.5,3.73,19.3c0.25,1.65,0.49,3.24,0.7,4.69" stroke-dasharray="28.303" stroke-dashoffset="28.303"><animate attributeName="stroke-dashoffset" values="28.303" fill="freeze" begin="5426.click" /><animate attributeName="stroke-dashoffset" values="28.303;28.303;0" keyTimes="0;0.854;1" dur="1.935s" fill="freeze" begin="0s;5426.click" /></path><path d="M32.14,71.21c13.99-1.58,31.73-3.46,42.47-4.25c4.16-0.31,6.01,1.5,5.06,5.68c-1.07,4.71-1.56,7.65-3.76,17.38" stroke-dasharray="69.964" stroke-dashoffset="69.964"><animate attributeName="stroke-dashoffset" values="69.964" fill="freeze" begin="5426.click" /><animate attributeName="stroke-dashoffset" values="69.964;69.964;0" keyTimes="0;0.786;1" dur="2.461s" fill="freeze" begin="0s;5426.click" /></path><path d="M36.29,93.63C46.5,93,57.5,92.25,72.25,91.26c2.02-0.14,3.96-0.19,5.75-0.26" stroke-dasharray="41.795" stroke-dashoffset="41.795"><animate attributeName="stroke-dashoffset" values="41.795" fill="freeze" begin="5426.click" /><animate attributeName="stroke-dashoffset" values="41.795;41.795;0" keyTimes="0;0.855;1" dur="2.879s" fill="freeze" begin="0s;5426.click" /></path></g></svg>