<svg xmlns="http://www.w3.org/2000/svg" viewBox="0 0 109 109" id="544a"><g fill="none" stroke="#666" stroke-width="6" stroke-linecap="round" stroke-linejoin="round"><g><g><path d="M34.89,20.39c0.04,0.59,0.18,1.54-0.08,2.35C33.12,28,28.5,37.25,21,45.25" /><path d="M33.13,34.17c1.62,0.21,2.91,0.19,3.85,0.13c9.4-0.55,21.77-2.05,32.4-3.37c2.16-0.27,4.37-0.41,6.5,0.11" /><path d="M52.81,10.13c1.22,1.22,1.51,2.74,1.51,4.25c0,5.12,0,33.62,0,40.12" /><path d="M12.88,58.73c1.92,0.54,5.45,0.75,7.36,0.54c19.89-2.14,47.39-4.89,66.43-6.23c3.19-0.22,5.12,0.26,6.72,0.53" /></g><g><path d="M29.75,71.6c1.12,1.04,1.62,2.09,1.86,3.62c1.33,8.62,2.24,15.02,2.95,20.77c0.17,1.35,0.32,2.67,0.47,3.97" /><path d="M32.64,74.21c13.21-2.16,31.39-4.69,40.98-5.52c3.64-0.32,6.11,1,5.16,4.95c-1.34,5.65-3.12,12.52-5.87,20.38" /><path d="M36.04,97.38c9.92-0.53,24.79-1.6,34.96-2.14c1.84-0.1,3.53-0.18,5-0.24" /></g></g></g><g fill="none" stroke="#000" stroke-width="3" stroke-linecap="round" stroke-linejoin="round"><path d="M34.89,20.39c0.04,0.59,0.18,1.54-0.08,2.35C33.12,28,28.5,37.25,21,45.25" stroke-dasharray="28.964" stroke-dashoffset="28.964"><animate attributeName="stroke-dashoffset" values="28.964;28.964;0" dur="0.29s" fill="freeze" begin="0s;544a.click" /></path><path d="M33.13,34.17c1.62,0.21,2.91,0.19,3.85,0.13c9.4-0.55,21.77-2.05,32.4-3.37c2.16-0.27,4.37-0.41,6.5,0.11" stroke-dasharray="42.977" stroke-dashoffset="42.977"><animate attributeName="stroke-dashoffset" values="42.977" fill="freeze" begin="544a.click" /><animate attributeName="stroke-dashoffset" values="42.977;42.977;0" keyTimes="0;0.403;1" dur="0.72s" fill="freeze" begin="0s;544a.click" /></path><path d="M52.81,10.13c1.22,1.22,1.51,2.74,1.51,4.25c0,5.12,0,33.62,0,40.12" stroke-dasharray="44.76" stroke-dashoffset="44.76"><animate attributeName="stroke-dashoffset" values="44.76" fill="freeze" begin="544a.click" /><animate attributeName="stroke-dashoffset" values="44.76;44.76;0" keyTimes="0;0.616;1" dur="1.168s" fill="freeze" begin="0s;544a.click" /></path><path d="M12.88,58.73c1.92,0.54,5.45,0.75,7.36,0.54c19.89-2.14,47.39-4.89,66.43-6.23c3.19-0.22,5.12,0.26,6.72,0.53" stroke-dasharray="80.9" stroke-dashoffset="80.9"><animate attributeName="stroke-dashoffset" values="80.9" fill="freeze" begin="544a.click" /><animate attributeName="stroke-dashoffset" values="80.9;80.9;0" keyTimes="0;0.658;1" dur="1.776s" fill="freeze" begin="0s;544a.click" /></path><path d="M29.75,71.6c1.12,1.04,1.62,2.09,1.86,3.62c1.33,8.62,2.24,15.02,2.95,20.77c0.17,1.35,0.32,2.67,0.47,3.97" stroke-dasharray="29.137" stroke-dashoffset="29.137"><animate attributeName="stroke-dashoffset" values="29.137" fill="freeze" begin="544a.click" /><animate attributeName="stroke-dashoffset" values="29.137;29.137;0" keyTimes="0;0.859;1" dur="2.067s" fill="freeze" begin="0s;544a.click" /></path><path d="M32.64,74.21c13.21-2.16,31.39-4.69,40.98-5.52c3.64-0.32,6.11,1,5.16,4.95c-1.34,5.65-3.12,12.52-5.87,20.38" stroke-dasharray="71.477" stroke-dashoffset="71.477"><animate attributeName="stroke-dashoffset" values="71.477" fill="freeze" begin="544a.click" /><animate attributeName="stroke-dashoffset" values="71.477;71.477;0" keyTimes="0;0.794;1" dur="2.604s" fill="freeze" begin="0s;544a.click" /></path><path d="M36.04,97.38c9.92-0.53,24.79-1.6,34.96-2.14c1.84-0.1,3.53-0.18,5-0.24" stroke-dasharray="40.032" stroke-dashoffset="40.032"><animate attributeName="stroke-dashoffset" values="40.032" fill="freeze" begin="544a.click" /><animate attributeName="stroke-dashoffset" values="40.032;40.032;0" keyTimes="0;0.867;1" dur="3.004s" fill="freeze" begin="0s;544a.click" /></path></g></svg>