<svg xmlns="http://www.w3.org/2000/svg" viewBox="0 0 109 109" id="547c"><g fill="none" stroke="#666" stroke-width="6" stroke-linecap="round" stroke-linejoin="round"><g><g><path d="M12.25,35.08c0.76,0.74,1.2,1.63,1.33,2.68c0.99,3.95,2.06,11.18,2.88,17.46c0.22,1.69,0.42,3.31,0.6,4.78" /><path d="M14.4,36.71c8.72-1.71,16.5-2.94,21.22-3.56c2.13-0.28,3.75,1.35,3.25,3.5c-1.08,4.64-2.02,9.66-3.38,16.06" /><path d="M17.24,56.02c4.42-0.53,10.24-1.37,16.27-2.2c1.21-0.17,2.37-0.32,3.64-0.24" /></g><g p4:phon="乎" xmlns:p4="http://kanjivg.tagaini.net"><g><path d="M74.92,11.75c0,1.12-0.58,2.25-1.74,2.95C67,18.5,57.12,22.62,43.62,26.54" /></g><path d="M47.75,35c2.33,2.33,6.02,9.59,6.6,13.22" /><path d="M88.68,25.39c0.09,0.99,0.02,1.97-0.33,2.89c-1.73,4.59-4.98,10.34-9.92,15.81" /><path d="M35.75,61.12c3.12,0.63,7.64,0.08,10.63-0.46c10.7-1.92,30.94-5.38,43.38-6.49c3.04-0.27,6-0.54,9,0.2" /><g><path d="M63.66,22.96C72,33.88,72.62,66.5,67.68,90.34c-2.18,10.5-9.05,1.09-10.43-0.18" /></g></g></g></g><g fill="none" stroke="#000" stroke-width="3" stroke-linecap="round" stroke-linejoin="round"><path d="M12.25,35.08c0.76,0.74,1.2,1.63,1.33,2.68c0.99,3.95,2.06,11.18,2.88,17.46c0.22,1.69,0.42,3.31,0.6,4.78" stroke-dasharray="25.574" stroke-dashoffset="25.574"><animate attributeName="stroke-dashoffset" values="25.574;25.574;0" dur="0.256s" fill="freeze" begin="0s;547c.click" /></path><path d="M14.4,36.71c8.72-1.71,16.5-2.94,21.22-3.56c2.13-0.28,3.75,1.35,3.25,3.5c-1.08,4.64-2.02,9.66-3.38,16.06" stroke-dasharray="43.636" stroke-dashoffset="43.636"><animate attributeName="stroke-dashoffset" values="43.636" fill="freeze" begin="547c.click" /><animate attributeName="stroke-dashoffset" values="43.636;43.636;0" keyTimes="0;0.37;1" dur="0.692s" fill="freeze" begin="0s;547c.click" /></path><path d="M17.24,56.02c4.42-0.53,10.24-1.37,16.27-2.2c1.21-0.17,2.37-0.32,3.64-0.24" stroke-dasharray="20.074" stroke-dashoffset="20.074"><animate attributeName="stroke-dashoffset" values="20.074" fill="freeze" begin="547c.click" /><animate attributeName="stroke-dashoffset" values="20.074;20.074;0" keyTimes="0;0.775;1" dur="0.893s" fill="freeze" begin="0s;547c.click" /></path><path d="M74.92,11.75c0,1.12-0.58,2.25-1.74,2.95C67,18.5,57.12,22.62,43.62,26.54" stroke-dasharray="35.512" stroke-dashoffset="35.512"><animate attributeName="stroke-dashoffset" values="35.512" fill="freeze" begin="547c.click" /><animate attributeName="stroke-dashoffset" values="35.512;35.512;0" keyTimes="0;0.716;1" dur="1.248s" fill="freeze" begin="0s;547c.click" /></path><path d="M47.75,35c2.33,2.33,6.02,9.59,6.6,13.22" stroke-dasharray="14.913" stroke-dashoffset="14.913"><animate attributeName="stroke-dashoffset" values="14.913" fill="freeze" begin="547c.click" /><animate attributeName="stroke-dashoffset" values="14.913;14.913;0" keyTimes="0;0.807;1" dur="1.546s" fill="freeze" begin="0s;547c.click" /></path><path d="M88.68,25.39c0.09,0.99,0.02,1.97-0.33,2.89c-1.73,4.59-4.98,10.34-9.92,15.81" stroke-dasharray="21.704" stroke-dashoffset="21.704"><animate attributeName="stroke-dashoffset" values="21.704" fill="freeze" begin="547c.click" /><animate attributeName="stroke-dashoffset" values="21.704;21.704;0" keyTimes="0;0.877;1" dur="1.763s" fill="freeze" begin="0s;547c.click" /></path><path d="M35.75,61.12c3.12,0.63,7.64,0.08,10.63-0.46c10.7-1.92,30.94-5.38,43.38-6.49c3.04-0.27,6-0.54,9,0.2" stroke-dasharray="63.616" stroke-dashoffset="63.616"><animate attributeName="stroke-dashoffset" values="63.616" fill="freeze" begin="547c.click" /><animate attributeName="stroke-dashoffset" values="63.616;63.616;0" keyTimes="0;0.787;1" dur="2.241s" fill="freeze" begin="0s;547c.click" /></path><path d="M63.66,22.96C72,33.88,72.62,66.5,67.68,90.34c-2.18,10.5-9.05,1.09-10.43-0.18" stroke-dasharray="84.1" stroke-dashoffset="84.1"><animate attributeName="stroke-dashoffset" values="84.1" fill="freeze" begin="547c.click" /><animate attributeName="stroke-dashoffset" values="84.1;84.1;0" keyTimes="0;0.78;1" dur="2.873s" fill="freeze" begin="0s;547c.click" /></path></g></svg>