<svg xmlns="http://www.w3.org/2000/svg" viewBox="0 0 109 109" id="547d"><g fill="none" stroke="#666" stroke-width="6" stroke-linecap="round" stroke-linejoin="round"><g><g><g><path d="M51.75,10.25c0.11,1-0.06,2.67-0.71,4.02c-4.47,9.23-17.06,25.98-38.79,38.48" /><path d="M53.5,15c7.12,7,22.89,20.46,30.6,26.65c2.82,2.26,5.65,4.22,9.15,5.72" /></g><g><path d="M38.25,40.64c1.76,0.72,3.84,0.36,5.65,0.14c5.4-0.66,13.08-1.76,18.48-2.24c1.88-0.17,3.54-0.23,5.37,0.21" /></g></g><g><g><path d="M21.2,54.29c1.01,1.01,1.59,2.26,1.67,3.43c0.9,3.88,1.77,10.12,2.4,15.89c0.16,1.43,0.3,2.79,0.42,4.04" /><path d="M23.92,56.51c10.83-1.76,15.42-2.18,20.28-2.65c1.78-0.17,2.79,1.16,2.49,2.28c-1.23,4.63-1.67,9.73-3.48,16.13" /><path d="M26.02,75.17c4.77-0.44,9.31-1.17,15.25-1.89c1.17-0.14,2.39-0.28,3.68-0.42" /></g><g><path d="M54,54c0.61,0.15,3,1,4.21,0.87c3.29-0.37,17.99-4.02,19.51-4.17c1.52-0.15,4.28-0.29,3.95,2.89c-0.43,4.17-2.68,16.92-6,23.84c-1.89,3.94-3.18,3.45-6.23,0.46" /><path d="M57.38,55.38c0.87,0.87,1.8,2,1.8,3.5c0,7.36-0.04,24.53-0.1,34.13c-0.02,3.3-0.05,5.71-0.08,6.51" /></g></g></g></g><g fill="none" stroke="#000" stroke-width="3" stroke-linecap="round" stroke-linejoin="round"><path d="M51.75,10.25c0.11,1-0.06,2.67-0.71,4.02c-4.47,9.23-17.06,25.98-38.79,38.48" stroke-dasharray="59.481" stroke-dashoffset="59.481"><animate attributeName="stroke-dashoffset" values="59.481;59.481;0" dur="0.595s" fill="freeze" begin="0s;547d.click" /></path><path d="M53.5,15c7.12,7,22.89,20.46,30.6,26.65c2.82,2.26,5.65,4.22,9.15,5.72" stroke-dasharray="51.416" stroke-dashoffset="51.416"><animate attributeName="stroke-dashoffset" values="51.416" fill="freeze" begin="547d.click" /><animate attributeName="stroke-dashoffset" values="51.416;51.416;0" keyTimes="0;0.537;1" dur="1.109s" fill="freeze" begin="0s;547d.click" /></path><path d="M38.25,40.64c1.76,0.72,3.84,0.36,5.65,0.14c5.4-0.66,13.08-1.76,18.48-2.24c1.88-0.17,3.54-0.23,5.37,0.21" stroke-dasharray="29.735" stroke-dashoffset="29.735"><animate attributeName="stroke-dashoffset" values="29.735" fill="freeze" begin="547d.click" /><animate attributeName="stroke-dashoffset" values="29.735;29.735;0" keyTimes="0;0.789;1" dur="1.406s" fill="freeze" begin="0s;547d.click" /></path><path d="M21.2,54.29c1.01,1.01,1.59,2.26,1.67,3.43c0.9,3.88,1.77,10.12,2.4,15.89c0.16,1.43,0.3,2.79,0.42,4.04" stroke-dasharray="24.037" stroke-dashoffset="24.037"><animate attributeName="stroke-dashoffset" values="24.037" fill="freeze" begin="547d.click" /><animate attributeName="stroke-dashoffset" values="24.037;24.037;0" keyTimes="0;0.854;1" dur="1.646s" fill="freeze" begin="0s;547d.click" /></path><path d="M23.92,56.51c10.83-1.76,15.42-2.18,20.28-2.65c1.78-0.17,2.79,1.16,2.49,2.28c-1.23,4.63-1.67,9.73-3.48,16.13" stroke-dasharray="40.934" stroke-dashoffset="40.934"><animate attributeName="stroke-dashoffset" values="40.934" fill="freeze" begin="547d.click" /><animate attributeName="stroke-dashoffset" values="40.934;40.934;0" keyTimes="0;0.801;1" dur="2.055s" fill="freeze" begin="0s;547d.click" /></path><path d="M26.02,75.17c4.77-0.44,9.31-1.17,15.25-1.89c1.17-0.14,2.39-0.28,3.68-0.42" stroke-dasharray="19.072" stroke-dashoffset="19.072"><animate attributeName="stroke-dashoffset" values="19.072" fill="freeze" begin="547d.click" /><animate attributeName="stroke-dashoffset" values="19.072;19.072;0" keyTimes="0;0.915;1" dur="2.246s" fill="freeze" begin="0s;547d.click" /></path><path d="M54,54c0.61,0.15,3,1,4.21,0.87c3.29-0.37,17.99-4.02,19.51-4.17c1.52-0.15,4.28-0.29,3.95,2.89c-0.43,4.17-2.68,16.92-6,23.84c-1.89,3.94-3.18,3.45-6.23,0.46" stroke-dasharray="63.323" stroke-dashoffset="63.323"><animate attributeName="stroke-dashoffset" values="63.323" fill="freeze" begin="547d.click" /><animate attributeName="stroke-dashoffset" values="63.323;63.323;0" keyTimes="0;0.825;1" dur="2.722s" fill="freeze" begin="0s;547d.click" /></path><path d="M57.38,55.38c0.87,0.87,1.8,2,1.8,3.5c0,7.36-0.04,24.53-0.1,34.13c-0.02,3.3-0.05,5.71-0.08,6.51" stroke-dasharray="44.688" stroke-dashoffset="44.688"><animate attributeName="stroke-dashoffset" values="44.688" fill="freeze" begin="547d.click" /><animate attributeName="stroke-dashoffset" values="44.688;44.688;0" keyTimes="0;0.859;1" dur="3.169s" fill="freeze" begin="0s;547d.click" /></path></g></svg>