<svg xmlns="http://www.w3.org/2000/svg" viewBox="0 0 109 109" id="5544"><g fill="none" stroke="#666" stroke-width="6" stroke-linecap="round" stroke-linejoin="round"><g><g><path d="M10.25,33.91c0.86,0.86,1.12,2.47,1.39,3.84c1.06,5.5,1.77,12.66,2.66,20.63c0.21,1.91,0.38,3.8,0.49,5.62" /><path d="M12.12,35.21c5.51-1.09,12.12-1.9,17.13-2.46c3.59-0.4,5.29,0.21,4.61,4.24c-0.93,5.51-2.35,13.69-3.67,21.62" /><path d="M16.04,61.02c4.01-0.47,8.46-0.93,12.33-1.28c1.39-0.12,2.71-0.23,3.91-0.32" /></g><g><path d="M37.66,21.45c2.84,0.55,5.63,0.35,8.08,0.09c9.38-1.02,27.69-3.05,38.64-3.6c2.42-0.12,5.25-0.12,7.56,0.65" /><path d="M62.69,22.68c0.15,1.32-0.33,2.37-1.13,3.37C57.5,31.12,50,37.75,39.77,44.9" /><path d="M56.2,34.25c10.05,9,17.8,34.5,9.77,57.33c-3.24,9.21-7.39,1.62-8.35,0.56" /><path d="M59,42c0.14,1.29-0.05,2.4-0.59,3.58c-2.54,5.51-11.63,15.68-23.77,22.08" /><path d="M64.2,56.25c0.17,1.54,0.01,3.08-0.76,4.46c-3.69,6.66-14.19,17.91-28.89,26.79" /><path d="M87.74,33.25c0.11,0.86-0.21,1.95-0.76,2.68c-2.98,3.95-6.74,7.93-16.73,14.7" /><path d="M67.17,50.75c3.18,3.53,14.59,18.37,21.27,26.17c1.57,1.83,4.18,4.46,7.06,6.58" /></g></g></g><g fill="none" stroke="#000" stroke-width="3" stroke-linecap="round" stroke-linejoin="round"><path d="M10.25,33.91c0.86,0.86,1.12,2.47,1.39,3.84c1.06,5.5,1.77,12.66,2.66,20.63c0.21,1.91,0.38,3.8,0.49,5.62" stroke-dasharray="30.59" stroke-dashoffset="30.59"><animate attributeName="stroke-dashoffset" values="30.59;30.59;0" dur="0.306s" fill="freeze" begin="0s;5544.click" /></path><path d="M12.12,35.21c5.51-1.09,12.12-1.9,17.13-2.46c3.59-0.4,5.29,0.21,4.61,4.24c-0.93,5.51-2.35,13.69-3.67,21.62" stroke-dasharray="47.298" stroke-dashoffset="47.298"><animate attributeName="stroke-dashoffset" values="47.298" fill="freeze" begin="5544.click" /><animate attributeName="stroke-dashoffset" values="47.298;47.298;0" keyTimes="0;0.393;1" dur="0.779s" fill="freeze" begin="0s;5544.click" /></path><path d="M16.04,61.02c4.01-0.47,8.46-0.93,12.33-1.28c1.39-0.12,2.71-0.23,3.91-0.32" stroke-dasharray="16.321" stroke-dashoffset="16.321"><animate attributeName="stroke-dashoffset" values="16.321" fill="freeze" begin="5544.click" /><animate attributeName="stroke-dashoffset" values="16.321;16.321;0" keyTimes="0;0.827;1" dur="0.942s" fill="freeze" begin="0s;5544.click" /></path><path d="M37.66,21.45c2.84,0.55,5.63,0.35,8.08,0.09c9.38-1.02,27.69-3.05,38.64-3.6c2.42-0.12,5.25-0.12,7.56,0.65" stroke-dasharray="54.555" stroke-dashoffset="54.555"><animate attributeName="stroke-dashoffset" values="54.555" fill="freeze" begin="5544.click" /><animate attributeName="stroke-dashoffset" values="54.555;54.555;0" keyTimes="0;0.633;1" dur="1.488s" fill="freeze" begin="0s;5544.click" /></path><path d="M62.69,22.68c0.15,1.32-0.33,2.37-1.13,3.37C57.5,31.12,50,37.75,39.77,44.9" stroke-dasharray="32.555" stroke-dashoffset="32.555"><animate attributeName="stroke-dashoffset" values="32.555" fill="freeze" begin="5544.click" /><animate attributeName="stroke-dashoffset" values="32.555;32.555;0" keyTimes="0;0.82;1" dur="1.814s" fill="freeze" begin="0s;5544.click" /></path><path d="M56.2,34.25c10.05,9,17.8,34.5,9.77,57.33c-3.24,9.21-7.39,1.62-8.35,0.56" stroke-dasharray="73.399" stroke-dashoffset="73.399"><animate attributeName="stroke-dashoffset" values="73.399" fill="freeze" begin="5544.click" /><animate attributeName="stroke-dashoffset" values="73.399;73.399;0" keyTimes="0;0.767;1" dur="2.366s" fill="freeze" begin="0s;5544.click" /></path><path d="M59,42c0.14,1.29-0.05,2.4-0.59,3.58c-2.54,5.51-11.63,15.68-23.77,22.08" stroke-dasharray="36.557" stroke-dashoffset="36.557"><animate attributeName="stroke-dashoffset" values="36.557" fill="freeze" begin="5544.click" /><animate attributeName="stroke-dashoffset" values="36.557;36.557;0" keyTimes="0;0.866;1" dur="2.732s" fill="freeze" begin="0s;5544.click" /></path><path d="M64.2,56.25c0.17,1.54,0.01,3.08-0.76,4.46c-3.69,6.66-14.19,17.91-28.89,26.79" stroke-dasharray="44.353" stroke-dashoffset="44.353"><animate attributeName="stroke-dashoffset" values="44.353" fill="freeze" begin="5544.click" /><animate attributeName="stroke-dashoffset" values="44.353;44.353;0" keyTimes="0;0.86;1" dur="3.176s" fill="freeze" begin="0s;5544.click" /></path><path d="M87.74,33.25c0.11,0.86-0.21,1.95-0.76,2.68c-2.98,3.95-6.74,7.93-16.73,14.7" stroke-dasharray="25.228" stroke-dashoffset="25.228"><animate attributeName="stroke-dashoffset" values="25.228" fill="freeze" begin="5544.click" /><animate attributeName="stroke-dashoffset" values="25.228;25.228;0" keyTimes="0;0.926;1" dur="3.428s" fill="freeze" begin="0s;5544.click" /></path><path d="M67.17,50.75c3.18,3.53,14.59,18.37,21.27,26.17c1.57,1.83,4.18,4.46,7.06,6.58" stroke-dasharray="43.396" stroke-dashoffset="43.396"><animate attributeName="stroke-dashoffset" values="43.396" fill="freeze" begin="5544.click" /><animate attributeName="stroke-dashoffset" values="43.396;43.396;0" keyTimes="0;0.888;1" dur="3.862s" fill="freeze" begin="0s;5544.click" /></path></g></svg>