<svg xmlns="http://www.w3.org/2000/svg" viewBox="0 0 109 109" id="557b"><g fill="none" stroke="#666" stroke-width="6" stroke-linecap="round" stroke-linejoin="round"><g><g><g><g><path d="M51.83,10.84c0.7,0.7,1.75,2.28,1.75,4.08c0,2.86,0-1.7,0,6.05" /><path d="M22.5,23.13c1.48,0.29,3.22,0.33,4.69,0.29c8.36-0.25,37.48-3.97,50.12-4.18c2.47-0.04,3.95,0.14,5.19,0.28" /></g><path d="M35.75,26.58c2.79,2.47,4.56,5.45,4.82,7.08" /><path d="M68.87,22.82c0.55,0.34,0.24,1.18,0.1,1.45c-1.79,3.24-4.09,7.41-5.2,8.89" /><g><path d="M17.84,35.69c-0.11,3.7-2.62,13.36-3.52,15.56" /><path d="M17.72,39c8.53-0.75,48.75-5.65,68.68-6.75c13.6-0.75,4.35,6.25,1.22,8" /></g></g><g><path d="M29.23,46.63c0.39,0.3,1.22,2.21,1.3,2.8C31.25,54.5,32.5,62.5,33.4,66.8" /><path d="M30.46,48.82C37,48,72.83,44.28,75.74,44.19c3.4-0.11,3.14,2.36,3.02,3.32c-0.62,4.85-0.84,8-2.83,12.75c-1.43,3.42-3.67,1.99-6.25-1.21" /><path d="M52.24,36.17c0.53,0.31,1.65,2.34,1.76,2.97c0.11,0.63-0.07,24.96-0.17,28.87" /></g></g><g><path d="M31.5,74.43c0.39,0.42,0.79,0.77,0.96,1.29c1.35,4.14,2.98,15.56,3.9,22.99" /><path d="M32.93,76.43c12.32-1.43,34.29-3.22,40.24-3.84c2.18-0.22,3.48,2.27,3.17,3.59c-1.29,5.48-2.26,9.2-5.02,17.1" /><path d="M36.83,95.66c7.38-0.43,28.3-1.82,37.66-2.26" /></g></g></g><g fill="none" stroke="#000" stroke-width="3" stroke-linecap="round" stroke-linejoin="round"><path d="M51.83,10.84c0.7,0.7,1.75,2.28,1.75,4.08c0,2.86,0-1.7,0,6.05" stroke-dasharray="10.595" stroke-dashoffset="10.595"><animate attributeName="stroke-dashoffset" values="10.595;10.595;0" dur="0.212s" fill="freeze" begin="0s;557b.click" /></path><path d="M22.5,23.13c1.48,0.29,3.22,0.33,4.69,0.29c8.36-0.25,37.48-3.97,50.12-4.18c2.47-0.04,3.95,0.14,5.19,0.28" stroke-dasharray="60.215" stroke-dashoffset="60.215"><animate attributeName="stroke-dashoffset" values="60.215" fill="freeze" begin="557b.click" /><animate attributeName="stroke-dashoffset" values="60.215;60.215;0" keyTimes="0;0.319;1" dur="0.665s" fill="freeze" begin="0s;557b.click" /></path><path d="M35.75,26.58c2.79,2.47,4.56,5.45,4.82,7.08" stroke-dasharray="8.692" stroke-dashoffset="8.692"><animate attributeName="stroke-dashoffset" values="8.692" fill="freeze" begin="557b.click" /><animate attributeName="stroke-dashoffset" values="8.692;8.692;0" keyTimes="0;0.793;1" dur="0.839s" fill="freeze" begin="0s;557b.click" /></path><path d="M68.87,22.82c0.55,0.34,0.24,1.18,0.1,1.45c-1.79,3.24-4.09,7.41-5.2,8.89" stroke-dasharray="11.898" stroke-dashoffset="11.898"><animate attributeName="stroke-dashoffset" values="11.898" fill="freeze" begin="557b.click" /><animate attributeName="stroke-dashoffset" values="11.898;11.898;0" keyTimes="0;0.779;1" dur="1.077s" fill="freeze" begin="0s;557b.click" /></path><path d="M17.84,35.69c-0.11,3.7-2.62,13.36-3.52,15.56" stroke-dasharray="15.991" stroke-dashoffset="15.991"><animate attributeName="stroke-dashoffset" values="15.991" fill="freeze" begin="557b.click" /><animate attributeName="stroke-dashoffset" values="15.991;15.991;0" keyTimes="0;0.871;1" dur="1.237s" fill="freeze" begin="0s;557b.click" /></path><path d="M17.72,39c8.53-0.75,48.75-5.65,68.68-6.75c13.6-0.75,4.35,6.25,1.22,8" stroke-dasharray="85.842" stroke-dashoffset="85.842"><animate attributeName="stroke-dashoffset" values="85.842" fill="freeze" begin="557b.click" /><animate attributeName="stroke-dashoffset" values="85.842;85.842;0" keyTimes="0;0.657;1" dur="1.882s" fill="freeze" begin="0s;557b.click" /></path><path d="M29.23,46.63c0.39,0.3,1.22,2.21,1.3,2.8C31.25,54.5,32.5,62.5,33.4,66.8" stroke-dasharray="20.723" stroke-dashoffset="20.723"><animate attributeName="stroke-dashoffset" values="20.723" fill="freeze" begin="557b.click" /><animate attributeName="stroke-dashoffset" values="20.723;20.723;0" keyTimes="0;0.901;1" dur="2.089s" fill="freeze" begin="0s;557b.click" /></path><path d="M30.46,48.82C37,48,72.83,44.28,75.74,44.19c3.4-0.11,3.14,2.36,3.02,3.32c-0.62,4.85-0.84,8-2.83,12.75c-1.43,3.42-3.67,1.99-6.25-1.21" stroke-dasharray="72.453" stroke-dashoffset="72.453"><animate attributeName="stroke-dashoffset" values="72.453" fill="freeze" begin="557b.click" /><animate attributeName="stroke-dashoffset" values="72.453;72.453;0" keyTimes="0;0.793;1" dur="2.634s" fill="freeze" begin="0s;557b.click" /></path><path d="M52.24,36.17c0.53,0.31,1.65,2.34,1.76,2.97c0.11,0.63-0.07,24.96-0.17,28.87" stroke-dasharray="32.365" stroke-dashoffset="32.365"><animate attributeName="stroke-dashoffset" values="32.365" fill="freeze" begin="557b.click" /><animate attributeName="stroke-dashoffset" values="32.365;32.365;0" keyTimes="0;0.89;1" dur="2.958s" fill="freeze" begin="0s;557b.click" /></path><path d="M31.5,74.43c0.39,0.42,0.79,0.77,0.96,1.29c1.35,4.14,2.98,15.56,3.9,22.99" stroke-dasharray="24.962" stroke-dashoffset="24.962"><animate attributeName="stroke-dashoffset" values="24.962" fill="freeze" begin="557b.click" /><animate attributeName="stroke-dashoffset" values="24.962;24.962;0" keyTimes="0;0.922;1" dur="3.208s" fill="freeze" begin="0s;557b.click" /></path><path d="M32.93,76.43c12.32-1.43,34.29-3.22,40.24-3.84c2.18-0.22,3.48,2.27,3.17,3.59c-1.29,5.48-2.26,9.2-5.02,17.1" stroke-dasharray="63.719" stroke-dashoffset="63.719"><animate attributeName="stroke-dashoffset" values="63.719" fill="freeze" begin="557b.click" /><animate attributeName="stroke-dashoffset" values="63.719;63.719;0" keyTimes="0;0.87;1" dur="3.687s" fill="freeze" begin="0s;557b.click" /></path><path d="M36.83,95.66c7.38-0.43,28.3-1.82,37.66-2.26" stroke-dasharray="37.729" stroke-dashoffset="37.729"><animate attributeName="stroke-dashoffset" values="37.729" fill="freeze" begin="557b.click" /><animate attributeName="stroke-dashoffset" values="37.729;37.729;0" keyTimes="0;0.907;1" dur="4.064s" fill="freeze" begin="0s;557b.click" /></path></g></svg>