<svg xmlns="http://www.w3.org/2000/svg" viewBox="0 0 109 109" id="55a9"><g fill="none" stroke="#666" stroke-width="6" stroke-linecap="round" stroke-linejoin="round"><g><g><path d="M9.75,34.07c0.34,0.47,0.69,0.86,0.83,1.46c1.18,4.68,3.58,17.57,4.39,25.97" /><path d="M11.36,35.74c7.14-0.99,16.38-2.64,20.35-3.25c1.45-0.22,2.32,1.33,2.12,2.65c-0.86,5.46-1.87,12.06-3.14,19.61" /><path d="M15.13,57.9c4.66-0.69,10.6-1.39,17-2.46" /></g><g><g><path d="M 64.900813,10.431453 c -0.04496,1.753402 -0.431606,2.697541 -0.962123,3.884459 -4.88255,10.898068 -14.74656,24.25989 -22.614389,30.032629" /><path d="M 59.386395,5.3152892 C 65.6228,6.6784373 73.343249,25.137162 82.898922,36.539902 c 2.099248,2.508193 4.239392,4.955045 6.393167,6.318194" /></g><g><g><path d="M53.53,40.39c0.52,0.26,1.47,0.28,1.99,0.26C59,40.5,73.75,38,77,38.51c0.86,0.13,1.38,0.12,1.82,0.25" /></g><g><path d="M41.77,53.69c0.66,0.92,1.11,1.85,1.33,2.77c0.22,0.92,0.31,38.5,0.22,40.57" /><path d="M44.43,54.98c1.48-0.13,15.06-2.86,16.16-3c1.97-0.26,2.71,1.71,2.47,2.5c-0.24,0.76-0.37,26.53-0.37,37.2c0,9.45-4.39,2.37-5.62,1.19" /><path d="M48.75,62.82c2.87,1,7.41,4.12,8.13,5.67" /><path d="M49.73,74.38c2.41,1.12,6.21,4.62,6.82,6.37" /></g><g><path d="M77.99,48.62c0.3,1.08,1.12,2.93,0.68,4.4c-1.35,4.51-4.91,13.07-8.99,18.47c-1.12,1.48-0.01,2.42,0.29,2.73c4.94,4.94,7.87,11.6,10.35,22.29" /><path d="M92.45,48.12c0.31,1.12,1.16,3.03,0.7,4.56c-1.4,4.68-4.2,12.06-8.42,17.66c-1.16,1.53-0.01,2.51,0.3,2.83c5.12,5.12,9.16,12.01,11.62,23.09" /></g></g></g></g></g><g fill="none" stroke="#000" stroke-width="3" stroke-linecap="round" stroke-linejoin="round"><path d="M9.75,34.07c0.34,0.47,0.69,0.86,0.83,1.46c1.18,4.68,3.58,17.57,4.39,25.97" stroke-dasharray="28.049" stroke-dashoffset="28.049"><animate attributeName="stroke-dashoffset" values="28.049;28.049;0" dur="0.28s" fill="freeze" begin="0s;55a9.click" /></path><path d="M11.36,35.74c7.14-0.99,16.38-2.64,20.35-3.25c1.45-0.22,2.32,1.33,2.12,2.65c-0.86,5.46-1.87,12.06-3.14,19.61" stroke-dasharray="44.41" stroke-dashoffset="44.41"><animate attributeName="stroke-dashoffset" values="44.41" fill="freeze" begin="55a9.click" /><animate attributeName="stroke-dashoffset" values="44.41;44.41;0" keyTimes="0;0.387;1" dur="0.724s" fill="freeze" begin="0s;55a9.click" /></path><path d="M15.13,57.9c4.66-0.69,10.6-1.39,17-2.46" stroke-dasharray="17.179" stroke-dashoffset="17.179"><animate attributeName="stroke-dashoffset" values="17.179" fill="freeze" begin="55a9.click" /><animate attributeName="stroke-dashoffset" values="17.179;17.179;0" keyTimes="0;0.808;1" dur="0.896s" fill="freeze" begin="0s;55a9.click" /></path><path d="M 64.900813,10.431453 c -0.04496,1.753402 -0.431606,2.697541 -0.962123,3.884459 -4.88255,10.898068 -14.74656,24.25989 -22.614389,30.032629" stroke-dasharray="41.952" stroke-dashoffset="41.952"><animate attributeName="stroke-dashoffset" values="41.952" fill="freeze" begin="55a9.click" /><animate attributeName="stroke-dashoffset" values="41.952;41.952;0" keyTimes="0;0.681;1" dur="1.316s" fill="freeze" begin="0s;55a9.click" /></path><path d="M 59.386395,5.3152892 C 65.6228,6.6784373 73.343249,25.137162 82.898922,36.539902 c 2.099248,2.508193 4.239392,4.955045 6.393167,6.318194" stroke-dasharray="48.502" stroke-dashoffset="48.502"><animate attributeName="stroke-dashoffset" values="48.502" fill="freeze" begin="55a9.click" /><animate attributeName="stroke-dashoffset" values="48.502;48.502;0" keyTimes="0;0.731;1" dur="1.801s" fill="freeze" begin="0s;55a9.click" /></path><path d="M53.53,40.39c0.52,0.26,1.47,0.28,1.99,0.26C59,40.5,73.75,38,77,38.51c0.86,0.13,1.38,0.12,1.82,0.25" stroke-dasharray="25.475" stroke-dashoffset="25.475"><animate attributeName="stroke-dashoffset" values="25.475" fill="freeze" begin="55a9.click" /><animate attributeName="stroke-dashoffset" values="25.475;25.475;0" keyTimes="0;0.876;1" dur="2.056s" fill="freeze" begin="0s;55a9.click" /></path><path d="M41.77,53.69c0.66,0.92,1.11,1.85,1.33,2.77c0.22,0.92,0.31,38.5,0.22,40.57" stroke-dasharray="43.666" stroke-dashoffset="43.666"><animate attributeName="stroke-dashoffset" values="43.666" fill="freeze" begin="55a9.click" /><animate attributeName="stroke-dashoffset" values="43.666;43.666;0" keyTimes="0;0.825;1" dur="2.493s" fill="freeze" begin="0s;55a9.click" /></path><path d="M44.43,54.98c1.48-0.13,15.06-2.86,16.16-3c1.97-0.26,2.71,1.71,2.47,2.5c-0.24,0.76-0.37,26.53-0.37,37.2c0,9.45-4.39,2.37-5.62,1.19" stroke-dasharray="68.798" stroke-dashoffset="68.798"><animate attributeName="stroke-dashoffset" values="68.798" fill="freeze" begin="55a9.click" /><animate attributeName="stroke-dashoffset" values="68.798;68.798;0" keyTimes="0;0.828;1" dur="3.01s" fill="freeze" begin="0s;55a9.click" /></path><path d="M48.75,62.82c2.87,1,7.41,4.12,8.13,5.67" stroke-dasharray="10.044" stroke-dashoffset="10.044"><animate attributeName="stroke-dashoffset" values="10.044" fill="freeze" begin="55a9.click" /><animate attributeName="stroke-dashoffset" values="10.044;10.044;0" keyTimes="0;0.937;1" dur="3.211s" fill="freeze" begin="0s;55a9.click" /></path><path d="M49.73,74.38c2.41,1.12,6.21,4.62,6.82,6.37" stroke-dasharray="9.469" stroke-dashoffset="9.469"><animate attributeName="stroke-dashoffset" values="9.469" fill="freeze" begin="55a9.click" /><animate attributeName="stroke-dashoffset" values="9.469;9.469;0" keyTimes="0;0.944;1" dur="3.4s" fill="freeze" begin="0s;55a9.click" /></path><path d="M77.99,48.62c0.3,1.08,1.12,2.93,0.68,4.4c-1.35,4.51-4.91,13.07-8.99,18.47c-1.12,1.48-0.01,2.42,0.29,2.73c4.94,4.94,7.87,11.6,10.35,22.29" stroke-dasharray="53.146" stroke-dashoffset="53.146"><animate attributeName="stroke-dashoffset" values="53.146" fill="freeze" begin="55a9.click" /><animate attributeName="stroke-dashoffset" values="53.146;53.146;0" keyTimes="0;0.865;1" dur="3.931s" fill="freeze" begin="0s;55a9.click" /></path><path d="M92.45,48.12c0.31,1.12,1.16,3.03,0.7,4.56c-1.4,4.68-4.2,12.06-8.42,17.66c-1.16,1.53-0.01,2.51,0.3,2.83c5.12,5.12,9.16,12.01,11.62,23.09" stroke-dasharray="53.763" stroke-dashoffset="53.763"><animate attributeName="stroke-dashoffset" values="53.763" fill="freeze" begin="55a9.click" /><animate attributeName="stroke-dashoffset" values="53.763;53.763;0" keyTimes="0;0.88;1" dur="4.469s" fill="freeze" begin="0s;55a9.click" /></path></g></svg>