<svg xmlns="http://www.w3.org/2000/svg" viewBox="0 0 109 109" id="55f7"><g fill="none" stroke="#666" stroke-width="6" stroke-linecap="round" stroke-linejoin="round"><g><g><path d="M8.75,34.56c0.32,0.45,0.64,0.82,0.78,1.38c1.1,4.42,2.81,18.12,3.56,26.06" /><path d="M9.72,36.68c8-1.94,15.17-3.11,18.88-3.69c1.36-0.21,2.17,1.26,1.98,2.51c-0.8,5.17-2.19,13.15-3.39,20.3" /><path d="M13.29,57.86c4.36-0.66,9.62-0.92,15.61-1.93" /></g><g><g><g><path d="M37.55,27.75c0.72,0.38,2.05,0.44,2.77,0.38c5.55-0.43,14.76-2.06,21.49-3.17c1.2-0.2,1.93,0.18,2.53,0.37" /><path d="M49.78,13c0.1,0.29,1.5,1.53,1.5,3.42c0,12.09-0.3,9.47-0.3,25.45" /><path d="M34.53,43.74c1.07,0.7,3.02,0.78,4.09,0.7c3.37-0.23,18.54-3.31,23.26-3.6c1.78-0.11,2.85,0.33,3.74,0.69" /></g><g><g><g><path d="M49.82,47.39c0.54,0.4,1.42,1.96,1.42,2.77c0,2.96-0.17,4.12-0.07,6.62" /><path d="M34.71,59.01c0.72,0.26,2.23,0.46,2.9,0.37c6.4-0.88,18.87-2.98,25.12-3.83c1.12-0.15,1.69,0.03,2.53,0.46" /></g><g><path d="M48.07,66.57c2.93,0.68,9.37,0.59,12.99,1.52c0.61,0.16,1.21,0.8,1.11,2.05c-0.27,3.29-6.17,17.75-8.49,20.42c-2.51,2.9-4.42,1.19-5.95-2" /><path d="M48.31,60.34c0.24,0.9,0.19,1.92-0.09,2.93c-1.93,7-5.46,21.22-16.17,27.77" /></g></g></g></g><g><g><g><path d="M76.21,12.61c0.03,0.83,0.07,2.18-0.05,3.35C75.4,24.04,72.25,38,67.32,50.13" /><path d="M74,35.77c0.02-0.17,1.73,0,2.17-0.05c4.52-0.51,10.37-3.3,17.28-4.12c0.78-0.09,1.25-0.02,1.45,0.08" /></g><g><g><path d="M87.88,37c0.4,1.37,0.62,2.35,0.2,4.85c-3.81,22.72-12.49,43.02-25.02,50.9" /></g><path d="M70.04,48.18c4.51,10.45,17.28,34.85,25.21,43.25c1.53,1.62,2.5,1.88,3.75,2.06" /></g></g></g></g></g></g><g fill="none" stroke="#000" stroke-width="3" stroke-linecap="round" stroke-linejoin="round"><path d="M8.75,34.56c0.32,0.45,0.64,0.82,0.78,1.38c1.1,4.42,2.81,18.12,3.56,26.06" stroke-dasharray="27.912" stroke-dashoffset="27.912"><animate attributeName="stroke-dashoffset" values="27.912;27.912;0" dur="0.279s" fill="freeze" begin="0s;55f7.click" /></path><path d="M9.72,36.68c8-1.94,15.17-3.11,18.88-3.69c1.36-0.21,2.17,1.26,1.98,2.51c-0.8,5.17-2.19,13.15-3.39,20.3" stroke-dasharray="43.539" stroke-dashoffset="43.539"><animate attributeName="stroke-dashoffset" values="43.539" fill="freeze" begin="55f7.click" /><animate attributeName="stroke-dashoffset" values="43.539;43.539;0" keyTimes="0;0.391;1" dur="0.714s" fill="freeze" begin="0s;55f7.click" /></path><path d="M13.29,57.86c4.36-0.66,9.62-0.92,15.61-1.93" stroke-dasharray="15.732" stroke-dashoffset="15.732"><animate attributeName="stroke-dashoffset" values="15.732" fill="freeze" begin="55f7.click" /><animate attributeName="stroke-dashoffset" values="15.732;15.732;0" keyTimes="0;0.82;1" dur="0.871s" fill="freeze" begin="0s;55f7.click" /></path><path d="M37.55,27.75c0.72,0.38,2.05,0.44,2.77,0.38c5.55-0.43,14.76-2.06,21.49-3.17c1.2-0.2,1.93,0.18,2.53,0.37" stroke-dasharray="27.146" stroke-dashoffset="27.146"><animate attributeName="stroke-dashoffset" values="27.146" fill="freeze" begin="55f7.click" /><animate attributeName="stroke-dashoffset" values="27.146;27.146;0" keyTimes="0;0.763;1" dur="1.142s" fill="freeze" begin="0s;55f7.click" /></path><path d="M49.78,13c0.1,0.29,1.5,1.53,1.5,3.42c0,12.09-0.3,9.47-0.3,25.45" stroke-dasharray="29.266" stroke-dashoffset="29.266"><animate attributeName="stroke-dashoffset" values="29.266" fill="freeze" begin="55f7.click" /><animate attributeName="stroke-dashoffset" values="29.266;29.266;0" keyTimes="0;0.796;1" dur="1.435s" fill="freeze" begin="0s;55f7.click" /></path><path d="M34.53,43.74c1.07,0.7,3.02,0.78,4.09,0.7c3.37-0.23,18.54-3.31,23.26-3.6c1.78-0.11,2.85,0.33,3.74,0.69" stroke-dasharray="31.597" stroke-dashoffset="31.597"><animate attributeName="stroke-dashoffset" values="31.597" fill="freeze" begin="55f7.click" /><animate attributeName="stroke-dashoffset" values="31.597;31.597;0" keyTimes="0;0.82;1" dur="1.751s" fill="freeze" begin="0s;55f7.click" /></path><path d="M49.82,47.39c0.54,0.4,1.42,1.96,1.42,2.77c0,2.96-0.17,4.12-0.07,6.62" stroke-dasharray="9.798" stroke-dashoffset="9.798"><animate attributeName="stroke-dashoffset" values="9.798" fill="freeze" begin="55f7.click" /><animate attributeName="stroke-dashoffset" values="9.798;9.798;0" keyTimes="0;0.899;1" dur="1.947s" fill="freeze" begin="0s;55f7.click" /></path><path d="M34.71,59.01c0.72,0.26,2.23,0.46,2.9,0.37c6.4-0.88,18.87-2.98,25.12-3.83c1.12-0.15,1.69,0.03,2.53,0.46" stroke-dasharray="30.976" stroke-dashoffset="30.976"><animate attributeName="stroke-dashoffset" values="30.976" fill="freeze" begin="55f7.click" /><animate attributeName="stroke-dashoffset" values="30.976;30.976;0" keyTimes="0;0.863;1" dur="2.257s" fill="freeze" begin="0s;55f7.click" /></path><path d="M48.07,66.57c2.93,0.68,9.37,0.59,12.99,1.52c0.61,0.16,1.21,0.8,1.11,2.05c-0.27,3.29-6.17,17.75-8.49,20.42c-2.51,2.9-4.42,1.19-5.95-2" stroke-dasharray="45.993" stroke-dashoffset="45.993"><animate attributeName="stroke-dashoffset" values="45.993" fill="freeze" begin="55f7.click" /><animate attributeName="stroke-dashoffset" values="45.993;45.993;0" keyTimes="0;0.831;1" dur="2.717s" fill="freeze" begin="0s;55f7.click" /></path><path d="M48.31,60.34c0.24,0.9,0.19,1.92-0.09,2.93c-1.93,7-5.46,21.22-16.17,27.77" stroke-dasharray="35.915" stroke-dashoffset="35.915"><animate attributeName="stroke-dashoffset" values="35.915" fill="freeze" begin="55f7.click" /><animate attributeName="stroke-dashoffset" values="35.915;35.915;0" keyTimes="0;0.883;1" dur="3.076s" fill="freeze" begin="0s;55f7.click" /></path><path d="M76.21,12.61c0.03,0.83,0.07,2.18-0.05,3.35C75.4,24.04,72.25,38,67.32,50.13" stroke-dasharray="38.752" stroke-dashoffset="38.752"><animate attributeName="stroke-dashoffset" values="38.752" fill="freeze" begin="55f7.click" /><animate attributeName="stroke-dashoffset" values="38.752;38.752;0" keyTimes="0;0.888;1" dur="3.464s" fill="freeze" begin="0s;55f7.click" /></path><path d="M74,35.77c0.02-0.17,1.73,0,2.17-0.05c4.52-0.51,10.37-3.3,17.28-4.12c0.78-0.09,1.25-0.02,1.45,0.08" stroke-dasharray="21.447" stroke-dashoffset="21.447"><animate attributeName="stroke-dashoffset" values="21.447" fill="freeze" begin="55f7.click" /><animate attributeName="stroke-dashoffset" values="21.447;21.447;0" keyTimes="0;0.942;1" dur="3.678s" fill="freeze" begin="0s;55f7.click" /></path><path d="M87.88,37c0.4,1.37,0.62,2.35,0.2,4.85c-3.81,22.72-12.49,43.02-25.02,50.9" stroke-dasharray="63.089" stroke-dashoffset="63.089"><animate attributeName="stroke-dashoffset" values="63.089" fill="freeze" begin="55f7.click" /><animate attributeName="stroke-dashoffset" values="63.089;63.089;0" keyTimes="0;0.886;1" dur="4.152s" fill="freeze" begin="0s;55f7.click" /></path><path d="M70.04,48.18c4.51,10.45,17.28,34.85,25.21,43.25c1.53,1.62,2.5,1.88,3.75,2.06" stroke-dasharray="54.595" stroke-dashoffset="54.595"><animate attributeName="stroke-dashoffset" values="54.595" fill="freeze" begin="55f7.click" /><animate attributeName="stroke-dashoffset" values="54.595;54.595;0" keyTimes="0;0.884;1" dur="4.698s" fill="freeze" begin="0s;55f7.click" /></path></g></svg>