<svg xmlns="http://www.w3.org/2000/svg" viewBox="0 0 109 109" id="5631"><g fill="none" stroke="#666" stroke-width="6" stroke-linecap="round" stroke-linejoin="round"><g><g><path d="M12.14,34.92c0.77,0.83,1.16,1.81,1.16,2.95c0.77,4.42,1.66,11.38,2.45,17.38c0.17,1.31,0.34,2.57,0.5,3.75" /><path d="M14.06,36.33c6.32-1.39,10.59-2.19,15.57-3.08c3.19-0.57,4.6-0.05,4.07,3.36c-0.73,4.66-1.08,9.77-2.52,17.42" /><path d="M16.97,56.89c4.08-0.54,8.32-1.31,13.53-1.89c0.92-0.1,1.88-0.21,2.92-0.34" /></g><g p4:phon="属" xmlns:p4="http://kanjivg.tagaini.net"><g><path d="M43.1,17.43c1.43,0.76,3.59,0.85,5.1,0.71c8.41-0.75,24.18-2.27,33.68-2.91c3.29-0.22,4.28,1.27,3.8,3.81c-0.3,1.58-0.67,3.21-1.89,7.4" /><path d="M47.5,30.39c8-0.89,21.73-1.82,31.89-2.54c2.12-0.15,4.27-0.37,6.4-0.35" /><path d="M45.39,18.7c0.83,0.83,1.46,2.05,1.45,3.06c-0.09,27.37-5.53,53.02-19.09,67.51" /></g><g><g><path d="M78.69,32.5c0,0.88-0.5,1.7-1.29,2.28c-4.67,3.41-10.33,5.5-21.63,8.34" /></g><g><path d="M52.16,47.86c0.62,0.62,0.84,1.39,1.1,2.36c0.72,2.68,0.9,3.66,1.62,7.77c0.19,1.1,0.4,1.58,0.62,2.96" /><path d="M54.41,49.08c11.84-1.58,24.02-3.57,30.06-3.83c2.36-0.1,3.47,0.82,3.15,2.7c-0.66,3.89-1.13,5.55-1.87,7.68" /><path d="M56.56,59.09c5.79-0.52,17.41-1.56,26.65-2.2c1.47-0.1,2.88-0.19,4.17-0.27" /></g><g><path d="M48.24,68.39c0.81,0.81,1.1,1.96,1.16,2.82c0.24,3.51,0.38,12.99,0.44,19.04c0.03,2.76,0.04,4.81,0.04,5.25" /><path d="M49.97,69.63c7.28-0.83,30.19-2.84,39.04-3.79c4.47-0.47,6.13-0.07,5.75,4.78c-0.62,8.13-1.09,13.54-3.13,19.82C89.5,97,86.5,92.5,85.38,90.83" /><g><path d="M68.52,41.48c0.88,0.88,1.21,2.15,1.21,3.62c0,4.04-0.04,29.77-0.04,34.18" /><path d="M58.38,81.34c0.62,1.03,1.5,1.28,2.96,0.95c4.85-1.11,17.9-4.35,19.36-4.78" /><path d="M79.12,72.62c1.91,1.95,4.94,8.04,5.42,11.07" /></g></g></g></g></g></g><g fill="none" stroke="#000" stroke-width="3" stroke-linecap="round" stroke-linejoin="round"><path d="M12.14,34.92c0.77,0.83,1.16,1.81,1.16,2.95c0.77,4.42,1.66,11.38,2.45,17.38c0.17,1.31,0.34,2.57,0.5,3.75" stroke-dasharray="24.587" stroke-dashoffset="24.587"><animate attributeName="stroke-dashoffset" values="24.587;24.587;0" dur="0.246s" fill="freeze" begin="0s;5631.click" /></path><path d="M14.06,36.33c6.32-1.39,10.59-2.19,15.57-3.08c3.19-0.57,4.6-0.05,4.07,3.36c-0.73,4.66-1.08,9.77-2.52,17.42" stroke-dasharray="40.397" stroke-dashoffset="40.397"><animate attributeName="stroke-dashoffset" values="40.397" fill="freeze" begin="5631.click" /><animate attributeName="stroke-dashoffset" values="40.397;40.397;0" keyTimes="0;0.378;1" dur="0.65s" fill="freeze" begin="0s;5631.click" /></path><path d="M16.97,56.89c4.08-0.54,8.32-1.31,13.53-1.89c0.92-0.1,1.88-0.21,2.92-0.34" stroke-dasharray="16.603" stroke-dashoffset="16.603"><animate attributeName="stroke-dashoffset" values="16.603" fill="freeze" begin="5631.click" /><animate attributeName="stroke-dashoffset" values="16.603;16.603;0" keyTimes="0;0.797;1" dur="0.816s" fill="freeze" begin="0s;5631.click" /></path><path d="M43.1,17.43c1.43,0.76,3.59,0.85,5.1,0.71c8.41-0.75,24.18-2.27,33.68-2.91c3.29-0.22,4.28,1.27,3.8,3.81c-0.3,1.58-0.67,3.21-1.89,7.4" stroke-dasharray="53.291" stroke-dashoffset="53.291"><animate attributeName="stroke-dashoffset" values="53.291" fill="freeze" begin="5631.click" /><animate attributeName="stroke-dashoffset" values="53.291;53.291;0" keyTimes="0;0.605;1" dur="1.349s" fill="freeze" begin="0s;5631.click" /></path><path d="M47.5,30.39c8-0.89,21.73-1.82,31.89-2.54c2.12-0.15,4.27-0.37,6.4-0.35" stroke-dasharray="38.405" stroke-dashoffset="38.405"><animate attributeName="stroke-dashoffset" values="38.405" fill="freeze" begin="5631.click" /><animate attributeName="stroke-dashoffset" values="38.405;38.405;0" keyTimes="0;0.778;1" dur="1.733s" fill="freeze" begin="0s;5631.click" /></path><path d="M45.39,18.7c0.83,0.83,1.46,2.05,1.45,3.06c-0.09,27.37-5.53,53.02-19.09,67.51" stroke-dasharray="75.142" stroke-dashoffset="75.142"><animate attributeName="stroke-dashoffset" values="75.142" fill="freeze" begin="5631.click" /><animate attributeName="stroke-dashoffset" values="75.142;75.142;0" keyTimes="0;0.754;1" dur="2.298s" fill="freeze" begin="0s;5631.click" /></path><path d="M78.69,32.5c0,0.88-0.5,1.7-1.29,2.28c-4.67,3.41-10.33,5.5-21.63,8.34" stroke-dasharray="26.046" stroke-dashoffset="26.046"><animate attributeName="stroke-dashoffset" values="26.046" fill="freeze" begin="5631.click" /><animate attributeName="stroke-dashoffset" values="26.046;26.046;0" keyTimes="0;0.898;1" dur="2.558s" fill="freeze" begin="0s;5631.click" /></path><path d="M52.16,47.86c0.62,0.62,0.84,1.39,1.1,2.36c0.72,2.68,0.9,3.66,1.62,7.77c0.19,1.1,0.4,1.58,0.62,2.96" stroke-dasharray="13.604" stroke-dashoffset="13.604"><animate attributeName="stroke-dashoffset" values="13.604" fill="freeze" begin="5631.click" /><animate attributeName="stroke-dashoffset" values="13.604;13.604;0" keyTimes="0;0.904;1" dur="2.83s" fill="freeze" begin="0s;5631.click" /></path><path d="M54.41,49.08c11.84-1.58,24.02-3.57,30.06-3.83c2.36-0.1,3.47,0.82,3.15,2.7c-0.66,3.89-1.13,5.55-1.87,7.68" stroke-dasharray="43.212" stroke-dashoffset="43.212"><animate attributeName="stroke-dashoffset" values="43.212" fill="freeze" begin="5631.click" /><animate attributeName="stroke-dashoffset" values="43.212;43.212;0" keyTimes="0;0.868;1" dur="3.262s" fill="freeze" begin="0s;5631.click" /></path><path d="M56.56,59.09c5.79-0.52,17.41-1.56,26.65-2.2c1.47-0.1,2.88-0.19,4.17-0.27" stroke-dasharray="30.921" stroke-dashoffset="30.921"><animate attributeName="stroke-dashoffset" values="30.921" fill="freeze" begin="5631.click" /><animate attributeName="stroke-dashoffset" values="30.921;30.921;0" keyTimes="0;0.913;1" dur="3.571s" fill="freeze" begin="0s;5631.click" /></path><path d="M48.24,68.39c0.81,0.81,1.1,1.96,1.16,2.82c0.24,3.51,0.38,12.99,0.44,19.04c0.03,2.76,0.04,4.81,0.04,5.25" stroke-dasharray="27.411" stroke-dashoffset="27.411"><animate attributeName="stroke-dashoffset" values="27.411" fill="freeze" begin="5631.click" /><animate attributeName="stroke-dashoffset" values="27.411;27.411;0" keyTimes="0;0.929;1" dur="3.845s" fill="freeze" begin="0s;5631.click" /></path><path d="M49.97,69.63c7.28-0.83,30.19-2.84,39.04-3.79c4.47-0.47,6.13-0.07,5.75,4.78c-0.62,8.13-1.09,13.54-3.13,19.82C89.5,97,86.5,92.5,85.38,90.83" stroke-dasharray="78.349" stroke-dashoffset="78.349"><animate attributeName="stroke-dashoffset" values="78.349" fill="freeze" begin="5631.click" /><animate attributeName="stroke-dashoffset" values="78.349;78.349;0" keyTimes="0;0.867;1" dur="4.434s" fill="freeze" begin="0s;5631.click" /></path><path d="M68.52,41.48c0.88,0.88,1.21,2.15,1.21,3.62c0,4.04-0.04,29.77-0.04,34.18" stroke-dasharray="38.1" stroke-dashoffset="38.1"><animate attributeName="stroke-dashoffset" values="38.1" fill="freeze" begin="5631.click" /><animate attributeName="stroke-dashoffset" values="38.1;38.1;0" keyTimes="0;0.921;1" dur="4.815s" fill="freeze" begin="0s;5631.click" /></path><path d="M58.38,81.34c0.62,1.03,1.5,1.28,2.96,0.95c4.85-1.11,17.9-4.35,19.36-4.78" stroke-dasharray="23.321" stroke-dashoffset="23.321"><animate attributeName="stroke-dashoffset" values="23.321" fill="freeze" begin="5631.click" /><animate attributeName="stroke-dashoffset" values="23.321;23.321;0" keyTimes="0;0.954;1" dur="5.048s" fill="freeze" begin="0s;5631.click" /></path><path d="M79.12,72.62c1.91,1.95,4.94,8.04,5.42,11.07" stroke-dasharray="12.436" stroke-dashoffset="12.436"><animate attributeName="stroke-dashoffset" values="12.436" fill="freeze" begin="5631.click" /><animate attributeName="stroke-dashoffset" values="12.436;12.436;0" keyTimes="0;0.953;1" dur="5.297s" fill="freeze" begin="0s;5631.click" /></path></g></svg>