<svg xmlns="http://www.w3.org/2000/svg" viewBox="0 0 109 109" id="564c"><g fill="none" stroke="#666" stroke-width="6" stroke-linecap="round" stroke-linejoin="round"><g><g><path d="M12.25,33.99c0.37,0.51,0.76,0.94,0.92,1.58c1.29,5.07,2.84,19.04,3.73,28.13" /><path d="M13.58,35.92c6.42-1.22,16.55-2.56,20.92-3.23c1.6-0.24,2.56,1.44,2.33,2.87c-0.95,5.92-2.55,15.07-3.96,23.25" /><path d="M17.07,61.75c5.14-0.75,11.33-1.05,18.39-2.21" /></g><g><g><path d="M60.99,9.94c0.01,0.55,0.01,2.19-0.37,2.78c-2.24,3.52-8.74,10.3-15.29,14.06" /><path d="M72.21,7.7c1.03,0.16,2.01,0.36,2.67,0.78c6.04,3.78,13.32,11.61,19.04,13.98c2.47,1.02,3.35,1.57,5.75,1.9" /><g><path d="M46.25,30.45c0.37,0.49,0.86,2.03,1.06,2.63c1.66,4.97,4,17.36,4.98,26.51" /><path d="M48.72,31.84c12.19-1.46,32.5-3.31,42.32-3.55c3.01-0.07,2.71,2.67,2.54,4.03c-0.6,4.98-2.62,15.55-4.51,24.06" /><path d="M69.23,31.49c0.52,0.71,1,1.74,0.99,2.72c-0.04,5.79,0.31,12.91,0.31,21.33" /><path d="M56.66,38.08c2.2,2.02,5.68,8.13,6.23,11.12" /><path d="M84.01,35.64c0.13,0.44,0,0.95-0.18,1.46c-1.07,2.99-4.18,9.62-7.31,12.69" /><path d="M52.46,57.06c10.09-0.61,25.83-2.32,36.71-2.48" /></g></g><g><path d="M53.5,67.51c0.52,0.68,1.64,3.04,1.73,3.94c0.84,8.48,2.56,18.24,2.91,26.74" /><path d="M54.2,68.58c2.94-0.11,29.14-2.87,31.81-3.01c2.23-0.11,2.85,2.69,2.79,3.4c-0.35,4.14-3.56,18.78-4.78,28.28" /><path d="M56.53,81.24c3.97,0,24.53-2.11,29.02-2.11" /><path d="M58.51,95.48c7.87-0.44,18.11-1.4,25.71-1.4" /></g></g></g></g><g fill="none" stroke="#000" stroke-width="3" stroke-linecap="round" stroke-linejoin="round"><path d="M12.25,33.99c0.37,0.51,0.76,0.94,0.92,1.58c1.29,5.07,2.84,19.04,3.73,28.13" stroke-dasharray="30.234" stroke-dashoffset="30.234"><animate attributeName="stroke-dashoffset" values="30.234;30.234;0" dur="0.302s" fill="freeze" begin="0s;564c.click" /></path><path d="M13.58,35.92c6.42-1.22,16.55-2.56,20.92-3.23c1.6-0.24,2.56,1.44,2.33,2.87c-0.95,5.92-2.55,15.07-3.96,23.25" stroke-dasharray="49.056" stroke-dashoffset="49.056"><animate attributeName="stroke-dashoffset" values="49.056" fill="freeze" begin="564c.click" /><animate attributeName="stroke-dashoffset" values="49.056;49.056;0" keyTimes="0;0.381;1" dur="0.793s" fill="freeze" begin="0s;564c.click" /></path><path d="M17.07,61.75c5.14-0.75,11.33-1.05,18.39-2.21" stroke-dasharray="18.526" stroke-dashoffset="18.526"><animate attributeName="stroke-dashoffset" values="18.526" fill="freeze" begin="564c.click" /><animate attributeName="stroke-dashoffset" values="18.526;18.526;0" keyTimes="0;0.811;1" dur="0.978s" fill="freeze" begin="0s;564c.click" /></path><path d="M60.99,9.94c0.01,0.55,0.01,2.19-0.37,2.78c-2.24,3.52-8.74,10.3-15.29,14.06" stroke-dasharray="23.753" stroke-dashoffset="23.753"><animate attributeName="stroke-dashoffset" values="23.753" fill="freeze" begin="564c.click" /><animate attributeName="stroke-dashoffset" values="23.753;23.753;0" keyTimes="0;0.804;1" dur="1.216s" fill="freeze" begin="0s;564c.click" /></path><path d="M72.21,7.7c1.03,0.16,2.01,0.36,2.67,0.78c6.04,3.78,13.32,11.61,19.04,13.98c2.47,1.02,3.35,1.57,5.75,1.9" stroke-dasharray="32.561" stroke-dashoffset="32.561"><animate attributeName="stroke-dashoffset" values="32.561" fill="freeze" begin="564c.click" /><animate attributeName="stroke-dashoffset" values="32.561;32.561;0" keyTimes="0;0.789;1" dur="1.542s" fill="freeze" begin="0s;564c.click" /></path><path d="M46.25,30.45c0.37,0.49,0.86,2.03,1.06,2.63c1.66,4.97,4,17.36,4.98,26.51" stroke-dasharray="29.851" stroke-dashoffset="29.851"><animate attributeName="stroke-dashoffset" values="29.851" fill="freeze" begin="564c.click" /><animate attributeName="stroke-dashoffset" values="29.851;29.851;0" keyTimes="0;0.838;1" dur="1.841s" fill="freeze" begin="0s;564c.click" /></path><path d="M48.72,31.84c12.19-1.46,32.5-3.31,42.32-3.55c3.01-0.07,2.71,2.67,2.54,4.03c-0.6,4.98-2.62,15.55-4.51,24.06" stroke-dasharray="72.651" stroke-dashoffset="72.651"><animate attributeName="stroke-dashoffset" values="72.651" fill="freeze" begin="564c.click" /><animate attributeName="stroke-dashoffset" values="72.651;72.651;0" keyTimes="0;0.771;1" dur="2.387s" fill="freeze" begin="0s;564c.click" /></path><path d="M69.23,31.49c0.52,0.71,1,1.74,0.99,2.72c-0.04,5.79,0.31,12.91,0.31,21.33" stroke-dasharray="24.275" stroke-dashoffset="24.275"><animate attributeName="stroke-dashoffset" values="24.275" fill="freeze" begin="564c.click" /><animate attributeName="stroke-dashoffset" values="24.275;24.275;0" keyTimes="0;0.908;1" dur="2.63s" fill="freeze" begin="0s;564c.click" /></path><path d="M56.66,38.08c2.2,2.02,5.68,8.13,6.23,11.12" stroke-dasharray="12.872" stroke-dashoffset="12.872"><animate attributeName="stroke-dashoffset" values="12.872" fill="freeze" begin="564c.click" /><animate attributeName="stroke-dashoffset" values="12.872;12.872;0" keyTimes="0;0.911;1" dur="2.887s" fill="freeze" begin="0s;564c.click" /></path><path d="M84.01,35.64c0.13,0.44,0,0.95-0.18,1.46c-1.07,2.99-4.18,9.62-7.31,12.69" stroke-dasharray="16.231" stroke-dashoffset="16.231"><animate attributeName="stroke-dashoffset" values="16.231" fill="freeze" begin="564c.click" /><animate attributeName="stroke-dashoffset" values="16.231;16.231;0" keyTimes="0;0.947;1" dur="3.049s" fill="freeze" begin="0s;564c.click" /></path><path d="M52.46,57.06c10.09-0.61,25.83-2.32,36.71-2.48" stroke-dasharray="36.8" stroke-dashoffset="36.8"><animate attributeName="stroke-dashoffset" values="36.8" fill="freeze" begin="564c.click" /><animate attributeName="stroke-dashoffset" values="36.8;36.8;0" keyTimes="0;0.892;1" dur="3.417s" fill="freeze" begin="0s;564c.click" /></path><path d="M53.5,67.51c0.52,0.68,1.64,3.04,1.73,3.94c0.84,8.48,2.56,18.24,2.91,26.74" stroke-dasharray="31.234" stroke-dashoffset="31.234"><animate attributeName="stroke-dashoffset" values="31.234" fill="freeze" begin="564c.click" /><animate attributeName="stroke-dashoffset" values="31.234;31.234;0" keyTimes="0;0.916;1" dur="3.729s" fill="freeze" begin="0s;564c.click" /></path><path d="M54.2,68.58c2.94-0.11,29.14-2.87,31.81-3.01c2.23-0.11,2.85,2.69,2.79,3.4c-0.35,4.14-3.56,18.78-4.78,28.28" stroke-dasharray="65.547" stroke-dashoffset="65.547"><animate attributeName="stroke-dashoffset" values="65.547" fill="freeze" begin="564c.click" /><animate attributeName="stroke-dashoffset" values="65.547;65.547;0" keyTimes="0;0.883;1" dur="4.222s" fill="freeze" begin="0s;564c.click" /></path><path d="M56.53,81.24c3.97,0,24.53-2.11,29.02-2.11" stroke-dasharray="29.102" stroke-dashoffset="29.102"><animate attributeName="stroke-dashoffset" values="29.102" fill="freeze" begin="564c.click" /><animate attributeName="stroke-dashoffset" values="29.102;29.102;0" keyTimes="0;0.936;1" dur="4.513s" fill="freeze" begin="0s;564c.click" /></path><path d="M58.51,95.48c7.87-0.44,18.11-1.4,25.71-1.4" stroke-dasharray="25.753" stroke-dashoffset="25.753"><animate attributeName="stroke-dashoffset" values="25.753" fill="freeze" begin="564c.click" /><animate attributeName="stroke-dashoffset" values="25.753;25.753;0" keyTimes="0;0.946;1" dur="4.771s" fill="freeze" begin="0s;564c.click" /></path></g></svg>