<svg xmlns="http://www.w3.org/2000/svg" viewBox="0 0 109 109" id="56db"><g fill="none" stroke="#666" stroke-width="6" stroke-linecap="round" stroke-linejoin="round"><g><g><path d="M14.5,31.48c1.51,1.51,2.25,3.27,2.53,5.2c1.14,7.9,2.61,25.18,4.39,40.83c0.29,2.55,0.34,3.81,0.64,6.24" /><path d="M17.85,34.04c21.65-1.92,51.52-3.92,67.82-4.3c4.85-0.11,6.31,2.62,6.04,5.38c-0.9,9.02-4.17,28.29-6.41,39.62c-0.49,2.49-0.94,4.6-1.3,6.13" /></g><g><g><path d="M40.5,36c0.08,0.64,0.12,1.65-0.16,2.57c-2.22,7.3-5.1,14.55-13.35,22.68" /></g><path d="M59.75,34.25c0.8,1.05,1.44,2.29,1.49,3.92c0.11,3.62,0.05,7.05,0.05,9.89c0,6.94,0.71,7.54,9.47,7.54c4.99,0,8.86-0.72,10.25-1.72" /></g><g><path d="M22.73,79.32c13.77-0.57,43.64-1.8,61.18-2.08" /></g></g></g><g fill="none" stroke="#000" stroke-width="3" stroke-linecap="round" stroke-linejoin="round"><path d="M14.5,31.48c1.51,1.51,2.25,3.27,2.53,5.2c1.14,7.9,2.61,25.18,4.39,40.83c0.29,2.55,0.34,3.81,0.64,6.24" stroke-dasharray="53.23" stroke-dashoffset="53.23"><animate attributeName="stroke-dashoffset" values="53.23;53.23;0" dur="0.532s" fill="freeze" begin="0s;56db.click" /></path><path d="M17.85,34.04c21.65-1.92,51.52-3.92,67.82-4.3c4.85-0.11,6.31,2.62,6.04,5.38c-0.9,9.02-4.17,28.29-6.41,39.62c-0.49,2.49-0.94,4.6-1.3,6.13" stroke-dasharray="123.778" stroke-dashoffset="123.778"><animate attributeName="stroke-dashoffset" values="123.778" fill="freeze" begin="56db.click" /><animate attributeName="stroke-dashoffset" values="123.778;123.778;0" keyTimes="0;0.364;1" dur="1.463s" fill="freeze" begin="0s;56db.click" /></path><path d="M40.5,36c0.08,0.64,0.12,1.65-0.16,2.57c-2.22,7.3-5.1,14.55-13.35,22.68" stroke-dasharray="29.233" stroke-dashoffset="29.233"><animate attributeName="stroke-dashoffset" values="29.233" fill="freeze" begin="56db.click" /><animate attributeName="stroke-dashoffset" values="29.233;29.233;0" keyTimes="0;0.834;1" dur="1.755s" fill="freeze" begin="0s;56db.click" /></path><path d="M59.75,34.25c0.8,1.05,1.44,2.29,1.49,3.92c0.11,3.62,0.05,7.05,0.05,9.89c0,6.94,0.71,7.54,9.47,7.54c4.99,0,8.86-0.72,10.25-1.72" stroke-dasharray="39.624" stroke-dashoffset="39.624"><animate attributeName="stroke-dashoffset" values="39.624" fill="freeze" begin="56db.click" /><animate attributeName="stroke-dashoffset" values="39.624;39.624;0" keyTimes="0;0.816;1" dur="2.151s" fill="freeze" begin="0s;56db.click" /></path><path d="M22.73,79.32c13.77-0.57,43.64-1.8,61.18-2.08" stroke-dasharray="61.218" stroke-dashoffset="61.218"><animate attributeName="stroke-dashoffset" values="61.218" fill="freeze" begin="56db.click" /><animate attributeName="stroke-dashoffset" values="61.218;61.218;0" keyTimes="0;0.824;1" dur="2.611s" fill="freeze" begin="0s;56db.click" /></path></g></svg>