<svg xmlns="http://www.w3.org/2000/svg" viewBox="0 0 109 109" id="578b"><g fill="none" stroke="#666" stroke-width="6" stroke-linecap="round" stroke-linejoin="round"><g><g p4:phon="刑" xmlns:p4="http://kanjivg.tagaini.net"><g p4:partial><g><path d="M17.54,22.38c1.11,0.38,3.15,0.44,4.27,0.38c8.24-0.43,18.19-1.89,26.67-2.98c1.84-0.24,2.97-0.07,3.9,0.12" /><g><path d="M12.61,39.56c1.9,0.52,3.99,0.44,5.91,0.23c7.52-0.84,24.67-3.51,33.12-4.47c2.11-0.24,4.1-0.43,6.21-0.08" /><path d="M28.06,25.73c0.62,1.04,0.94,2.29,0.99,3.39C30,49.5,26.5,59.38,17.58,65.46" /></g></g><g p4:partial><g p4:partial><path d="M41.84,23.81c0.74,0.74,1.3,2.19,1.3,3.49c0,2.66-0.08,18.19-0.12,27.07c-0.01,2.2-0.01,4-0.01,5.08" /></g></g></g><g><path d="M66.4,20.05c0.91,0.81,1.62,2.2,1.62,4.44c0,4.77-0.01,14.36-0.02,20.63c0,1.63,0,3.07,0,4.2" /><path d="M86.56,13.58c0.93,0.93,1.62,2.29,1.62,3.87c0,9.05,0.02,34.57,0.02,37.65c0,8.77-4.08,2.34-6.44-0.35" /></g></g><g><path d="M33.13,70.42c2.37,0.46,4.68,0.29,6.87,0.06c10.41-1.06,21.21-2.06,30.25-2.64c2.18-0.14,4.24-0.31,6.38,0.2" /><path d="M52.67,53.62c0.98,0.98,2.02,2.77,2.02,4.64c0,11-0.11,25.75-0.11,30.11" /><path d="M17.38,90.48c3.33,1.19,7.09,1.13,10.5,0.83c14.22-1.27,39.81-2.83,56.25-3.19c3.27-0.07,6.53,0.01,9.75,0.7" /></g></g></g><g fill="none" stroke="#000" stroke-width="3" stroke-linecap="round" stroke-linejoin="round"><path d="M17.54,22.38c1.11,0.38,3.15,0.44,4.27,0.38c8.24-0.43,18.19-1.89,26.67-2.98c1.84-0.24,2.97-0.07,3.9,0.12" stroke-dasharray="35.072" stroke-dashoffset="35.072"><animate attributeName="stroke-dashoffset" values="35.072;35.072;0" dur="0.351s" fill="freeze" begin="0s;578b.click" /></path><path d="M12.61,39.56c1.9,0.52,3.99,0.44,5.91,0.23c7.52-0.84,24.67-3.51,33.12-4.47c2.11-0.24,4.1-0.43,6.21-0.08" stroke-dasharray="45.604" stroke-dashoffset="45.604"><animate attributeName="stroke-dashoffset" values="45.604" fill="freeze" begin="578b.click" /><animate attributeName="stroke-dashoffset" values="45.604;45.604;0" keyTimes="0;0.435;1" dur="0.807s" fill="freeze" begin="0s;578b.click" /></path><path d="M28.06,25.73c0.62,1.04,0.94,2.29,0.99,3.39C30,49.5,26.5,59.38,17.58,65.46" stroke-dasharray="43.532" stroke-dashoffset="43.532"><animate attributeName="stroke-dashoffset" values="43.532" fill="freeze" begin="578b.click" /><animate attributeName="stroke-dashoffset" values="43.532;43.532;0" keyTimes="0;0.65;1" dur="1.242s" fill="freeze" begin="0s;578b.click" /></path><path d="M41.84,23.81c0.74,0.74,1.3,2.19,1.3,3.49c0,2.66-0.08,18.19-0.12,27.07c-0.01,2.2-0.01,4-0.01,5.08" stroke-dasharray="35.958" stroke-dashoffset="35.958"><animate attributeName="stroke-dashoffset" values="35.958" fill="freeze" begin="578b.click" /><animate attributeName="stroke-dashoffset" values="35.958;35.958;0" keyTimes="0;0.775;1" dur="1.602s" fill="freeze" begin="0s;578b.click" /></path><path d="M66.4,20.05c0.91,0.81,1.62,2.2,1.62,4.44c0,4.77-0.01,14.36-0.02,20.63c0,1.63,0,3.07,0,4.2" stroke-dasharray="29.702" stroke-dashoffset="29.702"><animate attributeName="stroke-dashoffset" values="29.702" fill="freeze" begin="578b.click" /><animate attributeName="stroke-dashoffset" values="29.702;29.702;0" keyTimes="0;0.844;1" dur="1.899s" fill="freeze" begin="0s;578b.click" /></path><path d="M86.56,13.58c0.93,0.93,1.62,2.29,1.62,3.87c0,9.05,0.02,34.57,0.02,37.65c0,8.77-4.08,2.34-6.44-0.35" stroke-dasharray="54.055" stroke-dashoffset="54.055"><animate attributeName="stroke-dashoffset" values="54.055" fill="freeze" begin="578b.click" /><animate attributeName="stroke-dashoffset" values="54.055;54.055;0" keyTimes="0;0.778;1" dur="2.44s" fill="freeze" begin="0s;578b.click" /></path><path d="M33.13,70.42c2.37,0.46,4.68,0.29,6.87,0.06c10.41-1.06,21.21-2.06,30.25-2.64c2.18-0.14,4.24-0.31,6.38,0.2" stroke-dasharray="43.674" stroke-dashoffset="43.674"><animate attributeName="stroke-dashoffset" values="43.674" fill="freeze" begin="578b.click" /><animate attributeName="stroke-dashoffset" values="43.674;43.674;0" keyTimes="0;0.848;1" dur="2.877s" fill="freeze" begin="0s;578b.click" /></path><path d="M52.67,53.62c0.98,0.98,2.02,2.77,2.02,4.64c0,11-0.11,25.75-0.11,30.11" stroke-dasharray="35.292" stroke-dashoffset="35.292"><animate attributeName="stroke-dashoffset" values="35.292" fill="freeze" begin="578b.click" /><animate attributeName="stroke-dashoffset" values="35.292;35.292;0" keyTimes="0;0.891;1" dur="3.23s" fill="freeze" begin="0s;578b.click" /></path><path d="M17.38,90.48c3.33,1.19,7.09,1.13,10.5,0.83c14.22-1.27,39.81-2.83,56.25-3.19c3.27-0.07,6.53,0.01,9.75,0.7" stroke-dasharray="76.762" stroke-dashoffset="76.762"><animate attributeName="stroke-dashoffset" values="76.762" fill="freeze" begin="578b.click" /><animate attributeName="stroke-dashoffset" values="76.762;76.762;0" keyTimes="0;0.848;1" dur="3.807s" fill="freeze" begin="0s;578b.click" /></path></g></svg>