<svg xmlns="http://www.w3.org/2000/svg" viewBox="0 0 109 109" id="57a3"><g fill="none" stroke="#666" stroke-width="6" stroke-linecap="round" stroke-linejoin="round"><g><g><path d="M11.75,39.64c1.21,0.61,4.04,0.72,5.36,0.52C23,39.27,32.75,37.5,38,36.5c1.24-0.24,2.62-0.18,3.25,0.01" /><path d="M27.37,16c1.13,1.13,1.21,2.38,1.21,4c0,7.25,0.03,37.75,0.03,48.5" /><path d="M11.5,76.29c0.75,0.96,2.25,1.46,4.5,0.21c6.25-3.5,19.5-10.75,25.75-14.25" /></g><g p4:phon="亘/亙" xmlns:p4="http://kanjivg.tagaini.net"><g><g><path d="M47.13,21.25c1.97,0.98,5.31,0.57,7.38,0.34c8.7-0.97,23.04-3.12,31.74-3.71c2.16-0.15,4.64-0.1,6.73,0.52" /></g></g><g><g><path d="M52.28,36.3c1.02,1.02,1.41,2.21,1.41,3.33c0.42,4.3,0.71,21.16,1.13,29.37c0.13,2.53,0.22,4.24,0.26,4.51" /><path d="M54.89,38.17c3-0.14,24.35-2.74,27.09-2.91c2.28-0.14,3.82,1.18,3.63,3.55c-0.13,3.7-1.21,18.28-2.11,27.7c-0.21,2.19-0.42,4.36-0.63,5.79" /><path d="M55.2,53.62C59.88,53.25,79.58,51,83.44,51" /><path d="M56.07,70.78c8.18-0.78,18.3-1.91,26.34-2.32" /></g><g><g><path d="M37.5,90.75c2.45,1.03,5.84,1.15,8.37,0.82c14-1.82,32.1-3.24,44.12-3.73c2.59-0.11,5.22,0.26,7.75,0.91" /></g></g></g></g></g></g><g fill="none" stroke="#000" stroke-width="3" stroke-linecap="round" stroke-linejoin="round"><path d="M11.75,39.64c1.21,0.61,4.04,0.72,5.36,0.52C23,39.27,32.75,37.5,38,36.5c1.24-0.24,2.62-0.18,3.25,0.01" stroke-dasharray="29.923" stroke-dashoffset="29.923"><animate attributeName="stroke-dashoffset" values="29.923;29.923;0" dur="0.299s" fill="freeze" begin="0s;57a3.click" /></path><path d="M27.37,16c1.13,1.13,1.21,2.38,1.21,4c0,7.25,0.03,37.75,0.03,48.5" stroke-dasharray="52.813" stroke-dashoffset="52.813"><animate attributeName="stroke-dashoffset" values="52.813" fill="freeze" begin="57a3.click" /><animate attributeName="stroke-dashoffset" values="52.813;52.813;0" keyTimes="0;0.362;1" dur="0.827s" fill="freeze" begin="0s;57a3.click" /></path><path d="M11.5,76.29c0.75,0.96,2.25,1.46,4.5,0.21c6.25-3.5,19.5-10.75,25.75-14.25" stroke-dasharray="34.363" stroke-dashoffset="34.363"><animate attributeName="stroke-dashoffset" values="34.363" fill="freeze" begin="57a3.click" /><animate attributeName="stroke-dashoffset" values="34.363;34.363;0" keyTimes="0;0.706;1" dur="1.171s" fill="freeze" begin="0s;57a3.click" /></path><path d="M47.13,21.25c1.97,0.98,5.31,0.57,7.38,0.34c8.7-0.97,23.04-3.12,31.74-3.71c2.16-0.15,4.64-0.1,6.73,0.52" stroke-dasharray="46.223" stroke-dashoffset="46.223"><animate attributeName="stroke-dashoffset" values="46.223" fill="freeze" begin="57a3.click" /><animate attributeName="stroke-dashoffset" values="46.223;46.223;0" keyTimes="0;0.717;1" dur="1.633s" fill="freeze" begin="0s;57a3.click" /></path><path d="M52.28,36.3c1.02,1.02,1.41,2.21,1.41,3.33c0.42,4.3,0.71,21.16,1.13,29.37c0.13,2.53,0.22,4.24,0.26,4.51" stroke-dasharray="37.627" stroke-dashoffset="37.627"><animate attributeName="stroke-dashoffset" values="37.627" fill="freeze" begin="57a3.click" /><animate attributeName="stroke-dashoffset" values="37.627;37.627;0" keyTimes="0;0.813;1" dur="2.009s" fill="freeze" begin="0s;57a3.click" /></path><path d="M54.89,38.17c3-0.14,24.35-2.74,27.09-2.91c2.28-0.14,3.82,1.18,3.63,3.55c-0.13,3.7-1.21,18.28-2.11,27.7c-0.21,2.19-0.42,4.36-0.63,5.79" stroke-dasharray="66.761" stroke-dashoffset="66.761"><animate attributeName="stroke-dashoffset" values="66.761" fill="freeze" begin="57a3.click" /><animate attributeName="stroke-dashoffset" values="66.761;66.761;0" keyTimes="0;0.8;1" dur="2.511s" fill="freeze" begin="0s;57a3.click" /></path><path d="M55.2,53.62C59.88,53.25,79.58,51,83.44,51" stroke-dasharray="28.366" stroke-dashoffset="28.366"><animate attributeName="stroke-dashoffset" values="28.366" fill="freeze" begin="57a3.click" /><animate attributeName="stroke-dashoffset" values="28.366;28.366;0" keyTimes="0;0.898;1" dur="2.795s" fill="freeze" begin="0s;57a3.click" /></path><path d="M56.07,70.78c8.18-0.78,18.3-1.91,26.34-2.32" stroke-dasharray="26.445" stroke-dashoffset="26.445"><animate attributeName="stroke-dashoffset" values="26.445" fill="freeze" begin="57a3.click" /><animate attributeName="stroke-dashoffset" values="26.445;26.445;0" keyTimes="0;0.914;1" dur="3.059s" fill="freeze" begin="0s;57a3.click" /></path><path d="M37.5,90.75c2.45,1.03,5.84,1.15,8.37,0.82c14-1.82,32.1-3.24,44.12-3.73c2.59-0.11,5.22,0.26,7.75,0.91" stroke-dasharray="60.618" stroke-dashoffset="60.618"><animate attributeName="stroke-dashoffset" values="60.618" fill="freeze" begin="57a3.click" /><animate attributeName="stroke-dashoffset" values="60.618;60.618;0" keyTimes="0;0.87;1" dur="3.515s" fill="freeze" begin="0s;57a3.click" /></path></g></svg>