<svg xmlns="http://www.w3.org/2000/svg" viewBox="0 0 109 109" id="57a4"><g fill="none" stroke="#666" stroke-width="6" stroke-linecap="round" stroke-linejoin="round"><g><g><path d="M11,43.21c0.74,0.33,2.21,0.41,2.95,0.32c4.74-0.58,17.84-2.53,23.1-3.06c1.23-0.13,2.58-0.16,3.2,0.01" /><path d="M25.34,17c1.12,0.51,2.01,2.29,2.01,3.34c0,7.46,0.03,39.85,0.03,50.91" /><path d="M12,77.33c0.75,0.92,2.25,1.41,4.5,0.2c6.25-3.38,17.5-9.4,23.75-12.78" /></g><g><path d="M43.25,19.7c0.93,0.36,2.63,0.42,3.56,0.36c12.75-0.96,26.47-3.83,42.01-4.27c1.55-0.04,2.47,0.17,3.25,0.35" /><g><path d="M64.21,20.65c0.46,0.55,0.13,2.79-0.22,3.44C59.92,31.56,54.62,36.87,49,44.07c-1.81,2.32-1.94,3.89,0.97,3.2c6.79-1.6,24.69-6.87,35.39-9.51" /><path d="M76.81,27.66c5.14,3.5,13.27,14.4,14.55,19.85" /></g><g><path d="M46.21,69.62C47.1,70,48.74,70.09,49.63,70c9.2-0.94,29.21-3.23,37.58-3.23c1.49,0,2.38,0.18,3.12,0.37" /><path d="M67.11,50.06c0.09,0.25,1.4,1.29,1.37,2.87c-0.15,9.02-0.07,34.27-0.07,36.84" /><path d="M38.88,91.33c1.18,0.46,3.34,0.54,4.52,0.46c14.36-1.04,29.05-2.27,51.61-2.39c1.96-0.01,3.14,0.22,4.12,0.45" /></g></g></g></g><g fill="none" stroke="#000" stroke-width="3" stroke-linecap="round" stroke-linejoin="round"><path d="M11,43.21c0.74,0.33,2.21,0.41,2.95,0.32c4.74-0.58,17.84-2.53,23.1-3.06c1.23-0.13,2.58-0.16,3.2,0.01" stroke-dasharray="29.508" stroke-dashoffset="29.508"><animate attributeName="stroke-dashoffset" values="29.508;29.508;0" dur="0.295s" fill="freeze" begin="0s;57a4.click" /></path><path d="M25.34,17c1.12,0.51,2.01,2.29,2.01,3.34c0,7.46,0.03,39.85,0.03,50.91" stroke-dasharray="54.969" stroke-dashoffset="54.969"><animate attributeName="stroke-dashoffset" values="54.969" fill="freeze" begin="57a4.click" /><animate attributeName="stroke-dashoffset" values="54.969;54.969;0" keyTimes="0;0.349;1" dur="0.845s" fill="freeze" begin="0s;57a4.click" /></path><path d="M12,77.33c0.75,0.92,2.25,1.41,4.5,0.2c6.25-3.38,17.5-9.4,23.75-12.78" stroke-dasharray="31.875" stroke-dashoffset="31.875"><animate attributeName="stroke-dashoffset" values="31.875" fill="freeze" begin="57a4.click" /><animate attributeName="stroke-dashoffset" values="31.875;31.875;0" keyTimes="0;0.726;1" dur="1.164s" fill="freeze" begin="0s;57a4.click" /></path><path d="M43.25,19.7c0.93,0.36,2.63,0.42,3.56,0.36c12.75-0.96,26.47-3.83,42.01-4.27c1.55-0.04,2.47,0.17,3.25,0.35" stroke-dasharray="49.122" stroke-dashoffset="49.122"><animate attributeName="stroke-dashoffset" values="49.122" fill="freeze" begin="57a4.click" /><animate attributeName="stroke-dashoffset" values="49.122;49.122;0" keyTimes="0;0.703;1" dur="1.655s" fill="freeze" begin="0s;57a4.click" /></path><path d="M64.21,20.65c0.46,0.55,0.13,2.79-0.22,3.44C59.92,31.56,54.62,36.87,49,44.07c-1.81,2.32-1.94,3.89,0.97,3.2c6.79-1.6,24.69-6.87,35.39-9.51" stroke-dasharray="70.85" stroke-dashoffset="70.85"><animate attributeName="stroke-dashoffset" values="70.85" fill="freeze" begin="57a4.click" /><animate attributeName="stroke-dashoffset" values="70.85;70.85;0" keyTimes="0;0.756;1" dur="2.188s" fill="freeze" begin="0s;57a4.click" /></path><path d="M76.81,27.66c5.14,3.5,13.27,14.4,14.55,19.85" stroke-dasharray="24.934" stroke-dashoffset="24.934"><animate attributeName="stroke-dashoffset" values="24.934" fill="freeze" begin="57a4.click" /><animate attributeName="stroke-dashoffset" values="24.934;24.934;0" keyTimes="0;0.898;1" dur="2.437s" fill="freeze" begin="0s;57a4.click" /></path><path d="M46.21,69.62C47.1,70,48.74,70.09,49.63,70c9.2-0.94,29.21-3.23,37.58-3.23c1.49,0,2.38,0.18,3.12,0.37" stroke-dasharray="44.349" stroke-dashoffset="44.349"><animate attributeName="stroke-dashoffset" values="44.349" fill="freeze" begin="57a4.click" /><animate attributeName="stroke-dashoffset" values="44.349;44.349;0" keyTimes="0;0.846;1" dur="2.88s" fill="freeze" begin="0s;57a4.click" /></path><path d="M67.11,50.06c0.09,0.25,1.4,1.29,1.37,2.87c-0.15,9.02-0.07,34.27-0.07,36.84" stroke-dasharray="40.101" stroke-dashoffset="40.101"><animate attributeName="stroke-dashoffset" values="40.101" fill="freeze" begin="57a4.click" /><animate attributeName="stroke-dashoffset" values="40.101;40.101;0" keyTimes="0;0.878;1" dur="3.281s" fill="freeze" begin="0s;57a4.click" /></path><path d="M38.88,91.33c1.18,0.46,3.34,0.54,4.52,0.46c14.36-1.04,29.05-2.27,51.61-2.39c1.96-0.01,3.14,0.22,4.12,0.45" stroke-dasharray="60.405" stroke-dashoffset="60.405"><animate attributeName="stroke-dashoffset" values="60.405" fill="freeze" begin="57a4.click" /><animate attributeName="stroke-dashoffset" values="60.405;60.405;0" keyTimes="0;0.878;1" dur="3.735s" fill="freeze" begin="0s;57a4.click" /></path></g></svg>