<svg xmlns="http://www.w3.org/2000/svg" viewBox="0 0 109 109" id="57f6"><g fill="none" stroke="#666" stroke-width="6" stroke-linecap="round" stroke-linejoin="round"><g><g><g><path d="m16.186819,29.104494c1.331878,0.571588,2.950798,0.368357,4.340084,0.254039,5.499736,-0.495376,15.592153,-2.095821,21.252632,-2.514985,1.722256,-0.12702,3.478956,-0.203231,5.178248,0.241337" /><path d="m31.377112,11.931464c0.608531,0.673204,1.171134,2.01961,1.171134,3.708968,0,10.593423-0.298524,21.390076-0.298524,25.53091" /><path d="m10.101517,45.312176c1.251505,0.495376,3.536364,0.673203,4.776388,0.495376,11.091325,-1.638551,23.721199,-4.17894,33.216567,-5.398327,2.066706,-0.266741,3.329694,0.228635,4.363047,0.482674" /></g><g><g><path d="m21.192842,50.138915c0.06889,0.558886,0.160744,1.460724-0.149262,2.235542-2.686719,6.719329-6.556053,11.16501-13.7321171,17.643002" /></g><g><path d="m38.863183,44.041981c0.67742,0.91454,1.251505,2.311754,1.251505,3.708968,0,1.89259-0.20667,5.449135-0.20667,6.795541,0,3.683564,2.307822,4.890249,6.728278,4.890249,3.995632,0,6.934948,-0.317549,8.622759,-1.511532" /></g></g><g><path d="m17.392398,72.354617c1.538548,0.39376,2.904871,0.609693,4.615645,0.39376,8.232381,-1.028857,13.89286,-2.070417,20.035571,-2.718216,1.48114,-0.152423,3.134505,-0.571588,4.592682,-0.139721" /><path d="m31.273777,57.506043c1.297433,1.43532,1.676329,3.32791,1.676329,5.398327,0,4.445681,0.03445,13.654591,0.03445,22.545952" /><path d="m14.108631,90.581908c0.952981,1.054261,2.388194,1.219387,4.340084,0.673203,6.866058,-1.905292,19.404078,-6.020722,28.0498,-8.827852" /></g></g><g><g><path d="m72.493091,11.931464c0.574085,0.698607,1.021871,2.299053,0.987426,3.556545-1.297432,44.86327-9.483886,63.446215-25.558271,77.888327" /><g><path d="m60.356931,42.59396c2.215968,0.45727,4.098968,0.406462,5.361955,0,3.019688,-0.965348,10.746874,-2.680111,17.302926,-4.153536,3.524883,-0.787521,5.247139,0,4.408974,4.90295-0.654457,3.810584-4.328602,19.06562-4.902687,29.532023-0.47075,8.484899,1.733737,14.861275,9.9776,14.861275,7.532001,0,9.828341,0.241337,10.046491,-8.878659" /></g></g><g><path d="m59.266169,64.492113c4.684535,2.514985,12.101715,10.339383,13.272849,14.251582" /></g></g></g></g><g fill="none" stroke="#000" stroke-width="3" stroke-linecap="round" stroke-linejoin="round"><path d="m16.186819,29.104494c1.331878,0.571588,2.950798,0.368357,4.340084,0.254039,5.499736,-0.495376,15.592153,-2.095821,21.252632,-2.514985,1.722256,-0.12702,3.478956,-0.203231,5.178248,0.241337" stroke-dasharray="31.006" stroke-dashoffset="31.006"><animate attributeName="stroke-dashoffset" values="31.006;31.006;0" dur="0.31s" fill="freeze" begin="0s;57f6.click" /></path><path d="m31.377112,11.931464c0.608531,0.673204,1.171134,2.01961,1.171134,3.708968,0,10.593423-0.298524,21.390076-0.298524,25.53091" stroke-dasharray="29.502" stroke-dashoffset="29.502"><animate attributeName="stroke-dashoffset" values="29.502" fill="freeze" begin="57f6.click" /><animate attributeName="stroke-dashoffset" values="29.502;29.502;0" keyTimes="0;0.512;1" dur="0.605s" fill="freeze" begin="0s;57f6.click" /></path><path d="m10.101517,45.312176c1.251505,0.495376,3.536364,0.673203,4.776388,0.495376,11.091325,-1.638551,23.721199,-4.17894,33.216567,-5.398327,2.066706,-0.266741,3.329694,0.228635,4.363047,0.482674" stroke-dasharray="42.922" stroke-dashoffset="42.922"><animate attributeName="stroke-dashoffset" values="42.922" fill="freeze" begin="57f6.click" /><animate attributeName="stroke-dashoffset" values="42.922;42.922;0" keyTimes="0;0.585;1" dur="1.034s" fill="freeze" begin="0s;57f6.click" /></path><path d="m21.192842,50.138915c0.06889,0.558886,0.160744,1.460724-0.149262,2.235542-2.686719,6.719329-6.556053,11.16501-13.7321171,17.643002" stroke-dasharray="24.847" stroke-dashoffset="24.847"><animate attributeName="stroke-dashoffset" values="24.847" fill="freeze" begin="57f6.click" /><animate attributeName="stroke-dashoffset" values="24.847;24.847;0" keyTimes="0;0.807;1" dur="1.282s" fill="freeze" begin="0s;57f6.click" /></path><path d="m38.863183,44.041981c0.67742,0.91454,1.251505,2.311754,1.251505,3.708968,0,1.89259-0.20667,5.449135-0.20667,6.795541,0,3.683564,2.307822,4.890249,6.728278,4.890249,3.995632,0,6.934948,-0.317549,8.622759,-1.511532" stroke-dasharray="29.231" stroke-dashoffset="29.231"><animate attributeName="stroke-dashoffset" values="29.231" fill="freeze" begin="57f6.click" /><animate attributeName="stroke-dashoffset" values="29.231;29.231;0" keyTimes="0;0.814;1" dur="1.574s" fill="freeze" begin="0s;57f6.click" /></path><path d="m17.392398,72.354617c1.538548,0.39376,2.904871,0.609693,4.615645,0.39376,8.232381,-1.028857,13.89286,-2.070417,20.035571,-2.718216,1.48114,-0.152423,3.134505,-0.571588,4.592682,-0.139721" stroke-dasharray="29.514" stroke-dashoffset="29.514"><animate attributeName="stroke-dashoffset" values="29.514" fill="freeze" begin="57f6.click" /><animate attributeName="stroke-dashoffset" values="29.514;29.514;0" keyTimes="0;0.842;1" dur="1.869s" fill="freeze" begin="0s;57f6.click" /></path><path d="m31.273777,57.506043c1.297433,1.43532,1.676329,3.32791,1.676329,5.398327,0,4.445681,0.03445,13.654591,0.03445,22.545952" stroke-dasharray="28.335" stroke-dashoffset="28.335"><animate attributeName="stroke-dashoffset" values="28.335" fill="freeze" begin="57f6.click" /><animate attributeName="stroke-dashoffset" values="28.335;28.335;0" keyTimes="0;0.868;1" dur="2.152s" fill="freeze" begin="0s;57f6.click" /></path><path d="m14.108631,90.581908c0.952981,1.054261,2.388194,1.219387,4.340084,0.673203,6.866058,-1.905292,19.404078,-6.020722,28.0498,-8.827852" stroke-dasharray="34.054" stroke-dashoffset="34.054"><animate attributeName="stroke-dashoffset" values="34.054" fill="freeze" begin="57f6.click" /><animate attributeName="stroke-dashoffset" values="34.054;34.054;0" keyTimes="0;0.863;1" dur="2.493s" fill="freeze" begin="0s;57f6.click" /></path><path d="m72.493091,11.931464c0.574085,0.698607,1.021871,2.299053,0.987426,3.556545-1.297432,44.86327-9.483886,63.446215-25.558271,77.888327" stroke-dasharray="88.267" stroke-dashoffset="88.267"><animate attributeName="stroke-dashoffset" values="88.267" fill="freeze" begin="57f6.click" /><animate attributeName="stroke-dashoffset" values="88.267;88.267;0" keyTimes="0;0.79;1" dur="3.157s" fill="freeze" begin="0s;57f6.click" /></path><path d="m60.356931,42.59396c2.215968,0.45727,4.098968,0.406462,5.361955,0,3.019688,-0.965348,10.746874,-2.680111,17.302926,-4.153536,3.524883,-0.787521,5.247139,0,4.408974,4.90295-0.654457,3.810584-4.328602,19.06562-4.902687,29.532023-0.47075,8.484899,1.733737,14.861275,9.9776,14.861275,7.532001,0,9.828341,0.241337,10.046491,-8.878659" stroke-dasharray="99.037" stroke-dashoffset="99.037"><animate attributeName="stroke-dashoffset" values="99.037" fill="freeze" begin="57f6.click" /><animate attributeName="stroke-dashoffset" values="99.037;99.037;0" keyTimes="0;0.809;1" dur="3.902s" fill="freeze" begin="0s;57f6.click" /></path><path d="m59.266169,64.492113c4.684535,2.514985,12.101715,10.339383,13.272849,14.251582" stroke-dasharray="19.756" stroke-dashoffset="19.756"><animate attributeName="stroke-dashoffset" values="19.756" fill="freeze" begin="57f6.click" /><animate attributeName="stroke-dashoffset" values="19.756;19.756;0" keyTimes="0;0.952;1" dur="4.1s" fill="freeze" begin="0s;57f6.click" /></path></g></svg>