<svg xmlns="http://www.w3.org/2000/svg" viewBox="0 0 109 109" id="5893"><g fill="none" stroke="#666" stroke-width="6" stroke-linecap="round" stroke-linejoin="round"><g><g p4:phon="莫" xmlns:p4="http://kanjivg.tagaini.net"><g><path d="M21.5,24.06c2.88,0.57,5.23,0.71,7.75,0.43c13.2-1.45,35.2-2.99,48.63-3.34c2.96-0.08,5.96-0.24,8.87,0.37" /><path d="M39,14.49c0.69,0.69,1.32,1.88,1.5,2.99c0.75,4.53,1.5,8.15,2.25,13.35" /><path d="M67.32,13c0.38,0.86,0.53,2.23,0.2,3.31c-1.56,5.12-1.98,7.37-3.76,12.49" /></g><g><g><path d="M32.27,35.96c0.58,0.58,1.06,1.67,1.19,2.24c0.8,3.55,2.02,9.09,2.59,12.25c0.24,1.3,0.55,2.54,0.71,3.13" /><path d="M34.5,37.28c7.85-1.26,29.83-3.83,36.01-4.41c3.01-0.28,4.92,1.28,4.28,4.66c-0.56,2.97-1.82,7.15-2.81,10.85c-0.34,1.26-0.65,2.38-0.92,3.23" /><path d="M36.23,44.88C46.88,43.5,65,41.38,72.71,41.23" /><path d="M37.93,52.84C47,52,61.25,50.52,70.61,50.25" /></g><g><path d="M16.62,64.99c4.36,0.89,8.87,0.48,13.26,0.14c16.36-1.27,38.74-3.13,53.5-3.53c4.3-0.12,6.62,0.02,10.86,0.55" /><path d="M45.91,55.93c0.09,1.19-0.21,2.31-0.66,3.15C38.62,71.25,28,81.25,12.75,87.25" /><path d="M59,59.1c6.5,1.9,23.87,20.49,30.77,24.57c2.35,1.39,3.16,1.6,4.23,1.73" /></g></g></g><g><path d="M38.59,78.69c2.28,0.56,4.05,0.2,5.91,0c6.99-0.76,14.51-1.73,20.62-2.24c1.74-0.15,3.4-0.29,5.12,0.11" /><path d="M53.27,69.12c0.81,0.81,1.16,1.96,1.16,3.44c0,9.52-0.04,12.95-0.04,19.23" /><path d="M25.17,94.35c2.71,0.28,5.59,0.35,8.21,0.14c13.57-1.08,29.5-2.49,44.38-2.72c2.4-0.04,4.99,0.03,7.34,0.53" /></g></g></g><g fill="none" stroke="#000" stroke-width="3" stroke-linecap="round" stroke-linejoin="round"><path d="M21.5,24.06c2.88,0.57,5.23,0.71,7.75,0.43c13.2-1.45,35.2-2.99,48.63-3.34c2.96-0.08,5.96-0.24,8.87,0.37" stroke-dasharray="65.45" stroke-dashoffset="65.45"><animate attributeName="stroke-dashoffset" values="65.45;65.45;0" dur="0.492s" fill="freeze" begin="0s;5893.click" /></path><path d="M39,14.49c0.69,0.69,1.32,1.88,1.5,2.99c0.75,4.53,1.5,8.15,2.25,13.35" stroke-dasharray="16.933" stroke-dashoffset="16.933"><animate attributeName="stroke-dashoffset" values="16.933" fill="freeze" begin="5893.click" /><animate attributeName="stroke-dashoffset" values="16.933;16.933;0" keyTimes="0;0.744;1" dur="0.661s" fill="freeze" begin="0s;5893.click" /></path><path d="M67.32,13c0.38,0.86,0.53,2.23,0.2,3.31c-1.56,5.12-1.98,7.37-3.76,12.49" stroke-dasharray="16.424" stroke-dashoffset="16.424"><animate attributeName="stroke-dashoffset" values="16.424" fill="freeze" begin="5893.click" /><animate attributeName="stroke-dashoffset" values="16.424;16.424;0" keyTimes="0;0.801;1" dur="0.825s" fill="freeze" begin="0s;5893.click" /></path><path d="M32.27,35.96c0.58,0.58,1.06,1.67,1.19,2.24c0.8,3.55,2.02,9.09,2.59,12.25c0.24,1.3,0.55,2.54,0.71,3.13" stroke-dasharray="18.294" stroke-dashoffset="18.294"><animate attributeName="stroke-dashoffset" values="18.294" fill="freeze" begin="5893.click" /><animate attributeName="stroke-dashoffset" values="18.294;18.294;0" keyTimes="0;0.818;1" dur="1.008s" fill="freeze" begin="0s;5893.click" /></path><path d="M34.5,37.28c7.85-1.26,29.83-3.83,36.01-4.41c3.01-0.28,4.92,1.28,4.28,4.66c-0.56,2.97-1.82,7.15-2.81,10.85c-0.34,1.26-0.65,2.38-0.92,3.23" stroke-dasharray="58.547" stroke-dashoffset="58.547"><animate attributeName="stroke-dashoffset" values="58.547" fill="freeze" begin="5893.click" /><animate attributeName="stroke-dashoffset" values="58.547;58.547;0" keyTimes="0;0.633;1" dur="1.593s" fill="freeze" begin="0s;5893.click" /></path><path d="M36.23,44.88C46.88,43.5,65,41.38,72.71,41.23" stroke-dasharray="36.674" stroke-dashoffset="36.674"><animate attributeName="stroke-dashoffset" values="36.674" fill="freeze" begin="5893.click" /><animate attributeName="stroke-dashoffset" values="36.674;36.674;0" keyTimes="0;0.813;1" dur="1.96s" fill="freeze" begin="0s;5893.click" /></path><path d="M37.93,52.84C47,52,61.25,50.52,70.61,50.25" stroke-dasharray="32.789" stroke-dashoffset="32.789"><animate attributeName="stroke-dashoffset" values="32.789" fill="freeze" begin="5893.click" /><animate attributeName="stroke-dashoffset" values="32.789;32.789;0" keyTimes="0;0.857;1" dur="2.288s" fill="freeze" begin="0s;5893.click" /></path><path d="M16.62,64.99c4.36,0.89,8.87,0.48,13.26,0.14c16.36-1.27,38.74-3.13,53.5-3.53c4.3-0.12,6.62,0.02,10.86,0.55" stroke-dasharray="77.817" stroke-dashoffset="77.817"><animate attributeName="stroke-dashoffset" values="77.817" fill="freeze" begin="5893.click" /><animate attributeName="stroke-dashoffset" values="77.817;77.817;0" keyTimes="0;0.796;1" dur="2.873s" fill="freeze" begin="0s;5893.click" /></path><path d="M45.91,55.93c0.09,1.19-0.21,2.31-0.66,3.15C38.62,71.25,28,81.25,12.75,87.25" stroke-dasharray="47.185" stroke-dashoffset="47.185"><animate attributeName="stroke-dashoffset" values="47.185" fill="freeze" begin="5893.click" /><animate attributeName="stroke-dashoffset" values="47.185;47.185;0" keyTimes="0;0.859;1" dur="3.345s" fill="freeze" begin="0s;5893.click" /></path><path d="M59,59.1c6.5,1.9,23.87,20.49,30.77,24.57c2.35,1.39,3.16,1.6,4.23,1.73" stroke-dasharray="44.116" stroke-dashoffset="44.116"><animate attributeName="stroke-dashoffset" values="44.116" fill="freeze" begin="5893.click" /><animate attributeName="stroke-dashoffset" values="44.116;44.116;0" keyTimes="0;0.884;1" dur="3.786s" fill="freeze" begin="0s;5893.click" /></path><path d="M38.59,78.69c2.28,0.56,4.05,0.2,5.91,0c6.99-0.76,14.51-1.73,20.62-2.24c1.74-0.15,3.4-0.29,5.12,0.11" stroke-dasharray="31.837" stroke-dashoffset="31.837"><animate attributeName="stroke-dashoffset" values="31.837" fill="freeze" begin="5893.click" /><animate attributeName="stroke-dashoffset" values="31.837;31.837;0" keyTimes="0;0.923;1" dur="4.104s" fill="freeze" begin="0s;5893.click" /></path><path d="M53.27,69.12c0.81,0.81,1.16,1.96,1.16,3.44c0,9.52-0.04,12.95-0.04,19.23" stroke-dasharray="22.96" stroke-dashoffset="22.96"><animate attributeName="stroke-dashoffset" values="22.96" fill="freeze" begin="5893.click" /><animate attributeName="stroke-dashoffset" values="22.96;22.96;0" keyTimes="0;0.947;1" dur="4.334s" fill="freeze" begin="0s;5893.click" /></path><path d="M25.17,94.35c2.71,0.28,5.59,0.35,8.21,0.14c13.57-1.08,29.5-2.49,44.38-2.72c2.4-0.04,4.99,0.03,7.34,0.53" stroke-dasharray="60.069" stroke-dashoffset="60.069"><animate attributeName="stroke-dashoffset" values="60.069" fill="freeze" begin="5893.click" /><animate attributeName="stroke-dashoffset" values="60.069;60.069;0" keyTimes="0;0.906;1" dur="4.786s" fill="freeze" begin="0s;5893.click" /></path></g></svg>