<svg xmlns="http://www.w3.org/2000/svg" viewBox="0 0 109 109" id="58a8"><g fill="none" stroke="#666" stroke-width="6" stroke-linecap="round" stroke-linejoin="round"><g><g p4:phon="黒" xmlns:p4="http://kanjivg.tagaini.net"><g><path d="M27.61,14.13c0.41,0.41,0.92,1.58,1.15,2.09c1.53,3.46,2.64,10.9,3.62,17.8c0.21,1.48,0.42,2.93,0.62,4.31" /><path d="M29.87,15.79c13.42-1.47,34.16-3.02,45.52-3.76c4.17-0.27,6.52,0.51,5.48,5.15c-0.85,3.8-2.39,9.71-4.18,14.89c-0.54,1.58-1.09,3.07-1.61,4.39" /><path d="M32.32,26.76c10.31-1.13,35.06-3.26,45.56-3.63" /><path d="M33.97,36.76c10.78-0.88,27.81-2.52,40.87-3.19" /><path d="M52.77,16.19c0.89,0.89,1.35,2.19,1.35,3.48c0,9.08-0.11,31.68-0.11,34.72" /><path d="M34.88,45.31c2.08,0.62,4.24,0.49,6.37,0.37c7.32-0.41,17.01-1.64,25.88-2.21c2.12-0.14,4.21-0.34,6.31,0.04" /><path d="M26.13,56.71c2.71,0.86,5.74,0.41,8.49,0.24c12.57-0.81,26.02-2.27,43-2.43c2.43-0.02,4.85,0.2,7.25,0.66" /></g><g><path d="M23.06,65.49c-1.14,4.87-6.59,10.54-8.06,11.76" /><path d="M38.02,63.69c2.14,1.4,4.35,4.68,5.2,7.68" /><path d="M61.25,61.4c2.65,1.49,5,5.1,6,7.93" /><path d="M83.46,61.32c4,2.13,9.85,8.78,10.85,12.11" /></g></g><g><path d="M33.19,81.83c1.93,0.75,4.81,0.43,6.8,0.24c9.46-0.9,21.3-1.96,30.88-2.39c2.34-0.11,4.73-0.36,7.03,0.19" /><path d="M53.14,68.77c0.79,0.79,1.07,2.23,1.07,3.75c0,10.62-0.07,7.66-0.07,21.7" /><path d="M20.24,96.64c2.77,0.99,6.13,0.93,9.01,0.66c15.72-1.49,37.08-2.69,51.25-3.34c3.26-0.15,6.36,0.08,9.52,0.75" /></g></g></g><g fill="none" stroke="#000" stroke-width="3" stroke-linecap="round" stroke-linejoin="round"><path d="M27.61,14.13c0.41,0.41,0.92,1.58,1.15,2.09c1.53,3.46,2.64,10.9,3.62,17.8c0.21,1.48,0.42,2.93,0.62,4.31" stroke-dasharray="24.954" stroke-dashoffset="24.954"><animate attributeName="stroke-dashoffset" values="24.954;24.954;0" dur="0.25s" fill="freeze" begin="0s;58a8.click" /></path><path d="M29.87,15.79c13.42-1.47,34.16-3.02,45.52-3.76c4.17-0.27,6.52,0.51,5.48,5.15c-0.85,3.8-2.39,9.71-4.18,14.89c-0.54,1.58-1.09,3.07-1.61,4.39" stroke-dasharray="75.417" stroke-dashoffset="75.417"><animate attributeName="stroke-dashoffset" values="75.417" fill="freeze" begin="58a8.click" /><animate attributeName="stroke-dashoffset" values="75.417;75.417;0" keyTimes="0;0.306;1" dur="0.817s" fill="freeze" begin="0s;58a8.click" /></path><path d="M32.32,26.76c10.31-1.13,35.06-3.26,45.56-3.63" stroke-dasharray="45.711" stroke-dashoffset="45.711"><animate attributeName="stroke-dashoffset" values="45.711" fill="freeze" begin="58a8.click" /><animate attributeName="stroke-dashoffset" values="45.711;45.711;0" keyTimes="0;0.641;1" dur="1.274s" fill="freeze" begin="0s;58a8.click" /></path><path d="M33.97,36.76c10.78-0.88,27.81-2.52,40.87-3.19" stroke-dasharray="40.997" stroke-dashoffset="40.997"><animate attributeName="stroke-dashoffset" values="40.997" fill="freeze" begin="58a8.click" /><animate attributeName="stroke-dashoffset" values="40.997;40.997;0" keyTimes="0;0.757;1" dur="1.684s" fill="freeze" begin="0s;58a8.click" /></path><path d="M52.77,16.19c0.89,0.89,1.35,2.19,1.35,3.48c0,9.08-0.11,31.68-0.11,34.72" stroke-dasharray="38.549" stroke-dashoffset="38.549"><animate attributeName="stroke-dashoffset" values="38.549" fill="freeze" begin="58a8.click" /><animate attributeName="stroke-dashoffset" values="38.549;38.549;0" keyTimes="0;0.814;1" dur="2.069s" fill="freeze" begin="0s;58a8.click" /></path><path d="M34.88,45.31c2.08,0.62,4.24,0.49,6.37,0.37c7.32-0.41,17.01-1.64,25.88-2.21c2.12-0.14,4.21-0.34,6.31,0.04" stroke-dasharray="38.72" stroke-dashoffset="38.72"><animate attributeName="stroke-dashoffset" values="38.72" fill="freeze" begin="58a8.click" /><animate attributeName="stroke-dashoffset" values="38.72;38.72;0" keyTimes="0;0.842;1" dur="2.456s" fill="freeze" begin="0s;58a8.click" /></path><path d="M26.13,56.71c2.71,0.86,5.74,0.41,8.49,0.24c12.57-0.81,26.02-2.27,43-2.43c2.43-0.02,4.85,0.2,7.25,0.66" stroke-dasharray="58.919" stroke-dashoffset="58.919"><animate attributeName="stroke-dashoffset" values="58.919" fill="freeze" begin="58a8.click" /><animate attributeName="stroke-dashoffset" values="58.919;58.919;0" keyTimes="0;0.807;1" dur="3.045s" fill="freeze" begin="0s;58a8.click" /></path><path d="M23.06,65.49c-1.14,4.87-6.59,10.54-8.06,11.76" stroke-dasharray="14.435" stroke-dashoffset="14.435"><animate attributeName="stroke-dashoffset" values="14.435" fill="freeze" begin="58a8.click" /><animate attributeName="stroke-dashoffset" values="14.435;14.435;0" keyTimes="0;0.913;1" dur="3.334s" fill="freeze" begin="0s;58a8.click" /></path><path d="M38.02,63.69c2.14,1.4,4.35,4.68,5.2,7.68" stroke-dasharray="9.44" stroke-dashoffset="9.44"><animate attributeName="stroke-dashoffset" values="9.44" fill="freeze" begin="58a8.click" /><animate attributeName="stroke-dashoffset" values="9.44;9.44;0" keyTimes="0;0.946;1" dur="3.523s" fill="freeze" begin="0s;58a8.click" /></path><path d="M61.25,61.4c2.65,1.49,5,5.1,6,7.93" stroke-dasharray="10.126" stroke-dashoffset="10.126"><animate attributeName="stroke-dashoffset" values="10.126" fill="freeze" begin="58a8.click" /><animate attributeName="stroke-dashoffset" values="10.126;10.126;0" keyTimes="0;0.946;1" dur="3.726s" fill="freeze" begin="0s;58a8.click" /></path><path d="M83.46,61.32c4,2.13,9.85,8.78,10.85,12.11" stroke-dasharray="16.506" stroke-dashoffset="16.506"><animate attributeName="stroke-dashoffset" values="16.506" fill="freeze" begin="58a8.click" /><animate attributeName="stroke-dashoffset" values="16.506;16.506;0" keyTimes="0;0.958;1" dur="3.891s" fill="freeze" begin="0s;58a8.click" /></path><path d="M33.19,81.83c1.93,0.75,4.81,0.43,6.8,0.24c9.46-0.9,21.3-1.96,30.88-2.39c2.34-0.11,4.73-0.36,7.03,0.19" stroke-dasharray="44.897" stroke-dashoffset="44.897"><animate attributeName="stroke-dashoffset" values="44.897" fill="freeze" begin="58a8.click" /><animate attributeName="stroke-dashoffset" values="44.897;44.897;0" keyTimes="0;0.897;1" dur="4.34s" fill="freeze" begin="0s;58a8.click" /></path><path d="M53.14,68.77c0.79,0.79,1.07,2.23,1.07,3.75c0,10.62-0.07,7.66-0.07,21.7" stroke-dasharray="25.694" stroke-dashoffset="25.694"><animate attributeName="stroke-dashoffset" values="25.694" fill="freeze" begin="58a8.click" /><animate attributeName="stroke-dashoffset" values="25.694;25.694;0" keyTimes="0;0.944;1" dur="4.597s" fill="freeze" begin="0s;58a8.click" /></path><path d="M20.24,96.64c2.77,0.99,6.13,0.93,9.01,0.66c15.72-1.49,37.08-2.69,51.25-3.34c3.26-0.15,6.36,0.08,9.52,0.75" stroke-dasharray="70.044" stroke-dashoffset="70.044"><animate attributeName="stroke-dashoffset" values="70.044" fill="freeze" begin="58a8.click" /><animate attributeName="stroke-dashoffset" values="70.044;70.044;0" keyTimes="0;0.897;1" dur="5.124s" fill="freeze" begin="0s;58a8.click" /></path></g></svg>