<svg xmlns="http://www.w3.org/2000/svg" viewBox="0 0 109 109" id="5a7f"><g fill="none" stroke="#666" stroke-width="6" stroke-linecap="round" stroke-linejoin="round"><g><g><path d="M26.31,21.37c0.4,0.92,0.87,2.44,0.66,3.78c-1.01,6.57-3.72,24.61-8.23,35.5c-0.7,1.68,0.42,2.17,0.91,2.34c5.98,2.1,11.66,5.64,15.92,10.43c1.87,2.1,3.46,4.44,4.68,7" /><path d="M38.75,36.22c0.5,1.28,0.64,3.61,0.33,5.35C36.63,55.62,29.55,76.54,12,87" /><path d="M10.5,47.25c0.72,1.19,1.67,2.04,3.58,1.75c2.06-0.31,20.4-5.47,28.92-8.48" /></g><g><g><path d="M49.61,16.93c2.01,0.71,3.76,0.45,5.82,0.1c9.61-1.65,16.68-3.35,27.23-4.53c6.23-0.7,4.15,2.08,0.04,6.32" /><g><path d="M67.48,18.01c0.82,0.82,1.04,1.87,1.04,3.25c0,6.11-0.02,14.22-0.02,19.61" /><path d="M68.88,31.01c4.67-0.58,8.48-1.08,15.53-2.23c1.13-0.19,1.43-0.19,2.14,0" /></g><g><path d="M55.25,28.98c0.03,0.53,0.06,1.37-0.06,2.14c-0.7,4.51-3.82,13.76-10.14,20.19" /><path d="M54.52,38.18c4.4,1.14,20.18,5.96,29.2,8.41c3.48,0.94,7.19,1.62,10.78,1.87" /></g></g><g><path d="M54.24,53.75c0.75,0.75,0.99,2,0.99,3.25c0,0.73-0.06,21.1-0.06,33c0,4.54-0.01,7.88-0.03,8.5" /><path d="M56.38,55c1.75-0.22,16.15-1.75,20.35-2.34c2.68-0.38,4.45,0.61,4.34,3.59c-0.16,4.25,0.01,13.75,0.01,34c0,13-4.3,6.5-5.94,4.25" /><path d="M56.31,66.5c7.24-1,17.08-1.75,23.44-2.25" /><path d="M56.39,77.8c5.93-0.61,16.33-1.94,23.19-2.34" /></g></g></g></g><g fill="none" stroke="#000" stroke-width="3" stroke-linecap="round" stroke-linejoin="round"><path d="M26.31,21.37c0.4,0.92,0.87,2.44,0.66,3.78c-1.01,6.57-3.72,24.61-8.23,35.5c-0.7,1.68,0.42,2.17,0.91,2.34c5.98,2.1,11.66,5.64,15.92,10.43c1.87,2.1,3.46,4.44,4.68,7" stroke-dasharray="71.004" stroke-dashoffset="71.004"><animate attributeName="stroke-dashoffset" values="71.004;71.004;0" dur="0.534s" fill="freeze" begin="0s;5a7f.click" /></path><path d="M38.75,36.22c0.5,1.28,0.64,3.61,0.33,5.35C36.63,55.62,29.55,76.54,12,87" stroke-dasharray="59.936" stroke-dashoffset="59.936"><animate attributeName="stroke-dashoffset" values="59.936" fill="freeze" begin="5a7f.click" /><animate attributeName="stroke-dashoffset" values="59.936;59.936;0" keyTimes="0;0.471;1" dur="1.133s" fill="freeze" begin="0s;5a7f.click" /></path><path d="M10.5,47.25c0.72,1.19,1.67,2.04,3.58,1.75c2.06-0.31,20.4-5.47,28.92-8.48" stroke-dasharray="34.436" stroke-dashoffset="34.436"><animate attributeName="stroke-dashoffset" values="34.436" fill="freeze" begin="5a7f.click" /><animate attributeName="stroke-dashoffset" values="34.436;34.436;0" keyTimes="0;0.767;1" dur="1.477s" fill="freeze" begin="0s;5a7f.click" /></path><path d="M49.61,16.93c2.01,0.71,3.76,0.45,5.82,0.1c9.61-1.65,16.68-3.35,27.23-4.53c6.23-0.7,4.15,2.08,0.04,6.32" stroke-dasharray="44.675" stroke-dashoffset="44.675"><animate attributeName="stroke-dashoffset" values="44.675" fill="freeze" begin="5a7f.click" /><animate attributeName="stroke-dashoffset" values="44.675;44.675;0" keyTimes="0;0.768;1" dur="1.924s" fill="freeze" begin="0s;5a7f.click" /></path><path d="M67.48,18.01c0.82,0.82,1.04,1.87,1.04,3.25c0,6.11-0.02,14.22-0.02,19.61" stroke-dasharray="23.122" stroke-dashoffset="23.122"><animate attributeName="stroke-dashoffset" values="23.122" fill="freeze" begin="5a7f.click" /><animate attributeName="stroke-dashoffset" values="23.122;23.122;0" keyTimes="0;0.893;1" dur="2.155s" fill="freeze" begin="0s;5a7f.click" /></path><path d="M68.88,31.01c4.67-0.58,8.48-1.08,15.53-2.23c1.13-0.19,1.43-0.19,2.14,0" stroke-dasharray="17.855" stroke-dashoffset="17.855"><animate attributeName="stroke-dashoffset" values="17.855" fill="freeze" begin="5a7f.click" /><animate attributeName="stroke-dashoffset" values="17.855;17.855;0" keyTimes="0;0.923;1" dur="2.334s" fill="freeze" begin="0s;5a7f.click" /></path><path d="M55.25,28.98c0.03,0.53,0.06,1.37-0.06,2.14c-0.7,4.51-3.82,13.76-10.14,20.19" stroke-dasharray="25.051" stroke-dashoffset="25.051"><animate attributeName="stroke-dashoffset" values="25.051" fill="freeze" begin="5a7f.click" /><animate attributeName="stroke-dashoffset" values="25.051;25.051;0" keyTimes="0;0.903;1" dur="2.585s" fill="freeze" begin="0s;5a7f.click" /></path><path d="M54.52,38.18c4.4,1.14,20.18,5.96,29.2,8.41c3.48,0.94,7.19,1.62,10.78,1.87" stroke-dasharray="41.346" stroke-dashoffset="41.346"><animate attributeName="stroke-dashoffset" values="41.346" fill="freeze" begin="5a7f.click" /><animate attributeName="stroke-dashoffset" values="41.346;41.346;0" keyTimes="0;0.862;1" dur="2.998s" fill="freeze" begin="0s;5a7f.click" /></path><path d="M54.24,53.75c0.75,0.75,0.99,2,0.99,3.25c0,0.73-0.06,21.1-0.06,33c0,4.54-0.01,7.88-0.03,8.5" stroke-dasharray="44.984" stroke-dashoffset="44.984"><animate attributeName="stroke-dashoffset" values="44.984" fill="freeze" begin="5a7f.click" /><animate attributeName="stroke-dashoffset" values="44.984;44.984;0" keyTimes="0;0.869;1" dur="3.448s" fill="freeze" begin="0s;5a7f.click" /></path><path d="M56.38,55c1.75-0.22,16.15-1.75,20.35-2.34c2.68-0.38,4.45,0.61,4.34,3.59c-0.16,4.25,0.01,13.75,0.01,34c0,13-4.3,6.5-5.94,4.25" stroke-dasharray="75.291" stroke-dashoffset="75.291"><animate attributeName="stroke-dashoffset" values="75.291" fill="freeze" begin="5a7f.click" /><animate attributeName="stroke-dashoffset" values="75.291;75.291;0" keyTimes="0;0.859;1" dur="4.014s" fill="freeze" begin="0s;5a7f.click" /></path><path d="M56.31,66.5c7.24-1,17.08-1.75,23.44-2.25" stroke-dasharray="23.552" stroke-dashoffset="23.552"><animate attributeName="stroke-dashoffset" values="23.552" fill="freeze" begin="5a7f.click" /><animate attributeName="stroke-dashoffset" values="23.552;23.552;0" keyTimes="0;0.944;1" dur="4.25s" fill="freeze" begin="0s;5a7f.click" /></path><path d="M56.39,77.8c5.93-0.61,16.33-1.94,23.19-2.34" stroke-dasharray="23.311" stroke-dashoffset="23.311"><animate attributeName="stroke-dashoffset" values="23.311" fill="freeze" begin="5a7f.click" /><animate attributeName="stroke-dashoffset" values="23.311;23.311;0" keyTimes="0;0.948;1" dur="4.483s" fill="freeze" begin="0s;5a7f.click" /></path></g></svg>