<svg xmlns="http://www.w3.org/2000/svg" viewBox="0 0 109 109" id="5afa"><g fill="none" stroke="#666" stroke-width="6" stroke-linecap="round" stroke-linejoin="round"><g><g><path d="M26.48,16.87c0.39,1.04,1.08,2.74,0.89,4.24c-0.98,7.39-6.81,34.15-11.13,42.79c-0.89,1.77,0.4,2.46,0.89,2.63C26.5,69.75,35,76.5,39.75,85.28" /><path d="M37.75,37.39c0.08,1.27,0.14,4.34-0.16,6.18C35.18,58.41,28.23,79.46,11,90.5" /><path d="M8,46.72c0.75,0.94,1.75,1.62,3.75,1.39c2.15-0.24,21.34-4.35,30.25-6.73" /></g><g><g><g><path d="M47.89,18.16c0.6,0.45,1.06,2.38,1.18,3.27c0.12,0.89-0.08,69.28-0.2,74.84" /><path d="M49.23,19.12c2.01-0.1,14.78-2.63,16.6-2.75c1.52-0.1,2.31,0.9,2.39,1.69c0.11,1.21-1.77,24.56-1.77,25.15" /><path d="M49.59,30.78c4.93-0.58,12.59-1.59,17.34-2.22" /><path d="M49.23,43.74c6.68-1.14,11.26-1.5,17.16-2.02" /></g><g><path d="M76.68,16.3c0.34,0.53,0.69,1.65,0.69,2.36c0,0.7-0.12,23,0,23.7" /><path d="M77.44,17.73c1.94-0.09,16.73-2.88,18.5-2.99c1.48-0.09,2.33,1.46,2.31,1.99c-0.38,16.2-0.39,62-0.39,73.75c0,10.01-5.93,1.29-7.06,0.22" /><path d="M77.78,28.45c2.63,0,16.25-1.66,19.22-1.66" /><path d="M77.94,40.44c3.89,0,14.3-1.48,19.33-1.48" /></g></g><g><g><path d="M62.45,51.48c0.31,0.51,0.51,1.02,0.61,1.52c0.1,0.5,0.09,14.07-0.24,18.26c-0.47,5.97-0.94,11.99-5.32,18.85" /><path d="M63.57,52.86c2.1-0.05,12.65-1.92,14.21-2.02c2.8-0.19,3.5,1.07,3.5,2.19c0,2.65-0.53,14.92-0.53,29.96c0,10.34-4.41,4.42-6.2,3.17" /><path d="M63.57,62.87c4.61-0.29,12.53-1.68,16.58-1.7" /><path d="M63.51,73c3.79-0.07,11.14-1.05,16.29-1.39" /></g></g></g></g></g><g fill="none" stroke="#000" stroke-width="3" stroke-linecap="round" stroke-linejoin="round"><path d="M26.48,16.87c0.39,1.04,1.08,2.74,0.89,4.24c-0.98,7.39-6.81,34.15-11.13,42.79c-0.89,1.77,0.4,2.46,0.89,2.63C26.5,69.75,35,76.5,39.75,85.28" stroke-dasharray="81.966" stroke-dashoffset="81.966"><animate attributeName="stroke-dashoffset" values="81.966;81.966;0" dur="0.616s" fill="freeze" begin="0s;5afa.click" /></path><path d="M37.75,37.39c0.08,1.27,0.14,4.34-0.16,6.18C35.18,58.41,28.23,79.46,11,90.5" stroke-dasharray="61.718" stroke-dashoffset="61.718"><animate attributeName="stroke-dashoffset" values="61.718" fill="freeze" begin="5afa.click" /><animate attributeName="stroke-dashoffset" values="61.718;61.718;0" keyTimes="0;0.57;1" dur="1.08s" fill="freeze" begin="0s;5afa.click" /></path><path d="M8,46.72c0.75,0.94,1.75,1.62,3.75,1.39c2.15-0.24,21.34-4.35,30.25-6.73" stroke-dasharray="35.208" stroke-dashoffset="35.208"><animate attributeName="stroke-dashoffset" values="35.208" fill="freeze" begin="5afa.click" /><animate attributeName="stroke-dashoffset" values="35.208;35.208;0" keyTimes="0;0.754;1" dur="1.432s" fill="freeze" begin="0s;5afa.click" /></path><path d="M47.89,18.16c0.6,0.45,1.06,2.38,1.18,3.27c0.12,0.89-0.08,69.28-0.2,74.84" stroke-dasharray="78.37" stroke-dashoffset="78.37"><animate attributeName="stroke-dashoffset" values="78.37" fill="freeze" begin="5afa.click" /><animate attributeName="stroke-dashoffset" values="78.37;78.37;0" keyTimes="0;0.709;1" dur="2.021s" fill="freeze" begin="0s;5afa.click" /></path><path d="M49.23,19.12c2.01-0.1,14.78-2.63,16.6-2.75c1.52-0.1,2.31,0.9,2.39,1.69c0.11,1.21-1.77,24.56-1.77,25.15" stroke-dasharray="45.281" stroke-dashoffset="45.281"><animate attributeName="stroke-dashoffset" values="45.281" fill="freeze" begin="5afa.click" /><animate attributeName="stroke-dashoffset" values="45.281;45.281;0" keyTimes="0;0.817;1" dur="2.474s" fill="freeze" begin="0s;5afa.click" /></path><path d="M49.59,30.78c4.93-0.58,12.59-1.59,17.34-2.22" stroke-dasharray="17.483" stroke-dashoffset="17.483"><animate attributeName="stroke-dashoffset" values="17.483" fill="freeze" begin="5afa.click" /><animate attributeName="stroke-dashoffset" values="17.483;17.483;0" keyTimes="0;0.934;1" dur="2.649s" fill="freeze" begin="0s;5afa.click" /></path><path d="M49.23,43.74c6.68-1.14,11.26-1.5,17.16-2.02" stroke-dasharray="17.286" stroke-dashoffset="17.286"><animate attributeName="stroke-dashoffset" values="17.286" fill="freeze" begin="5afa.click" /><animate attributeName="stroke-dashoffset" values="17.286;17.286;0" keyTimes="0;0.939;1" dur="2.822s" fill="freeze" begin="0s;5afa.click" /></path><path d="M76.68,16.3c0.34,0.53,0.69,1.65,0.69,2.36c0,0.7-0.12,23,0,23.7" stroke-dasharray="26.184" stroke-dashoffset="26.184"><animate attributeName="stroke-dashoffset" values="26.184" fill="freeze" begin="5afa.click" /><animate attributeName="stroke-dashoffset" values="26.184;26.184;0" keyTimes="0;0.915;1" dur="3.084s" fill="freeze" begin="0s;5afa.click" /></path><path d="M77.44,17.73c1.94-0.09,16.73-2.88,18.5-2.99c1.48-0.09,2.33,1.46,2.31,1.99c-0.38,16.2-0.39,62-0.39,73.75c0,10.01-5.93,1.29-7.06,0.22" stroke-dasharray="108.469" stroke-dashoffset="108.469"><animate attributeName="stroke-dashoffset" values="108.469" fill="freeze" begin="5afa.click" /><animate attributeName="stroke-dashoffset" values="108.469;108.469;0" keyTimes="0;0.791;1" dur="3.9s" fill="freeze" begin="0s;5afa.click" /></path><path d="M77.78,28.45c2.63,0,16.25-1.66,19.22-1.66" stroke-dasharray="19.296" stroke-dashoffset="19.296"><animate attributeName="stroke-dashoffset" values="19.296" fill="freeze" begin="5afa.click" /><animate attributeName="stroke-dashoffset" values="19.296;19.296;0" keyTimes="0;0.953;1" dur="4.093s" fill="freeze" begin="0s;5afa.click" /></path><path d="M77.94,40.44c3.89,0,14.3-1.48,19.33-1.48" stroke-dasharray="19.394" stroke-dashoffset="19.394"><animate attributeName="stroke-dashoffset" values="19.394" fill="freeze" begin="5afa.click" /><animate attributeName="stroke-dashoffset" values="19.394;19.394;0" keyTimes="0;0.955;1" dur="4.287s" fill="freeze" begin="0s;5afa.click" /></path><path d="M62.45,51.48c0.31,0.51,0.51,1.02,0.61,1.52c0.1,0.5,0.09,14.07-0.24,18.26c-0.47,5.97-0.94,11.99-5.32,18.85" stroke-dasharray="39.74" stroke-dashoffset="39.74"><animate attributeName="stroke-dashoffset" values="39.74" fill="freeze" begin="5afa.click" /><animate attributeName="stroke-dashoffset" values="39.74;39.74;0" keyTimes="0;0.915;1" dur="4.684s" fill="freeze" begin="0s;5afa.click" /></path><path d="M63.57,52.86c2.1-0.05,12.65-1.92,14.21-2.02c2.8-0.19,3.5,1.07,3.5,2.19c0,2.65-0.53,14.92-0.53,29.96c0,10.34-4.41,4.42-6.2,3.17" stroke-dasharray="61.003" stroke-dashoffset="61.003"><animate attributeName="stroke-dashoffset" values="61.003" fill="freeze" begin="5afa.click" /><animate attributeName="stroke-dashoffset" values="61.003;61.003;0" keyTimes="0;0.911;1" dur="5.143s" fill="freeze" begin="0s;5afa.click" /></path><path d="M63.57,62.87c4.61-0.29,12.53-1.68,16.58-1.7" stroke-dasharray="16.674" stroke-dashoffset="16.674"><animate attributeName="stroke-dashoffset" values="16.674" fill="freeze" begin="5afa.click" /><animate attributeName="stroke-dashoffset" values="16.674;16.674;0" keyTimes="0;0.969;1" dur="5.31s" fill="freeze" begin="0s;5afa.click" /></path><path d="M63.51,73c3.79-0.07,11.14-1.05,16.29-1.39" stroke-dasharray="16.353" stroke-dashoffset="16.353"><animate attributeName="stroke-dashoffset" values="16.353" fill="freeze" begin="5afa.click" /><animate attributeName="stroke-dashoffset" values="16.353;16.353;0" keyTimes="0;0.97;1" dur="5.474s" fill="freeze" begin="0s;5afa.click" /></path></g></svg>