<svg xmlns="http://www.w3.org/2000/svg" viewBox="0 0 109 109" id="5afb"><g fill="none" stroke="#666" stroke-width="6" stroke-linecap="round" stroke-linejoin="round"><g><g><path d="M26.52,16.87c0.38,1.24,1.06,3.27,0.87,5.06c-0.96,8.81-7.19,30.59-11.42,40.89c-0.87,2.12,0.4,2.94,0.87,3.13C25.5,69.5,32.25,74,39,84.75" /><path d="M37.76,37c0.08,1.26,0.13,4.33-0.15,6.17C35.3,57.98,28.68,78.98,12.25,90" /><path d="M8,46.96C8.75,48,10.25,48.25,12.25,48c2.15-0.27,21.84-4.88,30.75-7.53" /></g><g><g><g><path d="M46.89,16.64c0.48,0.43,1.5,3.23,1.6,4.1c0.1,0.86-0.06,67.09-0.16,72.49" /><path d="M48.62,19.16c1.85-0.11,15-2.41,16.68-2.54c1.4-0.11,2.13,1.01,2.2,1.9c0.11,1.37-1.17,24.83-1.17,25.5" /><path d="M48.95,31.18c4.54-0.66,12.99-1.36,17.36-2.07" /><path d="M48.62,44.07c6.15-1.28,12.29-1.75,17.73-2.34" /></g><g><path d="M76.52,15.9c0.35,0.52,0.71,1.62,0.71,2.31c0,0.69-0.12,23.13,0,23.82" /><path d="M77.82,17.46c1.99-0.1,15.75-2.6,17.57-2.72c1.52-0.1,2.38,1.07,2.37,1.68c-0.39,18.16-0.4,59.98-0.4,73.15c0,10.55-4.76,2.01-5.92,0.8" /><path d="M78.17,28.32c2.7,0,15.25-2.09,18.3-2.09" /><path d="M77.82,40.11c3.99,0,14.26-1.95,19.42-1.95" /></g></g><g><path d="M57.15,60.1c0.47,0.14,1.73,0.58,2.97,0.41c5.63-0.76,19.61-2.95,28.21-3.63c1.25-0.1,1.56-0.14,2.34,0" /><path d="M72.44,47.38c0.6,0.34,1.07,1.36,1.07,2.19c0,4.09,0.21,38.66,0.11,42.08" /><path d="M73.69,59.7c-3.04,7.65-10.93,18.47-17.24,22.8" /><path d="M76.98,66.08c4.58,2.13,9.39,7.28,12.36,13.18" /></g></g></g></g><g fill="none" stroke="#000" stroke-width="3" stroke-linecap="round" stroke-linejoin="round"><path d="M26.52,16.87c0.38,1.24,1.06,3.27,0.87,5.06c-0.96,8.81-7.19,30.59-11.42,40.89c-0.87,2.12,0.4,2.94,0.87,3.13C25.5,69.5,32.25,74,39,84.75" stroke-dasharray="80.978" stroke-dashoffset="80.978"><animate attributeName="stroke-dashoffset" values="80.978;80.978;0" dur="0.609s" fill="freeze" begin="0s;5afb.click" /></path><path d="M37.76,37c0.08,1.26,0.13,4.33-0.15,6.17C35.3,57.98,28.68,78.98,12.25,90" stroke-dasharray="60.934" stroke-dashoffset="60.934"><animate attributeName="stroke-dashoffset" values="60.934" fill="freeze" begin="5afb.click" /><animate attributeName="stroke-dashoffset" values="60.934;60.934;0" keyTimes="0;0.571;1" dur="1.067s" fill="freeze" begin="0s;5afb.click" /></path><path d="M8,46.96C8.75,48,10.25,48.25,12.25,48c2.15-0.27,21.84-4.88,30.75-7.53" stroke-dasharray="36.256" stroke-dashoffset="36.256"><animate attributeName="stroke-dashoffset" values="36.256" fill="freeze" begin="5afb.click" /><animate attributeName="stroke-dashoffset" values="36.256;36.256;0" keyTimes="0;0.746;1" dur="1.43s" fill="freeze" begin="0s;5afb.click" /></path><path d="M46.89,16.64c0.48,0.43,1.5,3.23,1.6,4.1c0.1,0.86-0.06,67.09-0.16,72.49" stroke-dasharray="76.924" stroke-dashoffset="76.924"><animate attributeName="stroke-dashoffset" values="76.924" fill="freeze" begin="5afb.click" /><animate attributeName="stroke-dashoffset" values="76.924;76.924;0" keyTimes="0;0.712;1" dur="2.008s" fill="freeze" begin="0s;5afb.click" /></path><path d="M48.62,19.16c1.85-0.11,15-2.41,16.68-2.54c1.4-0.11,2.13,1.01,2.2,1.9c0.11,1.37-1.17,24.83-1.17,25.5" stroke-dasharray="45.644" stroke-dashoffset="45.644"><animate attributeName="stroke-dashoffset" values="45.644" fill="freeze" begin="5afb.click" /><animate attributeName="stroke-dashoffset" values="45.644;45.644;0" keyTimes="0;0.815;1" dur="2.464s" fill="freeze" begin="0s;5afb.click" /></path><path d="M48.95,31.18c4.54-0.66,12.99-1.36,17.36-2.07" stroke-dasharray="17.485" stroke-dashoffset="17.485"><animate attributeName="stroke-dashoffset" values="17.485" fill="freeze" begin="5afb.click" /><animate attributeName="stroke-dashoffset" values="17.485;17.485;0" keyTimes="0;0.934;1" dur="2.639s" fill="freeze" begin="0s;5afb.click" /></path><path d="M48.62,44.07c6.15-1.28,12.29-1.75,17.73-2.34" stroke-dasharray="17.893" stroke-dashoffset="17.893"><animate attributeName="stroke-dashoffset" values="17.893" fill="freeze" begin="5afb.click" /><animate attributeName="stroke-dashoffset" values="17.893;17.893;0" keyTimes="0;0.936;1" dur="2.818s" fill="freeze" begin="0s;5afb.click" /></path><path d="M76.52,15.9c0.35,0.52,0.71,1.62,0.71,2.31c0,0.69-0.12,23.13,0,23.82" stroke-dasharray="26.264" stroke-dashoffset="26.264"><animate attributeName="stroke-dashoffset" values="26.264" fill="freeze" begin="5afb.click" /><animate attributeName="stroke-dashoffset" values="26.264;26.264;0" keyTimes="0;0.915;1" dur="3.081s" fill="freeze" begin="0s;5afb.click" /></path><path d="M77.82,17.46c1.99-0.1,15.75-2.6,17.57-2.72c1.52-0.1,2.38,1.07,2.37,1.68c-0.39,18.16-0.4,59.98-0.4,73.15c0,10.55-4.76,2.01-5.92,0.8" stroke-dasharray="106.288" stroke-dashoffset="106.288"><animate attributeName="stroke-dashoffset" values="106.288" fill="freeze" begin="5afb.click" /><animate attributeName="stroke-dashoffset" values="106.288;106.288;0" keyTimes="0;0.794;1" dur="3.88s" fill="freeze" begin="0s;5afb.click" /></path><path d="M78.17,28.32c2.7,0,15.25-2.09,18.3-2.09" stroke-dasharray="18.427" stroke-dashoffset="18.427"><animate attributeName="stroke-dashoffset" values="18.427" fill="freeze" begin="5afb.click" /><animate attributeName="stroke-dashoffset" values="18.427;18.427;0" keyTimes="0;0.955;1" dur="4.064s" fill="freeze" begin="0s;5afb.click" /></path><path d="M77.82,40.11c3.99,0,14.26-1.95,19.42-1.95" stroke-dasharray="19.53" stroke-dashoffset="19.53"><animate attributeName="stroke-dashoffset" values="19.53" fill="freeze" begin="5afb.click" /><animate attributeName="stroke-dashoffset" values="19.53;19.53;0" keyTimes="0;0.954;1" dur="4.259s" fill="freeze" begin="0s;5afb.click" /></path><path d="M57.15,60.1c0.47,0.14,1.73,0.58,2.97,0.41c5.63-0.76,19.61-2.95,28.21-3.63c1.25-0.1,1.56-0.14,2.34,0" stroke-dasharray="33.82" stroke-dashoffset="33.82"><animate attributeName="stroke-dashoffset" values="33.82" fill="freeze" begin="5afb.click" /><animate attributeName="stroke-dashoffset" values="33.82;33.82;0" keyTimes="0;0.926;1" dur="4.597s" fill="freeze" begin="0s;5afb.click" /></path><path d="M72.44,47.38c0.6,0.34,1.07,1.36,1.07,2.19c0,4.09,0.21,38.66,0.11,42.08" stroke-dasharray="44.611" stroke-dashoffset="44.611"><animate attributeName="stroke-dashoffset" values="44.611" fill="freeze" begin="5afb.click" /><animate attributeName="stroke-dashoffset" values="44.611;44.611;0" keyTimes="0;0.912;1" dur="5.043s" fill="freeze" begin="0s;5afb.click" /></path><path d="M73.69,59.7c-3.04,7.65-10.93,18.47-17.24,22.8" stroke-dasharray="28.889" stroke-dashoffset="28.889"><animate attributeName="stroke-dashoffset" values="28.889" fill="freeze" begin="5afb.click" /><animate attributeName="stroke-dashoffset" values="28.889;28.889;0" keyTimes="0;0.946;1" dur="5.332s" fill="freeze" begin="0s;5afb.click" /></path><path d="M76.98,66.08c4.58,2.13,9.39,7.28,12.36,13.18" stroke-dasharray="18.372" stroke-dashoffset="18.372"><animate attributeName="stroke-dashoffset" values="18.372" fill="freeze" begin="5afb.click" /><animate attributeName="stroke-dashoffset" values="18.372;18.372;0" keyTimes="0;0.967;1" dur="5.516s" fill="freeze" begin="0s;5afb.click" /></path></g></svg>