<svg xmlns="http://www.w3.org/2000/svg" viewBox="0 0 109 109" id="5b5b"><g fill="none" stroke="#666" stroke-width="6" stroke-linecap="round" stroke-linejoin="round"><g><g><g><path d="M27,22.96c1.39,0.5,4.11,0.61,5.5,0.47c8.82-0.87,33.24-2.79,43.05-3.59c2.3-0.19,4.8,0.26,5.95,0.51" /><path d="M52.87,10c1.09,0.5,1.96,2.23,1.96,3.25c0,7.25,0.03,16,0.03,21.5" /></g><g><path d="M19.41,36.13c0,3.71-2.35,13.9-3.41,16.37" /><path d="M19.74,38.24c15.01-0.99,58.24-4.53,65.95-4.9c12.05-0.59,2.55,7.16-0.45,9.28" /></g></g><g><path d="M33.47,48.49c1.05,0.27,3.04,0.71,4.63,0.47c1.93-0.3,25.94-3.65,27.78-3.65s3.84,0.82,2,2.47c-1.84,1.65-10.32,8.65-14.99,11.64" /><path d="M51.38,58.15C57,65,63.92,79.85,57.83,94.49c-3.33,8.01-6.83,6.01-9.89,0.59" /><path d="M17.44,69.77c1.3,0.65,4.66,0.87,7,0.71c8.17-0.56,52.16-5.24,62.04-4.67c2.33,0.14,4.41,0.22,5.96,0.87" /></g></g></g><g fill="none" stroke="#000" stroke-width="3" stroke-linecap="round" stroke-linejoin="round"><path d="M27,22.96c1.39,0.5,4.11,0.61,5.5,0.47c8.82-0.87,33.24-2.79,43.05-3.59c2.3-0.19,4.8,0.26,5.95,0.51" stroke-dasharray="54.744" stroke-dashoffset="54.744"><animate attributeName="stroke-dashoffset" values="54.744;54.744;0" dur="0.547s" fill="freeze" begin="0s;5b5b.click" /></path><path d="M52.87,10c1.09,0.5,1.96,2.23,1.96,3.25c0,7.25,0.03,16,0.03,21.5" stroke-dasharray="25.451" stroke-dashoffset="25.451"><animate attributeName="stroke-dashoffset" values="25.451" fill="freeze" begin="5b5b.click" /><animate attributeName="stroke-dashoffset" values="25.451;25.451;0" keyTimes="0;0.682;1" dur="0.802s" fill="freeze" begin="0s;5b5b.click" /></path><path d="M19.41,36.13c0,3.71-2.35,13.9-3.41,16.37" stroke-dasharray="16.77" stroke-dashoffset="16.77"><animate attributeName="stroke-dashoffset" values="16.77" fill="freeze" begin="5b5b.click" /><animate attributeName="stroke-dashoffset" values="16.77;16.77;0" keyTimes="0;0.827;1" dur="0.97s" fill="freeze" begin="0s;5b5b.click" /></path><path d="M19.74,38.24c15.01-0.99,58.24-4.53,65.95-4.9c12.05-0.59,2.55,7.16-0.45,9.28" stroke-dasharray="82.926" stroke-dashoffset="82.926"><animate attributeName="stroke-dashoffset" values="82.926" fill="freeze" begin="5b5b.click" /><animate attributeName="stroke-dashoffset" values="82.926;82.926;0" keyTimes="0;0.609;1" dur="1.594s" fill="freeze" begin="0s;5b5b.click" /></path><path d="M33.47,48.49c1.05,0.27,3.04,0.71,4.63,0.47c1.93-0.3,25.94-3.65,27.78-3.65s3.84,0.82,2,2.47c-1.84,1.65-10.32,8.65-14.99,11.64" stroke-dasharray="56.406" stroke-dashoffset="56.406"><animate attributeName="stroke-dashoffset" values="56.406" fill="freeze" begin="5b5b.click" /><animate attributeName="stroke-dashoffset" values="56.406;56.406;0" keyTimes="0;0.739;1" dur="2.158s" fill="freeze" begin="0s;5b5b.click" /></path><path d="M51.38,58.15C57,65,63.92,79.85,57.83,94.49c-3.33,8.01-6.83,6.01-9.89,0.59" stroke-dasharray="53.488" stroke-dashoffset="53.488"><animate attributeName="stroke-dashoffset" values="53.488" fill="freeze" begin="5b5b.click" /><animate attributeName="stroke-dashoffset" values="53.488;53.488;0" keyTimes="0;0.801;1" dur="2.693s" fill="freeze" begin="0s;5b5b.click" /></path><path d="M17.44,69.77c1.3,0.65,4.66,0.87,7,0.71c8.17-0.56,52.16-5.24,62.04-4.67c2.33,0.14,4.41,0.22,5.96,0.87" stroke-dasharray="75.377" stroke-dashoffset="75.377"><animate attributeName="stroke-dashoffset" values="75.377" fill="freeze" begin="5b5b.click" /><animate attributeName="stroke-dashoffset" values="75.377;75.377;0" keyTimes="0;0.826;1" dur="3.26s" fill="freeze" begin="0s;5b5b.click" /></path></g></svg>