<svg xmlns="http://www.w3.org/2000/svg" viewBox="0 0 109 109" id="5b98"><g fill="none" stroke="#666" stroke-width="6" stroke-linecap="round" stroke-linejoin="round"><g><g><path d="M52.79,11.75c0.98,0.98,1.45,2.25,1.45,3.39c0,3.36-0.08,6.74-0.08,9.8" /><g><path d="M26.98,27.5c0,3.3-2.94,13.55-4.28,15.75" /><path d="M27.74,29.38C46.25,26.88,71,24.25,80.9,23.97c11.6-0.32,1.35,7.03-1.35,8.9" /></g></g><g><g><path d="M36.87,39.75c0.88,0.88,1.46,2.48,1.46,3.5c0,3.43,0.02,35.84,0.03,50.5c0,2.44,0,4.43,0,5.75" /><path d="M39.25,41.75c8.04-1.34,21.67-2.88,28.01-3.56c2.93-0.31,5.09-0.02,4.21,3.46c-0.99,3.89-2.14,7.28-3.55,12.89" /><path d="M39.75,58.5c4.97-0.5,18.24-2.26,26.38-3.07c1.36-0.14,2.57-0.25,3.58-0.32" /></g><path d="M39,75.75c8.69-1.34,24.54-3.43,31.38-4.26c3.19-0.39,4.88,0.76,4.37,3.66c-0.81,4.7-2.16,10.16-3.59,16.37" /><path d="M39.5,95.5c5.08-0.55,19.17-2.05,29.38-2.83c1.45-0.11,2.83-0.21,4.09-0.29" /></g></g></g><g fill="none" stroke="#000" stroke-width="3" stroke-linecap="round" stroke-linejoin="round"><path d="M52.79,11.75c0.98,0.98,1.45,2.25,1.45,3.39c0,3.36-0.08,6.74-0.08,9.8" stroke-dasharray="13.583" stroke-dashoffset="13.583"><animate attributeName="stroke-dashoffset" values="13.583;13.583;0" dur="0.272s" fill="freeze" begin="0s;5b98.click" /></path><path d="M26.98,27.5c0,3.3-2.94,13.55-4.28,15.75" stroke-dasharray="16.397" stroke-dashoffset="16.397"><animate attributeName="stroke-dashoffset" values="16.397" fill="freeze" begin="5b98.click" /><animate attributeName="stroke-dashoffset" values="16.397;16.397;0" keyTimes="0;0.624;1" dur="0.436s" fill="freeze" begin="0s;5b98.click" /></path><path d="M27.74,29.38C46.25,26.88,71,24.25,80.9,23.97c11.6-0.32,1.35,7.03-1.35,8.9" stroke-dasharray="69.673" stroke-dashoffset="69.673"><animate attributeName="stroke-dashoffset" values="69.673" fill="freeze" begin="5b98.click" /><animate attributeName="stroke-dashoffset" values="69.673;69.673;0" keyTimes="0;0.454;1" dur="0.96s" fill="freeze" begin="0s;5b98.click" /></path><path d="M36.87,39.75c0.88,0.88,1.46,2.48,1.46,3.5c0,3.43,0.02,35.84,0.03,50.5c0,2.44,0,4.43,0,5.75" stroke-dasharray="60.122" stroke-dashoffset="60.122"><animate attributeName="stroke-dashoffset" values="60.122" fill="freeze" begin="5b98.click" /><animate attributeName="stroke-dashoffset" values="60.122;60.122;0" keyTimes="0;0.68;1" dur="1.412s" fill="freeze" begin="0s;5b98.click" /></path><path d="M39.25,41.75c8.04-1.34,21.67-2.88,28.01-3.56c2.93-0.31,5.09-0.02,4.21,3.46c-0.99,3.89-2.14,7.28-3.55,12.89" stroke-dasharray="48.686" stroke-dashoffset="48.686"><animate attributeName="stroke-dashoffset" values="48.686" fill="freeze" begin="5b98.click" /><animate attributeName="stroke-dashoffset" values="48.686;48.686;0" keyTimes="0;0.744;1" dur="1.899s" fill="freeze" begin="0s;5b98.click" /></path><path d="M39.75,58.5c4.97-0.5,18.24-2.26,26.38-3.07c1.36-0.14,2.57-0.25,3.58-0.32" stroke-dasharray="30.154" stroke-dashoffset="30.154"><animate attributeName="stroke-dashoffset" values="30.154" fill="freeze" begin="5b98.click" /><animate attributeName="stroke-dashoffset" values="30.154;30.154;0" keyTimes="0;0.863;1" dur="2.201s" fill="freeze" begin="0s;5b98.click" /></path><path d="M39,75.75c8.69-1.34,24.54-3.43,31.38-4.26c3.19-0.39,4.88,0.76,4.37,3.66c-0.81,4.7-2.16,10.16-3.59,16.37" stroke-dasharray="55.476" stroke-dashoffset="55.476"><animate attributeName="stroke-dashoffset" values="55.476" fill="freeze" begin="5b98.click" /><animate attributeName="stroke-dashoffset" values="55.476;55.476;0" keyTimes="0;0.799;1" dur="2.756s" fill="freeze" begin="0s;5b98.click" /></path><path d="M39.5,95.5c5.08-0.55,19.17-2.05,29.38-2.83c1.45-0.11,2.83-0.21,4.09-0.29" stroke-dasharray="33.618" stroke-dashoffset="33.618"><animate attributeName="stroke-dashoffset" values="33.618" fill="freeze" begin="5b98.click" /><animate attributeName="stroke-dashoffset" values="33.618;33.618;0" keyTimes="0;0.891;1" dur="3.092s" fill="freeze" begin="0s;5b98.click" /></path></g></svg>