<svg xmlns="http://www.w3.org/2000/svg" viewBox="0 0 109 109" id="5bc9"><g fill="none" stroke="#666" stroke-width="6" stroke-linecap="round" stroke-linejoin="round"><g><g><path d="M50.91,11.33c1.24,0.4,3,2.38,2.97,3.54c-0.09,3.66-0.09,7.2-0.1,10.53" /><g><path d="M21.7,24.12c0,3.8-2.72,14.27-3.95,16.8" /><path d="M21.87,28.45c8.92-0.93,56.54-5.13,63.78-5.48c11.31-0.55,1.71,8.01-1.11,9.99" /></g></g><g><g><path d="M37.76,31.25c0.23,1.52-0.06,3.5-0.79,4.8c-4.65,8.28-10.55,15.28-21.22,25.36" /><path d="M31.47,47.81c0.84,0.79,1.49,2.54,1.54,3.77c0.5,10.98-0.69,42.46-0.27,48.17" /></g><path d="M61.43,29.75c0.07,0.81-0.02,1.88-0.24,2.57c-1.4,4.43-3.17,7.86-6.37,13.26" /><path d="M32.27,49.04c9.77-1.03,48.96-4.54,53.15-5.11" /><path d="M56.79,47.61c0.47,0.41,0.85,0.96,0.85,1.66c0,7.12,0.05,32.6-0.23,43.81" /><path d="M33.58,62.55c9.22-0.86,44.49-4.35,48.44-4.81" /><path d="M33.46,77.5c9.73-0.72,45.19-4.69,49.37-5.08" /><path d="M32.96,95.97c9.77-1.03,51.1-4.01,55.29-4.57" /></g></g></g><g fill="none" stroke="#000" stroke-width="3" stroke-linecap="round" stroke-linejoin="round"><path d="M50.91,11.33c1.24,0.4,3,2.38,2.97,3.54c-0.09,3.66-0.09,7.2-0.1,10.53" stroke-dasharray="15.351" stroke-dashoffset="15.351"><animate attributeName="stroke-dashoffset" values="15.351;15.351;0" dur="0.154s" fill="freeze" begin="0s;5bc9.click" /></path><path d="M21.7,24.12c0,3.8-2.72,14.27-3.95,16.8" stroke-dasharray="17.32" stroke-dashoffset="17.32"><animate attributeName="stroke-dashoffset" values="17.32" fill="freeze" begin="5bc9.click" /><animate attributeName="stroke-dashoffset" values="17.32;17.32;0" keyTimes="0;0.471;1" dur="0.327s" fill="freeze" begin="0s;5bc9.click" /></path><path d="M21.87,28.45c8.92-0.93,56.54-5.13,63.78-5.48c11.31-0.55,1.71,8.01-1.11,9.99" stroke-dasharray="80.871" stroke-dashoffset="80.871"><animate attributeName="stroke-dashoffset" values="80.871" fill="freeze" begin="5bc9.click" /><animate attributeName="stroke-dashoffset" values="80.871;80.871;0" keyTimes="0;0.35;1" dur="0.935s" fill="freeze" begin="0s;5bc9.click" /></path><path d="M37.76,31.25c0.23,1.52-0.06,3.5-0.79,4.8c-4.65,8.28-10.55,15.28-21.22,25.36" stroke-dasharray="38.145" stroke-dashoffset="38.145"><animate attributeName="stroke-dashoffset" values="38.145" fill="freeze" begin="5bc9.click" /><animate attributeName="stroke-dashoffset" values="38.145;38.145;0" keyTimes="0;0.71;1" dur="1.316s" fill="freeze" begin="0s;5bc9.click" /></path><path d="M31.47,47.81c0.84,0.79,1.49,2.54,1.54,3.77c0.5,10.98-0.69,42.46-0.27,48.17" stroke-dasharray="52.33" stroke-dashoffset="52.33"><animate attributeName="stroke-dashoffset" values="52.33" fill="freeze" begin="5bc9.click" /><animate attributeName="stroke-dashoffset" values="52.33;52.33;0" keyTimes="0;0.716;1" dur="1.839s" fill="freeze" begin="0s;5bc9.click" /></path><path d="M61.43,29.75c0.07,0.81-0.02,1.88-0.24,2.57c-1.4,4.43-3.17,7.86-6.37,13.26" stroke-dasharray="17.343" stroke-dashoffset="17.343"><animate attributeName="stroke-dashoffset" values="17.343" fill="freeze" begin="5bc9.click" /><animate attributeName="stroke-dashoffset" values="17.343;17.343;0" keyTimes="0;0.914;1" dur="2.012s" fill="freeze" begin="0s;5bc9.click" /></path><path d="M32.27,49.04c9.77-1.03,48.96-4.54,53.15-5.11" stroke-dasharray="53.397" stroke-dashoffset="53.397"><animate attributeName="stroke-dashoffset" values="53.397" fill="freeze" begin="5bc9.click" /><animate attributeName="stroke-dashoffset" values="53.397;53.397;0" keyTimes="0;0.79;1" dur="2.546s" fill="freeze" begin="0s;5bc9.click" /></path><path d="M56.79,47.61c0.47,0.41,0.85,0.96,0.85,1.66c0,7.12,0.05,32.6-0.23,43.81" stroke-dasharray="45.738" stroke-dashoffset="45.738"><animate attributeName="stroke-dashoffset" values="45.738" fill="freeze" begin="5bc9.click" /><animate attributeName="stroke-dashoffset" values="45.738;45.738;0" keyTimes="0;0.848;1" dur="3.003s" fill="freeze" begin="0s;5bc9.click" /></path><path d="M33.58,62.55c9.22-0.86,44.49-4.35,48.44-4.81" stroke-dasharray="48.679" stroke-dashoffset="48.679"><animate attributeName="stroke-dashoffset" values="48.679" fill="freeze" begin="5bc9.click" /><animate attributeName="stroke-dashoffset" values="48.679;48.679;0" keyTimes="0;0.86;1" dur="3.49s" fill="freeze" begin="0s;5bc9.click" /></path><path d="M33.46,77.5c9.73-0.72,45.19-4.69,49.37-5.08" stroke-dasharray="49.633" stroke-dashoffset="49.633"><animate attributeName="stroke-dashoffset" values="49.633" fill="freeze" begin="5bc9.click" /><animate attributeName="stroke-dashoffset" values="49.633;49.633;0" keyTimes="0;0.876;1" dur="3.986s" fill="freeze" begin="0s;5bc9.click" /></path><path d="M32.96,95.97c9.77-1.03,51.1-4.01,55.29-4.57" stroke-dasharray="55.481" stroke-dashoffset="55.481"><animate attributeName="stroke-dashoffset" values="55.481" fill="freeze" begin="5bc9.click" /><animate attributeName="stroke-dashoffset" values="55.481;55.481;0" keyTimes="0;0.878;1" dur="4.541s" fill="freeze" begin="0s;5bc9.click" /></path></g></svg>