<svg xmlns="http://www.w3.org/2000/svg" viewBox="0 0 109 109" id="5bd3"><g fill="none" stroke="#666" stroke-width="6" stroke-linecap="round" stroke-linejoin="round"><g><g><path d="M52.37,11c1.06,1.06,1.25,2.12,1.25,3.47c0,3.08-0.08,5.06-0.08,7.86" /><g><path d="M26.66,23.88c0,3.2-2.29,10.74-4.16,14.12" /><path d="M26.64,26.5c17.11-2.25,38.24-4.63,54.1-5.62c9.5-0.59,1.01,6.9-1.35,8.57" /></g></g><g><g><g><path d="M31.77,37.6c0.75,0.75,1.13,1.62,1.33,2.46c1.27,5.56,2.27,12.19,3.52,19.9" /><path d="M33.64,38.55c10.67-1.44,28.04-3.39,36.58-4.23c3.29-0.32,5.37,0.47,5.02,4.39c-0.27,3.01-1.42,8.1-2.8,13.21c-0.5,1.85-1.03,3.7-1.56,5.46" /><path d="M35.57,48.07c9.55-0.94,28.8-2.82,36.88-3.41" /><path d="M37.03,58.1c10.44-1.42,23.29-2.67,33.44-3.18" /></g></g><g><path d="M24.33,67.14c0.95,0.95,1.42,2.77,1.56,3.64c0.83,5.22,1.98,13.08,2.83,18.97c0.55,3.82,0.98,6.82,1.12,7.75" /><path d="M26.14,69.33c18.11-2.46,40.99-4.83,56.46-6.17c2.42-0.21,4.55,1.38,4.48,4.09c-0.2,7.18-2.5,19.63-5.1,26.17c-2.73,6.87-4.48,3.58-7.05,0.21" /><g><path d="M52.02,38.6c0.88,0.88,1.27,2.11,1.27,3.35c-0.01,5.45-0.04,36.88-0.04,38.55" /></g><path d="M37.12,84.97c1.51,0.95,3.18,0.7,4.52,0.3c3.76-1.12,14.64-4.28,25.49-8.15" /><path d="M64.58,70.87c2.82,2.29,7.27,9.58,7.97,13.28" /></g></g></g></g><g fill="none" stroke="#000" stroke-width="3" stroke-linecap="round" stroke-linejoin="round"><path d="M52.37,11c1.06,1.06,1.25,2.12,1.25,3.47c0,3.08-0.08,5.06-0.08,7.86" stroke-dasharray="11.667" stroke-dashoffset="11.667"><animate attributeName="stroke-dashoffset" values="11.667;11.667;0" dur="0.233s" fill="freeze" begin="0s;5bd3.click" /></path><path d="M26.66,23.88c0,3.2-2.29,10.74-4.16,14.12" stroke-dasharray="14.811" stroke-dashoffset="14.811"><animate attributeName="stroke-dashoffset" values="14.811" fill="freeze" begin="5bd3.click" /><animate attributeName="stroke-dashoffset" values="14.811;14.811;0" keyTimes="0;0.44;1" dur="0.529s" fill="freeze" begin="0s;5bd3.click" /></path><path d="M26.64,26.5c17.11-2.25,38.24-4.63,54.1-5.62c9.5-0.59,1.01,6.9-1.35,8.57" stroke-dasharray="68.814" stroke-dashoffset="68.814"><animate attributeName="stroke-dashoffset" values="68.814" fill="freeze" begin="5bd3.click" /><animate attributeName="stroke-dashoffset" values="68.814;68.814;0" keyTimes="0;0.506;1" dur="1.046s" fill="freeze" begin="0s;5bd3.click" /></path><path d="M31.77,37.6c0.75,0.75,1.13,1.62,1.33,2.46c1.27,5.56,2.27,12.19,3.52,19.9" stroke-dasharray="23.047" stroke-dashoffset="23.047"><animate attributeName="stroke-dashoffset" values="23.047" fill="freeze" begin="5bd3.click" /><animate attributeName="stroke-dashoffset" values="23.047;23.047;0" keyTimes="0;0.82;1" dur="1.276s" fill="freeze" begin="0s;5bd3.click" /></path><path d="M33.64,38.55c10.67-1.44,28.04-3.39,36.58-4.23c3.29-0.32,5.37,0.47,5.02,4.39c-0.27,3.01-1.42,8.1-2.8,13.21c-0.5,1.85-1.03,3.7-1.56,5.46" stroke-dasharray="64.167" stroke-dashoffset="64.167"><animate attributeName="stroke-dashoffset" values="64.167" fill="freeze" begin="5bd3.click" /><animate attributeName="stroke-dashoffset" values="64.167;64.167;0" keyTimes="0;0.726;1" dur="1.758s" fill="freeze" begin="0s;5bd3.click" /></path><path d="M35.57,48.07c9.55-0.94,28.8-2.82,36.88-3.41" stroke-dasharray="37.039" stroke-dashoffset="37.039"><animate attributeName="stroke-dashoffset" values="37.039" fill="freeze" begin="5bd3.click" /><animate attributeName="stroke-dashoffset" values="37.039;37.039;0" keyTimes="0;0.826;1" dur="2.128s" fill="freeze" begin="0s;5bd3.click" /></path><path d="M37.03,58.1c10.44-1.42,23.29-2.67,33.44-3.18" stroke-dasharray="33.601" stroke-dashoffset="33.601"><animate attributeName="stroke-dashoffset" values="33.601" fill="freeze" begin="5bd3.click" /><animate attributeName="stroke-dashoffset" values="33.601;33.601;0" keyTimes="0;0.864;1" dur="2.464s" fill="freeze" begin="0s;5bd3.click" /></path><path d="M24.33,67.14c0.95,0.95,1.42,2.77,1.56,3.64c0.83,5.22,1.98,13.08,2.83,18.97c0.55,3.82,0.98,6.82,1.12,7.75" stroke-dasharray="31.026" stroke-dashoffset="31.026"><animate attributeName="stroke-dashoffset" values="31.026" fill="freeze" begin="5bd3.click" /><animate attributeName="stroke-dashoffset" values="31.026;31.026;0" keyTimes="0;0.888;1" dur="2.774s" fill="freeze" begin="0s;5bd3.click" /></path><path d="M26.14,69.33c18.11-2.46,40.99-4.83,56.46-6.17c2.42-0.21,4.55,1.38,4.48,4.09c-0.2,7.18-2.5,19.63-5.1,26.17c-2.73,6.87-4.48,3.58-7.05,0.21" stroke-dasharray="101.438" stroke-dashoffset="101.438"><animate attributeName="stroke-dashoffset" values="101.438" fill="freeze" begin="5bd3.click" /><animate attributeName="stroke-dashoffset" values="101.438;101.438;0" keyTimes="0;0.784;1" dur="3.537s" fill="freeze" begin="0s;5bd3.click" /></path><path d="M52.02,38.6c0.88,0.88,1.27,2.11,1.27,3.35c-0.01,5.45-0.04,36.88-0.04,38.55" stroke-dasharray="42.228" stroke-dashoffset="42.228"><animate attributeName="stroke-dashoffset" values="42.228" fill="freeze" begin="5bd3.click" /><animate attributeName="stroke-dashoffset" values="42.228;42.228;0" keyTimes="0;0.893;1" dur="3.959s" fill="freeze" begin="0s;5bd3.click" /></path><path d="M37.12,84.97c1.51,0.95,3.18,0.7,4.52,0.3c3.76-1.12,14.64-4.28,25.49-8.15" stroke-dasharray="31.446" stroke-dashoffset="31.446"><animate attributeName="stroke-dashoffset" values="31.446" fill="freeze" begin="5bd3.click" /><animate attributeName="stroke-dashoffset" values="31.446;31.446;0" keyTimes="0;0.927;1" dur="4.273s" fill="freeze" begin="0s;5bd3.click" /></path><path d="M64.58,70.87c2.82,2.29,7.27,9.58,7.97,13.28" stroke-dasharray="15.67" stroke-dashoffset="15.67"><animate attributeName="stroke-dashoffset" values="15.67" fill="freeze" begin="5bd3.click" /><animate attributeName="stroke-dashoffset" values="15.67;15.67;0" keyTimes="0;0.965;1" dur="4.43s" fill="freeze" begin="0s;5bd3.click" /></path></g></svg>