<svg xmlns="http://www.w3.org/2000/svg" viewBox="0 0 109 109" id="5bd4"><g fill="none" stroke="#666" stroke-width="6" stroke-linecap="round" stroke-linejoin="round"><g><g><path d="M51.65,9.33c1.04,0.34,2.52,2,2.49,2.97c-0.08,3.07-0.08,6.3-0.08,9.1" /><g><path d="M22.45,21.62c0,3.69-2.2,13.84-3.2,16.3" /><path d="M22.37,24.45c8.86-0.8,56.13-5.18,63.32-5.49c11.23-0.47,1.2,7.3-1.6,9" /></g></g><g><g><path d="M37.24,29.97c0.4,0.61,0.68,0.92,0.8,1.72c0.75,4.98,3.48,19.2,3.48,19.6c0,0.4,0.13,0.03,0.26,0.84" /><path d="M38.7,31.19c2.25-0.1,28.47-3.58,30.52-3.7c1.71-0.1,2.74,1.11,2.67,1.72c-0.28,2.64-1.53,11.12-2.89,19.81c-0.14,0.91-0.13-0.18-0.13,0.42" /><path d="M40.35,40.59c3.04,0,26.66-2.61,30.1-2.61" /><path d="M42.7,50.23c6.2-0.44,17.52-1.6,25.23-1.97" /></g><g><path d="M24.29,61.12c1.37,0.47,3.88,0.57,5.25,0.47c8.95-0.64,40.16-3.6,53.39-3.59c2.28,0,3.65,0.22,4.79,0.46" /><g><path d="M53.42,61.51c1.13,0.43,2.03,1.91,2.03,2.8c0,7.44-0.22,19.44-0.22,25.74" /><path d="M55.44,76.6c9.19-0.83,16.31-2.35,22.16-3.03c1.81-0.21,2.92,0.2,3.83,0.4" /></g><g><path d="M38.1,70.42c0.06,0.67,0.12,1.72-0.12,2.67c-1.42,5.64-9.54,18.02-20.67,25.6" /><path d="M34.77,82.58C42.5,85.25,63.75,96,83.75,99.13c2.71,0.42,4.87,0.64,7.49,0.87" /></g></g></g></g></g><g fill="none" stroke="#000" stroke-width="3" stroke-linecap="round" stroke-linejoin="round"><path d="M51.65,9.33c1.04,0.34,2.52,2,2.49,2.97c-0.08,3.07-0.08,6.3-0.08,9.1" stroke-dasharray="13.144" stroke-dashoffset="13.144"><animate attributeName="stroke-dashoffset" values="13.144;13.144;0" dur="0.263s" fill="freeze" begin="0s;5bd4.click" /></path><path d="M22.45,21.62c0,3.69-2.2,13.84-3.2,16.3" stroke-dasharray="16.655" stroke-dashoffset="16.655"><animate attributeName="stroke-dashoffset" values="16.655" fill="freeze" begin="5bd4.click" /><animate attributeName="stroke-dashoffset" values="16.655;16.655;0" keyTimes="0;0.612;1" dur="0.43s" fill="freeze" begin="0s;5bd4.click" /></path><path d="M22.37,24.45c8.86-0.8,56.13-5.18,63.32-5.49c11.23-0.47,1.2,7.3-1.6,9" stroke-dasharray="79.738" stroke-dashoffset="79.738"><animate attributeName="stroke-dashoffset" values="79.738" fill="freeze" begin="5bd4.click" /><animate attributeName="stroke-dashoffset" values="79.738;79.738;0" keyTimes="0;0.417;1" dur="1.03s" fill="freeze" begin="0s;5bd4.click" /></path><path d="M37.24,29.97c0.4,0.61,0.68,0.92,0.8,1.72c0.75,4.98,3.48,19.2,3.48,19.6c0,0.4,0.13,0.03,0.26,0.84" stroke-dasharray="22.723" stroke-dashoffset="22.723"><animate attributeName="stroke-dashoffset" values="22.723" fill="freeze" begin="5bd4.click" /><animate attributeName="stroke-dashoffset" values="22.723;22.723;0" keyTimes="0;0.819;1" dur="1.257s" fill="freeze" begin="0s;5bd4.click" /></path><path d="M38.7,31.19c2.25-0.1,28.47-3.58,30.52-3.7c1.71-0.1,2.74,1.11,2.67,1.72c-0.28,2.64-1.53,11.12-2.89,19.81c-0.14,0.91-0.13-0.18-0.13,0.42" stroke-dasharray="55.004" stroke-dashoffset="55.004"><animate attributeName="stroke-dashoffset" values="55.004" fill="freeze" begin="5bd4.click" /><animate attributeName="stroke-dashoffset" values="55.004;55.004;0" keyTimes="0;0.696;1" dur="1.807s" fill="freeze" begin="0s;5bd4.click" /></path><path d="M40.35,40.59c3.04,0,26.66-2.61,30.1-2.61" stroke-dasharray="30.218" stroke-dashoffset="30.218"><animate attributeName="stroke-dashoffset" values="30.218" fill="freeze" begin="5bd4.click" /><animate attributeName="stroke-dashoffset" values="30.218;30.218;0" keyTimes="0;0.857;1" dur="2.109s" fill="freeze" begin="0s;5bd4.click" /></path><path d="M42.7,50.23c6.2-0.44,17.52-1.6,25.23-1.97" stroke-dasharray="25.309" stroke-dashoffset="25.309"><animate attributeName="stroke-dashoffset" values="25.309" fill="freeze" begin="5bd4.click" /><animate attributeName="stroke-dashoffset" values="25.309;25.309;0" keyTimes="0;0.893;1" dur="2.362s" fill="freeze" begin="0s;5bd4.click" /></path><path d="M24.29,61.12c1.37,0.47,3.88,0.57,5.25,0.47c8.95-0.64,40.16-3.6,53.39-3.59c2.28,0,3.65,0.22,4.79,0.46" stroke-dasharray="63.64" stroke-dashoffset="63.64"><animate attributeName="stroke-dashoffset" values="63.64" fill="freeze" begin="5bd4.click" /><animate attributeName="stroke-dashoffset" values="63.64;63.64;0" keyTimes="0;0.832;1" dur="2.84s" fill="freeze" begin="0s;5bd4.click" /></path><path d="M53.42,61.51c1.13,0.43,2.03,1.91,2.03,2.8c0,7.44-0.22,19.44-0.22,25.74" stroke-dasharray="29.364" stroke-dashoffset="29.364"><animate attributeName="stroke-dashoffset" values="29.364" fill="freeze" begin="5bd4.click" /><animate attributeName="stroke-dashoffset" values="29.364;29.364;0" keyTimes="0;0.906;1" dur="3.134s" fill="freeze" begin="0s;5bd4.click" /></path><path d="M55.44,76.6c9.19-0.83,16.31-2.35,22.16-3.03c1.81-0.21,2.92,0.2,3.83,0.4" stroke-dasharray="26.249" stroke-dashoffset="26.249"><animate attributeName="stroke-dashoffset" values="26.249" fill="freeze" begin="5bd4.click" /><animate attributeName="stroke-dashoffset" values="26.249;26.249;0" keyTimes="0;0.923;1" dur="3.396s" fill="freeze" begin="0s;5bd4.click" /></path><path d="M38.1,70.42c0.06,0.67,0.12,1.72-0.12,2.67c-1.42,5.64-9.54,18.02-20.67,25.6" stroke-dasharray="36.098" stroke-dashoffset="36.098"><animate attributeName="stroke-dashoffset" values="36.098" fill="freeze" begin="5bd4.click" /><animate attributeName="stroke-dashoffset" values="36.098;36.098;0" keyTimes="0;0.904;1" dur="3.757s" fill="freeze" begin="0s;5bd4.click" /></path><path d="M34.77,82.58C42.5,85.25,63.75,96,83.75,99.13c2.71,0.42,4.87,0.64,7.49,0.87" stroke-dasharray="59.371" stroke-dashoffset="59.371"><animate attributeName="stroke-dashoffset" values="59.371" fill="freeze" begin="5bd4.click" /><animate attributeName="stroke-dashoffset" values="59.371;59.371;0" keyTimes="0;0.863;1" dur="4.351s" fill="freeze" begin="0s;5bd4.click" /></path></g></svg>