<svg xmlns="http://www.w3.org/2000/svg" viewBox="0 0 109 109" id="5c09"><g fill="none" stroke="#666" stroke-width="6" stroke-linecap="round" stroke-linejoin="round"><g><g><g><path d="M21.87,21.18c1.19,0.57,3.5,1.08,4.76,0.96c5.97-0.56,20.12-2.9,25.5-3.63c2.62-0.35,5.45,0.92,4.52,4.24c-1.02,3.62-1.4,5.25-2.43,9.77" /><path d="M25.73,37.01c3.82-0.21,18.2-2.17,25.77-2.94c1.87-0.19,3.54-0.07,4.25-0.11" /><g><path d="M24.14,22.61c0.88,0.88,0.88,2.27,0.86,3.52c-0.5,33.75-4.08,45.26-14,56.96" /></g></g><g><g><path d="M30.41,49.7c0.9,0.25,2.86,0.25,3.73,0.18c3.98-0.34,12.07-1.9,16.13-2.3c1.29-0.13,2.23-0.22,3.48-0.01" /><path d="M25.53,63.23c1.77,0.63,4.27,0.41,6.08,0.15c6.74-0.97,16.13-2.43,21.89-3.18c2.03-0.26,3.94-0.46,5.96-0.03" /></g><g><path d="M43.26,64.25c0.81,0.81,1.27,2.25,1.27,3.85c0,6.65-0.03,17.74-0.03,21.4c0,7.77-3.33,2.79-6.42,0.19" /><path d="M30.69,72.93c0.08,1.15,0.06,2.2-0.44,3.24c-2.37,4.95-5.75,10.08-12.9,16.53" /><path d="M54.67,72.34c2.85,2.39,7.52,9.57,8.23,13.3" /></g></g></g><g><path d="M59.88,43.22c2,0.41,4.37,0.34,6.12,0.07c8.11-1.26,19.37-3.41,26.75-4.39c2.24-0.3,4.5-0.27,6.63,0.16" /><path d="M84.23,17.33c1.22,1.22,1.85,2.87,1.85,5.02s0.04,60.13,0.04,64.64c0,10.94-6.23,1.62-8.05,0.23" /><path d="M68.31,56.87c2.67,1.81,6.9,7.44,7.57,10.25" /></g></g></g><g fill="none" stroke="#000" stroke-width="3" stroke-linecap="round" stroke-linejoin="round"><path d="M21.87,21.18c1.19,0.57,3.5,1.08,4.76,0.96c5.97-0.56,20.12-2.9,25.5-3.63c2.62-0.35,5.45,0.92,4.52,4.24c-1.02,3.62-1.4,5.25-2.43,9.77" stroke-dasharray="48.351" stroke-dashoffset="48.351"><animate attributeName="stroke-dashoffset" values="48.351;48.351;0" dur="0.484s" fill="freeze" begin="0s;5c09.click" /></path><path d="M25.73,37.01c3.82-0.21,18.2-2.17,25.77-2.94c1.87-0.19,3.54-0.07,4.25-0.11" stroke-dasharray="30.194" stroke-dashoffset="30.194"><animate attributeName="stroke-dashoffset" values="30.194" fill="freeze" begin="5c09.click" /><animate attributeName="stroke-dashoffset" values="30.194;30.194;0" keyTimes="0;0.616;1" dur="0.786s" fill="freeze" begin="0s;5c09.click" /></path><path d="M24.14,22.61c0.88,0.88,0.88,2.27,0.86,3.52c-0.5,33.75-4.08,45.26-14,56.96" stroke-dasharray="63.729" stroke-dashoffset="63.729"><animate attributeName="stroke-dashoffset" values="63.729" fill="freeze" begin="5c09.click" /><animate attributeName="stroke-dashoffset" values="63.729;63.729;0" keyTimes="0;0.621;1" dur="1.265s" fill="freeze" begin="0s;5c09.click" /></path><path d="M30.41,49.7c0.9,0.25,2.86,0.25,3.73,0.18c3.98-0.34,12.07-1.9,16.13-2.3c1.29-0.13,2.23-0.22,3.48-0.01" stroke-dasharray="23.536" stroke-dashoffset="23.536"><animate attributeName="stroke-dashoffset" values="23.536" fill="freeze" begin="5c09.click" /><animate attributeName="stroke-dashoffset" values="23.536;23.536;0" keyTimes="0;0.843;1" dur="1.5s" fill="freeze" begin="0s;5c09.click" /></path><path d="M25.53,63.23c1.77,0.63,4.27,0.41,6.08,0.15c6.74-0.97,16.13-2.43,21.89-3.18c2.03-0.26,3.94-0.46,5.96-0.03" stroke-dasharray="34.248" stroke-dashoffset="34.248"><animate attributeName="stroke-dashoffset" values="34.248" fill="freeze" begin="5c09.click" /><animate attributeName="stroke-dashoffset" values="34.248;34.248;0" keyTimes="0;0.814;1" dur="1.842s" fill="freeze" begin="0s;5c09.click" /></path><path d="M43.26,64.25c0.81,0.81,1.27,2.25,1.27,3.85c0,6.65-0.03,17.74-0.03,21.4c0,7.77-3.33,2.79-6.42,0.19" stroke-dasharray="36.811" stroke-dashoffset="36.811"><animate attributeName="stroke-dashoffset" values="36.811" fill="freeze" begin="5c09.click" /><animate attributeName="stroke-dashoffset" values="36.811;36.811;0" keyTimes="0;0.833;1" dur="2.21s" fill="freeze" begin="0s;5c09.click" /></path><path d="M30.69,72.93c0.08,1.15,0.06,2.2-0.44,3.24c-2.37,4.95-5.75,10.08-12.9,16.53" stroke-dasharray="24.423" stroke-dashoffset="24.423"><animate attributeName="stroke-dashoffset" values="24.423" fill="freeze" begin="5c09.click" /><animate attributeName="stroke-dashoffset" values="24.423;24.423;0" keyTimes="0;0.901;1" dur="2.454s" fill="freeze" begin="0s;5c09.click" /></path><path d="M54.67,72.34c2.85,2.39,7.52,9.57,8.23,13.3" stroke-dasharray="15.818" stroke-dashoffset="15.818"><animate attributeName="stroke-dashoffset" values="15.818" fill="freeze" begin="5c09.click" /><animate attributeName="stroke-dashoffset" values="15.818;15.818;0" keyTimes="0;0.94;1" dur="2.612s" fill="freeze" begin="0s;5c09.click" /></path><path d="M59.88,43.22c2,0.41,4.37,0.34,6.12,0.07c8.11-1.26,19.37-3.41,26.75-4.39c2.24-0.3,4.5-0.27,6.63,0.16" stroke-dasharray="39.922" stroke-dashoffset="39.922"><animate attributeName="stroke-dashoffset" values="39.922" fill="freeze" begin="5c09.click" /><animate attributeName="stroke-dashoffset" values="39.922;39.922;0" keyTimes="0;0.867;1" dur="3.011s" fill="freeze" begin="0s;5c09.click" /></path><path d="M84.23,17.33c1.22,1.22,1.85,2.87,1.85,5.02s0.04,60.13,0.04,64.64c0,10.94-6.23,1.62-8.05,0.23" stroke-dasharray="84.279" stroke-dashoffset="84.279"><animate attributeName="stroke-dashoffset" values="84.279" fill="freeze" begin="5c09.click" /><animate attributeName="stroke-dashoffset" values="84.279;84.279;0" keyTimes="0;0.826;1" dur="3.645s" fill="freeze" begin="0s;5c09.click" /></path><path d="M68.31,56.87c2.67,1.81,6.9,7.44,7.57,10.25" stroke-dasharray="12.909" stroke-dashoffset="12.909"><animate attributeName="stroke-dashoffset" values="12.909" fill="freeze" begin="5c09.click" /><animate attributeName="stroke-dashoffset" values="12.909;12.909;0" keyTimes="0;0.934;1" dur="3.903s" fill="freeze" begin="0s;5c09.click" /></path></g></svg>