<svg xmlns="http://www.w3.org/2000/svg" viewBox="0 0 109 109" id="5c0e"><g fill="none" stroke="#666" stroke-width="6" stroke-linecap="round" stroke-linejoin="round"><g><g p4:phon="道" xmlns:p4="http://kanjivg.tagaini.net"><g><path d="M51.56,12.37c1.82,1.37,4.71,5.63,5.17,7.75" /><path d="M76.38,11.03c0.09,0.57-0.03,1.08-0.37,1.54c-1.02,2.13-1.78,3.75-4.41,6.85" /><path d="M42.2,23.77c1.88,0.52,4.02,0.38,5.93,0.21c9.12-0.85,20.99-2.51,36-3.03c1.8-0.06,3.57-0.03,5.35,0.26" /><g><path d="M63.16,24.22c0.23,0.07-0.21,1.27-0.35,1.49c-0.93,1.41-1.88,3.32-4.06,5.17" /><g><path d="M51.89,32.64c0.61,0.61,1.05,1.49,1.05,2.6c0,0.58-0.14,10.11-0.07,17.27c0.01,1.31,0.04,2.54,0.07,3.6" /><path d="M53.66,33.35c2.42-0.09,20.37-1.95,22.58-2.06c1.84-0.09,2.89,1.33,2.89,2.87c0,2.06,0.03,10.75,0.04,17.33c0,1.27,0,2.46,0,3.5" /><path d="M54.37,40.04c4.78-0.12,19.55-1.36,23.44-1.36" /><path d="M54.07,47.51c6.42-0.29,17.72-1.55,23.95-1.55" /><path d="M54.05,54.26c7.08-0.39,19.1-1.03,23.69-1.03" /></g></g></g><g><path d="M23.18,16.41c3.49,1.4,8.26,5.27,9.13,7.44" /><path d="M16.25,38.02c2.22,0.67,3.7,0.33,4.69,0.17c0.99-0.17,9.95-3.15,11.38-3.66c1.8-0.65,2.54,1.19,1.72,2.33c-6.79,9.4-7.54,5.4-0.5,12.4c0.88,0.88,1.24,2.08-0.24,2.91c-1.48,0.83-9.89,6.74-11.37,7.07" /><path d="M17.23,59.7c3.14-0.58,8.93-0.97,13.14-0.56s28.16,3.38,32.3,3.92c11.24,1.45,18.45,1.69,25.82,1.83" /></g></g><g><path d="M18.63,78.02c3,0.86,5.65,0.71,8.25,0.55c18.1-1.08,38.94-3.07,59.37-3.01c2.89,0.01,5.83-0.11,8.63,0.73" /><path d="M70.38,69.14c0.93,0.93,1.12,2.73,1.12,4.45c0,7.91,0.02,13.46,0.02,17.91c0,11.37-5.25,2.85-7.21,1.48" /><path d="M42.62,83.41c1.93,1.62,4.97,6.67,5.45,9.19" /></g></g></g><g fill="none" stroke="#000" stroke-width="3" stroke-linecap="round" stroke-linejoin="round"><path d="M51.56,12.37c1.82,1.37,4.71,5.63,5.17,7.75" stroke-dasharray="9.429" stroke-dashoffset="9.429"><animate attributeName="stroke-dashoffset" values="9.429;9.429;0" dur="0.189s" fill="freeze" begin="0s;5c0e.click" /></path><path d="M76.38,11.03c0.09,0.57-0.03,1.08-0.37,1.54c-1.02,2.13-1.78,3.75-4.41,6.85" stroke-dasharray="9.808" stroke-dashoffset="9.808"><animate attributeName="stroke-dashoffset" values="9.808" fill="freeze" begin="5c0e.click" /><animate attributeName="stroke-dashoffset" values="9.808;9.808;0" keyTimes="0;0.491;1" dur="0.385s" fill="freeze" begin="0s;5c0e.click" /></path><path d="M42.2,23.77c1.88,0.52,4.02,0.38,5.93,0.21c9.12-0.85,20.99-2.51,36-3.03c1.8-0.06,3.57-0.03,5.35,0.26" stroke-dasharray="47.468" stroke-dashoffset="47.468"><animate attributeName="stroke-dashoffset" values="47.468" fill="freeze" begin="5c0e.click" /><animate attributeName="stroke-dashoffset" values="47.468;47.468;0" keyTimes="0;0.448;1" dur="0.86s" fill="freeze" begin="0s;5c0e.click" /></path><path d="M63.16,24.22c0.23,0.07-0.21,1.27-0.35,1.49c-0.93,1.41-1.88,3.32-4.06,5.17" stroke-dasharray="8.193" stroke-dashoffset="8.193"><animate attributeName="stroke-dashoffset" values="8.193" fill="freeze" begin="5c0e.click" /><animate attributeName="stroke-dashoffset" values="8.193;8.193;0" keyTimes="0;0.84;1" dur="1.024s" fill="freeze" begin="0s;5c0e.click" /></path><path d="M51.89,32.64c0.61,0.61,1.05,1.49,1.05,2.6c0,0.58-0.14,10.11-0.07,17.27c0.01,1.31,0.04,2.54,0.07,3.6" stroke-dasharray="23.751" stroke-dashoffset="23.751"><animate attributeName="stroke-dashoffset" values="23.751" fill="freeze" begin="5c0e.click" /><animate attributeName="stroke-dashoffset" values="23.751;23.751;0" keyTimes="0;0.811;1" dur="1.262s" fill="freeze" begin="0s;5c0e.click" /></path><path d="M53.66,33.35c2.42-0.09,20.37-1.95,22.58-2.06c1.84-0.09,2.89,1.33,2.89,2.87c0,2.06,0.03,10.75,0.04,17.33c0,1.27,0,2.46,0,3.5" stroke-dasharray="48.104" stroke-dashoffset="48.104"><animate attributeName="stroke-dashoffset" values="48.104" fill="freeze" begin="5c0e.click" /><animate attributeName="stroke-dashoffset" values="48.104;48.104;0" keyTimes="0;0.724;1" dur="1.743s" fill="freeze" begin="0s;5c0e.click" /></path><path d="M54.37,40.04c4.78-0.12,19.55-1.36,23.44-1.36" stroke-dasharray="23.482" stroke-dashoffset="23.482"><animate attributeName="stroke-dashoffset" values="23.482" fill="freeze" begin="5c0e.click" /><animate attributeName="stroke-dashoffset" values="23.482;23.482;0" keyTimes="0;0.881;1" dur="1.978s" fill="freeze" begin="0s;5c0e.click" /></path><path d="M54.07,47.51c6.42-0.29,17.72-1.55,23.95-1.55" stroke-dasharray="24.005" stroke-dashoffset="24.005"><animate attributeName="stroke-dashoffset" values="24.005" fill="freeze" begin="5c0e.click" /><animate attributeName="stroke-dashoffset" values="24.005;24.005;0" keyTimes="0;0.892;1" dur="2.218s" fill="freeze" begin="0s;5c0e.click" /></path><path d="M54.05,54.26c7.08-0.39,19.1-1.03,23.69-1.03" stroke-dasharray="23.715" stroke-dashoffset="23.715"><animate attributeName="stroke-dashoffset" values="23.715" fill="freeze" begin="5c0e.click" /><animate attributeName="stroke-dashoffset" values="23.715;23.715;0" keyTimes="0;0.903;1" dur="2.455s" fill="freeze" begin="0s;5c0e.click" /></path><path d="M23.18,16.41c3.49,1.4,8.26,5.27,9.13,7.44" stroke-dasharray="11.966" stroke-dashoffset="11.966"><animate attributeName="stroke-dashoffset" values="11.966" fill="freeze" begin="5c0e.click" /><animate attributeName="stroke-dashoffset" values="11.966;11.966;0" keyTimes="0;0.911;1" dur="2.694s" fill="freeze" begin="0s;5c0e.click" /></path><path d="M16.25,38.02c2.22,0.67,3.7,0.33,4.69,0.17c0.99-0.17,9.95-3.15,11.38-3.66c1.8-0.65,2.54,1.19,1.72,2.33c-6.79,9.4-7.54,5.4-0.5,12.4c0.88,0.88,1.24,2.08-0.24,2.91c-1.48,0.83-9.89,6.74-11.37,7.07" stroke-dasharray="54.035" stroke-dashoffset="54.035"><animate attributeName="stroke-dashoffset" values="54.035" fill="freeze" begin="5c0e.click" /><animate attributeName="stroke-dashoffset" values="54.035;54.035;0" keyTimes="0;0.833;1" dur="3.234s" fill="freeze" begin="0s;5c0e.click" /></path><path d="M17.23,59.7c3.14-0.58,8.93-0.97,13.14-0.56s28.16,3.38,32.3,3.92c11.24,1.45,18.45,1.69,25.82,1.83" stroke-dasharray="71.623" stroke-dashoffset="71.623"><animate attributeName="stroke-dashoffset" values="71.623" fill="freeze" begin="5c0e.click" /><animate attributeName="stroke-dashoffset" values="71.623;71.623;0" keyTimes="0;0.857;1" dur="3.773s" fill="freeze" begin="0s;5c0e.click" /></path><path d="M18.63,78.02c3,0.86,5.65,0.71,8.25,0.55c18.1-1.08,38.94-3.07,59.37-3.01c2.89,0.01,5.83-0.11,8.63,0.73" stroke-dasharray="76.469" stroke-dashoffset="76.469"><animate attributeName="stroke-dashoffset" values="76.469" fill="freeze" begin="5c0e.click" /><animate attributeName="stroke-dashoffset" values="76.469;76.469;0" keyTimes="0;0.868;1" dur="4.348s" fill="freeze" begin="0s;5c0e.click" /></path><path d="M70.38,69.14c0.93,0.93,1.12,2.73,1.12,4.45c0,7.91,0.02,13.46,0.02,17.91c0,11.37-5.25,2.85-7.21,1.48" stroke-dasharray="36.201" stroke-dashoffset="36.201"><animate attributeName="stroke-dashoffset" values="36.201" fill="freeze" begin="5c0e.click" /><animate attributeName="stroke-dashoffset" values="36.201;36.201;0" keyTimes="0;0.923;1" dur="4.71s" fill="freeze" begin="0s;5c0e.click" /></path><path d="M42.62,83.41c1.93,1.62,4.97,6.67,5.45,9.19" stroke-dasharray="10.804" stroke-dashoffset="10.804"><animate attributeName="stroke-dashoffset" values="10.804" fill="freeze" begin="5c0e.click" /><animate attributeName="stroke-dashoffset" values="10.804;10.804;0" keyTimes="0;0.956;1" dur="4.926s" fill="freeze" begin="0s;5c0e.click" /></path></g></svg>