<svg xmlns="http://www.w3.org/2000/svg" viewBox="0 0 109 109" id="5c6f"><g fill="none" stroke="#666" stroke-width="6" stroke-linecap="round" stroke-linejoin="round"><g><g><path d="M80.19,18.25c-0.19,1.25-0.96,2.04-2.16,2.55C67.62,25.25,53.92,30.06,29,34.29" /></g><g><g><path d="M26.04,46.52c0.85,0.85,0.96,2.36,0.81,4.2c-0.23,2.79-1.78,12.2-2.23,17.13c-0.23,2.54-0.84,4.44,2.97,3.73C44,68.5,65.38,67,81.09,66.33" /><path d="M84.04,40.67c0.71,1.2,0.92,2.6,0.81,3.75c-0.37,4.14-1.28,11.51-2.41,19.11c-0.33,2.22-0.68,4.46-1.04,6.64" /></g><g><g><path d="M51.74,11.62c1.13,1.13,1.39,2.75,1.39,4.53c0,9.76,0.12,58.99,0.12,65.63c0,12.48,2,13.99,21.57,13.99c18.94,0,21.27-1.52,21.27-11.13" /></g></g></g></g></g><g fill="none" stroke="#000" stroke-width="3" stroke-linecap="round" stroke-linejoin="round"><path d="M80.19,18.25c-0.19,1.25-0.96,2.04-2.16,2.55C67.62,25.25,53.92,30.06,29,34.29" stroke-dasharray="54.488" stroke-dashoffset="54.488"><animate attributeName="stroke-dashoffset" values="54.488;54.488;0" dur="0.545s" fill="freeze" begin="0s;5c6f.click" /></path><path d="M26.04,46.52c0.85,0.85,0.96,2.36,0.81,4.2c-0.23,2.79-1.78,12.2-2.23,17.13c-0.23,2.54-0.84,4.44,2.97,3.73C44,68.5,65.38,67,81.09,66.33" stroke-dasharray="81.907" stroke-dashoffset="81.907"><animate attributeName="stroke-dashoffset" values="81.907" fill="freeze" begin="5c6f.click" /><animate attributeName="stroke-dashoffset" values="81.907;81.907;0" keyTimes="0;0.469;1" dur="1.161s" fill="freeze" begin="0s;5c6f.click" /></path><path d="M84.04,40.67c0.71,1.2,0.92,2.6,0.81,3.75c-0.37,4.14-1.28,11.51-2.41,19.11c-0.33,2.22-0.68,4.46-1.04,6.64" stroke-dasharray="29.884" stroke-dashoffset="29.884"><animate attributeName="stroke-dashoffset" values="29.884" fill="freeze" begin="5c6f.click" /><animate attributeName="stroke-dashoffset" values="29.884;29.884;0" keyTimes="0;0.795;1" dur="1.46s" fill="freeze" begin="0s;5c6f.click" /></path><path d="M51.74,11.62c1.13,1.13,1.39,2.75,1.39,4.53c0,9.76,0.12,58.99,0.12,65.63c0,12.48,2,13.99,21.57,13.99c18.94,0,21.27-1.52,21.27-11.13" stroke-dasharray="130.051" stroke-dashoffset="130.051"><animate attributeName="stroke-dashoffset" values="130.051" fill="freeze" begin="5c6f.click" /><animate attributeName="stroke-dashoffset" values="130.051;130.051;0" keyTimes="0;0.599;1" dur="2.438s" fill="freeze" begin="0s;5c6f.click" /></path></g></svg>