<svg xmlns="http://www.w3.org/2000/svg" viewBox="0 0 109 109" id="5d11"><g fill="none" stroke="#666" stroke-width="6" stroke-linecap="round" stroke-linejoin="round"><g><g><path d="M52.51,9.38c0.56,0.33,1.75,2.48,1.86,3.15c0.11,0.66-0.07,8.58-0.18,12.73" /><path d="M26.43,16.25c0.56,0.33,1.12,1.73,1.12,2.41c0,2.59-0.55,5.09-1.09,8.26c-0.26,1.5,0.83,2.61,2.11,2.28c6.43-1.7,48.83-5.92,53.85-6.05" /><path d="M82.52,12.62c0.56,0.33,1.21,2.48,1.12,3.15C83.09,19.84,83,23,82.11,26.96" /></g><g><g><path d="M31.35,38.01c0.56,0.53,1.13,1.29,1.13,2c0,0.71,3.37,21.76,3.37,22.11" /><path d="M32.51,39.38c3.17-0.09,38.19-4.53,41.08-4.64c2.41-0.09,3.54,1.09,3.27,3.17c-0.14,1.1-1.54,12.69-3.96,20.33" /><path d="M34.44,49.22c8.6-0.44,35.99-3.68,40.84-3.68" /><path d="M35.65,59.63c8.74-0.38,26.55-2.39,37.44-2.72" /></g><g><g><path d="M28.24,76.54c4.45-0.59,12.76-3.04,18.32-4.54c1.35-0.37,2.07-0.5,3.25-0.11" /><path d="M26.4,64.04c0.97,0.52,1.32,1.99,1.37,2.73c0.27,4.67-0.31,25.67-0.31,28.02c0,1.45,0.76,2.74,3.93,1.46C37.87,93.62,42,91,49.05,87.67" /></g><g><path d="M82.27,62.38c0.29,0.38-0.15,2.28-0.84,2.76C74.5,70,68.75,73.75,59.65,77.59" /><path d="M54.73,63.16c1.52,0.84,2.14,3.25,2.11,3.96c-0.14,3.98-0.3,19.74-0.3,21.88c0,6.51,1.95,8.59,16.11,8.59c16.84,0,17.95-1.58,17.95-11.14" /></g></g></g></g></g><g fill="none" stroke="#000" stroke-width="3" stroke-linecap="round" stroke-linejoin="round"><path d="M52.51,9.38c0.56,0.33,1.75,2.48,1.86,3.15c0.11,0.66-0.07,8.58-0.18,12.73" stroke-dasharray="16.435" stroke-dashoffset="16.435"><animate attributeName="stroke-dashoffset" values="16.435;16.435;0" dur="0.164s" fill="freeze" begin="0s;5d11.click" /></path><path d="M26.43,16.25c0.56,0.33,1.12,1.73,1.12,2.41c0,2.59-0.55,5.09-1.09,8.26c-0.26,1.5,0.83,2.61,2.11,2.28c6.43-1.7,48.83-5.92,53.85-6.05" stroke-dasharray="69.022" stroke-dashoffset="69.022"><animate attributeName="stroke-dashoffset" values="69.022" fill="freeze" begin="5d11.click" /><animate attributeName="stroke-dashoffset" values="69.022;69.022;0" keyTimes="0;0.24;1" dur="0.683s" fill="freeze" begin="0s;5d11.click" /></path><path d="M82.52,12.62c0.56,0.33,1.21,2.48,1.12,3.15C83.09,19.84,83,23,82.11,26.96" stroke-dasharray="14.722" stroke-dashoffset="14.722"><animate attributeName="stroke-dashoffset" values="14.722" fill="freeze" begin="5d11.click" /><animate attributeName="stroke-dashoffset" values="14.722;14.722;0" keyTimes="0;0.699;1" dur="0.977s" fill="freeze" begin="0s;5d11.click" /></path><path d="M31.35,38.01c0.56,0.53,1.13,1.29,1.13,2c0,0.71,3.37,21.76,3.37,22.11" stroke-dasharray="24.722" stroke-dashoffset="24.722"><animate attributeName="stroke-dashoffset" values="24.722" fill="freeze" begin="5d11.click" /><animate attributeName="stroke-dashoffset" values="24.722;24.722;0" keyTimes="0;0.798;1" dur="1.224s" fill="freeze" begin="0s;5d11.click" /></path><path d="M32.51,39.38c3.17-0.09,38.19-4.53,41.08-4.64c2.41-0.09,3.54,1.09,3.27,3.17c-0.14,1.1-1.54,12.69-3.96,20.33" stroke-dasharray="67.482" stroke-dashoffset="67.482"><animate attributeName="stroke-dashoffset" values="67.482" fill="freeze" begin="5d11.click" /><animate attributeName="stroke-dashoffset" values="67.482;67.482;0" keyTimes="0;0.707;1" dur="1.731s" fill="freeze" begin="0s;5d11.click" /></path><path d="M34.44,49.22c8.6-0.44,35.99-3.68,40.84-3.68" stroke-dasharray="41.011" stroke-dashoffset="41.011"><animate attributeName="stroke-dashoffset" values="41.011" fill="freeze" begin="5d11.click" /><animate attributeName="stroke-dashoffset" values="41.011;41.011;0" keyTimes="0;0.809;1" dur="2.141s" fill="freeze" begin="0s;5d11.click" /></path><path d="M35.65,59.63c8.74-0.38,26.55-2.39,37.44-2.72" stroke-dasharray="37.543" stroke-dashoffset="37.543"><animate attributeName="stroke-dashoffset" values="37.543" fill="freeze" begin="5d11.click" /><animate attributeName="stroke-dashoffset" values="37.543;37.543;0" keyTimes="0;0.851;1" dur="2.516s" fill="freeze" begin="0s;5d11.click" /></path><path d="M28.24,76.54c4.45-0.59,12.76-3.04,18.32-4.54c1.35-0.37,2.07-0.5,3.25-0.11" stroke-dasharray="22.2" stroke-dashoffset="22.2"><animate attributeName="stroke-dashoffset" values="22.2" fill="freeze" begin="5d11.click" /><animate attributeName="stroke-dashoffset" values="22.2;22.2;0" keyTimes="0;0.919;1" dur="2.738s" fill="freeze" begin="0s;5d11.click" /></path><path d="M26.4,64.04c0.97,0.52,1.32,1.99,1.37,2.73c0.27,4.67-0.31,25.67-0.31,28.02c0,1.45,0.76,2.74,3.93,1.46C37.87,93.62,42,91,49.05,87.67" stroke-dasharray="56.115" stroke-dashoffset="56.115"><animate attributeName="stroke-dashoffset" values="56.115" fill="freeze" begin="5d11.click" /><animate attributeName="stroke-dashoffset" values="56.115;56.115;0" keyTimes="0;0.83;1" dur="3.299s" fill="freeze" begin="0s;5d11.click" /></path><path d="M82.27,62.38c0.29,0.38-0.15,2.28-0.84,2.76C74.5,70,68.75,73.75,59.65,77.59" stroke-dasharray="28.166" stroke-dashoffset="28.166"><animate attributeName="stroke-dashoffset" values="28.166" fill="freeze" begin="5d11.click" /><animate attributeName="stroke-dashoffset" values="28.166;28.166;0" keyTimes="0;0.921;1" dur="3.581s" fill="freeze" begin="0s;5d11.click" /></path><path d="M54.73,63.16c1.52,0.84,2.14,3.25,2.11,3.96c-0.14,3.98-0.3,19.74-0.3,21.88c0,6.51,1.95,8.59,16.11,8.59c16.84,0,17.95-1.58,17.95-11.14" stroke-dasharray="73.363" stroke-dashoffset="73.363"><animate attributeName="stroke-dashoffset" values="73.363" fill="freeze" begin="5d11.click" /><animate attributeName="stroke-dashoffset" values="73.363;73.363;0" keyTimes="0;0.866;1" dur="4.133s" fill="freeze" begin="0s;5d11.click" /></path></g></svg>