<svg xmlns="http://www.w3.org/2000/svg" viewBox="0 0 109 109" id="5dee"><g fill="none" stroke="#666" stroke-width="6" stroke-linecap="round" stroke-linejoin="round"><g><g><path d="M36.2,14.58c3.33,1.96,8.6,8.07,9.43,11.12" /><path d="M69.81,11.77c0.03,0.43,0.06,1.11-0.06,1.74c-0.63,3.11-3.79,9.36-8.31,14.19" /><path d="M30.88,33.18c2.37,0.32,5.01,0.23,6.99,0.04c8.26-0.76,23.5-2.72,33.26-3.31c2.09-0.13,4.31-0.02,6.37,0.5" /><path d="M53.82,33.18c0.94,0.94,1.44,2.23,1.44,3.15c0,3.68,0.03,12.43,0.03,18.43" /><path d="M32.84,45.22c2.16,0.53,4.59,0.34,6.54,0.06c8.75-1.27,21-2.68,28.75-3.53c1.95-0.22,3.95-0.3,5.87,0.19" /><path d="M19.48,57.37c3.65,0.75,6.56,0.75,9.54,0.42c12.74-1.42,38.49-3.29,52.36-3.93c3.05-0.14,6.08-0.11,9.08,0.55" /></g><g p4:phon="тид" xmlns:p4="http://kanjivg.tagaini.net"><g><path d="M40.46,60.02c0.17,0.98,0.11,2.22-0.42,3.29C36.53,70.44,29,83,13.62,93.88" /></g><g><path d="M44.28,71.59c2.22,0.54,4.31,0.35,6.21,0.09c5.25-0.7,16.6-2.19,22.75-2.72c1.75-0.15,3.46-0.29,5.17,0.24" /><path d="M59.53,73.04c0.9,0.9,1.33,2.21,1.33,3.62c0,6.11,0.04,9.96,0.04,16.66" /><path d="M33,95.32c2.88,1.05,5.45,1.11,8.81,0.73c12.46-1.4,28.32-2.41,40.13-2.86c2.88-0.11,5.96-0.06,8.69,1.05" /></g></g></g></g><g fill="none" stroke="#000" stroke-width="3" stroke-linecap="round" stroke-linejoin="round"><path d="M36.2,14.58c3.33,1.96,8.6,8.07,9.43,11.12" stroke-dasharray="14.786" stroke-dashoffset="14.786"><animate attributeName="stroke-dashoffset" values="14.786;14.786;0" dur="0.296s" fill="freeze" begin="0s;5dee.click" /></path><path d="M69.81,11.77c0.03,0.43,0.06,1.11-0.06,1.74c-0.63,3.11-3.79,9.36-8.31,14.19" stroke-dasharray="18.345" stroke-dashoffset="18.345"><animate attributeName="stroke-dashoffset" values="18.345" fill="freeze" begin="5dee.click" /><animate attributeName="stroke-dashoffset" values="18.345;18.345;0" keyTimes="0;0.618;1" dur="0.479s" fill="freeze" begin="0s;5dee.click" /></path><path d="M30.88,33.18c2.37,0.32,5.01,0.23,6.99,0.04c8.26-0.76,23.5-2.72,33.26-3.31c2.09-0.13,4.31-0.02,6.37,0.5" stroke-dasharray="46.847" stroke-dashoffset="46.847"><animate attributeName="stroke-dashoffset" values="46.847" fill="freeze" begin="5dee.click" /><animate attributeName="stroke-dashoffset" values="46.847;46.847;0" keyTimes="0;0.506;1" dur="0.947s" fill="freeze" begin="0s;5dee.click" /></path><path d="M53.82,33.18c0.94,0.94,1.44,2.23,1.44,3.15c0,3.68,0.03,12.43,0.03,18.43" stroke-dasharray="21.975" stroke-dashoffset="21.975"><animate attributeName="stroke-dashoffset" values="21.975" fill="freeze" begin="5dee.click" /><animate attributeName="stroke-dashoffset" values="21.975;21.975;0" keyTimes="0;0.811;1" dur="1.167s" fill="freeze" begin="0s;5dee.click" /></path><path d="M32.84,45.22c2.16,0.53,4.59,0.34,6.54,0.06c8.75-1.27,21-2.68,28.75-3.53c1.95-0.22,3.95-0.3,5.87,0.19" stroke-dasharray="41.454" stroke-dashoffset="41.454"><animate attributeName="stroke-dashoffset" values="41.454" fill="freeze" begin="5dee.click" /><animate attributeName="stroke-dashoffset" values="41.454;41.454;0" keyTimes="0;0.738;1" dur="1.582s" fill="freeze" begin="0s;5dee.click" /></path><path d="M19.48,57.37c3.65,0.75,6.56,0.75,9.54,0.42c12.74-1.42,38.49-3.29,52.36-3.93c3.05-0.14,6.08-0.11,9.08,0.55" stroke-dasharray="71.23" stroke-dashoffset="71.23"><animate attributeName="stroke-dashoffset" values="71.23" fill="freeze" begin="5dee.click" /><animate attributeName="stroke-dashoffset" values="71.23;71.23;0" keyTimes="0;0.747;1" dur="2.118s" fill="freeze" begin="0s;5dee.click" /></path><path d="M40.46,60.02c0.17,0.98,0.11,2.22-0.42,3.29C36.53,70.44,29,83,13.62,93.88" stroke-dasharray="44.198" stroke-dashoffset="44.198"><animate attributeName="stroke-dashoffset" values="44.198" fill="freeze" begin="5dee.click" /><animate attributeName="stroke-dashoffset" values="44.198;44.198;0" keyTimes="0;0.827;1" dur="2.56s" fill="freeze" begin="0s;5dee.click" /></path><path d="M44.28,71.59c2.22,0.54,4.31,0.35,6.21,0.09c5.25-0.7,16.6-2.19,22.75-2.72c1.75-0.15,3.46-0.29,5.17,0.24" stroke-dasharray="34.375" stroke-dashoffset="34.375"><animate attributeName="stroke-dashoffset" values="34.375" fill="freeze" begin="5dee.click" /><animate attributeName="stroke-dashoffset" values="34.375;34.375;0" keyTimes="0;0.882;1" dur="2.904s" fill="freeze" begin="0s;5dee.click" /></path><path d="M59.53,73.04c0.9,0.9,1.33,2.21,1.33,3.62c0,6.11,0.04,9.96,0.04,16.66" stroke-dasharray="20.619" stroke-dashoffset="20.619"><animate attributeName="stroke-dashoffset" values="20.619" fill="freeze" begin="5dee.click" /><animate attributeName="stroke-dashoffset" values="20.619;20.619;0" keyTimes="0;0.934;1" dur="3.11s" fill="freeze" begin="0s;5dee.click" /></path><path d="M33,95.32c2.88,1.05,5.45,1.11,8.81,0.73c12.46-1.4,28.32-2.41,40.13-2.86c2.88-0.11,5.96-0.06,8.69,1.05" stroke-dasharray="57.991" stroke-dashoffset="57.991"><animate attributeName="stroke-dashoffset" values="57.991" fill="freeze" begin="5dee.click" /><animate attributeName="stroke-dashoffset" values="57.991;57.991;0" keyTimes="0;0.843;1" dur="3.69s" fill="freeze" begin="0s;5dee.click" /></path></g></svg>