<svg xmlns="http://www.w3.org/2000/svg" viewBox="0 0 109 109" id="5e7d"><g fill="none" stroke="#666" stroke-width="6" stroke-linecap="round" stroke-linejoin="round"><g><g><g><path d="M52.49,16.5C53.49,17.51,54,19.12,54,21c0,0.91,0,58,0,65.5" /></g></g><g p4:phon="幺" xmlns:p4="http://kanjivg.tagaini.net"><path d="M34.36,28.12c0.26,1.16,0.29,1.96-0.13,3.3c-1.6,5.14-4.92,11.28-7.64,15.24c-1.01,1.47-1.69,2.94,0.36,3.73c2.68,1.04,5.31,2.13,8.62,4.08" /><path d="M43.12,40.63c0.26,0.58,0.09,2.74-0.22,3.42c-3.75,8.44-11.44,19.33-17.66,28.83c-1.05,1.61-0.2,3.11,1.66,2.42c6.23-2.3,9.48-3.8,15.53-6.35" /><path d="M40.96,63.35c2.11,2.11,5.46,8.68,5.99,11.97" /></g><g p4:phon="幺" xmlns:p4="http://kanjivg.tagaini.net"><path d="M74.36,24.37c0.26,1.16,0.27,2.31-0.38,3.55c-3.39,6.43-6.01,10.48-8.66,14.14c-0.68,0.94-1.29,2.37,0.01,3.14c2.92,1.75,4.8,2.78,8.74,5.77" /><path d="M81.12,38.63c0.38,1.25,0.32,2.66-0.47,3.92c-4.52,7.32-9.15,14.82-16.16,24.83c-1.39,1.98,0.01,2.69,1.73,2.15c5.14-1.61,8.53-2.89,13.7-4.33" /><path d="M78,59.12c1.92,2.24,4.97,9.21,5.45,12.7" /></g><g><path d="M13.13,39.79c1.16,1.17,1.3,3.09,1.25,4.29C14,52.25,13.83,79,13.83,85.94c0,2.72,0.48,4.18,2.98,3.95C32.12,88.5,70.5,86,90.04,85.22" /><path d="M93.25,33.2c0.9,0.9,1.15,2.43,1,4.61c-0.57,8.22-2.13,32.24-2.92,44.33c-0.24,3.64-0.41,6.2-0.46,6.92" /></g></g></g><g fill="none" stroke="#000" stroke-width="3" stroke-linecap="round" stroke-linejoin="round"><path d="M52.49,16.5C53.49,17.51,54,19.12,54,21c0,0.91,0,58,0,65.5" stroke-dasharray="70.367" stroke-dashoffset="70.367"><animate attributeName="stroke-dashoffset" values="70.367;70.367;0" dur="0.529s" fill="freeze" begin="0s;5e7d.click" /></path><path d="M34.36,28.12c0.26,1.16,0.29,1.96-0.13,3.3c-1.6,5.14-4.92,11.28-7.64,15.24c-1.01,1.47-1.69,2.94,0.36,3.73c2.68,1.04,5.31,2.13,8.62,4.08" stroke-dasharray="34.613" stroke-dashoffset="34.613"><animate attributeName="stroke-dashoffset" values="34.613" fill="freeze" begin="5e7d.click" /><animate attributeName="stroke-dashoffset" values="34.613;34.613;0" keyTimes="0;0.605;1" dur="0.875s" fill="freeze" begin="0s;5e7d.click" /></path><path d="M43.12,40.63c0.26,0.58,0.09,2.74-0.22,3.42c-3.75,8.44-11.44,19.33-17.66,28.83c-1.05,1.61-0.2,3.11,1.66,2.42c6.23-2.3,9.48-3.8,15.53-6.35" stroke-dasharray="58.415" stroke-dashoffset="58.415"><animate attributeName="stroke-dashoffset" values="58.415" fill="freeze" begin="5e7d.click" /><animate attributeName="stroke-dashoffset" values="58.415;58.415;0" keyTimes="0;0.6;1" dur="1.459s" fill="freeze" begin="0s;5e7d.click" /></path><path d="M40.96,63.35c2.11,2.11,5.46,8.68,5.99,11.97" stroke-dasharray="13.509" stroke-dashoffset="13.509"><animate attributeName="stroke-dashoffset" values="13.509" fill="freeze" begin="5e7d.click" /><animate attributeName="stroke-dashoffset" values="13.509;13.509;0" keyTimes="0;0.844;1" dur="1.729s" fill="freeze" begin="0s;5e7d.click" /></path><path d="M74.36,24.37c0.26,1.16,0.27,2.31-0.38,3.55c-3.39,6.43-6.01,10.48-8.66,14.14c-0.68,0.94-1.29,2.37,0.01,3.14c2.92,1.75,4.8,2.78,8.74,5.77" stroke-dasharray="34.336" stroke-dashoffset="34.336"><animate attributeName="stroke-dashoffset" values="34.336" fill="freeze" begin="5e7d.click" /><animate attributeName="stroke-dashoffset" values="34.336;34.336;0" keyTimes="0;0.834;1" dur="2.072s" fill="freeze" begin="0s;5e7d.click" /></path><path d="M81.12,38.63c0.38,1.25,0.32,2.66-0.47,3.92c-4.52,7.32-9.15,14.82-16.16,24.83c-1.39,1.98,0.01,2.69,1.73,2.15c5.14-1.61,8.53-2.89,13.7-4.33" stroke-dasharray="52.421" stroke-dashoffset="52.421"><animate attributeName="stroke-dashoffset" values="52.421" fill="freeze" begin="5e7d.click" /><animate attributeName="stroke-dashoffset" values="52.421;52.421;0" keyTimes="0;0.798;1" dur="2.596s" fill="freeze" begin="0s;5e7d.click" /></path><path d="M78,59.12c1.92,2.24,4.97,9.21,5.45,12.7" stroke-dasharray="13.925" stroke-dashoffset="13.925"><animate attributeName="stroke-dashoffset" values="13.925" fill="freeze" begin="5e7d.click" /><animate attributeName="stroke-dashoffset" values="13.925;13.925;0" keyTimes="0;0.903;1" dur="2.875s" fill="freeze" begin="0s;5e7d.click" /></path><path d="M13.13,39.79c1.16,1.17,1.3,3.09,1.25,4.29C14,52.25,13.83,79,13.83,85.94c0,2.72,0.48,4.18,2.98,3.95C32.12,88.5,70.5,86,90.04,85.22" stroke-dasharray="125.736" stroke-dashoffset="125.736"><animate attributeName="stroke-dashoffset" values="125.736" fill="freeze" begin="5e7d.click" /><animate attributeName="stroke-dashoffset" values="125.736;125.736;0" keyTimes="0;0.753;1" dur="3.82s" fill="freeze" begin="0s;5e7d.click" /></path><path d="M93.25,33.2c0.9,0.9,1.15,2.43,1,4.61c-0.57,8.22-2.13,32.24-2.92,44.33c-0.24,3.64-0.41,6.2-0.46,6.92" stroke-dasharray="56.22" stroke-dashoffset="56.22"><animate attributeName="stroke-dashoffset" values="56.22" fill="freeze" begin="5e7d.click" /><animate attributeName="stroke-dashoffset" values="56.22;56.22;0" keyTimes="0;0.872;1" dur="4.382s" fill="freeze" begin="0s;5e7d.click" /></path></g></svg>