<svg xmlns="http://www.w3.org/2000/svg" viewBox="0 0 109 109" id="5e97"><g fill="none" stroke="#666" stroke-width="6" stroke-linecap="round" stroke-linejoin="round"><g><g><path d="M56.81,11.13c1.28,1.28,2.01,2.74,2.01,4.15c0,0.79,0.08,4.65-0.07,9.46" /><g><path d="M25.63,27.23c2.62,0.77,4.72,0.67,6.39,0.54C48,26.5,63.11,24.75,84.3,23.04c2.76-0.22,4.44,0.26,5.83,0.53" /><path d="M28.99,28.5c0.88,0.88,1.18,2,1.16,3.38C29.88,54.88,27.25,78.75,14.5,91" /></g></g><g p4:phon="хНа" xmlns:p4="http://kanjivg.tagaini.net"><g><path d="M57.87,32.88c0.93,0.93,1.62,2.62,1.62,4.09c0,3.03-0.21,27.9-0.21,32.77" /><path d="M60.28,50.84c8.22-0.96,16.22-1.96,22.11-2.82c1.04-0.15,2.96,0,3.8,0.21" /></g><g><path d="M39.49,71.71c1,0.98,1.37,1.56,1.64,3c1.24,6.54,2.21,13.16,3.22,20.24c0.17,1.21,0.33,2.37,0.48,3.45" /><path d="M41.78,73.18c12.31-1.73,32.97-3.68,39.91-4.33c3.3-0.31,4.47,2.39,4.16,3.79c-1.04,4.67-3.04,13.25-4.41,18.9" /><path d="M45.8,95.62C51.66,95,67.7,93.74,78,92.83c1.96-0.17,3.7-0.32,5.11-0.44" /></g></g></g></g><g fill="none" stroke="#000" stroke-width="3" stroke-linecap="round" stroke-linejoin="round"><path d="M56.81,11.13c1.28,1.28,2.01,2.74,2.01,4.15c0,0.79,0.08,4.65-0.07,9.46" stroke-dasharray="14.192" stroke-dashoffset="14.192"><animate attributeName="stroke-dashoffset" values="14.192;14.192;0" dur="0.284s" fill="freeze" begin="0s;5e97.click" /></path><path d="M25.63,27.23c2.62,0.77,4.72,0.67,6.39,0.54C48,26.5,63.11,24.75,84.3,23.04c2.76-0.22,4.44,0.26,5.83,0.53" stroke-dasharray="64.828" stroke-dashoffset="64.828"><animate attributeName="stroke-dashoffset" values="64.828" fill="freeze" begin="5e97.click" /><animate attributeName="stroke-dashoffset" values="64.828;64.828;0" keyTimes="0;0.368;1" dur="0.771s" fill="freeze" begin="0s;5e97.click" /></path><path d="M28.99,28.5c0.88,0.88,1.18,2,1.16,3.38C29.88,54.88,27.25,78.75,14.5,91" stroke-dasharray="66.313" stroke-dashoffset="66.313"><animate attributeName="stroke-dashoffset" values="66.313" fill="freeze" begin="5e97.click" /><animate attributeName="stroke-dashoffset" values="66.313;66.313;0" keyTimes="0;0.607;1" dur="1.27s" fill="freeze" begin="0s;5e97.click" /></path><path d="M57.87,32.88c0.93,0.93,1.62,2.62,1.62,4.09c0,3.03-0.21,27.9-0.21,32.77" stroke-dasharray="37.27" stroke-dashoffset="37.27"><animate attributeName="stroke-dashoffset" values="37.27" fill="freeze" begin="5e97.click" /><animate attributeName="stroke-dashoffset" values="37.27;37.27;0" keyTimes="0;0.773;1" dur="1.643s" fill="freeze" begin="0s;5e97.click" /></path><path d="M60.28,50.84c8.22-0.96,16.22-1.96,22.11-2.82c1.04-0.15,2.96,0,3.8,0.21" stroke-dasharray="26.112" stroke-dashoffset="26.112"><animate attributeName="stroke-dashoffset" values="26.112" fill="freeze" begin="5e97.click" /><animate attributeName="stroke-dashoffset" values="26.112;26.112;0" keyTimes="0;0.863;1" dur="1.904s" fill="freeze" begin="0s;5e97.click" /></path><path d="M39.49,71.71c1,0.98,1.37,1.56,1.64,3c1.24,6.54,2.21,13.16,3.22,20.24c0.17,1.21,0.33,2.37,0.48,3.45" stroke-dasharray="27.474" stroke-dashoffset="27.474"><animate attributeName="stroke-dashoffset" values="27.474" fill="freeze" begin="5e97.click" /><animate attributeName="stroke-dashoffset" values="27.474;27.474;0" keyTimes="0;0.874;1" dur="2.179s" fill="freeze" begin="0s;5e97.click" /></path><path d="M41.78,73.18c12.31-1.73,32.97-3.68,39.91-4.33c3.3-0.31,4.47,2.39,4.16,3.79c-1.04,4.67-3.04,13.25-4.41,18.9" stroke-dasharray="66.09" stroke-dashoffset="66.09"><animate attributeName="stroke-dashoffset" values="66.09" fill="freeze" begin="5e97.click" /><animate attributeName="stroke-dashoffset" values="66.09;66.09;0" keyTimes="0;0.814;1" dur="2.676s" fill="freeze" begin="0s;5e97.click" /></path><path d="M45.8,95.62C51.66,95,67.7,93.74,78,92.83c1.96-0.17,3.7-0.32,5.11-0.44" stroke-dasharray="37.451" stroke-dashoffset="37.451"><animate attributeName="stroke-dashoffset" values="37.451" fill="freeze" begin="5e97.click" /><animate attributeName="stroke-dashoffset" values="37.451;37.451;0" keyTimes="0;0.877;1" dur="3.051s" fill="freeze" begin="0s;5e97.click" /></path></g></svg>