<svg xmlns="http://www.w3.org/2000/svg" viewBox="0 0 109 109" id="5f03"><g fill="none" stroke="#666" stroke-width="6" stroke-linecap="round" stroke-linejoin="round"><g><g><path d="M50.42,10.01c1.02,0.55,2.71,2.69,2.71,3.79c0,4.05-0.32,6.03-0.14,9.45" /><path d="M17.14,26.92c1.82,0.36,3.42,0.75,5.51,0.5c12.45-1.5,47.9-4.46,62.4-5.18c2.13-0.11,3.22,0.04,4.81,0.64" /></g><g><g><path d="M47.05,29.25c0.59,0.53,0.37,1.87-0.02,2.53C43.25,38.25,39.5,43,31.7,50.23c-2.34,2.17-2.48,3.77,1.18,2.9C43,50.75,63,46,75.69,44.19" /><path d="M64.21,34.47C70,37.55,79.18,47.13,80.62,51.91" /></g><g><g><path d="M14.88,71.47c1.52,0.46,4.3,0.53,5.82,0.46c15.8-0.76,48.55-4.36,68.61-4.75c2.53-0.05,4.05,0.22,5.31,0.45" /></g><g><path d="M42.18,59.47c1.09,1.25,1.72,1.82,1.77,3.12c0.52,11.85-2.7,26.91-18.95,35.2" /></g><g><path d="M68.87,55.23c1.09,0.42,1.74,1.9,1.96,2.74c0.22,0.84,0,35.76-0.22,41.03" /></g></g></g></g></g><g fill="none" stroke="#000" stroke-width="3" stroke-linecap="round" stroke-linejoin="round"><path d="M50.42,10.01c1.02,0.55,2.71,2.69,2.71,3.79c0,4.05-0.32,6.03-0.14,9.45" stroke-dasharray="14.24" stroke-dashoffset="14.24"><animate attributeName="stroke-dashoffset" values="14.24;14.24;0" dur="0.285s" fill="freeze" begin="0s;5f03.click" /></path><path d="M17.14,26.92c1.82,0.36,3.42,0.75,5.51,0.5c12.45-1.5,47.9-4.46,62.4-5.18c2.13-0.11,3.22,0.04,4.81,0.64" stroke-dasharray="73.079" stroke-dashoffset="73.079"><animate attributeName="stroke-dashoffset" values="73.079" fill="freeze" begin="5f03.click" /><animate attributeName="stroke-dashoffset" values="73.079;73.079;0" keyTimes="0;0.342;1" dur="0.834s" fill="freeze" begin="0s;5f03.click" /></path><path d="M47.05,29.25c0.59,0.53,0.37,1.87-0.02,2.53C43.25,38.25,39.5,43,31.7,50.23c-2.34,2.17-2.48,3.77,1.18,2.9C43,50.75,63,46,75.69,44.19" stroke-dasharray="76.788" stroke-dashoffset="76.788"><animate attributeName="stroke-dashoffset" values="76.788" fill="freeze" begin="5f03.click" /><animate attributeName="stroke-dashoffset" values="76.788;76.788;0" keyTimes="0;0.591;1" dur="1.411s" fill="freeze" begin="0s;5f03.click" /></path><path d="M64.21,34.47C70,37.55,79.18,47.13,80.62,51.91" stroke-dasharray="24.293" stroke-dashoffset="24.293"><animate attributeName="stroke-dashoffset" values="24.293" fill="freeze" begin="5f03.click" /><animate attributeName="stroke-dashoffset" values="24.293;24.293;0" keyTimes="0;0.853;1" dur="1.654s" fill="freeze" begin="0s;5f03.click" /></path><path d="M14.88,71.47c1.52,0.46,4.3,0.53,5.82,0.46c15.8-0.76,48.55-4.36,68.61-4.75c2.53-0.05,4.05,0.22,5.31,0.45" stroke-dasharray="79.982" stroke-dashoffset="79.982"><animate attributeName="stroke-dashoffset" values="79.982" fill="freeze" begin="5f03.click" /><animate attributeName="stroke-dashoffset" values="79.982;79.982;0" keyTimes="0;0.733;1" dur="2.255s" fill="freeze" begin="0s;5f03.click" /></path><path d="M42.18,59.47c1.09,1.25,1.72,1.82,1.77,3.12c0.52,11.85-2.7,26.91-18.95,35.2" stroke-dasharray="46.167" stroke-dashoffset="46.167"><animate attributeName="stroke-dashoffset" values="46.167" fill="freeze" begin="5f03.click" /><animate attributeName="stroke-dashoffset" values="46.167;46.167;0" keyTimes="0;0.83;1" dur="2.717s" fill="freeze" begin="0s;5f03.click" /></path><path d="M68.87,55.23c1.09,0.42,1.74,1.9,1.96,2.74c0.22,0.84,0,35.76-0.22,41.03" stroke-dasharray="44.516" stroke-dashoffset="44.516"><animate attributeName="stroke-dashoffset" values="44.516" fill="freeze" begin="5f03.click" /><animate attributeName="stroke-dashoffset" values="44.516;44.516;0" keyTimes="0;0.859;1" dur="3.162s" fill="freeze" begin="0s;5f03.click" /></path></g></svg>