<svg xmlns="http://www.w3.org/2000/svg" viewBox="0 0 109 109" id="5f13"><g fill="none" stroke="#666" stroke-width="6" stroke-linecap="round" stroke-linejoin="round"><g><path d="M30.12,17.68c1.75,0.69,4.14,0.87,6.22,0.72c8.65-0.65,32.36-3.67,36.51-4.41c4.15-0.73,5.27,1.01,4.3,3.71c-0.85,2.37-3.43,9.69-4.31,13.31" /><path d="M32.88,35c1.72,0.49,3.26,0.61,5,0.46c8.37-0.71,26.62-2.59,31.16-3.21c1.84-0.25,4.09-0.5,5.96,0" /><path d="M33.68,35.3c0.57,0.57,0.93,2.32,0.24,3.93c-1.18,2.77-5.39,11.18-7.37,14.46c-1.55,2.57-0.22,3.83,3.07,3.18c14-2.74,37.8-6.15,47.25-7.66c5.26-0.84,5.5,2.16,4.54,6.67c-2.29,10.75-10.27,29.08-15.74,36.67C61.75,98,55.64,92.39,53.75,90.5" /></g></g><g fill="none" stroke="#000" stroke-width="3" stroke-linecap="round" stroke-linejoin="round"><path d="M30.12,17.68c1.75,0.69,4.14,0.87,6.22,0.72c8.65-0.65,32.36-3.67,36.51-4.41c4.15-0.73,5.27,1.01,4.3,3.71c-0.85,2.37-3.43,9.69-4.31,13.31" stroke-dasharray="64.666" stroke-dashoffset="64.666"><animate attributeName="stroke-dashoffset" values="64.666;64.666;0" dur="0.486s" fill="freeze" begin="0s;5f13.click" /></path><path d="M32.88,35c1.72,0.49,3.26,0.61,5,0.46c8.37-0.71,26.62-2.59,31.16-3.21c1.84-0.25,4.09-0.5,5.96,0" stroke-dasharray="42.377" stroke-dashoffset="42.377"><animate attributeName="stroke-dashoffset" values="42.377" fill="freeze" begin="5f13.click" /><animate attributeName="stroke-dashoffset" values="42.377;42.377;0" keyTimes="0;0.534;1" dur="0.91s" fill="freeze" begin="0s;5f13.click" /></path><path d="M33.68,35.3c0.57,0.57,0.93,2.32,0.24,3.93c-1.18,2.77-5.39,11.18-7.37,14.46c-1.55,2.57-0.22,3.83,3.07,3.18c14-2.74,37.8-6.15,47.25-7.66c5.26-0.84,5.5,2.16,4.54,6.67c-2.29,10.75-10.27,29.08-15.74,36.67C61.75,98,55.64,92.39,53.75,90.5" stroke-dasharray="139.483" stroke-dashoffset="139.483"><animate attributeName="stroke-dashoffset" values="139.483" fill="freeze" begin="5f13.click" /><animate attributeName="stroke-dashoffset" values="139.483;139.483;0" keyTimes="0;0.465;1" dur="1.959s" fill="freeze" begin="0s;5f13.click" /></path></g></svg>