<svg xmlns="http://www.w3.org/2000/svg" viewBox="0 0 109 109" id="5f1f"><g fill="none" stroke="#666" stroke-width="6" stroke-linecap="round" stroke-linejoin="round"><g><g><path d="M33.5,15c3.29,1.85,8.49,7.59,9.31,10.47" /><path d="M67.75,11.5c0.08,0.89-0.06,1.73-0.43,2.54C66.1,17.24,62.6,22.58,58,26" /></g><g><g><g><path d="M23.62,32.04c2.38,0.83,5.8,0.77,8.26,0.44C45,30.75,59,28.88,76.36,26.72c2.89-0.36,4.04,2.4,3.3,4.3c-0.76,1.96-2.56,7.92-3.16,10.73" /><path d="M24,47.5c1.5,0.38,3.38,0.43,5.25,0.3c11.25-0.8,31.63-2.92,45.15-4.55c1.54-0.19,3.11-0.25,4.36,0" /><path d="M25.43,48.42c0.82,0.82,0.75,2.42,0,3.71c-1.68,2.87-3.6,6.04-4.12,6.84c-1.8,2.78-1.3,4.69,1.32,4.38c2.5-0.29,59.11-6.03,65.75-6.62c6.64-0.6,5.02,3.99,4.54,5.42C92,64.89,87.73,73.5,84.92,78.44c-4.17,7.31-6.92,1.31-8.67-0.98" /></g><g><path d="M52.9,32.41c1.06,0.63,1.91,2.34,1.91,4.12c0,10.03,0.09,40.05-0.09,56.48c-0.03,2.78-0.07,5.16-0.12,7" /></g></g><g><path d="M52.69,60.75c0.09,0.64,0.19,1.64-0.19,2.56c-2.22,5.39-16.5,20.21-34,27.44" /></g></g></g></g><g fill="none" stroke="#000" stroke-width="3" stroke-linecap="round" stroke-linejoin="round"><path d="M33.5,15c3.29,1.85,8.49,7.59,9.31,10.47" stroke-dasharray="14.212" stroke-dashoffset="14.212"><animate attributeName="stroke-dashoffset" values="14.212;14.212;0" dur="0.284s" fill="freeze" begin="0s;5f1f.click" /></path><path d="M67.75,11.5c0.08,0.89-0.06,1.73-0.43,2.54C66.1,17.24,62.6,22.58,58,26" stroke-dasharray="17.938" stroke-dashoffset="17.938"><animate attributeName="stroke-dashoffset" values="17.938" fill="freeze" begin="5f1f.click" /><animate attributeName="stroke-dashoffset" values="17.938;17.938;0" keyTimes="0;0.613;1" dur="0.463s" fill="freeze" begin="0s;5f1f.click" /></path><path d="M23.62,32.04c2.38,0.83,5.8,0.77,8.26,0.44C45,30.75,59,28.88,76.36,26.72c2.89-0.36,4.04,2.4,3.3,4.3c-0.76,1.96-2.56,7.92-3.16,10.73" stroke-dasharray="70.977" stroke-dashoffset="70.977"><animate attributeName="stroke-dashoffset" values="70.977" fill="freeze" begin="5f1f.click" /><animate attributeName="stroke-dashoffset" values="70.977;70.977;0" keyTimes="0;0.464;1" dur="0.997s" fill="freeze" begin="0s;5f1f.click" /></path><path d="M24,47.5c1.5,0.38,3.38,0.43,5.25,0.3c11.25-0.8,31.63-2.92,45.15-4.55c1.54-0.19,3.11-0.25,4.36,0" stroke-dasharray="55.04" stroke-dashoffset="55.04"><animate attributeName="stroke-dashoffset" values="55.04" fill="freeze" begin="5f1f.click" /><animate attributeName="stroke-dashoffset" values="55.04;55.04;0" keyTimes="0;0.644;1" dur="1.547s" fill="freeze" begin="0s;5f1f.click" /></path><path d="M25.43,48.42c0.82,0.82,0.75,2.42,0,3.71c-1.68,2.87-3.6,6.04-4.12,6.84c-1.8,2.78-1.3,4.69,1.32,4.38c2.5-0.29,59.11-6.03,65.75-6.62c6.64-0.6,5.02,3.99,4.54,5.42C92,64.89,87.73,73.5,84.92,78.44c-4.17,7.31-6.92,1.31-8.67-0.98" stroke-dasharray="124.149" stroke-dashoffset="124.149"><animate attributeName="stroke-dashoffset" values="124.149" fill="freeze" begin="5f1f.click" /><animate attributeName="stroke-dashoffset" values="124.149;124.149;0" keyTimes="0;0.624;1" dur="2.48s" fill="freeze" begin="0s;5f1f.click" /></path><path d="M52.9,32.41c1.06,0.63,1.91,2.34,1.91,4.12c0,10.03,0.09,40.05-0.09,56.48c-0.03,2.78-0.07,5.16-0.12,7" stroke-dasharray="68.203" stroke-dashoffset="68.203"><animate attributeName="stroke-dashoffset" values="68.203" fill="freeze" begin="5f1f.click" /><animate attributeName="stroke-dashoffset" values="68.203;68.203;0" keyTimes="0;0.829;1" dur="2.993s" fill="freeze" begin="0s;5f1f.click" /></path><path d="M52.69,60.75c0.09,0.64,0.19,1.64-0.19,2.56c-2.22,5.39-16.5,20.21-34,27.44" stroke-dasharray="46.959" stroke-dashoffset="46.959"><animate attributeName="stroke-dashoffset" values="46.959" fill="freeze" begin="5f1f.click" /><animate attributeName="stroke-dashoffset" values="46.959;46.959;0" keyTimes="0;0.864;1" dur="3.463s" fill="freeze" begin="0s;5f1f.click" /></path></g></svg>