<svg xmlns="http://www.w3.org/2000/svg" viewBox="0 0 109 109" id="5f26"><g fill="none" stroke="#666" stroke-width="6" stroke-linecap="round" stroke-linejoin="round"><g><g><path d="M17.32,19.83c1.8,0.79,3.78,1.01,4.86,0.79c5.94-1.24,14.28-3.01,16.73-3.52c2.83-0.6,3.95,1.34,3.09,3.38c-0.64,1.52-3.25,10.33-4.14,14.05" /><path d="M18.25,37.5c1.12,0.38,1.59,0.4,3,0.24c4.84-0.54,13.21-2.3,14.4-2.49C37.25,35,38.76,35,40,35" /><path d="M19.56,38.87c0.72,0.72,0.67,2.05,0.35,3.56c-0.37,1.73-1.41,5.82-2.2,8.65c-1.09,3.92-0.71,4.8,3.25,3.55c3.93-1.24,9.16-3.06,12.88-4.18c3.16-0.95,4.55,0.79,4.13,4.67C37,64,34.87,79.92,29.51,89.26c-4.01,6.99-6.79,1.19-7.54-0.66" /></g><g p4:phon="玄" xmlns:p4="http://kanjivg.tagaini.net"><g><path d="M66.11,14.75c1.13,0.61,2.48,2,2.48,4.16c0,4.45-0.09,10.02-0.09,14.34" /><path d="M46,36.52c2.84,0.21,5.5,0.22,8.36-0.18c9.33-1.29,24.07-3.59,33.28-4.36c2.25-0.19,4.69-0.62,6.87,0.2" /></g><g><path d="M66.34,37.87c0.66,1.01,0.45,2.04-0.18,3.47C63.75,46.75,60.25,52,56.01,57.92c-0.89,1.25-0.69,2.17,0.25,2.79c4.22,2.78,6.45,4.64,9.74,7.05" /><path d="M80.71,48.12c0.54,1.38,0.18,3.05-1,4.75C73,62.5,64.5,72,50.46,87.12c-1.57,1.69-0.73,3.33,1.25,2.75c13.67-3.99,17.79-5.37,33.75-10.25" /><path d="M81.38,70.5c3.65,3.86,9.42,15.86,10.33,21.87" /></g></g></g></g><g fill="none" stroke="#000" stroke-width="3" stroke-linecap="round" stroke-linejoin="round"><path d="M17.32,19.83c1.8,0.79,3.78,1.01,4.86,0.79c5.94-1.24,14.28-3.01,16.73-3.52c2.83-0.6,3.95,1.34,3.09,3.38c-0.64,1.52-3.25,10.33-4.14,14.05" stroke-dasharray="42.727" stroke-dashoffset="42.727"><animate attributeName="stroke-dashoffset" values="42.727;42.727;0" dur="0.427s" fill="freeze" begin="0s;5f26.click" /></path><path d="M18.25,37.5c1.12,0.38,1.59,0.4,3,0.24c4.84-0.54,13.21-2.3,14.4-2.49C37.25,35,38.76,35,40,35" stroke-dasharray="22.025" stroke-dashoffset="22.025"><animate attributeName="stroke-dashoffset" values="22.025" fill="freeze" begin="5f26.click" /><animate attributeName="stroke-dashoffset" values="22.025;22.025;0" keyTimes="0;0.66;1" dur="0.647s" fill="freeze" begin="0s;5f26.click" /></path><path d="M19.56,38.87c0.72,0.72,0.67,2.05,0.35,3.56c-0.37,1.73-1.41,5.82-2.2,8.65c-1.09,3.92-0.71,4.8,3.25,3.55c3.93-1.24,9.16-3.06,12.88-4.18c3.16-0.95,4.55,0.79,4.13,4.67C37,64,34.87,79.92,29.51,89.26c-4.01,6.99-6.79,1.19-7.54-0.66" stroke-dasharray="88.123" stroke-dashoffset="88.123"><animate attributeName="stroke-dashoffset" values="88.123" fill="freeze" begin="5f26.click" /><animate attributeName="stroke-dashoffset" values="88.123;88.123;0" keyTimes="0;0.494;1" dur="1.31s" fill="freeze" begin="0s;5f26.click" /></path><path d="M66.11,14.75c1.13,0.61,2.48,2,2.48,4.16c0,4.45-0.09,10.02-0.09,14.34" stroke-dasharray="19.428" stroke-dashoffset="19.428"><animate attributeName="stroke-dashoffset" values="19.428" fill="freeze" begin="5f26.click" /><animate attributeName="stroke-dashoffset" values="19.428;19.428;0" keyTimes="0;0.871;1" dur="1.504s" fill="freeze" begin="0s;5f26.click" /></path><path d="M46,36.52c2.84,0.21,5.5,0.22,8.36-0.18c9.33-1.29,24.07-3.59,33.28-4.36c2.25-0.19,4.69-0.62,6.87,0.2" stroke-dasharray="48.885" stroke-dashoffset="48.885"><animate attributeName="stroke-dashoffset" values="48.885" fill="freeze" begin="5f26.click" /><animate attributeName="stroke-dashoffset" values="48.885;48.885;0" keyTimes="0;0.755;1" dur="1.993s" fill="freeze" begin="0s;5f26.click" /></path><path d="M66.34,37.87c0.66,1.01,0.45,2.04-0.18,3.47C63.75,46.75,60.25,52,56.01,57.92c-0.89,1.25-0.69,2.17,0.25,2.79c4.22,2.78,6.45,4.64,9.74,7.05" stroke-dasharray="38.372" stroke-dashoffset="38.372"><animate attributeName="stroke-dashoffset" values="38.372" fill="freeze" begin="5f26.click" /><animate attributeName="stroke-dashoffset" values="38.372;38.372;0" keyTimes="0;0.838;1" dur="2.377s" fill="freeze" begin="0s;5f26.click" /></path><path d="M80.71,48.12c0.54,1.38,0.18,3.05-1,4.75C73,62.5,64.5,72,50.46,87.12c-1.57,1.69-0.73,3.33,1.25,2.75c13.67-3.99,17.79-5.37,33.75-10.25" stroke-dasharray="90.085" stroke-dashoffset="90.085"><animate attributeName="stroke-dashoffset" values="90.085" fill="freeze" begin="5f26.click" /><animate attributeName="stroke-dashoffset" values="90.085;90.085;0" keyTimes="0;0.778;1" dur="3.054s" fill="freeze" begin="0s;5f26.click" /></path><path d="M81.38,70.5c3.65,3.86,9.42,15.86,10.33,21.87" stroke-dasharray="24.396" stroke-dashoffset="24.396"><animate attributeName="stroke-dashoffset" values="24.396" fill="freeze" begin="5f26.click" /><animate attributeName="stroke-dashoffset" values="24.396;24.396;0" keyTimes="0;0.926;1" dur="3.298s" fill="freeze" begin="0s;5f26.click" /></path></g></svg>