<svg xmlns="http://www.w3.org/2000/svg" viewBox="0 0 109 109" id="5f59"><g fill="none" stroke="#666" stroke-width="6" stroke-linecap="round" stroke-linejoin="round"><g><g><path d="M41.2,9.25c0.79,1.19,1.12,3.07,0.4,4.84C40,18,39.75,19.25,37.5,22.52c-0.94,1.37-0.25,2.73,1.68,2.48c8.03-1.02,13.69-1.55,25.63-2.28" /><path d="M40.75,16.96c5.5-0.71,17.75-1.46,25.27-2.71c1.72-0.29,2.68,1.31,2.25,2.95c-1.61,6.08-2.02,6.55-4.05,12.55" /><path d="M18.75,32.71c1.49,0.53,4.22,0.58,5.71,0.53c15.79-0.49,48.18-5.38,63.82-4.63c2.48,0.12,3.97,0.25,5.22,0.52" /></g><g><g><path d="M22.41,39.38c0,3.2-3.03,11.98-4.41,14.12" /><path d="M22.24,42.21c8.74-0.88,55.85-4.54,62.94-4.88c11.08-0.52,2.35,5.89-0.41,7.78" /></g><g><g><g><path d="M30.47,49.12c0.65,0.48,1.57,1.06,1.57,1.71c0,0.65,3.85,19.03,3.97,19.68" /><path d="M32.17,50.19c1.94-0.08,39.76-2.95,41.53-2.95c2.33,0.01,2.8,2.89,2.69,3.37c-0.23,0.98-4.15,16.67-4.15,17.16" /><path d="M33.84,59.33c2.62,0,37.13-2.9,40.1-2.9" /><path d="M36.8,68.52c5.34-0.35,28.42-2.61,35.08-2.91" /></g></g><g><path d="M16.33,78.81c0.91,0.22,3.32,0.59,5.73,0.67c6.64,0.22,45.73-4.28,65.05-4.72c2.41-0.06,3.02,0.22,4.53,0.45" /><g><path d="M51.67,50.13c1.19,0.31,1.91,1.91,2.15,2.54c0.24,0.63,0,44.41-0.24,48.33" /></g><path d="M51.51,77.48C45.08,84.83,28.37,95.22,15,99.38" /><path d="M54.32,77.67c5.21,2.93,28.04,16.78,33.7,19.66c1.92,0.97,3.56,1.39,5.48,1.67" /></g></g></g></g></g><g fill="none" stroke="#000" stroke-width="3" stroke-linecap="round" stroke-linejoin="round"><path d="M41.2,9.25c0.79,1.19,1.12,3.07,0.4,4.84C40,18,39.75,19.25,37.5,22.52c-0.94,1.37-0.25,2.73,1.68,2.48c8.03-1.02,13.69-1.55,25.63-2.28" stroke-dasharray="44.289" stroke-dashoffset="44.289"><animate attributeName="stroke-dashoffset" values="44.289;44.289;0" dur="0.443s" fill="freeze" begin="0s;5f59.click" /></path><path d="M40.75,16.96c5.5-0.71,17.75-1.46,25.27-2.71c1.72-0.29,2.68,1.31,2.25,2.95c-1.61,6.08-2.02,6.55-4.05,12.55" stroke-dasharray="43.098" stroke-dashoffset="43.098"><animate attributeName="stroke-dashoffset" values="43.098" fill="freeze" begin="5f59.click" /><animate attributeName="stroke-dashoffset" values="43.098;43.098;0" keyTimes="0;0.507;1" dur="0.874s" fill="freeze" begin="0s;5f59.click" /></path><path d="M18.75,32.71c1.49,0.53,4.22,0.58,5.71,0.53c15.79-0.49,48.18-5.38,63.82-4.63c2.48,0.12,3.97,0.25,5.22,0.52" stroke-dasharray="75.035" stroke-dashoffset="75.035"><animate attributeName="stroke-dashoffset" values="75.035" fill="freeze" begin="5f59.click" /><animate attributeName="stroke-dashoffset" values="75.035;75.035;0" keyTimes="0;0.608;1" dur="1.438s" fill="freeze" begin="0s;5f59.click" /></path><path d="M22.41,39.38c0,3.2-3.03,11.98-4.41,14.12" stroke-dasharray="14.879" stroke-dashoffset="14.879"><animate attributeName="stroke-dashoffset" values="14.879" fill="freeze" begin="5f59.click" /><animate attributeName="stroke-dashoffset" values="14.879;14.879;0" keyTimes="0;0.828;1" dur="1.736s" fill="freeze" begin="0s;5f59.click" /></path><path d="M22.24,42.21c8.74-0.88,55.85-4.54,62.94-4.88c11.08-0.52,2.35,5.89-0.41,7.78" stroke-dasharray="78.031" stroke-dashoffset="78.031"><animate attributeName="stroke-dashoffset" values="78.031" fill="freeze" begin="5f59.click" /><animate attributeName="stroke-dashoffset" values="78.031;78.031;0" keyTimes="0;0.747;1" dur="2.323s" fill="freeze" begin="0s;5f59.click" /></path><path d="M30.47,49.12c0.65,0.48,1.57,1.06,1.57,1.71c0,0.65,3.85,19.03,3.97,19.68" stroke-dasharray="22.474" stroke-dashoffset="22.474"><animate attributeName="stroke-dashoffset" values="22.474" fill="freeze" begin="5f59.click" /><animate attributeName="stroke-dashoffset" values="22.474;22.474;0" keyTimes="0;0.912;1" dur="2.548s" fill="freeze" begin="0s;5f59.click" /></path><path d="M32.17,50.19c1.94-0.08,39.76-2.95,41.53-2.95c2.33,0.01,2.8,2.89,2.69,3.37c-0.23,0.98-4.15,16.67-4.15,17.16" stroke-dasharray="64.098" stroke-dashoffset="64.098"><animate attributeName="stroke-dashoffset" values="64.098" fill="freeze" begin="5f59.click" /><animate attributeName="stroke-dashoffset" values="64.098;64.098;0" keyTimes="0;0.841;1" dur="3.03s" fill="freeze" begin="0s;5f59.click" /></path><path d="M33.84,59.33c2.62,0,37.13-2.9,40.1-2.9" stroke-dasharray="40.208" stroke-dashoffset="40.208"><animate attributeName="stroke-dashoffset" values="40.208" fill="freeze" begin="5f59.click" /><animate attributeName="stroke-dashoffset" values="40.208;40.208;0" keyTimes="0;0.883;1" dur="3.432s" fill="freeze" begin="0s;5f59.click" /></path><path d="M36.8,68.52c5.34-0.35,28.42-2.61,35.08-2.91" stroke-dasharray="35.203" stroke-dashoffset="35.203"><animate attributeName="stroke-dashoffset" values="35.203" fill="freeze" begin="5f59.click" /><animate attributeName="stroke-dashoffset" values="35.203;35.203;0" keyTimes="0;0.907;1" dur="3.784s" fill="freeze" begin="0s;5f59.click" /></path><path d="M16.33,78.81c0.91,0.22,3.32,0.59,5.73,0.67c6.64,0.22,45.73-4.28,65.05-4.72c2.41-0.06,3.02,0.22,4.53,0.45" stroke-dasharray="75.575" stroke-dashoffset="75.575"><animate attributeName="stroke-dashoffset" values="75.575" fill="freeze" begin="5f59.click" /><animate attributeName="stroke-dashoffset" values="75.575;75.575;0" keyTimes="0;0.869;1" dur="4.352s" fill="freeze" begin="0s;5f59.click" /></path><path d="M51.67,50.13c1.19,0.31,1.91,1.91,2.15,2.54c0.24,0.63,0,44.41-0.24,48.33" stroke-dasharray="51.779" stroke-dashoffset="51.779"><animate attributeName="stroke-dashoffset" values="51.779" fill="freeze" begin="5f59.click" /><animate attributeName="stroke-dashoffset" values="51.779;51.779;0" keyTimes="0;0.894;1" dur="4.87s" fill="freeze" begin="0s;5f59.click" /></path><path d="M51.51,77.48C45.08,84.83,28.37,95.22,15,99.38" stroke-dasharray="42.958" stroke-dashoffset="42.958"><animate attributeName="stroke-dashoffset" values="42.958" fill="freeze" begin="5f59.click" /><animate attributeName="stroke-dashoffset" values="42.958;42.958;0" keyTimes="0;0.919;1" dur="5.3s" fill="freeze" begin="0s;5f59.click" /></path><path d="M54.32,77.67c5.21,2.93,28.04,16.78,33.7,19.66c1.92,0.97,3.56,1.39,5.48,1.67" stroke-dasharray="44.776" stroke-dashoffset="44.776"><animate attributeName="stroke-dashoffset" values="44.776" fill="freeze" begin="5f59.click" /><animate attributeName="stroke-dashoffset" values="44.776;44.776;0" keyTimes="0;0.922;1" dur="5.748s" fill="freeze" begin="0s;5f59.click" /></path></g></svg>