<svg xmlns="http://www.w3.org/2000/svg" viewBox="0 0 109 109" id="5f83"><g fill="none" stroke="#666" stroke-width="6" stroke-linecap="round" stroke-linejoin="round"><g><g><path d="M34.09,16.25c0.05,0.52,0.27,1.44-0.11,2.08c-2.68,4.5-10.75,15.33-18.61,19.92" /><g><path d="M38.84,33.75c0.07,0.75,0.33,2.1-0.14,3.03c-3.32,6.54-12.04,17.91-24.2,28.97" /><path d="M27.72,56c0.36,0.25,0.57,1.15,0.65,1.66c0.07,0.51,0,36.65-0.07,39.84" /></g></g><g><path d="M52.88,25.59c0.04,0.73,0.19,1.9-0.08,2.92c-1.8,6.99-6.3,17.24-14.22,27.9" /><path d="M50.3,44.53c1,0.6,2.82,0.72,3.82,0.6c7.19-0.86,26.5-4.91,32.7-5.83c1.65-0.25,2.34-0.14,3.22-0.04" /><path d="M64.99,14.88c0.8,0.55,2.15,1.87,2.15,5.24c0,1.12-0.1,64.75-0.26,71.65" /><path d="M49.55,66.98c0.86,0.35,2.44,0.42,3.3,0.35c6.2-0.5,25.9-3.61,31.25-4.15c1.43-0.14,2.02-0.08,2.78-0.02" /><path d="M38.75,94.3c1.17,0.44,3.33,1.06,4.5,0.94C54.5,94,78.75,91.5,90.96,91.56c1.95,0.01,3.59,0.36,5.39,1.42" /></g></g></g><g fill="none" stroke="#000" stroke-width="3" stroke-linecap="round" stroke-linejoin="round"><path d="M34.09,16.25c0.05,0.52,0.27,1.44-0.11,2.08c-2.68,4.5-10.75,15.33-18.61,19.92" stroke-dasharray="29.605" stroke-dashoffset="29.605"><animate attributeName="stroke-dashoffset" values="29.605;29.605;0" dur="0.296s" fill="freeze" begin="0s;5f83.click" /></path><path d="M38.84,33.75c0.07,0.75,0.33,2.1-0.14,3.03c-3.32,6.54-12.04,17.91-24.2,28.97" stroke-dasharray="40.987" stroke-dashoffset="40.987"><animate attributeName="stroke-dashoffset" values="40.987" fill="freeze" begin="5f83.click" /><animate attributeName="stroke-dashoffset" values="40.987;40.987;0" keyTimes="0;0.419;1" dur="0.706s" fill="freeze" begin="0s;5f83.click" /></path><path d="M27.72,56c0.36,0.25,0.57,1.15,0.65,1.66c0.07,0.51,0,36.65-0.07,39.84" stroke-dasharray="41.658" stroke-dashoffset="41.658"><animate attributeName="stroke-dashoffset" values="41.658" fill="freeze" begin="5f83.click" /><animate attributeName="stroke-dashoffset" values="41.658;41.658;0" keyTimes="0;0.629;1" dur="1.123s" fill="freeze" begin="0s;5f83.click" /></path><path d="M52.88,25.59c0.04,0.73,0.19,1.9-0.08,2.92c-1.8,6.99-6.3,17.24-14.22,27.9" stroke-dasharray="34.429" stroke-dashoffset="34.429"><animate attributeName="stroke-dashoffset" values="34.429" fill="freeze" begin="5f83.click" /><animate attributeName="stroke-dashoffset" values="34.429;34.429;0" keyTimes="0;0.766;1" dur="1.467s" fill="freeze" begin="0s;5f83.click" /></path><path d="M50.3,44.53c1,0.6,2.82,0.72,3.82,0.6c7.19-0.86,26.5-4.91,32.7-5.83c1.65-0.25,2.34-0.14,3.22-0.04" stroke-dasharray="40.375" stroke-dashoffset="40.375"><animate attributeName="stroke-dashoffset" values="40.375" fill="freeze" begin="5f83.click" /><animate attributeName="stroke-dashoffset" values="40.375;40.375;0" keyTimes="0;0.784;1" dur="1.871s" fill="freeze" begin="0s;5f83.click" /></path><path d="M64.99,14.88c0.8,0.55,2.15,1.87,2.15,5.24c0,1.12-0.1,64.75-0.26,71.65" stroke-dasharray="77.549" stroke-dashoffset="77.549"><animate attributeName="stroke-dashoffset" values="77.549" fill="freeze" begin="5f83.click" /><animate attributeName="stroke-dashoffset" values="77.549;77.549;0" keyTimes="0;0.762;1" dur="2.454s" fill="freeze" begin="0s;5f83.click" /></path><path d="M49.55,66.98c0.86,0.35,2.44,0.42,3.3,0.35c6.2-0.5,25.9-3.61,31.25-4.15c1.43-0.14,2.02-0.08,2.78-0.02" stroke-dasharray="37.654" stroke-dashoffset="37.654"><animate attributeName="stroke-dashoffset" values="37.654" fill="freeze" begin="5f83.click" /><animate attributeName="stroke-dashoffset" values="37.654;37.654;0" keyTimes="0;0.867;1" dur="2.831s" fill="freeze" begin="0s;5f83.click" /></path><path d="M38.75,94.3c1.17,0.44,3.33,1.06,4.5,0.94C54.5,94,78.75,91.5,90.96,91.56c1.95,0.01,3.59,0.36,5.39,1.42" stroke-dasharray="58.144" stroke-dashoffset="58.144"><animate attributeName="stroke-dashoffset" values="58.144" fill="freeze" begin="5f83.click" /><animate attributeName="stroke-dashoffset" values="58.144;58.144;0" keyTimes="0;0.83;1" dur="3.412s" fill="freeze" begin="0s;5f83.click" /></path></g></svg>