<svg xmlns="http://www.w3.org/2000/svg" viewBox="0 0 109 109" id="5fa1"><g fill="none" stroke="#666" stroke-width="6" stroke-linecap="round" stroke-linejoin="round"><g><g><path d="M24.86,17.5c0.09,0.76-0.43,1.63-0.83,2.23c-2.39,3.67-8.48,10.1-14.66,13.52" /><g><path d="M25.14,37.5c0,1-0.29,1.92-0.59,2.66c-2.1,5.21-7.64,14.65-15.05,22.09" /><path d="M21.72,49c0.7,0.7,0.9,1.88,0.9,2.91c0,0.41,0.02,24.24-0.03,35.84c-0.01,3.1-0.03,5.33-0.04,6" /></g></g><g><g><g><g><path d="M44.14,13.47c0.03,0.56-0.1,1.62-0.32,2.25c-2.32,6.66-6.32,13.41-12.7,21.51" /><g><path d="M41.57,26.68c1.18,0.2,2.2,0.08,3.08-0.05c4.23-0.63,7.73-1.25,11.47-2.29c1.08-0.3,3.26-0.46,4.64-0.31" /></g></g><g><g><g><path d="M33.25,42.68c1.84,0.85,5.15,0.38,7.01,0.01c5.69-1.12,15.11-3.31,21.25-4.83c1.13-0.28,2.6-0.5,3.77-0.17" /><g><g><path d="M49.58,28.16c0.94,0.94,1.13,1.96,1.13,3.3c0,0.96-0.08,31.26-0.08,39.03" /></g></g></g></g></g></g><g><g><g><path d="M51.92,52.84c4.2-0.59,6.7-1.34,10.53-1.85c1.45-0.19,2.56-0.23,3.47,0" /></g></g><path d="M36.34,54.76c1.01,1.01,1.62,1.73,1.63,3.05c0.03,3.69,0.36,11.57,0.4,17.81" /><path d="M34.46,76.79c0.54,0.71,1.29,1.21,2.6,0.66c6.19-2.58,20.57-9.21,27.53-12.2" /></g></g><g><path d="M71.22,26.9c1.66,0.73,3.67,0.68,5.12,0.48c1.45-0.2,14.64-3.01,16.45-3.21s4.71-0.41,4.71,3.89c0,6.7-2,25.2-4.86,35.05c-2.56,8.81-6.88,1.02-7.43,0.61" /><path d="M72.47,28.05c0.87,0.87,1.29,1.84,1.3,3.45c0.08,9.95,0.03,38.68,0.01,55.75c0,3.49-0.01,6.42-0.01,8.5" /></g></g></g></g><g fill="none" stroke="#000" stroke-width="3" stroke-linecap="round" stroke-linejoin="round"><path d="M24.86,17.5c0.09,0.76-0.43,1.63-0.83,2.23c-2.39,3.67-8.48,10.1-14.66,13.52" stroke-dasharray="22.524" stroke-dashoffset="22.524"><animate attributeName="stroke-dashoffset" values="22.524;22.524;0" dur="0.225s" fill="freeze" begin="0s;5fa1.click" /></path><path d="M25.14,37.5c0,1-0.29,1.92-0.59,2.66c-2.1,5.21-7.64,14.65-15.05,22.09" stroke-dasharray="29.62" stroke-dashoffset="29.62"><animate attributeName="stroke-dashoffset" values="29.62" fill="freeze" begin="5fa1.click" /><animate attributeName="stroke-dashoffset" values="29.62;29.62;0" keyTimes="0;0.432;1" dur="0.521s" fill="freeze" begin="0s;5fa1.click" /></path><path d="M21.72,49c0.7,0.7,0.9,1.88,0.9,2.91c0,0.41,0.02,24.24-0.03,35.84c-0.01,3.1-0.03,5.33-0.04,6" stroke-dasharray="44.963" stroke-dashoffset="44.963"><animate attributeName="stroke-dashoffset" values="44.963" fill="freeze" begin="5fa1.click" /><animate attributeName="stroke-dashoffset" values="44.963;44.963;0" keyTimes="0;0.537;1" dur="0.971s" fill="freeze" begin="0s;5fa1.click" /></path><path d="M44.14,13.47c0.03,0.56-0.1,1.62-0.32,2.25c-2.32,6.66-6.32,13.41-12.7,21.51" stroke-dasharray="27.379" stroke-dashoffset="27.379"><animate attributeName="stroke-dashoffset" values="27.379" fill="freeze" begin="5fa1.click" /><animate attributeName="stroke-dashoffset" values="27.379;27.379;0" keyTimes="0;0.78;1" dur="1.245s" fill="freeze" begin="0s;5fa1.click" /></path><path d="M41.57,26.68c1.18,0.2,2.2,0.08,3.08-0.05c4.23-0.63,7.73-1.25,11.47-2.29c1.08-0.3,3.26-0.46,4.64-0.31" stroke-dasharray="19.47" stroke-dashoffset="19.47"><animate attributeName="stroke-dashoffset" values="19.47" fill="freeze" begin="5fa1.click" /><animate attributeName="stroke-dashoffset" values="19.47;19.47;0" keyTimes="0;0.865;1" dur="1.44s" fill="freeze" begin="0s;5fa1.click" /></path><path d="M33.25,42.68c1.84,0.85,5.15,0.38,7.01,0.01c5.69-1.12,15.11-3.31,21.25-4.83c1.13-0.28,2.6-0.5,3.77-0.17" stroke-dasharray="32.712" stroke-dashoffset="32.712"><animate attributeName="stroke-dashoffset" values="32.712" fill="freeze" begin="5fa1.click" /><animate attributeName="stroke-dashoffset" values="32.712;32.712;0" keyTimes="0;0.815;1" dur="1.767s" fill="freeze" begin="0s;5fa1.click" /></path><path d="M49.58,28.16c0.94,0.94,1.13,1.96,1.13,3.3c0,0.96-0.08,31.26-0.08,39.03" stroke-dasharray="42.627" stroke-dashoffset="42.627"><animate attributeName="stroke-dashoffset" values="42.627" fill="freeze" begin="5fa1.click" /><animate attributeName="stroke-dashoffset" values="42.627;42.627;0" keyTimes="0;0.806;1" dur="2.193s" fill="freeze" begin="0s;5fa1.click" /></path><path d="M51.92,52.84c4.2-0.59,6.7-1.34,10.53-1.85c1.45-0.19,2.56-0.23,3.47,0" stroke-dasharray="14.184" stroke-dashoffset="14.184"><animate attributeName="stroke-dashoffset" values="14.184" fill="freeze" begin="5fa1.click" /><animate attributeName="stroke-dashoffset" values="14.184;14.184;0" keyTimes="0;0.885;1" dur="2.477s" fill="freeze" begin="0s;5fa1.click" /></path><path d="M36.34,54.76c1.01,1.01,1.62,1.73,1.63,3.05c0.03,3.69,0.36,11.57,0.4,17.81" stroke-dasharray="21.385" stroke-dashoffset="21.385"><animate attributeName="stroke-dashoffset" values="21.385" fill="freeze" begin="5fa1.click" /><animate attributeName="stroke-dashoffset" values="21.385;21.385;0" keyTimes="0;0.92;1" dur="2.691s" fill="freeze" begin="0s;5fa1.click" /></path><path d="M34.46,76.79c0.54,0.71,1.29,1.21,2.6,0.66c6.19-2.58,20.57-9.21,27.53-12.2" stroke-dasharray="33.056" stroke-dashoffset="33.056"><animate attributeName="stroke-dashoffset" values="33.056" fill="freeze" begin="5fa1.click" /><animate attributeName="stroke-dashoffset" values="33.056;33.056;0" keyTimes="0;0.89;1" dur="3.022s" fill="freeze" begin="0s;5fa1.click" /></path><path d="M71.22,26.9c1.66,0.73,3.67,0.68,5.12,0.48c1.45-0.2,14.64-3.01,16.45-3.21s4.71-0.41,4.71,3.89c0,6.7-2,25.2-4.86,35.05c-2.56,8.81-6.88,1.02-7.43,0.61" stroke-dasharray="76.056" stroke-dashoffset="76.056"><animate attributeName="stroke-dashoffset" values="76.056" fill="freeze" begin="5fa1.click" /><animate attributeName="stroke-dashoffset" values="76.056;76.056;0" keyTimes="0;0.841;1" dur="3.594s" fill="freeze" begin="0s;5fa1.click" /></path><path d="M72.47,28.05c0.87,0.87,1.29,1.84,1.3,3.45c0.08,9.95,0.03,38.68,0.01,55.75c0,3.49-0.01,6.42-0.01,8.5" stroke-dasharray="68.049" stroke-dashoffset="68.049"><animate attributeName="stroke-dashoffset" values="68.049" fill="freeze" begin="5fa1.click" /><animate attributeName="stroke-dashoffset" values="68.049;68.049;0" keyTimes="0;0.875;1" dur="4.106s" fill="freeze" begin="0s;5fa1.click" /></path></g></svg>