<svg xmlns="http://www.w3.org/2000/svg" viewBox="0 0 109 109" id="5fbd"><g fill="none" stroke="#666" stroke-width="6" stroke-linecap="round" stroke-linejoin="round"><g><g><path d="M28.11,17.25c0.04,0.5,0.21,1.4-0.08,2.01C25.95,23.6,19.7,34.07,13.62,38.5" /><g><path d="M30.36,35.25c0.06,0.68,0.29,1.89-0.12,2.72C27.4,43.85,19.93,54.06,9.5,64" /><path d="M23.22,53.5c0.36,0.25,0.57,1.15,0.65,1.66c0.07,0.51,0,35.15-0.07,38.34" /></g></g><g><g><g><path d="M49.98,13.67c0.27,0.33,0.89,1.73,0.89,3.13c0,0.67-0.03,10.57-0.09,14.69" /><path d="M37.98,20.89c0.29,0.36,0.62,1.89,0.58,2.61c-0.19,3.21-0.39,4.1-0.73,7.13c-0.19,1.61-0.15,3.23,0.58,3.01c2.59-0.8,21.01-2.62,24.66-2.82" /><path d="M64.19,17.8c0.29,0.36,0.62,2.68,0.58,3.41c-0.22,4.6-1.83,8.3-2.11,12.38" /></g><g><path d="M37.8,40.27c0.95,0.14,2.7,0,3.21-0.02c5.3-0.23,11.46-1.71,19.55-2.08c0.91-0.04,1.47-0.01,1.7,0.04" /><g><path d="M47.07,42c0.25,0.71,0.26,1.23-0.13,2c-1.7,3.4-5.7,7.46-9.03,10.17c-0.46,0.38-0.5,1.63,0,1.77c2.63,0.71,6.67,1.64,8.93,2.93" /><path d="M58.49,48.89c0.29,0.36,0.36,1.53,0,1.92c-5.59,6.04-14.92,13.76-22.61,18.89c-1.76,1.18,0.44,1.85,1.59,1.61c4.81-1,16.25-2.79,22.44-3.75" /><path d="M56.41,61.88c2.52,1.74,6.5,7.14,7.13,9.85" /><path d="M48.24,72.24c0.06,0.22,0.88,1.15,0.94,2.54c0.3,6.7-0.19,17.86-0.19,20.15" /><path d="M38.77,79.48c0.14,0.58,0.12,1.73-0.14,2.15c-1.65,2.72-5.79,7.98-8.13,10.31" /><path d="M56.94,76.55c2.74,2.16,4.85,7.16,5.49,9.11" /></g></g></g><g><g><path d="M77.19,16.89c0.03,0.78,0.18,2.04-0.07,3.13c-1.78,7.89-5.78,21.25-11.94,30.76" /><path d="M72.05,38.89c0.92,0.23,2.62,0,3.12-0.03c5.14-0.37,11.11-2.74,18.96-3.33c0.88-0.07,1.42-0.02,1.65,0.06" /></g><g><g><path d="M84.9,40.38c0.36,1.26,0.56,2.16,0.18,4.46C81.66,65.74,73.91,83.72,62.6,92.5" /></g><path d="M67.4,54.22c1.1,0,1.74,0.91,2.61,2.16c5.89,8.44,16.72,24.75,24.58,32.75c1.45,1.47,2.98,2.45,4.2,2.6" /></g></g></g></g></g><g fill="none" stroke="#000" stroke-width="3" stroke-linecap="round" stroke-linejoin="round"><path d="M28.11,17.25c0.04,0.5,0.21,1.4-0.08,2.01C25.95,23.6,19.7,34.07,13.62,38.5" stroke-dasharray="26.257" stroke-dashoffset="26.257"><animate attributeName="stroke-dashoffset" values="26.257;26.257;0" dur="0.263s" fill="freeze" begin="0s;5fbd.click" /></path><path d="M30.36,35.25c0.06,0.68,0.29,1.89-0.12,2.72C27.4,43.85,19.93,54.06,9.5,64" stroke-dasharray="36.184" stroke-dashoffset="36.184"><animate attributeName="stroke-dashoffset" values="36.184" fill="freeze" begin="5fbd.click" /><animate attributeName="stroke-dashoffset" values="36.184;36.184;0" keyTimes="0;0.421;1" dur="0.625s" fill="freeze" begin="0s;5fbd.click" /></path><path d="M23.22,53.5c0.36,0.25,0.57,1.15,0.65,1.66c0.07,0.51,0,35.15-0.07,38.34" stroke-dasharray="40.158" stroke-dashoffset="40.158"><animate attributeName="stroke-dashoffset" values="40.158" fill="freeze" begin="5fbd.click" /><animate attributeName="stroke-dashoffset" values="40.158;40.158;0" keyTimes="0;0.609;1" dur="1.027s" fill="freeze" begin="0s;5fbd.click" /></path><path d="M49.98,13.67c0.27,0.33,0.89,1.73,0.89,3.13c0,0.67-0.03,10.57-0.09,14.69" stroke-dasharray="17.986" stroke-dashoffset="17.986"><animate attributeName="stroke-dashoffset" values="17.986" fill="freeze" begin="5fbd.click" /><animate attributeName="stroke-dashoffset" values="17.986;17.986;0" keyTimes="0;0.851;1" dur="1.207s" fill="freeze" begin="0s;5fbd.click" /></path><path d="M37.98,20.89c0.29,0.36,0.62,1.89,0.58,2.61c-0.19,3.21-0.39,4.1-0.73,7.13c-0.19,1.61-0.15,3.23,0.58,3.01c2.59-0.8,21.01-2.62,24.66-2.82" stroke-dasharray="38.096" stroke-dashoffset="38.096"><animate attributeName="stroke-dashoffset" values="38.096" fill="freeze" begin="5fbd.click" /><animate attributeName="stroke-dashoffset" values="38.096;38.096;0" keyTimes="0;0.76;1" dur="1.588s" fill="freeze" begin="0s;5fbd.click" /></path><path d="M64.19,17.8c0.29,0.36,0.62,2.68,0.58,3.41c-0.22,4.6-1.83,8.3-2.11,12.38" stroke-dasharray="16.059" stroke-dashoffset="16.059"><animate attributeName="stroke-dashoffset" values="16.059" fill="freeze" begin="5fbd.click" /><animate attributeName="stroke-dashoffset" values="16.059;16.059;0" keyTimes="0;0.908;1" dur="1.749s" fill="freeze" begin="0s;5fbd.click" /></path><path d="M37.8,40.27c0.95,0.14,2.7,0,3.21-0.02c5.3-0.23,11.46-1.71,19.55-2.08c0.91-0.04,1.47-0.01,1.7,0.04" stroke-dasharray="24.587" stroke-dashoffset="24.587"><animate attributeName="stroke-dashoffset" values="24.587" fill="freeze" begin="5fbd.click" /><animate attributeName="stroke-dashoffset" values="24.587;24.587;0" keyTimes="0;0.877;1" dur="1.995s" fill="freeze" begin="0s;5fbd.click" /></path><path d="M47.07,42c0.25,0.71,0.26,1.23-0.13,2c-1.7,3.4-5.7,7.46-9.03,10.17c-0.46,0.38-0.5,1.63,0,1.77c2.63,0.71,6.67,1.64,8.93,2.93" stroke-dasharray="27.181" stroke-dashoffset="27.181"><animate attributeName="stroke-dashoffset" values="27.181" fill="freeze" begin="5fbd.click" /><animate attributeName="stroke-dashoffset" values="27.181;27.181;0" keyTimes="0;0.88;1" dur="2.267s" fill="freeze" begin="0s;5fbd.click" /></path><path d="M58.49,48.89c0.29,0.36,0.36,1.53,0,1.92c-5.59,6.04-14.92,13.76-22.61,18.89c-1.76,1.18,0.44,1.85,1.59,1.61c4.81-1,16.25-2.79,22.44-3.75" stroke-dasharray="57.981" stroke-dashoffset="57.981"><animate attributeName="stroke-dashoffset" values="57.981" fill="freeze" begin="5fbd.click" /><animate attributeName="stroke-dashoffset" values="57.981;57.981;0" keyTimes="0;0.796;1" dur="2.847s" fill="freeze" begin="0s;5fbd.click" /></path><path d="M56.41,61.88c2.52,1.74,6.5,7.14,7.13,9.85" stroke-dasharray="12.318" stroke-dashoffset="12.318"><animate attributeName="stroke-dashoffset" values="12.318" fill="freeze" begin="5fbd.click" /><animate attributeName="stroke-dashoffset" values="12.318;12.318;0" keyTimes="0;0.92;1" dur="3.093s" fill="freeze" begin="0s;5fbd.click" /></path><path d="M48.24,72.24c0.06,0.22,0.88,1.15,0.94,2.54c0.3,6.7-0.19,17.86-0.19,20.15" stroke-dasharray="22.897" stroke-dashoffset="22.897"><animate attributeName="stroke-dashoffset" values="22.897" fill="freeze" begin="5fbd.click" /><animate attributeName="stroke-dashoffset" values="22.897;22.897;0" keyTimes="0;0.931;1" dur="3.322s" fill="freeze" begin="0s;5fbd.click" /></path><path d="M38.77,79.48c0.14,0.58,0.12,1.73-0.14,2.15c-1.65,2.72-5.79,7.98-8.13,10.31" stroke-dasharray="15.339" stroke-dashoffset="15.339"><animate attributeName="stroke-dashoffset" values="15.339" fill="freeze" begin="5fbd.click" /><animate attributeName="stroke-dashoffset" values="15.339;15.339;0" keyTimes="0;0.956;1" dur="3.475s" fill="freeze" begin="0s;5fbd.click" /></path><path d="M56.94,76.55c2.74,2.16,4.85,7.16,5.49,9.11" stroke-dasharray="10.757" stroke-dashoffset="10.757"><animate attributeName="stroke-dashoffset" values="10.757" fill="freeze" begin="5fbd.click" /><animate attributeName="stroke-dashoffset" values="10.757;10.757;0" keyTimes="0;0.942;1" dur="3.69s" fill="freeze" begin="0s;5fbd.click" /></path><path d="M77.19,16.89c0.03,0.78,0.18,2.04-0.07,3.13c-1.78,7.89-5.78,21.25-11.94,30.76" stroke-dasharray="36.29" stroke-dashoffset="36.29"><animate attributeName="stroke-dashoffset" values="36.29" fill="freeze" begin="5fbd.click" /><animate attributeName="stroke-dashoffset" values="36.29;36.29;0" keyTimes="0;0.91;1" dur="4.053s" fill="freeze" begin="0s;5fbd.click" /></path><path d="M72.05,38.89c0.92,0.23,2.62,0,3.12-0.03c5.14-0.37,11.11-2.74,18.96-3.33c0.88-0.07,1.42-0.02,1.65,0.06" stroke-dasharray="24.063" stroke-dashoffset="24.063"><animate attributeName="stroke-dashoffset" values="24.063" fill="freeze" begin="5fbd.click" /><animate attributeName="stroke-dashoffset" values="24.063;24.063;0" keyTimes="0;0.944;1" dur="4.294s" fill="freeze" begin="0s;5fbd.click" /></path><path d="M84.9,40.38c0.36,1.26,0.56,2.16,0.18,4.46C81.66,65.74,73.91,83.72,62.6,92.5" stroke-dasharray="58.333" stroke-dashoffset="58.333"><animate attributeName="stroke-dashoffset" values="58.333" fill="freeze" begin="5fbd.click" /><animate attributeName="stroke-dashoffset" values="58.333;58.333;0" keyTimes="0;0.88;1" dur="4.877s" fill="freeze" begin="0s;5fbd.click" /></path><path d="M67.4,54.22c1.1,0,1.74,0.91,2.61,2.16c5.89,8.44,16.72,24.75,24.58,32.75c1.45,1.47,2.98,2.45,4.2,2.6" stroke-dasharray="49.544" stroke-dashoffset="49.544"><animate attributeName="stroke-dashoffset" values="49.544" fill="freeze" begin="5fbd.click" /><animate attributeName="stroke-dashoffset" values="49.544;49.544;0" keyTimes="0;0.908;1" dur="5.372s" fill="freeze" begin="0s;5fbd.click" /></path></g></svg>