<svg xmlns="http://www.w3.org/2000/svg" viewBox="0 0 109 109" id="5fe4"><g fill="none" stroke="#666" stroke-width="6" stroke-linecap="round" stroke-linejoin="round"><g><g><path d="M17.22,36.25c0,6.61-3.72,16.36-4.69,18.25" /><path d="M29.52,29.83c3.02,2.14,7.79,8.8,8.54,12.13" /><path d="M24.87,11.75c1.09,0.5,1.74,2.25,1.96,3.25c0.22,1,0,76.25-0.22,82.5" /></g><g><g><path d="M55,13.39c0.03,0.7,0.07,1.82-0.06,2.83c-0.78,5.96-5.78,18.3-11.33,27.06" /><g><path d="M55.29,26.55c0.72,0.17,2.04,0.19,2.76,0.17c4.82-0.12,18.37-2.36,27.29-3.78c1.17-0.19,4.09,0.08,4.69,0.17" /></g></g><g><g><path d="M39,54.4c1.43,0.36,4.04,0.44,5.47,0.36c14.12-0.72,25.38-3.06,48.28-3.7c2.38-0.07,3.8,0.17,4.99,0.36" /><path d="M67.25,28.52c0.42,0.48,1.33,3.62,1.41,4.59c0.09,0.97-0.05,58.48-0.14,64.53" /></g></g></g></g></g><g fill="none" stroke="#000" stroke-width="3" stroke-linecap="round" stroke-linejoin="round"><path d="M17.22,36.25c0,6.61-3.72,16.36-4.69,18.25" stroke-dasharray="18.955" stroke-dashoffset="18.955"><animate attributeName="stroke-dashoffset" values="18.955;18.955;0" dur="0.19s" fill="freeze" begin="0s;5fe4.click" /></path><path d="M29.52,29.83c3.02,2.14,7.79,8.8,8.54,12.13" stroke-dasharray="15.025" stroke-dashoffset="15.025"><animate attributeName="stroke-dashoffset" values="15.025" fill="freeze" begin="5fe4.click" /><animate attributeName="stroke-dashoffset" values="15.025;15.025;0" keyTimes="0;0.559;1" dur="0.34s" fill="freeze" begin="0s;5fe4.click" /></path><path d="M24.87,11.75c1.09,0.5,1.74,2.25,1.96,3.25c0.22,1,0,76.25-0.22,82.5" stroke-dasharray="86.412" stroke-dashoffset="86.412"><animate attributeName="stroke-dashoffset" values="86.412" fill="freeze" begin="5fe4.click" /><animate attributeName="stroke-dashoffset" values="86.412;86.412;0" keyTimes="0;0.343;1" dur="0.99s" fill="freeze" begin="0s;5fe4.click" /></path><path d="M55,13.39c0.03,0.7,0.07,1.82-0.06,2.83c-0.78,5.96-5.78,18.3-11.33,27.06" stroke-dasharray="32.328" stroke-dashoffset="32.328"><animate attributeName="stroke-dashoffset" values="32.328" fill="freeze" begin="5fe4.click" /><animate attributeName="stroke-dashoffset" values="32.328;32.328;0" keyTimes="0;0.754;1" dur="1.313s" fill="freeze" begin="0s;5fe4.click" /></path><path d="M55.29,26.55c0.72,0.17,2.04,0.19,2.76,0.17c4.82-0.12,18.37-2.36,27.29-3.78c1.17-0.19,4.09,0.08,4.69,0.17" stroke-dasharray="35.036" stroke-dashoffset="35.036"><animate attributeName="stroke-dashoffset" values="35.036" fill="freeze" begin="5fe4.click" /><animate attributeName="stroke-dashoffset" values="35.036;35.036;0" keyTimes="0;0.79;1" dur="1.663s" fill="freeze" begin="0s;5fe4.click" /></path><path d="M39,54.4c1.43,0.36,4.04,0.44,5.47,0.36c14.12-0.72,25.38-3.06,48.28-3.7c2.38-0.07,3.8,0.17,4.99,0.36" stroke-dasharray="58.944" stroke-dashoffset="58.944"><animate attributeName="stroke-dashoffset" values="58.944" fill="freeze" begin="5fe4.click" /><animate attributeName="stroke-dashoffset" values="58.944;58.944;0" keyTimes="0;0.738;1" dur="2.252s" fill="freeze" begin="0s;5fe4.click" /></path><path d="M67.25,28.52c0.42,0.48,1.33,3.62,1.41,4.59c0.09,0.97-0.05,58.48-0.14,64.53" stroke-dasharray="69.357" stroke-dashoffset="69.357"><animate attributeName="stroke-dashoffset" values="69.357" fill="freeze" begin="5fe4.click" /><animate attributeName="stroke-dashoffset" values="69.357;69.357;0" keyTimes="0;0.812;1" dur="2.773s" fill="freeze" begin="0s;5fe4.click" /></path></g></svg>