<svg xmlns="http://www.w3.org/2000/svg" viewBox="0 0 109 109" id="5ff1"><g fill="none" stroke="#666" stroke-width="6" stroke-linecap="round" stroke-linejoin="round"><g><g><path d="M17.47,37.5c0,6.06-4.31,15.02-5.44,16.75" /><path d="M29.02,31.58c2.84,2.19,7.33,8.98,8.04,12.38" /><path d="M24.37,13.75c1.09,0.5,1.74,2.25,1.96,3.25c0.22,1,0,73.75-0.22,80" /></g><g><g><path d="M46.41,33.38c0,3.54-2,13.26-2.91,15.62" /><path d="M46.74,36.24c13.76-1.99,30.51-3.49,39.45-4.4c12.01-1.23,3.8,7.41-0.45,10.78" /></g><g><g><path d="M65.65,14c0.89,1.77,1.12,2.33,1.15,5.08c0.18,23.02-0.91,61.23-28.38,77.34" /></g><g><path d="M69.99,49.87c0.74,1.19,1.33,2.59,1.38,4.43c0.2,8.19-0.03,19.64-0.03,25.2c0,13-0.08,15.5,12.17,15.03c11.24-0.43,10.89-2.03,10.89-13.62" /></g></g></g></g></g><g fill="none" stroke="#000" stroke-width="3" stroke-linecap="round" stroke-linejoin="round"><path d="M17.47,37.5c0,6.06-4.31,15.02-5.44,16.75" stroke-dasharray="17.767" stroke-dashoffset="17.767"><animate attributeName="stroke-dashoffset" values="17.767;17.767;0" dur="0.178s" fill="freeze" begin="0s;5ff1.click" /></path><path d="M29.02,31.58c2.84,2.19,7.33,8.98,8.04,12.38" stroke-dasharray="14.939" stroke-dashoffset="14.939"><animate attributeName="stroke-dashoffset" values="14.939" fill="freeze" begin="5ff1.click" /><animate attributeName="stroke-dashoffset" values="14.939;14.939;0" keyTimes="0;0.373;1" dur="0.477s" fill="freeze" begin="0s;5ff1.click" /></path><path d="M24.37,13.75c1.09,0.5,1.74,2.25,1.96,3.25c0.22,1,0,73.75-0.22,80" stroke-dasharray="83.912" stroke-dashoffset="83.912"><animate attributeName="stroke-dashoffset" values="83.912" fill="freeze" begin="5ff1.click" /><animate attributeName="stroke-dashoffset" values="83.912;83.912;0" keyTimes="0;0.431;1" dur="1.108s" fill="freeze" begin="0s;5ff1.click" /></path><path d="M46.41,33.38c0,3.54-2,13.26-2.91,15.62" stroke-dasharray="15.927" stroke-dashoffset="15.927"><animate attributeName="stroke-dashoffset" values="15.927" fill="freeze" begin="5ff1.click" /><animate attributeName="stroke-dashoffset" values="15.927;15.927;0" keyTimes="0;0.875;1" dur="1.267s" fill="freeze" begin="0s;5ff1.click" /></path><path d="M46.74,36.24c13.76-1.99,30.51-3.49,39.45-4.4c12.01-1.23,3.8,7.41-0.45,10.78" stroke-dasharray="58.281" stroke-dashoffset="58.281"><animate attributeName="stroke-dashoffset" values="58.281" fill="freeze" begin="5ff1.click" /><animate attributeName="stroke-dashoffset" values="58.281;58.281;0" keyTimes="0;0.685;1" dur="1.85s" fill="freeze" begin="0s;5ff1.click" /></path><path d="M65.65,14c0.89,1.77,1.12,2.33,1.15,5.08c0.18,23.02-0.91,61.23-28.38,77.34" stroke-dasharray="91.693" stroke-dashoffset="91.693"><animate attributeName="stroke-dashoffset" values="91.693" fill="freeze" begin="5ff1.click" /><animate attributeName="stroke-dashoffset" values="91.693;91.693;0" keyTimes="0;0.729;1" dur="2.539s" fill="freeze" begin="0s;5ff1.click" /></path><path d="M69.99,49.87c0.74,1.19,1.33,2.59,1.38,4.43c0.2,8.19-0.03,19.64-0.03,25.2c0,13-0.08,15.5,12.17,15.03c11.24-0.43,10.89-2.03,10.89-13.62" stroke-dasharray="75.634" stroke-dashoffset="75.634"><animate attributeName="stroke-dashoffset" values="75.634" fill="freeze" begin="5ff1.click" /><animate attributeName="stroke-dashoffset" values="75.634;75.634;0" keyTimes="0;0.817;1" dur="3.108s" fill="freeze" begin="0s;5ff1.click" /></path></g></svg>