<svg xmlns="http://www.w3.org/2000/svg" viewBox="0 0 109 109" id="6041"><g fill="none" stroke="#666" stroke-width="6" stroke-linecap="round" stroke-linejoin="round"><g><g><g><path d="M37.36,13.41c0.26,1.63-0.07,3.77-0.91,5.17C31.07,27.49,25.31,36.27,13,47.12" /><path d="M28.47,32.42c0.1,0.59,0.61,1.35,0.67,2.23c0.46,7.86-0.9,25.99-0.48,30.59" /></g><g><g><path d="M77.84,13.25c0.09,0.31,0.36,0.91-0.18,1.26c-6.69,4.44-16.58,8.52-34.02,12.1" /></g><g><path d="M37.61,41.2c1.24,0.33,3.52,0.38,4.77,0.33c12.94-0.55,29.03-3.22,43.82-3.2c2.08,0,3.32,0.16,4.35,0.32" /><path d="M61.1,24.65c0.79,0.29,1.27,1.31,1.42,1.9c0.16,0.58,0,29.01-0.16,32.66" /><path d="M43.52,60.18c1.01,0.26,2.85,0.28,3.86,0.26c13.31-0.31,19.45-1.83,33.49-1.8c1.68,0,2.68,0.12,3.52,0.25" /></g></g></g><g><path d="M22.9,79.57c0.32,2.28-3.23,12.36-5.82,16.17" /><path d="M35.08,73.5c6.67,13.39,17.22,25.02,42.94,25.18c12.41,0.08,13.22-3.57,2.87-9.67" /><path d="M57.41,73.25c2.17,5.25,5.32,10.5,7.63,2.46" /><path d="M81.88,68.73c4.63,2.07,8.09,3.96,11.85,10.36" /></g></g></g><g fill="none" stroke="#000" stroke-width="3" stroke-linecap="round" stroke-linejoin="round"><path d="M37.36,13.41c0.26,1.63-0.07,3.77-0.91,5.17C31.07,27.49,25.31,36.27,13,47.12" stroke-dasharray="42.454" stroke-dashoffset="42.454"><animate attributeName="stroke-dashoffset" values="42.454;42.454;0" dur="0.425s" fill="freeze" begin="0s;6041.click" /></path><path d="M28.47,32.42c0.1,0.59,0.61,1.35,0.67,2.23c0.46,7.86-0.9,25.99-0.48,30.59" stroke-dasharray="32.943" stroke-dashoffset="32.943"><animate attributeName="stroke-dashoffset" values="32.943" fill="freeze" begin="6041.click" /><animate attributeName="stroke-dashoffset" values="32.943;32.943;0" keyTimes="0;0.564;1" dur="0.754s" fill="freeze" begin="0s;6041.click" /></path><path d="M77.84,13.25c0.09,0.31,0.36,0.91-0.18,1.26c-6.69,4.44-16.58,8.52-34.02,12.1" stroke-dasharray="37.715" stroke-dashoffset="37.715"><animate attributeName="stroke-dashoffset" values="37.715" fill="freeze" begin="6041.click" /><animate attributeName="stroke-dashoffset" values="37.715;37.715;0" keyTimes="0;0.667;1" dur="1.131s" fill="freeze" begin="0s;6041.click" /></path><path d="M37.61,41.2c1.24,0.33,3.52,0.38,4.77,0.33c12.94-0.55,29.03-3.22,43.82-3.2c2.08,0,3.32,0.16,4.35,0.32" stroke-dasharray="53.114" stroke-dashoffset="53.114"><animate attributeName="stroke-dashoffset" values="53.114" fill="freeze" begin="6041.click" /><animate attributeName="stroke-dashoffset" values="53.114;53.114;0" keyTimes="0;0.681;1" dur="1.662s" fill="freeze" begin="0s;6041.click" /></path><path d="M61.1,24.65c0.79,0.29,1.27,1.31,1.42,1.9c0.16,0.58,0,29.01-0.16,32.66" stroke-dasharray="35.119" stroke-dashoffset="35.119"><animate attributeName="stroke-dashoffset" values="35.119" fill="freeze" begin="6041.click" /><animate attributeName="stroke-dashoffset" values="35.119;35.119;0" keyTimes="0;0.826;1" dur="2.013s" fill="freeze" begin="0s;6041.click" /></path><path d="M43.52,60.18c1.01,0.26,2.85,0.28,3.86,0.26c13.31-0.31,19.45-1.83,33.49-1.8c1.68,0,2.68,0.12,3.52,0.25" stroke-dasharray="40.96" stroke-dashoffset="40.96"><animate attributeName="stroke-dashoffset" values="40.96" fill="freeze" begin="6041.click" /><animate attributeName="stroke-dashoffset" values="40.96;40.96;0" keyTimes="0;0.831;1" dur="2.423s" fill="freeze" begin="0s;6041.click" /></path><path d="M22.9,79.57c0.32,2.28-3.23,12.36-5.82,16.17" stroke-dasharray="17.327" stroke-dashoffset="17.327"><animate attributeName="stroke-dashoffset" values="17.327" fill="freeze" begin="6041.click" /><animate attributeName="stroke-dashoffset" values="17.327;17.327;0" keyTimes="0;0.933;1" dur="2.596s" fill="freeze" begin="0s;6041.click" /></path><path d="M35.08,73.5c6.67,13.39,17.22,25.02,42.94,25.18c12.41,0.08,13.22-3.57,2.87-9.67" stroke-dasharray="74.249" stroke-dashoffset="74.249"><animate attributeName="stroke-dashoffset" values="74.249" fill="freeze" begin="6041.click" /><animate attributeName="stroke-dashoffset" values="74.249;74.249;0" keyTimes="0;0.823;1" dur="3.154s" fill="freeze" begin="0s;6041.click" /></path><path d="M57.41,73.25c2.17,5.25,5.32,10.5,7.63,2.46" stroke-dasharray="13.762" stroke-dashoffset="13.762"><animate attributeName="stroke-dashoffset" values="13.762" fill="freeze" begin="6041.click" /><animate attributeName="stroke-dashoffset" values="13.762;13.762;0" keyTimes="0;0.92;1" dur="3.429s" fill="freeze" begin="0s;6041.click" /></path><path d="M81.88,68.73c4.63,2.07,8.09,3.96,11.85,10.36" stroke-dasharray="16.076" stroke-dashoffset="16.076"><animate attributeName="stroke-dashoffset" values="16.076" fill="freeze" begin="6041.click" /><animate attributeName="stroke-dashoffset" values="16.076;16.076;0" keyTimes="0;0.955;1" dur="3.59s" fill="freeze" begin="0s;6041.click" /></path></g></svg>