<svg xmlns="http://www.w3.org/2000/svg" viewBox="0 0 109 109" id="604b"><g fill="none" stroke="#666" stroke-width="6" stroke-linecap="round" stroke-linejoin="round"><g><g p4:phon="亦" xmlns:p4="http://kanjivg.tagaini.net"><g><path d="M52.28,12.06c1.27,1.27,1.34,2.69,1.34,4.62c0,1.44-0.12,3.9-0.12,6.19" /><path d="M19.55,25.56c2.95,0.69,5.65,0.67,8.7,0.41c11.44-0.97,36.68-3.01,50-3.51c2.94-0.11,6.19-0.33,9,0.73" /></g><g><g><path d="M46.35,27.45c0.78,0.93,0.9,1.92,0.68,3.06c-2.15,11-5.53,23.12-16.84,31.18" /></g><g><path d="M61.48,25.88c0.82,0.82,0.92,1.83,0.92,3.86c0,11.81,0.08,22.46,0.08,25.77c0,8.23-4.82,1-5.83,0.17" /></g><path d="M31.76,37.12c0.12,1.08-0.26,2.02-0.87,2.93c-2.78,4.12-7.11,9.23-14.08,14.09" /><path d="M72.91,36.61c5.47,2.32,14.14,9.53,15.5,13.14" /></g></g><g><path d="M24.15,75.15c0.28,2.46-2.81,13.31-5.07,17.4" /><path d="M35.83,70.66C43,85.75,53.75,95,78.03,95.18c11.47,0.09,12.22-3.41,2.65-9.22" /><path d="M55.41,68.75c2.02,4.7,4.72,9.91,6.88,2.71" /><path d="M79.63,64.73c4.72,2.21,8.49,5.64,11.85,10.78" /></g></g></g><g fill="none" stroke="#000" stroke-width="3" stroke-linecap="round" stroke-linejoin="round"><path d="M52.28,12.06c1.27,1.27,1.34,2.69,1.34,4.62c0,1.44-0.12,3.9-0.12,6.19" stroke-dasharray="11.155" stroke-dashoffset="11.155"><animate attributeName="stroke-dashoffset" values="11.155;11.155;0" dur="0.223s" fill="freeze" begin="0s;604b.click" /></path><path d="M19.55,25.56c2.95,0.69,5.65,0.67,8.7,0.41c11.44-0.97,36.68-3.01,50-3.51c2.94-0.11,6.19-0.33,9,0.73" stroke-dasharray="67.969" stroke-dashoffset="67.969"><animate attributeName="stroke-dashoffset" values="67.969" fill="freeze" begin="604b.click" /><animate attributeName="stroke-dashoffset" values="67.969;67.969;0" keyTimes="0;0.304;1" dur="0.734s" fill="freeze" begin="0s;604b.click" /></path><path d="M46.35,27.45c0.78,0.93,0.9,1.92,0.68,3.06c-2.15,11-5.53,23.12-16.84,31.18" stroke-dasharray="39.657" stroke-dashoffset="39.657"><animate attributeName="stroke-dashoffset" values="39.657" fill="freeze" begin="604b.click" /><animate attributeName="stroke-dashoffset" values="39.657;39.657;0" keyTimes="0;0.649;1" dur="1.131s" fill="freeze" begin="0s;604b.click" /></path><path d="M61.48,25.88c0.82,0.82,0.92,1.83,0.92,3.86c0,11.81,0.08,22.46,0.08,25.77c0,8.23-4.82,1-5.83,0.17" stroke-dasharray="40.242" stroke-dashoffset="40.242"><animate attributeName="stroke-dashoffset" values="40.242" fill="freeze" begin="604b.click" /><animate attributeName="stroke-dashoffset" values="40.242;40.242;0" keyTimes="0;0.738;1" dur="1.533s" fill="freeze" begin="0s;604b.click" /></path><path d="M31.76,37.12c0.12,1.08-0.26,2.02-0.87,2.93c-2.78,4.12-7.11,9.23-14.08,14.09" stroke-dasharray="23.159" stroke-dashoffset="23.159"><animate attributeName="stroke-dashoffset" values="23.159" fill="freeze" begin="604b.click" /><animate attributeName="stroke-dashoffset" values="23.159;23.159;0" keyTimes="0;0.869;1" dur="1.765s" fill="freeze" begin="0s;604b.click" /></path><path d="M72.91,36.61c5.47,2.32,14.14,9.53,15.5,13.14" stroke-dasharray="20.614" stroke-dashoffset="20.614"><animate attributeName="stroke-dashoffset" values="20.614" fill="freeze" begin="604b.click" /><animate attributeName="stroke-dashoffset" values="20.614;20.614;0" keyTimes="0;0.895;1" dur="1.971s" fill="freeze" begin="0s;604b.click" /></path><path d="M24.15,75.15c0.28,2.46-2.81,13.31-5.07,17.4" stroke-dasharray="18.23" stroke-dashoffset="18.23"><animate attributeName="stroke-dashoffset" values="18.23" fill="freeze" begin="604b.click" /><animate attributeName="stroke-dashoffset" values="18.23;18.23;0" keyTimes="0;0.915;1" dur="2.153s" fill="freeze" begin="0s;604b.click" /></path><path d="M35.83,70.66C43,85.75,53.75,95,78.03,95.18c11.47,0.09,12.22-3.41,2.65-9.22" stroke-dasharray="71.98" stroke-dashoffset="71.98"><animate attributeName="stroke-dashoffset" values="71.98" fill="freeze" begin="604b.click" /><animate attributeName="stroke-dashoffset" values="71.98;71.98;0" keyTimes="0;0.799;1" dur="2.694s" fill="freeze" begin="0s;604b.click" /></path><path d="M55.41,68.75c2.02,4.7,4.72,9.91,6.88,2.71" stroke-dasharray="12.491" stroke-dashoffset="12.491"><animate attributeName="stroke-dashoffset" values="12.491" fill="freeze" begin="604b.click" /><animate attributeName="stroke-dashoffset" values="12.491;12.491;0" keyTimes="0;0.915;1" dur="2.944s" fill="freeze" begin="0s;604b.click" /></path><path d="M79.63,64.73c4.72,2.21,8.49,5.64,11.85,10.78" stroke-dasharray="16.24" stroke-dashoffset="16.24"><animate attributeName="stroke-dashoffset" values="16.24" fill="freeze" begin="604b.click" /><animate attributeName="stroke-dashoffset" values="16.24;16.24;0" keyTimes="0;0.948;1" dur="3.106s" fill="freeze" begin="0s;604b.click" /></path></g></svg>