<svg xmlns="http://www.w3.org/2000/svg" viewBox="0 0 109 109" id="6068"><g fill="none" stroke="#666" stroke-width="6" stroke-linecap="round" stroke-linejoin="round"><g><g><path d="M15.75,38.25c0,6.61-2.97,16.36-3.75,18.25" /><path d="M30.02,33.83c2.93,1.74,7.56,7.17,8.29,9.88" /><path d="M24.37,16.25c1,1,1.21,2.25,1.21,4c0,4.28,0.04,52.46,0.04,69.12c0,3.39,0,5.48-0.01,5.62" /></g><g p4:phon="艮" xmlns:p4="http://kanjivg.tagaini.net"><path d="M47.21,18.87c1.04,0.88,3.1,1.12,5.31,0.86c5.01-0.61,14.04-1.76,18.5-2.3c3.65-0.45,5.21,0.07,4.95,3.96c-0.34,5-1.12,14.2-1.96,19.9c-0.31,2.12-0.6,3.79-0.81,4.61" /><path d="M50.26,33.17c5.15-0.56,16.99-2.29,24.04-2.73" /><path d="M49.95,46.3c7.07-0.9,13.93-1.8,22.43-2.55" /><path d="M47.95,19.73c0.91,0.91,1.1,2.08,1.1,3.26c0,7.26-0.02,61.38-0.02,64.26c0,4.5,1.85,2.21,3.27,1.11c2.75-2.14,9.45-7.11,13.21-9.36" /><path d="M81.88,46c0.23,1.45-0.07,2.36-1.03,3.43c-4.1,4.57-6.22,7.19-12.44,11.51" /><path d="M55.26,53.51c3.9,0,19.93,18.31,28.51,26.96c3.22,3.25,6.6,6.53,11.22,8.6" /></g></g></g><g fill="none" stroke="#000" stroke-width="3" stroke-linecap="round" stroke-linejoin="round"><path d="M15.75,38.25c0,6.61-2.97,16.36-3.75,18.25" stroke-dasharray="18.706" stroke-dashoffset="18.706"><animate attributeName="stroke-dashoffset" values="18.706;18.706;0" dur="0.187s" fill="freeze" begin="0s;6068.click" /></path><path d="M30.02,33.83c2.93,1.74,7.56,7.17,8.29,9.88" stroke-dasharray="13.079" stroke-dashoffset="13.079"><animate attributeName="stroke-dashoffset" values="13.079" fill="freeze" begin="6068.click" /><animate attributeName="stroke-dashoffset" values="13.079;13.079;0" keyTimes="0;0.416;1" dur="0.449s" fill="freeze" begin="0s;6068.click" /></path><path d="M24.37,16.25c1,1,1.21,2.25,1.21,4c0,4.28,0.04,52.46,0.04,69.12c0,3.39,0,5.48-0.01,5.62" stroke-dasharray="79.043" stroke-dashoffset="79.043"><animate attributeName="stroke-dashoffset" values="79.043" fill="freeze" begin="6068.click" /><animate attributeName="stroke-dashoffset" values="79.043;79.043;0" keyTimes="0;0.43;1" dur="1.043s" fill="freeze" begin="0s;6068.click" /></path><path d="M47.21,18.87c1.04,0.88,3.1,1.12,5.31,0.86c5.01-0.61,14.04-1.76,18.5-2.3c3.65-0.45,5.21,0.07,4.95,3.96c-0.34,5-1.12,14.2-1.96,19.9c-0.31,2.12-0.6,3.79-0.81,4.61" stroke-dasharray="56.786" stroke-dashoffset="56.786"><animate attributeName="stroke-dashoffset" values="56.786" fill="freeze" begin="6068.click" /><animate attributeName="stroke-dashoffset" values="56.786;56.786;0" keyTimes="0;0.647;1" dur="1.611s" fill="freeze" begin="0s;6068.click" /></path><path d="M50.26,33.17c5.15-0.56,16.99-2.29,24.04-2.73" stroke-dasharray="24.199" stroke-dashoffset="24.199"><animate attributeName="stroke-dashoffset" values="24.199" fill="freeze" begin="6068.click" /><animate attributeName="stroke-dashoffset" values="24.199;24.199;0" keyTimes="0;0.869;1" dur="1.853s" fill="freeze" begin="0s;6068.click" /></path><path d="M49.95,46.3c7.07-0.9,13.93-1.8,22.43-2.55" stroke-dasharray="22.577" stroke-dashoffset="22.577"><animate attributeName="stroke-dashoffset" values="22.577" fill="freeze" begin="6068.click" /><animate attributeName="stroke-dashoffset" values="22.577;22.577;0" keyTimes="0;0.891;1" dur="2.079s" fill="freeze" begin="0s;6068.click" /></path><path d="M47.95,19.73c0.91,0.91,1.1,2.08,1.1,3.26c0,7.26-0.02,61.38-0.02,64.26c0,4.5,1.85,2.21,3.27,1.11c2.75-2.14,9.45-7.11,13.21-9.36" stroke-dasharray="89.928" stroke-dashoffset="89.928"><animate attributeName="stroke-dashoffset" values="89.928" fill="freeze" begin="6068.click" /><animate attributeName="stroke-dashoffset" values="89.928;89.928;0" keyTimes="0;0.755;1" dur="2.755s" fill="freeze" begin="0s;6068.click" /></path><path d="M81.88,46c0.23,1.45-0.07,2.36-1.03,3.43c-4.1,4.57-6.22,7.19-12.44,11.51" stroke-dasharray="20.739" stroke-dashoffset="20.739"><animate attributeName="stroke-dashoffset" values="20.739" fill="freeze" begin="6068.click" /><animate attributeName="stroke-dashoffset" values="20.739;20.739;0" keyTimes="0;0.93;1" dur="2.962s" fill="freeze" begin="0s;6068.click" /></path><path d="M55.26,53.51c3.9,0,19.93,18.31,28.51,26.96c3.22,3.25,6.6,6.53,11.22,8.6" stroke-dasharray="53.694" stroke-dashoffset="53.694"><animate attributeName="stroke-dashoffset" values="53.694" fill="freeze" begin="6068.click" /><animate attributeName="stroke-dashoffset" values="53.694;53.694;0" keyTimes="0;0.847;1" dur="3.499s" fill="freeze" begin="0s;6068.click" /></path></g></svg>