<svg xmlns="http://www.w3.org/2000/svg" viewBox="0 0 109 109" id="6097"><g fill="none" stroke="#666" stroke-width="6" stroke-linecap="round" stroke-linejoin="round"><g><g><path d="M16.22,41c0.02,4.31-1.68,14.14-3.19,17.5" /><path d="M28.77,31.33c2.57,1.88,6.65,7.71,7.29,10.63" /><path d="M23.87,12.75c1.09,0.5,1.74,2.25,1.96,3.25c0.22,1,0,74.75-0.22,81" /></g><g><g><g><path d="M59.75,10.65c0.04,0.48,0.09,1.23-0.09,1.91c-1.07,4.03-7.16,16.69-16.06,24.28" /><path d="M57.16,19.73c5.59-0.48,18.62-2.78,20.67-3.05c1.76-0.23,2.3,2.45,1.57,3.59c-3.09,4.77-5.43,9.83-10.31,17.47" /></g><path d="M48.23,40.08c0.39,0.51,0.79,0.93,0.96,1.56c1.35,5.02,2.29,11.11,3.22,20.13" /><path d="M49.17,41.3c9.83-1.05,35.61-2.95,40.54-3.66c1.81-0.26,3.39,1.62,3.13,3.15c-1.07,6.32-2.09,11.46-3.85,17.65" /><path d="M53.18,59.61c3.87-0.54,30.68-2.07,34.94-2.34" /></g><g><g><path d="M68.77,42.66c0.48,1.09,0.66,2.76,0.32,4.59C66.5,61,56.75,87.75,38.92,97.42" /></g><g><path d="M71.33,64.15c0.92,0.6,1.35,2.32,1.38,3.96c0.13,7.33-0.34,12.66-0.34,17.64c0,11.64,5.67,10.77,11.25,10.77c5.89,0,9.76-1.5,10.59-2.35c1.75-1.79,1.27-2.69,1.43-5.82" /></g></g></g></g></g><g fill="none" stroke="#000" stroke-width="3" stroke-linecap="round" stroke-linejoin="round"><path d="M16.22,41c0.02,4.31-1.68,14.14-3.19,17.5" stroke-dasharray="17.86" stroke-dashoffset="17.86"><animate attributeName="stroke-dashoffset" values="17.86;17.86;0" dur="0.179s" fill="freeze" begin="0s;6097.click" /></path><path d="M28.77,31.33c2.57,1.88,6.65,7.71,7.29,10.63" stroke-dasharray="13.051" stroke-dashoffset="13.051"><animate attributeName="stroke-dashoffset" values="13.051" fill="freeze" begin="6097.click" /><animate attributeName="stroke-dashoffset" values="13.051;13.051;0" keyTimes="0;0.407;1" dur="0.44s" fill="freeze" begin="0s;6097.click" /></path><path d="M23.87,12.75c1.09,0.5,1.74,2.25,1.96,3.25c0.22,1,0,74.75-0.22,81" stroke-dasharray="84.912" stroke-dashoffset="84.912"><animate attributeName="stroke-dashoffset" values="84.912" fill="freeze" begin="6097.click" /><animate attributeName="stroke-dashoffset" values="84.912;84.912;0" keyTimes="0;0.408;1" dur="1.078s" fill="freeze" begin="0s;6097.click" /></path><path d="M59.75,10.65c0.04,0.48,0.09,1.23-0.09,1.91c-1.07,4.03-7.16,16.69-16.06,24.28" stroke-dasharray="31.344" stroke-dashoffset="31.344"><animate attributeName="stroke-dashoffset" values="31.344" fill="freeze" begin="6097.click" /><animate attributeName="stroke-dashoffset" values="31.344;31.344;0" keyTimes="0;0.775;1" dur="1.391s" fill="freeze" begin="0s;6097.click" /></path><path d="M57.16,19.73c5.59-0.48,18.62-2.78,20.67-3.05c1.76-0.23,2.3,2.45,1.57,3.59c-3.09,4.77-5.43,9.83-10.31,17.47" stroke-dasharray="45.912" stroke-dashoffset="45.912"><animate attributeName="stroke-dashoffset" values="45.912" fill="freeze" begin="6097.click" /><animate attributeName="stroke-dashoffset" values="45.912;45.912;0" keyTimes="0;0.752;1" dur="1.85s" fill="freeze" begin="0s;6097.click" /></path><path d="M48.23,40.08c0.39,0.51,0.79,0.93,0.96,1.56c1.35,5.02,2.29,11.11,3.22,20.13" stroke-dasharray="22.254" stroke-dashoffset="22.254"><animate attributeName="stroke-dashoffset" values="22.254" fill="freeze" begin="6097.click" /><animate attributeName="stroke-dashoffset" values="22.254;22.254;0" keyTimes="0;0.892;1" dur="2.073s" fill="freeze" begin="0s;6097.click" /></path><path d="M49.17,41.3c9.83-1.05,35.61-2.95,40.54-3.66c1.81-0.26,3.39,1.62,3.13,3.15c-1.07,6.32-2.09,11.46-3.85,17.65" stroke-dasharray="63.856" stroke-dashoffset="63.856"><animate attributeName="stroke-dashoffset" values="63.856" fill="freeze" begin="6097.click" /><animate attributeName="stroke-dashoffset" values="63.856;63.856;0" keyTimes="0;0.812;1" dur="2.553s" fill="freeze" begin="0s;6097.click" /></path><path d="M53.18,59.61c3.87-0.54,30.68-2.07,34.94-2.34" stroke-dasharray="35.021" stroke-dashoffset="35.021"><animate attributeName="stroke-dashoffset" values="35.021" fill="freeze" begin="6097.click" /><animate attributeName="stroke-dashoffset" values="35.021;35.021;0" keyTimes="0;0.879;1" dur="2.903s" fill="freeze" begin="0s;6097.click" /></path><path d="M68.77,42.66c0.48,1.09,0.66,2.76,0.32,4.59C66.5,61,56.75,87.75,38.92,97.42" stroke-dasharray="64.852" stroke-dashoffset="64.852"><animate attributeName="stroke-dashoffset" values="64.852" fill="freeze" begin="6097.click" /><animate attributeName="stroke-dashoffset" values="64.852;64.852;0" keyTimes="0;0.856;1" dur="3.391s" fill="freeze" begin="0s;6097.click" /></path><path d="M71.33,64.15c0.92,0.6,1.35,2.32,1.38,3.96c0.13,7.33-0.34,12.66-0.34,17.64c0,11.64,5.67,10.77,11.25,10.77c5.89,0,9.76-1.5,10.59-2.35c1.75-1.79,1.27-2.69,1.43-5.82" stroke-dasharray="57.92" stroke-dashoffset="57.92"><animate attributeName="stroke-dashoffset" values="57.92" fill="freeze" begin="6097.click" /><animate attributeName="stroke-dashoffset" values="57.92;57.92;0" keyTimes="0;0.854;1" dur="3.97s" fill="freeze" begin="0s;6097.click" /></path></g></svg>