<svg xmlns="http://www.w3.org/2000/svg" viewBox="0 0 109 109" id="60e1"><g fill="none" stroke="#666" stroke-width="6" stroke-linecap="round" stroke-linejoin="round"><g><g><g><g><path d="M25.52,14.53c1.29,0.31,3.67,0.42,4.97,0.31c13.77-1.1,34.27-2.1,48.77-3.6c2.15-0.22,3.46,0.15,4.53,0.31" /></g></g><path d="M43.2,15.66c0.93,0.86,1.66,2.28,1.66,3.79c0,3.44-0.02,4.62-0.02,9.3" /><path d="M28.92,31.35c2.6-0.24,15.89-2.12,18.01-2.36" /><path d="M26.76,28.66c1.01,1,1.78,2.03,1.79,3.43c0.03,2.96-1.15,9.58-1.25,13.67c-0.02,0.88,0.18,1.85,2.05,1.55c4.23-0.68,9.16-1.5,13.51-2.35c1.09-0.21,2.21,0.71,2.21,2.29c0,4.35-0.16,5.65-0.16,14.15" /><path d="M61.48,13.97c1.01,1,1.78,2.03,1.79,3.43c0.03,2.96-0.62,4.22-0.72,8.3c-0.02,0.88,0.18,1.85,2.05,1.55c4.23-0.68,10.75-1.19,15.14-1.8c2.6-0.36,3.61,1.76,3.21,3.29c-0.77,2.93-1.67,6.04-2.46,11.17" /><path d="M63.17,41.77c2.6-0.24,16.83-1.62,18.96-1.86" /><path d="M61.53,40.49c0.93,0.86,1.66,2.28,1.66,3.79c0,3.44-0.02,10.72-0.02,15.4" /><g><path d="M18.84,62.31c1.76,0.44,5,0.54,6.77,0.44c18.65-1,42.33-4.26,59.47-4.25c2.94,0,4.71,0.21,6.18,0.43" /></g></g><g><path d="M24.89,78.82c0.4,2.25-4.06,12.17-7.31,15.92" /><path d="M36.58,71.25c6.17,16.75,15.91,28,40.41,28.18c11.82,0.09,12.6-3.93,2.73-10.63" /><path d="M56.41,71.75c2.17,5.25,5.32,10.5,7.63,2.46" /><path d="M79.88,67.73c4.63,2.07,8.09,3.96,11.85,10.36" /></g></g></g><g fill="none" stroke="#000" stroke-width="3" stroke-linecap="round" stroke-linejoin="round"><path d="M25.52,14.53c1.29,0.31,3.67,0.42,4.97,0.31c13.77-1.1,34.27-2.1,48.77-3.6c2.15-0.22,3.46,0.15,4.53,0.31" stroke-dasharray="58.46" stroke-dashoffset="58.46"><animate attributeName="stroke-dashoffset" values="58.46;58.46;0" dur="0.585s" fill="freeze" begin="0s;60e1.click" /></path><path d="M43.2,15.66c0.93,0.86,1.66,2.28,1.66,3.79c0,3.44-0.02,4.62-0.02,9.3" stroke-dasharray="13.552" stroke-dashoffset="13.552"><animate attributeName="stroke-dashoffset" values="13.552" fill="freeze" begin="60e1.click" /><animate attributeName="stroke-dashoffset" values="13.552;13.552;0" keyTimes="0;0.683;1" dur="0.856s" fill="freeze" begin="0s;60e1.click" /></path><path d="M28.92,31.35c2.6-0.24,15.89-2.12,18.01-2.36" stroke-dasharray="18.165" stroke-dashoffset="18.165"><animate attributeName="stroke-dashoffset" values="18.165" fill="freeze" begin="60e1.click" /><animate attributeName="stroke-dashoffset" values="18.165;18.165;0" keyTimes="0;0.825;1" dur="1.038s" fill="freeze" begin="0s;60e1.click" /></path><path d="M26.76,28.66c1.01,1,1.78,2.03,1.79,3.43c0.03,2.96-1.15,9.58-1.25,13.67c-0.02,0.88,0.18,1.85,2.05,1.55c4.23-0.68,9.16-1.5,13.51-2.35c1.09-0.21,2.21,0.71,2.21,2.29c0,4.35-0.16,5.65-0.16,14.15" stroke-dasharray="52.355" stroke-dashoffset="52.355"><animate attributeName="stroke-dashoffset" values="52.355" fill="freeze" begin="60e1.click" /><animate attributeName="stroke-dashoffset" values="52.355;52.355;0" keyTimes="0;0.665;1" dur="1.562s" fill="freeze" begin="0s;60e1.click" /></path><path d="M61.48,13.97c1.01,1,1.78,2.03,1.79,3.43c0.03,2.96-0.62,4.22-0.72,8.3c-0.02,0.88,0.18,1.85,2.05,1.55c4.23-0.68,10.75-1.19,15.14-1.8c2.6-0.36,3.61,1.76,3.21,3.29c-0.77,2.93-1.67,6.04-2.46,11.17" stroke-dasharray="47.655" stroke-dashoffset="47.655"><animate attributeName="stroke-dashoffset" values="47.655" fill="freeze" begin="60e1.click" /><animate attributeName="stroke-dashoffset" values="47.655;47.655;0" keyTimes="0;0.766;1" dur="2.039s" fill="freeze" begin="0s;60e1.click" /></path><path d="M63.17,41.77c2.6-0.24,16.83-1.62,18.96-1.86" stroke-dasharray="19.052" stroke-dashoffset="19.052"><animate attributeName="stroke-dashoffset" values="19.052" fill="freeze" begin="60e1.click" /><animate attributeName="stroke-dashoffset" values="19.052;19.052;0" keyTimes="0;0.914;1" dur="2.23s" fill="freeze" begin="0s;60e1.click" /></path><path d="M61.53,40.49c0.93,0.86,1.66,2.28,1.66,3.79c0,3.44-0.02,10.72-0.02,15.4" stroke-dasharray="19.652" stroke-dashoffset="19.652"><animate attributeName="stroke-dashoffset" values="19.652" fill="freeze" begin="60e1.click" /><animate attributeName="stroke-dashoffset" values="19.652;19.652;0" keyTimes="0;0.919;1" dur="2.427s" fill="freeze" begin="0s;60e1.click" /></path><path d="M18.84,62.31c1.76,0.44,5,0.54,6.77,0.44c18.65-1,42.33-4.26,59.47-4.25c2.94,0,4.71,0.21,6.18,0.43" stroke-dasharray="72.642" stroke-dashoffset="72.642"><animate attributeName="stroke-dashoffset" values="72.642" fill="freeze" begin="60e1.click" /><animate attributeName="stroke-dashoffset" values="72.642;72.642;0" keyTimes="0;0.816;1" dur="2.973s" fill="freeze" begin="0s;60e1.click" /></path><path d="M24.89,78.82c0.4,2.25-4.06,12.17-7.31,15.92" stroke-dasharray="17.724" stroke-dashoffset="17.724"><animate attributeName="stroke-dashoffset" values="17.724" fill="freeze" begin="60e1.click" /><animate attributeName="stroke-dashoffset" values="17.724;17.724;0" keyTimes="0;0.944;1" dur="3.15s" fill="freeze" begin="0s;60e1.click" /></path><path d="M36.58,71.25c6.17,16.75,15.91,28,40.41,28.18c11.82,0.09,12.6-3.93,2.73-10.63" stroke-dasharray="74.576" stroke-dashoffset="74.576"><animate attributeName="stroke-dashoffset" values="74.576" fill="freeze" begin="60e1.click" /><animate attributeName="stroke-dashoffset" values="74.576;74.576;0" keyTimes="0;0.849;1" dur="3.711s" fill="freeze" begin="0s;60e1.click" /></path><path d="M56.41,71.75c2.17,5.25,5.32,10.5,7.63,2.46" stroke-dasharray="13.762" stroke-dashoffset="13.762"><animate attributeName="stroke-dashoffset" values="13.762" fill="freeze" begin="60e1.click" /><animate attributeName="stroke-dashoffset" values="13.762;13.762;0" keyTimes="0;0.931;1" dur="3.986s" fill="freeze" begin="0s;60e1.click" /></path><path d="M79.88,67.73c4.63,2.07,8.09,3.96,11.85,10.36" stroke-dasharray="16.076" stroke-dashoffset="16.076"><animate attributeName="stroke-dashoffset" values="16.076" fill="freeze" begin="60e1.click" /><animate attributeName="stroke-dashoffset" values="16.076;16.076;0" keyTimes="0;0.961;1" dur="4.147s" fill="freeze" begin="0s;60e1.click" /></path></g></svg>