<svg xmlns="http://www.w3.org/2000/svg" viewBox="0 0 109 109" id="60fa"><g fill="none" stroke="#666" stroke-width="6" stroke-linecap="round" stroke-linejoin="round"><g><g><path d="M16.72,34.5c0.03,4.31-2.47,14.14-4.69,17.5" /><path d="M30.77,32.83c2.22,2.23,5.74,9.17,6.29,12.63" /><path d="M22.87,13.25c1.09,0.5,1.74,2.25,1.96,3.25c0.22,1,0,74.75-0.22,81" /></g><g><g><path d="M45.89,16.65c0.67,0.57,1.18,1.88,1.37,2.67c0.49,2.05,3.41,22.57,3.67,23.37" /><path d="M48.2,17.71c3.55-0.29,31.5-3.07,34.73-3.36c2.7-0.25,4.66,0.85,3.92,4.5c-1.33,6.64-2.19,14.21-3.74,21.8" /><path d="M49.58,28.92c4.81-0.26,29.8-2.22,35.24-2.51" /><path d="M51.98,40.61c7.12-0.38,20.77-1.71,29.98-2.2" /></g><g><path d="M48.79,48.43c0.03,0.53,0.07,1.36-0.07,2.12c-0.79,4.47-5.31,14.29-11.51,20.3" /><path d="M48.92,59.52c0.79,0.26,2.24,0.31,3.04,0.26c5.72-0.37,29.14-2.8,34.08-3.2c1.31-0.11,1.86-0.06,2.56-0.02" /><path d="M64.78,45.64c0.55,0.51,1.82,2.36,1.82,4.83c0,1.02-0.07,33.69-0.18,40.05" /><path d="M48.29,74.41c0.67,0.23,1.91,0.27,2.58,0.23c4.86-0.32,27.52-3.15,31.7-3.49c1.12-0.09,1.58-0.05,2.18-0.01" /><path d="M39.88,92.8c1.06,0.26,3,0.31,4.07,0.26c7.65-0.37,40.33-2.69,46.93-3.08c1.76-0.11,3.25,0.21,4.88,0.85" /></g></g></g></g><g fill="none" stroke="#000" stroke-width="3" stroke-linecap="round" stroke-linejoin="round"><path d="M16.72,34.5c0.03,4.31-2.47,14.14-4.69,17.5" stroke-dasharray="18.261" stroke-dashoffset="18.261"><animate attributeName="stroke-dashoffset" values="18.261;18.261;0" dur="0.183s" fill="freeze" begin="0s;60fa.click" /></path><path d="M30.77,32.83c2.22,2.23,5.74,9.17,6.29,12.63" stroke-dasharray="14.24" stroke-dashoffset="14.24"><animate attributeName="stroke-dashoffset" values="14.24" fill="freeze" begin="60fa.click" /><animate attributeName="stroke-dashoffset" values="14.24;14.24;0" keyTimes="0;0.391;1" dur="0.468s" fill="freeze" begin="0s;60fa.click" /></path><path d="M22.87,13.25c1.09,0.5,1.74,2.25,1.96,3.25c0.22,1,0,74.75-0.22,81" stroke-dasharray="84.912" stroke-dashoffset="84.912"><animate attributeName="stroke-dashoffset" values="84.912" fill="freeze" begin="60fa.click" /><animate attributeName="stroke-dashoffset" values="84.912;84.912;0" keyTimes="0;0.423;1" dur="1.106s" fill="freeze" begin="0s;60fa.click" /></path><path d="M45.89,16.65c0.67,0.57,1.18,1.88,1.37,2.67c0.49,2.05,3.41,22.57,3.67,23.37" stroke-dasharray="26.699" stroke-dashoffset="26.699"><animate attributeName="stroke-dashoffset" values="26.699" fill="freeze" begin="60fa.click" /><animate attributeName="stroke-dashoffset" values="26.699;26.699;0" keyTimes="0;0.806;1" dur="1.373s" fill="freeze" begin="0s;60fa.click" /></path><path d="M48.2,17.71c3.55-0.29,31.5-3.07,34.73-3.36c2.7-0.25,4.66,0.85,3.92,4.5c-1.33,6.64-2.19,14.21-3.74,21.8" stroke-dasharray="64.399" stroke-dashoffset="64.399"><animate attributeName="stroke-dashoffset" values="64.399" fill="freeze" begin="60fa.click" /><animate attributeName="stroke-dashoffset" values="64.399;64.399;0" keyTimes="0;0.739;1" dur="1.857s" fill="freeze" begin="0s;60fa.click" /></path><path d="M49.58,28.92c4.81-0.26,29.8-2.22,35.24-2.51" stroke-dasharray="35.331" stroke-dashoffset="35.331"><animate attributeName="stroke-dashoffset" values="35.331" fill="freeze" begin="60fa.click" /><animate attributeName="stroke-dashoffset" values="35.331;35.331;0" keyTimes="0;0.84;1" dur="2.21s" fill="freeze" begin="0s;60fa.click" /></path><path d="M51.98,40.61c7.12-0.38,20.77-1.71,29.98-2.2" stroke-dasharray="30.062" stroke-dashoffset="30.062"><animate attributeName="stroke-dashoffset" values="30.062" fill="freeze" begin="60fa.click" /><animate attributeName="stroke-dashoffset" values="30.062;30.062;0" keyTimes="0;0.88;1" dur="2.511s" fill="freeze" begin="0s;60fa.click" /></path><path d="M48.79,48.43c0.03,0.53,0.07,1.36-0.07,2.12c-0.79,4.47-5.31,14.29-11.51,20.3" stroke-dasharray="25.739" stroke-dashoffset="25.739"><animate attributeName="stroke-dashoffset" values="25.739" fill="freeze" begin="60fa.click" /><animate attributeName="stroke-dashoffset" values="25.739;25.739;0" keyTimes="0;0.907;1" dur="2.768s" fill="freeze" begin="0s;60fa.click" /></path><path d="M48.92,59.52c0.79,0.26,2.24,0.31,3.04,0.26c5.72-0.37,29.14-2.8,34.08-3.2c1.31-0.11,1.86-0.06,2.56-0.02" stroke-dasharray="39.859" stroke-dashoffset="39.859"><animate attributeName="stroke-dashoffset" values="39.859" fill="freeze" begin="60fa.click" /><animate attributeName="stroke-dashoffset" values="39.859;39.859;0" keyTimes="0;0.874;1" dur="3.167s" fill="freeze" begin="0s;60fa.click" /></path><path d="M64.78,45.64c0.55,0.51,1.82,2.36,1.82,4.83c0,1.02-0.07,33.69-0.18,40.05" stroke-dasharray="45.332" stroke-dashoffset="45.332"><animate attributeName="stroke-dashoffset" values="45.332" fill="freeze" begin="60fa.click" /><animate attributeName="stroke-dashoffset" values="45.332;45.332;0" keyTimes="0;0.875;1" dur="3.62s" fill="freeze" begin="0s;60fa.click" /></path><path d="M48.29,74.41c0.67,0.23,1.91,0.27,2.58,0.23c4.86-0.32,27.52-3.15,31.7-3.49c1.12-0.09,1.58-0.05,2.18-0.01" stroke-dasharray="36.679" stroke-dashoffset="36.679"><animate attributeName="stroke-dashoffset" values="36.679" fill="freeze" begin="60fa.click" /><animate attributeName="stroke-dashoffset" values="36.679;36.679;0" keyTimes="0;0.908;1" dur="3.987s" fill="freeze" begin="0s;60fa.click" /></path><path d="M39.88,92.8c1.06,0.26,3,0.31,4.07,0.26c7.65-0.37,40.33-2.69,46.93-3.08c1.76-0.11,3.25,0.21,4.88,0.85" stroke-dasharray="56.117" stroke-dashoffset="56.117"><animate attributeName="stroke-dashoffset" values="56.117" fill="freeze" begin="60fa.click" /><animate attributeName="stroke-dashoffset" values="56.117;56.117;0" keyTimes="0;0.877;1" dur="4.548s" fill="freeze" begin="0s;60fa.click" /></path></g></svg>