<svg xmlns="http://www.w3.org/2000/svg" viewBox="0 0 109 109" id="6128"><g fill="none" stroke="#666" stroke-width="6" stroke-linecap="round" stroke-linejoin="round"><g><g><g><g><path d="M15.63,21.15c0.67,0.42,1.9,0.49,2.58,0.42c6.99-0.71,23.47-3.45,31.46-3.42c1.12,0,1.79,0.2,2.35,0.42" /><path d="M32.52,11.75c0.55,0.22,0.88,0.99,0.99,1.43c0.11,0.44,0,14.69-0.11,17.44" /><path d="M20.45,31.6c0.51,0.27,1.45,0.29,1.96,0.27c6.78-0.32,15.71-1.89,22.87-1.86c0.85,0,1.37,0.13,1.79,0.26" /></g><g><g><path d="M17.42,37.96c-0.1,2.91-2.5,10.53-3.36,12.26" /><path d="M17.29,41.07c1.66,0,22.63-3.97,30.98-3.97c5.68,0,1.79,3.78-0.33,6.25" /></g><path d="M14.5,56.95c0.96,0.27,2.71,0.27,3.66,0.27c7.34,0.02,22.59-2.48,29.74-2.8c1.59-0.07,2.55,0.13,3.35,0.27" /></g></g><g><g><g><path d="M61.65,13.59c0.24,0.5,0.97,1.59,0.95,2.33c-0.17,7.57-0.6,15.34-7.76,19.48" /></g><path d="M62.15,15.15c1.86,0.22,13.59-1.6,14.84-2.04c1.86-0.66,2.79,1.4,2.6,2.87c-0.37,2.87-1.06,6.22-1.06,9.09c0,3.97,0.93,6.84,7.07,6.84c7.25,0,9.07-0.44,9.07-8.6" /></g><g><path d="M60.93,41.11c1.12,0.26,1.26,0.65,3.49,0.26c2.23-0.39,14.53-3.14,16.07-3.53c1.54-0.39,2.86,1.57,2.09,2.88C75.5,52.75,67.39,61.16,54,67.67" /><path d="M58.81,46.91c3.09,0.45,18.18,12.56,28.94,17.52c1.67,0.77,2.9,1.29,4.45,1.54" /></g></g></g><g><path d="M25.56,79.88c0.36,2.25-3.65,12.17-6.56,15.92" /><path d="M37.5,76.82C43.67,88.61,53.42,98.85,77.2,99c11.47,0.07,12.22-3.15,2.65-8.52" /><path d="M56.33,75.82c2.17,5.25,5.32,10.5,7.63,2.46" /><path d="M81.3,74.05c4.24,1.72,7.41,3.29,10.85,8.61" /></g></g></g><g fill="none" stroke="#000" stroke-width="3" stroke-linecap="round" stroke-linejoin="round"><path d="M15.63,21.15c0.67,0.42,1.9,0.49,2.58,0.42c6.99-0.71,23.47-3.45,31.46-3.42c1.12,0,1.79,0.2,2.35,0.42" stroke-dasharray="36.717" stroke-dashoffset="36.717"><animate attributeName="stroke-dashoffset" values="36.717;36.717;0" dur="0.367s" fill="freeze" begin="0s;6128.click" /></path><path d="M32.52,11.75c0.55,0.22,0.88,0.99,0.99,1.43c0.11,0.44,0,14.69-0.11,17.44" stroke-dasharray="19.239" stroke-dashoffset="19.239"><animate attributeName="stroke-dashoffset" values="19.239" fill="freeze" begin="6128.click" /><animate attributeName="stroke-dashoffset" values="19.239;19.239;0" keyTimes="0;0.657;1" dur="0.559s" fill="freeze" begin="0s;6128.click" /></path><path d="M20.45,31.6c0.51,0.27,1.45,0.29,1.96,0.27c6.78-0.32,15.71-1.89,22.87-1.86c0.85,0,1.37,0.13,1.79,0.26" stroke-dasharray="26.769" stroke-dashoffset="26.769"><animate attributeName="stroke-dashoffset" values="26.769" fill="freeze" begin="6128.click" /><animate attributeName="stroke-dashoffset" values="26.769;26.769;0" keyTimes="0;0.676;1" dur="0.827s" fill="freeze" begin="0s;6128.click" /></path><path d="M17.42,37.96c-0.1,2.91-2.5,10.53-3.36,12.26" stroke-dasharray="12.755" stroke-dashoffset="12.755"><animate attributeName="stroke-dashoffset" values="12.755" fill="freeze" begin="6128.click" /><animate attributeName="stroke-dashoffset" values="12.755;12.755;0" keyTimes="0;0.764;1" dur="1.082s" fill="freeze" begin="0s;6128.click" /></path><path d="M17.29,41.07c1.66,0,22.63-3.97,30.98-3.97c5.68,0,1.79,3.78-0.33,6.25" stroke-dasharray="40.825" stroke-dashoffset="40.825"><animate attributeName="stroke-dashoffset" values="40.825" fill="freeze" begin="6128.click" /><animate attributeName="stroke-dashoffset" values="40.825;40.825;0" keyTimes="0;0.726;1" dur="1.49s" fill="freeze" begin="0s;6128.click" /></path><path d="M14.5,56.95c0.96,0.27,2.71,0.27,3.66,0.27c7.34,0.02,22.59-2.48,29.74-2.8c1.59-0.07,2.55,0.13,3.35,0.27" stroke-dasharray="36.932" stroke-dashoffset="36.932"><animate attributeName="stroke-dashoffset" values="36.932" fill="freeze" begin="6128.click" /><animate attributeName="stroke-dashoffset" values="36.932;36.932;0" keyTimes="0;0.802;1" dur="1.859s" fill="freeze" begin="0s;6128.click" /></path><path d="M61.65,13.59c0.24,0.5,0.97,1.59,0.95,2.33c-0.17,7.57-0.6,15.34-7.76,19.48" stroke-dasharray="24.616" stroke-dashoffset="24.616"><animate attributeName="stroke-dashoffset" values="24.616" fill="freeze" begin="6128.click" /><animate attributeName="stroke-dashoffset" values="24.616;24.616;0" keyTimes="0;0.883;1" dur="2.105s" fill="freeze" begin="0s;6128.click" /></path><path d="M62.15,15.15c1.86,0.22,13.59-1.6,14.84-2.04c1.86-0.66,2.79,1.4,2.6,2.87c-0.37,2.87-1.06,6.22-1.06,9.09c0,3.97,0.93,6.84,7.07,6.84c7.25,0,9.07-0.44,9.07-8.6" stroke-dasharray="55.663" stroke-dashoffset="55.663"><animate attributeName="stroke-dashoffset" values="55.663" fill="freeze" begin="6128.click" /><animate attributeName="stroke-dashoffset" values="55.663;55.663;0" keyTimes="0;0.791;1" dur="2.662s" fill="freeze" begin="0s;6128.click" /></path><path d="M60.93,41.11c1.12,0.26,1.26,0.65,3.49,0.26c2.23-0.39,14.53-3.14,16.07-3.53c1.54-0.39,2.86,1.57,2.09,2.88C75.5,52.75,67.39,61.16,54,67.67" stroke-dasharray="64.347" stroke-dashoffset="64.347"><animate attributeName="stroke-dashoffset" values="64.347" fill="freeze" begin="6128.click" /><animate attributeName="stroke-dashoffset" values="64.347;64.347;0" keyTimes="0;0.846;1" dur="3.146s" fill="freeze" begin="0s;6128.click" /></path><path d="M58.81,46.91c3.09,0.45,18.18,12.56,28.94,17.52c1.67,0.77,2.9,1.29,4.45,1.54" stroke-dasharray="38.616" stroke-dashoffset="38.616"><animate attributeName="stroke-dashoffset" values="38.616" fill="freeze" begin="6128.click" /><animate attributeName="stroke-dashoffset" values="38.616;38.616;0" keyTimes="0;0.891;1" dur="3.532s" fill="freeze" begin="0s;6128.click" /></path><path d="M25.56,79.88c0.36,2.25-3.65,12.17-6.56,15.92" stroke-dasharray="17.392" stroke-dashoffset="17.392"><animate attributeName="stroke-dashoffset" values="17.392" fill="freeze" begin="6128.click" /><animate attributeName="stroke-dashoffset" values="17.392;17.392;0" keyTimes="0;0.953;1" dur="3.706s" fill="freeze" begin="0s;6128.click" /></path><path d="M37.5,76.82C43.67,88.61,53.42,98.85,77.2,99c11.47,0.07,12.22-3.15,2.65-8.52" stroke-dasharray="67.657" stroke-dashoffset="67.657"><animate attributeName="stroke-dashoffset" values="67.657" fill="freeze" begin="6128.click" /><animate attributeName="stroke-dashoffset" values="67.657;67.657;0" keyTimes="0;0.879;1" dur="4.215s" fill="freeze" begin="0s;6128.click" /></path><path d="M56.33,75.82c2.17,5.25,5.32,10.5,7.63,2.46" stroke-dasharray="13.762" stroke-dashoffset="13.762"><animate attributeName="stroke-dashoffset" values="13.762" fill="freeze" begin="6128.click" /><animate attributeName="stroke-dashoffset" values="13.762;13.762;0" keyTimes="0;0.939;1" dur="4.49s" fill="freeze" begin="0s;6128.click" /></path><path d="M81.3,74.05c4.24,1.72,7.41,3.29,10.85,8.61" stroke-dasharray="14.137" stroke-dashoffset="14.137"><animate attributeName="stroke-dashoffset" values="14.137" fill="freeze" begin="6128.click" /><animate attributeName="stroke-dashoffset" values="14.137;14.137;0" keyTimes="0;0.941;1" dur="4.773s" fill="freeze" begin="0s;6128.click" /></path></g></svg>