<svg xmlns="http://www.w3.org/2000/svg" viewBox="0 0 109 109" id="6167"><g fill="none" stroke="#666" stroke-width="6" stroke-linecap="round" stroke-linejoin="round"><g><g><g><g><g><g><path d="M19.41,20.34c1.26,0.4,3.3,0.37,4.61,0.27c5.19-0.41,13.1-1.35,19.48-2.22c1.65-0.23,3.39-0.31,5.04,0.01" /></g><g><g><path d="M20.43,30.18c0.99,0.71,3.33,0.44,4.45,0.36c6.43-0.5,11.99-1.41,18.12-2.28c1.17-0.17,2.75-0.26,4.05-0.07" /></g><g><path d="M18.88,40.63c0.85,1.41,2.24,1.24,4.08,0.8c6.91-1.66,17.17-3.81,26.78-6.36" /></g></g></g><g><path d="M34.04,10.94c0.95,0.95,1.27,1.81,1.35,3.2c0.36,5.98,1.61,20.23,2.45,31.92" /></g></g><g><g><g><path d="M55.82,19.15c1.8,0.58,3.57,0.42,5.43,0.31c6.03-0.37,16.04-1.61,21.5-1.84c1.35-0.06,2.71-0.12,4.05,0.14" /></g><g><g><path d="M57.64,27.76c1.58,0.56,3.46,0.62,5.12,0.47c5.18-0.48,13.79-1.63,18.62-1.81c1.16-0.04,2.34-0.06,3.47,0.18" /></g><g><path d="M55.87,37.54c1.48,0.44,3.71,0.43,5.25,0.34c8.87-0.54,16.88-1.51,25-2.17c1.39-0.11,2.86-0.01,4.24,0.24" /></g></g></g><g><path d="M72.09,9.03c0.88,0.88,1.04,1.97,0.85,3.62c-0.77,7.05-2.19,20.73-3.68,31.51" /></g></g></g><g><path d="M26.74,51.56c1.88,0.56,3.51,0.77,5.68,0.58c14.83-1.27,31.12-2.09,42.71-2.93c3.06-0.22,4.46,1.84,3.98,3.52c-1.24,4.39-2.08,8.4-3.73,15.94" /><path d="M25.7,60.67c2.55,0.7,4.37,0.79,7.05,0.6c15.94-1.09,27.99-2.05,43.7-2.75" /><path d="M25.77,70.81c2.48,0.82,4.63,0.83,6.99,0.73c11.01-0.46,30.41-2.27,41.44-2.46c1.89-0.03,3.08,0,4.5,0.1" /></g></g><g><path d="M20.89,82.05c0.38,1.88-3.78,10.18-6.81,13.31" /><path d="M32.83,80.36c6.17,9.48,15.92,17.96,39.7,18.07C84,98.49,85,95.88,75.93,90.34" /><path d="M52.66,78.5c1.95,4.52,4.29,9.3,6.38,2.37" /><path d="M78.88,76.98c4.37,2.27,8.74,5.89,12.35,10.68" /></g></g></g><g fill="none" stroke="#000" stroke-width="3" stroke-linecap="round" stroke-linejoin="round"><path d="M19.41,20.34c1.26,0.4,3.3,0.37,4.61,0.27c5.19-0.41,13.1-1.35,19.48-2.22c1.65-0.23,3.39-0.31,5.04,0.01" stroke-dasharray="29.313" stroke-dashoffset="29.313"><animate attributeName="stroke-dashoffset" values="29.313;29.313;0" dur="0.293s" fill="freeze" begin="0s;6167.click" /></path><path d="M20.43,30.18c0.99,0.71,3.33,0.44,4.45,0.36c6.43-0.5,11.99-1.41,18.12-2.28c1.17-0.17,2.75-0.26,4.05-0.07" stroke-dasharray="26.867" stroke-dashoffset="26.867"><animate attributeName="stroke-dashoffset" values="26.867" fill="freeze" begin="6167.click" /><animate attributeName="stroke-dashoffset" values="26.867;26.867;0" keyTimes="0;0.521;1" dur="0.562s" fill="freeze" begin="0s;6167.click" /></path><path d="M18.88,40.63c0.85,1.41,2.24,1.24,4.08,0.8c6.91-1.66,17.17-3.81,26.78-6.36" stroke-dasharray="32.043" stroke-dashoffset="32.043"><animate attributeName="stroke-dashoffset" values="32.043" fill="freeze" begin="6167.click" /><animate attributeName="stroke-dashoffset" values="32.043;32.043;0" keyTimes="0;0.637;1" dur="0.882s" fill="freeze" begin="0s;6167.click" /></path><path d="M34.04,10.94c0.95,0.95,1.27,1.81,1.35,3.2c0.36,5.98,1.61,20.23,2.45,31.92" stroke-dasharray="35.584" stroke-dashoffset="35.584"><animate attributeName="stroke-dashoffset" values="35.584" fill="freeze" begin="6167.click" /><animate attributeName="stroke-dashoffset" values="35.584;35.584;0" keyTimes="0;0.712;1" dur="1.238s" fill="freeze" begin="0s;6167.click" /></path><path d="M55.82,19.15c1.8,0.58,3.57,0.42,5.43,0.31c6.03-0.37,16.04-1.61,21.5-1.84c1.35-0.06,2.71-0.12,4.05,0.14" stroke-dasharray="31.118" stroke-dashoffset="31.118"><animate attributeName="stroke-dashoffset" values="31.118" fill="freeze" begin="6167.click" /><animate attributeName="stroke-dashoffset" values="31.118;31.118;0" keyTimes="0;0.799;1" dur="1.549s" fill="freeze" begin="0s;6167.click" /></path><path d="M57.64,27.76c1.58,0.56,3.46,0.62,5.12,0.47c5.18-0.48,13.79-1.63,18.62-1.81c1.16-0.04,2.34-0.06,3.47,0.18" stroke-dasharray="27.375" stroke-dashoffset="27.375"><animate attributeName="stroke-dashoffset" values="27.375" fill="freeze" begin="6167.click" /><animate attributeName="stroke-dashoffset" values="27.375;27.375;0" keyTimes="0;0.85;1" dur="1.823s" fill="freeze" begin="0s;6167.click" /></path><path d="M55.87,37.54c1.48,0.44,3.71,0.43,5.25,0.34c8.87-0.54,16.88-1.51,25-2.17c1.39-0.11,2.86-0.01,4.24,0.24" stroke-dasharray="34.638" stroke-dashoffset="34.638"><animate attributeName="stroke-dashoffset" values="34.638" fill="freeze" begin="6167.click" /><animate attributeName="stroke-dashoffset" values="34.638;34.638;0" keyTimes="0;0.84;1" dur="2.169s" fill="freeze" begin="0s;6167.click" /></path><path d="M72.09,9.03c0.88,0.88,1.04,1.97,0.85,3.62c-0.77,7.05-2.19,20.73-3.68,31.51" stroke-dasharray="35.591" stroke-dashoffset="35.591"><animate attributeName="stroke-dashoffset" values="35.591" fill="freeze" begin="6167.click" /><animate attributeName="stroke-dashoffset" values="35.591;35.591;0" keyTimes="0;0.859;1" dur="2.525s" fill="freeze" begin="0s;6167.click" /></path><path d="M26.74,51.56c1.88,0.56,3.51,0.77,5.68,0.58c14.83-1.27,31.12-2.09,42.71-2.93c3.06-0.22,4.46,1.84,3.98,3.52c-1.24,4.39-2.08,8.4-3.73,15.94" stroke-dasharray="71.207" stroke-dashoffset="71.207"><animate attributeName="stroke-dashoffset" values="71.207" fill="freeze" begin="6167.click" /><animate attributeName="stroke-dashoffset" values="71.207;71.207;0" keyTimes="0;0.825;1" dur="3.06s" fill="freeze" begin="0s;6167.click" /></path><path d="M25.7,60.67c2.55,0.7,4.37,0.79,7.05,0.6c15.94-1.09,27.99-2.05,43.7-2.75" stroke-dasharray="50.905" stroke-dashoffset="50.905"><animate attributeName="stroke-dashoffset" values="50.905" fill="freeze" begin="6167.click" /><animate attributeName="stroke-dashoffset" values="50.905;50.905;0" keyTimes="0;0.857;1" dur="3.569s" fill="freeze" begin="0s;6167.click" /></path><path d="M25.77,70.81c2.48,0.82,4.63,0.83,6.99,0.73c11.01-0.46,30.41-2.27,41.44-2.46c1.89-0.03,3.08,0,4.5,0.1" stroke-dasharray="53.092" stroke-dashoffset="53.092"><animate attributeName="stroke-dashoffset" values="53.092" fill="freeze" begin="6167.click" /><animate attributeName="stroke-dashoffset" values="53.092;53.092;0" keyTimes="0;0.87;1" dur="4.1s" fill="freeze" begin="0s;6167.click" /></path><path d="M20.89,82.05c0.38,1.88-3.78,10.18-6.81,13.31" stroke-dasharray="15.156" stroke-dashoffset="15.156"><animate attributeName="stroke-dashoffset" values="15.156" fill="freeze" begin="6167.click" /><animate attributeName="stroke-dashoffset" values="15.156;15.156;0" keyTimes="0;0.964;1" dur="4.252s" fill="freeze" begin="0s;6167.click" /></path><path d="M32.83,80.36c6.17,9.48,15.92,17.96,39.7,18.07C84,98.49,85,95.88,75.93,90.34" stroke-dasharray="64.678" stroke-dashoffset="64.678"><animate attributeName="stroke-dashoffset" values="64.678" fill="freeze" begin="6167.click" /><animate attributeName="stroke-dashoffset" values="64.678;64.678;0" keyTimes="0;0.897;1" dur="4.738s" fill="freeze" begin="0s;6167.click" /></path><path d="M52.66,78.5c1.95,4.52,4.29,9.3,6.38,2.37" stroke-dasharray="11.78" stroke-dashoffset="11.78"><animate attributeName="stroke-dashoffset" values="11.78" fill="freeze" begin="6167.click" /><animate attributeName="stroke-dashoffset" values="11.78;11.78;0" keyTimes="0;0.953;1" dur="4.974s" fill="freeze" begin="0s;6167.click" /></path><path d="M78.88,76.98c4.37,2.27,8.74,5.89,12.35,10.68" stroke-dasharray="16.462" stroke-dashoffset="16.462"><animate attributeName="stroke-dashoffset" values="16.462" fill="freeze" begin="6167.click" /><animate attributeName="stroke-dashoffset" values="16.462;16.462;0" keyTimes="0;0.968;1" dur="5.139s" fill="freeze" begin="0s;6167.click" /></path></g></svg>