<svg xmlns="http://www.w3.org/2000/svg" viewBox="0 0 109 109" id="6173"><g fill="none" stroke="#666" stroke-width="6" stroke-linecap="round" stroke-linejoin="round"><g><g><path d="M14.72,34.5c0.03,4.31-2.47,14.14-4.69,17.5" /><path d="M27.77,30.83c1.87,1.88,4.83,7.71,5.29,10.63" /><path d="M19.87,13.75c1.09,0.5,1.74,2.25,1.96,3.25c0.22,1,0,73.75-0.22,80" /></g><g><g><g><path d="M38.91,18.87c0.26,0.97,0.68,2.48,0.77,2.97c0.09,0.49,0.38,34.38,0.33,37.44" /><path d="M39.77,21c2.74-0.43,14.21-2.63,20.58-3.14c0.97-0.08,1.55-0.16,2.03-0.03" /><path d="M50.87,21.27c0.42,0.24,0.68,1.09,0.77,1.58c0.09,0.49,0.12,5.12,0.07,8.19" /><path d="M40.06,32.78c6.56-1.06,15.72-2.15,20.27-2.88c1.84-0.3,2.37,0.71,2.12,2.03c-0.44,2.41-1.47,5.86-1.91,8.75" /><path d="M40.2,43.81c2.74-0.43,18.72-2.23,21.29-2.52" /><path d="M50.9,42.7c0.42,0.24,0.68,1.09,0.77,1.58c0.09,0.49,0.15,8.83,0.1,11.9" /><path d="M40.16,57.8c2.74-0.43,15.18-1.92,21.55-2.44c0.96-0.08,1.54-0.15,2.03-0.03" /></g><g><path d="M69.59,21.2c0.81,0.25,0.91,0.64,2.52,0.25c1.62-0.38,17.78-3.89,18.89-4.27c1.11-0.38,1.92,1.4,1.51,2.79c-4.74,16.5-15.12,31.19-24.21,37.41" /><path d="M68.86,29.43c2.52,0.68,14.86,18.81,23.65,26.24c1.37,1.16,2.37,1.93,3.64,2.31" /></g></g><g><path d="M44.69,75.42c1.09,0.55,3.09,0.65,4.19,0.55C59.5,75,73.5,73.75,84.16,73.14c1.82-0.1,2.92,0.26,3.83,0.54" /><path d="M64.58,62.63c0.09,0.28,1.3,1.45,1.3,3.23c0,11.44-0.27,18.89-0.27,26.68" /><path d="M36.4,93.82c1.42,0.65,4.01,0.71,5.43,0.65c12.8-0.56,33.48-3.09,49.77-2.42c2.36,0.1,3.77,0.31,4.95,0.64" /></g></g></g></g><g fill="none" stroke="#000" stroke-width="3" stroke-linecap="round" stroke-linejoin="round"><path d="M14.72,34.5c0.03,4.31-2.47,14.14-4.69,17.5" stroke-dasharray="18.261" stroke-dashoffset="18.261"><animate attributeName="stroke-dashoffset" values="18.261;18.261;0" dur="0.183s" fill="freeze" begin="0s;6173.click" /></path><path d="M27.77,30.83c1.87,1.88,4.83,7.71,5.29,10.63" stroke-dasharray="11.984" stroke-dashoffset="11.984"><animate attributeName="stroke-dashoffset" values="11.984" fill="freeze" begin="6173.click" /><animate attributeName="stroke-dashoffset" values="11.984;11.984;0" keyTimes="0;0.433;1" dur="0.423s" fill="freeze" begin="0s;6173.click" /></path><path d="M19.87,13.75c1.09,0.5,1.74,2.25,1.96,3.25c0.22,1,0,73.75-0.22,80" stroke-dasharray="83.912" stroke-dashoffset="83.912"><animate attributeName="stroke-dashoffset" values="83.912" fill="freeze" begin="6173.click" /><animate attributeName="stroke-dashoffset" values="83.912;83.912;0" keyTimes="0;0.401;1" dur="1.054s" fill="freeze" begin="0s;6173.click" /></path><path d="M38.91,18.87c0.26,0.97,0.68,2.48,0.77,2.97c0.09,0.49,0.38,34.38,0.33,37.44" stroke-dasharray="40.512" stroke-dashoffset="40.512"><animate attributeName="stroke-dashoffset" values="40.512" fill="freeze" begin="6173.click" /><animate attributeName="stroke-dashoffset" values="40.512;40.512;0" keyTimes="0;0.722;1" dur="1.459s" fill="freeze" begin="0s;6173.click" /></path><path d="M39.77,21c2.74-0.43,14.21-2.63,20.58-3.14c0.97-0.08,1.55-0.16,2.03-0.03" stroke-dasharray="22.865" stroke-dashoffset="22.865"><animate attributeName="stroke-dashoffset" values="22.865" fill="freeze" begin="6173.click" /><animate attributeName="stroke-dashoffset" values="22.865;22.865;0" keyTimes="0;0.864;1" dur="1.688s" fill="freeze" begin="0s;6173.click" /></path><path d="M50.87,21.27c0.42,0.24,0.68,1.09,0.77,1.58c0.09,0.49,0.12,5.12,0.07,8.19" stroke-dasharray="9.993" stroke-dashoffset="9.993"><animate attributeName="stroke-dashoffset" values="9.993" fill="freeze" begin="6173.click" /><animate attributeName="stroke-dashoffset" values="9.993;9.993;0" keyTimes="0;0.894;1" dur="1.888s" fill="freeze" begin="0s;6173.click" /></path><path d="M40.06,32.78c6.56-1.06,15.72-2.15,20.27-2.88c1.84-0.3,2.37,0.71,2.12,2.03c-0.44,2.41-1.47,5.86-1.91,8.75" stroke-dasharray="33.108" stroke-dashoffset="33.108"><animate attributeName="stroke-dashoffset" values="33.108" fill="freeze" begin="6173.click" /><animate attributeName="stroke-dashoffset" values="33.108;33.108;0" keyTimes="0;0.851;1" dur="2.219s" fill="freeze" begin="0s;6173.click" /></path><path d="M40.2,43.81c2.74-0.43,18.72-2.23,21.29-2.52" stroke-dasharray="21.44" stroke-dashoffset="21.44"><animate attributeName="stroke-dashoffset" values="21.44" fill="freeze" begin="6173.click" /><animate attributeName="stroke-dashoffset" values="21.44;21.44;0" keyTimes="0;0.912;1" dur="2.433s" fill="freeze" begin="0s;6173.click" /></path><path d="M50.9,42.7c0.42,0.24,0.68,1.09,0.77,1.58c0.09,0.49,0.15,8.83,0.1,11.9" stroke-dasharray="13.702" stroke-dashoffset="13.702"><animate attributeName="stroke-dashoffset" values="13.702" fill="freeze" begin="6173.click" /><animate attributeName="stroke-dashoffset" values="13.702;13.702;0" keyTimes="0;0.899;1" dur="2.707s" fill="freeze" begin="0s;6173.click" /></path><path d="M40.16,57.8c2.74-0.43,15.18-1.92,21.55-2.44c0.96-0.08,1.54-0.15,2.03-0.03" stroke-dasharray="23.729" stroke-dashoffset="23.729"><animate attributeName="stroke-dashoffset" values="23.729" fill="freeze" begin="6173.click" /><animate attributeName="stroke-dashoffset" values="23.729;23.729;0" keyTimes="0;0.919;1" dur="2.944s" fill="freeze" begin="0s;6173.click" /></path><path d="M69.59,21.2c0.81,0.25,0.91,0.64,2.52,0.25c1.62-0.38,17.78-3.89,18.89-4.27c1.11-0.38,1.92,1.4,1.51,2.79c-4.74,16.5-15.12,31.19-24.21,37.41" stroke-dasharray="71.066" stroke-dashoffset="71.066"><animate attributeName="stroke-dashoffset" values="71.066" fill="freeze" begin="6173.click" /><animate attributeName="stroke-dashoffset" values="71.066;71.066;0" keyTimes="0;0.846;1" dur="3.478s" fill="freeze" begin="0s;6173.click" /></path><path d="M68.86,29.43c2.52,0.68,14.86,18.81,23.65,26.24c1.37,1.16,2.37,1.93,3.64,2.31" stroke-dasharray="39.756" stroke-dashoffset="39.756"><animate attributeName="stroke-dashoffset" values="39.756" fill="freeze" begin="6173.click" /><animate attributeName="stroke-dashoffset" values="39.756;39.756;0" keyTimes="0;0.897;1" dur="3.876s" fill="freeze" begin="0s;6173.click" /></path><path d="M44.69,75.42c1.09,0.55,3.09,0.65,4.19,0.55C59.5,75,73.5,73.75,84.16,73.14c1.82-0.1,2.92,0.26,3.83,0.54" stroke-dasharray="43.556" stroke-dashoffset="43.556"><animate attributeName="stroke-dashoffset" values="43.556" fill="freeze" begin="6173.click" /><animate attributeName="stroke-dashoffset" values="43.556;43.556;0" keyTimes="0;0.899;1" dur="4.312s" fill="freeze" begin="0s;6173.click" /></path><path d="M64.58,62.63c0.09,0.28,1.3,1.45,1.3,3.23c0,11.44-0.27,18.89-0.27,26.68" stroke-dasharray="30.228" stroke-dashoffset="30.228"><animate attributeName="stroke-dashoffset" values="30.228" fill="freeze" begin="6173.click" /><animate attributeName="stroke-dashoffset" values="30.228;30.228;0" keyTimes="0;0.935;1" dur="4.614s" fill="freeze" begin="0s;6173.click" /></path><path d="M36.4,93.82c1.42,0.65,4.01,0.71,5.43,0.65c12.8-0.56,33.48-3.09,49.77-2.42c2.36,0.1,3.77,0.31,4.95,0.64" stroke-dasharray="60.365" stroke-dashoffset="60.365"><animate attributeName="stroke-dashoffset" values="60.365" fill="freeze" begin="6173.click" /><animate attributeName="stroke-dashoffset" values="60.365;60.365;0" keyTimes="0;0.91;1" dur="5.068s" fill="freeze" begin="0s;6173.click" /></path></g></svg>