<svg xmlns="http://www.w3.org/2000/svg" viewBox="0 0 109 109" id="61cd"><g fill="none" stroke="#666" stroke-width="6" stroke-linecap="round" stroke-linejoin="round"><g><g><path d="M15.47,32.5c0.03,4.19-2.07,13.74-3.94,17" /><path d="M30.52,31.08c2.13,2.45,5.51,10.07,6.04,13.88" /><path d="M21.37,13.75c1.09,0.5,1.74,2.25,1.96,3.25c0.22,1,0,75.25-0.22,81.5" /></g><g><g><g><path d="M62.39,10c0.78,0.42,2.05,2.04,2.05,2.87c0,3.07-0.25,4.96-0.1,7.56" /><path d="M37.17,22.21c1.67,0.33,3.13,1.1,5.05,0.96c12.53-0.92,32.91-3,46.2-3.67c1.96-0.1,2.96,0.04,4.41,0.58" /></g><g><g><path d="M44.21,30.95c0.59,0.61,0.68,1.75,0.8,2.51c0.82,5.17,1.89,14.16,3.09,24.29" /><path d="M44.95,32.72c10.58-0.67,33.22-3.47,40.31-3.47c1.61,0,2.74,2.01,2.55,3.23c-0.88,5.77-1.81,12.77-2.85,21.94" /></g><g><path d="M56.02,37.3c0.18,0.17,0.37,0.81,0.45,1.01c0.63,1.65,1.21,7.28,1.75,10.25" /><path d="M56.65,38.5c3.73-0.86,15.77-1.81,17.91-2.03c0.78-0.08,1.25,0.47,1.14,0.94c-0.46,1.93-1,5.26-1.69,7.93" /><path d="M57.89,46.9c2.7-0.42,14.46-0.95,17.9-1.33" /></g><g><path d="M48.34,54.98c10.25-0.73,26.23-2.82,37.03-3.41" /></g></g></g><g><g><path d="M77.79,56.5c0.09,0.24,0.2,0.62-0.19,0.96c-2.28,2.04-15.34,6.5-33.22,9.24" /></g><g><path d="M38.07,74.08c0.57,0.22,2.86,0.8,4.37,0.66c6.84-0.66,37.07-3.29,48.66-3.9c1.52-0.08,3.42,0.26,4.37,0.48" /><path d="M65.15,65.48c0.73,0.41,1.17,1.82,1.31,2.63s0,25.33-0.15,30.39" /><path d="M64.25,73.01C57.43,82.46,49.4,90.64,36.5,95.56" /><path d="M66.11,72.86C71.25,77.5,84,88.25,91.49,91.81c1.53,0.73,2.61,1.34,4.01,1.61" /></g></g></g></g></g><g fill="none" stroke="#000" stroke-width="3" stroke-linecap="round" stroke-linejoin="round"><path d="M15.47,32.5c0.03,4.19-2.07,13.74-3.94,17" stroke-dasharray="17.56" stroke-dashoffset="17.56"><animate attributeName="stroke-dashoffset" values="17.56;17.56;0" dur="0.176s" fill="freeze" begin="0s;61cd.click" /></path><path d="M30.52,31.08c2.13,2.45,5.51,10.07,6.04,13.88" stroke-dasharray="15.255" stroke-dashoffset="15.255"><animate attributeName="stroke-dashoffset" values="15.255" fill="freeze" begin="61cd.click" /><animate attributeName="stroke-dashoffset" values="15.255;15.255;0" keyTimes="0;0.535;1" dur="0.329s" fill="freeze" begin="0s;61cd.click" /></path><path d="M21.37,13.75c1.09,0.5,1.74,2.25,1.96,3.25c0.22,1,0,75.25-0.22,81.5" stroke-dasharray="85.412" stroke-dashoffset="85.412"><animate attributeName="stroke-dashoffset" values="85.412" fill="freeze" begin="61cd.click" /><animate attributeName="stroke-dashoffset" values="85.412;85.412;0" keyTimes="0;0.339;1" dur="0.971s" fill="freeze" begin="0s;61cd.click" /></path><path d="M62.39,10c0.78,0.42,2.05,2.04,2.05,2.87c0,3.07-0.25,4.96-0.1,7.56" stroke-dasharray="11.187" stroke-dashoffset="11.187"><animate attributeName="stroke-dashoffset" values="11.187" fill="freeze" begin="61cd.click" /><animate attributeName="stroke-dashoffset" values="11.187;11.187;0" keyTimes="0;0.813;1" dur="1.195s" fill="freeze" begin="0s;61cd.click" /></path><path d="M37.17,22.21c1.67,0.33,3.13,1.1,5.05,0.96c12.53-0.92,32.91-3,46.2-3.67c1.96-0.1,2.96,0.04,4.41,0.58" stroke-dasharray="56.004" stroke-dashoffset="56.004"><animate attributeName="stroke-dashoffset" values="56.004" fill="freeze" begin="61cd.click" /><animate attributeName="stroke-dashoffset" values="56.004;56.004;0" keyTimes="0;0.681;1" dur="1.755s" fill="freeze" begin="0s;61cd.click" /></path><path d="M44.21,30.95c0.59,0.61,0.68,1.75,0.8,2.51c0.82,5.17,1.89,14.16,3.09,24.29" stroke-dasharray="27.164" stroke-dashoffset="27.164"><animate attributeName="stroke-dashoffset" values="27.164" fill="freeze" begin="61cd.click" /><animate attributeName="stroke-dashoffset" values="27.164;27.164;0" keyTimes="0;0.866;1" dur="2.027s" fill="freeze" begin="0s;61cd.click" /></path><path d="M44.95,32.72c10.58-0.67,33.22-3.47,40.31-3.47c1.61,0,2.74,2.01,2.55,3.23c-0.88,5.77-1.81,12.77-2.85,21.94" stroke-dasharray="67.156" stroke-dashoffset="67.156"><animate attributeName="stroke-dashoffset" values="67.156" fill="freeze" begin="61cd.click" /><animate attributeName="stroke-dashoffset" values="67.156;67.156;0" keyTimes="0;0.801;1" dur="2.532s" fill="freeze" begin="0s;61cd.click" /></path><path d="M56.02,37.3c0.18,0.17,0.37,0.81,0.45,1.01c0.63,1.65,1.21,7.28,1.75,10.25" stroke-dasharray="11.52" stroke-dashoffset="11.52"><animate attributeName="stroke-dashoffset" values="11.52" fill="freeze" begin="61cd.click" /><animate attributeName="stroke-dashoffset" values="11.52;11.52;0" keyTimes="0;0.917;1" dur="2.762s" fill="freeze" begin="0s;61cd.click" /></path><path d="M56.65,38.5c3.73-0.86,15.77-1.81,17.91-2.03c0.78-0.08,1.25,0.47,1.14,0.94c-0.46,1.93-1,5.26-1.69,7.93" stroke-dasharray="27.863" stroke-dashoffset="27.863"><animate attributeName="stroke-dashoffset" values="27.863" fill="freeze" begin="61cd.click" /><animate attributeName="stroke-dashoffset" values="27.863;27.863;0" keyTimes="0;0.908;1" dur="3.041s" fill="freeze" begin="0s;61cd.click" /></path><path d="M57.89,46.9c2.7-0.42,14.46-0.95,17.9-1.33" stroke-dasharray="17.953" stroke-dashoffset="17.953"><animate attributeName="stroke-dashoffset" values="17.953" fill="freeze" begin="61cd.click" /><animate attributeName="stroke-dashoffset" values="17.953;17.953;0" keyTimes="0;0.944;1" dur="3.221s" fill="freeze" begin="0s;61cd.click" /></path><path d="M48.34,54.98c10.25-0.73,26.23-2.82,37.03-3.41" stroke-dasharray="37.19" stroke-dashoffset="37.19"><animate attributeName="stroke-dashoffset" values="37.19" fill="freeze" begin="61cd.click" /><animate attributeName="stroke-dashoffset" values="37.19;37.19;0" keyTimes="0;0.896;1" dur="3.593s" fill="freeze" begin="0s;61cd.click" /></path><path d="M77.79,56.5c0.09,0.24,0.2,0.62-0.19,0.96c-2.28,2.04-15.34,6.5-33.22,9.24" stroke-dasharray="35.718" stroke-dashoffset="35.718"><animate attributeName="stroke-dashoffset" values="35.718" fill="freeze" begin="61cd.click" /><animate attributeName="stroke-dashoffset" values="35.718;35.718;0" keyTimes="0;0.91;1" dur="3.95s" fill="freeze" begin="0s;61cd.click" /></path><path d="M38.07,74.08c0.57,0.22,2.86,0.8,4.37,0.66c6.84-0.66,37.07-3.29,48.66-3.9c1.52-0.08,3.42,0.26,4.37,0.48" stroke-dasharray="57.672" stroke-dashoffset="57.672"><animate attributeName="stroke-dashoffset" values="57.672" fill="freeze" begin="61cd.click" /><animate attributeName="stroke-dashoffset" values="57.672;57.672;0" keyTimes="0;0.873;1" dur="4.527s" fill="freeze" begin="0s;61cd.click" /></path><path d="M65.15,65.48c0.73,0.41,1.17,1.82,1.31,2.63s0,25.33-0.15,30.39" stroke-dasharray="33.406" stroke-dashoffset="33.406"><animate attributeName="stroke-dashoffset" values="33.406" fill="freeze" begin="61cd.click" /><animate attributeName="stroke-dashoffset" values="33.406;33.406;0" keyTimes="0;0.931;1" dur="4.861s" fill="freeze" begin="0s;61cd.click" /></path><path d="M64.25,73.01C57.43,82.46,49.4,90.64,36.5,95.56" stroke-dasharray="36.318" stroke-dashoffset="36.318"><animate attributeName="stroke-dashoffset" values="36.318" fill="freeze" begin="61cd.click" /><animate attributeName="stroke-dashoffset" values="36.318;36.318;0" keyTimes="0;0.931;1" dur="5.224s" fill="freeze" begin="0s;61cd.click" /></path><path d="M66.11,72.86C71.25,77.5,84,88.25,91.49,91.81c1.53,0.73,2.61,1.34,4.01,1.61" stroke-dasharray="36.086" stroke-dashoffset="36.086"><animate attributeName="stroke-dashoffset" values="36.086" fill="freeze" begin="61cd.click" /><animate attributeName="stroke-dashoffset" values="36.086;36.086;0" keyTimes="0;0.935;1" dur="5.585s" fill="freeze" begin="0s;61cd.click" /></path></g></svg>