<svg xmlns="http://www.w3.org/2000/svg" viewBox="0 0 109 109" id="6279"><g fill="none" stroke="#666" stroke-width="6" stroke-linecap="round" stroke-linejoin="round"><g><g><path d="M14.75,39.92c2.08,0.25,2.77,0.3,5,0c4.7-0.64,12.47-2.04,19.48-3.51c1.2-0.25,2.35-0.22,3.43-0.41" /><path d="M31.02,17.25c1.05,1.05,1.51,2.88,1.51,5.02c0,15.23-0.01,52.21-0.01,63.65c0,14.25-6.32,3.53-7.77,2" /><path d="M14.75,66.03c1.25,0.84,2.38,0.77,4.05-0.11c4.33-2.3,8.7-4.92,20.95-12.26" /></g><g p4:phon="比" xmlns:p4="http://kanjivg.tagaini.net"><g><path d="M52.73,48.56c5.15-1.31,7.37-1.84,10.78-2.62c1.37-0.31,2.85-0.3,3.36-0.12" /><path d="M50.12,23.58c0.9,0.9,1.29,2.17,1.29,3.84c0,4.17,0.03,47.08,0.03,53.28c0,3.05,1.75,3.46,3.53,2.14c4.67-3.47,6.67-5.34,9.76-7.6" /></g><g><path d="M94.56,33.44c-0.06,1.06-0.51,2.26-1.55,3.21C87.12,42,83,44.88,75.28,49.99" /><path d="M71.75,18c1.04,1.04,1.49,2.12,1.49,3.8c0,3.93-0.08,47.29-0.08,51.9c0,14.04,1.21,15.55,11.89,15.55c9.95,0,11.14-1.63,11.14-11.07" /></g></g></g></g><g fill="none" stroke="#000" stroke-width="3" stroke-linecap="round" stroke-linejoin="round"><path d="M14.75,39.92c2.08,0.25,2.77,0.3,5,0c4.7-0.64,12.47-2.04,19.48-3.51c1.2-0.25,2.35-0.22,3.43-0.41" stroke-dasharray="28.275" stroke-dashoffset="28.275"><animate attributeName="stroke-dashoffset" values="28.275;28.275;0" dur="0.283s" fill="freeze" begin="0s;6279.click" /></path><path d="M31.02,17.25c1.05,1.05,1.51,2.88,1.51,5.02c0,15.23-0.01,52.21-0.01,63.65c0,14.25-6.32,3.53-7.77,2" stroke-dasharray="85.054" stroke-dashoffset="85.054"><animate attributeName="stroke-dashoffset" values="85.054" fill="freeze" begin="6279.click" /><animate attributeName="stroke-dashoffset" values="85.054;85.054;0" keyTimes="0;0.307;1" dur="0.923s" fill="freeze" begin="0s;6279.click" /></path><path d="M14.75,66.03c1.25,0.84,2.38,0.77,4.05-0.11c4.33-2.3,8.7-4.92,20.95-12.26" stroke-dasharray="28.581" stroke-dashoffset="28.581"><animate attributeName="stroke-dashoffset" values="28.581" fill="freeze" begin="6279.click" /><animate attributeName="stroke-dashoffset" values="28.581;28.581;0" keyTimes="0;0.763;1" dur="1.209s" fill="freeze" begin="0s;6279.click" /></path><path d="M52.73,48.56c5.15-1.31,7.37-1.84,10.78-2.62c1.37-0.31,2.85-0.3,3.36-0.12" stroke-dasharray="14.484" stroke-dashoffset="14.484"><animate attributeName="stroke-dashoffset" values="14.484" fill="freeze" begin="6279.click" /><animate attributeName="stroke-dashoffset" values="14.484;14.484;0" keyTimes="0;0.807;1" dur="1.499s" fill="freeze" begin="0s;6279.click" /></path><path d="M50.12,23.58c0.9,0.9,1.29,2.17,1.29,3.84c0,4.17,0.03,47.08,0.03,53.28c0,3.05,1.75,3.46,3.53,2.14c4.67-3.47,6.67-5.34,9.76-7.6" stroke-dasharray="75.509" stroke-dashoffset="75.509"><animate attributeName="stroke-dashoffset" values="75.509" fill="freeze" begin="6279.click" /><animate attributeName="stroke-dashoffset" values="75.509;75.509;0" keyTimes="0;0.725;1" dur="2.067s" fill="freeze" begin="0s;6279.click" /></path><path d="M94.56,33.44c-0.06,1.06-0.51,2.26-1.55,3.21C87.12,42,83,44.88,75.28,49.99" stroke-dasharray="25.872" stroke-dashoffset="25.872"><animate attributeName="stroke-dashoffset" values="25.872" fill="freeze" begin="6279.click" /><animate attributeName="stroke-dashoffset" values="25.872;25.872;0" keyTimes="0;0.889;1" dur="2.326s" fill="freeze" begin="0s;6279.click" /></path><path d="M71.75,18c1.04,1.04,1.49,2.12,1.49,3.8c0,3.93-0.08,47.29-0.08,51.9c0,14.04,1.21,15.55,11.89,15.55c9.95,0,11.14-1.63,11.14-11.07" stroke-dasharray="99.3" stroke-dashoffset="99.3"><animate attributeName="stroke-dashoffset" values="99.3" fill="freeze" begin="6279.click" /><animate attributeName="stroke-dashoffset" values="99.3;99.3;0" keyTimes="0;0.757;1" dur="3.073s" fill="freeze" begin="0s;6279.click" /></path></g></svg>