<svg xmlns="http://www.w3.org/2000/svg" viewBox="0 0 109 109" id="62c5"><g fill="none" stroke="#666" stroke-width="6" stroke-linecap="round" stroke-linejoin="round"><g><g><path d="M13,38.42c2,0.46,3.58,0.27,5.62,0.08c5.95-0.57,13.4-2.12,20.91-3.21c1.33-0.19,2.71-0.28,3.88-0.28" /><path d="M29.27,15.25c1.12,1.12,1.51,2.75,1.51,5.27c0,15.23-0.01,54.46-0.01,65.9c0,14.25-6.32,3.53-7.77,2" /><path d="M13.75,68.88c1,0.88,2.5,1,4-0.12c4.82-3.61,11-8.5,23-17.25" /></g><g p4:phon="旦" xmlns:p4="http://kanjivg.tagaini.net"><g><path d="M52.06,23.16c0.76,0.76,1.26,1.92,1.26,3.41c0,2.87-0.04,30-0.07,41.68c-0.01,3.59-0.01,5.72-0.01,5.25" /><path d="M54.42,24.85c2.86-0.19,24.33-2.63,26.93-2.85c2.17-0.19,3.39,0.75,3.39,3.16c0,3.17-0.08,28.55-0.11,40.72c-0.01,2.58-0.01,4.57-0.01,5.62" /><path d="M54.67,46.64c5.45-0.39,24.61-2.11,28.98-2.11" /><path d="M54.42,70.1c9.96-1.1,20.58-2.35,28.9-2.74" /></g><g><path d="M41.8,88.81c2.82,0.57,5.33,0.26,7.7,0.07c12.75-1,29.49-1.98,40.88-2.27c2.44-0.06,4.93,0.06,7.32,0.64" /></g></g></g></g><g fill="none" stroke="#000" stroke-width="3" stroke-linecap="round" stroke-linejoin="round"><path d="M13,38.42c2,0.46,3.58,0.27,5.62,0.08c5.95-0.57,13.4-2.12,20.91-3.21c1.33-0.19,2.71-0.28,3.88-0.28" stroke-dasharray="30.702" stroke-dashoffset="30.702"><animate attributeName="stroke-dashoffset" values="30.702;30.702;0" dur="0.307s" fill="freeze" begin="0s;62c5.click" /></path><path d="M29.27,15.25c1.12,1.12,1.51,2.75,1.51,5.27c0,15.23-0.01,54.46-0.01,65.9c0,14.25-6.32,3.53-7.77,2" stroke-dasharray="87.563" stroke-dashoffset="87.563"><animate attributeName="stroke-dashoffset" values="87.563" fill="freeze" begin="62c5.click" /><animate attributeName="stroke-dashoffset" values="87.563;87.563;0" keyTimes="0;0.318;1" dur="0.965s" fill="freeze" begin="0s;62c5.click" /></path><path d="M13.75,68.88c1,0.88,2.5,1,4-0.12c4.82-3.61,11-8.5,23-17.25" stroke-dasharray="33.108" stroke-dashoffset="33.108"><animate attributeName="stroke-dashoffset" values="33.108" fill="freeze" begin="62c5.click" /><animate attributeName="stroke-dashoffset" values="33.108;33.108;0" keyTimes="0;0.745;1" dur="1.296s" fill="freeze" begin="0s;62c5.click" /></path><path d="M52.06,23.16c0.76,0.76,1.26,1.92,1.26,3.41c0,2.87-0.04,30-0.07,41.68c-0.01,3.59-0.01,5.72-0.01,5.25" stroke-dasharray="50.793" stroke-dashoffset="50.793"><animate attributeName="stroke-dashoffset" values="50.793" fill="freeze" begin="62c5.click" /><animate attributeName="stroke-dashoffset" values="50.793;50.793;0" keyTimes="0;0.718;1" dur="1.804s" fill="freeze" begin="0s;62c5.click" /></path><path d="M54.42,24.85c2.86-0.19,24.33-2.63,26.93-2.85c2.17-0.19,3.39,0.75,3.39,3.16c0,3.17-0.08,28.55-0.11,40.72c-0.01,2.58-0.01,4.57-0.01,5.62" stroke-dasharray="78.861" stroke-dashoffset="78.861"><animate attributeName="stroke-dashoffset" values="78.861" fill="freeze" begin="62c5.click" /><animate attributeName="stroke-dashoffset" values="78.861;78.861;0" keyTimes="0;0.753;1" dur="2.397s" fill="freeze" begin="0s;62c5.click" /></path><path d="M54.67,46.64c5.45-0.39,24.61-2.11,28.98-2.11" stroke-dasharray="29.061" stroke-dashoffset="29.061"><animate attributeName="stroke-dashoffset" values="29.061" fill="freeze" begin="62c5.click" /><animate attributeName="stroke-dashoffset" values="29.061;29.061;0" keyTimes="0;0.892;1" dur="2.688s" fill="freeze" begin="0s;62c5.click" /></path><path d="M54.42,70.1c9.96-1.1,20.58-2.35,28.9-2.74" stroke-dasharray="29.035" stroke-dashoffset="29.035"><animate attributeName="stroke-dashoffset" values="29.035" fill="freeze" begin="62c5.click" /><animate attributeName="stroke-dashoffset" values="29.035;29.035;0" keyTimes="0;0.903;1" dur="2.978s" fill="freeze" begin="0s;62c5.click" /></path><path d="M41.8,88.81c2.82,0.57,5.33,0.26,7.7,0.07c12.75-1,29.49-1.98,40.88-2.27c2.44-0.06,4.93,0.06,7.32,0.64" stroke-dasharray="56.048" stroke-dashoffset="56.048"><animate attributeName="stroke-dashoffset" values="56.048" fill="freeze" begin="62c5.click" /><animate attributeName="stroke-dashoffset" values="56.048;56.048;0" keyTimes="0;0.842;1" dur="3.538s" fill="freeze" begin="0s;62c5.click" /></path></g></svg>