<svg xmlns="http://www.w3.org/2000/svg" viewBox="0 0 109 109" id="62ed"><g fill="none" stroke="#666" stroke-width="6" stroke-linecap="round" stroke-linejoin="round"><g><g><path d="M14,36.75c2.19,0.26,4.13,0.43,6.38,0.05c4.32-0.73,9.6-2.25,15.72-3.21c1.16-0.18,2.15-0.22,3.56-0.26" /><path d="M29.27,12.33c1.2,1.2,1.51,2.54,1.51,4.52c0,14.56-0.01,65.69-0.01,70.65c0,14.25-6.32,3.53-7.77,2" /><path d="M12,64.83c1.5,0.8,2.5,0.8,4.43-0.41c1.67-1.04,14.29-9.11,21.32-14.17" /></g><g><g><path d="M45.75,37.94c3.62,0.81,6.59,0.41,9.88-0.28c7.99-1.38,19.62-3.16,29.5-4.07c2.69-0.46,5.36-0.38,8.02,0.24" /></g><g><path d="M44,54.63c1.77,0.2,3.52,0.02,5.28-0.27c4.47-0.74,7.56-1.52,12.35-2.05c1.94-0.33,3.89-0.42,5.84-0.25" /><path d="M54.79,55.87c0.79,0.79,0.96,1.63,0.96,2.62c0,4.36,0,11.88,0,16.78" /><path d="M42.5,80.83c1.1,1.23,2.73,1.26,3.77,0.73c7.98-4.06,9.26-4.89,21.33-11.03" /></g><g><path d="M69.54,12.25c1.23,1.23,2.05,2.75,2.19,5.45c1.39,26.43,4.77,60.8,21.6,76.57c3.71,3.48,4.67,4.98,4.32-6.94" /><g><path d="M83.07,15.49c3.06,1.68,7.27,5.78,8.7,8.67" /></g></g></g></g></g><g fill="none" stroke="#000" stroke-width="3" stroke-linecap="round" stroke-linejoin="round"><path d="M14,36.75c2.19,0.26,4.13,0.43,6.38,0.05c4.32-0.73,9.6-2.25,15.72-3.21c1.16-0.18,2.15-0.22,3.56-0.26" stroke-dasharray="26.025" stroke-dashoffset="26.025"><animate attributeName="stroke-dashoffset" values="26.025;26.025;0" dur="0.26s" fill="freeze" begin="0s;62ed.click" /></path><path d="M29.27,12.33c1.2,1.2,1.51,2.54,1.51,4.52c0,14.56-0.01,65.69-0.01,70.65c0,14.25-6.32,3.53-7.77,2" stroke-dasharray="91.595" stroke-dashoffset="91.595"><animate attributeName="stroke-dashoffset" values="91.595" fill="freeze" begin="62ed.click" /><animate attributeName="stroke-dashoffset" values="91.595;91.595;0" keyTimes="0;0.274;1" dur="0.949s" fill="freeze" begin="0s;62ed.click" /></path><path d="M12,64.83c1.5,0.8,2.5,0.8,4.43-0.41c1.67-1.04,14.29-9.11,21.32-14.17" stroke-dasharray="30.347" stroke-dashoffset="30.347"><animate attributeName="stroke-dashoffset" values="30.347" fill="freeze" begin="62ed.click" /><animate attributeName="stroke-dashoffset" values="30.347;30.347;0" keyTimes="0;0.758;1" dur="1.252s" fill="freeze" begin="0s;62ed.click" /></path><path d="M45.75,37.94c3.62,0.81,6.59,0.41,9.88-0.28c7.99-1.38,19.62-3.16,29.5-4.07c2.69-0.46,5.36-0.38,8.02,0.24" stroke-dasharray="47.835" stroke-dashoffset="47.835"><animate attributeName="stroke-dashoffset" values="47.835" fill="freeze" begin="62ed.click" /><animate attributeName="stroke-dashoffset" values="47.835;47.835;0" keyTimes="0;0.724;1" dur="1.73s" fill="freeze" begin="0s;62ed.click" /></path><path d="M44,54.63c1.77,0.2,3.52,0.02,5.28-0.27c4.47-0.74,7.56-1.52,12.35-2.05c1.94-0.33,3.89-0.42,5.84-0.25" stroke-dasharray="23.689" stroke-dashoffset="23.689"><animate attributeName="stroke-dashoffset" values="23.689" fill="freeze" begin="62ed.click" /><animate attributeName="stroke-dashoffset" values="23.689;23.689;0" keyTimes="0;0.88;1" dur="1.967s" fill="freeze" begin="0s;62ed.click" /></path><path d="M54.79,55.87c0.79,0.79,0.96,1.63,0.96,2.62c0,4.36,0,11.88,0,16.78" stroke-dasharray="19.657" stroke-dashoffset="19.657"><animate attributeName="stroke-dashoffset" values="19.657" fill="freeze" begin="62ed.click" /><animate attributeName="stroke-dashoffset" values="19.657;19.657;0" keyTimes="0;0.909;1" dur="2.164s" fill="freeze" begin="0s;62ed.click" /></path><path d="M42.5,80.83c1.1,1.23,2.73,1.26,3.77,0.73c7.98-4.06,9.26-4.89,21.33-11.03" stroke-dasharray="28.14" stroke-dashoffset="28.14"><animate attributeName="stroke-dashoffset" values="28.14" fill="freeze" begin="62ed.click" /><animate attributeName="stroke-dashoffset" values="28.14;28.14;0" keyTimes="0;0.885;1" dur="2.445s" fill="freeze" begin="0s;62ed.click" /></path><path d="M69.54,12.25c1.23,1.23,2.05,2.75,2.19,5.45c1.39,26.43,4.77,60.8,21.6,76.57c3.71,3.48,4.67,4.98,4.32-6.94" stroke-dasharray="101.293" stroke-dashoffset="101.293"><animate attributeName="stroke-dashoffset" values="101.293" fill="freeze" begin="62ed.click" /><animate attributeName="stroke-dashoffset" values="101.293;101.293;0" keyTimes="0;0.762;1" dur="3.207s" fill="freeze" begin="0s;62ed.click" /></path><path d="M83.07,15.49c3.06,1.68,7.27,5.78,8.7,8.67" stroke-dasharray="12.418" stroke-dashoffset="12.418"><animate attributeName="stroke-dashoffset" values="12.418" fill="freeze" begin="62ed.click" /><animate attributeName="stroke-dashoffset" values="12.418;12.418;0" keyTimes="0;0.928;1" dur="3.455s" fill="freeze" begin="0s;62ed.click" /></path></g></svg>