<svg xmlns="http://www.w3.org/2000/svg" viewBox="0 0 109 109" id="63cf"><g fill="none" stroke="#666" stroke-width="6" stroke-linecap="round" stroke-linejoin="round"><g><g><path d="M16.25,35.42c2.09,0.25,4.02,0.19,6.15-0.14c4.79-0.74,11.97-1.9,19.63-3.33c1.13-0.21,2.47-0.2,3.64-0.2" /><path d="M32.02,15.25c0.99,0.99,1.51,2.25,1.51,4.52c0,15.23-0.01,53.71-0.01,65.15c0,14.25-6.32,3.53-7.77,2" /><path d="M14.5,66.43c1.16,1.16,2.38,0.95,4.5-0.43c6-3.88,10.38-6.5,22-13.83" /></g><g p4:phon="苗" xmlns:p4="http://kanjivg.tagaini.net"><g><path d="M44.32,38.64c2.68,0.61,5.28,0.52,7.82,0.17c11.64-1.58,25.67-3.66,37.72-4.48c2.34-0.16,4.8-0.17,7.13,0.32" /><path d="M56.87,20.35c0.95,0.95,1.36,2.12,1.47,3.25c1.03,10.49,2.15,21.28,2.45,25.09" /><path d="M83.36,17.5c0.64,1,0.64,2.12,0.4,3.75c-1.55,10.74-2.26,15.5-4.17,26.7" /></g><g><path d="M50,55.01c0.74,0.74,1.25,1.75,1.44,3.29c1.05,8.32,2.02,17.92,2.74,28.69c0.14,2.03,0.26,4,0.38,5.83" /><path d="M52.6,57.69c11.32-1.58,27.1-3.04,35.29-3.85c3.41-0.34,5.86,0.33,5.5,4.18c-0.52,5.64-1.65,16.8-3.08,26.28c-0.31,2.05-0.63,4.02-0.97,5.84" /><path d="M70.41,57.78c0.84,0.84,1,1.79,1,2.82c0,7.9,0.01,21.04-0.03,27.03" /><path d="M54.12,73.13c11.63-1.5,28.25-3.25,37.05-3.8" /><path d="M55.59,90.26c8.16-0.75,22.95-2.24,32.97-2.6" /></g></g></g></g><g fill="none" stroke="#000" stroke-width="3" stroke-linecap="round" stroke-linejoin="round"><path d="M16.25,35.42c2.09,0.25,4.02,0.19,6.15-0.14c4.79-0.74,11.97-1.9,19.63-3.33c1.13-0.21,2.47-0.2,3.64-0.2" stroke-dasharray="29.735" stroke-dashoffset="29.735"><animate attributeName="stroke-dashoffset" values="29.735;29.735;0" dur="0.297s" fill="freeze" begin="0s;63cf.click" /></path><path d="M32.02,15.25c0.99,0.99,1.51,2.25,1.51,4.52c0,15.23-0.01,53.71-0.01,65.15c0,14.25-6.32,3.53-7.77,2" stroke-dasharray="86.088" stroke-dashoffset="86.088"><animate attributeName="stroke-dashoffset" values="86.088" fill="freeze" begin="63cf.click" /><animate attributeName="stroke-dashoffset" values="86.088;86.088;0" keyTimes="0;0.315;1" dur="0.944s" fill="freeze" begin="0s;63cf.click" /></path><path d="M14.5,66.43c1.16,1.16,2.38,0.95,4.5-0.43c6-3.88,10.38-6.5,22-13.83" stroke-dasharray="30.977" stroke-dashoffset="30.977"><animate attributeName="stroke-dashoffset" values="30.977" fill="freeze" begin="63cf.click" /><animate attributeName="stroke-dashoffset" values="30.977;30.977;0" keyTimes="0;0.753;1" dur="1.254s" fill="freeze" begin="0s;63cf.click" /></path><path d="M44.32,38.64c2.68,0.61,5.28,0.52,7.82,0.17c11.64-1.58,25.67-3.66,37.72-4.48c2.34-0.16,4.8-0.17,7.13,0.32" stroke-dasharray="53.019" stroke-dashoffset="53.019"><animate attributeName="stroke-dashoffset" values="53.019" fill="freeze" begin="63cf.click" /><animate attributeName="stroke-dashoffset" values="53.019;53.019;0" keyTimes="0;0.703;1" dur="1.784s" fill="freeze" begin="0s;63cf.click" /></path><path d="M56.87,20.35c0.95,0.95,1.36,2.12,1.47,3.25c1.03,10.49,2.15,21.28,2.45,25.09" stroke-dasharray="28.851" stroke-dashoffset="28.851"><animate attributeName="stroke-dashoffset" values="28.851" fill="freeze" begin="63cf.click" /><animate attributeName="stroke-dashoffset" values="28.851;28.851;0" keyTimes="0;0.861;1" dur="2.073s" fill="freeze" begin="0s;63cf.click" /></path><path d="M83.36,17.5c0.64,1,0.64,2.12,0.4,3.75c-1.55,10.74-2.26,15.5-4.17,26.7" stroke-dasharray="30.886" stroke-dashoffset="30.886"><animate attributeName="stroke-dashoffset" values="30.886" fill="freeze" begin="63cf.click" /><animate attributeName="stroke-dashoffset" values="30.886;30.886;0" keyTimes="0;0.87;1" dur="2.382s" fill="freeze" begin="0s;63cf.click" /></path><path d="M50,55.01c0.74,0.74,1.25,1.75,1.44,3.29c1.05,8.32,2.02,17.92,2.74,28.69c0.14,2.03,0.26,4,0.38,5.83" stroke-dasharray="38.33" stroke-dashoffset="38.33"><animate attributeName="stroke-dashoffset" values="38.33" fill="freeze" begin="63cf.click" /><animate attributeName="stroke-dashoffset" values="38.33;38.33;0" keyTimes="0;0.861;1" dur="2.765s" fill="freeze" begin="0s;63cf.click" /></path><path d="M52.6,57.69c11.32-1.58,27.1-3.04,35.29-3.85c3.41-0.34,5.86,0.33,5.5,4.18c-0.52,5.64-1.65,16.8-3.08,26.28c-0.31,2.05-0.63,4.02-0.97,5.84" stroke-dasharray="76.277" stroke-dashoffset="76.277"><animate attributeName="stroke-dashoffset" values="76.277" fill="freeze" begin="63cf.click" /><animate attributeName="stroke-dashoffset" values="76.277;76.277;0" keyTimes="0;0.828;1" dur="3.339s" fill="freeze" begin="0s;63cf.click" /></path><path d="M70.41,57.78c0.84,0.84,1,1.79,1,2.82c0,7.9,0.01,21.04-0.03,27.03" stroke-dasharray="30.113" stroke-dashoffset="30.113"><animate attributeName="stroke-dashoffset" values="30.113" fill="freeze" begin="63cf.click" /><animate attributeName="stroke-dashoffset" values="30.113;30.113;0" keyTimes="0;0.917;1" dur="3.64s" fill="freeze" begin="0s;63cf.click" /></path><path d="M54.12,73.13c11.63-1.5,28.25-3.25,37.05-3.8" stroke-dasharray="37.25" stroke-dashoffset="37.25"><animate attributeName="stroke-dashoffset" values="37.25" fill="freeze" begin="63cf.click" /><animate attributeName="stroke-dashoffset" values="37.25;37.25;0" keyTimes="0;0.907;1" dur="4.012s" fill="freeze" begin="0s;63cf.click" /></path><path d="M55.59,90.26c8.16-0.75,22.95-2.24,32.97-2.6" stroke-dasharray="33.077" stroke-dashoffset="33.077"><animate attributeName="stroke-dashoffset" values="33.077" fill="freeze" begin="63cf.click" /><animate attributeName="stroke-dashoffset" values="33.077;33.077;0" keyTimes="0;0.924;1" dur="4.343s" fill="freeze" begin="0s;63cf.click" /></path></g></svg>