<svg xmlns="http://www.w3.org/2000/svg" viewBox="0 0 109 109" id="64a5"><g fill="none" stroke="#666" stroke-width="6" stroke-linecap="round" stroke-linejoin="round"><g><g><path d="M10.5,38.42c2.08,0.25,1.27,0.55,3.5,0.25c5.5-0.75,14.5-2,23.67-3.17" /><path d="M25.27,14c0.48,0.92,1.76,2.49,1.76,5.52c0,15.23,0.24,54.96,0.24,66.4c0,14.25-6.32,3.53-7.77,2" /><path d="M10.5,66.22c1.25,0.78,2.11,1.06,3.9-0.14c1.06-0.71,17.36-14.26,21.85-17.67" /></g><g><g><g><path d="M44.51,17.15c0.97,0.6,1.34,0.49,2.9,0.2c4.07-0.75,8.1-1.42,12.44-2.38c2.58-0.57,3.45,0.74,2.27,3.77C57.28,31.17,49.65,42.68,37.5,51.75" /><path d="M41.84,26.98c2.93,1.19,7.57,4.9,8.3,6.75" /></g><g><path d="M81.58,14.14c0.02,0.22,0.14,0.6-0.04,0.88c-1.22,1.86-3.65,5.91-7.9,8.4" /><path d="M63.48,17.71c3,1.84,21.26,21.75,28.3,26.21c1.7,1.08,2.91,1.88,4.47,2.26" /><path d="M90.69,23.2c0.03,0.22,0.11,0.58-0.05,0.87c-1.21,2.19-3.88,5.19-9.03,8.29" /></g></g><g><g><path d="M47.87,46.49c0.58,0.88,1.12,1.14,1.86,0.98c0.74-0.16,7.61-2.28,9.09-2.77c1.48-0.49,1.89,1.17,1.44,2.47c-0.44,1.3-3.44,10.02-3.61,11.92" /><path d="M45,60.75c1.75,0,9-1.5,10.25-1.5s2.5-0.5,3.5-0.5" /><path d="M44.18,59.22c0.44,0.65,0.37,2.42,0.09,3.45c-0.33,1.18-3.29,9.31-3.44,9.96c-0.15,0.65,0.06,2.72,1.18,1.95c0.85-0.58,9.27-1.94,11.63-2.43c2.36-0.49,2.88,0.61,2.84,2.94c-0.09,6.12-2.57,14.58-6.24,19.67c-3.25,4.5-5,1.75-6.24-1.29" /></g><g><g><g><path d="M68.3,44.8c0.36,0.86,0.49,1.54,0.47,2.15c-0.15,6.31-1.41,13.42-5.39,16.23" /></g><path d="M69.17,45.92c1.35,0.18,8.4-1.72,9.31-2.09c1.35-0.55,2.03,1.18,1.89,2.4c-0.27,2.4-0.31,6.46-0.31,8.85c0,3.92,2.08,5.72,6.53,5.72c4.32,0,5.75-1.8,5.75-5.7" /></g><g><path d="M66.07,69.47c1.12,0.27,1.26,0.68,3.51,0.27c2.25-0.41,14.36-2.67,15.91-3.08c1.54-0.41,2.95,1.68,2.1,3.01C78.75,83.5,70.5,91.75,57.84,99.42" /><path d="M65.11,75.06c2.82,0.54,16.61,15.12,26.44,21.1c1.53,0.93,2.65,1.55,4.07,1.86" /></g></g></g></g></g></g><g fill="none" stroke="#000" stroke-width="3" stroke-linecap="round" stroke-linejoin="round"><path d="M10.5,38.42c2.08,0.25,1.27,0.55,3.5,0.25c5.5-0.75,14.5-2,23.67-3.17" stroke-dasharray="27.426" stroke-dashoffset="27.426"><animate attributeName="stroke-dashoffset" values="27.426;27.426;0" dur="0.274s" fill="freeze" begin="0s;64a5.click" /></path><path d="M25.27,14c0.48,0.92,1.76,2.49,1.76,5.52c0,15.23,0.24,54.96,0.24,66.4c0,14.25-6.32,3.53-7.77,2" stroke-dasharray="88.316" stroke-dashoffset="88.316"><animate attributeName="stroke-dashoffset" values="88.316" fill="freeze" begin="64a5.click" /><animate attributeName="stroke-dashoffset" values="88.316;88.316;0" keyTimes="0;0.292;1" dur="0.938s" fill="freeze" begin="0s;64a5.click" /></path><path d="M10.5,66.22c1.25,0.78,2.11,1.06,3.9-0.14c1.06-0.71,17.36-14.26,21.85-17.67" stroke-dasharray="32.336" stroke-dashoffset="32.336"><animate attributeName="stroke-dashoffset" values="32.336" fill="freeze" begin="64a5.click" /><animate attributeName="stroke-dashoffset" values="32.336;32.336;0" keyTimes="0;0.744;1" dur="1.261s" fill="freeze" begin="0s;64a5.click" /></path><path d="M44.51,17.15c0.97,0.6,1.34,0.49,2.9,0.2c4.07-0.75,8.1-1.42,12.44-2.38c2.58-0.57,3.45,0.74,2.27,3.77C57.28,31.17,49.65,42.68,37.5,51.75" stroke-dasharray="63.54" stroke-dashoffset="63.54"><animate attributeName="stroke-dashoffset" values="63.54" fill="freeze" begin="64a5.click" /><animate attributeName="stroke-dashoffset" values="63.54;63.54;0" keyTimes="0;0.725;1" dur="1.739s" fill="freeze" begin="0s;64a5.click" /></path><path d="M41.84,26.98c2.93,1.19,7.57,4.9,8.3,6.75" stroke-dasharray="10.851" stroke-dashoffset="10.851"><animate attributeName="stroke-dashoffset" values="10.851" fill="freeze" begin="64a5.click" /><animate attributeName="stroke-dashoffset" values="10.851;10.851;0" keyTimes="0;0.889;1" dur="1.956s" fill="freeze" begin="0s;64a5.click" /></path><path d="M81.58,14.14c0.02,0.22,0.14,0.6-0.04,0.88c-1.22,1.86-3.65,5.91-7.9,8.4" stroke-dasharray="12.55" stroke-dashoffset="12.55"><animate attributeName="stroke-dashoffset" values="12.55" fill="freeze" begin="64a5.click" /><animate attributeName="stroke-dashoffset" values="12.55;12.55;0" keyTimes="0;0.886;1" dur="2.207s" fill="freeze" begin="0s;64a5.click" /></path><path d="M63.48,17.71c3,1.84,21.26,21.75,28.3,26.21c1.7,1.08,2.91,1.88,4.47,2.26" stroke-dasharray="43.65" stroke-dashoffset="43.65"><animate attributeName="stroke-dashoffset" values="43.65" fill="freeze" begin="64a5.click" /><animate attributeName="stroke-dashoffset" values="43.65;43.65;0" keyTimes="0;0.835;1" dur="2.644s" fill="freeze" begin="0s;64a5.click" /></path><path d="M90.69,23.2c0.03,0.22,0.11,0.58-0.05,0.87c-1.21,2.19-3.88,5.19-9.03,8.29" stroke-dasharray="13.276" stroke-dashoffset="13.276"><animate attributeName="stroke-dashoffset" values="13.276" fill="freeze" begin="64a5.click" /><animate attributeName="stroke-dashoffset" values="13.276;13.276;0" keyTimes="0;0.909;1" dur="2.91s" fill="freeze" begin="0s;64a5.click" /></path><path d="M47.87,46.49c0.58,0.88,1.12,1.14,1.86,0.98c0.74-0.16,7.61-2.28,9.09-2.77c1.48-0.49,1.89,1.17,1.44,2.47c-0.44,1.3-3.44,10.02-3.61,11.92" stroke-dasharray="27.914" stroke-dashoffset="27.914"><animate attributeName="stroke-dashoffset" values="27.914" fill="freeze" begin="64a5.click" /><animate attributeName="stroke-dashoffset" values="27.914;27.914;0" keyTimes="0;0.913;1" dur="3.189s" fill="freeze" begin="0s;64a5.click" /></path><path d="M45,60.75c1.75,0,9-1.5,10.25-1.5s2.5-0.5,3.5-0.5" stroke-dasharray="13.908" stroke-dashoffset="13.908"><animate attributeName="stroke-dashoffset" values="13.908" fill="freeze" begin="64a5.click" /><animate attributeName="stroke-dashoffset" values="13.908;13.908;0" keyTimes="0;0.92;1" dur="3.467s" fill="freeze" begin="0s;64a5.click" /></path><path d="M44.18,59.22c0.44,0.65,0.37,2.42,0.09,3.45c-0.33,1.18-3.29,9.31-3.44,9.96c-0.15,0.65,0.06,2.72,1.18,1.95c0.85-0.58,9.27-1.94,11.63-2.43c2.36-0.49,2.88,0.61,2.84,2.94c-0.09,6.12-2.57,14.58-6.24,19.67c-3.25,4.5-5,1.75-6.24-1.29" stroke-dasharray="64.025" stroke-dashoffset="64.025"><animate attributeName="stroke-dashoffset" values="64.025" fill="freeze" begin="64a5.click" /><animate attributeName="stroke-dashoffset" values="64.025;64.025;0" keyTimes="0;0.878;1" dur="3.948s" fill="freeze" begin="0s;64a5.click" /></path><path d="M68.3,44.8c0.36,0.86,0.49,1.54,0.47,2.15c-0.15,6.31-1.41,13.42-5.39,16.23" stroke-dasharray="19.865" stroke-dashoffset="19.865"><animate attributeName="stroke-dashoffset" values="19.865" fill="freeze" begin="64a5.click" /><animate attributeName="stroke-dashoffset" values="19.865;19.865;0" keyTimes="0;0.952;1" dur="4.147s" fill="freeze" begin="0s;64a5.click" /></path><path d="M69.17,45.92c1.35,0.18,8.4-1.72,9.31-2.09c1.35-0.55,2.03,1.18,1.89,2.4c-0.27,2.4-0.31,6.46-0.31,8.85c0,3.92,2.08,5.72,6.53,5.72c4.32,0,5.75-1.8,5.75-5.7" stroke-dasharray="41.561" stroke-dashoffset="41.561"><animate attributeName="stroke-dashoffset" values="41.561" fill="freeze" begin="64a5.click" /><animate attributeName="stroke-dashoffset" values="41.561;41.561;0" keyTimes="0;0.909;1" dur="4.563s" fill="freeze" begin="0s;64a5.click" /></path><path d="M66.07,69.47c1.12,0.27,1.26,0.68,3.51,0.27c2.25-0.41,14.36-2.67,15.91-3.08c1.54-0.41,2.95,1.68,2.1,3.01C78.75,83.5,70.5,91.75,57.84,99.42" stroke-dasharray="66.847" stroke-dashoffset="66.847"><animate attributeName="stroke-dashoffset" values="66.847" fill="freeze" begin="64a5.click" /><animate attributeName="stroke-dashoffset" values="66.847;66.847;0" keyTimes="0;0.901;1" dur="5.066s" fill="freeze" begin="0s;64a5.click" /></path><path d="M65.11,75.06c2.82,0.54,16.61,15.12,26.44,21.1c1.53,0.93,2.65,1.55,4.07,1.86" stroke-dasharray="38.401" stroke-dashoffset="38.401"><animate attributeName="stroke-dashoffset" values="38.401" fill="freeze" begin="64a5.click" /><animate attributeName="stroke-dashoffset" values="38.401;38.401;0" keyTimes="0;0.93;1" dur="5.45s" fill="freeze" begin="0s;64a5.click" /></path></g></svg>