<svg xmlns="http://www.w3.org/2000/svg" viewBox="0 0 109 109" id="6583"><g fill="none" stroke="#666" stroke-width="6" stroke-linecap="round" stroke-linejoin="round"><g><g><g><g><path d="M34.43,9c0.39,0.3,1.22,2.21,1.3,2.8c0.08,0.59-0.05,13.8-0.13,17.5" /><path d="M26.02,14.16c0.04,0.39,0.08,1-0.07,1.56c-0.9,3.29-6.07,10.5-13.13,14.92" /><path d="M43.77,12.94c3.9,1.62,10.07,6.64,11.04,9.16" /></g><g><path d="M18.9,29.38c0.36,0.3,1.13,2.27,1.2,2.88c0.07,0.61-0.05,19.95-0.12,23.74" /><path d="M20.06,30.81c2.56-0.25,27.64-3.52,29.55-3.67c2.24-0.18,2.69,1.8,2.64,3.39c-0.29,9.81-0.27,12.87-1.13,20.77c-0.62,5.74-3.86,1.28-4.94-0.67" /></g><g><path d="M35.71,33.41c0.05,0.26,0.73,1.37,0.79,3.04c0.25,8.02-0.16,14.12-0.16,16.86" /><path d="M30.48,37.25c0.02,0.29,0.03,0.74-0.03,1.15c-0.36,2.43-2.4,7.76-5.2,11.02" /><path d="M41.96,36.44c1.69,1.44,4.37,5.91,4.79,8.15" /></g></g><g><g><path d="M69.31,11.25c0.03,0.52,0.16,1.35-0.06,2.07c-1.6,5.21-5.21,14.05-10.75,20.34" /><path d="M67.52,25.09c0.79,0.26,2.26,0,2.69-0.04c4.43-0.42,11.32-3.12,18.09-3.79c0.76-0.08,1.23-0.02,1.42,0.07" /></g><g><g><path d="M81.3,25.75c0.36,0.67,0.24,1.77-0.31,2.91c-5.6,11.71-9.76,18.67-21.7,25.91" /></g><path d="M61.98,31.07c1.17,0,1.86,0.54,2.79,1.26c6.29,4.94,17.85,14.5,26.25,19.19c1.55,0.86,3.18,1.44,4.48,1.52" /></g></g></g><g><g><g><path d="M17,62.96c1.22,0.27,3.45,0.37,4.66,0.27c19.52-1.49,54.46-4.08,66.33-4.25c2.03-0.03,3.25,0.13,4.26,0.27" /></g><g><path d="M40.34,63.88c0.24,0.32,0.03,1.96-0.22,2.6C38.59,70.27,29.96,77.77,18,82.85" /><path d="M36.56,72.52c0.28,0.02,1.46,0,2.26-0.07c2.61-0.21,8.46-0.87,11.94-1.69c2.5-0.59,3.99,0.26,3.14,1.77C50.06,79.3,32.74,96,16.75,99.51" /><path d="M29.39,78.22c2.53,1.44,6.54,5.91,7.17,8.15" /></g></g><g><path d="M87.16,67.47c0.16,0.22,0.15,0.81-0.15,1.19c-2.49,3.12-10.93,8.16-20.49,10.37" /><path d="M62.9,63.03c1.1,1.22,0.93,2.92,0.93,4.12c0,1.11,0.25,20.01,0.22,23.43C64,98.4,69.25,98,80.55,98c11.45,0,13.18-1.5,13.18-9.68" /></g></g></g></g><g fill="none" stroke="#000" stroke-width="3" stroke-linecap="round" stroke-linejoin="round"><path d="M34.43,9c0.39,0.3,1.22,2.21,1.3,2.8c0.08,0.59-0.05,13.8-0.13,17.5" stroke-dasharray="20.616" stroke-dashoffset="20.616"><animate attributeName="stroke-dashoffset" values="20.616;20.616;0" dur="0.206s" fill="freeze" begin="0s;6583.click" /></path><path d="M26.02,14.16c0.04,0.39,0.08,1-0.07,1.56c-0.9,3.29-6.07,10.5-13.13,14.92" stroke-dasharray="21.763" stroke-dashoffset="21.763"><animate attributeName="stroke-dashoffset" values="21.763" fill="freeze" begin="6583.click" /><animate attributeName="stroke-dashoffset" values="21.763;21.763;0" keyTimes="0;0.486;1" dur="0.424s" fill="freeze" begin="0s;6583.click" /></path><path d="M43.77,12.94c3.9,1.62,10.07,6.64,11.04,9.16" stroke-dasharray="14.552" stroke-dashoffset="14.552"><animate attributeName="stroke-dashoffset" values="14.552" fill="freeze" begin="6583.click" /><animate attributeName="stroke-dashoffset" values="14.552;14.552;0" keyTimes="0;0.593;1" dur="0.715s" fill="freeze" begin="0s;6583.click" /></path><path d="M18.9,29.38c0.36,0.3,1.13,2.27,1.2,2.88c0.07,0.61-0.05,19.95-0.12,23.74" stroke-dasharray="26.887" stroke-dashoffset="26.887"><animate attributeName="stroke-dashoffset" values="26.887" fill="freeze" begin="6583.click" /><animate attributeName="stroke-dashoffset" values="26.887;26.887;0" keyTimes="0;0.727;1" dur="0.984s" fill="freeze" begin="0s;6583.click" /></path><path d="M20.06,30.81c2.56-0.25,27.64-3.52,29.55-3.67c2.24-0.18,2.69,1.8,2.64,3.39c-0.29,9.81-0.27,12.87-1.13,20.77c-0.62,5.74-3.86,1.28-4.94-0.67" stroke-dasharray="64.102" stroke-dashoffset="64.102"><animate attributeName="stroke-dashoffset" values="64.102" fill="freeze" begin="6583.click" /><animate attributeName="stroke-dashoffset" values="64.102;64.102;0" keyTimes="0;0.671;1" dur="1.466s" fill="freeze" begin="0s;6583.click" /></path><path d="M35.71,33.41c0.05,0.26,0.73,1.37,0.79,3.04c0.25,8.02-0.16,14.12-0.16,16.86" stroke-dasharray="20.027" stroke-dashoffset="20.027"><animate attributeName="stroke-dashoffset" values="20.027" fill="freeze" begin="6583.click" /><animate attributeName="stroke-dashoffset" values="20.027;20.027;0" keyTimes="0;0.88;1" dur="1.666s" fill="freeze" begin="0s;6583.click" /></path><path d="M30.48,37.25c0.02,0.29,0.03,0.74-0.03,1.15c-0.36,2.43-2.4,7.76-5.2,11.02" stroke-dasharray="13.455" stroke-dashoffset="13.455"><animate attributeName="stroke-dashoffset" values="13.455" fill="freeze" begin="6583.click" /><animate attributeName="stroke-dashoffset" values="13.455;13.455;0" keyTimes="0;0.861;1" dur="1.935s" fill="freeze" begin="0s;6583.click" /></path><path d="M41.96,36.44c1.69,1.44,4.37,5.91,4.79,8.15" stroke-dasharray="9.558" stroke-dashoffset="9.558"><animate attributeName="stroke-dashoffset" values="9.558" fill="freeze" begin="6583.click" /><animate attributeName="stroke-dashoffset" values="9.558;9.558;0" keyTimes="0;0.91;1" dur="2.126s" fill="freeze" begin="0s;6583.click" /></path><path d="M69.31,11.25c0.03,0.52,0.16,1.35-0.06,2.07c-1.6,5.21-5.21,14.05-10.75,20.34" stroke-dasharray="25.247" stroke-dashoffset="25.247"><animate attributeName="stroke-dashoffset" values="25.247" fill="freeze" begin="6583.click" /><animate attributeName="stroke-dashoffset" values="25.247;25.247;0" keyTimes="0;0.894;1" dur="2.378s" fill="freeze" begin="0s;6583.click" /></path><path d="M67.52,25.09c0.79,0.26,2.26,0,2.69-0.04c4.43-0.42,11.32-3.12,18.09-3.79c0.76-0.08,1.23-0.02,1.42,0.07" stroke-dasharray="22.646" stroke-dashoffset="22.646"><animate attributeName="stroke-dashoffset" values="22.646" fill="freeze" begin="6583.click" /><animate attributeName="stroke-dashoffset" values="22.646;22.646;0" keyTimes="0;0.913;1" dur="2.604s" fill="freeze" begin="0s;6583.click" /></path><path d="M81.3,25.75c0.36,0.67,0.24,1.77-0.31,2.91c-5.6,11.71-9.76,18.67-21.7,25.91" stroke-dasharray="37.45" stroke-dashoffset="37.45"><animate attributeName="stroke-dashoffset" values="37.45" fill="freeze" begin="6583.click" /><animate attributeName="stroke-dashoffset" values="37.45;37.45;0" keyTimes="0;0.874;1" dur="2.979s" fill="freeze" begin="0s;6583.click" /></path><path d="M61.98,31.07c1.17,0,1.86,0.54,2.79,1.26c6.29,4.94,17.85,14.5,26.25,19.19c1.55,0.86,3.18,1.44,4.48,1.52" stroke-dasharray="40.446" stroke-dashoffset="40.446"><animate attributeName="stroke-dashoffset" values="40.446" fill="freeze" begin="6583.click" /><animate attributeName="stroke-dashoffset" values="40.446;40.446;0" keyTimes="0;0.881;1" dur="3.383s" fill="freeze" begin="0s;6583.click" /></path><path d="M17,62.96c1.22,0.27,3.45,0.37,4.66,0.27c19.52-1.49,54.46-4.08,66.33-4.25c2.03-0.03,3.25,0.13,4.26,0.27" stroke-dasharray="75.426" stroke-dashoffset="75.426"><animate attributeName="stroke-dashoffset" values="75.426" fill="freeze" begin="6583.click" /><animate attributeName="stroke-dashoffset" values="75.426;75.426;0" keyTimes="0;0.856;1" dur="3.95s" fill="freeze" begin="0s;6583.click" /></path><path d="M40.34,63.88c0.24,0.32,0.03,1.96-0.22,2.6C38.59,70.27,29.96,77.77,18,82.85" stroke-dasharray="30.598" stroke-dashoffset="30.598"><animate attributeName="stroke-dashoffset" values="30.598" fill="freeze" begin="6583.click" /><animate attributeName="stroke-dashoffset" values="30.598;30.598;0" keyTimes="0;0.928;1" dur="4.256s" fill="freeze" begin="0s;6583.click" /></path><path d="M36.56,72.52c0.28,0.02,1.46,0,2.26-0.07c2.61-0.21,8.46-0.87,11.94-1.69c2.5-0.59,3.99,0.26,3.14,1.77C50.06,79.3,32.74,96,16.75,99.51" stroke-dasharray="65.96" stroke-dashoffset="65.96"><animate attributeName="stroke-dashoffset" values="65.96" fill="freeze" begin="6583.click" /><animate attributeName="stroke-dashoffset" values="65.96;65.96;0" keyTimes="0;0.896;1" dur="4.752s" fill="freeze" begin="0s;6583.click" /></path><path d="M29.39,78.22c2.53,1.44,6.54,5.91,7.17,8.15" stroke-dasharray="11.01" stroke-dashoffset="11.01"><animate attributeName="stroke-dashoffset" values="11.01" fill="freeze" begin="6583.click" /><animate attributeName="stroke-dashoffset" values="11.01;11.01;0" keyTimes="0;0.956;1" dur="4.972s" fill="freeze" begin="0s;6583.click" /></path><path d="M87.16,67.47c0.16,0.22,0.15,0.81-0.15,1.19c-2.49,3.12-10.93,8.16-20.49,10.37" stroke-dasharray="24.523" stroke-dashoffset="24.523"><animate attributeName="stroke-dashoffset" values="24.523" fill="freeze" begin="6583.click" /><animate attributeName="stroke-dashoffset" values="24.523;24.523;0" keyTimes="0;0.953;1" dur="5.217s" fill="freeze" begin="0s;6583.click" /></path><path d="M62.9,63.03c1.1,1.22,0.93,2.92,0.93,4.12c0,1.11,0.25,20.01,0.22,23.43C64,98.4,69.25,98,80.55,98c11.45,0,13.18-1.5,13.18-9.68" stroke-dasharray="68.504" stroke-dashoffset="68.504"><animate attributeName="stroke-dashoffset" values="68.504" fill="freeze" begin="6583.click" /><animate attributeName="stroke-dashoffset" values="68.504;68.504;0" keyTimes="0;0.91;1" dur="5.732s" fill="freeze" begin="0s;6583.click" /></path></g></svg>