<svg xmlns="http://www.w3.org/2000/svg" viewBox="0 0 109 109" id="6588"><g fill="none" stroke="#666" stroke-width="6" stroke-linecap="round" stroke-linejoin="round"><g><g><g><path d="M52.12,8c0.84,0.36,2.23,1.74,2.23,2.46c0,2.82-0.02,7.58-0.11,9.61" /><path d="M18,22.54c1.27,0.07,3.66,0.39,4.9,0.35c10.35-0.33,49.98-4.62,63.53-4.81c2.09-0.03,3.16,0.03,4.72,0.45" /></g><g><path d="M64.85,22.23c0.15,1.27,0.02,2.49-1.16,3.74C52.5,37.75,35.25,50,11,57" /><path d="M36.5,27.08c14.24,6.05,34.59,17.47,51.48,23.78c3.18,1.19,5.52,1.17,8.27,1.27" /></g></g><g><path d="M38.28,52.98c0.88,0.23,2.56,0.6,3.89,0.39c1.63-0.25,21.8-3.07,23.35-3.07s3.23,0.69,1.68,2.08c-1.55,1.38-8.67,7.27-12.6,9.78" /><path d="M52.39,62.65C58.25,69.75,61,81,57.42,95.5c-1.87,7.56-5.67,5.5-9.48,0.53" /><path d="M19.94,73.77c1.3,0.65,4.66,0.87,7,0.71c8.17-0.56,48.16-6.24,58.04-5.67c2.33,0.14,4.41,0.22,5.96,0.87" /></g></g></g><g fill="none" stroke="#000" stroke-width="3" stroke-linecap="round" stroke-linejoin="round"><path d="M52.12,8c0.84,0.36,2.23,1.74,2.23,2.46c0,2.82-0.02,7.58-0.11,9.61" stroke-dasharray="13.035" stroke-dashoffset="13.035"><animate attributeName="stroke-dashoffset" values="13.035;13.035;0" dur="0.261s" fill="freeze" begin="0s;6588.click" /></path><path d="M18,22.54c1.27,0.07,3.66,0.39,4.9,0.35c10.35-0.33,49.98-4.62,63.53-4.81c2.09-0.03,3.16,0.03,4.72,0.45" stroke-dasharray="73.396" stroke-dashoffset="73.396"><animate attributeName="stroke-dashoffset" values="73.396" fill="freeze" begin="6588.click" /><animate attributeName="stroke-dashoffset" values="73.396;73.396;0" keyTimes="0;0.321;1" dur="0.813s" fill="freeze" begin="0s;6588.click" /></path><path d="M64.85,22.23c0.15,1.27,0.02,2.49-1.16,3.74C52.5,37.75,35.25,50,11,57" stroke-dasharray="65.932" stroke-dashoffset="65.932"><animate attributeName="stroke-dashoffset" values="65.932" fill="freeze" begin="6588.click" /><animate attributeName="stroke-dashoffset" values="65.932;65.932;0" keyTimes="0;0.621;1" dur="1.309s" fill="freeze" begin="0s;6588.click" /></path><path d="M36.5,27.08c14.24,6.05,34.59,17.47,51.48,23.78c3.18,1.19,5.52,1.17,8.27,1.27" stroke-dasharray="65.14" stroke-dashoffset="65.14"><animate attributeName="stroke-dashoffset" values="65.14" fill="freeze" begin="6588.click" /><animate attributeName="stroke-dashoffset" values="65.14;65.14;0" keyTimes="0;0.728;1" dur="1.799s" fill="freeze" begin="0s;6588.click" /></path><path d="M38.28,52.98c0.88,0.23,2.56,0.6,3.89,0.39c1.63-0.25,21.8-3.07,23.35-3.07s3.23,0.69,1.68,2.08c-1.55,1.38-8.67,7.27-12.6,9.78" stroke-dasharray="47.415" stroke-dashoffset="47.415"><animate attributeName="stroke-dashoffset" values="47.415" fill="freeze" begin="6588.click" /><animate attributeName="stroke-dashoffset" values="47.415;47.415;0" keyTimes="0;0.791;1" dur="2.273s" fill="freeze" begin="0s;6588.click" /></path><path d="M52.39,62.65C58.25,69.75,61,81,57.42,95.5c-1.87,7.56-5.67,5.5-9.48,0.53" stroke-dasharray="48.63" stroke-dashoffset="48.63"><animate attributeName="stroke-dashoffset" values="48.63" fill="freeze" begin="6588.click" /><animate attributeName="stroke-dashoffset" values="48.63;48.63;0" keyTimes="0;0.824;1" dur="2.759s" fill="freeze" begin="0s;6588.click" /></path><path d="M19.94,73.77c1.3,0.65,4.66,0.87,7,0.71c8.17-0.56,48.16-6.24,58.04-5.67c2.33,0.14,4.41,0.22,5.96,0.87" stroke-dasharray="71.485" stroke-dashoffset="71.485"><animate attributeName="stroke-dashoffset" values="71.485" fill="freeze" begin="6588.click" /><animate attributeName="stroke-dashoffset" values="71.485;71.485;0" keyTimes="0;0.837;1" dur="3.296s" fill="freeze" begin="0s;6588.click" /></path></g></svg>