<svg xmlns="http://www.w3.org/2000/svg" viewBox="0 0 109 109" id="65bc"><g fill="none" stroke="#666" stroke-width="6" stroke-linecap="round" stroke-linejoin="round"><g><g><g><path d="M34.53,15c1.17,1.17,1.41,2.64,1.41,3.72c0,3.98-0.13,9.03-0.13,14.35" /><path d="M17.47,34.85c1.69,0.7,4.13,0.63,5.91,0.41c7.25-0.9,16.67-2.56,25.68-4.18c1.26-0.23,2.61-0.56,3.64-0.15" /></g><g><path d="M33.52,45.23c2.23,0.77,4.67,1.47,8.05,2.25c1.18,0.27,2.07,2.04,1.86,3.51C41.75,62.5,36.75,77.75,30.61,85.8c-3.77,4.94-6.21-0.19-7.32-0.86" /><path d="M33.71,37.26c0.29,1.13,0.23,2.39-0.11,3.66c-2.39,8.73-8.84,24.33-19.58,34.64" /></g></g><g><path d="M68.31,15.75c0.05,0.76,0.21,1.99-0.09,3.05C66.25,25.75,60.25,38.75,52,48" /><path d="M68.25,20.25c4,4.62,14.66,17.05,20.95,23.54c2.08,2.15,4.17,3.92,6.55,5.71" /><g><g><path d="M62.27,52.58c5.98,2.92,13.23,8.79,16.54,13.88" /></g><g><path d="M57.27,76.08c9.1,3.24,21.86,12.29,25.54,18.13" /></g></g></g></g></g><g fill="none" stroke="#000" stroke-width="3" stroke-linecap="round" stroke-linejoin="round"><path d="M34.53,15c1.17,1.17,1.41,2.64,1.41,3.72c0,3.98-0.13,9.03-0.13,14.35" stroke-dasharray="18.439" stroke-dashoffset="18.439"><animate attributeName="stroke-dashoffset" values="18.439;18.439;0" dur="0.184s" fill="freeze" begin="0s;65bc.click" /></path><path d="M17.47,34.85c1.69,0.7,4.13,0.63,5.91,0.41c7.25-0.9,16.67-2.56,25.68-4.18c1.26-0.23,2.61-0.56,3.64-0.15" stroke-dasharray="35.695" stroke-dashoffset="35.695"><animate attributeName="stroke-dashoffset" values="35.695" fill="freeze" begin="65bc.click" /><animate attributeName="stroke-dashoffset" values="35.695;35.695;0" keyTimes="0;0.34;1" dur="0.541s" fill="freeze" begin="0s;65bc.click" /></path><path d="M33.52,45.23c2.23,0.77,4.67,1.47,8.05,2.25c1.18,0.27,2.07,2.04,1.86,3.51C41.75,62.5,36.75,77.75,30.61,85.8c-3.77,4.94-6.21-0.19-7.32-0.86" stroke-dasharray="59.275" stroke-dashoffset="59.275"><animate attributeName="stroke-dashoffset" values="59.275" fill="freeze" begin="65bc.click" /><animate attributeName="stroke-dashoffset" values="59.275;59.275;0" keyTimes="0;0.477;1" dur="1.134s" fill="freeze" begin="0s;65bc.click" /></path><path d="M33.71,37.26c0.29,1.13,0.23,2.39-0.11,3.66c-2.39,8.73-8.84,24.33-19.58,34.64" stroke-dasharray="43.922" stroke-dashoffset="43.922"><animate attributeName="stroke-dashoffset" values="43.922" fill="freeze" begin="65bc.click" /><animate attributeName="stroke-dashoffset" values="43.922;43.922;0" keyTimes="0;0.721;1" dur="1.573s" fill="freeze" begin="0s;65bc.click" /></path><path d="M68.31,15.75c0.05,0.76,0.21,1.99-0.09,3.05C66.25,25.75,60.25,38.75,52,48" stroke-dasharray="36.703" stroke-dashoffset="36.703"><animate attributeName="stroke-dashoffset" values="36.703" fill="freeze" begin="65bc.click" /><animate attributeName="stroke-dashoffset" values="36.703;36.703;0" keyTimes="0;0.811;1" dur="1.94s" fill="freeze" begin="0s;65bc.click" /></path><path d="M68.25,20.25c4,4.62,14.66,17.05,20.95,23.54c2.08,2.15,4.17,3.92,6.55,5.71" stroke-dasharray="40.216" stroke-dashoffset="40.216"><animate attributeName="stroke-dashoffset" values="40.216" fill="freeze" begin="65bc.click" /><animate attributeName="stroke-dashoffset" values="40.216;40.216;0" keyTimes="0;0.828;1" dur="2.342s" fill="freeze" begin="0s;65bc.click" /></path><path d="M62.27,52.58c5.98,2.92,13.23,8.79,16.54,13.88" stroke-dasharray="21.804" stroke-dashoffset="21.804"><animate attributeName="stroke-dashoffset" values="21.804" fill="freeze" begin="65bc.click" /><animate attributeName="stroke-dashoffset" values="21.804;21.804;0" keyTimes="0;0.915;1" dur="2.56s" fill="freeze" begin="0s;65bc.click" /></path><path d="M57.27,76.08c9.1,3.24,21.86,12.29,25.54,18.13" stroke-dasharray="31.695" stroke-dashoffset="31.695"><animate attributeName="stroke-dashoffset" values="31.695" fill="freeze" begin="65bc.click" /><animate attributeName="stroke-dashoffset" values="31.695;31.695;0" keyTimes="0;0.89;1" dur="2.877s" fill="freeze" begin="0s;65bc.click" /></path></g></svg>