<svg xmlns="http://www.w3.org/2000/svg" viewBox="0 0 109 109" id="665d"><g fill="none" stroke="#666" stroke-width="6" stroke-linecap="round" stroke-linejoin="round"><g><g><g><path d="M30.24,21.88c3.16,0.91,3.34,0.83,5.41,0.64c9.45-0.89,31.8-2.88,40.79-3.64c1.56-0.13,3.59,1.51,2.91,3.55c-0.86,2.57-1.37,7.73-2.89,16.82" /><path d="M19.14,32.63c2.03,0.14,3.61,0.42,5.85,0.23c15.76-1.36,45.51-3.19,61.03-4.26c2.48-0.17,4.5,0.27,5.63,0.44" /><path d="M31.36,41.85c1.21,0.17,3.4,0.62,4.84,0.47c13.28-1.38,25.85-2.36,37.93-3.1c1.93-0.12,3.14-0.09,4.59,0.07" /></g><path d="M31.54,51.06c1.16,0.26,3.28,0.24,4.45,0.18c12.07-0.63,31.01-2.48,39.52-3.06c1.93-0.13,3.09,0.06,4.06,0.18" /><path d="M19,61.5c1.54,0.37,4.37,0.36,5.9,0.26c16.01-1.07,47.95-4.18,61.95-4.52c2.56-0.06,4.1,0.09,5.39,0.26" /><g><path d="M52.59,10.27c1.11,0.35,1.78,1.64,2,2.38c0.23,0.74,0.44,41.72,0.26,46.4" /></g></g><g><g><path d="M33.25,67.34c0.35,0.38,0.72,0.71,0.87,1.19c1.23,3.82,2.7,14.36,3.54,21.22" /><path d="M35.15,69.6c13.12-1.99,29.1-3.86,36.62-4.36c2.75-0.18,4.19,1.03,4,2.17c-0.84,5.17-1.57,13.6-3.8,20.05" /><path d="M36.55,78.6c9.32-0.6,24.55-2.88,36.52-3.3" /><path d="M38,87.53c8.83-0.57,22.31-1.8,34.43-2.68" /></g><g><path d="M17.25,96.83c1.6,0.39,4.54,0.39,6.14,0.28c16.65-1.16,51.94-2.61,66.5-2.99c2.67-0.07,4.27,0.1,5.6,0.29" /></g></g></g></g><g fill="none" stroke="#000" stroke-width="3" stroke-linecap="round" stroke-linejoin="round"><path d="M30.24,21.88c3.16,0.91,3.34,0.83,5.41,0.64c9.45-0.89,31.8-2.88,40.79-3.64c1.56-0.13,3.59,1.51,2.91,3.55c-0.86,2.57-1.37,7.73-2.89,16.82" stroke-dasharray="68.905" stroke-dashoffset="68.905"><animate attributeName="stroke-dashoffset" values="68.905;68.905;0" dur="0.518s" fill="freeze" begin="0s;665d.click" /></path><path d="M19.14,32.63c2.03,0.14,3.61,0.42,5.85,0.23c15.76-1.36,45.51-3.19,61.03-4.26c2.48-0.17,4.5,0.27,5.63,0.44" stroke-dasharray="72.706" stroke-dashoffset="72.706"><animate attributeName="stroke-dashoffset" values="72.706" fill="freeze" begin="665d.click" /><animate attributeName="stroke-dashoffset" values="72.706;72.706;0" keyTimes="0;0.486;1" dur="1.065s" fill="freeze" begin="0s;665d.click" /></path><path d="M31.36,41.85c1.21,0.17,3.4,0.62,4.84,0.47c13.28-1.38,25.85-2.36,37.93-3.1c1.93-0.12,3.14-0.09,4.59,0.07" stroke-dasharray="47.532" stroke-dashoffset="47.532"><animate attributeName="stroke-dashoffset" values="47.532" fill="freeze" begin="665d.click" /><animate attributeName="stroke-dashoffset" values="47.532;47.532;0" keyTimes="0;0.692;1" dur="1.54s" fill="freeze" begin="0s;665d.click" /></path><path d="M31.54,51.06c1.16,0.26,3.28,0.24,4.45,0.18c12.07-0.63,31.01-2.48,39.52-3.06c1.93-0.13,3.09,0.06,4.06,0.18" stroke-dasharray="48.177" stroke-dashoffset="48.177"><animate attributeName="stroke-dashoffset" values="48.177" fill="freeze" begin="665d.click" /><animate attributeName="stroke-dashoffset" values="48.177;48.177;0" keyTimes="0;0.762;1" dur="2.022s" fill="freeze" begin="0s;665d.click" /></path><path d="M19,61.5c1.54,0.37,4.37,0.36,5.9,0.26c16.01-1.07,47.95-4.18,61.95-4.52c2.56-0.06,4.1,0.09,5.39,0.26" stroke-dasharray="73.445" stroke-dashoffset="73.445"><animate attributeName="stroke-dashoffset" values="73.445" fill="freeze" begin="665d.click" /><animate attributeName="stroke-dashoffset" values="73.445;73.445;0" keyTimes="0;0.786;1" dur="2.574s" fill="freeze" begin="0s;665d.click" /></path><path d="M52.59,10.27c1.11,0.35,1.78,1.64,2,2.38c0.23,0.74,0.44,41.72,0.26,46.4" stroke-dasharray="49.628" stroke-dashoffset="49.628"><animate attributeName="stroke-dashoffset" values="49.628" fill="freeze" begin="665d.click" /><animate attributeName="stroke-dashoffset" values="49.628;49.628;0" keyTimes="0;0.838;1" dur="3.07s" fill="freeze" begin="0s;665d.click" /></path><path d="M33.25,67.34c0.35,0.38,0.72,0.71,0.87,1.19c1.23,3.82,2.7,14.36,3.54,21.22" stroke-dasharray="23.02" stroke-dashoffset="23.02"><animate attributeName="stroke-dashoffset" values="23.02" fill="freeze" begin="665d.click" /><animate attributeName="stroke-dashoffset" values="23.02;23.02;0" keyTimes="0;0.93;1" dur="3.3s" fill="freeze" begin="0s;665d.click" /></path><path d="M35.15,69.6c13.12-1.99,29.1-3.86,36.62-4.36c2.75-0.18,4.19,1.03,4,2.17c-0.84,5.17-1.57,13.6-3.8,20.05" stroke-dasharray="62.462" stroke-dashoffset="62.462"><animate attributeName="stroke-dashoffset" values="62.462" fill="freeze" begin="665d.click" /><animate attributeName="stroke-dashoffset" values="62.462;62.462;0" keyTimes="0;0.875;1" dur="3.77s" fill="freeze" begin="0s;665d.click" /></path><path d="M36.55,78.6c9.32-0.6,24.55-2.88,36.52-3.3" stroke-dasharray="36.677" stroke-dashoffset="36.677"><animate attributeName="stroke-dashoffset" values="36.677" fill="freeze" begin="665d.click" /><animate attributeName="stroke-dashoffset" values="36.677;36.677;0" keyTimes="0;0.911;1" dur="4.137s" fill="freeze" begin="0s;665d.click" /></path><path d="M38,87.53c8.83-0.57,22.31-1.8,34.43-2.68" stroke-dasharray="34.535" stroke-dashoffset="34.535"><animate attributeName="stroke-dashoffset" values="34.535" fill="freeze" begin="665d.click" /><animate attributeName="stroke-dashoffset" values="34.535;34.535;0" keyTimes="0;0.923;1" dur="4.482s" fill="freeze" begin="0s;665d.click" /></path><path d="M17.25,96.83c1.6,0.39,4.54,0.39,6.14,0.28c16.65-1.16,51.94-2.61,66.5-2.99c2.67-0.07,4.27,0.1,5.6,0.29" stroke-dasharray="78.35" stroke-dashoffset="78.35"><animate attributeName="stroke-dashoffset" values="78.35" fill="freeze" begin="665d.click" /><animate attributeName="stroke-dashoffset" values="78.35;78.35;0" keyTimes="0;0.884;1" dur="5.071s" fill="freeze" begin="0s;665d.click" /></path></g></svg>