<svg xmlns="http://www.w3.org/2000/svg" viewBox="0 0 109 109" id="6688"><g fill="none" stroke="#666" stroke-width="6" stroke-linecap="round" stroke-linejoin="round"><g><g><path d="M32.86,10.71c0.34,0.36,0.35,0.6,0.54,1.05c1.55,3.7,2.16,11.54,3.12,18.44" /><path d="M34.69,11.88c8.27-0.77,30.66-1.96,36.83-2.61c2.27-0.24,2.73,1.36,2.62,2.21c-0.43,3.09-1.83,11.88-2.87,17.04" /><path d="M36.24,20.19c2.7-0.3,33.87-2.39,36.1-2.51" /><path d="M37.12,28.4c7.66-0.84,26.28-1.58,34.5-2.12" /></g><g><g><path d="M21.94,36c-0.15,3.63-3.68,13.11-4.94,15.27" /><path d="M24.04,37.48c8.18-0.73,43.44-3.9,59.61-4.49c12.29-0.44,1.91,7.79,0.4,9.03" /></g><g><path d="M29.14,47.36c1.3,0.36,3.67,0.45,4.96,0.36c12.52-0.8,24.35-3.25,38.97-3.71c2.16-0.07,3.46,0.17,4.54,0.36" /><path d="M27.82,55.18c0.76,0.38,1.72,1.68,1.87,2.19c1.03,3.68,2.32,13.13,3.21,19.21" /><path d="M30.24,57.07c11.54-0.74,38.22-3.44,46.09-3.56c3.26-0.05,3.93,1.01,3.79,2.16c-0.48,3.96-1.65,10.46-4.24,16.96" /><path d="M31.96,65.75C42,65,61.83,62.89,78.23,62.89" /><path d="M32.96,74.93c10.11-0.76,29.75-3.06,42.92-3.06" /><path d="M16.5,85.25c1.5,0.51,4.22,0.59,5.73,0.51C47.5,84.45,63.25,82,88.26,81.4c2.49-0.06,3.99,0.24,5.24,0.5" /><path d="M52.42,37.81c0.71,0.46,1.86,1.94,1.86,4.33c0,0.92-0.09,52.79-0.24,58.49" /></g></g></g></g><g fill="none" stroke="#000" stroke-width="3" stroke-linecap="round" stroke-linejoin="round"><path d="M32.86,10.71c0.34,0.36,0.35,0.6,0.54,1.05c1.55,3.7,2.16,11.54,3.12,18.44" stroke-dasharray="19.933" stroke-dashoffset="19.933"><animate attributeName="stroke-dashoffset" values="19.933;19.933;0" dur="0.199s" fill="freeze" begin="0s;6688.click" /></path><path d="M34.69,11.88c8.27-0.77,30.66-1.96,36.83-2.61c2.27-0.24,2.73,1.36,2.62,2.21c-0.43,3.09-1.83,11.88-2.87,17.04" stroke-dasharray="58.23" stroke-dashoffset="58.23"><animate attributeName="stroke-dashoffset" values="58.23" fill="freeze" begin="6688.click" /><animate attributeName="stroke-dashoffset" values="58.23;58.23;0" keyTimes="0;0.255;1" dur="0.781s" fill="freeze" begin="0s;6688.click" /></path><path d="M36.24,20.19c2.7-0.3,33.87-2.39,36.1-2.51" stroke-dasharray="36.189" stroke-dashoffset="36.189"><animate attributeName="stroke-dashoffset" values="36.189" fill="freeze" begin="6688.click" /><animate attributeName="stroke-dashoffset" values="36.189;36.189;0" keyTimes="0;0.683;1" dur="1.143s" fill="freeze" begin="0s;6688.click" /></path><path d="M37.12,28.4c7.66-0.84,26.28-1.58,34.5-2.12" stroke-dasharray="34.569" stroke-dashoffset="34.569"><animate attributeName="stroke-dashoffset" values="34.569" fill="freeze" begin="6688.click" /><animate attributeName="stroke-dashoffset" values="34.569;34.569;0" keyTimes="0;0.768;1" dur="1.489s" fill="freeze" begin="0s;6688.click" /></path><path d="M21.94,36c-0.15,3.63-3.68,13.11-4.94,15.27" stroke-dasharray="16.119" stroke-dashoffset="16.119"><animate attributeName="stroke-dashoffset" values="16.119" fill="freeze" begin="6688.click" /><animate attributeName="stroke-dashoffset" values="16.119;16.119;0" keyTimes="0;0.902;1" dur="1.65s" fill="freeze" begin="0s;6688.click" /></path><path d="M24.04,37.48c8.18-0.73,43.44-3.9,59.61-4.49c12.29-0.44,1.91,7.79,0.4,9.03" stroke-dasharray="75.73" stroke-dashoffset="75.73"><animate attributeName="stroke-dashoffset" values="75.73" fill="freeze" begin="6688.click" /><animate attributeName="stroke-dashoffset" values="75.73;75.73;0" keyTimes="0;0.744;1" dur="2.219s" fill="freeze" begin="0s;6688.click" /></path><path d="M29.14,47.36c1.3,0.36,3.67,0.45,4.96,0.36c12.52-0.8,24.35-3.25,38.97-3.71c2.16-0.07,3.46,0.17,4.54,0.36" stroke-dasharray="48.714" stroke-dashoffset="48.714"><animate attributeName="stroke-dashoffset" values="48.714" fill="freeze" begin="6688.click" /><animate attributeName="stroke-dashoffset" values="48.714;48.714;0" keyTimes="0;0.82;1" dur="2.706s" fill="freeze" begin="0s;6688.click" /></path><path d="M27.82,55.18c0.76,0.38,1.72,1.68,1.87,2.19c1.03,3.68,2.32,13.13,3.21,19.21" stroke-dasharray="22.411" stroke-dashoffset="22.411"><animate attributeName="stroke-dashoffset" values="22.411" fill="freeze" begin="6688.click" /><animate attributeName="stroke-dashoffset" values="22.411;22.411;0" keyTimes="0;0.924;1" dur="2.93s" fill="freeze" begin="0s;6688.click" /></path><path d="M30.24,57.07c11.54-0.74,38.22-3.44,46.09-3.56c3.26-0.05,3.93,1.01,3.79,2.16c-0.48,3.96-1.65,10.46-4.24,16.96" stroke-dasharray="68.784" stroke-dashoffset="68.784"><animate attributeName="stroke-dashoffset" values="68.784" fill="freeze" begin="6688.click" /><animate attributeName="stroke-dashoffset" values="68.784;68.784;0" keyTimes="0;0.85;1" dur="3.447s" fill="freeze" begin="0s;6688.click" /></path><path d="M31.96,65.75C42,65,61.83,62.89,78.23,62.89" stroke-dasharray="46.373" stroke-dashoffset="46.373"><animate attributeName="stroke-dashoffset" values="46.373" fill="freeze" begin="6688.click" /><animate attributeName="stroke-dashoffset" values="46.373;46.373;0" keyTimes="0;0.881;1" dur="3.911s" fill="freeze" begin="0s;6688.click" /></path><path d="M32.96,74.93c10.11-0.76,29.75-3.06,42.92-3.06" stroke-dasharray="43.043" stroke-dashoffset="43.043"><animate attributeName="stroke-dashoffset" values="43.043" fill="freeze" begin="6688.click" /><animate attributeName="stroke-dashoffset" values="43.043;43.043;0" keyTimes="0;0.901;1" dur="4.341s" fill="freeze" begin="0s;6688.click" /></path><path d="M16.5,85.25c1.5,0.51,4.22,0.59,5.73,0.51C47.5,84.45,63.25,82,88.26,81.4c2.49-0.06,3.99,0.24,5.24,0.5" stroke-dasharray="77.24" stroke-dashoffset="77.24"><animate attributeName="stroke-dashoffset" values="77.24" fill="freeze" begin="6688.click" /><animate attributeName="stroke-dashoffset" values="77.24;77.24;0" keyTimes="0;0.882;1" dur="4.922s" fill="freeze" begin="0s;6688.click" /></path><path d="M52.42,37.81c0.71,0.46,1.86,1.94,1.86,4.33c0,0.92-0.09,52.79-0.24,58.49" stroke-dasharray="63.376" stroke-dashoffset="63.376"><animate attributeName="stroke-dashoffset" values="63.376" fill="freeze" begin="6688.click" /><animate attributeName="stroke-dashoffset" values="63.376;63.376;0" keyTimes="0;0.912;1" dur="5.399s" fill="freeze" begin="0s;6688.click" /></path></g></svg>