<svg xmlns="http://www.w3.org/2000/svg" viewBox="0 0 109 109" id="6696"><g fill="none" stroke="#666" stroke-width="6" stroke-linecap="round" stroke-linejoin="round"><g><g><path d="M12.53,28.59c0.88,0.88,1.27,2.44,1.25,3.9c-0.01,1.23,0.06,26.5,0.08,38.51c0,2.24,0.01,4.02,0.01,5.09" /><path d="M14.25,30.36c1.51-0.05,15.76-2.14,17.12-2.32c2.13-0.29,2.76,0.84,2.76,2.76c0,1.67,0.02,25.94-0.01,37.95c-0.01,3.73-0.02,6.25-0.02,6.51" /><path d="M14.83,50.42c4.92-0.42,12.42-1.54,18.17-1.79" /><path d="M15.02,72.29c4.15-0.42,12.83-1.44,18-1.67" /></g><g p4:phon="爰V" xmlns:p4="http://kanjivg.tagaini.net"><g><path d="M73.24,12.54c0,1.09-0.47,1.75-1.17,2.29c-3.58,2.8-11.08,6.05-22.93,9.59" /><path d="M44.77,29.15c2.3,1.35,5.94,5.57,6.52,7.68" /><path d="M60.87,26c1.71,1.46,4.41,5.99,4.84,8.25" /><path d="M86.53,19.89c0.06,0.62-0.27,1.74-0.56,2.28c-1.59,2.96-4.59,6.96-9.4,10.96" /></g><g><path d="M47.29,42.97c1.58,0.69,4.17,0.76,5.83,0.57c6.46-0.74,17.57-2.39,23.01-3.38c1.5-0.27,3.12-0.52,4.45,0.08" /><g><path d="M41.86,55.53c2.89,0.47,5.46,0.35,8.14,0.03c12.9-1.58,23.55-3.17,34.38-4.08c2.25-0.19,4.53-0.45,6.75,0.07" /><path d="M62.94,45.54c0.29,0.8,0.27,1.96-0.16,3.37C59.12,60.88,51.5,77.5,33.75,88.62" /><g><path d="M57.55,66.67c1.34,0.17,2.89-0.03,4.18-0.35c4.73-1.17,11.21-2.69,14.9-3.61c2.71-0.68,3.87,0.92,2.61,3.58c-4.57,9.68-22.31,26.27-39.26,31.46" /><path d="M53.9,70.5c3.77,0.72,19.47,15.89,26.71,20.54C86,94.5,88.5,95.88,91.3,96.92" /></g></g></g></g></g></g><g fill="none" stroke="#000" stroke-width="3" stroke-linecap="round" stroke-linejoin="round"><path d="M12.53,28.59c0.88,0.88,1.27,2.44,1.25,3.9c-0.01,1.23,0.06,26.5,0.08,38.51c0,2.24,0.01,4.02,0.01,5.09" stroke-dasharray="47.798" stroke-dashoffset="47.798"><animate attributeName="stroke-dashoffset" values="47.798;47.798;0" dur="0.478s" fill="freeze" begin="0s;6696.click" /></path><path d="M14.25,30.36c1.51-0.05,15.76-2.14,17.12-2.32c2.13-0.29,2.76,0.84,2.76,2.76c0,1.67,0.02,25.94-0.01,37.95c-0.01,3.73-0.02,6.25-0.02,6.51" stroke-dasharray="66.416" stroke-dashoffset="66.416"><animate attributeName="stroke-dashoffset" values="66.416" fill="freeze" begin="6696.click" /><animate attributeName="stroke-dashoffset" values="66.416;66.416;0" keyTimes="0;0.489;1" dur="0.977s" fill="freeze" begin="0s;6696.click" /></path><path d="M14.83,50.42c4.92-0.42,12.42-1.54,18.17-1.79" stroke-dasharray="18.262" stroke-dashoffset="18.262"><animate attributeName="stroke-dashoffset" values="18.262" fill="freeze" begin="6696.click" /><animate attributeName="stroke-dashoffset" values="18.262;18.262;0" keyTimes="0;0.842;1" dur="1.16s" fill="freeze" begin="0s;6696.click" /></path><path d="M15.02,72.29c4.15-0.42,12.83-1.44,18-1.67" stroke-dasharray="18.081" stroke-dashoffset="18.081"><animate attributeName="stroke-dashoffset" values="18.081" fill="freeze" begin="6696.click" /><animate attributeName="stroke-dashoffset" values="18.081;18.081;0" keyTimes="0;0.865;1" dur="1.341s" fill="freeze" begin="0s;6696.click" /></path><path d="M73.24,12.54c0,1.09-0.47,1.75-1.17,2.29c-3.58,2.8-11.08,6.05-22.93,9.59" stroke-dasharray="27.642" stroke-dashoffset="27.642"><animate attributeName="stroke-dashoffset" values="27.642" fill="freeze" begin="6696.click" /><animate attributeName="stroke-dashoffset" values="27.642;27.642;0" keyTimes="0;0.829;1" dur="1.617s" fill="freeze" begin="0s;6696.click" /></path><path d="M44.77,29.15c2.3,1.35,5.94,5.57,6.52,7.68" stroke-dasharray="10.216" stroke-dashoffset="10.216"><animate attributeName="stroke-dashoffset" values="10.216" fill="freeze" begin="6696.click" /><animate attributeName="stroke-dashoffset" values="10.216;10.216;0" keyTimes="0;0.888;1" dur="1.821s" fill="freeze" begin="0s;6696.click" /></path><path d="M60.87,26c1.71,1.46,4.41,5.99,4.84,8.25" stroke-dasharray="9.669" stroke-dashoffset="9.669"><animate attributeName="stroke-dashoffset" values="9.669" fill="freeze" begin="6696.click" /><animate attributeName="stroke-dashoffset" values="9.669;9.669;0" keyTimes="0;0.904;1" dur="2.014s" fill="freeze" begin="0s;6696.click" /></path><path d="M86.53,19.89c0.06,0.62-0.27,1.74-0.56,2.28c-1.59,2.96-4.59,6.96-9.4,10.96" stroke-dasharray="16.895" stroke-dashoffset="16.895"><animate attributeName="stroke-dashoffset" values="16.895" fill="freeze" begin="6696.click" /><animate attributeName="stroke-dashoffset" values="16.895;16.895;0" keyTimes="0;0.923;1" dur="2.183s" fill="freeze" begin="0s;6696.click" /></path><path d="M47.29,42.97c1.58,0.69,4.17,0.76,5.83,0.57c6.46-0.74,17.57-2.39,23.01-3.38c1.5-0.27,3.12-0.52,4.45,0.08" stroke-dasharray="33.693" stroke-dashoffset="33.693"><animate attributeName="stroke-dashoffset" values="33.693" fill="freeze" begin="6696.click" /><animate attributeName="stroke-dashoffset" values="33.693;33.693;0" keyTimes="0;0.866;1" dur="2.52s" fill="freeze" begin="0s;6696.click" /></path><path d="M41.86,55.53c2.89,0.47,5.46,0.35,8.14,0.03c12.9-1.58,23.55-3.17,34.38-4.08c2.25-0.19,4.53-0.45,6.75,0.07" stroke-dasharray="49.575" stroke-dashoffset="49.575"><animate attributeName="stroke-dashoffset" values="49.575" fill="freeze" begin="6696.click" /><animate attributeName="stroke-dashoffset" values="49.575;49.575;0" keyTimes="0;0.836;1" dur="3.016s" fill="freeze" begin="0s;6696.click" /></path><path d="M62.94,45.54c0.29,0.8,0.27,1.96-0.16,3.37C59.12,60.88,51.5,77.5,33.75,88.62" stroke-dasharray="53.726" stroke-dashoffset="53.726"><animate attributeName="stroke-dashoffset" values="53.726" fill="freeze" begin="6696.click" /><animate attributeName="stroke-dashoffset" values="53.726;53.726;0" keyTimes="0;0.849;1" dur="3.553s" fill="freeze" begin="0s;6696.click" /></path><path d="M57.55,66.67c1.34,0.17,2.89-0.03,4.18-0.35c4.73-1.17,11.21-2.69,14.9-3.61c2.71-0.68,3.87,0.92,2.61,3.58c-4.57,9.68-22.31,26.27-39.26,31.46" stroke-dasharray="77.103" stroke-dashoffset="77.103"><animate attributeName="stroke-dashoffset" values="77.103" fill="freeze" begin="6696.click" /><animate attributeName="stroke-dashoffset" values="77.103;77.103;0" keyTimes="0;0.86;1" dur="4.133s" fill="freeze" begin="0s;6696.click" /></path><path d="M53.9,70.5c3.77,0.72,19.47,15.89,26.71,20.54C86,94.5,88.5,95.88,91.3,96.92" stroke-dasharray="46.005" stroke-dashoffset="46.005"><animate attributeName="stroke-dashoffset" values="46.005" fill="freeze" begin="6696.click" /><animate attributeName="stroke-dashoffset" values="46.005;46.005;0" keyTimes="0;0.9;1" dur="4.593s" fill="freeze" begin="0s;6696.click" /></path></g></svg>