<svg xmlns="http://www.w3.org/2000/svg" viewBox="0 0 109 109" id="66d9"><g fill="none" stroke="#666" stroke-width="6" stroke-linecap="round" stroke-linejoin="round"><g><g><path d="M12.52,24.34c0.82,0.82,1.23,1.79,1.23,3.06c0,0.77-0.08,29.15-0.05,41.72c0.01,3.42,0.02,5.67,0.05,5.88" /><path d="M14.36,26.12c4.68-0.66,9.58-1.58,14.01-2.16c3.21-0.43,4.12,0.67,4.09,3.67c-0.06,6.87,0,28.88,0.02,40c0,2.44,0.01,4.36,0.01,5.47" /><path d="M15.03,48.44c6.27-0.69,10.59-1.13,16.05-1.67" /><path d="M14.87,71.49c5.7-0.53,9.62-0.72,16.48-1.17" /></g><g><g><path d="M41.75,15.38c0.75,0.6,1.19,1.39,1.31,2.36c0.85,3.48,1.66,6.89,2.52,10.36c0.35,1.4,0.7,2.81,1.07,4.24" /><path d="M44.12,16.38c7.43-0.56,32.38-2.63,43.76-3.3c2.87-0.17,4.97,0.52,4.28,3.84c-0.51,2.45-1.35,5.78-2.32,9.03c-0.41,1.38-0.84,2.74-1.28,4.02" /><path d="M58,17.5c0.69,0.69,0.88,1.5,1.1,2.8c0.56,3.15,0.77,5.2,1.26,8.14" /><path d="M73.68,16.07c0.57,0.68,0.69,1.66,0.54,2.73c-0.47,3.32-0.93,7.46-1.2,8.95" /><path d="M47.57,30.74c3.41-0.39,31.42-2.03,40.15-2.49" /></g><g><g p6:partial xmlns:p6="http://kanjivg.tagaini.net"><g><path d="M46.89,45.06c1.53,0.63,4.13,0.44,5.73,0.29c6.9-0.64,16.17-1.78,22.89-2.22c1.66-0.11,3.32-0.25,4.95,0.16" /><path d="M63.54,34.47c0.74,0.74,1.08,1.9,1.08,3.26c0,6.63-0.02,16.04-0.02,18.3" /><path d="M39.64,57.23c2.36,0.62,5.19,0.75,7.63,0.58c11.11-0.74,32.52-3.12,42.23-3.83c2.39-0.18,5.29-0.76,7.63-0.16" /></g><path d="M87.53,37.33c-0.23,1.95-1.19,3.19-2.48,4.6C72.26,55.95,56.22,69.99,36.06,79.22" /></g><g><path d="M57.75,67.63c0.34,0.72,0.69,1.08,0.69,2.04c0,0.71-0.06,15.38-0.05,23.33c0,2.79,0.02,4.75,0.05,5" /><path d="M59.5,68c1.68-0.1,15.84-1.67,20.74-2.17c2.87-0.29,3.68,0.95,3.68,3.67c0,3.41-0.02,14.71-0.04,22.38c0,2.17,0,4.05,0,5.38" /><path d="M59.59,81.27c2.61,0,20.2-1.33,23.15-1.33" /><path d="M59.47,95.29c5.32-0.52,16.64-1.14,23.26-1.58" /></g></g></g></g></g><g fill="none" stroke="#000" stroke-width="3" stroke-linecap="round" stroke-linejoin="round"><path d="M12.52,24.34c0.82,0.82,1.23,1.79,1.23,3.06c0,0.77-0.08,29.15-0.05,41.72c0.01,3.42,0.02,5.67,0.05,5.88" stroke-dasharray="50.995" stroke-dashoffset="50.995"><animate attributeName="stroke-dashoffset" values="50.995;50.995;0" dur="0.51s" fill="freeze" begin="0s;66d9.click" /></path><path d="M14.36,26.12c4.68-0.66,9.58-1.58,14.01-2.16c3.21-0.43,4.12,0.67,4.09,3.67c-0.06,6.87,0,28.88,0.02,40c0,2.44,0.01,4.36,0.01,5.47" stroke-dasharray="66.38" stroke-dashoffset="66.38"><animate attributeName="stroke-dashoffset" values="66.38" fill="freeze" begin="66d9.click" /><animate attributeName="stroke-dashoffset" values="66.38;66.38;0" keyTimes="0;0.505;1" dur="1.009s" fill="freeze" begin="0s;66d9.click" /></path><path d="M15.03,48.44c6.27-0.69,10.59-1.13,16.05-1.67" stroke-dasharray="16.138" stroke-dashoffset="16.138"><animate attributeName="stroke-dashoffset" values="16.138" fill="freeze" begin="66d9.click" /><animate attributeName="stroke-dashoffset" values="16.138;16.138;0" keyTimes="0;0.862;1" dur="1.17s" fill="freeze" begin="0s;66d9.click" /></path><path d="M14.87,71.49c5.7-0.53,9.62-0.72,16.48-1.17" stroke-dasharray="16.523" stroke-dashoffset="16.523"><animate attributeName="stroke-dashoffset" values="16.523" fill="freeze" begin="66d9.click" /><animate attributeName="stroke-dashoffset" values="16.523;16.523;0" keyTimes="0;0.876;1" dur="1.335s" fill="freeze" begin="0s;66d9.click" /></path><path d="M41.75,15.38c0.75,0.6,1.19,1.39,1.31,2.36c0.85,3.48,1.66,6.89,2.52,10.36c0.35,1.4,0.7,2.81,1.07,4.24" stroke-dasharray="17.808" stroke-dashoffset="17.808"><animate attributeName="stroke-dashoffset" values="17.808" fill="freeze" begin="66d9.click" /><animate attributeName="stroke-dashoffset" values="17.808;17.808;0" keyTimes="0;0.882;1" dur="1.513s" fill="freeze" begin="0s;66d9.click" /></path><path d="M44.12,16.38c7.43-0.56,32.38-2.63,43.76-3.3c2.87-0.17,4.97,0.52,4.28,3.84c-0.51,2.45-1.35,5.78-2.32,9.03c-0.41,1.38-0.84,2.74-1.28,4.02" stroke-dasharray="64.559" stroke-dashoffset="64.559"><animate attributeName="stroke-dashoffset" values="64.559" fill="freeze" begin="66d9.click" /><animate attributeName="stroke-dashoffset" values="64.559;64.559;0" keyTimes="0;0.757;1" dur="1.998s" fill="freeze" begin="0s;66d9.click" /></path><path d="M58,17.5c0.69,0.69,0.88,1.5,1.1,2.8c0.56,3.15,0.77,5.2,1.26,8.14" stroke-dasharray="11.302" stroke-dashoffset="11.302"><animate attributeName="stroke-dashoffset" values="11.302" fill="freeze" begin="66d9.click" /><animate attributeName="stroke-dashoffset" values="11.302;11.302;0" keyTimes="0;0.898;1" dur="2.224s" fill="freeze" begin="0s;66d9.click" /></path><path d="M73.68,16.07c0.57,0.68,0.69,1.66,0.54,2.73c-0.47,3.32-0.93,7.46-1.2,8.95" stroke-dasharray="11.897" stroke-dashoffset="11.897"><animate attributeName="stroke-dashoffset" values="11.897" fill="freeze" begin="66d9.click" /><animate attributeName="stroke-dashoffset" values="11.897;11.897;0" keyTimes="0;0.903;1" dur="2.462s" fill="freeze" begin="0s;66d9.click" /></path><path d="M47.57,30.74c3.41-0.39,31.42-2.03,40.15-2.49" stroke-dasharray="40.229" stroke-dashoffset="40.229"><animate attributeName="stroke-dashoffset" values="40.229" fill="freeze" begin="66d9.click" /><animate attributeName="stroke-dashoffset" values="40.229;40.229;0" keyTimes="0;0.86;1" dur="2.864s" fill="freeze" begin="0s;66d9.click" /></path><path d="M46.89,45.06c1.53,0.63,4.13,0.44,5.73,0.29c6.9-0.64,16.17-1.78,22.89-2.22c1.66-0.11,3.32-0.25,4.95,0.16" stroke-dasharray="33.759" stroke-dashoffset="33.759"><animate attributeName="stroke-dashoffset" values="33.759" fill="freeze" begin="66d9.click" /><animate attributeName="stroke-dashoffset" values="33.759;33.759;0" keyTimes="0;0.894;1" dur="3.202s" fill="freeze" begin="0s;66d9.click" /></path><path d="M63.54,34.47c0.74,0.74,1.08,1.9,1.08,3.26c0,6.63-0.02,16.04-0.02,18.3" stroke-dasharray="21.824" stroke-dashoffset="21.824"><animate attributeName="stroke-dashoffset" values="21.824" fill="freeze" begin="66d9.click" /><animate attributeName="stroke-dashoffset" values="21.824;21.824;0" keyTimes="0;0.936;1" dur="3.42s" fill="freeze" begin="0s;66d9.click" /></path><path d="M39.64,57.23c2.36,0.62,5.19,0.75,7.63,0.58c11.11-0.74,32.52-3.12,42.23-3.83c2.39-0.18,5.29-0.76,7.63-0.16" stroke-dasharray="57.76" stroke-dashoffset="57.76"><animate attributeName="stroke-dashoffset" values="57.76" fill="freeze" begin="66d9.click" /><animate attributeName="stroke-dashoffset" values="57.76;57.76;0" keyTimes="0;0.855;1" dur="3.998s" fill="freeze" begin="0s;66d9.click" /></path><path d="M87.53,37.33c-0.23,1.95-1.19,3.19-2.48,4.6C72.26,55.95,56.22,69.99,36.06,79.22" stroke-dasharray="67.317" stroke-dashoffset="67.317"><animate attributeName="stroke-dashoffset" values="67.317" fill="freeze" begin="66d9.click" /><animate attributeName="stroke-dashoffset" values="67.317;67.317;0" keyTimes="0;0.888;1" dur="4.504s" fill="freeze" begin="0s;66d9.click" /></path><path d="M57.75,67.63c0.34,0.72,0.69,1.08,0.69,2.04c0,0.71-0.06,15.38-0.05,23.33c0,2.79,0.02,4.75,0.05,5" stroke-dasharray="30.515" stroke-dashoffset="30.515"><animate attributeName="stroke-dashoffset" values="30.515" fill="freeze" begin="66d9.click" /><animate attributeName="stroke-dashoffset" values="30.515;30.515;0" keyTimes="0;0.937;1" dur="4.809s" fill="freeze" begin="0s;66d9.click" /></path><path d="M59.5,68c1.68-0.1,15.84-1.67,20.74-2.17c2.87-0.29,3.68,0.95,3.68,3.67c0,3.41-0.02,14.71-0.04,22.38c0,2.17,0,4.05,0,5.38" stroke-dasharray="54.856" stroke-dashoffset="54.856"><animate attributeName="stroke-dashoffset" values="54.856" fill="freeze" begin="66d9.click" /><animate attributeName="stroke-dashoffset" values="54.856;54.856;0" keyTimes="0;0.898;1" dur="5.358s" fill="freeze" begin="0s;66d9.click" /></path><path d="M59.59,81.27c2.61,0,20.2-1.33,23.15-1.33" stroke-dasharray="23.191" stroke-dashoffset="23.191"><animate attributeName="stroke-dashoffset" values="23.191" fill="freeze" begin="66d9.click" /><animate attributeName="stroke-dashoffset" values="23.191;23.191;0" keyTimes="0;0.958;1" dur="5.59s" fill="freeze" begin="0s;66d9.click" /></path><path d="M59.47,95.29c5.32-0.52,16.64-1.14,23.26-1.58" stroke-dasharray="23.315" stroke-dashoffset="23.315"><animate attributeName="stroke-dashoffset" values="23.315" fill="freeze" begin="66d9.click" /><animate attributeName="stroke-dashoffset" values="23.315;23.315;0" keyTimes="0;0.96;1" dur="5.823s" fill="freeze" begin="0s;66d9.click" /></path></g></svg>