<svg xmlns="http://www.w3.org/2000/svg" viewBox="0 0 109 109" id="66dc"><g fill="none" stroke="#666" stroke-width="6" stroke-linecap="round" stroke-linejoin="round"><g><g><path d="M15.5,29.81c1,0.69,1.61,2.1,1.61,3.52c0,1.42-0.2,40.33-0.2,41.04c0,0.71-0.05,1.76-0.05,2.88" /><path d="M18.06,31.1c4.41-0.66,14.19-2.61,15.41-2.61c1.78,0,2.54,1.75,2.54,3.02c0,2.14-0.31,25.27-0.3,40.9c0,1.61-0.1,2.31-0.1,3.38" /><path d="M18.42,51.59c3.71-0.46,11.71-1.59,15.98-2.03" /><path d="M18.12,74.29c4.38-0.42,10.63-1.67,16.08-2.17" /></g><g p4:phon="翟" xmlns:p4="http://kanjivg.tagaini.net"><g><g><path d="M41.5,16.5c1.5,0.75,2.5,0.75,4.75,0.5S56.5,15.5,58,15.25s3.5,1.5,3.5,3c0,1.22-0.17,14.07-0.23,20c-0.01,1.35-0.02,2.33-0.02,2.75" /><path d="M43.75,28.25c1.25,0.38,2.98,0.16,4,0c2.38-0.38,9.75-2,12-2.25" /><path d="M45,38.75c1.25,0.38,2.5,0.25,3.5,0s9.25-2,11.5-2.25" /></g><g><path d="M70.75,14.75c1.5,0.75,2.75,1,5,0.75s12.5-1.75,14-2s3.5,1.5,3.5,3c0,1.19-0.16,13.38-0.22,19.5C93.01,37.6,93,38.78,93,39.25" /><path d="M74.25,24.5c1.25,0.5,2.99,0.45,4,0.25c2.5-0.5,11.25-2,13.5-2.25" /><path d="M74,35.75c1.5,0.38,3,0.25,4,0s11.5-2,13.75-2.25" /></g></g><g><g><path d="M54.25,45c0.15,1.27-0.04,2.93-0.52,4.02c-3.07,6.93-6.95,12.8-13.98,21.23" /><path d="M50.55,57.79c0.45,0.96,0.65,1.7,0.7,2.95c0.24,7.07-0.2,22.81-0.27,31.26c-0.02,2.51-0.01,4.47,0.06,5.5" /></g><path d="M74.25,42.75c0.05,0.54-0.01,1.25-0.17,1.72c-1,2.96-2.27,5.25-4.57,8.86" /><path d="M50.98,56.53c5.87-0.68,25.46-2.41,34.02-3.27c1.92-0.19,3.25-0.26,4.86,0.08" /><path d="M69.83,55.88c0.67,1.12,1.12,2.27,1.12,2.83c0,5.71,0.29,22.65,0.08,31.64" /><path d="M52.51,68.36c5.25-0.53,21.05-2.1,29.5-2.84c2-0.17,3.25-0.02,4.91,0.03" /><path d="M52.18,79.71c5.66-0.46,22.39-1.91,31.08-2.66c2.3-0.2,3.23-0.05,4.61,0.09" /><path d="M52.11,93.02c5.61-0.65,26.25-2.06,36.63-2.86c2.93-0.23,4.26-0.16,5.7,0" /></g></g></g></g><g fill="none" stroke="#000" stroke-width="3" stroke-linecap="round" stroke-linejoin="round"><path d="M15.5,29.81c1,0.69,1.61,2.1,1.61,3.52c0,1.42-0.2,40.33-0.2,41.04c0,0.71-0.05,1.76-0.05,2.88" stroke-dasharray="47.937" stroke-dashoffset="47.937"><animate attributeName="stroke-dashoffset" values="47.937;47.937;0" dur="0.479s" fill="freeze" begin="0s;66dc.click" /></path><path d="M18.06,31.1c4.41-0.66,14.19-2.61,15.41-2.61c1.78,0,2.54,1.75,2.54,3.02c0,2.14-0.31,25.27-0.3,40.9c0,1.61-0.1,2.31-0.1,3.38" stroke-dasharray="64.312" stroke-dashoffset="64.312"><animate attributeName="stroke-dashoffset" values="64.312" fill="freeze" begin="66dc.click" /><animate attributeName="stroke-dashoffset" values="64.312;64.312;0" keyTimes="0;0.497;1" dur="0.963s" fill="freeze" begin="0s;66dc.click" /></path><path d="M18.42,51.59c3.71-0.46,11.71-1.59,15.98-2.03" stroke-dasharray="16.11" stroke-dashoffset="16.11"><animate attributeName="stroke-dashoffset" values="16.11" fill="freeze" begin="66dc.click" /><animate attributeName="stroke-dashoffset" values="16.11;16.11;0" keyTimes="0;0.857;1" dur="1.124s" fill="freeze" begin="0s;66dc.click" /></path><path d="M18.12,74.29c4.38-0.42,10.63-1.67,16.08-2.17" stroke-dasharray="16.229" stroke-dashoffset="16.229"><animate attributeName="stroke-dashoffset" values="16.229" fill="freeze" begin="66dc.click" /><animate attributeName="stroke-dashoffset" values="16.229;16.229;0" keyTimes="0;0.874;1" dur="1.286s" fill="freeze" begin="0s;66dc.click" /></path><path d="M41.5,16.5c1.5,0.75,2.5,0.75,4.75,0.5S56.5,15.5,58,15.25s3.5,1.5,3.5,3c0,1.22-0.17,14.07-0.23,20c-0.01,1.35-0.02,2.33-0.02,2.75" stroke-dasharray="44.566" stroke-dashoffset="44.566"><animate attributeName="stroke-dashoffset" values="44.566" fill="freeze" begin="66dc.click" /><animate attributeName="stroke-dashoffset" values="44.566;44.566;0" keyTimes="0;0.742;1" dur="1.732s" fill="freeze" begin="0s;66dc.click" /></path><path d="M43.75,28.25c1.25,0.38,2.98,0.16,4,0c2.38-0.38,9.75-2,12-2.25" stroke-dasharray="16.243" stroke-dashoffset="16.243"><animate attributeName="stroke-dashoffset" values="16.243" fill="freeze" begin="66dc.click" /><animate attributeName="stroke-dashoffset" values="16.243;16.243;0" keyTimes="0;0.914;1" dur="1.894s" fill="freeze" begin="0s;66dc.click" /></path><path d="M45,38.75c1.25,0.38,2.5,0.25,3.5,0s9.25-2,11.5-2.25" stroke-dasharray="15.265" stroke-dashoffset="15.265"><animate attributeName="stroke-dashoffset" values="15.265" fill="freeze" begin="66dc.click" /><animate attributeName="stroke-dashoffset" values="15.265;15.265;0" keyTimes="0;0.925;1" dur="2.047s" fill="freeze" begin="0s;66dc.click" /></path><path d="M70.75,14.75c1.5,0.75,2.75,1,5,0.75s12.5-1.75,14-2s3.5,1.5,3.5,3c0,1.19-0.16,13.38-0.22,19.5C93.01,37.6,93,38.78,93,39.25" stroke-dasharray="47.107" stroke-dashoffset="47.107"><animate attributeName="stroke-dashoffset" values="47.107" fill="freeze" begin="66dc.click" /><animate attributeName="stroke-dashoffset" values="47.107;47.107;0" keyTimes="0;0.813;1" dur="2.518s" fill="freeze" begin="0s;66dc.click" /></path><path d="M74.25,24.5c1.25,0.5,2.99,0.45,4,0.25c2.5-0.5,11.25-2,13.5-2.25" stroke-dasharray="17.743" stroke-dashoffset="17.743"><animate attributeName="stroke-dashoffset" values="17.743" fill="freeze" begin="66dc.click" /><animate attributeName="stroke-dashoffset" values="17.743;17.743;0" keyTimes="0;0.934;1" dur="2.695s" fill="freeze" begin="0s;66dc.click" /></path><path d="M74,35.75c1.5,0.38,3,0.25,4,0s11.5-2,13.75-2.25" stroke-dasharray="17.974" stroke-dashoffset="17.974"><animate attributeName="stroke-dashoffset" values="17.974" fill="freeze" begin="66dc.click" /><animate attributeName="stroke-dashoffset" values="17.974;17.974;0" keyTimes="0;0.937;1" dur="2.875s" fill="freeze" begin="0s;66dc.click" /></path><path d="M54.25,45c0.15,1.27-0.04,2.93-0.52,4.02c-3.07,6.93-6.95,12.8-13.98,21.23" stroke-dasharray="29.604" stroke-dashoffset="29.604"><animate attributeName="stroke-dashoffset" values="29.604" fill="freeze" begin="66dc.click" /><animate attributeName="stroke-dashoffset" values="29.604;29.604;0" keyTimes="0;0.907;1" dur="3.171s" fill="freeze" begin="0s;66dc.click" /></path><path d="M50.55,57.79c0.45,0.96,0.65,1.7,0.7,2.95c0.24,7.07-0.2,22.81-0.27,31.26c-0.02,2.51-0.01,4.47,0.06,5.5" stroke-dasharray="39.822" stroke-dashoffset="39.822"><animate attributeName="stroke-dashoffset" values="39.822" fill="freeze" begin="66dc.click" /><animate attributeName="stroke-dashoffset" values="39.822;39.822;0" keyTimes="0;0.888;1" dur="3.569s" fill="freeze" begin="0s;66dc.click" /></path><path d="M74.25,42.75c0.05,0.54-0.01,1.25-0.17,1.72c-1,2.96-2.27,5.25-4.57,8.86" stroke-dasharray="11.737" stroke-dashoffset="11.737"><animate attributeName="stroke-dashoffset" values="11.737" fill="freeze" begin="66dc.click" /><animate attributeName="stroke-dashoffset" values="11.737;11.737;0" keyTimes="0;0.938;1" dur="3.804s" fill="freeze" begin="0s;66dc.click" /></path><path d="M50.98,56.53c5.87-0.68,25.46-2.41,34.02-3.27c1.92-0.19,3.25-0.26,4.86,0.08" stroke-dasharray="39.061" stroke-dashoffset="39.061"><animate attributeName="stroke-dashoffset" values="39.061" fill="freeze" begin="66dc.click" /><animate attributeName="stroke-dashoffset" values="39.061;39.061;0" keyTimes="0;0.907;1" dur="4.195s" fill="freeze" begin="0s;66dc.click" /></path><path d="M69.83,55.88c0.67,1.12,1.12,2.27,1.12,2.83c0,5.71,0.29,22.65,0.08,31.64" stroke-dasharray="34.71" stroke-dashoffset="34.71"><animate attributeName="stroke-dashoffset" values="34.71" fill="freeze" begin="66dc.click" /><animate attributeName="stroke-dashoffset" values="34.71;34.71;0" keyTimes="0;0.924;1" dur="4.542s" fill="freeze" begin="0s;66dc.click" /></path><path d="M52.51,68.36c5.25-0.53,21.05-2.1,29.5-2.84c2-0.17,3.25-0.02,4.91,0.03" stroke-dasharray="34.552" stroke-dashoffset="34.552"><animate attributeName="stroke-dashoffset" values="34.552" fill="freeze" begin="66dc.click" /><animate attributeName="stroke-dashoffset" values="34.552;34.552;0" keyTimes="0;0.929;1" dur="4.888s" fill="freeze" begin="0s;66dc.click" /></path><path d="M52.18,79.71c5.66-0.46,22.39-1.91,31.08-2.66c2.3-0.2,3.23-0.05,4.61,0.09" stroke-dasharray="35.816" stroke-dashoffset="35.816"><animate attributeName="stroke-dashoffset" values="35.816" fill="freeze" begin="66dc.click" /><animate attributeName="stroke-dashoffset" values="35.816;35.816;0" keyTimes="0;0.932;1" dur="5.246s" fill="freeze" begin="0s;66dc.click" /></path><path d="M52.11,93.02c5.61-0.65,26.25-2.06,36.63-2.86c2.93-0.23,4.26-0.16,5.7,0" stroke-dasharray="42.453" stroke-dashoffset="42.453"><animate attributeName="stroke-dashoffset" values="42.453" fill="freeze" begin="66dc.click" /><animate attributeName="stroke-dashoffset" values="42.453;42.453;0" keyTimes="0;0.925;1" dur="5.671s" fill="freeze" begin="0s;66dc.click" /></path></g></svg>