<svg xmlns="http://www.w3.org/2000/svg" viewBox="0 0 109 109" id="6715"><g fill="none" stroke="#666" stroke-width="6" stroke-linecap="round" stroke-linejoin="round"><g><g><path d="M19.97,20.49c0.77,0.77,1.03,1.76,1.05,3.05C21.5,58,19.38,77.12,11.25,91.89" /><path d="M22.07,22.06c3.95-0.6,9.94-1.92,12.55-2.34c3.7-0.6,4.43,1.24,4.41,4.4c-0.08,9.07-0.01,45.55-0.01,62.19c0,12.61-5.91,3.55-7.7,2.04" /><path d="M22.07,40.7c5.43-0.7,10.8-1.45,15.58-1.82" /><path d="M21.01,59.15c4.99-0.52,11.89-1.28,17.04-1.7" /></g><g><path d="M51.61,20.28c2.99,2.35,7.73,9.64,8.48,13.29" /><path d="M80.02,16.64c0.05,0.99,0.04,1.74-0.31,2.68c-1.93,5.19-4.41,10.86-8.7,17.76" /><g><path d="M49.79,41.59c1.9,0.77,4.39,0.32,6.33,0.03c7.05-1.03,17.59-2.53,23.76-3.13c2.11-0.21,4.14-0.41,6.23,0.09" /><g><path d="M44.24,58.23c2.63,0.52,4.51,0.42,6.52,0.16c10.22-1.32,27.31-3.1,36.24-3.63c2.79-0.17,5.24,0.08,7.97,0.72" /><path d="M65.39,43.62c0.61,1,0.79,2.35,0.74,3.8C65.14,74.44,58,86,45.7,93.37" /><path d="M66.45,60.14c5.46,6.4,15.33,19.43,22.4,26.5c2.04,2.04,4.15,4.23,6.5,5.66" /></g></g></g></g></g><g fill="none" stroke="#000" stroke-width="3" stroke-linecap="round" stroke-linejoin="round"><path d="M19.97,20.49c0.77,0.77,1.03,1.76,1.05,3.05C21.5,58,19.38,77.12,11.25,91.89" stroke-dasharray="73.099" stroke-dashoffset="73.099"><animate attributeName="stroke-dashoffset" values="73.099;73.099;0" dur="0.55s" fill="freeze" begin="0s;6715.click" /></path><path d="M22.07,22.06c3.95-0.6,9.94-1.92,12.55-2.34c3.7-0.6,4.43,1.24,4.41,4.4c-0.08,9.07-0.01,45.55-0.01,62.19c0,12.61-5.91,3.55-7.7,2.04" stroke-dasharray="97.386" stroke-dashoffset="97.386"><animate attributeName="stroke-dashoffset" values="97.386" fill="freeze" begin="6715.click" /><animate attributeName="stroke-dashoffset" values="97.386;97.386;0" keyTimes="0;0.429;1" dur="1.282s" fill="freeze" begin="0s;6715.click" /></path><path d="M22.07,40.7c5.43-0.7,10.8-1.45,15.58-1.82" stroke-dasharray="15.689" stroke-dashoffset="15.689"><animate attributeName="stroke-dashoffset" values="15.689" fill="freeze" begin="6715.click" /><animate attributeName="stroke-dashoffset" values="15.689;15.689;0" keyTimes="0;0.891;1" dur="1.439s" fill="freeze" begin="0s;6715.click" /></path><path d="M21.01,59.15c4.99-0.52,11.89-1.28,17.04-1.7" stroke-dasharray="17.126" stroke-dashoffset="17.126"><animate attributeName="stroke-dashoffset" values="17.126" fill="freeze" begin="6715.click" /><animate attributeName="stroke-dashoffset" values="17.126;17.126;0" keyTimes="0;0.894;1" dur="1.61s" fill="freeze" begin="0s;6715.click" /></path><path d="M51.61,20.28c2.99,2.35,7.73,9.64,8.48,13.29" stroke-dasharray="15.951" stroke-dashoffset="15.951"><animate attributeName="stroke-dashoffset" values="15.951" fill="freeze" begin="6715.click" /><animate attributeName="stroke-dashoffset" values="15.951;15.951;0" keyTimes="0;0.91;1" dur="1.77s" fill="freeze" begin="0s;6715.click" /></path><path d="M80.02,16.64c0.05,0.99,0.04,1.74-0.31,2.68c-1.93,5.19-4.41,10.86-8.7,17.76" stroke-dasharray="22.533" stroke-dashoffset="22.533"><animate attributeName="stroke-dashoffset" values="22.533" fill="freeze" begin="6715.click" /><animate attributeName="stroke-dashoffset" values="22.533;22.533;0" keyTimes="0;0.887;1" dur="1.995s" fill="freeze" begin="0s;6715.click" /></path><path d="M49.79,41.59c1.9,0.77,4.39,0.32,6.33,0.03c7.05-1.03,17.59-2.53,23.76-3.13c2.11-0.21,4.14-0.41,6.23,0.09" stroke-dasharray="36.637" stroke-dashoffset="36.637"><animate attributeName="stroke-dashoffset" values="36.637" fill="freeze" begin="6715.click" /><animate attributeName="stroke-dashoffset" values="36.637;36.637;0" keyTimes="0;0.845;1" dur="2.361s" fill="freeze" begin="0s;6715.click" /></path><path d="M44.24,58.23c2.63,0.52,4.51,0.42,6.52,0.16c10.22-1.32,27.31-3.1,36.24-3.63c2.79-0.17,5.24,0.08,7.97,0.72" stroke-dasharray="51.015" stroke-dashoffset="51.015"><animate attributeName="stroke-dashoffset" values="51.015" fill="freeze" begin="6715.click" /><animate attributeName="stroke-dashoffset" values="51.015;51.015;0" keyTimes="0;0.822;1" dur="2.871s" fill="freeze" begin="0s;6715.click" /></path><path d="M65.39,43.62c0.61,1,0.79,2.35,0.74,3.8C65.14,74.44,58,86,45.7,93.37" stroke-dasharray="56.664" stroke-dashoffset="56.664"><animate attributeName="stroke-dashoffset" values="56.664" fill="freeze" begin="6715.click" /><animate attributeName="stroke-dashoffset" values="56.664;56.664;0" keyTimes="0;0.835;1" dur="3.438s" fill="freeze" begin="0s;6715.click" /></path><path d="M66.45,60.14c5.46,6.4,15.33,19.43,22.4,26.5c2.04,2.04,4.15,4.23,6.5,5.66" stroke-dasharray="43.352" stroke-dashoffset="43.352"><animate attributeName="stroke-dashoffset" values="43.352" fill="freeze" begin="6715.click" /><animate attributeName="stroke-dashoffset" values="43.352;43.352;0" keyTimes="0;0.888;1" dur="3.872s" fill="freeze" begin="0s;6715.click" /></path></g></svg>