<svg xmlns="http://www.w3.org/2000/svg" viewBox="0 0 109 109" id="672b"><g fill="none" stroke="#666" stroke-width="6" stroke-linecap="round" stroke-linejoin="round"><g><path d="M17.75,31.2c3.38,0.8,6.46,0.85,9.52,0.51c13.98-1.58,41.74-4.25,55.23-5c3.05-0.17,6-0.3,9,0.34" /><g><path d="M27.12,51.75c2.07,0.62,4.13,0.66,7.07,0.25c12.56-1.75,26.81-3.38,40.73-4.25c2.96-0.19,5.1,0,6.96,0.25" /><path d="M52.5,10.75c1.25,1.25,2.25,3,2.25,4.75c0,0.87,0,53.95,0,75.62c0,4.12,0,7.1,0,8.38" /><g><path d="M53.25,50.5c0,1.75-0.72,2.84-1.43,3.92C43.77,66.75,27.21,82.41,13.75,89" /></g><path d="M55.62,51.88c4.35,5.37,20.9,21.25,28.87,28.51c2.47,2.25,4.68,4.01,7.76,5.37" /></g></g></g><g fill="none" stroke="#000" stroke-width="3" stroke-linecap="round" stroke-linejoin="round"><path d="M17.75,31.2c3.38,0.8,6.46,0.85,9.52,0.51c13.98-1.58,41.74-4.25,55.23-5c3.05-0.17,6-0.3,9,0.34" stroke-dasharray="74.08" stroke-dashoffset="74.08"><animate attributeName="stroke-dashoffset" values="74.08;74.08;0" dur="0.557s" fill="freeze" begin="0s;672b.click" /></path><path d="M27.12,51.75c2.07,0.62,4.13,0.66,7.07,0.25c12.56-1.75,26.81-3.38,40.73-4.25c2.96-0.19,5.1,0,6.96,0.25" stroke-dasharray="55.072" stroke-dashoffset="55.072"><animate attributeName="stroke-dashoffset" values="55.072" fill="freeze" begin="672b.click" /><animate attributeName="stroke-dashoffset" values="55.072;55.072;0" keyTimes="0;0.503;1" dur="1.108s" fill="freeze" begin="0s;672b.click" /></path><path d="M52.5,10.75c1.25,1.25,2.25,3,2.25,4.75c0,0.87,0,53.95,0,75.62c0,4.12,0,7.1,0,8.38" stroke-dasharray="89.388" stroke-dashoffset="89.388"><animate attributeName="stroke-dashoffset" values="89.388" fill="freeze" begin="672b.click" /><animate attributeName="stroke-dashoffset" values="89.388;89.388;0" keyTimes="0;0.622;1" dur="1.78s" fill="freeze" begin="0s;672b.click" /></path><path d="M53.25,50.5c0,1.75-0.72,2.84-1.43,3.92C43.77,66.75,27.21,82.41,13.75,89" stroke-dasharray="56.161" stroke-dashoffset="56.161"><animate attributeName="stroke-dashoffset" values="56.161" fill="freeze" begin="672b.click" /><animate attributeName="stroke-dashoffset" values="56.161;56.161;0" keyTimes="0;0.76;1" dur="2.342s" fill="freeze" begin="0s;672b.click" /></path><path d="M55.62,51.88c4.35,5.37,20.9,21.25,28.87,28.51c2.47,2.25,4.68,4.01,7.76,5.37" stroke-dasharray="50.076" stroke-dashoffset="50.076"><animate attributeName="stroke-dashoffset" values="50.076" fill="freeze" begin="672b.click" /><animate attributeName="stroke-dashoffset" values="50.076;50.076;0" keyTimes="0;0.824;1" dur="2.843s" fill="freeze" begin="0s;672b.click" /></path></g></svg>