<svg xmlns="http://www.w3.org/2000/svg" viewBox="0 0 109 109" id="6764"><g fill="none" stroke="#666" stroke-width="6" stroke-linecap="round" stroke-linejoin="round"><g><g><path d="M13.5,38.46c0.56,0.16,2.24,0.63,3.71,0.5c5.2-0.47,18.69-2.75,24.26-3.06c1.48-0.08,2.6,0.03,3.53,0.19" /><path d="M29.5,14.5c1.25,0.5,2,2.25,2.25,3.25s0,72.25-0.25,78.5" /><path d="M31.75,38.5C28.37,50.37,18.29,70.28,11.25,77" /><path d="M34.25,45.75c3.31,2.1,6.86,6.32,8.75,10" /></g><g><g><path d="M47.06,24.53c1.1,0.5,3.13,0.58,4.23,0.5c11.49-0.83,25.52-3.77,40.47-3.74c1.84,0,2.94,0.24,3.86,0.49" /></g><path d="M68.32,36.74c4.91,2.99,14.93,6.51,20.55,7.48c3.34,0.58,3.23,2.14,2.62,4.4c-4.18,15.45-7.99,30.14-14.86,40.84c-5.58,8.69-7.63,0.23-8.99-0.51" /><path d="M69.18,26.24c0.08,1.46,0.26,3.77-0.16,5.85C66.25,45.75,56.75,74,41.1,88.03" /></g></g></g><g fill="none" stroke="#000" stroke-width="3" stroke-linecap="round" stroke-linejoin="round"><path d="M13.5,38.46c0.56,0.16,2.24,0.63,3.71,0.5c5.2-0.47,18.69-2.75,24.26-3.06c1.48-0.08,2.6,0.03,3.53,0.19" stroke-dasharray="31.764" stroke-dashoffset="31.764"><animate attributeName="stroke-dashoffset" values="31.764;31.764;0" dur="0.318s" fill="freeze" begin="0s;6764.click" /></path><path d="M29.5,14.5c1.25,0.5,2,2.25,2.25,3.25s0,72.25-0.25,78.5" stroke-dasharray="82.586" stroke-dashoffset="82.586"><animate attributeName="stroke-dashoffset" values="82.586" fill="freeze" begin="6764.click" /><animate attributeName="stroke-dashoffset" values="82.586;82.586;0" keyTimes="0;0.339;1" dur="0.939s" fill="freeze" begin="0s;6764.click" /></path><path d="M31.75,38.5C28.37,50.37,18.29,70.28,11.25,77" stroke-dasharray="43.934" stroke-dashoffset="43.934"><animate attributeName="stroke-dashoffset" values="43.934" fill="freeze" begin="6764.click" /><animate attributeName="stroke-dashoffset" values="43.934;43.934;0" keyTimes="0;0.681;1" dur="1.378s" fill="freeze" begin="0s;6764.click" /></path><path d="M34.25,45.75c3.31,2.1,6.86,6.32,8.75,10" stroke-dasharray="13.42" stroke-dashoffset="13.42"><animate attributeName="stroke-dashoffset" values="13.42" fill="freeze" begin="6764.click" /><animate attributeName="stroke-dashoffset" values="13.42;13.42;0" keyTimes="0;0.837;1" dur="1.646s" fill="freeze" begin="0s;6764.click" /></path><path d="M47.06,24.53c1.1,0.5,3.13,0.58,4.23,0.5c11.49-0.83,25.52-3.77,40.47-3.74c1.84,0,2.94,0.24,3.86,0.49" stroke-dasharray="48.866" stroke-dashoffset="48.866"><animate attributeName="stroke-dashoffset" values="48.866" fill="freeze" begin="6764.click" /><animate attributeName="stroke-dashoffset" values="48.866;48.866;0" keyTimes="0;0.771;1" dur="2.135s" fill="freeze" begin="0s;6764.click" /></path><path d="M68.32,36.74c4.91,2.99,14.93,6.51,20.55,7.48c3.34,0.58,3.23,2.14,2.62,4.4c-4.18,15.45-7.99,30.14-14.86,40.84c-5.58,8.69-7.63,0.23-8.99-0.51" stroke-dasharray="84.506" stroke-dashoffset="84.506"><animate attributeName="stroke-dashoffset" values="84.506" fill="freeze" begin="6764.click" /><animate attributeName="stroke-dashoffset" values="84.506;84.506;0" keyTimes="0;0.771;1" dur="2.77s" fill="freeze" begin="0s;6764.click" /></path><path d="M69.18,26.24c0.08,1.46,0.26,3.77-0.16,5.85C66.25,45.75,56.75,74,41.1,88.03" stroke-dasharray="69.262" stroke-dashoffset="69.262"><animate attributeName="stroke-dashoffset" values="69.262" fill="freeze" begin="6764.click" /><animate attributeName="stroke-dashoffset" values="69.262;69.262;0" keyTimes="0;0.842;1" dur="3.291s" fill="freeze" begin="0s;6764.click" /></path></g></svg>