<svg xmlns="http://www.w3.org/2000/svg" viewBox="0 0 109 109" id="67d8"><g fill="none" stroke="#666" stroke-width="6" stroke-linecap="round" stroke-linejoin="round"><g><g><path d="M12.28,38.25c0.39,0.23,2.68,0.38,3.71,0.29c4.43-0.38,19.22-2.07,26.33-3.2c1.03-0.16,1.29-0.23,1.94,0" /><path d="M29.36,13.5c0.91,0.47,2.54,2,2.54,4.92c0,0.95-0.12,70.25-0.3,76.08" /><path d="M31.44,39.78c-6.15,15.26-9.57,21.7-19.08,35.06" /><path d="M34.47,48.65c2.68,1.55,6.4,6.88,8.66,9.89" /></g><g><path d="M45.93,29.2c0.92,0.35,2.97,0.45,3.89,0.35c11.53-1.24,28.52-4.31,42.34-4.51c1.54-0.02,2.46,0.17,3.22,0.35" /><path d="M62.99,31.43c0.06,1.06,0.13,2.74-0.12,4.26c-1.48,8.99-9.98,28.73-21.62,40.81" /><g><path d="M55.63,61.99c0.62,0.76,1.03,1.63,1.12,2.47c0.62,6.12,1.86,16.7,2.73,28.29" /><path d="M56.88,63.03c6.92-1.23,27.79-3.85,32.52-4.04c1.95-0.08,3.18,1.83,2.84,3.6c-1.2,6.1-3.54,14.73-4.54,25.16" /><path d="M59.34,90.62c5.54-0.62,23.21-2.19,30.28-2.37" /></g></g></g></g><g fill="none" stroke="#000" stroke-width="3" stroke-linecap="round" stroke-linejoin="round"><path d="M12.28,38.25c0.39,0.23,2.68,0.38,3.71,0.29c4.43-0.38,19.22-2.07,26.33-3.2c1.03-0.16,1.29-0.23,1.94,0" stroke-dasharray="32.237" stroke-dashoffset="32.237"><animate attributeName="stroke-dashoffset" values="32.237;32.237;0" dur="0.322s" fill="freeze" begin="0s;67d8.click" /></path><path d="M29.36,13.5c0.91,0.47,2.54,2,2.54,4.92c0,0.95-0.12,70.25-0.3,76.08" stroke-dasharray="81.888" stroke-dashoffset="81.888"><animate attributeName="stroke-dashoffset" values="81.888" fill="freeze" begin="67d8.click" /><animate attributeName="stroke-dashoffset" values="81.888;81.888;0" keyTimes="0;0.343;1" dur="0.938s" fill="freeze" begin="0s;67d8.click" /></path><path d="M31.44,39.78c-6.15,15.26-9.57,21.7-19.08,35.06" stroke-dasharray="40.045" stroke-dashoffset="40.045"><animate attributeName="stroke-dashoffset" values="40.045" fill="freeze" begin="67d8.click" /><animate attributeName="stroke-dashoffset" values="40.045;40.045;0" keyTimes="0;0.701;1" dur="1.338s" fill="freeze" begin="0s;67d8.click" /></path><path d="M34.47,48.65c2.68,1.55,6.4,6.88,8.66,9.89" stroke-dasharray="13.211" stroke-dashoffset="13.211"><animate attributeName="stroke-dashoffset" values="13.211" fill="freeze" begin="67d8.click" /><animate attributeName="stroke-dashoffset" values="13.211;13.211;0" keyTimes="0;0.835;1" dur="1.602s" fill="freeze" begin="0s;67d8.click" /></path><path d="M45.93,29.2c0.92,0.35,2.97,0.45,3.89,0.35c11.53-1.24,28.52-4.31,42.34-4.51c1.54-0.02,2.46,0.17,3.22,0.35" stroke-dasharray="49.78" stroke-dashoffset="49.78"><animate attributeName="stroke-dashoffset" values="49.78" fill="freeze" begin="67d8.click" /><animate attributeName="stroke-dashoffset" values="49.78;49.78;0" keyTimes="0;0.763;1" dur="2.1s" fill="freeze" begin="0s;67d8.click" /></path><path d="M62.99,31.43c0.06,1.06,0.13,2.74-0.12,4.26c-1.48,8.99-9.98,28.73-21.62,40.81" stroke-dasharray="50.962" stroke-dashoffset="50.962"><animate attributeName="stroke-dashoffset" values="50.962" fill="freeze" begin="67d8.click" /><animate attributeName="stroke-dashoffset" values="50.962;50.962;0" keyTimes="0;0.805;1" dur="2.61s" fill="freeze" begin="0s;67d8.click" /></path><path d="M55.63,61.99c0.62,0.76,1.03,1.63,1.12,2.47c0.62,6.12,1.86,16.7,2.73,28.29" stroke-dasharray="31.173" stroke-dashoffset="31.173"><animate attributeName="stroke-dashoffset" values="31.173" fill="freeze" begin="67d8.click" /><animate attributeName="stroke-dashoffset" values="31.173;31.173;0" keyTimes="0;0.893;1" dur="2.922s" fill="freeze" begin="0s;67d8.click" /></path><path d="M56.88,63.03c6.92-1.23,27.79-3.85,32.52-4.04c1.95-0.08,3.18,1.83,2.84,3.6c-1.2,6.1-3.54,14.73-4.54,25.16" stroke-dasharray="63.633" stroke-dashoffset="63.633"><animate attributeName="stroke-dashoffset" values="63.633" fill="freeze" begin="67d8.click" /><animate attributeName="stroke-dashoffset" values="63.633;63.633;0" keyTimes="0;0.859;1" dur="3.4s" fill="freeze" begin="0s;67d8.click" /></path><path d="M59.34,90.62c5.54-0.62,23.21-2.19,30.28-2.37" stroke-dasharray="30.378" stroke-dashoffset="30.378"><animate attributeName="stroke-dashoffset" values="30.378" fill="freeze" begin="67d8.click" /><animate attributeName="stroke-dashoffset" values="30.378;30.378;0" keyTimes="0;0.918;1" dur="3.704s" fill="freeze" begin="0s;67d8.click" /></path></g></svg>