<svg xmlns="http://www.w3.org/2000/svg" viewBox="0 0 109 109" id="6848"><g fill="none" stroke="#666" stroke-width="6" stroke-linecap="round" stroke-linejoin="round"><g><g p4:phon="хоЙ" xmlns:p4="http://kanjivg.tagaini.net"><g><path d="M54.53,9.95c1.07,1.07,1.61,2.17,1.61,3.36c0,2.44-0.07,3.58-0.07,5.79" /><g><path d="M25.38,21.75c0,3.05-2.26,11.63-3.29,13.75" /><path d="M26.47,23.54c13.97-1.85,50.2-5.16,56.57-5.46c9.53-0.44,3.21,4.66-1.51,7.48" /></g></g><g><path d="M50.4,27.69c0.35,0.68,0.28,1.97-0.24,2.98c-2.04,3.95-5.04,9.57-11.61,16.36c-1.36,1.4-0.74,2.41,0.26,2.35c8.41-0.53,21.28,1.68,31.22,5.29c4.32,1.57,8.09,3.4,10.7,5.39" /><path d="M68.25,31.88c0.21,0.94,0.2,2.35-0.23,3.36c-3.52,8.18-13.38,21.51-38.94,26.96" /><path d="M13,41.5c3.38,0.38,6.82,0.33,10.38-0.05c15.87-1.7,45.49-3.95,62.13-4.97c2.97-0.18,6.35-0.06,9.24,0.52" /></g></g><g><path d="M23.64,71.15c3.16,0.5,6.45,0.18,9.59-0.12c8.85-0.87,28.57-2.56,44.26-3.28c3.25-0.15,6.77-0.28,9.99,0.41" /><path d="M53.09,60.75c0.89,0.89,1.35,2.49,1.35,3.5c0,2.12-0.1,18.5-0.14,28.38c-0.01,2.33-0.01,4.29-0.01,5.62" /><path d="M52.25,70.25c0,0.62-0.4,1.84-1.19,2.89c-7.44,9.93-19.96,19.99-34.31,23.61" /><path d="M54.75,70.75c4.36,2.71,21.13,13.94,29.7,19.33c2.96,1.86,5.05,3.05,8.55,4.17" /></g></g></g><g fill="none" stroke="#000" stroke-width="3" stroke-linecap="round" stroke-linejoin="round"><path d="M54.53,9.95c1.07,1.07,1.61,2.17,1.61,3.36c0,2.44-0.07,3.58-0.07,5.79" stroke-dasharray="9.62" stroke-dashoffset="9.62"><animate attributeName="stroke-dashoffset" values="9.62;9.62;0" dur="0.192s" fill="freeze" begin="0s;6848.click" /></path><path d="M25.38,21.75c0,3.05-2.26,11.63-3.29,13.75" stroke-dasharray="14.189" stroke-dashoffset="14.189"><animate attributeName="stroke-dashoffset" values="14.189" fill="freeze" begin="6848.click" /><animate attributeName="stroke-dashoffset" values="14.189;14.189;0" keyTimes="0;0.403;1" dur="0.476s" fill="freeze" begin="0s;6848.click" /></path><path d="M26.47,23.54c13.97-1.85,50.2-5.16,56.57-5.46c9.53-0.44,3.21,4.66-1.51,7.48" stroke-dasharray="71.491" stroke-dashoffset="71.491"><animate attributeName="stroke-dashoffset" values="71.491" fill="freeze" begin="6848.click" /><animate attributeName="stroke-dashoffset" values="71.491;71.491;0" keyTimes="0;0.469;1" dur="1.014s" fill="freeze" begin="0s;6848.click" /></path><path d="M50.4,27.69c0.35,0.68,0.28,1.97-0.24,2.98c-2.04,3.95-5.04,9.57-11.61,16.36c-1.36,1.4-0.74,2.41,0.26,2.35c8.41-0.53,21.28,1.68,31.22,5.29c4.32,1.57,8.09,3.4,10.7,5.39" stroke-dasharray="70.355" stroke-dashoffset="70.355"><animate attributeName="stroke-dashoffset" values="70.355" fill="freeze" begin="6848.click" /><animate attributeName="stroke-dashoffset" values="70.355;70.355;0" keyTimes="0;0.657;1" dur="1.543s" fill="freeze" begin="0s;6848.click" /></path><path d="M68.25,31.88c0.21,0.94,0.2,2.35-0.23,3.36c-3.52,8.18-13.38,21.51-38.94,26.96" stroke-dasharray="52.611" stroke-dashoffset="52.611"><animate attributeName="stroke-dashoffset" values="52.611" fill="freeze" begin="6848.click" /><animate attributeName="stroke-dashoffset" values="52.611;52.611;0" keyTimes="0;0.746;1" dur="2.069s" fill="freeze" begin="0s;6848.click" /></path><path d="M13,41.5c3.38,0.38,6.82,0.33,10.38-0.05c15.87-1.7,45.49-3.95,62.13-4.97c2.97-0.18,6.35-0.06,9.24,0.52" stroke-dasharray="82.013" stroke-dashoffset="82.013"><animate attributeName="stroke-dashoffset" values="82.013" fill="freeze" begin="6848.click" /><animate attributeName="stroke-dashoffset" values="82.013;82.013;0" keyTimes="0;0.77;1" dur="2.686s" fill="freeze" begin="0s;6848.click" /></path><path d="M23.64,71.15c3.16,0.5,6.45,0.18,9.59-0.12c8.85-0.87,28.57-2.56,44.26-3.28c3.25-0.15,6.77-0.28,9.99,0.41" stroke-dasharray="64.031" stroke-dashoffset="64.031"><animate attributeName="stroke-dashoffset" values="64.031" fill="freeze" begin="6848.click" /><animate attributeName="stroke-dashoffset" values="64.031;64.031;0" keyTimes="0;0.848;1" dur="3.167s" fill="freeze" begin="0s;6848.click" /></path><path d="M53.09,60.75c0.89,0.89,1.35,2.49,1.35,3.5c0,2.12-0.1,18.5-0.14,28.38c-0.01,2.33-0.01,4.29-0.01,5.62" stroke-dasharray="37.834" stroke-dashoffset="37.834"><animate attributeName="stroke-dashoffset" values="37.834" fill="freeze" begin="6848.click" /><animate attributeName="stroke-dashoffset" values="37.834;37.834;0" keyTimes="0;0.893;1" dur="3.545s" fill="freeze" begin="0s;6848.click" /></path><path d="M52.25,70.25c0,0.62-0.4,1.84-1.19,2.89c-7.44,9.93-19.96,19.99-34.31,23.61" stroke-dasharray="45.58" stroke-dashoffset="45.58"><animate attributeName="stroke-dashoffset" values="45.58" fill="freeze" begin="6848.click" /><animate attributeName="stroke-dashoffset" values="45.58;45.58;0" keyTimes="0;0.886;1" dur="4.001s" fill="freeze" begin="0s;6848.click" /></path><path d="M54.75,70.75c4.36,2.71,21.13,13.94,29.7,19.33c2.96,1.86,5.05,3.05,8.55,4.17" stroke-dasharray="44.982" stroke-dashoffset="44.982"><animate attributeName="stroke-dashoffset" values="44.982" fill="freeze" begin="6848.click" /><animate attributeName="stroke-dashoffset" values="44.982;44.982;0" keyTimes="0;0.899;1" dur="4.451s" fill="freeze" begin="0s;6848.click" /></path></g></svg>