<svg xmlns="http://www.w3.org/2000/svg" viewBox="0 0 109 109" id="68b5"><g fill="none" stroke="#666" stroke-width="6" stroke-linecap="round" stroke-linejoin="round"><g><g><g><path d="M15.66,24.6c0.7,0.17,2.82,0.65,4.69,0.5c6.56-0.52,15.83-2.38,22.86-2.72c1.87-0.09,3.28-0.52,4.45-0.34" /><path d="M33.57,12.38c0.68,0.62,1.61,2.01,1.61,2.74c0,8.14-0.23,28.14-0.23,34.95" /><path d="M34.74,24.97c-3.18,6.58-12.64,17.62-19.25,21.34" /><path d="M38.11,29.54c2.68,1.54,6.02,4.41,8.36,6.84" /></g><g><path d="M56.02,22.35c0.57,0.17,1.33,0.45,2.85,0.52c4.18,0.17,16.23-1.71,26.69-2.57c1.52-0.12,2.84-0.17,3.79,0" /><path d="M70.06,10.5c1.17,0.34,2.11,2.51,2.11,3.24c0,5.51,0,30.21-0.23,34.51" /><path d="M71.49,22.4c-3.17,7.4-13.01,17.7-20.35,21.49" /><path d="M72.37,24.7c5.39,5.42,14.02,12.38,18.4,14.52c1.25,0.61,1.94,1.03,2.99,1.24" /></g></g><g><g><g><path d="M38.74,55.65c0.7,1.05,1.27,2.37,1.2,3.68C39,75.75,34.75,91.25,19.34,98.5" /></g><path d="M40.28,58.8c3.31-0.43,22.33-3.45,24.97-3.88c2.65-0.43,4.14,0.85,3.85,3.09c-1.1,8.74-1.06,27.13-1.06,28.71c0,8.27,2.6,10.52,12.75,10.52c10.96,0,12.41-1.75,12.41-7.7" /></g><g><path d="M47.77,70.84c6.08,3.63,9.56,7.49,11.44,10.9" /></g></g></g></g><g fill="none" stroke="#000" stroke-width="3" stroke-linecap="round" stroke-linejoin="round"><path d="M15.66,24.6c0.7,0.17,2.82,0.65,4.69,0.5c6.56-0.52,15.83-2.38,22.86-2.72c1.87-0.09,3.28-0.52,4.45-0.34" stroke-dasharray="32.237" stroke-dashoffset="32.237"><animate attributeName="stroke-dashoffset" values="32.237;32.237;0" dur="0.322s" fill="freeze" begin="0s;68b5.click" /></path><path d="M33.57,12.38c0.68,0.62,1.61,2.01,1.61,2.74c0,8.14-0.23,28.14-0.23,34.95" stroke-dasharray="38.187" stroke-dashoffset="38.187"><animate attributeName="stroke-dashoffset" values="38.187" fill="freeze" begin="68b5.click" /><animate attributeName="stroke-dashoffset" values="38.187;38.187;0" keyTimes="0;0.457;1" dur="0.704s" fill="freeze" begin="0s;68b5.click" /></path><path d="M34.74,24.97c-3.18,6.58-12.64,17.62-19.25,21.34" stroke-dasharray="29.031" stroke-dashoffset="29.031"><animate attributeName="stroke-dashoffset" values="29.031" fill="freeze" begin="68b5.click" /><animate attributeName="stroke-dashoffset" values="29.031;29.031;0" keyTimes="0;0.708;1" dur="0.994s" fill="freeze" begin="0s;68b5.click" /></path><path d="M38.11,29.54c2.68,1.54,6.02,4.41,8.36,6.84" stroke-dasharray="10.833" stroke-dashoffset="10.833"><animate attributeName="stroke-dashoffset" values="10.833" fill="freeze" begin="68b5.click" /><animate attributeName="stroke-dashoffset" values="10.833;10.833;0" keyTimes="0;0.821;1" dur="1.211s" fill="freeze" begin="0s;68b5.click" /></path><path d="M56.02,22.35c0.57,0.17,1.33,0.45,2.85,0.52c4.18,0.17,16.23-1.71,26.69-2.57c1.52-0.12,2.84-0.17,3.79,0" stroke-dasharray="33.531" stroke-dashoffset="33.531"><animate attributeName="stroke-dashoffset" values="33.531" fill="freeze" begin="68b5.click" /><animate attributeName="stroke-dashoffset" values="33.531;33.531;0" keyTimes="0;0.783;1" dur="1.546s" fill="freeze" begin="0s;68b5.click" /></path><path d="M70.06,10.5c1.17,0.34,2.11,2.51,2.11,3.24c0,5.51,0,30.21-0.23,34.51" stroke-dasharray="38.545" stroke-dashoffset="38.545"><animate attributeName="stroke-dashoffset" values="38.545" fill="freeze" begin="68b5.click" /><animate attributeName="stroke-dashoffset" values="38.545;38.545;0" keyTimes="0;0.801;1" dur="1.931s" fill="freeze" begin="0s;68b5.click" /></path><path d="M71.49,22.4c-3.17,7.4-13.01,17.7-20.35,21.49" stroke-dasharray="30.017" stroke-dashoffset="30.017"><animate attributeName="stroke-dashoffset" values="30.017" fill="freeze" begin="68b5.click" /><animate attributeName="stroke-dashoffset" values="30.017;30.017;0" keyTimes="0;0.866;1" dur="2.231s" fill="freeze" begin="0s;68b5.click" /></path><path d="M72.37,24.7c5.39,5.42,14.02,12.38,18.4,14.52c1.25,0.61,1.94,1.03,2.99,1.24" stroke-dasharray="26.757" stroke-dashoffset="26.757"><animate attributeName="stroke-dashoffset" values="26.757" fill="freeze" begin="68b5.click" /><animate attributeName="stroke-dashoffset" values="26.757;26.757;0" keyTimes="0;0.893;1" dur="2.499s" fill="freeze" begin="0s;68b5.click" /></path><path d="M38.74,55.65c0.7,1.05,1.27,2.37,1.2,3.68C39,75.75,34.75,91.25,19.34,98.5" stroke-dasharray="50.644" stroke-dashoffset="50.644"><animate attributeName="stroke-dashoffset" values="50.644" fill="freeze" begin="68b5.click" /><animate attributeName="stroke-dashoffset" values="50.644;50.644;0" keyTimes="0;0.832;1" dur="3.005s" fill="freeze" begin="0s;68b5.click" /></path><path d="M40.28,58.8c3.31-0.43,22.33-3.45,24.97-3.88c2.65-0.43,4.14,0.85,3.85,3.09c-1.1,8.74-1.06,27.13-1.06,28.71c0,8.27,2.6,10.52,12.75,10.52c10.96,0,12.41-1.75,12.41-7.7" stroke-dasharray="96.907" stroke-dashoffset="96.907"><animate attributeName="stroke-dashoffset" values="96.907" fill="freeze" begin="68b5.click" /><animate attributeName="stroke-dashoffset" values="96.907;96.907;0" keyTimes="0;0.805;1" dur="3.734s" fill="freeze" begin="0s;68b5.click" /></path><path d="M47.77,70.84c6.08,3.63,9.56,7.49,11.44,10.9" stroke-dasharray="15.984" stroke-dashoffset="15.984"><animate attributeName="stroke-dashoffset" values="15.984" fill="freeze" begin="68b5.click" /><animate attributeName="stroke-dashoffset" values="15.984;15.984;0" keyTimes="0;0.959;1" dur="3.894s" fill="freeze" begin="0s;68b5.click" /></path></g></svg>