<svg xmlns="http://www.w3.org/2000/svg" viewBox="0 0 109 109" id="68c6"><g fill="none" stroke="#666" stroke-width="6" stroke-linecap="round" stroke-linejoin="round"><g><g><path d="M12.28,38.22c0.35,0.24,2.39,0.41,3.31,0.31c3.94-0.41,16.12-1.71,22.45-2.91c0.92-0.17,2.15-0.24,2.73,0" /><path d="M26.36,15.5c0.91,0.47,2.04,2,2.04,4.42c0,0.95-0.12,67.75-0.3,73.58" /><path d="M27.94,40.28c-5.1,15.04-7.94,21.4-15.83,34.56" /><path d="M30.47,47.9c2.37,1.59,6.28,6.76,8.28,9.85" /></g><g><g><path d="M64.58,10.4c0.07,0.95,0.14,2.45-0.13,3.8c-1.6,8.03-9.66,24.97-22.71,36.92" /><path d="M65.37,16.38c5.16,5.23,21.69,25.32,26.04,29.66c1.48,1.47,3.38,2.1,4.85,2.52" /></g><g><g><path d="M53.16,45.85c0.76,0.31,2.16,0.4,2.92,0.31c4.86-0.54,16.21-1.97,21.66-2.27c1.27-0.07,2.04,0.15,2.67,0.3" /></g><g><g><path d="M47.38,56.16c0.47,0.65,1.04,1.67,1.11,2.82c0.38,6.19-0.52,30.61,0.03,36.91" /><path d="M48.99,59.54c6.02-0.28,35.31-2.87,36.5-3c2.54-0.28,3.43,2.78,3.45,4.04c0.08,6.74-0.08,17.82-0.19,29.83c-0.07,7.93-2.46,5.24-5.65,2.35" /></g><g><g><path d="M49.32,75.27c4.82-0.25,35.98-2.3,39.38-2.39" /></g><g><path d="M60.89,60.53c0.7,0.82,1.18,1.76,1.21,4.38c0.17,12.59-0.24,23.27-0.29,27.55" /></g><g><path d="M73.45,59.87c0.7,0.82,1.18,1.77,1.21,4.39c0.17,12.59-0.24,24.94-0.28,29.22" /></g></g></g></g></g></g></g><g fill="none" stroke="#000" stroke-width="3" stroke-linecap="round" stroke-linejoin="round"><path d="M12.28,38.22c0.35,0.24,2.39,0.41,3.31,0.31c3.94-0.41,16.12-1.71,22.45-2.91c0.92-0.17,2.15-0.24,2.73,0" stroke-dasharray="28.748" stroke-dashoffset="28.748"><animate attributeName="stroke-dashoffset" values="28.748;28.748;0" dur="0.287s" fill="freeze" begin="0s;68c6.click" /></path><path d="M26.36,15.5c0.91,0.47,2.04,2,2.04,4.42c0,0.95-0.12,67.75-0.3,73.58" stroke-dasharray="78.669" stroke-dashoffset="78.669"><animate attributeName="stroke-dashoffset" values="78.669" fill="freeze" begin="68c6.click" /><animate attributeName="stroke-dashoffset" values="78.669;78.669;0" keyTimes="0;0.327;1" dur="0.878s" fill="freeze" begin="0s;68c6.click" /></path><path d="M27.94,40.28c-5.1,15.04-7.94,21.4-15.83,34.56" stroke-dasharray="38.114" stroke-dashoffset="38.114"><animate attributeName="stroke-dashoffset" values="38.114" fill="freeze" begin="68c6.click" /><animate attributeName="stroke-dashoffset" values="38.114;38.114;0" keyTimes="0;0.697;1" dur="1.259s" fill="freeze" begin="0s;68c6.click" /></path><path d="M30.47,47.9c2.37,1.59,6.28,6.76,8.28,9.85" stroke-dasharray="12.924" stroke-dashoffset="12.924"><animate attributeName="stroke-dashoffset" values="12.924" fill="freeze" begin="68c6.click" /><animate attributeName="stroke-dashoffset" values="12.924;12.924;0" keyTimes="0;0.83;1" dur="1.517s" fill="freeze" begin="0s;68c6.click" /></path><path d="M64.58,10.4c0.07,0.95,0.14,2.45-0.13,3.8c-1.6,8.03-9.66,24.97-22.71,36.92" stroke-dasharray="47.72" stroke-dashoffset="47.72"><animate attributeName="stroke-dashoffset" values="47.72" fill="freeze" begin="68c6.click" /><animate attributeName="stroke-dashoffset" values="47.72;47.72;0" keyTimes="0;0.761;1" dur="1.994s" fill="freeze" begin="0s;68c6.click" /></path><path d="M65.37,16.38c5.16,5.23,21.69,25.32,26.04,29.66c1.48,1.47,3.38,2.1,4.85,2.52" stroke-dasharray="45.003" stroke-dashoffset="45.003"><animate attributeName="stroke-dashoffset" values="45.003" fill="freeze" begin="68c6.click" /><animate attributeName="stroke-dashoffset" values="45.003;45.003;0" keyTimes="0;0.816;1" dur="2.444s" fill="freeze" begin="0s;68c6.click" /></path><path d="M53.16,45.85c0.76,0.31,2.16,0.4,2.92,0.31c4.86-0.54,16.21-1.97,21.66-2.27c1.27-0.07,2.04,0.15,2.67,0.3" stroke-dasharray="27.44" stroke-dashoffset="27.44"><animate attributeName="stroke-dashoffset" values="27.44" fill="freeze" begin="68c6.click" /><animate attributeName="stroke-dashoffset" values="27.44;27.44;0" keyTimes="0;0.899;1" dur="2.718s" fill="freeze" begin="0s;68c6.click" /></path><path d="M47.38,56.16c0.47,0.65,1.04,1.67,1.11,2.82c0.38,6.19-0.52,30.61,0.03,36.91" stroke-dasharray="39.989" stroke-dashoffset="39.989"><animate attributeName="stroke-dashoffset" values="39.989" fill="freeze" begin="68c6.click" /><animate attributeName="stroke-dashoffset" values="39.989;39.989;0" keyTimes="0;0.872;1" dur="3.118s" fill="freeze" begin="0s;68c6.click" /></path><path d="M48.99,59.54c6.02-0.28,35.31-2.87,36.5-3c2.54-0.28,3.43,2.78,3.45,4.04c0.08,6.74-0.08,17.82-0.19,29.83c-0.07,7.93-2.46,5.24-5.65,2.35" stroke-dasharray="83.332" stroke-dashoffset="83.332"><animate attributeName="stroke-dashoffset" values="83.332" fill="freeze" begin="68c6.click" /><animate attributeName="stroke-dashoffset" values="83.332;83.332;0" keyTimes="0;0.833;1" dur="3.745s" fill="freeze" begin="0s;68c6.click" /></path><path d="M49.32,75.27c4.82-0.25,35.98-2.3,39.38-2.39" stroke-dasharray="39.454" stroke-dashoffset="39.454"><animate attributeName="stroke-dashoffset" values="39.454" fill="freeze" begin="68c6.click" /><animate attributeName="stroke-dashoffset" values="39.454;39.454;0" keyTimes="0;0.905;1" dur="4.14s" fill="freeze" begin="0s;68c6.click" /></path><path d="M60.89,60.53c0.7,0.82,1.18,1.76,1.21,4.38c0.17,12.59-0.24,23.27-0.29,27.55" stroke-dasharray="32.204" stroke-dashoffset="32.204"><animate attributeName="stroke-dashoffset" values="32.204" fill="freeze" begin="68c6.click" /><animate attributeName="stroke-dashoffset" values="32.204;32.204;0" keyTimes="0;0.928;1" dur="4.462s" fill="freeze" begin="0s;68c6.click" /></path><path d="M73.45,59.87c0.7,0.82,1.18,1.77,1.21,4.39c0.17,12.59-0.24,24.94-0.28,29.22" stroke-dasharray="33.883" stroke-dashoffset="33.883"><animate attributeName="stroke-dashoffset" values="33.883" fill="freeze" begin="68c6.click" /><animate attributeName="stroke-dashoffset" values="33.883;33.883;0" keyTimes="0;0.929;1" dur="4.801s" fill="freeze" begin="0s;68c6.click" /></path></g></svg>