<svg xmlns="http://www.w3.org/2000/svg" viewBox="0 0 109 109" id="68d2"><g fill="none" stroke="#666" stroke-width="6" stroke-linecap="round" stroke-linejoin="round"><g><g><path d="M12.28,39.47c1.97,0.53,4.4,0.44,5.72,0.26c4.65-0.65,12.95-2.45,18.42-3.5c1.27-0.24,3.21-0.6,4.6-0.36" /><path d="M29.11,15.25c0.88,0.88,1.29,2.62,1.29,4.92c0,3.69,0.03,51.38,0.04,70.7c0,3.34,0,5.84,0,7.12" /><path d="M29.94,39.53c0,1.09-0.96,3.94-1.42,4.96c-5.07,11.3-8.53,17-16.91,27.85" /><path d="M33.5,47.12c2.08,1.35,5.5,5.75,7.25,8.38" /></g><g p4:phon="奉" xmlns:p4="http://kanjivg.tagaini.net"><g><g><g><path d="M46.06,24.57c2.57,0.56,4.87,0.39,6.95,0.19c9.48-0.92,18.25-2.29,27.86-2.83c2-0.11,3.94-0.24,5.91,0.22" /></g><g><g><path d="M47.61,35.97c2.27,0.41,4.1,0.11,5.91-0.07c8.98-0.9,19.02-2.55,26.35-3.16c1.94-0.16,3.89-0.3,5.8,0.19" /></g><g><g><path d="M42.81,47.68c2.22,0.84,4.9,0.59,7.19,0.29c13.12-1.72,29.63-3.89,39.38-4.3c2.3-0.1,4.63-0.1,6.89,0.41" /></g></g></g></g><g><g><path d="M66.08,12.5c0.67,1.25,0.85,2.61,0.51,4.53C64,31.62,59,55,39.58,69.23" /><path d="M69.6,39.63C71.12,40.38,86.25,55,90.75,59c1.34,1.19,3.5,2.5,5.67,3.71" /></g></g></g><g><path d="M54.53,63.93c1.52,0.62,3.13,0.53,4.72,0.46c5.35-0.24,13.97-1.5,18.74-1.86c1.28-0.1,2.37-0.28,3.77-0.06" /><path d="M46.97,77.59c2.41,0.41,4.87,0.3,6.94,0.1c7.84-0.74,23.93-2.33,31.48-2.43c2.02-0.03,4.2-0.02,6.17,0.45" /><g><path d="M66.61,52.29c0.99,0.99,1.43,2.46,1.43,4.55c0,11.31,0.01,29.16,0.01,38.16c0,2.04-0.04,3.61-0.04,4.5" /></g></g></g></g></g><g fill="none" stroke="#000" stroke-width="3" stroke-linecap="round" stroke-linejoin="round"><path d="M12.28,39.47c1.97,0.53,4.4,0.44,5.72,0.26c4.65-0.65,12.95-2.45,18.42-3.5c1.27-0.24,3.21-0.6,4.6-0.36" stroke-dasharray="29.148" stroke-dashoffset="29.148"><animate attributeName="stroke-dashoffset" values="29.148;29.148;0" dur="0.291s" fill="freeze" begin="0s;68d2.click" /></path><path d="M29.11,15.25c0.88,0.88,1.29,2.62,1.29,4.92c0,3.69,0.03,51.38,0.04,70.7c0,3.34,0,5.84,0,7.12" stroke-dasharray="83.023" stroke-dashoffset="83.023"><animate attributeName="stroke-dashoffset" values="83.023" fill="freeze" begin="68d2.click" /><animate attributeName="stroke-dashoffset" values="83.023;83.023;0" keyTimes="0;0.318;1" dur="0.915s" fill="freeze" begin="0s;68d2.click" /></path><path d="M29.94,39.53c0,1.09-0.96,3.94-1.42,4.96c-5.07,11.3-8.53,17-16.91,27.85" stroke-dasharray="37.862" stroke-dashoffset="37.862"><animate attributeName="stroke-dashoffset" values="37.862" fill="freeze" begin="68d2.click" /><animate attributeName="stroke-dashoffset" values="37.862;37.862;0" keyTimes="0;0.707;1" dur="1.294s" fill="freeze" begin="0s;68d2.click" /></path><path d="M33.5,47.12c2.08,1.35,5.5,5.75,7.25,8.38" stroke-dasharray="11.13" stroke-dashoffset="11.13"><animate attributeName="stroke-dashoffset" values="11.13" fill="freeze" begin="68d2.click" /><animate attributeName="stroke-dashoffset" values="11.13;11.13;0" keyTimes="0;0.853;1" dur="1.517s" fill="freeze" begin="0s;68d2.click" /></path><path d="M46.06,24.57c2.57,0.56,4.87,0.39,6.95,0.19c9.48-0.92,18.25-2.29,27.86-2.83c2-0.11,3.94-0.24,5.91,0.22" stroke-dasharray="40.928" stroke-dashoffset="40.928"><animate attributeName="stroke-dashoffset" values="40.928" fill="freeze" begin="68d2.click" /><animate attributeName="stroke-dashoffset" values="40.928;40.928;0" keyTimes="0;0.788;1" dur="1.926s" fill="freeze" begin="0s;68d2.click" /></path><path d="M47.61,35.97c2.27,0.41,4.1,0.11,5.91-0.07c8.98-0.9,19.02-2.55,26.35-3.16c1.94-0.16,3.89-0.3,5.8,0.19" stroke-dasharray="38.308" stroke-dashoffset="38.308"><animate attributeName="stroke-dashoffset" values="38.308" fill="freeze" begin="68d2.click" /><animate attributeName="stroke-dashoffset" values="38.308;38.308;0" keyTimes="0;0.834;1" dur="2.309s" fill="freeze" begin="0s;68d2.click" /></path><path d="M42.81,47.68c2.22,0.84,4.9,0.59,7.19,0.29c13.12-1.72,29.63-3.89,39.38-4.3c2.3-0.1,4.63-0.1,6.89,0.41" stroke-dasharray="53.817" stroke-dashoffset="53.817"><animate attributeName="stroke-dashoffset" values="53.817" fill="freeze" begin="68d2.click" /><animate attributeName="stroke-dashoffset" values="53.817;53.817;0" keyTimes="0;0.811;1" dur="2.847s" fill="freeze" begin="0s;68d2.click" /></path><path d="M66.08,12.5c0.67,1.25,0.85,2.61,0.51,4.53C64,31.62,59,55,39.58,69.23" stroke-dasharray="64.987" stroke-dashoffset="64.987"><animate attributeName="stroke-dashoffset" values="64.987" fill="freeze" begin="68d2.click" /><animate attributeName="stroke-dashoffset" values="64.987;64.987;0" keyTimes="0;0.853;1" dur="3.336s" fill="freeze" begin="0s;68d2.click" /></path><path d="M69.6,39.63C71.12,40.38,86.25,55,90.75,59c1.34,1.19,3.5,2.5,5.67,3.71" stroke-dasharray="35.478" stroke-dashoffset="35.478"><animate attributeName="stroke-dashoffset" values="35.478" fill="freeze" begin="68d2.click" /><animate attributeName="stroke-dashoffset" values="35.478;35.478;0" keyTimes="0;0.904;1" dur="3.691s" fill="freeze" begin="0s;68d2.click" /></path><path d="M54.53,63.93c1.52,0.62,3.13,0.53,4.72,0.46c5.35-0.24,13.97-1.5,18.74-1.86c1.28-0.1,2.37-0.28,3.77-0.06" stroke-dasharray="27.401" stroke-dashoffset="27.401"><animate attributeName="stroke-dashoffset" values="27.401" fill="freeze" begin="68d2.click" /><animate attributeName="stroke-dashoffset" values="27.401;27.401;0" keyTimes="0;0.931;1" dur="3.965s" fill="freeze" begin="0s;68d2.click" /></path><path d="M46.97,77.59c2.41,0.41,4.87,0.3,6.94,0.1c7.84-0.74,23.93-2.33,31.48-2.43c2.02-0.03,4.2-0.02,6.17,0.45" stroke-dasharray="44.745" stroke-dashoffset="44.745"><animate attributeName="stroke-dashoffset" values="44.745" fill="freeze" begin="68d2.click" /><animate attributeName="stroke-dashoffset" values="44.745;44.745;0" keyTimes="0;0.899;1" dur="4.412s" fill="freeze" begin="0s;68d2.click" /></path><path d="M66.61,52.29c0.99,0.99,1.43,2.46,1.43,4.55c0,11.31,0.01,29.16,0.01,38.16c0,2.04-0.04,3.61-0.04,4.5" stroke-dasharray="47.559" stroke-dashoffset="47.559"><animate attributeName="stroke-dashoffset" values="47.559" fill="freeze" begin="68d2.click" /><animate attributeName="stroke-dashoffset" values="47.559;47.559;0" keyTimes="0;0.903;1" dur="4.888s" fill="freeze" begin="0s;68d2.click" /></path></g></svg>