<svg xmlns="http://www.w3.org/2000/svg" viewBox="0 0 109 109" id="68df"><g fill="none" stroke="#666" stroke-width="6" stroke-linecap="round" stroke-linejoin="round"><g><g><path d="M12.78,39.47c1.85,0.41,3.95,0.25,5.37,0.06c4.54-0.62,12.95-1.7,18.39-2.72c1.13-0.21,2.72-0.43,3.73-0.19" /><path d="M29.11,16.5c1.07,1.07,1.29,2.62,1.29,4.67c0,0.78,0.22,45.91,0.05,65.32c-0.04,4.09-0.04,6.99-0.07,8" /><path d="M29.69,39.53c0,2.22-0.57,4.59-1.17,6.06C23.75,57.12,20,64,13.61,73.84" /><path d="M33.38,50.38c2.26,1.52,5.97,6.44,7.88,9.38" /></g><g p4:phon="東" xmlns:p4="http://kanjivg.tagaini.net"><g><path d="M46.71,27.17c2.79,0.46,4.83,0.4,6.83,0.09c9.72-1.51,19.09-2.76,28.72-3.67c2.06-0.2,4.15-0.36,6.17,0.2" /></g><g><path d="M45.91,39.64c1.16,1.16,1.62,2.43,1.89,4.1c0.58,3.5,1.74,11.36,2.55,16.58c0.43,2.77,0.73,4.76,0.73,4.88" /><path d="M48.28,40.64c8.35-1.26,27.96-4.1,36.62-4.5c3.1-0.14,4.84,0.97,4.52,3.38c-0.75,5.69-1.64,10.15-2.91,17.23c-0.29,1.59-0.6,3.33-0.96,5.26" /><path d="M50.07,51.34c8.3-1.09,25.8-2.96,36.89-3.45" /><path d="M52.39,63.07c9.86-1.19,24.03-2.65,32.57-3.05" /></g><g><path d="M65.44,11.75c1.28,1.28,1.97,2.5,1.97,4.25c0,4.4,0.1,52.94,0.05,73.5c-0.01,3.96-0.02,6.88-0.02,8.25" /><path d="M64.94,62.25c0,2.25-1.22,3.97-3.07,6.5c-6.42,8.76-15.57,17.58-23.86,22" /><path d="M67.94,63c7.69,8.38,16.25,16.79,21.79,21.15C92.08,86,94.25,88,97.5,89.5" /></g></g></g></g><g fill="none" stroke="#000" stroke-width="3" stroke-linecap="round" stroke-linejoin="round"><path d="M12.78,39.47c1.85,0.41,3.95,0.25,5.37,0.06c4.54-0.62,12.95-1.7,18.39-2.72c1.13-0.21,2.72-0.43,3.73-0.19" stroke-dasharray="27.747" stroke-dashoffset="27.747"><animate attributeName="stroke-dashoffset" values="27.747;27.747;0" dur="0.277s" fill="freeze" begin="0s;68df.click" /></path><path d="M29.11,16.5c1.07,1.07,1.29,2.62,1.29,4.67c0,0.78,0.22,45.91,0.05,65.32c-0.04,4.09-0.04,6.99-0.07,8" stroke-dasharray="78.299" stroke-dashoffset="78.299"><animate attributeName="stroke-dashoffset" values="78.299" fill="freeze" begin="68df.click" /><animate attributeName="stroke-dashoffset" values="78.299;78.299;0" keyTimes="0;0.32;1" dur="0.866s" fill="freeze" begin="0s;68df.click" /></path><path d="M29.69,39.53c0,2.22-0.57,4.59-1.17,6.06C23.75,57.12,20,64,13.61,73.84" stroke-dasharray="38.205" stroke-dashoffset="38.205"><animate attributeName="stroke-dashoffset" values="38.205" fill="freeze" begin="68df.click" /><animate attributeName="stroke-dashoffset" values="38.205;38.205;0" keyTimes="0;0.694;1" dur="1.248s" fill="freeze" begin="0s;68df.click" /></path><path d="M33.38,50.38c2.26,1.52,5.97,6.44,7.88,9.38" stroke-dasharray="12.304" stroke-dashoffset="12.304"><animate attributeName="stroke-dashoffset" values="12.304" fill="freeze" begin="68df.click" /><animate attributeName="stroke-dashoffset" values="12.304;12.304;0" keyTimes="0;0.835;1" dur="1.494s" fill="freeze" begin="0s;68df.click" /></path><path d="M46.71,27.17c2.79,0.46,4.83,0.4,6.83,0.09c9.72-1.51,19.09-2.76,28.72-3.67c2.06-0.2,4.15-0.36,6.17,0.2" stroke-dasharray="42.031" stroke-dashoffset="42.031"><animate attributeName="stroke-dashoffset" values="42.031" fill="freeze" begin="68df.click" /><animate attributeName="stroke-dashoffset" values="42.031;42.031;0" keyTimes="0;0.781;1" dur="1.914s" fill="freeze" begin="0s;68df.click" /></path><path d="M45.91,39.64c1.16,1.16,1.62,2.43,1.89,4.1c0.58,3.5,1.74,11.36,2.55,16.58c0.43,2.77,0.73,4.76,0.73,4.88" stroke-dasharray="26.31" stroke-dashoffset="26.31"><animate attributeName="stroke-dashoffset" values="26.31" fill="freeze" begin="68df.click" /><animate attributeName="stroke-dashoffset" values="26.31;26.31;0" keyTimes="0;0.879;1" dur="2.177s" fill="freeze" begin="0s;68df.click" /></path><path d="M48.28,40.64c8.35-1.26,27.96-4.1,36.62-4.5c3.1-0.14,4.84,0.97,4.52,3.38c-0.75,5.69-1.64,10.15-2.91,17.23c-0.29,1.59-0.6,3.33-0.96,5.26" stroke-dasharray="66.389" stroke-dashoffset="66.389"><animate attributeName="stroke-dashoffset" values="66.389" fill="freeze" begin="68df.click" /><animate attributeName="stroke-dashoffset" values="66.389;66.389;0" keyTimes="0;0.814;1" dur="2.676s" fill="freeze" begin="0s;68df.click" /></path><path d="M50.07,51.34c8.3-1.09,25.8-2.96,36.89-3.45" stroke-dasharray="37.06" stroke-dashoffset="37.06"><animate attributeName="stroke-dashoffset" values="37.06" fill="freeze" begin="68df.click" /><animate attributeName="stroke-dashoffset" values="37.06;37.06;0" keyTimes="0;0.878;1" dur="3.047s" fill="freeze" begin="0s;68df.click" /></path><path d="M52.39,63.07c9.86-1.19,24.03-2.65,32.57-3.05" stroke-dasharray="32.719" stroke-dashoffset="32.719"><animate attributeName="stroke-dashoffset" values="32.719" fill="freeze" begin="68df.click" /><animate attributeName="stroke-dashoffset" values="32.719;32.719;0" keyTimes="0;0.903;1" dur="3.374s" fill="freeze" begin="0s;68df.click" /></path><path d="M65.44,11.75c1.28,1.28,1.97,2.5,1.97,4.25c0,4.4,0.1,52.94,0.05,73.5c-0.01,3.96-0.02,6.88-0.02,8.25" stroke-dasharray="86.578" stroke-dashoffset="86.578"><animate attributeName="stroke-dashoffset" values="86.578" fill="freeze" begin="68df.click" /><animate attributeName="stroke-dashoffset" values="86.578;86.578;0" keyTimes="0;0.838;1" dur="4.025s" fill="freeze" begin="0s;68df.click" /></path><path d="M64.94,62.25c0,2.25-1.22,3.97-3.07,6.5c-6.42,8.76-15.57,17.58-23.86,22" stroke-dasharray="40.015" stroke-dashoffset="40.015"><animate attributeName="stroke-dashoffset" values="40.015" fill="freeze" begin="68df.click" /><animate attributeName="stroke-dashoffset" values="40.015;40.015;0" keyTimes="0;0.91;1" dur="4.425s" fill="freeze" begin="0s;68df.click" /></path><path d="M67.94,63c7.69,8.38,16.25,16.79,21.79,21.15C92.08,86,94.25,88,97.5,89.5" stroke-dasharray="39.855" stroke-dashoffset="39.855"><animate attributeName="stroke-dashoffset" values="39.855" fill="freeze" begin="68df.click" /><animate attributeName="stroke-dashoffset" values="39.855;39.855;0" keyTimes="0;0.917;1" dur="4.824s" fill="freeze" begin="0s;68df.click" /></path></g></svg>