<svg xmlns="http://www.w3.org/2000/svg" viewBox="0 0 109 109" id="696b"><g fill="none" stroke="#666" stroke-width="6" stroke-linecap="round" stroke-linejoin="round"><g><g><path d="M13.03,38.22c0.37,0.24,2.54,0.41,3.51,0.31c4.18-0.41,17.11-2.21,23.83-3.41c0.97-0.17,2.28-0.24,2.9,0" /><path d="M29.36,15c0.91,0.47,2.04,2.25,2.04,3.92c0,0.95-0.12,72.75-0.3,78.58" /><path d="M30.94,39.28c-5.9,17.21-9.19,24.49-18.33,39.56" /><path d="M33.97,49.4c2.37,1.76,6.28,7.45,8.28,10.85" /></g><g><g><path d="M52.08,14.53c0.48,0.28,0.97,0.52,1.18,0.87c1.66,2.81,2,11.05,3.14,16.09" /><path d="M53.92,16.44c9.77-1.46,24.49-3.08,30.08-3.45c2.04-0.13,2.27,2.3,1.98,3.09c-1.21,3.28-1.63,6.24-3.43,10.78" /><path d="M56.62,29.04c6.57-0.42,19.16-1.64,28.18-2.28" /></g><g><path d="M46.28,41.01c1.11,0.34,3.15,0.43,4.27,0.34c10.53-0.91,25.21-3.34,41.31-4.09c1.85-0.09,2.97,0.16,3.9,0.33" /><path d="M55.03,41.87c0.65,0.63,1.45,2.85,1.45,3.95c0,1.1-0.18,31.5-0.18,35.46" /><path d="M56.78,53.22c10.42-1.38,17.25-1.58,26.46-2.25" /><path d="M56.43,65.8c8.51-0.95,16.9-1.85,27.28-2.53" /><path d="M46.5,82.87c0.35,0.77,1.92,1.86,3.13,1.54c4.87-1.28,32.68-10.26,40.15-12.31" /><path d="M82.53,37.83c1.13,0.99,1.25,2.66,1.25,3.76c0,1.1,0.18,48.38,0.18,57.4" /></g></g></g></g><g fill="none" stroke="#000" stroke-width="3" stroke-linecap="round" stroke-linejoin="round"><path d="M13.03,38.22c0.37,0.24,2.54,0.41,3.51,0.31c4.18-0.41,17.11-2.21,23.83-3.41c0.97-0.17,2.28-0.24,2.9,0" stroke-dasharray="30.548" stroke-dashoffset="30.548"><animate attributeName="stroke-dashoffset" values="30.548;30.548;0" dur="0.305s" fill="freeze" begin="0s;696b.click" /></path><path d="M29.36,15c0.91,0.47,2.04,2.25,2.04,3.92c0,0.95-0.12,72.75-0.3,78.58" stroke-dasharray="83.17" stroke-dashoffset="83.17"><animate attributeName="stroke-dashoffset" values="83.17" fill="freeze" begin="696b.click" /><animate attributeName="stroke-dashoffset" values="83.17;83.17;0" keyTimes="0;0.328;1" dur="0.93s" fill="freeze" begin="0s;696b.click" /></path><path d="M30.94,39.28c-5.9,17.21-9.19,24.49-18.33,39.56" stroke-dasharray="43.718" stroke-dashoffset="43.718"><animate attributeName="stroke-dashoffset" values="43.718" fill="freeze" begin="696b.click" /><animate attributeName="stroke-dashoffset" values="43.718;43.718;0" keyTimes="0;0.68;1" dur="1.367s" fill="freeze" begin="0s;696b.click" /></path><path d="M33.97,49.4c2.37,1.76,6.28,7.45,8.28,10.85" stroke-dasharray="13.705" stroke-dashoffset="13.705"><animate attributeName="stroke-dashoffset" values="13.705" fill="freeze" begin="696b.click" /><animate attributeName="stroke-dashoffset" values="13.705;13.705;0" keyTimes="0;0.833;1" dur="1.641s" fill="freeze" begin="0s;696b.click" /></path><path d="M52.08,14.53c0.48,0.28,0.97,0.52,1.18,0.87c1.66,2.81,2,11.05,3.14,16.09" stroke-dasharray="17.929" stroke-dashoffset="17.929"><animate attributeName="stroke-dashoffset" values="17.929" fill="freeze" begin="696b.click" /><animate attributeName="stroke-dashoffset" values="17.929;17.929;0" keyTimes="0;0.902;1" dur="1.82s" fill="freeze" begin="0s;696b.click" /></path><path d="M53.92,16.44c9.77-1.46,24.49-3.08,30.08-3.45c2.04-0.13,2.27,2.3,1.98,3.09c-1.21,3.28-1.63,6.24-3.43,10.78" stroke-dasharray="45.92" stroke-dashoffset="45.92"><animate attributeName="stroke-dashoffset" values="45.92" fill="freeze" begin="696b.click" /><animate attributeName="stroke-dashoffset" values="45.92;45.92;0" keyTimes="0;0.799;1" dur="2.279s" fill="freeze" begin="0s;696b.click" /></path><path d="M56.62,29.04c6.57-0.42,19.16-1.64,28.18-2.28" stroke-dasharray="28.273" stroke-dashoffset="28.273"><animate attributeName="stroke-dashoffset" values="28.273" fill="freeze" begin="696b.click" /><animate attributeName="stroke-dashoffset" values="28.273;28.273;0" keyTimes="0;0.89;1" dur="2.562s" fill="freeze" begin="0s;696b.click" /></path><path d="M46.28,41.01c1.11,0.34,3.15,0.43,4.27,0.34c10.53-0.91,25.21-3.34,41.31-4.09c1.85-0.09,2.97,0.16,3.9,0.33" stroke-dasharray="49.749" stroke-dashoffset="49.749"><animate attributeName="stroke-dashoffset" values="49.749" fill="freeze" begin="696b.click" /><animate attributeName="stroke-dashoffset" values="49.749;49.749;0" keyTimes="0;0.838;1" dur="3.059s" fill="freeze" begin="0s;696b.click" /></path><path d="M55.03,41.87c0.65,0.63,1.45,2.85,1.45,3.95c0,1.1-0.18,31.5-0.18,35.46" stroke-dasharray="39.731" stroke-dashoffset="39.731"><animate attributeName="stroke-dashoffset" values="39.731" fill="freeze" begin="696b.click" /><animate attributeName="stroke-dashoffset" values="39.731;39.731;0" keyTimes="0;0.885;1" dur="3.456s" fill="freeze" begin="0s;696b.click" /></path><path d="M56.78,53.22c10.42-1.38,17.25-1.58,26.46-2.25" stroke-dasharray="26.562" stroke-dashoffset="26.562"><animate attributeName="stroke-dashoffset" values="26.562" fill="freeze" begin="696b.click" /><animate attributeName="stroke-dashoffset" values="26.562;26.562;0" keyTimes="0;0.929;1" dur="3.722s" fill="freeze" begin="0s;696b.click" /></path><path d="M56.43,65.8c8.51-0.95,16.9-1.85,27.28-2.53" stroke-dasharray="27.401" stroke-dashoffset="27.401"><animate attributeName="stroke-dashoffset" values="27.401" fill="freeze" begin="696b.click" /><animate attributeName="stroke-dashoffset" values="27.401;27.401;0" keyTimes="0;0.931;1" dur="3.996s" fill="freeze" begin="0s;696b.click" /></path><path d="M46.5,82.87c0.35,0.77,1.92,1.86,3.13,1.54c4.87-1.28,32.68-10.26,40.15-12.31" stroke-dasharray="45.702" stroke-dashoffset="45.702"><animate attributeName="stroke-dashoffset" values="45.702" fill="freeze" begin="696b.click" /><animate attributeName="stroke-dashoffset" values="45.702;45.702;0" keyTimes="0;0.897;1" dur="4.453s" fill="freeze" begin="0s;696b.click" /></path><path d="M82.53,37.83c1.13,0.99,1.25,2.66,1.25,3.76c0,1.1,0.18,48.38,0.18,57.4" stroke-dasharray="61.488" stroke-dashoffset="61.488"><animate attributeName="stroke-dashoffset" values="61.488" fill="freeze" begin="696b.click" /><animate attributeName="stroke-dashoffset" values="61.488;61.488;0" keyTimes="0;0.906;1" dur="4.915s" fill="freeze" begin="0s;696b.click" /></path></g></svg>