<svg xmlns="http://www.w3.org/2000/svg" viewBox="0 0 109 109" id="69d0"><g fill="none" stroke="#666" stroke-width="6" stroke-linecap="round" stroke-linejoin="round"><g><g><path d="M12.28,37.72c0.35,0.24,2.39,0.41,3.31,0.31c3.94-0.41,17.12-1.21,23.45-2.41c0.92-0.17,2.15-0.24,2.73,0" /><path d="M27.86,14c0.91,0.47,2.04,2.5,2.04,4.42c0,0.95-0.12,72.25-0.3,78.08" /><path d="M28.94,39.28c-5.82,16.34-9.06,23.25-18.08,37.56" /><path d="M32.72,47.65c2.16,1.71,5.71,7.28,7.53,10.6" /></g><g><g><path d="M63.97,11c0.03,0.39,0.1,1.12-0.05,1.56c-1.81,5.48-4.48,10.52-9.2,14.94" /></g><g><path d="M47.75,27.62c0.29,0.54,0.79,1.41,0.95,2.07c1.27,5.5,2.84,16.74,3.59,26.88" /><path d="M49.1,28.95c12.4-1.7,28.7-3.99,36.25-4.53c2.77-0.2,3.91,1.58,3.61,3.87c-0.7,5.38-1.61,16.21-4.05,25.84" /><path d="M67.960499,26.339917 c 0.91,0.91 0.97,1.99 0.96,3.33 -0.06,7.41 0.05,20.507277 0.05,22.707277" /><path d="M51.4,41.57c8.35-1.07,25.6-3.32,36.21-3.87" /><path d="M52.82,54.64c12.18-1.89,22.15-2.47,31.22-2.88" /></g><g><g><path d="M62.5,57.75 c 0.26,0.8 0.76,2.38 0.38,3.67 -2.93,9.83 -5.897775,25.83 -17.647775,34.58" /></g><g><path d="M72.36,54.87c0.66,1.19,1.18,2.59,1.22,4.43c0.18,8.19,0.03,13.51-0.29,24.61s6.38,11.3,12.65,11.3c10.27,0,13.52,0.55,13.52-8.94" /></g></g><g><path d="M87.19,60.72c0.22,0.42,0.14,2.33-0.07,2.84c-1.92,4.68-4.37,10.46-7.42,15.23c-0.97,1.51,0.08,3.03,1.45,2.51c4.77-1.8,7.8-3.55,12.43-5.44" /><path d="M90.97,71.93c1.29,1.31,4.11,6.5,4.43,8.54" /></g></g></g></g><g fill="none" stroke="#000" stroke-width="3" stroke-linecap="round" stroke-linejoin="round"><path d="M12.28,37.72c0.35,0.24,2.39,0.41,3.31,0.31c3.94-0.41,17.12-1.21,23.45-2.41c0.92-0.17,2.15-0.24,2.73,0" stroke-dasharray="29.687" stroke-dashoffset="29.687"><animate attributeName="stroke-dashoffset" values="29.687;29.687;0" dur="0.297s" fill="freeze" begin="0s;69d0.click" /></path><path d="M27.86,14c0.91,0.47,2.04,2.5,2.04,4.42c0,0.95-0.12,72.25-0.3,78.08" stroke-dasharray="83.124" stroke-dashoffset="83.124"><animate attributeName="stroke-dashoffset" values="83.124" fill="freeze" begin="69d0.click" /><animate attributeName="stroke-dashoffset" values="83.124;83.124;0" keyTimes="0;0.322;1" dur="0.922s" fill="freeze" begin="0s;69d0.click" /></path><path d="M28.94,39.28c-5.82,16.34-9.06,23.25-18.08,37.56" stroke-dasharray="41.804" stroke-dashoffset="41.804"><animate attributeName="stroke-dashoffset" values="41.804" fill="freeze" begin="69d0.click" /><animate attributeName="stroke-dashoffset" values="41.804;41.804;0" keyTimes="0;0.688;1" dur="1.34s" fill="freeze" begin="0s;69d0.click" /></path><path d="M32.72,47.65c2.16,1.71,5.71,7.28,7.53,10.6" stroke-dasharray="13.055" stroke-dashoffset="13.055"><animate attributeName="stroke-dashoffset" values="13.055" fill="freeze" begin="69d0.click" /><animate attributeName="stroke-dashoffset" values="13.055;13.055;0" keyTimes="0;0.837;1" dur="1.601s" fill="freeze" begin="0s;69d0.click" /></path><path d="M63.97,11c0.03,0.39,0.1,1.12-0.05,1.56c-1.81,5.48-4.48,10.52-9.2,14.94" stroke-dasharray="19.311" stroke-dashoffset="19.311"><animate attributeName="stroke-dashoffset" values="19.311" fill="freeze" begin="69d0.click" /><animate attributeName="stroke-dashoffset" values="19.311;19.311;0" keyTimes="0;0.892;1" dur="1.794s" fill="freeze" begin="0s;69d0.click" /></path><path d="M47.75,27.62c0.29,0.54,0.79,1.41,0.95,2.07c1.27,5.5,2.84,16.74,3.59,26.88" stroke-dasharray="29.422" stroke-dashoffset="29.422"><animate attributeName="stroke-dashoffset" values="29.422" fill="freeze" begin="69d0.click" /><animate attributeName="stroke-dashoffset" values="29.422;29.422;0" keyTimes="0;0.859;1" dur="2.088s" fill="freeze" begin="0s;69d0.click" /></path><path d="M49.1,28.95c12.4-1.7,28.7-3.99,36.25-4.53c2.77-0.2,3.91,1.58,3.61,3.87c-0.7,5.38-1.61,16.21-4.05,25.84" stroke-dasharray="68.986" stroke-dashoffset="68.986"><animate attributeName="stroke-dashoffset" values="68.986" fill="freeze" begin="69d0.click" /><animate attributeName="stroke-dashoffset" values="68.986;68.986;0" keyTimes="0;0.801;1" dur="2.607s" fill="freeze" begin="0s;69d0.click" /></path><path d="M67.960499,26.339917 c 0.91,0.91 0.97,1.99 0.96,3.33 -0.06,7.41 0.05,20.507277 0.05,22.707277" stroke-dasharray="26.283" stroke-dashoffset="26.283"><animate attributeName="stroke-dashoffset" values="26.283" fill="freeze" begin="69d0.click" /><animate attributeName="stroke-dashoffset" values="26.283;26.283;0" keyTimes="0;0.908;1" dur="2.87s" fill="freeze" begin="0s;69d0.click" /></path><path d="M51.4,41.57c8.35-1.07,25.6-3.32,36.21-3.87" stroke-dasharray="36.425" stroke-dashoffset="36.425"><animate attributeName="stroke-dashoffset" values="36.425" fill="freeze" begin="69d0.click" /><animate attributeName="stroke-dashoffset" values="36.425;36.425;0" keyTimes="0;0.887;1" dur="3.234s" fill="freeze" begin="0s;69d0.click" /></path><path d="M52.82,54.64c12.18-1.89,22.15-2.47,31.22-2.88" stroke-dasharray="31.371" stroke-dashoffset="31.371"><animate attributeName="stroke-dashoffset" values="31.371" fill="freeze" begin="69d0.click" /><animate attributeName="stroke-dashoffset" values="31.371;31.371;0" keyTimes="0;0.911;1" dur="3.548s" fill="freeze" begin="0s;69d0.click" /></path><path d="M62.5,57.75 c 0.26,0.8 0.76,2.38 0.38,3.67 -2.93,9.83 -5.897775,25.83 -17.647775,34.58" stroke-dasharray="43.347" stroke-dashoffset="43.347"><animate attributeName="stroke-dashoffset" values="43.347" fill="freeze" begin="69d0.click" /><animate attributeName="stroke-dashoffset" values="43.347;43.347;0" keyTimes="0;0.891;1" dur="3.981s" fill="freeze" begin="0s;69d0.click" /></path><path d="M72.36,54.87c0.66,1.19,1.18,2.59,1.22,4.43c0.18,8.19,0.03,13.51-0.29,24.61s6.38,11.3,12.65,11.3c10.27,0,13.52,0.55,13.52-8.94" stroke-dasharray="69.112" stroke-dashoffset="69.112"><animate attributeName="stroke-dashoffset" values="69.112" fill="freeze" begin="69d0.click" /><animate attributeName="stroke-dashoffset" values="69.112;69.112;0" keyTimes="0;0.884;1" dur="4.501s" fill="freeze" begin="0s;69d0.click" /></path><path d="M87.19,60.72c0.22,0.42,0.14,2.33-0.07,2.84c-1.92,4.68-4.37,10.46-7.42,15.23c-0.97,1.51,0.08,3.03,1.45,2.51c4.77-1.8,7.8-3.55,12.43-5.44" stroke-dasharray="37.37" stroke-dashoffset="37.37"><animate attributeName="stroke-dashoffset" values="37.37" fill="freeze" begin="69d0.click" /><animate attributeName="stroke-dashoffset" values="37.37;37.37;0" keyTimes="0;0.923;1" dur="4.875s" fill="freeze" begin="0s;69d0.click" /></path><path d="M90.97,71.93c1.29,1.31,4.11,6.5,4.43,8.54" stroke-dasharray="9.691" stroke-dashoffset="9.691"><animate attributeName="stroke-dashoffset" values="9.691" fill="freeze" begin="69d0.click" /><animate attributeName="stroke-dashoffset" values="9.691;9.691;0" keyTimes="0;0.962;1" dur="5.069s" fill="freeze" begin="0s;69d0.click" /></path></g></svg>