<svg xmlns="http://www.w3.org/2000/svg" viewBox="0 0 109 109" id="6a47"><g fill="none" stroke="#666" stroke-width="6" stroke-linecap="round" stroke-linejoin="round"><g><g><path d="M9.78,37.22c0.35,0.24,2.39,0.41,3.31,0.31c3.94-0.41,16.62-1.21,22.95-2.41c0.92-0.17,2.15-0.24,2.73,0" /><path d="M26.36,15.5c0.91,0.47,2.04,2.25,2.04,4.42c0,0.95-0.12,72.25-0.3,78.08" /><path d="M27.94,37.78c-5.1,15.04-9.94,22.4-17.83,35.56" /><path d="M30.47,46.4c2.78,1.75,6.18,5.22,8.53,8.6" /></g><g><g><path d="M77.77,11c-0.27,0.75-0.66,1.26-1.16,1.56c-4.72,2.83-14.48,6.7-26.86,9.62" /><path d="M47.5,29.07c0.92,0.27,2.6,0.35,3.51,0.27c9.52-0.84,22.54-3.28,30.41-3.9c1.51-0.12,2.44,0.13,3.21,0.26" /><path d="M44.13,38.56c1.01,0.19,3.93,0.3,4.93,0.19c11.19-1.25,30.27-4.42,39.38-4.85c1.67-0.08,3.76,0.09,4.6,0.18" /><path d="M64.49,19.33c0.53,0.53,0.96,1.15,0.99,1.96c0.14,3.63-0.52,18.39-0.52,20.62c0,5.88,3.15,6.11,13.72,6.11c13.28,0,12.83-1.12,12.83-5.01" /></g><g><g><path d="M57.11,54c0.05,0.22,0.19,0.63-0.09,0.88c-2.68,2.36-8.8,6.01-15.83,8.44" /><path d="M36.8,71.55c0.58,0.19,1.64,0.22,2.22,0.19c5.33-0.22,14.24-2.4,19.22-2.85c0.95-0.09,1.54,0.09,2.02,0.19" /><path d="M34.63,81.58c0.58,0.17,2.25,0.21,2.82,0.17c7.22-0.57,17.03-3.55,22.25-3.94c0.95-0.07,2.15,0.08,2.63,0.16" /><path d="M48.26,63.39c0.32,0.61,0.57,1.32,0.59,2.25c0.09,4.16-0.31,21.07-0.31,23.63c0,6.74,1.89,7.01,8.21,7.01c7.95,0,7.68-1.29,7.68-5.74" /></g><g><path d="M89.45,53c0.05,0.22,0.23,0.63-0.11,0.88c-3.11,2.35-10.21,5.99-18.38,8.41" /><path d="M69.35,69.11c0.61,0.16,1.74,0.21,2.35,0.16c6.38-0.51,15.12-2,20.4-2.38c1.01-0.07,1.64,0.08,2.15,0.16" /><path d="M68.63,79.77c0.61,0.14,2.37,0.18,2.98,0.14c7.63-0.48,18-2.98,23.5-3.31c1.01-0.06,2.27,0.07,2.78,0.14" /><path d="M80.46,61.58c0.38,0.64,0.67,1.4,0.7,2.39c0.1,4.42-0.37,22.39-0.37,25.11c0,7.16,2.22,7.45,9.67,7.45c9.36,0,9.05-1.37,9.05-6.1" /></g></g></g></g></g><g fill="none" stroke="#000" stroke-width="3" stroke-linecap="round" stroke-linejoin="round"><path d="M9.78,37.22c0.35,0.24,2.39,0.41,3.31,0.31c3.94-0.41,16.62-1.21,22.95-2.41c0.92-0.17,2.15-0.24,2.73,0" stroke-dasharray="29.19" stroke-dashoffset="29.19"><animate attributeName="stroke-dashoffset" values="29.19;29.19;0" dur="0.292s" fill="freeze" begin="0s;6a47.click" /></path><path d="M26.36,15.5c0.91,0.47,2.04,2.25,2.04,4.42c0,0.95-0.12,72.25-0.3,78.08" stroke-dasharray="83.146" stroke-dashoffset="83.146"><animate attributeName="stroke-dashoffset" values="83.146" fill="freeze" begin="6a47.click" /><animate attributeName="stroke-dashoffset" values="83.146;83.146;0" keyTimes="0;0.318;1" dur="0.917s" fill="freeze" begin="0s;6a47.click" /></path><path d="M27.94,37.78c-5.1,15.04-9.94,22.4-17.83,35.56" stroke-dasharray="39.885" stroke-dashoffset="39.885"><animate attributeName="stroke-dashoffset" values="39.885" fill="freeze" begin="6a47.click" /><animate attributeName="stroke-dashoffset" values="39.885;39.885;0" keyTimes="0;0.697;1" dur="1.316s" fill="freeze" begin="0s;6a47.click" /></path><path d="M30.47,46.4c2.78,1.75,6.18,5.22,8.53,8.6" stroke-dasharray="12.182" stroke-dashoffset="12.182"><animate attributeName="stroke-dashoffset" values="12.182" fill="freeze" begin="6a47.click" /><animate attributeName="stroke-dashoffset" values="12.182;12.182;0" keyTimes="0;0.844;1" dur="1.56s" fill="freeze" begin="0s;6a47.click" /></path><path d="M77.77,11c-0.27,0.75-0.66,1.26-1.16,1.56c-4.72,2.83-14.48,6.7-26.86,9.62" stroke-dasharray="30.604" stroke-dashoffset="30.604"><animate attributeName="stroke-dashoffset" values="30.604" fill="freeze" begin="6a47.click" /><animate attributeName="stroke-dashoffset" values="30.604;30.604;0" keyTimes="0;0.836;1" dur="1.866s" fill="freeze" begin="0s;6a47.click" /></path><path d="M47.5,29.07c0.92,0.27,2.6,0.35,3.51,0.27c9.52-0.84,22.54-3.28,30.41-3.9c1.51-0.12,2.44,0.13,3.21,0.26" stroke-dasharray="37.432" stroke-dashoffset="37.432"><animate attributeName="stroke-dashoffset" values="37.432" fill="freeze" begin="6a47.click" /><animate attributeName="stroke-dashoffset" values="37.432;37.432;0" keyTimes="0;0.833;1" dur="2.24s" fill="freeze" begin="0s;6a47.click" /></path><path d="M44.13,38.56c1.01,0.19,3.93,0.3,4.93,0.19c11.19-1.25,30.27-4.42,39.38-4.85c1.67-0.08,3.76,0.09,4.6,0.18" stroke-dasharray="49.236" stroke-dashoffset="49.236"><animate attributeName="stroke-dashoffset" values="49.236" fill="freeze" begin="6a47.click" /><animate attributeName="stroke-dashoffset" values="49.236;49.236;0" keyTimes="0;0.82;1" dur="2.732s" fill="freeze" begin="0s;6a47.click" /></path><path d="M64.49,19.33c0.53,0.53,0.96,1.15,0.99,1.96c0.14,3.63-0.52,18.39-0.52,20.62c0,5.88,3.15,6.11,13.72,6.11c13.28,0,12.83-1.12,12.83-5.01" stroke-dasharray="56.298" stroke-dashoffset="56.298"><animate attributeName="stroke-dashoffset" values="56.298" fill="freeze" begin="6a47.click" /><animate attributeName="stroke-dashoffset" values="56.298;56.298;0" keyTimes="0;0.829;1" dur="3.295s" fill="freeze" begin="0s;6a47.click" /></path><path d="M57.11,54c0.05,0.22,0.19,0.63-0.09,0.88c-2.68,2.36-8.8,6.01-15.83,8.44" stroke-dasharray="18.965" stroke-dashoffset="18.965"><animate attributeName="stroke-dashoffset" values="18.965" fill="freeze" begin="6a47.click" /><animate attributeName="stroke-dashoffset" values="18.965;18.965;0" keyTimes="0;0.945;1" dur="3.485s" fill="freeze" begin="0s;6a47.click" /></path><path d="M36.8,71.55c0.58,0.19,1.64,0.22,2.22,0.19c5.33-0.22,14.24-2.4,19.22-2.85c0.95-0.09,1.54,0.09,2.02,0.19" stroke-dasharray="23.719" stroke-dashoffset="23.719"><animate attributeName="stroke-dashoffset" values="23.719" fill="freeze" begin="6a47.click" /><animate attributeName="stroke-dashoffset" values="23.719;23.719;0" keyTimes="0;0.936;1" dur="3.722s" fill="freeze" begin="0s;6a47.click" /></path><path d="M34.63,81.58c0.58,0.17,2.25,0.21,2.82,0.17c7.22-0.57,17.03-3.55,22.25-3.94c0.95-0.07,2.15,0.08,2.63,0.16" stroke-dasharray="28.086" stroke-dashoffset="28.086"><animate attributeName="stroke-dashoffset" values="28.086" fill="freeze" begin="6a47.click" /><animate attributeName="stroke-dashoffset" values="28.086;28.086;0" keyTimes="0;0.93;1" dur="4.003s" fill="freeze" begin="0s;6a47.click" /></path><path d="M48.26,63.39c0.32,0.61,0.57,1.32,0.59,2.25c0.09,4.16-0.31,21.07-0.31,23.63c0,6.74,1.89,7.01,8.21,7.01c7.95,0,7.68-1.29,7.68-5.74" stroke-dasharray="50.927" stroke-dashoffset="50.927"><animate attributeName="stroke-dashoffset" values="50.927" fill="freeze" begin="6a47.click" /><animate attributeName="stroke-dashoffset" values="50.927;50.927;0" keyTimes="0;0.887;1" dur="4.512s" fill="freeze" begin="0s;6a47.click" /></path><path d="M89.45,53c0.05,0.22,0.23,0.63-0.11,0.88c-3.11,2.35-10.21,5.99-18.38,8.41" stroke-dasharray="21.254" stroke-dashoffset="21.254"><animate attributeName="stroke-dashoffset" values="21.254" fill="freeze" begin="6a47.click" /><animate attributeName="stroke-dashoffset" values="21.254;21.254;0" keyTimes="0;0.955;1" dur="4.725s" fill="freeze" begin="0s;6a47.click" /></path><path d="M69.35,69.11c0.61,0.16,1.74,0.21,2.35,0.16c6.38-0.51,15.12-2,20.4-2.38c1.01-0.07,1.64,0.08,2.15,0.16" stroke-dasharray="25.068" stroke-dashoffset="25.068"><animate attributeName="stroke-dashoffset" values="25.068" fill="freeze" begin="6a47.click" /><animate attributeName="stroke-dashoffset" values="25.068;25.068;0" keyTimes="0;0.95;1" dur="4.976s" fill="freeze" begin="0s;6a47.click" /></path><path d="M68.63,79.77c0.61,0.14,2.37,0.18,2.98,0.14c7.63-0.48,18-2.98,23.5-3.31c1.01-0.06,2.27,0.07,2.78,0.14" stroke-dasharray="29.519" stroke-dashoffset="29.519"><animate attributeName="stroke-dashoffset" values="29.519" fill="freeze" begin="6a47.click" /><animate attributeName="stroke-dashoffset" values="29.519;29.519;0" keyTimes="0;0.944;1" dur="5.271s" fill="freeze" begin="0s;6a47.click" /></path><path d="M80.46,61.58c0.38,0.64,0.67,1.4,0.7,2.39c0.1,4.42-0.37,22.39-0.37,25.11c0,7.16,2.22,7.45,9.67,7.45c9.36,0,9.05-1.37,9.05-6.1" stroke-dasharray="55.784" stroke-dashoffset="55.784"><animate attributeName="stroke-dashoffset" values="55.784" fill="freeze" begin="6a47.click" /><animate attributeName="stroke-dashoffset" values="55.784;55.784;0" keyTimes="0;0.904;1" dur="5.829s" fill="freeze" begin="0s;6a47.click" /></path></g></svg>