<svg xmlns="http://www.w3.org/2000/svg" viewBox="0 0 109 109" id="6a7f"><g fill="none" stroke="#666" stroke-width="6" stroke-linecap="round" stroke-linejoin="round"><g><g><path d="M11.03,38.11c2.02,0.42,4.06,0.55,6.11,0.4c4.74-0.54,12.78-1.89,18.25-2.63c1.45-0.29,2.91-0.4,4.37-0.33" /><path d="M27.61,15.5c1.07,1.07,1.54,2.75,1.54,4.92c0,1.59-0.04,46.38-0.05,66.08c0,4.18,0,7.23,0,8.5" /><path d="M28.69,37.53c0,2.84-1.4,7.26-2.22,9.25C21.5,58.75,17.88,65.5,10.36,75.84" /><path d="M32.22,49.65c2.68,1.59,6.28,6.6,7.91,9.89" /></g><g><g><path d="M46.75,20.48c2.75,0.39,5.5,0.34,8.25-0.14c8.78-0.83,22.08-2.63,30.26-3.15c2.42-0.29,4.83-0.27,7.24,0.08" /></g><g><path d="M49.31,27.85c0.8,0.8,1.43,1.89,1.55,2.65c0.9,5.6,1.47,9.25,1.97,12.99c0.2,1.52,0.4,3.05,0.6,4.74" /><path d="M51.11,29.05c11.2-1.22,25.52-2.71,31.99-3.4c2.44-0.26,5.37,1.12,5.15,3.86c-0.23,2.93-1.38,7.76-2.16,12.08c-0.29,1.59-0.53,3.12-0.65,4.45" /><path d="M67.95,28.88c0.84,0.84,0.97,1.75,0.97,2.87c0,4.09,0.03,10.63,0.03,13.06" /><path d="M52.92,37.5c7.96-0.75,21.21-2.25,33.49-2.68" /><path d="M54.18,46.78c8.32-0.9,18.94-1.65,30.09-2.3" /></g><g><path d="M44.75,55.44c2.92,0.42,5.83,0.39,8.75-0.08c9.75-0.83,24.02-2.34,33.5-2.88c2.93-0.34,5.85-0.32,8.75,0.09" /></g><g><path d="M50.56,62.6c0.91,1.12,1.39,2.38,1.42,3.79c0.56,3.96,1.09,9.19,1.6,13.99c0.2,1.88,0.4,3.7,0.59,5.35" /><path d="M52.36,63.8c10.39-1.43,22.51-2.18,31.25-3.12c4.04-0.44,5.56,1.06,5.39,3.94c-0.19,3.07-0.93,8.38-1.54,13.03c-0.32,2.45-0.61,4.72-0.77,6.39" /><path d="M68.2,64.13c0.55,0.37,0.97,1.57,0.97,2.37c-0.01,4.09,0.02,13.07,0.03,14.56" /><path d="M53.92,73.25c6.82-0.77,24.61-2.55,33.49-2.93" /><path d="M55.18,83.53c12.19-1.28,20.89-2.1,31.09-2.8" /></g><g><path d="M45,93.69c3.09,0.43,6.18,0.39,9.27-0.11c10.53-0.98,23.86-2.09,34.61-2.4c3.27-0.1,6.47,0.03,9.62,0.88" /></g></g></g></g><g fill="none" stroke="#000" stroke-width="3" stroke-linecap="round" stroke-linejoin="round"><path d="M11.03,38.11c2.02,0.42,4.06,0.55,6.11,0.4c4.74-0.54,12.78-1.89,18.25-2.63c1.45-0.29,2.91-0.4,4.37-0.33" stroke-dasharray="28.977" stroke-dashoffset="28.977"><animate attributeName="stroke-dashoffset" values="28.977;28.977;0" dur="0.29s" fill="freeze" begin="0s;6a7f.click" /></path><path d="M27.61,15.5c1.07,1.07,1.54,2.75,1.54,4.92c0,1.59-0.04,46.38-0.05,66.08c0,4.18,0,7.23,0,8.5" stroke-dasharray="79.87" stroke-dashoffset="79.87"><animate attributeName="stroke-dashoffset" values="79.87" fill="freeze" begin="6a7f.click" /><animate attributeName="stroke-dashoffset" values="79.87;79.87;0" keyTimes="0;0.325;1" dur="0.891s" fill="freeze" begin="0s;6a7f.click" /></path><path d="M28.69,37.53c0,2.84-1.4,7.26-2.22,9.25C21.5,58.75,17.88,65.5,10.36,75.84" stroke-dasharray="42.882" stroke-dashoffset="42.882"><animate attributeName="stroke-dashoffset" values="42.882" fill="freeze" begin="6a7f.click" /><animate attributeName="stroke-dashoffset" values="42.882;42.882;0" keyTimes="0;0.675;1" dur="1.32s" fill="freeze" begin="0s;6a7f.click" /></path><path d="M32.22,49.65c2.68,1.59,6.28,6.6,7.91,9.89" stroke-dasharray="12.784" stroke-dashoffset="12.784"><animate attributeName="stroke-dashoffset" values="12.784" fill="freeze" begin="6a7f.click" /><animate attributeName="stroke-dashoffset" values="12.784;12.784;0" keyTimes="0;0.838;1" dur="1.576s" fill="freeze" begin="0s;6a7f.click" /></path><path d="M46.75,20.48c2.75,0.39,5.5,0.34,8.25-0.14c8.78-0.83,22.08-2.63,30.26-3.15c2.42-0.29,4.83-0.27,7.24,0.08" stroke-dasharray="45.974" stroke-dashoffset="45.974"><animate attributeName="stroke-dashoffset" values="45.974" fill="freeze" begin="6a7f.click" /><animate attributeName="stroke-dashoffset" values="45.974;45.974;0" keyTimes="0;0.774;1" dur="2.036s" fill="freeze" begin="0s;6a7f.click" /></path><path d="M49.31,27.85c0.8,0.8,1.43,1.89,1.55,2.65c0.9,5.6,1.47,9.25,1.97,12.99c0.2,1.52,0.4,3.05,0.6,4.74" stroke-dasharray="21.029" stroke-dashoffset="21.029"><animate attributeName="stroke-dashoffset" values="21.029" fill="freeze" begin="6a7f.click" /><animate attributeName="stroke-dashoffset" values="21.029;21.029;0" keyTimes="0;0.907;1" dur="2.246s" fill="freeze" begin="0s;6a7f.click" /></path><path d="M51.11,29.05c11.2-1.22,25.52-2.71,31.99-3.4c2.44-0.26,5.37,1.12,5.15,3.86c-0.23,2.93-1.38,7.76-2.16,12.08c-0.29,1.59-0.53,3.12-0.65,4.45" stroke-dasharray="56.3" stroke-dashoffset="56.3"><animate attributeName="stroke-dashoffset" values="56.3" fill="freeze" begin="6a7f.click" /><animate attributeName="stroke-dashoffset" values="56.3;56.3;0" keyTimes="0;0.8;1" dur="2.809s" fill="freeze" begin="0s;6a7f.click" /></path><path d="M67.95,28.88c0.84,0.84,0.97,1.75,0.97,2.87c0,4.09,0.03,10.63,0.03,13.06" stroke-dasharray="16.185" stroke-dashoffset="16.185"><animate attributeName="stroke-dashoffset" values="16.185" fill="freeze" begin="6a7f.click" /><animate attributeName="stroke-dashoffset" values="16.185;16.185;0" keyTimes="0;0.945;1" dur="2.971s" fill="freeze" begin="0s;6a7f.click" /></path><path d="M52.92,37.5c7.96-0.75,21.21-2.25,33.49-2.68" stroke-dasharray="33.604" stroke-dashoffset="33.604"><animate attributeName="stroke-dashoffset" values="33.604" fill="freeze" begin="6a7f.click" /><animate attributeName="stroke-dashoffset" values="33.604;33.604;0" keyTimes="0;0.898;1" dur="3.307s" fill="freeze" begin="0s;6a7f.click" /></path><path d="M54.18,46.78c8.32-0.9,18.94-1.65,30.09-2.3" stroke-dasharray="30.182" stroke-dashoffset="30.182"><animate attributeName="stroke-dashoffset" values="30.182" fill="freeze" begin="6a7f.click" /><animate attributeName="stroke-dashoffset" values="30.182;30.182;0" keyTimes="0;0.916;1" dur="3.609s" fill="freeze" begin="0s;6a7f.click" /></path><path d="M44.75,55.44c2.92,0.42,5.83,0.39,8.75-0.08c9.75-0.83,24.02-2.34,33.5-2.88c2.93-0.34,5.85-0.32,8.75,0.09" stroke-dasharray="51.185" stroke-dashoffset="51.185"><animate attributeName="stroke-dashoffset" values="51.185" fill="freeze" begin="6a7f.click" /><animate attributeName="stroke-dashoffset" values="51.185;51.185;0" keyTimes="0;0.876;1" dur="4.121s" fill="freeze" begin="0s;6a7f.click" /></path><path d="M50.56,62.6c0.91,1.12,1.39,2.38,1.42,3.79c0.56,3.96,1.09,9.19,1.6,13.99c0.2,1.88,0.4,3.7,0.59,5.35" stroke-dasharray="23.591" stroke-dashoffset="23.591"><animate attributeName="stroke-dashoffset" values="23.591" fill="freeze" begin="6a7f.click" /><animate attributeName="stroke-dashoffset" values="23.591;23.591;0" keyTimes="0;0.946;1" dur="4.357s" fill="freeze" begin="0s;6a7f.click" /></path><path d="M52.36,63.8c10.39-1.43,22.51-2.18,31.25-3.12c4.04-0.44,5.56,1.06,5.39,3.94c-0.19,3.07-0.93,8.38-1.54,13.03c-0.32,2.45-0.61,4.72-0.77,6.39" stroke-dasharray="58.953" stroke-dashoffset="58.953"><animate attributeName="stroke-dashoffset" values="58.953" fill="freeze" begin="6a7f.click" /><animate attributeName="stroke-dashoffset" values="58.953;58.953;0" keyTimes="0;0.881;1" dur="4.947s" fill="freeze" begin="0s;6a7f.click" /></path><path d="M68.2,64.13c0.55,0.37,0.97,1.57,0.97,2.37c-0.01,4.09,0.02,13.07,0.03,14.56" stroke-dasharray="17.195" stroke-dashoffset="17.195"><animate attributeName="stroke-dashoffset" values="17.195" fill="freeze" begin="6a7f.click" /><animate attributeName="stroke-dashoffset" values="17.195;17.195;0" keyTimes="0;0.966;1" dur="5.119s" fill="freeze" begin="0s;6a7f.click" /></path><path d="M53.92,73.25c6.82-0.77,24.61-2.55,33.49-2.93" stroke-dasharray="33.623" stroke-dashoffset="33.623"><animate attributeName="stroke-dashoffset" values="33.623" fill="freeze" begin="6a7f.click" /><animate attributeName="stroke-dashoffset" values="33.623;33.623;0" keyTimes="0;0.938;1" dur="5.455s" fill="freeze" begin="0s;6a7f.click" /></path><path d="M55.18,83.53c12.19-1.28,20.89-2.1,31.09-2.8" stroke-dasharray="31.219" stroke-dashoffset="31.219"><animate attributeName="stroke-dashoffset" values="31.219" fill="freeze" begin="6a7f.click" /><animate attributeName="stroke-dashoffset" values="31.219;31.219;0" keyTimes="0;0.946;1" dur="5.767s" fill="freeze" begin="0s;6a7f.click" /></path><path d="M45,93.69c3.09,0.43,6.18,0.39,9.27-0.11c10.53-0.98,23.86-2.09,34.61-2.4c3.27-0.1,6.47,0.03,9.62,0.88" stroke-dasharray="53.701" stroke-dashoffset="53.701"><animate attributeName="stroke-dashoffset" values="53.701" fill="freeze" begin="6a7f.click" /><animate attributeName="stroke-dashoffset" values="53.701;53.701;0" keyTimes="0;0.915;1" dur="6.304s" fill="freeze" begin="0s;6a7f.click" /></path></g></svg>