<svg xmlns="http://www.w3.org/2000/svg" viewBox="0 0 109 109" id="6aa0"><g fill="none" stroke="#666" stroke-width="6" stroke-linecap="round" stroke-linejoin="round"><g><g><g><g><path d="M15.07,19.95c0.72,0.36,1.56,0.34,2.29,0.36c6.39,0.2,24.14-2.55,31.6-2.81c1.21-0.04,1.93,0.17,2.54,0.35" /><path d="M26.2,12.2c0.9,0.87,1.26,1.12,1.29,1.66c0.26,5.39,1.01,7.39,0.93,11.72" /><path d="M41.83,10.64c0.17,0.63,0.38,1.09,0.2,1.87c-1.08,4.53-1.8,8.28-2.97,12.54" /></g><g><g><g><path d="M22.75,26.5c0.03,0.4,0.06,1.02-0.06,1.59c-0.68,3.35-4.59,11.19-9.94,15.69" /></g><path d="M21.69,32.95c0.54,0.32,2.26,0.35,3.17,0.21c3.39-0.49,16.25-1.83,18.36-2.2c2.77-0.49,4.6,0.79,4.28,3.84c-0.75,7.19-2,12.94-5.25,21.94c-1.71,4.73-5.01,2.11-6.3,0.77" /></g><g><path d="M21.68,40.66c0.19,0.18,0.38,0.33,0.47,0.56c0.66,1.81,1.85,6.77,2.1,12" /><path d="M22.91,42.1c4.88-1.02,9.64-2.03,12.27-2.3c0.96-0.1,1.6,0.47,1.4,1.4c-0.51,2.42-0.99,5.31-1.84,8.64" /><path d="M24.37,51.51c3.09-0.31,7.32-0.83,11.57-1.3" /></g></g></g><g><g><path d="M64.69,10.64c0.03,0.6,0.18,1.57-0.06,2.39c-1.55,5.26-5.03,15.63-10.39,22.91" /><path d="M64.08,24.37c0.53,0.28,1.49,0.32,2.02,0.28c5.47-0.33,13.83-1.41,20.4-2.87c0.91-0.2,2.61-0.01,2.85,0.05" /></g><g><g><path d="M78.28,28.28c0.31,0.62,0.65,1.12,0.16,2.19C74.25,39.5,70,46.5,59.08,53.5" /></g><path d="M59.15,32.96c5.72,2.83,20.74,18.58,29.48,23.58c1.68,0.96,2.75,1.12,4.13,1.22" /></g></g></g><g><path d="M18.25,68.82c1.91,0.39,4.08,0.51,6.27,0.39c11.17-0.63,43.61-2.82,60.51-3.57c2.18-0.09,3.54,0.07,5.72,0.34" /><path d="M52.25,55.25c1.25,0.5,2.25,2.22,2.25,3.25c0,10.5,0,34.75-0.25,41" /><path d="M51.25,67.75c-6.25,8.64-23,21.86-36,26.75" /><path d="M55.5,68c5.5,6.5,22.75,19,31.6,23.34c1.83,0.9,3.18,1.59,4.9,1.91" /></g></g></g><g fill="none" stroke="#000" stroke-width="3" stroke-linecap="round" stroke-linejoin="round"><path d="M15.07,19.95c0.72,0.36,1.56,0.34,2.29,0.36c6.39,0.2,24.14-2.55,31.6-2.81c1.21-0.04,1.93,0.17,2.54,0.35" stroke-dasharray="36.655" stroke-dashoffset="36.655"><animate attributeName="stroke-dashoffset" values="36.655;36.655;0" dur="0.367s" fill="freeze" begin="0s;6aa0.click" /></path><path d="M26.2,12.2c0.9,0.87,1.26,1.12,1.29,1.66c0.26,5.39,1.01,7.39,0.93,11.72" stroke-dasharray="13.919" stroke-dashoffset="13.919"><animate attributeName="stroke-dashoffset" values="13.919" fill="freeze" begin="6aa0.click" /><animate attributeName="stroke-dashoffset" values="13.919;13.919;0" keyTimes="0;0.569;1" dur="0.645s" fill="freeze" begin="0s;6aa0.click" /></path><path d="M41.83,10.64c0.17,0.63,0.38,1.09,0.2,1.87c-1.08,4.53-1.8,8.28-2.97,12.54" stroke-dasharray="14.797" stroke-dashoffset="14.797"><animate attributeName="stroke-dashoffset" values="14.797" fill="freeze" begin="6aa0.click" /><animate attributeName="stroke-dashoffset" values="14.797;14.797;0" keyTimes="0;0.685;1" dur="0.941s" fill="freeze" begin="0s;6aa0.click" /></path><path d="M22.75,26.5c0.03,0.4,0.06,1.02-0.06,1.59c-0.68,3.35-4.59,11.19-9.94,15.69" stroke-dasharray="20.42" stroke-dashoffset="20.42"><animate attributeName="stroke-dashoffset" values="20.42" fill="freeze" begin="6aa0.click" /><animate attributeName="stroke-dashoffset" values="20.42;20.42;0" keyTimes="0;0.822;1" dur="1.145s" fill="freeze" begin="0s;6aa0.click" /></path><path d="M21.69,32.95c0.54,0.32,2.26,0.35,3.17,0.21c3.39-0.49,16.25-1.83,18.36-2.2c2.77-0.49,4.6,0.79,4.28,3.84c-0.75,7.19-2,12.94-5.25,21.94c-1.71,4.73-5.01,2.11-6.3,0.77" stroke-dasharray="59.591" stroke-dashoffset="59.591"><animate attributeName="stroke-dashoffset" values="59.591" fill="freeze" begin="6aa0.click" /><animate attributeName="stroke-dashoffset" values="59.591;59.591;0" keyTimes="0;0.658;1" dur="1.741s" fill="freeze" begin="0s;6aa0.click" /></path><path d="M21.68,40.66c0.19,0.18,0.38,0.33,0.47,0.56c0.66,1.81,1.85,6.77,2.1,12" stroke-dasharray="12.955" stroke-dashoffset="12.955"><animate attributeName="stroke-dashoffset" values="12.955" fill="freeze" begin="6aa0.click" /><animate attributeName="stroke-dashoffset" values="12.955;12.955;0" keyTimes="0;0.87;1" dur="2s" fill="freeze" begin="0s;6aa0.click" /></path><path d="M22.91,42.1c4.88-1.02,9.64-2.03,12.27-2.3c0.96-0.1,1.6,0.47,1.4,1.4c-0.51,2.42-0.99,5.31-1.84,8.64" stroke-dasharray="23.709" stroke-dashoffset="23.709"><animate attributeName="stroke-dashoffset" values="23.709" fill="freeze" begin="6aa0.click" /><animate attributeName="stroke-dashoffset" values="23.709;23.709;0" keyTimes="0;0.894;1" dur="2.237s" fill="freeze" begin="0s;6aa0.click" /></path><path d="M24.37,51.51c3.09-0.31,7.32-0.83,11.57-1.3" stroke-dasharray="11.644" stroke-dashoffset="11.644"><animate attributeName="stroke-dashoffset" values="11.644" fill="freeze" begin="6aa0.click" /><animate attributeName="stroke-dashoffset" values="11.644;11.644;0" keyTimes="0;0.906;1" dur="2.47s" fill="freeze" begin="0s;6aa0.click" /></path><path d="M64.69,10.64c0.03,0.6,0.18,1.57-0.06,2.39c-1.55,5.26-5.03,15.63-10.39,22.91" stroke-dasharray="27.677" stroke-dashoffset="27.677"><animate attributeName="stroke-dashoffset" values="27.677" fill="freeze" begin="6aa0.click" /><animate attributeName="stroke-dashoffset" values="27.677;27.677;0" keyTimes="0;0.899;1" dur="2.747s" fill="freeze" begin="0s;6aa0.click" /></path><path d="M64.08,24.37c0.53,0.28,1.49,0.32,2.02,0.28c5.47-0.33,13.83-1.41,20.4-2.87c0.91-0.2,2.61-0.01,2.85,0.05" stroke-dasharray="25.543" stroke-dashoffset="25.543"><animate attributeName="stroke-dashoffset" values="25.543" fill="freeze" begin="6aa0.click" /><animate attributeName="stroke-dashoffset" values="25.543;25.543;0" keyTimes="0;0.915;1" dur="3.002s" fill="freeze" begin="0s;6aa0.click" /></path><path d="M78.28,28.28c0.31,0.62,0.65,1.12,0.16,2.19C74.25,39.5,70,46.5,59.08,53.5" stroke-dasharray="32.898" stroke-dashoffset="32.898"><animate attributeName="stroke-dashoffset" values="32.898" fill="freeze" begin="6aa0.click" /><animate attributeName="stroke-dashoffset" values="32.898;32.898;0" keyTimes="0;0.901;1" dur="3.331s" fill="freeze" begin="0s;6aa0.click" /></path><path d="M59.15,32.96c5.72,2.83,20.74,18.58,29.48,23.58c1.68,0.96,2.75,1.12,4.13,1.22" stroke-dasharray="42.164" stroke-dashoffset="42.164"><animate attributeName="stroke-dashoffset" values="42.164" fill="freeze" begin="6aa0.click" /><animate attributeName="stroke-dashoffset" values="42.164;42.164;0" keyTimes="0;0.888;1" dur="3.753s" fill="freeze" begin="0s;6aa0.click" /></path><path d="M18.25,68.82c1.91,0.39,4.08,0.51,6.27,0.39c11.17-0.63,43.61-2.82,60.51-3.57c2.18-0.09,3.54,0.07,5.72,0.34" stroke-dasharray="72.654" stroke-dashoffset="72.654"><animate attributeName="stroke-dashoffset" values="72.654" fill="freeze" begin="6aa0.click" /><animate attributeName="stroke-dashoffset" values="72.654;72.654;0" keyTimes="0;0.873;1" dur="4.299s" fill="freeze" begin="0s;6aa0.click" /></path><path d="M52.25,55.25c1.25,0.5,2.25,2.22,2.25,3.25c0,10.5,0,34.75-0.25,41" stroke-dasharray="45.136" stroke-dashoffset="45.136"><animate attributeName="stroke-dashoffset" values="45.136" fill="freeze" begin="6aa0.click" /><animate attributeName="stroke-dashoffset" values="45.136;45.136;0" keyTimes="0;0.905;1" dur="4.75s" fill="freeze" begin="0s;6aa0.click" /></path><path d="M51.25,67.75c-6.25,8.64-23,21.86-36,26.75" stroke-dasharray="45.304" stroke-dashoffset="45.304"><animate attributeName="stroke-dashoffset" values="45.304" fill="freeze" begin="6aa0.click" /><animate attributeName="stroke-dashoffset" values="45.304;45.304;0" keyTimes="0;0.913;1" dur="5.203s" fill="freeze" begin="0s;6aa0.click" /></path><path d="M55.5,68c5.5,6.5,22.75,19,31.6,23.34c1.83,0.9,3.18,1.59,4.9,1.91" stroke-dasharray="44.719" stroke-dashoffset="44.719"><animate attributeName="stroke-dashoffset" values="44.719" fill="freeze" begin="6aa0.click" /><animate attributeName="stroke-dashoffset" values="44.719;44.719;0" keyTimes="0;0.921;1" dur="5.65s" fill="freeze" begin="0s;6aa0.click" /></path></g></svg>