<svg xmlns="http://www.w3.org/2000/svg" viewBox="0 0 109 109" id="6b32"><g fill="none" stroke="#666" stroke-width="6" stroke-linecap="round" stroke-linejoin="round"><g><g p4:phon="谷" xmlns:p4="http://kanjivg.tagaini.net"><g><path d="M24.85,23.98c0.07,0.84-0.25,1.65-0.63,2.38c-1.92,3.74-6.1,8.39-11.9,13.04" /><path d="M40.41,23.85c4.23,2.54,8.68,6.91,10.13,9.51" /></g><g><path d="M33.69,37.99c0.17,1.6-0.26,3.06-1.16,4.42c-4.5,6.74-12.4,15.22-22.65,21.53" /><path d="M35.3,44.27c4.37,2.35,9.36,5.25,12.93,9.52" /><g><path d="M17.48,66.65c0.69,0.68,1.14,1.6,1.36,2.73c0.85,4.48,1.7,9.8,2.36,15.31c0.16,1.33,0.31,2.6,0.44,3.76" /><path d="M19.45,68.46c7.66-1.54,16.62-3.38,22.18-4.29c3.2-0.52,4.95,0.53,4.08,3.89c-1.21,4.67-2.54,8.54-3.64,14.49" /><path d="M22.47,85.56c5.51-0.41,11.57-1.1,17.53-1.77c1.49-0.17,3.03-0.33,4.62-0.49" /></g></g></g><g><g><path d="M65.92,20.25c0.07,1.47,0.07,2.66-0.44,4.06c-2.61,7.19-5.61,14.82-11.23,23.95" /><path d="M62.17,40.54c1.53,0.43,3.42,0.04,4.91-0.38c3.61-1.01,13.74-4.29,19.1-6c5.53-1.76,2.32,4.71-2.71,10.14" /></g><g><path d="M66.42,49.91c0.58,0.97,0.87,2.5,0.63,3.91C65.25,64.5,60.75,81.88,45.23,91" /><path d="M66.83,58.93c5.12,6.09,14.06,18.06,20.93,25.42c2.12,2.27,4.74,4.65,7.01,5.84" /></g></g></g></g><g fill="none" stroke="#000" stroke-width="3" stroke-linecap="round" stroke-linejoin="round"><path d="M24.85,23.98c0.07,0.84-0.25,1.65-0.63,2.38c-1.92,3.74-6.1,8.39-11.9,13.04" stroke-dasharray="20.264" stroke-dashoffset="20.264"><animate attributeName="stroke-dashoffset" values="20.264;20.264;0" dur="0.203s" fill="freeze" begin="0s;6b32.click" /></path><path d="M40.41,23.85c4.23,2.54,8.68,6.91,10.13,9.51" stroke-dasharray="14.008" stroke-dashoffset="14.008"><animate attributeName="stroke-dashoffset" values="14.008" fill="freeze" begin="6b32.click" /><animate attributeName="stroke-dashoffset" values="14.008;14.008;0" keyTimes="0;0.42;1" dur="0.483s" fill="freeze" begin="0s;6b32.click" /></path><path d="M33.69,37.99c0.17,1.6-0.26,3.06-1.16,4.42c-4.5,6.74-12.4,15.22-22.65,21.53" stroke-dasharray="36.143" stroke-dashoffset="36.143"><animate attributeName="stroke-dashoffset" values="36.143" fill="freeze" begin="6b32.click" /><animate attributeName="stroke-dashoffset" values="36.143;36.143;0" keyTimes="0;0.572;1" dur="0.844s" fill="freeze" begin="0s;6b32.click" /></path><path d="M35.3,44.27c4.37,2.35,9.36,5.25,12.93,9.52" stroke-dasharray="16.158" stroke-dashoffset="16.158"><animate attributeName="stroke-dashoffset" values="16.158" fill="freeze" begin="6b32.click" /><animate attributeName="stroke-dashoffset" values="16.158;16.158;0" keyTimes="0;0.839;1" dur="1.006s" fill="freeze" begin="0s;6b32.click" /></path><path d="M17.48,66.65c0.69,0.68,1.14,1.6,1.36,2.73c0.85,4.48,1.7,9.8,2.36,15.31c0.16,1.33,0.31,2.6,0.44,3.76" stroke-dasharray="22.378" stroke-dashoffset="22.378"><animate attributeName="stroke-dashoffset" values="22.378" fill="freeze" begin="6b32.click" /><animate attributeName="stroke-dashoffset" values="22.378;22.378;0" keyTimes="0;0.818;1" dur="1.23s" fill="freeze" begin="0s;6b32.click" /></path><path d="M19.45,68.46c7.66-1.54,16.62-3.38,22.18-4.29c3.2-0.52,4.95,0.53,4.08,3.89c-1.21,4.67-2.54,8.54-3.64,14.49" stroke-dasharray="44.873" stroke-dashoffset="44.873"><animate attributeName="stroke-dashoffset" values="44.873" fill="freeze" begin="6b32.click" /><animate attributeName="stroke-dashoffset" values="44.873;44.873;0" keyTimes="0;0.733;1" dur="1.679s" fill="freeze" begin="0s;6b32.click" /></path><path d="M22.47,85.56c5.51-0.41,11.57-1.1,17.53-1.77c1.49-0.17,3.03-0.33,4.62-0.49" stroke-dasharray="22.267" stroke-dashoffset="22.267"><animate attributeName="stroke-dashoffset" values="22.267" fill="freeze" begin="6b32.click" /><animate attributeName="stroke-dashoffset" values="22.267;22.267;0" keyTimes="0;0.883;1" dur="1.902s" fill="freeze" begin="0s;6b32.click" /></path><path d="M65.92,20.25c0.07,1.47,0.07,2.66-0.44,4.06c-2.61,7.19-5.61,14.82-11.23,23.95" stroke-dasharray="30.62" stroke-dashoffset="30.62"><animate attributeName="stroke-dashoffset" values="30.62" fill="freeze" begin="6b32.click" /><animate attributeName="stroke-dashoffset" values="30.62;30.62;0" keyTimes="0;0.861;1" dur="2.208s" fill="freeze" begin="0s;6b32.click" /></path><path d="M62.17,40.54c1.53,0.43,3.42,0.04,4.91-0.38c3.61-1.01,13.74-4.29,19.1-6c5.53-1.76,2.32,4.71-2.71,10.14" stroke-dasharray="39.615" stroke-dashoffset="39.615"><animate attributeName="stroke-dashoffset" values="39.615" fill="freeze" begin="6b32.click" /><animate attributeName="stroke-dashoffset" values="39.615;39.615;0" keyTimes="0;0.848;1" dur="2.604s" fill="freeze" begin="0s;6b32.click" /></path><path d="M66.42,49.91c0.58,0.97,0.87,2.5,0.63,3.91C65.25,64.5,60.75,81.88,45.23,91" stroke-dasharray="48.614" stroke-dashoffset="48.614"><animate attributeName="stroke-dashoffset" values="48.614" fill="freeze" begin="6b32.click" /><animate attributeName="stroke-dashoffset" values="48.614;48.614;0" keyTimes="0;0.843;1" dur="3.09s" fill="freeze" begin="0s;6b32.click" /></path><path d="M66.83,58.93c5.12,6.09,14.06,18.06,20.93,25.42c2.12,2.27,4.74,4.65,7.01,5.84" stroke-dasharray="42.097" stroke-dashoffset="42.097"><animate attributeName="stroke-dashoffset" values="42.097" fill="freeze" begin="6b32.click" /><animate attributeName="stroke-dashoffset" values="42.097;42.097;0" keyTimes="0;0.88;1" dur="3.511s" fill="freeze" begin="0s;6b32.click" /></path></g></svg>