<svg xmlns="http://www.w3.org/2000/svg" viewBox="0 0 109 109" id="6b89"><g fill="none" stroke="#666" stroke-width="6" stroke-linecap="round" stroke-linejoin="round"><g><g><g><path d="M15.5,27.41c2,0.34,4.07,0.33,6.14-0.06c5.75-1.06,14.65-2.47,20.49-3.1c2.05-0.22,3.86-0.35,5.88,0.17" /></g><g><path d="M29.41,30.74c0.2,0.55,0.29,2.22-0.12,3.27c-2.79,7.08-6.04,13.87-15.62,24.34" /><path d="M28.64,43.05c0.26,0.04,1.39,0,2.14-0.12c2.11-0.31,4.78-0.97,8.13-1.64c2.72-0.54,4.6,1.46,3.43,4.49C37.99,57.06,31.75,73.38,13.61,87" /><path d="M21.46,56.85c2.85,1.26,7.35,5.2,8.06,7.17" /></g></g><g p4:phon="旬" xmlns:p4="http://kanjivg.tagaini.net"><g><g><path d="M61.06,14.75c0.03,0.6,0.18,1.58-0.06,2.42C59,24,55.62,32,49.53,40.13" /></g><path d="M57.28,31c2.2,0.86,4.81,0.75,7.09,0.33c5.33-0.98,18.97-3.37,23.16-3.58c5-0.25,6.03,1.45,5.75,6.75c-0.26,4.88-3.09,38.75-8.29,55.32c-2.09,6.66-4.53,7.13-9.21,2.18" /></g><g><path d="M54.04,45.39c0.66,0.66,1.02,1.64,1.02,2.66c0,0.77-0.05,16.75-0.04,25.44c0,2.81,0.01,4.75,0.04,5" /><path d="M56,46.98c2.31-0.49,10.43-2.1,14.52-2.89c2.3-0.44,3.7,0.4,3.7,3.28c0,3.46-0.03,17-0.03,25.13c0,2.73-0.03,4.6-0.03,4.78" /><path d="M56.51,60.23C60.25,59.75,69,58.62,72.8,58.5" /><path d="M56.17,75.14c4.07-0.55,11.81-1.28,16.87-1.75" /></g></g></g></g><g fill="none" stroke="#000" stroke-width="3" stroke-linecap="round" stroke-linejoin="round"><path d="M15.5,27.41c2,0.34,4.07,0.33,6.14-0.06c5.75-1.06,14.65-2.47,20.49-3.1c2.05-0.22,3.86-0.35,5.88,0.17" stroke-dasharray="32.819" stroke-dashoffset="32.819"><animate attributeName="stroke-dashoffset" values="32.819;32.819;0" dur="0.328s" fill="freeze" begin="0s;6b89.click" /></path><path d="M29.41,30.74c0.2,0.55,0.29,2.22-0.12,3.27c-2.79,7.08-6.04,13.87-15.62,24.34" stroke-dasharray="32.433" stroke-dashoffset="32.433"><animate attributeName="stroke-dashoffset" values="32.433" fill="freeze" begin="6b89.click" /><animate attributeName="stroke-dashoffset" values="32.433;32.433;0" keyTimes="0;0.503;1" dur="0.652s" fill="freeze" begin="0s;6b89.click" /></path><path d="M28.64,43.05c0.26,0.04,1.39,0,2.14-0.12c2.11-0.31,4.78-0.97,8.13-1.64c2.72-0.54,4.6,1.46,3.43,4.49C37.99,57.06,31.75,73.38,13.61,87" stroke-dasharray="68.703" stroke-dashoffset="68.703"><animate attributeName="stroke-dashoffset" values="68.703" fill="freeze" begin="6b89.click" /><animate attributeName="stroke-dashoffset" values="68.703;68.703;0" keyTimes="0;0.558;1" dur="1.169s" fill="freeze" begin="0s;6b89.click" /></path><path d="M21.46,56.85c2.85,1.26,7.35,5.2,8.06,7.17" stroke-dasharray="10.946" stroke-dashoffset="10.946"><animate attributeName="stroke-dashoffset" values="10.946" fill="freeze" begin="6b89.click" /><animate attributeName="stroke-dashoffset" values="10.946;10.946;0" keyTimes="0;0.842;1" dur="1.388s" fill="freeze" begin="0s;6b89.click" /></path><path d="M61.06,14.75c0.03,0.6,0.18,1.58-0.06,2.42C59,24,55.62,32,49.53,40.13" stroke-dasharray="28.24" stroke-dashoffset="28.24"><animate attributeName="stroke-dashoffset" values="28.24" fill="freeze" begin="6b89.click" /><animate attributeName="stroke-dashoffset" values="28.24;28.24;0" keyTimes="0;0.831;1" dur="1.67s" fill="freeze" begin="0s;6b89.click" /></path><path d="M57.28,31c2.2,0.86,4.81,0.75,7.09,0.33c5.33-0.98,18.97-3.37,23.16-3.58c5-0.25,6.03,1.45,5.75,6.75c-0.26,4.88-3.09,38.75-8.29,55.32c-2.09,6.66-4.53,7.13-9.21,2.18" stroke-dasharray="111.034" stroke-dashoffset="111.034"><animate attributeName="stroke-dashoffset" values="111.034" fill="freeze" begin="6b89.click" /><animate attributeName="stroke-dashoffset" values="111.034;111.034;0" keyTimes="0;0.667;1" dur="2.505s" fill="freeze" begin="0s;6b89.click" /></path><path d="M54.04,45.39c0.66,0.66,1.02,1.64,1.02,2.66c0,0.77-0.05,16.75-0.04,25.44c0,2.81,0.01,4.75,0.04,5" stroke-dasharray="33.364" stroke-dashoffset="33.364"><animate attributeName="stroke-dashoffset" values="33.364" fill="freeze" begin="6b89.click" /><animate attributeName="stroke-dashoffset" values="33.364;33.364;0" keyTimes="0;0.882;1" dur="2.839s" fill="freeze" begin="0s;6b89.click" /></path><path d="M56,46.98c2.31-0.49,10.43-2.1,14.52-2.89c2.3-0.44,3.7,0.4,3.7,3.28c0,3.46-0.03,17-0.03,25.13c0,2.73-0.03,4.6-0.03,4.78" stroke-dasharray="50.697" stroke-dashoffset="50.697"><animate attributeName="stroke-dashoffset" values="50.697" fill="freeze" begin="6b89.click" /><animate attributeName="stroke-dashoffset" values="50.697;50.697;0" keyTimes="0;0.848;1" dur="3.346s" fill="freeze" begin="0s;6b89.click" /></path><path d="M56.51,60.23C60.25,59.75,69,58.62,72.8,58.5" stroke-dasharray="16.387" stroke-dashoffset="16.387"><animate attributeName="stroke-dashoffset" values="16.387" fill="freeze" begin="6b89.click" /><animate attributeName="stroke-dashoffset" values="16.387;16.387;0" keyTimes="0;0.953;1" dur="3.51s" fill="freeze" begin="0s;6b89.click" /></path><path d="M56.17,75.14c4.07-0.55,11.81-1.28,16.87-1.75" stroke-dasharray="16.962" stroke-dashoffset="16.962"><animate attributeName="stroke-dashoffset" values="16.962" fill="freeze" begin="6b89.click" /><animate attributeName="stroke-dashoffset" values="16.962;16.962;0" keyTimes="0;0.954;1" dur="3.68s" fill="freeze" begin="0s;6b89.click" /></path></g></svg>