<svg xmlns="http://www.w3.org/2000/svg" viewBox="0 0 109 109" id="6bb2"><g fill="none" stroke="#666" stroke-width="6" stroke-linecap="round" stroke-linejoin="round"><g><g><g><path d="M13.25,18.47c1,0.03,2.79,0.56,3.8,0.52C22.5,18.75,30,18,37.28,17.51c1.65-0.11,2.64,0.25,3.47,0.5" /></g><g><path d="M23.77,22.39c0.16,0.69,0.63,2.79,0.3,4.12c-2.23,8.93-6.76,22.01-14.65,32.9" /><path d="M23.14,38.5c0.26,0.05,2.39,0,3.14-0.14c2.47-0.45,1.7-0.28,5.93-1.05c2.49-0.46,3.28,1.7,2.79,4.31C32.25,56.5,25.75,80,10.61,92" /><path d="M18.21,53.23c2.58,1.92,6.67,7.91,7.31,10.91" /></g></g><g><g><g><path d="M51,14.24c0.24,0.32,0.28,0.97,0.16,1.61c-0.91,4.9-3.91,12.9-9.44,19.52" /><path d="M48.96,25.82c2.19,1.11,4.98,4.05,6.04,6.83" /></g><g><path d="M67.46,14.74c0.29,0.35,0.4,1.09,0.2,1.78c-1.66,5.72-4.91,15.22-11.44,21.6" /><path d="M66.46,27.07C68.82,28.42,71.85,32,73,35.4" /></g></g><g><g><path d="M39.5,43.54c1.23,0.25,3.49,0.29,4.73,0.25c9.64-0.34,37.62-2.49,48.75-2.82c2.05-0.06,3.29,0.12,4.32,0.24" /></g></g><g><g><g><path d="M48.09,50.66c0.49,0.29,0.79,1.3,0.89,1.88s0,32.32-0.1,35.93" /><path d="M58.14,49.5c0.49,0.29,0.79,1.3,0.89,1.88c0.1,0.58,0,30.4-0.1,34.01" /><path d="M35.6,58.74c0.43,0.22,2.21,0.72,2.63,0.72c3.47-0.01,9.75-1.17,10.21-1.17" /><path d="M35.71,68.73c0.43,0.22,1.71,0.8,2.13,0.72c3.9-0.7,7.15-0.95,10.49-1.38" /></g><g><path d="M35.28,79.15c0.42,0.3,1.69,0.9,2.1,0.8c4.25-1.05,6.91-1.51,9.95-2.5" /><path d="M59.22,57.15c0.57,0,0.53-0.01,0.95-0.07c2.71-0.38,6.3-1.02,8.9-1.38c0.71-0.1,1.14,0.11,1.49,0.21" /><path d="M59.11,66.27c0.57,0,0.53-0.01,0.95-0.07c2.72-0.38,6.53-1.02,9.12-1.38c0.71-0.1,1.14,0.1,1.49,0.21" /><path d="M59.22,75.25c0.57,0,0.53-0.01,0.95-0.07c2.71-0.38,6.98-1.02,9.58-1.38c0.71-0.1,1.14,0.11,1.49,0.21" /></g></g><g><path d="M33.08,91.69c0.95,0.67,3.27,0.42,4,0.22c10.36-2.83,21.88-5.71,31.63-8.33" /></g></g><g><g><path d="M77,11.5c1.06,1.72,1.24,2.2,1.46,5.89c1.85,30.92,4.8,63.36,17.08,76.64c3.78,4.09,3.58,0.74,3.04-6.87" /></g><g><path d="M93.31,50.39c0.1,1.14,0.21,2.93-0.2,4.57c-2.4,9.63-16.86,35.54-35.01,44.76" /></g><g><g><path d="M85.74,21.5c2.79,2,7.26,6.57,8.56,10" /></g></g></g></g></g></g><g fill="none" stroke="#000" stroke-width="3" stroke-linecap="round" stroke-linejoin="round"><path d="M13.25,18.47c1,0.03,2.79,0.56,3.8,0.52C22.5,18.75,30,18,37.28,17.51c1.65-0.11,2.64,0.25,3.47,0.5" stroke-dasharray="27.658" stroke-dashoffset="27.658"><animate attributeName="stroke-dashoffset" values="27.658;27.658;0" dur="0.277s" fill="freeze" begin="0s;6bb2.click" /></path><path d="M23.77,22.39c0.16,0.69,0.63,2.79,0.3,4.12c-2.23,8.93-6.76,22.01-14.65,32.9" stroke-dasharray="40.388" stroke-dashoffset="40.388"><animate attributeName="stroke-dashoffset" values="40.388" fill="freeze" begin="6bb2.click" /><animate attributeName="stroke-dashoffset" values="40.388;40.388;0" keyTimes="0;0.407;1" dur="0.681s" fill="freeze" begin="0s;6bb2.click" /></path><path d="M23.14,38.5c0.26,0.05,2.39,0,3.14-0.14c2.47-0.45,1.7-0.28,5.93-1.05c2.49-0.46,3.28,1.7,2.79,4.31C32.25,56.5,25.75,80,10.61,92" stroke-dasharray="72.57" stroke-dashoffset="72.57"><animate attributeName="stroke-dashoffset" values="72.57" fill="freeze" begin="6bb2.click" /><animate attributeName="stroke-dashoffset" values="72.57;72.57;0" keyTimes="0;0.555;1" dur="1.227s" fill="freeze" begin="0s;6bb2.click" /></path><path d="M18.21,53.23c2.58,1.92,6.67,7.91,7.31,10.91" stroke-dasharray="13.296" stroke-dashoffset="13.296"><animate attributeName="stroke-dashoffset" values="13.296" fill="freeze" begin="6bb2.click" /><animate attributeName="stroke-dashoffset" values="13.296;13.296;0" keyTimes="0;0.822;1" dur="1.493s" fill="freeze" begin="0s;6bb2.click" /></path><path d="M51,14.24c0.24,0.32,0.28,0.97,0.16,1.61c-0.91,4.9-3.91,12.9-9.44,19.52" stroke-dasharray="23.551" stroke-dashoffset="23.551"><animate attributeName="stroke-dashoffset" values="23.551" fill="freeze" begin="6bb2.click" /><animate attributeName="stroke-dashoffset" values="23.551;23.551;0" keyTimes="0;0.864;1" dur="1.729s" fill="freeze" begin="0s;6bb2.click" /></path><path d="M48.96,25.82c2.19,1.11,4.98,4.05,6.04,6.83" stroke-dasharray="9.285" stroke-dashoffset="9.285"><animate attributeName="stroke-dashoffset" values="9.285" fill="freeze" begin="6bb2.click" /><animate attributeName="stroke-dashoffset" values="9.285;9.285;0" keyTimes="0;0.903;1" dur="1.915s" fill="freeze" begin="0s;6bb2.click" /></path><path d="M67.46,14.74c0.29,0.35,0.4,1.09,0.2,1.78c-1.66,5.72-4.91,15.22-11.44,21.6" stroke-dasharray="26.562" stroke-dashoffset="26.562"><animate attributeName="stroke-dashoffset" values="26.562" fill="freeze" begin="6bb2.click" /><animate attributeName="stroke-dashoffset" values="26.562;26.562;0" keyTimes="0;0.878;1" dur="2.181s" fill="freeze" begin="0s;6bb2.click" /></path><path d="M66.46,27.07C68.82,28.42,71.85,32,73,35.4" stroke-dasharray="10.776" stroke-dashoffset="10.776"><animate attributeName="stroke-dashoffset" values="10.776" fill="freeze" begin="6bb2.click" /><animate attributeName="stroke-dashoffset" values="10.776;10.776;0" keyTimes="0;0.91;1" dur="2.397s" fill="freeze" begin="0s;6bb2.click" /></path><path d="M39.5,43.54c1.23,0.25,3.49,0.29,4.73,0.25c9.64-0.34,37.62-2.49,48.75-2.82c2.05-0.06,3.29,0.12,4.32,0.24" stroke-dasharray="57.91" stroke-dashoffset="57.91"><animate attributeName="stroke-dashoffset" values="57.91" fill="freeze" begin="6bb2.click" /><animate attributeName="stroke-dashoffset" values="57.91;57.91;0" keyTimes="0;0.805;1" dur="2.976s" fill="freeze" begin="0s;6bb2.click" /></path><path d="M48.09,50.66c0.49,0.29,0.79,1.3,0.89,1.88s0,32.32-0.1,35.93" stroke-dasharray="38.061" stroke-dashoffset="38.061"><animate attributeName="stroke-dashoffset" values="38.061" fill="freeze" begin="6bb2.click" /><animate attributeName="stroke-dashoffset" values="38.061;38.061;0" keyTimes="0;0.887;1" dur="3.357s" fill="freeze" begin="0s;6bb2.click" /></path><path d="M58.14,49.5c0.49,0.29,0.79,1.3,0.89,1.88c0.1,0.58,0,30.4-0.1,34.01" stroke-dasharray="36.141" stroke-dashoffset="36.141"><animate attributeName="stroke-dashoffset" values="36.141" fill="freeze" begin="6bb2.click" /><animate attributeName="stroke-dashoffset" values="36.141;36.141;0" keyTimes="0;0.903;1" dur="3.718s" fill="freeze" begin="0s;6bb2.click" /></path><path d="M35.6,58.74c0.43,0.22,2.21,0.72,2.63,0.72c3.47-0.01,9.75-1.17,10.21-1.17" stroke-dasharray="13.021" stroke-dashoffset="13.021"><animate attributeName="stroke-dashoffset" values="13.021" fill="freeze" begin="6bb2.click" /><animate attributeName="stroke-dashoffset" values="13.021;13.021;0" keyTimes="0;0.935;1" dur="3.978s" fill="freeze" begin="0s;6bb2.click" /></path><path d="M35.71,68.73c0.43,0.22,1.71,0.8,2.13,0.72c3.9-0.7,7.15-0.95,10.49-1.38" stroke-dasharray="12.851" stroke-dashoffset="12.851"><animate attributeName="stroke-dashoffset" values="12.851" fill="freeze" begin="6bb2.click" /><animate attributeName="stroke-dashoffset" values="12.851;12.851;0" keyTimes="0;0.939;1" dur="4.235s" fill="freeze" begin="0s;6bb2.click" /></path><path d="M35.28,79.15c0.42,0.3,1.69,0.9,2.1,0.8c4.25-1.05,6.91-1.51,9.95-2.5" stroke-dasharray="12.542" stroke-dashoffset="12.542"><animate attributeName="stroke-dashoffset" values="12.542" fill="freeze" begin="6bb2.click" /><animate attributeName="stroke-dashoffset" values="12.542;12.542;0" keyTimes="0;0.944;1" dur="4.486s" fill="freeze" begin="0s;6bb2.click" /></path><path d="M59.22,57.15c0.57,0,0.53-0.01,0.95-0.07c2.71-0.38,6.3-1.02,8.9-1.38c0.71-0.1,1.14,0.11,1.49,0.21" stroke-dasharray="11.483" stroke-dashoffset="11.483"><animate attributeName="stroke-dashoffset" values="11.483" fill="freeze" begin="6bb2.click" /><animate attributeName="stroke-dashoffset" values="11.483;11.483;0" keyTimes="0;0.951;1" dur="4.716s" fill="freeze" begin="0s;6bb2.click" /></path><path d="M59.11,66.27c0.57,0,0.53-0.01,0.95-0.07c2.72-0.38,6.53-1.02,9.12-1.38c0.71-0.1,1.14,0.1,1.49,0.21" stroke-dasharray="11.702" stroke-dashoffset="11.702"><animate attributeName="stroke-dashoffset" values="11.702" fill="freeze" begin="6bb2.click" /><animate attributeName="stroke-dashoffset" values="11.702;11.702;0" keyTimes="0;0.953;1" dur="4.95s" fill="freeze" begin="0s;6bb2.click" /></path><path d="M59.22,75.25c0.57,0,0.53-0.01,0.95-0.07c2.71-0.38,6.98-1.02,9.58-1.38c0.71-0.1,1.14,0.11,1.49,0.21" stroke-dasharray="12.156" stroke-dashoffset="12.156"><animate attributeName="stroke-dashoffset" values="12.156" fill="freeze" begin="6bb2.click" /><animate attributeName="stroke-dashoffset" values="12.156;12.156;0" keyTimes="0;0.953;1" dur="5.193s" fill="freeze" begin="0s;6bb2.click" /></path><path d="M33.08,91.69c0.95,0.67,3.27,0.42,4,0.22c10.36-2.83,21.88-5.71,31.63-8.33" stroke-dasharray="36.801" stroke-dashoffset="36.801"><animate attributeName="stroke-dashoffset" values="36.801" fill="freeze" begin="6bb2.click" /><animate attributeName="stroke-dashoffset" values="36.801;36.801;0" keyTimes="0;0.934;1" dur="5.561s" fill="freeze" begin="0s;6bb2.click" /></path><path d="M77,11.5c1.06,1.72,1.24,2.2,1.46,5.89c1.85,30.92,4.8,63.36,17.08,76.64c3.78,4.09,3.58,0.74,3.04-6.87" stroke-dasharray="97.902" stroke-dashoffset="97.902"><animate attributeName="stroke-dashoffset" values="97.902" fill="freeze" begin="6bb2.click" /><animate attributeName="stroke-dashoffset" values="97.902;97.902;0" keyTimes="0;0.883;1" dur="6.297s" fill="freeze" begin="0s;6bb2.click" /></path><path d="M93.31,50.39c0.1,1.14,0.21,2.93-0.2,4.57c-2.4,9.63-16.86,35.54-35.01,44.76" stroke-dasharray="62.636" stroke-dashoffset="62.636"><animate attributeName="stroke-dashoffset" values="62.636" fill="freeze" begin="6bb2.click" /><animate attributeName="stroke-dashoffset" values="62.636;62.636;0" keyTimes="0;0.93;1" dur="6.768s" fill="freeze" begin="0s;6bb2.click" /></path><path d="M85.74,21.5c2.79,2,7.26,6.57,8.56,10" stroke-dasharray="13.3" stroke-dashoffset="13.3"><animate attributeName="stroke-dashoffset" values="13.3" fill="freeze" begin="6bb2.click" /><animate attributeName="stroke-dashoffset" values="13.3;13.3;0" keyTimes="0;0.962;1" dur="7.034s" fill="freeze" begin="0s;6bb2.click" /></path></g></svg>