<svg xmlns="http://www.w3.org/2000/svg" viewBox="0 0 109 109" id="6bbc"><g fill="none" stroke="#666" stroke-width="6" stroke-linecap="round" stroke-linejoin="round"><g><g><g><path d="M14.25,21.9c1.03,0.46,2.92,0.63,3.96,0.6c7.04-0.25,20.54-1,28.67-1.54c1.73-0.12,2.76-0.06,3.62,0.13" /><path d="M30.53,12.38c0.9,0.29,1.44,1.5,1.62,2.21c0.18,0.7,0.11,15.75,0.02,18.01" /><path d="M18.44,33.41c0.75,0.17,2.12,0.53,2.87,0.51c6.19-0.17,16.19-1.17,23.5-1.52c1.25-0.06,2-0.05,2.62,0.02" /></g><g><g><path d="M14.5,41.2c-0.08,3.34-1.53,11.55-3.5,15.05" /><path d="M14.43,43.32c9.57-0.82,24.5-2.23,33.46-2.42c7.36-0.15,2.21,6.2,0.19,8.62" /></g><path d="M19.25,53.99c0.7,0.28,1.98,0.24,2.68,0.28c3.82,0.22,11.82-1.28,16.12-1.39c1.17-0.03,1.87,0.14,2.45,0.28" /><g><g><path d="M20.61,64.23c0.36,0.8,0.89,1.42,0.87,2.42C21.25,77.5,19.5,87.25,13.25,94" /></g><path d="M21.69,65.58c2.07-0.32,11.85-2.37,13.5-2.68c1.65-0.32,3.44,0.32,3.03,1.9c-0.41,1.58-1.35,22.81-1.47,23.96c-0.25,2.5,1,3.75,2.5,2.5c5.07-4.23,9.5-9.5,12.25-12.75" /></g></g></g><g><g><g><path d="M60.94,18.35c0.56,0.65,0.99,1.85,0.97,2.89C61.8,31.98,61.75,43,56.08,48.86" /></g><path d="M62.29,19.28c2.16,0.28,14.47-2.34,15.92-2.9c2.16-0.84,3.76,0.91,3.03,2.62c-1.49,3.49-1.65,12.75-1.65,16.37c0,9.12,1.16,10.14,8.72,10.14c5.7,0,5.76-1.51,5.76-9.36" /></g><g><path d="M60.15,56.69c1.39,0.37,1.57,0.92,4.35,0.37c2.79-0.55,14.89-3.52,16.81-4.07c1.92-0.55,3.56,2.19,2.61,4.06C75,74.75,67,86.5,52,95.67" /><path d="M57.04,62.4c3.47,0.79,20.41,21.92,32.49,30.58c1.88,1.35,3.25,2.25,5,2.7" /></g></g></g></g><g fill="none" stroke="#000" stroke-width="3" stroke-linecap="round" stroke-linejoin="round"><path d="M14.25,21.9c1.03,0.46,2.92,0.63,3.96,0.6c7.04-0.25,20.54-1,28.67-1.54c1.73-0.12,2.76-0.06,3.62,0.13" stroke-dasharray="36.378" stroke-dashoffset="36.378"><animate attributeName="stroke-dashoffset" values="36.378;36.378;0" dur="0.364s" fill="freeze" begin="0s;6bbc.click" /></path><path d="M30.53,12.38c0.9,0.29,1.44,1.5,1.62,2.21c0.18,0.7,0.11,15.75,0.02,18.01" stroke-dasharray="20.859" stroke-dashoffset="20.859"><animate attributeName="stroke-dashoffset" values="20.859" fill="freeze" begin="6bbc.click" /><animate attributeName="stroke-dashoffset" values="20.859;20.859;0" keyTimes="0;0.635;1" dur="0.573s" fill="freeze" begin="0s;6bbc.click" /></path><path d="M18.44,33.41c0.75,0.17,2.12,0.53,2.87,0.51c6.19-0.17,16.19-1.17,23.5-1.52c1.25-0.06,2-0.05,2.62,0.02" stroke-dasharray="29.095" stroke-dashoffset="29.095"><animate attributeName="stroke-dashoffset" values="29.095" fill="freeze" begin="6bbc.click" /><animate attributeName="stroke-dashoffset" values="29.095;29.095;0" keyTimes="0;0.663;1" dur="0.864s" fill="freeze" begin="0s;6bbc.click" /></path><path d="M14.5,41.2c-0.08,3.34-1.53,11.55-3.5,15.05" stroke-dasharray="15.546" stroke-dashoffset="15.546"><animate attributeName="stroke-dashoffset" values="15.546" fill="freeze" begin="6bbc.click" /><animate attributeName="stroke-dashoffset" values="15.546;15.546;0" keyTimes="0;0.848;1" dur="1.019s" fill="freeze" begin="0s;6bbc.click" /></path><path d="M14.43,43.32c9.57-0.82,24.5-2.23,33.46-2.42c7.36-0.15,2.21,6.2,0.19,8.62" stroke-dasharray="46.051" stroke-dashoffset="46.051"><animate attributeName="stroke-dashoffset" values="46.051" fill="freeze" begin="6bbc.click" /><animate attributeName="stroke-dashoffset" values="46.051;46.051;0" keyTimes="0;0.689;1" dur="1.48s" fill="freeze" begin="0s;6bbc.click" /></path><path d="M19.25,53.99c0.7,0.28,1.98,0.24,2.68,0.28c3.82,0.22,11.82-1.28,16.12-1.39c1.17-0.03,1.87,0.14,2.45,0.28" stroke-dasharray="21.374" stroke-dashoffset="21.374"><animate attributeName="stroke-dashoffset" values="21.374" fill="freeze" begin="6bbc.click" /><animate attributeName="stroke-dashoffset" values="21.374;21.374;0" keyTimes="0;0.874;1" dur="1.694s" fill="freeze" begin="0s;6bbc.click" /></path><path d="M20.61,64.23c0.36,0.8,0.89,1.42,0.87,2.42C21.25,77.5,19.5,87.25,13.25,94" stroke-dasharray="31.814" stroke-dashoffset="31.814"><animate attributeName="stroke-dashoffset" values="31.814" fill="freeze" begin="6bbc.click" /><animate attributeName="stroke-dashoffset" values="31.814;31.814;0" keyTimes="0;0.842;1" dur="2.012s" fill="freeze" begin="0s;6bbc.click" /></path><path d="M21.69,65.58c2.07-0.32,11.85-2.37,13.5-2.68c1.65-0.32,3.44,0.32,3.03,1.9c-0.41,1.58-1.35,22.81-1.47,23.96c-0.25,2.5,1,3.75,2.5,2.5c5.07-4.23,9.5-9.5,12.25-12.75" stroke-dasharray="64.736" stroke-dashoffset="64.736"><animate attributeName="stroke-dashoffset" values="64.736" fill="freeze" begin="6bbc.click" /><animate attributeName="stroke-dashoffset" values="64.736;64.736;0" keyTimes="0;0.805;1" dur="2.499s" fill="freeze" begin="0s;6bbc.click" /></path><path d="M60.94,18.35c0.56,0.65,0.99,1.85,0.97,2.89C61.8,31.98,61.75,43,56.08,48.86" stroke-dasharray="31.973" stroke-dashoffset="31.973"><animate attributeName="stroke-dashoffset" values="31.973" fill="freeze" begin="6bbc.click" /><animate attributeName="stroke-dashoffset" values="31.973;31.973;0" keyTimes="0;0.886;1" dur="2.819s" fill="freeze" begin="0s;6bbc.click" /></path><path d="M62.29,19.28c2.16,0.28,14.47-2.34,15.92-2.9c2.16-0.84,3.76,0.91,3.03,2.62c-1.49,3.49-1.65,12.75-1.65,16.37c0,9.12,1.16,10.14,8.72,10.14c5.7,0,5.76-1.51,5.76-9.36" stroke-dasharray="67.658" stroke-dashoffset="67.658"><animate attributeName="stroke-dashoffset" values="67.658" fill="freeze" begin="6bbc.click" /><animate attributeName="stroke-dashoffset" values="67.658;67.658;0" keyTimes="0;0.847;1" dur="3.328s" fill="freeze" begin="0s;6bbc.click" /></path><path d="M60.15,56.69c1.39,0.37,1.57,0.92,4.35,0.37c2.79-0.55,14.89-3.52,16.81-4.07c1.92-0.55,3.56,2.19,2.61,4.06C75,74.75,67,86.5,52,95.67" stroke-dasharray="78.518" stroke-dashoffset="78.518"><animate attributeName="stroke-dashoffset" values="78.518" fill="freeze" begin="6bbc.click" /><animate attributeName="stroke-dashoffset" values="78.518;78.518;0" keyTimes="0;0.849;1" dur="3.918s" fill="freeze" begin="0s;6bbc.click" /></path><path d="M57.04,62.4c3.47,0.79,20.41,21.92,32.49,30.58c1.88,1.35,3.25,2.25,5,2.7" stroke-dasharray="50.444" stroke-dashoffset="50.444"><animate attributeName="stroke-dashoffset" values="50.444" fill="freeze" begin="6bbc.click" /><animate attributeName="stroke-dashoffset" values="50.444;50.444;0" keyTimes="0;0.886;1" dur="4.422s" fill="freeze" begin="0s;6bbc.click" /></path></g></svg>