<svg xmlns="http://www.w3.org/2000/svg" viewBox="0 0 109 109" id="6bc6"><g fill="none" stroke="#666" stroke-width="6" stroke-linecap="round" stroke-linejoin="round"><g><g><g><path d="M12.63,20.89c1.05,0.44,2.98,0.52,4.04,0.44c10.96-0.74,20.35-2.53,32.17-2.93c1.75-0.06,2.81,0.21,3.68,0.43" /></g><g><g><path d="M25.17,30.43c0.25,0.29,0.5,0.53,0.6,0.9c0.85,2.88,1.87,10.84,2.45,16.02" /><path d="M26.28,31.85c5.86-1.11,15.71-2.4,19.06-2.84c1.23-0.16,1.96,0.96,1.79,1.91c-0.73,3.93-1.24,6.09-2.32,11.52" /><path d="M28.19,45.06c3.94-0.5,12.77-1.36,18.18-2.13" /></g><g><g><path d="M21.97,57.65c0.26,0.31,0.52,0.56,0.63,0.94c0.89,3.02,1.83,13.46,2.44,18.89" /><path d="M23.27,58.7c3.28-0.8,6.81-1.54,9.82-1.94c1.1-0.15,1.76,0.86,1.6,1.71C34.04,62,33.58,69.2,32.61,74.09" /><path d="M24.99,75.66c3.54-0.45,8.18-1.61,9.53-1.53" /></g><g><path d="M39.93,57.06c0.26,0.33,0.52,0.61,0.64,1.03c0.9,3.31,1.62,12.03,2.23,17.98" /><path d="M40.93,57.96c3.32-0.96,8.04-1.87,11.07-2.3c1.11-0.16,1.77,0.94,1.62,1.88c-0.66,3.87-1.42,8.97-2.4,14.32" /><path d="M43.29,74.27c3.94-0.54,5.48-0.55,10.9-1.38" /></g></g></g><g><path d="M15.6,21.72c0,3.28-0.34,61.59-0.34,64.66c0,2.6,0.69,3.39,1.91,3.28c6.94-0.62,29.31-3.65,31.57-3.65c2.25,0,3.01,0.31,4.77,1.09" /></g></g><g><g><g><path d="M62.98,16.85c0.27,0.9,0.48,1.82,0.47,2.84c-0.15,10.56-2.13,22.46-6.27,27.17" /></g><path d="M63.67,19.28c1.73,0.28,12.22-2.05,13.47-2.4c1.37-0.39,3.6,0.77,3.43,2.62c-0.35,3.62-1.52,12.25-1.52,15.87c0,6.87,0.46,8.37,8.09,8.14c5.54-0.17,6.22-1.51,6.22-8.86" /></g><g><path d="M60.44,55.69c1.12,0.37,1.26,0.92,3.49,0.37c2.24-0.55,13.98-3.28,15.59-3.57c2.73-0.49,3.78,2.14,3.09,4.06C75.54,76.3,64.91,86.99,51.5,96.17" /><path d="M59.15,60.9C62.52,61.71,74,81.25,90.68,92.18c1.91,1.25,3.15,2.3,4.85,2.76" /></g></g></g></g><g fill="none" stroke="#000" stroke-width="3" stroke-linecap="round" stroke-linejoin="round"><path d="M12.63,20.89c1.05,0.44,2.98,0.52,4.04,0.44c10.96-0.74,20.35-2.53,32.17-2.93c1.75-0.06,2.81,0.21,3.68,0.43" stroke-dasharray="40.124" stroke-dashoffset="40.124"><animate attributeName="stroke-dashoffset" values="40.124;40.124;0" dur="0.401s" fill="freeze" begin="0s;6bc6.click" /></path><path d="M25.17,30.43c0.25,0.29,0.5,0.53,0.6,0.9c0.85,2.88,1.87,10.84,2.45,16.02" stroke-dasharray="17.311" stroke-dashoffset="17.311"><animate attributeName="stroke-dashoffset" values="17.311" fill="freeze" begin="6bc6.click" /><animate attributeName="stroke-dashoffset" values="17.311;17.311;0" keyTimes="0;0.699;1" dur="0.574s" fill="freeze" begin="0s;6bc6.click" /></path><path d="M26.28,31.85c5.86-1.11,15.71-2.4,19.06-2.84c1.23-0.16,1.96,0.96,1.79,1.91c-0.73,3.93-1.24,6.09-2.32,11.52" stroke-dasharray="34.078" stroke-dashoffset="34.078"><animate attributeName="stroke-dashoffset" values="34.078" fill="freeze" begin="6bc6.click" /><animate attributeName="stroke-dashoffset" values="34.078;34.078;0" keyTimes="0;0.627;1" dur="0.915s" fill="freeze" begin="0s;6bc6.click" /></path><path d="M28.19,45.06c3.94-0.5,12.77-1.36,18.18-2.13" stroke-dasharray="18.306" stroke-dashoffset="18.306"><animate attributeName="stroke-dashoffset" values="18.306" fill="freeze" begin="6bc6.click" /><animate attributeName="stroke-dashoffset" values="18.306;18.306;0" keyTimes="0;0.833;1" dur="1.098s" fill="freeze" begin="0s;6bc6.click" /></path><path d="M21.97,57.65c0.26,0.31,0.52,0.56,0.63,0.94c0.89,3.02,1.83,13.46,2.44,18.89" stroke-dasharray="20.201" stroke-dashoffset="20.201"><animate attributeName="stroke-dashoffset" values="20.201" fill="freeze" begin="6bc6.click" /><animate attributeName="stroke-dashoffset" values="20.201;20.201;0" keyTimes="0;0.845;1" dur="1.3s" fill="freeze" begin="0s;6bc6.click" /></path><path d="M23.27,58.7c3.28-0.8,6.81-1.54,9.82-1.94c1.1-0.15,1.76,0.86,1.6,1.71C34.04,62,33.58,69.2,32.61,74.09" stroke-dasharray="28.514" stroke-dashoffset="28.514"><animate attributeName="stroke-dashoffset" values="28.514" fill="freeze" begin="6bc6.click" /><animate attributeName="stroke-dashoffset" values="28.514;28.514;0" keyTimes="0;0.82;1" dur="1.585s" fill="freeze" begin="0s;6bc6.click" /></path><path d="M24.99,75.66c3.54-0.45,8.18-1.61,9.53-1.53" stroke-dasharray="9.661" stroke-dashoffset="9.661"><animate attributeName="stroke-dashoffset" values="9.661" fill="freeze" begin="6bc6.click" /><animate attributeName="stroke-dashoffset" values="9.661;9.661;0" keyTimes="0;0.891;1" dur="1.778s" fill="freeze" begin="0s;6bc6.click" /></path><path d="M39.93,57.06c0.26,0.33,0.52,0.61,0.64,1.03c0.9,3.31,1.62,12.03,2.23,17.98" stroke-dasharray="19.353" stroke-dashoffset="19.353"><animate attributeName="stroke-dashoffset" values="19.353" fill="freeze" begin="6bc6.click" /><animate attributeName="stroke-dashoffset" values="19.353;19.353;0" keyTimes="0;0.902;1" dur="1.972s" fill="freeze" begin="0s;6bc6.click" /></path><path d="M40.93,57.96c3.32-0.96,8.04-1.87,11.07-2.3c1.11-0.16,1.77,0.94,1.62,1.88c-0.66,3.87-1.42,8.97-2.4,14.32" stroke-dasharray="28.725" stroke-dashoffset="28.725"><animate attributeName="stroke-dashoffset" values="28.725" fill="freeze" begin="6bc6.click" /><animate attributeName="stroke-dashoffset" values="28.725;28.725;0" keyTimes="0;0.873;1" dur="2.259s" fill="freeze" begin="0s;6bc6.click" /></path><path d="M43.29,74.27c3.94-0.54,5.48-0.55,10.9-1.38" stroke-dasharray="10.989" stroke-dashoffset="10.989"><animate attributeName="stroke-dashoffset" values="10.989" fill="freeze" begin="6bc6.click" /><animate attributeName="stroke-dashoffset" values="10.989;10.989;0" keyTimes="0;0.911;1" dur="2.479s" fill="freeze" begin="0s;6bc6.click" /></path><path d="M15.6,21.72c0,3.28-0.34,61.59-0.34,64.66c0,2.6,0.69,3.39,1.91,3.28c6.94-0.62,29.31-3.65,31.57-3.65c2.25,0,3.01,0.31,4.77,1.09" stroke-dasharray="105.761" stroke-dashoffset="105.761"><animate attributeName="stroke-dashoffset" values="105.761" fill="freeze" begin="6bc6.click" /><animate attributeName="stroke-dashoffset" values="105.761;105.761;0" keyTimes="0;0.757;1" dur="3.274s" fill="freeze" begin="0s;6bc6.click" /></path><path d="M62.98,16.85c0.27,0.9,0.48,1.82,0.47,2.84c-0.15,10.56-2.13,22.46-6.27,27.17" stroke-dasharray="31.194" stroke-dashoffset="31.194"><animate attributeName="stroke-dashoffset" values="31.194" fill="freeze" begin="6bc6.click" /><animate attributeName="stroke-dashoffset" values="31.194;31.194;0" keyTimes="0;0.913;1" dur="3.586s" fill="freeze" begin="0s;6bc6.click" /></path><path d="M63.67,19.28c1.73,0.28,12.22-2.05,13.47-2.4c1.37-0.39,3.6,0.77,3.43,2.62c-0.35,3.62-1.52,12.25-1.52,15.87c0,6.87,0.46,8.37,8.09,8.14c5.54-0.17,6.22-1.51,6.22-8.86" stroke-dasharray="61.81" stroke-dashoffset="61.81"><animate attributeName="stroke-dashoffset" values="61.81" fill="freeze" begin="6bc6.click" /><animate attributeName="stroke-dashoffset" values="61.81;61.81;0" keyTimes="0;0.885;1" dur="4.051s" fill="freeze" begin="0s;6bc6.click" /></path><path d="M60.44,55.69c1.12,0.37,1.26,0.92,3.49,0.37c2.24-0.55,13.98-3.28,15.59-3.57c2.73-0.49,3.78,2.14,3.09,4.06C75.54,76.3,64.91,86.99,51.5,96.17" stroke-dasharray="77.241" stroke-dashoffset="77.241"><animate attributeName="stroke-dashoffset" values="77.241" fill="freeze" begin="6bc6.click" /><animate attributeName="stroke-dashoffset" values="77.241;77.241;0" keyTimes="0;0.875;1" dur="4.632s" fill="freeze" begin="0s;6bc6.click" /></path><path d="M59.15,60.9C62.52,61.71,74,81.25,90.68,92.18c1.91,1.25,3.15,2.3,4.85,2.76" stroke-dasharray="50.237" stroke-dashoffset="50.237"><animate attributeName="stroke-dashoffset" values="50.237" fill="freeze" begin="6bc6.click" /><animate attributeName="stroke-dashoffset" values="50.237;50.237;0" keyTimes="0;0.902;1" dur="5.134s" fill="freeze" begin="0s;6bc6.click" /></path></g></svg>