<svg xmlns="http://www.w3.org/2000/svg" viewBox="0 0 109 109" id="6c11"><g fill="none" stroke="#666" stroke-width="6" stroke-linecap="round" stroke-linejoin="round"><g><path d="M21.89,17.96c1.98,0.92,4.61,1.29,7.49,0.96c12.78-1.48,33.28-3.93,41.51-4.66c4.36-0.39,6.23,1.61,5.37,4.65c-1.32,4.67-2.62,8.33-4.01,11.59" /><g><path d="M25.35,36.27c9.44-0.95,33.85-3.79,45.27-4.92c1.98-0.2,4.5-0.61,6.13-0.35" /><path d="M23,18.75c0.69,0.69,1.25,2.12,1.25,3.25c0,2.25-0.25,62.75-0.25,66.25s0.25,4.5,3.5,2S38.75,80,40.75,78.5" /><g><path d="M27.73,55.8c1.65-0.21,3.64-0.46,5.88-0.75c13.44-1.7,33.41-4.24,46.41-6.28c1.85-0.29,3.99-0.53,5.77-0.12" /></g><path d="M52.75,36.25c1.12,1.12,2.13,3.39,2.39,5.15c3.48,23.48,14.11,41.98,32.94,52.02c8.09,4.32,6.17-1.92,5.95-6.36" /></g></g></g><g fill="none" stroke="#000" stroke-width="3" stroke-linecap="round" stroke-linejoin="round"><path d="M21.89,17.96c1.98,0.92,4.61,1.29,7.49,0.96c12.78-1.48,33.28-3.93,41.51-4.66c4.36-0.39,6.23,1.61,5.37,4.65c-1.32,4.67-2.62,8.33-4.01,11.59" stroke-dasharray="70.469" stroke-dashoffset="70.469"><animate attributeName="stroke-dashoffset" values="70.469;70.469;0" dur="0.53s" fill="freeze" begin="0s;6c11.click" /></path><path d="M25.35,36.27c9.44-0.95,33.85-3.79,45.27-4.92c1.98-0.2,4.5-0.61,6.13-0.35" stroke-dasharray="51.694" stroke-dashoffset="51.694"><animate attributeName="stroke-dashoffset" values="51.694" fill="freeze" begin="6c11.click" /><animate attributeName="stroke-dashoffset" values="51.694;51.694;0" keyTimes="0;0.506;1" dur="1.047s" fill="freeze" begin="0s;6c11.click" /></path><path d="M23,18.75c0.69,0.69,1.25,2.12,1.25,3.25c0,2.25-0.25,62.75-0.25,66.25s0.25,4.5,3.5,2S38.75,80,40.75,78.5" stroke-dasharray="94.275" stroke-dashoffset="94.275"><animate attributeName="stroke-dashoffset" values="94.275" fill="freeze" begin="6c11.click" /><animate attributeName="stroke-dashoffset" values="94.275;94.275;0" keyTimes="0;0.596;1" dur="1.756s" fill="freeze" begin="0s;6c11.click" /></path><path d="M27.73,55.8c1.65-0.21,3.64-0.46,5.88-0.75c13.44-1.7,33.41-4.24,46.41-6.28c1.85-0.29,3.99-0.53,5.77-0.12" stroke-dasharray="58.568" stroke-dashoffset="58.568"><animate attributeName="stroke-dashoffset" values="58.568" fill="freeze" begin="6c11.click" /><animate attributeName="stroke-dashoffset" values="58.568;58.568;0" keyTimes="0;0.75;1" dur="2.342s" fill="freeze" begin="0s;6c11.click" /></path><path d="M52.75,36.25c1.12,1.12,2.13,3.39,2.39,5.15c3.48,23.48,14.11,41.98,32.94,52.02c8.09,4.32,6.17-1.92,5.95-6.36" stroke-dasharray="83.257" stroke-dashoffset="83.257"><animate attributeName="stroke-dashoffset" values="83.257" fill="freeze" begin="6c11.click" /><animate attributeName="stroke-dashoffset" values="83.257;83.257;0" keyTimes="0;0.789;1" dur="2.968s" fill="freeze" begin="0s;6c11.click" /></path></g></svg>