<svg xmlns="http://www.w3.org/2000/svg" viewBox="0 0 109 109" id="6c5a"><g fill="none" stroke="#666" stroke-width="6" stroke-linecap="round" stroke-linejoin="round"><g><g><path d="M22,14.75c3.88,1.43,10.03,5.87,11,8.09" /><path d="M16.5,41.5c3.97,1.32,10.26,5.44,11.25,7.5" /><path d="M17.91,88.2c1.18,0.49,2.38-0.03,3.09-1.24C23.75,82.25,27.5,74,30,68" /></g><g p4:phon="亏V" xmlns:p4="http://kanjivg.tagaini.net"><g><g><path d="M46.92,16.87c1.5,0.57,4,0.49,5.59,0.33c7.87-0.82,17.92-2.29,25.51-2.64c1.68-0.08,3.41-0.17,5.06,0.21" /></g><g><path d="M37,39.41c2.31,0.76,5.73,0.59,8.14,0.28c10.84-1.4,32.11-3.42,43.24-3.82c2.46-0.09,4.94-0.19,7.37,0.29" /></g></g><path d="M63.18,18.05c0.69,1.45,0.53,3.27,0,4.93C60.25,32,54.66,44.84,51.3,52.43c-0.8,1.82-0.24,3.99,3.07,3.43C59.5,55,73.48,53.7,80.12,52.96c6.64-0.73,5.03,4.91,4.54,6.67c-2.49,9.05-7.05,23.81-12.49,31.42C66.5,99,62.39,90.89,60.5,89" /></g></g></g><g fill="none" stroke="#000" stroke-width="3" stroke-linecap="round" stroke-linejoin="round"><path d="M22,14.75c3.88,1.43,10.03,5.87,11,8.09" stroke-dasharray="13.842" stroke-dashoffset="13.842"><animate attributeName="stroke-dashoffset" values="13.842;13.842;0" dur="0.277s" fill="freeze" begin="0s;6c5a.click" /></path><path d="M16.5,41.5c3.97,1.32,10.26,5.44,11.25,7.5" stroke-dasharray="13.698" stroke-dashoffset="13.698"><animate attributeName="stroke-dashoffset" values="13.698" fill="freeze" begin="6c5a.click" /><animate attributeName="stroke-dashoffset" values="13.698;13.698;0" keyTimes="0;0.503;1" dur="0.551s" fill="freeze" begin="0s;6c5a.click" /></path><path d="M17.91,88.2c1.18,0.49,2.38-0.03,3.09-1.24C23.75,82.25,27.5,74,30,68" stroke-dasharray="24.66" stroke-dashoffset="24.66"><animate attributeName="stroke-dashoffset" values="24.66" fill="freeze" begin="6c5a.click" /><animate attributeName="stroke-dashoffset" values="24.66;24.66;0" keyTimes="0;0.69;1" dur="0.798s" fill="freeze" begin="0s;6c5a.click" /></path><path d="M46.92,16.87c1.5,0.57,4,0.49,5.59,0.33c7.87-0.82,17.92-2.29,25.51-2.64c1.68-0.08,3.41-0.17,5.06,0.21" stroke-dasharray="36.374" stroke-dashoffset="36.374"><animate attributeName="stroke-dashoffset" values="36.374" fill="freeze" begin="6c5a.click" /><animate attributeName="stroke-dashoffset" values="36.374;36.374;0" keyTimes="0;0.687;1" dur="1.162s" fill="freeze" begin="0s;6c5a.click" /></path><path d="M37,39.41c2.31,0.76,5.73,0.59,8.14,0.28c10.84-1.4,32.11-3.42,43.24-3.82c2.46-0.09,4.94-0.19,7.37,0.29" stroke-dasharray="59.016" stroke-dashoffset="59.016"><animate attributeName="stroke-dashoffset" values="59.016" fill="freeze" begin="6c5a.click" /><animate attributeName="stroke-dashoffset" values="59.016;59.016;0" keyTimes="0;0.663;1" dur="1.752s" fill="freeze" begin="0s;6c5a.click" /></path><path d="M63.18,18.05c0.69,1.45,0.53,3.27,0,4.93C60.25,32,54.66,44.84,51.3,52.43c-0.8,1.82-0.24,3.99,3.07,3.43C59.5,55,73.48,53.7,80.12,52.96c6.64-0.73,5.03,4.91,4.54,6.67c-2.49,9.05-7.05,23.81-12.49,31.42C66.5,99,62.39,90.89,60.5,89" stroke-dasharray="128.395" stroke-dashoffset="128.395"><animate attributeName="stroke-dashoffset" values="128.395" fill="freeze" begin="6c5a.click" /><animate attributeName="stroke-dashoffset" values="128.395;128.395;0" keyTimes="0;0.645;1" dur="2.717s" fill="freeze" begin="0s;6c5a.click" /></path></g></svg>