<svg xmlns="http://www.w3.org/2000/svg" viewBox="0 0 109 109" id="6c83"><g fill="none" stroke="#666" stroke-width="6" stroke-linecap="round" stroke-linejoin="round"><g><g><path d="M18.38,17c4.54,1.34,11.73,5.51,12.87,7.59" /><path d="M13.75,40c3.97,1.32,10.26,5.44,11.25,7.5" /><path d="M11.75,88.97c1.81,1.29,3.98,1.34,5.12-0.25c3.31-4.64,6.62-10.31,9.63-16.22" /></g><g><g><path d="M80.57,15.89c-0.07,0.86-0.15,1.73-0.71,2.26C75.75,22,59.25,30.75,42.51,34.5" /></g><g><path d="M36.35,52.51c0.77,0.42,2.73,0.64,3.58,0.58c9.8-0.69,39.33-4.74,51.61-4.9c1.07-0.01,2.57,0.16,4.95,0.88" /><path d="M63.66,30.9c0.47,0.88,0.72,1.89,0.71,3.79C64.14,67.56,52.75,84.9,34,95" /><path d="M64.67,52.9c6.83,12.35,19.46,30.07,27.1,36.39c2.33,1.92,2.98,2.36,3.98,2.56" /></g></g></g></g><g fill="none" stroke="#000" stroke-width="3" stroke-linecap="round" stroke-linejoin="round"><path d="M18.38,17c4.54,1.34,11.73,5.51,12.87,7.59" stroke-dasharray="15.118" stroke-dashoffset="15.118"><animate attributeName="stroke-dashoffset" values="15.118;15.118;0" dur="0.151s" fill="freeze" begin="0s;6c83.click" /></path><path d="M13.75,40c3.97,1.32,10.26,5.44,11.25,7.5" stroke-dasharray="13.698" stroke-dashoffset="13.698"><animate attributeName="stroke-dashoffset" values="13.698" fill="freeze" begin="6c83.click" /><animate attributeName="stroke-dashoffset" values="13.698;13.698;0" keyTimes="0;0.355;1" dur="0.425s" fill="freeze" begin="0s;6c83.click" /></path><path d="M11.75,88.97c1.81,1.29,3.98,1.34,5.12-0.25c3.31-4.64,6.62-10.31,9.63-16.22" stroke-dasharray="24.605" stroke-dashoffset="24.605"><animate attributeName="stroke-dashoffset" values="24.605" fill="freeze" begin="6c83.click" /><animate attributeName="stroke-dashoffset" values="24.605;24.605;0" keyTimes="0;0.633;1" dur="0.671s" fill="freeze" begin="0s;6c83.click" /></path><path d="M80.57,15.89c-0.07,0.86-0.15,1.73-0.71,2.26C75.75,22,59.25,30.75,42.51,34.5" stroke-dasharray="43.481" stroke-dashoffset="43.481"><animate attributeName="stroke-dashoffset" values="43.481" fill="freeze" begin="6c83.click" /><animate attributeName="stroke-dashoffset" values="43.481;43.481;0" keyTimes="0;0.607;1" dur="1.106s" fill="freeze" begin="0s;6c83.click" /></path><path d="M36.35,52.51c0.77,0.42,2.73,0.64,3.58,0.58c9.8-0.69,39.33-4.74,51.61-4.9c1.07-0.01,2.57,0.16,4.95,0.88" stroke-dasharray="60.557" stroke-dashoffset="60.557"><animate attributeName="stroke-dashoffset" values="60.557" fill="freeze" begin="6c83.click" /><animate attributeName="stroke-dashoffset" values="60.557;60.557;0" keyTimes="0;0.709;1" dur="1.561s" fill="freeze" begin="0s;6c83.click" /></path><path d="M63.66,30.9c0.47,0.88,0.72,1.89,0.71,3.79C64.14,67.56,52.75,84.9,34,95" stroke-dasharray="75.251" stroke-dashoffset="75.251"><animate attributeName="stroke-dashoffset" values="75.251" fill="freeze" begin="6c83.click" /><animate attributeName="stroke-dashoffset" values="75.251;75.251;0" keyTimes="0;0.734;1" dur="2.127s" fill="freeze" begin="0s;6c83.click" /></path><path d="M64.67,52.9c6.83,12.35,19.46,30.07,27.1,36.39c2.33,1.92,2.98,2.36,3.98,2.56" stroke-dasharray="50.324" stroke-dashoffset="50.324"><animate attributeName="stroke-dashoffset" values="50.324" fill="freeze" begin="6c83.click" /><animate attributeName="stroke-dashoffset" values="50.324;50.324;0" keyTimes="0;0.809;1" dur="2.63s" fill="freeze" begin="0s;6c83.click" /></path></g></svg>