<svg xmlns="http://www.w3.org/2000/svg" viewBox="0 0 109 109" id="6d19"><g fill="none" stroke="#666" stroke-width="6" stroke-linecap="round" stroke-linejoin="round"><g><g><path d="M17.13,17c4.63,1.6,11.96,6.6,13.12,9.09" /><path d="M12.75,43.25C17.07,44.79,23.92,49.6,25,52" /><path d="M13.5,86.5c1.93,1.25,4.25,1.3,5.46-0.24c3.54-4.5,8.57-13.01,11.79-18.76" /></g><g><path d="M49.99,18.86c0.03,0.61,0.12,1.76-0.06,2.45c-2.3,8.6-5.7,16.49-11.7,23.43" /><g><path d="M48.99,33c0.81,0.27,2.88,0.3,3.69,0.27c8.4-0.31,19.73-3.2,29.94-4.1c1.34-0.12,2.15,0.13,2.82,0.27" /><g><path d="M36.89,54.5c0.86,0.24,3.17,0.42,5.47,0.23c9.13-0.73,30.21-3.12,46.03-4.34c2.29-0.18,4.33,0.24,5.77,0.49" /><path d="M62.48,9.75c1.14,0.49,1.82,2.2,2.05,3.17s0,80.97-0.23,87.08" /><path d="M64.25,53.04C58.9,64.06,45.07,80.77,33.95,87" /><path d="M64.85,54.31c4.16,6.21,21.72,23.94,27.91,29.13c1.55,1.3,2.79,1.96,4.29,2.35" /></g></g></g></g></g><g fill="none" stroke="#000" stroke-width="3" stroke-linecap="round" stroke-linejoin="round"><path d="M17.13,17c4.63,1.6,11.96,6.6,13.12,9.09" stroke-dasharray="16.173" stroke-dashoffset="16.173"><animate attributeName="stroke-dashoffset" values="16.173;16.173;0" dur="0.162s" fill="freeze" begin="0s;6d19.click" /></path><path d="M12.75,43.25C17.07,44.79,23.92,49.6,25,52" stroke-dasharray="15.258" stroke-dashoffset="15.258"><animate attributeName="stroke-dashoffset" values="15.258" fill="freeze" begin="6d19.click" /><animate attributeName="stroke-dashoffset" values="15.258;15.258;0" keyTimes="0;0.514;1" dur="0.315s" fill="freeze" begin="0s;6d19.click" /></path><path d="M13.5,86.5c1.93,1.25,4.25,1.3,5.46-0.24c3.54-4.5,8.57-13.01,11.79-18.76" stroke-dasharray="28.177" stroke-dashoffset="28.177"><animate attributeName="stroke-dashoffset" values="28.177" fill="freeze" begin="6d19.click" /><animate attributeName="stroke-dashoffset" values="28.177;28.177;0" keyTimes="0;0.528;1" dur="0.597s" fill="freeze" begin="0s;6d19.click" /></path><path d="M49.99,18.86c0.03,0.61,0.12,1.76-0.06,2.45c-2.3,8.6-5.7,16.49-11.7,23.43" stroke-dasharray="28.883" stroke-dashoffset="28.883"><animate attributeName="stroke-dashoffset" values="28.883" fill="freeze" begin="6d19.click" /><animate attributeName="stroke-dashoffset" values="28.883;28.883;0" keyTimes="0;0.674;1" dur="0.886s" fill="freeze" begin="0s;6d19.click" /></path><path d="M48.99,33c0.81,0.27,2.88,0.3,3.69,0.27c8.4-0.31,19.73-3.2,29.94-4.1c1.34-0.12,2.15,0.13,2.82,0.27" stroke-dasharray="36.795" stroke-dashoffset="36.795"><animate attributeName="stroke-dashoffset" values="36.795" fill="freeze" begin="6d19.click" /><animate attributeName="stroke-dashoffset" values="36.795;36.795;0" keyTimes="0;0.707;1" dur="1.254s" fill="freeze" begin="0s;6d19.click" /></path><path d="M36.89,54.5c0.86,0.24,3.17,0.42,5.47,0.23c9.13-0.73,30.21-3.12,46.03-4.34c2.29-0.18,4.33,0.24,5.77,0.49" stroke-dasharray="57.538" stroke-dashoffset="57.538"><animate attributeName="stroke-dashoffset" values="57.538" fill="freeze" begin="6d19.click" /><animate attributeName="stroke-dashoffset" values="57.538;57.538;0" keyTimes="0;0.686;1" dur="1.829s" fill="freeze" begin="0s;6d19.click" /></path><path d="M62.48,9.75c1.14,0.49,1.82,2.2,2.05,3.17s0,80.97-0.23,87.08" stroke-dasharray="90.976" stroke-dashoffset="90.976"><animate attributeName="stroke-dashoffset" values="90.976" fill="freeze" begin="6d19.click" /><animate attributeName="stroke-dashoffset" values="90.976;90.976;0" keyTimes="0;0.728;1" dur="2.513s" fill="freeze" begin="0s;6d19.click" /></path><path d="M64.25,53.04C58.9,64.06,45.07,80.77,33.95,87" stroke-dasharray="46.02" stroke-dashoffset="46.02"><animate attributeName="stroke-dashoffset" values="46.02" fill="freeze" begin="6d19.click" /><animate attributeName="stroke-dashoffset" values="46.02;46.02;0" keyTimes="0;0.845;1" dur="2.973s" fill="freeze" begin="0s;6d19.click" /></path><path d="M64.85,54.31c4.16,6.21,21.72,23.94,27.91,29.13c1.55,1.3,2.79,1.96,4.29,2.35" stroke-dasharray="45.336" stroke-dashoffset="45.336"><animate attributeName="stroke-dashoffset" values="45.336" fill="freeze" begin="6d19.click" /><animate attributeName="stroke-dashoffset" values="45.336;45.336;0" keyTimes="0;0.868;1" dur="3.426s" fill="freeze" begin="0s;6d19.click" /></path></g></svg>