<svg xmlns="http://www.w3.org/2000/svg" viewBox="0 0 109 109" id="6d29"><g fill="none" stroke="#666" stroke-width="6" stroke-linecap="round" stroke-linejoin="round"><g><g><path d="M18.88,21c4.63,1.38,11.71,5.44,12.87,7.59" /><path d="M14.75,44c5.12,1.41,12.97,5.3,14.25,7.5" /><path d="M17.25,91.21c2.12,0.29,3.31-0.39,4.25-2c2.75-4.7,5-9.7,7.5-15.7" /></g><g><g><path d="M40.48,31.61c0.75,0.94,1.14,1.99,1.17,3.15c0.81,5.48,1.59,11.21,2.44,17.49c0.32,2.32,0.64,4.72,0.99,7.21" /><path d="M42.46,32.78c11.8-1.79,29.27-4.22,38.17-4.88c2.34-0.61,4.62,0.85,4.33,3.8c-0.37,3.73-1.15,9.39-2.33,15.9c-0.43,2.39-0.92,4.9-1.44,7.47" /><path d="M44.15,44.55c3.59-0.49,35.77-4.65,38.73-4.85" /><path d="M45.91,56.8c12.59-1.55,23.76-3.5,34.7-4.39" /></g><path d="M56.01,11c1.12,1.25,1.87,2.32,2.2,6.22C61.5,55.5,71.25,80.25,90.33,94.44c5.95,4.42,5.4,0.78,4.6-7.26" /><g><path d="M83.74,62.37c-0.31,1.63-0.95,3.08-1.93,4.33c-4.79,6.33-19.73,17.67-39.45,24.55" /></g></g></g></g><g fill="none" stroke="#000" stroke-width="3" stroke-linecap="round" stroke-linejoin="round"><path d="M18.88,21c4.63,1.38,11.71,5.44,12.87,7.59" stroke-dasharray="15.127" stroke-dashoffset="15.127"><animate attributeName="stroke-dashoffset" values="15.127;15.127;0" dur="0.151s" fill="freeze" begin="0s;6d29.click" /></path><path d="M14.75,44c5.12,1.41,12.97,5.3,14.25,7.5" stroke-dasharray="16.289" stroke-dashoffset="16.289"><animate attributeName="stroke-dashoffset" values="16.289" fill="freeze" begin="6d29.click" /><animate attributeName="stroke-dashoffset" values="16.289;16.289;0" keyTimes="0;0.481;1" dur="0.314s" fill="freeze" begin="0s;6d29.click" /></path><path d="M17.25,91.21c2.12,0.29,3.31-0.39,4.25-2c2.75-4.7,5-9.7,7.5-15.7" stroke-dasharray="22.473" stroke-dashoffset="22.473"><animate attributeName="stroke-dashoffset" values="22.473" fill="freeze" begin="6d29.click" /><animate attributeName="stroke-dashoffset" values="22.473;22.473;0" keyTimes="0;0.583;1" dur="0.539s" fill="freeze" begin="0s;6d29.click" /></path><path d="M40.48,31.61c0.75,0.94,1.14,1.99,1.17,3.15c0.81,5.48,1.59,11.21,2.44,17.49c0.32,2.32,0.64,4.72,0.99,7.21" stroke-dasharray="28.36" stroke-dashoffset="28.36"><animate attributeName="stroke-dashoffset" values="28.36" fill="freeze" begin="6d29.click" /><animate attributeName="stroke-dashoffset" values="28.36;28.36;0" keyTimes="0;0.655;1" dur="0.823s" fill="freeze" begin="0s;6d29.click" /></path><path d="M42.46,32.78c11.8-1.79,29.27-4.22,38.17-4.88c2.34-0.61,4.62,0.85,4.33,3.8c-0.37,3.73-1.15,9.39-2.33,15.9c-0.43,2.39-0.92,4.9-1.44,7.47" stroke-dasharray="69.084" stroke-dashoffset="69.084"><animate attributeName="stroke-dashoffset" values="69.084" fill="freeze" begin="6d29.click" /><animate attributeName="stroke-dashoffset" values="69.084;69.084;0" keyTimes="0;0.613;1" dur="1.342s" fill="freeze" begin="0s;6d29.click" /></path><path d="M44.15,44.55c3.59-0.49,35.77-4.65,38.73-4.85" stroke-dasharray="39.034" stroke-dashoffset="39.034"><animate attributeName="stroke-dashoffset" values="39.034" fill="freeze" begin="6d29.click" /><animate attributeName="stroke-dashoffset" values="39.034;39.034;0" keyTimes="0;0.775;1" dur="1.732s" fill="freeze" begin="0s;6d29.click" /></path><path d="M45.91,56.8c12.59-1.55,23.76-3.5,34.7-4.39" stroke-dasharray="34.982" stroke-dashoffset="34.982"><animate attributeName="stroke-dashoffset" values="34.982" fill="freeze" begin="6d29.click" /><animate attributeName="stroke-dashoffset" values="34.982;34.982;0" keyTimes="0;0.832;1" dur="2.082s" fill="freeze" begin="0s;6d29.click" /></path><path d="M56.01,11c1.12,1.25,1.87,2.32,2.2,6.22C61.5,55.5,71.25,80.25,90.33,94.44c5.95,4.42,5.4,0.78,4.6-7.26" stroke-dasharray="107.053" stroke-dashoffset="107.053"><animate attributeName="stroke-dashoffset" values="107.053" fill="freeze" begin="6d29.click" /><animate attributeName="stroke-dashoffset" values="107.053;107.053;0" keyTimes="0;0.721;1" dur="2.887s" fill="freeze" begin="0s;6d29.click" /></path><path d="M83.74,62.37c-0.31,1.63-0.95,3.08-1.93,4.33c-4.79,6.33-19.73,17.67-39.45,24.55" stroke-dasharray="51.745" stroke-dashoffset="51.745"><animate attributeName="stroke-dashoffset" values="51.745" fill="freeze" begin="6d29.click" /><animate attributeName="stroke-dashoffset" values="51.745;51.745;0" keyTimes="0;0.848;1" dur="3.404s" fill="freeze" begin="0s;6d29.click" /></path></g></svg>