<svg xmlns="http://www.w3.org/2000/svg" viewBox="0 0 109 109" id="6d79"><g fill="none" stroke="#666" stroke-width="6" stroke-linecap="round" stroke-linejoin="round"><g><g><path d="M17.38,15.5c4.72,1.78,12.19,7.32,13.37,10.09" /><path d="M14,41.75c4.24,1.63,10.94,6.71,12,9.25" /><path d="M13.25,89.23c1.71,1.27,3.78,1.32,4.86-0.25c3.14-4.57,9.29-16.16,12.14-21.99" /></g><g><g><path d="M37.75,31.15c1.29,0.44,3.65,0.49,4.94,0.44c9.06-0.34,39.58-3.02,47.54-2.52c2.14,0.14,3.44,0.21,4.52,0.43" /></g><g><g><path d="M49.51,40.74c0,0.6,0.05,1.1-0.09,1.8c-1.31,6.52-5.21,14.63-10.95,21.83" /><path d="M47.64,53.71c2.93,1.5,6.68,5.5,8.11,9.29" /></g><g><path d="M82.77,38.74c0,0.54,0.08,1.01-0.08,1.62c-1.38,5.28-5.3,14.69-9.97,20.02" /><path d="M80.89,50.71c5.01,2.86,8.86,6.44,11.86,10.79" /></g></g><g><path d="M63.25,12.25c0.48,1.17,1.25,2.52,1.25,5.04c0,46.84-2.99,62.71-31.24,80.21" /><path d="M63.5,53c6.01,12.1,19.23,33.57,27.38,40.53c2.28,1.95,2.89,2.51,3.87,2.72" /></g></g></g></g><g fill="none" stroke="#000" stroke-width="3" stroke-linecap="round" stroke-linejoin="round"><path d="M17.38,15.5c4.72,1.78,12.19,7.32,13.37,10.09" stroke-dasharray="16.983" stroke-dashoffset="16.983"><animate attributeName="stroke-dashoffset" values="16.983;16.983;0" dur="0.17s" fill="freeze" begin="0s;6d79.click" /></path><path d="M14,41.75c4.24,1.63,10.94,6.71,12,9.25" stroke-dasharray="15.364" stroke-dashoffset="15.364"><animate attributeName="stroke-dashoffset" values="15.364" fill="freeze" begin="6d79.click" /><animate attributeName="stroke-dashoffset" values="15.364;15.364;0" keyTimes="0;0.525;1" dur="0.324s" fill="freeze" begin="0s;6d79.click" /></path><path d="M13.25,89.23c1.71,1.27,3.78,1.32,4.86-0.25c3.14-4.57,9.29-16.16,12.14-21.99" stroke-dasharray="30.607" stroke-dashoffset="30.607"><animate attributeName="stroke-dashoffset" values="30.607" fill="freeze" begin="6d79.click" /><animate attributeName="stroke-dashoffset" values="30.607;30.607;0" keyTimes="0;0.514;1" dur="0.63s" fill="freeze" begin="0s;6d79.click" /></path><path d="M37.75,31.15c1.29,0.44,3.65,0.49,4.94,0.44c9.06-0.34,39.58-3.02,47.54-2.52c2.14,0.14,3.44,0.21,4.52,0.43" stroke-dasharray="57.145" stroke-dashoffset="57.145"><animate attributeName="stroke-dashoffset" values="57.145" fill="freeze" begin="6d79.click" /><animate attributeName="stroke-dashoffset" values="57.145;57.145;0" keyTimes="0;0.525;1" dur="1.201s" fill="freeze" begin="0s;6d79.click" /></path><path d="M49.51,40.74c0,0.6,0.05,1.1-0.09,1.8c-1.31,6.52-5.21,14.63-10.95,21.83" stroke-dasharray="26.44" stroke-dashoffset="26.44"><animate attributeName="stroke-dashoffset" values="26.44" fill="freeze" begin="6d79.click" /><animate attributeName="stroke-dashoffset" values="26.44;26.44;0" keyTimes="0;0.82;1" dur="1.465s" fill="freeze" begin="0s;6d79.click" /></path><path d="M47.64,53.71c2.93,1.5,6.68,5.5,8.11,9.29" stroke-dasharray="12.557" stroke-dashoffset="12.557"><animate attributeName="stroke-dashoffset" values="12.557" fill="freeze" begin="6d79.click" /><animate attributeName="stroke-dashoffset" values="12.557;12.557;0" keyTimes="0;0.854;1" dur="1.716s" fill="freeze" begin="0s;6d79.click" /></path><path d="M82.77,38.74c0,0.54,0.08,1.01-0.08,1.62c-1.38,5.28-5.3,14.69-9.97,20.02" stroke-dasharray="24.152" stroke-dashoffset="24.152"><animate attributeName="stroke-dashoffset" values="24.152" fill="freeze" begin="6d79.click" /><animate attributeName="stroke-dashoffset" values="24.152;24.152;0" keyTimes="0;0.876;1" dur="1.958s" fill="freeze" begin="0s;6d79.click" /></path><path d="M80.89,50.71c5.01,2.86,8.86,6.44,11.86,10.79" stroke-dasharray="16.174" stroke-dashoffset="16.174"><animate attributeName="stroke-dashoffset" values="16.174" fill="freeze" begin="6d79.click" /><animate attributeName="stroke-dashoffset" values="16.174;16.174;0" keyTimes="0;0.924;1" dur="2.12s" fill="freeze" begin="0s;6d79.click" /></path><path d="M63.25,12.25c0.48,1.17,1.25,2.52,1.25,5.04c0,46.84-2.99,62.71-31.24,80.21" stroke-dasharray="96.835" stroke-dashoffset="96.835"><animate attributeName="stroke-dashoffset" values="96.835" fill="freeze" begin="6d79.click" /><animate attributeName="stroke-dashoffset" values="96.835;96.835;0" keyTimes="0;0.744;1" dur="2.848s" fill="freeze" begin="0s;6d79.click" /></path><path d="M63.5,53c6.01,12.1,19.23,33.57,27.38,40.53c2.28,1.95,2.89,2.51,3.87,2.72" stroke-dasharray="53.887" stroke-dashoffset="53.887"><animate attributeName="stroke-dashoffset" values="53.887" fill="freeze" begin="6d79.click" /><animate attributeName="stroke-dashoffset" values="53.887;53.887;0" keyTimes="0;0.841;1" dur="3.387s" fill="freeze" begin="0s;6d79.click" /></path></g></svg>