<svg xmlns="http://www.w3.org/2000/svg" viewBox="0 0 109 109" id="6d99"><g fill="none" stroke="#666" stroke-width="6" stroke-linecap="round" stroke-linejoin="round"><g><g><path d="M18.63,14.75c3.92,1.56,10.13,6.41,11.12,8.84" /><path d="M10.25,37.5c5.29,1.28,13.68,5.26,15,7.25" /><path d="M11.6,90.11c1.43,0.59,2.65,0.12,3.51-1.12c3.14-4.57,6.54-10.91,9.39-16.74" /></g><g><g><path d="M39.43,18.49c2.57,0.39,5.81,0.28,8.2,0.03c9.43-1,20.27-2.15,31.02-3.42c2.83-0.33,5.54-0.36,8.37,0.25" /><path d="M41.2,30.85c2.39,0.89,4.7,0.8,7.15,0.49c9.98-1.28,24.68-3.18,31.8-3.98c3.62-0.41,5.39,0.97,4.49,4.8c-1.06,4.49-1.47,6.45-2.3,9.14" /><path d="M45.36,45.18c1.02,0,22.18-2.09,34.4-2.83c2.02-0.12,3.77-0.19,5.12-0.19" /><path d="M43.69,32c0.85,0.85,1.17,2.24,1.1,4.19C43.88,61.5,38.88,77.62,27.72,90" /></g><g><path d="M47.84,62.79c2.41,0.46,4.62,0.41,6.66,0.18c9.33-1.08,19.9-2.68,28.51-3.22c2.46-0.16,4.45,0.12,6.85,0.62" /><path d="M66.22,49.21c0.44,0.63,0.66,1.36,0.65,2.72c-0.21,23.6-10.2,35.56-27.47,42.81" /><path d="M67.35,62.56C73.38,71,79.62,80.75,87.67,88.59c1.94,1.89,3.96,3.55,6.36,4.83" /></g></g></g></g><g fill="none" stroke="#000" stroke-width="3" stroke-linecap="round" stroke-linejoin="round"><path d="M18.63,14.75c3.92,1.56,10.13,6.41,11.12,8.84" stroke-dasharray="14.406" stroke-dashoffset="14.406"><animate attributeName="stroke-dashoffset" values="14.406;14.406;0" dur="0.288s" fill="freeze" begin="0s;6d99.click" /></path><path d="M10.25,37.5c5.29,1.28,13.68,5.26,15,7.25" stroke-dasharray="16.824" stroke-dashoffset="16.824"><animate attributeName="stroke-dashoffset" values="16.824" fill="freeze" begin="6d99.click" /><animate attributeName="stroke-dashoffset" values="16.824;16.824;0" keyTimes="0;0.632;1" dur="0.456s" fill="freeze" begin="0s;6d99.click" /></path><path d="M11.6,90.11c1.43,0.59,2.65,0.12,3.51-1.12c3.14-4.57,6.54-10.91,9.39-16.74" stroke-dasharray="23.244" stroke-dashoffset="23.244"><animate attributeName="stroke-dashoffset" values="23.244" fill="freeze" begin="6d99.click" /><animate attributeName="stroke-dashoffset" values="23.244;23.244;0" keyTimes="0;0.663;1" dur="0.688s" fill="freeze" begin="0s;6d99.click" /></path><path d="M39.43,18.49c2.57,0.39,5.81,0.28,8.2,0.03c9.43-1,20.27-2.15,31.02-3.42c2.83-0.33,5.54-0.36,8.37,0.25" stroke-dasharray="47.842" stroke-dashoffset="47.842"><animate attributeName="stroke-dashoffset" values="47.842" fill="freeze" begin="6d99.click" /><animate attributeName="stroke-dashoffset" values="47.842;47.842;0" keyTimes="0;0.59;1" dur="1.166s" fill="freeze" begin="0s;6d99.click" /></path><path d="M41.2,30.85c2.39,0.89,4.7,0.8,7.15,0.49c9.98-1.28,24.68-3.18,31.8-3.98c3.62-0.41,5.39,0.97,4.49,4.8c-1.06,4.49-1.47,6.45-2.3,9.14" stroke-dasharray="57.08" stroke-dashoffset="57.08"><animate attributeName="stroke-dashoffset" values="57.08" fill="freeze" begin="6d99.click" /><animate attributeName="stroke-dashoffset" values="57.08;57.08;0" keyTimes="0;0.671;1" dur="1.737s" fill="freeze" begin="0s;6d99.click" /></path><path d="M45.36,45.18c1.02,0,22.18-2.09,34.4-2.83c2.02-0.12,3.77-0.19,5.12-0.19" stroke-dasharray="39.643" stroke-dashoffset="39.643"><animate attributeName="stroke-dashoffset" values="39.643" fill="freeze" begin="6d99.click" /><animate attributeName="stroke-dashoffset" values="39.643;39.643;0" keyTimes="0;0.814;1" dur="2.133s" fill="freeze" begin="0s;6d99.click" /></path><path d="M43.69,32c0.85,0.85,1.17,2.24,1.1,4.19C43.88,61.5,38.88,77.62,27.72,90" stroke-dasharray="62.143" stroke-dashoffset="62.143"><animate attributeName="stroke-dashoffset" values="62.143" fill="freeze" begin="6d99.click" /><animate attributeName="stroke-dashoffset" values="62.143;62.143;0" keyTimes="0;0.82;1" dur="2.6s" fill="freeze" begin="0s;6d99.click" /></path><path d="M47.84,62.79c2.41,0.46,4.62,0.41,6.66,0.18c9.33-1.08,19.9-2.68,28.51-3.22c2.46-0.16,4.45,0.12,6.85,0.62" stroke-dasharray="42.287" stroke-dashoffset="42.287"><animate attributeName="stroke-dashoffset" values="42.287" fill="freeze" begin="6d99.click" /><animate attributeName="stroke-dashoffset" values="42.287;42.287;0" keyTimes="0;0.86;1" dur="3.023s" fill="freeze" begin="0s;6d99.click" /></path><path d="M66.22,49.21c0.44,0.63,0.66,1.36,0.65,2.72c-0.21,23.6-10.2,35.56-27.47,42.81" stroke-dasharray="57.403" stroke-dashoffset="57.403"><animate attributeName="stroke-dashoffset" values="57.403" fill="freeze" begin="6d99.click" /><animate attributeName="stroke-dashoffset" values="57.403;57.403;0" keyTimes="0;0.84;1" dur="3.597s" fill="freeze" begin="0s;6d99.click" /></path><path d="M67.35,62.56C73.38,71,79.62,80.75,87.67,88.59c1.94,1.89,3.96,3.55,6.36,4.83" stroke-dasharray="41.088" stroke-dashoffset="41.088"><animate attributeName="stroke-dashoffset" values="41.088" fill="freeze" begin="6d99.click" /><animate attributeName="stroke-dashoffset" values="41.088;41.088;0" keyTimes="0;0.897;1" dur="4.008s" fill="freeze" begin="0s;6d99.click" /></path></g></svg>