<svg xmlns="http://www.w3.org/2000/svg" viewBox="0 0 109 109" id="6dcc"><g fill="none" stroke="#666" stroke-width="6" stroke-linecap="round" stroke-linejoin="round"><g><g><path d="M17.13,15.75c4.63,1.74,11.96,7.14,13.12,9.84" /><path d="M14,42.5c4.41,1.59,11.4,6.53,12.5,9" /><path d="M15.75,89.71c1.5,1.31,3.31,1.36,4.25-0.25C22.75,84.75,28.5,73,31,67" /></g><g><g><path d="M63.04,12.62c0.21,0.4,2.33,2.07,2.33,4.59c0,11.46-0.18,21.86-0.18,25.99" /><path d="M53.12,22.02c0.05,0.42,0.1,1.07-0.09,1.67c-1.09,3.52-7.37,11.26-15.95,15.99" /><path d="M77.3,20.6c6.08,2.68,15.72,11.03,17.24,15.2" /></g><g><g><path d="M42.55,43.35c0.97,0.77,1.7,2.58,1.78,4.01c0.35,6.26-0.62,39.29-0.43,48.53" /><path d="M44.17,45.84c16.83-1.48,29.28-3.09,42.09-4.24c2.76-0.25,4.83,1.74,4.77,4.04c-0.21,8.22-0.16,28.5-0.16,42.11c0,9.75-5.19,5.41-8.28,0.79" /></g><g><path d="M56.31,57.33c0.24,0.22,0.51,0.39,0.58,0.68c0.68,2.52,2.11,18.05,2.79,21.76" /><path d="M57.79,58.81c4.38-0.54,11.36-2.28,15.43-2.54c1.77-0.11,3.05,1.12,2.82,2.71c-0.79,5.27-1.34,7.47-2.97,16.78" /><path d="M60.18,77.46c5.67-0.73,10.28-0.89,14.78-1.39" /></g></g></g></g></g><g fill="none" stroke="#000" stroke-width="3" stroke-linecap="round" stroke-linejoin="round"><path d="M17.13,15.75c4.63,1.74,11.96,7.14,13.12,9.84" stroke-dasharray="16.626" stroke-dashoffset="16.626"><animate attributeName="stroke-dashoffset" values="16.626;16.626;0" dur="0.166s" fill="freeze" begin="0s;6dcc.click" /></path><path d="M14,42.5c4.41,1.59,11.4,6.53,12.5,9" stroke-dasharray="15.612" stroke-dashoffset="15.612"><animate attributeName="stroke-dashoffset" values="15.612" fill="freeze" begin="6dcc.click" /><animate attributeName="stroke-dashoffset" values="15.612;15.612;0" keyTimes="0;0.516;1" dur="0.322s" fill="freeze" begin="0s;6dcc.click" /></path><path d="M15.75,89.71c1.5,1.31,3.31,1.36,4.25-0.25C22.75,84.75,28.5,73,31,67" stroke-dasharray="29.985" stroke-dashoffset="29.985"><animate attributeName="stroke-dashoffset" values="29.985" fill="freeze" begin="6dcc.click" /><animate attributeName="stroke-dashoffset" values="29.985;29.985;0" keyTimes="0;0.518;1" dur="0.622s" fill="freeze" begin="0s;6dcc.click" /></path><path d="M63.04,12.62c0.21,0.4,2.33,2.07,2.33,4.59c0,11.46-0.18,21.86-0.18,25.99" stroke-dasharray="31.272" stroke-dashoffset="31.272"><animate attributeName="stroke-dashoffset" values="31.272" fill="freeze" begin="6dcc.click" /><animate attributeName="stroke-dashoffset" values="31.272;31.272;0" keyTimes="0;0.665;1" dur="0.935s" fill="freeze" begin="0s;6dcc.click" /></path><path d="M53.12,22.02c0.05,0.42,0.1,1.07-0.09,1.67c-1.09,3.52-7.37,11.26-15.95,15.99" stroke-dasharray="24.642" stroke-dashoffset="24.642"><animate attributeName="stroke-dashoffset" values="24.642" fill="freeze" begin="6dcc.click" /><animate attributeName="stroke-dashoffset" values="24.642;24.642;0" keyTimes="0;0.792;1" dur="1.181s" fill="freeze" begin="0s;6dcc.click" /></path><path d="M77.3,20.6c6.08,2.68,15.72,11.03,17.24,15.2" stroke-dasharray="23.317" stroke-dashoffset="23.317"><animate attributeName="stroke-dashoffset" values="23.317" fill="freeze" begin="6dcc.click" /><animate attributeName="stroke-dashoffset" values="23.317;23.317;0" keyTimes="0;0.835;1" dur="1.414s" fill="freeze" begin="0s;6dcc.click" /></path><path d="M42.55,43.35c0.97,0.77,1.7,2.58,1.78,4.01c0.35,6.26-0.62,39.29-0.43,48.53" stroke-dasharray="53.03" stroke-dashoffset="53.03"><animate attributeName="stroke-dashoffset" values="53.03" fill="freeze" begin="6dcc.click" /><animate attributeName="stroke-dashoffset" values="53.03;53.03;0" keyTimes="0;0.727;1" dur="1.944s" fill="freeze" begin="0s;6dcc.click" /></path><path d="M44.17,45.84c16.83-1.48,29.28-3.09,42.09-4.24c2.76-0.25,4.83,1.74,4.77,4.04c-0.21,8.22-0.16,28.5-0.16,42.11c0,9.75-5.19,5.41-8.28,0.79" stroke-dasharray="106.407" stroke-dashoffset="106.407"><animate attributeName="stroke-dashoffset" values="106.407" fill="freeze" begin="6dcc.click" /><animate attributeName="stroke-dashoffset" values="106.407;106.407;0" keyTimes="0;0.708;1" dur="2.744s" fill="freeze" begin="0s;6dcc.click" /></path><path d="M56.31,57.33c0.24,0.22,0.51,0.39,0.58,0.68c0.68,2.52,2.11,18.05,2.79,21.76" stroke-dasharray="22.854" stroke-dashoffset="22.854"><animate attributeName="stroke-dashoffset" values="22.854" fill="freeze" begin="6dcc.click" /><animate attributeName="stroke-dashoffset" values="22.854;22.854;0" keyTimes="0;0.923;1" dur="2.973s" fill="freeze" begin="0s;6dcc.click" /></path><path d="M57.79,58.81c4.38-0.54,11.36-2.28,15.43-2.54c1.77-0.11,3.05,1.12,2.82,2.71c-0.79,5.27-1.34,7.47-2.97,16.78" stroke-dasharray="37.212" stroke-dashoffset="37.212"><animate attributeName="stroke-dashoffset" values="37.212" fill="freeze" begin="6dcc.click" /><animate attributeName="stroke-dashoffset" values="37.212;37.212;0" keyTimes="0;0.889;1" dur="3.345s" fill="freeze" begin="0s;6dcc.click" /></path><path d="M60.18,77.46c5.67-0.73,10.28-0.89,14.78-1.39" stroke-dasharray="14.848" stroke-dashoffset="14.848"><animate attributeName="stroke-dashoffset" values="14.848" fill="freeze" begin="6dcc.click" /><animate attributeName="stroke-dashoffset" values="14.848;14.848;0" keyTimes="0;0.918;1" dur="3.642s" fill="freeze" begin="0s;6dcc.click" /></path></g></svg>