<svg xmlns="http://www.w3.org/2000/svg" viewBox="0 0 109 109" id="6dec"><g fill="none" stroke="#666" stroke-width="6" stroke-linecap="round" stroke-linejoin="round"><g><g><path d="M17.63,15.25c4.63,1.56,11.96,6.41,13.12,8.84" /><path d="M14,42.5c4.59,1.32,11.85,5.44,13,7.5" /><path d="M14.75,89.44c2.5,1.06,4.01,0.38,5.01-1.26c2.92-4.77,5.34-9.6,7.99-15.69" /></g><g><g><g><path d="M64.14,10.5c0.49,0.47,1.3,2.26,1.3,3.19c0,3.41-0.16,6.69-0.06,9.57" /><path d="M40.46,25.94c1.21,0.07,3.97,0.48,5.15,0.38c9.5-0.8,30.84-2.86,42.9-3.07c1.99-0.03,3.01,0.03,4.5,0.48" /></g><g><g><path d="M54.61,32.49c0,0.65,0.04,1.16-0.11,1.94c-0.76,4.03-8.02,17.48-14.24,23.45" /><path d="M53.8,44.96c2.79,1.38,6.37,5.05,7.73,8.54" /></g><g><path d="M81.35,30.49c0,0.56,0.03,1.01-0.09,1.69c-0.65,3.52-6.79,15.25-12.05,20.45" /><path d="M78.11,42.96c4.26,1.83,9.71,6.68,11.79,11.29" /></g></g></g><g><path d="M37,69.65c1.44,0.52,4.09,0.65,5.52,0.52c18.32-1.7,39.8-3.34,52.43-3.54c2.4-0.04,3.84,0.25,5.04,0.51" /><path d="M65.14,58.5c0.67,0.56,1.71,2.5,1.71,5.3c0,1.13-0.09,29.71-0.22,36.7" /></g></g></g></g><g fill="none" stroke="#000" stroke-width="3" stroke-linecap="round" stroke-linejoin="round"><path d="M17.63,15.25c4.63,1.56,11.96,6.41,13.12,8.84" stroke-dasharray="16.028" stroke-dashoffset="16.028"><animate attributeName="stroke-dashoffset" values="16.028;16.028;0" dur="0.16s" fill="freeze" begin="0s;6dec.click" /></path><path d="M14,42.5c4.59,1.32,11.85,5.44,13,7.5" stroke-dasharray="15.184" stroke-dashoffset="15.184"><animate attributeName="stroke-dashoffset" values="15.184" fill="freeze" begin="6dec.click" /><animate attributeName="stroke-dashoffset" values="15.184;15.184;0" keyTimes="0;0.513;1" dur="0.312s" fill="freeze" begin="0s;6dec.click" /></path><path d="M14.75,89.44c2.5,1.06,4.01,0.38,5.01-1.26c2.92-4.77,5.34-9.6,7.99-15.69" stroke-dasharray="23.381" stroke-dashoffset="23.381"><animate attributeName="stroke-dashoffset" values="23.381" fill="freeze" begin="6dec.click" /><animate attributeName="stroke-dashoffset" values="23.381;23.381;0" keyTimes="0;0.571;1" dur="0.546s" fill="freeze" begin="0s;6dec.click" /></path><path d="M64.14,10.5c0.49,0.47,1.3,2.26,1.3,3.19c0,3.41-0.16,6.69-0.06,9.57" stroke-dasharray="13.067" stroke-dashoffset="13.067"><animate attributeName="stroke-dashoffset" values="13.067" fill="freeze" begin="6dec.click" /><animate attributeName="stroke-dashoffset" values="13.067;13.067;0" keyTimes="0;0.677;1" dur="0.807s" fill="freeze" begin="0s;6dec.click" /></path><path d="M40.46,25.94c1.21,0.07,3.97,0.48,5.15,0.38c9.5-0.8,30.84-2.86,42.9-3.07c1.99-0.03,3.01,0.03,4.5,0.48" stroke-dasharray="52.734" stroke-dashoffset="52.734"><animate attributeName="stroke-dashoffset" values="52.734" fill="freeze" begin="6dec.click" /><animate attributeName="stroke-dashoffset" values="52.734;52.734;0" keyTimes="0;0.605;1" dur="1.334s" fill="freeze" begin="0s;6dec.click" /></path><path d="M54.61,32.49c0,0.65,0.04,1.16-0.11,1.94c-0.76,4.03-8.02,17.48-14.24,23.45" stroke-dasharray="29.603" stroke-dashoffset="29.603"><animate attributeName="stroke-dashoffset" values="29.603" fill="freeze" begin="6dec.click" /><animate attributeName="stroke-dashoffset" values="29.603;29.603;0" keyTimes="0;0.818;1" dur="1.63s" fill="freeze" begin="0s;6dec.click" /></path><path d="M53.8,44.96c2.79,1.38,6.37,5.05,7.73,8.54" stroke-dasharray="11.731" stroke-dashoffset="11.731"><animate attributeName="stroke-dashoffset" values="11.731" fill="freeze" begin="6dec.click" /><animate attributeName="stroke-dashoffset" values="11.731;11.731;0" keyTimes="0;0.874;1" dur="1.865s" fill="freeze" begin="0s;6dec.click" /></path><path d="M81.35,30.49c0,0.56,0.03,1.01-0.09,1.69c-0.65,3.52-6.79,15.25-12.05,20.45" stroke-dasharray="25.617" stroke-dashoffset="25.617"><animate attributeName="stroke-dashoffset" values="25.617" fill="freeze" begin="6dec.click" /><animate attributeName="stroke-dashoffset" values="25.617;25.617;0" keyTimes="0;0.879;1" dur="2.121s" fill="freeze" begin="0s;6dec.click" /></path><path d="M78.11,42.96c4.26,1.83,9.71,6.68,11.79,11.29" stroke-dasharray="16.626" stroke-dashoffset="16.626"><animate attributeName="stroke-dashoffset" values="16.626" fill="freeze" begin="6dec.click" /><animate attributeName="stroke-dashoffset" values="16.626;16.626;0" keyTimes="0;0.927;1" dur="2.287s" fill="freeze" begin="0s;6dec.click" /></path><path d="M37,69.65c1.44,0.52,4.09,0.65,5.52,0.52c18.32-1.7,39.8-3.34,52.43-3.54c2.4-0.04,3.84,0.25,5.04,0.51" stroke-dasharray="63.215" stroke-dashoffset="63.215"><animate attributeName="stroke-dashoffset" values="63.215" fill="freeze" begin="6dec.click" /><animate attributeName="stroke-dashoffset" values="63.215;63.215;0" keyTimes="0;0.828;1" dur="2.762s" fill="freeze" begin="0s;6dec.click" /></path><path d="M65.14,58.5c0.67,0.56,1.71,2.5,1.71,5.3c0,1.13-0.09,29.71-0.22,36.7" stroke-dasharray="42.403" stroke-dashoffset="42.403"><animate attributeName="stroke-dashoffset" values="42.403" fill="freeze" begin="6dec.click" /><animate attributeName="stroke-dashoffset" values="42.403;42.403;0" keyTimes="0;0.867;1" dur="3.186s" fill="freeze" begin="0s;6dec.click" /></path></g></svg>