<svg xmlns="http://www.w3.org/2000/svg" viewBox="0 0 109 109" id="6e05"><g fill="none" stroke="#666" stroke-width="6" stroke-linecap="round" stroke-linejoin="round"><g><g><path d="M21.38,14.75c3.66,1.6,9.45,6.6,10.37,9.09" /><path d="M14.25,39.5c3.79,1.15,9.8,4.72,10.75,6.5" /><path d="M13.1,89.3c1.17,0.34,2.3,0,3-1.15c2.97-4.9,5.95-10.9,8.65-17.15" /></g><g p4:phon="青" xmlns:p4="http://kanjivg.tagaini.net"><g><path d="M48.05,22.25c1.82,0.38,3.85,0.4,5.59,0.13c7.11-1.12,17.36-2.5,23.48-3.01c1.69-0.14,3.35-0.19,5.05-0.05" /><path d="M64.67,10.13c0.85,0.85,1.21,1.99,1.21,3.1c0,3.65,0.37,22.77,0.37,30.39" /><path d="M45.84,33.49c2.29,0.39,4.15,0.25,6.06,0.02c7.48-0.89,19.54-2.51,26.25-3.23c2.08-0.22,4.4-0.21,6.5-0.08" /><path d="M37.13,46.49c2.82,0.51,5.69,0.53,8.48,0.1c13.64-2.1,30.55-4.27,41.52-5.07c3.49-0.26,6.74-0.26,9.62,0.18" /></g><g><path d="M52.01,53.3c0.78,0.78,1.09,1.57,1.09,2.6c0,0.56,0.16,22.54,0.2,37.47c0.01,2.23,0.01,4.31,0.01,6.13" /><path d="M54.18,54.92c2.17-0.15,21.87-3.19,23.47-3.44c2.35-0.36,3.62,0.89,3.62,3.19c0,5.33-0.04,26.58-0.04,39.81c0,8.14-5.48,2.77-7.66,0.64" /><path d="M54.18,66.35c5.94-0.47,19.07-2.1,25.83-2.53" /><path d="M54.48,79.28c7.02-0.9,20.42-2.16,25.42-2.16" /></g></g></g></g><g fill="none" stroke="#000" stroke-width="3" stroke-linecap="round" stroke-linejoin="round"><path d="M21.38,14.75c3.66,1.6,9.45,6.6,10.37,9.09" stroke-dasharray="13.989" stroke-dashoffset="13.989"><animate attributeName="stroke-dashoffset" values="13.989;13.989;0" dur="0.28s" fill="freeze" begin="0s;6e05.click" /></path><path d="M14.25,39.5c3.79,1.15,9.8,4.72,10.75,6.5" stroke-dasharray="12.714" stroke-dashoffset="12.714"><animate attributeName="stroke-dashoffset" values="12.714" fill="freeze" begin="6e05.click" /><animate attributeName="stroke-dashoffset" values="12.714;12.714;0" keyTimes="0;0.524;1" dur="0.534s" fill="freeze" begin="0s;6e05.click" /></path><path d="M13.1,89.3c1.17,0.34,2.3,0,3-1.15c2.97-4.9,5.95-10.9,8.65-17.15" stroke-dasharray="22.705" stroke-dashoffset="22.705"><animate attributeName="stroke-dashoffset" values="22.705" fill="freeze" begin="6e05.click" /><animate attributeName="stroke-dashoffset" values="22.705;22.705;0" keyTimes="0;0.702;1" dur="0.761s" fill="freeze" begin="0s;6e05.click" /></path><path d="M48.05,22.25c1.82,0.38,3.85,0.4,5.59,0.13c7.11-1.12,17.36-2.5,23.48-3.01c1.69-0.14,3.35-0.19,5.05-0.05" stroke-dasharray="34.353" stroke-dashoffset="34.353"><animate attributeName="stroke-dashoffset" values="34.353" fill="freeze" begin="6e05.click" /><animate attributeName="stroke-dashoffset" values="34.353;34.353;0" keyTimes="0;0.689;1" dur="1.105s" fill="freeze" begin="0s;6e05.click" /></path><path d="M64.67,10.13c0.85,0.85,1.21,1.99,1.21,3.1c0,3.65,0.37,22.77,0.37,30.39" stroke-dasharray="33.809" stroke-dashoffset="33.809"><animate attributeName="stroke-dashoffset" values="33.809" fill="freeze" begin="6e05.click" /><animate attributeName="stroke-dashoffset" values="33.809;33.809;0" keyTimes="0;0.766;1" dur="1.443s" fill="freeze" begin="0s;6e05.click" /></path><path d="M45.84,33.49c2.29,0.39,4.15,0.25,6.06,0.02c7.48-0.89,19.54-2.51,26.25-3.23c2.08-0.22,4.4-0.21,6.5-0.08" stroke-dasharray="39.041" stroke-dashoffset="39.041"><animate attributeName="stroke-dashoffset" values="39.041" fill="freeze" begin="6e05.click" /><animate attributeName="stroke-dashoffset" values="39.041;39.041;0" keyTimes="0;0.787;1" dur="1.833s" fill="freeze" begin="0s;6e05.click" /></path><path d="M37.13,46.49c2.82,0.51,5.69,0.53,8.48,0.1c13.64-2.1,30.55-4.27,41.52-5.07c3.49-0.26,6.74-0.26,9.62,0.18" stroke-dasharray="60" stroke-dashoffset="60"><animate attributeName="stroke-dashoffset" values="60" fill="freeze" begin="6e05.click" /><animate attributeName="stroke-dashoffset" values="60;60;0" keyTimes="0;0.803;1" dur="2.284s" fill="freeze" begin="0s;6e05.click" /></path><path d="M52.01,53.3c0.78,0.78,1.09,1.57,1.09,2.6c0,0.56,0.16,22.54,0.2,37.47c0.01,2.23,0.01,4.31,0.01,6.13" stroke-dasharray="46.506" stroke-dashoffset="46.506"><animate attributeName="stroke-dashoffset" values="46.506" fill="freeze" begin="6e05.click" /><animate attributeName="stroke-dashoffset" values="46.506;46.506;0" keyTimes="0;0.831;1" dur="2.749s" fill="freeze" begin="0s;6e05.click" /></path><path d="M54.18,54.92c2.17-0.15,21.87-3.19,23.47-3.44c2.35-0.36,3.62,0.89,3.62,3.19c0,5.33-0.04,26.58-0.04,39.81c0,8.14-5.48,2.77-7.66,0.64" stroke-dasharray="81.404" stroke-dashoffset="81.404"><animate attributeName="stroke-dashoffset" values="81.404" fill="freeze" begin="6e05.click" /><animate attributeName="stroke-dashoffset" values="81.404;81.404;0" keyTimes="0;0.818;1" dur="3.361s" fill="freeze" begin="0s;6e05.click" /></path><path d="M54.18,66.35c5.94-0.47,19.07-2.1,25.83-2.53" stroke-dasharray="25.956" stroke-dashoffset="25.956"><animate attributeName="stroke-dashoffset" values="25.956" fill="freeze" begin="6e05.click" /><animate attributeName="stroke-dashoffset" values="25.956;25.956;0" keyTimes="0;0.928;1" dur="3.621s" fill="freeze" begin="0s;6e05.click" /></path><path d="M54.48,79.28c7.02-0.9,20.42-2.16,25.42-2.16" stroke-dasharray="25.522" stroke-dashoffset="25.522"><animate attributeName="stroke-dashoffset" values="25.522" fill="freeze" begin="6e05.click" /><animate attributeName="stroke-dashoffset" values="25.522;25.522;0" keyTimes="0;0.934;1" dur="3.876s" fill="freeze" begin="0s;6e05.click" /></path></g></svg>