<svg xmlns="http://www.w3.org/2000/svg" viewBox="0 0 109 109" id="6e5f"><g fill="none" stroke="#666" stroke-width="6" stroke-linecap="round" stroke-linejoin="round"><g><g><path d="M16.63,16.75c4.63,1.65,11.96,6.78,13.12,9.34" /><path d="M12.25,42.75c4.85,1.9,12.54,7.8,13.75,10.75" /><path d="M14.25,90.23c1.71,1.27,3.78,1.32,4.86-0.25c3.14-4.57,6.79-12.16,9.64-17.99" /></g><g><g><g><path d="M62.85,11c0.26,0.5,0.3,1.1,0.24,1.54c-0.37,2.56-3.56,8.67-6.46,12.1" /></g><g><path d="M44.55,24.27c0.69,0.78,1.24,2.21,1.38,3.22c0.82,5.65,2.53,20.3,2.81,25.4" /><path d="M46.34,26.1c9.6-1.4,31.26-2.98,34.79-3.49c1.7-0.24,3.3,1.56,2.93,3.69c-0.83,4.74-2.7,14.79-4.36,23.88" /><path d="M47.77,38.38c9.73-1.38,27.92-2.96,33.88-2.96" /><path d="M48.92,50.91c9.97-0.88,22.34-2.43,30.57-2.69" /></g></g><g p5:partial xmlns:p5="http://kanjivg.tagaini.net"><path d="M42.25,61.63c1.87,0.37,4.61,0.11,5.72,0.03c9.24-0.66,24.79-1.69,37.1-2.22c1.67-0.07,3.2,0.1,4.58,0.53" /><path d="M63.11,62.65c1.29,2.08,1.29,3.33,1.29,5c0,6.35-0.07,17.35-0.07,25.47" /><path d="M44.25,78.08c0.83,0.57,3.58,0.28,4.43,0.25C57.75,78,70.25,76,81,75.38c1.04-0.06,3.33-0.23,4.88,0.26" /><path d="M34.34,95.23c0.7,0.31,4.35,0.62,5.54,0.52c14.23-1.28,31.36-3.75,51-4.19c2.99-0.07,5.86,0.19,7.76,1" /></g></g></g></g><g fill="none" stroke="#000" stroke-width="3" stroke-linecap="round" stroke-linejoin="round"><path d="M16.63,16.75c4.63,1.65,11.96,6.78,13.12,9.34" stroke-dasharray="16.322" stroke-dashoffset="16.322"><animate attributeName="stroke-dashoffset" values="16.322;16.322;0" dur="0.163s" fill="freeze" begin="0s;6e5f.click" /></path><path d="M12.25,42.75c4.85,1.9,12.54,7.8,13.75,10.75" stroke-dasharray="17.699" stroke-dashoffset="17.699"><animate attributeName="stroke-dashoffset" values="17.699" fill="freeze" begin="6e5f.click" /><animate attributeName="stroke-dashoffset" values="17.699;17.699;0" keyTimes="0;0.479;1" dur="0.34s" fill="freeze" begin="0s;6e5f.click" /></path><path d="M14.25,90.23c1.71,1.27,3.78,1.32,4.86-0.25c3.14-4.57,6.79-12.16,9.64-17.99" stroke-dasharray="25.901" stroke-dashoffset="25.901"><animate attributeName="stroke-dashoffset" values="25.901" fill="freeze" begin="6e5f.click" /><animate attributeName="stroke-dashoffset" values="25.901;25.901;0" keyTimes="0;0.568;1" dur="0.599s" fill="freeze" begin="0s;6e5f.click" /></path><path d="M62.85,11c0.26,0.5,0.3,1.1,0.24,1.54c-0.37,2.56-3.56,8.67-6.46,12.1" stroke-dasharray="15.404" stroke-dashoffset="15.404"><animate attributeName="stroke-dashoffset" values="15.404" fill="freeze" begin="6e5f.click" /><animate attributeName="stroke-dashoffset" values="15.404;15.404;0" keyTimes="0;0.795;1" dur="0.753s" fill="freeze" begin="0s;6e5f.click" /></path><path d="M44.55,24.27c0.69,0.78,1.24,2.21,1.38,3.22c0.82,5.65,2.53,20.3,2.81,25.4" stroke-dasharray="29.104" stroke-dashoffset="29.104"><animate attributeName="stroke-dashoffset" values="29.104" fill="freeze" begin="6e5f.click" /><animate attributeName="stroke-dashoffset" values="29.104;29.104;0" keyTimes="0;0.721;1" dur="1.044s" fill="freeze" begin="0s;6e5f.click" /></path><path d="M46.34,26.1c9.6-1.4,31.26-2.98,34.79-3.49c1.7-0.24,3.3,1.56,2.93,3.69c-0.83,4.74-2.7,14.79-4.36,23.88" stroke-dasharray="64.699" stroke-dashoffset="64.699"><animate attributeName="stroke-dashoffset" values="64.699" fill="freeze" begin="6e5f.click" /><animate attributeName="stroke-dashoffset" values="64.699;64.699;0" keyTimes="0;0.682;1" dur="1.53s" fill="freeze" begin="0s;6e5f.click" /></path><path d="M47.77,38.38c9.73-1.38,27.92-2.96,33.88-2.96" stroke-dasharray="34.024" stroke-dashoffset="34.024"><animate attributeName="stroke-dashoffset" values="34.024" fill="freeze" begin="6e5f.click" /><animate attributeName="stroke-dashoffset" values="34.024;34.024;0" keyTimes="0;0.818;1" dur="1.87s" fill="freeze" begin="0s;6e5f.click" /></path><path d="M48.92,50.91c9.97-0.88,22.34-2.43,30.57-2.69" stroke-dasharray="30.694" stroke-dashoffset="30.694"><animate attributeName="stroke-dashoffset" values="30.694" fill="freeze" begin="6e5f.click" /><animate attributeName="stroke-dashoffset" values="30.694;30.694;0" keyTimes="0;0.859;1" dur="2.177s" fill="freeze" begin="0s;6e5f.click" /></path><path d="M42.25,61.63c1.87,0.37,4.61,0.11,5.72,0.03c9.24-0.66,24.79-1.69,37.1-2.22c1.67-0.07,3.2,0.1,4.58,0.53" stroke-dasharray="47.538" stroke-dashoffset="47.538"><animate attributeName="stroke-dashoffset" values="47.538" fill="freeze" begin="6e5f.click" /><animate attributeName="stroke-dashoffset" values="47.538;47.538;0" keyTimes="0;0.821;1" dur="2.652s" fill="freeze" begin="0s;6e5f.click" /></path><path d="M63.11,62.65c1.29,2.08,1.29,3.33,1.29,5c0,6.35-0.07,17.35-0.07,25.47" stroke-dasharray="30.727" stroke-dashoffset="30.727"><animate attributeName="stroke-dashoffset" values="30.727" fill="freeze" begin="6e5f.click" /><animate attributeName="stroke-dashoffset" values="30.727;30.727;0" keyTimes="0;0.896;1" dur="2.959s" fill="freeze" begin="0s;6e5f.click" /></path><path d="M44.25,78.08c0.83,0.57,3.58,0.28,4.43,0.25C57.75,78,70.25,76,81,75.38c1.04-0.06,3.33-0.23,4.88,0.26" stroke-dasharray="41.859" stroke-dashoffset="41.859"><animate attributeName="stroke-dashoffset" values="41.859" fill="freeze" begin="6e5f.click" /><animate attributeName="stroke-dashoffset" values="41.859;41.859;0" keyTimes="0;0.876;1" dur="3.378s" fill="freeze" begin="0s;6e5f.click" /></path><path d="M34.34,95.23c0.7,0.31,4.35,0.62,5.54,0.52c14.23-1.28,31.36-3.75,51-4.19c2.99-0.07,5.86,0.19,7.76,1" stroke-dasharray="64.648" stroke-dashoffset="64.648"><animate attributeName="stroke-dashoffset" values="64.648" fill="freeze" begin="6e5f.click" /><animate attributeName="stroke-dashoffset" values="64.648;64.648;0" keyTimes="0;0.874;1" dur="3.864s" fill="freeze" begin="0s;6e5f.click" /></path></g></svg>