<svg xmlns="http://www.w3.org/2000/svg" viewBox="0 0 109 109" id="6e82"><g fill="none" stroke="#666" stroke-width="6" stroke-linecap="round" stroke-linejoin="round"><g><g><path d="M16.88,19.25c3.66,1.34,9.45,5.51,10.37,7.59" /><path d="M12.5,44c4.77,1.81,12.31,7.44,13.5,10.25" /><path d="M14.25,88.96c1.5,1.31,3.31,1.36,4.25-0.25c2.75-4.7,7.5-15.45,10-21.45" /></g><g><g><g><path d="M35.05,27.54c0.74,0.39,3.32,0.63,4.06,0.57c6.22-0.53,19.61-2.42,26.27-2.79c1.23-0.07,3.2,0.18,3.82,0.38" /></g><g><path d="M36.48,39.19c0.24,0.36,0.48,0.66,0.59,1.1c0.83,3.54,3.29,12.16,3.86,18.53" /><path d="M37.97,41.12c7.18-1.54,25.73-2.97,28.54-3.33c1.75-0.22,2.85,2.3,2.39,4.35c-1.24,5.5-1.54,6.93-2.52,11.14" /><path d="M41.04,56.23c8.62-0.89,20.36-1.76,26.84-2.43" /></g><g><path d="M51.63,11c1.07,0.5,1.71,2.23,1.93,3.22c0.21,0.99,0,76.58-0.21,82.78" /><path d="M53.26,55.86C49.21,65.5,38.69,79.14,30.27,84.6" /><path d="M56.21,66.88c6.12,2.82,11.05,8.37,14.14,14" /></g></g><g><path d="M78.16,28.14c0.81,0.87,1.38,1.89,1.44,4.77c0.33,13.85-0.02,31.43-0.02,36.15" /><path d="M93.5,13.32c0.86,0.91,1.47,1.97,1.54,4.97c0.35,14.41-0.23,67.45-0.23,72.36c0,13.01-6.32,1.49-7.64,0.25" /></g></g></g></g><g fill="none" stroke="#000" stroke-width="3" stroke-linecap="round" stroke-linejoin="round"><path d="M16.88,19.25c3.66,1.34,9.45,5.51,10.37,7.59" stroke-dasharray="13.026" stroke-dashoffset="13.026"><animate attributeName="stroke-dashoffset" values="13.026;13.026;0" dur="0.261s" fill="freeze" begin="0s;6e82.click" /></path><path d="M12.5,44c4.77,1.81,12.31,7.44,13.5,10.25" stroke-dasharray="17.186" stroke-dashoffset="17.186"><animate attributeName="stroke-dashoffset" values="17.186" fill="freeze" begin="6e82.click" /><animate attributeName="stroke-dashoffset" values="17.186;17.186;0" keyTimes="0;0.603;1" dur="0.433s" fill="freeze" begin="0s;6e82.click" /></path><path d="M14.25,88.96c1.5,1.31,3.31,1.36,4.25-0.25c2.75-4.7,7.5-15.45,10-21.45" stroke-dasharray="28.643" stroke-dashoffset="28.643"><animate attributeName="stroke-dashoffset" values="28.643" fill="freeze" begin="6e82.click" /><animate attributeName="stroke-dashoffset" values="28.643;28.643;0" keyTimes="0;0.602;1" dur="0.719s" fill="freeze" begin="0s;6e82.click" /></path><path d="M35.05,27.54c0.74,0.39,3.32,0.63,4.06,0.57c6.22-0.53,19.61-2.42,26.27-2.79c1.23-0.07,3.2,0.18,3.82,0.38" stroke-dasharray="34.396" stroke-dashoffset="34.396"><animate attributeName="stroke-dashoffset" values="34.396" fill="freeze" begin="6e82.click" /><animate attributeName="stroke-dashoffset" values="34.396;34.396;0" keyTimes="0;0.676;1" dur="1.063s" fill="freeze" begin="0s;6e82.click" /></path><path d="M36.48,39.19c0.24,0.36,0.48,0.66,0.59,1.1c0.83,3.54,3.29,12.16,3.86,18.53" stroke-dasharray="20.203" stroke-dashoffset="20.203"><animate attributeName="stroke-dashoffset" values="20.203" fill="freeze" begin="6e82.click" /><animate attributeName="stroke-dashoffset" values="20.203;20.203;0" keyTimes="0;0.84;1" dur="1.265s" fill="freeze" begin="0s;6e82.click" /></path><path d="M37.97,41.12c7.18-1.54,25.73-2.97,28.54-3.33c1.75-0.22,2.85,2.3,2.39,4.35c-1.24,5.5-1.54,6.93-2.52,11.14" stroke-dasharray="45.859" stroke-dashoffset="45.859"><animate attributeName="stroke-dashoffset" values="45.859" fill="freeze" begin="6e82.click" /><animate attributeName="stroke-dashoffset" values="45.859;45.859;0" keyTimes="0;0.734;1" dur="1.724s" fill="freeze" begin="0s;6e82.click" /></path><path d="M41.04,56.23c8.62-0.89,20.36-1.76,26.84-2.43" stroke-dasharray="26.951" stroke-dashoffset="26.951"><animate attributeName="stroke-dashoffset" values="26.951" fill="freeze" begin="6e82.click" /><animate attributeName="stroke-dashoffset" values="26.951;26.951;0" keyTimes="0;0.865;1" dur="1.994s" fill="freeze" begin="0s;6e82.click" /></path><path d="M51.63,11c1.07,0.5,1.71,2.23,1.93,3.22c0.21,0.99,0,76.58-0.21,82.78" stroke-dasharray="86.647" stroke-dashoffset="86.647"><animate attributeName="stroke-dashoffset" values="86.647" fill="freeze" begin="6e82.click" /><animate attributeName="stroke-dashoffset" values="86.647;86.647;0" keyTimes="0;0.754;1" dur="2.645s" fill="freeze" begin="0s;6e82.click" /></path><path d="M53.26,55.86C49.21,65.5,38.69,79.14,30.27,84.6" stroke-dasharray="37.206" stroke-dashoffset="37.206"><animate attributeName="stroke-dashoffset" values="37.206" fill="freeze" begin="6e82.click" /><animate attributeName="stroke-dashoffset" values="37.206;37.206;0" keyTimes="0;0.877;1" dur="3.017s" fill="freeze" begin="0s;6e82.click" /></path><path d="M56.21,66.88c6.12,2.82,11.05,8.37,14.14,14" stroke-dasharray="20.225" stroke-dashoffset="20.225"><animate attributeName="stroke-dashoffset" values="20.225" fill="freeze" begin="6e82.click" /><animate attributeName="stroke-dashoffset" values="20.225;20.225;0" keyTimes="0;0.937;1" dur="3.219s" fill="freeze" begin="0s;6e82.click" /></path><path d="M78.16,28.14c0.81,0.87,1.38,1.89,1.44,4.77c0.33,13.85-0.02,31.43-0.02,36.15" stroke-dasharray="41.264" stroke-dashoffset="41.264"><animate attributeName="stroke-dashoffset" values="41.264" fill="freeze" begin="6e82.click" /><animate attributeName="stroke-dashoffset" values="41.264;41.264;0" keyTimes="0;0.886;1" dur="3.632s" fill="freeze" begin="0s;6e82.click" /></path><path d="M93.5,13.32c0.86,0.91,1.47,1.97,1.54,4.97c0.35,14.41-0.23,67.45-0.23,72.36c0,13.01-6.32,1.49-7.64,0.25" stroke-dasharray="92.996" stroke-dashoffset="92.996"><animate attributeName="stroke-dashoffset" values="92.996" fill="freeze" begin="6e82.click" /><animate attributeName="stroke-dashoffset" values="92.996;92.996;0" keyTimes="0;0.839;1" dur="4.331s" fill="freeze" begin="0s;6e82.click" /></path></g></svg>