<svg xmlns="http://www.w3.org/2000/svg" viewBox="0 0 109 109" id="6eec"><g fill="none" stroke="#666" stroke-width="6" stroke-linecap="round" stroke-linejoin="round"><g><g><path d="M18.38,15.75c4.19,1.3,10.82,5.33,11.87,7.34" /><path d="M15,40.5c4.06,1.32,10.48,5.44,11.5,7.5" /><path d="M16.25,86.23c1.71,1.27,3.78,1.32,4.86-0.25c3.14-4.57,7.29-13.16,10.14-18.99" /></g><g><g><path d="M44.23,16.14c0.87,0.27,3.38,0.3,4.25,0.27c9.03-0.31,23.52-1.16,36.39-2.17c1.44-0.11,3.24,0.13,3.96,0.26" /><path d="M43.92,24.98c0.92,0.28,2.33,0.78,4.15,0.58c9.43-1.06,31.2-2.42,37.12-2.92c1.6-0.14,3.26,0.95,2.62,2.99c-0.8,2.56-1.81,6.18-2.42,8.88" /><path d="M46.55,37.59c1.29,0,2.86-0.05,4.65-0.12c10.07-0.43,25.9-2.37,36.21-2.37" /><path d="M46.22,25.96c0.43,1.26,0.45,3.03,0.31,5.26c-1.76,27.31-4.03,46.52-14.78,58.62" /></g><g><g><path d="M55.86,44.04c0.2,0.2,0.4,0.37,0.48,0.63c0.68,2.02,1.49,7.6,1.95,11.22" /><path d="M57.08,45.11c4.46-0.86,21.34-3.45,23.64-3.4c1.28,0.03,2.53,1.03,2.22,2.15c-0.65,2.32-2.07,5.51-2.81,8.77" /><path d="M58.39,54.71c2.69-0.3,19.12-1.32,22.81-1.78" /></g><g><g><path d="M49.5,62.75c0.83,0.1,1.94,0.22,3.25,0.14c10.5-0.64,27.53-2.36,33.22-2.8c2.38-0.18,2.94,1.66,2.8,2.77c-0.54,4.24-1.81,8.29-2.89,11.4" /><path d="M68.28,62.84c0.51,0.28,1.03,2.08,1.03,2.64c0,3.52-0.17,6.19-0.17,8.32" /></g><g><path d="M53.13,76.66c3.56-0.31,31.56-2.04,35.63-2.35" /><path d="M52.99,63.64c0,1.36,0.01,1.83,0.04,3.13c0.15,5.79-0.29,9.2-0.29,13.11c0,11.93-1.01,13.88,20.83,13.88c19.26,0,21.22-2.18,21.22-9.79" /></g></g></g></g></g></g><g fill="none" stroke="#000" stroke-width="3" stroke-linecap="round" stroke-linejoin="round"><path d="M18.38,15.75c4.19,1.3,10.82,5.33,11.87,7.34" stroke-dasharray="14.127" stroke-dashoffset="14.127"><animate attributeName="stroke-dashoffset" values="14.127;14.127;0" dur="0.283s" fill="freeze" begin="0s;6eec.click" /></path><path d="M15,40.5c4.06,1.32,10.48,5.44,11.5,7.5" stroke-dasharray="13.906" stroke-dashoffset="13.906"><animate attributeName="stroke-dashoffset" values="13.906" fill="freeze" begin="6eec.click" /><animate attributeName="stroke-dashoffset" values="13.906;13.906;0" keyTimes="0;0.504;1" dur="0.561s" fill="freeze" begin="0s;6eec.click" /></path><path d="M16.25,86.23c1.71,1.27,3.78,1.32,4.86-0.25c3.14-4.57,7.29-13.16,10.14-18.99" stroke-dasharray="27.019" stroke-dashoffset="27.019"><animate attributeName="stroke-dashoffset" values="27.019" fill="freeze" begin="6eec.click" /><animate attributeName="stroke-dashoffset" values="27.019;27.019;0" keyTimes="0;0.675;1" dur="0.831s" fill="freeze" begin="0s;6eec.click" /></path><path d="M44.23,16.14c0.87,0.27,3.38,0.3,4.25,0.27c9.03-0.31,23.52-1.16,36.39-2.17c1.44-0.11,3.24,0.13,3.96,0.26" stroke-dasharray="44.705" stroke-dashoffset="44.705"><animate attributeName="stroke-dashoffset" values="44.705" fill="freeze" begin="6eec.click" /><animate attributeName="stroke-dashoffset" values="44.705;44.705;0" keyTimes="0;0.65;1" dur="1.278s" fill="freeze" begin="0s;6eec.click" /></path><path d="M43.92,24.98c0.92,0.28,2.33,0.78,4.15,0.58c9.43-1.06,31.2-2.42,37.12-2.92c1.6-0.14,3.26,0.95,2.62,2.99c-0.8,2.56-1.81,6.18-2.42,8.88" stroke-dasharray="55.486" stroke-dashoffset="55.486"><animate attributeName="stroke-dashoffset" values="55.486" fill="freeze" begin="6eec.click" /><animate attributeName="stroke-dashoffset" values="55.486;55.486;0" keyTimes="0;0.697;1" dur="1.833s" fill="freeze" begin="0s;6eec.click" /></path><path d="M46.55,37.59c1.29,0,2.86-0.05,4.65-0.12c10.07-0.43,25.9-2.37,36.21-2.37" stroke-dasharray="40.948" stroke-dashoffset="40.948"><animate attributeName="stroke-dashoffset" values="40.948" fill="freeze" begin="6eec.click" /><animate attributeName="stroke-dashoffset" values="40.948;40.948;0" keyTimes="0;0.818;1" dur="2.242s" fill="freeze" begin="0s;6eec.click" /></path><path d="M46.22,25.96c0.43,1.26,0.45,3.03,0.31,5.26c-1.76,27.31-4.03,46.52-14.78,58.62" stroke-dasharray="66.81" stroke-dashoffset="66.81"><animate attributeName="stroke-dashoffset" values="66.81" fill="freeze" begin="6eec.click" /><animate attributeName="stroke-dashoffset" values="66.81;66.81;0" keyTimes="0;0.817;1" dur="2.744s" fill="freeze" begin="0s;6eec.click" /></path><path d="M55.86,44.04c0.2,0.2,0.4,0.37,0.48,0.63c0.68,2.02,1.49,7.6,1.95,11.22" stroke-dasharray="12.201" stroke-dashoffset="12.201"><animate attributeName="stroke-dashoffset" values="12.201" fill="freeze" begin="6eec.click" /><animate attributeName="stroke-dashoffset" values="12.201;12.201;0" keyTimes="0;0.918;1" dur="2.988s" fill="freeze" begin="0s;6eec.click" /></path><path d="M57.08,45.11c4.46-0.86,21.34-3.45,23.64-3.4c1.28,0.03,2.53,1.03,2.22,2.15c-0.65,2.32-2.07,5.51-2.81,8.77" stroke-dasharray="36.634" stroke-dashoffset="36.634"><animate attributeName="stroke-dashoffset" values="36.634" fill="freeze" begin="6eec.click" /><animate attributeName="stroke-dashoffset" values="36.634;36.634;0" keyTimes="0;0.891;1" dur="3.354s" fill="freeze" begin="0s;6eec.click" /></path><path d="M58.39,54.71c2.69-0.3,19.12-1.32,22.81-1.78" stroke-dasharray="22.881" stroke-dashoffset="22.881"><animate attributeName="stroke-dashoffset" values="22.881" fill="freeze" begin="6eec.click" /><animate attributeName="stroke-dashoffset" values="22.881;22.881;0" keyTimes="0;0.936;1" dur="3.583s" fill="freeze" begin="0s;6eec.click" /></path><path d="M49.5,62.75c0.83,0.1,1.94,0.22,3.25,0.14c10.5-0.64,27.53-2.36,33.22-2.8c2.38-0.18,2.94,1.66,2.8,2.77c-0.54,4.24-1.81,8.29-2.89,11.4" stroke-dasharray="52.978" stroke-dashoffset="52.978"><animate attributeName="stroke-dashoffset" values="52.978" fill="freeze" begin="6eec.click" /><animate attributeName="stroke-dashoffset" values="52.978;52.978;0" keyTimes="0;0.871;1" dur="4.113s" fill="freeze" begin="0s;6eec.click" /></path><path d="M68.28,62.84c0.51,0.28,1.03,2.08,1.03,2.64c0,3.52-0.17,6.19-0.17,8.32" stroke-dasharray="11.216" stroke-dashoffset="11.216"><animate attributeName="stroke-dashoffset" values="11.216" fill="freeze" begin="6eec.click" /><animate attributeName="stroke-dashoffset" values="11.216;11.216;0" keyTimes="0;0.948;1" dur="4.337s" fill="freeze" begin="0s;6eec.click" /></path><path d="M53.13,76.66c3.56-0.31,31.56-2.04,35.63-2.35" stroke-dasharray="35.709" stroke-dashoffset="35.709"><animate attributeName="stroke-dashoffset" values="35.709" fill="freeze" begin="6eec.click" /><animate attributeName="stroke-dashoffset" values="35.709;35.709;0" keyTimes="0;0.924;1" dur="4.694s" fill="freeze" begin="0s;6eec.click" /></path><path d="M52.99,63.64c0,1.36,0.01,1.83,0.04,3.13c0.15,5.79-0.29,9.2-0.29,13.11c0,11.93-1.01,13.88,20.83,13.88c19.26,0,21.22-2.18,21.22-9.79" stroke-dasharray="74.349" stroke-dashoffset="74.349"><animate attributeName="stroke-dashoffset" values="74.349" fill="freeze" begin="6eec.click" /><animate attributeName="stroke-dashoffset" values="74.349;74.349;0" keyTimes="0;0.894;1" dur="5.253s" fill="freeze" begin="0s;6eec.click" /></path></g></svg>