<svg xmlns="http://www.w3.org/2000/svg" viewBox="0 0 109 109" id="6ef2"><g fill="none" stroke="#666" stroke-width="6" stroke-linecap="round" stroke-linejoin="round"><g><g><path d="M17.13,15.75c4.1,1.3,10.59,5.33,11.62,7.34" /><path d="M14,40.5c4.06,1.32,10.48,5.44,11.5,7.5" /><path d="M13.25,86.23c1.71,1.27,3.78,1.32,4.86-0.25c3.14-4.57,7.29-12.66,10.14-18.49" /></g><g><g><g><path d="M60.64,9.75c0.11,1-0.14,1.83-0.44,2.2c-4.27,5.3-5.95,7.3-11.48,12.64c-1.53,1.48-1.21,3.5,0.88,3.2c9.15-1.29,18.32-3.04,27.18-4.73" /><path d="M69.82,15.24c3.23,1.94,8.34,7.96,9.14,10.97" /></g><g><g><path d="M44.79,31.45c0.25,0.29,0.4,1.23,0.25,1.61c-1.86,4.75-6.74,10.53-10.2,13.86c-1.1,1.06-0.57,2.7,0.97,2.11c5.27-2,11.32-3.46,17.48-5.52" /><path d="M50.3,38.73c1.63,1.55,4.2,6.38,4.61,8.8" /></g><g><path d="M83.83,30.2c0.23,0.26-0.06,1.11-0.19,1.45C81.97,35.91,76,40.11,72.89,43.1c-0.99,0.95-0.54,2.35,0.87,1.95c4.53-1.3,13.35-3.3,18.68-4.66" /><path d="M88.21,36.23c2.67,1.77,6.91,7.29,7.57,10.05" /></g></g></g><g><path d="M63.44,40.25c0.08,0.73,0.38,2.03-0.17,2.93c-3.3,5.41-17.33,21.08-29.53,28.07" /><path d="M63.22,44c4.26,4.43,22.6,18.88,27.3,22.12c1.59,1.1,3.64,1.57,5.23,1.88" /><g><g><path d="M67.24,57.25c0.07,0.47,0.25,1.29-0.14,1.92c-2.6,4.09-11.99,12.05-24.22,17.62" /></g><g><path d="M73.83,68.4c0.09,0.45,0.31,1.23-0.17,1.81C70.42,74.16,59.5,82,43.96,87.51" /></g><g><path d="M81.97,77.68c0.12,0.56,0.4,1.56-0.23,2.26c-5,5.56-21,14.56-40.8,21.56" /></g></g></g></g></g></g><g fill="none" stroke="#000" stroke-width="3" stroke-linecap="round" stroke-linejoin="round"><path d="M17.13,15.75c4.1,1.3,10.59,5.33,11.62,7.34" stroke-dasharray="13.915" stroke-dashoffset="13.915"><animate attributeName="stroke-dashoffset" values="13.915;13.915;0" dur="0.278s" fill="freeze" begin="0s;6ef2.click" /></path><path d="M14,40.5c4.06,1.32,10.48,5.44,11.5,7.5" stroke-dasharray="13.906" stroke-dashoffset="13.906"><animate attributeName="stroke-dashoffset" values="13.906" fill="freeze" begin="6ef2.click" /><animate attributeName="stroke-dashoffset" values="13.906;13.906;0" keyTimes="0;0.5;1" dur="0.556s" fill="freeze" begin="0s;6ef2.click" /></path><path d="M13.25,86.23c1.71,1.27,3.78,1.32,4.86-0.25c3.14-4.57,7.29-12.66,10.14-18.49" stroke-dasharray="26.578" stroke-dashoffset="26.578"><animate attributeName="stroke-dashoffset" values="26.578" fill="freeze" begin="6ef2.click" /><animate attributeName="stroke-dashoffset" values="26.578;26.578;0" keyTimes="0;0.676;1" dur="0.822s" fill="freeze" begin="0s;6ef2.click" /></path><path d="M60.64,9.75c0.11,1-0.14,1.83-0.44,2.2c-4.27,5.3-5.95,7.3-11.48,12.64c-1.53,1.48-1.21,3.5,0.88,3.2c9.15-1.29,18.32-3.04,27.18-4.73" stroke-dasharray="51.775" stroke-dashoffset="51.775"><animate attributeName="stroke-dashoffset" values="51.775" fill="freeze" begin="6ef2.click" /><animate attributeName="stroke-dashoffset" values="51.775;51.775;0" keyTimes="0;0.613;1" dur="1.34s" fill="freeze" begin="0s;6ef2.click" /></path><path d="M69.82,15.24c3.23,1.94,8.34,7.96,9.14,10.97" stroke-dasharray="14.479" stroke-dashoffset="14.479"><animate attributeName="stroke-dashoffset" values="14.479" fill="freeze" begin="6ef2.click" /><animate attributeName="stroke-dashoffset" values="14.479;14.479;0" keyTimes="0;0.822;1" dur="1.63s" fill="freeze" begin="0s;6ef2.click" /></path><path d="M44.79,31.45c0.25,0.29,0.4,1.23,0.25,1.61c-1.86,4.75-6.74,10.53-10.2,13.86c-1.1,1.06-0.57,2.7,0.97,2.11c5.27-2,11.32-3.46,17.48-5.52" stroke-dasharray="40.902" stroke-dashoffset="40.902"><animate attributeName="stroke-dashoffset" values="40.902" fill="freeze" begin="6ef2.click" /><animate attributeName="stroke-dashoffset" values="40.902;40.902;0" keyTimes="0;0.799;1" dur="2.039s" fill="freeze" begin="0s;6ef2.click" /></path><path d="M50.3,38.73c1.63,1.55,4.2,6.38,4.61,8.8" stroke-dasharray="10.032" stroke-dashoffset="10.032"><animate attributeName="stroke-dashoffset" values="10.032" fill="freeze" begin="6ef2.click" /><animate attributeName="stroke-dashoffset" values="10.032;10.032;0" keyTimes="0;0.91;1" dur="2.24s" fill="freeze" begin="0s;6ef2.click" /></path><path d="M83.83,30.2c0.23,0.26-0.06,1.11-0.19,1.45C81.97,35.91,76,40.11,72.89,43.1c-0.99,0.95-0.54,2.35,0.87,1.95c4.53-1.3,13.35-3.3,18.68-4.66" stroke-dasharray="39.801" stroke-dashoffset="39.801"><animate attributeName="stroke-dashoffset" values="39.801" fill="freeze" begin="6ef2.click" /><animate attributeName="stroke-dashoffset" values="39.801;39.801;0" keyTimes="0;0.849;1" dur="2.638s" fill="freeze" begin="0s;6ef2.click" /></path><path d="M88.21,36.23c2.67,1.77,6.91,7.29,7.57,10.05" stroke-dasharray="12.751" stroke-dashoffset="12.751"><animate attributeName="stroke-dashoffset" values="12.751" fill="freeze" begin="6ef2.click" /><animate attributeName="stroke-dashoffset" values="12.751;12.751;0" keyTimes="0;0.912;1" dur="2.893s" fill="freeze" begin="0s;6ef2.click" /></path><path d="M63.44,40.25c0.08,0.73,0.38,2.03-0.17,2.93c-3.3,5.41-17.33,21.08-29.53,28.07" stroke-dasharray="44.005" stroke-dashoffset="44.005"><animate attributeName="stroke-dashoffset" values="44.005" fill="freeze" begin="6ef2.click" /><animate attributeName="stroke-dashoffset" values="44.005;44.005;0" keyTimes="0;0.868;1" dur="3.333s" fill="freeze" begin="0s;6ef2.click" /></path><path d="M63.22,44c4.26,4.43,22.6,18.88,27.3,22.12c1.59,1.1,3.64,1.57,5.23,1.88" stroke-dasharray="40.756" stroke-dashoffset="40.756"><animate attributeName="stroke-dashoffset" values="40.756" fill="freeze" begin="6ef2.click" /><animate attributeName="stroke-dashoffset" values="40.756;40.756;0" keyTimes="0;0.891;1" dur="3.741s" fill="freeze" begin="0s;6ef2.click" /></path><path d="M67.24,57.25c0.07,0.47,0.25,1.29-0.14,1.92c-2.6,4.09-11.99,12.05-24.22,17.62" stroke-dasharray="32.204" stroke-dashoffset="32.204"><animate attributeName="stroke-dashoffset" values="32.204" fill="freeze" begin="6ef2.click" /><animate attributeName="stroke-dashoffset" values="32.204;32.204;0" keyTimes="0;0.921;1" dur="4.063s" fill="freeze" begin="0s;6ef2.click" /></path><path d="M73.83,68.4c0.09,0.45,0.31,1.23-0.17,1.81C70.42,74.16,59.5,82,43.96,87.51" stroke-dasharray="36.552" stroke-dashoffset="36.552"><animate attributeName="stroke-dashoffset" values="36.552" fill="freeze" begin="6ef2.click" /><animate attributeName="stroke-dashoffset" values="36.552;36.552;0" keyTimes="0;0.917;1" dur="4.429s" fill="freeze" begin="0s;6ef2.click" /></path><path d="M81.97,77.68c0.12,0.56,0.4,1.56-0.23,2.26c-5,5.56-21,14.56-40.8,21.56" stroke-dasharray="48.819" stroke-dashoffset="48.819"><animate attributeName="stroke-dashoffset" values="48.819" fill="freeze" begin="6ef2.click" /><animate attributeName="stroke-dashoffset" values="48.819;48.819;0" keyTimes="0;0.901;1" dur="4.917s" fill="freeze" begin="0s;6ef2.click" /></path></g></svg>