<svg xmlns="http://www.w3.org/2000/svg" viewBox="0 0 109 109" id="6f0f"><g fill="none" stroke="#666" stroke-width="6" stroke-linecap="round" stroke-linejoin="round"><g><g><path d="M20.13,13.25c4.01,1.6,10.36,6.6,11.37,9.09" /><path d="M12.25,38.25c4.41,1.01,11.4,4.17,12.5,5.75" /><path d="M11.5,87.98c1.75,0.64,2.78,0.32,3.86-1.25C18.5,82.17,23.14,74.08,26,68.25" /></g><g><g p5:phon="尸+雨" xmlns:p5="http://kanjivg.tagaini.net"><g><path d="M41.94,16.19c1.56,0.81,4.22,1.11,5.83,0.96c8.05-0.77,28.01-3.18,36-4.03c3.4-0.36,5.92,0.26,5.25,4.13c-0.53,3.04-1.13,4.88-2.3,10.23" /><path d="M46.88,33.46c3.45-0.15,24.65-3.09,35.63-4.41c2.91-0.35,5.09-0.58,6.05-0.62" /><path d="M45.06,17.65c1.14,1.14,1.31,2.35,1.31,4.41c0,18.72-4.46,49.71-16.87,62.49" /></g><g><path d="M51.03,43.25c2.03,0.68,4.74,0.41,6.85,0.15c6.23-0.75,17.17-1.86,24.75-2.65c2.18-0.23,4.88-0.25,6.96,0" /><path d="M47.76,58.06c0.9,0.9,1.06,1.94,1.06,3.39c0,5.75,0.01,18.42,0.01,26.79c0,3.64-0.08,5.16-0.08,6.25" /><path d="M49.39,59.64c9.3-0.95,32.4-3.3,40.36-4.07c3.7-0.36,5,0.65,4.99,4.43c-0.02,9.1-0.21,17.91-0.21,28.71c0,10.04-4.53,3.79-7.08,2.33" /><path d="M68.89,44.52c0.98,0.98,1.25,2.23,1.25,4c0,0.6-0.01,26.11-0.01,38.98c0,3.69-0.01,6.14-0.01,6.62" /><path d="M56,66.62c2.27,0.83,5.36,3.33,6.6,4.71" /><path d="M55.5,76.75c2.1,0.87,5.34,4.04,6.49,5.48" /><path d="M78.43,64.75c2.91,1.36,6.21,4.08,7.38,5.22" /><path d="M78.18,75.37c1.76,0.84,5.76,4.63,7.04,6.52" /></g></g></g></g></g><g fill="none" stroke="#000" stroke-width="3" stroke-linecap="round" stroke-linejoin="round"><path d="M20.13,13.25c4.01,1.6,10.36,6.6,11.37,9.09" stroke-dasharray="14.762" stroke-dashoffset="14.762"><animate attributeName="stroke-dashoffset" values="14.762;14.762;0" dur="0.295s" fill="freeze" begin="0s;6f0f.click" /></path><path d="M12.25,38.25c4.41,1.01,11.4,4.17,12.5,5.75" stroke-dasharray="13.888" stroke-dashoffset="13.888"><animate attributeName="stroke-dashoffset" values="13.888" fill="freeze" begin="6f0f.click" /><animate attributeName="stroke-dashoffset" values="13.888;13.888;0" keyTimes="0;0.515;1" dur="0.573s" fill="freeze" begin="0s;6f0f.click" /></path><path d="M11.5,87.98c1.75,0.64,2.78,0.32,3.86-1.25C18.5,82.17,23.14,74.08,26,68.25" stroke-dasharray="25.833" stroke-dashoffset="25.833"><animate attributeName="stroke-dashoffset" values="25.833" fill="freeze" begin="6f0f.click" /><animate attributeName="stroke-dashoffset" values="25.833;25.833;0" keyTimes="0;0.69;1" dur="0.831s" fill="freeze" begin="0s;6f0f.click" /></path><path d="M41.94,16.19c1.56,0.81,4.22,1.11,5.83,0.96c8.05-0.77,28.01-3.18,36-4.03c3.4-0.36,5.92,0.26,5.25,4.13c-0.53,3.04-1.13,4.88-2.3,10.23" stroke-dasharray="61.003" stroke-dashoffset="61.003"><animate attributeName="stroke-dashoffset" values="61.003" fill="freeze" begin="6f0f.click" /><animate attributeName="stroke-dashoffset" values="61.003;61.003;0" keyTimes="0;0.644;1" dur="1.29s" fill="freeze" begin="0s;6f0f.click" /></path><path d="M46.88,33.46c3.45-0.15,24.65-3.09,35.63-4.41c2.91-0.35,5.09-0.58,6.05-0.62" stroke-dasharray="41.988" stroke-dashoffset="41.988"><animate attributeName="stroke-dashoffset" values="41.988" fill="freeze" begin="6f0f.click" /><animate attributeName="stroke-dashoffset" values="41.988;41.988;0" keyTimes="0;0.754;1" dur="1.71s" fill="freeze" begin="0s;6f0f.click" /></path><path d="M45.06,17.65c1.14,1.14,1.31,2.35,1.31,4.41c0,18.72-4.46,49.71-16.87,62.49" stroke-dasharray="70.692" stroke-dashoffset="70.692"><animate attributeName="stroke-dashoffset" values="70.692" fill="freeze" begin="6f0f.click" /><animate attributeName="stroke-dashoffset" values="70.692;70.692;0" keyTimes="0;0.763;1" dur="2.242s" fill="freeze" begin="0s;6f0f.click" /></path><path d="M51.03,43.25c2.03,0.68,4.74,0.41,6.85,0.15c6.23-0.75,17.17-1.86,24.75-2.65c2.18-0.23,4.88-0.25,6.96,0" stroke-dasharray="38.771" stroke-dashoffset="38.771"><animate attributeName="stroke-dashoffset" values="38.771" fill="freeze" begin="6f0f.click" /><animate attributeName="stroke-dashoffset" values="38.771;38.771;0" keyTimes="0;0.852;1" dur="2.63s" fill="freeze" begin="0s;6f0f.click" /></path><path d="M47.76,58.06c0.9,0.9,1.06,1.94,1.06,3.39c0,5.75,0.01,18.42,0.01,26.79c0,3.64-0.08,5.16-0.08,6.25" stroke-dasharray="36.702" stroke-dashoffset="36.702"><animate attributeName="stroke-dashoffset" values="36.702" fill="freeze" begin="6f0f.click" /><animate attributeName="stroke-dashoffset" values="36.702;36.702;0" keyTimes="0;0.878;1" dur="2.997s" fill="freeze" begin="0s;6f0f.click" /></path><path d="M49.39,59.64c9.3-0.95,32.4-3.3,40.36-4.07c3.7-0.36,5,0.65,4.99,4.43c-0.02,9.1-0.21,17.91-0.21,28.71c0,10.04-4.53,3.79-7.08,2.33" stroke-dasharray="89.945" stroke-dashoffset="89.945"><animate attributeName="stroke-dashoffset" values="89.945" fill="freeze" begin="6f0f.click" /><animate attributeName="stroke-dashoffset" values="89.945;89.945;0" keyTimes="0;0.816;1" dur="3.673s" fill="freeze" begin="0s;6f0f.click" /></path><path d="M68.89,44.52c0.98,0.98,1.25,2.23,1.25,4c0,0.6-0.01,26.11-0.01,38.98c0,3.69-0.01,6.14-0.01,6.62" stroke-dasharray="49.913" stroke-dashoffset="49.913"><animate attributeName="stroke-dashoffset" values="49.913" fill="freeze" begin="6f0f.click" /><animate attributeName="stroke-dashoffset" values="49.913;49.913;0" keyTimes="0;0.88;1" dur="4.172s" fill="freeze" begin="0s;6f0f.click" /></path><path d="M56,66.62c2.27,0.83,5.36,3.33,6.6,4.71" stroke-dasharray="8.166" stroke-dashoffset="8.166"><animate attributeName="stroke-dashoffset" values="8.166" fill="freeze" begin="6f0f.click" /><animate attributeName="stroke-dashoffset" values="8.166;8.166;0" keyTimes="0;0.962;1" dur="4.335s" fill="freeze" begin="0s;6f0f.click" /></path><path d="M55.5,76.75c2.1,0.87,5.34,4.04,6.49,5.48" stroke-dasharray="8.553" stroke-dashoffset="8.553"><animate attributeName="stroke-dashoffset" values="8.553" fill="freeze" begin="6f0f.click" /><animate attributeName="stroke-dashoffset" values="8.553;8.553;0" keyTimes="0;0.962;1" dur="4.506s" fill="freeze" begin="0s;6f0f.click" /></path><path d="M78.43,64.75c2.91,1.36,6.21,4.08,7.38,5.22" stroke-dasharray="9.073" stroke-dashoffset="9.073"><animate attributeName="stroke-dashoffset" values="9.073" fill="freeze" begin="6f0f.click" /><animate attributeName="stroke-dashoffset" values="9.073;9.073;0" keyTimes="0;0.961;1" dur="4.687s" fill="freeze" begin="0s;6f0f.click" /></path><path d="M78.18,75.37c1.76,0.84,5.76,4.63,7.04,6.52" stroke-dasharray="9.653" stroke-dashoffset="9.653"><animate attributeName="stroke-dashoffset" values="9.653" fill="freeze" begin="6f0f.click" /><animate attributeName="stroke-dashoffset" values="9.653;9.653;0" keyTimes="0;0.96;1" dur="4.88s" fill="freeze" begin="0s;6f0f.click" /></path></g></svg>