<svg xmlns="http://www.w3.org/2000/svg" viewBox="0 0 109 109" id="6fdb"><g fill="none" stroke="#666" stroke-width="6" stroke-linecap="round" stroke-linejoin="round"><g><g><path d="M16.88,16c3.66,1.78,9.45,7.32,10.37,10.09" /><path d="M12.5,43.25c4.24,1.46,10.94,5.99,12,8.25" /><path d="M13.75,90.9c2.25,0.6,4.01,0.44,5.01-1.27c2.92-4.97,5.34-10.04,7.99-16.38" /></g><g><g><path d="M39.2,20.77c1.09,0.53,2.35,0.63,3.44,0.53c9.99-0.96,34.36-2.46,45.88-2.53c1.81-0.01,2.9,0.25,3.8,0.51" /><path d="M50.5,12.5c0.92,1.02,1.21,1.33,1.31,1.95c0.92,5.85,1.18,11.17,1.44,13.3" /><path d="M73.05,10.25c0.71,0.75,1.17,1.89,0.94,2.99c-0.71,3.36-1.51,8.97-2.53,13.26" /></g><g><g><path d="M40.58,32.1c0,3.27-2.57,12.25-3.58,14.43" /><path d="M40.81,35.32c18.79-2.83,46.31-4.37,47.95-4.48c10.71-0.7,4.46,5.41,0.44,8.63" /></g><path d="M48.61,42.03c0.97,0.41,2.73,0.43,3.7,0.41c5.29-0.12,12.44-1.19,23.21-2.39c1.6-0.18,3.03,0.19,3.83,0.4" /><g><path d="M39.04,52.48c1.35,0.62,3.82,0.65,5.18,0.62c9.23-0.24,30.62-3.34,42.56-3.66c2.25-0.06,3.6,0.29,4.73,0.6" /><path d="M62.31,53.06c0.06,0.34,0.12,0.89-0.12,1.38c-1.45,2.91-9.78,9.3-21.17,13.21" /><path d="M60.67,60.42c5.32,4.86,11.83,19.58,4.91,35.2c-2.6,5.87-5.83,0.39-6.52-1.46" /><path d="M60.79,64.34c0.06,0.38,0.13,0.99-0.12,1.53c-1.48,3.23-9.98,10.33-21.6,14.68" /><path d="M64.21,72.38c0.07,0.51,0.16,1.32-0.15,2.06c-1.84,4.35-13.33,12.7-27.74,18.54" /><path d="M80.77,57.96c0.04,0.25,0.08,0.64-0.07,1c-0.85,2.12-5.72,6.76-12.39,9.6" /><path d="M68.25,69.74c3.39,2.61,16.69,14.54,21.97,17.5c1.31,0.74,2.32,1.24,3.57,1.49" /></g></g></g></g></g><g fill="none" stroke="#000" stroke-width="3" stroke-linecap="round" stroke-linejoin="round"><path d="M16.88,16c3.66,1.78,9.45,7.32,10.37,10.09" stroke-dasharray="14.68" stroke-dashoffset="14.68"><animate attributeName="stroke-dashoffset" values="14.68;14.68;0" dur="0.294s" fill="freeze" begin="0s;6fdb.click" /></path><path d="M12.5,43.25c4.24,1.46,10.94,5.99,12,8.25" stroke-dasharray="14.755" stroke-dashoffset="14.755"><animate attributeName="stroke-dashoffset" values="14.755" fill="freeze" begin="6fdb.click" /><animate attributeName="stroke-dashoffset" values="14.755;14.755;0" keyTimes="0;0.499;1" dur="0.589s" fill="freeze" begin="0s;6fdb.click" /></path><path d="M13.75,90.9c2.25,0.6,4.01,0.44,5.01-1.27c2.92-4.97,5.34-10.04,7.99-16.38" stroke-dasharray="23.861" stroke-dashoffset="23.861"><animate attributeName="stroke-dashoffset" values="23.861" fill="freeze" begin="6fdb.click" /><animate attributeName="stroke-dashoffset" values="23.861;23.861;0" keyTimes="0;0.711;1" dur="0.828s" fill="freeze" begin="0s;6fdb.click" /></path><path d="M39.2,20.77c1.09,0.53,2.35,0.63,3.44,0.53c9.99-0.96,34.36-2.46,45.88-2.53c1.81-0.01,2.9,0.25,3.8,0.51" stroke-dasharray="53.332" stroke-dashoffset="53.332"><animate attributeName="stroke-dashoffset" values="53.332" fill="freeze" begin="6fdb.click" /><animate attributeName="stroke-dashoffset" values="53.332;53.332;0" keyTimes="0;0.608;1" dur="1.361s" fill="freeze" begin="0s;6fdb.click" /></path><path d="M50.5,12.5c0.92,1.02,1.21,1.33,1.31,1.95c0.92,5.85,1.18,11.17,1.44,13.3" stroke-dasharray="15.767" stroke-dashoffset="15.767"><animate attributeName="stroke-dashoffset" values="15.767" fill="freeze" begin="6fdb.click" /><animate attributeName="stroke-dashoffset" values="15.767;15.767;0" keyTimes="0;0.896;1" dur="1.519s" fill="freeze" begin="0s;6fdb.click" /></path><path d="M73.05,10.25c0.71,0.75,1.17,1.89,0.94,2.99c-0.71,3.36-1.51,8.97-2.53,13.26" stroke-dasharray="16.757" stroke-dashoffset="16.757"><animate attributeName="stroke-dashoffset" values="16.757" fill="freeze" begin="6fdb.click" /><animate attributeName="stroke-dashoffset" values="16.757;16.757;0" keyTimes="0;0.9;1" dur="1.687s" fill="freeze" begin="0s;6fdb.click" /></path><path d="M40.58,32.1c0,3.27-2.57,12.25-3.58,14.43" stroke-dasharray="14.919" stroke-dashoffset="14.919"><animate attributeName="stroke-dashoffset" values="14.919" fill="freeze" begin="6fdb.click" /><animate attributeName="stroke-dashoffset" values="14.919;14.919;0" keyTimes="0;0.85;1" dur="1.985s" fill="freeze" begin="0s;6fdb.click" /></path><path d="M40.81,35.32c18.79-2.83,46.31-4.37,47.95-4.48c10.71-0.7,4.46,5.41,0.44,8.63" stroke-dasharray="63.91" stroke-dashoffset="63.91"><animate attributeName="stroke-dashoffset" values="63.91" fill="freeze" begin="6fdb.click" /><animate attributeName="stroke-dashoffset" values="63.91;63.91;0" keyTimes="0;0.805;1" dur="2.466s" fill="freeze" begin="0s;6fdb.click" /></path><path d="M48.61,42.03c0.97,0.41,2.73,0.43,3.7,0.41c5.29-0.12,12.44-1.19,23.21-2.39c1.6-0.18,3.03,0.19,3.83,0.4" stroke-dasharray="30.959" stroke-dashoffset="30.959"><animate attributeName="stroke-dashoffset" values="30.959" fill="freeze" begin="6fdb.click" /><animate attributeName="stroke-dashoffset" values="30.959;30.959;0" keyTimes="0;0.888;1" dur="2.776s" fill="freeze" begin="0s;6fdb.click" /></path><path d="M39.04,52.48c1.35,0.62,3.82,0.65,5.18,0.62c9.23-0.24,30.62-3.34,42.56-3.66c2.25-0.06,3.6,0.29,4.73,0.6" stroke-dasharray="52.769" stroke-dashoffset="52.769"><animate attributeName="stroke-dashoffset" values="52.769" fill="freeze" begin="6fdb.click" /><animate attributeName="stroke-dashoffset" values="52.769;52.769;0" keyTimes="0;0.84;1" dur="3.304s" fill="freeze" begin="0s;6fdb.click" /></path><path d="M62.31,53.06c0.06,0.34,0.12,0.89-0.12,1.38c-1.45,2.91-9.78,9.3-21.17,13.21" stroke-dasharray="26.714" stroke-dashoffset="26.714"><animate attributeName="stroke-dashoffset" values="26.714" fill="freeze" begin="6fdb.click" /><animate attributeName="stroke-dashoffset" values="26.714;26.714;0" keyTimes="0;0.925;1" dur="3.571s" fill="freeze" begin="0s;6fdb.click" /></path><path d="M60.67,60.42c5.32,4.86,11.83,19.58,4.91,35.2c-2.6,5.87-5.83,0.39-6.52-1.46" stroke-dasharray="47.472" stroke-dashoffset="47.472"><animate attributeName="stroke-dashoffset" values="47.472" fill="freeze" begin="6fdb.click" /><animate attributeName="stroke-dashoffset" values="47.472;47.472;0" keyTimes="0;0.883;1" dur="4.046s" fill="freeze" begin="0s;6fdb.click" /></path><path d="M60.79,64.34c0.06,0.38,0.13,0.99-0.12,1.53c-1.48,3.23-9.98,10.33-21.6,14.68" stroke-dasharray="28.062" stroke-dashoffset="28.062"><animate attributeName="stroke-dashoffset" values="28.062" fill="freeze" begin="6fdb.click" /><animate attributeName="stroke-dashoffset" values="28.062;28.062;0" keyTimes="0;0.935;1" dur="4.327s" fill="freeze" begin="0s;6fdb.click" /></path><path d="M64.21,72.38c0.07,0.51,0.16,1.32-0.15,2.06c-1.84,4.35-13.33,12.7-27.74,18.54" stroke-dasharray="35.913" stroke-dashoffset="35.913"><animate attributeName="stroke-dashoffset" values="35.913" fill="freeze" begin="6fdb.click" /><animate attributeName="stroke-dashoffset" values="35.913;35.913;0" keyTimes="0;0.923;1" dur="4.686s" fill="freeze" begin="0s;6fdb.click" /></path><path d="M80.77,57.96c0.04,0.25,0.08,0.64-0.07,1c-0.85,2.12-5.72,6.76-12.39,9.6" stroke-dasharray="16.94" stroke-dashoffset="16.94"><animate attributeName="stroke-dashoffset" values="16.94" fill="freeze" begin="6fdb.click" /><animate attributeName="stroke-dashoffset" values="16.94;16.94;0" keyTimes="0;0.965;1" dur="4.855s" fill="freeze" begin="0s;6fdb.click" /></path><path d="M68.25,69.74c3.39,2.61,16.69,14.54,21.97,17.5c1.31,0.74,2.32,1.24,3.57,1.49" stroke-dasharray="31.998" stroke-dashoffset="31.998"><animate attributeName="stroke-dashoffset" values="31.998" fill="freeze" begin="6fdb.click" /><animate attributeName="stroke-dashoffset" values="31.998;31.998;0" keyTimes="0;0.938;1" dur="5.175s" fill="freeze" begin="0s;6fdb.click" /></path></g></svg>