<svg xmlns="http://www.w3.org/2000/svg" viewBox="0 0 109 109" id="71df"><g fill="none" stroke="#666" stroke-width="6" stroke-linecap="round" stroke-linejoin="round"><g><g p4:phon="𤇾" xmlns:p4="http://kanjivg.tagaini.net"><g><path d="M25.75,17.68c1.44,1.38,2.88,5.09,3,7.31" /><path d="M50.23,14.37c0.63,0.45,0.34,2.11-0.24,2.81c-0.57,0.7-5.88,5.14-8.74,6.78" /><path d="M37.86,10c0.89,0.74,0.89,2.65,0.89,3.13c0,14.12-4.75,21.62-11.25,26.12" /><path d="M38.47,28.39c4.09,1.35,9.25,5.61,10.33,7.52" /></g><g><path d="M56.75,16.43c1.84,1.76,3.31,4.59,3.5,6.56" /><path d="M81.78,13.37c0.54,0.43,0.29,1.99-0.2,2.65c-0.49,0.66-5.88,4.39-8.33,5.93" /><path d="M69.34,10.25c0.91,0.69,0.91,1.54,0.91,1.99c0,11.51-3,21.35-11.5,25.26" /><path d="M70.22,28.14c4.39,1.21,9.93,5.06,11.08,6.77" /></g><g><path d="M20.16,41.19c-0.14,3.93-3.48,14.22-4.66,16.56" /><path d="M19.72,45.5c3.53,0,48.75-4.75,66.47-4.75c12.06,0,3.81,5.75-0.69,9.5" /></g></g><g><g><path d="M36.12,53.67c0.34,0.28,0.69,0.51,0.83,0.86c1.17,2.74,2.56,10.26,3.35,15.15" /><path d="M38.23,54.64c8.32-0.99,24.41-3.19,28.7-3.5c1.57-0.11,2.51,1.46,2.28,2.28c-0.94,3.4-2.01,6.33-4.01,11.23" /><path d="M40.65,67.89c5.04-0.35,19.73-2.47,26.12-2.79" /></g><g><g><path d="M52.14,69.46c0.84,0.89,0.78,2.1,0.27,3.14c-0.38,0.78-4.14,5.57-4.81,6.6" /></g><g><path d="M31.75,80.35c0.46,0.36,0.93,0.67,1.14,1.12c1.59,3.51,2.99,11.27,4.07,17.51" /><path d="M33.13,81.64C44.47,80.61,67.6,77,73.44,76.73c2.14-0.1,3.42,1.92,3.11,2.96c-1.28,4.3-1.24,6.09-3.71,13.65" /><path d="M36.92,97.04C48,96.75,66.26,94.2,74.97,93.96" /></g></g></g></g></g><g fill="none" stroke="#000" stroke-width="3" stroke-linecap="round" stroke-linejoin="round"><path d="M25.75,17.68c1.44,1.38,2.88,5.09,3,7.31" stroke-dasharray="8.028" stroke-dashoffset="8.028"><animate attributeName="stroke-dashoffset" values="8.028;8.028;0" dur="0.161s" fill="freeze" begin="0s;71df.click" /></path><path d="M50.23,14.37c0.63,0.45,0.34,2.11-0.24,2.81c-0.57,0.7-5.88,5.14-8.74,6.78" stroke-dasharray="14.119" stroke-dashoffset="14.119"><animate attributeName="stroke-dashoffset" values="14.119" fill="freeze" begin="71df.click" /><animate attributeName="stroke-dashoffset" values="14.119;14.119;0" keyTimes="0;0.363;1" dur="0.443s" fill="freeze" begin="0s;71df.click" /></path><path d="M37.86,10c0.89,0.74,0.89,2.65,0.89,3.13c0,14.12-4.75,21.62-11.25,26.12" stroke-dasharray="33.027" stroke-dashoffset="33.027"><animate attributeName="stroke-dashoffset" values="33.027" fill="freeze" begin="71df.click" /><animate attributeName="stroke-dashoffset" values="33.027;33.027;0" keyTimes="0;0.573;1" dur="0.773s" fill="freeze" begin="0s;71df.click" /></path><path d="M38.47,28.39c4.09,1.35,9.25,5.61,10.33,7.52" stroke-dasharray="12.946" stroke-dashoffset="12.946"><animate attributeName="stroke-dashoffset" values="12.946" fill="freeze" begin="71df.click" /><animate attributeName="stroke-dashoffset" values="12.946;12.946;0" keyTimes="0;0.749;1" dur="1.032s" fill="freeze" begin="0s;71df.click" /></path><path d="M56.75,16.43c1.84,1.76,3.31,4.59,3.5,6.56" stroke-dasharray="7.565" stroke-dashoffset="7.565"><animate attributeName="stroke-dashoffset" values="7.565" fill="freeze" begin="71df.click" /><animate attributeName="stroke-dashoffset" values="7.565;7.565;0" keyTimes="0;0.872;1" dur="1.183s" fill="freeze" begin="0s;71df.click" /></path><path d="M81.78,13.37c0.54,0.43,0.29,1.99-0.2,2.65c-0.49,0.66-5.88,4.39-8.33,5.93" stroke-dasharray="13.064" stroke-dashoffset="13.064"><animate attributeName="stroke-dashoffset" values="13.064" fill="freeze" begin="71df.click" /><animate attributeName="stroke-dashoffset" values="13.064;13.064;0" keyTimes="0;0.819;1" dur="1.444s" fill="freeze" begin="0s;71df.click" /></path><path d="M69.34,10.25c0.91,0.69,0.91,1.54,0.91,1.99c0,11.51-3,21.35-11.5,25.26" stroke-dasharray="31.652" stroke-dashoffset="31.652"><animate attributeName="stroke-dashoffset" values="31.652" fill="freeze" begin="71df.click" /><animate attributeName="stroke-dashoffset" values="31.652;31.652;0" keyTimes="0;0.82;1" dur="1.761s" fill="freeze" begin="0s;71df.click" /></path><path d="M70.22,28.14c4.39,1.21,9.93,5.06,11.08,6.77" stroke-dasharray="13.137" stroke-dashoffset="13.137"><animate attributeName="stroke-dashoffset" values="13.137" fill="freeze" begin="71df.click" /><animate attributeName="stroke-dashoffset" values="13.137;13.137;0" keyTimes="0;0.87;1" dur="2.024s" fill="freeze" begin="0s;71df.click" /></path><path d="M20.16,41.19c-0.14,3.93-3.48,14.22-4.66,16.56" stroke-dasharray="17.262" stroke-dashoffset="17.262"><animate attributeName="stroke-dashoffset" values="17.262" fill="freeze" begin="71df.click" /><animate attributeName="stroke-dashoffset" values="17.262;17.262;0" keyTimes="0;0.921;1" dur="2.197s" fill="freeze" begin="0s;71df.click" /></path><path d="M19.72,45.5c3.53,0,48.75-4.75,66.47-4.75c12.06,0,3.81,5.75-0.69,9.5" stroke-dasharray="84.144" stroke-dashoffset="84.144"><animate attributeName="stroke-dashoffset" values="84.144" fill="freeze" begin="71df.click" /><animate attributeName="stroke-dashoffset" values="84.144;84.144;0" keyTimes="0;0.776;1" dur="2.83s" fill="freeze" begin="0s;71df.click" /></path><path d="M36.12,53.67c0.34,0.28,0.69,0.51,0.83,0.86c1.17,2.74,2.56,10.26,3.35,15.15" stroke-dasharray="16.748" stroke-dashoffset="16.748"><animate attributeName="stroke-dashoffset" values="16.748" fill="freeze" begin="71df.click" /><animate attributeName="stroke-dashoffset" values="16.748;16.748;0" keyTimes="0;0.944;1" dur="2.997s" fill="freeze" begin="0s;71df.click" /></path><path d="M38.23,54.64c8.32-0.99,24.41-3.19,28.7-3.5c1.57-0.11,2.51,1.46,2.28,2.28c-0.94,3.4-2.01,6.33-4.01,11.23" stroke-dasharray="44.52" stroke-dashoffset="44.52"><animate attributeName="stroke-dashoffset" values="44.52" fill="freeze" begin="71df.click" /><animate attributeName="stroke-dashoffset" values="44.52;44.52;0" keyTimes="0;0.871;1" dur="3.442s" fill="freeze" begin="0s;71df.click" /></path><path d="M40.65,67.89c5.04-0.35,19.73-2.47,26.12-2.79" stroke-dasharray="26.273" stroke-dashoffset="26.273"><animate attributeName="stroke-dashoffset" values="26.273" fill="freeze" begin="71df.click" /><animate attributeName="stroke-dashoffset" values="26.273;26.273;0" keyTimes="0;0.929;1" dur="3.705s" fill="freeze" begin="0s;71df.click" /></path><path d="M52.14,69.46c0.84,0.89,0.78,2.1,0.27,3.14c-0.38,0.78-4.14,5.57-4.81,6.6" stroke-dasharray="11.536" stroke-dashoffset="11.536"><animate attributeName="stroke-dashoffset" values="11.536" fill="freeze" begin="71df.click" /><animate attributeName="stroke-dashoffset" values="11.536;11.536;0" keyTimes="0;0.941;1" dur="3.936s" fill="freeze" begin="0s;71df.click" /></path><path d="M31.75,80.35c0.46,0.36,0.93,0.67,1.14,1.12c1.59,3.51,2.99,11.27,4.07,17.51" stroke-dasharray="19.624" stroke-dashoffset="19.624"><animate attributeName="stroke-dashoffset" values="19.624" fill="freeze" begin="71df.click" /><animate attributeName="stroke-dashoffset" values="19.624;19.624;0" keyTimes="0;0.953;1" dur="4.132s" fill="freeze" begin="0s;71df.click" /></path><path d="M33.13,81.64C44.47,80.61,67.6,77,73.44,76.73c2.14-0.1,3.42,1.92,3.11,2.96c-1.28,4.3-1.24,6.09-3.71,13.65" stroke-dasharray="59.635" stroke-dashoffset="59.635"><animate attributeName="stroke-dashoffset" values="59.635" fill="freeze" begin="71df.click" /><animate attributeName="stroke-dashoffset" values="59.635;59.635;0" keyTimes="0;0.874;1" dur="4.728s" fill="freeze" begin="0s;71df.click" /></path><path d="M36.92,97.04C48,96.75,66.26,94.2,74.97,93.96" stroke-dasharray="38.183" stroke-dashoffset="38.183"><animate attributeName="stroke-dashoffset" values="38.183" fill="freeze" begin="71df.click" /><animate attributeName="stroke-dashoffset" values="38.183;38.183;0" keyTimes="0;0.925;1" dur="5.11s" fill="freeze" begin="0s;71df.click" /></path></g></svg>