<svg xmlns="http://www.w3.org/2000/svg" viewBox="0 0 109 109" id="74f7"><g fill="none" stroke="#666" stroke-width="6" stroke-linecap="round" stroke-linejoin="round"><g><g><g><g><path d="M22.25,19.54c0.62,0.07,1.83,0.4,2.92,0.33c5.09-0.35,10.83-2.12,15.52-2.25c0.96-0.02,1.83,0.13,2.31,0.26" /></g><g><path d="M18.5,42.17c0.73,0.58,2.18,0.9,4.36,0.13c6.06-2.14,13.58-5.65,19.64-7.79" /></g></g><g><path d="M57.23,10.75c0.04,0.43,0.07,1.11-0.07,1.73c-0.85,3.65-5.76,11.67-12.48,16.58" /><path d="M53.31,20.41c0.81,0.23,2.33,0.58,3.55,0.38c1.48-0.24,27.4-2.43,28.81-2.44c4.86-0.04-0.01,6.1-3.01,9.07" /><path d="M63.51,23.12c0.06,0.65,0.04,1.66-0.11,2.61c-0.95,5.9-9.87,20-22.14,26.77" /><path d="M62.31,30.25C66.3,33.69,80.26,44,87.42,47.67c1.51,0.77,2.65,1.23,4.08,1.48" /></g></g><g><path d="M19.3,58.61c1.93,0.61,5.47,0.7,7.39,0.61c16.06-0.72,45.22-2.45,56.09-2.7c3.21-0.07,5.14,0.29,6.75,0.6" /><path d="m 39.7,60.25 c 0.08,1 -0.22,3.05 -0.45,3.59 -2.47,5.66 -11.063542,28.477292 -13.333542,33.067292" /><path d="m 20.6,97.3 c 1.035944,0.308484 2.43278,0.131632 3.283787,-0.03605 8.153468,-1.606505 30.289311,-5.964859 38.289311,-7.214859" /><path d="M41.74,69.54c0.87,0.21,2.28,0.1,3.14,0C55.5,68.25,63,67,69.65,66.25c1.34-0.15,2.69,1.58,2.16,3.03C70,74.25,68,78.75,67.25,84.25c-1.42,10.4,1.75,12.5,12.5,12.5c11.25,0,10.58-2.27,10.75-12" /><g><path d="M43.1,74.33c3.51,1.7,9.06,6.99,9.94,9.63" /></g></g></g></g><g fill="none" stroke="#000" stroke-width="3" stroke-linecap="round" stroke-linejoin="round"><path d="M22.25,19.54c0.62,0.07,1.83,0.4,2.92,0.33c5.09-0.35,10.83-2.12,15.52-2.25c0.96-0.02,1.83,0.13,2.31,0.26" stroke-dasharray="20.974" stroke-dashoffset="20.974"><animate attributeName="stroke-dashoffset" values="20.974;20.974;0" dur="0.21s" fill="freeze" begin="0s;74f7.click" /></path><path d="M18.5,42.17c0.73,0.58,2.18,0.9,4.36,0.13c6.06-2.14,13.58-5.65,19.64-7.79" stroke-dasharray="25.669" stroke-dashoffset="25.669"><animate attributeName="stroke-dashoffset" values="25.669" fill="freeze" begin="74f7.click" /><animate attributeName="stroke-dashoffset" values="25.669;25.669;0" keyTimes="0;0.45;1" dur="0.467s" fill="freeze" begin="0s;74f7.click" /></path><path d="M57.23,10.75c0.04,0.43,0.07,1.11-0.07,1.73c-0.85,3.65-5.76,11.67-12.48,16.58" stroke-dasharray="22.801" stroke-dashoffset="22.801"><animate attributeName="stroke-dashoffset" values="22.801" fill="freeze" begin="74f7.click" /><animate attributeName="stroke-dashoffset" values="22.801;22.801;0" keyTimes="0;0.672;1" dur="0.695s" fill="freeze" begin="0s;74f7.click" /></path><path d="M53.31,20.41c0.81,0.23,2.33,0.58,3.55,0.38c1.48-0.24,27.4-2.43,28.81-2.44c4.86-0.04-0.01,6.1-3.01,9.07" stroke-dasharray="44.687" stroke-dashoffset="44.687"><animate attributeName="stroke-dashoffset" values="44.687" fill="freeze" begin="74f7.click" /><animate attributeName="stroke-dashoffset" values="44.687;44.687;0" keyTimes="0;0.609;1" dur="1.142s" fill="freeze" begin="0s;74f7.click" /></path><path d="M63.51,23.12c0.06,0.65,0.04,1.66-0.11,2.61c-0.95,5.9-9.87,20-22.14,26.77" stroke-dasharray="38.167" stroke-dashoffset="38.167"><animate attributeName="stroke-dashoffset" values="38.167" fill="freeze" begin="74f7.click" /><animate attributeName="stroke-dashoffset" values="38.167;38.167;0" keyTimes="0;0.749;1" dur="1.524s" fill="freeze" begin="0s;74f7.click" /></path><path d="M62.31,30.25C66.3,33.69,80.26,44,87.42,47.67c1.51,0.77,2.65,1.23,4.08,1.48" stroke-dasharray="34.959" stroke-dashoffset="34.959"><animate attributeName="stroke-dashoffset" values="34.959" fill="freeze" begin="74f7.click" /><animate attributeName="stroke-dashoffset" values="34.959;34.959;0" keyTimes="0;0.813;1" dur="1.874s" fill="freeze" begin="0s;74f7.click" /></path><path d="M19.3,58.61c1.93,0.61,5.47,0.7,7.39,0.61c16.06-0.72,45.22-2.45,56.09-2.7c3.21-0.07,5.14,0.29,6.75,0.6" stroke-dasharray="70.392" stroke-dashoffset="70.392"><animate attributeName="stroke-dashoffset" values="70.392" fill="freeze" begin="74f7.click" /><animate attributeName="stroke-dashoffset" values="70.392;70.392;0" keyTimes="0;0.78;1" dur="2.403s" fill="freeze" begin="0s;74f7.click" /></path><path d="m 39.7,60.25 c 0.08,1 -0.22,3.05 -0.45,3.59 -2.47,5.66 -11.063542,28.477292 -13.333542,33.067292" stroke-dasharray="39.294" stroke-dashoffset="39.294"><animate attributeName="stroke-dashoffset" values="39.294" fill="freeze" begin="74f7.click" /><animate attributeName="stroke-dashoffset" values="39.294;39.294;0" keyTimes="0;0.859;1" dur="2.796s" fill="freeze" begin="0s;74f7.click" /></path><path d="m 20.6,97.3 c 1.035944,0.308484 2.43278,0.131632 3.283787,-0.03605 8.153468,-1.606505 30.289311,-5.964859 38.289311,-7.214859" stroke-dasharray="42.278" stroke-dashoffset="42.278"><animate attributeName="stroke-dashoffset" values="42.278" fill="freeze" begin="74f7.click" /><animate attributeName="stroke-dashoffset" values="42.278;42.278;0" keyTimes="0;0.869;1" dur="3.219s" fill="freeze" begin="0s;74f7.click" /></path><path d="M41.74,69.54c0.87,0.21,2.28,0.1,3.14,0C55.5,68.25,63,67,69.65,66.25c1.34-0.15,2.69,1.58,2.16,3.03C70,74.25,68,78.75,67.25,84.25c-1.42,10.4,1.75,12.5,12.5,12.5c11.25,0,10.58-2.27,10.75-12" stroke-dasharray="90.134" stroke-dashoffset="90.134"><animate attributeName="stroke-dashoffset" values="90.134" fill="freeze" begin="74f7.click" /><animate attributeName="stroke-dashoffset" values="90.134;90.134;0" keyTimes="0;0.826;1" dur="3.897s" fill="freeze" begin="0s;74f7.click" /></path><path d="M43.1,74.33c3.51,1.7,9.06,6.99,9.94,9.63" stroke-dasharray="14.042" stroke-dashoffset="14.042"><animate attributeName="stroke-dashoffset" values="14.042" fill="freeze" begin="74f7.click" /><animate attributeName="stroke-dashoffset" values="14.042;14.042;0" keyTimes="0;0.933;1" dur="4.178s" fill="freeze" begin="0s;74f7.click" /></path></g></svg>