<svg xmlns="http://www.w3.org/2000/svg" viewBox="0 0 109 109" id="753c"><g fill="none" stroke="#666" stroke-width="6" stroke-linecap="round" stroke-linejoin="round"><g><g><path d="M27.44,15.42c0.37,0.54,0.37,0.9,0.57,1.57c1.63,5.48,3.09,19.17,4.05,29.27" /><path d="M29.16,16.25c12.92-0.55,35.07-1.48,44.71-2.02c3.54-0.2,5.35,1.39,5.16,2.86c-0.71,5.38-2.54,18.8-3.26,27.23" /><path d="M52.43,17.59c0.32,0.66,0.96,1.16,0.95,2.12c-0.05,6.36,0.23,21.17,0.23,23.48" /><path d="M31.47,30.31c4.21-0.27,41.18-1.86,44.66-1.86" /><path d="M32.74,44.83c9.3,0,30.3-1.22,43.14-1.37" /></g><g><g><path d="M13,59.13c1.57,0.38,4.44,0.48,6.01,0.38c16.04-1,51.97-4.01,71.26-4.5c2.61-0.07,4.18,0.18,5.48,0.37" /></g><g><path d="M53.27,60.33c0.08,0.48,1.17,2.51,1.25,5.56c0.4,14.66-0.25,21.55-0.25,26.55c0,11.31-8.46,0.51-9.96-0.75" /></g></g></g></g><g fill="none" stroke="#000" stroke-width="3" stroke-linecap="round" stroke-linejoin="round"><path d="M27.44,15.42c0.37,0.54,0.37,0.9,0.57,1.57c1.63,5.48,3.09,19.17,4.05,29.27" stroke-dasharray="31.259" stroke-dashoffset="31.259"><animate attributeName="stroke-dashoffset" values="31.259;31.259;0" dur="0.313s" fill="freeze" begin="0s;753c.click" /></path><path d="M29.16,16.25c12.92-0.55,35.07-1.48,44.71-2.02c3.54-0.2,5.35,1.39,5.16,2.86c-0.71,5.38-2.54,18.8-3.26,27.23" stroke-dasharray="78.812" stroke-dashoffset="78.812"><animate attributeName="stroke-dashoffset" values="78.812" fill="freeze" begin="753c.click" /><animate attributeName="stroke-dashoffset" values="78.812;78.812;0" keyTimes="0;0.345;1" dur="0.906s" fill="freeze" begin="0s;753c.click" /></path><path d="M52.43,17.59c0.32,0.66,0.96,1.16,0.95,2.12c-0.05,6.36,0.23,21.17,0.23,23.48" stroke-dasharray="25.846" stroke-dashoffset="25.846"><animate attributeName="stroke-dashoffset" values="25.846" fill="freeze" begin="753c.click" /><animate attributeName="stroke-dashoffset" values="25.846;25.846;0" keyTimes="0;0.778;1" dur="1.164s" fill="freeze" begin="0s;753c.click" /></path><path d="M31.47,30.31c4.21-0.27,41.18-1.86,44.66-1.86" stroke-dasharray="44.701" stroke-dashoffset="44.701"><animate attributeName="stroke-dashoffset" values="44.701" fill="freeze" begin="753c.click" /><animate attributeName="stroke-dashoffset" values="44.701;44.701;0" keyTimes="0;0.723;1" dur="1.611s" fill="freeze" begin="0s;753c.click" /></path><path d="M32.74,44.83c9.3,0,30.3-1.22,43.14-1.37" stroke-dasharray="43.165" stroke-dashoffset="43.165"><animate attributeName="stroke-dashoffset" values="43.165" fill="freeze" begin="753c.click" /><animate attributeName="stroke-dashoffset" values="43.165;43.165;0" keyTimes="0;0.789;1" dur="2.043s" fill="freeze" begin="0s;753c.click" /></path><path d="M13,59.13c1.57,0.38,4.44,0.48,6.01,0.38c16.04-1,51.97-4.01,71.26-4.5c2.61-0.07,4.18,0.18,5.48,0.37" stroke-dasharray="82.947" stroke-dashoffset="82.947"><animate attributeName="stroke-dashoffset" values="82.947" fill="freeze" begin="753c.click" /><animate attributeName="stroke-dashoffset" values="82.947;82.947;0" keyTimes="0;0.766;1" dur="2.667s" fill="freeze" begin="0s;753c.click" /></path><path d="M53.27,60.33c0.08,0.48,1.17,2.51,1.25,5.56c0.4,14.66-0.25,21.55-0.25,26.55c0,11.31-8.46,0.51-9.96-0.75" stroke-dasharray="48.301" stroke-dashoffset="48.301"><animate attributeName="stroke-dashoffset" values="48.301" fill="freeze" begin="753c.click" /><animate attributeName="stroke-dashoffset" values="48.301;48.301;0" keyTimes="0;0.847;1" dur="3.15s" fill="freeze" begin="0s;753c.click" /></path></g></svg>