<svg xmlns="http://www.w3.org/2000/svg" viewBox="0 0 109 109" id="75b9"><g fill="none" stroke="#666" stroke-width="6" stroke-linecap="round" stroke-linejoin="round"><g><g><path d="M56.56,12.38c0.97,0.97,1.26,2.62,1.26,3.9c0,0.79-0.07,2.59-0.07,7.46" /><path d="M27.13,25.23c3.12,0.59,6.24,0.7,9.37,0.33c14.84-0.92,34.92-2.5,48.11-3.06c3.12-0.13,6.19,0.25,9.26,0.82" /><path d="M29.74,26.25c0.88,0.88,1.05,2.33,0.98,4.12c-1.23,32.5-4.48,47.5-16.17,64.09" /><path d="M11.25,36.75C15.13,38.51,21.03,43.26,22,46" /><path d="M9.92,66.54c1.53,0.67,2.76,0.22,4.1-0.59c5.45-3.28,7.6-4.62,11.72-7.45" /></g><path d="M58.91,29.25c0.06,0.82-0.19,2.17-0.63,3.29C55.25,40.25,48,51.75,34.73,63.5" /><path d="M60.62,32.83c3.88,4.92,13.9,14.97,21.45,21.61c3.37,3.02,7.19,5.22,11.45,6.61" /><g><g><path d="M64.59,49c0,1.12-0.32,1.85-0.88,2.55c-4.08,5.08-12.07,13.12-25.25,19.25" /></g><g><path d="M74.61,60.63c-0.03,1.38-0.52,2.46-1.48,3.25c-5.44,5.24-15.89,12.74-35.01,20.11" /></g><g><path d="M84.51,72.97c0,1.28-0.63,2.52-1.56,3.46c-6.45,5.83-21.45,14.2-48.88,22.33" /></g></g></g></g><g fill="none" stroke="#000" stroke-width="3" stroke-linecap="round" stroke-linejoin="round"><path d="M56.56,12.38c0.97,0.97,1.26,2.62,1.26,3.9c0,0.79-0.07,2.59-0.07,7.46" stroke-dasharray="11.66" stroke-dashoffset="11.66"><animate attributeName="stroke-dashoffset" values="11.66;11.66;0" dur="0.233s" fill="freeze" begin="0s;75b9.click" /></path><path d="M27.13,25.23c3.12,0.59,6.24,0.7,9.37,0.33c14.84-0.92,34.92-2.5,48.11-3.06c3.12-0.13,6.19,0.25,9.26,0.82" stroke-dasharray="66.938" stroke-dashoffset="66.938"><animate attributeName="stroke-dashoffset" values="66.938" fill="freeze" begin="75b9.click" /><animate attributeName="stroke-dashoffset" values="66.938;66.938;0" keyTimes="0;0.317;1" dur="0.736s" fill="freeze" begin="0s;75b9.click" /></path><path d="M29.74,26.25c0.88,0.88,1.05,2.33,0.98,4.12c-1.23,32.5-4.48,47.5-16.17,64.09" stroke-dasharray="71.549" stroke-dashoffset="71.549"><animate attributeName="stroke-dashoffset" values="71.549" fill="freeze" begin="75b9.click" /><animate attributeName="stroke-dashoffset" values="71.549;71.549;0" keyTimes="0;0.578;1" dur="1.274s" fill="freeze" begin="0s;75b9.click" /></path><path d="M11.25,36.75C15.13,38.51,21.03,43.26,22,46" stroke-dasharray="14.402" stroke-dashoffset="14.402"><animate attributeName="stroke-dashoffset" values="14.402" fill="freeze" begin="75b9.click" /><animate attributeName="stroke-dashoffset" values="14.402;14.402;0" keyTimes="0;0.816;1" dur="1.562s" fill="freeze" begin="0s;75b9.click" /></path><path d="M9.92,66.54c1.53,0.67,2.76,0.22,4.1-0.59c5.45-3.28,7.6-4.62,11.72-7.45" stroke-dasharray="18.228" stroke-dashoffset="18.228"><animate attributeName="stroke-dashoffset" values="18.228" fill="freeze" begin="75b9.click" /><animate attributeName="stroke-dashoffset" values="18.228;18.228;0" keyTimes="0;0.896;1" dur="1.744s" fill="freeze" begin="0s;75b9.click" /></path><path d="M58.91,29.25c0.06,0.82-0.19,2.17-0.63,3.29C55.25,40.25,48,51.75,34.73,63.5" stroke-dasharray="42.601" stroke-dashoffset="42.601"><animate attributeName="stroke-dashoffset" values="42.601" fill="freeze" begin="75b9.click" /><animate attributeName="stroke-dashoffset" values="42.601;42.601;0" keyTimes="0;0.804;1" dur="2.17s" fill="freeze" begin="0s;75b9.click" /></path><path d="M60.62,32.83c3.88,4.92,13.9,14.97,21.45,21.61c3.37,3.02,7.19,5.22,11.45,6.61" stroke-dasharray="43.794" stroke-dashoffset="43.794"><animate attributeName="stroke-dashoffset" values="43.794" fill="freeze" begin="75b9.click" /><animate attributeName="stroke-dashoffset" values="43.794;43.794;0" keyTimes="0;0.832;1" dur="2.608s" fill="freeze" begin="0s;75b9.click" /></path><path d="M64.59,49c0,1.12-0.32,1.85-0.88,2.55c-4.08,5.08-12.07,13.12-25.25,19.25" stroke-dasharray="34.783" stroke-dashoffset="34.783"><animate attributeName="stroke-dashoffset" values="34.783" fill="freeze" begin="75b9.click" /><animate attributeName="stroke-dashoffset" values="34.783;34.783;0" keyTimes="0;0.882;1" dur="2.956s" fill="freeze" begin="0s;75b9.click" /></path><path d="M74.61,60.63c-0.03,1.38-0.52,2.46-1.48,3.25c-5.44,5.24-15.89,12.74-35.01,20.11" stroke-dasharray="44.313" stroke-dashoffset="44.313"><animate attributeName="stroke-dashoffset" values="44.313" fill="freeze" begin="75b9.click" /><animate attributeName="stroke-dashoffset" values="44.313;44.313;0" keyTimes="0;0.87;1" dur="3.399s" fill="freeze" begin="0s;75b9.click" /></path><path d="M84.51,72.97c0,1.28-0.63,2.52-1.56,3.46c-6.45,5.83-21.45,14.2-48.88,22.33" stroke-dasharray="57.976" stroke-dashoffset="57.976"><animate attributeName="stroke-dashoffset" values="57.976" fill="freeze" begin="75b9.click" /><animate attributeName="stroke-dashoffset" values="57.976;57.976;0" keyTimes="0;0.854;1" dur="3.979s" fill="freeze" begin="0s;75b9.click" /></path></g></svg>