<svg xmlns="http://www.w3.org/2000/svg" viewBox="0 0 109 109" id="75e2"><g fill="none" stroke="#666" stroke-width="6" stroke-linecap="round" stroke-linejoin="round"><g><g><path d="M56.81,10.88c1.09,1.09,1.26,2.49,1.26,3.65c0,0.79,0.08,4.15-0.07,8.96" /><path d="M27.38,25.98c2.79,1,6.49,0.69,9.37,0.3c15.29-2.07,32.46-3.94,45.25-4.77c3.12-0.2,6.05-0.35,9.13,0.31" /><path d="M29.49,27c1,1,1.51,2.35,1.49,3.5c-0.36,31.75-2.49,49.13-18.18,62.97" /><path d="M15.12,41c2.78,1.72,7.18,7.07,7.88,9.75" /><path d="M10.67,69.04c1.53,0.67,2.51,0.72,3.85-0.09c5.45-3.28,7.47-4.7,12.47-7.7" /></g><g p4:phon="利" xmlns:p4="http://kanjivg.tagaini.net"><g><g><path d="M60.63,33.24c0,0.89-0.61,1.83-1.24,2.4c-3.27,2.99-11.02,7.24-19.81,10.79" /></g><g><path d="M36.87,56.24c1.88,0.64,4.09,0.21,5.5-0.09c5.55-1.18,13.14-2.55,19.52-3.48c1.63-0.24,4.14-0.68,5.77-0.13" /><path d="M52.67,43.5c0.98,0.98,1.38,2.13,1.38,3.88c0,3.34,0.07,31.06,0.01,44.02c-0.02,3.11-0.04,5.37-0.06,6.23" /><path d="M53.24,55.93c-0.5,1.29-1.06,2.62-1.66,3.98c-3.59,8.1-8.87,17.12-15.69,23.4" /><path d="M57.13,62.58c4.08,2.4,7.54,7.21,9.74,10.3" /></g></g><g><path d="M75.77,40.55c0.7,0.66,1.24,1.83,1.24,3.63c0,7.44,0.04,16.94,0.04,24.82c0,2.86-0.05,5.44-0.05,6.5" /><path d="M89.61,33.07c0.72,0.68,1.28,2.18,1.28,3.99c0,10.94,0.06,50.69,0.06,55.66c0,8.77-4.88,1.12-5.98,0.19" /></g></g></g></g><g fill="none" stroke="#000" stroke-width="3" stroke-linecap="round" stroke-linejoin="round"><path d="M56.81,10.88c1.09,1.09,1.26,2.49,1.26,3.65c0,0.79,0.08,4.15-0.07,8.96" stroke-dasharray="12.933" stroke-dashoffset="12.933"><animate attributeName="stroke-dashoffset" values="12.933;12.933;0" dur="0.259s" fill="freeze" begin="0s;75e2.click" /></path><path d="M27.38,25.98c2.79,1,6.49,0.69,9.37,0.3c15.29-2.07,32.46-3.94,45.25-4.77c3.12-0.2,6.05-0.35,9.13,0.31" stroke-dasharray="64.136" stroke-dashoffset="64.136"><animate attributeName="stroke-dashoffset" values="64.136" fill="freeze" begin="75e2.click" /><animate attributeName="stroke-dashoffset" values="64.136;64.136;0" keyTimes="0;0.35;1" dur="0.741s" fill="freeze" begin="0s;75e2.click" /></path><path d="M29.49,27c1,1,1.51,2.35,1.49,3.5c-0.36,31.75-2.49,49.13-18.18,62.97" stroke-dasharray="71.688" stroke-dashoffset="71.688"><animate attributeName="stroke-dashoffset" values="71.688" fill="freeze" begin="75e2.click" /><animate attributeName="stroke-dashoffset" values="71.688;71.688;0" keyTimes="0;0.579;1" dur="1.28s" fill="freeze" begin="0s;75e2.click" /></path><path d="M15.12,41c2.78,1.72,7.18,7.07,7.88,9.75" stroke-dasharray="12.709" stroke-dashoffset="12.709"><animate attributeName="stroke-dashoffset" values="12.709" fill="freeze" begin="75e2.click" /><animate attributeName="stroke-dashoffset" values="12.709;12.709;0" keyTimes="0;0.834;1" dur="1.534s" fill="freeze" begin="0s;75e2.click" /></path><path d="M10.67,69.04c1.53,0.67,2.51,0.72,3.85-0.09c5.45-3.28,7.47-4.7,12.47-7.7" stroke-dasharray="18.706" stroke-dashoffset="18.706"><animate attributeName="stroke-dashoffset" values="18.706" fill="freeze" begin="75e2.click" /><animate attributeName="stroke-dashoffset" values="18.706;18.706;0" keyTimes="0;0.891;1" dur="1.721s" fill="freeze" begin="0s;75e2.click" /></path><path d="M60.63,33.24c0,0.89-0.61,1.83-1.24,2.4c-3.27,2.99-11.02,7.24-19.81,10.79" stroke-dasharray="25.418" stroke-dashoffset="25.418"><animate attributeName="stroke-dashoffset" values="25.418" fill="freeze" begin="75e2.click" /><animate attributeName="stroke-dashoffset" values="25.418;25.418;0" keyTimes="0;0.871;1" dur="1.975s" fill="freeze" begin="0s;75e2.click" /></path><path d="M36.87,56.24c1.88,0.64,4.09,0.21,5.5-0.09c5.55-1.18,13.14-2.55,19.52-3.48c1.63-0.24,4.14-0.68,5.77-0.13" stroke-dasharray="31.22" stroke-dashoffset="31.22"><animate attributeName="stroke-dashoffset" values="31.22" fill="freeze" begin="75e2.click" /><animate attributeName="stroke-dashoffset" values="31.22;31.22;0" keyTimes="0;0.864;1" dur="2.287s" fill="freeze" begin="0s;75e2.click" /></path><path d="M52.67,43.5c0.98,0.98,1.38,2.13,1.38,3.88c0,3.34,0.07,31.06,0.01,44.02c-0.02,3.11-0.04,5.37-0.06,6.23" stroke-dasharray="54.492" stroke-dashoffset="54.492"><animate attributeName="stroke-dashoffset" values="54.492" fill="freeze" begin="75e2.click" /><animate attributeName="stroke-dashoffset" values="54.492;54.492;0" keyTimes="0;0.808;1" dur="2.832s" fill="freeze" begin="0s;75e2.click" /></path><path d="M53.24,55.93c-0.5,1.29-1.06,2.62-1.66,3.98c-3.59,8.1-8.87,17.12-15.69,23.4" stroke-dasharray="32.675" stroke-dashoffset="32.675"><animate attributeName="stroke-dashoffset" values="32.675" fill="freeze" begin="75e2.click" /><animate attributeName="stroke-dashoffset" values="32.675;32.675;0" keyTimes="0;0.896;1" dur="3.159s" fill="freeze" begin="0s;75e2.click" /></path><path d="M57.13,62.58c4.08,2.4,7.54,7.21,9.74,10.3" stroke-dasharray="14.278" stroke-dashoffset="14.278"><animate attributeName="stroke-dashoffset" values="14.278" fill="freeze" begin="75e2.click" /><animate attributeName="stroke-dashoffset" values="14.278;14.278;0" keyTimes="0;0.917;1" dur="3.445s" fill="freeze" begin="0s;75e2.click" /></path><path d="M75.77,40.55c0.7,0.66,1.24,1.83,1.24,3.63c0,7.44,0.04,16.94,0.04,24.82c0,2.86-0.05,5.44-0.05,6.5" stroke-dasharray="35.263" stroke-dashoffset="35.263"><animate attributeName="stroke-dashoffset" values="35.263" fill="freeze" begin="75e2.click" /><animate attributeName="stroke-dashoffset" values="35.263;35.263;0" keyTimes="0;0.907;1" dur="3.798s" fill="freeze" begin="0s;75e2.click" /></path><path d="M89.61,33.07c0.72,0.68,1.28,2.18,1.28,3.99c0,10.94,0.06,50.69,0.06,55.66c0,8.77-4.88,1.12-5.98,0.19" stroke-dasharray="70.87" stroke-dashoffset="70.87"><animate attributeName="stroke-dashoffset" values="70.87" fill="freeze" begin="75e2.click" /><animate attributeName="stroke-dashoffset" values="70.87;70.87;0" keyTimes="0;0.877;1" dur="4.331s" fill="freeze" begin="0s;75e2.click" /></path></g></svg>