<svg xmlns="http://www.w3.org/2000/svg" viewBox="0 0 109 109" id="7601"><g fill="none" stroke="#666" stroke-width="6" stroke-linecap="round" stroke-linejoin="round"><g><g><path d="M56.41,10.13c0.7,0.36,2.32,2.12,2.32,3.37c0,0.72,0.07,4.3-0.07,8.74" /><path d="M27.13,23.73c1.52,0.54,4.3,0.63,5.82,0.54c15.8-0.91,38.05-2.52,52.11-3.23c2.53-0.13,4.05,0.26,5.31,0.53" /><path d="M30.99,25.5c0,0.85,0,1.68-0.01,2.5c-0.18,33.62-4.02,46.72-16.68,63.97" /><path d="M15.25,35.25c2.56,1.94,6.61,7.98,7.25,11" /><path d="M10.67,63.07c1.44,0.61,1.88,0.43,3.15-0.31c5.11-3,8.56-4.42,12.43-7.01" /></g><g><g><g><path d="M61.14,28.25c0.49,0.4,1.3,1.97,1.3,2.77c0,2.96-0.16,4.91-0.06,7.42" /><path d="M39.96,39.91c1.14,0.06,3.76,0.39,4.87,0.31c8.99-0.66,27.27-2.35,38.67-2.52c1.89-0.03,2.85,0.03,4.25,0.4" /></g><g><g><path d="M50.61,44.09c0,0.51,0.03,0.92-0.1,1.53c-0.71,3.2-7.46,13.86-13.25,18.58" /><path d="M49.55,53.36c2.7,0.99,6.16,3.63,7.48,6.13" /></g><g><path d="M77.35,41.98c0,0.42,0.03,0.76-0.08,1.27c-0.54,2.64-5.67,11.44-10.06,15.35" /><path d="M76.11,50.84c4.08,1.54,9.3,5.65,11.29,9.54" /></g></g></g><g><path d="M32.5,75.17c1.43,0.45,4.05,0.56,5.48,0.45C56.15,74.15,76.47,73.38,89,73.2c2.38-0.04,3.81,0.21,5,0.44" /><path d="M61.14,63.83c0.67,0.49,1.71,2.17,1.71,4.6c0,0.98-0.09,24.5-0.22,30.57" /></g></g></g></g><g fill="none" stroke="#000" stroke-width="3" stroke-linecap="round" stroke-linejoin="round"><path d="M56.41,10.13c0.7,0.36,2.32,2.12,2.32,3.37c0,0.72,0.07,4.3-0.07,8.74" stroke-dasharray="12.96" stroke-dashoffset="12.96"><animate attributeName="stroke-dashoffset" values="12.96;12.96;0" dur="0.259s" fill="freeze" begin="0s;7601.click" /></path><path d="M27.13,23.73c1.52,0.54,4.3,0.63,5.82,0.54c15.8-0.91,38.05-2.52,52.11-3.23c2.53-0.13,4.05,0.26,5.31,0.53" stroke-dasharray="63.442" stroke-dashoffset="63.442"><animate attributeName="stroke-dashoffset" values="63.442" fill="freeze" begin="7601.click" /><animate attributeName="stroke-dashoffset" values="63.442;63.442;0" keyTimes="0;0.352;1" dur="0.736s" fill="freeze" begin="0s;7601.click" /></path><path d="M30.99,25.5c0,0.85,0,1.68-0.01,2.5c-0.18,33.62-4.02,46.72-16.68,63.97" stroke-dasharray="70.026" stroke-dashoffset="70.026"><animate attributeName="stroke-dashoffset" values="70.026" fill="freeze" begin="7601.click" /><animate attributeName="stroke-dashoffset" values="70.026;70.026;0" keyTimes="0;0.583;1" dur="1.263s" fill="freeze" begin="0s;7601.click" /></path><path d="M15.25,35.25c2.56,1.94,6.61,7.98,7.25,11" stroke-dasharray="13.335" stroke-dashoffset="13.335"><animate attributeName="stroke-dashoffset" values="13.335" fill="freeze" begin="7601.click" /><animate attributeName="stroke-dashoffset" values="13.335;13.335;0" keyTimes="0;0.825;1" dur="1.53s" fill="freeze" begin="0s;7601.click" /></path><path d="M10.67,63.07c1.44,0.61,1.88,0.43,3.15-0.31c5.11-3,8.56-4.42,12.43-7.01" stroke-dasharray="17.633" stroke-dashoffset="17.633"><animate attributeName="stroke-dashoffset" values="17.633" fill="freeze" begin="7601.click" /><animate attributeName="stroke-dashoffset" values="17.633;17.633;0" keyTimes="0;0.897;1" dur="1.706s" fill="freeze" begin="0s;7601.click" /></path><path d="M61.14,28.25c0.49,0.4,1.3,1.97,1.3,2.77c0,2.96-0.16,4.91-0.06,7.42" stroke-dasharray="10.537" stroke-dashoffset="10.537"><animate attributeName="stroke-dashoffset" values="10.537" fill="freeze" begin="7601.click" /><animate attributeName="stroke-dashoffset" values="10.537;10.537;0" keyTimes="0;0.89;1" dur="1.917s" fill="freeze" begin="0s;7601.click" /></path><path d="M39.96,39.91c1.14,0.06,3.76,0.39,4.87,0.31c8.99-0.66,27.27-2.35,38.67-2.52c1.89-0.03,2.85,0.03,4.25,0.4" stroke-dasharray="47.927" stroke-dashoffset="47.927"><animate attributeName="stroke-dashoffset" values="47.927" fill="freeze" begin="7601.click" /><animate attributeName="stroke-dashoffset" values="47.927;47.927;0" keyTimes="0;0.8;1" dur="2.396s" fill="freeze" begin="0s;7601.click" /></path><path d="M50.61,44.09c0,0.51,0.03,0.92-0.1,1.53c-0.71,3.2-7.46,13.86-13.25,18.58" stroke-dasharray="24.568" stroke-dashoffset="24.568"><animate attributeName="stroke-dashoffset" values="24.568" fill="freeze" begin="7601.click" /><animate attributeName="stroke-dashoffset" values="24.568;24.568;0" keyTimes="0;0.907;1" dur="2.642s" fill="freeze" begin="0s;7601.click" /></path><path d="M49.55,53.36c2.7,0.99,6.16,3.63,7.48,6.13" stroke-dasharray="9.844" stroke-dashoffset="9.844"><animate attributeName="stroke-dashoffset" values="9.844" fill="freeze" begin="7601.click" /><animate attributeName="stroke-dashoffset" values="9.844;9.844;0" keyTimes="0;0.931;1" dur="2.839s" fill="freeze" begin="0s;7601.click" /></path><path d="M77.35,41.98c0,0.42,0.03,0.76-0.08,1.27c-0.54,2.64-5.67,11.44-10.06,15.35" stroke-dasharray="19.786" stroke-dashoffset="19.786"><animate attributeName="stroke-dashoffset" values="19.786" fill="freeze" begin="7601.click" /><animate attributeName="stroke-dashoffset" values="19.786;19.786;0" keyTimes="0;0.935;1" dur="3.037s" fill="freeze" begin="0s;7601.click" /></path><path d="M76.11,50.84c4.08,1.54,9.3,5.65,11.29,9.54" stroke-dasharray="15.049" stroke-dashoffset="15.049"><animate attributeName="stroke-dashoffset" values="15.049" fill="freeze" begin="7601.click" /><animate attributeName="stroke-dashoffset" values="15.049;15.049;0" keyTimes="0;0.953;1" dur="3.187s" fill="freeze" begin="0s;7601.click" /></path><path d="M32.5,75.17c1.43,0.45,4.05,0.56,5.48,0.45C56.15,74.15,76.47,73.38,89,73.2c2.38-0.04,3.81,0.21,5,0.44" stroke-dasharray="61.639" stroke-dashoffset="61.639"><animate attributeName="stroke-dashoffset" values="61.639" fill="freeze" begin="7601.click" /><animate attributeName="stroke-dashoffset" values="61.639;61.639;0" keyTimes="0;0.873;1" dur="3.65s" fill="freeze" begin="0s;7601.click" /></path><path d="M61.14,63.83c0.67,0.49,1.71,2.17,1.71,4.6c0,0.98-0.09,24.5-0.22,30.57" stroke-dasharray="35.623" stroke-dashoffset="35.623"><animate attributeName="stroke-dashoffset" values="35.623" fill="freeze" begin="7601.click" /><animate attributeName="stroke-dashoffset" values="35.623;35.623;0" keyTimes="0;0.911;1" dur="4.006s" fill="freeze" begin="0s;7601.click" /></path></g></svg>