<svg xmlns="http://www.w3.org/2000/svg" viewBox="0 0 109 109" id="767c"><g fill="none" stroke="#666" stroke-width="6" stroke-linecap="round" stroke-linejoin="round"><g><g><g><path d="M29.15,15.18c1.39,0.62,1.93,0.5,4.18,0.21c5.86-0.76,6.63-0.94,12.89-1.92c3.71-0.58,4.97,0.76,3.27,3.85C42.5,30,31.5,41.75,14,51" /><path d="M22.75,25c2.62,1.63,6.77,6.7,7.42,9.24" /></g><g><path d="M72.16,10.64c0.08,0.79-0.05,1.01-0.5,1.7c-1.47,2.31-4.06,6.28-8.3,8.82" /><path d="M52.47,17.21c3.78,2.04,26.78,24.04,35.64,28.97c2.14,1.19,3.66,2.08,5.64,2.49" /><path d="M83.91,20.2c0.11,0.69-0.09,1.28-0.58,1.78c-1.54,2.27-4.48,5.16-9.6,8.13" /></g></g><g><g><path d="M29.12,43.99c0.71,0.88,1.37,1.14,2.27,0.98c0.9-0.16,8.08-0.78,9.88-1.27c1.8-0.49,2.31,1.17,1.76,2.47c-0.37,0.9-1.65,5.31-2.47,8.6c-0.37,1.48-0.65,2.73-0.72,3.32" /><path d="M26.75,59.44c1.79,0,10.65-1.5,11.93-1.5s2.55,0.12,3.57,0.12" /><path d="M25.84,57.72c0.54,0.65,0.46,2.42,0.11,3.45c-0.4,1.18-4.03,9.31-4.21,9.96c-0.18,0.65,0.07,2.72,1.44,1.95c1.03-0.58,13.16-2.94,16.05-3.43c2.89-0.49,3.52,0.61,3.48,2.94c-0.11,6.12-4.46,16.17-8.96,21.25c-2.66,3-4.25-0.11-5.08-1.37" /></g><g><g><g><path d="M53.99,41.8c0.51,0.7,0.88,1.85,0.87,2.59c-0.11,7.6-1.1,16.15-4.21,19.54" /></g><path d="M56.04,43.42c0.51,0.06,1.53-0.08,2.73-0.31c2.72-0.52,6.38-1.52,7.15-1.77c1.65-0.55,2.48,1.18,2.31,2.4c-0.33,2.4-1,8.96-1,11.35c0,3.92,1.33,5.72,6.76,5.72c5.27,0,6.42-1.8,6.42-5.7" /></g><g><path d="M50.5,70.86c1.06,0.24,1.19,0.61,3.32,0.24c2.12-0.37,17.38-2.83,18.84-3.2c1.46-0.37,2.64,1.42,1.99,2.69C67.93,83.68,57,92,46.5,97.17" /><path d="M52.02,78.06c3.05,0.46,17.97,12.82,28.6,17.88c1.65,0.79,2.86,1.31,4.4,1.58" /></g></g></g></g></g><g fill="none" stroke="#000" stroke-width="3" stroke-linecap="round" stroke-linejoin="round"><path d="M29.15,15.18c1.39,0.62,1.93,0.5,4.18,0.21c5.86-0.76,6.63-0.94,12.89-1.92c3.71-0.58,4.97,0.76,3.27,3.85C42.5,30,31.5,41.75,14,51" stroke-dasharray="74.313" stroke-dashoffset="74.313"><animate attributeName="stroke-dashoffset" values="74.313;74.313;0" dur="0.559s" fill="freeze" begin="0s;767c.click" /></path><path d="M22.75,25c2.62,1.63,6.77,6.7,7.42,9.24" stroke-dasharray="12.015" stroke-dashoffset="12.015"><animate attributeName="stroke-dashoffset" values="12.015" fill="freeze" begin="767c.click" /><animate attributeName="stroke-dashoffset" values="12.015;12.015;0" keyTimes="0;0.7;1" dur="0.799s" fill="freeze" begin="0s;767c.click" /></path><path d="M72.16,10.64c0.08,0.79-0.05,1.01-0.5,1.7c-1.47,2.31-4.06,6.28-8.3,8.82" stroke-dasharray="14.056" stroke-dashoffset="14.056"><animate attributeName="stroke-dashoffset" values="14.056" fill="freeze" begin="767c.click" /><animate attributeName="stroke-dashoffset" values="14.056;14.056;0" keyTimes="0;0.74;1" dur="1.08s" fill="freeze" begin="0s;767c.click" /></path><path d="M52.47,17.21c3.78,2.04,26.78,24.04,35.64,28.97c2.14,1.19,3.66,2.08,5.64,2.49" stroke-dasharray="52.17" stroke-dashoffset="52.17"><animate attributeName="stroke-dashoffset" values="52.17" fill="freeze" begin="767c.click" /><animate attributeName="stroke-dashoffset" values="52.17;52.17;0" keyTimes="0;0.674;1" dur="1.602s" fill="freeze" begin="0s;767c.click" /></path><path d="M83.91,20.2c0.11,0.69-0.09,1.28-0.58,1.78c-1.54,2.27-4.48,5.16-9.6,8.13" stroke-dasharray="14.628" stroke-dashoffset="14.628"><animate attributeName="stroke-dashoffset" values="14.628" fill="freeze" begin="767c.click" /><animate attributeName="stroke-dashoffset" values="14.628;14.628;0" keyTimes="0;0.845;1" dur="1.895s" fill="freeze" begin="0s;767c.click" /></path><path d="M29.12,43.99c0.71,0.88,1.37,1.14,2.27,0.98c0.9-0.16,8.08-0.78,9.88-1.27c1.8-0.49,2.31,1.17,1.76,2.47c-0.37,0.9-1.65,5.31-2.47,8.6c-0.37,1.48-0.65,2.73-0.72,3.32" stroke-dasharray="28.919" stroke-dashoffset="28.919"><animate attributeName="stroke-dashoffset" values="28.919" fill="freeze" begin="767c.click" /><animate attributeName="stroke-dashoffset" values="28.919;28.919;0" keyTimes="0;0.868;1" dur="2.184s" fill="freeze" begin="0s;767c.click" /></path><path d="M26.75,59.44c1.79,0,10.65-1.5,11.93-1.5s2.55,0.12,3.57,0.12" stroke-dasharray="15.601" stroke-dashoffset="15.601"><animate attributeName="stroke-dashoffset" values="15.601" fill="freeze" begin="767c.click" /><animate attributeName="stroke-dashoffset" values="15.601;15.601;0" keyTimes="0;0.933;1" dur="2.34s" fill="freeze" begin="0s;767c.click" /></path><path d="M25.84,57.72c0.54,0.65,0.46,2.42,0.11,3.45c-0.4,1.18-4.03,9.31-4.21,9.96c-0.18,0.65,0.07,2.72,1.44,1.95c1.03-0.58,13.16-2.94,16.05-3.43c2.89-0.49,3.52,0.61,3.48,2.94c-0.11,6.12-4.46,16.17-8.96,21.25c-2.66,3-4.25-0.11-5.08-1.37" stroke-dasharray="69.684" stroke-dashoffset="69.684"><animate attributeName="stroke-dashoffset" values="69.684" fill="freeze" begin="767c.click" /><animate attributeName="stroke-dashoffset" values="69.684;69.684;0" keyTimes="0;0.817;1" dur="2.864s" fill="freeze" begin="0s;767c.click" /></path><path d="M53.99,41.8c0.51,0.7,0.88,1.85,0.87,2.59c-0.11,7.6-1.1,16.15-4.21,19.54" stroke-dasharray="23.082" stroke-dashoffset="23.082"><animate attributeName="stroke-dashoffset" values="23.082" fill="freeze" begin="767c.click" /><animate attributeName="stroke-dashoffset" values="23.082;23.082;0" keyTimes="0;0.925;1" dur="3.095s" fill="freeze" begin="0s;767c.click" /></path><path d="M56.04,43.42c0.51,0.06,1.53-0.08,2.73-0.31c2.72-0.52,6.38-1.52,7.15-1.77c1.65-0.55,2.48,1.18,2.31,2.4c-0.33,2.4-1,8.96-1,11.35c0,3.92,1.33,5.72,6.76,5.72c5.27,0,6.42-1.8,6.42-5.7" stroke-dasharray="46.042" stroke-dashoffset="46.042"><animate attributeName="stroke-dashoffset" values="46.042" fill="freeze" begin="767c.click" /><animate attributeName="stroke-dashoffset" values="46.042;46.042;0" keyTimes="0;0.871;1" dur="3.555s" fill="freeze" begin="0s;767c.click" /></path><path d="M50.5,70.86c1.06,0.24,1.19,0.61,3.32,0.24c2.12-0.37,17.38-2.83,18.84-3.2c1.46-0.37,2.64,1.42,1.99,2.69C67.93,83.68,57,92,46.5,97.17" stroke-dasharray="66.014" stroke-dashoffset="66.014"><animate attributeName="stroke-dashoffset" values="66.014" fill="freeze" begin="767c.click" /><animate attributeName="stroke-dashoffset" values="66.014;66.014;0" keyTimes="0;0.878;1" dur="4.051s" fill="freeze" begin="0s;767c.click" /></path><path d="M52.02,78.06c3.05,0.46,17.97,12.82,28.6,17.88c1.65,0.79,2.86,1.31,4.4,1.58" stroke-dasharray="38.483" stroke-dashoffset="38.483"><animate attributeName="stroke-dashoffset" values="38.483" fill="freeze" begin="767c.click" /><animate attributeName="stroke-dashoffset" values="38.483;38.483;0" keyTimes="0;0.913;1" dur="4.436s" fill="freeze" begin="0s;767c.click" /></path></g></svg>