<svg xmlns="http://www.w3.org/2000/svg" viewBox="0 0 109 109" id="76d2"><g fill="none" stroke="#666" stroke-width="6" stroke-linecap="round" stroke-linejoin="round"><g><g><g><g><path d="M52.61,10.25c0.1,0.85,0.5,2.26-0.21,3.4c-4.87,7.92-15.49,22.65-36.26,32.54" /><path d="M52.25,14.36c5.71,5.54,30.29,23.63,36.59,27.69c2.14,1.38,4.88,1.97,7.01,2.36" /></g><g><path d="M37.64,39.52c0.66,0.16,3.74,0.25,4.4,0.16c6.96-0.93,14.21-1.93,22.83-2.33c1.1-0.05,2.69,0.08,3.25,0.16" /></g></g><g><path d="M32.45,48.11c0.52,0.39,1.13,1.31,1.27,1.82c1.73,6.62,2.48,10.08,3.64,15.6" /><path d="M33.91,50.08c14.84-1.83,32.84-2.95,38.86-3.45c2.2-0.18,3.53,1.59,3.21,2.67c-1.3,4.47-1.59,5.34-4.27,11.6" /><path d="M37.23,63.75c8.13-0.44,27.31-2.38,37.68-2.8" /></g></g><g><path d="M30.33,72.76c0.64,1,1.47,2.25,1.6,3.1c1.08,6.75,1.53,12.47,2.26,19.39" /><path d="M31.93,75.49c13.07-0.99,44.33-3.26,46.2-3.62s3.76,1.15,3.32,3.14s-2.36,13.18-3.31,18.62" /><path d="M47.64,76.1c0.27,0.64,0.54,1.18,0.65,1.98C49.2,84.35,49,89,48.95,94.43" /><path d="M61.83,74.36c0.42,0.64,0.85,1.57,0.79,2.41c-0.12,6.48-0.03,9.73-0.03,17.2" /><path d="M15.67,95.75c1.73,0.62,4.91,0.72,6.64,0.62c18.02-1.03,43.21-2.86,66.46-2.5c2.89,0.04,4.62,0.29,6.06,0.6" /></g></g></g><g fill="none" stroke="#000" stroke-width="3" stroke-linecap="round" stroke-linejoin="round"><path d="M52.61,10.25c0.1,0.85,0.5,2.26-0.21,3.4c-4.87,7.92-15.49,22.65-36.26,32.54" stroke-dasharray="52.902" stroke-dashoffset="52.902"><animate attributeName="stroke-dashoffset" values="52.902;52.902;0" dur="0.529s" fill="freeze" begin="0s;76d2.click" /></path><path d="M52.25,14.36c5.71,5.54,30.29,23.63,36.59,27.69c2.14,1.38,4.88,1.97,7.01,2.36" stroke-dasharray="53.358" stroke-dashoffset="53.358"><animate attributeName="stroke-dashoffset" values="53.358" fill="freeze" begin="76d2.click" /><animate attributeName="stroke-dashoffset" values="53.358;53.358;0" keyTimes="0;0.498;1" dur="1.063s" fill="freeze" begin="0s;76d2.click" /></path><path d="M37.64,39.52c0.66,0.16,3.74,0.25,4.4,0.16c6.96-0.93,14.21-1.93,22.83-2.33c1.1-0.05,2.69,0.08,3.25,0.16" stroke-dasharray="30.625" stroke-dashoffset="30.625"><animate attributeName="stroke-dashoffset" values="30.625" fill="freeze" begin="76d2.click" /><animate attributeName="stroke-dashoffset" values="30.625;30.625;0" keyTimes="0;0.776;1" dur="1.369s" fill="freeze" begin="0s;76d2.click" /></path><path d="M32.45,48.11c0.52,0.39,1.13,1.31,1.27,1.82c1.73,6.62,2.48,10.08,3.64,15.6" stroke-dasharray="18.269" stroke-dashoffset="18.269"><animate attributeName="stroke-dashoffset" values="18.269" fill="freeze" begin="76d2.click" /><animate attributeName="stroke-dashoffset" values="18.269;18.269;0" keyTimes="0;0.882;1" dur="1.552s" fill="freeze" begin="0s;76d2.click" /></path><path d="M33.91,50.08c14.84-1.83,32.84-2.95,38.86-3.45c2.2-0.18,3.53,1.59,3.21,2.67c-1.3,4.47-1.59,5.34-4.27,11.6" stroke-dasharray="56.183" stroke-dashoffset="56.183"><animate attributeName="stroke-dashoffset" values="56.183" fill="freeze" begin="76d2.click" /><animate attributeName="stroke-dashoffset" values="56.183;56.183;0" keyTimes="0;0.734;1" dur="2.114s" fill="freeze" begin="0s;76d2.click" /></path><path d="M37.23,63.75c8.13-0.44,27.31-2.38,37.68-2.8" stroke-dasharray="37.787" stroke-dashoffset="37.787"><animate attributeName="stroke-dashoffset" values="37.787" fill="freeze" begin="76d2.click" /><animate attributeName="stroke-dashoffset" values="37.787;37.787;0" keyTimes="0;0.848;1" dur="2.492s" fill="freeze" begin="0s;76d2.click" /></path><path d="M30.33,72.76c0.64,1,1.47,2.25,1.6,3.1c1.08,6.75,1.53,12.47,2.26,19.39" stroke-dasharray="23.034" stroke-dashoffset="23.034"><animate attributeName="stroke-dashoffset" values="23.034" fill="freeze" begin="76d2.click" /><animate attributeName="stroke-dashoffset" values="23.034;23.034;0" keyTimes="0;0.916;1" dur="2.722s" fill="freeze" begin="0s;76d2.click" /></path><path d="M31.93,75.49c13.07-0.99,44.33-3.26,46.2-3.62s3.76,1.15,3.32,3.14s-2.36,13.18-3.31,18.62" stroke-dasharray="70.675" stroke-dashoffset="70.675"><animate attributeName="stroke-dashoffset" values="70.675" fill="freeze" begin="76d2.click" /><animate attributeName="stroke-dashoffset" values="70.675;70.675;0" keyTimes="0;0.837;1" dur="3.253s" fill="freeze" begin="0s;76d2.click" /></path><path d="M47.64,76.1c0.27,0.64,0.54,1.18,0.65,1.98C49.2,84.35,49,89,48.95,94.43" stroke-dasharray="18.477" stroke-dashoffset="18.477"><animate attributeName="stroke-dashoffset" values="18.477" fill="freeze" begin="76d2.click" /><animate attributeName="stroke-dashoffset" values="18.477;18.477;0" keyTimes="0;0.946;1" dur="3.438s" fill="freeze" begin="0s;76d2.click" /></path><path d="M61.83,74.36c0.42,0.64,0.85,1.57,0.79,2.41c-0.12,6.48-0.03,9.73-0.03,17.2" stroke-dasharray="19.78" stroke-dashoffset="19.78"><animate attributeName="stroke-dashoffset" values="19.78" fill="freeze" begin="76d2.click" /><animate attributeName="stroke-dashoffset" values="19.78;19.78;0" keyTimes="0;0.946;1" dur="3.636s" fill="freeze" begin="0s;76d2.click" /></path><path d="M15.67,95.75c1.73,0.62,4.91,0.72,6.64,0.62c18.02-1.03,43.21-2.86,66.46-2.5c2.89,0.04,4.62,0.29,6.06,0.6" stroke-dasharray="79.327" stroke-dashoffset="79.327"><animate attributeName="stroke-dashoffset" values="79.327" fill="freeze" begin="76d2.click" /><animate attributeName="stroke-dashoffset" values="79.327;79.327;0" keyTimes="0;0.859;1" dur="4.232s" fill="freeze" begin="0s;76d2.click" /></path></g></svg>