<svg xmlns="http://www.w3.org/2000/svg" viewBox="0 0 109 109" id="76e7"><g fill="none" stroke="#666" stroke-width="6" stroke-linecap="round" stroke-linejoin="round"><g><g><path d="M51.52,10.08c0.98,0.92,1.76,1.99,1.76,5.02c0,5.9-0.02,6.69-0.02,11.65" /><path d="M54.85,18.77C60.97,18,69.72,17,75.93,16.39c2.04-0.2,3.29,0.18,4.32,0.37" /><path d="M28.36,27.18c0.66,0.58,0.78,3.74,0.73,5.82c-0.59,23-4.24,45.89-15.34,59.75" /><path d="M29.24,28.74c1.16,0.19,3.25,0.43,5.14,0.28C47,28,69.75,25,81.2,24.84c12.07-0.17,3.55,5.16,0.55,7.28" /><g><g><path d="M36.25,38.19c0.79,0.37,2.75,0.42,3.55,0.37c7.95-0.56,24.58-2.07,33.17-2.97c1.32-0.14,2.12,0.18,2.78,0.36" /></g><path d="M51,29.93c0.62,0.45,1.44,2.25,1.44,2.89c0,5.06-0.11,4.72-0.11,6.97c0,6.72,3.43,6.21,12.27,6.21c3.29,0,12.07,0,14.9-0.9" /></g></g><g><path d="M38.31,54.04c0.27,0.37,0.77,1.62,0.92,2.08c1.19,3.77,2.26,11.19,2.96,18.13" /><path d="M40.06,55.11C51.5,54,69.71,52.1,76.78,52.22c1.72,0.03,2.77,1.28,2.77,2.47c0,3.74-1.05,10.81-2.89,17.73" /><path d="M58.32,53.5c-0.02,0.29-0.03,0.8-0.03,1.46c-0.03,4.37,0.17,15.6,0.17,17.18" /><path d="M41.75,63.28C44.83,63.1,74.88,62,77.42,62" /><path d="M42.68,72.77c6.8,0,24.17-1.84,33.56-1.94" /></g><g><path d="M35.71,80.02c0.59,0.79,1.35,1.64,1.48,2.31c0.99,5.31,0.56,6.92,1.48,13.95" /><path d="M37.65,81.69c10.58-1.1,39.62-4.28,43.46-4.14c1.66,0.06,2.64,0.2,2.42,2.29c-0.32,3.08-1.94,11.25-3.17,15.4" /><path d="M51.94,81.12c0.24,0.51,0.6,0.92,0.6,1.56c0,4.53,0.23,9,0.23,13.16" /><path d="M65.78,79.99c0.45,0.6,0.92,1.64,0.81,2.42c-0.67,4.52-0.9,8.8-1.18,12.61" /><path d="M22.34,97.16c1.33,0.41,3.78,0.47,5.11,0.41c13.89-0.68,40.45-2.31,66.01-2.42c2.22-0.01,3.56,0.19,4.67,0.4" /></g></g></g><g fill="none" stroke="#000" stroke-width="3" stroke-linecap="round" stroke-linejoin="round"><path d="M51.52,10.08c0.98,0.92,1.76,1.99,1.76,5.02c0,5.9-0.02,6.69-0.02,11.65" stroke-dasharray="17.154" stroke-dashoffset="17.154"><animate attributeName="stroke-dashoffset" values="17.154;17.154;0" dur="0.172s" fill="freeze" begin="0s;76e7.click" /></path><path d="M54.85,18.77C60.97,18,69.72,17,75.93,16.39c2.04-0.2,3.29,0.18,4.32,0.37" stroke-dasharray="25.573" stroke-dashoffset="25.573"><animate attributeName="stroke-dashoffset" values="25.573" fill="freeze" begin="76e7.click" /><animate attributeName="stroke-dashoffset" values="25.573;25.573;0" keyTimes="0;0.402;1" dur="0.428s" fill="freeze" begin="0s;76e7.click" /></path><path d="M28.36,27.18c0.66,0.58,0.78,3.74,0.73,5.82c-0.59,23-4.24,45.89-15.34,59.75" stroke-dasharray="68.633" stroke-dashoffset="68.633"><animate attributeName="stroke-dashoffset" values="68.633" fill="freeze" begin="76e7.click" /><animate attributeName="stroke-dashoffset" values="68.633;68.633;0" keyTimes="0;0.453;1" dur="0.944s" fill="freeze" begin="0s;76e7.click" /></path><path d="M29.24,28.74c1.16,0.19,3.25,0.43,5.14,0.28C47,28,69.75,25,81.2,24.84c12.07-0.17,3.55,5.16,0.55,7.28" stroke-dasharray="67.281" stroke-dashoffset="67.281"><animate attributeName="stroke-dashoffset" values="67.281" fill="freeze" begin="76e7.click" /><animate attributeName="stroke-dashoffset" values="67.281;67.281;0" keyTimes="0;0.651;1" dur="1.45s" fill="freeze" begin="0s;76e7.click" /></path><path d="M36.25,38.19c0.79,0.37,2.75,0.42,3.55,0.37c7.95-0.56,24.58-2.07,33.17-2.97c1.32-0.14,2.12,0.18,2.78,0.36" stroke-dasharray="39.723" stroke-dashoffset="39.723"><animate attributeName="stroke-dashoffset" values="39.723" fill="freeze" begin="76e7.click" /><animate attributeName="stroke-dashoffset" values="39.723;39.723;0" keyTimes="0;0.785;1" dur="1.847s" fill="freeze" begin="0s;76e7.click" /></path><path d="M51,29.93c0.62,0.45,1.44,2.25,1.44,2.89c0,5.06-0.11,4.72-0.11,6.97c0,6.72,3.43,6.21,12.27,6.21c3.29,0,12.07,0,14.9-0.9" stroke-dasharray="41.51" stroke-dashoffset="41.51"><animate attributeName="stroke-dashoffset" values="41.51" fill="freeze" begin="76e7.click" /><animate attributeName="stroke-dashoffset" values="41.51;41.51;0" keyTimes="0;0.817;1" dur="2.262s" fill="freeze" begin="0s;76e7.click" /></path><path d="M38.31,54.04c0.27,0.37,0.77,1.62,0.92,2.08c1.19,3.77,2.26,11.19,2.96,18.13" stroke-dasharray="20.673" stroke-dashoffset="20.673"><animate attributeName="stroke-dashoffset" values="20.673" fill="freeze" begin="76e7.click" /><animate attributeName="stroke-dashoffset" values="20.673;20.673;0" keyTimes="0;0.916;1" dur="2.469s" fill="freeze" begin="0s;76e7.click" /></path><path d="M40.06,55.11C51.5,54,69.71,52.1,76.78,52.22c1.72,0.03,2.77,1.28,2.77,2.47c0,3.74-1.05,10.81-2.89,17.73" stroke-dasharray="58.959" stroke-dashoffset="58.959"><animate attributeName="stroke-dashoffset" values="58.959" fill="freeze" begin="76e7.click" /><animate attributeName="stroke-dashoffset" values="58.959;58.959;0" keyTimes="0;0.807;1" dur="3.059s" fill="freeze" begin="0s;76e7.click" /></path><path d="M58.32,53.5c-0.02,0.29-0.03,0.8-0.03,1.46c-0.03,4.37,0.17,15.6,0.17,17.18" stroke-dasharray="18.643" stroke-dashoffset="18.643"><animate attributeName="stroke-dashoffset" values="18.643" fill="freeze" begin="76e7.click" /><animate attributeName="stroke-dashoffset" values="18.643;18.643;0" keyTimes="0;0.943;1" dur="3.245s" fill="freeze" begin="0s;76e7.click" /></path><path d="M41.75,63.28C44.83,63.1,74.88,62,77.42,62" stroke-dasharray="35.694" stroke-dashoffset="35.694"><animate attributeName="stroke-dashoffset" values="35.694" fill="freeze" begin="76e7.click" /><animate attributeName="stroke-dashoffset" values="35.694;35.694;0" keyTimes="0;0.901;1" dur="3.602s" fill="freeze" begin="0s;76e7.click" /></path><path d="M42.68,72.77c6.8,0,24.17-1.84,33.56-1.94" stroke-dasharray="33.622" stroke-dashoffset="33.622"><animate attributeName="stroke-dashoffset" values="33.622" fill="freeze" begin="76e7.click" /><animate attributeName="stroke-dashoffset" values="33.622;33.622;0" keyTimes="0;0.915;1" dur="3.938s" fill="freeze" begin="0s;76e7.click" /></path><path d="M35.71,80.02c0.59,0.79,1.35,1.64,1.48,2.31c0.99,5.31,0.56,6.92,1.48,13.95" stroke-dasharray="16.8" stroke-dashoffset="16.8"><animate attributeName="stroke-dashoffset" values="16.8" fill="freeze" begin="76e7.click" /><animate attributeName="stroke-dashoffset" values="16.8;16.8;0" keyTimes="0;0.959;1" dur="4.106s" fill="freeze" begin="0s;76e7.click" /></path><path d="M37.65,81.69c10.58-1.1,39.62-4.28,43.46-4.14c1.66,0.06,2.64,0.2,2.42,2.29c-0.32,3.08-1.94,11.25-3.17,15.4" stroke-dasharray="63.448" stroke-dashoffset="63.448"><animate attributeName="stroke-dashoffset" values="63.448" fill="freeze" begin="76e7.click" /><animate attributeName="stroke-dashoffset" values="63.448;63.448;0" keyTimes="0;0.896;1" dur="4.583s" fill="freeze" begin="0s;76e7.click" /></path><path d="M51.94,81.12c0.24,0.51,0.6,0.92,0.6,1.56c0,4.53,0.23,9,0.23,13.16" stroke-dasharray="14.855" stroke-dashoffset="14.855"><animate attributeName="stroke-dashoffset" values="14.855" fill="freeze" begin="76e7.click" /><animate attributeName="stroke-dashoffset" values="14.855;14.855;0" keyTimes="0;0.939;1" dur="4.88s" fill="freeze" begin="0s;76e7.click" /></path><path d="M65.78,79.99c0.45,0.6,0.92,1.64,0.81,2.42c-0.67,4.52-0.9,8.8-1.18,12.61" stroke-dasharray="15.276" stroke-dashoffset="15.276"><animate attributeName="stroke-dashoffset" values="15.276" fill="freeze" begin="76e7.click" /><animate attributeName="stroke-dashoffset" values="15.276;15.276;0" keyTimes="0;0.97;1" dur="5.033s" fill="freeze" begin="0s;76e7.click" /></path><path d="M22.34,97.16c1.33,0.41,3.78,0.47,5.11,0.41c13.89-0.68,40.45-2.31,66.01-2.42c2.22-0.01,3.56,0.19,4.67,0.4" stroke-dasharray="75.902" stroke-dashoffset="75.902"><animate attributeName="stroke-dashoffset" values="75.902" fill="freeze" begin="76e7.click" /><animate attributeName="stroke-dashoffset" values="75.902;75.902;0" keyTimes="0;0.898;1" dur="5.604s" fill="freeze" begin="0s;76e7.click" /></path></g></svg>