<svg xmlns="http://www.w3.org/2000/svg" viewBox="0 0 109 109" id="775a"><g fill="none" stroke="#666" stroke-width="6" stroke-linecap="round" stroke-linejoin="round"><g><g><path d="M13.38,19.16c0.28,1.54,0.69,2.72,0.69,4.71c0,2-0.09,65.1,0,67.11" /><path d="M14.54,20.44c1.58-0.02,13.11-1.5,14.55-1.59c1.2-0.08,2.04,1.68,2.04,3.54c0,6.84-0.56,52.05-0.56,67.65" /><path d="M14.51,43.11c4.36-0.52,11.87-1.15,15.41-0.89" /><path d="M14.64,62.69c4.18-0.24,10.26-1.09,15.84-0.65" /><path d="M14.02,87.32c4.29-0.29,11.06-1.02,16.49-0.99" /></g><g><g><path d="M42.58,17.41c1.05,0.58,2.99,0.67,4.04,0.58c10.06-0.91,29-1.65,43.32-2.44c1.75-0.1,2.81,0.28,3.69,0.56" /><path d="M45.95,18.18c0.03,1.75,0,4.51-0.06,7.03C45.22,53.26,45.25,78,34.75,93.07" /></g><g><g><path d="M54.45,35.85c0.65,0.25,1.85,0.31,2.5,0.25c8.37-0.84,21.3-2.35,31.42-2.97c1.09-0.07,1.74,0.12,2.28,0.24" /><path d="M70.1,22.85c0.1,0.32,1.43,1.66,1.43,3.68c0,13.04-0.19,12.12-0.19,26.72" /><path d="M51.99,53.85c1.07,0.5,3.02,0.57,4.09,0.5c8.61-0.6,25.77-2.56,34.81-2.87c1.78-0.06,2.84,0.24,3.73,0.49" /></g><g><path d="M53.63,74.26c0.7,0.17,1.97,0.22,2.67,0.17c8.95-0.58,23.56-1.82,32.57-1.97c1.16-0.02,1.86,0.08,2.44,0.17" /><path d="M70.62,59.01c0.08,0.4,1.24,2.08,1.24,4.63c0,16.41-0.18,14.07-0.18,28.67" /><path d="M45.37,94.02c1.07,0.5,3.02,0.61,4.09,0.5c13.21-1.4,32.95-1.72,44.76-2.37c1.78-0.1,2.85,0.24,3.73,0.49" /></g></g></g></g></g><g fill="none" stroke="#000" stroke-width="3" stroke-linecap="round" stroke-linejoin="round"><path d="M13.38,19.16c0.28,1.54,0.69,2.72,0.69,4.71c0,2-0.09,65.1,0,67.11" stroke-dasharray="71.882" stroke-dashoffset="71.882"><animate attributeName="stroke-dashoffset" values="71.882;71.882;0" dur="0.54s" fill="freeze" begin="0s;775a.click" /></path><path d="M14.54,20.44c1.58-0.02,13.11-1.5,14.55-1.59c1.2-0.08,2.04,1.68,2.04,3.54c0,6.84-0.56,52.05-0.56,67.65" stroke-dasharray="86.785" stroke-dashoffset="86.785"><animate attributeName="stroke-dashoffset" values="86.785" fill="freeze" begin="775a.click" /><animate attributeName="stroke-dashoffset" values="86.785;86.785;0" keyTimes="0;0.453;1" dur="1.193s" fill="freeze" begin="0s;775a.click" /></path><path d="M14.51,43.11c4.36-0.52,11.87-1.15,15.41-0.89" stroke-dasharray="15.452" stroke-dashoffset="15.452"><animate attributeName="stroke-dashoffset" values="15.452" fill="freeze" begin="775a.click" /><animate attributeName="stroke-dashoffset" values="15.452;15.452;0" keyTimes="0;0.885;1" dur="1.348s" fill="freeze" begin="0s;775a.click" /></path><path d="M14.64,62.69c4.18-0.24,10.26-1.09,15.84-0.65" stroke-dasharray="15.872" stroke-dashoffset="15.872"><animate attributeName="stroke-dashoffset" values="15.872" fill="freeze" begin="775a.click" /><animate attributeName="stroke-dashoffset" values="15.872;15.872;0" keyTimes="0;0.894;1" dur="1.507s" fill="freeze" begin="0s;775a.click" /></path><path d="M14.02,87.32c4.29-0.29,11.06-1.02,16.49-0.99" stroke-dasharray="16.526" stroke-dashoffset="16.526"><animate attributeName="stroke-dashoffset" values="16.526" fill="freeze" begin="775a.click" /><animate attributeName="stroke-dashoffset" values="16.526;16.526;0" keyTimes="0;0.901;1" dur="1.672s" fill="freeze" begin="0s;775a.click" /></path><path d="M42.58,17.41c1.05,0.58,2.99,0.67,4.04,0.58c10.06-0.91,29-1.65,43.32-2.44c1.75-0.1,2.81,0.28,3.69,0.56" stroke-dasharray="51.278" stroke-dashoffset="51.278"><animate attributeName="stroke-dashoffset" values="51.278" fill="freeze" begin="775a.click" /><animate attributeName="stroke-dashoffset" values="51.278;51.278;0" keyTimes="0;0.765;1" dur="2.185s" fill="freeze" begin="0s;775a.click" /></path><path d="M45.95,18.18c0.03,1.75,0,4.51-0.06,7.03C45.22,53.26,45.25,78,34.75,93.07" stroke-dasharray="76.693" stroke-dashoffset="76.693"><animate attributeName="stroke-dashoffset" values="76.693" fill="freeze" begin="775a.click" /><animate attributeName="stroke-dashoffset" values="76.693;76.693;0" keyTimes="0;0.791;1" dur="2.762s" fill="freeze" begin="0s;775a.click" /></path><path d="M54.45,35.85c0.65,0.25,1.85,0.31,2.5,0.25c8.37-0.84,21.3-2.35,31.42-2.97c1.09-0.07,1.74,0.12,2.28,0.24" stroke-dasharray="36.395" stroke-dashoffset="36.395"><animate attributeName="stroke-dashoffset" values="36.395" fill="freeze" begin="775a.click" /><animate attributeName="stroke-dashoffset" values="36.395;36.395;0" keyTimes="0;0.884;1" dur="3.126s" fill="freeze" begin="0s;775a.click" /></path><path d="M70.1,22.85c0.1,0.32,1.43,1.66,1.43,3.68c0,13.04-0.19,12.12-0.19,26.72" stroke-dasharray="30.738" stroke-dashoffset="30.738"><animate attributeName="stroke-dashoffset" values="30.738" fill="freeze" begin="775a.click" /><animate attributeName="stroke-dashoffset" values="30.738;30.738;0" keyTimes="0;0.911;1" dur="3.433s" fill="freeze" begin="0s;775a.click" /></path><path d="M51.99,53.85c1.07,0.5,3.02,0.57,4.09,0.5c8.61-0.6,25.77-2.56,34.81-2.87c1.78-0.06,2.84,0.24,3.73,0.49" stroke-dasharray="42.866" stroke-dashoffset="42.866"><animate attributeName="stroke-dashoffset" values="42.866" fill="freeze" begin="775a.click" /><animate attributeName="stroke-dashoffset" values="42.866;42.866;0" keyTimes="0;0.889;1" dur="3.862s" fill="freeze" begin="0s;775a.click" /></path><path d="M53.63,74.26c0.7,0.17,1.97,0.22,2.67,0.17c8.95-0.58,23.56-1.82,32.57-1.97c1.16-0.02,1.86,0.08,2.44,0.17" stroke-dasharray="37.766" stroke-dashoffset="37.766"><animate attributeName="stroke-dashoffset" values="37.766" fill="freeze" begin="775a.click" /><animate attributeName="stroke-dashoffset" values="37.766;37.766;0" keyTimes="0;0.911;1" dur="4.24s" fill="freeze" begin="0s;775a.click" /></path><path d="M70.62,59.01c0.08,0.4,1.24,2.08,1.24,4.63c0,16.41-0.18,14.07-0.18,28.67" stroke-dasharray="33.51" stroke-dashoffset="33.51"><animate attributeName="stroke-dashoffset" values="33.51" fill="freeze" begin="775a.click" /><animate attributeName="stroke-dashoffset" values="33.51;33.51;0" keyTimes="0;0.927;1" dur="4.575s" fill="freeze" begin="0s;775a.click" /></path><path d="M45.37,94.02c1.07,0.5,3.02,0.61,4.09,0.5c13.21-1.4,32.95-1.72,44.76-2.37c1.78-0.1,2.85,0.24,3.73,0.49" stroke-dasharray="52.772" stroke-dashoffset="52.772"><animate attributeName="stroke-dashoffset" values="52.772" fill="freeze" begin="775a.click" /><animate attributeName="stroke-dashoffset" values="52.772;52.772;0" keyTimes="0;0.897;1" dur="5.103s" fill="freeze" begin="0s;775a.click" /></path></g></svg>