<svg xmlns="http://www.w3.org/2000/svg" viewBox="0 0 109 109" id="7779"><g fill="none" stroke="#666" stroke-width="6" stroke-linecap="round" stroke-linejoin="round"><g><g><path d="M14.88,19.05c0.3,1.34,0.73,2.36,0.73,4.09c0,1.74-0.1,67.08,0,68.83" /><path d="M16.12,20.23c1.69-0.02,14.04-2.3,15.58-2.38c1.28-0.07,2.19,1.46,2.19,3.08c0,5.94-0.6,55.69-0.6,69.24" /><path d="M16.09,41.49c4.67-0.45,13.71-1.5,17.5-1.28" /><path d="M15.72,64.01C20.2,63.8,29,63,32.68,62.94" /><path d="M16.06,88.8c4.59-0.25,11.34-0.89,17.15-0.86" /></g><g><g p5:partial xmlns:p5="http://kanjivg.tagaini.net"><g><path d="M44.93,29.12c0.94,0.24,3.67,0.32,4.62,0.24C59.75,28.5,66.5,28,73.23,27.45c1.57-0.13,2.52,0.12,3.3,0.24" /><path d="M60.68,13.37c0.08,0.23,1.14,1.22,1.22,2.71c0.39,7.15,0.21,26.67,0.21,29.1" /><path d="M39.75,46.57c1.64,0.45,4.17,0.84,5.65,0.67c8.21-0.94,37.54-4.25,47.07-4.46c2.46-0.05,3.93,0.32,5.16,0.65" /></g><path d="M85.09,16.82c0.12,1.21,0.23,2.89-0.63,4.31c-11.09,18.35-21.56,32-41.78,48.96" /></g><path d="M73.25,49c2.12,1.15,5.47,4.72,6,6.5" /><g><path d="M57.37,62.16C57.68,63.02,58,63.45,58,64.6c0,1.15-0.21,33.6-0.21,34.18" /><path d="M58.52,62.8c1.76-0.14,24.06-2.49,25.66-2.66c1.34-0.14,2.2,1.59,2.09,2.44c-0.21,1.72-0.31,22.32-0.31,34.97" /><path d="M58.33,78.86c5.42,0,24.62-2.08,27.31-2.08" /><path d="M58.22,95.77c6.53,0,20.03-1.27,27.41-1.3" /></g></g></g></g><g fill="none" stroke="#000" stroke-width="3" stroke-linecap="round" stroke-linejoin="round"><path d="M14.88,19.05c0.3,1.34,0.73,2.36,0.73,4.09c0,1.74-0.1,67.08,0,68.83" stroke-dasharray="73" stroke-dashoffset="73"><animate attributeName="stroke-dashoffset" values="73;73;0" dur="0.549s" fill="freeze" begin="0s;7779.click" /></path><path d="M16.12,20.23c1.69-0.02,14.04-2.3,15.58-2.38c1.28-0.07,2.19,1.46,2.19,3.08c0,5.94-0.6,55.69-0.6,69.24" stroke-dasharray="89.203" stroke-dashoffset="89.203"><animate attributeName="stroke-dashoffset" values="89.203" fill="freeze" begin="7779.click" /><animate attributeName="stroke-dashoffset" values="89.203;89.203;0" keyTimes="0;0.45;1" dur="1.22s" fill="freeze" begin="0s;7779.click" /></path><path d="M16.09,41.49c4.67-0.45,13.71-1.5,17.5-1.28" stroke-dasharray="17.559" stroke-dashoffset="17.559"><animate attributeName="stroke-dashoffset" values="17.559" fill="freeze" begin="7779.click" /><animate attributeName="stroke-dashoffset" values="17.559;17.559;0" keyTimes="0;0.874;1" dur="1.396s" fill="freeze" begin="0s;7779.click" /></path><path d="M15.72,64.01C20.2,63.8,29,63,32.68,62.94" stroke-dasharray="16.996" stroke-dashoffset="16.996"><animate attributeName="stroke-dashoffset" values="16.996" fill="freeze" begin="7779.click" /><animate attributeName="stroke-dashoffset" values="16.996;16.996;0" keyTimes="0;0.891;1" dur="1.566s" fill="freeze" begin="0s;7779.click" /></path><path d="M16.06,88.8c4.59-0.25,11.34-0.89,17.15-0.86" stroke-dasharray="17.176" stroke-dashoffset="17.176"><animate attributeName="stroke-dashoffset" values="17.176" fill="freeze" begin="7779.click" /><animate attributeName="stroke-dashoffset" values="17.176;17.176;0" keyTimes="0;0.901;1" dur="1.738s" fill="freeze" begin="0s;7779.click" /></path><path d="M44.93,29.12c0.94,0.24,3.67,0.32,4.62,0.24C59.75,28.5,66.5,28,73.23,27.45c1.57-0.13,2.52,0.12,3.3,0.24" stroke-dasharray="31.715" stroke-dashoffset="31.715"><animate attributeName="stroke-dashoffset" values="31.715" fill="freeze" begin="7779.click" /><animate attributeName="stroke-dashoffset" values="31.715;31.715;0" keyTimes="0;0.846;1" dur="2.055s" fill="freeze" begin="0s;7779.click" /></path><path d="M60.68,13.37c0.08,0.23,1.14,1.22,1.22,2.71c0.39,7.15,0.21,26.67,0.21,29.1" stroke-dasharray="32.126" stroke-dashoffset="32.126"><animate attributeName="stroke-dashoffset" values="32.126" fill="freeze" begin="7779.click" /><animate attributeName="stroke-dashoffset" values="32.126;32.126;0" keyTimes="0;0.865;1" dur="2.376s" fill="freeze" begin="0s;7779.click" /></path><path d="M39.75,46.57c1.64,0.45,4.17,0.84,5.65,0.67c8.21-0.94,37.54-4.25,47.07-4.46c2.46-0.05,3.93,0.32,5.16,0.65" stroke-dasharray="58.227" stroke-dashoffset="58.227"><animate attributeName="stroke-dashoffset" values="58.227" fill="freeze" begin="7779.click" /><animate attributeName="stroke-dashoffset" values="58.227;58.227;0" keyTimes="0;0.803;1" dur="2.958s" fill="freeze" begin="0s;7779.click" /></path><path d="M85.09,16.82c0.12,1.21,0.23,2.89-0.63,4.31c-11.09,18.35-21.56,32-41.78,48.96" stroke-dasharray="69.147" stroke-dashoffset="69.147"><animate attributeName="stroke-dashoffset" values="69.147" fill="freeze" begin="7779.click" /><animate attributeName="stroke-dashoffset" values="69.147;69.147;0" keyTimes="0;0.85;1" dur="3.478s" fill="freeze" begin="0s;7779.click" /></path><path d="M73.25,49c2.12,1.15,5.47,4.72,6,6.5" stroke-dasharray="8.973" stroke-dashoffset="8.973"><animate attributeName="stroke-dashoffset" values="8.973" fill="freeze" begin="7779.click" /><animate attributeName="stroke-dashoffset" values="8.973;8.973;0" keyTimes="0;0.951;1" dur="3.657s" fill="freeze" begin="0s;7779.click" /></path><path d="M57.37,62.16C57.68,63.02,58,63.45,58,64.6c0,1.15-0.21,33.6-0.21,34.18" stroke-dasharray="36.724" stroke-dashoffset="36.724"><animate attributeName="stroke-dashoffset" values="36.724" fill="freeze" begin="7779.click" /><animate attributeName="stroke-dashoffset" values="36.724;36.724;0" keyTimes="0;0.909;1" dur="4.024s" fill="freeze" begin="0s;7779.click" /></path><path d="M58.52,62.8c1.76-0.14,24.06-2.49,25.66-2.66c1.34-0.14,2.2,1.59,2.09,2.44c-0.21,1.72-0.31,22.32-0.31,34.97" stroke-dasharray="64.366" stroke-dashoffset="64.366"><animate attributeName="stroke-dashoffset" values="64.366" fill="freeze" begin="7779.click" /><animate attributeName="stroke-dashoffset" values="64.366;64.366;0" keyTimes="0;0.893;1" dur="4.508s" fill="freeze" begin="0s;7779.click" /></path><path d="M58.33,78.86c5.42,0,24.62-2.08,27.31-2.08" stroke-dasharray="27.395" stroke-dashoffset="27.395"><animate attributeName="stroke-dashoffset" values="27.395" fill="freeze" begin="7779.click" /><animate attributeName="stroke-dashoffset" values="27.395;27.395;0" keyTimes="0;0.943;1" dur="4.782s" fill="freeze" begin="0s;7779.click" /></path><path d="M58.22,95.77c6.53,0,20.03-1.27,27.41-1.3" stroke-dasharray="27.445" stroke-dashoffset="27.445"><animate attributeName="stroke-dashoffset" values="27.445" fill="freeze" begin="7779.click" /><animate attributeName="stroke-dashoffset" values="27.445;27.445;0" keyTimes="0;0.946;1" dur="5.056s" fill="freeze" begin="0s;7779.click" /></path></g></svg>