<svg xmlns="http://www.w3.org/2000/svg" viewBox="0 0 109 109" id="77bf"><g fill="none" stroke="#666" stroke-width="6" stroke-linecap="round" stroke-linejoin="round"><g><g><g><path d="M25,13.03c0.37,0.69,0.91,1.21,0.91,2.14c0,0.93-0.25,27.48-0.25,27.95" /><path d="M25.79,13.93c2.1-0.12,18.84-1.8,20.75-1.94c1.59-0.12,2.85,0.65,2.72,1.5c-0.17,1.09-0.37,24.97-0.37,29.17" /><path d="M26.49,23.67c4.14-0.16,18.77-1.47,22.14-1.47" /><path d="M26.67,32.5c5.56-0.39,16.32-1.39,21.72-1.39" /><path d="M26.1,41.04c4.78-0.2,17.16-1.04,22.56-1.04" /></g><g><path d="M61.5,12.53c0.36,0.69,0.88,1.21,0.88,2.14c0,0.93-0.24,27.48-0.24,27.95" /><path d="M62.27,13.43c2.04-0.12,18.25-1.8,20.11-1.94c1.55-0.12,2.76,0.65,2.63,1.5c-0.17,1.09-0.36,24.97-0.36,29.17" /><path d="M62.95,22.67c4.01-0.16,18.19-1.47,21.46-1.47" /><path d="M63.11,32c5.39-0.39,15.82-1.39,21.05-1.39" /><path d="M62.57,40.54c4.63-0.2,16.63-1.04,21.87-1.04" /></g></g><g><g><path d="M37.13,45.75c0.23,1.29-0.06,2.99-0.81,4.09C31.6,56.9,25.6,62.88,14.75,71.47" /><path d="M28.78,59.9c0.92,0.6,1.63,1.92,1.69,2.85c0.55,8.29-0.75,30.19-0.29,34.5" /></g><path d="M59.8,46.25c0.06,0.58-0.02,1.35-0.21,1.85c-1.24,3.19-2.82,5.66-5.66,9.55" /><path d="M30.21,59.08c10.69-0.78,51.36-2.55,55.95-2.98" /><path d="M55.02,59c0.52,0.31,0.93,0.73,0.93,1.25c0,5.38,0.06,24.63-0.26,33.1" /><path d="M31.64,70.28c10.09-0.65,46.57-2.03,50.9-2.38" /><path d="M30.41,81.7c10.64-0.54,47.98-1.65,52.55-1.95" /><path d="M30.41,95.15c10.69-0.78,55.25-2.77,59.84-3.2" /></g></g></g><g fill="none" stroke="#000" stroke-width="3" stroke-linecap="round" stroke-linejoin="round"><path d="M25,13.03c0.37,0.69,0.91,1.21,0.91,2.14c0,0.93-0.25,27.48-0.25,27.95" stroke-dasharray="30.314" stroke-dashoffset="30.314"><animate attributeName="stroke-dashoffset" values="30.314;30.314;0" dur="0.303s" fill="freeze" begin="0s;77bf.click" /></path><path d="M25.79,13.93c2.1-0.12,18.84-1.8,20.75-1.94c1.59-0.12,2.85,0.65,2.72,1.5c-0.17,1.09-0.37,24.97-0.37,29.17" stroke-dasharray="53.495" stroke-dashoffset="53.495"><animate attributeName="stroke-dashoffset" values="53.495" fill="freeze" begin="77bf.click" /><animate attributeName="stroke-dashoffset" values="53.495;53.495;0" keyTimes="0;0.362;1" dur="0.838s" fill="freeze" begin="0s;77bf.click" /></path><path d="M26.49,23.67c4.14-0.16,18.77-1.47,22.14-1.47" stroke-dasharray="22.192" stroke-dashoffset="22.192"><animate attributeName="stroke-dashoffset" values="22.192" fill="freeze" begin="77bf.click" /><animate attributeName="stroke-dashoffset" values="22.192;22.192;0" keyTimes="0;0.791;1" dur="1.06s" fill="freeze" begin="0s;77bf.click" /></path><path d="M26.67,32.5c5.56-0.39,16.32-1.39,21.72-1.39" stroke-dasharray="21.769" stroke-dashoffset="21.769"><animate attributeName="stroke-dashoffset" values="21.769" fill="freeze" begin="77bf.click" /><animate attributeName="stroke-dashoffset" values="21.769;21.769;0" keyTimes="0;0.829;1" dur="1.278s" fill="freeze" begin="0s;77bf.click" /></path><path d="M26.1,41.04c4.78-0.2,17.16-1.04,22.56-1.04" stroke-dasharray="22.587" stroke-dashoffset="22.587"><animate attributeName="stroke-dashoffset" values="22.587" fill="freeze" begin="77bf.click" /><animate attributeName="stroke-dashoffset" values="22.587;22.587;0" keyTimes="0;0.85;1" dur="1.504s" fill="freeze" begin="0s;77bf.click" /></path><path d="M61.5,12.53c0.36,0.69,0.88,1.21,0.88,2.14c0,0.93-0.24,27.48-0.24,27.95" stroke-dasharray="30.301" stroke-dashoffset="30.301"><animate attributeName="stroke-dashoffset" values="30.301" fill="freeze" begin="77bf.click" /><animate attributeName="stroke-dashoffset" values="30.301;30.301;0" keyTimes="0;0.832;1" dur="1.807s" fill="freeze" begin="0s;77bf.click" /></path><path d="M62.27,13.43c2.04-0.12,18.25-1.8,20.11-1.94c1.55-0.12,2.76,0.65,2.63,1.5c-0.17,1.09-0.36,24.97-0.36,29.17" stroke-dasharray="52.781" stroke-dashoffset="52.781"><animate attributeName="stroke-dashoffset" values="52.781" fill="freeze" begin="77bf.click" /><animate attributeName="stroke-dashoffset" values="52.781;52.781;0" keyTimes="0;0.774;1" dur="2.335s" fill="freeze" begin="0s;77bf.click" /></path><path d="M62.95,22.67c4.01-0.16,18.19-1.47,21.46-1.47" stroke-dasharray="21.513" stroke-dashoffset="21.513"><animate attributeName="stroke-dashoffset" values="21.513" fill="freeze" begin="77bf.click" /><animate attributeName="stroke-dashoffset" values="21.513;21.513;0" keyTimes="0;0.916;1" dur="2.55s" fill="freeze" begin="0s;77bf.click" /></path><path d="M63.11,32c5.39-0.39,15.82-1.39,21.05-1.39" stroke-dasharray="21.101" stroke-dashoffset="21.101"><animate attributeName="stroke-dashoffset" values="21.101" fill="freeze" begin="77bf.click" /><animate attributeName="stroke-dashoffset" values="21.101;21.101;0" keyTimes="0;0.924;1" dur="2.761s" fill="freeze" begin="0s;77bf.click" /></path><path d="M62.57,40.54c4.63-0.2,16.63-1.04,21.87-1.04" stroke-dasharray="21.898" stroke-dashoffset="21.898"><animate attributeName="stroke-dashoffset" values="21.898" fill="freeze" begin="77bf.click" /><animate attributeName="stroke-dashoffset" values="21.898;21.898;0" keyTimes="0;0.927;1" dur="2.98s" fill="freeze" begin="0s;77bf.click" /></path><path d="M37.13,45.75c0.23,1.29-0.06,2.99-0.81,4.09C31.6,56.9,25.6,62.88,14.75,71.47" stroke-dasharray="34.941" stroke-dashoffset="34.941"><animate attributeName="stroke-dashoffset" values="34.941" fill="freeze" begin="77bf.click" /><animate attributeName="stroke-dashoffset" values="34.941;34.941;0" keyTimes="0;0.895;1" dur="3.329s" fill="freeze" begin="0s;77bf.click" /></path><path d="M28.78,59.9c0.92,0.6,1.63,1.92,1.69,2.85c0.55,8.29-0.75,30.19-0.29,34.5" stroke-dasharray="37.924" stroke-dashoffset="37.924"><animate attributeName="stroke-dashoffset" values="37.924" fill="freeze" begin="77bf.click" /><animate attributeName="stroke-dashoffset" values="37.924;37.924;0" keyTimes="0;0.898;1" dur="3.708s" fill="freeze" begin="0s;77bf.click" /></path><path d="M59.8,46.25c0.06,0.58-0.02,1.35-0.21,1.85c-1.24,3.19-2.82,5.66-5.66,9.55" stroke-dasharray="13.013" stroke-dashoffset="13.013"><animate attributeName="stroke-dashoffset" values="13.013" fill="freeze" begin="77bf.click" /><animate attributeName="stroke-dashoffset" values="13.013;13.013;0" keyTimes="0;0.934;1" dur="3.968s" fill="freeze" begin="0s;77bf.click" /></path><path d="M30.21,59.08c10.69-0.78,51.36-2.55,55.95-2.98" stroke-dasharray="56.031" stroke-dashoffset="56.031"><animate attributeName="stroke-dashoffset" values="56.031" fill="freeze" begin="77bf.click" /><animate attributeName="stroke-dashoffset" values="56.031;56.031;0" keyTimes="0;0.876;1" dur="4.528s" fill="freeze" begin="0s;77bf.click" /></path><path d="M55.02,59c0.52,0.31,0.93,0.73,0.93,1.25c0,5.38,0.06,24.63-0.26,33.1" stroke-dasharray="34.733" stroke-dashoffset="34.733"><animate attributeName="stroke-dashoffset" values="34.733" fill="freeze" begin="77bf.click" /><animate attributeName="stroke-dashoffset" values="34.733;34.733;0" keyTimes="0;0.929;1" dur="4.875s" fill="freeze" begin="0s;77bf.click" /></path><path d="M31.64,70.28c10.09-0.65,46.57-2.03,50.9-2.38" stroke-dasharray="50.957" stroke-dashoffset="50.957"><animate attributeName="stroke-dashoffset" values="50.957" fill="freeze" begin="77bf.click" /><animate attributeName="stroke-dashoffset" values="50.957;50.957;0" keyTimes="0;0.905;1" dur="5.385s" fill="freeze" begin="0s;77bf.click" /></path><path d="M30.41,81.7c10.64-0.54,47.98-1.65,52.55-1.95" stroke-dasharray="52.588" stroke-dashoffset="52.588"><animate attributeName="stroke-dashoffset" values="52.588" fill="freeze" begin="77bf.click" /><animate attributeName="stroke-dashoffset" values="52.588;52.588;0" keyTimes="0;0.911;1" dur="5.911s" fill="freeze" begin="0s;77bf.click" /></path><path d="M30.41,95.15c10.69-0.78,55.25-2.77,59.84-3.2" stroke-dasharray="59.927" stroke-dashoffset="59.927"><animate attributeName="stroke-dashoffset" values="59.927" fill="freeze" begin="77bf.click" /><animate attributeName="stroke-dashoffset" values="59.927;59.927;0" keyTimes="0;0.908;1" dur="6.51s" fill="freeze" begin="0s;77bf.click" /></path></g></svg>