<svg xmlns="http://www.w3.org/2000/svg" viewBox="0 0 109 109" id="787c"><g fill="none" stroke="#666" stroke-width="6" stroke-linecap="round" stroke-linejoin="round"><g><g><path d="M13.96,24.27c0.65,0.14,1.85,0.18,2.48,0.14c8.12-0.48,13.82-1.52,24.67-2.36c1.08-0.09,1.73,0.06,2.27,0.13" /><path d="M22.92,27.39c0.04,1.04,0.08,2.7-0.08,4.19c-0.96,8.83-6.47,28.19-14,40.07" /><g><path d="M18.58,56.51c0.31,0.51,0.62,0.94,0.75,1.58c1.06,5.08,1.85,19.09,2.58,28.21" /><path d="M19.5,58.49c8.25-1.49,16.09-1.99,19.7-2.74c1.32-0.27,2.11,1.61,1.92,3.2c-0.78,6.59-2.37,14.05-3.97,24.19" /><path d="M22.06,84.38c5.44-0.61,10.38-0.65,17.52-1.41" /></g></g><g><g><path d="M49.58,16.48c0.7,0.99,1.17,1.98,1.4,2.97c0.24,0.99,0.24,20.8,0.24,31.94c0,10.66-3.46,33.65-11.1,41.11" /><path d="M50.61,18.56c2.21-0.25,11.44-2.53,13.08-2.81c2.95-0.51,2.95,2.22,2.95,3.82c0,8.68-0.55,47.84-0.55,66.89c0,13.28-5.43,5.09-7.26,2.8" /><path d="M51.61,40.91c3.22-0.41,9.79-0.97,14.14-1.18" /><path d="M50.74,60.26c5.59-0.74,7.73-0.51,14.19-0.99" /></g><g><path d="M76.57,14.92c0.5,1,0.85,2,1.01,3.01c0.17,1,0.17,25.5,0.17,32.25c0,10.76,0.75,31.07-8.05,41.5" /><path d="M77.75,16.27c2.02-0.27,12.8-2.14,14.31-2.43c2.69-0.52,2.69,2.29,2.69,3.96c0,8.97-0.5,60.06-0.5,68.63s-2.75,6.82-6.75,2.96" /><path d="M78.58,39.48c2.99-0.4,12.11-0.92,16.15-1.13" /><path d="M77.75,59.08c5.38-0.75,10.43-0.5,16.66-1" /></g></g></g></g><g fill="none" stroke="#000" stroke-width="3" stroke-linecap="round" stroke-linejoin="round"><path d="M13.96,24.27c0.65,0.14,1.85,0.18,2.48,0.14c8.12-0.48,13.82-1.52,24.67-2.36c1.08-0.09,1.73,0.06,2.27,0.13" stroke-dasharray="29.556" stroke-dashoffset="29.556"><animate attributeName="stroke-dashoffset" values="29.556;29.556;0" dur="0.296s" fill="freeze" begin="0s;787c.click" /></path><path d="M22.92,27.39c0.04,1.04,0.08,2.7-0.08,4.19c-0.96,8.83-6.47,28.19-14,40.07" stroke-dasharray="46.905" stroke-dashoffset="46.905"><animate attributeName="stroke-dashoffset" values="46.905" fill="freeze" begin="787c.click" /><animate attributeName="stroke-dashoffset" values="46.905;46.905;0" keyTimes="0;0.387;1" dur="0.765s" fill="freeze" begin="0s;787c.click" /></path><path d="M18.58,56.51c0.31,0.51,0.62,0.94,0.75,1.58c1.06,5.08,1.85,19.09,2.58,28.21" stroke-dasharray="30.1" stroke-dashoffset="30.1"><animate attributeName="stroke-dashoffset" values="30.1" fill="freeze" begin="787c.click" /><animate attributeName="stroke-dashoffset" values="30.1;30.1;0" keyTimes="0;0.718;1" dur="1.066s" fill="freeze" begin="0s;787c.click" /></path><path d="M19.5,58.49c8.25-1.49,16.09-1.99,19.7-2.74c1.32-0.27,2.11,1.61,1.92,3.2c-0.78,6.59-2.37,14.05-3.97,24.19" stroke-dasharray="48.688" stroke-dashoffset="48.688"><animate attributeName="stroke-dashoffset" values="48.688" fill="freeze" begin="787c.click" /><animate attributeName="stroke-dashoffset" values="48.688;48.688;0" keyTimes="0;0.686;1" dur="1.553s" fill="freeze" begin="0s;787c.click" /></path><path d="M22.06,84.38c5.44-0.61,10.38-0.65,17.52-1.41" stroke-dasharray="17.579" stroke-dashoffset="17.579"><animate attributeName="stroke-dashoffset" values="17.579" fill="freeze" begin="787c.click" /><animate attributeName="stroke-dashoffset" values="17.579;17.579;0" keyTimes="0;0.898;1" dur="1.729s" fill="freeze" begin="0s;787c.click" /></path><path d="M49.58,16.48c0.7,0.99,1.17,1.98,1.4,2.97c0.24,0.99,0.24,20.8,0.24,31.94c0,10.66-3.46,33.65-11.1,41.11" stroke-dasharray="78.557" stroke-dashoffset="78.557"><animate attributeName="stroke-dashoffset" values="78.557" fill="freeze" begin="787c.click" /><animate attributeName="stroke-dashoffset" values="78.557;78.557;0" keyTimes="0;0.745;1" dur="2.32s" fill="freeze" begin="0s;787c.click" /></path><path d="M50.61,18.56c2.21-0.25,11.44-2.53,13.08-2.81c2.95-0.51,2.95,2.22,2.95,3.82c0,8.68-0.55,47.84-0.55,66.89c0,13.28-5.43,5.09-7.26,2.8" stroke-dasharray="101.342" stroke-dashoffset="101.342"><animate attributeName="stroke-dashoffset" values="101.342" fill="freeze" begin="787c.click" /><animate attributeName="stroke-dashoffset" values="101.342;101.342;0" keyTimes="0;0.753;1" dur="3.082s" fill="freeze" begin="0s;787c.click" /></path><path d="M51.61,40.91c3.22-0.41,9.79-0.97,14.14-1.18" stroke-dasharray="14.193" stroke-dashoffset="14.193"><animate attributeName="stroke-dashoffset" values="14.193" fill="freeze" begin="787c.click" /><animate attributeName="stroke-dashoffset" values="14.193;14.193;0" keyTimes="0;0.916;1" dur="3.366s" fill="freeze" begin="0s;787c.click" /></path><path d="M50.74,60.26c5.59-0.74,7.73-0.51,14.19-0.99" stroke-dasharray="14.23" stroke-dashoffset="14.23"><animate attributeName="stroke-dashoffset" values="14.23" fill="freeze" begin="787c.click" /><animate attributeName="stroke-dashoffset" values="14.23;14.23;0" keyTimes="0;0.922;1" dur="3.651s" fill="freeze" begin="0s;787c.click" /></path><path d="M76.57,14.92c0.5,1,0.85,2,1.01,3.01c0.17,1,0.17,25.5,0.17,32.25c0,10.76,0.75,31.07-8.05,41.5" stroke-dasharray="78.531" stroke-dashoffset="78.531"><animate attributeName="stroke-dashoffset" values="78.531" fill="freeze" begin="787c.click" /><animate attributeName="stroke-dashoffset" values="78.531;78.531;0" keyTimes="0;0.861;1" dur="4.241s" fill="freeze" begin="0s;787c.click" /></path><path d="M77.75,16.27c2.02-0.27,12.8-2.14,14.31-2.43c2.69-0.52,2.69,2.29,2.69,3.96c0,8.97-0.5,60.06-0.5,68.63s-2.75,6.82-6.75,2.96" stroke-dasharray="101.681" stroke-dashoffset="101.681"><animate attributeName="stroke-dashoffset" values="101.681" fill="freeze" begin="787c.click" /><animate attributeName="stroke-dashoffset" values="101.681;101.681;0" keyTimes="0;0.847;1" dur="5.006s" fill="freeze" begin="0s;787c.click" /></path><path d="M78.58,39.48c2.99-0.4,12.11-0.92,16.15-1.13" stroke-dasharray="16.193" stroke-dashoffset="16.193"><animate attributeName="stroke-dashoffset" values="16.193" fill="freeze" begin="787c.click" /><animate attributeName="stroke-dashoffset" values="16.193;16.193;0" keyTimes="0;0.969;1" dur="5.168s" fill="freeze" begin="0s;787c.click" /></path><path d="M77.75,59.08c5.38-0.75,10.43-0.5,16.66-1" stroke-dasharray="16.697" stroke-dashoffset="16.697"><animate attributeName="stroke-dashoffset" values="16.697" fill="freeze" begin="787c.click" /><animate attributeName="stroke-dashoffset" values="16.697;16.697;0" keyTimes="0;0.969;1" dur="5.335s" fill="freeze" begin="0s;787c.click" /></path></g></svg>