<svg xmlns="http://www.w3.org/2000/svg" viewBox="0 0 109 109" id="7887"><g fill="none" stroke="#666" stroke-width="6" stroke-linecap="round" stroke-linejoin="round"><g><g><path d="M11.88,29.66c0.68,0.2,1.93,0.25,2.6,0.2c8.49-0.69,14.44-1.65,25.78-2.85c1.12-0.12,1.81,0.09,2.37,0.19" /><path d="M24.45,32.18c0.04,0.84,0.09,2.18-0.09,3.39C23.27,42.71,17.04,58.4,8.5,68" /><g><path d="M20.5,53.27c0.28,0.41,0.56,0.76,0.68,1.27c0.96,4.09,2.12,14.87,2.78,22.21" /><path d="M22.23,55.06c6.77-1.59,13.61-2.53,16.87-3.07c1.19-0.2,1.9,1.16,1.73,2.32c-0.7,4.78-2.03,10.55-3.08,17.15" /><path d="M24.09,74.64C29,73.82,33,73.58,39.44,72.55" /></g></g><g><g><path d="M68.16,11.92c0.71,0.8,1.93,2.8,1.91,3.9C70,19.28,70,21.79,69.99,24.94" /><g><path d="M49.83,25.91c0,3.09-2.3,11.58-3.35,13.64" /><path d="M50.12,27.89c11.15-1.95,29.97-4.21,40.47-4.68c9.64-0.43,3.05,4.75,0.05,7.29" /></g></g><g><path d="M52.82,43.96c2.07,0.42,4.07,0.33,6.17,0c4.97-0.78,23.21-3.4,26.5-3.4c2.84,0,1.83,0.12,4.11,0.12" /><g><path d="M68.41,44.95c0.81,0.42,1.3,1.9,1.46,2.75c0.16,0.85,0.37,30.08,0.21,35.37" /><path d="M70.28,63.47c5.3-0.63,8.91-1.27,16.9-2.54c1.29-0.2,1.62-0.21,2.43,0" /></g><g><path d="M54.54,58.46c0.04,0.81,0.09,2.1-0.09,3.27c-1.05,6.9-6.95,22.52-15.39,29.94" /><path d="M51.69,71.3c6.56,4.2,24.56,17.7,32.82,21.8c2.12,1.05,5.24,2.4,9.99,2.9" /></g></g></g></g></g><g fill="none" stroke="#000" stroke-width="3" stroke-linecap="round" stroke-linejoin="round"><path d="M11.88,29.66c0.68,0.2,1.93,0.25,2.6,0.2c8.49-0.69,14.44-1.65,25.78-2.85c1.12-0.12,1.81,0.09,2.37,0.19" stroke-dasharray="30.947" stroke-dashoffset="30.947"><animate attributeName="stroke-dashoffset" values="30.947;30.947;0" dur="0.309s" fill="freeze" begin="0s;7887.click" /></path><path d="M24.45,32.18c0.04,0.84,0.09,2.18-0.09,3.39C23.27,42.71,17.04,58.4,8.5,68" stroke-dasharray="39.859" stroke-dashoffset="39.859"><animate attributeName="stroke-dashoffset" values="39.859" fill="freeze" begin="7887.click" /><animate attributeName="stroke-dashoffset" values="39.859;39.859;0" keyTimes="0;0.436;1" dur="0.708s" fill="freeze" begin="0s;7887.click" /></path><path d="M20.5,53.27c0.28,0.41,0.56,0.76,0.68,1.27c0.96,4.09,2.12,14.87,2.78,22.21" stroke-dasharray="23.845" stroke-dashoffset="23.845"><animate attributeName="stroke-dashoffset" values="23.845" fill="freeze" begin="7887.click" /><animate attributeName="stroke-dashoffset" values="23.845;23.845;0" keyTimes="0;0.748;1" dur="0.946s" fill="freeze" begin="0s;7887.click" /></path><path d="M22.23,55.06c6.77-1.59,13.61-2.53,16.87-3.07c1.19-0.2,1.9,1.16,1.73,2.32c-0.7,4.78-2.03,10.55-3.08,17.15" stroke-dasharray="37.938" stroke-dashoffset="37.938"><animate attributeName="stroke-dashoffset" values="37.938" fill="freeze" begin="7887.click" /><animate attributeName="stroke-dashoffset" values="37.938;37.938;0" keyTimes="0;0.714;1" dur="1.325s" fill="freeze" begin="0s;7887.click" /></path><path d="M24.09,74.64C29,73.82,33,73.58,39.44,72.55" stroke-dasharray="15.494" stroke-dashoffset="15.494"><animate attributeName="stroke-dashoffset" values="15.494" fill="freeze" begin="7887.click" /><animate attributeName="stroke-dashoffset" values="15.494;15.494;0" keyTimes="0;0.895;1" dur="1.48s" fill="freeze" begin="0s;7887.click" /></path><path d="M68.16,11.92c0.71,0.8,1.93,2.8,1.91,3.9C70,19.28,70,21.79,69.99,24.94" stroke-dasharray="13.528" stroke-dashoffset="13.528"><animate attributeName="stroke-dashoffset" values="13.528" fill="freeze" begin="7887.click" /><animate attributeName="stroke-dashoffset" values="13.528;13.528;0" keyTimes="0;0.845;1" dur="1.751s" fill="freeze" begin="0s;7887.click" /></path><path d="M49.83,25.91c0,3.09-2.3,11.58-3.35,13.64" stroke-dasharray="14.1" stroke-dashoffset="14.1"><animate attributeName="stroke-dashoffset" values="14.1" fill="freeze" begin="7887.click" /><animate attributeName="stroke-dashoffset" values="14.1;14.1;0" keyTimes="0;0.861;1" dur="2.033s" fill="freeze" begin="0s;7887.click" /></path><path d="M50.12,27.89c11.15-1.95,29.97-4.21,40.47-4.68c9.64-0.43,3.05,4.75,0.05,7.29" stroke-dasharray="54.267" stroke-dashoffset="54.267"><animate attributeName="stroke-dashoffset" values="54.267" fill="freeze" begin="7887.click" /><animate attributeName="stroke-dashoffset" values="54.267;54.267;0" keyTimes="0;0.789;1" dur="2.576s" fill="freeze" begin="0s;7887.click" /></path><path d="M52.82,43.96c2.07,0.42,4.07,0.33,6.17,0c4.97-0.78,23.21-3.4,26.5-3.4c2.84,0,1.83,0.12,4.11,0.12" stroke-dasharray="37.043" stroke-dashoffset="37.043"><animate attributeName="stroke-dashoffset" values="37.043" fill="freeze" begin="7887.click" /><animate attributeName="stroke-dashoffset" values="37.043;37.043;0" keyTimes="0;0.874;1" dur="2.946s" fill="freeze" begin="0s;7887.click" /></path><path d="M68.41,44.95c0.81,0.42,1.3,1.9,1.46,2.75c0.16,0.85,0.37,30.08,0.21,35.37" stroke-dasharray="38.572" stroke-dashoffset="38.572"><animate attributeName="stroke-dashoffset" values="38.572" fill="freeze" begin="7887.click" /><animate attributeName="stroke-dashoffset" values="38.572;38.572;0" keyTimes="0;0.884;1" dur="3.332s" fill="freeze" begin="0s;7887.click" /></path><path d="M70.28,63.47c5.3-0.63,8.91-1.27,16.9-2.54c1.29-0.2,1.62-0.21,2.43,0" stroke-dasharray="19.546" stroke-dashoffset="19.546"><animate attributeName="stroke-dashoffset" values="19.546" fill="freeze" begin="7887.click" /><animate attributeName="stroke-dashoffset" values="19.546;19.546;0" keyTimes="0;0.945;1" dur="3.527s" fill="freeze" begin="0s;7887.click" /></path><path d="M54.54,58.46c0.04,0.81,0.09,2.1-0.09,3.27c-1.05,6.9-6.95,22.52-15.39,29.94" stroke-dasharray="37.444" stroke-dashoffset="37.444"><animate attributeName="stroke-dashoffset" values="37.444" fill="freeze" begin="7887.click" /><animate attributeName="stroke-dashoffset" values="37.444;37.444;0" keyTimes="0;0.904;1" dur="3.901s" fill="freeze" begin="0s;7887.click" /></path><path d="M51.69,71.3c6.56,4.2,24.56,17.7,32.82,21.8c2.12,1.05,5.24,2.4,9.99,2.9" stroke-dasharray="49.885" stroke-dashoffset="49.885"><animate attributeName="stroke-dashoffset" values="49.885" fill="freeze" begin="7887.click" /><animate attributeName="stroke-dashoffset" values="49.885;49.885;0" keyTimes="0;0.887;1" dur="4.4s" fill="freeze" begin="0s;7887.click" /></path></g></svg>