<svg xmlns="http://www.w3.org/2000/svg" viewBox="0 0 109 109" id="78c1"><g fill="none" stroke="#666" stroke-width="6" stroke-linecap="round" stroke-linejoin="round"><g><g><path d="M12,28.85c1.95,0.57,3.91,0.33,5.88,0.09c4.96-0.6,14.64-1.53,19.62-2.07c1.85-0.2,3.42-0.18,5.25,0.14" /><path d="M23.28,30.9c0.47,0.98,0.58,2.06,0.42,3.34C22.8,41.8,17.38,57.88,10,69.81" /><g><path d="M19.31,56.51c0.71,0.71,1.19,1.96,1.24,2.68c0.34,4.35,1.2,10.36,1.89,18.8c0.13,1.63,0.25,3.26,0.34,4.85" /><path d="M21.48,58.4c5.42-1.08,9-2.02,13.78-2.85c2.5-0.43,3.74,0.95,3.32,3.9c-0.59,4.17-1.33,8.06-2.33,16.81" /><path d="M23.75,79.5c2.86-0.41,6.56-1.14,10.75-1.79c1.2-0.19,2.39-0.35,3.5-0.46" /></g></g><g p4:phon="兹/茲V" xmlns:p4="http://kanjivg.tagaini.net"><g><g p4:number="1" p4:partial><g p4:partial><path d="M54.25,16.88c2.48,2.26,6.4,9.28,7.02,12.79" /></g></g><path d="M83.78,14.99c0.05,1.13-0.04,1.75-0.46,2.83c-1.55,4.06-3.31,8.46-7.23,14.29" /><path d="M45.25,37.14c1.86,0.76,4.68,0.51,6.62,0.31c8.71-0.9,29.33-3.06,37.78-3.33c1.99-0.06,4.14-0.09,6.09,0.38" /></g><g><g p4:number="1" p4:partial><g><path d="M54.04,45.87c0.24,1,0.06,2.26-0.37,3.34c-2,5-3.04,8.36-6.28,13.88c-0.76,1.29-0.63,2.16,0.5,2.51c3.94,1.2,6.78,2.93,8.98,4.77" /><path d="M64.04,56.91c0.34,1.26,0.09,3.06-0.32,3.79c-4.46,8.08-10.1,16.2-18.01,27.2c-1.49,2.07-0.68,3.69,1.69,2.78c7.6-2.93,8.35-3.62,15.41-6.08" /><path d="M59.15,78.49c2.67,2.86,5.96,9.36,6.63,13.81" /></g></g><g p4:number="2" p4:partial><g><path d="M83.11,43.3c0.27,1.07,0.08,2.36-0.38,3.53c-2.18,5.5-4.96,11.18-8.58,16.64c-0.77,1.16-1.02,2.41,0.5,2.93c2.88,0.99,6.46,2.28,8.9,4.24" /><path d="M91.71,55.4c0.3,1.19,0.24,2.38-0.53,3.78C86,68.62,81,77.75,74.25,86.1c-1.03,1.28-0.75,3.15,1.31,2.46c6.67-2.23,9.94-3.56,16.12-5.65" /><path d="M89.25,76.5c2.47,2.62,6.38,10.79,6.99,14.87" /></g></g></g></g></g></g><g fill="none" stroke="#000" stroke-width="3" stroke-linecap="round" stroke-linejoin="round"><path d="M12,28.85c1.95,0.57,3.91,0.33,5.88,0.09c4.96-0.6,14.64-1.53,19.62-2.07c1.85-0.2,3.42-0.18,5.25,0.14" stroke-dasharray="30.926" stroke-dashoffset="30.926"><animate attributeName="stroke-dashoffset" values="30.926;30.926;0" dur="0.309s" fill="freeze" begin="0s;78c1.click" /></path><path d="M23.28,30.9c0.47,0.98,0.58,2.06,0.42,3.34C22.8,41.8,17.38,57.88,10,69.81" stroke-dasharray="41.749" stroke-dashoffset="41.749"><animate attributeName="stroke-dashoffset" values="41.749" fill="freeze" begin="78c1.click" /><animate attributeName="stroke-dashoffset" values="41.749;41.749;0" keyTimes="0;0.426;1" dur="0.726s" fill="freeze" begin="0s;78c1.click" /></path><path d="M19.31,56.51c0.71,0.71,1.19,1.96,1.24,2.68c0.34,4.35,1.2,10.36,1.89,18.8c0.13,1.63,0.25,3.26,0.34,4.85" stroke-dasharray="26.761" stroke-dashoffset="26.761"><animate attributeName="stroke-dashoffset" values="26.761" fill="freeze" begin="78c1.click" /><animate attributeName="stroke-dashoffset" values="26.761;26.761;0" keyTimes="0;0.73;1" dur="0.994s" fill="freeze" begin="0s;78c1.click" /></path><path d="M21.48,58.4c5.42-1.08,9-2.02,13.78-2.85c2.5-0.43,3.74,0.95,3.32,3.9c-0.59,4.17-1.33,8.06-2.33,16.81" stroke-dasharray="37.382" stroke-dashoffset="37.382"><animate attributeName="stroke-dashoffset" values="37.382" fill="freeze" begin="78c1.click" /><animate attributeName="stroke-dashoffset" values="37.382;37.382;0" keyTimes="0;0.727;1" dur="1.368s" fill="freeze" begin="0s;78c1.click" /></path><path d="M23.75,79.5c2.86-0.41,6.56-1.14,10.75-1.79c1.2-0.19,2.39-0.35,3.5-0.46" stroke-dasharray="14.43" stroke-dashoffset="14.43"><animate attributeName="stroke-dashoffset" values="14.43" fill="freeze" begin="78c1.click" /><animate attributeName="stroke-dashoffset" values="14.43;14.43;0" keyTimes="0;0.826;1" dur="1.657s" fill="freeze" begin="0s;78c1.click" /></path><path d="M54.25,16.88c2.48,2.26,6.4,9.28,7.02,12.79" stroke-dasharray="14.739" stroke-dashoffset="14.739"><animate attributeName="stroke-dashoffset" values="14.739" fill="freeze" begin="78c1.click" /><animate attributeName="stroke-dashoffset" values="14.739;14.739;0" keyTimes="0;0.849;1" dur="1.952s" fill="freeze" begin="0s;78c1.click" /></path><path d="M83.78,14.99c0.05,1.13-0.04,1.75-0.46,2.83c-1.55,4.06-3.31,8.46-7.23,14.29" stroke-dasharray="18.951" stroke-dashoffset="18.951"><animate attributeName="stroke-dashoffset" values="18.951" fill="freeze" begin="78c1.click" /><animate attributeName="stroke-dashoffset" values="18.951;18.951;0" keyTimes="0;0.911;1" dur="2.142s" fill="freeze" begin="0s;78c1.click" /></path><path d="M45.25,37.14c1.86,0.76,4.68,0.51,6.62,0.31c8.71-0.9,29.33-3.06,37.78-3.33c1.99-0.06,4.14-0.09,6.09,0.38" stroke-dasharray="50.74" stroke-dashoffset="50.74"><animate attributeName="stroke-dashoffset" values="50.74" fill="freeze" begin="78c1.click" /><animate attributeName="stroke-dashoffset" values="50.74;50.74;0" keyTimes="0;0.809;1" dur="2.649s" fill="freeze" begin="0s;78c1.click" /></path><path d="M54.04,45.87c0.24,1,0.06,2.26-0.37,3.34c-2,5-3.04,8.36-6.28,13.88c-0.76,1.29-0.63,2.16,0.5,2.51c3.94,1.2,6.78,2.93,8.98,4.77" stroke-dasharray="32.001" stroke-dashoffset="32.001"><animate attributeName="stroke-dashoffset" values="32.001" fill="freeze" begin="78c1.click" /><animate attributeName="stroke-dashoffset" values="32.001;32.001;0" keyTimes="0;0.892;1" dur="2.969s" fill="freeze" begin="0s;78c1.click" /></path><path d="M64.04,56.91c0.34,1.26,0.09,3.06-0.32,3.79c-4.46,8.08-10.1,16.2-18.01,27.2c-1.49,2.07-0.68,3.69,1.69,2.78c7.6-2.93,8.35-3.62,15.41-6.08" stroke-dasharray="58.301" stroke-dashoffset="58.301"><animate attributeName="stroke-dashoffset" values="58.301" fill="freeze" begin="78c1.click" /><animate attributeName="stroke-dashoffset" values="58.301;58.301;0" keyTimes="0;0.836;1" dur="3.552s" fill="freeze" begin="0s;78c1.click" /></path><path d="M59.15,78.49c2.67,2.86,5.96,9.36,6.63,13.81" stroke-dasharray="15.486" stroke-dashoffset="15.486"><animate attributeName="stroke-dashoffset" values="15.486" fill="freeze" begin="78c1.click" /><animate attributeName="stroke-dashoffset" values="15.486;15.486;0" keyTimes="0;0.958;1" dur="3.707s" fill="freeze" begin="0s;78c1.click" /></path><path d="M83.11,43.3c0.27,1.07,0.08,2.36-0.38,3.53c-2.18,5.5-4.96,11.18-8.58,16.64c-0.77,1.16-1.02,2.41,0.5,2.93c2.88,0.99,6.46,2.28,8.9,4.24" stroke-dasharray="35.873" stroke-dashoffset="35.873"><animate attributeName="stroke-dashoffset" values="35.873" fill="freeze" begin="78c1.click" /><animate attributeName="stroke-dashoffset" values="35.873;35.873;0" keyTimes="0;0.912;1" dur="4.066s" fill="freeze" begin="0s;78c1.click" /></path><path d="M91.71,55.4c0.3,1.19,0.24,2.38-0.53,3.78C86,68.62,81,77.75,74.25,86.1c-1.03,1.28-0.75,3.15,1.31,2.46c6.67-2.23,9.94-3.56,16.12-5.65" stroke-dasharray="57.066" stroke-dashoffset="57.066"><animate attributeName="stroke-dashoffset" values="57.066" fill="freeze" begin="78c1.click" /><animate attributeName="stroke-dashoffset" values="57.066;57.066;0" keyTimes="0;0.877;1" dur="4.637s" fill="freeze" begin="0s;78c1.click" /></path><path d="M89.25,76.5c2.47,2.62,6.38,10.79,6.99,14.87" stroke-dasharray="16.573" stroke-dashoffset="16.573"><animate attributeName="stroke-dashoffset" values="16.573" fill="freeze" begin="78c1.click" /><animate attributeName="stroke-dashoffset" values="16.573;16.573;0" keyTimes="0;0.965;1" dur="4.803s" fill="freeze" begin="0s;78c1.click" /></path></g></svg>