<svg xmlns="http://www.w3.org/2000/svg" viewBox="0 0 109 109" id="7911"><g fill="none" stroke="#666" stroke-width="6" stroke-linecap="round" stroke-linejoin="round"><g><g><path d="M11.25,29.82c0.81,0.18,2.31,0.23,3.11,0.18c10.18-0.63,10.95-1.97,24.54-3.07c1.35-0.11,2.17,0.09,2.84,0.18" /><path d="M25.44,31.68c0.05,0.96,0.11,2.47-0.11,3.84c-1.29,8.09-7.7,23.86-17.84,34.74" /><g><path d="M21,54.29c0.28,0.42,0.56,0.77,0.68,1.3c0.96,4.17,1.62,17.67,2.28,25.16" /><path d="M22.73,55.22c7.13-1.8,13.84-2.37,17.27-2.98c1.25-0.22,2.01,1.32,1.83,2.63c-0.74,5.42-2.67,11.97-3.77,19.47" /><path d="M24.09,78.06c6.91-0.31,9.41-0.81,16.41-1.08" /></g></g><g><g><g><path d="M67.28,11.62c0.12,0.24,1.68,1.24,1.8,2.74c0.58,7.23,0.35,13.79,0.35,16.26" /><path d="M50.11,18.08c2.94,1.92,7.58,7.9,8.32,10.88" /><path d="M87.75,15.75c0.02,0.3,0.05,0.77-0.04,1.2c-0.53,2.54-3.56,8.11-7.72,11.51" /></g><g><g><path d="M47.32,30.75c-0.1,4.31-1.8,12.93-2.64,15.5" /><path d="M47.5,34.2c2.34,0,33.1-3.42,44.86-4.15c8.12-0.5,5.29,3.71-0.46,8.21" /></g><g><path d="M55.62,43.04c0.33,0.28,0.71,0.5,0.82,0.86c0.94,3.19,2.14,10.41,3.09,15.1" /><path d="M57.52,44.03c4.22-0.67,20.99-1.99,24.88-2.66c0.98-0.17,2.12,0.82,1.7,2.74c-0.68,3.13-1.75,6.49-2.9,10.74" /><path d="M59.23,57.08c6.27-0.58,19.26-2.06,24.27-2.31" /></g></g></g><g><path d="M49.84,66.86c0.46,0.57,0.47,0.96,0.71,1.66c2.04,5.8,3,18.79,4.2,29.48" /><path d="M51.16,68.01c11.78-1.13,31.51-2.75,39.42-3.28c2.91-0.2,3.98,2.23,3.82,3.69C93.82,73.75,91.55,87.48,90.4,96" /><path d="M70.76,68.4c1.03,0.53,1.21,1.19,1.2,2.18c-0.06,6.53,0.29,19.99,0.29,22.36" /><path d="M53.38,81.44c3.33-0.31,34.75-2.66,37.51-2.66" /><path d="M55.5,95.1c8.07-0.88,24.69-2.03,34.51-2.21" /></g></g></g></g><g fill="none" stroke="#000" stroke-width="3" stroke-linecap="round" stroke-linejoin="round"><path d="M11.25,29.82c0.81,0.18,2.31,0.23,3.11,0.18c10.18-0.63,10.95-1.97,24.54-3.07c1.35-0.11,2.17,0.09,2.84,0.18" stroke-dasharray="30.722" stroke-dashoffset="30.722"><animate attributeName="stroke-dashoffset" values="30.722;30.722;0" dur="0.307s" fill="freeze" begin="0s;7911.click" /></path><path d="M25.44,31.68c0.05,0.96,0.11,2.47-0.11,3.84c-1.29,8.09-7.7,23.86-17.84,34.74" stroke-dasharray="43.354" stroke-dashoffset="43.354"><animate attributeName="stroke-dashoffset" values="43.354" fill="freeze" begin="7911.click" /><animate attributeName="stroke-dashoffset" values="43.354;43.354;0" keyTimes="0;0.414;1" dur="0.741s" fill="freeze" begin="0s;7911.click" /></path><path d="M21,54.29c0.28,0.42,0.56,0.77,0.68,1.3c0.96,4.17,1.62,17.67,2.28,25.16" stroke-dasharray="26.753" stroke-dashoffset="26.753"><animate attributeName="stroke-dashoffset" values="26.753" fill="freeze" begin="7911.click" /><animate attributeName="stroke-dashoffset" values="26.753;26.753;0" keyTimes="0;0.734;1" dur="1.009s" fill="freeze" begin="0s;7911.click" /></path><path d="M22.73,55.22c7.13-1.8,13.84-2.37,17.27-2.98c1.25-0.22,2.01,1.32,1.83,2.63c-0.74,5.42-2.67,11.97-3.77,19.47" stroke-dasharray="41.074" stroke-dashoffset="41.074"><animate attributeName="stroke-dashoffset" values="41.074" fill="freeze" begin="7911.click" /><animate attributeName="stroke-dashoffset" values="41.074;41.074;0" keyTimes="0;0.711;1" dur="1.42s" fill="freeze" begin="0s;7911.click" /></path><path d="M24.09,78.06c6.91-0.31,9.41-0.81,16.41-1.08" stroke-dasharray="16.448" stroke-dashoffset="16.448"><animate attributeName="stroke-dashoffset" values="16.448" fill="freeze" begin="7911.click" /><animate attributeName="stroke-dashoffset" values="16.448;16.448;0" keyTimes="0;0.896;1" dur="1.584s" fill="freeze" begin="0s;7911.click" /></path><path d="M67.28,11.62c0.12,0.24,1.68,1.24,1.8,2.74c0.58,7.23,0.35,13.79,0.35,16.26" stroke-dasharray="19.632" stroke-dashoffset="19.632"><animate attributeName="stroke-dashoffset" values="19.632" fill="freeze" begin="7911.click" /><animate attributeName="stroke-dashoffset" values="19.632;19.632;0" keyTimes="0;0.89;1" dur="1.78s" fill="freeze" begin="0s;7911.click" /></path><path d="M50.11,18.08c2.94,1.92,7.58,7.9,8.32,10.88" stroke-dasharray="13.879" stroke-dashoffset="13.879"><animate attributeName="stroke-dashoffset" values="13.879" fill="freeze" begin="7911.click" /><animate attributeName="stroke-dashoffset" values="13.879;13.879;0" keyTimes="0;0.865;1" dur="2.058s" fill="freeze" begin="0s;7911.click" /></path><path d="M87.75,15.75c0.02,0.3,0.05,0.77-0.04,1.2c-0.53,2.54-3.56,8.11-7.72,11.51" stroke-dasharray="15.257" stroke-dashoffset="15.257"><animate attributeName="stroke-dashoffset" values="15.257" fill="freeze" begin="7911.click" /><animate attributeName="stroke-dashoffset" values="15.257;15.257;0" keyTimes="0;0.931;1" dur="2.211s" fill="freeze" begin="0s;7911.click" /></path><path d="M47.32,30.75c-0.1,4.31-1.8,12.93-2.64,15.5" stroke-dasharray="15.754" stroke-dashoffset="15.754"><animate attributeName="stroke-dashoffset" values="15.754" fill="freeze" begin="7911.click" /><animate attributeName="stroke-dashoffset" values="15.754;15.754;0" keyTimes="0;0.933;1" dur="2.369s" fill="freeze" begin="0s;7911.click" /></path><path d="M47.5,34.2c2.34,0,33.1-3.42,44.86-4.15c8.12-0.5,5.29,3.71-0.46,8.21" stroke-dasharray="59.623" stroke-dashoffset="59.623"><animate attributeName="stroke-dashoffset" values="59.623" fill="freeze" begin="7911.click" /><animate attributeName="stroke-dashoffset" values="59.623;59.623;0" keyTimes="0;0.799;1" dur="2.965s" fill="freeze" begin="0s;7911.click" /></path><path d="M55.62,43.04c0.33,0.28,0.71,0.5,0.82,0.86c0.94,3.19,2.14,10.41,3.09,15.1" stroke-dasharray="16.624" stroke-dashoffset="16.624"><animate attributeName="stroke-dashoffset" values="16.624" fill="freeze" begin="7911.click" /><animate attributeName="stroke-dashoffset" values="16.624;16.624;0" keyTimes="0;0.947;1" dur="3.131s" fill="freeze" begin="0s;7911.click" /></path><path d="M57.52,44.03c4.22-0.67,20.99-1.99,24.88-2.66c0.98-0.17,2.12,0.82,1.7,2.74c-0.68,3.13-1.75,6.49-2.9,10.74" stroke-dasharray="39.971" stroke-dashoffset="39.971"><animate attributeName="stroke-dashoffset" values="39.971" fill="freeze" begin="7911.click" /><animate attributeName="stroke-dashoffset" values="39.971;39.971;0" keyTimes="0;0.887;1" dur="3.531s" fill="freeze" begin="0s;7911.click" /></path><path d="M59.23,57.08c6.27-0.58,19.26-2.06,24.27-2.31" stroke-dasharray="24.382" stroke-dashoffset="24.382"><animate attributeName="stroke-dashoffset" values="24.382" fill="freeze" begin="7911.click" /><animate attributeName="stroke-dashoffset" values="24.382;24.382;0" keyTimes="0;0.935;1" dur="3.775s" fill="freeze" begin="0s;7911.click" /></path><path d="M49.84,66.86c0.46,0.57,0.47,0.96,0.71,1.66c2.04,5.8,3,18.79,4.2,29.48" stroke-dasharray="31.642" stroke-dashoffset="31.642"><animate attributeName="stroke-dashoffset" values="31.642" fill="freeze" begin="7911.click" /><animate attributeName="stroke-dashoffset" values="31.642;31.642;0" keyTimes="0;0.923;1" dur="4.091s" fill="freeze" begin="0s;7911.click" /></path><path d="M51.16,68.01c11.78-1.13,31.51-2.75,39.42-3.28c2.91-0.2,3.98,2.23,3.82,3.69C93.82,73.75,91.55,87.48,90.4,96" stroke-dasharray="73.507" stroke-dashoffset="73.507"><animate attributeName="stroke-dashoffset" values="73.507" fill="freeze" begin="7911.click" /><animate attributeName="stroke-dashoffset" values="73.507;73.507;0" keyTimes="0;0.881;1" dur="4.644s" fill="freeze" begin="0s;7911.click" /></path><path d="M70.76,68.4c1.03,0.53,1.21,1.19,1.2,2.18c-0.06,6.53,0.29,19.99,0.29,22.36" stroke-dasharray="25.029" stroke-dashoffset="25.029"><animate attributeName="stroke-dashoffset" values="25.029" fill="freeze" begin="7911.click" /><animate attributeName="stroke-dashoffset" values="25.029;25.029;0" keyTimes="0;0.949;1" dur="4.894s" fill="freeze" begin="0s;7911.click" /></path><path d="M53.38,81.44c3.33-0.31,34.75-2.66,37.51-2.66" stroke-dasharray="37.607" stroke-dashoffset="37.607"><animate attributeName="stroke-dashoffset" values="37.607" fill="freeze" begin="7911.click" /><animate attributeName="stroke-dashoffset" values="37.607;37.607;0" keyTimes="0;0.929;1" dur="5.27s" fill="freeze" begin="0s;7911.click" /></path><path d="M55.5,95.1c8.07-0.88,24.69-2.03,34.51-2.21" stroke-dasharray="34.59" stroke-dashoffset="34.59"><animate attributeName="stroke-dashoffset" values="34.59" fill="freeze" begin="7911.click" /><animate attributeName="stroke-dashoffset" values="34.59;34.59;0" keyTimes="0;0.938;1" dur="5.616s" fill="freeze" begin="0s;7911.click" /></path></g></svg>