<svg xmlns="http://www.w3.org/2000/svg" viewBox="0 0 109 109" id="7985"><g fill="none" stroke="#666" stroke-width="6" stroke-linecap="round" stroke-linejoin="round"><g><g><path d="M26.75,12.75c2.93,2.47,6.07,6.17,8.58,10.5" /><path d="M13.33,36.25c1.8,0.8,5.02,0.66,6.92,0.24c4.47-0.97,14.75-3.37,16.83-3.99c2.5-0.75,4.02,1.51,2.5,3.75c-5.25,7.75-17,23-25.75,30.75" /><path d="M28,53.36c0.88,0.88,1.27,2.26,1.27,3.89c0,8.92,0.03,24.29,0.05,33.5c0,2.41,0.01,4.4,0.01,5.75" /><path d="M32.58,49.5c3.33,2.53,6.9,6.32,9.75,10.75" /></g><g p4:phon="単" xmlns:p4="http://kanjivg.tagaini.net"><g><path d="M48.57,17.4c2.93,3.51,6.06,9.64,6.48,11.39" /><path d="M64.51,12.75c1.42,2.34,4.81,8.49,5.38,12.29" /><path d="M89.32,11.75c0.31,1,0.06,2-0.51,3.03c-1.57,2.84-4.68,7.35-7.62,10.35" /></g><g><g p4:partial><path d="M48.77,34.41c0.85,0.59,1.6,1.47,1.95,3.07c0.93,4.33,2.37,12.77,3.27,18.38c0.44,2.78,0.75,4.86,0.8,5.41" /><path d="M51.09,35.75c9.96-1.5,25.46-3.03,33.4-3.89c4.73-0.52,6.03,1.14,5.41,5.77C89.3,42.14,88,49.54,87.1,54.07c-0.44,2.2-1.04,3.84-1.17,4.39" /><path d="M53.74,46.72c9.76-1.1,25.26-2.47,33.97-2.81" /><path d="M55.79,58.56c6.96-0.81,20.09-1.81,30.47-2.29" /></g><g><path d="M44.34,71.11c2.82,0.64,5.72,0.27,8.56,0c9.45-0.89,23.11-2.29,35.23-3.06c3.58-0.23,7.25-0.3,10.29,0.48" /></g><g><g><path d="M68.71,35.49c1.03,1.03,1.25,2.26,1.25,3.58c0,6.62-0.1,36.92-0.04,51.69c0.02,4.37,0.03,7.37,0.04,8.01" /></g></g></g></g></g></g><g fill="none" stroke="#000" stroke-width="3" stroke-linecap="round" stroke-linejoin="round"><path d="M26.75,12.75c2.93,2.47,6.07,6.17,8.58,10.5" stroke-dasharray="13.624" stroke-dashoffset="13.624"><animate attributeName="stroke-dashoffset" values="13.624;13.624;0" dur="0.272s" fill="freeze" begin="0s;7985.click" /></path><path d="M13.33,36.25c1.8,0.8,5.02,0.66,6.92,0.24c4.47-0.97,14.75-3.37,16.83-3.99c2.5-0.75,4.02,1.51,2.5,3.75c-5.25,7.75-17,23-25.75,30.75" stroke-dasharray="70.759" stroke-dashoffset="70.759"><animate attributeName="stroke-dashoffset" values="70.759" fill="freeze" begin="7985.click" /><animate attributeName="stroke-dashoffset" values="70.759;70.759;0" keyTimes="0;0.338;1" dur="0.804s" fill="freeze" begin="0s;7985.click" /></path><path d="M28,53.36c0.88,0.88,1.27,2.26,1.27,3.89c0,8.92,0.03,24.29,0.05,33.5c0,2.41,0.01,4.4,0.01,5.75" stroke-dasharray="43.449" stroke-dashoffset="43.449"><animate attributeName="stroke-dashoffset" values="43.449" fill="freeze" begin="7985.click" /><animate attributeName="stroke-dashoffset" values="43.449;43.449;0" keyTimes="0;0.649;1" dur="1.238s" fill="freeze" begin="0s;7985.click" /></path><path d="M32.58,49.5c3.33,2.53,6.9,6.32,9.75,10.75" stroke-dasharray="14.584" stroke-dashoffset="14.584"><animate attributeName="stroke-dashoffset" values="14.584" fill="freeze" begin="7985.click" /><animate attributeName="stroke-dashoffset" values="14.584;14.584;0" keyTimes="0;0.809;1" dur="1.53s" fill="freeze" begin="0s;7985.click" /></path><path d="M48.57,17.4c2.93,3.51,6.06,9.64,6.48,11.39" stroke-dasharray="13.164" stroke-dashoffset="13.164"><animate attributeName="stroke-dashoffset" values="13.164" fill="freeze" begin="7985.click" /><animate attributeName="stroke-dashoffset" values="13.164;13.164;0" keyTimes="0;0.853;1" dur="1.793s" fill="freeze" begin="0s;7985.click" /></path><path d="M64.51,12.75c1.42,2.34,4.81,8.49,5.38,12.29" stroke-dasharray="13.481" stroke-dashoffset="13.481"><animate attributeName="stroke-dashoffset" values="13.481" fill="freeze" begin="7985.click" /><animate attributeName="stroke-dashoffset" values="13.481;13.481;0" keyTimes="0;0.869;1" dur="2.063s" fill="freeze" begin="0s;7985.click" /></path><path d="M89.32,11.75c0.31,1,0.06,2-0.51,3.03c-1.57,2.84-4.68,7.35-7.62,10.35" stroke-dasharray="16.048" stroke-dashoffset="16.048"><animate attributeName="stroke-dashoffset" values="16.048" fill="freeze" begin="7985.click" /><animate attributeName="stroke-dashoffset" values="16.048;16.048;0" keyTimes="0;0.928;1" dur="2.223s" fill="freeze" begin="0s;7985.click" /></path><path d="M48.77,34.41c0.85,0.59,1.6,1.47,1.95,3.07c0.93,4.33,2.37,12.77,3.27,18.38c0.44,2.78,0.75,4.86,0.8,5.41" stroke-dasharray="27.872" stroke-dashoffset="27.872"><animate attributeName="stroke-dashoffset" values="27.872" fill="freeze" begin="7985.click" /><animate attributeName="stroke-dashoffset" values="27.872;27.872;0" keyTimes="0;0.888;1" dur="2.502s" fill="freeze" begin="0s;7985.click" /></path><path d="M51.09,35.75c9.96-1.5,25.46-3.03,33.4-3.89c4.73-0.52,6.03,1.14,5.41,5.77C89.3,42.14,88,49.54,87.1,54.07c-0.44,2.2-1.04,3.84-1.17,4.39" stroke-dasharray="64.848" stroke-dashoffset="64.848"><animate attributeName="stroke-dashoffset" values="64.848" fill="freeze" begin="7985.click" /><animate attributeName="stroke-dashoffset" values="64.848;64.848;0" keyTimes="0;0.837;1" dur="2.99s" fill="freeze" begin="0s;7985.click" /></path><path d="M53.74,46.72c9.76-1.1,25.26-2.47,33.97-2.81" stroke-dasharray="34.092" stroke-dashoffset="34.092"><animate attributeName="stroke-dashoffset" values="34.092" fill="freeze" begin="7985.click" /><animate attributeName="stroke-dashoffset" values="34.092;34.092;0" keyTimes="0;0.898;1" dur="3.331s" fill="freeze" begin="0s;7985.click" /></path><path d="M55.79,58.56c6.96-0.81,20.09-1.81,30.47-2.29" stroke-dasharray="30.561" stroke-dashoffset="30.561"><animate attributeName="stroke-dashoffset" values="30.561" fill="freeze" begin="7985.click" /><animate attributeName="stroke-dashoffset" values="30.561;30.561;0" keyTimes="0;0.916;1" dur="3.637s" fill="freeze" begin="0s;7985.click" /></path><path d="M44.34,71.11c2.82,0.64,5.72,0.27,8.56,0c9.45-0.89,23.11-2.29,35.23-3.06c3.58-0.23,7.25-0.3,10.29,0.48" stroke-dasharray="54.307" stroke-dashoffset="54.307"><animate attributeName="stroke-dashoffset" values="54.307" fill="freeze" begin="7985.click" /><animate attributeName="stroke-dashoffset" values="54.307;54.307;0" keyTimes="0;0.87;1" dur="4.18s" fill="freeze" begin="0s;7985.click" /></path><path d="M68.71,35.49c1.03,1.03,1.25,2.26,1.25,3.58c0,6.62-0.1,36.92-0.04,51.69c0.02,4.37,0.03,7.37,0.04,8.01" stroke-dasharray="63.604" stroke-dashoffset="63.604"><animate attributeName="stroke-dashoffset" values="63.604" fill="freeze" begin="7985.click" /><animate attributeName="stroke-dashoffset" values="63.604;63.604;0" keyTimes="0;0.897;1" dur="4.658s" fill="freeze" begin="0s;7985.click" /></path></g></svg>