<svg xmlns="http://www.w3.org/2000/svg" viewBox="0 0 109 109" id="79e4"><g fill="none" stroke="#666" stroke-width="6" stroke-linecap="round" stroke-linejoin="round"><g><g><g><path d="M39.25,14.75c0.07,0.34,0.14,0.87-0.14,1.35c-1.63,2.84-11.02,9.08-23.86,12.9" /></g><g><path d="M11.37,43.34c0.35,0.23,1.27,0.59,2.19,0.67c2.54,0.22,23.34-3.35,29.69-4.47c0.92-0.16,1.15-0.22,1.73,0" /><path d="M31.75,25.66c0.44,0.5,0.71,2.26,0.8,3.27c0.09,1.01,0,60.79-0.09,67.08" /><path d="M32.43,42.47C28.44,53.46,21.78,67.01,12.75,76" /><path d="M35.25,50.75c3.04,2.57,5.61,7.7,7.25,11" /></g></g><g><g><path d="M50.26,19.42c0.78,0.23,3.46,0.25,4.24,0.21c5.38-0.27,23.2-3.45,32.38-3.91c1.29-0.06,4.01,0.2,4.66,0.32" /></g><path d="M57.34,26.23c0.03,0.43,0.06,1.11-0.05,1.73c-0.63,3.65-4.27,11.67-9.24,16.58" /><path d="M81.98,24.17c5.78,3.11,12.17,9.65,13.61,14.5" /><g><g><path d="M46,54.22c1.21,0.4,3.45,0.55,4.65,0.4c12.9-1.62,28.86-2.37,45.1-3.73c2.01-0.17,3.24,0.19,4.25,0.39" /><path d="M70.35,19.32c0.41,0.47,1.26,3.49,1.34,4.42c0.08,0.93-0.05,66.07-0.13,71.89" /></g></g></g></g></g><g fill="none" stroke="#000" stroke-width="3" stroke-linecap="round" stroke-linejoin="round"><path d="M39.25,14.75c0.07,0.34,0.14,0.87-0.14,1.35c-1.63,2.84-11.02,9.08-23.86,12.9" stroke-dasharray="28.853" stroke-dashoffset="28.853"><animate attributeName="stroke-dashoffset" values="28.853;28.853;0" dur="0.289s" fill="freeze" begin="0s;79e4.click" /></path><path d="M11.37,43.34c0.35,0.23,1.27,0.59,2.19,0.67c2.54,0.22,23.34-3.35,29.69-4.47c0.92-0.16,1.15-0.22,1.73,0" stroke-dasharray="34.108" stroke-dashoffset="34.108"><animate attributeName="stroke-dashoffset" values="34.108" fill="freeze" begin="79e4.click" /><animate attributeName="stroke-dashoffset" values="34.108;34.108;0" keyTimes="0;0.459;1" dur="0.63s" fill="freeze" begin="0s;79e4.click" /></path><path d="M31.75,25.66c0.44,0.5,0.71,2.26,0.8,3.27c0.09,1.01,0,60.79-0.09,67.08" stroke-dasharray="70.479" stroke-dashoffset="70.479"><animate attributeName="stroke-dashoffset" values="70.479" fill="freeze" begin="79e4.click" /><animate attributeName="stroke-dashoffset" values="70.479;70.479;0" keyTimes="0;0.543;1" dur="1.16s" fill="freeze" begin="0s;79e4.click" /></path><path d="M32.43,42.47C28.44,53.46,21.78,67.01,12.75,76" stroke-dasharray="39.17" stroke-dashoffset="39.17"><animate attributeName="stroke-dashoffset" values="39.17" fill="freeze" begin="79e4.click" /><animate attributeName="stroke-dashoffset" values="39.17;39.17;0" keyTimes="0;0.747;1" dur="1.552s" fill="freeze" begin="0s;79e4.click" /></path><path d="M35.25,50.75c3.04,2.57,5.61,7.7,7.25,11" stroke-dasharray="13.257" stroke-dashoffset="13.257"><animate attributeName="stroke-dashoffset" values="13.257" fill="freeze" begin="79e4.click" /><animate attributeName="stroke-dashoffset" values="13.257;13.257;0" keyTimes="0;0.854;1" dur="1.817s" fill="freeze" begin="0s;79e4.click" /></path><path d="M50.26,19.42c0.78,0.23,3.46,0.25,4.24,0.21c5.38-0.27,23.2-3.45,32.38-3.91c1.29-0.06,4.01,0.2,4.66,0.32" stroke-dasharray="41.555" stroke-dashoffset="41.555"><animate attributeName="stroke-dashoffset" values="41.555" fill="freeze" begin="79e4.click" /><animate attributeName="stroke-dashoffset" values="41.555;41.555;0" keyTimes="0;0.814;1" dur="2.233s" fill="freeze" begin="0s;79e4.click" /></path><path d="M57.34,26.23c0.03,0.43,0.06,1.11-0.05,1.73c-0.63,3.65-4.27,11.67-9.24,16.58" stroke-dasharray="20.937" stroke-dashoffset="20.937"><animate attributeName="stroke-dashoffset" values="20.937" fill="freeze" begin="79e4.click" /><animate attributeName="stroke-dashoffset" values="20.937;20.937;0" keyTimes="0;0.914;1" dur="2.442s" fill="freeze" begin="0s;79e4.click" /></path><path d="M81.98,24.17c5.78,3.11,12.17,9.65,13.61,14.5" stroke-dasharray="20.276" stroke-dashoffset="20.276"><animate attributeName="stroke-dashoffset" values="20.276" fill="freeze" begin="79e4.click" /><animate attributeName="stroke-dashoffset" values="20.276;20.276;0" keyTimes="0;0.923;1" dur="2.645s" fill="freeze" begin="0s;79e4.click" /></path><path d="M46,54.22c1.21,0.4,3.45,0.55,4.65,0.4c12.9-1.62,28.86-2.37,45.1-3.73c2.01-0.17,3.24,0.19,4.25,0.39" stroke-dasharray="54.241" stroke-dashoffset="54.241"><animate attributeName="stroke-dashoffset" values="54.241" fill="freeze" begin="79e4.click" /><animate attributeName="stroke-dashoffset" values="54.241;54.241;0" keyTimes="0;0.83;1" dur="3.187s" fill="freeze" begin="0s;79e4.click" /></path><path d="M70.35,19.32c0.41,0.47,1.26,3.49,1.34,4.42c0.08,0.93-0.05,66.07-0.13,71.89" stroke-dasharray="76.533" stroke-dashoffset="76.533"><animate attributeName="stroke-dashoffset" values="76.533" fill="freeze" begin="79e4.click" /><animate attributeName="stroke-dashoffset" values="76.533;76.533;0" keyTimes="0;0.847;1" dur="3.762s" fill="freeze" begin="0s;79e4.click" /></path></g></svg>