<svg xmlns="http://www.w3.org/2000/svg" viewBox="0 0 109 109" id="7aea"><g fill="none" stroke="#666" stroke-width="6" stroke-linecap="round" stroke-linejoin="round"><g><g><g><path d="M17.64,15.65c0.32,1,0.85,2.56,0.96,3.06c0.11,0.5,0.47,37.46,0.41,40.61" /><path d="M18.71,17.85c3.44-0.44,19.21-3.2,27.2-3.74c1.21-0.08,1.94-0.16,2.55-0.04" /><path d="M32.51,16.58c0.53,0.24,0.85,1.12,0.96,1.62c0.11,0.5,0.15,6.82,0.09,9.98" /><path d="M19.07,29.97c8.22-1.09,18.72-2.21,24.43-2.96c2.31-0.3,2.97,0.73,2.66,2.09c-0.55,2.48-1.84,6.03-2.4,9.01" /><path d="M19.25,41.33c3.43-0.44,22.48-2.3,25.71-2.59" /><path d="M32.68,40.19c0.53,0.24,0.85,1.12,0.96,1.62c0.11,0.5,0.18,9.09,0.12,12.25" /><path d="M19.2,56.23c3.43-0.44,17.3-2.49,25.29-3.03c1.21-0.08,1.94-0.16,2.55-0.03" /></g><g><path d="M55.08,19.28c1.06,0.25,1.19,0.61,3.31,0.25c2.12-0.37,20.06-4.71,21.51-5.07c1.46-0.37,2.51,1.34,1.99,2.69c-6.23,15.89-17.22,27.63-29.15,33.62" /><path d="M54.71,25.44c3.51,0.65,20.65,17.9,32.87,24.98c1.9,1.1,3.29,1.83,5.06,2.2" /></g></g><g><g><path d="M53.23,55.5c0.62,0.62,1.54,2.01,1.54,3.6c0,2.52,0,2.07,0,8.9" /><path d="M28.5,69.79c1.93,0.22,3.89,0.28,4.89,0.24c5.65-0.21,37.03-2.85,45.57-3.03c1.67-0.03,3.96,0.12,4.79,0.24" /></g><g><path d="M37.5,72.5c3.18,6.63,5.21,14.63,5.5,19" /><path d="M69.18,71.5c0.49,0.6,0.37,1.59,0.16,2.18C67.71,78.27,62.64,90.36,61,93.5" /><path d="M16.25,95.8c1.75,0.45,5.17,0.51,6.62,0.39c17.38-1.44,47.88-2.19,66.28-3c2.43-0.11,5.35,0.05,7.1,0.88" /></g></g></g></g><g fill="none" stroke="#000" stroke-width="3" stroke-linecap="round" stroke-linejoin="round"><path d="M17.64,15.65c0.32,1,0.85,2.56,0.96,3.06c0.11,0.5,0.47,37.46,0.41,40.61" stroke-dasharray="43.822" stroke-dashoffset="43.822"><animate attributeName="stroke-dashoffset" values="43.822;43.822;0" dur="0.438s" fill="freeze" begin="0s;7aea.click" /></path><path d="M18.71,17.85c3.44-0.44,19.21-3.2,27.2-3.74c1.21-0.08,1.94-0.16,2.55-0.04" stroke-dasharray="30.02" stroke-dashoffset="30.02"><animate attributeName="stroke-dashoffset" values="30.02" fill="freeze" begin="7aea.click" /><animate attributeName="stroke-dashoffset" values="30.02;30.02;0" keyTimes="0;0.593;1" dur="0.738s" fill="freeze" begin="0s;7aea.click" /></path><path d="M32.51,16.58c0.53,0.24,0.85,1.12,0.96,1.62c0.11,0.5,0.15,6.82,0.09,9.98" stroke-dasharray="11.923" stroke-dashoffset="11.923"><animate attributeName="stroke-dashoffset" values="11.923" fill="freeze" begin="7aea.click" /><animate attributeName="stroke-dashoffset" values="11.923;11.923;0" keyTimes="0;0.756;1" dur="0.976s" fill="freeze" begin="0s;7aea.click" /></path><path d="M19.07,29.97c8.22-1.09,18.72-2.21,24.43-2.96c2.31-0.3,2.97,0.73,2.66,2.09c-0.55,2.48-1.84,6.03-2.4,9.01" stroke-dasharray="38.147" stroke-dashoffset="38.147"><animate attributeName="stroke-dashoffset" values="38.147" fill="freeze" begin="7aea.click" /><animate attributeName="stroke-dashoffset" values="38.147;38.147;0" keyTimes="0;0.719;1" dur="1.357s" fill="freeze" begin="0s;7aea.click" /></path><path d="M19.25,41.33c3.43-0.44,22.48-2.3,25.71-2.59" stroke-dasharray="25.842" stroke-dashoffset="25.842"><animate attributeName="stroke-dashoffset" values="25.842" fill="freeze" begin="7aea.click" /><animate attributeName="stroke-dashoffset" values="25.842;25.842;0" keyTimes="0;0.84;1" dur="1.615s" fill="freeze" begin="0s;7aea.click" /></path><path d="M32.68,40.19c0.53,0.24,0.85,1.12,0.96,1.62c0.11,0.5,0.18,9.09,0.12,12.25" stroke-dasharray="14.193" stroke-dashoffset="14.193"><animate attributeName="stroke-dashoffset" values="14.193" fill="freeze" begin="7aea.click" /><animate attributeName="stroke-dashoffset" values="14.193;14.193;0" keyTimes="0;0.85;1" dur="1.899s" fill="freeze" begin="0s;7aea.click" /></path><path d="M19.2,56.23c3.43-0.44,17.3-2.49,25.29-3.03c1.21-0.08,1.94-0.16,2.55-0.03" stroke-dasharray="28.034" stroke-dashoffset="28.034"><animate attributeName="stroke-dashoffset" values="28.034" fill="freeze" begin="7aea.click" /><animate attributeName="stroke-dashoffset" values="28.034;28.034;0" keyTimes="0;0.872;1" dur="2.179s" fill="freeze" begin="0s;7aea.click" /></path><path d="M55.08,19.28c1.06,0.25,1.19,0.61,3.31,0.25c2.12-0.37,20.06-4.71,21.51-5.07c1.46-0.37,2.51,1.34,1.99,2.69c-6.23,15.89-17.22,27.63-29.15,33.62" stroke-dasharray="75.041" stroke-dashoffset="75.041"><animate attributeName="stroke-dashoffset" values="75.041" fill="freeze" begin="7aea.click" /><animate attributeName="stroke-dashoffset" values="75.041;75.041;0" keyTimes="0;0.794;1" dur="2.743s" fill="freeze" begin="0s;7aea.click" /></path><path d="M54.71,25.44c3.51,0.65,20.65,17.9,32.87,24.98c1.9,1.1,3.29,1.83,5.06,2.2" stroke-dasharray="46.918" stroke-dashoffset="46.918"><animate attributeName="stroke-dashoffset" values="46.918" fill="freeze" begin="7aea.click" /><animate attributeName="stroke-dashoffset" values="46.918;46.918;0" keyTimes="0;0.854;1" dur="3.212s" fill="freeze" begin="0s;7aea.click" /></path><path d="M53.23,55.5c0.62,0.62,1.54,2.01,1.54,3.6c0,2.52,0,2.07,0,8.9" stroke-dasharray="12.909" stroke-dashoffset="12.909"><animate attributeName="stroke-dashoffset" values="12.909" fill="freeze" begin="7aea.click" /><animate attributeName="stroke-dashoffset" values="12.909;12.909;0" keyTimes="0;0.926;1" dur="3.47s" fill="freeze" begin="0s;7aea.click" /></path><path d="M28.5,69.79c1.93,0.22,3.89,0.28,4.89,0.24c5.65-0.21,37.03-2.85,45.57-3.03c1.67-0.03,3.96,0.12,4.79,0.24" stroke-dasharray="55.373" stroke-dashoffset="55.373"><animate attributeName="stroke-dashoffset" values="55.373" fill="freeze" begin="7aea.click" /><animate attributeName="stroke-dashoffset" values="55.373;55.373;0" keyTimes="0;0.862;1" dur="4.024s" fill="freeze" begin="0s;7aea.click" /></path><path d="M37.5,72.5c3.18,6.63,5.21,14.63,5.5,19" stroke-dasharray="19.875" stroke-dashoffset="19.875"><animate attributeName="stroke-dashoffset" values="19.875" fill="freeze" begin="7aea.click" /><animate attributeName="stroke-dashoffset" values="19.875;19.875;0" keyTimes="0;0.953;1" dur="4.223s" fill="freeze" begin="0s;7aea.click" /></path><path d="M69.18,71.5c0.49,0.6,0.37,1.59,0.16,2.18C67.71,78.27,62.64,90.36,61,93.5" stroke-dasharray="23.786" stroke-dashoffset="23.786"><animate attributeName="stroke-dashoffset" values="23.786" fill="freeze" begin="7aea.click" /><animate attributeName="stroke-dashoffset" values="23.786;23.786;0" keyTimes="0;0.947;1" dur="4.461s" fill="freeze" begin="0s;7aea.click" /></path><path d="M16.25,95.8c1.75,0.45,5.17,0.51,6.62,0.39c17.38-1.44,47.88-2.19,66.28-3c2.43-0.11,5.35,0.05,7.1,0.88" stroke-dasharray="80.218" stroke-dashoffset="80.218"><animate attributeName="stroke-dashoffset" values="80.218" fill="freeze" begin="7aea.click" /><animate attributeName="stroke-dashoffset" values="80.218;80.218;0" keyTimes="0;0.881;1" dur="5.064s" fill="freeze" begin="0s;7aea.click" /></path></g></svg>