<svg xmlns="http://www.w3.org/2000/svg" viewBox="0 0 109 109" id="7b99"><g fill="none" stroke="#666" stroke-width="6" stroke-linecap="round" stroke-linejoin="round"><g><g><g><path d="M27.49,10.75c0.04,0.58,0.08,1.49-0.08,2.32c-0.97,4.89-6.54,15.61-14.16,22.18" /><path d="M27.25,24.26c4.45,0,18.75-2.81,23.75-2.81" /><path d="M34,25.75c1.96,1.36,5.07,5.6,5.56,7.72" /></g><g><path d="M62.99,10.25c0.04,0.51,0.16,1.34-0.08,2.06C61.14,17.69,56.24,25.38,49.75,32" /><path d="M60.98,21.36c5.08,0,23.19-3.97,28.9-3.97" /><path d="M75.02,22.75c0.02,0.21,0.05,0.55-0.04,0.85c-0.53,1.8-3.57,5.74-7.73,8.15" /></g></g><g><g><path d="M22.27,40.23c0.73,0.81,1.22,1.62,1.46,2.44c0.24,0.81,0.19,13.1,0.19,14.93c0,13.2-2.68,31.41-11.04,38.9" /><path d="M24.62,41.41c2.73-0.2,14.31-1.95,16.35-2.17c3.64-0.39,4.06,2.48,4.06,3.74c0,4.77-0.1,31.7-0.1,47.66c0,9.86-4.67,3.86-7.07,1.27" /><path d="M25.37,55.68c9.65-0.98,10.31-1.38,17.87-1.97" /><path d="M23.43,70.15c6.85-0.37,12.92-1.34,20.95-1.7" /></g><g><g><path d="M56.8,37.65c1.95,0.35,3.83,0.34,5.21,0.17c5.52-0.69,17.27-2.2,18.99-2.34c-0.63,0.05,3.75-0.23,3.23,3.38c-0.5,3.5-1.2,7.84-2.8,10.57c-3.44,5.87-3.68,2.57-6.81,0.03" /><path d="M58.19,38.86c0.34,0.38,0.54,1.71,0.6,2.48c0.07,0.76,0,52.4-0.07,57.16" /></g><g><path d="M59.65,63.25c2.05,0.74,4.78,0.62,6.52,0.25c1.74-0.37,15.17-3.19,16.37-3.55c2.21-0.66,3.95,0.54,3.53,1.9C81.43,76.84,75,88.25,64.08,96.31" /><path d="M63.44,65.28c2.91,0.75,17.11,20.81,27.23,29.03c1.58,1.28,2.72,2.13,4.19,2.56" /></g></g></g></g></g><g fill="none" stroke="#000" stroke-width="3" stroke-linecap="round" stroke-linejoin="round"><path d="M27.49,10.75c0.04,0.58,0.08,1.49-0.08,2.32c-0.97,4.89-6.54,15.61-14.16,22.18" stroke-dasharray="28.991" stroke-dashoffset="28.991"><animate attributeName="stroke-dashoffset" values="28.991;28.991;0" dur="0.29s" fill="freeze" begin="0s;7b99.click" /></path><path d="M27.25,24.26c4.45,0,18.75-2.81,23.75-2.81" stroke-dasharray="23.931" stroke-dashoffset="23.931"><animate attributeName="stroke-dashoffset" values="23.931" fill="freeze" begin="7b99.click" /><animate attributeName="stroke-dashoffset" values="23.931;23.931;0" keyTimes="0;0.548;1" dur="0.529s" fill="freeze" begin="0s;7b99.click" /></path><path d="M34,25.75c1.96,1.36,5.07,5.6,5.56,7.72" stroke-dasharray="9.637" stroke-dashoffset="9.637"><animate attributeName="stroke-dashoffset" values="9.637" fill="freeze" begin="7b99.click" /><animate attributeName="stroke-dashoffset" values="9.637;9.637;0" keyTimes="0;0.733;1" dur="0.722s" fill="freeze" begin="0s;7b99.click" /></path><path d="M62.99,10.25c0.04,0.51,0.16,1.34-0.08,2.06C61.14,17.69,56.24,25.38,49.75,32" stroke-dasharray="25.935" stroke-dashoffset="25.935"><animate attributeName="stroke-dashoffset" values="25.935" fill="freeze" begin="7b99.click" /><animate attributeName="stroke-dashoffset" values="25.935;25.935;0" keyTimes="0;0.736;1" dur="0.981s" fill="freeze" begin="0s;7b99.click" /></path><path d="M60.98,21.36c5.08,0,23.19-3.97,28.9-3.97" stroke-dasharray="29.193" stroke-dashoffset="29.193"><animate attributeName="stroke-dashoffset" values="29.193" fill="freeze" begin="7b99.click" /><animate attributeName="stroke-dashoffset" values="29.193;29.193;0" keyTimes="0;0.771;1" dur="1.273s" fill="freeze" begin="0s;7b99.click" /></path><path d="M75.02,22.75c0.02,0.21,0.05,0.55-0.04,0.85c-0.53,1.8-3.57,5.74-7.73,8.15" stroke-dasharray="12.274" stroke-dashoffset="12.274"><animate attributeName="stroke-dashoffset" values="12.274" fill="freeze" begin="7b99.click" /><animate attributeName="stroke-dashoffset" values="12.274;12.274;0" keyTimes="0;0.839;1" dur="1.518s" fill="freeze" begin="0s;7b99.click" /></path><path d="M22.27,40.23c0.73,0.81,1.22,1.62,1.46,2.44c0.24,0.81,0.19,13.1,0.19,14.93c0,13.2-2.68,31.41-11.04,38.9" stroke-dasharray="59.205" stroke-dashoffset="59.205"><animate attributeName="stroke-dashoffset" values="59.205" fill="freeze" begin="7b99.click" /><animate attributeName="stroke-dashoffset" values="59.205;59.205;0" keyTimes="0;0.719;1" dur="2.11s" fill="freeze" begin="0s;7b99.click" /></path><path d="M24.62,41.41c2.73-0.2,14.31-1.95,16.35-2.17c3.64-0.39,4.06,2.48,4.06,3.74c0,4.77-0.1,31.7-0.1,47.66c0,9.86-4.67,3.86-7.07,1.27" stroke-dasharray="83.625" stroke-dashoffset="83.625"><animate attributeName="stroke-dashoffset" values="83.625" fill="freeze" begin="7b99.click" /><animate attributeName="stroke-dashoffset" values="83.625;83.625;0" keyTimes="0;0.77;1" dur="2.739s" fill="freeze" begin="0s;7b99.click" /></path><path d="M25.37,55.68c9.65-0.98,10.31-1.38,17.87-1.97" stroke-dasharray="17.981" stroke-dashoffset="17.981"><animate attributeName="stroke-dashoffset" values="17.981" fill="freeze" begin="7b99.click" /><animate attributeName="stroke-dashoffset" values="17.981;17.981;0" keyTimes="0;0.938;1" dur="2.919s" fill="freeze" begin="0s;7b99.click" /></path><path d="M23.43,70.15c6.85-0.37,12.92-1.34,20.95-1.7" stroke-dasharray="21.022" stroke-dashoffset="21.022"><animate attributeName="stroke-dashoffset" values="21.022" fill="freeze" begin="7b99.click" /><animate attributeName="stroke-dashoffset" values="21.022;21.022;0" keyTimes="0;0.933;1" dur="3.129s" fill="freeze" begin="0s;7b99.click" /></path><path d="M56.8,37.65c1.95,0.35,3.83,0.34,5.21,0.17c5.52-0.69,17.27-2.2,18.99-2.34c-0.63,0.05,3.75-0.23,3.23,3.38c-0.5,3.5-1.2,7.84-2.8,10.57c-3.44,5.87-3.68,2.57-6.81,0.03" stroke-dasharray="50.546" stroke-dashoffset="50.546"><animate attributeName="stroke-dashoffset" values="50.546" fill="freeze" begin="7b99.click" /><animate attributeName="stroke-dashoffset" values="50.546;50.546;0" keyTimes="0;0.861;1" dur="3.634s" fill="freeze" begin="0s;7b99.click" /></path><path d="M58.19,38.86c0.34,0.38,0.54,1.71,0.6,2.48c0.07,0.76,0,52.4-0.07,57.16" stroke-dasharray="59.738" stroke-dashoffset="59.738"><animate attributeName="stroke-dashoffset" values="59.738" fill="freeze" begin="7b99.click" /><animate attributeName="stroke-dashoffset" values="59.738;59.738;0" keyTimes="0;0.859;1" dur="4.231s" fill="freeze" begin="0s;7b99.click" /></path><path d="M59.65,63.25c2.05,0.74,4.78,0.62,6.52,0.25c1.74-0.37,15.17-3.19,16.37-3.55c2.21-0.66,3.95,0.54,3.53,1.9C81.43,76.84,75,88.25,64.08,96.31" stroke-dasharray="69.838" stroke-dashoffset="69.838"><animate attributeName="stroke-dashoffset" values="69.838" fill="freeze" begin="7b99.click" /><animate attributeName="stroke-dashoffset" values="69.838;69.838;0" keyTimes="0;0.89;1" dur="4.756s" fill="freeze" begin="0s;7b99.click" /></path><path d="M63.44,65.28c2.91,0.75,17.11,20.81,27.23,29.03c1.58,1.28,2.72,2.13,4.19,2.56" stroke-dasharray="44.846" stroke-dashoffset="44.846"><animate attributeName="stroke-dashoffset" values="44.846" fill="freeze" begin="7b99.click" /><animate attributeName="stroke-dashoffset" values="44.846;44.846;0" keyTimes="0;0.914;1" dur="5.204s" fill="freeze" begin="0s;7b99.click" /></path></g></svg>