<svg xmlns="http://www.w3.org/2000/svg" viewBox="0 0 109 109" id="7b9d"><g fill="none" stroke="#666" stroke-width="6" stroke-linecap="round" stroke-linejoin="round"><g><g><g><path d="M30,10.25c0.04,0.58,0.09,1.49-0.09,2.32c-1.06,4.89-7.12,15.61-15.42,22.18" /><path d="M28.48,21.69c3.85,0,16.2-1.85,20.52-1.85" /><path d="M33.25,22.5c2.49,1.63,6.44,6.69,7.06,9.22" /></g><g><path d="M64.48,9.5c0.03,0.43,0.14,1.12-0.07,1.73c-1.6,4.52-6.04,10.97-11.91,16.52" /><path d="M62.75,18.73c5.08,0,23.68-2.88,29.38-2.88" /><path d="M77.49,19.5c0.03,0.28,0.06,0.71-0.05,1.11c-0.65,2.34-4.36,7.49-9.44,10.64" /></g></g><g><g><path d="M18.06,53.86c2.11,0.23,1.28,0.5,3.54,0.23c5.56-0.68,13.14-1.82,22.41-2.88" /><path d="M33.6,36.25c0.47,0.71,1.62,1.93,1.7,4.28c0.39,11.28,0.24,49.95,0.24,53.8c0,11.05-6.12,2.74-7.51,1.55" /><path d="M13.87,77.83c2.45,1.5,4.03,0.81,6.48-0.47c1.44-0.76,20.28-11.84,26.41-15.48" /></g><g><g><g><path d="M49,50.01c1.31,0.35,3.7,0.43,5.01,0.35c9.62-0.64,24.42-2.58,40.19-3.42c2.17-0.12,3.48,0.17,4.57,0.34" /><path d="M59.48,36.03c0.78,0.38,1.25,1.73,1.4,2.5c0.16,0.77,0,56.15-0.16,60.96" /></g><path d="M82.79,32.41c1.04,0.4,1.66,1.81,1.87,2.62c0.21,0.81,0,58.71-0.21,63.75" /></g><path d="M62.38,70.28c5.23-0.3,19.31-1.71,22.12-1.71" /><g><path d="M62.13,95.84c6.19-0.12,16.52-0.85,22.23-0.97" /></g></g></g></g></g><g fill="none" stroke="#000" stroke-width="3" stroke-linecap="round" stroke-linejoin="round"><path d="M30,10.25c0.04,0.58,0.09,1.49-0.09,2.32c-1.06,4.89-7.12,15.61-15.42,22.18" stroke-dasharray="29.726" stroke-dashoffset="29.726"><animate attributeName="stroke-dashoffset" values="29.726;29.726;0" dur="0.297s" fill="freeze" begin="0s;7b9d.click" /></path><path d="M28.48,21.69c3.85,0,16.2-1.85,20.52-1.85" stroke-dasharray="20.611" stroke-dashoffset="20.611"><animate attributeName="stroke-dashoffset" values="20.611" fill="freeze" begin="7b9d.click" /><animate attributeName="stroke-dashoffset" values="20.611;20.611;0" keyTimes="0;0.59;1" dur="0.503s" fill="freeze" begin="0s;7b9d.click" /></path><path d="M33.25,22.5c2.49,1.63,6.44,6.69,7.06,9.22" stroke-dasharray="11.769" stroke-dashoffset="11.769"><animate attributeName="stroke-dashoffset" values="11.769" fill="freeze" begin="7b9d.click" /><animate attributeName="stroke-dashoffset" values="11.769;11.769;0" keyTimes="0;0.682;1" dur="0.738s" fill="freeze" begin="0s;7b9d.click" /></path><path d="M64.48,9.5c0.03,0.43,0.14,1.12-0.07,1.73c-1.6,4.52-6.04,10.97-11.91,16.52" stroke-dasharray="22.271" stroke-dashoffset="22.271"><animate attributeName="stroke-dashoffset" values="22.271" fill="freeze" begin="7b9d.click" /><animate attributeName="stroke-dashoffset" values="22.271;22.271;0" keyTimes="0;0.768;1" dur="0.961s" fill="freeze" begin="0s;7b9d.click" /></path><path d="M62.75,18.73c5.08,0,23.68-2.88,29.38-2.88" stroke-dasharray="29.532" stroke-dashoffset="29.532"><animate attributeName="stroke-dashoffset" values="29.532" fill="freeze" begin="7b9d.click" /><animate attributeName="stroke-dashoffset" values="29.532;29.532;0" keyTimes="0;0.765;1" dur="1.256s" fill="freeze" begin="0s;7b9d.click" /></path><path d="M77.49,19.5c0.03,0.28,0.06,0.71-0.05,1.11c-0.65,2.34-4.36,7.49-9.44,10.64" stroke-dasharray="15.57" stroke-dashoffset="15.57"><animate attributeName="stroke-dashoffset" values="15.57" fill="freeze" begin="7b9d.click" /><animate attributeName="stroke-dashoffset" values="15.57;15.57;0" keyTimes="0;0.89;1" dur="1.412s" fill="freeze" begin="0s;7b9d.click" /></path><path d="M18.06,53.86c2.11,0.23,1.28,0.5,3.54,0.23c5.56-0.68,13.14-1.82,22.41-2.88" stroke-dasharray="26.171" stroke-dashoffset="26.171"><animate attributeName="stroke-dashoffset" values="26.171" fill="freeze" begin="7b9d.click" /><animate attributeName="stroke-dashoffset" values="26.171;26.171;0" keyTimes="0;0.843;1" dur="1.674s" fill="freeze" begin="0s;7b9d.click" /></path><path d="M33.6,36.25c0.47,0.71,1.62,1.93,1.7,4.28c0.39,11.28,0.24,49.95,0.24,53.8c0,11.05-6.12,2.74-7.51,1.55" stroke-dasharray="71.99" stroke-dashoffset="71.99"><animate attributeName="stroke-dashoffset" values="71.99" fill="freeze" begin="7b9d.click" /><animate attributeName="stroke-dashoffset" values="71.99;71.99;0" keyTimes="0;0.756;1" dur="2.215s" fill="freeze" begin="0s;7b9d.click" /></path><path d="M13.87,77.83c2.45,1.5,4.03,0.81,6.48-0.47c1.44-0.76,20.28-11.84,26.41-15.48" stroke-dasharray="37.525" stroke-dashoffset="37.525"><animate attributeName="stroke-dashoffset" values="37.525" fill="freeze" begin="7b9d.click" /><animate attributeName="stroke-dashoffset" values="37.525;37.525;0" keyTimes="0;0.855;1" dur="2.59s" fill="freeze" begin="0s;7b9d.click" /></path><path d="M49,50.01c1.31,0.35,3.7,0.43,5.01,0.35c9.62-0.64,24.42-2.58,40.19-3.42c2.17-0.12,3.48,0.17,4.57,0.34" stroke-dasharray="49.972" stroke-dashoffset="49.972"><animate attributeName="stroke-dashoffset" values="49.972" fill="freeze" begin="7b9d.click" /><animate attributeName="stroke-dashoffset" values="49.972;49.972;0" keyTimes="0;0.838;1" dur="3.09s" fill="freeze" begin="0s;7b9d.click" /></path><path d="M59.48,36.03c0.78,0.38,1.25,1.73,1.4,2.5c0.16,0.77,0,56.15-0.16,60.96" stroke-dasharray="63.911" stroke-dashoffset="63.911"><animate attributeName="stroke-dashoffset" values="63.911" fill="freeze" begin="7b9d.click" /><animate attributeName="stroke-dashoffset" values="63.911;63.911;0" keyTimes="0;0.865;1" dur="3.571s" fill="freeze" begin="0s;7b9d.click" /></path><path d="M82.79,32.41c1.04,0.4,1.66,1.81,1.87,2.62c0.21,0.81,0,58.71-0.21,63.75" stroke-dasharray="67.08" stroke-dashoffset="67.08"><animate attributeName="stroke-dashoffset" values="67.08" fill="freeze" begin="7b9d.click" /><animate attributeName="stroke-dashoffset" values="67.08;67.08;0" keyTimes="0;0.876;1" dur="4.075s" fill="freeze" begin="0s;7b9d.click" /></path><path d="M62.38,70.28c5.23-0.3,19.31-1.71,22.12-1.71" stroke-dasharray="22.189" stroke-dashoffset="22.189"><animate attributeName="stroke-dashoffset" values="22.189" fill="freeze" begin="7b9d.click" /><animate attributeName="stroke-dashoffset" values="22.189;22.189;0" keyTimes="0;0.948;1" dur="4.297s" fill="freeze" begin="0s;7b9d.click" /></path><path d="M62.13,95.84c6.19-0.12,16.52-0.85,22.23-0.97" stroke-dasharray="22.253" stroke-dashoffset="22.253"><animate attributeName="stroke-dashoffset" values="22.253" fill="freeze" begin="7b9d.click" /><animate attributeName="stroke-dashoffset" values="22.253;22.253;0" keyTimes="0;0.951;1" dur="4.52s" fill="freeze" begin="0s;7b9d.click" /></path></g></svg>