<svg xmlns="http://www.w3.org/2000/svg" viewBox="0 0 109 109" id="7c2b"><g fill="none" stroke="#666" stroke-width="6" stroke-linecap="round" stroke-linejoin="round"><g><g><g><path d="M26.75,9.75c0.04,0.54,0.08,1.38-0.08,2.15c-0.95,4.54-6.43,14.5-13.92,20.6" /><path d="M25.48,20.37c4.79,0,20.15-2.7,25.52-2.7" /><path d="M34.25,21.5c1.87,1.49,4.84,6.14,5.31,8.47" /></g><g><path d="M62.74,9.75c0.03,0.34,0.12,0.88-0.06,1.35c-1.3,3.53-4.91,8.57-9.69,12.9" /><path d="M62.48,18.8c5.53,0,25.81-3.2,32.02-3.2" /><path d="M79.51,17c0.03,0.28,0.07,0.73-0.07,1.14c-0.8,2.39-5.4,7.65-11.69,10.86" /></g></g><g><g><g><path d="M26.75,35.75c2.54,0.21,3.77,0.54,6.11,0.41c14.25-0.82,35.62-3.57,46.82-3.57c3.31,0,4.58,1.02,4.07,3.07c-1.33,5.36-2.29,8.2-2.54,13.53" /><path d="M15,44.84c2.43,0.23,4.33,0.67,7.03,0.46c23.51-1.83,51.07-4.13,69.72-4.82c2.98-0.11,5.4,0.46,6.76,0.69" /><path d="M27,53.11c1.25,0.13,3.51,0.47,5,0.4c13.75-0.66,34.25-3.03,46.75-3.29c2-0.04,3.25,0,4.75,0.13" /></g></g><g><path d="M52.25,28c1.25,0.42,2,1.89,2.25,2.73s0,64.35-0.25,69.6" /></g><g><path d="M26.1,58.69c0.44,1.15,1.07,2.05,1.07,3.49C27.17,75.32,28,92.5,14,101" /></g><path d="M41.64,57.9c0.51,0.34,0.9,0.74,0.9,1.88c0,1.46-0.01,4.37-0.01,6.22" /><path d="M27.81,68.54c3.5-0.14,13.15-0.98,16.33-0.98" /><path d="M65.48,56.34c0.87,0.36,1.47,0.78,1.54,1.97c0.11,1.78-0.19,4.91-0.46,6.78c-0.09,0.6,0.15,1.49,1.44,1.39c4.54-0.33,8.91-1.2,14.17-1.46" /><path d="M82.62,55.79c0.83,0.5,1.41,1.09,1.48,2.75c0.34,7.99-0.02,39.49-0.02,42.21" /><g><path d="M29.31,75.9c8.65-0.58,46.96-2.72,53.19-2.72" /></g><path d="M27.06,86.53c5.87-1.02,7.94-1.93,11.99-2.69c3.26-0.61,3.92,0.88,3.92,1.76c0,0.88-0.6,13.53-0.6,14.41" /><path d="M64.8,82.42c0.93,0.06,1.54,0.26,2.62,0.19c4.75-0.3,11.92-0.78,15.16-0.88" /><path d="M68.86,84.41c0,4.28-0.02,11.8-0.02,14.57" /></g></g></g><g fill="none" stroke="#000" stroke-width="3" stroke-linecap="round" stroke-linejoin="round"><path d="M26.75,9.75c0.04,0.54,0.08,1.38-0.08,2.15c-0.95,4.54-6.43,14.5-13.92,20.6" stroke-dasharray="27.366" stroke-dashoffset="27.366"><animate attributeName="stroke-dashoffset" values="27.366;27.366;0" dur="0.274s" fill="freeze" begin="0s;7c2b.click" /></path><path d="M25.48,20.37c4.79,0,20.15-2.7,25.52-2.7" stroke-dasharray="25.676" stroke-dashoffset="25.676"><animate attributeName="stroke-dashoffset" values="25.676" fill="freeze" begin="7c2b.click" /><animate attributeName="stroke-dashoffset" values="25.676;25.676;0" keyTimes="0;0.516;1" dur="0.531s" fill="freeze" begin="0s;7c2b.click" /></path><path d="M34.25,21.5c1.87,1.49,4.84,6.14,5.31,8.47" stroke-dasharray="10.114" stroke-dashoffset="10.114"><animate attributeName="stroke-dashoffset" values="10.114" fill="freeze" begin="7c2b.click" /><animate attributeName="stroke-dashoffset" values="10.114;10.114;0" keyTimes="0;0.724;1" dur="0.733s" fill="freeze" begin="0s;7c2b.click" /></path><path d="M62.74,9.75c0.03,0.34,0.12,0.88-0.06,1.35c-1.3,3.53-4.91,8.57-9.69,12.9" stroke-dasharray="17.63" stroke-dashoffset="17.63"><animate attributeName="stroke-dashoffset" values="17.63" fill="freeze" begin="7c2b.click" /><animate attributeName="stroke-dashoffset" values="17.63;17.63;0" keyTimes="0;0.806;1" dur="0.909s" fill="freeze" begin="0s;7c2b.click" /></path><path d="M62.48,18.8c5.53,0,25.81-3.2,32.02-3.2" stroke-dasharray="32.193" stroke-dashoffset="32.193"><animate attributeName="stroke-dashoffset" values="32.193" fill="freeze" begin="7c2b.click" /><animate attributeName="stroke-dashoffset" values="32.193;32.193;0" keyTimes="0;0.738;1" dur="1.231s" fill="freeze" begin="0s;7c2b.click" /></path><path d="M79.51,17c0.03,0.28,0.07,0.73-0.07,1.14c-0.8,2.39-5.4,7.65-11.69,10.86" stroke-dasharray="17.371" stroke-dashoffset="17.371"><animate attributeName="stroke-dashoffset" values="17.371" fill="freeze" begin="7c2b.click" /><animate attributeName="stroke-dashoffset" values="17.371;17.371;0" keyTimes="0;0.876;1" dur="1.405s" fill="freeze" begin="0s;7c2b.click" /></path><path d="M26.75,35.75c2.54,0.21,3.77,0.54,6.11,0.41c14.25-0.82,35.62-3.57,46.82-3.57c3.31,0,4.58,1.02,4.07,3.07c-1.33,5.36-2.29,8.2-2.54,13.53" stroke-dasharray="73.044" stroke-dashoffset="73.044"><animate attributeName="stroke-dashoffset" values="73.044" fill="freeze" begin="7c2b.click" /><animate attributeName="stroke-dashoffset" values="73.044;73.044;0" keyTimes="0;0.719;1" dur="1.954s" fill="freeze" begin="0s;7c2b.click" /></path><path d="M15,44.84c2.43,0.23,4.33,0.67,7.03,0.46c23.51-1.83,51.07-4.13,69.72-4.82c2.98-0.11,5.4,0.46,6.76,0.69" stroke-dasharray="83.762" stroke-dashoffset="83.762"><animate attributeName="stroke-dashoffset" values="83.762" fill="freeze" begin="7c2b.click" /><animate attributeName="stroke-dashoffset" values="83.762;83.762;0" keyTimes="0;0.756;1" dur="2.584s" fill="freeze" begin="0s;7c2b.click" /></path><path d="M27,53.11c1.25,0.13,3.51,0.47,5,0.4c13.75-0.66,34.25-3.03,46.75-3.29c2-0.04,3.25,0,4.75,0.13" stroke-dasharray="56.647" stroke-dashoffset="56.647"><animate attributeName="stroke-dashoffset" values="56.647" fill="freeze" begin="7c2b.click" /><animate attributeName="stroke-dashoffset" values="56.647;56.647;0" keyTimes="0;0.82;1" dur="3.15s" fill="freeze" begin="0s;7c2b.click" /></path><path d="M52.25,28c1.25,0.42,2,1.89,2.25,2.73s0,64.35-0.25,69.6" stroke-dasharray="73.267" stroke-dashoffset="73.267"><animate attributeName="stroke-dashoffset" values="73.267" fill="freeze" begin="7c2b.click" /><animate attributeName="stroke-dashoffset" values="73.267;73.267;0" keyTimes="0;0.851;1" dur="3.701s" fill="freeze" begin="0s;7c2b.click" /></path><path d="M26.1,58.69c0.44,1.15,1.07,2.05,1.07,3.49C27.17,75.32,28,92.5,14,101" stroke-dasharray="46.825" stroke-dashoffset="46.825"><animate attributeName="stroke-dashoffset" values="46.825" fill="freeze" begin="7c2b.click" /><animate attributeName="stroke-dashoffset" values="46.825;46.825;0" keyTimes="0;0.888;1" dur="4.169s" fill="freeze" begin="0s;7c2b.click" /></path><path d="M41.64,57.9c0.51,0.34,0.9,0.74,0.9,1.88c0,1.46-0.01,4.37-0.01,6.22" stroke-dasharray="8.417" stroke-dashoffset="8.417"><animate attributeName="stroke-dashoffset" values="8.417" fill="freeze" begin="7c2b.click" /><animate attributeName="stroke-dashoffset" values="8.417;8.417;0" keyTimes="0;0.961;1" dur="4.337s" fill="freeze" begin="0s;7c2b.click" /></path><path d="M27.81,68.54c3.5-0.14,13.15-0.98,16.33-0.98" stroke-dasharray="16.362" stroke-dashoffset="16.362"><animate attributeName="stroke-dashoffset" values="16.362" fill="freeze" begin="7c2b.click" /><animate attributeName="stroke-dashoffset" values="16.362;16.362;0" keyTimes="0;0.964;1" dur="4.501s" fill="freeze" begin="0s;7c2b.click" /></path><path d="M65.48,56.34c0.87,0.36,1.47,0.78,1.54,1.97c0.11,1.78-0.19,4.91-0.46,6.78c-0.09,0.6,0.15,1.49,1.44,1.39c4.54-0.33,8.91-1.2,14.17-1.46" stroke-dasharray="26.11" stroke-dashoffset="26.11"><animate attributeName="stroke-dashoffset" values="26.11" fill="freeze" begin="7c2b.click" /><animate attributeName="stroke-dashoffset" values="26.11;26.11;0" keyTimes="0;0.945;1" dur="4.762s" fill="freeze" begin="0s;7c2b.click" /></path><path d="M82.62,55.79c0.83,0.5,1.41,1.09,1.48,2.75c0.34,7.99-0.02,39.49-0.02,42.21" stroke-dasharray="45.505" stroke-dashoffset="45.505"><animate attributeName="stroke-dashoffset" values="45.505" fill="freeze" begin="7c2b.click" /><animate attributeName="stroke-dashoffset" values="45.505;45.505;0" keyTimes="0;0.913;1" dur="5.217s" fill="freeze" begin="0s;7c2b.click" /></path><path d="M29.31,75.9c8.65-0.58,46.96-2.72,53.19-2.72" stroke-dasharray="53.263" stroke-dashoffset="53.263"><animate attributeName="stroke-dashoffset" values="53.263" fill="freeze" begin="7c2b.click" /><animate attributeName="stroke-dashoffset" values="53.263;53.263;0" keyTimes="0;0.907;1" dur="5.75s" fill="freeze" begin="0s;7c2b.click" /></path><path d="M27.06,86.53c5.87-1.02,7.94-1.93,11.99-2.69c3.26-0.61,3.92,0.88,3.92,1.76c0,0.88-0.6,13.53-0.6,14.41" stroke-dasharray="31.677" stroke-dashoffset="31.677"><animate attributeName="stroke-dashoffset" values="31.677" fill="freeze" begin="7c2b.click" /><animate attributeName="stroke-dashoffset" values="31.677;31.677;0" keyTimes="0;0.948;1" dur="6.067s" fill="freeze" begin="0s;7c2b.click" /></path><path d="M64.8,82.42c0.93,0.06,1.54,0.26,2.62,0.19c4.75-0.3,11.92-0.78,15.16-0.88" stroke-dasharray="17.818" stroke-dashoffset="17.818"><animate attributeName="stroke-dashoffset" values="17.818" fill="freeze" begin="7c2b.click" /><animate attributeName="stroke-dashoffset" values="17.818;17.818;0" keyTimes="0;0.971;1" dur="6.245s" fill="freeze" begin="0s;7c2b.click" /></path><path d="M68.86,84.41c0,4.28-0.02,11.8-0.02,14.57" stroke-dasharray="14.571" stroke-dashoffset="14.571"><animate attributeName="stroke-dashoffset" values="14.571" fill="freeze" begin="7c2b.click" /><animate attributeName="stroke-dashoffset" values="14.571;14.571;0" keyTimes="0;0.955;1" dur="6.536s" fill="freeze" begin="0s;7c2b.click" /></path></g></svg>