<svg xmlns="http://www.w3.org/2000/svg" viewBox="0 0 109 109" id="7c37"><g fill="none" stroke="#666" stroke-width="6" stroke-linecap="round" stroke-linejoin="round"><g><g><g><path d="M31.24,9.75c0.04,0.51,0.1,1.32-0.09,2.06C30.04,16.15,23.69,25.67,15,31.5" /><path d="M30.73,18.92c3.89,0,16.4-2.05,20.77-2.05" /><path d="M35,21c2.03,1.06,5.24,4.35,5.75,6" /></g><g><path d="M63.24,8.5c0.03,0.37,0.13,0.97-0.06,1.49c-1.4,3.9-5.29,9.47-10.43,14.26" /><path d="M63.48,17.42c4.99,0,23.29-3.35,28.9-3.35" /><path d="M77.99,19c0.03,0.18,0.06,0.47-0.05,0.73c-0.65,1.55-4.36,4.94-9.44,7.02" /></g></g><g><g><path d="M47.75,27c0.07,0.47,0.15,1.22-0.14,1.89C45.93,32.88,36.25,41.64,23,47" /><path d="M44.62,34.41c5.98-0.35,16.43-2.02,22.39-3.47c1.72-0.42,2.43,1.16,1.21,2.73c-3.43,4.43-6.67,7.29-9.73,11.59" /></g><path d="M29.37,47.24c1.93,0.62,4.19,0.71,6.12,0.62c13.4-0.59,34.66-2.89,48.39-4.28c3.19-0.32,5.14,0.3,6.75,0.61" /><path d="M33.01,47.93c0.06,1.24,0.12,3.21-0.12,5C31.48,63.46,29.75,90,13.56,100.35" /><path d="M48.38,48.75c0.21,0.61,0.44,0.85,0.34,1.35c-0.8,3.91-3.52,9.18-10.08,11.82" /><path d="M67.76,45.7c0.88,0.55,1.63,1.2,1.63,2.05c0,1.14-0.26,4.29-0.26,5.1C69.13,55,70.5,56,77.86,56c5.18,0,9,0,11.2-0.72" /><g><path d="M55.5,52.75c2.21,1.24,5.7,5.08,6.25,7" /><path d="M37.37,65.66c1.1,0.19,4.63,0.24,5.73,0.19c13.15-0.61,29.37-2.67,39.24-2.83c1.83-0.03,4.57,0.09,5.48,0.19" /><path d="M43.82,73.29c0.64,0.04,4.55,0.06,5.19,0.02c8.24-0.56,17.99-2.06,24.98-2.74c1.06-0.1,5.51-0.02,6.04,0.01" /><path d="M43.2,80.76c0.66,0.11,3.36,0.11,4.02,0.1c6.87-0.19,20.52-1.85,28.12-2.89c1.09-0.15,4.19,0.03,4.73,0.08" /><g><path d="M41.5,86.5c0.32,0.26,0.68,0.47,0.78,0.82c0.91,3.05,2.05,9.45,2.97,13.93" /><path d="M43.31,87.91c7.86-0.73,27.34-2.79,34.6-3.53c1.82-0.18,3.53,0.85,3.27,1.69c-1.08,3.48-1.42,5.1-3.34,10.89" /><path d="M45.4,100.1c5.87-0.51,26.27-1.94,34.34-2.71" /></g></g></g></g></g><g fill="none" stroke="#000" stroke-width="3" stroke-linecap="round" stroke-linejoin="round"><path d="M31.24,9.75c0.04,0.51,0.1,1.32-0.09,2.06C30.04,16.15,23.69,25.67,15,31.5" stroke-dasharray="27.935" stroke-dashoffset="27.935"><animate attributeName="stroke-dashoffset" values="27.935;27.935;0" dur="0.279s" fill="freeze" begin="0s;7c37.click" /></path><path d="M30.73,18.92c3.89,0,16.4-2.05,20.77-2.05" stroke-dasharray="20.881" stroke-dashoffset="20.881"><animate attributeName="stroke-dashoffset" values="20.881" fill="freeze" begin="7c37.click" /><animate attributeName="stroke-dashoffset" values="20.881;20.881;0" keyTimes="0;0.572;1" dur="0.488s" fill="freeze" begin="0s;7c37.click" /></path><path d="M35,21c2.03,1.06,5.24,4.35,5.75,6" stroke-dasharray="8.431" stroke-dashoffset="8.431"><animate attributeName="stroke-dashoffset" values="8.431" fill="freeze" begin="7c37.click" /><animate attributeName="stroke-dashoffset" values="8.431;8.431;0" keyTimes="0;0.743;1" dur="0.657s" fill="freeze" begin="0s;7c37.click" /></path><path d="M63.24,8.5c0.03,0.37,0.13,0.97-0.06,1.49c-1.4,3.9-5.29,9.47-10.43,14.26" stroke-dasharray="19.312" stroke-dashoffset="19.312"><animate attributeName="stroke-dashoffset" values="19.312" fill="freeze" begin="7c37.click" /><animate attributeName="stroke-dashoffset" values="19.312;19.312;0" keyTimes="0;0.773;1" dur="0.85s" fill="freeze" begin="0s;7c37.click" /></path><path d="M63.48,17.42c4.99,0,23.29-3.35,28.9-3.35" stroke-dasharray="29.109" stroke-dashoffset="29.109"><animate attributeName="stroke-dashoffset" values="29.109" fill="freeze" begin="7c37.click" /><animate attributeName="stroke-dashoffset" values="29.109;29.109;0" keyTimes="0;0.745;1" dur="1.141s" fill="freeze" begin="0s;7c37.click" /></path><path d="M77.99,19c0.03,0.18,0.06,0.47-0.05,0.73c-0.65,1.55-4.36,4.94-9.44,7.02" stroke-dasharray="12.69" stroke-dashoffset="12.69"><animate attributeName="stroke-dashoffset" values="12.69" fill="freeze" begin="7c37.click" /><animate attributeName="stroke-dashoffset" values="12.69;12.69;0" keyTimes="0;0.818;1" dur="1.395s" fill="freeze" begin="0s;7c37.click" /></path><path d="M47.75,27c0.07,0.47,0.15,1.22-0.14,1.89C45.93,32.88,36.25,41.64,23,47" stroke-dasharray="32.952" stroke-dashoffset="32.952"><animate attributeName="stroke-dashoffset" values="32.952" fill="freeze" begin="7c37.click" /><animate attributeName="stroke-dashoffset" values="32.952;32.952;0" keyTimes="0;0.809;1" dur="1.725s" fill="freeze" begin="0s;7c37.click" /></path><path d="M44.62,34.41c5.98-0.35,16.43-2.02,22.39-3.47c1.72-0.42,2.43,1.16,1.21,2.73c-3.43,4.43-6.67,7.29-9.73,11.59" stroke-dasharray="42.076" stroke-dashoffset="42.076"><animate attributeName="stroke-dashoffset" values="42.076" fill="freeze" begin="7c37.click" /><animate attributeName="stroke-dashoffset" values="42.076;42.076;0" keyTimes="0;0.804;1" dur="2.146s" fill="freeze" begin="0s;7c37.click" /></path><path d="M29.37,47.24c1.93,0.62,4.19,0.71,6.12,0.62c13.4-0.59,34.66-2.89,48.39-4.28c3.19-0.32,5.14,0.3,6.75,0.61" stroke-dasharray="61.582" stroke-dashoffset="61.582"><animate attributeName="stroke-dashoffset" values="61.582" fill="freeze" begin="7c37.click" /><animate attributeName="stroke-dashoffset" values="61.582;61.582;0" keyTimes="0;0.823;1" dur="2.609s" fill="freeze" begin="0s;7c37.click" /></path><path d="M33.01,47.93c0.06,1.24,0.12,3.21-0.12,5C31.48,63.46,29.75,90,13.56,100.35" stroke-dasharray="57.908" stroke-dashoffset="57.908"><animate attributeName="stroke-dashoffset" values="57.908" fill="freeze" begin="7c37.click" /><animate attributeName="stroke-dashoffset" values="57.908;57.908;0" keyTimes="0;0.818;1" dur="3.188s" fill="freeze" begin="0s;7c37.click" /></path><path d="M48.38,48.75c0.21,0.61,0.44,0.85,0.34,1.35c-0.8,3.91-3.52,9.18-10.08,11.82" stroke-dasharray="17.614" stroke-dashoffset="17.614"><animate attributeName="stroke-dashoffset" values="17.614" fill="freeze" begin="7c37.click" /><animate attributeName="stroke-dashoffset" values="17.614;17.614;0" keyTimes="0;0.948;1" dur="3.364s" fill="freeze" begin="0s;7c37.click" /></path><path d="M67.76,45.7c0.88,0.55,1.63,1.2,1.63,2.05c0,1.14-0.26,4.29-0.26,5.1C69.13,55,70.5,56,77.86,56c5.18,0,9,0,11.2-0.72" stroke-dasharray="29.396" stroke-dashoffset="29.396"><animate attributeName="stroke-dashoffset" values="29.396" fill="freeze" begin="7c37.click" /><animate attributeName="stroke-dashoffset" values="29.396;29.396;0" keyTimes="0;0.92;1" dur="3.658s" fill="freeze" begin="0s;7c37.click" /></path><path d="M55.5,52.75c2.21,1.24,5.7,5.08,6.25,7" stroke-dasharray="9.519" stroke-dashoffset="9.519"><animate attributeName="stroke-dashoffset" values="9.519" fill="freeze" begin="7c37.click" /><animate attributeName="stroke-dashoffset" values="9.519;9.519;0" keyTimes="0;0.951;1" dur="3.848s" fill="freeze" begin="0s;7c37.click" /></path><path d="M37.37,65.66c1.1,0.19,4.63,0.24,5.73,0.19c13.15-0.61,29.37-2.67,39.24-2.83c1.83-0.03,4.57,0.09,5.48,0.19" stroke-dasharray="50.572" stroke-dashoffset="50.572"><animate attributeName="stroke-dashoffset" values="50.572" fill="freeze" begin="7c37.click" /><animate attributeName="stroke-dashoffset" values="50.572;50.572;0" keyTimes="0;0.884;1" dur="4.354s" fill="freeze" begin="0s;7c37.click" /></path><path d="M43.82,73.29c0.64,0.04,4.55,0.06,5.19,0.02c8.24-0.56,17.99-2.06,24.98-2.74c1.06-0.1,5.51-0.02,6.04,0.01" stroke-dasharray="36.366" stroke-dashoffset="36.366"><animate attributeName="stroke-dashoffset" values="36.366" fill="freeze" begin="7c37.click" /><animate attributeName="stroke-dashoffset" values="36.366;36.366;0" keyTimes="0;0.923;1" dur="4.718s" fill="freeze" begin="0s;7c37.click" /></path><path d="M43.2,80.76c0.66,0.11,3.36,0.11,4.02,0.1c6.87-0.19,20.52-1.85,28.12-2.89c1.09-0.15,4.19,0.03,4.73,0.08" stroke-dasharray="37.038" stroke-dashoffset="37.038"><animate attributeName="stroke-dashoffset" values="37.038" fill="freeze" begin="7c37.click" /><animate attributeName="stroke-dashoffset" values="37.038;37.038;0" keyTimes="0;0.927;1" dur="5.088s" fill="freeze" begin="0s;7c37.click" /></path><path d="M41.5,86.5c0.32,0.26,0.68,0.47,0.78,0.82c0.91,3.05,2.05,9.45,2.97,13.93" stroke-dasharray="15.399" stroke-dashoffset="15.399"><animate attributeName="stroke-dashoffset" values="15.399" fill="freeze" begin="7c37.click" /><animate attributeName="stroke-dashoffset" values="15.399;15.399;0" keyTimes="0;0.971;1" dur="5.242s" fill="freeze" begin="0s;7c37.click" /></path><path d="M43.31,87.91c7.86-0.73,27.34-2.79,34.6-3.53c1.82-0.18,3.53,0.85,3.27,1.69c-1.08,3.48-1.42,5.1-3.34,10.89" stroke-dasharray="50.277" stroke-dashoffset="50.277"><animate attributeName="stroke-dashoffset" values="50.277" fill="freeze" begin="7c37.click" /><animate attributeName="stroke-dashoffset" values="50.277;50.277;0" keyTimes="0;0.912;1" dur="5.745s" fill="freeze" begin="0s;7c37.click" /></path><path d="M45.4,100.1c5.87-0.51,26.27-1.94,34.34-2.71" stroke-dasharray="34.448" stroke-dashoffset="34.448"><animate attributeName="stroke-dashoffset" values="34.448" fill="freeze" begin="7c37.click" /><animate attributeName="stroke-dashoffset" values="34.448;34.448;0" keyTimes="0;0.944;1" dur="6.089s" fill="freeze" begin="0s;7c37.click" /></path></g></svg>