<svg xmlns="http://www.w3.org/2000/svg" viewBox="0 0 109 109" id="7c4d"><g fill="none" stroke="#666" stroke-width="6" stroke-linecap="round" stroke-linejoin="round"><g><g><g><path d="M30,14.25c0.07,0.88,0.06,1.52-0.33,2.33c-2,4.18-5.73,9.8-12.67,15.42" /><path d="M29.73,22.54c2.78,0,12.16-1.36,18.42-2.11C49.75,20.24,51.38,20,53,20" /><path d="M38.12,24.25c1.65,1.54,4.27,6.33,4.68,8.72" /></g><g><path d="M62.75,11c0.12,0.84,0.02,1.64-0.29,2.41c-1.41,4.3-4.31,10.57-8.71,15.59" /><path d="M63.48,20.66c3.73,0,14.69-2.22,21.91-3.16c1.57-0.2,3.15-0.41,4.73-0.41" /><path d="M74.01,22.5c0.03,0.28,0.07,0.72-0.06,1.12c-0.52,1.59-2.72,4.46-5.97,7.14" /></g></g><g p4:phon="耤" xmlns:p4="http://kanjivg.tagaini.net"><g><g><path d="M17.3,44.04c1.72,0.64,3.71,0.27,5.47,0.07c5.22-0.59,12.07-1.83,17.65-2.85c1.38-0.25,2.58-0.42,3.95-0.15" /></g><g><path d="M18.06,54.1c1.86,0.54,4.32,0.3,6.21,0.03c5.6-0.82,11.14-1.96,15.23-2.63c1.29-0.21,2.58-0.42,3.89-0.41" /><g><path d="M13.53,64.71c2.44,0.62,4.74,0.21,7.22-0.19c7.12-1.15,13.62-2.4,21.21-3.42c1.61-0.22,3.07-0.05,4.09,0.11" /><path d="M32.2,34.25c1.02,1.02,1.39,2.38,1.39,3.91c0,0.69-0.16,36.84-0.16,50.34c0,4.07-0.06,7.25-0.06,9.25" /><path d="M32.55,63.88c0,1.5-0.52,3.05-1.33,4.49C27,75.88,21.38,84.12,14.55,90.55" /><path d="M36.88,68.88c2.1,1.56,6.88,7.05,8.71,10.13" /></g></g></g><g><g><g><g><path d="M52.47,45.18c2.03,0.7,4.37,0.39,6.05,0.18c6.56-0.83,19.21-2.56,26.11-3.18c1.98-0.18,4.04-0.45,5.97,0.12" /></g><g><path d="M61.04,35.77c0.72,0.72,1.29,1.73,1.4,3.02c0.32,3.96,0.82,11.83,1.34,19.98" /></g><g><path d="M77.82,33.5c0.78,0.39,1.24,1.75,1.4,2.52c0.15,0.78-1.52,13.25-2.58,21.2" /></g></g><path d="M50.42,59.68c2.96,0.57,5.67,0.31,8.23,0.03c8.51-0.91,19.33-2.31,28.98-3.05c2.62-0.2,5.12-0.45,7.7,0.15" /></g><g><path d="M56.51,68.78c1.1,1.1,1.37,2.22,1.37,3.78c0,0.65,0.01,12.83,0.01,20.93c0,3.35,0,5.75,0,5.89" /><path d="M58.21,69.71c1.99-0.13,21.31-2.92,23.12-3.07c1.51-0.13,2.88,1.36,2.88,2.94c0,2.8-0.05,14.18-0.07,21.67c-0.01,2.69-0.01,4.85-0.01,5.88" /><path d="M58.93,81.95c6.57-0.82,19.57-2.32,24.61-2.62" /><path d="M58.94,95.42c5.47-0.54,17.16-1.65,23.97-2.14" /></g></g></g></g></g><g fill="none" stroke="#000" stroke-width="3" stroke-linecap="round" stroke-linejoin="round"><path d="M30,14.25c0.07,0.88,0.06,1.52-0.33,2.33c-2,4.18-5.73,9.8-12.67,15.42" stroke-dasharray="22.508" stroke-dashoffset="22.508"><animate attributeName="stroke-dashoffset" values="22.508;22.508;0" dur="0.225s" fill="freeze" begin="0s;7c4d.click" /></path><path d="M29.73,22.54c2.78,0,12.16-1.36,18.42-2.11C49.75,20.24,51.38,20,53,20" stroke-dasharray="23.419" stroke-dashoffset="23.419"><animate attributeName="stroke-dashoffset" values="23.419" fill="freeze" begin="7c4d.click" /><animate attributeName="stroke-dashoffset" values="23.419;23.419;0" keyTimes="0;0.49;1" dur="0.459s" fill="freeze" begin="0s;7c4d.click" /></path><path d="M38.12,24.25c1.65,1.54,4.27,6.33,4.68,8.72" stroke-dasharray="9.996" stroke-dashoffset="9.996"><animate attributeName="stroke-dashoffset" values="9.996" fill="freeze" begin="7c4d.click" /><animate attributeName="stroke-dashoffset" values="9.996;9.996;0" keyTimes="0;0.697;1" dur="0.659s" fill="freeze" begin="0s;7c4d.click" /></path><path d="M62.75,11c0.12,0.84,0.02,1.64-0.29,2.41c-1.41,4.3-4.31,10.57-8.71,15.59" stroke-dasharray="20.427" stroke-dashoffset="20.427"><animate attributeName="stroke-dashoffset" values="20.427" fill="freeze" begin="7c4d.click" /><animate attributeName="stroke-dashoffset" values="20.427;20.427;0" keyTimes="0;0.764;1" dur="0.863s" fill="freeze" begin="0s;7c4d.click" /></path><path d="M63.48,20.66c3.73,0,14.69-2.22,21.91-3.16c1.57-0.2,3.15-0.41,4.73-0.41" stroke-dasharray="26.899" stroke-dashoffset="26.899"><animate attributeName="stroke-dashoffset" values="26.899" fill="freeze" begin="7c4d.click" /><animate attributeName="stroke-dashoffset" values="26.899;26.899;0" keyTimes="0;0.762;1" dur="1.132s" fill="freeze" begin="0s;7c4d.click" /></path><path d="M74.01,22.5c0.03,0.28,0.07,0.72-0.06,1.12c-0.52,1.59-2.72,4.46-5.97,7.14" stroke-dasharray="10.526" stroke-dashoffset="10.526"><animate attributeName="stroke-dashoffset" values="10.526" fill="freeze" begin="7c4d.click" /><animate attributeName="stroke-dashoffset" values="10.526;10.526;0" keyTimes="0;0.843;1" dur="1.343s" fill="freeze" begin="0s;7c4d.click" /></path><path d="M17.3,44.04c1.72,0.64,3.71,0.27,5.47,0.07c5.22-0.59,12.07-1.83,17.65-2.85c1.38-0.25,2.58-0.42,3.95-0.15" stroke-dasharray="27.387" stroke-dashoffset="27.387"><animate attributeName="stroke-dashoffset" values="27.387" fill="freeze" begin="7c4d.click" /><animate attributeName="stroke-dashoffset" values="27.387;27.387;0" keyTimes="0;0.831;1" dur="1.617s" fill="freeze" begin="0s;7c4d.click" /></path><path d="M18.06,54.1c1.86,0.54,4.32,0.3,6.21,0.03c5.6-0.82,11.14-1.96,15.23-2.63c1.29-0.21,2.58-0.42,3.89-0.41" stroke-dasharray="25.627" stroke-dashoffset="25.627"><animate attributeName="stroke-dashoffset" values="25.627" fill="freeze" begin="7c4d.click" /><animate attributeName="stroke-dashoffset" values="25.627;25.627;0" keyTimes="0;0.863;1" dur="1.873s" fill="freeze" begin="0s;7c4d.click" /></path><path d="M13.53,64.71c2.44,0.62,4.74,0.21,7.22-0.19c7.12-1.15,13.62-2.4,21.21-3.42c1.61-0.22,3.07-0.05,4.09,0.11" stroke-dasharray="32.872" stroke-dashoffset="32.872"><animate attributeName="stroke-dashoffset" values="32.872" fill="freeze" begin="7c4d.click" /><animate attributeName="stroke-dashoffset" values="32.872;32.872;0" keyTimes="0;0.851;1" dur="2.202s" fill="freeze" begin="0s;7c4d.click" /></path><path d="M32.2,34.25c1.02,1.02,1.39,2.38,1.39,3.91c0,0.69-0.16,36.84-0.16,50.34c0,4.07-0.06,7.25-0.06,9.25" stroke-dasharray="63.856" stroke-dashoffset="63.856"><animate attributeName="stroke-dashoffset" values="63.856" fill="freeze" begin="7c4d.click" /><animate attributeName="stroke-dashoffset" values="63.856;63.856;0" keyTimes="0;0.821;1" dur="2.682s" fill="freeze" begin="0s;7c4d.click" /></path><path d="M32.55,63.88c0,1.5-0.52,3.05-1.33,4.49C27,75.88,21.38,84.12,14.55,90.55" stroke-dasharray="32.584" stroke-dashoffset="32.584"><animate attributeName="stroke-dashoffset" values="32.584" fill="freeze" begin="7c4d.click" /><animate attributeName="stroke-dashoffset" values="32.584;32.584;0" keyTimes="0;0.892;1" dur="3.008s" fill="freeze" begin="0s;7c4d.click" /></path><path d="M36.88,68.88c2.1,1.56,6.88,7.05,8.71,10.13" stroke-dasharray="13.408" stroke-dashoffset="13.408"><animate attributeName="stroke-dashoffset" values="13.408" fill="freeze" begin="7c4d.click" /><animate attributeName="stroke-dashoffset" values="13.408;13.408;0" keyTimes="0;0.918;1" dur="3.276s" fill="freeze" begin="0s;7c4d.click" /></path><path d="M52.47,45.18c2.03,0.7,4.37,0.39,6.05,0.18c6.56-0.83,19.21-2.56,26.11-3.18c1.98-0.18,4.04-0.45,5.97,0.12" stroke-dasharray="38.423" stroke-dashoffset="38.423"><animate attributeName="stroke-dashoffset" values="38.423" fill="freeze" begin="7c4d.click" /><animate attributeName="stroke-dashoffset" values="38.423;38.423;0" keyTimes="0;0.895;1" dur="3.66s" fill="freeze" begin="0s;7c4d.click" /></path><path d="M61.04,35.77c0.72,0.72,1.29,1.73,1.4,3.02c0.32,3.96,0.82,11.83,1.34,19.98" stroke-dasharray="23.425" stroke-dashoffset="23.425"><animate attributeName="stroke-dashoffset" values="23.425" fill="freeze" begin="7c4d.click" /><animate attributeName="stroke-dashoffset" values="23.425;23.425;0" keyTimes="0;0.94;1" dur="3.894s" fill="freeze" begin="0s;7c4d.click" /></path><path d="M77.82,33.5c0.78,0.39,1.24,1.75,1.4,2.52c0.15,0.78-1.52,13.25-2.58,21.2" stroke-dasharray="24.326" stroke-dashoffset="24.326"><animate attributeName="stroke-dashoffset" values="24.326" fill="freeze" begin="7c4d.click" /><animate attributeName="stroke-dashoffset" values="24.326;24.326;0" keyTimes="0;0.941;1" dur="4.137s" fill="freeze" begin="0s;7c4d.click" /></path><path d="M50.42,59.68c2.96,0.57,5.67,0.31,8.23,0.03c8.51-0.91,19.33-2.31,28.98-3.05c2.62-0.2,5.12-0.45,7.7,0.15" stroke-dasharray="45.142" stroke-dashoffset="45.142"><animate attributeName="stroke-dashoffset" values="45.142" fill="freeze" begin="7c4d.click" /><animate attributeName="stroke-dashoffset" values="45.142;45.142;0" keyTimes="0;0.902;1" dur="4.588s" fill="freeze" begin="0s;7c4d.click" /></path><path d="M56.51,68.78c1.1,1.1,1.37,2.22,1.37,3.78c0,0.65,0.01,12.83,0.01,20.93c0,3.35,0,5.75,0,5.89" stroke-dasharray="30.968" stroke-dashoffset="30.968"><animate attributeName="stroke-dashoffset" values="30.968" fill="freeze" begin="7c4d.click" /><animate attributeName="stroke-dashoffset" values="30.968;30.968;0" keyTimes="0;0.937;1" dur="4.898s" fill="freeze" begin="0s;7c4d.click" /></path><path d="M58.21,69.71c1.99-0.13,21.31-2.92,23.12-3.07c1.51-0.13,2.88,1.36,2.88,2.94c0,2.8-0.05,14.18-0.07,21.67c-0.01,2.69-0.01,4.85-0.01,5.88" stroke-dasharray="55.46" stroke-dashoffset="55.46"><animate attributeName="stroke-dashoffset" values="55.46" fill="freeze" begin="7c4d.click" /><animate attributeName="stroke-dashoffset" values="55.46;55.46;0" keyTimes="0;0.898;1" dur="5.453s" fill="freeze" begin="0s;7c4d.click" /></path><path d="M58.93,81.95c6.57-0.82,19.57-2.32,24.61-2.62" stroke-dasharray="24.753" stroke-dashoffset="24.753"><animate attributeName="stroke-dashoffset" values="24.753" fill="freeze" begin="7c4d.click" /><animate attributeName="stroke-dashoffset" values="24.753;24.753;0" keyTimes="0;0.956;1" dur="5.701s" fill="freeze" begin="0s;7c4d.click" /></path><path d="M58.94,95.42c5.47-0.54,17.16-1.65,23.97-2.14" stroke-dasharray="24.067" stroke-dashoffset="24.067"><animate attributeName="stroke-dashoffset" values="24.067" fill="freeze" begin="7c4d.click" /><animate attributeName="stroke-dashoffset" values="24.067;24.067;0" keyTimes="0;0.959;1" dur="5.942s" fill="freeze" begin="0s;7c4d.click" /></path></g></svg>