<svg xmlns="http://www.w3.org/2000/svg" viewBox="0 0 109 109" id="7c81"><g fill="none" stroke="#666" stroke-width="6" stroke-linecap="round" stroke-linejoin="round"><g><g><path d="M12.94,23.39c3.28,2.54,8.24,9.96,9.06,13.91" /><path d="M46.76,21.47c0,0.91-0.17,1.85-0.5,2.57c-1.76,3.84-3.51,7.34-6.94,11.76" /><path d="M11.1,45.35c2.52,0.65,4.67,0.72,7.15,0.44c7.02-0.81,18.27-2.97,24.64-3.9c1.72-0.34,3.46-0.43,5.21-0.29" /><path d="M30.77,15.21c1.13,1.13,1.59,2.54,1.59,4.44c0,0.73-0.07,44.04-0.1,65.35c-0.01,5.68-0.01,9.8-0.01,11.12" /><path d="M31.52,44.71c0,1.91-1.02,4.92-1.82,6.82C25.4,61.83,17.39,72.61,10,79.98" /><path d="M35.62,51.07c5.06,3.23,7.75,7.06,9.65,11.15" /></g><g><g><path d="M88.17,12.42c-0.3,1.71-0.93,2.38-2.11,3.26c-5.89,4.38-17.69,9.07-34.5,15.08" /></g><g><path d="M49.22,51.75c2.98,0.59,6.15,0.25,9.17-0.06c10.23-1.07,21.44-2.47,33.23-2.95c2.32-0.25,4.62-0.15,6.91,0.3" /><path d="M72.6,26.04c0.93,0.93,1.13,2.71,1.13,4.53c0,0.74,0.01,35.71,0.02,54.93c0,5.83,0,10.21,0,11.75" /></g></g></g></g><g fill="none" stroke="#000" stroke-width="3" stroke-linecap="round" stroke-linejoin="round"><path d="M12.94,23.39c3.28,2.54,8.24,9.96,9.06,13.91" stroke-dasharray="16.809" stroke-dashoffset="16.809"><animate attributeName="stroke-dashoffset" values="16.809;16.809;0" dur="0.168s" fill="freeze" begin="0s;7c81.click" /></path><path d="M46.76,21.47c0,0.91-0.17,1.85-0.5,2.57c-1.76,3.84-3.51,7.34-6.94,11.76" stroke-dasharray="16.329" stroke-dashoffset="16.329"><animate attributeName="stroke-dashoffset" values="16.329" fill="freeze" begin="7c81.click" /><animate attributeName="stroke-dashoffset" values="16.329;16.329;0" keyTimes="0;0.508;1" dur="0.331s" fill="freeze" begin="0s;7c81.click" /></path><path d="M11.1,45.35c2.52,0.65,4.67,0.72,7.15,0.44c7.02-0.81,18.27-2.97,24.64-3.9c1.72-0.34,3.46-0.43,5.21-0.29" stroke-dasharray="37.392" stroke-dashoffset="37.392"><animate attributeName="stroke-dashoffset" values="37.392" fill="freeze" begin="7c81.click" /><animate attributeName="stroke-dashoffset" values="37.392;37.392;0" keyTimes="0;0.47;1" dur="0.705s" fill="freeze" begin="0s;7c81.click" /></path><path d="M30.77,15.21c1.13,1.13,1.59,2.54,1.59,4.44c0,0.73-0.07,44.04-0.1,65.35c-0.01,5.68-0.01,9.8-0.01,11.12" stroke-dasharray="81.323" stroke-dashoffset="81.323"><animate attributeName="stroke-dashoffset" values="81.323" fill="freeze" begin="7c81.click" /><animate attributeName="stroke-dashoffset" values="81.323;81.323;0" keyTimes="0;0.536;1" dur="1.316s" fill="freeze" begin="0s;7c81.click" /></path><path d="M31.52,44.71c0,1.91-1.02,4.92-1.82,6.82C25.4,61.83,17.39,72.61,10,79.98" stroke-dasharray="41.899" stroke-dashoffset="41.899"><animate attributeName="stroke-dashoffset" values="41.899" fill="freeze" begin="7c81.click" /><animate attributeName="stroke-dashoffset" values="41.899;41.899;0" keyTimes="0;0.759;1" dur="1.735s" fill="freeze" begin="0s;7c81.click" /></path><path d="M35.62,51.07c5.06,3.23,7.75,7.06,9.65,11.15" stroke-dasharray="14.966" stroke-dashoffset="14.966"><animate attributeName="stroke-dashoffset" values="14.966" fill="freeze" begin="7c81.click" /><animate attributeName="stroke-dashoffset" values="14.966;14.966;0" keyTimes="0;0.853;1" dur="2.034s" fill="freeze" begin="0s;7c81.click" /></path><path d="M88.17,12.42c-0.3,1.71-0.93,2.38-2.11,3.26c-5.89,4.38-17.69,9.07-34.5,15.08" stroke-dasharray="41.762" stroke-dashoffset="41.762"><animate attributeName="stroke-dashoffset" values="41.762" fill="freeze" begin="7c81.click" /><animate attributeName="stroke-dashoffset" values="41.762;41.762;0" keyTimes="0;0.83;1" dur="2.452s" fill="freeze" begin="0s;7c81.click" /></path><path d="M49.22,51.75c2.98,0.59,6.15,0.25,9.17-0.06c10.23-1.07,21.44-2.47,33.23-2.95c2.32-0.25,4.62-0.15,6.91,0.3" stroke-dasharray="49.518" stroke-dashoffset="49.518"><animate attributeName="stroke-dashoffset" values="49.518" fill="freeze" begin="7c81.click" /><animate attributeName="stroke-dashoffset" values="49.518;49.518;0" keyTimes="0;0.832;1" dur="2.947s" fill="freeze" begin="0s;7c81.click" /></path><path d="M72.6,26.04c0.93,0.93,1.13,2.71,1.13,4.53c0,0.74,0.01,35.71,0.02,54.93c0,5.83,0,10.21,0,11.75" stroke-dasharray="71.459" stroke-dashoffset="71.459"><animate attributeName="stroke-dashoffset" values="71.459" fill="freeze" begin="7c81.click" /><animate attributeName="stroke-dashoffset" values="71.459;71.459;0" keyTimes="0;0.846;1" dur="3.484s" fill="freeze" begin="0s;7c81.click" /></path></g></svg>