<svg xmlns="http://www.w3.org/2000/svg" viewBox="0 0 109 109" id="7d66"><g fill="none" stroke="#666" stroke-width="6" stroke-linecap="round" stroke-linejoin="round"><g><g><path d="M27.4,15.25c0.31,1.21,0.47,2.18-0.16,3.44c-2.02,4.1-6.11,11.68-11.32,17.79c-0.95,1.11-1.17,2.01,0.5,3.04c2.97,1.82,6.34,4.24,9.14,6.47" /><path d="M38.03,26.44c0.22,0.93,0.38,2.6,0,3.19c-5.53,8.62-14.78,20.62-22.38,28.48c-1.74,1.8,0.43,2.83,1.57,2.47c4.75-1.53,15.12-4.27,21.23-5.74" /><path d="M34.75,47.75c2.38,2.12,5.65,8.71,6.25,12" /><path d="M26.58,60.51c0.71,0.71,1.28,1.98,1.28,3.78c0,7.76-0.09,19.56-0.13,26.34c-0.02,2.36-0.03,4.11-0.03,4.88" /><path d="M17.75,70.5c0.12,0.76,0.08,2.25-0.12,2.8C16,77.75,13.5,83,10.5,86.75" /><path d="M36.25,68.25c2.62,3.43,4.64,11.39,5.25,14.5" /></g><g><g><g><path d="M64.92,12.75c0.06,1.04,0.05,2.79-0.35,4.19C61.81,26.71,56,43.62,44.44,57.06" /><path d="M65.58,16.58c3.51,6.02,17.15,23.89,23.56,31.76c2.11,2.59,4.23,4.41,6.79,5.97" /></g><g><path d="M55.05,51.64c1.13,0.56,3,0.26,4.21,0.13c5.3-0.59,10.63-1.43,15.25-1.98c1.12-0.13,2.25-0.21,3.35,0.11" /></g></g><g><path d="M50.34,67.08c0.9,1.14,1.56,2.19,1.78,3.64c1.29,8.32,2.31,14.41,3.23,21.17c0.15,1.11,0.3,2.23,0.44,3.39" /><path d="M52.81,68.34c10.94-1.59,23.12-2.77,28.58-3.54c1.99-0.28,3.19,1.92,2.91,3.57c-1.18,6.85-1.89,12.24-4.32,21.83" /><path d="M57,93.31c5.65-0.77,13.64-1.43,21.89-2.02c1.11-0.08,2.22-0.16,3.33-0.23" /></g></g></g></g><g fill="none" stroke="#000" stroke-width="3" stroke-linecap="round" stroke-linejoin="round"><path d="M27.4,15.25c0.31,1.21,0.47,2.18-0.16,3.44c-2.02,4.1-6.11,11.68-11.32,17.79c-0.95,1.11-1.17,2.01,0.5,3.04c2.97,1.82,6.34,4.24,9.14,6.47" stroke-dasharray="39.642" stroke-dashoffset="39.642"><animate attributeName="stroke-dashoffset" values="39.642;39.642;0" dur="0.396s" fill="freeze" begin="0s;7d66.click" /></path><path d="M38.03,26.44c0.22,0.93,0.38,2.6,0,3.19c-5.53,8.62-14.78,20.62-22.38,28.48c-1.74,1.8,0.43,2.83,1.57,2.47c4.75-1.53,15.12-4.27,21.23-5.74" stroke-dasharray="65.841" stroke-dashoffset="65.841"><animate attributeName="stroke-dashoffset" values="65.841" fill="freeze" begin="7d66.click" /><animate attributeName="stroke-dashoffset" values="65.841;65.841;0" keyTimes="0;0.444;1" dur="0.891s" fill="freeze" begin="0s;7d66.click" /></path><path d="M34.75,47.75c2.38,2.12,5.65,8.71,6.25,12" stroke-dasharray="13.675" stroke-dashoffset="13.675"><animate attributeName="stroke-dashoffset" values="13.675" fill="freeze" begin="7d66.click" /><animate attributeName="stroke-dashoffset" values="13.675;13.675;0" keyTimes="0;0.765;1" dur="1.164s" fill="freeze" begin="0s;7d66.click" /></path><path d="M26.58,60.51c0.71,0.71,1.28,1.98,1.28,3.78c0,7.76-0.09,19.56-0.13,26.34c-0.02,2.36-0.03,4.11-0.03,4.88" stroke-dasharray="35.312" stroke-dashoffset="35.312"><animate attributeName="stroke-dashoffset" values="35.312" fill="freeze" begin="7d66.click" /><animate attributeName="stroke-dashoffset" values="35.312;35.312;0" keyTimes="0;0.767;1" dur="1.517s" fill="freeze" begin="0s;7d66.click" /></path><path d="M17.75,70.5c0.12,0.76,0.08,2.25-0.12,2.8C16,77.75,13.5,83,10.5,86.75" stroke-dasharray="18.104" stroke-dashoffset="18.104"><animate attributeName="stroke-dashoffset" values="18.104" fill="freeze" begin="7d66.click" /><animate attributeName="stroke-dashoffset" values="18.104;18.104;0" keyTimes="0;0.893;1" dur="1.698s" fill="freeze" begin="0s;7d66.click" /></path><path d="M36.25,68.25c2.62,3.43,4.64,11.39,5.25,14.5" stroke-dasharray="15.517" stroke-dashoffset="15.517"><animate attributeName="stroke-dashoffset" values="15.517" fill="freeze" begin="7d66.click" /><animate attributeName="stroke-dashoffset" values="15.517;15.517;0" keyTimes="0;0.916;1" dur="1.853s" fill="freeze" begin="0s;7d66.click" /></path><path d="M64.92,12.75c0.06,1.04,0.05,2.79-0.35,4.19C61.81,26.71,56,43.62,44.44,57.06" stroke-dasharray="49.459" stroke-dashoffset="49.459"><animate attributeName="stroke-dashoffset" values="49.459" fill="freeze" begin="7d66.click" /><animate attributeName="stroke-dashoffset" values="49.459;49.459;0" keyTimes="0;0.789;1" dur="2.348s" fill="freeze" begin="0s;7d66.click" /></path><path d="M65.58,16.58c3.51,6.02,17.15,23.89,23.56,31.76c2.11,2.59,4.23,4.41,6.79,5.97" stroke-dasharray="48.652" stroke-dashoffset="48.652"><animate attributeName="stroke-dashoffset" values="48.652" fill="freeze" begin="7d66.click" /><animate attributeName="stroke-dashoffset" values="48.652;48.652;0" keyTimes="0;0.828;1" dur="2.835s" fill="freeze" begin="0s;7d66.click" /></path><path d="M55.05,51.64c1.13,0.56,3,0.26,4.21,0.13c5.3-0.59,10.63-1.43,15.25-1.98c1.12-0.13,2.25-0.21,3.35,0.11" stroke-dasharray="23.019" stroke-dashoffset="23.019"><animate attributeName="stroke-dashoffset" values="23.019" fill="freeze" begin="7d66.click" /><animate attributeName="stroke-dashoffset" values="23.019;23.019;0" keyTimes="0;0.925;1" dur="3.065s" fill="freeze" begin="0s;7d66.click" /></path><path d="M50.34,67.08c0.9,1.14,1.56,2.19,1.78,3.64c1.29,8.32,2.31,14.41,3.23,21.17c0.15,1.11,0.3,2.23,0.44,3.39" stroke-dasharray="28.938" stroke-dashoffset="28.938"><animate attributeName="stroke-dashoffset" values="28.938" fill="freeze" begin="7d66.click" /><animate attributeName="stroke-dashoffset" values="28.938;28.938;0" keyTimes="0;0.914;1" dur="3.354s" fill="freeze" begin="0s;7d66.click" /></path><path d="M52.81,68.34c10.94-1.59,23.12-2.77,28.58-3.54c1.99-0.28,3.19,1.92,2.91,3.57c-1.18,6.85-1.89,12.24-4.32,21.83" stroke-dasharray="56.384" stroke-dashoffset="56.384"><animate attributeName="stroke-dashoffset" values="56.384" fill="freeze" begin="7d66.click" /><animate attributeName="stroke-dashoffset" values="56.384;56.384;0" keyTimes="0;0.856;1" dur="3.918s" fill="freeze" begin="0s;7d66.click" /></path><path d="M57,93.31c5.65-0.77,13.64-1.43,21.89-2.02c1.11-0.08,2.22-0.16,3.33-0.23" stroke-dasharray="25.325" stroke-dashoffset="25.325"><animate attributeName="stroke-dashoffset" values="25.325" fill="freeze" begin="7d66.click" /><animate attributeName="stroke-dashoffset" values="25.325;25.325;0" keyTimes="0;0.939;1" dur="4.171s" fill="freeze" begin="0s;7d66.click" /></path></g></svg>