<svg xmlns="http://www.w3.org/2000/svg" viewBox="0 0 109 109" id="7e26"><g fill="none" stroke="#666" stroke-width="6" stroke-linecap="round" stroke-linejoin="round"><g><g><path d="M25.63,15.42c0.34,1.34,0.51,2.4-0.17,3.8c-2.95,6.03-5.02,9.47-9.55,15.22c-1.03,1.31-1.15,2.56,0,3.1c3.48,1.65,4.88,2.61,7.97,5.06" /><path d="M35.3,23.68c0.32,0.82,0.37,2.23-0.25,3.34C29.38,37.12,22.62,47,14.82,56.21c-1.7,2.01,0.46,2.98,1.65,2.59c5-1.61,12.37-3.99,18.79-5.53" /><path d="M32,46c2.38,2.03,6.15,8.33,6.75,11.48" /><path d="M25.64,59.12c0.86,0.88,1.48,2.63,1.48,4.59c0,5.65-0.06,17.49-0.08,24.79c-0.01,2.52-0.02,4.5-0.02,5.5" /><path d="M17.88,68.1c0.37,1.15,0.1,2.98-0.12,3.7c-1.4,4.68-4.26,12.83-6.89,17.71" /><path d="M32.93,68.04c2.12,3.24,3.75,10.75,4.24,13.69" /></g><g p4:phon="従" xmlns:p4="http://kanjivg.tagaini.net"><g><path d="M53.73,17.2c0.07,0.81-0.23,1.8-0.61,2.49C51,23.64,46.5,29.75,40.32,35.24" /><g><path d="M55.36,36.03c0.08,1.21-0.15,2.35-0.6,3.47c-2.53,6.25-8.84,17.67-16.83,26.05" /><path d="M49.33,54.04c0.82,0.82,1.25,2.21,1.25,3.71c0,4.11,0,18.79-0.03,28.5c-0.01,4.46-0.03,7.87-0.05,8.75" /></g></g><g><path d="M63.49,21.52c2.31,2.35,5.98,9.68,6.56,13.34" /><path d="M87,16.64c0.62,0.86,0.46,2.17,0.15,3c-2.65,7.11-5.65,14.11-10.86,22.99" /><g><path d="M59.28,46.31c2.09,0.32,3.78,0.36,5.35,0.12c6.87-1.05,19.08-2.31,25.5-3.02c1.71-0.19,4-0.16,5.65,0.05" /><g><path d="M75.72,46.87c0.89,0.89,1.42,2.01,1.42,3.23c0,3.9-0.02,25.97-0.02,33.15" /><path d="M77.98,64.33c4.26-0.57,5.4-0.71,12.68-1.51c1.04-0.12,2.05,0.06,2.7,0.25" /></g><g><path d="M64.5,61.56c0.38,1.07,0.56,2.55,0.45,3.55c-0.7,6.14-2.95,17.14-9.03,26.22" /><path d="M62.87,75.85c3.77,2.1,17.3,10.56,24.67,14.71c1.37,0.77,5.21,2.56,7.71,3.44" /></g></g></g></g></g></g><g fill="none" stroke="#000" stroke-width="3" stroke-linecap="round" stroke-linejoin="round"><path d="M25.63,15.42c0.34,1.34,0.51,2.4-0.17,3.8c-2.95,6.03-5.02,9.47-9.55,15.22c-1.03,1.31-1.15,2.56,0,3.1c3.48,1.65,4.88,2.61,7.97,5.06" stroke-dasharray="35.03" stroke-dashoffset="35.03"><animate attributeName="stroke-dashoffset" values="35.03;35.03;0" dur="0.35s" fill="freeze" begin="0s;7e26.click" /></path><path d="M35.3,23.68c0.32,0.82,0.37,2.23-0.25,3.34C29.38,37.12,22.62,47,14.82,56.21c-1.7,2.01,0.46,2.98,1.65,2.59c5-1.61,12.37-3.99,18.79-5.53" stroke-dasharray="63.109" stroke-dashoffset="63.109"><animate attributeName="stroke-dashoffset" values="63.109" fill="freeze" begin="7e26.click" /><animate attributeName="stroke-dashoffset" values="63.109;63.109;0" keyTimes="0;0.424;1" dur="0.825s" fill="freeze" begin="0s;7e26.click" /></path><path d="M32,46c2.38,2.03,6.15,8.33,6.75,11.48" stroke-dasharray="13.463" stroke-dashoffset="13.463"><animate attributeName="stroke-dashoffset" values="13.463" fill="freeze" begin="7e26.click" /><animate attributeName="stroke-dashoffset" values="13.463;13.463;0" keyTimes="0;0.754;1" dur="1.094s" fill="freeze" begin="0s;7e26.click" /></path><path d="M25.64,59.12c0.86,0.88,1.48,2.63,1.48,4.59c0,5.65-0.06,17.49-0.08,24.79c-0.01,2.52-0.02,4.5-0.02,5.5" stroke-dasharray="35.221" stroke-dashoffset="35.221"><animate attributeName="stroke-dashoffset" values="35.221" fill="freeze" begin="7e26.click" /><animate attributeName="stroke-dashoffset" values="35.221;35.221;0" keyTimes="0;0.757;1" dur="1.446s" fill="freeze" begin="0s;7e26.click" /></path><path d="M17.88,68.1c0.37,1.15,0.1,2.98-0.12,3.7c-1.4,4.68-4.26,12.83-6.89,17.71" stroke-dasharray="22.774" stroke-dashoffset="22.774"><animate attributeName="stroke-dashoffset" values="22.774" fill="freeze" begin="7e26.click" /><animate attributeName="stroke-dashoffset" values="22.774;22.774;0" keyTimes="0;0.864;1" dur="1.674s" fill="freeze" begin="0s;7e26.click" /></path><path d="M32.93,68.04c2.12,3.24,3.75,10.75,4.24,13.69" stroke-dasharray="14.403" stroke-dashoffset="14.403"><animate attributeName="stroke-dashoffset" values="14.403" fill="freeze" begin="7e26.click" /><animate attributeName="stroke-dashoffset" values="14.403;14.403;0" keyTimes="0;0.853;1" dur="1.962s" fill="freeze" begin="0s;7e26.click" /></path><path d="M53.73,17.2c0.07,0.81-0.23,1.8-0.61,2.49C51,23.64,46.5,29.75,40.32,35.24" stroke-dasharray="22.829" stroke-dashoffset="22.829"><animate attributeName="stroke-dashoffset" values="22.829" fill="freeze" begin="7e26.click" /><animate attributeName="stroke-dashoffset" values="22.829;22.829;0" keyTimes="0;0.896;1" dur="2.19s" fill="freeze" begin="0s;7e26.click" /></path><path d="M55.36,36.03c0.08,1.21-0.15,2.35-0.6,3.47c-2.53,6.25-8.84,17.67-16.83,26.05" stroke-dasharray="34.72" stroke-dashoffset="34.72"><animate attributeName="stroke-dashoffset" values="34.72" fill="freeze" begin="7e26.click" /><animate attributeName="stroke-dashoffset" values="34.72;34.72;0" keyTimes="0;0.863;1" dur="2.537s" fill="freeze" begin="0s;7e26.click" /></path><path d="M49.33,54.04c0.82,0.82,1.25,2.21,1.25,3.71c0,4.11,0,18.79-0.03,28.5c-0.01,4.46-0.03,7.87-0.05,8.75" stroke-dasharray="41.263" stroke-dashoffset="41.263"><animate attributeName="stroke-dashoffset" values="41.263" fill="freeze" begin="7e26.click" /><animate attributeName="stroke-dashoffset" values="41.263;41.263;0" keyTimes="0;0.86;1" dur="2.95s" fill="freeze" begin="0s;7e26.click" /></path><path d="M63.49,21.52c2.31,2.35,5.98,9.68,6.56,13.34" stroke-dasharray="15" stroke-dashoffset="15"><animate attributeName="stroke-dashoffset" values="15" fill="freeze" begin="7e26.click" /><animate attributeName="stroke-dashoffset" values="15;15;0" keyTimes="0;0.952;1" dur="3.1s" fill="freeze" begin="0s;7e26.click" /></path><path d="M87,16.64c0.62,0.86,0.46,2.17,0.15,3c-2.65,7.11-5.65,14.11-10.86,22.99" stroke-dasharray="28.579" stroke-dashoffset="28.579"><animate attributeName="stroke-dashoffset" values="28.579" fill="freeze" begin="7e26.click" /><animate attributeName="stroke-dashoffset" values="28.579;28.579;0" keyTimes="0;0.916;1" dur="3.386s" fill="freeze" begin="0s;7e26.click" /></path><path d="M59.28,46.31c2.09,0.32,3.78,0.36,5.35,0.12c6.87-1.05,19.08-2.31,25.5-3.02c1.71-0.19,4-0.16,5.65,0.05" stroke-dasharray="36.715" stroke-dashoffset="36.715"><animate attributeName="stroke-dashoffset" values="36.715" fill="freeze" begin="7e26.click" /><animate attributeName="stroke-dashoffset" values="36.715;36.715;0" keyTimes="0;0.902;1" dur="3.753s" fill="freeze" begin="0s;7e26.click" /></path><path d="M75.72,46.87c0.89,0.89,1.42,2.01,1.42,3.23c0,3.9-0.02,25.97-0.02,33.15" stroke-dasharray="36.774" stroke-dashoffset="36.774"><animate attributeName="stroke-dashoffset" values="36.774" fill="freeze" begin="7e26.click" /><animate attributeName="stroke-dashoffset" values="36.774;36.774;0" keyTimes="0;0.911;1" dur="4.121s" fill="freeze" begin="0s;7e26.click" /></path><path d="M77.98,64.33c4.26-0.57,5.4-0.71,12.68-1.51c1.04-0.12,2.05,0.06,2.7,0.25" stroke-dasharray="15.5" stroke-dashoffset="15.5"><animate attributeName="stroke-dashoffset" values="15.5" fill="freeze" begin="7e26.click" /><animate attributeName="stroke-dashoffset" values="15.5;15.5;0" keyTimes="0;0.964;1" dur="4.276s" fill="freeze" begin="0s;7e26.click" /></path><path d="M64.5,61.56c0.38,1.07,0.56,2.55,0.45,3.55c-0.7,6.14-2.95,17.14-9.03,26.22" stroke-dasharray="31.584" stroke-dashoffset="31.584"><animate attributeName="stroke-dashoffset" values="31.584" fill="freeze" begin="7e26.click" /><animate attributeName="stroke-dashoffset" values="31.584;31.584;0" keyTimes="0;0.931;1" dur="4.592s" fill="freeze" begin="0s;7e26.click" /></path><path d="M62.87,75.85c3.77,2.1,17.3,10.56,24.67,14.71c1.37,0.77,5.21,2.56,7.71,3.44" stroke-dasharray="37.174" stroke-dashoffset="37.174"><animate attributeName="stroke-dashoffset" values="37.174" fill="freeze" begin="7e26.click" /><animate attributeName="stroke-dashoffset" values="37.174;37.174;0" keyTimes="0;0.925;1" dur="4.964s" fill="freeze" begin="0s;7e26.click" /></path></g></svg>