<svg xmlns="http://www.w3.org/2000/svg" viewBox="0 0 109 109" id="7e59"><g fill="none" stroke="#666" stroke-width="6" stroke-linecap="round" stroke-linejoin="round"><g><g><path d="M25.42,10.67c0.33,1.35,0.34,2.35-0.16,3.83c-2.21,6.5-6.55,12.92-10.88,18.12c-0.6,0.72-0.65,3.12,0,3.38c3.42,1.35,7.16,3.63,10.1,6.11" /><path d="M36.4,22.68c0.28,0.6,0.35,2.55,0,3.19C31,35.94,21.97,49.31,14.53,57.87c-1.71,1.96,0.42,3.08,1.54,2.68c4.66-1.67,14.72-4.15,20.7-5.74" /><path d="M33.13,47.38c2.34,2.36,6.04,9.69,6.62,13.35" /><path d="M24.89,60.62c0.07,0.33,0.91,1.72,0.98,3.82c0.31,10.08-0.2,26.88-0.2,30.31" /><path d="M17.13,70.85c0.12,0.85,0.1,2.52-0.12,3.12c-1.42,3.95-4.99,11.57-7.01,14.96" /><path d="M32.68,68.29c3,4.01,5.3,13.31,5.99,16.94" /></g><g><g><g><path d="M84.25,11c0.1,0.25,0.14,0.6-0.19,1c-2.67,3.28-17.14,6.36-34.31,9" /></g><g><path d="M48,28c2.99,1.44,7.5,5.51,8.25,7.75" /><path d="M87.94,22.7c0.03,0.33,0.17,0.87-0.06,1.31c-1.85,3.54-4.82,7.69-10.91,12.55" /><path d="M41.77,41.51c0.7,0.15,2.56,0.39,4.41,0.44c5.11,0.15,38.95-3.59,47.08-3.29c1.86,0.07,2.32-0.15,3.48,0" /><path d="M68.37,20.25c0.59,0.34,1.06,2.01,1.06,2.74c0,4.28,0,35.25-0.12,39.51" /><path d="M68,41.5c-4.44,8.11-15.02,18.57-25,23.25" /><path d="M69.63,40.35c3.67,2.73,21.27,16.91,25.26,19.59c1.35,0.91,2.51,1.3,3.86,1.56" /></g></g><g><path d="M48.06,67.75c0.41,0.49,0.42,0.82,0.64,1.43c1.84,5,4.15,17.87,5.23,27.07" /><path d="M49.4,69.66c13.23-1.43,29.56-2.53,37.45-3.03c2.9-0.18,4.38,1.28,4.22,2.63c-0.65,5.58-2.58,17.18-4.8,25.76" /><path d="M68.61,69.98c0.67,1.05,0.91,1.48,0.9,2.94c-0.02,6.91,0.2,18.29,0.2,20.54" /><path d="M51.75,81.74c3.21-0.2,34.4-2.52,37.05-2.52" /><path d="M54.27,94.99c8.73-0.41,22.38-2.23,32.42-2.39" /></g></g></g></g><g fill="none" stroke="#000" stroke-width="3" stroke-linecap="round" stroke-linejoin="round"><path d="M25.42,10.67c0.33,1.35,0.34,2.35-0.16,3.83c-2.21,6.5-6.55,12.92-10.88,18.12c-0.6,0.72-0.65,3.12,0,3.38c3.42,1.35,7.16,3.63,10.1,6.11" stroke-dasharray="40.605" stroke-dashoffset="40.605"><animate attributeName="stroke-dashoffset" values="40.605;40.605;0" dur="0.406s" fill="freeze" begin="0s;7e59.click" /></path><path d="M36.4,22.68c0.28,0.6,0.35,2.55,0,3.19C31,35.94,21.97,49.31,14.53,57.87c-1.71,1.96,0.42,3.08,1.54,2.68c4.66-1.67,14.72-4.15,20.7-5.74" stroke-dasharray="68.032" stroke-dashoffset="68.032"><animate attributeName="stroke-dashoffset" values="68.032" fill="freeze" begin="7e59.click" /><animate attributeName="stroke-dashoffset" values="68.032;68.032;0" keyTimes="0;0.442;1" dur="0.918s" fill="freeze" begin="0s;7e59.click" /></path><path d="M33.13,47.38c2.34,2.36,6.04,9.69,6.62,13.35" stroke-dasharray="15.038" stroke-dashoffset="15.038"><animate attributeName="stroke-dashoffset" values="15.038" fill="freeze" begin="7e59.click" /><animate attributeName="stroke-dashoffset" values="15.038;15.038;0" keyTimes="0;0.86;1" dur="1.068s" fill="freeze" begin="0s;7e59.click" /></path><path d="M24.89,60.62c0.07,0.33,0.91,1.72,0.98,3.82c0.31,10.08-0.2,26.88-0.2,30.31" stroke-dasharray="34.284" stroke-dashoffset="34.284"><animate attributeName="stroke-dashoffset" values="34.284" fill="freeze" begin="7e59.click" /><animate attributeName="stroke-dashoffset" values="34.284;34.284;0" keyTimes="0;0.757;1" dur="1.411s" fill="freeze" begin="0s;7e59.click" /></path><path d="M17.13,70.85c0.12,0.85,0.1,2.52-0.12,3.12c-1.42,3.95-4.99,11.57-7.01,14.96" stroke-dasharray="19.677" stroke-dashoffset="19.677"><animate attributeName="stroke-dashoffset" values="19.677" fill="freeze" begin="7e59.click" /><animate attributeName="stroke-dashoffset" values="19.677;19.677;0" keyTimes="0;0.877;1" dur="1.608s" fill="freeze" begin="0s;7e59.click" /></path><path d="M32.68,68.29c3,4.01,5.3,13.31,5.99,16.94" stroke-dasharray="18.077" stroke-dashoffset="18.077"><animate attributeName="stroke-dashoffset" values="18.077" fill="freeze" begin="7e59.click" /><animate attributeName="stroke-dashoffset" values="18.077;18.077;0" keyTimes="0;0.899;1" dur="1.789s" fill="freeze" begin="0s;7e59.click" /></path><path d="M84.25,11c0.1,0.25,0.14,0.6-0.19,1c-2.67,3.28-17.14,6.36-34.31,9" stroke-dasharray="36.848" stroke-dashoffset="36.848"><animate attributeName="stroke-dashoffset" values="36.848" fill="freeze" begin="7e59.click" /><animate attributeName="stroke-dashoffset" values="36.848;36.848;0" keyTimes="0;0.829;1" dur="2.157s" fill="freeze" begin="0s;7e59.click" /></path><path d="M48,28c2.99,1.44,7.5,5.51,8.25,7.75" stroke-dasharray="11.494" stroke-dashoffset="11.494"><animate attributeName="stroke-dashoffset" values="11.494" fill="freeze" begin="7e59.click" /><animate attributeName="stroke-dashoffset" values="11.494;11.494;0" keyTimes="0;0.904;1" dur="2.387s" fill="freeze" begin="0s;7e59.click" /></path><path d="M87.94,22.7c0.03,0.33,0.17,0.87-0.06,1.31c-1.85,3.54-4.82,7.69-10.91,12.55" stroke-dasharray="18.089" stroke-dashoffset="18.089"><animate attributeName="stroke-dashoffset" values="18.089" fill="freeze" begin="7e59.click" /><animate attributeName="stroke-dashoffset" values="18.089;18.089;0" keyTimes="0;0.93;1" dur="2.568s" fill="freeze" begin="0s;7e59.click" /></path><path d="M41.77,41.51c0.7,0.15,2.56,0.39,4.41,0.44c5.11,0.15,38.95-3.59,47.08-3.29c1.86,0.07,2.32-0.15,3.48,0" stroke-dasharray="55.13" stroke-dashoffset="55.13"><animate attributeName="stroke-dashoffset" values="55.13" fill="freeze" begin="7e59.click" /><animate attributeName="stroke-dashoffset" values="55.13;55.13;0" keyTimes="0;0.823;1" dur="3.119s" fill="freeze" begin="0s;7e59.click" /></path><path d="M68.37,20.25c0.59,0.34,1.06,2.01,1.06,2.74c0,4.28,0,35.25-0.12,39.51" stroke-dasharray="42.525" stroke-dashoffset="42.525"><animate attributeName="stroke-dashoffset" values="42.525" fill="freeze" begin="7e59.click" /><animate attributeName="stroke-dashoffset" values="42.525;42.525;0" keyTimes="0;0.88;1" dur="3.544s" fill="freeze" begin="0s;7e59.click" /></path><path d="M68,41.5c-4.44,8.11-15.02,18.57-25,23.25" stroke-dasharray="34.6" stroke-dashoffset="34.6"><animate attributeName="stroke-dashoffset" values="34.6" fill="freeze" begin="7e59.click" /><animate attributeName="stroke-dashoffset" values="34.6;34.6;0" keyTimes="0;0.911;1" dur="3.89s" fill="freeze" begin="0s;7e59.click" /></path><path d="M69.63,40.35c3.67,2.73,21.27,16.91,25.26,19.59c1.35,0.91,2.51,1.3,3.86,1.56" stroke-dasharray="36.165" stroke-dashoffset="36.165"><animate attributeName="stroke-dashoffset" values="36.165" fill="freeze" begin="7e59.click" /><animate attributeName="stroke-dashoffset" values="36.165;36.165;0" keyTimes="0;0.915;1" dur="4.252s" fill="freeze" begin="0s;7e59.click" /></path><path d="M48.06,67.75c0.41,0.49,0.42,0.82,0.64,1.43c1.84,5,4.15,17.87,5.23,27.07" stroke-dasharray="29.19" stroke-dashoffset="29.19"><animate attributeName="stroke-dashoffset" values="29.19" fill="freeze" begin="7e59.click" /><animate attributeName="stroke-dashoffset" values="29.19;29.19;0" keyTimes="0;0.936;1" dur="4.544s" fill="freeze" begin="0s;7e59.click" /></path><path d="M49.4,69.66c13.23-1.43,29.56-2.53,37.45-3.03c2.9-0.18,4.38,1.28,4.22,2.63c-0.65,5.58-2.58,17.18-4.8,25.76" stroke-dasharray="69.426" stroke-dashoffset="69.426"><animate attributeName="stroke-dashoffset" values="69.426" fill="freeze" begin="7e59.click" /><animate attributeName="stroke-dashoffset" values="69.426;69.426;0" keyTimes="0;0.897;1" dur="5.066s" fill="freeze" begin="0s;7e59.click" /></path><path d="M68.61,69.98c0.67,1.05,0.91,1.48,0.9,2.94c-0.02,6.91,0.2,18.29,0.2,20.54" stroke-dasharray="23.682" stroke-dashoffset="23.682"><animate attributeName="stroke-dashoffset" values="23.682" fill="freeze" begin="7e59.click" /><animate attributeName="stroke-dashoffset" values="23.682;23.682;0" keyTimes="0;0.955;1" dur="5.303s" fill="freeze" begin="0s;7e59.click" /></path><path d="M51.75,81.74c3.21-0.2,34.4-2.52,37.05-2.52" stroke-dasharray="37.138" stroke-dashoffset="37.138"><animate attributeName="stroke-dashoffset" values="37.138" fill="freeze" begin="7e59.click" /><animate attributeName="stroke-dashoffset" values="37.138;37.138;0" keyTimes="0;0.935;1" dur="5.674s" fill="freeze" begin="0s;7e59.click" /></path><path d="M54.27,94.99c8.73-0.41,22.38-2.23,32.42-2.39" stroke-dasharray="32.515" stroke-dashoffset="32.515"><animate attributeName="stroke-dashoffset" values="32.515" fill="freeze" begin="7e59.click" /><animate attributeName="stroke-dashoffset" values="32.515;32.515;0" keyTimes="0;0.946;1" dur="5.999s" fill="freeze" begin="0s;7e59.click" /></path></g></svg>