<svg xmlns="http://www.w3.org/2000/svg" viewBox="0 0 109 109" id="7f68"><g fill="none" stroke="#666" stroke-width="6" stroke-linecap="round" stroke-linejoin="round"><g><g><path d="M20.5,15c0.33,0.31,1.16,1.58,1.3,1.97c1.13,3.11,2.48,10.69,3.25,16.28" /><path d="M22.56,16.47c7.68-1.12,56.57-5.11,60.65-5.49c1.49-0.14,4.01,1.47,3.61,3.08c-0.83,3.37-3.08,9.43-5.11,14.96" /><path d="M42.04,15c0.29,1.75,2.3,10.28,2.59,12.25" /><path d="M63.49,12.5c-0.19,3.13-1.13,11.32-1.51,13.25" /><path d="M25.8,30.3c4.77-0.43,43.45-4.05,56.17-4.28" /></g><g><g><path d="M20.12,43.23c2.12,0.52,4.95,0.63,7.53,0.3c17.43-2.23,39.66-4.26,55.31-5.33c2.69-0.19,4.85,0.49,7.28,1.07" /><path d="M48.76,31.75c0.39,1.03,0.01,2.57-0.53,3.72C40.23,52.27,30.39,63.15,13,73" /><path d="M62.25,40.25c6.32,5.82,21.06,20.64,27.38,24.54c2.15,1.32,2.89,1.52,3.87,1.65" /></g><g><g><path d="M31.5,62c0.83,0.54,1.66,1.68,1.67,2.45c0.01,0.77,4.47,22.08,4.76,22.84" /><path d="M33.38,63.7c3.76-0.33,35.95-4.05,39.38-4.38c2.86-0.27,4.25,1.2,3.98,2.8c-0.54,3.28-2.04,12.75-3.72,20.59" /><path d="M35.35,73.21c4.85-0.32,32.9-3.22,38.38-3.58" /><path d="M37.97,83.27c7.39-0.67,27.6-2.61,33.41-2.99" /></g><path d="M52.74,48.13c0.68,1.03,1.22,2.24,1.26,3.82c0.18,7.07-0.49,29.93-0.49,34.75c0,8.21,3.44,11.83,17.9,11.83c14,0,17.47-2.75,17.47-10.61" /></g></g></g></g><g fill="none" stroke="#000" stroke-width="3" stroke-linecap="round" stroke-linejoin="round"><path d="M20.5,15c0.33,0.31,1.16,1.58,1.3,1.97c1.13,3.11,2.48,10.69,3.25,16.28" stroke-dasharray="18.99" stroke-dashoffset="18.99"><animate attributeName="stroke-dashoffset" values="18.99;18.99;0" dur="0.19s" fill="freeze" begin="0s;7f68.click" /></path><path d="M22.56,16.47c7.68-1.12,56.57-5.11,60.65-5.49c1.49-0.14,4.01,1.47,3.61,3.08c-0.83,3.37-3.08,9.43-5.11,14.96" stroke-dasharray="82.033" stroke-dashoffset="82.033"><animate attributeName="stroke-dashoffset" values="82.033" fill="freeze" begin="7f68.click" /><animate attributeName="stroke-dashoffset" values="82.033;82.033;0" keyTimes="0;0.235;1" dur="0.807s" fill="freeze" begin="0s;7f68.click" /></path><path d="M42.04,15c0.29,1.75,2.3,10.28,2.59,12.25" stroke-dasharray="12.523" stroke-dashoffset="12.523"><animate attributeName="stroke-dashoffset" values="12.523" fill="freeze" begin="7f68.click" /><animate attributeName="stroke-dashoffset" values="12.523;12.523;0" keyTimes="0;0.763;1" dur="1.057s" fill="freeze" begin="0s;7f68.click" /></path><path d="M63.49,12.5c-0.19,3.13-1.13,11.32-1.51,13.25" stroke-dasharray="13.341" stroke-dashoffset="13.341"><animate attributeName="stroke-dashoffset" values="13.341" fill="freeze" begin="7f68.click" /><animate attributeName="stroke-dashoffset" values="13.341;13.341;0" keyTimes="0;0.798;1" dur="1.324s" fill="freeze" begin="0s;7f68.click" /></path><path d="M25.8,30.3c4.77-0.43,43.45-4.05,56.17-4.28" stroke-dasharray="56.341" stroke-dashoffset="56.341"><animate attributeName="stroke-dashoffset" values="56.341" fill="freeze" begin="7f68.click" /><animate attributeName="stroke-dashoffset" values="56.341;56.341;0" keyTimes="0;0.702;1" dur="1.887s" fill="freeze" begin="0s;7f68.click" /></path><path d="M20.12,43.23c2.12,0.52,4.95,0.63,7.53,0.3c17.43-2.23,39.66-4.26,55.31-5.33c2.69-0.19,4.85,0.49,7.28,1.07" stroke-dasharray="70.542" stroke-dashoffset="70.542"><animate attributeName="stroke-dashoffset" values="70.542" fill="freeze" begin="7f68.click" /><animate attributeName="stroke-dashoffset" values="70.542;70.542;0" keyTimes="0;0.781;1" dur="2.417s" fill="freeze" begin="0s;7f68.click" /></path><path d="M48.76,31.75c0.39,1.03,0.01,2.57-0.53,3.72C40.23,52.27,30.39,63.15,13,73" stroke-dasharray="56.261" stroke-dashoffset="56.261"><animate attributeName="stroke-dashoffset" values="56.261" fill="freeze" begin="7f68.click" /><animate attributeName="stroke-dashoffset" values="56.261;56.261;0" keyTimes="0;0.811;1" dur="2.98s" fill="freeze" begin="0s;7f68.click" /></path><path d="M62.25,40.25c6.32,5.82,21.06,20.64,27.38,24.54c2.15,1.32,2.89,1.52,3.87,1.65" stroke-dasharray="41.049" stroke-dashoffset="41.049"><animate attributeName="stroke-dashoffset" values="41.049" fill="freeze" begin="7f68.click" /><animate attributeName="stroke-dashoffset" values="41.049;41.049;0" keyTimes="0;0.879;1" dur="3.39s" fill="freeze" begin="0s;7f68.click" /></path><path d="M31.5,62c0.83,0.54,1.66,1.68,1.67,2.45c0.01,0.77,4.47,22.08,4.76,22.84" stroke-dasharray="26.389" stroke-dashoffset="26.389"><animate attributeName="stroke-dashoffset" values="26.389" fill="freeze" begin="7f68.click" /><animate attributeName="stroke-dashoffset" values="26.389;26.389;0" keyTimes="0;0.928;1" dur="3.654s" fill="freeze" begin="0s;7f68.click" /></path><path d="M33.38,63.7c3.76-0.33,35.95-4.05,39.38-4.38c2.86-0.27,4.25,1.2,3.98,2.8c-0.54,3.28-2.04,12.75-3.72,20.59" stroke-dasharray="66.238" stroke-dashoffset="66.238"><animate attributeName="stroke-dashoffset" values="66.238" fill="freeze" begin="7f68.click" /><animate attributeName="stroke-dashoffset" values="66.238;66.238;0" keyTimes="0;0.88;1" dur="4.152s" fill="freeze" begin="0s;7f68.click" /></path><path d="M35.35,73.21c4.85-0.32,32.9-3.22,38.38-3.58" stroke-dasharray="38.548" stroke-dashoffset="38.548"><animate attributeName="stroke-dashoffset" values="38.548" fill="freeze" begin="7f68.click" /><animate attributeName="stroke-dashoffset" values="38.548;38.548;0" keyTimes="0;0.915;1" dur="4.537s" fill="freeze" begin="0s;7f68.click" /></path><path d="M37.97,83.27c7.39-0.67,27.6-2.61,33.41-2.99" stroke-dasharray="33.545" stroke-dashoffset="33.545"><animate attributeName="stroke-dashoffset" values="33.545" fill="freeze" begin="7f68.click" /><animate attributeName="stroke-dashoffset" values="33.545;33.545;0" keyTimes="0;0.931;1" dur="4.872s" fill="freeze" begin="0s;7f68.click" /></path><path d="M52.74,48.13c0.68,1.03,1.22,2.24,1.26,3.82c0.18,7.07-0.49,29.93-0.49,34.75c0,8.21,3.44,11.83,17.9,11.83c14,0,17.47-2.75,17.47-10.61" stroke-dasharray="87.511" stroke-dashoffset="87.511"><animate attributeName="stroke-dashoffset" values="87.511" fill="freeze" begin="7f68.click" /><animate attributeName="stroke-dashoffset" values="87.511;87.511;0" keyTimes="0;0.881;1" dur="5.53s" fill="freeze" begin="0s;7f68.click" /></path></g></svg>