<svg xmlns="http://www.w3.org/2000/svg" viewBox="0 0 109 109" id="801c"><g fill="none" stroke="#666" stroke-width="6" stroke-linecap="round" stroke-linejoin="round"><g><g><g><path d="M44.23,19.66c-0.23,0.84-0.2,1.5-0.65,1.89c-5.58,4.88-12.89,9.81-27.57,12.2" /></g><g><path d="M14.22,42.18c0.48,0.31,3.67,0.87,4.15,0.84c4.95-0.36,17.94-1.88,25.79-3.15c0.79-0.13,2.2-0.35,2.6-0.19" /><g><path d="M11.34,55.14c0.44,0.28,3.21,0.82,4.37,0.82c6.05,0.01,19.79-2.29,29.64-3.39c1.15-0.13,2.18-0.19,2.91,0.08" /><path d="M30.11,13.5c1.05,0.45,1.89,3.35,1.89,4.3c0,3.62,0.35,74.05,0.14,79.7" /><path d="M31.25,55.75c-3.53,9.5-12.66,23.9-20.01,29.27" /><path d="M34,60c5.14,2.59,8.91,6.58,12,11.05" /></g></g></g><g><path d="M54.65,18.34c0.81,0.7,1.29,3.17,1.45,4.58c0.16,1.41,0,63.77-0.16,72.58" /><path d="M56.25,21c9.5-1.25,26.47-2.13,31.11-2.82c1.64-0.24,3.62,1.93,3.38,3.35c-0.97,5.87-2.07,12.41-4.15,20.87" /><path d="M56.17,45.27c13.51-1.37,25.8-1.75,32.17-2.25" /><path d="M56.25,64.46c8.5-0.74,25-2.22,32.39-3.44c3.11-0.51,4.34,1.23,3.8,4.19C91,73,90.45,79.97,88.29,91.29" /><path d="M56.81,92.63c7.76-0.53,24.59-0.99,34.37-1.6" /></g></g></g><g fill="none" stroke="#000" stroke-width="3" stroke-linecap="round" stroke-linejoin="round"><path d="M44.23,19.66c-0.23,0.84-0.2,1.5-0.65,1.89c-5.58,4.88-12.89,9.81-27.57,12.2" stroke-dasharray="32.626" stroke-dashoffset="32.626"><animate attributeName="stroke-dashoffset" values="32.626;32.626;0" dur="0.326s" fill="freeze" begin="0s;801c.click" /></path><path d="M14.22,42.18c0.48,0.31,3.67,0.87,4.15,0.84c4.95-0.36,17.94-1.88,25.79-3.15c0.79-0.13,2.2-0.35,2.6-0.19" stroke-dasharray="32.859" stroke-dashoffset="32.859"><animate attributeName="stroke-dashoffset" values="32.859" fill="freeze" begin="801c.click" /><animate attributeName="stroke-dashoffset" values="32.859;32.859;0" keyTimes="0;0.498;1" dur="0.655s" fill="freeze" begin="0s;801c.click" /></path><path d="M11.34,55.14c0.44,0.28,3.21,0.82,4.37,0.82c6.05,0.01,19.79-2.29,29.64-3.39c1.15-0.13,2.18-0.19,2.91,0.08" stroke-dasharray="37.247" stroke-dashoffset="37.247"><animate attributeName="stroke-dashoffset" values="37.247" fill="freeze" begin="801c.click" /><animate attributeName="stroke-dashoffset" values="37.247;37.247;0" keyTimes="0;0.638;1" dur="1.027s" fill="freeze" begin="0s;801c.click" /></path><path d="M30.11,13.5c1.05,0.45,1.89,3.35,1.89,4.3c0,3.62,0.35,74.05,0.14,79.7" stroke-dasharray="84.539" stroke-dashoffset="84.539"><animate attributeName="stroke-dashoffset" values="84.539" fill="freeze" begin="801c.click" /><animate attributeName="stroke-dashoffset" values="84.539;84.539;0" keyTimes="0;0.618;1" dur="1.663s" fill="freeze" begin="0s;801c.click" /></path><path d="M31.25,55.75c-3.53,9.5-12.66,23.9-20.01,29.27" stroke-dasharray="35.81" stroke-dashoffset="35.81"><animate attributeName="stroke-dashoffset" values="35.81" fill="freeze" begin="801c.click" /><animate attributeName="stroke-dashoffset" values="35.81;35.81;0" keyTimes="0;0.823;1" dur="2.021s" fill="freeze" begin="0s;801c.click" /></path><path d="M34,60c5.14,2.59,8.91,6.58,12,11.05" stroke-dasharray="16.49" stroke-dashoffset="16.49"><animate attributeName="stroke-dashoffset" values="16.49" fill="freeze" begin="801c.click" /><animate attributeName="stroke-dashoffset" values="16.49;16.49;0" keyTimes="0;0.925;1" dur="2.186s" fill="freeze" begin="0s;801c.click" /></path><path d="M54.65,18.34c0.81,0.7,1.29,3.17,1.45,4.58c0.16,1.41,0,63.77-0.16,72.58" stroke-dasharray="77.456" stroke-dashoffset="77.456"><animate attributeName="stroke-dashoffset" values="77.456" fill="freeze" begin="801c.click" /><animate attributeName="stroke-dashoffset" values="77.456;77.456;0" keyTimes="0;0.79;1" dur="2.768s" fill="freeze" begin="0s;801c.click" /></path><path d="M56.25,21c9.5-1.25,26.47-2.13,31.11-2.82c1.64-0.24,3.62,1.93,3.38,3.35c-0.97,5.87-2.07,12.41-4.15,20.87" stroke-dasharray="57.821" stroke-dashoffset="57.821"><animate attributeName="stroke-dashoffset" values="57.821" fill="freeze" begin="801c.click" /><animate attributeName="stroke-dashoffset" values="57.821;57.821;0" keyTimes="0;0.827;1" dur="3.346s" fill="freeze" begin="0s;801c.click" /></path><path d="M56.17,45.27c13.51-1.37,25.8-1.75,32.17-2.25" stroke-dasharray="32.252" stroke-dashoffset="32.252"><animate attributeName="stroke-dashoffset" values="32.252" fill="freeze" begin="801c.click" /><animate attributeName="stroke-dashoffset" values="32.252;32.252;0" keyTimes="0;0.912;1" dur="3.669s" fill="freeze" begin="0s;801c.click" /></path><path d="M56.25,64.46c8.5-0.74,25-2.22,32.39-3.44c3.11-0.51,4.34,1.23,3.8,4.19C91,73,90.45,79.97,88.29,91.29" stroke-dasharray="66.059" stroke-dashoffset="66.059"><animate attributeName="stroke-dashoffset" values="66.059" fill="freeze" begin="801c.click" /><animate attributeName="stroke-dashoffset" values="66.059;66.059;0" keyTimes="0;0.881;1" dur="4.166s" fill="freeze" begin="0s;801c.click" /></path><path d="M56.81,92.63c7.76-0.53,24.59-0.99,34.37-1.6" stroke-dasharray="34.409" stroke-dashoffset="34.409"><animate attributeName="stroke-dashoffset" values="34.409" fill="freeze" begin="801c.click" /><animate attributeName="stroke-dashoffset" values="34.409;34.409;0" keyTimes="0;0.924;1" dur="4.51s" fill="freeze" begin="0s;801c.click" /></path></g></svg>