<svg xmlns="http://www.w3.org/2000/svg" viewBox="0 0 109 109" id="8056"><g fill="none" stroke="#666" stroke-width="6" stroke-linecap="round" stroke-linejoin="round"><g><g><g><path d="M16.69,18.5c1.76,0.56,4.46,0.5,6.32,0.25c8.37-1.12,18.24-3.02,26.1-3.78c2.2-0.21,4.5-0.2,6.64,0.2" /><path d="M25.93,22.07c0.88,0.88,1.03,2.33,1.03,3.72c0,3.96-0.08,21.38-0.08,27.84" /><path d="M28.05,29.73c7.57-1.48,12.57-2.11,19.33-3.08" /><path d="M27.74,41.7C34,40.5,40.62,39,48.41,37.9" /><path d="M14,57.39c1,0.86,2.41,0.97,3.45,0.63c6.43-2.14,17.68-5.64,29.43-9.67" /><path d="M47.75,18.5c0.62,0.62,1.1,1.71,1.1,3.1c0,1.22-0.13,18.68-0.1,30.65c0,1.62,0.01,3.14,0.01,4.5" /></g><g p5:phon="呈1" xmlns:p5="http://kanjivg.tagaini.net"><path d="M62.89,28.15c0.92,0.92,1.41,1.79,1.44,2.83c0.8,3.58,1.9,9.07,2.77,13.95c0.24,1.34,0.46,2.63,0.65,3.82" /><path d="M65.31,29.11C75.25,27.5,83,26.2,91.18,25.13c2.05-0.26,3.45,0.87,3,2.71c-1.24,5.07-1.79,6.93-3.96,15.38" /><path d="M68.72,46.8c3.9-0.44,12.19-1.38,18.8-2.07c1.54-0.16,2.98-0.32,4.22-0.48" /></g></g><g p4:partial p4:phon="呈2" xmlns:p4="http://kanjivg.tagaini.net"><path d="M30.5,63.97c2.33,0.58,4.79,0.53,7.12,0.25c6.96-0.84,25.07-2.77,35.26-3.39c2.07-0.12,4.13-0.29,6.12,0.42" /><path d="M53.86,65.25c0.88,0.88,1.23,2.12,1.23,3.69C55.09,74,55.08,84,55.08,89" /><path d="M32.5,77.25c2.2,0.47,4.41,0.3,6.62,0.09c9.47-0.93,23.5-2.46,33.14-2.98c2.52-0.13,4.86-0.24,6.99,0.14" /><path d="M22.25,92.19c3.75,0.56,7.56,0.39,11,0.03c16.73-1.73,31.92-3.35,49.76-4.06c2.98-0.12,7.62,0.22,9.74,0.81" /></g></g></g><g fill="none" stroke="#000" stroke-width="3" stroke-linecap="round" stroke-linejoin="round"><path d="M16.69,18.5c1.76,0.56,4.46,0.5,6.32,0.25c8.37-1.12,18.24-3.02,26.1-3.78c2.2-0.21,4.5-0.2,6.64,0.2" stroke-dasharray="39.408" stroke-dashoffset="39.408"><animate attributeName="stroke-dashoffset" values="39.408;39.408;0" dur="0.394s" fill="freeze" begin="0s;8056.click" /></path><path d="M25.93,22.07c0.88,0.88,1.03,2.33,1.03,3.72c0,3.96-0.08,21.38-0.08,27.84" stroke-dasharray="31.801" stroke-dashoffset="31.801"><animate attributeName="stroke-dashoffset" values="31.801" fill="freeze" begin="8056.click" /><animate attributeName="stroke-dashoffset" values="31.801;31.801;0" keyTimes="0;0.553;1" dur="0.712s" fill="freeze" begin="0s;8056.click" /></path><path d="M28.05,29.73c7.57-1.48,12.57-2.11,19.33-3.08" stroke-dasharray="19.578" stroke-dashoffset="19.578"><animate attributeName="stroke-dashoffset" values="19.578" fill="freeze" begin="8056.click" /><animate attributeName="stroke-dashoffset" values="19.578;19.578;0" keyTimes="0;0.784;1" dur="0.908s" fill="freeze" begin="0s;8056.click" /></path><path d="M27.74,41.7C34,40.5,40.62,39,48.41,37.9" stroke-dasharray="21.021" stroke-dashoffset="21.021"><animate attributeName="stroke-dashoffset" values="21.021" fill="freeze" begin="8056.click" /><animate attributeName="stroke-dashoffset" values="21.021;21.021;0" keyTimes="0;0.812;1" dur="1.118s" fill="freeze" begin="0s;8056.click" /></path><path d="M14,57.39c1,0.86,2.41,0.97,3.45,0.63c6.43-2.14,17.68-5.64,29.43-9.67" stroke-dasharray="34.638" stroke-dashoffset="34.638"><animate attributeName="stroke-dashoffset" values="34.638" fill="freeze" begin="8056.click" /><animate attributeName="stroke-dashoffset" values="34.638;34.638;0" keyTimes="0;0.764;1" dur="1.464s" fill="freeze" begin="0s;8056.click" /></path><path d="M47.75,18.5c0.62,0.62,1.1,1.71,1.1,3.1c0,1.22-0.13,18.68-0.1,30.65c0,1.62,0.01,3.14,0.01,4.5" stroke-dasharray="38.523" stroke-dashoffset="38.523"><animate attributeName="stroke-dashoffset" values="38.523" fill="freeze" begin="8056.click" /><animate attributeName="stroke-dashoffset" values="38.523;38.523;0" keyTimes="0;0.792;1" dur="1.849s" fill="freeze" begin="0s;8056.click" /></path><path d="M62.89,28.15c0.92,0.92,1.41,1.79,1.44,2.83c0.8,3.58,1.9,9.07,2.77,13.95c0.24,1.34,0.46,2.63,0.65,3.82" stroke-dasharray="21.358" stroke-dashoffset="21.358"><animate attributeName="stroke-dashoffset" values="21.358" fill="freeze" begin="8056.click" /><animate attributeName="stroke-dashoffset" values="21.358;21.358;0" keyTimes="0;0.896;1" dur="2.063s" fill="freeze" begin="0s;8056.click" /></path><path d="M65.31,29.11C75.25,27.5,83,26.2,91.18,25.13c2.05-0.26,3.45,0.87,3,2.71c-1.24,5.07-1.79,6.93-3.96,15.38" stroke-dasharray="46.972" stroke-dashoffset="46.972"><animate attributeName="stroke-dashoffset" values="46.972" fill="freeze" begin="8056.click" /><animate attributeName="stroke-dashoffset" values="46.972;46.972;0" keyTimes="0;0.814;1" dur="2.533s" fill="freeze" begin="0s;8056.click" /></path><path d="M68.72,46.8c3.9-0.44,12.19-1.38,18.8-2.07c1.54-0.16,2.98-0.32,4.22-0.48" stroke-dasharray="23.162" stroke-dashoffset="23.162"><animate attributeName="stroke-dashoffset" values="23.162" fill="freeze" begin="8056.click" /><animate attributeName="stroke-dashoffset" values="23.162;23.162;0" keyTimes="0;0.916;1" dur="2.765s" fill="freeze" begin="0s;8056.click" /></path><path d="M30.5,63.97c2.33,0.58,4.79,0.53,7.12,0.25c6.96-0.84,25.07-2.77,35.26-3.39c2.07-0.12,4.13-0.29,6.12,0.42" stroke-dasharray="48.771" stroke-dashoffset="48.771"><animate attributeName="stroke-dashoffset" values="48.771" fill="freeze" begin="8056.click" /><animate attributeName="stroke-dashoffset" values="48.771;48.771;0" keyTimes="0;0.85;1" dur="3.253s" fill="freeze" begin="0s;8056.click" /></path><path d="M53.86,65.25c0.88,0.88,1.23,2.12,1.23,3.69C55.09,74,55.08,84,55.08,89" stroke-dasharray="24.057" stroke-dashoffset="24.057"><animate attributeName="stroke-dashoffset" values="24.057" fill="freeze" begin="8056.click" /><animate attributeName="stroke-dashoffset" values="24.057;24.057;0" keyTimes="0;0.931;1" dur="3.494s" fill="freeze" begin="0s;8056.click" /></path><path d="M32.5,77.25c2.2,0.47,4.41,0.3,6.62,0.09c9.47-0.93,23.5-2.46,33.14-2.98c2.52-0.13,4.86-0.24,6.99,0.14" stroke-dasharray="46.932" stroke-dashoffset="46.932"><animate attributeName="stroke-dashoffset" values="46.932" fill="freeze" begin="8056.click" /><animate attributeName="stroke-dashoffset" values="46.932;46.932;0" keyTimes="0;0.882;1" dur="3.963s" fill="freeze" begin="0s;8056.click" /></path><path d="M22.25,92.19c3.75,0.56,7.56,0.39,11,0.03c16.73-1.73,31.92-3.35,49.76-4.06c2.98-0.12,7.62,0.22,9.74,0.81" stroke-dasharray="70.765" stroke-dashoffset="70.765"><animate attributeName="stroke-dashoffset" values="70.765" fill="freeze" begin="8056.click" /><animate attributeName="stroke-dashoffset" values="70.765;70.765;0" keyTimes="0;0.882;1" dur="4.495s" fill="freeze" begin="0s;8056.click" /></path></g></svg>