<svg xmlns="http://www.w3.org/2000/svg" viewBox="0 0 109 109" id="80db"><g fill="none" stroke="#666" stroke-width="6" stroke-linecap="round" stroke-linejoin="round"><g><g><path d="M19.22,19.99c0.52,0.95,0.88,1.88,1.05,2.8c0.17,0.92,0.15,25.9-0.41,33.63c-0.8,11-2.61,22.08-8.61,34.72" /><path d="M20.82,21.06c2.1-0.06,11.65-2.34,13.21-2.46c2.8-0.23,3.5,1.31,3.5,2.67c0,3.23-0.53,46.22-0.53,64.55c0,10.69-4.41,3.05-6.2,1.54" /><path d="M20.82,39.95c4.61-0.35,12.03-2.04,16.08-2.07" /><path d="M20.26,57.4c3.79-0.08,11.64-1.28,16.79-1.7" /></g><g><g p5:partial xmlns:p5="http://kanjivg.tagaini.net"><path d="M48.2,20.56c0.31,0.66,1.33,2.6,1.49,3.41c1.56,8.28,3.15,21.23,3.97,33.53" /><path d="M49.67,22c12.02-1.52,31.07-4.11,39.34-4.77c3.04-0.24,4.86,1.17,4.75,3.94C93.52,27.76,91,51.25,89.8,55.3" /><path d="M52.15,37.2C59,36.25,83,34.25,92.29,34.05" /><path d="M53.74,53.88C65.75,53,78.96,51.46,90.4,50.83" /></g><g><path d="M69.36,22.19c0.89,0.56,1.44,2.03,1.44,3.81c-0.03,8.98,0.3,66.54,0.3,69.47" /></g></g></g></g><g fill="none" stroke="#000" stroke-width="3" stroke-linecap="round" stroke-linejoin="round"><path d="M19.22,19.99c0.52,0.95,0.88,1.88,1.05,2.8c0.17,0.92,0.15,25.9-0.41,33.63c-0.8,11-2.61,22.08-8.61,34.72" stroke-dasharray="72.642" stroke-dashoffset="72.642"><animate attributeName="stroke-dashoffset" values="72.642;72.642;0" dur="0.546s" fill="freeze" begin="0s;80db.click" /></path><path d="M20.82,21.06c2.1-0.06,11.65-2.34,13.21-2.46c2.8-0.23,3.5,1.31,3.5,2.67c0,3.23-0.53,46.22-0.53,64.55c0,10.69-4.41,3.05-6.2,1.54" stroke-dasharray="95.541" stroke-dashoffset="95.541"><animate attributeName="stroke-dashoffset" values="95.541" fill="freeze" begin="80db.click" /><animate attributeName="stroke-dashoffset" values="95.541;95.541;0" keyTimes="0;0.432;1" dur="1.264s" fill="freeze" begin="0s;80db.click" /></path><path d="M20.82,39.95c4.61-0.35,12.03-2.04,16.08-2.07" stroke-dasharray="16.223" stroke-dashoffset="16.223"><animate attributeName="stroke-dashoffset" values="16.223" fill="freeze" begin="80db.click" /><animate attributeName="stroke-dashoffset" values="16.223;16.223;0" keyTimes="0;0.886;1" dur="1.426s" fill="freeze" begin="0s;80db.click" /></path><path d="M20.26,57.4c3.79-0.08,11.64-1.28,16.79-1.7" stroke-dasharray="16.88" stroke-dashoffset="16.88"><animate attributeName="stroke-dashoffset" values="16.88" fill="freeze" begin="80db.click" /><animate attributeName="stroke-dashoffset" values="16.88;16.88;0" keyTimes="0;0.894;1" dur="1.595s" fill="freeze" begin="0s;80db.click" /></path><path d="M48.2,20.56c0.31,0.66,1.33,2.6,1.49,3.41c1.56,8.28,3.15,21.23,3.97,33.53" stroke-dasharray="37.51" stroke-dashoffset="37.51"><animate attributeName="stroke-dashoffset" values="37.51" fill="freeze" begin="80db.click" /><animate attributeName="stroke-dashoffset" values="37.51;37.51;0" keyTimes="0;0.81;1" dur="1.97s" fill="freeze" begin="0s;80db.click" /></path><path d="M49.67,22c12.02-1.52,31.07-4.11,39.34-4.77c3.04-0.24,4.86,1.17,4.75,3.94C93.52,27.76,91,51.25,89.8,55.3" stroke-dasharray="81.207" stroke-dashoffset="81.207"><animate attributeName="stroke-dashoffset" values="81.207" fill="freeze" begin="80db.click" /><animate attributeName="stroke-dashoffset" values="81.207;81.207;0" keyTimes="0;0.763;1" dur="2.581s" fill="freeze" begin="0s;80db.click" /></path><path d="M52.15,37.2C59,36.25,83,34.25,92.29,34.05" stroke-dasharray="40.275" stroke-dashoffset="40.275"><animate attributeName="stroke-dashoffset" values="40.275" fill="freeze" begin="80db.click" /><animate attributeName="stroke-dashoffset" values="40.275;40.275;0" keyTimes="0;0.865;1" dur="2.984s" fill="freeze" begin="0s;80db.click" /></path><path d="M53.74,53.88C65.75,53,78.96,51.46,90.4,50.83" stroke-dasharray="36.789" stroke-dashoffset="36.789"><animate attributeName="stroke-dashoffset" values="36.789" fill="freeze" begin="80db.click" /><animate attributeName="stroke-dashoffset" values="36.789;36.789;0" keyTimes="0;0.89;1" dur="3.352s" fill="freeze" begin="0s;80db.click" /></path><path d="M69.36,22.19c0.89,0.56,1.44,2.03,1.44,3.81c-0.03,8.98,0.3,66.54,0.3,69.47" stroke-dasharray="73.7" stroke-dashoffset="73.7"><animate attributeName="stroke-dashoffset" values="73.7" fill="freeze" begin="80db.click" /><animate attributeName="stroke-dashoffset" values="73.7;73.7;0" keyTimes="0;0.858;1" dur="3.906s" fill="freeze" begin="0s;80db.click" /></path></g></svg>