<svg xmlns="http://www.w3.org/2000/svg" viewBox="0 0 109 109" id="810a"><g fill="none" stroke="#666" stroke-width="6" stroke-linecap="round" stroke-linejoin="round"><g><g><g><path d="M55.5,12.75c0,1.38-0.09,2.43-0.47,4.09C51.5,32.25,39.25,53,17,61.25" /><path d="M54.75,28.25c4.32,4.14,18.35,15.11,27.29,21.44c3.45,2.73,7.27,4.75,11.46,6.06" /></g><g><g><path d="M20.75,21.1c1.22,0.39,2.48,0.71,3.75,0.58c4.37-0.43,9.96-1.02,13.37-1.21c1.13-0.1,2.26-0.07,3.38,0.08" /></g><g><path d="M18.5,34.06c1.1,0.35,2.22,0.56,3.38,0.63c4.29-0.17,12.04-1.3,15.86-1.49c1.09-0.08,2.18-0.03,3.26,0.14" /></g></g><g><g><path d="M67.5,19.35c1.1,0.34,2.22,0.64,3.37,0.59c4-0.19,10-0.81,13.61-1.16c1.26-0.12,2.51-0.14,3.77,0.03" /></g><g><path d="M67.75,31.85c1.38,0.49,2.77,0.39,4.25,0.3c4.5-0.28,10.87-0.65,14.74-1.14c1.25-0.16,2.51-0.13,3.76,0.04" /></g></g></g><g><path d="M39.32,53.95c0.74,0.74,0.95,1.8,0.95,2.91c0,0.62,0.05,21.42,0.08,33.01c0.01,4,0.02,6.9,0.02,7.5" /><path d="M41.23,54.81c2.41-0.2,23.02-2.34,24.81-2.57c3.6-0.45,4.61,0.25,4.61,5.51c0,5.62,0.05,19.25,0.05,32.89c0,10.44-5.07,3.61-7.08,1.81" /><path d="M41.23,66.27c6.52-0.77,21.19-2.01,28.42-2.62" /><path d="M41.33,77.89c6.43-0.6,20.73-1.91,28.17-2.31" /></g></g></g><g fill="none" stroke="#000" stroke-width="3" stroke-linecap="round" stroke-linejoin="round"><path d="M55.5,12.75c0,1.38-0.09,2.43-0.47,4.09C51.5,32.25,39.25,53,17,61.25" stroke-dasharray="64.936" stroke-dashoffset="64.936"><animate attributeName="stroke-dashoffset" values="64.936;64.936;0" dur="0.488s" fill="freeze" begin="0s;810a.click" /></path><path d="M54.75,28.25c4.32,4.14,18.35,15.11,27.29,21.44c3.45,2.73,7.27,4.75,11.46,6.06" stroke-dasharray="47.76" stroke-dashoffset="47.76"><animate attributeName="stroke-dashoffset" values="47.76" fill="freeze" begin="810a.click" /><animate attributeName="stroke-dashoffset" values="47.76;47.76;0" keyTimes="0;0.505;1" dur="0.966s" fill="freeze" begin="0s;810a.click" /></path><path d="M20.75,21.1c1.22,0.39,2.48,0.71,3.75,0.58c4.37-0.43,9.96-1.02,13.37-1.21c1.13-0.1,2.26-0.07,3.38,0.08" stroke-dasharray="20.637" stroke-dashoffset="20.637"><animate attributeName="stroke-dashoffset" values="20.637" fill="freeze" begin="810a.click" /><animate attributeName="stroke-dashoffset" values="20.637;20.637;0" keyTimes="0;0.824;1" dur="1.172s" fill="freeze" begin="0s;810a.click" /></path><path d="M18.5,34.06c1.1,0.35,2.22,0.56,3.38,0.63c4.29-0.17,12.04-1.3,15.86-1.49c1.09-0.08,2.18-0.03,3.26,0.14" stroke-dasharray="22.651" stroke-dashoffset="22.651"><animate attributeName="stroke-dashoffset" values="22.651" fill="freeze" begin="810a.click" /><animate attributeName="stroke-dashoffset" values="22.651;22.651;0" keyTimes="0;0.838;1" dur="1.399s" fill="freeze" begin="0s;810a.click" /></path><path d="M67.5,19.35c1.1,0.34,2.22,0.64,3.37,0.59c4-0.19,10-0.81,13.61-1.16c1.26-0.12,2.51-0.14,3.77,0.03" stroke-dasharray="20.879" stroke-dashoffset="20.879"><animate attributeName="stroke-dashoffset" values="20.879" fill="freeze" begin="810a.click" /><animate attributeName="stroke-dashoffset" values="20.879;20.879;0" keyTimes="0;0.87;1" dur="1.608s" fill="freeze" begin="0s;810a.click" /></path><path d="M67.75,31.85c1.38,0.49,2.77,0.39,4.25,0.3c4.5-0.28,10.87-0.65,14.74-1.14c1.25-0.16,2.51-0.13,3.76,0.04" stroke-dasharray="22.851" stroke-dashoffset="22.851"><animate attributeName="stroke-dashoffset" values="22.851" fill="freeze" begin="810a.click" /><animate attributeName="stroke-dashoffset" values="22.851;22.851;0" keyTimes="0;0.875;1" dur="1.837s" fill="freeze" begin="0s;810a.click" /></path><path d="M39.32,53.95c0.74,0.74,0.95,1.8,0.95,2.91c0,0.62,0.05,21.42,0.08,33.01c0.01,4,0.02,6.9,0.02,7.5" stroke-dasharray="43.655" stroke-dashoffset="43.655"><animate attributeName="stroke-dashoffset" values="43.655" fill="freeze" begin="810a.click" /><animate attributeName="stroke-dashoffset" values="43.655;43.655;0" keyTimes="0;0.808;1" dur="2.274s" fill="freeze" begin="0s;810a.click" /></path><path d="M41.23,54.81c2.41-0.2,23.02-2.34,24.81-2.57c3.6-0.45,4.61,0.25,4.61,5.51c0,5.62,0.05,19.25,0.05,32.89c0,10.44-5.07,3.61-7.08,1.81" stroke-dasharray="79.778" stroke-dashoffset="79.778"><animate attributeName="stroke-dashoffset" values="79.778" fill="freeze" begin="810a.click" /><animate attributeName="stroke-dashoffset" values="79.778;79.778;0" keyTimes="0;0.791;1" dur="2.874s" fill="freeze" begin="0s;810a.click" /></path><path d="M41.23,66.27c6.52-0.77,21.19-2.01,28.42-2.62" stroke-dasharray="28.542" stroke-dashoffset="28.542"><animate attributeName="stroke-dashoffset" values="28.542" fill="freeze" begin="810a.click" /><animate attributeName="stroke-dashoffset" values="28.542;28.542;0" keyTimes="0;0.91;1" dur="3.159s" fill="freeze" begin="0s;810a.click" /></path><path d="M41.33,77.89c6.43-0.6,20.73-1.91,28.17-2.31" stroke-dasharray="28.267" stroke-dashoffset="28.267"><animate attributeName="stroke-dashoffset" values="28.267" fill="freeze" begin="810a.click" /><animate attributeName="stroke-dashoffset" values="28.267;28.267;0" keyTimes="0;0.918;1" dur="3.442s" fill="freeze" begin="0s;810a.click" /></path></g></svg>