<svg xmlns="http://www.w3.org/2000/svg" viewBox="0 0 109 109" id="8129"><g fill="none" stroke="#666" stroke-width="6" stroke-linecap="round" stroke-linejoin="round"><g><g><g><path d="M32.25,15c0.24,2.17-0.32,4.26-1.1,6.12C26.19,32.98,19.89,44.61,8.5,59.04" /><path d="M23.78,42.5c1.17,1.17,1.5,2,1.5,3.98c0,9.87-0.02,28.41-0.03,39.77c0,3.03,0,5.54,0,7.25" /></g><g><path d="M36.52,30.33c1.2,1.2,1.51,2.67,1.51,5.02c0,10.82-0.01,27.5-0.02,37.52c0,3.46,0,6.1,0,7.38" /></g></g><g><g><g><g><path d="M60.1,12.39c0.12,1.38-0.09,2.43-0.78,3.7c-2.42,4.51-7.01,12-13.32,17.07" /><path d="M58.22,24.12c1.91,0.25,3.41,0.13,5.67-0.07c5.78-0.5,12.73-1.43,21.37-2.69c2.01-0.29,3.89-0.32,5.88,0.03" /></g><g><g><path d="M78.54,25.38c0,1.25-0.63,2.27-1.47,3.27C69.75,37.38,62.25,44,45.12,51.25" /></g><path d="M54,29.45c3.46,1.45,17.65,10.35,30.73,17.09c2.04,1.05,6.02,2.83,9.52,3.91" /></g></g><g><path d="M52.85,54.03c0.87,0.87,1.13,1.85,1.13,3.19c0,0.47-0.04,21.88-0.06,33.28c0,3.09-0.01,5.44-0.01,6.44" /><path d="M54.87,55.66c2.26-0.14,23.01-2.43,24.7-2.43c2.06,0,3.52,1.15,3.52,3.43c0,2.34-0.07,23.01-0.07,34.42c0,9.17-4.64,2.67-6.41,0.77" /><path d="M55.12,67.01c7.73-0.85,20.36-1.86,27.15-2.29" /><path d="M55.18,78.14c7.69-0.89,19.73-1.94,26.71-2.22" /></g></g></g></g></g><g fill="none" stroke="#000" stroke-width="3" stroke-linecap="round" stroke-linejoin="round"><path d="M32.25,15c0.24,2.17-0.32,4.26-1.1,6.12C26.19,32.98,19.89,44.61,8.5,59.04" stroke-dasharray="50.605" stroke-dashoffset="50.605"><animate attributeName="stroke-dashoffset" values="50.605;50.605;0" dur="0.506s" fill="freeze" begin="0s;8129.click" /></path><path d="M23.78,42.5c1.17,1.17,1.5,2,1.5,3.98c0,9.87-0.02,28.41-0.03,39.77c0,3.03,0,5.54,0,7.25" stroke-dasharray="51.428" stroke-dashoffset="51.428"><animate attributeName="stroke-dashoffset" values="51.428" fill="freeze" begin="8129.click" /><animate attributeName="stroke-dashoffset" values="51.428;51.428;0" keyTimes="0;0.496;1" dur="1.02s" fill="freeze" begin="0s;8129.click" /></path><path d="M36.52,30.33c1.2,1.2,1.51,2.67,1.51,5.02c0,10.82-0.01,27.5-0.02,37.52c0,3.46,0,6.1,0,7.38" stroke-dasharray="50.298" stroke-dashoffset="50.298"><animate attributeName="stroke-dashoffset" values="50.298" fill="freeze" begin="8129.click" /><animate attributeName="stroke-dashoffset" values="50.298;50.298;0" keyTimes="0;0.67;1" dur="1.523s" fill="freeze" begin="0s;8129.click" /></path><path d="M60.1,12.39c0.12,1.38-0.09,2.43-0.78,3.7c-2.42,4.51-7.01,12-13.32,17.07" stroke-dasharray="25.636" stroke-dashoffset="25.636"><animate attributeName="stroke-dashoffset" values="25.636" fill="freeze" begin="8129.click" /><animate attributeName="stroke-dashoffset" values="25.636;25.636;0" keyTimes="0;0.856;1" dur="1.779s" fill="freeze" begin="0s;8129.click" /></path><path d="M58.22,24.12c1.91,0.25,3.41,0.13,5.67-0.07c5.78-0.5,12.73-1.43,21.37-2.69c2.01-0.29,3.89-0.32,5.88,0.03" stroke-dasharray="33.132" stroke-dashoffset="33.132"><animate attributeName="stroke-dashoffset" values="33.132" fill="freeze" begin="8129.click" /><animate attributeName="stroke-dashoffset" values="33.132;33.132;0" keyTimes="0;0.843;1" dur="2.11s" fill="freeze" begin="0s;8129.click" /></path><path d="M78.54,25.38c0,1.25-0.63,2.27-1.47,3.27C69.75,37.38,62.25,44,45.12,51.25" stroke-dasharray="43.24" stroke-dashoffset="43.24"><animate attributeName="stroke-dashoffset" values="43.24" fill="freeze" begin="8129.click" /><animate attributeName="stroke-dashoffset" values="43.24;43.24;0" keyTimes="0;0.83;1" dur="2.542s" fill="freeze" begin="0s;8129.click" /></path><path d="M54,29.45c3.46,1.45,17.65,10.35,30.73,17.09c2.04,1.05,6.02,2.83,9.52,3.91" stroke-dasharray="45.472" stroke-dashoffset="45.472"><animate attributeName="stroke-dashoffset" values="45.472" fill="freeze" begin="8129.click" /><animate attributeName="stroke-dashoffset" values="45.472;45.472;0" keyTimes="0;0.848;1" dur="2.997s" fill="freeze" begin="0s;8129.click" /></path><path d="M52.85,54.03c0.87,0.87,1.13,1.85,1.13,3.19c0,0.47-0.04,21.88-0.06,33.28c0,3.09-0.01,5.44-0.01,6.44" stroke-dasharray="43.207" stroke-dashoffset="43.207"><animate attributeName="stroke-dashoffset" values="43.207" fill="freeze" begin="8129.click" /><animate attributeName="stroke-dashoffset" values="43.207;43.207;0" keyTimes="0;0.874;1" dur="3.429s" fill="freeze" begin="0s;8129.click" /></path><path d="M54.87,55.66c2.26-0.14,23.01-2.43,24.7-2.43c2.06,0,3.52,1.15,3.52,3.43c0,2.34-0.07,23.01-0.07,34.42c0,9.17-4.64,2.67-6.41,0.77" stroke-dasharray="76.631" stroke-dashoffset="76.631"><animate attributeName="stroke-dashoffset" values="76.631" fill="freeze" begin="8129.click" /><animate attributeName="stroke-dashoffset" values="76.631;76.631;0" keyTimes="0;0.856;1" dur="4.005s" fill="freeze" begin="0s;8129.click" /></path><path d="M55.12,67.01c7.73-0.85,20.36-1.86,27.15-2.29" stroke-dasharray="27.249" stroke-dashoffset="27.249"><animate attributeName="stroke-dashoffset" values="27.249" fill="freeze" begin="8129.click" /><animate attributeName="stroke-dashoffset" values="27.249;27.249;0" keyTimes="0;0.936;1" dur="4.277s" fill="freeze" begin="0s;8129.click" /></path><path d="M55.18,78.14c7.69-0.89,19.73-1.94,26.71-2.22" stroke-dasharray="26.808" stroke-dashoffset="26.808"><animate attributeName="stroke-dashoffset" values="26.808" fill="freeze" begin="8129.click" /><animate attributeName="stroke-dashoffset" values="26.808;26.808;0" keyTimes="0;0.941;1" dur="4.545s" fill="freeze" begin="0s;8129.click" /></path></g></svg>