<svg xmlns="http://www.w3.org/2000/svg" viewBox="0 0 109 109" id="8133"><g fill="none" stroke="#666" stroke-width="6" stroke-linecap="round" stroke-linejoin="round"><g><g><path d="M20.57,22.42c0.76,0.76,1,2.03,1.03,2.92c0.98,32.04-1.61,56.32-9.6,65.08" /><path d="M22.38,23.94c2.99-0.57,12.94-2.65,14.47-2.85c1.78-0.22,2.94,1.24,2.94,2.54c0,3.07-0.02,44.25-0.02,61.71c0,10.68-5.8,3.38-7.56,1.94" /><path d="M22.88,40.25c4.53-0.34,11.8-1.73,15.77-1.75" /><path d="M22.33,57.12c3.72-0.08,11.43-0.97,16.48-1.37" /></g><g p4:phon="つ+凶" xmlns:p4="http://kanjivg.tagaini.net"><g><path d="M47,27.36c3.76,4.43,6.88,10.27,8.08,13.89" /><path d="M63.82,20.25c2.68,3.38,6.43,10.5,7.65,16.25" /><path d="M92.86,17.5c0.51,1.25,0.26,2.75-0.65,4.14c-2.81,4.3-4.84,7.24-10.05,14.33" /></g><g><g><g><path d="M80.72,46.18c0.37,0.75,0.49,1.85-0.06,3.17c-4.99,11.89-12.41,21.6-23.15,27.82" /></g><path d="M60.26,54.97c7.18,3.02,17.76,13.08,21.51,20.26" /></g><g><path d="M49.56,59.31c0.69,0.69,1.06,1.94,1.04,3.12c-0.08,3.44,0.14,17.3-0.06,22.56c-0.06,1.74-0.36,3.18,1.86,3.04c8.43-0.5,33.96-2.72,38.78-3" /><path d="M93.05,54.56c0.76,0.76,0.95,2.06,0.79,3.87c-0.34,3.67-1.5,16.3-2.25,25.06c-0.21,2.45-0.39,4.52-0.51,5.89" /></g></g></g></g></g><g fill="none" stroke="#000" stroke-width="3" stroke-linecap="round" stroke-linejoin="round"><path d="M20.57,22.42c0.76,0.76,1,2.03,1.03,2.92c0.98,32.04-1.61,56.32-9.6,65.08" stroke-dasharray="70.007" stroke-dashoffset="70.007"><animate attributeName="stroke-dashoffset" values="70.007;70.007;0" dur="0.526s" fill="freeze" begin="0s;8133.click" /></path><path d="M22.38,23.94c2.99-0.57,12.94-2.65,14.47-2.85c1.78-0.22,2.94,1.24,2.94,2.54c0,3.07-0.02,44.25-0.02,61.71c0,10.68-5.8,3.38-7.56,1.94" stroke-dasharray="94.197" stroke-dashoffset="94.197"><animate attributeName="stroke-dashoffset" values="94.197" fill="freeze" begin="8133.click" /><animate attributeName="stroke-dashoffset" values="94.197;94.197;0" keyTimes="0;0.426;1" dur="1.234s" fill="freeze" begin="0s;8133.click" /></path><path d="M22.88,40.25c4.53-0.34,11.8-1.73,15.77-1.75" stroke-dasharray="15.875" stroke-dashoffset="15.875"><animate attributeName="stroke-dashoffset" values="15.875" fill="freeze" begin="8133.click" /><animate attributeName="stroke-dashoffset" values="15.875;15.875;0" keyTimes="0;0.886;1" dur="1.393s" fill="freeze" begin="0s;8133.click" /></path><path d="M22.33,57.12c3.72-0.08,11.43-0.97,16.48-1.37" stroke-dasharray="16.54" stroke-dashoffset="16.54"><animate attributeName="stroke-dashoffset" values="16.54" fill="freeze" begin="8133.click" /><animate attributeName="stroke-dashoffset" values="16.54;16.54;0" keyTimes="0;0.894;1" dur="1.558s" fill="freeze" begin="0s;8133.click" /></path><path d="M47,27.36c3.76,4.43,6.88,10.27,8.08,13.89" stroke-dasharray="16.151" stroke-dashoffset="16.151"><animate attributeName="stroke-dashoffset" values="16.151" fill="freeze" begin="8133.click" /><animate attributeName="stroke-dashoffset" values="16.151;16.151;0" keyTimes="0;0.906;1" dur="1.72s" fill="freeze" begin="0s;8133.click" /></path><path d="M63.82,20.25c2.68,3.38,6.43,10.5,7.65,16.25" stroke-dasharray="18.084" stroke-dashoffset="18.084"><animate attributeName="stroke-dashoffset" values="18.084" fill="freeze" begin="8133.click" /><animate attributeName="stroke-dashoffset" values="18.084;18.084;0" keyTimes="0;0.905;1" dur="1.901s" fill="freeze" begin="0s;8133.click" /></path><path d="M92.86,17.5c0.51,1.25,0.26,2.75-0.65,4.14c-2.81,4.3-4.84,7.24-10.05,14.33" stroke-dasharray="21.867" stroke-dashoffset="21.867"><animate attributeName="stroke-dashoffset" values="21.867" fill="freeze" begin="8133.click" /><animate attributeName="stroke-dashoffset" values="21.867;21.867;0" keyTimes="0;0.897;1" dur="2.12s" fill="freeze" begin="0s;8133.click" /></path><path d="M80.72,46.18c0.37,0.75,0.49,1.85-0.06,3.17c-4.99,11.89-12.41,21.6-23.15,27.82" stroke-dasharray="40.126" stroke-dashoffset="40.126"><animate attributeName="stroke-dashoffset" values="40.126" fill="freeze" begin="8133.click" /><animate attributeName="stroke-dashoffset" values="40.126;40.126;0" keyTimes="0;0.841;1" dur="2.521s" fill="freeze" begin="0s;8133.click" /></path><path d="M60.26,54.97c7.18,3.02,17.76,13.08,21.51,20.26" stroke-dasharray="29.955" stroke-dashoffset="29.955"><animate attributeName="stroke-dashoffset" values="29.955" fill="freeze" begin="8133.click" /><animate attributeName="stroke-dashoffset" values="29.955;29.955;0" keyTimes="0;0.894;1" dur="2.821s" fill="freeze" begin="0s;8133.click" /></path><path d="M49.56,59.31c0.69,0.69,1.06,1.94,1.04,3.12c-0.08,3.44,0.14,17.3-0.06,22.56c-0.06,1.74-0.36,3.18,1.86,3.04c8.43-0.5,33.96-2.72,38.78-3" stroke-dasharray="69.197" stroke-dashoffset="69.197"><animate attributeName="stroke-dashoffset" values="69.197" fill="freeze" begin="8133.click" /><animate attributeName="stroke-dashoffset" values="69.197;69.197;0" keyTimes="0;0.844;1" dur="3.341s" fill="freeze" begin="0s;8133.click" /></path><path d="M93.05,54.56c0.76,0.76,0.95,2.06,0.79,3.87c-0.34,3.67-1.5,16.3-2.25,25.06c-0.21,2.45-0.39,4.52-0.51,5.89" stroke-dasharray="35.146" stroke-dashoffset="35.146"><animate attributeName="stroke-dashoffset" values="35.146" fill="freeze" begin="8133.click" /><animate attributeName="stroke-dashoffset" values="35.146;35.146;0" keyTimes="0;0.905;1" dur="3.692s" fill="freeze" begin="0s;8133.click" /></path></g></svg>