<svg xmlns="http://www.w3.org/2000/svg" viewBox="0 0 109 109" id="8165"><g fill="none" stroke="#666" stroke-width="6" stroke-linecap="round" stroke-linejoin="round"><g><g><path d="M17.42,20.08c0.83,0.92,1.67,2.54,1.67,3.5c0,4.17,0.5,23.35-0.04,31.27c-0.77,11.28-1.56,24.65-8.8,37.62" /><path d="M19.42,21.08c3.83-1.08,11.97-2.36,13.45-2.49c2.67-0.23,3.33,1.29,3.33,2.64c0,3.19-0.5,45.19-0.5,63.32c0,12.47-5.08,4.69-6.79,3.2" /><path d="M19.82,39.5c4.11-0.28,12.14-1.63,15.75-1.65" /><path d="M18.93,57.09c3.27-0.07,12.02-1.18,16.45-1.58" /></g><g><g><path d="M47.75,17.08c0.6,0.55,1.85,2.04,1.95,2.82c0.3,2.35,3.65,21.41,3.88,22.18" /><path d="M49.79,18.43c3.49-0.28,29.94-3.56,33.12-3.84c2.65-0.24,4.66,0.91,3.94,4.44c-1.31,6.41-2.08,13.57-3.61,20.89" /><path d="M52.74,28.62c4.32-0.29,26.77-2.5,31.66-2.83" /><path d="M53.81,40.8c6.79-0.37,20.33-2.24,29.11-2.72" /></g><g><path d="M53.92,47.92c0.03,0.48,0.03,1.32-0.1,2c-0.72,4.03-5.41,13.09-11.07,18.5" /><path d="M54.42,58.08c0.66,0.31,4.34,0.4,5,0.33c4.76-0.44,20.83-2.42,26-3.17c1.57-0.23,3.75,0.45,4.33,0.5" /><path d="M67.42,43.58c0.69,0.51,1.99,1.67,1.99,4.14c0,1.02-0.09,35.19-0.23,41.55" /><path d="M52.75,72.58c0.71,0.48,3.45,0.9,4.17,0.83c7.58-0.67,21.89-2.44,26.33-3.17c1.19-0.19,4.2,0.26,4.83,0.33" /><path d="M44.58,90.58c1.08,0.43,3.78,0.43,4.86,0.34c7.8-0.62,31.3-2.42,40.97-2.5c1.8-0.02,3.58,0.08,5.67,1" /></g></g></g></g><g fill="none" stroke="#000" stroke-width="3" stroke-linecap="round" stroke-linejoin="round"><path d="M17.42,20.08c0.83,0.92,1.67,2.54,1.67,3.5c0,4.17,0.5,23.35-0.04,31.27c-0.77,11.28-1.56,24.65-8.8,37.62" stroke-dasharray="74.212" stroke-dashoffset="74.212"><animate attributeName="stroke-dashoffset" values="74.212;74.212;0" dur="0.558s" fill="freeze" begin="0s;8165.click" /></path><path d="M19.42,21.08c3.83-1.08,11.97-2.36,13.45-2.49c2.67-0.23,3.33,1.29,3.33,2.64c0,3.19-0.5,45.19-0.5,63.32c0,12.47-5.08,4.69-6.79,3.2" stroke-dasharray="95.862" stroke-dashoffset="95.862"><animate attributeName="stroke-dashoffset" values="95.862" fill="freeze" begin="8165.click" /><animate attributeName="stroke-dashoffset" values="95.862;95.862;0" keyTimes="0;0.436;1" dur="1.279s" fill="freeze" begin="0s;8165.click" /></path><path d="M19.82,39.5c4.11-0.28,12.14-1.63,15.75-1.65" stroke-dasharray="15.843" stroke-dashoffset="15.843"><animate attributeName="stroke-dashoffset" values="15.843" fill="freeze" begin="8165.click" /><animate attributeName="stroke-dashoffset" values="15.843;15.843;0" keyTimes="0;0.89;1" dur="1.437s" fill="freeze" begin="0s;8165.click" /></path><path d="M18.93,57.09c3.27-0.07,12.02-1.18,16.45-1.58" stroke-dasharray="16.529" stroke-dashoffset="16.529"><animate attributeName="stroke-dashoffset" values="16.529" fill="freeze" begin="8165.click" /><animate attributeName="stroke-dashoffset" values="16.529;16.529;0" keyTimes="0;0.897;1" dur="1.602s" fill="freeze" begin="0s;8165.click" /></path><path d="M47.75,17.08c0.6,0.55,1.85,2.04,1.95,2.82c0.3,2.35,3.65,21.41,3.88,22.18" stroke-dasharray="25.988" stroke-dashoffset="25.988"><animate attributeName="stroke-dashoffset" values="25.988" fill="freeze" begin="8165.click" /><animate attributeName="stroke-dashoffset" values="25.988;25.988;0" keyTimes="0;0.86;1" dur="1.862s" fill="freeze" begin="0s;8165.click" /></path><path d="M49.79,18.43c3.49-0.28,29.94-3.56,33.12-3.84c2.65-0.24,4.66,0.91,3.94,4.44c-1.31,6.41-2.08,13.57-3.61,20.89" stroke-dasharray="61.847" stroke-dashoffset="61.847"><animate attributeName="stroke-dashoffset" values="61.847" fill="freeze" begin="8165.click" /><animate attributeName="stroke-dashoffset" values="61.847;61.847;0" keyTimes="0;0.8;1" dur="2.327s" fill="freeze" begin="0s;8165.click" /></path><path d="M52.74,28.62c4.32-0.29,26.77-2.5,31.66-2.83" stroke-dasharray="31.788" stroke-dashoffset="31.788"><animate attributeName="stroke-dashoffset" values="31.788" fill="freeze" begin="8165.click" /><animate attributeName="stroke-dashoffset" values="31.788;31.788;0" keyTimes="0;0.88;1" dur="2.645s" fill="freeze" begin="0s;8165.click" /></path><path d="M53.81,40.8c6.79-0.37,20.33-2.24,29.11-2.72" stroke-dasharray="29.241" stroke-dashoffset="29.241"><animate attributeName="stroke-dashoffset" values="29.241" fill="freeze" begin="8165.click" /><animate attributeName="stroke-dashoffset" values="29.241;29.241;0" keyTimes="0;0.901;1" dur="2.937s" fill="freeze" begin="0s;8165.click" /></path><path d="M53.92,47.92c0.03,0.48,0.03,1.32-0.1,2c-0.72,4.03-5.41,13.09-11.07,18.5" stroke-dasharray="23.809" stroke-dashoffset="23.809"><animate attributeName="stroke-dashoffset" values="23.809" fill="freeze" begin="8165.click" /><animate attributeName="stroke-dashoffset" values="23.809;23.809;0" keyTimes="0;0.925;1" dur="3.175s" fill="freeze" begin="0s;8165.click" /></path><path d="M54.42,58.08c0.66,0.31,4.34,0.4,5,0.33c4.76-0.44,20.83-2.42,26-3.17c1.57-0.23,3.75,0.45,4.33,0.5" stroke-dasharray="35.602" stroke-dashoffset="35.602"><animate attributeName="stroke-dashoffset" values="35.602" fill="freeze" begin="8165.click" /><animate attributeName="stroke-dashoffset" values="35.602;35.602;0" keyTimes="0;0.899;1" dur="3.531s" fill="freeze" begin="0s;8165.click" /></path><path d="M67.42,43.58c0.69,0.51,1.99,1.67,1.99,4.14c0,1.02-0.09,35.19-0.23,41.55" stroke-dasharray="46.333" stroke-dashoffset="46.333"><animate attributeName="stroke-dashoffset" values="46.333" fill="freeze" begin="8165.click" /><animate attributeName="stroke-dashoffset" values="46.333;46.333;0" keyTimes="0;0.884;1" dur="3.994s" fill="freeze" begin="0s;8165.click" /></path><path d="M52.75,72.58c0.71,0.48,3.45,0.9,4.17,0.83c7.58-0.67,21.89-2.44,26.33-3.17c1.19-0.19,4.2,0.26,4.83,0.33" stroke-dasharray="35.662" stroke-dashoffset="35.662"><animate attributeName="stroke-dashoffset" values="35.662" fill="freeze" begin="8165.click" /><animate attributeName="stroke-dashoffset" values="35.662;35.662;0" keyTimes="0;0.918;1" dur="4.351s" fill="freeze" begin="0s;8165.click" /></path><path d="M44.58,90.58c1.08,0.43,3.78,0.43,4.86,0.34c7.8-0.62,31.3-2.42,40.97-2.5c1.8-0.02,3.58,0.08,5.67,1" stroke-dasharray="51.758" stroke-dashoffset="51.758"><animate attributeName="stroke-dashoffset" values="51.758" fill="freeze" begin="8165.click" /><animate attributeName="stroke-dashoffset" values="51.758;51.758;0" keyTimes="0;0.894;1" dur="4.869s" fill="freeze" begin="0s;8165.click" /></path></g></svg>