<svg xmlns="http://www.w3.org/2000/svg" viewBox="0 0 109 109" id="8183"><g fill="none" stroke="#666" stroke-width="6" stroke-linecap="round" stroke-linejoin="round"><g><g><path d="M15.42,17.92c1.08,1.08,1.4,2.2,1.54,3.16c0.14,0.96,0.12,27-0.33,35.05C15.98,67.58,15.5,80.5,9.25,92.31" /><path d="M16.75,19.58c1.9-0.06,12.71-2.02,14.12-2.15c2.53-0.23,3.16,1.31,3.16,2.69c0,3.25-0.47,46.53-0.47,64.98c0,12.69-5.36,4.67-6.98,3.15" /><path d="M17.15,39.06c4.52-0.28,12.78-1.6,16.75-1.62" /><path d="M17.76,59.45c3.34-0.08,10.25-1.23,14.79-1.63" /></g><g><g><g><path d="M46.58,18.58c0.32,0.49,1.35,2.41,1.43,3.06c0.67,5.43,2.55,15.94,3.25,26.94" /><path d="M48.51,19.94c11.39-1.46,27.86-3.08,34.57-3.69c2.69-0.25,4.08,1.82,3.83,4c-0.78,6.89-1.97,17.63-3.49,25.98" /></g><g><path d="M67.92,21.25c0.09,0.44,0.48,2.32,0.33,3c-0.38,1.71-10.06,15.62-13.08,17.11" /><path d="M68.42,29.58c3.55,1.16,9.34,6.14,10.22,8.4" /></g><g><path d="M52.63,45.83c7.11,0,20.13-1.91,29.95-2.08" /></g></g><g><path d="M46.14,59.83c0.7,0.79,1.29,1.75,1.44,2.42c1.17,5.29,1.93,18.47,2.73,27.98" /><path d="M47.87,61.54c9.26-1.09,34.48-3.49,37.84-3.72c2.11-0.14,3.28,1.04,3.07,3.2c-0.31,3.05-1.44,23.11-2.52,27.23" /><path d="M59.9,62.54c0.23,0.51,0.96,1.43,1.06,2.06c0.79,5.01,0.87,16.17,1.41,25.17" /><path d="M74.13,61.5c0.37,0.6,0.71,1.63,0.65,2.41c-0.6,7.71-0.46,14.6-1.2,24.48" /><path d="M39.92,91.08c1.02,0.52,4.01,1.31,5.03,1.22c10.59-0.88,30.05-3.05,47.13-3.39c1.7-0.03,5.48,0.24,6.33,0.5" /></g></g></g></g><g fill="none" stroke="#000" stroke-width="3" stroke-linecap="round" stroke-linejoin="round"><path d="M15.42,17.92c1.08,1.08,1.4,2.2,1.54,3.16c0.14,0.96,0.12,27-0.33,35.05C15.98,67.58,15.5,80.5,9.25,92.31" stroke-dasharray="75.884" stroke-dashoffset="75.884"><animate attributeName="stroke-dashoffset" values="75.884;75.884;0" dur="0.571s" fill="freeze" begin="0s;8183.click" /></path><path d="M16.75,19.58c1.9-0.06,12.71-2.02,14.12-2.15c2.53-0.23,3.16,1.31,3.16,2.69c0,3.25-0.47,46.53-0.47,64.98c0,12.69-5.36,4.67-6.98,3.15" stroke-dasharray="98.319" stroke-dashoffset="98.319"><animate attributeName="stroke-dashoffset" values="98.319" fill="freeze" begin="8183.click" /><animate attributeName="stroke-dashoffset" values="98.319;98.319;0" keyTimes="0;0.436;1" dur="1.31s" fill="freeze" begin="0s;8183.click" /></path><path d="M17.15,39.06c4.52-0.28,12.78-1.6,16.75-1.62" stroke-dasharray="16.834" stroke-dashoffset="16.834"><animate attributeName="stroke-dashoffset" values="16.834" fill="freeze" begin="8183.click" /><animate attributeName="stroke-dashoffset" values="16.834;16.834;0" keyTimes="0;0.886;1" dur="1.478s" fill="freeze" begin="0s;8183.click" /></path><path d="M17.76,59.45c3.34-0.08,10.25-1.23,14.79-1.63" stroke-dasharray="14.884" stroke-dashoffset="14.884"><animate attributeName="stroke-dashoffset" values="14.884" fill="freeze" begin="8183.click" /><animate attributeName="stroke-dashoffset" values="14.884;14.884;0" keyTimes="0;0.832;1" dur="1.776s" fill="freeze" begin="0s;8183.click" /></path><path d="M46.58,18.58c0.32,0.49,1.35,2.41,1.43,3.06c0.67,5.43,2.55,15.94,3.25,26.94" stroke-dasharray="30.535" stroke-dashoffset="30.535"><animate attributeName="stroke-dashoffset" values="30.535" fill="freeze" begin="8183.click" /><animate attributeName="stroke-dashoffset" values="30.535;30.535;0" keyTimes="0;0.853;1" dur="2.081s" fill="freeze" begin="0s;8183.click" /></path><path d="M48.51,19.94c11.39-1.46,27.86-3.08,34.57-3.69c2.69-0.25,4.08,1.82,3.83,4c-0.78,6.89-1.97,17.63-3.49,25.98" stroke-dasharray="67.435" stroke-dashoffset="67.435"><animate attributeName="stroke-dashoffset" values="67.435" fill="freeze" begin="8183.click" /><animate attributeName="stroke-dashoffset" values="67.435;67.435;0" keyTimes="0;0.804;1" dur="2.588s" fill="freeze" begin="0s;8183.click" /></path><path d="M67.92,21.25c0.09,0.44,0.48,2.32,0.33,3c-0.38,1.71-10.06,15.62-13.08,17.11" stroke-dasharray="24.707" stroke-dashoffset="24.707"><animate attributeName="stroke-dashoffset" values="24.707" fill="freeze" begin="8183.click" /><animate attributeName="stroke-dashoffset" values="24.707;24.707;0" keyTimes="0;0.913;1" dur="2.835s" fill="freeze" begin="0s;8183.click" /></path><path d="M68.42,29.58c3.55,1.16,9.34,6.14,10.22,8.4" stroke-dasharray="13.449" stroke-dashoffset="13.449"><animate attributeName="stroke-dashoffset" values="13.449" fill="freeze" begin="8183.click" /><animate attributeName="stroke-dashoffset" values="13.449;13.449;0" keyTimes="0;0.913;1" dur="3.104s" fill="freeze" begin="0s;8183.click" /></path><path d="M52.63,45.83c7.11,0,20.13-1.91,29.95-2.08" stroke-dasharray="30.031" stroke-dashoffset="30.031"><animate attributeName="stroke-dashoffset" values="30.031" fill="freeze" begin="8183.click" /><animate attributeName="stroke-dashoffset" values="30.031;30.031;0" keyTimes="0;0.912;1" dur="3.404s" fill="freeze" begin="0s;8183.click" /></path><path d="M46.14,59.83c0.7,0.79,1.29,1.75,1.44,2.42c1.17,5.29,1.93,18.47,2.73,27.98" stroke-dasharray="30.967" stroke-dashoffset="30.967"><animate attributeName="stroke-dashoffset" values="30.967" fill="freeze" begin="8183.click" /><animate attributeName="stroke-dashoffset" values="30.967;30.967;0" keyTimes="0;0.917;1" dur="3.714s" fill="freeze" begin="0s;8183.click" /></path><path d="M47.87,61.54c9.26-1.09,34.48-3.49,37.84-3.72c2.11-0.14,3.28,1.04,3.07,3.2c-0.31,3.05-1.44,23.11-2.52,27.23" stroke-dasharray="70.616" stroke-dashoffset="70.616"><animate attributeName="stroke-dashoffset" values="70.616" fill="freeze" begin="8183.click" /><animate attributeName="stroke-dashoffset" values="70.616;70.616;0" keyTimes="0;0.875;1" dur="4.245s" fill="freeze" begin="0s;8183.click" /></path><path d="M59.9,62.54c0.23,0.51,0.96,1.43,1.06,2.06c0.79,5.01,0.87,16.17,1.41,25.17" stroke-dasharray="27.545" stroke-dashoffset="27.545"><animate attributeName="stroke-dashoffset" values="27.545" fill="freeze" begin="8183.click" /><animate attributeName="stroke-dashoffset" values="27.545;27.545;0" keyTimes="0;0.939;1" dur="4.52s" fill="freeze" begin="0s;8183.click" /></path><path d="M74.13,61.5c0.37,0.6,0.71,1.63,0.65,2.41c-0.6,7.71-0.46,14.6-1.2,24.48" stroke-dasharray="27.043" stroke-dashoffset="27.043"><animate attributeName="stroke-dashoffset" values="27.043" fill="freeze" begin="8183.click" /><animate attributeName="stroke-dashoffset" values="27.043;27.043;0" keyTimes="0;0.944;1" dur="4.79s" fill="freeze" begin="0s;8183.click" /></path><path d="M39.92,91.08c1.02,0.52,4.01,1.31,5.03,1.22c10.59-0.88,30.05-3.05,47.13-3.39c1.7-0.03,5.48,0.24,6.33,0.5" stroke-dasharray="58.83" stroke-dashoffset="58.83"><animate attributeName="stroke-dashoffset" values="58.83" fill="freeze" begin="8183.click" /><animate attributeName="stroke-dashoffset" values="58.83;58.83;0" keyTimes="0;0.891;1" dur="5.378s" fill="freeze" begin="0s;8183.click" /></path></g></svg>