<svg xmlns="http://www.w3.org/2000/svg" viewBox="0 0 109 109" id="81c0"><g fill="none" stroke="#666" stroke-width="6" stroke-linecap="round" stroke-linejoin="round"><g><g><g><g><path d="M20.58,12.75c1.85,0.39,3.55,0.43,5.83,0.33c7.86-0.32,18.19-2.77,21.35-2.89c1.56-0.06,2.25,0.71,2.25,1.56c0,1.44-1.23,4.61-2.43,7.66" /><path d="M23.58,22.25c4.14-0.13,21.51-2.03,25.83-2.17" /><path d="M23.73,13.36c0,2.12-0.61,10.07-0.65,12.06c-0.2,9.56-8.59,23.41-11.58,25.91" /></g><g><g><path d="M25.58,32.11c0.38,0.08,3.12,0.54,3.5,0.5c1.54-0.15,14.6-1.86,18.21-1.86c0.63,0,2.31,0.45,2.63,0.49" /><path d="M29.99,26.02c0.38,0.16,1.38,2.07,1.42,2.4c0.4,2.7,0.15,7.17,0.33,10" /><path d="M40.58,24.92c0.29,0.15,1.51,1.69,1.5,2c-0.15,4.11,0.03,5.68-0.83,11" /><path d="M21.92,40.1c0.59,0.16,2.83,1.15,4.67,1c3.89-0.31,17.2-2.73,22.17-2.88c0.99-0.03,2.67,0.17,3.17,0.25" /></g><g><path d="M31.16,44.8c0.03,0.25,0.07,0.63-0.07,0.98c-0.83,2.07-6.26,6.06-12.07,9.38" /><path d="M40.44,42.75c2.65,1.46,6.85,6,7.51,8.28" /></g></g></g><g><g><g><path d="M59.92,12.08c0.83,0.67,1.58,1.26,1.57,1.83c-0.15,5.83-1.68,12.55-6.19,15" /></g><path d="M61.08,12.92c1.75,0.17,11.66-1.49,12.83-1.83c1.75-0.52,2.52,0.2,2.34,1.34c-0.35,2.24-0.94,5.46-0.94,7.7c0,4.8,3.33,5.13,9.1,5.13c4.96,0,6.83-2.87,6.83-6.33" /></g><g><path d="M58.25,32.92c1.5,0.33,2.87,0.84,4.75,0.58c1.87-0.26,13.45-2.74,14.75-2.92c2.5-0.33,3,1.42,2,2.83c-6.28,8.9-13.11,12.93-24.35,17.18" /><path d="M58.9,36.8c3.18,0.36,18.7,10.01,29.77,13.96c1.72,0.62,2.98,1.03,4.58,1.23" /></g></g></g><g><path d="M36.25,54.92c1.06,0.92,1.15,2.08,1.5,3c0.35,0.92,0.08,38.26-0.07,40.33" /><path d="M37.58,56.75c2.77-0.23,29.83-2.58,31.89-2.84c3.69-0.47,4.7,2.03,4.61,3.51c-0.23,3.97-0.69,14.32-0.69,33.26c0,12.16-4.5,6.01-6.81,3.91" /><path d="M38.58,66.75c9.52-0.89,26.81-1.72,35.17-2.17" /><path d="M38.58,77.75c7.71-0.5,25.25-1.83,34.17-2.17" /></g></g></g><g fill="none" stroke="#000" stroke-width="3" stroke-linecap="round" stroke-linejoin="round"><path d="M20.58,12.75c1.85,0.39,3.55,0.43,5.83,0.33c7.86-0.32,18.19-2.77,21.35-2.89c1.56-0.06,2.25,0.71,2.25,1.56c0,1.44-1.23,4.61-2.43,7.66" stroke-dasharray="38.571" stroke-dashoffset="38.571"><animate attributeName="stroke-dashoffset" values="38.571;38.571;0" dur="0.386s" fill="freeze" begin="0s;81c0.click" /></path><path d="M23.58,22.25c4.14-0.13,21.51-2.03,25.83-2.17" stroke-dasharray="25.924" stroke-dashoffset="25.924"><animate attributeName="stroke-dashoffset" values="25.924" fill="freeze" begin="81c0.click" /><animate attributeName="stroke-dashoffset" values="25.924;25.924;0" keyTimes="0;0.598;1" dur="0.645s" fill="freeze" begin="0s;81c0.click" /></path><path d="M23.73,13.36c0,2.12-0.61,10.07-0.65,12.06c-0.2,9.56-8.59,23.41-11.58,25.91" stroke-dasharray="40.93" stroke-dashoffset="40.93"><animate attributeName="stroke-dashoffset" values="40.93" fill="freeze" begin="81c0.click" /><animate attributeName="stroke-dashoffset" values="40.93;40.93;0" keyTimes="0;0.612;1" dur="1.054s" fill="freeze" begin="0s;81c0.click" /></path><path d="M25.58,32.11c0.38,0.08,3.12,0.54,3.5,0.5c1.54-0.15,14.6-1.86,18.21-1.86c0.63,0,2.31,0.45,2.63,0.49" stroke-dasharray="24.528" stroke-dashoffset="24.528"><animate attributeName="stroke-dashoffset" values="24.528" fill="freeze" begin="81c0.click" /><animate attributeName="stroke-dashoffset" values="24.528;24.528;0" keyTimes="0;0.811;1" dur="1.299s" fill="freeze" begin="0s;81c0.click" /></path><path d="M29.99,26.02c0.38,0.16,1.38,2.07,1.42,2.4c0.4,2.7,0.15,7.17,0.33,10" stroke-dasharray="12.831" stroke-dashoffset="12.831"><animate attributeName="stroke-dashoffset" values="12.831" fill="freeze" begin="81c0.click" /><animate attributeName="stroke-dashoffset" values="12.831;12.831;0" keyTimes="0;0.835;1" dur="1.556s" fill="freeze" begin="0s;81c0.click" /></path><path d="M40.58,24.92c0.29,0.15,1.51,1.69,1.5,2c-0.15,4.11,0.03,5.68-0.83,11" stroke-dasharray="13.572" stroke-dashoffset="13.572"><animate attributeName="stroke-dashoffset" values="13.572" fill="freeze" begin="81c0.click" /><animate attributeName="stroke-dashoffset" values="13.572;13.572;0" keyTimes="0;0.852;1" dur="1.827s" fill="freeze" begin="0s;81c0.click" /></path><path d="M21.92,40.1c0.59,0.16,2.83,1.15,4.67,1c3.89-0.31,17.2-2.73,22.17-2.88c0.99-0.03,2.67,0.17,3.17,0.25" stroke-dasharray="30.358" stroke-dashoffset="30.358"><animate attributeName="stroke-dashoffset" values="30.358" fill="freeze" begin="81c0.click" /><animate attributeName="stroke-dashoffset" values="30.358;30.358;0" keyTimes="0;0.857;1" dur="2.131s" fill="freeze" begin="0s;81c0.click" /></path><path d="M31.16,44.8c0.03,0.25,0.07,0.63-0.07,0.98c-0.83,2.07-6.26,6.06-12.07,9.38" stroke-dasharray="16.419" stroke-dashoffset="16.419"><animate attributeName="stroke-dashoffset" values="16.419" fill="freeze" begin="81c0.click" /><animate attributeName="stroke-dashoffset" values="16.419;16.419;0" keyTimes="0;0.929;1" dur="2.295s" fill="freeze" begin="0s;81c0.click" /></path><path d="M40.44,42.75c2.65,1.46,6.85,6,7.51,8.28" stroke-dasharray="11.34" stroke-dashoffset="11.34"><animate attributeName="stroke-dashoffset" values="11.34" fill="freeze" begin="81c0.click" /><animate attributeName="stroke-dashoffset" values="11.34;11.34;0" keyTimes="0;0.91;1" dur="2.522s" fill="freeze" begin="0s;81c0.click" /></path><path d="M59.92,12.08c0.83,0.67,1.58,1.26,1.57,1.83c-0.15,5.83-1.68,12.55-6.19,15" stroke-dasharray="19.404" stroke-dashoffset="19.404"><animate attributeName="stroke-dashoffset" values="19.404" fill="freeze" begin="81c0.click" /><animate attributeName="stroke-dashoffset" values="19.404;19.404;0" keyTimes="0;0.929;1" dur="2.716s" fill="freeze" begin="0s;81c0.click" /></path><path d="M61.08,12.92c1.75,0.17,11.66-1.49,12.83-1.83c1.75-0.52,2.52,0.2,2.34,1.34c-0.35,2.24-0.94,5.46-0.94,7.7c0,4.8,3.33,5.13,9.1,5.13c4.96,0,6.83-2.87,6.83-6.33" stroke-dasharray="46.858" stroke-dashoffset="46.858"><animate attributeName="stroke-dashoffset" values="46.858" fill="freeze" begin="81c0.click" /><animate attributeName="stroke-dashoffset" values="46.858;46.858;0" keyTimes="0;0.853;1" dur="3.185s" fill="freeze" begin="0s;81c0.click" /></path><path d="M58.25,32.92c1.5,0.33,2.87,0.84,4.75,0.58c1.87-0.26,13.45-2.74,14.75-2.92c2.5-0.33,3,1.42,2,2.83c-6.28,8.9-13.11,12.93-24.35,17.18" stroke-dasharray="54.984" stroke-dashoffset="54.984"><animate attributeName="stroke-dashoffset" values="54.984" fill="freeze" begin="81c0.click" /><animate attributeName="stroke-dashoffset" values="54.984;54.984;0" keyTimes="0;0.853;1" dur="3.735s" fill="freeze" begin="0s;81c0.click" /></path><path d="M58.9,36.8c3.18,0.36,18.7,10.01,29.77,13.96c1.72,0.62,2.98,1.03,4.58,1.23" stroke-dasharray="37.678" stroke-dashoffset="37.678"><animate attributeName="stroke-dashoffset" values="37.678" fill="freeze" begin="81c0.click" /><animate attributeName="stroke-dashoffset" values="37.678;37.678;0" keyTimes="0;0.908;1" dur="4.112s" fill="freeze" begin="0s;81c0.click" /></path><path d="M36.25,54.92c1.06,0.92,1.15,2.08,1.5,3c0.35,0.92,0.08,38.26-0.07,40.33" stroke-dasharray="43.746" stroke-dashoffset="43.746"><animate attributeName="stroke-dashoffset" values="43.746" fill="freeze" begin="81c0.click" /><animate attributeName="stroke-dashoffset" values="43.746;43.746;0" keyTimes="0;0.904;1" dur="4.549s" fill="freeze" begin="0s;81c0.click" /></path><path d="M37.58,56.75c2.77-0.23,29.83-2.58,31.89-2.84c3.69-0.47,4.7,2.03,4.61,3.51c-0.23,3.97-0.69,14.32-0.69,33.26c0,12.16-4.5,6.01-6.81,3.91" stroke-dasharray="86.057" stroke-dashoffset="86.057"><animate attributeName="stroke-dashoffset" values="86.057" fill="freeze" begin="81c0.click" /><animate attributeName="stroke-dashoffset" values="86.057;86.057;0" keyTimes="0;0.875;1" dur="5.196s" fill="freeze" begin="0s;81c0.click" /></path><path d="M38.58,66.75c9.52-0.89,26.81-1.72,35.17-2.17" stroke-dasharray="35.24" stroke-dashoffset="35.24"><animate attributeName="stroke-dashoffset" values="35.24" fill="freeze" begin="81c0.click" /><animate attributeName="stroke-dashoffset" values="35.24;35.24;0" keyTimes="0;0.937;1" dur="5.548s" fill="freeze" begin="0s;81c0.click" /></path><path d="M38.58,77.75c7.71-0.5,25.25-1.83,34.17-2.17" stroke-dasharray="34.241" stroke-dashoffset="34.241"><animate attributeName="stroke-dashoffset" values="34.241" fill="freeze" begin="81c0.click" /><animate attributeName="stroke-dashoffset" values="34.241;34.241;0" keyTimes="0;0.942;1" dur="5.89s" fill="freeze" begin="0s;81c0.click" /></path></g></svg>