<svg xmlns="http://www.w3.org/2000/svg" viewBox="0 0 109 109" id="81cd"><g fill="none" stroke="#666" stroke-width="6" stroke-linecap="round" stroke-linejoin="round"><g><g><path d="M17.75,19.75c0.55,0.99,0.98,3.04,1.17,4c0.18,0.97,0.34,23.52-0.25,31.63C17.83,66.92,16.5,79.5,9.08,93.31" /><path d="M19.92,21.25c1.76-0.06,11.05-2.36,12.36-2.49c2.34-0.22,2.93,1.29,2.93,2.62c0,3.18-0.44,45.48-0.44,63.53c0,12.41-4.69,5.99-6.18,4.5" /><path d="M19.99,41.07c3.94-0.25,11.13-1.45,14.58-1.47" /><path d="M19.43,59.79c3.34-0.07,9.95-0.84,14.49-1.21" /></g><g><g><path d="M65.58,11.25c0.42,0.42,1.45,1.8,1.45,2.64c0,3.09-0.13,5.5-0.05,8.12" /><path d="M42.42,22.58c2.08,0.92,3.96,0.96,5.33,0.83c10.25-0.92,32-2.67,43-3.17c1.4-0.06,3.29,0.27,4.33,0.67" /></g><g><path d="M58.57,24.83c2.07,1.29,5.34,5.3,5.86,7.3" /><path d="M74.01,24.23c0.02,0.22,0.04,0.57-0.04,0.89c-0.42,1.88-2.79,6-6.05,8.52" /><path d="M65.58,35.92c0.36,0.33,1.84,1.39,1.87,2.48c0.15,5.26-0.01,11.81-0.01,13.6" /><g><path d="M41.42,33.92c0.41,0.21,2.08,0.73,2.44,0.65c2.94-0.6,12.45-1.69,14.07-1.91c1.06-0.14,1.41,0.65,1.29,1.65c-0.61,5.54-1.88,11.04-3.74,15.25c-0.98,2.21-3.02,1.24-3.73-0.48" /><path d="M49.25,35.27c0.02,0.35,0.05,0.9-0.04,1.39c-0.73,3.68-3.8,8.87-7.73,13.34" /></g><path d="M88.54,24.14c0.02,0.18,0.05,0.47-0.04,0.72c-0.55,1.52-4.22,5.26-8.56,7.31" /><path d="M75.92,32.42c0.31,0.46,1.62,0.85,1.62,1.54c0,0.69-0.08,10.42-0.08,11.5s0.08,1.38,1.08,0.61c1-0.77,6.26-4.19,6.88-4.65" /><path d="M83.8,31.78c1.91,3.99,5.32,9.7,9.88,13.93c1.1,1.02,2.62,1.69,4.06,2.29" /><path d="M50.83,54.57c0.83,0.56,1.13,1.99,1.13,2.6c0,3.3-0.16,13.9-0.25,15.17c-0.55,7.26-2.66,17.13-10.89,23.29" /><g><path d="M53.02,61.13c3.52-0.28,29.47-1.49,31.96-1.61" /><path d="M53.46,72.4c3.04-0.08,27.27-1.5,31.33-1.63" /></g><path d="M83.5,51c1,1,1.92,3,1.92,4.08c0,4.27-0.02,38.91-0.07,41.98" /></g></g></g></g><g fill="none" stroke="#000" stroke-width="3" stroke-linecap="round" stroke-linejoin="round"><path d="M17.75,19.75c0.55,0.99,0.98,3.04,1.17,4c0.18,0.97,0.34,23.52-0.25,31.63C17.83,66.92,16.5,79.5,9.08,93.31" stroke-dasharray="75.276" stroke-dashoffset="75.276"><animate attributeName="stroke-dashoffset" values="75.276;75.276;0" dur="0.566s" fill="freeze" begin="0s;81cd.click" /></path><path d="M19.92,21.25c1.76-0.06,11.05-2.36,12.36-2.49c2.34-0.22,2.93,1.29,2.93,2.62c0,3.18-0.44,45.48-0.44,63.53c0,12.41-4.69,5.99-6.18,4.5" stroke-dasharray="94.133" stroke-dashoffset="94.133"><animate attributeName="stroke-dashoffset" values="94.133" fill="freeze" begin="81cd.click" /><animate attributeName="stroke-dashoffset" values="94.133;94.133;0" keyTimes="0;0.444;1" dur="1.274s" fill="freeze" begin="0s;81cd.click" /></path><path d="M19.99,41.07c3.94-0.25,11.13-1.45,14.58-1.47" stroke-dasharray="14.66" stroke-dashoffset="14.66"><animate attributeName="stroke-dashoffset" values="14.66" fill="freeze" begin="81cd.click" /><animate attributeName="stroke-dashoffset" values="14.66;14.66;0" keyTimes="0;0.813;1" dur="1.567s" fill="freeze" begin="0s;81cd.click" /></path><path d="M19.43,59.79c3.34-0.07,9.95-0.84,14.49-1.21" stroke-dasharray="14.544" stroke-dashoffset="14.544"><animate attributeName="stroke-dashoffset" values="14.544" fill="freeze" begin="81cd.click" /><animate attributeName="stroke-dashoffset" values="14.544;14.544;0" keyTimes="0;0.843;1" dur="1.858s" fill="freeze" begin="0s;81cd.click" /></path><path d="M65.58,11.25c0.42,0.42,1.45,1.8,1.45,2.64c0,3.09-0.13,5.5-0.05,8.12" stroke-dasharray="11.184" stroke-dashoffset="11.184"><animate attributeName="stroke-dashoffset" values="11.184" fill="freeze" begin="81cd.click" /><animate attributeName="stroke-dashoffset" values="11.184;11.184;0" keyTimes="0;0.892;1" dur="2.082s" fill="freeze" begin="0s;81cd.click" /></path><path d="M42.42,22.58c2.08,0.92,3.96,0.96,5.33,0.83c10.25-0.92,32-2.67,43-3.17c1.4-0.06,3.29,0.27,4.33,0.67" stroke-dasharray="52.981" stroke-dashoffset="52.981"><animate attributeName="stroke-dashoffset" values="52.981" fill="freeze" begin="81cd.click" /><animate attributeName="stroke-dashoffset" values="52.981;52.981;0" keyTimes="0;0.797;1" dur="2.612s" fill="freeze" begin="0s;81cd.click" /></path><path d="M58.57,24.83c2.07,1.29,5.34,5.3,5.86,7.3" stroke-dasharray="9.489" stroke-dashoffset="9.489"><animate attributeName="stroke-dashoffset" values="9.489" fill="freeze" begin="81cd.click" /><animate attributeName="stroke-dashoffset" values="9.489;9.489;0" keyTimes="0;0.932;1" dur="2.802s" fill="freeze" begin="0s;81cd.click" /></path><path d="M74.01,24.23c0.02,0.22,0.04,0.57-0.04,0.89c-0.42,1.88-2.79,6-6.05,8.52" stroke-dasharray="11.496" stroke-dashoffset="11.496"><animate attributeName="stroke-dashoffset" values="11.496" fill="freeze" begin="81cd.click" /><animate attributeName="stroke-dashoffset" values="11.496;11.496;0" keyTimes="0;0.924;1" dur="3.032s" fill="freeze" begin="0s;81cd.click" /></path><path d="M65.58,35.92c0.36,0.33,1.84,1.39,1.87,2.48c0.15,5.26-0.01,11.81-0.01,13.6" stroke-dasharray="16.793" stroke-dashoffset="16.793"><animate attributeName="stroke-dashoffset" values="16.793" fill="freeze" begin="81cd.click" /><animate attributeName="stroke-dashoffset" values="16.793;16.793;0" keyTimes="0;0.948;1" dur="3.2s" fill="freeze" begin="0s;81cd.click" /></path><path d="M41.42,33.92c0.41,0.21,2.08,0.73,2.44,0.65c2.94-0.6,12.45-1.69,14.07-1.91c1.06-0.14,1.41,0.65,1.29,1.65c-0.61,5.54-1.88,11.04-3.74,15.25c-0.98,2.21-3.02,1.24-3.73-0.48" stroke-dasharray="40.115" stroke-dashoffset="40.115"><animate attributeName="stroke-dashoffset" values="40.115" fill="freeze" begin="81cd.click" /><animate attributeName="stroke-dashoffset" values="40.115;40.115;0" keyTimes="0;0.889;1" dur="3.601s" fill="freeze" begin="0s;81cd.click" /></path><path d="M49.25,35.27c0.02,0.35,0.05,0.9-0.04,1.39c-0.73,3.68-3.8,8.87-7.73,13.34" stroke-dasharray="16.959" stroke-dashoffset="16.959"><animate attributeName="stroke-dashoffset" values="16.959" fill="freeze" begin="81cd.click" /><animate attributeName="stroke-dashoffset" values="16.959;16.959;0" keyTimes="0;0.955;1" dur="3.771s" fill="freeze" begin="0s;81cd.click" /></path><path d="M88.54,24.14c0.02,0.18,0.05,0.47-0.04,0.72c-0.55,1.52-4.22,5.26-8.56,7.31" stroke-dasharray="12.15" stroke-dashoffset="12.15"><animate attributeName="stroke-dashoffset" values="12.15" fill="freeze" begin="81cd.click" /><animate attributeName="stroke-dashoffset" values="12.15;12.15;0" keyTimes="0;0.939;1" dur="4.014s" fill="freeze" begin="0s;81cd.click" /></path><path d="M75.92,32.42c0.31,0.46,1.62,0.85,1.62,1.54c0,0.69-0.08,10.42-0.08,11.5s0.08,1.38,1.08,0.61c1-0.77,6.26-4.19,6.88-4.65" stroke-dasharray="24.191" stroke-dashoffset="24.191"><animate attributeName="stroke-dashoffset" values="24.191" fill="freeze" begin="81cd.click" /><animate attributeName="stroke-dashoffset" values="24.191;24.191;0" keyTimes="0;0.943;1" dur="4.256s" fill="freeze" begin="0s;81cd.click" /></path><path d="M83.8,31.78c1.91,3.99,5.32,9.7,9.88,13.93c1.1,1.02,2.62,1.69,4.06,2.29" stroke-dasharray="21.859" stroke-dashoffset="21.859"><animate attributeName="stroke-dashoffset" values="21.859" fill="freeze" begin="81cd.click" /><animate attributeName="stroke-dashoffset" values="21.859;21.859;0" keyTimes="0;0.951;1" dur="4.475s" fill="freeze" begin="0s;81cd.click" /></path><path d="M50.83,54.57c0.83,0.56,1.13,1.99,1.13,2.6c0,3.3-0.16,13.9-0.25,15.17c-0.55,7.26-2.66,17.13-10.89,23.29" stroke-dasharray="44.64" stroke-dashoffset="44.64"><animate attributeName="stroke-dashoffset" values="44.64" fill="freeze" begin="81cd.click" /><animate attributeName="stroke-dashoffset" values="44.64;44.64;0" keyTimes="0;0.909;1" dur="4.921s" fill="freeze" begin="0s;81cd.click" /></path><path d="M53.02,61.13c3.52-0.28,29.47-1.49,31.96-1.61" stroke-dasharray="32.002" stroke-dashoffset="32.002"><animate attributeName="stroke-dashoffset" values="32.002" fill="freeze" begin="81cd.click" /><animate attributeName="stroke-dashoffset" values="32.002;32.002;0" keyTimes="0;0.939;1" dur="5.241s" fill="freeze" begin="0s;81cd.click" /></path><path d="M53.46,72.4c3.04-0.08,27.27-1.5,31.33-1.63" stroke-dasharray="31.374" stroke-dashoffset="31.374"><animate attributeName="stroke-dashoffset" values="31.374" fill="freeze" begin="81cd.click" /><animate attributeName="stroke-dashoffset" values="31.374;31.374;0" keyTimes="0;0.943;1" dur="5.555s" fill="freeze" begin="0s;81cd.click" /></path><path d="M83.5,51c1,1,1.92,3,1.92,4.08c0,4.27-0.02,38.91-0.07,41.98" stroke-dasharray="46.571" stroke-dashoffset="46.571"><animate attributeName="stroke-dashoffset" values="46.571" fill="freeze" begin="81cd.click" /><animate attributeName="stroke-dashoffset" values="46.571;46.571;0" keyTimes="0;0.923;1" dur="6.021s" fill="freeze" begin="0s;81cd.click" /></path></g></svg>