<svg xmlns="http://www.w3.org/2000/svg" viewBox="0 0 109 109" id="8207"><g fill="none" stroke="#666" stroke-width="6" stroke-linecap="round" stroke-linejoin="round"><g><g><g p5:phon="与" xmlns:p5="http://kanjivg.tagaini.net"><path d="M50.42,20.56c4.14-0.25,8.93-1.74,12.88-2.1c0.91-0.08,1.75,0.11,2.21,0.22" /><path d="M50.27,12.8c0.79,0.98,0.67,3.63,0.16,5.18c-0.59,1.77-2.26,12.03-2.66,12.96c-1.01,2.32,0.24,3.07,2.6,2.43c1.68-0.45,5.14-1.15,9.37-1.66c1.77-0.21,3.18,0.91,2.87,2.67c-1.58,9.05-3.85,24.37-5.11,35.42" /><path d="M47.42,46.32c0.71,0.83,0.85,2.42,0.66,3.43c-0.33,1.75-0.83,11.5-2.08,20" /></g><g><path d="M39.18,16.04c0.12,0.95-0.48,1.9-1.14,2.5c-2.77,2.45-5.34,4.94-11.04,7.26" /><path d="M22.12,26.5c1.09,0.5,1.82,2.24,1.96,3.25c0.42,3,2.14,32.63,2.89,41.88" /><path d="M25,40.75c3.48-0.52,8.94-1.53,11.78-2.09c1.25-0.25,2.78-0.41,3.47-0.41" /><path d="M26.75,55.75c4-0.5,6.97-1.34,10.02-1.61C37.85,54.05,39.28,54,40,54" /><path d="M71.85,21.23c1.4,0.02,2.34,0.54,4.23,0.12c4.93-1.1,10.02-1.5,10.59-1.5c1.61,0,2.45,1.19,2.1,2.75c-1.52,6.9-4.02,36.15-5.02,45.65" /><path d="M70.75,35.75c0.71,0.16,2.17,0.71,3.25,0.68c3.87-0.11,11.27-0.68,12.25-0.68" /><path d="M69.25,52c0.62,0.13,2.3,0.7,3,0.73c3.27,0.13,10-0.48,13-0.73" /></g><path d="M12.93,72.16c2.96,0.66,6.06,0.54,8.8,0.36c13.75-0.89,47.19-2.41,66.18-3.05c3.22-0.11,6.44-0.11,9.47,0.41" /></g><g><g><path d="M37.56,79.33c0.18,0.94-0.19,2.14-0.95,3.14c-2.85,3.7-9.91,10.56-20.05,15" /></g><g><path d="M66.73,78.89C73.89,82,84.82,90.32,87.56,96.97" /></g></g></g></g><g fill="none" stroke="#000" stroke-width="3" stroke-linecap="round" stroke-linejoin="round"><path d="M50.42,20.56c4.14-0.25,8.93-1.74,12.88-2.1c0.91-0.08,1.75,0.11,2.21,0.22" stroke-dasharray="15.291" stroke-dashoffset="15.291"><animate attributeName="stroke-dashoffset" values="15.291;15.291;0" dur="0.153s" fill="freeze" begin="0s;8207.click" /></path><path d="M50.27,12.8c0.79,0.98,0.67,3.63,0.16,5.18c-0.59,1.77-2.26,12.03-2.66,12.96c-1.01,2.32,0.24,3.07,2.6,2.43c1.68-0.45,5.14-1.15,9.37-1.66c1.77-0.21,3.18,0.91,2.87,2.67c-1.58,9.05-3.85,24.37-5.11,35.42" stroke-dasharray="73.661" stroke-dashoffset="73.661"><animate attributeName="stroke-dashoffset" values="73.661" fill="freeze" begin="8207.click" /><animate attributeName="stroke-dashoffset" values="73.661;73.661;0" keyTimes="0;0.216;1" dur="0.707s" fill="freeze" begin="0s;8207.click" /></path><path d="M47.42,46.32c0.71,0.83,0.85,2.42,0.66,3.43c-0.33,1.75-0.83,11.5-2.08,20" stroke-dasharray="23.702" stroke-dashoffset="23.702"><animate attributeName="stroke-dashoffset" values="23.702" fill="freeze" begin="8207.click" /><animate attributeName="stroke-dashoffset" values="23.702;23.702;0" keyTimes="0;0.749;1" dur="0.944s" fill="freeze" begin="0s;8207.click" /></path><path d="M39.18,16.04c0.12,0.95-0.48,1.9-1.14,2.5c-2.77,2.45-5.34,4.94-11.04,7.26" stroke-dasharray="16.149" stroke-dashoffset="16.149"><animate attributeName="stroke-dashoffset" values="16.149" fill="freeze" begin="8207.click" /><animate attributeName="stroke-dashoffset" values="16.149;16.149;0" keyTimes="0;0.854;1" dur="1.105s" fill="freeze" begin="0s;8207.click" /></path><path d="M22.12,26.5c1.09,0.5,1.82,2.24,1.96,3.25c0.42,3,2.14,32.63,2.89,41.88" stroke-dasharray="45.904" stroke-dashoffset="45.904"><animate attributeName="stroke-dashoffset" values="45.904" fill="freeze" begin="8207.click" /><animate attributeName="stroke-dashoffset" values="45.904;45.904;0" keyTimes="0;0.707;1" dur="1.564s" fill="freeze" begin="0s;8207.click" /></path><path d="M25,40.75c3.48-0.52,8.94-1.53,11.78-2.09c1.25-0.25,2.78-0.41,3.47-0.41" stroke-dasharray="15.464" stroke-dashoffset="15.464"><animate attributeName="stroke-dashoffset" values="15.464" fill="freeze" begin="8207.click" /><animate attributeName="stroke-dashoffset" values="15.464;15.464;0" keyTimes="0;0.91;1" dur="1.719s" fill="freeze" begin="0s;8207.click" /></path><path d="M26.75,55.75c4-0.5,6.97-1.34,10.02-1.61C37.85,54.05,39.28,54,40,54" stroke-dasharray="13.386" stroke-dashoffset="13.386"><animate attributeName="stroke-dashoffset" values="13.386" fill="freeze" begin="8207.click" /><animate attributeName="stroke-dashoffset" values="13.386;13.386;0" keyTimes="0;0.865;1" dur="1.987s" fill="freeze" begin="0s;8207.click" /></path><path d="M71.85,21.23c1.4,0.02,2.34,0.54,4.23,0.12c4.93-1.1,10.02-1.5,10.59-1.5c1.61,0,2.45,1.19,2.1,2.75c-1.52,6.9-4.02,36.15-5.02,45.65" stroke-dasharray="64.977" stroke-dashoffset="64.977"><animate attributeName="stroke-dashoffset" values="64.977" fill="freeze" begin="8207.click" /><animate attributeName="stroke-dashoffset" values="64.977;64.977;0" keyTimes="0;0.803;1" dur="2.476s" fill="freeze" begin="0s;8207.click" /></path><path d="M70.75,35.75c0.71,0.16,2.17,0.71,3.25,0.68c3.87-0.11,11.27-0.68,12.25-0.68" stroke-dasharray="15.602" stroke-dashoffset="15.602"><animate attributeName="stroke-dashoffset" values="15.602" fill="freeze" begin="8207.click" /><animate attributeName="stroke-dashoffset" values="15.602;15.602;0" keyTimes="0;0.941;1" dur="2.632s" fill="freeze" begin="0s;8207.click" /></path><path d="M69.25,52c0.62,0.13,2.3,0.7,3,0.73c3.27,0.13,10-0.48,13-0.73" stroke-dasharray="16.119" stroke-dashoffset="16.119"><animate attributeName="stroke-dashoffset" values="16.119" fill="freeze" begin="8207.click" /><animate attributeName="stroke-dashoffset" values="16.119;16.119;0" keyTimes="0;0.942;1" dur="2.793s" fill="freeze" begin="0s;8207.click" /></path><path d="M12.93,72.16c2.96,0.66,6.06,0.54,8.8,0.36c13.75-0.89,47.19-2.41,66.18-3.05c3.22-0.11,6.44-0.11,9.47,0.41" stroke-dasharray="84.587" stroke-dashoffset="84.587"><animate attributeName="stroke-dashoffset" values="84.587" fill="freeze" begin="8207.click" /><animate attributeName="stroke-dashoffset" values="84.587;84.587;0" keyTimes="0;0.815;1" dur="3.429s" fill="freeze" begin="0s;8207.click" /></path><path d="M37.56,79.33c0.18,0.94-0.19,2.14-0.95,3.14c-2.85,3.7-9.91,10.56-20.05,15" stroke-dasharray="28.643" stroke-dashoffset="28.643"><animate attributeName="stroke-dashoffset" values="28.643" fill="freeze" begin="8207.click" /><animate attributeName="stroke-dashoffset" values="28.643;28.643;0" keyTimes="0;0.923;1" dur="3.715s" fill="freeze" begin="0s;8207.click" /></path><path d="M66.73,78.89C73.89,82,84.82,90.32,87.56,96.97" stroke-dasharray="28.058" stroke-dashoffset="28.058"><animate attributeName="stroke-dashoffset" values="28.058" fill="freeze" begin="8207.click" /><animate attributeName="stroke-dashoffset" values="28.058;28.058;0" keyTimes="0;0.93;1" dur="3.996s" fill="freeze" begin="0s;8207.click" /></path></g></svg>