<svg xmlns="http://www.w3.org/2000/svg" viewBox="0 0 109 109" id="820d"><g fill="none" stroke="#666" stroke-width="6" stroke-linecap="round" stroke-linejoin="round"><g><g><path d="M52.75,9.75c0,1.04,0.11,1.86-0.32,3.11c-2.25,6.47-22.36,30.06-40.68,39.64" /><path d="M52.5,15c9.5,7.5,34.54,28.51,37.73,30.13c3.25,1.66,4.31,1.96,5.77,2.12" /></g><g><g><path d="M35.52,41.85c0.7,0.23,3.5,0.8,4.21,0.73c3.31-0.31,15.08-1.75,28.81-2.57c1.08-0.06,2.07,0.05,2.97,0.24" /><path d="M21.55,58.95c1.2,0.39,5.15,0.6,6.37,0.51c7-0.51,28.01-2.86,50.78-3.75c1.5-0.06,4.78-0.16,7.01,0.18" /><path d="M52.22,43.57c0.89,0.85,0.89,2.76,0.89,3.43c0,4.75,0.44,22.07,0.22,26.82" /></g><g><path d="M31.25,74.24c0.5,0.46,1.02,0.83,1.24,1.41c1.75,4.51,3.34,16.46,4.54,24.57" /><path d="M34.39,76.29c13.11-1.04,32.17-3.38,38.55-4.02c2.33-0.23,3.73,2.35,3.4,3.73c-1.38,5.68-1.46,10.58-4.42,18.77" /><path d="M37.54,97.73C45.5,97,62.5,95.75,73.75,95.47" /></g></g></g></g><g fill="none" stroke="#000" stroke-width="3" stroke-linecap="round" stroke-linejoin="round"><path d="M52.75,9.75c0,1.04,0.11,1.86-0.32,3.11c-2.25,6.47-22.36,30.06-40.68,39.64" stroke-dasharray="60.596" stroke-dashoffset="60.596"><animate attributeName="stroke-dashoffset" values="60.596;60.596;0" dur="0.456s" fill="freeze" begin="0s;820d.click" /></path><path d="M52.5,15c9.5,7.5,34.54,28.51,37.73,30.13c3.25,1.66,4.31,1.96,5.77,2.12" stroke-dasharray="54.484" stroke-dashoffset="54.484"><animate attributeName="stroke-dashoffset" values="54.484" fill="freeze" begin="820d.click" /><animate attributeName="stroke-dashoffset" values="54.484;54.484;0" keyTimes="0;0.456;1" dur="1.001s" fill="freeze" begin="0s;820d.click" /></path><path d="M35.52,41.85c0.7,0.23,3.5,0.8,4.21,0.73c3.31-0.31,15.08-1.75,28.81-2.57c1.08-0.06,2.07,0.05,2.97,0.24" stroke-dasharray="36.201" stroke-dashoffset="36.201"><animate attributeName="stroke-dashoffset" values="36.201" fill="freeze" begin="820d.click" /><animate attributeName="stroke-dashoffset" values="36.201;36.201;0" keyTimes="0;0.734;1" dur="1.363s" fill="freeze" begin="0s;820d.click" /></path><path d="M21.55,58.95c1.2,0.39,5.15,0.6,6.37,0.51c7-0.51,28.01-2.86,50.78-3.75c1.5-0.06,4.78-0.16,7.01,0.18" stroke-dasharray="64.355" stroke-dashoffset="64.355"><animate attributeName="stroke-dashoffset" values="64.355" fill="freeze" begin="820d.click" /><animate attributeName="stroke-dashoffset" values="64.355;64.355;0" keyTimes="0;0.738;1" dur="1.847s" fill="freeze" begin="0s;820d.click" /></path><path d="M52.22,43.57c0.89,0.85,0.89,2.76,0.89,3.43c0,4.75,0.44,22.07,0.22,26.82" stroke-dasharray="30.455" stroke-dashoffset="30.455"><animate attributeName="stroke-dashoffset" values="30.455" fill="freeze" begin="820d.click" /><animate attributeName="stroke-dashoffset" values="30.455;30.455;0" keyTimes="0;0.858;1" dur="2.152s" fill="freeze" begin="0s;820d.click" /></path><path d="M31.25,74.24c0.5,0.46,1.02,0.83,1.24,1.41c1.75,4.51,3.34,16.46,4.54,24.57" stroke-dasharray="26.915" stroke-dashoffset="26.915"><animate attributeName="stroke-dashoffset" values="26.915" fill="freeze" begin="820d.click" /><animate attributeName="stroke-dashoffset" values="26.915;26.915;0" keyTimes="0;0.889;1" dur="2.421s" fill="freeze" begin="0s;820d.click" /></path><path d="M34.39,76.29c13.11-1.04,32.17-3.38,38.55-4.02c2.33-0.23,3.73,2.35,3.4,3.73c-1.38,5.68-1.46,10.58-4.42,18.77" stroke-dasharray="63.831" stroke-dashoffset="63.831"><animate attributeName="stroke-dashoffset" values="63.831" fill="freeze" begin="820d.click" /><animate attributeName="stroke-dashoffset" values="63.831;63.831;0" keyTimes="0;0.835;1" dur="2.901s" fill="freeze" begin="0s;820d.click" /></path><path d="M37.54,97.73C45.5,97,62.5,95.75,73.75,95.47" stroke-dasharray="36.286" stroke-dashoffset="36.286"><animate attributeName="stroke-dashoffset" values="36.286" fill="freeze" begin="820d.click" /><animate attributeName="stroke-dashoffset" values="36.286;36.286;0" keyTimes="0;0.889;1" dur="3.264s" fill="freeze" begin="0s;820d.click" /></path></g></svg>