<svg xmlns="http://www.w3.org/2000/svg" viewBox="0 0 109 109" id="821b"><g fill="none" stroke="#666" stroke-width="6" stroke-linecap="round" stroke-linejoin="round"><g><g><path d="M34.85,16.64c0,1.36-0.09,2.39-0.57,3.75C30.5,31,24.25,44.75,13.08,57.56" /><path d="M34.91,28.11c1.45,0.43,2.89,0.46,4.34,0.1c2.82-0.38,5.86-0.9,9.26-1.8c4.34-1.14,5.7,0.58,4.27,4.66C42.88,59.25,28.38,81,10,91" /><path d="M24.46,48.93c3.63,2.1,9.14,8.39,10.05,11.66" /></g><g><path d="M58.25,36.64c2.47,0.54,4.88,0.26,7.39-0.1c6.64-0.96,12.86-1.79,22.74-2.79c2.31-0.23,4.6-0.16,6.88,0.26" /><path d="M59,45c0.62,1.5,0.51,3.31,0,5c-0.64,2.13-1.86,8.14-2.64,10.75c-0.98,3.24-0.69,3.82,2.51,3.24c10.39-1.91,28.87-2.97,33.63-3.2c2.93-0.15,5.85,0.09,8.75,0.71" /><path d="M78.62,12.25c1,1,1.21,2.5,1.21,3.75c0,0.81,0.02,47.89,0.03,70.63c0,6.01,0,10.32,0,11.62" /></g></g></g><g fill="none" stroke="#000" stroke-width="3" stroke-linecap="round" stroke-linejoin="round"><path d="M34.85,16.64c0,1.36-0.09,2.39-0.57,3.75C30.5,31,24.25,44.75,13.08,57.56" stroke-dasharray="46.862" stroke-dashoffset="46.862"><animate attributeName="stroke-dashoffset" values="46.862;46.862;0" dur="0.469s" fill="freeze" begin="0s;821b.click" /></path><path d="M34.91,28.11c1.45,0.43,2.89,0.46,4.34,0.1c2.82-0.38,5.86-0.9,9.26-1.8c4.34-1.14,5.7,0.58,4.27,4.66C42.88,59.25,28.38,81,10,91" stroke-dasharray="98.055" stroke-dashoffset="98.055"><animate attributeName="stroke-dashoffset" values="98.055" fill="freeze" begin="821b.click" /><animate attributeName="stroke-dashoffset" values="98.055;98.055;0" keyTimes="0;0.389;1" dur="1.206s" fill="freeze" begin="0s;821b.click" /></path><path d="M24.46,48.93c3.63,2.1,9.14,8.39,10.05,11.66" stroke-dasharray="15.619" stroke-dashoffset="15.619"><animate attributeName="stroke-dashoffset" values="15.619" fill="freeze" begin="821b.click" /><animate attributeName="stroke-dashoffset" values="15.619;15.619;0" keyTimes="0;0.885;1" dur="1.362s" fill="freeze" begin="0s;821b.click" /></path><path d="M58.25,36.64c2.47,0.54,4.88,0.26,7.39-0.1c6.64-0.96,12.86-1.79,22.74-2.79c2.31-0.23,4.6-0.16,6.88,0.26" stroke-dasharray="37.255" stroke-dashoffset="37.255"><animate attributeName="stroke-dashoffset" values="37.255" fill="freeze" begin="821b.click" /><animate attributeName="stroke-dashoffset" values="37.255;37.255;0" keyTimes="0;0.785;1" dur="1.735s" fill="freeze" begin="0s;821b.click" /></path><path d="M59,45c0.62,1.5,0.51,3.31,0,5c-0.64,2.13-1.86,8.14-2.64,10.75c-0.98,3.24-0.69,3.82,2.51,3.24c10.39-1.91,28.87-2.97,33.63-3.2c2.93-0.15,5.85,0.09,8.75,0.71" stroke-dasharray="64.866" stroke-dashoffset="64.866"><animate attributeName="stroke-dashoffset" values="64.866" fill="freeze" begin="821b.click" /><animate attributeName="stroke-dashoffset" values="64.866;64.866;0" keyTimes="0;0.78;1" dur="2.223s" fill="freeze" begin="0s;821b.click" /></path><path d="M78.62,12.25c1,1,1.21,2.5,1.21,3.75c0,0.81,0.02,47.89,0.03,70.63c0,6.01,0,10.32,0,11.62" stroke-dasharray="86.296" stroke-dashoffset="86.296"><animate attributeName="stroke-dashoffset" values="86.296" fill="freeze" begin="821b.click" /><animate attributeName="stroke-dashoffset" values="86.296;86.296;0" keyTimes="0;0.774;1" dur="2.872s" fill="freeze" begin="0s;821b.click" /></path></g></svg>