<svg xmlns="http://www.w3.org/2000/svg" viewBox="0 0 109 109" id="821c"><g fill="none" stroke="#666" stroke-width="6" stroke-linecap="round" stroke-linejoin="round"><g><g><g><path d="M74.69,11.14c-0.44,1.36-1.55,2.17-2.43,2.62c-5.92,2.96-21.26,7.66-41.2,10.71" /><path d="M34.52,29.08c2.13,1.7,5.51,6.99,6.04,9.63" /><path d="M50.64,27.46c1.65,1.46,4.26,5.99,4.67,8.26" /><path d="M73.54,24.39c0.06,0.91-0.03,1.8-0.28,2.68C72.51,30.01,70.51,33.85,68,38" /></g><g><path d="M19.88,40.12c0,3.65-3.01,13.69-4.38,16.12" /><path d="M19.98,45.22c14.15-1.47,41.02-3.85,65.3-4.89c11.41-0.49,2.42,6.53-0.42,8.53" /></g></g><g><g><path d="M32.69,51.84c0.31,0.91,0.12,2.05-0.2,2.89c-2.24,5.9-6.74,13.27-15.07,22.13" /><path d="M33.03,60.89c0.85,0.24,1.78,0.25,2.47,0.15c1.91-0.26,5.36-1.05,8.14-1.99c3.21-1.1,4.76-0.21,3.45,3.36C43.3,72.74,32.12,90.38,16.87,98.52" /><path d="M26.62,71.62c2.48,1.35,6.42,5.55,7.04,7.66" /></g><g><path d="M55.93,59.81c1.43,0.47,3.23,0.53,4.7,0.46c5.84-0.25,15.98-1.27,21.74-1.5c1.6-0.06,3.22-0.09,4.8,0.22" /><path d="M58.75,61.13c0.81,0.81,0.75,1.77,0.75,2.87c0,4.92,0,12.53,0,14.5" /><path d="M47.5,79.64c2,0.81,4.28,0.65,6.38,0.57c8.86-0.3,24.65-1.66,32.48-2.2c1.84-0.13,3.58-0.19,5.39,0.25" /><path d="M71.82,50.25c1.34,1.34,1.73,2.75,1.73,4.67c0,0.93-0.03,24.21-0.04,36.21c0,3.14,0,5.51,0,6.5" /></g></g></g></g><g fill="none" stroke="#000" stroke-width="3" stroke-linecap="round" stroke-linejoin="round"><path d="M74.69,11.14c-0.44,1.36-1.55,2.17-2.43,2.62c-5.92,2.96-21.26,7.66-41.2,10.71" stroke-dasharray="46.357" stroke-dashoffset="46.357"><animate attributeName="stroke-dashoffset" values="46.357;46.357;0" dur="0.464s" fill="freeze" begin="0s;821c.click" /></path><path d="M34.52,29.08c2.13,1.7,5.51,6.99,6.04,9.63" stroke-dasharray="11.5" stroke-dashoffset="11.5"><animate attributeName="stroke-dashoffset" values="11.5" fill="freeze" begin="821c.click" /><animate attributeName="stroke-dashoffset" values="11.5;11.5;0" keyTimes="0;0.669;1" dur="0.694s" fill="freeze" begin="0s;821c.click" /></path><path d="M50.64,27.46c1.65,1.46,4.26,5.99,4.67,8.26" stroke-dasharray="9.59" stroke-dashoffset="9.59"><animate attributeName="stroke-dashoffset" values="9.59" fill="freeze" begin="821c.click" /><animate attributeName="stroke-dashoffset" values="9.59;9.59;0" keyTimes="0;0.783;1" dur="0.886s" fill="freeze" begin="0s;821c.click" /></path><path d="M73.54,24.39c0.06,0.91-0.03,1.8-0.28,2.68C72.51,30.01,70.51,33.85,68,38" stroke-dasharray="14.876" stroke-dashoffset="14.876"><animate attributeName="stroke-dashoffset" values="14.876" fill="freeze" begin="821c.click" /><animate attributeName="stroke-dashoffset" values="14.876;14.876;0" keyTimes="0;0.748;1" dur="1.184s" fill="freeze" begin="0s;821c.click" /></path><path d="M19.88,40.12c0,3.65-3.01,13.69-4.38,16.12" stroke-dasharray="16.782" stroke-dashoffset="16.782"><animate attributeName="stroke-dashoffset" values="16.782" fill="freeze" begin="821c.click" /><animate attributeName="stroke-dashoffset" values="16.782;16.782;0" keyTimes="0;0.876;1" dur="1.352s" fill="freeze" begin="0s;821c.click" /></path><path d="M19.98,45.22c14.15-1.47,41.02-3.85,65.3-4.89c11.41-0.49,2.42,6.53-0.42,8.53" stroke-dasharray="81.189" stroke-dashoffset="81.189"><animate attributeName="stroke-dashoffset" values="81.189" fill="freeze" begin="821c.click" /><animate attributeName="stroke-dashoffset" values="81.189;81.189;0" keyTimes="0;0.689;1" dur="1.962s" fill="freeze" begin="0s;821c.click" /></path><path d="M32.69,51.84c0.31,0.91,0.12,2.05-0.2,2.89c-2.24,5.9-6.74,13.27-15.07,22.13" stroke-dasharray="29.889" stroke-dashoffset="29.889"><animate attributeName="stroke-dashoffset" values="29.889" fill="freeze" begin="821c.click" /><animate attributeName="stroke-dashoffset" values="29.889;29.889;0" keyTimes="0;0.868;1" dur="2.261s" fill="freeze" begin="0s;821c.click" /></path><path d="M33.03,60.89c0.85,0.24,1.78,0.25,2.47,0.15c1.91-0.26,5.36-1.05,8.14-1.99c3.21-1.1,4.76-0.21,3.45,3.36C43.3,72.74,32.12,90.38,16.87,98.52" stroke-dasharray="66.043" stroke-dashoffset="66.043"><animate attributeName="stroke-dashoffset" values="66.043" fill="freeze" begin="821c.click" /><animate attributeName="stroke-dashoffset" values="66.043;66.043;0" keyTimes="0;0.82;1" dur="2.758s" fill="freeze" begin="0s;821c.click" /></path><path d="M26.62,71.62c2.48,1.35,6.42,5.55,7.04,7.66" stroke-dasharray="10.555" stroke-dashoffset="10.555"><animate attributeName="stroke-dashoffset" values="10.555" fill="freeze" begin="821c.click" /><animate attributeName="stroke-dashoffset" values="10.555;10.555;0" keyTimes="0;0.929;1" dur="2.969s" fill="freeze" begin="0s;821c.click" /></path><path d="M55.93,59.81c1.43,0.47,3.23,0.53,4.7,0.46c5.84-0.25,15.98-1.27,21.74-1.5c1.6-0.06,3.22-0.09,4.8,0.22" stroke-dasharray="31.357" stroke-dashoffset="31.357"><animate attributeName="stroke-dashoffset" values="31.357" fill="freeze" begin="821c.click" /><animate attributeName="stroke-dashoffset" values="31.357;31.357;0" keyTimes="0;0.904;1" dur="3.283s" fill="freeze" begin="0s;821c.click" /></path><path d="M58.75,61.13c0.81,0.81,0.75,1.77,0.75,2.87c0,4.92,0,12.53,0,14.5" stroke-dasharray="17.563" stroke-dashoffset="17.563"><animate attributeName="stroke-dashoffset" values="17.563" fill="freeze" begin="821c.click" /><animate attributeName="stroke-dashoffset" values="17.563;17.563;0" keyTimes="0;0.949;1" dur="3.459s" fill="freeze" begin="0s;821c.click" /></path><path d="M47.5,79.64c2,0.81,4.28,0.65,6.38,0.57c8.86-0.3,24.65-1.66,32.48-2.2c1.84-0.13,3.58-0.19,5.39,0.25" stroke-dasharray="44.433" stroke-dashoffset="44.433"><animate attributeName="stroke-dashoffset" values="44.433" fill="freeze" begin="821c.click" /><animate attributeName="stroke-dashoffset" values="44.433;44.433;0" keyTimes="0;0.886;1" dur="3.903s" fill="freeze" begin="0s;821c.click" /></path><path d="M71.82,50.25c1.34,1.34,1.73,2.75,1.73,4.67c0,0.93-0.03,24.21-0.04,36.21c0,3.14,0,5.51,0,6.5" stroke-dasharray="47.844" stroke-dashoffset="47.844"><animate attributeName="stroke-dashoffset" values="47.844" fill="freeze" begin="821c.click" /><animate attributeName="stroke-dashoffset" values="47.844;47.844;0" keyTimes="0;0.891;1" dur="4.381s" fill="freeze" begin="0s;821c.click" /></path></g></svg>