<svg xmlns="http://www.w3.org/2000/svg" viewBox="0 0 109 109" id="829d"><g fill="none" stroke="#666" stroke-width="6" stroke-linecap="round" stroke-linejoin="round"><g><g><path d="M14.5,29.45c2.88,0.68,6.63,0.76,9.52,0.34c15.11-2.17,40.04-4.68,54.86-5.36c3.29-0.15,6.64-0.38,9.88,0.41" /><path d="M31.15,14.25c1.05,1.05,1.57,2.53,1.78,3.49c1.94,8.98,3.86,17.74,4.42,21.01" /><path d="M68.25,11.75c0.42,1.18,0.77,2,0.5,3.5c-1.25,7-3,13.25-5,21.75" /></g><g p4:phon="之" xmlns:p4="http://kanjivg.tagaini.net"><g><path d="M49.4,38.25c1.11,1.11,1.42,2.12,1.42,4.27c0,3.9-0.06,7.06-0.06,10.6" /></g><path d="M23.08,58.5c2.92,0.75,5.83,0.5,8.55-0.12c13-3,27-6,36.2-8.13c6.85-1.59,8.89,1.28,3.25,6c-14.33,12-26.45,18.88-42.83,27.5" /><path d="M13.25,84.25c2.88-0.38,5.21-0.13,7.13,0.06c19.77,2,37.62,6.82,54.95,10.07c6.9,1.3,9.08,1.38,15.92,1.62" /></g></g></g><g fill="none" stroke="#000" stroke-width="3" stroke-linecap="round" stroke-linejoin="round"><path d="M14.5,29.45c2.88,0.68,6.63,0.76,9.52,0.34c15.11-2.17,40.04-4.68,54.86-5.36c3.29-0.15,6.64-0.38,9.88,0.41" stroke-dasharray="74.638" stroke-dashoffset="74.638"><animate attributeName="stroke-dashoffset" values="74.638;74.638;0" dur="0.561s" fill="freeze" begin="0s;829d.click" /></path><path d="M31.15,14.25c1.05,1.05,1.57,2.53,1.78,3.49c1.94,8.98,3.86,17.74,4.42,21.01" stroke-dasharray="25.44" stroke-dashoffset="25.44"><animate attributeName="stroke-dashoffset" values="25.44" fill="freeze" begin="829d.click" /><animate attributeName="stroke-dashoffset" values="25.44;25.44;0" keyTimes="0;0.688;1" dur="0.815s" fill="freeze" begin="0s;829d.click" /></path><path d="M68.25,11.75c0.42,1.18,0.77,2,0.5,3.5c-1.25,7-3,13.25-5,21.75" stroke-dasharray="25.913" stroke-dashoffset="25.913"><animate attributeName="stroke-dashoffset" values="25.913" fill="freeze" begin="829d.click" /><animate attributeName="stroke-dashoffset" values="25.913;25.913;0" keyTimes="0;0.759;1" dur="1.074s" fill="freeze" begin="0s;829d.click" /></path><path d="M49.4,38.25c1.11,1.11,1.42,2.12,1.42,4.27c0,3.9-0.06,7.06-0.06,10.6" stroke-dasharray="15.251" stroke-dashoffset="15.251"><animate attributeName="stroke-dashoffset" values="15.251" fill="freeze" begin="829d.click" /><animate attributeName="stroke-dashoffset" values="15.251;15.251;0" keyTimes="0;0.875;1" dur="1.227s" fill="freeze" begin="0s;829d.click" /></path><path d="M23.08,58.5c2.92,0.75,5.83,0.5,8.55-0.12c13-3,27-6,36.2-8.13c6.85-1.59,8.89,1.28,3.25,6c-14.33,12-26.45,18.88-42.83,27.5" stroke-dasharray="110.007" stroke-dashoffset="110.007"><animate attributeName="stroke-dashoffset" values="110.007" fill="freeze" begin="829d.click" /><animate attributeName="stroke-dashoffset" values="110.007;110.007;0" keyTimes="0;0.597;1" dur="2.054s" fill="freeze" begin="0s;829d.click" /></path><path d="M13.25,84.25c2.88-0.38,5.21-0.13,7.13,0.06c19.77,2,37.62,6.82,54.95,10.07c6.9,1.3,9.08,1.38,15.92,1.62" stroke-dasharray="79.068" stroke-dashoffset="79.068"><animate attributeName="stroke-dashoffset" values="79.068" fill="freeze" begin="829d.click" /><animate attributeName="stroke-dashoffset" values="79.068;79.068;0" keyTimes="0;0.776;1" dur="2.648s" fill="freeze" begin="0s;829d.click" /></path></g></svg>