<svg xmlns="http://www.w3.org/2000/svg" viewBox="0 0 109 109" id="82a6"><g fill="none" stroke="#666" stroke-width="6" stroke-linecap="round" stroke-linejoin="round"><g><g><path d="M20,26.77c1.29,0.53,2.8,0.63,4.1,0.53C36,26.33,71,23.33,84.72,23.26c2.16-0.01,3.45,0.25,4.53,0.51" /><path d="M37.75,14c1.75,1.43,2.31,1.87,2.5,2.75C42,25,42.5,32,43,35" /><path d="M67.25,12.25c0.42,1.18,0.83,2.02,0.5,3.5c-1,4.5-2,10.5-3.5,16.75" /></g><g><path d="M82.25,35.5c0.1,0.17-1.29,0.94-1.74,1.03C66.95,39.12,48.59,41.71,30,43" /><path d="M29.5,40.5c0.25,1,0.52,1.92,0.38,4.03c-1.79,27.51-5.63,41.72-16.38,55.22" /><path d="M29.86,52.52c12.89-1.02,38.3-3.71,46.16-4.27c2.13-0.15,4.27,1.05,3.47,3.36c-1.42,4.09-1.94,7.47-3.81,14.4" /><path d="M26.75,69.75c8.75,0.25,38-2.75,52-3.75" /></g></g></g><g fill="none" stroke="#000" stroke-width="3" stroke-linecap="round" stroke-linejoin="round"><path d="M20,26.77c1.29,0.53,2.8,0.63,4.1,0.53C36,26.33,71,23.33,84.72,23.26c2.16-0.01,3.45,0.25,4.53,0.51" stroke-dasharray="69.507" stroke-dashoffset="69.507"><animate attributeName="stroke-dashoffset" values="69.507;69.507;0" dur="0.523s" fill="freeze" begin="0s;82a6.click" /></path><path d="M37.75,14c1.75,1.43,2.31,1.87,2.5,2.75C42,25,42.5,32,43,35" stroke-dasharray="22.252" stroke-dashoffset="22.252"><animate attributeName="stroke-dashoffset" values="22.252" fill="freeze" begin="82a6.click" /><animate attributeName="stroke-dashoffset" values="22.252;22.252;0" keyTimes="0;0.701;1" dur="0.746s" fill="freeze" begin="0s;82a6.click" /></path><path d="M67.25,12.25c0.42,1.18,0.83,2.02,0.5,3.5c-1,4.5-2,10.5-3.5,16.75" stroke-dasharray="20.715" stroke-dashoffset="20.715"><animate attributeName="stroke-dashoffset" values="20.715" fill="freeze" begin="82a6.click" /><animate attributeName="stroke-dashoffset" values="20.715;20.715;0" keyTimes="0;0.783;1" dur="0.953s" fill="freeze" begin="0s;82a6.click" /></path><path d="M82.25,35.5c0.1,0.17-1.29,0.94-1.74,1.03C66.95,39.12,48.59,41.71,30,43" stroke-dasharray="53.02" stroke-dashoffset="53.02"><animate attributeName="stroke-dashoffset" values="53.02" fill="freeze" begin="82a6.click" /><animate attributeName="stroke-dashoffset" values="53.02;53.02;0" keyTimes="0;0.643;1" dur="1.483s" fill="freeze" begin="0s;82a6.click" /></path><path d="M29.5,40.5c0.25,1,0.52,1.92,0.38,4.03c-1.79,27.51-5.63,41.72-16.38,55.22" stroke-dasharray="62.687" stroke-dashoffset="62.687"><animate attributeName="stroke-dashoffset" values="62.687" fill="freeze" begin="82a6.click" /><animate attributeName="stroke-dashoffset" values="62.687;62.687;0" keyTimes="0;0.759;1" dur="1.954s" fill="freeze" begin="0s;82a6.click" /></path><path d="M29.86,52.52c12.89-1.02,38.3-3.71,46.16-4.27c2.13-0.15,4.27,1.05,3.47,3.36c-1.42,4.09-1.94,7.47-3.81,14.4" stroke-dasharray="67.133" stroke-dashoffset="67.133"><animate attributeName="stroke-dashoffset" values="67.133" fill="freeze" begin="82a6.click" /><animate attributeName="stroke-dashoffset" values="67.133;67.133;0" keyTimes="0;0.795;1" dur="2.459s" fill="freeze" begin="0s;82a6.click" /></path><path d="M26.75,69.75c8.75,0.25,38-2.75,52-3.75" stroke-dasharray="52.148" stroke-dashoffset="52.148"><animate attributeName="stroke-dashoffset" values="52.148" fill="freeze" begin="82a6.click" /><animate attributeName="stroke-dashoffset" values="52.148;52.148;0" keyTimes="0;0.825;1" dur="2.98s" fill="freeze" begin="0s;82a6.click" /></path></g></svg>