<svg xmlns="http://www.w3.org/2000/svg" viewBox="0 0 109 109" id="82c5"><g fill="none" stroke="#666" stroke-width="6" stroke-linecap="round" stroke-linejoin="round"><g><g><path d="M18.5,26.27c3.06,0.62,6.14,0.69,9.26,0.33c14.87-1.72,37.73-4.11,52.12-4.85c3.9-0.25,7.77-0.08,11.62,0.53" /><path d="M35.75,14.5c1.06,1.06,1.31,2.12,1.5,3C39,25.75,40,32.25,40.5,35.25" /><path d="M69.5,11c0.38,1.5,0.28,2.25,0,3.75C68.12,22.12,67.38,25.5,66,32" /></g><g><g><g><path d="M46.31,43.34c0.19,1.66,0.17,3.25-0.74,5.38c-8.82,20.65-16.45,34.03-32.36,45.01" /></g><path d="M22.48,54.13C34.5,60,45.85,72.17,51.74,81.56" /></g><g><path d="M64.21,44c0.79,0.74,1.17,2.63,1.17,4.3c0,8.55,0,17.65,0,24.08c0,3.22,0,5.77,0,7.25" /><path d="M82.16,33.7c0.79,0.74,1.17,2.18,1.17,4.3c0,12.25,0.04,51.5,0.04,55.5c0,10.6-6.31,1.21-7.52,0.2" /></g></g></g></g><g fill="none" stroke="#000" stroke-width="3" stroke-linecap="round" stroke-linejoin="round"><path d="M18.5,26.27c3.06,0.62,6.14,0.69,9.26,0.33c14.87-1.72,37.73-4.11,52.12-4.85c3.9-0.25,7.77-0.08,11.62,0.53" stroke-dasharray="73.314" stroke-dashoffset="73.314"><animate attributeName="stroke-dashoffset" values="73.314;73.314;0" dur="0.551s" fill="freeze" begin="0s;82c5.click" /></path><path d="M35.75,14.5c1.06,1.06,1.31,2.12,1.5,3C39,25.75,40,32.25,40.5,35.25" stroke-dasharray="21.458" stroke-dashoffset="21.458"><animate attributeName="stroke-dashoffset" values="21.458" fill="freeze" begin="82c5.click" /><animate attributeName="stroke-dashoffset" values="21.458;21.458;0" keyTimes="0;0.719;1" dur="0.766s" fill="freeze" begin="0s;82c5.click" /></path><path d="M69.5,11c0.38,1.5,0.28,2.25,0,3.75C68.12,22.12,67.38,25.5,66,32" stroke-dasharray="21.394" stroke-dashoffset="21.394"><animate attributeName="stroke-dashoffset" values="21.394" fill="freeze" begin="82c5.click" /><animate attributeName="stroke-dashoffset" values="21.394;21.394;0" keyTimes="0;0.782;1" dur="0.98s" fill="freeze" begin="0s;82c5.click" /></path><path d="M46.31,43.34c0.19,1.66,0.17,3.25-0.74,5.38c-8.82,20.65-16.45,34.03-32.36,45.01" stroke-dasharray="61.801" stroke-dashoffset="61.801"><animate attributeName="stroke-dashoffset" values="61.801" fill="freeze" begin="82c5.click" /><animate attributeName="stroke-dashoffset" values="61.801;61.801;0" keyTimes="0;0.678;1" dur="1.445s" fill="freeze" begin="0s;82c5.click" /></path><path d="M22.48,54.13C34.5,60,45.85,72.17,51.74,81.56" stroke-dasharray="40.557" stroke-dashoffset="40.557"><animate attributeName="stroke-dashoffset" values="40.557" fill="freeze" begin="82c5.click" /><animate attributeName="stroke-dashoffset" values="40.557;40.557;0" keyTimes="0;0.781;1" dur="1.851s" fill="freeze" begin="0s;82c5.click" /></path><path d="M64.21,44c0.79,0.74,1.17,2.63,1.17,4.3c0,8.55,0,17.65,0,24.08c0,3.22,0,5.77,0,7.25" stroke-dasharray="35.883" stroke-dashoffset="35.883"><animate attributeName="stroke-dashoffset" values="35.883" fill="freeze" begin="82c5.click" /><animate attributeName="stroke-dashoffset" values="35.883;35.883;0" keyTimes="0;0.838;1" dur="2.21s" fill="freeze" begin="0s;82c5.click" /></path><path d="M82.16,33.7c0.79,0.74,1.17,2.18,1.17,4.3c0,12.25,0.04,51.5,0.04,55.5c0,10.6-6.31,1.21-7.52,0.2" stroke-dasharray="73.442" stroke-dashoffset="73.442"><animate attributeName="stroke-dashoffset" values="73.442" fill="freeze" begin="82c5.click" /><animate attributeName="stroke-dashoffset" values="73.442;73.442;0" keyTimes="0;0.8;1" dur="2.762s" fill="freeze" begin="0s;82c5.click" /></path></g></svg>