<svg xmlns="http://www.w3.org/2000/svg" viewBox="0 0 109 109" id="82d3"><g fill="none" stroke="#666" stroke-width="6" stroke-linecap="round" stroke-linejoin="round"><g><g><path d="M16.5,22.74c1.41,0.56,3.04,0.67,4.45,0.56c12.93-1.01,50.97-4.71,65.87-4.78c2.34-0.01,3.75,0.26,4.92,0.54" /><path d="M36.25,11c1.75,1.43,2.31,1.87,2.5,2.75C40.5,22,40,29,40.5,32" /><path d="M67.25,8.75c1.12,1,1.87,2.52,1.5,4c-1.12,4.5-1.88,11.5-3.5,17.25" /></g><g><g><path d="M52.13,27.5c0.11,0.9,0.49,2.36-0.22,3.62c-4.49,7.93-18.73,24.16-35.41,33.8" /><path d="M52.6,30.57c6.44,4.56,29.9,23.01,35.34,26.8c1.85,1.29,4.22,1.84,6.06,2.2" /></g><g><g><path d="M47.67,48.26c4.42,1.71,11.42,7.02,12.52,9.67" /></g><g><path d="M29.15,66.46c1.28,0.73,3.97,1.09,5.43,0.9c2.88-0.37,38.71-4,41.75-4.36c3.04-0.37,3.3,1.36,1.12,3.31c-5.11,4.56-20.98,18.95-22.9,20.41" /><path d="M40.26,77.5c5.69,2.75,20.41,13.31,23.09,20.5" /></g></g></g></g></g><g fill="none" stroke="#000" stroke-width="3" stroke-linecap="round" stroke-linejoin="round"><path d="M16.5,22.74c1.41,0.56,3.04,0.67,4.45,0.56c12.93-1.01,50.97-4.71,65.87-4.78c2.34-0.01,3.75,0.26,4.92,0.54" stroke-dasharray="75.541" stroke-dashoffset="75.541"><animate attributeName="stroke-dashoffset" values="75.541;75.541;0" dur="0.568s" fill="freeze" begin="0s;82d3.click" /></path><path d="M36.25,11c1.75,1.43,2.31,1.87,2.5,2.75C40.5,22,40,29,40.5,32" stroke-dasharray="22.147" stroke-dashoffset="22.147"><animate attributeName="stroke-dashoffset" values="22.147" fill="freeze" begin="82d3.click" /><animate attributeName="stroke-dashoffset" values="22.147;22.147;0" keyTimes="0;0.72;1" dur="0.789s" fill="freeze" begin="0s;82d3.click" /></path><path d="M67.25,8.75c1.12,1,1.87,2.52,1.5,4c-1.12,4.5-1.88,11.5-3.5,17.25" stroke-dasharray="22.096" stroke-dashoffset="22.096"><animate attributeName="stroke-dashoffset" values="22.096" fill="freeze" begin="82d3.click" /><animate attributeName="stroke-dashoffset" values="22.096;22.096;0" keyTimes="0;0.781;1" dur="1.01s" fill="freeze" begin="0s;82d3.click" /></path><path d="M52.13,27.5c0.11,0.9,0.49,2.36-0.22,3.62c-4.49,7.93-18.73,24.16-35.41,33.8" stroke-dasharray="53.09" stroke-dashoffset="53.09"><animate attributeName="stroke-dashoffset" values="53.09" fill="freeze" begin="82d3.click" /><animate attributeName="stroke-dashoffset" values="53.09;53.09;0" keyTimes="0;0.655;1" dur="1.541s" fill="freeze" begin="0s;82d3.click" /></path><path d="M52.6,30.57c6.44,4.56,29.9,23.01,35.34,26.8c1.85,1.29,4.22,1.84,6.06,2.2" stroke-dasharray="50.85" stroke-dashoffset="50.85"><animate attributeName="stroke-dashoffset" values="50.85" fill="freeze" begin="82d3.click" /><animate attributeName="stroke-dashoffset" values="50.85;50.85;0" keyTimes="0;0.752;1" dur="2.05s" fill="freeze" begin="0s;82d3.click" /></path><path d="M47.67,48.26c4.42,1.71,11.42,7.02,12.52,9.67" stroke-dasharray="16.041" stroke-dashoffset="16.041"><animate attributeName="stroke-dashoffset" values="16.041" fill="freeze" begin="82d3.click" /><animate attributeName="stroke-dashoffset" values="16.041;16.041;0" keyTimes="0;0.928;1" dur="2.21s" fill="freeze" begin="0s;82d3.click" /></path><path d="M29.15,66.46c1.28,0.73,3.97,1.09,5.43,0.9c2.88-0.37,38.71-4,41.75-4.36c3.04-0.37,3.3,1.36,1.12,3.31c-5.11,4.56-20.98,18.95-22.9,20.41" stroke-dasharray="84.088" stroke-dashoffset="84.088"><animate attributeName="stroke-dashoffset" values="84.088" fill="freeze" begin="82d3.click" /><animate attributeName="stroke-dashoffset" values="84.088;84.088;0" keyTimes="0;0.778;1" dur="2.842s" fill="freeze" begin="0s;82d3.click" /></path><path d="M40.26,77.5c5.69,2.75,20.41,13.31,23.09,20.5" stroke-dasharray="31.309" stroke-dashoffset="31.309"><animate attributeName="stroke-dashoffset" values="31.309" fill="freeze" begin="82d3.click" /><animate attributeName="stroke-dashoffset" values="31.309;31.309;0" keyTimes="0;0.901;1" dur="3.155s" fill="freeze" begin="0s;82d3.click" /></path></g></svg>