<svg xmlns="http://www.w3.org/2000/svg" viewBox="0 0 109 109" id="82d7"><g fill="none" stroke="#666" stroke-width="6" stroke-linecap="round" stroke-linejoin="round"><g><g><path d="M15.5,31.68c2.72,0.96,6.3,0.74,9.13,0.41c14.92-1.74,42.04-4.07,57.62-4.63c3.49-0.12,7.05-0.11,10.5,0.62" /><path d="M36.7,15.56c0.8,1.19,1.2,2.17,1.32,3.32c1.1,10.71,2.04,21.21,2.35,25.11" /><path d="M72.68,13c0.26,1.53,0.25,2.69-0.19,4.54c-2.24,9.46-3.74,14.21-6.42,25.05" /></g><g><path d="M22.75,54c1,1,1.47,2.1,1.73,4.09c1.14,8.78,2.52,19.9,3.61,31.35c0.22,2.29,0.42,4.52,0.61,6.63" /><path d="M24.93,55.74c18.69-2.49,41.69-4.74,55.03-5.28c4.12-0.17,6.19,1.63,5.7,5.55c-0.83,6.61-2.52,19.36-4.64,30.28c-0.58,2.98-1.17,5.82-1.75,8.37" /><path d="M53.12,55.04c0.98,0.98,1.22,2.09,1.22,3.57c0,9.35-0.04,25.86-0.09,32.51" /><path d="M27.8,73.67c15.2-1.54,40.32-3.79,54.89-4.53" /><path d="M29.48,93.64c12.02-0.89,34.75-2.3,49.49-2.73" /></g></g></g><g fill="none" stroke="#000" stroke-width="3" stroke-linecap="round" stroke-linejoin="round"><path d="M15.5,31.68c2.72,0.96,6.3,0.74,9.13,0.41c14.92-1.74,42.04-4.07,57.62-4.63c3.49-0.12,7.05-0.11,10.5,0.62" stroke-dasharray="77.576" stroke-dashoffset="77.576"><animate attributeName="stroke-dashoffset" values="77.576;77.576;0" dur="0.583s" fill="freeze" begin="0s;82d7.click" /></path><path d="M36.7,15.56c0.8,1.19,1.2,2.17,1.32,3.32c1.1,10.71,2.04,21.21,2.35,25.11" stroke-dasharray="28.833" stroke-dashoffset="28.833"><animate attributeName="stroke-dashoffset" values="28.833" fill="freeze" begin="82d7.click" /><animate attributeName="stroke-dashoffset" values="28.833;28.833;0" keyTimes="0;0.669;1" dur="0.871s" fill="freeze" begin="0s;82d7.click" /></path><path d="M72.68,13c0.26,1.53,0.25,2.69-0.19,4.54c-2.24,9.46-3.74,14.21-6.42,25.05" stroke-dasharray="30.442" stroke-dashoffset="30.442"><animate attributeName="stroke-dashoffset" values="30.442" fill="freeze" begin="82d7.click" /><animate attributeName="stroke-dashoffset" values="30.442;30.442;0" keyTimes="0;0.741;1" dur="1.175s" fill="freeze" begin="0s;82d7.click" /></path><path d="M22.75,54c1,1,1.47,2.1,1.73,4.09c1.14,8.78,2.52,19.9,3.61,31.35c0.22,2.29,0.42,4.52,0.61,6.63" stroke-dasharray="42.752" stroke-dashoffset="42.752"><animate attributeName="stroke-dashoffset" values="42.752" fill="freeze" begin="82d7.click" /><animate attributeName="stroke-dashoffset" values="42.752;42.752;0" keyTimes="0;0.733;1" dur="1.603s" fill="freeze" begin="0s;82d7.click" /></path><path d="M24.93,55.74c18.69-2.49,41.69-4.74,55.03-5.28c4.12-0.17,6.19,1.63,5.7,5.55c-0.83,6.61-2.52,19.36-4.64,30.28c-0.58,2.98-1.17,5.82-1.75,8.37" stroke-dasharray="103.984" stroke-dashoffset="103.984"><animate attributeName="stroke-dashoffset" values="103.984" fill="freeze" begin="82d7.click" /><animate attributeName="stroke-dashoffset" values="103.984;103.984;0" keyTimes="0;0.672;1" dur="2.385s" fill="freeze" begin="0s;82d7.click" /></path><path d="M53.12,55.04c0.98,0.98,1.22,2.09,1.22,3.57c0,9.35-0.04,25.86-0.09,32.51" stroke-dasharray="36.398" stroke-dashoffset="36.398"><animate attributeName="stroke-dashoffset" values="36.398" fill="freeze" begin="82d7.click" /><animate attributeName="stroke-dashoffset" values="36.398;36.398;0" keyTimes="0;0.868;1" dur="2.749s" fill="freeze" begin="0s;82d7.click" /></path><path d="M27.8,73.67c15.2-1.54,40.32-3.79,54.89-4.53" stroke-dasharray="55.082" stroke-dashoffset="55.082"><animate attributeName="stroke-dashoffset" values="55.082" fill="freeze" begin="82d7.click" /><animate attributeName="stroke-dashoffset" values="55.082;55.082;0" keyTimes="0;0.833;1" dur="3.3s" fill="freeze" begin="0s;82d7.click" /></path><path d="M29.48,93.64c12.02-0.89,34.75-2.3,49.49-2.73" stroke-dasharray="49.569" stroke-dashoffset="49.569"><animate attributeName="stroke-dashoffset" values="49.569" fill="freeze" begin="82d7.click" /><animate attributeName="stroke-dashoffset" values="49.569;49.569;0" keyTimes="0;0.869;1" dur="3.796s" fill="freeze" begin="0s;82d7.click" /></path></g></svg>