<svg xmlns="http://www.w3.org/2000/svg" viewBox="0 0 109 109" id="82f9"><g fill="none" stroke="#666" stroke-width="6" stroke-linecap="round" stroke-linejoin="round"><g><g><path d="M19.25,21.25c1.29,0.53,4.5,0.5,7.67,0.33c11.92-0.63,44.95-3.26,58.67-3.33c2.16-0.01,5.42,0.4,6.5,0.67" /><path d="M38.42,11.42c1.58,0.83,2.7,2.54,2.83,3.33c1.25,7.42,0.98,13.14,1.33,15.83" /><path d="M66.75,8.58c1.65,1.01,1.29,2.61,1,4.17c-0.83,4.5-2,10.33-3.92,16.67" /></g><g><g><path d="M26.42,35.58c3.08,0.67,5.83,0.67,9.17,0.67c6.83,0,30.19-1.6,41.83-2.17c1.64-0.08,6.51-0.15,7.33,0" /></g><path d="M39.94,44.35c0.05,0.38,0.11,0.99-0.1,1.54c-1.21,3.24-8.17,10.34-17.68,14.69" /><path d="M67.15,40.37c7,3.63,14.74,11.26,16.5,16.92" /><g><g><path d="M14.08,65.92c2.92,1.33,6.42,1.08,10,0.83c18.3-1.28,38.93-2.44,61.67-3.33C90,63.25,93,63.5,94.92,64.25" /><path d="M53.25,36.58c0.85,0.37,0.94,4.62,1.11,5.36c0.17,0.74-0.11,54.02-0.28,58.64" /></g></g></g></g></g><g fill="none" stroke="#000" stroke-width="3" stroke-linecap="round" stroke-linejoin="round"><path d="M19.25,21.25c1.29,0.53,4.5,0.5,7.67,0.33c11.92-0.63,44.95-3.26,58.67-3.33c2.16-0.01,5.42,0.4,6.5,0.67" stroke-dasharray="73.031" stroke-dashoffset="73.031"><animate attributeName="stroke-dashoffset" values="73.031;73.031;0" dur="0.549s" fill="freeze" begin="0s;82f9.click" /></path><path d="M38.42,11.42c1.58,0.83,2.7,2.54,2.83,3.33c1.25,7.42,0.98,13.14,1.33,15.83" stroke-dasharray="20.379" stroke-dashoffset="20.379"><animate attributeName="stroke-dashoffset" values="20.379" fill="freeze" begin="82f9.click" /><animate attributeName="stroke-dashoffset" values="20.379;20.379;0" keyTimes="0;0.729;1" dur="0.753s" fill="freeze" begin="0s;82f9.click" /></path><path d="M66.75,8.58c1.65,1.01,1.29,2.61,1,4.17c-0.83,4.5-2,10.33-3.92,16.67" stroke-dasharray="21.779" stroke-dashoffset="21.779"><animate attributeName="stroke-dashoffset" values="21.779" fill="freeze" begin="82f9.click" /><animate attributeName="stroke-dashoffset" values="21.779;21.779;0" keyTimes="0;0.775;1" dur="0.971s" fill="freeze" begin="0s;82f9.click" /></path><path d="M26.42,35.58c3.08,0.67,5.83,0.67,9.17,0.67c6.83,0,30.19-1.6,41.83-2.17c1.64-0.08,6.51-0.15,7.33,0" stroke-dasharray="58.438" stroke-dashoffset="58.438"><animate attributeName="stroke-dashoffset" values="58.438" fill="freeze" begin="82f9.click" /><animate attributeName="stroke-dashoffset" values="58.438;58.438;0" keyTimes="0;0.624;1" dur="1.555s" fill="freeze" begin="0s;82f9.click" /></path><path d="M39.94,44.35c0.05,0.38,0.11,0.99-0.1,1.54c-1.21,3.24-8.17,10.34-17.68,14.69" stroke-dasharray="24.919" stroke-dashoffset="24.919"><animate attributeName="stroke-dashoffset" values="24.919" fill="freeze" begin="82f9.click" /><animate attributeName="stroke-dashoffset" values="24.919;24.919;0" keyTimes="0;0.862;1" dur="1.804s" fill="freeze" begin="0s;82f9.click" /></path><path d="M67.15,40.37c7,3.63,14.74,11.26,16.5,16.92" stroke-dasharray="24.096" stroke-dashoffset="24.096"><animate attributeName="stroke-dashoffset" values="24.096" fill="freeze" begin="82f9.click" /><animate attributeName="stroke-dashoffset" values="24.096;24.096;0" keyTimes="0;0.882;1" dur="2.045s" fill="freeze" begin="0s;82f9.click" /></path><path d="M14.08,65.92c2.92,1.33,6.42,1.08,10,0.83c18.3-1.28,38.93-2.44,61.67-3.33C90,63.25,93,63.5,94.92,64.25" stroke-dasharray="81.169" stroke-dashoffset="81.169"><animate attributeName="stroke-dashoffset" values="81.169" fill="freeze" begin="82f9.click" /><animate attributeName="stroke-dashoffset" values="81.169;81.169;0" keyTimes="0;0.77;1" dur="2.655s" fill="freeze" begin="0s;82f9.click" /></path><path d="M53.25,36.58c0.85,0.37,0.94,4.62,1.11,5.36c0.17,0.74-0.11,54.02-0.28,58.64" stroke-dasharray="64.211" stroke-dashoffset="64.211"><animate attributeName="stroke-dashoffset" values="64.211" fill="freeze" begin="82f9.click" /><animate attributeName="stroke-dashoffset" values="64.211;64.211;0" keyTimes="0;0.846;1" dur="3.138s" fill="freeze" begin="0s;82f9.click" /></path></g></svg>