<svg xmlns="http://www.w3.org/2000/svg" viewBox="0 0 109 109" id="82fa"><g fill="none" stroke="#666" stroke-width="6" stroke-linecap="round" stroke-linejoin="round"><g><g><path d="M20.08,24.58c1.29,0.53,5.54,0.44,6.83,0.33c11.9-0.96,43.45-4.09,57.17-4.17c2.16-0.01,5.42,0.25,8.17,1.33" /><path d="M39.08,11.42C41,12.25,41.37,14.11,41.5,15c1.25,8.58,1.75,14.08,2.08,17.58" /><path d="M66.75,9.58c1,1.17,1.54,3.16,1.33,4.67c-0.67,4.83-1.33,10.5-3.17,17.17" /></g><g><g><path d="M36.42,36.75c1.12,0.79,1.8,2.95,1.5,5c-1.44,9.7-5.55,25.98-10.29,35.05c-1.45,2.77-0.43,4.05,3.58,4C46.65,80.6,73,83,85.92,91.92" /><path d="M38.58,39.58c0.98-0.13,3.67,0.14,5.67,0c8.25-0.58,25.46-1.86,30.52-2.55c3.69-0.51,5.36,0.53,5.06,2.97c-1.12,9.14-5.96,42.91-12.75,53.25c-3.37,5.13-6.9,1.34-8.33,0.17" /></g><path d="M50.61,44.66c3.05,1.52,7.88,6.23,8.64,8.59" /><path d="M47.14,66.27c3.67,1.9,9.48,7.82,10.4,10.77" /><g><path d="M13.25,60.42c2,1.08,4.5,1.08,7.67,1c12.8-0.34,47.35-2.52,67.83-3.5c3.5-0.17,6.52,0.61,8.67,1.17" /></g></g></g></g><g fill="none" stroke="#000" stroke-width="3" stroke-linecap="round" stroke-linejoin="round"><path d="M20.08,24.58c1.29,0.53,5.54,0.44,6.83,0.33c11.9-0.96,43.45-4.09,57.17-4.17c2.16-0.01,5.42,0.25,8.17,1.33" stroke-dasharray="72.526" stroke-dashoffset="72.526"><animate attributeName="stroke-dashoffset" values="72.526;72.526;0" dur="0.545s" fill="freeze" begin="0s;82fa.click" /></path><path d="M39.08,11.42C41,12.25,41.37,14.11,41.5,15c1.25,8.58,1.75,14.08,2.08,17.58" stroke-dasharray="22.241" stroke-dashoffset="22.241"><animate attributeName="stroke-dashoffset" values="22.241" fill="freeze" begin="82fa.click" /><animate attributeName="stroke-dashoffset" values="22.241;22.241;0" keyTimes="0;0.711;1" dur="0.767s" fill="freeze" begin="0s;82fa.click" /></path><path d="M66.75,9.58c1,1.17,1.54,3.16,1.33,4.67c-0.67,4.83-1.33,10.5-3.17,17.17" stroke-dasharray="22.458" stroke-dashoffset="22.458"><animate attributeName="stroke-dashoffset" values="22.458" fill="freeze" begin="82fa.click" /><animate attributeName="stroke-dashoffset" values="22.458;22.458;0" keyTimes="0;0.773;1" dur="0.992s" fill="freeze" begin="0s;82fa.click" /></path><path d="M36.42,36.75c1.12,0.79,1.8,2.95,1.5,5c-1.44,9.7-5.55,25.98-10.29,35.05c-1.45,2.77-0.43,4.05,3.58,4C46.65,80.6,73,83,85.92,91.92" stroke-dasharray="105.934" stroke-dashoffset="105.934"><animate attributeName="stroke-dashoffset" values="105.934" fill="freeze" begin="82fa.click" /><animate attributeName="stroke-dashoffset" values="105.934;105.934;0" keyTimes="0;0.555;1" dur="1.788s" fill="freeze" begin="0s;82fa.click" /></path><path d="M38.58,39.58c0.98-0.13,3.67,0.14,5.67,0c8.25-0.58,25.46-1.86,30.52-2.55c3.69-0.51,5.36,0.53,5.06,2.97c-1.12,9.14-5.96,42.91-12.75,53.25c-3.37,5.13-6.9,1.34-8.33,0.17" stroke-dasharray="108.494" stroke-dashoffset="108.494"><animate attributeName="stroke-dashoffset" values="108.494" fill="freeze" begin="82fa.click" /><animate attributeName="stroke-dashoffset" values="108.494;108.494;0" keyTimes="0;0.687;1" dur="2.604s" fill="freeze" begin="0s;82fa.click" /></path><path d="M50.61,44.66c3.05,1.52,7.88,6.23,8.64,8.59" stroke-dasharray="12.362" stroke-dashoffset="12.362"><animate attributeName="stroke-dashoffset" values="12.362" fill="freeze" begin="82fa.click" /><animate attributeName="stroke-dashoffset" values="12.362;12.362;0" keyTimes="0;0.913;1" dur="2.851s" fill="freeze" begin="0s;82fa.click" /></path><path d="M47.14,66.27c3.67,1.9,9.48,7.82,10.4,10.77" stroke-dasharray="15.189" stroke-dashoffset="15.189"><animate attributeName="stroke-dashoffset" values="15.189" fill="freeze" begin="82fa.click" /><animate attributeName="stroke-dashoffset" values="15.189;15.189;0" keyTimes="0;0.949;1" dur="3.003s" fill="freeze" begin="0s;82fa.click" /></path><path d="M13.25,60.42c2,1.08,4.5,1.08,7.67,1c12.8-0.34,47.35-2.52,67.83-3.5c3.5-0.17,6.52,0.61,8.67,1.17" stroke-dasharray="84.532" stroke-dashoffset="84.532"><animate attributeName="stroke-dashoffset" values="84.532" fill="freeze" begin="82fa.click" /><animate attributeName="stroke-dashoffset" values="84.532;84.532;0" keyTimes="0;0.825;1" dur="3.639s" fill="freeze" begin="0s;82fa.click" /></path></g></svg>