<svg xmlns="http://www.w3.org/2000/svg" viewBox="0 0 109 109" id="8340"><g fill="none" stroke="#666" stroke-width="6" stroke-linecap="round" stroke-linejoin="round"><g><g><path d="M16.83,20.83c1.29,0.53,4.92,0.92,8.33,0.83c11.94-0.29,44.13-3.3,57.83-4c3.25-0.17,6.5,0.08,9.17,0.67" /><path d="M36.33,11.5c1.17,0.75,2.39,2.68,2.5,3.5c1.17,8.5,1.36,12.42,1.83,15.17" /><path d="M67,9.83c1,0.92,1.05,2.36,0.83,3.67c-0.83,5-1.71,10.38-3.33,15.33" /></g><g><g><g><path d="M33.6,28.67c0.05,0.59,0.1,1.53-0.1,2.38c-1.17,5.02-7.85,16.05-17.01,22.8" /></g><path d="M33.83,36.17c1.16,0.68,4.14,1.95,6,1.5c1.86-0.45,36.53-4.11,41.17-4.33c4.64-0.23,6.66,1.81,6.35,6.6c-0.35,5.4-1.98,38.65-7.85,53.24c-2.75,6.83-5.93,0.49-8.67-2.33" /></g><g><path d="M32,51.33c1,1.42,1.67,3.53,1.67,4.5c0,0.96,0.69,27.7,1.17,28.67" /><path d="M33.5,53.17c1.96-0.13,22.24-2.83,24.04-2.98c1.49-0.13,2.45,1.4,2.34,2.15c-0.23,1.52-1.54,29.74-1.54,30.5" /><path d="M34.83,66.5c2.43,0,20.07-1.39,22.81-1.39" /><path d="M36.13,80.84c4.73-0.48,14.99-0.92,20.87-1.34" /></g></g></g></g><g fill="none" stroke="#000" stroke-width="3" stroke-linecap="round" stroke-linejoin="round"><path d="M16.83,20.83c1.29,0.53,4.92,0.92,8.33,0.83c11.94-0.29,44.13-3.3,57.83-4c3.25-0.17,6.5,0.08,9.17,0.67" stroke-dasharray="75.601" stroke-dashoffset="75.601"><animate attributeName="stroke-dashoffset" values="75.601;75.601;0" dur="0.568s" fill="freeze" begin="0s;8340.click" /></path><path d="M36.33,11.5c1.17,0.75,2.39,2.68,2.5,3.5c1.17,8.5,1.36,12.42,1.83,15.17" stroke-dasharray="19.665" stroke-dashoffset="19.665"><animate attributeName="stroke-dashoffset" values="19.665" fill="freeze" begin="8340.click" /><animate attributeName="stroke-dashoffset" values="19.665;19.665;0" keyTimes="0;0.742;1" dur="0.765s" fill="freeze" begin="0s;8340.click" /></path><path d="M67,9.83c1,0.92,1.05,2.36,0.83,3.67c-0.83,5-1.71,10.38-3.33,15.33" stroke-dasharray="19.632" stroke-dashoffset="19.632"><animate attributeName="stroke-dashoffset" values="19.632" fill="freeze" begin="8340.click" /><animate attributeName="stroke-dashoffset" values="19.632;19.632;0" keyTimes="0;0.796;1" dur="0.961s" fill="freeze" begin="0s;8340.click" /></path><path d="M33.6,28.67c0.05,0.59,0.1,1.53-0.1,2.38c-1.17,5.02-7.85,16.05-17.01,22.8" stroke-dasharray="31.26" stroke-dashoffset="31.26"><animate attributeName="stroke-dashoffset" values="31.26" fill="freeze" begin="8340.click" /><animate attributeName="stroke-dashoffset" values="31.26;31.26;0" keyTimes="0;0.754;1" dur="1.274s" fill="freeze" begin="0s;8340.click" /></path><path d="M33.83,36.17c1.16,0.68,4.14,1.95,6,1.5c1.86-0.45,36.53-4.11,41.17-4.33c4.64-0.23,6.66,1.81,6.35,6.6c-0.35,5.4-1.98,38.65-7.85,53.24c-2.75,6.83-5.93,0.49-8.67-2.33" stroke-dasharray="125.111" stroke-dashoffset="125.111"><animate attributeName="stroke-dashoffset" values="125.111" fill="freeze" begin="8340.click" /><animate attributeName="stroke-dashoffset" values="125.111;125.111;0" keyTimes="0;0.575;1" dur="2.215s" fill="freeze" begin="0s;8340.click" /></path><path d="M32,51.33c1,1.42,1.67,3.53,1.67,4.5c0,0.96,0.69,27.7,1.17,28.67" stroke-dasharray="33.558" stroke-dashoffset="33.558"><animate attributeName="stroke-dashoffset" values="33.558" fill="freeze" begin="8340.click" /><animate attributeName="stroke-dashoffset" values="33.558;33.558;0" keyTimes="0;0.868;1" dur="2.551s" fill="freeze" begin="0s;8340.click" /></path><path d="M33.5,53.17c1.96-0.13,22.24-2.83,24.04-2.98c1.49-0.13,2.45,1.4,2.34,2.15c-0.23,1.52-1.54,29.74-1.54,30.5" stroke-dasharray="58.317" stroke-dashoffset="58.317"><animate attributeName="stroke-dashoffset" values="58.317" fill="freeze" begin="8340.click" /><animate attributeName="stroke-dashoffset" values="58.317;58.317;0" keyTimes="0;0.814;1" dur="3.134s" fill="freeze" begin="0s;8340.click" /></path><path d="M34.83,66.5c2.43,0,20.07-1.39,22.81-1.39" stroke-dasharray="22.855" stroke-dashoffset="22.855"><animate attributeName="stroke-dashoffset" values="22.855" fill="freeze" begin="8340.click" /><animate attributeName="stroke-dashoffset" values="22.855;22.855;0" keyTimes="0;0.932;1" dur="3.363s" fill="freeze" begin="0s;8340.click" /></path><path d="M36.13,80.84c4.73-0.48,14.99-0.92,20.87-1.34" stroke-dasharray="20.915" stroke-dashoffset="20.915"><animate attributeName="stroke-dashoffset" values="20.915" fill="freeze" begin="8340.click" /><animate attributeName="stroke-dashoffset" values="20.915;20.915;0" keyTimes="0;0.941;1" dur="3.572s" fill="freeze" begin="0s;8340.click" /></path></g></svg>