<svg xmlns="http://www.w3.org/2000/svg" viewBox="0 0 109 109" id="8352"><g fill="none" stroke="#666" stroke-width="6" stroke-linecap="round" stroke-linejoin="round"><g><g><path d="M20.75,27.77c4,0.73,7.33,0.32,10.74-0.09c15.01-1.81,32.16-3.25,45.01-3.96c3.59-0.2,7.22-0.06,10.75,0.8" /><path d="M38.75,16c1,1,1.38,2.12,1.5,3.5c0.77,8.48,1,12,1.5,18.5" /><path d="M70.75,11.5c0.5,1.12,0.52,2.5,0.25,4C70,21,68.5,28,67,35" /></g><g p4:phon="亡+川" xmlns:p4="http://kanjivg.tagaini.net"><g><g><path d="M52.82,34.6c0.98,0.98,1.19,2.27,1.19,3.6c0,1.43-0.01,3.43-0.01,4.68" /><g><path d="M24.22,46.34c3.41,0.41,5.54,0.39,8.52,0c12.01-1.59,29-3.44,40-4.15c2.68-0.17,5.75-0.31,8.28,0.08" /></g></g><g><path d="M36.01,47.5c0.67,0.67,0.76,1.6,0.76,2.54c0,0.83,0,0.96,0,1.86c0,7.47,1.85,7.88,18.73,7.88c12,0,16.87-0.66,19.55-1.31" /></g></g><g><path d="M34.1,72.18c0.4,0.82,0.47,2.03,0.26,2.86C32.38,83,28.25,92,16.14,98.4" /><path d="M52.75,68.88c0.75,0.75,1.16,1.99,1.16,3.65c0,0.54,0.11,10.7,0.04,17.58c-0.02,2.41-0.05,4.47-0.07,5.63" /><path d="M73.1,66.62c0.95,0.95,1.28,2.38,1.28,3.99c0,6.39,0,10.69,0,15.89c0,7.88,1.17,9.29,9.69,9.29c9.06,0,10.18-1.04,10.18-7.94" /></g></g></g></g><g fill="none" stroke="#000" stroke-width="3" stroke-linecap="round" stroke-linejoin="round"><path d="M20.75,27.77c4,0.73,7.33,0.32,10.74-0.09c15.01-1.81,32.16-3.25,45.01-3.96c3.59-0.2,7.22-0.06,10.75,0.8" stroke-dasharray="66.799" stroke-dashoffset="66.799"><animate attributeName="stroke-dashoffset" values="66.799;66.799;0" dur="0.502s" fill="freeze" begin="0s;8352.click" /></path><path d="M38.75,16c1,1,1.38,2.12,1.5,3.5c0.77,8.48,1,12,1.5,18.5" stroke-dasharray="22.458" stroke-dashoffset="22.458"><animate attributeName="stroke-dashoffset" values="22.458" fill="freeze" begin="8352.click" /><animate attributeName="stroke-dashoffset" values="22.458;22.458;0" keyTimes="0;0.691;1" dur="0.727s" fill="freeze" begin="0s;8352.click" /></path><path d="M70.75,11.5c0.5,1.12,0.52,2.5,0.25,4C70,21,68.5,28,67,35" stroke-dasharray="23.975" stroke-dashoffset="23.975"><animate attributeName="stroke-dashoffset" values="23.975" fill="freeze" begin="8352.click" /><animate attributeName="stroke-dashoffset" values="23.975;23.975;0" keyTimes="0;0.752;1" dur="0.967s" fill="freeze" begin="0s;8352.click" /></path><path d="M52.82,34.6c0.98,0.98,1.19,2.27,1.19,3.6c0,1.43-0.01,3.43-0.01,4.68" stroke-dasharray="8.58" stroke-dashoffset="8.58"><animate attributeName="stroke-dashoffset" values="8.58" fill="freeze" begin="8352.click" /><animate attributeName="stroke-dashoffset" values="8.58;8.58;0" keyTimes="0;0.849;1" dur="1.139s" fill="freeze" begin="0s;8352.click" /></path><path d="M24.22,46.34c3.41,0.41,5.54,0.39,8.52,0c12.01-1.59,29-3.44,40-4.15c2.68-0.17,5.75-0.31,8.28,0.08" stroke-dasharray="57.064" stroke-dashoffset="57.064"><animate attributeName="stroke-dashoffset" values="57.064" fill="freeze" begin="8352.click" /><animate attributeName="stroke-dashoffset" values="57.064;57.064;0" keyTimes="0;0.666;1" dur="1.71s" fill="freeze" begin="0s;8352.click" /></path><path d="M36.01,47.5c0.67,0.67,0.76,1.6,0.76,2.54c0,0.83,0,0.96,0,1.86c0,7.47,1.85,7.88,18.73,7.88c12,0,16.87-0.66,19.55-1.31" stroke-dasharray="47.99" stroke-dashoffset="47.99"><animate attributeName="stroke-dashoffset" values="47.99" fill="freeze" begin="8352.click" /><animate attributeName="stroke-dashoffset" values="47.99;47.99;0" keyTimes="0;0.781;1" dur="2.19s" fill="freeze" begin="0s;8352.click" /></path><path d="M34.1,72.18c0.4,0.82,0.47,2.03,0.26,2.86C32.38,83,28.25,92,16.14,98.4" stroke-dasharray="33.554" stroke-dashoffset="33.554"><animate attributeName="stroke-dashoffset" values="33.554" fill="freeze" begin="8352.click" /><animate attributeName="stroke-dashoffset" values="33.554;33.554;0" keyTimes="0;0.867;1" dur="2.526s" fill="freeze" begin="0s;8352.click" /></path><path d="M52.75,68.88c0.75,0.75,1.16,1.99,1.16,3.65c0,0.54,0.11,10.7,0.04,17.58c-0.02,2.41-0.05,4.47-0.07,5.63" stroke-dasharray="27.139" stroke-dashoffset="27.139"><animate attributeName="stroke-dashoffset" values="27.139" fill="freeze" begin="8352.click" /><animate attributeName="stroke-dashoffset" values="27.139;27.139;0" keyTimes="0;0.903;1" dur="2.797s" fill="freeze" begin="0s;8352.click" /></path><path d="M73.1,66.62c0.95,0.95,1.28,2.38,1.28,3.99c0,6.39,0,10.69,0,15.89c0,7.88,1.17,9.29,9.69,9.29c9.06,0,10.18-1.04,10.18-7.94" stroke-dasharray="52.289" stroke-dashoffset="52.289"><animate attributeName="stroke-dashoffset" values="52.289" fill="freeze" begin="8352.click" /><animate attributeName="stroke-dashoffset" values="52.289;52.289;0" keyTimes="0;0.842;1" dur="3.32s" fill="freeze" begin="0s;8352.click" /></path></g></svg>