<svg xmlns="http://www.w3.org/2000/svg" viewBox="0 0 109 109" id="8377"><g fill="none" stroke="#666" stroke-width="6" stroke-linecap="round" stroke-linejoin="round"><g><g><path d="M18.5,25.52c2.38,0.53,5.17,0.75,7.55,0.53c17.7-1.67,35.45-3.3,56.99-4.03c3.97-0.14,6.36,0.25,8.34,0.51" /><path d="M34.38,12.25c1.25,0.75,2.12,1.84,2.33,2.77c1.89,8.68,3.26,16.32,3.8,19.48" /><path d="M70.58,10.75c0.54,0.88,0.75,1.9,0.51,3.25c-1.41,7.89-2.05,11.83-3.59,19.25" /></g><g p4:phon="何" xmlns:p4="http://kanjivg.tagaini.net"><g><path d="M31.74,40.07c0.21,1.52-0.17,2.76-0.72,4.09c-3.55,8.57-8.66,16.8-18.35,26.91" /><path d="M26.5,57.81c0.88,0.69,1.28,2.49,1.28,3.44c0.03,8.04-0.17,21.13-0.24,30.5c-0.01,1.91-0.02,3.53-0.02,4.76" /></g><g><g><g><path d="M41.16,44.02c1.87,0.33,5.32,0.52,7.16,0.33c14.93-1.6,25.43-3.1,41.52-3.7c3.09-0.12,4.98,0.16,6.54,0.32" /></g></g><g><path d="M42.72,57.36c0.78,0.74,1.18,1.65,1.23,2.75c0.73,3.43,1.44,9.46,2.02,14.12c0.15,1.23,0.3,1.64,0.43,2.69" /><path d="M44.88,59.38c7.21-1.27,15.2-2.84,18.87-3.26c1.55-0.18,2.48,1.05,2.26,2.08c-0.73,3.38-1.75,8.27-2.8,12.85" /><path d="M46.96,74.21c4.01-0.39,9.59-1.27,15.07-1.88c0.87-0.1,1.84-0.2,2.6-0.04" /></g><g><g><path d="M78.34,44.54c0.92,0.76,1.59,1.64,1.66,3.77c0.3,10.21,0.06,40.63,0.06,44.11c0,7.45-4.55,3.08-7.63-0.08" /></g></g></g></g></g></g><g fill="none" stroke="#000" stroke-width="3" stroke-linecap="round" stroke-linejoin="round"><path d="M18.5,25.52c2.38,0.53,5.17,0.75,7.55,0.53c17.7-1.67,35.45-3.3,56.99-4.03c3.97-0.14,6.36,0.25,8.34,0.51" stroke-dasharray="73.108" stroke-dashoffset="73.108"><animate attributeName="stroke-dashoffset" values="73.108;73.108;0" dur="0.55s" fill="freeze" begin="0s;8377.click" /></path><path d="M34.38,12.25c1.25,0.75,2.12,1.84,2.33,2.77c1.89,8.68,3.26,16.32,3.8,19.48" stroke-dasharray="23.558" stroke-dashoffset="23.558"><animate attributeName="stroke-dashoffset" values="23.558" fill="freeze" begin="8377.click" /><animate attributeName="stroke-dashoffset" values="23.558;23.558;0" keyTimes="0;0.7;1" dur="0.786s" fill="freeze" begin="0s;8377.click" /></path><path d="M70.58,10.75c0.54,0.88,0.75,1.9,0.51,3.25c-1.41,7.89-2.05,11.83-3.59,19.25" stroke-dasharray="22.953" stroke-dashoffset="22.953"><animate attributeName="stroke-dashoffset" values="22.953" fill="freeze" begin="8377.click" /><animate attributeName="stroke-dashoffset" values="22.953;22.953;0" keyTimes="0;0.774;1" dur="1.016s" fill="freeze" begin="0s;8377.click" /></path><path d="M31.74,40.07c0.21,1.52-0.17,2.76-0.72,4.09c-3.55,8.57-8.66,16.8-18.35,26.91" stroke-dasharray="36.981" stroke-dashoffset="36.981"><animate attributeName="stroke-dashoffset" values="36.981" fill="freeze" begin="8377.click" /><animate attributeName="stroke-dashoffset" values="36.981;36.981;0" keyTimes="0;0.733;1" dur="1.386s" fill="freeze" begin="0s;8377.click" /></path><path d="M26.5,57.81c0.88,0.69,1.28,2.49,1.28,3.44c0.03,8.04-0.17,21.13-0.24,30.5c-0.01,1.91-0.02,3.53-0.02,4.76" stroke-dasharray="39.029" stroke-dashoffset="39.029"><animate attributeName="stroke-dashoffset" values="39.029" fill="freeze" begin="8377.click" /><animate attributeName="stroke-dashoffset" values="39.029;39.029;0" keyTimes="0;0.78;1" dur="1.776s" fill="freeze" begin="0s;8377.click" /></path><path d="M41.16,44.02c1.87,0.33,5.32,0.52,7.16,0.33c14.93-1.6,25.43-3.1,41.52-3.7c3.09-0.12,4.98,0.16,6.54,0.32" stroke-dasharray="55.436" stroke-dashoffset="55.436"><animate attributeName="stroke-dashoffset" values="55.436" fill="freeze" begin="8377.click" /><animate attributeName="stroke-dashoffset" values="55.436;55.436;0" keyTimes="0;0.762;1" dur="2.33s" fill="freeze" begin="0s;8377.click" /></path><path d="M42.72,57.36c0.78,0.74,1.18,1.65,1.23,2.75c0.73,3.43,1.44,9.46,2.02,14.12c0.15,1.23,0.3,1.64,0.43,2.69" stroke-dasharray="20.086" stroke-dashoffset="20.086"><animate attributeName="stroke-dashoffset" values="20.086" fill="freeze" begin="8377.click" /><animate attributeName="stroke-dashoffset" values="20.086;20.086;0" keyTimes="0;0.921;1" dur="2.531s" fill="freeze" begin="0s;8377.click" /></path><path d="M44.88,59.38c7.21-1.27,15.2-2.84,18.87-3.26c1.55-0.18,2.48,1.05,2.26,2.08c-0.73,3.38-1.75,8.27-2.8,12.85" stroke-dasharray="35.889" stroke-dashoffset="35.889"><animate attributeName="stroke-dashoffset" values="35.889" fill="freeze" begin="8377.click" /><animate attributeName="stroke-dashoffset" values="35.889;35.889;0" keyTimes="0;0.876;1" dur="2.89s" fill="freeze" begin="0s;8377.click" /></path><path d="M46.96,74.21c4.01-0.39,9.59-1.27,15.07-1.88c0.87-0.1,1.84-0.2,2.6-0.04" stroke-dasharray="17.799" stroke-dashoffset="17.799"><animate attributeName="stroke-dashoffset" values="17.799" fill="freeze" begin="8377.click" /><animate attributeName="stroke-dashoffset" values="17.799;17.799;0" keyTimes="0;0.942;1" dur="3.068s" fill="freeze" begin="0s;8377.click" /></path><path d="M78.34,44.54c0.92,0.76,1.59,1.64,1.66,3.77c0.3,10.21,0.06,40.63,0.06,44.11c0,7.45-4.55,3.08-7.63-0.08" stroke-dasharray="60.622" stroke-dashoffset="60.622"><animate attributeName="stroke-dashoffset" values="60.622" fill="freeze" begin="8377.click" /><animate attributeName="stroke-dashoffset" values="60.622;60.622;0" keyTimes="0;0.871;1" dur="3.524s" fill="freeze" begin="0s;8377.click" /></path></g></svg>