<svg xmlns="http://www.w3.org/2000/svg" viewBox="0 0 109 109" id="844e"><g fill="none" stroke="#666" stroke-width="6" stroke-linecap="round" stroke-linejoin="round"><g><g><path d="M17,21.27c1.42,0.53,3.07,0.63,4.5,0.53c13.06-0.96,51.47-4.46,66.53-4.53c2.37-0.01,3.79,0.25,4.97,0.51" /><path d="M36.75,11.5c1.75,1.43,2.31,1.87,2.5,2.75C41,22.5,40.5,26.5,41,29.5" /><path d="M67.75,9.25c1.12,1,1.87,2.52,1.5,4c-1.12,4.5-1.38,8-3,13.75" /></g><g><g><path d="M34.59,32.84c0.05,0.45,0.25,1.25-0.1,1.79c-2.5,3.88-10.03,13.22-17.37,17.17" /><g><path d="M35.6,47.92c0.06,0.63,0.31,1.77-0.13,2.54C32.39,55.96,23.89,66.97,13,74.82" /><path d="M27.72,63.89c0.36,0.2,1.07,1.26,1.15,1.65c0.07,0.39,0,29.98-0.07,32.42" /></g></g><g><g><path d="M47.13,39.72c2.08,0.27,2.08,0.56,3.99,0.38c8.73-0.8,21.68-2.78,29.99-3.16c2.7-0.12,4.05,0.92,3.65,2.82c-0.62,3-2.87,10.82-4.32,19.26" /><path d="M44.28,51.08c1.87,0.19,3.33,0.17,5.4,0c18.07-1.5,25.76-2.98,40.1-3.54c2.29-0.09,4.15-0.01,5.19,0.18" /><path d="M46.96,61.47c1.04,0.19,2.91,0.29,4.16,0.19c11.43-0.94,17.56-1.38,27.95-2.32c1.65-0.15,2.7,0,3.95,0.19" /></g><path d="M43.19,71.73c0.95,0.29,2.69,0.32,3.65,0.29c9.9-0.33,26.19-2.16,35.84-2.79c1.58-0.1,2.54,0.14,3.33,0.28" /><path d="M38.72,83.09c1.26,0.41,3.58,0.53,4.84,0.41c14.79-1.52,36.38-3.7,47.86-4.04c2.1-0.06,3.36,0.19,4.42,0.4" /><g><path d="M62.55,31.5c1.01,0.38,1.61,1.69,1.82,2.44c0.2,0.75,0,59.37-0.2,64.06" /></g></g></g></g></g><g fill="none" stroke="#000" stroke-width="3" stroke-linecap="round" stroke-linejoin="round"><path d="M17,21.27c1.42,0.53,3.07,0.63,4.5,0.53c13.06-0.96,51.47-4.46,66.53-4.53c2.37-0.01,3.79,0.25,4.97,0.51" stroke-dasharray="76.267" stroke-dashoffset="76.267"><animate attributeName="stroke-dashoffset" values="76.267;76.267;0" dur="0.573s" fill="freeze" begin="0s;844e.click" /></path><path d="M36.75,11.5c1.75,1.43,2.31,1.87,2.5,2.75C41,22.5,40.5,26.5,41,29.5" stroke-dasharray="19.159" stroke-dashoffset="19.159"><animate attributeName="stroke-dashoffset" values="19.159" fill="freeze" begin="844e.click" /><animate attributeName="stroke-dashoffset" values="19.159;19.159;0" keyTimes="0;0.749;1" dur="0.765s" fill="freeze" begin="0s;844e.click" /></path><path d="M67.75,9.25c1.12,1,1.87,2.52,1.5,4c-1.12,4.5-1.38,8-3,13.75" stroke-dasharray="18.566" stroke-dashoffset="18.566"><animate attributeName="stroke-dashoffset" values="18.566" fill="freeze" begin="844e.click" /><animate attributeName="stroke-dashoffset" values="18.566;18.566;0" keyTimes="0;0.804;1" dur="0.951s" fill="freeze" begin="0s;844e.click" /></path><path d="M34.59,32.84c0.05,0.45,0.25,1.25-0.1,1.79c-2.5,3.88-10.03,13.22-17.37,17.17" stroke-dasharray="26.456" stroke-dashoffset="26.456"><animate attributeName="stroke-dashoffset" values="26.456" fill="freeze" begin="844e.click" /><animate attributeName="stroke-dashoffset" values="26.456;26.456;0" keyTimes="0;0.782;1" dur="1.216s" fill="freeze" begin="0s;844e.click" /></path><path d="M35.6,47.92c0.06,0.63,0.31,1.77-0.13,2.54C32.39,55.96,23.89,66.97,13,74.82" stroke-dasharray="35.941" stroke-dashoffset="35.941"><animate attributeName="stroke-dashoffset" values="35.941" fill="freeze" begin="844e.click" /><animate attributeName="stroke-dashoffset" values="35.941;35.941;0" keyTimes="0;0.772;1" dur="1.575s" fill="freeze" begin="0s;844e.click" /></path><path d="M27.72,63.89c0.36,0.2,1.07,1.26,1.15,1.65c0.07,0.39,0,29.98-0.07,32.42" stroke-dasharray="34.46" stroke-dashoffset="34.46"><animate attributeName="stroke-dashoffset" values="34.46" fill="freeze" begin="844e.click" /><animate attributeName="stroke-dashoffset" values="34.46;34.46;0" keyTimes="0;0.82;1" dur="1.92s" fill="freeze" begin="0s;844e.click" /></path><path d="M47.13,39.72c2.08,0.27,2.08,0.56,3.99,0.38c8.73-0.8,21.68-2.78,29.99-3.16c2.7-0.12,4.05,0.92,3.65,2.82c-0.62,3-2.87,10.82-4.32,19.26" stroke-dasharray="59.453" stroke-dashoffset="59.453"><animate attributeName="stroke-dashoffset" values="59.453" fill="freeze" begin="844e.click" /><animate attributeName="stroke-dashoffset" values="59.453;59.453;0" keyTimes="0;0.763;1" dur="2.515s" fill="freeze" begin="0s;844e.click" /></path><path d="M44.28,51.08c1.87,0.19,3.33,0.17,5.4,0c18.07-1.5,25.76-2.98,40.1-3.54c2.29-0.09,4.15-0.01,5.19,0.18" stroke-dasharray="50.874" stroke-dashoffset="50.874"><animate attributeName="stroke-dashoffset" values="50.874" fill="freeze" begin="844e.click" /><animate attributeName="stroke-dashoffset" values="50.874;50.874;0" keyTimes="0;0.832;1" dur="3.024s" fill="freeze" begin="0s;844e.click" /></path><path d="M46.96,61.47c1.04,0.19,2.91,0.29,4.16,0.19c11.43-0.94,17.56-1.38,27.95-2.32c1.65-0.15,2.7,0,3.95,0.19" stroke-dasharray="36.187" stroke-dashoffset="36.187"><animate attributeName="stroke-dashoffset" values="36.187" fill="freeze" begin="844e.click" /><animate attributeName="stroke-dashoffset" values="36.187;36.187;0" keyTimes="0;0.893;1" dur="3.386s" fill="freeze" begin="0s;844e.click" /></path><path d="M43.19,71.73c0.95,0.29,2.69,0.32,3.65,0.29c9.9-0.33,26.19-2.16,35.84-2.79c1.58-0.1,2.54,0.14,3.33,0.28" stroke-dasharray="42.979" stroke-dashoffset="42.979"><animate attributeName="stroke-dashoffset" values="42.979" fill="freeze" begin="844e.click" /><animate attributeName="stroke-dashoffset" values="42.979;42.979;0" keyTimes="0;0.887;1" dur="3.816s" fill="freeze" begin="0s;844e.click" /></path><path d="M38.72,83.09c1.26,0.41,3.58,0.53,4.84,0.41c14.79-1.52,36.38-3.7,47.86-4.04c2.1-0.06,3.36,0.19,4.42,0.4" stroke-dasharray="57.37" stroke-dashoffset="57.37"><animate attributeName="stroke-dashoffset" values="57.37" fill="freeze" begin="844e.click" /><animate attributeName="stroke-dashoffset" values="57.37;57.37;0" keyTimes="0;0.869;1" dur="4.39s" fill="freeze" begin="0s;844e.click" /></path><path d="M62.55,31.5c1.01,0.38,1.61,1.69,1.82,2.44c0.2,0.75,0,59.37-0.2,64.06" stroke-dasharray="67.209" stroke-dashoffset="67.209"><animate attributeName="stroke-dashoffset" values="67.209" fill="freeze" begin="844e.click" /><animate attributeName="stroke-dashoffset" values="67.209;67.209;0" keyTimes="0;0.897;1" dur="4.895s" fill="freeze" begin="0s;844e.click" /></path></g></svg>