<svg xmlns="http://www.w3.org/2000/svg" viewBox="0 0 109 109" id="8457"><g fill="none" stroke="#666" stroke-width="6" stroke-linecap="round" stroke-linejoin="round"><g><g><path d="M22.11,24.07c2.64,0.43,5.23,0.42,7.39,0.15c13.37-1.71,31.87-4.09,47.12-5.47c2.75-0.25,5.56-0.34,8.26,0.32" /><path d="M37.29,13.43c0.82,0.83,1.45,1.81,1.59,2.55c0.87,4.64,2.72,12.76,3.14,15.27" /><path d="M68.71,8.5c0.34,1,0.52,2.25,0.15,3.48c-2.2,7.24-2.94,10.36-5.34,17.17" /></g><g p4:phon="者" xmlns:p4="http://kanjivg.tagaini.net"><g p4:partial><g><path d="M34.46,40.23c1.45,0.56,3.88,0.49,5.42,0.31c5.43-0.62,14.59-2.17,21.87-3.02c1.33-0.16,2.79-0.43,4.12-0.13" /><path d="M51,28.87c0.76,0.76,1.24,1.86,1.24,3.52c0,3.73-0.11,14.12-0.11,18.86" /><path d="M15.25,55.43c3.11,0.76,6.47,0.58,9.65,0.18c13.05-1.62,48.07-6.06,61.36-7.09c3.01-0.23,5.92-0.3,8.88,0.41" /></g><path d="M78.6,28.48c0.17,1.23-0.01,2.58-1.09,4.19C63.5,53.5,45.25,70.5,14.45,82.26" /></g><g><path d="M41.75,64.66c0.79,0.79,1.14,1.95,1.14,3.01c0,2.67,0,17.01,0,26.7c0,1.94,0,3.69,0,5.13" /><path d="M43.63,65.8c2.51-0.13,28.41-2.97,30.7-3.13c1.91-0.13,3.04,1.16,3.04,2.71c0,2.95,0.08,17.5,0.08,27.12c0,2.83,0.03,4.75,0.03,4.94" /><path d="M44.08,80.43c7.42-0.55,27.42-1.8,32.12-1.85" /><path d="M44.17,96.77c6.92-0.57,23.39-1.35,32.02-1.83" /></g></g></g></g><g fill="none" stroke="#000" stroke-width="3" stroke-linecap="round" stroke-linejoin="round"><path d="M22.11,24.07c2.64,0.43,5.23,0.42,7.39,0.15c13.37-1.71,31.87-4.09,47.12-5.47c2.75-0.25,5.56-0.34,8.26,0.32" stroke-dasharray="63.161" stroke-dashoffset="63.161"><animate attributeName="stroke-dashoffset" values="63.161;63.161;0" dur="0.475s" fill="freeze" begin="0s;8457.click" /></path><path d="M37.29,13.43c0.82,0.83,1.45,1.81,1.59,2.55c0.87,4.64,2.72,12.76,3.14,15.27" stroke-dasharray="18.633" stroke-dashoffset="18.633"><animate attributeName="stroke-dashoffset" values="18.633" fill="freeze" begin="8457.click" /><animate attributeName="stroke-dashoffset" values="18.633;18.633;0" keyTimes="0;0.719;1" dur="0.661s" fill="freeze" begin="0s;8457.click" /></path><path d="M68.71,8.5c0.34,1,0.52,2.25,0.15,3.48c-2.2,7.24-2.94,10.36-5.34,17.17" stroke-dasharray="21.524" stroke-dashoffset="21.524"><animate attributeName="stroke-dashoffset" values="21.524" fill="freeze" begin="8457.click" /><animate attributeName="stroke-dashoffset" values="21.524;21.524;0" keyTimes="0;0.755;1" dur="0.876s" fill="freeze" begin="0s;8457.click" /></path><path d="M34.46,40.23c1.45,0.56,3.88,0.49,5.42,0.31c5.43-0.62,14.59-2.17,21.87-3.02c1.33-0.16,2.79-0.43,4.12-0.13" stroke-dasharray="31.695" stroke-dashoffset="31.695"><animate attributeName="stroke-dashoffset" values="31.695" fill="freeze" begin="8457.click" /><animate attributeName="stroke-dashoffset" values="31.695;31.695;0" keyTimes="0;0.734;1" dur="1.193s" fill="freeze" begin="0s;8457.click" /></path><path d="M51,28.87c0.76,0.76,1.24,1.86,1.24,3.52c0,3.73-0.11,14.12-0.11,18.86" stroke-dasharray="22.696" stroke-dashoffset="22.696"><animate attributeName="stroke-dashoffset" values="22.696" fill="freeze" begin="8457.click" /><animate attributeName="stroke-dashoffset" values="22.696;22.696;0" keyTimes="0;0.84;1" dur="1.42s" fill="freeze" begin="0s;8457.click" /></path><path d="M15.25,55.43c3.11,0.76,6.47,0.58,9.65,0.18c13.05-1.62,48.07-6.06,61.36-7.09c3.01-0.23,5.92-0.3,8.88,0.41" stroke-dasharray="80.406" stroke-dashoffset="80.406"><animate attributeName="stroke-dashoffset" values="80.406" fill="freeze" begin="8457.click" /><animate attributeName="stroke-dashoffset" values="80.406;80.406;0" keyTimes="0;0.701;1" dur="2.025s" fill="freeze" begin="0s;8457.click" /></path><path d="M78.6,28.48c0.17,1.23-0.01,2.58-1.09,4.19C63.5,53.5,45.25,70.5,14.45,82.26" stroke-dasharray="86.061" stroke-dashoffset="86.061"><animate attributeName="stroke-dashoffset" values="86.061" fill="freeze" begin="8457.click" /><animate attributeName="stroke-dashoffset" values="86.061;86.061;0" keyTimes="0;0.758;1" dur="2.672s" fill="freeze" begin="0s;8457.click" /></path><path d="M41.75,64.66c0.79,0.79,1.14,1.95,1.14,3.01c0,2.67,0,17.01,0,26.7c0,1.94,0,3.69,0,5.13" stroke-dasharray="35.131" stroke-dashoffset="35.131"><animate attributeName="stroke-dashoffset" values="35.131" fill="freeze" begin="8457.click" /><animate attributeName="stroke-dashoffset" values="35.131;35.131;0" keyTimes="0;0.884;1" dur="3.023s" fill="freeze" begin="0s;8457.click" /></path><path d="M43.63,65.8c2.51-0.13,28.41-2.97,30.7-3.13c1.91-0.13,3.04,1.16,3.04,2.71c0,2.95,0.08,17.5,0.08,27.12c0,2.83,0.03,4.75,0.03,4.94" stroke-dasharray="67.544" stroke-dashoffset="67.544"><animate attributeName="stroke-dashoffset" values="67.544" fill="freeze" begin="8457.click" /><animate attributeName="stroke-dashoffset" values="67.544;67.544;0" keyTimes="0;0.856;1" dur="3.531s" fill="freeze" begin="0s;8457.click" /></path><path d="M44.08,80.43c7.42-0.55,27.42-1.8,32.12-1.85" stroke-dasharray="32.176" stroke-dashoffset="32.176"><animate attributeName="stroke-dashoffset" values="32.176" fill="freeze" begin="8457.click" /><animate attributeName="stroke-dashoffset" values="32.176;32.176;0" keyTimes="0;0.916;1" dur="3.853s" fill="freeze" begin="0s;8457.click" /></path><path d="M44.17,96.77c6.92-0.57,23.39-1.35,32.02-1.83" stroke-dasharray="32.074" stroke-dashoffset="32.074"><animate attributeName="stroke-dashoffset" values="32.074" fill="freeze" begin="8457.click" /><animate attributeName="stroke-dashoffset" values="32.074;32.074;0" keyTimes="0;0.923;1" dur="4.174s" fill="freeze" begin="0s;8457.click" /></path></g></svg>