<svg xmlns="http://www.w3.org/2000/svg" viewBox="0 0 109 109" id="8484"><g fill="none" stroke="#666" stroke-width="6" stroke-linecap="round" stroke-linejoin="round"><g><g><path d="M17.83,20.5c1.29,0.53,6.7,0.94,8,0.83c11.9-0.96,46.67-3.5,60.39-3.57c2.16-0.01,5.54,0.81,6.62,1.07" /><path d="M38.5,10.5c1,0.5,2.1,1.85,2.17,2.67c0.67,7.83,1,13.67,1,16.33" /><path d="M67,9.17c1.25,1.58,1.4,2.12,1,3.5c-1.17,4-2.17,9-3.92,15.83" /></g><g><g><path d="M21,32.66c0,3.44-3.44,12.9-5,15.19" /><path d="M21.41,35.96c9.93-0.86,55.46-3.51,62.59-3.8c14.75,0,5.11,7.7,2.33,9.33" /></g><g><g><g><g><path d="M24.5,46.67c1.5,0.83,3.8,1.15,4.17,1.17C33,48,41.14,46.56,46.17,46.17c0.6-0.05,3.2,0.56,3.5,0.67" /><path d="M15.83,60.17c0.67,0.32,4.5,1.22,5.17,1.17c6.97-0.54,14.83-1.83,27.17-2.33c1.12-0.04,4.94,0.17,5.5,0.33" /></g><g><g><path d="M29.58,63.28c0.55,0.82,0.75,2.07,0.67,3.25C29.5,78.5,24.73,90.76,14.17,97.67" /></g><path d="M42.28,61.73c0.71,1.51,1.28,3.3,1.32,5.63c0.11,6.22-0.26,11.38-0.26,18.94c0,10.45,1.54,11.35,24.35,11.35c23.81,0,25.98-1.4,25.98-12.65" /></g></g><g><path d="M56.17,54.17c0.63,0.31,3.69,0.7,4.33,0.67c7-0.33,19.33-1.53,27-2c1.05-0.06,5.14,0.18,5.67,0.33" /><path d="M76.83,39.5c0.05,0.27,1.8,2.22,1.8,3.93c0,11.47-0.17,37.99-0.17,40.78c0,6.77-5.89,0.82-7.3-0.04" /><path d="M60.2,64.13c2.47,1.89,6.37,7.79,6.99,10.74" /></g></g></g></g></g></g><g fill="none" stroke="#000" stroke-width="3" stroke-linecap="round" stroke-linejoin="round"><path d="M17.83,20.5c1.29,0.53,6.7,0.94,8,0.83c11.9-0.96,46.67-3.5,60.39-3.57c2.16-0.01,5.54,0.81,6.62,1.07" stroke-dasharray="75.293" stroke-dashoffset="75.293"><animate attributeName="stroke-dashoffset" values="75.293;75.293;0" dur="0.566s" fill="freeze" begin="0s;8484.click" /></path><path d="M38.5,10.5c1,0.5,2.1,1.85,2.17,2.67c0.67,7.83,1,13.67,1,16.33" stroke-dasharray="19.909" stroke-dashoffset="19.909"><animate attributeName="stroke-dashoffset" values="19.909" fill="freeze" begin="8484.click" /><animate attributeName="stroke-dashoffset" values="19.909;19.909;0" keyTimes="0;0.74;1" dur="0.765s" fill="freeze" begin="0s;8484.click" /></path><path d="M67,9.17c1.25,1.58,1.4,2.12,1,3.5c-1.17,4-2.17,9-3.92,15.83" stroke-dasharray="20.167" stroke-dashoffset="20.167"><animate attributeName="stroke-dashoffset" values="20.167" fill="freeze" begin="8484.click" /><animate attributeName="stroke-dashoffset" values="20.167;20.167;0" keyTimes="0;0.791;1" dur="0.967s" fill="freeze" begin="0s;8484.click" /></path><path d="M21,32.66c0,3.44-3.44,12.9-5,15.19" stroke-dasharray="16.094" stroke-dashoffset="16.094"><animate attributeName="stroke-dashoffset" values="16.094" fill="freeze" begin="8484.click" /><animate attributeName="stroke-dashoffset" values="16.094;16.094;0" keyTimes="0;0.857;1" dur="1.128s" fill="freeze" begin="0s;8484.click" /></path><path d="M21.41,35.96c9.93-0.86,55.46-3.51,62.59-3.8c14.75,0,5.11,7.7,2.33,9.33" stroke-dasharray="80.758" stroke-dashoffset="80.758"><animate attributeName="stroke-dashoffset" values="80.758" fill="freeze" begin="8484.click" /><animate attributeName="stroke-dashoffset" values="80.758;80.758;0" keyTimes="0;0.65;1" dur="1.735s" fill="freeze" begin="0s;8484.click" /></path><path d="M24.5,46.67c1.5,0.83,3.8,1.15,4.17,1.17C33,48,41.14,46.56,46.17,46.17c0.6-0.05,3.2,0.56,3.5,0.67" stroke-dasharray="25.519" stroke-dashoffset="25.519"><animate attributeName="stroke-dashoffset" values="25.519" fill="freeze" begin="8484.click" /><animate attributeName="stroke-dashoffset" values="25.519;25.519;0" keyTimes="0;0.872;1" dur="1.99s" fill="freeze" begin="0s;8484.click" /></path><path d="M15.83,60.17c0.67,0.32,4.5,1.22,5.17,1.17c6.97-0.54,14.83-1.83,27.17-2.33c1.12-0.04,4.94,0.17,5.5,0.33" stroke-dasharray="38.106" stroke-dashoffset="38.106"><animate attributeName="stroke-dashoffset" values="38.106" fill="freeze" begin="8484.click" /><animate attributeName="stroke-dashoffset" values="38.106;38.106;0" keyTimes="0;0.839;1" dur="2.371s" fill="freeze" begin="0s;8484.click" /></path><path d="M29.58,63.28c0.55,0.82,0.75,2.07,0.67,3.25C29.5,78.5,24.73,90.76,14.17,97.67" stroke-dasharray="39.724" stroke-dashoffset="39.724"><animate attributeName="stroke-dashoffset" values="39.724" fill="freeze" begin="8484.click" /><animate attributeName="stroke-dashoffset" values="39.724;39.724;0" keyTimes="0;0.857;1" dur="2.768s" fill="freeze" begin="0s;8484.click" /></path><path d="M42.28,61.73c0.71,1.51,1.28,3.3,1.32,5.63c0.11,6.22-0.26,11.38-0.26,18.94c0,10.45,1.54,11.35,24.35,11.35c23.81,0,25.98-1.4,25.98-12.65" stroke-dasharray="90.802" stroke-dashoffset="90.802"><animate attributeName="stroke-dashoffset" values="90.802" fill="freeze" begin="8484.click" /><animate attributeName="stroke-dashoffset" values="90.802;90.802;0" keyTimes="0;0.802;1" dur="3.451s" fill="freeze" begin="0s;8484.click" /></path><path d="M56.17,54.17c0.63,0.31,3.69,0.7,4.33,0.67c7-0.33,19.33-1.53,27-2c1.05-0.06,5.14,0.18,5.67,0.33" stroke-dasharray="37.156" stroke-dashoffset="37.156"><animate attributeName="stroke-dashoffset" values="37.156" fill="freeze" begin="8484.click" /><animate attributeName="stroke-dashoffset" values="37.156;37.156;0" keyTimes="0;0.903;1" dur="3.823s" fill="freeze" begin="0s;8484.click" /></path><path d="M76.83,39.5c0.05,0.27,1.8,2.22,1.8,3.93c0,11.47-0.17,37.99-0.17,40.78c0,6.77-5.89,0.82-7.3-0.04" stroke-dasharray="55.763" stroke-dashoffset="55.763"><animate attributeName="stroke-dashoffset" values="55.763" fill="freeze" begin="8484.click" /><animate attributeName="stroke-dashoffset" values="55.763;55.763;0" keyTimes="0;0.873;1" dur="4.381s" fill="freeze" begin="0s;8484.click" /></path><path d="M60.2,64.13c2.47,1.89,6.37,7.79,6.99,10.74" stroke-dasharray="12.969" stroke-dashoffset="12.969"><animate attributeName="stroke-dashoffset" values="12.969" fill="freeze" begin="8484.click" /><animate attributeName="stroke-dashoffset" values="12.969;12.969;0" keyTimes="0;0.944;1" dur="4.64s" fill="freeze" begin="0s;8484.click" /></path></g></svg>