<svg xmlns="http://www.w3.org/2000/svg" viewBox="0 0 109 109" id="8563"><g fill="none" stroke="#666" stroke-width="6" stroke-linecap="round" stroke-linejoin="round"><g><g><path d="M17.5,20.55c1.6,0.65,3.45,0.78,5.05,0.65c14.66-1.19,45.46-4.27,62.37-4.35c2.66-0.01,4.25,0.31,5.58,0.63" /><path d="M36.98,10.5c1.26,1.03,1.67,1.35,1.8,1.98c1.26,5.95,1.62,11.35,1.98,13.52" /><path d="M66.18,10c0.72,0.64,1.2,1.62,0.97,2.57c-0.72,2.9-1.71,7.72-2.75,11.43" /></g><g><g><g><path d="M77.43,22.89c0.13,0.31,0.28,0.8-0.27,1.25c-3.28,2.63-22.09,8.39-47.85,11.92" /><path d="M29.52,38.83c2.13,1.49,5.51,6.12,6.04,8.44" /><path d="M51.02,37.32c1.87,1.47,4.83,6.03,5.29,8.31" /><path d="M79.28,32.5c0.02,0.32,0.05,0.82-0.04,1.27c-0.54,2.68-3.66,8.56-7.93,12.15" /></g><g><path d="M19.91,50.57c0,3.13-3.03,11.74-4.41,13.83" /><path d="M20.73,52.04c12.52-1.29,54.77-5.04,65.3-4.79c11.42,0.27,3.47,7.25,0.08,11.04" /></g></g><g><g><path d="M33.66,56.32c0.17,0.39,0.65,1.58,0.33,2.31C31.5,64.25,26,71.25,17.43,79.11" /><path d="M34.78,64.18c0.24,0.03,1.78,0.44,2.47,0.35c2.28-0.27,6.39-1.42,9.42-2.46c2.18-0.75,2.87,0.66,2.3,2.24c-3.13,8.62-17.47,29.44-32.35,34.71" /><path d="M27.2,74.75c2.81,1.16,7.26,4.79,7.96,6.6" /></g><g><path d="M56.18,65.74c0.98,0.45,2.77,0.47,3.76,0.45C67.3,66.07,78,65,86.23,63.89c1.62-0.22,2.61,0.21,3.43,0.44" /><path d="M55.75,70.52c0.5,0.73,0.64,2.4,0.18,3.75c-0.68,1.98-2.43,5.98-3.24,8.15c-0.35,0.93,0.29,2.17,1.16,1.8c6.4-2.72,29.65-3.77,37.11-4.09c1.56-0.07,3.5,0.16,4.29,0.33" /><path d="M71.93,54.65c1.4,0.47,2.24,2.1,2.52,3.04c0.28,0.93,0,37.47-0.28,43.31" /></g></g></g></g></g><g fill="none" stroke="#000" stroke-width="3" stroke-linecap="round" stroke-linejoin="round"><path d="M17.5,20.55c1.6,0.65,3.45,0.78,5.05,0.65c14.66-1.19,45.46-4.27,62.37-4.35c2.66-0.01,4.25,0.31,5.58,0.63" stroke-dasharray="73.304" stroke-dashoffset="73.304"><animate attributeName="stroke-dashoffset" values="73.304;73.304;0" dur="0.551s" fill="freeze" begin="0s;8563.click" /></path><path d="M36.98,10.5c1.26,1.03,1.67,1.35,1.8,1.98c1.26,5.95,1.62,11.35,1.98,13.52" stroke-dasharray="16.399" stroke-dashoffset="16.399"><animate attributeName="stroke-dashoffset" values="16.399" fill="freeze" begin="8563.click" /><animate attributeName="stroke-dashoffset" values="16.399;16.399;0" keyTimes="0;0.771;1" dur="0.715s" fill="freeze" begin="0s;8563.click" /></path><path d="M66.18,10c0.72,0.64,1.2,1.62,0.97,2.57c-0.72,2.9-1.71,7.72-2.75,11.43" stroke-dasharray="14.641" stroke-dashoffset="14.641"><animate attributeName="stroke-dashoffset" values="14.641" fill="freeze" begin="8563.click" /><animate attributeName="stroke-dashoffset" values="14.641;14.641;0" keyTimes="0;0.709;1" dur="1.008s" fill="freeze" begin="0s;8563.click" /></path><path d="M77.43,22.89c0.13,0.31,0.28,0.8-0.27,1.25c-3.28,2.63-22.09,8.39-47.85,11.92" stroke-dasharray="50.923" stroke-dashoffset="50.923"><animate attributeName="stroke-dashoffset" values="50.923" fill="freeze" begin="8563.click" /><animate attributeName="stroke-dashoffset" values="50.923;50.923;0" keyTimes="0;0.664;1" dur="1.517s" fill="freeze" begin="0s;8563.click" /></path><path d="M29.52,38.83c2.13,1.49,5.51,6.12,6.04,8.44" stroke-dasharray="10.513" stroke-dashoffset="10.513"><animate attributeName="stroke-dashoffset" values="10.513" fill="freeze" begin="8563.click" /><animate attributeName="stroke-dashoffset" values="10.513;10.513;0" keyTimes="0;0.878;1" dur="1.727s" fill="freeze" begin="0s;8563.click" /></path><path d="M51.02,37.32c1.87,1.47,4.83,6.03,5.29,8.31" stroke-dasharray="9.968" stroke-dashoffset="9.968"><animate attributeName="stroke-dashoffset" values="9.968" fill="freeze" begin="8563.click" /><animate attributeName="stroke-dashoffset" values="9.968;9.968;0" keyTimes="0;0.897;1" dur="1.926s" fill="freeze" begin="0s;8563.click" /></path><path d="M79.28,32.5c0.02,0.32,0.05,0.82-0.04,1.27c-0.54,2.68-3.66,8.56-7.93,12.15" stroke-dasharray="15.981" stroke-dashoffset="15.981"><animate attributeName="stroke-dashoffset" values="15.981" fill="freeze" begin="8563.click" /><animate attributeName="stroke-dashoffset" values="15.981;15.981;0" keyTimes="0;0.923;1" dur="2.086s" fill="freeze" begin="0s;8563.click" /></path><path d="M19.91,50.57c0,3.13-3.03,11.74-4.41,13.83" stroke-dasharray="14.604" stroke-dashoffset="14.604"><animate attributeName="stroke-dashoffset" values="14.604" fill="freeze" begin="8563.click" /><animate attributeName="stroke-dashoffset" values="14.604;14.604;0" keyTimes="0;0.877;1" dur="2.378s" fill="freeze" begin="0s;8563.click" /></path><path d="M20.73,52.04c12.52-1.29,54.77-5.04,65.3-4.79c11.42,0.27,3.47,7.25,0.08,11.04" stroke-dasharray="83.008" stroke-dashoffset="83.008"><animate attributeName="stroke-dashoffset" values="83.008" fill="freeze" begin="8563.click" /><animate attributeName="stroke-dashoffset" values="83.008;83.008;0" keyTimes="0;0.792;1" dur="3.002s" fill="freeze" begin="0s;8563.click" /></path><path d="M33.66,56.32c0.17,0.39,0.65,1.58,0.33,2.31C31.5,64.25,26,71.25,17.43,79.11" stroke-dasharray="28.894" stroke-dashoffset="28.894"><animate attributeName="stroke-dashoffset" values="28.894" fill="freeze" begin="8563.click" /><animate attributeName="stroke-dashoffset" values="28.894;28.894;0" keyTimes="0;0.912;1" dur="3.291s" fill="freeze" begin="0s;8563.click" /></path><path d="M34.78,64.18c0.24,0.03,1.78,0.44,2.47,0.35c2.28-0.27,6.39-1.42,9.42-2.46c2.18-0.75,2.87,0.66,2.3,2.24c-3.13,8.62-17.47,29.44-32.35,34.71" stroke-dasharray="65.201" stroke-dashoffset="65.201"><animate attributeName="stroke-dashoffset" values="65.201" fill="freeze" begin="8563.click" /><animate attributeName="stroke-dashoffset" values="65.201;65.201;0" keyTimes="0;0.87;1" dur="3.781s" fill="freeze" begin="0s;8563.click" /></path><path d="M27.2,74.75c2.81,1.16,7.26,4.79,7.96,6.6" stroke-dasharray="10.49" stroke-dashoffset="10.49"><animate attributeName="stroke-dashoffset" values="10.49" fill="freeze" begin="8563.click" /><animate attributeName="stroke-dashoffset" values="10.49;10.49;0" keyTimes="0;0.947;1" dur="3.991s" fill="freeze" begin="0s;8563.click" /></path><path d="M56.18,65.74c0.98,0.45,2.77,0.47,3.76,0.45C67.3,66.07,78,65,86.23,63.89c1.62-0.22,2.61,0.21,3.43,0.44" stroke-dasharray="33.71" stroke-dashoffset="33.71"><animate attributeName="stroke-dashoffset" values="33.71" fill="freeze" begin="8563.click" /><animate attributeName="stroke-dashoffset" values="33.71;33.71;0" keyTimes="0;0.922;1" dur="4.328s" fill="freeze" begin="0s;8563.click" /></path><path d="M55.75,70.52c0.5,0.73,0.64,2.4,0.18,3.75c-0.68,1.98-2.43,5.98-3.24,8.15c-0.35,0.93,0.29,2.17,1.16,1.8c6.4-2.72,29.65-3.77,37.11-4.09c1.56-0.07,3.5,0.16,4.29,0.33" stroke-dasharray="57.045" stroke-dashoffset="57.045"><animate attributeName="stroke-dashoffset" values="57.045" fill="freeze" begin="8563.click" /><animate attributeName="stroke-dashoffset" values="57.045;57.045;0" keyTimes="0;0.884;1" dur="4.898s" fill="freeze" begin="0s;8563.click" /></path><path d="M71.93,54.65c1.4,0.47,2.24,2.1,2.52,3.04c0.28,0.93,0,37.47-0.28,43.31" stroke-dasharray="47.405" stroke-dashoffset="47.405"><animate attributeName="stroke-dashoffset" values="47.405" fill="freeze" begin="8563.click" /><animate attributeName="stroke-dashoffset" values="47.405;47.405;0" keyTimes="0;0.912;1" dur="5.372s" fill="freeze" begin="0s;8563.click" /></path></g></svg>