<svg xmlns="http://www.w3.org/2000/svg" viewBox="0 0 109 109" id="8597"><g fill="none" stroke="#666" stroke-width="6" stroke-linecap="round" stroke-linejoin="round"><g><g><path d="M18.25,23.52c3.87,0.45,7.7,0.38,11.5-0.22c14.46-1.94,35.38-3.65,49-4.31c4.02-0.48,8.02-0.39,12,0.28" /><path d="M37.75,12.25c0.88,0.75,1.4,2.1,1.5,3C40,21.75,40.38,24.5,41,29" /><path d="M66.86,10c0.2,0.84,0.21,1.96-0.01,2.99c-1.32,6.05-1.6,7.39-2.85,13.51" /></g><g><g><path d="M22.03,34.91c0.84,1.09,1.12,2.51,1.12,4.05c0,11.94,0.06,37.51,0.15,51.67c0.02,3.39,0.04,6.63,0.06,8.38" /><path d="M23.72,37.44c19.43-2.5,42.39-4.88,57.91-6.1c4.56-0.36,5.62,1.48,5.62,5.91c0.01,12.12,0.1,35.1,0.03,49.62c-0.02,3.97-0.03,7.31-0.03,9.61" /></g><g><g><path d="M37.66,43.24c2.37,0.31,4.72,0.28,7.06-0.08c5.5-0.64,12.95-1.66,19.53-2.52c2.15-0.33,4.31-0.3,6.49,0.11" /><path d="M52.76,36.78c0.73,0.73,0.83,1.68,0.89,2.72c0.37,5.86,0.1,8.89,0.1,10.89" /><g p7:partial xmlns:p7="http://kanjivg.tagaini.net"><g p7:partial><path d="M30.06,53.09c3.17,0.18,6.31,0.02,9.42-0.47c10-1.41,20.73-3.13,30.77-4.22c3-0.37,6.01-0.41,9.04-0.11" /></g></g></g><g><g><path d="M39.83,59.2c0.8,0.55,1.05,1.3,1.25,2.11c0.33,1.36,0.81,3.52,1.33,5.94c0.21,0.97,0.43,1.99,0.65,3.02" /><path d="M41.39,60.08c7.73-1.37,17.79-2.99,24.25-4.02c1.58-0.25,3.37,0.42,2.88,2.35c-0.5,1.97-0.86,3.66-1.46,6.3" /><path d="M44.53,68.44c4.09-0.51,12.54-1.76,19.46-2.52c1.54-0.17,3.01-0.32,4.34-0.43" /></g><g p7:partial xmlns:p7="http://kanjivg.tagaini.net"><path d="M53.91,70.23c-0.21,1.08-0.69,1.99-1.45,2.73C49.13,76.65,41.89,82.3,32.13,87" /><path d="M53.75,74.27c0.63,0.98,0.88,1.97,0.87,3.11c-0.08,5.73-0.05,7.93-0.02,10.38c0.01,1.23,0.03,2.53,0.03,4.37" /><path d="M71.15,69.99c-0.03,0.82-0.22,1.59-0.57,2.3c-0.81,1.58-3.02,3.6-6.14,6.63" /><path d="M56.27,75.57c4.25,2.27,11.23,7,16.37,9.43c1.48,0.7,3.8,1.71,4.87,1.91" /></g></g></g><g><path d="M24.4,96.6c16.97-0.97,45.3-2.52,61.85-2.85" /></g></g></g></g><g fill="none" stroke="#000" stroke-width="3" stroke-linecap="round" stroke-linejoin="round"><path d="M18.25,23.52c3.87,0.45,7.7,0.38,11.5-0.22c14.46-1.94,35.38-3.65,49-4.31c4.02-0.48,8.02-0.39,12,0.28" stroke-dasharray="72.784" stroke-dashoffset="72.784"><animate attributeName="stroke-dashoffset" values="72.784;72.784;0" dur="0.547s" fill="freeze" begin="0s;8597.click" /></path><path d="M37.75,12.25c0.88,0.75,1.4,2.1,1.5,3C40,21.75,40.38,24.5,41,29" stroke-dasharray="17.285" stroke-dashoffset="17.285"><animate attributeName="stroke-dashoffset" values="17.285" fill="freeze" begin="8597.click" /><animate attributeName="stroke-dashoffset" values="17.285;17.285;0" keyTimes="0;0.76;1" dur="0.72s" fill="freeze" begin="0s;8597.click" /></path><path d="M66.86,10c0.2,0.84,0.21,1.96-0.01,2.99c-1.32,6.05-1.6,7.39-2.85,13.51" stroke-dasharray="16.821" stroke-dashoffset="16.821"><animate attributeName="stroke-dashoffset" values="16.821" fill="freeze" begin="8597.click" /><animate attributeName="stroke-dashoffset" values="16.821;16.821;0" keyTimes="0;0.811;1" dur="0.888s" fill="freeze" begin="0s;8597.click" /></path><path d="M22.03,34.91c0.84,1.09,1.12,2.51,1.12,4.05c0,11.94,0.06,37.51,0.15,51.67c0.02,3.39,0.04,6.63,0.06,8.38" stroke-dasharray="64.331" stroke-dashoffset="64.331"><animate attributeName="stroke-dashoffset" values="64.331" fill="freeze" begin="8597.click" /><animate attributeName="stroke-dashoffset" values="64.331;64.331;0" keyTimes="0;0.647;1" dur="1.372s" fill="freeze" begin="0s;8597.click" /></path><path d="M23.72,37.44c19.43-2.5,42.39-4.88,57.91-6.1c4.56-0.36,5.62,1.48,5.62,5.91c0.01,12.12,0.1,35.1,0.03,49.62c-0.02,3.97-0.03,7.31-0.03,9.61" stroke-dasharray="127.285" stroke-dashoffset="127.285"><animate attributeName="stroke-dashoffset" values="127.285" fill="freeze" begin="8597.click" /><animate attributeName="stroke-dashoffset" values="127.285;127.285;0" keyTimes="0;0.589;1" dur="2.329s" fill="freeze" begin="0s;8597.click" /></path><path d="M37.66,43.24c2.37,0.31,4.72,0.28,7.06-0.08c5.5-0.64,12.95-1.66,19.53-2.52c2.15-0.33,4.31-0.3,6.49,0.11" stroke-dasharray="33.3" stroke-dashoffset="33.3"><animate attributeName="stroke-dashoffset" values="33.3" fill="freeze" begin="8597.click" /><animate attributeName="stroke-dashoffset" values="33.3;33.3;0" keyTimes="0;0.875;1" dur="2.662s" fill="freeze" begin="0s;8597.click" /></path><path d="M52.76,36.78c0.73,0.73,0.83,1.68,0.89,2.72c0.37,5.86,0.1,8.89,0.1,10.89" stroke-dasharray="13.83" stroke-dashoffset="13.83"><animate attributeName="stroke-dashoffset" values="13.83" fill="freeze" begin="8597.click" /><animate attributeName="stroke-dashoffset" values="13.83;13.83;0" keyTimes="0;0.906;1" dur="2.939s" fill="freeze" begin="0s;8597.click" /></path><path d="M30.06,53.09c3.17,0.18,6.31,0.02,9.42-0.47c10-1.41,20.73-3.13,30.77-4.22c3-0.37,6.01-0.41,9.04-0.11" stroke-dasharray="49.57" stroke-dashoffset="49.57"><animate attributeName="stroke-dashoffset" values="49.57" fill="freeze" begin="8597.click" /><animate attributeName="stroke-dashoffset" values="49.57;49.57;0" keyTimes="0;0.856;1" dur="3.435s" fill="freeze" begin="0s;8597.click" /></path><path d="M39.83,59.2c0.8,0.55,1.05,1.3,1.25,2.11c0.33,1.36,0.81,3.52,1.33,5.94c0.21,0.97,0.43,1.99,0.65,3.02" stroke-dasharray="11.694" stroke-dashoffset="11.694"><animate attributeName="stroke-dashoffset" values="11.694" fill="freeze" begin="8597.click" /><animate attributeName="stroke-dashoffset" values="11.694;11.694;0" keyTimes="0;0.936;1" dur="3.669s" fill="freeze" begin="0s;8597.click" /></path><path d="M41.39,60.08c7.73-1.37,17.79-2.99,24.25-4.02c1.58-0.25,3.37,0.42,2.88,2.35c-0.5,1.97-0.86,3.66-1.46,6.3" stroke-dasharray="35.603" stroke-dashoffset="35.603"><animate attributeName="stroke-dashoffset" values="35.603" fill="freeze" begin="8597.click" /><animate attributeName="stroke-dashoffset" values="35.603;35.603;0" keyTimes="0;0.912;1" dur="4.025s" fill="freeze" begin="0s;8597.click" /></path><path d="M44.53,68.44c4.09-0.51,12.54-1.76,19.46-2.52c1.54-0.17,3.01-0.32,4.34-0.43" stroke-dasharray="23.985" stroke-dashoffset="23.985"><animate attributeName="stroke-dashoffset" values="23.985" fill="freeze" begin="8597.click" /><animate attributeName="stroke-dashoffset" values="23.985;23.985;0" keyTimes="0;0.944;1" dur="4.265s" fill="freeze" begin="0s;8597.click" /></path><path d="M53.91,70.23c-0.21,1.08-0.69,1.99-1.45,2.73C49.13,76.65,41.89,82.3,32.13,87" stroke-dasharray="27.978" stroke-dashoffset="27.978"><animate attributeName="stroke-dashoffset" values="27.978" fill="freeze" begin="8597.click" /><animate attributeName="stroke-dashoffset" values="27.978;27.978;0" keyTimes="0;0.938;1" dur="4.545s" fill="freeze" begin="0s;8597.click" /></path><path d="M53.75,74.27c0.63,0.98,0.88,1.97,0.87,3.11c-0.08,5.73-0.05,7.93-0.02,10.38c0.01,1.23,0.03,2.53,0.03,4.37" stroke-dasharray="18.03" stroke-dashoffset="18.03"><animate attributeName="stroke-dashoffset" values="18.03" fill="freeze" begin="8597.click" /><animate attributeName="stroke-dashoffset" values="18.03;18.03;0" keyTimes="0;0.962;1" dur="4.725s" fill="freeze" begin="0s;8597.click" /></path><path d="M71.15,69.99c-0.03,0.82-0.22,1.59-0.57,2.3c-0.81,1.58-3.02,3.6-6.14,6.63" stroke-dasharray="11.453" stroke-dashoffset="11.453"><animate attributeName="stroke-dashoffset" values="11.453" fill="freeze" begin="8597.click" /><animate attributeName="stroke-dashoffset" values="11.453;11.453;0" keyTimes="0;0.954;1" dur="4.954s" fill="freeze" begin="0s;8597.click" /></path><path d="M56.27,75.57c4.25,2.27,11.23,7,16.37,9.43c1.48,0.7,3.8,1.71,4.87,1.91" stroke-dasharray="24.139" stroke-dashoffset="24.139"><animate attributeName="stroke-dashoffset" values="24.139" fill="freeze" begin="8597.click" /><animate attributeName="stroke-dashoffset" values="24.139;24.139;0" keyTimes="0;0.954;1" dur="5.195s" fill="freeze" begin="0s;8597.click" /></path><path d="M24.4,96.6c16.97-0.97,45.3-2.52,61.85-2.85" stroke-dasharray="61.919" stroke-dashoffset="61.919"><animate attributeName="stroke-dashoffset" values="61.919" fill="freeze" begin="8597.click" /><animate attributeName="stroke-dashoffset" values="61.919;61.919;0" keyTimes="0;0.918;1" dur="5.661s" fill="freeze" begin="0s;8597.click" /></path></g></svg>