<svg xmlns="http://www.w3.org/2000/svg" viewBox="0 0 109 109" id="8622"><g fill="none" stroke="#666" stroke-width="6" stroke-linecap="round" stroke-linejoin="round"><g><g><path d="M19,21.27c1.54,0.53,3.32,0.63,4.86,0.53c14.11-0.96,43.75-3.46,60.02-3.53c2.56-0.01,4.09,0.25,5.37,0.51" /><path d="M39.17,11.75c1.45,1.18,1.91,1.54,2.06,2.27c1.44,6.81,0.86,12,1.27,14.48" /><path d="M66.54,11c0.78,0.69,1.29,1.74,1.03,2.76c-0.78,3.1-1.29,8.28-2.41,12.24" /></g><g><g><g><g><path d="M32.74,30.25c0.57,0.48,1.42,1.58,1.42,2.82c0,1.71,0,2.69,0,5.39" /><path d="M15.86,40.24c0.91,0.19,4.03,0.22,4.94,0.19c5.13-0.16,20.2-1.18,28.11-1.91c1.51-0.14,2.42,0.09,3.18,0.18" /></g><g><path d="M23.31,42.5c2.23,2.85,3.24,5.77,3.44,7.65" /><path d="M44.51,41.43c0.33,0.24,0.37,0.89,0.33,1.09c-0.27,1.35-3.04,5.38-3.7,6.41" /><path d="M13.79,53.22c1.3,0.33,2.82,0.38,4.12,0.33C26,53.25,40,52,49.35,51.27c2.17-0.17,3.48,0.16,4.56,0.32" /></g></g><g><path d="M22.04,62.14c0.45,0.52,0.75,1.05,0.9,1.57c0.15,0.52,0.21,34.67,0.15,35.85" /><path d="M23.84,62.67c1.81-0.13,18.4-2.34,19.75-2.49c2.41-0.26,3.31,1.7,3.01,2.49c-0.29,0.75-0.45,19.54-0.45,30.15c0,9.41-3.27,5.28-6.58,2.43" /><path d="M23.84,71.72c6.18-0.75,16.28-1.47,21.71-1.84" /><path d="M24.3,82.34c4.82-0.39,15.37-1.57,20.95-1.83" /></g></g><g><path d="M61.35,34.91c5.48-0.41,16.69-1.97,22.89-2.73c1.41-0.17,2.29,0.11,3.01,0.23" /><path d="M59.46,28.94c1.29,0.83,1.66,2.87,1.68,4.04c0.04,2.47-0.2,6.14-0.32,9.54c-0.08,2.23,0.26,2.14,2.61,1.79C68.62,43.55,77,42,83.38,41.56c2.12-0.15,3.83,1.14,3.32,2.41c-0.98,2.44-1.1,5.13-2.11,9.41" /><path d="M61.96,55.34c4.42-0.41,19.2-1.47,25.37-1.84" /><path d="M60.32,53.47c0.69,0.94,1.24,2.04,1.28,3.48c0.18,6.44,0.01,27.39,0.01,31.78c0,10.23,8.27,9.07,16.42,9.07c13,0,14.33-1.3,14.33-9.68" /><path d="M62.19,64.55c4.42-0.41,15.9-1.07,20.9-1.84c1.14-0.17,1.85,0.11,2.43,0.23" /><path d="M61.96,76c4.42-0.41,15.79-1.18,20.8-1.94c1.14-0.17,1.85,0.11,2.43,0.23" /><path d="M62.49,86.37c4.42-0.41,16.19-1.57,21.19-2.34c1.14-0.17,1.85,0.11,2.43,0.23" /></g></g></g></g><g fill="none" stroke="#000" stroke-width="3" stroke-linecap="round" stroke-linejoin="round"><path d="M19,21.27c1.54,0.53,3.32,0.63,4.86,0.53c14.11-0.96,43.75-3.46,60.02-3.53c2.56-0.01,4.09,0.25,5.37,0.51" stroke-dasharray="70.458" stroke-dashoffset="70.458"><animate attributeName="stroke-dashoffset" values="70.458;70.458;0" dur="0.53s" fill="freeze" begin="0s;8622.click" /></path><path d="M39.17,11.75c1.45,1.18,1.91,1.54,2.06,2.27c1.44,6.81,0.86,12,1.27,14.48" stroke-dasharray="17.687" stroke-dashoffset="17.687"><animate attributeName="stroke-dashoffset" values="17.687" fill="freeze" begin="8622.click" /><animate attributeName="stroke-dashoffset" values="17.687;17.687;0" keyTimes="0;0.75;1" dur="0.707s" fill="freeze" begin="0s;8622.click" /></path><path d="M66.54,11c0.78,0.69,1.29,1.74,1.03,2.76c-0.78,3.1-1.29,8.28-2.41,12.24" stroke-dasharray="15.578" stroke-dashoffset="15.578"><animate attributeName="stroke-dashoffset" values="15.578" fill="freeze" begin="8622.click" /><animate attributeName="stroke-dashoffset" values="15.578;15.578;0" keyTimes="0;0.819;1" dur="0.863s" fill="freeze" begin="0s;8622.click" /></path><path d="M32.74,30.25c0.57,0.48,1.42,1.58,1.42,2.82c0,1.71,0,2.69,0,5.39" stroke-dasharray="8.64" stroke-dashoffset="8.64"><animate attributeName="stroke-dashoffset" values="8.64" fill="freeze" begin="8622.click" /><animate attributeName="stroke-dashoffset" values="8.64;8.64;0" keyTimes="0;0.833;1" dur="1.036s" fill="freeze" begin="0s;8622.click" /></path><path d="M15.86,40.24c0.91,0.19,4.03,0.22,4.94,0.19c5.13-0.16,20.2-1.18,28.11-1.91c1.51-0.14,2.42,0.09,3.18,0.18" stroke-dasharray="36.322" stroke-dashoffset="36.322"><animate attributeName="stroke-dashoffset" values="36.322" fill="freeze" begin="8622.click" /><animate attributeName="stroke-dashoffset" values="36.322;36.322;0" keyTimes="0;0.741;1" dur="1.399s" fill="freeze" begin="0s;8622.click" /></path><path d="M23.31,42.5c2.23,2.85,3.24,5.77,3.44,7.65" stroke-dasharray="8.487" stroke-dashoffset="8.487"><animate attributeName="stroke-dashoffset" values="8.487" fill="freeze" begin="8622.click" /><animate attributeName="stroke-dashoffset" values="8.487;8.487;0" keyTimes="0;0.892;1" dur="1.569s" fill="freeze" begin="0s;8622.click" /></path><path d="M44.51,41.43c0.33,0.24,0.37,0.89,0.33,1.09c-0.27,1.35-3.04,5.38-3.7,6.41" stroke-dasharray="8.608" stroke-dashoffset="8.608"><animate attributeName="stroke-dashoffset" values="8.608" fill="freeze" begin="8622.click" /><animate attributeName="stroke-dashoffset" values="8.608;8.608;0" keyTimes="0;0.901;1" dur="1.741s" fill="freeze" begin="0s;8622.click" /></path><path d="M13.79,53.22c1.3,0.33,2.82,0.38,4.12,0.33C26,53.25,40,52,49.35,51.27c2.17-0.17,3.48,0.16,4.56,0.32" stroke-dasharray="40.258" stroke-dashoffset="40.258"><animate attributeName="stroke-dashoffset" values="40.258" fill="freeze" begin="8622.click" /><animate attributeName="stroke-dashoffset" values="40.258;40.258;0" keyTimes="0;0.812;1" dur="2.144s" fill="freeze" begin="0s;8622.click" /></path><path d="M22.04,62.14c0.45,0.52,0.75,1.05,0.9,1.57c0.15,0.52,0.21,34.67,0.15,35.85" stroke-dasharray="37.677" stroke-dashoffset="37.677"><animate attributeName="stroke-dashoffset" values="37.677" fill="freeze" begin="8622.click" /><animate attributeName="stroke-dashoffset" values="37.677;37.677;0" keyTimes="0;0.85;1" dur="2.521s" fill="freeze" begin="0s;8622.click" /></path><path d="M23.84,62.67c1.81-0.13,18.4-2.34,19.75-2.49c2.41-0.26,3.31,1.7,3.01,2.49c-0.29,0.75-0.45,19.54-0.45,30.15c0,9.41-3.27,5.28-6.58,2.43" stroke-dasharray="67.138" stroke-dashoffset="67.138"><animate attributeName="stroke-dashoffset" values="67.138" fill="freeze" begin="8622.click" /><animate attributeName="stroke-dashoffset" values="67.138;67.138;0" keyTimes="0;0.833;1" dur="3.026s" fill="freeze" begin="0s;8622.click" /></path><path d="M23.84,71.72c6.18-0.75,16.28-1.47,21.71-1.84" stroke-dasharray="21.791" stroke-dashoffset="21.791"><animate attributeName="stroke-dashoffset" values="21.791" fill="freeze" begin="8622.click" /><animate attributeName="stroke-dashoffset" values="21.791;21.791;0" keyTimes="0;0.933;1" dur="3.244s" fill="freeze" begin="0s;8622.click" /></path><path d="M24.3,82.34c4.82-0.39,15.37-1.57,20.95-1.83" stroke-dasharray="21.032" stroke-dashoffset="21.032"><animate attributeName="stroke-dashoffset" values="21.032" fill="freeze" begin="8622.click" /><animate attributeName="stroke-dashoffset" values="21.032;21.032;0" keyTimes="0;0.939;1" dur="3.454s" fill="freeze" begin="0s;8622.click" /></path><path d="M61.35,34.91c5.48-0.41,16.69-1.97,22.89-2.73c1.41-0.17,2.29,0.11,3.01,0.23" stroke-dasharray="26.09" stroke-dashoffset="26.09"><animate attributeName="stroke-dashoffset" values="26.09" fill="freeze" begin="8622.click" /><animate attributeName="stroke-dashoffset" values="26.09;26.09;0" keyTimes="0;0.93;1" dur="3.715s" fill="freeze" begin="0s;8622.click" /></path><path d="M59.46,28.94c1.29,0.83,1.66,2.87,1.68,4.04c0.04,2.47-0.2,6.14-0.32,9.54c-0.08,2.23,0.26,2.14,2.61,1.79C68.62,43.55,77,42,83.38,41.56c2.12-0.15,3.83,1.14,3.32,2.41c-0.98,2.44-1.1,5.13-2.11,9.41" stroke-dasharray="52.916" stroke-dashoffset="52.916"><animate attributeName="stroke-dashoffset" values="52.916" fill="freeze" begin="8622.click" /><animate attributeName="stroke-dashoffset" values="52.916;52.916;0" keyTimes="0;0.875;1" dur="4.244s" fill="freeze" begin="0s;8622.click" /></path><path d="M61.96,55.34c4.42-0.41,19.2-1.47,25.37-1.84" stroke-dasharray="25.438" stroke-dashoffset="25.438"><animate attributeName="stroke-dashoffset" values="25.438" fill="freeze" begin="8622.click" /><animate attributeName="stroke-dashoffset" values="25.438;25.438;0" keyTimes="0;0.944;1" dur="4.498s" fill="freeze" begin="0s;8622.click" /></path><path d="M60.32,53.47c0.69,0.94,1.24,2.04,1.28,3.48c0.18,6.44,0.01,27.39,0.01,31.78c0,10.23,8.27,9.07,16.42,9.07c13,0,14.33-1.3,14.33-9.68" stroke-dasharray="78.487" stroke-dashoffset="78.487"><animate attributeName="stroke-dashoffset" values="78.487" fill="freeze" begin="8622.click" /><animate attributeName="stroke-dashoffset" values="78.487;78.487;0" keyTimes="0;0.884;1" dur="5.088s" fill="freeze" begin="0s;8622.click" /></path><path d="M62.19,64.55c4.42-0.41,15.9-1.07,20.9-1.84c1.14-0.17,1.85,0.11,2.43,0.23" stroke-dasharray="23.446" stroke-dashoffset="23.446"><animate attributeName="stroke-dashoffset" values="23.446" fill="freeze" begin="8622.click" /><animate attributeName="stroke-dashoffset" values="23.446;23.446;0" keyTimes="0;0.956;1" dur="5.322s" fill="freeze" begin="0s;8622.click" /></path><path d="M61.96,76c4.42-0.41,15.79-1.18,20.8-1.94c1.14-0.17,1.85,0.11,2.43,0.23" stroke-dasharray="23.355" stroke-dashoffset="23.355"><animate attributeName="stroke-dashoffset" values="23.355" fill="freeze" begin="8622.click" /><animate attributeName="stroke-dashoffset" values="23.355;23.355;0" keyTimes="0;0.958;1" dur="5.556s" fill="freeze" begin="0s;8622.click" /></path><path d="M62.49,86.37c4.42-0.41,16.19-1.57,21.19-2.34c1.14-0.17,1.85,0.11,2.43,0.23" stroke-dasharray="23.783" stroke-dashoffset="23.783"><animate attributeName="stroke-dashoffset" values="23.783" fill="freeze" begin="8622.click" /><animate attributeName="stroke-dashoffset" values="23.783;23.783;0" keyTimes="0;0.959;1" dur="5.794s" fill="freeze" begin="0s;8622.click" /></path></g></svg>