<svg xmlns="http://www.w3.org/2000/svg" viewBox="0 0 109 109" id="871a"><g fill="none" stroke="#666" stroke-width="6" stroke-linecap="round" stroke-linejoin="round"><g><g><g><path d="M44.53,11.38c0.72,0.88,1.12,2.22,1.39,2.76c0.11,0.23,0.13,6.73,0.09,15.51c-0.05,11.81-0.8,20.3-17.27,27.61" /><path d="M20.06,21.95c1.36,0,2.94,0.15,4.3,0c1.36-0.15,19.49-1.52,21.08-1.95" /><path d="M20.11,32.39c1.36,0,2.94,0.15,4.3,0c1.36-0.15,17.81-1.31,21.44-1.74" /><path d="M17.73,45.59c1.36,1,2.22,1.11,4.47,0.49c1.33-0.36,16.9-5.82,22.52-7.57" /></g><g><path d="M60.77,11.25c0.85,0.43,1.36,1.92,1.53,2.78c0.17,0.86,0,33.75-0.17,39.1" /><path d="M62.57,19.62c5.13-0.22,21.33-1.86,25.18-2.23c1.4-0.14,0.43-0.07,2.85-0.07" /><path d="M63,29.39c5.13-0.22,19.4-1.56,23.25-1.93c1.4-0.14,0.43-0.07,2.85-0.07" /><path d="M62.86,41.31c5.13-0.22,22.96-1.56,26.81-1.93c1.4-0.14,0.43-0.07,2.85-0.07" /></g></g><g><g><g><path d="M27.95,63.31c0.82,0.53,1.4,1.85,1.55,2.55c1.11,5.09,1.25,6.29,2.8,15.93" /><path d="M30.11,65.36c12.44-1.02,37.67-2.95,46.67-3.34c3.51-0.15,3.92,1.68,3.32,3.88c-0.85,3.1-1.6,6.1-2.72,9.97" /><path d="M32.77,79.24c10.01-1.02,32.71-2.6,46.71-3.56" /></g><g><path d="M52.39,52.25c1.1,0.43,1.75,1.91,1.97,2.76c0.22,0.85,0,31.88-0.22,37.2" /></g></g><path d="M25.35,95.9c1.12,0.68,1.79,1.53,2.9,1.36c1.12-0.17,42.85-7.97,49.77-9.33" /><path d="M69.11,81.75c5.82,2.69,15.05,11.05,16.5,15.24" /></g></g></g><g fill="none" stroke="#000" stroke-width="3" stroke-linecap="round" stroke-linejoin="round"><path d="M44.53,11.38c0.72,0.88,1.12,2.22,1.39,2.76c0.11,0.23,0.13,6.73,0.09,15.51c-0.05,11.81-0.8,20.3-17.27,27.61" stroke-dasharray="53.966" stroke-dashoffset="53.966"><animate attributeName="stroke-dashoffset" values="53.966;53.966;0" dur="0.54s" fill="freeze" begin="0s;871a.click" /></path><path d="M20.06,21.95c1.36,0,2.94,0.15,4.3,0c1.36-0.15,19.49-1.52,21.08-1.95" stroke-dasharray="25.478" stroke-dashoffset="25.478"><animate attributeName="stroke-dashoffset" values="25.478" fill="freeze" begin="871a.click" /><animate attributeName="stroke-dashoffset" values="25.478;25.478;0" keyTimes="0;0.679;1" dur="0.795s" fill="freeze" begin="0s;871a.click" /></path><path d="M20.11,32.39c1.36,0,2.94,0.15,4.3,0c1.36-0.15,17.81-1.31,21.44-1.74" stroke-dasharray="25.815" stroke-dashoffset="25.815"><animate attributeName="stroke-dashoffset" values="25.815" fill="freeze" begin="871a.click" /><animate attributeName="stroke-dashoffset" values="25.815;25.815;0" keyTimes="0;0.755;1" dur="1.053s" fill="freeze" begin="0s;871a.click" /></path><path d="M17.73,45.59c1.36,1,2.22,1.11,4.47,0.49c1.33-0.36,16.9-5.82,22.52-7.57" stroke-dasharray="28.479" stroke-dashoffset="28.479"><animate attributeName="stroke-dashoffset" values="28.479" fill="freeze" begin="871a.click" /><animate attributeName="stroke-dashoffset" values="28.479;28.479;0" keyTimes="0;0.787;1" dur="1.338s" fill="freeze" begin="0s;871a.click" /></path><path d="M60.77,11.25c0.85,0.43,1.36,1.92,1.53,2.78c0.17,0.86,0,33.75-0.17,39.1" stroke-dasharray="42.365" stroke-dashoffset="42.365"><animate attributeName="stroke-dashoffset" values="42.365" fill="freeze" begin="871a.click" /><animate attributeName="stroke-dashoffset" values="42.365;42.365;0" keyTimes="0;0.759;1" dur="1.762s" fill="freeze" begin="0s;871a.click" /></path><path d="M62.57,19.62c5.13-0.22,21.33-1.86,25.18-2.23c1.4-0.14,0.43-0.07,2.85-0.07" stroke-dasharray="28.135" stroke-dashoffset="28.135"><animate attributeName="stroke-dashoffset" values="28.135" fill="freeze" begin="871a.click" /><animate attributeName="stroke-dashoffset" values="28.135;28.135;0" keyTimes="0;0.862;1" dur="2.043s" fill="freeze" begin="0s;871a.click" /></path><path d="M63,29.39c5.13-0.22,19.4-1.56,23.25-1.93c1.4-0.14,0.43-0.07,2.85-0.07" stroke-dasharray="26.187" stroke-dashoffset="26.187"><animate attributeName="stroke-dashoffset" values="26.187" fill="freeze" begin="871a.click" /><animate attributeName="stroke-dashoffset" values="26.187;26.187;0" keyTimes="0;0.886;1" dur="2.305s" fill="freeze" begin="0s;871a.click" /></path><path d="M62.86,41.31c5.13-0.22,22.96-1.56,26.81-1.93c1.4-0.14,0.43-0.07,2.85-0.07" stroke-dasharray="29.736" stroke-dashoffset="29.736"><animate attributeName="stroke-dashoffset" values="29.736" fill="freeze" begin="871a.click" /><animate attributeName="stroke-dashoffset" values="29.736;29.736;0" keyTimes="0;0.886;1" dur="2.602s" fill="freeze" begin="0s;871a.click" /></path><path d="M27.95,63.31c0.82,0.53,1.4,1.85,1.55,2.55c1.11,5.09,1.25,6.29,2.8,15.93" stroke-dasharray="19.223" stroke-dashoffset="19.223"><animate attributeName="stroke-dashoffset" values="19.223" fill="freeze" begin="871a.click" /><animate attributeName="stroke-dashoffset" values="19.223;19.223;0" keyTimes="0;0.931;1" dur="2.794s" fill="freeze" begin="0s;871a.click" /></path><path d="M30.11,65.36c12.44-1.02,37.67-2.95,46.67-3.34c3.51-0.15,3.92,1.68,3.32,3.88c-0.85,3.1-1.6,6.1-2.72,9.97" stroke-dasharray="63.558" stroke-dashoffset="63.558"><animate attributeName="stroke-dashoffset" values="63.558" fill="freeze" begin="871a.click" /><animate attributeName="stroke-dashoffset" values="63.558;63.558;0" keyTimes="0;0.854;1" dur="3.272s" fill="freeze" begin="0s;871a.click" /></path><path d="M32.77,79.24c10.01-1.02,32.71-2.6,46.71-3.56" stroke-dasharray="46.848" stroke-dashoffset="46.848"><animate attributeName="stroke-dashoffset" values="46.848" fill="freeze" begin="871a.click" /><animate attributeName="stroke-dashoffset" values="46.848;46.848;0" keyTimes="0;0.875;1" dur="3.74s" fill="freeze" begin="0s;871a.click" /></path><path d="M52.39,52.25c1.1,0.43,1.75,1.91,1.97,2.76c0.22,0.85,0,31.88-0.22,37.2" stroke-dasharray="40.709" stroke-dashoffset="40.709"><animate attributeName="stroke-dashoffset" values="40.709" fill="freeze" begin="871a.click" /><animate attributeName="stroke-dashoffset" values="40.709;40.709;0" keyTimes="0;0.902;1" dur="4.147s" fill="freeze" begin="0s;871a.click" /></path><path d="M25.35,95.9c1.12,0.68,1.79,1.53,2.9,1.36c1.12-0.17,42.85-7.97,49.77-9.33" stroke-dasharray="53.928" stroke-dashoffset="53.928"><animate attributeName="stroke-dashoffset" values="53.928" fill="freeze" begin="871a.click" /><animate attributeName="stroke-dashoffset" values="53.928;53.928;0" keyTimes="0;0.885;1" dur="4.686s" fill="freeze" begin="0s;871a.click" /></path><path d="M69.11,81.75c5.82,2.69,15.05,11.05,16.5,15.24" stroke-dasharray="22.79" stroke-dashoffset="22.79"><animate attributeName="stroke-dashoffset" values="22.79" fill="freeze" begin="871a.click" /><animate attributeName="stroke-dashoffset" values="22.79;22.79;0" keyTimes="0;0.954;1" dur="4.914s" fill="freeze" begin="0s;871a.click" /></path></g></svg>