<svg xmlns="http://www.w3.org/2000/svg" viewBox="0 0 109 109" id="8776"><g fill="none" stroke="#666" stroke-width="6" stroke-linecap="round" stroke-linejoin="round"><g><g><g><g><path d="M10.01,38.15c0.46,0.51,1.02,1.4,1.12,2.06c0.75,5.02,1.23,8.5,2.48,16.44c0.19,1.22,0.4,2.54,0.64,4" /><path d="M11.47,39.48c6.08-0.85,16.95-2.77,22.92-3.48c3.31-0.39,5.29,0.18,4.59,3.92c-0.81,4.35-1.85,9.21-2.85,14.31" /><path d="M15.25,58.5c4.41-0.7,11.94-1.72,18.64-2.5c1.43-0.17,2.82-0.32,4.13-0.46" /></g><g><path d="M23.42,17.75c1.08,1,1.26,2.5,1.26,4.22c0,4.78,0.05,40.53,0.05,53.91" /></g></g><path d="M10.07,82.52c1.43,1.52,3.06,0.83,4.53,0.02c4.85-2.67,15.77-8.78,22.02-12.16" /><path d="M33.75,62.5c2.49,2.94,6.43,12.08,7.06,16.64" /></g><g><g><g><g><g><path d="M42.75,29.38c2.97,1.07,7.11,0.11,10.14-0.17c9.56-0.9,25.26-2.94,35.24-3.75c2.8-0.23,5.15-0.34,7.88,0.26" /></g><path d="M64.64,13.25c0.87,0.87,1.4,1.57,1.46,2.78c0.21,4.21,0.57,14.57,0.84,21.84c0.07,1.96,0.14,3.69,0.2,5.02" /></g><path d="M80.55,11.75c0.85,0.85,1.03,1.87,0.96,2.78c-0.52,7.34-1.27,16.72-1.93,23.92" /><path d="M68.54,40.89c2.4-0.17,5.6-0.53,8.34-0.83c1.64-0.18,3.11-0.34,4.14-0.43" /></g><path d="M50.75,18.32c1.03,1.03,1.25,2.31,1.28,3.42c0.15,4.67-0.05,18.13-0.05,25.38c0,2.87,0.89,3.87,3.32,3.66c9.99-0.85,18.95-1.82,28.82-2.25c2.34-0.1,4.76-0.28,7.08,0.19" /></g><g><path d="M43.24,65.15c2.67,0.88,5.54,0.6,8.27,0.38c8.8-0.69,23.49-2.03,36.12-2.73c2.97-0.16,6.1,0.2,9.02,0.8" /><path d="M66.82,54.75c1.16,1.15,1.29,2.12,1.29,4c0,5.19-0.06,21.98-0.09,32.63C68,94.45,68,97,68,98.62" /><path d="M65.1,65.23c0,1.39-0.49,2.44-1.29,3.76c-4.44,7.33-12.3,16.07-18.62,19.76" /><path d="M69.88,65.75c4.41,4.81,13.5,13.5,19.74,18.77c2.25,1.9,4.26,3.11,7.45,4.61" /></g></g></g></g><g fill="none" stroke="#000" stroke-width="3" stroke-linecap="round" stroke-linejoin="round"><path d="M10.01,38.15c0.46,0.51,1.02,1.4,1.12,2.06c0.75,5.02,1.23,8.5,2.48,16.44c0.19,1.22,0.4,2.54,0.64,4" stroke-dasharray="23.049" stroke-dashoffset="23.049"><animate attributeName="stroke-dashoffset" values="23.049;23.049;0" dur="0.23s" fill="freeze" begin="0s;8776.click" /></path><path d="M11.47,39.48c6.08-0.85,16.95-2.77,22.92-3.48c3.31-0.39,5.29,0.18,4.59,3.92c-0.81,4.35-1.85,9.21-2.85,14.31" stroke-dasharray="45.484" stroke-dashoffset="45.484"><animate attributeName="stroke-dashoffset" values="45.484" fill="freeze" begin="8776.click" /><animate attributeName="stroke-dashoffset" values="45.484;45.484;0" keyTimes="0;0.336;1" dur="0.685s" fill="freeze" begin="0s;8776.click" /></path><path d="M15.25,58.5c4.41-0.7,11.94-1.72,18.64-2.5c1.43-0.17,2.82-0.32,4.13-0.46" stroke-dasharray="22.965" stroke-dashoffset="22.965"><animate attributeName="stroke-dashoffset" values="22.965" fill="freeze" begin="8776.click" /><animate attributeName="stroke-dashoffset" values="22.965;22.965;0" keyTimes="0;0.749;1" dur="0.915s" fill="freeze" begin="0s;8776.click" /></path><path d="M23.42,17.75c1.08,1,1.26,2.5,1.26,4.22c0,4.78,0.05,40.53,0.05,53.91" stroke-dasharray="58.45" stroke-dashoffset="58.45"><animate attributeName="stroke-dashoffset" values="58.45" fill="freeze" begin="8776.click" /><animate attributeName="stroke-dashoffset" values="58.45;58.45;0" keyTimes="0;0.61;1" dur="1.5s" fill="freeze" begin="0s;8776.click" /></path><path d="M10.07,82.52c1.43,1.52,3.06,0.83,4.53,0.02c4.85-2.67,15.77-8.78,22.02-12.16" stroke-dasharray="30.124" stroke-dashoffset="30.124"><animate attributeName="stroke-dashoffset" values="30.124" fill="freeze" begin="8776.click" /><animate attributeName="stroke-dashoffset" values="30.124;30.124;0" keyTimes="0;0.833;1" dur="1.801s" fill="freeze" begin="0s;8776.click" /></path><path d="M33.75,62.5c2.49,2.94,6.43,12.08,7.06,16.64" stroke-dasharray="18.21" stroke-dashoffset="18.21"><animate attributeName="stroke-dashoffset" values="18.21" fill="freeze" begin="8776.click" /><animate attributeName="stroke-dashoffset" values="18.21;18.21;0" keyTimes="0;0.908;1" dur="1.983s" fill="freeze" begin="0s;8776.click" /></path><path d="M42.75,29.38c2.97,1.07,7.11,0.11,10.14-0.17c9.56-0.9,25.26-2.94,35.24-3.75c2.8-0.23,5.15-0.34,7.88,0.26" stroke-dasharray="53.588" stroke-dashoffset="53.588"><animate attributeName="stroke-dashoffset" values="53.588" fill="freeze" begin="8776.click" /><animate attributeName="stroke-dashoffset" values="53.588;53.588;0" keyTimes="0;0.787;1" dur="2.519s" fill="freeze" begin="0s;8776.click" /></path><path d="M64.64,13.25c0.87,0.87,1.4,1.57,1.46,2.78c0.21,4.21,0.57,14.57,0.84,21.84c0.07,1.96,0.14,3.69,0.2,5.02" stroke-dasharray="30.11" stroke-dashoffset="30.11"><animate attributeName="stroke-dashoffset" values="30.11" fill="freeze" begin="8776.click" /><animate attributeName="stroke-dashoffset" values="30.11;30.11;0" keyTimes="0;0.893;1" dur="2.82s" fill="freeze" begin="0s;8776.click" /></path><path d="M80.55,11.75c0.85,0.85,1.03,1.87,0.96,2.78c-0.52,7.34-1.27,16.72-1.93,23.92" stroke-dasharray="27.04" stroke-dashoffset="27.04"><animate attributeName="stroke-dashoffset" values="27.04" fill="freeze" begin="8776.click" /><animate attributeName="stroke-dashoffset" values="27.04;27.04;0" keyTimes="0;0.913;1" dur="3.09s" fill="freeze" begin="0s;8776.click" /></path><path d="M68.54,40.89c2.4-0.17,5.6-0.53,8.34-0.83c1.64-0.18,3.11-0.34,4.14-0.43" stroke-dasharray="12.545" stroke-dashoffset="12.545"><animate attributeName="stroke-dashoffset" values="12.545" fill="freeze" begin="8776.click" /><animate attributeName="stroke-dashoffset" values="12.545;12.545;0" keyTimes="0;0.925;1" dur="3.341s" fill="freeze" begin="0s;8776.click" /></path><path d="M50.75,18.32c1.03,1.03,1.25,2.31,1.28,3.42c0.15,4.67-0.05,18.13-0.05,25.38c0,2.87,0.89,3.87,3.32,3.66c9.99-0.85,18.95-1.82,28.82-2.25c2.34-0.1,4.76-0.28,7.08,0.19" stroke-dasharray="71.043" stroke-dashoffset="71.043"><animate attributeName="stroke-dashoffset" values="71.043" fill="freeze" begin="8776.click" /><animate attributeName="stroke-dashoffset" values="71.043;71.043;0" keyTimes="0;0.862;1" dur="3.875s" fill="freeze" begin="0s;8776.click" /></path><path d="M43.24,65.15c2.67,0.88,5.54,0.6,8.27,0.38c8.8-0.69,23.49-2.03,36.12-2.73c2.97-0.16,6.1,0.2,9.02,0.8" stroke-dasharray="53.643" stroke-dashoffset="53.643"><animate attributeName="stroke-dashoffset" values="53.643" fill="freeze" begin="8776.click" /><animate attributeName="stroke-dashoffset" values="53.643;53.643;0" keyTimes="0;0.878;1" dur="4.411s" fill="freeze" begin="0s;8776.click" /></path><path d="M66.82,54.75c1.16,1.15,1.29,2.12,1.29,4c0,5.19-0.06,21.98-0.09,32.63C68,94.45,68,97,68,98.62" stroke-dasharray="44.222" stroke-dashoffset="44.222"><animate attributeName="stroke-dashoffset" values="44.222" fill="freeze" begin="8776.click" /><animate attributeName="stroke-dashoffset" values="44.222;44.222;0" keyTimes="0;0.909;1" dur="4.853s" fill="freeze" begin="0s;8776.click" /></path><path d="M65.1,65.23c0,1.39-0.49,2.44-1.29,3.76c-4.44,7.33-12.3,16.07-18.62,19.76" stroke-dasharray="31.404" stroke-dashoffset="31.404"><animate attributeName="stroke-dashoffset" values="31.404" fill="freeze" begin="8776.click" /><animate attributeName="stroke-dashoffset" values="31.404;31.404;0" keyTimes="0;0.939;1" dur="5.167s" fill="freeze" begin="0s;8776.click" /></path><path d="M69.88,65.75c4.41,4.81,13.5,13.5,19.74,18.77c2.25,1.9,4.26,3.11,7.45,4.61" stroke-dasharray="36.043" stroke-dashoffset="36.043"><animate attributeName="stroke-dashoffset" values="36.043" fill="freeze" begin="8776.click" /><animate attributeName="stroke-dashoffset" values="36.043;36.043;0" keyTimes="0;0.935;1" dur="5.527s" fill="freeze" begin="0s;8776.click" /></path></g></svg>