<svg xmlns="http://www.w3.org/2000/svg" viewBox="0 0 109 109" id="87ab"><g fill="none" stroke="#666" stroke-width="6" stroke-linecap="round" stroke-linejoin="round"><g><g><g><g><path d="M16.26,20.91c0.9,0.39,2.54,0.43,3.44,0.39c7.05-0.3,18.8-1.05,26.15-1.99c1.49-0.19,2.4,0.19,3.15,0.38" /><path d="M30.61,10.95c1.31,0.67,2.61,1.87,2.61,3.67c0,5.4,0.16,10.25,0,15.09" /><path d="M11.88,31.87c1.02,0.25,3.81,0.31,4.83,0.25c9.62-0.53,21.04-2.38,31.61-3.23c1.69-0.14,2.71,0.12,3.56,0.25" /></g><g><path d="M27.96,33.55c0.48,0.57,1.05,2.38,0.96,3.34C27.88,47.39,27,55,20.59,61.32" /><path d="M37.82,31.81c0.08,0.3,1.09,0.92,1.09,2.81c0,12.13-0.12,16.36-0.12,19.44c0,7.62-4.54,1.55-5.85,0.78" /><path d="M19.23,38.83c0.02,0.38,0.05,0.99-0.04,1.53c-0.54,3.24-2.83,9.47-7.05,13.81" /><path d="M45.62,38.99c2.08,1.79,5.38,7.37,5.9,10.16" /></g></g><g><g><path d="M62.84,13.62c0.02,0.51,0.14,1.36-0.04,2.07c-1.16,4.54-3.96,13.76-7.97,20.05" /><path d="M62.91,23.79c0.96,0.14,2.75,0,3.27-0.02C71.56,23.55,80.5,22,88.6,20.63c0.88-0.15,3.05-0.1,3.59,0.04" /></g><g><g><path d="M79.92,24.21c0.42,0.73-0.01,2.41-0.79,3.59C72.25,38.25,66,47.5,53.79,54.48" /></g><path d="M59.41,29.95c6.41,6.22,18.21,18.26,26.77,24.15c1.58,1.08,3.25,1.81,4.57,1.92" /></g></g></g><g><g><g><path d="M30.95,67.81c0.74,0.53,1.27,1.85,1.41,2.55c1.01,5.09,1.18,3.79,2.59,13.43" /><path d="M32.92,69.36c11.3-1.02,35.01-2.95,43.19-3.34c3.19-0.15,3.57,1.68,3.02,3.88c-0.77,3.1-1.91,5.1-2.93,8.97" /><path d="M35.38,81.74c9.09-1.02,31.05-2.1,43.77-3.06" /></g><g><path d="M52.98,56.75c1,0.39,1.6,1.75,1.8,2.52c0.2,0.78,0,28.09-0.2,32.94" /></g></g><path d="M22.85,95.23c1.16,0.52,1.85,1.16,3.01,1.03c1.16-0.13,44.48-6.05,51.66-7.08" /><path d="M71.11,83.75c6,2.51,15.5,10.33,17,14.24" /></g></g></g><g fill="none" stroke="#000" stroke-width="3" stroke-linecap="round" stroke-linejoin="round"><path d="M16.26,20.91c0.9,0.39,2.54,0.43,3.44,0.39c7.05-0.3,18.8-1.05,26.15-1.99c1.49-0.19,2.4,0.19,3.15,0.38" stroke-dasharray="32.918" stroke-dashoffset="32.918"><animate attributeName="stroke-dashoffset" values="32.918;32.918;0" dur="0.329s" fill="freeze" begin="0s;87ab.click" /></path><path d="M30.61,10.95c1.31,0.67,2.61,1.87,2.61,3.67c0,5.4,0.16,10.25,0,15.09" stroke-dasharray="19.842" stroke-dashoffset="19.842"><animate attributeName="stroke-dashoffset" values="19.842" fill="freeze" begin="87ab.click" /><animate attributeName="stroke-dashoffset" values="19.842;19.842;0" keyTimes="0;0.624;1" dur="0.527s" fill="freeze" begin="0s;87ab.click" /></path><path d="M11.88,31.87c1.02,0.25,3.81,0.31,4.83,0.25c9.62-0.53,21.04-2.38,31.61-3.23c1.69-0.14,2.71,0.12,3.56,0.25" stroke-dasharray="40.206" stroke-dashoffset="40.206"><animate attributeName="stroke-dashoffset" values="40.206" fill="freeze" begin="87ab.click" /><animate attributeName="stroke-dashoffset" values="40.206;40.206;0" keyTimes="0;0.567;1" dur="0.929s" fill="freeze" begin="0s;87ab.click" /></path><path d="M27.96,33.55c0.48,0.57,1.05,2.38,0.96,3.34C27.88,47.39,27,55,20.59,61.32" stroke-dasharray="29.954" stroke-dashoffset="29.954"><animate attributeName="stroke-dashoffset" values="29.954" fill="freeze" begin="87ab.click" /><animate attributeName="stroke-dashoffset" values="29.954;29.954;0" keyTimes="0;0.756;1" dur="1.229s" fill="freeze" begin="0s;87ab.click" /></path><path d="M37.82,31.81c0.08,0.3,1.09,0.92,1.09,2.81c0,12.13-0.12,16.36-0.12,19.44c0,7.62-4.54,1.55-5.85,0.78" stroke-dasharray="32.369" stroke-dashoffset="32.369"><animate attributeName="stroke-dashoffset" values="32.369" fill="freeze" begin="87ab.click" /><animate attributeName="stroke-dashoffset" values="32.369;32.369;0" keyTimes="0;0.791;1" dur="1.553s" fill="freeze" begin="0s;87ab.click" /></path><path d="M19.23,38.83c0.02,0.38,0.05,0.99-0.04,1.53c-0.54,3.24-2.83,9.47-7.05,13.81" stroke-dasharray="17.241" stroke-dashoffset="17.241"><animate attributeName="stroke-dashoffset" values="17.241" fill="freeze" begin="87ab.click" /><animate attributeName="stroke-dashoffset" values="17.241;17.241;0" keyTimes="0;0.9;1" dur="1.725s" fill="freeze" begin="0s;87ab.click" /></path><path d="M45.62,38.99c2.08,1.79,5.38,7.37,5.9,10.16" stroke-dasharray="11.877" stroke-dashoffset="11.877"><animate attributeName="stroke-dashoffset" values="11.877" fill="freeze" begin="87ab.click" /><animate attributeName="stroke-dashoffset" values="11.877;11.877;0" keyTimes="0;0.879;1" dur="1.963s" fill="freeze" begin="0s;87ab.click" /></path><path d="M62.84,13.62c0.02,0.51,0.14,1.36-0.04,2.07c-1.16,4.54-3.96,13.76-7.97,20.05" stroke-dasharray="23.735" stroke-dashoffset="23.735"><animate attributeName="stroke-dashoffset" values="23.735" fill="freeze" begin="87ab.click" /><animate attributeName="stroke-dashoffset" values="23.735;23.735;0" keyTimes="0;0.892;1" dur="2.2s" fill="freeze" begin="0s;87ab.click" /></path><path d="M62.91,23.79c0.96,0.14,2.75,0,3.27-0.02C71.56,23.55,80.5,22,88.6,20.63c0.88-0.15,3.05-0.1,3.59,0.04" stroke-dasharray="29.528" stroke-dashoffset="29.528"><animate attributeName="stroke-dashoffset" values="29.528" fill="freeze" begin="87ab.click" /><animate attributeName="stroke-dashoffset" values="29.528;29.528;0" keyTimes="0;0.882;1" dur="2.495s" fill="freeze" begin="0s;87ab.click" /></path><path d="M79.92,24.21c0.42,0.73-0.01,2.41-0.79,3.59C72.25,38.25,66,47.5,53.79,54.48" stroke-dasharray="41.01" stroke-dashoffset="41.01"><animate attributeName="stroke-dashoffset" values="41.01" fill="freeze" begin="87ab.click" /><animate attributeName="stroke-dashoffset" values="41.01;41.01;0" keyTimes="0;0.859;1" dur="2.905s" fill="freeze" begin="0s;87ab.click" /></path><path d="M59.41,29.95c6.41,6.22,18.21,18.26,26.77,24.15c1.58,1.08,3.25,1.81,4.57,1.92" stroke-dasharray="41.099" stroke-dashoffset="41.099"><animate attributeName="stroke-dashoffset" values="41.099" fill="freeze" begin="87ab.click" /><animate attributeName="stroke-dashoffset" values="41.099;41.099;0" keyTimes="0;0.876;1" dur="3.316s" fill="freeze" begin="0s;87ab.click" /></path><path d="M30.95,67.81c0.74,0.53,1.27,1.85,1.41,2.55c1.01,5.09,1.18,3.79,2.59,13.43" stroke-dasharray="16.653" stroke-dashoffset="16.653"><animate attributeName="stroke-dashoffset" values="16.653" fill="freeze" begin="87ab.click" /><animate attributeName="stroke-dashoffset" values="16.653;16.653;0" keyTimes="0;0.952;1" dur="3.483s" fill="freeze" begin="0s;87ab.click" /></path><path d="M32.92,69.36c11.3-1.02,35.01-2.95,43.19-3.34c3.19-0.15,3.57,1.68,3.02,3.88c-0.77,3.1-1.91,5.1-2.93,8.97" stroke-dasharray="58.915" stroke-dashoffset="58.915"><animate attributeName="stroke-dashoffset" values="58.915" fill="freeze" begin="87ab.click" /><animate attributeName="stroke-dashoffset" values="58.915;58.915;0" keyTimes="0;0.855;1" dur="4.072s" fill="freeze" begin="0s;87ab.click" /></path><path d="M35.38,81.74c9.09-1.02,31.05-2.1,43.77-3.06" stroke-dasharray="43.88" stroke-dashoffset="43.88"><animate attributeName="stroke-dashoffset" values="43.88" fill="freeze" begin="87ab.click" /><animate attributeName="stroke-dashoffset" values="43.88;43.88;0" keyTimes="0;0.903;1" dur="4.511s" fill="freeze" begin="0s;87ab.click" /></path><path d="M52.98,56.75c1,0.39,1.6,1.75,1.8,2.52c0.2,0.78,0,28.09-0.2,32.94" stroke-dasharray="36.144" stroke-dashoffset="36.144"><animate attributeName="stroke-dashoffset" values="36.144" fill="freeze" begin="87ab.click" /><animate attributeName="stroke-dashoffset" values="36.144;36.144;0" keyTimes="0;0.926;1" dur="4.872s" fill="freeze" begin="0s;87ab.click" /></path><path d="M22.85,95.23c1.16,0.52,1.85,1.16,3.01,1.03c1.16-0.13,44.48-6.05,51.66-7.08" stroke-dasharray="55.379" stroke-dashoffset="55.379"><animate attributeName="stroke-dashoffset" values="55.379" fill="freeze" begin="87ab.click" /><animate attributeName="stroke-dashoffset" values="55.379;55.379;0" keyTimes="0;0.898;1" dur="5.426s" fill="freeze" begin="0s;87ab.click" /></path><path d="M71.11,83.75c6,2.51,15.5,10.33,17,14.24" stroke-dasharray="22.495" stroke-dashoffset="22.495"><animate attributeName="stroke-dashoffset" values="22.495" fill="freeze" begin="87ab.click" /><animate attributeName="stroke-dashoffset" values="22.495;22.495;0" keyTimes="0;0.96;1" dur="5.651s" fill="freeze" begin="0s;87ab.click" /></path></g></svg>