<svg xmlns="http://www.w3.org/2000/svg" viewBox="0 0 109 109" id="8897"><g fill="none" stroke="#666" stroke-width="6" stroke-linecap="round" stroke-linejoin="round"><g><g><path d="M21.83,13.25c3.41,2.71,7.07,6.77,10,11.5" /><path d="M12.2,37.36c0.94,0.39,4.36,0.83,5.96,0.61c3.34-0.47,16.37-4.83,18.69-5.49c2.33-0.66,4.58,0.83,3.26,2.85C32.36,47.15,24.5,58.5,12.5,69.5" /><path d="M28.5,54.61c0.12,0.29,1.65,1.53,1.77,3.39c0.57,8.93,0.06,35.2,0.06,38.25" /><path d="M43.31,44.89c0.15,1.08,0.29,1.37,0,2.15c-0.88,2.36-3.6,8.17-5.36,10.96" /><path d="M34.33,59c2.65,2.59,5.48,6.47,7.75,11" /></g><g><path d="M66.93,13.75c0.06,0.93,0.26,2.47-0.11,3.76c-2.55,8.81-8.87,23.94-19.84,35.36" /><path d="M67.62,17.6c3.67,5.81,19.09,24.24,23.14,28.49c1.37,1.44,3.14,2.06,4.51,2.47" /><g><g><path d="M75.35,40.33c0.07,0.56,0.25,1.51-0.13,2.24c-2.47,4.78-10.78,14.07-23.01,20.59" /></g><g><path d="M81.63,54.89c0.08,0.6,0.3,1.63-0.17,2.39c-3.2,5.23-13.66,15.69-29.35,22.92" /></g><g><path d="M88.79,68.1c0.11,0.7,0.23,1.8-0.21,2.81c-2.6,5.92-17.55,18.89-38.01,26.84" /></g></g></g></g></g><g fill="none" stroke="#000" stroke-width="3" stroke-linecap="round" stroke-linejoin="round"><path d="M21.83,13.25c3.41,2.71,7.07,6.77,10,11.5" stroke-dasharray="15.312" stroke-dashoffset="15.312"><animate attributeName="stroke-dashoffset" values="15.312;15.312;0" dur="0.153s" fill="freeze" begin="0s;8897.click" /></path><path d="M12.2,37.36c0.94,0.39,4.36,0.83,5.96,0.61c3.34-0.47,16.37-4.83,18.69-5.49c2.33-0.66,4.58,0.83,3.26,2.85C32.36,47.15,24.5,58.5,12.5,69.5" stroke-dasharray="75.431" stroke-dashoffset="75.431"><animate attributeName="stroke-dashoffset" values="75.431" fill="freeze" begin="8897.click" /><animate attributeName="stroke-dashoffset" values="75.431;75.431;0" keyTimes="0;0.212;1" dur="0.72s" fill="freeze" begin="0s;8897.click" /></path><path d="M28.5,54.61c0.12,0.29,1.65,1.53,1.77,3.39c0.57,8.93,0.06,35.2,0.06,38.25" stroke-dasharray="42.156" stroke-dashoffset="42.156"><animate attributeName="stroke-dashoffset" values="42.156" fill="freeze" begin="8897.click" /><animate attributeName="stroke-dashoffset" values="42.156;42.156;0" keyTimes="0;0.63;1" dur="1.142s" fill="freeze" begin="0s;8897.click" /></path><path d="M43.31,44.89c0.15,1.08,0.29,1.37,0,2.15c-0.88,2.36-3.6,8.17-5.36,10.96" stroke-dasharray="14.398" stroke-dashoffset="14.398"><animate attributeName="stroke-dashoffset" values="14.398" fill="freeze" begin="8897.click" /><animate attributeName="stroke-dashoffset" values="14.398;14.398;0" keyTimes="0;0.799;1" dur="1.43s" fill="freeze" begin="0s;8897.click" /></path><path d="M34.33,59c2.65,2.59,5.48,6.47,7.75,11" stroke-dasharray="13.515" stroke-dashoffset="13.515"><animate attributeName="stroke-dashoffset" values="13.515" fill="freeze" begin="8897.click" /><animate attributeName="stroke-dashoffset" values="13.515;13.515;0" keyTimes="0;0.841;1" dur="1.7s" fill="freeze" begin="0s;8897.click" /></path><path d="M66.93,13.75c0.06,0.93,0.26,2.47-0.11,3.76c-2.55,8.81-8.87,23.94-19.84,35.36" stroke-dasharray="44.692" stroke-dashoffset="44.692"><animate attributeName="stroke-dashoffset" values="44.692" fill="freeze" begin="8897.click" /><animate attributeName="stroke-dashoffset" values="44.692;44.692;0" keyTimes="0;0.792;1" dur="2.147s" fill="freeze" begin="0s;8897.click" /></path><path d="M67.62,17.6c3.67,5.81,19.09,24.24,23.14,28.49c1.37,1.44,3.14,2.06,4.51,2.47" stroke-dasharray="41.931" stroke-dashoffset="41.931"><animate attributeName="stroke-dashoffset" values="41.931" fill="freeze" begin="8897.click" /><animate attributeName="stroke-dashoffset" values="41.931;41.931;0" keyTimes="0;0.837;1" dur="2.566s" fill="freeze" begin="0s;8897.click" /></path><path d="M75.35,40.33c0.07,0.56,0.25,1.51-0.13,2.24c-2.47,4.78-10.78,14.07-23.01,20.59" stroke-dasharray="33.522" stroke-dashoffset="33.522"><animate attributeName="stroke-dashoffset" values="33.522" fill="freeze" begin="8897.click" /><animate attributeName="stroke-dashoffset" values="33.522;33.522;0" keyTimes="0;0.885;1" dur="2.901s" fill="freeze" begin="0s;8897.click" /></path><path d="M81.63,54.89c0.08,0.6,0.3,1.63-0.17,2.39c-3.2,5.23-13.66,15.69-29.35,22.92" stroke-dasharray="40.104" stroke-dashoffset="40.104"><animate attributeName="stroke-dashoffset" values="40.104" fill="freeze" begin="8897.click" /><animate attributeName="stroke-dashoffset" values="40.104;40.104;0" keyTimes="0;0.879;1" dur="3.302s" fill="freeze" begin="0s;8897.click" /></path><path d="M88.79,68.1c0.11,0.7,0.23,1.8-0.21,2.81c-2.6,5.92-17.55,18.89-38.01,26.84" stroke-dasharray="50.097" stroke-dashoffset="50.097"><animate attributeName="stroke-dashoffset" values="50.097" fill="freeze" begin="8897.click" /><animate attributeName="stroke-dashoffset" values="50.097;50.097;0" keyTimes="0;0.868;1" dur="3.803s" fill="freeze" begin="0s;8897.click" /></path></g></svg>