<svg xmlns="http://www.w3.org/2000/svg" viewBox="0 0 109 109" id="88dd"><g fill="none" stroke="#666" stroke-width="6" stroke-linecap="round" stroke-linejoin="round"><g><g><g><path d="M39.84,8.72c0.75,0.86,1.24,2.33,1.24,3.33c0,9.68-0.02,44.27-0.02,47.57" /><path d="M21.76,13.06c0.86,0.4,1.19,1.37,1.27,2.7c0.11,1.99-0.97,9.39-1.23,11.47c-0.09,0.66,0.17,1.8,1.44,1.55c4.43-0.89,13.02-2.03,17.52-2.02" /><path d="M14.25,41.03c1.46,0.1,1.76,0.4,3.46,0.33c7.28-0.3,18.11-3.41,23.19-3.57" /><path d="M26.72,40.81c0.03,0.47-0.06,1.21-0.06,1.89c0,5.79-1.76,12.23-10.22,18.08" /></g><g><path d="M46.5,29.09c1.15,0.27,3.47,0.51,5.86,0.33c11.75-0.89,22.68-3.54,36.61-3.83c1.79-0.04,3.45,0.16,4.35,0.33" /><path d="M66.22,9.75c0.13,0.32,1.93,1.65,1.93,3.68c0,7.07,0.11,26.57,0.11,32.98" /><path d="M50.92,49.17c1.06,0.19,3,0.23,4.06,0.19c13.13-0.52,20.39-2.54,32.13-2.79c1.76-0.04,2.83,0.09,3.71,0.18" /></g></g><g><g><path d="M55.29,54.25c0.66,0.35,1.75,1.59,1.75,2.42c0,1.35-0.09,6.77-0.09,8.26" /><path d="M18.5,68.18c1.65,0.07,5.41,0.5,7.01,0.39c15.24-1.06,43.74-4.81,58.39-5.81c2.71-0.18,4.1,0.03,6.12,0.5" /></g><g><path d="M48.93,66.66c0.09,0.55,0.35,1.46-0.18,2.2c-3.42,4.78-16.5,14.89-31.7,21.04" /><path d="M42.22,79.67c0.45,0.31,0.94,1.62,0.94,2.16c-0.03,6.85-0.3,14.67-0.3,15.83c0,1.16,1.11,1.82,2.52,0.95c1.41-0.87,10.88-8.86,16.34-12.74" /><path d="M76.97,68.62c0.03,0.26,0.33,1.27,0.14,1.62c-1.18,2.17-4.85,5.28-10.84,9.61" /><path d="M54.54,71.33c1.58,0.75,4.1,2.86,4.54,3.18c6.45,4.71,22.12,16.75,26.48,19.52c1.64,1.05,3.04,1.49,4.69,1.79" /></g></g></g></g><g fill="none" stroke="#000" stroke-width="3" stroke-linecap="round" stroke-linejoin="round"><path d="M39.84,8.72c0.75,0.86,1.24,2.33,1.24,3.33c0,9.68-0.02,44.27-0.02,47.57" stroke-dasharray="51.187" stroke-dashoffset="51.187"><animate attributeName="stroke-dashoffset" values="51.187;51.187;0" dur="0.512s" fill="freeze" begin="0s;88dd.click" /></path><path d="M21.76,13.06c0.86,0.4,1.19,1.37,1.27,2.7c0.11,1.99-0.97,9.39-1.23,11.47c-0.09,0.66,0.17,1.8,1.44,1.55c4.43-0.89,13.02-2.03,17.52-2.02" stroke-dasharray="34.892" stroke-dashoffset="34.892"><animate attributeName="stroke-dashoffset" values="34.892" fill="freeze" begin="88dd.click" /><animate attributeName="stroke-dashoffset" values="34.892;34.892;0" keyTimes="0;0.595;1" dur="0.861s" fill="freeze" begin="0s;88dd.click" /></path><path d="M14.25,41.03c1.46,0.1,1.76,0.4,3.46,0.33c7.28-0.3,18.11-3.41,23.19-3.57" stroke-dasharray="26.969" stroke-dashoffset="26.969"><animate attributeName="stroke-dashoffset" values="26.969" fill="freeze" begin="88dd.click" /><animate attributeName="stroke-dashoffset" values="26.969;26.969;0" keyTimes="0;0.761;1" dur="1.131s" fill="freeze" begin="0s;88dd.click" /></path><path d="M26.72,40.81c0.03,0.47-0.06,1.21-0.06,1.89c0,5.79-1.76,12.23-10.22,18.08" stroke-dasharray="23.612" stroke-dashoffset="23.612"><animate attributeName="stroke-dashoffset" values="23.612" fill="freeze" begin="88dd.click" /><animate attributeName="stroke-dashoffset" values="23.612;23.612;0" keyTimes="0;0.827;1" dur="1.367s" fill="freeze" begin="0s;88dd.click" /></path><path d="M46.5,29.09c1.15,0.27,3.47,0.51,5.86,0.33c11.75-0.89,22.68-3.54,36.61-3.83c1.79-0.04,3.45,0.16,4.35,0.33" stroke-dasharray="47.088" stroke-dashoffset="47.088"><animate attributeName="stroke-dashoffset" values="47.088" fill="freeze" begin="88dd.click" /><animate attributeName="stroke-dashoffset" values="47.088;47.088;0" keyTimes="0;0.744;1" dur="1.838s" fill="freeze" begin="0s;88dd.click" /></path><path d="M66.22,9.75c0.13,0.32,1.93,1.65,1.93,3.68c0,7.07,0.11,26.57,0.11,32.98" stroke-dasharray="37.245" stroke-dashoffset="37.245"><animate attributeName="stroke-dashoffset" values="37.245" fill="freeze" begin="88dd.click" /><animate attributeName="stroke-dashoffset" values="37.245;37.245;0" keyTimes="0;0.832;1" dur="2.21s" fill="freeze" begin="0s;88dd.click" /></path><path d="M50.92,49.17c1.06,0.19,3,0.23,4.06,0.19c13.13-0.52,20.39-2.54,32.13-2.79c1.76-0.04,2.83,0.09,3.71,0.18" stroke-dasharray="40.053" stroke-dashoffset="40.053"><animate attributeName="stroke-dashoffset" values="40.053" fill="freeze" begin="88dd.click" /><animate attributeName="stroke-dashoffset" values="40.053;40.053;0" keyTimes="0;0.846;1" dur="2.611s" fill="freeze" begin="0s;88dd.click" /></path><path d="M55.29,54.25c0.66,0.35,1.75,1.59,1.75,2.42c0,1.35-0.09,6.77-0.09,8.26" stroke-dasharray="11.344" stroke-dashoffset="11.344"><animate attributeName="stroke-dashoffset" values="11.344" fill="freeze" begin="88dd.click" /><animate attributeName="stroke-dashoffset" values="11.344;11.344;0" keyTimes="0;0.92;1" dur="2.838s" fill="freeze" begin="0s;88dd.click" /></path><path d="M18.5,68.18c1.65,0.07,5.41,0.5,7.01,0.39c15.24-1.06,43.74-4.81,58.39-5.81c2.71-0.18,4.1,0.03,6.12,0.5" stroke-dasharray="71.877" stroke-dashoffset="71.877"><animate attributeName="stroke-dashoffset" values="71.877" fill="freeze" begin="88dd.click" /><animate attributeName="stroke-dashoffset" values="71.877;71.877;0" keyTimes="0;0.84;1" dur="3.378s" fill="freeze" begin="0s;88dd.click" /></path><path d="M48.93,66.66c0.09,0.55,0.35,1.46-0.18,2.2c-3.42,4.78-16.5,14.89-31.7,21.04" stroke-dasharray="40.649" stroke-dashoffset="40.649"><animate attributeName="stroke-dashoffset" values="40.649" fill="freeze" begin="88dd.click" /><animate attributeName="stroke-dashoffset" values="40.649;40.649;0" keyTimes="0;0.893;1" dur="3.784s" fill="freeze" begin="0s;88dd.click" /></path><path d="M42.22,79.67c0.45,0.31,0.94,1.62,0.94,2.16c-0.03,6.85-0.3,14.67-0.3,15.83c0,1.16,1.11,1.82,2.52,0.95c1.41-0.87,10.88-8.86,16.34-12.74" stroke-dasharray="42.368" stroke-dashoffset="42.368"><animate attributeName="stroke-dashoffset" values="42.368" fill="freeze" begin="88dd.click" /><animate attributeName="stroke-dashoffset" values="42.368;42.368;0" keyTimes="0;0.899;1" dur="4.208s" fill="freeze" begin="0s;88dd.click" /></path><path d="M76.97,68.62c0.03,0.26,0.33,1.27,0.14,1.62c-1.18,2.17-4.85,5.28-10.84,9.61" stroke-dasharray="16.213" stroke-dashoffset="16.213"><animate attributeName="stroke-dashoffset" values="16.213" fill="freeze" begin="88dd.click" /><animate attributeName="stroke-dashoffset" values="16.213;16.213;0" keyTimes="0;0.963;1" dur="4.37s" fill="freeze" begin="0s;88dd.click" /></path><path d="M54.54,71.33c1.58,0.75,4.1,2.86,4.54,3.18c6.45,4.71,22.12,16.75,26.48,19.52c1.64,1.05,3.04,1.49,4.69,1.79" stroke-dasharray="43.51" stroke-dashoffset="43.51"><animate attributeName="stroke-dashoffset" values="43.51" fill="freeze" begin="88dd.click" /><animate attributeName="stroke-dashoffset" values="43.51;43.51;0" keyTimes="0;0.909;1" dur="4.805s" fill="freeze" begin="0s;88dd.click" /></path></g></svg>