<svg xmlns="http://www.w3.org/2000/svg" viewBox="0 0 109 109" id="8910"><g fill="none" stroke="#666" stroke-width="6" stroke-linecap="round" stroke-linejoin="round"><g><g><path d="M22.75,12.5c3.27,2.41,6.77,6.03,9.58,10.25" /><path d="M12.45,35.11c1.77,0.74,4.59,0.62,6.43,0.18c4.64-1.12,17-4.5,18.97-5.06c2.33-0.66,3.83,1.08,2.51,3.1C32.61,45.15,24.12,57.62,12,68.5" /><path d="M29.5,51.11c0.88,0.88,1.27,2.14,1.27,3.64c0,8.58,0.05,24,0.05,34.5c0,2.51,0.01,4.59,0.01,6" /><path d="M43.5,44.64c0.2,0.85-0.1,1.83-0.5,2.45c-1.2,1.87-3.4,4.7-5.8,6.91" /><path d="M33.5,54.88c3.1,2.38,6.42,5.95,9.08,10.12" /></g><g p4:phon="曷" xmlns:p4="http://kanjivg.tagaini.net"><g><path d="M50.47,15.97c1.03,1.03,1.6,2.58,1.76,3.89c0.46,3.71,1.44,11.39,2.11,16.66c0.38,2.98,0.53,3.48,0.7,5.21" /><path d="M52.8,17.31c3.51-0.53,21.32-2.72,27.46-3.37c3.3-0.35,5.03,0.41,4.58,3.95c-0.76,6.05-1.9,11.6-3.26,17.88c-0.34,1.56-0.69,3.17-1.05,4.84" /><path d="M54.14,29.2c4.99-0.7,22.36-2.7,29.44-3.23" /><path d="M55.89,40.13c7.74-0.88,16.95-2.15,24.03-2.53" /></g><g><g><g><path d="M60.68,42.48c0.04,0.61-0.06,1.61-0.33,2.44c-2.1,6.23-7.61,15.61-15.6,23.58" /></g><path d="M60.37,51.9c2.38,0.35,4.06,0.22,5.63-0.03c5.13-0.81,18.28-2.85,23.37-3.46c4.37-0.52,5.38,0.26,5.11,4.72c-0.45,7.73-3.41,26.56-9.82,39.13c-2.44,4.79-4.3,5.89-8.15,1.75" /></g><g><g><path d="M76.01,61.5c-0.14,1.12-0.7,1.96-1.62,2.52c-4.02,2.48-8.64,4.98-17.28,8.23" /><path d="M52.88,63.62c0.8,0.77,1.13,1.75,1.13,2.81c0,2.83,0.14,4.76,0.14,9.79s1.84,5.37,12.91,5.37s11.98-0.96,11.98-6.45" /></g></g></g></g></g></g><g fill="none" stroke="#000" stroke-width="3" stroke-linecap="round" stroke-linejoin="round"><path d="M22.75,12.5c3.27,2.41,6.77,6.03,9.58,10.25" stroke-dasharray="14.098" stroke-dashoffset="14.098"><animate attributeName="stroke-dashoffset" values="14.098;14.098;0" dur="0.282s" fill="freeze" begin="0s;8910.click" /></path><path d="M12.45,35.11c1.77,0.74,4.59,0.62,6.43,0.18c4.64-1.12,17-4.5,18.97-5.06c2.33-0.66,3.83,1.08,2.51,3.1C32.61,45.15,24.12,57.62,12,68.5" stroke-dasharray="77.051" stroke-dashoffset="77.051"><animate attributeName="stroke-dashoffset" values="77.051" fill="freeze" begin="8910.click" /><animate attributeName="stroke-dashoffset" values="77.051;77.051;0" keyTimes="0;0.328;1" dur="0.861s" fill="freeze" begin="0s;8910.click" /></path><path d="M29.5,51.11c0.88,0.88,1.27,2.14,1.27,3.64c0,8.58,0.05,24,0.05,34.5c0,2.51,0.01,4.59,0.01,6" stroke-dasharray="44.46" stroke-dashoffset="44.46"><animate attributeName="stroke-dashoffset" values="44.46" fill="freeze" begin="8910.click" /><animate attributeName="stroke-dashoffset" values="44.46;44.46;0" keyTimes="0;0.659;1" dur="1.306s" fill="freeze" begin="0s;8910.click" /></path><path d="M43.5,44.64c0.2,0.85-0.1,1.83-0.5,2.45c-1.2,1.87-3.4,4.7-5.8,6.91" stroke-dasharray="11.607" stroke-dashoffset="11.607"><animate attributeName="stroke-dashoffset" values="11.607" fill="freeze" begin="8910.click" /><animate attributeName="stroke-dashoffset" values="11.607;11.607;0" keyTimes="0;0.849;1" dur="1.538s" fill="freeze" begin="0s;8910.click" /></path><path d="M33.5,54.88c3.1,2.38,6.42,5.95,9.08,10.12" stroke-dasharray="13.662" stroke-dashoffset="13.662"><animate attributeName="stroke-dashoffset" values="13.662" fill="freeze" begin="8910.click" /><animate attributeName="stroke-dashoffset" values="13.662;13.662;0" keyTimes="0;0.849;1" dur="1.811s" fill="freeze" begin="0s;8910.click" /></path><path d="M50.47,15.97c1.03,1.03,1.6,2.58,1.76,3.89c0.46,3.71,1.44,11.39,2.11,16.66c0.38,2.98,0.53,3.48,0.7,5.21" stroke-dasharray="26.395" stroke-dashoffset="26.395"><animate attributeName="stroke-dashoffset" values="26.395" fill="freeze" begin="8910.click" /><animate attributeName="stroke-dashoffset" values="26.395;26.395;0" keyTimes="0;0.873;1" dur="2.075s" fill="freeze" begin="0s;8910.click" /></path><path d="M52.8,17.31c3.51-0.53,21.32-2.72,27.46-3.37c3.3-0.35,5.03,0.41,4.58,3.95c-0.76,6.05-1.9,11.6-3.26,17.88c-0.34,1.56-0.69,3.17-1.05,4.84" stroke-dasharray="58.335" stroke-dashoffset="58.335"><animate attributeName="stroke-dashoffset" values="58.335" fill="freeze" begin="8910.click" /><animate attributeName="stroke-dashoffset" values="58.335;58.335;0" keyTimes="0;0.781;1" dur="2.658s" fill="freeze" begin="0s;8910.click" /></path><path d="M54.14,29.2c4.99-0.7,22.36-2.7,29.44-3.23" stroke-dasharray="29.62" stroke-dashoffset="29.62"><animate attributeName="stroke-dashoffset" values="29.62" fill="freeze" begin="8910.click" /><animate attributeName="stroke-dashoffset" values="29.62;29.62;0" keyTimes="0;0.9;1" dur="2.954s" fill="freeze" begin="0s;8910.click" /></path><path d="M55.89,40.13c7.74-0.88,16.95-2.15,24.03-2.53" stroke-dasharray="24.168" stroke-dashoffset="24.168"><animate attributeName="stroke-dashoffset" values="24.168" fill="freeze" begin="8910.click" /><animate attributeName="stroke-dashoffset" values="24.168;24.168;0" keyTimes="0;0.924;1" dur="3.196s" fill="freeze" begin="0s;8910.click" /></path><path d="M60.68,42.48c0.04,0.61-0.06,1.61-0.33,2.44c-2.1,6.23-7.61,15.61-15.6,23.58" stroke-dasharray="30.966" stroke-dashoffset="30.966"><animate attributeName="stroke-dashoffset" values="30.966" fill="freeze" begin="8910.click" /><animate attributeName="stroke-dashoffset" values="30.966;30.966;0" keyTimes="0;0.912;1" dur="3.506s" fill="freeze" begin="0s;8910.click" /></path><path d="M60.37,51.9c2.38,0.35,4.06,0.22,5.63-0.03c5.13-0.81,18.28-2.85,23.37-3.46c4.37-0.52,5.38,0.26,5.11,4.72c-0.45,7.73-3.41,26.56-9.82,39.13c-2.44,4.79-4.3,5.89-8.15,1.75" stroke-dasharray="89.856" stroke-dashoffset="89.856"><animate attributeName="stroke-dashoffset" values="89.856" fill="freeze" begin="8910.click" /><animate attributeName="stroke-dashoffset" values="89.856;89.856;0" keyTimes="0;0.838;1" dur="4.182s" fill="freeze" begin="0s;8910.click" /></path><path d="M76.01,61.5c-0.14,1.12-0.7,1.96-1.62,2.52c-4.02,2.48-8.64,4.98-17.28,8.23" stroke-dasharray="22.281" stroke-dashoffset="22.281"><animate attributeName="stroke-dashoffset" values="22.281" fill="freeze" begin="8910.click" /><animate attributeName="stroke-dashoffset" values="22.281;22.281;0" keyTimes="0;0.949;1" dur="4.405s" fill="freeze" begin="0s;8910.click" /></path><path d="M52.88,63.62c0.8,0.77,1.13,1.75,1.13,2.81c0,2.83,0.14,4.76,0.14,9.79s1.84,5.37,12.91,5.37s11.98-0.96,11.98-6.45" stroke-dasharray="45.312" stroke-dashoffset="45.312"><animate attributeName="stroke-dashoffset" values="45.312" fill="freeze" begin="8910.click" /><animate attributeName="stroke-dashoffset" values="45.312;45.312;0" keyTimes="0;0.907;1" dur="4.858s" fill="freeze" begin="0s;8910.click" /></path></g></svg>