<svg xmlns="http://www.w3.org/2000/svg" viewBox="0 0 109 109" id="895e"><g fill="none" stroke="#666" stroke-width="6" stroke-linecap="round" stroke-linejoin="round"><g><g><g><g><g><path d="M20.38,16.08c1.13,0.3,3.32,0.57,4.52,0.5c6.46-0.33,17.07-2.6,19.66-2.72c1.28-0.06,2.45,0.76,2.18,1.63c-0.67,2.15-2.04,5.43-3.1,10.19" /><path d="M24.92,29.01c3.24-0.1,13.07-1.85,21.42-2.27" /><path d="M23.65,16.89c0.1,1.86,0.25,4.41,0.23,5.87c-0.18,10.55-4.47,23.95-12.83,30.71" /></g><g><path d="M24.59,38.13c0.14,0.46,0.62,1.49,0.67,1.84c0.35,2.54,1.94,8.85,2.44,13.66" /><path d="M25.31,39.29c3.96-0.51,16.86-2.75,19.56-2.83c1.12-0.03,1.54,1.07,1.38,1.83c-0.61,3.01-2.12,6.69-2.71,10.53" /><path d="M27.91,51.15c3.27-0.21,13.46-1.68,17.38-1.95" /></g></g></g><g><g><g><path d="M69.5,9.09c1.26,0.8,1.88,0.8,1.88,2.67c0,1.87,0,3.47,0,5.93" /><path d="M56.86,18.94c1.1,0.35,2.39,0.41,3.49,0.35c6.22-0.3,18.15-1.79,25.1-2.5c1.83-0.18,2.94,0.17,3.86,0.35" /></g><g><path d="M62.58,21.4c2.34,2.61,3.41,5.27,3.62,6.99" /><path d="M81.08,20.05c0.39,0.29,0.13,1.37,0.02,1.59c-1.13,2.2-2.57,5.97-3.34,7.23" /><path d="M53.97,31.79c1.67,0.39,3.62,0.51,5.29,0.39c9.48-0.68,21.98-1.68,29.84-2.58c2.77-0.32,4.46,0.19,5.85,0.38" /></g></g><g><path d="M56.83,41.68c1.2,0.24,3.4,0.3,4.6,0.24C69,41.5,80.75,40,87.02,39.99c2,0,3.2,0.11,4.2,0.23" /><path d="M71.26,33.34c0.44,0.24,1.38,1.83,1.47,2.31c0.51,2.8-0.13,17.43-0.15,18.15" /></g></g></g><g><g><path d="M52.29,47.75c0.66,0.35,1.75,1.59,1.75,2.42c0,1.35-0.09,9.77-0.09,11.26" /><path d="M20,63.75c1.42,0.06,4.65,0.46,6.02,0.33c14.98-1.33,46.13-4.67,61.24-4.85c2.33-0.03,3.52,0.03,5.26,0.43" /></g><g><path d="M50.41,63.66c0.1,0.66,0.4,1.76-0.2,2.65c-3.9,5.76-20.28,18.24-36.15,25.34" /><path d="M40.72,80.17c0.45,0.31,0.94,1.62,0.94,2.16c-0.03,6.85-0.3,12.67-0.3,13.83c0,1.16,1.11,1.82,2.52,0.95c1.41-0.87,10.88-7.36,16.34-11.24" /><path d="M77.01,65.12c0.03,0.26,0.27,1.24,0.12,1.58c-0.96,2.13-3.96,5.16-8.85,9.4" /><path d="M54.04,65.83c1.66,0.85,4.3,3.24,4.76,3.6c6.76,5.34,23.21,18.97,27.78,22.11c1.72,1.19,3.19,1.69,4.92,2.03" /></g></g></g></g><g fill="none" stroke="#000" stroke-width="3" stroke-linecap="round" stroke-linejoin="round"><path d="M20.38,16.08c1.13,0.3,3.32,0.57,4.52,0.5c6.46-0.33,17.07-2.6,19.66-2.72c1.28-0.06,2.45,0.76,2.18,1.63c-0.67,2.15-2.04,5.43-3.1,10.19" stroke-dasharray="38.203" stroke-dashoffset="38.203"><animate attributeName="stroke-dashoffset" values="38.203;38.203;0" dur="0.382s" fill="freeze" begin="0s;895e.click" /></path><path d="M24.92,29.01c3.24-0.1,13.07-1.85,21.42-2.27" stroke-dasharray="21.547" stroke-dashoffset="21.547"><animate attributeName="stroke-dashoffset" values="21.547" fill="freeze" begin="895e.click" /><animate attributeName="stroke-dashoffset" values="21.547;21.547;0" keyTimes="0;0.64;1" dur="0.597s" fill="freeze" begin="0s;895e.click" /></path><path d="M23.65,16.89c0.1,1.86,0.25,4.41,0.23,5.87c-0.18,10.55-4.47,23.95-12.83,30.71" stroke-dasharray="40.11" stroke-dashoffset="40.11"><animate attributeName="stroke-dashoffset" values="40.11" fill="freeze" begin="895e.click" /><animate attributeName="stroke-dashoffset" values="40.11;40.11;0" keyTimes="0;0.598;1" dur="0.998s" fill="freeze" begin="0s;895e.click" /></path><path d="M24.59,38.13c0.14,0.46,0.62,1.49,0.67,1.84c0.35,2.54,1.94,8.85,2.44,13.66" stroke-dasharray="15.842" stroke-dashoffset="15.842"><animate attributeName="stroke-dashoffset" values="15.842" fill="freeze" begin="895e.click" /><animate attributeName="stroke-dashoffset" values="15.842;15.842;0" keyTimes="0;0.863;1" dur="1.156s" fill="freeze" begin="0s;895e.click" /></path><path d="M25.31,39.29c3.96-0.51,16.86-2.75,19.56-2.83c1.12-0.03,1.54,1.07,1.38,1.83c-0.61,3.01-2.12,6.69-2.71,10.53" stroke-dasharray="33.298" stroke-dashoffset="33.298"><animate attributeName="stroke-dashoffset" values="33.298" fill="freeze" begin="895e.click" /><animate attributeName="stroke-dashoffset" values="33.298;33.298;0" keyTimes="0;0.776;1" dur="1.489s" fill="freeze" begin="0s;895e.click" /></path><path d="M27.91,51.15c3.27-0.21,13.46-1.68,17.38-1.95" stroke-dasharray="17.492" stroke-dashoffset="17.492"><animate attributeName="stroke-dashoffset" values="17.492" fill="freeze" begin="895e.click" /><animate attributeName="stroke-dashoffset" values="17.492;17.492;0" keyTimes="0;0.895;1" dur="1.664s" fill="freeze" begin="0s;895e.click" /></path><path d="M69.5,9.09c1.26,0.8,1.88,0.8,1.88,2.67c0,1.87,0,3.47,0,5.93" stroke-dasharray="9.472" stroke-dashoffset="9.472"><animate attributeName="stroke-dashoffset" values="9.472" fill="freeze" begin="895e.click" /><animate attributeName="stroke-dashoffset" values="9.472;9.472;0" keyTimes="0;0.898;1" dur="1.853s" fill="freeze" begin="0s;895e.click" /></path><path d="M56.86,18.94c1.1,0.35,2.39,0.41,3.49,0.35c6.22-0.3,18.15-1.79,25.1-2.5c1.83-0.18,2.94,0.17,3.86,0.35" stroke-dasharray="32.65" stroke-dashoffset="32.65"><animate attributeName="stroke-dashoffset" values="32.65" fill="freeze" begin="895e.click" /><animate attributeName="stroke-dashoffset" values="32.65;32.65;0" keyTimes="0;0.85;1" dur="2.18s" fill="freeze" begin="0s;895e.click" /></path><path d="M62.58,21.4c2.34,2.61,3.41,5.27,3.62,6.99" stroke-dasharray="7.982" stroke-dashoffset="7.982"><animate attributeName="stroke-dashoffset" values="7.982" fill="freeze" begin="895e.click" /><animate attributeName="stroke-dashoffset" values="7.982;7.982;0" keyTimes="0;0.932;1" dur="2.34s" fill="freeze" begin="0s;895e.click" /></path><path d="M81.08,20.05c0.39,0.29,0.13,1.37,0.02,1.59c-1.13,2.2-2.57,5.97-3.34,7.23" stroke-dasharray="9.638" stroke-dashoffset="9.638"><animate attributeName="stroke-dashoffset" values="9.638" fill="freeze" begin="895e.click" /><animate attributeName="stroke-dashoffset" values="9.638;9.638;0" keyTimes="0;0.924;1" dur="2.533s" fill="freeze" begin="0s;895e.click" /></path><path d="M53.97,31.79c1.67,0.39,3.62,0.51,5.29,0.39c9.48-0.68,21.98-1.68,29.84-2.58c2.77-0.32,4.46,0.19,5.85,0.38" stroke-dasharray="41.165" stroke-dashoffset="41.165"><animate attributeName="stroke-dashoffset" values="41.165" fill="freeze" begin="895e.click" /><animate attributeName="stroke-dashoffset" values="41.165;41.165;0" keyTimes="0;0.86;1" dur="2.945s" fill="freeze" begin="0s;895e.click" /></path><path d="M56.83,41.68c1.2,0.24,3.4,0.3,4.6,0.24C69,41.5,80.75,40,87.02,39.99c2,0,3.2,0.11,4.2,0.23" stroke-dasharray="34.493" stroke-dashoffset="34.493"><animate attributeName="stroke-dashoffset" values="34.493" fill="freeze" begin="895e.click" /><animate attributeName="stroke-dashoffset" values="34.493;34.493;0" keyTimes="0;0.895;1" dur="3.29s" fill="freeze" begin="0s;895e.click" /></path><path d="M71.26,33.34c0.44,0.24,1.38,1.83,1.47,2.31c0.51,2.8-0.13,17.43-0.15,18.15" stroke-dasharray="20.935" stroke-dashoffset="20.935"><animate attributeName="stroke-dashoffset" values="20.935" fill="freeze" begin="895e.click" /><animate attributeName="stroke-dashoffset" values="20.935;20.935;0" keyTimes="0;0.94;1" dur="3.499s" fill="freeze" begin="0s;895e.click" /></path><path d="M52.29,47.75c0.66,0.35,1.75,1.59,1.75,2.42c0,1.35-0.09,9.77-0.09,11.26" stroke-dasharray="14.344" stroke-dashoffset="14.344"><animate attributeName="stroke-dashoffset" values="14.344" fill="freeze" begin="895e.click" /><animate attributeName="stroke-dashoffset" values="14.344;14.344;0" keyTimes="0;0.924;1" dur="3.786s" fill="freeze" begin="0s;895e.click" /></path><path d="M20,63.75c1.42,0.06,4.65,0.46,6.02,0.33c14.98-1.33,46.13-4.67,61.24-4.85c2.33-0.03,3.52,0.03,5.26,0.43" stroke-dasharray="72.772" stroke-dashoffset="72.772"><animate attributeName="stroke-dashoffset" values="72.772" fill="freeze" begin="895e.click" /><animate attributeName="stroke-dashoffset" values="72.772;72.772;0" keyTimes="0;0.874;1" dur="4.333s" fill="freeze" begin="0s;895e.click" /></path><path d="M50.41,63.66c0.1,0.66,0.4,1.76-0.2,2.65c-3.9,5.76-20.28,18.24-36.15,25.34" stroke-dasharray="47.209" stroke-dashoffset="47.209"><animate attributeName="stroke-dashoffset" values="47.209" fill="freeze" begin="895e.click" /><animate attributeName="stroke-dashoffset" values="47.209;47.209;0" keyTimes="0;0.902;1" dur="4.805s" fill="freeze" begin="0s;895e.click" /></path><path d="M40.72,80.17c0.45,0.31,0.94,1.62,0.94,2.16c-0.03,6.85-0.3,12.67-0.3,13.83c0,1.16,1.11,1.82,2.52,0.95c1.41-0.87,10.88-7.36,16.34-11.24" stroke-dasharray="39.479" stroke-dashoffset="39.479"><animate attributeName="stroke-dashoffset" values="39.479" fill="freeze" begin="895e.click" /><animate attributeName="stroke-dashoffset" values="39.479;39.479;0" keyTimes="0;0.924;1" dur="5.2s" fill="freeze" begin="0s;895e.click" /></path><path d="M77.01,65.12c0.03,0.26,0.27,1.24,0.12,1.58c-0.96,2.13-3.96,5.16-8.85,9.4" stroke-dasharray="14.58" stroke-dashoffset="14.58"><animate attributeName="stroke-dashoffset" values="14.58" fill="freeze" begin="895e.click" /><animate attributeName="stroke-dashoffset" values="14.58;14.58;0" keyTimes="0;0.947;1" dur="5.492s" fill="freeze" begin="0s;895e.click" /></path><path d="M54.04,65.83c1.66,0.85,4.3,3.24,4.76,3.6c6.76,5.34,23.21,18.97,27.78,22.11c1.72,1.19,3.19,1.69,4.92,2.03" stroke-dasharray="46.853" stroke-dashoffset="46.853"><animate attributeName="stroke-dashoffset" values="46.853" fill="freeze" begin="895e.click" /><animate attributeName="stroke-dashoffset" values="46.853;46.853;0" keyTimes="0;0.921;1" dur="5.961s" fill="freeze" begin="0s;895e.click" /></path></g></svg>