<svg xmlns="http://www.w3.org/2000/svg" viewBox="0 0 109 109" id="897f"><g fill="none" stroke="#666" stroke-width="6" stroke-linecap="round" stroke-linejoin="round"><g><path d="M20.63,24.22c2.31,0.34,6.05,0.3,8.35,0.09c15.15-1.43,36.18-3.38,49.83-4.02c3.84-0.18,6.66-0.09,8.58,0.08" /><path d="M18.25,48.63c1.25,1.25,2.14,3.42,2.33,4.49c1.25,6.77,3.24,20.18,5.12,33.35c0.27,1.87,0.53,3.72,0.77,5.53" /><path d="M20.75,50.26c17.77-1.6,53.73-5.05,63.68-5.27c4.51-0.1,7.27,2.79,6.55,6.54c-1.6,8.35-4.1,21.97-6.49,32.97c-0.36,1.68-0.61,2.5-1.13,4.6" /><path d="M42.75,26.75c0.5,1.25,0.81,3.99,0.85,5.73C43.98,48.84,42,64.5,30.64,73.77" /><path d="M60.6,24.46c0.94,1.12,1.74,2.94,1.74,4.67c0,13.33-0.45,21.61-0.45,27.37c0,10.25,0.62,11.14,11.36,11.14c6.38,0,8.94-0.54,10.55-1.53" /><path d="M27.34,88.55C40.75,88,66.69,86.2,83,85.97" /></g></g><g fill="none" stroke="#000" stroke-width="3" stroke-linecap="round" stroke-linejoin="round"><path d="M20.63,24.22c2.31,0.34,6.05,0.3,8.35,0.09c15.15-1.43,36.18-3.38,49.83-4.02c3.84-0.18,6.66-0.09,8.58,0.08" stroke-dasharray="66.949" stroke-dashoffset="66.949"><animate attributeName="stroke-dashoffset" values="66.949;66.949;0" dur="0.503s" fill="freeze" begin="0s;897f.click" /></path><path d="M18.25,48.63c1.25,1.25,2.14,3.42,2.33,4.49c1.25,6.77,3.24,20.18,5.12,33.35c0.27,1.87,0.53,3.72,0.77,5.53" stroke-dasharray="44.445" stroke-dashoffset="44.445"><animate attributeName="stroke-dashoffset" values="44.445" fill="freeze" begin="897f.click" /><animate attributeName="stroke-dashoffset" values="44.445;44.445;0" keyTimes="0;0.531;1" dur="0.947s" fill="freeze" begin="0s;897f.click" /></path><path d="M20.75,50.26c17.77-1.6,53.73-5.05,63.68-5.27c4.51-0.1,7.27,2.79,6.55,6.54c-1.6,8.35-4.1,21.97-6.49,32.97c-0.36,1.68-0.61,2.5-1.13,4.6" stroke-dasharray="113.045" stroke-dashoffset="113.045"><animate attributeName="stroke-dashoffset" values="113.045" fill="freeze" begin="897f.click" /><animate attributeName="stroke-dashoffset" values="113.045;113.045;0" keyTimes="0;0.527;1" dur="1.797s" fill="freeze" begin="0s;897f.click" /></path><path d="M42.75,26.75c0.5,1.25,0.81,3.99,0.85,5.73C43.98,48.84,42,64.5,30.64,73.77" stroke-dasharray="50.674" stroke-dashoffset="50.674"><animate attributeName="stroke-dashoffset" values="50.674" fill="freeze" begin="897f.click" /><animate attributeName="stroke-dashoffset" values="50.674;50.674;0" keyTimes="0;0.78;1" dur="2.304s" fill="freeze" begin="0s;897f.click" /></path><path d="M60.6,24.46c0.94,1.12,1.74,2.94,1.74,4.67c0,13.33-0.45,21.61-0.45,27.37c0,10.25,0.62,11.14,11.36,11.14c6.38,0,8.94-0.54,10.55-1.53" stroke-dasharray="63.058" stroke-dashoffset="63.058"><animate attributeName="stroke-dashoffset" values="63.058" fill="freeze" begin="897f.click" /><animate attributeName="stroke-dashoffset" values="63.058;63.058;0" keyTimes="0;0.829;1" dur="2.778s" fill="freeze" begin="0s;897f.click" /></path><path d="M27.34,88.55C40.75,88,66.69,86.2,83,85.97" stroke-dasharray="55.724" stroke-dashoffset="55.724"><animate attributeName="stroke-dashoffset" values="55.724" fill="freeze" begin="897f.click" /><animate attributeName="stroke-dashoffset" values="55.724;55.724;0" keyTimes="0;0.833;1" dur="3.335s" fill="freeze" begin="0s;897f.click" /></path></g></svg>