<svg xmlns="http://www.w3.org/2000/svg" viewBox="0 0 109 109" id="89f4"><g fill="none" stroke="#666" stroke-width="6" stroke-linecap="round" stroke-linejoin="round"><g><g><g><path d="M30.23,12.5c0.04,0.49,0.24,1.32-0.08,1.96c-2.4,4.79-8.65,14.29-16.65,21.79" /><path d="M26.89,20c2,0,10.61-1.25,14.32-2.25c2.16-0.58,3.29,1.14,2,2.75c-4.21,5.25-5.99,7.25-9.15,13" /></g><g><path d="M19.93,35.69c0.7,0.74,1.39,2.82,1.4,3.6c0.02,1.9-0.5,23.69-0.64,25.35c-0.87,10.72-2.84,20.6-8.73,27.25" /><path d="M22.29,37.08c2.05-0.17,17.58-2.56,19.11-2.75c2.73-0.34,3.76,2.22,3.42,3.25c-0.33,0.99-0.51,37.77-0.51,51.63c0,9.95-5.1,1.77-6.99,0.33" /><path d="M31.61,36.81c0.04,0.2,0.56,1.02,0.6,2.27c0.19,5.99-0.12,24.52-0.12,26.56" /><path d="M21.48,52.02c8.56-1.11,14.31-1.72,22.68-2.75" /><path d="M21.47,67.07c5.49-0.41,14.31-1.85,22.32-2.46" /></g></g><g><path d="M61.42,12c0.03,0.43,0.1,1.25-0.05,1.74c-1.84,6.11-4.5,12.01-9.35,17.51" /><path d="M61.72,20.69c1.06,0.5,3.15,0.61,4.21,0.47c6.76-0.86,14.17-2.44,21.68-3.24c1.76-0.19,3.67-0.24,4.56,0.01" /><g><g><g><path d="M60.35,29.11c0.22,0.44,0.36,0.67,0.44,1.24c0.54,4.05,2.18,17.6,2.25,18.19" /><path d="M61.33,30.32c4.23-0.57,18.1-2.6,23.52-2.99c0.94-0.07,1.5,1.56,1.47,2.01c-0.41,5.45-1.65,12.29-2.96,16.94" /><path d="M62.18,37.84c1.68,0,20.58-1.91,22.48-1.91" /><path d="M63.3,46.25c3.41-0.43,15.44-1.34,19.69-1.71" /></g><g><path d="M50.45,54.73c1.05,0.29,2.98,0.33,4.04,0.29c10.96-0.48,29.57-3.16,39.84-3.27c1.76-0.02,2.81,0.14,3.69,0.28" /></g></g><g><g><g><path d="M63,56.32c0.04,0.44,0.2,1.18-0.07,1.75c-1.94,4.05-6.85,10.2-13.32,15.6" /></g><path d="M62.98,63.53c0.68,0.48,1.59,0.47,2.71,0.32c8.06-1.1,22.11-2.56,24.82-2.72c2.71-0.16,4.25,0.59,3.84,3.94c-0.41,3.35-5.05,17.58-9.78,27.37c-2.32,4.81-5.3,1.55-6.9-0.45" /></g><g><path d="M68.66,66.35c0.04,0.37,0.11,0.97-0.08,1.49c-1.83,5.14-6.83,12.27-14.04,16.49" /></g><g><path d="M81.53,65.23c0.09,0.8,0.35,2.1-0.18,3.19C78,75.29,70.96,85.65,57.32,94.66" /></g></g></g></g></g></g><g fill="none" stroke="#000" stroke-width="3" stroke-linecap="round" stroke-linejoin="round"><path d="M30.23,12.5c0.04,0.49,0.24,1.32-0.08,1.96c-2.4,4.79-8.65,14.29-16.65,21.79" stroke-dasharray="29.532" stroke-dashoffset="29.532"><animate attributeName="stroke-dashoffset" values="29.532;29.532;0" dur="0.295s" fill="freeze" begin="0s;89f4.click" /></path><path d="M26.89,20c2,0,10.61-1.25,14.32-2.25c2.16-0.58,3.29,1.14,2,2.75c-4.21,5.25-5.99,7.25-9.15,13" stroke-dasharray="35.335" stroke-dashoffset="35.335"><animate attributeName="stroke-dashoffset" values="35.335" fill="freeze" begin="89f4.click" /><animate attributeName="stroke-dashoffset" values="35.335;35.335;0" keyTimes="0;0.455;1" dur="0.648s" fill="freeze" begin="0s;89f4.click" /></path><path d="M19.93,35.69c0.7,0.74,1.39,2.82,1.4,3.6c0.02,1.9-0.5,23.69-0.64,25.35c-0.87,10.72-2.84,20.6-8.73,27.25" stroke-dasharray="58.381" stroke-dashoffset="58.381"><animate attributeName="stroke-dashoffset" values="58.381" fill="freeze" begin="89f4.click" /><animate attributeName="stroke-dashoffset" values="58.381;58.381;0" keyTimes="0;0.526;1" dur="1.232s" fill="freeze" begin="0s;89f4.click" /></path><path d="M22.29,37.08c2.05-0.17,17.58-2.56,19.11-2.75c2.73-0.34,3.76,2.22,3.42,3.25c-0.33,0.99-0.51,37.77-0.51,51.63c0,9.95-5.1,1.77-6.99,0.33" stroke-dasharray="89.118" stroke-dashoffset="89.118"><animate attributeName="stroke-dashoffset" values="89.118" fill="freeze" begin="89f4.click" /><animate attributeName="stroke-dashoffset" values="89.118;89.118;0" keyTimes="0;0.648;1" dur="1.902s" fill="freeze" begin="0s;89f4.click" /></path><path d="M31.61,36.81c0.04,0.2,0.56,1.02,0.6,2.27c0.19,5.99-0.12,24.52-0.12,26.56" stroke-dasharray="28.927" stroke-dashoffset="28.927"><animate attributeName="stroke-dashoffset" values="28.927" fill="freeze" begin="89f4.click" /><animate attributeName="stroke-dashoffset" values="28.927;28.927;0" keyTimes="0;0.868;1" dur="2.191s" fill="freeze" begin="0s;89f4.click" /></path><path d="M21.48,52.02c8.56-1.11,14.31-1.72,22.68-2.75" stroke-dasharray="22.847" stroke-dashoffset="22.847"><animate attributeName="stroke-dashoffset" values="22.847" fill="freeze" begin="89f4.click" /><animate attributeName="stroke-dashoffset" values="22.847;22.847;0" keyTimes="0;0.906;1" dur="2.419s" fill="freeze" begin="0s;89f4.click" /></path><path d="M21.47,67.07c5.49-0.41,14.31-1.85,22.32-2.46" stroke-dasharray="22.458" stroke-dashoffset="22.458"><animate attributeName="stroke-dashoffset" values="22.458" fill="freeze" begin="89f4.click" /><animate attributeName="stroke-dashoffset" values="22.458;22.458;0" keyTimes="0;0.915;1" dur="2.644s" fill="freeze" begin="0s;89f4.click" /></path><path d="M61.42,12c0.03,0.43,0.1,1.25-0.05,1.74c-1.84,6.11-4.5,12.01-9.35,17.51" stroke-dasharray="21.763" stroke-dashoffset="21.763"><animate attributeName="stroke-dashoffset" values="21.763" fill="freeze" begin="89f4.click" /><animate attributeName="stroke-dashoffset" values="21.763;21.763;0" keyTimes="0;0.924;1" dur="2.862s" fill="freeze" begin="0s;89f4.click" /></path><path d="M61.72,20.69c1.06,0.5,3.15,0.61,4.21,0.47c6.76-0.86,14.17-2.44,21.68-3.24c1.76-0.19,3.67-0.24,4.56,0.01" stroke-dasharray="30.78" stroke-dashoffset="30.78"><animate attributeName="stroke-dashoffset" values="30.78" fill="freeze" begin="89f4.click" /><animate attributeName="stroke-dashoffset" values="30.78;30.78;0" keyTimes="0;0.903;1" dur="3.17s" fill="freeze" begin="0s;89f4.click" /></path><path d="M60.35,29.11c0.22,0.44,0.36,0.67,0.44,1.24c0.54,4.05,2.18,17.6,2.25,18.19" stroke-dasharray="19.654" stroke-dashoffset="19.654"><animate attributeName="stroke-dashoffset" values="19.654" fill="freeze" begin="89f4.click" /><animate attributeName="stroke-dashoffset" values="19.654;19.654;0" keyTimes="0;0.941;1" dur="3.367s" fill="freeze" begin="0s;89f4.click" /></path><path d="M61.33,30.32c4.23-0.57,18.1-2.6,23.52-2.99c0.94-0.07,1.5,1.56,1.47,2.01c-0.41,5.45-1.65,12.29-2.96,16.94" stroke-dasharray="43.643" stroke-dashoffset="43.643"><animate attributeName="stroke-dashoffset" values="43.643" fill="freeze" begin="89f4.click" /><animate attributeName="stroke-dashoffset" values="43.643;43.643;0" keyTimes="0;0.885;1" dur="3.803s" fill="freeze" begin="0s;89f4.click" /></path><path d="M62.18,37.84c1.68,0,20.58-1.91,22.48-1.91" stroke-dasharray="22.564" stroke-dashoffset="22.564"><animate attributeName="stroke-dashoffset" values="22.564" fill="freeze" begin="89f4.click" /><animate attributeName="stroke-dashoffset" values="22.564;22.564;0" keyTimes="0;0.944;1" dur="4.029s" fill="freeze" begin="0s;89f4.click" /></path><path d="M63.3,46.25c3.41-0.43,15.44-1.34,19.69-1.71" stroke-dasharray="19.766" stroke-dashoffset="19.766"><animate attributeName="stroke-dashoffset" values="19.766" fill="freeze" begin="89f4.click" /><animate attributeName="stroke-dashoffset" values="19.766;19.766;0" keyTimes="0;0.953;1" dur="4.227s" fill="freeze" begin="0s;89f4.click" /></path><path d="M50.45,54.73c1.05,0.29,2.98,0.33,4.04,0.29c10.96-0.48,29.57-3.16,39.84-3.27c1.76-0.02,2.81,0.14,3.69,0.28" stroke-dasharray="47.752" stroke-dashoffset="47.752"><animate attributeName="stroke-dashoffset" values="47.752" fill="freeze" begin="89f4.click" /><animate attributeName="stroke-dashoffset" values="47.752;47.752;0" keyTimes="0;0.898;1" dur="4.705s" fill="freeze" begin="0s;89f4.click" /></path><path d="M63,56.32c0.04,0.44,0.2,1.18-0.07,1.75c-1.94,4.05-6.85,10.2-13.32,15.6" stroke-dasharray="22.418" stroke-dashoffset="22.418"><animate attributeName="stroke-dashoffset" values="22.418" fill="freeze" begin="89f4.click" /><animate attributeName="stroke-dashoffset" values="22.418;22.418;0" keyTimes="0;0.955;1" dur="4.929s" fill="freeze" begin="0s;89f4.click" /></path><path d="M62.98,63.53c0.68,0.48,1.59,0.47,2.71,0.32c8.06-1.1,22.11-2.56,24.82-2.72c2.71-0.16,4.25,0.59,3.84,3.94c-0.41,3.35-5.05,17.58-9.78,27.37c-2.32,4.81-5.3,1.55-6.9-0.45" stroke-dasharray="72.795" stroke-dashoffset="72.795"><animate attributeName="stroke-dashoffset" values="72.795" fill="freeze" begin="89f4.click" /><animate attributeName="stroke-dashoffset" values="72.795;72.795;0" keyTimes="0;0.9;1" dur="5.476s" fill="freeze" begin="0s;89f4.click" /></path><path d="M68.66,66.35c0.04,0.37,0.11,0.97-0.08,1.49c-1.83,5.14-6.83,12.27-14.04,16.49" stroke-dasharray="23.56" stroke-dashoffset="23.56"><animate attributeName="stroke-dashoffset" values="23.56" fill="freeze" begin="89f4.click" /><animate attributeName="stroke-dashoffset" values="23.56;23.56;0" keyTimes="0;0.959;1" dur="5.712s" fill="freeze" begin="0s;89f4.click" /></path><path d="M81.53,65.23c0.09,0.8,0.35,2.1-0.18,3.19C78,75.29,70.96,85.65,57.32,94.66" stroke-dasharray="39.241" stroke-dashoffset="39.241"><animate attributeName="stroke-dashoffset" values="39.241" fill="freeze" begin="89f4.click" /><animate attributeName="stroke-dashoffset" values="39.241;39.241;0" keyTimes="0;0.936;1" dur="6.104s" fill="freeze" begin="0s;89f4.click" /></path></g></svg>