<svg xmlns="http://www.w3.org/2000/svg" viewBox="0 0 109 109" id="8a55"><g fill="none" stroke="#666" stroke-width="6" stroke-linecap="round" stroke-linejoin="round"><g><g><path d="M26.05,14.5c2.34,1.41,6.04,5.8,6.63,8" /><path d="M12.12,33.08c1.66,0.54,3.81,0.28,5.5,0.07c7.04-0.89,15.51-2.99,21.24-3.6c1.57-0.17,3.17-0.18,4.73,0.12" /><path d="M19.68,43.56c1.29,0.37,2.99,0.16,4.33,0.08c3.83-0.24,7.64-1.26,11.5-1.87c1.61-0.25,2.9-0.55,4.51-0.28" /><path d="M20.3,55.58c1.16,0.35,2.76,0.16,3.96,0.07c3.54-0.26,8.19-1.34,11.87-1.89c1.44-0.22,3.01-0.55,4.46-0.29" /><g><path d="M18.01,68.65c0.9,0.84,1.12,2.18,1.37,3.31c0.79,3.54,1.58,8.63,2.26,14.02c0.17,1.33,0.33,2.67,0.48,4.02" /><path d="M19.94,70.37c5.41-1.02,11.7-2.35,17.81-3.25c2.87-0.43,4.57-0.02,3.89,3.13c-0.8,3.7-1.26,7.17-2.33,13.96" /><path d="M22.42,88.05c4.39-0.44,9.41-1.48,15.12-2.3c1.28-0.18,2.59-0.35,3.94-0.51" /></g></g><g p4:phon="平" xmlns:p4="http://kanjivg.tagaini.net"><g><path d="M52.76,20.65c2.24,0.35,4.55,0.2,6.49-0.02c6.48-0.74,19.92-2.76,27.38-3.3c1.79-0.13,3.65-0.12,5.42,0.26" /></g><path d="M52.23,35.42c2.91,2.9,6.13,8.99,6.86,13.5" /><path d="M91.09,29.48c0.1,1.01,0.02,2.01-0.42,2.91C88.5,36.88,85,42.38,80.05,47.04" /><g><g><path d="M46.75,59.72c2.38,0.83,5.45,0.48,7.89,0.15c10.42-1.41,24.59-2.69,37.35-3.89c2.67-0.25,5.11-0.51,7.75,0.04" /><path d="M70.35,22.32c0.91,0.91,1.59,2.43,1.59,4.17c0,0.78-0.01,43.41-0.09,61.26c-0.01,3.47-0.03,5.94-0.04,6.88" /></g></g></g></g></g><g fill="none" stroke="#000" stroke-width="3" stroke-linecap="round" stroke-linejoin="round"><path d="M26.05,14.5c2.34,1.41,6.04,5.8,6.63,8" stroke-dasharray="10.535" stroke-dashoffset="10.535"><animate attributeName="stroke-dashoffset" values="10.535;10.535;0" dur="0.211s" fill="freeze" begin="0s;8a55.click" /></path><path d="M12.12,33.08c1.66,0.54,3.81,0.28,5.5,0.07c7.04-0.89,15.51-2.99,21.24-3.6c1.57-0.17,3.17-0.18,4.73,0.12" stroke-dasharray="31.841" stroke-dashoffset="31.841"><animate attributeName="stroke-dashoffset" values="31.841" fill="freeze" begin="8a55.click" /><animate attributeName="stroke-dashoffset" values="31.841;31.841;0" keyTimes="0;0.399;1" dur="0.529s" fill="freeze" begin="0s;8a55.click" /></path><path d="M19.68,43.56c1.29,0.37,2.99,0.16,4.33,0.08c3.83-0.24,7.64-1.26,11.5-1.87c1.61-0.25,2.9-0.55,4.51-0.28" stroke-dasharray="20.554" stroke-dashoffset="20.554"><animate attributeName="stroke-dashoffset" values="20.554" fill="freeze" begin="8a55.click" /><animate attributeName="stroke-dashoffset" values="20.554;20.554;0" keyTimes="0;0.72;1" dur="0.735s" fill="freeze" begin="0s;8a55.click" /></path><path d="M20.3,55.58c1.16,0.35,2.76,0.16,3.96,0.07c3.54-0.26,8.19-1.34,11.87-1.89c1.44-0.22,3.01-0.55,4.46-0.29" stroke-dasharray="20.499" stroke-dashoffset="20.499"><animate attributeName="stroke-dashoffset" values="20.499" fill="freeze" begin="8a55.click" /><animate attributeName="stroke-dashoffset" values="20.499;20.499;0" keyTimes="0;0.782;1" dur="0.94s" fill="freeze" begin="0s;8a55.click" /></path><path d="M18.01,68.65c0.9,0.84,1.12,2.18,1.37,3.31c0.79,3.54,1.58,8.63,2.26,14.02c0.17,1.33,0.33,2.67,0.48,4.02" stroke-dasharray="21.897" stroke-dashoffset="21.897"><animate attributeName="stroke-dashoffset" values="21.897" fill="freeze" begin="8a55.click" /><animate attributeName="stroke-dashoffset" values="21.897;21.897;0" keyTimes="0;0.811;1" dur="1.159s" fill="freeze" begin="0s;8a55.click" /></path><path d="M19.94,70.37c5.41-1.02,11.7-2.35,17.81-3.25c2.87-0.43,4.57-0.02,3.89,3.13c-0.8,3.7-1.26,7.17-2.33,13.96" stroke-dasharray="38.779" stroke-dashoffset="38.779"><animate attributeName="stroke-dashoffset" values="38.779" fill="freeze" begin="8a55.click" /><animate attributeName="stroke-dashoffset" values="38.779;38.779;0" keyTimes="0;0.749;1" dur="1.547s" fill="freeze" begin="0s;8a55.click" /></path><path d="M22.42,88.05c4.39-0.44,9.41-1.48,15.12-2.3c1.28-0.18,2.59-0.35,3.94-0.51" stroke-dasharray="19.27" stroke-dashoffset="19.27"><animate attributeName="stroke-dashoffset" values="19.27" fill="freeze" begin="8a55.click" /><animate attributeName="stroke-dashoffset" values="19.27;19.27;0" keyTimes="0;0.889;1" dur="1.74s" fill="freeze" begin="0s;8a55.click" /></path><path d="M52.76,20.65c2.24,0.35,4.55,0.2,6.49-0.02c6.48-0.74,19.92-2.76,27.38-3.3c1.79-0.13,3.65-0.12,5.42,0.26" stroke-dasharray="39.536" stroke-dashoffset="39.536"><animate attributeName="stroke-dashoffset" values="39.536" fill="freeze" begin="8a55.click" /><animate attributeName="stroke-dashoffset" values="39.536;39.536;0" keyTimes="0;0.815;1" dur="2.135s" fill="freeze" begin="0s;8a55.click" /></path><path d="M52.23,35.42c2.91,2.9,6.13,8.99,6.86,13.5" stroke-dasharray="15.333" stroke-dashoffset="15.333"><animate attributeName="stroke-dashoffset" values="15.333" fill="freeze" begin="8a55.click" /><animate attributeName="stroke-dashoffset" values="15.333;15.333;0" keyTimes="0;0.933;1" dur="2.288s" fill="freeze" begin="0s;8a55.click" /></path><path d="M91.09,29.48c0.1,1.01,0.02,2.01-0.42,2.91C88.5,36.88,85,42.38,80.05,47.04" stroke-dasharray="21.172" stroke-dashoffset="21.172"><animate attributeName="stroke-dashoffset" values="21.172" fill="freeze" begin="8a55.click" /><animate attributeName="stroke-dashoffset" values="21.172;21.172;0" keyTimes="0;0.915;1" dur="2.5s" fill="freeze" begin="0s;8a55.click" /></path><path d="M46.75,59.72c2.38,0.83,5.45,0.48,7.89,0.15c10.42-1.41,24.59-2.69,37.35-3.89c2.67-0.25,5.11-0.51,7.75,0.04" stroke-dasharray="53.3" stroke-dashoffset="53.3"><animate attributeName="stroke-dashoffset" values="53.3" fill="freeze" begin="8a55.click" /><animate attributeName="stroke-dashoffset" values="53.3;53.3;0" keyTimes="0;0.824;1" dur="3.033s" fill="freeze" begin="0s;8a55.click" /></path><path d="M70.35,22.32c0.91,0.91,1.59,2.43,1.59,4.17c0,0.78-0.01,43.41-0.09,61.26c-0.01,3.47-0.03,5.94-0.04,6.88" stroke-dasharray="72.715" stroke-dashoffset="72.715"><animate attributeName="stroke-dashoffset" values="72.715" fill="freeze" begin="8a55.click" /><animate attributeName="stroke-dashoffset" values="72.715;72.715;0" keyTimes="0;0.847;1" dur="3.58s" fill="freeze" begin="0s;8a55.click" /></path></g></svg>