<svg xmlns="http://www.w3.org/2000/svg" viewBox="0 0 109 109" id="8ac2"><g fill="none" stroke="#666" stroke-width="6" stroke-linecap="round" stroke-linejoin="round"><g><g><path d="M21.8,15c3.66,1.81,9.46,7.44,10.38,10.25" /><path d="M11.12,36.58c0.71,0.23,3.4,0.27,4.1,0.23c8.73-0.42,18.48-3.67,24.83-3.87c1.18-0.04,2.95,0.11,3.54,0.23" /><path d="M18.18,47.56c0.43,0.12,3.04,0.13,3.47,0.12c4.44-0.14,8.86-1.43,13.34-2.05c0.7-0.1,3.68,0.06,4.04,0.12" /><path d="M17.8,60.33c0.38,0.12,2.71,0.13,3.1,0.12c3.97-0.13,11.11-1.7,14.83-2.59c0.62-0.15,3.29,0.06,3.6,0.11" /><g><path d="M17.01,74.4c0.39,0.36,0.83,1.15,0.96,1.63c1.11,4.21,2.52,13.54,3.64,19.71" /><path d="M18.44,75.87c7.2-0.89,13.9-3.6,20.55-4.5c1.67-0.22,2.68,1.04,2.44,2.06c-0.99,4.25-1.86,8.72-3.62,15.78" /><path d="M21.42,93.05c5.37-0.54,10.68-1.97,18.06-2.81" /></g></g><g><g><path d="M61.6,13.25c0.04,0.8,0.09,2.08-0.08,3.23c-1.02,6.81-6.9,21.76-14.94,30.91" /><path d="M63.65,23.19c0.76,0.29,1.81,0.34,3.04,0.19c4.69-0.55,17.57-3.13,21.79-3.96c2.98-0.58,3.4,1.54,2.69,3.48C89.75,26.75,86,40.25,79.86,48.42c-1.56,2.08-4.11,2.08-7.13-1.88" /></g><g><path d="M65.08,50.27c0.04,0.28,0.15,0.81-0.07,1.11c-2.95,3.96-6.38,7.49-13.1,10.64" /><path d="M48.9,60.28c0.77,0.67,1.08,2.19,1.27,3.57c0.69,5.06,2.88,24.82,3.57,31.66" /><path d="M75.04,58.42c0.81,0.16,1.45,0.49,2.58,0.49s13.08-1.96,14.37-2.13c1.29-0.16,2.36,0.81,2.26,1.8c-0.97,9.49-3.73,34.96-3.89,35.61" /><path d="M53.13,76.04c3.39-0.33,11.19-2.1,11.99-2.1c0.81,0,1.94,0,2.58,0" /><path d="M74.86,72.3c0.81,0.16,1.45,0.49,2.58,0.49c1.13,0,14.12-1.81,15.41-1.97" /><path d="M53.4,92.72c2.1,0,34.39-2.13,36.81-2.29" /></g></g></g></g><g fill="none" stroke="#000" stroke-width="3" stroke-linecap="round" stroke-linejoin="round"><path d="M21.8,15c3.66,1.81,9.46,7.44,10.38,10.25" stroke-dasharray="14.8" stroke-dashoffset="14.8"><animate attributeName="stroke-dashoffset" values="14.8;14.8;0" dur="0.296s" fill="freeze" begin="0s;8ac2.click" /></path><path d="M11.12,36.58c0.71,0.23,3.4,0.27,4.1,0.23c8.73-0.42,18.48-3.67,24.83-3.87c1.18-0.04,2.95,0.11,3.54,0.23" stroke-dasharray="32.826" stroke-dashoffset="32.826"><animate attributeName="stroke-dashoffset" values="32.826" fill="freeze" begin="8ac2.click" /><animate attributeName="stroke-dashoffset" values="32.826;32.826;0" keyTimes="0;0.474;1" dur="0.624s" fill="freeze" begin="0s;8ac2.click" /></path><path d="M18.18,47.56c0.43,0.12,3.04,0.13,3.47,0.12c4.44-0.14,8.86-1.43,13.34-2.05c0.7-0.1,3.68,0.06,4.04,0.12" stroke-dasharray="21.031" stroke-dashoffset="21.031"><animate attributeName="stroke-dashoffset" values="21.031" fill="freeze" begin="8ac2.click" /><animate attributeName="stroke-dashoffset" values="21.031;21.031;0" keyTimes="0;0.748;1" dur="0.834s" fill="freeze" begin="0s;8ac2.click" /></path><path d="M17.8,60.33c0.38,0.12,2.71,0.13,3.1,0.12c3.97-0.13,11.11-1.7,14.83-2.59c0.62-0.15,3.29,0.06,3.6,0.11" stroke-dasharray="21.789" stroke-dashoffset="21.789"><animate attributeName="stroke-dashoffset" values="21.789" fill="freeze" begin="8ac2.click" /><animate attributeName="stroke-dashoffset" values="21.789;21.789;0" keyTimes="0;0.793;1" dur="1.052s" fill="freeze" begin="0s;8ac2.click" /></path><path d="M17.01,74.4c0.39,0.36,0.83,1.15,0.96,1.63c1.11,4.21,2.52,13.54,3.64,19.71" stroke-dasharray="21.958" stroke-dashoffset="21.958"><animate attributeName="stroke-dashoffset" values="21.958" fill="freeze" begin="8ac2.click" /><animate attributeName="stroke-dashoffset" values="21.958;21.958;0" keyTimes="0;0.827;1" dur="1.272s" fill="freeze" begin="0s;8ac2.click" /></path><path d="M18.44,75.87c7.2-0.89,13.9-3.6,20.55-4.5c1.67-0.22,2.68,1.04,2.44,2.06c-0.99,4.25-1.86,8.72-3.62,15.78" stroke-dasharray="40.981" stroke-dashoffset="40.981"><animate attributeName="stroke-dashoffset" values="40.981" fill="freeze" begin="8ac2.click" /><animate attributeName="stroke-dashoffset" values="40.981;40.981;0" keyTimes="0;0.756;1" dur="1.682s" fill="freeze" begin="0s;8ac2.click" /></path><path d="M21.42,93.05c5.37-0.54,10.68-1.97,18.06-2.81" stroke-dasharray="18.283" stroke-dashoffset="18.283"><animate attributeName="stroke-dashoffset" values="18.283" fill="freeze" begin="8ac2.click" /><animate attributeName="stroke-dashoffset" values="18.283;18.283;0" keyTimes="0;0.902;1" dur="1.865s" fill="freeze" begin="0s;8ac2.click" /></path><path d="M61.6,13.25c0.04,0.8,0.09,2.08-0.08,3.23c-1.02,6.81-6.9,21.76-14.94,30.91" stroke-dasharray="37.907" stroke-dashoffset="37.907"><animate attributeName="stroke-dashoffset" values="37.907" fill="freeze" begin="8ac2.click" /><animate attributeName="stroke-dashoffset" values="37.907;37.907;0" keyTimes="0;0.831;1" dur="2.244s" fill="freeze" begin="0s;8ac2.click" /></path><path d="M63.65,23.19c0.76,0.29,1.81,0.34,3.04,0.19c4.69-0.55,17.57-3.13,21.79-3.96c2.98-0.58,3.4,1.54,2.69,3.48C89.75,26.75,86,40.25,79.86,48.42c-1.56,2.08-4.11,2.08-7.13-1.88" stroke-dasharray="67.883" stroke-dashoffset="67.883"><animate attributeName="stroke-dashoffset" values="67.883" fill="freeze" begin="8ac2.click" /><animate attributeName="stroke-dashoffset" values="67.883;67.883;0" keyTimes="0;0.815;1" dur="2.754s" fill="freeze" begin="0s;8ac2.click" /></path><path d="M65.08,50.27c0.04,0.28,0.15,0.81-0.07,1.11c-2.95,3.96-6.38,7.49-13.1,10.64" stroke-dasharray="18.214" stroke-dashoffset="18.214"><animate attributeName="stroke-dashoffset" values="18.214" fill="freeze" begin="8ac2.click" /><animate attributeName="stroke-dashoffset" values="18.214;18.214;0" keyTimes="0;0.938;1" dur="2.936s" fill="freeze" begin="0s;8ac2.click" /></path><path d="M48.9,60.28c0.77,0.67,1.08,2.19,1.27,3.57c0.69,5.06,2.88,24.82,3.57,31.66" stroke-dasharray="35.721" stroke-dashoffset="35.721"><animate attributeName="stroke-dashoffset" values="35.721" fill="freeze" begin="8ac2.click" /><animate attributeName="stroke-dashoffset" values="35.721;35.721;0" keyTimes="0;0.892;1" dur="3.293s" fill="freeze" begin="0s;8ac2.click" /></path><path d="M75.04,58.42c0.81,0.16,1.45,0.49,2.58,0.49s13.08-1.96,14.37-2.13c1.29-0.16,2.36,0.81,2.26,1.8c-0.97,9.49-3.73,34.96-3.89,35.61" stroke-dasharray="56.277" stroke-dashoffset="56.277"><animate attributeName="stroke-dashoffset" values="56.277" fill="freeze" begin="8ac2.click" /><animate attributeName="stroke-dashoffset" values="56.277;56.277;0" keyTimes="0;0.854;1" dur="3.856s" fill="freeze" begin="0s;8ac2.click" /></path><path d="M53.13,76.04c3.39-0.33,11.19-2.1,11.99-2.1c0.81,0,1.94,0,2.58,0" stroke-dasharray="14.758" stroke-dashoffset="14.758"><animate attributeName="stroke-dashoffset" values="14.758" fill="freeze" begin="8ac2.click" /><animate attributeName="stroke-dashoffset" values="14.758;14.758;0" keyTimes="0;0.929;1" dur="4.151s" fill="freeze" begin="0s;8ac2.click" /></path><path d="M74.86,72.3c0.81,0.16,1.45,0.49,2.58,0.49c1.13,0,14.12-1.81,15.41-1.97" stroke-dasharray="18.173" stroke-dashoffset="18.173"><animate attributeName="stroke-dashoffset" values="18.173" fill="freeze" begin="8ac2.click" /><animate attributeName="stroke-dashoffset" values="18.173;18.173;0" keyTimes="0;0.958;1" dur="4.333s" fill="freeze" begin="0s;8ac2.click" /></path><path d="M53.4,92.72c2.1,0,34.39-2.13,36.81-2.29" stroke-dasharray="36.883" stroke-dashoffset="36.883"><animate attributeName="stroke-dashoffset" values="36.883" fill="freeze" begin="8ac2.click" /><animate attributeName="stroke-dashoffset" values="36.883;36.883;0" keyTimes="0;0.922;1" dur="4.702s" fill="freeze" begin="0s;8ac2.click" /></path></g></svg>