<svg xmlns="http://www.w3.org/2000/svg" viewBox="0 0 109 109" id="8b6f"><g fill="none" stroke="#666" stroke-width="6" stroke-linecap="round" stroke-linejoin="round"><g><g><path d="M19.13,12c3.75,2.07,9.68,8.52,10.62,11.75" /><path d="M10.37,31.58c0.63,0.23,3.04,0.27,3.67,0.23c7.8-0.42,16.97-2.67,22.64-2.87c1.05-0.04,2.64,0.11,3.16,0.23" /><path d="M15.23,43.06c0.38,0.12,2.71,0.13,3.1,0.12c3.97-0.14,11.8-2.06,15.71-2.05c0.63,0,3.29,0.06,3.61,0.12" /><path d="M15.23,56.83c0.34,0.12,2.42,0.13,2.77,0.12c3.55-0.13,12.32-2.11,15.81-2.09c0.57,0,2.94,0.06,3.22,0.11" /><g><path d="M15.64,70.4c0.55,0.57,1.17,1.03,1.35,1.78c1.56,6.59,2.02,13.57,2.6,23.32" /><path d="M17.31,72.37c6.44-0.89,11.48-2.1,17.42-3c1.49-0.22,2.39,1.04,2.18,2.06c-0.89,4.25-1.16,10.22-2.74,17.28" /><path d="M20.47,91.55c4.8-0.54,9.1-0.97,15.69-1.81" /></g></g><g><g><path d="M44.5,14.14c0.26,0.3,1.61,2.05,1.72,2.43c0.89,3,2.49,9.78,3.1,15.17" /><path d="M46.09,16.18c9.89-1.18,41.97-3.8,44.96-4.19c1.09-0.14,3.58,2.02,3.29,3.7c-0.61,3.52-2.12,7.06-3.75,12.09" /><path d="M61.42,15.5c0.17,2,1.38,10.75,1.55,13" /><path d="M77.6,14.25c-0.17,3.25-0.03,10.25-0.38,12.25" /><path d="M49.58,29.62C55.71,29.25,80.3,26,91,25.71" /></g><g><g><g><path d="M50.57,40.2c0.95,0.32,2.68,0.4,3.62,0.32c12.14-1.08,20.69-3.17,32.91-3.45c1.57-0.04,2.52,0.15,3.31,0.31" /><path d="M67.77,30.75c0.07,0.25,1.05,1.3,1.05,2.88c0,10.31-0.12,12.77-0.12,15.36" /><path d="M44.13,51.19c1.24,0.4,3.52,0.5,4.76,0.4c13.36-1.09,27.8-3.29,43.39-3.95c2.07-0.09,3.31,0.19,4.35,0.39" /></g><path d="M55.66,53.73c1.3,1.37,3.37,5.63,3.69,7.75" /><path d="M81.96,52.25c0.02,0.22,0.03,0.57-0.03,0.88c-0.35,1.87-2.35,5.96-5.1,8.47" /></g><g><path d="M45.71,65.12c0.97,0.36,4.29,0.38,5.26,0.32c6.68-0.42,27.11-2.66,38.5-3.37c1.6-0.1,4.97,0.31,5.78,0.49" /><g><path d="M47.24,77.38c1.53,0.47,4.36,0.6,5.89,0.47c10.54-0.89,22.8-2.45,34.94-2.77c2.56-0.07,4.09,0.23,5.37,0.46" /><path d="M66.99,66.99c0.32,0.43,0.99,2.37,1.05,3.23c0.06,0.86-0.04,24.91-0.1,30.28" /></g></g></g></g></g></g><g fill="none" stroke="#000" stroke-width="3" stroke-linecap="round" stroke-linejoin="round"><path d="M19.13,12c3.75,2.07,9.68,8.52,10.62,11.75" stroke-dasharray="16.066" stroke-dashoffset="16.066"><animate attributeName="stroke-dashoffset" values="16.066;16.066;0" dur="0.161s" fill="freeze" begin="0s;8b6f.click" /></path><path d="M10.37,31.58c0.63,0.23,3.04,0.27,3.67,0.23c7.8-0.42,16.97-2.67,22.64-2.87c1.05-0.04,2.64,0.11,3.16,0.23" stroke-dasharray="29.696" stroke-dashoffset="29.696"><animate attributeName="stroke-dashoffset" values="29.696" fill="freeze" begin="8b6f.click" /><animate attributeName="stroke-dashoffset" values="29.696;29.696;0" keyTimes="0;0.352;1" dur="0.458s" fill="freeze" begin="0s;8b6f.click" /></path><path d="M15.23,43.06c0.38,0.12,2.71,0.13,3.1,0.12c3.97-0.14,11.8-2.06,15.71-2.05c0.63,0,3.29,0.06,3.61,0.12" stroke-dasharray="22.576" stroke-dashoffset="22.576"><animate attributeName="stroke-dashoffset" values="22.576" fill="freeze" begin="8b6f.click" /><animate attributeName="stroke-dashoffset" values="22.576;22.576;0" keyTimes="0;0.67;1" dur="0.684s" fill="freeze" begin="0s;8b6f.click" /></path><path d="M15.23,56.83c0.34,0.12,2.42,0.13,2.77,0.12c3.55-0.13,12.32-2.11,15.81-2.09c0.57,0,2.94,0.06,3.22,0.11" stroke-dasharray="21.959" stroke-dashoffset="21.959"><animate attributeName="stroke-dashoffset" values="21.959" fill="freeze" begin="8b6f.click" /><animate attributeName="stroke-dashoffset" values="21.959;21.959;0" keyTimes="0;0.757;1" dur="0.904s" fill="freeze" begin="0s;8b6f.click" /></path><path d="M15.64,70.4c0.55,0.57,1.17,1.03,1.35,1.78c1.56,6.59,2.02,13.57,2.6,23.32" stroke-dasharray="25.762" stroke-dashoffset="25.762"><animate attributeName="stroke-dashoffset" values="25.762" fill="freeze" begin="8b6f.click" /><animate attributeName="stroke-dashoffset" values="25.762;25.762;0" keyTimes="0;0.778;1" dur="1.162s" fill="freeze" begin="0s;8b6f.click" /></path><path d="M17.31,72.37c6.44-0.89,11.48-2.1,17.42-3c1.49-0.22,2.39,1.04,2.18,2.06c-0.89,4.25-1.16,10.22-2.74,17.28" stroke-dasharray="38.696" stroke-dashoffset="38.696"><animate attributeName="stroke-dashoffset" values="38.696" fill="freeze" begin="8b6f.click" /><animate attributeName="stroke-dashoffset" values="38.696;38.696;0" keyTimes="0;0.75;1" dur="1.549s" fill="freeze" begin="0s;8b6f.click" /></path><path d="M20.47,91.55c4.8-0.54,9.1-0.97,15.69-1.81" stroke-dasharray="15.795" stroke-dashoffset="15.795"><animate attributeName="stroke-dashoffset" values="15.795" fill="freeze" begin="8b6f.click" /><animate attributeName="stroke-dashoffset" values="15.795;15.795;0" keyTimes="0;0.907;1" dur="1.707s" fill="freeze" begin="0s;8b6f.click" /></path><path d="M44.5,14.14c0.26,0.3,1.61,2.05,1.72,2.43c0.89,3,2.49,9.78,3.1,15.17" stroke-dasharray="18.483" stroke-dashoffset="18.483"><animate attributeName="stroke-dashoffset" values="18.483" fill="freeze" begin="8b6f.click" /><animate attributeName="stroke-dashoffset" values="18.483;18.483;0" keyTimes="0;0.902;1" dur="1.892s" fill="freeze" begin="0s;8b6f.click" /></path><path d="M46.09,16.18c9.89-1.18,41.97-3.8,44.96-4.19c1.09-0.14,3.58,2.02,3.29,3.7c-0.61,3.52-2.12,7.06-3.75,12.09" stroke-dasharray="63.221" stroke-dashoffset="63.221"><animate attributeName="stroke-dashoffset" values="63.221" fill="freeze" begin="8b6f.click" /><animate attributeName="stroke-dashoffset" values="63.221;63.221;0" keyTimes="0;0.799;1" dur="2.367s" fill="freeze" begin="0s;8b6f.click" /></path><path d="M61.42,15.5c0.17,2,1.38,10.75,1.55,13" stroke-dasharray="13.094" stroke-dashoffset="13.094"><animate attributeName="stroke-dashoffset" values="13.094" fill="freeze" begin="8b6f.click" /><animate attributeName="stroke-dashoffset" values="13.094;13.094;0" keyTimes="0;0.9;1" dur="2.629s" fill="freeze" begin="0s;8b6f.click" /></path><path d="M77.6,14.25c-0.17,3.25-0.03,10.25-0.38,12.25" stroke-dasharray="12.262" stroke-dashoffset="12.262"><animate attributeName="stroke-dashoffset" values="12.262" fill="freeze" begin="8b6f.click" /><animate attributeName="stroke-dashoffset" values="12.262;12.262;0" keyTimes="0;0.915;1" dur="2.874s" fill="freeze" begin="0s;8b6f.click" /></path><path d="M49.58,29.62C55.71,29.25,80.3,26,91,25.71" stroke-dasharray="41.613" stroke-dashoffset="41.613"><animate attributeName="stroke-dashoffset" values="41.613" fill="freeze" begin="8b6f.click" /><animate attributeName="stroke-dashoffset" values="41.613;41.613;0" keyTimes="0;0.874;1" dur="3.29s" fill="freeze" begin="0s;8b6f.click" /></path><path d="M50.57,40.2c0.95,0.32,2.68,0.4,3.62,0.32c12.14-1.08,20.69-3.17,32.91-3.45c1.57-0.04,2.52,0.15,3.31,0.31" stroke-dasharray="40.093" stroke-dashoffset="40.093"><animate attributeName="stroke-dashoffset" values="40.093" fill="freeze" begin="8b6f.click" /><animate attributeName="stroke-dashoffset" values="40.093;40.093;0" keyTimes="0;0.891;1" dur="3.691s" fill="freeze" begin="0s;8b6f.click" /></path><path d="M67.77,30.75c0.07,0.25,1.05,1.3,1.05,2.88c0,10.31-0.12,12.77-0.12,15.36" stroke-dasharray="18.475" stroke-dashoffset="18.475"><animate attributeName="stroke-dashoffset" values="18.475" fill="freeze" begin="8b6f.click" /><animate attributeName="stroke-dashoffset" values="18.475;18.475;0" keyTimes="0;0.952;1" dur="3.876s" fill="freeze" begin="0s;8b6f.click" /></path><path d="M44.13,51.19c1.24,0.4,3.52,0.5,4.76,0.4c13.36-1.09,27.8-3.29,43.39-3.95c2.07-0.09,3.31,0.19,4.35,0.39" stroke-dasharray="52.757" stroke-dashoffset="52.757"><animate attributeName="stroke-dashoffset" values="52.757" fill="freeze" begin="8b6f.click" /><animate attributeName="stroke-dashoffset" values="52.757;52.757;0" keyTimes="0;0.88;1" dur="4.404s" fill="freeze" begin="0s;8b6f.click" /></path><path d="M55.66,53.73c1.3,1.37,3.37,5.63,3.69,7.75" stroke-dasharray="8.659" stroke-dashoffset="8.659"><animate attributeName="stroke-dashoffset" values="8.659" fill="freeze" begin="8b6f.click" /><animate attributeName="stroke-dashoffset" values="8.659;8.659;0" keyTimes="0;0.962;1" dur="4.577s" fill="freeze" begin="0s;8b6f.click" /></path><path d="M81.96,52.25c0.02,0.22,0.03,0.57-0.03,0.88c-0.35,1.87-2.35,5.96-5.1,8.47" stroke-dasharray="10.896" stroke-dashoffset="10.896"><animate attributeName="stroke-dashoffset" values="10.896" fill="freeze" begin="8b6f.click" /><animate attributeName="stroke-dashoffset" values="10.896;10.896;0" keyTimes="0;0.955;1" dur="4.795s" fill="freeze" begin="0s;8b6f.click" /></path><path d="M45.71,65.12c0.97,0.36,4.29,0.38,5.26,0.32c6.68-0.42,27.11-2.66,38.5-3.37c1.6-0.1,4.97,0.31,5.78,0.49" stroke-dasharray="49.747" stroke-dashoffset="49.747"><animate attributeName="stroke-dashoffset" values="49.747" fill="freeze" begin="8b6f.click" /><animate attributeName="stroke-dashoffset" values="49.747;49.747;0" keyTimes="0;0.906;1" dur="5.292s" fill="freeze" begin="0s;8b6f.click" /></path><path d="M47.24,77.38c1.53,0.47,4.36,0.6,5.89,0.47c10.54-0.89,22.8-2.45,34.94-2.77c2.56-0.07,4.09,0.23,5.37,0.46" stroke-dasharray="46.394" stroke-dashoffset="46.394"><animate attributeName="stroke-dashoffset" values="46.394" fill="freeze" begin="8b6f.click" /><animate attributeName="stroke-dashoffset" values="46.394;46.394;0" keyTimes="0;0.919;1" dur="5.756s" fill="freeze" begin="0s;8b6f.click" /></path><path d="M66.99,66.99c0.32,0.43,0.99,2.37,1.05,3.23c0.06,0.86-0.04,24.91-0.1,30.28" stroke-dasharray="33.698" stroke-dashoffset="33.698"><animate attributeName="stroke-dashoffset" values="33.698" fill="freeze" begin="8b6f.click" /><animate attributeName="stroke-dashoffset" values="33.698;33.698;0" keyTimes="0;0.945;1" dur="6.093s" fill="freeze" begin="0s;8b6f.click" /></path></g></svg>