<svg xmlns="http://www.w3.org/2000/svg" viewBox="0 0 109 109" id="8b8e"><g fill="none" stroke="#666" stroke-width="6" stroke-linecap="round" stroke-linejoin="round"><g><g><g><path d="M27.56,15.3c0.19,1.59-0.06,3.66-0.68,5c-4,8.54-9.07,15.71-18.25,25.98" /><path d="M17.88,35.09c0.64,0.91,1.34,2.64,1.36,3.41c0.3,10.91-0.29,51.42-0.09,57.58" /></g><path d="M37.63,15.52c0.07,0.88-0.02,2.04-0.25,2.79c-1.44,4.78-3.27,8.45-6.58,14.23" /><path d="M18.46,35.09c5.54-0.34,20.94-2.15,22.85-2.65" /><path d="M30.21,34.16c0.22,0.43,0.74,3.01,0.74,3.74c0,7.38,0.02,41.28-0.11,52.88" /><path d="M19.76,51.62c5.74-0.37,18.86-2.01,20.67-2.4" /><path d="M19.18,69.07c5.32-0.32,19.09-1.76,20.99-2.08" /><path d="M19.48,91.69c7.27-0.44,15.77-1.44,21.77-1.52" /></g><g><path d="M48.23,17c3.34,1.81,8.63,7.44,9.47,10.25" /><path d="M43.37,35.58c0.49,0.23,2.37,0.27,2.86,0.23c6.08-0.42,11.73-1.67,16.15-1.87c0.82-0.04,2.05,0.11,2.47,0.23" /><path d="M46.44,47.56c0.3,0.12,2.12,0.13,2.41,0.12c3.09-0.14,5.65-0.43,9.19-1.05c0.49-0.08,2.56,0.06,2.81,0.12" /><path d="M46.72,61.33c0.27,0.12,1.89,0.13,2.16,0.12c2.76-0.13,7.87-0.7,10.49-1.09c0.44-0.07,2.29,0.06,2.51,0.11" /><g><path d="M45.48,75.4c0.27,0.36,0.58,0.65,0.67,1.13c0.77,4.21,1.26,12.54,2.04,18.71" /><path d="M46.67,77.37c5.02-0.89,8.34-1.6,12.97-2.5c1.16-0.22,1.86,1.04,1.7,2.06c-0.69,4.25-0.79,7.22-2.02,14.28" /><path d="M49.25,93.55c3.74-0.54,7.09-0.97,12.23-1.81" /></g></g><g><g><path d="M77.02,14.06c0.14,1.78-0.04,4.1-0.49,5.6c-2.83,9.57-6.42,17.62-12.91,29.13" /><path d="M71.42,33.58c0.58,0.85,0.71,2.48,0.73,3.2c0.27,10.24-0.26,52.52-0.08,58.3" /></g><path d="M89.46,13.77c0.06,0.89-0.02,2.06-0.21,2.81c-1.22,4.82-2.77,8.53-5.58,14.36" /><path d="M71.94,32.66c4.8-0.44,23.09-1.63,25.16-1.89" /><path d="M83.08,32.14c0.21,0.44,0.74,3.12,0.74,3.87c0,7.64,0.02,41.05-0.11,53.07" /><path d="M72.23,49.21c4.17-0.71,20.69-1.58,22.48-1.99" /><path d="M72.15,66.73c4.4-0.55,20.91-1.82,22.8-2.15" /><path d="M72.45,90.04c5.7-0.72,23.16-1.6,25.06-2.11" /></g></g></g><g fill="none" stroke="#000" stroke-width="3" stroke-linecap="round" stroke-linejoin="round"><path d="M27.56,15.3c0.19,1.59-0.06,3.66-0.68,5c-4,8.54-9.07,15.71-18.25,25.98" stroke-dasharray="36.974" stroke-dashoffset="36.974"><animate attributeName="stroke-dashoffset" values="36.974;36.974;0" dur="0.37s" fill="freeze" begin="0s;8b8e.click" /></path><path d="M17.88,35.09c0.64,0.91,1.34,2.64,1.36,3.41c0.3,10.91-0.29,51.42-0.09,57.58" stroke-dasharray="61.286" stroke-dashoffset="61.286"><animate attributeName="stroke-dashoffset" values="61.286" fill="freeze" begin="8b8e.click" /><animate attributeName="stroke-dashoffset" values="61.286;61.286;0" keyTimes="0;0.445;1" dur="0.831s" fill="freeze" begin="0s;8b8e.click" /></path><path d="M37.63,15.52c0.07,0.88-0.02,2.04-0.25,2.79c-1.44,4.78-3.27,8.45-6.58,14.23" stroke-dasharray="18.532" stroke-dashoffset="18.532"><animate attributeName="stroke-dashoffset" values="18.532" fill="freeze" begin="8b8e.click" /><animate attributeName="stroke-dashoffset" values="18.532;18.532;0" keyTimes="0;0.818;1" dur="1.016s" fill="freeze" begin="0s;8b8e.click" /></path><path d="M18.46,35.09c5.54-0.34,20.94-2.15,22.85-2.65" stroke-dasharray="23.012" stroke-dashoffset="23.012"><animate attributeName="stroke-dashoffset" values="23.012" fill="freeze" begin="8b8e.click" /><animate attributeName="stroke-dashoffset" values="23.012;23.012;0" keyTimes="0;0.815;1" dur="1.246s" fill="freeze" begin="0s;8b8e.click" /></path><path d="M30.21,34.16c0.22,0.43,0.74,3.01,0.74,3.74c0,7.38,0.02,41.28-0.11,52.88" stroke-dasharray="56.704" stroke-dashoffset="56.704"><animate attributeName="stroke-dashoffset" values="56.704" fill="freeze" begin="8b8e.click" /><animate attributeName="stroke-dashoffset" values="56.704;56.704;0" keyTimes="0;0.687;1" dur="1.813s" fill="freeze" begin="0s;8b8e.click" /></path><path d="M19.76,51.62c5.74-0.37,18.86-2.01,20.67-2.4" stroke-dasharray="20.815" stroke-dashoffset="20.815"><animate attributeName="stroke-dashoffset" values="20.815" fill="freeze" begin="8b8e.click" /><animate attributeName="stroke-dashoffset" values="20.815;20.815;0" keyTimes="0;0.897;1" dur="2.021s" fill="freeze" begin="0s;8b8e.click" /></path><path d="M19.18,69.07c5.32-0.32,19.09-1.76,20.99-2.08" stroke-dasharray="21.097" stroke-dashoffset="21.097"><animate attributeName="stroke-dashoffset" values="21.097" fill="freeze" begin="8b8e.click" /><animate attributeName="stroke-dashoffset" values="21.097;21.097;0" keyTimes="0;0.905;1" dur="2.232s" fill="freeze" begin="0s;8b8e.click" /></path><path d="M19.48,91.69c7.27-0.44,15.77-1.44,21.77-1.52" stroke-dasharray="21.827" stroke-dashoffset="21.827"><animate attributeName="stroke-dashoffset" values="21.827" fill="freeze" begin="8b8e.click" /><animate attributeName="stroke-dashoffset" values="21.827;21.827;0" keyTimes="0;0.911;1" dur="2.45s" fill="freeze" begin="0s;8b8e.click" /></path><path d="M48.23,17c3.34,1.81,8.63,7.44,9.47,10.25" stroke-dasharray="14.155" stroke-dashoffset="14.155"><animate attributeName="stroke-dashoffset" values="14.155" fill="freeze" begin="8b8e.click" /><animate attributeName="stroke-dashoffset" values="14.155;14.155;0" keyTimes="0;0.896;1" dur="2.733s" fill="freeze" begin="0s;8b8e.click" /></path><path d="M43.37,35.58c0.49,0.23,2.37,0.27,2.86,0.23c6.08-0.42,11.73-1.67,16.15-1.87c0.82-0.04,2.05,0.11,2.47,0.23" stroke-dasharray="21.634" stroke-dashoffset="21.634"><animate attributeName="stroke-dashoffset" values="21.634" fill="freeze" begin="8b8e.click" /><animate attributeName="stroke-dashoffset" values="21.634;21.634;0" keyTimes="0;0.927;1" dur="2.949s" fill="freeze" begin="0s;8b8e.click" /></path><path d="M46.44,47.56c0.3,0.12,2.12,0.13,2.41,0.12c3.09-0.14,5.65-0.43,9.19-1.05c0.49-0.08,2.56,0.06,2.81,0.12" stroke-dasharray="14.493" stroke-dashoffset="14.493"><animate attributeName="stroke-dashoffset" values="14.493" fill="freeze" begin="8b8e.click" /><animate attributeName="stroke-dashoffset" values="14.493;14.493;0" keyTimes="0;0.91;1" dur="3.239s" fill="freeze" begin="0s;8b8e.click" /></path><path d="M46.72,61.33c0.27,0.12,1.89,0.13,2.16,0.12c2.76-0.13,7.87-0.7,10.49-1.09c0.44-0.07,2.29,0.06,2.51,0.11" stroke-dasharray="15.235" stroke-dashoffset="15.235"><animate attributeName="stroke-dashoffset" values="15.235" fill="freeze" begin="8b8e.click" /><animate attributeName="stroke-dashoffset" values="15.235;15.235;0" keyTimes="0;0.955;1" dur="3.391s" fill="freeze" begin="0s;8b8e.click" /></path><path d="M45.48,75.4c0.27,0.36,0.58,0.65,0.67,1.13c0.77,4.21,1.26,12.54,2.04,18.71" stroke-dasharray="20.154" stroke-dashoffset="20.154"><animate attributeName="stroke-dashoffset" values="20.154" fill="freeze" begin="8b8e.click" /><animate attributeName="stroke-dashoffset" values="20.154;20.154;0" keyTimes="0;0.944;1" dur="3.593s" fill="freeze" begin="0s;8b8e.click" /></path><path d="M46.67,77.37c5.02-0.89,8.34-1.6,12.97-2.5c1.16-0.22,1.86,1.04,1.7,2.06c-0.69,4.25-0.79,7.22-2.02,14.28" stroke-dasharray="30.755" stroke-dashoffset="30.755"><animate attributeName="stroke-dashoffset" values="30.755" fill="freeze" begin="8b8e.click" /><animate attributeName="stroke-dashoffset" values="30.755;30.755;0" keyTimes="0;0.921;1" dur="3.901s" fill="freeze" begin="0s;8b8e.click" /></path><path d="M49.25,93.55c3.74-0.54,7.09-0.97,12.23-1.81" stroke-dasharray="12.365" stroke-dashoffset="12.365"><animate attributeName="stroke-dashoffset" values="12.365" fill="freeze" begin="8b8e.click" /><animate attributeName="stroke-dashoffset" values="12.365;12.365;0" keyTimes="0;0.94;1" dur="4.148s" fill="freeze" begin="0s;8b8e.click" /></path><path d="M77.02,14.06c0.14,1.78-0.04,4.1-0.49,5.6c-2.83,9.57-6.42,17.62-12.91,29.13" stroke-dasharray="37.587" stroke-dashoffset="37.587"><animate attributeName="stroke-dashoffset" values="37.587" fill="freeze" begin="8b8e.click" /><animate attributeName="stroke-dashoffset" values="37.587;37.587;0" keyTimes="0;0.917;1" dur="4.524s" fill="freeze" begin="0s;8b8e.click" /></path><path d="M71.42,33.58c0.58,0.85,0.71,2.48,0.73,3.2c0.27,10.24-0.26,52.52-0.08,58.3" stroke-dasharray="61.621" stroke-dashoffset="61.621"><animate attributeName="stroke-dashoffset" values="61.621" fill="freeze" begin="8b8e.click" /><animate attributeName="stroke-dashoffset" values="61.621;61.621;0" keyTimes="0;0.907;1" dur="4.987s" fill="freeze" begin="0s;8b8e.click" /></path><path d="M89.46,13.77c0.06,0.89-0.02,2.06-0.21,2.81c-1.22,4.82-2.77,8.53-5.58,14.36" stroke-dasharray="18.264" stroke-dashoffset="18.264"><animate attributeName="stroke-dashoffset" values="18.264" fill="freeze" begin="8b8e.click" /><animate attributeName="stroke-dashoffset" values="18.264;18.264;0" keyTimes="0;0.965;1" dur="5.17s" fill="freeze" begin="0s;8b8e.click" /></path><path d="M71.94,32.66c4.8-0.44,23.09-1.63,25.16-1.89" stroke-dasharray="25.232" stroke-dashoffset="25.232"><animate attributeName="stroke-dashoffset" values="25.232" fill="freeze" begin="8b8e.click" /><animate attributeName="stroke-dashoffset" values="25.232;25.232;0" keyTimes="0;0.954;1" dur="5.422s" fill="freeze" begin="0s;8b8e.click" /></path><path d="M83.08,32.14c0.21,0.44,0.74,3.12,0.74,3.87c0,7.64,0.02,41.05-0.11,53.07" stroke-dasharray="57.021" stroke-dashoffset="57.021"><animate attributeName="stroke-dashoffset" values="57.021" fill="freeze" begin="8b8e.click" /><animate attributeName="stroke-dashoffset" values="57.021;57.021;0" keyTimes="0;0.905;1" dur="5.992s" fill="freeze" begin="0s;8b8e.click" /></path><path d="M72.23,49.21c4.17-0.71,20.69-1.58,22.48-1.99" stroke-dasharray="22.574" stroke-dashoffset="22.574"><animate attributeName="stroke-dashoffset" values="22.574" fill="freeze" begin="8b8e.click" /><animate attributeName="stroke-dashoffset" values="22.574;22.574;0" keyTimes="0;0.964;1" dur="6.218s" fill="freeze" begin="0s;8b8e.click" /></path><path d="M72.15,66.73c4.4-0.55,20.91-1.82,22.8-2.15" stroke-dasharray="22.903" stroke-dashoffset="22.903"><animate attributeName="stroke-dashoffset" values="22.903" fill="freeze" begin="8b8e.click" /><animate attributeName="stroke-dashoffset" values="22.903;22.903;0" keyTimes="0;0.964;1" dur="6.447s" fill="freeze" begin="0s;8b8e.click" /></path><path d="M72.45,90.04c5.7-0.72,23.16-1.6,25.06-2.11" stroke-dasharray="25.155" stroke-dashoffset="25.155"><animate attributeName="stroke-dashoffset" values="25.155" fill="freeze" begin="8b8e.click" /><animate attributeName="stroke-dashoffset" values="25.155;25.155;0" keyTimes="0;0.962;1" dur="6.699s" fill="freeze" begin="0s;8b8e.click" /></path></g></svg>