<svg xmlns="http://www.w3.org/2000/svg" viewBox="0 0 109 109" id="8c8d"><g fill="none" stroke="#666" stroke-width="6" stroke-linecap="round" stroke-linejoin="round"><g><g><path d="M37.39,11c0.07,0.46-0.16,1.89-0.64,2.37C29.75,20.25,23,25,10.4,30.73" /><path d="M14.81,32.73c2.9,1.49,7.48,6.11,8.2,8.42" /><path d="M27.99,24.17c2.46,1.3,6.36,5.36,6.97,7.39" /><path d="M43.16,25.51c0.08,0.59-0.11,2.24-0.67,2.85C35.75,35.75,28,42,11.36,50.36" /><path d="M31.44,41.92c9.06,8.58,13.31,29.33,8.02,49.93c-2.83,10.99-8.51,0.96-9.61,0.05" /><path d="M34.11,48.67c0.06,0.47,0.31,1.31-0.13,1.89C30.5,55.25,21,63.75,11.8,68.66" /><path d="M37.89,61.14c0.07,0.6,0.31,1.64-0.14,2.42c-3.33,5.79-12.38,15.49-25.25,23.13" /></g><g><path d="M51.04,18.08c0.3,0.57,0.31,0.97,0.47,1.7c1.35,5.96,2.6,20.49,3.45,31.59" /><path d="M52.44,20.29c10.49-1.34,29.41-2.62,37.25-3.74c2.88-0.41,4.35,1.05,4.2,2.51c-0.54,5.37-2.83,20.5-4.15,29.48" /><path d="M53.9,34.17c3.42-0.52,33.92-3.46,36.75-3.68" /><path d="M55.5,48.46c7.55-0.57,23.81-1.55,34.24-2.49" /><path d="M69.33,18.63c1.17,1.12,1.57,3.35,1.6,4.36c0.39,12.89,0.16,62.85,0.16,67.51" /><path d="M50.97,67.88c1.01,0.48,2.87,0.53,3.89,0.48c10.55-0.55,25.65-1.61,34.82-2.51c1.68-0.17,2.7,0.23,3.55,0.47" /><path d="M45.38,92.23c1.3,0.54,3.68,0.63,4.98,0.54c13.52-0.91,26.62-2.77,42.72-2.73c2.17,0,3.46,0.26,4.55,0.53" /></g></g></g><g fill="none" stroke="#000" stroke-width="3" stroke-linecap="round" stroke-linejoin="round"><path d="M37.39,11c0.07,0.46-0.16,1.89-0.64,2.37C29.75,20.25,23,25,10.4,30.73" stroke-dasharray="34.249" stroke-dashoffset="34.249"><animate attributeName="stroke-dashoffset" values="34.249;34.249;0" dur="0.342s" fill="freeze" begin="0s;8c8d.click" /></path><path d="M14.81,32.73c2.9,1.49,7.48,6.11,8.2,8.42" stroke-dasharray="11.925" stroke-dashoffset="11.925"><animate attributeName="stroke-dashoffset" values="11.925" fill="freeze" begin="8c8d.click" /><animate attributeName="stroke-dashoffset" values="11.925;11.925;0" keyTimes="0;0.59;1" dur="0.58s" fill="freeze" begin="0s;8c8d.click" /></path><path d="M27.99,24.17c2.46,1.3,6.36,5.36,6.97,7.39" stroke-dasharray="10.307" stroke-dashoffset="10.307"><animate attributeName="stroke-dashoffset" values="10.307" fill="freeze" begin="8c8d.click" /><animate attributeName="stroke-dashoffset" values="10.307;10.307;0" keyTimes="0;0.738;1" dur="0.786s" fill="freeze" begin="0s;8c8d.click" /></path><path d="M43.16,25.51c0.08,0.59-0.11,2.24-0.67,2.85C35.75,35.75,28,42,11.36,50.36" stroke-dasharray="41.343" stroke-dashoffset="41.343"><animate attributeName="stroke-dashoffset" values="41.343" fill="freeze" begin="8c8d.click" /><animate attributeName="stroke-dashoffset" values="41.343;41.343;0" keyTimes="0;0.656;1" dur="1.199s" fill="freeze" begin="0s;8c8d.click" /></path><path d="M31.44,41.92c9.06,8.58,13.31,29.33,8.02,49.93c-2.83,10.99-8.51,0.96-9.61,0.05" stroke-dasharray="67.328" stroke-dashoffset="67.328"><animate attributeName="stroke-dashoffset" values="67.328" fill="freeze" begin="8c8d.click" /><animate attributeName="stroke-dashoffset" values="67.328;67.328;0" keyTimes="0;0.703;1" dur="1.705s" fill="freeze" begin="0s;8c8d.click" /></path><path d="M34.11,48.67c0.06,0.47,0.31,1.31-0.13,1.89C30.5,55.25,21,63.75,11.8,68.66" stroke-dasharray="30.751" stroke-dashoffset="30.751"><animate attributeName="stroke-dashoffset" values="30.751" fill="freeze" begin="8c8d.click" /><animate attributeName="stroke-dashoffset" values="30.751;30.751;0" keyTimes="0;0.847;1" dur="2.013s" fill="freeze" begin="0s;8c8d.click" /></path><path d="M37.89,61.14c0.07,0.6,0.31,1.64-0.14,2.42c-3.33,5.79-12.38,15.49-25.25,23.13" stroke-dasharray="37.019" stroke-dashoffset="37.019"><animate attributeName="stroke-dashoffset" values="37.019" fill="freeze" begin="8c8d.click" /><animate attributeName="stroke-dashoffset" values="37.019;37.019;0" keyTimes="0;0.845;1" dur="2.383s" fill="freeze" begin="0s;8c8d.click" /></path><path d="M51.04,18.08c0.3,0.57,0.31,0.97,0.47,1.7c1.35,5.96,2.6,20.49,3.45,31.59" stroke-dasharray="33.567" stroke-dashoffset="33.567"><animate attributeName="stroke-dashoffset" values="33.567" fill="freeze" begin="8c8d.click" /><animate attributeName="stroke-dashoffset" values="33.567;33.567;0" keyTimes="0;0.876;1" dur="2.719s" fill="freeze" begin="0s;8c8d.click" /></path><path d="M52.44,20.29c10.49-1.34,29.41-2.62,37.25-3.74c2.88-0.41,4.35,1.05,4.2,2.51c-0.54,5.37-2.83,20.5-4.15,29.48" stroke-dasharray="72.863" stroke-dashoffset="72.863"><animate attributeName="stroke-dashoffset" values="72.863" fill="freeze" begin="8c8d.click" /><animate attributeName="stroke-dashoffset" values="72.863;72.863;0" keyTimes="0;0.832;1" dur="3.267s" fill="freeze" begin="0s;8c8d.click" /></path><path d="M53.9,34.17c3.42-0.52,33.92-3.46,36.75-3.68" stroke-dasharray="36.936" stroke-dashoffset="36.936"><animate attributeName="stroke-dashoffset" values="36.936" fill="freeze" begin="8c8d.click" /><animate attributeName="stroke-dashoffset" values="36.936;36.936;0" keyTimes="0;0.899;1" dur="3.636s" fill="freeze" begin="0s;8c8d.click" /></path><path d="M55.5,48.46c7.55-0.57,23.81-1.55,34.24-2.49" stroke-dasharray="34.332" stroke-dashoffset="34.332"><animate attributeName="stroke-dashoffset" values="34.332" fill="freeze" begin="8c8d.click" /><animate attributeName="stroke-dashoffset" values="34.332;34.332;0" keyTimes="0;0.914;1" dur="3.979s" fill="freeze" begin="0s;8c8d.click" /></path><path d="M69.33,18.63c1.17,1.12,1.57,3.35,1.6,4.36c0.39,12.89,0.16,62.85,0.16,67.51" stroke-dasharray="72.254" stroke-dashoffset="72.254"><animate attributeName="stroke-dashoffset" values="72.254" fill="freeze" begin="8c8d.click" /><animate attributeName="stroke-dashoffset" values="72.254;72.254;0" keyTimes="0;0.88;1" dur="4.522s" fill="freeze" begin="0s;8c8d.click" /></path><path d="M50.97,67.88c1.01,0.48,2.87,0.53,3.89,0.48c10.55-0.55,25.65-1.61,34.82-2.51c1.68-0.17,2.7,0.23,3.55,0.47" stroke-dasharray="42.474" stroke-dashoffset="42.474"><animate attributeName="stroke-dashoffset" values="42.474" fill="freeze" begin="8c8d.click" /><animate attributeName="stroke-dashoffset" values="42.474;42.474;0" keyTimes="0;0.914;1" dur="4.947s" fill="freeze" begin="0s;8c8d.click" /></path><path d="M45.38,92.23c1.3,0.54,3.68,0.63,4.98,0.54c13.52-0.91,26.62-2.77,42.72-2.73c2.17,0,3.46,0.26,4.55,0.53" stroke-dasharray="52.46" stroke-dashoffset="52.46"><animate attributeName="stroke-dashoffset" values="52.46" fill="freeze" begin="8c8d.click" /><animate attributeName="stroke-dashoffset" values="52.46;52.46;0" keyTimes="0;0.904;1" dur="5.472s" fill="freeze" begin="0s;8c8d.click" /></path></g></svg>