<svg xmlns="http://www.w3.org/2000/svg" viewBox="0 0 109 109" id="8ca8"><g fill="none" stroke="#666" stroke-width="6" stroke-linecap="round" stroke-linejoin="round"><g><g p4:phon="化" xmlns:p4="http://kanjivg.tagaini.net"><g><path d="M37.57,12.11c0.22,1.2-0.06,2.77-0.76,3.8c-4.48,6.56-10.16,12.72-20.43,20.7" /><path d="M30.49,26.71c0.72,0.72,1.25,1.94,1.24,3.17c-0.04,5.38-0.15,12.25-0.2,17.62c-0.02,1.9-0.03,3.61-0.03,5" /></g><g><path d="M82.44,14.5c0,0.99-0.23,1.44-1.38,2.38c-3.62,2.96-13.78,8.02-18.44,9.5" /><path d="M58.45,11.75c0.84,0.84,1.27,2,1.27,3.18c0,0.37-0.04,8.08-0.04,13.7c0,8.75,1.82,9.64,15.32,9.64c14.38,0,15.5-1.39,15.5-7.69" /></g></g><g><g><path d="M38.98,47.27c0.51,0.87,1.01,2.27,1.01,3.45c0,1-0.06,22.51-0.08,31.41c0,1.6-0.01,2.8-0.01,3.39" /><path d="M40.85,48.83c2.55-0.18,20.21-2.61,26.16-3.34c3.44-0.42,5.47,0.53,5.45,4.14c-0.02,5.04-0.08,17.92-0.09,29.12c0,1.36,0,2.69,0,3.98" /><path d="M41.05,60.05c6.83-0.8,25.56-2.91,30.21-3.01" /><path d="M41.29,71.9c7.84-1.03,21.21-2.78,30.13-3.37" /><path d="M41.03,83.16c8.47-0.91,22.92-2.71,30.38-2.87" /></g><g><path d="M46.73,88.03c0.39,0.96,0.02,1.98-0.75,2.68c-2.32,2.12-6.98,5.79-14.35,9.6" /><path d="M66.44,88.97c6.18,3.09,13.49,8.69,15.18,11.39" /></g></g></g></g><g fill="none" stroke="#000" stroke-width="3" stroke-linecap="round" stroke-linejoin="round"><path d="M37.57,12.11c0.22,1.2-0.06,2.77-0.76,3.8c-4.48,6.56-10.16,12.72-20.43,20.7" stroke-dasharray="33.173" stroke-dashoffset="33.173"><animate attributeName="stroke-dashoffset" values="33.173;33.173;0" dur="0.332s" fill="freeze" begin="0s;8ca8.click" /></path><path d="M30.49,26.71c0.72,0.72,1.25,1.94,1.24,3.17c-0.04,5.38-0.15,12.25-0.2,17.62c-0.02,1.9-0.03,3.61-0.03,5" stroke-dasharray="26.11" stroke-dashoffset="26.11"><animate attributeName="stroke-dashoffset" values="26.11" fill="freeze" begin="8ca8.click" /><animate attributeName="stroke-dashoffset" values="26.11;26.11;0" keyTimes="0;0.56;1" dur="0.593s" fill="freeze" begin="0s;8ca8.click" /></path><path d="M82.44,14.5c0,0.99-0.23,1.44-1.38,2.38c-3.62,2.96-13.78,8.02-18.44,9.5" stroke-dasharray="23.694" stroke-dashoffset="23.694"><animate attributeName="stroke-dashoffset" values="23.694" fill="freeze" begin="8ca8.click" /><animate attributeName="stroke-dashoffset" values="23.694;23.694;0" keyTimes="0;0.714;1" dur="0.83s" fill="freeze" begin="0s;8ca8.click" /></path><path d="M58.45,11.75c0.84,0.84,1.27,2,1.27,3.18c0,0.37-0.04,8.08-0.04,13.7c0,8.75,1.82,9.64,15.32,9.64c14.38,0,15.5-1.39,15.5-7.69" stroke-dasharray="59.424" stroke-dashoffset="59.424"><animate attributeName="stroke-dashoffset" values="59.424" fill="freeze" begin="8ca8.click" /><animate attributeName="stroke-dashoffset" values="59.424;59.424;0" keyTimes="0;0.583;1" dur="1.424s" fill="freeze" begin="0s;8ca8.click" /></path><path d="M38.98,47.27c0.51,0.87,1.01,2.27,1.01,3.45c0,1-0.06,22.51-0.08,31.41c0,1.6-0.01,2.8-0.01,3.39" stroke-dasharray="38.432" stroke-dashoffset="38.432"><animate attributeName="stroke-dashoffset" values="38.432" fill="freeze" begin="8ca8.click" /><animate attributeName="stroke-dashoffset" values="38.432;38.432;0" keyTimes="0;0.788;1" dur="1.808s" fill="freeze" begin="0s;8ca8.click" /></path><path d="M40.85,48.83c2.55-0.18,20.21-2.61,26.16-3.34c3.44-0.42,5.47,0.53,5.45,4.14c-0.02,5.04-0.08,17.92-0.09,29.12c0,1.36,0,2.69,0,3.98" stroke-dasharray="67.642" stroke-dashoffset="67.642"><animate attributeName="stroke-dashoffset" values="67.642" fill="freeze" begin="8ca8.click" /><animate attributeName="stroke-dashoffset" values="67.642;67.642;0" keyTimes="0;0.78;1" dur="2.317s" fill="freeze" begin="0s;8ca8.click" /></path><path d="M41.05,60.05c6.83-0.8,25.56-2.91,30.21-3.01" stroke-dasharray="30.365" stroke-dashoffset="30.365"><animate attributeName="stroke-dashoffset" values="30.365" fill="freeze" begin="8ca8.click" /><animate attributeName="stroke-dashoffset" values="30.365;30.365;0" keyTimes="0;0.884;1" dur="2.621s" fill="freeze" begin="0s;8ca8.click" /></path><path d="M41.29,71.9c7.84-1.03,21.21-2.78,30.13-3.37" stroke-dasharray="30.323" stroke-dashoffset="30.323"><animate attributeName="stroke-dashoffset" values="30.323" fill="freeze" begin="8ca8.click" /><animate attributeName="stroke-dashoffset" values="30.323;30.323;0" keyTimes="0;0.896;1" dur="2.924s" fill="freeze" begin="0s;8ca8.click" /></path><path d="M41.03,83.16c8.47-0.91,22.92-2.71,30.38-2.87" stroke-dasharray="30.524" stroke-dashoffset="30.524"><animate attributeName="stroke-dashoffset" values="30.524" fill="freeze" begin="8ca8.click" /><animate attributeName="stroke-dashoffset" values="30.524;30.524;0" keyTimes="0;0.906;1" dur="3.229s" fill="freeze" begin="0s;8ca8.click" /></path><path d="M46.73,88.03c0.39,0.96,0.02,1.98-0.75,2.68c-2.32,2.12-6.98,5.79-14.35,9.6" stroke-dasharray="20.281" stroke-dashoffset="20.281"><animate attributeName="stroke-dashoffset" values="20.281" fill="freeze" begin="8ca8.click" /><animate attributeName="stroke-dashoffset" values="20.281;20.281;0" keyTimes="0;0.941;1" dur="3.432s" fill="freeze" begin="0s;8ca8.click" /></path><path d="M66.44,88.97c6.18,3.09,13.49,8.69,15.18,11.39" stroke-dasharray="19.111" stroke-dashoffset="19.111"><animate attributeName="stroke-dashoffset" values="19.111" fill="freeze" begin="8ca8.click" /><animate attributeName="stroke-dashoffset" values="19.111;19.111;0" keyTimes="0;0.947;1" dur="3.623s" fill="freeze" begin="0s;8ca8.click" /></path></g></svg>