<svg xmlns="http://www.w3.org/2000/svg" viewBox="0 0 109 109" id="8cb2"><g fill="none" stroke="#666" stroke-width="6" stroke-linecap="round" stroke-linejoin="round"><g><g><g><g><path d="M31.32,12.42c1.43,1.08,1.62,2.54,1.82,3.01c0.2,0.46-0.07,18.25-0.07,23.25" /><path d="M33.65,23.35c4.5-0.35,10.82-1.04,15.24-1.39c1.1-0.09,1.38-0.12,2.06,0" /></g><path d="M17.45,23.7c0.55,0.55,1.32,1.8,1.32,3.51c0,2.55,0.26,12.31,0.26,15.68" /><path d="M16.35,42.89c0.4,0.59,2.24,0.77,3.27,0.44c8.13-2.58,22.48-7.58,31.42-10.93" /></g><g><path d="M84.05,14.11C84,15,83.84,15.42,83.38,15.73c-3,2.05-12.77,7.21-22.45,9.31" /><path d="M55.96,9.75c1,0.55,1.4,1.85,1.4,2.66c0,6.09,0.11,12.7,0.11,17.72c0,8.37,0.78,8.72,17.07,8.72c15.96,0,16.86-1.35,16.86-8.42" /></g></g><g><g><path d="M31.24,49.5c0.56,0.8,1.38,1.38,1.38,2.48c0,1.09,0.26,29.13-0.41,33.72" /><path d="M33.56,50.38c3.18-0.23,35.93-3.05,38.79-3.56c1.93-0.34,3.41,1,3.7,2.73c0.42,2.45-0.71,33.91-0.71,34.72" /><path d="M33.18,60.89c5.94-0.5,36.99-2.12,42.08-2.28" /><path d="M32.94,71.26c8.97-0.88,32.85-2.08,42.36-2.5" /><path d="M32.53,83.55c8.97-0.73,34.59-1.95,42.77-2.2" /></g><g><path d="M40.17,87.9c0.63,1.14-0.47,2.26-1.73,3.07C34.5,93.5,27.25,98,17.13,101.75" /><path d="M64.77,86.23c8.8,3.75,19.2,10.53,21.6,13.81" /></g></g></g></g><g fill="none" stroke="#000" stroke-width="3" stroke-linecap="round" stroke-linejoin="round"><path d="M31.32,12.42c1.43,1.08,1.62,2.54,1.82,3.01c0.2,0.46-0.07,18.25-0.07,23.25" stroke-dasharray="26.843" stroke-dashoffset="26.843"><animate attributeName="stroke-dashoffset" values="26.843;26.843;0" dur="0.268s" fill="freeze" begin="0s;8cb2.click" /></path><path d="M33.65,23.35c4.5-0.35,10.82-1.04,15.24-1.39c1.1-0.09,1.38-0.12,2.06,0" stroke-dasharray="17.372" stroke-dashoffset="17.372"><animate attributeName="stroke-dashoffset" values="17.372" fill="freeze" begin="8cb2.click" /><animate attributeName="stroke-dashoffset" values="17.372;17.372;0" keyTimes="0;0.606;1" dur="0.442s" fill="freeze" begin="0s;8cb2.click" /></path><path d="M17.45,23.7c0.55,0.55,1.32,1.8,1.32,3.51c0,2.55,0.26,12.31,0.26,15.68" stroke-dasharray="19.523" stroke-dashoffset="19.523"><animate attributeName="stroke-dashoffset" values="19.523" fill="freeze" begin="8cb2.click" /><animate attributeName="stroke-dashoffset" values="19.523;19.523;0" keyTimes="0;0.694;1" dur="0.637s" fill="freeze" begin="0s;8cb2.click" /></path><path d="M16.35,42.89c0.4,0.59,2.24,0.77,3.27,0.44c8.13-2.58,22.48-7.58,31.42-10.93" stroke-dasharray="36.704" stroke-dashoffset="36.704"><animate attributeName="stroke-dashoffset" values="36.704" fill="freeze" begin="8cb2.click" /><animate attributeName="stroke-dashoffset" values="36.704;36.704;0" keyTimes="0;0.634;1" dur="1.004s" fill="freeze" begin="0s;8cb2.click" /></path><path d="M84.05,14.11C84,15,83.84,15.42,83.38,15.73c-3,2.05-12.77,7.21-22.45,9.31" stroke-dasharray="26.244" stroke-dashoffset="26.244"><animate attributeName="stroke-dashoffset" values="26.244" fill="freeze" begin="8cb2.click" /><animate attributeName="stroke-dashoffset" values="26.244;26.244;0" keyTimes="0;0.793;1" dur="1.266s" fill="freeze" begin="0s;8cb2.click" /></path><path d="M55.96,9.75c1,0.55,1.4,1.85,1.4,2.66c0,6.09,0.11,12.7,0.11,17.72c0,8.37,0.78,8.72,17.07,8.72c15.96,0,16.86-1.35,16.86-8.42" stroke-dasharray="66.306" stroke-dashoffset="66.306"><animate attributeName="stroke-dashoffset" values="66.306" fill="freeze" begin="8cb2.click" /><animate attributeName="stroke-dashoffset" values="66.306;66.306;0" keyTimes="0;0.717;1" dur="1.765s" fill="freeze" begin="0s;8cb2.click" /></path><path d="M31.24,49.5c0.56,0.8,1.38,1.38,1.38,2.48c0,1.09,0.26,29.13-0.41,33.72" stroke-dasharray="36.637" stroke-dashoffset="36.637"><animate attributeName="stroke-dashoffset" values="36.637" fill="freeze" begin="8cb2.click" /><animate attributeName="stroke-dashoffset" values="36.637;36.637;0" keyTimes="0;0.828;1" dur="2.131s" fill="freeze" begin="0s;8cb2.click" /></path><path d="M33.56,50.38c3.18-0.23,35.93-3.05,38.79-3.56c1.93-0.34,3.41,1,3.7,2.73c0.42,2.45-0.71,33.91-0.71,34.72" stroke-dasharray="78.832" stroke-dashoffset="78.832"><animate attributeName="stroke-dashoffset" values="78.832" fill="freeze" begin="8cb2.click" /><animate attributeName="stroke-dashoffset" values="78.832;78.832;0" keyTimes="0;0.782;1" dur="2.724s" fill="freeze" begin="0s;8cb2.click" /></path><path d="M33.18,60.89c5.94-0.5,36.99-2.12,42.08-2.28" stroke-dasharray="42.144" stroke-dashoffset="42.144"><animate attributeName="stroke-dashoffset" values="42.144" fill="freeze" begin="8cb2.click" /><animate attributeName="stroke-dashoffset" values="42.144;42.144;0" keyTimes="0;0.866;1" dur="3.145s" fill="freeze" begin="0s;8cb2.click" /></path><path d="M32.94,71.26c8.97-0.88,32.85-2.08,42.36-2.5" stroke-dasharray="42.438" stroke-dashoffset="42.438"><animate attributeName="stroke-dashoffset" values="42.438" fill="freeze" begin="8cb2.click" /><animate attributeName="stroke-dashoffset" values="42.438;42.438;0" keyTimes="0;0.881;1" dur="3.569s" fill="freeze" begin="0s;8cb2.click" /></path><path d="M32.53,83.55c8.97-0.73,34.59-1.95,42.77-2.2" stroke-dasharray="42.83" stroke-dashoffset="42.83"><animate attributeName="stroke-dashoffset" values="42.83" fill="freeze" begin="8cb2.click" /><animate attributeName="stroke-dashoffset" values="42.83;42.83;0" keyTimes="0;0.893;1" dur="3.997s" fill="freeze" begin="0s;8cb2.click" /></path><path d="M40.17,87.9c0.63,1.14-0.47,2.26-1.73,3.07C34.5,93.5,27.25,98,17.13,101.75" stroke-dasharray="27.822" stroke-dashoffset="27.822"><animate attributeName="stroke-dashoffset" values="27.822" fill="freeze" begin="8cb2.click" /><animate attributeName="stroke-dashoffset" values="27.822;27.822;0" keyTimes="0;0.935;1" dur="4.275s" fill="freeze" begin="0s;8cb2.click" /></path><path d="M64.77,86.23c8.8,3.75,19.2,10.53,21.6,13.81" stroke-dasharray="25.802" stroke-dashoffset="25.802"><animate attributeName="stroke-dashoffset" values="25.802" fill="freeze" begin="8cb2.click" /><animate attributeName="stroke-dashoffset" values="25.802;25.802;0" keyTimes="0;0.943;1" dur="4.533s" fill="freeze" begin="0s;8cb2.click" /></path></g></svg>