<svg xmlns="http://www.w3.org/2000/svg" viewBox="0 0 109 109" id="8ce0"><g fill="none" stroke="#666" stroke-width="6" stroke-linecap="round" stroke-linejoin="round"><g><g><g><path d="M16.04,23.75c0.79,0.79,1.1,1.95,1.1,3.44c0,0.93,0.04,27.34,0.03,39.94c0,3.9-0.03,4.5-0.03,6.07" /><path d="M17.72,25.54c3.77-0.74,12.45-2.45,16.57-3.2c3.17-0.57,4.3,0.13,4.3,3.53c0,7.51,0.07,27.59-0.03,38.47c-0.03,3.34-0.05,5.54-0.05,5.79" /><path d="M18.43,39.02c3.65-0.43,15.8-2.52,18.93-2.52" /><path d="M18.34,53.88c5.51-0.82,13.46-1.98,19.29-2.15" /><path d="M18.33,69.77c5.51-0.61,14.03-1.98,19.05-1.98" /></g><g><path d="M23.43,78.4c0.28,1.18,0.05,2-0.5,2.85c-1.65,2.59-6.25,8.44-9.55,11.5" /><path d="M35.43,76.98c2.83,4.02,6.17,11.29,6.94,14.81" /></g></g><g p4:phon="立口/否V" xmlns:p4="http://kanjivg.tagaini.net"><g><g><path d="M69.35,16c1.14,1.14,1.39,2.12,1.39,3.5c0,1.75,0,5.75,0,10.5" /><path d="M51.38,31.7c2,0.61,4.33,0.59,6.38,0.46c7.55-0.48,20.04-2.34,28.11-3.25c1.84-0.21,3.41-0.17,5.22,0.16" /></g><g><path d="M57,38.75c3.49,4.47,5.08,9.05,5.4,12" /><path d="M82.45,34.25c0.42,1,0.15,1.97-0.03,2.46c-1.42,3.91-5.63,12.82-7.08,15.54" /><path d="M45.5,57.05c2.21,0.64,4.87,0.58,7.14,0.31c12.79-1.5,24.52-3.24,39.24-4.03c2.51-0.13,4.89,0.07,7.37,0.5" /></g></g><g><path d="M54.48,69.87c0.84,0.73,1.31,1.65,1.4,2.76c0.63,4.87,1.38,10.03,1.95,15.62c0.2,1.9,0.39,3.69,0.6,5.25" /><path d="M57.17,71.75c7.42-1.14,20.77-2.66,26.72-3.32c3.15-0.35,4.51,0.31,3.79,3.58c-1,4.54-2.69,10.29-4,15.84" /><path d="M59.37,91.35c4.66-0.5,15.72-1.3,23.41-2.08c1.21-0.12,2.85-0.11,3.84-0.11" /></g></g></g></g><g fill="none" stroke="#000" stroke-width="3" stroke-linecap="round" stroke-linejoin="round"><path d="M16.04,23.75c0.79,0.79,1.1,1.95,1.1,3.44c0,0.93,0.04,27.34,0.03,39.94c0,3.9-0.03,4.5-0.03,6.07" stroke-dasharray="49.72" stroke-dashoffset="49.72"><animate attributeName="stroke-dashoffset" values="49.72;49.72;0" dur="0.497s" fill="freeze" begin="0s;8ce0.click" /></path><path d="M17.72,25.54c3.77-0.74,12.45-2.45,16.57-3.2c3.17-0.57,4.3,0.13,4.3,3.53c0,7.51,0.07,27.59-0.03,38.47c-0.03,3.34-0.05,5.54-0.05,5.79" stroke-dasharray="68.087" stroke-dashoffset="68.087"><animate attributeName="stroke-dashoffset" values="68.087" fill="freeze" begin="8ce0.click" /><animate attributeName="stroke-dashoffset" values="68.087;68.087;0" keyTimes="0;0.493;1" dur="1.009s" fill="freeze" begin="0s;8ce0.click" /></path><path d="M18.43,39.02c3.65-0.43,15.8-2.52,18.93-2.52" stroke-dasharray="19.105" stroke-dashoffset="19.105"><animate attributeName="stroke-dashoffset" values="19.105" fill="freeze" begin="8ce0.click" /><animate attributeName="stroke-dashoffset" values="19.105;19.105;0" keyTimes="0;0.841;1" dur="1.2s" fill="freeze" begin="0s;8ce0.click" /></path><path d="M18.34,53.88c5.51-0.82,13.46-1.98,19.29-2.15" stroke-dasharray="19.421" stroke-dashoffset="19.421"><animate attributeName="stroke-dashoffset" values="19.421" fill="freeze" begin="8ce0.click" /><animate attributeName="stroke-dashoffset" values="19.421;19.421;0" keyTimes="0;0.861;1" dur="1.394s" fill="freeze" begin="0s;8ce0.click" /></path><path d="M18.33,69.77c5.51-0.61,14.03-1.98,19.05-1.98" stroke-dasharray="19.163" stroke-dashoffset="19.163"><animate attributeName="stroke-dashoffset" values="19.163" fill="freeze" begin="8ce0.click" /><animate attributeName="stroke-dashoffset" values="19.163;19.163;0" keyTimes="0;0.879;1" dur="1.586s" fill="freeze" begin="0s;8ce0.click" /></path><path d="M23.43,78.4c0.28,1.18,0.05,2-0.5,2.85c-1.65,2.59-6.25,8.44-9.55,11.5" stroke-dasharray="17.964" stroke-dashoffset="17.964"><animate attributeName="stroke-dashoffset" values="17.964" fill="freeze" begin="8ce0.click" /><animate attributeName="stroke-dashoffset" values="17.964;17.964;0" keyTimes="0;0.898;1" dur="1.766s" fill="freeze" begin="0s;8ce0.click" /></path><path d="M35.43,76.98c2.83,4.02,6.17,11.29,6.94,14.81" stroke-dasharray="16.427" stroke-dashoffset="16.427"><animate attributeName="stroke-dashoffset" values="16.427" fill="freeze" begin="8ce0.click" /><animate attributeName="stroke-dashoffset" values="16.427;16.427;0" keyTimes="0;0.915;1" dur="1.93s" fill="freeze" begin="0s;8ce0.click" /></path><path d="M69.35,16c1.14,1.14,1.39,2.12,1.39,3.5c0,1.75,0,5.75,0,10.5" stroke-dasharray="14.391" stroke-dashoffset="14.391"><animate attributeName="stroke-dashoffset" values="14.391" fill="freeze" begin="8ce0.click" /><animate attributeName="stroke-dashoffset" values="14.391;14.391;0" keyTimes="0;0.87;1" dur="2.218s" fill="freeze" begin="0s;8ce0.click" /></path><path d="M51.38,31.7c2,0.61,4.33,0.59,6.38,0.46c7.55-0.48,20.04-2.34,28.11-3.25c1.84-0.21,3.41-0.17,5.22,0.16" stroke-dasharray="39.975" stroke-dashoffset="39.975"><animate attributeName="stroke-dashoffset" values="39.975" fill="freeze" begin="8ce0.click" /><animate attributeName="stroke-dashoffset" values="39.975;39.975;0" keyTimes="0;0.847;1" dur="2.618s" fill="freeze" begin="0s;8ce0.click" /></path><path d="M57,38.75c3.49,4.47,5.08,9.05,5.4,12" stroke-dasharray="13.313" stroke-dashoffset="13.313"><animate attributeName="stroke-dashoffset" values="13.313" fill="freeze" begin="8ce0.click" /><animate attributeName="stroke-dashoffset" values="13.313;13.313;0" keyTimes="0;0.908;1" dur="2.884s" fill="freeze" begin="0s;8ce0.click" /></path><path d="M82.45,34.25c0.42,1,0.15,1.97-0.03,2.46c-1.42,3.91-5.63,12.82-7.08,15.54" stroke-dasharray="19.605" stroke-dashoffset="19.605"><animate attributeName="stroke-dashoffset" values="19.605" fill="freeze" begin="8ce0.click" /><animate attributeName="stroke-dashoffset" values="19.605;19.605;0" keyTimes="0;0.936;1" dur="3.08s" fill="freeze" begin="0s;8ce0.click" /></path><path d="M45.5,57.05c2.21,0.64,4.87,0.58,7.14,0.31c12.79-1.5,24.52-3.24,39.24-4.03c2.51-0.13,4.89,0.07,7.37,0.5" stroke-dasharray="54.051" stroke-dashoffset="54.051"><animate attributeName="stroke-dashoffset" values="54.051" fill="freeze" begin="8ce0.click" /><animate attributeName="stroke-dashoffset" values="54.051;54.051;0" keyTimes="0;0.851;1" dur="3.621s" fill="freeze" begin="0s;8ce0.click" /></path><path d="M54.48,69.87c0.84,0.73,1.31,1.65,1.4,2.76c0.63,4.87,1.38,10.03,1.95,15.62c0.2,1.9,0.39,3.69,0.6,5.25" stroke-dasharray="24.206" stroke-dashoffset="24.206"><animate attributeName="stroke-dashoffset" values="24.206" fill="freeze" begin="8ce0.click" /><animate attributeName="stroke-dashoffset" values="24.206;24.206;0" keyTimes="0;0.937;1" dur="3.863s" fill="freeze" begin="0s;8ce0.click" /></path><path d="M57.17,71.75c7.42-1.14,20.77-2.66,26.72-3.32c3.15-0.35,4.51,0.31,3.79,3.58c-1,4.54-2.69,10.29-4,15.84" stroke-dasharray="50.062" stroke-dashoffset="50.062"><animate attributeName="stroke-dashoffset" values="50.062" fill="freeze" begin="8ce0.click" /><animate attributeName="stroke-dashoffset" values="50.062;50.062;0" keyTimes="0;0.885;1" dur="4.364s" fill="freeze" begin="0s;8ce0.click" /></path><path d="M59.37,91.35c4.66-0.5,15.72-1.3,23.41-2.08c1.21-0.12,2.85-0.11,3.84-0.11" stroke-dasharray="27.347" stroke-dashoffset="27.347"><animate attributeName="stroke-dashoffset" values="27.347" fill="freeze" begin="8ce0.click" /><animate attributeName="stroke-dashoffset" values="27.347;27.347;0" keyTimes="0;0.941;1" dur="4.637s" fill="freeze" begin="0s;8ce0.click" /></path></g></svg>