<svg xmlns="http://www.w3.org/2000/svg" viewBox="0 0 109 109" id="8ce6"><g fill="none" stroke="#666" stroke-width="6" stroke-linecap="round" stroke-linejoin="round"><g><g><g><path d="M14.49,25.31c0.91,0.91,1.06,2.07,1.06,3.43c0,1.23-0.07,31.85-0.04,43.01c0.01,2.34,0.02,3.86,0.04,4.12" /><path d="M16.6,26.78c1.59-0.16,11.09-1.73,15.06-2.33c2.48-0.37,3.9,0.19,3.82,2.92c-0.14,4.67-0.07,29.29-0.07,40.12c0,1.75-0.03,3.5-0.03,5.12" /><path d="M16.88,41.25c2.4,0,14.26-1.92,16.96-1.92" /><path d="M16.97,55.65c5.28-0.65,11.78-1.4,17.14-1.98" /><path d="M16.7,72.67c4.67-0.55,11.42-1.67,17.39-2.23" /></g><g><path d="M20.78,81.2c0.35,1.18,0.08,2.2-0.5,3.17c-1.76,2.94-6.93,9.66-10.44,13.13" /><path d="M29.17,78.17c3.05,2.98,6.66,8.38,7.49,10.99" /></g></g><g p4:phon="武" xmlns:p4="http://kanjivg.tagaini.net"><g><path d="M44.62,28.96c1.09,0.48,3.25,0.53,4.39,0.34c3.4-0.56,8.06-1.88,11-2.37c0.93-0.15,1.82-0.21,2.75-0.19" /></g><g><path d="M42,42.45c2.38,1.13,5.67,0.69,8.11,0.11c9.26-2.19,25.32-4.95,36.5-6.26c2.29-0.27,4.68-0.66,6.95-0.01" /></g><g><g><path d="M55.83,49.18c0.93,0.93,1.09,1.95,1.09,3.41c0,0.97-0.01,23.54-0.01,29.41" /><path d="M57.98,61.82c4.23-0.56,5.34-1.38,9.8-1.75c1.04-0.09,1.29-0.19,1.94,0" /></g><path d="M45.88,62.09c0.89,0.89,1.09,1.79,1.09,2.91c0,0.75-0.09,15.42-0.09,22" /><path d="M43,87.54c0.42,0.71,2.33,0.88,3.4,0.41c10.03-4.42,10.41-5.25,23.47-11.32" /></g><g><path d="M69,11.5c1.31,1.31,1.81,2.87,1.89,5.81C71.75,47.75,78,80.88,92.38,95.63c4.71,4.83,4.92,1.04,4.34-7.11" /><g><path d="M82.06,17c2.69,1.85,6.99,6.08,8.25,9.25" /></g></g></g></g></g><g fill="none" stroke="#000" stroke-width="3" stroke-linecap="round" stroke-linejoin="round"><path d="M14.49,25.31c0.91,0.91,1.06,2.07,1.06,3.43c0,1.23-0.07,31.85-0.04,43.01c0.01,2.34,0.02,3.86,0.04,4.12" stroke-dasharray="50.826" stroke-dashoffset="50.826"><animate attributeName="stroke-dashoffset" values="50.826;50.826;0" dur="0.508s" fill="freeze" begin="0s;8ce6.click" /></path><path d="M16.6,26.78c1.59-0.16,11.09-1.73,15.06-2.33c2.48-0.37,3.9,0.19,3.82,2.92c-0.14,4.67-0.07,29.29-0.07,40.12c0,1.75-0.03,3.5-0.03,5.12" stroke-dasharray="66.345" stroke-dashoffset="66.345"><animate attributeName="stroke-dashoffset" values="66.345" fill="freeze" begin="8ce6.click" /><animate attributeName="stroke-dashoffset" values="66.345;66.345;0" keyTimes="0;0.504;1" dur="1.007s" fill="freeze" begin="0s;8ce6.click" /></path><path d="M16.88,41.25c2.4,0,14.26-1.92,16.96-1.92" stroke-dasharray="17.075" stroke-dashoffset="17.075"><animate attributeName="stroke-dashoffset" values="17.075" fill="freeze" begin="8ce6.click" /><animate attributeName="stroke-dashoffset" values="17.075;17.075;0" keyTimes="0;0.855;1" dur="1.178s" fill="freeze" begin="0s;8ce6.click" /></path><path d="M16.97,55.65c5.28-0.65,11.78-1.4,17.14-1.98" stroke-dasharray="17.255" stroke-dashoffset="17.255"><animate attributeName="stroke-dashoffset" values="17.255" fill="freeze" begin="8ce6.click" /><animate attributeName="stroke-dashoffset" values="17.255;17.255;0" keyTimes="0;0.872;1" dur="1.351s" fill="freeze" begin="0s;8ce6.click" /></path><path d="M16.7,72.67c4.67-0.55,11.42-1.67,17.39-2.23" stroke-dasharray="17.535" stroke-dashoffset="17.535"><animate attributeName="stroke-dashoffset" values="17.535" fill="freeze" begin="8ce6.click" /><animate attributeName="stroke-dashoffset" values="17.535;17.535;0" keyTimes="0;0.885;1" dur="1.526s" fill="freeze" begin="0s;8ce6.click" /></path><path d="M20.78,81.2c0.35,1.18,0.08,2.2-0.5,3.17c-1.76,2.94-6.93,9.66-10.44,13.13" stroke-dasharray="20.115" stroke-dashoffset="20.115"><animate attributeName="stroke-dashoffset" values="20.115" fill="freeze" begin="8ce6.click" /><animate attributeName="stroke-dashoffset" values="20.115;20.115;0" keyTimes="0;0.884;1" dur="1.727s" fill="freeze" begin="0s;8ce6.click" /></path><path d="M29.17,78.17c3.05,2.98,6.66,8.38,7.49,10.99" stroke-dasharray="13.385" stroke-dashoffset="13.385"><animate attributeName="stroke-dashoffset" values="13.385" fill="freeze" begin="8ce6.click" /><animate attributeName="stroke-dashoffset" values="13.385;13.385;0" keyTimes="0;0.866;1" dur="1.995s" fill="freeze" begin="0s;8ce6.click" /></path><path d="M44.62,28.96c1.09,0.48,3.25,0.53,4.39,0.34c3.4-0.56,8.06-1.88,11-2.37c0.93-0.15,1.82-0.21,2.75-0.19" stroke-dasharray="18.462" stroke-dashoffset="18.462"><animate attributeName="stroke-dashoffset" values="18.462" fill="freeze" begin="8ce6.click" /><animate attributeName="stroke-dashoffset" values="18.462;18.462;0" keyTimes="0;0.915;1" dur="2.18s" fill="freeze" begin="0s;8ce6.click" /></path><path d="M42,42.45c2.38,1.13,5.67,0.69,8.11,0.11c9.26-2.19,25.32-4.95,36.5-6.26c2.29-0.27,4.68-0.66,6.95-0.01" stroke-dasharray="52.306" stroke-dashoffset="52.306"><animate attributeName="stroke-dashoffset" values="52.306" fill="freeze" begin="8ce6.click" /><animate attributeName="stroke-dashoffset" values="52.306;52.306;0" keyTimes="0;0.807;1" dur="2.703s" fill="freeze" begin="0s;8ce6.click" /></path><path d="M55.83,49.18c0.93,0.93,1.09,1.95,1.09,3.41c0,0.97-0.01,23.54-0.01,29.41" stroke-dasharray="33.103" stroke-dashoffset="33.103"><animate attributeName="stroke-dashoffset" values="33.103" fill="freeze" begin="8ce6.click" /><animate attributeName="stroke-dashoffset" values="33.103;33.103;0" keyTimes="0;0.891;1" dur="3.034s" fill="freeze" begin="0s;8ce6.click" /></path><path d="M57.98,61.82c4.23-0.56,5.34-1.38,9.8-1.75c1.04-0.09,1.29-0.19,1.94,0" stroke-dasharray="11.922" stroke-dashoffset="11.922"><animate attributeName="stroke-dashoffset" values="11.922" fill="freeze" begin="8ce6.click" /><animate attributeName="stroke-dashoffset" values="11.922;11.922;0" keyTimes="0;0.927;1" dur="3.272s" fill="freeze" begin="0s;8ce6.click" /></path><path d="M45.88,62.09c0.89,0.89,1.09,1.79,1.09,2.91c0,0.75-0.09,15.42-0.09,22" stroke-dasharray="25.205" stroke-dashoffset="25.205"><animate attributeName="stroke-dashoffset" values="25.205" fill="freeze" begin="8ce6.click" /><animate attributeName="stroke-dashoffset" values="25.205;25.205;0" keyTimes="0;0.928;1" dur="3.524s" fill="freeze" begin="0s;8ce6.click" /></path><path d="M43,87.54c0.42,0.71,2.33,0.88,3.4,0.41c10.03-4.42,10.41-5.25,23.47-11.32" stroke-dasharray="29.683" stroke-dashoffset="29.683"><animate attributeName="stroke-dashoffset" values="29.683" fill="freeze" begin="8ce6.click" /><animate attributeName="stroke-dashoffset" values="29.683;29.683;0" keyTimes="0;0.922;1" dur="3.821s" fill="freeze" begin="0s;8ce6.click" /></path><path d="M69,11.5c1.31,1.31,1.81,2.87,1.89,5.81C71.75,47.75,78,80.88,92.38,95.63c4.71,4.83,4.92,1.04,4.34-7.11" stroke-dasharray="102.747" stroke-dashoffset="102.747"><animate attributeName="stroke-dashoffset" values="102.747" fill="freeze" begin="8ce6.click" /><animate attributeName="stroke-dashoffset" values="102.747;102.747;0" keyTimes="0;0.832;1" dur="4.594s" fill="freeze" begin="0s;8ce6.click" /></path><path d="M82.06,17c2.69,1.85,6.99,6.08,8.25,9.25" stroke-dasharray="12.524" stroke-dashoffset="12.524"><animate attributeName="stroke-dashoffset" values="12.524" fill="freeze" begin="8ce6.click" /><animate attributeName="stroke-dashoffset" values="12.524;12.524;0" keyTimes="0;0.948;1" dur="4.844s" fill="freeze" begin="0s;8ce6.click" /></path></g></svg>