<svg xmlns="http://www.w3.org/2000/svg" viewBox="0 0 109 109" id="8d08"><g fill="none" stroke="#666" stroke-width="6" stroke-linecap="round" stroke-linejoin="round"><g><g><g><path d="M16.42,23.9c0.97,0.97,1.32,2.57,1.32,4.1c0,1.26,0,29.08,0,41.51c0,2.74,0,4.73,0,5.53" /><path d="M18.54,25.51c3.58-0.51,10.68-1.43,15.21-2.1c3.6-0.54,4.62,0.7,4.53,4.21c-0.14,4.91-0.12,28.36-0.1,39.87c0.01,3.65,0.01,6.1,0.01,6.38" /><path d="M18.76,40.91C24,40.5,33,39,37.17,38.66" /><path d="M19.16,55.28c5.71-0.53,13.09-1.53,17.78-1.72" /><path d="M18.9,71.09c5.73-0.21,11.35-0.84,18.03-0.97" /></g><g><path d="M23.51,79.16c0.23,1.33-0.04,2.46-0.5,3.37c-1.38,2.75-6.02,9.09-8.78,12.24" /><path d="M32.38,78.12c3.83,3.4,8.35,9.44,9.4,12.3" /></g></g><g p4:phon="曽" xmlns:p4="http://kanjivg.tagaini.net"><g><path d="M52.33,16.59c2.48,1.79,6.41,7.35,7.03,10.13" /><path d="M81.8,13.56c0.04,0.89-0.03,1.41-0.35,2.26c-1.31,3.51-2.83,7.13-6.06,12.62" /><g><path d="M47.91,32.68c0.89,0.89,1.22,1.82,1.47,2.98c0.81,3.81,2.22,12.29,3.03,17.48c0.35,2.24,0.59,3.87,0.63,4.24" /><path d="M49.82,34.03c13.91-2.15,28.79-4.04,38.58-4.89c4.37-0.38,6.55-0.15,5.34,4.55c-1.38,5.39-2.52,9.6-4.79,16.45c-0.46,1.4-0.97,2.9-1.54,4.55" /><path d="M69.18,33.67c0.84,0.7,0.88,1.68,0.87,2.63c-0.04,4.98,0.06,9.63,0.06,16.77" /><path d="M52.3,44.83c9.83-1.58,30.33-3.95,38.53-4.28" /><path d="M54.09,55.97c9.76-0.99,22.38-2.45,32.91-3.08" /></g></g><g><path d="M54.87,64.24c0.82,0.82,0.98,1.94,1.02,3.61c0.23,8.65,0.58,15.57,0.73,23.9c0.03,1.43,0.04,2.86,0.04,4.25" /><path d="M56.55,65.93c3.87-0.47,19.17-2.24,25.44-2.84c3.62-0.35,5.22,0.63,5.06,4.41c-0.18,4.43-0.75,11.88-1.62,21.74c-0.13,1.45-0.26,2.97-0.4,4.54" /><path d="M57.25,78.6C63,78.25,79,76.5,85.43,76.37" /><path d="M58.11,92.97c7.71-0.41,17.77-1.47,26.12-1.84" /></g></g></g></g><g fill="none" stroke="#000" stroke-width="3" stroke-linecap="round" stroke-linejoin="round"><path d="M16.42,23.9c0.97,0.97,1.32,2.57,1.32,4.1c0,1.26,0,29.08,0,41.51c0,2.74,0,4.73,0,5.53" stroke-dasharray="51.456" stroke-dashoffset="51.456"><animate attributeName="stroke-dashoffset" values="51.456;51.456;0" dur="0.515s" fill="freeze" begin="0s;8d08.click" /></path><path d="M18.54,25.51c3.58-0.51,10.68-1.43,15.21-2.1c3.6-0.54,4.62,0.7,4.53,4.21c-0.14,4.91-0.12,28.36-0.1,39.87c0.01,3.65,0.01,6.1,0.01,6.38" stroke-dasharray="69.262" stroke-dashoffset="69.262"><animate attributeName="stroke-dashoffset" values="69.262" fill="freeze" begin="8d08.click" /><animate attributeName="stroke-dashoffset" values="69.262;69.262;0" keyTimes="0;0.497;1" dur="1.036s" fill="freeze" begin="0s;8d08.click" /></path><path d="M18.76,40.91C24,40.5,33,39,37.17,38.66" stroke-dasharray="18.55" stroke-dashoffset="18.55"><animate attributeName="stroke-dashoffset" values="18.55" fill="freeze" begin="8d08.click" /><animate attributeName="stroke-dashoffset" values="18.55;18.55;0" keyTimes="0;0.848;1" dur="1.222s" fill="freeze" begin="0s;8d08.click" /></path><path d="M19.16,55.28c5.71-0.53,13.09-1.53,17.78-1.72" stroke-dasharray="17.866" stroke-dashoffset="17.866"><animate attributeName="stroke-dashoffset" values="17.866" fill="freeze" begin="8d08.click" /><animate attributeName="stroke-dashoffset" values="17.866;17.866;0" keyTimes="0;0.872;1" dur="1.401s" fill="freeze" begin="0s;8d08.click" /></path><path d="M18.9,71.09c5.73-0.21,11.35-0.84,18.03-0.97" stroke-dasharray="18.059" stroke-dashoffset="18.059"><animate attributeName="stroke-dashoffset" values="18.059" fill="freeze" begin="8d08.click" /><animate attributeName="stroke-dashoffset" values="18.059;18.059;0" keyTimes="0;0.886;1" dur="1.582s" fill="freeze" begin="0s;8d08.click" /></path><path d="M23.51,79.16c0.23,1.33-0.04,2.46-0.5,3.37c-1.38,2.75-6.02,9.09-8.78,12.24" stroke-dasharray="18.555" stroke-dashoffset="18.555"><animate attributeName="stroke-dashoffset" values="18.555" fill="freeze" begin="8d08.click" /><animate attributeName="stroke-dashoffset" values="18.555;18.555;0" keyTimes="0;0.895;1" dur="1.768s" fill="freeze" begin="0s;8d08.click" /></path><path d="M32.38,78.12c3.83,3.4,8.35,9.44,9.4,12.3" stroke-dasharray="15.579" stroke-dashoffset="15.579"><animate attributeName="stroke-dashoffset" values="15.579" fill="freeze" begin="8d08.click" /><animate attributeName="stroke-dashoffset" values="15.579;15.579;0" keyTimes="0;0.919;1" dur="1.924s" fill="freeze" begin="0s;8d08.click" /></path><path d="M52.33,16.59c2.48,1.79,6.41,7.35,7.03,10.13" stroke-dasharray="12.486" stroke-dashoffset="12.486"><animate attributeName="stroke-dashoffset" values="12.486" fill="freeze" begin="8d08.click" /><animate attributeName="stroke-dashoffset" values="12.486;12.486;0" keyTimes="0;0.885;1" dur="2.174s" fill="freeze" begin="0s;8d08.click" /></path><path d="M81.8,13.56c0.04,0.89-0.03,1.41-0.35,2.26c-1.31,3.51-2.83,7.13-6.06,12.62" stroke-dasharray="16.328" stroke-dashoffset="16.328"><animate attributeName="stroke-dashoffset" values="16.328" fill="freeze" begin="8d08.click" /><animate attributeName="stroke-dashoffset" values="16.328;16.328;0" keyTimes="0;0.93;1" dur="2.337s" fill="freeze" begin="0s;8d08.click" /></path><path d="M47.91,32.68c0.89,0.89,1.22,1.82,1.47,2.98c0.81,3.81,2.22,12.29,3.03,17.48c0.35,2.24,0.59,3.87,0.63,4.24" stroke-dasharray="25.406" stroke-dashoffset="25.406"><animate attributeName="stroke-dashoffset" values="25.406" fill="freeze" begin="8d08.click" /><animate attributeName="stroke-dashoffset" values="25.406;25.406;0" keyTimes="0;0.902;1" dur="2.591s" fill="freeze" begin="0s;8d08.click" /></path><path d="M49.82,34.03c13.91-2.15,28.79-4.04,38.58-4.89c4.37-0.38,6.55-0.15,5.34,4.55c-1.38,5.39-2.52,9.6-4.79,16.45c-0.46,1.4-0.97,2.9-1.54,4.55" stroke-dasharray="70.196" stroke-dashoffset="70.196"><animate attributeName="stroke-dashoffset" values="70.196" fill="freeze" begin="8d08.click" /><animate attributeName="stroke-dashoffset" values="70.196;70.196;0" keyTimes="0;0.831;1" dur="3.119s" fill="freeze" begin="0s;8d08.click" /></path><path d="M69.18,33.67c0.84,0.7,0.88,1.68,0.87,2.63c-0.04,4.98,0.06,9.63,0.06,16.77" stroke-dasharray="19.649" stroke-dashoffset="19.649"><animate attributeName="stroke-dashoffset" values="19.649" fill="freeze" begin="8d08.click" /><animate attributeName="stroke-dashoffset" values="19.649;19.649;0" keyTimes="0;0.941;1" dur="3.315s" fill="freeze" begin="0s;8d08.click" /></path><path d="M52.3,44.83c9.83-1.58,30.33-3.95,38.53-4.28" stroke-dasharray="38.781" stroke-dashoffset="38.781"><animate attributeName="stroke-dashoffset" values="38.781" fill="freeze" begin="8d08.click" /><animate attributeName="stroke-dashoffset" values="38.781;38.781;0" keyTimes="0;0.895;1" dur="3.703s" fill="freeze" begin="0s;8d08.click" /></path><path d="M54.09,55.97c9.76-0.99,22.38-2.45,32.91-3.08" stroke-dasharray="33.057" stroke-dashoffset="33.057"><animate attributeName="stroke-dashoffset" values="33.057" fill="freeze" begin="8d08.click" /><animate attributeName="stroke-dashoffset" values="33.057;33.057;0" keyTimes="0;0.918;1" dur="4.034s" fill="freeze" begin="0s;8d08.click" /></path><path d="M54.87,64.24c0.82,0.82,0.98,1.94,1.02,3.61c0.23,8.65,0.58,15.57,0.73,23.9c0.03,1.43,0.04,2.86,0.04,4.25" stroke-dasharray="32.013" stroke-dashoffset="32.013"><animate attributeName="stroke-dashoffset" values="32.013" fill="freeze" begin="8d08.click" /><animate attributeName="stroke-dashoffset" values="32.013;32.013;0" keyTimes="0;0.927;1" dur="4.354s" fill="freeze" begin="0s;8d08.click" /></path><path d="M56.55,65.93c3.87-0.47,19.17-2.24,25.44-2.84c3.62-0.35,5.22,0.63,5.06,4.41c-0.18,4.43-0.75,11.88-1.62,21.74c-0.13,1.45-0.26,2.97-0.4,4.54" stroke-dasharray="60.119" stroke-dashoffset="60.119"><animate attributeName="stroke-dashoffset" values="60.119" fill="freeze" begin="8d08.click" /><animate attributeName="stroke-dashoffset" values="60.119;60.119;0" keyTimes="0;0.906;1" dur="4.806s" fill="freeze" begin="0s;8d08.click" /></path><path d="M57.25,78.6C63,78.25,79,76.5,85.43,76.37" stroke-dasharray="28.272" stroke-dashoffset="28.272"><animate attributeName="stroke-dashoffset" values="28.272" fill="freeze" begin="8d08.click" /><animate attributeName="stroke-dashoffset" values="28.272;28.272;0" keyTimes="0;0.944;1" dur="5.089s" fill="freeze" begin="0s;8d08.click" /></path><path d="M58.11,92.97c7.71-0.41,17.77-1.47,26.12-1.84" stroke-dasharray="26.187" stroke-dashoffset="26.187"><animate attributeName="stroke-dashoffset" values="26.187" fill="freeze" begin="8d08.click" /><animate attributeName="stroke-dashoffset" values="26.187;26.187;0" keyTimes="0;0.951;1" dur="5.351s" fill="freeze" begin="0s;8d08.click" /></path></g></svg>