<svg xmlns="http://www.w3.org/2000/svg" viewBox="0 0 109 109" id="8d10"><g fill="none" stroke="#666" stroke-width="6" stroke-linecap="round" stroke-linejoin="round"><g><g><g><path d="M16.2,17.49c0.29,1.31,0.71,2.29,0.71,4.05c0,1.75-0.32,48.61-0.19,54.4" /><path d="M16.9,19.03c1.64-0.22,12.15-2.02,13.64-2.29c1.25-0.22,2.23,1.23,2.12,2.85c-0.13,2.06-0.49,42.61-0.8,55.78" /><path d="M17.37,36.92c5.15-0.69,12.27-2,14.9-2" /><path d="M17,53.68c5.5-0.68,7.82-0.63,14.71-1.63" /><path d="M16.93,73.78c3.26,0,10.13-1.13,14.35-1.13" /></g><g><path d="M20.58,78.88c0.25,1.41,0.5,1.79,0,2.82c-1.53,3.1-7.1,12.64-10.15,16.3" /><path d="M28.24,79.72c2.38,3.94,5.19,11.08,5.83,14.54" /></g></g><g><g><g p6:partial xmlns:p6="http://kanjivg.tagaini.net"><g><path d="M44.92,22.23c2.08,0.22,2.67,0.57,4.59,0.43c8.76-0.65,24.76-2.75,33.1-3.18c2.71-0.14,3.56,1.55,3.17,3.73c-0.62,3.45-1.12,6.91-2.58,16.61" /><path d="M37.38,32.65c1.93,0.43,3.44,0.63,5.58,0.43c18.66-1.72,34.39-3.28,49.19-3.92c2.37-0.1,4.29,0.43,5.36,0.65" /><path d="M46.26,42.36c1.04,0.21,2.92,0.33,4.17,0.21c11.47-1.08,20.89-1.67,31.31-2.75c1.66-0.17,2.71,0,3.96,0.22" /></g><g><path d="M40.32,53.32c1.27,0.47,3.59,0.61,4.85,0.47c14.84-1.74,32.69-3.15,44.21-3.54c2.11-0.07,3.38,0.22,4.43,0.46" /></g><path d="M64.33,10.75c0.91,0.43,1.63,1.91,1.63,2.8c0,4.77-0.18,31.38-0.18,37.98" /></g><g><path d="M45.59,61.29c0,4.14-5.03,10.26-6.34,11.44" /><path d="M55.86,59.43c1.87,1.91,3.65,7.18,4.12,10.16" /><path d="M70.5,57.22c2.34,1.88,6.03,7.73,6.62,10.65" /><path d="M85.67,57.46c3.68,2.09,9.5,8.6,10.42,11.85" /></g></g><g><path d="M46.5,74.93c0.48,0.54,1.1,1.13,1.2,1.59c0.81,3.65,0.97,12.72,1.53,19.27" /><path d="M48.44,76.51c8.61-0.76,34.94-3.11,38.07-3.01c1.35,0.04,1.8,0.81,1.97,2.18c0.12,0.92-1.02,10.87-1.55,17.59" /><path d="M60.9,77.21c0.2,0.35,0.49,1.57,0.49,2.02c0,5.47,0.55,8.8,0.6,15.81" /><path d="M73.57,76.12c0.37,0.41,0.68,1.12,0.66,1.66C74,82.75,73.54,88.2,73.54,94.1" /><path d="M38.57,95.99c1.48,0.72,4.2,0.83,5.68,0.72c15.43-1.2,19.85-2.21,48.24-2.41c2.47-0.02,3.95,0.34,5.19,0.7" /></g></g></g></g><g fill="none" stroke="#000" stroke-width="3" stroke-linecap="round" stroke-linejoin="round"><path d="M16.2,17.49c0.29,1.31,0.71,2.29,0.71,4.05c0,1.75-0.32,48.61-0.19,54.4" stroke-dasharray="58.527" stroke-dashoffset="58.527"><animate attributeName="stroke-dashoffset" values="58.527;58.527;0" dur="0.585s" fill="freeze" begin="0s;8d10.click" /></path><path d="M16.9,19.03c1.64-0.22,12.15-2.02,13.64-2.29c1.25-0.22,2.23,1.23,2.12,2.85c-0.13,2.06-0.49,42.61-0.8,55.78" stroke-dasharray="73.679" stroke-dashoffset="73.679"><animate attributeName="stroke-dashoffset" values="73.679" fill="freeze" begin="8d10.click" /><animate attributeName="stroke-dashoffset" values="73.679;73.679;0" keyTimes="0;0.514;1" dur="1.139s" fill="freeze" begin="0s;8d10.click" /></path><path d="M17.37,36.92c5.15-0.69,12.27-2,14.9-2" stroke-dasharray="15.041" stroke-dashoffset="15.041"><animate attributeName="stroke-dashoffset" values="15.041" fill="freeze" begin="8d10.click" /><animate attributeName="stroke-dashoffset" values="15.041;15.041;0" keyTimes="0;0.884;1" dur="1.289s" fill="freeze" begin="0s;8d10.click" /></path><path d="M17,53.68c5.5-0.68,7.82-0.63,14.71-1.63" stroke-dasharray="14.803" stroke-dashoffset="14.803"><animate attributeName="stroke-dashoffset" values="14.803" fill="freeze" begin="8d10.click" /><animate attributeName="stroke-dashoffset" values="14.803;14.803;0" keyTimes="0;0.813;1" dur="1.585s" fill="freeze" begin="0s;8d10.click" /></path><path d="M16.93,73.78c3.26,0,10.13-1.13,14.35-1.13" stroke-dasharray="14.401" stroke-dashoffset="14.401"><animate attributeName="stroke-dashoffset" values="14.401" fill="freeze" begin="8d10.click" /><animate attributeName="stroke-dashoffset" values="14.401;14.401;0" keyTimes="0;0.846;1" dur="1.873s" fill="freeze" begin="0s;8d10.click" /></path><path d="M20.58,78.88c0.25,1.41,0.5,1.79,0,2.82c-1.53,3.1-7.1,12.64-10.15,16.3" stroke-dasharray="22.121" stroke-dashoffset="22.121"><animate attributeName="stroke-dashoffset" values="22.121" fill="freeze" begin="8d10.click" /><animate attributeName="stroke-dashoffset" values="22.121;22.121;0" keyTimes="0;0.894;1" dur="2.094s" fill="freeze" begin="0s;8d10.click" /></path><path d="M28.24,79.72c2.38,3.94,5.19,11.08,5.83,14.54" stroke-dasharray="15.721" stroke-dashoffset="15.721"><animate attributeName="stroke-dashoffset" values="15.721" fill="freeze" begin="8d10.click" /><animate attributeName="stroke-dashoffset" values="15.721;15.721;0" keyTimes="0;0.93;1" dur="2.251s" fill="freeze" begin="0s;8d10.click" /></path><path d="M44.92,22.23c2.08,0.22,2.67,0.57,4.59,0.43c8.76-0.65,24.76-2.75,33.1-3.18c2.71-0.14,3.56,1.55,3.17,3.73c-0.62,3.45-1.12,6.91-2.58,16.61" stroke-dasharray="60.581" stroke-dashoffset="60.581"><animate attributeName="stroke-dashoffset" values="60.581" fill="freeze" begin="8d10.click" /><animate attributeName="stroke-dashoffset" values="60.581;60.581;0" keyTimes="0;0.832;1" dur="2.706s" fill="freeze" begin="0s;8d10.click" /></path><path d="M37.38,32.65c1.93,0.43,3.44,0.63,5.58,0.43c18.66-1.72,34.39-3.28,49.19-3.92c2.37-0.1,4.29,0.43,5.36,0.65" stroke-dasharray="60.393" stroke-dashoffset="60.393"><animate attributeName="stroke-dashoffset" values="60.393" fill="freeze" begin="8d10.click" /><animate attributeName="stroke-dashoffset" values="60.393;60.393;0" keyTimes="0;0.856;1" dur="3.16s" fill="freeze" begin="0s;8d10.click" /></path><path d="M46.26,42.36c1.04,0.21,2.92,0.33,4.17,0.21c11.47-1.08,20.89-1.67,31.31-2.75c1.66-0.17,2.71,0,3.96,0.22" stroke-dasharray="39.601" stroke-dashoffset="39.601"><animate attributeName="stroke-dashoffset" values="39.601" fill="freeze" begin="8d10.click" /><animate attributeName="stroke-dashoffset" values="39.601;39.601;0" keyTimes="0;0.889;1" dur="3.556s" fill="freeze" begin="0s;8d10.click" /></path><path d="M40.32,53.32c1.27,0.47,3.59,0.61,4.85,0.47c14.84-1.74,32.69-3.15,44.21-3.54c2.11-0.07,3.38,0.22,4.43,0.46" stroke-dasharray="53.736" stroke-dashoffset="53.736"><animate attributeName="stroke-dashoffset" values="53.736" fill="freeze" begin="8d10.click" /><animate attributeName="stroke-dashoffset" values="53.736;53.736;0" keyTimes="0;0.869;1" dur="4.093s" fill="freeze" begin="0s;8d10.click" /></path><path d="M64.33,10.75c0.91,0.43,1.63,1.91,1.63,2.8c0,4.77-0.18,31.38-0.18,37.98" stroke-dasharray="41.351" stroke-dashoffset="41.351"><animate attributeName="stroke-dashoffset" values="41.351" fill="freeze" begin="8d10.click" /><animate attributeName="stroke-dashoffset" values="41.351;41.351;0" keyTimes="0;0.908;1" dur="4.507s" fill="freeze" begin="0s;8d10.click" /></path><path d="M45.59,61.29c0,4.14-5.03,10.26-6.34,11.44" stroke-dasharray="13.326" stroke-dashoffset="13.326"><animate attributeName="stroke-dashoffset" values="13.326" fill="freeze" begin="8d10.click" /><animate attributeName="stroke-dashoffset" values="13.326;13.326;0" keyTimes="0;0.944;1" dur="4.774s" fill="freeze" begin="0s;8d10.click" /></path><path d="M55.86,59.43c1.87,1.91,3.65,7.18,4.12,10.16" stroke-dasharray="11.079" stroke-dashoffset="11.079"><animate attributeName="stroke-dashoffset" values="11.079" fill="freeze" begin="8d10.click" /><animate attributeName="stroke-dashoffset" values="11.079;11.079;0" keyTimes="0;0.956;1" dur="4.996s" fill="freeze" begin="0s;8d10.click" /></path><path d="M70.5,57.22c2.34,1.88,6.03,7.73,6.62,10.65" stroke-dasharray="12.684" stroke-dashoffset="12.684"><animate attributeName="stroke-dashoffset" values="12.684" fill="freeze" begin="8d10.click" /><animate attributeName="stroke-dashoffset" values="12.684;12.684;0" keyTimes="0;0.952;1" dur="5.25s" fill="freeze" begin="0s;8d10.click" /></path><path d="M85.67,57.46c3.68,2.09,9.5,8.6,10.42,11.85" stroke-dasharray="16.004" stroke-dashoffset="16.004"><animate attributeName="stroke-dashoffset" values="16.004" fill="freeze" begin="8d10.click" /><animate attributeName="stroke-dashoffset" values="16.004;16.004;0" keyTimes="0;0.97;1" dur="5.41s" fill="freeze" begin="0s;8d10.click" /></path><path d="M46.5,74.93c0.48,0.54,1.1,1.13,1.2,1.59c0.81,3.65,0.97,12.72,1.53,19.27" stroke-dasharray="21.351" stroke-dashoffset="21.351"><animate attributeName="stroke-dashoffset" values="21.351" fill="freeze" begin="8d10.click" /><animate attributeName="stroke-dashoffset" values="21.351;21.351;0" keyTimes="0;0.962;1" dur="5.624s" fill="freeze" begin="0s;8d10.click" /></path><path d="M48.44,76.51c8.61-0.76,34.94-3.11,38.07-3.01c1.35,0.04,1.8,0.81,1.97,2.18c0.12,0.92-1.02,10.87-1.55,17.59" stroke-dasharray="59.152" stroke-dashoffset="59.152"><animate attributeName="stroke-dashoffset" values="59.152" fill="freeze" begin="8d10.click" /><animate attributeName="stroke-dashoffset" values="59.152;59.152;0" keyTimes="0;0.905;1" dur="6.216s" fill="freeze" begin="0s;8d10.click" /></path><path d="M60.9,77.21c0.2,0.35,0.49,1.57,0.49,2.02c0,5.47,0.55,8.8,0.6,15.81" stroke-dasharray="17.914" stroke-dashoffset="17.914"><animate attributeName="stroke-dashoffset" values="17.914" fill="freeze" begin="8d10.click" /><animate attributeName="stroke-dashoffset" values="17.914;17.914;0" keyTimes="0;0.972;1" dur="6.395s" fill="freeze" begin="0s;8d10.click" /></path><path d="M73.57,76.12c0.37,0.41,0.68,1.12,0.66,1.66C74,82.75,73.54,88.2,73.54,94.1" stroke-dasharray="18.161" stroke-dashoffset="18.161"><animate attributeName="stroke-dashoffset" values="18.161" fill="freeze" begin="8d10.click" /><animate attributeName="stroke-dashoffset" values="18.161;18.161;0" keyTimes="0;0.972;1" dur="6.577s" fill="freeze" begin="0s;8d10.click" /></path><path d="M38.57,95.99c1.48,0.72,4.2,0.83,5.68,0.72c15.43-1.2,19.85-2.21,48.24-2.41c2.47-0.02,3.95,0.34,5.19,0.7" stroke-dasharray="59.356" stroke-dashoffset="59.356"><animate attributeName="stroke-dashoffset" values="59.356" fill="freeze" begin="8d10.click" /><animate attributeName="stroke-dashoffset" values="59.356;59.356;0" keyTimes="0;0.917;1" dur="7.171s" fill="freeze" begin="0s;8d10.click" /></path></g></svg>