<svg xmlns="http://www.w3.org/2000/svg" viewBox="0 0 109 109" id="8dea"><g fill="none" stroke="#666" stroke-width="6" stroke-linecap="round" stroke-linejoin="round"><g><g><g><path d="M15.28,21.21c0.37,0.32,0.75,0.58,0.91,0.97c1.28,3.13,2.35,15.2,3.23,20.82" /><path d="M17.11,23.4c8.76-1.68,17.79-3,22.13-3.41c1.58-0.15,2.54,0.89,2.31,1.77c-1.04,4.06-2.15,12.35-3.43,17" /><path d="M20.06,40.69c5.09-0.46,12.65-0.84,19.64-1.55" /></g><path d="M27.87,42.24c1.09,0.5,1.96,2.23,1.96,3.25c0,5.51,0.28,25.51,0.28,35.5" /><path d="M30.38,57.74c3.37-0.49,6.87-1.24,10.35-1.5c1.74-0.13,2.18-0.25,3.26,0" /><path d="M16.37,54.49c1.09,0.5,1.74,2.25,1.96,3.25c0.22,1,0.42,18.51,0.42,30.26" /><path d="M10,90.25c1,1,3.37,1.44,4.2,0.97c8.21-4.7,18.24-11.46,27.3-16.72" /></g><g><g><path d="M65.84,12c0.06,0.52,0.12,1.35-0.11,2.11c-1.35,4.45-10.39,14.84-20.21,21.14" /><path d="M62.67,20.88c0.53,0,2.09-0.14,4.1-0.36c5.25-0.56,15.62-4.09,17.08-4.29c1.74-0.24,2.63,2.07,1.91,3.26c-3.05,5-6.76,9.25-12.68,17.75" /></g><g><g><path d="M51.58,39.07c0.91,0.41,2.56,0.48,3.47,0.41c12.45-0.98,23.7-2.73,37-3.69c1.52-0.11,2.42,0.2,3.17,0.4" /><path d="M54.8,40.67c0.03,1.18,0.07,2.55-0.06,4.25C53.98,54.92,52.9,79.5,44.06,89.99" /></g><g><path d="M61.98,51.55c0.73,0.14,2.18,0.68,3.63,0.39c5.04-1,20.32-4.06,22.11-4.5c2.93-0.72,4.55,0.79,4.21,3.67C91.25,57,88.5,67.25,85.21,76.66c-2.08,5.95-5.81-0.31-6.35-0.59" /><path d="M64.45,52.3c0.62,1.36,0.61,2.97,0.64,5.07c0.17,9.38,0.18,19.5,0.18,25.88c0,12.82,2.47,13.21,17.18,13.21c11.55,0,13.19-0.96,13.19-10.46" /></g></g></g></g></g><g fill="none" stroke="#000" stroke-width="3" stroke-linecap="round" stroke-linejoin="round"><path d="M15.28,21.21c0.37,0.32,0.75,0.58,0.91,0.97c1.28,3.13,2.35,15.2,3.23,20.82" stroke-dasharray="22.438" stroke-dashoffset="22.438"><animate attributeName="stroke-dashoffset" values="22.438;22.438;0" dur="0.224s" fill="freeze" begin="0s;8dea.click" /></path><path d="M17.11,23.4c8.76-1.68,17.79-3,22.13-3.41c1.58-0.15,2.54,0.89,2.31,1.77c-1.04,4.06-2.15,12.35-3.43,17" stroke-dasharray="43.129" stroke-dashoffset="43.129"><animate attributeName="stroke-dashoffset" values="43.129" fill="freeze" begin="8dea.click" /><animate attributeName="stroke-dashoffset" values="43.129;43.129;0" keyTimes="0;0.342;1" dur="0.655s" fill="freeze" begin="0s;8dea.click" /></path><path d="M20.06,40.69c5.09-0.46,12.65-0.84,19.64-1.55" stroke-dasharray="19.703" stroke-dashoffset="19.703"><animate attributeName="stroke-dashoffset" values="19.703" fill="freeze" begin="8dea.click" /><animate attributeName="stroke-dashoffset" values="19.703;19.703;0" keyTimes="0;0.769;1" dur="0.852s" fill="freeze" begin="0s;8dea.click" /></path><path d="M27.87,42.24c1.09,0.5,1.96,2.23,1.96,3.25c0,5.51,0.28,25.51,0.28,35.5" stroke-dasharray="39.452" stroke-dashoffset="39.452"><animate attributeName="stroke-dashoffset" values="39.452" fill="freeze" begin="8dea.click" /><animate attributeName="stroke-dashoffset" values="39.452;39.452;0" keyTimes="0;0.683;1" dur="1.247s" fill="freeze" begin="0s;8dea.click" /></path><path d="M30.38,57.74c3.37-0.49,6.87-1.24,10.35-1.5c1.74-0.13,2.18-0.25,3.26,0" stroke-dasharray="13.74" stroke-dashoffset="13.74"><animate attributeName="stroke-dashoffset" values="13.74" fill="freeze" begin="8dea.click" /><animate attributeName="stroke-dashoffset" values="13.74;13.74;0" keyTimes="0;0.819;1" dur="1.522s" fill="freeze" begin="0s;8dea.click" /></path><path d="M16.37,54.49c1.09,0.5,1.74,2.25,1.96,3.25c0.22,1,0.42,18.51,0.42,30.26" stroke-dasharray="34.176" stroke-dashoffset="34.176"><animate attributeName="stroke-dashoffset" values="34.176" fill="freeze" begin="8dea.click" /><animate attributeName="stroke-dashoffset" values="34.176;34.176;0" keyTimes="0;0.817;1" dur="1.864s" fill="freeze" begin="0s;8dea.click" /></path><path d="M10,90.25c1,1,3.37,1.44,4.2,0.97c8.21-4.7,18.24-11.46,27.3-16.72" stroke-dasharray="36.519" stroke-dashoffset="36.519"><animate attributeName="stroke-dashoffset" values="36.519" fill="freeze" begin="8dea.click" /><animate attributeName="stroke-dashoffset" values="36.519;36.519;0" keyTimes="0;0.836;1" dur="2.229s" fill="freeze" begin="0s;8dea.click" /></path><path d="M65.84,12c0.06,0.52,0.12,1.35-0.11,2.11c-1.35,4.45-10.39,14.84-20.21,21.14" stroke-dasharray="31.725" stroke-dashoffset="31.725"><animate attributeName="stroke-dashoffset" values="31.725" fill="freeze" begin="8dea.click" /><animate attributeName="stroke-dashoffset" values="31.725;31.725;0" keyTimes="0;0.875;1" dur="2.546s" fill="freeze" begin="0s;8dea.click" /></path><path d="M62.67,20.88c0.53,0,2.09-0.14,4.1-0.36c5.25-0.56,15.62-4.09,17.08-4.29c1.74-0.24,2.63,2.07,1.91,3.26c-3.05,5-6.76,9.25-12.68,17.75" stroke-dasharray="48.149" stroke-dashoffset="48.149"><animate attributeName="stroke-dashoffset" values="48.149" fill="freeze" begin="8dea.click" /><animate attributeName="stroke-dashoffset" values="48.149;48.149;0" keyTimes="0;0.841;1" dur="3.027s" fill="freeze" begin="0s;8dea.click" /></path><path d="M51.58,39.07c0.91,0.41,2.56,0.48,3.47,0.41c12.45-0.98,23.7-2.73,37-3.69c1.52-0.11,2.42,0.2,3.17,0.4" stroke-dasharray="43.924" stroke-dashoffset="43.924"><animate attributeName="stroke-dashoffset" values="43.924" fill="freeze" begin="8dea.click" /><animate attributeName="stroke-dashoffset" values="43.924;43.924;0" keyTimes="0;0.873;1" dur="3.466s" fill="freeze" begin="0s;8dea.click" /></path><path d="M54.8,40.67c0.03,1.18,0.07,2.55-0.06,4.25C53.98,54.92,52.9,79.5,44.06,89.99" stroke-dasharray="51.205" stroke-dashoffset="51.205"><animate attributeName="stroke-dashoffset" values="51.205" fill="freeze" begin="8dea.click" /><animate attributeName="stroke-dashoffset" values="51.205;51.205;0" keyTimes="0;0.871;1" dur="3.978s" fill="freeze" begin="0s;8dea.click" /></path><path d="M61.98,51.55c0.73,0.14,2.18,0.68,3.63,0.39c5.04-1,20.32-4.06,22.11-4.5c2.93-0.72,4.55,0.79,4.21,3.67C91.25,57,88.5,67.25,85.21,76.66c-2.08,5.95-5.81-0.31-6.35-0.59" stroke-dasharray="68.574" stroke-dashoffset="68.574"><animate attributeName="stroke-dashoffset" values="68.574" fill="freeze" begin="8dea.click" /><animate attributeName="stroke-dashoffset" values="68.574;68.574;0" keyTimes="0;0.885;1" dur="4.494s" fill="freeze" begin="0s;8dea.click" /></path><path d="M64.45,52.3c0.62,1.36,0.61,2.97,0.64,5.07c0.17,9.38,0.18,19.5,0.18,25.88c0,12.82,2.47,13.21,17.18,13.21c11.55,0,13.19-0.96,13.19-10.46" stroke-dasharray="78.291" stroke-dashoffset="78.291"><animate attributeName="stroke-dashoffset" values="78.291" fill="freeze" begin="8dea.click" /><animate attributeName="stroke-dashoffset" values="78.291;78.291;0" keyTimes="0;0.884;1" dur="5.083s" fill="freeze" begin="0s;8dea.click" /></path></g></svg>