<svg xmlns="http://www.w3.org/2000/svg" viewBox="0 0 109 109" id="8e42"><g fill="none" stroke="#666" stroke-width="6" stroke-linecap="round" stroke-linejoin="round"><g><g><g><path d="M12.38,20.71c0.31,0.33,0.62,0.6,0.76,1.01c1.06,3.23,1.95,15.72,2.67,21.53" /><path d="M13.61,22.4c8.76-1.68,16.79-2.5,21.13-2.91c1.58-0.15,2.54,0.89,2.31,1.77c-1.04,4.06-2.15,11.85-3.43,16.5" /><path d="M16.56,39.69c5.09-0.46,11.65-0.84,18.64-1.55" /></g><path d="M23.87,41.24c1.09,0.5,1.96,2.23,1.96,3.25c0,5.51,0.28,29.01,0.28,39" /><path d="M26.38,58.24c3.37-0.49,7.87-1.24,11.35-1.5c1.74-0.13,2.18-0.25,3.26,0" /><path d="M12.87,57.99c1.09,0.5,1.74,2.25,1.96,3.25c0.22,1,0.42,16.01,0.42,27.76" /><path d="M10.5,89.57c0.75,1.18,2.87,1.35,3.7,0.9c8.21-4.47,15.3-8.22,26.3-13.48" /></g><g><g><g><g><path d="M50.49,15.73c0.97,0.45,2.51,1.02,4.39,0.85c3.87-0.35,23.82-4.08,25.78-4.48c1.96-0.41,3.13,1.71,1.96,3.04C81.27,16.68,73,23.5,68.66,27.23" /><path d="M62.67,24.26c2.23,0.87,7.5,4.21,8.55,6.48" /></g><g><path d="M42.23,36.71c0.72,0.23,2.88,0.45,5.17,0.11c15.6-2.32,32.01-4.61,42.66-4.86c8.94-0.21,2.94,5.29-1.19,8.45" /><g><path d="M71.52,33.15c0,8.71-0.03,12.87-0.03,18.3c0,8.8-5.52,1.72-7.29-0.33" /></g></g></g><g><path d="M68.97,34.23c0.07,0.48,0.24,1.27-0.13,1.93c-2.89,5.12-9.22,12.26-23.7,18.44" /></g></g><g><path d="M44.53,67.54c1.37,0.56,2.92,0.74,4.49,0.56c8.01-0.92,30.04-2.12,42.15-3.21c1.56-0.14,2.54,0.1,4.1,0.49" /><path d="M69.42,60.83c0.7,0.99,1.23,2.19,1.23,3.2c0,10.35,0,29.3-0.18,35.46" /><path d="M69.42,66.69c-4.76,9.4-19.26,21.62-32.17,25.61" /><path d="M71.35,67.95c3.21,4.95,16.48,17.67,21.56,21.18c1.28,0.88,2.17,1.44,3.34,1.73" /></g></g></g></g><g fill="none" stroke="#000" stroke-width="3" stroke-linecap="round" stroke-linejoin="round"><path d="M12.38,20.71c0.31,0.33,0.62,0.6,0.76,1.01c1.06,3.23,1.95,15.72,2.67,21.53" stroke-dasharray="22.988" stroke-dashoffset="22.988"><animate attributeName="stroke-dashoffset" values="22.988;22.988;0" dur="0.23s" fill="freeze" begin="0s;8e42.click" /></path><path d="M13.61,22.4c8.76-1.68,16.79-2.5,21.13-2.91c1.58-0.15,2.54,0.89,2.31,1.77c-1.04,4.06-2.15,11.85-3.43,16.5" stroke-dasharray="41.579" stroke-dashoffset="41.579"><animate attributeName="stroke-dashoffset" values="41.579" fill="freeze" begin="8e42.click" /><animate attributeName="stroke-dashoffset" values="41.579;41.579;0" keyTimes="0;0.356;1" dur="0.646s" fill="freeze" begin="0s;8e42.click" /></path><path d="M16.56,39.69c5.09-0.46,11.65-0.84,18.64-1.55" stroke-dasharray="18.706" stroke-dashoffset="18.706"><animate attributeName="stroke-dashoffset" values="18.706" fill="freeze" begin="8e42.click" /><animate attributeName="stroke-dashoffset" values="18.706;18.706;0" keyTimes="0;0.776;1" dur="0.833s" fill="freeze" begin="0s;8e42.click" /></path><path d="M23.87,41.24c1.09,0.5,1.96,2.23,1.96,3.25c0,5.51,0.28,29.01,0.28,39" stroke-dasharray="42.952" stroke-dashoffset="42.952"><animate attributeName="stroke-dashoffset" values="42.952" fill="freeze" begin="8e42.click" /><animate attributeName="stroke-dashoffset" values="42.952;42.952;0" keyTimes="0;0.66;1" dur="1.263s" fill="freeze" begin="0s;8e42.click" /></path><path d="M26.38,58.24c3.37-0.49,7.87-1.24,11.35-1.5c1.74-0.13,2.18-0.25,3.26,0" stroke-dasharray="14.73" stroke-dashoffset="14.73"><animate attributeName="stroke-dashoffset" values="14.73" fill="freeze" begin="8e42.click" /><animate attributeName="stroke-dashoffset" values="14.73;14.73;0" keyTimes="0;0.811;1" dur="1.558s" fill="freeze" begin="0s;8e42.click" /></path><path d="M12.87,57.99c1.09,0.5,1.74,2.25,1.96,3.25c0.22,1,0.42,16.01,0.42,27.76" stroke-dasharray="31.677" stroke-dashoffset="31.677"><animate attributeName="stroke-dashoffset" values="31.677" fill="freeze" begin="8e42.click" /><animate attributeName="stroke-dashoffset" values="31.677;31.677;0" keyTimes="0;0.831;1" dur="1.875s" fill="freeze" begin="0s;8e42.click" /></path><path d="M10.5,89.57c0.75,1.18,2.87,1.35,3.7,0.9c8.21-4.47,15.3-8.22,26.3-13.48" stroke-dasharray="33.642" stroke-dashoffset="33.642"><animate attributeName="stroke-dashoffset" values="33.642" fill="freeze" begin="8e42.click" /><animate attributeName="stroke-dashoffset" values="33.642;33.642;0" keyTimes="0;0.848;1" dur="2.211s" fill="freeze" begin="0s;8e42.click" /></path><path d="M50.49,15.73c0.97,0.45,2.51,1.02,4.39,0.85c3.87-0.35,23.82-4.08,25.78-4.48c1.96-0.41,3.13,1.71,1.96,3.04C81.27,16.68,73,23.5,68.66,27.23" stroke-dasharray="53.989" stroke-dashoffset="53.989"><animate attributeName="stroke-dashoffset" values="53.989" fill="freeze" begin="8e42.click" /><animate attributeName="stroke-dashoffset" values="53.989;53.989;0" keyTimes="0;0.804;1" dur="2.751s" fill="freeze" begin="0s;8e42.click" /></path><path d="M62.67,24.26c2.23,0.87,7.5,4.21,8.55,6.48" stroke-dasharray="10.874" stroke-dashoffset="10.874"><animate attributeName="stroke-dashoffset" values="10.874" fill="freeze" begin="8e42.click" /><animate attributeName="stroke-dashoffset" values="10.874;10.874;0" keyTimes="0;0.927;1" dur="2.968s" fill="freeze" begin="0s;8e42.click" /></path><path d="M42.23,36.71c0.72,0.23,2.88,0.45,5.17,0.11c15.6-2.32,32.01-4.61,42.66-4.86c8.94-0.21,2.94,5.29-1.19,8.45" stroke-dasharray="62.671" stroke-dashoffset="62.671"><animate attributeName="stroke-dashoffset" values="62.671" fill="freeze" begin="8e42.click" /><animate attributeName="stroke-dashoffset" values="62.671;62.671;0" keyTimes="0;0.863;1" dur="3.439s" fill="freeze" begin="0s;8e42.click" /></path><path d="M71.52,33.15c0,8.71-0.03,12.87-0.03,18.3c0,8.8-5.52,1.72-7.29-0.33" stroke-dasharray="30.766" stroke-dashoffset="30.766"><animate attributeName="stroke-dashoffset" values="30.766" fill="freeze" begin="8e42.click" /><animate attributeName="stroke-dashoffset" values="30.766;30.766;0" keyTimes="0;0.918;1" dur="3.747s" fill="freeze" begin="0s;8e42.click" /></path><path d="M68.97,34.23c0.07,0.48,0.24,1.27-0.13,1.93c-2.89,5.12-9.22,12.26-23.7,18.44" stroke-dasharray="32.524" stroke-dashoffset="32.524"><animate attributeName="stroke-dashoffset" values="32.524" fill="freeze" begin="8e42.click" /><animate attributeName="stroke-dashoffset" values="32.524;32.524;0" keyTimes="0;0.92;1" dur="4.072s" fill="freeze" begin="0s;8e42.click" /></path><path d="M44.53,67.54c1.37,0.56,2.92,0.74,4.49,0.56c8.01-0.92,30.04-2.12,42.15-3.21c1.56-0.14,2.54,0.1,4.1,0.49" stroke-dasharray="51.001" stroke-dashoffset="51.001"><animate attributeName="stroke-dashoffset" values="51.001" fill="freeze" begin="8e42.click" /><animate attributeName="stroke-dashoffset" values="51.001;51.001;0" keyTimes="0;0.889;1" dur="4.582s" fill="freeze" begin="0s;8e42.click" /></path><path d="M69.42,60.83c0.7,0.99,1.23,2.19,1.23,3.2c0,10.35,0,29.3-0.18,35.46" stroke-dasharray="38.94" stroke-dashoffset="38.94"><animate attributeName="stroke-dashoffset" values="38.94" fill="freeze" begin="8e42.click" /><animate attributeName="stroke-dashoffset" values="38.94;38.94;0" keyTimes="0;0.922;1" dur="4.971s" fill="freeze" begin="0s;8e42.click" /></path><path d="M69.42,66.69c-4.76,9.4-19.26,21.62-32.17,25.61" stroke-dasharray="41.967" stroke-dashoffset="41.967"><animate attributeName="stroke-dashoffset" values="41.967" fill="freeze" begin="8e42.click" /><animate attributeName="stroke-dashoffset" values="41.967;41.967;0" keyTimes="0;0.922;1" dur="5.391s" fill="freeze" begin="0s;8e42.click" /></path><path d="M71.35,67.95c3.21,4.95,16.48,17.67,21.56,21.18c1.28,0.88,2.17,1.44,3.34,1.73" stroke-dasharray="34.093" stroke-dashoffset="34.093"><animate attributeName="stroke-dashoffset" values="34.093" fill="freeze" begin="8e42.click" /><animate attributeName="stroke-dashoffset" values="34.093;34.093;0" keyTimes="0;0.941;1" dur="5.732s" fill="freeze" begin="0s;8e42.click" /></path></g></svg>