<svg xmlns="http://www.w3.org/2000/svg" viewBox="0 0 109 109" id="8f2a"><g fill="none" stroke="#666" stroke-width="6" stroke-linecap="round" stroke-linejoin="round"><g><g><path d="M14.83,29.05c1.55,0.2,2.64,0.32,4.33,0.04c5.52-0.92,13.34-2.57,20.72-3.47c1.3-0.16,2.79-0.23,4.05,0.22" /><path d="M13.56,39.52c1,0.94,1.62,2.2,1.84,3.62c0.62,3.98,1.61,10.39,2.39,16.6c0.15,1.18,0.29,2.36,0.42,3.52" /><path d="M16.1,41.1c7.49-1.21,20.02-3.52,25.9-4.09c3.05-0.3,4.42,1,3.85,4.12c-0.84,4.64-1.76,9.57-2.94,15.23c-0.19,0.89-0.38,1.81-0.58,2.74" /><path d="M17.77,51.03c8.85-1.41,17.85-3.03,25.75-3.76" /><path d="M19.25,60.96c7.38-1.33,13.88-2.46,22.58-3.22" /><path d="M11.03,75.21c1.6,0.16,3.8,0.22,5.75-0.17c7.7-1.54,18.87-3.76,25.37-4.51c1.5-0.17,3.11-0.44,4.58,0.05" /><path d="M28.3,13.88c1.28,1.28,1.98,3.12,1.98,4.9c0,2.24-0.11,50.35-0.14,68.85c0,2.93-0.01,5.11-0.01,6.26" /></g><g p4:phon="侖" xmlns:p4="http://kanjivg.tagaini.net"><g><path d="M68.34,14.65c0.16,0.85-0.03,1.82-0.35,2.78c-2.25,6.69-7.37,17.69-16.76,27.01" /><path d="M68.87,19.35c4.53,3.77,19.05,18.26,22.88,21.39c1.3,1.06,2.65,2.17,4.02,2.76" /></g><g><g><path d="M57.66,44.91c0.76,0.31,2.16,0.39,2.92,0.31c4.86-0.54,11.46-2.21,16.91-2.5c1.27-0.07,2.04,0.15,2.67,0.3" /></g><g><g><path d="M51.07,58.84c0.47,0.59,1.05,1.53,1.13,2.61c0.35,4.73,0.92,17.72,1.3,25.8c0.09,1.84,0.16,3.42,0.23,4.6" /><path d="M52.69,59.78c5.95-0.47,34.63-4.17,35.8-4.34c2.5-0.36,3.42,2.49,3.44,3.67c0.14,6.33-0.23,23.89-0.23,30.56c0,8.21-4.66,1.96-6.54,0.42" /></g><g><g><path d="M53.9,74.11c7.6-0.99,31.97-3.36,36.9-3.66" /></g><g><path d="M63.24,61.37c0.88,0.88,1.24,2.26,1.24,3.83c0,8.32-0.01,14.09-0.01,18.18c0,1.73,0,3.16,0,4.35" /></g><g><path d="M75.35,59.68c0.7,0.74,1.24,2.2,1.24,4.08c0,8.26-0.01,14.81-0.01,19.37c0,1.93,0,3.5,0,4.69" /></g></g></g></g></g></g></g><g fill="none" stroke="#000" stroke-width="3" stroke-linecap="round" stroke-linejoin="round"><path d="M14.83,29.05c1.55,0.2,2.64,0.32,4.33,0.04c5.52-0.92,13.34-2.57,20.72-3.47c1.3-0.16,2.79-0.23,4.05,0.22" stroke-dasharray="29.454" stroke-dashoffset="29.454"><animate attributeName="stroke-dashoffset" values="29.454;29.454;0" dur="0.295s" fill="freeze" begin="0s;8f2a.click" /></path><path d="M13.56,39.52c1,0.94,1.62,2.2,1.84,3.62c0.62,3.98,1.61,10.39,2.39,16.6c0.15,1.18,0.29,2.36,0.42,3.52" stroke-dasharray="24.455" stroke-dashoffset="24.455"><animate attributeName="stroke-dashoffset" values="24.455" fill="freeze" begin="8f2a.click" /><animate attributeName="stroke-dashoffset" values="24.455;24.455;0" keyTimes="0;0.546;1" dur="0.54s" fill="freeze" begin="0s;8f2a.click" /></path><path d="M16.1,41.1c7.49-1.21,20.02-3.52,25.9-4.09c3.05-0.3,4.42,1,3.85,4.12c-0.84,4.64-1.76,9.57-2.94,15.23c-0.19,0.89-0.38,1.81-0.58,2.74" stroke-dasharray="51.545" stroke-dashoffset="51.545"><animate attributeName="stroke-dashoffset" values="51.545" fill="freeze" begin="8f2a.click" /><animate attributeName="stroke-dashoffset" values="51.545;51.545;0" keyTimes="0;0.512;1" dur="1.055s" fill="freeze" begin="0s;8f2a.click" /></path><path d="M17.77,51.03c8.85-1.41,17.85-3.03,25.75-3.76" stroke-dasharray="26.029" stroke-dashoffset="26.029"><animate attributeName="stroke-dashoffset" values="26.029" fill="freeze" begin="8f2a.click" /><animate attributeName="stroke-dashoffset" values="26.029;26.029;0" keyTimes="0;0.802;1" dur="1.315s" fill="freeze" begin="0s;8f2a.click" /></path><path d="M19.25,60.96c7.38-1.33,13.88-2.46,22.58-3.22" stroke-dasharray="22.819" stroke-dashoffset="22.819"><animate attributeName="stroke-dashoffset" values="22.819" fill="freeze" begin="8f2a.click" /><animate attributeName="stroke-dashoffset" values="22.819;22.819;0" keyTimes="0;0.852;1" dur="1.543s" fill="freeze" begin="0s;8f2a.click" /></path><path d="M11.03,75.21c1.6,0.16,3.8,0.22,5.75-0.17c7.7-1.54,18.87-3.76,25.37-4.51c1.5-0.17,3.11-0.44,4.58,0.05" stroke-dasharray="36.167" stroke-dashoffset="36.167"><animate attributeName="stroke-dashoffset" values="36.167" fill="freeze" begin="8f2a.click" /><animate attributeName="stroke-dashoffset" values="36.167;36.167;0" keyTimes="0;0.81;1" dur="1.905s" fill="freeze" begin="0s;8f2a.click" /></path><path d="M28.3,13.88c1.28,1.28,1.98,3.12,1.98,4.9c0,2.24-0.11,50.35-0.14,68.85c0,2.93-0.01,5.11-0.01,6.26" stroke-dasharray="80.53" stroke-dashoffset="80.53"><animate attributeName="stroke-dashoffset" values="80.53" fill="freeze" begin="8f2a.click" /><animate attributeName="stroke-dashoffset" values="80.53;80.53;0" keyTimes="0;0.759;1" dur="2.51s" fill="freeze" begin="0s;8f2a.click" /></path><path d="M68.34,14.65c0.16,0.85-0.03,1.82-0.35,2.78c-2.25,6.69-7.37,17.69-16.76,27.01" stroke-dasharray="34.893" stroke-dashoffset="34.893"><animate attributeName="stroke-dashoffset" values="34.893" fill="freeze" begin="8f2a.click" /><animate attributeName="stroke-dashoffset" values="34.893;34.893;0" keyTimes="0;0.878;1" dur="2.859s" fill="freeze" begin="0s;8f2a.click" /></path><path d="M68.87,19.35c4.53,3.77,19.05,18.26,22.88,21.39c1.3,1.06,2.65,2.17,4.02,2.76" stroke-dasharray="36.218" stroke-dashoffset="36.218"><animate attributeName="stroke-dashoffset" values="36.218" fill="freeze" begin="8f2a.click" /><animate attributeName="stroke-dashoffset" values="36.218;36.218;0" keyTimes="0;0.888;1" dur="3.221s" fill="freeze" begin="0s;8f2a.click" /></path><path d="M57.66,44.91c0.76,0.31,2.16,0.39,2.92,0.31c4.86-0.54,11.46-2.21,16.91-2.5c1.27-0.07,2.04,0.15,2.67,0.3" stroke-dasharray="22.76" stroke-dashoffset="22.76"><animate attributeName="stroke-dashoffset" values="22.76" fill="freeze" begin="8f2a.click" /><animate attributeName="stroke-dashoffset" values="22.76;22.76;0" keyTimes="0;0.934;1" dur="3.449s" fill="freeze" begin="0s;8f2a.click" /></path><path d="M51.07,58.84c0.47,0.59,1.05,1.53,1.13,2.61c0.35,4.73,0.92,17.72,1.3,25.8c0.09,1.84,0.16,3.42,0.23,4.6" stroke-dasharray="33.326" stroke-dashoffset="33.326"><animate attributeName="stroke-dashoffset" values="33.326" fill="freeze" begin="8f2a.click" /><animate attributeName="stroke-dashoffset" values="33.326;33.326;0" keyTimes="0;0.912;1" dur="3.782s" fill="freeze" begin="0s;8f2a.click" /></path><path d="M52.69,59.78c5.95-0.47,34.63-4.17,35.8-4.34c2.5-0.36,3.42,2.49,3.44,3.67c0.14,6.33-0.23,23.89-0.23,30.56c0,8.21-4.66,1.96-6.54,0.42" stroke-dasharray="83.447" stroke-dashoffset="83.447"><animate attributeName="stroke-dashoffset" values="83.447" fill="freeze" begin="8f2a.click" /><animate attributeName="stroke-dashoffset" values="83.447;83.447;0" keyTimes="0;0.858;1" dur="4.409s" fill="freeze" begin="0s;8f2a.click" /></path><path d="M53.9,74.11c7.6-0.99,31.97-3.36,36.9-3.66" stroke-dasharray="37.084" stroke-dashoffset="37.084"><animate attributeName="stroke-dashoffset" values="37.084" fill="freeze" begin="8f2a.click" /><animate attributeName="stroke-dashoffset" values="37.084;37.084;0" keyTimes="0;0.922;1" dur="4.78s" fill="freeze" begin="0s;8f2a.click" /></path><path d="M63.24,61.37c0.88,0.88,1.24,2.26,1.24,3.83c0,8.32-0.01,14.09-0.01,18.18c0,1.73,0,3.16,0,4.35" stroke-dasharray="26.661" stroke-dashoffset="26.661"><animate attributeName="stroke-dashoffset" values="26.661" fill="freeze" begin="8f2a.click" /><animate attributeName="stroke-dashoffset" values="26.661;26.661;0" keyTimes="0;0.947;1" dur="5.047s" fill="freeze" begin="0s;8f2a.click" /></path><path d="M75.35,59.68c0.7,0.74,1.24,2.2,1.24,4.08c0,8.26-0.01,14.81-0.01,19.37c0,1.93,0,3.5,0,4.69" stroke-dasharray="28.417" stroke-dashoffset="28.417"><animate attributeName="stroke-dashoffset" values="28.417" fill="freeze" begin="8f2a.click" /><animate attributeName="stroke-dashoffset" values="28.417;28.417;0" keyTimes="0;0.947;1" dur="5.331s" fill="freeze" begin="0s;8f2a.click" /></path></g></svg>