<svg xmlns="http://www.w3.org/2000/svg" viewBox="0 0 109 109" id="8f45"><g fill="none" stroke="#666" stroke-width="6" stroke-linecap="round" stroke-linejoin="round"><g><g><path d="M11.58,27.3c1.17,0.45,2.72,0.91,3.34,0.86c8.59-0.67,18.5-1.23,27.13-2.18c1.01-0.11,1.62,0.17,2.13,0.35" /><path d="M11.81,39.77c0.49,0.47,1.12,0.84,1.21,1.46c0.67,4.53,2.5,15.7,3.44,24.28" /><path d="M13.1,41.35c7.07-0.84,24.18-2.84,29.01-2.97c2-0.05,2.41,1.14,2.32,2.46c-0.29,4.5-2.01,14.88-3.6,22.26" /><path d="M15.77,52.28c7.98-1.03,16.23-1.53,27.5-2.26" /><path d="M16.75,63.29c6.33-0.6,14.84-1.62,24.08-2.39" /><path d="M10.03,75.21c1.22,0.54,2.95,1.05,3.83,0.97C21.5,75.5,36.75,74,44.18,73.62c1.45-0.07,2.32,0.22,3.04,0.46" /><path d="M26.3,11.63c0.45,0.57,1.89,2.26,1.98,3.4c0.09,1.14-0.06,75.75-0.15,82.85" /></g><g><g><path d="M49.86,21.44C50.89,22,52.75,22.01,53.8,22c7.36-0.07,18.95-1.29,33.12-1.79c1.71-0.06,2.74,0.27,3.59,0.55" /><path d="M67.69,10.12c0.11,0.36,1.42,1.86,1.52,4.12c0.49,10.87,0.14,16.42,0.14,20.13" /><g p6:partial xmlns:p6="http://kanjivg.tagaini.net"><g p6:partial><path d="M51.9,35.23c1.07,0.54,3.03,0.59,4.12,0.54C62.5,35.5,76,34.25,83.98,33.54c1.79-0.16,2.86,0.26,3.76,0.53" /></g></g></g><g><g><path d="M53.37,44.64c0.44,0.3,1.01,1.53,1.09,1.93c0.6,2.88,2.33,8.98,3.17,14.44" /><path d="M54.58,46.13c7.88-1.38,22.92-2.88,28.85-3.14c1.91-0.08,2.19,1.76,2.03,2.69c-0.58,3.32-1.66,5.73-2.4,10.29" /><path d="M57.48,58.28c6.75-0.64,19.22-1.88,27.68-2.4" /></g><g p6:partial xmlns:p6="http://kanjivg.tagaini.net"><path d="M67.95,59.89c0.08,0.61,0.34,1.71-0.15,2.44c-3.73,5.65-12.15,13.63-26.49,23.38" /><path d="M56.66,75.86c0.33,0.31,0.68,0.61,0.68,1.15c-0.02,6.8-0.22,17.01-0.22,18.16s0.81,1.8,1.83,0.94c1.02-0.86,11.3-10.37,14.75-12.37" /><path d="M87.3,61.67c0.03,0.27,0.3,1.31,0.13,1.66c-1.08,2.23-4.44,5.42-9.93,9.87" /><path d="M69.59,65.98c1.02,0.8,2.66,3.06,2.94,3.4c4.18,5.05,14.35,17.93,17.17,20.9c1.06,1.12,1.98,1.6,3.04,1.92" /></g></g></g></g></g><g fill="none" stroke="#000" stroke-width="3" stroke-linecap="round" stroke-linejoin="round"><path d="M11.58,27.3c1.17,0.45,2.72,0.91,3.34,0.86c8.59-0.67,18.5-1.23,27.13-2.18c1.01-0.11,1.62,0.17,2.13,0.35" stroke-dasharray="32.868" stroke-dashoffset="32.868"><animate attributeName="stroke-dashoffset" values="32.868;32.868;0" dur="0.329s" fill="freeze" begin="0s;8f45.click" /></path><path d="M11.81,39.77c0.49,0.47,1.12,0.84,1.21,1.46c0.67,4.53,2.5,15.7,3.44,24.28" stroke-dasharray="26.463" stroke-dashoffset="26.463"><animate attributeName="stroke-dashoffset" values="26.463" fill="freeze" begin="8f45.click" /><animate attributeName="stroke-dashoffset" values="26.463;26.463;0" keyTimes="0;0.554;1" dur="0.594s" fill="freeze" begin="0s;8f45.click" /></path><path d="M13.1,41.35c7.07-0.84,24.18-2.84,29.01-2.97c2-0.05,2.41,1.14,2.32,2.46c-0.29,4.5-2.01,14.88-3.6,22.26" stroke-dasharray="55.706" stroke-dashoffset="55.706"><animate attributeName="stroke-dashoffset" values="55.706" fill="freeze" begin="8f45.click" /><animate attributeName="stroke-dashoffset" values="55.706;55.706;0" keyTimes="0;0.516;1" dur="1.151s" fill="freeze" begin="0s;8f45.click" /></path><path d="M15.77,52.28c7.98-1.03,16.23-1.53,27.5-2.26" stroke-dasharray="27.599" stroke-dashoffset="27.599"><animate attributeName="stroke-dashoffset" values="27.599" fill="freeze" begin="8f45.click" /><animate attributeName="stroke-dashoffset" values="27.599;27.599;0" keyTimes="0;0.807;1" dur="1.427s" fill="freeze" begin="0s;8f45.click" /></path><path d="M16.75,63.29c6.33-0.6,14.84-1.62,24.08-2.39" stroke-dasharray="24.2" stroke-dashoffset="24.2"><animate attributeName="stroke-dashoffset" values="24.2" fill="freeze" begin="8f45.click" /><animate attributeName="stroke-dashoffset" values="24.2;24.2;0" keyTimes="0;0.855;1" dur="1.669s" fill="freeze" begin="0s;8f45.click" /></path><path d="M10.03,75.21c1.22,0.54,2.95,1.05,3.83,0.97C21.5,75.5,36.75,74,44.18,73.62c1.45-0.07,2.32,0.22,3.04,0.46" stroke-dasharray="37.507" stroke-dashoffset="37.507"><animate attributeName="stroke-dashoffset" values="37.507" fill="freeze" begin="8f45.click" /><animate attributeName="stroke-dashoffset" values="37.507;37.507;0" keyTimes="0;0.817;1" dur="2.044s" fill="freeze" begin="0s;8f45.click" /></path><path d="M26.3,11.63c0.45,0.57,1.89,2.26,1.98,3.4c0.09,1.14-0.06,75.75-0.15,82.85" stroke-dasharray="86.832" stroke-dashoffset="86.832"><animate attributeName="stroke-dashoffset" values="86.832" fill="freeze" begin="8f45.click" /><animate attributeName="stroke-dashoffset" values="86.832;86.832;0" keyTimes="0;0.758;1" dur="2.697s" fill="freeze" begin="0s;8f45.click" /></path><path d="M49.86,21.44C50.89,22,52.75,22.01,53.8,22c7.36-0.07,18.95-1.29,33.12-1.79c1.71-0.06,2.74,0.27,3.59,0.55" stroke-dasharray="40.843" stroke-dashoffset="40.843"><animate attributeName="stroke-dashoffset" values="40.843" fill="freeze" begin="8f45.click" /><animate attributeName="stroke-dashoffset" values="40.843;40.843;0" keyTimes="0;0.869;1" dur="3.105s" fill="freeze" begin="0s;8f45.click" /></path><path d="M67.69,10.12c0.11,0.36,1.42,1.86,1.52,4.12c0.49,10.87,0.14,16.42,0.14,20.13" stroke-dasharray="24.582" stroke-dashoffset="24.582"><animate attributeName="stroke-dashoffset" values="24.582" fill="freeze" begin="8f45.click" /><animate attributeName="stroke-dashoffset" values="24.582;24.582;0" keyTimes="0;0.927;1" dur="3.351s" fill="freeze" begin="0s;8f45.click" /></path><path d="M51.9,35.23c1.07,0.54,3.03,0.59,4.12,0.54C62.5,35.5,76,34.25,83.98,33.54c1.79-0.16,2.86,0.26,3.76,0.53" stroke-dasharray="36.071" stroke-dashoffset="36.071"><animate attributeName="stroke-dashoffset" values="36.071" fill="freeze" begin="8f45.click" /><animate attributeName="stroke-dashoffset" values="36.071;36.071;0" keyTimes="0;0.903;1" dur="3.712s" fill="freeze" begin="0s;8f45.click" /></path><path d="M53.37,44.64c0.44,0.3,1.01,1.53,1.09,1.93c0.6,2.88,2.33,8.98,3.17,14.44" stroke-dasharray="17.034" stroke-dashoffset="17.034"><animate attributeName="stroke-dashoffset" values="17.034" fill="freeze" begin="8f45.click" /><animate attributeName="stroke-dashoffset" values="17.034;17.034;0" keyTimes="0;0.956;1" dur="3.882s" fill="freeze" begin="0s;8f45.click" /></path><path d="M54.58,46.13c7.88-1.38,22.92-2.88,28.85-3.14c1.91-0.08,2.19,1.76,2.03,2.69c-0.58,3.32-1.66,5.73-2.4,10.29" stroke-dasharray="43.537" stroke-dashoffset="43.537"><animate attributeName="stroke-dashoffset" values="43.537" fill="freeze" begin="8f45.click" /><animate attributeName="stroke-dashoffset" values="43.537;43.537;0" keyTimes="0;0.899;1" dur="4.317s" fill="freeze" begin="0s;8f45.click" /></path><path d="M57.48,58.28c6.75-0.64,19.22-1.88,27.68-2.4" stroke-dasharray="27.786" stroke-dashoffset="27.786"><animate attributeName="stroke-dashoffset" values="27.786" fill="freeze" begin="8f45.click" /><animate attributeName="stroke-dashoffset" values="27.786;27.786;0" keyTimes="0;0.939;1" dur="4.595s" fill="freeze" begin="0s;8f45.click" /></path><path d="M67.95,59.89c0.08,0.61,0.34,1.71-0.15,2.44c-3.73,5.65-12.15,13.63-26.49,23.38" stroke-dasharray="38.017" stroke-dashoffset="38.017"><animate attributeName="stroke-dashoffset" values="38.017" fill="freeze" begin="8f45.click" /><animate attributeName="stroke-dashoffset" values="38.017;38.017;0" keyTimes="0;0.924;1" dur="4.975s" fill="freeze" begin="0s;8f45.click" /></path><path d="M56.66,75.86c0.33,0.31,0.68,0.61,0.68,1.15c-0.02,6.8-0.22,17.01-0.22,18.16s0.81,1.8,1.83,0.94c1.02-0.86,11.3-10.37,14.75-12.37" stroke-dasharray="41.627" stroke-dashoffset="41.627"><animate attributeName="stroke-dashoffset" values="41.627" fill="freeze" begin="8f45.click" /><animate attributeName="stroke-dashoffset" values="41.627;41.627;0" keyTimes="0;0.923;1" dur="5.391s" fill="freeze" begin="0s;8f45.click" /></path><path d="M87.3,61.67c0.03,0.27,0.3,1.31,0.13,1.66c-1.08,2.23-4.44,5.42-9.93,9.87" stroke-dasharray="15.76" stroke-dashoffset="15.76"><animate attributeName="stroke-dashoffset" values="15.76" fill="freeze" begin="8f45.click" /><animate attributeName="stroke-dashoffset" values="15.76;15.76;0" keyTimes="0;0.972;1" dur="5.549s" fill="freeze" begin="0s;8f45.click" /></path><path d="M69.59,65.98c1.02,0.8,2.66,3.06,2.94,3.4c4.18,5.05,14.35,17.93,17.17,20.9c1.06,1.12,1.98,1.6,3.04,1.92" stroke-dasharray="35.198" stroke-dashoffset="35.198"><animate attributeName="stroke-dashoffset" values="35.198" fill="freeze" begin="8f45.click" /><animate attributeName="stroke-dashoffset" values="35.198;35.198;0" keyTimes="0;0.94;1" dur="5.901s" fill="freeze" begin="0s;8f45.click" /></path></g></svg>