<svg xmlns="http://www.w3.org/2000/svg" viewBox="0 0 109 109" id="8f57"><g fill="none" stroke="#666" stroke-width="6" stroke-linecap="round" stroke-linejoin="round"><g><g><path d="M9.58,25.8c1.67,0.7,3.72,0.9,4.34,0.86c7.34-0.42,16-0.73,24.63-1.68c1.01-0.11,1.62,0.17,2.13,0.35" /><path d="M11.06,36.27c0.33,0.47,0.76,0.84,0.82,1.46c0.45,4.53,1.69,15.7,2.33,24.28" /><path d="M12.35,38.35c6.41-0.84,20.1-2.84,24.48-2.97c1.81-0.05,2.18,1.14,2.1,2.46c-0.27,4.5-0.87,14.88-2.31,22.26" /><path d="M13.27,48.4c7.75-0.71,13.8-1.24,24.75-1.74" /><path d="M14.25,59.85c6.13-0.38,13.37-1.53,22.33-2.02" /><path d="M8.03,72.71C9,73,10.97,73.64,11.86,73.68C18,74,28.5,72,36.68,71.12c1.44-0.16,2.32,0.22,3.04,0.46" /><path d="M23.3,13.13c0.45,0.57,1.89,2.26,1.98,3.4c0.09,1.14-0.06,73.25-0.15,80.35" /></g><g><g><g><g><path d="M48.99,26.23c0.03,0.98,0.65,2.15,0.59,3.56c-0.5,11.96-1.15,27.46-7.83,36.99" /></g><g><g><g><path d="M46.96,25.86c1.19,0.15,3.4,0.22,4.57,0.15c4.83-0.29,25.93-1.75,35.88-2.54c1.95-0.16,3.78-0.07,4.78,0" /></g></g><g><path d="M53.77,37.68c0.83,0.15,2.89-0.02,3.71-0.07c2.94-0.2,6.73-0.89,9.42-1.02c1.38-0.07,2.57-0.12,3.26-0.05" /></g></g></g><g><path d="M52.79,46.18c0.29,0.3,0.59,0.56,0.72,0.93c1.01,3,2.2,8.62,2.89,14.02" /><path d="M55.11,46.9c5.95-1.18,8.98-1.03,12.39-1.42c1.25-0.14,1.99,0.85,1.82,1.7c-0.74,3.51-0.76,5.8-1.85,10.65" /><path d="M56.23,59.35c4-0.45,8.52-0.85,12.98-1.14" /></g><g><g><g><path d="M69.55,10.97c0.97,1.14,1.76,1.67,2.01,4.1C73.79,36.77,80,54.75,92.51,62.81c3.91,2.52,3.22,0.91,2.73-4.15" /></g><g><path d="M89.81,33.64c0.05,0.68,0.11,1.76-0.11,2.73C88.35,42.13,80.86,55.26,70.25,63" /></g><g><g><path d="M80.5,11.5c2.58,1.13,6.7,3.71,7.9,5.64" /></g></g></g></g></g><g><path d="M47,76.75c0.26,2.14-2.63,11.61-4.74,15.18" /><path d="M53.5,71.25c8.57,16.34,16.9,23,30.33,23c8.42,0,6.87-3.84,2-7.84" /><path d="M69.58,73.9c3.07,7.64,5.25,6.49,5.94,2.47" /><path d="M85.5,72.75c5.04,2.53,8.29,4.99,12.25,9.11" /></g></g></g></g><g fill="none" stroke="#000" stroke-width="3" stroke-linecap="round" stroke-linejoin="round"><path d="M9.58,25.8c1.67,0.7,3.72,0.9,4.34,0.86c7.34-0.42,16-0.73,24.63-1.68c1.01-0.11,1.62,0.17,2.13,0.35" stroke-dasharray="31.326" stroke-dashoffset="31.326"><animate attributeName="stroke-dashoffset" values="31.326;31.326;0" dur="0.313s" fill="freeze" begin="0s;8f57.click" /></path><path d="M11.06,36.27c0.33,0.47,0.76,0.84,0.82,1.46c0.45,4.53,1.69,15.7,2.33,24.28" stroke-dasharray="26.094" stroke-dashoffset="26.094"><animate attributeName="stroke-dashoffset" values="26.094" fill="freeze" begin="8f57.click" /><animate attributeName="stroke-dashoffset" values="26.094;26.094;0" keyTimes="0;0.545;1" dur="0.574s" fill="freeze" begin="0s;8f57.click" /></path><path d="M12.35,38.35c6.41-0.84,20.1-2.84,24.48-2.97c1.81-0.05,2.18,1.14,2.1,2.46c-0.27,4.5-0.87,14.88-2.31,22.26" stroke-dasharray="50.855" stroke-dashoffset="50.855"><animate attributeName="stroke-dashoffset" values="50.855" fill="freeze" begin="8f57.click" /><animate attributeName="stroke-dashoffset" values="50.855;50.855;0" keyTimes="0;0.53;1" dur="1.083s" fill="freeze" begin="0s;8f57.click" /></path><path d="M13.27,48.4c7.75-0.71,13.8-1.24,24.75-1.74" stroke-dasharray="24.815" stroke-dashoffset="24.815"><animate attributeName="stroke-dashoffset" values="24.815" fill="freeze" begin="8f57.click" /><animate attributeName="stroke-dashoffset" values="24.815;24.815;0" keyTimes="0;0.814;1" dur="1.331s" fill="freeze" begin="0s;8f57.click" /></path><path d="M14.25,59.85c6.13-0.38,13.37-1.53,22.33-2.02" stroke-dasharray="22.425" stroke-dashoffset="22.425"><animate attributeName="stroke-dashoffset" values="22.425" fill="freeze" begin="8f57.click" /><animate attributeName="stroke-dashoffset" values="22.425;22.425;0" keyTimes="0;0.856;1" dur="1.555s" fill="freeze" begin="0s;8f57.click" /></path><path d="M8.03,72.71C9,73,10.97,73.64,11.86,73.68C18,74,28.5,72,36.68,71.12c1.44-0.16,2.32,0.22,3.04,0.46" stroke-dasharray="32.043" stroke-dashoffset="32.043"><animate attributeName="stroke-dashoffset" values="32.043" fill="freeze" begin="8f57.click" /><animate attributeName="stroke-dashoffset" values="32.043;32.043;0" keyTimes="0;0.829;1" dur="1.875s" fill="freeze" begin="0s;8f57.click" /></path><path d="M23.3,13.13c0.45,0.57,1.89,2.26,1.98,3.4c0.09,1.14-0.06,73.25-0.15,80.35" stroke-dasharray="84.332" stroke-dashoffset="84.332"><animate attributeName="stroke-dashoffset" values="84.332" fill="freeze" begin="8f57.click" /><animate attributeName="stroke-dashoffset" values="84.332;84.332;0" keyTimes="0;0.747;1" dur="2.509s" fill="freeze" begin="0s;8f57.click" /></path><path d="M48.99,26.23c0.03,0.98,0.65,2.15,0.59,3.56c-0.5,11.96-1.15,27.46-7.83,36.99" stroke-dasharray="41.917" stroke-dashoffset="41.917"><animate attributeName="stroke-dashoffset" values="41.917" fill="freeze" begin="8f57.click" /><animate attributeName="stroke-dashoffset" values="41.917;41.917;0" keyTimes="0;0.857;1" dur="2.928s" fill="freeze" begin="0s;8f57.click" /></path><path d="M46.96,25.86c1.19,0.15,3.4,0.22,4.57,0.15c4.83-0.29,25.93-1.75,35.88-2.54c1.95-0.16,3.78-0.07,4.78,0" stroke-dasharray="45.332" stroke-dashoffset="45.332"><animate attributeName="stroke-dashoffset" values="45.332" fill="freeze" begin="8f57.click" /><animate attributeName="stroke-dashoffset" values="45.332;45.332;0" keyTimes="0;0.866;1" dur="3.381s" fill="freeze" begin="0s;8f57.click" /></path><path d="M53.77,37.68c0.83,0.15,2.89-0.02,3.71-0.07c2.94-0.2,6.73-0.89,9.42-1.02c1.38-0.07,2.57-0.12,3.26-0.05" stroke-dasharray="16.457" stroke-dashoffset="16.457"><animate attributeName="stroke-dashoffset" values="16.457" fill="freeze" begin="8f57.click" /><animate attributeName="stroke-dashoffset" values="16.457;16.457;0" keyTimes="0;0.953;1" dur="3.546s" fill="freeze" begin="0s;8f57.click" /></path><path d="M52.79,46.18c0.29,0.3,0.59,0.56,0.72,0.93c1.01,3,2.2,8.62,2.89,14.02" stroke-dasharray="15.52" stroke-dashoffset="15.52"><animate attributeName="stroke-dashoffset" values="15.52" fill="freeze" begin="8f57.click" /><animate attributeName="stroke-dashoffset" values="15.52;15.52;0" keyTimes="0;0.958;1" dur="3.701s" fill="freeze" begin="0s;8f57.click" /></path><path d="M55.11,46.9c5.95-1.18,8.98-1.03,12.39-1.42c1.25-0.14,1.99,0.85,1.82,1.7c-0.74,3.51-0.76,5.8-1.85,10.65" stroke-dasharray="26.199" stroke-dashoffset="26.199"><animate attributeName="stroke-dashoffset" values="26.199" fill="freeze" begin="8f57.click" /><animate attributeName="stroke-dashoffset" values="26.199;26.199;0" keyTimes="0;0.934;1" dur="3.963s" fill="freeze" begin="0s;8f57.click" /></path><path d="M56.23,59.35c4-0.45,8.52-0.85,12.98-1.14" stroke-dasharray="13.032" stroke-dashoffset="13.032"><animate attributeName="stroke-dashoffset" values="13.032" fill="freeze" begin="8f57.click" /><animate attributeName="stroke-dashoffset" values="13.032;13.032;0" keyTimes="0;0.938;1" dur="4.224s" fill="freeze" begin="0s;8f57.click" /></path><path d="M69.55,10.97c0.97,1.14,1.76,1.67,2.01,4.1C73.79,36.77,80,54.75,92.51,62.81c3.91,2.52,3.22,0.91,2.73-4.15" stroke-dasharray="66.927" stroke-dashoffset="66.927"><animate attributeName="stroke-dashoffset" values="66.927" fill="freeze" begin="8f57.click" /><animate attributeName="stroke-dashoffset" values="66.927;66.927;0" keyTimes="0;0.894;1" dur="4.727s" fill="freeze" begin="0s;8f57.click" /></path><path d="M89.81,33.64c0.05,0.68,0.11,1.76-0.11,2.73C88.35,42.13,80.86,55.26,70.25,63" stroke-dasharray="36.222" stroke-dashoffset="36.222"><animate attributeName="stroke-dashoffset" values="36.222" fill="freeze" begin="8f57.click" /><animate attributeName="stroke-dashoffset" values="36.222;36.222;0" keyTimes="0;0.929;1" dur="5.089s" fill="freeze" begin="0s;8f57.click" /></path><path d="M80.5,11.5c2.58,1.13,6.7,3.71,7.9,5.64" stroke-dasharray="9.803" stroke-dashoffset="9.803"><animate attributeName="stroke-dashoffset" values="9.803" fill="freeze" begin="8f57.click" /><animate attributeName="stroke-dashoffset" values="9.803;9.803;0" keyTimes="0;0.963;1" dur="5.285s" fill="freeze" begin="0s;8f57.click" /></path><path d="M47,76.75c0.26,2.14-2.63,11.61-4.74,15.18" stroke-dasharray="16.007" stroke-dashoffset="16.007"><animate attributeName="stroke-dashoffset" values="16.007" fill="freeze" begin="8f57.click" /><animate attributeName="stroke-dashoffset" values="16.007;16.007;0" keyTimes="0;0.971;1" dur="5.445s" fill="freeze" begin="0s;8f57.click" /></path><path d="M53.5,71.25c8.57,16.34,16.9,23,30.33,23c8.42,0,6.87-3.84,2-7.84" stroke-dasharray="54.381" stroke-dashoffset="54.381"><animate attributeName="stroke-dashoffset" values="54.381" fill="freeze" begin="8f57.click" /><animate attributeName="stroke-dashoffset" values="54.381;54.381;0" keyTimes="0;0.909;1" dur="5.989s" fill="freeze" begin="0s;8f57.click" /></path><path d="M69.58,73.9c3.07,7.64,5.25,6.49,5.94,2.47" stroke-dasharray="11.116" stroke-dashoffset="11.116"><animate attributeName="stroke-dashoffset" values="11.116" fill="freeze" begin="8f57.click" /><animate attributeName="stroke-dashoffset" values="11.116;11.116;0" keyTimes="0;0.964;1" dur="6.211s" fill="freeze" begin="0s;8f57.click" /></path><path d="M85.5,72.75c5.04,2.53,8.29,4.99,12.25,9.11" stroke-dasharray="15.354" stroke-dashoffset="15.354"><animate attributeName="stroke-dashoffset" values="15.354" fill="freeze" begin="8f57.click" /><animate attributeName="stroke-dashoffset" values="15.354;15.354;0" keyTimes="0;0.976;1" dur="6.365s" fill="freeze" begin="0s;8f57.click" /></path></g></svg>