<svg xmlns="http://www.w3.org/2000/svg" viewBox="0 0 109 109" id="8fa3"><g fill="none" stroke="#666" stroke-width="6" stroke-linecap="round" stroke-linejoin="round"><g><g><g><g><path d="M27.62,13.75c1.01,1.31,1.51,1.31,1.51,4.35c0,3.05,0,5.65,0,9.65" /><path d="M13.1,29.58c0.83,0.27,1.81,0.31,2.64,0.27c4.71-0.23,17.89-2.46,25.01-2.66c1.39-0.04,2.23,0.13,2.92,0.26" /></g><g><path d="M19.45,35.25c2.4,4.66,3.49,9.43,3.71,12.5" /><path d="M37.26,30.75c0.54,0.54,0.61,1.82,0.54,2.27c-0.43,3.08-4.09,11.87-5.17,14.23" /><path d="M11,51.8c1.11,0.39,2.42,0.53,3.52,0.39C20.11,51.5,34.3,49,40.86,48.7c1.85-0.09,2.96,0.19,3.89,0.38" /></g></g><g><path d="M12.68,70.75c0.73,0.88,2.06,1.1,2.79,0.88c9.25-2.87,20.64-7.44,27.68-10.11" /><path d="M27.23,53.13c0.83,0.58,1.83,2.14,1.86,3.31c0.23,9.11,0.68,26.72-16.59,41.8" /></g></g><g><g><path d="M48.97,26.61c1.06,0.32,3,0.38,4.06,0.32c8.91-0.44,25.19-2.75,34.74-3.05c1.76-0.06,2.83,0.15,3.71,0.32" /></g><g><path d="M48.74,39.45c0.3,0.32,0.61,0.59,0.75,0.99c1.05,3.2,2.81,12.01,3.52,17.75" /><path d="M50.63,41.19c12.12-1.69,31.89-4.03,35.44-4.35c2.21-0.2,3.61,2.07,3.02,3.92c-1.57,4.96-1.95,8.15-3.18,11.95" /><path d="M53.16,56.81c8.76-1.21,26.86-2.54,35.05-3.14" /></g><g><path d="M65.75,12.25c1.25,0.5,2,2.25,2.25,3.25s0,77.75-0.25,84" /><path d="M67.42,57.07C62.74,67.11,50.58,81.32,40.86,87" /><path d="M67.99,57.6c4.12,6.15,17.47,21.9,24.38,26.35c1.61,1.04,2.61,1.84,4.02,2.2" /></g></g></g></g><g fill="none" stroke="#000" stroke-width="3" stroke-linecap="round" stroke-linejoin="round"><path d="M27.62,13.75c1.01,1.31,1.51,1.31,1.51,4.35c0,3.05,0,5.65,0,9.65" stroke-dasharray="14.427" stroke-dashoffset="14.427"><animate attributeName="stroke-dashoffset" values="14.427;14.427;0" dur="0.289s" fill="freeze" begin="0s;8fa3.click" /></path><path d="M13.1,29.58c0.83,0.27,1.81,0.31,2.64,0.27c4.71-0.23,17.89-2.46,25.01-2.66c1.39-0.04,2.23,0.13,2.92,0.26" stroke-dasharray="30.766" stroke-dashoffset="30.766"><animate attributeName="stroke-dashoffset" values="30.766" fill="freeze" begin="8fa3.click" /><animate attributeName="stroke-dashoffset" values="30.766;30.766;0" keyTimes="0;0.484;1" dur="0.597s" fill="freeze" begin="0s;8fa3.click" /></path><path d="M19.45,35.25c2.4,4.66,3.49,9.43,3.71,12.5" stroke-dasharray="13.12" stroke-dashoffset="13.12"><animate attributeName="stroke-dashoffset" values="13.12" fill="freeze" begin="8fa3.click" /><animate attributeName="stroke-dashoffset" values="13.12;13.12;0" keyTimes="0;0.695;1" dur="0.859s" fill="freeze" begin="0s;8fa3.click" /></path><path d="M37.26,30.75c0.54,0.54,0.61,1.82,0.54,2.27c-0.43,3.08-4.09,11.87-5.17,14.23" stroke-dasharray="17.562" stroke-dashoffset="17.562"><animate attributeName="stroke-dashoffset" values="17.562" fill="freeze" begin="8fa3.click" /><animate attributeName="stroke-dashoffset" values="17.562;17.562;0" keyTimes="0;0.83;1" dur="1.035s" fill="freeze" begin="0s;8fa3.click" /></path><path d="M11,51.8c1.11,0.39,2.42,0.53,3.52,0.39C20.11,51.5,34.3,49,40.86,48.7c1.85-0.09,2.96,0.19,3.89,0.38" stroke-dasharray="34.072" stroke-dashoffset="34.072"><animate attributeName="stroke-dashoffset" values="34.072" fill="freeze" begin="8fa3.click" /><animate attributeName="stroke-dashoffset" values="34.072;34.072;0" keyTimes="0;0.752;1" dur="1.376s" fill="freeze" begin="0s;8fa3.click" /></path><path d="M12.68,70.75c0.73,0.88,2.06,1.1,2.79,0.88c9.25-2.87,20.64-7.44,27.68-10.11" stroke-dasharray="32.547" stroke-dashoffset="32.547"><animate attributeName="stroke-dashoffset" values="32.547" fill="freeze" begin="8fa3.click" /><animate attributeName="stroke-dashoffset" values="32.547;32.547;0" keyTimes="0;0.809;1" dur="1.701s" fill="freeze" begin="0s;8fa3.click" /></path><path d="M27.23,53.13c0.83,0.58,1.83,2.14,1.86,3.31c0.23,9.11,0.68,26.72-16.59,41.8" stroke-dasharray="50.629" stroke-dashoffset="50.629"><animate attributeName="stroke-dashoffset" values="50.629" fill="freeze" begin="8fa3.click" /><animate attributeName="stroke-dashoffset" values="50.629;50.629;0" keyTimes="0;0.771;1" dur="2.207s" fill="freeze" begin="0s;8fa3.click" /></path><path d="M48.97,26.61c1.06,0.32,3,0.38,4.06,0.32c8.91-0.44,25.19-2.75,34.74-3.05c1.76-0.06,2.83,0.15,3.71,0.32" stroke-dasharray="42.701" stroke-dashoffset="42.701"><animate attributeName="stroke-dashoffset" values="42.701" fill="freeze" begin="8fa3.click" /><animate attributeName="stroke-dashoffset" values="42.701;42.701;0" keyTimes="0;0.838;1" dur="2.634s" fill="freeze" begin="0s;8fa3.click" /></path><path d="M48.74,39.45c0.3,0.32,0.61,0.59,0.75,0.99c1.05,3.2,2.81,12.01,3.52,17.75" stroke-dasharray="19.366" stroke-dashoffset="19.366"><animate attributeName="stroke-dashoffset" values="19.366" fill="freeze" begin="8fa3.click" /><animate attributeName="stroke-dashoffset" values="19.366;19.366;0" keyTimes="0;0.931;1" dur="2.828s" fill="freeze" begin="0s;8fa3.click" /></path><path d="M50.63,41.19c12.12-1.69,31.89-4.03,35.44-4.35c2.21-0.2,3.61,2.07,3.02,3.92c-1.57,4.96-1.95,8.15-3.18,11.95" stroke-dasharray="53.905" stroke-dashoffset="53.905"><animate attributeName="stroke-dashoffset" values="53.905" fill="freeze" begin="8fa3.click" /><animate attributeName="stroke-dashoffset" values="53.905;53.905;0" keyTimes="0;0.84;1" dur="3.367s" fill="freeze" begin="0s;8fa3.click" /></path><path d="M53.16,56.81c8.76-1.21,26.86-2.54,35.05-3.14" stroke-dasharray="35.196" stroke-dashoffset="35.196"><animate attributeName="stroke-dashoffset" values="35.196" fill="freeze" begin="8fa3.click" /><animate attributeName="stroke-dashoffset" values="35.196;35.196;0" keyTimes="0;0.905;1" dur="3.719s" fill="freeze" begin="0s;8fa3.click" /></path><path d="M65.75,12.25c1.25,0.5,2,2.25,2.25,3.25s0,77.75-0.25,84" stroke-dasharray="88.086" stroke-dashoffset="88.086"><animate attributeName="stroke-dashoffset" values="88.086" fill="freeze" begin="8fa3.click" /><animate attributeName="stroke-dashoffset" values="88.086;88.086;0" keyTimes="0;0.849;1" dur="4.381s" fill="freeze" begin="0s;8fa3.click" /></path><path d="M67.42,57.07C62.74,67.11,50.58,81.32,40.86,87" stroke-dasharray="40.467" stroke-dashoffset="40.467"><animate attributeName="stroke-dashoffset" values="40.467" fill="freeze" begin="8fa3.click" /><animate attributeName="stroke-dashoffset" values="40.467;40.467;0" keyTimes="0;0.915;1" dur="4.786s" fill="freeze" begin="0s;8fa3.click" /></path><path d="M67.99,57.6c4.12,6.15,17.47,21.9,24.38,26.35c1.61,1.04,2.61,1.84,4.02,2.2" stroke-dasharray="40.638" stroke-dashoffset="40.638"><animate attributeName="stroke-dashoffset" values="40.638" fill="freeze" begin="8fa3.click" /><animate attributeName="stroke-dashoffset" values="40.638;40.638;0" keyTimes="0;0.922;1" dur="5.192s" fill="freeze" begin="0s;8fa3.click" /></path></g></svg>