<svg xmlns="http://www.w3.org/2000/svg" viewBox="0 0 109 109" id="8fc2"><g fill="none" stroke="#666" stroke-width="6" stroke-linecap="round" stroke-linejoin="round"><g><g><g><g><path d="M44.66,21.57c1.21,0.32,3.42,0.41,4.62,0.32c9.22-0.64,24.22-2.89,33.74-3.2c2.01-0.07,3.22,0.15,4.22,0.31" /></g><g><path d="M39.77,44.87c1.34,0.47,3.81,0.59,5.15,0.47c9.93-0.88,30.1-3.68,44.6-3.63c2.24,0.01,3.58,0.22,4.7,0.46" /></g></g><g><path d="M64.75,22.03c0.74,0.73,1.61,2.41,1.69,4.86c0.35,11.76-0.22,46.98-0.22,50.98c0,8.47-7.63,0.16-8.61-0.6" /></g></g><g><path d="M21.71,14c3.63,1.74,9.38,7.17,10.29,9.88" /><path d="M14.96,34c4.34,0.99,11.21,4.09,12.29,5.63" /><path d="M13.5,55.94c2.25,0.85,3.75,0.43,4.75,0.21c1-0.21,8-2.99,9.5-3.42c1.5-0.43,3.75,1.07,2.75,2.35s-4,6.19-4.75,7.26c-0.75,1.07-0.5,2.99,1,4.48s2.75,3.2,3.5,4.48C31,72.59,31,73.66,29.5,74.73c-1.5,1.07-9,7.04-10.5,7.47" /><path d="M15.25,83c3-0.5,9-1.75,13.5-0.75s30.07,7.71,34.5,9c12,3.5,21.25,4.5,30.25,2.75" /></g></g></g><g fill="none" stroke="#000" stroke-width="3" stroke-linecap="round" stroke-linejoin="round"><path d="M44.66,21.57c1.21,0.32,3.42,0.41,4.62,0.32c9.22-0.64,24.22-2.89,33.74-3.2c2.01-0.07,3.22,0.15,4.22,0.31" stroke-dasharray="42.785" stroke-dashoffset="42.785"><animate attributeName="stroke-dashoffset" values="42.785;42.785;0" dur="0.428s" fill="freeze" begin="0s;8fc2.click" /></path><path d="M39.77,44.87c1.34,0.47,3.81,0.59,5.15,0.47c9.93-0.88,30.1-3.68,44.6-3.63c2.24,0.01,3.58,0.22,4.7,0.46" stroke-dasharray="54.7" stroke-dashoffset="54.7"><animate attributeName="stroke-dashoffset" values="54.7" fill="freeze" begin="8fc2.click" /><animate attributeName="stroke-dashoffset" values="54.7;54.7;0" keyTimes="0;0.439;1" dur="0.975s" fill="freeze" begin="0s;8fc2.click" /></path><path d="M64.75,22.03c0.74,0.73,1.61,2.41,1.69,4.86c0.35,11.76-0.22,46.98-0.22,50.98c0,8.47-7.63,0.16-8.61-0.6" stroke-dasharray="69.079" stroke-dashoffset="69.079"><animate attributeName="stroke-dashoffset" values="69.079" fill="freeze" begin="8fc2.click" /><animate attributeName="stroke-dashoffset" values="69.079;69.079;0" keyTimes="0;0.653;1" dur="1.494s" fill="freeze" begin="0s;8fc2.click" /></path><path d="M21.71,14c3.63,1.74,9.38,7.17,10.29,9.88" stroke-dasharray="14.474" stroke-dashoffset="14.474"><animate attributeName="stroke-dashoffset" values="14.474" fill="freeze" begin="8fc2.click" /><animate attributeName="stroke-dashoffset" values="14.474;14.474;0" keyTimes="0;0.838;1" dur="1.783s" fill="freeze" begin="0s;8fc2.click" /></path><path d="M14.96,34c4.34,0.99,11.21,4.09,12.29,5.63" stroke-dasharray="13.644" stroke-dashoffset="13.644"><animate attributeName="stroke-dashoffset" values="13.644" fill="freeze" begin="8fc2.click" /><animate attributeName="stroke-dashoffset" values="13.644;13.644;0" keyTimes="0;0.867;1" dur="2.056s" fill="freeze" begin="0s;8fc2.click" /></path><path d="M13.5,55.94c2.25,0.85,3.75,0.43,4.75,0.21c1-0.21,8-2.99,9.5-3.42c1.5-0.43,3.75,1.07,2.75,2.35s-4,6.19-4.75,7.26c-0.75,1.07-0.5,2.99,1,4.48s2.75,3.2,3.5,4.48C31,72.59,31,73.66,29.5,74.73c-1.5,1.07-9,7.04-10.5,7.47" stroke-dasharray="55.731" stroke-dashoffset="55.731"><animate attributeName="stroke-dashoffset" values="55.731" fill="freeze" begin="8fc2.click" /><animate attributeName="stroke-dashoffset" values="55.731;55.731;0" keyTimes="0;0.787;1" dur="2.613s" fill="freeze" begin="0s;8fc2.click" /></path><path d="M15.25,83c3-0.5,9-1.75,13.5-0.75s30.07,7.71,34.5,9c12,3.5,21.25,4.5,30.25,2.75" stroke-dasharray="79.939" stroke-dashoffset="79.939"><animate attributeName="stroke-dashoffset" values="79.939" fill="freeze" begin="8fc2.click" /><animate attributeName="stroke-dashoffset" values="79.939;79.939;0" keyTimes="0;0.813;1" dur="3.214s" fill="freeze" begin="0s;8fc2.click" /></path></g></svg>