<svg xmlns="http://www.w3.org/2000/svg" viewBox="0 0 109 109" id="8fd4"><g fill="none" stroke="#666" stroke-width="6" stroke-linecap="round" stroke-linejoin="round"><g><g p4:phon="反" xmlns:p4="http://kanjivg.tagaini.net"><g><path d="M47.29,21.2c2.34,0.68,5.1,0.4,7.36,0.13c7.2-0.88,15.44-3.19,22.73-3.69c2.12-0.15,4.28-0.19,6.36,0.32" /><path d="M49.86,21.63c0.94,0.94,1.26,2.36,1.18,4.1c-0.92,19.77-3.92,34.02-13.2,47" /></g><g><path d="M54.16,38.25c1.24,0.29,2.39,0.48,4.87,0.04c2.48-0.44,15.15-3.97,16.85-4.4c1.7-0.44,3.66,1.09,3.07,2.7C72.5,54.38,62.88,69.62,44.91,77.51" /><path d="M54.14,47.38c3.21,0.65,17.21,16.04,28.92,24.68c2.48,1.83,5.25,3.99,8.32,4.7" /></g></g><g><path d="M18.71,22.5c3.63,1.39,9.38,5.72,10.29,7.88" /><path d="M14.75,51.5c2.25,1,3.75,0.5,4.75,0.25s7.75-3.25,9.25-3.75c3.7-1.23,4.4,0.75,1.61,3.96c-9.49,10.91-7.99,8.54-1.11,14.54c1.93,1.69,0.77,4.27-0.75,5.5c-3.88,3.12-10.25,8.62-12.75,10.5" /><path d="M12.25,84.25c4.38-1,10.5-1.5,15-0.5s29.99,6.04,34.5,7c11.12,2.38,20.38,3.25,28.16,3.8" /></g></g></g><g fill="none" stroke="#000" stroke-width="3" stroke-linecap="round" stroke-linejoin="round"><path d="M47.29,21.2c2.34,0.68,5.1,0.4,7.36,0.13c7.2-0.88,15.44-3.19,22.73-3.69c2.12-0.15,4.28-0.19,6.36,0.32" stroke-dasharray="36.846" stroke-dashoffset="36.846"><animate attributeName="stroke-dashoffset" values="36.846;36.846;0" dur="0.368s" fill="freeze" begin="0s;8fd4.click" /></path><path d="M49.86,21.63c0.94,0.94,1.26,2.36,1.18,4.1c-0.92,19.77-3.92,34.02-13.2,47" stroke-dasharray="53.956" stroke-dashoffset="53.956"><animate attributeName="stroke-dashoffset" values="53.956" fill="freeze" begin="8fd4.click" /><animate attributeName="stroke-dashoffset" values="53.956;53.956;0" keyTimes="0;0.405;1" dur="0.908s" fill="freeze" begin="0s;8fd4.click" /></path><path d="M54.16,38.25c1.24,0.29,2.39,0.48,4.87,0.04c2.48-0.44,15.15-3.97,16.85-4.4c1.7-0.44,3.66,1.09,3.07,2.7C72.5,54.38,62.88,69.62,44.91,77.51" stroke-dasharray="82.097" stroke-dashoffset="82.097"><animate attributeName="stroke-dashoffset" values="82.097" fill="freeze" begin="8fd4.click" /><animate attributeName="stroke-dashoffset" values="82.097;82.097;0" keyTimes="0;0.595;1" dur="1.525s" fill="freeze" begin="0s;8fd4.click" /></path><path d="M54.14,47.38c3.21,0.65,17.21,16.04,28.92,24.68c2.48,1.83,5.25,3.99,8.32,4.7" stroke-dasharray="47.725" stroke-dashoffset="47.725"><animate attributeName="stroke-dashoffset" values="47.725" fill="freeze" begin="8fd4.click" /><animate attributeName="stroke-dashoffset" values="47.725;47.725;0" keyTimes="0;0.762;1" dur="2.002s" fill="freeze" begin="0s;8fd4.click" /></path><path d="M18.71,22.5c3.63,1.39,9.38,5.72,10.29,7.88" stroke-dasharray="13.141" stroke-dashoffset="13.141"><animate attributeName="stroke-dashoffset" values="13.141" fill="freeze" begin="8fd4.click" /><animate attributeName="stroke-dashoffset" values="13.141;13.141;0" keyTimes="0;0.884;1" dur="2.265s" fill="freeze" begin="0s;8fd4.click" /></path><path d="M14.75,51.5c2.25,1,3.75,0.5,4.75,0.25s7.75-3.25,9.25-3.75c3.7-1.23,4.4,0.75,1.61,3.96c-9.49,10.91-7.99,8.54-1.11,14.54c1.93,1.69,0.77,4.27-0.75,5.5c-3.88,3.12-10.25,8.62-12.75,10.5" stroke-dasharray="64.797" stroke-dashoffset="64.797"><animate attributeName="stroke-dashoffset" values="64.797" fill="freeze" begin="8fd4.click" /><animate attributeName="stroke-dashoffset" values="64.797;64.797;0" keyTimes="0;0.823;1" dur="2.752s" fill="freeze" begin="0s;8fd4.click" /></path><path d="M12.25,84.25c4.38-1,10.5-1.5,15-0.5s29.99,6.04,34.5,7c11.12,2.38,20.38,3.25,28.16,3.8" stroke-dasharray="78.759" stroke-dashoffset="78.759"><animate attributeName="stroke-dashoffset" values="78.759" fill="freeze" begin="8fd4.click" /><animate attributeName="stroke-dashoffset" values="78.759;78.759;0" keyTimes="0;0.823;1" dur="3.344s" fill="freeze" begin="0s;8fd4.click" /></path></g></svg>