<svg xmlns="http://www.w3.org/2000/svg" viewBox="0 0 109 109" id="900b"><g fill="none" stroke="#666" stroke-width="6" stroke-linecap="round" stroke-linejoin="round"><g><g><path d="M41.5,25.61c1.12,0.45,3.18,0.53,4.3,0.45c9.22-0.64,29.64-3.02,42.27-3.42c1.87-0.06,2.99,0.22,3.93,0.44" /><g><path d="M44.91,35.93c0.55,0.63,0.91,1.27,1.09,1.9c0.18,0.63-0.22,37.93-0.2,43.65" /><path d="M47.1,38.04c6.14-0.26,37.13-3.29,38.76-3.46c2.92-0.32,4.01,2.06,3.65,3.01c-0.04,2.14-0.62,26.67-0.62,41.17c0,10.34-6,1.54-7.29,0.92" /><path d="M47.1,51.61c8.13-0.55,34.57-2.4,41.13-2.88" /><path d="M47.27,64.43c5.83-0.48,34.71-2.41,41.46-2.72" /><path d="M64.2,11.48c1.29,0.51,2.06,2.3,2.32,3.33c0.26,1.02,0,60.94-0.26,67.34" /></g><g><path d="M76,10.5c3.94,1.12,9.51,4.23,10.5,5.97" /></g></g><g><path d="M16.96,13.5c4.25,1.66,10.98,6.81,12.04,9.38" /><path d="M13.21,33.5c4.25,1.52,10.98,6.26,12.04,8.63" /><path d="M11,55.94c2.25,0.85,3.75,0.43,4.75,0.21c1-0.21,8-2.99,9.5-3.42c1.5-0.43,3.75,1.07,2.75,2.35s-4.5,6.69-5.25,7.76c-0.75,1.07-0.5,2.99,1,4.48s2.75,3.2,3.5,4.48C28,73.09,28,74.16,26.5,75.23c-1.5,1.07-8.5,6.54-10,6.97" /><path d="M11.25,84.61c3.06-0.49,11.86-1.88,18.42-0.35c4.56,1.07,25.99,7.09,30.5,8.35C72.4,96,81.83,96.97,91,95.27" /></g></g></g><g fill="none" stroke="#000" stroke-width="3" stroke-linecap="round" stroke-linejoin="round"><path d="M41.5,25.61c1.12,0.45,3.18,0.53,4.3,0.45c9.22-0.64,29.64-3.02,42.27-3.42c1.87-0.06,2.99,0.22,3.93,0.44" stroke-dasharray="50.734" stroke-dashoffset="50.734"><animate attributeName="stroke-dashoffset" values="50.734;50.734;0" dur="0.507s" fill="freeze" begin="0s;900b.click" /></path><path d="M44.91,35.93c0.55,0.63,0.91,1.27,1.09,1.9c0.18,0.63-0.22,37.93-0.2,43.65" stroke-dasharray="45.861" stroke-dashoffset="45.861"><animate attributeName="stroke-dashoffset" values="45.861" fill="freeze" begin="900b.click" /><animate attributeName="stroke-dashoffset" values="45.861;45.861;0" keyTimes="0;0.525;1" dur="0.966s" fill="freeze" begin="0s;900b.click" /></path><path d="M47.1,38.04c6.14-0.26,37.13-3.29,38.76-3.46c2.92-0.32,4.01,2.06,3.65,3.01c-0.04,2.14-0.62,26.67-0.62,41.17c0,10.34-6,1.54-7.29,0.92" stroke-dasharray="98.315" stroke-dashoffset="98.315"><animate attributeName="stroke-dashoffset" values="98.315" fill="freeze" begin="900b.click" /><animate attributeName="stroke-dashoffset" values="98.315;98.315;0" keyTimes="0;0.567;1" dur="1.705s" fill="freeze" begin="0s;900b.click" /></path><path d="M47.1,51.61c8.13-0.55,34.57-2.4,41.13-2.88" stroke-dasharray="41.232" stroke-dashoffset="41.232"><animate attributeName="stroke-dashoffset" values="41.232" fill="freeze" begin="900b.click" /><animate attributeName="stroke-dashoffset" values="41.232;41.232;0" keyTimes="0;0.805;1" dur="2.117s" fill="freeze" begin="0s;900b.click" /></path><path d="M47.27,64.43c5.83-0.48,34.71-2.41,41.46-2.72" stroke-dasharray="41.551" stroke-dashoffset="41.551"><animate attributeName="stroke-dashoffset" values="41.551" fill="freeze" begin="900b.click" /><animate attributeName="stroke-dashoffset" values="41.551;41.551;0" keyTimes="0;0.836;1" dur="2.533s" fill="freeze" begin="0s;900b.click" /></path><path d="M64.2,11.48c1.29,0.51,2.06,2.3,2.32,3.33c0.26,1.02,0,60.94-0.26,67.34" stroke-dasharray="71.537" stroke-dashoffset="71.537"><animate attributeName="stroke-dashoffset" values="71.537" fill="freeze" begin="900b.click" /><animate attributeName="stroke-dashoffset" values="71.537;71.537;0" keyTimes="0;0.825;1" dur="3.071s" fill="freeze" begin="0s;900b.click" /></path><path d="M76,10.5c3.94,1.12,9.51,4.23,10.5,5.97" stroke-dasharray="12.232" stroke-dashoffset="12.232"><animate attributeName="stroke-dashoffset" values="12.232" fill="freeze" begin="900b.click" /><animate attributeName="stroke-dashoffset" values="12.232;12.232;0" keyTimes="0;0.926;1" dur="3.316s" fill="freeze" begin="0s;900b.click" /></path><path d="M16.96,13.5c4.25,1.66,10.98,6.81,12.04,9.38" stroke-dasharray="15.476" stroke-dashoffset="15.476"><animate attributeName="stroke-dashoffset" values="15.476" fill="freeze" begin="900b.click" /><animate attributeName="stroke-dashoffset" values="15.476;15.476;0" keyTimes="0;0.955;1" dur="3.471s" fill="freeze" begin="0s;900b.click" /></path><path d="M13.21,33.5c4.25,1.52,10.98,6.26,12.04,8.63" stroke-dasharray="15.015" stroke-dashoffset="15.015"><animate attributeName="stroke-dashoffset" values="15.015" fill="freeze" begin="900b.click" /><animate attributeName="stroke-dashoffset" values="15.015;15.015;0" keyTimes="0;0.959;1" dur="3.621s" fill="freeze" begin="0s;900b.click" /></path><path d="M11,55.94c2.25,0.85,3.75,0.43,4.75,0.21c1-0.21,8-2.99,9.5-3.42c1.5-0.43,3.75,1.07,2.75,2.35s-4.5,6.69-5.25,7.76c-0.75,1.07-0.5,2.99,1,4.48s2.75,3.2,3.5,4.48C28,73.09,28,74.16,26.5,75.23c-1.5,1.07-8.5,6.54-10,6.97" stroke-dasharray="55.727" stroke-dashoffset="55.727"><animate attributeName="stroke-dashoffset" values="55.727" fill="freeze" begin="900b.click" /><animate attributeName="stroke-dashoffset" values="55.727;55.727;0" keyTimes="0;0.867;1" dur="4.178s" fill="freeze" begin="0s;900b.click" /></path><path d="M11.25,84.61c3.06-0.49,11.86-1.88,18.42-0.35c4.56,1.07,25.99,7.09,30.5,8.35C72.4,96,81.83,96.97,91,95.27" stroke-dasharray="81.378" stroke-dashoffset="81.378"><animate attributeName="stroke-dashoffset" values="81.378" fill="freeze" begin="900b.click" /><animate attributeName="stroke-dashoffset" values="81.378;81.378;0" keyTimes="0;0.872;1" dur="4.79s" fill="freeze" begin="0s;900b.click" /></path></g></svg>