<svg xmlns="http://www.w3.org/2000/svg" viewBox="0 0 109 109" id="9032"><g fill="none" stroke="#666" stroke-width="6" stroke-linecap="round" stroke-linejoin="round"><g><g><g><path d="M54.54,14.25c0.16,1.48-0.04,3.42-0.56,4.69c-3.31,8.08-7.5,14.93-15.07,24.76" /><path d="M48.14,31.68c0.78,0.78,1.21,1.69,1.21,2.69c0,10.51,0.04,29.7,0.02,40.26c0,2.13-0.01,3.82-0.01,4.88" /></g><path d="M74.87,14c0.07,0.74-0.02,1.71-0.24,2.35c-1.43,4.05-2.5,6.43-5.77,11.37" /><path d="M49.76,33.27c6.73-0.78,24.36-3.17,33.38-4.08c2.31-0.23,4.06-0.35,4.91-0.3" /><path d="M69.12,33.66c0.8,0.8,1.23,2.09,1.23,3.58c0,6.76-0.2,23.51-0.2,33.11" /><path d="M49.77,46.1c6.36-0.65,22.86-2.85,30.6-3.56c2.04-0.19,3.5-0.41,4.98-0.06" /><path d="M50.55,58.57c6.92-0.56,23.46-2.53,31.43-3.1c1.6-0.11,3.42-0.18,4.25-0.1" /><path d="M50.42,73.11c6.82-0.79,26.57-2.48,36.2-3.05c2.32-0.14,4.05-0.18,4.88-0.09" /></g><g><path d="M20.38,18.75c3.84,1.88,9.92,7.71,10.88,10.63" /><path d="M13.25,50.5C15.5,51.5,17,51,18,50.75s7.77-2.69,9.25-3.25c4-1.5,5.14-0.44,2.5,4.5C23.88,63,24,59.88,30.5,68c1.66,2.08,1.5,3-1,5.5c-1.38,1.38-8,7.5-9.5,8" /><path d="M15.25,83.5c3-0.5,8.92-1.31,13.5-0.75c9.25,1.12,30.07,7.71,34.5,9c12,3.5,18,4,27,3" /></g></g></g><g fill="none" stroke="#000" stroke-width="3" stroke-linecap="round" stroke-linejoin="round"><path d="M54.54,14.25c0.16,1.48-0.04,3.42-0.56,4.69c-3.31,8.08-7.5,14.93-15.07,24.76" stroke-dasharray="33.846" stroke-dashoffset="33.846"><animate attributeName="stroke-dashoffset" values="33.846;33.846;0" dur="0.338s" fill="freeze" begin="0s;9032.click" /></path><path d="M48.14,31.68c0.78,0.78,1.21,1.69,1.21,2.69c0,10.51,0.04,29.7,0.02,40.26c0,2.13-0.01,3.82-0.01,4.88" stroke-dasharray="48.171" stroke-dashoffset="48.171"><animate attributeName="stroke-dashoffset" values="48.171" fill="freeze" begin="9032.click" /><animate attributeName="stroke-dashoffset" values="48.171;48.171;0" keyTimes="0;0.412;1" dur="0.82s" fill="freeze" begin="0s;9032.click" /></path><path d="M74.87,14c0.07,0.74-0.02,1.71-0.24,2.35c-1.43,4.05-2.5,6.43-5.77,11.37" stroke-dasharray="15.171" stroke-dashoffset="15.171"><animate attributeName="stroke-dashoffset" values="15.171" fill="freeze" begin="9032.click" /><animate attributeName="stroke-dashoffset" values="15.171;15.171;0" keyTimes="0;0.844;1" dur="0.972s" fill="freeze" begin="0s;9032.click" /></path><path d="M49.76,33.27c6.73-0.78,24.36-3.17,33.38-4.08c2.31-0.23,4.06-0.35,4.91-0.3" stroke-dasharray="38.553" stroke-dashoffset="38.553"><animate attributeName="stroke-dashoffset" values="38.553" fill="freeze" begin="9032.click" /><animate attributeName="stroke-dashoffset" values="38.553;38.553;0" keyTimes="0;0.716;1" dur="1.358s" fill="freeze" begin="0s;9032.click" /></path><path d="M69.12,33.66c0.8,0.8,1.23,2.09,1.23,3.58c0,6.76-0.2,23.51-0.2,33.11" stroke-dasharray="36.993" stroke-dashoffset="36.993"><animate attributeName="stroke-dashoffset" values="36.993" fill="freeze" begin="9032.click" /><animate attributeName="stroke-dashoffset" values="36.993;36.993;0" keyTimes="0;0.786;1" dur="1.728s" fill="freeze" begin="0s;9032.click" /></path><path d="M49.77,46.1c6.36-0.65,22.86-2.85,30.6-3.56c2.04-0.19,3.5-0.41,4.98-0.06" stroke-dasharray="35.813" stroke-dashoffset="35.813"><animate attributeName="stroke-dashoffset" values="35.813" fill="freeze" begin="9032.click" /><animate attributeName="stroke-dashoffset" values="35.813;35.813;0" keyTimes="0;0.828;1" dur="2.086s" fill="freeze" begin="0s;9032.click" /></path><path d="M50.55,58.57c6.92-0.56,23.46-2.53,31.43-3.1c1.6-0.11,3.42-0.18,4.25-0.1" stroke-dasharray="35.839" stroke-dashoffset="35.839"><animate attributeName="stroke-dashoffset" values="35.839" fill="freeze" begin="9032.click" /><animate attributeName="stroke-dashoffset" values="35.839;35.839;0" keyTimes="0;0.854;1" dur="2.444s" fill="freeze" begin="0s;9032.click" /></path><path d="M50.42,73.11c6.82-0.79,26.57-2.48,36.2-3.05c2.32-0.14,4.05-0.18,4.88-0.09" stroke-dasharray="41.216" stroke-dashoffset="41.216"><animate attributeName="stroke-dashoffset" values="41.216" fill="freeze" begin="9032.click" /><animate attributeName="stroke-dashoffset" values="41.216;41.216;0" keyTimes="0;0.856;1" dur="2.856s" fill="freeze" begin="0s;9032.click" /></path><path d="M20.38,18.75c3.84,1.88,9.92,7.71,10.88,10.63" stroke-dasharray="15.433" stroke-dashoffset="15.433"><animate attributeName="stroke-dashoffset" values="15.433" fill="freeze" begin="9032.click" /><animate attributeName="stroke-dashoffset" values="15.433;15.433;0" keyTimes="0;0.949;1" dur="3.01s" fill="freeze" begin="0s;9032.click" /></path><path d="M13.25,50.5C15.5,51.5,17,51,18,50.75s7.77-2.69,9.25-3.25c4-1.5,5.14-0.44,2.5,4.5C23.88,63,24,59.88,30.5,68c1.66,2.08,1.5,3-1,5.5c-1.38,1.38-8,7.5-9.5,8" stroke-dasharray="61.334" stroke-dashoffset="61.334"><animate attributeName="stroke-dashoffset" values="61.334" fill="freeze" begin="9032.click" /><animate attributeName="stroke-dashoffset" values="61.334;61.334;0" keyTimes="0;0.867;1" dur="3.471s" fill="freeze" begin="0s;9032.click" /></path><path d="M15.25,83.5c3-0.5,8.92-1.31,13.5-0.75c9.25,1.12,30.07,7.71,34.5,9c12,3.5,18,4,27,3" stroke-dasharray="76.639" stroke-dashoffset="76.639"><animate attributeName="stroke-dashoffset" values="76.639" fill="freeze" begin="9032.click" /><animate attributeName="stroke-dashoffset" values="76.639;76.639;0" keyTimes="0;0.858;1" dur="4.047s" fill="freeze" begin="0s;9032.click" /></path></g></svg>