<svg xmlns="http://www.w3.org/2000/svg" viewBox="0 0 109 109" id="9132"><g fill="none" stroke="#666" stroke-width="6" stroke-linecap="round" stroke-linejoin="round"><g><g><g><g><path d="M13,14.58c0.31,0.29,0.65,0.52,0.75,0.9c0.87,3.36,1.47,8.56,2.34,13.49" /><path d="M14.91,15.65c5.65-0.71,10.52-1.23,15.73-1.95c1.31-0.18,2.1,0.83,1.91,1.65c-0.78,3.39-1.07,4.94-2.46,10.58" /><path d="M16.74,27.66c4.22-0.43,9.27-0.65,15.06-1.32" /></g><g><path d="M39.29,13.71c0.24,0.31,0.95,1.48,1.03,1.89c0.69,3.63,1.4,7.22,2.09,12.55" /><path d="M40.54,15.02c5.69-0.85,11.64-1.37,15.75-2.15c1.03-0.19,1.65,0.89,1.5,1.78c-0.61,3.67-1.77,6.56-2.58,10.52" /><path d="M42.22,26.75c4.37-0.29,8.35-0.98,14.79-1.1" /></g></g><g><g><g p7:partial xmlns:p7="http://kanjivg.tagaini.net"><path d="M16.48,37.01c0.27,0.47,0.78,1.29,0.93,1.88c1.24,4.82,2.31,14.52,3.09,23.47" /><path d="M18.25,38.33c10.3-1.62,26.82-2.81,33.92-3.63c2.61-0.3,4.18,0.65,4.1,2.68c-0.18,4.83-2.97,20.78-3.43,22.8" /><path d="M19.32,49.13c3.1-0.39,31.18-3.13,35.49-2.86" /><path d="M20.87,60.04c10.63-1.29,22.23-1.84,32.04-2.78" /></g></g><g><path d="M9.44,71.38c1.39,0.51,3.95,0.6,5.34,0.51c7.73-0.46,24.3-2.27,41.67-2.97c2.32-0.09,3.71,0.25,4.87,0.5" /></g><g><g><path d="M35.32,38.99c0.6,0.41,0.98,1.54,0.99,2.93c0.04,7.02,0.18,54.06,0.2,56.35" /></g></g></g></g><g><path d="M67.67,16.56c0.85,0.09,2.36,0.7,3.45,0.49c4.71-0.91,15.88-2.8,19.9-3.35c3.22-0.44,5.11,2.12,3.75,4.73s-10.13,16.99-12.5,20.72" /><path d="M82.26,39.71C103,50.5,96.75,94.75,83.04,78.09" /><path d="M70.89,17.05c0.22,1.12,0,76.2-0.22,83.2" /></g></g></g><g fill="none" stroke="#000" stroke-width="3" stroke-linecap="round" stroke-linejoin="round"><path d="M13,14.58c0.31,0.29,0.65,0.52,0.75,0.9c0.87,3.36,1.47,8.56,2.34,13.49" stroke-dasharray="14.886" stroke-dashoffset="14.886"><animate attributeName="stroke-dashoffset" values="14.886;14.886;0" dur="0.298s" fill="freeze" begin="0s;9132.click" /></path><path d="M14.91,15.65c5.65-0.71,10.52-1.23,15.73-1.95c1.31-0.18,2.1,0.83,1.91,1.65c-0.78,3.39-1.07,4.94-2.46,10.58" stroke-dasharray="29.673" stroke-dashoffset="29.673"><animate attributeName="stroke-dashoffset" values="29.673" fill="freeze" begin="9132.click" /><animate attributeName="stroke-dashoffset" values="29.673;29.673;0" keyTimes="0;0.501;1" dur="0.595s" fill="freeze" begin="0s;9132.click" /></path><path d="M16.74,27.66c4.22-0.43,9.27-0.65,15.06-1.32" stroke-dasharray="15.12" stroke-dashoffset="15.12"><animate attributeName="stroke-dashoffset" values="15.12" fill="freeze" begin="9132.click" /><animate attributeName="stroke-dashoffset" values="15.12;15.12;0" keyTimes="0;0.798;1" dur="0.746s" fill="freeze" begin="0s;9132.click" /></path><path d="M39.29,13.71c0.24,0.31,0.95,1.48,1.03,1.89c0.69,3.63,1.4,7.22,2.09,12.55" stroke-dasharray="14.887" stroke-dashoffset="14.887"><animate attributeName="stroke-dashoffset" values="14.887" fill="freeze" begin="9132.click" /><animate attributeName="stroke-dashoffset" values="14.887;14.887;0" keyTimes="0;0.715;1" dur="1.044s" fill="freeze" begin="0s;9132.click" /></path><path d="M40.54,15.02c5.69-0.85,11.64-1.37,15.75-2.15c1.03-0.19,1.65,0.89,1.5,1.78c-0.61,3.67-1.77,6.56-2.58,10.52" stroke-dasharray="29.463" stroke-dashoffset="29.463"><animate attributeName="stroke-dashoffset" values="29.463" fill="freeze" begin="9132.click" /><animate attributeName="stroke-dashoffset" values="29.463;29.463;0" keyTimes="0;0.78;1" dur="1.339s" fill="freeze" begin="0s;9132.click" /></path><path d="M42.22,26.75c4.37-0.29,8.35-0.98,14.79-1.1" stroke-dasharray="14.836" stroke-dashoffset="14.836"><animate attributeName="stroke-dashoffset" values="14.836" fill="freeze" begin="9132.click" /><animate attributeName="stroke-dashoffset" values="14.836;14.836;0" keyTimes="0;0.818;1" dur="1.636s" fill="freeze" begin="0s;9132.click" /></path><path d="M16.48,37.01c0.27,0.47,0.78,1.29,0.93,1.88c1.24,4.82,2.31,14.52,3.09,23.47" stroke-dasharray="25.795" stroke-dashoffset="25.795"><animate attributeName="stroke-dashoffset" values="25.795" fill="freeze" begin="9132.click" /><animate attributeName="stroke-dashoffset" values="25.795;25.795;0" keyTimes="0;0.864;1" dur="1.894s" fill="freeze" begin="0s;9132.click" /></path><path d="M18.25,38.33c10.3-1.62,26.82-2.81,33.92-3.63c2.61-0.3,4.18,0.65,4.1,2.68c-0.18,4.83-2.97,20.78-3.43,22.8" stroke-dasharray="62.911" stroke-dashoffset="62.911"><animate attributeName="stroke-dashoffset" values="62.911" fill="freeze" begin="9132.click" /><animate attributeName="stroke-dashoffset" values="62.911;62.911;0" keyTimes="0;0.8;1" dur="2.367s" fill="freeze" begin="0s;9132.click" /></path><path d="M19.32,49.13c3.1-0.39,31.18-3.13,35.49-2.86" stroke-dasharray="35.617" stroke-dashoffset="35.617"><animate attributeName="stroke-dashoffset" values="35.617" fill="freeze" begin="9132.click" /><animate attributeName="stroke-dashoffset" values="35.617;35.617;0" keyTimes="0;0.869;1" dur="2.723s" fill="freeze" begin="0s;9132.click" /></path><path d="M20.87,60.04c10.63-1.29,22.23-1.84,32.04-2.78" stroke-dasharray="32.164" stroke-dashoffset="32.164"><animate attributeName="stroke-dashoffset" values="32.164" fill="freeze" begin="9132.click" /><animate attributeName="stroke-dashoffset" values="32.164;32.164;0" keyTimes="0;0.894;1" dur="3.045s" fill="freeze" begin="0s;9132.click" /></path><path d="M9.44,71.38c1.39,0.51,3.95,0.6,5.34,0.51c7.73-0.46,24.3-2.27,41.67-2.97c2.32-0.09,3.71,0.25,4.87,0.5" stroke-dasharray="52.085" stroke-dashoffset="52.085"><animate attributeName="stroke-dashoffset" values="52.085" fill="freeze" begin="9132.click" /><animate attributeName="stroke-dashoffset" values="52.085;52.085;0" keyTimes="0;0.854;1" dur="3.566s" fill="freeze" begin="0s;9132.click" /></path><path d="M35.32,38.99c0.6,0.41,0.98,1.54,0.99,2.93c0.04,7.02,0.18,54.06,0.2,56.35" stroke-dasharray="59.544" stroke-dashoffset="59.544"><animate attributeName="stroke-dashoffset" values="59.544" fill="freeze" begin="9132.click" /><animate attributeName="stroke-dashoffset" values="59.544;59.544;0" keyTimes="0;0.857;1" dur="4.161s" fill="freeze" begin="0s;9132.click" /></path><path d="M67.67,16.56c0.85,0.09,2.36,0.7,3.45,0.49c4.71-0.91,15.88-2.8,19.9-3.35c3.22-0.44,5.11,2.12,3.75,4.73s-10.13,16.99-12.5,20.72" stroke-dasharray="55.582" stroke-dashoffset="55.582"><animate attributeName="stroke-dashoffset" values="55.582" fill="freeze" begin="9132.click" /><animate attributeName="stroke-dashoffset" values="55.582;55.582;0" keyTimes="0;0.882;1" dur="4.717s" fill="freeze" begin="0s;9132.click" /></path><path d="M82.26,39.71C103,50.5,96.75,94.75,83.04,78.09" stroke-dasharray="56.648" stroke-dashoffset="56.648"><animate attributeName="stroke-dashoffset" values="56.648" fill="freeze" begin="9132.click" /><animate attributeName="stroke-dashoffset" values="56.648;56.648;0" keyTimes="0;0.893;1" dur="5.283s" fill="freeze" begin="0s;9132.click" /></path><path d="M70.89,17.05c0.22,1.12,0,76.2-0.22,83.2" stroke-dasharray="83.203" stroke-dashoffset="83.203"><animate attributeName="stroke-dashoffset" values="83.203" fill="freeze" begin="9132.click" /><animate attributeName="stroke-dashoffset" values="83.203;83.203;0" keyTimes="0;0.894;1" dur="5.909s" fill="freeze" begin="0s;9132.click" /></path></g></svg>