<svg xmlns="http://www.w3.org/2000/svg" viewBox="0 0 109 109" id="916a"><g fill="none" stroke="#666" stroke-width="6" stroke-linecap="round" stroke-linejoin="round"><g><g><g><path d="M10.54,25.37c1.61,1,4.75,0.83,6.58,0.63c7.41-0.8,21.24-2.78,23.6-3c1.5-0.14,3.19-0.61,4.48-0.13" /><path d="M13.56,39.11c0.86,0.86,1.05,2.27,1.05,3.69c0,0.69-0.08,26.74-0.05,39.21c0.01,3.77,0.02,6.29,0.05,6.5" /><path d="M15.8,40.75c2.27-0.11,22.22-3.08,24.28-3.37C42.23,37.09,44,38.46,44,41c0,1.11,0.11,27,0.11,39c0,3.36-0.04,5.56-0.04,5.71" /><path d="M23.93,28.16c0.96,0.96,0.97,2.18,0.92,4.01c-0.23,9.21-2.23,20.09-6.36,27.17" /><path d="M31.72,27.09c0.41,1.1,0.73,2.4,0.75,4.1c0.08,5.39-0.18,9.52-0.21,16.18c-0.03,5.78,1.75,6.97,4.6,6.97c2.88,0,4.88-0.2,5.16-0.85" /></g><g><path d="M15.96,71.96c4.54-0.46,23.2-2.4,26.68-2.4" /></g><g><path d="M15.81,85.5c6.27-0.48,19-1.77,26.81-2.18" /></g></g><g p4:phon="各" xmlns:p4="http://kanjivg.tagaini.net"><g><path d="M63.28,15.25c0.07,1.12,0.02,2-0.35,3.06c-2.06,5.85-6.09,14.36-11.97,21.34" /><path d="M63.06,25.57c0.31,0.04,1.67-0.12,2.53-0.35c4.04-1.09,8.71-2.18,13.04-3.34c3.56-0.96,5.29,0.2,3.77,3.85C77.95,36.43,68.5,53.25,50.29,63.46" /><path d="M58.47,31.25c5.23,4.44,19.69,17.81,27.79,24.1c2.39,1.86,4.81,3.21,7.45,4.63" /></g><g><path d="M54.6,67.74c0.82,0.83,1.27,1.84,1.36,3.02c0.79,4.49,1.36,8.07,1.94,13.22c0.24,2.12,0.46,4.17,0.68,5.98" /><path d="M56.58,69.53c9.56-1.51,19.47-2.65,24.92-3.27c3.38-0.39,5.21-0.14,4.3,3.78c-1.02,4.38-1.74,9.35-2.92,14.95" /><path d="M59.49,88.62c3.93-0.47,13.34-1.45,20.54-2.08c1.83-0.16,3.35-0.27,4.88-0.27" /></g></g></g></g><g fill="none" stroke="#000" stroke-width="3" stroke-linecap="round" stroke-linejoin="round"><path d="M10.54,25.37c1.61,1,4.75,0.83,6.58,0.63c7.41-0.8,21.24-2.78,23.6-3c1.5-0.14,3.19-0.61,4.48-0.13" stroke-dasharray="35.025" stroke-dashoffset="35.025"><animate attributeName="stroke-dashoffset" values="35.025;35.025;0" dur="0.35s" fill="freeze" begin="0s;916a.click" /></path><path d="M13.56,39.11c0.86,0.86,1.05,2.27,1.05,3.69c0,0.69-0.08,26.74-0.05,39.21c0.01,3.77,0.02,6.29,0.05,6.5" stroke-dasharray="49.646" stroke-dashoffset="49.646"><animate attributeName="stroke-dashoffset" values="49.646" fill="freeze" begin="916a.click" /><animate attributeName="stroke-dashoffset" values="49.646;49.646;0" keyTimes="0;0.414;1" dur="0.846s" fill="freeze" begin="0s;916a.click" /></path><path d="M15.8,40.75c2.27-0.11,22.22-3.08,24.28-3.37C42.23,37.09,44,38.46,44,41c0,1.11,0.11,27,0.11,39c0,3.36-0.04,5.56-0.04,5.71" stroke-dasharray="75.374" stroke-dashoffset="75.374"><animate attributeName="stroke-dashoffset" values="75.374" fill="freeze" begin="916a.click" /><animate attributeName="stroke-dashoffset" values="75.374;75.374;0" keyTimes="0;0.599;1" dur="1.413s" fill="freeze" begin="0s;916a.click" /></path><path d="M23.93,28.16c0.96,0.96,0.97,2.18,0.92,4.01c-0.23,9.21-2.23,20.09-6.36,27.17" stroke-dasharray="32.409" stroke-dashoffset="32.409"><animate attributeName="stroke-dashoffset" values="32.409" fill="freeze" begin="916a.click" /><animate attributeName="stroke-dashoffset" values="32.409;32.409;0" keyTimes="0;0.813;1" dur="1.737s" fill="freeze" begin="0s;916a.click" /></path><path d="M31.72,27.09c0.41,1.1,0.73,2.4,0.75,4.1c0.08,5.39-0.18,9.52-0.21,16.18c-0.03,5.78,1.75,6.97,4.6,6.97c2.88,0,4.88-0.2,5.16-0.85" stroke-dasharray="35.379" stroke-dashoffset="35.379"><animate attributeName="stroke-dashoffset" values="35.379" fill="freeze" begin="916a.click" /><animate attributeName="stroke-dashoffset" values="35.379;35.379;0" keyTimes="0;0.831;1" dur="2.091s" fill="freeze" begin="0s;916a.click" /></path><path d="M15.96,71.96c4.54-0.46,23.2-2.4,26.68-2.4" stroke-dasharray="26.792" stroke-dashoffset="26.792"><animate attributeName="stroke-dashoffset" values="26.792" fill="freeze" begin="916a.click" /><animate attributeName="stroke-dashoffset" values="26.792;26.792;0" keyTimes="0;0.886;1" dur="2.359s" fill="freeze" begin="0s;916a.click" /></path><path d="M15.81,85.5c6.27-0.48,19-1.77,26.81-2.18" stroke-dasharray="26.901" stroke-dashoffset="26.901"><animate attributeName="stroke-dashoffset" values="26.901" fill="freeze" begin="916a.click" /><animate attributeName="stroke-dashoffset" values="26.901;26.901;0" keyTimes="0;0.898;1" dur="2.628s" fill="freeze" begin="0s;916a.click" /></path><path d="M63.28,15.25c0.07,1.12,0.02,2-0.35,3.06c-2.06,5.85-6.09,14.36-11.97,21.34" stroke-dasharray="27.696" stroke-dashoffset="27.696"><animate attributeName="stroke-dashoffset" values="27.696" fill="freeze" begin="916a.click" /><animate attributeName="stroke-dashoffset" values="27.696;27.696;0" keyTimes="0;0.905;1" dur="2.905s" fill="freeze" begin="0s;916a.click" /></path><path d="M63.06,25.57c0.31,0.04,1.67-0.12,2.53-0.35c4.04-1.09,8.71-2.18,13.04-3.34c3.56-0.96,5.29,0.2,3.77,3.85C77.95,36.43,68.5,53.25,50.29,63.46" stroke-dasharray="74.312" stroke-dashoffset="74.312"><animate attributeName="stroke-dashoffset" values="74.312" fill="freeze" begin="916a.click" /><animate attributeName="stroke-dashoffset" values="74.312;74.312;0" keyTimes="0;0.839;1" dur="3.464s" fill="freeze" begin="0s;916a.click" /></path><path d="M58.47,31.25c5.23,4.44,19.69,17.81,27.79,24.1c2.39,1.86,4.81,3.21,7.45,4.63" stroke-dasharray="45.573" stroke-dashoffset="45.573"><animate attributeName="stroke-dashoffset" values="45.573" fill="freeze" begin="916a.click" /><animate attributeName="stroke-dashoffset" values="45.573;45.573;0" keyTimes="0;0.884;1" dur="3.92s" fill="freeze" begin="0s;916a.click" /></path><path d="M54.6,67.74c0.82,0.83,1.27,1.84,1.36,3.02c0.79,4.49,1.36,8.07,1.94,13.22c0.24,2.12,0.46,4.17,0.68,5.98" stroke-dasharray="22.769" stroke-dashoffset="22.769"><animate attributeName="stroke-dashoffset" values="22.769" fill="freeze" begin="916a.click" /><animate attributeName="stroke-dashoffset" values="22.769;22.769;0" keyTimes="0;0.945;1" dur="4.148s" fill="freeze" begin="0s;916a.click" /></path><path d="M56.58,69.53c9.56-1.51,19.47-2.65,24.92-3.27c3.38-0.39,5.21-0.14,4.3,3.78c-1.02,4.38-1.74,9.35-2.92,14.95" stroke-dasharray="47.979" stroke-dashoffset="47.979"><animate attributeName="stroke-dashoffset" values="47.979" fill="freeze" begin="916a.click" /><animate attributeName="stroke-dashoffset" values="47.979;47.979;0" keyTimes="0;0.896;1" dur="4.628s" fill="freeze" begin="0s;916a.click" /></path><path d="M59.49,88.62c3.93-0.47,13.34-1.45,20.54-2.08c1.83-0.16,3.35-0.27,4.88-0.27" stroke-dasharray="25.536" stroke-dashoffset="25.536"><animate attributeName="stroke-dashoffset" values="25.536" fill="freeze" begin="916a.click" /><animate attributeName="stroke-dashoffset" values="25.536;25.536;0" keyTimes="0;0.948;1" dur="4.883s" fill="freeze" begin="0s;916a.click" /></path></g></svg>