<svg xmlns="http://www.w3.org/2000/svg" viewBox="0 0 109 109" id="9283"><g fill="none" stroke="#666" stroke-width="6" stroke-linecap="round" stroke-linejoin="round"><g><g><path d="M29,18.99c0,1.02-0.04,1.71-0.36,2.68c-1.69,5.17-10,18.84-17.17,24.98" /><path d="M30.77,24.19c4.33,1.76,9.87,6.46,11.98,10.9" /><path d="M19.5,43.65C20.75,44,21.83,44,23,43.88c3.92-0.41,8.92-1.74,13.63-2.49c1.07-0.17,2.04-0.2,3.12-0.2" /><path d="M12.34,56.1c1.46,0.78,4.34,0.56,5.91,0.37c6.05-0.75,15.56-2.63,21.79-3.55c0.74-0.11,2.09-0.29,3.49-0.1" /><path d="M27.7,45.55c0.82,0.82,1.24,1.7,1.24,3.07c0,4.24,0.06,29.01,0.06,35.61" /><path d="M14.64,66.53c3.63,4.38,5.41,9.13,6.15,11.68" /><path d="M41.43,62.45c0.32,0.79,0.45,2.02,0.11,2.6c-1.79,3.07-2.82,4.84-6.37,9.86" /><path d="M13.5,89.04c1.12,0.96,2.47,1.14,4,0.46c4.25-1.88,10-4.25,23.75-10.22" /></g><g p4:phon="充" xmlns:p4="http://kanjivg.tagaini.net"><g><g><path d="M68.33,17.49c1.09,1.09,1.46,2.38,1.46,3.84c0,3.57-0.04,5.21-0.04,9.66" /><path d="M48.85,33.81c2.5,0.17,4.65,0.37,7.15-0.04c9.25-1.51,23.13-2.92,32.13-3.58c1.99-0.15,4.09-0.47,6.02,0.23" /></g><g><g><path d="M68.09,35.85c0.28,1.03,0.06,1.93-0.6,2.77C62.88,44.5,59,48.12,53.76,52.83c-1.87,1.67-1.93,3.33,0.9,2.85c6.89-1.17,18.93-4.29,28.51-6.25" /><path d="M78,42.88c3.59,2.35,9.28,9.66,10.18,13.31" /></g></g></g><g><g><g><g><path d="M61.36,58.27c0.68,0.68,0.71,2.09,0.64,3.28c-0.5,7.95-8.75,24.95-20.88,32.18" /></g><g><path d="M73.39,54.81c0.84,0.84,1.34,2.44,1.34,3.88c0,8.56-0.07,20.61-0.07,26.43c0,8.02,1.09,9.55,10.51,9.55c9.33,0,10.5-1.16,10.5-8.78" /></g></g></g></g></g></g></g><g fill="none" stroke="#000" stroke-width="3" stroke-linecap="round" stroke-linejoin="round"><path d="M29,18.99c0,1.02-0.04,1.71-0.36,2.68c-1.69,5.17-10,18.84-17.17,24.98" stroke-dasharray="33.256" stroke-dashoffset="33.256"><animate attributeName="stroke-dashoffset" values="33.256;33.256;0" dur="0.333s" fill="freeze" begin="0s;9283.click" /></path><path d="M30.77,24.19c4.33,1.76,9.87,6.46,11.98,10.9" stroke-dasharray="16.495" stroke-dashoffset="16.495"><animate attributeName="stroke-dashoffset" values="16.495" fill="freeze" begin="9283.click" /><animate attributeName="stroke-dashoffset" values="16.495;16.495;0" keyTimes="0;0.669;1" dur="0.498s" fill="freeze" begin="0s;9283.click" /></path><path d="M19.5,43.65C20.75,44,21.83,44,23,43.88c3.92-0.41,8.92-1.74,13.63-2.49c1.07-0.17,2.04-0.2,3.12-0.2" stroke-dasharray="20.521" stroke-dashoffset="20.521"><animate attributeName="stroke-dashoffset" values="20.521" fill="freeze" begin="9283.click" /><animate attributeName="stroke-dashoffset" values="20.521;20.521;0" keyTimes="0;0.708;1" dur="0.703s" fill="freeze" begin="0s;9283.click" /></path><path d="M12.34,56.1c1.46,0.78,4.34,0.56,5.91,0.37c6.05-0.75,15.56-2.63,21.79-3.55c0.74-0.11,2.09-0.29,3.49-0.1" stroke-dasharray="31.577" stroke-dashoffset="31.577"><animate attributeName="stroke-dashoffset" values="31.577" fill="freeze" begin="9283.click" /><animate attributeName="stroke-dashoffset" values="31.577;31.577;0" keyTimes="0;0.69;1" dur="1.019s" fill="freeze" begin="0s;9283.click" /></path><path d="M27.7,45.55c0.82,0.82,1.24,1.7,1.24,3.07c0,4.24,0.06,29.01,0.06,35.61" stroke-dasharray="39.023" stroke-dashoffset="39.023"><animate attributeName="stroke-dashoffset" values="39.023" fill="freeze" begin="9283.click" /><animate attributeName="stroke-dashoffset" values="39.023;39.023;0" keyTimes="0;0.723;1" dur="1.409s" fill="freeze" begin="0s;9283.click" /></path><path d="M14.64,66.53c3.63,4.38,5.41,9.13,6.15,11.68" stroke-dasharray="13.29" stroke-dashoffset="13.29"><animate attributeName="stroke-dashoffset" values="13.29" fill="freeze" begin="9283.click" /><animate attributeName="stroke-dashoffset" values="13.29;13.29;0" keyTimes="0;0.841;1" dur="1.675s" fill="freeze" begin="0s;9283.click" /></path><path d="M41.43,62.45c0.32,0.79,0.45,2.02,0.11,2.6c-1.79,3.07-2.82,4.84-6.37,9.86" stroke-dasharray="14.415" stroke-dashoffset="14.415"><animate attributeName="stroke-dashoffset" values="14.415" fill="freeze" begin="9283.click" /><animate attributeName="stroke-dashoffset" values="14.415;14.415;0" keyTimes="0;0.853;1" dur="1.963s" fill="freeze" begin="0s;9283.click" /></path><path d="M13.5,89.04c1.12,0.96,2.47,1.14,4,0.46c4.25-1.88,10-4.25,23.75-10.22" stroke-dasharray="30.132" stroke-dashoffset="30.132"><animate attributeName="stroke-dashoffset" values="30.132" fill="freeze" begin="9283.click" /><animate attributeName="stroke-dashoffset" values="30.132;30.132;0" keyTimes="0;0.867;1" dur="2.264s" fill="freeze" begin="0s;9283.click" /></path><path d="M68.33,17.49c1.09,1.09,1.46,2.38,1.46,3.84c0,3.57-0.04,5.21-0.04,9.66" stroke-dasharray="13.887" stroke-dashoffset="13.887"><animate attributeName="stroke-dashoffset" values="13.887" fill="freeze" begin="9283.click" /><animate attributeName="stroke-dashoffset" values="13.887;13.887;0" keyTimes="0;0.891;1" dur="2.542s" fill="freeze" begin="0s;9283.click" /></path><path d="M48.85,33.81c2.5,0.17,4.65,0.37,7.15-0.04c9.25-1.51,23.13-2.92,32.13-3.58c1.99-0.15,4.09-0.47,6.02,0.23" stroke-dasharray="45.582" stroke-dashoffset="45.582"><animate attributeName="stroke-dashoffset" values="45.582" fill="freeze" begin="9283.click" /><animate attributeName="stroke-dashoffset" values="45.582;45.582;0" keyTimes="0;0.848;1" dur="2.998s" fill="freeze" begin="0s;9283.click" /></path><path d="M68.09,35.85c0.28,1.03,0.06,1.93-0.6,2.77C62.88,44.5,59,48.12,53.76,52.83c-1.87,1.67-1.93,3.33,0.9,2.85c6.89-1.17,18.93-4.29,28.51-6.25" stroke-dasharray="57.138" stroke-dashoffset="57.138"><animate attributeName="stroke-dashoffset" values="57.138" fill="freeze" begin="9283.click" /><animate attributeName="stroke-dashoffset" values="57.138;57.138;0" keyTimes="0;0.84;1" dur="3.569s" fill="freeze" begin="0s;9283.click" /></path><path d="M78,42.88c3.59,2.35,9.28,9.66,10.18,13.31" stroke-dasharray="16.98" stroke-dashoffset="16.98"><animate attributeName="stroke-dashoffset" values="16.98" fill="freeze" begin="9283.click" /><animate attributeName="stroke-dashoffset" values="16.98;16.98;0" keyTimes="0;0.955;1" dur="3.739s" fill="freeze" begin="0s;9283.click" /></path><path d="M61.36,58.27c0.68,0.68,0.71,2.09,0.64,3.28c-0.5,7.95-8.75,24.95-20.88,32.18" stroke-dasharray="42.899" stroke-dashoffset="42.899"><animate attributeName="stroke-dashoffset" values="42.899" fill="freeze" begin="9283.click" /><animate attributeName="stroke-dashoffset" values="42.899;42.899;0" keyTimes="0;0.897;1" dur="4.168s" fill="freeze" begin="0s;9283.click" /></path><path d="M73.39,54.81c0.84,0.84,1.34,2.44,1.34,3.88c0,8.56-0.07,20.61-0.07,26.43c0,8.02,1.09,9.55,10.51,9.55c9.33,0,10.5-1.16,10.5-8.78" stroke-dasharray="64.673" stroke-dashoffset="64.673"><animate attributeName="stroke-dashoffset" values="64.673" fill="freeze" begin="9283.click" /><animate attributeName="stroke-dashoffset" values="64.673;64.673;0" keyTimes="0;0.896;1" dur="4.654s" fill="freeze" begin="0s;9283.click" /></path></g></svg>