<svg xmlns="http://www.w3.org/2000/svg" viewBox="0 0 109 109" id="945e"><g fill="none" stroke="#666" stroke-width="6" stroke-linecap="round" stroke-linejoin="round"><g><g><path d="M29.75,15.24c0,0.78,0.05,1.4-0.16,2.33c-1.09,4.87-11.48,21.1-20.37,28.3" /><path d="M29.89,22.49c3.93,1.78,8.95,6.52,10.86,11.01" /><path d="M17.5,42.5c1.5,0,2.18,0.09,2.67,0.06C24.5,42.24,31,40.53,36.1,40.3c0.74-0.03,0.9-0.05,2.15-0.05" /><path d="M12.09,56.81c0.59,0.33,2.56,0.48,3.17,0.43c5.49-0.49,14.74-3.49,21.78-3.67c0.75-0.02,2.38-0.13,3.49,0.15" /><path d="M25.95,43.69c1.24,0.78,1.24,2.52,1.24,3.14c0,4.35,0.31,35.17,0.31,40.48" /><path d="M14.14,66.51c3.34,5.32,4.97,11.08,5.65,14.19" /><path d="M39.2,62.55c0.3,0.84,0.46,2.06,0.34,2.76c-0.3,1.81-2.71,5.13-6.12,10.47" /><path d="M12.5,93.92c1.17,1.12,2.58,0.84,4.23,0.28c1.22-0.42,10.57-6.46,22.77-13.2" /></g><g><g><path d="M56.05,13c0.1,0.59,0.01,1.01-0.23,1.49c-1.62,3.2-3.71,7.48-7.8,10.87c-0.67,0.55-0.31,0.47,0,0.62c4.42,2.23,7.91,4.76,10.44,7.46" /><path d="M72.04,11.85c0.38,0.63-0.02,1.5-0.34,1.92c-1.64,2.19-2.96,4.98-7.88,9.51c-0.4,0.37-0.22,0.43,0.2,0.61c4.89,2.13,6.72,4.36,8.96,7.7" /><path d="M87.86,10.71c0.31,0.44,0.28,0.93,0.14,1.36c-0.77,2.42-3.12,5.92-8.18,9.62c-0.44,0.32-0.14,0.34,0.2,0.61c3.98,3.2,6.23,5.2,7.99,9.07" /></g><path d="M48.82,37.12c0.17,0.27,0.47,0.92,0.57,1.26c0.79,2.8,1.82,10.6,2.31,15.82" /><path d="M49.34,38.2c6.1-0.7,35.67-2.9,40.22-3.49c1.67-0.22,2.53,0.55,2.45,1.32c-0.32,2.82-2.6,11.74-3.37,16.46" /><g><g><path d="M78.67,38.51c0.06,0.27,0.12,0.69-0.11,1.08c-1.32,2.27-8.89,7.26-19.25,10.31" /></g><path d="M63.42,40.34c6.29,1.33,16.25,5.46,17.83,7.53" /></g><path d="M51.72,52.95c4.39-0.3,29.97-2.47,36.92-2.61" /><path d="M48.37,57.07c0.71,0.38,1.14,1.73,1.28,2.5c0.13,0.7-0.08,27.5-0.08,34.31c0,1.81,0.87,1.73,1.69,1.14c2.88-2.06,7.13-5.22,11.94-7.93" /><path d="M56.21,61.1c2.31,0.98,5.98,4.03,6.56,5.55" /><path d="M55.54,74.63c2.31,1.11,5.98,4.57,6.56,6.3" /><path d="M67.84,56.97c0.71,0.38,1.13,1.73,1.28,2.5c0.13,0.7-0.08,28.01-0.08,34.82c0,1.81,0.87,1.73,1.69,1.14c2.88-2.06,9.24-7.47,12.44-9.35" /><path d="M76.09,61.18c2.23,1.16,5.75,4.76,6.31,6.55" /><path d="M76.05,75.67c2.18,1.11,5.64,4.55,6.18,6.27" /><path d="M86.41,55.75c0.69,0.86,1.04,1.09,1.11,2.93c0.51,12.71,1.47,29.57,9.79,36.5c3.87,3.23,3.53,1.37,2.93-7.2" /></g></g></g><g fill="none" stroke="#000" stroke-width="3" stroke-linecap="round" stroke-linejoin="round"><path d="M29.75,15.24c0,0.78,0.05,1.4-0.16,2.33c-1.09,4.87-11.48,21.1-20.37,28.3" stroke-dasharray="37.531" stroke-dashoffset="37.531"><animate attributeName="stroke-dashoffset" values="37.531;37.531;0" dur="0.375s" fill="freeze" begin="0s;945e.click" /></path><path d="M29.89,22.49c3.93,1.78,8.95,6.52,10.86,11.01" stroke-dasharray="15.752" stroke-dashoffset="15.752"><animate attributeName="stroke-dashoffset" values="15.752" fill="freeze" begin="945e.click" /><animate attributeName="stroke-dashoffset" values="15.752;15.752;0" keyTimes="0;0.704;1" dur="0.533s" fill="freeze" begin="0s;945e.click" /></path><path d="M17.5,42.5c1.5,0,2.18,0.09,2.67,0.06C24.5,42.24,31,40.53,36.1,40.3c0.74-0.03,0.9-0.05,2.15-0.05" stroke-dasharray="20.922" stroke-dashoffset="20.922"><animate attributeName="stroke-dashoffset" values="20.922" fill="freeze" begin="945e.click" /><animate attributeName="stroke-dashoffset" values="20.922;20.922;0" keyTimes="0;0.718;1" dur="0.742s" fill="freeze" begin="0s;945e.click" /></path><path d="M12.09,56.81c0.59,0.33,2.56,0.48,3.17,0.43c5.49-0.49,14.74-3.49,21.78-3.67c0.75-0.02,2.38-0.13,3.49,0.15" stroke-dasharray="28.839" stroke-dashoffset="28.839"><animate attributeName="stroke-dashoffset" values="28.839" fill="freeze" begin="945e.click" /><animate attributeName="stroke-dashoffset" values="28.839;28.839;0" keyTimes="0;0.72;1" dur="1.03s" fill="freeze" begin="0s;945e.click" /></path><path d="M25.95,43.69c1.24,0.78,1.24,2.52,1.24,3.14c0,4.35,0.31,35.17,0.31,40.48" stroke-dasharray="44.012" stroke-dashoffset="44.012"><animate attributeName="stroke-dashoffset" values="44.012" fill="freeze" begin="945e.click" /><animate attributeName="stroke-dashoffset" values="44.012;44.012;0" keyTimes="0;0.701;1" dur="1.47s" fill="freeze" begin="0s;945e.click" /></path><path d="M14.14,66.51c3.34,5.32,4.97,11.08,5.65,14.19" stroke-dasharray="15.347" stroke-dashoffset="15.347"><animate attributeName="stroke-dashoffset" values="15.347" fill="freeze" begin="945e.click" /><animate attributeName="stroke-dashoffset" values="15.347;15.347;0" keyTimes="0;0.906;1" dur="1.623s" fill="freeze" begin="0s;945e.click" /></path><path d="M39.2,62.55c0.3,0.84,0.46,2.06,0.34,2.76c-0.3,1.81-2.71,5.13-6.12,10.47" stroke-dasharray="14.975" stroke-dashoffset="14.975"><animate attributeName="stroke-dashoffset" values="14.975" fill="freeze" begin="945e.click" /><animate attributeName="stroke-dashoffset" values="14.975;14.975;0" keyTimes="0;0.844;1" dur="1.922s" fill="freeze" begin="0s;945e.click" /></path><path d="M12.5,93.92c1.17,1.12,2.58,0.84,4.23,0.28c1.22-0.42,10.57-6.46,22.77-13.2" stroke-dasharray="30.82" stroke-dashoffset="30.82"><animate attributeName="stroke-dashoffset" values="30.82" fill="freeze" begin="945e.click" /><animate attributeName="stroke-dashoffset" values="30.82;30.82;0" keyTimes="0;0.862;1" dur="2.23s" fill="freeze" begin="0s;945e.click" /></path><path d="M56.05,13c0.1,0.59,0.01,1.01-0.23,1.49c-1.62,3.2-3.71,7.48-7.8,10.87c-0.67,0.55-0.31,0.47,0,0.62c4.42,2.23,7.91,4.76,10.44,7.46" stroke-dasharray="28.943" stroke-dashoffset="28.943"><animate attributeName="stroke-dashoffset" values="28.943" fill="freeze" begin="945e.click" /><animate attributeName="stroke-dashoffset" values="28.943;28.943;0" keyTimes="0;0.885;1" dur="2.519s" fill="freeze" begin="0s;945e.click" /></path><path d="M72.04,11.85c0.38,0.63-0.02,1.5-0.34,1.92c-1.64,2.19-2.96,4.98-7.88,9.51c-0.4,0.37-0.22,0.43,0.2,0.61c4.89,2.13,6.72,4.36,8.96,7.7" stroke-dasharray="27.408" stroke-dashoffset="27.408"><animate attributeName="stroke-dashoffset" values="27.408" fill="freeze" begin="945e.click" /><animate attributeName="stroke-dashoffset" values="27.408;27.408;0" keyTimes="0;0.902;1" dur="2.793s" fill="freeze" begin="0s;945e.click" /></path><path d="M87.86,10.71c0.31,0.44,0.28,0.93,0.14,1.36c-0.77,2.42-3.12,5.92-8.18,9.62c-0.44,0.32-0.14,0.34,0.2,0.61c3.98,3.2,6.23,5.2,7.99,9.07" stroke-dasharray="27.369" stroke-dashoffset="27.369"><animate attributeName="stroke-dashoffset" values="27.369" fill="freeze" begin="945e.click" /><animate attributeName="stroke-dashoffset" values="27.369;27.369;0" keyTimes="0;0.911;1" dur="3.067s" fill="freeze" begin="0s;945e.click" /></path><path d="M48.82,37.12c0.17,0.27,0.47,0.92,0.57,1.26c0.79,2.8,1.82,10.6,2.31,15.82" stroke-dasharray="17.386" stroke-dashoffset="17.386"><animate attributeName="stroke-dashoffset" values="17.386" fill="freeze" begin="945e.click" /><animate attributeName="stroke-dashoffset" values="17.386;17.386;0" keyTimes="0;0.946;1" dur="3.241s" fill="freeze" begin="0s;945e.click" /></path><path d="M49.34,38.2c6.1-0.7,35.67-2.9,40.22-3.49c1.67-0.22,2.53,0.55,2.45,1.32c-0.32,2.82-2.6,11.74-3.37,16.46" stroke-dasharray="60.361" stroke-dashoffset="60.361"><animate attributeName="stroke-dashoffset" values="60.361" fill="freeze" begin="945e.click" /><animate attributeName="stroke-dashoffset" values="60.361;60.361;0" keyTimes="0;0.877;1" dur="3.695s" fill="freeze" begin="0s;945e.click" /></path><path d="M78.67,38.51c0.06,0.27,0.12,0.69-0.11,1.08c-1.32,2.27-8.89,7.26-19.25,10.31" stroke-dasharray="23.221" stroke-dashoffset="23.221"><animate attributeName="stroke-dashoffset" values="23.221" fill="freeze" begin="945e.click" /><animate attributeName="stroke-dashoffset" values="23.221;23.221;0" keyTimes="0;0.941;1" dur="3.927s" fill="freeze" begin="0s;945e.click" /></path><path d="M63.42,40.34c6.29,1.33,16.25,5.46,17.83,7.53" stroke-dasharray="19.517" stroke-dashoffset="19.517"><animate attributeName="stroke-dashoffset" values="19.517" fill="freeze" begin="945e.click" /><animate attributeName="stroke-dashoffset" values="19.517;19.517;0" keyTimes="0;0.953;1" dur="4.122s" fill="freeze" begin="0s;945e.click" /></path><path d="M51.72,52.95c4.39-0.3,29.97-2.47,36.92-2.61" stroke-dasharray="37.016" stroke-dashoffset="37.016"><animate attributeName="stroke-dashoffset" values="37.016" fill="freeze" begin="945e.click" /><animate attributeName="stroke-dashoffset" values="37.016;37.016;0" keyTimes="0;0.918;1" dur="4.492s" fill="freeze" begin="0s;945e.click" /></path><path d="M48.37,57.07c0.71,0.38,1.14,1.73,1.28,2.5c0.13,0.7-0.08,27.5-0.08,34.31c0,1.81,0.87,1.73,1.69,1.14c2.88-2.06,7.13-5.22,11.94-7.93" stroke-dasharray="54.433" stroke-dashoffset="54.433"><animate attributeName="stroke-dashoffset" values="54.433" fill="freeze" begin="945e.click" /><animate attributeName="stroke-dashoffset" values="54.433;54.433;0" keyTimes="0;0.892;1" dur="5.036s" fill="freeze" begin="0s;945e.click" /></path><path d="M56.21,61.1c2.31,0.98,5.98,4.03,6.56,5.55" stroke-dasharray="8.716" stroke-dashoffset="8.716"><animate attributeName="stroke-dashoffset" values="8.716" fill="freeze" begin="945e.click" /><animate attributeName="stroke-dashoffset" values="8.716;8.716;0" keyTimes="0;0.967;1" dur="5.21s" fill="freeze" begin="0s;945e.click" /></path><path d="M55.54,74.63c2.31,1.11,5.98,4.57,6.56,6.3" stroke-dasharray="9.228" stroke-dashoffset="9.228"><animate attributeName="stroke-dashoffset" values="9.228" fill="freeze" begin="945e.click" /><animate attributeName="stroke-dashoffset" values="9.228;9.228;0" keyTimes="0;0.966;1" dur="5.395s" fill="freeze" begin="0s;945e.click" /></path><path d="M67.84,56.97c0.71,0.38,1.13,1.73,1.28,2.5c0.13,0.7-0.08,28.01-0.08,34.82c0,1.81,0.87,1.73,1.69,1.14c2.88-2.06,9.24-7.47,12.44-9.35" stroke-dasharray="56.169" stroke-dashoffset="56.169"><animate attributeName="stroke-dashoffset" values="56.169" fill="freeze" begin="945e.click" /><animate attributeName="stroke-dashoffset" values="56.169;56.169;0" keyTimes="0;0.906;1" dur="5.957s" fill="freeze" begin="0s;945e.click" /></path><path d="M76.09,61.18c2.23,1.16,5.75,4.76,6.31,6.55" stroke-dasharray="9.226" stroke-dashoffset="9.226"><animate attributeName="stroke-dashoffset" values="9.226" fill="freeze" begin="945e.click" /><animate attributeName="stroke-dashoffset" values="9.226;9.226;0" keyTimes="0;0.97;1" dur="6.142s" fill="freeze" begin="0s;945e.click" /></path><path d="M76.05,75.67c2.18,1.11,5.64,4.55,6.18,6.27" stroke-dasharray="8.933" stroke-dashoffset="8.933"><animate attributeName="stroke-dashoffset" values="8.933" fill="freeze" begin="945e.click" /><animate attributeName="stroke-dashoffset" values="8.933;8.933;0" keyTimes="0;0.972;1" dur="6.321s" fill="freeze" begin="0s;945e.click" /></path><path d="M86.41,55.75c0.69,0.86,1.04,1.09,1.11,2.93c0.51,12.71,1.47,29.57,9.79,36.5c3.87,3.23,3.53,1.37,2.93-7.2" stroke-dasharray="53.978" stroke-dashoffset="53.978"><animate attributeName="stroke-dashoffset" values="53.978" fill="freeze" begin="945e.click" /><animate attributeName="stroke-dashoffset" values="53.978;53.978;0" keyTimes="0;0.921;1" dur="6.861s" fill="freeze" begin="0s;945e.click" /></path></g></svg>