<svg xmlns="http://www.w3.org/2000/svg" viewBox="0 0 109 109" id="9460"><g fill="none" stroke="#666" stroke-width="6" stroke-linecap="round" stroke-linejoin="round"><g><g><path d="M26.75,16.24c0,0.78,0.05,1.4-0.14,2.33c-1,4.87-10.5,21.1-18.63,28.3" /><path d="M27.89,21.21c3.75,1.79,8.54,6.53,10.36,11.04" /><path d="M17,40.91c1.48,0,2.15,0.15,2.63,0.09c4.28-0.51,9.21-2.5,14.25-2.86c0.73-0.05,0.88-0.09,2.12-0.09" /><path d="M11.09,55.81c0.59,0.33,2.56,0.48,3.17,0.43c5.49-0.49,14.74-1.99,20.28-3.17c0.73-0.15,2.38-0.13,3.49,0.15" /><path d="M25.45,43.19c1.24,0.78,1.24,2.52,1.24,3.14c0,4.35,0.12,34.63-0.19,38.98" /><path d="M12.14,66.51c3.63,5.32,5.41,11.08,6.15,14.19" /><path d="M38.17,60.55c0.33,0.79,0.5,1.94,0.37,2.61c-0.33,1.71-2.93,4.84-6.62,9.87" /><path d="M10.5,91.29c1.21,0.94,2.65,0.7,4.34,0.24c1.25-0.35,10.86-5.4,23.41-11.03" /></g><g><g><g><g><path d="M68.4,12.5c0.17,0.37,0.2,0.83,0.16,1.15c-0.24,1.91-2.36,6.48-4.29,9.04" /></g><g><path d="M60.47,24.06c0.34,0.69,1.31,2.01,1.31,2.9c0,0.89,1.12,20.05,1.22,24.46" /><path d="M61.58,25.14c1.33-0.11,10.27-2.41,11.47-2.54c1.01-0.11,1.74,0.77,1.58,1.41C74,26.5,74.43,43.28,74.3,50.42" /><path d="M62.33,35.64c1.79,0,9.57-1.1,11.6-1.1" /><path d="M63.39,49.19c2.65,0,6.78-0.44,10.21-0.44" /></g></g><g><path d="M52.05,17.12c0.19,0.93,0.37,1.72-0.1,2.65c-2.03,4.05-5.42,9.96-7.36,12.14c-0.4,0.45-0.38,2.16,0,2.33c2.03,0.93,4.93,1.95,7.6,3.35" /><path d="M56.62,27.47c0.19,0.44,0.26,1.86,0,2.32c-3.79,6.8-7.79,12.88-13.23,20.33c-0.67,0.92-0.39,1.91,0.39,1.62c3.24-1.21,8.73-2.77,12.89-3.93" /><path d="M54.53,42.68c1.16,1.57,3,6.44,3.29,8.88" /></g><g><path d="M87.5,16.12c0.19,0.86,0.37,1.59-0.1,2.44c-2.03,3.73-4.91,9.69-6.84,11.7c-0.4,0.41,0.1,1.53,0.5,1.65c2.69,0.84,5.45,1.3,7.19,2.88" /><path d="M94.92,22.94c0.21,0.41,0.24,1.74,0,2.19c-2.92,5.62-8.33,15.49-13.6,22.66c-0.66,0.9-0.41,1.82,0.41,1.55c3.44-1.14,8.55-3.1,12.97-4.2" /><path d="M92.45,41.12c1.7,1.67,4.4,6.85,4.83,9.44" /></g></g><g><path d="M44.78,66.63c0.75,0.2,2.76,0.82,4.75,0.6c8.95-1.03,28.67-2.93,42.42-3.93c1.99-0.15,2.5-0.2,3.75,0" /><path d="M67.9,55.5c0.76,0.28,1.21,1.24,1.37,1.79c0.15,0.55,0,38.77-0.15,42.21" /><path d="M67.38,65.75C62.71,75.39,52.5,86,39.59,92.25" /><path d="M69.21,65.61c5.18,6.71,16.97,18.82,24.45,23.82c1.48,0.99,2.54,1.72,3.91,2.07" /></g></g></g></g><g fill="none" stroke="#000" stroke-width="3" stroke-linecap="round" stroke-linejoin="round"><path d="M26.75,16.24c0,0.78,0.05,1.4-0.14,2.33c-1,4.87-10.5,21.1-18.63,28.3" stroke-dasharray="36.513" stroke-dashoffset="36.513"><animate attributeName="stroke-dashoffset" values="36.513;36.513;0" dur="0.365s" fill="freeze" begin="0s;9460.click" /></path><path d="M27.89,21.21c3.75,1.79,8.54,6.53,10.36,11.04" stroke-dasharray="15.421" stroke-dashoffset="15.421"><animate attributeName="stroke-dashoffset" values="15.421" fill="freeze" begin="9460.click" /><animate attributeName="stroke-dashoffset" values="15.421;15.421;0" keyTimes="0;0.703;1" dur="0.519s" fill="freeze" begin="0s;9460.click" /></path><path d="M17,40.91c1.48,0,2.15,0.15,2.63,0.09c4.28-0.51,9.21-2.5,14.25-2.86c0.73-0.05,0.88-0.09,2.12-0.09" stroke-dasharray="19.308" stroke-dashoffset="19.308"><animate attributeName="stroke-dashoffset" values="19.308" fill="freeze" begin="9460.click" /><animate attributeName="stroke-dashoffset" values="19.308;19.308;0" keyTimes="0;0.729;1" dur="0.712s" fill="freeze" begin="0s;9460.click" /></path><path d="M11.09,55.81c0.59,0.33,2.56,0.48,3.17,0.43c5.49-0.49,14.74-1.99,20.28-3.17c0.73-0.15,2.38-0.13,3.49,0.15" stroke-dasharray="27.271" stroke-dashoffset="27.271"><animate attributeName="stroke-dashoffset" values="27.271" fill="freeze" begin="9460.click" /><animate attributeName="stroke-dashoffset" values="27.271;27.271;0" keyTimes="0;0.723;1" dur="0.985s" fill="freeze" begin="0s;9460.click" /></path><path d="M25.45,43.19c1.24,0.78,1.24,2.52,1.24,3.14c0,4.35,0.12,34.63-0.19,38.98" stroke-dasharray="42.514" stroke-dashoffset="42.514"><animate attributeName="stroke-dashoffset" values="42.514" fill="freeze" begin="9460.click" /><animate attributeName="stroke-dashoffset" values="42.514;42.514;0" keyTimes="0;0.699;1" dur="1.41s" fill="freeze" begin="0s;9460.click" /></path><path d="M12.14,66.51c3.63,5.32,5.41,11.08,6.15,14.19" stroke-dasharray="15.548" stroke-dashoffset="15.548"><animate attributeName="stroke-dashoffset" values="15.548" fill="freeze" begin="9460.click" /><animate attributeName="stroke-dashoffset" values="15.548;15.548;0" keyTimes="0;0.901;1" dur="1.565s" fill="freeze" begin="0s;9460.click" /></path><path d="M38.17,60.55c0.33,0.79,0.5,1.94,0.37,2.61c-0.33,1.71-2.93,4.84-6.62,9.87" stroke-dasharray="14.598" stroke-dashoffset="14.598"><animate attributeName="stroke-dashoffset" values="14.598" fill="freeze" begin="9460.click" /><animate attributeName="stroke-dashoffset" values="14.598;14.598;0" keyTimes="0;0.843;1" dur="1.857s" fill="freeze" begin="0s;9460.click" /></path><path d="M10.5,91.29c1.21,0.94,2.65,0.7,4.34,0.24c1.25-0.35,10.86-5.4,23.41-11.03" stroke-dasharray="30.407" stroke-dashoffset="30.407"><animate attributeName="stroke-dashoffset" values="30.407" fill="freeze" begin="9460.click" /><animate attributeName="stroke-dashoffset" values="30.407;30.407;0" keyTimes="0;0.859;1" dur="2.161s" fill="freeze" begin="0s;9460.click" /></path><path d="M68.4,12.5c0.17,0.37,0.2,0.83,0.16,1.15c-0.24,1.91-2.36,6.48-4.29,9.04" stroke-dasharray="11.249" stroke-dashoffset="11.249"><animate attributeName="stroke-dashoffset" values="11.249" fill="freeze" begin="9460.click" /><animate attributeName="stroke-dashoffset" values="11.249;11.249;0" keyTimes="0;0.906;1" dur="2.386s" fill="freeze" begin="0s;9460.click" /></path><path d="M60.47,24.06c0.34,0.69,1.31,2.01,1.31,2.9c0,0.89,1.12,20.05,1.22,24.46" stroke-dasharray="27.703" stroke-dashoffset="27.703"><animate attributeName="stroke-dashoffset" values="27.703" fill="freeze" begin="9460.click" /><animate attributeName="stroke-dashoffset" values="27.703;27.703;0" keyTimes="0;0.896;1" dur="2.663s" fill="freeze" begin="0s;9460.click" /></path><path d="M61.58,25.14c1.33-0.11,10.27-2.41,11.47-2.54c1.01-0.11,1.74,0.77,1.58,1.41C74,26.5,74.43,43.28,74.3,50.42" stroke-dasharray="40.615" stroke-dashoffset="40.615"><animate attributeName="stroke-dashoffset" values="40.615" fill="freeze" begin="9460.click" /><animate attributeName="stroke-dashoffset" values="40.615;40.615;0" keyTimes="0;0.868;1" dur="3.069s" fill="freeze" begin="0s;9460.click" /></path><path d="M62.33,35.64c1.79,0,9.57-1.1,11.6-1.1" stroke-dasharray="11.656" stroke-dashoffset="11.656"><animate attributeName="stroke-dashoffset" values="11.656" fill="freeze" begin="9460.click" /><animate attributeName="stroke-dashoffset" values="11.656;11.656;0" keyTimes="0;0.929;1" dur="3.302s" fill="freeze" begin="0s;9460.click" /></path><path d="M63.39,49.19c2.65,0,6.78-0.44,10.21-0.44" stroke-dasharray="10.222" stroke-dashoffset="10.222"><animate attributeName="stroke-dashoffset" values="10.222" fill="freeze" begin="9460.click" /><animate attributeName="stroke-dashoffset" values="10.222;10.222;0" keyTimes="0;0.942;1" dur="3.506s" fill="freeze" begin="0s;9460.click" /></path><path d="M52.05,17.12c0.19,0.93,0.37,1.72-0.1,2.65c-2.03,4.05-5.42,9.96-7.36,12.14c-0.4,0.45-0.38,2.16,0,2.33c2.03,0.93,4.93,1.95,7.6,3.35" stroke-dasharray="27.707" stroke-dashoffset="27.707"><animate attributeName="stroke-dashoffset" values="27.707" fill="freeze" begin="9460.click" /><animate attributeName="stroke-dashoffset" values="27.707;27.707;0" keyTimes="0;0.927;1" dur="3.783s" fill="freeze" begin="0s;9460.click" /></path><path d="M56.62,27.47c0.19,0.44,0.26,1.86,0,2.32c-3.79,6.8-7.79,12.88-13.23,20.33c-0.67,0.92-0.39,1.91,0.39,1.62c3.24-1.21,8.73-2.77,12.89-3.93" stroke-dasharray="42.412" stroke-dashoffset="42.412"><animate attributeName="stroke-dashoffset" values="42.412" fill="freeze" begin="9460.click" /><animate attributeName="stroke-dashoffset" values="42.412;42.412;0" keyTimes="0;0.899;1" dur="4.207s" fill="freeze" begin="0s;9460.click" /></path><path d="M54.53,42.68c1.16,1.57,3,6.44,3.29,8.88" stroke-dasharray="9.529" stroke-dashoffset="9.529"><animate attributeName="stroke-dashoffset" values="9.529" fill="freeze" begin="9460.click" /><animate attributeName="stroke-dashoffset" values="9.529;9.529;0" keyTimes="0;0.957;1" dur="4.398s" fill="freeze" begin="0s;9460.click" /></path><path d="M87.5,16.12c0.19,0.86,0.37,1.59-0.1,2.44c-2.03,3.73-4.91,9.69-6.84,11.7c-0.4,0.41,0.1,1.53,0.5,1.65c2.69,0.84,5.45,1.3,7.19,2.88" stroke-dasharray="25.811" stroke-dashoffset="25.811"><animate attributeName="stroke-dashoffset" values="25.811" fill="freeze" begin="9460.click" /><animate attributeName="stroke-dashoffset" values="25.811;25.811;0" keyTimes="0;0.945;1" dur="4.656s" fill="freeze" begin="0s;9460.click" /></path><path d="M94.92,22.94c0.21,0.41,0.24,1.74,0,2.19c-2.92,5.62-8.33,15.49-13.6,22.66c-0.66,0.9-0.41,1.82,0.41,1.55c3.44-1.14,8.55-3.1,12.97-4.2" stroke-dasharray="44.575" stroke-dashoffset="44.575"><animate attributeName="stroke-dashoffset" values="44.575" fill="freeze" begin="9460.click" /><animate attributeName="stroke-dashoffset" values="44.575;44.575;0" keyTimes="0;0.913;1" dur="5.102s" fill="freeze" begin="0s;9460.click" /></path><path d="M92.45,41.12c1.7,1.67,4.4,6.85,4.83,9.44" stroke-dasharray="10.704" stroke-dashoffset="10.704"><animate attributeName="stroke-dashoffset" values="10.704" fill="freeze" begin="9460.click" /><animate attributeName="stroke-dashoffset" values="10.704;10.704;0" keyTimes="0;0.96;1" dur="5.316s" fill="freeze" begin="0s;9460.click" /></path><path d="M44.78,66.63c0.75,0.2,2.76,0.82,4.75,0.6c8.95-1.03,28.67-2.93,42.42-3.93c1.99-0.15,2.5-0.2,3.75,0" stroke-dasharray="51.185" stroke-dashoffset="51.185"><animate attributeName="stroke-dashoffset" values="51.185" fill="freeze" begin="9460.click" /><animate attributeName="stroke-dashoffset" values="51.185;51.185;0" keyTimes="0;0.912;1" dur="5.828s" fill="freeze" begin="0s;9460.click" /></path><path d="M67.9,55.5c0.76,0.28,1.21,1.24,1.37,1.79c0.15,0.55,0,38.77-0.15,42.21" stroke-dasharray="44.542" stroke-dashoffset="44.542"><animate attributeName="stroke-dashoffset" values="44.542" fill="freeze" begin="9460.click" /><animate attributeName="stroke-dashoffset" values="44.542;44.542;0" keyTimes="0;0.929;1" dur="6.273s" fill="freeze" begin="0s;9460.click" /></path><path d="M67.38,65.75C62.71,75.39,52.5,86,39.59,92.25" stroke-dasharray="39.062" stroke-dashoffset="39.062"><animate attributeName="stroke-dashoffset" values="39.062" fill="freeze" begin="9460.click" /><animate attributeName="stroke-dashoffset" values="39.062;39.062;0" keyTimes="0;0.941;1" dur="6.664s" fill="freeze" begin="0s;9460.click" /></path><path d="M69.21,65.61c5.18,6.71,16.97,18.82,24.45,23.82c1.48,0.99,2.54,1.72,3.91,2.07" stroke-dasharray="38.683" stroke-dashoffset="38.683"><animate attributeName="stroke-dashoffset" values="38.683" fill="freeze" begin="9460.click" /><animate attributeName="stroke-dashoffset" values="38.683;38.683;0" keyTimes="0;0.945;1" dur="7.051s" fill="freeze" begin="0s;9460.click" /></path></g></svg>