<svg xmlns="http://www.w3.org/2000/svg" viewBox="0 0 109 109" id="9481"><g fill="none" stroke="#666" stroke-width="6" stroke-linecap="round" stroke-linejoin="round"><g><g><path d="M28.25,13.74c0,0.8,0.05,1.44-0.14,2.41c-1.01,5.02-10.64,21.79-18.88,29.22" /><path d="M30.39,19.21C34.25,22.25,38.75,27,41.75,31" /><path d="M17.5,41c1.5,0,2.18,0.09,2.67,0.06c4.33-0.31,11.33-2.03,16.44-2.25c0.74-0.03,0.9-0.05,2.15-0.05" /><path d="M11.59,55.31c0.59,0.33,2.56,0.48,3.17,0.43c5.49-0.49,16.99-1.99,23.28-3.17c0.73-0.14,2.38-0.13,3.49,0.15" /><path d="M26.45,41.19c1.24,0.78,1.24,2.52,1.24,3.14c0,4.35,0.62,35.13,0.31,39.48" /><path d="M14.14,65.26c3.63,5.23,5.41,10.89,6.15,13.94" /><path d="M39.29,59.55c0.23,0.88,0.35,2.17,0.26,2.92c-0.23,1.92-2.55,5.42-5.13,11.06" /><path d="M11.5,89.29c1.26,0.94,2.77,0.7,4.54,0.24c1.31-0.35,11.35-5.4,24.46-11.03" /></g><g><g><g><g><path d="M47.92,12.97c0.26,0.46,0.64,1.27,0.64,1.89S49.03,33,49.03,33.3" /><path d="M48.48,13.57c1.48-0.08,13.49-1.69,14.83-1.78c1.12-0.08,2,0.93,1.91,1.49C65.1,14,64.96,29.76,64.96,32.53" /><path d="M49.35,20c2.91-0.1,13.07-1.97,15.43-1.97" /><path d="M49.85,25.83c3.91-0.26,10.96-0.92,14.76-0.92" /><path d="M49.33,31.47c3.36-0.13,11.68-0.68,15.47-0.68" /></g><g><path d="M73.44,11.17c0.25,0.46,0.24,1.27,0.24,1.88c0,0.61,0.35,18.14,0.35,18.45" /><path d="M73.98,12.24c1.43-0.08,15.46-2.16,16.76-2.26c1.08-0.08,1.94,0.93,1.85,1.49c-0.11,0.72-0.25,16.48-0.25,19.25" /><path d="M74.84,17.84c2.82-0.1,15.04-1.45,17.33-1.45" /><path d="M74.95,24.52c3.79-0.26,13.37-1.39,17.04-1.39" /><path d="M75.33,30.14c3.25-0.13,13.18-1.16,16.86-1.16" /></g></g><g><g><g><path d="M54.57,35.36c0.1,0.68-0.03,1.56-0.34,2.14c-1.98,3.69-4.48,6.81-9.01,11.31" /><path d="M50.99,43.6c0.38,0.75,0.38,1.09,0.42,1.62c0.38,4.71,0.3,17.66,0.3,21.34" /></g><path d="M71.93,34.53c0.03,0.33-0.01,0.77-0.11,1.05c-0.66,1.81-1.5,3.22-3.01,5.43" /><path d="M51.61,43.55c7.44-0.44,38.1-3.36,41.3-3.6" /><path d="M69.71,43.07c0.67,0.32,1.21,0.77,1.21,1.33c0,5.71,0.57,10.13,0.17,19.12" /><path d="M52.23,50.32c7.02-0.37,35.15-2.47,38.16-2.67" /><path d="M51.88,56.82c7.4-0.31,36.63-1.76,39.81-1.93" /><path d="M51.88,64.96c7.44-0.44,39.81-2.99,43-3.23" /></g></g></g><g><g><path d="M51.75,72.83c1.73,0.18,1.95,0.46,5.41,0.18c3.46-0.27,19.61-2.63,21.99-2.9c2.38-0.27,2.72,1.89,1.95,2.97C72.25,85.5,55.5,96.5,41,100" /><path d="M51.45,77.39c4,0.52,23.58,14.33,37.52,19.99c2.17,0.88,3.75,1.47,5.78,1.76" /></g></g></g></g></g><g fill="none" stroke="#000" stroke-width="3" stroke-linecap="round" stroke-linejoin="round"><path d="M28.25,13.74c0,0.8,0.05,1.44-0.14,2.41c-1.01,5.02-10.64,21.79-18.88,29.22" stroke-dasharray="37.503" stroke-dashoffset="37.503"><animate attributeName="stroke-dashoffset" values="37.503;37.503;0" dur="0.375s" fill="freeze" begin="0s;9481.click" /></path><path d="M30.39,19.21C34.25,22.25,38.75,27,41.75,31" stroke-dasharray="16.413" stroke-dashoffset="16.413"><animate attributeName="stroke-dashoffset" values="16.413" fill="freeze" begin="9481.click" /><animate attributeName="stroke-dashoffset" values="16.413;16.413;0" keyTimes="0;0.696;1" dur="0.539s" fill="freeze" begin="0s;9481.click" /></path><path d="M17.5,41c1.5,0,2.18,0.09,2.67,0.06c4.33-0.31,11.33-2.03,16.44-2.25c0.74-0.03,0.9-0.05,2.15-0.05" stroke-dasharray="21.425" stroke-dashoffset="21.425"><animate attributeName="stroke-dashoffset" values="21.425" fill="freeze" begin="9481.click" /><animate attributeName="stroke-dashoffset" values="21.425;21.425;0" keyTimes="0;0.716;1" dur="0.753s" fill="freeze" begin="0s;9481.click" /></path><path d="M11.59,55.31c0.59,0.33,2.56,0.48,3.17,0.43c5.49-0.49,16.99-1.99,23.28-3.17c0.73-0.14,2.38-0.13,3.49,0.15" stroke-dasharray="30.235" stroke-dashoffset="30.235"><animate attributeName="stroke-dashoffset" values="30.235" fill="freeze" begin="9481.click" /><animate attributeName="stroke-dashoffset" values="30.235;30.235;0" keyTimes="0;0.714;1" dur="1.055s" fill="freeze" begin="0s;9481.click" /></path><path d="M26.45,41.19c1.24,0.78,1.24,2.52,1.24,3.14c0,4.35,0.62,35.13,0.31,39.48" stroke-dasharray="43.015" stroke-dashoffset="43.015"><animate attributeName="stroke-dashoffset" values="43.015" fill="freeze" begin="9481.click" /><animate attributeName="stroke-dashoffset" values="43.015;43.015;0" keyTimes="0;0.71;1" dur="1.485s" fill="freeze" begin="0s;9481.click" /></path><path d="M14.14,65.26c3.63,5.23,5.41,10.89,6.15,13.94" stroke-dasharray="15.32" stroke-dashoffset="15.32"><animate attributeName="stroke-dashoffset" values="15.32" fill="freeze" begin="9481.click" /><animate attributeName="stroke-dashoffset" values="15.32;15.32;0" keyTimes="0;0.907;1" dur="1.638s" fill="freeze" begin="0s;9481.click" /></path><path d="M39.29,59.55c0.23,0.88,0.35,2.17,0.26,2.92c-0.23,1.92-2.55,5.42-5.13,11.06" stroke-dasharray="15.165" stroke-dashoffset="15.165"><animate attributeName="stroke-dashoffset" values="15.165" fill="freeze" begin="9481.click" /><animate attributeName="stroke-dashoffset" values="15.165;15.165;0" keyTimes="0;0.915;1" dur="1.79s" fill="freeze" begin="0s;9481.click" /></path><path d="M11.5,89.29c1.26,0.94,2.77,0.7,4.54,0.24c1.31-0.35,11.35-5.4,24.46-11.03" stroke-dasharray="31.554" stroke-dashoffset="31.554"><animate attributeName="stroke-dashoffset" values="31.554" fill="freeze" begin="9481.click" /><animate attributeName="stroke-dashoffset" values="31.554;31.554;0" keyTimes="0;0.85;1" dur="2.106s" fill="freeze" begin="0s;9481.click" /></path><path d="M47.92,12.97c0.26,0.46,0.64,1.27,0.64,1.89S49.03,33,49.03,33.3" stroke-dasharray="20.461" stroke-dashoffset="20.461"><animate attributeName="stroke-dashoffset" values="20.461" fill="freeze" begin="9481.click" /><animate attributeName="stroke-dashoffset" values="20.461;20.461;0" keyTimes="0;0.911;1" dur="2.311s" fill="freeze" begin="0s;9481.click" /></path><path d="M48.48,13.57c1.48-0.08,13.49-1.69,14.83-1.78c1.12-0.08,2,0.93,1.91,1.49C65.1,14,64.96,29.76,64.96,32.53" stroke-dasharray="36.874" stroke-dashoffset="36.874"><animate attributeName="stroke-dashoffset" values="36.874" fill="freeze" begin="9481.click" /><animate attributeName="stroke-dashoffset" values="36.874;36.874;0" keyTimes="0;0.862;1" dur="2.68s" fill="freeze" begin="0s;9481.click" /></path><path d="M49.35,20c2.91-0.1,13.07-1.97,15.43-1.97" stroke-dasharray="15.562" stroke-dashoffset="15.562"><animate attributeName="stroke-dashoffset" values="15.562" fill="freeze" begin="9481.click" /><animate attributeName="stroke-dashoffset" values="15.562;15.562;0" keyTimes="0;0.945;1" dur="2.836s" fill="freeze" begin="0s;9481.click" /></path><path d="M49.85,25.83c3.91-0.26,10.96-0.92,14.76-0.92" stroke-dasharray="14.792" stroke-dashoffset="14.792"><animate attributeName="stroke-dashoffset" values="14.792" fill="freeze" begin="9481.click" /><animate attributeName="stroke-dashoffset" values="14.792;14.792;0" keyTimes="0;0.905;1" dur="3.132s" fill="freeze" begin="0s;9481.click" /></path><path d="M49.33,31.47c3.36-0.13,11.68-0.68,15.47-0.68" stroke-dasharray="15.487" stroke-dashoffset="15.487"><animate attributeName="stroke-dashoffset" values="15.487" fill="freeze" begin="9481.click" /><animate attributeName="stroke-dashoffset" values="15.487;15.487;0" keyTimes="0;0.953;1" dur="3.287s" fill="freeze" begin="0s;9481.click" /></path><path d="M73.44,11.17c0.25,0.46,0.24,1.27,0.24,1.88c0,0.61,0.35,18.14,0.35,18.45" stroke-dasharray="20.367" stroke-dashoffset="20.367"><animate attributeName="stroke-dashoffset" values="20.367" fill="freeze" begin="9481.click" /><animate attributeName="stroke-dashoffset" values="20.367;20.367;0" keyTimes="0;0.942;1" dur="3.491s" fill="freeze" begin="0s;9481.click" /></path><path d="M73.98,12.24c1.43-0.08,15.46-2.16,16.76-2.26c1.08-0.08,1.94,0.93,1.85,1.49c-0.11,0.72-0.25,16.48-0.25,19.25" stroke-dasharray="38.799" stroke-dashoffset="38.799"><animate attributeName="stroke-dashoffset" values="38.799" fill="freeze" begin="9481.click" /><animate attributeName="stroke-dashoffset" values="38.799;38.799;0" keyTimes="0;0.9;1" dur="3.879s" fill="freeze" begin="0s;9481.click" /></path><path d="M74.84,17.84c2.82-0.1,15.04-1.45,17.33-1.45" stroke-dasharray="17.394" stroke-dashoffset="17.394"><animate attributeName="stroke-dashoffset" values="17.394" fill="freeze" begin="9481.click" /><animate attributeName="stroke-dashoffset" values="17.394;17.394;0" keyTimes="0;0.957;1" dur="4.053s" fill="freeze" begin="0s;9481.click" /></path><path d="M74.95,24.52c3.79-0.26,13.37-1.39,17.04-1.39" stroke-dasharray="17.101" stroke-dashoffset="17.101"><animate attributeName="stroke-dashoffset" values="17.101" fill="freeze" begin="9481.click" /><animate attributeName="stroke-dashoffset" values="17.101;17.101;0" keyTimes="0;0.96;1" dur="4.224s" fill="freeze" begin="0s;9481.click" /></path><path d="M75.33,30.14c3.25-0.13,13.18-1.16,16.86-1.16" stroke-dasharray="16.903" stroke-dashoffset="16.903"><animate attributeName="stroke-dashoffset" values="16.903" fill="freeze" begin="9481.click" /><animate attributeName="stroke-dashoffset" values="16.903;16.903;0" keyTimes="0;0.962;1" dur="4.393s" fill="freeze" begin="0s;9481.click" /></path><path d="M54.57,35.36c0.1,0.68-0.03,1.56-0.34,2.14c-1.98,3.69-4.48,6.81-9.01,11.31" stroke-dasharray="16.717" stroke-dashoffset="16.717"><animate attributeName="stroke-dashoffset" values="16.717" fill="freeze" begin="9481.click" /><animate attributeName="stroke-dashoffset" values="16.717;16.717;0" keyTimes="0;0.963;1" dur="4.56s" fill="freeze" begin="0s;9481.click" /></path><path d="M50.99,43.6c0.38,0.75,0.38,1.09,0.42,1.62c0.38,4.71,0.3,17.66,0.3,21.34" stroke-dasharray="23.036" stroke-dashoffset="23.036"><animate attributeName="stroke-dashoffset" values="23.036" fill="freeze" begin="9481.click" /><animate attributeName="stroke-dashoffset" values="23.036;23.036;0" keyTimes="0;0.952;1" dur="4.79s" fill="freeze" begin="0s;9481.click" /></path><path d="M71.93,34.53c0.03,0.33-0.01,0.77-0.11,1.05c-0.66,1.81-1.5,3.22-3.01,5.43" stroke-dasharray="7.29" stroke-dashoffset="7.29"><animate attributeName="stroke-dashoffset" values="7.29" fill="freeze" begin="9481.click" /><animate attributeName="stroke-dashoffset" values="7.29;7.29;0" keyTimes="0;0.97;1" dur="4.936s" fill="freeze" begin="0s;9481.click" /></path><path d="M51.61,43.55c7.44-0.44,38.1-3.36,41.3-3.6" stroke-dasharray="41.458" stroke-dashoffset="41.458"><animate attributeName="stroke-dashoffset" values="41.458" fill="freeze" begin="9481.click" /><animate attributeName="stroke-dashoffset" values="41.458;41.458;0" keyTimes="0;0.922;1" dur="5.351s" fill="freeze" begin="0s;9481.click" /></path><path d="M69.71,43.07c0.67,0.32,1.21,0.77,1.21,1.33c0,5.71,0.57,10.13,0.17,19.12" stroke-dasharray="21.02" stroke-dashoffset="21.02"><animate attributeName="stroke-dashoffset" values="21.02" fill="freeze" begin="9481.click" /><animate attributeName="stroke-dashoffset" values="21.02;21.02;0" keyTimes="0;0.962;1" dur="5.561s" fill="freeze" begin="0s;9481.click" /></path><path d="M52.23,50.32c7.02-0.37,35.15-2.47,38.16-2.67" stroke-dasharray="38.255" stroke-dashoffset="38.255"><animate attributeName="stroke-dashoffset" values="38.255" fill="freeze" begin="9481.click" /><animate attributeName="stroke-dashoffset" values="38.255;38.255;0" keyTimes="0;0.936;1" dur="5.944s" fill="freeze" begin="0s;9481.click" /></path><path d="M51.88,56.82c7.4-0.31,36.63-1.76,39.81-1.93" stroke-dasharray="39.858" stroke-dashoffset="39.858"><animate attributeName="stroke-dashoffset" values="39.858" fill="freeze" begin="9481.click" /><animate attributeName="stroke-dashoffset" values="39.858;39.858;0" keyTimes="0;0.937;1" dur="6.343s" fill="freeze" begin="0s;9481.click" /></path><path d="M51.88,64.96c7.44-0.44,39.81-2.99,43-3.23" stroke-dasharray="43.122" stroke-dashoffset="43.122"><animate attributeName="stroke-dashoffset" values="43.122" fill="freeze" begin="9481.click" /><animate attributeName="stroke-dashoffset" values="43.122;43.122;0" keyTimes="0;0.936;1" dur="6.774s" fill="freeze" begin="0s;9481.click" /></path><path d="M51.75,72.83c1.73,0.18,1.95,0.46,5.41,0.18c3.46-0.27,19.61-2.63,21.99-2.9c2.38-0.27,2.72,1.89,1.95,2.97C72.25,85.5,55.5,96.5,41,100" stroke-dasharray="81.444" stroke-dashoffset="81.444"><animate attributeName="stroke-dashoffset" values="81.444" fill="freeze" begin="9481.click" /><animate attributeName="stroke-dashoffset" values="81.444;81.444;0" keyTimes="0;0.917;1" dur="7.386s" fill="freeze" begin="0s;9481.click" /></path><path d="M51.45,77.39c4,0.52,23.58,14.33,37.52,19.99c2.17,0.88,3.75,1.47,5.78,1.76" stroke-dasharray="48.638" stroke-dashoffset="48.638"><animate attributeName="stroke-dashoffset" values="48.638" fill="freeze" begin="9481.click" /><animate attributeName="stroke-dashoffset" values="48.638;48.638;0" keyTimes="0;0.938;1" dur="7.872s" fill="freeze" begin="0s;9481.click" /></path></g></svg>