<svg xmlns="http://www.w3.org/2000/svg" viewBox="0 0 109 109" id="95a3"><g fill="none" stroke="#666" stroke-width="6" stroke-linecap="round" stroke-linejoin="round"><g><g><g><path d="M18.89,15.54c1.03,1.03,1.18,2.59,1.18,4.15c0,2.15,0.02,49.46,0.01,68.56c0,4.73,0,7.73-0.01,7.88" /><path d="M21.02,16.83c2.16-0.09,14.57-1.91,18.98-2.41c2.35-0.27,4.15,0.09,4.19,2.71c0.05,3.37-0.02,13.15-0.06,18.75c-0.01,1.63-0.02,2.9-0.02,3.56" /><path d="M20.95,27.39c7.17-0.89,15.42-2.14,22.13-2.76" /><path d="M21.27,38.98c8.11-1.15,14.64-2.28,21.81-2.81" /></g><g><path d="M63.69,13.51c0.71,0.71,0.88,1.49,0.88,2.48c0,2.45-0.03,12.6-0.04,19.01c0,1.46,0,2.48,0,3.42" /><path d="M65.3,14.66c2.49-0.11,19.96-3.04,22.24-3.17c1.9-0.11,2.97,0.76,2.97,2.3c0,19.47-0.5,64.04-0.5,78.15c0,10.69-4.51,4.06-7.65,1.36" /><path d="M65.74,24.72c6.38-0.47,19.84-1.99,23.65-1.99" /><path d="M65.8,36.01c5.95-0.26,17.09-1.81,23.55-1.81" /></g></g><g p4:phon="各" xmlns:p4="http://kanjivg.tagaini.net"><g><path d="M48.01,43.75c0.1,0.92-0.01,1.79-0.36,2.64c-1.39,3.87-6.2,10.85-12.31,15.26" /><path d="M49.13,48.81c0.24,0.02,1.28,0.04,1.96-0.07c3.03-0.49,7.03-1.85,10.27-2.52c2.22-0.46,3,0.83,2.04,2.79c-3.64,7.38-16.27,21.12-30.47,26.83" /><path d="M46.06,53.12c4.45,3.05,17.67,12.65,24.46,16.85c2.07,1.28,3.73,2.28,5.57,3.07" /></g><g><path d="M42.24,76.72c0.58,0.58,1.01,1.43,1.06,2.37c0.59,2.48,1.21,6.63,1.69,10.08c0.15,1.07,0.29,2.1,0.41,3.03" /><path d="M44.07,77.9c5.41-0.66,14.43-1.92,18.69-2.41c2.42-0.28,3.45,0.94,2.76,3.3c-1.02,3.47-1.52,5.34-2.56,9.21" /><path d="M45.76,90.51c2.9-0.32,10.73-1.09,15.78-1.59c1.02-0.1,1.84-0.04,2.76-0.05" /></g></g></g></g><g fill="none" stroke="#000" stroke-width="3" stroke-linecap="round" stroke-linejoin="round"><path d="M18.89,15.54c1.03,1.03,1.18,2.59,1.18,4.15c0,2.15,0.02,49.46,0.01,68.56c0,4.73,0,7.73-0.01,7.88" stroke-dasharray="80.872" stroke-dashoffset="80.872"><animate attributeName="stroke-dashoffset" values="80.872;80.872;0" dur="0.608s" fill="freeze" begin="0s;95a3.click" /></path><path d="M21.02,16.83c2.16-0.09,14.57-1.91,18.98-2.41c2.35-0.27,4.15,0.09,4.19,2.71c0.05,3.37-0.02,13.15-0.06,18.75c-0.01,1.63-0.02,2.9-0.02,3.56" stroke-dasharray="47.343" stroke-dashoffset="47.343"><animate attributeName="stroke-dashoffset" values="47.343" fill="freeze" begin="95a3.click" /><animate attributeName="stroke-dashoffset" values="47.343;47.343;0" keyTimes="0;0.562;1" dur="1.081s" fill="freeze" begin="0s;95a3.click" /></path><path d="M20.95,27.39c7.17-0.89,15.42-2.14,22.13-2.76" stroke-dasharray="22.304" stroke-dashoffset="22.304"><animate attributeName="stroke-dashoffset" values="22.304" fill="freeze" begin="95a3.click" /><animate attributeName="stroke-dashoffset" values="22.304;22.304;0" keyTimes="0;0.829;1" dur="1.304s" fill="freeze" begin="0s;95a3.click" /></path><path d="M21.27,38.98c8.11-1.15,14.64-2.28,21.81-2.81" stroke-dasharray="21.996" stroke-dashoffset="21.996"><animate attributeName="stroke-dashoffset" values="21.996" fill="freeze" begin="95a3.click" /><animate attributeName="stroke-dashoffset" values="21.996;21.996;0" keyTimes="0;0.856;1" dur="1.524s" fill="freeze" begin="0s;95a3.click" /></path><path d="M63.69,13.51c0.71,0.71,0.88,1.49,0.88,2.48c0,2.45-0.03,12.6-0.04,19.01c0,1.46,0,2.48,0,3.42" stroke-dasharray="25.143" stroke-dashoffset="25.143"><animate attributeName="stroke-dashoffset" values="25.143" fill="freeze" begin="95a3.click" /><animate attributeName="stroke-dashoffset" values="25.143;25.143;0" keyTimes="0;0.859;1" dur="1.775s" fill="freeze" begin="0s;95a3.click" /></path><path d="M65.3,14.66c2.49-0.11,19.96-3.04,22.24-3.17c1.9-0.11,2.97,0.76,2.97,2.3c0,19.47-0.5,64.04-0.5,78.15c0,10.69-4.51,4.06-7.65,1.36" stroke-dasharray="119.016" stroke-dashoffset="119.016"><animate attributeName="stroke-dashoffset" values="119.016" fill="freeze" begin="95a3.click" /><animate attributeName="stroke-dashoffset" values="119.016;119.016;0" keyTimes="0;0.665;1" dur="2.67s" fill="freeze" begin="0s;95a3.click" /></path><path d="M65.74,24.72c6.38-0.47,19.84-1.99,23.65-1.99" stroke-dasharray="23.738" stroke-dashoffset="23.738"><animate attributeName="stroke-dashoffset" values="23.738" fill="freeze" begin="95a3.click" /><animate attributeName="stroke-dashoffset" values="23.738;23.738;0" keyTimes="0;0.918;1" dur="2.907s" fill="freeze" begin="0s;95a3.click" /></path><path d="M65.8,36.01c5.95-0.26,17.09-1.81,23.55-1.81" stroke-dasharray="23.627" stroke-dashoffset="23.627"><animate attributeName="stroke-dashoffset" values="23.627" fill="freeze" begin="95a3.click" /><animate attributeName="stroke-dashoffset" values="23.627;23.627;0" keyTimes="0;0.925;1" dur="3.143s" fill="freeze" begin="0s;95a3.click" /></path><path d="M48.01,43.75c0.1,0.92-0.01,1.79-0.36,2.64c-1.39,3.87-6.2,10.85-12.31,15.26" stroke-dasharray="22.53" stroke-dashoffset="22.53"><animate attributeName="stroke-dashoffset" values="22.53" fill="freeze" begin="95a3.click" /><animate attributeName="stroke-dashoffset" values="22.53;22.53;0" keyTimes="0;0.933;1" dur="3.368s" fill="freeze" begin="0s;95a3.click" /></path><path d="M49.13,48.81c0.24,0.02,1.28,0.04,1.96-0.07c3.03-0.49,7.03-1.85,10.27-2.52c2.22-0.46,3,0.83,2.04,2.79c-3.64,7.38-16.27,21.12-30.47,26.83" stroke-dasharray="58.639" stroke-dashoffset="58.639"><animate attributeName="stroke-dashoffset" values="58.639" fill="freeze" begin="95a3.click" /><animate attributeName="stroke-dashoffset" values="58.639;58.639;0" keyTimes="0;0.852;1" dur="3.954s" fill="freeze" begin="0s;95a3.click" /></path><path d="M46.06,53.12c4.45,3.05,17.67,12.65,24.46,16.85c2.07,1.28,3.73,2.28,5.57,3.07" stroke-dasharray="36.073" stroke-dashoffset="36.073"><animate attributeName="stroke-dashoffset" values="36.073" fill="freeze" begin="95a3.click" /><animate attributeName="stroke-dashoffset" values="36.073;36.073;0" keyTimes="0;0.916;1" dur="4.315s" fill="freeze" begin="0s;95a3.click" /></path><path d="M42.24,76.72c0.58,0.58,1.01,1.43,1.06,2.37c0.59,2.48,1.21,6.63,1.69,10.08c0.15,1.07,0.29,2.1,0.41,3.03" stroke-dasharray="15.936" stroke-dashoffset="15.936"><animate attributeName="stroke-dashoffset" values="15.936" fill="freeze" begin="95a3.click" /><animate attributeName="stroke-dashoffset" values="15.936;15.936;0" keyTimes="0;0.964;1" dur="4.474s" fill="freeze" begin="0s;95a3.click" /></path><path d="M44.07,77.9c5.41-0.66,14.43-1.92,18.69-2.41c2.42-0.28,3.45,0.94,2.76,3.3c-1.02,3.47-1.52,5.34-2.56,9.21" stroke-dasharray="33.901" stroke-dashoffset="33.901"><animate attributeName="stroke-dashoffset" values="33.901" fill="freeze" begin="95a3.click" /><animate attributeName="stroke-dashoffset" values="33.901;33.901;0" keyTimes="0;0.93;1" dur="4.813s" fill="freeze" begin="0s;95a3.click" /></path><path d="M45.76,90.51c2.9-0.32,10.73-1.09,15.78-1.59c1.02-0.1,1.84-0.04,2.76-0.05" stroke-dasharray="18.623" stroke-dashoffset="18.623"><animate attributeName="stroke-dashoffset" values="18.623" fill="freeze" begin="95a3.click" /><animate attributeName="stroke-dashoffset" values="18.623;18.623;0" keyTimes="0;0.963;1" dur="4.999s" fill="freeze" begin="0s;95a3.click" /></path></g></svg>