<svg xmlns="http://www.w3.org/2000/svg" viewBox="0 0 109 109" id="95bc"><g fill="none" stroke="#666" stroke-width="6" stroke-linecap="round" stroke-linejoin="round"><g><g><g><path d="M18.39,15.29c0.73,0.46,1.28,2.98,1.43,3.9c0.15,0.93-0.09,72.64-0.24,78.44" /><path d="M20.02,17.58c2.44-0.1,18.27-2.66,20.49-2.78c1.85-0.1,2.81,0.91,2.9,1.71c0.14,1.23-1.06,13.76-1.39,22.01" /><path d="M19.95,27.89c5.99-0.59,16.62-2.12,22.38-2.76" /><path d="M20.02,38.98c8.11-1.15,13.39-2.03,20.56-2.56" /></g><g><path d="M64.44,14.01c0.44,0.55,0.88,1.74,0.88,2.48c0,0.74,0.21,20.81,0.21,21.17" /><path d="M66.05,15.16c2.49-0.11,20.21-2.79,22.49-2.92c1.9-0.11,2.98,1.15,2.97,1.8c-0.49,19.46-0.5,64.29-0.5,78.4c0,6.88-3.14,5.32-5.31,3.25c-1.78-1.7-3.14-2.59-4.59-3.89" /><path d="M65.49,25.22c3.38,0,20.59-1.74,24.4-1.74" /><path d="M65.55,35.76c4.99,0,19.09-1.06,25.55-1.06" /></g></g><g><g><g><path d="M40.41,43.5c0.69,0.37,1.83,1.82,1.83,2.56c0,2.74-0.09,3.72-0.09,7.38" /><path d="M27.53,55.38c0.72,0.3,2.24,0.49,2.91,0.41c6.58-0.72,15.31-2.29,20.49-3.08c1.12-0.17,2.15-0.41,2.99,0.09" /></g><g><path d="M42.57,60.15c1.53,0.53,3.73,1.18,6.06,1.72c0.81,0.19,1.43,1.4,1.28,2.42c-1.15,7.93-3.6,17.43-7.83,22.97c-2.59,3.4-4.28-0.13-5.04-0.59" /><path d="M40.39,57.32c0.19,0.81,0.15,1.71-0.07,2.62c-1.56,6.24-6.07,18.85-13.08,24.76" /></g></g><g><path d="M66.04,42.52c0.03,0.59,0.13,1.54-0.06,2.36c-1.26,5.38-5.12,15.44-10.42,22.6" /><path d="M66.49,46.61c2.13,3.5,11.32,14.92,13.68,17.48c0.8,0.87,1.82,1.24,2.62,1.49" /><g><g><path d="M62.87,65.38c3.2,1.19,8.26,4.87,9.06,6.71" /></g><g><path d="M60.43,80.56c4.68,1.7,12.09,7.01,13.26,9.66" /></g></g></g></g></g></g><g fill="none" stroke="#000" stroke-width="3" stroke-linecap="round" stroke-linejoin="round"><path d="M18.39,15.29c0.73,0.46,1.28,2.98,1.43,3.9c0.15,0.93-0.09,72.64-0.24,78.44" stroke-dasharray="82.661" stroke-dashoffset="82.661"><animate attributeName="stroke-dashoffset" values="82.661;82.661;0" dur="0.622s" fill="freeze" begin="0s;95bc.click" /></path><path d="M20.02,17.58c2.44-0.1,18.27-2.66,20.49-2.78c1.85-0.1,2.81,0.91,2.9,1.71c0.14,1.23-1.06,13.76-1.39,22.01" stroke-dasharray="46.424" stroke-dashoffset="46.424"><animate attributeName="stroke-dashoffset" values="46.424" fill="freeze" begin="95bc.click" /><animate attributeName="stroke-dashoffset" values="46.424;46.424;0" keyTimes="0;0.573;1" dur="1.086s" fill="freeze" begin="0s;95bc.click" /></path><path d="M19.95,27.89c5.99-0.59,16.62-2.12,22.38-2.76" stroke-dasharray="22.551" stroke-dashoffset="22.551"><animate attributeName="stroke-dashoffset" values="22.551" fill="freeze" begin="95bc.click" /><animate attributeName="stroke-dashoffset" values="22.551;22.551;0" keyTimes="0;0.828;1" dur="1.312s" fill="freeze" begin="0s;95bc.click" /></path><path d="M20.02,38.98c8.11-1.15,13.39-2.03,20.56-2.56" stroke-dasharray="20.725" stroke-dashoffset="20.725"><animate attributeName="stroke-dashoffset" values="20.725" fill="freeze" begin="95bc.click" /><animate attributeName="stroke-dashoffset" values="20.725;20.725;0" keyTimes="0;0.864;1" dur="1.519s" fill="freeze" begin="0s;95bc.click" /></path><path d="M64.44,14.01c0.44,0.55,0.88,1.74,0.88,2.48c0,0.74,0.21,20.81,0.21,21.17" stroke-dasharray="23.839" stroke-dashoffset="23.839"><animate attributeName="stroke-dashoffset" values="23.839" fill="freeze" begin="95bc.click" /><animate attributeName="stroke-dashoffset" values="23.839;23.839;0" keyTimes="0;0.865;1" dur="1.757s" fill="freeze" begin="0s;95bc.click" /></path><path d="M66.05,15.16c2.49-0.11,20.21-2.79,22.49-2.92c1.9-0.11,2.98,1.15,2.97,1.8c-0.49,19.46-0.5,64.29-0.5,78.4c0,6.88-3.14,5.32-5.31,3.25c-1.78-1.7-3.14-2.59-4.59-3.89" stroke-dasharray="120.577" stroke-dashoffset="120.577"><animate attributeName="stroke-dashoffset" values="120.577" fill="freeze" begin="95bc.click" /><animate attributeName="stroke-dashoffset" values="120.577;120.577;0" keyTimes="0;0.66;1" dur="2.664s" fill="freeze" begin="0s;95bc.click" /></path><path d="M65.49,25.22c3.38,0,20.59-1.74,24.4-1.74" stroke-dasharray="24.466" stroke-dashoffset="24.466"><animate attributeName="stroke-dashoffset" values="24.466" fill="freeze" begin="95bc.click" /><animate attributeName="stroke-dashoffset" values="24.466;24.466;0" keyTimes="0;0.916;1" dur="2.909s" fill="freeze" begin="0s;95bc.click" /></path><path d="M65.55,35.76c4.99,0,19.09-1.06,25.55-1.06" stroke-dasharray="25.575" stroke-dashoffset="25.575"><animate attributeName="stroke-dashoffset" values="25.575" fill="freeze" begin="95bc.click" /><animate attributeName="stroke-dashoffset" values="25.575;25.575;0" keyTimes="0;0.919;1" dur="3.165s" fill="freeze" begin="0s;95bc.click" /></path><path d="M40.41,43.5c0.69,0.37,1.83,1.82,1.83,2.56c0,2.74-0.09,3.72-0.09,7.38" stroke-dasharray="10.614" stroke-dashoffset="10.614"><animate attributeName="stroke-dashoffset" values="10.614" fill="freeze" begin="95bc.click" /><animate attributeName="stroke-dashoffset" values="10.614;10.614;0" keyTimes="0;0.937;1" dur="3.377s" fill="freeze" begin="0s;95bc.click" /></path><path d="M27.53,55.38c0.72,0.3,2.24,0.49,2.91,0.41c6.58-0.72,15.31-2.29,20.49-3.08c1.12-0.17,2.15-0.41,2.99,0.09" stroke-dasharray="26.738" stroke-dashoffset="26.738"><animate attributeName="stroke-dashoffset" values="26.738" fill="freeze" begin="95bc.click" /><animate attributeName="stroke-dashoffset" values="26.738;26.738;0" keyTimes="0;0.927;1" dur="3.644s" fill="freeze" begin="0s;95bc.click" /></path><path d="M42.57,60.15c1.53,0.53,3.73,1.18,6.06,1.72c0.81,0.19,1.43,1.4,1.28,2.42c-1.15,7.93-3.6,17.43-7.83,22.97c-2.59,3.4-4.28-0.13-5.04-0.59" stroke-dasharray="40.095" stroke-dashoffset="40.095"><animate attributeName="stroke-dashoffset" values="40.095" fill="freeze" begin="95bc.click" /><animate attributeName="stroke-dashoffset" values="40.095;40.095;0" keyTimes="0;0.901;1" dur="4.045s" fill="freeze" begin="0s;95bc.click" /></path><path d="M40.39,57.32c0.19,0.81,0.15,1.71-0.07,2.62c-1.56,6.24-6.07,18.85-13.08,24.76" stroke-dasharray="31.025" stroke-dashoffset="31.025"><animate attributeName="stroke-dashoffset" values="31.025" fill="freeze" begin="95bc.click" /><animate attributeName="stroke-dashoffset" values="31.025;31.025;0" keyTimes="0;0.929;1" dur="4.355s" fill="freeze" begin="0s;95bc.click" /></path><path d="M66.04,42.52c0.03,0.59,0.13,1.54-0.06,2.36c-1.26,5.38-5.12,15.44-10.42,22.6" stroke-dasharray="27.396" stroke-dashoffset="27.396"><animate attributeName="stroke-dashoffset" values="27.396" fill="freeze" begin="95bc.click" /><animate attributeName="stroke-dashoffset" values="27.396;27.396;0" keyTimes="0;0.941;1" dur="4.629s" fill="freeze" begin="0s;95bc.click" /></path><path d="M66.49,46.61c2.13,3.5,11.32,14.92,13.68,17.48c0.8,0.87,1.82,1.24,2.62,1.49" stroke-dasharray="25.263" stroke-dashoffset="25.263"><animate attributeName="stroke-dashoffset" values="25.263" fill="freeze" begin="95bc.click" /><animate attributeName="stroke-dashoffset" values="25.263;25.263;0" keyTimes="0;0.948;1" dur="4.882s" fill="freeze" begin="0s;95bc.click" /></path><path d="M62.87,65.38c3.2,1.19,8.26,4.87,9.06,6.71" stroke-dasharray="11.429" stroke-dashoffset="11.429"><animate attributeName="stroke-dashoffset" values="11.429" fill="freeze" begin="95bc.click" /><animate attributeName="stroke-dashoffset" values="11.429;11.429;0" keyTimes="0;0.955;1" dur="5.111s" fill="freeze" begin="0s;95bc.click" /></path><path d="M60.43,80.56c4.68,1.7,12.09,7.01,13.26,9.66" stroke-dasharray="16.63" stroke-dashoffset="16.63"><animate attributeName="stroke-dashoffset" values="16.63" fill="freeze" begin="95bc.click" /><animate attributeName="stroke-dashoffset" values="16.63;16.63;0" keyTimes="0;0.969;1" dur="5.277s" fill="freeze" begin="0s;95bc.click" /></path></g></svg>