<svg xmlns="http://www.w3.org/2000/svg" viewBox="0 0 109 109" id="95d6"><g fill="none" stroke="#666" stroke-width="6" stroke-linecap="round" stroke-linejoin="round"><g><g><g><path d="M18.39,14.79c0.73,0.46,1.28,2.98,1.43,3.9c0.15,0.93-0.09,73.14-0.24,78.94" /><path d="M20.02,17.58c2.44-0.1,18.77-2.66,20.99-2.78c1.85-0.1,2.81,0.91,2.9,1.71c0.14,1.23-1.06,11.76-1.39,20.01" /><path d="M20.45,26.89c5.99-0.59,16.12-2.12,21.88-2.76" /><path d="M20.02,36.98c8.11-1.15,13.89-2.03,21.06-2.56" /></g><g><path d="M64.44,14.01c0.44,0.55,0.88,1.74,0.88,2.48c0,0.74,0.21,19.31,0.21,19.67" /><path d="M66.05,15.16c2.49-0.11,19.71-2.79,21.99-2.92c1.9-0.11,2.98,1.15,2.97,1.8c-0.49,19.46-0.5,64.29-0.5,78.4c0,10.81-4.01,5.56-7.4,1.86" /><path d="M66.49,24.72c3.38,0,20.09-1.74,23.9-1.74" /><path d="M66.05,34.26c4.99,0,18.09-1.56,24.55-1.56" /></g></g><g><path d="M39.92,43.73c0.27,0.23,0.57,1.51,0.57,1.91c0,4.06-0.47,22.02-0.64,28.42" /><path d="M41.29,45.45c6.74-0.8,21.96-2.46,24.85-2.9c1.01-0.15,2.72-0.33,3.23-0.21" /><path d="M53.31,45.71c0.27,0.23,0.49,0.55,0.49,0.95c0,4.06,0.03,17.79-0.14,24.19" /><path d="M40.49,54.98c6.74-0.8,19.76-2.35,22.65-2.79c1.01-0.15,2.72-0.33,3.23-0.21" /><path d="M40.64,63.56c6.73-0.8,19.76-2.35,22.65-2.79c1.01-0.15,2.72-0.33,3.23-0.21" /><path d="M40.61,74.19c7.87-1.43,25.57-3.37,29.93-3.9c2.84-0.34,4.44,1.57,4.1,3.95c-0.93,6.53-2.17,13.34-4.35,17.57c-3.05,5.9-4.02,3.18-6.9-0.03" /><g><path d="M32.11,79.61c0.37,4.14-0.26,9.15-1.35,11.73" /><path d="M40.51,79.85c1.41,1.39,2.75,5.2,3.1,7.35" /><path d="M50.71,78.63c1.15,1.13,2.98,4.67,3.26,6.44" /><path d="M59.73,76.98c1.37,1.13,3.54,4.65,3.89,6.41" /></g></g></g></g><g fill="none" stroke="#000" stroke-width="3" stroke-linecap="round" stroke-linejoin="round"><path d="M18.39,14.79c0.73,0.46,1.28,2.98,1.43,3.9c0.15,0.93-0.09,73.14-0.24,78.94" stroke-dasharray="83.161" stroke-dashoffset="83.161"><animate attributeName="stroke-dashoffset" values="83.161;83.161;0" dur="0.625s" fill="freeze" begin="0s;95d6.click" /></path><path d="M20.02,17.58c2.44-0.1,18.77-2.66,20.99-2.78c1.85-0.1,2.81,0.91,2.9,1.71c0.14,1.23-1.06,11.76-1.39,20.01" stroke-dasharray="44.925" stroke-dashoffset="44.925"><animate attributeName="stroke-dashoffset" values="44.925" fill="freeze" begin="95d6.click" /><animate attributeName="stroke-dashoffset" values="44.925;44.925;0" keyTimes="0;0.582;1" dur="1.074s" fill="freeze" begin="0s;95d6.click" /></path><path d="M20.45,26.89c5.99-0.59,16.12-2.12,21.88-2.76" stroke-dasharray="22.055" stroke-dashoffset="22.055"><animate attributeName="stroke-dashoffset" values="22.055" fill="freeze" begin="95d6.click" /><animate attributeName="stroke-dashoffset" values="22.055;22.055;0" keyTimes="0;0.829;1" dur="1.295s" fill="freeze" begin="0s;95d6.click" /></path><path d="M20.02,36.98c8.11-1.15,13.89-2.03,21.06-2.56" stroke-dasharray="21.221" stroke-dashoffset="21.221"><animate attributeName="stroke-dashoffset" values="21.221" fill="freeze" begin="95d6.click" /><animate attributeName="stroke-dashoffset" values="21.221;21.221;0" keyTimes="0;0.859;1" dur="1.507s" fill="freeze" begin="0s;95d6.click" /></path><path d="M64.44,14.01c0.44,0.55,0.88,1.74,0.88,2.48c0,0.74,0.21,19.31,0.21,19.67" stroke-dasharray="22.339" stroke-dashoffset="22.339"><animate attributeName="stroke-dashoffset" values="22.339" fill="freeze" begin="95d6.click" /><animate attributeName="stroke-dashoffset" values="22.339;22.339;0" keyTimes="0;0.871;1" dur="1.73s" fill="freeze" begin="0s;95d6.click" /></path><path d="M66.05,15.16c2.49-0.11,19.71-2.79,21.99-2.92c1.9-0.11,2.98,1.15,2.97,1.8c-0.49,19.46-0.5,64.29-0.5,78.4c0,10.81-4.01,5.56-7.4,1.86" stroke-dasharray="118.846" stroke-dashoffset="118.846"><animate attributeName="stroke-dashoffset" values="118.846" fill="freeze" begin="95d6.click" /><animate attributeName="stroke-dashoffset" values="118.846;118.846;0" keyTimes="0;0.659;1" dur="2.624s" fill="freeze" begin="0s;95d6.click" /></path><path d="M66.49,24.72c3.38,0,20.09-1.74,23.9-1.74" stroke-dasharray="23.968" stroke-dashoffset="23.968"><animate attributeName="stroke-dashoffset" values="23.968" fill="freeze" begin="95d6.click" /><animate attributeName="stroke-dashoffset" values="23.968;23.968;0" keyTimes="0;0.916;1" dur="2.864s" fill="freeze" begin="0s;95d6.click" /></path><path d="M66.05,34.26c4.99,0,18.09-1.56,24.55-1.56" stroke-dasharray="24.606" stroke-dashoffset="24.606"><animate attributeName="stroke-dashoffset" values="24.606" fill="freeze" begin="95d6.click" /><animate attributeName="stroke-dashoffset" values="24.606;24.606;0" keyTimes="0;0.921;1" dur="3.11s" fill="freeze" begin="0s;95d6.click" /></path><path d="M39.92,43.73c0.27,0.23,0.57,1.51,0.57,1.91c0,4.06-0.47,22.02-0.64,28.42" stroke-dasharray="30.446" stroke-dashoffset="30.446"><animate attributeName="stroke-dashoffset" values="30.446" fill="freeze" begin="95d6.click" /><animate attributeName="stroke-dashoffset" values="30.446;30.446;0" keyTimes="0;0.911;1" dur="3.414s" fill="freeze" begin="0s;95d6.click" /></path><path d="M41.29,45.45c6.74-0.8,21.96-2.46,24.85-2.9c1.01-0.15,2.72-0.33,3.23-0.21" stroke-dasharray="28.266" stroke-dashoffset="28.266"><animate attributeName="stroke-dashoffset" values="28.266" fill="freeze" begin="95d6.click" /><animate attributeName="stroke-dashoffset" values="28.266;28.266;0" keyTimes="0;0.923;1" dur="3.697s" fill="freeze" begin="0s;95d6.click" /></path><path d="M53.31,45.71c0.27,0.23,0.49,0.55,0.49,0.95c0,4.06,0.03,17.79-0.14,24.19" stroke-dasharray="25.296" stroke-dashoffset="25.296"><animate attributeName="stroke-dashoffset" values="25.296" fill="freeze" begin="95d6.click" /><animate attributeName="stroke-dashoffset" values="25.296;25.296;0" keyTimes="0;0.936;1" dur="3.95s" fill="freeze" begin="0s;95d6.click" /></path><path d="M40.49,54.98c6.74-0.8,19.76-2.35,22.65-2.79c1.01-0.15,2.72-0.33,3.23-0.21" stroke-dasharray="26.068" stroke-dashoffset="26.068"><animate attributeName="stroke-dashoffset" values="26.068" fill="freeze" begin="95d6.click" /><animate attributeName="stroke-dashoffset" values="26.068;26.068;0" keyTimes="0;0.938;1" dur="4.211s" fill="freeze" begin="0s;95d6.click" /></path><path d="M40.64,63.56c6.73-0.8,19.76-2.35,22.65-2.79c1.01-0.15,2.72-0.33,3.23-0.21" stroke-dasharray="26.068" stroke-dashoffset="26.068"><animate attributeName="stroke-dashoffset" values="26.068" fill="freeze" begin="95d6.click" /><animate attributeName="stroke-dashoffset" values="26.068;26.068;0" keyTimes="0;0.942;1" dur="4.472s" fill="freeze" begin="0s;95d6.click" /></path><path d="M40.61,74.19c7.87-1.43,25.57-3.37,29.93-3.9c2.84-0.34,4.44,1.57,4.1,3.95c-0.93,6.53-2.17,13.34-4.35,17.57c-3.05,5.9-4.02,3.18-6.9-0.03" stroke-dasharray="65.213" stroke-dashoffset="65.213"><animate attributeName="stroke-dashoffset" values="65.213" fill="freeze" begin="95d6.click" /><animate attributeName="stroke-dashoffset" values="65.213;65.213;0" keyTimes="0;0.901;1" dur="4.962s" fill="freeze" begin="0s;95d6.click" /></path><path d="M32.11,79.61c0.37,4.14-0.26,9.15-1.35,11.73" stroke-dasharray="11.899" stroke-dashoffset="11.899"><animate attributeName="stroke-dashoffset" values="11.899" fill="freeze" begin="95d6.click" /><animate attributeName="stroke-dashoffset" values="11.899;11.899;0" keyTimes="0;0.954;1" dur="5.2s" fill="freeze" begin="0s;95d6.click" /></path><path d="M40.51,79.85c1.41,1.39,2.75,5.2,3.1,7.35" stroke-dasharray="8.066" stroke-dashoffset="8.066"><animate attributeName="stroke-dashoffset" values="8.066" fill="freeze" begin="95d6.click" /><animate attributeName="stroke-dashoffset" values="8.066;8.066;0" keyTimes="0;0.97;1" dur="5.361s" fill="freeze" begin="0s;95d6.click" /></path><path d="M50.71,78.63c1.15,1.13,2.98,4.67,3.26,6.44" stroke-dasharray="7.288" stroke-dashoffset="7.288"><animate attributeName="stroke-dashoffset" values="7.288" fill="freeze" begin="95d6.click" /><animate attributeName="stroke-dashoffset" values="7.288;7.288;0" keyTimes="0;0.973;1" dur="5.507s" fill="freeze" begin="0s;95d6.click" /></path><path d="M59.73,76.98c1.37,1.13,3.54,4.65,3.89,6.41" stroke-dasharray="7.582" stroke-dashoffset="7.582"><animate attributeName="stroke-dashoffset" values="7.582" fill="freeze" begin="95d6.click" /><animate attributeName="stroke-dashoffset" values="7.582;7.582;0" keyTimes="0;0.973;1" dur="5.659s" fill="freeze" begin="0s;95d6.click" /></path></g></svg>