<svg xmlns="http://www.w3.org/2000/svg" viewBox="0 0 109 109" id="9676"><g fill="none" stroke="#666" stroke-width="6" stroke-linecap="round" stroke-linejoin="round"><g><g><path d="M15.17,19.67c1.46,0.71,2.84,0.78,4.11,0.62c5.98-0.78,12.48-1.91,16.39-2.87c3.07-0.75,4.5,1,3.17,3.33c-1.33,2.33-8,13.67-10.33,17" /><path d="M28.5,38.25c13.33,8.33,10,36-1.83,27.25" /><path d="M17.12,21c0.81,0.81,0.96,2,0.96,3.75c0,6.8,0.02,45.67,0.03,62.75c0,4.59,0,7.6,0,8" /></g><g p4:phon="匋" xmlns:p4="http://kanjivg.tagaini.net"><g><g><path d="M55.03,15.75c0.04,0.6,0,1.59-0.32,2.4c-2.46,6.1-6.08,13.72-12.96,22.23" /></g><path d="M52,30.5c3,0.75,4.85,0.51,6.88,0.16c6.73-1.15,25.16-4.49,29.52-5.16c3.91-0.6,6.02,0.25,5.9,4.5c-0.5,17.69-1.05,37.12-5.7,56.66c-1.34,5.63-4.85,10.83-9.32,4.84" /></g><g><path d="M54.49,38.89c0.12,0.78,0.04,1.52-0.22,2.24c-1.27,4.13-3.97,9.4-8.16,15.11" /><path d="M55.11,47.68c1.17,0.1,2.26,0.03,3.41-0.18c5.47-0.97,10.74-2.01,15.74-2.9c1.64-0.29,3.14-0.73,4.76-0.22" /><path d="M43.38,62.05c1.58,0.82,4.47,0.57,6.15,0.28c8.72-1.46,16.72-2.84,27.11-3.93c1.93-0.2,4.12-0.59,5.99,0" /><path d="M60.99,48.54c0.8,0.8,1.04,1.89,1.04,3c0,3.9-0.03,22.35-0.03,26.33" /><path d="M46.8,70.19c0.75,0.75,0.99,1.69,0.78,2.66c-0.58,2.77-1.12,5.55-2,7.64c-0.58,1.38,0.57,2.49,2.07,2.09c9.09-2.46,16.78-4.13,27.55-5.28" /><path d="M76.24,65.81c0.79,0.79,0.88,2.07,0.78,3.25c-0.23,2.6-0.37,5.05-0.81,9.22c-0.11,1.04-0.23,2.15-0.36,3.36" /></g></g></g></g><g fill="none" stroke="#000" stroke-width="3" stroke-linecap="round" stroke-linejoin="round"><path d="M15.17,19.67c1.46,0.71,2.84,0.78,4.11,0.62c5.98-0.78,12.48-1.91,16.39-2.87c3.07-0.75,4.5,1,3.17,3.33c-1.33,2.33-8,13.67-10.33,17" stroke-dasharray="47.21" stroke-dashoffset="47.21"><animate attributeName="stroke-dashoffset" values="47.21;47.21;0" dur="0.472s" fill="freeze" begin="0s;9676.click" /></path><path d="M28.5,38.25c13.33,8.33,10,36-1.83,27.25" stroke-dasharray="39.3" stroke-dashoffset="39.3"><animate attributeName="stroke-dashoffset" values="39.3" fill="freeze" begin="9676.click" /><animate attributeName="stroke-dashoffset" values="39.3;39.3;0" keyTimes="0;0.546;1" dur="0.865s" fill="freeze" begin="0s;9676.click" /></path><path d="M17.12,21c0.81,0.81,0.96,2,0.96,3.75c0,6.8,0.02,45.67,0.03,62.75c0,4.59,0,7.6,0,8" stroke-dasharray="74.726" stroke-dashoffset="74.726"><animate attributeName="stroke-dashoffset" values="74.726" fill="freeze" begin="9676.click" /><animate attributeName="stroke-dashoffset" values="74.726;74.726;0" keyTimes="0;0.606;1" dur="1.427s" fill="freeze" begin="0s;9676.click" /></path><path d="M55.03,15.75c0.04,0.6,0,1.59-0.32,2.4c-2.46,6.1-6.08,13.72-12.96,22.23" stroke-dasharray="28.273" stroke-dashoffset="28.273"><animate attributeName="stroke-dashoffset" values="28.273" fill="freeze" begin="9676.click" /><animate attributeName="stroke-dashoffset" values="28.273;28.273;0" keyTimes="0;0.835;1" dur="1.71s" fill="freeze" begin="0s;9676.click" /></path><path d="M52,30.5c3,0.75,4.85,0.51,6.88,0.16c6.73-1.15,25.16-4.49,29.52-5.16c3.91-0.6,6.02,0.25,5.9,4.5c-0.5,17.69-1.05,37.12-5.7,56.66c-1.34,5.63-4.85,10.83-9.32,4.84" stroke-dasharray="117.8" stroke-dashoffset="117.8"><animate attributeName="stroke-dashoffset" values="117.8" fill="freeze" begin="9676.click" /><animate attributeName="stroke-dashoffset" values="117.8;117.8;0" keyTimes="0;0.659;1" dur="2.596s" fill="freeze" begin="0s;9676.click" /></path><path d="M54.49,38.89c0.12,0.78,0.04,1.52-0.22,2.24c-1.27,4.13-3.97,9.4-8.16,15.11" stroke-dasharray="19.523" stroke-dashoffset="19.523"><animate attributeName="stroke-dashoffset" values="19.523" fill="freeze" begin="9676.click" /><animate attributeName="stroke-dashoffset" values="19.523;19.523;0" keyTimes="0;0.93;1" dur="2.791s" fill="freeze" begin="0s;9676.click" /></path><path d="M55.11,47.68c1.17,0.1,2.26,0.03,3.41-0.18c5.47-0.97,10.74-2.01,15.74-2.9c1.64-0.29,3.14-0.73,4.76-0.22" stroke-dasharray="24.252" stroke-dashoffset="24.252"><animate attributeName="stroke-dashoffset" values="24.252" fill="freeze" begin="9676.click" /><animate attributeName="stroke-dashoffset" values="24.252;24.252;0" keyTimes="0;0.92;1" dur="3.034s" fill="freeze" begin="0s;9676.click" /></path><path d="M43.38,62.05c1.58,0.82,4.47,0.57,6.15,0.28c8.72-1.46,16.72-2.84,27.11-3.93c1.93-0.2,4.12-0.59,5.99,0" stroke-dasharray="39.678" stroke-dashoffset="39.678"><animate attributeName="stroke-dashoffset" values="39.678" fill="freeze" begin="9676.click" /><animate attributeName="stroke-dashoffset" values="39.678;39.678;0" keyTimes="0;0.884;1" dur="3.431s" fill="freeze" begin="0s;9676.click" /></path><path d="M60.99,48.54c0.8,0.8,1.04,1.89,1.04,3c0,3.9-0.03,22.35-0.03,26.33" stroke-dasharray="29.593" stroke-dashoffset="29.593"><animate attributeName="stroke-dashoffset" values="29.593" fill="freeze" begin="9676.click" /><animate attributeName="stroke-dashoffset" values="29.593;29.593;0" keyTimes="0;0.921;1" dur="3.727s" fill="freeze" begin="0s;9676.click" /></path><path d="M46.8,70.19c0.75,0.75,0.99,1.69,0.78,2.66c-0.58,2.77-1.12,5.55-2,7.64c-0.58,1.38,0.57,2.49,2.07,2.09c9.09-2.46,16.78-4.13,27.55-5.28" stroke-dasharray="42.677" stroke-dashoffset="42.677"><animate attributeName="stroke-dashoffset" values="42.677" fill="freeze" begin="9676.click" /><animate attributeName="stroke-dashoffset" values="42.677;42.677;0" keyTimes="0;0.897;1" dur="4.154s" fill="freeze" begin="0s;9676.click" /></path><path d="M76.24,65.81c0.79,0.79,0.88,2.07,0.78,3.25c-0.23,2.6-0.37,5.05-0.81,9.22c-0.11,1.04-0.23,2.15-0.36,3.36" stroke-dasharray="16.085" stroke-dashoffset="16.085"><animate attributeName="stroke-dashoffset" values="16.085" fill="freeze" begin="9676.click" /><animate attributeName="stroke-dashoffset" values="16.085;16.085;0" keyTimes="0;0.963;1" dur="4.315s" fill="freeze" begin="0s;9676.click" /></path></g></svg>