<svg xmlns="http://www.w3.org/2000/svg" viewBox="0 0 109 109" id="96ea"><g fill="none" stroke="#666" stroke-width="6" stroke-linecap="round" stroke-linejoin="round"><g><g><path d="M30.3,17.75c1.99,0.19,4.32,0.06,6.11-0.13C47,16.5,63.12,14.5,73.79,13.82c2.52-0.16,4.62-0.16,6.94,0.11" /><path d="M19.13,30.26c-0.21,5.23-2.03,10.97-3.37,16.26" /><path d="M20.02,32.66c15.86-2.03,51.76-6.3,68.93-7.13c11.07-0.53,1.22,7.12-0.29,8.94" /><path d="M52.65,18.92c1.15,1.15,1.61,2.83,1.61,4.57c0,3.62,0.08,17.53,0.11,25.25c0.01,2.43,0.02,4.15,0.02,4.58" /><path d="M32.73,38.9c3.62,0.74,8.54,2.95,10.52,4.17" /><path d="M29.33,47.1c3.77,0.75,9.61,3.5,11.67,4.75" /><path d="M66.56,34.1c4.13,1.22,8.75,3.64,10.44,4.68" /><path d="M66.12,44.62c3.71,0.91,8.77,3.66,10.79,5.19" /></g><g><path d="M29.41,61.93c2.47,1.07,4.77,1.19,7.87,0.77c14.22-1.95,29.22-3,39.71-4.03c3.21-0.32,5.45,1.48,4.96,4.45c-1.11,6.65-2.32,16.37-3.74,26.12" /><path d="M29.89,76.19c2.11,1.06,4.69,1.23,7.11,0.96c13.56-1.49,33.99-3.4,42.96-3.97" /><path d="M27.88,93.44c2.12,0.68,4.38,0.94,6.91,0.72C47,93.11,62.36,91.46,74.25,90.4c2.4-0.21,5.06-0.46,7.46,0.02" /></g></g></g><g fill="none" stroke="#000" stroke-width="3" stroke-linecap="round" stroke-linejoin="round"><path d="M30.3,17.75c1.99,0.19,4.32,0.06,6.11-0.13C47,16.5,63.12,14.5,73.79,13.82c2.52-0.16,4.62-0.16,6.94,0.11" stroke-dasharray="50.648" stroke-dashoffset="50.648"><animate attributeName="stroke-dashoffset" values="50.648;50.648;0" dur="0.506s" fill="freeze" begin="0s;96ea.click" /></path><path d="M19.13,30.26c-0.21,5.23-2.03,10.97-3.37,16.26" stroke-dasharray="16.64" stroke-dashoffset="16.64"><animate attributeName="stroke-dashoffset" values="16.64" fill="freeze" begin="96ea.click" /><animate attributeName="stroke-dashoffset" values="16.64;16.64;0" keyTimes="0;0.753;1" dur="0.672s" fill="freeze" begin="0s;96ea.click" /></path><path d="M20.02,32.66c15.86-2.03,51.76-6.3,68.93-7.13c11.07-0.53,1.22,7.12-0.29,8.94" stroke-dasharray="84.494" stroke-dashoffset="84.494"><animate attributeName="stroke-dashoffset" values="84.494" fill="freeze" begin="96ea.click" /><animate attributeName="stroke-dashoffset" values="84.494;84.494;0" keyTimes="0;0.514;1" dur="1.307s" fill="freeze" begin="0s;96ea.click" /></path><path d="M52.65,18.92c1.15,1.15,1.61,2.83,1.61,4.57c0,3.62,0.08,17.53,0.11,25.25c0.01,2.43,0.02,4.15,0.02,4.58" stroke-dasharray="34.804" stroke-dashoffset="34.804"><animate attributeName="stroke-dashoffset" values="34.804" fill="freeze" begin="96ea.click" /><animate attributeName="stroke-dashoffset" values="34.804;34.804;0" keyTimes="0;0.79;1" dur="1.655s" fill="freeze" begin="0s;96ea.click" /></path><path d="M32.73,38.9c3.62,0.74,8.54,2.95,10.52,4.17" stroke-dasharray="11.358" stroke-dashoffset="11.358"><animate attributeName="stroke-dashoffset" values="11.358" fill="freeze" begin="96ea.click" /><animate attributeName="stroke-dashoffset" values="11.358;11.358;0" keyTimes="0;0.879;1" dur="1.882s" fill="freeze" begin="0s;96ea.click" /></path><path d="M29.33,47.1c3.77,0.75,9.61,3.5,11.67,4.75" stroke-dasharray="12.643" stroke-dashoffset="12.643"><animate attributeName="stroke-dashoffset" values="12.643" fill="freeze" begin="96ea.click" /><animate attributeName="stroke-dashoffset" values="12.643;12.643;0" keyTimes="0;0.881;1" dur="2.135s" fill="freeze" begin="0s;96ea.click" /></path><path d="M66.56,34.1c4.13,1.22,8.75,3.64,10.44,4.68" stroke-dasharray="11.468" stroke-dashoffset="11.468"><animate attributeName="stroke-dashoffset" values="11.468" fill="freeze" begin="96ea.click" /><animate attributeName="stroke-dashoffset" values="11.468;11.468;0" keyTimes="0;0.903;1" dur="2.364s" fill="freeze" begin="0s;96ea.click" /></path><path d="M66.12,44.62c3.71,0.91,8.77,3.66,10.79,5.19" stroke-dasharray="12.033" stroke-dashoffset="12.033"><animate attributeName="stroke-dashoffset" values="12.033" fill="freeze" begin="96ea.click" /><animate attributeName="stroke-dashoffset" values="12.033;12.033;0" keyTimes="0;0.907;1" dur="2.605s" fill="freeze" begin="0s;96ea.click" /></path><path d="M29.41,61.93c2.47,1.07,4.77,1.19,7.87,0.77c14.22-1.95,29.22-3,39.71-4.03c3.21-0.32,5.45,1.48,4.96,4.45c-1.11,6.65-2.32,16.37-3.74,26.12" stroke-dasharray="82.226" stroke-dashoffset="82.226"><animate attributeName="stroke-dashoffset" values="82.226" fill="freeze" begin="96ea.click" /><animate attributeName="stroke-dashoffset" values="82.226;82.226;0" keyTimes="0;0.808;1" dur="3.223s" fill="freeze" begin="0s;96ea.click" /></path><path d="M29.89,76.19c2.11,1.06,4.69,1.23,7.11,0.96c13.56-1.49,33.99-3.4,42.96-3.97" stroke-dasharray="50.419" stroke-dashoffset="50.419"><animate attributeName="stroke-dashoffset" values="50.419" fill="freeze" begin="96ea.click" /><animate attributeName="stroke-dashoffset" values="50.419;50.419;0" keyTimes="0;0.865;1" dur="3.727s" fill="freeze" begin="0s;96ea.click" /></path><path d="M27.88,93.44c2.12,0.68,4.38,0.94,6.91,0.72C47,93.11,62.36,91.46,74.25,90.4c2.4-0.21,5.06-0.46,7.46,0.02" stroke-dasharray="54.121" stroke-dashoffset="54.121"><animate attributeName="stroke-dashoffset" values="54.121" fill="freeze" begin="96ea.click" /><animate attributeName="stroke-dashoffset" values="54.121;54.121;0" keyTimes="0;0.873;1" dur="4.268s" fill="freeze" begin="0s;96ea.click" /></path></g></svg>