<svg xmlns="http://www.w3.org/2000/svg" viewBox="0 0 109 109" id="96eb"><g fill="none" stroke="#666" stroke-width="6" stroke-linecap="round" stroke-linejoin="round"><g><g><path d="M33.66,13.81c2.62,0.51,5.21,0.33,7.84,0.12c6.91-0.56,16.69-1.66,23.38-2.11c2.64-0.22,5.29-0.25,7.93-0.09" /><path d="M19.93,24.42c-0.26,5.08-2.57,10.96-4.28,16.09" /><path d="M20.85,26.82c27.77-2.45,39.4-4.32,67.05-5.09c13.1-0.36,1.17,6.58-0.28,8.18" /><path d="M52.42,15.82c0.91,1.36,1.31,2.26,1.33,3.6c0.01,0.48-0.27,23.27-0.27,24.59" /><path d="M32.5,30.93c2.99,0.68,7.08,2.71,8.71,3.83" /><path d="M30,40.51c3.08,0.72,7.84,3.37,9.52,4.57" /><path d="M66.75,28.93c3.56,0.93,7.6,2.79,9.03,3.57" /><path d="M66.04,39.23c3.46,1.15,6.87,3.4,8.45,4.71" /></g><g><g><path d="M18.11,54.93c4.15,0.92,8.23,0.39,12.51-0.08c12.95-1.42,33.26-3.1,46.89-3.67c4.22-0.17,8.37-0.19,12.14,0.88" /></g><g><path d="M52.35,55.57c0.85,0.85,1.16,2.05,1.16,3.87c0,6.8,0,20.07,0,31.06c0,3.6,0,6.95,0,9.75" /><path d="M57.92,65.51C70.25,72.88,75.25,77.12,78,81.27" /></g></g></g></g><g fill="none" stroke="#000" stroke-width="3" stroke-linecap="round" stroke-linejoin="round"><path d="M33.66,13.81c2.62,0.51,5.21,0.33,7.84,0.12c6.91-0.56,16.69-1.66,23.38-2.11c2.64-0.22,5.29-0.25,7.93-0.09" stroke-dasharray="39.281" stroke-dashoffset="39.281"><animate attributeName="stroke-dashoffset" values="39.281;39.281;0" dur="0.393s" fill="freeze" begin="0s;96eb.click" /></path><path d="M19.93,24.42c-0.26,5.08-2.57,10.96-4.28,16.09" stroke-dasharray="16.703" stroke-dashoffset="16.703"><animate attributeName="stroke-dashoffset" values="16.703" fill="freeze" begin="96eb.click" /><animate attributeName="stroke-dashoffset" values="16.703;16.703;0" keyTimes="0;0.702;1" dur="0.56s" fill="freeze" begin="0s;96eb.click" /></path><path d="M20.85,26.82c27.77-2.45,39.4-4.32,67.05-5.09c13.1-0.36,1.17,6.58-0.28,8.18" stroke-dasharray="83.292" stroke-dashoffset="83.292"><animate attributeName="stroke-dashoffset" values="83.292" fill="freeze" begin="96eb.click" /><animate attributeName="stroke-dashoffset" values="83.292;83.292;0" keyTimes="0;0.472;1" dur="1.186s" fill="freeze" begin="0s;96eb.click" /></path><path d="M52.42,15.82c0.91,1.36,1.31,2.26,1.33,3.6c0.01,0.48-0.27,23.27-0.27,24.59" stroke-dasharray="28.495" stroke-dashoffset="28.495"><animate attributeName="stroke-dashoffset" values="28.495" fill="freeze" begin="96eb.click" /><animate attributeName="stroke-dashoffset" values="28.495;28.495;0" keyTimes="0;0.806;1" dur="1.471s" fill="freeze" begin="0s;96eb.click" /></path><path d="M32.5,30.93c2.99,0.68,7.08,2.71,8.71,3.83" stroke-dasharray="9.556" stroke-dashoffset="9.556"><animate attributeName="stroke-dashoffset" values="9.556" fill="freeze" begin="96eb.click" /><animate attributeName="stroke-dashoffset" values="9.556;9.556;0" keyTimes="0;0.885;1" dur="1.662s" fill="freeze" begin="0s;96eb.click" /></path><path d="M30,40.51c3.08,0.72,7.84,3.37,9.52,4.57" stroke-dasharray="10.606" stroke-dashoffset="10.606"><animate attributeName="stroke-dashoffset" values="10.606" fill="freeze" begin="96eb.click" /><animate attributeName="stroke-dashoffset" values="10.606;10.606;0" keyTimes="0;0.887;1" dur="1.874s" fill="freeze" begin="0s;96eb.click" /></path><path d="M66.75,28.93c3.56,0.93,7.6,2.79,9.03,3.57" stroke-dasharray="9.729" stroke-dashoffset="9.729"><animate attributeName="stroke-dashoffset" values="9.729" fill="freeze" begin="96eb.click" /><animate attributeName="stroke-dashoffset" values="9.729;9.729;0" keyTimes="0;0.906;1" dur="2.069s" fill="freeze" begin="0s;96eb.click" /></path><path d="M66.04,39.23c3.46,1.15,6.87,3.4,8.45,4.71" stroke-dasharray="9.722" stroke-dashoffset="9.722"><animate attributeName="stroke-dashoffset" values="9.722" fill="freeze" begin="96eb.click" /><animate attributeName="stroke-dashoffset" values="9.722;9.722;0" keyTimes="0;0.914;1" dur="2.263s" fill="freeze" begin="0s;96eb.click" /></path><path d="M18.11,54.93c4.15,0.92,8.23,0.39,12.51-0.08c12.95-1.42,33.26-3.1,46.89-3.67c4.22-0.17,8.37-0.19,12.14,0.88" stroke-dasharray="71.838" stroke-dashoffset="71.838"><animate attributeName="stroke-dashoffset" values="71.838" fill="freeze" begin="96eb.click" /><animate attributeName="stroke-dashoffset" values="71.838;71.838;0" keyTimes="0;0.807;1" dur="2.803s" fill="freeze" begin="0s;96eb.click" /></path><path d="M52.35,55.57c0.85,0.85,1.16,2.05,1.16,3.87c0,6.8,0,20.07,0,31.06c0,3.6,0,6.95,0,9.75" stroke-dasharray="44.962" stroke-dashoffset="44.962"><animate attributeName="stroke-dashoffset" values="44.962" fill="freeze" begin="96eb.click" /><animate attributeName="stroke-dashoffset" values="44.962;44.962;0" keyTimes="0;0.862;1" dur="3.253s" fill="freeze" begin="0s;96eb.click" /></path><path d="M57.92,65.51C70.25,72.88,75.25,77.12,78,81.27" stroke-dasharray="25.713" stroke-dashoffset="25.713"><animate attributeName="stroke-dashoffset" values="25.713" fill="freeze" begin="96eb.click" /><animate attributeName="stroke-dashoffset" values="25.713;25.713;0" keyTimes="0;0.927;1" dur="3.51s" fill="freeze" begin="0s;96eb.click" /></path></g></svg>