<svg xmlns="http://www.w3.org/2000/svg" viewBox="0 0 109 109" id="9742"><g fill="none" stroke="#666" stroke-width="6" stroke-linecap="round" stroke-linejoin="round"><g><g><path d="M30.91,14.18c1.48,0.06,4.22,0.31,5.66,0.16c7.7-0.78,27.6-2.72,34.54-2.83c2.03-0.03,2.6-0.15,4.46,0.1" /><path d="M19.18,21.92C18.91,27,16.6,32.63,14.9,37.77" /><path d="M20.35,24.82c7.15-0.57,51.68-4.84,66.53-4.84c8.6,0,0.6,7.33-0.77,8.93" /><path d="M52.92,13.82c0.91,1.36,1.31,2.26,1.33,3.6c0.01,0.48-0.27,21.77-0.27,23.09" /><path d="M33.25,28.94c3.08,0.76,7.28,3.05,8.96,4.31" /><path d="M29.5,37.01c3.08,0.72,7.84,3.37,9.52,4.57" /><path d="M67.75,25.75c3.96,1.22,8.44,3.67,10.03,4.69" /><path d="M66.29,35.23c3.33,0.96,7.88,3.86,9.7,5.46" /></g><g><g><path d="M23.2,48.32c1.48,0.51,4.18,0.61,5.66,0.51C41.25,48,67,45,82.17,45.3c2.46,0.05,3.94,0.24,5.17,0.5" /><path d="M26.12,49.24c0.04,1.14-0.08,2.93-0.08,4.57c0,21.64-3.01,34.65-13.49,43.36" /></g><g><g><g><path d="M51.39,49.66c0.04,0.17,0.1,0.44-0.09,0.68c-1.1,1.44-7.43,4.59-16.1,6.52" /></g><g><path d="M31.9,61.78c0.28,0.11,1.41,0.37,2.16,0.32c5.19-0.35,14.44-1.85,19.97-2.66c0.74-0.11,1.69,0.13,2.16,0.23" /><path d="M43.31,56.82c0.32,0.15,0.51,0.67,0.57,0.97c0.06,0.3,0,15.33-0.06,17.18" /><path d="M42.89,61.3c-2.32,4.44-5.99,8.91-11.52,11.41" /><path d="M45.93,63.67c2.94,0.98,6.3,2.83,7.63,5.03" /></g></g><g><g><path d="M79.27,48.94c0.04,0.14,0.09,0.36-0.09,0.56c-1.05,1.17-7.08,3.74-15.32,5.32" /></g><g><path d="M61.68,59.96c0.27,0.08,1.33,0.31,2.04,0.25c3.19-0.25,16.94-1.96,22.35-2.19c0.71-0.03,1.6,0.1,2.04,0.18" /><path d="M72.89,54.43c0.31,0.12,0.49,0.55,0.55,0.8c0.06,0.25,0,17.43-0.06,18.97" /><path d="M72.17,59.38c-2.65,3.77-8.38,8.77-13.06,11.5" /><path d="M73.86,60.36c2.27,1.5,12.66,8.62,15.13,10.1c0.84,0.5,1.55,0.72,2.39,0.86" /></g></g></g><g><g><path d="M55.74,75.77c1,0.32,1.6,1.45,1.8,2.1c0.2,0.64,0.54,13.23,0.34,17.27" /><path d="M58,83.13c7.14-0.29,10.5-1.46,18.02-1.66c1.75-0.04,2.18-0.1,3.28,0" /></g><path d="M39.44,79.18c0.96,0.31,1.53,1.39,1.72,2.01s0.4,11.5,0.21,15.36" /><path d="M23.71,96.33c0.72,0.4,2.65,1.3,4.58,1.21c10.57-0.47,41.54-3.26,56.82-3.31c1.93-0.01,5.28,0.81,6.38,1.21" /></g></g></g></g><g fill="none" stroke="#000" stroke-width="3" stroke-linecap="round" stroke-linejoin="round"><path d="M30.91,14.18c1.48,0.06,4.22,0.31,5.66,0.16c7.7-0.78,27.6-2.72,34.54-2.83c2.03-0.03,2.6-0.15,4.46,0.1" stroke-dasharray="44.797" stroke-dashoffset="44.797"><animate attributeName="stroke-dashoffset" values="44.797;44.797;0" dur="0.448s" fill="freeze" begin="0s;9742.click" /></path><path d="M19.18,21.92C18.91,27,16.6,32.63,14.9,37.77" stroke-dasharray="16.471" stroke-dashoffset="16.471"><animate attributeName="stroke-dashoffset" values="16.471" fill="freeze" begin="9742.click" /><animate attributeName="stroke-dashoffset" values="16.471;16.471;0" keyTimes="0;0.731;1" dur="0.613s" fill="freeze" begin="0s;9742.click" /></path><path d="M20.35,24.82c7.15-0.57,51.68-4.84,66.53-4.84c8.6,0,0.6,7.33-0.77,8.93" stroke-dasharray="80.142" stroke-dashoffset="80.142"><animate attributeName="stroke-dashoffset" values="80.142" fill="freeze" begin="9742.click" /><animate attributeName="stroke-dashoffset" values="80.142;80.142;0" keyTimes="0;0.504;1" dur="1.216s" fill="freeze" begin="0s;9742.click" /></path><path d="M52.92,13.82c0.91,1.36,1.31,2.26,1.33,3.6c0.01,0.48-0.27,21.77-0.27,23.09" stroke-dasharray="26.995" stroke-dashoffset="26.995"><animate attributeName="stroke-dashoffset" values="26.995" fill="freeze" begin="9742.click" /><animate attributeName="stroke-dashoffset" values="26.995;26.995;0" keyTimes="0;0.818;1" dur="1.486s" fill="freeze" begin="0s;9742.click" /></path><path d="M33.25,28.94c3.08,0.76,7.28,3.05,8.96,4.31" stroke-dasharray="9.991" stroke-dashoffset="9.991"><animate attributeName="stroke-dashoffset" values="9.991" fill="freeze" begin="9742.click" /><animate attributeName="stroke-dashoffset" values="9.991;9.991;0" keyTimes="0;0.881;1" dur="1.686s" fill="freeze" begin="0s;9742.click" /></path><path d="M29.5,37.01c3.08,0.72,7.84,3.37,9.52,4.57" stroke-dasharray="10.606" stroke-dashoffset="10.606"><animate attributeName="stroke-dashoffset" values="10.606" fill="freeze" begin="9742.click" /><animate attributeName="stroke-dashoffset" values="10.606;10.606;0" keyTimes="0;0.888;1" dur="1.898s" fill="freeze" begin="0s;9742.click" /></path><path d="M67.75,25.75c3.96,1.22,8.44,3.67,10.03,4.69" stroke-dasharray="11.099" stroke-dashoffset="11.099"><animate attributeName="stroke-dashoffset" values="11.099" fill="freeze" begin="9742.click" /><animate attributeName="stroke-dashoffset" values="11.099;11.099;0" keyTimes="0;0.895;1" dur="2.12s" fill="freeze" begin="0s;9742.click" /></path><path d="M66.29,35.23c3.33,0.96,7.88,3.86,9.7,5.46" stroke-dasharray="11.196" stroke-dashoffset="11.196"><animate attributeName="stroke-dashoffset" values="11.196" fill="freeze" begin="9742.click" /><animate attributeName="stroke-dashoffset" values="11.196;11.196;0" keyTimes="0;0.904;1" dur="2.344s" fill="freeze" begin="0s;9742.click" /></path><path d="M23.2,48.32c1.48,0.51,4.18,0.61,5.66,0.51C41.25,48,67,45,82.17,45.3c2.46,0.05,3.94,0.24,5.17,0.5" stroke-dasharray="64.36" stroke-dashoffset="64.36"><animate attributeName="stroke-dashoffset" values="64.36" fill="freeze" begin="9742.click" /><animate attributeName="stroke-dashoffset" values="64.36;64.36;0" keyTimes="0;0.829;1" dur="2.828s" fill="freeze" begin="0s;9742.click" /></path><path d="M26.12,49.24c0.04,1.14-0.08,2.93-0.08,4.57c0,21.64-3.01,34.65-13.49,43.36" stroke-dasharray="51.582" stroke-dashoffset="51.582"><animate attributeName="stroke-dashoffset" values="51.582" fill="freeze" begin="9742.click" /><animate attributeName="stroke-dashoffset" values="51.582;51.582;0" keyTimes="0;0.846;1" dur="3.344s" fill="freeze" begin="0s;9742.click" /></path><path d="M51.39,49.66c0.04,0.17,0.1,0.44-0.09,0.68c-1.1,1.44-7.43,4.59-16.1,6.52" stroke-dasharray="18.242" stroke-dashoffset="18.242"><animate attributeName="stroke-dashoffset" values="18.242" fill="freeze" begin="9742.click" /><animate attributeName="stroke-dashoffset" values="18.242;18.242;0" keyTimes="0;0.948;1" dur="3.526s" fill="freeze" begin="0s;9742.click" /></path><path d="M31.9,61.78c0.28,0.11,1.41,0.37,2.16,0.32c5.19-0.35,14.44-1.85,19.97-2.66c0.74-0.11,1.69,0.13,2.16,0.23" stroke-dasharray="24.53" stroke-dashoffset="24.53"><animate attributeName="stroke-dashoffset" values="24.53" fill="freeze" begin="9742.click" /><animate attributeName="stroke-dashoffset" values="24.53;24.53;0" keyTimes="0;0.935;1" dur="3.771s" fill="freeze" begin="0s;9742.click" /></path><path d="M43.31,56.82c0.32,0.15,0.51,0.67,0.57,0.97c0.06,0.3,0,15.33-0.06,17.18" stroke-dasharray="18.341" stroke-dashoffset="18.341"><animate attributeName="stroke-dashoffset" values="18.341" fill="freeze" begin="9742.click" /><animate attributeName="stroke-dashoffset" values="18.341;18.341;0" keyTimes="0;0.954;1" dur="3.954s" fill="freeze" begin="0s;9742.click" /></path><path d="M42.89,61.3c-2.32,4.44-5.99,8.91-11.52,11.41" stroke-dasharray="16.523" stroke-dashoffset="16.523"><animate attributeName="stroke-dashoffset" values="16.523" fill="freeze" begin="9742.click" /><animate attributeName="stroke-dashoffset" values="16.523;16.523;0" keyTimes="0;0.96;1" dur="4.119s" fill="freeze" begin="0s;9742.click" /></path><path d="M45.93,63.67c2.94,0.98,6.3,2.83,7.63,5.03" stroke-dasharray="9.3" stroke-dashoffset="9.3"><animate attributeName="stroke-dashoffset" values="9.3" fill="freeze" begin="9742.click" /><animate attributeName="stroke-dashoffset" values="9.3;9.3;0" keyTimes="0;0.957;1" dur="4.305s" fill="freeze" begin="0s;9742.click" /></path><path d="M79.27,48.94c0.04,0.14,0.09,0.36-0.09,0.56c-1.05,1.17-7.08,3.74-15.32,5.32" stroke-dasharray="16.932" stroke-dashoffset="16.932"><animate attributeName="stroke-dashoffset" values="16.932" fill="freeze" begin="9742.click" /><animate attributeName="stroke-dashoffset" values="16.932;16.932;0" keyTimes="0;0.962;1" dur="4.474s" fill="freeze" begin="0s;9742.click" /></path><path d="M61.68,59.96c0.27,0.08,1.33,0.31,2.04,0.25c3.19-0.25,16.94-1.96,22.35-2.19c0.71-0.03,1.6,0.1,2.04,0.18" stroke-dasharray="26.576" stroke-dashoffset="26.576"><animate attributeName="stroke-dashoffset" values="26.576" fill="freeze" begin="9742.click" /><animate attributeName="stroke-dashoffset" values="26.576;26.576;0" keyTimes="0;0.944;1" dur="4.74s" fill="freeze" begin="0s;9742.click" /></path><path d="M72.89,54.43c0.31,0.12,0.49,0.55,0.55,0.8c0.06,0.25,0,17.43-0.06,18.97" stroke-dasharray="19.976" stroke-dashoffset="19.976"><animate attributeName="stroke-dashoffset" values="19.976" fill="freeze" begin="9742.click" /><animate attributeName="stroke-dashoffset" values="19.976;19.976;0" keyTimes="0;0.96;1" dur="4.94s" fill="freeze" begin="0s;9742.click" /></path><path d="M72.17,59.38c-2.65,3.77-8.38,8.77-13.06,11.5" stroke-dasharray="17.506" stroke-dashoffset="17.506"><animate attributeName="stroke-dashoffset" values="17.506" fill="freeze" begin="9742.click" /><animate attributeName="stroke-dashoffset" values="17.506;17.506;0" keyTimes="0;0.966;1" dur="5.115s" fill="freeze" begin="0s;9742.click" /></path><path d="M73.86,60.36c2.27,1.5,12.66,8.62,15.13,10.1c0.84,0.5,1.55,0.72,2.39,0.86" stroke-dasharray="20.75" stroke-dashoffset="20.75"><animate attributeName="stroke-dashoffset" values="20.75" fill="freeze" begin="9742.click" /><animate attributeName="stroke-dashoffset" values="20.75;20.75;0" keyTimes="0;0.961;1" dur="5.322s" fill="freeze" begin="0s;9742.click" /></path><path d="M55.74,75.77c1,0.32,1.6,1.45,1.8,2.1c0.2,0.64,0.54,13.23,0.34,17.27" stroke-dasharray="20.147" stroke-dashoffset="20.147"><animate attributeName="stroke-dashoffset" values="20.147" fill="freeze" begin="9742.click" /><animate attributeName="stroke-dashoffset" values="20.147;20.147;0" keyTimes="0;0.964;1" dur="5.523s" fill="freeze" begin="0s;9742.click" /></path><path d="M58,83.13c7.14-0.29,10.5-1.46,18.02-1.66c1.75-0.04,2.18-0.1,3.28,0" stroke-dasharray="21.389" stroke-dashoffset="21.389"><animate attributeName="stroke-dashoffset" values="21.389" fill="freeze" begin="9742.click" /><animate attributeName="stroke-dashoffset" values="21.389;21.389;0" keyTimes="0;0.963;1" dur="5.737s" fill="freeze" begin="0s;9742.click" /></path><path d="M39.44,79.18c0.96,0.31,1.53,1.39,1.72,2.01s0.4,11.5,0.21,15.36" stroke-dasharray="18.11" stroke-dashoffset="18.11"><animate attributeName="stroke-dashoffset" values="18.11" fill="freeze" begin="9742.click" /><animate attributeName="stroke-dashoffset" values="18.11;18.11;0" keyTimes="0;0.969;1" dur="5.918s" fill="freeze" begin="0s;9742.click" /></path><path d="M23.71,96.33c0.72,0.4,2.65,1.3,4.58,1.21c10.57-0.47,41.54-3.26,56.82-3.31c1.93-0.01,5.28,0.81,6.38,1.21" stroke-dasharray="68.232" stroke-dashoffset="68.232"><animate attributeName="stroke-dashoffset" values="68.232" fill="freeze" begin="9742.click" /><animate attributeName="stroke-dashoffset" values="68.232;68.232;0" keyTimes="0;0.92;1" dur="6.431s" fill="freeze" begin="0s;9742.click" /></path></g></svg>