<svg xmlns="http://www.w3.org/2000/svg" viewBox="0 0 109 109" id="975e"><g fill="none" stroke="#666" stroke-width="6" stroke-linecap="round" stroke-linejoin="round"><g><g><path d="M42.12,14.75c0.75,0.75,1.43,2.23,1.46,3.25c1.55,50.38-0.2,64.5-14.08,80.75" /><path d="M20.75,35.75c1.75,0.38,3.23,0.36,4.75,0.25c3.38-0.25,9.25-1.25,15-2.5" /><path d="M20.25,52.5c1.38,0.25,3.24,0.19,4.75,0c3-0.38,11.12-2.12,16-3.5" /><path d="M14.25,72.66c0.98,0.98,2.35,1.24,3.83,0.65c4.17-1.68,17.34-6.63,21.55-8.18" /></g><g><path d="M64.37,12.25c1,1,1.46,2.5,1.46,4c0,0.85-0.11,51.5-0.11,73.25c0,4.36-0.07,7.43-0.11,8.5" /><path d="M69.25,30c4.5-0.38,14.5-2.25,18.25-3.25c1.21-0.32,2.75-0.38,4.25-0.12" /><path d="M69.12,47c4.38-0.12,14.62-2.12,18-2.75c1.23-0.23,2.62-0.38,4-0.12" /><path d="M69,67.88c4.5-0.38,18.62-2.62,22-3.25c1.23-0.23,2.62-0.38,4-0.12" /></g></g></g><g fill="none" stroke="#000" stroke-width="3" stroke-linecap="round" stroke-linejoin="round"><path d="M42.12,14.75c0.75,0.75,1.43,2.23,1.46,3.25c1.55,50.38-0.2,64.5-14.08,80.75" stroke-dasharray="87.742" stroke-dashoffset="87.742"><animate attributeName="stroke-dashoffset" values="87.742;87.742;0" dur="0.66s" fill="freeze" begin="0s;975e.click" /></path><path d="M20.75,35.75c1.75,0.38,3.23,0.36,4.75,0.25c3.38-0.25,9.25-1.25,15-2.5" stroke-dasharray="19.992" stroke-dashoffset="19.992"><animate attributeName="stroke-dashoffset" values="19.992" fill="freeze" begin="975e.click" /><animate attributeName="stroke-dashoffset" values="19.992;19.992;0" keyTimes="0;0.767;1" dur="0.86s" fill="freeze" begin="0s;975e.click" /></path><path d="M20.25,52.5c1.38,0.25,3.24,0.19,4.75,0c3-0.38,11.12-2.12,16-3.5" stroke-dasharray="21.154" stroke-dashoffset="21.154"><animate attributeName="stroke-dashoffset" values="21.154" fill="freeze" begin="975e.click" /><animate attributeName="stroke-dashoffset" values="21.154;21.154;0" keyTimes="0;0.802;1" dur="1.072s" fill="freeze" begin="0s;975e.click" /></path><path d="M14.25,72.66c0.98,0.98,2.35,1.24,3.83,0.65c4.17-1.68,17.34-6.63,21.55-8.18" stroke-dasharray="27.184" stroke-dashoffset="27.184"><animate attributeName="stroke-dashoffset" values="27.184" fill="freeze" begin="975e.click" /><animate attributeName="stroke-dashoffset" values="27.184;27.184;0" keyTimes="0;0.798;1" dur="1.344s" fill="freeze" begin="0s;975e.click" /></path><path d="M64.37,12.25c1,1,1.46,2.5,1.46,4c0,0.85-0.11,51.5-0.11,73.25c0,4.36-0.07,7.43-0.11,8.5" stroke-dasharray="86.119" stroke-dashoffset="86.119"><animate attributeName="stroke-dashoffset" values="86.119" fill="freeze" begin="975e.click" /><animate attributeName="stroke-dashoffset" values="86.119;86.119;0" keyTimes="0;0.675;1" dur="1.992s" fill="freeze" begin="0s;975e.click" /></path><path d="M69.25,30c4.5-0.38,14.5-2.25,18.25-3.25c1.21-0.32,2.75-0.38,4.25-0.12" stroke-dasharray="22.834" stroke-dashoffset="22.834"><animate attributeName="stroke-dashoffset" values="22.834" fill="freeze" begin="975e.click" /><animate attributeName="stroke-dashoffset" values="22.834;22.834;0" keyTimes="0;0.897;1" dur="2.22s" fill="freeze" begin="0s;975e.click" /></path><path d="M69.12,47c4.38-0.12,14.62-2.12,18-2.75c1.23-0.23,2.62-0.38,4-0.12" stroke-dasharray="22.248" stroke-dashoffset="22.248"><animate attributeName="stroke-dashoffset" values="22.248" fill="freeze" begin="975e.click" /><animate attributeName="stroke-dashoffset" values="22.248;22.248;0" keyTimes="0;0.909;1" dur="2.442s" fill="freeze" begin="0s;975e.click" /></path><path d="M69,67.88c4.5-0.38,18.62-2.62,22-3.25c1.23-0.23,2.62-0.38,4-0.12" stroke-dasharray="26.269" stroke-dashoffset="26.269"><animate attributeName="stroke-dashoffset" values="26.269" fill="freeze" begin="975e.click" /><animate attributeName="stroke-dashoffset" values="26.269;26.269;0" keyTimes="0;0.903;1" dur="2.705s" fill="freeze" begin="0s;975e.click" /></path></g></svg>