<svg xmlns="http://www.w3.org/2000/svg" viewBox="0 0 109 109" id="980c"><g fill="none" stroke="#666" stroke-width="6" stroke-linecap="round" stroke-linejoin="round"><g><g><g><path d="M25.08,21.19c0.35,1.16,0.08,2.26-0.3,3.36c-2.48,7.12-6.4,14.95-14.51,23.84" /><path d="M35.79,20.75c3.7,2.64,10.63,14.09,12.89,22.15" /></g><g><path d="M30.18,50.68c0.32,1.32,0.13,2.93-0.25,3.84c-3.67,9.01-6.73,17.61-12.01,26.61c-1.78,3.04-0.07,4.48,2.96,3.27c6.32-2.53,13.24-5.28,22.48-8.52" /><path d="M39.38,67.62c3.89,3.29,10.05,13.51,11.02,18.62" /></g></g><g><g><path d="M54.6,17.9c3.03,0.85,5.67,0.51,8.04,0.22c9.28-1.14,18.1-1.88,26.36-2.44c2.05-0.14,3.91-0.23,5.91,0.34" /><path d="M73.32,20.43c0.06,0.74,0.04,1.49-0.27,2.16c-1.55,3.29-3.22,6.99-5.06,9.61" /></g><g><g><path d="M58.87,33.11c0.95,0.95,1.16,1.94,1.16,3.36c0,1.09,0,21.69,0,33.79c0,3.67,0,6.46,0,7.55" /><path d="M60.58,34.39c4.26-0.46,21.02-1.81,26.31-2.13c3.12-0.19,3.89,0.95,3.85,3.99c-0.04,3.73-0.07,22.18-0.09,32.5c0,3.96-0.01,6.73-0.01,7" /><path d="M61.28,46.91c4.66-0.46,22.32-1.57,28.04-1.56" /><path d="M61.15,60.43c6.17-0.46,21.04-1.32,28.35-1.31" /><path d="M61.31,75.23c6.17-0.62,20.32-1.56,28.11-1.54" /></g><g><path d="M66.8,81.29c0,0.96-0.31,2.16-1.18,3.1c-3.25,3.49-8.5,7.36-16.16,11.61" /><path d="M84.58,81.55c4.43,2.98,10.02,9.78,11.23,12.39" /></g></g></g></g></g><g fill="none" stroke="#000" stroke-width="3" stroke-linecap="round" stroke-linejoin="round"><path d="M25.08,21.19c0.35,1.16,0.08,2.26-0.3,3.36c-2.48,7.12-6.4,14.95-14.51,23.84" stroke-dasharray="31.547" stroke-dashoffset="31.547"><animate attributeName="stroke-dashoffset" values="31.547;31.547;0" dur="0.315s" fill="freeze" begin="0s;980c.click" /></path><path d="M35.79,20.75c3.7,2.64,10.63,14.09,12.89,22.15" stroke-dasharray="25.899" stroke-dashoffset="25.899"><animate attributeName="stroke-dashoffset" values="25.899" fill="freeze" begin="980c.click" /><animate attributeName="stroke-dashoffset" values="25.899;25.899;0" keyTimes="0;0.549;1" dur="0.574s" fill="freeze" begin="0s;980c.click" /></path><path d="M30.18,50.68c0.32,1.32,0.13,2.93-0.25,3.84c-3.67,9.01-6.73,17.61-12.01,26.61c-1.78,3.04-0.07,4.48,2.96,3.27c6.32-2.53,13.24-5.28,22.48-8.52" stroke-dasharray="64.104" stroke-dashoffset="64.104"><animate attributeName="stroke-dashoffset" values="64.104" fill="freeze" begin="980c.click" /><animate attributeName="stroke-dashoffset" values="64.104;64.104;0" keyTimes="0;0.544;1" dur="1.056s" fill="freeze" begin="0s;980c.click" /></path><path d="M39.38,67.62c3.89,3.29,10.05,13.51,11.02,18.62" stroke-dasharray="21.875" stroke-dashoffset="21.875"><animate attributeName="stroke-dashoffset" values="21.875" fill="freeze" begin="980c.click" /><animate attributeName="stroke-dashoffset" values="21.875;21.875;0" keyTimes="0;0.828;1" dur="1.275s" fill="freeze" begin="0s;980c.click" /></path><path d="M54.6,17.9c3.03,0.85,5.67,0.51,8.04,0.22c9.28-1.14,18.1-1.88,26.36-2.44c2.05-0.14,3.91-0.23,5.91,0.34" stroke-dasharray="40.534" stroke-dashoffset="40.534"><animate attributeName="stroke-dashoffset" values="40.534" fill="freeze" begin="980c.click" /><animate attributeName="stroke-dashoffset" values="40.534;40.534;0" keyTimes="0;0.759;1" dur="1.68s" fill="freeze" begin="0s;980c.click" /></path><path d="M73.32,20.43c0.06,0.74,0.04,1.49-0.27,2.16c-1.55,3.29-3.22,6.99-5.06,9.61" stroke-dasharray="13.076" stroke-dashoffset="13.076"><animate attributeName="stroke-dashoffset" values="13.076" fill="freeze" begin="980c.click" /><animate attributeName="stroke-dashoffset" values="13.076;13.076;0" keyTimes="0;0.865;1" dur="1.942s" fill="freeze" begin="0s;980c.click" /></path><path d="M58.87,33.11c0.95,0.95,1.16,1.94,1.16,3.36c0,1.09,0,21.69,0,33.79c0,3.67,0,6.46,0,7.55" stroke-dasharray="45.007" stroke-dashoffset="45.007"><animate attributeName="stroke-dashoffset" values="45.007" fill="freeze" begin="980c.click" /><animate attributeName="stroke-dashoffset" values="45.007;45.007;0" keyTimes="0;0.812;1" dur="2.392s" fill="freeze" begin="0s;980c.click" /></path><path d="M60.58,34.39c4.26-0.46,21.02-1.81,26.31-2.13c3.12-0.19,3.89,0.95,3.85,3.99c-0.04,3.73-0.07,22.18-0.09,32.5c0,3.96-0.01,6.73-0.01,7" stroke-dasharray="72.579" stroke-dashoffset="72.579"><animate attributeName="stroke-dashoffset" values="72.579" fill="freeze" begin="980c.click" /><animate attributeName="stroke-dashoffset" values="72.579;72.579;0" keyTimes="0;0.814;1" dur="2.938s" fill="freeze" begin="0s;980c.click" /></path><path d="M61.28,46.91c4.66-0.46,22.32-1.57,28.04-1.56" stroke-dasharray="28.089" stroke-dashoffset="28.089"><animate attributeName="stroke-dashoffset" values="28.089" fill="freeze" begin="980c.click" /><animate attributeName="stroke-dashoffset" values="28.089;28.089;0" keyTimes="0;0.913;1" dur="3.219s" fill="freeze" begin="0s;980c.click" /></path><path d="M61.15,60.43c6.17-0.46,21.04-1.32,28.35-1.31" stroke-dasharray="28.386" stroke-dashoffset="28.386"><animate attributeName="stroke-dashoffset" values="28.386" fill="freeze" begin="980c.click" /><animate attributeName="stroke-dashoffset" values="28.386;28.386;0" keyTimes="0;0.919;1" dur="3.503s" fill="freeze" begin="0s;980c.click" /></path><path d="M61.31,75.23c6.17-0.62,20.32-1.56,28.11-1.54" stroke-dasharray="28.161" stroke-dashoffset="28.161"><animate attributeName="stroke-dashoffset" values="28.161" fill="freeze" begin="980c.click" /><animate attributeName="stroke-dashoffset" values="28.161;28.161;0" keyTimes="0;0.925;1" dur="3.785s" fill="freeze" begin="0s;980c.click" /></path><path d="M66.8,81.29c0,0.96-0.31,2.16-1.18,3.1c-3.25,3.49-8.5,7.36-16.16,11.61" stroke-dasharray="23.368" stroke-dashoffset="23.368"><animate attributeName="stroke-dashoffset" values="23.368" fill="freeze" begin="980c.click" /><animate attributeName="stroke-dashoffset" values="23.368;23.368;0" keyTimes="0;0.942;1" dur="4.019s" fill="freeze" begin="0s;980c.click" /></path><path d="M84.58,81.55c4.43,2.98,10.02,9.78,11.23,12.39" stroke-dasharray="16.842" stroke-dashoffset="16.842"><animate attributeName="stroke-dashoffset" values="16.842" fill="freeze" begin="980c.click" /><animate attributeName="stroke-dashoffset" values="16.842;16.842;0" keyTimes="0;0.96;1" dur="4.187s" fill="freeze" begin="0s;980c.click" /></path></g></svg>