<svg xmlns="http://www.w3.org/2000/svg" viewBox="0 0 109 109" id="98ee"><g fill="none" stroke="#666" stroke-width="6" stroke-linecap="round" stroke-linejoin="round"><g><g p4:phon="食" xmlns:p4="http://kanjivg.tagaini.net"><path d="M31.75,11.64c0.06,0.78,0.3,2.08-0.12,3.13c-2.71,6.87-10.51,20.33-21.57,30.45" /><path d="M33.27,17.83c5.48,2.27,14.17,9.35,15.54,12.88" /><path d="M24.75,33.63c0.4,0.12,1.13,0.15,1.53,0.12c2.54-0.21,10.87-1.76,13.33-1.62c0.66,0.04,1.06,0.06,1.39,0.12" /><path d="M20.77,42.44c0.39,0.78,0.78,1.68,0.78,2.72c0,1.04-0.13,53.29,0,54.34" /><path d="M21.69,44.07c2.2-0.13,18.41-2.67,20.42-2.83c1.67-0.13,2.74,1.45,2.61,2.22c-0.26,1.57-2.47,21.54-3.02,25.01" /><path d="M22.08,56.23c2.97,0,17.36-2.31,20.72-2.31" /><path d="M21.94,68.56C28,68,34.25,66.5,41.79,66.02" /><path d="M21.89,80.06c3.73-0.25,16.46-2.17,20.07-1.99c0.97,0.04,1.56,0.07,2.05,0.14" /><path d="M21.39,92.81c4.03-0.25,15.61-1.31,21.15-1.99c1.04-0.13,1.69,0.07,2.21,0.14" /></g><g><g><path d="M64.25,13c0.04,0.86,0.26,2.26-0.08,3.45c-1.92,6.8-6.37,23.26-13.78,33.05" /><path d="M61.72,32.49c0.91,0.36,2.63,0.9,4.01,0.61C71,32,85.92,29.45,87.5,29.25c8-1-1.33,9.09-3,11" /></g><g><path d="M68.1,40c0.06,1.32,0.14,3.38-0.12,5.28C65.38,63.64,60.35,82.62,46,95.75" /><path d="M66.67,57.75c4.04,8.14,18.64,27.3,25.29,34.03c1.4,1.42,2.46,2.26,3.79,2.72" /></g></g></g></g><g fill="none" stroke="#000" stroke-width="3" stroke-linecap="round" stroke-linejoin="round"><path d="M31.75,11.64c0.06,0.78,0.3,2.08-0.12,3.13c-2.71,6.87-10.51,20.33-21.57,30.45" stroke-dasharray="40.746" stroke-dashoffset="40.746"><animate attributeName="stroke-dashoffset" values="40.746;40.746;0" dur="0.407s" fill="freeze" begin="0s;98ee.click" /></path><path d="M33.27,17.83c5.48,2.27,14.17,9.35,15.54,12.88" stroke-dasharray="20.472" stroke-dashoffset="20.472"><animate attributeName="stroke-dashoffset" values="20.472" fill="freeze" begin="98ee.click" /><animate attributeName="stroke-dashoffset" values="20.472;20.472;0" keyTimes="0;0.665;1" dur="0.612s" fill="freeze" begin="0s;98ee.click" /></path><path d="M24.75,33.63c0.4,0.12,1.13,0.15,1.53,0.12c2.54-0.21,10.87-1.76,13.33-1.62c0.66,0.04,1.06,0.06,1.39,0.12" stroke-dasharray="16.376" stroke-dashoffset="16.376"><animate attributeName="stroke-dashoffset" values="16.376" fill="freeze" begin="98ee.click" /><animate attributeName="stroke-dashoffset" values="16.376;16.376;0" keyTimes="0;0.789;1" dur="0.776s" fill="freeze" begin="0s;98ee.click" /></path><path d="M20.77,42.44c0.39,0.78,0.78,1.68,0.78,2.72c0,1.04-0.13,53.29,0,54.34" stroke-dasharray="57.198" stroke-dashoffset="57.198"><animate attributeName="stroke-dashoffset" values="57.198" fill="freeze" begin="98ee.click" /><animate attributeName="stroke-dashoffset" values="57.198;57.198;0" keyTimes="0;0.576;1" dur="1.348s" fill="freeze" begin="0s;98ee.click" /></path><path d="M21.69,44.07c2.2-0.13,18.41-2.67,20.42-2.83c1.67-0.13,2.74,1.45,2.61,2.22c-0.26,1.57-2.47,21.54-3.02,25.01" stroke-dasharray="49.635" stroke-dashoffset="49.635"><animate attributeName="stroke-dashoffset" values="49.635" fill="freeze" begin="98ee.click" /><animate attributeName="stroke-dashoffset" values="49.635;49.635;0" keyTimes="0;0.731;1" dur="1.844s" fill="freeze" begin="0s;98ee.click" /></path><path d="M22.08,56.23c2.97,0,17.36-2.31,20.72-2.31" stroke-dasharray="20.857" stroke-dashoffset="20.857"><animate attributeName="stroke-dashoffset" values="20.857" fill="freeze" begin="98ee.click" /><animate attributeName="stroke-dashoffset" values="20.857;20.857;0" keyTimes="0;0.898;1" dur="2.053s" fill="freeze" begin="0s;98ee.click" /></path><path d="M21.94,68.56C28,68,34.25,66.5,41.79,66.02" stroke-dasharray="20.019" stroke-dashoffset="20.019"><animate attributeName="stroke-dashoffset" values="20.019" fill="freeze" begin="98ee.click" /><animate attributeName="stroke-dashoffset" values="20.019;20.019;0" keyTimes="0;0.911;1" dur="2.253s" fill="freeze" begin="0s;98ee.click" /></path><path d="M21.89,80.06c3.73-0.25,16.46-2.17,20.07-1.99c0.97,0.04,1.56,0.07,2.05,0.14" stroke-dasharray="22.235" stroke-dashoffset="22.235"><animate attributeName="stroke-dashoffset" values="22.235" fill="freeze" begin="98ee.click" /><animate attributeName="stroke-dashoffset" values="22.235;22.235;0" keyTimes="0;0.91;1" dur="2.475s" fill="freeze" begin="0s;98ee.click" /></path><path d="M21.39,92.81c4.03-0.25,15.61-1.31,21.15-1.99c1.04-0.13,1.69,0.07,2.21,0.14" stroke-dasharray="23.471" stroke-dashoffset="23.471"><animate attributeName="stroke-dashoffset" values="23.471" fill="freeze" begin="98ee.click" /><animate attributeName="stroke-dashoffset" values="23.471;23.471;0" keyTimes="0;0.913;1" dur="2.71s" fill="freeze" begin="0s;98ee.click" /></path><path d="M64.25,13c0.04,0.86,0.26,2.26-0.08,3.45c-1.92,6.8-6.37,23.26-13.78,33.05" stroke-dasharray="39.473" stroke-dashoffset="39.473"><animate attributeName="stroke-dashoffset" values="39.473" fill="freeze" begin="98ee.click" /><animate attributeName="stroke-dashoffset" values="39.473;39.473;0" keyTimes="0;0.873;1" dur="3.105s" fill="freeze" begin="0s;98ee.click" /></path><path d="M61.72,32.49c0.91,0.36,2.63,0.9,4.01,0.61C71,32,85.92,29.45,87.5,29.25c8-1-1.33,9.09-3,11" stroke-dasharray="41.794" stroke-dashoffset="41.794"><animate attributeName="stroke-dashoffset" values="41.794" fill="freeze" begin="98ee.click" /><animate attributeName="stroke-dashoffset" values="41.794;41.794;0" keyTimes="0;0.881;1" dur="3.523s" fill="freeze" begin="0s;98ee.click" /></path><path d="M68.1,40c0.06,1.32,0.14,3.38-0.12,5.28C65.38,63.64,60.35,82.62,46,95.75" stroke-dasharray="61.491" stroke-dashoffset="61.491"><animate attributeName="stroke-dashoffset" values="61.491" fill="freeze" begin="98ee.click" /><animate attributeName="stroke-dashoffset" values="61.491;61.491;0" keyTimes="0;0.884;1" dur="3.985s" fill="freeze" begin="0s;98ee.click" /></path><path d="M66.67,57.75c4.04,8.14,18.64,27.3,25.29,34.03c1.4,1.42,2.46,2.26,3.79,2.72" stroke-dasharray="47.2" stroke-dashoffset="47.2"><animate attributeName="stroke-dashoffset" values="47.2" fill="freeze" begin="98ee.click" /><animate attributeName="stroke-dashoffset" values="47.2;47.2;0" keyTimes="0;0.894;1" dur="4.457s" fill="freeze" begin="0s;98ee.click" /></path></g></svg>