<svg xmlns="http://www.w3.org/2000/svg" viewBox="0 0 109 109" id="98ef"><g fill="none" stroke="#666" stroke-width="6" stroke-linecap="round" stroke-linejoin="round"><g><g p4:partial xmlns:p4="http://kanjivg.tagaini.net"><path d="M30.79,15c0.06,0.73,0.23,1.95-0.12,2.93c-2.88,8.14-11.44,19.55-20.42,26.57" /><path d="M32,19.75c5.25,2.38,11.5,7.38,14.25,11.25" /><path d="M30.79,32.01c0.91,0.91,1.28,2.24,1.28,3.32c0,0.93-0.08,4.91-0.08,7.2" /><path d="M19.45,45.01c1.18,0.61,2.93,0.77,4.03,0.51c4.65-1.14,12.43-2.7,15.69-3.31c3.19-0.6,4.04,1.22,3.63,4.04c-0.76,5.22-1.8,12.08-2.53,16.64c-0.22,1.37-0.41,2.53-0.56,3.38" /><path d="M21.71,56.53c4.67-0.91,13.79-2.53,18.78-3.16" /><path d="M21.62,67.6c5.26-0.85,12.63-2.43,17.21-3.22" /><path d="M19.12,45.26c1,1,1.53,2.25,1.53,3.49c0,0.93-0.08,36.68-0.08,38.97c0,4.28,0.81,4.16,3.44,2.16C26.06,88.3,34.5,82,38.75,79.5" /><path d="M35.62,73.25c1.74,2.03,5.63,7.46,6.62,11.75" /></g><g p4:phon="反" xmlns:p4="http://kanjivg.tagaini.net"><g><path d="M51.63,24.98c1.35,0.54,3.07,0.67,4.41,0.54c9.34-0.89,20.96-3.02,27.13-3.98c2.22-0.35,3.59-0.24,4.71,0.03" /><path d="M53.99,26c1.01,0.75,1.42,2.12,1.4,3.64C55,55.62,55.5,78.38,41.25,95.5" /></g><g><path d="M58.83,45.98c1.34,0.37,2.5,0.42,5.18-0.13c4.74-0.97,14.36-3.72,18.26-5.15c2.78-1.02,4.26,0.74,3.26,3.81C77.67,68.47,69.12,84.38,50,94.76" /><path d="M61.12,55.19c3.24,0.91,18.43,24.26,29.71,34.21c1.76,1.55,3.04,2.58,4.67,3.1" /></g></g></g></g><g fill="none" stroke="#000" stroke-width="3" stroke-linecap="round" stroke-linejoin="round"><path d="M30.79,15c0.06,0.73,0.23,1.95-0.12,2.93c-2.88,8.14-11.44,19.55-20.42,26.57" stroke-dasharray="36.829" stroke-dashoffset="36.829"><animate attributeName="stroke-dashoffset" values="36.829;36.829;0" dur="0.368s" fill="freeze" begin="0s;98ef.click" /></path><path d="M32,19.75c5.25,2.38,11.5,7.38,14.25,11.25" stroke-dasharray="18.32" stroke-dashoffset="18.32"><animate attributeName="stroke-dashoffset" values="18.32" fill="freeze" begin="98ef.click" /><animate attributeName="stroke-dashoffset" values="18.32;18.32;0" keyTimes="0;0.668;1" dur="0.551s" fill="freeze" begin="0s;98ef.click" /></path><path d="M30.79,32.01c0.91,0.91,1.28,2.24,1.28,3.32c0,0.93-0.08,4.91-0.08,7.2" stroke-dasharray="10.848" stroke-dashoffset="10.848"><animate attributeName="stroke-dashoffset" values="10.848" fill="freeze" begin="98ef.click" /><animate attributeName="stroke-dashoffset" values="10.848;10.848;0" keyTimes="0;0.717;1" dur="0.768s" fill="freeze" begin="0s;98ef.click" /></path><path d="M19.45,45.01c1.18,0.61,2.93,0.77,4.03,0.51c4.65-1.14,12.43-2.7,15.69-3.31c3.19-0.6,4.04,1.22,3.63,4.04c-0.76,5.22-1.8,12.08-2.53,16.64c-0.22,1.37-0.41,2.53-0.56,3.38" stroke-dasharray="47.275" stroke-dashoffset="47.275"><animate attributeName="stroke-dashoffset" values="47.275" fill="freeze" begin="98ef.click" /><animate attributeName="stroke-dashoffset" values="47.275;47.275;0" keyTimes="0;0.619;1" dur="1.241s" fill="freeze" begin="0s;98ef.click" /></path><path d="M21.71,56.53c4.67-0.91,13.79-2.53,18.78-3.16" stroke-dasharray="19.047" stroke-dashoffset="19.047"><animate attributeName="stroke-dashoffset" values="19.047" fill="freeze" begin="98ef.click" /><animate attributeName="stroke-dashoffset" values="19.047;19.047;0" keyTimes="0;0.867;1" dur="1.431s" fill="freeze" begin="0s;98ef.click" /></path><path d="M21.62,67.6c5.26-0.85,12.63-2.43,17.21-3.22" stroke-dasharray="17.51" stroke-dashoffset="17.51"><animate attributeName="stroke-dashoffset" values="17.51" fill="freeze" begin="98ef.click" /><animate attributeName="stroke-dashoffset" values="17.51;17.51;0" keyTimes="0;0.891;1" dur="1.606s" fill="freeze" begin="0s;98ef.click" /></path><path d="M19.12,45.26c1,1,1.53,2.25,1.53,3.49c0,0.93-0.08,36.68-0.08,38.97c0,4.28,0.81,4.16,3.44,2.16C26.06,88.3,34.5,82,38.75,79.5" stroke-dasharray="67.646" stroke-dashoffset="67.646"><animate attributeName="stroke-dashoffset" values="67.646" fill="freeze" begin="98ef.click" /><animate attributeName="stroke-dashoffset" values="67.646;67.646;0" keyTimes="0;0.759;1" dur="2.115s" fill="freeze" begin="0s;98ef.click" /></path><path d="M35.62,73.25c1.74,2.03,5.63,7.46,6.62,11.75" stroke-dasharray="13.588" stroke-dashoffset="13.588"><animate attributeName="stroke-dashoffset" values="13.588" fill="freeze" begin="98ef.click" /><animate attributeName="stroke-dashoffset" values="13.588;13.588;0" keyTimes="0;0.886;1" dur="2.387s" fill="freeze" begin="0s;98ef.click" /></path><path d="M51.63,24.98c1.35,0.54,3.07,0.67,4.41,0.54c9.34-0.89,20.96-3.02,27.13-3.98c2.22-0.35,3.59-0.24,4.71,0.03" stroke-dasharray="36.65" stroke-dashoffset="36.65"><animate attributeName="stroke-dashoffset" values="36.65" fill="freeze" begin="98ef.click" /><animate attributeName="stroke-dashoffset" values="36.65;36.65;0" keyTimes="0;0.867;1" dur="2.754s" fill="freeze" begin="0s;98ef.click" /></path><path d="M53.99,26c1.01,0.75,1.42,2.12,1.4,3.64C55,55.62,55.5,78.38,41.25,95.5" stroke-dasharray="72.843" stroke-dashoffset="72.843"><animate attributeName="stroke-dashoffset" values="72.843" fill="freeze" begin="98ef.click" /><animate attributeName="stroke-dashoffset" values="72.843;72.843;0" keyTimes="0;0.834;1" dur="3.302s" fill="freeze" begin="0s;98ef.click" /></path><path d="M58.83,45.98c1.34,0.37,2.5,0.42,5.18-0.13c4.74-0.97,14.36-3.72,18.26-5.15c2.78-1.02,4.26,0.74,3.26,3.81C77.67,68.47,69.12,84.38,50,94.76" stroke-dasharray="94.356" stroke-dashoffset="94.356"><animate attributeName="stroke-dashoffset" values="94.356" fill="freeze" begin="98ef.click" /><animate attributeName="stroke-dashoffset" values="94.356;94.356;0" keyTimes="0;0.823;1" dur="4.011s" fill="freeze" begin="0s;98ef.click" /></path><path d="M61.12,55.19c3.24,0.91,18.43,24.26,29.71,34.21c1.76,1.55,3.04,2.58,4.67,3.1" stroke-dasharray="51.072" stroke-dashoffset="51.072"><animate attributeName="stroke-dashoffset" values="51.072" fill="freeze" begin="98ef.click" /><animate attributeName="stroke-dashoffset" values="51.072;51.072;0" keyTimes="0;0.887;1" dur="4.522s" fill="freeze" begin="0s;98ef.click" /></path></g></svg>