<svg xmlns="http://www.w3.org/2000/svg" viewBox="0 0 109 109" id="99ff"><g fill="none" stroke="#666" stroke-width="6" stroke-linecap="round" stroke-linejoin="round"><g><g><path d="M14.99,17.62c0.76,0.63,1,1.61,1,2.88c0,7.47,0.01,24.2,0.01,34.25c0,2.35,0,4.33,0,5.75" /><path d="M17.27,19.26c8.35-1.64,13.73-2.51,19.75-3.37c1.37-0.19,3.69-0.2,5.01,0.42" /><path d="M28.06,19.32c0.81,0.81,0.95,1.8,0.95,3.68c0,8.33,0,28.91,0,34.72" /><path d="M16.91,32.59c5.55-0.64,14-1.69,18.96-2.26c1.24-0.14,3.52-0.67,4.73,0.02" /><path d="M17.26,45.38c4.13-0.39,13.47-1.36,18.51-2.01c1.44-0.19,3.51-0.66,4.93-0.01" /><path d="M16.49,60.4C24,59,35.5,57.25,40.17,56.76c2.07-0.22,3.58,1.49,3.45,3.95C43.07,71.07,40,84.5,35,90.75c-3.98,4.98-5.32,0.41-6.21-0.86" /><g><path d="M12.14,71.25c0.48,6.05-1.73,11.37-2.24,12.57" /><path d="M17.61,69.5c1.22,2.72,2.25,6.15,2.53,11" /><path d="M24.52,66.97c0.73,1.33,3.34,5.7,3.66,10.03" /><path d="M31.51,63.5c1.74,2.25,3.76,5.65,4.23,9" /></g></g><g><g><g><path d="M64.93,12.75c0.19,1,0.01,2.09-0.62,3.08c-4.5,7.17-7.42,10.69-12.7,16.55c-1.94,2.18-1.39,3.34,1.22,2.75c8.09-1.83,21.73-6.01,31.95-8.37" /><path d="M78.05,19.26c4.25,2.76,10.72,11.59,11.78,15.87" /></g><g><g><path d="M59.48,38.11c0.11,1.21-0.11,1.99-0.72,3.1c-2.04,3.74-6.41,9.11-12.14,13.29" /></g><g><path d="M71.34,34.05c0.93,0.93,1.04,2.2,1.04,3.71c0,3.63-0.01,4.78-0.01,7.24c0,4,1.75,5.22,10.38,5.22c5.32,0,8.63-0.45,9.57-1.88" /></g></g></g><g><path d="M63.73,52c0.14,1,0.02,1.88-0.57,3.2c-2.7,6.08-9.16,16.3-17.13,24.15" /><path d="M64.16,60.31c1.59,0.69,4.04,0.55,5.2,0.36c3.53-0.57,8.69-2.15,11.15-2.95c2.61-0.85,4.11,1.03,3.18,3.35C79.05,72.67,61,90,45.24,96.75" /><path d="M58.54,66.43c3.29,0.76,18.54,17.36,26.86,25.42c2.34,2.27,5.47,4.65,8.67,6.03" /></g></g></g></g><g fill="none" stroke="#000" stroke-width="3" stroke-linecap="round" stroke-linejoin="round"><path d="M14.99,17.62c0.76,0.63,1,1.61,1,2.88c0,7.47,0.01,24.2,0.01,34.25c0,2.35,0,4.33,0,5.75" stroke-dasharray="43.156" stroke-dashoffset="43.156"><animate attributeName="stroke-dashoffset" values="43.156;43.156;0" dur="0.432s" fill="freeze" begin="0s;99ff.click" /></path><path d="M17.27,19.26c8.35-1.64,13.73-2.51,19.75-3.37c1.37-0.19,3.69-0.2,5.01,0.42" stroke-dasharray="25.121" stroke-dashoffset="25.121"><animate attributeName="stroke-dashoffset" values="25.121" fill="freeze" begin="99ff.click" /><animate attributeName="stroke-dashoffset" values="25.121;25.121;0" keyTimes="0;0.633;1" dur="0.683s" fill="freeze" begin="0s;99ff.click" /></path><path d="M28.06,19.32c0.81,0.81,0.95,1.8,0.95,3.68c0,8.33,0,28.91,0,34.72" stroke-dasharray="38.633" stroke-dashoffset="38.633"><animate attributeName="stroke-dashoffset" values="38.633" fill="freeze" begin="99ff.click" /><animate attributeName="stroke-dashoffset" values="38.633;38.633;0" keyTimes="0;0.639;1" dur="1.069s" fill="freeze" begin="0s;99ff.click" /></path><path d="M16.91,32.59c5.55-0.64,14-1.69,18.96-2.26c1.24-0.14,3.52-0.67,4.73,0.02" stroke-dasharray="23.899" stroke-dashoffset="23.899"><animate attributeName="stroke-dashoffset" values="23.899" fill="freeze" begin="99ff.click" /><animate attributeName="stroke-dashoffset" values="23.899;23.899;0" keyTimes="0;0.817;1" dur="1.308s" fill="freeze" begin="0s;99ff.click" /></path><path d="M17.26,45.38c4.13-0.39,13.47-1.36,18.51-2.01c1.44-0.19,3.51-0.66,4.93-0.01" stroke-dasharray="23.616" stroke-dashoffset="23.616"><animate attributeName="stroke-dashoffset" values="23.616" fill="freeze" begin="99ff.click" /><animate attributeName="stroke-dashoffset" values="23.616;23.616;0" keyTimes="0;0.847;1" dur="1.544s" fill="freeze" begin="0s;99ff.click" /></path><path d="M16.49,60.4C24,59,35.5,57.25,40.17,56.76c2.07-0.22,3.58,1.49,3.45,3.95C43.07,71.07,40,84.5,35,90.75c-3.98,4.98-5.32,0.41-6.21-0.86" stroke-dasharray="70.231" stroke-dashoffset="70.231"><animate attributeName="stroke-dashoffset" values="70.231" fill="freeze" begin="99ff.click" /><animate attributeName="stroke-dashoffset" values="70.231;70.231;0" keyTimes="0;0.745;1" dur="2.072s" fill="freeze" begin="0s;99ff.click" /></path><path d="M12.14,71.25c0.48,6.05-1.73,11.37-2.24,12.57" stroke-dasharray="12.888" stroke-dashoffset="12.888"><animate attributeName="stroke-dashoffset" values="12.888" fill="freeze" begin="99ff.click" /><animate attributeName="stroke-dashoffset" values="12.888;12.888;0" keyTimes="0;0.889;1" dur="2.33s" fill="freeze" begin="0s;99ff.click" /></path><path d="M17.61,69.5c1.22,2.72,2.25,6.15,2.53,11" stroke-dasharray="11.353" stroke-dashoffset="11.353"><animate attributeName="stroke-dashoffset" values="11.353" fill="freeze" begin="99ff.click" /><animate attributeName="stroke-dashoffset" values="11.353;11.353;0" keyTimes="0;0.911;1" dur="2.557s" fill="freeze" begin="0s;99ff.click" /></path><path d="M24.52,66.97c0.73,1.33,3.34,5.7,3.66,10.03" stroke-dasharray="10.764" stroke-dashoffset="10.764"><animate attributeName="stroke-dashoffset" values="10.764" fill="freeze" begin="99ff.click" /><animate attributeName="stroke-dashoffset" values="10.764;10.764;0" keyTimes="0;0.922;1" dur="2.772s" fill="freeze" begin="0s;99ff.click" /></path><path d="M31.51,63.5c1.74,2.25,3.76,5.65,4.23,9" stroke-dasharray="10.049" stroke-dashoffset="10.049"><animate attributeName="stroke-dashoffset" values="10.049" fill="freeze" begin="99ff.click" /><animate attributeName="stroke-dashoffset" values="10.049;10.049;0" keyTimes="0;0.932;1" dur="2.973s" fill="freeze" begin="0s;99ff.click" /></path><path d="M64.93,12.75c0.19,1,0.01,2.09-0.62,3.08c-4.5,7.17-7.42,10.69-12.7,16.55c-1.94,2.18-1.39,3.34,1.22,2.75c8.09-1.83,21.73-6.01,31.95-8.37" stroke-dasharray="62.411" stroke-dashoffset="62.411"><animate attributeName="stroke-dashoffset" values="62.411" fill="freeze" begin="99ff.click" /><animate attributeName="stroke-dashoffset" values="62.411;62.411;0" keyTimes="0;0.864;1" dur="3.442s" fill="freeze" begin="0s;99ff.click" /></path><path d="M78.05,19.26c4.25,2.76,10.72,11.59,11.78,15.87" stroke-dasharray="20.03" stroke-dashoffset="20.03"><animate attributeName="stroke-dashoffset" values="20.03" fill="freeze" begin="99ff.click" /><animate attributeName="stroke-dashoffset" values="20.03;20.03;0" keyTimes="0;0.945;1" dur="3.642s" fill="freeze" begin="0s;99ff.click" /></path><path d="M59.48,38.11c0.11,1.21-0.11,1.99-0.72,3.1c-2.04,3.74-6.41,9.11-12.14,13.29" stroke-dasharray="21.37" stroke-dashoffset="21.37"><animate attributeName="stroke-dashoffset" values="21.37" fill="freeze" begin="99ff.click" /><animate attributeName="stroke-dashoffset" values="21.37;21.37;0" keyTimes="0;0.945;1" dur="3.856s" fill="freeze" begin="0s;99ff.click" /></path><path d="M71.34,34.05c0.93,0.93,1.04,2.2,1.04,3.71c0,3.63-0.01,4.78-0.01,7.24c0,4,1.75,5.22,10.38,5.22c5.32,0,8.63-0.45,9.57-1.88" stroke-dasharray="34.606" stroke-dashoffset="34.606"><animate attributeName="stroke-dashoffset" values="34.606" fill="freeze" begin="99ff.click" /><animate attributeName="stroke-dashoffset" values="34.606;34.606;0" keyTimes="0;0.918;1" dur="4.202s" fill="freeze" begin="0s;99ff.click" /></path><path d="M63.73,52c0.14,1,0.02,1.88-0.57,3.2c-2.7,6.08-9.16,16.3-17.13,24.15" stroke-dasharray="33.053" stroke-dashoffset="33.053"><animate attributeName="stroke-dashoffset" values="33.053" fill="freeze" begin="99ff.click" /><animate attributeName="stroke-dashoffset" values="33.053;33.053;0" keyTimes="0;0.927;1" dur="4.533s" fill="freeze" begin="0s;99ff.click" /></path><path d="M64.16,60.31c1.59,0.69,4.04,0.55,5.2,0.36c3.53-0.57,8.69-2.15,11.15-2.95c2.61-0.85,4.11,1.03,3.18,3.35C79.05,72.67,61,90,45.24,96.75" stroke-dasharray="76.398" stroke-dashoffset="76.398"><animate attributeName="stroke-dashoffset" values="76.398" fill="freeze" begin="99ff.click" /><animate attributeName="stroke-dashoffset" values="76.398;76.398;0" keyTimes="0;0.888;1" dur="5.107s" fill="freeze" begin="0s;99ff.click" /></path><path d="M58.54,66.43c3.29,0.76,18.54,17.36,26.86,25.42c2.34,2.27,5.47,4.65,8.67,6.03" stroke-dasharray="47.693" stroke-dashoffset="47.693"><animate attributeName="stroke-dashoffset" values="47.693" fill="freeze" begin="99ff.click" /><animate attributeName="stroke-dashoffset" values="47.693;47.693;0" keyTimes="0;0.915;1" dur="5.584s" fill="freeze" begin="0s;99ff.click" /></path></g></svg>