<svg xmlns="http://www.w3.org/2000/svg" viewBox="0 0 109 109" id="9a30"><g fill="none" stroke="#666" stroke-width="6" stroke-linecap="round" stroke-linejoin="round"><g><g p4:phon="朕1" xmlns:p4="http://kanjivg.tagaini.net"><g><path d="M18.88,20.49c1,1,1.2,2.01,1.2,3.55c0,34.96-1.57,54.71-8.33,67.35" /><path d="M21.02,21.31c2.85-0.69,9.96-2.39,12.11-2.71c1.49-0.22,3.16,0.9,3.16,3.17c0,3.23,0.03,59.24,0.03,64.3c0,12.61-5.07,4.05-6.69,2.54" /><path d="M21.02,40.7c4.73-0.58,9.35-1.33,14.39-1.82" /><path d="M20.22,59.65c4.28-0.52,10.24-1.28,14.88-1.7" /></g></g><g><g p5:phon="朕2" xmlns:p5="http://kanjivg.tagaini.net"><path d="M49.02,19.09c2.04,1.5,5.26,6.18,5.77,8.52" /><path d="M82.53,15.64c0.06,0.61-0.03,1.18-0.27,1.74c-1.02,2.37-3.29,5.41-6.55,8.84" /><g><g><path d="M47.78,33.6c2.22,0.4,3.96,0.19,5.72,0.01c6.85-0.68,19.77-2.38,27.01-3.2c1.75-0.2,3.54-0.17,5.27,0.22" /></g><g><path d="M43,44.39c2.28,0.76,4.79,0.48,7.14,0.19c10.01-1.24,26.57-3.34,37.74-4.11c2.17-0.15,4.22-0.19,6.37,0.23" /></g><g><g><path d="M67.3,14.25c0.32,1.12,0.18,2.53-0.13,3.84C63.25,34.75,55.5,50,42.25,62.29" /><path d="M69,33.25c2.93,2.93,12.8,13.66,18.83,19.65c2.13,2.12,4.04,3.72,6.92,5.6" /></g></g></g></g><g><path d="M54.69,52c0.72,0.72,0.78,1.63,0.78,2.69c0,2.98-0.06,13.06-0.06,20.31c0,1.45-0.04,2.73-0.06,3.71" /><path d="M56.21,53.27c5.46-0.62,15.21-1.79,19.3-2.33c1.31-0.17,3.01-0.66,4.33-0.37" /><path d="M67.62,52.62c0.62,0.62,1.03,1.5,1.03,2.39c0,3.61-0.03,13.99-0.03,19.99" /><path d="M56.68,61.53c5.45-0.62,14.29-1.94,18.2-2.53c1.3-0.19,3.01-0.67,4.32-0.39" /><path d="M56.57,69.39c5.57-0.63,15.7-1.6,19.67-2.08c1.26-0.15,2.83-0.6,4.1-0.33" /><path d="M56.35,77.96c7.87-1.29,25.15-3.71,30.88-3.95c2.85-0.12,4.23,1.68,3.78,3.8c-1.39,6.57-3.59,12.21-5.78,16.01c-3.05,5.3-5.1,2.43-6.65,0.47" /><g><path d="M48.62,85.21c0.29,4.05-0.21,8.95-1.05,11.49" /><path d="M57.74,83.87c1.95,1.53,3.79,5.75,4.28,8.13" /><path d="M67.64,82.36c1.49,1.12,3.84,4.59,4.21,6.33" /><path d="M76.58,80.09c1.78,1.07,4.6,4.41,5.04,6.08" /></g></g></g></g></g><g fill="none" stroke="#000" stroke-width="3" stroke-linecap="round" stroke-linejoin="round"><path d="M18.88,20.49c1,1,1.2,2.01,1.2,3.55c0,34.96-1.57,54.71-8.33,67.35" stroke-dasharray="72.296" stroke-dashoffset="72.296"><animate attributeName="stroke-dashoffset" values="72.296;72.296;0" dur="0.544s" fill="freeze" begin="0s;9a30.click" /></path><path d="M21.02,21.31c2.85-0.69,9.96-2.39,12.11-2.71c1.49-0.22,3.16,0.9,3.16,3.17c0,3.23,0.03,59.24,0.03,64.3c0,12.61-5.07,4.05-6.69,2.54" stroke-dasharray="95.839" stroke-dashoffset="95.839"><animate attributeName="stroke-dashoffset" values="95.839" fill="freeze" begin="9a30.click" /><animate attributeName="stroke-dashoffset" values="95.839;95.839;0" keyTimes="0;0.43;1" dur="1.265s" fill="freeze" begin="0s;9a30.click" /></path><path d="M21.02,40.7c4.73-0.58,9.35-1.33,14.39-1.82" stroke-dasharray="14.506" stroke-dashoffset="14.506"><animate attributeName="stroke-dashoffset" values="14.506" fill="freeze" begin="9a30.click" /><animate attributeName="stroke-dashoffset" values="14.506;14.506;0" keyTimes="0;0.814;1" dur="1.555s" fill="freeze" begin="0s;9a30.click" /></path><path d="M20.22,59.65c4.28-0.52,10.24-1.28,14.88-1.7" stroke-dasharray="14.978" stroke-dashoffset="14.978"><animate attributeName="stroke-dashoffset" values="14.978" fill="freeze" begin="9a30.click" /><animate attributeName="stroke-dashoffset" values="14.978;14.978;0" keyTimes="0;0.838;1" dur="1.855s" fill="freeze" begin="0s;9a30.click" /></path><path d="M49.02,19.09c2.04,1.5,5.26,6.18,5.77,8.52" stroke-dasharray="10.419" stroke-dashoffset="10.419"><animate attributeName="stroke-dashoffset" values="10.419" fill="freeze" begin="9a30.click" /><animate attributeName="stroke-dashoffset" values="10.419;10.419;0" keyTimes="0;0.899;1" dur="2.063s" fill="freeze" begin="0s;9a30.click" /></path><path d="M82.53,15.64c0.06,0.61-0.03,1.18-0.27,1.74c-1.02,2.37-3.29,5.41-6.55,8.84" stroke-dasharray="12.833" stroke-dashoffset="12.833"><animate attributeName="stroke-dashoffset" values="12.833" fill="freeze" begin="9a30.click" /><animate attributeName="stroke-dashoffset" values="12.833;12.833;0" keyTimes="0;0.889;1" dur="2.32s" fill="freeze" begin="0s;9a30.click" /></path><path d="M47.78,33.6c2.22,0.4,3.96,0.19,5.72,0.01c6.85-0.68,19.77-2.38,27.01-3.2c1.75-0.2,3.54-0.17,5.27,0.22" stroke-dasharray="38.242" stroke-dashoffset="38.242"><animate attributeName="stroke-dashoffset" values="38.242" fill="freeze" begin="9a30.click" /><animate attributeName="stroke-dashoffset" values="38.242;38.242;0" keyTimes="0;0.859;1" dur="2.702s" fill="freeze" begin="0s;9a30.click" /></path><path d="M43,44.39c2.28,0.76,4.79,0.48,7.14,0.19c10.01-1.24,26.57-3.34,37.74-4.11c2.17-0.15,4.22-0.19,6.37,0.23" stroke-dasharray="51.566" stroke-dashoffset="51.566"><animate attributeName="stroke-dashoffset" values="51.566" fill="freeze" begin="9a30.click" /><animate attributeName="stroke-dashoffset" values="51.566;51.566;0" keyTimes="0;0.84;1" dur="3.218s" fill="freeze" begin="0s;9a30.click" /></path><path d="M67.3,14.25c0.32,1.12,0.18,2.53-0.13,3.84C63.25,34.75,55.5,50,42.25,62.29" stroke-dasharray="55.396" stroke-dashoffset="55.396"><animate attributeName="stroke-dashoffset" values="55.396" fill="freeze" begin="9a30.click" /><animate attributeName="stroke-dashoffset" values="55.396;55.396;0" keyTimes="0;0.853;1" dur="3.772s" fill="freeze" begin="0s;9a30.click" /></path><path d="M69,33.25c2.93,2.93,12.8,13.66,18.83,19.65c2.13,2.12,4.04,3.72,6.92,5.6" stroke-dasharray="36.137" stroke-dashoffset="36.137"><animate attributeName="stroke-dashoffset" values="36.137" fill="freeze" begin="9a30.click" /><animate attributeName="stroke-dashoffset" values="36.137;36.137;0" keyTimes="0;0.913;1" dur="4.133s" fill="freeze" begin="0s;9a30.click" /></path><path d="M54.69,52c0.72,0.72,0.78,1.63,0.78,2.69c0,2.98-0.06,13.06-0.06,20.31c0,1.45-0.04,2.73-0.06,3.71" stroke-dasharray="26.906" stroke-dashoffset="26.906"><animate attributeName="stroke-dashoffset" values="26.906" fill="freeze" begin="9a30.click" /><animate attributeName="stroke-dashoffset" values="26.906;26.906;0" keyTimes="0;0.939;1" dur="4.402s" fill="freeze" begin="0s;9a30.click" /></path><path d="M56.21,53.27c5.46-0.62,15.21-1.79,19.3-2.33c1.31-0.17,3.01-0.66,4.33-0.37" stroke-dasharray="23.812" stroke-dashoffset="23.812"><animate attributeName="stroke-dashoffset" values="23.812" fill="freeze" begin="9a30.click" /><animate attributeName="stroke-dashoffset" values="23.812;23.812;0" keyTimes="0;0.949;1" dur="4.64s" fill="freeze" begin="0s;9a30.click" /></path><path d="M67.62,52.62c0.62,0.62,1.03,1.5,1.03,2.39c0,3.61-0.03,13.99-0.03,19.99" stroke-dasharray="22.66" stroke-dashoffset="22.66"><animate attributeName="stroke-dashoffset" values="22.66" fill="freeze" begin="9a30.click" /><animate attributeName="stroke-dashoffset" values="22.66;22.66;0" keyTimes="0;0.953;1" dur="4.867s" fill="freeze" begin="0s;9a30.click" /></path><path d="M56.68,61.53c5.45-0.62,14.29-1.94,18.2-2.53c1.3-0.19,3.01-0.67,4.32-0.39" stroke-dasharray="22.74" stroke-dashoffset="22.74"><animate attributeName="stroke-dashoffset" values="22.74" fill="freeze" begin="9a30.click" /><animate attributeName="stroke-dashoffset" values="22.74;22.74;0" keyTimes="0;0.955;1" dur="5.094s" fill="freeze" begin="0s;9a30.click" /></path><path d="M56.57,69.39c5.57-0.63,15.7-1.6,19.67-2.08c1.26-0.15,2.83-0.6,4.1-0.33" stroke-dasharray="23.916" stroke-dashoffset="23.916"><animate attributeName="stroke-dashoffset" values="23.916" fill="freeze" begin="9a30.click" /><animate attributeName="stroke-dashoffset" values="23.916;23.916;0" keyTimes="0;0.955;1" dur="5.333s" fill="freeze" begin="0s;9a30.click" /></path><path d="M56.35,77.96c7.87-1.29,25.15-3.71,30.88-3.95c2.85-0.12,4.23,1.68,3.78,3.8c-1.39,6.57-3.59,12.21-5.78,16.01c-3.05,5.3-5.1,2.43-6.65,0.47" stroke-dasharray="63.587" stroke-dashoffset="63.587"><animate attributeName="stroke-dashoffset" values="63.587" fill="freeze" begin="9a30.click" /><animate attributeName="stroke-dashoffset" values="63.587;63.587;0" keyTimes="0;0.918;1" dur="5.811s" fill="freeze" begin="0s;9a30.click" /></path><path d="M48.62,85.21c0.29,4.05-0.21,8.95-1.05,11.49" stroke-dasharray="11.595" stroke-dashoffset="11.595"><animate attributeName="stroke-dashoffset" values="11.595" fill="freeze" begin="9a30.click" /><animate attributeName="stroke-dashoffset" values="11.595;11.595;0" keyTimes="0;0.962;1" dur="6.043s" fill="freeze" begin="0s;9a30.click" /></path><path d="M57.74,83.87c1.95,1.53,3.79,5.75,4.28,8.13" stroke-dasharray="9.32" stroke-dashoffset="9.32"><animate attributeName="stroke-dashoffset" values="9.32" fill="freeze" begin="9a30.click" /><animate attributeName="stroke-dashoffset" values="9.32;9.32;0" keyTimes="0;0.97;1" dur="6.229s" fill="freeze" begin="0s;9a30.click" /></path><path d="M67.64,82.36c1.49,1.12,3.84,4.59,4.21,6.33" stroke-dasharray="7.696" stroke-dashoffset="7.696"><animate attributeName="stroke-dashoffset" values="7.696" fill="freeze" begin="9a30.click" /><animate attributeName="stroke-dashoffset" values="7.696;7.696;0" keyTimes="0;0.976;1" dur="6.383s" fill="freeze" begin="0s;9a30.click" /></path><path d="M76.58,80.09c1.78,1.07,4.6,4.41,5.04,6.08" stroke-dasharray="8.009" stroke-dashoffset="8.009"><animate attributeName="stroke-dashoffset" values="8.009" fill="freeze" begin="9a30.click" /><animate attributeName="stroke-dashoffset" values="8.009;8.009;0" keyTimes="0;0.976;1" dur="6.543s" fill="freeze" begin="0s;9a30.click" /></path></g></svg>