<svg xmlns="http://www.w3.org/2000/svg" viewBox="0 0 109 109" id="9b31"><g fill="none" stroke="#666" stroke-width="6" stroke-linecap="round" stroke-linejoin="round"><g><g><g><path d="M48.3,10.89c0.02,0.26,0.04,0.66-0.04,1.03c-0.49,2.16-3.33,6.91-7.22,9.82" /><path d="M47.11,16.35c0.31,0.13,0.88,0.15,1.19,0.13c3.8-0.35,9.58-1.17,12.99-1.61c0.51-0.07,0.83,0.06,1.08,0.12" /><path d="M40.26,24.54c0.5,0.18,1.42,0.21,1.92,0.18c5.22-0.3,15.2-1.82,22.82-1.89c0.83-0.01,1.34,0.08,1.75,0.17" /><path d="M53.11,16.58c0.31,0.45,0.66,0.78,0.66,1.4c0,2.18-0.03,15.57-0.08,17.41" /><path d="M44.2,29.3c0.25,0.15,0.5,0.77,0.5,1.07c-0.02,1.85-0.02,1.1,0,4.61c0,0.68-0.12,1.34,0.5,1.24c1.71-0.29,13.7-1.9,16.84-1.99" /><path d="M63.35,27.91c0.25,0.15,0.54,1.11,0.5,1.4c-0.25,1.82-0.5,3.19-0.91,6.57" /></g><g><path d="M14.87,19.27c0.52,0.09,2.1,0.08,3.49,0c4.88-0.26,11.48-0.71,16.71-0.88c0.89-0.03,1.94-0.31,3.31-0.18" /><path d="M28.06,10.34c0.59,0.23,0.94,1.06,1.06,1.53c0.12,0.47,0,23.55-0.12,26.49" /><path d="M29.4,20.03c-2.67,4.49-10.61,12.03-16.15,14.57" /><path d="M31.28,23.22c2.12,1.2,4.39,3.61,5.6,5.72" /></g><g><path d="M68.83,18.29c0.33,0.12,1.06,0.18,1.95,0.12c3.15-0.24,12.6-1.06,18.75-1.65c0.89-0.08,1.67-0.12,2.23,0" /><path d="M77.1,10.4c0.59,0.23,0.94,1.06,1.06,1.53c0.12,0.47,0,21.26-0.12,24.2" /><path d="M78.07,18.62c-1.53,4.22-6.28,10.08-9.83,12.25" /><path d="M78.02,18.54c3.84,4.51,9.99,10.29,13.1,12.07c0.89,0.51,1.39,0.86,2.13,1.03" /></g><g><path d="M19.16,41.13c0,2.91-3.72,10.92-5.41,12.87" /><path d="M18.99,44.24c9.51-0.99,60.24-3.03,67.95-3.4C99,40.25,89.5,48,86.5,50.11" /></g></g><g><g><g><path d="M44.91,49.53c0.05,0.47,0.27,1.29-0.1,1.9C42.5,55.25,34.5,65,27.1,69.61" /><path d="M29.57,52.91c5.7,2.95,14.71,12.14,16.14,16.74" /><path d="M33.78,47.58c1.41,0.79,3.63,3.24,3.99,4.47" /><path d="M26.71,56.64c1.41,0.88,3.63,3.6,3.99,4.97" /><path d="M45.7,58.3c1.14,0.79,2.95,3.24,3.24,4.47" /><path d="M35.51,65.78c1.19,0.56,3.07,2.31,3.37,3.18" /><g><path d="M19.46,53.75c0.32,0.2,0.86,0.97,0.86,1.94c0,0.41,1.67,16.44,1.64,17.41c-0.03,0.96,0.29,1.65,1.35,1.54c5.9-0.57,25.29-1.48,28.67-1.68" /><path d="M52.64,51.99c0.62,0.28,1.08,0.85,1.08,1.94c0,2.18-0.21,11.43-0.95,21.2" /></g></g><g><path d="M46.74,79.93c0.17,0.18,0.28,0.72-0.17,1c-2.9,1.83-12.86,6.87-22.25,8.73" /><path d="M21.46,79.82c0.59,0.56,0.63,0.93,0.83,1.67c0.2,0.75-0.04,8.93-0.04,11.26c0,5.99,7.88,5.06,14.59,5.06c5.2,0,9.54-0.32,11.5-1.99c1.96-1.67,1.72-3.62,1.92-5.3" /></g></g><g><g><path d="M80.11,50.75c0.06,0.34,0.22,0.92-0.12,1.36C77,56,71.25,60.25,59.75,64.63" /></g><g><path d="M85.67,64.39c0.08,0.4,0.28,1.09-0.15,1.61c-2.95,3.51-16.27,11.5-27.03,15.37" /></g><g><path d="M91.3,79c0.1,0.47,0.2,1.22-0.18,1.9C88.85,84.89,75.86,93.64,58.07,99" /></g></g></g></g></g><g fill="none" stroke="#000" stroke-width="3" stroke-linecap="round" stroke-linejoin="round"><path d="M48.3,10.89c0.02,0.26,0.04,0.66-0.04,1.03c-0.49,2.16-3.33,6.91-7.22,9.82" stroke-dasharray="13.403" stroke-dashoffset="13.403"><animate attributeName="stroke-dashoffset" values="13.403;13.403;0" dur="0.268s" fill="freeze" begin="0s;9b31.click" /></path><path d="M47.11,16.35c0.31,0.13,0.88,0.15,1.19,0.13c3.8-0.35,9.58-1.17,12.99-1.61c0.51-0.07,0.83,0.06,1.08,0.12" stroke-dasharray="15.392" stroke-dashoffset="15.392"><animate attributeName="stroke-dashoffset" values="15.392" fill="freeze" begin="9b31.click" /><animate attributeName="stroke-dashoffset" values="15.392;15.392;0" keyTimes="0;0.635;1" dur="0.422s" fill="freeze" begin="0s;9b31.click" /></path><path d="M40.26,24.54c0.5,0.18,1.42,0.21,1.92,0.18c5.22-0.3,15.2-1.82,22.82-1.89c0.83-0.01,1.34,0.08,1.75,0.17" stroke-dasharray="26.607" stroke-dashoffset="26.607"><animate attributeName="stroke-dashoffset" values="26.607" fill="freeze" begin="9b31.click" /><animate attributeName="stroke-dashoffset" values="26.607;26.607;0" keyTimes="0;0.613;1" dur="0.688s" fill="freeze" begin="0s;9b31.click" /></path><path d="M53.11,16.58c0.31,0.45,0.66,0.78,0.66,1.4c0,2.18-0.03,15.57-0.08,17.41" stroke-dasharray="18.992" stroke-dashoffset="18.992"><animate attributeName="stroke-dashoffset" values="18.992" fill="freeze" begin="9b31.click" /><animate attributeName="stroke-dashoffset" values="18.992;18.992;0" keyTimes="0;0.784;1" dur="0.878s" fill="freeze" begin="0s;9b31.click" /></path><path d="M44.2,29.3c0.25,0.15,0.5,0.77,0.5,1.07c-0.02,1.85-0.02,1.1,0,4.61c0,0.68-0.12,1.34,0.5,1.24c1.71-0.29,13.7-1.9,16.84-1.99" stroke-dasharray="24.367" stroke-dashoffset="24.367"><animate attributeName="stroke-dashoffset" values="24.367" fill="freeze" begin="9b31.click" /><animate attributeName="stroke-dashoffset" values="24.367;24.367;0" keyTimes="0;0.783;1" dur="1.122s" fill="freeze" begin="0s;9b31.click" /></path><path d="M63.35,27.91c0.25,0.15,0.54,1.11,0.5,1.4c-0.25,1.82-0.5,3.19-0.91,6.57" stroke-dasharray="8.155" stroke-dashoffset="8.155"><animate attributeName="stroke-dashoffset" values="8.155" fill="freeze" begin="9b31.click" /><animate attributeName="stroke-dashoffset" values="8.155;8.155;0" keyTimes="0;0.873;1" dur="1.285s" fill="freeze" begin="0s;9b31.click" /></path><path d="M14.87,19.27c0.52,0.09,2.1,0.08,3.49,0c4.88-0.26,11.48-0.71,16.71-0.88c0.89-0.03,1.94-0.31,3.31-0.18" stroke-dasharray="23.55" stroke-dashoffset="23.55"><animate attributeName="stroke-dashoffset" values="23.55" fill="freeze" begin="9b31.click" /><animate attributeName="stroke-dashoffset" values="23.55;23.55;0" keyTimes="0;0.845;1" dur="1.52s" fill="freeze" begin="0s;9b31.click" /></path><path d="M28.06,10.34c0.59,0.23,0.94,1.06,1.06,1.53c0.12,0.47,0,23.55-0.12,26.49" stroke-dasharray="28.416" stroke-dashoffset="28.416"><animate attributeName="stroke-dashoffset" values="28.416" fill="freeze" begin="9b31.click" /><animate attributeName="stroke-dashoffset" values="28.416;28.416;0" keyTimes="0;0.843;1" dur="1.804s" fill="freeze" begin="0s;9b31.click" /></path><path d="M29.4,20.03c-2.67,4.49-10.61,12.03-16.15,14.57" stroke-dasharray="21.971" stroke-dashoffset="21.971"><animate attributeName="stroke-dashoffset" values="21.971" fill="freeze" begin="9b31.click" /><animate attributeName="stroke-dashoffset" values="21.971;21.971;0" keyTimes="0;0.891;1" dur="2.024s" fill="freeze" begin="0s;9b31.click" /></path><path d="M31.28,23.22c2.12,1.2,4.39,3.61,5.6,5.72" stroke-dasharray="8.087" stroke-dashoffset="8.087"><animate attributeName="stroke-dashoffset" values="8.087" fill="freeze" begin="9b31.click" /><animate attributeName="stroke-dashoffset" values="8.087;8.087;0" keyTimes="0;0.926;1" dur="2.186s" fill="freeze" begin="0s;9b31.click" /></path><path d="M68.83,18.29c0.33,0.12,1.06,0.18,1.95,0.12c3.15-0.24,12.6-1.06,18.75-1.65c0.89-0.08,1.67-0.12,2.23,0" stroke-dasharray="23.025" stroke-dashoffset="23.025"><animate attributeName="stroke-dashoffset" values="23.025" fill="freeze" begin="9b31.click" /><animate attributeName="stroke-dashoffset" values="23.025;23.025;0" keyTimes="0;0.905;1" dur="2.416s" fill="freeze" begin="0s;9b31.click" /></path><path d="M77.1,10.4c0.59,0.23,0.94,1.06,1.06,1.53c0.12,0.47,0,21.26-0.12,24.2" stroke-dasharray="26.126" stroke-dashoffset="26.126"><animate attributeName="stroke-dashoffset" values="26.126" fill="freeze" begin="9b31.click" /><animate attributeName="stroke-dashoffset" values="26.126;26.126;0" keyTimes="0;0.903;1" dur="2.677s" fill="freeze" begin="0s;9b31.click" /></path><path d="M78.07,18.62c-1.53,4.22-6.28,10.08-9.83,12.25" stroke-dasharray="15.92" stroke-dashoffset="15.92"><animate attributeName="stroke-dashoffset" values="15.92" fill="freeze" begin="9b31.click" /><animate attributeName="stroke-dashoffset" values="15.92;15.92;0" keyTimes="0;0.944;1" dur="2.836s" fill="freeze" begin="0s;9b31.click" /></path><path d="M78.02,18.54c3.84,4.51,9.99,10.29,13.1,12.07c0.89,0.51,1.39,0.86,2.13,1.03" stroke-dasharray="20.245" stroke-dashoffset="20.245"><animate attributeName="stroke-dashoffset" values="20.245" fill="freeze" begin="9b31.click" /><animate attributeName="stroke-dashoffset" values="20.245;20.245;0" keyTimes="0;0.934;1" dur="3.038s" fill="freeze" begin="0s;9b31.click" /></path><path d="M19.16,41.13c0,2.91-3.72,10.92-5.41,12.87" stroke-dasharray="14.089" stroke-dashoffset="14.089"><animate attributeName="stroke-dashoffset" values="14.089" fill="freeze" begin="9b31.click" /><animate attributeName="stroke-dashoffset" values="14.089;14.089;0" keyTimes="0;0.915;1" dur="3.32s" fill="freeze" begin="0s;9b31.click" /></path><path d="M18.99,44.24c9.51-0.99,60.24-3.03,67.95-3.4C99,40.25,89.5,48,86.5,50.11" stroke-dasharray="84.83" stroke-dashoffset="84.83"><animate attributeName="stroke-dashoffset" values="84.83" fill="freeze" begin="9b31.click" /><animate attributeName="stroke-dashoffset" values="84.83;84.83;0" keyTimes="0;0.839;1" dur="3.958s" fill="freeze" begin="0s;9b31.click" /></path><path d="M44.91,49.53c0.05,0.47,0.27,1.29-0.1,1.9C42.5,55.25,34.5,65,27.1,69.61" stroke-dasharray="27.487" stroke-dashoffset="27.487"><animate attributeName="stroke-dashoffset" values="27.487" fill="freeze" begin="9b31.click" /><animate attributeName="stroke-dashoffset" values="27.487;27.487;0" keyTimes="0;0.935;1" dur="4.233s" fill="freeze" begin="0s;9b31.click" /></path><path d="M29.57,52.91c5.7,2.95,14.71,12.14,16.14,16.74" stroke-dasharray="23.592" stroke-dashoffset="23.592"><animate attributeName="stroke-dashoffset" values="23.592" fill="freeze" begin="9b31.click" /><animate attributeName="stroke-dashoffset" values="23.592;23.592;0" keyTimes="0;0.947;1" dur="4.469s" fill="freeze" begin="0s;9b31.click" /></path><path d="M33.78,47.58c1.41,0.79,3.63,3.24,3.99,4.47" stroke-dasharray="6.077" stroke-dashoffset="6.077"><animate attributeName="stroke-dashoffset" values="6.077" fill="freeze" begin="9b31.click" /><animate attributeName="stroke-dashoffset" values="6.077;6.077;0" keyTimes="0;0.973;1" dur="4.591s" fill="freeze" begin="0s;9b31.click" /></path><path d="M26.71,56.64c1.41,0.88,3.63,3.6,3.99,4.97" stroke-dasharray="6.461" stroke-dashoffset="6.461"><animate attributeName="stroke-dashoffset" values="6.461" fill="freeze" begin="9b31.click" /><animate attributeName="stroke-dashoffset" values="6.461;6.461;0" keyTimes="0;0.973;1" dur="4.72s" fill="freeze" begin="0s;9b31.click" /></path><path d="M45.7,58.3c1.14,0.79,2.95,3.24,3.24,4.47" stroke-dasharray="5.592" stroke-dashoffset="5.592"><animate attributeName="stroke-dashoffset" values="5.592" fill="freeze" begin="9b31.click" /><animate attributeName="stroke-dashoffset" values="5.592;5.592;0" keyTimes="0;0.977;1" dur="4.832s" fill="freeze" begin="0s;9b31.click" /></path><path d="M35.51,65.78c1.19,0.56,3.07,2.31,3.37,3.18" stroke-dasharray="4.701" stroke-dashoffset="4.701"><animate attributeName="stroke-dashoffset" values="4.701" fill="freeze" begin="9b31.click" /><animate attributeName="stroke-dashoffset" values="4.701;4.701;0" keyTimes="0;0.981;1" dur="4.926s" fill="freeze" begin="0s;9b31.click" /></path><path d="M19.46,53.75c0.32,0.2,0.86,0.97,0.86,1.94c0,0.41,1.67,16.44,1.64,17.41c-0.03,0.96,0.29,1.65,1.35,1.54c5.9-0.57,25.29-1.48,28.67-1.68" stroke-dasharray="50.827" stroke-dashoffset="50.827"><animate attributeName="stroke-dashoffset" values="50.827" fill="freeze" begin="9b31.click" /><animate attributeName="stroke-dashoffset" values="50.827;50.827;0" keyTimes="0;0.907;1" dur="5.434s" fill="freeze" begin="0s;9b31.click" /></path><path d="M52.64,51.99c0.62,0.28,1.08,0.85,1.08,1.94c0,2.18-0.21,11.43-0.95,21.2" stroke-dasharray="23.589" stroke-dashoffset="23.589"><animate attributeName="stroke-dashoffset" values="23.589" fill="freeze" begin="9b31.click" /><animate attributeName="stroke-dashoffset" values="23.589;23.589;0" keyTimes="0;0.958;1" dur="5.67s" fill="freeze" begin="0s;9b31.click" /></path><path d="M46.74,79.93c0.17,0.18,0.28,0.72-0.17,1c-2.9,1.83-12.86,6.87-22.25,8.73" stroke-dasharray="25.15" stroke-dashoffset="25.15"><animate attributeName="stroke-dashoffset" values="25.15" fill="freeze" begin="9b31.click" /><animate attributeName="stroke-dashoffset" values="25.15;25.15;0" keyTimes="0;0.957;1" dur="5.922s" fill="freeze" begin="0s;9b31.click" /></path><path d="M21.46,79.82c0.59,0.56,0.63,0.93,0.83,1.67c0.2,0.75-0.04,8.93-0.04,11.26c0,5.99,7.88,5.06,14.59,5.06c5.2,0,9.54-0.32,11.5-1.99c1.96-1.67,1.72-3.62,1.92-5.3" stroke-dasharray="48.162" stroke-dashoffset="48.162"><animate attributeName="stroke-dashoffset" values="48.162" fill="freeze" begin="9b31.click" /><animate attributeName="stroke-dashoffset" values="48.162;48.162;0" keyTimes="0;0.925;1" dur="6.404s" fill="freeze" begin="0s;9b31.click" /></path><path d="M80.11,50.75c0.06,0.34,0.22,0.92-0.12,1.36C77,56,71.25,60.25,59.75,64.63" stroke-dasharray="25.489" stroke-dashoffset="25.489"><animate attributeName="stroke-dashoffset" values="25.489" fill="freeze" begin="9b31.click" /><animate attributeName="stroke-dashoffset" values="25.489;25.489;0" keyTimes="0;0.962;1" dur="6.659s" fill="freeze" begin="0s;9b31.click" /></path><path d="M85.67,64.39c0.08,0.4,0.28,1.09-0.15,1.61c-2.95,3.51-16.27,11.5-27.03,15.37" stroke-dasharray="32.958" stroke-dashoffset="32.958"><animate attributeName="stroke-dashoffset" values="32.958" fill="freeze" begin="9b31.click" /><animate attributeName="stroke-dashoffset" values="32.958;32.958;0" keyTimes="0;0.953;1" dur="6.989s" fill="freeze" begin="0s;9b31.click" /></path><path d="M91.3,79c0.1,0.47,0.2,1.22-0.18,1.9C88.85,84.89,75.86,93.64,58.07,99" stroke-dasharray="40.11" stroke-dashoffset="40.11"><animate attributeName="stroke-dashoffset" values="40.11" fill="freeze" begin="9b31.click" /><animate attributeName="stroke-dashoffset" values="40.11;40.11;0" keyTimes="0;0.946;1" dur="7.39s" fill="freeze" begin="0s;9b31.click" /></path></g></svg>