<svg xmlns="http://www.w3.org/2000/svg" viewBox="0 0 109 109" id="9d44"><g fill="none" stroke="#666" stroke-width="6" stroke-linecap="round" stroke-linejoin="round"><g><g><path d="M12,22c0.84,0.43,2.38,0.48,3.23,0.43C22.5,22,33,20.75,42.81,20.35c1.4-0.06,2.24,0.2,2.95,0.42" /><g><path d="M24.67,25.25c0.36,0.43,0.45,1.77,0.21,2.29c-2.38,5.21-6.16,10.57-10.48,16.19c-1.39,1.81-1.49,3.03,0.74,2.5c5.21-1.25,17.42-4.58,25.64-6.64" /><path d="M35.9,30.24c3.44,2.78,8.88,11.45,9.74,15.78" /></g><g><path d="M12.19,62.87c1.06,0.13,3.15,0.29,3.74,0.25c6.82-0.38,20.32-2.13,26.6-2.98c0.97-0.13,3.06,0.12,3.55,0.25" /><path d="M26.69,45.28c0.12,0.33,1.78,1.7,1.78,3.78c0,10.44,0.06,30.44,0.06,33.83" /><path d="M13.35,89.15c1.1,0.86,3.01,0.62,3.87,0.12c8.68-4.95,16.09-8.3,28.01-15.15" /></g></g><g><path d="M68.54,10.66c0.02,0.28,0.04,0.72-0.03,1.11c-0.41,2.32-2.74,7.29-5.93,10.18" /><path d="M55.8,23.42c0.33,0.43,0.6,1.02,0.6,1.73c0,7.23,0.04,33.51-0.17,44.88" /><path d="M56.81,24.75c1.55,0,21-3.17,22.51-3.06c2.24,0.16,3.33,2.15,3.13,4.02c-0.12,1.15-0.64,13.19-2.08,21.96" /><path d="M57.06,36.08c1.9,0.13,21.6-2.74,23.75-2.59" /><path d="M56.97,48.12c3.88-0.14,18.55-2.48,23.38-2.5" /><path d="M56.69,59.3c8.97-1.11,29.32-3.75,33.17-4.44c1.34-0.24,3.62-0.46,4.3-0.14" /><path d="M56.24,70.25c9.1-1.63,28.63-3.42,33.67-3.9c3.28-0.31,4.97,0.89,4.38,4.57C92.65,81.16,89.25,89,85.86,94.67c-3.56,5.96-4.86,3.08-7.3-0.24" /><g><path d="M51.1,80.23c-0.1,4.02-2.1,9.02-4.19,12.94" /><path d="M57.39,80.24c1.78,1.89,3.46,6.85,3.91,9.62" /><path d="M68.2,78.29c1.34,1.42,3.46,5.68,3.8,7.76" /><path d="M76.16,74.73c1.71,1.49,4.43,5.96,4.86,8.14" /></g></g></g></g><g fill="none" stroke="#000" stroke-width="3" stroke-linecap="round" stroke-linejoin="round"><path d="M12,22c0.84,0.43,2.38,0.48,3.23,0.43C22.5,22,33,20.75,42.81,20.35c1.4-0.06,2.24,0.2,2.95,0.42" stroke-dasharray="33.948" stroke-dashoffset="33.948"><animate attributeName="stroke-dashoffset" values="33.948;33.948;0" dur="0.339s" fill="freeze" begin="0s;9d44.click" /></path><path d="M24.67,25.25c0.36,0.43,0.45,1.77,0.21,2.29c-2.38,5.21-6.16,10.57-10.48,16.19c-1.39,1.81-1.49,3.03,0.74,2.5c5.21-1.25,17.42-4.58,25.64-6.64" stroke-dasharray="52.549" stroke-dashoffset="52.549"><animate attributeName="stroke-dashoffset" values="52.549" fill="freeze" begin="9d44.click" /><animate attributeName="stroke-dashoffset" values="52.549;52.549;0" keyTimes="0;0.392;1" dur="0.864s" fill="freeze" begin="0s;9d44.click" /></path><path d="M35.9,30.24c3.44,2.78,8.88,11.45,9.74,15.78" stroke-dasharray="18.757" stroke-dashoffset="18.757"><animate attributeName="stroke-dashoffset" values="18.757" fill="freeze" begin="9d44.click" /><animate attributeName="stroke-dashoffset" values="18.757;18.757;0" keyTimes="0;0.821;1" dur="1.052s" fill="freeze" begin="0s;9d44.click" /></path><path d="M12.19,62.87c1.06,0.13,3.15,0.29,3.74,0.25c6.82-0.38,20.32-2.13,26.6-2.98c0.97-0.13,3.06,0.12,3.55,0.25" stroke-dasharray="34.093" stroke-dashoffset="34.093"><animate attributeName="stroke-dashoffset" values="34.093" fill="freeze" begin="9d44.click" /><animate attributeName="stroke-dashoffset" values="34.093;34.093;0" keyTimes="0;0.755;1" dur="1.393s" fill="freeze" begin="0s;9d44.click" /></path><path d="M26.69,45.28c0.12,0.33,1.78,1.7,1.78,3.78c0,10.44,0.06,30.44,0.06,33.83" stroke-dasharray="38.104" stroke-dashoffset="38.104"><animate attributeName="stroke-dashoffset" values="38.104" fill="freeze" begin="9d44.click" /><animate attributeName="stroke-dashoffset" values="38.104;38.104;0" keyTimes="0;0.785;1" dur="1.774s" fill="freeze" begin="0s;9d44.click" /></path><path d="M13.35,89.15c1.1,0.86,3.01,0.62,3.87,0.12c8.68-4.95,16.09-8.3,28.01-15.15" stroke-dasharray="35.91" stroke-dashoffset="35.91"><animate attributeName="stroke-dashoffset" values="35.91" fill="freeze" begin="9d44.click" /><animate attributeName="stroke-dashoffset" values="35.91;35.91;0" keyTimes="0;0.832;1" dur="2.133s" fill="freeze" begin="0s;9d44.click" /></path><path d="M68.54,10.66c0.02,0.28,0.04,0.72-0.03,1.11c-0.41,2.32-2.74,7.29-5.93,10.18" stroke-dasharray="13.052" stroke-dashoffset="13.052"><animate attributeName="stroke-dashoffset" values="13.052" fill="freeze" begin="9d44.click" /><animate attributeName="stroke-dashoffset" values="13.052;13.052;0" keyTimes="0;0.891;1" dur="2.394s" fill="freeze" begin="0s;9d44.click" /></path><path d="M55.8,23.42c0.33,0.43,0.6,1.02,0.6,1.73c0,7.23,0.04,33.51-0.17,44.88" stroke-dasharray="46.746" stroke-dashoffset="46.746"><animate attributeName="stroke-dashoffset" values="46.746" fill="freeze" begin="9d44.click" /><animate attributeName="stroke-dashoffset" values="46.746;46.746;0" keyTimes="0;0.837;1" dur="2.861s" fill="freeze" begin="0s;9d44.click" /></path><path d="M56.81,24.75c1.55,0,21-3.17,22.51-3.06c2.24,0.16,3.33,2.15,3.13,4.02c-0.12,1.15-0.64,13.19-2.08,21.96" stroke-dasharray="50.511" stroke-dashoffset="50.511"><animate attributeName="stroke-dashoffset" values="50.511" fill="freeze" begin="9d44.click" /><animate attributeName="stroke-dashoffset" values="50.511;50.511;0" keyTimes="0;0.85;1" dur="3.366s" fill="freeze" begin="0s;9d44.click" /></path><path d="M57.06,36.08c1.9,0.13,21.6-2.74,23.75-2.59" stroke-dasharray="23.901" stroke-dashoffset="23.901"><animate attributeName="stroke-dashoffset" values="23.901" fill="freeze" begin="9d44.click" /><animate attributeName="stroke-dashoffset" values="23.901;23.901;0" keyTimes="0;0.934;1" dur="3.605s" fill="freeze" begin="0s;9d44.click" /></path><path d="M56.97,48.12c3.88-0.14,18.55-2.48,23.38-2.5" stroke-dasharray="23.522" stroke-dashoffset="23.522"><animate attributeName="stroke-dashoffset" values="23.522" fill="freeze" begin="9d44.click" /><animate attributeName="stroke-dashoffset" values="23.522;23.522;0" keyTimes="0;0.939;1" dur="3.84s" fill="freeze" begin="0s;9d44.click" /></path><path d="M56.69,59.3c8.97-1.11,29.32-3.75,33.17-4.44c1.34-0.24,3.62-0.46,4.3-0.14" stroke-dasharray="37.804" stroke-dashoffset="37.804"><animate attributeName="stroke-dashoffset" values="37.804" fill="freeze" begin="9d44.click" /><animate attributeName="stroke-dashoffset" values="37.804;37.804;0" keyTimes="0;0.91;1" dur="4.218s" fill="freeze" begin="0s;9d44.click" /></path><path d="M56.24,70.25c9.1-1.63,28.63-3.42,33.67-3.9c3.28-0.31,4.97,0.89,4.38,4.57C92.65,81.16,89.25,89,85.86,94.67c-3.56,5.96-4.86,3.08-7.3-0.24" stroke-dasharray="77.657" stroke-dashoffset="77.657"><animate attributeName="stroke-dashoffset" values="77.657" fill="freeze" begin="9d44.click" /><animate attributeName="stroke-dashoffset" values="77.657;77.657;0" keyTimes="0;0.878;1" dur="4.802s" fill="freeze" begin="0s;9d44.click" /></path><path d="M51.1,80.23c-0.1,4.02-2.1,9.02-4.19,12.94" stroke-dasharray="13.711" stroke-dashoffset="13.711"><animate attributeName="stroke-dashoffset" values="13.711" fill="freeze" begin="9d44.click" /><animate attributeName="stroke-dashoffset" values="13.711;13.711;0" keyTimes="0;0.946;1" dur="5.076s" fill="freeze" begin="0s;9d44.click" /></path><path d="M57.39,80.24c1.78,1.89,3.46,6.85,3.91,9.62" stroke-dasharray="10.487" stroke-dashoffset="10.487"><animate attributeName="stroke-dashoffset" values="10.487" fill="freeze" begin="9d44.click" /><animate attributeName="stroke-dashoffset" values="10.487;10.487;0" keyTimes="0;0.96;1" dur="5.286s" fill="freeze" begin="0s;9d44.click" /></path><path d="M68.2,78.29c1.34,1.42,3.46,5.68,3.8,7.76" stroke-dasharray="8.713" stroke-dashoffset="8.713"><animate attributeName="stroke-dashoffset" values="8.713" fill="freeze" begin="9d44.click" /><animate attributeName="stroke-dashoffset" values="8.713;8.713;0" keyTimes="0;0.968;1" dur="5.46s" fill="freeze" begin="0s;9d44.click" /></path><path d="M76.16,74.73c1.71,1.49,4.43,5.96,4.86,8.14" stroke-dasharray="9.578" stroke-dashoffset="9.578"><animate attributeName="stroke-dashoffset" values="9.578" fill="freeze" begin="9d44.click" /><animate attributeName="stroke-dashoffset" values="9.578;9.578;0" keyTimes="0;0.966;1" dur="5.652s" fill="freeze" begin="0s;9d44.click" /></path></g></svg>