<svg xmlns="http://www.w3.org/2000/svg" viewBox="0 0 109 109" id="9df8"><g fill="none" stroke="#666" stroke-width="6" stroke-linecap="round" stroke-linejoin="round"><g><g><g><g><g><path d="M16.31,15.78c1.06,0.38,1.69,1.22,4.16,1.3c5.04,0.17,19.57-2.01,21.72-2.36s2.88,1.47,1.6,2.61c-2.19,1.96-9.49,5.34-10.85,6.74" /><path d="M26.78,20.78c1.77,0.73,6.36,3.54,7.2,5.45" /></g><g><path d="M11.44,31.01c0.6,0.22,2.88,0.83,4.79,0.61c9.77-1.12,27.24-3.96,33.18-4.16c6.09-0.2,2.59,3.8-1.71,7.69" /><g><path d="M32.57,29.47c0.68,0.4,2.19,1.4,2.19,3.14c0,8.38,0.17,2.38,0.17,14.16c0,6.19-3.88,1.48-4.8,0.13" /></g></g></g><g><path d="M31.14,29.63c0.05,0.4,0.23,1.08-0.1,1.6c-2.9,4.62-8.74,10.54-17.78,15.29" /></g></g><g><g><path d="M14.8,53.52c0.59,0.78,0.78,1.75,0.78,3c0,1.42,0.2,36.53,0.2,38.88" /><path d="M15.47,54.55c4.87-0.41,28.76-3.94,29.75-4.05c2.28-0.25,3.55,0.75,3.62,4.17c0.02,1.02,0.05,33.28-0.08,35.63c-0.41,7.7-3.92,2.34-5.7,0.91" /></g><g><g><path d="M26.86,56c0.03,0.52,0.41,0.52,0.24,1.09c-0.91,2.97-3.03,6.8-6.72,10.48" /></g><path d="M35.1,54.35c0.24,0.32,0.43,0.7,0.45,1.2c0.06,2.22-0.17,3.87-0.17,5.38c0,3.53,2.9,2.62,5.74,2.62c3,0,4.1-0.46,4.52-0.71" /></g><g><path d="M25.05,71.57c0.19,0.2,0.38,0.37,0.46,0.62c0.65,1.99,1.21,8.46,1.66,12.03" /><path d="M26.22,72.91c3.85-0.65,9.66-2.17,11.87-2.43c0.81-0.1,1.29,0.56,1.17,1.12c-0.53,2.56-0.96,5.86-1.62,8.83" /><path d="M27.26,82.23c2.59-0.29,7.63-0.8,11.19-1.26" /></g></g></g><g><path d="M72.54,10.66c0.02,0.34,0.04,0.88-0.04,1.36c-0.44,2.83-2.97,8.9-6.42,12.43" /><path d="M59.3,24.92c0.33,0.43,0.6,1.02,0.6,1.73c0,7.23,0.54,31.01,0.33,42.38" /><path d="M60.31,26.25c1.55,0,22.5-3.17,24.01-3.06c2.24,0.16,3.33,2.15,3.13,4.02c-0.12,1.15-1.64,10.19-3.08,18.96" /><path d="M60.56,35.58c1.9,0.13,23.1-2.74,25.25-2.59" /><path d="M60.47,46.62c3.88-0.14,19.05-2.48,23.88-2.5" /><path d="M60.69,57.83c8.85-1,28.93-3.39,32.73-4.02c1.33-0.22,3.57-0.42,4.24-0.13" /><path d="M60.24,69.25c9.1-1.63,27.13-3.42,32.17-3.9c3.28-0.31,4.97,0.89,4.38,4.57c-1.64,10.24-4.58,18.96-7.43,25.25c-2.86,6.33-6.47,1.04-7.8-0.24" /><g><path d="M56.1,78.98c0.52,4.69-0.38,10.31-1.91,13.19" /><path d="M64.07,78.74c1.27,1.99,2.47,7.2,2.79,10.12" /><path d="M71.49,75.29c1.76,1.87,4.54,7.51,4.98,10.26" /><path d="M82.16,73.48c1.36,1.62,3.52,6.51,3.86,8.89" /></g></g></g></g><g fill="none" stroke="#000" stroke-width="3" stroke-linecap="round" stroke-linejoin="round"><path d="M16.31,15.78c1.06,0.38,1.69,1.22,4.16,1.3c5.04,0.17,19.57-2.01,21.72-2.36s2.88,1.47,1.6,2.61c-2.19,1.96-9.49,5.34-10.85,6.74" stroke-dasharray="43.519" stroke-dashoffset="43.519"><animate attributeName="stroke-dashoffset" values="43.519;43.519;0" dur="0.435s" fill="freeze" begin="0s;9df8.click" /></path><path d="M26.78,20.78c1.77,0.73,6.36,3.54,7.2,5.45" stroke-dasharray="9.151" stroke-dashoffset="9.151"><animate attributeName="stroke-dashoffset" values="9.151" fill="freeze" begin="9df8.click" /><animate attributeName="stroke-dashoffset" values="9.151;9.151;0" keyTimes="0;0.704;1" dur="0.618s" fill="freeze" begin="0s;9df8.click" /></path><path d="M11.44,31.01c0.6,0.22,2.88,0.83,4.79,0.61c9.77-1.12,27.24-3.96,33.18-4.16c6.09-0.2,2.59,3.8-1.71,7.69" stroke-dasharray="50.43" stroke-dashoffset="50.43"><animate attributeName="stroke-dashoffset" values="50.43" fill="freeze" begin="9df8.click" /><animate attributeName="stroke-dashoffset" values="50.43;50.43;0" keyTimes="0;0.551;1" dur="1.122s" fill="freeze" begin="0s;9df8.click" /></path><path d="M32.57,29.47c0.68,0.4,2.19,1.4,2.19,3.14c0,8.38,0.17,2.38,0.17,14.16c0,6.19-3.88,1.48-4.8,0.13" stroke-dasharray="26.608" stroke-dashoffset="26.608"><animate attributeName="stroke-dashoffset" values="26.608" fill="freeze" begin="9df8.click" /><animate attributeName="stroke-dashoffset" values="26.608;26.608;0" keyTimes="0;0.808;1" dur="1.388s" fill="freeze" begin="0s;9df8.click" /></path><path d="M31.14,29.63c0.05,0.4,0.23,1.08-0.1,1.6c-2.9,4.62-8.74,10.54-17.78,15.29" stroke-dasharray="25.345" stroke-dashoffset="25.345"><animate attributeName="stroke-dashoffset" values="25.345" fill="freeze" begin="9df8.click" /><animate attributeName="stroke-dashoffset" values="25.345;25.345;0" keyTimes="0;0.846;1" dur="1.641s" fill="freeze" begin="0s;9df8.click" /></path><path d="M14.8,53.52c0.59,0.78,0.78,1.75,0.78,3c0,1.42,0.2,36.53,0.2,38.88" stroke-dasharray="42.039" stroke-dashoffset="42.039"><animate attributeName="stroke-dashoffset" values="42.039" fill="freeze" begin="9df8.click" /><animate attributeName="stroke-dashoffset" values="42.039;42.039;0" keyTimes="0;0.796;1" dur="2.061s" fill="freeze" begin="0s;9df8.click" /></path><path d="M15.47,54.55c4.87-0.41,28.76-3.94,29.75-4.05c2.28-0.25,3.55,0.75,3.62,4.17c0.02,1.02,0.05,33.28-0.08,35.63c-0.41,7.7-3.92,2.34-5.7,0.91" stroke-dasharray="82.109" stroke-dashoffset="82.109"><animate attributeName="stroke-dashoffset" values="82.109" fill="freeze" begin="9df8.click" /><animate attributeName="stroke-dashoffset" values="82.109;82.109;0" keyTimes="0;0.77;1" dur="2.678s" fill="freeze" begin="0s;9df8.click" /></path><path d="M26.86,56c0.03,0.52,0.41,0.52,0.24,1.09c-0.91,2.97-3.03,6.8-6.72,10.48" stroke-dasharray="13.722" stroke-dashoffset="13.722"><animate attributeName="stroke-dashoffset" values="13.722" fill="freeze" begin="9df8.click" /><animate attributeName="stroke-dashoffset" values="13.722;13.722;0" keyTimes="0;0.907;1" dur="2.952s" fill="freeze" begin="0s;9df8.click" /></path><path d="M35.1,54.35c0.24,0.32,0.43,0.7,0.45,1.2c0.06,2.22-0.17,3.87-0.17,5.38c0,3.53,2.9,2.62,5.74,2.62c3,0,4.1-0.46,4.52-0.71" stroke-dasharray="18.781" stroke-dashoffset="18.781"><animate attributeName="stroke-dashoffset" values="18.781" fill="freeze" begin="9df8.click" /><animate attributeName="stroke-dashoffset" values="18.781;18.781;0" keyTimes="0;0.94;1" dur="3.14s" fill="freeze" begin="0s;9df8.click" /></path><path d="M25.05,71.57c0.19,0.2,0.38,0.37,0.46,0.62c0.65,1.99,1.21,8.46,1.66,12.03" stroke-dasharray="12.934" stroke-dashoffset="12.934"><animate attributeName="stroke-dashoffset" values="12.934" fill="freeze" begin="9df8.click" /><animate attributeName="stroke-dashoffset" values="12.934;12.934;0" keyTimes="0;0.924;1" dur="3.399s" fill="freeze" begin="0s;9df8.click" /></path><path d="M26.22,72.91c3.85-0.65,9.66-2.17,11.87-2.43c0.81-0.1,1.29,0.56,1.17,1.12c-0.53,2.56-0.96,5.86-1.62,8.83" stroke-dasharray="22.995" stroke-dashoffset="22.995"><animate attributeName="stroke-dashoffset" values="22.995" fill="freeze" begin="9df8.click" /><animate attributeName="stroke-dashoffset" values="22.995;22.995;0" keyTimes="0;0.937;1" dur="3.629s" fill="freeze" begin="0s;9df8.click" /></path><path d="M27.26,82.23c2.59-0.29,7.63-0.8,11.19-1.26" stroke-dasharray="11.262" stroke-dashoffset="11.262"><animate attributeName="stroke-dashoffset" values="11.262" fill="freeze" begin="9df8.click" /><animate attributeName="stroke-dashoffset" values="11.262;11.262;0" keyTimes="0;0.942;1" dur="3.854s" fill="freeze" begin="0s;9df8.click" /></path><path d="M72.54,10.66c0.02,0.34,0.04,0.88-0.04,1.36c-0.44,2.83-2.97,8.9-6.42,12.43" stroke-dasharray="15.518" stroke-dashoffset="15.518"><animate attributeName="stroke-dashoffset" values="15.518" fill="freeze" begin="9df8.click" /><animate attributeName="stroke-dashoffset" values="15.518;15.518;0" keyTimes="0;0.961;1" dur="4.009s" fill="freeze" begin="0s;9df8.click" /></path><path d="M59.3,24.92c0.33,0.43,0.6,1.02,0.6,1.73c0,7.23,0.54,31.01,0.33,42.38" stroke-dasharray="44.248" stroke-dashoffset="44.248"><animate attributeName="stroke-dashoffset" values="44.248" fill="freeze" begin="9df8.click" /><animate attributeName="stroke-dashoffset" values="44.248;44.248;0" keyTimes="0;0.901;1" dur="4.451s" fill="freeze" begin="0s;9df8.click" /></path><path d="M60.31,26.25c1.55,0,22.5-3.17,24.01-3.06c2.24,0.16,3.33,2.15,3.13,4.02c-0.12,1.15-1.64,10.19-3.08,18.96" stroke-dasharray="49.139" stroke-dashoffset="49.139"><animate attributeName="stroke-dashoffset" values="49.139" fill="freeze" begin="9df8.click" /><animate attributeName="stroke-dashoffset" values="49.139;49.139;0" keyTimes="0;0.901;1" dur="4.942s" fill="freeze" begin="0s;9df8.click" /></path><path d="M60.56,35.58c1.9,0.13,23.1-2.74,25.25-2.59" stroke-dasharray="25.391" stroke-dashoffset="25.391"><animate attributeName="stroke-dashoffset" values="25.391" fill="freeze" begin="9df8.click" /><animate attributeName="stroke-dashoffset" values="25.391;25.391;0" keyTimes="0;0.951;1" dur="5.196s" fill="freeze" begin="0s;9df8.click" /></path><path d="M60.47,46.62c3.88-0.14,19.05-2.48,23.88-2.5" stroke-dasharray="24.019" stroke-dashoffset="24.019"><animate attributeName="stroke-dashoffset" values="24.019" fill="freeze" begin="9df8.click" /><animate attributeName="stroke-dashoffset" values="24.019;24.019;0" keyTimes="0;0.956;1" dur="5.436s" fill="freeze" begin="0s;9df8.click" /></path><path d="M60.69,57.83c8.85-1,28.93-3.39,32.73-4.02c1.33-0.22,3.57-0.42,4.24-0.13" stroke-dasharray="37.248" stroke-dashoffset="37.248"><animate attributeName="stroke-dashoffset" values="37.248" fill="freeze" begin="9df8.click" /><animate attributeName="stroke-dashoffset" values="37.248;37.248;0" keyTimes="0;0.936;1" dur="5.808s" fill="freeze" begin="0s;9df8.click" /></path><path d="M60.24,69.25c9.1-1.63,27.13-3.42,32.17-3.9c3.28-0.31,4.97,0.89,4.38,4.57c-1.64,10.24-4.58,18.96-7.43,25.25c-2.86,6.33-6.47,1.04-7.8-0.24" stroke-dasharray="77.126" stroke-dashoffset="77.126"><animate attributeName="stroke-dashoffset" values="77.126" fill="freeze" begin="9df8.click" /><animate attributeName="stroke-dashoffset" values="77.126;77.126;0" keyTimes="0;0.909;1" dur="6.388s" fill="freeze" begin="0s;9df8.click" /></path><path d="M56.1,78.98c0.52,4.69-0.38,10.31-1.91,13.19" stroke-dasharray="13.486" stroke-dashoffset="13.486"><animate attributeName="stroke-dashoffset" values="13.486" fill="freeze" begin="9df8.click" /><animate attributeName="stroke-dashoffset" values="13.486;13.486;0" keyTimes="0;0.959;1" dur="6.658s" fill="freeze" begin="0s;9df8.click" /></path><path d="M64.07,78.74c1.27,1.99,2.47,7.2,2.79,10.12" stroke-dasharray="10.556" stroke-dashoffset="10.556"><animate attributeName="stroke-dashoffset" values="10.556" fill="freeze" begin="9df8.click" /><animate attributeName="stroke-dashoffset" values="10.556;10.556;0" keyTimes="0;0.969;1" dur="6.869s" fill="freeze" begin="0s;9df8.click" /></path><path d="M71.49,75.29c1.76,1.87,4.54,7.51,4.98,10.26" stroke-dasharray="11.5" stroke-dashoffset="11.5"><animate attributeName="stroke-dashoffset" values="11.5" fill="freeze" begin="9df8.click" /><animate attributeName="stroke-dashoffset" values="11.5;11.5;0" keyTimes="0;0.968;1" dur="7.099s" fill="freeze" begin="0s;9df8.click" /></path><path d="M82.16,73.48c1.36,1.62,3.52,6.51,3.86,8.89" stroke-dasharray="9.762" stroke-dashoffset="9.762"><animate attributeName="stroke-dashoffset" values="9.762" fill="freeze" begin="9df8.click" /><animate attributeName="stroke-dashoffset" values="9.762;9.762;0" keyTimes="0;0.973;1" dur="7.294s" fill="freeze" begin="0s;9df8.click" /></path></g></svg>