<svg xmlns="http://www.w3.org/2000/svg" viewBox="0 0 109 109" id="9e79"><g fill="none" stroke="#666" stroke-width="6" stroke-linecap="round" stroke-linejoin="round"><g><g><g><path d="M23.28,11.41c0.47,0.4,1.48,2.98,1.57,3.78c0.1,0.8,0.29,15.67,0.2,20.65" /><path d="M24.95,23.59c1.88-0.23,14.06-1.61,16.05-2.07c1.02-0.23,2.41,0.01,3.25,0.23" /></g><g><g><path d="M11.45,35.16c0.35,1.2,0.86,2.1,0.86,3.69c0.07,11.95,0.07,33.55-0.14,56.37" /><path d="M12.56,37.11c13.12-1.26,24.94-3.52,26.96-3.52c2.2,0,2.98,2.08,2.95,4.61c-0.16,13.19-0.64,36.3-0.32,54.93" /></g><path d="M34.03,39.35c0.26,1,0.42,2.34-0.08,3.98c-4.9,16.05-9.27,26.94-16.15,36.98" /><path d="M17.98,48.51c6.83,7.68,14.34,22.29,17.96,33.89" /><path d="M22.5,40.72c1.66,1.64,3.48,4.76,4.36,7.23" /><path d="M17.81,59.57c1.37,1.5,2.88,4.34,3.61,6.6" /><path d="M33.99,57.46c1.33,1.7,2.8,4.95,3.5,7.52" /><path d="M25.54,77.38c1.19,1.79,2.49,5.19,3.12,7.88" /><g><path d="M12.61,92.72c8.14-0.97,20.49-2.26,28.88-2.6" /></g></g></g><g><g><g><path d="M54.03,31.03c0.02,1.33-0.02,3.43-0.04,5.34c-0.16,17.87-2.08,43.6-6.19,51.91" /></g><g><g><g><path d="M51.58,30.44c1.14,0.49,3.23,0.63,4.37,0.49C64,30,77.8,27.75,90.42,26.67c1.89-0.16,3.04-0.26,3.99-0.02" /></g></g><g><path d="M57.15,46.05c1.38,0.19,3.33,0.07,4.18-0.05c3-0.41,4.88-0.96,7.63-1.22c1.4-0.14,2.62-0.25,3.33-0.1" /></g></g></g><g><path d="M57.28,58.23c0.32,0.38,0.64,0.7,0.78,1.17c1.1,3.77,2.35,11.51,3.1,18.28" /><path d="M58.75,59.32c6.48-1.48,8.58-2.17,12.28-2.67c1.35-0.18,2.17,1.07,1.97,2.14c-0.8,4.41-0.9,7.5-2.09,13.59" /><path d="M60.97,74.51c4.36-0.56,5.32-0.72,11.3-1.58" /></g><g><g><g><path d="M72.11,10.75c1.26,1.81,1.85,2.31,2.05,6.21c1.62,30.54,8.08,60.76,20.78,77.02c4.08,5.23,4.19,1.44,3.56-6.58" /></g><g><path d="M92.87,41.87c0.09,1.17,0.18,3.02-0.16,4.7C90.25,58.75,82.5,81.5,63.87,92.37" /></g><g><g><path d="M83.06,11.37c2.94,1.71,7.64,5.61,9.01,8.54" /></g></g></g></g></g></g></g><g fill="none" stroke="#000" stroke-width="3" stroke-linecap="round" stroke-linejoin="round"><path d="M23.28,11.41c0.47,0.4,1.48,2.98,1.57,3.78c0.1,0.8,0.29,15.67,0.2,20.65" stroke-dasharray="24.778" stroke-dashoffset="24.778"><animate attributeName="stroke-dashoffset" values="24.778;24.778;0" dur="0.248s" fill="freeze" begin="0s;9e79.click" /></path><path d="M24.95,23.59c1.88-0.23,14.06-1.61,16.05-2.07c1.02-0.23,2.41,0.01,3.25,0.23" stroke-dasharray="19.471" stroke-dashoffset="19.471"><animate attributeName="stroke-dashoffset" values="19.471" fill="freeze" begin="9e79.click" /><animate attributeName="stroke-dashoffset" values="19.471;19.471;0" keyTimes="0;0.56;1" dur="0.443s" fill="freeze" begin="0s;9e79.click" /></path><path d="M11.45,35.16c0.35,1.2,0.86,2.1,0.86,3.69c0.07,11.95,0.07,33.55-0.14,56.37" stroke-dasharray="60.182" stroke-dashoffset="60.182"><animate attributeName="stroke-dashoffset" values="60.182" fill="freeze" begin="9e79.click" /><animate attributeName="stroke-dashoffset" values="60.182;60.182;0" keyTimes="0;0.495;1" dur="0.895s" fill="freeze" begin="0s;9e79.click" /></path><path d="M12.56,37.11c13.12-1.26,24.94-3.52,26.96-3.52c2.2,0,2.98,2.08,2.95,4.61c-0.16,13.19-0.64,36.3-0.32,54.93" stroke-dasharray="88.305" stroke-dashoffset="88.305"><animate attributeName="stroke-dashoffset" values="88.305" fill="freeze" begin="9e79.click" /><animate attributeName="stroke-dashoffset" values="88.305;88.305;0" keyTimes="0;0.574;1" dur="1.559s" fill="freeze" begin="0s;9e79.click" /></path><path d="M34.03,39.35c0.26,1,0.42,2.34-0.08,3.98c-4.9,16.05-9.27,26.94-16.15,36.98" stroke-dasharray="44.554" stroke-dashoffset="44.554"><animate attributeName="stroke-dashoffset" values="44.554" fill="freeze" begin="9e79.click" /><animate attributeName="stroke-dashoffset" values="44.554;44.554;0" keyTimes="0;0.778;1" dur="2.005s" fill="freeze" begin="0s;9e79.click" /></path><path d="M17.98,48.51c6.83,7.68,14.34,22.29,17.96,33.89" stroke-dasharray="38.583" stroke-dashoffset="38.583"><animate attributeName="stroke-dashoffset" values="38.583" fill="freeze" begin="9e79.click" /><animate attributeName="stroke-dashoffset" values="38.583;38.583;0" keyTimes="0;0.839;1" dur="2.391s" fill="freeze" begin="0s;9e79.click" /></path><path d="M22.5,40.72c1.66,1.64,3.48,4.76,4.36,7.23" stroke-dasharray="8.501" stroke-dashoffset="8.501"><animate attributeName="stroke-dashoffset" values="8.501" fill="freeze" begin="9e79.click" /><animate attributeName="stroke-dashoffset" values="8.501;8.501;0" keyTimes="0;0.934;1" dur="2.561s" fill="freeze" begin="0s;9e79.click" /></path><path d="M17.81,59.57c1.37,1.5,2.88,4.34,3.61,6.6" stroke-dasharray="7.569" stroke-dashoffset="7.569"><animate attributeName="stroke-dashoffset" values="7.569" fill="freeze" begin="9e79.click" /><animate attributeName="stroke-dashoffset" values="7.569;7.569;0" keyTimes="0;0.944;1" dur="2.712s" fill="freeze" begin="0s;9e79.click" /></path><path d="M33.99,57.46c1.33,1.7,2.8,4.95,3.5,7.52" stroke-dasharray="8.338" stroke-dashoffset="8.338"><animate attributeName="stroke-dashoffset" values="8.338" fill="freeze" begin="9e79.click" /><animate attributeName="stroke-dashoffset" values="8.338;8.338;0" keyTimes="0;0.942;1" dur="2.879s" fill="freeze" begin="0s;9e79.click" /></path><path d="M25.54,77.38c1.19,1.79,2.49,5.19,3.12,7.88" stroke-dasharray="8.511" stroke-dashoffset="8.511"><animate attributeName="stroke-dashoffset" values="8.511" fill="freeze" begin="9e79.click" /><animate attributeName="stroke-dashoffset" values="8.511;8.511;0" keyTimes="0;0.944;1" dur="3.049s" fill="freeze" begin="0s;9e79.click" /></path><path d="M12.61,92.72c8.14-0.97,20.49-2.26,28.88-2.6" stroke-dasharray="29.004" stroke-dashoffset="29.004"><animate attributeName="stroke-dashoffset" values="29.004" fill="freeze" begin="9e79.click" /><animate attributeName="stroke-dashoffset" values="29.004;29.004;0" keyTimes="0;0.913;1" dur="3.339s" fill="freeze" begin="0s;9e79.click" /></path><path d="M54.03,31.03c0.02,1.33-0.02,3.43-0.04,5.34c-0.16,17.87-2.08,43.6-6.19,51.91" stroke-dasharray="57.855" stroke-dashoffset="57.855"><animate attributeName="stroke-dashoffset" values="57.855" fill="freeze" begin="9e79.click" /><animate attributeName="stroke-dashoffset" values="57.855;57.855;0" keyTimes="0;0.852;1" dur="3.918s" fill="freeze" begin="0s;9e79.click" /></path><path d="M51.58,30.44c1.14,0.49,3.23,0.63,4.37,0.49C64,30,77.8,27.75,90.42,26.67c1.89-0.16,3.04-0.26,3.99-0.02" stroke-dasharray="43.178" stroke-dashoffset="43.178"><animate attributeName="stroke-dashoffset" values="43.178" fill="freeze" begin="9e79.click" /><animate attributeName="stroke-dashoffset" values="43.178;43.178;0" keyTimes="0;0.901;1" dur="4.35s" fill="freeze" begin="0s;9e79.click" /></path><path d="M57.15,46.05c1.38,0.19,3.33,0.07,4.18-0.05c3-0.41,4.88-0.96,7.63-1.22c1.4-0.14,2.62-0.25,3.33-0.1" stroke-dasharray="15.262" stroke-dashoffset="15.262"><animate attributeName="stroke-dashoffset" values="15.262" fill="freeze" begin="9e79.click" /><animate attributeName="stroke-dashoffset" values="15.262;15.262;0" keyTimes="0;0.966;1" dur="4.503s" fill="freeze" begin="0s;9e79.click" /></path><path d="M57.28,58.23c0.32,0.38,0.64,0.7,0.78,1.17c1.1,3.77,2.35,11.51,3.1,18.28" stroke-dasharray="19.976" stroke-dashoffset="19.976"><animate attributeName="stroke-dashoffset" values="19.976" fill="freeze" begin="9e79.click" /><animate attributeName="stroke-dashoffset" values="19.976;19.976;0" keyTimes="0;0.957;1" dur="4.703s" fill="freeze" begin="0s;9e79.click" /></path><path d="M58.75,59.32c6.48-1.48,8.58-2.17,12.28-2.67c1.35-0.18,2.17,1.07,1.97,2.14c-0.8,4.41-0.9,7.5-2.09,13.59" stroke-dasharray="29.722" stroke-dashoffset="29.722"><animate attributeName="stroke-dashoffset" values="29.722" fill="freeze" begin="9e79.click" /><animate attributeName="stroke-dashoffset" values="29.722;29.722;0" keyTimes="0;0.941;1" dur="5s" fill="freeze" begin="0s;9e79.click" /></path><path d="M60.97,74.51c4.36-0.56,5.32-0.72,11.3-1.58" stroke-dasharray="11.411" stroke-dashoffset="11.411"><animate attributeName="stroke-dashoffset" values="11.411" fill="freeze" begin="9e79.click" /><animate attributeName="stroke-dashoffset" values="11.411;11.411;0" keyTimes="0;0.956;1" dur="5.228s" fill="freeze" begin="0s;9e79.click" /></path><path d="M72.11,10.75c1.26,1.81,1.85,2.31,2.05,6.21c1.62,30.54,8.08,60.76,20.78,77.02c4.08,5.23,4.19,1.44,3.56-6.58" stroke-dasharray="100.699" stroke-dashoffset="100.699"><animate attributeName="stroke-dashoffset" values="100.699" fill="freeze" begin="9e79.click" /><animate attributeName="stroke-dashoffset" values="100.699;100.699;0" keyTimes="0;0.874;1" dur="5.985s" fill="freeze" begin="0s;9e79.click" /></path><path d="M92.87,41.87c0.09,1.17,0.18,3.02-0.16,4.7C90.25,58.75,82.5,81.5,63.87,92.37" stroke-dasharray="60.393" stroke-dashoffset="60.393"><animate attributeName="stroke-dashoffset" values="60.393" fill="freeze" begin="9e79.click" /><animate attributeName="stroke-dashoffset" values="60.393;60.393;0" keyTimes="0;0.929;1" dur="6.439s" fill="freeze" begin="0s;9e79.click" /></path><path d="M83.06,11.37c2.94,1.71,7.64,5.61,9.01,8.54" stroke-dasharray="12.548" stroke-dashoffset="12.548"><animate attributeName="stroke-dashoffset" values="12.548" fill="freeze" begin="9e79.click" /><animate attributeName="stroke-dashoffset" values="12.548;12.548;0" keyTimes="0;0.962;1" dur="6.69s" fill="freeze" begin="0s;9e79.click" /></path></g></svg>